<?xml version='1.0' encoding='ASCII'?>
<svg xmlns="http://www.w3.org/2000/svg" width="16" height="16">
<defs><style id="current-color-scheme" type="text/css">.ColorScheme-Text{color:#fcfcfc; fill:currentColor;}</style></defs><path fill="currentColor" d="M8 0C3.588 0 0 3.588 0 8s3.588 8 8 8 8-3.588 8-8-3.588-8-8-8m0 1c3.872 0 7 3.128 7 7a6.97 6.97 0 0 1-1.71 4.582L3.417 2.711A6.97 6.97 0 0 1 8 1M2.711 3.418l9.871 9.871A6.97 6.97 0 0 1 8 15c-3.872 0-7-3.128-7-7 0-1.756.647-3.355 1.711-4.582" color="#fcfcfc" font-family="sans-serif" font-weight="400" overflow="visible" style="line-height:normal;font-variant-ligatures:normal;font-variant-position:normal;font-variant-caps:normal;font-variant-numeric:normal;font-variant-alternates:normal;font-feature-settings:normal;text-indent:0;text-align:start;text-decoration-line:none;text-decoration-style:solid;text-decoration-color:#fcfcfc;text-transform:none;text-orientation:mixed;shape-padding:0;isolation:auto;mix-blend-mode:normal;fill:currentColor" class="ColorScheme-Text"/>
</svg>
