<svg xmlns="http://www.w3.org/2000/svg" width="16" height="16" viewBox="0 0 4.233 4.233">
<style id="current-color-scheme" type="text/css">
.ColorScheme-Contrast{color:#dedede}
</style>
<path d="M2.646 0v.265H4.1c.073 0 .132.059.132.132v1.058c0 .073-.06.132-.132.132H2.647v2.646H2.38v-.529H.132A.13.13 0 0 1 0 3.572V2.514c0-.074.059-.133.132-.133h2.25v-.264H.925a.13.13 0 0 1-.132-.133V.926c0-.073.059-.132.132-.132H2.38V0zM3.97.53H2.646v.793H3.97zm-1.588.528H1.058v.794h1.323zm0 1.588H.265v.794H2.38z" class="ColorScheme-Contrast" style="fill:currentColor"/>
</svg>
