<?xml version='1.0' encoding='ASCII'?>
<svg xmlns="http://www.w3.org/2000/svg" width="16" height="16" viewBox="0 0 4.233 4.233">
<defs><style id="current-color-scheme" type="text/css">.ColorScheme-Contrast{color:#dedede; fill:currentColor;}</style></defs><path d="M1.852 0v.661h.265V0zM.926.53a.13.13 0 0 0-.132.13v1.323c0 .074.059.133.132.133h.698a.3.3 0 0 1-.036-.133v-.132h-.53V.794h.566a.3.3 0 0 1-.036-.132V.529H.926zm1.453 0v.132a.3.3 0 0 1-.035.132h.566v1.058h-.53v.132a.3.3 0 0 1-.037.133h.7c.073 0 .133-.06.132-.133V.661A.13.13 0 0 0 3.042.53zm-.527.66v.794h.265v-.793zM.397 2.382a.13.13 0 0 0-.132.133v1.322c0 .074.059.133.132.133h1.191v-.133q0-.07.035-.132H.53V2.646h1.059v-.132q0-.072.036-.133H.397zm1.946 0q.036.061.036.133v.132h1.06v1.058H2.345q.035.061.035.132v.133h1.192c.074 0 .134-.06.133-.133V2.514a.13.13 0 0 0-.133-.133zm-.491.133v.793h.265v-.793zm0 1.322v.397h.265v-.397z" class="ColorScheme-Contrast" style="fill:currentColor" fill="currentColor"/>
</svg>
