<?xml version='1.0' encoding='ASCII'?>
<svg xmlns="http://www.w3.org/2000/svg" width="16" height="16" viewBox="0 0 4.233 4.233">
<defs><style id="current-color-scheme" type="text/css">.ColorScheme-Contrast{color:#dedede; fill:currentColor;}</style></defs><path d="M4.233 1.587H3.97V.133A.13.13 0 0 0 3.836 0H2.778a.13.13 0 0 0-.132.132v1.454H0v.266h.53v2.249c0 .073.058.132.131.132H1.72c.073 0 .132-.06.132-.132V1.852h.265v1.455c0 .074.059.133.132.133h1.058c.074 0 .134-.06.133-.133V1.852h.793zM3.704.265v1.322H2.91V.265zm-.529 1.587v1.323h-.794V1.852zm-1.587 0V3.97H.794V1.852z" class="ColorScheme-Contrast" style="fill:currentColor" fill="currentColor"/>
</svg>
