<svg xmlns="http://www.w3.org/2000/svg" width="16" height="16">
<style id="current-color-scheme" type="text/css">
.ColorScheme-Contrast{color:#dedede}
</style>
<path d="M4.5 0c-.277 0-.5.223-.5.5V1C2.338 1 1 2.338 1 4H.5a.499.499 0 1 0 0 1H1v2.5H.5a.499.499 0 1 0 0 1H1V11H.5a.499.499 0 1 0 0 1H1c0 1.662 1.338 3 3 3v.5a.499.499 0 1 0 1 0V15h2.5v.5a.499.499 0 1 0 1 0V15H11v.5a.499.499 0 1 0 1 0V15c1.662 0 3-1.338 3-3h.5a.499.499 0 1 0 0-1H15V8.5h.5a.499.499 0 1 0 0-1H15V5h.5a.499.499 0 1 0 0-1H15c0-1.662-1.338-3-3-3V.5a.499.499 0 1 0-1 0V1H8.5V.5a.499.499 0 1 0-1 0V1H5V.5c0-.277-.223-.5-.5-.5M4 2h8c1.108 0 2 .892 2 2v8c0 1.108-.892 2-2 2H4c-1.108 0-2-.892-2-2V4c0-1.108.892-2 2-2m2 2c-1.108 0-2 .892-2 2v4c0 1.108.892 2 2 2h4c1.108 0 2-.892 2-2V6c0-1.108-.892-2-2-2zm0 1v1h1V5h2v1h1V5c.554 0 1 .446 1 1h-1v1h1v2h-1v1h1c0 .554-.446 1-1 1v-1H9v1H7v-1H6v1c-.554 0-1-.446-1-1h1V9H5V7h1V6H5c0-.554.446-1 1-1m0 2v2h1V7zm1 0h2V6H7zm2 0v2h1V7zm0 2H7v1h2z" class="ColorScheme-Contrast" style="fill:currentColor"/>
</svg>
