<?xml version='1.0' encoding='ASCII'?>
<svg xmlns="http://www.w3.org/2000/svg" width="16" height="16">
<defs><style id="current-color-scheme" type="text/css">.ColorScheme-Text{color:#fcfcfc; fill:currentColor;}</style></defs><path d="M6 2C4.5 2 3.458 3.037 3.068 4.033L1.164 9h1.072L4 4.397C4.292 3.65 4.892 3 6 3h4c1.108 0 1.709.65 2 1.396l2.188 5.711A2.5 2.5 0 0 0 13.5 10H8v1h5.5c.831 0 1.5.669 1.5 1.5s-.669 1.5-1.5 1.5H8v1h5.5c1.385 0 2.5-1.115 2.5-2.5 0-.285-.057-.554-.144-.809h.011l-.058-.15-.004-.016-.004-.007-2.87-7.485C12.544 3.037 11.5 2 10.002 2zM.5 10a.499.499 0 1 0 0 1h6a.499.499 0 1 0 0-1zm0 2a.499.499 0 1 0 0 1h6a.499.499 0 1 0 0-1zm8 0a.5.5 0 0 0-.5.5.5.5 0 0 0 .5.5.5.5 0 0 0 .5-.5.5.5 0 0 0-.5-.5m2 0a.5.5 0 0 0-.5.5.5.5 0 0 0 .5.5.5.5 0 0 0 .5-.5.5.5 0 0 0-.5-.5m2 0a.5.5 0 0 0-.5.5.5.5 0 0 0 .5.5.5.5 0 0 0 .5-.5.5.5 0 0 0-.5-.5m-12 2a.499.499 0 1 0 0 1h6a.499.499 0 1 0 0-1z" class="ColorScheme-Text" style="fill:currentColor" fill="currentColor"/>
</svg>
