<?xml version='1.0' encoding='ASCII'?>
<svg xmlns="http://www.w3.org/2000/svg" width="16" height="16">
<defs><style id="current-color-scheme" type="text/css">.ColorScheme-Text{color:#fcfcfc; fill:currentColor;}</style></defs><path fill="currentColor" d="M8 0a8 8 0 0 0-8 8 8 8 0 0 0 8 8 8 8 0 0 0 8-8 8 8 0 0 0-8-8m-.094 1H8a7 7 0 0 1 7 7 7 7 0 0 1-7 7 7 7 0 0 1-7-7 7 7 0 0 1 6.906-7" class="ColorScheme-Text" style="fill:currentColor"/>
<path fill="currentColor" d="M-2.828 13.142h4v1h-4z" style="paint-order:fill markers stroke;fill:currentColor" transform="rotate(-45)" class="ColorScheme-Text"/>
<path fill="currentColor" d="M-14.142 1.828h4v1h-4z" style="paint-order:fill markers stroke;fill:currentColor" transform="scale(-1 1)rotate(-45)" class="ColorScheme-Text"/>
<path fill="currentColor" d="M7.5 4h1v7h-1z" style="paint-order:fill markers stroke;fill:currentColor" class="ColorScheme-Text"/>
</svg>
