<?xml version='1.0' encoding='ASCII'?>
<svg xmlns="http://www.w3.org/2000/svg" width="16" height="16">
<defs><style id="current-color-scheme" type="text/css">.ColorScheme-Text{color:#fcfcfc; fill:currentColor;}</style></defs><path d="M6.5 1c-.554 0-1 .446-1 1v3c0 .554.446 1 1 1h1v1H5c-1.108 0-2 .892-2 2v1H2c-.554 0-1 .446-1 1v3c0 .554.446 1 1 1h3c.554 0 1-.446 1-1v-3c0-.554-.446-1-1-1H4V9c0-.554.446-1 1-1h6c.554 0 1 .446 1 1v1h-1c-.554 0-1 .446-1 1v3c0 .554.446 1 1 1h3c.554 0 1-.446 1-1v-3c0-.554-.446-1-1-1h-1V9c0-1.108-.892-2-2-2H8.5V6h1c.554 0 1-.446 1-1V2c0-.554-.446-1-1-1zm0 1h3v3h-3zM2 11h3v3H2zm9 0h3v3h-3z" class="ColorScheme-Text" style="fill:currentColor" fill="currentColor"/>
</svg>
