<?xml version='1.0' encoding='ASCII'?>
<svg xmlns="http://www.w3.org/2000/svg" width="16" height="16">
<defs><style id="current-color-scheme" type="text/css">.ColorScheme-Text{color:#fcfcfc; fill:currentColor;}</style></defs><path d="m4.005 13-1.88 1.527c-.378.306.188.766.565.46l1.315-1.07 1.598 1.299L7.2 13.918l1.597 1.298 1.598-1.298 1.598 1.298 1.88-1.527c.378-.307-.188-.766-.565-.46l-1.315 1.069L10.396 13l-1.598 1.298L7.201 13l-1.598 1.298zM4 2v1h6c1.108 0 2 .892 2 2v1H6C4.338 6 3 7.338 3 9s1.338 3 3 3h7V5c0-1.662-1.338-3-3-3zm2 5h6v4H6c-1.108 0-2-.892-2-2s.892-2 2-2" class="ColorScheme-Text" style="fill:currentColor" fill="currentColor"/>
</svg>
