<?xml version='1.0' encoding='ASCII'?>
<svg width="16" height="16">
<defs><style id="current-color-scheme" type="text/css">.ColorScheme-Contrast{color:#dedede; fill:currentColor;}</style></defs><defs><style id="current-color-scheme" type="text/css">.ColorScheme-Contrast{color:#dedede; fill:currentColor;}</style></defs><style id="current-color-scheme" type="text/css">
.ColorScheme-Contrast{color:#dedede}
</style>
<path d="m13.999 3-6 6-3.125-3.125-.707.707L8 10.414l6.706-6.706z" class="ColorScheme-Contrast" style="fill:currentColor"/>
<path class="ColorScheme-Contrast" style="fill:currentColor" d="M8 1a7 7 0 0 0-7 7 7 7 0 0 0 7 7 7 7 0 0 0 7-7 7 7 0 0 0-.045-.773l-.992.11A6 6 0 0 1 14 8a6 6 0 0 1-6 6 6 6 0 0 1-6-6 6 6 0 0 1 6-6 6 6 0 0 1 2.977.793l.496-.87A7 7 0 0 0 8 1"/>
</svg>
