<?xml version='1.0' encoding='ASCII'?>
<svg xmlns="http://www.w3.org/2000/svg" width="16" height="16">
<defs><style id="current-color-scheme" type="text/css">.ColorScheme-Contrast{color:#dedede; fill:currentColor;}</style></defs><path d="M1 1v4h4V1zm5 0v4h4V1zm5 0v4h4V1zM2 2h2v2H2zm5 0h2v2H7zm5 0h2v2h-2zM1 6v4h4V6zm5 0v4h4V6zm5 0v4h4V6zM2 7h2v2H2zm5 0h2v2H7zm5 0h2v2h-2zM1 11v4h4v-4zm5 0v4h4v-4zm5 0v4h4v-4zm-9 1h2v2H2zm5 0h2v2H7zm5 0h2v2h-2z" class="ColorScheme-Contrast" style="fill:currentColor" fill="currentColor"/>
</svg>
