<?xml version='1.0' encoding='ASCII'?>
<svg xmlns="http://www.w3.org/2000/svg" width="16" height="16">
<defs><style id="current-color-scheme" type="text/css">.ColorScheme-Text{color:#fcfcfc; fill:currentColor;}</style></defs><path d="M4.998 0q-.033 0-.068.004a.47.47 0 0 0-.235.101C4.332.387 4.027.735 4 1.207c-.023.473.277.883.707 1.2C5 2.62 5 2.71 5 2.737c-.004.028-.066.176-.313.367a.52.52 0 0 0-.183.336.5.5 0 0 0 .101.372.52.52 0 0 0 .336.183.5.5 0 0 0 .371-.101c.348-.278.653-.614.688-1.086.031-.473-.266-.895-.707-1.215C5.008 1.383 5 1.285 5 1.258s.055-.168.305-.363a.498.498 0 0 0-.243-.891Q5.031.001 4.998 0m2 0q-.033 0-.068.004a.47.47 0 0 0-.235.101C6.332.387 6.027.735 6 1.207c-.023.473.277.883.707 1.2C7 2.62 7 2.71 7 2.737c-.004.028-.066.176-.313.367a.52.52 0 0 0-.183.336.5.5 0 0 0 .101.372.52.52 0 0 0 .336.183.5.5 0 0 0 .371-.101c.348-.278.653-.614.688-1.086.031-.473-.266-.895-.707-1.215C7.008 1.383 7 1.285 7 1.258s.055-.168.305-.363a.498.498 0 0 0-.243-.891Q7.031.001 6.998 0m2 0q-.033 0-.068.004a.47.47 0 0 0-.235.101C8.332.387 8.027.735 8 1.207c-.023.473.277.883.707 1.2C9 2.62 9 2.71 9 2.737c-.004.028-.066.176-.313.367a.52.52 0 0 0-.183.336.5.5 0 0 0 .101.372.52.52 0 0 0 .336.183.5.5 0 0 0 .371-.101c.348-.278.653-.614.688-1.086.031-.473-.266-.895-.707-1.215C9.008 1.383 9 1.285 9 1.258s.055-.168.305-.363a.498.498 0 0 0-.243-.891Q9.031.001 8.998 0m2 0q-.033 0-.068.004a.47.47 0 0 0-.235.101c-.363.282-.668.63-.695 1.102-.023.473.277.883.707 1.2.293.214.293.304.293.331-.004.028-.066.176-.313.367a.52.52 0 0 0-.183.336.5.5 0 0 0 .101.372.52.52 0 0 0 .336.183.5.5 0 0 0 .371-.101c.348-.278.653-.614.688-1.086.031-.473-.266-.895-.707-1.215-.285-.211-.293-.309-.293-.336s.055-.168.305-.363a.498.498 0 0 0-.243-.891Q11.031.001 10.998 0M2 5a6 6 0 0 0 3.307 5.348L2.885 16h1.088l.857-2h6.34l.857 2h1.088l-2.422-5.652A6 6 0 0 0 14 5zm1.113 1h9.774A5 5 0 0 1 8 10a5 5 0 0 1-4.887-4m3.121 4.723A6 6 0 0 0 8 11a6 6 0 0 0 1.766-.277L10.742 13H5.258z" class="ColorScheme-Text" style="fill:currentColor" fill="currentColor"/>
</svg>
