<svg xmlns="http://www.w3.org/2000/svg" width="16.003" height="16">
<path fill="#dedede" d="M374.96 524.99a.5.5 0 0 0-.428.327l-1.865 5.054h-5.166a.5.5 0 0 0-.314.889l4.035 3.277-1.338 5.026a.5.5 0 0 0 .754.547l4.363-2.825 4.363 2.825a.5.5 0 0 0 .756-.547l-1.338-5.026 4.035-3.277a.5.5 0 0 0-.316-.889h-5.164l-1.867-5.054a.5.5 0 0 0-.51-.327m.041 1.942 1.518 4.113a.5.5 0 0 0 .468.326h4.106l-3.192 2.595a.5.5 0 0 0-.168.518l1.088 4.086-3.549-2.3a.5.5 0 0 0-.543 0l-3.546 2.298 1.087-4.084a.5.5 0 0 0-.167-.518l-3.192-2.595h4.104a.5.5 0 0 0 .468-.326z" color="#000" font-family="sans-serif" font-weight="400" overflow="visible" style="isolation:auto;mix-blend-mode:normal;text-decoration-color:#000;text-decoration-line:none;text-decoration-style:solid;text-indent:0;text-transform:none;white-space:normal" transform="translate(-367 -524.36)"/>
</svg>
