<?xml version='1.0' encoding='ASCII'?>
<svg xmlns="http://www.w3.org/2000/svg" width="16" height="16">
<defs><style id="current-color-scheme" type="text/css">.ColorScheme-Contrast{color:#dedede; fill:currentColor;}</style></defs><path d="M0 0v3h3V0zm1 1h1v1H1zm12-1v3h3V0Zm1 1h1v1h-1zM0 13v3h3v-3zm1 1h1v1H1Zm12-1v3h3v-3zm1 1h1v1h-1z" class="ColorScheme-Contrast" style="stroke-width:2;stroke-linecap:round;stroke-linejoin:round;paint-order:stroke fill markers;stop-fill-opacity:1;fill:currentColor" fill="currentColor"/>
<path d="M1 2h1v12H1z" style="stroke-width:2.03769;stroke-linecap:round;stroke-linejoin:round;paint-order:stroke fill markers;stop-fill-opacity:1;fill:currentColor" class="ColorScheme-Contrast" fill="currentColor"/>
<path d="M2 1h12v1H2z" style="stroke-width:2;stroke-linecap:round;stroke-linejoin:round;paint-order:stroke fill markers;stop-fill-opacity:1;fill:currentColor" class="ColorScheme-Contrast" fill="currentColor"/>
<path d="M14 2h1v12h-1z" style="stroke-width:2.03769;stroke-linecap:round;stroke-linejoin:round;paint-order:stroke fill markers;stop-fill-opacity:1;fill:currentColor" class="ColorScheme-Contrast" fill="currentColor"/>
<path d="M1.963 14H14v1H1.963z" style="stroke-width:2;stroke-linecap:round;stroke-linejoin:round;paint-order:stroke fill markers;stop-fill-opacity:1;fill:currentColor" class="ColorScheme-Contrast" fill="currentColor"/>
<path d="M8 14 2 9l11-6Z" style="stroke:none;stroke-width:1px;stroke-linecap:butt;stroke-linejoin:miter;stroke-opacity:1;fill-opacity:1;fill:currentColor" class="ColorScheme-Contrast" fill="currentColor"/>
</svg>
