<?xml version='1.0' encoding='ASCII'?>
<svg width="16" height="16">
<defs><style id="current-color-scheme" type="text/css">.ColorScheme-Contrast{color:#dedede; fill:currentColor;}</style></defs>
<path d="M4.5 1a.5.5 0 0 0-.5.5v5.648a.5.5 0 0 0 .645.479 3 3 0 0 1 1.712-.002A.5.5 0 0 0 7 7.146V1.5a.5.5 0 0 0-.5-.5ZM5 2h1v4.574c-.168-.021-.33-.074-.5-.074h-.002c-.169 0-.331.053-.498.074Zm3.854 7a.5.5 0 0 0-.479.643 3 3 0 0 1-.002 1.712.5.5 0 0 0 .479.645H14.5a.5.5 0 0 0 .5-.5v-2a.5.5 0 0 0-.5-.5Zm.572 1H14v1H9.426c.021-.167.074-.33.074-.498V10.5c0-.17-.053-.332-.074-.5"  class="ColorScheme-Contrast" style="fill:currentColor" transform="matrix(-1 0 0 1 16 0)"/>
</svg>
