<svg xmlns="http://www.w3.org/2000/svg" width="16" height="16">
<style id="current-color-scheme" type="text/css">
.ColorScheme-Text{color:#dedede}
</style>
<path d="M1.5 1c-.277 0-.5.223-.5.5v13a.499.499 0 1 0 1 0V2h12.5a.499.499 0 1 0 0-1zm11.01 2.002a14 14 0 0 0-2.197.15c-1.708.257-3.834.905-5.21 2.688C2.56 9.137 2.75 13.393 2.75 13.393a1 1 0 1 0 2-.065s-.056-3.687 1.934-6.265c.892-1.156 2.482-1.716 3.924-1.932s2.619-.1 2.619-.1a1 1 0 1 0 .199-1.988s-.351-.036-.916-.041" class="ColorScheme-Text" style="fill:currentColor"/>
</svg>
