<svg xmlns="http://www.w3.org/2000/svg" width="16" height="16">
<style id="current-color-scheme" type="text/css">
.ColorScheme-Contrast{color:#dedede}
</style>
<path d="M8.707.222a1 1 0 0 0-1.414 0L.222 7.292a1 1 0 0 0 0 1.415l7.07 7.071a1 1 0 0 0 1.415 0l7.071-7.07a1 1 0 0 0 0-1.415zM8 .929 15.071 8 8 15.071.929 8z" class="ColorScheme-Contrast" style="fill:currentColor"/>
<path fill="currentColor" d="M10.828 5.172a4 3 45 0 0-4.95-.708 1 1 0 0 0 0 1.415l1.768 1.767-2.828 2.829.707.707 2.828-2.828 1.768 1.767a1 1 0 0 0 1.414 0l1.414-1.414a1 1 0 0 0 0-1.414zm-.707.707L12.242 8l-1.414 1.414-4.243-4.242a3 2 45 0 1 3.536.707"/>
</svg>
