<svg xmlns="http://www.w3.org/2000/svg" width="16" height="16">
<style id="current-color-scheme" type="text/css">
.ColorScheme-Contrast{color:#dedede}
</style>
<path d="M4 5a1 1 0 1 1 0-2 1 1 0 0 1 0 2m2.87-5a2 2 0 0 1 1.426.584l6.682 6.664a2 2 0 0 1 .002 2.83l-4.949 4.949a2 2 0 0 1-2.828 0L.572 8.397a2 2 0 0 1-.586-1.418l.007-4.95A2 2 0 0 1 1.98.032zm.72 1.292A1 1 0 0 0 6.877 1l-4.89.032a1 1 0 0 0-.993.999L.986 6.98a1 1 0 0 0 .293.708l6.63 6.631a1 1 0 0 0 1.415 0l4.949-4.948a1 1 0 0 0-.001-1.415z" class="ColorScheme-Contrast" style="fill:currentColor"/>
</svg>
