<svg xmlns="http://www.w3.org/2000/svg" width="16" height="16">
<style id="current-color-scheme" type="text/css">
.ColorScheme-Contrast{color:#dedede}
</style>
<path d="M11.438 7.922c-.22 0-.277.034-.172.027l-1.107.069 2.031 2.03a1 1 0 0 1-.002 1.405l-.004.004-.715.746a1.003 1.003 0 0 1-1.404.002l-.002-.002-2.057-2.057-.07 1.104c.007-.104-.03-.049-.03.172a3.543 3.543 0 0 0 3.532 3.531c.41 0 .792-.093 1.156-.219l1.25 1.22 2.125-2.126-1.219-1.219v-.002c.13-.366.22-.78.22-1.185 0-1.94-1.586-3.5-3.532-3.5m1.54 1.621c.576.455.991 1.078.991 1.879 0 .25-.065.583-.16.851v.002l-.21.596.956.957-.719.719-.984-.957-.582.2a2.6 2.6 0 0 1-.832.163c-.783 0-1.415-.399-1.879-.957.78.612 1.9.632 2.617-.086l.008-.008.711-.742c.718-.717.698-1.838.082-2.617" class="ColorScheme-Contrast" style="fill:currentColor"/>
<path fill="currentColor" d="M8.205.254C7.07.263 5.743.562 4.4 1.115l-.125.053-.082.107a.67.67 0 0 0-.12.598l.005.02.008.02c.096.238.38.434.652.427h.008c.96-.043 2.273.19 2.967.877l.002.002c.16.16.335.317.437.578.068.173.043.57-.226.844l-.012.011c-.165.156-.452.437-.717.698l-.361.353L8.94 7.81a4.5 4.5 0 0 1 1.387-.649l.123-.115.002-.002a.65.65 0 0 1 .504-.168q.228.014.406.135L11.5 7a4.5 4.5 0 0 1 1.072.13 1.43 1.43 0 0 0-.402-.75l-.002-.001-.004-.004-.008-.008a1.8 1.8 0 0 0-1.136-.488 1.65 1.65 0 0 0-1.262.445l-.457.43L8.26 5.713c.124-.121.28-.277.35-.342l.03-.031c.549-.559.676-1.314.442-1.91-.2-.508-.563-.82-.66-.918l-.004-.004c-.477-.474-1.077-.738-1.685-.914.493-.099 1.065-.337 1.48-.34.987-.008 1.692.279 1.928.516l.008.007.015.016.008.008c.516.473 1.189 1.173 2.152 2.14.014.014.008.029-.029.12l-.004.007-.014.045a1.67 1.67 0 0 0 .364 1.785l.037.038.035.027-.041-.037c.548.516 1.334.502 1.965.14l.361.362c.009 0 .016-.012-.002.006L13.797 7.63a4.5 4.5 0 0 1 .805.611l1.103-1.103.002-.002c.38-.383.377-1.03.004-1.41l-.002-.002-.488-.489-.006-.004a.7.7 0 0 0-.334-.183.7.7 0 0 0-.54.117l-.023.016-.02.02a.69.69 0 0 1-.942-.003.68.68 0 0 1-.159-.685l-.007.01.015-.036.002-.004v-.002l.002-.001v-.004c.201-.478.072-.993-.178-1.243-.95-.954-1.611-1.645-2.168-2.156l-.015-.015C10.29.503 9.365.245 8.205.254M5.891 6.629l-.352.35-4.943 4.925c-.191.19-.307.312-.393.489-.075.154-.106.351-.107.597v.016a2.055 2.055 0 0 0 1.992 1.992H2.1c.245 0 .368-.089.515-.19.147-.1.305-.236.498-.43l4.045-4.038a4.5 4.5 0 0 1 .834-1.645zm.004 1.406L6.98 9.102l-4.574 4.57a3 3 0 0 1-.347.303c-.54-.047-.947-.444-.963-.995v-.002c.001-.135.008-.153.006-.148-.013.026.034-.053.199-.217z"/>
</svg>
