<?xml version='1.0' encoding='ASCII'?>
<svg xmlns="http://www.w3.org/2000/svg" width="16" height="16">
<defs><style id="current-color-scheme" type="text/css">.ColorScheme-Text{color:#fcfcfc; fill:currentColor;}</style></defs><path d="M6 0v2.334c-1.184.56-2 1.765-2 3.166V15c0 .554.446 1 1 1h5c.554 0 1-.446 1-1V5.5a3.49 3.49 0 0 0-2-3.166V0zm1 1h1v1.037Q7.755 2.001 7.5 2c-.255-.001-.337.014-.5.037zm.5 2c1.214 0 2.221.856 2.451 2H5.05c.23-1.144 1.237-2 2.451-2M5 6h5v9H5v-1h4V7H5zm0 2h3v5H5z" class="ColorScheme-Text" style="fill:currentColor" fill="currentColor"/>
</svg>
