<svg xmlns="http://www.w3.org/2000/svg" width="16" height="16">
<style id="current-color-scheme" type="text/css">
.ColorScheme-Contrast{color:#dedede}
</style>
<path d="M3 1c-1.108 0-2 .892-2 2v5h1V5c0-.554.446-1 1-1h10c.554 0 1 .446 1 1v8c0 .554-.446 1-1 1H3c-.554 0-1-.446-1-1v-2H1v2c0 1.108.892 2 2 2h10c1.108 0 2-.892 2-2V3c0-1.108-.892-2-2-2z" class="ColorScheme-Contrast" style="fill:currentColor"/>
<path fill="currentColor" d="m6.465 5.965-.707.707L8.086 9H0v1h8.086l-2.328 2.328.707.707L10 9.5l-.707-.707z"/>
</svg>
