<?xml version='1.0' encoding='ASCII'?>
<svg xmlns="http://www.w3.org/2000/svg" width="16" height="16">
<defs><style id="current-color-scheme" type="text/css">.ColorScheme-Text{color:#fcfcfc; fill:currentColor;}</style></defs><path d="M6 1 4 3H3c-1.108 0-2 .892-2 2v7c0 1.108.892 2 2 2h10c1.108 0 2-.892 2-2V5c0-1.108-.892-2-2-2h-1l-2-2zm.414 1h3.172l2 2H13c.554 0 1 .446 1 1v7c0 .554-.446 1-1 1H3c-.554 0-1-.446-1-1V5c0-.554.446-1 1-1h1.414z" class="ColorScheme-Text" style="paint-order:stroke fill markers;fill:currentColor" fill="currentColor"/>
<path fill="currentColor" d="M8 5a3 3 0 0 0-3 3 3 3 0 0 0 3 3 3 3 0 0 0 3-3 3 3 0 0 0-3-3m0 1a2 2 0 0 1 2 2 2 2 0 0 1-2 2 2 2 0 0 1-2-2 2 2 0 0 1 2-2" style="paint-order:stroke fill markers;fill:currentColor" class="ColorScheme-Text"/>
</svg>
