<?xml version='1.0' encoding='ASCII'?>
<svg xmlns="http://www.w3.org/2000/svg" width="16" height="16">
<defs><style id="current-color-scheme" type="text/css">.ColorScheme-Contrast{color:#dedede; fill:currentColor;}</style></defs><path d="M3 0C1.338 0 0 1.338 0 3v10c0 1.662 1.338 3 3 3h10c1.662 0 3-1.338 3-3V3c0-1.662-1.338-3-3-3zm0 1h10c1.108 0 2 .892 2 2v10c0 1.108-.892 2-2 2H3c-1.108 0-2-.892-2-2V3c0-1.108.892-2 2-2" class="ColorScheme-Contrast" opacity=".35" style="fill:currentColor" fill="currentColor"/>
</svg>
