<?xml version='1.0' encoding='ASCII'?>
<svg xmlns="http://www.w3.org/2000/svg" viewBox="0 0 16 16">
<defs><style id="current-color-scheme" type="text/css">.ColorScheme-Contrast{color:#dedede; fill:currentColor;}</style></defs><path d="M8 2a5 6 0 0 0-5 6 5 6 0 0 0 5 6 5 6 0 0 0 4.102-2.582l-.776-.647A4 5 0 0 1 8 13a4 5 0 0 1-4-5 4 5 0 0 1 4-5 4 5 0 0 1 3.326 2.229l.78-.65A5 6 0 0 0 8 2" class="ColorScheme-Contrast" style="fill-opacity:1;stroke:none;fill:currentColor" fill="currentColor"/>
</svg>
