<?xml version='1.0' encoding='ASCII'?>
<svg xmlns="http://www.w3.org/2000/svg" width="16" height="16">
<defs><style id="current-color-scheme" type="text/css">.ColorScheme-Contrast{color:#dedede; fill:currentColor;}</style></defs><path fill="currentColor" d="M6 6.5c-.554 0-1 .446-1 1v1c0 .554.446 1 1 1h4c.554 0 1-.446 1-1v-1c0-.554-.446-1-1-1zm0 1h4v1H6z" class="ColorScheme-Contrast" style="fill:currentColor"/>
<path fill="currentColor" fill-opacity=".997" d="M5.031 3.512 5 3.514V4h-.53a.5.5 0 0 0 .09.307l6 8a.5.5 0 0 0 .44.191V12h.463a.5.5 0 0 0-.102-.293l-6-8a.5.5 0 0 0-.33-.195" opacity=".5" style="-inkscape-stroke:none;fill:currentColor" class="ColorScheme-Contrast"/>
<path fill="currentColor" d="M2 2c-.554 0-1 .446-1 1v1c0 .554.446 1 1 1h3c.554 0 1-.446 1-1V3c0-.554-.446-1-1-1zm0 1h3v1H2zm9 8c-.554 0-1 .446-1 1v1c0 .554.446 1 1 1h3c.554 0 1-.446 1-1v-1c0-.554-.446-1-1-1zm0 1h3v1h-3z" class="ColorScheme-Contrast" style="fill:currentColor"/>
</svg>
