<svg xmlns="http://www.w3.org/2000/svg" width="16.018" height="16">
<path fill="#dedede" d="m6.371 5.654-.707.707 1.647 1.647-1.647 1.646.707.707 2.354-2.353z" font-family="sans-serif" font-weight="400" overflow="visible" style="font-feature-settings:normal;font-variant-alternates:normal;font-variant-caps:normal;font-variant-ligatures:normal;font-variant-numeric:normal;font-variant-position:normal;isolation:auto;mix-blend-mode:normal;shape-padding:0;text-decoration-color:#000;text-decoration-line:none;text-decoration-style:solid;text-indent:0;text-orientation:mixed;text-transform:none;white-space:normal"/>
<path fill="#dedede" fill-rule="evenodd" d="M4 3c-1.108 0-2 .892-2 2v6c0 1.108.892 2 2 2h8c1.108 0 2-.892 2-2V5c0-1.108-.892-2-2-2zm0 1h8c.554 0 1 .446 1 1v6c0 .554-.446 1-1 1H4c-.554 0-1-.446-1-1V5c0-.554.446-1 1-1m0-3v1h2V1zm3 0v1h2V1zm3 0v1h2V1zm-7.002.125A3.99 3.99 0 0 0 0 5h1a2.99 2.99 0 0 1 2-2.826V1.125zM13 1.129v1.045A2.99 2.99 0 0 1 15 5h1a3.99 3.99 0 0 0-3-3.871M0 6v2h1V6zm15 0v2h1V6zM0 9v2h1V9zm15 0v2h1V9zM.129 12A3.99 3.99 0 0 0 3 14.875v-1.047A3 3 0 0 1 1.174 12zm14.697 0A3 3 0 0 1 13 13.828v1.047A3.99 3.99 0 0 0 15.87 12zM4 14v1h2v-1zm3 0v1h2v-1zm3 0v1h2v-1z"/>
</svg>
