<?xml version='1.0' encoding='ASCII'?>
<svg xmlns="http://www.w3.org/2000/svg" width="16" height="16">
<defs><style id="current-color-scheme" type="text/css">.ColorScheme-Text{color:#fcfcfc; fill:currentColor;}</style></defs><path d="M4 4c-1.108 0-2 .892-2 2v6c0 1.108.892 2 2 2h7c1.108 0 2-.892 2-2V6c0-1.108-.892-2-2-2zm0 2h7c.554 0 1 .446 1 1v5c0 .554-.446 1-1 1H4c-.554 0-1-.446-1-1V7c0-.554.446-1 1-1" class="ColorScheme-Text" style="fill:currentColor" fill="currentColor"/>
<path fill="currentColor" d="M6 2a1.99 1.99 0 0 0-1.725 1H12c1.108 0 2 .892 2 2v6.725A1.99 1.99 0 0 0 15 10V5c0-1.662-1.338-3-3-3z" class="ColorScheme-Text" style="fill:currentColor"/>
</svg>
