<svg xmlns="http://www.w3.org/2000/svg" width="16" height="16">
<style id="current-color-scheme" type="text/css">
.ColorScheme-Contrast{color:#dedede}
</style>
<path d="M7.95.002c-.265.016-.513.135-.653.373L5.27 3.811l6.171 5.162 3.034-2.596A.995.995 0 0 0 14.38 5l-2.996 2.34 2.338-2.895-1.434-1.197-2.685 2.39 2.058-2.917L9.305.75 6.92 3.54 8.649.21a1.1 1.1 0 0 0-.7-.207zM4.735 4.445l-.77.916 6.173 5.162.77-.917zm-1.31 1.559-.639.762c-.284.339-.222 1.052.117 1.336l.9.753c.27.225.41.568.376.917a.87.87 0 0 1-.405.546l-3.04 2.383a1.92 1.92 0 0 0-.71 1.826l.014.084a1.665 1.665 0 0 0 1.662 1.39l.082-.003a1.93 1.93 0 0 0 1.68-1.018l1.879-3.519a.82.82 0 0 1 .502-.402.95.95 0 0 1 .857.218l.92.768c.34.284 1.054.222 1.338-.117l.639-.762zM4.49 8.199l2.756 2.305c-.466-.365-1.055-.555-1.633-.418l-.039.01c-.196.055-.38.145-.545.26q.08-.17.123-.356a1 1 0 0 0 .022-.13c.062-.635-.224-1.236-.684-1.67m-.08 2.899h.006l-.017.01-1.213 2.269c-.098-.174-.108-.385-.268-.52-.156-.13-.36-.102-.543-.17l1.998-1.566.02-.016.007-.002zm-.01.006-.027.017.025-.014zm-2.662 2.351a.735.735 0 1 1 .132 1.46.735.735 0 0 1-.132-1.46" class="ColorScheme-Contrast" style="fill:currentColor"/>
</svg>
