<?xml version='1.0' encoding='ASCII'?>
<svg xmlns="http://www.w3.org/2000/svg" width="16" height="16">
<defs><style id="current-color-scheme" type="text/css">.ColorScheme-Contrast{color:#dedede; fill:currentColor;}</style></defs><path fill="currentColor" d="M5.161 15h.714v-.758h-.423c-.874 0-1.107-.437-1.107-1.486 0-.99.088-1.85.088-2.957 0-1.034-.263-1.573-.977-1.777v-.059c.714-.189.977-.713.977-1.762 0-1.122-.088-1.967-.088-2.958 0-1.049.233-1.5 1.107-1.5h.423V1h-.714c-1.297 0-1.908.48-1.908 2.17 0 1.18.145 2.04.145 3.147 0 .627-.291 1.253-1.398 1.268v.83c1.107.015 1.398.641 1.398 1.282 0 1.093-.145 1.952-.145 3.132 0 1.69.611 2.17 1.908 2.17zm4.964 0h.728c1.282 0 1.894-.48 1.894-2.17 0-1.18-.13-2.04-.13-3.133 0-.64.276-1.267 1.383-1.282v-.83c-1.107-.015-1.384-.641-1.384-1.268 0-1.107.131-1.966.131-3.146 0-1.69-.612-2.171-1.894-2.171h-.728v.743h.422c.89 0 1.108.452 1.108 1.5 0 .991-.073 1.836-.073 2.958 0 1.049.262 1.573.961 1.763v.058c-.699.204-.961.743-.961 1.777 0 1.107.073 1.967.073 2.958 0 1.048-.219 1.486-1.108 1.486h-.422z" class="ColorScheme-Contrast" style="fill:currentColor"/>
</svg>
