<?xml version='1.0' encoding='ASCII'?>
<svg xmlns="http://www.w3.org/2000/svg" id="distribute-horizontal-gaps-symbolic_svg__svg1" width="16" height="16" version="1.1">
<defs><style id="current-color-scheme" type="text/css">.ColorScheme-Contrast{color:#dedede; fill:currentColor;}</style></defs><g id="distribute-horizontal-gaps-symbolic_svg__distribute-horizontal-gaps" transform="matrix(.66667 0 0 .66665 -772.667 -472.233)" class="ColorScheme-Contrast" fill="currentColor" style="fill:currentColor">
<path id="distribute-horizontal-gaps-symbolic_svg__rect18780-3" d="M1162 708.362v7.5h1.482v-3h4.517v3h1.483v-3h.017v-1.5h-.017v-3h-1.483v3h-4.517v-3zm10.517 0v3h-.018v1.5h.018v3h1.482v-3h4.5v3h1.518v-7.5h-1.518v3h-4.5v-3zm-13.518 9v12h4.5v-12zm9 0v9h6v-9zm10.5 0v13.5h4.5v-13.5zm-18 1.5h1.5v9h-1.5zm9 0h3v6h-3zm10.5 0h1.5v10.5h-1.5z" style="display:inline;stroke-width:1.50001;fill-opacity:1;fill:currentColor" class="ColorScheme-Contrast" fill="currentColor"/>
</g>
</svg>
