<?xml version='1.0' encoding='ASCII'?>
<svg xmlns="http://www.w3.org/2000/svg" xmlns:xlink="http://www.w3.org/1999/xlink" id="distribute-vertical-center-symbolic_svg__svg1" width="16" height="16" version="1.1">
<defs><style id="current-color-scheme" type="text/css">.ColorScheme-Text{color:#fcfcfc; fill:currentColor;}</style></defs><g id="distribute-vertical-center-symbolic_svg__distribute-vertical-center" transform="translate(-721.334 -497.575)scale(.66667)" class="ColorScheme-Text" fill="currentColor" style="fill:currentColor">
<use xlink:href="#distribute-vertical-center-symbolic_svg__path5265" id="distribute-vertical-center-symbolic_svg__use18859" width="1250" height="1250" x="0" y="0" transform="matrix(0 1 .54162 0 698.335 -285.638)" class="ColorScheme-Text" fill="currentColor" style="fill:currentColor"/>
<g id="distribute-vertical-center-symbolic_svg__g872" transform="translate(-.278 -.814)" class="ColorScheme-Text" fill="currentColor" style="fill:currentColor">
<path id="distribute-vertical-center-symbolic_svg__path6" d="m1106.278 756.175-3-4.5-3 4.5zm0 6h-6l3 4.5zm-4.5-10.5h-3v-4.5h-10.5v4.5h-6v1.5h6v4.5h10.5v-4.5h3zm0 13.5h-3v-4.5h-13.5v4.5h-3v1.5h3v4.5h13.5v-4.5h3zm-4.5-16.5v7.5h-7.5v-7.5zm0 13.5v7.5h-10.5v-7.5z" style="fill:currentColor" class="ColorScheme-Text" fill="currentColor"/>
</g>
</g>
</svg>
