<?xml version='1.0' encoding='ASCII'?>
<svg xmlns="http://www.w3.org/2000/svg" id="distribute-vertical-gaps-symbolic_svg__svg1" width="16" height="16" version="1.1">
<defs><style id="current-color-scheme" type="text/css">.ColorScheme-Contrast{color:#dedede; fill:currentColor;}</style></defs><g id="distribute-vertical-gaps-symbolic_svg__g944" transform="translate(-20.284 -14.75)" class="ColorScheme-Contrast" fill="currentColor" style="fill:currentColor">
<path id="distribute-vertical-gaps-symbolic_svg__rect18780-3" d="M26.284 14.75v3h9v-3zm1 1h7v1h-7zm-1 5v4h6v-4zm1 1h4v2h-4zm-1 6v3h8v-3zm1 1h6v1h-6z" style="display:inline;opacity:1;stroke-width:.999995;fill-opacity:1;fill:currentColor" class="ColorScheme-Contrast" fill="currentColor"/>
<path id="distribute-vertical-gaps-symbolic_svg__rect10358" d="M20.284 16.75v1h2v3h-2v1h5v-1h-2v-3h2v-1zm0 7v1h2v3h-2v1h5v-1h-2v-3h2v-1z" style="opacity:1;stroke-width:2;stroke-linecap:round;stroke-linejoin:round;paint-order:stroke fill markers;stop-fill-opacity:1;fill:currentColor" class="ColorScheme-Contrast" fill="currentColor"/>
</g>
</svg>
