<?xml version='1.0' encoding='ASCII'?>
<svg xmlns="http://www.w3.org/2000/svg" width="16" height="16">
<defs><style id="current-color-scheme" type="text/css">.ColorScheme-Text{color:#fcfcfc; fill:currentColor;}</style></defs><path fill="currentColor" d="M3 1c-1.108 0-2 .892-2 2v10c0 1.108.892 2 2 2h9c1.108 0 2-.892 2-2V5h-1v8c0 .554-.446 1-1 1H3c-.554 0-1-.446-1-1V3c0-.554.446-1 1-1h7V1z" class="ColorScheme-Text" style="fill:currentColor"/>
<path fill="currentColor" d="M7 4v6.086L5.201 8.287l-.707.707L7.5 12l3.006-3.006-.707-.707L8 10.086V4zm7 2-1-1h-2c-.554 0-1-.446-1-1V2L9 1v3c0 1.108.892 2 2 2z" class="ColorScheme-Text" style="fill:currentColor"/>
<path fill="currentColor" d="m10 1-.707.707L14 6.414V5z" class="ColorScheme-Text" style="fill:currentColor"/>
</svg>
