<?xml version='1.0' encoding='ASCII'?>
<svg xmlns="http://www.w3.org/2000/svg" width="16" height="16">
<defs><style id="current-color-scheme" type="text/css">.ColorScheme-Text{color:#fcfcfc; fill:currentColor;}</style></defs><path d="M2 1C.892 1 0 1.892 0 3v9c0 1.108.892 2 2 2h5.5v1H.555c-.308 0-.555.223-.555.5s.247.5.555.5h14.89c.308 0 .555-.223.555-.5s-.247-.5-.554-.5H8.5v-1H14c1.108 0 2-.892 2-2V4c0-1.108-.892-2-2-2H6.371c-.58-.023-.604.077-1.039-.357C4.9 1.209 4.72 1 4 1zm0 1h2c.311 0 .52 0 .998.47.479.472.639.53 1 .53H14c.554 0 1 .446 1 1v1H1V3c0-.554.446-1 1-1M1 6h14v6c0 .554-.446 1-1 1H2c-.554 0-1-.446-1-1z" class="ColorScheme-Text" style="fill:currentColor" fill="currentColor"/>
</svg>
