<svg xmlns="http://www.w3.org/2000/svg" width="16" height="16">
<style id="current-color-scheme" type="text/css">
.ColorScheme-Contrast{color:#dedede}
</style>
<path d="M4 1c-1.108 0-2 .892-2 2v10c0 1.108.892 2 2 2h8c1.108 0 2-.892 2-2V7.32a4.3 4.3 0 0 1-1 .283V13c0 .554-.446 1-1 1H4c-.554 0-1-.446-1-1V3c0-.554.446-1 1-1h4.21a4.3 4.3 0 0 1 .476-1z" class="ColorScheme-Contrast" style="fill:currentColor"/>
<path fill="currentColor" d="M16 3.5A3.5 3.5 0 0 0 12.5 0 3.5 3.5 0 0 0 9 3.5 3.5 3.5 0 0 0 12.5 7 3.5 3.5 0 0 0 16 3.5m-1.086 0-2.5 2.5-.707-.707L13 4h-3V3h3l-1.293-1.293.707-.707z"/>
</svg>
