<?xml version='1.0' encoding='ASCII'?>
<svg xmlns="http://www.w3.org/2000/svg" width="16" height="16">
<defs><style id="current-color-scheme" type="text/css">.ColorScheme-Contrast{color:#dedede; fill:currentColor;}</style></defs><path d="M12 9v1h3V9zm-2 2v1h5v-1zm-2 2v1h7v-1zm4.238-12-.352.36-8.97 9.095-.03.045c-.06.1-.27.45-.583 1.087-.314.638-.7 1.511-1.013 2.493L1 15l.92-.29a18 18 0 0 0 2.493-1.012c.638-.314.986-.52 1.087-.585l.045-.029L15 3.762zm-7.811 9.16 7.778-7.779 1.414 1.414-7.778 7.778zm-.538.73 1.221 1.22-.178.176c.007-.005-.379.227-.961.514-.214.105-.536.22-.834.337l-.274-.274c.116-.298.232-.62.337-.834.287-.582.52-.966.515-.96z" class="ColorScheme-Contrast" font-family="Ubuntu" font-size="15" font-weight="400" letter-spacing="0" style="fill:currentColor" text-anchor="middle" word-spacing="0" fill="currentColor"/>
</svg>
