<?xml version='1.0' encoding='ASCII'?>
<svg xmlns="http://www.w3.org/2000/svg" width="16" height="16">
<defs><style id="current-color-scheme" type="text/css">.ColorScheme-Text{color:#fcfcfc; fill:currentColor;}</style></defs><path d="M3 2v1h1V2zm2 0v1h1V2zm2 0v1h1V2zm2 0v1h1V2zm2 0v1h1V2zM3 4v1h1V4zm8 0v1h1V4zM0 5v6l3-3zm3 3v1h1V8zm12-3-3 3 3 3zm-3 3h-1v1h1zM3 6v1h1V6zm8 0v1h1V6zm-8 4v1h1v-1zm8 0v1h1v-1zm-8 2v1h1v-1zm8 0v1h1v-1zm-8 2v1h1v-1zm2 0v1h1v-1zm2 0v1h1v-1zm2 0v1h1v-1zm2 0v1h1v-1z" class="ColorScheme-Text" style="fill-opacity:1;fill:currentColor" fill="currentColor"/>
</svg>
