<?xml version='1.0' encoding='ASCII'?>
<svg xmlns="http://www.w3.org/2000/svg" width="16" height="16">
<defs><style id="current-color-scheme" type="text/css">.ColorScheme-Contrast{color:#dedede; fill:currentColor;}</style></defs><path d="M7 1.07A7 7 0 0 0 1.07 7h1.02A6 6 0 0 1 7 2.088zm2 0v1.018A6 6 0 0 1 13.916 7h1.012A7 7 0 0 0 9 1.07M1.07 9A7 7 0 0 0 8 15a7 7 0 0 0 6.93-6h-1.018A6 6 0 0 1 8 14a6 6 0 0 1-5.912-5z" class="ColorScheme-Contrast" style="stroke-linecap:round;stroke-linejoin:round;paint-order:stroke fill markers;stop-fill:currentColor" fill="currentColor"/>
<path d="M1 6c-.554 0-1 .446-1 1v2c0 .554.446 1 1 1h2c.554 0 1-.446 1-1V7c0-.554-.446-1-1-1zm0 1h2v2H1z" style="stroke-linecap:round;stroke-linejoin:round;paint-order:stroke fill markers;stop-fill:currentColor" class="ColorScheme-Contrast" fill="currentColor"/>
<rect width="2" height="2" x="1" y="7" rx="0" ry="0" style="stroke-linecap:round;stroke-linejoin:round;paint-order:stroke fill markers;stop-opacity:.35;fill:currentColor" class="ColorScheme-Contrast" fill="currentColor"/>
<path d="M7 0c-.554 0-1 .446-1 1v2c0 .554.446 1 1 1h2c.554 0 1-.446 1-1V1c0-.554-.446-1-1-1Zm0 1h2v2H7Z" style="stroke-linecap:round;stroke-linejoin:round;paint-order:stroke fill markers;stop-fill:currentColor" class="ColorScheme-Contrast" fill="currentColor"/>
<rect width="2" height="2" x="7" y="1" rx="0" ry="0" style="opacity:.35;stroke-linecap:round;stroke-linejoin:round;paint-order:stroke fill markers;stop-fill:currentColor" class="ColorScheme-Contrast" fill="currentColor"/>
<path d="M13 6c-.554 0-1 .446-1 1v2c0 .554.446 1 1 1h2c.554 0 1-.446 1-1V7c0-.554-.446-1-1-1Zm0 1h2v2h-2z" style="stroke-linecap:round;stroke-linejoin:round;paint-order:stroke fill markers;stop-fill:currentColor" class="ColorScheme-Contrast" fill="currentColor"/>
<rect width="2" height="2" x="13" y="7" rx="0" ry="0" style="opacity:.35;stroke-linecap:round;stroke-linejoin:round;paint-order:stroke fill markers;stop-fill:currentColor" class="ColorScheme-Contrast" fill="currentColor"/>
</svg>
