<?xml version='1.0' encoding='ASCII'?>
<svg xmlns="http://www.w3.org/2000/svg" width="16" height="16">
<defs><style id="current-color-scheme" type="text/css">.ColorScheme-Text{color:#fcfcfc; fill:currentColor;}</style></defs><path d="M.552.001A.587.59 0 0 0 .16.994l13.588 14.794a.587.59 0 1 0 .864-.797L1.024.196A.587.59 0 0 0 .552.001" class="ColorScheme-Text" style="stroke-width:.997137;stroke-linecap:round;fill-opacity:1;fill:currentColor" fill="currentColor"/>
<path d="M3.332 2.827a.587.59 0 0 0-.571.753l3.27 11.323a.587.59 0 1 0 1.128-.328L4.24 4.46l10.918 4.796a.587.59 0 1 0 .47-1.078L3.563 2.876a.587.59 0 0 0-.23-.049Z" style="stroke-width:.997137;stroke-linecap:round;fill-opacity:1;fill:currentColor" class="ColorScheme-Text" fill="currentColor"/>
</svg>
