<?xml version='1.0' encoding='ASCII'?>
<svg xmlns="http://www.w3.org/2000/svg" width="24" height="24">
<defs><style id="current-color-scheme" type="text/css">.ColorScheme-Text{color:#fcfcfc; fill:currentColor;}</style></defs><path fill="currentColor" d="M3 1c-1.09 0-2 .91-2 2v13c0 1.09.91 2 2 2h8v4a1 1 0 0 0 1.65.76L18.203 18H21c1.09 0 2-.91 2-2V3c0-1.09-.91-2-2-2zm0 1h18c.554 0 1 .446 1 1v13c0 .554-.446 1-1 1h-3.166L12 22v-5H3c-.554 0-1-.446-1-1V3c0-.554.446-1 1-1" style="-inkscape-stroke:none;fill:currentColor" class="ColorScheme-Text"/>
<path fill="currentColor" d="M5.095 7.086c-.848-.02-1.2.9-1.273 1.602-.092 1.046-.168 2.198.36 3.146.415.737 1.614.625 1.916-.153.44-1.01.384-2.17.23-3.239-.109-.632-.476-1.387-1.233-1.356m0-.683c.957-.06 1.758.702 1.981 1.592.312 1.16.315 2.424-.046 3.572-.256.888-1.128 1.556-2.067 1.448-1.033.005-1.77-.933-1.93-1.883-.224-1.206-.24-2.524.29-3.656a1.9 1.9 0 0 1 1.772-1.073M8.82 11.81h.9v1.085h-.9zm3.527.36h3.01v.725h-4.048v-.726c.953-1.036 2.05-1.947 2.884-3.085.437-.573.33-1.54-.39-1.83-.825-.323-1.722.046-2.45.444v-.872c1.074-.456 2.5-.712 3.453.135.782.713.607 1.997-.072 2.72-.759.861-1.59 1.66-2.387 2.487m7.44-2.71c.893.124 1.482 1.057 1.292 1.923-.095 1.002-1.114 1.59-2.042 1.62-.723.07-1.452-.06-2.134-.298v-.833c.837.456 1.925.602 2.801.178.802-.435.69-1.812-.197-2.08-.48-.185-1-.11-1.502-.126v-.71c.668-.028 1.51.15 1.957-.475.417-.66-.145-1.534-.908-1.51-.666-.069-1.33.092-1.958.3v-.77c1.08-.286 2.407-.529 3.353.232.802.645.626 2.142-.4 2.464l-.127.046z" class="ColorScheme-Text" style="fill:currentColor"/>
</svg>
