<svg xmlns="http://www.w3.org/2000/svg" width="16" height="16">
<path fill="none" stroke="#dedede" stroke-dashoffset="25.896" stroke-linecap="square" stroke-linejoin="bevel" stroke-miterlimit="4.27" stroke-width="1.116" d="M15.467 8.409a6.9 6.9 0 0 1-.522 2.623 6.9 6.9 0 0 1-1.486 2.223 6.9 6.9 0 0 1-2.223 1.486 6.9 6.9 0 0 1-2.623.522 6.9 6.9 0 0 1-2.62-.522 6.87 6.87 0 0 1-3.705-3.71 6.9 6.9 0 0 1-.52-2.622 6.87 6.87 0 0 1 2.004-4.847 6.86 6.86 0 0 1 7.464-1.485A6.9 6.9 0 0 1 13.46 3.56a6.9 6.9 0 0 1 1.486 2.225 6.9 6.9 0 0 1 .522 2.623"/>
<path fill="#ff2100" fill-opacity=".392" fill-rule="evenodd" stroke="#d40000" stroke-linecap="round" stroke-linejoin="round" stroke-miterlimit="0" d="M5.287.503h2.846v2.856H5.287zM.52 7.622h2.847v2.856H.521zm12.156 3.574h2.846v2.856h-2.846z" color="#000"/>
</svg>
