<?xml version='1.0' encoding='ASCII'?>
<svg xmlns="http://www.w3.org/2000/svg" width="16" height="16">
<defs><style id="current-color-scheme" type="text/css">.ColorScheme-Contrast{color:#dedede; fill:currentColor;}</style></defs><path d="M48.07 570.362h1v1h-1z" class="ColorScheme-Contrast" style="opacity:.999;fill-opacity:1;stroke:none;stroke-width:.41576;stroke-linejoin:round;paint-order:stroke fill markers;fill:currentColor" transform="translate(-45.07 -567.364)" fill="currentColor"/>
<path fill="currentColor" d="M3 1c-1.108 0-2 .892-2 2v11c0 1.108.892 2 2 2h10c1.108 0 2-.892 2-2V3c0-1.108-.892-2-2-2h-2v1l-.002.033H13c.554 0 1 .446 1 1v10.934c0 .554-.446 1-1 1H3c-.554 0-1-.446-1-1V3.033c0-.554.446-1 1-1h2.002L5 2V1z" class="ColorScheme-Contrast" style="fill:currentColor"/>
<path fill="currentColor" d="M6 0c-.554 0-1 .446-1 1v1c0 .554.446 1 1 1h4c.554 0 1-.446 1-1V1c0-.554-.446-1-1-1zm0 1h4v1H6z" class="ColorScheme-Contrast" style="fill:currentColor"/>
<path d="M57.07 570.362h1v1h-1zm-9 10h1v1h-1zm9 0h1v1h-1z" style="opacity:.999;fill-opacity:1;stroke:none;stroke-width:.41576;stroke-linejoin:round;paint-order:stroke fill markers;fill:currentColor" transform="translate(-45.07 -567.364)" class="ColorScheme-Contrast" fill="currentColor"/>
<path d="M441.541 366.489v4h1v-2.293l4.364 4.364h-2.292v1h4v-4h-1v2.293l-4.365-4.365h2.293v-1h-4z" style="fill-opacity:1;stroke-width:.999998;stroke-linecap:round;stroke-linejoin:round;paint-order:stroke fill markers;stop-fill:currentColor" transform="rotate(45 662.334 -338.085)" class="ColorScheme-Contrast" fill="currentColor"/>
</svg>
