<?xml version='1.0' encoding='ASCII'?>
<svg xmlns="http://www.w3.org/2000/svg" width="16" height="16">
<defs><style id="current-color-scheme" type="text/css">.ColorScheme-Text{color:#fcfcfc; fill:currentColor;}</style></defs><path d="M0 0v1h1V0zm2 0v1h1V0zm2 0v1h1V0zm2 0v1h1V0zm2 0v1h1V0zm2 0v1h1V0zm2 0v1h1V0zm2 0v1h1V0zM0 2v1h1V2zm2 0v11h11V2zm12 0v1h1V2zM3 3h9v9H3zM0 4v1h1V4zm4 0v7h7V4zm10 0v1h1V4zM0 6v1h1V6zm14 0v1h1V6zM0 8v1h1V8zm14 0v1h1V8zM0 10v1h1v-1zm14 0v1h1v-1zM0 12v1h1v-1zm14 0v1h1v-1zM0 14v1h1v-1zm2 0v1h1v-1zm2 0v1h1v-1zm2 0v1h1v-1zm2 0v1h1v-1zm2 0v1h1v-1zm2 0v1h1v-1zm2 0v1h1v-1z" class="ColorScheme-Text" style="fill:currentColor" fill="currentColor"/>
</svg>
