<?xml version='1.0' encoding='ASCII'?>
<svg xmlns="http://www.w3.org/2000/svg" width="16" height="16">
<defs><style id="current-color-scheme" type="text/css">.ColorScheme-Text{color:#fcfcfc; fill:currentColor;}</style></defs><path fill="currentColor" d="M2 1C.892 1 0 1.892 0 3v9c0 1.108.892 2 2 2h5.945l.889-2.662 2.752-2.752L10 7l-3.478 4L4 9l-3 3V3c0-.554.446-1 1-1h12c.554 0 1 .446 1 1v2.86l1 1V3c0-1.108-.892-2-2-2zm2.5 3a1.5 1.5 0 1 0 0 3 1.5 1.5 0 0 0 0-3" class="ColorScheme-Text" style="fill:currentColor"/>
<path fill="currentColor" stroke-width="2" d="m9 14 2.121-.707 3.536-3.536-1.414-1.414-3.536 3.536zm6.364-4.95.707-.707-1.414-1.414-.707.707z" style="-inkscape-stroke:none;fill:currentColor" class="ColorScheme-Text"/>
</svg>
