<svg xmlns="http://www.w3.org/2000/svg" width="16" height="16">
<style id="current-color-scheme" type="text/css">
.ColorScheme-Text{color:#dedede}
</style>
<path d="M0 0v1h1V0zm2 0v1h1V0zm2 0v1h1V0zm2 0v1h1V0zm2 0v1h1V0zm2 0v1h1V0zm2 0v1h1V0zm2 0v1h1V0zM0 2v1h1V2zm7.44 0L5.922 5.61 2 6.267l2.813 2.627L4.199 13l3.256-1.986 3.543 1.879-.8-3.854L13 6.094l-3.75-.395zM14 2v1h1V2zM0 4v1h1V4zm14 0v1h1V4zM0 6v1h1V6zm14 0v1h1V6zM0 8v1h1V8zm14 0v1h1V8zM0 10v1h1v-1zm14 0v1h1v-1zM0 12v1h1v-1zm14 0v1h1v-1zM0 14v1h1v-1zm2 0v1h1v-1zm2 0v1h1v-1zm2 0v1h1v-1zm2 0v1h1v-1zm2 0v1h1v-1zm2 0v1h1v-1zm2 0v1h1v-1z" class="ColorScheme-Text" style="fill:currentColor"/>
</svg>
