<svg xmlns="http://www.w3.org/2000/svg" width="16" height="16">
<style id="current-color-scheme" type="text/css">
.ColorScheme-Text{color:#dedede}
</style>
<path d="M4.965 1.336a1.5 1.5 0 0 0-1.45 1.113c-.596.119-1.102.385-1.46.836-.728.915-.583 2.25.062 3.611a1.5 1.5 0 0 0-.412 1.034 1.5 1.5 0 0 0 1.5 1.5 1.5 1.5 0 0 0 .565-.112c.547.62 1.168 1.23 1.884 1.8.489.388.987.723 1.485 1.03a1.5 1.5 0 0 0-.03.295 1.5 1.5 0 0 0 1.5 1.5 1.5 1.5 0 0 0 1.165-.556c.24.076.483.163.714.216 1.503.346 2.87.189 3.61-.742.488-.613.58-1.418.398-2.29a1.5 1.5 0 0 0 .77-1.311 1.5 1.5 0 0 0-1.5-1.5 1.5 1.5 0 0 0-.557.11 13.4 13.4 0 0 0-1.967-2.186 1.5 1.5 0 0 0 .244-.819 1.5 1.5 0 0 0-1.5-1.5A1.5 1.5 0 0 0 8.84 3.9a12 12 0 0 0-2.377-1.115 1.5 1.5 0 0 0-1.498-1.449M3.53 3.273a1.5 1.5 0 0 0 1.434 1.063 1.5 1.5 0 0 0 1.31-.772c.71.242 1.464.601 2.23 1.067a1.5 1.5 0 0 0-.019.234 1.5 1.5 0 0 0 1.5 1.5 1.5 1.5 0 0 0 .65-.148c.776.693 1.43 1.42 1.934 2.136a1.5 1.5 0 0 0-.304.907 1.5 1.5 0 0 0 1.433 1.498c.133.674.066 1.238-.228 1.607-.46.577-1.456.769-2.805.46-.182-.043-.38-.115-.57-.175v-.002a2 2 0 0 0 .013-.205 1.5 1.5 0 0 0-1.5-1.5 1.5 1.5 0 0 0-1.107.49 14 14 0 0 1-1.348-.943 14 14 0 0 1-1.748-1.662 1.5 1.5 0 0 0 .299-.898 1.5 1.5 0 0 0-1.5-1.5 1.5 1.5 0 0 0-.394.052c-.54-1.179-.573-2.144-.131-2.699.192-.242.484-.411.851-.51" class="ColorScheme-Text" style="fill:currentColor"/>
</svg>
