<?xml version='1.0' encoding='ASCII'?>
<svg xmlns="http://www.w3.org/2000/svg" width="16" height="16">
<defs><style id="current-color-scheme" type="text/css">.ColorScheme-Text{color:#fcfcfc; fill:currentColor;}</style></defs><path d="M12.597.405a3 3 0 0 0-2.121.877l-3.092 3.09c.433-.028.869.013 1.29.123l2.509-2.506c.79-.79 2.038-.79 2.828 0s.79 2.039 0 2.828L9.769 9.06c-.79.79-2.039.79-2.829 0a2 2 0 0 1-.523-.891l-.77.77a3.004 3.004 0 0 0 4.828.828l4.243-4.243a3.004 3.004 0 0 0 0-4.242 3 3 0 0 0-2.121-.877m-4.95 4.95a3 3 0 0 0-2.12.877l-4.245 4.242a3.006 3.006 0 0 0 0 4.244 3.006 3.006 0 0 0 4.244 0l3.09-3.092a4 4 0 0 1-1.29-.123l-2.507 2.508c-.79.79-2.04.79-2.83 0s-.79-2.04 0-2.83l4.244-4.242c.79-.79 2.039-.79 2.829 0 .258.258.432.567.521.892l.771-.771a2.99 2.99 0 0 0-2.707-1.705" class="ColorScheme-Text" style="fill:currentColor" fill="currentColor"/>
</svg>
