<?xml version='1.0' encoding='ASCII'?>
<svg xmlns="http://www.w3.org/2000/svg" width="16" height="16">
<defs><style id="current-color-scheme" type="text/css">.ColorScheme-Contrast{color:#dedede; fill:currentColor;}</style></defs><g fill="currentColor" class="ColorScheme-Contrast" style="fill:currentColor">
<style id="current-color-scheme" type="text/css" class="ColorScheme-Contrast" fill="currentColor" style="fill:currentColor">
.ColorScheme-Contrast{color:#dedede}
</style>
<path d="M12.554.443a.726.726 0 0 0-.722.723c0 .396.326.722.722.722a.726.726 0 0 0 .723-.722.73.73 0 0 0-.723-.723m-6.836.768a.725.725 0 0 0-.721.721c0 .396.325.724.721.724s.723-.328.723-.724a.726.726 0 0 0-.723-.721m4.23.618c-1.409.068-2.584.874-3.646 1.745-.926.76-1.78 1.573-2.605 2.048h-.595a.486.486 0 0 0-.482.482V7.59c0 .116.045.222.115.306l-.03.073c-.337.744-.746 1.55-.888 2.358-.146.771-.076 1.486.185 2.242l.003.004c.336.926 1.049 1.56 1.206 2.16a.24.24 0 0 0 .249.178c1.678-.116 4.39-.105 5.958-.094h.003c.623 0 1.16-.01 1.785-.023a32 32 0 0 1 2.161.035.24.24 0 0 0 .22-.362c-.564-.964-.93-1.623-1.128-2.25v-.005a5.3 5.3 0 0 1-.26-2.037v-.005a9.6 9.6 0 0 1 .516-2.426q.094-.258.205-.505h1.213a.486.486 0 0 0 .481-.481V5.272a.486.486 0 0 0-.481-.482h-.515c-.296-.54-.632-1.167-1.107-1.74l-.003-.005a.2.2 0 0 0-.032-.051l-.004-.004-.003-.003c-.65-.746-1.554-1.202-2.518-1.16h-.003zm.022.48c.798-.034 1.565.344 2.132.993l.003.003.003.003c.397.464.689.988.96 1.487h-.393a.486.486 0 0 0-.482.481v1.486a.48.48 0 0 0 .237.41q-.09.202-.168.414a10 10 0 0 0-.543 2.557v.003a5.8 5.8 0 0 0 .284 2.22c.185.586.556 1.232.986 1.979a34 34 0 0 0-1.791-.029 73 73 0 0 1-1.777.022c-1.53-.011-4.125-.015-5.844.094-.27-.726-.86-1.312-1.118-2.019-.24-.697-.299-1.304-.167-1.997v-.004c.123-.702.511-1.485.853-2.242l.04-.096h1.378c.262 0 .481-.22.481-.482V6.107a.486.486 0 0 0-.481-.482h-.018c.69-.487 1.364-1.101 2.065-1.677 1.039-.852 2.125-1.576 3.362-1.636zm2.703 2.966h1.459V6.76h-1.459zm-9.57.83H4.56V7.59H3.102z" class="ColorScheme-Contrast" style="fill:currentColor" fill="currentColor"/>
<path d="m12.753 1.579-.025.002-.047.011a.3.3 0 0 0-.044.022l-.021.014-.036.033-.027.04-.013.021-.01.022-.006.025a.3.3 0 0 0-.005.072l.004.028.648 3.182a.3.3 0 0 0 .015.047l.01.022.015.02.014.02a.3.3 0 0 0 .078.06l.022.009.023.007.024.005.025.003a.3.3 0 0 0 .073-.005.3.3 0 0 0 .066-.03l.022-.012a.3.3 0 0 0 .063-.074l.013-.022.01-.021a.25.25 0 0 0 .007-.125l-.648-3.183-.009-.024a.3.3 0 0 0-.032-.065.25.25 0 0 0-.092-.079.25.25 0 0 0-.117-.024zm-7.376.698a.3.3 0 0 0-.096.018l-.021.01-.022.014-.018.014a.3.3 0 0 0-.034.037l-.015.017-.013.022-.002.004-1.606 3.3-.01.024-.007.022a.3.3 0 0 0-.008.049.3.3 0 0 0 .017.095l.01.024.011.022.031.037.018.017.018.016.043.023a.3.3 0 0 0 .047.015.3.3 0 0 0 .072.004l.026-.003.023-.008a.3.3 0 0 0 .046-.018l.02-.012a.25.25 0 0 0 .082-.095l1.606-3.3.01-.021.008-.024a.3.3 0 0 0 .005-.074l-.003-.024-.006-.024-.008-.023-.01-.024-.012-.02-.014-.02a.3.3 0 0 0-.034-.036l-.04-.028-.022-.011a.3.3 0 0 0-.047-.015l-.048-.006zm3.808.287C8.4 3.81 7.435 5.727 6.868 6.628l-2.18.61v.486c0 .136-.11.245-.245.245h-.61l1.878 1.777L4.24 14.67l3.365-2.416 2.416 2.404-.088-3.972 2.148-2.265L9.478 7.21c-.002-1.659-.029-3.216-.293-4.645" opacity=".3" class="ColorScheme-Contrast" fill="currentColor" style="fill:currentColor"/>
</g>
</svg>
