<?xml version='1.0' encoding='ASCII'?>
<svg xmlns="http://www.w3.org/2000/svg" width="16" height="16">
<defs><style id="current-color-scheme" type="text/css">.ColorScheme-Contrast{color:#dedede; fill:currentColor;}</style></defs><path d="m13.133 1.654-.143.291-.322.047.234.225-.054.32.285-.15.289.15-.057-.32.235-.225-.323-.049zm-.664 1.076a2.8 2.8 0 0 0-1.082.204 2.8 2.8 0 0 0-1.123.865q.263.132.494.314c.23-.277.517-.505.847-.64a2.23 2.23 0 0 1 1.71.021l.232-.533c-.34-.15-.71-.226-1.078-.23Zm1.94.2-.143.29-.323.046.233.228-.055.317.287-.149.287.15-.054-.32.232-.226-.32-.047Zm-5.038.756-.47.689a5 5 0 0 1 1.703 1.162l.47-.69a2.4 2.4 0 0 0-.75-.732 4.3 4.3 0 0 0-.953-.43Zm3.902.115-.142.293-.322.047.232.226-.055.319.287-.153.288.154-.053-.322.232-.226-.322-.045Z" class="ColorScheme-Contrast" style="opacity:1;fill-opacity:1;fill:currentColor" fill="currentColor"/>
<path d="M7 4a5 5 0 0 0-5 5 5 5 0 0 0 5 5 5 5 0 0 0 5-5 5 5 0 0 0-5-5m0 1a4 4 0 0 1 4 4 4 4 0 0 1-4 4 4 4 0 0 1-4-4 4 4 0 0 1 4-4" style="stroke-width:2;stroke-linecap:square;paint-order:stroke fill markers;stop-fill:currentColor" class="ColorScheme-Contrast" fill="currentColor"/>
<path d="M5.652 6.274c.256.243.424.397.62.617.097.11.072.22-.021.286-.46.198-.98.698-1.1.77-.094.066-.202.07-.243.013a5 5 0 0 1-.493-.681.184.184 0 0 1 .036-.25c.246-.275.774-.661.921-.76.078-.065.224-.053.28.005m-1.33 1.397.016.01c.114.079.102.296-.027.486-.13.19-.328.282-.443.204-.115-.079-.103-.297.027-.487.123-.18.31-.273.427-.213" style="opacity:1;fill-opacity:1;fill:currentColor" class="ColorScheme-Contrast" fill="currentColor"/>
</svg>
