<svg xmlns="http://www.w3.org/2000/svg" width="16" height="16">
<style id="current-color-scheme" type="text/css">
.ColorScheme-Contrast{color:#dedede}
</style>
<path d="M8.002 2.04c3.77.004 7.07 2.366 8.008 5.73a.96 1.042 90 0 1 0 .478c-.381 1.351-1.147 2.536-2.168 3.475l-.711-.711c.876-.816 1.54-1.835 1.869-3.004C14.18 5.063 11.3 3.004 8 3c-.863 0-1.694.15-2.47.41l-.76-.76A8.9 8.9 0 0 1 8 2.04a.96 1.042 90 0 1 .002 0M2.157 4.28l.71.71C1.993 5.805 1.33 6.823 1 7.992c.821 2.945 3.7 5.004 7 5.008a7.8 7.8 0 0 0 2.469-.408l.758.758c-1 .391-2.091.61-3.227.61a.96 1.042 90 0 1-.002 0c-3.77-.004-7.07-2.366-8.007-5.73a.96 1.042 90 0 1 0-.48C.37 6.4 1.137 5.217 2.157 4.28M8 5a3 3 0 0 1 3 3 3 3 0 0 1-.105.775l-.9-.9a2 2 0 0 0-1.87-1.87l-.902-.901A3 3 0 0 1 8 5M5.106 7.228l.9.9a2 2 0 0 0 1.865 1.866l.903.902A3 3 0 0 1 8 11a3 3 0 0 1-3-3 3 3 0 0 1 .106-.772" class="ColorScheme-Contrast" style="fill:currentColor"/>
<rect width="16" height="1" x="-19.314" y="-.5" class="ColorScheme-Contrast" style="fill:currentColor" ry="0" transform="scale(-1 1)rotate(-45)"/>
</svg>
