<?xml version='1.0' encoding='ASCII'?>
<svg xmlns="http://www.w3.org/2000/svg" width="16" height="16">
<defs><style id="current-color-scheme" type="text/css">.ColorScheme-Text{color:#fcfcfc; fill:currentColor;}</style></defs><path fill="currentColor" d="M7.959 1a1 1 0 0 0-.875.6L5.596 5H1.75C.83 5.001.4 6.137 1.086 6.748L4.08 9.4l-1.521 4.264c-.315.887.658 1.679 1.462 1.19L8 12.422l.002.002a4.5 4.5 0 0 1 .15-1.08L8 11.25 3.5 14l1.75-4.898L1.75 6h4.5L8 2l1 2.285L9.75 6h4.5l-2.295 2.033A5 5 0 0 1 12.5 8a4.5 4.5 0 0 1 .898.09l1.516-1.342A1 1 0 0 0 14.25 5h-3.846L9 1.791 8.916 1.6a1 1 0 0 0-.148-.24l-.012-.014a1 1 0 0 0-.205-.178l-.002-.002-.012-.006a1 1 0 0 0-.238-.113l-.018-.008A1 1 0 0 0 8 1z" color="#fcfcfc" class="ColorScheme-Text" style="fill:currentColor"/>
<path fill="currentColor" d="M12.5 9a3.5 3.5 0 1 0 0 7 3.5 3.5 0 0 0 0-7m-.5 1h1v2h2v1h-2v2h-1v-2h-2v-1h2z" class="ColorScheme-Text" color="#fcfcfc" style="fill:currentColor"/>
</svg>
