<?xml version='1.0' encoding='ASCII'?>
<svg xmlns="http://www.w3.org/2000/svg" width="16" height="16">
<defs><style id="current-color-scheme" type="text/css">.ColorScheme-Contrast{color:#dedede; fill:currentColor;}</style></defs><path fill="currentColor" fill-rule="evenodd" d="M2.906 0C-2.31 0-.442 16 8.021 16c8.317 0 10.31-16 5.137-16-1.619 0-3.524 1.224-5.137 2.914 3.592 3.778 5.737 9.889.03 9.889-5.78 0-3.635-6.111-.03-9.889C6.414 1.224 4.52 0 2.906 0m0 1c.896 0 2.24.643 3.508 1.752.084.073.153.177.236.254-.782.924-1.496 1.904-2.033 2.934-.898 1.723-1.435 3.503-1 5.123.218.81.737 1.56 1.51 2.039.773.478 1.75.7 2.924.7 1.161 0 2.13-.22 2.896-.702a3.44 3.44 0 0 0 1.487-2.045c.42-1.618-.117-3.393-1.014-5.115-.536-1.03-1.248-2.008-2.027-2.932.083-.077.154-.18.238-.254C10.904 1.644 12.256 1 13.158 1c.389 0 .622.11.887.383.264.273.523.745.697 1.38.348 1.273.346 3.15-.07 5.018-.417 1.87-1.237 3.735-2.373 5.07-1.136 1.337-2.519 2.15-4.278 2.15-1.8 0-3.2-.816-4.343-2.151S1.718 9.654 1.31 7.787s-.396-3.742-.035-5.013c.18-.636.445-1.108.717-1.383.272-.276.518-.39.914-.39z" style="-inkscape-stroke:none;paint-order:stroke fill markers;fill:currentColor" class="ColorScheme-Contrast"/>
</svg>
