<svg xmlns="http://www.w3.org/2000/svg" width="16" height="16">
<style id="current-color-scheme" type="text/css">
.ColorScheme-Contrast{color:#dedede}
</style>
<path d="M3 6c-1.108 0-2 .892-2 2v5c0 1.108.892 2 2 2h7c1.108 0 2-.892 2-2v-2h-1v2c0 .554-.446 1-1 1H3c-.554 0-1-.446-1-1V9c0-.554.446-1 1-1h1V6z" class="ColorScheme-Contrast" opacity=".35" style="fill:currentColor"/>
<path fill="currentColor" d="M7 1c-1.108 0-2 .892-2 2v5c0 1.108.892 2 2 2h7c1.108 0 2-.892 2-2V3c0-1.108-.892-2-2-2zm0 2h7c.554 0 1 .446 1 1v4c0 .554-.446 1-1 1H7c-.554 0-1-.446-1-1V4c0-.554.446-1 1-1"/>
</svg>
