<?xml version='1.0' encoding='ASCII'?>
<svg xmlns="http://www.w3.org/2000/svg" width="16" height="16">
<defs><style id="current-color-scheme" type="text/css">.ColorScheme-Contrast{color:#dedede; fill:currentColor;}</style></defs><path d="M2 2v1h6c1.108 0 2 .892 2 2v1H4C2.338 6 1 7.338 1 9s1.338 3 3 3h2.106A5 5 0 0 1 6 11H4c-1.108 0-2-.892-2-2s.892-2 2-2h4.01A5 5 0 0 1 11 6V5c0-1.662-1.338-3-3-3z" class="ColorScheme-Contrast" style="fill:currentColor" fill="currentColor"/>
<circle cx="11" cy="11" r="4" fill="currentColor" class="ColorScheme-Contrast" style="fill:currentColor"/>
</svg>
