<?xml version='1.0' encoding='ASCII'?>
<svg xmlns="http://www.w3.org/2000/svg" viewBox="0 0 16 16">
<defs><style id="current-color-scheme" type="text/css">.ColorScheme-Contrast{color:#dedede; fill:currentColor;}</style></defs><path d="M5 2a1 1 0 0 0-1 1v2H2v3h1V6h10v2h1V5h-2V3a1 1 0 0 0-1-1zm0 1h6v2H5zm-.996 6a1 1 0 0 0-1 1 1 1 0 0 0 1 1 1 1 0 0 0 1-1 1 1 0 0 0-1-1m-1.32 3a2 2 0 0 0-.68 1.5v.5h4v-.5a2 2 0 0 0-.68-1.5z" class="ColorScheme-Contrast" style="fill-opacity:1;stroke:none;fill:currentColor" fill="currentColor"/>
<path d="m13.34 9-3.148 3.609-1.524-1.552-.663.675L10.232 14l3.773-4.323Z" style="fill:currentColor" class="ColorScheme-Contrast" fill="currentColor"/>
</svg>
