<?xml version='1.0' encoding='ASCII'?>
<svg xmlns="http://www.w3.org/2000/svg" width="16" height="16">
<defs><style id="current-color-scheme" type="text/css">.ColorScheme-Text{color:#fcfcfc; fill:currentColor;}</style></defs><path d="M3 2v5h2V4h3.5c.831 0 1.5.669 1.5 1.5S9.331 7 8.5 7h3.15c.218-.455.35-.96.35-1.5C12 3.561 10.439 2 8.5 2zm0 8v4h5.5c1.939 0 3.5-1.561 3.5-3.5 0-.171-.029-.335-.053-.5H9.908c.056.157.092.323.092.5 0 .831-.669 1.5-1.5 1.5H5v-2zM2 8v1h12V8z" class="ColorScheme-Text" style="fill:currentColor" fill="currentColor"/>
</svg>
