<?xml version='1.0' encoding='ASCII'?>
<svg xmlns="http://www.w3.org/2000/svg" width="16" height="16">
<defs><style id="current-color-scheme" type="text/css">.ColorScheme-Text{color:#fcfcfc; fill:currentColor;}</style></defs><path fill="currentColor" d="m13.178 3.349-.317 1.65q-.744-.752-1.58-1.116-.83-.364-1.798-.364-1.325 0-2.332.635-1 .636-1.727 1.937-.465.837-.713 1.774-.24.93-.24 1.875 0 1.58.813 2.41.821.828 2.379.828 1.076 0 2.068-.34.992-.35 1.929-1.039l-.364 1.852q-.922.395-1.867.596-.938.202-1.883.202-2.223 0-3.478-1.209Q2.82 11.832 2.82 9.678q0-1.38.472-2.712.48-1.332 1.371-2.432.946-1.17 2.154-1.728 1.216-.557 2.828-.557.991 0 1.874.278.891.272 1.658.822z" aria-label="C" class="ColorScheme-Text" style="fill:currentColor"/>
</svg>
