<?xml version='1.0' encoding='ASCII'?>
<svg xmlns="http://www.w3.org/2000/svg" width="16" height="16">
<defs><style id="current-color-scheme" type="text/css">.ColorScheme-Text{color:#fcfcfc; fill:currentColor;}</style></defs><path d="M8 6.992h5.016c-.003.084-.016 2.202-.04 3.07-.08 2.904-.976 4.438-5.399 4.204-1.908 0-3.082-.56-4.091-1.678q-1.505-1.687-1.505-4.835c0-2.042.304-3.654 1.448-4.928C4.515 1.615 5.864.942 7.934.953c3.356.017 4.614 1.761 4.888 4.087l-2.452.063c-.179-1.096-.808-2.036-2.348-2.051-2.815-.028-3.3 2.246-3.313 4.565-.013 2.065.79 4.323 2.76 4.36 2.54-.05 3.004-.301 2.903-2.754H8z" class="ColorScheme-Text" font-family="Open Sans" font-weight="700" letter-spacing="0" style="line-height:125%;-inkscape-font-specification:&quot;Open Sans&quot;;fill:currentColor" word-spacing="0" fill="currentColor"/>
</svg>
