<?xml version='1.0' encoding='ASCII'?>
<svg xmlns="http://www.w3.org/2000/svg" width="16" height="16">
<defs><style id="current-color-scheme" type="text/css">.ColorScheme-Contrast{color:#dedede; fill:currentColor;}</style></defs><g fill="currentColor" transform="translate(-41 -867)" class="ColorScheme-Contrast" style="fill:currentColor">
<style id="current-color-scheme" type="text/css" class="ColorScheme-Contrast" fill="currentColor" style="fill:currentColor">
.ColorScheme-Contrast{color:#dedede}
</style>
<path d="M44.5 870a1.5 1.5 0 0 0-1.5 1.5 1.5 1.5 0 0 0 1.5 1.5 1.5 1.5 0 0 0 1.5-1.5 1.5 1.5 0 0 0-1.5-1.5m0 1a.5.5 0 0 1 .5.5.5.5 0 0 1-.5.5.5.5 0 0 1-.5-.5.5.5 0 0 1 .5-.5" class="ColorScheme-Contrast" style="fill:currentColor" fill="currentColor"/>
<rect width="8" height="1" x="47" y="871" ry="0" class="ColorScheme-Contrast" fill="currentColor" style="fill:currentColor"/>
<path d="M44.5 874a1.5 1.5 0 0 0-1.5 1.5 1.5 1.5 0 0 0 1.5 1.5 1.5 1.5 0 0 0 1.5-1.5 1.5 1.5 0 0 0-1.5-1.5m0 1a.5.5 0 0 1 .5.5.5.5 0 0 1-.5.5.5.5 0 0 1-.5-.5.5.5 0 0 1 .5-.5" class="ColorScheme-Contrast" fill="currentColor" style="fill:currentColor"/>
<rect width="8" height="1" x="47" y="875" ry="0" class="ColorScheme-Contrast" fill="currentColor" style="fill:currentColor"/>
<path d="M44.5 878a1.5 1.5 0 0 0-1.5 1.5 1.5 1.5 0 0 0 1.5 1.5 1.5 1.5 0 0 0 1.5-1.5 1.5 1.5 0 0 0-1.5-1.5m0 1a.5.5 0 0 1 .5.5.5.5 0 0 1-.5.5.5.5 0 0 1-.5-.5.5.5 0 0 1 .5-.5" class="ColorScheme-Contrast" fill="currentColor" style="fill:currentColor"/>
<rect width="8" height="1" x="47" y="879" ry="0" class="ColorScheme-Contrast" fill="currentColor" style="fill:currentColor"/>
</g>
</svg>
