<svg xmlns="http://www.w3.org/2000/svg" width="16" height="16">
<g fill="currentColor">
<style id="current-color-scheme" type="text/css">
.ColorScheme-Contrast{color:#dedede}
</style>
<path d="M3.023 1c-1.108 0-2 .892-2 2v10c0 1.108.892 2 2 2h10.002a1.994 1.994 0 0 0 1.998-2V3c0-1.108-.89-2-1.998-2zm0 1h10c.554 0 1 .446 1 1v10c0 .554-.446 1-1 1h-10c-.554 0-1-.446-1-1V3c0-.554.446-1 1-1" class="ColorScheme-Contrast" opacity=".25" style="fill:currentColor"/>
<path d="M13.906 1.5a.5.5 0 0 0-.25.156l-12 12a.5.5 0 1 0 .719.688l12-12a.5.5 0 0 0-.469-.844"/>
</g>
</svg>
