<?xml version='1.0' encoding='ASCII'?>
<svg xmlns="http://www.w3.org/2000/svg" viewBox="0 0 16 16">
<defs><style id="current-color-scheme" type="text/css">.ColorScheme-Text{color:#fcfcfc; fill:currentColor;}</style></defs><path d="M2 1v6h1V2h5V1zm7 0v1h5v5h1V1zM2 8v6h6v-1H3V8zm12 0v5H9v1h6V8z" class="ColorScheme-Text" style="fill-opacity:1;stroke:none;fill:currentColor" transform="translate(-421.714 -531.79)" fill="currentColor"/>
<path d="M8 1v6H2v1h6v6h1V8h6V7H9V1z" class="ColorScheme-Text" style="fill-opacity:1;stroke:none;fill:currentColor" fill="currentColor"/>
<path d="M435.714 533.79v5h-5v-5zm-6 0v5h-5v-5zm6 6v5h-5v-5zm-6 0v5h-5v-5z" class="ColorScheme-Text" style="fill-opacity:.5;stroke:none;fill:currentColor" transform="translate(-421.714 -531.79)" fill="currentColor"/>
</svg>
