<?xml version='1.0' encoding='ASCII'?>
<svg xmlns="http://www.w3.org/2000/svg" width="16" height="16">
<defs><style id="current-color-scheme" type="text/css">.ColorScheme-Contrast{color:#dedede; fill:currentColor;}</style></defs><path fill="currentColor" d="M9 1.503v2.5H6.5c-3 0-5 2.127-5 5.25 0 3.25 4 4.75 4 4.75s-1.875-2.652-1.438-4c.366-1.126 1.573-2 2.938-2h2v2.5l6.469-4.5zm1 1.907 3.75 2.593L10 8.597V7.003H7c-1.791 0-3.356 1.091-3.875 2.688-.15.46-.09.866-.031 1.281-.351-.498-.594-1.047-.594-1.719 0-1.348.414-2.377 1.094-3.093S5.236 5.003 6.5 5.003H10z" color="#dedede" font-family="Sans" font-weight="400" overflow="visible" style="line-height:normal;-inkscape-font-specification:Sans;text-indent:0;text-align:start;text-decoration-line:none;text-transform:none;block-progression:tb;marker:none;fill:currentColor" class="ColorScheme-Contrast"/>
</svg>
