<?xml version='1.0' encoding='ASCII'?>
<svg xmlns="http://www.w3.org/2000/svg" width="16" height="16">
<defs><style id="current-color-scheme" type="text/css">.ColorScheme-Text{color:#fcfcfc; fill:currentColor;}</style></defs><path fill="currentColor" d="m7 1.503-6.469 4.5L7 10.503v-2.5h2c1.365 0 2.572.874 2.938 2 .437 1.348-1.438 4-1.438 4s4-1.5 4-4.75c0-3.123-2-5.25-5-5.25H7zM6 3.41v1.593h3.5c1.264 0 2.226.44 2.906 1.157.68.716 1.094 1.745 1.094 3.093 0 .672-.243 1.22-.594 1.72.058-.416.118-.822-.03-1.282C12.355 8.094 10.79 7.003 9 7.003H6v1.594L2.25 6.003z" color="#fcfcfc" font-family="Sans" font-weight="400" overflow="visible" style="line-height:normal;-inkscape-font-specification:Sans;text-indent:0;text-align:start;text-decoration-line:none;text-transform:none;block-progression:tb;marker:none;fill:currentColor" class="ColorScheme-Text"/>
</svg>
