<?xml version='1.0' encoding='ASCII'?>
<svg xmlns="http://www.w3.org/2000/svg" viewBox="0 0 16 16">
<defs><style id="current-color-scheme" type="text/css">.ColorScheme-Contrast{color:#dedede; fill:currentColor;}</style></defs><path d="M2 2v13h13V2H3zm1 1h2v2H3zm3 0h2v2H6zm3 0h2v2H9zm3 0h2v2h-2zM3 6h2v2H3zm3 0h2v2H6zm3 0h2v2H9zm3 0h2v2h-2zM3 9h2v2H3zm3 0h2v2H6zm3 0h2v2H9zm3 0h2v2h-2zm-9 3h2v2H3zm3 0h2v2H6zm3 0h2v2H9zm3 0h2v2h-2z" class="ColorScheme-Contrast" style="fill-opacity:1;stroke:none;fill:currentColor" fill="currentColor"/>
</svg>
