<?xml version='1.0' encoding='ASCII'?>
<svg xmlns="http://www.w3.org/2000/svg" width="16" height="16">
<defs><style id="current-color-scheme" type="text/css">.ColorScheme-Contrast{color:#dedede; fill:currentColor;}</style></defs><path d="M11.534 1.995q-.192-.004-.38.01l-.264 1.207a3 3 0 0 0-.565.167l-.867-.871a4 4 0 0 0-.626.456l.499 1.116a3 3 0 0 0-.355.462l-1.208-.19a4 4 0 0 0-.253.736l1.054.604a3 3 0 0 0-.018.213h-.007l.002.052-.002.024h.003q0 .106.008.214l-1.08.554q.073.39.217.747l1.216-.134q.143.257.333.479l-.55 1.09c.19.178.381.348.603.486l.907-.83c.175.084.364.147.557.194L10.965 10q.187.023.379.027.192.005.38-.01l.264-1.206a3 3 0 0 0 .565-.168l.867.871a4 4 0 0 0 .626-.456l-.499-1.116q.2-.213.355-.462l1.208.191a4 4 0 0 0 .253-.736L14.31 6.33q.014-.107.02-.214h.005l-.002-.052.002-.023h-.003a3 3 0 0 0-.008-.215l1.08-.554a4 4 0 0 0-.217-.747l-1.216.134a3 3 0 0 0-.333-.478l.55-1.092a4 4 0 0 0-.603-.484l-.907.829a3 3 0 0 0-.556-.194l-.207-1.218a4 4 0 0 0-.38-.027M11.46 5.18c.464.01.831.384.845.842A.866.866 0 0 1 10.574 6a.867.867 0 0 1 .885-.82m-6.727.49a4 4 0 0 0-.38.014q-.192.016-.377.049L3.84 6.96a3 3 0 0 0-.544.226l-.954-.775a4 4 0 0 0-.575.52l.614 1.057a3 3 0 0 0-.304.497L.855 8.423a4 4 0 0 0-.174.76l1.112.489c-.002.097-.002.19.005.29h.007q.013.122.036.244l-1.017.665a4 4 0 0 0 .295.72l1.196-.262q.169.24.381.441l-.433 1.144c.208.156.417.304.653.418l.813-.92c.183.064.378.108.575.134l.334 1.189q.188.003.38-.013.191-.016.377-.05l.135-1.227q.287-.087.544-.227l.954.775a4 4 0 0 0 .575-.52l-.614-1.057q.176-.232.304-.497l1.222.063a4 4 0 0 0 .173-.759l-1.111-.49a3 3 0 0 0-.006-.29l-.006.001a3 3 0 0 0-.036-.245l1.016-.665a4 4 0 0 0-.295-.72l-1.195.262a3 3 0 0 0-.382-.441l.433-1.143a4 4 0 0 0-.652-.419l-.814.921a3 3 0 0 0-.574-.135zM4.72 7.988c.88.016 1.623.698 1.697 1.594a1.736 1.736 0 0 1-3.464.243h-.001A1.737 1.737 0 0 1 4.72 7.987" class="ColorScheme-Contrast" style="fill:currentColor" fill="currentColor"/>
</svg>
