<?xml version='1.0' encoding='ASCII'?>
<svg xmlns="http://www.w3.org/2000/svg" viewBox="0 0 16 16">
<defs><style id="current-color-scheme" type="text/css">.ColorScheme-Text{color:#fcfcfc; fill:currentColor;}</style></defs><path d="M6 2 .707 7.293 0 8l.707.707L6 14h10V2zm3 2h1v1H9a1 1 0 0 0-1 1v1a1.5 1.5 0 0 1-.375 1A1.5 1.5 0 0 1 8 9v1a1 1 0 0 0 1 1h1v1H9a2 2 0 0 1-2-2V9a.5.5 0 0 0-.5-.5H6v-1h.5A.5.5 0 0 0 7 7V6a2 2 0 0 1 2-2m2 0h1a2 2 0 0 1 2 2v1a.5.5 0 0 0 .5.5h.5v1h-.5a.5.5 0 0 0-.5.5v1a2 2 0 0 1-2 2h-1v-1h1a1 1 0 0 0 1-1V9c0-.383.14-.735.375-1A1.5 1.5 0 0 1 13 7V6a1 1 0 0 0-1-1h-1z" class="ColorScheme-Text" style="fill-opacity:1;stroke:none;fill:currentColor" fill="currentColor"/>
</svg>
