<?xml version='1.0' encoding='ASCII'?>
<svg width="16" height="16">
<defs><style id="current-color-scheme" type="text/css">.ColorScheme-Contrast{color:#dedede; fill:currentColor;}</style></defs><style id="current-color-scheme" type="text/css">
.ColorScheme-Contrast{color:#dedede}
</style>
<path d="m12.635 2.242-1 1.733-2.6-1.5-.5.865 2.6 1.5-2.984 5.17L8 10a6 6 0 0 0-5.637 4H1v1h14v-1h-1.357a6 6 0 0 0-4.414-3.86L12 5.34l2.598 1.5.5-.865-2.598-1.5 1-1.733zM8 11a5 5 0 0 1 4.58 3H3.424A5 5 0 0 1 8 11" class="ColorScheme-Contrast" style="fill:currentColor"/>
</svg>
