<svg xmlns="http://www.w3.org/2000/svg" width="16" height="16">
<style id="current-color-scheme" type="text/css">
.ColorScheme-Contrast{color:#dedede}
</style>
<path d="M7.02 0v.973L5.453.078l-.512.858 1.362.783L3 3.509V1h-.994v2.857L.546 3 0 3.916l1.08.633L0 5.135.525 6l1.48-.803v4.635L.519 9 0 9.875l1.059.59-1.059.62.516.915 1.49-.875V15H3v-3.455l3.553 1.978L4 15.098l.484.902 2.536-1.563V16h.994v-1.664L11 16l.518-.844-2.97-1.66 3.438-2.117v3.62h.994v-3.468L15.484 13l.516-.914-2.643-1.553L16 8.904 15.516 8 12.98 9.562V5.558L15.488 7 16 6.11l-2.758-1.578L16 2.916 15.484 2 12.98 3.469V.999h-.994v2.815L8.373 1.748 10 .868 9.475 0 8.014.791V0zm0 2.48v4.327L3.19 4.555zm.994.221 3.168 1.823-3.168 1.859zm3.972 2.569v4.457l-3.793-2.23zM3 5.676 6.11 7.5 3 9.324zm4.02 2.51v4.455l-3.887-2.176zm.994.431 3.33 1.953-3.33 2.053z" class="ColorScheme-Contrast" style="fill:currentColor"/>
</svg>
