<svg xmlns="http://www.w3.org/2000/svg" viewBox="0 0 16 16">
<defs id="defs3051">
<style id="current-color-scheme" type="text/css">
.ColorScheme-NegativeText{color:#da4453}
</style>
</defs>
<path d="M8 2a3 3 0 1 0 0 6 3 3 0 0 0 0-6M6.05 4.5h4v1h-4zM8 9c-2.761 0-5 2.01-5 4.5q.002.25.033.5h9.93a4 4 0 0 0 .037-.5C13 11.015 10.761 9 8 9m0 1c1.987.002 3.671 1.279 3.955 3h-7.91c.284-1.721 1.968-2.998 3.955-3" class="ColorScheme-NegativeText" style="fill:currentColor;fill-opacity:1;stroke:none"/>
</svg>
