<svg xmlns="http://www.w3.org/2000/svg" width="16" height="16">
<g fill="currentColor">
<style id="current-color-scheme" type="text/css">
.ColorScheme-Contrast{color:#dedede}
</style>
<path d="M4.024 2.01v11.991h-1V2.01" class="ColorScheme-Contrast" opacity=".83" style="fill:currentColor"/>
<path d="M5.024 2.01v11.991h-1V2.01" opacity=".74"/>
<path d="M5.024 2.01h1v11.991h-1" opacity=".65"/>
<path d="M6.024 2.01h1v11.991h-1" opacity=".57"/>
<path d="M7.024 2.01h1v11.991h-1" opacity=".49"/>
<path d="M8.024 2.01h1v11.991h-1" opacity=".4"/>
<path d="M9.024 2.01h1v11.991h-1" opacity=".32"/>
<path d="M10.024 2.01h1v11.991h-1" opacity=".24"/>
<path d="M11.024 2.01h1v11.991h-1" opacity=".16"/>
<path d="M12.024 2.01h1v11.991h-1" opacity=".07"/>
<path d="M3.028 2v11.994h-1V2" opacity=".94"/>
<path d="M.028.01v15.996h15.996V.01zm1 1h13.996v13.996H1.028z" opacity=".7"/>
</g>
</svg>
