<svg xmlns="http://www.w3.org/2000/svg" width="16" height="16">
<style id="current-color-scheme" type="text/css">
.ColorScheme-Text{color:#dedede}
</style>
<path d="M7.75.976v.734h.674V.976zm-5.414 1-.485.76 3.744 2.382L1.26 7.877l4.274 2.766-3.329 2.315.514.738 4.428-3.08-4.221-2.732L7.27 5.118zm7.842.261v.003L9.694 3c.238.152.59.314 1.031.523.442.21.958.451 1.444.704.486.254.943.521 1.256.759.227.173.333.336.375.388-.007.01-.007.013-.027.03-.072.07-.214.172-.399.277-.369.209-.903.436-1.445.667-.542.23-1.092.461-1.536.713a2.8 2.8 0 0 0-.584.415c-.165.16-.323.376-.324.667 0 .288.155.503.317.663.16.16.354.287.571.412.434.25.973.48 1.503.71.53.228 1.05.456 1.412.664.18.104.32.205.392.275.022.023.026.03.034.041-.034.049-.125.203-.329.372-.275.229-.682.489-1.116.736a37 37 0 0 1-1.29.688c-.396.205-.713.363-.933.516l.514.738c.104-.071.438-.25.832-.454s.864-.447 1.32-.707c.458-.26.898-.534 1.248-.825s.68-.589.673-1.087c-.01-.286-.16-.5-.322-.66a2.8 2.8 0 0 0-.573-.414c-.436-.251-.977-.481-1.507-.71s-1.05-.457-1.409-.664a2 2 0 0 1-.388-.273l-.019-.02c.007-.01.007-.01.02-.024a2.2 2.2 0 0 1 .4-.277c.37-.21.903-.436 1.446-.667.542-.23 1.092-.462 1.536-.713.222-.125.418-.253.582-.413.165-.16.324-.377.324-.67 0-.524-.367-.818-.755-1.113s-.878-.575-1.386-.84c-.508-.264-1.032-.512-1.472-.72s-.81-.39-.934-.47zm-2.429.087v.734h.675v-.734zm0 1.348v.734h.675v-.734zm0 1.348v.734h.675V5.02zm0 1.348v.734h.675v-.734zm0 1.348v.734h.675v-.734zm0 1.347v.735h.675v-.735zm0 1.348v.734h.675v-.734zm0 1.348v.734h.675v-.734zm0 1.348v.734h.675v-.734zm0 1.348v.734h.675v-.734z" class="ColorScheme-Text" style="fill:currentColor"/>
</svg>
