<svg xmlns="http://www.w3.org/2000/svg" width="16" height="16">
<path fill="#dedede" d="M5.027 2.047c-1.556.049-2.777.314-3.521.654a4.6 4.6 0 0 0-.912.543 3 3 0 0 0-.366.342A1 1 0 0 0 0 4.223V13c0 .874 1.042 1.328 1.682.732 0 0-.044.031.043-.021a3 3 0 0 1 .527-.238c.546-.192 1.518-.414 3.092-.414 1.242 0 2.176.21 3.19.445 1.012.234 2.107.496 3.491.496 2.364 0 3.74-1.578 3.74-1.578a1 1 0 0 0 .235-.645V3a1 1 0 0 0-1.65-.76s-.725.668-2.358.668c-1.474 0-2.255-.197-3.152-.424-.837-.21-1.858-.42-3.26-.45-.18.005-.386.005-.553.013M5.344 3c2.947 0 3.508.908 6.648.908C13.937 3.908 15 3 15 3v8.777S13.97 13 12.025 13c-2.519 0-3.967-.941-6.681-.941C2.009 12.059 1 13 1 13V4.223S2.009 3 5.344 3" color="#000" style="font-feature-settings:normal;font-variant-alternates:normal;font-variant-caps:normal;font-variant-ligatures:normal;font-variant-numeric:normal;font-variant-position:normal;isolation:auto;mix-blend-mode:normal;shape-padding:0;text-decoration-color:#000;text-decoration-line:none;text-decoration-style:solid;text-indent:0;text-orientation:mixed;text-transform:none;white-space:normal"/>
<path fill="#dedede" d="M7.578 5.054c1.325 0 2.369 1.078 2.369 2.432S8.903 9.948 7.578 9.948s-2.4-1.109-2.4-2.462 1.075-2.432 2.4-2.432m-4.55.967.965 1.028-.935-.03.935.997-.966-.031.966 1.028-.997-.031.031-.997h-.031l.031-.967h-.031zm4.55 0c-.792 0-1.465.656-1.465 1.465S6.786 8.95 7.578 8.95s1.434-.656 1.434-1.465S8.37 6.02 7.578 6.02m4.364 0v.997l.031.966h-.031l.031.998-.997.031.966-1.029-.966.032.935-.998-.935.031zM4.025 8.98l.966 1.03-.998-.032zm6.92 0 .03.998-.997.031zm-5.923.998.966 1.029-.997-.031zm4.925 0 .031.998-.997.031z"/>
</svg>
