<?xml version='1.0' encoding='ASCII'?>
<svg xmlns="http://www.w3.org/2000/svg" width="16" height="16">
<defs><style id="current-color-scheme" type="text/css">.ColorScheme-Text{color:#fcfcfc; fill:currentColor;}</style></defs><path d="M8 0a8 8 0 0 0-8 8 8 8 0 0 0 8 8 8 8 0 0 0 8-8 8 8 0 0 0-8-8m0 1a7 7 0 0 1 7 7 7 7 0 0 1-7 7 7 7 0 0 1-7-7 7 7 0 0 1 7-7" class="ColorScheme-Text" style="fill:currentColor" fill="currentColor"/>
<path fill="currentColor" d="M6 4h1v8H6zm3 0h1v8H9z" class="ColorScheme-Text" style="fill:currentColor"/>
<path fill="currentColor" d="M4 6h8v1H4zm0 3h8v1H4z" class="ColorScheme-Text" style="fill:currentColor"/>
</svg>
