<svg xmlns="http://www.w3.org/2000/svg" width="16" height="16">
<style id="current-color-scheme" type="text/css">
.ColorScheme-Text{color:#dedede}
</style>
<path d="M1.962 3.281h-.004l-.002-.003-.026-.01h-.012l-.009.006-.005.003a.03.03 0 0 0-.006.015v.002l-.002.01v.008c.003 1.202 0 3.586 0 3.586v.017c.004 1.2 0 3.585 0 3.585v.016c.003 1.199 0 3.586 0 3.586l.002.023.002.007.002.007v.002l.002.005q.004.008.01.013l.004.005.002.002.018.012.014.007q.006.002.013.002h.009c.009.003.016 0 .016 0 1.287.003 3.85 0 3.85 0 .012.003.029 0 .029 0 1.287.003 3.852 0 3.852 0 .013.004.03 0 .03 0 1.286.004 3.85 0 3.85 0 .007.003.015 0 .015 0h.009l.02-.007.007-.002.007-.005.007-.005.011-.016.007-.01q.005-.01.007-.02l.003-.013v-.01c.007-.685.085-1.35.223-2.102a30 30 0 0 1 .248-1.205c.103-.466.236-1.077.327-1.677.086-.572.113-1.06.113-1.06a3 3 0 0 1-.186.062 14 14 0 0 1-.217 1.633c-.099.526-.19.94-.19.94a18 18 0 0 0-1.854-.349c-.615-.079-1.103-.097-1.103-.097.006.055.008.155.008.155a15 15 0 0 1 1.82.204c.61.106 1.1.226 1.1.226-.113.548-.261 1.248-.35 1.955-.085.67-.092 1.249-.092 1.249l-2.168-.017.012.072-.126-.073c-.48.002-1.45-.004-1.45-.004-.003-.282.002-.838.002-.838l-.152-.086c-.004.304-.004.925-.004.925l-3.727.018c-.002-.311 0-.91 0-.91-.048.03-.154.078-.154.078l.001.833c-1.239.012-3.725.005-3.725.005l.008-3.383a5.4 5.4 0 0 0 1.737.37 8 8 0 0 0 1.026-.014c.015-.041.036-.13.036-.13a7 7 0 0 1-1.737-.064 5.4 5.4 0 0 1-1.064-.312c.007-.967.007-2.943.007-2.943l-.144-.237c.052.04.145.096.145.096.003-.094 0-.3 0-.3.495.383 1.02.624 1.595.721.519.088.93.037.93.037.418-.079 1.24-.38 1.24-.38-.66.179-1.49.348-2.322.167-.78-.17-1.443-.698-1.443-.698.002-1.132-.015-3.463-.015-3.463.712.538 1.424.592 2.228.333.727-.234 1.298-.59 1.298-.59.146.949.257 1.884.323 2.796.06.824.067 1.4.067 1.4.055-.02.157-.066.157-.066a28 28 0 0 0-.167-2.447c-.1-.906-.237-1.76-.237-1.76.313-.168.72-.393 1.113-.587.376-.185.682-.307.682-.307.012-.073.024-.231.024-.231.04.064.107.18.107.18a6 6 0 0 1 1.07-.296c.361-.064.657-.073.657-.073.263 1.01.46 2.017.574 3.025.104.909.112 1.56.112 1.56.371.035 1.111.17 1.111.17a8.6 8.6 0 0 1 2.034.399c.687.217 1.24.472 1.24.472.003.153-.012.435-.012.435.061.037.175.098.175.098.013-.167.016-.524.016-.524v-.016a9.6 9.6 0 0 0-.311-2.445c-.227-.892-.575-1.718-.575-1.718l-.004-.009-.01-.02-.002-.003-.007-.01-.022-.035-.02-.024-.004-.005-.003-.004-.01-.011-.01-.01-.028-.025-.003-.002-.014-.011c.002.004-.01-.007-.01-.007-.802-.516-1.706-1.03-2.66-1.306-.87-.253-1.534-.216-1.534-.216 0 .005-.016 0-.016 0-.773.02-1.525.22-2.398.635-.777.37-1.363.727-1.363.727-.002.006-.015.008-.015.008-.622.349-1.449.805-2.229.816a2 2 0 0 1-.978-.235c-.257-.133-.417-.27-.417-.27l-.006-.006-.009-.007m12.643 4.733c.003.018-.002.04-.002.04.019 0 .047-.015.047-.015zm-.176-.098a15 15 0 0 0-2.047-.948 10 10 0 0 0-1.215-.358c-.312-.017-.938-.005-.938-.005.017.751-.012 1.497-.078 2.319-.059.734-.123 1.31-.123 1.31.343-.007 1.024.008 1.024.008-.002-.082-.014-.254-.014-.254a15 15 0 0 1 2.102-1.325 10 10 0 0 1 1.277-.546zm-4.373-1.475a55 55 0 0 0-1.409-2.519c-.525-.894-1.004-1.697-1.004-1.697-.04.02-.131.05-.131.05a18 18 0 0 1-.697 3.4c-.31 1.003-.615 1.667-.615 1.667l-.08.034c.004.015.001.037.001.037 1.39-.407 2.464-.86 3.935-.972m-4.092 1c-.042.021-.135.055-.135.055a2 2 0 0 0 .135-.037zm-1.377.434a3.46 3.46 0 0 1-1.558-.03c-.527-.138-.966-.429-.966-.429.003.053 0 .142 0 .142.582.934 1.174 1.624 1.83 2.21.579.52 1.038.832 1.038.832-.023.095-.077.276-.077.276a21 21 0 0 0 1.022-.116c.031-.523.07-1.207.087-1.9.016-.66.004-1.246.004-1.246a7 7 0 0 1-1.38.26zm.231 3.131c-.147.538-.317 1.154-.48 1.838-.151.628-.258 1.17-.258 1.17.566-.26 1.692-.817 1.692-.817.014-.828.096-2.306.096-2.306q-.525.076-1.05.115m1.107 2.113c.605-.304 1.86-.983 1.86-.983.624.277 1.872.95 1.872.95.028-.952.195-2.693.195-2.693-.767.032-1.494.116-2.405.255-.794.122-1.424.221-1.424.221a51 51 0 0 0-.098 2.25m3.884.052c.48.274 1.447.842 1.447.842.041.004.114 0 .114 0a25 25 0 0 1-.236-2.295c-.047-.738-.074-1.32-.074-1.32-.348-.014-1.047-.01-1.047-.01-.091.904-.18 1.809-.204 2.784zm-.28-11.32c.743-.003 1.552.159 2.511.591.865.39 1.56.854 1.56.854.352.886.604 1.768.736 2.655.119.8.106 1.375.106 1.375-.81-.361-1.7-.677-2.664-.821-.875-.131-1.554-.075-1.554-.075-.04-1.323-.227-2.802-.695-4.579m-3.404 5.72c.014.668.001 1.325-.032 2.035-.029.636-.062 1.13-.062 1.13.633-.093 1.583-.267 2.384-.369.802-.103 1.452-.128 1.452-.128.062-.61.14-1.406.176-2.204.035-.759.018-1.419.018-1.419-1.471.112-2.543.557-3.936.954" class="ColorScheme-Text" style="fill:currentColor"/>
</svg>
