<svg xmlns="http://www.w3.org/2000/svg" width="16" height="16">
<style id="current-color-scheme" type="text/css">
.ColorScheme-Contrast{color:#dedede}
</style>
<path d="M1 13h14v1H1z" class="ColorScheme-Contrast" style="opacity:1;fill:#dedede;stroke-linecap:round;stroke-linejoin:round;stop-color:#000"/>
<path d="m5.879 3.172-.707.707L7.293 6 5.172 8.121l.707.707L8 6.707l2.121 2.121.707-.707L8.707 6l2.121-2.121-.707-.707L8 5.293Z" style="fill:#dedede;stroke-width:2;stroke-linecap:square;paint-order:stroke fill markers;stop-color:#000"/>
<path d="M8 0a6 6 0 0 0-6 6 6 6 0 0 0 6 6 6 6 0 0 0 6-6 6 6 0 0 0-6-6m0 1a5 5 0 0 1 5 5 5 5 0 0 1-5 5 5 5 0 0 1-5-5 5 5 0 0 1 5-5" style="opacity:1;fill:#dedede;stroke-width:1.2;stroke-linecap:round;stroke-linejoin:round;stop-color:#000"/>
</svg>
