<?xml version='1.0' encoding='ASCII'?>
<svg xmlns="http://www.w3.org/2000/svg" width="16" height="16">
<defs><style id="current-color-scheme" type="text/css">.ColorScheme-Text{color:#fcfcfc; fill:currentColor;}</style></defs><g fill="currentColor" class="ColorScheme-Text" style="fill:currentColor">
<path d="m14.5 9.79-4.707 4.707.707.707 4.707-4.707zm0 3-1.707 1.707.707.707 1.707-1.707z" class="ColorScheme-Text" fill="currentColor" style="fill:currentColor"/>
<path fill-rule="evenodd" d="M544.5 492c-1.108 0-2 .892-2 2v11c0 1.108.892 2 2 2h7v-1h-7c-.554 0-1-.446-1-1v-11c0-.554.446-1 1-1h11c.554 0 1 .446 1 1v7h1v-7c0-1.108-.892-2-2-2z" style="paint-order:stroke fill markers;fill:currentColor" transform="translate(-542.5 -492)" class="ColorScheme-Text" fill="currentColor"/>
<path fill-rule="evenodd" d="M544.5 494v11h4v-7h7v-4zm1 1h9v2h-7v7h-2z" style="paint-order:stroke fill markers;fill:currentColor" transform="translate(-542.5 -492)" class="ColorScheme-Text" fill="currentColor"/>
</g>
</svg>
