<svg xmlns="http://www.w3.org/2000/svg" width="16" height="16">
<g fill="currentColor" fill-rule="evenodd" stroke-linecap="round" stroke-linejoin="round" stroke-width="2">
<style id="current-color-scheme" type="text/css">
.ColorScheme-Contrast{color:#dedede}
</style>
<path d="M544.5 492.5c-1.108 0-2 .892-2 2v11c0 1.108.892 2 2 2h11c1.108 0 2-.892 2-2v-11c0-1.108-.892-2-2-2zm0 1h11c.554 0 1 .446 1 1v11c0 .554-.446 1-1 1h-11c-.554 0-1-.446-1-1v-11c0-.554.446-1 1-1" class="ColorScheme-Contrast" style="paint-order:stroke fill markers" transform="translate(-542.5 -492.5)"/>
<path d="M544.5 494.5v11h5v-11zm1 1h3v9h-3zm5-1v11h5v-11zm1 1h3v9h-3z" style="paint-order:stroke fill markers" transform="translate(-542.5 -492.5)"/>
</g>
</svg>
