<?xml version='1.0' encoding='ASCII'?>
<svg xmlns="http://www.w3.org/2000/svg" viewBox="0 0 16 16">
<defs><style id="current-color-scheme" type="text/css">.ColorScheme-Contrast{color:#dedede; fill:currentColor;}</style></defs><path d="M8 2a6 6 0 1 0 0 12A6 6 0 0 0 8 2m0 1a5 5 0 1 1-.001 10.001A5 5 0 0 1 8 3m0 2a3 3 0 1 0 0 6 3 3 0 0 0 2.396-1.201l-.799-.6a2 2 0 1 1 .002-2.398l.797-.6A3 3 0 0 0 8 5" class="ColorScheme-Contrast" style="fill-opacity:1;stroke:none;fill:currentColor" fill="currentColor"/>
</svg>
