<svg xmlns="http://www.w3.org/2000/svg" width="16" height="16">
<style id="current-color-scheme" type="text/css">
.ColorScheme-Contrast{color:#dedede}
</style>
<path d="M7 3v1H4C2.338 4 1 5.338 1 7s1.338 3 3 3h5.295L7.318 8.023a.499.499 0 1 1 .707-.707l2.828 2.828a.5.5 0 0 1 .11.541v.002a.5.5 0 0 1-.11.165l-2.828 2.83a.499.499 0 1 1-.707-.707L9.291 11H4c-2.216 0-4-1.784-4-4s1.784-4 4-4z" class="ColorScheme-Contrast" style="fill:currentColor"/>
<circle cx="-13.5" cy="10.5" r="1.5" fill="currentColor" transform="scale(-1 1)"/>
</svg>
