<svg xmlns="http://www.w3.org/2000/svg" width="16" height="16">
<style id="current-color-scheme" type="text/css">
.ColorScheme-Contrast{color:#dedede}
</style>
<path d="M9 3v1h3c1.662 0 3 1.338 3 3s-1.338 3-3 3H6.705l1.977-1.977a.499.499 0 1 0-.707-.707l-2.828 2.828a.5.5 0 0 0-.11.541v.002a.5.5 0 0 0 .11.165l2.828 2.83a.499.499 0 1 0 .707-.707L6.709 11H12c2.216 0 4-1.784 4-4s-1.784-4-4-4z" class="ColorScheme-Contrast" style="fill:currentColor"/>
<circle cx="2.5" cy="10.5" r="1.5" fill="currentColor"/>
</svg>
