<svg xmlns="http://www.w3.org/2000/svg" width="16" height="16">
<path fill="#dedede" d="M2.498 3.053c-.831 0-1.5.669-1.5 1.5v7c0 .83.669 1.5 1.5 1.5H7v-1H2.498a.5.5 0 0 1-.5-.5V4.566L7 8.416V7.4c0-.084.02-.148.03-.222L2.972 4.053H13.02L10.494 6h1.64l1.864-1.436V6h1V4.553c0-.831-.669-1.5-1.5-1.5z" color="#000" overflow="visible" style="isolation:auto;mix-blend-mode:normal;marker:none"/>
<path fill="#f57900" d="M9 15.007c-1 0-1-1-1-1v-6c0-1 1-1 1-1h6s1 0 1 1v6s0 1-1 1zm2-1h2v-4h-2zm0-5h2v-1h-2z" class="warning" color="#dedede" overflow="visible" style="marker:none"/>
</svg>
