<?xml version='1.0' encoding='ASCII'?>
<svg xmlns="http://www.w3.org/2000/svg" width="16.002" height="16">
<defs><style id="current-color-scheme" type="text/css">.ColorScheme-Text{color:#fcfcfc; fill:currentColor;}</style></defs><path fill="currentColor" d="M3.5 4.052c-.83 0-1.5.669-1.5 1.5v7c0 .831.67 1.5 1.5 1.5h11c.831 0 1.5-.669 1.5-1.5v-7c0-.831-.669-1.5-1.5-1.5zm.475 1h10.049L9 8.923zM15 5.564v6.988c0 .277-.223.5-.5.5h-11a.5.5 0 0 1-.5-.5V5.566l5.692 4.382c.015.013.034.016.05.026a.6.6 0 0 0 .17.064q.044.008.088.006.045.002.088-.006a.5.5 0 0 0 .115-.037q.029-.012.055-.027c.017-.01.035-.013.05-.026zM0 2.052v1h1v-1zm2 0v1h1v-1zm2 0v1h1v-1zm2 0v1h1v-1zm2 0v1h1v-1zm2 0v1h1v-1zm2 0v1h1v-1zm-12 2v1h1v-1zm0 2v1h1v-1zm0 2v1h1v-1zm0 2v.5c0 .177.036.343.092.5H1v-1z" color="#fcfcfc" overflow="visible" style="isolation:auto;mix-blend-mode:normal;marker:none;fill:currentColor" class="ColorScheme-Text"/>
</svg>
