<?xml version='1.0' encoding='ASCII'?>
<svg xmlns="http://www.w3.org/2000/svg" width="16" height="16">
<defs><style id="current-color-scheme" type="text/css">.ColorScheme-Contrast{color:#dedede; fill:currentColor;}</style></defs><path d="M7.36 1.037q-.12 0-.249.033-.125.031-.2.069v.224h.009a1 1 0 0 1 .217-.103.7.7 0 0 1 .217-.037q.066 0 .119.011t.097.04a.2.2 0 0 1 .094.171.23.23 0 0 1-.098.2.45.45 0 0 1-.26.068h-.074v.178h.096q.08 0 .149.011a.3.3 0 0 1 .117.045.2.2 0 0 1 .074.09.3.3 0 0 1 .027.14.4.4 0 0 1-.023.145.3.3 0 0 1-.197.17.5.5 0 0 1-.143.022.9.9 0 0 1-.453-.139h-.016V2.6a1.2 1.2 0 0 0 .473.1.8.8 0 0 0 .238-.036.5.5 0 0 0 .19-.111.47.47 0 0 0 .15-.36.4.4 0 0 0-.033-.18.36.36 0 0 0-.197-.183.5.5 0 0 0-.118-.035v-.016a.4.4 0 0 0 .221-.125.33.33 0 0 0 .094-.232.35.35 0 0 0-.04-.17.35.35 0 0 0-.116-.123.5.5 0 0 0-.16-.07 1 1 0 0 0-.206-.022m.937.033v1.596h.197V1.291l.442.936h.125l.443-.936v1.375h.213V1.07h-.295l-.412.889-.424-.889zm-5.334.694v.218l2.89.016.002-.22zm7.773 0v.218l2.89.016v-.22zM.646 3.488l.344.36.05.052 9.884 10.332.568.522h.562L1.712 3.943l12.715-.008.014-.416-13.225-.031zm4.225 1.188-.154.156L6.78 6.857l.154-.158zm2.982 2.232-.162.158.008.008a1 1 0 0 1 .23.084q.106.057.174.127.103.105.11.211a.24.24 0 0 1-.08.195.46.46 0 0 1-.235.125 2 2 0 0 1-.424.02 4 4 0 0 1-.285-.016l-.295-.023-.16.156.76.77.129-.13-.602-.61.3.025a5 5 0 0 0 .519.013q.085-.005.162-.021a.6.6 0 0 0 .29-.16.4.4 0 0 0 .132-.324.57.57 0 0 0-.186-.358 1 1 0 0 0-.195-.154 1 1 0 0 0-.19-.096m1.03.951L7.746 8.98l.139.14.978-.965-.357.97.09.09.976-.34-.978.966.148.15 1.137-1.119-.207-.21-.922.331.334-.928zm1.224 2.256-.154.156 2.064 2.026.155-.158z" class="ColorScheme-Contrast" style="fill:currentColor" fill="currentColor"/>
</svg>
