<svg xmlns="http://www.w3.org/2000/svg" width="16" height="16">
<style id="current-color-scheme" type="text/css">
.ColorScheme-Contrast{color:#dedede}
</style>
<path d="M2.5 3A2.495 2.495 0 0 0 0 5.5v5C0 11.885 1.115 13 2.5 13h7.063c1.384 0 2.48-1.115 2.5-2.5V8.125L16 5h-4a2.486 2.486 0 0 0-2.437-2zm-.176 1h7.352C10.409 4 11 4.591 11 5.324v5.352C11 11.409 10.41 12 9.676 12H2.324A1.32 1.32 0 0 1 1 10.676V5.324C1 4.591 1.591 4 2.324 4" class="ColorScheme-Contrast" style="fill:currentColor"/>
<rect width="8" height="1" x="2" y="8" fill="currentColor" ry=".5"/>
<rect width="5" height="1" x="2" y="10" fill="currentColor" ry=".5"/>
</svg>
