<?xml version='1.0' encoding='ASCII'?>
<svg xmlns="http://www.w3.org/2000/svg" width="16" height="16">
<defs><style id="current-color-scheme" type="text/css">.ColorScheme-Text{color:#fcfcfc; fill:currentColor;}</style></defs><g fill="currentColor" class="ColorScheme-Text" style="fill:currentColor">
<style id="current-color-scheme" type="text/css" class="ColorScheme-Text" fill="currentColor" style="fill:currentColor">
.ColorScheme-Text{color:#fcfcfc}
</style>
<path d="M2.5 1c-.277 0-.5.223-.5.5v6.555A2.5 2.5 0 0 1 2.5 8a2.5 2.5 0 0 1 .5.05V1.5c0-.277-.223-.5-.5-.5M3 12.945a2.5 2.5 0 0 1-.5.055 2.5 2.5 0 0 1-.5-.051v1.55a.499.499 0 1 0 1 0zM7.5 1c-.277 0-.5.223-.5.5v1.555A2.5 2.5 0 0 1 7.5 3a2.5 2.5 0 0 1 .5.05V1.5c0-.277-.223-.5-.5-.5M8 7.945A2.5 2.5 0 0 1 7.5 8a2.5 2.5 0 0 1-.5-.05v6.55a.499.499 0 1 0 1 0zM12.5 1c-.277 0-.5.223-.5.5v6.555A2.5 2.5 0 0 1 12.5 8a2.5 2.5 0 0 1 .5.05V1.5c0-.277-.223-.5-.5-.5m.5 11.945a2.5 2.5 0 0 1-.5.055 2.5 2.5 0 0 1-.5-.051v1.55a.499.499 0 1 0 1 0z" class="ColorScheme-Text" style="fill:currentColor" fill="currentColor"/>
<circle cx="2.5" cy="10.5" r="1.5" class="ColorScheme-Text" fill="currentColor" style="fill:currentColor"/>
<circle cx="7.5" cy="5.5" r="1.5" class="ColorScheme-Text" fill="currentColor" style="fill:currentColor"/>
<circle cx="12.5" cy="10.5" r="1.5" class="ColorScheme-Text" fill="currentColor" style="fill:currentColor"/>
</g>
</svg>
