<?xml version='1.0' encoding='ASCII'?>
<svg xmlns="http://www.w3.org/2000/svg" viewBox="0 0 16 16">
<defs><style id="current-color-scheme" type="text/css">.ColorScheme-Text{color:#fcfcfc; fill:currentColor;}</style></defs><path d="M3 2a1 1 0 0 0-1 1 1 1 0 0 0 1 1 1 1 0 0 0 1-1 1 1 0 0 0-1-1m2 0v1h8V2zm0 2v1h6V4zm7 3v1H7c-1.108 0-2 .892-2 2h1c0-.554.446-1 1-1h5v1l2-1.5zM3 8a1 1 0 0 0-1 1 1 1 0 0 0 1 1 1 1 0 0 0 1-1 1 1 0 0 0-1-1m4 3-2 1.5L7 14v-1h5c1.108 0 2-.892 2-2h-1c0 .554-.446 1-1 1H7z" class="ColorScheme-Text" style="fill-opacity:1;stroke:none;fill:currentColor" fill="currentColor"/>
</svg>
