<svg xmlns="http://www.w3.org/2000/svg" id="svg3699" width="16" height="16" version="1.1">
<defs id="defs4339">
<style id="current-color-scheme" type="text/css">
.ColorScheme-Text{color:#dedede}
</style>
</defs>
<g id="layer1" transform="translate(0 -1036.4)">
<path id="rect4369" d="M8.316 2.9c-.618-.01-1.247.396-1.81 1.1H2v1h3.87c-.425.813-.765 1.828-.976 3H2v1h2.742c-.028.273-.054.546-.07.824q.016-.147.035-.293c.048-.176.107-.354.158-.531h4.28a2 2 0 0 0 1.328 1.322A2 2 0 0 0 12.961 9H14V8h-.996a2 2 0 0 0-1.369-1.5l-.008-.002a2 2 0 0 0-.815-.068A20 20 0 0 0 10.361 5H14V4H9.902c-.178-.3-.373-.562-.617-.742l-.082-.059a1.63 1.63 0 0 0-.887-.299m-.209.739q.139-.016.28.006c.233.035.476.166.724.355H7.318c.253-.2.515-.332.79-.361M6.471 5h3.527c.261.388.527.847.801 1.43a2 2 0 0 0-1.66 1.402A2 2 0 0 0 9.098 8H5.164c.369-1.128.805-2.197 1.307-3m4.586 2.457a1 1 0 0 1 .255.035l.026.008a.98.98 0 0 1 .652 1.217.98.98 0 0 1-1.213.66.98.98 0 0 1-.668-1.209.98.98 0 0 1 .948-.711m-5.96 2.957a2 2 0 0 0-1.958 1.418 2 2 0 0 0-.041.168H2v1h1.144a2 2 0 0 0 1.327 1.322A2 2 0 0 0 6.96 13H14v-1H7.004a2 2 0 0 0-1.37-1.5l-.007-.002a2 2 0 0 0-.53-.084m-.04 1.043a1 1 0 0 1 .255.035l.026.008a.98.98 0 0 1 .652 1.217.98.98 0 0 1-1.213.66.98.98 0 0 1-.668-1.209.98.98 0 0 1 .948-.711" class="ColorScheme-Text" style="fill:currentColor" transform="translate(0 1036.4)"/>
</g>
</svg>
