<svg xmlns="http://www.w3.org/2000/svg" id="svg3699" width="16" height="16" version="1.1">
<defs id="defs4339">
<style id="current-color-scheme" type="text/css">
.ColorScheme-Text{color:#dedede}
</style>
</defs>
<g id="layer1" transform="translate(0 -1036.4)">
<path id="path4303" d="M5 2v7h1V4h7v5h1V2zM2.086 9.3l-.707.708 1.414 1.414-1.414 1.414.707.707L3.5 12.129l1.414 1.414.707-.707-1.414-1.414 1.414-1.414-.707-.707L3.5 10.715zm8 0-.707.708 1.414 1.414-1.414 1.414.707.707 1.414-1.414 1.414 1.414.707-.707-1.414-1.414 1.414-1.414-.707-.707-1.414 1.414z" class="ColorScheme-Text" style="fill:currentColor" transform="translate(0 1036.4)"/>
</g>
</svg>
