<?xml version='1.0' encoding='ASCII'?>
<svg xmlns="http://www.w3.org/2000/svg" id="svg4337" width="16" height="16" version="1.1">
<defs><style id="current-color-scheme" type="text/css">.ColorScheme-Contrast{color:#dedede; fill:currentColor;}</style></defs><g id="layer1" class="ColorScheme-Contrast" fill="currentColor" style="fill:currentColor">
<path id="rect4179" d="M9.013 2.009v.777a2 2 0 0 0-.365-.154L8.64 2.63a2 2 0 0 0-2.5 1.379H2.013v1h4.111A2 2 0 0 0 7.792 6.52a2 2 0 0 0-1.664 1.49H2.013v1h4.121a2 2 0 0 0 1.657 1.464 2 2 0 0 0-1.674 1.535H2.013v1h4.133a1.998 1.998 0 0 0 3.83.024l.006-.024h4.031v-1h-4v-3h4v-1h-4v-3h4v-1h-4v-2zM8.07 3.56a1 1 0 0 1 .256.037l.025.006a.98.98 0 1 1-.281-.043m.943 2.737v.441a2 2 0 0 0-.365-.154l-.008-.002a2 2 0 0 0-.3-.065c.235-.033.464-.107.673-.22M8.07 7.516a1 1 0 0 1 .256.036l.025.007a.98.98 0 1 1-.281-.043m.943 2.737v.441a2 2 0 0 0-.365-.154l-.008-.002q-.148-.044-.303-.064c.237-.033.466-.108.676-.22zm-.943 1.219a1 1 0 0 1 .256.035l.025.006a.98.98 0 1 1-.281-.042z" class="ColorScheme-Contrast" style="fill:currentColor" fill="currentColor"/>
</g>
</svg>
