<?xml version='1.0' encoding='ASCII'?>
<svg xmlns="http://www.w3.org/2000/svg" width="16" height="16">
<defs><style id="current-color-scheme" type="text/css">.ColorScheme-Text{color:#fcfcfc; fill:currentColor;}</style></defs><path d="M8 1a3 3 0 0 0-3 3 3 3 0 0 0 3 3 3 3 0 0 0 3-3 3 3 0 0 0-3-3m0 1a2 2 0 0 1 2 2 2 2 0 0 1-2 2 2 2 0 0 1-2-2 2 2 0 0 1 2-2M6 8c-2.216 0-4 1.784-4 4v2h7v-1H3v-1c0-1.662 1.338-3 3-3h4c.771 0 1.47.292 2 .768V8.533A4 4 0 0 0 10 8z" class="ColorScheme-Text" style="fill:currentColor" fill="currentColor"/>
<path fill="currentColor" d="M13 8v3.27a2 2 0 0 0-1-.27 2 2 0 0 0-2 2 2 2 0 0 0 2 2 2 2 0 0 0 2-2V9h2V8zm-1 4a1 1 0 0 1 1 1 1 1 0 0 1-1 1 1 1 0 0 1-1-1 1 1 0 0 1 1-1" class="ColorScheme-Text" style="fill:currentColor"/>
</svg>
