<svg xmlns="http://www.w3.org/2000/svg" width="16" height="16" version="1.0">
<style id="current-color-scheme" type="text/css">
.ColorScheme-Contrast{color:#dedede}
</style>
<path d="M2 2v6c0 1.108.892 2 2 2h8.293l-3.389 3.389a.499.499 0 1 0 .707.707l4.243-4.242.033-.038v-.002a.5.5 0 0 0 .111-.265v-.002a.5.5 0 0 0 0-.094v-.002a.5.5 0 0 0-.111-.265v-.002l-.033-.037L9.61 4.904a.499.499 0 1 0-.707.707l3.389 3.39H4c-.554 0-1-.447-1-1V2z" class="ColorScheme-Contrast" style="paint-order:stroke fill markers" transform="matrix(-1 0 0 1 16 0)"/>
</svg>
