<svg xmlns="http://www.w3.org/2000/svg" width="16.01" height="16">
<g fill="#dedede">
<path d="M684 100a2 2 0 0 0-1.344.531l.711.711A1 1 0 0 1 684 101a1 1 0 0 1 1 1 1 1 0 0 1-.242.633l.71.71A2 2 0 0 0 686 102a2 2 0 0 0-2-2m9 0a2 2 0 0 0-2 2 2 2 0 0 0 2 2 2 2 0 0 0 2-2 2 2 0 0 0-2-2m-5 1v4.875l1 1V101zm5 0a1 1 0 0 1 1 1 1 1 0 0 1-1 1 1 1 0 0 1-1-1 1 1 0 0 1 1-1m-10.895.395A2 2 0 0 0 682 102a2 2 0 0 0 2 2 2 2 0 0 0 .605-.105l-.967-.967a1 1 0 0 1-.566-.567zM684 104h-2c-.554 0-1 .446-1 1v6c0 .554.446 1 1 1v2c0 .554.446 1 1 1h2c.554 0 1-.446 1-1v-2c.554 0 1-.446 1-1v-4.71l-1-1V111h-4v-6h3.71l-1-1zm2.138.014.848.847a.99.99 0 0 0-.848-.847M692 105a1 1 0 0 0-.986.836l-.435 2.615.869.87L692 106h2l1 6h-.874l.993.992a1 1 0 0 0 .867-1.156l-1-6A1 1 0 0 0 694 105zm-4 2.29V115h1v-6.713zm2.375 2.374-.36 2.172A1 1 0 0 0 691 113v1c0 .554.446 1 1 1h2a.996.996 0 0 0 .964-.748l-.965-.965V114h-2v-1h1.713l-1-1H691l.244-1.467zM683 112h2v2h-2z" style="paint-order:stroke fill markers" transform="translate(-680 -100)"/>
<path d="M552.86-410.63h20v1h-20z" style="paint-order:stroke fill markers" transform="rotate(45 -219.29 -870.833)"/>
</g>
</svg>
