<?xml version='1.0' encoding='ASCII'?>
<svg xmlns="http://www.w3.org/2000/svg" width="16" height="16">
<defs><style id="current-color-scheme" type="text/css">.ColorScheme-Contrast{color:#dedede; fill:currentColor;}</style></defs><path fill="currentColor" d="M6-.012a2 2 0 0 0-1.986 1.89l2.096 2.1A2 2 0 0 0 8 1.989a2 2 0 0 0-2-2m0 1a1 1 0 1 1 0 2 1 1 0 0 1 0-2m-.832 3.46 1.861 5.208a.5.5 0 0 0 .471.332h3.209l-1-1H7.852l-.713-2h.57zm2.955 1.54 1 1H11.5a.499.499 0 1 0 0-1zm3 3 2.162 2.162-.828-1.865A.5.5 0 0 0 12 8.988z" style="paint-order:stroke fill markers;fill:currentColor" class="ColorScheme-Contrast"/>
<path fill="currentColor" d="M3.68 5.787A5.5 5.5 0 0 0 1 10.488a5.5 5.5 0 0 0 5.5 5.5 5.5 5.5 0 0 0 4.697-2.683l-.732-.733A4.5 4.5 0 0 1 6.5 14.988a4.5 4.5 0 0 1-4.5-4.5 4.5 4.5 0 0 1 2.42-3.96zm7.281 5.201a5 5 0 0 1-.107.559l.753.754-.582-1.313z" opacity=".35" style="paint-order:stroke fill markers;fill:currentColor" class="ColorScheme-Contrast"/>
<path fill="currentColor" d="M1.322-.51h20v1h-20z" style="paint-order:stroke fill markers;fill:currentColor" transform="rotate(45)" class="ColorScheme-Contrast"/>
</svg>
