<?xml version='1.0' encoding='ASCII'?>
<svg xmlns="http://www.w3.org/2000/svg" width="16" height="16">
<defs><style id="current-color-scheme" type="text/css">.ColorScheme-Text{color:#fcfcfc; fill:currentColor;}</style></defs><path d="M7 16c-.554 0-1-.446-1-1v-3c0-.554.446-1 1-1h2c.554 0 1 .446 1 1v3c0 .554-.446 1-1 1zm0-1h2v-3H7Z" class="ColorScheme-Text" style="stroke-linecap:round;stroke-linejoin:round;stop-fill:currentColor" fill="currentColor"/>
<path d="M0 14v-1h7v1zm9 0v-1h7v1z" style="stroke-linecap:round;stroke-linejoin:round;stop-fill:currentColor" class="ColorScheme-Text" fill="currentColor"/>
<path d="M-8.497 4h.994v4.994h-.994z" style="stroke-linecap:round;stroke-linejoin:round;stop-fill:currentColor" transform="scale(-1 1)" class="ColorScheme-Text" fill="currentColor"/>
<path d="M-12.724.41h4v1h-4z" style="stroke-linecap:round;stroke-linejoin:round;stop-fill:currentColor" transform="scale(-1 1)rotate(-45)" class="ColorScheme-Text" fill="currentColor"/>
<path d="M-1.41 11.724h4v1h-4z" style="stroke-linecap:round;stroke-linejoin:round;stop-fill:currentColor" transform="rotate(-45)" class="ColorScheme-Text" fill="currentColor"/>
<path d="M3 4c-.554 0-1-.446-1-1V1c0-.554.446-1 1-1h2c.554 0 1 .446 1 1v2c0 .554-.446 1-1 1Zm0-1h2V1H3Zm8 1c-.554 0-1-.446-1-1V1c0-.554.446-1 1-1h2c.554 0 1 .446 1 1v2c0 .554-.446 1-1 1zm0-1h2V1h-2z" style="stroke-linecap:round;stroke-linejoin:round;stop-fill:currentColor" class="ColorScheme-Text" fill="currentColor"/>
<path d="M0-3h2v1H0zm14 0h2v1h-2z" style="stroke-linecap:round;stroke-linejoin:round;stop-fill:currentColor" transform="scale(1 -1)" class="ColorScheme-Text" fill="currentColor"/>
</svg>
