<svg xmlns="http://www.w3.org/2000/svg" width="16.016" height="16">
<path fill="none" d="M.016 0v16h16V0z" color="#000"/>
<path fill="#dedede" d="M.37.018a.5.5 0 0 0-.304.234.5.5 0 0 0 .186.682s.777.439 1.6 1.554c.822 1.116 1.656 2.876 1.656 5.52s-.834 4.4-1.656 5.511S.254 15.064.254 15.064a.5.5 0 0 0-.19.682.5.5 0 0 0 .682.19s.978-.563 1.91-1.823 1.852-3.249 1.852-6.105-.92-4.85-1.852-6.114C1.725.631.748.066.748.066A.5.5 0 0 0 .369.017z" color="#000" style="-inkscape-stroke:none"/>
<path fill="#3daee9" fill-rule="evenodd" d="M1.532 5.508v5.006h4.976V5.508z" color="#000" opacity=".35" style="-inkscape-stroke:none"/>
<path fill="#3daee9" fill-rule="evenodd" d="M1.031 5.508a.5.5 0 0 1 .5-.5h4.977a.5.5 0 0 1 .5.5v5.006a.5.5 0 0 1-.5.5H1.53a.5.5 0 0 1-.5-.5zm1 .5v4.006h3.977V6.008z" color="#000" style="-inkscape-stroke:none"/>
<path fill="#dedede" fill-rule="evenodd" d="M8.016 7v2h3v3h2V9h3V7h-3V4h-2v3z"/>
</svg>
