<?xml version='1.0' encoding='ASCII'?>
<svg xmlns="http://www.w3.org/2000/svg" width="16" height="16">
<defs><style id="current-color-scheme" type="text/css">.ColorScheme-Text{color:#fcfcfc; fill:currentColor;}</style></defs><g fill="currentColor" class="ColorScheme-Text" style="fill:currentColor">
<path d="m2.091 1.307 3.304 3.307q-1.098.409-2.306.764-1.2.347-2.375.612.275-1.164.621-2.366.356-1.207.756-2.316z" overflow="visible" style="marker:none;fill:currentColor" class="ColorScheme-Text" fill="currentColor"/>
<path d="m3.244 11.656.072.084-.75.66-.091-.103-.04-.05-.48-.72.832-.554zm1.11 1.108.34.226-.555.832-.367-.244-.051-.039-.422-.37.658-.751zm1.353.779.676.23-.322.948-.717-.246-.06-.024-.218-.11.442-.896zm2.326.459-.066.996-.801-.053.066-.998z" font-family="sans-serif" font-weight="400" overflow="visible" style="line-height:normal;font-variant-ligatures:normal;font-variant-position:normal;font-variant-caps:normal;font-variant-numeric:normal;font-variant-alternates:normal;font-feature-settings:normal;text-indent:0;text-align:start;text-decoration-line:none;text-decoration-style:solid;text-decoration-text-transform:none;text-orientation:mixed;shape-padding:0;isolation:auto;mix-blend-mode:normal;fill:currentColor" class="ColorScheme-Text" fill="currentColor"/>
<path d="M8 6a2 2 0 0 0-2 2 2 2 0 0 0 2 2 2 2 0 0 0 2-2 2 2 0 0 0-2-2m0 1a1 1 0 0 1 1 1 1 1 0 0 1-1 1 1 1 0 0 1-1-1 1 1 0 0 1 1-1" class="ColorScheme-Text" fill="currentColor" style="fill:currentColor"/>
<path d="M8.426 1.014c.791.047 1.586.23 2.347.558a7.005 7.005 0 0 1 4.083 7.844A7.005 7.005 0 0 1 8 15h-.5v-1H8c2.85 0 5.3-1.997 5.877-4.787a5.995 5.995 0 0 0-3.5-6.723 5.995 5.995 0 0 0-7.291 2.07l-.287.41-.82-.574.287-.41a7 7 0 0 1 6.16-2.971z" font-family="sans-serif" font-weight="400" overflow="visible" style="line-height:normal;font-variant-ligatures:normal;font-variant-position:normal;font-variant-caps:normal;font-variant-numeric:normal;font-variant-alternates:normal;font-feature-settings:normal;text-indent:0;text-align:start;text-decoration-line:none;text-decoration-style:solid;text-decoration-text-transform:none;text-orientation:mixed;shape-padding:0;isolation:auto;mix-blend-mode:normal;fill:currentColor" class="ColorScheme-Text" fill="currentColor"/>
</g>
</svg>
