<?xml version='1.0' encoding='ASCII'?>
<svg xmlns="http://www.w3.org/2000/svg" width="16" height="16">
<defs><style id="current-color-scheme" type="text/css">.ColorScheme-Contrast{color:#dedede; fill:currentColor;}</style></defs><g fill="currentColor" class="ColorScheme-Contrast" style="fill:currentColor">
<style id="current-color-scheme" type="text/css" class="ColorScheme-Contrast" fill="currentColor" style="fill:currentColor">
.ColorScheme-Contrast{color:#dedede}
</style>
<path d="M3 1h10v1H3zm0 13h10v1H3z" class="ColorScheme-Contrast" opacity=".25" style="paint-order:normal;fill:currentColor" fill="currentColor"/>
<path d="M3-15h10v1H3zM3-2h10v1H3z" opacity=".25" style="paint-order:normal;fill:currentColor" transform="rotate(90)" class="ColorScheme-Contrast" fill="currentColor"/>
<path d="M.5 0C.223 0 0 .223 0 .5v2c0 .277.223.5.5.5h2c.277 0 .5-.223.5-.5v-2c0-.277-.223-.5-.5-.5zm.75 1h.5a.25.25 0 0 1 .25.25v.5a.25.25 0 0 1-.25.25h-.5A.25.25 0 0 1 1 1.75v-.5A.25.25 0 0 1 1.25 1M13.5 0c-.277 0-.5.223-.5.5v2c0 .277.223.5.5.5h2c.277 0 .5-.223.5-.5v-2c0-.277-.223-.5-.5-.5zm.75 1h.5a.25.25 0 0 1 .25.25v.5a.25.25 0 0 1-.25.25h-.5a.25.25 0 0 1-.25-.25v-.5a.25.25 0 0 1 .25-.25M.5 13c-.277 0-.5.223-.5.5v2c0 .277.223.5.5.5h2c.277 0 .5-.223.5-.5v-2c0-.277-.223-.5-.5-.5zm.75 1h.5a.25.25 0 0 1 .25.25v.5a.25.25 0 0 1-.25.25h-.5a.25.25 0 0 1-.25-.25v-.5a.25.25 0 0 1 .25-.25m12.25-1c-.277 0-.5.223-.5.5v2c0 .277.223.5.5.5h2c.277 0 .5-.223.5-.5v-2c0-.277-.223-.5-.5-.5zm.75 1h.5a.25.25 0 0 1 .25.25v.5a.25.25 0 0 1-.25.25h-.5a.25.25 0 0 1-.25-.25v-.5a.25.25 0 0 1 .25-.25M10.117 2.002A4 4 0 0 0 6 6a4 4 0 0 0 .013.287A4 4 0 0 1 6 6H3.5c-.277 0-.5.223-.5.5v6c0 .277.223.5.5.5h6c.277 0 .5-.223.5-.5V9.996A4 4 0 0 0 14 6a4 4 0 0 0-3.883-3.998m-.031 1A3 3 0 0 1 13 6a3 3 0 0 1-6 0 3 3 0 0 1 3.086-2.998M6.04 6.545l.017.115zM4.25 7h1.88A4 4 0 0 0 9 9.87v1.88a.25.25 0 0 1-.25.25h-4.5a.25.25 0 0 1-.25-.25v-4.5A.25.25 0 0 1 4.25 7" style="paint-order:normal;fill:currentColor" class="ColorScheme-Contrast" fill="currentColor"/>
<path d="M13 6a3 3 0 1 1-6 0 3 3 0 1 1 6 0" opacity=".25" style="font-variant-east_asian:normal;paint-order:normal;fill:currentColor" class="ColorScheme-Contrast" fill="currentColor"/>
</g>
</svg>
