<?xml version='1.0' encoding='ASCII'?>
<svg xmlns="http://www.w3.org/2000/svg" width="16" height="16">
<defs><style id="current-color-scheme" type="text/css">.ColorScheme-Text{color:#fcfcfc; fill:currentColor;}</style></defs><g fill="currentColor" class="ColorScheme-Text" style="fill:currentColor">
<g transform="translate(8.988 8.987)scale(.4375)" class="ColorScheme-Text" fill="currentColor" style="fill:currentColor">
<g id="edit-cut" fill="currentColor" class="ColorScheme-Text" style="fill:currentColor">
<path d="M3.36-.011C2.322.46 1.983 1.487 2.582 2.304l4.33 6.2-1.711 2.017 1.385 1.776 1.576-2.116 1.546 2.116 1.373-1.701-1.667-2.091 4.329-6.201c.6-.817.26-1.843-.778-2.315L8.162 6.802z" class="ColorScheme-Text" fill="currentColor" style="fill:currentColor"/>
<path d="M12.5 8.989a3.5 3.5 0 1 0 0 7 3.5 3.5 0 0 0 0-7m0 2a1.5 1.5 0 1 1 0 3 1.5 1.5 0 0 1 0-3m-9-2a3.5 3.5 0 1 0 0 7 3.5 3.5 0 0 0 0-7m0 2a1.5 1.5 0 1 1 0 3 1.5 1.5 0 0 1 0-3" class="ColorScheme-Text" fill="currentColor" style="fill:currentColor"/>
</g>
</g>
<path stroke-width=".778" d="M.78 10.55h2.342v1.55l-1.561-.775zm3.122 0h2.342l-.78.775-1.561.775zm-2.341 2.325h3.903c-1.932 3.48-3.903 0-3.903 0" class="ColorScheme-Text" fill="currentColor" style="fill:currentColor"/>
<path d="M0 9v3.754C0 14.087 1.562 15.2 3.488 16 5.464 15.2 7 14.298 7 12.803V9zm1 1h5v2.803c0 .405-.158.687-.646 1.084-.404.327-1.112.656-1.85.978-.715-.329-1.407-.681-1.828-1.045C1.17 13.384 1 13.03 1 12.754z" style="-inkscape-stroke:none;fill:currentColor" class="ColorScheme-Text" fill="currentColor"/>
</g>
</svg>
