<?xml version='1.0' encoding='ASCII'?>
<svg xmlns="http://www.w3.org/2000/svg" width="16" height="16">
<defs><style id="current-color-scheme" type="text/css">.ColorScheme-Text{color:#fcfcfc; fill:currentColor;}</style></defs><path fill="currentColor" d="M0 0h16v16H0z" class="ColorScheme-Text" style="fill:currentColor"/>
<path fill="currentColor" d="M1.5 1.5h3v3h-3z" opacity=".35" style="-inkscape-stroke:none;fill:currentColor" class="ColorScheme-Text"/>
<path fill="currentColor" d="M1 1v4h4V1zm1 1h2v2H2z" style="-inkscape-stroke:none;fill:currentColor" class="ColorScheme-Text"/>
<path fill="currentColor" d="M6.5 1.5h3v3h-3z" opacity=".35" style="-inkscape-stroke:none;fill:currentColor" class="ColorScheme-Text"/>
<path fill="currentColor" d="M6 1v4h4V1zm1 1h2v2H7z" style="-inkscape-stroke:none;fill:currentColor" class="ColorScheme-Text"/>
<path fill="currentColor" d="M11.5 1.5h3v3h-3z" opacity=".35" style="-inkscape-stroke:none;fill:currentColor" class="ColorScheme-Text"/>
<path fill="currentColor" d="M11 1v4h4V1zm1 1h2v2h-2z" style="-inkscape-stroke:none;fill:currentColor" class="ColorScheme-Text"/>
<path fill="currentColor" d="M1.5 6.5h3v3h-3z" opacity=".35" style="-inkscape-stroke:none;fill:currentColor" class="ColorScheme-Text"/>
<path fill="currentColor" d="M1 6v4h4V6zm1 1h2v2H2z" style="-inkscape-stroke:none;fill:currentColor" class="ColorScheme-Text"/>
<path fill="currentColor" d="M6.5 6.5h3v3h-3z" opacity=".35" style="-inkscape-stroke:none;fill:currentColor" class="ColorScheme-Text"/>
<path fill="currentColor" d="M6 6v4h4V6zm1 1h2v2H7z" style="-inkscape-stroke:none;fill:currentColor" class="ColorScheme-Text"/>
<path fill="currentColor" d="M11.5 6.5h3v3h-3z" opacity=".35" style="-inkscape-stroke:none;fill:currentColor" class="ColorScheme-Text"/>
<path fill="currentColor" d="M11 6v4h4V6zm1 1h2v2h-2z" style="-inkscape-stroke:none;fill:currentColor" class="ColorScheme-Text"/>
<path fill="currentColor" d="M1.5 11.5h3v3h-3z" opacity=".35" style="-inkscape-stroke:none;fill:currentColor" class="ColorScheme-Text"/>
<path fill="currentColor" d="M1 11v4h4v-4zm1 1h2v2H2z" style="-inkscape-stroke:none;fill:currentColor" class="ColorScheme-Text"/>
<path fill="currentColor" d="M6.5 11.5h3v3h-3z" opacity=".35" style="-inkscape-stroke:none;fill:currentColor" class="ColorScheme-Text"/>
<path fill="currentColor" d="M6 11v4h4v-4zm1 1h2v2H7z" style="-inkscape-stroke:none;fill:currentColor" class="ColorScheme-Text"/>
<path fill="currentColor" d="M11.5 11.5h3v3h-3z" opacity=".35" style="-inkscape-stroke:none;fill:currentColor" class="ColorScheme-Text"/>
<path fill="currentColor" d="M11 11v4h4v-4zm1 1h2v2h-2z" style="-inkscape-stroke:none;fill:currentColor" class="ColorScheme-Text"/>
</svg>
