<?xml version='1.0' encoding='ASCII'?>
<svg xmlns="http://www.w3.org/2000/svg" width="16" height="16">
<defs><style id="current-color-scheme" type="text/css">.ColorScheme-Text{color:#fcfcfc; fill:currentColor;}</style></defs><path fill="currentColor" d="M1.5 1.5h5v5h-5z" opacity=".35" style="-inkscape-stroke:none;fill:currentColor" class="ColorScheme-Text"/>
<path fill="currentColor" d="M1 1v6h6V1zm1 1h4v4H2z" style="-inkscape-stroke:none;fill:currentColor" class="ColorScheme-Text"/>
<path fill="currentColor" d="M9.5 1.5h5v5h-5z" opacity=".35" style="-inkscape-stroke:none;fill:currentColor" class="ColorScheme-Text"/>
<path fill="currentColor" d="M9 1v6h6V1zm1 1h4v4h-4z" style="-inkscape-stroke:none;fill:currentColor" class="ColorScheme-Text"/>
<path fill="currentColor" d="M1.5 9.5h5v5h-5z" opacity=".35" style="-inkscape-stroke:none;fill:currentColor" class="ColorScheme-Text"/>
<path fill="currentColor" d="M1 9v6h6V9zm1 1h4v4H2z" style="-inkscape-stroke:none;fill:currentColor" class="ColorScheme-Text"/>
<path fill="currentColor" d="M9.5 9.5h5v5h-5z" opacity=".35" style="-inkscape-stroke:none;fill:currentColor" class="ColorScheme-Text"/>
<path fill="currentColor" d="M9 9v6h6V9zm1 1h4v4h-4z" style="-inkscape-stroke:none;fill:currentColor" class="ColorScheme-Text"/>
</svg>
