<svg xmlns="http://www.w3.org/2000/svg" viewBox="0 0 16 16">
<defs id="defs3051">
<style id="current-color-scheme" type="text/css">
.ColorScheme-Text{color:#dedede}
</style>
</defs>
<path d="M2 2v12h12V2z" class="ColorScheme-Text" style="fill:currentColor;fill-opacity:1;stroke:none"/>
<path d="M4 2 2 4l2 2 2-2zm2 2 2 2 2-2-2-2zm4 0 2 2 2-2-2-2zm2 2-2 2 2 2 2-2zm0 4-2 2 2 2 2-2zm-2 2-2-2-2 2 2 2zm-4 0-2-2-2 2 2 2zm-2-2 2-2-2-2-2 2zm2-2 2 2 2-2-2-2z" style="fill:#fff;fill-opacity:1;stroke:none"/>
</svg>
