<?xml version='1.0' encoding='ASCII'?>
<svg xmlns="http://www.w3.org/2000/svg" width="16" height="16">
<defs><style id="current-color-scheme" type="text/css">.ColorScheme-Text{color:#fcfcfc; fill:currentColor;}</style></defs><path d="M6.557.514a6.01 6.01 0 0 0-6.018 6.02A6 6 0 0 0 3.9 11.93V4.338h8.256a6.01 6.01 0 0 0-5.6-3.824Z" class="ColorScheme-Text" style="opacity:.35;fill:currentColor" transform="translate(-34.95)" fill="currentColor"/>
<path d="M3.9 4.338V15.99h3.78V8.117H16v-3.78Z" style="opacity:.65;fill:currentColor" transform="translate(-34.95)" class="ColorScheme-Text" fill="currentColor"/>
<path d="M7.68 15.993V8.117H16V16Z" style="opacity:1;fill:currentColor" transform="translate(-34.95)" class="ColorScheme-Text" fill="currentColor"/>
<path d="M7 7v9h9V7Z" style="opacity:.65;stroke-width:1.28571;stroke-linecap:round;stroke-linejoin:round;stop-fill:currentColor" class="ColorScheme-Text" fill="currentColor"/>
<path d="M5 5v11h2V7h9V5z" style="opacity:.35;stroke-linecap:round;stroke-linejoin:round;stop-fill:currentColor" class="ColorScheme-Text" fill="currentColor"/>
<path d="M6 0a6 6 0 0 0-6 6 6 6 0 0 0 5 5.908v-1.023A5 5 0 0 1 1 6a5 5 0 0 1 9.896-1h1.018A6 6 0 0 0 6 0" style="stroke-linecap:round;stroke-linejoin:round;stop-fill:currentColor" class="ColorScheme-Text" fill="currentColor"/>
<path d="M6 1a5 5 0 0 0-5 5 5 5 0 0 0 4 4.887V5h5.898A5 5 0 0 0 6 1" style="opacity:.15;stroke-linecap:round;stroke-linejoin:round;stop-fill:currentColor" class="ColorScheme-Text" fill="currentColor"/>
<path d="M4 4v12h1V5h11V4H5Z" style="stroke-linecap:round;stroke-linejoin:round;stop-fill:currentColor" class="ColorScheme-Text" fill="currentColor"/>
<path d="M6 8h1v1H6zm0 2h1v1H6zm0 2h1v1H6zm0 2h1v1H6zm0-8h1v1H6zm2 0h1v1H8zm2 0h1v1h-1zm2 0h1v1h-1zm2 0h1v1h-1z" style="stroke-linecap:round;stroke-linejoin:round;stop-fill:currentColor" class="ColorScheme-Text" fill="currentColor"/>
</svg>
