<?xml version='1.0' encoding='ASCII'?>
<svg xmlns="http://www.w3.org/2000/svg" viewBox="0 0 16 16">
<defs><style id="current-color-scheme" type="text/css">.ColorScheme-Contrast{color:#dedede; fill:currentColor;}</style></defs><path d="M2 2v12h12V2z" class="ColorScheme-Contrast" style="fill-opacity:1;stroke:none;fill:currentColor" fill="currentColor"/>
<path d="M4 2 2 4l2 2 2-2zm2 2 2 2 2-2-2-2zm4 0 2 2 2-2-2-2zm2 2-2 2 2 2 2-2zm0 4-2 2 2 2 2-2zm-2 2-2-2-2 2 2 2zm-4 0-2-2-2 2 2 2zm-2-2 2-2-2-2-2 2zm2-2 2 2 2-2-2-2z" style="fill-opacity:1;stroke:none;fill:currentColor" class="ColorScheme-Contrast" fill="currentColor"/>
</svg>
