<?xml version='1.0' encoding='ASCII'?>
<svg xmlns="http://www.w3.org/2000/svg" width="16" height="16">
<defs><style id="current-color-scheme" type="text/css">.ColorScheme-Text{color:#fcfcfc; fill:currentColor;}</style></defs><g fill="currentColor" class="ColorScheme-Text" style="fill:currentColor">
<path d="M-78-63h12v1h-12z" style="isolation:auto;mix-blend-mode:normal;paint-order:normal;fill:currentColor" transform="matrix(1 0 0 -1 80 -57.011)" class="ColorScheme-Text" fill="currentColor"/>
<path d="M3 14.989c-1.108 0-2-.891-2-2v-10c0-1.107.892-2 2-2h10c1.108 0 2 .893 2 2v10c0 1.109-.892 2-2 2zm0-1h10c.554 0 1-.445 1-1v-10c0-.553-.446-1-1-1H3c-.554 0-1 .447-1 1v10c0 .555.446 1 1 1" class="ColorScheme-Text" fill="currentColor" style="fill:currentColor"/>
</g>
</svg>
