<?xml version='1.0' encoding='ASCII'?>
<svg xmlns="http://www.w3.org/2000/svg" width="16" height="16">
<defs><style id="current-color-scheme" type="text/css">.ColorScheme-Text{color:#fcfcfc; fill:currentColor;}</style></defs><path d="M4 1c-1.108 0-2 .892-2 2v10c0 1.108.892 2 2 2h8c1.108 0 2-.892 2-2V3c0-1.108-.892-2-2-2zm0 1h8c.554 0 1 .446 1 1v10c0 .554-.446 1-1 1H4c-.554 0-1-.446-1-1V3c0-.554.446-1 1-1" class="ColorScheme-Text" style="fill:currentColor" fill="currentColor"/>
<path class="ColorScheme-Text" style="fill:currentColor" d="m6.758 3.758-.707.707L9.586 8l-3.535 3.535.707.707L11 8l-.707-.707z" fill="currentColor"/>
</svg>
