<svg xmlns="http://www.w3.org/2000/svg" width="16" height="16">
<style id="current-color-scheme" type="text/css">
.ColorScheme-Contrast{color:#dedede}
</style>
<path d="M170 675.167a2.81 2.81 0 0 1-2.805-2.805 2.81 2.81 0 0 1 2.805-2.805 2.81 2.81 0 0 1 2.805 2.805 2.81 2.81 0 0 1-2.805 2.805m0-6.805c-2.212 0-4 1.788-4 4s1.788 4 4 4 4-1.788 4-4-1.788-4-4-4" class="ColorScheme-Contrast" style="opacity:1;fill:#dedede;fill-opacity:1;stroke:none;stroke-width:1.19471;fill-rule:nonzero" transform="translate(-165 -667.362)"/>
<path d="M176 681.167a2.81 2.81 0 0 1-2.805-2.805 2.81 2.81 0 0 1 2.805-2.805 2.81 2.81 0 0 1 2.805 2.805 2.81 2.81 0 0 1-2.805 2.805m0-6.805c-2.212 0-4 1.788-4 4s1.788 4 4 4 4-1.788 4-4-1.788-4-4-4" style="opacity:1;fill:#dedede;fill-opacity:1;stroke:none;stroke-width:1.19471;fill-rule:nonzero" transform="translate(-165 -667.362)"/>
</svg>
