<?xml version='1.0' encoding='ASCII'?>
<svg xmlns="http://www.w3.org/2000/svg" width="16" height="16">
<defs><style id="current-color-scheme" type="text/css">.ColorScheme-Contrast{color:#dedede; fill:currentColor;}</style></defs><path fill="currentColor" d="M10.99 2c-.554 0-1 .446-1 1v3c0 .554.446 1 1 1h.71a6.97 6.97 0 0 1-4.71 4.71V11c0-.554-.446-1-1-1h-3c-.554 0-1 .446-1 1v1.5a2.5 2.5 0 0 0 2.5 2.5h.5c5.505 0 10-4.495 10-10v-.5a2.5 2.5 0 0 0-2.5-2.5zm0 1h1.5c.84 0 1.5.66 1.5 1.5V5c0 4.96-4.04 9-9 9h-.5c-.84 0-1.5-.66-1.5-1.5V11h3v2.049l1.283-.38a7.97 7.97 0 0 0 5.387-5.386L13.039 6H10.99z" class="ColorScheme-Contrast" style="fill:currentColor"/>
</svg>
