<svg xmlns="http://www.w3.org/2000/svg" width="16" height="16">
<g fill="currentColor">
<style id="current-color-scheme" type="text/css">
.ColorScheme-Text{color:#dedede}
</style>
<path d="M3 1c-1.108 0-2 .892-2 2v10c0 1.108.892 2 2 2h10c1.108 0 2-.892 2-2V3c0-1.108-.892-2-2-2zm5.059 1.227 2.023 3.324 3.717 1.15-2.535 2.951.052 3.891-3.591-1.496-3.682 1.25.316-3.877-2.33-3.115 3.785-.899z" class="ColorScheme-Text" style="fill:currentColor"/>
<path d="M15 11a4 4 0 0 0-4-4 4 4 0 0 0-4 4 4 4 0 0 0 4 4 4 4 0 0 0 4-4" opacity=".3"/>
</g>
</svg>
