<?xml version='1.0' encoding='ASCII'?>
<svg xmlns="http://www.w3.org/2000/svg" width="16" height="16">
<defs><style id="current-color-scheme" type="text/css">.ColorScheme-Text{color:#fcfcfc; fill:currentColor;}</style></defs><g id="preview-mode-symbolic_svg__layercompo" class="ColorScheme-Text" fill="currentColor" style="fill:currentColor">
<path d="M3 1v5.768l.951-1.563L5.04 6.848l.188-1.912 1.693 1.01-.662-1.807 1.965.176-1.38-1.34 1.846-.696-1.824-.607.64-.672zm7.257 7.843A4.237 4.127 0 0 0 6.02 12.97 4.237 4.127 0 0 0 6.578 15H13V9.826a4.237 4.127 0 0 0-2.743-.983" class="ColorScheme-Text" opacity=".3" style="fill:currentColor" fill="currentColor"/>
<path fill="currentColor" fill-rule="evenodd" stroke-linecap="round" stroke-linejoin="round" stroke-width="2" d="M2 0v16h12V5.414l.01.01V4.01L14 4l-4-4zm1 1h6.586L13 4.414V15H3z" style="paint-order:stroke fill markers;fill:currentColor" class="ColorScheme-Text"/>
</g>
</svg>
