<svg xmlns="http://www.w3.org/2000/svg" width="16" height="16">
<style id="current-color-scheme" type="text/css">
.ColorScheme-Contrast{color:#dedede}
</style>
<path d="M8 1C4.14 1 1 4.14 1 8s3.14 7 7 7 7-3.14 7-7-3.14-7-7-7M5.494 4.994a.5.5 0 0 1 .36.152L8 7.293l2.146-2.147a.5.5 0 0 1 .344-.15.5.5 0 0 1 .364.858L8.707 8l2.147 2.146a.5.5 0 1 1-.708.708L8 8.707l-2.146 2.147a.5.5 0 0 1-.708-.708L7.293 8 5.146 5.854a.5.5 0 0 1 .348-.86" class="ColorScheme-Contrast" style="line-height:normal;font-variant-ligatures:normal;font-variant-position:normal;font-variant-caps:normal;font-variant-numeric:normal;font-variant-alternates:normal;font-feature-settings:normal;text-indent:0;text-align:start;text-decoration:none;text-decoration-line:none;text-decoration-style:solid;text-decoration-color:#000;text-transform:none;text-orientation:mixed;shape-padding:0;opacity:1;isolation:auto;mix-blend-mode:normal;font-variation-settings:normal;vector-effect:none;fill:#dedede;fill-opacity:1;stroke-width:1;stroke-linecap:butt;stroke-linejoin:miter;stroke-miterlimit:4;stroke-dasharray:none;stroke-dashoffset:0;stroke-opacity:1"/>
</svg>
