<svg xmlns="http://www.w3.org/2000/svg" width="16" height="16">
<style id="current-color-scheme" type="text/css">
.ColorScheme-Contrast{color:#dedede}
</style>
<path d="M4.44 2.377a5 5 0 0 0-.383.004c-.833.043-1.54.322-2.002.904-.728.915-.583 2.25.062 3.611a1.5 1.5 0 0 0-.156.211 1.5 1.5 0 0 1 .85-.625c-.54-1.179-.573-2.144-.131-2.699.344-.433.992-.649 1.863-.6q.435.026.941.141c.984.226 2.116.719 3.252 1.44l-.029.103a1.5 1.5 0 0 1 .607-.803l-.093.057C8.003 3.34 6.777 2.798 5.664 2.543a6.4 6.4 0 0 0-1.225-.166zm5.693 1.434a1.5 1.5 0 0 0-.358.046 1.5 1.5 0 0 1 .358-.046m-.475.085a1.5 1.5 0 0 0-.219.092 1.5 1.5 0 0 1 .22-.092zm1.016.016.111.05zm.137.063.082.045zm.123.068.076.053zm.127.09.048.04zm.209.201.04.049zm.078.1.052.076zm.076.117.045.082zm.056.107.051.112zm-2.802.307a1.5 1.5 0 0 0-.045.346 1.5 1.5 0 0 1 .045-.346m2.955.346a1.5 1.5 0 0 1-.047.355 1.5 1.5 0 0 0 .047-.355m-.08.459a1.5 1.5 0 0 1-.608.79l.053-.025c1.034.99 1.824 2.037 2.29 2.992.605 1.245.642 2.261.183 2.838-.357.449-1.045.656-1.965.584l.004.094a1.5 1.5 0 0 1-.188.715l.022-.03c1.15.112 2.158-.118 2.754-.867.74-.93.585-2.296-.09-3.683-.525-1.079-1.388-2.21-2.502-3.264a2 2 0 0 0 .047-.144m-7.807.761.111.051-.11-.05zm.137.063.082.045zm.123.068.076.053zm6.67.033a2 2 0 0 1-.117.05 2 2 0 0 0 .117-.05m-6.543.057.049.041zm.209.201.04.049zm.078.1.053.076zm.076.117.045.082zm-2.592.016a1.5 1.5 0 0 0-.113.271 1.5 1.5 0 0 1 .113-.271m2.649.091.05.112zm-2.797.27a1.5 1.5 0 0 0-.05.383 1.5 1.5 0 0 1 .05-.383m2.95.383a1.5 1.5 0 0 1-.052.384 1.5 1.5 0 0 0 .051-.384zm-.056.4a1.5 1.5 0 0 1-.144.344 1.5 1.5 0 0 0 .144-.344m-.15.356a1.5 1.5 0 0 1-.836.664l.106-.032a14.4 14.4 0 0 0 4.748 3.575 2 2 0 0 0-.008.15 1.5 1.5 0 0 1 .363-.961l-.064.063a13.6 13.6 0 0 1-2.655-1.655 14 14 0 0 1-1.748-1.662 2 2 0 0 0 .094-.142m-.959.699a1.5 1.5 0 0 1-.336.045 1.5 1.5 0 0 0 .336-.045m6.045 2.222a2 2 0 0 0-.135.057 2 2 0 0 1 .135-.057m-.39.186a2 2 0 0 0-.128.098 2 2 0 0 1 .127-.098zm2.005 2.14a2 2 0 0 1-.115.151 2 2 0 0 0 .115-.15zm-.305.305a2 2 0 0 1-.119.09 2 2 0 0 0 .12-.09zm-.412.219-.074.03z" class="ColorScheme-Contrast" style="opacity:1;fill:#dedede;fill-opacity:1"/>
<path d="M3.205 6.43a1.5 1.5 0 0 0-1.5 1.5 1.5 1.5 0 0 0 1.5 1.5 1.5 1.5 0 0 0 1.5-1.5 1.5 1.5 0 0 0-1.5-1.5m0 1a.5.5 0 0 1 .5.5.5.5 0 0 1-.5.5.5.5 0 0 1-.5-.5.5.5 0 0 1 .5-.5m6.928-3.62a1.5 1.5 0 0 0-1.5 1.5 1.5 1.5 0 0 0 1.5 1.5 1.5 1.5 0 0 0 1.5-1.5 1.5 1.5 0 0 0-1.5-1.5m0 1a.5.5 0 0 1 .5.5.5.5 0 0 1-.5.5.5.5 0 0 1-.5-.5.5.5 0 0 1 .5-.5m-.123 6.733a1.5 1.5 0 0 0-1.5 1.5 1.5 1.5 0 0 0 1.5 1.5 1.5 1.5 0 0 0 1.5-1.5 1.5 1.5 0 0 0-1.5-1.5m0 1a.5.5 0 0 1 .5.5.5.5 0 0 1-.5.5.5.5 0 0 1-.5-.5.5.5 0 0 1 .5-.5" style="fill:#dedede;stroke-width:1.01787;stroke-linecap:round;stroke-linejoin:round;stop-color:#000"/>
</svg>
