<svg width="16" height="16">
<style id="current-color-scheme" type="text/css">
.ColorScheme-Contrast{color:#dedede}
</style>
<path d="M4.297 1c-1.11 0-2 .89-2 2H5v4.5a.499.499 0 1 0 1 0V3h6.02a1.98 1.98 0 0 0-1.723-1c-.414 0-.801.125-1.121.34a1.982 1.982 0 0 0-3.38-.652A2 2 0 0 0 4.297 1M2 4v7c0 1.662 1.338 3 3 3h4c1.31 0 2.42-.833 2.83-2H12c1.662 0 3-1.338 3-3V7c0-1.662-1.338-3-3-3h-1v7c0 1.108-.892 2-2 2H5c-1.108 0-2-.892-2-2V4zm10 1c1.108 0 2 .892 2 2v2c0 1.108-.892 2-2 2zM1 15v1h14v-1z" class="ColorScheme-Contrast" style="fill:currentColor"/>
</svg>
