<?xml version='1.0' encoding='ASCII'?>
<svg xmlns="http://www.w3.org/2000/svg" width="16" height="16">
<defs><style id="current-color-scheme" type="text/css">.ColorScheme-Contrast{color:#dedede; fill:currentColor;}</style></defs><path d="M6 2C3.784 2 2 3.784 2 6v4c0 2.216 1.784 4 4 4h4c2.216 0 4-1.784 4-4V6c0-2.216-1.784-4-4-4zm0 1h4c1.662 0 3 1.338 3 3v4c0 1.662-1.338 3-3 3H6c-1.662 0-3-1.338-3-3V6c0-1.662 1.338-3 3-3" class="ColorScheme-Contrast" style="fill:currentColor" fill="currentColor"/>
<path fill="currentColor" fill-rule="evenodd" d="M1.5 0C.669 0 0 .669 0 1.5S.669 3 1.5 3 3 2.331 3 1.5 2.331 0 1.5 0m-.025 1H1.5a.499.499 0 1 1 0 1 .5.5 0 0 1-.025-1M14.5 0c-.831 0-1.5.669-1.5 1.5S13.669 3 14.5 3 16 2.331 16 1.5 15.331 0 14.5 0m-.025 1h.025a.499.499 0 1 1 0 1 .5.5 0 0 1-.025-1M1.5 13c-.831 0-1.5.669-1.5 1.5S.669 16 1.5 16 3 15.331 3 14.5 2.331 13 1.5 13m-.025 1H1.5a.499.499 0 1 1 0 1 .5.5 0 0 1-.025-1M14.5 13c-.831 0-1.5.669-1.5 1.5s.669 1.5 1.5 1.5 1.5-.669 1.5-1.5-.669-1.5-1.5-1.5m-.025 1h.025a.499.499 0 1 1 0 1 .5.5 0 0 1-.025-1" style="paint-order:stroke fill markers;fill:currentColor" class="ColorScheme-Contrast"/>
</svg>
