<?xml version='1.0' encoding='ASCII'?>
<svg xmlns="http://www.w3.org/2000/svg" width="16" height="16">
<defs><style id="current-color-scheme" type="text/css">.ColorScheme-Contrast{color:#dedede; fill:currentColor;}</style></defs><path d="m12.48 2.623-.64.77A6 6 0 0 1 14 8a6 6 0 0 1-6 6 6 6 0 0 1-6-6 6 6 0 0 1 2.17-4.596l-.647-.775A7 7 0 0 0 1 8a7 7 0 0 0 7 7 7 7 0 0 0 7-7 7 7 0 0 0-2.52-5.377" class="ColorScheme-Contrast" style="stroke-linecap:round;stroke-linejoin:round;stop-fill:currentColor" fill="currentColor"/>
<path d="M7.5 0h1v7h-1z" style="stroke-linecap:round;stroke-linejoin:round;stop-fill:currentColor" class="ColorScheme-Contrast" fill="currentColor"/>
</svg>
