<svg xmlns="http://www.w3.org/2000/svg" width="16" height="16">
<path fill="#dedede" d="M4.063 1.962C2.92 1.962 2 2.882 2 4.025V10.9c0 1.142.92 2.062 2.063 2.062h7.875c1.142 0 2.062-.92 2.062-2.062V4.025c0-1.143-.92-2.063-2.062-2.063zm-.063 1h8c.554 0 1 .446 1 1v3H3v-3c0-.554.446-1 1-1m-1 5h10v3c0 .554-.446 1-1 1H4c-.554 0-1-.446-1-1zm5 1a1 1 0 1 0 0 2 1 1 0 0 0 0-2m-3.635 4.996-1.152 1.14c-.475.468.228 1.18.703.712l1.871-1.852zm5.903 0 1.87 1.852c.476.468 1.179-.244.704-.713l-1.153-1.139z"/>
<path fill="#dedede" d="M5 1036.4h6v1H5z" style="paint-order:stroke fill markers" transform="translate(0 -1036.4)"/>
</svg>
