<?xml version='1.0' encoding='ASCII'?>
<svg xmlns="http://www.w3.org/2000/svg" width="16" height="16">
<defs><style id="current-color-scheme" type="text/css">.ColorScheme-Text{color:#fcfcfc; fill:currentColor;}</style></defs><path d="M2 1v8c0 2.072 1.576 3.522 2.938 4.469a14.8 14.8 0 0 0 2.687 1.469l.375.125.375-.125s1.33-.544 2.688-1.5C12.42 12.483 14 11.044 14 9V1zm1 1h10v.582l-.05.055L8 7.586 5.172 4.758l-.707.707L8 9l5-5v5c0 2.964-5 5-5 5s-5-1.95-5-5z" class="ColorScheme-Text" style="fill:currentColor" fill="currentColor"/>
</svg>
