<?xml version='1.0' encoding='ASCII'?>
<svg xmlns="http://www.w3.org/2000/svg" width="16.003" height="16">
<defs><style id="current-color-scheme" type="text/css">.ColorScheme-Contrast{color:#dedede; fill:currentColor;}</style></defs><g fill="currentColor" stroke-linecap="round" stroke-linejoin="round" class="ColorScheme-Contrast" style="fill:currentColor">
<style id="current-color-scheme" type="text/css" class="ColorScheme-Contrast" fill="currentColor" style="fill:currentColor">
.ColorScheme-Contrast{color:#dedede}
</style>
<path d="M7.945.5A7.5 7.5 0 0 0 .502 8a7.5 7.5 0 0 0 7.5 7.5 7.5 7.5 0 0 0 7.5-7.5 7.5 7.5 0 0 0-7.5-7.5zm.003 1h.054a6.5 6.5 0 0 1 6.5 6.5 6.5 6.5 0 0 1-6.5 6.5 6.5 6.5 0 0 1-6.5-6.5 6.5 6.5 0 0 1 6.446-6.5" class="ColorScheme-Contrast" style="fill:currentColor" fill="currentColor"/>
<rect width="7" height="1" x="4.502" y="6" ry=".5" class="ColorScheme-Contrast" style="fill:currentColor" fill="currentColor"/>
<rect width="4" height="1" x="8.875" y="-3.683" ry=".5" class="ColorScheme-Contrast" style="fill:currentColor" transform="rotate(45)" fill="currentColor"/>
<rect width="7" height="1" x="-11.502" y="-10" ry=".5" class="ColorScheme-Contrast" style="fill:currentColor" transform="scale(-1)" fill="currentColor"/>
<rect width="4" height="1" x="-13.755" y="-3.681" ry=".5" class="ColorScheme-Contrast" style="fill:currentColor" transform="rotate(225)" fill="currentColor"/>
</g>
</svg>
