<svg xmlns="http://www.w3.org/2000/svg" width="16.003" height="16">
<g fill="currentColor" stroke-linecap="round" stroke-linejoin="round">
<style id="current-color-scheme" type="text/css">
.ColorScheme-Contrast{color:#dedede}
</style>
<path d="M7.945.5A7.5 7.5 0 0 0 .502 8a7.5 7.5 0 0 0 7.5 7.5 7.5 7.5 0 0 0 7.5-7.5 7.5 7.5 0 0 0-7.5-7.5zm.003 1h.054a6.5 6.5 0 0 1 6.5 6.5 6.5 6.5 0 0 1-6.5 6.5 6.5 6.5 0 0 1-6.5-6.5 6.5 6.5 0 0 1 6.446-6.5" class="ColorScheme-Contrast" style="fill:currentColor"/>
<rect width="7" height="1" x="4.502" y="6" ry=".5" class="ColorScheme-Contrast" style="fill:currentColor"/>
<rect width="4" height="1" x="8.875" y="-3.683" ry=".5" class="ColorScheme-Contrast" style="fill:currentColor" transform="rotate(45)"/>
<rect width="7" height="1" x="-11.502" y="-10" ry=".5" class="ColorScheme-Contrast" style="fill:currentColor" transform="scale(-1)"/>
<rect width="4" height="1" x="-13.755" y="-3.681" ry=".5" class="ColorScheme-Contrast" style="fill:currentColor" transform="rotate(225)"/>
</g>
</svg>
