<?xml version='1.0' encoding='ASCII'?>
<svg xmlns="http://www.w3.org/2000/svg" width="16" height="16">
<defs><style id="current-color-scheme" type="text/css">.ColorScheme-Text{color:#fcfcfc; fill:currentColor;}</style></defs><g id="searching" class="ColorScheme-Text" fill="currentColor" style="fill:currentColor">
<path fill="currentColor" d="M6.915 1.414c-3.006 0-5.452 2.438-5.452 5.435s2.446 5.435 5.452 5.435c1.31 0 2.513-.463 3.455-1.234l3.547 3.536.62-.618-3.536-3.526a5.4 5.4 0 0 0 1.365-3.593c0-2.997-2.446-5.435-5.451-5.435m0 .874a4.561 4.561 0 1 1 0 9.122 4.561 4.561 0 1 1 0-9.122" class="ColorScheme-Text" style="fill:currentColor"/>
<path fill="currentColor" d="M0 0h16v16H0z" class="ColorScheme-Text" style="fill:currentColor"/>
</g>
</svg>
