<?xml version='1.0' encoding='ASCII'?>
<svg xmlns="http://www.w3.org/2000/svg" width="16" height="16">
<defs><style id="current-color-scheme" type="text/css">.ColorScheme-Contrast{color:#dedede; fill:currentColor;}</style></defs><path d="M0 9h1v1H0Zm2 0h1v1H2Zm2 0h1v1H4Zm8 0h1v1h-1zm2 0h1v1h-1zM0 15h1v1H0Zm2 0h1v1H2Zm-2-4h1v1H0Zm0 2h1v1H0Zm4 2h1v1H4Zm2 0h1v1H6Zm2 0h1v1H8Zm2 0h1v1h-1zm2 0h1v1h-1zm2 0h1v1h-1zm0-2h1v1h-1zm0-2h1v1h-1z" class="ColorScheme-Contrast" style="fill-opacity:1;fill:currentColor" fill="currentColor"/>
<path d="M7.5-11h1v7h-1z" style="stroke-width:1.87083;stroke-linecap:square;paint-order:stroke fill markers;stop-fill:currentColor" transform="scale(1 -1)" class="ColorScheme-Contrast" fill="currentColor"/>
<path d="M-1.465-8.778h5v1h-5z" style="stroke-width:2;stroke-linecap:square;paint-order:stroke fill markers;stop-fill:currentColor" transform="scale(1 -1)rotate(45)" class="ColorScheme-Contrast" fill="currentColor"/>
<path d="M-12.778 2.535h5v1h-5z" style="stroke-width:2;stroke-linecap:square;paint-order:stroke fill markers;stop-fill:currentColor" transform="rotate(-135)" class="ColorScheme-Contrast" fill="currentColor"/>
<path d="M3-2h10v1H3zm0-11h10v1H3z" style="stroke-width:1.69031;stroke-linecap:square;paint-order:stroke fill markers;stop-fill:currentColor" transform="scale(1 -1)" class="ColorScheme-Contrast" fill="currentColor"/>
</svg>
