<?xml version='1.0' encoding='ASCII'?>
<svg xmlns="http://www.w3.org/2000/svg" width="16" height="16">
<defs><style id="current-color-scheme" type="text/css">.ColorScheme-Text{color:#fcfcfc; fill:currentColor;}</style></defs><path d="M1.017 4.995h1v1h-1zm2 0h1v1h-1zm2 0h1v1h-1zm2 0h1v1h-1zm2 0h1v1h-1zm2.032 0h1v1h-1zm0 2h1v1h-1zm0 2h1v1h-1zm0 2h1v1h-1zm0 2h1v1h-1zm-2.032 0h1v1h-1zm-2 0h1v1h-1zm-2 0h1v1h-1zm-2 0h1v1h-1zm-2 0h1v1h-1zm0-2h1v1h-1zm0-2h1v1h-1zm0-2h1v1h-1z" class="ColorScheme-Text" style="fill:currentColor" fill="currentColor"/>
<path fill="currentColor" d="M7 1c-1.108 0-2 .892-2 2v1h1V3c0-.554.446-1 1-1h7c.554 0 1 .446 1 1v7c0 .554-.446 1-1 1h-1v1h1c1.108 0 2-.892 2-2V3c0-1.108-.892-2-2-2zM5 7v3c0 1.108.892 2 2 2h3v-1H7c-.554 0-1-.446-1-1V7z" class="ColorScheme-Text" style="fill:currentColor"/>
</svg>
