<?xml version='1.0' encoding='ASCII'?>
<svg xmlns="http://www.w3.org/2000/svg" width="16" height="16">
<defs><style id="current-color-scheme" type="text/css">.ColorScheme-Contrast{color:#dedede; fill:currentColor;}</style></defs><path d="M3 2c-1.108 0-2 .892-2 2v8c0 1.108.892 2 2 2h10c1.108 0 2-.892 2-2V6c0-1.108-.892-2-2-2H9c-.389-1.037-.892-2-2-2zm0 1h4c.554 0 .805.481 1 1l.16.426L6.586 6H2V4c0-.554.446-1 1-1m6 2h4c.554 0 1 .446 1 1v6c0 .554-.446 1-1 1H3c-.554 0-1-.446-1-1V7h5z" class="ColorScheme-Contrast" style="stroke-linecap:round;stroke-linejoin:round;stop-fill:currentColor" fill="currentColor"/>
</svg>
