<svg xmlns="http://www.w3.org/2000/svg" width="16" height="16">
<style id="current-color-scheme" type="text/css">
.ColorScheme-Contrast{color:#dedede}
</style>
<path d="M8 1a2 2 0 0 0-2 2 2 2 0 0 0 2 2 2 2 0 0 0 2-2 2 2 0 0 0-2-2m0 1a1 1 0 0 1 1 1 1 1 0 0 1-1 1 1 1 0 0 1-1-1 1 1 0 0 1 1-1" class="ColorScheme-Contrast" style="fill:#dedede;stroke-linecap:round;stroke-linejoin:round;stop-color:#000"/>
<path d="M7.5 4h1v10h-1z" style="fill:#dedede;stroke-width:.953463;stroke-linecap:round;stroke-linejoin:round;stop-color:#000"/>
<path d="M5 6h6v1H5zM1 8a7 7 0 0 0 7 7 7 7 0 0 0 7-7h-1a6 6 0 0 1-6 6 6 6 0 0 1-6-6z" style="fill:#dedede;stroke-linecap:round;stroke-linejoin:round;stop-color:#000"/>
<path d="M4.866 5.428h4v1h-4z" style="fill:#dedede;stroke-linecap:round;stroke-linejoin:round;stop-color:#000" transform="rotate(30)"/>
<path d="M-8.99 13.428h4v1h-4z" style="fill:#dedede;stroke-linecap:round;stroke-linejoin:round;stop-color:#000" transform="scale(-1 1)rotate(30)"/>
</svg>
