<?xml version='1.0' encoding='ASCII'?>
<svg xmlns="http://www.w3.org/2000/svg" width="16" height="16">
<defs><style id="current-color-scheme" type="text/css">.ColorScheme-Contrast{color:#dedede; fill:currentColor;}</style></defs><path d="M12.5 9A3.5 3.5 0 0 0 9 12.5a3.5 3.5 0 0 0 3.5 3.5 3.5 3.5 0 0 0 3.5-3.5A3.5 3.5 0 0 0 12.5 9m0 1a2.5 2.5 0 0 1 2.5 2.5 2.5 2.5 0 0 1-2.5 2.5 2.5 2.5 0 0 1-2.5-2.5 2.5 2.5 0 0 1 2.5-2.5M3 2h10v1H3zm4.5 1h1v9h-1z" class="ColorScheme-Contrast" style="fill-rule:evenodd;stroke:none;stroke-linecap:round;stroke-linejoin:round;stop-fill:currentColor" fill="currentColor"/>
<path d="M12 11h1v3h-1z" style="fill-rule:evenodd;stroke:none;stroke-linecap:round;stroke-linejoin:round;stop-fill:currentColor" class="ColorScheme-Contrast" fill="currentColor"/>
<path d="M11 12h3v1h-3z" style="fill-rule:evenodd;stroke:none;stroke-linecap:round;stroke-linejoin:round;stop-fill:currentColor" class="ColorScheme-Contrast" fill="currentColor"/>
</svg>
