<?xml version='1.0' encoding='ASCII'?>
<svg xmlns="http://www.w3.org/2000/svg" width="16" height="16">
<defs><style id="current-color-scheme" type="text/css">.ColorScheme-Text{color:#fcfcfc; fill:currentColor;}</style></defs><path d="M2 2C.892 2 0 2.892 0 4v8c0 1.108.892 2 2 2h12c1.108 0 2-.892 2-2V4c0-1.108-.892-2-2-2zm0 1h12c.554 0 1 .446 1 1v8c0 .554-.446 1-1 1H2c-.554 0-1-.446-1-1V4c0-.554.446-1 1-1" class="ColorScheme-Text" style="stroke-linecap:round;stroke-linejoin:round;stop-color:currentColor;fill:currentColor" fill="currentColor"/>
<path d="m7 6.021-4.43 7.446.86.512 3.57-6 3.57 6 .86-.512z" class="ColorScheme-Text" style="color:currentColor;-inkscape-stroke:none;fill-opacity:1;fill:currentColor" fill="currentColor"/>
<path d="M12 4a2 2 0 0 0-2 2 2 2 0 0 0 2 2 2 2 0 0 0 2-2 2 2 0 0 0-2-2m0 1a1 1 0 0 1 1 1 1 1 0 0 1-1 1 1 1 0 0 1-1-1 1 1 0 0 1 1-1" class="ColorScheme-Text" style="fill-opacity:1;stroke-linecap:round;stroke-linejoin:round;stop-color:currentColor;fill:currentColor" fill="currentColor"/>
</svg>
