<?xml version='1.0' encoding='ASCII'?>
<svg xmlns="http://www.w3.org/2000/svg" width="16" height="16">
<defs><style id="current-color-scheme" type="text/css">.ColorScheme-Contrast{color:#dedede; fill:currentColor;}</style></defs><path d="M3 2v1h1V2zm2 0v1h1V2zm2 0v1h1V2zm2 0v1h1V2zm2 0v1h1V2zM3 4v1h1V4zm8 0v1h1V4zM3 6v1h1V6zm8 0v1h1V6zM3 8v1h1V8zm8 0v1h1V8zm-8 2v1h1v-1zm8 0v1h1v-1zm-8 2v1h1v-1zm8 0v1h1v-1zm-8 2v1h1v-1zm2 0v1h1v-1zm2 0v1h1v-1zm2 0v1h1v-1zm2 0v1h1v-1z" class="ColorScheme-Contrast" style="fill:currentColor" fill="currentColor"/>
</svg>
