<svg xmlns="http://www.w3.org/2000/svg" width="16" height="16">
<style id="current-color-scheme" type="text/css">
.ColorScheme-Text{color:#dedede}
</style>
<path d="m7.225.865-1.158 1.16.813.813L5.732 6.24l-4.525.128 3.59 2.9-1.283 4.565 2.873-2.073.84.84.594-.594 2.229 1.61-.36.36 1.158 1.159 1.159-1.16-1.16-1.158-.134.135-.748-2.669.834-.834-.427-.427 2.259-1.823.571.572.44-.44.197.241a.535.535 0 1 0 .2-.156l-.217-.265.539-.54-1.159-1.158-.378.378-.164-.214a.537.537 0 0 0-.036-.714.536.536 0 1 0-.163.869l.183.24-.397.396-2.505-.07L8.615 5.21l-.17.17-.863-2.552.803-.803zm.002.663.497.498-.497.496-.497-.496zm.137 1.52.86 2.553-.77.77.167.165.994.995.922-.922 2.577.073.32.32-2.259 1.823-.535-.535-1.158 1.159.166.166.992.993.1-.099.749 2.667-.24.24-2.23-1.607.367-.368-1.104-1.104V3.13zm4.88 1.95a.28.28 0 0 1 .2.084.28.28 0 0 1 0 .401.28.28 0 0 1-.4 0 .28.28 0 0 1 0-.4.28.28 0 0 1 .2-.085m-3.63.876.497.497-.496.495-.497-.497zm4.588.24.497.498-.497.497-.497-.497zm1.055 1.504c.073 0 .145.028.201.084a.284.284 0 1 1-.2-.084M9.64 8.952l.498.497-.498.497-.497-.497zm-2.413 1.992.497.497-.497.497-.497-.497zm3.62 2.535.498.497-.497.497-.497-.497z" class="ColorScheme-Text" style="fill:currentColor"/>
</svg>
