<?xml version='1.0' encoding='ASCII'?>
<svg xmlns="http://www.w3.org/2000/svg" width="16" height="16">
<defs><style id="current-color-scheme" type="text/css">.ColorScheme-Text{color:#fcfcfc; fill:currentColor;}</style></defs><path d="M712 591.362h1v1h-1zm0 2h1v1h-1zm0 2h1v1h-1zm0 2h1v1h-1zm0 2h1v1h-1zm0 2h1v1h-1zm0 2h1v1h-1zm2 0h1v1h-1zm2 0h1v1h-1zm2 0h1v1h-1zm2 0h1v1h-1zm0-2h1v1h-1zm0-2h1v1h-1zm0-2h1v1h-1zm0-2h1v1h-1zm0-2h1v1h-1zm0-2h1v1h-1zm-2 0h1v1h-1zm-2 0h1v1h-1zm-2 0h1v1h-1z" class="ColorScheme-Text" style="opacity:1;fill-opacity:1;fill:currentColor" transform="translate(-709 -589.362)" fill="currentColor"/>
</svg>
