<?xml version='1.0' encoding='ASCII'?>
<svg xmlns="http://www.w3.org/2000/svg" width="16" height="16">
<defs><style id="current-color-scheme" type="text/css">.ColorScheme-Contrast{color:#dedede; fill:currentColor;}</style></defs><path fill="currentColor" d="M8.5 0A7.5 7.5 0 0 0 1 7.5 7.5 7.5 0 0 0 8.5 15 7.5 7.5 0 0 0 16 7.5 7.5 7.5 0 0 0 8.5 0m0 1A6.5 6.5 0 0 1 15 7.5 6.5 6.5 0 0 1 8.5 14 6.5 6.5 0 0 1 2 7.5 6.5 6.5 0 0 1 8.5 1" class="ColorScheme-Contrast" style="fill:currentColor"/>
<rect width="4" height="4" x="4" y="3" fill="currentColor" rx="1" ry="1" class="ColorScheme-Contrast" style="fill:currentColor"/>
<path fill="currentColor" d="M10 3c-.554 0-1 .446-1 1v2c0 .554.446 1 1 1h2c.554 0 1-.446 1-1V4c0-.554-.446-1-1-1zm0 1h2v2h-2zM5 8c-.554 0-1 .446-1 1v2c0 .554.446 1 1 1h2c.554 0 1-.446 1-1V9c0-.554-.446-1-1-1zm0 1h2v2H5z" class="ColorScheme-Contrast" style="fill:currentColor"/>
<rect width="4" height="4" x="9" y="8" fill="currentColor" rx="1" ry="1" class="ColorScheme-Contrast" style="fill:currentColor"/>
</svg>
