<?xml version='1.0' encoding='ASCII'?>
<svg xmlns="http://www.w3.org/2000/svg" width="16" height="16">
<defs><style id="current-color-scheme" type="text/css">.ColorScheme-Contrast{color:#dedede; fill:currentColor;}</style></defs><path d="M4.5 1C2.686 1 2.523 3.461 4 3.92V13c0 .554.446 1 1 1h6.086c.175.55.64 1 1.414 1 2 0 2-3 0-3-.773 0-1.239.45-1.414 1H5v-3h4.086c.175.55.64 1 1.414 1 2 0 2-3 0-3-.773 0-1.239.45-1.414 1H5V6h6.086c.175.55.64 1 1.414 1 2 0 2-3 0-3-.773 0-1.239.45-1.414 1H5V3.92C6.477 3.46 6.314 1 4.5 1m0 1c.667 0 .667 1 0 1s-.667-1 0-1m8 3c.667 0 .667 1 0 1s-.667-1 0-1m-2 4c.667 0 .667 1 0 1s-.667-1 0-1m2 4c.667 0 .667 1 0 1s-.667-1 0-1" class="ColorScheme-Contrast" style="fill:currentColor" fill="currentColor"/>
</svg>
