<?xml version='1.0' encoding='ASCII'?>
<svg xmlns="http://www.w3.org/2000/svg" width="16" height="16">
<defs><style id="current-color-scheme" type="text/css">.ColorScheme-Text{color:#fcfcfc; fill:currentColor;}</style></defs><path d="m2.998 1.811-.548.709-1.6-.66-.352.852L5.137 4.63l.824.635.852 2.048c-.203-.098-.345-.221-.58-.305l-.311.872c.71.252 1.148.563 1.502.898l.03.07.35 1.085-.291-.13-.376.847 1.05.464.014.045.05-.016.194.087.734 1.76.853-.357-.358-.86 5.453 2.417.375-.845-6.346-2.813-.218-.526.297-.109a5.2 5.2 0 0 0-.516-1.06c-.113-.176-.306-.324-.455-.488L7.7 6.608l1.003.772.079-.1c.26.51.48 1.028.974 1.51.324.316.709.62 1.17.905l.487-.785a6 6 0 0 1-1.012-.782c-.598-.583-.93-1.193-1.18-1.835l-.274.108-.55-.425.176.073.354-.855-1.944-.802-.593-1.833-.88.283.351 1.086-.256-.104zm.654 6.9-.799.467c.366.626.549 1.384.818 2.217.149.461.327.945.59 1.428l.813-.442a7.3 7.3 0 0 1-.523-1.271c-.253-.787-.441-1.617-.899-2.4z" class="ColorScheme-Text" style="fill:currentColor" fill="currentColor"/>
</svg>
