<?xml version='1.0' encoding='ASCII'?>
<svg width="16" height="16">
<defs><style id="current-color-scheme" type="text/css">.ColorScheme-Contrast{color:#dedede; fill:currentColor;}</style></defs><style id="current-color-scheme" type="text/css">
.ColorScheme-Contrast{color:#dedede}
</style>
<path d="M2 1C.892 1 0 1.892 0 3v8c0 1.108.892 2 2 2h1.522L6 16l2-3h6c1.108 0 2-.892 2-2V3c0-1.108-.892-2-2-2zm0 1h12c.554 0 1 .446 1 1v8c0 .554-.446 1-1 1H7.566L6 14.4 4.034 12H2c-.554 0-1-.446-1-1V3c0-.554.446-1 1-1" class="ColorScheme-Contrast" style="fill:currentColor"/>
</svg>
