<svg xmlns="http://www.w3.org/2000/svg" width="15.505" height="16.123">
<path fill="#fcfcfc" d="M.5 0a.5.5 0 0 0-.5.5v4.018a.5.5 0 0 0 .5.5h1.504v5.105a.5.5 0 0 0 .5.5.5.5 0 0 0 .5-.5V5.018H4.51a.5.5 0 0 0 .5-.5V.5a.5.5 0 0 0-.5-.5zM1 1h3.01v3.018H1zm10.504 7.373v3h1v-3zm1 3v1h3v-1zm0 1h-1v3h1zm-1 0v-1h-3v1z" color="#000" style="-inkscape-stroke:none"/>
<g fill="#3daee9" color="#000">
<path d="m6.505 9.373 6-9m-.417-.277L10.018 3.2a1.75 1.75 0 0 1 .834.555L12.922.65zm-3.93 5.892-2.07 3.108.834.554 2.07-3.105a1.75 1.75 0 0 1-.834-.557" style="-inkscape-stroke:none"/>
<path fill-rule="evenodd" d="M11.255 4.873a1.75 1.75 0 0 1-1.75 1.75 1.75 1.75 0 0 1-1.75-1.75 1.75 1.75 0 0 1 1.75-1.75 1.75 1.75 0 0 1 1.75 1.75" opacity=".35" style="-inkscape-stroke:none"/>
<path fill-rule="evenodd" d="M9.506 2.623c-1.237 0-2.25 1.013-2.25 2.25s1.013 2.25 2.25 2.25 2.25-1.013 2.25-2.25-1.013-2.25-2.25-2.25m0 1c.696 0 1.25.554 1.25 1.25s-.554 1.25-1.25 1.25-1.25-.554-1.25-1.25.554-1.25 1.25-1.25" style="-inkscape-stroke:none"/>
<path fill-rule="evenodd" d="M5.755 13.873a1.75 1.75 0 0 1-1.75 1.75 1.75 1.75 0 0 1-1.75-1.75 1.75 1.75 0 0 1 1.75-1.75 1.75 1.75 0 0 1 1.75 1.75" opacity=".35" style="-inkscape-stroke:none"/>
<path fill-rule="evenodd" d="M4.006 11.623c-1.237 0-2.25 1.013-2.25 2.25s1.013 2.25 2.25 2.25 2.25-1.013 2.25-2.25-1.013-2.25-2.25-2.25m0 1c.696 0 1.25.554 1.25 1.25s-.554 1.25-1.25 1.25-1.25-.554-1.25-1.25.554-1.25 1.25-1.25" style="-inkscape-stroke:none"/>
</g>
</svg>
