<?xml version='1.0' encoding='ASCII'?>
<svg xmlns="http://www.w3.org/2000/svg" width="16" height="16">
<defs><style id="current-color-scheme" type="text/css">.ColorScheme-Text{color:#fcfcfc; fill:currentColor;}</style></defs><path d="M0 0v3h1V1h2V0zm4 0v1h2V0zm3 0v1h2V0zm3 0v1h2V0zm3 0v1h2v2h1V0zM0 4v2h1V4zm15 0v2h1V4zM0 7v2h1V7zm15 0v2h1V7zM0 10v2h1v-2zm15 0v2h1v-2zM0 13v3h3v-1H1v-2zm15 0v2h-2v1h3v-3zM4 15v1h2v-1zm3 0v1h2v-1zm3 0v1h2v-1zM7.5 3v4.5H3v1h4.5V13h1V8.5H13v-1H8.5V3Z" class="ColorScheme-Text" style="fill-rule:evenodd;stroke-linecap:round;stroke-linejoin:round;stop-fill:currentColor" fill="currentColor"/>
</svg>
