<?xml version='1.0' encoding='ASCII'?>
<svg xmlns="http://www.w3.org/2000/svg" id="snap-alignment-self-symbolic_svg__svg1" width="16" height="16" version="1.1">
<defs><style id="current-color-scheme" type="text/css">.ColorScheme-Text{color:#fcfcfc; fill:currentColor;}</style></defs><g id="snap-alignment-self-symbolic_svg__path-division" transform="translate(-165 -667.362)" class="ColorScheme-Text" fill="currentColor" style="fill:currentColor">
<path id="snap-alignment-self-symbolic_svg__rect26524" d="M-175-676.362h4v1h-4z" style="fill-opacity:1;stroke:none;stroke-width:.0300984;stroke-linecap:round;stroke-linejoin:round;fill:currentColor" transform="scale(-1)" class="ColorScheme-Text" fill="currentColor"/>
<path id="snap-alignment-self-symbolic_svg__path26641" d="m178.506 668.283-.568 3.537.988.159.568-3.538zm-12 .158.568 3.538.988-.159-.568-3.537zm1.593 9.477c.977 2.647 3.057 3.746 3.057 3.746a3.93 3.93 0 0 0 3.688 0s2.08-1.1 3.057-3.746l-.938-.346c-.477 1.292-1.47 2.342-1.47 2.342-.645.68-1.476 1.21-2.493 1.21s-1.848-.53-2.493-1.21c0 0-.993-1.05-1.47-2.342z" class="ColorScheme-Text" transform="rotate(45)" fill="currentColor" style="fill:currentColor"/>
</g>
</svg>
