<svg xmlns="http://www.w3.org/2000/svg" width="16" height="16" fill="none">
<style id="current-color-scheme" type="text/css">
.ColorScheme-Text{color:#dedede}
</style>
<path fill="currentColor" fill-rule="evenodd" d="M2 2h12v7.707L9.707 14H2zm1 1v10h6V9h4V3zm9.293 7H10v2.293z" class="ColorScheme-Text" clip-rule="evenodd"/>
<path fill="currentColor" d="M7 6.5a.5.5 0 1 1-1 0 .5.5 0 0 1 1 0m3 0a.5.5 0 1 1-1 0 .5.5 0 0 1 1 0" class="ColorScheme-Text"/>
<path fill="currentColor" fill-rule="evenodd" d="M11.354 8.854a4.743 4.743 0 0 1-6.708 0l.708-.708a3.743 3.743 0 0 0 5.292 0z" class="ColorScheme-Text" clip-rule="evenodd"/>
</svg>
