<svg xmlns="http://www.w3.org/2000/svg" width="16" height="16">
<path fill="#ffbf00" fill-rule="evenodd" d="M5.022 5.994v3.999H1.03V5.994z" color="#000"/>
<path fill="#ff69bc" fill-rule="evenodd" d="M10.012 5.994v3.999H6.02V5.994z" color="#000"/>
<path fill="#fff" fill-rule="evenodd" d="M10.012.996v3.999H6.02V.996z" color="#000"/>
<path fill="#c8c8c8" fill-rule="evenodd" d="M5.022 10.992v2.999H1.03v-2.999z" color="#000"/>
<path fill="#f0fa00" fill-rule="evenodd" d="M15.002 5.994v3.999H11.01V5.994z" color="#000"/>
<path fill="#a4602b" fill-rule="evenodd" d="M10.012 10.992v3.999l-3.992-1v-2.999z" color="#000"/>
<path fill="#00c626" fill-rule="evenodd" d="M15.002 10.992v3.999H11.01v-3.999z" color="#000"/>
<path fill="#8ab3de" fill-rule="evenodd" d="M5.022.996v3.999H1.03V.996z" color="#000"/>
<path fill="red" fill-rule="evenodd" d="M15.002.996v3.999H11.01V.996z" color="#000"/>
<path fill="#fcfcfc" d="M.5 0a.5.5 0 0 0-.5.5v13.652a.5.5 0 0 0 .668.47c1.368-.489 4.054-1.064 6.6.403 3.778 2.178 8.437.023 8.437.023a.5.5 0 0 0 .295-.457V.5a.5.5 0 0 0-.5-.5H5.521zm.498.998h4.023v4.035H.998zm5.022 0h3.992v4.035H6.02zm4.99 0h3.992v4.035H11.01zM.998 6.031H5.02v4.035H.998zm5.021 0h3.992v4.035H6.02zm4.99 0h3.993v4.035h-3.993zM.997 11.064h4.024v2.178c-1.62-.252-2.977.005-4.024.317zm5.022 0h3.992v3.786c-.762-.105-1.534-.28-2.246-.69-.584-.336-1.167-.52-1.746-.69zm4.99 0h3.992v3.155c-.297.122-1.911.706-3.992.69z" color="#000" style="-inkscape-stroke:none"/>
</svg>
