<svg xmlns="http://www.w3.org/2000/svg" width="17.074" height="17">
<g color="#000" transform="translate(-319.08 -107.69)">
<path fill="#3daee9" fill-rule="evenodd" d="M319.15 107.69v2h1v-1h1v-1h-1.5zm3 0v1h2v-1h-1.5zm3 0v1h2v-1h-1.5zm3 0v1h2v-1h-1.5zm3 0v1h2v-1h-1.5zm3 0v1h2v-1h-1.5zm1 2v2h1v-2zm-16 1v2h1v-2zm16 2v2h1v-2zm-16 1v2h1v-2zm16 2v2h1v-2zm-16 1v2h1v-2zm16 2v2h1v-2zm-16 1v2h1v-2zm16 2v2h1v-2zm0 2h-2v1h2zm-16-1v2h1v-2zm2 1v1h2v-1h-1.5zm3 0v1h2v-1h-1.5zm3 0v1h2v-1h-1.5zm3 0v1h2v-1h-1.5z" style="-inkscape-stroke:none"/>
<g fill-rule="evenodd" stroke-linejoin="round" stroke-miterlimit="0">
<path fill="#3daee9" d="M341.31 163.02a3.964 4.113 0 0 1-3.963 4.113v-4.113z" opacity=".35" style="-inkscape-stroke:none" transform="matrix(2.8941 0 0 2.8333 -656.74 -353.7)"/>
<path fill="#dedede" d="M337.34 162.85a.175.175 0 0 0-.174.176v4.113a.175.175 0 0 0 .174.174c2.287 0 4.139-1.925 4.139-4.287a.175.175 0 0 0-.174-.176zm.176.35h3.58c-.09 2.03-1.634 3.629-3.58 3.726z" style="-inkscape-stroke:none" transform="matrix(2.8941 0 0 2.8333 -656.74 -353.7)"/>
</g>
<ellipse cx="327.61" cy="116.19" fill="none" stroke="#c80000" stroke-dasharray="1.01888, 1.01888" stroke-linejoin="round" stroke-miterlimit="0" stroke-width="1.019" rx="4.486" ry="4.491"/>
</g>
</svg>
