<svg xmlns="http://www.w3.org/2000/svg" width="16" height="16.128">
<path fill="none" d="M0 .128v16h16v-16z" color="#000"/>
<path fill="#c00" fill-rule="evenodd" d="m3 7.832 1.016-.064.033.508.006.094.007.101.012.1.014.1.035.195.022.096.023.095.025.096.004.012.145.488-.975.29-.146-.49-.004-.017-.004-.012-.03-.107-.001-.012-.028-.107-.002-.014-.023-.11-.004-.01-.022-.11-.001-.014-.018-.11-.002-.013-.016-.111-.002-.014-.013-.111v-.014l-.01-.113-.002-.014-.006-.1zm.223-1.234.191-.471v-.002l.006-.012.043-.1.006-.011.047-.098.004-.011.048-.098.006-.01.051-.098.006-.01.053-.095.005-.01.055-.094.006-.01.059-.091.005-.01.06-.092.007-.01.06-.087.008-.01.024-.033.298-.41.823.6-.3.41-.019.027-.054.078-.053.08-.05.082-.05.082-.047.084-.044.086-.043.086-.041.088-.038.088v-.004l-.19.47zm.75 4.43.761-.674.338.381.002.002.065.07.066.069.068.066.07.065.073.064.072.06.075.061.076.059.076.057.027.017.418.291-.58.836-.418-.29-.031-.022-.01-.008-.088-.062-.01-.008-.086-.067-.01-.006-.083-.068-.008-.008-.082-.07-.01-.008-.08-.07-.01-.008-.078-.074-.01-.008-.076-.076-.008-.008-.076-.078-.008-.008-.074-.078-.008-.01-.005-.008zm1.242-7.134.45-.238.071-.037.012-.006.096-.049.011-.004.1-.047.01-.006.1-.043.011-.005.102-.041.011-.004.102-.04.014-.003.101-.037.014-.004.103-.034.012-.003.106-.032.013-.004.059-.015.49-.135.268.983-.492.132-.053.016-.094.027-.092.03-.092.033-.091.035-.088.035-.09.04-.086.04-.086.043-.066.035-.452.239zm1.523 9.021.168-1.004.502.084.098.014.101.012.1.007.102.006.101.004.096.002h.014l.095-.002.102-.004.101-.006.102-.007.1-.012.097-.014.1-.017.095-.018.102-.021.496-.11.217.995-.496.109-.108.021-.011.004-.11.02-.013.004-.112.017-.011.002-.112.016-.013.002-.112.012-.013.002v.031l-.497-.006h-.013l-.496.006v-.031l-.012-.002-.113-.012-.014-.002-.111-.016L7.248 13l-.008-.002zm1.53-8.853.191-.998.5.096.053.01.011.001.11.024.012.004.109.025.012.004.107.03.012.003.105.032.012.003.105.034.012.004.104.037.011.004.102.039.012.004.101.04.012.006.074.034.465.203-.408.932-.465-.204-.068-.03-.09-.036-.092-.035-.09-.033-.094-.03-.093-.027-.094-.025-.096-.024-.098-.021-.046-.01zm1.851 7.41.395-.32.023-.02.074-.06.141-.13.068-.066.067-.068.129-.141.12-.148.005-.006.308-.405.809.62-.309.404-.01.01-.005.01-.069.083-.008.01-.068.082-.008.01-.072.08-.008.01-.074.078-.008.008-.074.078-.01.008-.076.076-.01.008-.078.074-.01.008-.08.07-.008.008-.082.07-.01.008-.029.024-.394.318zm.606-6.355.777-.656.328.388.027.034.008.007.069.084.005.01.067.086.008.01.062.088.008.01.06.088.008.01.059.091.008.01.056.092.006.01.055.093.006.01.053.096.006.01.05.097.006.01.002.004.227.455-.912.451-.227-.455-.043-.082-.047-.084-.049-.082-.05-.082-.053-.08-.055-.078-.056-.078-.057-.077-.06-.074-.024-.027zm1.064 4.265.11-.497.003-.02.02-.097.016-.097.013-.1.012-.1.016-.203.003-.101v-.178l-.005-.51 1.015-.012.008.508v.096l-.002.115v.012l-.004.115v.014l-.008.113v.014l-.011.113v.014l-.014.111-.002.014-.016.111-.002.014-.017.11-.002.013-.022.11-.002.01-.006.026-.107.498z" color="#000" style="-inkscape-stroke:none"/>
<path fill="#fcfcfc" fill-rule="evenodd" d="M10.504 0H8.381v7.628H3v-2L0 8.502l3 2.874v-2h7.504z"/>
</svg>
