<?xml version='1.0' encoding='ASCII'?>
<svg xmlns="http://www.w3.org/2000/svg" width="16" height="16">
<defs><style id="current-color-scheme" type="text/css">.ColorScheme-Text{color:#fcfcfc; fill:currentColor;}</style></defs><path d="M197 629.362v2l1-1h1v3l-1 1h3l-1-1v-3h1l1 1v-2zm7 7v2l1-1h1v3l-1 1h3l-1-1v-3h1l1 1v-2z" class="ColorScheme-Text" style="opacity:1;fill-opacity:1;fill:currentColor" transform="translate(-195 -627.362)" fill="currentColor"/>
<path d="M2 0C.892 0 0 .892 0 2v5c0 1.108.892 2 2 2h5c1.108 0 2-.892 2-2V2c0-1.108-.892-2-2-2zm0 1h5c.554 0 1 .446 1 1v5c0 .554-.446 1-1 1H2c-.554 0-1-.446-1-1V2c0-.554.446-1 1-1m8 6v1h1V7zm2 0v1h1V7zm2 0v1c.554 0 1 .446 1 1h1c0-1.108-.892-2-2-2m-7 3v1h1v-1zm8 0v1h1v-1zm-8 2v1h1v-1zm8 0v1h1v-1zm-8 2c0 1.108.892 2 2 2v-1c-.554 0-1-.446-1-1zm8 0c0 .554-.446 1-1 1v1c1.108 0 2-.892 2-2zm-5 1v1h1v-1zm2 0v1h1v-1z" style="fill-rule:evenodd;stroke:none;stroke-linecap:round;stroke-linejoin:round;stop-fill:currentColor" class="ColorScheme-Text" fill="currentColor"/>
</svg>
