<?xml version='1.0' encoding='ASCII'?>
<svg xmlns="http://www.w3.org/2000/svg" width="16" height="16">
<defs><style id="current-color-scheme" type="text/css">.ColorScheme-Text{color:#fcfcfc; fill:currentColor;}</style></defs><path d="M196 633.362h1v8h-1zm7 0h1v8h-1z" class="ColorScheme-Text" style="opacity:1;fill-opacity:1;fill:currentColor" transform="translate(-195 -627.361)" fill="currentColor"/>
<path d="M198 640.362h4v1h-4z" style="opacity:.5;fill-opacity:1;fill:currentColor" transform="translate(-195 -627.361)" class="ColorScheme-Text" fill="currentColor"/>
<path d="M1 2v2l1-1h2.5v6l-1 1h3l-1-1V3H8l1 1V2Z" style="fill-opacity:1;fill:currentColor" class="ColorScheme-Text" fill="currentColor"/>
<path d="m10.525 9.818-.707.707 2.121 2.121-2.12 2.122.706.707 2.121-2.121 2.122 2.12.707-.706-2.121-2.122 2.12-2.12-.706-.708-2.122 2.121z" style="fill-opacity:1;fill-rule:evenodd;stroke-linecap:round;stroke-linejoin:round;stop-fill:currentColor" class="ColorScheme-Text" fill="currentColor"/>
</svg>
