<?xml version='1.0' encoding='ASCII'?>
<svg xmlns="http://www.w3.org/2000/svg" width="16" height="16">
<defs><style id="current-color-scheme" type="text/css">.ColorScheme-Text{color:#fcfcfc; fill:currentColor;}</style></defs><path d="M2 0C.892 0 0 .892 0 2v12c0 1.108.892 2 2 2h12c1.108 0 2-.892 2-2V2c0-1.108-.892-2-2-2zm0 1h12c.554 0 1 .446 1 1v12c0 .554-.446 1-1 1H2c-.554 0-1-.446-1-1V2c0-.554.446-1 1-1m0 1v2l1-1h2.5v6l-1 1h3l-1-1V3H9l1 1V2zm8.828 6.172L8 11l.004.004L8 11.01l2.828 2.828.707-.707L9.906 11.5H14v-1H9.914l1.621-1.621z" class="ColorScheme-Text" style="fill:currentColor" fill="currentColor"/>
</svg>
