<svg xmlns="http://www.w3.org/2000/svg" width="16" height="16">
<style id="current-color-scheme" type="text/css">
.ColorScheme-Contrast{color:#dedede}
</style>
<path d="M1 1v4h4V1zm1 1h2v2H2z" class="ColorScheme-Contrast" style="fill:#dedede;fill-rule:evenodd;stroke-linecap:round;stroke-linejoin:round;stop-color:#000"/>
<path d="M6 1v4h4V1Zm1 1h2v2H7Zm4-1v4h4V1Zm1 1h2v2h-2zM1 6v4h4V6Zm1 1h2v2H2Zm4-1v4h4V6Zm1 1h2v2H7Zm4-1v4h4V6Zm1 1h2v2h-2zM1 11v4h4v-4zm1 1h2v2H2Zm4-1v4h4v-4zm1 1h2v2H7Zm4-1v4h4v-4zm1 1h2v2h-2z" style="fill:#ff1990;fill-rule:evenodd;stroke-linecap:round;stroke-linejoin:round;stop-color:#000;fill-opacity:1;opacity:.75"/>
</svg>
