<svg xmlns="http://www.w3.org/2000/svg" width="16.01" height="16">
<path fill="#dedede" d="M664 100a2 2 0 0 0-2 2 2 2 0 0 0 2 2 2 2 0 0 0 2-2 2 2 0 0 0-2-2m0 4h-2c-.554 0-1 .446-1 1v6c0 .554.446 1 1 1v2c0 .554.446 1 1 1h2c.554 0 1-.446 1-1v-2c.554 0 1-.446 1-1v-6c0-.554-.446-1-1-1zm9-4a2 2 0 0 0-2 2 2 2 0 0 0 2 2 2 2 0 0 0 2-2 2 2 0 0 0-2-2m-9 1a1 1 0 0 1 1 1 1 1 0 0 1-1 1 1 1 0 0 1-1-1 1 1 0 0 1 1-1m4 0v14h1v-14zm5 0a1 1 0 0 1 1 1 1 1 0 0 1-1 1 1 1 0 0 1-1-1 1 1 0 0 1 1-1m-11 4h4v6h-4zm10 0a1 1 0 0 0-.986.836l-1 6A1 1 0 0 0 671 113v1c0 .554.446 1 1 1h2c.554 0 1-.446 1-1v-1a1 1 0 0 0 .986-1.164l-1-6A1 1 0 0 0 674 105zm0 1h2l1 6h-4zm-9 6h2v2h-2zm9 1h2v1h-2z" style="paint-order:stroke fill markers" transform="translate(-660 -100)"/>
</svg>
