<?xml version='1.0' encoding='ASCII'?>
<svg xmlns="http://www.w3.org/2000/svg" xmlns:xlink="http://www.w3.org/1999/xlink" width="16" height="16">
<defs><style id="current-color-scheme" type="text/css">.ColorScheme-Contrast{color:#dedede; fill:currentColor;}</style></defs><path id="a" d="M8.114 4.299a.27.27 0 0 1-.27.269.27.27 0 0 1-.268-.269.27.27 0 0 1 .269-.269.27.27 0 0 1 .269.269" style="stroke-width:.290481;fill-opacity:1;fill:currentColor" class="ColorScheme-Contrast" fill="currentColor"/>
<use xlink:href="#a" id="b" width="744.094" height="1052.362" x="0" y="0" style="fill-opacity:1;fill:currentColor" transform="translate(-.97 .503)scale(1.05865)" class="ColorScheme-Contrast" fill="currentColor"/>
<use xlink:href="#b" id="c" width="744.094" height="1052.362" x="0" y="0" style="fill-opacity:1;fill:currentColor" transform="translate(0 -1.472)" class="ColorScheme-Contrast" fill="currentColor"/>
<use xlink:href="#b" id="d" width="744.094" height="1052.362" x="0" y="0" style="fill-opacity:1;fill:currentColor" transform="translate(-3.684 -1.325)scale(1.37627)" class="ColorScheme-Contrast" fill="currentColor"/>
<use xlink:href="#c" id="e" width="744.094" height="1052.362" x="0" y="0" style="fill-opacity:1;fill:currentColor" transform="translate(-3.906 -1.947)scale(1.37627)" class="ColorScheme-Contrast" fill="currentColor"/>
<path id="f" d="M6.165 4.3a.39.39 0 0 1-.391.391.39.39 0 0 1-.392-.391.39.39 0 0 1 .392-.392.39.39 0 0 1 .391.392" style="stroke-width:.423229;fill-opacity:1;fill:currentColor" class="ColorScheme-Contrast" fill="currentColor"/>
<use xlink:href="#d" id="g" width="744.094" height="1052.362" x="0" y="0" style="fill-opacity:1;fill:currentColor" transform="translate(-4.516 -2.16)scale(1.50123)" class="ColorScheme-Contrast" fill="currentColor"/>
<use xlink:href="#e" id="h" width="744.094" height="1052.362" x="0" y="0" style="fill-opacity:1;fill:currentColor" transform="translate(-4.6 -2.11)scale(1.50123)" class="ColorScheme-Contrast" fill="currentColor"/>
<use xlink:href="#f" id="i" width="744.094" height="1052.362" x="0" y="0" style="fill-opacity:1;fill:currentColor" transform="translate(-4.434 -2.154)scale(1.50123)" class="ColorScheme-Contrast" fill="currentColor"/>
<use xlink:href="#g" width="744.094" height="1052.362" style="fill-opacity:1;fill:currentColor" transform="translate(-4.53 -1.93)scale(1.48564)" class="ColorScheme-Contrast" fill="currentColor"/>
<use xlink:href="#h" width="744.094" height="1052.362" style="fill-opacity:1;fill:currentColor" transform="translate(-4.393 -1.888)scale(1.48564)" class="ColorScheme-Contrast" fill="currentColor"/>
<use xlink:href="#i" width="744.094" height="1052.362" style="fill-opacity:1;fill:currentColor" transform="translate(-4.36 -2.09)scale(1.48564)" class="ColorScheme-Contrast" fill="currentColor"/>
<use xlink:href="#a" id="j" width="744.094" height="1052.362" x="0" y="0" style="fill-opacity:1;fill:currentColor" transform="translate(-2.824 -.869)" class="ColorScheme-Contrast" fill="currentColor"/>
<use xlink:href="#j" width="744.094" height="1052.362" style="fill-opacity:1;fill:currentColor" transform="translate(.299 1.792)" class="ColorScheme-Contrast" fill="currentColor"/>
<use xlink:href="#e" id="k" width="744.094" height="1052.362" x="0" y="0" style="fill-opacity:1;fill:currentColor" transform="translate(-3.15)" class="ColorScheme-Contrast" fill="currentColor"/>
<use xlink:href="#k" width="744.094" height="1052.362" style="fill-opacity:1;fill:currentColor" transform="translate(.461 2.743)" class="ColorScheme-Contrast" fill="currentColor"/>
<use xlink:href="#b" width="744.094" height="1052.362" style="fill-opacity:1;fill:currentColor" transform="translate(-.49 -.696)" class="ColorScheme-Contrast" fill="currentColor"/>
<rect width="2" height="2" x="10" y="3" rx=".99" ry=".99" style="opacity:1;fill-rule:evenodd;stroke:none;stroke-linecap:square;stop-fill:currentColor" class="ColorScheme-Contrast" fill="currentColor"/>
<rect width="2" height="1" x="10" y="4" rx="0" ry="0" style="opacity:1;fill-rule:evenodd;stroke:none;stroke-linecap:square;stop-fill:currentColor" class="ColorScheme-Contrast" fill="currentColor"/>
<path d="M9.25 6 8.5 7h5l-.75-1Zm-1.5 2L7 9v5l8 1V9l-.75-1ZM8 10h6v3H8Z" style="fill-opacity:1;stroke:none;stroke-width:1px;stroke-linecap:butt;stroke-linejoin:miter;stroke-opacity:1;fill:currentColor" class="ColorScheme-Contrast" fill="currentColor"/>
</svg>
