<?xml version='1.0' encoding='ASCII'?>
<svg xmlns="http://www.w3.org/2000/svg" width="16" height="16">
<defs><style id="current-color-scheme" type="text/css">.ColorScheme-Text{color:#fcfcfc; fill:currentColor;}</style></defs><path d="M5.045 3 1.529 13h2.276l.722-2H6.62c-.001-.042-.01-.081-.01-.123q0-.633.11-1.266l-.002.002q.053-.309.135-.613H5.059l1.287-4 .927 2.834a6 6 0 0 1 1.27-1.84c.034-.032.075-.055.11-.086L7.626 3zm6.144 2.932q-1.142 0-1.95.78-.809.782-1.243 1.977a6.4 6.4 0 0 0-.387 2.188q0 .543.157.973.434 1.188 1.67 1.187 1.236.001 2.1-1.289.082.617.435.957.352.332.902.332.557 0 .918-.392.204-.232.496-1.014a.7.7 0 0 1-.307.062q-.57-.001-.57-.476 0-.252.06-.488l1-4.729h-2.003l-.15.74v-.1a.6.6 0 0 0-.266-.502q-.264-.204-.862-.205zm.373.863q.388 0 .502.203.123.197.123.326l-.666 3.139q-.129.57-.468.904-.34.327-.754.326a.5.5 0 0 1-.373-.15q-.259-.244-.26-.861.001-.32.035-.606.225-1.868 1.108-2.867.366-.414.754-.414z" class="ColorScheme-Text" style="fill:currentColor" fill="currentColor"/>
</svg>
