<?xml version='1.0' encoding='ASCII'?>
<svg xmlns="http://www.w3.org/2000/svg" width="16" height="16">
<defs><style id="current-color-scheme" type="text/css">.ColorScheme-Contrast{color:#dedede; fill:currentColor;}</style></defs><path fill="currentColor" d="M6 2c-.554 0-1 .446-1 1v1H4c-1.108 0-2 .892-2 2v6c0 1.108.892 2 2 2h8c1.108 0 2-.892 2-2V6c0-1.108-.892-2-2-2h-1V3c0-.554-.446-1-1-1zm0 1h4v1H6zM4 5h8c.554 0 1 .446 1 1v1h-2V6h-1v1H6V6H5v1H3V6c0-.554.446-1 1-1M3 8h2v1h1V8h4v1h1V8h2v4c0 .554-.446 1-1 1H4c-.554 0-1-.446-1-1z" class="ColorScheme-Contrast" style="fill:currentColor"/>
</svg>
