<?xml version='1.0' encoding='ASCII'?>
<svg xmlns="http://www.w3.org/2000/svg" viewBox="0 0 16 16">
<defs><style id="current-color-scheme" type="text/css">.ColorScheme-Contrast{color:#dedede; fill:currentColor;}</style></defs><path d="M8 2a6 6 0 0 0-6 6 6 6 0 0 0 6 6v-1a5 5 0 0 1-5-5 5 5 0 0 1 5-5 5 5 0 0 1 4.572 3h1.073A6 6 0 0 0 8 2m0 2a4 4 0 0 0-4 4h2a2 2 0 0 1 2-2zm0 3a1 1 0 0 0-1 1 1 1 0 0 0 1 1 1 1 0 0 0 1-1 1 1 0 0 0-1-1m4 0v3.27a2 2 0 0 0-1-.27 2 2 0 0 0-2 2 2 2 0 0 0 2 2 2 2 0 0 0 2-2V8h1l-1-1z" class="ColorScheme-Contrast" style="fill-opacity:1;stroke:none;fill:currentColor" fill="currentColor"/>
</svg>
