<?xml version='1.0' encoding='ASCII'?>
<svg xmlns="http://www.w3.org/2000/svg" width="16" height="16">
<defs><style id="current-color-scheme" type="text/css">.ColorScheme-Contrast{color:#dedede; fill:currentColor;}</style></defs><path d="M4 1c-1.108 0-2 .892-2 2v10c0 1.108.892 2 2 2h8c1.108 0 2-.892 2-2V7.951l-1 1V13c0 .554-.446 1-1 1H4c-.554 0-1-.446-1-1V3c0-.554.446-1 1-1h6.049l1-1z" class="ColorScheme-Contrast" style="fill:currentColor" fill="currentColor"/>
<path d="M14.607 1.686a1.996 1.996 0 0 0-2.828 0l3.535 3.536a1.996 1.996 0 0 0 0-2.829zm-3.535.707L4 9.465V13h3.536l7.071-7.071zm0 1.415 2.12 2.12-5.656 5.658-2.121-2.121z" class="ColorScheme-Contrast" style="fill:currentColor" fill="currentColor"/>
</svg>
