<?xml version='1.0' encoding='ASCII'?>
<svg xmlns="http://www.w3.org/2000/svg" width="16" height="16">
<defs><style id="current-color-scheme" type="text/css">.ColorScheme-Contrast{color:#dedede; fill:currentColor;}</style></defs><path d="M8 1a6 6 0 0 0-6 6 6 6 0 0 0 5 5.908V14H2v1h12v-1H9v-1.092A6 6 0 0 0 14 7a6 6 0 0 0-6-6m0 1a5 5 0 0 1 5 5 5 5 0 0 1-4 4.885V10l2-2-3 1-4-3 3 4v1.885A5 5 0 0 1 3 7a5 5 0 0 1 5-5" class="ColorScheme-Contrast" style="fill:currentColor" fill="currentColor"/>
</svg>
