<?xml version='1.0' encoding='ASCII'?>
<svg xmlns="http://www.w3.org/2000/svg" width="16" height="16">
<defs><style id="current-color-scheme" type="text/css">.ColorScheme-Text{color:#fcfcfc; fill:currentColor;}</style></defs><path d="M1 11h14v1H1z" class="ColorScheme-Text" style="fill:currentColor" fill="currentColor"/>
<path class="ColorScheme-Text" style="fill:currentColor" d="M8.008.01a6.977 6.977 0 0 0-6.992 6.992V12h1V6.992A5.98 5.98 0 0 1 8.008 1 5.98 5.98 0 0 1 14 6.992V12h1V7.002A6.977 6.977 0 0 0 8.008.01" fill="currentColor"/>
<path class="ColorScheme-Text" style="fill:currentColor" d="M8 6a7 7 0 0 0-6.93 6h1.018A6 6 0 0 1 8 7a6 6 0 0 1 5.916 5h1.012A7 7 0 0 0 8 6" fill="currentColor"/>
<circle cx="6" cy="5" r="1" class="ColorScheme-Text" style="fill:currentColor" fill="currentColor"/>
<circle cx="10" cy="5" r="1" class="ColorScheme-Text" style="fill:currentColor" fill="currentColor"/>
<path class="ColorScheme-Text" style="fill:currentColor" d="M8 6a2 2 0 0 0-2 2 2 2 0 0 0 2 2 2 2 0 0 0 2-2 2 2 0 0 0-2-2m0 1a1 1 0 0 1 1 1 1 1 0 0 1-1 1 1 1 0 0 1-1-1 1 1 0 0 1 1-1" fill="currentColor"/>
<rect width="6" height="1" x="2" y="13" class="ColorScheme-Text" style="fill:currentColor" rx="0" ry="0" fill="currentColor"/>
<path class="ColorScheme-Text" style="fill:currentColor" d="M5 15h6v1H5z" fill="currentColor"/>
</svg>
