<?xml version='1.0' encoding='ASCII'?>
<svg xmlns="http://www.w3.org/2000/svg" width="16" height="16">
<defs><style id="current-color-scheme" type="text/css">.ColorScheme-Text{color:#fcfcfc; fill:currentColor;}</style></defs><path fill="currentColor" d="m3 1 1 1v4L2 8h7L7 6V2l1-1zm2 8v4.75a16 16 0 0 0 .5 1.5 19 19 0 0 0 .5-1.5V9z" class="ColorScheme-Text" style="fill:currentColor"/>
<path fill="currentColor" d="M11.5 8A3.5 3.5 0 0 0 8 11.5a3.5 3.5 0 0 0 3.5 3.5 3.5 3.5 0 0 0 3.5-3.5A3.5 3.5 0 0 0 11.5 8M9 11h5v1H9z" style="paint-order:markers stroke fill;fill:currentColor" class="ColorScheme-Text"/>
</svg>
