<?xml version='1.0' encoding='ASCII'?>
<svg xmlns="http://www.w3.org/2000/svg" width="16" height="16" version="1.1">
 <defs><style id="current-color-scheme" type="text/css">.ColorScheme-Text{color:#fcfcfc; fill:currentColor;}</style></defs><path class="ColorScheme-Text" d="m9.5 1a3.5 3.5 0 0 1 3.5 3.5 3.5 3.5 0 0 1-1.2 2.63 2 2 0 0 1 0.2 0.87v0.898l2.848-1.898h1.152v6h-1.152l-2.848-1.898v1.898c0 1.108-0.892 2-2 2h-7c-1.108 0-2-0.892-2-2v-2l-1-1v-2h1c0-0.311 0.071-0.605 0.197-0.867a3.5 3.5 0 0 1-1.197-2.633 3.5 3.5 0 0 1 3.5-3.5 3.5 3.5 0 0 1 2.998 1.701 3.5 3.5 0 0 1 3.002-1.7m0 1a2.5 2.5 0 0 0-2.5 2.499 2.5 2.5 0 0 0 0.51 1.5h2.49c0.432 0 0.83 0.136 1.156 0.367a2.5 2.5 0 0 0 0.844-1.867 2.5 2.5 0 0 0-2.5-2.5m0 4a1.5 1.5 0 0 1-1.5-1.5 1.5 1.5 0 0 1 1.5-1.5 1.5 1.5 0 0 1 1.5 1.5 1.5 1.5 0 0 1-1.5 1.5m-6-4a2.5 2.5 0 0 0-2.5 2.5 2.5 2.5 0 0 0 0.844 1.867 2 2 0 0 1 1.156-0.367h2.49a2.5 2.5 0 0 0 0.51-1.5 2.5 2.5 0 0 0-2.5-2.5m0 4a1.5 1.5 0 0 1-1.5-1.5 1.5 1.5 0 0 1 1.5-1.5 1.5 1.5 0 0 1 1.5 1.5 1.5 1.5 0 0 1-1.5 1.5m6-2a0.5 0.5 0 0 0-0.5 0.5 0.5 0.5 0 0 0 0.5 0.5 0.5 0.5 0 0 0 0.5-0.5 0.5 0.5 0 0 0-0.5-0.5m-6 0a0.5 0.5 0 0 0-0.5 0.5 0.5 0.5 0 0 0 0.5 0.5 0.5 0.5 0 0 0 0.5-0.5 0.5 0.5 0 0 0-0.5-0.5m6.5 3h-7q-0.042 0-0.082 4e-3l-0.02 2e-3 -0.06 8e-3 -8e-3 2e-3 -0.059 0.011-0.013 2e-3 -0.031 0.01q-0.023 5e-3 -0.043 0.012l-0.075 0.027q-0.044 0.02-0.086 0.043l-0.05 0.03-2e-3 1e-3q-0.03 0.018-0.057 0.037l-6e-3 4e-3a1 1 0 0 0-0.168 0.157l-6e-3 7e-3 -0.043 0.053-7e-3 0.01-0.028 0.043-8e-3 0.012-0.025 0.046-0.012 0.02-0.017 0.035a1 1 0 0 0-0.094 0.424v5c0 0.554 0.446 1 1 1h7c0.554 0 1-0.446 1-1v-5c0-0.554-0.446-1-1-1m-6.5 1a0.5 0.5 0 0 1 0.5 0.5 0.5 0.5 0 0 1-0.5 0.5 0.5 0.5 0 0 1-0.5-0.5 0.5 0.5 0 0 1 0.5-0.5m11.5 0.102-2.5 1.666v0.464l2.5 1.666z" style="paint-order:stroke fill markers;fill:currentColor" fill="currentColor"/>
</svg>
