<?xml version='1.0' encoding='ASCII'?>
<svg xmlns="http://www.w3.org/2000/svg" width="16" height="16">
<defs><style id="current-color-scheme" type="text/css">.ColorScheme-Text{color:#fcfcfc; fill:currentColor;}</style></defs><g fill="currentColor" class="ColorScheme-Text" style="fill:currentColor">
<style id="current-color-scheme" type="text/css" class="ColorScheme-Text" fill="currentColor" style="fill:currentColor">
.ColorScheme-Text{color:#fcfcfc}
</style>
<path d="M8 3a6 6 0 0 0-6 6 6 6 0 0 0 6 6 6 6 0 0 0 6-6h-1a5 5 0 0 1-5 5 5 5 0 0 1-5-5 5 5 0 0 1 5-5z" class="ColorScheme-Text" style="fill:currentColor" fill="currentColor"/>
<path d="m8.172.672-.707.707L9.586 3.5 7.465 5.621l.707.707L11 3.5l-.707-.707z" class="ColorScheme-Text" fill="currentColor" style="fill:currentColor"/>
<path d="M8 3h2v1H8z" class="ColorScheme-Text" fill="currentColor" style="fill:currentColor"/>
</g>
</svg>
