<?xml version='1.0' encoding='ASCII'?>
<svg width="16" height="16">
<defs><style id="current-color-scheme" type="text/css">.ColorScheme-Contrast{color:#dedede; fill:currentColor;}</style></defs><g fill="currentColor">
<style id="current-color-scheme" type="text/css">
.ColorScheme-Contrast{color:#dedede}
</style>
<path d="M2 2C.892 2 0 2.892 0 4v9c0 1.108.892 2 2 2h12c1.108 0 2-.892 2-2V4c0-1.108-.892-2-2-2zm0 1h12c.554 0 1 .446 1 1v9c0 .554-.446 1-1 1H2c-.554 0-1-.446-1-1V4c0-.554.446-1 1-1" class="ColorScheme-Contrast" style="fill:currentColor"/>
<rect width="2" height="2" x="3" y="1" ry=".5" class="ColorScheme-Contrast" style="fill:currentColor"/>
<rect width="2" height="2" x="11" y="1" ry=".5" class="ColorScheme-Contrast" style="fill:currentColor"/>
<rect width="2" height="2" x="11" y="5" rx="1" ry="1" class="ColorScheme-Contrast" style="fill:currentColor"/>
</g>
</svg>
