<?xml version='1.0' encoding='ASCII'?>
<svg xmlns="http://www.w3.org/2000/svg" width="16" height="16">
<defs><style id="current-color-scheme" type="text/css">.ColorScheme-Text{color:#fcfcfc; fill:currentColor;}</style></defs><path d="M13 2.031c1.108 0 2 .892 2 2v10c0 1.108-.892 2-2 2H5c-1.108 0-2-.892-2-2v-10c0-1.108.892-2 2-2zm0 1H5c-.554 0-1 .446-1 1v10c0 .554.446 1 1 1h8c.554 0 1-.446 1-1v-10c0-.554-.446-1-1-1" class="ColorScheme-Text" style="fill:currentColor" fill="currentColor"/>
<path fill="currentColor" d="M11 .031c1.108 0 2 .892 2 2h-1c0-.554-.446-1-1-1H3c-.554 0-1 .446-1 1v10c0 .554.446 1 1 1v1c-1.108 0-2-.892-2-2v-10c0-1.108.892-2 2-2z" class="ColorScheme-Text" style="fill:currentColor"/>
</svg>
