<svg xmlns="http://www.w3.org/2000/svg" width="16" height="16" viewBox="0 0 4.233 4.233">
<style id="current-color-scheme" type="text/css">
.ColorScheme-Text{color:#dedede}
</style>
<g class="ColorScheme-Text" style="fill:currentColor">
<rect width=".265" height="3.439" x="2.91" y="-3.704" ry="0" transform="scale(1 -1)"/>
<path d="M.53.265a.264.264 0 0 0-.265.264v.53c0 .146.118.264.264.264h1.058a.264.264 0 0 0 .265-.265V.53a.264.264 0 0 0-.265-.264zm0 .264h1.057v.53H.53zm0 1.059a.264.264 0 0 0-.265.264v.53c0 .146.118.264.264.264h1.058a.264.264 0 0 0 .265-.265v-.529a.264.264 0 0 0-.265-.265zm0 .264h1.057v.53H.53zm0 1.058a.264.264 0 0 0-.265.265v.53c0 .146.118.264.264.264h1.058a.264.264 0 0 0 .265-.265v-.529a.264.264 0 0 0-.265-.265zm0 .265h1.057v.53H.53zm2.513.849-.926-.927.187-.187.606.607V2.436h.265v1.081l.607-.607.187.187z"/>
</g>
</svg>
