<?xml version='1.0' encoding='ASCII'?>
<svg xmlns="http://www.w3.org/2000/svg" width="16" height="16">
<defs><style id="current-color-scheme" type="text/css">.ColorScheme-Text{color:#fcfcfc; fill:currentColor;}</style></defs><path d="M3.25 3h1.5a.25.25 0 0 1 .25.25v1.5a.25.25 0 0 1-.25.25h-1.5A.25.25 0 0 1 3 4.75v-1.5A.25.25 0 0 1 3.25 3m4 0h1.5a.25.25 0 0 1 .25.25v1.5a.25.25 0 0 1-.25.25h-1.5A.25.25 0 0 1 7 4.75v-1.5A.25.25 0 0 1 7.25 3m4 0h1.5a.25.25 0 0 1 .25.25v1.5a.25.25 0 0 1-.25.25h-1.5a.25.25 0 0 1-.25-.25v-1.5a.25.25 0 0 1 .25-.25m0 4h1.5a.25.25 0 0 1 .25.25v1.5a.25.25 0 0 1-.25.25h-1.5a.25.25 0 0 1-.25-.25v-1.5a.25.25 0 0 1 .25-.25m-4 0h1.5a.25.25 0 0 1 .25.25v1.5a.25.25 0 0 1-.25.25h-1.5A.25.25 0 0 1 7 8.75v-1.5A.25.25 0 0 1 7.25 7m-4 0h1.5a.25.25 0 0 1 .25.25v1.5a.25.25 0 0 1-.25.25h-1.5A.25.25 0 0 1 3 8.75v-1.5A.25.25 0 0 1 3.25 7m0 4h1.5a.25.25 0 0 1 .25.25v1.5a.25.25 0 0 1-.25.25h-1.5a.25.25 0 0 1-.25-.25v-1.5a.25.25 0 0 1 .25-.25m4 0h1.5a.25.25 0 0 1 .25.25v1.5a.25.25 0 0 1-.25.25h-1.5a.25.25 0 0 1-.25-.25v-1.5a.25.25 0 0 1 .25-.25m4 0h1.5a.25.25 0 0 1 .25.25v1.5c0 .139-.111.25-.25.25h-1.5a.25.25 0 0 1-.25-.25v-1.5a.25.25 0 0 1 .25-.25" class="ColorScheme-Text" style="fill:currentColor" fill="currentColor"/>
</svg>
