<?xml version='1.0' encoding='ASCII'?>
<svg xmlns="http://www.w3.org/2000/svg" width="16" height="16">
<defs><style id="current-color-scheme" type="text/css">.ColorScheme-Contrast{color:#dedede; fill:currentColor;}</style></defs><path fill="currentColor" d="M5 3v1h9V3zm0 4v1h9V7zm0 4v1h9v-1z" color="#dedede" overflow="visible" class="ColorScheme-Contrast" style="fill:currentColor"/>
<path fill="currentColor" d="M2.5 2A1.5 1.5 0 0 0 1 3.5 1.5 1.5 0 0 0 2.5 5 1.5 1.5 0 0 0 4 3.5 1.5 1.5 0 0 0 2.5 2m-.012 1H2.5a.5.5 0 0 1 .5.5.5.5 0 0 1-.5.5.5.5 0 0 1-.5-.5.5.5 0 0 1 .488-.5M2.5 6A1.5 1.5 0 0 0 1 7.5 1.5 1.5 0 0 0 2.5 9 1.5 1.5 0 0 0 4 7.5 1.5 1.5 0 0 0 2.5 6m-.012 1H2.5a.5.5 0 0 1 .5.5.5.5 0 0 1-.5.5.5.5 0 0 1-.5-.5.5.5 0 0 1 .488-.5m.012 3A1.5 1.5 0 0 0 1 11.5 1.5 1.5 0 0 0 2.5 13 1.5 1.5 0 0 0 4 11.5 1.5 1.5 0 0 0 2.5 10m-.012 1H2.5a.5.5 0 0 1 .5.5.5.5 0 0 1-.5.5.5.5 0 0 1-.5-.5.5.5 0 0 1 .488-.5" style="paint-order:markers stroke fill;fill:currentColor" class="ColorScheme-Contrast"/>
</svg>
