<?xml version='1.0' encoding='ASCII'?>
<svg xmlns="http://www.w3.org/2000/svg" width="16" height="16">
<defs><style id="current-color-scheme" type="text/css">.ColorScheme-Contrast{color:#dedede; fill:currentColor;}</style></defs><path fill="currentColor" d="M11.5.416a44 44 0 0 0-1.334 2.26Q9.522 3.858 9 4.998h2V13h1V5h2a43 43 0 0 0-1.18-2.324A50 50 0 0 0 11.5.416M3 2v3h3V2zm1 1h1v1H4zM3 6v3h3V6zm1 1h1v1H4zm-1 3v3h3v-3zm1 1h1v1H4z" font-family="sans-serif" font-weight="400" overflow="visible" style="line-height:normal;font-variant-ligatures:none;font-variant-position:normal;font-variant-caps:normal;font-variant-numeric:normal;font-variant-alternates:normal;font-feature-settings:normal;text-indent:0;text-align:start;text-decoration-line:none;text-decoration-style:solid;text-decoration-text-transform:none;shape-padding:0;isolation:auto;mix-blend-mode:normal;marker:none;fill:currentColor" class="ColorScheme-Contrast"/>
</svg>
