<?xml version='1.0' encoding='ASCII'?>
<svg xmlns="http://www.w3.org/2000/svg" width="16" height="16">
<defs><style id="current-color-scheme" type="text/css">.ColorScheme-Text{color:#fcfcfc; fill:currentColor;}</style></defs><path fill="currentColor" d="M0 1v13h6c.975 0 1.602.8 1.602.8l.39.518.4-.51s.652-.793 1.612-.808H16V1h-6c-1.036 0-1.635.465-2 .82C7.635 1.465 7.036 1 6 1zm1 1h5c.983 0 1.6.799 1.6.799l.4.535.4-.535S9.017 2 10 2h5v11H9.992c-1.025.015-1.624.478-1.988.824A2.8 2.8 0 0 0 6 13H1zm1 2v1h4V4zm7 0v1h4V4zM2 6v1h4V6zm7 0v1h4V6zM2 8v1h4V8zm7 0v1h4V8zm-7 2v1h4v-1zm7 0v1h4v-1z" font-family="sans-serif" font-weight="400" overflow="visible" style="line-height:normal;font-variant-ligatures:none;font-variant-position:normal;font-variant-caps:normal;font-variant-numeric:normal;font-variant-alternates:normal;font-feature-settings:normal;text-indent:0;text-align:start;text-decoration-line:none;text-decoration-style:solid;text-decoration-text-transform:none;shape-padding:0;isolation:auto;mix-blend-mode:normal;marker:none;fill:currentColor" class="ColorScheme-Text"/>
</svg>
