<?xml version='1.0' encoding='ASCII'?>
<svg xmlns="http://www.w3.org/2000/svg" viewBox="0 0 16 16">
<defs><style id="current-color-scheme" type="text/css">.ColorScheme-Text{color:#fcfcfc; fill:currentColor;}</style></defs><g fill="currentColor" class="ColorScheme-Text" style="fill:currentColor">
<path d="M2 1C.892 1 0 1.892 0 3v10c0 1.108.892 2 2 2h11c1.108 0 2-.892 2-2V3c0-1.108-.892-2-2-2zm0 3h11c.554 0 1 .446 1 1v8c0 .554-.446 1-1 1H2c-.554 0-1-.446-1-1V5c0-.554.446-1 1-1" class="ColorScheme-Text" fill="currentColor" style="fill:currentColor"/>
<rect width="7" height="4" x="4" y="6" stroke-width="2.646" ry=".8" class="ColorScheme-Text" fill="currentColor" style="fill:currentColor"/>
<rect width="2" height="2" x="11" y="10" ry=".5" class="ColorScheme-Text" fill="currentColor" style="fill:currentColor"/>
<rect width="2" height="2" x="2" y="10" ry=".5" class="ColorScheme-Text" fill="currentColor" style="fill:currentColor"/>
</g>
</svg>
