<?xml version='1.0' encoding='ASCII'?>
<svg xmlns="http://www.w3.org/2000/svg" viewBox="0 0 16 16">
<defs><style id="current-color-scheme" type="text/css">.ColorScheme-Text{color:#fcfcfc; fill:currentColor;}</style></defs><g fill="currentColor" class="ColorScheme-Text" style="fill:currentColor">
<path d="M2 2C.892 2 0 2.892 0 4v9.055c0 1.108.892 2 2 2h12c1.108 0 2-.892 2-2V4c0-1.108-.892-2-2-2zm0 1h12c.554 0 1 .446 1 1v9.055c0 .554-.446 1-1 1H2c-.554 0-1-.446-1-1V4c0-.554.446-1 1-1" class="ColorScheme-Text" fill="currentColor" style="fill:currentColor"/>
<rect width="1" height="16" x="-7" class="ColorScheme-Text" ry="0" transform="rotate(-90)" fill="currentColor" style="fill:currentColor"/>
<rect width="1" height="7.76" x="5" y="7" class="ColorScheme-Text" ry="0" fill="currentColor" style="fill:currentColor"/>
</g>
</svg>
