<?xml version='1.0' encoding='ASCII'?>
<svg xmlns="http://www.w3.org/2000/svg" viewBox="0 0 16 16">
<defs><style id="current-color-scheme" type="text/css">.ColorScheme-Contrast{color:#dedede; fill:currentColor;}</style></defs><path d="M3 2v1.092a1.492 1.492 0 0 0 0 2.816V14h1V5.908a1.49 1.49 0 0 0 0-2.816V2zm4.5 0v8.092a1.492 1.492 0 0 0 0 2.816V14h1v-1.092a1.492 1.492 0 0 0 0-2.816V2zM12 2v4.092a1.492 1.492 0 0 0 0 2.816V14h1V8.908a1.492 1.492 0 0 0 0-2.816V2z" class="ColorScheme-Contrast" style="fill-opacity:1;stroke:none;fill:currentColor" fill="currentColor"/>
</svg>
