<?xml version='1.0' encoding='ASCII'?>
<svg xmlns="http://www.w3.org/2000/svg" width="16" height="16">
<defs><style id="current-color-scheme" type="text/css">.ColorScheme-Text{color:#fcfcfc; fill:currentColor;}</style></defs><path fill="currentColor" d="M2 2v4h4V2zm6 0v1h1V2zm0 1H7v2h1zm0 2v1h1V5zm0 1H7v1h1zm0 1v2h2V8H9V7zm2 1h1V7h-1zm1 0v1h1V8zm1 0h1V7h-1zm1 0v1h-1v1h2V8zm-1 2h-2v2h2zm-2 2H9v1h1zm0 1v1h1v-1zm-1 0H8v1h1zm-1 0v-2H7v2zm0-2h1v-1H8zM7 7H5v1h1v1h1zM5 8H3v1h2zM3 8V7H2v1zm7-6v4h4V2zM3 3h2v2H3zm8 0h2v2h-2zm-9 7v4h4v-4zm1 1h2v2H3zm10 0v2h1v-2zm0 2h-1v1h1z" class="ColorScheme-Text" style="fill:currentColor"/>
</svg>
