<?xml version='1.0' encoding='ASCII'?>
<svg xmlns="http://www.w3.org/2000/svg" width="16" height="16">
<defs><style id="current-color-scheme" type="text/css">.ColorScheme-Text{color:#fcfcfc; fill:currentColor;}</style></defs><g stroke-linecap="round" stroke-linejoin="round" class="ColorScheme-Text" fill="currentColor" style="fill:currentColor">
<path d="M366 60a2 2 0 0 0-2 2 2 2 0 0 0 .88 1.654l2.15 6.014a.5.5 0 0 0 .47.332h4.176l1.867 4.203a.5.5 0 0 0 .457.297h1.5a.5.5 0 0 0 .5-.5.5.5 0 0 0-.5-.5h-1.176l-1.867-4.203A.5.5 0 0 0 372 69h-4.148l-.713-2h4.361a.499.499 0 1 0 0-1h-4.719l-.715-2.004A2 2 0 0 0 368 62a2 2 0 0 0-2-2m0 1a1 1 0 0 1 1 1 1 1 0 0 1-1 1 1 1 0 0 1-1-1 1 1 0 0 1 1-1" class="ColorScheme-Text" style="fill:currentColor" transform="translate(-360 -60.011)" fill="currentColor"/>
<path d="M364.45 65.41a5.5 5.5 0 0 0-3.447 5.09 5.5 5.5 0 0 0 5.5 5.5 5.5 5.5 0 0 0 5.146-3.6l-.62-1.4h-.065a4.5 4.5 0 0 1-4.461 4 4.5 4.5 0 0 1-4.5-4.5 4.5 4.5 0 0 1 2.785-4.145z" opacity=".35" class="ColorScheme-Text" style="fill:currentColor" transform="translate(-360 -60.011)" fill="currentColor"/>
</g>
</svg>
