<?xml version='1.0' encoding='ASCII'?>
<svg xmlns="http://www.w3.org/2000/svg" width="16" height="16">
<defs><style id="current-color-scheme" type="text/css">.ColorScheme-Contrast{color:#dedede; fill:currentColor;}</style></defs><path d="M9.156 4.994C8.516 4.994 8 5.511 8 6.152V7.84c0 .64.515 1.154 1.156 1.154h4.688c.64 0 1.156-.513 1.156-1.154V6.152c0-.64-.515-1.158-1.156-1.158zm-.047 1h4.782c.06 0 .109.051.109.111v1.782a.11.11 0 0 1-.11.109H9.11a.11.11 0 0 1-.11-.11v-1.78c0-.06.05-.112.11-.112m-5.935 4c-.641 0-1.156.518-1.156 1.158v1.688c0 .64.516 1.154 1.156 1.154H13.86c.64 0 1.156-.514 1.156-1.154v-1.688c0-.64-.516-1.158-1.156-1.158zM3 11h11v2H3zm4.792-9.206L4 5.586 2.211 3.773l-.706.691L4 7l4.498-4.5z" class="ColorScheme-Contrast" style="fill:currentColor" fill="currentColor"/>
</svg>
