<?xml version='1.0' encoding='ASCII'?>
<svg xmlns="http://www.w3.org/2000/svg" width="16" height="16">
<defs><style id="current-color-scheme" type="text/css">.ColorScheme-Text{color:#fcfcfc; fill:currentColor;}</style></defs><path d="M3 1c-1.108 0-2 .892-2 2v10c0 1.108.892 2 2 2h10c1.108 0 2-.892 2-2V3c0-1.108-.892-2-2-2zm0 1h10c.554 0 1 .446 1 1v2H2V3c0-.554.446-1 1-1m5 1v1h1V3zm2 0v1h1V3zm2 0v1h1V3zM2 6h12v7c0 .554-.446 1-1 1H3c-.554 0-1-.446-1-1z" class="ColorScheme-Text" style="fill:currentColor" fill="currentColor"/>
</svg>
