<?xml version='1.0' encoding='ASCII'?>
<svg xmlns="http://www.w3.org/2000/svg" width="16" height="16">
<defs><style id="current-color-scheme" type="text/css">.ColorScheme-Contrast{color:#dedede; fill:currentColor;}</style></defs><path d="M2 0C.892 0 0 .892 0 2v12c0 1.108.892 2 2 2h12c1.108 0 2-.892 2-2V2c0-1.108-.892-2-2-2zm0 1h12c.554 0 1 .446 1 1v12c0 .554-.446 1-1 1H2c-.554 0-1-.446-1-1V2c0-.554.446-1 1-1" class="ColorScheme-Contrast" style="opacity:1;fill-rule:evenodd;stroke:none;stroke-linecap:square;stop-fill:currentColor" fill="currentColor"/>
<rect width="12" height="1" x="2" y="2" rx="0" ry="0" style="opacity:1;fill-rule:evenodd;stroke:none;stroke-linecap:square;stop-fill:currentColor" class="ColorScheme-Contrast" fill="currentColor"/>
<path d="M10 6h1v6h-1z" style="opacity:1;fill-rule:evenodd;stroke:none;stroke-width:1;stroke-linecap:square;stop-fill:currentColor" class="ColorScheme-Contrast" fill="currentColor"/>
<path d="M7.728 0h5v1h-5z" style="opacity:1;fill-rule:evenodd;stroke:none;stroke-width:.912871;stroke-linecap:square;stop-fill:currentColor" transform="rotate(45)" class="ColorScheme-Contrast" fill="currentColor"/>
<path d="M-5-12.728h5v1h-5z" style="opacity:1;fill-rule:evenodd;stroke:none;stroke-width:.912871;stroke-linecap:square;stop-fill:currentColor" transform="scale(1 -1)rotate(45)" class="ColorScheme-Contrast" fill="currentColor"/>
</svg>
