<?xml version='1.0' encoding='ASCII'?>
<svg xmlns="http://www.w3.org/2000/svg" width="16" height="16">
<defs><style id="current-color-scheme" type="text/css">.ColorScheme-Text{color:#fcfcfc; fill:currentColor;}</style></defs><path d="M3 3C1.02 3 0 4.172 0 6.607V8.5A1.5 1.5 0 0 0 1.5 10 1.5 1.5 0 0 0 3 8.5 1.5 1.5 0 0 0 1.51 7l-.008-.402q0-1.422.338-1.952C2.066 4.293 2.453 4.037 3 4zm4 0C5.02 3 4 4.172 4 6.607V8.5A1.5 1.5 0 0 0 5.5 10 1.5 1.5 0 0 0 7 8.5 1.5 1.5 0 0 0 5.51 7l-.008-.402q0-1.422.338-1.952C6.066 4.293 6.453 4.037 7 4zm2.5 2A1.5 1.5 0 0 0 8 6.5 1.5 1.5 0 0 0 9.49 8l.008.402q0 1.422-.338 1.952c-.226.353-.613.609-1.16.646v1c1.98 0 3-1.172 3-3.607V6.5A1.5 1.5 0 0 0 9.5 5m4 0A1.5 1.5 0 0 0 12 6.5 1.5 1.5 0 0 0 13.49 8l.008.402q0 1.422-.338 1.952c-.226.353-.613.609-1.16.646v1c1.98 0 3-1.172 3-3.607V6.5A1.5 1.5 0 0 0 13.5 5" class="ColorScheme-Text" style="fill:currentColor" fill="currentColor"/>
</svg>
