<?xml version='1.0' encoding='ASCII'?>
<svg xmlns="http://www.w3.org/2000/svg" width="16" height="16">
<defs><style id="current-color-scheme" type="text/css">.ColorScheme-Contrast{color:#dedede; fill:currentColor;}</style></defs><path d="m7.01 0-.004.004C6.162 1.814 5.51 3.659 5.14 4.789c-1.22.001-3.227.047-5.14.295l.001.002v.002l.002.002v.002c1.46 1.361 3.014 2.55 3.975 3.252-.376 1.16-.954 3.084-1.309 4.98h.008C4.424 12.356 6.036 11.246 7 10.55l.088.06a4.5 4.5 0 0 1 .328-.994l-.414-.3-.586.423c-.476.344-1.396.888-2.13 1.368.232-.855.458-1.88.644-2.454l.222-.687-.584-.428c-.474-.346-1.275-1.053-1.959-1.603.885-.043 1.93-.144 2.534-.145l.722-.002.227-.687c.183-.558.608-1.538.92-2.358.314.828.733 1.79.92 2.364l.224.687.723.002c.588.002 1.652.103 2.53.147-.632.506-1.319 1.103-1.81 1.478A4.5 4.5 0 0 1 11.5 7a5 5 0 0 1 .293.01 35 35 0 0 0 2.223-1.914l-.002-.002h-.002l-.002-.002V5.09c-1.982-.243-3.938-.292-5.127-.295C8.506 3.636 7.839 1.742 7.012 0z" class="ColorScheme-Contrast" style="fill:currentColor" fill="currentColor"/>
<path class="ColorScheme-Contrast" style="fill:currentColor" d="M11.5 8A3.5 3.5 0 0 0 8 11.5a3.5 3.5 0 0 0 3.5 3.5 3.5 3.5 0 0 0 3.5-3.5A3.5 3.5 0 0 0 11.5 8M11 9h1v2h2v1h-2v2h-1v-2H9v-1h2z" fill="currentColor"/>
</svg>
