<?xml version='1.0' encoding='ASCII'?>
<svg xmlns="http://www.w3.org/2000/svg" width="16" height="16"><defs><style id="current-color-scheme" type="text/css">.ColorScheme-Contrast{color:#dedede; fill:currentColor;}</style></defs><path style="fill:currentColor" class="ColorScheme-Contrast" d="M12.803 2.197a7.5 7.5 0 0 0-10.606 0 7.5 7.5 0 0 0 0 10.606 7.5 7.5 0 0 0 10.606 0 7.5 7.5 0 0 0 0-10.606m-.707.707a6.5 6.5 0 0 1 0 9.192 6.5 6.5 0 0 1-9.192 0 6.5 6.5 0 0 1 0-9.192 6.5 6.5 0 0 1 9.192 0" style="fill:currentColor" class="ColorScheme-Contrast" fill="currentColor"/>"/&gt;<path d="M17.107-.5h6v1h-6zm-6.611-3.389h4v1h-4z" style="fill:currentColor" class="ColorScheme-Contrast" fill="currentColor"/>" transform="rotate(45)"/&gt;<path d="M3 7h9v1H3z" style="fill-rule:evenodd;stroke-width:1.89737;stroke-linecap:square;stop-fill:currentColor" class="ColorScheme-Contrast" fill="currentColor"/><path d="M-.111-14.496h4v1h-4z" style="fill:currentColor" class="ColorScheme-Contrast" fill="currentColor"/>" transform="scale(1 -1)rotate(45)"/&gt;<path d="M-.111 6.718h4v1h-4z" style="fill:currentColor" class="ColorScheme-Contrast" fill="currentColor"/>" transform="scale(-1 1)rotate(45)"/&gt;<path d="M-10.718-3.889h4v1h-4z" style="fill:currentColor" class="ColorScheme-Contrast" fill="currentColor"/>" transform="rotate(-135)"/&gt;</svg>
