<svg width="16" height="16" version="1.1" xmlns="http://www.w3.org/2000/svg"><defs><style type="text/css">.ColorScheme-Contrast{color:#dedede; fill:currentColor;}</style></defs><g transform="translate(.5 .5)"><path class="ColorScheme-Contrast" transform="translate(-75 -607.36)" d="m78 610.36h9v9h-9zm1 1v7h7v-7zm1 1h5v5h-5z" fill="#dedede"/><path class="ColorScheme-Contrast" d="m12.803 2.197a7.5 7.5 0 0 0-10.606 0 7.5 7.5 0 0 0 0 10.606 7.5 7.5 0 0 0 10.606 0 7.5 7.5 0 0 0 0-10.606m-0.707 0.707a6.5 6.5 0 0 1 0 9.192 6.5 6.5 0 0 1-9.192 0 6.5 6.5 0 0 1 0-9.192 6.5 6.5 0 0 1 9.192 0" fill="currentColor"/></g>"/" transform="rotate(45)"/</svg>
