<svg width="16" height="16" version="1.1" xmlns="http://www.w3.org/2000/svg"><defs><style type="text/css">.ColorScheme-Contrast{color:#dedede; fill:currentColor;}</style></defs> <g  class="ColorScheme-Contrast" style="fill:currentColor">
        "/" transform="rotate(45)"/<g transform="translate(.5 .5)" fill="currentColor"><path class="ColorScheme-Contrast" d="m12.803 2.197a7.5 7.5 0 0 0-10.606 0 7.5 7.5 0 0 0 0 10.606 7.5 7.5 0 0 0 10.606 0 7.5 7.5 0 0 0 0-10.606m-0.707 0.707a6.5 6.5 0 0 1 0 9.192 6.5 6.5 0 0 1-9.192 0 6.5 6.5 0 0 1 0-9.192 6.5 6.5 0 0 1 9.192 0"/><path class="ColorScheme-Contrast" d="m3 7h9v1h-9z" fill-rule="evenodd" stroke-linecap="square" stroke-width="1.8974"/></g>" transform="scale(1 -1)rotate(45)"/" transform="scale(-1 1)rotate(45)"/" transform="rotate(-135)"/</g></svg>
