<svg width="16" height="16" version="1.1" xmlns="http://www.w3.org/2000/svg"><defs><style type="text/css">.ColorScheme-Text{color:#fcfcfc; fill:currentColor;}</style></defs><g transform="translate(.5 .5)"><path class="ColorScheme-Text" transform="translate(-75 -587.36)" d="m78 590.36h1v1h-1zm2 0h1v1h-1zm2 0h1v1h-1zm2 0h1v1h-1zm2 0h1v1h-1zm-8 2h1v1h-1zm8 0h1v1h-1zm-8 2h1v1h-1zm8 0h1v1h-1zm-8 2h1v1h-1zm8 0h1v1h-1zm-8 2h1v1h-1zm2 0h1v1h-1zm2 0h1v1h-1zm2 0h1v1h-1zm2 0h1v1h-1z" fill="#fcfcfc"/><path class="ColorScheme-Text" d="m12.803 2.197a7.5 7.5 0 0 0-10.606 0 7.5 7.5 0 0 0 0 10.606 7.5 7.5 0 0 0 10.606 0 7.5 7.5 0 0 0 0-10.606m-0.707 0.707a6.5 6.5 0 0 1 0 9.192 6.5 6.5 0 0 1-9.192 0 6.5 6.5 0 0 1 0-9.192 6.5 6.5 0 0 1 9.192 0" fill="currentColor"/></g>"/" transform="rotate(45)"/</svg>
