<?xml version='1.0' encoding='ASCII'?>
<svg xmlns="http://www.w3.org/2000/svg" width="16" height="16">
<defs><style id="current-color-scheme" type="text/css">.ColorScheme-Contrast{color:#dedede; fill:currentColor;}</style></defs><path d="M7.463 1A7.5 7.5 0 0 0 0 8.5 7.5 7.5 0 0 0 7.5 16 7.5 7.5 0 0 0 15 8.5 7.5 7.5 0 0 0 7.5 1zM7.5 2A6.5 6.5 0 0 1 14 8.5 6.5 6.5 0 0 1 7.5 15 6.5 6.5 0 0 1 1 8.5 6.5 6.5 0 0 1 7.5 2" class="ColorScheme-Contrast" style="fill:currentColor" fill="currentColor"/>
<path class="ColorScheme-Contrast" style="fill:currentColor" d="M4 8h7v1H4z" fill="currentColor"/>
</svg>
