<?xml version='1.0' encoding='ASCII'?>
<svg xmlns="http://www.w3.org/2000/svg" width="16" height="16">
<defs><style id="current-color-scheme" type="text/css">.ColorScheme-Contrast{color:#dedede; fill:currentColor;}</style></defs><path d="M12.803 2.197a7.5 7.5 0 0 0-10.606 0 7.5 7.5 0 0 0 0 10.606 7.5 7.5 0 0 0 10.606 0 7.5 7.5 0 0 0 0-10.606m-.707.707a6.5 6.5 0 0 1 0 9.192 6.5 6.5 0 0 1-9.192 0 6.5 6.5 0 0 1 0-9.192 6.5 6.5 0 0 1 9.192 0" class="ColorScheme-Contrast" style="fill:currentColor" fill="currentColor"/>
<path d="M17.107-.5h6v1h-6z" class="ColorScheme-Contrast" style="fill:currentColor" transform="rotate(45)" fill="currentColor"/>
</svg>
