<?xml version="1.0" encoding="UTF-8" standalone="no"?>
<svg
   xmlns:dc="http://purl.org/dc/elements/1.1/"
   xmlns:cc="http://creativecommons.org/ns#"
   xmlns:rdf="http://www.w3.org/1999/02/22-rdf-syntax-ns#"
   xmlns:svg="http://www.w3.org/2000/svg"
   xmlns="http://www.w3.org/2000/svg"
   xmlns:sodipodi="http://sodipodi.sourceforge.net/DTD/sodipodi-0.dtd"
   xmlns:inkscape="http://www.inkscape.org/namespaces/inkscape"
   width="32"
   height="32"
   version="1.1"
   id="svg1367"
   sodipodi:docname="usb-creator-gtk.svg"
   inkscape:version="0.92.4 (5da689c313, 2019-01-14)">
  <metadata
     id="metadata1371">
    <rdf:RDF>
      <cc:Work
         rdf:about="">
        <dc:format>image/svg+xml</dc:format>
        <dc:type
           rdf:resource="http://purl.org/dc/dcmitype/StillImage" />
        <dc:title></dc:title>
      </cc:Work>
    </rdf:RDF>
  </metadata>
  <sodipodi:namedview
     pagecolor="#ffffff"
     bordercolor="#666666"
     borderopacity="1"
     objecttolerance="10"
     gridtolerance="10"
     guidetolerance="10"
     inkscape:pageopacity="0"
     inkscape:pageshadow="2"
     inkscape:window-width="1366"
     inkscape:window-height="706"
     id="namedview1369"
     showgrid="false"
     inkscape:zoom="4.9166667"
     inkscape:cx="12.949132"
     inkscape:cy="19.999971"
     inkscape:window-x="-8"
     inkscape:window-y="-8"
     inkscape:window-maximized="1"
     inkscape:current-layer="g1365" />
  <defs
     id="defs1335">
    <linearGradient
       id="a"
       y1="543.79999"
       y2="515.79999"
       x2="0"
       gradientUnits="userSpaceOnUse"
       gradientTransform="matrix(1.125,0,0,1,-51.07,0)">
      <stop
         stop-color="#1d1e1e"
         id="stop1315" />
      <stop
         offset="1"
         stop-color="#44484c"
         id="stop1317" />
    </linearGradient>
    <linearGradient
       id="b"
       y1="525.79999"
       y2="503.79999"
       x2="0"
       gradientUnits="userSpaceOnUse">
      <stop
         stop-color="#c6cdd1"
         id="stop1320" />
      <stop
         offset="1"
         stop-color="#e0e5e7"
         id="stop1322" />
    </linearGradient>
    <linearGradient
       id="c"
       y1="14"
       x1="5"
       y2="36"
       x2="27"
       gradientUnits="userSpaceOnUse"
       gradientTransform="matrix(0.88,0,0,0.93333333,386.05068,501.15141)">
      <stop
         stop-color="#383e51"
         id="stop1325" />
      <stop
         offset="1"
         stop-color="#655c6f"
         stop-opacity="0"
         id="stop1327" />
    </linearGradient>
    <linearGradient
       id="d"
       y1="543.79999"
       y2="515.79999"
       gradientUnits="userSpaceOnUse"
       x2="0"
       gradientTransform="matrix(1.16129,0,0,1,-65.38,0)">
      <stop
         stop-color="#197cf1"
         id="stop1330" />
      <stop
         offset="1"
         stop-color="#20bcfa"
         id="stop1332" />
    </linearGradient>
  </defs>
  <g
     transform="matrix(0.78125,0,0,0.75,-302.2199,-376.3624)"
     id="g1365">
    <g
       id="g1343"
       style="stroke-width:2.79999995;stroke-opacity:0.55"
       transform="matrix(0.88,0,0,0.93333333,47.629079,34.671412)">
      <rect
         width="31"
         x="392.57001"
         y="525.79999"
         height="18"
         id="rect1337"
         style="fill:url(#a)" />
      <rect
         width="32"
         x="392.57001"
         y="542.79999"
         height="1"
         id="rect1339"
         style="fill:#202224" />
      <rect
         width="26"
         x="395.57001"
         y="503.79999"
         height="22"
         id="rect1341"
         style="fill:url(#b)" />
    </g>
    <path
       d="m 405.41068,511.41808 -6.16,6.53333 21.12,22.63334 v -15.1648 h -1.76 v -10.26667 l -3.52,-3.73333 h -6.16 v 3.73333 z"
       id="path1345"
       inkscape:connector-curvature="0"
       style="opacity:0.2;fill:url(#c);fill-rule:evenodd;stroke-width:0.90627444" />
    <g
       id="g1361"
       style="stroke-width:2.79999995;stroke-opacity:0.55"
       transform="matrix(0.88,0,0,0.93333333,47.629079,34.671412)">
      <g
         id="g1351"
         style="fill:#202224">
        <rect
           width="7"
           x="399.57001"
           y="510.79999"
           height="7"
           id="rect1347" />
        <rect
           width="7"
           x="410.57001"
           y="510.79999"
           height="7"
           id="rect1349" />
      </g>
      <g
         id="g1357"
         style="fill:#fdbc4a">
        <rect
           width="3"
           x="401.57001"
           y="510.79999"
           height="7"
           id="rect1353" />
        <rect
           width="3"
           x="412.57001"
           y="510.79999"
           height="7"
           id="rect1355" />
      </g>
      <rect
         width="32"
         x="392.57001"
         y="525.79999"
         height="18"
         id="rect1359"
         style="fill:url(#d)" />
    </g>
    <path
       d="m 405.85068,531.01808 a 0.44,0.46666667 0 0 0 -0.44,0.46667 0.44,0.46666667 0 0 0 0.44,0.46666 0.44,0.46666667 0 0 0 0.44,-0.46666 0.44,0.46666667 0 0 0 -0.44,-0.46667 m 2.2,0 -0.88,0.93333 0.88,0.93334 -0.88,0.93333 0.88,0.93333 1.76,-1.86666 z m -3.08,1.95964 a 0.44,0.46666667 0 0 0 -0.44,0.46666 0.44,0.46666667 0 0 0 0.44,0.46667 0.44,0.46666667 0 0 0 0.44,-0.46667 0.44,0.46666667 0 0 0 -0.44,-0.46666 m 1.32,1.77369 a 0.87998856,0.9333212 0 0 0 -0.88,0.93334 0.87998856,0.9333212 0 0 0 0.88,0.93333 0.87998856,0.9333212 0 0 0 0.88,-0.93333 0.87998856,0.9333212 0 0 0 -0.88,-0.93334"
       id="path1363"
       inkscape:connector-curvature="0"
       style="fill:#085ba7;fill-rule:evenodd;stroke-width:0.90627444" />
  </g>
  <rect
     style="opacity:1;fill:none;fill-opacity:1;stroke:#ffa900;stroke-width:2.85121107;stroke-miterlimit:4;stroke-dasharray:none;stroke-dashoffset:4.00629902;stroke-opacity:0"
     id="rect1916"
     width="29.148788"
     height="29.148788"
     x="2.5866892"
     y="2.7052002" />
</svg>
