<?xml version="1.0" encoding="UTF-8" standalone="no"?>
<svg
   xml:space="preserve"
   width="22"
   height="22"
   version="1.1"
   id="svg9"
   sodipodi:docname="webapps-symbolic.svg"
   inkscape:version="1.3.2 (091e20ef0f, 2023-11-25, custom)"
   viewBox="0 0 129.41176 129.41176"
   xmlns:inkscape="http://www.inkscape.org/namespaces/inkscape"
   xmlns:sodipodi="http://sodipodi.sourceforge.net/DTD/sodipodi-0.dtd"
   xmlns="http://www.w3.org/2000/svg"
   xmlns:svg="http://www.w3.org/2000/svg"><sodipodi:namedview
     id="namedview9"
     pagecolor="#ffffff"
     bordercolor="#000000"
     borderopacity="0.25"
     inkscape:showpageshadow="2"
     inkscape:pageopacity="0.0"
     inkscape:pagecheckerboard="0"
     inkscape:deskcolor="#d1d1d1"
     inkscape:zoom="12.664874"
     inkscape:cx="6.5535591"
     inkscape:cy="5.2902224"
     inkscape:window-width="1880"
     inkscape:window-height="892"
     inkscape:window-x="0"
     inkscape:window-y="0"
     inkscape:window-maximized="1"
     inkscape:current-layer="svg9" /><defs
     id="defs5"><linearGradient
       id="a"><stop
         offset=".164"
         style="stop-color:#6cace9;stop-opacity:1"
         id="stop1" /><stop
         offset=".5"
         style="stop-color:#4c92d6;stop-opacity:1"
         id="stop2" /><stop
         offset="1"
         style="stop-color:#0257a9;stop-opacity:1"
         id="stop3" /></linearGradient><linearGradient
       id="b"
       x1="12"
       x2="12"
       y1="0"
       y2="12"
       gradientTransform="matrix(6.40196,0,0,6.40196,0.001,0.001)"
       gradientUnits="userSpaceOnUse"><stop
         stop-color="#00A4DC"
         id="stop4" /><stop
         offset="1"
         stop-color="#069"
         id="stop5" /></linearGradient></defs><path
     d="M 114.64343,42.216898 H 92.273431 a 3.915,3.915 0 0 1 -3.888,-3.915 v -22.492 a 3.907,3.907 0 0 1 3.889,-3.907 h 22.368999 a 3.907,3.907 0 0 1 3.907,3.907 v 22.448 a 3.915,3.915 0 0 1 -3.907,3.96 z m -38.732999,0 h -22.326 a 3.924,3.924 0 0 1 -3.898,-3.915 v -22.492 a 3.915,3.915 0 0 1 3.898,-3.907 h 22.36 a 3.907,3.907 0 0 1 3.899,3.907 v 22.448 a 3.915,3.915 0 0 1 -3.933,3.96 z m -43.906,2.634 -21.27,-6.821 a 3.968,3.968 0 0 1 -2.5279998,-4.934 l 6.8129998,-21.35 a 3.95,3.95 0 0 1 4.907,-2.5470003 l 21.272,6.8480003 a 3.977,3.977 0 0 1 2.537,4.925 l -6.83,21.36 a 3.898,3.898 0 0 1 -4.899,2.52 z"
     style="fill:#d8d8d8;fill-opacity:1;stroke-width:0.877911"
     id="path6" /><path
     d="M 114.64343,119.5349 H 92.273431 a 3.907,3.907 0 0 1 -3.888,-3.907 V 93.135898 a 3.907,3.907 0 0 1 3.889,-3.906 h 22.368999 a 3.907,3.907 0 0 1 3.907,3.906 V 115.5929 a 3.907,3.907 0 0 1 -3.907,3.942 z m -38.732999,0 h -22.326 a 3.915,3.915 0 0 1 -3.898,-3.907 V 93.135898 a 3.915,3.915 0 0 1 3.898,-3.871 h 22.36 a 3.907,3.907 0 0 1 3.899,3.906 V 115.6279 a 3.907,3.907 0 0 1 -3.933,3.907 z M 114.64343,80.845898 H 92.273431 a 3.907,3.907 0 0 1 -3.888,-3.916 v -22.422 a 3.915,3.915 0 0 1 3.889,-3.915 h 22.368999 a 3.915,3.915 0 0 1 3.907,3.915 v 22.475 a 3.898,3.898 0 0 1 -3.907,3.863 z"
     style="fill:#a3a3a3;fill-opacity:1;stroke-width:0.877911"
     id="path7" /><path
     d="m 37.150431,119.5349 h -22.36 a 3.907,3.907 0 0 1 -3.899,-3.907 V 93.135898 a 3.907,3.907 0 0 1 3.898,-3.906 h 22.36 a 3.915,3.915 0 0 1 3.899,3.906 V 115.5929 a 3.915,3.915 0 0 1 -3.898,3.942 z m 0,-38.689002 h -22.36 a 3.907,3.907 0 0 1 -3.899,-3.916 v -22.422 a 3.915,3.915 0 0 1 3.898,-3.915 h 22.36 a 3.924,3.924 0 0 1 3.899,3.915 v 22.475 a 3.907,3.907 0 0 1 -3.898,3.863 z"
     style="fill:#8a8a8a;fill-opacity:1;stroke-width:0.877911"
     id="path8" /></svg>
