<?xml version="1.0" encoding="UTF-8" standalone="no"?>
<svg
   width="24"
   height="24"
   viewBox="0 0 24 24"
   fill="none"
   version="1.1"
   id="svg154"
   sodipodi:docname="2048-qt.svg"
   inkscape:version="1.2.2 (b0a8486541, 2022-12-01)"
   xmlns:inkscape="http://www.inkscape.org/namespaces/inkscape"
   xmlns:sodipodi="http://sodipodi.sourceforge.net/DTD/sodipodi-0.dtd"
   xmlns:xlink="http://www.w3.org/1999/xlink"
   xmlns="http://www.w3.org/2000/svg"
   xmlns:svg="http://www.w3.org/2000/svg"
   xmlns:sketch="http://www.bohemiancoding.com/sketch/ns">
  <sodipodi:namedview
     id="namedview156"
     pagecolor="#ffffff"
     bordercolor="#000000"
     borderopacity="1"
     inkscape:showpageshadow="0"
     inkscape:pageopacity="1"
     inkscape:pagecheckerboard="false"
     inkscape:deskcolor="#ffffff"
     showgrid="true"
     inkscape:zoom="22.627417"
     inkscape:cx="13.037281"
     inkscape:cy="10.717087"
     inkscape:window-width="1920"
     inkscape:window-height="1052"
     inkscape:window-x="0"
     inkscape:window-y="0"
     inkscape:window-maximized="1"
     inkscape:current-layer="g375"
     showguides="true"
     guidecolor="#ff0000"
     guideopacity="1"
     inkscape:lockguides="true"
     showborder="true"
     borderlayer="true">
    <inkscape:grid
       type="xygrid"
       id="grid356"
       color="#000000"
       opacity="0.10196078"
       empcolor="#000000"
       empopacity="0.10196078"
       snapvisiblegridlinesonly="true"
       enabled="true"
       visible="true"
       dotted="false" />
    <sodipodi:guide
       position="4.003125,23.042969"
       orientation="1,0"
       id="guide764"
       inkscape:locked="true" />
    <sodipodi:guide
       position="5.0007813,21.049219"
       orientation="1,0"
       id="guide2218"
       inkscape:locked="true" />
    <sodipodi:guide
       position="3.6445312,20"
       orientation="0,-1"
       id="guide2220"
       inkscape:locked="true" />
    <sodipodi:guide
       position="3.796875,5"
       orientation="0,-1"
       id="guide2222"
       inkscape:locked="true" />
    <sodipodi:guide
       position="3.625,4"
       orientation="0,-1"
       id="guide2224"
       inkscape:locked="true" />
    <sodipodi:guide
       position="19,4.8984375"
       orientation="1,0"
       id="guide2226"
       inkscape:locked="true" />
    <sodipodi:guide
       position="20,3.3312502"
       orientation="1,0"
       id="guide2228"
       inkscape:locked="true" />
    <sodipodi:guide
       position="22.875,19"
       orientation="0,-1"
       id="guide2230"
       inkscape:locked="true" />
  </sodipodi:namedview>
  <defs
     id="defs152">
    <radialGradient
       id="radialGradient1223"
       cx="0"
       cy="0"
       r="1"
       gradientUnits="userSpaceOnUse"
       gradientTransform="translate(12 1) rotate(90) scale(22)">
      <stop
         stop-color="#8FC8FF"
         id="stop1219"
         offset="0"
         style="stop-color:#f6f6f6;stop-opacity:1;" />
      <stop
         offset="1"
         stop-color="#0056A8"
         id="stop1221"
         style="stop-color:#cb7148;stop-opacity:1;" />
    </radialGradient>
    <radialGradient
       id="paint0_radial_29_23"
       cx="0"
       cy="0"
       r="1"
       gradientUnits="userSpaceOnUse"
       gradientTransform="translate(12 1) rotate(90) scale(22)">
      <stop
         stop-color="#8FC8FF"
         id="stop147"
         offset="0"
         style="stop-color:#f6f6f6;stop-opacity:1;" />
      <stop
         offset="1"
         stop-color="#0056A8"
         id="stop149"
         style="stop-color:#cfcfcf;stop-opacity:1;" />
    </radialGradient>
    <radialGradient
       id="paint0_radial_10_2"
       cx="0"
       cy="0"
       r="1"
       gradientUnits="userSpaceOnUse"
       gradientTransform="matrix(-10.999959,21.999967,-21.999967,-10.999959,17.5,1)"
       xlink:href="#paint0_radial_29_23">
      <stop
         stop-color="#777777"
         id="stop2847" />
      <stop
         offset="1"
         stop-color="#222222"
         id="stop2849" />
    </radialGradient>
  </defs>
  <path
     d="M 50,5 C 9.0909092,5 5,25.454546 5,50 5,82.727274 17.272728,95 50,95 82.727274,95 95,82.727274 95,50 95,25.454546 90.909093,5 50,5 Z"
     sketch:type="MSShapeGroup"
     id="path6"
     style="font-variation-settings:normal;display:inline;opacity:1;fill:#cb7148;fill-opacity:1;stroke:none;stroke-width:8.18182;stroke-linecap:square;stroke-linejoin:bevel;stroke-miterlimit:4;stroke-dasharray:none;stroke-dashoffset:0;stroke-opacity:1;paint-order:fill markers stroke;stop-color:#000000;stop-opacity:1"
     sodipodi:nodetypes="sssss"
     inkscape:label="Shape"
     transform="matrix(0.24444444,0,0,0.24444444,-0.22222222,-0.22222222)"
     sodipodi:insensitive="true" />
  <path
     d="M 12,2 C 2.9090909,2 2,6.5454547 2,12 2,19.272728 4.7272729,22 12,22 19.272728,22 22,19.272728 22,12 22,6.5454547 21.090909,2 12,2 Z"
     sketch:type="MSShapeGroup"
     id="path2113"
     style="font-variation-settings:normal;display:inline;opacity:1;fill:#ffffff;fill-opacity:1;stroke:none;stroke-width:1.81818;stroke-linecap:square;stroke-linejoin:bevel;stroke-miterlimit:4;stroke-dasharray:none;stroke-dashoffset:0;stroke-opacity:1;paint-order:fill markers stroke;stop-color:#000000;stop-opacity:1"
     sodipodi:nodetypes="sssss"
     inkscape:label="Shape"
     sodipodi:insensitive="true" />
  <g
     inkscape:groupmode="layer"
     id="layer4"
     inkscape:label="Colors References"
     style="display:none"
     sodipodi:insensitive="true"
     inkscape:highlight-color="#cc5ecc">
    <rect
       style="display:inline;fill:#3947be;fill-opacity:1;stroke-width:22.6872;paint-order:markers stroke fill"
       id="rect7816"
       width="1.9999923"
       height="2"
       x="12"
       y="-2.9999964"
       rx="0"
       ry="0"
       inkscape:label="Dark Blue" />
    <rect
       style="display:inline;fill:#6c7ad8;fill-opacity:1;stroke-width:22.6873;paint-order:markers stroke fill"
       id="rect7820"
       width="2"
       height="2.0000076"
       x="9"
       y="-3.0000041"
       rx="0"
       ry="0"
       inkscape:label="Blue" />
    <rect
       style="display:inline;fill:#33cc33;fill-opacity:1;stroke-width:22.6873;paint-order:markers stroke fill"
       id="rect7814"
       width="2"
       height="2.0000076"
       x="6"
       y="-3.0000041"
       rx="0"
       ry="0"
       inkscape:label="Green" />
    <rect
       style="display:inline;fill:#ffc328;fill-opacity:1;stroke-width:22.6872;paint-order:markers stroke fill"
       id="rect7824"
       width="1.9999926"
       height="2.0000002"
       x="3"
       y="-2.9999964"
       rx="0"
       ry="0"
       inkscape:label="Yellow" />
    <rect
       style="display:inline;fill:#cc5e55;fill-opacity:1;stroke-width:22.6873;paint-order:markers stroke fill"
       id="rect7822"
       width="2"
       height="2.0000076"
       x="0"
       y="-3.0000038"
       rx="0"
       ry="0"
       inkscape:label="Red" />
    <rect
       style="display:inline;fill:#0bb1cb;fill-opacity:1;stroke-width:22.6872;paint-order:markers stroke fill"
       id="rect3087"
       width="1.9999919"
       height="1.9999996"
       x="-3"
       y="12.000004"
       rx="0"
       ry="0"
       inkscape:label="Blue 4" />
    <rect
       style="display:inline;fill:#2a92c9;fill-opacity:1;stroke-width:22.6873;paint-order:markers stroke fill"
       id="rect3085"
       width="2"
       height="2.0000079"
       x="-3"
       y="8.9999962"
       rx="0"
       ry="0"
       inkscape:label="Blue 3" />
    <rect
       style="display:inline;fill:#006699;fill-opacity:1;stroke-width:22.6873;paint-order:markers stroke fill"
       id="rect3089"
       width="2"
       height="2.0000076"
       x="-3"
       y="6.0000038"
       rx="0"
       ry="0"
       inkscape:label="Blue 2" />
    <rect
       style="display:inline;fill:#002a44;fill-opacity:1;stroke-width:22.6873;paint-order:markers stroke fill"
       id="rect3083"
       width="2"
       height="2.0000076"
       x="-3"
       y="2.9999962"
       rx="0"
       ry="0"
       inkscape:label="Blue 1" />
    <rect
       style="display:inline;fill:#2c2d3d;fill-opacity:1;stroke-width:22.6873;paint-order:markers stroke fill"
       id="rect3456"
       width="2"
       height="2.0000076"
       x="-3"
       y="-3.8146973e-06"
       rx="0"
       ry="0"
       inkscape:label="Gray" />
    <rect
       style="display:inline;fill:#16171c;fill-opacity:1;stroke-width:22.6872;paint-order:markers stroke fill"
       id="rect3091"
       width="1.9999924"
       height="2"
       x="-3"
       y="-3"
       rx="0"
       ry="0"
       inkscape:label="Black" />
  </g>
  <g
     transform="matrix(3.779602,0,0,3.779602,-70.001774,-1116.5248)"
     id="g375">
    <g
       id="g640"
       transform="matrix(0.35000406,0,0,0.35000406,17.898944,191.16069)">
      <path
         d="m 6.2747512,301.62576 a 0.717,0.717 0 0 0 -0.718,0.718 v 3.59 c 0,0.399 0.32,0.719 0.718,0.719 h 3.59 c 0.3989998,0 0.7199998,-0.32 0.7199998,-0.718 v -3.591 a 0.717,0.717 0 0 0 -0.7199998,-0.718 z m 1.682,0.838 c 0.824,0 1.205,0.43 1.205,0.987 0,0.677 -0.662,1.29 -1.309,1.95 h 1.379 v 0.534 h -2.357 v -0.38 c 0.183,-0.173 0.391,-0.351 0.648,-0.618 0.494,-0.518 1.031,-1.012 1.031,-1.446 0,-0.277 -0.163,-0.45 -0.597,-0.45 -0.346,0 -0.622,0.139 -0.908,0.262 l -0.178,-0.529 c 0.237,-0.123 0.622,-0.31 1.086,-0.31 z"
         fill="#dee642"
         overflow="visible"
         style="isolation:auto;mix-blend-mode:normal"
         id="path369-3" />
      <path
         d="m 6.2747512,307.18176 a 0.717,0.717 0 0 0 -0.718,0.718 v 3.59 c 0,0.399 0.32,0.719 0.718,0.719 h 3.59 c 0.3989998,0 0.7199998,-0.32 0.7199998,-0.718 v -3.591 a 0.717,0.717 0 0 0 -0.7199998,-0.718 z m 1.82,0.882 h 0.82 v 2.153 h 0.597 v 0.543 h -0.597 v 0.73 h -0.607 v -0.73 h -1.644 v -0.43 z m 0.213,0.662 -0.07,0.148 -0.848,1.343 h 0.918 v -1.343 z"
         fill="#56c55c"
         overflow="visible"
         style="isolation:auto;mix-blend-mode:normal"
         id="path371-6" />
      <path
         d="m 11.831751,307.18176 a 0.717,0.717 0 0 0 -0.719,0.718 v 3.59 c 0,0.399 0.32,0.719 0.718,0.719 h 3.591 c 0.398,0 0.718,-0.32 0.718,-0.718 v -3.591 a 0.717,0.717 0 0 0 -0.718,-0.718 z m 1.75,0.837 c 0.843,0 1.229,0.346 1.229,0.884 0,0.271 -0.148,0.474 -0.4,0.672 0.41,0.222 0.592,0.543 0.592,0.888 0,0.534 -0.468,1.077 -1.392,1.077 -0.814,0 -1.417,-0.42 -1.417,-1.032 0,-0.36 0.237,-0.706 0.588,-0.918 a 0.846,0.846 0 0 1 -0.395,-0.697 c 0,-0.479 0.429,-0.874 1.194,-0.874 z m 0,0.544 c -0.337,0 -0.563,0.192 -0.563,0.38 0,0.281 0.41,0.405 0.695,0.484 0.326,-0.183 0.475,-0.297 0.475,-0.46 0,-0.271 -0.287,-0.404 -0.608,-0.404 z m -0.065,1.18 c -0.444,0.123 -0.7,0.405 -0.7,0.671 0,0.287 0.3,0.563 0.819,0.563 0.469,0 0.74,-0.252 0.74,-0.543 0,-0.395 -0.394,-0.573 -0.859,-0.692 z"
         fill="#f19d1e"
         overflow="visible"
         style="isolation:auto;mix-blend-mode:normal"
         id="path373-7" />
    </g>
  </g>
</svg>
