<svg width="24" height="24" viewBox="0 0 24 24" fill="none" xmlns="http://www.w3.org/2000/svg">
<path opacity="0.8125" fill-rule="evenodd" clip-rule="evenodd" d="M9.93969 1.06779C9.83043 1.0996 9.71588 1.11486 9.59604 1.11359C8.8536 1.17326 8.12049 1.29157 7.39669 1.46852C4.2905 2.20701 2.33171 4.11908 1.52031 7.20471C1.17352 8.6385 1.00008 10.0914 1 11.5632C1 11.5642 1 11.5651 1 11.566C1.00001 11.7073 1.00162 11.8489 1.00483 11.9906C0.974199 13.5124 1.12311 15.0161 1.45158 16.5017C2.22559 19.8018 4.26839 21.8208 7.57997 22.5585C9.0075 22.8522 10.4466 22.9994 11.8972 23C11.903 23 11.9087 23 11.9145 23C12.2864 22.9999 12.6591 22.9901 13.0325 22.9706C14.6647 22.943 16.2531 22.6682 17.7978 22.1463C19.704 21.447 21.0824 20.1761 21.933 18.3336C22.3917 17.271 22.6895 16.1642 22.8265 15.0133C22.9421 13.9799 22.9999 12.945 23 11.9087C23 11.9066 23 11.9045 23 11.9024C22.9999 11.2988 22.9803 10.6946 22.9411 10.09C22.8639 8.78021 22.6119 7.50549 22.185 6.26586C21.4386 4.2069 20.0525 2.76044 18.0269 1.9265C16.8085 1.46308 15.5484 1.18066 14.2467 1.07924C13.5023 1.02651 12.7578 1.00009 12.0133 1C12.0106 1 12.008 1 12.0054 1C11.3168 1.00009 10.6283 1.02268 9.93969 1.06779Z" fill="url(#paint0_linear_16_2)"/>
<path d="M10 4.75C10 4.33579 10.3358 4 10.75 4H16.6C19.0301 4 21 5.96995 21 8.4V16.6C21 19.0301 19.0301 21 16.6 21H10V4.75Z" fill="#FFD351"/>
<path d="M3 7.4C3 4.96995 4.96995 3 7.4 3H12C12.5523 3 13 3.44772 13 4V20.25C13 20.6642 12.6642 21 12.25 21H7.4C4.96995 21 3 19.0301 3 16.6V7.4Z" fill="#7BD57D"/>
<path d="M7 7C7 6.44772 7.44772 6 8 6H16C16.5523 6 17 6.44772 17 7V21H7V7Z" fill="#707ED0"/>
<path opacity="0.875" fill-rule="evenodd" clip-rule="evenodd" d="M1 11.5643C1 10.0921 1.17344 8.63885 1.52031 7.20471C1.59319 6.92757 1.67532 6.65989 1.76671 6.40168C2.31744 5.78687 3.11745 5.4 4.00781 5.4H8.19048C9.265 5.4 10.3068 5.76994 11.1406 6.44762C11.9745 7.1253 13.0162 7.49524 14.0908 7.49524H19.9922C21.4196 7.49524 22.6149 8.48962 22.9229 9.82347C22.9298 9.91215 22.9358 10.001 22.9411 10.09C22.9803 10.6946 22.9999 11.2988 23 11.9024C23 11.9045 23 11.9066 23 11.9087C22.9999 12.945 22.9421 13.9799 22.8265 15.0133C22.6895 16.1642 22.3917 17.271 21.933 18.3336C21.0824 20.1761 19.704 21.447 17.7978 22.1463C16.2531 22.6682 14.6647 22.943 13.0325 22.9706C12.658 22.9901 12.2843 22.9999 11.9114 23C11.9078 23 11.9041 23 11.9005 23C10.4488 22.9996 9.00859 22.8525 7.57997 22.5585C4.26839 21.8208 2.22559 19.8018 1.45158 16.5017C1.12311 15.0161 0.974199 13.5124 1.00483 11.9906C1.00161 11.8483 1 11.7062 1 11.5643Z" fill="url(#paint1_linear_16_2)"/>
<path opacity="0.125" fill-rule="evenodd" clip-rule="evenodd" d="M1 11.5643C1 10.0921 1.17344 8.63885 1.52031 7.20471C1.74189 6.36207 2.04904 5.60695 2.44175 4.93935C2.89791 4.66062 3.43411 4.5 4.00781 4.5H8.15619C9.25038 4.5 10.3087 4.89048 11.1406 5.60119C11.9726 6.3119 13.0309 6.70238 14.1251 6.70238H19.9922C21.2406 6.70238 22.3114 7.46295 22.7664 8.54601C22.8522 9.05514 22.9104 9.5698 22.9411 10.09C22.9803 10.6946 22.9999 11.2988 23 11.9024C23 11.9045 23 11.9066 23 11.9087C22.9999 12.945 22.9421 13.9799 22.8265 15.0133C22.6895 16.1642 22.3917 17.271 21.933 18.3336C21.0824 20.1761 19.704 21.447 17.7978 22.1463C16.2531 22.6682 14.6647 22.943 13.0325 22.9706C12.6591 22.9901 12.2864 22.9999 11.9145 23C11.9087 23 11.903 23 11.8972 23C10.4466 22.9994 9.0075 22.8522 7.57997 22.5585C4.26839 21.8208 2.22559 19.8018 1.45158 16.5017C1.12311 15.0161 0.974199 13.5124 1.00483 11.9906C1.00161 11.8483 1 11.7062 1 11.5643Z" fill="url(#paint2_linear_16_2)" fill-opacity="0.875"/>
<path d="M15 16.8333C14.8153 16.8333 14.6667 17.0316 14.6667 17.2778V19.0556C14.6667 19.3018 14.8153 19.5 15 19.5H18.6667C18.8513 19.5 19 19.3018 19 19.0556V17.2778C19 17.0316 18.8513 16.8333 18.6667 16.8333H15ZM15 17.2769H15.6667V19.0547H15V17.2769ZM16 17.2778H16.3333V19.0556H16V17.2778ZM16.6667 17.2778H17V19.0556H16.6667V17.2778ZM17.3333 17.2778H18V19.0556H17.3333V17.2778ZM18.3333 17.2778H18.6667V19.0556H18.3333V17.2778ZM6 15.5L5.33333 16.8333H5.66667V18.6111H6.33333V16.8333H6.66667L6 15.5ZM6.66667 16.8333H7V18.6111H7.66667V16.8333H8L7.33333 15.5L6.66667 16.8333ZM5 19.0556V19.5H8.33333V19.0556H5Z" fill="#FAFAFA"/>
<path d="M12.0125 11.875C12.228 11.875 12.4347 11.9606 12.587 12.113C12.7394 12.2653 12.825 12.472 12.825 12.6875V15.125C12.825 15.3405 12.7394 15.5472 12.587 15.6995C12.4347 15.8519 12.228 15.9375 12.0125 15.9375C11.797 15.9375 11.5903 15.8519 11.438 15.6995C11.2856 15.5472 11.2 15.3405 11.2 15.125V12.6875C11.2 12.472 11.2856 12.2653 11.438 12.113C11.5903 11.9606 11.797 11.875 12.0125 11.875ZM12.0125 14.7188C11.9048 14.7188 11.8014 14.7616 11.7252 14.8377C11.6491 14.9139 11.6062 15.0173 11.6062 15.125C11.6062 15.2327 11.6491 15.3361 11.7252 15.4123C11.8014 15.4884 11.9048 15.5312 12.0125 15.5312C12.1202 15.5312 12.2236 15.4884 12.2998 15.4123C12.3759 15.3361 12.4187 15.2327 12.4187 15.125C12.4187 15.0173 12.3759 14.9139 12.2998 14.8377C12.2236 14.7616 12.1202 14.7188 12.0125 14.7188ZM12.0125 7H11.2V7.8125H12.0125V7Z" fill="white"/>
<path opacity="0.75" d="M12.825 7.8125H12.0125V8.625H12.825V7.8125Z" fill="white"/>
<path d="M12.0125 8.625H11.2V9.4375H12.0125V8.625Z" fill="white"/>
<path opacity="0.75" d="M12.825 9.4375H12.0125V10.25H12.825V9.4375Z" fill="white"/>
<path d="M12.0125 10.25H11.2V11.0625H12.0125V10.25Z" fill="white"/>
<path opacity="0.75" d="M12.825 11.0625H12.0125V11.875H12.825V11.0625Z" fill="white"/>
<defs>
<linearGradient id="paint0_linear_16_2" x1="23" y1="0.999999" x2="1" y2="12" gradientUnits="userSpaceOnUse">
<stop stop-color="#E3C880"/>
<stop offset="1" stop-color="#6F5C38"/>
</linearGradient>
<linearGradient id="paint1_linear_16_2" x1="23" y1="5.4" x2="1.4295" y2="23.5115" gradientUnits="userSpaceOnUse">
<stop stop-color="#FFE795"/>
<stop offset="1" stop-color="#7A653E"/>
</linearGradient>
<linearGradient id="paint2_linear_16_2" x1="23" y1="9.23011" x2="1.01119" y2="9.72619" gradientUnits="userSpaceOnUse">
<stop stop-opacity="0.5"/>
<stop offset="1"/>
</linearGradient>
</defs>
</svg>
