<?xml version="1.0" encoding="UTF-8" standalone="no"?>
<svg
   width="24"
   height="24"
   viewBox="0 0 6.349875 6.349875"
   version="1.1"
   id="svg8713"
   sodipodi:docname="indicator-keylock.svg"
   inkscape:version="1.2.2 (b0a8486541, 2022-12-01)"
   xmlns:inkscape="http://www.inkscape.org/namespaces/inkscape"
   xmlns:sodipodi="http://sodipodi.sourceforge.net/DTD/sodipodi-0.dtd"
   xmlns="http://www.w3.org/2000/svg"
   xmlns:svg="http://www.w3.org/2000/svg">
  <defs
     id="defs8717">
    <radialGradient
       id="paint0_radial_2_129"
       cx="0"
       cy="0"
       r="1"
       gradientUnits="userSpaceOnUse"
       gradientTransform="matrix(0,5.8207186,-5.8207186,0,3.1749334,0.26459256)">
      <stop
         stop-color="#FAFAFA"
         id="stop8838" />
      <stop
         offset="1"
         stop-color="#B0B0B0"
         id="stop8840" />
    </radialGradient>
  </defs>
  <sodipodi:namedview
     id="namedview8715"
     pagecolor="#ffffff"
     bordercolor="#000000"
     borderopacity="0.25"
     inkscape:showpageshadow="2"
     inkscape:pageopacity="0.0"
     inkscape:pagecheckerboard="0"
     inkscape:deskcolor="#d1d1d1"
     showgrid="false"
     inkscape:zoom="13.65625"
     inkscape:cx="19.405034"
     inkscape:cy="8.9702517"
     inkscape:window-width="2560"
     inkscape:window-height="1000"
     inkscape:window-x="1680"
     inkscape:window-y="0"
     inkscape:window-maximized="1"
     inkscape:current-layer="svg8713" />
  <path
     fill-rule="evenodd"
     clip-rule="evenodd"
     d="m 2.6298231,0.28252566 c -0.028905,0.00842 -0.059212,0.012456 -0.09092,0.01212 -0.196436,0.01579 -0.3904035,0.047087 -0.5819025,0.093907 C 1.135168,0.58394096 0.616915,1.0898328 0.4022388,1.906223 c -0.100626,0.41602 -0.146085,0.8380909 -0.136384,1.2662577 -0.0081,0.4026349 0.03129,0.8004811 0.1182,1.1935383 0.2047832,0.8731343 0.745266,1.4073172 1.6214403,1.6024972 0.4760184,0.09795 0.9568759,0.134299 1.4426148,0.108979 0.4318445,-0.0073 0.8521003,-0.08001 1.2607942,-0.218091 C 5.2132429,5.6743842 5.5779374,5.3381319 5.8029875,4.8506468 5.924323,4.5695061 6.0031409,4.276671 6.0393881,3.972168 6.0878321,3.5389214 6.0979391,3.1047222 6.0697091,2.6695706 6.0492837,2.3230367 5.98261,1.9857711 5.8696616,1.6577894 5.6721805,1.1130337 5.3054488,0.73033476 4.7695193,0.50968976 4.4471573,0.38707896 4.1137624,0.31235416 3.7693611,0.28552596 c -0.3798283,-0.026881 -0.7596567,-0.027891 -1.139538,-0.003 z"
     fill="url(#paint0_radial_2_129)"
     id="path8836"
     style="fill:url(#paint0_radial_2_129);stroke-width:0.264578"
     sodipodi:nodetypes="cccccccccccccccc" />
  <g
     id="g771"
     transform="matrix(0.92930758,0,0,0.92930758,0.22444403,0.22444397)">
    <rect
       x="1.0396533"
       y="2.3841636"
       width="2.9260583"
       height="2.9260583"
       rx="0.4743748"
       ry="0.4743748"
       fill="#f9f9f9"
       style="stroke-width:0.298913;paint-order:stroke markers fill"
       id="rect8703" />
    <path
       d="M 1.8219084,2.9293805 Q 1.9635931,3.095875 2.0550604,3.2791086 L 1.8966366,3.370576 Q 1.8135388,3.1876413 1.6724519,3.0208479 Z M 1.5056585,3.5451411 h 0.449565 V 4.5112279 L 2.1300876,4.3199233 2.238294,4.4197605 Q 2.121718,4.5778853 1.9217453,4.73601 L 1.7970986,4.6278035 V 3.6951954 H 1.5056585 Z M 2.2798429,3.3873151 H 2.5461743 L 2.5960928,3.1625326 H 2.2048158 V 3.0127772 h 1.173831 V 3.1622337 H 2.7628862 L 2.7126688,3.3873151 H 3.2208207 V 3.820141 H 3.4204946 V 3.9701953 H 2.1716364 V 3.820141 H 2.4466363 L 2.5046255,3.5373694 H 2.2798429 Z M 2.6128319,3.820141 H 3.0540273 V 3.5373694 H 2.6714188 Z M 3.3203588,4.1199506 V 4.8442165 H 3.1538643 V 4.73601 H 2.4633755 V 4.8442165 H 2.2965821 V 4.1199506 Z M 2.4630766,4.5862545 H 3.1538643 V 4.269407 H 2.4633755 Z"
       font-family="sans-serif"
       font-size="7.13px"
       font-weight="400"
       letter-spacing="0"
       opacity="0.25"
       word-spacing="0"
       aria-label="语"
       id="path8705"
       style="stroke-width:0.298913" />
    <rect
       x="2.3841634"
       y="1.0396532"
       width="2.9260583"
       height="2.9260583"
       rx="0.4743748"
       ry="0.4743748"
       fill="#498cd8"
       paint-order="stroke markers fill"
       id="rect8707"
       style="stroke-width:0.298913" />
    <path
       d="M 3.8470433,1.9331039 3.5618804,2.7063915 H 4.133103 Z M 3.7283749,1.7259572 H 3.9666085 L 4.5587549,3.2797065 H 4.3405485 L 4.1988638,2.8812556 H 3.4985109 L 3.3568262,3.2797065 H 3.1353317 Z"
       fill="#ffffff"
       font-family="sans-serif"
       font-size="7.13px"
       font-weight="400"
       letter-spacing="0"
       word-spacing="0"
       aria-label="A"
       id="path8711"
       style="stroke-width:0.298913" />
  </g>
</svg>
