<?xml version="1.0" encoding="UTF-8" standalone="no"?>
<svg
   width="24"
   height="24"
   viewBox="0 0 6.349875 6.349875"
   version="1.1"
   id="svg8397"
   sodipodi:docname="utilities-dictionary.svg"
   inkscape:version="1.2.2 (b0a8486541, 2022-12-01)"
   xmlns:inkscape="http://www.inkscape.org/namespaces/inkscape"
   xmlns:sodipodi="http://sodipodi.sourceforge.net/DTD/sodipodi-0.dtd"
   xmlns="http://www.w3.org/2000/svg"
   xmlns:svg="http://www.w3.org/2000/svg">
  <defs
     id="defs8401">
    <radialGradient
       fx="0"
       fy="0"
       cx="0"
       cy="0"
       r="1"
       gradientUnits="userSpaceOnUse"
       gradientTransform="matrix(0,5.8207184,-5.8207184,0,3.174815,0.264582)"
       spreadMethod="pad"
       id="radialGradient3666-6">
      <stop
         style="stop-color:#fbcfcf;stop-opacity:1;"
         offset="0"
         id="stop3662-7" />
      <stop
         style="stop-color:#f44040;stop-opacity:1;"
         offset="1"
         id="stop3664-5" />
    </radialGradient>
  </defs>
  <sodipodi:namedview
     id="namedview8399"
     pagecolor="#ffffff"
     bordercolor="#000000"
     borderopacity="0.25"
     inkscape:showpageshadow="2"
     inkscape:pageopacity="0.0"
     inkscape:pagecheckerboard="0"
     inkscape:deskcolor="#d1d1d1"
     showgrid="false"
     inkscape:zoom="6.828125"
     inkscape:cx="34.709382"
     inkscape:cy="25.043478"
     inkscape:window-width="2560"
     inkscape:window-height="998"
     inkscape:window-x="1680"
     inkscape:window-y="0"
     inkscape:window-maximized="1"
     inkscape:current-layer="svg8397" />
  <path
     d="m 2.538065,0.294917 c 0.031749,0 0.062088,-0.0042 0.091015,-0.01235 0.3802869,-0.02505 0.7605737,-0.02364 1.1398026,0.0028 0.3443042,0.02752 0.6776726,0.10195 1.0004579,0.224362 0.5358586,0.220482 0.9023876,0.603591 1.1009976,1.147916 0.111476,0.328077 0.178855,0.665679 0.199669,1.011394 0.02751,0.435672 0.01799,0.86958 -0.03034,1.303841 -0.03704,0.304442 -0.115708,0.596536 -0.237062,0.877694 C 5.5778911,5.338456 5.2127741,5.674647 4.7086643,5.859146 4.3005084,5.997079 3.8803583,6.070103 3.4475085,6.077158 2.9624487,6.103292 2.4816221,6.065891 2.0050286,5.968175 1.129804,5.773798 0.588301,5.239351 0.384399,4.365537 0.297619,3.972903 0.257402,3.574625 0.265868,3.172114 0.256368,2.744908 0.301498,2.321935 0.402391,1.905666 0.617228,1.09006 1.135448,0.584186 1.9566991,0.388751 2.1482536,0.341831 2.3426304,0.310081 2.5380654,0.294911 Z"
     style="fill:url(#radialGradient3666-6);fill-rule:evenodd;stroke:none;stroke-width:0.352683;stroke-dasharray:none"
     id="path3668" />
  <path
     id="path334"
     style="opacity:0.727273;mix-blend-mode:normal;fill:#f8f9f9;fill-opacity:1;stroke-width:0.637964;paint-order:stroke fill markers"
     d="m 4.3259452,0.367347 -0.027788,1.046911 c -0.014536,0.547626 0.4365716,1.000644 1.011043,1.016054 l 0.74696,0.02004 C 6.0291781,2.201729 5.9787351,1.957081 5.9045291,1.716664 5.7205081,1.16433 5.3641311,0.769185 4.8343442,0.533248 4.6680778,0.464707 4.4986853,0.410064 4.3259452,0.367347 Z" />
  <g
     fill="#ffffff"
     stroke-width="0.099"
     aria-label="Aa"
     id="g33325"
     transform="matrix(0.51839246,0,0,0.51839246,-0.76085479,-1.5156619)">
    <path
       d="M 7.94,10.253 7.409,11.695 H 8.474 Z M 7.72,9.866 h 0.444 l 1.105,2.899 H 8.86 L 8.596,12.021 H 7.29 L 7.026,12.765 H 6.613 Z m 2.944,1.807 q -0.433,0 -0.6,0.099 -0.167,0.099 -0.167,0.337 0,0.19 0.125,0.303 0.126,0.111 0.341,0.111 0.297,0 0.476,-0.21 0.18,-0.211 0.18,-0.56 v -0.08 z m 0.713,-0.148 v 1.24 h -0.358 v -0.33 q -0.122,0.199 -0.304,0.294 -0.183,0.093 -0.447,0.093 -0.334,0 -0.532,-0.186 -0.196,-0.189 -0.196,-0.503 0,-0.367 0.245,-0.553 0.246,-0.187 0.734,-0.187 h 0.5 v -0.035 q 0,-0.246 -0.163,-0.38 -0.16,-0.136 -0.454,-0.136 -0.186,0 -0.363,0.044 -0.177,0.045 -0.34,0.134 v -0.33 q 0.196,-0.075 0.38,-0.112 0.185,-0.04 0.36,-0.04 0.472,0 0.705,0.246 0.233,0.244 0.233,0.741 z"
       id="path33323" />
  </g>
  <path
     id="path33327"
     style="fill:#ffffff;fill-rule:evenodd;stroke:none;stroke-width:0.352683;stroke-dasharray:none;fill-opacity:1"
     d="M 2.6680017 0.2805975 C 2.6550878 0.28138719 2.642159 0.28181387 2.6292451 0.28266452 C 2.6003181 0.29081451 2.5700454 0.29506662 2.5382964 0.29506662 C 2.3428616 0.3102366 2.1485023 0.34167917 1.956948 0.38859912 C 1.8197806 0.42124115 1.6911913 0.4631778 1.5709326 0.51313687 L 1.5709326 2.5987566 L 2.1197255 2.049447 L 2.6680017 2.5977231 L 2.6680017 0.2805975 z " />
</svg>
