<svg width="24" height="24" viewBox="0 0 24 24" fill="none" xmlns="http://www.w3.org/2000/svg">
<path fill-rule="evenodd" clip-rule="evenodd" d="M9.3775 0.123915C9.50824 0.125307 9.6332 0.108652 9.75239 0.073954C11.3187 -0.0286516 12.8849 -0.0244899 14.451 0.0864444C15.871 0.197086 17.2456 0.505183 18.5748 1.01073C20.7846 1.92048 22.2966 3.49843 23.1109 5.74457C23.5766 7.0969 23.8516 8.4875 23.9357 9.91634C24.0521 11.7106 24.0105 13.5009 23.8107 15.2872C23.6612 16.5427 23.3363 17.7501 22.836 18.9094C21.9081 20.9194 20.4044 22.3058 18.3249 23.0687C16.6398 23.6381 14.9069 23.9378 13.1264 23.968C11.1236 24.0721 9.14087 23.9222 7.17815 23.5183C3.56552 22.7136 1.337 20.5111 0.49263 16.9109C0.134306 15.2903 -0.0281463 13.6499 0.00527377 11.9897C-0.0347169 10.2244 0.152728 8.4841 0.567607 6.76878C1.45278 3.40263 3.58964 1.31674 6.97821 0.511116C7.7678 0.318078 8.56756 0.18901 9.3775 0.123915Z" fill="url(#paint0_radial_4_408)"/>
<path fill-rule="evenodd" clip-rule="evenodd" d="M9.3775 0.123915C9.50824 0.125307 9.6332 0.108652 9.75239 0.073954C11.3187 -0.0286516 12.8849 -0.0244899 14.451 0.0864444C15.871 0.197086 17.2456 0.505183 18.5748 1.01073C20.7846 1.92048 22.2966 3.49843 23.1109 5.74457C23.5766 7.0969 23.8516 8.4875 23.9357 9.91634C24.0521 11.7106 24.0105 13.5009 23.8107 15.2872C23.6612 16.5427 23.3363 17.7501 22.836 18.9094C21.9081 20.9194 20.4044 22.3058 18.3249 23.0687C16.6398 23.6381 14.9069 23.9378 13.1264 23.968C11.1236 24.0721 9.14087 23.9222 7.17815 23.5183C3.56552 22.7136 1.337 20.5111 0.49263 16.9109C0.134306 15.2903 -0.0281463 13.6499 0.00527377 11.9897C-0.0347169 10.2244 0.152728 8.4841 0.567607 6.76878C1.45278 3.40263 3.58964 1.31674 6.97821 0.511116C7.7678 0.318078 8.56756 0.18901 9.3775 0.123915Z" fill="url(#paint1_radial_4_408)"/>
<path d="M6.375 3C6.02875 3 5.75 3.23563 5.75 3.52875V6.75H2.625C2.27875 6.75 2 7.02875 2 7.375C2 7.72125 2.27875 8 2.625 8H5.75V16.2212C5.75 16.515 6.02875 16.75 6.375 16.75H17V19.9712C17 20.265 17.2787 20.5 17.625 20.5C17.9713 20.5 18.25 20.2644 18.25 19.9712V16.75H21.375C21.7213 16.75 22 16.4712 22 16.125C22 15.7787 21.7213 15.5 21.375 15.5H18.25V7.27875C18.25 6.98562 17.9713 6.75 17.625 6.75H7V3.52875C7 3.23563 6.72125 3 6.375 3ZM7 8H17V15.5H7V8Z" fill="white"/>
<defs>
<radialGradient id="paint0_radial_4_408" cx="0" cy="0" r="1" gradientUnits="userSpaceOnUse" gradientTransform="translate(12) rotate(90) scale(24)">
<stop stop-color="#FFE698"/>
<stop offset="1" stop-color="#FBBF00"/>
</radialGradient>
<radialGradient id="paint1_radial_4_408" cx="0" cy="0" r="1" gradientUnits="userSpaceOnUse" gradientTransform="translate(12) rotate(90) scale(24)">
<stop stop-color="#D6B1FF"/>
<stop offset="1" stop-color="#A75DFA"/>
</radialGradient>
</defs>
</svg>
