<?xml version="1.0" encoding="UTF-8" standalone="no"?>
<!-- Created with Inkscape (http://www.inkscape.org/) -->

<svg
   width="24"
   height="24"
   viewBox="0 0 6.3499999 6.3500002"
   version="1.1"
   id="svg5"
   xml:space="preserve"
   sodipodi:docname="nmm_qt_client.svg"
   inkscape:version="1.3 (0e150ed6c4, 2023-07-21)"
   inkscape:export-filename="../../../../../../../../../Imagens/Big Icons/nmm_qt_client.pdf"
   inkscape:export-xdpi="96"
   inkscape:export-ydpi="96"
   xmlns:inkscape="http://www.inkscape.org/namespaces/inkscape"
   xmlns:sodipodi="http://sodipodi.sourceforge.net/DTD/sodipodi-0.dtd"
   xmlns="http://www.w3.org/2000/svg"
   xmlns:svg="http://www.w3.org/2000/svg"><sodipodi:namedview
     id="namedview7"
     pagecolor="#ffffff"
     bordercolor="#000000"
     borderopacity="0.25"
     inkscape:showpageshadow="2"
     inkscape:pageopacity="0.0"
     inkscape:pagecheckerboard="0"
     inkscape:deskcolor="#d1d1d1"
     inkscape:document-units="mm"
     showgrid="false"
     inkscape:zoom="9.0609641"
     inkscape:cx="33.329787"
     inkscape:cy="30.736244"
     inkscape:window-width="2560"
     inkscape:window-height="998"
     inkscape:window-x="0"
     inkscape:window-y="0"
     inkscape:window-maximized="1"
     inkscape:current-layer="svg5"><inkscape:page
       x="0"
       y="0"
       width="6.3499999"
       height="6.3500004"
       id="page1"
       margin="0"
       bleed="0" /></sodipodi:namedview><defs
     id="defs2"><radialGradient
       id="paint0_radial_8_160"
       cx="0"
       cy="0"
       r="1"
       gradientUnits="userSpaceOnUse"
       gradientTransform="matrix(0,5.8208333,-5.8208333,0,3.175,0.26458333)"><stop
         stop-color="#CCCCCC"
         id="stop6"
         offset="0"
         style="stop-color:#db6565;stop-opacity:1;" /><stop
         offset="1"
         stop-color="#777777"
         id="stop7"
         style="stop-color:#c04242;stop-opacity:1;" /></radialGradient><radialGradient
       fx="0"
       fy="0"
       cx="0"
       cy="0"
       r="1"
       gradientUnits="userSpaceOnUse"
       gradientTransform="matrix(0,16.5,-16.5,0,9,0.75)"
       spreadMethod="pad"
       id="radialGradient2"><stop
         style="stop-opacity:1;stop-color:#db6565"
         offset="0"
         id="stop1" /><stop
         style="stop-opacity:1;stop-color:#c04242"
         offset="1"
         id="stop2" /></radialGradient><radialGradient
       fx="0"
       fy="0"
       cx="0"
       cy="0"
       r="1"
       gradientUnits="userSpaceOnUse"
       gradientTransform="matrix(0,5.820833,-5.820833,0,19.525,0.26458366)"
       spreadMethod="pad"
       id="radialGradient2-9"><stop
         style="stop-opacity:1;stop-color:#db6565"
         offset="0"
         id="stop1-2" /><stop
         style="stop-opacity:1;stop-color:#c04242"
         offset="1"
         id="stop2-2" /></radialGradient></defs><g
     id="g1"
     inkscape:groupmode="layer"
     inkscape:label="1"
     transform="matrix(0.26458333,0,0,0.26458334,16.35,0)" /><g
     id="g2"
     transform="translate(-16.350125)"><path
       id="path2"
       d="m 18.888236,0.29492254 c 0.03175,0 0.06209,-0.004233 0.09102,-0.0123472 0.380294,-0.0250472 0.760588,-0.0236361 1.139825,0.002822 0.344311,0.0275167 0.677686,0.10195278 1.000477,0.22436666 0.53587,0.2204861 0.902406,0.6036027 1.10102,1.1479388 0.111477,0.3280833 0.178858,0.6656917 0.199672,1.0114139 0.02752,0.4356805 0.01799,0.8695971 -0.03034,1.3038666 -0.03704,0.3044472 -0.115711,0.5965472 -0.237067,0.877711 C 21.928124,5.338586 21.562999,5.6747832 21.05888,5.859286 20.650716,5.9972221 20.230557,6.0702471 19.797699,6.0773026 19.31263,6.1034086 18.831794,6.0660136 18.355191,5.9682943 17.479949,5.7739137 16.938435,5.2394554 16.73453,4.3656249 16.64775,3.9729833 16.60753,3.5746972 16.615996,3.1721778 c -0.0095,-0.4272139 0.03563,-0.8501944 0.136525,-1.2664722 0.214842,-0.8156222 0.733073,-1.32150549 1.554339,-1.51694437 0.191559,-0.0469194 0.385939,-0.0786694 0.581378,-0.0938389 z"
       style="fill:url(#radialGradient2-9);fill-rule:evenodd;stroke:none;stroke-width:0.352778" /><path
       id="path3"
       d="m 19.851672,1.4470947 c -0.07161,-0.019403 -0.14605,0.023283 -0.165453,0.094897 l -0.706966,2.7410832 c -0.01799,0.073025 0.02364,0.1474611 0.09666,0.1693333 l 1.620308,0.4504972 c 0.07161,0.019403 0.14605,-0.024694 0.165453,-0.096308 L 21.56864,2.0655142 C 21.58663,1.9924892 21.54536,1.9184059 21.47233,1.8961809"
       style="fill:#dcdcdc;fill-opacity:1;fill-rule:nonzero;stroke:none;stroke-width:0.352778" /><path
       id="path4"
       d="m 20.430228,2.5742197 -0.589492,0.4794249 0.279753,0.7221361 0.58808,-0.479425"
       style="fill:#db6565;fill-opacity:1;fill-rule:nonzero;stroke:none;stroke-width:0.352778" /><path
       id="path5"
       d="m 17.588955,1.8411475 c -0.07302,0.015169 -0.121355,0.085372 -0.110419,0.1583972 l 0.475544,2.7961165 c 0.01235,0.073025 0.08114,0.1224139 0.155575,0.1100667 l 1.652411,-0.301625 c 0.07302,-0.015169 0.121356,-0.085372 0.108656,-0.1598083 l -0.47378,-2.7947055 c -0.01235,-0.073025 -0.0829,-0.1227666 -0.155928,-0.1104194"
       style="fill:#f9f9f9;fill-opacity:1;fill-rule:nonzero;stroke:none;stroke-width:0.352778" /><path
       id="path6"
       d="m 18.4074,2.8691419 c -0.12947,0.023283 -0.216253,0.1488722 -0.191558,0.2783416 0.07585,0.3859389 0.60078,0.6050139 0.60078,0.6050139 0,0 0.406753,-0.3996972 0.330906,-0.7856361 C 19.121069,2.8373919 18.994422,2.7534308 18.864953,2.7795363 18.757355,2.8003502 18.677628,2.889603 18.669161,2.9986113 18.621183,2.9008919 18.513586,2.848328 18.4074,2.8691419 Z"
       style="fill:#d74949;fill-opacity:1;fill-rule:nonzero;stroke:none;stroke-width:0.352778" /></g></svg>
