<?xml version="1.0" encoding="UTF-8" standalone="no"?>
<svg
   width="24"
   height="24"
   viewBox="0 0 6.349875 6.349875"
   version="1.1"
   id="svg3"
   sodipodi:docname="io.designer.GravitDesigner.svg"
   inkscape:version="1.3 (0e150ed6c4, 2023-07-21)"
   xmlns:inkscape="http://www.inkscape.org/namespaces/inkscape"
   xmlns:sodipodi="http://sodipodi.sourceforge.net/DTD/sodipodi-0.dtd"
   xmlns="http://www.w3.org/2000/svg"
   xmlns:svg="http://www.w3.org/2000/svg">
  <defs
     id="defs3" />
  <sodipodi:namedview
     id="namedview3"
     pagecolor="#ffffff"
     bordercolor="#000000"
     borderopacity="0.25"
     inkscape:showpageshadow="2"
     inkscape:pageopacity="0.0"
     inkscape:pagecheckerboard="0"
     inkscape:deskcolor="#d1d1d1"
     inkscape:zoom="3.1679688"
     inkscape:cx="88.06905"
     inkscape:cy="-6.4710234"
     inkscape:window-width="2560"
     inkscape:window-height="998"
     inkscape:window-x="0"
     inkscape:window-y="0"
     inkscape:window-maximized="1"
     inkscape:current-layer="svg3" />
  <path
     d="m 2.5380665,0.29490713 c 0.031749,0 0.062088,-0.004233 0.091015,-0.012347 0.3802866,-0.0250468 0.7605735,-0.0236357 1.1398022,0.002822 C 4.1131882,0.31289845 4.4465566,0.38733309 4.769342,0.50974457 5.3052008,0.73022634 5.6717297,1.1133355 5.8703397,1.6576609 5.9818153,1.9857377 6.0491945,2.3233394 6.070008,2.6690548 6.0975242,3.1047268 6.0879993,3.5386349 6.0396697,3.9728959 6.0026288,4.2773371 5.9239609,4.5694313 5.8026078,4.8505897 5.5778927,5.3384717 5.2127749,5.6746623 4.7086654,5.8591614 4.3005095,5.9970948 3.8803595,6.0701184 3.4475097,6.0771739 2.9624497,6.1032788 2.4816231,6.0658852 2.0050298,5.9681676 1.1298053,5.7737909 0.58830208,5.2393431 0.38440054,4.3655297 0.29761892,3.9728959 0.25740304,3.5746176 0.26586954,3.172106 0.25634473,2.7449005 0.30149939,2.3219283 0.40239185,1.9056587 0.61722929,1.0900526 1.1354497,0.58417922 1.9567001,0.38874417 2.1482547,0.34182566 2.3426314,0.31007628 2.5380665,0.29490713 Z"
     style="fill:#eddf36;fill-opacity:1;fill-rule:evenodd;stroke:none;stroke-width:0.352771"
     id="path4714" />
  <path
     id="path7"
     style="fill:#c63166;fill-opacity:1;fill-rule:evenodd;stroke:none;stroke-width:0.352771"
     d="m 3.1992249,0.26457812 c -0.1900109,-5.2913e-4 -0.3798367,0.005563 -0.5699798,0.0180864 -0.021215,0.005951 -0.043411,0.009215 -0.066145,0.0108518 C 2.1113417,0.72801755 0.7722769,2.0574371 0.2914485,2.5481147 c -0.00283,0.027009 -0.00486,0.054077 -0.00723,0.08113 0.024467,-0.021116 0.047492,-0.040156 0.072862,-0.063044 0.05392,-0.04866 0.120174,-0.1062358 0.147792,-0.128155 0.02763,-0.021919 0.077941,-0.066023 0.1121355,-0.09715 C 0.711698,2.2532187 0.9363113,2.0541972 1.0025066,1.999838 1.0340696,1.97222 1.1600443,1.8622995 1.281037,1.7548965 1.4020296,1.6470551 1.5585936,1.5094744 1.6282958,1.448978 1.6984378,1.387604 1.8444593,1.256289 1.9523007,1.1554617 2.159654,0.96038291 2.8011839,0.39151721 2.8726398,0.33847333 c 0.022796,-0.0166585 0.04455,-0.0283895 0.048058,-0.025321 0.00658,0.007014 -0.033302,0.0745618 -0.1762132,0.29506662 A 802.99671,802.61007 0 0 0 1.6019379,2.3775858 L 1.0288575,3.2653695 0.453193,4.1572871 c -0.034494,0.05341 -0.056425,0.08764 -0.084747,0.1317723 0.00524,0.025546 0.010383,0.050981 0.016019,0.07648 0.078062,0.3345331 0.2061068,0.618665 0.3829149,0.8536778 a 3.1330995,3.1317845 0 0 0 0.212386,0.2361567 c 0.2654818,0.2484112 0.606702,0.4196678 1.0252402,0.5126201 0.3237431,0.066378 0.6495322,0.10449 0.9771821,0.1142027 0.00402,-0.064632 0.00723,-0.1096824 0.010852,-0.1731127 0.089429,-1.5970156 0.6337115,-3.538477 1.4960033,-5.34065413 0.029487,-0.0622538 0.055018,-0.0977343 0.073379,-0.1297053 C 4.3045316,0.35826347 4.0399865,0.30693034 3.7686882,0.28524859 3.5790741,0.27201979 3.3892361,0.26510759 3.1992249,0.26457812 Z" />
  <path
     d="m -7.5885063,0.27842963 a 2.9104381,2.9088085 0 0 0 -0.18618,0.0158884 2.9104381,2.9088085 0 0 1 0.18618,-0.0158884 z m -2.6888147,2.43582157 -4.07e-4,0.00122 a 2.9104381,2.9088085 0 0 0 -0.0069,0.041962 2.9104381,2.9088085 0 0 1 0.0077,-0.043184 z"
     fill="#d8d342"
     id="path6"
     style="stroke-width:0.927999" />
</svg>
