<svg width="24" height="24" viewBox="0 0 24 24" fill="none" xmlns="http://www.w3.org/2000/svg">
<path fill-rule="evenodd" clip-rule="evenodd" d="M9.59606 1.11363C9.7159 1.1149 9.83045 1.09964 9.9397 1.06782C11.3755 0.973743 12.8111 0.97756 14.2467 1.07916C15.5484 1.18056 16.8085 1.46299 18.0269 1.92641C20.0525 2.76036 21.4386 4.20681 22.185 6.26577C22.6119 7.50541 22.8639 8.78014 22.9411 10.0899C23.0478 11.7346 23.0096 13.3757 22.8265 15.0132C22.6895 16.1641 22.3916 17.2709 21.933 18.3335C21.0824 20.176 19.704 21.4469 17.7978 22.1462C16.2531 22.6681 14.6647 22.9429 13.0325 22.9705C11.1966 23.0662 9.37915 22.9288 7.57999 22.5586C4.2684 21.8209 2.22559 19.8019 1.45159 16.5018C1.1231 15.0162 0.974206 13.5125 1.00484 11.9907C0.968173 10.3724 1.13999 8.77714 1.52032 7.20475C2.33171 4.11912 4.2905 2.20705 7.3967 1.46856C8.12049 1.2916 8.85361 1.17331 9.59606 1.11363Z" fill="url(#paint0_radial_2_50)"/>
<path d="M11.9952 2.99999C10.2156 3.00095 8.4763 3.52949 6.99704 4.51872C5.51778 5.50795 4.36498 6.91347 3.68435 8.55771C3.00371 10.202 2.8258 12.0111 3.17309 13.7564C3.52038 15.5017 4.37729 17.105 5.6355 18.3634C6.89372 19.6218 8.49677 20.479 10.242 20.8266C11.9873 21.1742 13.7965 20.9966 15.4408 20.3163C17.0852 19.636 18.4909 18.4834 19.4804 17.0043C20.4699 15.5253 20.9987 13.786 21 12.0065L20.0816 11.088C19.8743 9.25623 19.0517 7.54895 17.7481 6.24542C16.4446 4.94188 14.7373 4.11925 12.9055 3.91201L11.9952 2.99999Z" fill="white"/>
<path d="M7.4284 17.3348V16.5717H13.905V17.3348H7.4284ZM7.4284 15.4299V14.6667H16.5717V15.4299H7.4284ZM7.4284 13.5249V12.7618H16.5717V13.5249H7.4284ZM7.4284 11.6199V10.8568H16.5717V11.6199H7.4284Z" fill="#CCCCCC"/>
<defs>
<radialGradient id="paint0_radial_2_50" cx="0" cy="0" r="1" gradientUnits="userSpaceOnUse" gradientTransform="translate(12 1.00004) rotate(90) scale(22 22)">
<stop stop-color="#8B9DFF"/>
<stop offset="1" stop-color="#202959"/>
</radialGradient>
</defs>
</svg>
