<?xml version="1.0" encoding="UTF-8" standalone="no"?>
<svg
   width="24"
   height="24"
   viewBox="0 0 6.349875 6.349875"
   version="1.1"
   id="svg917"
   sodipodi:docname="package_wordprocessing.svg"
   inkscape:version="1.2.2 (b0a8486541, 2022-12-01)"
   inkscape:export-filename="../../../../../../../../../Imagens/Big Icons/package_wordprocessing.pdf"
   inkscape:export-xdpi="96"
   inkscape:export-ydpi="96"
   xml:space="preserve"
   xmlns:inkscape="http://www.inkscape.org/namespaces/inkscape"
   xmlns:sodipodi="http://sodipodi.sourceforge.net/DTD/sodipodi-0.dtd"
   xmlns="http://www.w3.org/2000/svg"
   xmlns:svg="http://www.w3.org/2000/svg"><defs
     id="defs921"><radialGradient
       id="paint0_radial_29_149-5"
       cx="0"
       cy="0"
       r="1"
       gradientUnits="userSpaceOnUse"
       gradientTransform="matrix(0,150,-150,0,-278.33746,-123.84153)"><stop
         stop-color="#80D2FF"
         id="stop17930-62" /><stop
         offset="1"
         stop-color="#2991C9"
         id="stop17932-9"
         style="stop-color:#0083d0;stop-opacity:1;" /></radialGradient><radialGradient
       id="paint0_radial_29_149-5-6"
       cx="0"
       cy="0"
       r="1"
       gradientUnits="userSpaceOnUse"
       gradientTransform="matrix(0,150,-150,0,-278.33746,-123.84153)"><stop
         stop-color="#80D2FF"
         id="stop17930-62-7" /><stop
         offset="1"
         stop-color="#2991C9"
         id="stop17932-9-5"
         style="stop-color:#0083d0;stop-opacity:1;" /></radialGradient><radialGradient
       id="paint0_radial_29_23"
       cx="0"
       cy="0"
       r="1"
       gradientUnits="userSpaceOnUse"
       gradientTransform="matrix(0,5.8207268,-5.8207268,0,3.1749354,0.26459123)"><stop
         stop-color="#8FC8FF"
         id="stop184"
         offset="0"
         style="stop-color:#ffffff;stop-opacity:1;" /><stop
         offset="1"
         stop-color="#0056A8"
         id="stop186"
         style="stop-color:#bebebe;stop-opacity:1;" /></radialGradient><radialGradient
       id="paint0_radial_29_149-5-62"
       cx="0"
       cy="0"
       r="1"
       gradientUnits="userSpaceOnUse"
       gradientTransform="matrix(0,150,-150,0,-278.33746,-123.84153)"><stop
         stop-color="#80D2FF"
         id="stop17930-62-9" /><stop
         offset="1"
         stop-color="#2991C9"
         id="stop17932-9-1"
         style="stop-color:#0083d0;stop-opacity:1;" /></radialGradient><radialGradient
       fx="0"
       fy="0"
       cx="0"
       cy="0"
       r="1"
       gradientUnits="userSpaceOnUse"
       gradientTransform="matrix(0,16.500023,-16.500023,0,8.999994,0.750037)"
       spreadMethod="pad"
       id="radialGradient1469"><stop
         style="stop-opacity:1;stop-color:#ffffff"
         offset="0"
         id="stop1465" /><stop
         style="stop-opacity:1;stop-color:#bebebe"
         offset="1"
         id="stop1467" /></radialGradient><radialGradient
       fx="0"
       fy="0"
       cx="0"
       cy="0"
       r="1"
       gradientUnits="userSpaceOnUse"
       gradientTransform="matrix(0,8.249992,-8.250005,0,8.999992,0.750056)"
       spreadMethod="pad"
       id="radialGradient1487"><stop
         style="stop-opacity:1;stop-color:#80d2ff"
         offset="0"
         id="stop1483" /><stop
         style="stop-opacity:1;stop-color:#0083d0"
         offset="1"
         id="stop1485" /></radialGradient><radialGradient
       fx="0"
       fy="0"
       cx="0"
       cy="0"
       r="1"
       gradientUnits="userSpaceOnUse"
       gradientTransform="matrix(0,16.500023,-16.500023,0,8.999994,0.750037)"
       spreadMethod="pad"
       id="radialGradient1469-7"><stop
         style="stop-opacity:1;stop-color:#ffffff"
         offset="0"
         id="stop1465-0" /><stop
         style="stop-opacity:1;stop-color:#bebebe"
         offset="1"
         id="stop1467-9" /></radialGradient><radialGradient
       fx="0"
       fy="0"
       cx="0"
       cy="0"
       r="1"
       gradientUnits="userSpaceOnUse"
       gradientTransform="matrix(0,8.249992,-8.250005,0,8.999992,0.750056)"
       spreadMethod="pad"
       id="radialGradient1487-3"><stop
         style="stop-opacity:1;stop-color:#80d2ff"
         offset="0"
         id="stop1483-6" /><stop
         style="stop-opacity:1;stop-color:#0083d0"
         offset="1"
         id="stop1485-0" /></radialGradient></defs><sodipodi:namedview
     id="namedview919"
     pagecolor="#ffffff"
     bordercolor="#000000"
     borderopacity="0.25"
     inkscape:showpageshadow="2"
     inkscape:pageopacity="0.0"
     inkscape:pagecheckerboard="0"
     inkscape:deskcolor="#d1d1d1"
     showgrid="false"
     inkscape:zoom="6.828125"
     inkscape:cx="19.69794"
     inkscape:cy="35.514874"
     inkscape:window-width="2560"
     inkscape:window-height="1000"
     inkscape:window-x="1680"
     inkscape:window-y="0"
     inkscape:window-maximized="1"
     inkscape:current-layer="svg917" /><g
     id="g1453"
     transform="matrix(0.35277082,0,0,0.35277082,-1.1961624e-4,-9.2306512e-6)"><g
       id="g1455"><g
         id="g1457"><g
           id="g1463"><path
             d="m 7.195,0.836 c 0.09,0 0.176,-0.012 0.258,-0.035 1.078,-0.071 2.156,-0.067 3.231,0.008 0.976,0.078 1.921,0.289 2.836,0.636 1.519,0.625 2.558,1.711 3.121,3.254 0.316,0.93 0.507,1.887 0.566,2.867 0.078,1.235 0.051,2.465 -0.086,3.696 -0.105,0.863 -0.328,1.691 -0.672,2.488 -0.637,1.383 -1.672,2.336 -3.101,2.859 C 12.191,17 11,17.207 9.773,17.227 8.398,17.301 7.035,17.195 5.684,16.918 3.203,16.367 1.668,14.852 1.09,12.375 0.844,11.262 0.73,10.133 0.754,8.992 0.727,7.781 0.855,6.582 1.141,5.402 1.75,3.09 3.219,1.656 5.547,1.102 6.09,0.969 6.641,0.879 7.195,0.836 Z"
             style="fill:url(#radialGradient1469-7);fill-rule:evenodd;stroke:none"
             id="path1471" /></g></g></g><g
       id="g1473"><g
         id="g1475"><g
           id="g1481"><path
             d="m 7.195,0.836 c 0.09,0 0.176,-0.012 0.258,-0.035 1.078,-0.071 2.156,-0.067 3.231,0.008 0.976,0.078 1.921,0.289 2.836,0.636 1.519,0.625 2.558,1.711 3.121,3.254 0.316,0.93 0.507,1.887 0.566,2.867 0.078,1.235 0.051,2.465 -0.086,3.696 -0.105,0.863 -0.328,1.691 -0.672,2.488 -0.637,1.383 -1.672,2.336 -3.101,2.859 C 12.191,17 11,17.207 9.773,17.227 8.398,17.301 7.035,17.195 5.684,16.918 3.203,16.367 1.668,14.852 1.09,12.375 0.844,11.262 0.73,10.133 0.754,8.992 0.727,7.777 0.855,6.582 1.141,5.402 1.75,3.09 3.219,1.656 5.547,1.102 6.09,0.969 6.641,0.879 7.195,0.836 Z"
             style="fill:url(#radialGradient1487-3);fill-rule:evenodd;stroke:none"
             id="path1489" /></g></g></g><path
       d="m 8.996,3.375 c -2.273,0 -4.324,1.371 -5.195,3.473 -0.867,2.101 -0.387,4.519 1.222,6.129 1.606,1.609 4.024,2.089 6.129,1.222 2.102,-0.871 3.473,-2.922 3.473,-5.195 L 14.051,8.43 C 13.785,6.074 11.922,4.211 9.566,3.945 Z"
       style="fill:#ffffff;fill-opacity:1;fill-rule:nonzero;stroke:none"
       id="path1491" /><path
       d="m 5.785,12.75 v -0.535 h 4.555 v 0.535 z m 0,-1.34 v -0.535 h 6.43 v 0.535 z m 0,-1.34 V 9.535 h 6.43 v 0.535 z m 0,-1.336 V 8.195 h 6.43 v 0.539 z"
       style="fill:#cccccc;fill-opacity:1;fill-rule:nonzero;stroke:none"
       id="path1493" /></g></svg>
