<?xml version="1.0" encoding="UTF-8" standalone="no"?>
<svg
   width="24"
   height="24"
   viewBox="0 0 24 24"
   fill="none"
   version="1.1"
   id="svg154"
   sodipodi:docname="applications-science.svg"
   inkscape:version="1.2.2 (b0a8486541, 2022-12-01)"
   xmlns:inkscape="http://www.inkscape.org/namespaces/inkscape"
   xmlns:sodipodi="http://sodipodi.sourceforge.net/DTD/sodipodi-0.dtd"
   xmlns:xlink="http://www.w3.org/1999/xlink"
   xmlns="http://www.w3.org/2000/svg"
   xmlns:svg="http://www.w3.org/2000/svg"
   xmlns:sketch="http://www.bohemiancoding.com/sketch/ns">
  <sodipodi:namedview
     id="namedview156"
     pagecolor="#ffffff"
     bordercolor="#000000"
     borderopacity="1"
     inkscape:showpageshadow="0"
     inkscape:pageopacity="1"
     inkscape:pagecheckerboard="false"
     inkscape:deskcolor="#ffffff"
     showgrid="true"
     inkscape:zoom="22.627417"
     inkscape:cx="5.9883106"
     inkscape:cy="14.385204"
     inkscape:window-width="1920"
     inkscape:window-height="1052"
     inkscape:window-x="0"
     inkscape:window-y="0"
     inkscape:window-maximized="1"
     inkscape:current-layer="svg154"
     showguides="true"
     guidecolor="#ff0000"
     guideopacity="1"
     inkscape:lockguides="true"
     showborder="true"
     borderlayer="true">
    <inkscape:grid
       type="xygrid"
       id="grid356"
       color="#000000"
       opacity="0.10196078"
       empcolor="#000000"
       empopacity="0.10196078"
       snapvisiblegridlinesonly="true"
       enabled="true"
       visible="true"
       dotted="false" />
    <sodipodi:guide
       position="4,12"
       orientation="-1,0"
       id="guide764"
       inkscape:locked="true"
       inkscape:label=""
       inkscape:color="rgb(255,0,0)" />
    <sodipodi:guide
       position="5,12"
       orientation="1,0"
       id="guide2218"
       inkscape:locked="true" />
    <sodipodi:guide
       position="12,20"
       orientation="0,1"
       id="guide2220"
       inkscape:locked="true"
       inkscape:label=""
       inkscape:color="rgb(255,0,0)" />
    <sodipodi:guide
       position="12,5"
       orientation="0,-1"
       id="guide2222"
       inkscape:locked="true" />
    <sodipodi:guide
       position="12,4"
       orientation="0,-1"
       id="guide2224"
       inkscape:locked="true" />
    <sodipodi:guide
       position="19,12"
       orientation="1,0"
       id="guide2226"
       inkscape:locked="true" />
    <sodipodi:guide
       position="20,12"
       orientation="1,0"
       id="guide2228"
       inkscape:locked="true" />
    <sodipodi:guide
       position="12,19"
       orientation="0,-1"
       id="guide2230"
       inkscape:locked="true" />
    <sodipodi:guide
       position="12,12"
       orientation="1,0"
       id="guide765"
       inkscape:locked="true" />
    <sodipodi:guide
       position="12,12"
       orientation="0,-1"
       id="guide767"
       inkscape:locked="true" />
    <sodipodi:guide
       position="12,12"
       orientation="0.70710678,0.70710678"
       id="guide2266"
       inkscape:locked="true"
       inkscape:label=""
       inkscape:color="rgb(255,0,0)" />
    <sodipodi:guide
       position="12,12"
       orientation="-0.70710678,0.70710678"
       id="guide2994"
       inkscape:locked="true"
       inkscape:label=""
       inkscape:color="rgb(255,0,0)" />
  </sodipodi:namedview>
  <defs
     id="defs152">
    <radialGradient
       id="radialGradient66380"
       cx="0"
       cy="0"
       r="1"
       gradientUnits="userSpaceOnUse"
       gradientTransform="translate(12 1) rotate(90) scale(22)">
      <stop
         stop-color="#8FC8FF"
         id="stop66376"
         offset="0"
         style="stop-color:#528fff;stop-opacity:1;" />
      <stop
         offset="1"
         stop-color="#0056A8"
         id="stop66378"
         style="stop-color:#528fff;stop-opacity:1;" />
    </radialGradient>
    <radialGradient
       id="paint0_radial_29_23"
       cx="0"
       cy="0"
       r="1"
       gradientUnits="userSpaceOnUse"
       gradientTransform="translate(12 1) rotate(90) scale(22)">
      <stop
         stop-color="#8FC8FF"
         id="stop147"
         offset="0"
         style="stop-color:#f6f6f6;stop-opacity:1;" />
      <stop
         offset="1"
         stop-color="#0056A8"
         id="stop149"
         style="stop-color:#cfcfcf;stop-opacity:1;" />
    </radialGradient>
    <radialGradient
       id="paint0_radial_10_2"
       cx="0"
       cy="0"
       r="1"
       gradientUnits="userSpaceOnUse"
       gradientTransform="matrix(-10.999959,21.999967,-21.999967,-10.999959,17.5,1)"
       xlink:href="#paint0_radial_29_23">
      <stop
         stop-color="#777777"
         id="stop2847" />
      <stop
         offset="1"
         stop-color="#222222"
         id="stop2849" />
    </radialGradient>
  </defs>
  <path
     d="M 50,5 C 9.0909092,5 5,25.454546 5,50 5,82.727274 17.272728,95 50,95 82.727274,95 95,82.727274 95,50 95,25.454546 90.909093,5 50,5 Z"
     sketch:type="MSShapeGroup"
     id="path6"
     style="font-variation-settings:normal;display:inline;opacity:1;vector-effect:none;fill:#48cd7c;fill-opacity:1;stroke-width:4.56656;stroke-linecap:butt;stroke-linejoin:miter;stroke-miterlimit:4;stroke-dasharray:none;stroke-dashoffset:0;stroke-opacity:1;-inkscape-stroke:none;stop-color:#000000;stop-opacity:1"
     sodipodi:nodetypes="sssss"
     inkscape:label="Shape"
     transform="matrix(0.24444444,0,0,0.24444444,-0.22222222,-0.22222222)"
     sodipodi:insensitive="true" />
  <g
     transform="matrix(0.63172007,0,0,0.63172007,6.6518581,-170.27019)"
     id="g98469">
    <path
       d="m 19.493923,280.28555 a 1.5245323,1.5245323 0 1 0 -2.304732,1.66801 6.3611855,6.3611855 0 0 1 -1.395994,3.67683 c -2.780029,-3.16864 -3.954816,-4.46599 -4.498864,-4.98912 0.289959,-0.18533 0.538068,-0.29893 0.696501,-0.36169 a 1.5245323,1.5245323 0 1 0 -0.535081,-1.39002 c -1.147882,0.48725 -5.0728063,2.66046 -4.4898969,9.43117 -4.298583,0.12257 -6.55847795,1.26147 -7.58678989,2.00281 a 1.5305107,1.5305107 0 1 0 1.07016184,1.49465 l 4.49587555,4.72306 c -0.1046248,0.0598 -0.2092496,0.12256 -0.3108852,0.17637 a 1.5275215,1.5275215 0 1 0 0.6187809,1.37506 c 2.1044523,-1.04625 3.8442126,-3.60805 3.3898423,-8.28628 a 14.734156,14.734156 0 0 0 3.7096944,-0.45138 c 1.671007,-0.43942 3.058032,-1.19273 4.110259,-2.24196 1.32724,-1.32723 2.086518,-3.06699 2.212066,-5.06384 a 1.5275215,1.5275215 0 0 0 0.819062,-1.76367 z M 5.5429594,296.0809 0.85278065,291.15756 c 0.30191725,-0.16143 0.67557715,-0.3378 1.13592595,-0.50519 l 4.3912507,4.3763 c -0.2510994,0.43344 -0.5380702,0.77722 -0.8369979,1.05223 z m 1.1807651,-1.76367 -3.9338911,-3.92194 a 14.796931,14.796931 0 0 1 2.1582593,-0.42448 l 2.2509272,2.14929 a 7.4731972,7.4731972 0 0 1 -0.4752954,2.19713 z m -0.7951482,-4.44806 c 0.3826276,-0.0299 0.7861803,-0.0508 1.2136472,-0.0598 0.050817,0.46334 0.077721,0.89678 0.0837,1.30034 z m 2.540887,-1.55441 a 12.674541,12.674541 0 0 1 0.011957,-2.72025 l 2.1971197,2.57676 c -0.6905234,0.0987 -1.4288749,0.14946 -2.212066,0.14349 z m 3.0610217,-0.29894 -2.8846542,-3.37788 c 0.1554425,-0.66961 0.3706705,-1.24356 0.62177,-1.73379 0.9356442,1.01636 2.6754052,2.97733 4.0534622,4.54371 -0.547037,0.23914 -1.144894,0.43044 -1.790578,0.56796 z m 2.481102,-0.91173 a 179.2551,179.2551 0 0 0 -4.3523907,-4.86655 c 0.3347997,-0.48725 0.6935127,-0.86688 1.0372797,-1.15685 0.585898,0.5829 2.869708,3.1507 4.582565,5.09972 -0.370671,0.34974 -0.798138,0.65764 -1.267454,0.92368 z"
       fill="#ffffff"
       id="path98467"
       style="stroke-width:2.98929" />
  </g>
</svg>
