<?xml version="1.0" encoding="UTF-8" standalone="no"?>
<svg
   width="24"
   height="24"
   viewBox="0 0 24 24"
   fill="none"
   version="1.1"
   id="svg154"
   sodipodi:docname="aptana.svg"
   inkscape:version="1.2.2 (b0a8486541, 2022-12-01)"
   xmlns:inkscape="http://www.inkscape.org/namespaces/inkscape"
   xmlns:sodipodi="http://sodipodi.sourceforge.net/DTD/sodipodi-0.dtd"
   xmlns:xlink="http://www.w3.org/1999/xlink"
   xmlns="http://www.w3.org/2000/svg"
   xmlns:svg="http://www.w3.org/2000/svg"
   xmlns:sketch="http://www.bohemiancoding.com/sketch/ns">
  <sodipodi:namedview
     id="namedview156"
     pagecolor="#ffffff"
     bordercolor="#000000"
     borderopacity="1"
     inkscape:showpageshadow="0"
     inkscape:pageopacity="1"
     inkscape:pagecheckerboard="false"
     inkscape:deskcolor="#ffffff"
     showgrid="true"
     inkscape:zoom="22.627417"
     inkscape:cx="8.5957668"
     inkscape:cy="14.517786"
     inkscape:window-width="1920"
     inkscape:window-height="1052"
     inkscape:window-x="0"
     inkscape:window-y="0"
     inkscape:window-maximized="1"
     inkscape:current-layer="svg154"
     showguides="true"
     guidecolor="#ff0000"
     guideopacity="1"
     inkscape:lockguides="true"
     showborder="true"
     borderlayer="true">
    <inkscape:grid
       type="xygrid"
       id="grid356"
       color="#000000"
       opacity="0.10196078"
       empcolor="#000000"
       empopacity="0.10196078"
       snapvisiblegridlinesonly="true"
       enabled="true"
       visible="true"
       dotted="false" />
    <sodipodi:guide
       position="4,12"
       orientation="-1,0"
       id="guide764"
       inkscape:locked="true"
       inkscape:label=""
       inkscape:color="rgb(255,0,0)" />
    <sodipodi:guide
       position="5,12"
       orientation="1,0"
       id="guide2218"
       inkscape:locked="true" />
    <sodipodi:guide
       position="12,20"
       orientation="0,1"
       id="guide2220"
       inkscape:locked="true"
       inkscape:label=""
       inkscape:color="rgb(255,0,0)" />
    <sodipodi:guide
       position="12,5"
       orientation="0,-1"
       id="guide2222"
       inkscape:locked="true" />
    <sodipodi:guide
       position="12,4"
       orientation="0,-1"
       id="guide2224"
       inkscape:locked="true" />
    <sodipodi:guide
       position="19,12"
       orientation="1,0"
       id="guide2226"
       inkscape:locked="true" />
    <sodipodi:guide
       position="20,12"
       orientation="1,0"
       id="guide2228"
       inkscape:locked="true" />
    <sodipodi:guide
       position="12,19"
       orientation="0,-1"
       id="guide2230"
       inkscape:locked="true" />
    <sodipodi:guide
       position="12,12"
       orientation="1,0"
       id="guide765"
       inkscape:locked="true" />
    <sodipodi:guide
       position="12,12"
       orientation="0,-1"
       id="guide767"
       inkscape:locked="true" />
    <sodipodi:guide
       position="12,12"
       orientation="0.70710678,0.70710678"
       id="guide2266"
       inkscape:locked="true"
       inkscape:label=""
       inkscape:color="rgb(255,0,0)" />
    <sodipodi:guide
       position="12,12"
       orientation="-0.70710678,0.70710678"
       id="guide2994"
       inkscape:locked="true"
       inkscape:label=""
       inkscape:color="rgb(255,0,0)" />
  </sodipodi:namedview>
  <defs
     id="defs152">
    <radialGradient
       id="radialGradient66380"
       cx="0"
       cy="0"
       r="1"
       gradientUnits="userSpaceOnUse"
       gradientTransform="translate(12 1) rotate(90) scale(22)">
      <stop
         stop-color="#8FC8FF"
         id="stop66376"
         offset="0"
         style="stop-color:#528fff;stop-opacity:1;" />
      <stop
         offset="1"
         stop-color="#0056A8"
         id="stop66378"
         style="stop-color:#528fff;stop-opacity:1;" />
    </radialGradient>
    <radialGradient
       id="paint0_radial_29_23"
       cx="0"
       cy="0"
       r="1"
       gradientUnits="userSpaceOnUse"
       gradientTransform="translate(12 1) rotate(90) scale(22)">
      <stop
         stop-color="#8FC8FF"
         id="stop147"
         offset="0"
         style="stop-color:#f6f6f6;stop-opacity:1;" />
      <stop
         offset="1"
         stop-color="#0056A8"
         id="stop149"
         style="stop-color:#cfcfcf;stop-opacity:1;" />
    </radialGradient>
    <radialGradient
       id="paint0_radial_10_2"
       cx="0"
       cy="0"
       r="1"
       gradientUnits="userSpaceOnUse"
       gradientTransform="matrix(-10.999959,21.999967,-21.999967,-10.999959,17.5,1)"
       xlink:href="#paint0_radial_29_23">
      <stop
         stop-color="#777777"
         id="stop2847" />
      <stop
         offset="1"
         stop-color="#222222"
         id="stop2849" />
    </radialGradient>
  </defs>
  <path
     d="M 50,5 C 9.0909092,5 5,25.454546 5,50 5,82.727274 17.272728,95 50,95 82.727274,95 95,82.727274 95,50 95,25.454546 90.909093,5 50,5 Z"
     sketch:type="MSShapeGroup"
     id="path6"
     style="font-variation-settings:normal;display:inline;opacity:1;vector-effect:none;fill:#df8029;fill-opacity:1;stroke-width:4.56656;stroke-linecap:butt;stroke-linejoin:miter;stroke-miterlimit:4;stroke-dasharray:none;stroke-dashoffset:0;stroke-opacity:1;-inkscape-stroke:none;stop-color:#000000;stop-opacity:1"
     sodipodi:nodetypes="sssss"
     inkscape:label="Shape"
     transform="matrix(0.24444444,0,0,0.24444444,-0.22222222,-0.22222222)"
     sodipodi:insensitive="true" />
  <g
     id="g101817"
     transform="matrix(0.18509614,0,0,0.18509614,6.0769235,6.0769235)">
    <path
       d="m 30.697103,-11.218964 c -2.412147,0.08914 -3.73572,0.89949 -4.600096,2.6390449 -0.55374,1.1155841 -1.007537,2.9712892 -1.007537,4.130092 0,4.24083998 -4.28676,8.1143206 -8.984098,8.1143206 -2.306801,0 -3.573651,-0.6347755 -8.241276,-4.13279318 C 5.7382742,-2.05929 4.3984928,-1.6433095 1.1003619,1.600798 -2.0329976,4.6855365 -2.1113316,6.1603764 0.662772,9.8393727 1.8080689,11.362834 2.9695729,13.391414 3.2423913,14.35033 c 0.6752929,2.379732 -0.4294864,6.734022 -2.2014552,8.670761 -1.45052938,1.585588 -5.0538927,2.822725 -8.198057,2.822725 -2.9874961,0 -4.0625631,1.701739 -4.0625631,6.409882 0,3.66549 0.140462,4.165207 1.3992076,4.999869 0.7671328,0.513223 2.9874962,1.156102 4.9377424,1.437023 1.9502461,0.278221 4.20032243,0.937307 4.99716814,1.464036 1.67742776,1.115584 3.62227156,5.102514 3.63847856,7.466039 0.013506,1.717945 -1.3073671,4.754063 -2.6687578,6.13166 -1.48564462,1.501851 -2.5688146,4.24084 -2.1798458,5.483379 0.50241799,1.601795 3.89509,5.018778 5.6508518,5.694071 1.0075371,0.388968 1.7368535,0.275519 2.7119764,-0.41598 2.8551387,-2.025879 7.7415597,-4.227335 9.3919747,-4.227335 2.485079,0 6.607066,2.196053 7.509259,4.000436 0.429486,0.850869 0.958916,2.833529 1.183113,4.400209 0.548338,3.800549 1.412713,5.591426 2.860541,5.896659 0.659085,0.140461 1.717946,0.378164 2.35272,0.524027 0.634776,0.148564 2.060995,0.148564 3.171176,0 2.892956,-0.388969 4.435325,-2.547205 4.921535,-6.885287 0.445695,-3.968022 0.810353,-4.605498 3.73032,-6.472009 2.965886,-1.898923 5.288894,-2.268984 7.571384,-1.210124 1.890821,0.87788 2.657953,1.334378 5.7616,3.403476 2.274387,1.518059 3.689801,1.266849 6.320742,-1.139894 3.951815,-3.616869 4.030149,-5.188952 0.488913,-9.321745 -3.371063,-3.932907 -3.408879,-8.770706 -0.09454,-12.487518 1.269551,-1.423518 2.406744,-1.917832 6.166776,-2.668758 5.677864,-1.134492 6.598963,-2.060994 6.617871,-6.671894 0.01621,-4.600096 -0.718511,-5.351022 -6.047924,-6.185684 -5.0728,-0.794146 -6.696205,-1.939442 -8.478979,-5.956085 -1.480242,-3.338648 -1.072365,-5.296997 2.090708,-9.8808864 1.620703,-2.3500201 2.428353,-4.0679653 2.241972,-4.7918793 -0.41598,-1.6125997 -5.67246,-6.4287894 -7.017644,-6.4287894 -0.62127,0 -2.282491,0.89678912 -3.6871,1.98266035 C 50.445371,3.3916751 48.135869,4.0669681 44.824233,3.1755813 40.931843,2.1356302 39.546142,0.49061636 38.562916,-4.2607451 37.433826,-9.7171125 36.704509,-10.700339 33.492817,-11.067698 a 18.700214,18.700214 0 0 0 -2.795714,-0.140461 z m 1.301965,27.011719 A 16.207031,16.207031 0 0 1 48.2061,31.999788 16.207031,16.207031 0 0 1 31.999068,48.206819 16.207031,16.207031 0 0 1 15.792037,31.999788 16.207031,16.207031 0 0 1 31.999068,15.792755 Z"
       fill="#ffffff"
       id="path101305"
       style="stroke-width:2.70117" />
  </g>
</svg>
