<svg width="24" height="24" viewBox="0 0 24 24" fill="none" xmlns="http://www.w3.org/2000/svg">
<rect opacity="0.875" x="1" y="1" width="22" height="22" rx="6.6" fill="url(#paint0_linear_207_201)"/>
<path d="M10 4.75C10 4.33579 10.3358 4 10.75 4H16.6C19.0301 4 21 5.96995 21 8.4V16.6C21 19.0301 19.0301 21 16.6 21H10V4.75Z" fill="#FFD351"/>
<path d="M3 7.4C3 4.96995 4.96995 3 7.4 3H12C12.5523 3 13 3.44772 13 4V20.25C13 20.6642 12.6642 21 12.25 21H7.4C4.96995 21 3 19.0301 3 16.6V7.4Z" fill="#7BD57D"/>
<path d="M7 7C7 6.44772 7.44772 6 8 6H16C16.5523 6 17 6.44772 17 7V21H7V7Z" fill="#707ED0"/>
<path opacity="0.875" d="M1 8.40781C1 6.74664 2.34664 5.4 4.00781 5.4H8.19048C9.265 5.4 10.3068 5.76994 11.1406 6.44762V6.44762C11.9745 7.1253 13.0162 7.49524 14.0908 7.49524H19.9922C21.6534 7.49524 23 8.84188 23 10.5031V16.4C23 20.0451 20.0451 23 16.4 23H7.6C3.95492 23 1 20.0451 1 16.4V8.40781Z" fill="url(#paint1_linear_207_201)"/>
<path opacity="0.125" d="M1 7.50781C1 5.84664 2.34664 4.5 4.00781 4.5H8.19048C9.265 4.5 10.3068 4.86994 11.1406 5.54762V5.54762C11.9745 6.2253 13.0162 6.59524 14.0908 6.59524H19.9922C21.6534 6.59524 23 7.94188 23 9.60305V15.5C23 19.1451 20.0451 22.1 16.4 22.1H7.6C3.95492 22.1 1 19.1451 1 15.5V7.50781Z" fill="url(#paint2_linear_207_201)" fill-opacity="0.5"/>
<path d="M15 16.8333C14.8153 16.8333 14.6667 17.0316 14.6667 17.2778V19.0556C14.6667 19.3018 14.8153 19.5 15 19.5H18.6667C18.8513 19.5 19 19.3018 19 19.0556V17.2778C19 17.0316 18.8513 16.8333 18.6667 16.8333H15ZM15 17.2769H15.6667V19.0547H15V17.2769ZM16 17.2778H16.3333V19.0556H16V17.2778ZM16.6667 17.2778H17V19.0556H16.6667V17.2778ZM17.3333 17.2778H18V19.0556H17.3333V17.2778ZM18.3333 17.2778H18.6667V19.0556H18.3333V17.2778ZM6 15.5L5.33333 16.8333H5.66667V18.6111H6.33333V16.8333H6.66667L6 15.5ZM6.66667 16.8333H7V18.6111H7.66667V16.8333H8L7.33333 15.5L6.66667 16.8333ZM5 19.0556V19.5H8.33333V19.0556H5Z" fill="#FAFAFA"/>
<path d="M12.0125 11.875C12.228 11.875 12.4347 11.9606 12.587 12.113C12.7394 12.2653 12.825 12.472 12.825 12.6875V15.125C12.825 15.3405 12.7394 15.5472 12.587 15.6995C12.4347 15.8519 12.228 15.9375 12.0125 15.9375C11.797 15.9375 11.5903 15.8519 11.438 15.6995C11.2856 15.5472 11.2 15.3405 11.2 15.125V12.6875C11.2 12.472 11.2856 12.2653 11.438 12.113C11.5903 11.9606 11.797 11.875 12.0125 11.875ZM12.0125 14.7188C11.9048 14.7188 11.8014 14.7616 11.7252 14.8377C11.6491 14.9139 11.6062 15.0173 11.6062 15.125C11.6062 15.2327 11.6491 15.3361 11.7252 15.4123C11.8014 15.4884 11.9048 15.5312 12.0125 15.5312C12.1202 15.5312 12.2236 15.4884 12.2998 15.4123C12.3759 15.3361 12.4187 15.2327 12.4187 15.125C12.4187 15.0173 12.3759 14.9139 12.2998 14.8377C12.2236 14.7616 12.1202 14.7188 12.0125 14.7188ZM12.0125 7H11.2V7.8125H12.0125V7Z" fill="white"/>
<path opacity="0.75" d="M12.825 7.8125H12.0125V8.625H12.825V7.8125Z" fill="white"/>
<path d="M12.0125 8.625H11.2V9.4375H12.0125V8.625Z" fill="white"/>
<path opacity="0.75" d="M12.825 9.4375H12.0125V10.25H12.825V9.4375Z" fill="white"/>
<path d="M12.0125 10.25H11.2V11.0625H12.0125V10.25Z" fill="white"/>
<path opacity="0.75" d="M12.825 11.0625H12.0125V11.875H12.825V11.0625Z" fill="white"/>
<defs>
<linearGradient id="paint0_linear_207_201" x1="23" y1="0.999999" x2="1" y2="12" gradientUnits="userSpaceOnUse">
<stop stop-color="#FFE0AE"/>
<stop offset="1" stop-color="#F3CE7D"/>
</linearGradient>
<linearGradient id="paint1_linear_207_201" x1="23" y1="5.4" x2="1.42949" y2="23.5115" gradientUnits="userSpaceOnUse">
<stop stop-color="#FFEEB4"/>
<stop offset="1" stop-color="#FFDD73"/>
</linearGradient>
<linearGradient id="paint2_linear_207_201" x1="23" y1="9" x2="1.01236" y2="9.52141" gradientUnits="userSpaceOnUse">
<stop stop-opacity="0.5"/>
<stop offset="1"/>
</linearGradient>
</defs>
</svg>
