<svg width="24" height="24" viewBox="0 0 24 24" fill="none" xmlns="http://www.w3.org/2000/svg">
<path fill-rule="evenodd" clip-rule="evenodd" d="M9.59604 1.11359C9.71588 1.11486 9.83043 1.0996 9.93969 1.06779C11.3755 0.973736 12.8111 0.977551 14.2467 1.07924C15.5484 1.18066 16.8085 1.46308 18.0269 1.9265C20.0525 2.76044 21.4386 4.20689 22.185 6.26585C22.6119 7.50549 22.8639 8.78021 22.9411 10.09C23.0478 11.7347 23.0096 13.3758 22.8265 15.0133C22.6895 16.1642 22.3916 17.271 21.933 18.3336C21.0824 20.1761 19.704 21.447 17.7978 22.1463C16.2531 22.6682 14.6647 22.943 13.0325 22.9706C11.1966 23.0661 9.37913 22.9287 7.57997 22.5585C4.26839 21.8208 2.22559 19.8018 1.45158 16.5017C1.12311 15.0161 0.974199 13.5124 1.00483 11.9906C0.968176 10.3724 1.14 8.77709 1.52031 7.20471C2.33171 4.11908 4.2905 2.20701 7.39669 1.46852C8.12048 1.29157 8.8536 1.17326 9.59604 1.11359Z" fill="url(#paint0_radial_1_29)"/>
<path d="M18.0723 12.0012C18.0723 8.648 15.354 5.92969 12.0008 5.92969C8.6476 5.92969 5.92929 8.648 5.92929 12.0012C5.92929 15.3544 8.6476 18.0727 12.0008 18.0727C15.354 18.0727 18.0723 15.3544 18.0723 12.0012Z" fill="#2C8CF5"/>
<path d="M11.9165 5.93308C11.5255 5.93887 11.1361 5.98208 10.7537 6.06206C10.6309 6.08773 10.5215 6.15668 10.4049 6.20302C10.3978 6.20584 10.3906 6.20855 10.3833 6.21114C10.2069 6.27398 10.0783 6.35487 10.0063 6.52775V6.52775C9.97528 6.60229 9.866 6.68223 9.79111 6.67583C9.7358 6.6711 9.67271 6.59352 9.67238 6.54191C9.67234 6.53592 9.67312 6.53017 9.67452 6.52463C9.69793 6.43152 9.64787 6.4015 9.55999 6.44015C9.24453 6.57891 8.94164 6.74441 8.65463 6.93477C8.60496 6.96771 8.63967 7.02784 8.69925 7.02663V7.02663C8.71493 7.02621 8.73058 7.02791 8.7458 7.03168C8.81293 7.04922 8.99001 7.24318 8.84227 7.30626C8.82844 7.31233 8.62571 7.33426 8.59063 7.32818C8.53936 7.31941 8.50867 7.24858 8.45672 7.23913V7.23913C8.28913 7.2099 8.09684 7.34249 7.96968 7.45551C7.26918 8.07808 6.72219 8.85539 6.37274 9.72657C6.35798 9.76337 6.39773 9.79703 6.43289 9.77871V9.77871C6.54116 9.72238 6.63291 9.63131 6.75906 9.62288C6.82214 9.62153 6.91288 9.63973 6.97326 9.65255C7.02891 9.66402 7.07411 9.70146 7.12234 9.70517C7.13447 9.7061 7.14578 9.7061 7.15639 9.70531C7.34915 9.69085 7.50801 9.52044 7.70015 9.54158V9.54158C7.77132 9.54934 7.82259 9.62557 7.8779 9.62961C7.92445 9.63434 7.96595 9.58645 8.01081 9.59319C8.05466 9.59994 8.12987 9.69539 8.13696 9.74902C8.14172 9.78391 8.12815 9.81697 8.11686 9.85102C8.09622 9.91322 8.12578 9.97389 8.18545 10.001V10.001C8.31169 10.0583 8.43172 9.99877 8.40645 9.86245C8.40534 9.85647 8.40442 9.85058 8.40377 9.84481C8.40242 9.81075 8.40849 9.78039 8.40377 9.74902C8.3977 9.69573 8.37442 9.64649 8.37408 9.60096C8.37274 9.39014 8.54443 9.29129 8.68576 9.20798C8.74715 9.17155 8.79538 9.10849 8.84834 9.08184C8.92322 9.04406 8.97921 9.03528 9.04161 9.00054C9.11997 8.95654 9.19061 8.91845 9.25594 8.87516C9.3117 8.83821 9.35515 8.78242 9.35724 8.71556C9.35823 8.6837 9.35589 8.6509 9.35306 8.61876C9.34635 8.54255 9.38832 8.51032 9.4646 8.50436V8.50436C9.53239 8.49019 9.53813 8.39441 9.57624 8.35629C9.5985 8.33437 9.65956 8.31884 9.68722 8.29692C9.75468 8.24396 9.7766 8.16403 9.8353 8.14109C9.85655 8.13266 9.90545 8.13467 9.93851 8.1259C9.98236 8.11409 10.0448 8.06215 10.1163 8.03787C10.1628 8.02168 10.2697 8.01831 10.2873 8.00077C10.3092 7.97851 10.2873 7.91577 10.295 7.88204C10.3311 7.71474 10.5831 7.67932 10.7322 7.62299C10.7757 7.60657 10.8196 7.58443 10.8643 7.56578C10.9635 7.52438 10.9275 7.57572 10.9474 7.68134V7.68134C10.9724 7.81525 11.1515 7.64255 11.199 7.62299C11.2894 7.58487 11.4446 7.56193 11.5633 7.51875C11.6092 7.50191 11.6713 7.48119 11.7177 7.45303C11.8179 7.39235 11.6951 7.32432 11.6067 7.40116V7.40116C11.5806 7.42389 11.5396 7.43775 11.5184 7.41034C11.5097 7.39902 11.5013 7.3868 11.481 7.38485C11.4412 7.38013 11.4186 7.42161 11.3778 7.41453C11.337 7.40778 11.28 7.3437 11.2736 7.2958C11.2631 7.21593 11.3097 7.16653 11.3578 7.1167C11.4083 7.06448 11.4251 6.97759 11.3528 6.97037V6.97037C11.236 6.95871 11.1725 6.86599 11.287 6.83992C11.2923 6.83869 11.2978 6.83763 11.3033 6.83673C11.367 6.82593 11.51 6.83167 11.5481 6.8654C11.5701 6.88395 11.5498 6.93083 11.5852 6.96186C11.5937 6.96945 11.6025 6.9752 11.6117 6.97946C11.6709 7.00692 11.7089 6.93269 11.6499 6.90488V6.90488C11.6136 6.8878 11.6406 6.85089 11.6795 6.84113C11.7777 6.8165 11.9064 6.85077 12.0079 6.83571C12.0784 6.82525 12.1529 6.77533 12.2153 6.73992C12.233 6.7299 12.2522 6.71766 12.2722 6.70685C12.3606 6.65898 12.4014 6.74691 12.3263 6.81378V6.81378C12.2733 6.85956 12.2224 6.9076 12.1737 6.95776C12.0739 7.06057 12.1094 7.16768 12.2518 7.18448V7.18448C12.2875 7.1892 12.3324 7.2 12.3705 7.20641C12.4147 7.21417 12.4622 7.2118 12.4966 7.22091C12.559 7.23609 12.5756 7.30322 12.6373 7.30322C12.6702 7.30311 12.6925 7.29149 12.7057 7.2735C12.7655 7.19183 12.7494 7.05981 12.7041 6.96928V6.96928C12.6586 6.87787 12.4909 6.96456 12.4821 6.85055V6.85055C12.4744 6.74497 12.5586 6.65966 12.6246 6.57688C12.6532 6.54092 12.6812 6.50634 12.6744 6.44308C12.6683 6.38945 12.6228 6.38912 12.5854 6.33886C12.5658 6.31322 12.557 6.26229 12.5337 6.24239C12.4562 6.17695 12.2986 6.18944 12.2889 6.06463V6.06463C12.2868 5.99884 12.2424 5.94086 12.1767 5.93691C12.1457 5.93505 12.1145 5.93352 12.0831 5.93308H11.9165ZM9.02812 7.38755C9.06286 7.39227 9.1047 7.42937 9.14686 7.43241C9.18632 7.43376 9.21904 7.41082 9.24332 7.41722C9.27207 7.42472 9.29307 7.44887 9.30154 7.47719C9.32149 7.54389 9.23735 7.54649 9.16878 7.55856V7.55856C9.06827 7.57576 9.02981 7.77274 8.95459 7.766C8.89971 7.76129 8.86427 7.65658 8.88465 7.58564C8.89536 7.54837 8.91918 7.51305 8.89868 7.48014V7.48014C8.88405 7.45665 8.89595 7.42631 8.91997 7.41258C8.94874 7.39612 8.98905 7.38417 9.02846 7.38755M8.69487 7.41048V7.41048C8.72511 7.41197 8.74082 7.44471 8.72342 7.4695C8.69917 7.50407 8.65238 7.50813 8.60616 7.53596C8.50092 7.59971 8.43986 7.69652 8.40613 7.83245C8.39635 7.87192 8.2928 7.97682 8.24254 7.96637C8.12516 7.94174 8.27492 7.72485 8.3019 7.69179C8.33159 7.65536 8.37105 7.62299 8.40613 7.58082C8.43986 7.54001 8.46246 7.48502 8.49518 7.46208C8.53093 7.43746 8.6328 7.40812 8.69487 7.41048ZM9.57288 7.67729V7.67729C9.62911 7.67879 9.64861 7.74056 9.59487 7.7572C9.56033 7.7679 9.51659 7.76941 9.47418 7.76551C9.39695 7.75842 9.38133 7.69154 9.45852 7.68404V7.68404C9.49259 7.68269 9.53544 7.67627 9.57288 7.67729ZM9.09255 7.85775V7.85775C9.12637 7.85785 9.13497 7.89759 9.10592 7.91492C9.05346 7.94624 8.99268 7.96973 8.91074 7.9957C8.85441 8.01358 8.75693 8.03585 8.74715 7.97277C8.73535 7.89553 8.82946 7.91375 8.88106 7.90666C8.94583 7.89789 9.01699 7.86012 9.09289 7.85742M16.5406 7.96738C16.5463 8.02303 16.547 8.07599 16.5322 8.13603C16.5119 8.21631 16.4398 8.28916 16.4431 8.35864C16.4478 8.3944 16.487 8.42882 16.4957 8.47739C16.5005 8.50303 16.4836 8.55833 16.4957 8.5816C16.5335 8.65446 16.6361 8.59274 16.7032 8.60353C16.7686 8.61399 16.8445 8.70811 16.8438 8.7813C16.8428 8.83257 16.7949 8.91757 16.7626 8.96682C16.6978 9.06497 16.6104 9.06935 16.5177 9.12197C16.4404 9.16582 16.407 9.23901 16.3618 9.31524V9.31524C16.273 9.46377 16.2715 9.66642 16.1304 9.7667C16.0909 9.79481 16.0468 9.81922 15.9982 9.84144C15.9577 9.85965 15.9024 9.86607 15.8653 9.89305C15.8356 9.9143 15.8184 9.97199 15.7763 10.0192C15.7243 10.0772 15.6697 10.1012 15.6424 10.1454C15.6211 10.1794 15.614 10.2479 15.5908 10.2934C15.5591 10.3558 15.4916 10.3862 15.4501 10.4493C15.4312 10.4786 15.4184 10.5373 15.3975 10.5754C15.3506 10.6608 15.2703 10.7222 15.2787 10.7974C15.2875 10.8699 15.3698 10.8824 15.3752 10.9454C15.3766 10.9812 15.3516 11.0031 15.3533 11.0419C15.3546 11.0989 15.3928 11.1387 15.3975 11.1826C15.4086 11.2925 15.3597 11.3367 15.3391 11.4123C15.3293 11.4484 15.3334 11.4885 15.3239 11.5165C15.3057 11.5715 15.2288 11.6217 15.2275 11.6868C15.2265 11.7331 15.2754 11.7702 15.2791 11.8349C15.2804 11.8798 15.2568 11.9277 15.2646 11.9688C15.2804 12.0494 15.4248 12.1432 15.4872 12.206C15.5712 12.2899 15.6805 12.3547 15.7169 12.4431C15.7473 12.518 15.7473 12.6161 15.806 12.6728C15.8491 12.7146 15.921 12.7403 15.9763 12.7838C16.0279 12.8242 16.0846 12.8593 16.1399 12.9025C16.2303 12.973 16.3662 13.114 16.5099 13.1032C16.5851 13.0978 16.662 13.0361 16.747 13.0209C16.8347 13.0054 16.9484 12.9973 17.0368 13.0064C17.1046 13.0131 17.1741 13.0536 17.2442 13.0506C17.3184 13.0459 17.4038 12.9909 17.4881 12.9541V12.9541C17.7683 12.8324 18.0471 12.6018 18.065 12.2968C18.0708 12.1988 18.074 12.1 18.074 12.0005C18.074 10.8794 17.7679 9.83481 17.2419 8.93556C17.2174 8.8937 17.1736 8.86287 17.1252 8.8646V8.8646C17.0499 8.86932 16.9265 8.86933 16.9251 8.77556V8.77556C16.9243 8.6814 17.0205 8.57857 16.966 8.50176C16.8341 8.31584 16.6919 8.13743 16.5399 7.96738M7.27245 10.7491C7.14933 10.7559 7.06871 10.7616 6.99889 10.7933C6.83833 10.8662 6.86936 11.0834 6.70914 11.1347C6.65382 11.1526 6.57794 11.1529 6.51688 11.1644C6.46426 11.1738 6.40017 11.2028 6.34586 11.2018C6.28177 11.2005 6.1698 11.1387 6.13168 11.0976V11.0976C6.0876 11.0501 6.00866 11.0543 5.99947 11.1185C5.98053 11.2506 5.96594 11.3833 5.95574 11.5164C5.95406 11.5383 5.96903 11.561 5.99102 11.561V11.561C6.06117 11.5614 6.1364 11.4885 6.21364 11.4865C6.39545 11.4814 6.47438 11.7179 6.62111 11.7907C6.65787 11.809 6.70645 11.81 6.75401 11.8204C6.79246 11.8288 6.82113 11.8451 6.85823 11.8575C6.93649 11.8842 7.03262 11.8811 7.09536 11.9091C7.15568 11.9358 7.20568 12.0179 7.25512 12.0861C7.30107 12.1494 7.3281 12.2273 7.34206 12.3043V12.3043C7.34498 12.3204 7.35225 12.3314 7.36466 12.3421C7.40148 12.3737 7.4494 12.3692 7.50384 12.3986C7.5794 12.4394 7.60233 12.5443 7.67418 12.5763C7.6988 12.5875 7.7612 12.5864 7.80033 12.5983C7.89849 12.6279 7.93053 12.7416 8.01452 12.717V12.717C8.10825 12.6895 8.09129 12.5217 8.1842 12.4916C8.19164 12.4892 8.19938 12.4878 8.20746 12.4876C8.29954 12.4829 8.30764 12.5827 8.34137 12.6721C8.36026 12.7227 8.40984 12.7669 8.42266 12.8202C8.4456 12.9123 8.43446 13.1879 8.4149 13.2428C8.39163 13.3103 8.30022 13.339 8.24389 13.4138C8.21724 13.4489 8.20476 13.5002 8.18452 13.5248C8.1481 13.569 8.09379 13.5805 8.06681 13.6213C8.05129 13.6442 8.03678 13.6935 8.02193 13.7245C7.97741 13.819 7.91771 13.8858 7.95515 13.9991C7.97066 14.0456 8.04386 14.0773 8.0442 14.132C8.04454 14.1964 7.90658 14.2544 7.89612 14.3253C7.88837 14.3779 7.93862 14.472 7.95549 14.5405C7.96763 14.5921 8.06545 14.6244 8.09614 14.6592C8.14809 14.7175 8.18992 14.8002 8.23748 14.8734C8.33158 15.0177 8.40512 15.1935 8.49653 15.3335C8.54476 15.4067 8.61256 15.4724 8.6446 15.5487C8.66113 15.5871 8.65911 15.6327 8.67429 15.6674C8.72725 15.7871 8.96099 15.9123 9.08175 15.9716C9.13842 15.9993 9.20116 16.0091 9.25277 16.0378C9.33136 16.0816 9.48653 16.1993 9.52633 16.2681C9.56174 16.3302 9.58366 16.4806 9.60086 16.5791C9.6238 16.7093 9.60222 16.8092 9.60863 16.9502C9.61335 17.0264 9.6373 17.1033 9.63831 17.1799C9.63865 17.2065 9.62414 17.2264 9.62313 17.2534C9.62178 17.3458 9.64641 17.4501 9.63831 17.5432V17.5432C9.63735 17.574 9.65265 17.6044 9.68118 17.6162C10.3956 17.9102 11.1791 18.0727 12.0035 18.0727C12.0781 18.0727 12.1511 18.0657 12.2246 18.0613C12.2474 18.0599 12.2657 18.0424 12.271 18.0201V18.0201C12.298 17.9449 12.3671 17.9199 12.4116 17.8643C12.4454 17.8225 12.4609 17.7732 12.4929 17.7314V17.7314C12.5549 17.6501 12.5944 17.5518 12.5731 17.4519C12.5592 17.3866 12.5414 17.3259 12.5601 17.2571C12.5955 17.1239 12.7793 17.0426 12.9082 16.9826C12.9527 16.962 12.9982 16.9282 13.0343 16.9158C13.1237 16.8847 13.2347 16.9016 13.3163 16.8716C13.4553 16.8207 13.4698 16.6719 13.5382 16.5454C13.5706 16.4854 13.6131 16.4253 13.6195 16.3828C13.6249 16.3444 13.6057 16.3086 13.6118 16.2634C13.6185 16.2186 13.6587 16.1798 13.6711 16.1305C13.6873 16.0664 13.6941 15.9727 13.6941 15.9008C13.6941 15.8421 13.6668 15.7902 13.6644 15.7372C13.655 15.545 13.7339 15.5234 13.8051 15.4188C13.8408 15.3669 13.854 15.3078 13.8786 15.2707C13.998 15.0926 14.2054 15.0066 14.1903 14.7371C14.1852 14.6481 14.1295 14.4463 14.0641 14.4177C14.0267 14.4015 13.9407 14.4163 13.8863 14.3958C13.7113 14.3303 13.6081 14.1131 13.4263 14.0993C13.3875 14.0945 13.352 14.1151 13.3085 14.1144C13.2367 14.1097 13.1281 14.0642 13.0485 14.0551C12.9979 14.0497 12.9308 14.0699 12.9004 14.0551C12.8542 14.0325 12.8491 13.9475 12.8113 13.9222C12.7813 13.9016 12.7237 13.8949 12.6785 13.8773C12.6056 13.8493 12.5476 13.8163 12.4633 13.8105C12.4373 13.8092 12.4046 13.823 12.3742 13.8183C12.3277 13.8105 12.2909 13.7555 12.2481 13.7292V13.7292C12.1594 13.6755 12.1602 13.5667 12.1056 13.4785C12.0736 13.4268 12.0218 13.3897 12.0032 13.337C11.9876 13.2938 11.9947 13.2418 11.9812 13.203C11.962 13.1477 11.9074 13.116 11.8473 13.0701C11.7401 12.9875 11.6449 12.9103 11.4915 12.8914C11.424 12.8829 11.3579 12.9116 11.2763 12.9066C11.1899 12.9012 11.0816 12.8253 11.0172 12.7514C10.9545 12.6792 10.9238 12.6148 10.8691 12.5804C10.8172 12.547 10.7487 12.548 10.7133 12.5143C10.6974 12.4994 10.7005 12.4745 10.6836 12.4397C10.6742 12.4201 10.6623 12.4036 10.6527 12.3876C10.6237 12.3394 10.6101 12.2933 10.5646 12.3264V12.3264C10.5427 12.3424 10.5124 12.3236 10.495 12.3027C10.4466 12.2446 10.3948 12.2197 10.2836 12.24C10.2235 12.2512 10.1898 12.327 10.12 12.3291C10.0626 12.3338 10.0178 12.2653 9.94223 12.2545C9.88522 12.2468 9.82011 12.27 9.77964 12.2623C9.71622 12.2498 9.697 12.1969 9.63898 12.1591C9.59648 12.1314 9.51452 12.0839 9.49091 12.0845C9.46336 12.0863 9.43876 12.1084 9.41351 12.1328C9.32944 12.2142 9.3654 12.1154 9.28245 12.0329V12.0329C9.23759 11.9881 9.19981 12.0532 9.16372 12.0778C9.12257 12.1061 9.08377 12.1348 9.03824 12.1513C8.93637 12.1894 8.87296 12.1695 8.79336 12.2107C8.71983 12.2488 8.71646 12.3129 8.67463 12.3884C8.64056 12.4505 8.5623 12.5406 8.51103 12.5443C8.44897 12.549 8.3896 12.4576 8.33327 12.4333C8.1636 12.3598 8.08131 12.4984 7.94032 12.5001C7.80944 12.5048 7.6229 12.2893 7.62931 12.1665C7.63066 12.0916 7.67215 11.9773 7.68092 11.8845C7.68868 11.8106 7.73927 11.7665 7.74029 11.699C7.74164 11.6089 7.62088 11.5394 7.56252 11.5286C7.4656 11.5107 7.34246 11.5452 7.22297 11.5458C7.12373 11.5463 7.09279 11.4806 7.12572 11.387V11.387C7.13516 11.3593 7.1301 11.3219 7.14022 11.2912C7.15776 11.244 7.20701 11.2075 7.22927 11.1573C7.2458 11.1192 7.24984 11.0642 7.26637 11.0166C7.2856 10.9626 7.32135 10.9283 7.32574 10.8905C7.32856 10.8646 7.32527 10.8383 7.31613 10.8139C7.30699 10.7895 7.29226 10.7675 7.27311 10.7498M9.25513 12.3193C9.30539 12.324 9.31146 12.4279 9.26019 12.4364C9.20487 12.4451 9.17687 12.3493 9.23051 12.3247C9.23809 12.3208 9.24661 12.319 9.25513 12.3196" fill="#C8E4FC"/>
<path d="M5.5 4.5C4.94771 4.5 4.5 4.94772 4.5 5.5V8.85704C4.5 9.40933 4.94772 9.85704 5.5 9.85704H7.35215C7.5861 9.85704 7.81265 9.93907 7.99237 10.0889L8.92274 10.8642C9.29374 11.1734 9.85704 10.9096 9.85704 10.4267V10.4267C9.85704 10.1121 10.1121 9.85704 10.4267 9.85704H10.75C11.2431 9.85704 11.6429 9.45726 11.6429 8.96411V5.5C11.6429 4.94772 11.1952 4.5 10.6429 4.5H5.5Z" fill="#18AE46"/>
<path d="M8.17896 6.39976C8.17896 6.15642 8.0559 6.03503 7.81062 6.03503C7.70607 6.03503 7.59749 6.06124 7.48479 6.11367C7.41977 6.14392 7.33965 6.11361 7.31958 6.04477V6.04477C7.30644 5.99969 7.32348 5.95068 7.3644 5.92767C7.50539 5.84837 7.66523 5.80864 7.8434 5.80864C8.02007 5.80864 8.16673 5.85308 8.28424 5.94197C8.41091 6.03864 8.47424 6.18809 8.47424 6.39115C8.47424 6.56143 8.41868 6.72365 8.30813 6.87671C8.25757 6.94616 8.20562 7.01505 8.15257 7.08422C8.0322 7.23707 7.93798 7.40862 7.87357 7.5919C7.86092 7.62792 7.82738 7.65284 7.7892 7.65284V7.65284C7.73945 7.65284 7.69946 7.61119 7.70637 7.56192C7.72754 7.41102 7.7839 7.25426 7.87562 7.09116C7.92173 7.00921 7.96784 6.92977 8.01395 6.85227C8.12312 6.66921 8.17812 6.51809 8.17812 6.39948M7.91701 8.33368C7.88367 8.37035 7.83451 8.38896 7.77034 8.38896C7.70561 8.38896 7.65645 8.37035 7.62172 8.33341C7.58839 8.29563 7.57172 8.25007 7.57172 8.19729C7.57172 8.14451 7.58839 8.09923 7.62172 8.06257C7.65645 8.02562 7.70589 8.00701 7.77034 8.00701C7.83506 8.00701 7.88395 8.02562 7.91701 8.06257C7.95062 8.09923 7.96701 8.14507 7.96701 8.19896C7.96701 8.25174 7.95034 8.29674 7.91701 8.33368Z" fill="#97FFAD"/>
<path d="M18.4999 19.5002C19.0522 19.5002 19.5 19.0525 19.5 18.5002V15.1427C19.5 14.5904 19.0523 14.1427 18.5 14.1427H16.6479C16.4139 14.1427 16.1873 14.0607 16.0076 13.9109L15.0773 13.1355C14.7063 12.8263 14.143 13.0901 14.143 13.5731V13.5731C14.143 13.8877 13.8879 14.1427 13.5733 14.1427H13.25C12.7569 14.1427 12.3571 14.5425 12.3571 15.0356V18.4998C12.3571 19.0521 12.8048 19.4998 13.357 19.4998L18.4999 19.5002Z" fill="#78449B"/>
<path d="M16.093 18.0066C16.0594 18.0444 16.0105 18.0636 15.946 18.0636C15.8813 18.0636 15.8322 18.0441 15.7974 18.0047C15.7641 17.9644 15.7474 17.9175 15.7474 17.8647C15.7474 17.8119 15.7641 17.7658 15.7974 17.7266C15.8322 17.6872 15.8819 17.6675 15.946 17.6675C16.0108 17.6675 16.0597 17.6872 16.093 17.7266C16.1274 17.7658 16.1447 17.8122 16.1447 17.8666C16.1447 17.9211 16.1274 17.9672 16.093 18.0066ZM15.9439 17.3186C15.912 17.3186 15.8856 17.2938 15.8836 17.2619L15.7869 15.7233V15.6698C15.7869 15.5858 15.855 15.5177 15.939 15.5177V15.5177C16.023 15.5177 16.091 15.5858 16.091 15.6698V15.7233L16.0043 17.2615C16.0025 17.2935 15.976 17.3186 15.9439 17.3186V17.3186Z" fill="#E0A8FF"/>
<defs>
<radialGradient id="paint0_radial_1_29" cx="0" cy="0" r="1" gradientUnits="userSpaceOnUse" gradientTransform="translate(12 1) rotate(90) scale(11)">
<stop stop-color="#FAFAFA"/>
<stop offset="1" stop-color="#CCCCCC"/>
</radialGradient>
</defs>
</svg>
