<?xml version="1.0" encoding="UTF-8" standalone="no"?>
<!-- Created with Inkscape (http://www.inkscape.org/) -->

<svg
   width="128mm"
   height="127.99948mm"
   viewBox="0 0 128 127.99948"
   version="1.1"
   id="svg5"
   xml:space="preserve"
   xmlns:inkscape="http://www.inkscape.org/namespaces/inkscape"
   xmlns:sodipodi="http://sodipodi.sourceforge.net/DTD/sodipodi-0.dtd"
   xmlns:xlink="http://www.w3.org/1999/xlink"
   xmlns="http://www.w3.org/2000/svg"
   xmlns:svg="http://www.w3.org/2000/svg"><sodipodi:namedview
     id="namedview7"
     pagecolor="#ffffff"
     bordercolor="#000000"
     borderopacity="0.25"
     inkscape:showpageshadow="2"
     inkscape:pageopacity="0.0"
     inkscape:pagecheckerboard="0"
     inkscape:deskcolor="#d1d1d1"
     inkscape:document-units="mm"
     showgrid="false" /><defs
     id="defs2"><linearGradient
       inkscape:collect="always"
       id="linearGradient1531"><stop
         style="stop-color:#f2f2f2;stop-opacity:1"
         offset="0"
         id="stop1527" /><stop
         style="stop-color:#ffffff;stop-opacity:1"
         offset="1"
         id="stop1529" /></linearGradient><style
       type="text/css"
       id="current-color-scheme">
      .ColorScheme-Text {
        color:#31363b;
      }
      .ColorScheme-Background {
        color:#eff0f1;
      }
      .ColorScheme-Highlight {
        color:#3daee9;
      }
      .ColorScheme-ViewText {
        color:#31363b;
      }
      .ColorScheme-ViewBackground {
        color:#fcfcfc;
      }
      .ColorScheme-ViewHover {
        color:#93cee9;
      }
      .ColorScheme-ViewFocus{
        color:#3daee9;
      }
      .ColorScheme-ButtonText {
        color:#31363b;
      }
      .ColorScheme-ButtonBackground {
        color:#eff0f1;
      }
      .ColorScheme-ButtonHover {
        color:#93cee9;
      }
      .ColorScheme-ButtonFocus{
        color:#3daee9;
      }
      </style><style
       type="text/css"
       id="current-color-scheme-9">
      .ColorScheme-Text {
        color:#31363b;
      }
      .ColorScheme-Background {
        color:#eff0f1;
      }
      .ColorScheme-Highlight {
        color:#3daee9;
      }
      .ColorScheme-ViewText {
        color:#31363b;
      }
      .ColorScheme-ViewBackground {
        color:#fcfcfc;
      }
      .ColorScheme-ViewHover {
        color:#93cee9;
      }
      .ColorScheme-ViewFocus{
        color:#3daee9;
      }
      .ColorScheme-ButtonText {
        color:#31363b;
      }
      .ColorScheme-ButtonBackground {
        color:#eff0f1;
      }
      .ColorScheme-ButtonHover {
        color:#93cee9;
      }
      .ColorScheme-ButtonFocus{
        color:#3daee9;
      }
      </style><style
       type="text/css"
       id="current-color-scheme-2">
      .ColorScheme-Text {
        color:#31363b;
      }
      .ColorScheme-Background {
        color:#eff0f1;
      }
      .ColorScheme-Highlight {
        color:#3daee9;
      }
      .ColorScheme-ViewText {
        color:#31363b;
      }
      .ColorScheme-ViewBackground {
        color:#fcfcfc;
      }
      .ColorScheme-ViewHover {
        color:#93cee9;
      }
      .ColorScheme-ViewFocus{
        color:#3daee9;
      }
      .ColorScheme-ButtonText {
        color:#31363b;
      }
      .ColorScheme-ButtonBackground {
        color:#eff0f1;
      }
      .ColorScheme-ButtonHover {
        color:#93cee9;
      }
      .ColorScheme-ButtonFocus{
        color:#3daee9;
      }
      </style><style
       type="text/css"
       id="current-color-scheme-3">
      .ColorScheme-Text {
        color:#31363b;
      }
      .ColorScheme-Background {
        color:#eff0f1;
      }
      .ColorScheme-Highlight {
        color:#3daee9;
      }
      .ColorScheme-ViewText {
        color:#31363b;
      }
      .ColorScheme-ViewBackground {
        color:#fcfcfc;
      }
      .ColorScheme-ViewHover {
        color:#93cee9;
      }
      .ColorScheme-ViewFocus{
        color:#3daee9;
      }
      .ColorScheme-ButtonText {
        color:#31363b;
      }
      .ColorScheme-ButtonBackground {
        color:#eff0f1;
      }
      .ColorScheme-ButtonHover {
        color:#93cee9;
      }
      .ColorScheme-ButtonFocus{
        color:#3daee9;
      }
      </style><style
       type="text/css"
       id="current-color-scheme-97">
      .ColorScheme-Text {
        color:#31363b;
      }
      .ColorScheme-Background {
        color:#eff0f1;
      }
      .ColorScheme-Highlight {
        color:#3daee9;
      }
      .ColorScheme-ViewText {
        color:#31363b;
      }
      .ColorScheme-ViewBackground {
        color:#fcfcfc;
      }
      .ColorScheme-ViewHover {
        color:#93cee9;
      }
      .ColorScheme-ViewFocus{
        color:#3daee9;
      }
      .ColorScheme-ButtonText {
        color:#31363b;
      }
      .ColorScheme-ButtonBackground {
        color:#eff0f1;
      }
      .ColorScheme-ButtonHover {
        color:#93cee9;
      }
      .ColorScheme-ButtonFocus{
        color:#3daee9;
      }
      </style><style
       type="text/css"
       id="current-color-scheme-7">
      .ColorScheme-Text {
        color:#31363b;
      }
      .ColorScheme-Background {
        color:#eff0f1;
      }
      .ColorScheme-Highlight {
        color:#3daee9;
      }
      .ColorScheme-ViewText {
        color:#31363b;
      }
      .ColorScheme-ViewBackground {
        color:#fcfcfc;
      }
      .ColorScheme-ViewHover {
        color:#93cee9;
      }
      .ColorScheme-ViewFocus{
        color:#3daee9;
      }
      .ColorScheme-ButtonText {
        color:#31363b;
      }
      .ColorScheme-ButtonBackground {
        color:#eff0f1;
      }
      .ColorScheme-ButtonHover {
        color:#93cee9;
      }
      .ColorScheme-ButtonFocus{
        color:#3daee9;
      }
      </style><style
       type="text/css"
       id="current-color-scheme-9-0">
      .ColorScheme-Text {
        color:#31363b;
      }
      .ColorScheme-Background {
        color:#eff0f1;
      }
      .ColorScheme-Highlight {
        color:#3daee9;
      }
      .ColorScheme-ViewText {
        color:#31363b;
      }
      .ColorScheme-ViewBackground {
        color:#fcfcfc;
      }
      .ColorScheme-ViewHover {
        color:#93cee9;
      }
      .ColorScheme-ViewFocus{
        color:#3daee9;
      }
      .ColorScheme-ButtonText {
        color:#31363b;
      }
      .ColorScheme-ButtonBackground {
        color:#eff0f1;
      }
      .ColorScheme-ButtonHover {
        color:#93cee9;
      }
      .ColorScheme-ButtonFocus{
        color:#3daee9;
      }
      </style><style
       type="text/css"
       id="current-color-scheme-2-9">
      .ColorScheme-Text {
        color:#31363b;
      }
      .ColorScheme-Background {
        color:#eff0f1;
      }
      .ColorScheme-Highlight {
        color:#3daee9;
      }
      .ColorScheme-ViewText {
        color:#31363b;
      }
      .ColorScheme-ViewBackground {
        color:#fcfcfc;
      }
      .ColorScheme-ViewHover {
        color:#93cee9;
      }
      .ColorScheme-ViewFocus{
        color:#3daee9;
      }
      .ColorScheme-ButtonText {
        color:#31363b;
      }
      .ColorScheme-ButtonBackground {
        color:#eff0f1;
      }
      .ColorScheme-ButtonHover {
        color:#93cee9;
      }
      .ColorScheme-ButtonFocus{
        color:#3daee9;
      }
      </style><style
       type="text/css"
       id="current-color-scheme-3-3">
      .ColorScheme-Text {
        color:#31363b;
      }
      .ColorScheme-Background {
        color:#eff0f1;
      }
      .ColorScheme-Highlight {
        color:#3daee9;
      }
      .ColorScheme-ViewText {
        color:#31363b;
      }
      .ColorScheme-ViewBackground {
        color:#fcfcfc;
      }
      .ColorScheme-ViewHover {
        color:#93cee9;
      }
      .ColorScheme-ViewFocus{
        color:#3daee9;
      }
      .ColorScheme-ButtonText {
        color:#31363b;
      }
      .ColorScheme-ButtonBackground {
        color:#eff0f1;
      }
      .ColorScheme-ButtonHover {
        color:#93cee9;
      }
      .ColorScheme-ButtonFocus{
        color:#3daee9;
      }
      </style><style
       type="text/css"
       id="current-color-scheme-97-6">
      .ColorScheme-Text {
        color:#31363b;
      }
      .ColorScheme-Background {
        color:#eff0f1;
      }
      .ColorScheme-Highlight {
        color:#3daee9;
      }
      .ColorScheme-ViewText {
        color:#31363b;
      }
      .ColorScheme-ViewBackground {
        color:#fcfcfc;
      }
      .ColorScheme-ViewHover {
        color:#93cee9;
      }
      .ColorScheme-ViewFocus{
        color:#3daee9;
      }
      .ColorScheme-ButtonText {
        color:#31363b;
      }
      .ColorScheme-ButtonBackground {
        color:#eff0f1;
      }
      .ColorScheme-ButtonHover {
        color:#93cee9;
      }
      .ColorScheme-ButtonFocus{
        color:#3daee9;
      }
      </style><style
       type="text/css"
       id="current-color-scheme-6">
      .ColorScheme-Text {
        color:#31363b;
      }
      .ColorScheme-Background {
        color:#eff0f1;
      }
      .ColorScheme-Highlight {
        color:#3daee9;
      }
      .ColorScheme-ViewText {
        color:#31363b;
      }
      .ColorScheme-ViewBackground {
        color:#fcfcfc;
      }
      .ColorScheme-ViewHover {
        color:#93cee9;
      }
      .ColorScheme-ViewFocus{
        color:#3daee9;
      }
      .ColorScheme-ButtonText {
        color:#31363b;
      }
      .ColorScheme-ButtonBackground {
        color:#eff0f1;
      }
      .ColorScheme-ButtonHover {
        color:#93cee9;
      }
      .ColorScheme-ButtonFocus{
        color:#3daee9;
      }
      </style><filter
       id="a"
       x="-0.097566701"
       y="-0.12081317"
       width="1.1951334"
       height="1.2416263"
       color-interpolation-filters="sRGB"><feGaussianBlur
         stdDeviation=".416"
         id="feGaussianBlur1479" /></filter><linearGradient
       inkscape:collect="always"
       xlink:href="#linearGradient1531"
       id="linearGradient1533"
       x1="227.28226"
       y1="-55.493183"
       x2="214.11655"
       y2="657.6496"
       gradientUnits="userSpaceOnUse" /><linearGradient
       inkscape:collect="always"
       xlink:href="#linearGradient1531"
       id="linearGradient1807"
       gradientUnits="userSpaceOnUse"
       x1="227.28226"
       y1="-55.493183"
       x2="214.11655"
       y2="657.6496" /><linearGradient
       inkscape:collect="always"
       xlink:href="#linearGradient1531"
       id="linearGradient1809"
       gradientUnits="userSpaceOnUse"
       x1="227.28226"
       y1="-55.493183"
       x2="214.11655"
       y2="657.6496" /><linearGradient
       inkscape:collect="always"
       xlink:href="#linearGradient1531"
       id="linearGradient1811"
       gradientUnits="userSpaceOnUse"
       x1="227.28226"
       y1="-55.493183"
       x2="214.11655"
       y2="657.6496" /></defs><g
     inkscape:label="Camada 1"
     inkscape:groupmode="layer"
     id="layer1"
     transform="translate(-41.000001,-84.500272)"><g
       id="g244"
       transform="matrix(-0.28676179,0,0,-0.28676181,169.00002,212.49981)"
       style="fill:url(#linearGradient1533);fill-opacity:1"
       inkscape:export-filename="baobab.svg"
       inkscape:export-xdpi="25.400002"
       inkscape:export-ydpi="25.400002"><g
         id="g246"
         style="fill:url(#linearGradient1811);fill-opacity:1"><g
           id="g252"
           style="fill:url(#linearGradient1809);fill-opacity:1"><path
             d="m 174.406,2.305 c 2.434,0.027 4.758,-0.285 6.973,-0.93 29.133,-1.906 58.258,-1.832 87.387,0.234 26.41,2.055 51.976,7.786 76.699,17.188 41.097,16.922 69.219,46.269 84.363,88.043 8.66,25.152 13.774,51.015 15.34,77.59 2.164,33.371 1.391,66.668 -2.324,99.89 -2.782,23.352 -8.824,45.805 -18.129,67.368 -17.258,37.382 -45.223,63.167 -83.899,77.355 -31.343,10.59 -63.57,16.164 -96.687,16.723 -37.246,1.937 -74.121,-0.848 -110.625,-8.36 C 66.312,422.438 24.867,381.477 9.164,314.52 2.496,284.375 -0.523,253.867 0.098,222.992 -0.645,190.16 2.84,157.793 10.559,125.891 27.02,63.285 66.762,24.488 129.785,9.508 144.469,5.914 159.344,3.516 174.406,2.305 Z"
             style="fill:url(#linearGradient1807);fill-opacity:1;fill-rule:evenodd;stroke:none"
             id="path260" /></g></g></g><g
       id="g1729"
       transform="matrix(1.0349589,0,0,1.0349589,-269.10579,108.06864)"><path
         d="m 348.30411,24.158538 c -0.84366,15.12909 -14.49582,24.724942 -22.83144,24.724942 a 6.545209,6.545209 0 1 0 0,13.090418 c 17.00156,0 35.11607,-15.286881 35.92396,-37.731204 a 13.090418,13.090418 0 0 1 -6.46946,1.733607 13.090418,13.090418 0 0 1 -6.62095,-1.815659 z"
         fill="#97c33d"
         id="path1486"
         style="stroke-width:2.10389" /><path
         d="m 23.744,32.827 c -1.338,1.826 -3.06,3.21 -4.767,4.065 1.532,1.772 3.353,3.216 5.414,4.199 a 18.64,18.64 0 0 0 4.819,-4.943 c -2.03,-0.423 -3.927,-1.593 -5.466,-3.321 z"
         filter="url(#a)"
         opacity="0.1"
         id="path1488"
         transform="matrix(2.1038923,0,0,2.1038923,293.22842,-30.828791)" /><path
         d="m 332.23248,16.721279 a 9.8188654,9.8188654 0 0 1 -6.76191,2.709813 9.8188654,9.8188654 0 0 1 -6.27802,-2.267996 c 1.74413,20.763313 16.09478,38.267697 35.73251,38.267697 a 6.5462609,6.5462609 0 1 0 0,-13.092521 c -11.06226,0 -21.17357,-10.824526 -22.69258,-25.619097 z"
         fill="#3f96b9"
         id="path1490"
         style="stroke-width:2.10389" /><path
         d="m 325.47057,3.0670178 a 6.5452089,6.5452089 0 0 0 -6.54521,6.545209 6.5452089,6.5452089 0 0 0 6.54521,6.5452092 6.5452089,6.5452089 0 0 0 6.54521,-6.5431053 6.5452089,6.5452089 0 0 0 -6.54521,-6.5473129 z m 0,3.2736565 a 3.2736564,3.2736564 0 0 1 3.27366,3.2715525 3.2736564,3.2736564 0 0 1 -3.27366,3.2736562 3.2736564,3.2736564 0 0 1 -3.27366,-3.2736562 3.2736564,3.2736564 0 0 1 3.27366,-3.2715525 z"
         fill="#196260"
         style="stroke-width:2.10389;paint-order:normal"
         id="path1492" /><path
         d="m 354.92506,3.0670178 a 9.8188654,9.8188654 0 0 0 -9.81886,9.8188652 9.8188654,9.8188654 0 0 0 9.81886,9.816762 9.8188654,9.8188654 0 0 0 9.81887,-9.816762 9.8188654,9.8188654 0 0 0 -9.81887,-9.8188652 z m 0,3.2736565 a 6.5452089,6.5452089 0 0 1 6.54521,6.5431047 6.5452089,6.5452089 0 0 1 -6.54521,6.547313 6.5452089,6.5452089 0 0 1 -6.54521,-6.545209 6.5452089,6.5452089 0 0 1 6.54521,-6.5452087 z m 0,3.2715525 a 3.2736564,3.2736564 0 0 0 -3.27365,3.2736562 3.2736564,3.2736564 0 0 0 3.27365,3.271553 3.2736564,3.2736564 0 0 0 3.27366,-3.271553 3.2736564,3.2736564 0 0 0 -3.27366,-3.2736562 z"
         fill="#3f96b9"
         style="stroke-width:2.10389;paint-order:normal"
         id="path1494" /><path
         d="m 366.30502,6.3385704 c 1.11716,1.9629315 1.70836,4.2856286 1.71256,6.5452086 a 13.090418,13.090418 0 0 1 -1.84721,6.673547 c 10.43951,1.415919 21.48284,12.96208 21.48284,19.509393 a 6.54521,6.54521 0 1 0 13.09042,0 c 0,-16.364074 -19.63563,-32.7281486 -34.43861,-32.7281486 z"
         fill="#5d7dbd"
         id="path1496"
         style="stroke-width:2.10389" /><path
         d="m 397.46997,16.157436 c -15.62771,0 -30.19085,16.364074 -32.2169,30.611633 a 16.364074,16.364074 0 0 1 6.03396,-1.157141 16.368282,16.368282 0 0 1 7.22266,1.699945 c 0.62486,-8.245154 12.41297,-18.064019 18.95818,-18.064019 a 6.545209,6.545209 0 1 0 0,-13.090418 z"
         fill="#196260"
         id="path1498"
         style="stroke-width:2.10389" /><path
         d="M 371.28914,48.88348 A 13.090418,13.090418 0 0 0 358.19872,61.973898 13.090418,13.090418 0 0 0 371.28914,75.064316 13.090418,13.090418 0 0 0 384.37955,61.973898 13.090418,13.090418 0 0 0 371.28914,48.88348 Z m 0,3.273657 a 9.8188654,9.8188654 0 0 1 9.81886,9.816761 9.8188654,9.8188654 0 0 1 -9.81886,9.818866 9.8188654,9.8188654 0 0 1 -9.81887,-9.818866 9.8188654,9.8188654 0 0 1 9.81887,-9.816761 z m 0,3.271552 a 6.5452089,6.5452089 0 0 0 -6.54521,6.545209 6.5452089,6.5452089 0 0 0 6.54521,6.545209 6.5452089,6.5452089 0 0 0 6.5452,-6.543105 6.5452089,6.5452089 0 0 0 -6.5452,-6.547313 z m 0,3.273657 a 3.2736564,3.2736564 0 0 1 3.27365,3.271552 3.2736564,3.2736564 0 0 1 -3.27365,3.273657 3.2736564,3.2736564 0 0 1 -3.27366,-3.273657 3.2736564,3.2736564 0 0 1 3.27366,-3.271552 z"
         fill="#5d7dbd"
         id="path1500"
         style="stroke-width:2.10389" /></g></g></svg>
