<?xml version="1.0" encoding="UTF-8" standalone="no"?>
<!-- Created with Inkscape (http://www.inkscape.org/) -->

<svg
   width="133.96359mm"
   height="133.96271mm"
   viewBox="0 0 133.96359 133.96271"
   version="1.1"
   id="svg5"
   xml:space="preserve"
   xmlns:inkscape="http://www.inkscape.org/namespaces/inkscape"
   xmlns:sodipodi="http://sodipodi.sourceforge.net/DTD/sodipodi-0.dtd"
   xmlns:xlink="http://www.w3.org/1999/xlink"
   xmlns="http://www.w3.org/2000/svg"
   xmlns:svg="http://www.w3.org/2000/svg"><sodipodi:namedview
     id="namedview7"
     pagecolor="#ffffff"
     bordercolor="#000000"
     borderopacity="0.25"
     inkscape:showpageshadow="2"
     inkscape:pageopacity="0.0"
     inkscape:pagecheckerboard="0"
     inkscape:deskcolor="#d1d1d1"
     inkscape:document-units="mm"
     showgrid="false" /><defs
     id="defs2"><linearGradient
       inkscape:collect="always"
       id="linearGradient730"><stop
         style="stop-color:#b3b3b3;stop-opacity:1"
         offset="0"
         id="stop726" /><stop
         style="stop-color:#175ddc;stop-opacity:1"
         offset="1"
         id="stop728" /></linearGradient><linearGradient
       inkscape:collect="always"
       xlink:href="#linearGradient730"
       id="linearGradient732"
       x1="209.72278"
       y1="842.69019"
       x2="199.02078"
       y2="-81.248116"
       gradientUnits="userSpaceOnUse" /><linearGradient
       inkscape:collect="always"
       xlink:href="#linearGradient730"
       id="linearGradient1509"
       gradientUnits="userSpaceOnUse"
       x1="209.72278"
       y1="842.69019"
       x2="199.02078"
       y2="-81.248116" /></defs><g
     id="g192"
     transform="matrix(0.35277776,0,0,0.35277778,5.0620457e-4,-1.6930737e-4)"
     style="fill:url(#linearGradient732);fill-opacity:1"
     inkscape:export-filename="g192.svg"
     inkscape:export-xdpi="24.269279"
     inkscape:export-ydpi="24.269279"><path
       d="m 148.375,1.961 c 2.07,0.023 4.047,-0.242 5.93,-0.789 24.785,-1.625 49.566,-1.559 74.343,0.195 22.469,1.75 44.219,6.625 65.25,14.625 34.965,14.395 58.887,39.36 71.774,74.899 7.367,21.398 11.719,43.402 13.051,66.007 1.839,28.391 1.179,56.715 -1.981,84.981 -2.363,19.867 -7.504,38.969 -15.422,57.312 -14.683,31.801 -38.472,53.739 -71.375,65.809 -26.664,9.008 -54.082,13.754 -82.254,14.23 C 176,380.879 144.633,378.508 113.574,372.117 56.414,359.387 21.156,324.535 7.793,267.574 2.125,241.93 -0.445,215.977 0.082,189.707 -0.551,161.773 2.418,134.238 8.98,107.098 22.988,53.84 56.797,20.836 110.414,8.086 122.906,5.035 135.559,2.992 148.375,1.961 Z"
       style="fill:url(#linearGradient1509);fill-opacity:1;fill-rule:evenodd;stroke:none"
       id="path194" /></g><path
     d="m 32.574883,24.746834 c -1.719618,0 -1.719618,-0.26012 -1.719618,25.04291 0,25.67633 -0.03129,25.16332 1.94361,30.14157 2.271146,5.72725 5.929564,10.56821 11.936195,15.82822 5.040867,4.414666 11.016197,8.412666 17.682739,11.806156 2.25431,1.14642 3.41999,1.66905 4.564,1.64978 1.1464,0.0193 2.30968,-0.50336 4.56397,-1.64978 6.66656,-3.3959 12.6443,-7.39149 17.68274,-11.806156 6.00664,-5.26001 9.66505,-10.10097 11.936211,-15.82822 1.97491,-4.97825 1.94361,-4.46524 1.94361,-30.14157 0,-25.30303 0,-25.04291 -1.71963,-25.04291 z m 34.406926,12.04217 h 23.37627 v 34.17811 c 0,0 -0.014,1.66182 -1.04526,4.26774 -1.45229,3.65601 -3.46574,6.54371 -8.48492,10.93911 -3.81014,3.33569 -8.61257,6.42571 -13.84609,9.21469 z"
     fill="#ffffff"
     id="path943"
     style="stroke-width:2.40844" /></svg>
