<?xml version="1.0" encoding="UTF-8" standalone="no"?>
<!-- Created with Inkscape (http://www.inkscape.org/) -->

<svg
   width="128mm"
   height="127.99948mm"
   viewBox="0 0 128 127.99948"
   version="1.1"
   id="svg5"
   xml:space="preserve"
   xmlns:inkscape="http://www.inkscape.org/namespaces/inkscape"
   xmlns:sodipodi="http://sodipodi.sourceforge.net/DTD/sodipodi-0.dtd"
   xmlns:xlink="http://www.w3.org/1999/xlink"
   xmlns="http://www.w3.org/2000/svg"
   xmlns:svg="http://www.w3.org/2000/svg"><sodipodi:namedview
     id="namedview7"
     pagecolor="#ffffff"
     bordercolor="#000000"
     borderopacity="0.25"
     inkscape:showpageshadow="2"
     inkscape:pageopacity="0.0"
     inkscape:pagecheckerboard="0"
     inkscape:deskcolor="#d1d1d1"
     inkscape:document-units="mm"
     showgrid="false" /><defs
     id="defs2"><linearGradient
       inkscape:collect="always"
       id="linearGradient10726"><stop
         style="stop-color:#4b92d6;stop-opacity:1"
         offset="0"
         id="stop10722" /><stop
         style="stop-color:#80b3ff;stop-opacity:1"
         offset="1"
         id="stop10724" /></linearGradient><style
       type="text/css"
       id="current-color-scheme">
      .ColorScheme-Text {
        color:#31363b;
      }
      .ColorScheme-Background {
        color:#eff0f1;
      }
      .ColorScheme-Highlight {
        color:#3daee9;
      }
      .ColorScheme-ViewText {
        color:#31363b;
      }
      .ColorScheme-ViewBackground {
        color:#fcfcfc;
      }
      .ColorScheme-ViewHover {
        color:#93cee9;
      }
      .ColorScheme-ViewFocus{
        color:#3daee9;
      }
      .ColorScheme-ButtonText {
        color:#31363b;
      }
      .ColorScheme-ButtonBackground {
        color:#eff0f1;
      }
      .ColorScheme-ButtonHover {
        color:#93cee9;
      }
      .ColorScheme-ButtonFocus{
        color:#3daee9;
      }
      </style><style
       type="text/css"
       id="current-color-scheme-9">
      .ColorScheme-Text {
        color:#31363b;
      }
      .ColorScheme-Background {
        color:#eff0f1;
      }
      .ColorScheme-Highlight {
        color:#3daee9;
      }
      .ColorScheme-ViewText {
        color:#31363b;
      }
      .ColorScheme-ViewBackground {
        color:#fcfcfc;
      }
      .ColorScheme-ViewHover {
        color:#93cee9;
      }
      .ColorScheme-ViewFocus{
        color:#3daee9;
      }
      .ColorScheme-ButtonText {
        color:#31363b;
      }
      .ColorScheme-ButtonBackground {
        color:#eff0f1;
      }
      .ColorScheme-ButtonHover {
        color:#93cee9;
      }
      .ColorScheme-ButtonFocus{
        color:#3daee9;
      }
      </style><style
       type="text/css"
       id="current-color-scheme-2">
      .ColorScheme-Text {
        color:#31363b;
      }
      .ColorScheme-Background {
        color:#eff0f1;
      }
      .ColorScheme-Highlight {
        color:#3daee9;
      }
      .ColorScheme-ViewText {
        color:#31363b;
      }
      .ColorScheme-ViewBackground {
        color:#fcfcfc;
      }
      .ColorScheme-ViewHover {
        color:#93cee9;
      }
      .ColorScheme-ViewFocus{
        color:#3daee9;
      }
      .ColorScheme-ButtonText {
        color:#31363b;
      }
      .ColorScheme-ButtonBackground {
        color:#eff0f1;
      }
      .ColorScheme-ButtonHover {
        color:#93cee9;
      }
      .ColorScheme-ButtonFocus{
        color:#3daee9;
      }
      </style><style
       type="text/css"
       id="current-color-scheme-3">
      .ColorScheme-Text {
        color:#31363b;
      }
      .ColorScheme-Background {
        color:#eff0f1;
      }
      .ColorScheme-Highlight {
        color:#3daee9;
      }
      .ColorScheme-ViewText {
        color:#31363b;
      }
      .ColorScheme-ViewBackground {
        color:#fcfcfc;
      }
      .ColorScheme-ViewHover {
        color:#93cee9;
      }
      .ColorScheme-ViewFocus{
        color:#3daee9;
      }
      .ColorScheme-ButtonText {
        color:#31363b;
      }
      .ColorScheme-ButtonBackground {
        color:#eff0f1;
      }
      .ColorScheme-ButtonHover {
        color:#93cee9;
      }
      .ColorScheme-ButtonFocus{
        color:#3daee9;
      }
      </style><style
       type="text/css"
       id="current-color-scheme-97">
      .ColorScheme-Text {
        color:#31363b;
      }
      .ColorScheme-Background {
        color:#eff0f1;
      }
      .ColorScheme-Highlight {
        color:#3daee9;
      }
      .ColorScheme-ViewText {
        color:#31363b;
      }
      .ColorScheme-ViewBackground {
        color:#fcfcfc;
      }
      .ColorScheme-ViewHover {
        color:#93cee9;
      }
      .ColorScheme-ViewFocus{
        color:#3daee9;
      }
      .ColorScheme-ButtonText {
        color:#31363b;
      }
      .ColorScheme-ButtonBackground {
        color:#eff0f1;
      }
      .ColorScheme-ButtonHover {
        color:#93cee9;
      }
      .ColorScheme-ButtonFocus{
        color:#3daee9;
      }
      </style><style
       type="text/css"
       id="current-color-scheme-7">
      .ColorScheme-Text {
        color:#31363b;
      }
      .ColorScheme-Background {
        color:#eff0f1;
      }
      .ColorScheme-Highlight {
        color:#3daee9;
      }
      .ColorScheme-ViewText {
        color:#31363b;
      }
      .ColorScheme-ViewBackground {
        color:#fcfcfc;
      }
      .ColorScheme-ViewHover {
        color:#93cee9;
      }
      .ColorScheme-ViewFocus{
        color:#3daee9;
      }
      .ColorScheme-ButtonText {
        color:#31363b;
      }
      .ColorScheme-ButtonBackground {
        color:#eff0f1;
      }
      .ColorScheme-ButtonHover {
        color:#93cee9;
      }
      .ColorScheme-ButtonFocus{
        color:#3daee9;
      }
      </style><style
       type="text/css"
       id="current-color-scheme-9-0">
      .ColorScheme-Text {
        color:#31363b;
      }
      .ColorScheme-Background {
        color:#eff0f1;
      }
      .ColorScheme-Highlight {
        color:#3daee9;
      }
      .ColorScheme-ViewText {
        color:#31363b;
      }
      .ColorScheme-ViewBackground {
        color:#fcfcfc;
      }
      .ColorScheme-ViewHover {
        color:#93cee9;
      }
      .ColorScheme-ViewFocus{
        color:#3daee9;
      }
      .ColorScheme-ButtonText {
        color:#31363b;
      }
      .ColorScheme-ButtonBackground {
        color:#eff0f1;
      }
      .ColorScheme-ButtonHover {
        color:#93cee9;
      }
      .ColorScheme-ButtonFocus{
        color:#3daee9;
      }
      </style><style
       type="text/css"
       id="current-color-scheme-2-9">
      .ColorScheme-Text {
        color:#31363b;
      }
      .ColorScheme-Background {
        color:#eff0f1;
      }
      .ColorScheme-Highlight {
        color:#3daee9;
      }
      .ColorScheme-ViewText {
        color:#31363b;
      }
      .ColorScheme-ViewBackground {
        color:#fcfcfc;
      }
      .ColorScheme-ViewHover {
        color:#93cee9;
      }
      .ColorScheme-ViewFocus{
        color:#3daee9;
      }
      .ColorScheme-ButtonText {
        color:#31363b;
      }
      .ColorScheme-ButtonBackground {
        color:#eff0f1;
      }
      .ColorScheme-ButtonHover {
        color:#93cee9;
      }
      .ColorScheme-ButtonFocus{
        color:#3daee9;
      }
      </style><style
       type="text/css"
       id="current-color-scheme-3-3">
      .ColorScheme-Text {
        color:#31363b;
      }
      .ColorScheme-Background {
        color:#eff0f1;
      }
      .ColorScheme-Highlight {
        color:#3daee9;
      }
      .ColorScheme-ViewText {
        color:#31363b;
      }
      .ColorScheme-ViewBackground {
        color:#fcfcfc;
      }
      .ColorScheme-ViewHover {
        color:#93cee9;
      }
      .ColorScheme-ViewFocus{
        color:#3daee9;
      }
      .ColorScheme-ButtonText {
        color:#31363b;
      }
      .ColorScheme-ButtonBackground {
        color:#eff0f1;
      }
      .ColorScheme-ButtonHover {
        color:#93cee9;
      }
      .ColorScheme-ButtonFocus{
        color:#3daee9;
      }
      </style><style
       type="text/css"
       id="current-color-scheme-97-6">
      .ColorScheme-Text {
        color:#31363b;
      }
      .ColorScheme-Background {
        color:#eff0f1;
      }
      .ColorScheme-Highlight {
        color:#3daee9;
      }
      .ColorScheme-ViewText {
        color:#31363b;
      }
      .ColorScheme-ViewBackground {
        color:#fcfcfc;
      }
      .ColorScheme-ViewHover {
        color:#93cee9;
      }
      .ColorScheme-ViewFocus{
        color:#3daee9;
      }
      .ColorScheme-ButtonText {
        color:#31363b;
      }
      .ColorScheme-ButtonBackground {
        color:#eff0f1;
      }
      .ColorScheme-ButtonHover {
        color:#93cee9;
      }
      .ColorScheme-ButtonFocus{
        color:#3daee9;
      }
      </style><style
       type="text/css"
       id="current-color-scheme-6">
      .ColorScheme-Text {
        color:#31363b;
      }
      .ColorScheme-Background {
        color:#eff0f1;
      }
      .ColorScheme-Highlight {
        color:#3daee9;
      }
      .ColorScheme-ViewText {
        color:#31363b;
      }
      .ColorScheme-ViewBackground {
        color:#fcfcfc;
      }
      .ColorScheme-ViewHover {
        color:#93cee9;
      }
      .ColorScheme-ViewFocus{
        color:#3daee9;
      }
      .ColorScheme-ButtonText {
        color:#31363b;
      }
      .ColorScheme-ButtonBackground {
        color:#eff0f1;
      }
      .ColorScheme-ButtonHover {
        color:#93cee9;
      }
      .ColorScheme-ButtonFocus{
        color:#3daee9;
      }
      </style><style
       id="current-color-scheme-35"
       type="text/css">.ColorScheme-Text{color:#4d4d4d}</style><style
       id="current-color-scheme-1"
       type="text/css">.ColorScheme-Text{color:#4d4d4d}</style><linearGradient
       inkscape:collect="always"
       xlink:href="#linearGradient10726"
       id="linearGradient10728"
       x1="225.08797"
       y1="111.27251"
       x2="225.08797"
       y2="515.02106"
       gradientUnits="userSpaceOnUse" /><linearGradient
       inkscape:collect="always"
       xlink:href="#linearGradient10726"
       id="linearGradient13810"
       gradientUnits="userSpaceOnUse"
       x1="225.08797"
       y1="111.27251"
       x2="225.08797"
       y2="515.02106" /><linearGradient
       inkscape:collect="always"
       xlink:href="#linearGradient10726"
       id="linearGradient13812"
       gradientUnits="userSpaceOnUse"
       x1="225.08797"
       y1="111.27251"
       x2="225.08797"
       y2="515.02106" /><linearGradient
       inkscape:collect="always"
       xlink:href="#linearGradient10726"
       id="linearGradient13814"
       gradientUnits="userSpaceOnUse"
       x1="225.08797"
       y1="111.27251"
       x2="225.08797"
       y2="515.02106" /></defs><g
     inkscape:label="Camada 1"
     inkscape:groupmode="layer"
     id="layer1"
     transform="translate(-41.000001,-84.500272)"><g
       id="g244"
       transform="matrix(-0.28676179,0,0,-0.28676181,169.00002,212.49981)"
       style="fill:url(#linearGradient10728);fill-opacity:1"
       inkscape:export-filename="blocks.svg"
       inkscape:export-xdpi="25.400002"
       inkscape:export-ydpi="25.400002"><g
         id="g246"
         style="fill:url(#linearGradient13814);fill-opacity:1"><g
           id="g252"
           style="fill:url(#linearGradient13812);fill-opacity:1"><path
             d="m 174.406,2.305 c 2.434,0.027 4.758,-0.285 6.973,-0.93 29.133,-1.906 58.258,-1.832 87.387,0.234 26.41,2.055 51.976,7.786 76.699,17.188 41.097,16.922 69.219,46.269 84.363,88.043 8.66,25.152 13.774,51.015 15.34,77.59 2.164,33.371 1.391,66.668 -2.324,99.89 -2.782,23.352 -8.824,45.805 -18.129,67.368 -17.258,37.382 -45.223,63.167 -83.899,77.355 -31.343,10.59 -63.57,16.164 -96.687,16.723 -37.246,1.937 -74.121,-0.848 -110.625,-8.36 C 66.312,422.438 24.867,381.477 9.164,314.52 2.496,284.375 -0.523,253.867 0.098,222.992 -0.645,190.16 2.84,157.793 10.559,125.891 27.02,63.285 66.762,24.488 129.785,9.508 144.469,5.914 159.344,3.516 174.406,2.305 Z"
             style="fill:url(#linearGradient13810);fill-opacity:1;fill-rule:evenodd;stroke:none"
             id="path260" /></g></g></g><path
       d="m 104.166,95.24344 a 53.630741,53.630741 0 0 0 -11.836973,1.502771 c -1.00054,0.89614 -2.48164,1.35308 -4.13998,1.30777 -0.59481,0.56724 -0.45694,1.62882 -0.77995,2.408759 -0.27573,0.65389 -1.23293,1.35505 -1.88879,1.2999 -0.48254,-0.0393 -1.03796,-0.72086 -1.03796,-1.17385 0,-0.54557 0.75631,-0.848879 0.34271,-1.457469 a 53.020182,53.020182 0 0 0 -11.79759,6.680709 c 0.96706,-0.35649 2.03652,-0.95523 2.91493,-0.97296 a 1.5756369,1.5756369 0 0 1 0.4077,0.0453 c 0.59087,0.15756 2.14286,1.85728 0.84888,2.40875 -0.12212,0.0531 -1.89865,0.2462 -2.2059,0.19301 -0.45299,-0.0749 -0.71888,-0.69918 -1.17582,-0.77994 -0.76615,-0.13195 -1.73517,0.66177 -2.393,0.30529 a 53.098963,53.098963 0 0 0 -16.26845,22.48828 c 0.30923,-0.17726 0.63026,-0.36634 0.90599,-0.51209 0.9513,-0.49632 1.75291,-1.29596 2.86175,-1.36883 0.55148,-0.0104 1.35111,0.14968 1.87896,0.25998 0.49238,0.0985 0.88432,0.42936 1.30974,0.46088 1.20142,0.0906 1.48701,-0.84692 2.46587,-1.36687 1.01235,0.14378 1.68593,-0.17136 2.60177,-0.069 0.62435,0.069 1.0734,0.73464 1.56185,0.77206 0.40573,0.0433 0.77207,-0.38012 1.16795,-0.31907 0.38406,0.0611 1.04386,0.89811 1.10688,1.36687 0.0788,0.58496 -0.42739,1.11082 -0.25998,1.75289 0.61253,0.62435 1.72926,0.7504 2.60374,1.10886 0.57117,-0.46875 0.0769,-1.34323 0,-2.02075 -0.0118,-0.30135 0.0413,-0.56329 0,-0.841 -0.0531,-0.46876 -0.25801,-0.89811 -0.25801,-1.30187 -0.0118,-1.84941 1.49095,-2.71798 2.7357,-3.44671 0.53571,-0.32103 0.95916,-0.87644 1.42595,-1.10687 0.65782,-0.33287 1.15021,-0.4077 1.69381,-0.71693 0.98478,-0.55147 1.83168,-1.00052 2.60177,-1.62881 0.35845,-0.84099 0.0394,-1.96167 0.069,-2.79282 0.35845,-0.21665 0.66176,0.0985 1.03991,0.069 0.59086,-0.12605 0.64207,-0.96508 0.98084,-1.2999 0.19695,-0.19695 0.72873,-0.33285 0.97492,-0.52193 0.59284,-0.46481 0.78388,-1.16794 1.2999,-1.36687 0.18711,-0.0769 0.61253,-0.0531 0.90599,-0.13392 0.38406,-0.10244 0.9316,-0.55935 1.55988,-0.77207 0.4077,-0.13984 1.34718,-0.17134 1.50277,-0.32694 0.19104,-0.19301 0,-0.74646 0.069,-1.03796 0.31513,-1.46928 2.52693,-1.78046 3.84258,-2.27679 0.91781,-0.34467 1.85335,-0.98083 2.86174,-0.78782 -0.19695,0.69722 -1.13444,0.453 -0.97295,1.30187 0.2206,1.17582 1.792295,-0.33875 2.205905,-0.51208 0.79569,-0.33482 2.154678,-0.53768 3.196558,-0.91386 0.91388,-0.33483 2.5486,-0.84691 1.68593,-1.88683 -0.71888,-0.0433 -1.06355,0.83903 -1.68593,1.10689 -0.4333,0.067 -0.35451,-0.35846 -0.71888,-0.39588 -0.35057,-0.0413 -0.547527,0.31907 -0.905988,0.25801 -0.35845,-0.0592 -0.86069,-0.62041 -0.91386,-1.03795 -0.13984,-1.08325 0.91779,-1.53034 1.36686,-2.33983 -0.29544,-0.9828 -1.65442,-0.20286 -2.47375,-0.58692 0.0788,-0.58496 0.685411,-0.98871 1.366861,-1.09901 0.55936,-0.0965 1.813947,-0.0453 2.146807,0.25014 0.19301,0.16347 0.0138,0.5751 0.32498,0.84887 0.33087,0.30134 0.73857,0.26982 1.1699,0.20089 0.15559,-0.74055 -0.96507,-0.55935 -0.841,-1.04386 0.87842,-0.57707 2.30438,-0.10047 3.38172,-0.25998 0.62041,-0.0926 1.27036,-0.53178 1.82183,-0.84099 0.52193,-0.29543 1.19945,-0.8154 1.75486,-0.32695 0.15166,0.53178 -0.48253,0.70707 -0.77994,0.97296 -0.99659,0.88629 -2.02075,1.89864 -2.79282,2.93068 0.47467,0.46482 1.33536,0.23241 2.14287,0.32695 0.31119,0.0413 0.70707,0.13392 1.03796,0.19498 0.38799,0.067 0.80357,0.0492 1.10687,0.12409 0.54754,0.13392 0.69329,0.71888 1.23295,0.71888 0.89023,0 0.8981,-0.96508 0.39587,-1.56776 0.15953,-0.61056 0.4077,-0.92568 0.19499,-1.35898 -0.39982,-0.80161 -1.87107,-0.0394 -1.94986,-1.03795 -0.0492,-0.64602 0.54557,-0.62435 0.78192,-1.10689 -0.10834,-1.25066 1.02613,-1.34323 0.90599,-2.465869 -0.0552,-0.46679 -0.453,-0.47466 -0.78192,-0.91191 -0.17134,-0.22452 -0.24619,-0.67357 -0.45299,-0.84887 -0.67949,-0.5751 -2.06212,-0.46482 -2.1468,-1.55988 -0.0104,-0.374213 0.0433,-0.705097 0.0788,-1.055676 -0.63025,-0.02954 -1.2487,-0.08666 -1.88092,-0.09453 z M 78.823847,108.0061 c 0.30528,0.0394 0.67359,0.36436 1.03795,0.3939 0.34664,0.0118 0.63616,-0.18906 0.84888,-0.13392 0.54556,0.14574 0.77205,0.96705 0.25997,1.36686 -0.42738,0.0531 -0.59479,-0.18316 -0.91386,-0.12605 -0.88236,0.15363 -1.22112,1.88091 -1.87896,1.8238 -0.62433,-0.0531 -0.95916,-1.57169 -0.3289,-2.02075 0.0433,-0.39588 -0.28756,-0.45694 -0.26589,-0.84888 0.18711,-0.24029 0.72281,-0.49829 1.24081,-0.45299 m -2.93068,0.20089 c 0.18316,0.008 0.31512,0.0512 0.388,0.12605 -0.0867,0.69329 -0.63025,0.64995 -1.16795,0.97493 -0.92568,0.55936 -1.4614,1.40822 -1.75289,2.60176 -0.0847,0.34665 -0.99462,1.2684 -1.4358,1.17583 -1.03007,-0.21665 0.28558,-2.11923 0.52193,-2.40876 0.25801,-0.31906 0.61055,-0.60464 0.91387,-0.97295 0.29543,-0.35846 0.49239,-0.841 0.77994,-1.03993 0.31119,-0.21665 1.2093,-0.47465 1.7529,-0.45299 m 7.69896,2.34179 c 0.33087,0.008 0.62433,0.059 0.7563,0.19301 -0.21272,0.8607 -2.05817,0.63027 -2.73571,0.32104 0.0453,-0.32497 0.54754,-0.4136 0.97493,-0.45299 0.29937,-0.0118 0.67359,-0.069 1.00448,-0.0611 m -4.21286,1.58155 c 0.22058,-0.008 0.4451,0.0433 0.67752,0.10441 -0.59678,0.50223 -1.24869,0.78387 -2.27484,1.10688 -0.49631,0.1556 -1.35109,0.34861 -1.43579,-0.20286 -0.10244,-0.67752 0.72283,-0.51603 1.17582,-0.57709 0.56723,-0.0788 1.19157,-0.41163 1.85729,-0.43132 m 65.333773,0.96704 c 0.0492,0.48649 0.0571,0.9513 -0.0769,1.4811 -0.17726,0.70313 -0.80949,1.34324 -0.77994,1.95577 0.0433,0.31118 0.38406,0.61646 0.46087,1.03794 0.0413,0.22453 -0.10637,0.70904 0,0.91387 0.33088,0.63813 1.23293,0.0985 1.82182,0.19302 0.57511,0.0926 1.24083,0.9178 1.23294,1.55988 -0.006,0.44906 -0.42936,1.19551 -0.71494,1.62881 -0.56724,0.86463 -1.33536,0.90206 -2.14681,1.35899 -0.67555,0.38406 -0.96901,1.0281 -1.36489,1.69381 -0.42937,0.72282 -0.69723,1.16006 -0.52193,2.20589 -0.58103,1.15416 -1.46338,1.86122 -2.66677,2.40876 -0.35846,0.15953 -0.841,0.21665 -1.16794,0.45299 -0.25802,0.18711 -0.41164,0.69329 -0.77994,1.10689 -0.45693,0.50617 -0.93554,0.71888 -1.17582,1.10689 -0.1871,0.30133 -0.24816,0.8981 -0.45299,1.30187 -0.27771,0.54753 -0.86661,0.81539 -1.23295,1.36686 -0.16741,0.25604 -0.27769,0.77206 -0.46087,1.10688 -0.40966,0.74843 -1.11476,1.29005 -1.03795,1.94788 0.0769,0.63617 0.79964,0.74646 0.84691,1.29991 0.0118,0.31513 -0.20484,0.50814 -0.19302,0.85083 0.0118,0.4983 0.34664,0.84691 0.38801,1.23294 0.0985,0.96509 -0.33089,1.35308 -0.51208,2.01288 -0.0887,0.31512 -0.0512,0.66571 -0.13394,0.9119 -0.15952,0.48451 -0.83311,0.92174 -0.84887,1.49685 -0.008,0.40573 0.41754,0.72873 0.45299,1.2999 0.0118,0.39391 -0.19498,0.8154 -0.12605,1.17582 0.13787,0.70904 1.40429,1.53034 1.95576,2.08181 0.73465,0.73465 1.69775,1.30582 2.01288,2.08181 0.26589,0.65783 0.26589,1.51655 0.77994,2.01288 0.38012,0.36437 1.00841,0.59283 1.49685,0.97295 0.453,0.35452 0.94933,0.66374 1.43384,1.03993 0.79176,0.6204 1.9853,1.85728 3.24974,1.76078 0.65784,-0.0492 1.33536,-0.59088 2.07985,-0.7189 0.76812,-0.13787 1.76667,-0.20483 2.54268,-0.12605 0.59284,0.0611 1.20142,0.41558 1.82183,0.38801 0.64995,-0.0394 1.40035,-0.5239 2.14287,-0.84691 1.17188,-0.51208 2.87357,-1.14234 4.5851,-1.0478 0.32694,-2.39693 0.55541,-4.82736 0.55541,-7.3208 0,-10.07816 -2.81841,-19.45518 -7.64775,-27.47517 -0.22452,-0.0157 -0.42935,-0.0472 -0.67752,-0.0393 -0.65783,0.0413 -1.74305,0.0413 -1.7529,-0.77994 -0.008,-0.67359 0.6342,-0.8213 1.40232,-0.87251 a 53.171837,53.171837 0 0 0 -4.786,-6.21982 m -81.312713,24.40661 c -1.08127,0.0591 -1.7844,0.11031 -2.40284,0.38799 -1.40626,0.63813 -1.13249,2.54466 -2.54072,2.99372 -0.48647,0.15756 -1.15218,0.15952 -1.68593,0.25997 -0.4589,0.0828 -1.02416,0.33877 -1.50276,0.32695 -0.56329,-0.0118 -1.54413,-0.55542 -1.87895,-0.91387 -0.2324,-0.25013 -0.61056,-1.12264 -0.85675,-1.70169 -0.33876,1.87305 -0.57314,3.77956 -0.71495,5.71563 0.11425,0.0236 0.23636,0.0531 0.33482,0.0531 0.61648,0.003 1.2743,-0.6342 1.95577,-0.6539 1.59534,-0.0453 2.28665,2.02864 3.57275,2.66677 0.32301,0.15954 0.74843,0.16741 1.16795,0.25999 0.33482,0.0749 0.59086,0.21665 0.91386,0.32693 0.68934,0.23242 1.53034,0.20878 2.08181,0.45301 0.82918,0.3683 1.43384,1.92425 2.14682,2.33981 0.0394,0.41755 -0.0788,0.98477 0.067,1.29991 0.33482,0.45693 0.81539,0.35845 1.36686,0.65585 0.66177,0.35846 0.86265,1.28021 1.49488,1.55988 0.21666,0.0946 0.76419,0.0887 1.10689,0.19499 0.86463,0.26195 1.14233,1.2605 1.88092,1.03795 0.48254,-0.14377 0.44905,-0.64207 0.52783,-1.10689 0.31907,-0.34664 0.66572,-0.89811 1.16795,-0.90599 0.80751,-0.0413 0.88038,0.83706 1.17582,1.62094 0.167411,0.44512 0.600711,0.83312 0.71494,1.2999 0.202871,0.80751 0.10441,3.23005 -0.067,3.71063 -0.20286,0.59479 -1.00841,0.8469 -1.50277,1.50473 -0.2324,0.30725 -0.3427,0.75631 -0.52193,0.97296 -0.31906,0.38799 -0.79569,0.49238 -1.03204,0.84887 -0.13196,0.20089 -0.26195,0.63616 -0.39391,0.90599 -0.3939,0.8272 -0.9178,1.41412 -0.58693,2.40875 0.13787,0.40572 0.77995,0.68342 0.77995,1.16794 0,0.56723 -1.20733,1.0734 -1.2999,1.69382 -0.0709,0.4589 0.37028,1.2861 0.51995,1.88681 0.10638,0.453 0.96508,0.73858 1.23294,1.03796 0.45694,0.51405 0.82525,1.23688 1.24082,1.88091 0.82524,1.26642 1.47124,2.80661 2.27482,4.03757 0.42543,0.64208 1.01629,1.22112 1.2999,1.88683 0.14575,0.33482 0.12605,0.73661 0.25999,1.03795 0.46481,1.04977 2.51511,2.14681 3.57275,2.66676 0.49436,0.24029 1.04583,0.32695 1.50276,0.57906 0.68934,0.38406 2.05227,1.4161 2.40285,2.02075 0.31119,0.54359 0.50026,1.86516 0.65388,2.72782 0.2009,1.14234 0.008,2.02076 0.067,3.25368 0.0433,0.66966 0.2521,1.34324 0.25998,2.01288 0.004,0.23636 -0.122101,0.4077 -0.133921,0.64602 -0.0118,0.81145 0.20285,1.72335 0.133921,2.54071 a 2.4658717,2.4658717 0 0 1 -0.0531,0.46285 53.356975,53.356975 0 0 0 20.794473,4.18332 c 0.77205,0 1.52442,-0.0887 2.29057,-0.11819 0.0197,-0.1221 0.0335,-0.24423 0.059,-0.3427 0.23634,-0.65782 0.84296,-0.87841 1.23489,-1.36686 0.29543,-0.3683 0.4333,-0.79766 0.71495,-1.16794 0.30331,-0.39981 0.57709,-0.75237 0.77994,-1.10689 0.18908,-1.18763 -0.47269,-2.01681 -0.19498,-3.05476 0.31316,-1.16795 1.92228,-1.88091 3.05674,-2.40876 0.38799,-0.17923 0.79176,-0.47663 1.10688,-0.58692 0.78388,-0.27377 1.75684,-0.12606 2.47375,-0.388 1.21717,-0.44512 1.34717,-1.75093 1.94788,-2.86175 0.28558,-0.5239 0.65783,-1.05371 0.71495,-1.42595 0.0492,-0.33482 -0.12212,-0.64996 -0.069,-1.04583 0.0611,-0.39392 0.41163,-0.73464 0.52193,-1.16991 0.14378,-0.56132 0.2009,-1.38459 0.2009,-2.01288 0,-0.51208 -0.23832,-0.96902 -0.25801,-1.43382 -0.0828,-1.68593 0.61055,-1.87501 1.23293,-2.79282 0.3112,-0.45694 0.42542,-0.97494 0.64602,-1.29991 1.04779,-1.56579 2.86568,-2.31816 2.73766,-4.68161 -0.0472,-0.78388 -0.53375,-2.55253 -1.10885,-2.80069 -0.33089,-0.14377 -1.08326,-0.0118 -1.55988,-0.19301 -1.53625,-0.57511 -2.44224,-2.48163 -4.03757,-2.60375 -0.33877,-0.0413 -0.64995,0.14181 -1.03008,0.13393 -0.63025,-0.0433 -1.58351,-0.44119 -2.28467,-0.52193 -0.44314,-0.0492 -1.03401,0.13392 -1.2999,0 -0.40769,-0.19696 -0.44906,-0.94538 -0.77994,-1.16795 -0.26195,-0.17725 -0.76812,-0.24028 -1.16794,-0.39588 -0.6401,-0.24816 -1.15021,-0.53572 -1.88879,-0.58692 -0.2265,-0.009 -0.51208,0.11031 -0.77994,0.069 -0.40573,-0.069 -0.72873,-0.55146 -1.10689,-0.77993 -0.47269,-0.28951 -0.9119,-0.42935 -1.10688,-0.84098 0.42542,-1.39839 -0.75237,-1.7923 -1.03796,-2.60178 -0.13787,-0.38012 -0.0729,-0.83706 -0.19498,-1.17581 -0.16741,-0.48451 -0.64995,-0.76222 -1.17582,-1.16795 -0.93948,-0.72282 -1.77653,-1.40429 -3.11975,-1.56776 -0.590878,-0.0769 -1.171888,0.17726 -1.886828,0.13197 -0.75828,-0.0492 -1.709575,-0.71101 -2.276805,-1.359 -0.551469,-0.63025 -0.821299,-1.19748 -1.29989,-1.50275 -0.45301,-0.2915 -1.05765,-0.28363 -1.36687,-0.57709 -0.13787,-0.12999 -0.11424,-0.35057 -0.25802,-0.65389 -0.22847,-0.47269 -0.61252,-0.73463 -0.32694,-1.30187 -0.51799,-0.26589 -0.53177,0.49043 -1.10098,0.39391 -0.50616,-0.71691 -0.93158,-1.05568 -2.08181,-0.8469 -0.5239,0.0985 -0.82129,0.76419 -1.43382,0.77994 -0.50223,0.0413 -0.89811,-0.55935 -1.55988,-0.65388 -0.50223,-0.069 -1.06947,0.13195 -1.42792,0.067 -0.55541,-0.11031 -0.72677,-0.57314 -1.23097,-0.906 -0.37422,-0.24225 -1.0931,-0.66177 -1.30187,-0.65389 -0.65586,0.0433 -1.1187,1.39246 -2.02076,0.91387 -0.43724,-0.55542 0.71101,-0.8469 0.19303,-1.36686 -0.39391,-0.39392 -0.72677,0.17726 -1.03796,0.39587 -0.36239,0.25211 -0.69918,0.4983 -1.09901,0.64799 -0.89417,0.33482 -1.44958,0.15756 -2.1468,0.51995 -0.64602,0.33483 -0.67359,0.89417 -1.03795,1.56186 -0.30134,0.54359 -0.98477,1.33534 -1.4358,1.36489 -0.54359,0.0413 -1.06356,-0.76025 -1.55988,-0.97296 -1.487,-0.64797 -2.20983,0.57117 -3.44671,0.58496 -1.15021,0.0413 -2.78494,-1.84941 -2.72781,-2.93068 0.0118,-0.65784 0.37618,-1.65836 0.45299,-2.47179 0.067,-0.64798 0.51208,-1.03598 0.51996,-1.62882 0.0118,-0.79175 -1.04583,-1.40034 -1.55988,-1.49685 -1.21324,-0.22255 -2.90312,0.49239 -4.29558,-0.067 -0.2659,-0.44117 0.31119,-0.74645 0.46087,-1.17582 0.0828,-0.24422 0.0394,-0.57117 0.12605,-0.84099 0.15559,-0.4136 0.58496,-0.73464 0.77994,-1.17582 0.14377,-0.33482 0.1812,-0.81933 0.32695,-1.23293 0.17134,-0.47269 0.48254,-0.77601 0.51996,-1.10689 a 1.4574641,1.4574641 0 0 0 -0.4589,-1.23294 m 17.38912,13.7691 c 0.44117,0.0433 0.49238,0.95129 0.0453,1.0281 -0.48648,0.0769 -0.7307,-0.76024 -0.25998,-0.98084 a 0.39981787,0.39981787 0 0 1 0.21665,-0.0472"
       fill="#ffffff"
       opacity="0.25"
       id="path13353"
       style="fill:#1c2224;stroke-width:1.96954" /><g
       fill="#ffffff"
       stroke-linejoin="bevel"
       id="g13363"
       transform="matrix(1.7015426,0,0,1.7015426,50.549096,94.048758)"><g
         transform="matrix(1.0002,0,0,1.0003,19.97,4.978)"
         id="g13359"><path
           d="M 11.03,9.02 A 2,2 0 0 0 9.885,12.657 C 8.419,17.084 5.74,24.31 3.03,27.02 c 0,0 3.977,6.02 3.977,10.02 h 10 c 0,-4 4.02,-10.02 4.02,-10.02 -2.71,-2.71 -5.387,-9.934 -6.854,-14.361 A 2,2 0 0 0 13.027,9.02 v 18.27 a 2,2 0 1 1 -2,0.001 V 13.02 Z"
           id="path13355" /><rect
           x="7"
           y="39.959999"
           width="10.02"
           height="5.0500002"
           rx="0"
           opacity="0.5"
           id="rect13357" /></g><path
         d="m 27.001,42.01 h 10.002 c 0.831,0 1.5,0.674 1.5,1.514 0,0.84 -0.669,1.514 -1.5,1.514 H 27.001 c -0.831,0 -1.5,-0.675 -1.5,-1.514 0,-0.839 0.669,-1.515 1.5,-1.515"
         opacity="0.75"
         id="path13361" /></g></g></svg>
