<?xml version="1.0" encoding="UTF-8" standalone="no"?>
<!-- Created with Inkscape (http://www.inkscape.org/) -->

<svg
   width="128mm"
   height="127.99948mm"
   viewBox="0 0 128 127.99948"
   version="1.1"
   id="svg5"
   xml:space="preserve"
   xmlns:inkscape="http://www.inkscape.org/namespaces/inkscape"
   xmlns:sodipodi="http://sodipodi.sourceforge.net/DTD/sodipodi-0.dtd"
   xmlns:xlink="http://www.w3.org/1999/xlink"
   xmlns="http://www.w3.org/2000/svg"
   xmlns:svg="http://www.w3.org/2000/svg"><sodipodi:namedview
     id="namedview7"
     pagecolor="#ffffff"
     bordercolor="#000000"
     borderopacity="0.25"
     inkscape:showpageshadow="2"
     inkscape:pageopacity="0.0"
     inkscape:pagecheckerboard="0"
     inkscape:deskcolor="#d1d1d1"
     inkscape:document-units="mm"
     showgrid="false" /><defs
     id="defs2"><linearGradient
       inkscape:collect="always"
       id="linearGradient5397"><stop
         style="stop-color:#999999;stop-opacity:1"
         offset="0"
         id="stop5393" /><stop
         style="stop-color:#f9f9f9;stop-opacity:1"
         offset="1"
         id="stop5395" /></linearGradient><style
       type="text/css"
       id="current-color-scheme">
      .ColorScheme-Text {
        color:#31363b;
      }
      .ColorScheme-Background {
        color:#eff0f1;
      }
      .ColorScheme-Highlight {
        color:#3daee9;
      }
      .ColorScheme-ViewText {
        color:#31363b;
      }
      .ColorScheme-ViewBackground {
        color:#fcfcfc;
      }
      .ColorScheme-ViewHover {
        color:#93cee9;
      }
      .ColorScheme-ViewFocus{
        color:#3daee9;
      }
      .ColorScheme-ButtonText {
        color:#31363b;
      }
      .ColorScheme-ButtonBackground {
        color:#eff0f1;
      }
      .ColorScheme-ButtonHover {
        color:#93cee9;
      }
      .ColorScheme-ButtonFocus{
        color:#3daee9;
      }
      </style><style
       type="text/css"
       id="current-color-scheme-9">
      .ColorScheme-Text {
        color:#31363b;
      }
      .ColorScheme-Background {
        color:#eff0f1;
      }
      .ColorScheme-Highlight {
        color:#3daee9;
      }
      .ColorScheme-ViewText {
        color:#31363b;
      }
      .ColorScheme-ViewBackground {
        color:#fcfcfc;
      }
      .ColorScheme-ViewHover {
        color:#93cee9;
      }
      .ColorScheme-ViewFocus{
        color:#3daee9;
      }
      .ColorScheme-ButtonText {
        color:#31363b;
      }
      .ColorScheme-ButtonBackground {
        color:#eff0f1;
      }
      .ColorScheme-ButtonHover {
        color:#93cee9;
      }
      .ColorScheme-ButtonFocus{
        color:#3daee9;
      }
      </style><style
       type="text/css"
       id="current-color-scheme-2">
      .ColorScheme-Text {
        color:#31363b;
      }
      .ColorScheme-Background {
        color:#eff0f1;
      }
      .ColorScheme-Highlight {
        color:#3daee9;
      }
      .ColorScheme-ViewText {
        color:#31363b;
      }
      .ColorScheme-ViewBackground {
        color:#fcfcfc;
      }
      .ColorScheme-ViewHover {
        color:#93cee9;
      }
      .ColorScheme-ViewFocus{
        color:#3daee9;
      }
      .ColorScheme-ButtonText {
        color:#31363b;
      }
      .ColorScheme-ButtonBackground {
        color:#eff0f1;
      }
      .ColorScheme-ButtonHover {
        color:#93cee9;
      }
      .ColorScheme-ButtonFocus{
        color:#3daee9;
      }
      </style><style
       type="text/css"
       id="current-color-scheme-3">
      .ColorScheme-Text {
        color:#31363b;
      }
      .ColorScheme-Background {
        color:#eff0f1;
      }
      .ColorScheme-Highlight {
        color:#3daee9;
      }
      .ColorScheme-ViewText {
        color:#31363b;
      }
      .ColorScheme-ViewBackground {
        color:#fcfcfc;
      }
      .ColorScheme-ViewHover {
        color:#93cee9;
      }
      .ColorScheme-ViewFocus{
        color:#3daee9;
      }
      .ColorScheme-ButtonText {
        color:#31363b;
      }
      .ColorScheme-ButtonBackground {
        color:#eff0f1;
      }
      .ColorScheme-ButtonHover {
        color:#93cee9;
      }
      .ColorScheme-ButtonFocus{
        color:#3daee9;
      }
      </style><style
       type="text/css"
       id="current-color-scheme-97">
      .ColorScheme-Text {
        color:#31363b;
      }
      .ColorScheme-Background {
        color:#eff0f1;
      }
      .ColorScheme-Highlight {
        color:#3daee9;
      }
      .ColorScheme-ViewText {
        color:#31363b;
      }
      .ColorScheme-ViewBackground {
        color:#fcfcfc;
      }
      .ColorScheme-ViewHover {
        color:#93cee9;
      }
      .ColorScheme-ViewFocus{
        color:#3daee9;
      }
      .ColorScheme-ButtonText {
        color:#31363b;
      }
      .ColorScheme-ButtonBackground {
        color:#eff0f1;
      }
      .ColorScheme-ButtonHover {
        color:#93cee9;
      }
      .ColorScheme-ButtonFocus{
        color:#3daee9;
      }
      </style><style
       type="text/css"
       id="current-color-scheme-7">
      .ColorScheme-Text {
        color:#31363b;
      }
      .ColorScheme-Background {
        color:#eff0f1;
      }
      .ColorScheme-Highlight {
        color:#3daee9;
      }
      .ColorScheme-ViewText {
        color:#31363b;
      }
      .ColorScheme-ViewBackground {
        color:#fcfcfc;
      }
      .ColorScheme-ViewHover {
        color:#93cee9;
      }
      .ColorScheme-ViewFocus{
        color:#3daee9;
      }
      .ColorScheme-ButtonText {
        color:#31363b;
      }
      .ColorScheme-ButtonBackground {
        color:#eff0f1;
      }
      .ColorScheme-ButtonHover {
        color:#93cee9;
      }
      .ColorScheme-ButtonFocus{
        color:#3daee9;
      }
      </style><style
       type="text/css"
       id="current-color-scheme-9-0">
      .ColorScheme-Text {
        color:#31363b;
      }
      .ColorScheme-Background {
        color:#eff0f1;
      }
      .ColorScheme-Highlight {
        color:#3daee9;
      }
      .ColorScheme-ViewText {
        color:#31363b;
      }
      .ColorScheme-ViewBackground {
        color:#fcfcfc;
      }
      .ColorScheme-ViewHover {
        color:#93cee9;
      }
      .ColorScheme-ViewFocus{
        color:#3daee9;
      }
      .ColorScheme-ButtonText {
        color:#31363b;
      }
      .ColorScheme-ButtonBackground {
        color:#eff0f1;
      }
      .ColorScheme-ButtonHover {
        color:#93cee9;
      }
      .ColorScheme-ButtonFocus{
        color:#3daee9;
      }
      </style><style
       type="text/css"
       id="current-color-scheme-2-9">
      .ColorScheme-Text {
        color:#31363b;
      }
      .ColorScheme-Background {
        color:#eff0f1;
      }
      .ColorScheme-Highlight {
        color:#3daee9;
      }
      .ColorScheme-ViewText {
        color:#31363b;
      }
      .ColorScheme-ViewBackground {
        color:#fcfcfc;
      }
      .ColorScheme-ViewHover {
        color:#93cee9;
      }
      .ColorScheme-ViewFocus{
        color:#3daee9;
      }
      .ColorScheme-ButtonText {
        color:#31363b;
      }
      .ColorScheme-ButtonBackground {
        color:#eff0f1;
      }
      .ColorScheme-ButtonHover {
        color:#93cee9;
      }
      .ColorScheme-ButtonFocus{
        color:#3daee9;
      }
      </style><style
       type="text/css"
       id="current-color-scheme-3-3">
      .ColorScheme-Text {
        color:#31363b;
      }
      .ColorScheme-Background {
        color:#eff0f1;
      }
      .ColorScheme-Highlight {
        color:#3daee9;
      }
      .ColorScheme-ViewText {
        color:#31363b;
      }
      .ColorScheme-ViewBackground {
        color:#fcfcfc;
      }
      .ColorScheme-ViewHover {
        color:#93cee9;
      }
      .ColorScheme-ViewFocus{
        color:#3daee9;
      }
      .ColorScheme-ButtonText {
        color:#31363b;
      }
      .ColorScheme-ButtonBackground {
        color:#eff0f1;
      }
      .ColorScheme-ButtonHover {
        color:#93cee9;
      }
      .ColorScheme-ButtonFocus{
        color:#3daee9;
      }
      </style><style
       type="text/css"
       id="current-color-scheme-97-6">
      .ColorScheme-Text {
        color:#31363b;
      }
      .ColorScheme-Background {
        color:#eff0f1;
      }
      .ColorScheme-Highlight {
        color:#3daee9;
      }
      .ColorScheme-ViewText {
        color:#31363b;
      }
      .ColorScheme-ViewBackground {
        color:#fcfcfc;
      }
      .ColorScheme-ViewHover {
        color:#93cee9;
      }
      .ColorScheme-ViewFocus{
        color:#3daee9;
      }
      .ColorScheme-ButtonText {
        color:#31363b;
      }
      .ColorScheme-ButtonBackground {
        color:#eff0f1;
      }
      .ColorScheme-ButtonHover {
        color:#93cee9;
      }
      .ColorScheme-ButtonFocus{
        color:#3daee9;
      }
      </style><style
       type="text/css"
       id="current-color-scheme-6">
      .ColorScheme-Text {
        color:#31363b;
      }
      .ColorScheme-Background {
        color:#eff0f1;
      }
      .ColorScheme-Highlight {
        color:#3daee9;
      }
      .ColorScheme-ViewText {
        color:#31363b;
      }
      .ColorScheme-ViewBackground {
        color:#fcfcfc;
      }
      .ColorScheme-ViewHover {
        color:#93cee9;
      }
      .ColorScheme-ViewFocus{
        color:#3daee9;
      }
      .ColorScheme-ButtonText {
        color:#31363b;
      }
      .ColorScheme-ButtonBackground {
        color:#eff0f1;
      }
      .ColorScheme-ButtonHover {
        color:#93cee9;
      }
      .ColorScheme-ButtonFocus{
        color:#3daee9;
      }
      </style><linearGradient
       inkscape:collect="always"
       xlink:href="#linearGradient5397"
       id="linearGradient5399"
       x1="216.99414"
       y1="785.2392"
       x2="210.78775"
       y2="-40.208862"
       gradientUnits="userSpaceOnUse" /><linearGradient
       inkscape:collect="always"
       xlink:href="#linearGradient5397"
       id="linearGradient6067"
       gradientUnits="userSpaceOnUse"
       x1="216.99414"
       y1="785.2392"
       x2="210.78775"
       y2="-40.208862" /><linearGradient
       inkscape:collect="always"
       xlink:href="#linearGradient5397"
       id="linearGradient6069"
       gradientUnits="userSpaceOnUse"
       x1="216.99414"
       y1="785.2392"
       x2="210.78775"
       y2="-40.208862" /><linearGradient
       inkscape:collect="always"
       xlink:href="#linearGradient5397"
       id="linearGradient6071"
       gradientUnits="userSpaceOnUse"
       x1="216.99414"
       y1="785.2392"
       x2="210.78775"
       y2="-40.208862" /></defs><g
     inkscape:label="Camada 1"
     inkscape:groupmode="layer"
     id="layer1"
     transform="translate(-41.000001,-84.500272)"><g
       id="g244"
       transform="matrix(0.28676179,0,0,0.28676181,40.999978,84.500191)"
       style="fill:url(#linearGradient5399);fill-opacity:1"
       inkscape:export-filename="brave-beta.svg"
       inkscape:export-xdpi="25.400002"
       inkscape:export-ydpi="25.400002"><g
         id="g246"
         style="fill:url(#linearGradient6071);fill-opacity:1"><g
           id="g252"
           style="fill:url(#linearGradient6069);fill-opacity:1"><path
             d="m 174.406,2.305 c 2.434,0.027 4.758,-0.285 6.973,-0.93 29.133,-1.906 58.258,-1.832 87.387,0.234 26.41,2.055 51.976,7.786 76.699,17.188 41.097,16.922 69.219,46.269 84.363,88.043 8.66,25.152 13.774,51.015 15.34,77.59 2.164,33.371 1.391,66.668 -2.324,99.89 -2.782,23.352 -8.824,45.805 -18.129,67.368 -17.258,37.382 -45.223,63.167 -83.899,77.355 -31.343,10.59 -63.57,16.164 -96.687,16.723 -37.246,1.937 -74.121,-0.848 -110.625,-8.36 C 66.312,422.438 24.867,381.477 9.164,314.52 2.496,284.375 -0.523,253.867 0.098,222.992 -0.645,190.16 2.84,157.793 10.559,125.891 27.02,63.285 66.762,24.488 129.785,9.508 144.469,5.914 159.344,3.516 174.406,2.305 Z"
             style="fill:url(#linearGradient6067);fill-opacity:1;fill-rule:evenodd;stroke:none"
             id="path260" /></g></g></g><g
       id="g5222"
       transform="matrix(0.82778297,0,0,0.82778297,-158.71143,253.83725)"><path
         d="m 301.35168,-183.2299 c -2.15299,0 -9.68844,8.61194 -10.76493,8.61194 h -5.38247 c -2.15298,0 -9.68844,7.53832 -9.68844,9.69131 v 6.45896 c 0,1.07649 -8.56601,8.61195 -8.61194,10.76493 -0.0459,2.15299 15.0709,52.745298 17.22389,54.898284 2.15299,2.152986 25.83584,21.529864 32.2948,21.529864 h 4.30597 c 6.45896,0 30.14181,-19.376878 32.29479,-21.529864 2.15299,-2.152986 17.26695,-52.748164 17.2239,-54.901154 -0.0488,-2.1415 -8.61195,-9.68844 -8.61195,-10.76493 v -6.45896 c 0,-2.15299 -7.53545,-9.68844 -9.68844,-9.68844 h -5.38247 c -1.07649,0 -8.61194,-8.61194 -10.76493,-8.61194 z"
         fill="#ffcf2b"
         id="path5200"
         style="stroke-width:2.87065" /><path
         d="m 318.57557,-168.19058 c -2.14437,0 -4.28013,0.73489 -6.45896,2.18744 -6.45896,4.30597 -15.0709,-2.15299 -17.22389,-2.15299 -2.15298,0 -15.0709,15.68522 -15.0709,21.52987 0,4.30597 16.1474,14.20971 16.1474,17.22389 0,2.15298 -3.22948,3.18642 -3.22948,7.75362 0,3.01131 4.30597,8.39377 8.61194,8.39377 4.30597,0 15.07952,-8.45406 15.07091,-10.54676 v -1.29466 c 0,-2.58358 -9.68844,-5.8389 -9.68844,-10.76493 0,-4.30598 3.22948,-5.89919 3.22948,-10.76493 0,-4.18541 -8.61195,-5.38247 -15.07091,-6.45896 -2.15298,0 6.45896,-7.08476 18.30039,0.57126 2.99695,1.93768 -3.22948,9.59944 -2.15299,16.64976 1.61617,1.50996 4.57868,2.26207 7.53545,2.26207 2.96251,0 5.92215,-0.75211 7.53545,-2.2592 1.0765,-7.05319 -5.14994,-14.71495 -2.15298,-16.65263 11.84142,-7.65602 20.45337,-0.57413 18.30038,-0.57413 -6.45896,1.07936 -15.0709,2.27642 -15.0709,6.45895 0,4.86862 3.22948,6.45896 3.22948,10.76494 0,4.9289 -9.68844,8.18134 -9.68844,10.76493 v 1.29753 c -0.009,2.0927 10.76493,10.54676 15.0709,10.54676 4.30598,0 8.61195,-5.38246 8.61195,-8.39377 0,-4.56433 -3.22948,-5.60064 -3.22948,-7.75362 0,-3.01418 16.1474,-12.91792 16.1474,-17.22389 0,-5.84465 -12.91792,-21.52987 -15.07091,-21.52987 -2.15298,0 -10.76493,6.45896 -17.22389,2.15299 -2.17882,-1.45255 -4.30597,-2.18744 -6.45896,-2.18744 z m 0,51.27266 c -4.30597,0 -13.99441,6.67425 -13.99441,7.96605 0,1.29179 9.68844,11.841421 13.99441,11.841421 4.30597,0 13.99441,-10.549631 13.99441,-11.841421 0,-1.2918 -9.68844,-7.96605 -13.99441,-7.96605 z"
         fill="#f9f9f9"
         id="path5202"
         style="stroke-width:2.87065" /></g></g></svg>
