<?xml version="1.0" encoding="UTF-8" standalone="no"?>
<svg
   width="24"
   height="24"
   viewBox="0 0 6.349875 6.349875"
   version="1.1"
   id="svg9263"
   sodipodi:docname="tor-browser.svg"
   xml:space="preserve"
   inkscape:version="1.2.2 (b0a8486541, 2022-12-01)"
   xmlns:inkscape="http://www.inkscape.org/namespaces/inkscape"
   xmlns:sodipodi="http://sodipodi.sourceforge.net/DTD/sodipodi-0.dtd"
   xmlns:xlink="http://www.w3.org/1999/xlink"
   xmlns="http://www.w3.org/2000/svg"
   xmlns:svg="http://www.w3.org/2000/svg"><defs
     id="defs9267"><style
       id="style322">.cls-1{fill:#faf6f0;}.cls-2{fill:#d3d6d8;}.cls-3{fill:#f16060;}.cls-4{fill:#d4d7d9;}.cls-5{fill:#f13c3d;}.cls-6{font-size:34.02px;fill:#fff;font-family:Lato-Bold, Lato;font-weight:700;}.cls-7{letter-spacing:-0.02em;}.cls-8{fill:#3e3373;}.cls-9{fill:url(#linear-gradient);}</style><linearGradient
       id="linear-gradient"
       x1="100"
       y1="98.809998"
       x2="100"
       y2="117.83"
       gradientUnits="userSpaceOnUse"
       gradientTransform="translate(222.92867,-15.207036)"><stop
         offset="0"
         stop-color="#ff4848"
         stop-opacity="0.6"
         id="stop324" /><stop
         offset="1"
         stop-color="#f16060"
         stop-opacity="0"
         id="stop326" /></linearGradient><radialGradient
       id="paint0_radial_1_40"
       cx="0"
       cy="0"
       r="1"
       gradientUnits="userSpaceOnUse"
       gradientTransform="matrix(0,22.000029,-22.000029,0,12,1.0000005)"><stop
         stop-color="#C2E5FF"
         id="stop550"
         offset="0"
         style="stop-color:#8db9ff;stop-opacity:1;" /><stop
         offset="1"
         stop-color="#3276AA"
         id="stop552"
         style="stop-color:#3e3373;stop-opacity:1;" /></radialGradient><linearGradient
       id="paint0_linear_24_136"
       x1="22"
       y1="2"
       x2="2"
       y2="12"
       gradientUnits="userSpaceOnUse"
       gradientTransform="matrix(14.910261,0,0,14.910261,-383.91646,10.512664)"><stop
         stop-color="#E3C880"
         id="stop3905" /><stop
         offset="1"
         stop-color="#6F5C38"
         id="stop3907" /></linearGradient><linearGradient
       id="paint1_linear_24_136"
       x1="22"
       y1="6"
       x2="2.39045"
       y2="22.465"
       gradientUnits="userSpaceOnUse"
       gradientTransform="matrix(14.910261,0,0,14.910261,-383.91646,10.512664)"><stop
         stop-color="#FFE795"
         id="stop3910" /><stop
         offset="1"
         stop-color="#7A653E"
         id="stop3912" /></linearGradient><linearGradient
       id="paint2_linear_24_136"
       x1="15.6178"
       y1="9.4109602"
       x2="7.9913301"
       y2="19.1882"
       gradientUnits="userSpaceOnUse"><stop
         stop-color="#6F5C38"
         stop-opacity="0"
         id="stop3915" /><stop
         offset="1"
         stop-color="#6F5C38"
         stop-opacity="0.45"
         id="stop3917" /></linearGradient><linearGradient
       id="paint3_linear_24_136"
       x1="16.25"
       y1="9"
       x2="8.62356"
       y2="18.7773"
       gradientUnits="userSpaceOnUse"
       gradientTransform="matrix(14.910261,0,0,14.910261,-383.91646,10.512664)"><stop
         stop-color="#0BB1CB"
         id="stop3920" /><stop
         offset="1"
         stop-color="#006599"
         id="stop3922" /></linearGradient><radialGradient
       fx="0"
       fy="0"
       cx="0"
       cy="0"
       r="1"
       gradientUnits="userSpaceOnUse"
       gradientTransform="matrix(0,16.500022,-16.500022,0,9,0.75)"
       spreadMethod="pad"
       id="radialGradient4659"><stop
         style="stop-opacity:1;stop-color:#8db9ff"
         offset="0"
         id="stop4655" /><stop
         style="stop-opacity:1;stop-color:#3e3373"
         offset="1"
         id="stop4657" /></radialGradient><linearGradient
       x1="198.26646"
       y1="346.52609"
       x2="198.26646"
       y2="20.550627"
       id="linearGradient-1"
       gradientTransform="scale(0.7086423,1.4111492)"
       gradientUnits="userSpaceOnUse"><stop
         stop-color="#420C5D"
         offset="0%"
         id="stop9487" /><stop
         stop-color="#951AD1"
         offset="100%"
         id="stop9489" /></linearGradient><path
       d="M 25,29 C 152.57778,29 256,131.97451 256,259 256,386.02549 152.57778,489 25,489 Z"
       id="path-2" /><filter
       x="-0.13852814"
       y="-0.052173913"
       width="1.2424242"
       height="1.1043478"
       filterUnits="objectBoundingBox"
       id="filter-3"><feOffset
         dx="-8"
         dy="0"
         in="SourceAlpha"
         result="shadowOffsetOuter1"
         id="feOffset9493" /><feGaussianBlur
         stdDeviation="10"
         in="shadowOffsetOuter1"
         result="shadowBlurOuter1"
         id="feGaussianBlur9495" /><feColorMatrix
         values="0 0 0 0 0.250980392   0 0 0 0 0.250980392   0 0 0 0 0.250980392  0 0 0 0.2 0"
         type="matrix"
         in="shadowBlurOuter1"
         id="feColorMatrix9497" /></filter><linearGradient
       x1="0.5"
       y1="1"
       x2="0.5"
       y2="0"
       id="linearGradient-1-2"><stop
         stop-color="#420C5D"
         offset="0%"
         id="stop9569" /><stop
         stop-color="#951AD1"
         offset="100%"
         id="stop9571" /></linearGradient><filter
       x="-0.13852814"
       y="-0.052173913"
       width="1.2424242"
       height="1.1043478"
       filterUnits="objectBoundingBox"
       id="filter-3-7"><feOffset
         dx="-8"
         dy="0"
         in="SourceAlpha"
         result="shadowOffsetOuter1"
         id="feOffset9575" /><feGaussianBlur
         stdDeviation="10"
         in="shadowOffsetOuter1"
         result="shadowBlurOuter1"
         id="feGaussianBlur9577" /><feColorMatrix
         values="0 0 0 0 0.250980392   0 0 0 0 0.250980392   0 0 0 0 0.250980392  0 0 0 0.2 0"
         type="matrix"
         in="shadowBlurOuter1"
         id="feColorMatrix9579" /></filter><linearGradient
       inkscape:collect="always"
       xlink:href="#linearGradient-1-2"
       id="linearGradient9756"
       x1="256"
       y1="512"
       x2="256"
       y2="0"
       gradientUnits="userSpaceOnUse" /><linearGradient
       inkscape:collect="always"
       xlink:href="#linearGradient-1-2"
       id="linearGradient9758"
       x1="0.5"
       y1="1"
       x2="0.5"
       y2="0"
       gradientUnits="userSpaceOnUse" /><radialGradient
       id="paint0_radial_4_408"
       cx="0"
       cy="0"
       r="1"
       gradientUnits="userSpaceOnUse"
       gradientTransform="matrix(0,5.8207186,-5.8207186,0,3.1749344,0.26458216)"><stop
         stop-color="#D6B1FF"
         id="stop17227" /><stop
         offset="1"
         stop-color="#A75DFA"
         id="stop17229" /></radialGradient></defs><sodipodi:namedview
     id="namedview9265"
     pagecolor="#ffffff"
     bordercolor="#000000"
     borderopacity="0.25"
     inkscape:showpageshadow="2"
     inkscape:pageopacity="0.0"
     inkscape:pagecheckerboard="0"
     inkscape:deskcolor="#d1d1d1"
     showgrid="false"
     inkscape:zoom="19.312854"
     inkscape:cx="-0.7507953"
     inkscape:cy="19.90902"
     inkscape:window-width="2560"
     inkscape:window-height="1000"
     inkscape:window-x="1680"
     inkscape:window-y="0"
     inkscape:window-maximized="1"
     inkscape:current-layer="svg9263" /><path
     fill-rule="evenodd"
     clip-rule="evenodd"
     d="m 2.5388992,0.29463559 c 0.031707,3.3601e-4 0.062015,-0.003701 0.090922,-0.0121177 0.3798839,-0.0248846 0.7597123,-0.0238753 1.1395406,0.003029 C 4.1137631,0.31238039 4.447158,0.38710257 4.76952,0.50971337 5.3054495,0.73035567 5.6721812,1.1130547 5.8696623,1.6578105 5.9826107,1.9857921 6.0492844,2.3230551 6.0697098,2.6695969 6.0979408,3.1047485 6.0878338,3.5389477 6.0393888,3.9721944 6.0031418,4.2766973 5.9243237,4.5695324 5.8029882,4.8506731 5.5779388,5.3381587 5.2132443,5.674411 4.7089055,5.8594305 4.3002116,5.9975138 3.8799558,6.0702199 3.4481113,6.0775222 2.9623724,6.1027894 2.4815096,6.0664364 2.0054912,5.9684896 1.1293196,5.7733103 0.58883944,5.2391271 0.38405334,4.3659928 0.29714734,3.9729356 0.25774874,3.5750895 0.26585304,3.1724545 0.25615304,2.7443142 0.30161604,2.32223 0.40223784,1.9062127 0.61691644,1.0898225 1.1351694,0.58393057 1.9569993,0.38854227 c 0.191499,-0.046817 0.3854665,-0.0781193 0.5818999,-0.0939067 z"
     fill="url(#paint0_radial_4_408)"
     id="path17223"
     style="fill:url(#paint0_radial_4_408);stroke-width:0.264578" /><g
     id="tor-browser-icon"
     stroke="none"
     stroke-width="1"
     fill="none"
     fill-rule="evenodd"
     transform="matrix(0.00850982,0,0,0.00850982,0.99642358,0.99216867)"><g
       id="icon_512x512"><g
         id="Group"><g
           id="tb_icon/Stable"><g
             id="Stable"><circle
               id="background-0"
               fill="#f2e4ff"
               fill-rule="nonzero"
               cx="256"
               cy="256"
               r="246" /><path
               d="m 256.52514,465.43971 v -31.0331 C 354.82619,434.12275 434.4208,354.36492 434.4208,255.9929 434.4208,157.62799 354.82619,77.870156 256.52514,77.586295 V 46.553196 C 371.9643,46.844154 465.4468,140.48988 465.4468,255.9929 c 0,115.51012 -93.4825,209.16295 -208.92166,209.44681 z m 0,-108.6194 c 55.44514,-0.29095 100.32356,-45.3042 100.32356,-100.82741 0,-55.5161 -44.87842,-100.52935 -100.32356,-100.82031 v -31.026 c 72.59034,0.28386 131.35666,59.1921 131.35666,131.84631 0,72.66131 -58.76632,131.56955 -131.35666,131.85342 z m 0,-155.10162 c 29.74153,0.28386 53.77746,24.46172 53.77746,54.27421 0,29.8196 -24.03593,53.99745 -53.77746,54.28131 z M 0,255.9929 C 0,397.38404 114.60886,512 256,512 397.38404,512 512,397.38404 512,255.9929 512,114.60886 397.38404,0 256,0 114.60886,0 0,114.60886 0,255.9929 Z"
               id="center-9"
               fill="url(#linearGradient-1)"
               style="fill:url(#linearGradient9756)" /><g
               id="half-3"
               transform="matrix(-1,0,0,1,281,0)"><use
                 fill="#000000"
                 fill-opacity="1"
                 filter="url(#filter-3)"
                 xlink:href="#path-2"
                 id="use9586"
                 style="filter:url(#filter-3-7)" /><use
                 fill="url(#linearGradient-1)"
                 fill-rule="evenodd"
                 xlink:href="#path-2"
                 id="use9588"
                 style="fill:url(#linearGradient9758)" /></g></g></g></g></g></g></svg>
