<?xml version="1.0" encoding="UTF-8" standalone="no"?>
<svg
   width="24"
   height="24"
   version="1.1"
   id="svg8"
   sodipodi:docname="calamares.svg"
   inkscape:version="1.3 (0e150ed6c4, 2023-07-21)"
   xmlns:inkscape="http://www.inkscape.org/namespaces/inkscape"
   xmlns:sodipodi="http://sodipodi.sourceforge.net/DTD/sodipodi-0.dtd"
   xmlns="http://www.w3.org/2000/svg"
   xmlns:svg="http://www.w3.org/2000/svg">
  <defs
     id="defs8">
    <radialGradient
       fx="0"
       fy="0"
       cx="0"
       cy="0"
       r="1"
       gradientUnits="userSpaceOnUse"
       gradientTransform="matrix(0,22.000002,-22.000002,0,11.999545,0.99996511)"
       spreadMethod="pad"
       id="radialGradient12763-3">
      <stop
         style="stop-opacity:1;stop-color:#a4a4a4"
         offset="0"
         id="stop12759-6" />
      <stop
         style="stop-opacity:1;stop-color:#626262"
         offset="1"
         id="stop12761-7" />
    </radialGradient>
  </defs>
  <sodipodi:namedview
     id="namedview8"
     pagecolor="#ffffff"
     bordercolor="#000000"
     borderopacity="0.25"
     inkscape:showpageshadow="2"
     inkscape:pageopacity="0.0"
     inkscape:pagecheckerboard="0"
     inkscape:deskcolor="#d1d1d1"
     inkscape:zoom="17.920737"
     inkscape:cx="20.255863"
     inkscape:cy="7.0588613"
     inkscape:window-width="2560"
     inkscape:window-height="998"
     inkscape:window-x="0"
     inkscape:window-y="0"
     inkscape:window-maximized="1"
     inkscape:current-layer="svg8" />
  <path
     d="m 9.5928809,1.1146331 c 0.1199986,0 0.2346679,-0.015999 0.3440005,-0.046667 1.4373326,-0.0946665 2.8746666,-0.0893335 4.3079996,0.010666 1.301333,0.1039999 2.561333,0.3853333 3.781333,0.848 2.025334,0.8333333 3.410667,2.2813331 4.161334,4.3386664 0.421333,1.2400001 0.676,2.5159998 0.754666,3.8226675 0.104,1.646666 0.068,3.286666 -0.114666,4.927999 -0.140001,1.150668 -0.437334,2.254668 -0.896001,3.317334 -0.849333,1.844 -2.229333,3.114667 -4.134667,3.812 -1.542666,0.521334 -3.130666,0.797333 -4.766666,0.824 -1.833333,0.09867 -3.6506663,-0.04267 -5.4519997,-0.412 -3.3079999,-0.734667 -5.3546666,-2.754667 -6.1253332,-6.057333 -0.328,-1.484 -0.48000002,-2.989333 -0.448,-4.510667 -0.036,-1.619999 0.1346666,-3.2133329 0.516,-4.7866664 0.812,-3.0826664 2.7706665,-4.9946665 5.8746666,-5.7333331 C 8.1195474,1.2919664 8.8542144,1.1719664 9.5928809,1.1146331 Z"
     style="fill:url(#radialGradient12763-3);fill-rule:evenodd;stroke:none;stroke-width:1.33333"
     id="path12765-6" />
  <g
     id="g16145"
     transform="matrix(3.779602,0,0,3.779602,0.64463376,1.5133697e-6)">
    <g
       id="g10410"
       transform="matrix(0.24325822,0,0,0.24325822,10.278374,1.5123062)"
       style="fill:none">
      <path
         opacity="0.75"
         d="m -21.902365,6.8348262 c 0.0027,-1.0513 -0.2024,-2.09284 -0.6035,-3.06467 -0.401,-0.97183 -0.9902,-1.85482 -1.7336,-2.59823 -0.7434,-0.7434 -1.6264,-1.33257 -2.5982,-1.73365 -0.9719,-0.40107 -2.0134,-0.60614 -3.0647,-0.60342 -1.0513,-0.00272 -2.09284,0.20235 -3.06467,0.60342 -0.97183,0.40108 -1.85482,0.99025 -2.59823,1.73365 -0.7434,0.74341 -1.33257,1.6264 -1.73365,2.59823 -0.40107,0.97183 -0.60614,2.01337 -0.60342,3.06467 -0.0027,1.0513 0.20235,2.0928 0.60342,3.0647 0.40108,0.9717998 0.99025,1.8547998 1.73365,2.5981998 0.74341,0.7434 1.6264,1.3326 2.59823,1.7336 0.97183,0.4011 2.01337,0.6062 3.06467,0.6035 1.0513,0.0027 2.0928,-0.2024 3.0647,-0.6035 0.9718,-0.401 1.8548,-0.9902 2.5982,-1.7336 0.7434,-0.7434 1.3326,-1.6264 1.7336,-2.5981998 0.4011,-0.9719 0.6062,-2.0134 0.6035,-3.0647 z m -5.0738,0 c 0,1.6121 -1.2832,2.9277 -2.9262,2.9277 -0.3851,0.0022 -0.7669,-0.0721 -1.1232,-0.2184 -0.3562,-0.1464 -0.6799,-0.3619 -0.95234,-0.6342 -0.27241,-0.2723 -0.48812,-0.5959 -0.63466,-0.9521 -0.14653,-0.3561 -0.22097,-0.7379 -0.21902,-1.123 0,-1.6106 1.18732,-2.92619 2.92772,-2.92619 1.7404,0 2.9277,1.34809 2.9277,2.92619 z"
         fill="#ffffff"
         id="path8363" />
      <path
         opacity="0.35"
         d="m -29.903165,2.8331362 c -0.5255,1.3e-4 -1.0458,0.10376 -1.5313,0.30497 -0.48542,0.20122 -0.92649,0.49609 -1.298,0.86777 -0.3715,0.37168 -0.66616,0.81289 -0.86715,1.29845 -0.20099,0.4855 -0.30437,1.0059 -0.30425,1.5314 1.3e-4,0.5256 0.10376,1.0459 0.30498,1.5314 0.20122,0.4854 0.49608,0.9265 0.86776,1.298 0.37168,0.3714998 0.81289,0.6660998 1.29846,0.8670998 0.4855,0.201 1.0059,0.3044 1.5314,0.3043 1.0614,-3e-4 2.0791,-0.4221 2.8294,-1.1726998 0.7503,-0.7507 1.1716,-1.7686 1.1714,-2.8299 -3e-4,-1.0614 -0.4221,-2.0791 -1.1728,-2.82939 -0.7506,-0.75028 -1.7685,-1.17165 -2.8299,-1.1714 z m 0,1.99943 c 0.2629,1.2e-4 0.5231,0.05206 0.7658,0.15266 0.2428,0.1007 0.4634,0.2483 0.6491,0.4342 0.1858,0.1859 0.3331,0.4066 0.4335,0.6495 0.1005,0.2428 0.1521,0.5031 0.152,0.7659 -10e-5,0.2628 -0.052,0.523 -0.1527,0.7658 -0.1007,0.2428 -0.2482,0.4633 -0.4341,0.6491 -0.1859,0.1857 -0.4066,0.333 -0.6495,0.4335 -0.2429,0.1005 -0.5031,0.1521 -0.7659,0.152 -0.5308,0 -1.0399,-0.2109 -1.4152,-0.5862 -0.3753,-0.3753 -0.58616,-0.8844 -0.58616,-1.4151 0,-0.5308 0.21086,-1.0399 0.58616,-1.4152 0.3753,-0.3753 0.8844,-0.58616 1.4152,-0.58616 z"
         fill="#ffffff"
         id="path8365" />
    </g>
  </g>
  <g
     id="g12611"
     transform="matrix(0.15788145,0,0,0.15788145,22.126075,8.457932)"
     style="fill:none;stroke-width:1.97048">
    <g
       id="g12598"
       transform="translate(0.07135726)"
       style="stroke-width:1.97048">
      <g
         id="g12585"
         style="stroke-width:1.97048">
        <rect
           style="opacity:1;fill:#eef1f4;fill-opacity:1;stroke-width:1.97048;stroke-linecap:round;stroke-linejoin:round;stroke-dashoffset:1.89038;stroke-opacity:0.974255;paint-order:stroke markers fill"
           id="rect12438"
           width="14.608696"
           height="14.608696"
           x="-43.22197"
           y="21.254005"
           rx="0.76887792"
           ry="0.76887792" />
        <rect
           style="opacity:1;fill:#bfc8d5;fill-opacity:1;stroke-width:1.97048;stroke-linecap:round;stroke-linejoin:round;stroke-dashoffset:1.89038;stroke-opacity:0.974255;paint-order:stroke markers fill"
           id="rect12091"
           width="14.608696"
           height="14.608696"
           x="-42.320366"
           y="21.254005"
           rx="0.76887792"
           ry="0.76887792" />
        <rect
           style="opacity:1;fill:#dce2e9;fill-opacity:1;stroke-width:1.97048;stroke-linecap:round;stroke-linejoin:round;stroke-dashoffset:1.89038;stroke-opacity:0.974255;paint-order:stroke markers fill"
           id="rect12089"
           width="14.608696"
           height="14.608696"
           x="-42.727688"
           y="21.254005"
           rx="0.76887792"
           ry="0.76887792" />
      </g>
      <g
         id="g12589"
         transform="translate(-0.20659733)"
         style="stroke-width:1.97048">
        <rect
           class="cls-15"
           x="-28.694553"
           y="-39.977043"
           width="2.590517"
           height="2.590517"
           rx="0.33197573"
           transform="rotate(-90)"
           id="rect10455"
           style="fill:#5a6271;fill-opacity:1;stroke-width:0.218052" />
        <rect
           class="cls-15"
           x="-28.694553"
           y="-33.133919"
           width="2.590517"
           height="2.590517"
           rx="0.33197573"
           transform="rotate(-90)"
           id="rect10457"
           style="fill:#5a6271;fill-opacity:1;stroke-width:0.218052" />
      </g>
    </g>
    <g
       id="g12580"
       style="stroke-width:1.97048">
      <path
         id="rect10587"
         style="opacity:1;fill:#02679a;fill-opacity:1;stroke-width:1.97048;stroke-linecap:round;stroke-linejoin:round;stroke-dashoffset:1.89038;stroke-opacity:0.974255;paint-order:stroke markers fill"
         d="m -45.417923,34.710174 v 23.807963 c 0,5.552667 4.468817,10.021485 10.021484,10.021485 5.552666,0 10.023437,-4.468818 10.023437,-10.021485 V 34.710174 Z"
         sodipodi:nodetypes="cssscc" />
      <path
         class="cls-6"
         d="m -32.329114,47.478853 h -1.559178 v 1.559179 h 0.47583 v 1.408685 l -1.693075,1.693074 v -5.334848 h 0.818874 l -1.122078,-1.943165 -1.122078,1.943165 h 0.818873 v 7.167354 l -1.560286,-1.560285 v -1.426388 a 0.8908015,0.8908015 0 1 0 -0.606408,0 v 1.677584 l 0.390624,0.390624 v 0 l 1.777177,1.777176 v 0.750266 a 1.4197494,1.4197494 0 1 0 0.606408,0 v -2.58277 l 1.961977,-1.954233 v 0 l 0.341936,-0.341935 v -1.659879 h 0.475831 z"
         id="path10463"
         style="fill:#ffffff;stroke-width:0.218052" />
    </g>
  </g>
</svg>
