<?xml version="1.0" encoding="UTF-8" standalone="no"?>
<svg
   width="24"
   height="24"
   image-rendering="optimizeSpeed"
   version="1.1"
   id="svg4"
   sodipodi:docname="catarina.svg"
   inkscape:version="1.3 (0e150ed6c4, 2023-07-21)"
   xmlns:inkscape="http://www.inkscape.org/namespaces/inkscape"
   xmlns:sodipodi="http://sodipodi.sourceforge.net/DTD/sodipodi-0.dtd"
   xmlns="http://www.w3.org/2000/svg"
   xmlns:svg="http://www.w3.org/2000/svg">
  <defs
     id="defs4" />
  <sodipodi:namedview
     id="namedview4"
     pagecolor="#ffffff"
     bordercolor="#000000"
     borderopacity="0.25"
     inkscape:showpageshadow="2"
     inkscape:pageopacity="0.0"
     inkscape:pagecheckerboard="0"
     inkscape:deskcolor="#d1d1d1"
     inkscape:zoom="6.3359375"
     inkscape:cx="-7.1023428"
     inkscape:cy="20.754624"
     inkscape:window-width="2560"
     inkscape:window-height="998"
     inkscape:window-x="0"
     inkscape:window-y="0"
     inkscape:window-maximized="1"
     inkscape:current-layer="svg4" />
  <circle
     cx="22.667"
     cy="42.667"
     fill="#b0b0b0"
     style="paint-order:normal"
     r="0"
     id="circle4" />
  <path
     d="m 9.592881,1.1146316 c 0.12,0 0.2346671,-0.015999 0.3440012,-0.046667 1.4373318,-0.0946668 2.8746648,-0.0893334 4.3079988,0.010667 1.301333,0.104 2.561333,0.3853333 3.781333,0.848 2.025333,0.8333333 3.410667,2.2813334 4.161333,4.3386667 0.421334,1.2399999 0.676,2.5159998 0.754667,3.8226667 0.104,1.646667 0.068,3.286666 -0.114667,4.928 -0.139999,1.150666 -0.437333,2.254666 -0.895999,3.317333 -0.849334,1.844 -2.229334,3.114667 -4.134667,3.812 -1.542667,0.521333 -3.130667,0.797333 -4.766667,0.824 -1.833333,0.09867 -3.6506666,-0.04267 -5.4519996,-0.412 -3.3080002,-0.734667 -5.3546667,-2.754666 -6.1253334,-6.057333 -0.328,-1.484 -0.47999998,-2.989333 -0.448,-4.510667 -0.036,-1.614667 0.1346667,-3.2133332 0.516,-4.7866666 C 2.332881,4.1199648 4.2915478,2.2079649 7.3955475,1.4692982 8.1195478,1.2919649 8.8542143,1.1719649 9.592881,1.1146316 Z"
     style="fill:#4d4d4d;fill-opacity:1;fill-rule:evenodd;stroke:none;stroke-width:1.33333"
     id="path4714" />
  <g
     id="g8"
     transform="matrix(0.41935483,0,0,0.41935483,15.354838,-1.8035979)"
     style="stroke-width:2.86153852;stroke-dasharray:none">
    <path
       style="fill:none;fill-opacity:1;stroke:#ffffff;stroke-width:2.86153852;stroke-linecap:butt;stroke-linejoin:miter;stroke-miterlimit:4;stroke-dasharray:none;stroke-opacity:1"
       d="m -16.727,20.636 c 4.704,0 12.813,14.546 17.454,14.546"
       id="path5" />
    <rect
       style="fill:#ffffff;fill-opacity:1;stroke:none;stroke-width:2.86153852;stroke-miterlimit:4;stroke-dasharray:none;stroke-opacity:1;paint-order:markers fill stroke"
       width="7.2729998"
       height="7.2729998"
       x="-24"
       y="17"
       ry="2.221"
       id="rect5" />
    <rect
       style="fill:#ffffff;fill-opacity:1;stroke:none;stroke-width:2.86153852;stroke-miterlimit:4;stroke-dasharray:none;stroke-opacity:1;paint-order:markers fill stroke"
       width="7.2729998"
       height="7.2729998"
       x="-24"
       y="27.181999"
       ry="2.221"
       id="rect6" />
    <rect
       style="fill:#ffffff;fill-opacity:1;stroke:none;stroke-width:2.86153852;stroke-miterlimit:4;stroke-dasharray:none;stroke-opacity:1;paint-order:markers fill stroke"
       width="7.2729998"
       height="7.2729998"
       x="0.72700119"
       y="31.545"
       ry="2.221"
       id="rect7" />
    <rect
       style="fill:#ffffff;fill-opacity:1;stroke:none;stroke-width:2.86153852;stroke-miterlimit:4;stroke-dasharray:none;stroke-opacity:1;paint-order:markers fill stroke"
       width="7.2729998"
       height="7.2729998"
       x="0.72700119"
       y="40.727001"
       ry="2.221"
       id="rect8" />
    <path
       style="fill:none;fill-opacity:1;stroke:#ffffff;stroke-width:2.86153852;stroke-linecap:butt;stroke-linejoin:miter;stroke-miterlimit:4;stroke-dasharray:none;stroke-opacity:1"
       d="m -16.727,30.818 c 4.704,0 12.813,14.546 17.454,14.546"
       id="path8" />
  </g>
</svg>
