<?xml version="1.0" encoding="UTF-8" standalone="no"?>
<svg
   width="24"
   height="24"
   image-rendering="optimizeSpeed"
   version="1.1"
   id="svg4"
   sodipodi:docname="catia.svg"
   inkscape:export-filename="../../../../../../../../../Imagens/Big Icons/catia.pdf"
   inkscape:export-xdpi="96"
   inkscape:export-ydpi="96"
   xml:space="preserve"
   inkscape:version="1.3 (0e150ed6c4, 2023-07-21)"
   xmlns:inkscape="http://www.inkscape.org/namespaces/inkscape"
   xmlns:sodipodi="http://sodipodi.sourceforge.net/DTD/sodipodi-0.dtd"
   xmlns="http://www.w3.org/2000/svg"
   xmlns:svg="http://www.w3.org/2000/svg"><defs
     id="defs4"><radialGradient
       fx="0"
       fy="0"
       cx="0"
       cy="0"
       r="1"
       gradientUnits="userSpaceOnUse"
       gradientTransform="matrix(0,21.999999,-21.999999,0,11.999535,0.99997958)"
       spreadMethod="pad"
       id="radialGradient9652-9"><stop
         style="stop-color:#f698a8;stop-opacity:1;"
         offset="0"
         id="stop9648-1" /><stop
         style="stop-color:#ef4360;stop-opacity:1;"
         offset="1"
         id="stop9650-2" /></radialGradient><radialGradient
       fx="0"
       fy="0"
       cx="0"
       cy="0"
       r="1"
       gradientUnits="userSpaceOnUse"
       gradientTransform="matrix(0,16.499999,-16.499999,0,8.999651,0.749985)"
       spreadMethod="pad"
       id="radialGradient2"><stop
         style="stop-opacity:1;stop-color:#f698a8"
         offset="0"
         id="stop1" /><stop
         style="stop-opacity:1;stop-color:#ef4360"
         offset="1"
         id="stop2" /></radialGradient><radialGradient
       fx="0"
       fy="0"
       cx="0"
       cy="0"
       r="1"
       gradientUnits="userSpaceOnUse"
       gradientTransform="matrix(0,21.999998,-21.999998,0,45.999534,0.99997998)"
       spreadMethod="pad"
       id="radialGradient2-7"><stop
         style="stop-opacity:1;stop-color:#f698a8"
         offset="0"
         id="stop1-4" /><stop
         style="stop-opacity:1;stop-color:#ef4360"
         offset="1"
         id="stop2-5" /></radialGradient></defs><sodipodi:namedview
     id="namedview4"
     pagecolor="#ffffff"
     bordercolor="#000000"
     borderopacity="0.25"
     inkscape:showpageshadow="2"
     inkscape:pageopacity="0.0"
     inkscape:pagecheckerboard="0"
     inkscape:deskcolor="#d1d1d1"
     inkscape:zoom="6.3359375"
     inkscape:cx="-3.7090012"
     inkscape:cy="31.802713"
     inkscape:window-width="2560"
     inkscape:window-height="998"
     inkscape:window-x="0"
     inkscape:window-y="0"
     inkscape:window-maximized="1"
     inkscape:current-layer="svg4"><inkscape:page
       x="0"
       y="0"
       width="24"
       height="24"
       id="page8"
       margin="0"
       bleed="0" /></sodipodi:namedview><circle
     cx="22.667"
     cy="42.667"
     fill="#b0b0b0"
     style="paint-order:normal"
     r="0"
     id="circle4" /><g
     id="g1"
     inkscape:groupmode="layer"
     inkscape:label="1"
     transform="translate(34)" /><g
     id="g9"
     transform="translate(-34.000452,-3.5455915e-5)"><path
       id="path2"
       d="m 43.593333,1.1146666 c 0.12,0 0.234667,-0.016 0.344,-0.046667 1.437333,-0.0946667 2.874667,-0.0893334 4.308,0.010667 1.301333,0.104 2.561333,0.3853334 3.781333,0.848 2.025333,0.8333333 3.410667,2.2813333 4.161333,4.3386666 0.421334,1.2399999 0.676,2.5159999 0.754667,3.8226668 0.104,1.646666 0.068,3.286666 -0.114667,4.928 -0.14,1.150666 -0.437333,2.254666 -0.896,3.317333 -0.849333,1.844 -2.229333,3.114666 -4.134666,3.812 -1.542667,0.521333 -3.130667,0.797333 -4.766667,0.824 -1.833333,0.09867 -3.650666,-0.04267 -5.452,-0.412 C 38.270667,21.822666 36.224,19.802666 35.453333,16.5 c -0.328,-1.484 -0.48,-2.989334 -0.448,-4.510667 -0.036,-1.614667 0.134667,-3.2133332 0.516,-4.7866665 C 36.333333,4.1199999 38.292,2.2079999 41.396,1.4693333 42.12,1.292 42.854666,1.172 43.593333,1.1146666 Z"
       style="fill:url(#radialGradient2-7);fill-rule:evenodd;stroke:none;stroke-width:1.33333" /><path
       id="path3"
       d="m 42.453333,6.9952704 c 1.910667,0 5.208,5.9002196 7.093333,5.9002196"
       style="fill:none;stroke:#ffffff;stroke-width:0.899998;stroke-linecap:butt;stroke-linejoin:miter;stroke-miterlimit:4;stroke-dasharray:none;stroke-opacity:1" /><path
       id="path4"
       d="M 40.401333,5.5159999 H 41.552 c 0.5,0 0.901333,0.4013333 0.901333,0.8999999 v 1.152 c 0,0.5 -0.401333,0.9013333 -0.901333,0.9013333 h -1.150667 c -0.5,0 -0.901333,-0.4013333 -0.901333,-0.9013333 v -1.152 c 0,-0.4986666 0.401333,-0.8999999 0.901333,-0.8999999 z"
       style="fill:#ffffff;fill-opacity:1;fill-rule:nonzero;stroke:none;stroke-width:1.33333" /><path
       id="path5-9"
       d="M 40.401333,9.6506664 H 41.552 c 0.5,0 0.901333,0.4013336 0.901333,0.9013336 v 1.145333 c 0,0.5 -0.401333,0.901333 -0.901333,0.901333 h -1.150667 c -0.5,0 -0.901333,-0.401333 -0.901333,-0.901333 V 10.552 c 0,-0.5 0.401333,-0.9013336 0.901333,-0.9013336 z"
       style="fill:#ffffff;fill-opacity:1;fill-rule:nonzero;stroke:none;stroke-width:1.33333" /><path
       id="path6"
       d="m 50.448,11.421333 h 1.150666 c 0.5,0 0.901334,0.401333 0.901334,0.901333 v 1.146667 c 0,0.5 -0.401334,0.905333 -0.901334,0.905333 H 50.448 c -0.5,0 -0.901334,-0.405333 -0.901334,-0.905333 v -1.146667 c 0,-0.5 0.401334,-0.901333 0.901334,-0.901333 z"
       style="fill:#ffffff;fill-opacity:1;fill-rule:nonzero;stroke:none;stroke-width:1.33333" /><path
       id="path7"
       d="m 50.448,15.145333 h 1.150666 c 0.5,0 0.901334,0.401333 0.901334,0.901333 v 1.150667 c 0,0.5 -0.401334,0.901333 -0.901334,0.901333 H 50.448 c -0.5,0 -0.901334,-0.401333 -0.901334,-0.901333 v -1.150667 c 0,-0.5 0.401334,-0.901333 0.901334,-0.901333 z"
       style="fill:#ffffff;fill-opacity:1;fill-rule:nonzero;stroke:none;stroke-width:1.33333" /><path
       id="path8-3"
       d="m 42.453333,11.125024 c 1.910667,0 5.208,5.906881 7.093333,5.906881"
       style="fill:none;stroke:#ffffff;stroke-width:0.899998;stroke-linecap:butt;stroke-linejoin:miter;stroke-miterlimit:4;stroke-dasharray:none;stroke-opacity:1" /></g></svg>
