<?xml version="1.0" encoding="UTF-8" standalone="no"?>
<svg
   width="24"
   height="24"
   version="1.1"
   id="svg3"
   sodipodi:docname="cellwriter.svg"
   inkscape:version="1.3 (0e150ed6c4, 2023-07-21)"
   xmlns:inkscape="http://www.inkscape.org/namespaces/inkscape"
   xmlns:sodipodi="http://sodipodi.sourceforge.net/DTD/sodipodi-0.dtd"
   xmlns="http://www.w3.org/2000/svg"
   xmlns:svg="http://www.w3.org/2000/svg">
  <defs
     id="defs3" />
  <sodipodi:namedview
     id="namedview3"
     pagecolor="#ffffff"
     bordercolor="#000000"
     borderopacity="0.25"
     inkscape:showpageshadow="2"
     inkscape:pageopacity="0.0"
     inkscape:pagecheckerboard="0"
     inkscape:deskcolor="#d1d1d1"
     inkscape:zoom="4.4801844"
     inkscape:cx="-32.81115"
     inkscape:cy="19.753651"
     inkscape:window-width="2560"
     inkscape:window-height="998"
     inkscape:window-x="0"
     inkscape:window-y="0"
     inkscape:window-maximized="1"
     inkscape:current-layer="svg3" />
  <path
     d="m 9.592881,1.1146316 c 0.12,0 0.2346671,-0.015999 0.3440012,-0.046667 1.4373318,-0.0946668 2.8746648,-0.0893334 4.3079988,0.010667 1.301333,0.104 2.561333,0.3853333 3.781333,0.848 2.025333,0.8333333 3.410667,2.2813334 4.161333,4.3386667 0.421334,1.2399999 0.676,2.5159998 0.754667,3.8226667 0.104,1.646667 0.068,3.286666 -0.114667,4.928 -0.139999,1.150666 -0.437333,2.254666 -0.895999,3.317333 -0.849334,1.844 -2.229334,3.114667 -4.134667,3.812 -1.542667,0.521333 -3.130667,0.797333 -4.766667,0.824 -1.833333,0.09867 -3.6506666,-0.04267 -5.4519996,-0.412 -3.3080002,-0.734667 -5.3546667,-2.754666 -6.1253334,-6.057333 -0.328,-1.484 -0.47999998,-2.989333 -0.448,-4.510667 -0.036,-1.614667 0.1346667,-3.2133332 0.516,-4.7866666 C 2.332881,4.1199648 4.2915478,2.2079649 7.3955475,1.4692982 8.1195478,1.2919649 8.8542143,1.1719649 9.592881,1.1146316 Z"
     style="fill:#f2f2f2;fill-opacity:1;fill-rule:evenodd;stroke:none;stroke-width:1.33333"
     id="path4714" />
  <g
     id="g5"
     transform="matrix(0.42593624,0,0,0.42593624,15.407703,-1.6295337)"
     style="stroke-width:2.34777">
    <path
       d="m -23.261,21.434 v 21.13 H 7.26 v -21.13 h -30.52 z m 1.174,1.174 H -9.174 V 41.39 h -12.913 z m 15.26,0 H 6.086 V 41.39 H -6.826 Z"
       fill="#969696"
       fill-rule="evenodd"
       id="path4"
       style="stroke-width:2.0003" />
    <path
       d="m -16.664,37.638 c -1.908,-0.594 -3.79,-2.405 -3.655,-4.73 0.13,-2.649 1.973,-4.743 3.957,-6.059 0.594,-0.536 1.923,-1.28 2.257,-0.073 0.265,1.253 -1.155,1.417 -1.95,1.582 -1.597,0.814 -2.749,2.711 -2.74,4.641 0.284,2.04 2.186,3.21 3.903,3.557 1.32,0.285 2.731,0.15 3.958,-0.47 -1.52,1.475 -3.914,2.171 -5.729,1.547 z m 12.35,-0.157 c -1.392,-1.938 -0.45,-6.378 -0.36,-8.832 0,0 1.272,-0.139 1.274,0.435 -0.95,1.628 -0.771,8.664 1.232,5.426 0.54,-0.875 0.702,-1.923 1.109,-2.864 0.312,-0.722 1.224,-0.794 1.487,-0.04 0.314,0.897 1.411,4.275 1.922,3.095 0.376,-0.866 0.52,-1.804 0.621,-2.728 0.151,-2.527 -0.706,-4.954 -1.098,-7.42 1.49,2.403 2.513,7.079 2.444,9.462 -0.034,1.213 -0.47,2.63 -1.535,3.22 -2.463,0.979 -2.62,-4.583 -3.917,-1.584 -0.706,1.63 -2.423,2.885 -3.18,1.832 z"
       fill="#333333"
       id="path5"
       style="stroke-width:2.0003" />
  </g>
</svg>
