<svg width="24" height="24" viewBox="0 0 24 24" fill="none" xmlns="http://www.w3.org/2000/svg">
<path fill-rule="evenodd" clip-rule="evenodd" d="M9.75239 0.0739538C9.6332 0.108652 9.50823 0.125307 9.3775 0.123915C8.56756 0.18901 7.7678 0.318078 6.97821 0.511116C3.58964 1.31674 1.45277 3.40263 0.567605 6.76878C0.152726 8.4841 -0.0347189 10.2244 0.00527178 11.9897C-0.0281483 13.6499 0.134304 15.2903 0.492628 16.9109C1.337 20.5111 3.56552 22.7136 7.17815 23.5183C9.14087 23.9222 11.1236 24.0721 13.1264 23.968C14.9069 23.9378 16.6397 23.6381 18.3249 23.0687C20.4044 22.3058 21.9081 20.9194 22.836 18.9094C23.3363 17.7501 23.6612 16.5427 23.8107 15.2872C24.0105 13.5009 24.0521 11.7106 23.9357 9.91634C23.8516 8.4875 23.5766 7.0969 23.1109 5.74457C22.2966 3.49843 20.7846 1.92048 18.5748 1.01073C17.2456 0.505183 15.871 0.197086 14.451 0.0864442C12.8849 -0.0244901 11.3187 -0.0286518 9.75239 0.0739538Z" fill="url(#paint0_linear_3_286)"/>
<path fill-rule="evenodd" clip-rule="evenodd" d="M23.9618 13.4214C23.9306 14.0438 23.8802 14.6657 23.8107 15.2872C23.6612 16.5427 23.3363 17.7501 22.836 18.9094C21.9081 20.9194 20.4044 22.3058 18.3249 23.0687C16.6398 23.6381 14.9069 23.9378 13.1264 23.968C12.3121 24.0103 11.5012 24.0107 10.6936 23.969C10.1351 22.8303 9.82192 21.552 9.82192 20.2012C9.82192 15.4298 13.73 11.5618 18.5509 11.5618C20.5947 11.5618 22.4744 12.2569 23.9618 13.4214Z" fill="#F9F9F9"/>
<path opacity="0.35" d="M12.0037 4C9.9779 4 8.0351 4.79647 6.60267 6.2142C5.17024 7.63193 4.36551 9.55478 4.36551 11.5598C4.36551 13.5647 5.17024 15.4876 6.60267 16.9053C8.0351 18.323 9.9779 19.1195 12.0037 19.1195C14.0294 19.1195 15.9722 18.323 17.4047 16.9053C18.8371 15.4876 19.6418 13.5647 19.6418 11.5598C19.6418 9.55478 18.8371 7.63193 17.4047 6.2142C15.9722 4.79647 14.0294 4 12.0037 4ZM8.72899 8.32482C8.87789 8.31575 9.02708 8.33695 9.16739 8.38711C9.30769 8.43727 9.43614 8.51533 9.54481 8.61647C9.65349 8.71762 9.74009 8.83971 9.79929 8.97524C9.85849 9.11076 9.88903 9.25684 9.88903 9.40449C9.88903 9.55214 9.85849 9.69822 9.79929 9.83375C9.74009 9.96927 9.65349 10.0914 9.54481 10.1925C9.43614 10.2937 9.30769 10.3717 9.16739 10.4219C9.02708 10.472 8.87789 10.4932 8.72899 10.4842C8.45127 10.4673 8.19052 10.3461 7.9999 10.1455C7.80929 9.94491 7.70316 9.67988 7.70316 9.40449C7.70316 9.1291 7.80929 8.86408 7.9999 8.66346C8.19052 8.46284 8.45127 8.34173 8.72899 8.32482ZM15.2763 8.32482C15.4252 8.31575 15.5744 8.33695 15.7147 8.38711C15.855 8.43727 15.9834 8.51533 16.0921 8.61647C16.2008 8.71762 16.2874 8.83971 16.3466 8.97524C16.4058 9.11076 16.4363 9.25684 16.4363 9.40449C16.4363 9.55214 16.4058 9.69822 16.3466 9.83375C16.2874 9.96927 16.2008 10.0914 16.0921 10.1925C15.9834 10.2937 15.855 10.3717 15.7147 10.4219C15.5744 10.472 15.4252 10.4932 15.2763 10.4842C14.9985 10.4673 14.7378 10.3461 14.5472 10.1455C14.3566 9.94491 14.2504 9.67988 14.2504 9.40449C14.2504 9.1291 14.3566 8.86408 14.5472 8.66346C14.7378 8.46284 14.9985 8.34173 15.2763 8.32482ZM8.91871 13.5375C9.73663 14.3469 10.8459 14.8017 12.0026 14.8017C13.1593 14.8017 14.2686 14.3469 15.0866 13.5375L15.8578 14.3008C15.3516 14.8025 14.7505 15.2006 14.0889 15.4723C13.4272 15.7441 12.718 15.8841 12.0016 15.8846C10.5581 15.8846 9.17029 15.3131 8.14747 14.3008L8.91871 13.5375Z" fill="white"/>
<path opacity="0.75" fill-rule="evenodd" clip-rule="evenodd" d="M23.0764 18.3128C23.0014 18.5131 22.9212 18.7119 22.836 18.9094C21.9081 20.9194 20.4044 22.3058 18.3249 23.0687C17.3177 23.409 16.2935 23.653 15.2522 23.8007C14.2625 22.9116 13.641 21.6283 13.641 20.2012C13.641 17.5174 15.8393 15.3417 18.551 15.3417C20.586 15.3417 22.3318 16.567 23.0764 18.3128Z" fill="black"/>
<path fill-rule="evenodd" clip-rule="evenodd" d="M22.3508 19.8192C21.4163 21.3437 20.0744 22.4269 18.3249 23.0687C17.7975 23.2469 17.2655 23.3986 16.7289 23.524C15.5393 22.8836 14.7319 21.6358 14.7319 20.2012C14.7319 18.1137 16.4417 16.4214 18.5509 16.4214C20.5299 16.4214 22.1572 17.911 22.3508 19.8192Z" fill="#E91E63"/>
<path opacity="0.2" d="M20.4791 18.2909C19.9675 17.7851 19.274 17.501 18.551 17.501C17.8279 17.501 17.1344 17.7851 16.6229 18.2909L18.551 20.1992L20.4791 18.2909Z" fill="white"/>
<path opacity="0.4" fill-rule="evenodd" clip-rule="evenodd" d="M20.9134 21.5463C20.7372 21.7029 20.5533 21.8513 20.3618 21.9914L18.551 20.1992L20.4791 18.2909C20.9901 18.7972 21.2771 19.4835 21.2771 20.1992C21.2771 20.6761 21.1496 21.14 20.9134 21.5463ZM18.551 20.1992L16.6229 22.1075C16.1119 21.6012 15.8248 20.9148 15.8248 20.1992C15.8248 19.4835 16.1119 18.7972 16.6229 18.2909L18.551 20.1992Z" fill="white"/>
<path opacity="0.6" fill-rule="evenodd" clip-rule="evenodd" d="M20.3606 21.9923C19.88 22.3438 19.3511 22.6432 18.7741 22.8903C18.7001 22.8963 18.6257 22.8994 18.551 22.8994C17.828 22.8994 17.1345 22.6153 16.6229 22.1095L18.551 20.2012L20.3606 21.9923Z" fill="white"/>
<defs>
<linearGradient id="paint0_linear_3_286" x1="12" y1="0" x2="12" y2="12" gradientUnits="userSpaceOnUse">
<stop stop-color="#EEA5FF"/>
<stop offset="1" stop-color="#A159B2"/>
</linearGradient>
</defs>
</svg>
