<svg width="24" height="24" viewBox="0 0 24 24" fill="none" xmlns="http://www.w3.org/2000/svg">
<path fill-rule="evenodd" clip-rule="evenodd" d="M1.1872 15.0403C1.04499 14.032 0.984205 13.0154 1.00483 11.9906C0.968176 10.3724 1.14 8.77709 1.52031 7.20471C1.67513 6.61593 1.87174 6.06988 2.11011 5.56656C2.123 5.55241 2.13581 5.53816 2.14822 5.52346C2.37278 5.25954 2.61205 5.0085 2.8649 4.77154C2.88256 4.75486 2.89982 4.73769 2.9171 4.72051C2.94224 4.69552 2.96743 4.67048 2.99395 4.64678C2.99999 4.641 3.00647 4.63551 3.01297 4.63C3.01827 4.62551 3.02359 4.621 3.02871 4.6163C3.04871 4.59864 3.06957 4.58183 3.09042 4.56501C3.10779 4.551 3.12517 4.53699 3.14205 4.52249C3.22681 4.44915 3.31253 4.37677 3.39967 4.30629C3.41774 4.29168 3.43538 4.27671 3.45299 4.26177C3.47668 4.24167 3.50033 4.22161 3.52491 4.20248C3.60158 4.14248 3.6792 4.08438 3.75778 4.02676L3.80064 3.99391C4.31046 3.62444 4.84865 3.2958 5.41019 3.01103C5.49457 2.96808 5.58013 2.92922 5.66572 2.89033C5.71393 2.86843 5.76216 2.84653 5.8102 2.82388C8.00454 1.79291 10.3832 1.36671 12.0008 1.36671C14.6406 1.36671 19.3132 2.4757 21.8892 5.55228C21.997 5.78135 22.0956 6.01921 22.185 6.26585C22.6119 7.50549 22.8639 8.78021 22.941 10.09C23.0477 11.7332 23.0097 13.3728 22.827 15.0088C21.9233 17.394 20.4324 19.7604 18.8219 21.6886C18.4993 21.8616 18.158 22.0141 17.7978 22.1463C16.2531 22.6682 14.6647 22.943 13.0325 22.9706C11.1966 23.0661 9.37913 22.9287 7.57997 22.5585C6.68545 22.3592 5.8835 22.0664 5.17413 21.6802C3.57318 19.762 2.09086 17.4113 1.1872 15.0403Z" fill="#465051"/>
<path fill-rule="evenodd" clip-rule="evenodd" d="M21.3288 19.4164C20.4816 20.6835 19.3046 21.5935 17.7978 22.1463C16.2531 22.6682 14.6647 22.943 13.0325 22.9706C12.7355 22.9861 12.4389 22.9954 12.1428 22.9987C12.5658 21.1057 12.7365 19.5555 12.7161 18.2499V18.2485C12.6923 16.7266 12.408 15.5384 11.9589 14.5313V14.5298C11.3326 13.1226 10.3857 12.0683 9.38002 10.9486C8.94516 10.4644 8.49929 9.96797 8.06359 9.42545C7.85691 9.16878 7.65262 8.90306 7.4531 8.6221C7.24789 8.33348 7.05362 8.03723 6.8707 7.73399C8.24502 7.08016 9.55505 6.63539 10.8327 6.3992H10.8341C11.583 6.25908 12.3438 6.19242 13.1056 6.20014C15.3742 6.22681 17.7186 6.66539 19.9819 8.33972C21.1784 9.22528 22.0797 10.1917 22.9938 11.3192C23.0197 12.5526 22.964 13.784 22.8265 15.0133C22.6895 16.1642 22.3916 17.271 21.933 18.3336C21.8083 18.6037 21.6723 18.8615 21.5249 19.107C21.4602 19.2107 21.3949 19.3138 21.3288 19.4164Z" fill="#E45E3E"/>
<path fill-rule="evenodd" clip-rule="evenodd" d="M1.00052 11.4243C1.01117 9.99992 1.18444 8.59338 1.52031 7.20471C1.59421 6.92366 1.67764 6.65234 1.77059 6.39075C2.97924 6.10232 4.26255 6.38396 4.26255 6.38396C4.57248 7.12354 4.94262 7.83643 5.36924 8.51543C3.99409 9.29068 2.54762 10.26 1.00052 11.4243Z" fill="#519C26"/>
<path fill-rule="evenodd" clip-rule="evenodd" d="M22.9948 11.3682C22.9866 10.9423 22.9687 10.5163 22.9411 10.09C22.8639 8.78021 22.6119 7.50549 22.185 6.26585C21.4386 4.20689 20.0525 2.76044 18.0269 1.9265C16.8085 1.46308 15.5484 1.18066 14.2467 1.07924C12.8111 0.977551 11.3755 0.973736 9.93969 1.06779C9.83043 1.0996 9.71588 1.11486 9.59604 1.11359C8.8536 1.17326 8.12048 1.29157 7.39669 1.46852C4.2905 2.20701 2.33171 4.11908 1.52031 7.20471C1.50255 7.27814 1.48524 7.35161 1.46839 7.42514C2.43962 7.02719 3.37013 6.67943 4.26255 6.38348C4.83733 6.193 5.39591 6.02443 5.94164 5.87538C11.8537 4.26201 16.0871 5.10488 19.9815 8.33924C21.0007 9.18591 21.9974 10.1954 22.9948 11.3682Z" fill="#2194CD"/>
<path fill-rule="evenodd" clip-rule="evenodd" d="M11.9603 22.9999C10.4883 23.0036 9.02818 22.8565 7.57997 22.5585C4.26839 21.8208 2.22559 19.8018 1.45158 16.5017C1.12311 15.0161 0.974199 13.5124 1.00483 11.9906C1.00055 11.8015 0.999113 11.6127 1.00052 11.4242C2.54745 10.2599 3.99414 9.29065 5.36924 8.51543C5.55813 8.81397 5.75957 9.10469 5.97211 9.38688C6.26171 9.77035 6.57052 10.1389 6.89737 10.4912L6.89784 10.4917C6.99968 10.6018 7.10287 10.7107 7.20738 10.8183C7.4099 11.0261 7.61565 11.2308 7.82453 11.4322C7.94689 11.5507 8.06857 11.6672 8.18924 11.7829C8.47103 12.0529 8.74734 12.3176 9.01408 12.5893C9.20511 12.7829 9.39043 12.9821 9.56981 13.1865C9.66014 13.2898 9.74842 13.3954 9.83458 13.5022C10.6136 14.4694 11.2546 15.6456 11.6294 17.439C11.7178 17.8662 11.7877 18.2976 11.8389 18.7309C11.8676 18.9712 11.8917 19.2125 11.9113 19.4538C11.9543 19.9915 11.9795 20.531 11.987 21.0705C11.9913 21.3595 11.9918 21.6595 11.988 21.9705C11.9841 22.2819 11.9756 22.6043 11.9627 22.9377C11.9619 22.9584 11.9611 22.9791 11.9603 22.9999Z" fill="#65C32F"/>
<path fill-rule="evenodd" clip-rule="evenodd" d="M1.46843 7.42499C1.48527 7.35152 1.50256 7.27809 1.52031 7.20471C1.89118 5.79433 2.50178 4.62913 3.35209 3.70912C3.62822 4.72773 3.93476 5.6097 4.26255 6.38348C3.36993 6.67939 2.43944 7.02711 1.46843 7.42499Z" fill="#465051"/>
<path opacity="0.2" fill-rule="evenodd" clip-rule="evenodd" d="M3.35173 3.7095C3.9253 3.08882 4.60795 2.57972 5.3997 2.1822C5.44236 3.45871 5.65369 4.68207 6.0483 5.84871L5.94021 5.87585C5.39543 6.02443 4.83685 6.193 4.26207 6.38348C3.93428 5.61055 3.62812 4.72792 3.35173 3.7095Z" fill="black"/>
<path fill-rule="evenodd" clip-rule="evenodd" d="M12.1408 22.9987C12.0803 22.9994 12.0198 22.9998 11.9593 22.9999C11.9602 22.9791 11.961 22.9584 11.9618 22.9377V22.9362C11.9744 22.6143 11.983 22.2922 11.9875 21.97C11.9913 21.6591 11.9908 21.3595 11.9861 21.07V21.069C11.977 20.49 11.9522 19.9528 11.9113 19.4528C11.8908 19.2028 11.866 18.9623 11.8384 18.7304C11.7827 18.2661 11.7122 17.8371 11.6289 17.4385C11.2537 15.6451 10.6127 14.4679 9.83362 13.5008C9.74696 13.3936 9.65886 13.2889 9.56886 13.186C9.38933 12.9798 9.20456 12.7822 9.01408 12.5879C8.75118 12.3204 8.47924 12.0602 8.20198 11.7948C8.07697 11.6752 7.95088 11.5545 7.82406 11.4317C7.61977 11.2341 7.41405 11.0303 7.2069 10.8174C7.10404 10.7112 7.00071 10.6021 6.89737 10.4902H6.89642C6.58546 10.1545 6.27593 9.79118 5.97116 9.3864C5.76782 9.11592 5.56734 8.82735 5.36972 8.51496C4.94275 7.836 4.57229 7.12311 4.26207 6.38348C4.81676 6.19899 5.37634 6.02956 5.94021 5.87538C7.78786 5.37156 9.47219 5.10679 11.0327 5.08012V5.07964C14.4656 5.02155 17.3033 6.11491 19.9815 8.33876C17.7181 6.66444 15.3737 6.22586 13.1051 6.19919C12.775 6.19758 12.445 6.21029 12.1161 6.23729C12.0218 6.24443 11.9275 6.25253 11.8332 6.26205C11.5013 6.29539 11.1694 6.33681 10.8336 6.39872H10.8322C10.8269 6.39974 10.8217 6.40092 10.8166 6.4021C10.8097 6.40368 10.8029 6.40525 10.796 6.40634C10.5136 6.46026 10.2329 6.52331 9.95458 6.59539C9.89335 6.611 9.83213 6.62839 9.77091 6.64577C9.73689 6.65543 9.70287 6.66509 9.66886 6.67444C9.45933 6.73301 9.2479 6.7954 9.03551 6.86492C8.7053 6.97334 8.37847 7.09181 8.05549 7.22017C8.02763 7.23131 7.99988 7.24229 7.97216 7.25325C7.91935 7.27414 7.86667 7.29498 7.81358 7.31684C7.49574 7.44755 7.18134 7.58649 6.8707 7.73351C7.0588 8.04542 7.25309 8.34067 7.45262 8.62163C7.64808 8.89542 7.85167 9.16333 8.06311 9.42498V9.42641C8.40008 9.8405 8.74799 10.2456 9.10647 10.6412C9.15878 10.6998 9.20971 10.7582 9.26042 10.8163C9.31726 10.8815 9.37382 10.9463 9.43171 11.0107C9.77077 11.3888 10.1041 11.7612 10.4184 12.1422C10.4292 12.1552 10.44 12.1683 10.4507 12.1813C10.492 12.2311 10.5333 12.281 10.5736 12.3312C10.6866 12.4737 10.7968 12.6183 10.9041 12.7651L10.9101 12.7731C10.9739 12.859 11.038 12.9454 11.0994 13.0332C11.2008 13.1789 11.296 13.3298 11.3913 13.4822C11.4116 13.515 11.4323 13.5474 11.453 13.5799C11.4897 13.6372 11.5264 13.6947 11.5608 13.7546C11.7068 14.0058 11.8397 14.2644 11.9589 14.5294V14.5308C11.9628 14.5389 11.9659 14.5478 11.9689 14.5567C11.9714 14.5641 11.974 14.5715 11.977 14.5784C12.0933 14.8442 12.1954 15.116 12.2827 15.3927C12.3004 15.4479 12.315 15.5068 12.3296 15.5654C12.3385 15.6014 12.3474 15.6373 12.357 15.6723C12.4175 15.888 12.4737 16.1075 12.5189 16.3404C12.5708 16.5995 12.6121 16.8607 12.6427 17.1232C12.6452 17.1449 12.6473 17.167 12.6494 17.1893C12.6514 17.2098 12.6533 17.2304 12.6556 17.2509C12.69 17.5822 12.7102 17.9149 12.7161 18.248V18.2514C12.7199 18.5342 12.7056 18.8414 12.6913 19.1485C12.678 19.44 12.6523 19.7476 12.6208 20.0628C12.6157 20.1137 12.611 20.1643 12.6063 20.215C12.5955 20.3304 12.5846 20.4465 12.5694 20.5676C12.5246 20.9233 12.4608 21.3038 12.3932 21.69C12.3818 21.7555 12.3716 21.8194 12.3614 21.8832C12.3457 21.9814 12.3301 22.0795 12.3099 22.1834C12.2582 22.4489 12.2022 22.7201 12.1408 22.9987Z" fill="white"/>
</svg>
