<svg width="24" height="24" viewBox="0 0 24 24" fill="none" xmlns="http://www.w3.org/2000/svg">
<path fill-rule="evenodd" clip-rule="evenodd" d="M22.9998 12C22.9964 13.0058 22.9387 14.0102 22.8265 15.0133C22.6895 16.1642 22.3916 17.271 21.933 18.3336C21.0824 20.1761 19.704 21.447 17.7978 22.1463C16.2531 22.6682 14.6647 22.943 13.0325 22.9706C12.6877 22.9886 12.3435 22.9983 12 22.9998L12 12L22.9998 12Z" fill="#4783B0"/>
<path fill-rule="evenodd" clip-rule="evenodd" d="M12 22.9998C10.5145 23.0063 9.0412 22.8592 7.57997 22.5585C4.26839 21.8208 2.22559 19.8018 1.45158 16.5017C1.12379 15.0192 0.974813 13.5186 1.00465 12L12 12V22.9998Z" fill="#DA4339"/>
<path fill-rule="evenodd" clip-rule="evenodd" d="M22.9998 12C23.002 11.3639 22.9824 10.7272 22.9411 10.09C22.8639 8.78021 22.6119 7.50549 22.185 6.26585C21.4386 4.2069 20.0525 2.76044 18.0269 1.9265C16.8085 1.46308 15.5484 1.18066 14.2467 1.07924C13.4979 1.02619 12.7489 0.999781 12 1V12H22.9998Z" fill="#4AB871"/>
<path fill-rule="evenodd" clip-rule="evenodd" d="M12 1C11.3132 1.0002 10.6265 1.0228 9.93969 1.06779C9.83043 1.0996 9.71588 1.11486 9.59604 1.11359C8.8536 1.17326 8.12048 1.29157 7.39669 1.46852C4.2905 2.20701 2.33171 4.11908 1.52031 7.20471C1.17352 8.6385 1.00008 10.0914 1 11.5632C1 11.5642 1 11.5651 1 11.566C1.00001 11.7073 1.00162 11.8489 1.00483 11.9906C1.00477 11.9937 1.00471 11.9969 1.00465 12H12V1Z" fill="#FFB750"/>
</svg>
