<?xml version="1.0" encoding="UTF-8" standalone="no"?>
<svg
   width="24"
   height="24"
   viewBox="0 0 24 24"
   fill="none"
   version="1.1"
   id="svg154"
   sodipodi:docname="app.svg"
   inkscape:version="1.2.2 (b0a8486541, 2022-12-01)"
   xml:space="preserve"
   inkscape:export-filename="../../../../svg/icons que não tem no pacote/com.dec05eba.gpu_screen_recorder.svg"
   inkscape:export-xdpi="96"
   inkscape:export-ydpi="96"
   xmlns:inkscape="http://www.inkscape.org/namespaces/inkscape"
   xmlns:sodipodi="http://sodipodi.sourceforge.net/DTD/sodipodi-0.dtd"
   xmlns:xlink="http://www.w3.org/1999/xlink"
   xmlns="http://www.w3.org/2000/svg"
   xmlns:svg="http://www.w3.org/2000/svg"
   xmlns:sketch="http://www.bohemiancoding.com/sketch/ns"><sodipodi:namedview
     id="namedview156"
     pagecolor="#ffffff"
     bordercolor="#000000"
     borderopacity="1"
     inkscape:showpageshadow="0"
     inkscape:pageopacity="1"
     inkscape:pagecheckerboard="false"
     inkscape:deskcolor="#ffffff"
     showgrid="true"
     inkscape:zoom="32"
     inkscape:cx="9.609375"
     inkscape:cy="15.453125"
     inkscape:window-width="1920"
     inkscape:window-height="1052"
     inkscape:window-x="0"
     inkscape:window-y="0"
     inkscape:window-maximized="1"
     inkscape:current-layer="svg154"
     showguides="true"
     guidecolor="#ff0000"
     guideopacity="1"
     inkscape:lockguides="true"
     showborder="true"
     borderlayer="true"><inkscape:grid
       type="xygrid"
       id="grid356"
       color="#000000"
       opacity="0.10196078"
       empcolor="#000000"
       empopacity="0.10196078"
       snapvisiblegridlinesonly="true"
       enabled="true"
       visible="true"
       dotted="false" /><sodipodi:guide
       position="4,12"
       orientation="-1,0"
       id="guide764"
       inkscape:locked="true"
       inkscape:label="left-circle"
       inkscape:color="rgb(255,0,0)" /><sodipodi:guide
       position="5,12"
       orientation="-1,0"
       id="guide2218"
       inkscape:locked="true"
       inkscape:label="left-square"
       inkscape:color="rgb(255,0,0)" /><sodipodi:guide
       position="12,20"
       orientation="0,1"
       id="guide2220"
       inkscape:locked="true"
       inkscape:label="top-circle"
       inkscape:color="rgb(255,0,0)" /><sodipodi:guide
       position="12,5"
       orientation="0,1"
       id="guide2222"
       inkscape:locked="true"
       inkscape:label="bottom-square"
       inkscape:color="rgb(255,0,0)" /><sodipodi:guide
       position="12,4"
       orientation="0,1"
       id="guide2224"
       inkscape:locked="true"
       inkscape:label="bottom-circle"
       inkscape:color="rgb(255,0,0)" /><sodipodi:guide
       position="19,12"
       orientation="-1,0"
       id="guide2226"
       inkscape:locked="true"
       inkscape:label="right-square"
       inkscape:color="rgb(255,0,0)" /><sodipodi:guide
       position="20,12"
       orientation="-1,0"
       id="guide2228"
       inkscape:locked="true"
       inkscape:label="right-circle"
       inkscape:color="rgb(255,0,0)" /><sodipodi:guide
       position="12,19"
       orientation="0,1"
       id="guide2230"
       inkscape:locked="true"
       inkscape:label="top-square"
       inkscape:color="rgb(255,0,0)" /><sodipodi:guide
       position="12,12"
       orientation="1,0"
       id="guide765"
       inkscape:locked="true" /><sodipodi:guide
       position="12,12"
       orientation="0,-1"
       id="guide767"
       inkscape:locked="true" /><sodipodi:guide
       position="12,12"
       orientation="0.70710678,0.70710678"
       id="guide2266"
       inkscape:locked="true"
       inkscape:label=""
       inkscape:color="rgb(255,0,0)" /><sodipodi:guide
       position="12,12"
       orientation="-0.70710678,0.70710678"
       id="guide2994"
       inkscape:locked="true"
       inkscape:label=""
       inkscape:color="rgb(255,0,0)" /><sodipodi:guide
       position="3,12"
       orientation="-1,0"
       id="guide131543"
       inkscape:locked="true"
       inkscape:label="left-horizontal"
       inkscape:color="rgb(255,0,0)" /><sodipodi:guide
       position="12,21"
       orientation="0,1"
       id="guide131545"
       inkscape:locked="true"
       inkscape:label="top-vertical"
       inkscape:color="rgb(255,0,0)" /><sodipodi:guide
       position="21,12"
       orientation="-1,0"
       id="guide131547"
       inkscape:locked="true"
       inkscape:label="right-horizontal"
       inkscape:color="rgb(255,0,0)" /><sodipodi:guide
       position="12,3"
       orientation="0,1"
       id="guide131549"
       inkscape:locked="true"
       inkscape:label="bottom-vertical"
       inkscape:color="rgb(255,0,0)" /></sodipodi:namedview><defs
     id="defs152"><linearGradient
       inkscape:collect="always"
       id="linearGradient1116"><stop
         style="stop-color:#000000;stop-opacity:1"
         offset="0"
         id="stop1112" /><stop
         style="stop-color:#e6e6e6;stop-opacity:1"
         offset="1"
         id="stop1114" /></linearGradient><linearGradient
       inkscape:collect="always"
       xlink:href="#linearGradient1116"
       id="linearGradient1118"
       x1="53.579548"
       y1="105.09943"
       x2="52.8125"
       y2="1.6761363"
       gradientUnits="userSpaceOnUse"
       gradientTransform="matrix(0.24444444,0,0,0.24444444,-0.22222222,-0.22222222)" /></defs><path
     d="M 12,0.99999998 C 2,0.99999998 0.99999998,6 0.99999998,12 0.99999998,20 4.0000001,23 12,23 20,23 23,20 23,12 23,6 22,0.99999998 12,0.99999998 Z"
     sketch:type="MSShapeGroup"
     id="path6"
     style="font-variation-settings:normal;display:inline;opacity:1;vector-effect:none;fill:url(#linearGradient1118);fill-opacity:1;stroke-width:1.11627;stroke-linecap:butt;stroke-linejoin:miter;stroke-miterlimit:4;stroke-dasharray:none;stroke-dashoffset:0;stroke-opacity:1;-inkscape-stroke:none;stop-color:#000000;stop-opacity:1"
     sodipodi:nodetypes="sssss"
     inkscape:label="Shape"
     sodipodi:insensitive="true" /><path
     d="m 5.7333427,5.2187502 c -0.2850733,0 -0.5145925,0.2295193 -0.5145925,0.5145926 v 2.536709 L 6.2359377,8.9486985 5.2187502,9.6268234 v 8.6398336 c 0,0.285074 0.2295192,0.514593 0.5145925,0.514593 H 18.266918 c 0.285073,0 0.514332,-0.229519 0.514332,-0.514593 V 5.733082 c 0,-0.2848125 -0.229519,-0.5143318 -0.514332,-0.5143318 z"
     fill="#fbc02d"
     stroke-width="0.200568"
     id="path274"
     style="fill-rule:evenodd" /><path
     d="m 5.7403848,5.2422238 c -0.2889856,0 -0.5216346,0.2295192 -0.5216346,0.5145925 V 7.9176877 L 6.2359377,8.5859016 5.2187502,9.254898 v 8.513859 c 0,0.284813 0.232649,0.514332 0.5216346,0.514332 H 18.259615 c 0.288986,0 0.521635,-0.229519 0.521635,-0.514593 V 5.7568163 A 0.51693989,0.51693989 0 0 0 18.259615,5.2422238 Z"
     fill="#388e3c"
     style="fill-rule:evenodd;stroke-width:0.260817;paint-order:normal"
     id="path276" /><path
     d="m 18.520432,17.500637 -0.521634,0.521634 h 0.521634 z"
     fill="#e6ea97"
     id="path278"
     style="fill-rule:evenodd;stroke-width:0.260817" /><rect
     x="6.7836542"
     y="6.5463104"
     width="10.432692"
     height="10.432692"
     ry="0.52163458"
     fill="#263238"
     id="rect280"
     style="fill-rule:evenodd;stroke-width:0.260817" /><path
     d="M 7.3052886,7.0679449 V 16.457368 H 16.694711 V 7.0679449 Z"
     fill="#ffffff"
     opacity="0.15"
     id="path282"
     style="opacity:0.397237;fill:#cccccc;fill-rule:evenodd;stroke-width:0.260817" /><g
     fill="#959595"
     stroke-width="0.769"
     id="g290"
     transform="matrix(0.2608173,0,0,0.2608173,3.6538464,3.67732)"
     style="opacity:0.739206;fill:#e6e6e6;fill-rule:evenodd"><path
       d="m 18,16.03 h 13 v 1 H 18 Z m 15,0 h 6 v 1 h -6 z m -15,1.95 h 9 v 1 h -9 z m 11,0 h 5 v 1 h -5 z"
       id="path288"
       style="fill:#e6e6e6" /></g><g
     fill="#dee372"
     fill-rule="evenodd"
     id="g334"
     transform="matrix(0.2608173,0,0,0.2608173,3.6538464,3.67732)"><rect
       x="12"
       y="52"
       width="1"
       height="1"
       ry="0"
       opacity="0.6"
       style="paint-order:normal"
       id="rect294" /><rect
       x="14"
       y="52"
       width="1"
       height="1"
       ry="0"
       opacity="0.6"
       style="paint-order:normal"
       id="rect296" /><rect
       x="16"
       y="52"
       width="1"
       height="1"
       ry="0"
       opacity="0.6"
       style="paint-order:normal"
       id="rect298" /><rect
       x="18"
       y="52"
       width="1"
       height="1"
       ry="0"
       opacity="0.6"
       style="paint-order:normal"
       id="rect300" /><rect
       x="20"
       y="52"
       width="1"
       height="1"
       ry="0"
       opacity="0.6"
       style="paint-order:normal"
       id="rect302" /><rect
       x="22"
       y="52"
       width="1"
       height="1"
       ry="0"
       opacity="0.6"
       style="paint-order:normal"
       id="rect304" /><rect
       x="24"
       y="52"
       width="1"
       height="1"
       ry="0"
       opacity="0.6"
       style="paint-order:normal"
       id="rect306" /><rect
       x="26"
       y="52"
       width="1"
       height="1"
       ry="0"
       opacity="0.6"
       style="paint-order:normal"
       id="rect308" /><rect
       x="28"
       y="52"
       width="1"
       height="1"
       ry="0"
       opacity="0.6"
       style="paint-order:normal"
       id="rect310" /><rect
       x="30"
       y="52"
       width="1"
       height="1"
       ry="0"
       opacity="0.6"
       style="paint-order:normal"
       id="rect312" /><rect
       x="13"
       y="53"
       width="1"
       height="1"
       ry="0"
       opacity="0.6"
       style="paint-order:normal"
       id="rect314" /><rect
       x="15"
       y="53"
       width="1"
       height="1"
       ry="0"
       opacity="0.6"
       style="paint-order:normal"
       id="rect316" /><rect
       x="17"
       y="53"
       width="1"
       height="1"
       ry="0"
       opacity="0.6"
       style="paint-order:normal"
       id="rect318" /><rect
       x="19"
       y="53"
       width="1"
       height="1"
       ry="0"
       opacity="0.6"
       style="paint-order:normal"
       id="rect320" /><rect
       x="21"
       y="53"
       width="1"
       height="1"
       ry="0"
       opacity="0.6"
       style="paint-order:normal"
       id="rect322" /><rect
       x="23"
       y="53"
       width="1"
       height="1"
       ry="0"
       opacity="0.6"
       style="paint-order:normal"
       id="rect324" /><rect
       x="25"
       y="53"
       width="1"
       height="1"
       ry="0"
       opacity="0.6"
       style="paint-order:normal"
       id="rect326" /><rect
       x="27"
       y="53"
       width="1"
       height="1"
       ry="0"
       opacity="0.6"
       style="paint-order:normal"
       id="rect328" /><rect
       x="29"
       y="53"
       width="1"
       height="1"
       ry="0"
       opacity="0.6"
       style="paint-order:normal"
       id="rect330" /><rect
       x="31"
       y="53"
       width="1"
       height="1"
       ry="0"
       opacity="0.6"
       style="paint-order:normal"
       id="rect332" /></g><g
     transform="matrix(0.2608173,0,0,0.2608173,9.1310097,3.67732)"
     fill="#dee372"
     fill-rule="evenodd"
     id="g350"><rect
       x="26"
       y="52"
       width="1"
       height="1"
       ry="0"
       opacity="0.6"
       style="paint-order:normal"
       id="rect336" /><rect
       x="28"
       y="52"
       width="1"
       height="1"
       ry="0"
       opacity="0.6"
       style="paint-order:normal"
       id="rect338" /><rect
       x="30"
       y="52"
       width="1"
       height="1"
       ry="0"
       opacity="0.6"
       style="paint-order:normal"
       id="rect340" /><rect
       x="25"
       y="53"
       width="1"
       height="1"
       ry="0"
       opacity="0.6"
       style="paint-order:normal"
       id="rect342" /><rect
       x="27"
       y="53"
       width="1"
       height="1"
       ry="0"
       opacity="0.6"
       style="paint-order:normal"
       id="rect344" /><rect
       x="29"
       y="53"
       width="1"
       height="1"
       ry="0"
       opacity="0.6"
       style="paint-order:normal"
       id="rect346" /><rect
       x="31"
       y="53"
       width="1"
       height="1"
       ry="0"
       opacity="0.6"
       style="paint-order:normal"
       id="rect348" /></g><g
     transform="matrix(0,0.2608173,-0.2608173,0,31.822115,4.1989546)"
     fill="#dee372"
     fill-rule="evenodd"
     id="g392"><rect
       x="12"
       y="52"
       width="1"
       height="1"
       ry="0"
       opacity="0.6"
       style="paint-order:normal"
       id="rect352" /><rect
       x="14"
       y="52"
       width="1"
       height="1"
       ry="0"
       opacity="0.6"
       style="paint-order:normal"
       id="rect354" /><rect
       x="16"
       y="52"
       width="1"
       height="1"
       ry="0"
       opacity="0.6"
       style="paint-order:normal"
       id="rect356" /><rect
       x="18"
       y="52"
       width="1"
       height="1"
       ry="0"
       opacity="0.6"
       style="paint-order:normal"
       id="rect358" /><rect
       x="20"
       y="52"
       width="1"
       height="1"
       ry="0"
       opacity="0.6"
       style="paint-order:normal"
       id="rect360" /><rect
       x="22"
       y="52"
       width="1"
       height="1"
       ry="0"
       opacity="0.6"
       style="paint-order:normal"
       id="rect362" /><rect
       x="24"
       y="52"
       width="1"
       height="1"
       ry="0"
       opacity="0.6"
       style="paint-order:normal"
       id="rect364" /><rect
       x="26"
       y="52"
       width="1"
       height="1"
       ry="0"
       opacity="0.6"
       style="paint-order:normal"
       id="rect366" /><rect
       x="28"
       y="52"
       width="1"
       height="1"
       ry="0"
       opacity="0.6"
       style="paint-order:normal"
       id="rect368" /><rect
       x="30"
       y="52"
       width="1"
       height="1"
       ry="0"
       opacity="0.6"
       style="paint-order:normal"
       id="rect370" /><rect
       x="13"
       y="53"
       width="1"
       height="1"
       ry="0"
       opacity="0.6"
       style="paint-order:normal"
       id="rect372" /><rect
       x="15"
       y="53"
       width="1"
       height="1"
       ry="0"
       opacity="0.6"
       style="paint-order:normal"
       id="rect374" /><rect
       x="17"
       y="53"
       width="1"
       height="1"
       ry="0"
       opacity="0.6"
       style="paint-order:normal"
       id="rect376" /><rect
       x="19"
       y="53"
       width="1"
       height="1"
       ry="0"
       opacity="0.6"
       style="paint-order:normal"
       id="rect378" /><rect
       x="21"
       y="53"
       width="1"
       height="1"
       ry="0"
       opacity="0.6"
       style="paint-order:normal"
       id="rect380" /><rect
       x="23"
       y="53"
       width="1"
       height="1"
       ry="0"
       opacity="0.6"
       style="paint-order:normal"
       id="rect382" /><rect
       x="25"
       y="53"
       width="1"
       height="1"
       ry="0"
       opacity="0.6"
       style="paint-order:normal"
       id="rect384" /><rect
       x="27"
       y="53"
       width="1"
       height="1"
       ry="0"
       opacity="0.6"
       style="paint-order:normal"
       id="rect386" /><rect
       x="29"
       y="53"
       width="1"
       height="1"
       ry="0"
       opacity="0.6"
       style="paint-order:normal"
       id="rect388" /><rect
       x="31"
       y="53"
       width="1"
       height="1"
       ry="0"
       opacity="0.6"
       style="paint-order:normal"
       id="rect390" /></g><g
     fill-rule="evenodd"
     id="g406"
     transform="matrix(0.2608173,0,0,0.2608173,3.6538464,3.67732)"><circle
       cx="9.5"
       cy="9.5"
       r="1.5"
       fill="#fbc02d"
       style="paint-order:normal"
       id="circle394" /><circle
       cx="9.5"
       cy="9.5"
       r="0.5"
       fill="#263238"
       style="paint-order:normal"
       id="circle396" /><circle
       cx="54.5"
       cy="9.5"
       r="1.5"
       fill="#fbc02d"
       style="paint-order:normal"
       id="circle398" /><circle
       cx="54.5"
       cy="9.5"
       r="0.5"
       fill="#263238"
       style="paint-order:normal"
       id="circle400" /><circle
       cx="9.5"
       cy="52.5"
       r="1.5"
       fill="#fbc02d"
       style="paint-order:normal"
       id="circle402" /><circle
       cx="9.5"
       cy="52.5"
       r="0.5"
       fill="#263238"
       style="paint-order:normal"
       id="circle404" /></g><path
     style="fill:#fbc02d;fill-opacity:1;stroke:none;stroke-width:0.0138092"
     d="m 8.5416859,9.4370654 c -0.080663,0.043021 -0.085111,0.1545877 -0.011505,0.2066264 0.100885,0.071293 0.246714,-0.00498 0.3558764,0.038001 0.1590842,0.062635 0.096876,0.3931322 0.096876,0.5283092 v 3.21755 0.925218 c 0,0.101597 0.00581,0.287038 0.1654544,0.224496 0.1164696,-0.04564 0.083106,-0.222825 0.083106,-0.321161 V 13.317078 10.63809 9.8647719 c 0,-0.106744 0.027267,-0.2584088 -0.012335,-0.3588271 C 9.1624417,9.3621261 8.832431,9.4228768 8.706747,9.4228768 c -0.051202,0 -0.1182961,-0.010769 -0.1651033,0.014192 m 0.93842,0.9938802 v 2.596134 0.662842 c 0,0.06233 -0.026176,0.20308 0.014197,0.254049 0.045473,0.0574 0.2625987,0.02213 0.331037,0.02213 h 1.0080733 3.452305 0.869981 c 0.09666,0 0.260677,0.03064 0.33979,-0.03732 0.05631,-0.04839 0.04687,-0.130844 0.04687,-0.197432 V 13.23422 11.218073 10.665704 c 0,-0.07362 0.01245,-0.162562 -0.05674,-0.2107 -0.09694,-0.06744 -0.325719,-0.02405 -0.440391,-0.02405 H 13.885213 9.4800715 M 8.720564,11.439022 v -0.759507 c -0.069917,0 -0.1622521,-0.0132 -0.213851,0.04528 -0.038831,0.04399 -0.034632,0.107206 -0.034716,0.161857 -2.028e-4,0.126258 -0.051901,0.406157 0.036637,0.505501 0.052435,0.05883 0.1410907,0.04687 0.2119331,0.04687 m 1.2704486,-0.510941 -1.43e-5,0.193329 c -5.799e-4,0.111393 -0.1081673,0.280051 -0.2229467,0.146461 -0.074994,-0.08729 -0.077722,-0.474415 0.00747,-0.554744 0.064046,-0.06041 0.2034055,-0.03361 0.2845483,-0.03361 0.08733,0 0.221985,-0.02632 0.279748,0.05674 0.151846,0.218392 -0.247116,0.191824 -0.3487931,0.191824 m 1.5052051,1.519015 c -0.045,0 -0.09366,0.005 -0.138078,-0.0032 -0.101039,-0.01851 -0.144749,-0.141172 -0.06591,-0.213408 0.06288,-0.05761 0.340575,-0.05893 0.409622,-0.0098 0.08281,0.05885 0.05674,0.193854 0.05674,0.281666 -1.3e-5,0.305198 -0.189256,0.59022 -0.524751,0.579394 -0.561151,-0.01811 -0.497131,-0.643469 -0.497131,-1.035098 0,-0.24347 0.0014,-0.511508 0.234757,-0.65638 0.292106,-0.181357 0.895099,0.02797 0.781132,0.449228 -0.02297,0.08491 -0.125899,0.131036 -0.199308,0.07502 -0.129767,-0.09902 -0.05342,-0.335191 -0.291831,-0.347397 -0.10952,-0.0056 -0.210231,0.07634 -0.24673,0.175721 -0.02803,0.07637 -0.01564,0.168583 -0.01564,0.248566 0,0.200137 -0.07072,0.567393 0.06068,0.731682 0.114406,0.143036 0.318677,0.114939 0.407594,-0.04123 0.03984,-0.06996 0.02887,-0.157412 0.02887,-0.234758 m 0.759537,-0.124283 c 0,0.207843 0.02161,0.428749 -0.0015,0.635224 -0.0091,0.08113 -0.08168,0.143175 -0.163998,0.111892 -0.123203,-0.04682 -0.08306,-0.242904 -0.08306,-0.346654 v -1.049477 c 0,-0.110552 -0.04432,-0.336627 0.110528,-0.357204 0.22266,-0.02958 0.535355,-0.03718 0.717486,0.107254 0.288032,0.228432 0.217522,0.701205 -0.109935,0.853079 -0.144237,0.06689 -0.314974,0.0459 -0.469513,0.0459 m 1.104809,-1.002058 c 0.204156,-0.05539 0.165641,0.238028 0.165641,0.353046 0,0.299066 -0.04853,0.64496 0.0045,0.939028 0.01939,0.10736 0.121066,0.199501 0.230214,0.205647 0.11981,0.0068 0.236511,-0.08758 0.257832,-0.205647 0.05309,-0.294068 0.0045,-0.639962 0.0045,-0.939028 0,-0.112935 -0.033,-0.432657 0.179258,-0.348793 0.14316,0.05657 0.08312,0.390856 0.08312,0.514504 0,0.409582 0.135039,1.121792 -0.414277,1.231672 -0.06519,0.01304 -0.128136,0.01304 -0.193329,0 -0.539486,-0.107918 -0.414278,-0.786642 -0.414278,-1.190245 0,-0.129904 -0.06682,-0.515801 0.09673,-0.560184 m -1.104809,0.242572 v 0.497132 c 0.112295,0 0.27008,0.02833 0.372836,-0.02331 0.172325,-0.08662 0.173581,-0.334169 0.01377,-0.434563 -0.106495,-0.06691 -0.266574,-0.03926 -0.386605,-0.03926 m -3.5351595,2.016141 v -1.380922 c -0.081624,0 -0.1865767,-0.01605 -0.2322845,0.06966 -0.040408,0.07575 -0.016284,0.205716 -0.016284,0.289387 v 0.662833 c 0,0.08557 -0.027089,0.228776 0.024065,0.302296 0.050348,0.07237 0.1478179,0.05674 0.2245064,0.05674 m 1.2704319,0.635224 c 0,0.272373 0.1401627,0.248565 0.3728487,0.248565 V 14.214673 H 9.9910481 m 0.6352239,0 v 0.248565 h 0.372849 v -0.248565 h -0.372849 m 0.621415,0 v 0.248565 c 0.09389,0 0.302036,0.04015 0.356568,-0.05674 0.02984,-0.05299 0.01628,-0.133135 0.01628,-0.191824 H 11.24768 m 1.146166,0 c 0,0.05869 -0.01356,0.138824 0.01628,0.191824 0.05453,0.09689 0.262679,0.05674 0.356568,0.05674 v -0.248565 h -0.372855 m 0.621415,0 v 0.248565 h 0.372849 v -0.248565 h -0.372849 m 0.635224,0 v 0.248565 h 0.37285 v -0.248565 h -0.37285 m 0.635225,0 v 0.248565 h 0.372848 v -0.248565 h -0.372839 m 0.621415,0 v 0.248565 c 0.227451,0 0.38663,0.02672 0.386657,-0.248565 z"
     id="path8015" /></svg>
