<svg width="24" height="24" viewBox="0 0 24 24" fill="none" xmlns="http://www.w3.org/2000/svg">
<path fill-rule="evenodd" clip-rule="evenodd" d="M9.59604 1.11359C9.71588 1.11486 9.83043 1.0996 9.93969 1.06779C11.3755 0.973736 12.8111 0.977551 14.2467 1.07924C15.5484 1.18066 16.8085 1.46308 18.0269 1.9265C20.0525 2.76044 21.4386 4.20689 22.185 6.26585C22.6119 7.50549 22.8639 8.78021 22.9411 10.09C23.0478 11.7347 23.0096 13.3758 22.8265 15.0133C22.6895 16.1642 22.3916 17.271 21.933 18.3336C21.0824 20.1761 19.704 21.447 17.7978 22.1463C16.2531 22.6682 14.6647 22.943 13.0325 22.9706C11.1966 23.0661 9.37913 22.9287 7.57997 22.5585C4.26839 21.8208 2.22559 19.8018 1.45158 16.5017C1.12311 15.0161 0.974199 13.5124 1.00483 11.9906C0.968176 10.3724 1.14 8.77709 1.52031 7.20471C2.33171 4.11908 4.2905 2.20701 7.39669 1.46852C8.12048 1.29157 8.8536 1.17326 9.59604 1.11359Z" fill="url(#paint0_radial_3_140)"/>
<path opacity="0.15" d="M11 1H11.2111V23H11V1Z" fill="#DA4D45"/>
<g opacity="0.25">
<path opacity="0.75" d="M20.6674 6H3.33262C3.28013 6 3.23758 6.04255 3.23758 6.09503C3.23758 6.14752 3.28013 6.19006 3.33262 6.19006H20.6674C20.7199 6.19006 20.7624 6.14752 20.7624 6.09503C20.7624 6.04255 20.7199 6 20.6674 6Z" fill="black"/>
<path opacity="0.75" d="M20.6674 9.0468H3.33262C3.28013 9.0468 3.23758 9.08934 3.23758 9.14183C3.23758 9.19431 3.28013 9.23686 3.33262 9.23686H20.6674C20.7199 9.23686 20.7624 9.19431 20.7624 9.14183C20.7624 9.08934 20.7199 9.0468 20.6674 9.0468Z" fill="black"/>
<path opacity="0.75" d="M20.6674 12.095H3.33262C3.28013 12.095 3.23758 12.1376 3.23758 12.1901C3.23758 12.2425 3.28013 12.2851 3.33262 12.2851H20.6674C20.7199 12.2851 20.7624 12.2425 20.7624 12.1901C20.7624 12.1376 20.7199 12.095 20.6674 12.095Z" fill="black"/>
<path opacity="0.75" d="M20.6674 14.7617H3.33262C3.28013 14.7617 3.23758 14.8042 3.23758 14.8567C3.23758 14.9092 3.28013 14.9518 3.33262 14.9518H20.6674C20.7199 14.9518 20.7624 14.9092 20.7624 14.8567C20.7624 14.8042 20.7199 14.7617 20.6674 14.7617Z" fill="black"/>
<path opacity="0.75" d="M20.6674 17.8099H3.33262C3.28013 17.8099 3.23758 17.8525 3.23758 17.905C3.23758 17.9575 3.28013 18 3.33262 18H20.6674C20.7199 18 20.7624 17.9575 20.7624 17.905C20.7624 17.8525 20.7199 17.8099 20.6674 17.8099Z" fill="black"/>
</g>
<path opacity="0.25" d="M7.7905 8.15119C7.77322 8.15119 7.75738 8.15023 7.74298 8.14831L7.69979 8.13823C7.66139 8.12767 7.63451 8.10511 7.61915 8.07055C7.59995 8.02736 7.59995 7.97552 7.61915 7.91505C7.64123 7.85265 7.67579 7.77298 7.72282 7.67603C7.73242 7.65875 7.74106 7.63955 7.74874 7.61843L7.77754 7.55652C7.7497 7.56611 7.71946 7.58435 7.68683 7.61123L7.59323 7.68611C7.57212 7.70242 7.54812 7.70866 7.52124 7.70482C7.49436 7.70098 7.47228 7.68898 7.455 7.66883C7.43773 7.64771 7.43101 7.62371 7.43485 7.59683C7.43965 7.57187 7.45165 7.5498 7.47084 7.5306L7.56444 7.4586C7.59707 7.43269 7.63163 7.41109 7.66811 7.39381C7.75642 7.34869 7.83705 7.33717 7.91001 7.35925C7.94457 7.36501 7.97048 7.38661 7.98776 7.42405C8.00504 7.46052 8.00408 7.50372 7.98488 7.55364C7.9676 7.60259 7.93737 7.67219 7.89417 7.76242L7.85961 7.84017L7.82649 7.91505L7.81642 7.93808L7.81066 7.9568C7.83177 7.95488 7.85865 7.94864 7.89129 7.93808C7.92585 7.92753 7.96424 7.91121 8.00648 7.88913C8.05256 7.86513 8.10487 7.83393 8.16343 7.79554C8.22102 7.75714 8.28774 7.70866 8.36357 7.65011L8.52916 7.51044L8.66451 7.38805L8.7581 7.29734L8.7941 7.26134C8.82002 7.23158 8.85121 7.22198 8.88769 7.23254C8.90497 7.23734 8.91937 7.24502 8.93089 7.25558C8.94049 7.26614 8.94865 7.2767 8.95536 7.28726C8.97072 7.31797 8.97168 7.35349 8.95824 7.39381C8.94577 7.43509 8.92177 7.49892 8.88625 7.58531L8.84881 7.66883C8.83825 7.69762 8.82722 7.72354 8.8157 7.74658L8.80706 7.78258C8.83681 7.77778 8.86897 7.76578 8.90353 7.74658C8.93809 7.72738 8.97264 7.70578 9.0072 7.68178C9.04176 7.65875 9.07391 7.63427 9.10367 7.60835C9.13439 7.57955 9.16175 7.55556 9.18575 7.53636C9.20686 7.51716 9.23038 7.50852 9.2563 7.51044C9.28222 7.51236 9.30478 7.5234 9.32397 7.54356C9.34125 7.56467 9.34893 7.58867 9.34701 7.61555C9.34701 7.64051 9.33597 7.66259 9.3139 7.68178C9.26494 7.7269 9.21454 7.7701 9.16271 7.81137C9.11087 7.84977 9.05808 7.88433 9.00432 7.91505C8.95249 7.94384 8.89969 7.96448 8.84593 7.97696C8.79218 7.98656 8.73938 7.98512 8.68755 7.97264C8.65299 7.96016 8.62803 7.93904 8.61267 7.90929C8.59923 7.87857 8.59491 7.84593 8.59971 7.81137C8.60643 7.7749 8.61939 7.72882 8.63859 7.67315C8.61459 7.69426 8.58963 7.71442 8.56372 7.73362L8.48596 7.79842C8.18839 8.0336 7.95656 8.15119 7.7905 8.15119Z" fill="#333333"/>
<path opacity="0.25" d="M9.9892 7.96688C9.96232 7.96688 9.94025 7.9592 9.92297 7.94384C9.88841 7.91601 9.87881 7.88049 9.89417 7.83729L9.91721 7.75954L9.9748 7.59107L10.0036 7.49748L10.0266 7.42405L9.87113 7.48164L9.68395 7.55364L9.48236 7.62707L9.28222 7.70194C9.25918 7.71058 9.23566 7.70962 9.21166 7.69906C9.18575 7.68562 9.16751 7.66643 9.15695 7.64147C9.14735 7.61651 9.14927 7.59251 9.16271 7.56947C9.17423 7.54356 9.19295 7.52532 9.21886 7.51476L9.51836 7.40389L9.80634 7.29734L10.0209 7.2167L10.1073 7.18359L10.1361 7.1807C10.1476 7.17879 10.1586 7.17975 10.1692 7.18359C10.1989 7.18838 10.2205 7.20566 10.234 7.23542C10.2445 7.2527 10.2489 7.27526 10.2469 7.3031C10.2469 7.32901 10.2417 7.36741 10.2311 7.41829L10.2052 7.51044L10.1692 7.62419L10.1634 7.64723L10.1562 7.66883C10.2426 7.62083 10.3482 7.57139 10.473 7.52052C10.497 7.50996 10.521 7.50996 10.545 7.52052C10.568 7.52916 10.5853 7.54548 10.5968 7.56947C10.6093 7.59251 10.6103 7.61699 10.5997 7.64291C10.5882 7.66883 10.5709 7.68754 10.5479 7.69906C10.474 7.73074 10.4058 7.76194 10.3434 7.79266C10.281 7.82241 10.2273 7.84929 10.1821 7.87329L10.0367 7.95104C10.0233 7.9616 10.007 7.96688 9.98776 7.96688H9.9892Z" fill="#333333"/>
<path opacity="0.25" d="M10.7667 8.15119C10.7495 8.15119 10.7331 8.15023 10.7178 8.14831L10.676 8.13823C10.6376 8.12767 10.6108 8.10511 10.5954 8.07055C10.5762 8.02736 10.5762 7.97552 10.5954 7.91505C10.6165 7.85265 10.6511 7.77298 10.6991 7.67603L10.725 7.61843C10.7336 7.59635 10.7432 7.57571 10.7538 7.55652C10.725 7.56611 10.6947 7.58435 10.6631 7.61123L10.5695 7.68611C10.5474 7.70242 10.5234 7.70866 10.4975 7.70482C10.4696 7.70098 10.4471 7.68898 10.4298 7.66883C10.4125 7.64771 10.4063 7.62371 10.4111 7.59683C10.4149 7.57187 10.4269 7.5498 10.4471 7.5306L10.5407 7.4586C10.5733 7.43269 10.6079 7.41109 10.6443 7.39381C10.7327 7.34869 10.8133 7.33717 10.8862 7.35925C10.9208 7.36501 10.9467 7.38661 10.964 7.42405C10.9813 7.46052 10.9803 7.50372 10.9611 7.55364C10.9438 7.60259 10.9136 7.67219 10.8704 7.76242C10.8599 7.78834 10.8479 7.81425 10.8344 7.84017L10.8027 7.91505L10.7927 7.93808L10.7855 7.9568C10.8075 7.95488 10.8349 7.94864 10.8675 7.93808C10.9021 7.92753 10.9405 7.91121 10.9827 7.88913C11.0288 7.86513 11.0806 7.83393 11.1382 7.79554C11.1968 7.75714 11.264 7.70866 11.3398 7.65011L11.504 7.51044L11.6407 7.38805L11.7343 7.29734L11.7689 7.26134C11.7948 7.23158 11.8265 7.22198 11.8639 7.23254C11.8812 7.23734 11.8951 7.24502 11.9057 7.25558C11.9162 7.26614 11.9249 7.2767 11.9316 7.28726C11.946 7.31797 11.947 7.35349 11.9345 7.39381C11.921 7.43509 11.897 7.49892 11.8625 7.58531L11.8251 7.66883L11.7919 7.74658C11.79 7.75714 11.7867 7.76914 11.7819 7.78258C11.8126 7.77778 11.8452 7.76578 11.8798 7.74658C11.9143 7.72738 11.9489 7.70578 11.9834 7.68178C12.018 7.65875 12.0502 7.63427 12.0799 7.60835C12.1097 7.57955 12.1365 7.55556 12.1605 7.53636C12.1826 7.51716 12.2066 7.50852 12.2325 7.51044C12.2585 7.51236 12.281 7.5234 12.3002 7.54356C12.3175 7.56467 12.3252 7.58867 12.3233 7.61555C12.3233 7.64051 12.3122 7.66259 12.2901 7.68178C12.2402 7.7269 12.1893 7.7701 12.1375 7.81137C12.0866 7.84977 12.0338 7.88433 11.9791 7.91505C11.9273 7.94384 11.8745 7.96448 11.8207 7.97696C11.767 7.98656 11.7142 7.98512 11.6623 7.97264C11.6278 7.96016 11.6033 7.93904 11.5889 7.90929C11.5755 7.87857 11.5707 7.84593 11.5745 7.81137C11.5812 7.7749 11.5947 7.72882 11.6148 7.67315C11.5908 7.69426 11.5659 7.71442 11.54 7.73362L11.4622 7.79842C11.1646 8.0336 10.9328 8.15119 10.7667 8.15119Z" fill="#333333"/>
<path opacity="0.25" d="M12.4845 8.15119C12.4672 8.15119 12.4514 8.15023 12.437 8.14831L12.3938 8.13823C12.3554 8.12767 12.3285 8.10511 12.3132 8.07055C12.294 8.02736 12.294 7.97552 12.3132 7.91505C12.3353 7.85265 12.3698 7.77298 12.4168 7.67603C12.4264 7.65875 12.4351 7.63955 12.4428 7.61843L12.4716 7.55652C12.4437 7.56611 12.4135 7.58435 12.3808 7.61123L12.2873 7.68611C12.2661 7.70242 12.2421 7.70866 12.2153 7.70482C12.1884 7.70098 12.1663 7.68898 12.149 7.66883C12.1317 7.64771 12.125 7.62371 12.1289 7.59683C12.1337 7.57187 12.1457 7.5498 12.1649 7.5306L12.2585 7.4586C12.2911 7.43269 12.3257 7.41109 12.3621 7.39381C12.4504 7.34869 12.5311 7.33717 12.604 7.35925C12.6386 7.36501 12.6645 7.38661 12.6818 7.42405C12.6991 7.46052 12.6981 7.50372 12.6789 7.55364C12.6616 7.60259 12.6314 7.67219 12.5882 7.76242L12.5536 7.84017L12.5205 7.91505L12.5104 7.93808L12.5047 7.9568C12.5258 7.95488 12.5527 7.94864 12.5853 7.93808C12.6199 7.92753 12.6583 7.91121 12.7005 7.88913C12.7466 7.86513 12.7989 7.83393 12.8575 7.79554C12.915 7.75714 12.9818 7.70866 13.0576 7.65011L13.2232 7.51044L13.3585 7.38805L13.4521 7.29734L13.4881 7.26134C13.514 7.23158 13.5452 7.22198 13.5817 7.23254C13.599 7.23734 13.6134 7.24502 13.6249 7.25558C13.6345 7.26614 13.6427 7.2767 13.6494 7.28726C13.6647 7.31797 13.6657 7.35349 13.6523 7.39381C13.6398 7.43509 13.6158 7.49892 13.5803 7.58531L13.5428 7.66883C13.5323 7.69762 13.5212 7.72354 13.5097 7.74658L13.5011 7.78258C13.5308 7.77778 13.563 7.76578 13.5976 7.74658C13.6321 7.72738 13.6667 7.70578 13.7012 7.68178C13.7358 7.65875 13.7679 7.63427 13.7977 7.60835C13.8284 7.57955 13.8558 7.55556 13.8798 7.53636C13.9009 7.51716 13.9244 7.50852 13.9503 7.51044C13.9762 7.51236 13.9988 7.5234 14.018 7.54356C14.0353 7.56467 14.043 7.58867 14.041 7.61555C14.041 7.64051 14.03 7.66259 14.0079 7.68178C13.959 7.7269 13.9086 7.7701 13.8567 7.81137C13.8049 7.84977 13.7521 7.88433 13.6983 7.91505C13.6465 7.94384 13.5937 7.96448 13.54 7.97696C13.4862 7.98656 13.4334 7.98512 13.3816 7.97264C13.347 7.96016 13.3221 7.93904 13.3067 7.90929C13.2933 7.87857 13.2889 7.84593 13.2937 7.81137C13.3005 7.7749 13.3134 7.72882 13.3326 7.67315C13.3086 7.69426 13.2837 7.71442 13.2577 7.73362L13.18 7.79842C12.8824 8.0336 12.6506 8.15119 12.4845 8.15119Z" fill="#333333"/>
<path opacity="0.25" d="M14.2037 8.15119C14.1865 8.15119 14.1701 8.15023 14.1548 8.14831L14.1116 8.13823C14.0732 8.12767 14.0468 8.10511 14.0324 8.07055C14.0132 8.02736 14.0132 7.97552 14.0324 7.91505C14.0535 7.85265 14.0881 7.77298 14.1361 7.67603L14.162 7.61843C14.1706 7.59635 14.1802 7.57571 14.1908 7.55652C14.162 7.56611 14.1318 7.58435 14.1001 7.61123L14.0065 7.68611C13.9844 7.70242 13.9604 7.70866 13.9345 7.70482C13.9066 7.70098 13.8841 7.68898 13.8668 7.66883C13.8495 7.64771 13.8433 7.62371 13.8481 7.59683C13.8519 7.57187 13.8635 7.5498 13.8827 7.5306C13.9134 7.50852 13.9446 7.48452 13.9762 7.4586C14.0079 7.43269 14.0425 7.41109 14.0799 7.39381C14.1682 7.34869 14.2493 7.33717 14.3233 7.35925C14.3578 7.36501 14.3837 7.38661 14.401 7.42405C14.4183 7.46052 14.4173 7.50372 14.3981 7.55364C14.3808 7.60259 14.3506 7.67219 14.3074 7.76242L14.2714 7.84017L14.2383 7.91505L14.2297 7.93808L14.2225 7.9568C14.2445 7.95488 14.2714 7.94864 14.3031 7.93808C14.3377 7.92753 14.3765 7.91121 14.4197 7.88913C14.4648 7.86513 14.5167 7.83393 14.5752 7.79554C14.6328 7.75714 14.7 7.70866 14.7768 7.65011L14.941 7.51044C14.9928 7.46532 15.0379 7.42453 15.0763 7.38805C15.1147 7.35157 15.1459 7.32133 15.1699 7.29734C15.1939 7.27334 15.2059 7.26134 15.2059 7.26134C15.2318 7.23158 15.263 7.22198 15.2995 7.23254C15.3168 7.23734 15.3312 7.24502 15.3427 7.25558L15.3686 7.28726C15.383 7.31797 15.384 7.35349 15.3715 7.39381C15.3581 7.43509 15.3341 7.49892 15.2995 7.58531L15.2606 7.66883C15.251 7.69762 15.2405 7.72354 15.2289 7.74658C15.227 7.75714 15.2237 7.76914 15.2189 7.78258C15.2496 7.77778 15.2822 7.76578 15.3168 7.74658C15.3504 7.72738 15.3844 7.70578 15.419 7.68178C15.4536 7.65875 15.4862 7.63427 15.5169 7.60835C15.5467 7.57955 15.5736 7.55556 15.5976 7.53636C15.6187 7.51716 15.6427 7.50852 15.6695 7.51044C15.6945 7.51236 15.7171 7.5234 15.7372 7.54356C15.7545 7.56467 15.7617 7.58867 15.7588 7.61555C15.7588 7.64051 15.7483 7.66259 15.7271 7.68178C15.6772 7.7269 15.6264 7.7701 15.5745 7.81137C15.5227 7.84977 15.4699 7.88433 15.4161 7.91505C15.3643 7.94384 15.3115 7.96448 15.2577 7.97696C15.204 7.98656 15.1512 7.98512 15.0994 7.97264C15.0648 7.96016 15.0398 7.93904 15.0245 7.90929C15.012 7.87857 15.0077 7.84593 15.0115 7.81137C15.0182 7.7749 15.0312 7.72882 15.0504 7.67315C15.0274 7.69426 15.0029 7.71442 14.977 7.73362L14.8992 7.79842C14.6016 8.0336 14.3698 8.15119 14.2037 8.15119ZM17.4953 8.15119C17.478 8.15119 17.4617 8.15023 17.4464 8.14831L17.4046 8.13823C17.3662 8.12767 17.3393 8.10511 17.324 8.07055C17.3048 8.02736 17.3048 7.97552 17.324 7.91505C17.3451 7.85265 17.3796 7.77298 17.4276 7.67603L17.4536 7.61843C17.4622 7.59635 17.4718 7.57571 17.4824 7.55652C17.4536 7.56611 17.4233 7.58435 17.3916 7.61123L17.2981 7.68611C17.2769 7.70242 17.2529 7.70866 17.2261 7.70482C17.1982 7.70098 17.1757 7.68898 17.1584 7.66883C17.1411 7.64771 17.1349 7.62371 17.1397 7.59683C17.1435 7.57187 17.1555 7.5498 17.1757 7.5306L17.2693 7.4586C17.3019 7.43269 17.3365 7.41109 17.3729 7.39381C17.4612 7.34869 17.5419 7.33717 17.6148 7.35925C17.6494 7.36501 17.6753 7.38661 17.6926 7.42405C17.7099 7.46052 17.7089 7.50372 17.6897 7.55364C17.6724 7.60259 17.6422 7.67219 17.599 7.76242C17.5884 7.78834 17.5764 7.81425 17.563 7.84017L17.5313 7.91505L17.5212 7.93808L17.5155 7.9568C17.5366 7.95488 17.5635 7.94864 17.5961 7.93808C17.6307 7.92753 17.6691 7.91121 17.7113 7.88913C17.7574 7.86513 17.8092 7.83393 17.8668 7.79554C17.9254 7.75714 17.9926 7.70866 18.0684 7.65011L18.2325 7.51044L18.3693 7.38805L18.4629 7.29734L18.4975 7.26134C18.5234 7.23158 18.5551 7.22198 18.5925 7.23254C18.6098 7.23734 18.6237 7.24502 18.6343 7.25558C18.6448 7.26614 18.6535 7.2767 18.6602 7.28726C18.6755 7.31797 18.6765 7.35349 18.6631 7.39381C18.6506 7.43509 18.6266 7.49892 18.5911 7.58531L18.5536 7.66883L18.5205 7.74658C18.5186 7.75714 18.5152 7.76914 18.5104 7.78258C18.5412 7.77778 18.5738 7.76578 18.6084 7.74658C18.6429 7.72738 18.6775 7.70578 18.712 7.68178C18.7466 7.65875 18.7787 7.63427 18.8085 7.60835C18.8392 7.57955 18.8661 7.55556 18.8891 7.53636C18.9112 7.51716 18.9352 7.50852 18.9611 7.51044C18.987 7.51236 19.0096 7.5234 19.0288 7.54356C19.0461 7.56467 19.0538 7.58867 19.0518 7.61555C19.0518 7.64051 19.0408 7.66259 19.0187 7.68178C18.9688 7.7269 18.9184 7.7701 18.8675 7.81137C18.8157 7.84977 18.7629 7.88433 18.7091 7.91505C18.6573 7.94384 18.6045 7.96448 18.5508 7.97696C18.496 7.98656 18.4432 7.98512 18.3924 7.97264C18.3569 7.96016 18.3319 7.93904 18.3175 7.90929C18.3041 7.87857 18.2993 7.84593 18.3031 7.81137C18.3098 7.7749 18.3233 7.72882 18.3434 7.67315C18.3194 7.69426 18.2945 7.71442 18.2685 7.73362L18.1908 7.79842C17.8932 8.0336 17.6614 8.15119 17.4953 8.15119Z" fill="#333333"/>
<path opacity="0.25" d="M19.3614 8.15695L19.3297 8.15407L19.2937 8.15119C19.2678 8.14255 19.2462 8.12431 19.2289 8.09647C19.2222 8.08303 19.2174 8.06767 19.2145 8.0504C19.2136 8.0312 19.216 8.00336 19.2217 7.96688L19.2606 7.81857C19.2798 7.7533 19.3057 7.67027 19.3384 7.56947L19.1742 7.62995L18.987 7.70194C18.963 7.71058 18.939 7.70914 18.915 7.69762C18.8891 7.68514 18.8709 7.66595 18.8603 7.64003C18.8507 7.61603 18.8527 7.59203 18.8661 7.56803C18.8776 7.54308 18.8958 7.52484 18.9208 7.51332L19.1224 7.43988L19.2937 7.37797L19.4132 7.33333L19.4579 7.31317C19.48 7.30453 19.5006 7.30358 19.5198 7.31029C19.5486 7.31701 19.5692 7.33333 19.5817 7.35925C19.5923 7.37845 19.5952 7.39573 19.5904 7.41109L19.5817 7.4586C19.5769 7.4682 19.5736 7.4778 19.5716 7.4874L19.5616 7.52052C19.5472 7.55699 19.5313 7.60211 19.514 7.65587L19.4651 7.81425L19.4392 7.89201L19.4233 7.9496C19.4636 7.94192 19.5227 7.91745 19.6004 7.87617C19.6676 7.83969 19.7391 7.79746 19.815 7.74946C19.8908 7.70146 19.9695 7.65011 20.0511 7.59539L20.1015 7.56227C20.1178 7.55267 20.1351 7.54068 20.1533 7.52628C20.1773 7.51188 20.2023 7.50756 20.2282 7.51332C20.2541 7.51812 20.2757 7.53252 20.293 7.55651C20.3084 7.57955 20.3127 7.60403 20.306 7.62995C20.3021 7.65395 20.2877 7.67315 20.2628 7.68754L20.2095 7.72786L20.1533 7.76242C20.0718 7.81713 19.9921 7.86897 19.9143 7.91793C19.8375 7.96784 19.7641 8.01104 19.694 8.04752C19.5539 8.12047 19.442 8.15695 19.3614 8.15695Z" fill="#333333"/>
<path opacity="0.25" d="M7.64219 11.1965C7.62491 11.1965 7.60859 11.1956 7.59323 11.1937C7.58076 11.1917 7.56636 11.1884 7.55004 11.1836C7.51164 11.173 7.48524 11.1505 7.47084 11.1159C7.45165 11.0727 7.45165 11.0209 7.47084 10.9604C7.49196 10.898 7.52652 10.8183 7.57452 10.7214L7.60043 10.6638C7.60907 10.6417 7.61867 10.6211 7.62923 10.6019C7.60043 10.6124 7.5702 10.6307 7.53852 10.6566L7.44493 10.7315C7.42285 10.7487 7.39885 10.755 7.37293 10.7502C7.34509 10.7463 7.32254 10.7343 7.30526 10.7142C7.28798 10.6931 7.28174 10.6695 7.28654 10.6436C7.29038 10.6177 7.3019 10.5952 7.3211 10.576L7.41613 10.504C7.44877 10.478 7.48284 10.4564 7.51836 10.4392C7.60763 10.394 7.68875 10.3825 7.7617 10.4046C7.79626 10.4104 7.82218 10.432 7.83945 10.4694C7.85673 10.5059 7.85577 10.5491 7.83657 10.599C7.8193 10.6479 7.78906 10.718 7.74586 10.8092C7.7353 10.8342 7.7233 10.8596 7.70986 10.8855L7.67819 10.9604L7.66811 10.9834L7.66091 11.0022C7.68299 11.0002 7.71034 10.994 7.74298 10.9834C7.77658 10.9729 7.81498 10.9566 7.85817 10.9345C7.90425 10.9105 7.95608 10.8793 8.01368 10.8409C8.07128 10.8025 8.13847 10.754 8.21526 10.6955L8.37941 10.5558C8.43125 10.5107 8.47636 10.4699 8.51476 10.4334C8.55316 10.3969 8.58483 10.3667 8.60979 10.3427C8.63475 10.3187 8.64627 10.3067 8.64435 10.3067C8.67027 10.2769 8.70147 10.2673 8.73794 10.2779C8.75522 10.2827 8.76962 10.2904 8.78114 10.3009L8.80706 10.3326C8.82146 10.3633 8.82242 10.3988 8.80994 10.4392C8.7965 10.4804 8.7725 10.5443 8.73794 10.6307L8.69906 10.7142C8.68947 10.743 8.67891 10.7689 8.66739 10.7919C8.66547 10.8035 8.66211 10.8155 8.65731 10.8279C8.68803 10.8241 8.72066 10.8121 8.75522 10.7919C8.78978 10.7727 8.82433 10.7511 8.85889 10.7271C8.89249 10.7041 8.92465 10.6796 8.95536 10.6537C8.98512 10.6249 9.012 10.6009 9.036 10.5817C9.05808 10.5625 9.08207 10.5539 9.10799 10.5558C9.13295 10.5587 9.15551 10.5697 9.17567 10.5889C9.19295 10.61 9.20014 10.634 9.19727 10.6609C9.19727 10.6859 9.18671 10.7079 9.16559 10.7271C9.11567 10.7732 9.0648 10.8164 9.01296 10.8567C8.96112 10.8951 8.90833 10.9297 8.85457 10.9604C8.80274 10.9892 8.74994 11.0098 8.69619 11.0223C8.64243 11.0329 8.58963 11.0319 8.5378 11.0194C8.50324 11.006 8.47828 10.9844 8.46292 10.9546C8.45045 10.9239 8.44613 10.8913 8.44996 10.8567C8.45668 10.8203 8.46964 10.7742 8.48884 10.7185C8.4658 10.7396 8.44133 10.7598 8.41541 10.779L8.33765 10.8438C8.04008 11.079 7.80826 11.1965 7.64219 11.1965Z" fill="#333333"/>
<path opacity="0.25" d="M9.35997 11.1965C9.34269 11.1965 9.32686 11.1956 9.31246 11.1937C9.29902 11.1917 9.28462 11.1884 9.26926 11.1836C9.23086 11.173 9.20399 11.1505 9.18863 11.1159C9.16943 11.0727 9.16943 11.0209 9.18863 10.9604C9.2107 10.898 9.24526 10.8183 9.2923 10.7214C9.3019 10.7041 9.31054 10.6849 9.31822 10.6638L9.34701 10.6019C9.31918 10.6124 9.28894 10.6307 9.2563 10.6566L9.16271 10.7315C9.14159 10.7487 9.11759 10.755 9.09071 10.7502C9.06384 10.7463 9.04176 10.7343 9.02448 10.7142C9.0072 10.6931 9.00048 10.6695 9.00432 10.6436C9.00912 10.6177 9.02112 10.5952 9.04032 10.576L9.13391 10.504C9.16655 10.478 9.20111 10.4564 9.23758 10.4392C9.3259 10.394 9.40653 10.3825 9.47948 10.4046C9.51404 10.4104 9.53996 10.432 9.55724 10.4694C9.57452 10.5059 9.57356 10.5491 9.55436 10.599C9.53708 10.6479 9.50684 10.718 9.46364 10.8092L9.42909 10.8855L9.39597 10.9604L9.38589 10.9834L9.38013 11.0022C9.40125 11.0002 9.42813 10.994 9.46076 10.9834C9.49532 10.9729 9.53372 10.9566 9.57596 10.9345C9.62203 10.9105 9.67435 10.8793 9.7329 10.8409C9.7905 10.8025 9.85721 10.754 9.93305 10.6955L10.0986 10.5558L10.234 10.4334L10.3276 10.3427L10.3636 10.3067C10.3895 10.2769 10.4207 10.2673 10.4572 10.2779C10.4744 10.2827 10.4888 10.2904 10.5004 10.3009C10.51 10.3115 10.5181 10.3221 10.5248 10.3326C10.5402 10.3633 10.5412 10.3988 10.5277 10.4392C10.5152 10.4804 10.4912 10.5443 10.4557 10.6307L10.4183 10.7142C10.4077 10.743 10.3967 10.7689 10.3852 10.7919L10.3765 10.8279C10.4063 10.8241 10.4384 10.8121 10.473 10.7919C10.5076 10.7727 10.5421 10.7511 10.5767 10.7271C10.6112 10.7041 10.6434 10.6796 10.6731 10.6537C10.7039 10.6249 10.7312 10.6009 10.7552 10.5817C10.7763 10.5625 10.7999 10.5539 10.8258 10.5558C10.8517 10.5587 10.8743 10.5697 10.8934 10.5889C10.9107 10.61 10.9184 10.634 10.9165 10.6609C10.9165 10.6859 10.9054 10.7079 10.8834 10.7271C10.8344 10.7732 10.784 10.8164 10.7322 10.8567C10.6803 10.8951 10.6276 10.9297 10.5738 10.9604C10.522 10.9892 10.4692 11.0098 10.4154 11.0223C10.3617 11.0329 10.3089 11.0319 10.257 11.0194C10.2225 11.006 10.1975 10.9844 10.1821 10.9546C10.1687 10.9239 10.1644 10.8913 10.1692 10.8567C10.1759 10.8203 10.1889 10.7742 10.2081 10.7185C10.1841 10.7396 10.1591 10.7598 10.1332 10.779L10.0554 10.8438C9.75786 11.079 9.52604 11.1965 9.35997 11.1965Z" fill="#333333"/>
<path opacity="0.25" d="M11.2505 10.9158C11.239 10.9158 11.2304 10.9143 11.2246 10.9114C11.1901 10.9028 11.1651 10.8898 11.1497 10.8726C11.1373 10.8534 11.1286 10.8385 11.1238 10.8279C11.1066 10.7799 11.1114 10.7315 11.1382 10.6825C11.1651 10.6307 11.1992 10.5769 11.2405 10.5212C11.2529 10.504 11.2649 10.4852 11.2765 10.4651C11.288 10.4449 11.2985 10.4267 11.3081 10.4104L11.3182 10.3974L11.2693 10.4176C11.252 10.4262 11.2313 10.4392 11.2073 10.4564C11.1689 10.4795 11.1282 10.5107 11.085 10.55L10.9525 10.6652C10.9419 10.6767 10.9299 10.6878 10.9165 10.6983L10.8848 10.7271C10.8656 10.7444 10.8431 10.7531 10.8171 10.7531C10.7883 10.7511 10.7653 10.7396 10.748 10.7185C10.7288 10.6993 10.7207 10.6763 10.7235 10.6494C10.7255 10.6215 10.736 10.599 10.7552 10.5817L10.7912 10.5529L10.8229 10.5212C10.8747 10.4732 10.9256 10.4291 10.9755 10.3888C11.0274 10.3456 11.0768 10.3086 11.1238 10.2779C11.1737 10.2481 11.2222 10.2265 11.2693 10.2131C11.3192 10.1977 11.3667 10.1968 11.4118 10.2102C11.4483 10.2208 11.4742 10.2357 11.4896 10.2549C11.5049 10.2741 11.5145 10.2913 11.5184 10.3067C11.5376 10.3566 11.5332 10.4075 11.5054 10.4593C11.4766 10.5112 11.4411 10.5683 11.3988 10.6307C11.395 10.6345 11.3897 10.6422 11.383 10.6537L11.3672 10.6796C11.3988 10.6662 11.4396 10.6508 11.4896 10.6335L11.6796 10.5601C11.7084 10.5505 11.7343 10.5524 11.7574 10.5659C11.7814 10.5764 11.7977 10.5947 11.8063 10.6206C11.8169 10.6446 11.8159 10.6695 11.8035 10.6955C11.7929 10.7195 11.7756 10.7367 11.7516 10.7473L11.5644 10.8121C11.5078 10.8313 11.4598 10.8486 11.4204 10.8639L11.3629 10.8855L11.3211 10.8999L11.2779 10.9114C11.2702 10.9143 11.2621 10.9158 11.2505 10.9158Z" fill="#333333"/>
<path opacity="0.25" d="M11.969 11.1965C11.9518 11.1965 11.9359 11.1956 11.9215 11.1937C11.9081 11.1917 11.8937 11.1884 11.8783 11.1836C11.8399 11.173 11.8131 11.1505 11.7977 11.1159C11.7785 11.0727 11.7785 11.0209 11.7977 10.9604C11.8198 10.898 11.8543 10.8183 11.9014 10.7214C11.911 10.7041 11.9196 10.6849 11.9273 10.6638L11.9561 10.6019C11.9282 10.6124 11.898 10.6307 11.8654 10.6566L11.7718 10.7315C11.7507 10.7487 11.7267 10.755 11.6998 10.7502C11.6729 10.7463 11.6508 10.7343 11.6335 10.7142C11.6163 10.6931 11.6096 10.6695 11.6134 10.6436C11.6182 10.6177 11.6302 10.5952 11.6494 10.576L11.743 10.504C11.7756 10.478 11.8102 10.4564 11.8467 10.4392C11.935 10.394 12.0156 10.3825 12.0886 10.4046C12.1231 10.4104 12.149 10.432 12.1663 10.4694C12.1836 10.5059 12.1826 10.5491 12.1634 10.599C12.1461 10.6479 12.1159 10.718 12.0727 10.8092L12.0382 10.8855L12.005 10.9604L11.995 10.9834L11.9892 11.0022C12.0103 11.0002 12.0372 10.994 12.0698 10.9834C12.1044 10.9729 12.1428 10.9566 12.185 10.9345C12.2311 10.9105 12.2834 10.8793 12.342 10.8409C12.3996 10.8025 12.4663 10.754 12.5421 10.6955L12.7077 10.5558L12.8431 10.4334L12.9366 10.3427L12.9726 10.3067C12.9986 10.2769 13.0298 10.2673 13.0662 10.2779C13.0835 10.2827 13.0979 10.2904 13.1094 10.3009C13.119 10.3115 13.1272 10.3221 13.1339 10.3326C13.1493 10.3633 13.1502 10.3988 13.1368 10.4392C13.1243 10.4804 13.1003 10.5443 13.0648 10.6307L13.0274 10.7142C13.0168 10.743 13.0058 10.7689 12.9942 10.7919L12.9856 10.8279C13.0154 10.8241 13.0475 10.8121 13.0821 10.7919C13.1166 10.7727 13.1512 10.7511 13.1857 10.7271C13.2203 10.7041 13.2525 10.6796 13.2822 10.6537C13.3129 10.6249 13.3403 10.6009 13.3643 10.5817C13.3854 10.5625 13.4089 10.5539 13.4348 10.5558C13.4608 10.5587 13.4833 10.5697 13.5025 10.5889C13.5198 10.61 13.5275 10.634 13.5256 10.6609C13.5256 10.6859 13.5145 10.7079 13.4924 10.7271C13.4435 10.7732 13.3931 10.8164 13.3413 10.8567C13.2894 10.8951 13.2366 10.9297 13.1829 10.9604C13.131 10.9892 13.0782 11.0098 13.0245 11.0223C12.9707 11.0329 12.9179 11.0319 12.8661 11.0194C12.8315 11.006 12.8066 10.9844 12.7912 10.9546C12.7778 10.9239 12.773 10.8913 12.7768 10.8567C12.7845 10.8203 12.7979 10.7742 12.8171 10.7185C12.7931 10.7396 12.7682 10.7598 12.7423 10.779L12.6645 10.8438C12.3669 11.079 12.1351 11.1965 11.969 11.1965Z" fill="#333333"/>
<path opacity="0.25" d="M14.1663 11.0122C14.1404 11.0122 14.1188 11.0046 14.1015 10.9892C14.067 10.9614 14.0574 10.9258 14.0727 10.8826L14.0958 10.8049L14.1533 10.6379L14.1821 10.5428L14.2052 10.4694L14.0497 10.527L13.8625 10.599L13.6609 10.6724L13.4608 10.7473C13.4377 10.7559 13.4142 10.755 13.3902 10.7444C13.3643 10.731 13.3461 10.7118 13.3355 10.6868C13.3259 10.6628 13.3278 10.6388 13.3413 10.6148C13.3528 10.5889 13.3715 10.5707 13.3974 10.5601L13.6969 10.4492L13.9849 10.3427L14.1994 10.2621L14.2858 10.2289L14.3146 10.2261C14.3261 10.2241 14.3372 10.2251 14.3477 10.2289C14.3775 10.2337 14.3991 10.251 14.4125 10.2808C14.4231 10.2981 14.4274 10.3211 14.4255 10.3499C14.4255 10.3758 14.4202 10.4132 14.4096 10.4622C14.4029 10.491 14.3943 10.5222 14.3837 10.5558L14.3477 10.6695L14.342 10.6926L14.3348 10.7142C14.4212 10.6671 14.5268 10.6177 14.6515 10.5659C14.6755 10.5553 14.6995 10.5553 14.7235 10.5659C14.7466 10.5755 14.7639 10.5918 14.7754 10.6148C14.7879 10.6379 14.7888 10.6623 14.7783 10.6883C14.7677 10.7142 14.7504 10.7329 14.7264 10.7444C14.6525 10.7761 14.5844 10.8073 14.522 10.838C14.4596 10.8678 14.4058 10.8946 14.3607 10.9186L14.2153 10.9964C14.2018 11.007 14.1855 11.0122 14.1663 11.0122Z" fill="#333333"/>
<path opacity="0.25" d="M15.8222 10.9806C15.8068 10.9806 15.7924 10.9782 15.779 10.9734C15.7387 10.9647 15.7099 10.9398 15.6926 10.8985C15.6801 10.862 15.6835 10.8212 15.7027 10.7761C15.7219 10.731 15.7497 10.6801 15.7862 10.6235C15.7996 10.6043 15.8116 10.5851 15.8222 10.5659L15.8538 10.5083C15.8606 10.4987 15.8663 10.4876 15.8711 10.4752C15.8059 10.4646 15.73 10.4627 15.6436 10.4694C15.5601 10.4732 15.4656 10.4891 15.36 10.5169C15.264 10.5409 15.1632 10.5726 15.0576 10.6119C14.952 10.6484 14.8402 10.6926 14.7221 10.7444C14.6981 10.754 14.6741 10.755 14.6501 10.7473C14.6271 10.7367 14.6103 10.7195 14.5997 10.6955C14.5863 10.6715 14.5853 10.6465 14.5968 10.6206C14.6064 10.5947 14.6237 10.5764 14.6487 10.5659C14.7715 10.5121 14.8867 10.4656 14.9942 10.4262C15.1046 10.3859 15.2102 10.3537 15.311 10.3297C15.576 10.2625 15.7929 10.252 15.9618 10.2981C16.0108 10.3105 16.0454 10.3408 16.0655 10.3888C16.0847 10.4377 16.0799 10.4915 16.0511 10.55C16.0233 10.6057 15.9897 10.6647 15.9503 10.7271L15.9388 10.7444L15.9287 10.766C15.9786 10.7564 16.0506 10.7348 16.1447 10.7012C16.2426 10.6695 16.3775 10.6225 16.5493 10.5601C16.5733 10.5505 16.5973 10.5524 16.6213 10.5659C16.6472 10.5764 16.6645 10.5947 16.6731 10.6206C16.6837 10.6446 16.6837 10.6695 16.6731 10.6955C16.6626 10.7195 16.6434 10.7367 16.6155 10.7473L16.342 10.8409L16.1231 10.9129L15.9215 10.9676C15.8793 10.9762 15.8462 10.9806 15.8222 10.9806Z" fill="#333333"/>
<path opacity="0.25" d="M17.3312 11.0122C17.3053 11.0122 17.2837 11.0046 17.2664 10.9892C17.2318 10.9614 17.2222 10.9258 17.2376 10.8826L17.2606 10.8049L17.3182 10.6379L17.347 10.5428L17.3701 10.4694L17.2145 10.527L17.0274 10.599L16.8258 10.6724L16.6256 10.7473C16.6026 10.7559 16.5786 10.755 16.5536 10.7444C16.5287 10.731 16.5109 10.7118 16.5004 10.6868C16.4908 10.6628 16.4927 10.6388 16.5061 10.6148C16.5167 10.5889 16.5349 10.5707 16.5608 10.5601L16.8632 10.4492L17.1512 10.3427L17.3629 10.2621L17.4507 10.2289L17.4795 10.2261C17.491 10.2241 17.502 10.2251 17.5126 10.2289C17.5424 10.2337 17.564 10.251 17.5774 10.2808C17.588 10.2981 17.5923 10.3211 17.5904 10.3499C17.5904 10.3758 17.5846 10.4132 17.5731 10.4622C17.5673 10.491 17.5592 10.5222 17.5486 10.5558L17.5126 10.6695L17.5054 10.6926L17.4996 10.7142C17.586 10.6671 17.6916 10.6177 17.8164 10.5659C17.8404 10.5553 17.8644 10.5553 17.8884 10.5659C17.9114 10.5755 17.9282 10.5918 17.9388 10.6148C17.9522 10.6379 17.9537 10.6623 17.9431 10.6883C17.9316 10.7142 17.9143 10.7329 17.8913 10.7444C17.8174 10.7761 17.7492 10.8073 17.6868 10.838C17.6244 10.8678 17.5707 10.8946 17.5256 10.9186L17.3801 10.9964C17.3667 11.007 17.3504 11.0122 17.3312 11.0122Z" fill="#333333"/>
<path opacity="0.25" d="M18.5882 11.0122C18.5623 11.0122 18.5407 11.0046 18.5234 10.9892C18.4888 10.9614 18.4792 10.9258 18.4946 10.8826L18.5176 10.8049L18.5752 10.6379L18.604 10.5428L18.6271 10.4694L18.4716 10.527L18.2844 10.599L18.0828 10.6724L17.8827 10.7473C17.8596 10.7559 17.8356 10.755 17.8107 10.7444C17.7857 10.731 17.7679 10.7118 17.7574 10.6868C17.7478 10.6628 17.7497 10.6388 17.7631 10.6148C17.7737 10.5889 17.7919 10.5707 17.8179 10.5601L18.1202 10.4492L18.4082 10.3427L18.6199 10.2621L18.7077 10.2289L18.7365 10.2261C18.748 10.2241 18.7591 10.2251 18.7696 10.2289C18.7994 10.2337 18.821 10.251 18.8344 10.2808C18.845 10.2981 18.8493 10.3211 18.8474 10.3499C18.8474 10.3758 18.8416 10.4132 18.8301 10.4622C18.8243 10.491 18.8162 10.5222 18.8056 10.5558L18.7696 10.6695L18.7624 10.6926L18.7567 10.7142C18.8431 10.6671 18.9486 10.6177 19.0734 10.5659C19.0974 10.5553 19.1214 10.5553 19.1454 10.5659C19.1685 10.5755 19.1853 10.5918 19.1958 10.6148C19.2093 10.6379 19.2107 10.6623 19.2001 10.6883C19.1886 10.7142 19.1713 10.7329 19.1483 10.7444C19.0744 10.7761 19.0062 10.8073 18.9438 10.838C18.8814 10.8678 18.8277 10.8946 18.7826 10.9186L18.6372 10.9964C18.6237 11.007 18.6074 11.0122 18.5882 11.0122Z" fill="#333333"/>
<path opacity="0.25" d="M7.62491 14.0864C7.60763 14.0864 7.59131 14.0854 7.57595 14.0835L7.53276 14.0749C7.49436 14.0634 7.46796 14.0403 7.45356 14.0058C7.43437 13.9626 7.43437 13.9112 7.45356 13.8517C7.47468 13.7883 7.50924 13.7082 7.55724 13.6112L7.58315 13.5536C7.59179 13.5316 7.60139 13.5109 7.61195 13.4917C7.58315 13.5023 7.55292 13.5205 7.52124 13.5464L7.42765 13.6213C7.40557 13.6386 7.38157 13.6453 7.35565 13.6415C7.32781 13.6367 7.30526 13.6247 7.28798 13.6055C7.2707 13.5834 7.26446 13.5594 7.26926 13.5335C7.2731 13.5076 7.28462 13.485 7.30382 13.4658C7.33453 13.4447 7.36621 13.4207 7.39885 13.3938C7.43149 13.3669 7.46556 13.3458 7.50108 13.3305C7.59035 13.2853 7.67147 13.2733 7.74442 13.2945C7.77898 13.3012 7.8049 13.3228 7.82218 13.3593C7.83945 13.3957 7.83849 13.4389 7.8193 13.4888C7.80202 13.5388 7.77178 13.6088 7.72858 13.6991C7.71802 13.725 7.70602 13.7509 7.69259 13.7768L7.66091 13.8517L7.65083 13.8733L7.64363 13.8934C7.66571 13.8915 7.69307 13.8848 7.7257 13.8733C7.7593 13.8637 7.7977 13.8479 7.84089 13.8258C7.88697 13.8018 7.93881 13.7701 7.9964 13.7307C8.054 13.6923 8.12119 13.6443 8.19799 13.5868L8.36213 13.4471C8.41397 13.402 8.45908 13.3607 8.49748 13.3233C8.53588 13.2858 8.56756 13.2561 8.59251 13.234C8.61747 13.2119 8.62899 13.1999 8.62707 13.198C8.65299 13.1673 8.68419 13.1577 8.72066 13.1692C8.73794 13.173 8.75234 13.1802 8.76386 13.1908L8.78978 13.2239C8.80418 13.2537 8.80514 13.2892 8.79266 13.3305C8.77922 13.3717 8.75522 13.4351 8.72066 13.5205L8.68179 13.6055C8.67219 13.6333 8.66163 13.6592 8.65011 13.6832C8.64819 13.6938 8.64483 13.7053 8.64003 13.7178C8.67075 13.7139 8.70338 13.7024 8.73794 13.6832C8.7725 13.664 8.80706 13.6424 8.84161 13.6184C8.87521 13.5944 8.90737 13.5695 8.93809 13.5436L9.01872 13.4716C9.0408 13.4524 9.0648 13.4442 9.09071 13.4471C9.11567 13.449 9.13823 13.4596 9.15839 13.4788C9.17567 13.5008 9.18287 13.5248 9.17999 13.5508C9.17999 13.5767 9.16943 13.5992 9.14831 13.6184C9.09839 13.6635 9.04752 13.7067 8.99568 13.748C8.94385 13.7864 8.89105 13.821 8.83729 13.8517C8.78546 13.8795 8.73266 13.8997 8.67891 13.9122C8.62515 13.9227 8.57236 13.9218 8.52052 13.9093C8.48596 13.8968 8.461 13.8752 8.44565 13.8445C8.43317 13.8147 8.42885 13.7826 8.43269 13.748C8.43941 13.7115 8.45236 13.665 8.47156 13.6083C8.44852 13.6304 8.42405 13.6511 8.39813 13.6703L8.32037 13.7351C8.0228 13.9702 7.79098 14.0864 7.62491 14.0864Z" fill="#333333"/>
<path opacity="0.25" d="M9.34269 14.0864C9.32541 14.0864 9.3091 14.0854 9.29374 14.0835L9.25198 14.0749C9.21358 14.0634 9.18671 14.0403 9.17135 14.0058C9.15215 13.9626 9.15215 13.9112 9.17135 13.8517C9.19343 13.7883 9.22798 13.7082 9.27502 13.6112L9.30094 13.5536C9.30958 13.5316 9.31918 13.5109 9.32973 13.4917C9.3019 13.5023 9.27166 13.5205 9.23902 13.5464L9.14543 13.6213C9.12431 13.6386 9.10031 13.6453 9.07344 13.6415C9.04656 13.6367 9.02448 13.6247 9.0072 13.6055C8.98992 13.5834 8.9832 13.5594 8.98704 13.5335C8.99184 13.5076 9.00384 13.485 9.02304 13.4658C9.0528 13.4447 9.08399 13.4207 9.11663 13.3938C9.14927 13.3669 9.18383 13.3458 9.2203 13.3305C9.30862 13.2853 9.38925 13.2733 9.4622 13.2945C9.49676 13.3012 9.52268 13.3228 9.53996 13.3593C9.55724 13.3957 9.55628 13.4389 9.53708 13.4888C9.5198 13.5388 9.48956 13.6088 9.44637 13.6991C9.43581 13.725 9.42381 13.7509 9.41037 13.7768C9.40077 13.8027 9.39021 13.8277 9.37869 13.8517L9.36861 13.8733L9.36285 13.8934C9.38397 13.8915 9.41085 13.8848 9.44349 13.8733C9.47804 13.8637 9.51644 13.8479 9.55868 13.8258C9.60475 13.8018 9.65707 13.7701 9.71562 13.7307C9.77322 13.6923 9.83993 13.6443 9.91577 13.5868L10.0799 13.4471C10.1318 13.402 10.1773 13.3607 10.2167 13.3233L10.3103 13.234L10.3463 13.198C10.3722 13.1673 10.4034 13.1577 10.4399 13.1692C10.4572 13.173 10.4711 13.1802 10.4816 13.1908C10.4922 13.2023 10.5008 13.2133 10.5076 13.2239C10.5229 13.2537 10.5239 13.2892 10.5104 13.3305C10.498 13.3717 10.474 13.4351 10.4384 13.5205L10.401 13.6055C10.3904 13.6333 10.3794 13.6592 10.3679 13.6832L10.3593 13.7178C10.389 13.7139 10.4212 13.7024 10.4557 13.6832C10.4903 13.664 10.5248 13.6424 10.5594 13.6184C10.594 13.5944 10.6261 13.5695 10.6559 13.5436L10.7365 13.4716C10.7586 13.4524 10.7826 13.4442 10.8085 13.4471C10.8344 13.449 10.857 13.4596 10.8762 13.4788C10.8934 13.5008 10.9011 13.5248 10.8992 13.5508C10.8992 13.5767 10.8882 13.5992 10.8661 13.6184C10.8171 13.6635 10.7667 13.7067 10.7149 13.748C10.6631 13.7864 10.6103 13.821 10.5565 13.8517C10.5047 13.8795 10.4519 13.8997 10.3981 13.9122C10.3434 13.9227 10.2906 13.9218 10.2397 13.9093C10.2052 13.8968 10.1802 13.8752 10.1649 13.8445C10.1514 13.8147 10.1466 13.7826 10.1505 13.748C10.1581 13.7115 10.1716 13.665 10.1908 13.6083C10.1668 13.6304 10.1418 13.6511 10.1159 13.6703L10.0382 13.7351C9.74058 13.9702 9.50876 14.0864 9.34269 14.0864Z" fill="#333333"/>
<path opacity="0.25" d="M11.9374 13.8704C11.923 13.8704 11.909 13.8685 11.8956 13.8646C11.8553 13.8551 11.8265 13.8301 11.8092 13.7898C11.7958 13.7533 11.7987 13.712 11.8179 13.6659C11.8371 13.6208 11.8654 13.5704 11.9028 13.5148L11.9374 13.4572L11.9705 13.3981C11.9772 13.3895 11.9825 13.3789 11.9863 13.3665C11.922 13.3549 11.8467 13.3525 11.7603 13.3593C11.6758 13.3641 11.5808 13.3804 11.4752 13.4082C11.3801 13.4312 11.2798 13.4624 11.1742 13.5018C11.0686 13.5383 10.9568 13.5824 10.8387 13.6343C10.8147 13.6448 10.7907 13.6458 10.7667 13.6371C10.7427 13.6266 10.7255 13.6093 10.7149 13.5853C10.7024 13.5623 10.7015 13.5378 10.712 13.5119C10.7226 13.486 10.7399 13.4672 10.7639 13.4557C10.8867 13.402 11.0019 13.3559 11.1094 13.3175C11.2198 13.2762 11.3254 13.2436 11.4262 13.2196C11.6921 13.1524 11.909 13.1418 12.077 13.1879C12.127 13.2004 12.1615 13.2306 12.1807 13.2786C12.1999 13.3285 12.1951 13.3823 12.1663 13.4399C12.1394 13.4965 12.1063 13.556 12.067 13.6184L12.054 13.6328L12.0454 13.6573C12.0943 13.6458 12.1663 13.6242 12.2613 13.5925C12.3583 13.5599 12.4927 13.5119 12.6645 13.4485C12.6895 13.4408 12.7135 13.4432 12.7365 13.4557C12.7624 13.4672 12.7797 13.486 12.7883 13.5119C12.7989 13.5349 12.7989 13.5594 12.7883 13.5853C12.7778 13.6093 12.7586 13.6266 12.7307 13.6371L12.4586 13.7307C12.377 13.7595 12.3036 13.7835 12.2383 13.8027C12.15 13.8287 12.0833 13.8469 12.0382 13.8575C11.995 13.8661 11.9614 13.8704 11.9374 13.8704Z" fill="#333333"/>
<path opacity="0.25" d="M13.1411 13.8056C13.1296 13.8056 13.121 13.8047 13.1152 13.8027C13.0806 13.7931 13.0557 13.7802 13.0403 13.7639C13.0278 13.7447 13.0192 13.7293 13.0144 13.7178C12.9971 13.6707 13.0019 13.6227 13.0288 13.5738C13.0557 13.521 13.0898 13.4668 13.131 13.4111L13.167 13.3564L13.1987 13.3017L13.2088 13.2873L13.1598 13.3074C13.1425 13.317 13.1219 13.33 13.0979 13.3463C13.0595 13.3703 13.0187 13.4015 12.9755 13.4399C12.9323 13.4764 12.8882 13.5152 12.8431 13.5565L12.8071 13.5896L12.7754 13.6184C12.7562 13.6357 12.7336 13.6443 12.7077 13.6443C12.6789 13.6424 12.6559 13.6304 12.6386 13.6083C12.6194 13.5891 12.6112 13.5666 12.6141 13.5407C12.616 13.5119 12.6266 13.4893 12.6458 13.473C12.6563 13.4615 12.6683 13.4519 12.6818 13.4442C12.6914 13.4327 12.7019 13.4216 12.7135 13.4111C12.7653 13.3631 12.8162 13.3189 12.8661 13.2786C12.9179 13.2354 12.9674 13.1985 13.0144 13.1677C13.0643 13.138 13.1128 13.1169 13.1598 13.1044C13.2097 13.089 13.2573 13.0876 13.3024 13.1001C13.3389 13.1116 13.3648 13.1269 13.3801 13.1461C13.3955 13.1653 13.4051 13.1826 13.4089 13.198C13.4281 13.2469 13.4238 13.2973 13.396 13.3492C13.3672 13.401 13.3317 13.4586 13.2894 13.522L13.2736 13.5436L13.2577 13.5695L13.3801 13.5248C13.432 13.5056 13.4953 13.4807 13.5702 13.45C13.599 13.4413 13.6249 13.4432 13.6479 13.4557C13.6719 13.4672 13.6883 13.486 13.6969 13.5119C13.7075 13.5349 13.7065 13.5594 13.694 13.5853C13.6835 13.6093 13.6662 13.6266 13.6422 13.6371L13.455 13.7019L13.311 13.7538C13.2899 13.7634 13.2707 13.7711 13.2534 13.7768L13.2117 13.7898C13.1944 13.7936 13.1805 13.7979 13.1699 13.8027C13.1613 13.8047 13.1517 13.8056 13.1411 13.8056Z" fill="#333333"/>
<path opacity="0.25" d="M14.031 13.8056C14.0214 13.8056 14.0127 13.8047 14.005 13.8027C13.9705 13.7931 13.946 13.7802 13.9316 13.7639C13.9182 13.7447 13.9095 13.7293 13.9057 13.7178C13.8884 13.6707 13.8927 13.6227 13.9186 13.5738C13.9465 13.521 13.981 13.4668 14.0223 13.4111C14.0348 13.3938 14.0463 13.3756 14.0569 13.3564C14.0674 13.3372 14.0785 13.3189 14.09 13.3017L14.0986 13.2873L14.0511 13.3074C14.0338 13.317 14.0132 13.33 13.9892 13.3463C13.9508 13.3703 13.91 13.4015 13.8668 13.4399C13.8236 13.4764 13.7795 13.5152 13.7343 13.5565L13.6983 13.5896L13.6652 13.6184C13.646 13.6357 13.6235 13.6443 13.5976 13.6443C13.5697 13.6424 13.5472 13.6304 13.5299 13.6083C13.5107 13.5891 13.502 13.5666 13.504 13.5407C13.5059 13.5119 13.5169 13.4893 13.5371 13.473C13.5467 13.4615 13.5582 13.4519 13.5716 13.4442L13.6048 13.4111C13.6566 13.3631 13.707 13.3189 13.7559 13.2786C13.8078 13.2354 13.8577 13.1985 13.9057 13.1677C13.9546 13.138 14.0026 13.1169 14.0497 13.1044C14.0996 13.089 14.1476 13.0876 14.1937 13.1001C14.2301 13.1116 14.2561 13.1269 14.2714 13.1461C14.2868 13.1653 14.2964 13.1826 14.3002 13.198C14.3194 13.2469 14.3146 13.2973 14.2858 13.3492C14.2589 13.401 14.2239 13.4586 14.1807 13.522C14.1759 13.5258 14.1701 13.533 14.1634 13.5436C14.1596 13.5532 14.1548 13.5618 14.149 13.5695L14.2714 13.5248L14.4615 13.45C14.4903 13.4413 14.5162 13.4432 14.5392 13.4557C14.5632 13.4672 14.5796 13.486 14.5882 13.5119C14.5978 13.5349 14.5964 13.5594 14.5839 13.5853C14.5743 13.6093 14.5575 13.6266 14.5335 13.6371L14.3463 13.7019C14.2887 13.7211 14.2407 13.7384 14.2023 13.7538C14.1812 13.7634 14.162 13.7711 14.1447 13.7768L14.1015 13.7898C14.0852 13.7936 14.0718 13.7979 14.0612 13.8027L14.0324 13.8056H14.031Z" fill="#333333"/>
<path opacity="0.25" d="M15.2289 13.9021C15.203 13.9021 15.1814 13.8949 15.1641 13.8805C15.1296 13.8517 15.12 13.8162 15.1353 13.7739L15.1584 13.6962L15.216 13.5277L15.2448 13.4341L15.2678 13.3592L15.1123 13.4168L14.9251 13.4888L14.7235 13.5637L14.5234 13.6371C14.5004 13.6467 14.4764 13.6458 14.4514 13.6343C14.4264 13.6218 14.4087 13.6026 14.3981 13.5767C14.3885 13.5527 14.3904 13.5287 14.4039 13.5047C14.4144 13.4788 14.4327 13.4605 14.4586 13.45L14.761 13.3405C14.8666 13.3021 14.9626 13.2661 15.049 13.2325C15.1353 13.2009 15.2059 13.174 15.2606 13.1519L15.3485 13.1202L15.3773 13.1173C15.3888 13.1145 15.3998 13.1154 15.4104 13.1202C15.4401 13.1241 15.4617 13.1413 15.4752 13.1721C15.4857 13.1893 15.49 13.2119 15.4881 13.2397C15.4881 13.2657 15.4824 13.3036 15.4708 13.3535C15.4651 13.3813 15.4569 13.4125 15.4464 13.4471L15.4104 13.5594C15.4084 13.569 15.406 13.5767 15.4032 13.5824L15.3974 13.6055C15.4838 13.5575 15.5894 13.5076 15.7142 13.4557C15.7382 13.4461 15.7622 13.4461 15.7862 13.4557C15.8092 13.4653 15.826 13.4816 15.8366 13.5047C15.85 13.5287 15.8515 13.5536 15.8409 13.5796C15.8294 13.6055 15.8121 13.6237 15.7891 13.6343C15.7151 13.6669 15.647 13.6981 15.5846 13.7279L15.4233 13.8085L15.2779 13.8862C15.2645 13.8968 15.2481 13.9021 15.2289 13.9021ZM17.5817 14.0864C17.5644 14.0864 17.5481 14.0854 17.5328 14.0835L17.491 14.0749C17.4526 14.0634 17.4257 14.0403 17.4104 14.0058C17.3912 13.9626 17.3912 13.9112 17.4104 13.8517C17.4315 13.7883 17.466 13.7082 17.514 13.6112L17.54 13.5536C17.5486 13.5316 17.5582 13.5109 17.5688 13.4917C17.54 13.5023 17.5097 13.5205 17.478 13.5464L17.3844 13.6213C17.3633 13.6386 17.3393 13.6453 17.3125 13.6415C17.2846 13.6367 17.2621 13.6247 17.2448 13.6055C17.2275 13.5834 17.2213 13.5594 17.2261 13.5335C17.2299 13.5076 17.2419 13.485 17.2621 13.4658C17.2918 13.4447 17.323 13.4207 17.3557 13.3938C17.3883 13.3669 17.4228 13.3458 17.4593 13.3305C17.5476 13.2853 17.6283 13.2733 17.7012 13.2945C17.7358 13.3012 17.7617 13.3228 17.779 13.3592C17.7963 13.3957 17.7953 13.4389 17.7761 13.4888C17.7588 13.5388 17.7286 13.6088 17.6854 13.6991C17.6748 13.725 17.6628 13.7509 17.6494 13.7768L17.6177 13.8517L17.6076 13.8733L17.6019 13.8934C17.623 13.8915 17.6499 13.8848 17.6825 13.8733C17.7171 13.8637 17.7555 13.8478 17.7977 13.8258C17.8438 13.8018 17.8956 13.7701 17.9532 13.7307C18.0108 13.6914 18.078 13.6434 18.1548 13.5868L18.3189 13.4471C18.3708 13.402 18.4164 13.3607 18.4557 13.3233L18.5493 13.234L18.5839 13.198C18.6098 13.1673 18.6415 13.1577 18.6789 13.1692C18.6962 13.173 18.7101 13.1802 18.7207 13.1908C18.7312 13.2023 18.7399 13.2133 18.7466 13.2239C18.761 13.2537 18.7619 13.2892 18.7495 13.3305C18.736 13.3717 18.712 13.4351 18.6775 13.5205L18.64 13.6055L18.6069 13.6832C18.605 13.6938 18.6016 13.7053 18.5968 13.7178C18.6276 13.7139 18.6602 13.7024 18.6947 13.6832C18.7293 13.664 18.7639 13.6424 18.7984 13.6184C18.833 13.5944 18.8651 13.5695 18.8949 13.5436L18.9755 13.4716C18.9976 13.4524 19.0216 13.4442 19.0475 13.4471C19.0734 13.449 19.096 13.4596 19.1152 13.4788C19.1325 13.5008 19.1401 13.5248 19.1382 13.5508C19.1382 13.5767 19.1272 13.5992 19.1051 13.6184C19.0552 13.6635 19.0048 13.7067 18.9539 13.748C18.9021 13.7864 18.8493 13.821 18.7955 13.8517C18.7437 13.8795 18.6909 13.8997 18.6371 13.9122C18.5824 13.9227 18.5296 13.9218 18.4788 13.9093C18.4432 13.8968 18.4183 13.8752 18.4039 13.8445C18.3904 13.8147 18.3856 13.7826 18.3895 13.748C18.3962 13.7115 18.4096 13.665 18.4298 13.6083C18.4058 13.6304 18.3808 13.6511 18.3549 13.6703L18.2772 13.7351C17.9796 13.9702 17.7478 14.0864 17.5817 14.0864Z" fill="#333333"/>
<path opacity="0.25" d="M19.4478 14.0936L19.4161 14.0907L19.3801 14.0878C19.3542 14.0782 19.3326 14.0595 19.3153 14.0317C19.3086 14.0192 19.3038 14.0043 19.3009 13.987C19.3 13.9678 19.3024 13.94 19.3081 13.9035L19.347 13.7538L19.4248 13.5047C19.3758 13.522 19.3211 13.5426 19.2606 13.5666C19.2001 13.5906 19.1378 13.6146 19.0734 13.6386C19.0494 13.6463 19.0254 13.6448 19.0014 13.6343C18.9755 13.6218 18.9573 13.6026 18.9467 13.5767C18.9371 13.5527 18.939 13.5287 18.9525 13.5047C18.964 13.4788 18.9822 13.4605 19.0072 13.45L19.2088 13.3751L19.3801 13.3146L19.4996 13.2685L19.5443 13.2498C19.5664 13.2402 19.587 13.2393 19.6062 13.2469C19.635 13.2527 19.6556 13.2685 19.6681 13.2945C19.6787 13.3137 19.6815 13.3309 19.6767 13.3463L19.6681 13.3952C19.6633 13.4039 19.6599 13.4135 19.658 13.424L19.6479 13.4572C19.6336 13.4936 19.6177 13.5388 19.6004 13.5925L19.5515 13.7509L19.5256 13.8287L19.5097 13.8862C19.55 13.8776 19.6091 13.8531 19.6868 13.8128C19.754 13.7763 19.8255 13.7341 19.9014 13.6861C19.9772 13.6381 20.0559 13.5863 20.1375 13.5306C20.1548 13.521 20.1716 13.5104 20.1879 13.4989C20.2052 13.4884 20.2225 13.4764 20.2397 13.4629C20.2637 13.4476 20.2887 13.4432 20.3146 13.45C20.3405 13.4548 20.3621 13.4692 20.3794 13.4932C20.3948 13.5162 20.3991 13.5407 20.3924 13.5666C20.3885 13.5906 20.3741 13.6098 20.3492 13.6242C20.3329 13.6376 20.3151 13.6506 20.2959 13.6631L20.2397 13.6991L20.0007 13.8546C19.9239 13.9045 19.8505 13.9477 19.7804 13.9842C19.6403 14.0571 19.5299 14.0936 19.4492 14.0936H19.4478Z" fill="#333333"/>
<path opacity="0.25" d="M7.89705 16.6364C7.88649 16.6364 7.87785 16.6355 7.87113 16.6335C7.83657 16.6239 7.81162 16.611 7.79626 16.5947C7.78378 16.5755 7.77514 16.5601 7.77034 16.5486C7.75306 16.5016 7.75786 16.4536 7.78474 16.4046C7.81162 16.3518 7.84569 16.2976 7.88697 16.2419C7.90041 16.2246 7.91241 16.2064 7.92297 16.1872C7.93353 16.168 7.94409 16.1497 7.95465 16.1325L7.96472 16.1181L7.91577 16.1382C7.89849 16.1478 7.87833 16.1608 7.85529 16.1771C7.8169 16.2011 7.77562 16.2323 7.73146 16.2707C7.68827 16.3072 7.64411 16.346 7.59899 16.3873L7.563 16.4204L7.53132 16.4492C7.51212 16.4665 7.48956 16.4752 7.46364 16.4752C7.43485 16.4732 7.41229 16.4612 7.39597 16.4392C7.37677 16.42 7.36813 16.3974 7.37005 16.3715C7.37197 16.3427 7.38253 16.3201 7.40173 16.3038C7.41229 16.2923 7.42429 16.2827 7.43773 16.275L7.4694 16.2419C7.52124 16.1939 7.57212 16.1497 7.62203 16.1094C7.67387 16.0662 7.7233 16.0293 7.77034 15.9986C7.82026 15.9688 7.86873 15.9477 7.91577 15.9352C7.96568 15.9198 8.01368 15.9184 8.05976 15.9309C8.09527 15.9424 8.12071 15.9578 8.13607 15.977C8.15143 15.9962 8.16103 16.0134 8.16487 16.0288C8.18407 16.0778 8.17975 16.1281 8.15191 16.18C8.12407 16.2318 8.08855 16.2894 8.04536 16.3528L8.02952 16.3744L8.01368 16.4003L8.13607 16.3556C8.18791 16.3364 8.25174 16.3115 8.32758 16.2808C8.35541 16.2721 8.38133 16.2741 8.40533 16.2865C8.42837 16.2981 8.44421 16.3168 8.45284 16.3427C8.4634 16.3657 8.46244 16.3902 8.44997 16.4161C8.43941 16.4401 8.42213 16.4574 8.39813 16.468L8.21094 16.5328C8.15527 16.552 8.10775 16.5692 8.0684 16.5846C8.04728 16.5942 8.02808 16.6019 8.0108 16.6076L7.9676 16.6206C7.95033 16.6244 7.93641 16.6287 7.92585 16.6335C7.91721 16.6355 7.90761 16.6364 7.89705 16.6364Z" fill="#333333"/>
<path opacity="0.25" d="M8.61699 16.9172C8.59971 16.9172 8.5834 16.9162 8.56804 16.9143C8.5546 16.9124 8.5402 16.909 8.52484 16.9042C8.48644 16.8937 8.45956 16.8711 8.44421 16.8366C8.42501 16.7934 8.42501 16.7415 8.44421 16.6811C8.46628 16.6187 8.50084 16.539 8.54788 16.442C8.55748 16.4248 8.56612 16.4056 8.5738 16.3844L8.60259 16.3225C8.57476 16.3331 8.545 16.3513 8.51332 16.3772L8.41829 16.4521C8.39717 16.4694 8.37365 16.4756 8.34773 16.4708C8.31894 16.467 8.29638 16.455 8.28006 16.4348C8.26278 16.4137 8.25606 16.3897 8.2599 16.3628C8.2647 16.3379 8.2767 16.3158 8.2959 16.2966C8.32662 16.2745 8.35781 16.2505 8.38949 16.2246C8.42117 16.1987 8.45573 16.1771 8.49316 16.1598C8.58148 16.1147 8.66259 16.1032 8.7365 16.1253C8.77106 16.131 8.79698 16.1526 8.81426 16.1901C8.83154 16.2265 8.83009 16.2697 8.80994 16.3197C8.79266 16.3686 8.76242 16.4387 8.71922 16.5299C8.70962 16.5548 8.69811 16.5803 8.68467 16.6062L8.65155 16.6811L8.64291 16.7041L8.63571 16.7228C8.65779 16.7209 8.68467 16.7147 8.71634 16.7041C8.7509 16.6935 8.78978 16.6772 8.83298 16.6551C8.87809 16.6311 8.92993 16.6 8.98848 16.5616C9.04608 16.5232 9.11327 16.4747 9.19007 16.4161L9.35421 16.2765C9.40605 16.2313 9.45117 16.1905 9.48956 16.1541C9.52796 16.1176 9.55916 16.0874 9.58315 16.0634C9.60715 16.0394 9.61915 16.0274 9.61915 16.0274C9.64507 15.9976 9.67627 15.988 9.71274 15.9986C9.73002 16.0034 9.74442 16.011 9.75594 16.0216C9.76554 16.0322 9.7737 16.0427 9.78042 16.0533C9.79578 16.084 9.79674 16.1195 9.7833 16.1598C9.77082 16.2011 9.7473 16.2649 9.71274 16.3513L9.67387 16.4348C9.66331 16.4636 9.65275 16.4896 9.64219 16.5126L9.63211 16.5486C9.66187 16.5438 9.69403 16.5318 9.72858 16.5126C9.76314 16.4934 9.7977 16.4718 9.83225 16.4478C9.86681 16.4248 9.89945 16.4003 9.93017 16.3744C9.95992 16.3456 9.9868 16.3216 10.0108 16.3024C10.0319 16.2832 10.0559 16.2745 10.0828 16.2765C10.1078 16.2784 10.1298 16.2894 10.149 16.3096C10.1663 16.3307 10.174 16.3547 10.1721 16.3816C10.1721 16.4065 10.1615 16.4286 10.1404 16.4478C10.0905 16.4929 10.0396 16.5361 9.98776 16.5774C9.93593 16.6158 9.88313 16.6503 9.82938 16.6811C9.77754 16.7099 9.72474 16.7305 9.67099 16.743C9.61723 16.7535 9.56444 16.7526 9.5126 16.7401C9.47804 16.7267 9.45308 16.7051 9.43773 16.6753C9.42525 16.6446 9.42093 16.6119 9.42477 16.5774C9.43149 16.5409 9.44445 16.4948 9.46364 16.4392C9.43965 16.4603 9.41469 16.4804 9.38877 16.4996L9.31246 16.5644C9.01488 16.7996 8.78306 16.9172 8.61699 16.9172Z" fill="#333333"/>
<path opacity="0.25" d="M11.2117 16.7012C11.1963 16.7012 11.1819 16.6993 11.1685 16.6955C11.1282 16.6859 11.0994 16.6609 11.0821 16.6206C11.0686 16.5841 11.072 16.5428 11.0922 16.4968C11.1114 16.4516 11.1392 16.4012 11.1757 16.3456L11.2117 16.288L11.2433 16.2289C11.2501 16.2203 11.2553 16.2097 11.2592 16.1973C11.1949 16.1857 11.1195 16.1833 11.0331 16.1901C10.9496 16.1949 10.8546 16.2112 10.748 16.239C10.6539 16.2621 10.5541 16.2933 10.4485 16.3326C10.3429 16.3691 10.2306 16.4132 10.1116 16.4651C10.0876 16.4756 10.0636 16.4766 10.0396 16.468C10.0166 16.4574 9.99976 16.4401 9.9892 16.4161C9.97576 16.3931 9.97432 16.3686 9.98488 16.3427C9.9964 16.3168 10.0137 16.2981 10.0367 16.2865C10.1596 16.2328 10.2748 16.1867 10.3823 16.1483C10.4927 16.107 10.5983 16.0744 10.6991 16.0504C10.965 15.9832 11.1819 15.9726 11.3499 16.0187C11.3998 16.0312 11.4344 16.0614 11.4536 16.1094C11.4728 16.1593 11.4684 16.2131 11.4406 16.2707C11.4128 16.3273 11.3792 16.3868 11.3398 16.4492L11.3283 16.4622L11.3182 16.4867C11.3681 16.4752 11.4401 16.4536 11.5342 16.4219C11.6312 16.3892 11.766 16.3413 11.9388 16.2779C11.9628 16.2702 11.9868 16.2726 12.0108 16.2851C12.0367 16.2966 12.054 16.3153 12.0626 16.3413C12.0722 16.3643 12.0722 16.3888 12.0626 16.4147C12.0511 16.4387 12.0319 16.456 12.005 16.4665L11.7315 16.5601C11.6499 16.5889 11.5769 16.6129 11.5126 16.6321C11.4243 16.658 11.3571 16.6763 11.311 16.6868C11.2678 16.6955 11.2342 16.6998 11.2102 16.6998L11.2117 16.7012Z" fill="#333333"/>
<path opacity="0.25" d="M12.3909 16.9244L12.3593 16.9215L12.3233 16.9186C12.2973 16.909 12.2757 16.8903 12.2585 16.8625C12.2517 16.85 12.2474 16.8351 12.2455 16.8179C12.2436 16.7987 12.246 16.7708 12.2527 16.7343C12.2613 16.6969 12.2743 16.647 12.2916 16.5846L12.3679 16.3355C12.3189 16.3528 12.2642 16.3734 12.2037 16.3974C12.1433 16.4214 12.0809 16.4454 12.0166 16.4694C11.9926 16.4771 11.9686 16.4756 11.9446 16.4651C11.9186 16.4526 11.9004 16.4334 11.8898 16.4075C11.8812 16.3835 11.8831 16.3595 11.8956 16.3355C11.9071 16.3096 11.9258 16.2913 11.9518 16.2808L12.1519 16.2059L12.3233 16.1454L12.4428 16.0994L12.4888 16.0806C12.51 16.071 12.5301 16.0701 12.5493 16.0778C12.5781 16.0835 12.5988 16.0993 12.6112 16.1253C12.6218 16.1445 12.6251 16.1617 12.6213 16.1771L12.6112 16.2261C12.6064 16.2347 12.6031 16.2443 12.6012 16.2549L12.5925 16.288C12.5772 16.3245 12.5608 16.3696 12.5436 16.4233L12.4946 16.5817L12.4687 16.6595L12.4528 16.7171C12.4941 16.7084 12.5536 16.6839 12.6314 16.6436C12.6986 16.6071 12.7696 16.5649 12.8445 16.5169C12.9194 16.4689 12.9981 16.4171 13.0806 16.3614L13.1325 16.3297L13.1843 16.2937C13.2073 16.2784 13.2318 16.2741 13.2577 16.2808C13.2837 16.2856 13.3053 16.3 13.3225 16.324C13.3379 16.347 13.3427 16.3715 13.3369 16.3974C13.3321 16.4214 13.3177 16.4406 13.2937 16.455L13.239 16.4939L13.1843 16.5299L12.9438 16.6854C12.8671 16.7353 12.7941 16.7785 12.725 16.815C12.5848 16.8879 12.4735 16.9244 12.3909 16.9244Z" fill="#333333"/>
<path opacity="0.25" d="M13.5054 16.9172C13.4881 16.9172 13.4723 16.9162 13.4579 16.9143C13.4444 16.9124 13.43 16.909 13.4147 16.9042C13.3763 16.8937 13.3494 16.8711 13.3341 16.8366C13.3149 16.7934 13.3149 16.7415 13.3341 16.6811C13.3561 16.6187 13.3907 16.539 13.4377 16.442C13.4473 16.4248 13.456 16.4056 13.4636 16.3844L13.4924 16.3225C13.4646 16.3331 13.4348 16.3513 13.4032 16.3772L13.3081 16.4521C13.287 16.4694 13.2635 16.4756 13.2376 16.4708C13.2088 16.467 13.1862 16.455 13.1699 16.4348C13.1526 16.4137 13.1459 16.3897 13.1497 16.3628C13.1545 16.3379 13.1665 16.3158 13.1857 16.2966L13.2793 16.2246C13.312 16.1987 13.3465 16.1771 13.383 16.1598C13.4713 16.1147 13.5524 16.1032 13.6263 16.1253C13.6599 16.131 13.6854 16.1526 13.7027 16.1901C13.7199 16.2265 13.719 16.2697 13.6998 16.3197C13.6825 16.3686 13.6523 16.4387 13.6091 16.5299C13.5995 16.5548 13.588 16.5803 13.5745 16.6062L13.5414 16.6811L13.5313 16.7041L13.5256 16.7228C13.5467 16.7209 13.5736 16.7147 13.6062 16.7041C13.6407 16.6935 13.6796 16.6772 13.7228 16.6551C13.7679 16.6311 13.8198 16.6 13.8783 16.5616C13.9359 16.5232 14.0031 16.4747 14.0799 16.4161L14.2441 16.2765C14.2959 16.2313 14.341 16.1905 14.3794 16.1541C14.4178 16.1176 14.449 16.0874 14.473 16.0634C14.497 16.0394 14.509 16.0274 14.509 16.0274C14.5349 15.9976 14.5661 15.988 14.6026 15.9986C14.6199 16.0034 14.6343 16.011 14.6458 16.0216C14.6554 16.0322 14.6635 16.0427 14.6703 16.0533C14.6856 16.084 14.6866 16.1195 14.6731 16.1598C14.6607 16.2011 14.6371 16.2649 14.6026 16.3513L14.5637 16.4348C14.5532 16.4636 14.5426 16.4896 14.532 16.5126L14.522 16.5486C14.5517 16.5438 14.5839 16.5318 14.6184 16.5126C14.653 16.4934 14.6875 16.4718 14.7221 16.4478C14.7567 16.4238 14.7893 16.3993 14.82 16.3744C14.8498 16.3456 14.8766 16.3216 14.9006 16.3024C14.9218 16.2832 14.9458 16.2745 14.9726 16.2765C14.9976 16.2784 15.0197 16.2894 15.0389 16.3096C15.0562 16.3307 15.0638 16.3547 15.0619 16.3816C15.0619 16.4065 15.0514 16.4286 15.0302 16.4478C14.9803 16.4929 14.9294 16.5361 14.8776 16.5774C14.8258 16.6158 14.773 16.6503 14.7192 16.6811C14.6674 16.7099 14.6146 16.7305 14.5608 16.743C14.5071 16.7535 14.4543 16.7526 14.4024 16.7401C14.3679 16.7267 14.3429 16.7051 14.3276 16.6753C14.3151 16.6446 14.3108 16.6119 14.3146 16.5774C14.3213 16.5409 14.3343 16.4948 14.3535 16.4392C14.3295 16.4603 14.3045 16.4804 14.2786 16.4996L14.2009 16.5644C13.9033 16.7996 13.6715 16.9172 13.5054 16.9172Z" fill="#333333"/>
<path opacity="0.25" d="M15.3729 16.9244L15.3413 16.9215L15.3053 16.9186C15.2793 16.909 15.2577 16.8903 15.2405 16.8625C15.2337 16.85 15.2289 16.8351 15.2261 16.8179C15.2251 16.7987 15.2275 16.7708 15.2333 16.7343L15.2721 16.5846L15.3499 16.3355C15.3009 16.3528 15.2462 16.3734 15.1857 16.3974C15.1253 16.4214 15.0629 16.4454 14.9986 16.4694C14.9746 16.4771 14.9506 16.4756 14.9266 16.4651C14.9006 16.4526 14.8824 16.4334 14.8719 16.4075C14.8623 16.3835 14.8642 16.3595 14.8776 16.3355C14.8891 16.3096 14.9074 16.2913 14.9323 16.2808L15.1339 16.2059L15.3053 16.1454L15.4248 16.0994L15.4694 16.0806C15.4915 16.071 15.5121 16.0701 15.5313 16.0778C15.5601 16.0835 15.5808 16.0993 15.5932 16.1253C15.6038 16.1445 15.6067 16.1617 15.6019 16.1771L15.5932 16.2261C15.5884 16.2347 15.5851 16.2443 15.5832 16.2549L15.5731 16.288C15.5587 16.3245 15.5428 16.3696 15.5256 16.4233L15.4766 16.5817L15.4507 16.6595L15.4348 16.7171C15.4752 16.7084 15.5342 16.6839 15.612 16.6436C15.6791 16.6071 15.7507 16.5649 15.8265 16.5169C15.9014 16.4689 15.9801 16.4171 16.0626 16.3614C16.0799 16.3518 16.0967 16.3413 16.113 16.3297C16.1294 16.3182 16.1466 16.3062 16.1649 16.2937C16.1889 16.2784 16.2138 16.2741 16.2397 16.2808C16.2657 16.2856 16.2873 16.3 16.3045 16.324C16.3199 16.347 16.3242 16.3715 16.3175 16.3974C16.3137 16.4214 16.2993 16.4406 16.2743 16.455C16.258 16.4684 16.2402 16.4814 16.221 16.4939L16.1649 16.5299L15.9258 16.6854C15.8491 16.7353 15.7756 16.7785 15.7055 16.815C15.5654 16.8879 15.455 16.9244 15.3744 16.9244H15.3729Z" fill="#333333"/>
<path opacity="0.2" d="M5.56876 6.52412L4.51764 7.77682L3.94889 7.29878L3.56732 7.75378L4.59107 8.61339L6.02232 6.90713L5.56876 6.52412Z" fill="url(#paint1_linear_3_140)"/>
<path opacity="0.2" d="M5.56876 12.3297L4.51764 13.5824L3.94889 13.1044L3.56732 13.5594L4.59107 14.419L6.02232 12.7127L5.56876 12.3297Z" fill="url(#paint2_linear_3_140)"/>
<path opacity="0.2" d="M5.56876 15.2887L4.51764 16.54L3.94889 16.0634L3.56732 16.5169L4.59107 17.3765L6.02232 15.6703L5.56876 15.2887Z" fill="url(#paint3_linear_3_140)"/>
<path opacity="0.5" d="M16.4874 7.29158C16.4119 7.22769 16.3244 7.17941 16.2301 7.14952C16.1358 7.11963 16.0365 7.10872 15.938 7.11742C15.8395 7.12612 15.7436 7.15426 15.656 7.20022C15.5684 7.24618 15.4908 7.30904 15.4276 7.38517L10.5954 13.1447L8.29158 11.2109C8.21609 11.1474 8.12881 11.0993 8.03473 11.0696C7.94064 11.0398 7.84161 11.0289 7.7433 11.0374C7.64499 11.046 7.54933 11.0739 7.46181 11.1194C7.37429 11.165 7.29663 11.2274 7.23326 11.3031L6.2671 12.455C6.20314 12.5304 6.15475 12.6178 6.12474 12.7121C6.09473 12.8063 6.08369 12.9056 6.09226 13.0041C6.10083 13.1026 6.12884 13.1985 6.17466 13.2861C6.22049 13.3738 6.28323 13.4515 6.35925 13.5148L10.3909 16.897C10.7106 17.1649 11.1829 17.1231 11.4507 16.8035L17.7315 9.31749C17.7952 9.24209 17.8434 9.15483 17.8733 9.06072C17.9032 8.96661 17.9141 8.86753 17.9056 8.76916C17.897 8.6708 17.8691 8.5751 17.8234 8.48758C17.7777 8.40005 17.7151 8.32243 17.6393 8.25918L16.4874 7.29158Z" stroke="url(#paint4_linear_3_140)" stroke-width="0.37581" stroke-linecap="square" stroke-linejoin="round"/>
<path d="M16.4874 7.29158C16.4119 7.22769 16.3244 7.17941 16.2301 7.14952C16.1358 7.11963 16.0365 7.10872 15.938 7.11742C15.8395 7.12612 15.7436 7.15426 15.656 7.20022C15.5684 7.24618 15.4908 7.30904 15.4276 7.38517L10.5954 13.1447L8.29158 11.2109C8.21609 11.1474 8.12881 11.0993 8.03473 11.0696C7.94064 11.0398 7.84161 11.0289 7.7433 11.0374C7.64499 11.046 7.54933 11.0739 7.46181 11.1194C7.37429 11.165 7.29663 11.2274 7.23326 11.3031L6.2671 12.455C6.20314 12.5304 6.15475 12.6178 6.12474 12.7121C6.09473 12.8063 6.08369 12.9056 6.09226 13.0041C6.10083 13.1026 6.12884 13.1985 6.17466 13.2861C6.22049 13.3738 6.28323 13.4515 6.35925 13.5148L10.3909 16.897C10.4665 16.9609 10.5539 17.0092 10.6482 17.0391C10.7425 17.069 10.8418 17.0799 10.9403 17.0712C11.0389 17.0625 11.1347 17.0344 11.2223 16.9884C11.3099 16.9424 11.3875 16.8796 11.4507 16.8035L17.7315 9.31749C17.7952 9.24209 17.8434 9.15483 17.8733 9.06072C17.9032 8.96661 17.9141 8.86753 17.9056 8.76916C17.897 8.6708 17.8691 8.5751 17.8234 8.48758C17.7777 8.40005 17.7151 8.32243 17.6393 8.25918L16.4874 7.29158Z" fill="#1F9BFF"/>
<defs>
<radialGradient id="paint0_radial_3_140" cx="0" cy="0" r="1" gradientUnits="userSpaceOnUse" gradientTransform="translate(12 1) rotate(90) scale(22)">
<stop stop-color="#FAFAFA"/>
<stop offset="1" stop-color="#CCCCCC"/>
</radialGradient>
<linearGradient id="paint1_linear_3_140" x1="4.79696" y1="5.98474" x2="4.79696" y2="9.15225" gradientUnits="userSpaceOnUse">
<stop stop-color="#64BAFF"/>
<stop offset="1" stop-color="#0D52BF"/>
</linearGradient>
<linearGradient id="paint2_linear_3_140" x1="4.79696" y1="11.7918" x2="4.79696" y2="14.9593" gradientUnits="userSpaceOnUse">
<stop stop-color="#64BAFF"/>
<stop offset="1" stop-color="#0D52BF"/>
</linearGradient>
<linearGradient id="paint3_linear_3_140" x1="4.79696" y1="14.7479" x2="4.79696" y2="17.9154" gradientUnits="userSpaceOnUse">
<stop stop-color="#64BAFF"/>
<stop offset="1" stop-color="#0D52BF"/>
</linearGradient>
<linearGradient id="paint4_linear_3_140" x1="12.003" y1="18.2882" x2="12.0021" y2="12.0879" gradientUnits="userSpaceOnUse">
<stop stop-color="white"/>
<stop offset="1" stop-color="white" stop-opacity="0"/>
</linearGradient>
</defs>
</svg>
