<svg xmlns="http://www.w3.org/2000/svg" width="24" height="24" fill="none"><path fill="url(#a)" fill-rule="evenodd" d="M9.596 1.114c.12 0 .234-.014.344-.046a31.627 31.627 0 0 1 4.307.011c1.301.102 2.561.384 3.78.848 2.025.833 3.412 2.28 4.158 4.339.427 1.24.679 2.514.756 3.824a27.94 27.94 0 0 1-.114 4.923 11.88 11.88 0 0 1-.894 3.32c-.85 1.843-2.229 3.114-4.135 3.813a15.624 15.624 0 0 1-4.765.825 21.423 21.423 0 0 1-5.453-.413c-3.312-.737-5.354-2.756-6.128-6.056a19.047 19.047 0 0 1-.447-4.511 18.491 18.491 0 0 1 .515-4.786c.812-3.086 2.77-4.998 5.877-5.736a13.953 13.953 0 0 1 2.199-.355Z" clip-rule="evenodd"/><path fill="#E6E6E6" fill-rule="evenodd" d="M1 11.566c0 .141.002.283.005.425-.03 1.521.118 3.025.447 4.51.774 3.3 2.816 5.32 6.128 6.057 1.8.37 3.617.508 5.453.413a15.624 15.624 0 0 0 4.765-.825c1.906-.699 3.284-1.97 4.135-3.812a11.88 11.88 0 0 0 .893-3.32c.184-1.638.222-3.28.115-4.924a14.265 14.265 0 0 0-.756-3.824c-.746-2.06-2.133-3.506-4.158-4.34a13.537 13.537 0 0 0-3.78-.847 31.653 31.653 0 0 0-4.307-.011c-.11.032-.224.047-.344.046-.742.06-1.476.178-2.2.355-3.106.738-5.064 2.65-5.876 5.736A18.48 18.48 0 0 0 1 11.563v.003Z" clip-rule="evenodd" opacity=".35"/><path fill="#FF9E1F" d="M19.615 6.77H4.385c-.935 0-1.693.757-1.693 1.692v10.153c0 .935.758 1.693 1.693 1.693h15.23c.935 0 1.693-.758 1.693-1.693V8.462c0-.935-.758-1.693-1.693-1.693Z"/><path stroke="#fff" stroke-linecap="round" stroke-width=".846" d="M5.654 11.846V9.731h2.538m10.154 2.115V9.731h-2.538m2.538 5.5v2.115h-2.538M5.654 15.231v2.115h2.538"/><path fill="#FF5B63" d="M19.192 6.077a1.27 1.27 0 1 0 0-2.538 1.27 1.27 0 0 0 0 2.538Z"/><path fill="#333" d="M9.885 4.385h4.23v.846h-4.23v-.846Z"/><defs><radialGradient id="a" cx="0" cy="0" r="1" gradientTransform="matrix(0 22 -22 0 12 1)" gradientUnits="userSpaceOnUse"><stop stop-color="#F2F2F2"/><stop offset="1" stop-color="#B3B3B3"/></radialGradient></defs></svg>