<svg width="24" height="24" viewBox="0 0 24 24" fill="none" xmlns="http://www.w3.org/2000/svg">
<path fill-rule="evenodd" clip-rule="evenodd" d="M9.59604 1.11359C9.71588 1.11486 9.83043 1.0996 9.93969 1.06779C11.3755 0.973736 12.8111 0.977551 14.2467 1.07924C15.5484 1.18066 16.8085 1.46308 18.0269 1.9265C20.0525 2.76044 21.4386 4.20689 22.185 6.26585C22.6119 7.50549 22.8639 8.78021 22.9411 10.09C23.0478 11.7347 23.0096 13.3758 22.8265 15.0133C22.6895 16.1642 22.3916 17.271 21.933 18.3336C21.0824 20.1761 19.704 21.447 17.7978 22.1463C16.2531 22.6682 14.6647 22.943 13.0325 22.9706C11.1966 23.0661 9.37913 22.9287 7.57997 22.5585C4.26839 21.8208 2.22559 19.8018 1.45158 16.5017C1.12311 15.0161 0.974199 13.5124 1.00483 11.9906C0.968176 10.3724 1.14 8.77709 1.52031 7.20471C2.33171 4.11908 4.2905 2.20701 7.39669 1.46852C8.12048 1.29157 8.8536 1.17326 9.59604 1.11359Z" fill="url(#paint0_radial_3_454)"/>
<path d="M5.69944 7.88254C5.69944 7.33692 5.69722 6.80284 5.70033 6.2692C5.69821 5.70387 5.89195 5.15525 6.24861 4.71663C6.76051 4.07652 7.43122 3.69947 8.23457 3.55441C8.99444 3.41779 9.71617 3.54199 10.3989 3.88711C10.9955 4.18742 11.4719 4.62347 11.7727 5.23119C11.9324 5.5528 12.0131 5.89436 12.0131 6.25456C12.0122 6.75671 12.0122 7.25841 12.0122 7.76055V7.87589C12.1377 7.8852 12.2588 7.88343 12.3751 7.90561C13.0604 8.03469 13.4454 8.44058 13.5559 9.12371C13.5581 9.13924 13.5568 9.15565 13.5568 9.17118V11.0493C13.5568 11.0653 13.555 11.0804 13.555 11.0831C11.5109 12.0581 10.4348 13.6608 10.3354 15.9337H10.2454C8.59876 15.9337 6.95259 15.9466 5.30597 15.9275C4.63304 15.92 4.12735 15.5447 4.01823 14.8154C4.00767 14.7467 4.00219 14.6774 4.00181 14.6078C4.00093 12.8246 3.99738 11.0418 4.00359 9.25812C4.00581 8.57366 4.38951 8.07329 5.05845 7.9269C5.23589 7.88831 5.42264 7.89718 5.6054 7.88432C5.63334 7.8852 5.66085 7.88432 5.699 7.88299L5.69944 7.88254ZM10.8172 7.8821C10.8021 7.38483 10.807 6.89821 10.7679 6.41514C10.7253 5.89126 10.4951 5.44145 10.1043 5.08525C9.51611 4.54939 8.68437 4.4172 8.01056 4.77562C7.27286 5.16909 6.93307 5.82383 6.88694 6.63738C6.86476 7.02064 6.8825 7.40657 6.8825 7.79116V7.8821H10.8172ZM9.47441 13.4523V13.3303C9.47441 12.7904 9.4753 12.2502 9.47397 11.7103C9.47397 11.6517 9.48727 11.6109 9.53474 11.5728C9.77073 11.3869 9.89848 11.1416 9.93841 10.844C10.0338 10.1227 9.33911 9.49234 8.63425 9.67066C8.19864 9.78156 7.91651 10.0632 7.82513 10.5011C7.73331 10.938 7.87526 11.308 8.23013 11.5865C8.25175 11.6012 8.26912 11.6213 8.28049 11.6448C8.29186 11.6683 8.29683 11.6944 8.2949 11.7205C8.29268 12.2604 8.29357 12.8006 8.29357 13.3405V13.4514C8.6928 13.4523 9.07651 13.4523 9.47441 13.4523Z" fill="#274C61"/>
<path d="M15.5445 11.4348C18.0269 11.457 20.0013 13.4274 20 15.8991C20.0024 16.486 19.8884 17.0676 19.6646 17.6102C19.4408 18.1527 19.1116 18.6455 18.6961 19.06C18.2806 19.4745 17.787 19.8025 17.2439 20.0251C16.7008 20.2476 16.119 20.3602 15.5321 20.3564C14.9461 20.3578 14.3655 20.2432 13.824 20.0191C13.2825 19.7951 12.7907 19.466 12.3771 19.0508C11.9634 18.6357 11.6361 18.1428 11.414 17.6004C11.1918 17.0581 11.0793 16.4772 11.0829 15.8912C11.0869 13.4084 13.0737 11.4512 15.5454 11.4348H15.5445ZM14.2954 18.7049C14.7044 18.7049 15.0952 18.7026 15.486 18.7062C15.5587 18.7071 15.5893 18.6822 15.6159 18.6161C16.1988 17.1754 16.7848 15.735 17.369 14.2956L17.6046 13.7096C17.5824 13.7051 17.5709 13.7007 17.5593 13.7007C17.1903 13.6998 16.8221 13.7025 16.4534 13.6985C16.3842 13.6976 16.3767 13.7402 16.3607 13.7836L15.8187 15.3282C15.7375 15.5593 15.655 15.7905 15.5658 16.0424C15.5436 15.987 15.5303 15.9519 15.517 15.9173C15.254 15.2062 14.99 14.4956 14.7292 13.7836C14.7057 13.7198 14.6755 13.6985 14.6081 13.6994C14.2554 13.7034 13.9023 13.7007 13.5497 13.7007C13.5226 13.7007 13.496 13.7038 13.4596 13.7065C13.4729 13.7437 13.4827 13.7739 13.4942 13.8027L13.74 14.4326C14.102 15.3566 14.4622 16.2815 14.8268 17.206C14.8609 17.2933 14.8694 17.3679 14.8259 17.457C14.7465 17.6194 14.6822 17.7897 14.6121 17.9552C14.5078 18.1996 14.4049 18.4449 14.2954 18.7049Z" fill="white"/>
<defs>
<radialGradient id="paint0_radial_3_454" cx="0" cy="0" r="1" gradientUnits="userSpaceOnUse" gradientTransform="translate(12 1) rotate(90) scale(22)">
<stop stop-color="#93D32C"/>
<stop offset="1" stop-color="#67A700"/>
</radialGradient>
</defs>
</svg>
