<?xml version="1.0" encoding="UTF-8" standalone="no"?>
<svg
   width="24"
   height="24"
   viewBox="0 0 24 24"
   fill="none"
   version="1.1"
   id="svg154"
   sodipodi:docname="corebird.svg"
   inkscape:version="1.2.2 (b0a8486541, 2022-12-01)"
   xml:space="preserve"
   xmlns:inkscape="http://www.inkscape.org/namespaces/inkscape"
   xmlns:sodipodi="http://sodipodi.sourceforge.net/DTD/sodipodi-0.dtd"
   xmlns:xlink="http://www.w3.org/1999/xlink"
   xmlns="http://www.w3.org/2000/svg"
   xmlns:svg="http://www.w3.org/2000/svg"
   xmlns:sketch="http://www.bohemiancoding.com/sketch/ns"><sodipodi:namedview
     id="namedview156"
     pagecolor="#ffffff"
     bordercolor="#000000"
     borderopacity="1"
     inkscape:showpageshadow="0"
     inkscape:pageopacity="1"
     inkscape:pagecheckerboard="false"
     inkscape:deskcolor="#ffffff"
     showgrid="true"
     inkscape:zoom="22.627417"
     inkscape:cx="9.2365823"
     inkscape:cy="13.412932"
     inkscape:window-width="1920"
     inkscape:window-height="1052"
     inkscape:window-x="0"
     inkscape:window-y="0"
     inkscape:window-maximized="1"
     inkscape:current-layer="svg154"
     showguides="true"
     guidecolor="#ff0000"
     guideopacity="1"
     inkscape:lockguides="true"
     showborder="true"
     borderlayer="true"><inkscape:grid
       type="xygrid"
       id="grid356"
       color="#000000"
       opacity="0.10196078"
       empcolor="#000000"
       empopacity="0.10196078"
       snapvisiblegridlinesonly="true"
       enabled="true"
       visible="true"
       dotted="false" /><sodipodi:guide
       position="4.003125,23.042969"
       orientation="1,0"
       id="guide764"
       inkscape:locked="true" /><sodipodi:guide
       position="5.0007813,21.049219"
       orientation="1,0"
       id="guide2218"
       inkscape:locked="true" /><sodipodi:guide
       position="3.6445312,20"
       orientation="0,-1"
       id="guide2220"
       inkscape:locked="true" /><sodipodi:guide
       position="3.796875,5"
       orientation="0,-1"
       id="guide2222"
       inkscape:locked="true" /><sodipodi:guide
       position="3.625,4"
       orientation="0,-1"
       id="guide2224"
       inkscape:locked="true" /><sodipodi:guide
       position="19,4.8984375"
       orientation="1,0"
       id="guide2226"
       inkscape:locked="true" /><sodipodi:guide
       position="20,3.3312502"
       orientation="1,0"
       id="guide2228"
       inkscape:locked="true" /><sodipodi:guide
       position="22.875,19"
       orientation="0,-1"
       id="guide2230"
       inkscape:locked="true" /></sodipodi:namedview><defs
     id="defs152"><radialGradient
       id="radialGradient1281"
       cx="0"
       cy="0"
       r="1"
       gradientUnits="userSpaceOnUse"
       gradientTransform="translate(12 1) rotate(90) scale(22)"><stop
         stop-color="#8FC8FF"
         id="stop1277"
         offset="0.00424011"
         style="stop-color:#ffffff;stop-opacity:1;" /><stop
         offset="0.99151897"
         stop-color="#0056A8"
         id="stop1279"
         style="stop-color:#ffffff;stop-opacity:1;" /></radialGradient><radialGradient
       id="paint0_radial_29_23"
       cx="0"
       cy="0"
       r="1"
       gradientUnits="userSpaceOnUse"
       gradientTransform="translate(12 1) rotate(90) scale(22)"><stop
         stop-color="#8FC8FF"
         id="stop147"
         offset="0"
         style="stop-color:#f6f6f6;stop-opacity:1;" /><stop
         offset="1"
         stop-color="#0056A8"
         id="stop149"
         style="stop-color:#cfcfcf;stop-opacity:1;" /></radialGradient><radialGradient
       id="paint0_radial_10_2"
       cx="0"
       cy="0"
       r="1"
       gradientUnits="userSpaceOnUse"
       gradientTransform="matrix(-10.999959,21.999967,-21.999967,-10.999959,17.5,1)"
       xlink:href="#paint0_radial_29_23"><stop
         stop-color="#777777"
         id="stop2847" /><stop
         offset="1"
         stop-color="#222222"
         id="stop2849" /></radialGradient><linearGradient
       x1="12"
       y1="1"
       x2="12"
       y2="23"
       gradientUnits="userSpaceOnUse"
       gradientTransform="matrix(0.75,0,0,0.75,-7.98374e-6,2.65834e-5)"
       spreadMethod="pad"
       id="linearGradient44915"><stop
         style="stop-opacity:1;stop-color:#ff5f5f"
         offset="0"
         id="stop44911" /><stop
         style="stop-opacity:1;stop-color:#e82e34"
         offset="1"
         id="stop44913" /></linearGradient><radialGradient
       id="SVGID_1_"
       cx="85.226997"
       cy="71.662003"
       r="47.776001"
       gradientTransform="matrix(1,0,0,-1,0,103.8)"
       gradientUnits="userSpaceOnUse"><stop
         offset="0"
         stop-color="#00aeff"
         id="stop12" /><stop
         offset=".131"
         stop-color="#00a5f7"
         id="stop14" /><stop
         offset=".345"
         stop-color="#008de0"
         id="stop16" /><stop
         offset=".616"
         stop-color="#0065ba"
         id="stop18" /><stop
         offset=".928"
         stop-color="#002f87"
         id="stop20" /><stop
         offset="1"
         stop-color="#00217a"
         id="stop22" /></radialGradient><linearGradient
       id="SVGID_3_"
       gradientUnits="userSpaceOnUse"
       x1="92.800003"
       y1="72.949997"
       x2="130.763"
       y2="72.949997"
       gradientTransform="matrix(1,0,0,-1,0,103.8)"><stop
         offset="0"
         stop-color="#FFF"
         id="stop29" /><stop
         offset="1"
         stop-color="#FFF"
         stop-opacity="0"
         id="stop31" /></linearGradient><radialGradient
       id="SVGID_4_"
       cx="83.728996"
       cy="73.999001"
       r="8.2860003"
       gradientTransform="matrix(1,0,0,-1,0,103.8)"
       gradientUnits="userSpaceOnUse"><stop
         offset="0"
         stop-color="#FFF"
         id="stop36" /><stop
         offset=".679"
         stop-color="#7a7a7a"
         id="stop38" /><stop
         offset="1"
         stop-color="#404040"
         id="stop40" /></radialGradient><radialGradient
       fx="0"
       fy="0"
       cx="0"
       cy="0"
       r="1"
       gradientUnits="userSpaceOnUse"
       gradientTransform="matrix(0,16.5,-16.5,0,8.999996,0.750012)"
       spreadMethod="pad"
       id="radialGradient3666-6"><stop
         style="stop-color:#ffffff;stop-opacity:1;"
         offset="0"
         id="stop3662-7" /><stop
         style="stop-color:#f7da4d;stop-opacity:1;"
         offset="1"
         id="stop3664-5" /></radialGradient><clipPath
       id="a"><path
         d="M 0,0.113 H 91.887 V 92 H 0 Z m 0,0"
         id="path76179" /></clipPath><clipPath
       id="a-3"><path
         d="M 0,0.113 H 91.887 V 92 H 0 Z m 0,0"
         id="path76179-5" /></clipPath><radialGradient
       fx="0"
       fy="0"
       cx="0"
       cy="0"
       r="1"
       gradientUnits="userSpaceOnUse"
       gradientTransform="matrix(0,16.5,-16.5,0,8.999996,0.750012)"
       spreadMethod="pad"
       id="radialGradient3666-6-2"><stop
         style="stop-color:#ffffff;stop-opacity:1;"
         offset="0"
         id="stop3662-7-9" /><stop
         style="stop-color:#3dc89a;stop-opacity:1;"
         offset="1"
         id="stop3664-5-1" /></radialGradient></defs><path
     d="M 50,5 C 9.0909092,5 5,25.454546 5,50 5,82.727274 17.272728,95 50,95 82.727274,95 95,82.727274 95,50 95,25.454546 90.909093,5 50,5 Z"
     sketch:type="MSShapeGroup"
     id="path6"
     style="font-variation-settings:normal;display:inline;opacity:1;vector-effect:none;fill:#385373;fill-opacity:1;stroke-width:4.56656;stroke-linecap:butt;stroke-linejoin:miter;stroke-miterlimit:4;stroke-dasharray:none;stroke-dashoffset:0;stroke-opacity:1;-inkscape-stroke:none;stop-color:#000000;stop-opacity:1"
     sodipodi:nodetypes="sssss"
     inkscape:label="Shape"
     transform="matrix(0.24444444,0,0,0.24444444,-0.22222222,-0.22222222)"
     sodipodi:insensitive="true" /><g
     inkscape:groupmode="layer"
     id="layer4"
     inkscape:label="Colors References"
     style="display:inline"
     sodipodi:insensitive="true"
     inkscape:highlight-color="#cc5ecc"><rect
       style="display:inline;fill:#3947be;fill-opacity:1;stroke-width:22.6872;paint-order:markers stroke fill"
       id="rect7816"
       width="1.9999923"
       height="2"
       x="12"
       y="-2.9999964"
       rx="0"
       ry="0"
       inkscape:label="Dark Blue" /><rect
       style="display:inline;fill:#6c7ad8;fill-opacity:1;stroke-width:22.6873;paint-order:markers stroke fill"
       id="rect7820"
       width="2"
       height="2.0000076"
       x="9"
       y="-3.0000041"
       rx="0"
       ry="0"
       inkscape:label="Blue" /><rect
       style="display:inline;fill:#33cc33;fill-opacity:1;stroke-width:22.6873;paint-order:markers stroke fill"
       id="rect7814"
       width="2"
       height="2.0000076"
       x="6"
       y="-3.0000041"
       rx="0"
       ry="0"
       inkscape:label="Green" /><rect
       style="display:inline;fill:#ffc328;fill-opacity:1;stroke-width:22.6872;paint-order:markers stroke fill"
       id="rect7824"
       width="1.9999926"
       height="2.0000002"
       x="3"
       y="-2.9999964"
       rx="0"
       ry="0"
       inkscape:label="Yellow" /><rect
       style="display:inline;fill:#cc5e55;fill-opacity:1;stroke-width:22.6873;paint-order:markers stroke fill"
       id="rect7822"
       width="2"
       height="2.0000076"
       x="0"
       y="-3.0000038"
       rx="0"
       ry="0"
       inkscape:label="Red" /><rect
       style="display:inline;fill:#0bb1cb;fill-opacity:1;stroke-width:22.6872;paint-order:markers stroke fill"
       id="rect3087"
       width="1.9999919"
       height="1.9999996"
       x="-3"
       y="12.000004"
       rx="0"
       ry="0"
       inkscape:label="Blue 4" /><rect
       style="display:inline;fill:#2a92c9;fill-opacity:1;stroke-width:22.6873;paint-order:markers stroke fill"
       id="rect3085"
       width="2"
       height="2.0000079"
       x="-3"
       y="8.9999962"
       rx="0"
       ry="0"
       inkscape:label="Blue 3" /><rect
       style="display:inline;fill:#006699;fill-opacity:1;stroke-width:22.6873;paint-order:markers stroke fill"
       id="rect3089"
       width="2"
       height="2.0000076"
       x="-3"
       y="6.0000038"
       rx="0"
       ry="0"
       inkscape:label="Blue 2" /><rect
       style="display:inline;fill:#002a44;fill-opacity:1;stroke-width:22.6873;paint-order:markers stroke fill"
       id="rect3083"
       width="2"
       height="2.0000076"
       x="-3"
       y="2.9999962"
       rx="0"
       ry="0"
       inkscape:label="Blue 1" /><rect
       style="display:inline;fill:#2c2d3d;fill-opacity:1;stroke-width:22.6873;paint-order:markers stroke fill"
       id="rect3456"
       width="2"
       height="2.0000076"
       x="-3"
       y="-3.8146973e-06"
       rx="0"
       ry="0"
       inkscape:label="Gray" /><rect
       style="display:inline;fill:#16171c;fill-opacity:1;stroke-width:22.6872;paint-order:markers stroke fill"
       id="rect3091"
       width="1.9999924"
       height="2"
       x="-3"
       y="-3"
       rx="0"
       ry="0"
       inkscape:label="Black" /></g><g
     id="g116161" /><g
     id="g124811"
     transform="matrix(0.35776179,0,0,0.35776179,0.55162272,0.55162272)"><path
       d="M 14.348,24.174 A 17.258,17.258 0 0 0 12.435,32 c 0,10.085 8.76,18.261 19.565,18.261 10.806,0 19.565,-8.176 19.565,-18.26 a 17.26,17.26 0 0 0 -1.91,-7.827 L 32,22.87 Z"
       fill="#6373bf"
       id="path124632" /><path
       d="M 32,13.739 A 19.565,18.261 0 0 0 14.348,24.174 H 49.654 A 19.565,18.261 0 0 0 32,13.739 Z"
       fill="#ee4b5f"
       id="path124634" /><path
       d="m 32.8,13.881 v 0.005 c -1.792,0 -3.341,0.61 -4.12,1.513 -0.7,-0.23 -1.497,-0.344 -2.34,-0.344 -2.195,0 -4.042,0.86 -4.732,2.074 -0.117,-0.122 -0.274,-0.218 -0.417,-0.323 a 19.565,18.261 0 0 0 -0.772,0.517 c 0.607,0.227 1.124,0.55 1.508,0.95 0.689,-1.215 2.542,-2.076 4.733,-2.076 0.847,0 1.638,0.118 2.339,0.346 0.774,-0.9 2.33,-1.516 4.12,-1.516 2.105,0 3.877,0.86 4.44,2.02 0.619,-0.034 1.299,-0.012 1.834,0.133 0.85,0.23 1.579,1.01 1.97,1.941 0.27,0.65 0.323,1.307 0.193,1.888 a 3.752,2.836 0 0 1 0.446,0.288 l 0.104,-0.076 c 0.445,-0.717 0.513,-1.699 0.105,-2.66 a 3.535,3.535 0 0 0 -0.798,-1.195 5.058,5.058 0 0 1 1.355,-0.32 c 0.19,0.004 0.376,0.048 0.563,0.088 a 19.565,18.261 0 0 0 -1.768,-1.04 c -0.393,0.102 -0.77,0.228 -1.105,0.419 -0.682,-0.39 -1.702,-0.637 -2.846,-0.637 -0.121,0 -0.247,0.02 -0.372,0.025 -0.567,-1.166 -2.34,-2.02 -4.44,-2.02 z m 0.79,4.127 c -1.268,0.007 -2.385,0.5 -2.915,1.406 -0.081,0.13 -0.146,0.26 -0.188,0.398 v 0.028 l -0.319,1.141 c 0.052,-0.137 0.11,-0.266 0.186,-0.397 0.851,-1.45 3.223,-1.869 5.292,-0.905 a 4.862,4.862 0 0 1 1.658,1.233 3.752,2.836 0 0 1 0.706,-0.27 C 37.462,19.773 36.715,18.93 35.939,18.535 a 5.535,5.535 0 0 0 -2.35,-0.527 z M 23.066,18.51 a 5.24,5.24 0 0 0 -1.857,0.346 4.726,4.726 0 0 0 -1.463,0.877 4.725,4.725 0 0 0 -2.292,0.114 19.565,18.261 0 0 0 -1.534,1.822 c 1.066,-0.984 3.037,-1.169 4.807,-0.341 0.477,0.222 0.887,0.497 1.238,0.802 a 2.86,2.47 0 0 1 0.731,-0.71 4.981,4.981 0 0 0 -1.65,-1.234 c 0.27,-0.17 0.58,-0.329 0.904,-0.453 1.237,-0.466 2.55,-0.426 3.51,0 v -0.026 l -0.744,-0.85 A 4.173,4.173 0 0 0 23.071,18.51 Z m 23.216,1.04 c 0.022,0.053 0.048,0.104 0.071,0.157 0.505,1.218 0.434,2.466 -0.132,3.376 l 1.087,-0.663 c 0.224,-0.36 0.363,-0.781 0.43,-1.227 a 19.565,18.261 0 0 0 -1.456,-1.644 z"
       fill="#952f5b"
       id="path124636" /><path
       d="m 25.48,20.261 c -4.322,0 -7.826,3.796 -7.826,8.478 0,4.682 3.504,8.479 7.826,8.479 h 13.043 c 4.322,0 7.826,-3.796 7.826,-8.479 0,-4.683 -3.504,-8.478 -7.826,-8.478 -2.625,0.003 -5.074,1.431 -6.522,3.804 -1.447,-2.373 -3.896,-3.801 -6.521,-3.804 z"
       fill="#ffffff"
       style="paint-order:normal"
       id="path124638" /><path
       d="m 32.001,33.304 c -2.565,0.003 -5.217,1.304 -5.217,3.913 0,2.609 4.207,9.13 5.217,9.13 1.01,0 5.217,-6.521 5.217,-9.13 0,-2.609 -2.652,-3.916 -5.217,-3.913 z"
       fill="#ffd10a"
       id="path124640" /><path
       d="m 28.088,26.783 a 2.609,2.609 0 0 0 -2.609,2.609 2.609,2.609 0 0 0 2.609,2.608 2.609,2.609 0 0 0 2.609,-2.608 2.609,2.609 0 0 0 -2.609,-2.609 z m 7.826,0 a 2.609,2.609 0 0 0 -2.609,2.609 2.609,2.609 0 0 0 2.61,2.608 2.609,2.609 0 0 0 2.608,-2.608 2.609,2.609 0 0 0 -2.609,-2.609 z m -8.478,1.304 a 0.652,0.652 0 0 1 0.652,0.652 0.652,0.652 0 0 1 -0.652,0.653 0.652,0.652 0 0 1 -0.652,-0.653 0.652,0.652 0 0 1 0.652,-0.652 z m 7.826,0 a 0.652,0.652 0 0 1 0.652,0.652 0.652,0.652 0 0 1 -0.652,0.653 0.652,0.652 0 0 1 -0.652,-0.653 0.652,0.652 0 0 1 0.652,-0.652 z"
       fill="#034c77"
       style="paint-order:normal"
       id="path124642" /></g></svg>
