<svg width="24" height="24" viewBox="0 0 24 24" fill="none" xmlns="http://www.w3.org/2000/svg">
<path fill-rule="evenodd" clip-rule="evenodd" d="M9.93969 1.06779C9.83043 1.0996 9.71588 1.11486 9.59604 1.11359C8.8536 1.17326 8.12048 1.29157 7.39669 1.46852C4.2905 2.20701 2.33171 4.11908 1.52031 7.20471C1.14 8.77709 0.968176 10.3724 1.00483 11.9906C0.974199 13.5124 1.12311 15.0161 1.45158 16.5017C2.22559 19.8018 4.26839 21.8208 7.57997 22.5585C9.37913 22.9287 11.1966 23.0661 13.0325 22.9706C14.6647 22.943 16.2531 22.6682 17.7978 22.1463C19.704 21.447 21.0824 20.1761 21.933 18.3336C22.3916 17.271 22.6895 16.1642 22.8265 15.0133C23.0096 13.3758 23.0478 11.7347 22.941 10.09C22.8639 8.78021 22.6119 7.50549 22.185 6.26585C21.4386 4.20689 20.0525 2.76044 18.0269 1.9265C16.8085 1.46308 15.5484 1.18066 14.2467 1.07924C12.8111 0.977551 11.3755 0.973736 9.93969 1.06779Z" fill="#33393E"/>
<path fill-rule="evenodd" clip-rule="evenodd" d="M22.2102 6.33965L11.2953 8.16413L13.8104 1.05135C13.9559 1.05964 14.1013 1.06894 14.2467 1.07924C15.5484 1.18066 16.8085 1.46308 18.0269 1.9265C20.0525 2.76044 21.4386 4.20689 22.185 6.26585C22.1935 6.29044 22.2019 6.31504 22.2102 6.33965Z" fill="#E99F4B"/>
<path fill-rule="evenodd" clip-rule="evenodd" d="M22.7119 8.24285C22.828 8.85061 22.9043 9.46632 22.9411 10.09C23.0478 11.7347 23.0096 13.3758 22.8265 15.0133C22.6969 16.1021 22.4233 17.1514 22.0059 18.1612L14.9628 9.68975L22.7119 8.24285Z" fill="#F6D152"/>
<path fill-rule="evenodd" clip-rule="evenodd" d="M21.059 19.7935C20.2378 20.8657 19.1507 21.6499 17.7978 22.1463C16.2531 22.6682 14.6647 22.943 13.0325 22.9706C12.6689 22.9896 12.306 22.9993 11.9439 23L15.544 13.411L21.059 19.7935Z" fill="#369557"/>
<path fill-rule="evenodd" clip-rule="evenodd" d="M10.1234 22.9257C9.27157 22.8545 8.42375 22.7321 7.57997 22.5585C4.67265 21.9108 2.74324 20.2757 1.79176 17.653L12.6284 15.8416L10.1234 22.9257Z" fill="#4C8FBF"/>
<path fill-rule="evenodd" clip-rule="evenodd" d="M1.30062 15.748C1.07797 14.5081 0.979369 13.2556 1.00483 11.9906C0.968176 10.3724 1.14 8.77709 1.52031 7.20471C1.64868 6.71652 1.80578 6.2577 1.9916 5.82826L9.03782 14.3035L1.30062 15.748Z" fill="#8E52A8"/>
<path fill-rule="evenodd" clip-rule="evenodd" d="M13.8522 11.9997C13.8522 13.0225 13.0231 13.8516 12.0003 13.8516C10.9775 13.8516 10.1484 13.0225 10.1484 11.9997C10.1484 10.977 10.9775 10.1479 12.0003 10.1479C13.0231 10.1479 13.8522 10.977 13.8522 11.9997Z" fill="white"/>
<path fill-rule="evenodd" clip-rule="evenodd" d="M12.0285 1.00001C11.3322 0.999584 10.636 1.02218 9.93969 1.06779C9.83043 1.0996 9.71588 1.11486 9.59604 1.11359C8.8536 1.17326 8.12048 1.29157 7.39669 1.46852C5.45989 1.92899 3.96918 2.84574 2.92457 4.21876L8.42907 10.5885L12.0285 1.00001Z" fill="#E06959"/>
</svg>
