<?xml version="1.0" encoding="UTF-8" standalone="no"?>
<svg
   width="24"
   height="24"
   viewBox="0 0 24 24"
   fill="none"
   version="1.1"
   id="svg8"
   sodipodi:docname="org.gnome.dconf-editor.svg"
   inkscape:version="1.3 (0e150ed6c4, 2023-07-21)"
   inkscape:export-filename="../../../../../../../../../Imagens/Big Icons/org.gnome.dconf-editor.pdf"
   inkscape:export-xdpi="96"
   inkscape:export-ydpi="96"
   xml:space="preserve"
   xmlns:inkscape="http://www.inkscape.org/namespaces/inkscape"
   xmlns:sodipodi="http://sodipodi.sourceforge.net/DTD/sodipodi-0.dtd"
   xmlns="http://www.w3.org/2000/svg"
   xmlns:svg="http://www.w3.org/2000/svg"><defs
     id="defs8"><radialGradient
       id="paint0_radial_3_321"
       cx="0"
       cy="0"
       r="1"
       gradientUnits="userSpaceOnUse"
       gradientTransform="matrix(0,22,-22,0,12,1)"><stop
         stop-color="#555555"
         id="stop255"
         offset="0"
         style="stop-color:#818181;stop-opacity:1;" /><stop
         offset="1"
         stop-color="#222222"
         id="stop257"
         style="stop-color:#35393c;stop-opacity:1;" /></radialGradient><radialGradient
       fx="0"
       fy="0"
       cx="0"
       cy="0"
       r="1"
       gradientUnits="userSpaceOnUse"
       gradientTransform="matrix(0,16.5,-16.5,0,9,0.75)"
       spreadMethod="pad"
       id="radialGradient2"><stop
         style="stop-opacity:1;stop-color:#818181"
         offset="0"
         id="stop1" /><stop
         style="stop-opacity:1;stop-color:#35393c"
         offset="1"
         id="stop2" /></radialGradient><clipPath
       clipPathUnits="userSpaceOnUse"
       id="clipPath5"><path
         d="M 0,0 H 19 V 19 H 0 Z"
         id="path5-9" /></clipPath><radialGradient
       fx="0"
       fy="0"
       cx="0"
       cy="0"
       r="1"
       gradientUnits="userSpaceOnUse"
       gradientTransform="matrix(0,21.999999,-21.999999,0,46,0.99999997)"
       spreadMethod="pad"
       id="radialGradient2-4"><stop
         style="stop-opacity:1;stop-color:#818181"
         offset="0"
         id="stop1-8" /><stop
         style="stop-opacity:1;stop-color:#35393c"
         offset="1"
         id="stop2-7" /></radialGradient><clipPath
       clipPathUnits="userSpaceOnUse"
       id="clipPath5-0"><path
         d="M 0,0 H 19 V 19 H 0 Z"
         id="path5-9-8" /></clipPath></defs><sodipodi:namedview
     id="namedview8"
     pagecolor="#ffffff"
     bordercolor="#000000"
     borderopacity="0.25"
     inkscape:showpageshadow="2"
     inkscape:pageopacity="0.0"
     inkscape:pagecheckerboard="0"
     inkscape:deskcolor="#d1d1d1"
     inkscape:zoom="4.2239582"
     inkscape:cx="-37.879163"
     inkscape:cy="5.8002468"
     inkscape:window-width="2560"
     inkscape:window-height="998"
     inkscape:window-x="0"
     inkscape:window-y="0"
     inkscape:window-maximized="1"
     inkscape:current-layer="svg8"><inkscape:page
       x="0"
       y="0"
       width="24"
       height="24"
       id="page1"
       margin="0"
       bleed="0" /></sodipodi:namedview><g
     id="g1"
     inkscape:groupmode="layer"
     inkscape:label="1"
     transform="translate(34)" /><g
     id="g2"
     transform="translate(-34.000452,-3.5455915e-5)"><path
       id="path2"
       d="m 43.593333,1.1146666 c 0.12,0 0.234667,-0.016 0.344,-0.046667 1.437333,-0.0946667 2.874667,-0.0893334 4.308,0.010667 1.301333,0.104 2.561333,0.3853334 3.781333,0.848 2.025333,0.8333333 3.410667,2.2813333 4.161333,4.3386666 0.421334,1.2399999 0.676,2.5159999 0.754667,3.8226668 0.104,1.646666 0.068,3.286666 -0.114667,4.928 -0.14,1.150666 -0.437333,2.254666 -0.896,3.317333 -0.849333,1.844 -2.229333,3.114666 -4.134666,3.812 -1.542667,0.521333 -3.130667,0.797333 -4.766667,0.824 -1.833333,0.09867 -3.650666,-0.04267 -5.452,-0.412 C 38.270667,21.822666 36.224,19.802666 35.453333,16.5 c -0.328,-1.484 -0.48,-2.989334 -0.448,-4.510667 -0.036,-1.614667 0.134667,-3.2133332 0.516,-4.7866665 C 36.333333,4.1199999 38.292,2.2079999 41.396,1.4693333 42.12,1.292 42.854666,1.172 43.593333,1.1146666 Z"
       style="fill:url(#radialGradient2-4);fill-rule:evenodd;stroke:none;stroke-width:1.33333" /><path
       id="path3-6"
       d="M 50.64,7.8226665 H 46 c -0.770667,0 -1.396,0.62 -1.396,1.3906666 C 44.604,9.9839998 45.229333,10.604 46,10.604 h 4.64 c 0.772,0 1.396,-0.6200002 1.396,-1.3906669 0,-0.7706666 -0.624,-1.3906666 -1.396,-1.3906666 z"
       style="fill:#3daee9;fill-opacity:1;fill-rule:nonzero;stroke:none;stroke-width:1.33333" /><path
       id="path4-0"
       d="m 50.64,11.073333 c 1.026666,0 1.86,-0.833333 1.86,-1.8599999 0,-1.0253333 -0.833334,-1.8533333 -1.86,-1.8533333 -1.025334,0 -1.853334,0.828 -1.853334,1.8533333 0,1.0266669 0.828,1.8599999 1.853334,1.8599999 z"
       style="fill:#fafafa;fill-opacity:1;fill-rule:nonzero;stroke:none;stroke-width:1.33333" /><g
       opacity="0.5"
       id="g6"
       transform="translate(34)"><path
         d="m 9.348,10.043 h 3.48 c 0.578,0 1.047,0.469 1.047,1.047 0,0.574 -0.469,1.043 -1.047,1.043 h -3.48 c -0.575,0 -1.043,-0.469 -1.043,-1.043 0,-0.578 0.468,-1.047 1.043,-1.047 z"
         style="fill:#ffffff;fill-opacity:1;fill-rule:nonzero;stroke:none"
         transform="scale(1.3333333)"
         clip-path="url(#clipPath5-0)"
         id="path6-4" /></g><path
       id="path7-1"
       d="m 46.464,16.64 c -1.026667,0 -1.86,-0.828 -1.86,-1.853334 0,-1.026666 0.833333,-1.86 1.86,-1.86 1.025333,0 1.853333,0.833334 1.853333,1.86 0,1.025334 -0.828,1.853334 -1.853333,1.853334 z"
       style="fill:#fafafa;fill-opacity:1;fill-rule:nonzero;stroke:none;stroke-width:1.33333" /><path
       id="path8-0"
       d="m 40.426667,10.14 c 0.515999,0 0.927999,-0.4106669 0.927999,-0.9266669 0,-0.5106667 -0.412,-0.9266666 -0.927999,-0.9266666 -0.509334,0 -0.926667,0.4159999 -0.926667,0.9266666 0,0.516 0.417333,0.9266669 0.926667,0.9266669 z"
       style="fill:#3daee9;fill-opacity:1;fill-rule:nonzero;stroke:none;stroke-width:1.33333" /><path
       id="path9"
       d="m 40.426667,15.713333 c 0.515999,0 0.927999,-0.416 0.927999,-0.926667 0,-0.516 -0.412,-0.926666 -0.927999,-0.926666 -0.509334,0 -0.926667,0.410666 -0.926667,0.926666 0,0.510667 0.417333,0.926667 0.926667,0.926667 z"
       style="fill:#a9aaab;fill-opacity:1;fill-rule:nonzero;stroke:none;stroke-width:1.33333" /></g></svg>
