<svg width="24" height="24" viewBox="0 0 24 24" fill="none" xmlns="http://www.w3.org/2000/svg">
<path fill-rule="evenodd" clip-rule="evenodd" d="M21.7776 5.32451C20.9786 3.75967 19.7284 2.62699 18.0269 1.9265C16.8085 1.46308 15.5484 1.18066 14.2467 1.07924C12.8111 0.977551 11.3755 0.973736 9.93969 1.06779C9.83043 1.0996 9.71588 1.11486 9.59604 1.11359C8.8536 1.17326 8.12048 1.29157 7.39669 1.46852C4.97387 2.04454 3.24912 3.33456 2.22244 5.33858V18.6454C3.27279 20.6924 5.05864 21.9968 7.57997 22.5585C9.37913 22.9287 11.1966 23.0661 13.0325 22.9706C14.6647 22.943 16.2531 22.6682 17.7978 22.1463C19.592 21.4881 20.9186 20.3235 21.7776 18.6526V5.32451Z" fill="#F17060"/>
<path fill-rule="evenodd" clip-rule="evenodd" d="M2.23331 18.6665C1.89889 18.0195 1.63831 17.2979 1.45158 16.5017C1.12311 15.0161 0.974199 13.5124 1.00483 11.9906C0.968176 10.3724 1.14 8.77709 1.52031 7.20471C1.79849 6.14683 2.21154 5.22688 2.75945 4.44488L21.2493 4.44488C21.6294 4.98657 21.9413 5.59356 22.185 6.26585C22.6119 7.50549 22.8639 8.78021 22.941 10.09C23.0478 11.7347 23.0096 13.3758 22.8265 15.0133C22.6895 16.1642 22.3916 17.271 21.933 18.3336C21.8808 18.4467 21.8266 18.5577 21.7704 18.6665H2.23331Z" fill="#DDDDDD"/>
<path opacity="0.5" d="M16.444 7.55596H12.0008C11.2642 7.55596 10.667 8.15275 10.667 8.88892C10.667 9.62509 11.2642 10.2219 12.0008 10.2219H16.444C17.1807 10.2219 17.7778 9.62509 17.7778 8.88892C17.7778 8.15275 17.1807 7.55596 16.444 7.55596Z" fill="black"/>
<path d="M16.444 10.667C17.4256 10.667 18.2213 9.87133 18.2213 8.88976C18.2213 7.9082 17.4256 7.11248 16.444 7.11248C15.4625 7.11248 14.6668 7.9082 14.6668 8.88976C14.6668 9.87133 15.4625 10.667 16.444 10.667Z" fill="#4D4D4D"/>
<path opacity="0.25" d="M12.446 12.8895H16.8892C17.6258 12.8895 18.223 13.4863 18.223 14.2224C18.223 14.9586 17.6258 15.5554 16.8892 15.5554H12.446C11.7094 15.5554 11.1122 14.9586 11.1122 14.2224C11.1122 13.4863 11.7094 12.8895 12.446 12.8895Z" fill="black"/>
<path d="M12.4443 16.0006C11.4628 16.0006 10.667 15.2048 10.667 14.2233C10.667 13.2417 11.4628 12.446 12.4443 12.446C13.4259 12.446 14.2216 13.2417 14.2216 14.2233C14.2216 15.2048 13.4259 16.0006 12.4443 16.0006Z" fill="#4D4D4D"/>
<path d="M6.66732 9.7784C7.1581 9.7784 7.55596 9.38054 7.55596 8.88976C7.55596 8.39898 7.1581 8.00112 6.66732 8.00112C6.17654 8.00112 5.77868 8.39898 5.77868 8.88976C5.77868 9.38054 6.17654 9.7784 6.66732 9.7784Z" fill="#4D4D4D"/>
<path d="M6.66732 15.1119C7.1581 15.1119 7.55596 14.7141 7.55596 14.2233C7.55596 13.7325 7.1581 13.3346 6.66732 13.3346C6.17654 13.3346 5.77868 13.7325 5.77868 14.2233C5.77868 14.7141 6.17654 15.1119 6.66732 15.1119Z" fill="#4D4D4D"/>
</svg>
