<svg width="24" height="24" viewBox="0 0 24 24" fill="none" xmlns="http://www.w3.org/2000/svg">
<path fill-rule="evenodd" clip-rule="evenodd" d="M9.59604 1.11359C9.71588 1.11486 9.83043 1.0996 9.93969 1.06779C11.3755 0.973736 12.8111 0.977551 14.2467 1.07924C15.5484 1.18066 16.8085 1.46308 18.0269 1.9265C20.0525 2.76044 21.4386 4.20689 22.185 6.26585C22.6119 7.50549 22.8639 8.78021 22.9411 10.09C23.0478 11.7347 23.0096 13.3758 22.8265 15.0133C22.6895 16.1642 22.3916 17.271 21.933 18.3336C21.0824 20.1761 19.704 21.447 17.7978 22.1463C16.2531 22.6682 14.6647 22.943 13.0325 22.9706C11.1966 23.0661 9.37913 22.9287 7.57997 22.5585C4.26839 21.8208 2.22559 19.8018 1.45158 16.5017C1.12311 15.0161 0.974199 13.5124 1.00483 11.9906C0.968176 10.3724 1.14 8.77709 1.52031 7.20471C2.33171 4.11908 4.2905 2.20701 7.39669 1.46852C8.12048 1.29157 8.8536 1.17326 9.59604 1.11359Z" fill="url(#paint0_radial_4_25)"/>
<path opacity="0.1" d="M16.4731 7.83617C15.3382 7.83359 14.2139 8.05523 13.1649 8.48836C12.1158 8.9215 11.1627 9.55759 10.3601 10.3601C9.55759 11.1627 8.9215 12.1158 8.48836 13.1649C8.05523 14.2139 7.83359 15.3382 7.83617 16.4731C7.83617 17.5699 8.04116 18.617 8.41066 19.5806H11.8968C11.2743 18.664 10.9426 17.5811 10.945 16.4731C10.9432 15.7467 11.085 15.027 11.3623 14.3556C11.6395 13.6841 12.0466 13.074 12.5603 12.5603C13.074 12.0466 13.6841 11.6395 14.3556 11.3623C15.027 11.0851 15.7467 10.9432 16.4731 10.945C17.5812 10.943 18.6642 11.2751 19.5806 11.8981V8.41197C18.5889 8.03092 17.5355 7.83574 16.4731 7.83617Z" fill="#F9F9F9"/>
<path opacity="0.15" d="M5.41809 6.45478C5.99064 6.45478 6.45478 5.99064 6.45478 5.41809C6.45478 4.84554 5.99064 4.38139 5.41809 4.38139C4.84553 4.38139 4.38139 4.84554 4.38139 5.41809C4.38139 5.99064 4.84553 6.45478 5.41809 6.45478Z" fill="black"/>
<path d="M5.41809 6.10878C5.79955 6.10878 6.10878 5.79955 6.10878 5.41809C6.10878 5.03663 5.79955 4.72739 5.41809 4.72739C5.03663 4.72739 4.72739 5.03663 4.72739 5.41809C4.72739 5.79955 5.03663 6.10878 5.41809 6.10878Z" fill="#0090FF"/>
<path d="M16.3726 7.14548H16.5567V5.5134H16.4444L15.8673 5.81109L15.9378 5.94427L16.3726 5.73667V7.14548Z" fill="#F9F9F9"/>
<path d="M13.5256 7.5989L14.5182 7.33294L14.4746 7.17025L13.7557 7.36287C14.1226 6.76445 14.2214 6.4676 14.1505 6.20276C14.0768 5.92782 13.8443 5.8117 13.5555 5.88908C13.3784 5.93307 13.2242 6.0419 13.1235 6.19406L13.2091 6.31171C13.2959 6.19213 13.4198 6.10472 13.5616 6.06318C13.7634 6.00911 13.9191 6.0958 13.9691 6.28245C14.0299 6.50947 13.9109 6.79683 13.4913 7.47564L13.5256 7.5989Z" fill="#F9F9F9"/>
<path d="M11.6159 8.4806C11.9234 8.30303 12.0427 8.0186 11.9023 7.7755C11.7972 7.59345 11.5951 7.5307 11.3846 7.61002C11.4448 7.5497 11.483 7.47097 11.4932 7.38638C11.5034 7.3018 11.485 7.21624 11.4408 7.14336C11.3122 6.9206 11.0484 6.88145 10.7883 7.0316C10.6399 7.12051 10.5159 7.24495 10.4275 7.39371L10.5384 7.49702C10.6164 7.37486 10.7204 7.27151 10.8432 7.19444C11.0241 7.08999 11.2088 7.10698 11.2923 7.25171C11.3805 7.40436 11.2913 7.59457 11.0843 7.71403L10.9747 7.77736L11.0576 7.92096L11.2046 7.83609C11.4386 7.70096 11.6455 7.7172 11.7408 7.88229C11.8322 8.04059 11.7439 8.20618 11.5347 8.32695C11.3892 8.40906 11.2279 8.45904 11.0615 8.47351L11.1036 8.63009C11.2792 8.62073 11.4677 8.56612 11.6159 8.4806Z" fill="#F9F9F9"/>
<path d="M9.81556 9.91968L9.94666 9.78858L9.65953 9.50145L9.86541 9.29557L9.75277 9.18293L9.54689 9.38882L8.78337 8.62529L8.65596 8.7527L8.88677 10.1339L8.95694 10.204L9.52935 9.63163L9.81556 9.91968ZM9.41579 9.51992L9.00587 9.92984L8.82769 8.92812L9.41579 9.51992Z" fill="#F9F9F9"/>
<path d="M8.4016 11.7536C8.58113 11.4427 8.52503 11.1299 8.25026 10.9712C7.9868 10.8191 7.7109 10.9131 7.52876 11.2286C7.49337 11.2897 7.46422 11.3542 7.44175 11.4211L7.03739 11.1605L7.38404 10.5601L7.24044 10.4772L6.80631 11.2291L7.50474 11.6776C7.53661 11.5754 7.59094 11.4499 7.64186 11.3617C7.7796 11.1232 7.97463 11.0413 8.1646 11.1509C8.34664 11.2561 8.37929 11.4528 8.26048 11.6586C8.18682 11.7837 8.08442 11.8894 7.96177 11.9671L8.06599 12.0921C8.20437 12.0091 8.31975 11.8927 8.4016 11.7536Z" fill="#F9F9F9"/>
<path d="M7.47068 14.0046C7.55178 13.7019 7.39735 13.4308 7.09215 13.349C6.80964 13.2733 6.57331 13.4087 6.50066 13.6798C6.47417 13.7668 6.4723 13.8594 6.49525 13.9474C6.5182 14.0354 6.56508 14.1153 6.63068 14.1783L6.58528 14.1661C6.14513 14.0482 5.96734 13.8289 6.05621 13.4972C6.08549 13.3849 6.14109 13.2812 6.21839 13.1946L6.08663 13.1012C5.99435 13.1974 5.92787 13.3153 5.89337 13.4441C5.77712 13.8779 6.02928 14.2132 6.5615 14.3558C7.04201 14.4845 7.37605 14.3577 7.47068 14.0046ZM6.78918 14.2073C6.72214 14.1595 6.67183 14.0919 6.6454 14.014C6.61897 13.936 6.61775 13.8518 6.64193 13.7731C6.69633 13.57 6.86129 13.4791 7.06686 13.5342C7.26613 13.5875 7.36678 13.7416 7.31407 13.9383C7.25763 14.1489 7.07905 14.2403 6.78918 14.2073Z" fill="#F9F9F9"/>
<path d="M7.14026 16.5711V16.3726L5.61263 15.6989H5.51862V16.7865H5.68836V15.9261L7.14026 16.5711Z" fill="#F9F9F9"/>
<path opacity="0.35" d="M16.8178 8.87418C16.8178 8.68308 16.6632 8.52817 16.4725 8.52817C16.2817 8.52817 16.1271 8.68308 16.1271 8.87418V9.90957C16.1271 10.1007 16.2817 10.2556 16.4725 10.2556C16.6632 10.2556 16.8178 10.1007 16.8178 9.90957V8.87418Z" fill="black"/>
<path opacity="0.35" d="M14.8393 9.0428C14.7898 8.85822 14.6004 8.74861 14.4162 8.79798C14.2319 8.84734 14.1227 9.03699 14.1721 9.22157L14.4401 10.2217C14.4896 10.4063 14.679 10.5159 14.8632 10.4665C15.0475 10.4171 15.1567 10.2275 15.1073 10.0429L14.8393 9.0428Z" fill="black"/>
<path opacity="0.35" d="M12.9717 9.71881C12.8762 9.55332 12.6648 9.49648 12.4996 9.59184C12.3344 9.68721 12.278 9.89867 12.3735 10.0642L12.8912 10.9608C12.9868 11.1263 13.1981 11.1832 13.3633 11.0878C13.5285 10.9924 13.5849 10.781 13.4894 10.6155L12.9717 9.71881Z" fill="black"/>
<path opacity="0.9" d="M16.4731 10.9463C19.5255 10.9463 22 13.4207 22 16.4731C22 19.5255 19.5255 22 16.4731 22C13.4207 22 10.9463 19.5255 10.9463 16.4731C10.9463 13.4207 13.4207 10.9463 16.4731 10.9463Z" fill="#F9F9F9"/>
<path opacity="0.35" d="M11.343 10.8555C11.2079 10.7204 10.989 10.7202 10.8542 10.8551C10.7193 10.9899 10.7195 11.2088 10.8546 11.3439L11.5868 12.0761C11.7219 12.2112 11.9407 12.2114 12.0756 12.0765C12.2105 11.9417 12.2103 11.7228 12.0751 11.5877L11.343 10.8555Z" fill="black"/>
<path opacity="0.35" d="M10.0642 12.3735C9.89867 12.278 9.68721 12.3344 9.59184 12.4996C9.49648 12.6648 9.55332 12.8762 9.71881 12.9717L10.6155 13.4894C10.781 13.5849 10.9924 13.5285 11.0878 13.3633C11.1832 13.1981 11.1263 12.9868 10.9608 12.8912L10.0642 12.3735Z" fill="black"/>
<path opacity="0.35" d="M9.22157 14.1721C9.03699 14.1227 8.84734 14.2319 8.79797 14.4162C8.74861 14.6004 8.85822 14.7898 9.0428 14.8393L10.0429 15.1073C10.2275 15.1567 10.4171 15.0475 10.4665 14.8632C10.5159 14.679 10.4063 14.4896 10.2217 14.4401L9.22157 14.1721Z" fill="black"/>
<path opacity="0.35" d="M8.87287 16.1271C8.68178 16.1271 8.52687 16.2817 8.52687 16.4725C8.52687 16.6632 8.68178 16.8178 8.87287 16.8178H9.90826C10.0994 16.8178 10.2543 16.6632 10.2543 16.4725C10.2543 16.2817 10.0994 16.1271 9.90826 16.1271H8.87287Z" fill="black"/>
<path d="M16.4731 12.675L15.4469 13.9062C14.8502 14.1445 14.3551 14.5832 14.0468 15.1469C13.7384 15.7106 13.6361 16.3641 13.7574 16.9951C13.8788 17.6261 14.2161 18.1951 14.7115 18.6043C15.2068 19.0135 15.8293 19.2373 16.4718 19.2373C17.1144 19.2373 17.7368 19.0135 18.2322 18.6043C18.7276 18.1951 19.0649 17.6261 19.1862 16.9951C19.3075 16.3641 19.2052 15.7106 18.8969 15.1469C18.5886 14.5832 18.0935 14.1445 17.4968 13.9062L16.4731 12.675Z" fill="#3D3D3D"/>
<defs>
<radialGradient id="paint0_radial_4_25" cx="0" cy="0" r="1" gradientUnits="userSpaceOnUse" gradientTransform="translate(12 1) rotate(90) scale(22)">
<stop stop-color="#5E5E5E"/>
<stop offset="1" stop-color="#3D3D3D"/>
</radialGradient>
</defs>
</svg>
