<?xml version="1.0" encoding="UTF-8" standalone="no"?>
<svg
   width="24"
   height="24"
   viewBox="0 0 6.349875 6.349875"
   version="1.1"
   id="svg15"
   sodipodi:docname="desktop-environment-gnome.svg"
   inkscape:version="1.2.2 (b0a8486541, 2022-12-01)"
   inkscape:export-filename="../../../../../../../../../Imagens/Big Icons/desktop-environment-gnome.pdf"
   inkscape:export-xdpi="96"
   inkscape:export-ydpi="96"
   xml:space="preserve"
   xmlns:inkscape="http://www.inkscape.org/namespaces/inkscape"
   xmlns:sodipodi="http://sodipodi.sourceforge.net/DTD/sodipodi-0.dtd"
   xmlns="http://www.w3.org/2000/svg"
   xmlns:svg="http://www.w3.org/2000/svg"><sodipodi:namedview
     id="namedview17"
     pagecolor="#ffffff"
     bordercolor="#000000"
     borderopacity="0.25"
     inkscape:showpageshadow="2"
     inkscape:pageopacity="0.0"
     inkscape:pagecheckerboard="0"
     inkscape:deskcolor="#d1d1d1"
     showgrid="false"
     inkscape:zoom="9.656427"
     inkscape:cx="15.119464"
     inkscape:cy="21.850732"
     inkscape:window-width="2560"
     inkscape:window-height="998"
     inkscape:window-x="1680"
     inkscape:window-y="0"
     inkscape:window-maximized="1"
     inkscape:current-layer="svg15" /><defs
     id="defs7"><radialGradient
       id="a"
       cx="8.4659996"
       cy="11.641"
       r="7.408"
       gradientTransform="matrix(1,0,0,0.5,7.9046499,5.8587483)"
       gradientUnits="userSpaceOnUse"><stop
         stop-color="#4d8e34"
         offset="0"
         id="stop2" /><stop
         stop-color="#5eab40"
         offset="1"
         id="stop4" /></radialGradient><radialGradient
       id="paint0_radial_1_27-3"
       cx="0"
       cy="0"
       r="1"
       gradientUnits="userSpaceOnUse"
       gradientTransform="matrix(0,5.8207195,-5.8207195,0,3.1749381,0.26457658)"><stop
         stop-color="#9BDF6C"
         id="stop5989-67"
         offset="0"
         style="stop-color:#bddc95;stop-opacity:1;" /><stop
         offset="1"
         stop-color="#204705"
         id="stop5991-5"
         style="stop-color:#73b72f;stop-opacity:1;" /></radialGradient><radialGradient
       fx="0"
       fy="0"
       cx="0"
       cy="0"
       r="1"
       gradientUnits="userSpaceOnUse"
       gradientTransform="matrix(0,16.500002,-16.500002,0,9.000002,0.749996)"
       spreadMethod="pad"
       id="radialGradient10056"><stop
         style="stop-opacity:1;stop-color:#bddc95"
         offset="0"
         id="stop10052" /><stop
         style="stop-opacity:1;stop-color:#73b72f"
         offset="1"
         id="stop10054" /></radialGradient><radialGradient
       fx="8.4659996"
       fy="11.641"
       cx="8.4659996"
       cy="11.641"
       r="7.408"
       gradientUnits="userSpaceOnUse"
       gradientTransform="matrix(0.748823,0,0,0.374412,2.660463,7.117458)"
       spreadMethod="pad"
       id="radialGradient10074"><stop
         style="stop-opacity:1;stop-color:#4d8e34"
         offset="0"
         id="stop10070" /><stop
         style="stop-opacity:1;stop-color:#5eab40"
         offset="1"
         id="stop10072" /></radialGradient><radialGradient
       fx="0"
       fy="0"
       cx="0"
       cy="0"
       r="1"
       gradientUnits="userSpaceOnUse"
       gradientTransform="matrix(0,16.500002,-16.500002,0,9.000002,0.749996)"
       spreadMethod="pad"
       id="radialGradient10056-9"><stop
         style="stop-opacity:1;stop-color:#bddc95"
         offset="0"
         id="stop10052-6" /><stop
         style="stop-opacity:1;stop-color:#73b72f"
         offset="1"
         id="stop10054-3" /></radialGradient><radialGradient
       fx="8.4659996"
       fy="11.641"
       cx="8.4659996"
       cy="11.641"
       r="7.408"
       gradientUnits="userSpaceOnUse"
       gradientTransform="matrix(0.748823,0,0,0.374412,2.660463,7.117458)"
       spreadMethod="pad"
       id="radialGradient10074-8"><stop
         style="stop-opacity:1;stop-color:#4d8e34"
         offset="0"
         id="stop10070-5" /><stop
         style="stop-opacity:1;stop-color:#5eab40"
         offset="1"
         id="stop10072-6" /></radialGradient></defs><g
     id="g10040"
     transform="matrix(0.35277082,0,0,0.35277082,-1.1961624e-4,-9.2306512e-6)"><g
       id="g10042"><g
         id="g10044"><g
           id="g10050"><path
             d="m 7.195,0.836 c 0.09,0 0.176,-0.012 0.258,-0.035 1.078,-0.071 2.156,-0.067 3.231,0.008 0.976,0.078 1.921,0.289 2.836,0.636 1.519,0.625 2.558,1.711 3.121,3.254 0.316,0.93 0.507,1.887 0.566,2.867 0.078,1.235 0.051,2.465 -0.086,3.696 -0.105,0.863 -0.328,1.691 -0.672,2.488 -0.637,1.383 -1.672,2.336 -3.101,2.859 C 12.191,17 11,17.207 9.773,17.227 8.398,17.301 7.035,17.195 5.684,16.918 3.203,16.367 1.668,14.852 1.09,12.375 0.844,11.262 0.73,10.133 0.754,8.992 0.727,7.777 0.855,6.582 1.141,5.402 1.75,3.09 3.219,1.656 5.547,1.102 6.09,0.969 6.641,0.879 7.195,0.836 Z"
             style="fill:url(#radialGradient10056-9);fill-rule:evenodd;stroke:none"
             id="path10058" /></g></g></g><g
       id="g10060"><g
         id="g10062"><g
           id="g10068"><path
             d="m 14.547,11.477 c 0,1.531 -2.485,2.773 -5.547,2.773 -3.062,0 -5.547,-1.242 -5.547,-2.773 0,-1.532 2.485,-2.774 5.547,-2.774 3.062,0 5.547,1.242 5.547,2.774 z"
             style="fill:url(#radialGradient10074-8);stroke:none"
             id="path10076" /></g></g></g><path
       d="m 12.031,3.75 c -1.879,0 -2.23,2.852 -1.176,2.852 1.059,0 3.051,-2.852 1.176,-2.852 z M 9.051,4.074 C 7.977,4.227 8.352,6.25 8.926,6.285 9.496,6.324 10.125,3.922 9.047,4.074 Z M 7.105,4.703 C 7.047,4.711 6.984,4.723 6.93,4.746 5.926,5.129 6.777,6.703 7.34,6.598 7.867,6.5 7.93,4.621 7.105,4.703 Z M 5.785,5.969 C 5.684,5.969 5.582,5.996 5.492,6.051 4.668,6.539 5.773,7.719 6.258,7.535 6.684,7.375 6.414,5.988 5.785,5.969 Z M 9.641,6.922 C 8.16,6.895 6.207,7.672 5.875,9.23 c -0.359,1.688 1.484,4.032 3.41,4.032 0.945,0 2.039,-0.899 2.242,-2.032 0.157,-0.863 -1.961,-0.515 -1.89,0.055 0.058,0.469 -0.188,0.711 -0.524,0.719 C 8.652,11.949 8.43,11.684 8.367,11.281 8.285,10.227 11.605,9.473 11.344,7.84 11.246,7.242 10.527,6.938 9.641,6.922 Z"
       style="fill:#f9f9f9;fill-opacity:1;fill-rule:nonzero;stroke:none"
       id="path10078" /></g></svg>
