<svg width="24" height="24" viewBox="0 0 24 24" fill="none" xmlns="http://www.w3.org/2000/svg">
<path fill-rule="evenodd" clip-rule="evenodd" d="M9.59604 1.11359C9.71588 1.11486 9.83043 1.0996 9.93969 1.06779C11.3755 0.973736 12.8111 0.977551 14.2467 1.07924C15.5484 1.18066 16.8085 1.46308 18.0269 1.9265C20.0525 2.76044 21.4386 4.2069 22.185 6.26586C22.6119 7.50549 22.8639 8.78021 22.9411 10.09C23.0478 11.7347 23.0096 13.3758 22.8265 15.0133C22.6895 16.1642 22.3917 17.271 21.933 18.3336C21.0824 20.1761 19.704 21.447 17.7978 22.1463C16.2531 22.6682 14.6647 22.943 13.0325 22.9706C11.1966 23.0661 9.37913 22.9287 7.57997 22.5585C4.26839 21.8208 2.22559 19.8018 1.45158 16.5017C1.12311 15.0161 0.974199 13.5124 1.00483 11.9906C0.968176 10.3724 1.14 8.77709 1.52031 7.20471C2.33171 4.11908 4.2905 2.20701 7.39669 1.46852C8.12049 1.29157 8.8536 1.17326 9.59604 1.11359Z" fill="url(#paint0_radial_4_537)"/>
<path opacity="0.35" fill-rule="evenodd" clip-rule="evenodd" d="M11.9925 1C11.3082 1.00037 10.624 1.02296 9.93969 1.06779C9.83043 1.0996 9.71588 1.11486 9.59604 1.11359C8.8536 1.17326 8.12048 1.29157 7.39669 1.46852C5.82012 1.84335 4.53913 2.52051 3.55373 3.5H20.4508C19.7829 2.84132 18.975 2.31682 18.0269 1.9265C16.8085 1.46308 15.5484 1.18066 14.2467 1.07924C13.5066 1.02681 12.7664 1.0004 12.0262 1C12.0149 0.999999 12.0037 0.999999 11.9925 1Z" fill="black"/>
<path opacity="0.35" d="M12.7997 2H11.2003C11.0897 2 11 2.22385 11 2.49998C11 2.77612 11.0897 2.99997 11.2003 2.99997H12.7997C12.9103 2.99997 13 2.77612 13 2.49998C13 2.22385 12.9103 2 12.7997 2Z" fill="black"/>
<path opacity="0.35" d="M17.7997 2.49998C17.7997 2.22385 17.6355 2 17.4331 2C17.2307 2 17.0666 2.22385 17.0666 2.49998C17.0666 2.77612 17.2307 2.99997 17.4331 2.99997C17.6355 2.99997 17.7997 2.77612 17.7997 2.49998Z" fill="black"/>
<path opacity="0.35" d="M16.3334 2H15.9676C15.7648 2 15.6003 2.22385 15.6003 2.49998C15.6003 2.77612 15.7648 2.99997 15.9676 2.99997H16.3334C16.5363 2.99997 16.7007 2.77612 16.7007 2.49998C16.7007 2.22385 16.5363 2 16.3334 2Z" fill="black"/>
<path opacity="0.35" d="M15.2331 2.49998C15.2331 2.22385 15.069 2 14.8665 2C14.6641 2 14.5 2.22385 14.5 2.49998C14.5 2.77612 14.6641 2.99997 14.8665 2.99997C15.069 2.99997 15.2331 2.77612 15.2331 2.49998Z" fill="black"/>
<path opacity="0.35" d="M6.3 2.49998C6.3 2.22385 6.46411 2 6.66655 2C6.86899 2 7.0331 2.22385 7.0331 2.49998C7.0331 2.77612 6.86899 2.99997 6.66655 2.99997C6.46411 2.99997 6.3 2.77612 6.3 2.49998Z" fill="black"/>
<path opacity="0.35" d="M7.76621 2H8.13206C8.33489 2 8.49931 2.22385 8.49931 2.49998C8.49931 2.77612 8.33489 2.99997 8.13206 2.99997H7.76621C7.56338 2.99997 7.39896 2.77612 7.39896 2.49998C7.39896 2.22385 7.56338 2 7.76621 2Z" fill="black"/>
<path opacity="0.35" d="M8.86655 2.49998C8.86655 2.22385 9.03067 2 9.23311 2C9.43555 2 9.59966 2.22385 9.59966 2.49998C9.59966 2.77612 9.43555 2.99997 9.23311 2.99997C9.03067 2.99997 8.86655 2.77612 8.86655 2.49998Z" fill="black"/>
<path opacity="0.35" d="M5.73802 20.1196C5.641 20.1192 5.54486 20.138 5.45516 20.175C5.36545 20.2119 5.28395 20.2663 5.21534 20.3349C5.14674 20.4035 5.09239 20.485 5.05543 20.5747C5.01847 20.6644 4.99964 20.7605 5.00001 20.8576V21.5956H19V20.8576C19.0004 20.7605 18.9815 20.6644 18.9446 20.5747C18.9076 20.485 18.8533 20.4035 18.7847 20.3349C18.7161 20.2663 18.6345 20.2119 18.5448 20.175C18.4551 20.138 18.359 20.1192 18.262 20.1196H5.73802Z" fill="white"/>
<path d="M8.13169 19H6.65706C6.55554 19 6.47325 19.0823 6.47325 19.1838V20.6584C6.47325 20.76 6.55554 20.8423 6.65706 20.8423H8.13169C8.23321 20.8423 8.3155 20.76 8.3155 20.6584V19.1838C8.3155 19.0823 8.23321 19 8.13169 19Z" fill="#CCDFFF"/>
<path d="M11.2021 19H9.72747C9.62596 19 9.54367 19.0823 9.54367 19.1838V20.6584C9.54367 20.76 9.62596 20.8423 9.72747 20.8423H11.2021C11.3036 20.8423 11.3859 20.76 11.3859 20.6584V19.1838C11.3859 19.0823 11.3036 19 11.2021 19Z" fill="#CCDFFF"/>
<path d="M14.2725 19H12.7979C12.6964 19 12.6141 19.0823 12.6141 19.1838V20.6584C12.6141 20.76 12.6964 20.8423 12.7979 20.8423H14.2725C14.374 20.8423 14.4563 20.76 14.4563 20.6584V19.1838C14.4563 19.0823 14.374 19 14.2725 19Z" fill="#CCDFFF"/>
<path d="M17.3429 19H15.8683C15.7668 19 15.6845 19.0823 15.6845 19.1838V20.6584C15.6845 20.76 15.7668 20.8423 15.8683 20.8423H17.3429C17.4445 20.8423 17.5268 20.76 17.5268 20.6584V19.1838C17.5268 19.0823 17.4445 19 17.3429 19Z" fill="#CCDFFF"/>
<path fill-rule="evenodd" clip-rule="evenodd" d="M19 21.5899C18.6258 21.8041 18.225 21.9895 17.7978 22.1463C16.2531 22.6682 14.6647 22.943 13.0325 22.9706C11.1966 23.0661 9.37913 22.9287 7.57997 22.5585C6.61146 22.3427 5.75147 22.0174 5 21.5825L5 21H19V21.5899Z" fill="#C2C2FF" fill-opacity="0.992157"/>
<path d="M17 22C19.2091 22 21 20.2091 21 18C21 15.7909 19.2091 14 17 14C14.7909 14 13 15.7909 13 18C13 20.2091 14.7909 22 17 22Z" fill="#999999"/>
<path d="M16.7169 14.9729C16.4494 14.9729 16.2265 15.1779 16.2042 15.4444V15.4444C16.1875 15.6434 16.0547 15.8104 15.8788 15.9047C15.8339 15.9288 15.7899 15.9542 15.7466 15.9811C15.5768 16.0867 15.3654 16.1183 15.1845 16.033V16.033C14.9424 15.9188 14.6533 16.0094 14.5195 16.2412L14.2357 16.7332C14.1024 16.9642 14.1685 17.2588 14.3876 17.4108V17.4108C14.5523 17.5249 14.6304 17.7245 14.6229 17.9247C14.6219 17.9498 14.6214 17.9749 14.6212 18C14.6213 18.0263 14.6217 18.0525 14.6226 18.0788C14.6294 18.278 14.5513 18.4762 14.3875 18.5898V18.5898C14.1686 18.7414 14.1026 19.0356 14.2356 19.2663L14.5197 19.7589C14.6534 19.9908 14.9424 20.0815 15.1846 19.9677V19.9677C15.3646 19.8832 15.5747 19.9142 15.7441 20.0184C15.7875 20.0451 15.8318 20.0705 15.8769 20.0944C16.054 20.1883 16.1878 20.3559 16.2043 20.5557V20.5557C16.2263 20.8221 16.449 21.0271 16.7163 21.0271H17.2829C17.5503 21.0271 17.7732 20.8222 17.7955 20.5556V20.5556C17.8122 20.3567 17.945 20.1896 18.121 20.0954C18.1658 20.0714 18.2099 20.0459 18.2531 20.0191C18.4229 19.9136 18.6342 19.8821 18.815 19.9672V19.9672C19.0572 20.0813 19.3464 19.9907 19.4801 19.7588L19.7638 19.2672C19.8972 19.0359 19.8313 18.7409 19.612 18.5885V18.5885C19.4473 18.474 19.3693 18.2742 19.3768 18.0738C19.3777 18.0492 19.3783 18.0246 19.3784 18C19.3784 17.9737 19.3779 17.9474 19.3771 17.9212C19.3702 17.722 19.4484 17.5238 19.6122 17.4104V17.4104C19.831 17.2589 19.8972 16.9649 19.7643 16.7343L19.4799 16.2408C19.3463 16.009 19.0572 15.9183 18.8151 16.0323V16.0323C18.6351 16.1171 18.4249 16.0861 18.2555 15.9818C18.212 15.955 18.1677 15.9296 18.1226 15.9057C17.9456 15.8118 17.8119 15.6441 17.7955 15.4443V15.4443C17.7737 15.1779 17.5511 14.9729 17.2838 14.9729H16.7169ZM17.0005 16.991C17.2681 16.991 17.5247 17.0973 17.714 17.2865C17.9032 17.4757 18.0095 17.7324 18.0095 18C18.0095 18.2676 17.9032 18.5243 17.714 18.7135C17.5247 18.9027 17.2681 19.009 17.0005 19.009C16.7329 19.009 16.4762 18.9027 16.287 18.7135C16.0977 18.5243 15.9914 18.2676 15.9914 18C15.9914 17.7324 16.0977 17.4757 16.287 17.2865C16.4762 17.0973 16.7329 16.991 17.0005 16.991Z" fill="white"/>
<defs>
<radialGradient id="paint0_radial_4_537" cx="0" cy="0" r="1" gradientUnits="userSpaceOnUse" gradientTransform="translate(12 1) rotate(90) scale(22)">
<stop stop-color="#68BBFF" stop-opacity="0.87451"/>
<stop offset="1" stop-color="#A99EFF"/>
</radialGradient>
</defs>
</svg>
