<?xml version="1.0" encoding="UTF-8" standalone="no"?>
<svg
   width="24"
   height="24"
   viewBox="0 0 24 24"
   fill="none"
   version="1.1"
   id="svg154"
   sodipodi:docname="desktop-environment-xfce.svg"
   inkscape:version="1.2.2 (b0a8486541, 2022-12-01)"
   xmlns:inkscape="http://www.inkscape.org/namespaces/inkscape"
   xmlns:sodipodi="http://sodipodi.sourceforge.net/DTD/sodipodi-0.dtd"
   xmlns:xlink="http://www.w3.org/1999/xlink"
   xmlns="http://www.w3.org/2000/svg"
   xmlns:svg="http://www.w3.org/2000/svg"
   xmlns:sketch="http://www.bohemiancoding.com/sketch/ns">
  <sodipodi:namedview
     id="namedview156"
     pagecolor="#ffffff"
     bordercolor="#000000"
     borderopacity="1"
     inkscape:showpageshadow="0"
     inkscape:pageopacity="1"
     inkscape:pagecheckerboard="false"
     inkscape:deskcolor="#ffffff"
     showgrid="true"
     inkscape:zoom="32"
     inkscape:cx="6.5"
     inkscape:cy="12.484375"
     inkscape:window-width="1920"
     inkscape:window-height="1052"
     inkscape:window-x="0"
     inkscape:window-y="0"
     inkscape:window-maximized="1"
     inkscape:current-layer="svg154"
     showguides="true"
     guidecolor="#ff0000"
     guideopacity="1"
     inkscape:lockguides="true"
     showborder="true"
     borderlayer="true">
    <inkscape:grid
       type="xygrid"
       id="grid356"
       color="#000000"
       opacity="0.10196078"
       empcolor="#000000"
       empopacity="0.10196078"
       snapvisiblegridlinesonly="true"
       enabled="true"
       visible="true"
       dotted="false" />
    <sodipodi:guide
       position="4,12"
       orientation="-1,0"
       id="guide764"
       inkscape:locked="true"
       inkscape:label="left-circle"
       inkscape:color="rgb(255,0,0)" />
    <sodipodi:guide
       position="5,12"
       orientation="-1,0"
       id="guide2218"
       inkscape:locked="true"
       inkscape:label="left-square"
       inkscape:color="rgb(255,0,0)" />
    <sodipodi:guide
       position="12,20"
       orientation="0,1"
       id="guide2220"
       inkscape:locked="true"
       inkscape:label="top-circle"
       inkscape:color="rgb(255,0,0)" />
    <sodipodi:guide
       position="12,5"
       orientation="0,1"
       id="guide2222"
       inkscape:locked="true"
       inkscape:label="bottom-square"
       inkscape:color="rgb(255,0,0)" />
    <sodipodi:guide
       position="12,4"
       orientation="0,1"
       id="guide2224"
       inkscape:locked="true"
       inkscape:label="bottom-circle"
       inkscape:color="rgb(255,0,0)" />
    <sodipodi:guide
       position="19,12"
       orientation="-1,0"
       id="guide2226"
       inkscape:locked="true"
       inkscape:label="right-square"
       inkscape:color="rgb(255,0,0)" />
    <sodipodi:guide
       position="20,12"
       orientation="-1,0"
       id="guide2228"
       inkscape:locked="true"
       inkscape:label="right-circle"
       inkscape:color="rgb(255,0,0)" />
    <sodipodi:guide
       position="12,19"
       orientation="0,1"
       id="guide2230"
       inkscape:locked="true"
       inkscape:label="top-square"
       inkscape:color="rgb(255,0,0)" />
    <sodipodi:guide
       position="12,12"
       orientation="1,0"
       id="guide765"
       inkscape:locked="true" />
    <sodipodi:guide
       position="12,12"
       orientation="0,-1"
       id="guide767"
       inkscape:locked="true" />
    <sodipodi:guide
       position="12,12"
       orientation="0.70710678,0.70710678"
       id="guide2266"
       inkscape:locked="true"
       inkscape:label=""
       inkscape:color="rgb(255,0,0)" />
    <sodipodi:guide
       position="12,12"
       orientation="-0.70710678,0.70710678"
       id="guide2994"
       inkscape:locked="true"
       inkscape:label=""
       inkscape:color="rgb(255,0,0)" />
    <sodipodi:guide
       position="3,12"
       orientation="-1,0"
       id="guide131543"
       inkscape:locked="true"
       inkscape:label="left-horizontal"
       inkscape:color="rgb(255,0,0)" />
    <sodipodi:guide
       position="12,21"
       orientation="0,1"
       id="guide131545"
       inkscape:locked="true"
       inkscape:label="top-vertical"
       inkscape:color="rgb(255,0,0)" />
    <sodipodi:guide
       position="21,12"
       orientation="-1,0"
       id="guide131547"
       inkscape:locked="true"
       inkscape:label="right-horizontal"
       inkscape:color="rgb(255,0,0)" />
    <sodipodi:guide
       position="12,3"
       orientation="0,1"
       id="guide131549"
       inkscape:locked="true"
       inkscape:label="bottom-vertical"
       inkscape:color="rgb(255,0,0)" />
  </sodipodi:namedview>
  <defs
     id="defs152">
    <radialGradient
       id="radialGradient66380"
       cx="0"
       cy="0"
       r="1"
       gradientUnits="userSpaceOnUse"
       gradientTransform="translate(12 1) rotate(90) scale(22)">
      <stop
         stop-color="#8FC8FF"
         id="stop66376"
         offset="0"
         style="stop-color:#68a8f5;stop-opacity:1;" />
      <stop
         offset="1"
         stop-color="#0056A8"
         id="stop66378"
         style="stop-color:#cccccc;stop-opacity:1;" />
    </radialGradient>
    <radialGradient
       id="paint0_radial_29_23"
       cx="0"
       cy="0"
       r="1"
       gradientUnits="userSpaceOnUse"
       gradientTransform="translate(12 1) rotate(90) scale(22)">
      <stop
         stop-color="#8FC8FF"
         id="stop147"
         offset="0"
         style="stop-color:#f6f6f6;stop-opacity:1;" />
      <stop
         offset="1"
         stop-color="#0056A8"
         id="stop149"
         style="stop-color:#cfcfcf;stop-opacity:1;" />
    </radialGradient>
    <radialGradient
       id="paint0_radial_10_2"
       cx="0"
       cy="0"
       r="1"
       gradientUnits="userSpaceOnUse"
       gradientTransform="matrix(-10.999959,21.999967,-21.999967,-10.999959,17.5,1)"
       xlink:href="#paint0_radial_29_23">
      <stop
         stop-color="#777777"
         id="stop2847" />
      <stop
         offset="1"
         stop-color="#222222"
         id="stop2849" />
    </radialGradient>
  </defs>
  <path
     d="M 50,5 C 9.0909092,5 5,25.454546 5,50 5,82.727274 17.272728,95 50,95 82.727274,95 95,82.727274 95,50 95,25.454546 90.909093,5 50,5 Z"
     sketch:type="MSShapeGroup"
     id="path6"
     style="font-variation-settings:normal;display:inline;opacity:1;vector-effect:none;fill:#0044aa;fill-opacity:1;stroke-width:4.56656;stroke-linecap:butt;stroke-linejoin:miter;stroke-miterlimit:4;stroke-dasharray:none;stroke-dashoffset:0;stroke-opacity:1;-inkscape-stroke:none;stop-color:#000000;stop-opacity:1"
     sodipodi:nodetypes="sssss"
     inkscape:label="Shape"
     transform="matrix(0.24444444,0,0,0.24444444,-0.22222222,-0.22222222)" />
  <path
     d="m 4.0847596,7.6836834 -0.098221,0.1925139 c 0.4989645,0.2763294 1.9343059,0.997929 2.6153073,1.4248645 0.8617287,0.5277761 2.0272888,1.6042822 2.1176524,1.7837002 -0.8970883,1.561064 -0.4897971,2.941402 -0.5958762,3.088079 -0.075958,0.121795 -0.7805324,0.895779 -0.5526588,1.009716 0.2239447,0.113936 0.5814704,-0.06286 0.6364744,-0.09822 0.1126271,-0.0681 0.2278735,-0.17025 0.1794176,0.02881 -0.095602,0.405981 -0.5264664,1.384266 0.06941,1.177346 0.073339,-0.04191 1.0345983,-1.101388 1.1485351,-1.136748 1.9094236,0.497655 4.0454106,0.268472 4.4409156,0.08382 0.20561,0.0131 0.78839,0.379789 1.121033,0.556587 0.331333,0.17287 1.237588,0.606353 0.969117,-0.183346 -0.08251,-0.248828 -0.678382,-0.882683 -0.58147,-0.92721 0.212158,-0.08382 0.738624,0.221326 0.940306,0.277639 0.606352,0.17025 0.687549,-0.06548 0.30514,-0.58278 -0.37848,-0.517299 -0.434794,-0.437412 -0.553968,-0.677072 -0.09298,-0.189895 0,-0.403363 0.0681,-0.454438 0.123104,-0.09429 1.931687,-1.09746 2.354694,-1.481178 0.628616,-0.572303 0,-1.283426 -0.153226,-1.384266 C 17.213681,9.4438141 15.876562,9.6454953 15.858227,9.4961989 15.849027,9.3259485 15.853027,8.837461 15.832037,8.6672106 15.701075,7.5186756 15.16937,7.8081012 15.097341,7.8081012 14.566946,7.8919172 14.760769,8.7051895 14.987333,9.4686969 15.003053,9.6651396 14.800058,9.5773952 14.682192,9.3717849 14.2749,8.2769442 14.102031,8.2952789 13.988095,8.263848 13.879396,8.237656 13.496988,8.4733869 13.503536,8.9160379 c 0.0026,0.1257233 0.151916,0.7281476 0.151916,0.9128038 -0.250138,0.2187063 -0.261925,0.7176713 -0.526467,0.8983983 -0.766126,0.159773 -2.60614,-0.37717 -2.835324,-0.402053 -0.7962498,-0.1493 -1.141989,0.449195 -1.2716412,0.305137 C 7.9900408,9.4464294 6.411951,8.5676756 5.72964,8.4157599 5.4637875,8.3581367 4.570628,7.9639417 4.2484619,7.7648798 4.1960772,7.7347585 4.138454,7.7111854 4.0808308,7.6823738 M 18.27971,8.7195913 c -0.248827,0.2684717 -0.2043,1.2703296 -0.153225,1.2611623 0.254066,-0.052385 0.230493,-1.341049 0.153225,-1.2611623 M 19,8.8728167 c -0.02619,-0.082506 -0.683621,0.8381555 -0.568374,1.1786563 0.05238,0.145368 0.658738,-0.9219712 0.569684,-1.1786563 m -3.405007,1.5636843 c 0.0079,-0.0079 0.01964,0.0039 0.02881,0.0131 0.07596,0.254066 0.161083,0.493726 0.662667,0.555278 0.05893,0.0065 -0.277639,0.2043 -0.510751,0.0812 -0.209539,-0.125723 -0.229183,-0.590638 -0.180727,-0.648261 m 1.30045,1.27033 a 0.3405007,0.3405007 0 0 1 0.112628,0 c 0.121794,0.03143 -0.890541,0.559207 -0.969118,0.487178 -0.04846,-0.04584 0.540872,-0.426936 0.8578,-0.487178 m 0.263233,0.335262 c 0.106079,0.0079 -0.585399,0.724219 -0.662667,0.649571 -0.05762,-0.05239 0.44789,-0.666596 0.662667,-0.649571"
     fill="#f9f9f9"
     id="path39236"
     style="stroke-width:1.30962" />
</svg>
