<?xml version="1.0" encoding="UTF-8" standalone="no"?>
<svg
   width="24"
   height="24"
   viewBox="0 0 24 24"
   fill="none"
   version="1.1"
   id="svg18"
   sodipodi:docname="desktop-profiler.svg"
   inkscape:version="1.3 (0e150ed6c4, 2023-07-21)"
   xmlns:inkscape="http://www.inkscape.org/namespaces/inkscape"
   xmlns:sodipodi="http://sodipodi.sourceforge.net/DTD/sodipodi-0.dtd"
   xmlns="http://www.w3.org/2000/svg"
   xmlns:svg="http://www.w3.org/2000/svg">
  <sodipodi:namedview
     id="namedview18"
     pagecolor="#ffffff"
     bordercolor="#000000"
     borderopacity="0.25"
     inkscape:showpageshadow="2"
     inkscape:pageopacity="0.0"
     inkscape:pagecheckerboard="0"
     inkscape:deskcolor="#d1d1d1"
     inkscape:zoom="11.947158"
     inkscape:cx="-13.057498"
     inkscape:cy="8.9142537"
     inkscape:window-width="2560"
     inkscape:window-height="998"
     inkscape:window-x="0"
     inkscape:window-y="0"
     inkscape:window-maximized="1"
     inkscape:current-layer="svg18" />
  <defs
     id="defs18">
    <radialGradient
       id="paint0_radial_4_537"
       cx="0"
       cy="0"
       r="1"
       gradientUnits="userSpaceOnUse"
       gradientTransform="translate(12 1) rotate(90) scale(22)">
      <stop
         stop-color="#68BBFF"
         stop-opacity="0.87451"
         id="stop17" />
      <stop
         offset="1"
         stop-color="#A99EFF"
         id="stop18" />
    </radialGradient>
    <radialGradient
       id="paint0_radial_4_537-0"
       cx="0"
       cy="0"
       r="1"
       gradientUnits="userSpaceOnUse"
       gradientTransform="matrix(0,19.405241,-26.587216,0,12,1)"
       fx="0"
       fy="0">
      <stop
         stop-color="#68BBFF"
         stop-opacity="0.87451"
         id="stop17-2"
         offset="0"
         style="stop-color:#66bcff;stop-opacity:1;" />
      <stop
         offset="1"
         stop-color="#A99EFF"
         id="stop18-1"
         style="stop-color:#b29aff;stop-opacity:1;" />
    </radialGradient>
  </defs>
  <path
     fill-rule="evenodd"
     clip-rule="evenodd"
     d="M 9.59604,1.11359 C 9.71588,1.11486 9.83043,1.0996 9.93969,1.06779 11.3755,0.973736 12.8111,0.977551 14.2467,1.07924 c 1.3017,0.10142 2.5618,0.38384 3.7802,0.84726 2.0256,0.83394 3.4117,2.2804 4.1581,4.33936 0.4269,1.23963 0.6789,2.51435 0.7561,3.82414 0.1067,1.6447 0.0685,3.2858 -0.1146,4.9233 -0.137,1.1509 -0.4348,2.2577 -0.8935,3.3203 -0.8506,1.8425 -2.229,3.1134 -4.1352,3.8127 -1.5447,0.5219 -3.1331,0.7967 -4.7653,0.8243 C 11.1966,23.0661 9.37913,22.9287 7.57997,22.5585 4.26839,21.8208 2.22559,19.8018 1.45158,16.5017 1.12311,15.0161 0.974199,13.5124 1.00483,11.9906 0.96818,10.3724 1.14,8.77709 1.52031,7.20471 2.33171,4.11908 4.2905,2.20701 7.39669,1.46852 8.12049,1.29157 8.8536,1.17326 9.59604,1.11359 Z"
     fill="url(#paint0_radial_4_537)"
     id="path1-0"
     style="fill:url(#paint0_radial_4_537-0)" />
  <path
     opacity="0.35"
     fill-rule="evenodd"
     clip-rule="evenodd"
     d="M 11.9925,1 C 11.3082,1.00037 10.624,1.02296 9.93969,1.06779 9.83043,1.0996 9.71588,1.11486 9.59604,1.11359 8.8536,1.17326 8.12048,1.29157 7.39669,1.46852 5.82012,1.84335 4.53913,2.52051 3.55373,3.5 H 20.4508 C 19.7829,2.84132 18.975,2.31682 18.0269,1.9265 16.8085,1.46308 15.5484,1.18066 14.2467,1.07924 13.5066,1.02681 12.7664,1.0004 12.0262,1 c -0.0113,-1e-6 -0.0225,-1e-6 -0.0337,0 z"
     fill="#000000"
     id="path2-5" />
  <rect
     x="5.987009"
     y="2.05865"
     width="1.4879427"
     height="0.74378526"
     ry="0.37282282"
     opacity="0.35"
     style="fill:#000000;stroke-width:1.40646;paint-order:stroke markers fill"
     id="rect1" />
  <rect
     x="10.139421"
     y="2.05865"
     width="3.721159"
     height="0.74378526"
     ry="0.37282282"
     opacity="0.35"
     style="fill:#000000;stroke-width:1.40646;paint-order:stroke markers fill"
     id="rect11" />
  <rect
     x="17.256723"
     y="2.05865"
     width="0.74378526"
     height="0.74378526"
     ry="0.37282282"
     opacity="0.35"
     style="fill:#000000;stroke-width:1.40646;paint-order:stroke markers fill"
     id="rect12" />
  <rect
     x="15.76878"
     y="2.05865"
     width="1.116608"
     height="0.74378526"
     ry="0.37282282"
     opacity="0.35"
     style="fill:#000000;stroke-width:1.40646;paint-order:stroke markers fill"
     id="rect13" />
  <rect
     x="14.652172"
     y="2.05865"
     width="0.74378526"
     height="0.74378526"
     ry="0.37282282"
     opacity="0.35"
     style="fill:#000000;stroke-width:1.40646;paint-order:stroke markers fill"
     id="rect14" />
  <g
     fill="#ccdfff"
     id="g19"
     transform="matrix(0.36814443,0,0,0.36814443,0.225811,1.2947371)"
     style="stroke-width:3.78">
    <rect
       x="17.000999"
       y="48.000999"
       width="5"
       height="5"
       ry="0.49900001"
       style="paint-order:stroke markers fill"
       id="rect16" />
    <rect
       x="25.334999"
       y="48.000999"
       width="5"
       height="5"
       ry="0.49900001"
       style="paint-order:stroke markers fill"
       id="rect17" />
    <rect
       x="33.668999"
       y="48.000999"
       width="5"
       height="5"
       ry="0.49900001"
       style="paint-order:stroke markers fill"
       id="rect18" />
    <rect
       x="42.002998"
       y="48.000999"
       width="5"
       height="5"
       ry="0.49900001"
       style="paint-order:stroke markers fill"
       id="rect19" />
  </g>
  <path
     id="path20"
     style="opacity:0.35;fill:#ffffff"
     d="m 5.748047,20.083984 c -0.407904,0 -0.736328,0.328426 -0.736328,0.736328 v 0.763672 c 0.749593,0.432651 1.603233,0.759615 2.568359,0.97461 1.799158,0.370199 3.617227,0.507609 5.453125,0.412109 1.632198,-0.0276 3.218974,-0.302319 4.763672,-0.824219 0.428368,-0.157149 0.830019,-0.343712 1.205078,-0.558593 v -0.767579 c 0,-0.407902 -0.328425,-0.736328 -0.736328,-0.736328 z" />
  <path
     id="circle1009"
     style="fill:#f9f9f9;fill-opacity:1;stroke-width:2.00803;paint-order:markers stroke fill"
     d="m 18.453119,11.390625 a 8.4999999,8.4999999 0 0 0 -8.499998,8.500001 8.4999999,8.4999999 0 0 0 0.57422,3.064453 c 0.830975,0.05398 1.664298,0.05875 2.501952,0.01368 1.635997,-0.02668 3.224912,-0.302894 4.767577,-0.824229 1.905332,-0.697332 3.285434,-1.966549 4.134764,-3.810547 0.458666,-1.062665 0.756483,-2.167693 0.896487,-3.318359 0.08591,-0.771808 0.136482,-1.542404 0.158215,-2.314454 A 8.4999999,8.4999999 0 0 0 18.45313,11.390625 Z" />
  <path
     id="path1011"
     style="font-variant-ligatures:normal;font-variant-position:normal;font-variant-caps:normal;font-variant-numeric:normal;font-variant-alternates:normal;font-variant-east-asian:normal;font-feature-settings:normal;font-variation-settings:normal;text-indent:0;text-decoration-line:none;text-decoration-style:solid;text-decoration-color:#000000;text-transform:none;text-orientation:mixed;white-space:normal;shape-padding:0;shape-margin:0;inline-size:0;isolation:auto;mix-blend-mode:normal;fill:#666666;fill-opacity:1;stroke-width:2.00803"
     d="m 18.060543,13.517579 a 1.5843374,1.5843374 0 0 0 -1.58203,1.582031 0.78313259,0.78313259 0 0 1 -0.789064,0.779297 0.73694782,0.73694782 0 0 1 -0.367188,-0.103516 0.39759039,0.39759039 0 0 0 -0.0057,-0.002 1.5943776,1.5943776 0 0 0 -2.164064,0.583984 l -0.412109,0.675781 a 0.39759039,0.39759039 0 0 0 -0.0038,0.0098 1.5923696,1.5923696 0 0 0 0.576174,2.164062 0.78915667,0.78915667 0 0 1 0,1.371094 1.5883535,1.5883535 0 0 0 -0.576174,2.160156 l 0.136708,0.238281 c 0.05235,-0.0024 0.103864,-0.005 0.156249,-0.0078 0.249038,-0.004 0.497301,-0.01368 0.744143,-0.02929 l -0.34572,-0.597636 a 0.7791165,0.7791165 0 0 1 0.285171,-1.072266 1.5903615,1.5903615 0 0 0 0,-2.751953 0.78313259,0.78313259 0 0 1 -0.285171,-1.078125 l 0.408201,-0.673828 a 0.39759039,0.39759039 0 0 0 0.0057,-0.0078 0.78514062,0.78514062 0 0 1 1.080078,-0.294922 1.5401607,1.5401607 0 0 0 0.761718,0.21289 0.39759039,0.39759039 0 0 0 0.0038,0 c 0.863454,0 1.57389,-0.702953 1.58594,-1.566406 a 0.39759039,0.39759039 0 0 0 0.002,0 0.39759039,0.39759039 0 0 0 0,-0.002 0.39759039,0.39759039 0 0 0 0,-0.002 0.39759039,0.39759039 0 0 0 -0.002,-0.002 0.78313259,0.78313259 0 0 1 0.789062,-0.789062 h 0.777343 a 0.7911647,0.7911647 0 0 1 0.792968,0.814453 0.39759039,0.39759039 0 0 0 0,0.01561 1.5823294,1.5823294 0 0 0 2.376954,1.332031 0.78313259,0.78313259 0 0 1 0.568357,-0.08789 c 0.06165,-0.256291 0.115278,-0.514321 0.160142,-0.775391 a 1.5943776,1.5943776 0 0 0 -1.123044,0.169923 0.39759039,0.39759039 0 0 0 -0.0057,0.0039 0.78514062,0.78514062 0 0 1 -1.076162,-0.281209 0.73694782,0.73694782 0 0 1 -0.103523,-0.369139 1.5903615,1.5903615 0 0 0 -1.587891,-1.619141 h -0.779297 z m 0.392576,3.984375 c -1.317265,0 -2.390623,1.073412 -2.390623,2.388672 0,1.061552 0.698659,1.969311 1.660156,2.279297 0.02494,-0.0083 0.04936,-0.01701 0.07423,-0.0254 1.234086,-0.451662 2.247201,-1.143466 3.039065,-2.076172 0.0042,-0.05795 0.0057,-0.11679 0.0057,-0.175782 0,-1.31526 -1.073414,-2.388672 -2.388674,-2.388672 z m 0,0.796875 c 0.883535,0 1.591798,0.708209 1.591798,1.59375 0,0.885541 -0.708263,1.59375 -1.591798,1.59375 -0.883529,0 -1.593747,-0.710217 -1.593747,-1.59375 0,-0.883533 0.708207,-1.59375 1.593747,-1.59375 z" />
</svg>
