<?xml version="1.0" encoding="UTF-8" standalone="no"?>
<svg
   width="24"
   height="24"
   viewBox="0 0 24 24"
   fill="none"
   version="1.1"
   id="svg18"
   sodipodi:docname="desktop-profiler.svg"
   xmlns:inkscape="http://www.inkscape.org/namespaces/inkscape"
   xmlns:sodipodi="http://sodipodi.sourceforge.net/DTD/sodipodi-0.dtd"
   xmlns="http://www.w3.org/2000/svg"
   xmlns:svg="http://www.w3.org/2000/svg">
  <sodipodi:namedview
     id="namedview18"
     pagecolor="#ffffff"
     bordercolor="#000000"
     borderopacity="0.25"
     inkscape:showpageshadow="2"
     inkscape:pageopacity="0.0"
     inkscape:pagecheckerboard="0"
     inkscape:deskcolor="#d1d1d1" />
  <path
     fill-rule="evenodd"
     clip-rule="evenodd"
     d="M 9.59604,1.11359 C 9.71588,1.11486 9.83043,1.0996 9.93969,1.06779 11.3755,0.973736 12.8111,0.977551 14.2467,1.07924 c 1.3017,0.10142 2.5618,0.38384 3.7802,0.84726 2.0256,0.83394 3.4117,2.2804 4.1581,4.33936 0.4269,1.23963 0.6789,2.51435 0.7561,3.82414 0.1067,1.6447 0.0685,3.2858 -0.1146,4.9233 -0.137,1.1509 -0.4348,2.2577 -0.8935,3.3203 -0.8506,1.8425 -2.229,3.1134 -4.1352,3.8127 -1.5447,0.5219 -3.1331,0.7967 -4.7653,0.8243 C 11.1966,23.0661 9.37913,22.9287 7.57997,22.5585 4.26839,21.8208 2.22559,19.8018 1.45158,16.5017 1.12311,15.0161 0.974199,13.5124 1.00483,11.9906 0.968176,10.3724 1.14,8.77709 1.52031,7.20471 2.33171,4.11908 4.2905,2.20701 7.39669,1.46852 8.12049,1.29157 8.8536,1.17326 9.59604,1.11359 Z"
     fill="url(#paint0_radial_4_537)"
     id="path1"
     style="fill:url(#paint0_radial_4_537)" />
  <path
     opacity="0.35"
     fill-rule="evenodd"
     clip-rule="evenodd"
     d="M 11.9925,1 C 11.3082,1.00037 10.624,1.02296 9.93969,1.06779 9.83043,1.0996 9.71588,1.11486 9.59604,1.11359 8.8536,1.17326 8.12048,1.29157 7.39669,1.46852 5.82012,1.84335 4.53913,2.52051 3.55373,3.5 H 20.4508 C 19.7829,2.84132 18.975,2.31682 18.0269,1.9265 16.8085,1.46308 15.5484,1.18066 14.2467,1.07924 13.5066,1.02681 12.7664,1.0004 12.0262,1 c -0.0113,-1e-6 -0.0225,-1e-6 -0.0337,0 z"
     fill="#000000"
     id="path2" />
  <path
     opacity="0.35"
     d="M 12.7997,2 H 11.2003 C 11.0897,2 11,2.22385 11,2.49998 c 0,0.27614 0.0897,0.49999 0.2003,0.49999 h 1.5994 C 12.9103,2.99997 13,2.77612 13,2.49998 13,2.22385 12.9103,2 12.7997,2 Z"
     fill="#000000"
     id="path3" />
  <path
     opacity="0.35"
     d="M 17.7997,2.49998 C 17.7997,2.22385 17.6355,2 17.4331,2 c -0.2024,0 -0.3665,0.22385 -0.3665,0.49998 0,0.27614 0.1641,0.49999 0.3665,0.49999 0.2024,0 0.3666,-0.22385 0.3666,-0.49999 z"
     fill="#000000"
     id="path4" />
  <path
     opacity="0.35"
     d="m 16.3334,2 h -0.3658 c -0.2028,0 -0.3673,0.22385 -0.3673,0.49998 0,0.27614 0.1645,0.49999 0.3673,0.49999 h 0.3658 c 0.2029,0 0.3673,-0.22385 0.3673,-0.49999 C 16.7007,2.22385 16.5363,2 16.3334,2 Z"
     fill="#000000"
     id="path5" />
  <path
     opacity="0.35"
     d="M 15.2331,2.49998 C 15.2331,2.22385 15.069,2 14.8665,2 14.6641,2 14.5,2.22385 14.5,2.49998 c 0,0.27614 0.1641,0.49999 0.3665,0.49999 0.2025,0 0.3666,-0.22385 0.3666,-0.49999 z"
     fill="#000000"
     id="path6" />
  <path
     opacity="0.35"
     d="M 6.3,2.49998 C 6.3,2.22385 6.46411,2 6.66655,2 6.86899,2 7.0331,2.22385 7.0331,2.49998 7.0331,2.77612 6.86899,2.99997 6.66655,2.99997 6.46411,2.99997 6.3,2.77612 6.3,2.49998 Z"
     fill="#000000"
     id="path7" />
  <path
     opacity="0.35"
     d="m 7.76621,2 h 0.36585 c 0.20283,0 0.36725,0.22385 0.36725,0.49998 0,0.27614 -0.16442,0.49999 -0.36725,0.49999 H 7.76621 C 7.56338,2.99997 7.39896,2.77612 7.39896,2.49998 7.39896,2.22385 7.56338,2 7.76621,2 Z"
     fill="#000000"
     id="path8" />
  <path
     opacity="0.35"
     d="M 8.86655,2.49998 C 8.86655,2.22385 9.03067,2 9.23311,2 c 0.20244,0 0.36655,0.22385 0.36655,0.49998 0,0.27614 -0.16411,0.49999 -0.36655,0.49999 -0.20244,0 -0.36656,-0.22385 -0.36656,-0.49999 z"
     fill="#000000"
     id="path9" />
  <path
     opacity="0.35"
     d="M 5.73802,20.1196 C 5.641,20.1192 5.54486,20.138 5.45516,20.175 5.36545,20.2119 5.28395,20.2663 5.21534,20.3349 5.14674,20.4035 5.09239,20.485 5.05543,20.5747 5.01847,20.6644 4.99964,20.7605 5.00001,20.8576 v 0.738 H 19 v -0.738 c 4e-4,-0.0971 -0.0185,-0.1932 -0.0554,-0.2829 -0.037,-0.0897 -0.0913,-0.1712 -0.1599,-0.2398 -0.0686,-0.0686 -0.1502,-0.123 -0.2399,-0.1599 -0.0897,-0.037 -0.1858,-0.0558 -0.2828,-0.0554 z"
     fill="#ffffff"
     id="path10" />
  <path
     d="M 8.13169,19 H 6.65706 c -0.10152,0 -0.18381,0.0823 -0.18381,0.1838 v 1.4746 c 0,0.1016 0.08229,0.1839 0.18381,0.1839 h 1.47463 c 0.10152,0 0.18381,-0.0823 0.18381,-0.1839 V 19.1838 C 8.3155,19.0823 8.23321,19 8.13169,19 Z"
     fill="#ccdfff"
     id="path11" />
  <path
     d="M 11.2021,19 H 9.72747 c -0.10151,0 -0.1838,0.0823 -0.1838,0.1838 v 1.4746 c 0,0.1016 0.08229,0.1839 0.1838,0.1839 h 1.47463 c 0.1015,0 0.1838,-0.0823 0.1838,-0.1839 V 19.1838 C 11.3859,19.0823 11.3036,19 11.2021,19 Z"
     fill="#ccdfff"
     id="path12" />
  <path
     d="m 14.2725,19 h -1.4746 c -0.1015,0 -0.1838,0.0823 -0.1838,0.1838 v 1.4746 c 0,0.1016 0.0823,0.1839 0.1838,0.1839 h 1.4746 c 0.1015,0 0.1838,-0.0823 0.1838,-0.1839 V 19.1838 C 14.4563,19.0823 14.374,19 14.2725,19 Z"
     fill="#ccdfff"
     id="path13" />
  <path
     d="m 17.3429,19 h -1.4746 c -0.1015,0 -0.1838,0.0823 -0.1838,0.1838 v 1.4746 c 0,0.1016 0.0823,0.1839 0.1838,0.1839 h 1.4746 c 0.1016,0 0.1839,-0.0823 0.1839,-0.1839 V 19.1838 C 17.5268,19.0823 17.4445,19 17.3429,19 Z"
     fill="#ccdfff"
     id="path14" />
  <path
     fill-rule="evenodd"
     clip-rule="evenodd"
     d="m 19,21.5899 c -0.3742,0.2142 -0.775,0.3996 -1.2022,0.5564 -1.5447,0.5219 -3.1331,0.7967 -4.7653,0.8243 C 11.1966,23.0661 9.37913,22.9287 7.57997,22.5585 6.61146,22.3427 5.75147,22.0174 5,21.5825 V 21 h 14 z"
     fill="#c2c2ff"
     fill-opacity="0.992157"
     id="path15" />
  <defs
     id="defs18">
    <radialGradient
       id="paint0_radial_4_537"
       cx="0"
       cy="0"
       r="1"
       gradientUnits="userSpaceOnUse"
       gradientTransform="matrix(0,22,-22,0,12,1)">
      <stop
         stop-color="#68BBFF"
         stop-opacity="0.87451"
         id="stop17" />
      <stop
         offset="1"
         stop-color="#A99EFF"
         id="stop18" />
    </radialGradient>
  </defs>
</svg>
