<?xml version="1.0" encoding="UTF-8" standalone="no"?>
<svg
   width="121.99982"
   height="122.00024"
   viewBox="0 0 121.99982 122.00024"
   fill="none"
   version="1.1"
   id="svg8571"
   sodipodi:docname="Template-B.svg"
   xml:space="preserve"
   xmlns:inkscape="http://www.inkscape.org/namespaces/inkscape"
   xmlns:sodipodi="http://sodipodi.sourceforge.net/DTD/sodipodi-0.dtd"
   xmlns="http://www.w3.org/2000/svg"
   xmlns:svg="http://www.w3.org/2000/svg"><sodipodi:namedview
     id="namedview8573"
     pagecolor="#ffffff"
     bordercolor="#000000"
     borderopacity="0.25"
     inkscape:showpageshadow="2"
     inkscape:pageopacity="0.0"
     inkscape:pagecheckerboard="0"
     inkscape:deskcolor="#d1d1d1"
     showgrid="false" /><defs
     id="defs8569"><linearGradient
       x1="10.034106"
       y1="66.894043"
       x2="12.162553"
       y2="-91.523209"
       gradientUnits="userSpaceOnUse"
       gradientTransform="matrix(0.75,0,0,0.75,36.75,36.749874)"
       spreadMethod="pad"
       id="linearGradient16619"><stop
         style="stop-opacity:1;stop-color:#434b55"
         offset="0"
         id="stop16615" /><stop
         style="stop-opacity:1;stop-color:#cccccc"
         offset="1"
         id="stop16617" /></linearGradient><clipPath
       clipPathUnits="userSpaceOnUse"
       id="clipPath16643"><path
         d="M 0,0 H 92 V 92 H 0 Z"
         id="path16641" /></clipPath></defs><g
     id="g16603"
     transform="matrix(1.3333333,0,0,1.3333333,3.0136108e-4,5.9176728e-4)"><g
       id="g16605"><g
         id="g16607"><g
           id="g16613"><path
             d="m 35.75,0.473 c 0.5,0.004 0.977,-0.059 1.43,-0.192 5.972,-0.39 11.945,-0.375 17.914,0.047 5.414,0.422 10.656,1.598 15.722,3.524 8.426,3.468 14.192,9.484 17.293,18.05 1.778,5.157 2.825,10.457 3.145,15.903 0.445,6.843 0.285,13.668 -0.477,20.476 -0.57,4.789 -1.808,9.391 -3.715,13.813 -3.539,7.66 -9.269,12.945 -17.199,15.855 -6.425,2.172 -13.031,3.313 -19.82,3.43 C 42.41,91.773 34.848,91.203 27.367,89.664 13.594,86.594 5.098,78.199 1.879,64.473 0.512,58.293 -0.105,52.039 0.02,45.711 -0.133,38.98 0.582,32.344 2.164,25.805 5.539,12.973 13.684,5.02 26.605,1.949 29.613,1.211 32.664,0.719 35.75,0.473 Z"
             style="fill:url(#linearGradient16619);fill-rule:evenodd;stroke:none"
             id="path16621" /></g></g></g><path
       d="m 45.75,80.902 c -19.473,0 -35.152,-15.679 -35.152,-35.152 0,-19.473 15.679,-35.152 35.152,-35.152 19.473,0 35.152,15.679 35.152,35.152 0,19.473 -15.679,35.152 -35.152,35.152 z"
       style="fill:#2c363f;fill-opacity:1;fill-rule:nonzero;stroke:none"
       id="path16623" /><path
       d="m 45.738,73.246 h -0.004 c -15.238,0 -27.507,-12.269 -27.507,-27.508 v -0.004 c 0,-15.238 12.269,-27.507 27.507,-27.507 h 0.004 c 15.239,0 27.508,12.269 27.508,27.507 v 0.004 c 0,15.239 -12.269,27.508 -27.508,27.508 z"
       style="fill:#2e5d89;fill-opacity:1;fill-rule:nonzero;stroke:none"
       id="path16625" /><path
       d="m 45.742,66.375 c -11.43,0 -20.633,-9.199 -20.633,-20.633 0,-11.43 9.203,-20.633 20.633,-20.633 11.434,0 20.633,9.203 20.633,20.633 0,11.434 -9.199,20.633 -20.633,20.633 z"
       style="fill:#274f74;fill-opacity:1;fill-rule:nonzero;stroke:none"
       id="path16627" /><path
       d="m 45.742,18.242 c -7.301,-0.019 -14.304,2.875 -19.469,8.039 -5.16,5.16 -8.054,12.168 -8.039,19.469 -0.015,7.301 2.879,14.309 8.039,19.469 5.165,5.164 12.168,8.054 19.469,8.039 7.301,0.015 14.309,-2.875 19.473,-8.039 5.16,-5.16 8.055,-12.168 8.039,-19.469 C 73.27,38.449 70.375,31.441 65.215,26.281 60.051,21.117 53.043,18.223 45.742,18.242 m 0,1.961 c 6.781,-0.012 13.289,2.672 18.082,7.469 4.793,4.793 7.481,11.297 7.465,18.078 0,14.152 -11.394,25.547 -25.547,25.547 -14.148,0 -25.543,-11.395 -25.543,-25.547 -0.015,-6.777 2.672,-13.285 7.465,-18.078 4.793,-4.797 11.301,-7.481 18.078,-7.469"
       style="fill:#197cf1;fill-opacity:1;fill-rule:nonzero;stroke:none"
       id="path16629" /><path
       d="m 45.742,22.82 c -6.082,-0.011 -11.922,2.399 -16.222,6.7 -4.301,4.304 -6.715,10.14 -6.7,16.226 -0.015,6.082 2.399,11.922 6.7,16.223 4.3,4.304 10.14,6.715 16.222,6.703 6.086,0.012 11.926,-2.399 16.227,-6.703 C 66.27,57.668 68.684,51.828 68.668,45.746 68.684,39.66 66.27,33.824 61.969,29.52 57.668,25.219 51.828,22.809 45.742,22.82 m 0,4.586 c 4.871,-0.011 9.543,1.914 12.985,5.36 3.441,3.441 5.371,8.113 5.359,12.98 0.008,4.871 -1.918,9.539 -5.359,12.981 -3.446,3.445 -8.114,5.371 -12.985,5.359 -4.867,0.012 -9.539,-1.918 -12.98,-5.359 -3.442,-3.442 -5.371,-8.114 -5.36,-12.981 -0.011,-4.867 1.918,-9.539 5.36,-12.98 3.441,-3.446 8.113,-5.371 12.98,-5.36"
       style="fill:#197cf1;fill-opacity:1;fill-rule:nonzero;stroke:none"
       id="path16631" /><path
       d="m 45.742,30.414 c -2.211,0 -4.304,0.473 -6.199,1.309 l 3.57,8.929 2.399,-0.636 3.918,-9.141 c -1.203,-0.301 -2.442,-0.457 -3.688,-0.461 m 5.524,1.039 -3.786,8.832 2.157,1.242 9.23,-3.691 c -1.754,-2.918 -4.429,-5.164 -7.601,-6.387 m -13.434,1.168 c -2.914,1.754 -5.16,4.426 -6.383,7.602 l 8.836,3.789 1.242,-2.156 z m 21.926,6.922 -8.93,3.57 0.637,2.399 9.14,3.918 c 0.301,-1.203 0.457,-2.442 0.461,-3.688 0,-2.207 -0.472,-4.3 -1.308,-6.199 m -28.895,2.516 c -0.301,1.203 -0.457,2.441 -0.461,3.683 0,2.215 0.477,4.309 1.313,6.203 l 8.926,-3.57 -0.633,-2.398 z m 20.325,5.422 -1.243,2.152 3.692,9.234 c 2.918,-1.75 5.164,-4.425 6.386,-7.601 z m -9.348,2.476 -9.235,3.692 c 1.754,2.917 4.43,5.164 7.602,6.386 l 3.789,-8.836 z m 6.519,0.875 -2.398,0.637 -3.918,9.14 c 1.207,0.301 2.441,0.457 3.687,0.461 2.208,0 4.305,-0.472 6.2,-1.312 z"
       style="fill:#197cf1;fill-opacity:1;fill-rule:nonzero;stroke:none"
       id="path16633" /><path
       d="m 49.027,48.246 c -1.386,1.809 -3.976,2.149 -5.785,0.762 -1.808,-1.387 -2.148,-3.981 -0.762,-5.785 1.387,-1.809 3.977,-2.153 5.786,-0.762 1.808,1.387 2.148,3.977 0.761,5.785 z"
       style="fill:#2c3e50;fill-opacity:1;fill-rule:nonzero;stroke:none"
       id="path16635" /><g
       id="g16637"><g
         id="g16639" /><g
         id="g16651"><g
           clip-path="url(#clipPath16643)"
           opacity="0.25"
           id="g16649"><g
             id="g16647"><path
               d="m 31.301,25.109 c -3.418,0 -6.192,2.774 -6.192,6.192 0,3.418 2.774,6.191 6.192,6.191 3.418,0 6.191,-2.773 6.191,-6.191 0,-3.418 -2.773,-6.192 -6.191,-6.192 m 8.254,11.348 c -1.711,0 -3.094,1.387 -3.094,3.098 0,1.707 1.383,3.093 3.094,3.093 1.707,0 3.093,-1.386 3.093,-3.093 0,-1.711 -1.386,-3.098 -3.093,-3.098"
               style="fill:#ffffff;fill-opacity:1;fill-rule:nonzero;stroke:none"
               id="path16645" /></g></g></g></g></g></svg>
