<?xml version="1.0" encoding="UTF-8" standalone="no"?>
<!-- Created with Inkscape (http://www.inkscape.org/) -->

<svg
   width="133.96359mm"
   height="133.96271mm"
   viewBox="0 0 133.96359 133.96271"
   version="1.1"
   id="svg5"
   xml:space="preserve"
   xmlns:inkscape="http://www.inkscape.org/namespaces/inkscape"
   xmlns:sodipodi="http://sodipodi.sourceforge.net/DTD/sodipodi-0.dtd"
   xmlns:xlink="http://www.w3.org/1999/xlink"
   xmlns="http://www.w3.org/2000/svg"
   xmlns:svg="http://www.w3.org/2000/svg"><sodipodi:namedview
     id="namedview7"
     pagecolor="#ffffff"
     bordercolor="#000000"
     borderopacity="0.25"
     inkscape:showpageshadow="2"
     inkscape:pageopacity="0.0"
     inkscape:pagecheckerboard="0"
     inkscape:deskcolor="#d1d1d1"
     inkscape:document-units="mm"
     showgrid="false" /><defs
     id="defs2"><linearGradient
       inkscape:collect="always"
       id="linearGradient2420"><stop
         style="stop-color:#1791f5;stop-opacity:1"
         offset="0"
         id="stop2416" /><stop
         style="stop-color:#87cdde;stop-opacity:1"
         offset="1"
         id="stop2418" /></linearGradient><linearGradient
       inkscape:collect="always"
       xlink:href="#linearGradient2420"
       id="linearGradient2422"
       x1="120.53953"
       y1="735.67035"
       x2="159.78015"
       y2="-377.33649"
       gradientUnits="userSpaceOnUse" /><linearGradient
       inkscape:collect="always"
       xlink:href="#linearGradient2420"
       id="linearGradient2872"
       gradientUnits="userSpaceOnUse"
       x1="120.53953"
       y1="735.67035"
       x2="159.78015"
       y2="-377.33649" /></defs><g
     id="g192"
     transform="matrix(0.35277776,0,0,0.35277778,5.0620457e-4,-1.6930737e-4)"
     style="fill:url(#linearGradient2422);fill-opacity:1"
     inkscape:export-filename="g192.svg"
     inkscape:export-xdpi="24.269279"
     inkscape:export-ydpi="24.269279"><path
       d="m 148.375,1.961 c 2.07,0.023 4.047,-0.242 5.93,-0.789 24.785,-1.625 49.566,-1.559 74.343,0.195 22.469,1.75 44.219,6.625 65.25,14.625 34.965,14.395 58.887,39.36 71.774,74.899 7.367,21.398 11.719,43.402 13.051,66.007 1.839,28.391 1.179,56.715 -1.981,84.981 -2.363,19.867 -7.504,38.969 -15.422,57.312 -14.683,31.801 -38.472,53.739 -71.375,65.809 -26.664,9.008 -54.082,13.754 -82.254,14.23 C 176,380.879 144.633,378.508 113.574,372.117 56.414,359.387 21.156,324.535 7.793,267.574 2.125,241.93 -0.445,215.977 0.082,189.707 -0.551,161.773 2.418,134.238 8.98,107.098 22.988,53.84 56.797,20.836 110.414,8.086 122.906,5.035 135.559,2.992 148.375,1.961 Z"
       style="fill:url(#linearGradient2872);fill-opacity:1;fill-rule:evenodd;stroke:none"
       id="path194" /></g><path
     d="m 31.812827,22.895034 c 0,6.37395 0.870133,15.42092 5.452787,20.35628 2.459549,2.64751 6.513176,3.3668 9.768609,4.53857 7.111818,2.56166 14.984706,6.45749 22.567566,7.12111 l -9.972806,-1.46414 -22.567563,-4.30885 c 0.04643,2.27392 0.50816,4.18819 1.369007,6.29738 5.6384,13.86167 19.258763,11.02159 31.695752,11.02159 -4.68708,1.42468 -9.849816,1.59406 -14.694675,2.24607 -1.61495,0.21812 -4.726519,0.27381 -5.735861,1.79595 -1.700803,2.56165 3.109248,6.08391 4.687068,7.36706 6.884435,5.59432 13.764218,4.52465 21.516448,1.18569 l -2.62197,13.12148 h 8.39496 l -4.1998,18.894466 9.84518,-12.594766 11.14921,-15.22138 h -11.0216 c 3.61509,-6.79394 8.06549,-13.13077 11.662,-19.94327 1.577831,-2.98394 3.770541,-6.44356 2.807611,-9.97279 -1.50358,-5.49687 -11.313951,-7.91234 -16.042791,-9.53658 -12.9962,-4.45504 -25.577038,-9.67578 -38.313352,-14.78747 -4.972473,-1.99549 -10.332443,-5.83565 -15.74578,-6.1164 z"
     fill="#ffffff"
     id="path2758"
     style="stroke-width:2.32033;image-rendering:optimizeSpeed" /></svg>
