<?xml version="1.0" encoding="UTF-8" standalone="no"?>
<svg
   width="24"
   height="24"
   viewBox="0 0 24 24"
   fill="none"
   version="1.1"
   id="svg154"
   sodipodi:docname="distributor-logo-raspbian.svg"
   inkscape:version="1.2.2 (b0a8486541, 2022-12-01)"
   xml:space="preserve"
   xmlns:inkscape="http://www.inkscape.org/namespaces/inkscape"
   xmlns:sodipodi="http://sodipodi.sourceforge.net/DTD/sodipodi-0.dtd"
   xmlns:xlink="http://www.w3.org/1999/xlink"
   xmlns="http://www.w3.org/2000/svg"
   xmlns:svg="http://www.w3.org/2000/svg"
   xmlns:sketch="http://www.bohemiancoding.com/sketch/ns"><sodipodi:namedview
     id="namedview156"
     pagecolor="#ffffff"
     bordercolor="#000000"
     borderopacity="1"
     inkscape:showpageshadow="0"
     inkscape:pageopacity="1"
     inkscape:pagecheckerboard="false"
     inkscape:deskcolor="#ffffff"
     showgrid="true"
     inkscape:zoom="22.627417"
     inkscape:cx="5.6126601"
     inkscape:cy="12.352272"
     inkscape:window-width="1920"
     inkscape:window-height="1052"
     inkscape:window-x="0"
     inkscape:window-y="0"
     inkscape:window-maximized="1"
     inkscape:current-layer="svg154"
     showguides="true"
     guidecolor="#ff0000"
     guideopacity="1"
     inkscape:lockguides="true"
     showborder="true"
     borderlayer="true"><inkscape:grid
       type="xygrid"
       id="grid356"
       color="#000000"
       opacity="0.10196078"
       empcolor="#000000"
       empopacity="0.10196078"
       snapvisiblegridlinesonly="true"
       enabled="true"
       visible="true"
       dotted="false" /><sodipodi:guide
       position="4.003125,23.042969"
       orientation="1,0"
       id="guide764"
       inkscape:locked="true" /><sodipodi:guide
       position="5.0007813,21.049219"
       orientation="1,0"
       id="guide2218"
       inkscape:locked="true" /><sodipodi:guide
       position="3.6445312,20"
       orientation="0,-1"
       id="guide2220"
       inkscape:locked="true" /><sodipodi:guide
       position="3.796875,5"
       orientation="0,-1"
       id="guide2222"
       inkscape:locked="true" /><sodipodi:guide
       position="3.625,4"
       orientation="0,-1"
       id="guide2224"
       inkscape:locked="true" /><sodipodi:guide
       position="19,4.8984375"
       orientation="1,0"
       id="guide2226"
       inkscape:locked="true" /><sodipodi:guide
       position="20,3.3312502"
       orientation="1,0"
       id="guide2228"
       inkscape:locked="true" /><sodipodi:guide
       position="22.875,19"
       orientation="0,-1"
       id="guide2230"
       inkscape:locked="true" /></sodipodi:namedview><defs
     id="defs152"><radialGradient
       id="radialGradient1281"
       cx="0"
       cy="0"
       r="1"
       gradientUnits="userSpaceOnUse"
       gradientTransform="translate(12 1) rotate(90) scale(22)"><stop
         stop-color="#8FC8FF"
         id="stop1277"
         offset="0.00424011"
         style="stop-color:#ffffff;stop-opacity:1;" /><stop
         offset="0.99151897"
         stop-color="#0056A8"
         id="stop1279"
         style="stop-color:#ffffff;stop-opacity:1;" /></radialGradient><radialGradient
       id="paint0_radial_29_23"
       cx="0"
       cy="0"
       r="1"
       gradientUnits="userSpaceOnUse"
       gradientTransform="translate(12 1) rotate(90) scale(22)"><stop
         stop-color="#8FC8FF"
         id="stop147"
         offset="0"
         style="stop-color:#f6f6f6;stop-opacity:1;" /><stop
         offset="1"
         stop-color="#0056A8"
         id="stop149"
         style="stop-color:#cfcfcf;stop-opacity:1;" /></radialGradient><radialGradient
       id="paint0_radial_10_2"
       cx="0"
       cy="0"
       r="1"
       gradientUnits="userSpaceOnUse"
       gradientTransform="matrix(-10.999959,21.999967,-21.999967,-10.999959,17.5,1)"
       xlink:href="#paint0_radial_29_23"><stop
         stop-color="#777777"
         id="stop2847" /><stop
         offset="1"
         stop-color="#222222"
         id="stop2849" /></radialGradient><linearGradient
       x1="12"
       y1="1"
       x2="12"
       y2="23"
       gradientUnits="userSpaceOnUse"
       gradientTransform="matrix(0.75,0,0,0.75,-7.98374e-6,2.65834e-5)"
       spreadMethod="pad"
       id="linearGradient44915"><stop
         style="stop-opacity:1;stop-color:#ff5f5f"
         offset="0"
         id="stop44911" /><stop
         style="stop-opacity:1;stop-color:#e82e34"
         offset="1"
         id="stop44913" /></linearGradient><radialGradient
       id="SVGID_1_"
       cx="85.226997"
       cy="71.662003"
       r="47.776001"
       gradientTransform="matrix(1,0,0,-1,0,103.8)"
       gradientUnits="userSpaceOnUse"><stop
         offset="0"
         stop-color="#00aeff"
         id="stop12" /><stop
         offset=".131"
         stop-color="#00a5f7"
         id="stop14" /><stop
         offset=".345"
         stop-color="#008de0"
         id="stop16" /><stop
         offset=".616"
         stop-color="#0065ba"
         id="stop18" /><stop
         offset=".928"
         stop-color="#002f87"
         id="stop20" /><stop
         offset="1"
         stop-color="#00217a"
         id="stop22" /></radialGradient><linearGradient
       id="SVGID_3_"
       gradientUnits="userSpaceOnUse"
       x1="92.800003"
       y1="72.949997"
       x2="130.763"
       y2="72.949997"
       gradientTransform="matrix(1,0,0,-1,0,103.8)"><stop
         offset="0"
         stop-color="#FFF"
         id="stop29" /><stop
         offset="1"
         stop-color="#FFF"
         stop-opacity="0"
         id="stop31" /></linearGradient><radialGradient
       id="SVGID_4_"
       cx="83.728996"
       cy="73.999001"
       r="8.2860003"
       gradientTransform="matrix(1,0,0,-1,0,103.8)"
       gradientUnits="userSpaceOnUse"><stop
         offset="0"
         stop-color="#FFF"
         id="stop36" /><stop
         offset=".679"
         stop-color="#7a7a7a"
         id="stop38" /><stop
         offset="1"
         stop-color="#404040"
         id="stop40" /></radialGradient><radialGradient
       fx="0"
       fy="0"
       cx="0"
       cy="0"
       r="1"
       gradientUnits="userSpaceOnUse"
       gradientTransform="matrix(0,16.5,-16.5,0,8.999996,0.750012)"
       spreadMethod="pad"
       id="radialGradient3666-6"><stop
         style="stop-color:#ffffff;stop-opacity:1;"
         offset="0"
         id="stop3662-7" /><stop
         style="stop-color:#f7da4d;stop-opacity:1;"
         offset="1"
         id="stop3664-5" /></radialGradient><clipPath
       id="a"><path
         d="M 0,0.113 H 91.887 V 92 H 0 Z m 0,0"
         id="path76179" /></clipPath><clipPath
       id="a-3"><path
         d="M 0,0.113 H 91.887 V 92 H 0 Z m 0,0"
         id="path76179-5" /></clipPath><radialGradient
       fx="0"
       fy="0"
       cx="0"
       cy="0"
       r="1"
       gradientUnits="userSpaceOnUse"
       gradientTransform="matrix(0,16.5,-16.5,0,8.999996,0.750012)"
       spreadMethod="pad"
       id="radialGradient3666-6-2"><stop
         style="stop-color:#ffffff;stop-opacity:1;"
         offset="0"
         id="stop3662-7-9" /><stop
         style="stop-color:#3dc89a;stop-opacity:1;"
         offset="1"
         id="stop3664-5-1" /></radialGradient><linearGradient
       id="paint0_linear_3_169"
       x1="12"
       y1="1"
       x2="12"
       y2="12"
       gradientUnits="userSpaceOnUse"><stop
         stop-color="#AAA2FF"
         id="stop132364" /><stop
         offset="1"
         stop-color="#7164EE"
         id="stop132366" /></linearGradient><linearGradient
       id="paint0_linear_3_169-2"
       x1="12"
       y1="1"
       x2="12"
       y2="12"
       gradientUnits="userSpaceOnUse"><stop
         stop-color="#AAA2FF"
         id="stop133305" /><stop
         offset="1"
         stop-color="#7164EE"
         id="stop133307" /></linearGradient><linearGradient
       id="a-7"
       x1="1"
       x2="47"
       gradientTransform="matrix(0,-1.1304,1.1304,0,-0.13,48.13)"
       gradientUnits="userSpaceOnUse"><stop
         stop-color="#31af54"
         offset="0"
         id="stop187140" /><stop
         stop-color="#35bf5c"
         offset="1"
         id="stop187142" /></linearGradient></defs><path
     d="M 50,5 C 9.0909092,5 5,25.454546 5,50 5,82.727274 17.272728,95 50,95 82.727274,95 95,82.727274 95,50 95,25.454546 90.909093,5 50,5 Z"
     sketch:type="MSShapeGroup"
     id="path6"
     style="font-variation-settings:normal;display:inline;opacity:1;vector-effect:none;fill:#f22c65;fill-opacity:1;stroke-width:4.56656;stroke-linecap:butt;stroke-linejoin:miter;stroke-miterlimit:4;stroke-dasharray:none;stroke-dashoffset:0;stroke-opacity:1;-inkscape-stroke:none;stop-color:#000000;stop-opacity:1"
     sodipodi:nodetypes="sssss"
     inkscape:label="Shape"
     transform="matrix(0.24444444,0,0,0.24444444,-0.22222222,-0.22222222)"
     sodipodi:insensitive="true" /><g
     inkscape:groupmode="layer"
     id="layer4"
     inkscape:label="Colors References"
     style="display:none"
     sodipodi:insensitive="true"
     inkscape:highlight-color="#cc5ecc"><rect
       style="display:inline;fill:#3947be;fill-opacity:1;stroke-width:22.6872;paint-order:markers stroke fill"
       id="rect7816"
       width="1.9999923"
       height="2"
       x="12"
       y="-2.9999964"
       rx="0"
       ry="0"
       inkscape:label="Dark Blue" /><rect
       style="display:inline;fill:#6c7ad8;fill-opacity:1;stroke-width:22.6873;paint-order:markers stroke fill"
       id="rect7820"
       width="2"
       height="2.0000076"
       x="9"
       y="-3.0000041"
       rx="0"
       ry="0"
       inkscape:label="Blue" /><rect
       style="display:inline;fill:#33cc33;fill-opacity:1;stroke-width:22.6873;paint-order:markers stroke fill"
       id="rect7814"
       width="2"
       height="2.0000076"
       x="6"
       y="-3.0000041"
       rx="0"
       ry="0"
       inkscape:label="Green" /><rect
       style="display:inline;fill:#ffc328;fill-opacity:1;stroke-width:22.6872;paint-order:markers stroke fill"
       id="rect7824"
       width="1.9999926"
       height="2.0000002"
       x="3"
       y="-2.9999964"
       rx="0"
       ry="0"
       inkscape:label="Yellow" /><rect
       style="display:inline;fill:#cc5e55;fill-opacity:1;stroke-width:22.6873;paint-order:markers stroke fill"
       id="rect7822"
       width="2"
       height="2.0000076"
       x="0"
       y="-3.0000038"
       rx="0"
       ry="0"
       inkscape:label="Red" /><rect
       style="display:inline;fill:#0bb1cb;fill-opacity:1;stroke-width:22.6872;paint-order:markers stroke fill"
       id="rect3087"
       width="1.9999919"
       height="1.9999996"
       x="-3"
       y="12.000004"
       rx="0"
       ry="0"
       inkscape:label="Blue 4" /><rect
       style="display:inline;fill:#2a92c9;fill-opacity:1;stroke-width:22.6873;paint-order:markers stroke fill"
       id="rect3085"
       width="2"
       height="2.0000079"
       x="-3"
       y="8.9999962"
       rx="0"
       ry="0"
       inkscape:label="Blue 3" /><rect
       style="display:inline;fill:#006699;fill-opacity:1;stroke-width:22.6873;paint-order:markers stroke fill"
       id="rect3089"
       width="2"
       height="2.0000076"
       x="-3"
       y="6.0000038"
       rx="0"
       ry="0"
       inkscape:label="Blue 2" /><rect
       style="display:inline;fill:#002a44;fill-opacity:1;stroke-width:22.6873;paint-order:markers stroke fill"
       id="rect3083"
       width="2"
       height="2.0000076"
       x="-3"
       y="2.9999962"
       rx="0"
       ry="0"
       inkscape:label="Blue 1" /><rect
       style="display:inline;fill:#2c2d3d;fill-opacity:1;stroke-width:22.6873;paint-order:markers stroke fill"
       id="rect3456"
       width="2"
       height="2.0000076"
       x="-3"
       y="-3.8146973e-06"
       rx="0"
       ry="0"
       inkscape:label="Gray" /><rect
       style="display:inline;fill:#16171c;fill-opacity:1;stroke-width:22.6872;paint-order:markers stroke fill"
       id="rect3091"
       width="1.9999924"
       height="2"
       x="-3"
       y="-3"
       rx="0"
       ry="0"
       inkscape:label="Black" /></g><g
     id="g199864"
     transform="matrix(1.5397536,0,0,1.5397536,-1.0370937,-1.0370937)"><path
       d="m 8.467,1.323 a 7.144,7.144 0 1 1 0,14.288 7.144,7.144 0 0 1 0,-14.288 z"
       fill="#f22c65"
       stroke-width="0.927"
       id="path199729" /><g
       stroke-width="0.103"
       id="g199735"><path
         d="M 6.946,4.233 A 0.236,0.236 0 0 0 6.806,4.291 C 6.677,4.241 6.553,4.224 6.442,4.325 6.27,4.303 6.215,4.348 6.172,4.402 6.135,4.402 5.89,4.363 5.778,4.53 5.497,4.497 5.408,4.696 5.509,4.881 5.452,4.97 5.392,5.058 5.527,5.228 5.479,5.322 5.508,5.425 5.62,5.548 5.59,5.682 5.649,5.775 5.753,5.848 5.733,6.029 5.92,6.135 5.975,6.173 5.996,6.278 6.041,6.379 6.253,6.434 6.288,6.592 6.416,6.619 6.54,6.652 6.131,6.89 5.78,7.202 5.783,7.97 l -0.06,0.107 c -0.468,0.285 -0.89,1.2 -0.23,1.946 0.042,0.233 0.114,0.4 0.179,0.585 0.096,0.747 0.724,1.097 0.89,1.138 0.242,0.185 0.5,0.36 0.85,0.483 0.33,0.34 0.688,0.47 1.047,0.47 h 0.015 c 0.36,0 0.717,-0.13 1.047,-0.47 0.35,-0.123 0.608,-0.298 0.85,-0.483 0.166,-0.04 0.794,-0.391 0.89,-1.138 0.065,-0.185 0.137,-0.352 0.18,-0.585 0.66,-0.745 0.238,-1.661 -0.231,-1.946 L 11.15,7.969 C 11.153,7.202 10.802,6.889 10.393,6.652 10.517,6.619 10.645,6.592 10.68,6.433 10.892,6.378 10.937,6.279 10.958,6.173 11.014,6.135 11.2,6.029 11.18,5.848 c 0.104,-0.073 0.162,-0.167 0.133,-0.3 0.112,-0.124 0.141,-0.226 0.094,-0.32 0.134,-0.17 0.074,-0.258 0.017,-0.347 0.1,-0.185 0.012,-0.384 -0.27,-0.35 C 11.042,4.363 10.798,4.401 10.761,4.402 10.718,4.348 10.663,4.302 10.491,4.325 10.381,4.225 10.256,4.241 10.128,4.291 9.976,4.171 9.875,4.267 9.76,4.304 9.576,4.244 9.534,4.326 9.443,4.359 9.243,4.317 9.182,4.409 9.085,4.507 L 8.973,4.504 C 8.67,4.683 8.52,5.047 8.467,5.234 8.413,5.047 8.263,4.683 7.96,4.504 L 7.848,4.507 C 7.751,4.409 7.69,4.317 7.489,4.359 7.399,4.326 7.357,4.243 7.173,4.304 7.097,4.28 7.028,4.23 6.946,4.233 Z M 8.463,6.61 C 8.857,6.607 9.344,6.904 9.343,7.185 9.34,7.433 9,7.633 8.467,7.63 7.944,7.623 7.592,7.377 7.593,7.137 7.594,6.939 8.02,6.599 8.463,6.61 Z m -1.34,0.167 c 0.089,0 0.18,0.007 0.273,0.022 C 7.669,6.845 6.083,8.229 6.059,7.92 6.037,7.215 6.508,6.789 7.124,6.777 Z m 2.598,0.024 c 0.616,0.012 1.087,0.438 1.065,1.143 C 10.762,8.254 9.176,6.868 9.45,6.822 9.543,6.806 9.633,6.8 9.721,6.802 Z m -0.262,0.86 a 1.019,0.864 55.966 0 1 0.67,1.823 1.019,0.864 55.966 1 1 -1.123,-1.7 1.019,0.864 55.966 0 1 0.453,-0.123 z M 7.514,7.709 a 0.864,1.019 34.034 0 1 0.415,0.122 0.86400967,1.0190108 34.034 1 1 -1.124,1.7 0.864,1.019 34.034 0 1 0.672,-1.822 0.864,1.019 34.034 0 1 0.037,0 z m 3.399,0.526 c 0.715,0.408 0.59,1.316 0.205,1.626 -0.35,0.156 -0.636,-1.742 -0.205,-1.626 z M 5.935,8.259 C 6.365,8.143 6.081,10.04 5.731,9.885 5.345,9.575 5.221,8.667 5.935,8.259 Z M 8.51,9.476 a 0.963,0.888 0 0 1 0.94,0.893 0.963,0.888 0 1 1 -1.926,0 0.963,0.888 0 0 1 0.986,-0.893 z m 2.105,0.335 a 0.316,0.316 0 0 1 0.209,0.068 c 0.17,0.17 0.27,0.812 -0.029,1.196 -0.412,0.572 -0.97,0.594 -1.178,0.435 C 9.4,11.305 9.567,10.668 9.864,10.32 10.12,10.03 10.389,9.817 10.614,9.81 Z M 6.292,9.947 c 0.243,0.01 0.533,0.202 0.77,0.477 0.275,0.332 0.401,0.915 0.171,1.087 C 7.016,11.642 6.488,11.588 6.113,11.049 5.859,10.596 5.893,10.136 6.07,10.001 A 0.389,0.389 0 0 1 6.292,9.947 Z m 2.199,1.59 c 0.387,-0.017 0.905,0.124 0.906,0.312 0.007,0.182 -0.47,0.594 -0.932,0.586 C 7.987,12.455 7.518,12.043 7.524,11.9 7.517,11.69 8.106,11.527 8.491,11.537 Z"
         fill="#282828"
         id="path199731" /><path
         d="m 6.957,4.445 c 0.042,0.052 0.1,0.104 0.039,0.163 A 0.92,0.92 0 0 0 6.619,4.461 C 6.665,4.513 6.76,4.565 6.702,4.617 A 1.562,1.562 0 0 0 6.343,4.527 C 6.406,4.58 6.459,4.632 6.407,4.673 6.292,4.637 6.133,4.588 5.977,4.63 l 0.099,0.1 C 6.086,4.744 5.846,4.74 5.686,4.743 5.744,4.825 5.804,4.904 5.838,5.045 5.823,5.061 5.744,5.052 5.67,5.045 5.746,5.208 5.878,5.249 5.909,5.318 5.862,5.354 5.798,5.345 5.727,5.321 5.782,5.436 5.897,5.514 5.988,5.608 5.965,5.624 5.925,5.634 5.83,5.622 5.914,5.713 6.015,5.796 6.135,5.87 6.115,5.895 6.041,5.895 5.973,5.896 6.082,6.005 6.223,6.061 6.353,6.132 6.288,6.177 6.241,6.166 6.191,6.166 6.284,6.243 6.442,6.284 6.589,6.331 6.561,6.375 6.533,6.387 6.473,6.399 6.629,6.486 6.851,6.447 6.914,6.491 6.899,6.535 6.856,6.563 6.805,6.587 7.055,6.602 7.739,6.578 7.87,6.052 7.614,5.767 7.147,5.432 6.345,5.018 6.969,5.231 7.533,5.514 8.005,5.903 8.56,5.64 8.178,4.979 7.907,4.716 7.893,4.786 7.877,4.829 7.859,4.842 7.771,4.746 7.699,4.648 7.586,4.556 7.586,4.61 7.613,4.668 7.545,4.711 A 0.802,0.802 0 0 0 7.293,4.491 C 7.345,4.583 7.301,4.611 7.273,4.649 7.19,4.577 7.111,4.503 6.957,4.446 Z m 3.037,0 C 9.841,4.502 9.761,4.576 9.678,4.649 9.65,4.61 9.606,4.583 9.658,4.491 A 0.802,0.802 0 0 0 9.406,4.711 C 9.339,4.668 9.366,4.609 9.366,4.555 9.252,4.647 9.18,4.745 9.092,4.841 9.074,4.829 9.058,4.785 9.044,4.715 8.774,4.978 8.391,5.64 8.946,5.902 9.418,5.512 9.983,5.229 10.608,5.017 9.804,5.431 9.338,5.766 9.081,6.052 9.212,6.577 9.896,6.601 10.146,6.586 10.095,6.562 10.052,6.534 10.037,6.49 10.1,6.446 10.323,6.485 10.477,6.398 10.418,6.386 10.39,6.374 10.362,6.33 10.509,6.283 10.667,6.242 10.76,6.165 c -0.05,0 -0.097,0.011 -0.162,-0.034 0.131,-0.07 0.271,-0.127 0.38,-0.236 -0.068,0 -0.141,0 -0.162,-0.025 0.12,-0.075 0.221,-0.158 0.305,-0.248 -0.095,0.011 -0.135,0.001 -0.158,-0.015 0.091,-0.093 0.206,-0.172 0.261,-0.287 -0.07,0.024 -0.135,0.034 -0.182,-0.002 0.031,-0.07 0.163,-0.111 0.24,-0.274 -0.075,0.007 -0.154,0.016 -0.17,0 0.035,-0.14 0.095,-0.22 0.153,-0.302 -0.16,-0.002 -0.4,0 -0.39,-0.013 l 0.099,-0.1 c -0.156,-0.042 -0.315,0.006 -0.43,0.043 -0.052,-0.041 0,-0.093 0.064,-0.146 a 1.562,1.562 0 0 0 -0.36,0.09 C 10.191,4.564 10.286,4.512 10.332,4.46 A 0.92,0.92 0 0 0 9.956,4.607 C 9.893,4.547 9.952,4.497 9.994,4.445 Z"
         fill="#75a928"
         id="path199733" /></g></g></svg>
