<?xml version="1.0" encoding="UTF-8" standalone="no"?>
<svg
   width="24"
   height="24"
   version="1.1"
   id="svg11293"
   sodipodi:docname="document-print-preview.svg"
   inkscape:version="1.2.2 (b0a8486541, 2022-12-01)"
   xmlns:inkscape="http://www.inkscape.org/namespaces/inkscape"
   xmlns:sodipodi="http://sodipodi.sourceforge.net/DTD/sodipodi-0.dtd"
   xmlns:xlink="http://www.w3.org/1999/xlink"
   xmlns="http://www.w3.org/2000/svg"
   xmlns:svg="http://www.w3.org/2000/svg">
  <sodipodi:namedview
     id="namedview11295"
     pagecolor="#ffffff"
     bordercolor="#000000"
     borderopacity="0.25"
     inkscape:showpageshadow="2"
     inkscape:pageopacity="0.0"
     inkscape:pagecheckerboard="0"
     inkscape:deskcolor="#d1d1d1"
     showgrid="false"
     inkscape:zoom="3.4140625"
     inkscape:cx="12.594966"
     inkscape:cy="53.308924"
     inkscape:window-width="2560"
     inkscape:window-height="998"
     inkscape:window-x="1680"
     inkscape:window-y="0"
     inkscape:window-maximized="1"
     inkscape:current-layer="svg11293" />
  <defs
     id="defs11271">
    <filter
       id="c"
       x="-0.3"
       y="-0.3"
       width="1.6"
       height="1.6"
       color-interpolation-filters="sRGB">
      <feGaussianBlur
         stdDeviation=".5"
         id="feGaussianBlur11260" />
    </filter>
    <filter
       id="b"
       x="-0.108"
       y="-0.108"
       width="1.216"
       height="1.216"
       color-interpolation-filters="sRGB">
      <feGaussianBlur
         stdDeviation=".9"
         id="feGaussianBlur11263" />
    </filter>
    <linearGradient
       id="a"
       x1="34"
       x2="34"
       y1="25"
       y2="6"
       gradientUnits="userSpaceOnUse"
       gradientTransform="translate(40)">
      <stop
         stop-color="#c7c7c7"
         offset="0"
         id="stop11266" />
      <stop
         stop-color="#f5f5f5"
         stop-opacity=".992"
         offset="1"
         id="stop11268" />
    </linearGradient>
    <radialGradient
       fx="0"
       fy="0"
       cx="0"
       cy="0"
       r="1"
       gradientUnits="userSpaceOnUse"
       gradientTransform="matrix(0,11,-11,0,11.999536,0.99997964)"
       spreadMethod="pad"
       id="radialGradient10379-6">
      <stop
         style="stop-opacity:1;stop-color:#b3b3b3"
         offset="0"
         id="stop10375-2" />
      <stop
         style="stop-opacity:1;stop-color:#8a8a8a"
         offset="1"
         id="stop10377-9" />
    </radialGradient>
    <linearGradient
       inkscape:collect="always"
       xlink:href="#paint1_linear_1_33"
       id="linearGradient11158"
       gradientUnits="userSpaceOnUse"
       gradientTransform="translate(-1.2e-5,1.4866998e-5)"
       x1="12.5729"
       y1="9.9947901"
       x2="12.5729"
       y2="4.5520802" />
    <linearGradient
       id="paint1_linear_1_33"
       x1="12.5729"
       y1="9.9947901"
       x2="12.5729"
       y2="4.5520802"
       gradientUnits="userSpaceOnUse"
       gradientTransform="translate(-1.2353586e-5,1.4866998e-5)">
      <stop
         stop-color="#C0C0C0"
         id="stop6129" />
      <stop
         offset="1"
         stop-color="#FAFAFA"
         stop-opacity="0.992"
         id="stop6131" />
    </linearGradient>
    <radialGradient
       fx="0"
       fy="0"
       cx="0"
       cy="0"
       r="1"
       gradientUnits="userSpaceOnUse"
       gradientTransform="matrix(-16.041697,7.3332892,-14.666578,-32.083393,19.791236,8.3333101)"
       spreadMethod="pad"
       id="radialGradient10437-8">
      <stop
         style="stop-opacity:1;stop-color:#777777"
         offset="0"
         id="stop10433-7" />
      <stop
         style="stop-opacity:1;stop-color:#333333"
         offset="1"
         id="stop10435-9" />
    </radialGradient>
    <linearGradient
       x1="12.230466"
       y1="12.978733"
       x2="12.230466"
       y2="19.087996"
       gradientUnits="userSpaceOnUse"
       gradientTransform="translate(-4.52e-4,-3.5e-5)"
       spreadMethod="pad"
       id="linearGradient10459">
      <stop
         style="stop-opacity:1;stop-color:#b5b5b5"
         offset="0"
         id="stop10453" />
      <stop
         style="stop-opacity:1;stop-color:#f9f9f9"
         offset="0.629747"
         id="stop10455" />
      <stop
         style="stop-opacity:1;stop-color:#f9f9f9"
         offset="1"
         id="stop10457" />
    </linearGradient>
    <clipPath
       clipPathUnits="userSpaceOnUse"
       id="clipPath11150">
      <g
         id="g11154"
         transform="matrix(0.75000002,0,0,0.75000002,30.00034,2.6250001e-5)">
        <path
           d="M -40.000452,-3.5e-5 H 25.33288 v 65.333332 h -65.333332 z"
           id="path11152"
           style="stroke-width:1.33333" />
      </g>
    </clipPath>
    <linearGradient
       x1="-22.919909"
       y1="35.734554"
       x2="-4.906178"
       y2="12.961099"
       gradientUnits="userSpaceOnUse"
       gradientTransform="matrix(0.27955066,0,0,0.27955066,15.656697,5.6410769)"
       spreadMethod="pad"
       id="linearGradient10497">
      <stop
         style="stop-opacity:1;stop-color:#f4f4f4"
         offset="0"
         id="stop10493" />
      <stop
         style="stop-opacity:1;stop-color:#bababa"
         offset="1"
         id="stop10495" />
    </linearGradient>
  </defs>
  <path
     d="m 9.592881,1.1146316 c 0.12,0 0.234667,-0.016 0.344,-0.046667 1.437333,-0.0946667 2.874667,-0.0893334 4.308,0.010667 1.301333,0.104 2.561333,0.3853334 3.781333,0.848 2.025333,0.8333333 3.410667,2.2813333 4.161333,4.3386666 0.421334,1.2399999 0.676,2.5159999 0.754667,3.8226668 0.104,1.646666 0.068,3.286666 -0.114667,4.928 -0.14,1.150666 -0.437333,2.254666 -0.896,3.317333 -0.849333,1.844 -2.229333,3.114666 -4.134666,3.812 -1.542667,0.521333 -3.130667,0.797333 -4.766667,0.824 -1.833333,0.09867 -3.650666,-0.04267 -5.452,-0.412 -3.307999,-0.734667 -5.354666,-2.754667 -6.125333,-6.057333 -0.328,-1.484 -0.48,-2.989334 -0.448,-4.510667 -0.036,-1.614667 0.134667,-3.2133332 0.516,-4.7866665 0.812,-3.0826666 2.770667,-4.9946666 5.874667,-5.7333332 0.724,-0.1773333 1.458666,-0.2973333 2.197333,-0.3546667 z"
     style="fill:url(#radialGradient10379-6);fill-rule:evenodd;stroke:none;stroke-width:1.33333"
     id="path10381" />
  <path
     d="M 6.270818,11.427115 V 5.4114749 c 0,-0.47609 0.38329,-0.85938 0.85938,-0.85938 h 9.73959 c 0.4761,0 0.8594,0.38329 0.8594,0.85938 v 6.0156401 z"
     fill="url(#paint1_linear_1_33)"
     id="path11156"
     style="fill:url(#linearGradient11158)" />
  <path
     d="M 18.302214,7.9892981 H 5.696881 c -0.948,0 -1.718666,0.7706667 -1.718666,1.7186667 v 4.5840002 c 0,0.948 0.770666,1.718666 1.718666,1.718666 h 12.605333 c 0.948,0 1.718667,-0.770666 1.718667,-1.718666 V 9.7079648 c 0,-0.948 -0.770667,-1.7186667 -1.718667,-1.7186667 z"
     style="fill:url(#radialGradient10437-8);stroke:none;stroke-width:1.33333"
     id="path10439" />
  <path
     d="m 18.015548,11.426631 h -12.032 c -0.317333,0 -0.572,0.256 -0.572,0.573334 0,0.317333 0.254667,0.573333 0.572,0.573333 h 12.032 c 0.317333,0 0.572,-0.256 0.572,-0.573333 0,-0.317334 -0.254667,-0.573334 -0.572,-0.573334 z"
     style="fill:#8b8b8b;fill-opacity:1;fill-rule:nonzero;stroke:none;stroke-width:1.33333"
     id="path10441" />
  <path
     d="m 6.270215,12.573298 v 6.014667 c 0,0.474666 0.385333,0.86 0.859999,0.86 h 9.738667 c 0.474667,0 0.86,-0.385334 0.86,-0.86 v -6.014667 z"
     style="fill:url(#linearGradient10459);stroke:none;stroke-width:1.33333"
     id="path10461" />
  <path
     d="m 5.983548,9.5679648 c 0,-0.24 -0.192,-0.432 -0.432,-0.432 -0.234667,0 -0.426667,0.192 -0.426667,0.432 0,0.2346666 0.192,0.4266666 0.426667,0.4266666 0.24,0 0.432,-0.192 0.432,-0.4266666 z"
     style="fill:#f2f2f2;fill-opacity:1;fill-rule:nonzero;stroke:none;stroke-width:1.33333"
     id="path10463" />
  <g
     id="g11658"
     transform="matrix(0.31480876,0,0,0.31480876,14.51847,1.8672767)">
    <circle
       cx="-8"
       cy="35"
       r="14"
       fill="#666666"
       paint-order="stroke markers fill"
       id="circle11636" />
    <circle
       cx="-8"
       cy="35"
       r="12"
       fill="#ffffff"
       paint-order="stroke markers fill"
       id="circle11638" />
    <circle
       cx="-8"
       cy="35"
       r="10"
       fill="#45474f"
       filter="url(#b)"
       opacity="0.75"
       paint-order="stroke markers fill"
       id="circle11640" />
    <circle
       cx="-3.2200012"
       cy="31"
       r="2"
       fill="#ffffff"
       filter="url(#c)"
       opacity="0.5"
       paint-order="stroke markers fill"
       id="circle11642" />
  </g>
</svg>
