<?xml version="1.0" encoding="UTF-8" standalone="no"?>
<svg
   width="24"
   height="24"
   viewBox="0 0 24 24"
   fill="none"
   version="1.1"
   id="svg154"
   sodipodi:docname="dont-starve-together.svg"
   inkscape:version="1.2.2 (b0a8486541, 2022-12-01)"
   xmlns:inkscape="http://www.inkscape.org/namespaces/inkscape"
   xmlns:sodipodi="http://sodipodi.sourceforge.net/DTD/sodipodi-0.dtd"
   xmlns:xlink="http://www.w3.org/1999/xlink"
   xmlns="http://www.w3.org/2000/svg"
   xmlns:svg="http://www.w3.org/2000/svg"
   xmlns:sketch="http://www.bohemiancoding.com/sketch/ns">
  <sodipodi:namedview
     id="namedview156"
     pagecolor="#ffffff"
     bordercolor="#000000"
     borderopacity="1"
     inkscape:showpageshadow="0"
     inkscape:pageopacity="1"
     inkscape:pagecheckerboard="false"
     inkscape:deskcolor="#ffffff"
     showgrid="true"
     inkscape:zoom="16"
     inkscape:cx="13.53125"
     inkscape:cy="11.71875"
     inkscape:window-width="1920"
     inkscape:window-height="1052"
     inkscape:window-x="0"
     inkscape:window-y="0"
     inkscape:window-maximized="1"
     inkscape:current-layer="svg154"
     showguides="true"
     guidecolor="#ff0000"
     guideopacity="1"
     inkscape:lockguides="true"
     showborder="true"
     borderlayer="true">
    <inkscape:grid
       type="xygrid"
       id="grid356"
       color="#000000"
       opacity="0.10196078"
       empcolor="#000000"
       empopacity="0.10196078"
       snapvisiblegridlinesonly="true"
       enabled="true"
       visible="true"
       dotted="false" />
    <sodipodi:guide
       position="4.003125,23.042969"
       orientation="1,0"
       id="guide764"
       inkscape:locked="true" />
    <sodipodi:guide
       position="5.0007813,21.049219"
       orientation="1,0"
       id="guide2218"
       inkscape:locked="true" />
    <sodipodi:guide
       position="3.6445312,20"
       orientation="0,-1"
       id="guide2220"
       inkscape:locked="true" />
    <sodipodi:guide
       position="3.796875,5"
       orientation="0,-1"
       id="guide2222"
       inkscape:locked="true" />
    <sodipodi:guide
       position="3.625,4"
       orientation="0,-1"
       id="guide2224"
       inkscape:locked="true" />
    <sodipodi:guide
       position="19,4.8984375"
       orientation="1,0"
       id="guide2226"
       inkscape:locked="true" />
    <sodipodi:guide
       position="20,3.3312502"
       orientation="1,0"
       id="guide2228"
       inkscape:locked="true" />
    <sodipodi:guide
       position="22.875,19"
       orientation="0,-1"
       id="guide2230"
       inkscape:locked="true" />
  </sodipodi:namedview>
  <defs
     id="defs152">
    <radialGradient
       id="radialGradient2418"
       cx="0"
       cy="0"
       r="1"
       gradientUnits="userSpaceOnUse"
       gradientTransform="translate(12 1) rotate(90) scale(22)">
      <stop
         stop-color="#8FC8FF"
         id="stop2414"
         offset="0"
         style="stop-color:#d1d1d1;stop-opacity:1;" />
      <stop
         offset="1"
         stop-color="#0056A8"
         id="stop2416"
         style="stop-color:#9e9e9e;stop-opacity:1;" />
    </radialGradient>
    <radialGradient
       id="paint0_radial_29_23"
       cx="0"
       cy="0"
       r="1"
       gradientUnits="userSpaceOnUse"
       gradientTransform="translate(12 1) rotate(90) scale(22)">
      <stop
         stop-color="#8FC8FF"
         id="stop147"
         offset="0"
         style="stop-color:#f6f6f6;stop-opacity:1;" />
      <stop
         offset="1"
         stop-color="#0056A8"
         id="stop149"
         style="stop-color:#cfcfcf;stop-opacity:1;" />
    </radialGradient>
    <radialGradient
       inkscape:collect="always"
       xlink:href="#radialGradient2418"
       id="radialGradient1161"
       gradientUnits="userSpaceOnUse"
       gradientTransform="matrix(3.9045581e-8,90.059469,-90.006811,0,-107.36954,-11.19048)"
       cx="0.17911513"
       cy="-1.7483425"
       r="1"
       fx="0.17911513"
       fy="-1.7483425" />
    <radialGradient
       id="paint0_radial_10_2"
       cx="0"
       cy="0"
       r="1"
       gradientUnits="userSpaceOnUse"
       gradientTransform="matrix(-10.999959,21.999967,-21.999967,-10.999959,17.5,1)"
       xlink:href="#paint0_radial_29_23">
      <stop
         stop-color="#777777"
         id="stop2847" />
      <stop
         offset="1"
         stop-color="#222222"
         id="stop2849" />
    </radialGradient>
  </defs>
  <path
     d="M 50,5 C 9.0909092,5 5,25.454546 5,50 5,82.727274 17.272728,95 50,95 82.727274,95 95,82.727274 95,50 95,25.454546 90.909093,5 50,5 Z"
     sketch:type="MSShapeGroup"
     id="path6"
     style="font-variation-settings:normal;display:inline;opacity:1;vector-effect:none;fill:url(#radialGradient1161);fill-opacity:1;stroke-width:4.56656;stroke-linecap:butt;stroke-linejoin:miter;stroke-miterlimit:4;stroke-dasharray:none;stroke-dashoffset:0;stroke-opacity:1;-inkscape-stroke:none;stop-color:#000000;stop-opacity:1"
     sodipodi:nodetypes="sssss"
     inkscape:label="Shape"
     transform="matrix(0.24444444,0,0,0.24444444,-0.22222222,-0.22222222)"
     sodipodi:insensitive="true" />
  <g
     inkscape:groupmode="layer"
     id="layer4"
     inkscape:label="Colors References"
     style="display:inline"
     sodipodi:insensitive="true"
     inkscape:highlight-color="#cc5ecc">
    <rect
       style="display:inline;fill:#3947be;fill-opacity:1;stroke-width:22.6872;paint-order:markers stroke fill"
       id="rect7816"
       width="1.9999923"
       height="2"
       x="12"
       y="-2.9999964"
       rx="0"
       ry="0"
       inkscape:label="Dark Blue" />
    <rect
       style="display:inline;fill:#6c7ad8;fill-opacity:1;stroke-width:22.6873;paint-order:markers stroke fill"
       id="rect7820"
       width="2"
       height="2.0000076"
       x="9"
       y="-3.0000041"
       rx="0"
       ry="0"
       inkscape:label="Blue" />
    <rect
       style="display:inline;fill:#33cc33;fill-opacity:1;stroke-width:22.6873;paint-order:markers stroke fill"
       id="rect7814"
       width="2"
       height="2.0000076"
       x="6"
       y="-3.0000041"
       rx="0"
       ry="0"
       inkscape:label="Green" />
    <rect
       style="display:inline;fill:#ffc328;fill-opacity:1;stroke-width:22.6872;paint-order:markers stroke fill"
       id="rect7824"
       width="1.9999926"
       height="2.0000002"
       x="3"
       y="-2.9999964"
       rx="0"
       ry="0"
       inkscape:label="Yellow" />
    <rect
       style="display:inline;fill:#cc5e55;fill-opacity:1;stroke-width:22.6873;paint-order:markers stroke fill"
       id="rect7822"
       width="2"
       height="2.0000076"
       x="0"
       y="-3.0000038"
       rx="0"
       ry="0"
       inkscape:label="Red" />
    <rect
       style="display:inline;fill:#0bb1cb;fill-opacity:1;stroke-width:22.6872;paint-order:markers stroke fill"
       id="rect3087"
       width="1.9999919"
       height="1.9999996"
       x="-3"
       y="12.000004"
       rx="0"
       ry="0"
       inkscape:label="Blue 4" />
    <rect
       style="display:inline;fill:#2a92c9;fill-opacity:1;stroke-width:22.6873;paint-order:markers stroke fill"
       id="rect3085"
       width="2"
       height="2.0000079"
       x="-3"
       y="8.9999962"
       rx="0"
       ry="0"
       inkscape:label="Blue 3" />
    <rect
       style="display:inline;fill:#006699;fill-opacity:1;stroke-width:22.6873;paint-order:markers stroke fill"
       id="rect3089"
       width="2"
       height="2.0000076"
       x="-3"
       y="6.0000038"
       rx="0"
       ry="0"
       inkscape:label="Blue 2" />
    <rect
       style="display:inline;fill:#002a44;fill-opacity:1;stroke-width:22.6873;paint-order:markers stroke fill"
       id="rect3083"
       width="2"
       height="2.0000076"
       x="-3"
       y="2.9999962"
       rx="0"
       ry="0"
       inkscape:label="Blue 1" />
    <rect
       style="display:inline;fill:#2c2d3d;fill-opacity:1;stroke-width:22.6873;paint-order:markers stroke fill"
       id="rect3456"
       width="2"
       height="2.0000076"
       x="-3"
       y="-3.8146973e-06"
       rx="0"
       ry="0"
       inkscape:label="Gray" />
    <rect
       style="display:inline;fill:#16171c;fill-opacity:1;stroke-width:22.6872;paint-order:markers stroke fill"
       id="rect3091"
       width="1.9999924"
       height="2"
       x="-3"
       y="-3"
       rx="0"
       ry="0"
       inkscape:label="Black" />
  </g>
  <g
     id="g717"
     transform="matrix(0.25006174,0,0,0.25006174,3.9980186,3.9998609)">
    <path
       d="m 47.501,36.954 c 1.422,9.935 -5.223,22.371 -8.031,23.025 -1.302,0.279 -15.526,-8.14 -17.239,-17.9 -0.16,-0.91 -4.249,-7.288 -2.375,-5.296 2.665,2.832 -2.754,-5.598 -1.547,-8.193 1.78,-3.826 11.657,-4.387 16.283,-4.387 4.222,0 9.171,-1.918 11.291,0.495 1.778,2.024 1.003,7.956 1.618,12.256 z"
       fill="#fec786"
       id="path576" />
    <g
       fill="#4f4f4f"
       id="g586">
      <path
         d="m 35,51.732 c 0,-0.277 0.6,-0.623 2.472,-1.419 0.862,-0.366 1.158,-0.4 1.357,-0.16 0.14,0.168 0.208,0.365 0.15,0.435 C 38.882,50.704 35.327,52 35.102,52 35.046,52 35,51.88 35,51.731 Z m 0.929,-3.355 c -1.017,-0.435 -1.3,-1.087 -0.337,-0.776 1.547,0.5 1.598,0.417 1.482,-2.39 -0.073,-1.752 0.003,-2.562 0.223,-2.387 0.183,0.148 0.39,1.549 0.46,3.118 0.137,3.132 0.056,3.24 -1.828,2.435 z M 14.618,38.68 c -0.954,-0.651 -1.734,-1.236 -1.732,-1.3 0.002,-0.063 0.497,-0.518 1.1,-1.011 1.044,-0.854 1.184,-1.606 1.182,-2.197 -0.002,-0.32 -3.873,-5.666 -6.29,-8.686 -0.934,-1.169 -1.766,-2.31 -1.847,-2.537 -0.092,-0.256 0.025,-0.638 0.31,-1.01 0.954,-1.246 2.57,-3.232 3.462,-4.94 0.885,-1.694 1.947,-3.085 2.13,-2.79 0.263,0.428 0.53,0.16 2.63,-2.651 2.113,-2.826 3.844,-5.466 4.267,-5.466 0.478,0 0.28,0.475 -0.628,1.508 -1.622,1.731 -2.127,4.122 -2.13,5.685 -0.143,2.949 2.256,5.073 4.868,6.274 3.344,0.788 6.457,0.435 7.045,-2.358 0.488,-2.322 -1.154,-3.746 -3.056,-4.318 -0.464,0.212 -1.81,1.635 -2.239,2.99 -0.149,0.474 -0.579,0.299 -0.579,-0.235 0,-1.112 1.254,-3.945 1.919,-5.155 0.933,-1.696 1.952,-1.779 2.788,-1.611 0.467,0.094 0.822,-0.198 1.246,-0.535 L 29.657,7.87 c 2.066,1.52 4.38,2.635 6.585,3.919 2.474,1.759 4.856,2.752 4.882,3.003 0.015,0.148 0.005,0.156 -0.022,1.235 -0.049,1.871 -0.029,1.962 0.428,1.962 0.928,0 1.861,-0.52 3.099,-2.013 2.167,-2.617 2.447,-2.641 2.447,-4.837 0.157,-1.681 -2.059,-5.282 -3.447,-3.932 -0.582,0.583 -1.257,2.636 -1.047,3.184 0.141,0.37 1.031,0.625 1.523,0.436 0.515,-0.198 0.432,0.21 -0.15,0.74 -0.764,0.695 -1.597,0.814 -2.21,0.317 -0.757,-0.614 -0.961,-3.055 -0.386,-4.621 0.546,-1.488 2.496,-3.068 2.905,-3.225 0.461,-0.178 0.979,0.192 2.822,2.615 2.97,4.467 6.209,8.467 9.106,12.734 0.36,0.528 0.71,1.3 0.778,1.718 0.112,0.694 -0.023,0.925 -1.608,2.74 -2.61,2.99 -4.367,5.416 -4.367,6.029 0,0.66 1.351,1.196 2.535,1.378 0.858,0.132 1.423,0.425 1.423,0.738 -1.407,1.92 -6.964,9.767 -7.633,9.232 -0.066,-0.106 -0.175,-1.367 -0.243,-2.803 -0.513,-3.89 -0.698,-5.986 -1.152,-9.782 -0.136,-0.74 -0.157,-0.753 -1.061,-0.627 -2.218,0.309 -4.947,0.48 -7.128,0.843 -1.76,0.293 -3.301,1.523 -4.019,1.139 -0.735,-0.394 -4.606,-1.093 -6.905,-1.38 -6.783,-0.85 -5.67,-0.706 -5.67,0.128 l 1.486,12.03 c 0,0 0.713,3.23 0.117,3.23 -3.235,-1.234 -5.608,-3.586 -8.127,-5.322 z"
         id="path578" />
      <circle
         cx="31"
         cy="42"
         r="2"
         id="circle580" />
      <path
         d="m 25.55,38.001 a 0.777,0.777 0 0 0 -0.266,0.034 c -0.11,0.07 -0.217,0.482 -0.241,0.916 l -0.043,0.79 2.758,0.133 c 1.553,0.132 3.28,0.168 4.739,0.068 0.513,0 0.57,-0.04 0.449,-0.301 -0.328,-0.7 -0.848,-1.104 -1.468,-1.14 -0.34,-0.02 -1.828,-0.162 -3.306,-0.315 C 26.902,38.054 25.982,37.99 25.55,38 Z M 37.48,36 c -0.196,0 -0.316,0.02 -0.344,0.042 -0.107,0.098 -0.162,0.575 -0.124,1.058 0.062,0.797 0.117,0.874 0.61,0.841 1.374,0.07 2.759,0.058 4.157,0.058 1.097,-0.044 2.449,-0.74 3.221,-1.117 0,-0.112 -0.103,-0.204 -0.231,-0.204 -0.129,0 -1.856,-0.184 -3.837,-0.407 -1.587,-0.18 -2.865,-0.278 -3.452,-0.27 z"
         id="path582" />
      <circle
         cx="39"
         cy="40"
         r="2"
         id="circle584" />
    </g>
  </g>
</svg>
