<?xml version="1.0" encoding="UTF-8" standalone="no"?>
<svg
   width="24"
   height="24"
   viewBox="0 0 6.349875 6.349875"
   version="1.1"
   id="svg16336"
   sodipodi:docname="dragonplayer.svg"
   xml:space="preserve"
   inkscape:version="1.2.2 (b0a8486541, 2022-12-01)"
   inkscape:export-filename="dragonplayer.pdf"
   inkscape:export-xdpi="96"
   inkscape:export-ydpi="96"
   xmlns:inkscape="http://www.inkscape.org/namespaces/inkscape"
   xmlns:sodipodi="http://sodipodi.sourceforge.net/DTD/sodipodi-0.dtd"
   xmlns="http://www.w3.org/2000/svg"
   xmlns:svg="http://www.w3.org/2000/svg"><defs
     id="defs16340"><linearGradient
       id="paint0_linear_3_200"
       x1="11.9997"
       y1="0.99970198"
       x2="12"
       y2="12"
       gradientUnits="userSpaceOnUse"
       gradientTransform="matrix(0.26457812,0,0,0.26457812,9.5888227e-5,-2.0457812e-7)"><stop
         stop-color="#FFD996"
         id="stop16471"
         offset="0"
         style="stop-color:#fd807c;stop-opacity:1;" /><stop
         offset="1"
         stop-color="#FFB32B"
         id="stop16473"
         style="stop-color:#f4605d;stop-opacity:1;" /></linearGradient><linearGradient
       x1="11.9997"
       y1="0.99970198"
       x2="12"
       y2="12"
       gradientUnits="userSpaceOnUse"
       gradientTransform="matrix(0.75,0,0,0.75,-0.749757,-0.749776)"
       spreadMethod="pad"
       id="linearGradient20058"><stop
         style="stop-opacity:1;stop-color:#fd807c"
         offset="0"
         id="stop20054" /><stop
         style="stop-opacity:1;stop-color:#f4605d"
         offset="1"
         id="stop20056" /></linearGradient><clipPath
       clipPathUnits="userSpaceOnUse"
       id="clipPath20070"><path
         d="M 0,0 H 17 V 17 H 0 Z"
         id="path20068" /></clipPath><clipPath
       clipPathUnits="userSpaceOnUse"
       id="clipPath20070-6"><path
         d="M 0,0 H 17 V 17 H 0 Z"
         id="path20068-2" /></clipPath></defs><sodipodi:namedview
     id="namedview16338"
     pagecolor="#ffffff"
     bordercolor="#000000"
     borderopacity="0.25"
     inkscape:showpageshadow="2"
     inkscape:pageopacity="0.0"
     inkscape:pagecheckerboard="0"
     inkscape:deskcolor="#d1d1d1"
     showgrid="false"
     inkscape:zoom="9.3691649"
     inkscape:cx="30.525666"
     inkscape:cy="19.372057"
     inkscape:window-width="2560"
     inkscape:window-height="1000"
     inkscape:window-x="1680"
     inkscape:window-y="0"
     inkscape:window-maximized="1"
     inkscape:current-layer="svg16336" /><g
     id="g20040"
     transform="matrix(0.35277082,0,0,0.35277082,0.26449453,0.26457824)"><path
       d="M 2.098,14.781 C 1.234,14.008 0.648,12.953 0.34,11.625 0.266,11.305 0.207,10.98 0.16,10.656 h 16.192 c -0.11,0.813 -0.329,1.594 -0.653,2.344 -0.324,0.707 -0.754,1.301 -1.285,1.781 z"
       style="fill:#ffffff;fill-opacity:1;fill-rule:evenodd;stroke:none"
       id="path20042" /><g
       id="g20044"><g
         id="g20046"><g
           id="g20052"><path
             d="M 8.238,0 C 7.727,0 7.215,0.016 6.703,0.051 6.621,0.074 6.535,0.086 6.445,0.086 5.891,0.129 5.34,0.219 4.797,0.352 2.469,0.906 1,2.34 0.391,4.652 0.105,5.832 -0.023,7.031 0.004,8.242 -0.012,9.055 0.039,9.859 0.16,10.656 h 16.192 c 0.007,-0.047 0.011,-0.097 0.019,-0.144 C 16.453,9.781 16.496,9.051 16.5,8.32 V 8.035 C 16.496,7.629 16.484,7.223 16.457,6.816 16.398,5.836 16.211,4.879 15.891,3.949 15.328,2.406 14.289,1.32 12.77,0.695 11.855,0.348 10.91,0.137 9.934,0.059 9.383,0.02 8.828,0 8.277,0 Z m 6.176,14.781 H 2.098 c 0.742,0.668 1.687,1.133 2.836,1.387 1.07,0.223 2.148,0.332 3.234,0.332 0.008,0 0.016,0 0.023,0 0.278,0 0.555,-0.008 0.832,-0.023 1.227,-0.02 2.418,-0.227 3.575,-0.618 0.699,-0.257 1.304,-0.617 1.816,-1.078 z"
             style="fill:url(#linearGradient20058);fill-rule:evenodd;stroke:none"
             id="path20060" /></g></g></g><path
       d="M 6.781,2.75 C 6.66,2.746 6.539,2.77 6.426,2.812 6.312,2.855 6.207,2.926 6.121,3.008 6.031,3.094 5.965,3.195 5.914,3.309 5.867,3.422 5.844,3.543 5.844,3.664 v 4.238 c 0,0.703 0.765,1.145 1.375,0.793 l 3.668,-2.117 c 0.14,-0.082 0.254,-0.195 0.336,-0.336 0.078,-0.14 0.121,-0.297 0.121,-0.457 0,-0.164 -0.043,-0.32 -0.121,-0.461 C 11.141,5.188 11.027,5.07 10.887,4.988 L 7.219,2.871 C 7.086,2.793 6.938,2.754 6.781,2.75 Z"
       style="fill:#ffffff;fill-opacity:1;fill-rule:evenodd;stroke:none"
       id="path20062" /><g
       id="g20064"><g
         id="g20066" /><g
         id="g20078"><g
           clip-path="url(#clipPath20070-6)"
           opacity="0.25"
           id="g20076"><g
             id="g20074"><path
               d="M 14.438,12.375 H 9.625 c -0.191,0 -0.344,0.152 -0.344,0.344 0,0.187 0.153,0.343 0.344,0.343 h 4.813 c 0.191,0 0.343,-0.156 0.343,-0.343 0,-0.192 -0.152,-0.344 -0.343,-0.344 z"
               style="fill:#000000;fill-opacity:1;fill-rule:nonzero;stroke:none"
               id="path20072" /></g></g></g></g><path
       d="M 8.938,12.375 H 2.062 c -0.191,0 -0.343,0.152 -0.343,0.344 0,0.187 0.152,0.343 0.343,0.343 h 6.876 c 0.191,0 0.343,-0.156 0.343,-0.343 0,-0.192 -0.152,-0.344 -0.343,-0.344 z"
       style="fill:#f4605d;fill-opacity:1;fill-rule:nonzero;stroke:none"
       id="path20080" /><path
       d="m 9.281,13.75 c 0.571,0 1.031,-0.461 1.031,-1.031 0,-0.571 -0.46,-1.031 -1.031,-1.031 -0.57,0 -1.031,0.46 -1.031,1.031 0,0.57 0.461,1.031 1.031,1.031 z"
       style="fill:#ffffff;fill-opacity:1;fill-rule:nonzero;stroke:none"
       id="path20082" /></g></svg>
