<?xml version="1.0" encoding="UTF-8" standalone="no"?>
<svg
   width="24"
   height="24"
   viewBox="0 0 24 24"
   fill="none"
   version="1.1"
   id="svg154"
   sodipodi:docname="app.svg"
   inkscape:version="1.2.2 (b0a8486541, 2022-12-01)"
   xml:space="preserve"
   inkscape:export-filename="../../../../svg/dvd95.svg"
   inkscape:export-xdpi="96"
   inkscape:export-ydpi="96"
   xmlns:inkscape="http://www.inkscape.org/namespaces/inkscape"
   xmlns:sodipodi="http://sodipodi.sourceforge.net/DTD/sodipodi-0.dtd"
   xmlns:xlink="http://www.w3.org/1999/xlink"
   xmlns="http://www.w3.org/2000/svg"
   xmlns:svg="http://www.w3.org/2000/svg"
   xmlns:sketch="http://www.bohemiancoding.com/sketch/ns"><sodipodi:namedview
     id="namedview156"
     pagecolor="#ffffff"
     bordercolor="#000000"
     borderopacity="1"
     inkscape:showpageshadow="0"
     inkscape:pageopacity="1"
     inkscape:pagecheckerboard="false"
     inkscape:deskcolor="#ffffff"
     showgrid="true"
     inkscape:zoom="32"
     inkscape:cx="9.609375"
     inkscape:cy="15.453125"
     inkscape:window-width="1920"
     inkscape:window-height="1052"
     inkscape:window-x="0"
     inkscape:window-y="0"
     inkscape:window-maximized="1"
     inkscape:current-layer="svg154"
     showguides="true"
     guidecolor="#ff0000"
     guideopacity="1"
     inkscape:lockguides="true"
     showborder="true"
     borderlayer="true"><inkscape:grid
       type="xygrid"
       id="grid356"
       color="#000000"
       opacity="0.10196078"
       empcolor="#000000"
       empopacity="0.10196078"
       snapvisiblegridlinesonly="true"
       enabled="true"
       visible="true"
       dotted="false" /><sodipodi:guide
       position="4,12"
       orientation="-1,0"
       id="guide764"
       inkscape:locked="true"
       inkscape:label="left-circle"
       inkscape:color="rgb(255,0,0)" /><sodipodi:guide
       position="5,12"
       orientation="-1,0"
       id="guide2218"
       inkscape:locked="true"
       inkscape:label="left-square"
       inkscape:color="rgb(255,0,0)" /><sodipodi:guide
       position="12,20"
       orientation="0,1"
       id="guide2220"
       inkscape:locked="true"
       inkscape:label="top-circle"
       inkscape:color="rgb(255,0,0)" /><sodipodi:guide
       position="12,5"
       orientation="0,1"
       id="guide2222"
       inkscape:locked="true"
       inkscape:label="bottom-square"
       inkscape:color="rgb(255,0,0)" /><sodipodi:guide
       position="12,4"
       orientation="0,1"
       id="guide2224"
       inkscape:locked="true"
       inkscape:label="bottom-circle"
       inkscape:color="rgb(255,0,0)" /><sodipodi:guide
       position="19,12"
       orientation="-1,0"
       id="guide2226"
       inkscape:locked="true"
       inkscape:label="right-square"
       inkscape:color="rgb(255,0,0)" /><sodipodi:guide
       position="20,12"
       orientation="-1,0"
       id="guide2228"
       inkscape:locked="true"
       inkscape:label="right-circle"
       inkscape:color="rgb(255,0,0)" /><sodipodi:guide
       position="12,19"
       orientation="0,1"
       id="guide2230"
       inkscape:locked="true"
       inkscape:label="top-square"
       inkscape:color="rgb(255,0,0)" /><sodipodi:guide
       position="12,12"
       orientation="1,0"
       id="guide765"
       inkscape:locked="true" /><sodipodi:guide
       position="12,12"
       orientation="0,-1"
       id="guide767"
       inkscape:locked="true" /><sodipodi:guide
       position="12,12"
       orientation="0.70710678,0.70710678"
       id="guide2266"
       inkscape:locked="true"
       inkscape:label=""
       inkscape:color="rgb(255,0,0)" /><sodipodi:guide
       position="12,12"
       orientation="-0.70710678,0.70710678"
       id="guide2994"
       inkscape:locked="true"
       inkscape:label=""
       inkscape:color="rgb(255,0,0)" /><sodipodi:guide
       position="3,12"
       orientation="-1,0"
       id="guide131543"
       inkscape:locked="true"
       inkscape:label="left-horizontal"
       inkscape:color="rgb(255,0,0)" /><sodipodi:guide
       position="12,21"
       orientation="0,1"
       id="guide131545"
       inkscape:locked="true"
       inkscape:label="top-vertical"
       inkscape:color="rgb(255,0,0)" /><sodipodi:guide
       position="21,12"
       orientation="-1,0"
       id="guide131547"
       inkscape:locked="true"
       inkscape:label="right-horizontal"
       inkscape:color="rgb(255,0,0)" /><sodipodi:guide
       position="12,3"
       orientation="0,1"
       id="guide131549"
       inkscape:locked="true"
       inkscape:label="bottom-vertical"
       inkscape:color="rgb(255,0,0)" /></sodipodi:namedview><defs
     id="defs152"><linearGradient
       inkscape:collect="always"
       id="linearGradient828"><stop
         style="stop-color:#1a1a1a;stop-opacity:1"
         offset="0"
         id="stop824" /><stop
         style="stop-color:#666666;stop-opacity:1"
         offset="1"
         id="stop826" /></linearGradient><linearGradient
       inkscape:collect="always"
       xlink:href="#linearGradient828"
       id="linearGradient830"
       x1="53.707386"
       y1="89.630684"
       x2="52.684662"
       y2="-2.4147727"
       gradientUnits="userSpaceOnUse"
       gradientTransform="matrix(0.24444444,0,0,0.24444444,-0.22222222,-0.22222222)" /></defs><path
     d="M 12,0.99999998 C 2,0.99999998 0.99999998,6 0.99999998,12 0.99999998,20 4.0000001,23 12,23 20,23 23,20 23,12 23,6 22,0.99999998 12,0.99999998 Z"
     sketch:type="MSShapeGroup"
     id="path6"
     style="font-variation-settings:normal;display:inline;opacity:1;vector-effect:none;fill:url(#linearGradient830);fill-opacity:1;stroke-width:1.11627;stroke-linecap:butt;stroke-linejoin:miter;stroke-miterlimit:4;stroke-dasharray:none;stroke-dashoffset:0;stroke-opacity:1;-inkscape-stroke:none;stop-color:#000000;stop-opacity:1"
     sodipodi:nodetypes="sssss"
     inkscape:label="Shape"
     sodipodi:insensitive="true" /><g
     id="g922"
     transform="matrix(1.0294321,0,0,1.0294321,19.91334,0.45189725)"><path
       d="m -10.670537,6.6688241 c -2.161296,0 -3.918037,1.7184444 -3.918037,3.8279999 0,2.028074 1.619444,3.668296 3.666259,3.792148 0,-2.293703 1.8349633,-4.164926 4.1156299,-4.3674072 -0.2831481,-1.8398518 -1.903,-3.2527407 -3.8642589,-3.2527407 m 0,2.6241111 c 0.6738515,0 1.2222219,0.5459259 1.2222219,1.2042958 0,0.658371 -0.5483704,1.186371 -1.2222219,1.186371 -0.673852,0 -1.222223,-0.528 -1.222223,-1.186371 0,-0.6583699 0.548371,-1.2042958 1.222223,-1.2042958 m 0,0.2517778 c -0.541037,0 -0.988778,0.4245185 -0.988778,0.952518 0,0.530038 0.446926,0.952112 0.988778,0.952112 0.541037,0 0.9708515,-0.422074 0.9708515,-0.952112 0,-0.5279995 -0.4289995,-0.952518 -0.9708515,-0.952518 m 0,0.3597407 c 0.336926,0 0.611111,0.2627773 0.611111,0.5927773 0,0.33 -0.271741,0.592778 -0.611111,0.592778 -0.336926,0 -0.611111,-0.262778 -0.611111,-0.592778 0,-0.33 0.274185,-0.5927773 0.611111,-0.5927773"
       fill="#ff4d5b"
       id="path258"
       style="stroke-width:0.407407" /><path
       d="m -6.4106851,10.476454 c -2.1612963,0 -3.9135559,1.709889 -3.9135559,3.821481 0,2.112 1.7522596,3.821482 3.9135559,3.821482 2.1633334,0 3.9160001,-1.709482 3.9160001,-3.821482 0,-2.111592 -1.7526667,-3.821481 -3.9160001,-3.821481 m 0,2.628185 c 0.6762963,0 1.2242593,0.534926 1.2242593,1.192889 0,0.65837 -0.547963,1.194926 -1.2242593,1.194926 -0.6738518,0 -1.2222222,-0.536963 -1.2222222,-1.194926 0,-0.658778 0.5483704,-1.192889 1.2222222,-1.192889 m 0,0.238333 c -0.541037,0 -0.9769629,0.424111 -0.9769629,0.954556 0,0.530037 0.4359259,0.957 0.9769629,0.957 0.5434815,0 0.9794075,-0.426963 0.9794075,-0.957408 0,-0.529629 -0.435926,-0.954148 -0.9794075,-0.954148 m 0,0.356889 c 0.3393704,0 0.6131482,0.267667 0.6131482,0.597667 0,0.33 -0.2745926,0.597666 -0.6131482,0.597666 -0.3369259,0 -0.6111111,-0.267666 -0.6111111,-0.597666 0,-0.33 0.2741852,-0.597667 0.6111111,-0.597667"
       fill="#4ca3e5"
       id="path260"
       style="stroke-width:0.407407" /><path
       d="m -8.8514629,4.3164537 c -3.3162961,0.00326 -6.0691481,2.5597407 -6.3123701,5.8621853 0.23874,-2.3491112 2.219148,-4.1368149 4.584555,-4.1368149 2.544667,0 4.6179633,2.0598518 4.6179633,4.6008519 v 1.150111 h -2.312037 l 4.0317037,4.025593 4.03129632,-4.025186 H -2.5105739 v -1.150518 c 0,-3.493926 -2.8404445,-6.3262223 -6.3376297,-6.3262223"
       fill="#f2f2f2"
       fill-rule="evenodd"
       id="path262"
       style="stroke-width:0.407407" /></g></svg>
