<?xml version="1.0" encoding="UTF-8" standalone="no"?>
<svg
   width="121.99982"
   height="122.00023"
   viewBox="0 0 121.99982 122.00023"
   fill="none"
   version="1.1"
   id="svg8571"
   sodipodi:docname="Template-B.svg"
   xml:space="preserve"
   xmlns:inkscape="http://www.inkscape.org/namespaces/inkscape"
   xmlns:sodipodi="http://sodipodi.sourceforge.net/DTD/sodipodi-0.dtd"
   xmlns:xlink="http://www.w3.org/1999/xlink"
   xmlns="http://www.w3.org/2000/svg"
   xmlns:svg="http://www.w3.org/2000/svg"><sodipodi:namedview
     id="namedview8573"
     pagecolor="#ffffff"
     bordercolor="#000000"
     borderopacity="0.25"
     inkscape:showpageshadow="2"
     inkscape:pageopacity="0.0"
     inkscape:pagecheckerboard="0"
     inkscape:deskcolor="#d1d1d1"
     showgrid="false" /><defs
     id="defs8569"><linearGradient
       inkscape:collect="always"
       id="linearGradient23342"><stop
         style="stop-color:#383838;stop-opacity:1;"
         offset="0"
         id="stop23338" /><stop
         style="stop-color:#808080;stop-opacity:1"
         offset="1"
         id="stop23340" /></linearGradient><linearGradient
       inkscape:collect="always"
       xlink:href="#linearGradient23342"
       id="linearGradient23344"
       x1="45.194546"
       y1="77.992149"
       x2="43.370163"
       y2="-14.367242"
       gradientUnits="userSpaceOnUse" /><linearGradient
       inkscape:collect="always"
       xlink:href="#linearGradient23342"
       id="linearGradient23455"
       gradientUnits="userSpaceOnUse"
       x1="45.194546"
       y1="77.992149"
       x2="43.370163"
       y2="-14.367242" /><linearGradient
       inkscape:collect="always"
       xlink:href="#linearGradient23342"
       id="linearGradient23457"
       gradientUnits="userSpaceOnUse"
       x1="45.194546"
       y1="77.992149"
       x2="43.370163"
       y2="-14.367242" /><linearGradient
       inkscape:collect="always"
       xlink:href="#linearGradient23342"
       id="linearGradient23459"
       gradientUnits="userSpaceOnUse"
       x1="45.194546"
       y1="77.992149"
       x2="43.370163"
       y2="-14.367242" /></defs><g
     id="g16605"
     transform="matrix(1.3333333,0,0,1.3333333,3.0444727e-4,5.917673e-4)"
     style="fill:url(#linearGradient23344);fill-opacity:1"
     inkscape:export-filename="../g16605.svg"
     inkscape:export-xdpi="100.72131"
     inkscape:export-ydpi="100.72131"><g
       id="g16607"
       style="fill:url(#linearGradient23459);fill-opacity:1"><g
         id="g16613"
         style="fill:url(#linearGradient23457);fill-opacity:1"><path
           d="m 35.75,0.473 c 0.5,0.004 0.977,-0.059 1.43,-0.192 5.972,-0.39 11.945,-0.375 17.914,0.047 5.414,0.422 10.656,1.598 15.722,3.524 8.426,3.468 14.192,9.484 17.293,18.05 1.778,5.157 2.825,10.457 3.145,15.903 0.445,6.843 0.285,13.668 -0.477,20.476 -0.57,4.789 -1.808,9.391 -3.715,13.813 -3.539,7.66 -9.269,12.945 -17.199,15.855 -6.425,2.172 -13.031,3.313 -19.82,3.43 C 42.41,91.773 34.848,91.203 27.367,89.664 13.594,86.594 5.098,78.199 1.879,64.473 0.512,58.293 -0.105,52.039 0.02,45.711 -0.133,38.98 0.582,32.344 2.164,25.805 5.539,12.973 13.684,5.02 26.605,1.949 29.613,1.211 32.664,0.719 35.75,0.473 Z"
           style="fill:url(#linearGradient23455);fill-opacity:1;fill-rule:evenodd;stroke:none"
           id="path16621" /></g></g></g><g
     id="g23336"
     transform="translate(-33.609368,2.2001703)"><path
       d="m 70.059969,84.679929 h 14.607622 c 0.04436,0 0.07393,0.0123 0.07393,0.0123 v 7.35556 c 0,0 -0.02957,0.0148 -0.07393,0.0148 H 70.059969 c -0.04435,0 -0.08625,-0.0148 -0.08625,-0.0148 v -7.35556 c 0,0 0.04435,-0.0148 0.08625,-0.0148"
       fill="#e4c82f"
       id="path22545"
       style="stroke-width:2.46417" /><path
       d="m 70.059969,74.773953 h 14.607622 c 0.04436,0 0.07393,0.01479 0.07393,0.01479 v 7.355566 c 0,0 -0.02957,0.0148 -0.07393,0.0148 H 70.059969 c -0.04435,0 -0.08625,-0.0148 -0.08625,-0.0148 v -7.355566 c 0,0 0.04435,-0.01479 0.08625,-0.01479"
       fill="#e4c82f"
       fill-opacity="0.902"
       id="path22547"
       style="stroke-width:2.46417" /><path
       d="m 70.059969,64.867975 h 14.607622 c 0.04436,0 0.07393,0 0.07393,0.01479 v 7.256992 c 0,0.01479 -0.02957,0.01479 -0.07393,0.01479 H 70.059969 c -0.04435,0 -0.08625,0 -0.08625,-0.01479 v -7.256992 c 0,-0.01479 0.04435,-0.01479 0.08625,-0.01479"
       fill="#e4c82f"
       fill-opacity="0.8"
       id="path22549"
       style="stroke-width:2.46417" /><path
       d="m 70.059969,55.112311 h 14.607622 c 0.04436,0 0.07393,0.01479 0.07393,0.01479 v 7.212637 c 0,0 -0.02957,0.01479 -0.07393,0.01479 H 70.059969 c -0.04435,0 -0.08625,-0.01479 -0.08625,-0.01479 v -7.212637 c 0,0 0.04435,-0.01479 0.08625,-0.01479"
       fill="#e4c82f"
       fill-opacity="0.702"
       id="path22551"
       style="stroke-width:2.46417" /><path
       d="m 70.059969,45.25808 h 14.607622 c 0.04436,0 0.07393,0 0.07393,0.01479 v 7.168282 c 0,0 -0.02957,0.01479 -0.07393,0.01479 H 70.059969 c -0.04435,0 -0.08625,-0.01479 -0.08625,-0.01479 v -7.165817 c 0,-0.01479 0.04435,-0.01479 0.08625,-0.01479"
       fill="#e4c82f"
       fill-opacity="0.6"
       id="path22553"
       style="stroke-width:2.46417" /><path
       d="m 104.54854,84.714429 h 14.6224 c 0.0443,0 0.0739,0 0.0739,0.0148 v 7.30134 c 0,0 -0.0296,0.0148 -0.0739,0.0148 h -14.6224 c -0.0444,0 -0.0739,-0.0148 -0.0739,-0.0148 v -7.30134 c 0,-0.0148 0.0296,-0.0148 0.0739,-0.0148"
       fill="#3e8ded"
       id="path22555"
       style="stroke-width:2.46417" /><path
       d="m 104.54854,74.907019 h 14.6224 c 0.0443,0 0.0739,0.01479 0.0739,0.01479 v 7.257 c 0,0.0148 -0.0296,0.0148 -0.0739,0.0148 h -14.6224 c -0.0444,0 -0.0739,0 -0.0739,-0.0148 v -7.257 c 0,0 0.0296,-0.01479 0.0739,-0.01479"
       fill="#3e8ded"
       fill-opacity="0.902"
       id="path22557"
       style="stroke-width:2.46417" /><path
       d="m 104.54854,64.978863 h 14.6224 c 0.0443,0 0.0739,0.01479 0.0739,0.01479 v 7.227421 c 0,0 -0.0296,0.01479 -0.0739,0.01479 h -14.6224 c -0.0444,0 -0.0739,-0.01479 -0.0739,-0.01479 v -7.229885 c 0,0 0.0296,-0.01479 0.0739,-0.01479"
       fill="#3e8ded"
       fill-opacity="0.8"
       id="path22559"
       style="stroke-width:2.46417" /><path
       d="m 104.54854,55.297124 h 14.6224 c 0.0443,0 0.0739,0 0.0739,0.01478 v 7.168282 c 0,0 -0.0296,0.01479 -0.0739,0.01479 h -14.6224 c -0.0444,0 -0.0739,-0.01479 -0.0739,-0.01479 v -7.168277 c 0,-0.01478 0.0296,-0.01478 0.0739,-0.01478"
       fill="#3e8ded"
       fill-opacity="0.702"
       id="path22561"
       style="stroke-width:2.46417" /><path
       d="m 104.54854,45.479856 h 14.6224 c 0.0443,0 0.0739,0.01478 0.0739,0.01478 v 7.111606 c 0,0.01478 -0.0296,0.01478 -0.0739,0.01478 h -14.6224 c -0.0444,0 -0.0739,0 -0.0739,-0.01478 v -7.111606 c 0,0 0.0296,-0.01478 0.0739,-0.01478"
       fill="#3e8ded"
       fill-opacity="0.6"
       id="path22563"
       style="stroke-width:2.46417" /><path
       d="m 104.54854,35.371815 h 14.6224 c 0.0443,0 0.0739,0.01479 0.0739,0.01479 v 7.355554 c 0,0.01478 -0.0296,0.01478 -0.0739,0.01478 h -14.6224 c -0.0444,0 -0.0739,0 -0.0739,-0.01478 V 35.3866 c 0,0 0.0296,-0.01479 0.0739,-0.01479"
       fill="#3e8ded"
       fill-opacity="0.502"
       id="path22565"
       style="stroke-width:2.46417" /><path
       d="m 121.79775,84.679929 h 14.6224 c 0.0444,0 0.0739,0.0123 0.0739,0.0123 v 7.35556 c 0,0 -0.0296,0.0148 -0.0739,0.0148 h -14.6224 c -0.0443,0 -0.0739,-0.0148 -0.0739,-0.0148 v -7.35556 c 0,0 0.0296,-0.0148 0.0739,-0.0148"
       fill="#db4ddb"
       id="path22567"
       style="stroke-width:2.46417" /><path
       d="m 121.79775,74.833094 h 14.6224 c 0.0444,0 0.0739,0 0.0739,0.01479 v 7.311205 c 0,0 -0.0296,0.0148 -0.0739,0.0148 h -14.6224 c -0.0443,0 -0.0739,-0.0148 -0.0739,-0.0148 v -7.311205 c 0,-0.01479 0.0296,-0.01479 0.0739,-0.01479"
       fill="#db4ddb"
       fill-opacity="0.902"
       id="path22569"
       style="stroke-width:2.46417" /><path
       d="m 121.79775,64.867975 h 14.6224 c 0.0444,0 0.0739,0 0.0739,0.01479 v 7.256992 c 0,0.01479 -0.0296,0.01479 -0.0739,0.01479 h -14.6224 c -0.0443,0 -0.0739,0 -0.0739,-0.01479 v -7.256992 c 0,-0.01479 0.0296,-0.01479 0.0739,-0.01479"
       fill="#db4ddb"
       fill-opacity="0.8"
       id="path22571"
       style="stroke-width:2.46417" /><path
       d="m 121.79775,55.112311 h 14.6224 c 0.0444,0 0.0739,0.01479 0.0739,0.01479 v 7.212637 c 0,0 -0.0296,0.01479 -0.0739,0.01479 h -14.6224 c -0.0443,0 -0.0739,-0.01479 -0.0739,-0.01479 v -7.212637 c 0,0 0.0296,-0.01479 0.0739,-0.01479"
       fill="#db4ddb"
       fill-opacity="0.702"
       id="path22573"
       style="stroke-width:2.46417" /><path
       d="m 121.79775,45.25808 h 14.6224 c 0.0444,0 0.0739,0 0.0739,0.01479 v 7.168282 c 0,0 -0.0296,0.01479 -0.0739,0.01479 h -14.6224 c -0.0443,0 -0.0739,-0.01479 -0.0739,-0.01479 v -7.165817 c 0,-0.01479 0.0296,-0.01479 0.0739,-0.01479"
       fill="#db4ddb"
       fill-opacity="0.6"
       id="path22575"
       style="stroke-width:2.46417" /><path
       d="m 87.309185,84.679929 h 14.607625 c 0.0444,0 0.0739,0.0123 0.0739,0.0123 v 7.35556 c 0,0 -0.0296,0.0148 -0.0739,0.0148 H 87.309185 c -0.04436,0 -0.08625,-0.0148 -0.08625,-0.0148 v -7.35556 c 0,0 0.04436,-0.0148 0.08625,-0.0148"
       fill="#7fcf5b"
       id="path22577"
       style="stroke-width:2.46417" /><path
       d="m 87.309185,74.833094 h 14.607625 c 0.0444,0 0.0739,0 0.0739,0.01479 v 7.311205 c 0,0 -0.0296,0.0148 -0.0739,0.0148 H 87.309185 c -0.04436,0 -0.08625,-0.0148 -0.08625,-0.0148 v -7.311205 c 0,-0.01479 0.04436,-0.01479 0.08625,-0.01479"
       fill="#7fcf5b"
       fill-opacity="0.902"
       id="path22579"
       style="stroke-width:2.46417" /><path
       d="m 87.309185,64.867975 h 14.607625 c 0.0444,0 0.0739,0 0.0739,0.01479 v 7.256992 c 0,0.01479 -0.0296,0.01479 -0.0739,0.01479 H 87.309185 c -0.04436,0 -0.08625,0 -0.08625,-0.01479 v -7.256992 c 0,-0.01479 0.04436,-0.01479 0.08625,-0.01479"
       fill="#7fcf5b"
       fill-opacity="0.8"
       id="path22581"
       style="stroke-width:2.46417" /><path
       d="m 52.810753,84.679929 h 14.607622 c 0.04436,0 0.07393,0.0123 0.07393,0.0123 v 7.35556 c 0,0 -0.02957,0.0148 -0.07393,0.0148 H 52.810753 c -0.04435,0 -0.08625,-0.0148 -0.08625,-0.0148 v -7.35556 c 0,0 0.04435,-0.0148 0.08625,-0.0148"
       fill="#c52f2f"
       id="path22583"
       style="stroke-width:2.46417" /><path
       d="m 52.810753,74.907019 h 14.607622 c 0.04436,0 0.07393,0.01479 0.07393,0.01479 v 7.26932 H 52.724507 v -7.26932 c 0,0 0.04435,-0.01479 0.08625,-0.01479"
       fill="#c52f2f"
       fill-opacity="0.902"
       id="path22585"
       style="stroke-width:2.46417" /><path
       d="M 52.810753,64.9419 H 67.4923 v 7.227422 c 0,0.01479 -0.02957,0.01479 -0.07393,0.01479 H 52.810753 c -0.04435,0 -0.08625,0 -0.08625,-0.01479 V 64.9419 h 0.08625"
       fill="#c52f2f"
       fill-opacity="0.8"
       id="path22587"
       style="stroke-width:2.46417" /><path
       d="m 52.810753,55.297124 h 14.607622 c 0.04436,0 0.07393,0 0.07393,0.01478 v 7.168282 c 0,0 -0.02957,0.01479 -0.07393,0.01479 H 52.810753 c -0.04435,0 -0.08625,-0.01479 -0.08625,-0.01479 v -7.168277 c 0,-0.01478 0.04435,-0.01478 0.08625,-0.01478"
       fill="#c52f2f"
       fill-opacity="0.702"
       id="path22589"
       style="stroke-width:2.46417" /><path
       d="m 52.810753,45.479856 h 14.607622 c 0.04436,0 0.07393,0.01478 0.07393,0.01478 v 7.126391 H 52.724507 v -7.126391 c 0,0 0.04435,-0.01478 0.08625,-0.01478"
       fill="#c52f2f"
       fill-opacity="0.6"
       id="path22591"
       style="stroke-width:2.46417" /><path
       d="m 52.810753,35.371815 h 14.607622 c 0.04436,0 0.07393,0 0.07393,0.01479 v 7.343238 c 0,0.01232 -0.02957,0.01232 -0.07393,0.01232 H 52.810753 c -0.04435,0 -0.08625,0 -0.08625,-0.01479 v -7.340774 c 0,-0.01479 0.04435,-0.01479 0.08625,-0.01479"
       fill="#c52f2f"
       fill-opacity="0.502"
       id="path22593"
       style="stroke-width:2.46417" /><path
       d="m 52.810753,25.539762 h 14.607622 c 0.04436,0 0.07393,0.01232 0.07393,0.01232 v 7.355559 c 0,0 -0.02957,0.01478 -0.07393,0.01478 H 52.810753 c -0.04435,0 -0.08625,-0.01478 -0.08625,-0.01478 v -7.355559 c 0,0 0.04435,-0.01478 0.08625,-0.01478"
       fill="#c52f2f"
       fill-opacity="0.4"
       id="path22595"
       style="stroke-width:2.46417" /></g></svg>
