<?xml version="1.0" encoding="UTF-8" standalone="no"?>
<svg
   width="121.99982"
   height="122.00023"
   viewBox="0 0 121.99982 122.00023"
   fill="none"
   version="1.1"
   id="svg8571"
   sodipodi:docname="Template-B.svg"
   xml:space="preserve"
   xmlns:inkscape="http://www.inkscape.org/namespaces/inkscape"
   xmlns:sodipodi="http://sodipodi.sourceforge.net/DTD/sodipodi-0.dtd"
   xmlns:xlink="http://www.w3.org/1999/xlink"
   xmlns="http://www.w3.org/2000/svg"
   xmlns:svg="http://www.w3.org/2000/svg"><sodipodi:namedview
     id="namedview8573"
     pagecolor="#ffffff"
     bordercolor="#000000"
     borderopacity="0.25"
     inkscape:showpageshadow="2"
     inkscape:pageopacity="0.0"
     inkscape:pagecheckerboard="0"
     inkscape:deskcolor="#d1d1d1"
     showgrid="false" /><defs
     id="defs8569"><linearGradient
       inkscape:collect="always"
       id="linearGradient24350"><stop
         style="stop-color:#3c4553;stop-opacity:1;"
         offset="0"
         id="stop24346" /><stop
         style="stop-color:#6f7c91;stop-opacity:1"
         offset="1"
         id="stop24348" /></linearGradient><linearGradient
       inkscape:collect="always"
       xlink:href="#linearGradient24350"
       id="linearGradient24352"
       x1="46.106735"
       y1="57.923939"
       x2="45.650642"
       y2="-10.718475"
       gradientUnits="userSpaceOnUse" /><linearGradient
       inkscape:collect="always"
       xlink:href="#linearGradient24350"
       id="linearGradient24411"
       gradientUnits="userSpaceOnUse"
       x1="46.106735"
       y1="57.923939"
       x2="45.650642"
       y2="-10.718475" /><linearGradient
       inkscape:collect="always"
       xlink:href="#linearGradient24350"
       id="linearGradient24413"
       gradientUnits="userSpaceOnUse"
       x1="46.106735"
       y1="57.923939"
       x2="45.650642"
       y2="-10.718475" /><linearGradient
       inkscape:collect="always"
       xlink:href="#linearGradient24350"
       id="linearGradient24415"
       gradientUnits="userSpaceOnUse"
       x1="46.106735"
       y1="57.923939"
       x2="45.650642"
       y2="-10.718475" /></defs><g
     id="g16605"
     transform="matrix(1.3333333,0,0,1.3333333,3.0444727e-4,5.917673e-4)"
     style="fill:url(#linearGradient24352);fill-opacity:1"
     inkscape:export-filename="../g16605.svg"
     inkscape:export-xdpi="100.72131"
     inkscape:export-ydpi="100.72131"><g
       id="g16607"
       style="fill:url(#linearGradient24415);fill-opacity:1"><g
         id="g16613"
         style="fill:url(#linearGradient24413);fill-opacity:1"><path
           d="m 35.75,0.473 c 0.5,0.004 0.977,-0.059 1.43,-0.192 5.972,-0.39 11.945,-0.375 17.914,0.047 5.414,0.422 10.656,1.598 15.722,3.524 8.426,3.468 14.192,9.484 17.293,18.05 1.778,5.157 2.825,10.457 3.145,15.903 0.445,6.843 0.285,13.668 -0.477,20.476 -0.57,4.789 -1.808,9.391 -3.715,13.813 -3.539,7.66 -9.269,12.945 -17.199,15.855 -6.425,2.172 -13.031,3.313 -19.82,3.43 C 42.41,91.773 34.848,91.203 27.367,89.664 13.594,86.594 5.098,78.199 1.879,64.473 0.512,58.293 -0.105,52.039 0.02,45.711 -0.133,38.98 0.582,32.344 2.164,25.805 5.539,12.973 13.684,5.02 26.605,1.949 29.613,1.211 32.664,0.719 35.75,0.473 Z"
           style="fill:url(#linearGradient24411);fill-opacity:1;fill-rule:evenodd;stroke:none"
           id="path16621" /></g></g></g><path
     d="m 54.673859,22.089256 c -2.314463,-0.03072 -2.806031,0.06145 -3.469647,0.628796 -0.493615,0.423977 -0.89711,1.265787 -1.046629,2.189524 -0.06759,0.415784 -0.10241,3.332418 -0.10241,7.930622 -0.002,5.810737 -0.02867,7.271102 -0.131084,7.271102 -0.07169,0 -3.776877,-3.651937 -8.235804,-8.117008 C 37.22731,27.527221 33.384891,23.742151 33.1473,23.576247 32.502118,23.125644 31.348982,22.605401 30.437534,22.355521 29.687894,22.150702 29.354038,22.13022 25.951981,22.0954 c -2.019523,-0.02253 -3.674467,-0.0041 -3.674467,0.04096 0,0.04711 7.721706,7.803634 17.157754,17.239681 8.764238,8.762191 14.972326,14.941604 16.004617,15.93498 V 22.097448 Z m 12.649659,0 -0.76602,0.01024 v 33.209479 c 1.03229,-0.991327 7.24243,-7.168692 16.00667,-15.934979 9.43604,-9.433999 17.1557,-17.190524 17.1557,-17.235585 0,-0.04711 -1.65494,-0.06554 -3.67447,-0.04506 -3.40205,0.03687 -3.73386,0.0553 -4.48555,0.262169 -0.91145,0.24988 -2.06253,0.770123 -2.70976,1.220726 -0.2376,0.163856 -4.08001,3.950974 -8.54099,8.416045 -4.45688,4.465071 -8.16412,8.11496 -8.23376,8.11496 -0.10241,0 -0.13108,-1.458317 -0.13108,-7.269054 0,-4.598204 -0.0348,-7.516886 -0.10241,-7.930622 -0.14952,-0.923737 -0.55302,-1.765547 -1.04868,-2.189524 -0.66362,-0.56735 -1.15723,-0.661568 -3.46965,-0.628795 z M 22.19149,36.258688 c -0.110603,0 -0.122892,0.626749 -0.09217,3.469647 0.04096,3.3529 0.04506,3.506515 0.299037,4.436397 a 10.425327,10.425327 0 0 0 1.368196,3.082538 c 0.346145,0.530483 2.179283,2.431211 6.963873,7.230138 l 6.494835,6.517366 -6.492787,6.509172 c -4.786638,4.800976 -6.619776,6.701704 -6.965921,7.230139 a 10.423279,10.423279 0 0 0 -1.368196,3.084586 c -0.253977,0.929882 -0.260121,1.083496 -0.299037,4.436401 -0.03277,2.84289 -0.01843,3.46964 0.09217,3.46964 0.188434,0 24.721748,-24.541504 24.721748,-24.729938 0,-0.188435 -24.533314,-24.734038 -24.721748,-24.734038 z m 77.616448,0 c -0.18638,0 -24.7197,24.547651 -24.7197,24.734037 0,0.188435 24.53127,24.729937 24.72175,24.729937 0.10856,0 0.12289,-0.6247 0.0901,-3.46964 -0.0389,-3.352903 -0.0451,-3.504469 -0.29903,-4.434351 a 10.425327,10.425327 0 0 0 -1.3682,-3.084586 c -0.3441,-0.528435 -2.17723,-2.431211 -6.96387,-7.230139 l -6.49279,-6.511221 6.49279,-6.513269 c 4.78664,-4.800975 6.61772,-6.703751 6.96387,-7.232186 0.62265,-0.952412 1.05073,-1.910969 1.3682,-3.084586 0.25397,-0.929882 0.26012,-1.081449 0.29903,-4.434349 0.0328,-2.844946 0.0205,-3.469647 -0.0922,-3.469647 z M 55.439885,66.678523 c -2.367716,2.275547 -33.160323,33.066109 -33.160323,33.166469 0,0.0471 1.652896,0.0717 3.674467,0.0492 3.400009,-0.0369 3.733865,-0.0615 4.485554,-0.26627 0.909399,-0.24988 2.062535,-0.76603 2.707717,-1.21663 0.237591,-0.16386 4.08001,-3.95302 8.540985,-8.41809 4.458927,-4.46507 8.164117,-8.117011 8.233755,-8.117011 0.10241,0 0.131085,1.458321 0.131085,7.269051 0,4.59821 0.03687,7.51484 0.10241,7.93062 0.231446,1.42965 0.927834,2.38206 1.960125,2.68724 0.370724,0.1106 1.036388,0.15362 2.498802,0.15362 0.438314,0 0.487471,-0.0205 0.825423,-0.0287 z m 11.119663,0 v 33.209479 c 0.33795,0.008 0.38506,0.0266 0.82542,0.0266 1.46241,0 2.12603,-0.041 2.4988,-0.15157 1.03024,-0.30723 1.72663,-1.25964 1.95808,-2.68724 0.0676,-0.41578 0.10241,-3.33446 0.10241,-7.93267 0,-5.80868 0.0287,-7.26905 0.13108,-7.26905 0.0717,0 3.77688,3.65194 8.23581,8.11701 4.45893,4.46507 8.30339,8.25424 8.54098,8.42014 0.64519,0.4506 1.79627,0.96675 2.70772,1.21663 0.75169,0.20482 1.08555,0.2294 4.48555,0.26627 2.02158,0.0205 3.67447,-0.004 3.67447,-0.0492 0,-0.10241 -30.79261,-30.890922 -33.16032,-33.166469 z"
     fill="#12a1ff"
     id="path23831"
     style="stroke-width:2.0482" /></svg>
