<?xml version="1.0" encoding="UTF-8" standalone="no"?>
<svg
   width="24"
   height="24"
   version="1.1"
   id="svg9383"
   sodipodi:docname="67EF_addoninstaller.0.svg"
   inkscape:version="1.2.2 (b0a8486541, 2022-12-01)"
   xmlns:inkscape="http://www.inkscape.org/namespaces/inkscape"
   xmlns:sodipodi="http://sodipodi.sourceforge.net/DTD/sodipodi-0.dtd"
   xmlns="http://www.w3.org/2000/svg"
   xmlns:svg="http://www.w3.org/2000/svg">
  <defs
     id="defs9387">
    <radialGradient
       fx="0"
       fy="0"
       cx="0"
       cy="0"
       r="1"
       gradientUnits="userSpaceOnUse"
       gradientTransform="matrix(0,21.999999,-21.999999,0,11.999533,0.99998304)"
       spreadMethod="pad"
       id="radialGradient3666-6">
      <stop
         style="stop-color:#f5f7f2;stop-opacity:1;"
         offset="0"
         id="stop3662-7" />
      <stop
         style="stop-color:#a2ca4c;stop-opacity:1;"
         offset="1"
         id="stop3664-5" />
    </radialGradient>
  </defs>
  <sodipodi:namedview
     id="namedview9385"
     pagecolor="#ffffff"
     bordercolor="#000000"
     borderopacity="0.25"
     inkscape:showpageshadow="2"
     inkscape:pageopacity="0.0"
     inkscape:pagecheckerboard="0"
     inkscape:deskcolor="#d1d1d1"
     showgrid="false"
     inkscape:zoom="6.828125"
     inkscape:cx="-43.203661"
     inkscape:cy="17.281465"
     inkscape:window-width="2560"
     inkscape:window-height="998"
     inkscape:window-x="1680"
     inkscape:window-y="0"
     inkscape:window-maximized="1"
     inkscape:current-layer="svg9383" />
  <path
     d="m 9.5928713,1.1146339 c 0.1199986,0 0.2346679,-0.015988 0.3440005,-0.046667 1.4373332,-0.0946677 2.8746662,-0.0893347 4.3080002,0.010659 1.301333,0.1039995 2.561333,0.3853334 3.781333,0.8479998 2.025333,0.8333335 3.410666,2.2813334 4.161333,4.3386668 0.421334,1.2399997 0.676,2.5159997 0.754667,3.8226665 0.103999,1.646666 0.068,3.286665 -0.114666,4.927999 -0.14,1.150669 -0.437333,2.254669 -0.896,3.317334 -0.849333,1.844 -2.229333,3.114668 -4.134666,3.812001 -1.542667,0.521331 -3.130667,0.797333 -4.766667,0.823998 -1.833333,0.09869 -3.6506664,-0.04267 -5.4519998,-0.411999 C 4.2702052,21.822624 2.2235394,19.802627 1.452871,16.499958 1.1248771,15.015958 0.97287285,13.510626 1.004871,11.989294 0.96896474,10.374626 1.1395382,8.7759586 1.5208736,7.2026255 2.3328719,4.1199587 4.2915373,2.207959 7.3955396,1.4692921 8.1195397,1.2919607 8.8542063,1.1719583 9.5928728,1.1146255 Z"
     style="fill:url(#radialGradient3666-6);fill-rule:evenodd;stroke:none;stroke-width:1.333;stroke-dasharray:none"
     id="path3668" />
  <path
     id="path334"
     style="opacity:0.727273;mix-blend-mode:normal;fill:#f8f9f9;fill-opacity:1;stroke-width:2.41125;paint-order:stroke fill markers"
     d="m 16.350347,1.3883927 -0.105028,3.9569058 c -0.05494,2.0698091 1.650067,3.7820368 3.821341,3.8402801 l 2.823212,0.075732 C 22.787891,8.3216262 22.597234,7.3969534 22.316764,6.4882717 21.621241,4.4006716 20.274278,2.9071812 18.271893,2.0154325 17.643472,1.756374 17.003236,1.5498467 16.350347,1.3883927 Z" />
  <path
     d="m 12.093109,5.291762 c -0.774125,0 -1.401812,0.4345 -1.401812,0.9707498 0.02235,0.1997194 0.148844,0.452375 0.215532,0.5390003 0.323468,0.4314066 0.323468,0.7012502 0.242687,0.8628119 H 8.5342664 c -0.4778125,0 -0.8628128,0.3850003 -0.8628128,0.8628132 V 10.71098 c 0.1619057,0.08079 0.4314064,0.08079 0.8628128,-0.242689 0.086631,-0.0667 0.3392811,-0.193186 0.5393435,-0.215875 0.5362497,0 0.9704061,0.627689 0.9704061,1.402157 0,0.774125 -0.4345004,1.401813 -0.9704061,1.401813 C 8.9089535,13.053544 8.6590476,12.906511 8.5342664,12.840855 8.10286,12.517042 7.8333594,12.517042 7.6714536,12.598166 v 2.830781 c 0,0.477813 0.3850002,0.862815 0.8628128,0.862815 h 3.4780626 c 0.08078,-0.161565 0.08078,-0.431408 -0.242689,-0.862815 -0.06669,-0.08663 -0.193187,-0.33928 -0.21553,-0.539343 0,-0.535907 0.627687,-0.970406 1.401812,-0.970406 0.774125,0 1.402156,0.434499 1.402156,0.970406 -0.0031,0.164658 -0.150219,0.414906 -0.215874,0.539688 -0.32347,0.431062 -0.32347,0.700562 -0.242689,0.86247 h 1.536564 c 0.478156,0 0.862812,-0.385002 0.862812,-0.862815 v -2.399374 c 0.161906,-0.08113 0.431749,-0.08113 0.862812,0.242688 0.12478,0.0653 0.374687,0.21278 0.539343,0.215531 0.53625,0 0.97075,-0.627687 0.97075,-1.401812 0,-0.774469 -0.434842,-1.402157 -0.97075,-1.402157 -0.200063,0.02235 -0.452374,0.148844 -0.539343,0.215875 -0.431063,0.323124 -0.700907,0.323124 -0.862812,0.242344 V 8.5271372 c 0,-0.4778129 -0.384656,-0.8628132 -0.862812,-0.8628132 h -2.399376 c -0.08078,-0.1615617 -0.08078,-0.4314053 0.242687,-0.8628119 0.066,-0.124438 0.213125,-0.3746879 0.215874,-0.5393443 0,-0.5359058 -0.627687,-0.9704058 -1.402155,-0.9704058 z"
     fill="#f9f9f9"
     id="path14540"
     style="stroke-width:0.34375" />
</svg>
