<?xml version="1.0" encoding="UTF-8" standalone="no"?>
<svg
   width="24"
   height="24"
   viewBox="0 0 6.349875 6.349875"
   version="1.1"
   id="svg13563"
   sodipodi:docname="sogou_notify.svg"
   inkscape:version="1.2.2 (b0a8486541, 2022-12-01)"
   xmlns:inkscape="http://www.inkscape.org/namespaces/inkscape"
   xmlns:sodipodi="http://sodipodi.sourceforge.net/DTD/sodipodi-0.dtd"
   xmlns="http://www.w3.org/2000/svg"
   xmlns:svg="http://www.w3.org/2000/svg">
  <defs
     id="defs13567">
    <radialGradient
       fx="0"
       fy="0"
       cx="0"
       cy="0"
       r="1"
       gradientUnits="userSpaceOnUse"
       gradientTransform="matrix(0,5.8207187,-5.8207187,0,3.1746946,0.26456351)"
       spreadMethod="pad"
       id="radialGradient868-3">
      <stop
         style="stop-color:#fbcbb9;stop-opacity:1;"
         offset="0"
         id="stop864-6" />
      <stop
         style="stop-color:#ff7643;stop-opacity:1;"
         offset="1"
         id="stop866-7" />
    </radialGradient>
  </defs>
  <sodipodi:namedview
     id="namedview13565"
     pagecolor="#ffffff"
     bordercolor="#000000"
     borderopacity="0.25"
     inkscape:showpageshadow="2"
     inkscape:pageopacity="0.0"
     inkscape:pagecheckerboard="0"
     inkscape:deskcolor="#d1d1d1"
     showgrid="false"
     inkscape:zoom="6.828125"
     inkscape:cx="2.9290618"
     inkscape:cy="20.796339"
     inkscape:window-width="2560"
     inkscape:window-height="998"
     inkscape:window-x="1680"
     inkscape:window-y="0"
     inkscape:window-maximized="1"
     inkscape:current-layer="svg13563" />
  <path
     d="m 2.5380664,0.29490709 c 0.031749,0 0.062088,-0.004233 0.091015,-0.012347 0.3802869,-0.0250467 0.7605739,-0.0236356 1.1398025,0.002822 0.3443044,0.0275161 0.6776728,0.10195077 1.0004581,0.22436225 0.5358589,0.22048177 0.9023878,0.60359086 1.1009978,1.14791626 0.1114756,0.3280769 0.1788548,0.6656786 0.1996683,1.011394 0.027516,0.435672 0.017991,0.8695801 -0.030338,1.303841 C 6.0026287,4.277337 5.9239608,4.5694312 5.8026077,4.8505896 5.5778927,5.3384716 5.2127748,5.6746623 4.7086653,5.8591614 4.3005095,5.9970948 3.8803594,6.0701184 3.4475096,6.0771738 2.9624497,6.1032788 2.4816231,6.0658851 2.0050297,5.9681676 1.1298053,5.7737909 0.58830204,5.239343 0.3844005,4.3655297 0.29761887,3.9728958 0.257403,3.5746175 0.2658695,3.172106 0.25634469,2.7449005 0.30149935,2.3219283 0.40239181,1.9056587 0.61722925,1.0900525 1.1354496,0.58417917 1.9567001,0.38874413 2.1482546,0.34182561 2.3426314,0.31007624 2.5380664,0.29490709 Z"
     style="fill:url(#radialGradient868-3);fill-rule:evenodd;stroke:none;stroke-width:0.352771"
     id="path870" />
  <path
     d="m 3.0585818,1.3238363 c -0.1385007,0.003 -0.2750013,0.008 -0.3645017,0.0215 -0.4020018,0.0615 -0.7250033,0.202501 -0.9320042,0.4085019 a 0.82900373,0.82900373 0 0 0 -0.226001,0.3875017 c -0.0245,0.0935 -0.0325,0.3100014 -0.007,0.3920018 0.0845,0.2905013 0.2850013,0.5135023 0.662003,0.7375033 0.1605007,0.095 0.2845013,0.1575007 0.6410029,0.3185014 0.4280019,0.1920009 0.5580024,0.2700013 0.6190027,0.3660017 0.024,0.0385 0.032501,0.059 0.029,0.1060005 -0.0065,0.074501 -0.0435,0.1115005 -0.1305005,0.1435006 -0.0585,0.02 -0.0795,0.0265 -0.190001,0.0265 -0.2015012,-0.002 -0.379502,-0.04 -0.6260031,-0.1275007 A 2.2785102,2.2785102 0 0 1 2.0465772,3.8648478 c -0.1435006,-0.0935 -0.1550007,-0.097001 -0.1975009,-0.0745 -0.0315,0.018 -0.2640012,0.2250011 -0.436002,0.3935018 -0.1125005,0.1090005 -0.1140005,0.1310008 -0.0365,0.2065011 0.076,0.075001 0.2900013,0.2345011 0.4075019,0.3020014 0.1275006,0.075 0.213001,0.1170006 0.3565016,0.1700007 0.2415011,0.09 0.443502,0.1270007 0.8230037,0.1590008 0.086,0.007 0.3940018,0.008 0.5020023,0 0.5935026,-0.0475 1.0775048,-0.2410011 1.332006,-0.5250024 0.092001,-0.1005005 0.1465007,-0.1870008 0.1900008,-0.3080016 0.042,-0.1170005 0.0525,-0.3475015 0.0215,-0.4875022 C 4.9580903,3.473846 4.8215897,3.2688451 4.6010887,3.0958443 4.3805877,2.9228436 4.1560867,2.807343 3.6185843,2.5918421 3.2425826,2.4423414 3.1015819,2.362841 3.0650818,2.2793407 c -0.02,-0.045 -0.008,-0.1240007 0.0215,-0.1540008 0.0595,-0.06 0.1735008,-0.081501 0.3210014,-0.0635 0.2750012,0.0335 0.6280029,0.1600008 0.9390043,0.3335015 0.06,0.0335 0.1185005,0.0615 0.1315006,0.064001 0.05,0.013 0.0805,-0.007 0.2835012,-0.2390011 C 5.0110906,1.935339 5.0085905,1.9463391 4.8710899,1.8488387 4.462088,1.5558374 3.988086,1.3858366 3.4440835,1.3348364 a 3.8025171,3.8025171 0 0 0 -0.3860017,-0.011 z"
     fill="#ffffff"
     id="path14694"
     style="stroke-width:0.500003" />
</svg>
