<?xml version="1.0" encoding="UTF-8" standalone="no"?>
<svg
   width="24"
   height="24"
   viewBox="0 0 6.349875 6.349875"
   version="1.1"
   id="svg4"
   sodipodi:docname="filemanager-actions.svg"
   inkscape:version="1.3 (0e150ed6c4, 2023-07-21)"
   xmlns:inkscape="http://www.inkscape.org/namespaces/inkscape"
   xmlns:sodipodi="http://sodipodi.sourceforge.net/DTD/sodipodi-0.dtd"
   xmlns="http://www.w3.org/2000/svg"
   xmlns:svg="http://www.w3.org/2000/svg">
  <defs
     id="defs4">
    <linearGradient
       id="paint0_linear_201_118"
       x1="23"
       y1="0.99999899"
       x2="1"
       y2="12"
       gradientUnits="userSpaceOnUse"
       gradientTransform="scale(0.26457812)">
      <stop
         stop-color="#198CFF"
         id="stop5-5" />
      <stop
         offset="1"
         stop-color="#1964FF"
         id="stop6-0" />
    </linearGradient>
    <linearGradient
       id="paint1_linear_201_48"
       x1="21"
       y1="4"
       x2="3"
       y2="4"
       gradientUnits="userSpaceOnUse"
       gradientTransform="scale(0.26457812)">
      <stop
         stop-opacity="0.5"
         id="stop7" />
      <stop
         offset="0.890123"
         id="stop8" />
      <stop
         offset="1"
         stop-opacity="0"
         id="stop9" />
    </linearGradient>
    <linearGradient
       id="paint2_linear_201_48"
       x1="12"
       y1="3"
       x2="11.5"
       y2="8"
       gradientUnits="userSpaceOnUse"
       gradientTransform="scale(0.26457812)">
      <stop
         stop-color="#DDDDDD"
         id="stop10" />
      <stop
         offset="1"
         stop-color="#CCCCCC"
         stop-opacity="0"
         id="stop11" />
    </linearGradient>
    <linearGradient
       id="paint3_linear_201_48"
       x1="23"
       y1="9"
       x2="1.01236"
       y2="9.52141"
       gradientUnits="userSpaceOnUse"
       gradientTransform="scale(0.26457812)">
      <stop
         stop-opacity="0.5"
         id="stop12" />
      <stop
         offset="1"
         id="stop13" />
    </linearGradient>
    <linearGradient
       id="paint4_linear_201_118"
       x1="23"
       y1="5.4000001"
       x2="1.42949"
       y2="23.511499"
       gradientUnits="userSpaceOnUse"
       gradientTransform="scale(0.26457812)">
      <stop
         stop-color="#198CFF"
         id="stop14-0" />
      <stop
         offset="1"
         stop-color="#3F8AE8"
         id="stop15-6" />
    </linearGradient>
    <linearGradient
       id="paint5_linear_201_118"
       x1="15"
       y1="5.5"
       x2="5.5"
       y2="19.5"
       gradientUnits="userSpaceOnUse"
       gradientTransform="scale(0.26457812)">
      <stop
         stop-color="#85F8FF"
         id="stop16-1" />
      <stop
         offset="1"
         stop-color="#105BF6"
         id="stop17-5" />
    </linearGradient>
  </defs>
  <sodipodi:namedview
     id="namedview4"
     pagecolor="#ffffff"
     bordercolor="#000000"
     borderopacity="0.25"
     inkscape:showpageshadow="2"
     inkscape:pageopacity="0.0"
     inkscape:pagecheckerboard="0"
     inkscape:deskcolor="#d1d1d1"
     inkscape:zoom="4.4801844"
     inkscape:cx="55.354865"
     inkscape:cy="1.8972433"
     inkscape:window-width="2560"
     inkscape:window-height="998"
     inkscape:window-x="0"
     inkscape:window-y="0"
     inkscape:window-maximized="1"
     inkscape:current-layer="svg4" />
  <rect
     opacity="0.8125"
     x="0.26457813"
     y="0.26457813"
     width="5.8207188"
     height="5.8207188"
     rx="1.7462156"
     fill="url(#paint0_linear_201_118)"
     id="rect1"
     style="fill:url(#paint0_linear_201_118);stroke-width:0.264578" />
  <rect
     opacity="0.125"
     x="0.79373437"
     y="0.59530079"
     width="4.7624063"
     height="4.7624063"
     rx="1.1641438"
     fill="url(#paint1_linear_201_118)"
     fill-opacity="0.875"
     id="rect2"
     style="fill:url(#paint1_linear_201_48);stroke-width:0.264578" />
  <rect
     x="0.8598789"
     y="0.8598789"
     width="4.6301169"
     height="4.6301169"
     rx="1.0979992"
     fill="#cccccc"
     stroke="url(#paint2_linear_201_118)"
     stroke-width="0.132289"
     id="rect3-1"
     style="stroke:url(#paint2_linear_201_48)" />
  <path
     opacity="0.125"
     d="m 0.26457812,1.9864023 c 0,-0.4395093 0.35629148,-0.7958008 0.79580068,-0.7958008 h 1.106643 c 0.2842945,0 0.559932,0.097878 0.7805372,0.2771774 v 0 c 0.2206317,0.1792993 0.4962427,0.2771773 0.7805584,0.2771773 h 1.5613813 c 0.4395172,0 0.7957981,0.3562915 0.7957981,0.7958007 v 1.560204 c 0,0.9644137 -0.7818019,1.7462156 -1.7462156,1.7462156 H 2.0107937 c -0.9644084,0 -1.74621558,-0.7818019 -1.74621558,-1.7462156 z"
     fill="url(#paint3_linear_201_118)"
     fill-opacity="0.875"
     id="path3-9"
     style="fill:url(#paint3_linear_201_48);stroke-width:0.264578" />
  <path
     d="m 0.26457812,2.2245226 c 0,-0.4395093 0.35629148,-0.7958008 0.79580068,-0.7958008 h 1.106643 c 0.2842945,0 0.559932,0.097878 0.7805372,0.2771774 v 0 c 0.2206317,0.1792993 0.4962427,0.2771773 0.7805584,0.2771773 h 1.5613813 c 0.4395172,0 0.7957981,0.3562915 0.7957981,0.795814 v 1.5601907 c 0,0.9644137 -0.7818019,1.7462156 -1.7462156,1.7462156 H 2.0107937 c -0.9644084,0 -1.74621558,-0.7818019 -1.74621558,-1.7462156 z"
     fill="url(#paint4_linear_201_118)"
     id="path4-9"
     style="opacity:0.875;fill:url(#paint4_linear_201_118);stroke-width:0.264578" />
  <path
     d="M 5.98608,2.7788905 V 4.3390812 C 5.98608,5.2487007 5.2487007,5.98608 4.3390812,5.98608 H 2.0107937 c -0.9096116,0 -1.64699878,-0.7373793 -1.64699878,-1.6469988 V 2.2245226 c 0,-0.3847125 0.31187145,-0.696584 0.69658388,-0.696584 h 1.106643 c 0.2615037,0 0.5150331,0.090031 0.7179645,0.2549555 0.2383055,0.1936738 0.5360352,0.2993992 0.8431311,0.2993992 h 1.5613813 c 0.3846966,0 0.6965813,0.3118715 0.6965813,0.6965972 z"
     stroke="url(#paint5_linear_201_118)"
     stroke-opacity="0.375"
     stroke-width="0.198434"
     stroke-linejoin="round"
     id="path5"
     style="opacity:0.875;stroke:url(#paint5_linear_201_118);fill:none" />
  <path
     d="m 3.0935564,2.5164453 a 0.32869177,0.32869177 0 0 0 -0.3280663,0.3286918 0.16247122,0.16247122 0 0 1 -0.163721,0.1618463 0.15247299,0.15247299 0 0 1 -0.076236,-0.021871 0.08248539,0.08248539 0 0 0 -0.00125,0 0.33056643,0.33056643 0 0 0 -0.4492954,0.1206036 l -0.084985,0.1406001 a 0.08248539,0.08248539 0 0 0 -0.00125,0.00125 0.33056643,0.33056643 0 0 0 0.1199788,0.4499203 0.16372099,0.16372099 0 0 1 0,0.2836997 0.32931666,0.32931666 0 0 0 -0.1199788,0.4486705 l 0.081236,0.1393504 a 0.32994155,0.32994155 0 0 0 0.4492954,0.1274774 0.08248539,0.08248539 0 0 0 6.249e-4,-6.25e-4 0.16122144,0.16122144 0 0 1 0.2224606,0.05936 0.08248539,0.08248539 0 0 0 0,0.0012 c 0.014372,0.02312 0.021871,0.04999 0.021871,0.07686 6.249e-4,0.180593 0.1487237,0.328692 0.3293167,0.328692 H 3.256028 a 0.33119132,0.33119132 0 0 0 0.3286918,-0.3280671 0.08248539,0.08248539 0 0 0 0,-6.249e-4 0.16247122,0.16247122 0 0 1 0.1630961,-0.1637211 0.169345,0.169345 0 0 1 0.078111,0.02187 0.33119132,0.33119132 0 0 0 0.44992,-0.1199788 L 4.3595824,4.4311061 A 0.08248539,0.08248539 0 0 0 4.3602073,4.4298563 0.32806688,0.32806688 0 0 0 4.2402285,3.979936 0.16247122,0.16247122 0 0 1 4.180864,3.7568505 0.15934677,0.15934677 0 0 1 4.2402285,3.6974861 0.32931666,0.32931666 0 0 0 4.3695806,3.2694369 0.08248539,0.08248539 0 0 0 4.3608322,3.2475658 L 4.2802214,3.1082155 a 0.33119132,0.33119132 0 0 0 -0.449295,-0.1212286 0.08248539,0.08248539 0 0 0 -6.249e-4,0 0.16247122,0.16247122 0 0 1 -0.2237104,-0.05749 0.15309788,0.15309788 0 0 1 -0.021871,-0.076861 v 0.00312 A 0.32994155,0.32994155 0 0 0 3.2554033,2.5164453 Z m 0,0.1655957 h 0.1624718 a 0.16434588,0.16434588 0 0 1 0.163721,0.1687201 0.08248539,0.08248539 0 0 0 0,0.00312 0.32806688,0.32806688 0 0 0 0.4936625,0.2762011 0.16247122,0.16247122 0 0 1 0.2237107,0.060614 l 0.077485,0.1343512 a 0.08248539,0.08248539 0 0 0 0.0025,0.00625 0.16247122,0.16247122 0 0 1 -0.059365,0.2230855 0.32494243,0.32494243 0 0 0 -0.1199784,0.118729 v 6.249e-4 a 0.32869177,0.32869177 0 0 0 0.1199784,0.4499202 0.1630961,0.1630961 0 0 1 0.059989,0.2224606 v 6.249e-4 l -0.084985,0.141225 a 0.08248539,0.08248539 0 0 0 0,6.249e-4 0.16247122,0.16247122 0 0 1 -0.2243353,0.059989 0.33431577,0.33431577 0 0 0 -0.1568472,-0.044367 0.08248539,0.08248539 0 0 0 -0.00187,0 0.32869177,0.32869177 0 0 0 -0.3299453,0.3299449 0.16247122,0.16247122 0 0 1 -0.1643459,0.162472 H 3.0935564 a 0.16247122,0.16247122 0 0 1 -0.1643459,-0.164346 0.08248539,0.08248539 0 0 0 0,-6.25e-4 A 0.3268171,0.3268171 0 0 0 2.4374226,4.5529595 0.16372099,0.16372099 0 0 1 2.2143371,4.4892208 0.08248539,0.08248539 0 0 0 2.2137123,4.4873461 L 2.1324766,4.3473709 a 0.16184633,0.16184633 0 0 1 0.059365,-0.2224606 0.32994155,0.32994155 0 0 0 0,-0.5705239 0.16247122,0.16247122 0 0 1 -0.059365,-0.2237104 l 0.084985,-0.1406001 a 0.08248539,0.08248539 0 0 0 0.00125,-0.00125 0.16247122,0.16247122 0 0 1 0.2237103,-0.060614 c 0.047492,0.02812 0.1024819,0.043742 0.158097,0.043742 a 0.08248539,0.08248539 0 0 0 6.249e-4,0 0.33119132,0.33119132 0 0 0 0.3293167,-0.3249425 0.08248539,0.08248539 0 0 0 0,-0.00125 0.16247122,0.16247122 0 0 1 0.1630959,-0.1637204 z m 0.081236,0.6611328 A 0.49741187,0.49741187 0 0 0 2.6786299,3.8393359 c 0,0.2730766 0.2230855,0.4961621 0.4961621,0.4961621 A 0.49741187,0.49741187 0 0 0 3.6709541,3.8393359 0.49741187,0.49741187 0 0 0 3.1747924,3.3431738 Z m 0,0.1655957 c 0.1837174,0 0.3311913,0.146849 0.3311913,0.3305664 0,0.1837175 -0.1474739,0.3311913 -0.3311913,0.3311913 A 0.32931666,0.32931666 0 0 1 2.8442255,3.8393359 c 0,-0.1837174 0.146849,-0.3311913 0.3311914,-0.3311913 z"
     clip-rule="evenodd"
     color="#000000"
     fill="#ffffff"
     fill-rule="evenodd"
     opacity="0.75"
     style="font-variant-ligatures:normal;font-variant-position:normal;font-variant-caps:normal;font-variant-numeric:normal;font-variant-alternates:normal;font-variant-east-asian:normal;font-feature-settings:normal;font-variation-settings:normal;text-indent:0;text-decoration-line:none;text-decoration-style:solid;text-decoration-color:#000000;text-transform:none;text-orientation:mixed;white-space:normal;shape-padding:0;shape-margin:0;inline-size:0;isolation:auto;mix-blend-mode:normal;stroke-width:0.999998"
     id="path6" />
</svg>
