<?xml version="1.0" encoding="UTF-8" standalone="no"?>
<svg
   width="24"
   height="24"
   viewBox="0 0 24 24"
   fill="none"
   version="1.1"
   id="svg5"
   sodipodi:docname="kfm.svg"
   xml:space="preserve"
   inkscape:version="1.3 (0e150ed6c4, 2023-07-21)"
   xmlns:inkscape="http://www.inkscape.org/namespaces/inkscape"
   xmlns:sodipodi="http://sodipodi.sourceforge.net/DTD/sodipodi-0.dtd"
   xmlns:xlink="http://www.w3.org/1999/xlink"
   xmlns="http://www.w3.org/2000/svg"
   xmlns:svg="http://www.w3.org/2000/svg"
   xmlns:sketch="http://www.bohemiancoding.com/sketch/ns"><sodipodi:namedview
     id="namedview5"
     pagecolor="#ffffff"
     bordercolor="#000000"
     borderopacity="0.25"
     inkscape:showpageshadow="2"
     inkscape:pageopacity="0.0"
     inkscape:pagecheckerboard="0"
     inkscape:deskcolor="#d1d1d1"
     inkscape:zoom="2"
     inkscape:cx="-233"
     inkscape:cy="43.75"
     inkscape:window-width="2560"
     inkscape:window-height="998"
     inkscape:window-x="0"
     inkscape:window-y="0"
     inkscape:window-maximized="1"
     inkscape:current-layer="svg5" /><path
     d="M 12,0.99999995 C 1.9999999,0.99999995 0.99999995,5.9999999 0.99999995,12 0.99999995,20 4,22.999999 12,22.999999 20,22.999999 22.999999,20 22.999999,12 22.999999,5.9999999 22,0.99999995 12,0.99999995 Z"
     sketch:type="MSShapeGroup"
     id="path6"
     style="font-variation-settings:normal;display:inline;vector-effect:none;fill:#f6f5f4;fill-opacity:1;stroke-width:1.11627;stroke-linecap:butt;stroke-linejoin:miter;stroke-miterlimit:4;stroke-dasharray:none;stroke-dashoffset:0;stroke-opacity:1;-inkscape-stroke:none;stop-color:#000000"
     sodipodi:nodetypes="sssss"
     inkscape:label="Shape" /><path
     d="M 12,1.9750007 C 2.886364,1.9750007 1.9750004,6.5318185 1.9750004,12 1.9750004,19.290909 4.7090912,22.024999 12,22.024999 19.290909,22.024999 22.024999,19.290909 22.024999,12 22.024999,6.5318185 21.113636,1.9750007 12,1.9750007 Z"
     sketch:type="MSShapeGroup"
     id="path45683"
     style="font-variation-settings:normal;display:inline;vector-effect:none;fill:url(#radialGradient32);fill-opacity:1;stroke-width:1.01733;stroke-linecap:butt;stroke-linejoin:miter;stroke-miterlimit:4;stroke-dasharray:none;stroke-dashoffset:0;stroke-opacity:1;-inkscape-stroke:none;stop-color:#000000;stroke:url(#radialGradient30)"
     sodipodi:nodetypes="sssss"
     inkscape:label="Shape" /><defs
     id="defs5"><linearGradient
       id="linearGradient30"
       inkscape:collect="always"><stop
         style="stop-color:#47a1ff;stop-opacity:1;"
         offset="0"
         id="stop31" /><stop
         style="stop-color:#3584e4;stop-opacity:1;"
         offset="1"
         id="stop32" /></linearGradient><linearGradient
       id="linearGradient29"
       inkscape:collect="always"><stop
         style="stop-color:#000000;stop-opacity:1;"
         offset="0"
         id="stop29" /><stop
         style="stop-color:#000000;stop-opacity:0;"
         offset="1"
         id="stop30" /></linearGradient><radialGradient
       id="paint0_radial_8_72"
       cx="0"
       cy="0"
       r="1"
       gradientUnits="userSpaceOnUse"
       gradientTransform="matrix(0,22,-22,0,-48,1)"><stop
         stop-color="#73CEFF"
         id="stop4" /><stop
         offset="1"
         stop-color="#0C5E8A"
         id="stop5" /></radialGradient><radialGradient
       inkscape:collect="always"
       xlink:href="#linearGradient29"
       id="radialGradient30"
       cx="12"
       cy="12"
       fx="12"
       fy="12"
       r="10.024999"
       gradientUnits="userSpaceOnUse"
       gradientTransform="matrix(1.0725602,0,0,0.86438409,-0.87072297,1.6273912)" /><radialGradient
       inkscape:collect="always"
       xlink:href="#linearGradient30"
       id="radialGradient32"
       cx="12"
       cy="12"
       fx="12"
       fy="12"
       r="10.533664"
       gradientUnits="userSpaceOnUse" /></defs><path
     id="path16"
     style="font-variation-settings:normal;display:inline;vector-effect:none;fill:#1c71d8;fill-opacity:1;stroke-width:1.01733;stroke-linecap:butt;stroke-linejoin:miter;stroke-miterlimit:4;stroke-dasharray:none;stroke-dashoffset:0;stroke-opacity:1;-inkscape-stroke:none;stop-color:#000000"
     inkscape:label="Shape"
     d="M 2.0625 14.078125 C 2.0726766 14.191385 2.0836793 14.303544 2.0957031 14.414062 L 21.904297 14.414062 C 21.916321 14.303544 21.927323 14.191385 21.9375 14.078125 L 2.0625 14.078125 z " /><path
     id="path17"
     style="font-variation-settings:normal;display:inline;vector-effect:none;fill:#1c71d8;fill-opacity:1;stroke-width:1.01733;stroke-linecap:butt;stroke-linejoin:miter;stroke-miterlimit:4;stroke-dasharray:none;stroke-dashoffset:0;stroke-opacity:1;-inkscape-stroke:none;stop-color:#000000"
     inkscape:label="Shape"
     d="M 2.1835938 8.5703125 C 2.166624 8.6808692 2.1531613 8.7939878 2.1386719 8.90625 L 21.861328 8.90625 C 21.846839 8.7939878 21.833376 8.6808692 21.816406 8.5703125 L 2.1835938 8.5703125 z " /><path
     id="path19"
     style="font-variation-settings:normal;display:inline;vector-effect:none;fill:#1a5fb4;fill-opacity:1;stroke-width:1.01733;stroke-linecap:butt;stroke-linejoin:miter;stroke-miterlimit:4;stroke-dasharray:none;stroke-dashoffset:0;stroke-opacity:1;-inkscape-stroke:none;stop-color:#000000"
     inkscape:label="Shape"
     d="M 1.976562,11.814453 C 1.976313,11.876764 1.974609,11.937445 1.974609,12 c 0,7.290902 2.734489,10.025391 10.025391,10.025391 7.290902,0 10.025391,-2.734489 10.025391,-10.025391 0,-0.06255 -0.0017,-0.123236 -0.002,-0.185547 C 21.969006,18.942052 19.217835,21.625 12,21.625 4.782165,21.625 2.030994,18.942052 1.976562,11.814453 Z" /><g
     id="g29"
     transform="translate(0,-0.14956041)"
     sodipodi:insensitive="true"><g
       id="g24"
       transform="translate(0.24306675)"><path
         id="path23"
         style="fill:#b7b6b3;fill-opacity:1;stroke:none;stroke-width:1;-inkscape-stroke:none;paint-order:stroke markers fill"
         d="m 10.243261,5.578942 c -0.3073981,0 -0.5546881,0.24729 -0.5546881,0.554688 v 0.138672 h 0.6757821 v -0.34961 h 2.785156 v 0.34961 h 0.675781 V 6.13363 c 0,-0.307398 -0.247289,-0.554688 -0.554687,-0.554688 z" /><path
         id="path24"
         style="fill:#deddda;fill-opacity:1;stroke:none;stroke-width:1;-inkscape-stroke:none;paint-order:stroke markers fill"
         d="m 10.243261,4.87777 c -0.3073981,0 -0.5546891,0.24729 -0.5546891,0.554688 v 0.480469 c 0,0.03647 0.0051,0.07295 0.01172,0.107421 0.05157,-0.2533 0.273997,-0.441406 0.5429701,-0.441406 h 3.027344 c 0.268973,0 0.491398,0.188106 0.542968,0.441406 0.0067,-0.03447 0.01172,-0.07095 0.01172,-0.107421 V 5.432458 c 0,-0.307398 -0.24729,-0.554688 -0.554687,-0.554688 z" /></g><g
       id="g26"
       transform="translate(0.24306675,6)"><path
         id="path25"
         style="fill:#b7b6b3;fill-opacity:1;stroke:none;stroke-width:1;-inkscape-stroke:none;paint-order:stroke markers fill"
         d="m 10.243261,5.578942 c -0.3073981,0 -0.5546881,0.24729 -0.5546881,0.554688 v 0.138672 h 0.6757821 v -0.34961 h 2.785156 v 0.34961 h 0.675781 V 6.13363 c 0,-0.307398 -0.247289,-0.554688 -0.554687,-0.554688 z" /><path
         id="path26"
         style="fill:#deddda;fill-opacity:1;stroke:none;stroke-width:1;-inkscape-stroke:none;paint-order:stroke markers fill"
         d="m 10.243261,4.87777 c -0.3073981,0 -0.5546891,0.24729 -0.5546891,0.554688 v 0.480469 c 0,0.03647 0.0051,0.07295 0.01172,0.107421 0.05157,-0.2533 0.273997,-0.441406 0.5429701,-0.441406 h 3.027344 c 0.268973,0 0.491398,0.188106 0.542968,0.441406 0.0067,-0.03447 0.01172,-0.07095 0.01172,-0.107421 V 5.432458 c 0,-0.307398 -0.24729,-0.554688 -0.554687,-0.554688 z" /></g><g
       id="g28"
       transform="translate(0.24306675,12)"><path
         id="path27"
         style="fill:#b7b6b3;fill-opacity:1;stroke:none;stroke-width:1;-inkscape-stroke:none;paint-order:stroke markers fill"
         d="m 10.243261,5.578942 c -0.3073981,0 -0.5546881,0.24729 -0.5546881,0.554688 v 0.138672 h 0.6757821 v -0.34961 h 2.785156 v 0.34961 h 0.675781 V 6.13363 c 0,-0.307398 -0.247289,-0.554688 -0.554687,-0.554688 z" /><path
         id="path28"
         style="fill:#deddda;fill-opacity:1;stroke:none;stroke-width:1;-inkscape-stroke:none;paint-order:stroke markers fill"
         d="m 10.243261,4.87777 c -0.3073981,0 -0.5546891,0.24729 -0.5546891,0.554688 v 0.480469 c 0,0.03647 0.0051,0.07295 0.01172,0.107421 0.05157,-0.2533 0.273997,-0.441406 0.5429701,-0.441406 h 3.027344 c 0.268973,0 0.491398,0.188106 0.542968,0.441406 0.0067,-0.03447 0.01172,-0.07095 0.01172,-0.107421 V 5.432458 c 0,-0.307398 -0.24729,-0.554688 -0.554687,-0.554688 z" /></g></g></svg>
