<svg width="24" height="24" viewBox="0 0 24 24" fill="none" xmlns="http://www.w3.org/2000/svg">
<path fill-rule="evenodd" clip-rule="evenodd" d="M9.59606 1.11359C9.71589 1.11487 9.83044 1.0996 9.9397 1.06779C11.3754 0.973736 12.8111 0.977551 14.2467 1.07924C15.5485 1.18066 16.8085 1.46308 18.0269 1.9265C20.0525 2.76044 21.4386 4.2069 22.1851 6.26586C22.6119 7.50549 22.864 8.78023 22.9411 10.09C23.0478 11.7348 23.0096 13.3758 22.8265 15.0133C22.6895 16.1642 22.3916 17.271 21.933 18.3336C21.0824 20.1761 19.704 21.447 17.7978 22.1463C16.2531 22.6683 14.6646 22.943 13.0325 22.9707C11.1966 23.0662 9.37914 22.9287 7.57998 22.5585C4.26839 21.8208 2.22559 19.8019 1.45158 16.5017C1.12311 15.0161 0.974199 13.5124 1.00483 11.9906C0.968176 10.3724 1.14 8.77708 1.52031 7.20472C2.33171 4.11908 4.2905 2.20701 7.39669 1.46852C8.12049 1.29157 8.85364 1.17326 9.59606 1.11359Z" fill="url(#paint0_radial_8_72)"/>
<path d="M6.70829 4.75C6.29258 4.75 5.90827 4.87708 5.59047 5.09419C5.06484 5.44656 4.72 6.04594 4.72 6.72897V17.236C4.72 18.3257 5.59727 19.2029 6.68692 19.2029H17.3336C18.4232 19.2029 19.3005 18.3257 19.3005 17.236V10.3862H19.3023V8.14277C19.3023 7.03833 18.4399 6.14312 17.3355 6.14312H13.412C12.6975 6.14312 12.0049 5.89711 11.4505 5.44656C10.8962 4.99601 10.2036 4.75 9.48918 4.75H6.70829ZM6.19212 9.89122H17.8284V13.3138H6.19201V10.3862L6.19212 9.89122ZM6.19205 14.2729H17.8284V17.1004C17.8284 17.4575 17.541 17.745 17.1839 17.745H6.83666C6.47957 17.745 6.19205 17.4575 6.19205 17.1004L6.19205 14.2729Z" fill="#FAFAFA"/>
<path d="M13.1338 11.03H10.8885C10.5784 11.03 10.3271 11.2813 10.3271 11.5913C10.3271 11.9014 10.5784 12.1527 10.8885 12.1527H13.1338C13.4438 12.1527 13.6952 11.9014 13.6952 11.5913C13.6952 11.2813 13.4438 11.03 13.1338 11.03Z" fill="#FAFAFA"/>
<path d="M13.1338 15.43H10.8885C10.5784 15.43 10.3271 15.6813 10.3271 15.9913C10.3271 16.3014 10.5784 16.5527 10.8885 16.5527H13.1338C13.4438 16.5527 13.6952 16.3014 13.6952 15.9913C13.6952 15.6813 13.4438 15.43 13.1338 15.43Z" fill="#FAFAFA"/>
<defs>
<radialGradient id="paint0_radial_8_72" cx="0" cy="0" r="1" gradientUnits="userSpaceOnUse" gradientTransform="translate(12 1) rotate(90) scale(22 22)">
<stop stop-color="#73CEFF"/>
<stop offset="1" stop-color="#0C5E8A"/>
</radialGradient>
</defs>
</svg>
