<svg width="24" height="24" viewBox="0 0 24 24" fill="none" xmlns="http://www.w3.org/2000/svg">
<path d="M12.0032 1C2.00608 1 1.00637 6.00044 1.00637 12C1.00637 19.9987 4.00572 23 12.0032 23C19.9996 23 23 19.9998 23 12C23 6.00044 22.0003 1 12.0032 1Z" fill="url(#paint0_linear_10_2)"/>
<path d="M12.0064 3C3.82455 3 3.00637 7.09127 3.00637 12C3.00637 18.5444 5.46109 21 12.0064 21C18.5507 21 21.0064 18.5453 21.0064 12C21.0064 7.09127 20.1882 3 12.0064 3Z" fill="url(#paint1_linear_10_2)"/>
<path opacity="0.35" d="M22.9835 10.7857C22.8249 9.27371 21.5462 8.09524 19.9922 8.09524H14.0908C13.0162 8.09524 11.9745 7.7253 11.1406 7.04762C10.3068 6.36994 9.265 6 8.19048 6H4.00781C2.85427 6 1.8524 6.64936 1.34781 7.60248C1.07364 8.95452 1.00637 10.4436 1.00637 12C1.00637 19.9987 4.00572 23 12.0032 23C19.9943 23 22.9961 20.0037 23 12.0156V11.9797C22.9998 11.5768 22.9951 11.1784 22.9835 10.7857Z" fill="url(#paint2_linear_10_2)"/>
<path opacity="0.875" d="M10.5099 9.72363L10.5099 9.72367C11.5221 10.5462 12.7865 10.9952 14.0908 10.9952H19.9922C21.0303 10.9952 21.8851 11.7836 21.9893 12.7937C21.89 16.3728 21.1016 18.5827 19.6464 19.9342C18.1712 21.3044 15.7906 22 12.0032 22C8.08767 22 5.67676 21.2569 4.21296 19.7925C2.74907 18.3281 2.00637 15.9163 2.00637 12C2.00637 11.5051 2.0133 11.0217 2.03151 10.5506C2.19944 9.61238 3.02131 8.9 4.00781 8.9H8.19048C9.0353 8.9 9.85438 9.19086 10.5099 9.72363Z" fill="url(#paint3_linear_10_2)" stroke="url(#paint4_linear_10_2)" stroke-width="2"/>
<defs>
<linearGradient id="paint0_linear_10_2" x1="24.069" y1="-0.504566" x2="-0.0654728" y2="11.5592" gradientUnits="userSpaceOnUse">
<stop stop-color="#2675A7"/>
<stop offset="1" stop-color="#1D5E8C"/>
</linearGradient>
<linearGradient id="paint1_linear_10_2" x1="21.8813" y1="1.76899" x2="2.13144" y2="11.6439" gradientUnits="userSpaceOnUse">
<stop stop-color="#FAFAFA"/>
<stop offset="1" stop-color="#FAFAFA"/>
</linearGradient>
<linearGradient id="paint2_linear_10_2" x1="23" y1="9.5" x2="1.01236" y2="10.0214" gradientUnits="userSpaceOnUse">
<stop stop-opacity="0.5"/>
<stop offset="1"/>
</linearGradient>
<linearGradient id="paint3_linear_10_2" x1="23" y1="5.9" x2="1.42949" y2="24.0115" gradientUnits="userSpaceOnUse">
<stop stop-color="#64B4F4"/>
<stop offset="1" stop-color="#127BDC"/>
</linearGradient>
<linearGradient id="paint4_linear_10_2" x1="1" y1="23" x2="23" y2="6" gradientUnits="userSpaceOnUse">
<stop stop-color="#1468B7"/>
<stop offset="1" stop-color="#ADD1EF"/>
</linearGradient>
</defs>
</svg>
