<?xml version="1.0" encoding="UTF-8" standalone="no"?>
<svg
   xml:space="preserve"
   width="24"
   height="24"
   fill="none"
   version="1.1"
   id="svg26"
   sodipodi:docname="org.kde.dolphin.svg"
   inkscape:export-filename="file-manager.pdf"
   inkscape:export-xdpi="96"
   inkscape:export-ydpi="96"
   inkscape:version="1.3 (0e150ed6c4, 2023-07-21)"
   xmlns:inkscape="http://www.inkscape.org/namespaces/inkscape"
   xmlns:sodipodi="http://sodipodi.sourceforge.net/DTD/sodipodi-0.dtd"
   xmlns:xlink="http://www.w3.org/1999/xlink"
   xmlns="http://www.w3.org/2000/svg"
   xmlns:svg="http://www.w3.org/2000/svg"><sodipodi:namedview
     id="namedview26"
     pagecolor="#ffffff"
     bordercolor="#000000"
     borderopacity="0.25"
     inkscape:showpageshadow="2"
     inkscape:pageopacity="0.0"
     inkscape:pagecheckerboard="0"
     inkscape:deskcolor="#d1d1d1"
     inkscape:zoom="16"
     inkscape:cx="22.59375"
     inkscape:cy="1.40625"
     inkscape:window-width="3440"
     inkscape:window-height="1358"
     inkscape:window-x="2560"
     inkscape:window-y="0"
     inkscape:window-maximized="1"
     inkscape:current-layer="svg26"><inkscape:page
       x="0"
       y="0"
       width="24"
       height="24"
       id="page26"
       margin="0"
       bleed="0" /></sodipodi:namedview><defs
     id="defs22"><linearGradient
       x1="23"
       y1="5.4000001"
       x2="1.429"
       y2="23.511999"
       gradientUnits="userSpaceOnUse"
       gradientTransform="scale(0.75)"
       spreadMethod="pad"
       id="linearGradient61"><stop
         style="stop-color:#127bdc;stop-opacity:1;"
         offset="0"
         id="stop60" /><stop
         style="stop-color:#64b4f4;stop-opacity:1;"
         offset="1"
         id="stop61" /></linearGradient><linearGradient
       x1="23"
       y1="1"
       x2="1"
       y2="12"
       gradientUnits="userSpaceOnUse"
       gradientTransform="scale(0.75)"
       spreadMethod="pad"
       id="linearGradient58"><stop
         style="stop-color:#add1ef;stop-opacity:0.98823529;"
         offset="0"
         id="stop57" /><stop
         style="stop-color:#1468b7;stop-opacity:0.98823529;"
         offset="1"
         id="stop58" /></linearGradient><linearGradient
       x1="23"
       y1="9"
       x2="1.012"
       y2="9.5209999"
       gradientUnits="userSpaceOnUse"
       gradientTransform="scale(0.75)"
       spreadMethod="pad"
       id="linearGradient52"><stop
         style="stop-color:#125a9c;stop-opacity:1;"
         offset="0"
         id="stop51" /><stop
         style="stop-color:#2e83ce;stop-opacity:1;"
         offset="1"
         id="stop52" /></linearGradient><linearGradient
       id="f"
       x1="21"
       x2="3"
       y1="4"
       y2="4"
       gradientTransform="translate(-40)"
       gradientUnits="userSpaceOnUse"><stop
         stop-opacity=".5"
         id="stop1" /><stop
         offset=".89"
         id="stop2" /><stop
         offset="1"
         stop-opacity="0"
         id="stop3" /></linearGradient><linearGradient
       id="b"
       x1="12"
       x2="11.5"
       y1="3"
       y2="8"
       gradientTransform="translate(-40)"
       gradientUnits="userSpaceOnUse"><stop
         offset="0"
         stop-color="#DDD"
         style="stop-color:#fff;stop-opacity:1"
         id="stop4" /><stop
         offset="1"
         stop-color="#CCC"
         stop-opacity="0"
         id="stop5" /></linearGradient><linearGradient
       id="i"
       x1="23"
       x2="1.012"
       y1="9"
       y2="9.5209999"
       gradientTransform="translate(-40)"
       gradientUnits="userSpaceOnUse"><stop
         stop-opacity=".5"
         id="stop6" /><stop
         offset="1"
         id="stop7" /></linearGradient><linearGradient
       id="d"
       x1="23"
       x2="1"
       y1="1"
       y2="12"
       gradientTransform="translate(-40)"
       gradientUnits="userSpaceOnUse"><stop
         stop-color="#198CFF"
         id="stop8" /><stop
         offset="1"
         stop-color="#1964FF"
         id="stop9" /></linearGradient><linearGradient
       id="l"
       x1="15"
       x2="5.5"
       y1="5.5"
       y2="19.5"
       gradientUnits="userSpaceOnUse"
       gradientTransform="translate(-4)"><stop
         offset="0"
         stop-color="#85F8FF"
         style="stop-color:#f2f2f2;stop-opacity:1"
         id="stop10" /><stop
         offset="1"
         stop-color="#105BF6"
         style="stop-color:#11599c;stop-opacity:1"
         id="stop11" /></linearGradient><linearGradient
       id="e"
       x1="23"
       x2="1"
       y1="1"
       y2="12"
       gradientUnits="userSpaceOnUse"
       gradientTransform="translate(40)"><stop
         offset="0"
         stop-color="#E3C880"
         style="stop-color:#2675a7;stop-opacity:1"
         id="stop12" /><stop
         offset="1"
         stop-color="#6F5C38"
         style="stop-color:#1d5e8c;stop-opacity:1"
         id="stop13" /></linearGradient><linearGradient
       id="g"
       x1="21"
       x2="3"
       y1="4"
       y2="4"
       gradientUnits="userSpaceOnUse"
       gradientTransform="translate(40)"><stop
         stop-opacity=".5"
         id="stop14" /><stop
         offset=".89"
         id="stop15" /><stop
         offset="1"
         stop-opacity="0"
         id="stop16" /></linearGradient><linearGradient
       id="j"
       x1="23"
       x2="1.012"
       y1="9"
       y2="9.5209999"
       gradientUnits="userSpaceOnUse"
       gradientTransform="translate(40)"><stop
         stop-opacity=".5"
         id="stop17" /><stop
         offset="1"
         id="stop18" /></linearGradient><linearGradient
       xlink:href="#a"
       id="k"
       x1="23"
       x2="1.429"
       y1="5.4000001"
       y2="23.511999"
       gradientUnits="userSpaceOnUse"
       spreadMethod="pad"
       gradientTransform="translate(40)" /><linearGradient
       id="a"
       x1="23"
       x2="1.429"
       y1="5.4000001"
       y2="23.511999"
       gradientTransform="translate(-41,-14.401)"
       gradientUnits="userSpaceOnUse"
       spreadMethod="pad"><stop
         offset="0"
         style="stop-color:#64b4f4;stop-opacity:1"
         id="stop19" /><stop
         offset="1"
         style="stop-color:#127bdc;stop-opacity:1"
         id="stop20" /></linearGradient><linearGradient
       xlink:href="#b"
       id="h"
       x1="12"
       x2="11.5"
       y1="3"
       y2="8"
       gradientUnits="userSpaceOnUse"
       gradientTransform="translate(40)" /><linearGradient
       id="c"><stop
         offset="0"
         style="stop-color:#fff;stop-opacity:1"
         id="stop21" /><stop
         offset="1"
         style="stop-color:#fff;stop-opacity:.48760331"
         id="stop22" /></linearGradient><linearGradient
       x1="23"
       y1="1"
       x2="1"
       y2="12"
       gradientUnits="userSpaceOnUse"
       gradientTransform="scale(0.75)"
       spreadMethod="pad"
       id="linearGradient2"><stop
         style="stop-opacity:1;stop-color:#2675a7"
         offset="0"
         id="stop1-9" /><stop
         style="stop-opacity:1;stop-color:#1d5e8c"
         offset="1"
         id="stop2-8" /></linearGradient><linearGradient
       x1="21"
       y1="4"
       x2="3"
       y2="4"
       gradientUnits="userSpaceOnUse"
       gradientTransform="scale(0.75)"
       spreadMethod="pad"
       id="linearGradient8"><stop
         style="stop-opacity:0.43750668;stop-color:#000000"
         offset="0"
         id="stop6-2" /><stop
         style="stop-opacity:0.87501335;stop-color:#000000"
         offset="0.89"
         id="stop7-6" /><stop
         style="stop-opacity:0;stop-color:#000000"
         offset="1"
         id="stop8-7" /></linearGradient><clipPath
       clipPathUnits="userSpaceOnUse"
       id="clipPath8"><path
         d="M 0,0 H 19 V 19 H 0 Z"
         id="path8" /></clipPath><mask
       maskUnits="userSpaceOnUse"
       x="0"
       y="0"
       width="1"
       height="1"
       id="mask10"><path
         id="path11"
         d="M 0,0 H 18 V 18 H 0 Z"
         style="fill:url(#linearGradient12);fill-opacity:1;fill-rule:nonzero;stroke:none"
         transform="scale(1.3333333)"
         clip-path="url(#clipPath12)" /></mask><linearGradient
       x1="12"
       y1="3"
       x2="11.5"
       y2="8"
       gradientUnits="userSpaceOnUse"
       gradientTransform="matrix(0.75,0,0,-0.75,0,18)"
       spreadMethod="pad"
       id="linearGradient12"><stop
         style="stop-opacity:1;stop-color:#ffffff"
         offset="0"
         id="stop11-5" /><stop
         style="stop-opacity:0;stop-color:#ffffff"
         offset="1"
         id="stop12-9" /></linearGradient><clipPath
       clipPathUnits="userSpaceOnUse"
       id="clipPath12"><path
         d="M 1,1 H 17 V 17 H 1 Z"
         id="path12" /></clipPath><linearGradient
       x1="12"
       y1="3"
       x2="11.5"
       y2="8"
       gradientUnits="userSpaceOnUse"
       gradientTransform="matrix(0.75,0,0,-0.75,0,18)"
       spreadMethod="pad"
       id="linearGradient14"><stop
         style="stop-opacity:1;stop-color:#ffffff"
         offset="0"
         id="stop13-3" /><stop
         style="stop-opacity:1;stop-color:#cccccc"
         offset="1"
         id="stop14-9" /></linearGradient><clipPath
       clipPathUnits="userSpaceOnUse"
       id="clipPath14"><path
         d="M 1,1 H 17 V 17 H 1 Z"
         id="path14" /></clipPath><linearGradient
       x1="23"
       y1="9"
       x2="1.012"
       y2="9.5209999"
       gradientUnits="userSpaceOnUse"
       gradientTransform="scale(0.75)"
       spreadMethod="pad"
       id="linearGradient18"><stop
         style="stop-opacity:0.43750668;stop-color:#000000"
         offset="0"
         id="stop17-9" /><stop
         style="stop-opacity:0.87501335;stop-color:#000000"
         offset="1"
         id="stop18-7" /></linearGradient><clipPath
       clipPathUnits="userSpaceOnUse"
       id="clipPath18"><path
         d="M 0,0 H 19 V 19 H 0 Z"
         id="path18" /></clipPath><linearGradient
       x1="23"
       y1="5.4000001"
       x2="1.429"
       y2="23.511999"
       gradientUnits="userSpaceOnUse"
       gradientTransform="scale(0.75)"
       spreadMethod="pad"
       id="linearGradient20"><stop
         style="stop-opacity:1;stop-color:#64b4f4"
         offset="0"
         id="stop19-9" /><stop
         style="stop-opacity:1;stop-color:#127bdc"
         offset="1"
         id="stop20-7" /></linearGradient><mask
       maskUnits="userSpaceOnUse"
       x="0"
       y="0"
       width="1"
       height="1"
       id="mask20"><path
         id="path21"
         d="M 0,0 H 18 V 18 H 0 Z"
         style="fill:url(#linearGradient22);fill-opacity:1;fill-rule:nonzero;stroke:none"
         transform="scale(1.3333333)"
         clip-path="url(#clipPath22)" /></mask><linearGradient
       x1="15"
       y1="5.5"
       x2="5.5"
       y2="19.5"
       gradientUnits="userSpaceOnUse"
       gradientTransform="matrix(0.75,0,0,-0.75,0,18)"
       spreadMethod="pad"
       id="linearGradient22"><stop
         style="stop-opacity:0.37500572;stop-color:#ffffff"
         offset="0"
         id="stop21-3" /><stop
         style="stop-opacity:0.37500572;stop-color:#ffffff"
         offset="1"
         id="stop22-5" /></linearGradient><clipPath
       clipPathUnits="userSpaceOnUse"
       id="clipPath22"><path
         d="M 0,4 H 18 V 18 H 0 Z"
         id="path22" /></clipPath><linearGradient
       x1="15"
       y1="5.5"
       x2="5.5"
       y2="19.5"
       gradientUnits="userSpaceOnUse"
       gradientTransform="matrix(0.75,0,0,-0.75,0,18)"
       spreadMethod="pad"
       id="linearGradient24"><stop
         style="stop-opacity:1;stop-color:#f2f2f2"
         offset="0"
         id="stop23" /><stop
         style="stop-opacity:1;stop-color:#11599c"
         offset="1"
         id="stop24" /></linearGradient><clipPath
       clipPathUnits="userSpaceOnUse"
       id="clipPath24"><path
         d="M 0,4 H 18 V 18 H 0 Z"
         id="path24-0" /></clipPath><clipPath
       clipPathUnits="userSpaceOnUse"
       id="clipPath25"><path
         d="M 0,0 H 19 V 19 H 0 Z"
         transform="scale(1.3333333)"
         id="path25-4" /></clipPath><clipPath
       clipPathUnits="userSpaceOnUse"
       id="clipPath8-6"><path
         d="M 0,0 H 19 V 19 H 0 Z"
         id="path8-4" /></clipPath><clipPath
       clipPathUnits="userSpaceOnUse"
       id="clipPath12-1"><path
         d="M 1,1 H 17 V 17 H 1 Z"
         id="path12-8" /></clipPath><clipPath
       clipPathUnits="userSpaceOnUse"
       id="clipPath14-1"><path
         d="M 1,1 H 17 V 17 H 1 Z"
         id="path14-3" /></clipPath><clipPath
       clipPathUnits="userSpaceOnUse"
       id="clipPath18-4"><path
         d="M 0,0 H 19 V 19 H 0 Z"
         id="path18-4" /></clipPath><clipPath
       clipPathUnits="userSpaceOnUse"
       id="clipPath22-3"><path
         d="M 0,4 H 18 V 18 H 0 Z"
         id="path22-7" /></clipPath><clipPath
       clipPathUnits="userSpaceOnUse"
       id="clipPath24-0"><path
         d="M 0,4 H 18 V 18 H 0 Z"
         id="path24-0-0" /></clipPath><mask
       maskUnits="userSpaceOnUse"
       id="mask33"><g
         id="g34"
         style="stroke-width:1.33333"
         transform="matrix(0.75000002,0,0,0.75000002,30.000001,1.245e-4)"><path
           id="path33"
           d="M 0,0 H 18 V 18 H 0 Z"
           style="fill:url(#linearGradient34);fill-opacity:1;fill-rule:nonzero;stroke:none;stroke-width:1.33333"
           transform="matrix(1.3333333,0,0,1.3333333,-40,-1.66e-4)"
           clip-path="url(#clipPath22-3)" /></g></mask><linearGradient
       inkscape:collect="always"
       xlink:href="#linearGradient22"
       id="linearGradient34"
       gradientUnits="userSpaceOnUse"
       gradientTransform="matrix(0.75,0,0,-0.75,0,18)"
       x1="15"
       y1="5.5"
       x2="5.5"
       y2="19.5"
       spreadMethod="pad" /><clipPath
       clipPathUnits="userSpaceOnUse"
       id="clipPath34"><g
         id="g35"
         style="stroke-width:1.33333"
         transform="matrix(0.75000002,0,0,0.75000002,30.000001,1.245e-4)"><path
           d="m -40,-1.66e-4 h 25.333333 V 25.333167 H -40 Z"
           id="path34"
           style="stroke-width:1.77777" /></g></clipPath><radialGradient
       xlink:href="#e-6"
       id="a-3"
       cx="12"
       cy="12"
       r="10.534"
       fx="12"
       fy="12"
       gradientUnits="userSpaceOnUse"
       gradientTransform="translate(40,0.39653687)" /><linearGradient
       id="e-6"><stop
         offset="0"
         style="stop-color:#47a1ff;stop-opacity:1"
         id="stop2-7" /><stop
         offset="1"
         style="stop-color:#3584e4;stop-opacity:1"
         id="stop3-5" /></linearGradient><linearGradient
       inkscape:collect="always"
       xlink:href="#linearGradient8"
       id="linearGradient19"
       gradientUnits="userSpaceOnUse"
       gradientTransform="scale(0.75)"
       x1="21"
       y1="4"
       x2="3"
       y2="4"
       spreadMethod="pad" /><linearGradient
       inkscape:collect="always"
       xlink:href="#linearGradient18"
       id="linearGradient23"
       gradientUnits="userSpaceOnUse"
       gradientTransform="scale(0.75)"
       x1="23"
       y1="9"
       x2="1.012"
       y2="9.5209999"
       spreadMethod="pad" /><mask
       maskUnits="userSpaceOnUse"
       id="mask32"><g
         id="g33"
         style="stroke-width:1.33333"
         transform="matrix(0.75000002,0,0,0.75000002,0,1.245e-4)"><path
           id="path32"
           d="M 0,0 H 18 V 18 H 0 Z"
           style="fill:url(#linearGradient33);fill-opacity:1;fill-rule:nonzero;stroke:none;stroke-width:1.33333"
           transform="matrix(1.3333333,0,0,1.3333333,0,-1.66e-4)"
           clip-path="url(#clipPath12-1)" /></g></mask><linearGradient
       inkscape:collect="always"
       xlink:href="#linearGradient12"
       id="linearGradient33"
       gradientUnits="userSpaceOnUse"
       gradientTransform="matrix(0.75,0,0,-0.75,0,18)"
       x1="12"
       y1="3"
       x2="11.5"
       y2="8"
       spreadMethod="pad" /><mask
       maskUnits="userSpaceOnUse"
       id="mask36"><g
         id="g37"
         style="stroke-width:1.33333"
         transform="matrix(0.75000002,0,0,0.75000002,0,1.245e-4)"><path
           id="path36"
           d="M 0,0 H 18 V 18 H 0 Z"
           style="fill:url(#linearGradient37);fill-opacity:1;fill-rule:nonzero;stroke:none;stroke-width:1.33333"
           transform="matrix(1.3333333,0,0,1.3333333,0,-1.66e-4)"
           clip-path="url(#clipPath12-1)" /></g></mask><linearGradient
       inkscape:collect="always"
       xlink:href="#linearGradient12"
       id="linearGradient37"
       gradientUnits="userSpaceOnUse"
       gradientTransform="matrix(0.75,0,0,-0.75,0,18)"
       x1="12"
       y1="3"
       x2="11.5"
       y2="8"
       spreadMethod="pad" /><linearGradient
       inkscape:collect="always"
       xlink:href="#linearGradient2"
       id="linearGradient39"
       gradientUnits="userSpaceOnUse"
       gradientTransform="translate(0,-0.39670295)"
       x1="23"
       y1="1"
       x2="1"
       y2="12"
       spreadMethod="pad" /><linearGradient
       inkscape:collect="always"
       xlink:href="#linearGradient61"
       id="linearGradient50"
       gradientUnits="userSpaceOnUse"
       gradientTransform="matrix(1.0033418,0,0,1.0033418,-0.040146,-0.44335792)"
       x1="23"
       y1="5.4000001"
       x2="1.429"
       y2="23.511999"
       spreadMethod="pad" /><linearGradient
       gradientUnits="userSpaceOnUse"
       x2="0"
       y2="509.8"
       y1="543.8"
       id="a-91"><stop
         id="stop4154"
         stop-color="#2f74c8" /><stop
         id="stop4156"
         stop-color="#4699d7"
         offset="1" /></linearGradient><linearGradient
       gradientUnits="userSpaceOnUse"
       x2="428.57"
       y2="531.8"
       x1="414.57"
       y1="517.8"
       id="b-2"><stop
         id="stop4159"
         stop-color="#383e51" /><stop
         id="stop4161"
         stop-opacity="0"
         stop-color="#655c6f"
         offset="1" /></linearGradient><linearGradient
       gradientUnits="userSpaceOnUse"
       x2="0"
       y2="508.8"
       y1="519.8"
       id="c-70"><stop
         id="stop4164"
         stop-opacity="0"
         stop-color="#60a5e7" /><stop
         id="stop4166"
         stop-opacity=".258"
         stop-color="#a6f3fb"
         offset="1" /></linearGradient><linearGradient
       gradientTransform="translate(-390.57144,-497.798)"
       inkscape:collect="always"
       xlink:href="#c"
       id="linearGradient4272-3"
       x1="390.57144"
       y1="498.298"
       x2="442.57144"
       y2="498.298"
       gradientUnits="userSpaceOnUse" /><linearGradient
       gradientTransform="translate(-390.57144,-501.798)"
       inkscape:collect="always"
       xlink:href="#c"
       id="linearGradient4272-1"
       x1="390.57144"
       y1="498.298"
       x2="442.57144"
       y2="498.298"
       gradientUnits="userSpaceOnUse" /><linearGradient
       gradientTransform="translate(-6,-14)"
       inkscape:collect="always"
       xlink:href="#c"
       id="linearGradient4272-36"
       x1="390.57144"
       y1="498.298"
       x2="442.57144"
       y2="498.298"
       gradientUnits="userSpaceOnUse" /><linearGradient
       gradientUnits="userSpaceOnUse"
       x2="383.77145"
       y2="502.05301"
       y1="542.0531"
       id="a-2"
       x1="383.77145"><stop
         id="stop4304"
         stop-color="#197cf1" /><stop
         id="stop4306"
         stop-color="#20bcfa"
         offset="1" /></linearGradient><linearGradient
       gradientUnits="userSpaceOnUse"
       x2="39.28"
       y2="36.633"
       x1="22.285"
       y1="18.71"
       id="b-9"><stop
         id="stop4309"
         stop-color="#292c2f" /><stop
         id="stop4311"
         stop-opacity="0"
         stop-color="#292c2f"
         offset="1" /></linearGradient><linearGradient
       gradientTransform="translate(-386.72845,506.21259)"
       gradientUnits="userSpaceOnUse"
       x2="419.97357"
       y2="539.82538"
       x1="406.50085"
       y1="527.01447"
       id="c-1"><stop
         id="stop17-93"
         stop-color="#292c2f" /><stop
         id="stop19-6"
         stop-opacity="0"
         offset="1" /></linearGradient><linearGradient
       gradientUnits="userSpaceOnUse"
       x2="0"
       y2="14"
       y1="34"
       id="b-8"
       gradientTransform="translate(-2.1584511,1006.0126)"><stop
         style="stop-color:#bfc9c9;stop-opacity:1"
         id="stop12-0"
         stop-color="#536161" /><stop
         style="stop-color:#fafafa;stop-opacity:1"
         id="stop14-6"
         stop-color="#f4f5f5"
         offset="1" /></linearGradient><linearGradient
       x1="428.81628"
       gradientTransform="translate(-386.72845,506.21259)"
       gradientUnits="userSpaceOnUse"
       x2="388.86475"
       y2="499.67896"
       y1="547.63354"
       id="a-7"><stop
         id="stop7-2"
         stop-color="#2a2c2f" /><stop
         id="stop9-6"
         stop-color="#536161"
         offset="1" /></linearGradient><linearGradient
       gradientTransform="matrix(1.299805,0,0,1.299805,-499.06524,339.52825)"
       gradientUnits="userSpaceOnUse"
       x2="419.97357"
       y2="539.82538"
       x1="406.50085"
       y1="527.01447"
       id="c-7"><stop
         id="stop17-5"
         stop-color="#292c2f" /><stop
         id="stop19-3"
         stop-opacity="0"
         offset="1" /></linearGradient><linearGradient
       gradientUnits="userSpaceOnUse"
       x2="0"
       y2="14"
       y1="34"
       id="b-5"
       gradientTransform="matrix(1.299805,0,0,1.299805,0.8007798,989.17075)"><stop
         style="stop-color:#bfc9c9;stop-opacity:1"
         id="stop12-6"
         stop-color="#536161" /><stop
         style="stop-color:#fbfbfb;stop-opacity:1"
         id="stop14-2"
         stop-color="#f4f5f5"
         offset="1" /></linearGradient><linearGradient
       x1="428.81628"
       gradientTransform="matrix(1.299805,0,0,1.299805,-499.06524,339.52825)"
       gradientUnits="userSpaceOnUse"
       x2="388.86475"
       y2="499.67896"
       y1="547.63354"
       id="a-9"><stop
         id="stop7-1"
         stop-color="#2a2c2f" /><stop
         id="stop9-2"
         stop-color="#536161"
         offset="1" /></linearGradient><linearGradient
       inkscape:collect="always"
       xlink:href="#linearGradient58"
       id="linearGradient56"
       gradientUnits="userSpaceOnUse"
       gradientTransform="matrix(1.0005792,0,0,1.0005792,-0.00687,-0.4047446)"
       x1="12.658564"
       y1="-2.1819804"
       x2="12.658564"
       y2="21.104"
       spreadMethod="pad" /></defs><g
     id="g1"
     inkscape:groupmode="layer"
     inkscape:label="1"
     transform="translate(34)" /><g
     id="g2"
     transform="matrix(1.0965789,0,0,1.0969436,-1.158948,-1.1659777)"
     style="stroke-width:0.911775"><path
       id="path39"
       style="fill:url(#linearGradient39);stroke:none;stroke-width:1.2157"
       d="m 12,1.9745568 c -9.113991,0 -10.025391,4.557396 -10.025391,10.0253902 0,7.289993 2.734398,10.025391 10.025391,10.025391 7.289993,0 10.025391,-2.734398 10.025391,-10.025391 C 22.025391,6.5319528 21.11399,1.9745568 12,1.9745568 Z" /><path
       id="path5"
       clip-path="url(#clipPath8-6)"
       style="opacity:0.15;fill:url(#linearGradient19);stroke:none;stroke-width:0.911775"
       d="m 9.0000002,1.7784449 c -3.9395059,0 -5.8329155,1.1372044 -6.732422,2.8842774 -0.010388,0.1069993 -0.017578,0.2153847 -0.017578,0.3251953 v 6.8994144 c 0,1.827998 1.4722948,3.300293 3.300293,3.300293 h 6.8994138 c 1.827999,0 3.300293,-1.472295 3.300293,-3.300293 V 4.9879176 C 15.75,4.878107 15.7428,4.7697216 15.73242,4.6627223 14.832916,2.9156493 12.939506,1.7784449 9.0000002,1.7784449 Z"
       transform="matrix(1.3333333,0,0,1.3333333,0,-0.39670295)" /><path
       id="path40"
       d="m 7.6775004,3.3229705 h 8.6450016 c 2.164383,0 3.901402,1.7370211 3.901402,3.9014041 v 8.6450014 c 0,2.164383 -1.737019,3.901405 -3.901402,3.901405 H 7.6775004 c -2.1643827,0 -3.9014039,-1.737022 -3.9014039,-3.901405 V 7.2243746 c 0,-2.1643828 1.7370212,-3.9014041 3.9014039,-3.9014041 z"
       style="fill:#ffffff;fill-opacity:1;fill-rule:nonzero;stroke:none;stroke-width:1.2157" /><path
       id="path9"
       clip-path="url(#clipPath18-4)"
       style="opacity:0.35;fill:url(#linearGradient23);stroke:none;stroke-width:0.911775"
       d="m 3.2534181,3.3751246 c -1.5383825,1.3850267 -1.772461,3.5371421 -1.772461,5.9223634 0,4.406235 1.3332271,6.592618 4.7124024,7.275879 h 5.6132815 c 3.37875,-0.683163 4.712402,-2.86917 4.712402,-7.275879 0,-1.517041 -0.09568,-2.9391809 -0.55957,-4.1308595 C 15.665684,5.0265858 15.339506,4.9454371 14.992676,4.9454371 h -4.426758 c -0.803999,0 -1.5854497,-0.2771568 -2.210449,-0.7851562 C 7.7304696,3.6522814 6.9486243,3.3751246 6.1406252,3.3751246 Z"
       transform="matrix(1.3333333,0,0,1.3333333,0,-0.39670295)" /><path
       id="path56"
       style="opacity:0.875;fill:url(#linearGradient56);stroke:none;stroke-width:1.2157"
       d="m 6.606254,4.9461748 c -1.107224,-8e-6 -2.206172,0.00831 -2.313839,0.025404 -0.369708,0.058444 -0.711409,0.1825318 -1.000578,0.3615374 -1.12426,1.7823959 -1.323033,4.1249649 -1.323033,6.6659688 0,7.2942 2.735999,10.031198 10.031199,10.031198 7.294201,0 10.031196,-2.735996 10.031196,-10.031198 0,-1.146566 -0.04232,-2.25215 -0.189563,-3.2851057 C 21.500087,7.9118146 20.836975,7.2922681 20.012452,7.0743589 19.712472,6.9950833 19.929298,6.998985 16.633544,6.9883686 13.864501,6.9794593 13.554283,6.9764514 13.405111,6.9531881 12.517767,6.8147666 11.898192,6.532027 11.16358,5.9272038 10.500623,5.3813827 9.793895,5.0731285 8.966997,4.9715726 8.828388,4.9545427 7.713468,4.9461779 6.606254,4.9461678 Z m 0.01172,0.7308922 c 1.095626,4.903e-4 2.196206,0.00841 2.317748,0.025404 0.437149,0.060825 0.809413,0.1795429 1.184279,0.3791254 0.259174,0.1379949 0.354676,0.2051348 0.791475,0.5569624 0.637251,0.5132661 1.424951,0.872458 2.200492,1.0044885 0.395647,0.067309 0.281892,0.065869 3.484438,0.076214 3.338037,0.010806 3.084993,0.0027 3.369138,0.099668 0.131632,0.044896 0.354986,0.1539782 0.461205,0.2247392 0.238373,0.1587779 0.476527,0.404349 0.631226,0.6507677 0.398676,0.6905308 0.289835,2.5237098 0.293137,3.4082238 0,0.637479 -0.02214,1.237657 -0.0684,1.801824 -0.01542,0.188056 -0.03394,0.372937 -0.05472,0.553055 -0.02077,0.180117 -0.04414,0.355365 -0.07036,0.527648 -0.02622,0.172285 -0.05422,0.3416 -0.08599,0.506154 -0.127084,0.658209 -0.299754,1.253378 -0.519832,1.792052 -0.05502,0.134669 -0.112838,0.267302 -0.173928,0.39476 -1.099626,2.294228 -3.191229,3.427981 -6.576072,3.705269 -0.188048,0.01541 -0.380423,0.02892 -0.576507,0.03909 -0.196082,0.01017 -0.395735,0.01647 -0.599956,0.02149 -0.204222,0.005 -0.412898,0.0078 -0.625362,0.0078 -1.274959,0 -2.401254,-0.08895 -3.388681,-0.279458 -0.16457,-0.03175 -0.3238,-0.06617 -0.480747,-0.103573 -3.923662,-0.935153 -5.481688,-3.654503 -5.481688,-8.966109 0,-0.204434 0.01439,-6.112059 1.686524,-6.4021449 0.09736,-0.01695 1.186945,-0.023953 2.282571,-0.023453 z" /><path
       id="path50"
       style="opacity:0.875;fill:url(#linearGradient50);stroke:none;stroke-width:1.2157"
       d="M 6.610913,5.6552455 C 5.512261,5.6547438 4.419665,5.6617655 4.322039,5.6787635 2.645282,5.9696505 2.63086,11.893586 2.63086,12.098584 c 0,6.817634 2.558377,9.374975 9.376934,9.374975 6.81762,0 9.376936,-2.556406 9.376936,-9.374975 C 21.38143,11.211628 21.490545,9.3733888 21.090765,8.6809509 20.935641,8.4338522 20.696829,8.187603 20.457798,8.0283867 20.351286,7.9574304 20.127316,7.848047 19.99532,7.8030271 19.710391,7.7057732 19.964136,7.7139203 16.616879,7.7030842 13.405487,7.6927096 13.519561,7.6941545 13.122821,7.6266597 12.345139,7.4942646 11.555265,7.134081 10.916253,6.6193977 10.478249,6.2665977 10.382483,6.1992735 10.122593,6.0608976 9.746691,5.860764 9.3734,5.7417185 8.935044,5.6807254 8.813166,5.6637187 7.709549,5.6557421 6.610897,5.6552505 Z"
       sodipodi:nodetypes="scssccsccccscss" /></g></svg>
