<?xml version="1.0" encoding="UTF-8" standalone="no"?>
<svg
   width="24"
   height="24"
   viewBox="0 0 24 24"
   fill="none"
   version="1.1"
   id="svg3"
   sodipodi:docname="firefox.svg.svg"
   inkscape:version="1.3 (0e150ed6c4, 2023-07-21)"
   inkscape:export-filename="dreamchess.svg.pdf"
   inkscape:export-xdpi="96"
   inkscape:export-ydpi="96"
   xml:space="preserve"
   xmlns:inkscape="http://www.inkscape.org/namespaces/inkscape"
   xmlns:sodipodi="http://sodipodi.sourceforge.net/DTD/sodipodi-0.dtd"
   xmlns="http://www.w3.org/2000/svg"
   xmlns:svg="http://www.w3.org/2000/svg"><sodipodi:namedview
     id="namedview3"
     pagecolor="#ffffff"
     bordercolor="#000000"
     borderopacity="0.25"
     inkscape:showpageshadow="2"
     inkscape:pageopacity="0.0"
     inkscape:pagecheckerboard="0"
     inkscape:deskcolor="#d1d1d1"
     inkscape:zoom="17.265191"
     inkscape:cx="8.9486414"
     inkscape:cy="4.5177607"
     inkscape:window-width="3440"
     inkscape:window-height="1360"
     inkscape:window-x="2560"
     inkscape:window-y="0"
     inkscape:window-maximized="1"
     inkscape:current-layer="g1"><inkscape:page
       x="0"
       y="0"
       width="24"
       height="24"
       id="page3"
       margin="0"
       bleed="0" /></sodipodi:namedview><defs
     id="defs3"><radialGradient
       id="paint0_radial_0_1"
       cx="0"
       cy="0"
       r="1"
       gradientUnits="userSpaceOnUse"
       gradientTransform="matrix(0,11,-11,0,12,1)"><stop
         stop-color="#6EBBF7"
         id="stop2"
         offset="0"
         style="stop-color:#5e5e66;stop-opacity:1;" /><stop
         offset="1"
         stop-color="#2196F3"
         id="stop3"
         style="stop-color:#262532;stop-opacity:1;" /></radialGradient><radialGradient
       fx="0"
       fy="0"
       cx="0"
       cy="0"
       r="1"
       gradientUnits="userSpaceOnUse"
       gradientTransform="matrix(0,8.25,-8.25,0,9,0.75)"
       spreadMethod="pad"
       id="radialGradient2"><stop
         style="stop-opacity:1;stop-color:#5e5e66"
         offset="0"
         id="stop1" /><stop
         style="stop-opacity:1;stop-color:#262532"
         offset="1"
         id="stop2-3" /></radialGradient><radialGradient
       fx="0"
       fy="0"
       cx="0"
       cy="0"
       r="1"
       gradientUnits="userSpaceOnUse"
       gradientTransform="matrix(0,11,-11,0,-22.000452,0.99996571)"
       spreadMethod="pad"
       id="radialGradient2-6"><stop
         style="stop-opacity:1;stop-color:#5e5e66"
         offset="0"
         id="stop1-7" /><stop
         style="stop-color:#1b1b1b;stop-opacity:1;"
         offset="1"
         id="stop2-3-5" /></radialGradient><linearGradient
       x1="70.786003"
       y1="12.393"
       x2="6.447"
       y2="74.468002"
       gradientUnits="userSpaceOnUse"
       gradientTransform="matrix(0.152463,0,0,0.152463,2.900048,2.903365)"
       spreadMethod="pad"
       id="linearGradient17911"><stop
         style="stop-opacity:1;stop-color:#fff44f"
         offset="0"
         id="stop17891" /><stop
         style="stop-opacity:1;stop-color:#fff44f"
         offset="0.048"
         id="stop17893" /><stop
         style="stop-opacity:1;stop-color:#ffe847"
         offset="0.111"
         id="stop17895" /><stop
         style="stop-opacity:1;stop-color:#ffc830"
         offset="0.225"
         id="stop17897" /><stop
         style="stop-opacity:1;stop-color:#ff980e"
         offset="0.368"
         id="stop17899" /><stop
         style="stop-opacity:1;stop-color:#ff8b16"
         offset="0.401"
         id="stop17901" /><stop
         style="stop-opacity:1;stop-color:#ff672a"
         offset="0.462"
         id="stop17903" /><stop
         style="stop-opacity:1;stop-color:#ff3647"
         offset="0.534"
         id="stop17905" /><stop
         style="stop-opacity:1;stop-color:#e31587"
         offset="0.705"
         id="stop17907" /><stop
         style="stop-opacity:1;stop-color:#e31587"
         offset="1"
         id="stop17909" /></linearGradient><radialGradient
       fx="-7907.187"
       fy="-8515.1211"
       cx="-7907.187"
       cy="-8515.1211"
       r="80.796997"
       gradientUnits="userSpaceOnUse"
       gradientTransform="matrix(0.20006863,0,0,0.20006863,1600.4145,1710.5168)"
       spreadMethod="pad"
       id="radialGradient17947"><stop
         style="stop-opacity:1;stop-color:#ffbd4f"
         offset="0"
         id="stop17925" /><stop
         style="stop-opacity:1;stop-color:#ffbd4f"
         offset="0.129"
         id="stop17927" /><stop
         style="stop-opacity:1;stop-color:#ffac31"
         offset="0.186"
         id="stop17929" /><stop
         style="stop-opacity:1;stop-color:#ff9d17"
         offset="0.247"
         id="stop17931" /><stop
         style="stop-opacity:1;stop-color:#ff980e"
         offset="0.283"
         id="stop17933" /><stop
         style="stop-opacity:1;stop-color:#ff563b"
         offset="0.403"
         id="stop17935" /><stop
         style="stop-opacity:1;stop-color:#ff3750"
         offset="0.467"
         id="stop17937" /><stop
         style="stop-opacity:1;stop-color:#f5156c"
         offset="0.71"
         id="stop17939" /><stop
         style="stop-opacity:1;stop-color:#eb0878"
         offset="0.782"
         id="stop17941" /><stop
         style="stop-opacity:1;stop-color:#e50080"
         offset="0.86"
         id="stop17943" /><stop
         style="stop-opacity:1;stop-color:#e50080"
         offset="1"
         id="stop17945" /></radialGradient><radialGradient
       fx="-7926.9702"
       fy="-8533.457"
       cx="-7926.9702"
       cy="-8533.457"
       r="58.534"
       gradientUnits="userSpaceOnUse"
       gradientTransform="matrix(0.152463,0,0,0.152463,1218.7944,1302.5001)"
       spreadMethod="pad"
       id="radialGradient18033"><stop
         style="stop-opacity:1;stop-color:#fff44f"
         offset="0"
         id="stop18021" /><stop
         style="stop-opacity:1;stop-color:#fff44f"
         offset="0.132"
         id="stop18023" /><stop
         style="stop-opacity:1;stop-color:#ffdc3e"
         offset="0.252"
         id="stop18025" /><stop
         style="stop-opacity:1;stop-color:#ff9d12"
         offset="0.506"
         id="stop18027" /><stop
         style="stop-opacity:1;stop-color:#ff980e"
         offset="0.526"
         id="stop18029" /><stop
         style="stop-opacity:1;stop-color:#ff980e"
         offset="1"
         id="stop18031" /></radialGradient><radialGradient
       fx="-7945.6479"
       fy="-8460.9844"
       cx="-7945.6479"
       cy="-8460.9844"
       r="38.471001"
       gradientUnits="userSpaceOnUse"
       gradientTransform="matrix(0.152463,0,0,0.152463,1218.7944,1302.5001)"
       spreadMethod="pad"
       id="radialGradient18057"><stop
         style="stop-opacity:1;stop-color:#3a8ee6"
         offset="0"
         id="stop18047" /><stop
         style="stop-opacity:1;stop-color:#3a8ee6"
         offset="0.353"
         id="stop18049" /><stop
         style="stop-opacity:1;stop-color:#5c79f0"
         offset="0.472"
         id="stop18051" /><stop
         style="stop-opacity:1;stop-color:#9059ff"
         offset="0.669"
         id="stop18053" /><stop
         style="stop-opacity:1;stop-color:#c139e6"
         offset="1"
         id="stop18055" /></radialGradient><radialGradient
       fx="-7937.731"
       fy="-8518.4268"
       cx="-7937.731"
       cy="-8518.4268"
       r="27.676001"
       gradientUnits="userSpaceOnUse"
       gradientTransform="matrix(0.152463,0,0,0.152463,1218.7944,1302.5001)"
       spreadMethod="pad"
       id="radialGradient18141"><stop
         style="stop-opacity:1;stop-color:#ffe226"
         offset="0"
         id="stop18127" /><stop
         style="stop-opacity:1;stop-color:#ffdb27"
         offset="0.121"
         id="stop18129" /><stop
         style="stop-opacity:1;stop-color:#ffc82a"
         offset="0.295"
         id="stop18131" /><stop
         style="stop-opacity:1;stop-color:#ffa930"
         offset="0.502"
         id="stop18133" /><stop
         style="stop-opacity:1;stop-color:#ff7e37"
         offset="0.732"
         id="stop18135" /><stop
         style="stop-opacity:1;stop-color:#ff7139"
         offset="0.792"
         id="stop18137" /><stop
         style="stop-opacity:1;stop-color:#ff7139"
         offset="1"
         id="stop18139" /></radialGradient><radialGradient
       fx="-7915.9771"
       fy="-8535.9814"
       cx="-7915.9771"
       cy="-8535.9814"
       r="118.081"
       gradientUnits="userSpaceOnUse"
       gradientTransform="matrix(0.152463,0,0,0.152463,1218.7944,1302.5001)"
       spreadMethod="pad"
       id="radialGradient18169"><stop
         style="stop-opacity:1;stop-color:#fff44f"
         offset="0"
         id="stop18155" /><stop
         style="stop-opacity:1;stop-color:#fff44f"
         offset="0.113"
         id="stop18157" /><stop
         style="stop-opacity:1;stop-color:#ff980e"
         offset="0.456"
         id="stop18159" /><stop
         style="stop-opacity:1;stop-color:#ff5634"
         offset="0.622"
         id="stop18161" /><stop
         style="stop-opacity:1;stop-color:#ff3647"
         offset="0.716"
         id="stop18163" /><stop
         style="stop-opacity:1;stop-color:#e31587"
         offset="0.904"
         id="stop18165" /><stop
         style="stop-opacity:1;stop-color:#e31587"
         offset="1"
         id="stop18167" /></radialGradient><radialGradient
       fx="-7927.165"
       fy="-8522.8594"
       cx="-7927.165"
       cy="-8522.8594"
       r="86.499001"
       gradientUnits="userSpaceOnUse"
       gradientTransform="matrix(0.0160086,0.151701,-0.0995585,0.01052,-711.23841,1294.2962)"
       spreadMethod="pad"
       id="radialGradient18201"><stop
         style="stop-opacity:1;stop-color:#fff44f"
         offset="0"
         id="stop18183" /><stop
         style="stop-opacity:1;stop-color:#ffe847"
         offset="0.06"
         id="stop18185" /><stop
         style="stop-opacity:1;stop-color:#ffc830"
         offset="0.168"
         id="stop18187" /><stop
         style="stop-opacity:1;stop-color:#ff980e"
         offset="0.304"
         id="stop18189" /><stop
         style="stop-opacity:1;stop-color:#ff8b16"
         offset="0.356"
         id="stop18191" /><stop
         style="stop-opacity:1;stop-color:#ff672a"
         offset="0.455"
         id="stop18193" /><stop
         style="stop-opacity:1;stop-color:#ff3647"
         offset="0.57"
         id="stop18195" /><stop
         style="stop-opacity:1;stop-color:#e31587"
         offset="0.737"
         id="stop18197" /><stop
         style="stop-opacity:1;stop-color:#e31587"
         offset="1"
         id="stop18199" /></radialGradient><radialGradient
       fx="-7938.3828"
       fy="-8508.1758"
       cx="-7938.3828"
       cy="-8508.1758"
       r="73.720001"
       gradientUnits="userSpaceOnUse"
       gradientTransform="matrix(0.152463,0,0,0.152463,1218.7944,1302.5001)"
       spreadMethod="pad"
       id="radialGradient18229"><stop
         style="stop-opacity:1;stop-color:#fff44f"
         offset="0"
         id="stop18215" /><stop
         style="stop-opacity:1;stop-color:#fff44f"
         offset="0.137"
         id="stop18217" /><stop
         style="stop-opacity:1;stop-color:#ff980e"
         offset="0.48"
         id="stop18219" /><stop
         style="stop-opacity:1;stop-color:#ff5634"
         offset="0.592"
         id="stop18221" /><stop
         style="stop-opacity:1;stop-color:#ff3647"
         offset="0.655"
         id="stop18223" /><stop
         style="stop-opacity:1;stop-color:#e31587"
         offset="0.904"
         id="stop18225" /><stop
         style="stop-opacity:1;stop-color:#e31587"
         offset="1"
         id="stop18227" /></radialGradient><radialGradient
       fx="-7918.9229"
       fy="-8503.8613"
       cx="-7918.9229"
       cy="-8503.8613"
       r="80.685997"
       gradientUnits="userSpaceOnUse"
       gradientTransform="matrix(0.152463,0,0,0.152463,1218.7944,1302.5001)"
       spreadMethod="pad"
       id="radialGradient18255"><stop
         style="stop-opacity:1;stop-color:#fff44f"
         offset="0"
         id="stop18243" /><stop
         style="stop-opacity:1;stop-color:#fff44f"
         offset="0.094"
         id="stop18245" /><stop
         style="stop-opacity:1;stop-color:#ffe141"
         offset="0.231"
         id="stop18247" /><stop
         style="stop-opacity:1;stop-color:#ffaf1e"
         offset="0.509"
         id="stop18249" /><stop
         style="stop-opacity:1;stop-color:#ff980e"
         offset="0.626"
         id="stop18251" /><stop
         style="stop-opacity:1;stop-color:#ff980e"
         offset="1"
         id="stop18253" /></radialGradient></defs><g
     id="g1"
     inkscape:groupmode="layer"
     inkscape:label="1"
     transform="translate(34)"><path
       id="path2"
       d="m -24.407119,1.1146327 c 0.12,0 0.234667,-0.016 0.344,-0.04667 1.437333,-0.09467 2.874667,-0.08933 4.308,0.01067 1.301333,0.104 2.561333,0.385333 3.781333,0.848 2.025333,0.8333329 3.410667,2.2813329 4.161333,4.3386662 0.421334,1.2399999 0.676,2.5159999 0.754667,3.8226661 0.104,1.646667 0.068,3.286667 -0.114667,4.928 -0.14,1.150667 -0.437333,2.254667 -0.896,3.317334 -0.849333,1.844 -2.229333,3.114666 -4.134666,3.812 -1.542667,0.521333 -3.130667,0.797333 -4.766667,0.824 -1.833333,0.09867 -3.650666,-0.04267 -5.452,-0.412 -3.307999,-0.734667 -5.354666,-2.754667 -6.125333,-6.057334 -0.328,-1.484 -0.48,-2.989333 -0.448,-4.510666 -0.036,-1.614667 0.134667,-3.2133335 0.516,-4.7866668 0.812,-3.0826666 2.770667,-4.9946666 5.874667,-5.7333335 0.724,-0.177333 1.458666,-0.297333 2.197333,-0.354666 z"
       style="fill:url(#radialGradient2-6);fill-rule:evenodd;stroke:none;stroke-width:1.33333" /></g><g
     id="g4"
     transform="matrix(0.98418284,0,0,0.98418284,-0.66613104,-0.92091417)"
     style="stroke-width:1.01607"><g
       id="g17881"
       transform="matrix(1.3333333,0,0,1.3333333,0.8693334,1.1293334)"
       style="stroke-width:1.01607"><g
         id="g17883"
         style="stroke-width:1.01607"><g
           id="g17889"
           style="stroke-width:1.01607"><path
             d="M 14.473,6.992 C 14.219,6.375 13.695,5.711 13.289,5.5 c 0.289,0.562 0.492,1.168 0.598,1.793 V 7.301 C 13.219,5.637 12.086,4.965 11.164,3.504 11.113,3.426 11.066,3.352 11.023,3.277 11,3.234 10.977,3.195 10.957,3.152 10.918,3.078 10.891,3 10.871,2.922 c 0,-0.008 -0.008,-0.016 -0.016,-0.016 -0.003,-0.004 -0.007,-0.004 -0.011,0 L 10.84,2.91 V 2.906 C 9.355,3.773 8.852,5.383 8.805,6.188 8.215,6.227 7.648,6.445 7.18,6.812 7.133,6.773 7.082,6.734 7.027,6.699 6.895,6.227 6.887,5.727 7.012,5.254 6.465,5.52 5.98,5.891 5.59,6.352 H 5.586 C 5.352,6.055 5.367,5.078 5.383,4.875 5.312,4.902 5.246,4.938 5.184,4.977 4.977,5.125 4.785,5.293 4.605,5.473 4.406,5.68 4.219,5.898 4.055,6.137 3.676,6.676 3.406,7.281 3.262,7.926 L 3.254,7.965 C 3.23,8.086 3.211,8.211 3.195,8.332 c 0,0.008 0,0.012 0,0.016 C 3.141,8.617 3.109,8.887 3.098,9.16 v 0.031 c 0.004,3.067 2.351,5.621 5.41,5.883 3.054,0.262 5.801,-1.859 6.324,-4.883 0.008,-0.078 0.016,-0.152 0.027,-0.23 C 14.98,8.957 14.848,7.938 14.473,6.992 Z m -6.809,4.629 c 0.027,0.012 0.055,0.027 0.082,0.039 L 7.75,11.664 C 7.723,11.648 7.691,11.633 7.664,11.621 Z M 13.891,7.305 V 7.297 Z"
             style="fill:url(#linearGradient17911);stroke:none;stroke-width:1.01607"
             id="path17913" /></g></g></g><path
       d="M 20.05125,10.494336 C 19.71794,9.6846815 19.030324,8.8133516 18.497553,8.5364682 c 0.379238,0.737481 0.645624,1.5327008 0.784722,2.3528528 v 0.01575 c 0.599695,1.705917 0.511775,3.582426 -0.241453,5.233229 -0.887077,1.90669 -3.039157,3.859309 -6.407687,3.767452 -3.6336026,-0.107604 -6.8381016,-2.804265 -7.4377976,-6.340762 -0.107604,-0.559016 0,-0.841149 0.05118,-1.291248 -0.07086,0.347744 -0.112853,0.707299 -0.122039,1.065542 v 0.04068 c 0.0052,4.024652 3.085085,7.376123 7.0992386,7.71993 4.007593,0.343808 7.612327,-2.439461 8.29863,-6.407686 0.0105,-0.102355 0.021,-0.199461 0.03543,-0.301816 0.158781,-1.317493 -0.01444,-2.654669 -0.506526,-3.896052 z"
       style="fill:url(#radialGradient17947);stroke:none;stroke-width:1.35476"
       id="path17949" /><g
       id="g18019"
       style="stroke-width:1.0324"
       transform="matrix(1.3122438,0,0,1.3122438,1.0591454,1.3191273)"><path
         d="m 11.602,7.688 c 0.015,0.011 0.027,0.019 0.039,0.027 C 11.492,7.453 11.305,7.211 11.09,7 9.254,5.164 10.609,3.016 10.84,2.906 9.355,3.773 8.852,5.383 8.805,6.188 8.875,6.184 8.945,6.176 9.016,6.176 c 1.07,0.004 2.058,0.582 2.586,1.512 z"
         style="fill:url(#radialGradient18033);stroke:none;stroke-width:1.0324"
         id="path18035" /></g><g
       id="g18045"
       style="stroke-width:1.0324"
       transform="matrix(1.3122438,0,0,1.3122438,1.0591454,1.3191273)"><path
         d="M 9.02,8.055 C 9.008,8.203 8.488,8.711 8.309,8.711 c -1.684,0 -1.954,1.016 -1.954,1.016 0.075,0.855 0.668,1.558 1.391,1.933 0.031,0.016 0.066,0.031 0.098,0.047 0.058,0.027 0.117,0.051 0.176,0.07 0.246,0.09 0.507,0.137 0.769,0.149 2.945,0.14 3.516,-3.52 1.391,-4.582 0.5,-0.067 1.008,0.058 1.422,0.344 C 11.074,6.758 10.086,6.18 9.016,6.176 8.945,6.176 8.875,6.184 8.805,6.188 8.215,6.227 7.648,6.445 7.18,6.812 7.27,6.891 7.371,6.992 7.586,7.203 7.988,7.598 9.016,8.008 9.02,8.055 Z"
         style="fill:url(#radialGradient18057);stroke:none;stroke-width:1.0324"
         id="path18059" /></g><g
       id="g18125"
       style="stroke-width:1.0324"
       transform="matrix(1.3122438,0,0,1.3122438,1.0591454,1.3191273)"><path
         d="M 6.906,6.617 C 6.953,6.648 6.992,6.676 7.027,6.699 6.891,6.227 6.887,5.727 7.012,5.254 6.465,5.52 5.98,5.891 5.586,6.352 c 0.031,0 0.887,-0.016 1.32,0.265 z"
         style="fill:url(#radialGradient18141);stroke:none;stroke-width:1.0324"
         id="path18143" /></g><g
       id="g18153"
       style="stroke-width:1.0324"
       transform="matrix(1.3122438,0,0,1.3122438,1.0591454,1.3191273)"><path
         d="m 3.152,9.332 c 0.457,2.695 2.899,4.75 5.672,4.832 2.567,0.07 4.203,-1.418 4.883,-2.871 0.57,-1.258 0.637,-2.688 0.184,-3.988 V 7.297 c 0,-0.004 -0.004,-0.004 0,-0.004 v 0.008 c 0.211,1.371 -0.489,2.695 -1.575,3.594 l -0.004,0.007 C 10.191,12.629 8.164,11.945 7.75,11.664 7.723,11.648 7.695,11.637 7.664,11.621 6.43,11.031 5.918,9.902 6.027,8.938 5.43,8.945 4.879,8.602 4.629,8.059 5.289,7.652 6.109,7.621 6.801,7.969 7.5,8.289 8.297,8.32 9.02,8.059 9.016,8.008 7.988,7.602 7.586,7.203 7.375,6.992 7.273,6.891 7.184,6.816 7.133,6.773 7.082,6.734 7.031,6.699 6.996,6.676 6.953,6.648 6.906,6.617 6.477,6.34 5.621,6.355 5.59,6.355 5.355,6.059 5.371,5.078 5.383,4.875 5.316,4.902 5.25,4.938 5.188,4.98 4.98,5.129 4.785,5.293 4.609,5.473 4.406,5.68 4.219,5.898 4.055,6.137 3.676,6.676 3.406,7.281 3.262,7.926 3.258,7.938 3.047,8.855 3.152,9.332 Z"
         style="fill:url(#radialGradient18169);stroke:none;stroke-width:1.0324"
         id="path18171" /></g><g
       id="g18181"
       style="stroke-width:1.0324"
       transform="matrix(1.3122438,0,0,1.3122438,1.0591454,1.3191273)"><path
         d="m 11.09,7 c 0.219,0.211 0.402,0.453 0.551,0.715 0.031,0.027 0.062,0.051 0.089,0.074 1.336,1.234 0.637,2.981 0.582,3.106 1.09,-0.899 1.786,-2.223 1.579,-3.594 C 13.219,5.637 12.086,4.965 11.164,3.504 11.113,3.426 11.066,3.352 11.023,3.277 11,3.234 10.977,3.195 10.957,3.152 10.918,3.078 10.891,3 10.871,2.922 c 0,-0.008 -0.008,-0.016 -0.016,-0.016 -0.003,-0.004 -0.007,-0.004 -0.011,0 L 10.84,2.91 C 10.609,3.016 9.254,5.164 11.09,7 Z"
         style="fill:url(#radialGradient18201);stroke:none;stroke-width:1.0324"
         id="path18203" /></g><g
       id="g18213"
       style="stroke-width:1.0324"
       transform="matrix(1.3122438,0,0,1.3122438,1.0591454,1.3191273)"><path
         d="M 11.727,7.789 C 11.699,7.762 11.668,7.738 11.641,7.715 11.629,7.707 11.613,7.699 11.602,7.688 11.188,7.402 10.68,7.277 10.176,7.344 12.305,8.406 11.734,12.066 8.789,11.926 8.523,11.914 8.266,11.867 8.02,11.777 7.961,11.758 7.902,11.734 7.844,11.707 7.812,11.691 7.777,11.676 7.746,11.66 l 0.004,0.004 c 0.41,0.277 2.438,0.965 4.559,-0.766 l 0.003,-0.007 C 12.367,10.77 13.066,9.023 11.727,7.789 Z"
         style="fill:url(#radialGradient18229);stroke:none;stroke-width:1.0324"
         id="path18231" /></g><g
       id="g18241"
       style="stroke-width:1.0324"
       transform="matrix(1.3122438,0,0,1.3122438,1.0591454,1.3191273)"><path
         d="m 6.355,9.727 c 0,0 0.27,-1.016 1.954,-1.016 0.179,0 0.699,-0.508 0.711,-0.656 C 8.297,8.316 7.5,8.285 6.801,7.969 6.109,7.617 5.285,7.652 4.625,8.055 4.879,8.602 5.426,8.945 6.027,8.938 5.918,9.902 6.426,11.027 7.664,11.621 7.691,11.633 7.719,11.648 7.746,11.66 7.023,11.285 6.43,10.582 6.355,9.727 Z"
         style="fill:url(#radialGradient18255);stroke:none;stroke-width:1.0324"
         id="path18257" /></g></g></svg>
