<?xml version="1.0" encoding="UTF-8" standalone="no"?>
<!-- Created with Inkscape (http://www.inkscape.org/) -->

<svg
   width="24"
   height="24"
   viewBox="0 0 6.35 6.35"
   version="1.1"
   id="svg5"
   xml:space="preserve"
   sodipodi:docname="firefox3.svg"
   inkscape:version="1.2.2 (b0a8486541, 2022-12-01)"
   xmlns:inkscape="http://www.inkscape.org/namespaces/inkscape"
   xmlns:sodipodi="http://sodipodi.sourceforge.net/DTD/sodipodi-0.dtd"
   xmlns:xlink="http://www.w3.org/1999/xlink"
   xmlns="http://www.w3.org/2000/svg"
   xmlns:svg="http://www.w3.org/2000/svg"><sodipodi:namedview
     id="namedview7"
     pagecolor="#ffffff"
     bordercolor="#000000"
     borderopacity="0.25"
     inkscape:showpageshadow="2"
     inkscape:pageopacity="0.0"
     inkscape:pagecheckerboard="0"
     inkscape:deskcolor="#d1d1d1"
     inkscape:document-units="mm"
     showgrid="false"
     inkscape:zoom="16"
     inkscape:cx="1.34375"
     inkscape:cy="14.65625"
     inkscape:window-width="2560"
     inkscape:window-height="1000"
     inkscape:window-x="1680"
     inkscape:window-y="0"
     inkscape:window-maximized="1"
     inkscape:current-layer="svg5" /><defs
     id="defs2"><linearGradient
       inkscape:collect="always"
       id="linearGradient23570"><stop
         style="stop-color:#666666;stop-opacity:1"
         offset="0"
         id="stop23566" /><stop
         style="stop-color:#000000;stop-opacity:1"
         offset="1"
         id="stop23568" /></linearGradient><style
       type="text/css"
       id="current-color-scheme">
      .ColorScheme-Text {
        color:#31363b;
      }
      .ColorScheme-Background {
        color:#eff0f1;
      }
      .ColorScheme-Highlight {
        color:#3daee9;
      }
      .ColorScheme-ViewText {
        color:#31363b;
      }
      .ColorScheme-ViewBackground {
        color:#fcfcfc;
      }
      .ColorScheme-ViewHover {
        color:#93cee9;
      }
      .ColorScheme-ViewFocus{
        color:#3daee9;
      }
      .ColorScheme-ButtonText {
        color:#31363b;
      }
      .ColorScheme-ButtonBackground {
        color:#eff0f1;
      }
      .ColorScheme-ButtonHover {
        color:#93cee9;
      }
      .ColorScheme-ButtonFocus{
        color:#3daee9;
      }
      </style><style
       type="text/css"
       id="current-color-scheme-9">
      .ColorScheme-Text {
        color:#31363b;
      }
      .ColorScheme-Background {
        color:#eff0f1;
      }
      .ColorScheme-Highlight {
        color:#3daee9;
      }
      .ColorScheme-ViewText {
        color:#31363b;
      }
      .ColorScheme-ViewBackground {
        color:#fcfcfc;
      }
      .ColorScheme-ViewHover {
        color:#93cee9;
      }
      .ColorScheme-ViewFocus{
        color:#3daee9;
      }
      .ColorScheme-ButtonText {
        color:#31363b;
      }
      .ColorScheme-ButtonBackground {
        color:#eff0f1;
      }
      .ColorScheme-ButtonHover {
        color:#93cee9;
      }
      .ColorScheme-ButtonFocus{
        color:#3daee9;
      }
      </style><style
       type="text/css"
       id="current-color-scheme-2">
      .ColorScheme-Text {
        color:#31363b;
      }
      .ColorScheme-Background {
        color:#eff0f1;
      }
      .ColorScheme-Highlight {
        color:#3daee9;
      }
      .ColorScheme-ViewText {
        color:#31363b;
      }
      .ColorScheme-ViewBackground {
        color:#fcfcfc;
      }
      .ColorScheme-ViewHover {
        color:#93cee9;
      }
      .ColorScheme-ViewFocus{
        color:#3daee9;
      }
      .ColorScheme-ButtonText {
        color:#31363b;
      }
      .ColorScheme-ButtonBackground {
        color:#eff0f1;
      }
      .ColorScheme-ButtonHover {
        color:#93cee9;
      }
      .ColorScheme-ButtonFocus{
        color:#3daee9;
      }
      </style><style
       type="text/css"
       id="current-color-scheme-3">
      .ColorScheme-Text {
        color:#31363b;
      }
      .ColorScheme-Background {
        color:#eff0f1;
      }
      .ColorScheme-Highlight {
        color:#3daee9;
      }
      .ColorScheme-ViewText {
        color:#31363b;
      }
      .ColorScheme-ViewBackground {
        color:#fcfcfc;
      }
      .ColorScheme-ViewHover {
        color:#93cee9;
      }
      .ColorScheme-ViewFocus{
        color:#3daee9;
      }
      .ColorScheme-ButtonText {
        color:#31363b;
      }
      .ColorScheme-ButtonBackground {
        color:#eff0f1;
      }
      .ColorScheme-ButtonHover {
        color:#93cee9;
      }
      .ColorScheme-ButtonFocus{
        color:#3daee9;
      }
      </style><style
       type="text/css"
       id="current-color-scheme-97">
      .ColorScheme-Text {
        color:#31363b;
      }
      .ColorScheme-Background {
        color:#eff0f1;
      }
      .ColorScheme-Highlight {
        color:#3daee9;
      }
      .ColorScheme-ViewText {
        color:#31363b;
      }
      .ColorScheme-ViewBackground {
        color:#fcfcfc;
      }
      .ColorScheme-ViewHover {
        color:#93cee9;
      }
      .ColorScheme-ViewFocus{
        color:#3daee9;
      }
      .ColorScheme-ButtonText {
        color:#31363b;
      }
      .ColorScheme-ButtonBackground {
        color:#eff0f1;
      }
      .ColorScheme-ButtonHover {
        color:#93cee9;
      }
      .ColorScheme-ButtonFocus{
        color:#3daee9;
      }
      </style><style
       type="text/css"
       id="current-color-scheme-7">
      .ColorScheme-Text {
        color:#31363b;
      }
      .ColorScheme-Background {
        color:#eff0f1;
      }
      .ColorScheme-Highlight {
        color:#3daee9;
      }
      .ColorScheme-ViewText {
        color:#31363b;
      }
      .ColorScheme-ViewBackground {
        color:#fcfcfc;
      }
      .ColorScheme-ViewHover {
        color:#93cee9;
      }
      .ColorScheme-ViewFocus{
        color:#3daee9;
      }
      .ColorScheme-ButtonText {
        color:#31363b;
      }
      .ColorScheme-ButtonBackground {
        color:#eff0f1;
      }
      .ColorScheme-ButtonHover {
        color:#93cee9;
      }
      .ColorScheme-ButtonFocus{
        color:#3daee9;
      }
      </style><style
       type="text/css"
       id="current-color-scheme-9-0">
      .ColorScheme-Text {
        color:#31363b;
      }
      .ColorScheme-Background {
        color:#eff0f1;
      }
      .ColorScheme-Highlight {
        color:#3daee9;
      }
      .ColorScheme-ViewText {
        color:#31363b;
      }
      .ColorScheme-ViewBackground {
        color:#fcfcfc;
      }
      .ColorScheme-ViewHover {
        color:#93cee9;
      }
      .ColorScheme-ViewFocus{
        color:#3daee9;
      }
      .ColorScheme-ButtonText {
        color:#31363b;
      }
      .ColorScheme-ButtonBackground {
        color:#eff0f1;
      }
      .ColorScheme-ButtonHover {
        color:#93cee9;
      }
      .ColorScheme-ButtonFocus{
        color:#3daee9;
      }
      </style><style
       type="text/css"
       id="current-color-scheme-2-9">
      .ColorScheme-Text {
        color:#31363b;
      }
      .ColorScheme-Background {
        color:#eff0f1;
      }
      .ColorScheme-Highlight {
        color:#3daee9;
      }
      .ColorScheme-ViewText {
        color:#31363b;
      }
      .ColorScheme-ViewBackground {
        color:#fcfcfc;
      }
      .ColorScheme-ViewHover {
        color:#93cee9;
      }
      .ColorScheme-ViewFocus{
        color:#3daee9;
      }
      .ColorScheme-ButtonText {
        color:#31363b;
      }
      .ColorScheme-ButtonBackground {
        color:#eff0f1;
      }
      .ColorScheme-ButtonHover {
        color:#93cee9;
      }
      .ColorScheme-ButtonFocus{
        color:#3daee9;
      }
      </style><style
       type="text/css"
       id="current-color-scheme-3-3">
      .ColorScheme-Text {
        color:#31363b;
      }
      .ColorScheme-Background {
        color:#eff0f1;
      }
      .ColorScheme-Highlight {
        color:#3daee9;
      }
      .ColorScheme-ViewText {
        color:#31363b;
      }
      .ColorScheme-ViewBackground {
        color:#fcfcfc;
      }
      .ColorScheme-ViewHover {
        color:#93cee9;
      }
      .ColorScheme-ViewFocus{
        color:#3daee9;
      }
      .ColorScheme-ButtonText {
        color:#31363b;
      }
      .ColorScheme-ButtonBackground {
        color:#eff0f1;
      }
      .ColorScheme-ButtonHover {
        color:#93cee9;
      }
      .ColorScheme-ButtonFocus{
        color:#3daee9;
      }
      </style><style
       type="text/css"
       id="current-color-scheme-97-6">
      .ColorScheme-Text {
        color:#31363b;
      }
      .ColorScheme-Background {
        color:#eff0f1;
      }
      .ColorScheme-Highlight {
        color:#3daee9;
      }
      .ColorScheme-ViewText {
        color:#31363b;
      }
      .ColorScheme-ViewBackground {
        color:#fcfcfc;
      }
      .ColorScheme-ViewHover {
        color:#93cee9;
      }
      .ColorScheme-ViewFocus{
        color:#3daee9;
      }
      .ColorScheme-ButtonText {
        color:#31363b;
      }
      .ColorScheme-ButtonBackground {
        color:#eff0f1;
      }
      .ColorScheme-ButtonHover {
        color:#93cee9;
      }
      .ColorScheme-ButtonFocus{
        color:#3daee9;
      }
      </style><linearGradient
       inkscape:collect="always"
       xlink:href="#linearGradient23570"
       id="linearGradient23572"
       x1="247.6071"
       y1="852.94098"
       x2="254.18996"
       y2="-167.40173"
       gradientUnits="userSpaceOnUse" /><linearGradient
       inkscape:collect="always"
       xlink:href="#linearGradient23570"
       id="linearGradient23759"
       gradientUnits="userSpaceOnUse"
       x1="247.6071"
       y1="852.94098"
       x2="254.18996"
       y2="-167.40173" /><linearGradient
       inkscape:collect="always"
       xlink:href="#linearGradient23570"
       id="linearGradient23761"
       gradientUnits="userSpaceOnUse"
       x1="247.6071"
       y1="852.94098"
       x2="254.18996"
       y2="-167.40173" /><linearGradient
       inkscape:collect="always"
       xlink:href="#linearGradient23570"
       id="linearGradient23763"
       gradientUnits="userSpaceOnUse"
       x1="247.6071"
       y1="852.94098"
       x2="254.18996"
       y2="-167.40173" /></defs><g
     id="g244"
     transform="matrix(0.01304062,0,0,0.01304062,0.26457054,0.26458043)"
     style="fill:url(#linearGradient23572);fill-opacity:1"
     inkscape:export-filename="kdiskmark.svg"
     inkscape:export-xdpi="25.400002"
     inkscape:export-ydpi="25.400002"><g
       id="g246"
       style="fill:url(#linearGradient23763);fill-opacity:1"><g
         id="g252"
         style="fill:url(#linearGradient23761);fill-opacity:1"><path
           d="m 174.406,2.305 c 2.434,0.027 4.758,-0.285 6.973,-0.93 29.133,-1.906 58.258,-1.832 87.387,0.234 26.41,2.055 51.976,7.786 76.699,17.188 41.097,16.922 69.219,46.269 84.363,88.043 8.66,25.152 13.774,51.015 15.34,77.59 2.164,33.371 1.391,66.668 -2.324,99.89 -2.782,23.352 -8.824,45.805 -18.129,67.368 -17.258,37.382 -45.223,63.167 -83.899,77.355 -31.343,10.59 -63.57,16.164 -96.687,16.723 -37.246,1.937 -74.121,-0.848 -110.625,-8.36 C 66.312,422.438 24.867,381.477 9.164,314.52 2.496,284.375 -0.523,253.867 0.098,222.992 -0.645,190.16 2.84,157.793 10.559,125.891 27.02,63.285 66.762,24.488 129.785,9.508 144.469,5.914 159.344,3.516 174.406,2.305 Z"
           style="fill:url(#linearGradient23759);fill-opacity:1;fill-rule:evenodd;stroke:none"
           id="path260" /></g></g></g><style
     type="text/css"
     id="style1171">
	.st0{fill:url(#Path_14_);}
	.st1{fill:url(#Path_15_);}
	.st2{fill:url(#Path_16_);}
	.st3{fill:url(#Path_17_);}
	.st4{fill:url(#Path_18_);}
	.st5{fill:url(#Path_19_);}
	.st6{fill:url(#Path_20_);}
	.st7{fill:url(#Path_21_);}
	.st8{opacity:0.53;fill:url(#Path_22_);enable-background:new    ;}
	.st9{opacity:0.53;fill:url(#Path_23_);enable-background:new    ;}
	.st10{fill:url(#Path_24_);}
	.st11{fill:url(#Path_25_);}
	.st12{fill:url(#Path_26_);}
	.st13{fill:url(#Path_27_);}
</style><g
     id="g1335"
     transform="matrix(0.06626529,0,0,0.06626529,1.0545926,1.055881)">
	
		<radialGradient
   id="Path_14_"
   cx="-362.0611"
   cy="337.8071"
   r="0.45640001"
   gradientTransform="matrix(159.1024,0,0,-159.1024,57662.012,53758.078)"
   gradientUnits="userSpaceOnUse">
		<stop
   offset="0"
   style="stop-color:#FFF44F"
   id="stop1173" />
		<stop
   offset="0.29"
   style="stop-color:#FF980E"
   id="stop1175" />
		<stop
   offset="0.43"
   style="stop-color:#FF5D36"
   id="stop1177" />
		<stop
   offset="0.53"
   style="stop-color:#FF3750"
   id="stop1179" />
		<stop
   offset="0.75"
   style="stop-color:#F5156C"
   id="stop1181" />
		<stop
   offset="0.76"
   style="stop-color:#F1136E"
   id="stop1183" />
		<stop
   offset="0.88"
   style="stop-color:#DA057A"
   id="stop1185" />
		<stop
   offset="0.95"
   style="stop-color:#D2007F"
   id="stop1187" />
	</radialGradient>
	<path
   id="Path"
   class="st0"
   d="M 57.6,12.6 C 51.8,5 42.8,0.3 33.3,0.1 25.9,0 20.7,2.2 17.8,4 21.7,1.8 27.3,0.5 32.2,0.5 44.9,0.7 58.5,9.3 60.5,24.8 62.8,42.6 50.4,57.5 32.9,57.5 13.7,57.5 2,40.5 5,25.3 5.2,24.5 5.1,23.8 5.3,23.1 5.4,20.4 6.5,16.2 8.7,11.9 6.5,13 3.7,16.7 2.3,20 c -2,4.8 -2.7,10.6 -2.1,16.1 0,0.4 0.1,0.8 0.1,1.2 2.2,13.1 12.3,23.4 25.4,26 13,2.6 26.3,-3.1 33.4,-14.4 7.1,-11.3 6.4,-25.7 -1.5,-36.3 z"
   style="fill:url(#Path_14_)" />
	
		<radialGradient
   id="Path_15_"
   cx="-362.38571"
   cy="337.7883"
   r="0.2701"
   gradientTransform="matrix(159.1024,0,0,-159.1024,57661.734,53758.078)"
   gradientUnits="userSpaceOnUse">
		<stop
   offset="0"
   style="stop-color:#B5007F"
   id="stop1191" />
		<stop
   offset="1"
   style="stop-color:#F5156C;stop-opacity:0"
   id="stop1193" />
	</radialGradient>
	<path
   id="Path_1_"
   class="st1"
   d="M 57.6,12.6 C 51.8,5 42.8,0.3 33.3,0.1 25.9,0 20.7,2.2 17.8,4 21.7,1.8 27.3,0.5 32.2,0.5 44.9,0.7 58.5,9.3 60.5,24.8 62.8,42.6 50.4,57.5 32.9,57.5 13.7,57.5 2,40.5 5,25.3 5.2,24.5 5.1,23.8 5.3,23.1 5.4,20.4 6.5,16.2 8.7,11.9 6.5,13 3.7,16.7 2.3,20 c -2,4.8 -2.7,10.6 -2.1,16.1 0,0.4 0.1,0.8 0.1,1.2 2.2,13.1 12.3,23.4 25.4,26 13,2.6 26.3,-3.1 33.4,-14.4 7.1,-11.3 6.4,-25.7 -1.5,-36.3 z"
   style="fill:url(#Path_15_)" />
	
		<radialGradient
   id="Path_16_"
   cx="-362.02231"
   cy="337.8331"
   r="0.53600001"
   gradientTransform="matrix(159.1024,0,0,-159.1024,57662.043,53758.078)"
   gradientUnits="userSpaceOnUse">
		<stop
   offset="0"
   style="stop-color:#FFDD00;stop-opacity:0.6"
   id="stop1197" />
		<stop
   offset="9.000000e-02"
   style="stop-color:#FFD702;stop-opacity:0.58"
   id="stop1199" />
		<stop
   offset="0.2"
   style="stop-color:#FEC606;stop-opacity:0.52"
   id="stop1201" />
		<stop
   offset="0.32"
   style="stop-color:#FDA90E;stop-opacity:0.43"
   id="stop1203" />
		<stop
   offset="0.45"
   style="stop-color:#FC8119;stop-opacity:0.3"
   id="stop1205" />
		<stop
   offset="0.57"
   style="stop-color:#FA4E27;stop-opacity:0.14"
   id="stop1207" />
		<stop
   offset="0.66"
   style="stop-color:#F92433;stop-opacity:0"
   id="stop1209" />
	</radialGradient>
	<path
   id="Path_2_"
   class="st2"
   d="M 57.6,12.6 C 51.8,5 42.8,0.3 33.3,0.1 25.9,0 20.7,2.2 17.8,4 21.7,1.8 27.3,0.5 32.2,0.5 44.9,0.7 58.5,9.3 60.5,24.8 62.8,42.6 50.4,57.5 32.9,57.5 13.7,57.5 2,40.5 5,25.3 5.2,24.5 5.1,23.8 5.3,23.1 5.4,20.4 6.5,16.2 8.7,11.9 6.5,13 3.7,16.7 2.3,20 c -2,4.8 -2.7,10.6 -2.1,16.1 0,0.4 0.1,0.8 0.1,1.2 2.2,13.1 12.3,23.4 25.4,26 13,2.6 26.3,-3.1 33.4,-14.4 7.1,-11.3 6.4,-25.7 -1.5,-36.3 z"
   style="fill:url(#Path_16_)" />
	
		<radialGradient
   id="Path_17_"
   cx="-362.2074"
   cy="337.65991"
   r="0.69139999"
   gradientTransform="matrix(159.1024,0,0,-159.1024,57661.887,53758.078)"
   gradientUnits="userSpaceOnUse">
		<stop
   offset="0.15"
   style="stop-color:#960E18"
   id="stop1213" />
		<stop
   offset="0.18"
   style="stop-color:#B11927;stop-opacity:0.74"
   id="stop1215" />
		<stop
   offset="0.22"
   style="stop-color:#DB293D;stop-opacity:0.34"
   id="stop1217" />
		<stop
   offset="0.26"
   style="stop-color:#F5334B;stop-opacity:9.000000e-02"
   id="stop1219" />
		<stop
   offset="0.27"
   style="stop-color:#FF3750;stop-opacity:0"
   id="stop1221" />
	</radialGradient>
	<path
   id="Path_3_"
   class="st3"
   d="M 57.6,12.6 C 51.8,5 42.8,0.3 33.3,0.1 25.9,0 20.7,2.2 17.8,4 21.7,1.8 27.3,0.5 32.2,0.5 44.9,0.7 58.5,9.3 60.5,24.8 62.8,42.6 50.4,57.5 32.9,57.5 13.7,57.5 2,40.5 5,25.3 5.2,24.5 5.1,23.8 5.3,23.1 5.4,20.4 6.5,16.2 8.7,11.9 6.5,13 3.7,16.7 2.3,20 c -2,4.8 -2.7,10.6 -2.1,16.1 0,0.4 0.1,0.8 0.1,1.2 2.2,13.1 12.3,23.4 25.4,26 13,2.6 26.3,-3.1 33.4,-14.4 7.1,-11.3 6.4,-25.7 -1.5,-36.3 z"
   style="fill:url(#Path_17_)" />
	
		<radialGradient
   id="Path_18_"
   cx="-362.2594"
   cy="337.66861"
   r="0.69139999"
   gradientTransform="matrix(159.1024,0,0,-159.1024,57661.844,53758.078)"
   gradientUnits="userSpaceOnUse">
		<stop
   offset="0.11"
   style="stop-color:#960E18"
   id="stop1225" />
		<stop
   offset="0.15"
   style="stop-color:#B11927;stop-opacity:0.74"
   id="stop1227" />
		<stop
   offset="0.21"
   style="stop-color:#DB293D;stop-opacity:0.34"
   id="stop1229" />
		<stop
   offset="0.26"
   style="stop-color:#F5334B;stop-opacity:9.000000e-02"
   id="stop1231" />
		<stop
   offset="0.28"
   style="stop-color:#FF3750;stop-opacity:0"
   id="stop1233" />
	</radialGradient>
	<path
   id="Path_4_"
   class="st4"
   d="M 57.6,12.6 C 51.8,5 42.8,0.3 33.3,0.1 25.9,0 20.7,2.2 17.8,4 21.7,1.8 27.3,0.5 32.2,0.5 44.9,0.7 58.5,9.3 60.5,24.8 62.8,42.6 50.4,57.5 32.9,57.5 13.7,57.5 2,40.5 5,25.3 5.2,24.5 5.1,23.8 5.3,23.1 5.4,20.4 6.5,16.2 8.7,11.9 6.5,13 3.7,16.7 2.3,20 c -2,4.8 -2.7,10.6 -2.1,16.1 0,0.4 0.1,0.8 0.1,1.2 2.2,13.1 12.3,23.4 25.4,26 13,2.6 26.3,-3.1 33.4,-14.4 7.1,-11.3 6.4,-25.7 -1.5,-36.3 z"
   style="fill:url(#Path_18_)" />
	
		<linearGradient
   id="Path_19_"
   gradientUnits="userSpaceOnUse"
   x1="-362.23291"
   y1="336.53671"
   x2="-362.06921"
   y2="336.34949"
   gradientTransform="matrix(114.9722,0,0,-75.9117,41686.852,25556.449)">
		<stop
   offset="0"
   style="stop-color:#FFBC04"
   id="stop1237" />
		<stop
   offset="0.17"
   style="stop-color:#FFAB02;stop-opacity:0.62"
   id="stop1239" />
		<stop
   offset="0.34"
   style="stop-color:#FF9B01;stop-opacity:0.29"
   id="stop1241" />
		<stop
   offset="0.45"
   style="stop-color:#FF9200;stop-opacity:8.000000e-02"
   id="stop1243" />
		<stop
   offset="0.51"
   style="stop-color:#FF8E00;stop-opacity:0"
   id="stop1245" />
	</linearGradient>
	<path
   id="Path_5_"
   class="st5"
   d="m 60.5,24.8 c 0.3,1.9 0.3,3.9 0.2,5.8 1.1,-0.2 2.1,-0.3 3.2,-0.4 C 63.6,23.9 61.3,17.8 57.5,12.7 51.8,5 42.8,0.3 33.3,0.1 25.9,0 20.7,2.2 17.8,4 21.7,1.8 27.3,0.5 32.2,0.5 44.9,0.6 58.5,9.2 60.5,24.8 Z"
   style="fill:url(#Path_19_)" />
	
		<radialGradient
   id="Path_20_"
   cx="-362.03851"
   cy="337.69379"
   r="0.47839999"
   gradientTransform="matrix(142.6366,0,0,-142.6366,51695.387,48177.227)"
   gradientUnits="userSpaceOnUse">
		<stop
   offset="0"
   style="stop-color:#FF980E"
   id="stop1249" />
		<stop
   offset="0.3"
   style="stop-color:#FF7139"
   id="stop1251" />
		<stop
   offset="0.48"
   style="stop-color:#FF5B51"
   id="stop1253" />
		<stop
   offset="0.63"
   style="stop-color:#FF4F5E"
   id="stop1255" />
		<stop
   offset="0.74"
   style="stop-color:#FF4055"
   id="stop1257" />
		<stop
   offset="0.84"
   style="stop-color:#FF3750"
   id="stop1259" />
	</radialGradient>
	<path
   id="Path_6_"
   class="st6"
   d="M 61.3,23.9 C 59.5,7.7 45,0.4 32.2,0.5 27.3,0.5 21.7,1.7 17.8,4 16.8,4.6 15.8,5.3 15,6.2 15.1,6.1 15.4,5.9 15.9,5.5 H 16 v 0 c 1.9,-1.3 4,-2.2 6.2,-2.9 3.4,-1 7,-1.3 10.5,-1.2 14.4,0.8 24.6,12.8 25,25.5 C 58,37.4 49.3,45.8 39.4,46.3 32.2,46.7 25.3,43.2 22,36.2 21.2,34.6 20.7,32.9 20.4,31.1 18.8,20.4 26,11.3 32.5,9 29,5.9 20.1,6.2 13.5,11 8.7,14.5 5.6,19.8 4.6,26.2 3.8,31 4.6,36 6.5,40.5 c 4.2,9.8 13.5,16.4 24.1,17.1 0.8,0.1 1.6,0.1 2.4,0.1 21.1,0 30.3,-16 28.3,-33.8 z"
   style="fill:url(#Path_20_)" />
	
		<radialGradient
   id="Path_21_"
   cx="-362.03851"
   cy="337.69379"
   r="0.47839999"
   gradientTransform="matrix(142.6366,0,0,-142.6366,51695.387,48177.227)"
   gradientUnits="userSpaceOnUse">
		<stop
   offset="8.000000e-02"
   style="stop-color:#FFDE08"
   id="stop1263" />
		<stop
   offset="0.15"
   style="stop-color:#FFDB08;stop-opacity:0.97"
   id="stop1265" />
		<stop
   offset="0.25"
   style="stop-color:#FFD209;stop-opacity:0.88"
   id="stop1267" />
		<stop
   offset="0.37"
   style="stop-color:#FFC40B;stop-opacity:0.73"
   id="stop1269" />
		<stop
   offset="0.51"
   style="stop-color:#FFB00D;stop-opacity:0.53"
   id="stop1271" />
		<stop
   offset="0.67"
   style="stop-color:#FF970F;stop-opacity:0.28"
   id="stop1273" />
		<stop
   offset="0.82"
   style="stop-color:#FF7B12;stop-opacity:0"
   id="stop1275" />
	</radialGradient>
	<path
   id="Path_7_"
   class="st7"
   d="M 61.3,23.9 C 59.5,7.7 45,0.4 32.2,0.5 27.3,0.5 21.7,1.7 17.8,4 16.8,4.6 15.8,5.3 15,6.2 15.1,6.1 15.4,5.9 15.9,5.5 H 16 v 0 c 1.9,-1.3 4,-2.2 6.2,-2.9 3.4,-1 7,-1.3 10.5,-1.2 14.4,0.8 24.6,12.8 25,25.5 C 58,37.4 49.3,45.8 39.4,46.3 32.2,46.7 25.3,43.2 22,36.2 21.2,34.6 20.7,32.9 20.4,31.1 18.8,20.4 26,11.3 32.5,9 29,5.9 20.1,6.2 13.5,11 8.7,14.5 5.6,19.8 4.6,26.2 3.8,31 4.6,36 6.5,40.5 c 4.2,9.8 13.5,16.4 24.1,17.1 0.8,0.1 1.6,0.1 2.4,0.1 21.1,0 30.3,-16 28.3,-33.8 z"
   style="fill:url(#Path_21_)" />
	
		<radialGradient
   id="Path_22_"
   cx="-361.42389"
   cy="338.45599"
   r="0.2348"
   gradientTransform="matrix(35.5987,138.1229,138.1229,-35.5987,-33842.105,62000.602)"
   gradientUnits="userSpaceOnUse">
		<stop
   offset="0.36"
   style="stop-color:#FF3750"
   id="stop1279" />
		<stop
   offset="0.44"
   style="stop-color:#FF4D47;stop-opacity:0.63"
   id="stop1281" />
		<stop
   offset="0.55"
   style="stop-color:#FF673D;stop-opacity:0.18"
   id="stop1283" />
		<stop
   offset="0.59"
   style="stop-color:#FF7139;stop-opacity:0"
   id="stop1285" />
	</radialGradient>
	<path
   id="Path_8_"
   class="st8"
   d="M 61.3,23.9 C 59.5,7.7 45,0.4 32.2,0.5 27.3,0.5 21.7,1.7 17.8,4 16.8,4.6 15.8,5.3 15,6.2 15.1,6.1 15.4,5.9 15.9,5.5 H 16 v 0 c 1.9,-1.3 4,-2.2 6.2,-2.9 3.4,-1 7,-1.3 10.5,-1.2 14.4,0.8 24.6,12.8 25,25.5 C 58,37.4 49.3,45.8 39.4,46.3 32.2,46.7 25.3,43.2 22,36.2 21.2,34.6 20.7,32.9 20.4,31.1 18.8,20.4 26,11.3 32.5,9 29,5.9 20.1,6.2 13.5,11 8.7,14.5 5.6,19.8 4.6,26.2 3.8,31 4.6,36 6.5,40.5 c 4.2,9.8 13.5,16.4 24.1,17.1 0.8,0.1 1.6,0.1 2.4,0.1 21.1,0 30.3,-16 28.3,-33.8 z"
   style="fill:url(#Path_22_)" />
	
		<radialGradient
   id="Path_23_"
   cx="-362.18729"
   cy="337.52661"
   r="0.2344"
   gradientTransform="matrix(142.6366,0,0,-142.6366,51695.371,48177.227)"
   gradientUnits="userSpaceOnUse">
		<stop
   offset="0.22"
   style="stop-color:#FF3750;stop-opacity:0.8"
   id="stop1289" />
		<stop
   offset="0.27"
   style="stop-color:#FF444B;stop-opacity:0.63"
   id="stop1291" />
		<stop
   offset="0.41"
   style="stop-color:#FF643E;stop-opacity:0.18"
   id="stop1293" />
		<stop
   offset="0.47"
   style="stop-color:#FF7139;stop-opacity:0"
   id="stop1295" />
	</radialGradient>
	<path
   id="Path_9_"
   class="st9"
   d="M 61.3,23.9 C 59.5,7.7 45,0.4 32.2,0.5 27.3,0.5 21.7,1.7 17.8,4 16.8,4.6 15.8,5.3 15,6.2 15.1,6.1 15.4,5.9 15.9,5.5 H 16 v 0 c 1.9,-1.3 4,-2.2 6.2,-2.9 3.4,-1 7,-1.3 10.5,-1.2 14.4,0.8 24.6,12.8 25,25.5 C 58,37.4 49.3,45.8 39.4,46.3 32.2,46.7 25.3,43.2 22,36.2 21.2,34.6 20.7,32.9 20.4,31.1 18.8,20.4 26,11.3 32.5,9 29,5.9 20.1,6.2 13.5,11 8.7,14.5 5.6,19.8 4.6,26.2 3.8,31 4.6,36 6.5,40.5 c 4.2,9.8 13.5,16.4 24.1,17.1 0.8,0.1 1.6,0.1 2.4,0.1 21.1,0 30.3,-16 28.3,-33.8 z"
   style="fill:url(#Path_23_)" />
	
		<radialGradient
   id="Path_24_"
   cx="-361.87491"
   cy="337.3981"
   r="1.045"
   gradientTransform="matrix(110.368,0,0,-110.368,40008.457,37239.965)"
   gradientUnits="userSpaceOnUse">
		<stop
   offset="5.000000e-02"
   style="stop-color:#FFF44F"
   id="stop1299" />
		<stop
   offset="0.46"
   style="stop-color:#FF980E"
   id="stop1301" />
		<stop
   offset="0.52"
   style="stop-color:#FF8424"
   id="stop1303" />
		<stop
   offset="0.59"
   style="stop-color:#FF7634"
   id="stop1305" />
		<stop
   offset="0.64"
   style="stop-color:#FF7139"
   id="stop1307" />
	</radialGradient>
	<path
   id="Path_10_"
   class="st10"
   d="M 39.4,46.2 C 53,45.4 58.9,34.1 59.3,26.1 59.9,13.6 52.4,0.1 32.7,1.3 29.2,1.2 25.5,1.5 22.2,2.5 20,3.1 17.9,4.1 16,5.4 v 0 H 15.9 C 15.6,5.6 15.3,5.8 15,6.1 15.5,5.7 22.3,1.7 31.8,3 c 11.3,1.5 21.7,10.3 21.7,21.8 0,8.9 -6.9,15.7 -15,15.2 -12,-0.7 -15,-13 -8.8,-18.3 -1.7,-0.4 -4.9,0.3 -7.1,3.6 -2,3 -1.9,7.5 -0.6,10.7 3.3,7.1 10.1,10.7 17.4,10.2 z"
   style="fill:url(#Path_24_)" />
	
		<linearGradient
   id="Path_25_"
   gradientUnits="userSpaceOnUse"
   x1="-362.12561"
   y1="337.7865"
   x2="-362.33051"
   y2="337.47079"
   gradientTransform="matrix(159.4285,0,0,-141.8605,57780.125,47930.32)">
		<stop
   offset="0"
   style="stop-color:#FFF44F;stop-opacity:0.8"
   id="stop1311" />
		<stop
   offset="9.000000e-02"
   style="stop-color:#FFF44F;stop-opacity:0.7"
   id="stop1313" />
		<stop
   offset="0.75"
   style="stop-color:#FFF44F;stop-opacity:0"
   id="stop1315" />
	</linearGradient>
	<path
   id="Path_11_"
   class="st11"
   d="M 57.6,12.6 C 56.7,11.5 55.8,10.4 54.8,9.4 54,8.6 53.2,7.8 52.3,7.1 c 0.5,0.5 1,0.9 1.5,1.4 1.7,1.9 3.1,4.1 3.9,6.5 1.7,5.1 1.6,11.4 -1.6,16.3 -3.8,5.9 -10,8.8 -16.7,8.7 -0.3,0 -0.6,0 -0.9,0 C 26.5,39.3 23.5,27 29.7,21.7 28,21.3 24.8,22 22.6,25.3 20.6,28.3 20.7,32.8 22,36 21.2,34.4 20.7,32.7 20.4,30.9 18.8,20.4 26,11.3 32.5,9 29,5.9 20.1,6.1 13.5,11 9.6,13.8 6.9,17.9 5.4,22.7 5.6,20 6.6,16 8.7,11.8 c -2.2,1.1 -5,4.8 -6.4,8.1 -2,4.8 -2.7,10.6 -2.1,16.1 0,0.4 0.1,0.8 0.1,1.2 2.2,13.1 12.3,23.4 25.4,26 13.1,2.6 26.3,-3 33.4,-14.3 7.1,-11.3 6.4,-25.7 -1.5,-36.3 z"
   style="fill:url(#Path_25_)" />
	
		<linearGradient
   id="Path_26_"
   gradientUnits="userSpaceOnUse"
   x1="-362.1554"
   y1="336.81339"
   x2="-362.1554"
   y2="337.21231"
   gradientTransform="matrix(108.9196,0,0,-99.6268,39482.637,33595.855)">
		<stop
   offset="0"
   style="stop-color:#3A8EE6"
   id="stop1319" />
		<stop
   offset="0.24"
   style="stop-color:#5C79F0"
   id="stop1321" />
		<stop
   offset="0.63"
   style="stop-color:#9059FF"
   id="stop1323" />
		<stop
   offset="1"
   style="stop-color:#C139E6"
   id="stop1325" />
	</linearGradient>
	<path
   id="Path_12_"
   class="st12"
   d="M 57.6,15 C 56.8,12.6 55.5,10.4 53.7,8.5 51.7,6.3 49.1,4.6 46.4,3.3 44.1,2.2 41.7,1.3 39.2,0.8 34.8,-0.2 30.3,-0.2 25.9,0.7 21.4,1.7 17.4,3.6 14.8,6.1 16.9,5 19.5,4 21.4,3.5 30.1,1.3 39.8,3.7 46.3,10 c 1.3,1.3 2.5,2.7 3.5,4.2 3.9,6.4 3.5,14.3 0.5,19 C 48,36.7 43.2,40 38.6,39.9 45.6,40.3 52,37.3 56,31.2 59.2,26.4 59.3,20.1 57.6,15 Z"
   style="fill:url(#Path_26_)" />
	
		<linearGradient
   id="Path_27_"
   gradientUnits="userSpaceOnUse"
   x1="-362.2926"
   y1="337.17859"
   x2="-361.99649"
   y2="336.90771"
   gradientTransform="matrix(108.9196,0,0,-99.6268,39482.637,33595.855)">
		<stop
   offset="0.81"
   style="stop-color:#9059FF;stop-opacity:0"
   id="stop1329" />
		<stop
   offset="1"
   style="stop-color:#6E008B;stop-opacity:0.5"
   id="stop1331" />
	</linearGradient>
	<path
   id="Path_13_"
   class="st13"
   d="M 57.6,15 C 56.8,12.6 55.5,10.4 53.7,8.5 51.7,6.3 49.1,4.6 46.4,3.3 44.1,2.2 41.7,1.3 39.2,0.8 34.8,-0.2 30.3,-0.2 25.9,0.7 21.4,1.7 17.4,3.6 14.8,6.1 16.9,5 19.5,4 21.4,3.5 30.1,1.3 39.8,3.7 46.3,10 c 1.3,1.3 2.5,2.7 3.5,4.2 3.9,6.4 3.5,14.3 0.5,19 C 48,36.7 43.2,40 38.6,39.9 45.6,40.3 52,37.3 56,31.2 59.2,26.4 59.3,20.1 57.6,15 Z"
   style="fill:url(#Path_27_)" />
</g></svg>
