<?xml version="1.0" encoding="UTF-8" standalone="no"?>
<svg
   width="24"
   height="24"
   viewBox="0 0 24 24"
   fill="none"
   version="1.1"
   id="svg108"
   sodipodi:docname="appFlowy.svg"
   inkscape:export-filename="vokoscreen.pdf"
   inkscape:export-xdpi="512"
   inkscape:export-ydpi="512"
   inkscape:version="1.2.2 (b0a8486541, 2022-12-01)"
   xml:space="preserve"
   xmlns:inkscape="http://www.inkscape.org/namespaces/inkscape"
   xmlns:sodipodi="http://sodipodi.sourceforge.net/DTD/sodipodi-0.dtd"
   xmlns="http://www.w3.org/2000/svg"
   xmlns:svg="http://www.w3.org/2000/svg"><sodipodi:namedview
     id="namedview110"
     pagecolor="#ffffff"
     bordercolor="#000000"
     borderopacity="0.25"
     inkscape:showpageshadow="2"
     inkscape:pageopacity="0.0"
     inkscape:pagecheckerboard="0"
     inkscape:deskcolor="#d1d1d1"
     showgrid="false"
     inkscape:zoom="8.8333333"
     inkscape:cx="-12.226415"
     inkscape:cy="-9.2830189"
     inkscape:window-width="2560"
     inkscape:window-height="998"
     inkscape:window-x="1680"
     inkscape:window-y="0"
     inkscape:window-maximized="1"
     inkscape:current-layer="svg108" /><defs
     id="defs106"><linearGradient
       id="paint0_linear_3_253"
       x1="12"
       y1="1"
       x2="12"
       y2="12"
       gradientUnits="userSpaceOnUse"><stop
         stop-color="#DC9DFF"
         id="stop101"
         offset="0"
         style="stop-color:#2b1466;stop-opacity:1;" /><stop
         offset="1"
         stop-color="#AD5BDB"
         id="stop103"
         style="stop-color:#2b1345;stop-opacity:1;" /></linearGradient><linearGradient
       x1="12"
       y1="1"
       x2="12"
       y2="12"
       gradientUnits="userSpaceOnUse"
       gradientTransform="scale(0.75)"
       spreadMethod="pad"
       id="linearGradient4637"><stop
         style="stop-opacity:1;stop-color:#2b1466"
         offset="0"
         id="stop4633" /><stop
         style="stop-opacity:1;stop-color:#2b1345"
         offset="1"
         id="stop4635" /></linearGradient></defs><g
     id="g4623"
     transform="matrix(1.3333333,0,0,1.3333333,-3.1607349e-4,3e-7)"><g
       id="g4625"><g
         id="g4631"><path
           d="M 7.453,0.801 C 7.371,0.824 7.285,0.836 7.195,0.836 6.641,0.879 6.09,0.969 5.547,1.102 3.219,1.656 1.75,3.09 1.141,5.402 0.855,6.582 0.727,7.781 0.754,8.992 c -0.024,1.141 0.09,2.27 0.336,3.383 0.578,2.477 2.113,3.992 4.594,4.543 1.074,0.223 2.152,0.332 3.242,0.332 0.004,0 0.004,0 0.008,0 0.281,0 0.558,-0.008 0.839,-0.023 1.227,-0.02 2.418,-0.227 3.575,-0.618 1.429,-0.523 2.464,-1.476 3.101,-2.859 0.344,-0.797 0.567,-1.625 0.672,-2.488 0.086,-0.778 0.129,-1.555 0.129,-2.332 0,0 0,0 0,-0.004 0,-0.453 -0.016,-0.906 -0.043,-1.36 C 17.148,6.586 16.957,5.629 16.641,4.699 16.078,3.156 15.039,2.07 13.52,1.445 12.605,1.098 11.66,0.887 10.684,0.809 10.125,0.77 9.566,0.75 9.008,0.75 c 0,0 0,0 -0.004,0 -0.516,0 -1.031,0.016 -1.551,0.051 z"
           style="fill:url(#linearGradient4637);fill-rule:evenodd;stroke:none"
           id="path4639" /></g></g></g><g
     id="g2371"
     transform="matrix(0.07667792,0,0,0.07667792,42.812487,10.275243)"><path
       d="m -434.15431,-67.846243 c -26.55919,3.803025 -47.2919,23.788452 -56.15878,48.496943 -3.80642,10.6070319 -9.33848,39.721066 9.61751,37.685295 8.55839,-0.918779 17.37303,-5.870771 24.6395,-10.1980151 15.89193,-9.4643059 35.66759,-20.1759179 44.93149,-36.7955349 3.32086,-5.956736 5.71637,-13.361728 4.73079,-20.259145 -1.82935,-12.804108 -15.46539,-20.690063 -27.76051,-18.929543"
       style="fill:#8427e0;fill-opacity:1;stroke:none;stroke-width:0.547544"
       id="path406" /><path
       id="path345"
       style="fill:#9327ff;fill-opacity:1;stroke:none;stroke-width:0.547544"
       d="m -431.83718,-68.064453 c -0.77571,0.03582 -1.54991,0.108717 -2.31836,0.21875 -9.88859,1.415952 -18.96624,5.079574 -26.92773,10.390625 -7.4798,5.781301 -13.95021,12.988516 -18.9961,21.148437 -5.92698,9.584811 -17.38719,36.91261342 1.57813,38.8593754 8.56253,0.8792767 18.2138,-2.1322533 26.2207,-4.8554688 8.57329,-2.9160796 18.11584,-5.9373697 27.0957,-9.9374996 5.65533,-4.808329 10.59438,-10.197631 14.06055,-16.416016 3.32086,-5.95673 5.71605,-13.362356 4.73047,-20.259766 -1.71501,-12.003839 -13.8077,-19.685793 -25.44336,-19.148437 z" /><path
       d="m -309.52024,-8.8401853 c -3.80302,-26.5591897 -23.78845,-47.2918997 -48.49694,-56.1587797 -10.60703,-3.80642 -39.72107,-9.33848 -37.68529,9.61751 0.91877,8.55839 5.87077,17.37303 10.19801,24.6395 9.46431,15.89193 20.17592,35.6675897 36.79554,44.93149 5.95673,3.32086 13.36172,5.71637 20.25914,4.73079 12.80411,-1.82935 20.69006,-15.4653903 18.92954,-27.7605103"
       style="fill:#00b5ff;fill-opacity:1;stroke:none;stroke-width:0.547544"
       id="path441" /><path
       id="path443"
       style="fill:#00c8ff;fill-opacity:1;stroke:none;stroke-width:0.547544"
       d="m -309.30203,-6.5230553 c -0.0358,-0.77571 -0.10871,-1.54991 -0.21875,-2.31836 -1.41595,-9.8885897 -5.07957,-18.9662397 -10.39062,-26.9277297 -5.7813,-7.4798 -12.98852,-13.95021 -21.14844,-18.9961 -9.58481,-5.92698 -36.91261,-17.38719 -38.85937,1.57813 -0.87928,8.56253 2.13225,18.2138 4.85546,26.2207 2.91608,8.57329 5.93737,18.1158397 9.9375,27.09569972 4.80833,5.65532998 10.19764,10.59438028 16.41602,14.06055028 5.95673,3.32086 13.36236,5.71605 20.25977,4.73047 12.00384,-1.71501 19.68579,-13.8077003 19.14843,-25.4433603 z" /><path
       id="rect509"
       style="fill:#f7931e;fill-opacity:1;stroke-width:0.883987;stroke-linecap:round;stroke-linejoin:round;paint-order:stroke markers fill"
       d="m -320.04883,37.462891 -59.24414,55.886718 v 10.154301 c 0,4.81873 4.0831,8.69921 9.15625,8.69921 h 50.53516 c 5.07315,0 9.1582,-3.88048 9.1582,-8.69921 V 46.162109 c 0,-4.818732 -4.08505,-8.699218 -9.1582,-8.699218 z" /><path
       d="m -370.5263,112.19288 c 26.55919,-3.80302 47.2919,-23.788448 56.15878,-48.496934 3.80642,-10.60703 9.33848,-39.72107 -9.61751,-37.68529 -8.55839,0.91877 -17.37303,5.87077 -24.6395,10.19801 -15.89193,9.46431 -35.66759,20.17592 -44.93149,36.79554 -3.32086,5.95673 -5.71637,13.361716 -4.73079,20.259136 1.82935,12.804108 15.46539,20.690058 27.76051,18.929538"
       style="fill:#ffbd00;fill-opacity:1;stroke:none;stroke-width:0.547544"
       id="path449" /><path
       id="path451"
       style="fill:#ffce00;fill-opacity:1;stroke:none;stroke-width:0.547544"
       d="m -372.84343,112.41109 c 0.77571,-0.0358 1.54991,-0.10871 2.31836,-0.21875 9.88859,-1.41595 18.96624,-5.07957 26.92773,-10.39062 7.4798,-5.7813 13.95021,-12.988518 18.9961,-21.148434 5.92698,-9.58481 17.38719,-36.91261 -1.57813,-38.85937 -8.56253,-0.87928 -18.2138,2.13225 -26.2207,4.85546 -8.57329,2.91608 -18.11584,5.93737 -27.0957,9.9375 -5.65533,4.80833 -10.59438,10.19764 -14.06055,16.41602 -3.32086,5.95673 -5.71605,13.362356 -4.73047,20.259766 1.71501,12.003838 13.8077,19.685788 25.44336,19.148428 z" /><path
       d="m -494.1658,53.827223 c 3.80302,26.55919 23.78845,47.291907 48.49693,56.158787 10.60703,3.80642 39.72107,9.33848 37.68529,-9.61751 -0.91877,-8.558387 -5.87077,-17.373037 -10.19801,-24.639507 -9.46431,-15.89193 -20.17592,-35.66759 -36.79554,-44.93149 -5.95673,-3.32086 -13.36171,-5.71637 -20.25913,-4.73079 -12.80411,1.82935 -20.69006,15.46539 -18.92954,27.76051"
       style="fill:#e3006d;fill-opacity:1;stroke:none;stroke-width:0.547544"
       id="path453" /><path
       id="path455"
       style="fill:#fb006d;fill-opacity:1;stroke:none;stroke-width:0.547544"
       d="m -494.38401,51.510093 c 0.0358,0.77571 0.10871,1.54991 0.21875,2.31836 1.41595,9.88859 5.07957,18.96624 10.39062,26.92773 5.7813,7.47981 12.98852,13.95022 21.14843,18.99611 9.58481,5.926977 36.91261,17.387187 38.85937,-1.57813 0.87928,-8.56253 -2.13225,-18.21381 -4.85546,-26.22071 -2.91608,-8.57329 -5.93737,-18.11584 -9.9375,-27.0957 -4.80833,-5.65533 -10.19764,-10.59438 -16.41602,-14.06055 -5.95673,-3.32086 -13.36235,-5.71605 -20.25976,-4.73047 -12.00384,1.71501 -19.68579,13.8077 -19.14843,25.44336 z" /></g></svg>
