<?xml version="1.0" encoding="UTF-8" standalone="no"?>
<!-- Created with Inkscape (http://www.inkscape.org/) -->

<svg
   width="133.96359mm"
   height="133.96271mm"
   viewBox="0 0 133.96359 133.96271"
   version="1.1"
   id="svg5"
   xml:space="preserve"
   xmlns:inkscape="http://www.inkscape.org/namespaces/inkscape"
   xmlns:sodipodi="http://sodipodi.sourceforge.net/DTD/sodipodi-0.dtd"
   xmlns:xlink="http://www.w3.org/1999/xlink"
   xmlns="http://www.w3.org/2000/svg"
   xmlns:svg="http://www.w3.org/2000/svg"><sodipodi:namedview
     id="namedview7"
     pagecolor="#ffffff"
     bordercolor="#000000"
     borderopacity="0.25"
     inkscape:showpageshadow="2"
     inkscape:pageopacity="0.0"
     inkscape:pagecheckerboard="0"
     inkscape:deskcolor="#d1d1d1"
     inkscape:document-units="mm"
     showgrid="false" /><defs
     id="defs2"><linearGradient
       inkscape:collect="always"
       id="linearGradient29523"><stop
         style="stop-color:#fa4778;stop-opacity:1;"
         offset="0"
         id="stop29519" /><stop
         style="stop-color:#e6e6e6;stop-opacity:1"
         offset="1"
         id="stop29521" /></linearGradient><linearGradient
       inkscape:collect="always"
       xlink:href="#linearGradient29523"
       id="linearGradient29525"
       x1="205.01833"
       y1="351.61758"
       x2="217.63074"
       y2="-324.40784"
       gradientUnits="userSpaceOnUse" /><linearGradient
       inkscape:collect="always"
       xlink:href="#linearGradient29523"
       id="linearGradient29656"
       gradientUnits="userSpaceOnUse"
       x1="205.01833"
       y1="351.61758"
       x2="217.63074"
       y2="-324.40784" /></defs><g
     id="g816"
     transform="matrix(0.35277776,0,0,0.35277778,5.0620457e-4,-1.6930737e-4)"
     style="fill:url(#linearGradient29525);fill-opacity:1"
     inkscape:export-filename="./g816.svg"
     inkscape:export-xdpi="24.269279"
     inkscape:export-ydpi="24.269279"><path
       d="m 148.375,1.961 c 2.07,0.023 4.047,-0.242 5.93,-0.789 24.785,-1.625 49.566,-1.559 74.343,0.195 22.469,1.75 44.219,6.625 65.25,14.625 34.965,14.395 58.887,39.36 71.774,74.899 7.367,21.398 11.719,43.402 13.051,66.007 1.839,28.391 1.179,56.715 -1.981,84.981 -2.363,19.867 -7.504,38.969 -15.422,57.312 -14.683,31.801 -38.472,53.739 -71.375,65.809 -26.664,9.008 -54.082,13.754 -82.254,14.23 C 176,380.879 144.633,378.508 113.574,372.117 56.414,359.387 21.156,324.535 7.793,267.574 2.125,241.93 -0.445,215.977 0.082,189.707 -0.551,161.773 2.418,134.238 8.98,107.098 22.988,53.84 56.797,20.836 110.414,8.086 122.906,5.035 135.559,2.992 148.375,1.961 Z"
       style="fill:url(#linearGradient29656);fill-opacity:1;fill-rule:evenodd;stroke:none"
       id="path818" /></g><path
     d="m 90.883619,39.045654 c -0.17889,0.89447 -1.76659,2.67225 -2.66107,2.67225 h -26.5884 a 3.8127196,3.8127196 0 0 0 -3.54438,3.54438 v 1.77777 a 3.8015386,3.8015386 0 0 0 3.54438,3.54438 h 23.04402 c 1.77779,0 3.10833,1.5877 2.66109,3.54438 a 104.87774,104.87774 0 0 1 -2.66109,8.86652 c -0.88329,2.21385 -1.76659,5.32215 -5.31097,5.32215 h -17.73305 c -2.66109,0 -3.54438,1.9455 -5.32215,4.42768 -1.59888,1.9455 -15.955284,22.16073 -15.955284,22.16073 v -61.16003 c 0,-5.33334 3.544364,-9.76102 9.749834,-9.76102 h 40.77707 c 1.77779,0 3.10833,1.77778 2.66109,3.54437 z M 50.106549,15.11831 c -14.188691,0 -18.616369,3.544384 -18.616369,18.616374 v 80.682046 c 0,3.54438 1.330534,4.42768 2.21383,4.42768 0.894493,0 2.034956,-0.97275 3.108323,-2.66107 0.704405,-1.0622 27.482886,-39.010496 27.482886,-39.010496 h 17.27465 c 8.86651,0 9.74983,-5.31098 11.51642,-11.51642 0.89448,-4.43886 6.21663,-24.82182 8.866531,-37.23272 1.77778,-8.87771 -0.88331,-13.305394 -9.749831,-13.305394 z"
     fill="#ffffff"
     id="path29364"
     style="stroke-width:11.181" /></svg>
