<svg width="24" height="24" viewBox="0 0 24 24" fill="none" xmlns="http://www.w3.org/2000/svg">
<path fill-rule="evenodd" clip-rule="evenodd" d="M9.59604 1.11359C9.71588 1.11486 9.83043 1.0996 9.93969 1.06779C11.3755 0.973736 12.8111 0.977551 14.2467 1.07924C15.5484 1.18066 16.8085 1.46308 18.0269 1.9265C20.0525 2.76044 21.4386 4.2069 22.185 6.26586C22.6119 7.50549 22.8639 8.78021 22.9411 10.09C23.0478 11.7347 23.0096 13.3758 22.8265 15.0133C22.6895 16.1642 22.3917 17.271 21.933 18.3336C21.0824 20.1761 19.704 21.447 17.7978 22.1463C16.2531 22.6682 14.6647 22.943 13.0325 22.9706C11.1966 23.0661 9.37913 22.9287 7.57997 22.5585C4.26839 21.8208 2.22559 19.8018 1.45158 16.5017C1.12311 15.0161 0.974199 13.5124 1.00483 11.9906C0.968176 10.3724 1.14 8.77709 1.52031 7.20471C2.33171 4.11908 4.2905 2.20701 7.39669 1.46852C8.12049 1.29157 8.8536 1.17326 9.59604 1.11359Z" fill="url(#paint0_radial_6_179)"/>
<path d="M11.2146 2.2676C10.3357 2.26932 9.33949 2.4868 8.20757 2.9757C6.86588 3.55493 5.98569 4.42998 5.50193 5.43946C5.01817 6.44894 4.92527 7.57101 5.05027 8.66226C5.30029 10.8448 6.39667 12.9326 7.30341 14.0778C7.38091 14.1757 7.49413 14.2389 7.61816 14.2533C7.7422 14.2678 7.8669 14.2324 7.96483 14.1549C8.06275 14.0774 8.12588 13.9642 8.14033 13.8401C8.15478 13.7161 8.11937 13.5914 8.04189 13.4935C7.25846 12.5041 6.20702 10.486 5.98569 8.5548C5.87524 7.58942 5.96514 6.65186 6.3513 5.84616C6.73702 5.04046 7.413 4.3435 8.58003 3.84005C10.1687 3.15422 11.3332 3.08914 12.2511 3.34258C13.1685 3.59517 13.8779 4.18253 14.5042 4.93215C15.1305 5.6822 15.6567 6.58551 16.1944 7.40405C16.7316 8.22259 17.2732 8.97777 18.0571 9.36907C18.1124 9.39673 18.1726 9.41323 18.2343 9.41762C18.296 9.42201 18.358 9.4142 18.4166 9.39464C18.4753 9.37508 18.5296 9.34416 18.5763 9.30363C18.623 9.2631 18.6613 9.21376 18.6889 9.15844C18.7447 9.04676 18.7538 8.91752 18.7143 8.79911C18.6748 8.68071 18.5899 8.58283 18.4783 8.52698C17.995 8.28552 17.4979 7.67376 16.9816 6.88732C16.4654 6.10089 15.9242 5.1629 15.2268 4.32852C14.5299 3.49413 13.66 2.75394 12.5011 2.43457C12.2012 2.35242 11.8939 2.3005 11.5836 2.27959C11.4629 2.27103 11.3396 2.26675 11.2142 2.26718L11.2146 2.2676ZM11.1769 4.0785C10.4586 4.06523 9.64173 4.27672 8.71745 4.75277C7.12703 5.57217 6.50113 7.31457 6.8723 9.24406C7.24347 11.174 8.53208 13.3595 10.7223 15.4388C10.8128 15.5248 10.9338 15.5713 11.0587 15.5681C11.1835 15.5649 11.302 15.5122 11.388 15.4217C11.4306 15.3768 11.464 15.324 11.4862 15.2662C11.5085 15.2085 11.5191 15.1469 11.5175 15.085C11.5159 15.0232 11.5021 14.9622 11.477 14.9057C11.4518 14.8491 11.4158 14.7981 11.3709 14.7555C9.28726 12.7777 8.11553 10.7232 7.79702 9.06597C7.47808 7.40919 7.93187 6.21733 9.14855 5.59015C10.4115 4.93943 11.2377 4.90689 11.8863 5.15734C12.5349 5.40735 13.0747 6.00071 13.5975 6.79314C14.6433 8.37842 15.5269 10.7103 17.5831 11.6787C17.6391 11.7052 17.6997 11.7203 17.7615 11.7233C17.8233 11.7264 17.8851 11.7172 17.9433 11.6963C18.0015 11.6754 18.0551 11.6433 18.1009 11.6017C18.1467 11.5601 18.1839 11.5099 18.2103 11.454C18.2367 11.398 18.2517 11.3374 18.2547 11.2756C18.2576 11.2138 18.2483 11.152 18.2274 11.0938C18.2064 11.0356 18.1742 10.9821 18.1326 10.9364C18.0909 10.8906 18.0407 10.8535 17.9847 10.8272C16.3849 10.0733 15.5141 7.98799 14.3839 6.27427C13.8188 5.41763 13.1655 4.64104 12.2254 4.27843C11.9853 4.18611 11.7344 4.12524 11.4787 4.09734C11.3783 4.08627 11.2775 4.07984 11.1765 4.07807L11.1769 4.0785ZM10.8344 5.93606C10.6416 5.9403 10.4499 5.9663 10.2629 6.01355C9.32665 6.2473 8.73286 6.90445 8.6147 7.68532C8.4974 8.46619 8.74742 9.31641 9.16653 10.2039C10.0039 11.9784 11.5819 13.9199 13.0452 15.3223C13.0899 15.3652 13.1425 15.3989 13.2002 15.4214C13.2579 15.4439 13.3195 15.4549 13.3814 15.4535C13.4433 15.4522 13.5044 15.4387 13.5611 15.4138C13.6177 15.3888 13.669 15.353 13.7118 15.3082C13.7981 15.218 13.8451 15.0972 13.8423 14.9723C13.8396 14.8475 13.7874 14.7289 13.6972 14.6425C12.3059 13.3094 10.7715 11.3983 10.018 9.80188C9.64131 9.00389 9.47691 8.28895 9.5467 7.82573C9.61648 7.36252 9.81212 7.09667 10.4907 6.92714C11.0708 6.78286 11.2912 6.8702 11.5644 7.12492C11.8384 7.38007 12.1201 7.89124 12.4634 8.54838C13.1505 9.8631 14.1476 11.7237 16.569 13.1347C16.6768 13.1974 16.8051 13.2148 16.9257 13.183C17.0464 13.1513 17.1495 13.0729 17.2124 12.9652C17.2436 12.9117 17.264 12.8527 17.2723 12.7914C17.2807 12.7301 17.2769 12.6677 17.2611 12.6079C17.2454 12.5481 17.218 12.4919 17.1806 12.4427C17.1431 12.3934 17.0963 12.352 17.0429 12.3209C14.8308 11.0318 13.9828 9.42172 13.2986 8.11257C12.9561 7.45756 12.6715 6.86806 12.207 6.43567C11.8581 6.11116 11.3829 5.92536 10.8344 5.93606ZM10.8858 7.8938C10.8265 7.89303 10.7675 7.90349 10.712 7.92463C10.6542 7.94666 10.6013 7.97986 10.5563 8.02233C10.5114 8.06481 10.4752 8.11573 10.4499 8.17218C10.4246 8.22863 10.4107 8.28951 10.409 8.35135C10.4072 8.41318 10.4177 8.47475 10.4397 8.53254C11.9625 12.5221 15.2247 14.4832 15.2247 14.4832C15.3315 14.5478 15.4597 14.5673 15.5809 14.5374C15.7021 14.5076 15.8065 14.4308 15.8711 14.324C15.9356 14.217 15.955 14.0888 15.925 13.9676C15.8949 13.8464 15.818 13.742 15.711 13.6775C15.711 13.6775 12.7194 11.8645 11.3195 8.1969C11.2859 8.10876 11.2266 8.03274 11.1492 7.97869C11.0719 7.92465 10.9801 7.89508 10.8858 7.8938Z" fill="#813D9C"/>
<path opacity="0.75" fill-rule="evenodd" clip-rule="evenodd" d="M23 11.9087C22.9999 12.6435 22.9708 13.3775 22.9127 14.1108C19.9577 15.6865 16.8575 19.8496 16.8575 19.8496L7.63691 14.9636C7.63691 14.9636 12.7279 6.63473 19.7912 2.92754C20.882 3.75986 21.6799 4.87263 22.185 6.26586C22.6119 7.50549 22.8639 8.78021 22.9411 10.09C22.9803 10.6946 22.9999 11.2988 23 11.9024C23 11.9045 23 11.9066 23 11.9087Z" fill="white"/>
<path d="M6.73189 14.9114L8.25895 11.9737C8.89298 10.7536 10.3481 10.3024 11.5203 10.9629C12.4732 11.4998 13.0071 12.7498 13.9605 13.2867C14.8882 13.809 16.2355 13.6189 17.1636 14.1416C18.3362 14.8022 18.769 16.3164 18.135 17.537L16.6079 20.4746C15.9735 21.6947 14.5187 22.146 13.3466 21.4858C12.4095 20.9575 11.8439 19.6895 10.9064 19.1616C9.96239 18.6299 8.64725 18.8384 7.70327 18.3067C6.53068 17.6461 6.09786 16.1319 6.73189 14.9114Z" fill="#F5C211"/>
<path d="M9.66486 14.315C9.97578 14.315 10.2278 14.1596 10.2278 13.9678C10.2278 13.7761 9.97578 13.6206 9.66486 13.6206C9.35394 13.6206 9.1019 13.7761 9.1019 13.9678C9.1019 14.1596 9.35394 14.315 9.66486 14.315Z" fill="#E5A50A"/>
<path d="M12.6132 14.0081C12.9956 14.0081 13.3055 13.8369 13.3055 13.6258C13.3055 13.4146 12.9956 13.2435 12.6132 13.2435C12.2309 13.2435 11.921 13.4146 11.921 13.6258C11.921 13.8369 12.2309 14.0081 12.6132 14.0081Z" fill="#E5A50A"/>
<path d="M11.0823 16.9487C11.5122 16.9487 11.8606 16.7433 11.8606 16.4898C11.8606 16.2363 11.5122 16.0309 11.0823 16.0309C10.6525 16.0309 10.304 16.2363 10.304 16.4898C10.304 16.7433 10.6525 16.9487 11.0823 16.9487Z" fill="#E5A50A"/>
<path d="M14.5192 16.1323C14.9488 16.1323 15.2971 15.9372 15.2971 15.6965C15.2971 15.4558 14.9488 15.2607 14.5192 15.2607C14.0896 15.2607 13.7413 15.4558 13.7413 15.6965C13.7413 15.9372 14.0896 16.1323 14.5192 16.1323Z" fill="#E5A50A"/>
<path d="M8.05003 16.3751C8.36899 16.3751 8.62755 16.2087 8.62755 16.0035C8.62755 15.7982 8.36899 15.6319 8.05003 15.6319C7.73108 15.6319 7.47252 15.7982 7.47252 16.0035C7.47252 16.2087 7.73108 16.3751 8.05003 16.3751Z" fill="#E5A50A"/>
<path d="M10.453 12.9044C10.7885 12.9044 11.0605 12.7348 11.0605 12.5255C11.0605 12.3163 10.7885 12.1466 10.453 12.1466C10.1175 12.1466 9.84552 12.3163 9.84552 12.5255C9.84552 12.7348 10.1175 12.9044 10.453 12.9044Z" fill="#E5A50A"/>
<path d="M14.0598 19.4506C14.5126 19.4506 14.8796 19.197 14.8796 18.8842C14.8796 18.5714 14.5126 18.3178 14.0598 18.3178C13.607 18.3178 13.24 18.5714 13.24 18.8842C13.24 19.197 13.607 19.4506 14.0598 19.4506Z" fill="#E5A50A"/>
<path d="M13.0358 17.3229C13.2855 17.3229 13.4879 17.1826 13.4879 17.0095C13.4879 16.8364 13.2855 16.6961 13.0358 16.6961C12.7861 16.6961 12.5837 16.8364 12.5837 17.0095C12.5837 17.1826 12.7861 17.3229 13.0358 17.3229Z" fill="#E5A50A"/>
<path d="M16.7954 17.4008C17.1215 17.4008 17.3858 17.2406 17.3858 17.0429C17.3858 16.8452 17.1215 16.685 16.7954 16.685C16.4694 16.685 16.2051 16.8452 16.2051 17.0429C16.2051 17.2406 16.4694 17.4008 16.7954 17.4008Z" fill="#E5A50A"/>
<path d="M9.82454 18.4856C10.1227 18.4856 10.3644 18.3557 10.3644 18.1954C10.3644 18.0351 10.1227 17.9051 9.82454 17.9051C9.5264 17.9051 9.2847 18.0351 9.2847 18.1954C9.2847 18.3557 9.5264 18.4856 9.82454 18.4856Z" fill="#E5A50A"/>
<path d="M16.7548 14.6785C16.9891 14.6785 17.179 14.5744 17.179 14.446C17.179 14.3176 16.9891 14.2135 16.7548 14.2135C16.5204 14.2135 16.3305 14.3176 16.3305 14.446C16.3305 14.5744 16.5204 14.6785 16.7548 14.6785Z" fill="#E5A50A"/>
<path d="M13.8556 21.4259C14.1795 21.4259 14.4421 21.2963 14.4421 21.1365C14.4421 20.9767 14.1795 20.8471 13.8556 20.8471C13.5317 20.8471 13.2691 20.9767 13.2691 21.1365C13.2691 21.2963 13.5317 21.4259 13.8556 21.4259Z" fill="#E5A50A"/>
<defs>
<radialGradient id="paint0_radial_6_179" cx="0" cy="0" r="1" gradientUnits="userSpaceOnUse" gradientTransform="translate(12 1) rotate(90) scale(22)">
<stop stop-color="#FAFAFA"/>
<stop offset="1" stop-color="#CCCCCC"/>
</radialGradient>
</defs>
</svg>
