<?xml version="1.0" encoding="UTF-8" standalone="no"?>
<!-- Created with Inkscape (http://www.inkscape.org/) -->

<svg
   width="128mm"
   height="127.99948mm"
   viewBox="0 0 128 127.99948"
   version="1.1"
   id="svg5"
   xml:space="preserve"
   xmlns:inkscape="http://www.inkscape.org/namespaces/inkscape"
   xmlns:sodipodi="http://sodipodi.sourceforge.net/DTD/sodipodi-0.dtd"
   xmlns:xlink="http://www.w3.org/1999/xlink"
   xmlns="http://www.w3.org/2000/svg"
   xmlns:svg="http://www.w3.org/2000/svg"><sodipodi:namedview
     id="namedview7"
     pagecolor="#ffffff"
     bordercolor="#000000"
     borderopacity="0.25"
     inkscape:showpageshadow="2"
     inkscape:pageopacity="0.0"
     inkscape:pagecheckerboard="0"
     inkscape:deskcolor="#d1d1d1"
     inkscape:document-units="mm"
     showgrid="false" /><defs
     id="defs2"><linearGradient
       inkscape:collect="always"
       id="linearGradient8914"><stop
         style="stop-color:#2581b0;stop-opacity:1"
         offset="0"
         id="stop8910" /><stop
         style="stop-color:#d5f6ff;stop-opacity:1"
         offset="1"
         id="stop8912" /></linearGradient><style
       type="text/css"
       id="current-color-scheme">
      .ColorScheme-Text {
        color:#31363b;
      }
      .ColorScheme-Background {
        color:#eff0f1;
      }
      .ColorScheme-Highlight {
        color:#3daee9;
      }
      .ColorScheme-ViewText {
        color:#31363b;
      }
      .ColorScheme-ViewBackground {
        color:#fcfcfc;
      }
      .ColorScheme-ViewHover {
        color:#93cee9;
      }
      .ColorScheme-ViewFocus{
        color:#3daee9;
      }
      .ColorScheme-ButtonText {
        color:#31363b;
      }
      .ColorScheme-ButtonBackground {
        color:#eff0f1;
      }
      .ColorScheme-ButtonHover {
        color:#93cee9;
      }
      .ColorScheme-ButtonFocus{
        color:#3daee9;
      }
      </style><style
       type="text/css"
       id="current-color-scheme-9">
      .ColorScheme-Text {
        color:#31363b;
      }
      .ColorScheme-Background {
        color:#eff0f1;
      }
      .ColorScheme-Highlight {
        color:#3daee9;
      }
      .ColorScheme-ViewText {
        color:#31363b;
      }
      .ColorScheme-ViewBackground {
        color:#fcfcfc;
      }
      .ColorScheme-ViewHover {
        color:#93cee9;
      }
      .ColorScheme-ViewFocus{
        color:#3daee9;
      }
      .ColorScheme-ButtonText {
        color:#31363b;
      }
      .ColorScheme-ButtonBackground {
        color:#eff0f1;
      }
      .ColorScheme-ButtonHover {
        color:#93cee9;
      }
      .ColorScheme-ButtonFocus{
        color:#3daee9;
      }
      </style><style
       type="text/css"
       id="current-color-scheme-2">
      .ColorScheme-Text {
        color:#31363b;
      }
      .ColorScheme-Background {
        color:#eff0f1;
      }
      .ColorScheme-Highlight {
        color:#3daee9;
      }
      .ColorScheme-ViewText {
        color:#31363b;
      }
      .ColorScheme-ViewBackground {
        color:#fcfcfc;
      }
      .ColorScheme-ViewHover {
        color:#93cee9;
      }
      .ColorScheme-ViewFocus{
        color:#3daee9;
      }
      .ColorScheme-ButtonText {
        color:#31363b;
      }
      .ColorScheme-ButtonBackground {
        color:#eff0f1;
      }
      .ColorScheme-ButtonHover {
        color:#93cee9;
      }
      .ColorScheme-ButtonFocus{
        color:#3daee9;
      }
      </style><style
       type="text/css"
       id="current-color-scheme-3">
      .ColorScheme-Text {
        color:#31363b;
      }
      .ColorScheme-Background {
        color:#eff0f1;
      }
      .ColorScheme-Highlight {
        color:#3daee9;
      }
      .ColorScheme-ViewText {
        color:#31363b;
      }
      .ColorScheme-ViewBackground {
        color:#fcfcfc;
      }
      .ColorScheme-ViewHover {
        color:#93cee9;
      }
      .ColorScheme-ViewFocus{
        color:#3daee9;
      }
      .ColorScheme-ButtonText {
        color:#31363b;
      }
      .ColorScheme-ButtonBackground {
        color:#eff0f1;
      }
      .ColorScheme-ButtonHover {
        color:#93cee9;
      }
      .ColorScheme-ButtonFocus{
        color:#3daee9;
      }
      </style><style
       type="text/css"
       id="current-color-scheme-97">
      .ColorScheme-Text {
        color:#31363b;
      }
      .ColorScheme-Background {
        color:#eff0f1;
      }
      .ColorScheme-Highlight {
        color:#3daee9;
      }
      .ColorScheme-ViewText {
        color:#31363b;
      }
      .ColorScheme-ViewBackground {
        color:#fcfcfc;
      }
      .ColorScheme-ViewHover {
        color:#93cee9;
      }
      .ColorScheme-ViewFocus{
        color:#3daee9;
      }
      .ColorScheme-ButtonText {
        color:#31363b;
      }
      .ColorScheme-ButtonBackground {
        color:#eff0f1;
      }
      .ColorScheme-ButtonHover {
        color:#93cee9;
      }
      .ColorScheme-ButtonFocus{
        color:#3daee9;
      }
      </style><style
       type="text/css"
       id="current-color-scheme-7">
      .ColorScheme-Text {
        color:#31363b;
      }
      .ColorScheme-Background {
        color:#eff0f1;
      }
      .ColorScheme-Highlight {
        color:#3daee9;
      }
      .ColorScheme-ViewText {
        color:#31363b;
      }
      .ColorScheme-ViewBackground {
        color:#fcfcfc;
      }
      .ColorScheme-ViewHover {
        color:#93cee9;
      }
      .ColorScheme-ViewFocus{
        color:#3daee9;
      }
      .ColorScheme-ButtonText {
        color:#31363b;
      }
      .ColorScheme-ButtonBackground {
        color:#eff0f1;
      }
      .ColorScheme-ButtonHover {
        color:#93cee9;
      }
      .ColorScheme-ButtonFocus{
        color:#3daee9;
      }
      </style><style
       type="text/css"
       id="current-color-scheme-9-0">
      .ColorScheme-Text {
        color:#31363b;
      }
      .ColorScheme-Background {
        color:#eff0f1;
      }
      .ColorScheme-Highlight {
        color:#3daee9;
      }
      .ColorScheme-ViewText {
        color:#31363b;
      }
      .ColorScheme-ViewBackground {
        color:#fcfcfc;
      }
      .ColorScheme-ViewHover {
        color:#93cee9;
      }
      .ColorScheme-ViewFocus{
        color:#3daee9;
      }
      .ColorScheme-ButtonText {
        color:#31363b;
      }
      .ColorScheme-ButtonBackground {
        color:#eff0f1;
      }
      .ColorScheme-ButtonHover {
        color:#93cee9;
      }
      .ColorScheme-ButtonFocus{
        color:#3daee9;
      }
      </style><style
       type="text/css"
       id="current-color-scheme-2-9">
      .ColorScheme-Text {
        color:#31363b;
      }
      .ColorScheme-Background {
        color:#eff0f1;
      }
      .ColorScheme-Highlight {
        color:#3daee9;
      }
      .ColorScheme-ViewText {
        color:#31363b;
      }
      .ColorScheme-ViewBackground {
        color:#fcfcfc;
      }
      .ColorScheme-ViewHover {
        color:#93cee9;
      }
      .ColorScheme-ViewFocus{
        color:#3daee9;
      }
      .ColorScheme-ButtonText {
        color:#31363b;
      }
      .ColorScheme-ButtonBackground {
        color:#eff0f1;
      }
      .ColorScheme-ButtonHover {
        color:#93cee9;
      }
      .ColorScheme-ButtonFocus{
        color:#3daee9;
      }
      </style><style
       type="text/css"
       id="current-color-scheme-3-3">
      .ColorScheme-Text {
        color:#31363b;
      }
      .ColorScheme-Background {
        color:#eff0f1;
      }
      .ColorScheme-Highlight {
        color:#3daee9;
      }
      .ColorScheme-ViewText {
        color:#31363b;
      }
      .ColorScheme-ViewBackground {
        color:#fcfcfc;
      }
      .ColorScheme-ViewHover {
        color:#93cee9;
      }
      .ColorScheme-ViewFocus{
        color:#3daee9;
      }
      .ColorScheme-ButtonText {
        color:#31363b;
      }
      .ColorScheme-ButtonBackground {
        color:#eff0f1;
      }
      .ColorScheme-ButtonHover {
        color:#93cee9;
      }
      .ColorScheme-ButtonFocus{
        color:#3daee9;
      }
      </style><style
       type="text/css"
       id="current-color-scheme-97-6">
      .ColorScheme-Text {
        color:#31363b;
      }
      .ColorScheme-Background {
        color:#eff0f1;
      }
      .ColorScheme-Highlight {
        color:#3daee9;
      }
      .ColorScheme-ViewText {
        color:#31363b;
      }
      .ColorScheme-ViewBackground {
        color:#fcfcfc;
      }
      .ColorScheme-ViewHover {
        color:#93cee9;
      }
      .ColorScheme-ViewFocus{
        color:#3daee9;
      }
      .ColorScheme-ButtonText {
        color:#31363b;
      }
      .ColorScheme-ButtonBackground {
        color:#eff0f1;
      }
      .ColorScheme-ButtonHover {
        color:#93cee9;
      }
      .ColorScheme-ButtonFocus{
        color:#3daee9;
      }
      </style><style
       type="text/css"
       id="current-color-scheme-6">
      .ColorScheme-Text {
        color:#31363b;
      }
      .ColorScheme-Background {
        color:#eff0f1;
      }
      .ColorScheme-Highlight {
        color:#3daee9;
      }
      .ColorScheme-ViewText {
        color:#31363b;
      }
      .ColorScheme-ViewBackground {
        color:#fcfcfc;
      }
      .ColorScheme-ViewHover {
        color:#93cee9;
      }
      .ColorScheme-ViewFocus{
        color:#3daee9;
      }
      .ColorScheme-ButtonText {
        color:#31363b;
      }
      .ColorScheme-ButtonBackground {
        color:#eff0f1;
      }
      .ColorScheme-ButtonHover {
        color:#93cee9;
      }
      .ColorScheme-ButtonFocus{
        color:#3daee9;
      }
      </style><linearGradient
       inkscape:collect="always"
       xlink:href="#linearGradient8914"
       id="linearGradient8916"
       x1="214.11655"
       y1="-35.744621"
       x2="214.11655"
       y2="657.64966"
       gradientUnits="userSpaceOnUse" /><linearGradient
       inkscape:collect="always"
       xlink:href="#linearGradient8914"
       id="linearGradient10813"
       gradientUnits="userSpaceOnUse"
       x1="214.11655"
       y1="-35.744621"
       x2="214.11655"
       y2="657.64966" /><linearGradient
       inkscape:collect="always"
       xlink:href="#linearGradient8914"
       id="linearGradient10815"
       gradientUnits="userSpaceOnUse"
       x1="214.11655"
       y1="-35.744621"
       x2="214.11655"
       y2="657.64966" /><linearGradient
       inkscape:collect="always"
       xlink:href="#linearGradient8914"
       id="linearGradient10817"
       gradientUnits="userSpaceOnUse"
       x1="214.11655"
       y1="-35.744621"
       x2="214.11655"
       y2="657.64966" /></defs><g
     inkscape:label="Camada 1"
     inkscape:groupmode="layer"
     id="layer1"
     transform="translate(-41.000001,-84.500272)"><g
       id="g244"
       transform="matrix(-0.28676179,0,0,-0.28676181,169.00002,212.49981)"
       style="fill:url(#linearGradient8916);fill-opacity:1"
       inkscape:export-filename="a.svg"
       inkscape:export-xdpi="25.400002"
       inkscape:export-ydpi="25.400002"><g
         id="g246"
         style="fill:url(#linearGradient10817);fill-opacity:1"><g
           id="g252"
           style="fill:url(#linearGradient10815);fill-opacity:1"><path
             d="m 174.406,2.305 c 2.434,0.027 4.758,-0.285 6.973,-0.93 29.133,-1.906 58.258,-1.832 87.387,0.234 26.41,2.055 51.976,7.786 76.699,17.188 41.097,16.922 69.219,46.269 84.363,88.043 8.66,25.152 13.774,51.015 15.34,77.59 2.164,33.371 1.391,66.668 -2.324,99.89 -2.782,23.352 -8.824,45.805 -18.129,67.368 -17.258,37.382 -45.223,63.167 -83.899,77.355 -31.343,10.59 -63.57,16.164 -96.687,16.723 -37.246,1.937 -74.121,-0.848 -110.625,-8.36 C 66.312,422.438 24.867,381.477 9.164,314.52 2.496,284.375 -0.523,253.867 0.098,222.992 -0.645,190.16 2.84,157.793 10.559,125.891 27.02,63.285 66.762,24.488 129.785,9.508 144.469,5.914 159.344,3.516 174.406,2.305 Z"
             style="fill:url(#linearGradient10813);fill-opacity:1;fill-rule:evenodd;stroke:none"
             id="path260" /></g></g></g><g
       id="g10745"
       transform="matrix(2.0347873,0,0,2.0347873,-595.36725,-347.04087)"><path
         d="m 324.942,227.84129 c -0.16018,-0.0237 -0.33815,0.10679 -0.55172,0.33815 -0.34408,0.38561 -0.41527,1.39413 -0.53392,6.92911 a 136.80232,136.80232 0 0 0 -0.0415,6.67994 c 0.2551,0.62884 3.1442,-0.53986 4.17051,-1.69075 l 0.51613,-0.57545 -0.63478,-1.21022 c -0.40934,-0.78308 -0.87207,-2.53316 -1.32887,-4.99512 -0.74155,-3.98068 -1.10343,-5.4104 -1.59582,-5.47566 z m 38.73297,0 c -0.14831,-0.0297 -0.32629,0.12459 -0.55765,0.38561 -0.33815,0.38561 -0.65257,1.51871 -1.06191,3.87389 -0.68817,3.94508 -1.14497,5.60024 -1.79753,6.53756 -0.26103,0.37968 -0.41528,0.86021 -0.35002,1.06785 0.17797,0.54578 1.19836,1.24581 2.59841,1.79753 1.44752,0.56358 1.95771,0.60511 2.07636,0.15424 0.0534,-0.1839 -0.0178,-3.25098 -0.14831,-6.82232 -0.19577,-5.22055 -0.32628,-6.9113 -0.75935,-6.99436 z m -26.11465,7.8427 a 2.7407923,2.7407923 0 0 0 -1.37633,0.36782 c -0.51019,0.28475 -2.41451,2.05856 -4.22391,3.93914 -2.75265,2.86538 -3.55947,3.53574 -4.92393,4.08153 -2.13568,0.85427 -3.93915,1.06191 -5.41633,0.61697 -2.01703,-0.60511 -3.10267,0.52206 -2.23653,2.31366 0.82461,1.70855 4.11712,3.25692 8.4834,3.98661 6.06297,1.00851 10.08517,0.0712 14.34467,-3.35777 0.81275,-0.6585 1.72041,-1.19835 2.01703,-1.19835 0.28476,0 1.27548,0.60511 2.19501,1.34666 2.18314,1.75601 3.25098,2.31366 5.83753,3.08488 1.83906,0.53392 2.56282,0.59324 5.14937,0.439 5.44599,-0.34408 9.09445,-1.48905 11.01063,-3.47642 0.64663,-0.67037 0.88987,-1.18649 0.88987,-1.88059 0,-1.38819 -0.75343,-1.74414 -2.66961,-1.25174 a 5.4103951,5.4103951 0 0 1 -2.98995,0.0475 c -2.87131,-0.64664 -4.17052,-1.53058 -7.51642,-5.12564 -4.15865,-4.4612 -4.40781,-4.55612 -8.41221,-3.05521 -1.5899,0.59324 -3.22726,1.09157 -3.6366,1.09157 -0.41527,0 -1.67295,-0.39748 -2.80604,-0.878 -1.76194,-0.75343 -2.86538,-1.09158 -3.71965,-1.09158 z m 26.69603,17.26937 a 3.0255499,3.0255499 0 0 0 -0.38561,0.0771 c -1.95771,0.50426 -3.98068,0.78308 -6.9291,0.93733 l -3.22133,0.17797 -0.083,1.85686 c -0.0712,1.67295 -0.0119,1.92804 0.59325,2.55095 0.6229,0.64071 0.85427,0.68817 3.16792,0.6763 2.60435,-0.0119 4.15272,-0.39747 5.10784,-1.26954 0.70597,-0.64664 2.09416,-3.60693 2.09416,-4.46714 0,-0.42713 -0.0475,-0.56358 -0.34408,-0.53392 z m -40.44152,0.0237 c -0.083,0.089 0.0653,0.88987 0.32628,1.78567 0.56952,1.96364 1.7916,3.48828 3.25099,4.04593 1.44752,0.55765 5.30954,0.56358 6.2884,0.0119 0.78308,-0.439 1.0975,-1.36446 1.0975,-3.23318 0,-1.83906 -0.0593,-1.88059 -3.04928,-1.88059 -1.50091,0 -3.85609,-0.2017 -5.25022,-0.44493 -1.38819,-0.2373 -2.58655,-0.36782 -2.6696,-0.28476 z"
         fill="#ffffff"
         id="path10141"
         style="stroke-width:5.93245" /></g></g></svg>
