<svg width="24" height="24" viewBox="0 0 24 24" fill="none" xmlns="http://www.w3.org/2000/svg">
<path fill-rule="evenodd" clip-rule="evenodd" d="M21 4.1113C20.2428 3.15905 19.2518 2.43079 18.0269 1.9265C16.8085 1.46308 15.5484 1.18066 14.2467 1.07924C13.501 1.02641 12.7551 1 12.0093 1C11.3195 1 10.6296 1.0226 9.93969 1.06779C9.83043 1.0996 9.71588 1.11486 9.59604 1.11359C8.8536 1.17326 8.12049 1.29157 7.39669 1.46852C4.2905 2.20701 2.33171 4.11908 1.52031 7.20471C1.14 8.77709 0.968176 10.3724 1.00483 11.9906C0.974199 13.5124 1.12311 15.0161 1.45158 16.5017C1.90753 18.4457 2.80376 19.9452 4.14026 21H17.7702C19.554 21 21 19.6228 21 17.924V4.1113Z" fill="#D35F5F"/>
<path opacity="0.625" fill-rule="evenodd" clip-rule="evenodd" d="M18.3125 21.9379C18.1454 22.0122 17.9739 22.0817 17.7978 22.1463C16.2531 22.6682 14.6647 22.943 13.0325 22.9706C11.1966 23.0661 9.37913 22.9287 7.57997 22.5585C6.16376 22.243 4.97959 21.6932 4.02747 20.9091C4.00925 20.7742 4.00021 20.638 4.00053 20.5013V6.99964C4.00053 5.33851 5.33709 4.00053 6.99964 4.00053H20.5013C20.6489 4.00053 20.7938 4.01108 20.9356 4.03148C21.4608 4.67215 21.8773 5.41694 22.185 6.26586C22.6119 7.50549 22.8639 8.78021 22.9411 10.09C23.0478 11.7347 23.0096 13.3758 22.8265 15.0133C22.6906 16.1544 22.3967 17.2521 21.9447 18.3064L18.3125 21.9379Z" fill="#E5E5E5"/>
<path fill-rule="evenodd" clip-rule="evenodd" d="M22.6674 16C22.5039 16.8002 22.2591 17.5781 21.933 18.3336C21.0824 20.1761 19.704 21.447 17.7978 22.1463C17.205 22.3466 16.6057 22.5105 16 22.638L16 20.8879C16 18.1806 18.1783 16 20.8879 16L22.6674 16Z" fill="white"/>
<path d="M6.99965 5.12449C6.75324 5.12393 6.50915 5.17205 6.28139 5.26609C6.05363 5.36012 5.8467 5.49822 5.67246 5.67246C5.49822 5.8467 5.36012 6.05363 5.26609 6.28139C5.17205 6.50915 5.12393 6.75324 5.12449 6.99965V20.4999C5.12449 21.5388 5.96073 22.3751 6.99965 22.3751H17V21.9995H6.99965C6.80262 21.9998 6.60745 21.9613 6.42535 21.8861C6.24325 21.8109 6.07779 21.7004 5.93847 21.5611C5.79914 21.4218 5.6887 21.2563 5.61347 21.0742C5.53825 20.8921 5.49972 20.6969 5.50009 20.4999V6.99965C5.50009 6.16908 6.16908 5.50009 6.99965 5.50009H20.4999C21.3305 5.50009 21.9995 6.16908 21.9995 6.99965V16.751H22.3751V6.99965C22.3756 6.75324 22.3275 6.50915 22.2335 6.28139C22.1394 6.05363 22.0013 5.8467 21.8271 5.67246C21.6529 5.49822 21.4459 5.36012 21.2182 5.26609C20.9904 5.17205 20.7463 5.12393 20.4999 5.12449H6.99965Z" fill="white"/>
<path d="M8 7.5H17.3062V8.75327H13.4009V18.5H11.9052V8.75327H8V7.5Z" fill="white"/>
</svg>
