<?xml version="1.0" encoding="UTF-8" standalone="no"?>
<svg
   width="24"
   height="24"
   viewBox="0 0 24 24"
   fill="none"
   version="1.1"
   id="svg154"
   sodipodi:docname="frostwire.svg"
   inkscape:version="1.2.2 (b0a8486541, 2022-12-01)"
   xmlns:inkscape="http://www.inkscape.org/namespaces/inkscape"
   xmlns:sodipodi="http://sodipodi.sourceforge.net/DTD/sodipodi-0.dtd"
   xmlns:xlink="http://www.w3.org/1999/xlink"
   xmlns="http://www.w3.org/2000/svg"
   xmlns:svg="http://www.w3.org/2000/svg"
   xmlns:sketch="http://www.bohemiancoding.com/sketch/ns">
  <sodipodi:namedview
     id="namedview156"
     pagecolor="#ffffff"
     bordercolor="#000000"
     borderopacity="1"
     inkscape:showpageshadow="0"
     inkscape:pageopacity="1"
     inkscape:pagecheckerboard="false"
     inkscape:deskcolor="#ffffff"
     showgrid="true"
     inkscape:zoom="16"
     inkscape:cx="9.09375"
     inkscape:cy="9.96875"
     inkscape:window-width="1920"
     inkscape:window-height="1052"
     inkscape:window-x="0"
     inkscape:window-y="0"
     inkscape:window-maximized="1"
     inkscape:current-layer="svg154"
     showguides="true"
     guidecolor="#ff0000"
     guideopacity="1"
     inkscape:lockguides="true"
     showborder="true"
     borderlayer="true">
    <inkscape:grid
       type="xygrid"
       id="grid356"
       color="#000000"
       opacity="0.10196078"
       empcolor="#000000"
       empopacity="0.10196078"
       snapvisiblegridlinesonly="true"
       enabled="true"
       visible="true"
       dotted="false" />
    <sodipodi:guide
       position="4.003125,23.042969"
       orientation="1,0"
       id="guide764"
       inkscape:locked="true" />
    <sodipodi:guide
       position="5.0007813,21.049219"
       orientation="1,0"
       id="guide2218"
       inkscape:locked="true" />
    <sodipodi:guide
       position="3.6445312,20"
       orientation="0,-1"
       id="guide2220"
       inkscape:locked="true" />
    <sodipodi:guide
       position="3.796875,5"
       orientation="0,-1"
       id="guide2222"
       inkscape:locked="true" />
    <sodipodi:guide
       position="3.625,4"
       orientation="0,-1"
       id="guide2224"
       inkscape:locked="true" />
    <sodipodi:guide
       position="19,4.8984375"
       orientation="1,0"
       id="guide2226"
       inkscape:locked="true" />
    <sodipodi:guide
       position="20,3.3312502"
       orientation="1,0"
       id="guide2228"
       inkscape:locked="true" />
    <sodipodi:guide
       position="22.875,19"
       orientation="0,-1"
       id="guide2230"
       inkscape:locked="true" />
  </sodipodi:namedview>
  <defs
     id="defs152">
    <radialGradient
       id="radialGradient1281"
       cx="0"
       cy="0"
       r="1"
       gradientUnits="userSpaceOnUse"
       gradientTransform="translate(12 1) rotate(90) scale(22)">
      <stop
         stop-color="#8FC8FF"
         id="stop1277"
         offset="0.00424011"
         style="stop-color:#3aa5ff;stop-opacity:1;" />
      <stop
         offset="0.99575949"
         stop-color="#0056A8"
         id="stop1279"
         style="stop-color:#3aa5ff;stop-opacity:1;" />
    </radialGradient>
    <radialGradient
       id="paint0_radial_29_23"
       cx="0"
       cy="0"
       r="1"
       gradientUnits="userSpaceOnUse"
       gradientTransform="translate(12 1) rotate(90) scale(22)">
      <stop
         stop-color="#8FC8FF"
         id="stop147"
         offset="0"
         style="stop-color:#f6f6f6;stop-opacity:1;" />
      <stop
         offset="1"
         stop-color="#0056A8"
         id="stop149"
         style="stop-color:#cfcfcf;stop-opacity:1;" />
    </radialGradient>
    <radialGradient
       inkscape:collect="always"
       xlink:href="#radialGradient1281"
       id="radialGradient1161"
       gradientUnits="userSpaceOnUse"
       gradientTransform="matrix(3.9045581e-8,90.059469,-90.006811,0,-107.36954,-11.19048)"
       cx="0.17911513"
       cy="-1.7483425"
       r="1"
       fx="0.17911513"
       fy="-1.7483425" />
    <radialGradient
       id="paint0_radial_10_2"
       cx="0"
       cy="0"
       r="1"
       gradientUnits="userSpaceOnUse"
       gradientTransform="matrix(-10.999959,21.999967,-21.999967,-10.999959,17.5,1)"
       xlink:href="#paint0_radial_29_23">
      <stop
         stop-color="#777777"
         id="stop2847" />
      <stop
         offset="1"
         stop-color="#222222"
         id="stop2849" />
    </radialGradient>
    <linearGradient
       x1="12"
       y1="1"
       x2="12"
       y2="23"
       gradientUnits="userSpaceOnUse"
       gradientTransform="matrix(0.75,0,0,0.75,-7.98374e-6,2.65834e-5)"
       spreadMethod="pad"
       id="linearGradient44915">
      <stop
         style="stop-opacity:1;stop-color:#ff5f5f"
         offset="0"
         id="stop44911" />
      <stop
         style="stop-opacity:1;stop-color:#e82e34"
         offset="1"
         id="stop44913" />
    </linearGradient>
  </defs>
  <path
     d="M 50,5 C 9.0909092,5 5,25.454546 5,50 5,82.727274 17.272728,95 50,95 82.727274,95 95,82.727274 95,50 95,25.454546 90.909093,5 50,5 Z"
     sketch:type="MSShapeGroup"
     id="path6"
     style="font-variation-settings:normal;display:inline;opacity:1;vector-effect:none;fill:url(#radialGradient1161);fill-opacity:1;stroke-width:4.56656;stroke-linecap:butt;stroke-linejoin:miter;stroke-miterlimit:4;stroke-dasharray:none;stroke-dashoffset:0;stroke-opacity:1;-inkscape-stroke:none;stop-color:#000000;stop-opacity:1"
     sodipodi:nodetypes="sssss"
     inkscape:label="Shape"
     transform="matrix(0.24444444,0,0,0.24444444,-0.22222222,-0.22222222)"
     sodipodi:insensitive="true" />
  <g
     inkscape:groupmode="layer"
     id="layer4"
     inkscape:label="Colors References"
     style="display:inline"
     sodipodi:insensitive="true"
     inkscape:highlight-color="#cc5ecc">
    <rect
       style="display:inline;fill:#3947be;fill-opacity:1;stroke-width:22.6872;paint-order:markers stroke fill"
       id="rect7816"
       width="1.9999923"
       height="2"
       x="12"
       y="-2.9999964"
       rx="0"
       ry="0"
       inkscape:label="Dark Blue" />
    <rect
       style="display:inline;fill:#6c7ad8;fill-opacity:1;stroke-width:22.6873;paint-order:markers stroke fill"
       id="rect7820"
       width="2"
       height="2.0000076"
       x="9"
       y="-3.0000041"
       rx="0"
       ry="0"
       inkscape:label="Blue" />
    <rect
       style="display:inline;fill:#33cc33;fill-opacity:1;stroke-width:22.6873;paint-order:markers stroke fill"
       id="rect7814"
       width="2"
       height="2.0000076"
       x="6"
       y="-3.0000041"
       rx="0"
       ry="0"
       inkscape:label="Green" />
    <rect
       style="display:inline;fill:#ffc328;fill-opacity:1;stroke-width:22.6872;paint-order:markers stroke fill"
       id="rect7824"
       width="1.9999926"
       height="2.0000002"
       x="3"
       y="-2.9999964"
       rx="0"
       ry="0"
       inkscape:label="Yellow" />
    <rect
       style="display:inline;fill:#cc5e55;fill-opacity:1;stroke-width:22.6873;paint-order:markers stroke fill"
       id="rect7822"
       width="2"
       height="2.0000076"
       x="0"
       y="-3.0000038"
       rx="0"
       ry="0"
       inkscape:label="Red" />
    <rect
       style="display:inline;fill:#0bb1cb;fill-opacity:1;stroke-width:22.6872;paint-order:markers stroke fill"
       id="rect3087"
       width="1.9999919"
       height="1.9999996"
       x="-3"
       y="12.000004"
       rx="0"
       ry="0"
       inkscape:label="Blue 4" />
    <rect
       style="display:inline;fill:#2a92c9;fill-opacity:1;stroke-width:22.6873;paint-order:markers stroke fill"
       id="rect3085"
       width="2"
       height="2.0000079"
       x="-3"
       y="8.9999962"
       rx="0"
       ry="0"
       inkscape:label="Blue 3" />
    <rect
       style="display:inline;fill:#006699;fill-opacity:1;stroke-width:22.6873;paint-order:markers stroke fill"
       id="rect3089"
       width="2"
       height="2.0000076"
       x="-3"
       y="6.0000038"
       rx="0"
       ry="0"
       inkscape:label="Blue 2" />
    <rect
       style="display:inline;fill:#002a44;fill-opacity:1;stroke-width:22.6873;paint-order:markers stroke fill"
       id="rect3083"
       width="2"
       height="2.0000076"
       x="-3"
       y="2.9999962"
       rx="0"
       ry="0"
       inkscape:label="Blue 1" />
    <rect
       style="display:inline;fill:#2c2d3d;fill-opacity:1;stroke-width:22.6873;paint-order:markers stroke fill"
       id="rect3456"
       width="2"
       height="2.0000076"
       x="-3"
       y="-3.8146973e-06"
       rx="0"
       ry="0"
       inkscape:label="Gray" />
    <rect
       style="display:inline;fill:#16171c;fill-opacity:1;stroke-width:22.6872;paint-order:markers stroke fill"
       id="rect3091"
       width="1.9999924"
       height="2"
       x="-3"
       y="-3"
       rx="0"
       ry="0"
       inkscape:label="Black" />
  </g>
  <g
     id="g38318"
     transform="matrix(0.24663631,0,0,0.24663631,4.1075549,4.1058046)">
    <g
       stroke-width="0.741"
       id="g38157">
      <g
         color="#000000"
         id="g38155">
        <path
           d="m 44.053,34.996 a 1,1 0 0 0 -0.129,0.008 c 0,0 -1.437,0.13 -3.135,0.521 -1.698,0.391 -3.688,0.973 -4.982,2.268 -0.347,0.347 -0.68,0.632 -1.012,0.92 -1.217,-0.866 -2.404,-1.436 -3.566,-1.691 a 1,1 0 0 0 -0.215,-0.024 h -0.33 l -0.875,2 h 1.043 c 0.676,0.156 1.437,0.483 2.262,1.002 -0.827,0.52 -1.59,0.845 -2.266,1 h -1.916 l -0.875,2 h 2.957 a 1,1 0 0 0 0.215,-0.023 c 1.163,-0.256 2.35,-0.823 3.568,-1.69 0.333,0.288 0.664,0.572 1.01,0.918 1.295,1.295 3.284,1.876 4.982,2.268 a 25.97,25.97 0 0 0 3.135,0.521 1.000058,1.000058 0 0 0 0.18,-1.992 c 0,0 -1.313,-0.12 -2.865,-0.478 -1.552,-0.358 -3.312,-1.027 -4.018,-1.733 -0.28,-0.28 -0.556,-0.54 -0.832,-0.79 a 23.1,23.1 0 0 0 0.832,-0.794 c 0.705,-0.705 2.466,-1.376 4.018,-1.734 a 23.99,23.99 0 0 1 2.865,-0.479 1,1 0 0 0 -0.05,-1.998 z M 3.99,34.998 a 1,1 0 0 0 -0.082,1.996 c 0,0 1.313,0.12 2.865,0.479 1.552,0.358 3.315,1.029 4.02,1.734 0.28,0.28 0.558,0.543 0.834,0.793 -0.276,0.25 -0.554,0.511 -0.834,0.791 -0.705,0.705 -2.468,1.374 -4.02,1.732 a 23.99,23.99 0 0 1 -2.865,0.479 1.0001485,1.0001485 0 0 0 0.182,1.992 c 0,0 1.437,-0.13 3.135,-0.521 1.698,-0.392 3.687,-0.973 4.982,-2.268 0.346,-0.346 0.68,-0.63 1.012,-0.918 1.217,0.867 2.403,1.434 3.566,1.69 A 1,1 0 0 0 17,43 h 0.314 l 0.875,-2 h -1.025 c -0.677,-0.155 -1.436,-0.48 -2.262,-1 0.825,-0.52 1.582,-0.846 2.258,-1.002 h 1.904 l 0.875,-2 H 17 a 1,1 0 0 0 -0.215,0.023 c -1.163,0.256 -2.349,0.825 -3.566,1.692 -0.333,-0.288 -0.665,-0.574 -1.012,-0.92 C 10.912,36.498 8.923,35.917 7.225,35.525 5.527,35.133 4.09,35.004 4.09,35.004 a 1,1 0 0 0 -0.1,-0.006 z"
           fill="#b5ddff"
           style="text-indent:0;text-decoration-line:none;text-decoration-style:solid;text-decoration-color:#000000;text-transform:none;white-space:normal;isolation:auto;mix-blend-mode:normal"
           transform="matrix(1.35,0,0,1.35,-0.426,-22)"
           id="path38151" />
        <path
           d="m 16.014,27.986 a 1,1 0 0 0 -0.908,1.46 l 3.275,6.552 h 1.559 a 1,1 0 0 1 0.4,0.086 l 0.15,-0.342 -3.595,-7.19 a 1,1 0 0 0 -0.881,-0.566 z m 15.988,0 a 1,1 0 0 0 -0.92,0.611 l -7,16 a 1.0010451,1.0010451 0 0 0 1.834,0.803 l 7,-16 a 1,1 0 0 0 -0.914,-1.414 z m -9,6 a 1,1 0 0 0 -0.92,0.611 l -7,16 a 1.0010451,1.0010451 0 0 0 1.834,0.803 l 7,-16 a 1,1 0 0 0 -0.914,-1.414 z m 2.967,0 a 1,1 0 0 0 -0.899,0.64 l -4,10 a 1.0008982,1.0008982 0 1 0 1.858,0.745 l 4,-10 a 1,1 0 0 0 -0.96,-1.385 z m 1.687,9.928 -0.324,0.744 3.793,6.826 a 1,1 0 1 0 1.748,-0.97 L 29.254,44 h -1.197 a 1,1 0 0 1 -0.4,-0.086 z"
           fill="#ffffff"
           style="text-indent:0;text-decoration-line:none;text-decoration-style:solid;text-decoration-color:#000000;text-transform:none;white-space:normal;isolation:auto;mix-blend-mode:normal"
           transform="matrix(1.35,0,0,1.35,-0.426,-22)"
           id="path38153" />
      </g>
    </g>
  </g>
</svg>
