<svg width="24" height="24" viewBox="0 0 24 24" fill="none" xmlns="http://www.w3.org/2000/svg">
<path fill-rule="evenodd" clip-rule="evenodd" d="M9.59604 1.11359C9.71588 1.11486 9.83043 1.0996 9.93969 1.06779C11.3755 0.973736 12.8111 0.977551 14.2467 1.07924C15.5484 1.18066 16.8085 1.46308 18.0269 1.9265C20.0525 2.76044 21.4386 4.2069 22.185 6.26586C22.6119 7.50549 22.8639 8.78021 22.9411 10.09C23.0478 11.7347 23.0096 13.3758 22.8265 15.0133C22.6895 16.1642 22.3917 17.271 21.933 18.3336C21.0824 20.1761 19.704 21.447 17.7978 22.1463C16.2531 22.6682 14.6647 22.943 13.0325 22.9706C11.1966 23.0661 9.37913 22.9287 7.57997 22.5585C4.26839 21.8208 2.22559 19.8018 1.45158 16.5017C1.12311 15.0161 0.974199 13.5124 1.00483 11.9906C0.968176 10.3724 1.14 8.77709 1.52031 7.20471C2.33171 4.11908 4.2905 2.20701 7.39669 1.46852C8.12049 1.29157 8.8536 1.17326 9.59604 1.11359Z" fill="url(#paint0_radial_6_118)"/>
<path opacity="0.25" d="M7.92301 8.11087C5.65333 8.61183 4 10.1509 4 11.8767C4.96569 12.0989 5.27603 12.1662 6.36302 12.3407V14.482C6.36302 14.482 6.4024 15.027 6.95377 15.027H12.0736C12.625 15.027 12.6644 14.482 12.6644 14.482V12.3407C13.7711 12.1375 13.9936 12.0989 15.0274 11.8767C15.0274 10.1509 13.3741 8.61183 11.1048 8.11087C11.3481 7.88935 11.5424 7.61946 11.6754 7.31847C11.8083 7.01749 11.8769 6.69205 11.8767 6.36302C11.8767 5.05824 10.8173 4 9.51371 4C8.21011 4 7.1499 5.05824 7.1499 6.36302C7.1499 7.05499 7.44843 7.67725 7.92261 8.11087H7.92301Z" fill="black"/>
<path d="M10.9347 11.0631C11.9374 10.1746 13.2685 9.68542 14.6832 9.68542C16.0979 9.68542 17.429 10.1746 18.4317 11.0631C19.4431 11.9594 20 13.1535 20 14.4264C20 15.6406 19.4923 16.7839 18.5668 17.6645C18.5838 17.7055 18.5968 17.7484 18.605 17.7937L18.9095 19.4226C18.9453 19.616 18.8969 19.7314 18.8496 19.7944C18.8234 19.8298 18.7892 19.8584 18.7497 19.8779C18.7103 19.8974 18.6668 19.9073 18.6228 19.9067C18.553 19.9067 18.4782 19.8846 18.4002 19.8405L16.6319 18.8402C16.0191 19.0544 15.361 19.167 14.6832 19.167C13.2685 19.167 11.9374 18.6779 10.9347 17.7894C9.9233 16.893 9.36642 15.6989 9.36642 14.426C9.36642 13.1539 9.9233 11.9594 10.9347 11.0631Z" fill="#D6EBFE"/>
<path opacity="0.837" d="M12.4752 15.392C13.0086 15.392 13.441 14.9596 13.441 14.4262C13.441 13.8928 13.0086 13.4603 12.4752 13.4603C11.9417 13.4603 11.5093 13.8928 11.5093 14.4262C11.5093 14.9596 11.9417 15.392 12.4752 15.392Z" fill="#1C95F5"/>
<path opacity="0.837" d="M14.6766 15.392C15.2101 15.392 15.6425 14.9596 15.6425 14.4262C15.6425 13.8928 15.2101 13.4603 14.6766 13.4603C14.1432 13.4603 13.7107 13.8928 13.7107 14.4262C13.7107 14.9596 14.1432 15.392 14.6766 15.392Z" fill="#1C95F5"/>
<path opacity="0.837" d="M16.9893 15.392C17.5228 15.392 17.9552 14.9596 17.9552 14.4262C17.9552 13.8928 17.5228 13.4603 16.9893 13.4603C16.4559 13.4603 16.0235 13.8928 16.0235 14.4262C16.0235 14.9596 16.4559 15.392 16.9893 15.392Z" fill="#1C95F5"/>
<defs>
<radialGradient id="paint0_radial_6_118" cx="0" cy="0" r="1" gradientUnits="userSpaceOnUse" gradientTransform="translate(12 1) rotate(90) scale(22)">
<stop stop-color="#269FFF"/>
<stop offset="1" stop-color="#0079D9"/>
</radialGradient>
</defs>
</svg>
