<?xml version="1.0" encoding="UTF-8" standalone="no"?>
<svg
   width="24"
   height="24"
   viewBox="0 0 24 24"
   fill="none"
   version="1.1"
   id="svg154"
   sodipodi:docname="app.svg"
   inkscape:version="1.2.2 (b0a8486541, 2022-12-01)"
   xml:space="preserve"
   inkscape:export-filename="../../../../ícones big/whatsapp.svg"
   inkscape:export-xdpi="96"
   inkscape:export-ydpi="96"
   xmlns:inkscape="http://www.inkscape.org/namespaces/inkscape"
   xmlns:sodipodi="http://sodipodi.sourceforge.net/DTD/sodipodi-0.dtd"
   xmlns:xlink="http://www.w3.org/1999/xlink"
   xmlns="http://www.w3.org/2000/svg"
   xmlns:svg="http://www.w3.org/2000/svg"
   xmlns:sketch="http://www.bohemiancoding.com/sketch/ns"><sodipodi:namedview
     id="namedview156"
     pagecolor="#ffffff"
     bordercolor="#000000"
     borderopacity="1"
     inkscape:showpageshadow="0"
     inkscape:pageopacity="1"
     inkscape:pagecheckerboard="false"
     inkscape:deskcolor="#ffffff"
     showgrid="true"
     inkscape:zoom="32"
     inkscape:cx="9.609375"
     inkscape:cy="15.453125"
     inkscape:window-width="1920"
     inkscape:window-height="1052"
     inkscape:window-x="0"
     inkscape:window-y="0"
     inkscape:window-maximized="1"
     inkscape:current-layer="svg154"
     showguides="true"
     guidecolor="#ff0000"
     guideopacity="1"
     inkscape:lockguides="true"
     showborder="true"
     borderlayer="true"><inkscape:grid
       type="xygrid"
       id="grid356"
       color="#000000"
       opacity="0.10196078"
       empcolor="#000000"
       empopacity="0.10196078"
       snapvisiblegridlinesonly="true"
       enabled="true"
       visible="true"
       dotted="false" /><sodipodi:guide
       position="4,12"
       orientation="-1,0"
       id="guide764"
       inkscape:locked="true"
       inkscape:label="left-circle"
       inkscape:color="rgb(255,0,0)" /><sodipodi:guide
       position="5,12"
       orientation="-1,0"
       id="guide2218"
       inkscape:locked="true"
       inkscape:label="left-square"
       inkscape:color="rgb(255,0,0)" /><sodipodi:guide
       position="12,20"
       orientation="0,1"
       id="guide2220"
       inkscape:locked="true"
       inkscape:label="top-circle"
       inkscape:color="rgb(255,0,0)" /><sodipodi:guide
       position="12,5"
       orientation="0,1"
       id="guide2222"
       inkscape:locked="true"
       inkscape:label="bottom-square"
       inkscape:color="rgb(255,0,0)" /><sodipodi:guide
       position="12,4"
       orientation="0,1"
       id="guide2224"
       inkscape:locked="true"
       inkscape:label="bottom-circle"
       inkscape:color="rgb(255,0,0)" /><sodipodi:guide
       position="19,12"
       orientation="-1,0"
       id="guide2226"
       inkscape:locked="true"
       inkscape:label="right-square"
       inkscape:color="rgb(255,0,0)" /><sodipodi:guide
       position="20,12"
       orientation="-1,0"
       id="guide2228"
       inkscape:locked="true"
       inkscape:label="right-circle"
       inkscape:color="rgb(255,0,0)" /><sodipodi:guide
       position="12,19"
       orientation="0,1"
       id="guide2230"
       inkscape:locked="true"
       inkscape:label="top-square"
       inkscape:color="rgb(255,0,0)" /><sodipodi:guide
       position="12,12"
       orientation="1,0"
       id="guide765"
       inkscape:locked="true" /><sodipodi:guide
       position="12,12"
       orientation="0,-1"
       id="guide767"
       inkscape:locked="true" /><sodipodi:guide
       position="12,12"
       orientation="0.70710678,0.70710678"
       id="guide2266"
       inkscape:locked="true"
       inkscape:label=""
       inkscape:color="rgb(255,0,0)" /><sodipodi:guide
       position="12,12"
       orientation="-0.70710678,0.70710678"
       id="guide2994"
       inkscape:locked="true"
       inkscape:label=""
       inkscape:color="rgb(255,0,0)" /><sodipodi:guide
       position="3,12"
       orientation="-1,0"
       id="guide131543"
       inkscape:locked="true"
       inkscape:label="left-horizontal"
       inkscape:color="rgb(255,0,0)" /><sodipodi:guide
       position="12,21"
       orientation="0,1"
       id="guide131545"
       inkscape:locked="true"
       inkscape:label="top-vertical"
       inkscape:color="rgb(255,0,0)" /><sodipodi:guide
       position="21,12"
       orientation="-1,0"
       id="guide131547"
       inkscape:locked="true"
       inkscape:label="right-horizontal"
       inkscape:color="rgb(255,0,0)" /><sodipodi:guide
       position="12,3"
       orientation="0,1"
       id="guide131549"
       inkscape:locked="true"
       inkscape:label="bottom-vertical"
       inkscape:color="rgb(255,0,0)" /></sodipodi:namedview><defs
     id="defs152"><linearGradient
       inkscape:collect="always"
       id="linearGradient11988"><stop
         style="stop-color:#298cfe;stop-opacity:1"
         offset="0"
         id="stop11984" /><stop
         style="stop-color:#7eb8fc;stop-opacity:1"
         offset="1"
         id="stop11986" /></linearGradient><linearGradient
       id="linearGradient1257"
       inkscape:swatch="solid"><stop
         style="stop-color:#000000;stop-opacity:1;"
         offset="0"
         id="stop1255" /></linearGradient><linearGradient
       inkscape:collect="always"
       xlink:href="#linearGradient11988"
       id="linearGradient11990"
       x1="47.523773"
       y1="90.819519"
       x2="44.342693"
       y2="-33.153309"
       gradientUnits="userSpaceOnUse"
       gradientTransform="matrix(0.24444444,0,0,0.24444444,-0.22222222,-0.22222222)" /></defs><path
     d="M 12,0.99999998 C 2,0.99999998 0.99999998,6 0.99999998,12 0.99999998,20 4.0000001,23 12,23 20,23 23,20 23,12 23,6 22,0.99999998 12,0.99999998 Z"
     sketch:type="MSShapeGroup"
     id="path6"
     style="font-variation-settings:normal;display:inline;opacity:1;vector-effect:none;fill:url(#linearGradient11990);fill-opacity:1;stroke-width:1.11627;stroke-linecap:butt;stroke-linejoin:miter;stroke-miterlimit:4;stroke-dasharray:none;stroke-dashoffset:0;stroke-opacity:1;-inkscape-stroke:none;stop-color:#000000;stop-opacity:1"
     sodipodi:nodetypes="sssss"
     inkscape:label="Shape"
     sodipodi:insensitive="true"
     inkscape:export-filename="../../../../ícones big/path6.svg"
     inkscape:export-xdpi="96"
     inkscape:export-ydpi="96" /><g
     id="g40624"
     transform="matrix(0.23567364,0,0,0.23567364,-131.92019,-50.341207)"><path
       d="m 621.35686,291.45935 c 1.27411,-0.47887 2.35632,-0.99577 2.40299,-1.14791 0.0467,-0.15213 -0.64656,-1.6648 -1.54033,-3.36073 -1.39858,-2.65193 -1.79965,-3.1671 -2.86976,-3.67882 a 90.76043,90.76043 0 0 1 -1.70111,-0.83154 c -0.25067,-0.13138 -0.8713,-1.20495 -1.37956,-2.3857 -0.50826,-1.18075 -0.94391,-2.18517 -0.96811,-2.22666 -0.11928,-0.20745 -5.1258,0.97849 -5.1258,1.21533 0,0.1504 0.6189,1.49366 1.3761,2.98731 1.10987,2.18863 1.69765,2.96139 3.03226,3.97963 1.4902,1.13753 1.74779,1.51786 2.57587,3.81021 0.62236,1.72359 1.07184,2.54129 1.4003,2.52746 0.26278,-0.0207 1.52132,-0.40971 2.79715,-0.88858 z m 11.39606,-8.72683 c 3.62004,-1.78064 5.37647,-4.8907 5.00479,-8.85995 -0.15559,-1.67691 -0.0899,-2.10564 0.42354,-2.75912 1.31387,-1.66826 0.61199,-1.893 -5.33325,-1.70284 -4.17498,0.13312 -4.35996,0.16942 -4.85785,0.89551 -1.54206,2.26123 -2.99768,3.14636 -8.17362,4.97021 l -3.26565,1.14963 0.0259,1.26546 c 0.10546,5.24682 9.69149,8.23413 16.17611,5.0411 z m -20.48247,-5.60122 c 3.55781,-0.75029 9.63098,-2.82654 11.72106,-4.00729 4.04186,-2.2837 5.48712,-8.55222 2.85766,-12.4022 -0.76585,-1.12197 -1.61813,-1.81866 -3.52669,-2.8784 -1.38302,-0.77103 -3.10488,-1.81521 -3.82577,-2.32174 l -1.31214,-0.92316 -0.66039,0.78486 c -1.00614,1.19112 -2.02266,1.69938 -4.23894,2.11947 -1.30523,0.24895 -2.76604,0.83154 -4.13176,1.64752 -1.91202,1.14618 -2.31483,1.26719 -4.34267,1.30004 l -2.2353,0.0363 -0.66904,1.19285 c -0.3907,0.6967 -1.41413,1.68901 -2.45485,2.37879 -1.84633,1.22743 -5.13964,5.18112 -5.13618,6.16825 0.007,2.13849 1.81867,4.80253 3.97099,5.83806 3.6598,1.75989 8.83401,2.15405 13.98575,1.06665 z m -17.45885,-8.97577 c 1.59047,-2.26815 3.20687,-3.96926 4.65212,-4.89415 1.07357,-0.68805 1.91029,-1.51613 2.29926,-2.27679 0.64829,-1.27238 1.50749,-1.69247 2.80061,-1.36746 0.77276,0.19362 0.77622,0.18844 0.23857,-0.55666 -0.96292,-1.33461 -1.27237,-2.27334 -1.29312,-3.91567 -0.0225,-1.82904 0.59988,-2.91125 2.34076,-4.07644 4.3686,-2.91989 6.65922,-7.99729 4.61063,-10.21703 -0.41318,-0.44948 -2.01056,-1.43834 -3.5509,-2.20072 -2.63464,-1.30177 -2.90952,-1.37265 -4.67805,-1.2015 -8.49172,0.82117 -16.96788,6.70936 -20.23871,14.05836 -1.00787,2.26123 -2.01748,7.01881 -1.76853,8.32057 0.58778,3.04782 3.31924,6.74393 5.91931,8.00421 2.02266,0.97675 3.28984,1.19803 5.96425,1.03553 1.77891,-0.10891 2.39435,-0.26969 2.7038,-0.71225 z m 46.25497,-0.29044 c 0.45985,-3.00633 -0.77103,-12.28637 -1.85497,-13.99958 l -0.45121,-0.71052 -1.28447,1.0995 c -1.86016,1.59046 -3.04955,1.52131 -5.18286,-0.29908 -0.90241,-0.7693 -1.90337,-1.40031 -2.22665,-1.40031 -0.32155,0 -1.0632,0.4201 -1.64752,0.93354 -1.31387,1.15309 -1.96043,1.16519 -3.92431,0.0778 -1.45562,-0.8056 -1.59738,-0.82808 -2.40818,-0.38032 -1.08048,0.59988 -1.60775,1.93103 -1.03726,2.62081 0.22474,0.26796 1.33116,0.92489 2.4635,1.45735 2.91125,1.36919 3.96926,2.25086 4.92354,4.09719 0.66384,1.28275 0.83672,2.05896 0.85055,3.79119 0.009,1.19631 -0.0813,2.52574 -0.20054,2.95447 l -0.21782,0.77795 12.02187,0.1383 z m -32.18797,-9.23336 c 1.04591,-1.10814 2.2716,-1.6043 4.71954,-1.91029 2.16961,-0.26969 2.9683,-0.68978 3.52151,-1.84978 0.59297,-1.24472 0.7814,-1.28967 1.84978,-0.44948 1.06838,0.84018 1.36054,0.78486 1.57664,-0.29735 0.12101,-0.60161 0.50653,-1.0874 1.1116,-1.40031 1.24471,-0.6431 1.55589,-0.61198 2.89223,0.29735 1.53515,1.04245 2.26469,0.98194 3.85689,-0.32328 1.27929,-1.04936 1.38647,-1.08048 2.20937,-0.6552 0.47714,0.24721 1.14617,0.7572 1.48674,1.13407 0.90242,0.99577 2.02785,1.46427 3.24663,1.34498 1.21014,-0.11755 2.50672,-1.16692 2.50672,-2.0313 0,-1.11333 -1.56281,-3.64943 -3.32962,-5.40241 -6.44139,-6.39126 -16.33342,-10.3778 -25.77596,-10.38991 -2.06761,0 -3.85343,0.0899 -3.96753,0.20573 -0.11582,0.11583 1.22397,0.9197 2.9804,1.78755 3.33653,1.65097 4.58989,2.86284 4.58989,4.43602 0,0.83673 -1.53688,4.21474 -2.43238,5.34536 -0.32155,0.40799 -1.54552,1.45735 -2.71763,2.33384 -2.66922,1.99154 -3.21205,3.13426 -2.6623,5.59257 0.74164,3.31405 2.4756,4.2061 4.33921,2.23011 z"
       fill="#ffffff"
       id="path40608"
       style="stroke-width:1.72877" /></g></svg>
