<svg width="24" height="24" viewBox="0 0 24 24" fill="none" xmlns="http://www.w3.org/2000/svg">
<path fill-rule="evenodd" clip-rule="evenodd" d="M9.59604 1.11359C9.71588 1.11486 9.83043 1.0996 9.93969 1.06779C11.3755 0.973736 12.8111 0.977551 14.2467 1.07924C15.5484 1.18066 16.8085 1.46308 18.0269 1.9265C20.0525 2.76044 21.4386 4.2069 22.185 6.26586C22.6119 7.50549 22.8639 8.78021 22.9411 10.09C23.0478 11.7347 23.0096 13.3758 22.8265 15.0133C22.6895 16.1642 22.3917 17.271 21.933 18.3336C21.0824 20.1761 19.704 21.447 17.7978 22.1463C16.2531 22.6682 14.6647 22.943 13.0325 22.9706C11.1966 23.0661 9.37913 22.9287 7.57997 22.5585C4.26839 21.8208 2.22559 19.8018 1.45158 16.5017C1.12311 15.0161 0.974199 13.5124 1.00483 11.9906C0.968176 10.3724 1.14 8.77709 1.52031 7.20471C2.33171 4.11908 4.2905 2.20701 7.39669 1.46852C8.12049 1.29157 8.8536 1.17326 9.59604 1.11359Z" fill="url(#paint0_radial_8_48)"/>
<path d="M4.54092 5C4.24685 5 4 5.3048 4 5.60102V15.6681C4 15.9815 4.35417 16.3271 4.66756 16.3271H9.67319L7.3378 21H8.66863L11.0105 16.3271H11.3389V21H12.6697V16.3271H13.0153L15.3507 21H16.6858L14.3483 16.3271H19.3346C19.6501 16.3271 20 15.9793 20 15.6681V5.60102C19.9947 5.44403 19.9303 5.29485 19.8196 5.18338C19.7089 5.07192 19.5602 5.00641 19.4033 5H4.54092Z" fill="#E6A345"/>
<path d="M18.0038 6.33297H6.00483C5.63614 6.33297 5.33727 6.63185 5.33727 7.00054V14.333C5.33727 14.7017 5.63614 15.0005 6.00483 15.0005H18.0038C18.3724 15.0005 18.6713 14.7017 18.6713 14.333V7.00054C18.6713 6.63185 18.3724 6.33297 18.0038 6.33297Z" fill="#43953B"/>
<path d="M8.86182 7.71317C8.53984 7.77757 8.68151 8.02227 8.6579 8.22833C8.62141 8.42152 8.40032 8.74564 8.4733 8.81647C8.39173 9.14918 8.34237 9.61282 8.21572 9.98417C8.09123 10.3061 7.99893 10.6281 7.91092 10.963C7.82304 11.2698 7.74998 11.5807 7.69198 11.8946C7.80789 12.1994 7.59538 12.3797 7.62544 12.6737C7.90448 12.5063 7.81218 12.8991 7.60397 12.9077C8.044 12.8927 7.93668 12.3346 7.94956 12.0598C8.1363 11.9182 8.13416 11.5382 8.24148 11.3086C8.03327 11.4524 8.37242 11.1154 8.31231 10.9995C8.4132 10.5337 8.96914 10.729 9.30829 10.641C9.47142 10.7805 9.42205 11.1283 9.64744 11.1283C9.51221 11.4416 9.79984 11.6026 9.84062 11.8795C9.82345 12.1715 9.99302 12.7768 10.3665 12.6201C10.4137 12.7875 10.169 12.8197 10.1089 12.7274C10.1862 13.3112 10.7958 12.6072 10.4137 12.5514C10.2849 12.3582 10.242 12.0319 10.1819 11.7786C9.98229 11.5082 10.0703 11.2892 9.90931 10.963C9.74188 10.6389 10.2034 10.5294 9.8213 10.3491C9.44137 10.4178 9.84277 9.88972 9.52294 9.76952C9.58734 9.60424 9.21384 9.36598 9.48001 9.54843C9.34049 9.23504 9.37698 8.51167 8.96914 8.52455C8.97773 8.41722 9.19667 8.31419 9.03354 8.20687C8.87041 8.05661 9.05286 7.7883 8.86182 7.71317ZM9.99088 10.5251C10.0123 10.5315 9.96512 10.5637 9.99088 10.5251ZM10.3129 12.6437C10.345 12.6952 10.2485 12.6544 10.3129 12.6437ZM8.15133 11.6048C8.23289 11.6584 8.17709 11.5232 8.15133 11.6048ZM8.91977 7.82479C9.00993 7.87631 8.82747 7.86772 8.91977 7.82479ZM8.89187 8.00295C8.96485 8.05876 8.82533 8.04588 8.89187 8.00295ZM11.2144 8.20687C11.3217 8.28414 11.1049 8.26268 11.2144 8.20687ZM8.61712 8.22833C8.65576 8.29702 8.5699 8.26268 8.61712 8.22833ZM10.8924 8.2455C10.682 8.34854 10.6456 8.51382 10.8237 8.69627C10.8366 9.17709 10.8323 9.66219 10.9182 10.1366C10.8752 10.538 11.0555 10.9136 10.9997 11.315C11.0341 11.637 11.0148 11.8345 11.0319 12.1264C11.0598 12.3518 10.6713 12.7574 10.9611 12.8776C11.399 12.8712 11.912 12.9506 12.2726 12.8369C12.4744 12.6973 12.8929 12.8133 13.0346 12.4312C13.2664 12.399 12.938 11.9997 13.172 12.2058C13.4081 12.3346 13.333 11.8151 13.4274 11.8409C13.1484 11.7228 13.6206 11.828 13.4446 11.5704C13.5326 11.1411 13.0024 10.8471 12.9445 10.5251C12.7362 10.4543 12.1245 10.4392 12.2662 10.2096C12.0987 10.0335 12.4293 10.1344 12.3992 9.89402C12.6096 10.1151 12.5066 9.56775 12.7191 9.52911C12.7835 9.14059 12.7148 8.6791 12.3799 8.42581C11.9728 8.26581 11.53 8.21908 11.0985 8.29058C11.0319 8.27126 10.9654 8.23477 10.8924 8.2455ZM10.8581 8.36571C10.9461 8.43654 10.755 8.41079 10.8581 8.36571ZM11.5299 8.37429C11.5986 8.43869 11.4612 8.42581 11.5299 8.37429ZM11.2874 8.40864C11.3539 8.49235 11.2122 8.44728 11.2874 8.40864ZM11.8648 8.40864C11.9549 8.49021 11.7789 8.46659 11.8648 8.40864ZM8.64717 8.43225C8.73303 8.49021 8.56131 8.47733 8.64717 8.43225ZM11.9914 8.43225C12.0837 8.51382 11.9056 8.49021 11.9914 8.43225ZM11.1886 8.43654C11.2702 8.46874 11.1264 8.49021 11.1886 8.43654ZM11.5643 8.47089C11.9077 8.47947 12.4057 8.54387 12.3907 9.01395C12.571 9.08908 12.3928 9.4733 12.2404 9.67293C12.0386 9.92621 11.8884 10.1366 11.6072 10.1988C11.3668 10.2417 11.0233 10.4156 11.1714 10.0765C11.0856 9.65575 11.1457 9.21787 11.0534 8.77998C11.0212 8.42366 11.3711 8.5224 11.5643 8.47089ZM12.4636 9.11913C12.44 9.06117 12.4379 9.12986 12.4636 9.11913ZM12.1588 8.48591C12.3391 8.53743 12.03 8.61685 12.1588 8.48591ZM8.7824 8.49235C9.04212 8.71988 8.92192 9.17923 9.09793 9.50979C9.13657 9.80386 9.28253 10.1924 9.25034 10.4027C8.98632 10.3899 8.45613 10.5594 8.32734 10.4221C8.50335 10.465 8.50121 10.1044 8.5377 10.0228C8.30373 9.91119 8.62356 9.52911 8.60853 9.30158C8.67507 9.044 8.68795 8.72203 8.7824 8.49235ZM8.58921 8.51382C8.69224 8.51382 8.43037 8.60826 8.58921 8.51382ZM8.91119 8.5267C9.00134 8.60182 8.82533 8.58036 8.91119 8.5267ZM12.0365 8.53743C12.0987 8.52884 12.0451 8.60182 12.0365 8.53743ZM12.4143 8.54172C12.5001 8.66622 12.4894 8.52026 12.4143 8.54172ZM9.02495 8.56319C9.09793 8.61685 8.95841 8.60612 9.02495 8.56319ZM9.18379 8.64261C9.28039 8.72847 9.08935 8.70056 9.18379 8.64261ZM8.50121 8.67695C8.57633 8.74564 8.41749 8.72847 8.50121 8.67695ZM15.8036 8.74993C15.492 8.78069 15.1927 8.88757 14.9321 9.06117C14.7175 9.06547 15.0094 9.49047 14.6617 9.34237C14.2495 9.43467 14.3397 9.90904 14.0735 10.1752C13.949 10.4671 14.022 10.7913 13.8503 11.0724C13.9791 11.4309 13.9662 11.8838 14.3075 12.1543C14.3289 12.3196 14.7454 12.5922 15.0051 12.6544C15.2992 12.7274 15.6254 12.663 15.898 12.824C16.1191 12.8347 16.7438 12.8948 16.439 12.5342C16.5313 12.3045 16.1685 12.472 16.0955 12.3689C15.8599 12.4037 15.6196 12.388 15.3906 12.3228C15.1615 12.2577 14.9489 12.1447 14.7668 11.9911C14.4985 11.8087 14.3547 11.4502 14.3311 11.1325C14.3933 10.8621 14.4599 10.5873 14.5543 10.3298C14.6166 10.1344 14.7561 9.98846 14.5157 9.8704C14.6166 9.87255 14.6831 9.55916 14.7518 9.83821C15.0094 9.53984 15.297 9.25007 15.6898 9.15347C15.9367 8.98819 16.3724 9.06117 16.5484 8.94956C16.4325 8.6748 16.0354 8.76496 15.8036 8.74993ZM12.4121 8.707C12.4958 8.77784 12.3241 8.7671 12.4121 8.707ZM9.02281 8.707C9.10223 8.7714 8.95412 8.7714 9.02281 8.707ZM15.7735 8.7993C15.9195 8.8594 15.649 8.91521 15.7735 8.7993ZM9.17735 8.76281C9.22458 8.82506 9.10867 8.78428 9.17735 8.76281ZM8.82747 8.78428C8.94338 8.81862 8.72874 8.86155 8.82747 8.78428ZM9.08291 8.78428C9.16877 8.84867 8.97558 8.82721 9.08291 8.78428ZM16.0655 8.86799C16.2222 8.93238 15.9646 8.98605 16.0655 8.86799ZM16.4304 8.87014C16.5806 8.92595 16.3338 8.97746 16.4304 8.87014ZM10.8924 8.80789C10.9847 8.88516 10.8065 8.8637 10.8924 8.80789ZM8.67722 8.85726C8.73947 8.93239 8.60209 8.89375 8.67722 8.85726ZM8.62141 8.87443C8.70512 8.93024 8.53555 8.92165 8.62141 8.87443ZM9.055 8.89375C9.2117 8.93668 8.91763 8.98605 9.055 8.89375ZM12.4722 8.90019C12.5581 8.93668 12.3885 8.94526 12.4722 8.90019ZM11.047 8.92809C11.1285 8.99893 10.9589 8.98819 11.047 8.92809ZM15.2305 9.01395C15.3464 9.11484 15.1038 9.06976 15.2305 9.01395ZM9.11081 8.95385C9.20096 9.02683 9.02495 9.00537 9.11081 8.95385ZM12.6783 8.9839C12.7642 9.06761 12.5881 9.02683 12.6783 8.9839ZM9.00563 8.9839C9.07432 9.05688 8.92621 9.03112 9.00563 8.9839ZM15.1232 9.05259C15.2584 9.11269 15.0072 9.16635 15.1232 9.05259ZM15.4881 9.05259C15.6383 9.11054 15.3679 9.1685 15.4881 9.05259ZM14.9493 9.09123C15.0781 9.17279 14.8355 9.17923 14.9493 9.09123ZM15.2713 9.12342C15.3936 9.17709 15.2155 9.24577 15.2713 9.12342ZM9.21814 9.05903C9.29326 9.12772 9.13442 9.1084 9.21814 9.05903ZM12.6268 9.05903C12.689 9.11054 12.5688 9.09123 12.6268 9.05903ZM15.3528 9.14489C15.4881 9.15347 15.4322 9.31661 15.3528 9.14489ZM9.11081 9.08049C9.19023 9.13845 9.03354 9.13416 9.11081 9.08049ZM12.6611 9.08908C12.7405 9.15133 12.5753 9.12986 12.6611 9.08908ZM9.16877 9.11484C9.24604 9.16635 9.10008 9.16421 9.16877 9.11484ZM14.7926 9.18782C14.9665 9.28656 14.6681 9.34237 14.7926 9.18782ZM11.0727 9.14489C11.165 9.2286 10.9869 9.20284 11.0727 9.14489ZM15.0695 9.25221C15.1189 9.49262 14.8248 9.31875 15.0695 9.25221ZM9.16233 9.28226C9.24819 9.31875 9.07218 9.40891 9.16233 9.28226ZM14.6166 9.36812C14.7389 9.45398 14.4835 9.46042 14.6166 9.36812ZM8.39603 9.30802C8.4733 9.381 8.32305 9.36168 8.39603 9.30802ZM12.6375 9.34451C12.7062 9.35739 12.5817 9.42179 12.6375 9.34451ZM8.31231 9.35954C8.39388 9.40891 8.22431 9.40247 8.31231 9.35954ZM9.27824 9.381C9.36625 9.45184 9.17735 9.42608 9.27824 9.381ZM9.14516 9.3853C9.20955 9.45398 9.07647 9.42393 9.14516 9.3853ZM9.30829 9.47974C9.39415 9.56131 9.21814 9.52697 9.30829 9.47974ZM14.8956 9.54628C15.0351 9.61497 14.7926 9.65361 14.8956 9.54628ZM14.52 9.57633C14.6531 9.67937 14.4771 9.74162 14.52 9.57633ZM12.6311 9.52267C12.6912 9.50979 12.6096 9.58921 12.6311 9.52267ZM14.4255 9.61712C14.5243 9.64073 14.3268 9.64931 14.4255 9.61712ZM12.5023 9.63429C12.5903 9.70727 12.4014 9.68366 12.5023 9.63429ZM12.3413 9.63858C12.4615 9.68151 12.234 9.72874 12.3413 9.63858ZM12.6418 9.66005C12.7277 9.71371 12.5645 9.73517 12.6418 9.66005ZM14.4642 9.72874C14.593 9.8103 14.3461 9.80172 14.4642 9.72874ZM9.50791 9.6901C9.47786 9.79098 9.40059 9.71156 9.50791 9.6901ZM10.931 9.73303C11.0062 9.80172 10.8495 9.7824 10.931 9.73303ZM8.44969 9.73947C8.54199 9.81889 8.35525 9.78884 8.44969 9.73947ZM12.4808 9.75235C12.5624 9.83606 12.4594 9.81674 12.4808 9.75235ZM14.2281 9.83391C14.2345 9.82962 14.2238 9.8425 14.2281 9.83391ZM14.2281 9.83391C14.2603 9.95626 14.1014 9.93909 14.2281 9.83391ZM9.392 9.80816C9.4843 9.89187 9.28253 9.85967 9.392 9.80816ZM10.9482 9.82533C11.0641 9.88114 10.8302 9.91119 10.9482 9.82533ZM9.35766 9.86826C9.32332 10.0872 9.20741 9.92621 9.35766 9.86826ZM12.1524 9.87255C12.2254 9.93695 12.0687 9.91977 12.1524 9.87255ZM14.6166 9.97988C14.7668 10.0571 14.5178 10.0722 14.6166 9.97988ZM11.1393 9.92192C11.2251 9.99276 11.062 9.97773 11.1393 9.92192ZM8.50121 9.94339C8.58707 9.99705 8.41964 10.0078 8.50121 9.94339ZM12.0816 9.98202C12.2211 10.0443 12.015 10.0936 12.0816 9.98202ZM14.125 10.1838C14.2538 10.2632 13.9919 10.289 14.125 10.1838ZM8.43896 10.1344C8.47116 10.3705 8.30373 10.1194 8.43896 10.1344ZM9.58304 10.1902C9.63885 10.2804 9.50577 10.2332 9.58304 10.1902ZM11.9742 10.1945C12.0601 10.2697 11.8991 10.2654 11.9742 10.1945ZM14.2624 10.2611C14.3397 10.2825 14.198 10.3104 14.2624 10.2611ZM14.1765 10.2825C14.1207 10.5208 13.949 10.2868 14.1765 10.2825ZM8.17709 10.2138C8.26724 10.2911 8.08479 10.2654 8.17709 10.2138ZM8.37886 10.2396C8.3853 10.319 8.29729 10.2267 8.37886 10.2396ZM9.68393 10.2417C9.79125 10.2632 9.6088 10.334 9.68393 10.2417ZM12.0386 10.2439C12.161 10.2697 11.8798 10.3383 12.0386 10.2439ZM12.1567 10.2546C12.2426 10.3126 12.0687 10.2976 12.1567 10.2546ZM9.45211 10.2718C9.52294 10.3276 9.38342 10.3147 9.45211 10.2718ZM10.9482 10.289C11.062 10.3405 10.8366 10.3705 10.9482 10.289ZM9.34049 10.2911C9.40488 10.3641 9.2718 10.334 9.34049 10.2911ZM11.1285 10.2911C11.1393 10.5058 11.0169 10.3298 11.1285 10.2911ZM11.1006 10.3555C11.1135 10.3555 11.1006 10.334 11.1006 10.3555ZM14.2667 10.3598C14.4041 10.4328 14.1336 10.4693 14.2667 10.3598ZM11.3045 10.2976C11.4097 10.3405 11.2122 10.3877 11.3045 10.2976ZM9.53582 10.3212C9.60021 10.3856 9.45854 10.3491 9.53582 10.3212ZM9.64529 10.3405C9.72256 10.4006 9.56372 10.3813 9.64529 10.3405ZM8.37242 10.3598C8.43681 10.4457 8.29514 10.3984 8.37242 10.3598ZM9.58089 10.3598C9.67319 10.4392 9.49503 10.4156 9.58089 10.3598ZM8.30373 10.3813C8.36598 10.48 8.18997 10.4178 8.30373 10.3813ZM11.854 10.3899C11.9377 10.4478 11.7682 10.4349 11.854 10.3899ZM11.2573 10.4178C11.3689 10.8428 11.7381 10.4843 12.0193 10.6453C12.4915 10.6024 12.7448 10.9844 13.0625 11.2442C13.2364 11.388 12.9917 11.5468 13.1269 11.6928C13.0553 11.9124 12.9173 12.1044 12.732 12.2423C12.659 12.4634 12.0987 12.2766 12.0258 12.4913C11.8347 12.238 11.721 12.6501 11.6287 12.6566C11.5771 12.6287 11.8004 12.356 11.5085 12.399C11.3045 12.4634 11.2788 12.517 11.3281 12.2874C11.2423 11.9461 11.2509 12.0405 11.2487 11.7786C11.3346 11.5876 11.1199 11.3279 11.326 11.1218C11.1994 10.9157 11.1113 10.6109 11.2573 10.4178ZM11.2573 11.8988C11.2831 11.9053 11.268 11.989 11.2573 11.8988ZM13.0625 11.2442C13.1634 11.3107 12.9938 11.3644 13.0625 11.2442ZM9.91146 10.4199C10.0338 10.5058 9.81701 10.4757 9.91146 10.4199ZM9.71827 10.4199C9.80842 10.4843 9.61524 10.4628 9.71827 10.4199ZM12.1159 10.4285C12.2082 10.5079 12.0236 10.48 12.1159 10.4285ZM14.3569 10.4993C14.5071 10.568 14.2538 10.6131 14.3569 10.4993ZM9.72256 10.4779C9.87496 10.5423 9.6367 10.5766 9.72256 10.4779ZM10.9869 10.4779C11.0877 10.5745 10.8538 10.5144 10.9869 10.4779ZM8.05903 10.4864C8.14703 10.5637 7.97961 10.5444 8.05903 10.4864ZM13.9834 10.5723C14.0177 10.6582 13.8954 10.6474 13.9834 10.5723ZM11.4934 10.5337C11.5793 10.6131 11.3904 10.5895 11.4934 10.5337ZM9.88999 10.5444C9.9737 10.6045 9.80413 10.5809 9.88999 10.5444ZM9.28039 10.5487C9.35551 10.6067 9.19023 10.5787 9.28039 10.5487ZM9.4242 10.553C9.49289 10.6281 9.34478 10.5787 9.4242 10.553ZM9.00563 10.5659C9.07432 10.6367 8.92621 10.6109 9.00563 10.5659ZM9.78267 10.5659C9.84706 10.641 9.70969 10.6024 9.78267 10.5659ZM12.8221 10.6002C12.9273 10.6346 12.732 10.6689 12.8221 10.6002ZM8.718 10.6131C8.82962 10.6668 8.61068 10.6925 8.718 10.6131ZM9.61309 10.6174C9.69466 10.6818 9.52723 10.6732 9.61309 10.6174ZM12.4443 10.6217C12.5195 10.6904 12.3606 10.671 12.4443 10.6217ZM8.23075 10.6389C8.3209 10.7161 8.13845 10.6904 8.23075 10.6389ZM12.7298 10.6389C12.8436 10.6904 12.616 10.7183 12.7298 10.6389ZM12.3821 10.6389C12.483 10.7376 12.249 10.6732 12.3821 10.6389ZM14.4792 10.7247C14.6295 10.7827 14.3633 10.8342 14.4792 10.7247ZM8.18138 10.6668C8.26295 10.7312 8.09552 10.7054 8.18138 10.6668ZM14.0842 10.744C14.2002 10.7655 13.9877 10.7934 14.0842 10.744ZM12.8157 10.6925C12.8114 10.8449 12.6783 10.6474 12.8157 10.6925ZM9.44996 10.6968C9.52294 10.7505 9.38342 10.7397 9.44996 10.6968ZM8.1406 10.7569C8.25221 10.802 8.09981 10.8728 8.1406 10.7569ZM8.34237 10.7891C8.43252 10.8685 8.25007 10.8406 8.34237 10.7891ZM8.26295 10.7934C8.32734 10.8707 8.18782 10.8299 8.26295 10.7934ZM9.55728 10.8127C9.63241 10.9973 9.36839 10.8578 9.55728 10.8127ZM9.85779 10.8428C9.85779 11.0274 9.73759 10.9673 9.85779 10.8428ZM12.762 10.8492C12.8607 10.9394 12.6461 10.8878 12.762 10.8492ZM13.9469 10.9329C14.0907 11.0123 13.8395 11.0188 13.9469 10.9329ZM9.75691 10.8836C9.84277 10.9415 9.67105 10.9308 9.75691 10.8836ZM13.0303 10.8986C13.1162 10.9716 12.9445 10.9587 13.0303 10.8986ZM13.0604 10.9759C13.1398 11.0488 12.9337 11.0123 13.0604 10.9759ZM8.14489 10.9823C8.25221 10.9823 8.09123 11.0467 8.14489 10.9823ZM9.70754 10.9887C9.78696 11.0317 9.60021 11.0038 9.70754 10.9887ZM11.2745 11.0145C11.3153 11.1283 11.1672 10.9995 11.2745 11.0145ZM8.14489 11.0295C8.23504 11.1089 8.05903 11.0832 8.14489 11.0295ZM8.06547 11.0295C8.12986 11.0832 7.97746 11.051 8.06547 11.0295ZM13.2729 11.0789C13.3544 11.1519 13.1999 11.1519 13.2729 11.0789ZM13.0024 11.0875C13.0926 11.1669 12.9187 11.1411 13.0024 11.0875ZM9.75047 11.0939C9.84277 11.1733 9.65817 11.1454 9.75047 11.0939ZM9.8814 11.1154C9.97156 11.1905 9.78911 11.169 9.8814 11.1154ZM9.68822 11.1154C9.79769 11.1497 9.59807 11.2163 9.68822 11.1154ZM8.11269 11.1454C8.26939 11.1411 8.02683 11.2892 8.11269 11.1454ZM9.55943 11.169C9.63456 11.2055 9.49504 11.2463 9.55943 11.169ZM13.2106 11.1733C13.3094 11.2635 13.0947 11.2163 13.2106 11.1733ZM9.97156 11.2012C10.0639 11.2592 9.87711 11.2506 9.97156 11.2012ZM14.0284 11.2828C14.0993 11.3279 13.9125 11.3536 14.0284 11.2828ZM8.1084 11.2635C8.08479 11.3064 8.03542 11.2807 8.1084 11.2635ZM13.3995 11.2721C13.4832 11.3515 13.3094 11.3236 13.3995 11.2721ZM9.72042 11.2785C9.80628 11.3429 9.61524 11.3193 9.72042 11.2785ZM7.93882 11.315C8.04186 11.3171 7.91307 11.4438 7.93882 11.315ZM13.9941 11.4052C14.1336 11.4395 13.9082 11.5211 13.9941 11.4052ZM9.80199 11.3429C9.88784 11.418 9.72686 11.4159 9.80199 11.3429ZM9.99946 11.403C10.081 11.461 9.9136 11.4395 9.99946 11.403ZM14.0842 11.4717C14.1916 11.506 14.0199 11.549 14.0842 11.4717ZM7.9839 11.418C7.9839 11.5039 7.84009 11.3966 7.9839 11.418ZM8.10625 11.4996C8.17923 11.5576 8.02468 11.5232 8.10625 11.4996ZM7.87014 11.5468C7.9517 11.5983 7.78213 11.5919 7.87014 11.5468ZM13.3587 11.5726C13.451 11.6541 13.2729 11.6284 13.3587 11.5726ZM9.88999 11.5769C9.96941 11.6413 9.80842 11.6155 9.88999 11.5769ZM7.89375 11.5897C8.0118 11.6563 7.73061 11.6713 7.89375 11.5897ZM8.06547 11.5962C8.15562 11.6756 7.97102 11.6456 8.06547 11.5962ZM10.1626 11.5962C10.2485 11.652 10.0724 11.6692 10.1626 11.5962ZM11.1028 11.637C11.1886 11.7078 11.0169 11.6949 11.1028 11.637ZM7.956 11.7014C8.04186 11.7593 7.86799 11.7464 7.956 11.7014ZM7.84438 11.7014C7.9238 11.7658 7.75852 11.74 7.84438 11.7014ZM10.227 11.7035C10.3129 11.7507 10.1411 11.7615 10.227 11.7035ZM13.1505 11.7078C13.2428 11.7851 13.0647 11.7615 13.1505 11.7078ZM9.96082 11.725C10.0445 11.8624 9.81057 11.8108 9.96082 11.725ZM10.0553 11.7786C10.1325 11.8473 9.9737 11.828 10.0553 11.7786ZM10.1068 11.8044C10.1884 11.8194 10.1003 11.8624 10.1068 11.8044ZM7.9839 11.8259C8.06976 11.8817 7.89375 11.8731 7.9839 11.8259ZM9.77193 11.8323C9.86209 11.8044 9.75047 11.9031 9.77193 11.8323ZM7.92595 11.8452C8.01824 11.9139 7.83579 11.8881 7.92595 11.8452ZM14.5221 11.9353C14.6638 12.0083 14.4062 12.0448 14.5221 11.9353ZM10.1111 11.8709C10.1926 11.9332 10.0274 11.9139 10.1111 11.8709ZM9.96726 11.8988C10.0574 11.9718 9.8814 11.9547 9.96726 11.8988ZM10.0209 11.8988C10.1111 11.9718 9.93721 11.9547 10.0209 11.8988ZM13.2986 11.9117C13.4489 11.9117 13.2192 11.9761 13.2986 11.9117ZM13.4145 11.9117C13.5991 11.9911 13.3501 12.062 13.4145 11.9117ZM14.2409 11.9826C14.3139 12.0126 14.1851 12.047 14.2409 11.9826ZM7.94526 11.9246C7.99249 12.047 7.84009 12.0641 7.94526 11.9246ZM13.0668 11.9461C13.1741 12.0427 13.0582 12.0384 13.0668 11.9461ZM10.1647 11.9525C10.2399 12.0212 10.0832 12.004 10.1647 11.9525ZM9.99517 11.974C10.0875 12.0512 9.90287 12.0255 9.99517 11.974ZM12.9402 11.9911C13.0475 12.0341 12.8436 12.0792 12.9402 11.9911ZM13.3308 11.9976C13.4317 12.092 13.1956 12.0319 13.3308 11.9976ZM10.0982 12.0169C10.1669 12.047 9.95653 12.1049 10.0982 12.0169ZM7.76281 12.0577C7.8315 12.1307 7.66837 12.0834 7.76281 12.0577ZM7.87014 12.0792C7.96029 12.1285 7.77784 12.1242 7.87014 12.0792ZM7.84009 12.1264C7.93239 12.2058 7.74564 12.1779 7.84009 12.1264ZM7.92595 12.1757C8.01181 12.2316 7.83579 12.2208 7.92595 12.1757ZM11.2659 12.1929C11.3432 12.2573 11.18 12.2358 11.2659 12.1929ZM7.81862 12.2058C7.96458 12.2401 7.66193 12.3367 7.81862 12.2058ZM13.0174 12.2251C13.0861 12.2959 12.9359 12.2702 13.0174 12.2251ZM12.9037 12.238C12.9724 12.3153 12.8285 12.2981 12.9037 12.238ZM12.5001 12.2466C12.6075 12.341 12.3885 12.3239 12.5001 12.2466ZM10.1111 12.253C10.2012 12.3281 10.0252 12.3067 10.1111 12.253ZM7.90448 12.2573C7.96888 12.2509 7.88945 12.3324 7.90448 12.2573ZM10.0295 12.2702C10.0488 12.3281 9.94365 12.2852 10.0295 12.2702ZM11.1071 12.2702C11.1908 12.3475 11.0169 12.3217 11.1071 12.2702ZM13.026 12.2852C13.1119 12.399 12.9402 12.4097 13.026 12.2852ZM16.5313 12.3646C16.8446 12.4226 16.439 12.6651 16.5313 12.3646ZM7.55889 12.3067C7.65763 12.3668 7.46016 12.3453 7.55889 12.3067ZM10.1862 12.311C10.2549 12.399 10.1046 12.3754 10.1862 12.311ZM11.2165 12.3131C11.3754 12.3775 11.1371 12.399 11.2165 12.3131ZM10.33 12.3153C10.4481 12.2938 10.3429 12.4698 10.33 12.3153ZM10.0767 12.3217C10.0553 12.4548 9.88999 12.3367 10.0767 12.3217ZM7.9517 12.326C7.98175 12.4183 7.88731 12.3625 7.9517 12.326ZM7.83794 12.3281C7.91307 12.3861 7.81647 12.4398 7.83794 12.3281ZM12.9058 12.3281C12.9638 12.4054 12.8307 12.3668 12.9058 12.3281ZM12.5946 12.3539C12.6847 12.429 12.5001 12.4076 12.5946 12.3539ZM12.0215 12.3689C12.1331 12.4119 11.9313 12.4419 12.0215 12.3689ZM12.762 12.3689C12.8607 12.4591 12.6461 12.4097 12.762 12.3689ZM13.1763 12.3689C13.2836 12.4076 13.0947 12.4441 13.1763 12.3689ZM14.9364 12.4376C15.0158 12.5643 14.842 12.5707 14.9364 12.4376ZM10.1132 12.3775C10.1948 12.4355 10.0252 12.414 10.1132 12.3775ZM7.56963 12.3775C7.63617 12.4483 7.50308 12.4569 7.56963 12.3775ZM11.1886 12.4097C11.2874 12.4483 11.0942 12.4741 11.1886 12.4097ZM11.854 12.4119C11.9356 12.4698 11.7682 12.4569 11.854 12.4119ZM16.3853 12.4848C16.4926 12.6673 16.2715 12.6008 16.3853 12.4848ZM12.4164 12.4634C12.528 12.517 12.3027 12.5278 12.4164 12.4634ZM11.5278 12.4698C11.6008 12.5127 11.4483 12.5278 11.5278 12.4698ZM15.1682 12.5385C15.312 12.6158 15.0673 12.6372 15.1682 12.5385ZM10.2849 12.4934C10.3665 12.5492 10.1991 12.5385 10.2849 12.4934ZM12.0043 12.4956C12.058 12.59 11.9463 12.5643 12.0043 12.4956ZM7.87228 12.517C7.956 12.575 7.78642 12.5664 7.87228 12.517ZM11.8433 12.5256C11.9206 12.5986 11.7574 12.5814 11.8433 12.5256ZM12.1116 12.5256C12.2082 12.6115 12.0172 12.5836 12.1116 12.5256ZM11.8927 12.5278C12.015 12.575 11.7875 12.6179 11.8927 12.5278ZM12.3134 12.5321C12.4014 12.6115 12.2104 12.5836 12.3134 12.5321ZM11.7811 12.5621C11.8798 12.6523 11.6651 12.6008 11.7811 12.5621ZM10.2742 12.5643C10.3622 12.6458 10.1884 12.6222 10.2742 12.5643ZM10.3322 12.5643C10.4202 12.6458 10.2463 12.6244 10.3322 12.5643ZM7.78213 12.5686C7.86584 12.6415 7.71129 12.6415 7.78213 12.5686ZM12.3456 12.5986C12.44 12.6351 12.264 12.6523 12.3456 12.5986ZM12.732 12.5986C12.835 12.6287 12.6439 12.6694 12.732 12.5986ZM16.4239 12.6673C16.5205 12.7188 16.3338 12.7252 16.4239 12.6673ZM16.1921 12.6802C16.3145 12.7295 16.1191 12.766 16.1921 12.6802ZM12.5903 12.6244C12.6933 12.6931 12.5323 12.7918 12.5903 12.6244ZM16.3123 12.6931C16.4475 12.7639 16.1792 12.7896 16.3123 12.6931ZM16.1234 12.6931C16.1706 12.7317 16.0633 12.7338 16.1234 12.6931ZM16.4497 12.721C16.5806 12.8154 16.3102 12.7918 16.4497 12.721ZM11.5342 12.6566C11.5836 12.7188 11.4655 12.6716 11.5342 12.6566ZM12.2984 12.6587C12.4207 12.8111 12.0966 12.6866 12.2984 12.6587ZM7.72203 12.6737C7.83794 12.7167 7.62544 12.7617 7.72203 12.6737ZM10.8473 12.6845C10.9139 12.8862 10.6971 12.7124 10.8473 12.6845ZM11.5557 12.6845C11.6544 12.7102 11.4784 12.7553 11.5557 12.6845ZM11.2917 12.6845C11.356 12.7553 11.2165 12.7145 11.2917 12.6845ZM7.50952 12.6995C7.54601 12.8712 7.36142 12.6909 7.50952 12.6995ZM11.7875 12.7124C11.8734 12.7896 11.6737 12.7424 11.7875 12.7124ZM11.6651 12.7338C11.7574 12.8133 11.5793 12.7896 11.6651 12.7338ZM12.279 12.7446C12.3842 12.7896 12.1889 12.8433 12.279 12.7446ZM10.9482 12.7467C11.0663 12.8047 10.8302 12.8347 10.9482 12.7467ZM7.70271 12.7982C7.68983 12.8347 7.65978 12.7596 7.70271 12.7982ZM11.1307 12.7982C11.2251 12.8841 11.0362 12.854 11.1307 12.7982ZM11.4419 12.8025C11.6351 12.824 11.2702 12.9227 11.4419 12.8025ZM10.3601 12.8669C10.4459 12.9592 10.2742 12.9313 10.3601 12.8669Z" fill="#F9F9F9"/>
<defs>
<radialGradient id="paint0_radial_8_48" cx="0" cy="0" r="1" gradientUnits="userSpaceOnUse" gradientTransform="translate(12 1) rotate(90) scale(22)">
<stop stop-color="#F9F9F9"/>
<stop offset="1" stop-color="#CCCCCC"/>
</radialGradient>
</defs>
</svg>
