<svg width="24" height="24" viewBox="0 0 24 24" fill="none" xmlns="http://www.w3.org/2000/svg">
<path d="M22.2423 10.1311L22.2425 10.1353C22.3465 11.7382 22.3094 13.3373 22.1311 14.9331C22.0023 16.0131 21.7233 17.0508 21.2938 18.0481C20.5222 19.7146 19.2897 20.8511 17.565 21.486C16.0916 21.9829 14.5776 22.2444 13.0207 22.2707L13.0084 22.271L12.9962 22.2716C11.2216 22.3639 9.46564 22.2314 7.72672 21.874C6.17839 21.5282 4.96714 20.8934 4.05624 19.9931C3.14516 19.0927 2.49671 17.8893 2.1341 16.3462C1.81831 14.9163 1.6752 13.4695 1.70469 12.0047L1.70499 11.9897L1.70465 11.9747C1.66942 10.4196 1.83418 8.88717 2.19905 7.37607C2.57811 5.93852 3.21375 4.80969 4.08692 3.95735C4.96146 3.10368 6.10803 2.49441 7.5586 2.14954L7.55861 2.14955L7.56293 2.1485C8.24149 1.9826 8.92849 1.871 9.62425 1.81361C9.76847 1.81257 9.91155 1.79581 10.0521 1.762C11.4331 1.67451 12.814 1.67961 14.1948 1.77732C15.426 1.87347 16.6167 2.14005 17.7691 2.57739C19.606 3.3361 20.8464 4.63134 21.525 6.49918C21.93 7.67678 22.169 8.88685 22.2423 10.1311Z" fill="url(#paint0_radial_8_2)" stroke="url(#paint1_linear_8_2)" stroke-width="1.4"/>
<path d="M12.0026 8.99096C12.4089 8.99116 12.7985 9.15268 13.0857 9.44C13.373 9.72733 13.5344 10.117 13.5345 10.5233V17.4677C13.5345 18.3131 12.848 19 12.0026 19C11.1572 19 10.4699 18.3131 10.4699 17.4673V10.5236C10.4699 10.1171 10.6314 9.7273 10.9188 9.43987C11.2062 9.15244 11.5961 8.99096 12.0026 8.99096Z" fill="#E4E4E4"/>
<path d="M12.0026 10.1527C12.3648 10.1527 12.6589 10.4468 12.6589 10.8095V17.003C12.6519 17.1724 12.5797 17.3326 12.4573 17.45C12.3349 17.5674 12.1719 17.6329 12.0024 17.6329C11.8328 17.6329 11.6698 17.5674 11.5475 17.45C11.4251 17.3326 11.3528 17.1724 11.3458 17.003V10.8095C11.3458 10.4468 11.6399 10.1527 12.0026 10.1527Z" fill="#FA512F"/>
<path d="M13.3161 5V7.10883L12.0022 7.98362L10.6891 7.10845V5.00301C10.166 5.25094 9.72394 5.64198 9.41403 6.13085C9.10412 6.61971 8.93906 7.18638 8.93799 7.7652C8.93349 8.17048 9.00944 8.57263 9.16142 8.94836C9.31341 9.32409 9.53841 9.66594 9.82342 9.95412C10.1084 10.2423 10.4478 10.4711 10.8218 10.6272C11.1958 10.7834 11.5971 10.8638 12.0024 10.8638C12.4077 10.8638 12.809 10.7834 13.183 10.6272C13.557 10.4711 13.8963 10.2423 14.1813 9.95412C14.4663 9.66594 14.6914 9.32409 14.8433 8.94836C14.9953 8.57263 15.0713 8.17048 15.0668 7.7652C15.0663 7.18591 14.9016 6.61863 14.5917 6.12918C14.2818 5.63974 13.8395 5.2482 13.3161 5Z" fill="white"/>
<defs>
<radialGradient id="paint0_radial_8_2" cx="0" cy="0" r="1" gradientUnits="userSpaceOnUse" gradientTransform="translate(12 1) rotate(90) scale(22)">
<stop stop-color="#89FFF1"/>
<stop offset="1" stop-color="#028E7D"/>
</radialGradient>
<linearGradient id="paint1_linear_8_2" x1="12" y1="1" x2="12" y2="23" gradientUnits="userSpaceOnUse">
<stop stop-color="#2AB6A5"/>
<stop offset="1" stop-color="#007A69"/>
</linearGradient>
</defs>
</svg>
