<?xml version="1.0" encoding="UTF-8" standalone="no"?>
<svg
   width="24"
   height="24"
   viewBox="0 0 24 24"
   fill="none"
   version="1.1"
   id="svg154"
   sodipodi:docname="geany.svg"
   inkscape:version="1.2.2 (b0a8486541, 2022-12-01)"
   xml:space="preserve"
   xmlns:inkscape="http://www.inkscape.org/namespaces/inkscape"
   xmlns:sodipodi="http://sodipodi.sourceforge.net/DTD/sodipodi-0.dtd"
   xmlns:xlink="http://www.w3.org/1999/xlink"
   xmlns="http://www.w3.org/2000/svg"
   xmlns:svg="http://www.w3.org/2000/svg"
   xmlns:sketch="http://www.bohemiancoding.com/sketch/ns"><sodipodi:namedview
     id="namedview156"
     pagecolor="#ffffff"
     bordercolor="#000000"
     borderopacity="1"
     inkscape:showpageshadow="0"
     inkscape:pageopacity="1"
     inkscape:pagecheckerboard="false"
     inkscape:deskcolor="#ffffff"
     showgrid="true"
     inkscape:zoom="16"
     inkscape:cx="2.78125"
     inkscape:cy="9.90625"
     inkscape:window-width="1920"
     inkscape:window-height="1052"
     inkscape:window-x="0"
     inkscape:window-y="0"
     inkscape:window-maximized="1"
     inkscape:current-layer="svg154"
     showguides="true"
     guidecolor="#ff0000"
     guideopacity="1"
     inkscape:lockguides="true"
     showborder="true"
     borderlayer="true"><inkscape:grid
       type="xygrid"
       id="grid356"
       color="#000000"
       opacity="0.10196078"
       empcolor="#000000"
       empopacity="0.10196078"
       snapvisiblegridlinesonly="true"
       enabled="true"
       visible="true"
       dotted="false" /><sodipodi:guide
       position="4.003125,23.042969"
       orientation="1,0"
       id="guide764"
       inkscape:locked="true" /><sodipodi:guide
       position="5.0007813,21.049219"
       orientation="1,0"
       id="guide2218"
       inkscape:locked="true" /><sodipodi:guide
       position="3.6445312,20"
       orientation="0,-1"
       id="guide2220"
       inkscape:locked="true" /><sodipodi:guide
       position="3.796875,5"
       orientation="0,-1"
       id="guide2222"
       inkscape:locked="true" /><sodipodi:guide
       position="3.625,4"
       orientation="0,-1"
       id="guide2224"
       inkscape:locked="true" /><sodipodi:guide
       position="19,4.8984375"
       orientation="1,0"
       id="guide2226"
       inkscape:locked="true" /><sodipodi:guide
       position="20,3.3312502"
       orientation="1,0"
       id="guide2228"
       inkscape:locked="true" /><sodipodi:guide
       position="22.875,19"
       orientation="0,-1"
       id="guide2230"
       inkscape:locked="true" /></sodipodi:namedview><defs
     id="defs152"><radialGradient
       id="radialGradient1281"
       cx="0"
       cy="0"
       r="1"
       gradientUnits="userSpaceOnUse"
       gradientTransform="translate(12 1) rotate(90) scale(22)"><stop
         stop-color="#8FC8FF"
         id="stop1277"
         offset="0.00424011"
         style="stop-color:#faeb96;stop-opacity:1;" /><stop
         offset="0.99151897"
         stop-color="#0056A8"
         id="stop1279"
         style="stop-color:#fedb60;stop-opacity:1;" /></radialGradient><radialGradient
       id="paint0_radial_29_23"
       cx="0"
       cy="0"
       r="1"
       gradientUnits="userSpaceOnUse"
       gradientTransform="translate(12 1) rotate(90) scale(22)"><stop
         stop-color="#8FC8FF"
         id="stop147"
         offset="0"
         style="stop-color:#f6f6f6;stop-opacity:1;" /><stop
         offset="1"
         stop-color="#0056A8"
         id="stop149"
         style="stop-color:#cfcfcf;stop-opacity:1;" /></radialGradient><radialGradient
       inkscape:collect="always"
       xlink:href="#radialGradient1281"
       id="radialGradient1161"
       gradientUnits="userSpaceOnUse"
       gradientTransform="matrix(3.9045581e-8,90.059469,-90.006811,0,-107.36954,-11.19048)"
       cx="0.17911513"
       cy="-1.7483425"
       r="1"
       fx="0.17911513"
       fy="-1.7483425" /><radialGradient
       id="paint0_radial_10_2"
       cx="0"
       cy="0"
       r="1"
       gradientUnits="userSpaceOnUse"
       gradientTransform="matrix(-10.999959,21.999967,-21.999967,-10.999959,17.5,1)"
       xlink:href="#paint0_radial_29_23"><stop
         stop-color="#777777"
         id="stop2847" /><stop
         offset="1"
         stop-color="#222222"
         id="stop2849" /></radialGradient><linearGradient
       x1="12"
       y1="1"
       x2="12"
       y2="23"
       gradientUnits="userSpaceOnUse"
       gradientTransform="matrix(0.75,0,0,0.75,-7.98374e-6,2.65834e-5)"
       spreadMethod="pad"
       id="linearGradient44915"><stop
         style="stop-opacity:1;stop-color:#ff5f5f"
         offset="0"
         id="stop44911" /><stop
         style="stop-opacity:1;stop-color:#e82e34"
         offset="1"
         id="stop44913" /></linearGradient><radialGradient
       id="SVGID_1_"
       cx="85.226997"
       cy="71.662003"
       r="47.776001"
       gradientTransform="matrix(1,0,0,-1,0,103.8)"
       gradientUnits="userSpaceOnUse"><stop
         offset="0"
         stop-color="#00aeff"
         id="stop12" /><stop
         offset=".131"
         stop-color="#00a5f7"
         id="stop14" /><stop
         offset=".345"
         stop-color="#008de0"
         id="stop16" /><stop
         offset=".616"
         stop-color="#0065ba"
         id="stop18" /><stop
         offset=".928"
         stop-color="#002f87"
         id="stop20" /><stop
         offset="1"
         stop-color="#00217a"
         id="stop22" /></radialGradient><linearGradient
       id="SVGID_3_"
       gradientUnits="userSpaceOnUse"
       x1="92.800003"
       y1="72.949997"
       x2="130.763"
       y2="72.949997"
       gradientTransform="matrix(1,0,0,-1,0,103.8)"><stop
         offset="0"
         stop-color="#FFF"
         id="stop29" /><stop
         offset="1"
         stop-color="#FFF"
         stop-opacity="0"
         id="stop31" /></linearGradient><radialGradient
       id="SVGID_4_"
       cx="83.728996"
       cy="73.999001"
       r="8.2860003"
       gradientTransform="matrix(1,0,0,-1,0,103.8)"
       gradientUnits="userSpaceOnUse"><stop
         offset="0"
         stop-color="#FFF"
         id="stop36" /><stop
         offset=".679"
         stop-color="#7a7a7a"
         id="stop38" /><stop
         offset="1"
         stop-color="#404040"
         id="stop40" /></radialGradient><radialGradient
       fx="0"
       fy="0"
       cx="0"
       cy="0"
       r="1"
       gradientUnits="userSpaceOnUse"
       gradientTransform="matrix(0,16.5,-16.5,0,8.999996,0.750012)"
       spreadMethod="pad"
       id="radialGradient3666-6"><stop
         style="stop-color:#ffffff;stop-opacity:1;"
         offset="0"
         id="stop3662-7" /><stop
         style="stop-color:#f7da4d;stop-opacity:1;"
         offset="1"
         id="stop3664-5" /></radialGradient></defs><path
     d="M 50,5 C 9.0909092,5 5,25.454546 5,50 5,82.727274 17.272728,95 50,95 82.727274,95 95,82.727274 95,50 95,25.454546 90.909093,5 50,5 Z"
     sketch:type="MSShapeGroup"
     id="path6"
     style="font-variation-settings:normal;display:inline;opacity:1;vector-effect:none;fill:url(#radialGradient1161);fill-opacity:1;stroke-width:4.56656;stroke-linecap:butt;stroke-linejoin:miter;stroke-miterlimit:4;stroke-dasharray:none;stroke-dashoffset:0;stroke-opacity:1;-inkscape-stroke:none;stop-color:#000000;stop-opacity:1"
     sodipodi:nodetypes="sssss"
     inkscape:label="Shape"
     transform="matrix(0.24444444,0,0,0.24444444,-0.22222222,-0.22222222)"
     sodipodi:insensitive="true" /><g
     inkscape:groupmode="layer"
     id="layer4"
     inkscape:label="Colors References"
     style="display:inline"
     sodipodi:insensitive="true"
     inkscape:highlight-color="#cc5ecc"><rect
       style="display:inline;fill:#3947be;fill-opacity:1;stroke-width:22.6872;paint-order:markers stroke fill"
       id="rect7816"
       width="1.9999923"
       height="2"
       x="12"
       y="-2.9999964"
       rx="0"
       ry="0"
       inkscape:label="Dark Blue" /><rect
       style="display:inline;fill:#6c7ad8;fill-opacity:1;stroke-width:22.6873;paint-order:markers stroke fill"
       id="rect7820"
       width="2"
       height="2.0000076"
       x="9"
       y="-3.0000041"
       rx="0"
       ry="0"
       inkscape:label="Blue" /><rect
       style="display:inline;fill:#33cc33;fill-opacity:1;stroke-width:22.6873;paint-order:markers stroke fill"
       id="rect7814"
       width="2"
       height="2.0000076"
       x="6"
       y="-3.0000041"
       rx="0"
       ry="0"
       inkscape:label="Green" /><rect
       style="display:inline;fill:#ffc328;fill-opacity:1;stroke-width:22.6872;paint-order:markers stroke fill"
       id="rect7824"
       width="1.9999926"
       height="2.0000002"
       x="3"
       y="-2.9999964"
       rx="0"
       ry="0"
       inkscape:label="Yellow" /><rect
       style="display:inline;fill:#cc5e55;fill-opacity:1;stroke-width:22.6873;paint-order:markers stroke fill"
       id="rect7822"
       width="2"
       height="2.0000076"
       x="0"
       y="-3.0000038"
       rx="0"
       ry="0"
       inkscape:label="Red" /><rect
       style="display:inline;fill:#0bb1cb;fill-opacity:1;stroke-width:22.6872;paint-order:markers stroke fill"
       id="rect3087"
       width="1.9999919"
       height="1.9999996"
       x="-3"
       y="12.000004"
       rx="0"
       ry="0"
       inkscape:label="Blue 4" /><rect
       style="display:inline;fill:#2a92c9;fill-opacity:1;stroke-width:22.6873;paint-order:markers stroke fill"
       id="rect3085"
       width="2"
       height="2.0000079"
       x="-3"
       y="8.9999962"
       rx="0"
       ry="0"
       inkscape:label="Blue 3" /><rect
       style="display:inline;fill:#006699;fill-opacity:1;stroke-width:22.6873;paint-order:markers stroke fill"
       id="rect3089"
       width="2"
       height="2.0000076"
       x="-3"
       y="6.0000038"
       rx="0"
       ry="0"
       inkscape:label="Blue 2" /><rect
       style="display:inline;fill:#002a44;fill-opacity:1;stroke-width:22.6873;paint-order:markers stroke fill"
       id="rect3083"
       width="2"
       height="2.0000076"
       x="-3"
       y="2.9999962"
       rx="0"
       ry="0"
       inkscape:label="Blue 1" /><rect
       style="display:inline;fill:#2c2d3d;fill-opacity:1;stroke-width:22.6873;paint-order:markers stroke fill"
       id="rect3456"
       width="2"
       height="2.0000076"
       x="-3"
       y="-3.8146973e-06"
       rx="0"
       ry="0"
       inkscape:label="Gray" /><rect
       style="display:inline;fill:#16171c;fill-opacity:1;stroke-width:22.6872;paint-order:markers stroke fill"
       id="rect3091"
       width="1.9999924"
       height="2"
       x="-3"
       y="-3"
       rx="0"
       ry="0"
       inkscape:label="Black" /></g><g
     id="g24147"
     transform="matrix(0.88877559,0,0,0.88877559,5.0964136,5.2323239)"><path
       d="M 8.3186489,1.5689844 C 7.8391017,1.5749787 7.3775375,1.7847806 7.2396676,2.1404448 7.1997054,2.2523392 7.1957091,2.2863071 7.2236827,2.4501524 7.2836261,2.7898317 7.4994224,3.2154298 7.7531828,3.4891714 7.9270187,3.6769941 8.0429093,3.7549205 8.2087527,3.798879 8.3466225,3.834845 8.4405338,3.8228563 8.5923905,3.7529224 8.9320698,3.5930733 9.3356887,2.9996336 9.4395906,2.496109 9.5055283,2.1883995 9.4136151,1.9765995 9.1358773,1.7927731 A 1.4546266,1.4546266 0 0 0 8.3186489,1.5689844 Z M 6.8400449,2.6319807 C 6.806077,2.6119996 6.2506014,2.6919241 5.8529769,2.7758449 4.9258522,2.97166 4.2684729,3.2454015 3.8988219,3.5890771 3.6990105,3.7749016 3.6350709,3.8927903 3.6350709,4.0686243 c 0,0.175834 0.06394,0.2937227 0.263751,0.4795473 C 4.4922616,5.101649 5.9348995,5.4992736 7.6292998,5.5772 A 12.428266,12.428266 0 0 0 10.254821,5.4093585 C 11.783379,5.1356169 12.824396,4.5401791 12.72449,3.9946941 12.628581,3.4751846 11.583568,2.9496807 10.186885,2.7159015 L 9.8272246,2.65396 9.7612869,2.8377864 C 9.4695623,3.6330356 8.9300716,4.1785206 8.3985735,4.2164847 7.9789696,4.2464564 7.5673582,3.9767111 7.2136922,3.4452129 A 3.1770005,3.1770005 0 0 1 6.8740129,2.7198977 c -0.00799,-0.039962 -0.023977,-0.079924 -0.035966,-0.087917 z m 6.2960571,1.3747021 -0.01599,0.1478604 C 13.044189,4.8578791 12.049128,5.4673037 10.47861,5.7730151 7.6213073,6.3284907 4.2065313,5.7570302 3.3932991,4.5861357 L 3.3133746,4.4702451 3.2933935,4.5981244 a 20.570578,20.570578 0 0 0 0.049953,2.587557 C 3.3233652,7.2056625 2.8318293,6.9918643 2.6959575,6.9019492 2.2363914,6.5962379 2.0245914,6.1366718 1.9446669,5.2734867 L 1.9146952,4.961781 1.4671177,4.9537886 1.0175422,4.9477986 1.0375233,5.1076477 c 0.1538548,1.4046738 0.6553813,2.7474061 1.4066719,3.7684421 1.1629021,1.5785102 3.0171514,2.5975482 5.1471404,2.8333252 0.3676529,0.03996 1.1229398,0.04596 1.4346455,0.01199 1.1708949,-0.129877 2.1100089,-0.559471 2.8073509,-1.284787 0.8472,-0.8791702 1.318755,-2.0340798 1.502581,-3.6785272 0.01998,-0.1938224 0.03197,-0.6194206 0.02997,-1.2188547 -0.004,-1.0010548 -0.01599,-1.0929681 -0.157851,-1.3866907 z m 2.183938,0.8192266 a 1.4985851,1.4985851 0 0 0 -1.382695,0.6234114 c -0.127879,0.1798302 -0.271743,0.4735529 -0.271743,0.5594717 0,0.139868 0.149858,0.2837322 0.295721,0.2837322 0.135871,0 0.195815,-0.055947 0.3177,-0.2917246 a 1.2048624,1.2048624 0 0 1 0.49753,-0.5474831 c 0.591442,-0.299717 1.286785,0.087917 1.398679,0.7792643 0.02797,0.1558528 0.01598,0.3117057 -0.101903,1.4286511 -0.151857,1.4426379 -0.131876,1.3707059 -0.439585,1.5545323 -0.397625,0.2397736 -1.019038,0.3636567 -2.032082,0.4016208 -0.461564,0.019981 -0.46556,0.019981 -0.535494,0.089915 -0.1059,0.1059 -0.09991,0.2337793 0.01598,0.3496695 l 0.08792,0.08792 h 0.397624 c 1.092968,0 1.962148,-0.185824 2.467671,-0.5235052 a 1.0869737,1.0869737 0 0 0 0.445581,-0.5394905 c 0.03397,-0.1258811 0.287728,-2.4976419 0.287728,-2.6854645 A 1.6784153,1.6784153 0 0 0 16.59084,5.7110738 1.584504,1.584504 0 0 0 15.32004,4.8259094 Z M 5.0177654,5.8009887 c 0.00799,0 0.1878227,0.351668 0.4036189,0.7792643 L 5.8130146,7.3635135 5.4293768,8.1367834 C 5.2175768,8.5603835 5.0377466,8.9120515 5.0297541,8.9160477 A 10.458126,10.458126 0 0 1 4.6181427,8.146774 L 4.2225162,7.3655116 4.6121484,6.5822511 C 4.8279446,6.1526567 5.0117711,5.8009887 5.0177654,5.8009887 Z m 6.8455386,0.013987 0.399622,0.7952492 0.395627,0.7932511 -0.387634,0.7772661 a 16.922023,16.922023 0 0 1 -0.399623,0.7752681 c -0.008,0 -0.191819,-0.351668 -0.405617,-0.7832605 L 11.074047,7.3914871 11.469675,6.6022323 Z M 8.4445301,6.6541832 c 0.023977,0 1.1748907,1.8702342 1.1688964,1.8962097 A 52.670272,52.670272 0 0 1 9.0339735,9.4895063 17.96304,17.96304 0 0 1 8.4445301,10.404642 c -0.019981,0 -1.1529115,-1.7983019 -1.1688964,-1.8542491 -0.00799,-0.029972 1.1429209,-1.8982078 1.1688964,-1.8962097 z m 3.4707249,4.2699688 -0.139868,0.117888 c -0.763281,0.635401 -1.742357,1.001055 -2.9312342,1.094966 a 8.1622936,8.1622936 0 0 1 -2.7214306,-0.309707 7.3470633,7.3470633 0 0 1 -1.40867,-0.547483 l -0.3037133,-0.153855 -0.1718377,0.07992 c -0.3856359,0.173836 -0.7432983,0.463562 -0.8511964,0.691347 a 0.65937745,0.65937745 0 0 0 -0.015985,0.505523 c 0.2078038,0.469556 1.0590002,0.909141 2.253872,1.1649 0.6114228,0.129877 1.0130436,0.183826 1.9261814,0.257756 0.057945,0.004 0.4295944,0.01199 0.827219,0.01399 0.7792643,0.004 1.2048625,-0.01998 1.8762288,-0.09991 2.819339,-0.349668 4.112119,-1.426652 2.777379,-2.313814 a 3.6765288,3.6765288 0 0 0 -0.863185,-0.411611 l -0.25376,-0.08792 z"
       fill="#d11616"
       id="path24136"
       style="stroke-width:1.99811" /></g></svg>
