<?xml version="1.0" encoding="UTF-8" standalone="no"?>
<svg
   width="24"
   height="24"
   viewBox="0 0 24 24"
   fill="none"
   version="1.1"
   id="svg154"
   sodipodi:docname="app.svg"
   inkscape:version="1.2.2 (b0a8486541, 2022-12-01)"
   xml:space="preserve"
   inkscape:export-filename="../../../../../../../../../Imagens/Big Icons/app.pdf"
   inkscape:export-xdpi="96"
   inkscape:export-ydpi="96"
   xmlns:inkscape="http://www.inkscape.org/namespaces/inkscape"
   xmlns:sodipodi="http://sodipodi.sourceforge.net/DTD/sodipodi-0.dtd"
   xmlns:xlink="http://www.w3.org/1999/xlink"
   xmlns="http://www.w3.org/2000/svg"
   xmlns:svg="http://www.w3.org/2000/svg"><sodipodi:namedview
     id="namedview156"
     pagecolor="#ffffff"
     bordercolor="#000000"
     borderopacity="1"
     inkscape:showpageshadow="0"
     inkscape:pageopacity="1"
     inkscape:pagecheckerboard="false"
     inkscape:deskcolor="#ffffff"
     showgrid="true"
     inkscape:zoom="16"
     inkscape:cx="9.6875"
     inkscape:cy="14.1875"
     inkscape:window-width="2560"
     inkscape:window-height="998"
     inkscape:window-x="1680"
     inkscape:window-y="0"
     inkscape:window-maximized="1"
     inkscape:current-layer="svg154"
     showguides="true"
     guidecolor="#ff0000"
     guideopacity="1"
     inkscape:lockguides="true"
     showborder="true"
     borderlayer="true"><inkscape:grid
       type="xygrid"
       id="grid356"
       color="#000000"
       opacity="0.10196078"
       empcolor="#000000"
       empopacity="0.10196078"
       snapvisiblegridlinesonly="true"
       enabled="true"
       visible="true"
       dotted="false"
       originx="0"
       originy="0" /><sodipodi:guide
       position="4.003125,23.042969"
       orientation="1,0"
       id="guide764"
       inkscape:locked="true" /><sodipodi:guide
       position="5.0007813,21.049219"
       orientation="1,0"
       id="guide2218"
       inkscape:locked="true" /><sodipodi:guide
       position="3.6445312,20"
       orientation="0,-1"
       id="guide2220"
       inkscape:locked="true" /><sodipodi:guide
       position="3.796875,5"
       orientation="0,-1"
       id="guide2222"
       inkscape:locked="true" /><sodipodi:guide
       position="3.625,4"
       orientation="0,-1"
       id="guide2224"
       inkscape:locked="true" /><sodipodi:guide
       position="19,4.8984375"
       orientation="1,0"
       id="guide2226"
       inkscape:locked="true" /><sodipodi:guide
       position="20,3.3312502"
       orientation="1,0"
       id="guide2228"
       inkscape:locked="true" /><sodipodi:guide
       position="22.875,19"
       orientation="0,-1"
       id="guide2230"
       inkscape:locked="true" /></sodipodi:namedview><defs
     id="defs152"><radialGradient
       id="radialGradient1281"
       cx="0"
       cy="0"
       r="1"
       gradientUnits="userSpaceOnUse"
       gradientTransform="matrix(0,22,-22,0,12,1)"><stop
         stop-color="#8FC8FF"
         id="stop1277"
         offset="0.00424011"
         style="stop-color:#414352;stop-opacity:1;" /><stop
         offset="0.99151897"
         stop-color="#0056A8"
         id="stop1279"
         style="stop-color:#2c2f3f;stop-opacity:1;" /></radialGradient><radialGradient
       id="paint0_radial_29_23"
       cx="0"
       cy="0"
       r="1"
       gradientUnits="userSpaceOnUse"
       gradientTransform="matrix(0,22,-22,0,12,1)"><stop
         stop-color="#8FC8FF"
         id="stop147"
         offset="0"
         style="stop-color:#f6f6f6;stop-opacity:1;" /><stop
         offset="1"
         stop-color="#0056A8"
         id="stop149"
         style="stop-color:#cfcfcf;stop-opacity:1;" /></radialGradient><radialGradient
       id="paint0_radial_10_2"
       cx="0"
       cy="0"
       r="1"
       gradientUnits="userSpaceOnUse"
       gradientTransform="matrix(-10.999959,21.999967,-21.999967,-10.999959,17.5,1)"
       xlink:href="#paint0_radial_29_23"><stop
         stop-color="#777777"
         id="stop2847" /><stop
         offset="1"
         stop-color="#222222"
         id="stop2849" /></radialGradient><linearGradient
       x1="12"
       y1="1"
       x2="12"
       y2="23"
       gradientUnits="userSpaceOnUse"
       gradientTransform="matrix(0.75,0,0,0.75,-7.98374e-6,2.65834e-5)"
       spreadMethod="pad"
       id="linearGradient44915"><stop
         style="stop-opacity:1;stop-color:#ff5f5f"
         offset="0"
         id="stop44911" /><stop
         style="stop-opacity:1;stop-color:#e82e34"
         offset="1"
         id="stop44913" /></linearGradient><radialGradient
       id="SVGID_1_"
       cx="85.226997"
       cy="71.662003"
       r="47.776001"
       gradientTransform="matrix(1,0,0,-1,0,103.8)"
       gradientUnits="userSpaceOnUse"><stop
         offset="0"
         stop-color="#00aeff"
         id="stop12" /><stop
         offset=".131"
         stop-color="#00a5f7"
         id="stop14" /><stop
         offset=".345"
         stop-color="#008de0"
         id="stop16" /><stop
         offset=".616"
         stop-color="#0065ba"
         id="stop18" /><stop
         offset=".928"
         stop-color="#002f87"
         id="stop20" /><stop
         offset="1"
         stop-color="#00217a"
         id="stop22" /></radialGradient><linearGradient
       id="SVGID_3_"
       gradientUnits="userSpaceOnUse"
       x1="92.800003"
       y1="72.949997"
       x2="130.763"
       y2="72.949997"
       gradientTransform="matrix(1,0,0,-1,0,103.8)"><stop
         offset="0"
         stop-color="#FFF"
         id="stop29" /><stop
         offset="1"
         stop-color="#FFF"
         stop-opacity="0"
         id="stop31" /></linearGradient><radialGradient
       id="SVGID_4_"
       cx="83.728996"
       cy="73.999001"
       r="8.2860003"
       gradientTransform="matrix(1,0,0,-1,0,103.8)"
       gradientUnits="userSpaceOnUse"><stop
         offset="0"
         stop-color="#FFF"
         id="stop36" /><stop
         offset=".679"
         stop-color="#7a7a7a"
         id="stop38" /><stop
         offset="1"
         stop-color="#404040"
         id="stop40" /></radialGradient><radialGradient
       fx="0"
       fy="0"
       cx="0"
       cy="0"
       r="1"
       gradientUnits="userSpaceOnUse"
       gradientTransform="matrix(0,16.5,-16.5,0,8.999996,0.750012)"
       spreadMethod="pad"
       id="radialGradient3666-6"><stop
         style="stop-color:#ffffff;stop-opacity:1;"
         offset="0"
         id="stop3662-7" /><stop
         style="stop-color:#f7da4d;stop-opacity:1;"
         offset="1"
         id="stop3664-5" /></radialGradient><clipPath
       id="a"><path
         d="M 0,0.113 H 91.887 V 92 H 0 Z m 0,0"
         id="path76179" /></clipPath><clipPath
       id="a-3"><path
         d="M 0,0.113 H 91.887 V 92 H 0 Z m 0,0"
         id="path76179-5" /></clipPath><radialGradient
       fx="0.179115"
       fy="-1.748343"
       cx="0.179115"
       cy="-1.748343"
       r="1"
       gradientUnits="userSpaceOnUse"
       gradientTransform="matrix(0,16.510902,-16.501249,0,-19.851082,-2.218255)"
       spreadMethod="pad"
       id="radialGradient1128"><stop
         style="stop-opacity:1;stop-color:#414352"
         offset="0"
         id="stop1120" /><stop
         style="stop-opacity:1;stop-color:#414352"
         offset="0.00424011"
         id="stop1122" /><stop
         style="stop-opacity:1;stop-color:#2c2f3f"
         offset="0.991519"
         id="stop1124" /><stop
         style="stop-opacity:1;stop-color:#2c2f3f"
         offset="1"
         id="stop1126" /></radialGradient><radialGradient
       fx="0.179115"
       fy="-1.748343"
       cx="0.179115"
       cy="-1.748343"
       r="1"
       gradientUnits="userSpaceOnUse"
       gradientTransform="matrix(0,16.510902,-16.501249,0,-19.851082,-2.218255)"
       spreadMethod="pad"
       id="radialGradient1128-3"><stop
         style="stop-opacity:1;stop-color:#414352"
         offset="0"
         id="stop1120-6" /><stop
         style="stop-opacity:1;stop-color:#414352"
         offset="0.00424011"
         id="stop1122-7" /><stop
         style="stop-opacity:1;stop-color:#2c2f3f"
         offset="0.991519"
         id="stop1124-5" /><stop
         style="stop-opacity:1;stop-color:#2c2f3f"
         offset="1"
         id="stop1126-3" /></radialGradient></defs><g
     id="g1110"
     transform="scale(1.3333333)"><g
       id="g1112"><g
         id="g1118"><path
           d="M 9,0.75 C 1.5,0.75 0.75,4.5 0.75,9 0.75,15 3,17.25 9,17.25 15,17.25 17.25,15 17.25,9 17.25,4.5 16.5,0.75 9,0.75 Z"
           style="fill:url(#radialGradient1128-3);stroke:none"
           id="path1130" /></g></g></g><g
     inkscape:groupmode="layer"
     id="layer4"
     inkscape:label="Colors References"
     style="display:inline"
     sodipodi:insensitive="true"
     inkscape:highlight-color="#cc5ecc"><rect
       style="display:inline;fill:#3947be;fill-opacity:1;stroke-width:22.6872;paint-order:markers stroke fill"
       id="rect7816"
       width="1.9999923"
       height="2"
       x="12"
       y="-2.9999964"
       rx="0"
       ry="0"
       inkscape:label="Dark Blue" /><rect
       style="display:inline;fill:#6c7ad8;fill-opacity:1;stroke-width:22.6873;paint-order:markers stroke fill"
       id="rect7820"
       width="2"
       height="2.0000076"
       x="9"
       y="-3.0000041"
       rx="0"
       ry="0"
       inkscape:label="Blue" /><rect
       style="display:inline;fill:#33cc33;fill-opacity:1;stroke-width:22.6873;paint-order:markers stroke fill"
       id="rect7814"
       width="2"
       height="2.0000076"
       x="6"
       y="-3.0000041"
       rx="0"
       ry="0"
       inkscape:label="Green" /><rect
       style="display:inline;fill:#ffc328;fill-opacity:1;stroke-width:22.6872;paint-order:markers stroke fill"
       id="rect7824"
       width="1.9999926"
       height="2.0000002"
       x="3"
       y="-2.9999964"
       rx="0"
       ry="0"
       inkscape:label="Yellow" /><rect
       style="display:inline;fill:#cc5e55;fill-opacity:1;stroke-width:22.6873;paint-order:markers stroke fill"
       id="rect7822"
       width="2"
       height="2.0000076"
       x="0"
       y="-3.0000038"
       rx="0"
       ry="0"
       inkscape:label="Red" /><rect
       style="display:inline;fill:#0bb1cb;fill-opacity:1;stroke-width:22.6872;paint-order:markers stroke fill"
       id="rect3087"
       width="1.9999919"
       height="1.9999996"
       x="-3"
       y="12.000004"
       rx="0"
       ry="0"
       inkscape:label="Blue 4" /><rect
       style="display:inline;fill:#2a92c9;fill-opacity:1;stroke-width:22.6873;paint-order:markers stroke fill"
       id="rect3085"
       width="2"
       height="2.0000079"
       x="-3"
       y="8.9999962"
       rx="0"
       ry="0"
       inkscape:label="Blue 3" /><rect
       style="display:inline;fill:#006699;fill-opacity:1;stroke-width:22.6873;paint-order:markers stroke fill"
       id="rect3089"
       width="2"
       height="2.0000076"
       x="-3"
       y="6.0000038"
       rx="0"
       ry="0"
       inkscape:label="Blue 2" /><rect
       style="display:inline;fill:#002a44;fill-opacity:1;stroke-width:22.6873;paint-order:markers stroke fill"
       id="rect3083"
       width="2"
       height="2.0000076"
       x="-3"
       y="2.9999962"
       rx="0"
       ry="0"
       inkscape:label="Blue 1" /><rect
       style="display:inline;fill:#2c2d3d;fill-opacity:1;stroke-width:22.6873;paint-order:markers stroke fill"
       id="rect3456"
       width="2"
       height="2.0000076"
       x="-3"
       y="-3.8146973e-06"
       rx="0"
       ry="0"
       inkscape:label="Gray" /><rect
       style="display:inline;fill:#16171c;fill-opacity:1;stroke-width:22.6872;paint-order:markers stroke fill"
       id="rect3091"
       width="1.9999924"
       height="2"
       x="-3"
       y="-3"
       rx="0"
       ry="0"
       inkscape:label="Black" /></g><g
     id="g77618"
     transform="matrix(1.3507824,0,0,1.3507824,-7.6246757,14.79967)"><g
       transform="matrix(0.34544512,0,0,0.34544512,6.2375849,-16.511294)"
       id="g83371"><path
         d="M 17.723,28.672 A 0.5,0.5 0 0 0 17.5,28.742 13,13 0 0 0 20.357,52.478 0.5,0.5 0 0 0 20.998,52 v -4.603 a 8,8 0 0 0 1,0.34 v 6.054 c -2.295,-0.334 -4.493,-1.171 -6.359,-2.56 a 13.996,13.996 0 0 1 -4.795,-16.018 0.5,0.5 0 0 0 -0.5,-0.678 0.5,0.5 0 0 0 -0.44,0.336 15,15 0 0 0 12.544,20.049 0.5,0.5 0 0 0 0.551,-0.497 V 47.93 A 8,8 0 0 0 24,48 8,8 0 0 0 25.002,47.928 v 6.496 a 0.5,0.5 0 0 0 0.553,0.497 14.997,14.997 0 0 0 12.54,-20.05 0.5,0.5 0 0 0 -0.505,-0.335 0.5,0.5 0 0 0 -0.435,0.678 13.996,13.996 0 0 1 -4.795,16.016 c -1.866,1.389 -4.061,2.228 -6.358,2.562 V 47.73 a 8,8 0 0 0 1.002,-0.328 V 52 a 0.5,0.5 0 0 0 0.64,0.479 13.001,13.001 0 0 0 8.913,-9.114 13.004,13.004 0 0 0 -6.056,-14.623 0.5,0.5 0 0 0 -0.287,-0.07 0.5,0.5 0 0 0 -0.213,0.936 11.996,11.996 0 0 1 5.591,13.498 c -1.023,3.82 -3.891,6.813 -7.587,8.133 V 46.948 A 2.5,2.5 0 0 0 30,44.5 2.5,2.5 0 0 0 28.453,42.192 C 29.29,38.222 31,39.597 31,38.086 V 37.537 C 31,36.117 26.706,29 24,29 c -2.706,0 -7,7.118 -7,8.537 v 0.55 c 0,1.51 1.709,0.134 2.547,4.103 A 2.5,2.5 0 0 0 18,44.5 2.5,2.5 0 0 0 19.998,46.945 V 51.24 C 16.3,49.92 13.432,46.927 12.408,43.106 A 11.996,11.996 0 0 1 18,29.608 0.5,0.5 0 0 0 17.722,28.672 Z M 20.5,43 A 1.5,1.5 0 0 1 22,44.5 1.5,1.5 0 0 1 20.5,46 1.5,1.5 0 0 1 19,44.5 1.5,1.5 0 0 1 20.5,43 Z m 7,0 A 1.5,1.5 0 0 1 29,44.5 1.5,1.5 0 0 1 27.5,46 1.5,1.5 0 0 1 26,44.5 1.5,1.5 0 0 1 27.5,43 Z"
         fill="#149287"
         id="path83369" /></g></g></svg>
