<svg width="24" height="24" viewBox="0 0 24 24" fill="none" xmlns="http://www.w3.org/2000/svg">
<path fill-rule="evenodd" clip-rule="evenodd" d="M21.3333 4.56742C21.6756 5.07766 21.9595 5.6438 22.185 6.26586C22.6119 7.50549 22.8639 8.78021 22.9411 10.09C23.0478 11.7347 23.0096 13.3758 22.8265 15.0133C22.6895 16.1642 22.3917 17.271 21.933 18.3336C21.756 18.7171 21.5561 19.0758 21.3333 19.4097V14.3935C20.9371 14.1926 20.5999 13.8617 20.363 13.4414C20.1262 13.0211 20 12.5297 20 12.0274C20 11.525 20.1262 11.0336 20.363 10.6133C20.5999 10.1931 20.9371 9.86218 21.3333 9.66124L21.3333 4.56742Z" fill="#ECECEC"/>
<path opacity="0.8" fill-rule="evenodd" clip-rule="evenodd" d="M9.93969 1.06779C9.83043 1.0996 9.71588 1.11486 9.59604 1.11359C8.8536 1.17326 8.12049 1.29157 7.39669 1.46852C4.2905 2.20701 2.33171 4.11908 1.52031 7.20471C1.18868 8.57582 1.01558 9.96436 1.00101 11.3703L1.00101 11.7586C1.0018 11.8359 1.00308 11.9132 1.00483 11.9906C1.00262 12.1006 1.00134 12.2106 1.00101 12.3204L1.00101 12.439C1.00522 13.808 1.15541 15.1622 1.45158 16.5017C2.22559 19.8018 4.26839 21.8208 7.57997 22.5585C9.37913 22.9287 11.1966 23.0661 13.0325 22.9706C14.6647 22.943 16.2531 22.6682 17.7978 22.1463C19.3745 21.5679 20.5901 20.5984 21.4446 19.2379V14.0259C21.0648 13.8601 20.7417 13.5872 20.5147 13.2406C20.2878 12.894 20.1669 12.4887 20.1668 12.0744C20.1669 11.66 20.2878 11.2547 20.5147 10.9081C20.7417 10.5615 21.0648 10.2886 21.4446 10.1229V4.73844C20.6473 3.47362 19.5081 2.5363 18.0269 1.9265C16.8085 1.46308 15.5484 1.18066 14.2467 1.07924C13.5745 1.03162 12.9022 1.00547 12.23 1.00077L11.7887 1.00077C11.1724 1.00508 10.556 1.02742 9.93969 1.06779Z" fill="#DD5349"/>
<path fill-rule="evenodd" clip-rule="evenodd" d="M11.7769 1.00085C11.1645 1.00536 10.5521 1.02767 9.93969 1.06779C9.83043 1.0996 9.71589 1.11486 9.59604 1.11359C8.8536 1.17326 8.12049 1.29157 7.39669 1.46852C4.2905 2.20701 2.33171 4.11908 1.52031 7.20471C1.18079 8.60844 1.00744 10.0304 1.00023 11.4707V11.6581C1.00079 11.7688 1.00232 11.8796 1.00483 11.9906C0.9742 13.5124 1.12311 15.0161 1.45158 16.5017C2.22559 19.8018 4.26839 21.8208 7.57997 22.5585C9.37913 22.9287 11.1966 23.0661 13.0325 22.9706C14.6647 22.943 16.2531 22.6682 17.7978 22.1463C19.3742 21.568 20.5896 20.5988 21.444 19.2387V14.0277C21.0644 13.8617 20.7414 13.5885 20.5146 13.2417C20.2879 12.8949 20.1673 12.4894 20.1675 12.0751C20.1673 11.6607 20.2879 11.2553 20.5146 10.9084C20.7414 10.5616 21.0644 10.2884 21.444 10.1224V4.73763C20.6468 3.47321 19.5078 2.53617 18.0269 1.9265C16.8085 1.46308 15.5484 1.18066 14.2467 1.07924C13.5803 1.03203 12.9138 1.00592 12.2473 1.0009L11.7769 1.00085Z" fill="#EB6F66"/>
<path opacity="0.125" fill-rule="evenodd" clip-rule="evenodd" d="M11.7179 6.14725L15.1122 5.51299C15.5737 5.42676 16 5.78081 16 6.25023V8.49112C16 8.85184 15.7432 9.16147 15.3887 9.22818L12.4496 9.78127C12.1066 9.84428 12.0456 9.90728 12.0456 10.2574V16.6642C12.0456 18.7228 10.3384 19.5 9.21031 19.5C7.92223 19.5 7 18.7297 7 17.6374C7 16.5661 7.72405 15.831 9.27892 15.5369L10.4908 15.2988C10.8033 15.2428 10.9634 15.0327 10.9634 14.7106L10.9176 6.92448C10.9176 6.50435 11.1996 6.25229 11.7179 6.14725Z" fill="black" fill-opacity="0.875"/>
<path fill-rule="evenodd" clip-rule="evenodd" d="M12.2179 5.64725L15.6122 5.01299C16.0737 4.92676 16.5 5.28081 16.5 5.75023V7.99112C16.5 8.35185 16.2432 8.66147 15.8887 8.72818L12.9496 9.28127C12.6066 9.34428 12.5456 9.40728 12.5456 9.75739V16.1642C12.5456 18.2228 10.8384 19 9.71031 19C8.42223 19 7.5 18.2297 7.5 17.1374C7.5 16.0661 8.22405 15.331 9.77892 15.0369L10.9908 14.7988C11.3033 14.7428 11.4634 14.5327 11.4634 14.2106L11.4176 6.42448C11.4176 6.00435 11.6996 5.75229 12.2179 5.64725Z" fill="url(#paint0_linear_8_285)"/>
<defs>
<linearGradient id="paint0_linear_8_285" x1="19.6934" y1="4.53372" x2="8.94502" y2="19.9799" gradientUnits="userSpaceOnUse">
<stop stop-color="#F9F9F9"/>
<stop offset="1" stop-color="#CCCCCC"/>
</linearGradient>
</defs>
</svg>
