<?xml version="1.0" encoding="UTF-8" standalone="no"?>
<svg
   width="24"
   height="24"
   viewBox="0 0 6.349875 6.349875"
   version="1.1"
   id="svg26544"
   sodipodi:docname="google-chrome-developer-tool.svg"
   xml:space="preserve"
   inkscape:version="1.2.2 (b0a8486541, 2022-12-01)"
   inkscape:export-filename="google-chrome-developer-tool.pdf"
   inkscape:export-xdpi="96"
   inkscape:export-ydpi="96"
   xmlns:inkscape="http://www.inkscape.org/namespaces/inkscape"
   xmlns:sodipodi="http://sodipodi.sourceforge.net/DTD/sodipodi-0.dtd"
   xmlns="http://www.w3.org/2000/svg"
   xmlns:svg="http://www.w3.org/2000/svg"><defs
     id="defs26548"><radialGradient
       fx="0"
       fy="0"
       cx="0"
       cy="0"
       r="1"
       gradientUnits="userSpaceOnUse"
       gradientTransform="matrix(0,16.5,-16.5,0,8.999651,0.749985)"
       spreadMethod="pad"
       id="radialGradient868-3"><stop
         style="stop-opacity:1;stop-color:#fafafa"
         offset="0"
         id="stop864-6" /><stop
         style="stop-opacity:1;stop-color:#c0c0c0"
         offset="1"
         id="stop866-7" /></radialGradient><radialGradient
       fx="9.0003405"
       fy="2.847508"
       cx="9.0003405"
       cy="9.0000267"
       r="8.2498646"
       gradientUnits="userSpaceOnUse"
       gradientTransform="matrix(1.363642,0,0,1.363642,-3.273245,-3.272818)"
       spreadMethod="pad"
       id="radialGradient27965"><stop
         style="stop-opacity:1;stop-color:#6aa1ff"
         offset="0"
         id="stop27961" /><stop
         style="stop-opacity:1;stop-color:#2879ff"
         offset="1"
         id="stop27963" /></radialGradient><radialGradient
       fx="9.0003405"
       fy="2.847508"
       cx="9.0003405"
       cy="9.0000267"
       r="8.2498646"
       gradientUnits="userSpaceOnUse"
       gradientTransform="matrix(1.363642,0,0,1.363642,-3.273245,-3.272818)"
       spreadMethod="pad"
       id="radialGradient27965-2"><stop
         style="stop-opacity:1;stop-color:#6aa1ff"
         offset="0"
         id="stop27961-6" /><stop
         style="stop-opacity:1;stop-color:#2879ff"
         offset="1"
         id="stop27963-6" /></radialGradient></defs><sodipodi:namedview
     id="namedview26546"
     pagecolor="#ffffff"
     bordercolor="#000000"
     borderopacity="0.25"
     inkscape:showpageshadow="2"
     inkscape:pageopacity="0.0"
     inkscape:pagecheckerboard="0"
     inkscape:deskcolor="#d1d1d1"
     showgrid="false"
     inkscape:zoom="6.625"
     inkscape:cx="108.5283"
     inkscape:cy="5.2075472"
     inkscape:window-width="2560"
     inkscape:window-height="1000"
     inkscape:window-x="1680"
     inkscape:window-y="0"
     inkscape:window-maximized="1"
     inkscape:current-layer="svg26544" /><style
     id="style26698">.e{fill:#fff}.a{stroke:#fff}.b{stop-color:#fff}.c{stop-color:#1a237e}.d{stop-opacity:0}.f{stop-opacity:.12}</style><g
     id="g27949"
     transform="matrix(0.35277082,0,0,0.35277082,-3.5910732e-5,1.2e-7)"><g
       id="g27951"><g
         id="g27953"><g
           id="g27959"><path
             d="m 7.195,0.836 c 0.09,0 0.176,-0.012 0.258,-0.035 1.078,-0.071 2.156,-0.067 3.231,0.008 0.976,0.078 1.921,0.289 2.836,0.636 1.519,0.625 2.558,1.711 3.121,3.254 0.316,0.93 0.507,1.887 0.566,2.867 0.078,1.235 0.051,2.465 -0.086,3.696 -0.105,0.863 -0.328,1.691 -0.672,2.488 -0.637,1.383 -1.672,2.336 -3.101,2.859 C 12.191,17 11,17.207 9.773,17.227 8.398,17.301 7.035,17.195 5.684,16.918 3.203,16.367 1.668,14.852 1.09,12.375 0.844,11.262 0.73,10.133 0.754,8.992 0.727,7.781 0.855,6.582 1.141,5.402 1.75,3.09 3.219,1.656 5.547,1.102 6.09,0.969 6.641,0.879 7.195,0.836 Z"
             style="fill:url(#radialGradient27965-2);fill-rule:evenodd;stroke:none"
             id="path27967" /></g></g></g><g
       id="g27969"><path
         d="m 0.766,0.766 16.468,16.468 m 0,-16.468 L 0.766,17.234 M 11.379,0.766 V 17.234 M 6.621,0.766 V 17.234 M 17.234,11.379 H 0.766 M 17.234,6.621 H 0.766"
         style="fill:none;stroke:#ffffff;stroke-width:0.0428899;stroke-linecap:butt;stroke-linejoin:miter;stroke-miterlimit:4;stroke-dasharray:none;stroke-opacity:0.2"
         id="path27971" /></g><g
       id="g27973"><path
         d="M 13.078,9 C 13.078,11.25 11.25,13.078 9,13.078 6.75,13.078 4.922,11.25 4.922,9 4.922,6.75 6.75,4.922 9,4.922 c 2.25,0 4.078,1.828 4.078,4.078 z"
         style="fill:none;stroke:#ffffff;stroke-width:0.0522617;stroke-linecap:butt;stroke-linejoin:miter;stroke-miterlimit:4;stroke-dasharray:none;stroke-opacity:0.2"
         id="path27975" /></g><g
       id="g27977"><path
         d="m 0.75,9 h 16.5 M 9,0.75 v 16.5"
         style="fill:none;stroke:#ffffff;stroke-width:0.0429687;stroke-linecap:butt;stroke-linejoin:miter;stroke-miterlimit:4;stroke-dasharray:none;stroke-opacity:0.2"
         id="path27979" /></g><g
       id="g27981"><path
         d="m 8.992,14.43 c 3.004,0 5.438,-2.434 5.438,-5.438 0,-3.004 -2.434,-5.437 -5.438,-5.437 -3.004,0 -5.437,2.433 -5.437,5.437 0,3.004 2.433,5.438 5.437,5.438 z"
         style="fill:none;stroke:#ffffff;stroke-width:0.362574;stroke-linecap:butt;stroke-linejoin:miter;stroke-miterlimit:4;stroke-dasharray:none;stroke-opacity:1"
         id="path27983" /></g><g
       id="g27985"><path
         d="m 11.531,8.992 c 0,1.403 -1.136,2.539 -2.539,2.539 -1.402,0 -2.539,-1.136 -2.539,-2.539 0,-1.402 1.137,-2.539 2.539,-2.539 1.403,0 2.539,1.137 2.539,2.539 z"
         style="fill:none;stroke:#ffffff;stroke-width:0.362574;stroke-linecap:butt;stroke-linejoin:miter;stroke-miterlimit:4;stroke-dasharray:none;stroke-opacity:1"
         id="path27987" /></g><g
       id="g27989"><path
         d="m 10.805,8.992 c 0,1 -0.813,1.813 -1.813,1.813 -1.004,0 -1.812,-0.813 -1.812,-1.813 0,-1 0.808,-1.812 1.812,-1.812 1,0 1.813,0.812 1.813,1.812 z"
         style="fill:none;stroke:#ffffff;stroke-width:0.362574;stroke-linecap:butt;stroke-linejoin:miter;stroke-miterlimit:4;stroke-dasharray:none;stroke-opacity:1"
         id="path27991" /></g><path
       d="m 8.992,6.453 h 4.805 V 6.637 H 8.992 Z m 2.199,3.809 -2.402,4.16 -0.16,-0.09 2.402,-4.16 z m -4.398,0 -2.402,-4.16 0.156,-0.094 2.402,4.164 z"
       style="fill:#ffffff;fill-opacity:1;fill-rule:nonzero;stroke:none"
       id="path27993" /></g></svg>
