<?xml version="1.0" encoding="UTF-8" standalone="no"?>
<svg
   width="24"
   height="24"
   viewBox="0 0 6.349875 6.349875"
   version="1.1"
   id="svg10"
   sodipodi:docname="org.gnome.Taquin.svg"
   inkscape:version="1.3 (0e150ed6c4, 2023-07-21)"
   xmlns:inkscape="http://www.inkscape.org/namespaces/inkscape"
   xmlns:sodipodi="http://sodipodi.sourceforge.net/DTD/sodipodi-0.dtd"
   xmlns:xlink="http://www.w3.org/1999/xlink"
   xmlns="http://www.w3.org/2000/svg"
   xmlns:svg="http://www.w3.org/2000/svg">
  <defs
     id="defs10">
    <linearGradient
       inkscape:collect="always"
       id="linearGradient2597">
      <stop
         style="stop-color:#4d4d4d;stop-opacity:1"
         offset="0"
         id="stop2593" />
      <stop
         style="stop-color:#949494;stop-opacity:1;"
         offset="1"
         id="stop2595" />
    </linearGradient>
    <linearGradient
       inkscape:collect="always"
       xlink:href="#linearGradient2597"
       id="linearGradient10"
       gradientUnits="userSpaceOnUse"
       x1="236.0594"
       y1="-0.63604528"
       x2="222.89369"
       y2="515.02106"
       gradientTransform="matrix(-0.01304037,0,0,-0.01304037,6.0853105,6.0853017)" />
  </defs>
  <sodipodi:namedview
     id="namedview10"
     pagecolor="#ffffff"
     bordercolor="#000000"
     borderopacity="0.25"
     inkscape:showpageshadow="2"
     inkscape:pageopacity="0.0"
     inkscape:pagecheckerboard="0"
     inkscape:deskcolor="#d1d1d1"
     inkscape:zoom="4.4801844"
     inkscape:cx="42.743776"
     inkscape:cy="29.797881"
     inkscape:window-width="2560"
     inkscape:window-height="998"
     inkscape:window-x="0"
     inkscape:window-y="0"
     inkscape:window-maximized="1"
     inkscape:current-layer="svg10" />
  <path
     d="m 3.8109917,6.0552436 c -0.03174,-3.52e-4 -0.062046,0.00372 -0.090931,0.012128 -0.3799051,0.024855 -0.7597058,0.02389 -1.1395588,-0.00305 C 2.2361062,6.0375218 1.9027161,5.9627874 1.5803191,5.8401819 1.044399,5.6195127 0.67767771,5.236817 0.48019434,4.6920686 0.36726474,4.3640772 0.30057629,4.0268141 0.28015507,3.6802663 0.25193571,3.2450961 0.26201591,2.8108909 0.31046089,2.3776637 0.3467392,2.073145 0.42552911,1.7803496 0.54686976,1.4991601 0.77192046,1.0116849 1.1365944,0.675439 1.6409438,0.49042223 2.0496681,0.35232472 2.4699201,0.27963769 2.901778,0.27234813 3.3874796,0.24708893 3.8683433,0.28340636 4.3443689,0.38136562 5.2205775,0.57655388 5.7610356,1.1107005 5.9658085,1.9838445 c 0.086953,0.393102 0.1263221,0.7909376 0.118224,1.193559 0.00969,0.4281414 -0.035757,0.8502191 -0.1364153,1.266233 C 5.7329597,5.2600419 5.2147093,5.7659691 4.3928661,5.9613139 4.2013813,6.008181 4.0074058,6.0394518 3.8109917,6.0552436 Z"
     style="fill:url(#linearGradient10);fill-opacity:1;fill-rule:evenodd;stroke:none;stroke-width:0.286756"
     id="path260" />
  <g
     id="g20"
     transform="matrix(0.35705541,0,0,0.35705541,0.15192807,0.1515664)"
     style="stroke-width:2.80068">
    <rect
       x="2.9100003"
       y="2.9100111"
       width="3.175"
       height="3.175"
       rx="0.52899998"
       ry="0.52899998"
       fill="#ffffff"
       id="rect12"
       style="stroke-width:2.80068" />
    <rect
       x="6.8790011"
       y="2.9100111"
       width="3.175"
       height="3.175"
       rx="0.52899998"
       ry="0.52899998"
       fill="#999999"
       id="rect13"
       style="stroke-width:2.80068" />
    <rect
       x="10.847999"
       y="2.9100111"
       width="3.175"
       height="3.175"
       rx="0.52899998"
       ry="0.52899998"
       fill="#ffffff"
       id="rect14"
       style="stroke-width:2.80068" />
    <rect
       x="2.9100003"
       y="6.880012"
       width="3.175"
       height="3.175"
       rx="0.52899998"
       ry="0.52899998"
       fill="#999999"
       id="rect15"
       style="stroke-width:2.80068" />
    <rect
       x="6.8790011"
       y="6.880012"
       width="3.175"
       height="3.175"
       rx="0.52899998"
       ry="0.52899998"
       fill="#ffffff"
       id="rect16"
       style="stroke-width:2.80068" />
    <rect
       x="10.847999"
       y="6.880012"
       width="3.175"
       height="3.175"
       rx="0.52899998"
       ry="0.52899998"
       fill="#999999"
       id="rect17"
       style="stroke-width:2.80068" />
    <rect
       x="2.9100003"
       y="10.850014"
       width="3.175"
       height="3.175"
       rx="0.52899998"
       ry="0.52899998"
       fill="#ffffff"
       id="rect18"
       style="stroke-width:2.80068" />
    <rect
       x="6.8790011"
       y="10.850014"
       width="3.175"
       height="3.175"
       rx="0.52899998"
       ry="0.52899998"
       fill="#999999"
       id="rect19"
       style="stroke-width:2.80068" />
    <rect
       x="10.847999"
       y="10.850014"
       width="3.175"
       height="3.175"
       rx="0.52899998"
       ry="0.52899998"
       fill="#ffffff"
       id="rect20"
       style="stroke-width:2.80068" />
  </g>
</svg>
