<?xml version="1.0" encoding="UTF-8" standalone="no"?>
<svg
   width="24"
   height="24"
   viewBox="0 0 6.349875 6.349875"
   version="1.1"
   id="svg5"
   sodipodi:docname="streamlink-twitch-gui.svg"
   inkscape:version="1.3 (0e150ed6c4, 2023-07-21)"
   xmlns:inkscape="http://www.inkscape.org/namespaces/inkscape"
   xmlns:sodipodi="http://sodipodi.sourceforge.net/DTD/sodipodi-0.dtd"
   xmlns="http://www.w3.org/2000/svg"
   xmlns:svg="http://www.w3.org/2000/svg">
  <defs
     id="defs5">
    <radialGradient
       fx="0"
       fy="0"
       cx="0"
       cy="0"
       r="1"
       gradientUnits="userSpaceOnUse"
       gradientTransform="matrix(0,2.9103406,-2.9103406,0,3.1748192,0.26456853)"
       spreadMethod="pad"
       id="radialGradient13384-2">
      <stop
         style="stop-color:#7a59b5;stop-opacity:1;"
         offset="0"
         id="stop13380-9" />
      <stop
         style="stop-color:#52377f;stop-opacity:1;"
         offset="1"
         id="stop13382-1" />
    </radialGradient>
  </defs>
  <sodipodi:namedview
     id="namedview5"
     pagecolor="#ffffff"
     bordercolor="#000000"
     borderopacity="0.25"
     inkscape:showpageshadow="2"
     inkscape:pageopacity="0.0"
     inkscape:pagecheckerboard="0"
     inkscape:deskcolor="#d1d1d1"
     inkscape:zoom="9.6875"
     inkscape:cx="31.948387"
     inkscape:cy="31.948387"
     inkscape:window-width="2560"
     inkscape:window-height="998"
     inkscape:window-x="0"
     inkscape:window-y="0"
     inkscape:window-maximized="1"
     inkscape:current-layer="svg5" />
  <path
     d="m 2.5380664,0.29490717 c 0.031749,0 0.062088,-0.004233 0.091015,-0.012347 0.3802869,-0.0250467 0.7605739,-0.0236357 1.1398025,0.002822 C 4.1131882,0.31289827 4.4465567,0.38733294 4.769342,0.50974441 5.3052008,0.73022618 5.6717297,1.1133353 5.8703397,1.6576607 5.9818153,1.9857375 6.0491945,2.3233392 6.070008,2.6690546 6.097524,3.1047266 6.087999,3.5386347 6.03967,3.9728955 6.0026287,4.277337 5.9239608,4.5694312 5.8026076,4.8505895 5.5778926,5.3384716 5.2127748,5.6746622 4.7086653,5.8591613 4.3005095,5.9970947 3.8803594,6.0701183 3.4475096,6.0771737 2.9624497,6.1032787 2.4816231,6.065885 2.0050297,5.9681675 1.1298053,5.7737908 0.58830211,5.239343 0.38440058,4.3655297 0.29761896,3.9728957 0.25740308,3.5746175 0.26586958,3.172106 0.25634477,2.7434894 0.30149943,2.3219283 0.40239189,1.9056587 0.61722932,1.0900526 1.1354497,0.58417925 1.9567001,0.38874421 2.1482547,0.34182569 2.3426314,0.31007632 2.5380664,0.29490717 Z"
     style="fill:url(#radialGradient13384-2);fill-rule:evenodd;stroke:none;stroke-width:0.352771"
     id="path13386" />
  <g
     transform="matrix(0.25999495,0,0,0.25999495,0.97369001,-71.842336)"
     id="g9">
    <path
       d="m 6.085,281.919 a 0.264,0.264 0 0 0 -0.264,0.264 v 5.292 c 0,0.147 0.118,0.265 0.264,0.265 h 4.077 l 1.48,1.315 c 0.19,0.04 0.264,-0.07 0.264,-0.265 v -1.05 h 3.175 a 0.264,0.264 0 0 0 0.265,-0.265 v -5.292 a 0.264,0.264 0 0 0 -0.265,-0.264 z"
       fill="#4d4d4d"
       paint-order="markers stroke fill"
       id="path5" />
    <path
       d="m 10.296,282.823 c -0.244,0 -0.52,0.066 -0.814,0.207 -0.824,0.396 -0.845,1.215 -0.725,2.968 0.028,0.372 -0.18,0.649 -0.488,1.058 l 0.224,0.265 0.246,-0.265 c 0.035,-0.068 0.074,-0.135 0.119,-0.198 0.175,-0.247 0.177,-0.26 0.177,-0.425 0.006,-0.305 0.015,-0.435 0.12,-0.547 -0.055,-0.066 -0.119,-0.138 -0.121,-0.218 -0.006,-0.14 0.087,-0.212 0.21,-0.306 -0.1,-0.113 -0.222,-0.242 -0.222,-0.502 0,-0.328 0.159,-0.595 0.36,-0.595 0.201,0 0.455,0.223 0.455,0.55 A 0.7,0.7 0 0 1 9.8,285.02 c 0.136,-0.028 0.288,-0.044 0.441,-0.016 a 0.709,0.709 0 0 1 -0.021,-0.175 c 0,-0.358 0.259,-0.684 0.579,-0.683 0.32,0 0.578,0.326 0.578,0.683 a 0.677,0.677 0 0 1 -0.222,0.509 c 0.108,0.049 0.186,0.113 0.178,0.22 a 0.838,0.838 0 0 1 -0.109,0.334 c 0.082,0.1 0.117,0.247 0.289,0.5 0.155,0.225 0.203,0.41 0.295,0.664 l 0.548,0.133 0.36,-0.651 a 2.62,2.62 0 0 1 -0.49,-1.081 c -0.195,-0.992 0.105,-1.262 -0.534,-2.099 -0.338,-0.442 -0.97,-0.536 -1.396,-0.535 m 0.483,1.752 c -0.166,0 -0.3,0.154 -0.3,0.344 0,0.074 0.021,0.147 0.06,0.206 a 0.686,0.686 0 0 0 0.161,0.072 c 0.055,0.017 0.111,0.034 0.17,0.05 0.126,-0.046 0.21,-0.179 0.211,-0.328 0,-0.19 -0.135,-0.344 -0.302,-0.344 z m -1.385,0.017 H 9.371 c -0.124,0.014 -0.207,0.177 -0.187,0.366 0.016,0.143 0.088,0.265 0.18,0.305 0.073,-0.061 0.167,-0.141 0.26,-0.19 a 0.49,0.49 0 0 0 0.008,-0.162 c -0.019,-0.176 -0.121,-0.314 -0.237,-0.32 z"
       fill="#ffffff"
       id="path6" />
    <rect
       width="11.642"
       height="7.408"
       x="1.587"
       y="285.888"
       ry="0.26499999"
       fill="#7a59b5"
       paint-order="stroke markers fill"
       id="rect6" />
    <path
       d="m 4.233,290.642 h 2.91 c 0.147,0 0.304,0.123 0.265,0.265 L 6.9,292.754 c -0.04,0.141 -0.176,0.172 -0.285,0.27 l -2.382,2.116 c -0.19,0.04 -0.264,-0.07 -0.264,-0.265 v -3.968 c 0,-0.147 0.118,-0.265 0.264,-0.265 z"
       fill="#7a59b5"
       paint-order="markers stroke fill"
       id="path7" />
    <g
       transform="translate(-0.265,-0.265)"
       fill="#ffffff"
       paint-order="stroke fill markers"
       id="g8">
      <rect
         ry="0"
         rx="0"
         y="288.26901"
         x="5.8210001"
         height="3.175"
         width="1.058"
         id="rect7" />
      <rect
         width="1.058"
         height="3.175"
         x="8.467"
         y="288.26901"
         rx="0"
         ry="0"
         id="rect8" />
    </g>
  </g>
</svg>
