<?xml version="1.0" encoding="UTF-8" standalone="no"?>
<svg
   width="24"
   height="24"
   viewBox="0 0 6.349875 6.349875"
   version="1.1"
   id="svg8"
   sodipodi:docname="gnome-tetravex.svg"
   inkscape:version="1.3 (0e150ed6c4, 2023-07-21)"
   xmlns:inkscape="http://www.inkscape.org/namespaces/inkscape"
   xmlns:sodipodi="http://sodipodi.sourceforge.net/DTD/sodipodi-0.dtd"
   xmlns="http://www.w3.org/2000/svg"
   xmlns:svg="http://www.w3.org/2000/svg">
  <defs
     id="defs8">
    <radialGradient
       fx="0"
       fy="0"
       cx="0"
       cy="0"
       r="1"
       gradientUnits="userSpaceOnUse"
       gradientTransform="matrix(0,5.8207184,-5.8207184,0,3.1748178,0.26456873)"
       spreadMethod="pad"
       id="radialGradient2-2">
      <stop
         style="stop-color:#fafafa;stop-opacity:0.5;"
         offset="0"
         id="stop1-7" />
      <stop
         style="stop-color:#c0c0c0;stop-opacity:0;"
         offset="1"
         id="stop2-0" />
    </radialGradient>
    <clipPath
       clipPathUnits="userSpaceOnUse"
       id="clipPath11-9">
      <path
         d="M 0,0 H 19 V 19 H 0 Z"
         id="path11-3" />
    </clipPath>
  </defs>
  <sodipodi:namedview
     id="namedview8"
     pagecolor="#ffffff"
     bordercolor="#000000"
     borderopacity="0.25"
     inkscape:showpageshadow="2"
     inkscape:pageopacity="0.0"
     inkscape:pagecheckerboard="0"
     inkscape:deskcolor="#d1d1d1"
     inkscape:zoom="8.9603687"
     inkscape:cx="40.009514"
     inkscape:cy="37.777463"
     inkscape:window-width="2560"
     inkscape:window-height="998"
     inkscape:window-x="0"
     inkscape:window-y="0"
     inkscape:window-maximized="1"
     inkscape:current-layer="svg8" />
  <path
     id="path9"
     style="fill:#e41c1c;fill-opacity:1;stroke-width:0.962;paint-order:markers stroke fill"
     d="M 0.9337747,0.93377475 C 0.6846896,1.1841309 0.507335,1.5079882 0.402551,1.9057893 0.30166,2.3220584 0.256112,2.7451486 0.265612,3.1723537 0.257142,3.5748647 0.297685,3.9729056 0.384465,4.3655391 0.485535,4.7986735 0.6698618,5.148267 0.9363585,5.41455 L 3.1754543,3.1754543 Z" />
  <path
     id="path10"
     style="fill:#84de2c;fill-opacity:1;stroke-width:0.962;paint-order:markers stroke fill"
     d="M 5.4171338,0.933258 3.1754543,3.1754543 5.4150667,5.4150667 C 5.5722233,5.2572713 5.7018409,5.0696011 5.8026324,4.8507712 5.9239855,4.5696131 6.0027815,4.2772469 6.0398225,3.9728059 6.0881515,3.5385452 6.0973102,3.1047066 6.0697943,2.6690352 6.0489808,2.32332 5.9818028,1.9858238 5.8703271,1.6577473 5.7658923,1.371525 5.614632,1.1301235 5.4171338,0.933258 Z" />
  <path
     id="path11"
     style="fill:#8c638e;fill-opacity:1;stroke-width:0.962;paint-order:markers stroke fill"
     d="M 3.1754543,3.1754543 0.9363585,5.41455 c 0.271138,0.2709206 0.6272581,0.4554164 1.0686476,0.5534437 0.476593,0.097716 0.9572015,0.1351411 1.4422608,0.1090351 C 3.8801163,6.0699688 4.3005083,5.9968918 4.7086638,5.8589586 4.9866644,5.757213 5.2218426,5.6090764 5.4150667,5.4150667 Z" />
  <path
     id="path12"
     style="fill:#6f9ccd;fill-opacity:1;stroke-width:0.962;paint-order:markers stroke fill"
     d="m 3.1992249,0.26457812 c -0.190011,-5.2912e-4 -0.3798366,0.005563 -0.5699798,0.0180864 -0.028927,0.008114 -0.0592,0.0124021 -0.090949,0.0124021 C 2.3428612,0.31023572 2.148502,0.34168072 1.9569477,0.38859912 1.5362521,0.4887131 1.1953846,0.67082961 0.9337744,0.93377475 L 3.1754543,3.1754543 5.4171338,0.933258 C 5.2390386,0.75573338 5.023212,0.61406534 4.7691241,0.50951959 4.4463391,0.38710825 4.1129919,0.31276436 3.768688,0.28524829 3.579074,0.27201949 3.389236,0.26510729 3.1992249,0.26457812 Z" />
  <path
     id="path2-6"
     d="m 2.5380664,0.29490701 c 0.031749,0 0.062088,-0.004233 0.091015,-0.0123471 0.3802868,-0.0250467 0.760574,-0.0236357 1.1398025,0.002822 0.3443042,0.0275161 0.6776727,0.10195079 1.000458,0.22436225 0.5358588,0.22048175 0.9023878,0.60359084 1.1009976,1.14791624 0.1114758,0.3280768 0.1788549,0.6656785 0.1996684,1.011394 0.027516,0.4356718 0.017991,0.8695799 -0.030338,1.303841 C 6.0026285,4.2773367 5.9239607,4.569431 5.8026074,4.8505894 5.5778925,5.3384715 5.2127747,5.6746619 4.7086653,5.8591612 4.3005094,5.9970945 3.8803593,6.0701181 3.4475095,6.0771736 2.9624497,6.1032795 2.4816231,6.065884 2.0050296,5.9681674 1.1298054,5.7737906 0.58830212,5.2393428 0.38440049,4.3655296 0.29761887,3.9728957 0.257403,3.5746172 0.2658695,3.1721058 0.25634468,2.7449002 0.30149944,2.3219281 0.40239181,1.9056586 0.61722924,1.0900524 1.1354497,0.58417908 1.9567002,0.38874406 2.1482547,0.34182555 2.3426313,0.31007618 2.5380664,0.29490701 Z"
     style="fill:url(#radialGradient2-2);fill-rule:evenodd;stroke:none;stroke-width:0.35277" />
  <path
     d="m 3.2058202,2.1451624 c -0.1430005,0 -0.2284624,-0.1286159 -0.2453855,-0.3646937 0.074462,-0.1057696 0.161616,-0.145962 0.2326932,-0.145962 0.1383467,0 0.2051931,0.097731 0.2051931,0.2513086 0,0.1552698 -0.08377,0.2593471 -0.1925008,0.2593471 z M 3.5108598,1.1923896 A 0.34946285,0.34946285 0 0 0 3.2455896,1.076043 c -0.2200008,0 -0.42054,0.1709237 -0.42054,0.6164254 0,0.3756937 0.1611929,0.5635406 0.3803476,0.5635406 0.1768468,0 0.3257704,-0.1493467 0.3257704,-0.3697706 0,-0.2373471 -0.1226928,-0.3566552 -0.3151935,-0.3566552 -0.089693,0 -0.1891161,0.052462 -0.258924,0.1379236 0.00592,-0.3536937 0.1379236,-0.4734249 0.2931934,-0.4734249 a 0.24115475,0.24115475 0 0 1 0.183193,0.086731 z"
     fill="#ffffff"
     font-family="sans-serif"
     font-size="3.528px"
     font-weight="400"
     letter-spacing="0"
     word-spacing="0"
     aria-label="6"
     id="path13"
     style="stroke-width:0.962" />
  <path
     d="M 1.0625045,3.7448223 H 1.7783533 V 3.6221295 H 1.4631599 c -0.057539,0 -0.1273467,0.00635 -0.1861546,0.011 C 1.5435448,3.3801286 1.722507,3.1487046 1.722507,2.9223576 c 0,-0.2035007 -0.1273467,-0.3371935 -0.3308474,-0.3371935 -0.1442698,0 -0.2420009,0.066846 -0.3350782,0.1679621 l 0.082077,0.080385 c 0.062193,-0.074462 0.1430006,-0.1315774 0.2360778,-0.1315774 0.1413083,0 0.2094239,0.094346 0.2094239,0.2250778 0,0.1954623 -0.1645775,0.4222324 -0.5216558,0.7340412 z"
     fill="#ffffff"
     font-family="sans-serif"
     font-size="3.528px"
     font-weight="400"
     letter-spacing="0"
     word-spacing="0"
     aria-label="2"
     id="path14"
     style="stroke-width:0.962" />
  <path
     d="m 4.9036343,3.7647069 c 0.1925007,0 0.3723091,-0.1408851 0.3723091,-0.3909245 0,-0.2496163 -0.1535775,-0.3617321 -0.3426936,-0.3617321 A 0.32661661,0.32661661 0 0 0 4.7640184,3.0573197 L 4.7919416,2.7281646 H 5.2217893 V 2.6071641 H 4.6675565 l -0.035539,0.5322328 0.076154,0.046539 c 0.065154,-0.043154 0.1133851,-0.066423 0.1891161,-0.066423 0.1430006,0 0.2360778,0.096039 0.2360778,0.2589241 0,0.1662698 -0.1087311,0.2686548 -0.2420009,0.2686548 -0.1320005,0 -0.2145008,-0.0605 -0.2792318,-0.1256543 l -0.070231,0.093077 C 4.6180563,3.6906682 4.7267875,3.76513 4.9036343,3.76513 Z"
     fill="#ffffff"
     font-family="sans-serif"
     font-size="3.528px"
     font-weight="400"
     letter-spacing="0"
     word-spacing="0"
     aria-label="5"
     id="path15"
     style="stroke-width:0.962" />
  <path
     d="M 3.0454735,5.2442125 H 3.193551 C 3.2104741,4.7987108 3.2599743,4.5351329 3.5269368,4.1920162 V 4.1065544 H 2.8144726 V 4.2275548 H 3.3657439 C 3.1436277,4.5380945 3.064512,4.8126724 3.0458966,5.2442125 Z"
     fill="#ffffff"
     font-family="sans-serif"
     font-size="3.528px"
     font-weight="400"
     letter-spacing="0"
     word-spacing="0"
     aria-label="7"
     id="path16"
     style="stroke-width:0.962" />
</svg>
