<svg xmlns="http://www.w3.org/2000/svg" width="24" height="24" fill="none"><g style="stroke-width:.759852"><g fill="#fff" style="fill:none;stroke-width:.759852"><path d="M-21.902 6.835a7.98 7.98 0 0 0-8-8 7.98 7.98 0 0 0-8 8 7.98 7.98 0 0 0 8 8 7.98 7.98 0 0 0 8-8zm-5.074 0a2.913 2.913 0 0 1-2.926 2.928 2.913 2.913 0 0 1-2.93-2.928c0-1.61 1.188-2.926 2.928-2.926s2.928 1.348 2.928 2.926z" opacity=".75" style="stroke-width:.759852" transform="matrix(1.21 0 0 1.21 49.17 3.82)"/><path d="M-29.903 2.833a4.002 4.002 0 1 0 .002 8.004 4.002 4.002 0 0 0-.002-8.004zm0 2a2.002 2.002 0 1 1 .001 4.004 2.002 2.002 0 0 1-.003-4.004z" opacity=".35" style="stroke-width:.759852" transform="matrix(1.21 0 0 1.21 49.17 3.82)"/></g></g><path d="M11.776 1c-.61.005-1.224.027-1.838.068-.11.03-.224.047-.344.047-.74.057-1.474.177-2.198.354-3.104.74-5.062 2.651-5.874 5.734A18.461 18.461 0 0 0 1 11.469v.187c0 .115 0 .224.006.333-.033 1.522.12 3.027.448 4.511.77 3.303 2.817 5.323 6.125 6.057 1.801.37 3.619.511 5.452.412a15.591 15.591 0 0 0 4.767-.824c1.577-.577 2.79-1.546 3.645-2.905v-5.213a2.104 2.104 0 0 1-.927-.787 2.121 2.121 0 0 1 0-2.333c.224-.344.547-.62.927-.782V4.74c-.797-1.267-1.937-2.204-3.416-2.813a13.68 13.68 0 0 0-3.781-.848 31.33 31.33 0 0 0-2-.079z" style="fill:#eb6f66;fill-opacity:1;fill-rule:evenodd;stroke:none;stroke-width:1.33333"/><g style="opacity:.35;stroke-width:.759852"><g style="stroke-width:.759852"><g fill="#fff" style="fill:none;stroke-width:.759852"><path d="M-21.902 6.835a7.98 7.98 0 0 0-8-8 7.98 7.98 0 0 0-8 8 7.98 7.98 0 0 0 8 8 7.98 7.98 0 0 0 8-8zm-5.074 0a2.913 2.913 0 0 1-2.926 2.928 2.913 2.913 0 0 1-2.93-2.928c0-1.61 1.188-2.926 2.928-2.926s2.928 1.348 2.928 2.926z" opacity=".75" style="stroke-width:.759852" transform="matrix(1.21 0 0 1.21 49.17 3.82)"/><path d="M-29.903 2.833a4.002 4.002 0 1 0 .002 8.004 4.002 4.002 0 0 0-.002-8.004zm0 2a2.002 2.002 0 1 1 .001 4.004 2.002 2.002 0 0 1-.003-4.004z" opacity=".35" style="stroke-width:.759852" transform="matrix(1.21 0 0 1.21 49.17 3.82)"/></g></g></g><path fill="#000" fill-opacity=".875" fill-rule="evenodd" d="m12.93 6.693 2.951-.551a.652.652 0 0 1 .772.641v1.949a.652.652 0 0 1-.531.64l-2.556.482c-.298.054-.351.11-.351.414v5.571c0 1.79-1.485 2.466-2.466 2.466-1.12 0-1.922-.67-1.922-1.62 0-.931.63-1.57 1.982-1.826l1.054-.207c.271-.049.41-.232.41-.512l-.04-6.77c0-.366.246-.585.697-.677z" clip-rule="evenodd" opacity=".125" style="fill:#fff;stroke-width:1.14994"/><path d="m13.366 6.3 2.953-.553c.401-.077.77.23.77.642v1.948a.653.653 0 0 1-.53.64l-2.557.478c-.298.058-.35.11-.35.418v5.573c0 1.787-1.484 2.463-2.468 2.463-1.12 0-1.922-.672-1.922-1.62 0-.932.63-1.572 1.985-1.828l1.052-.203c.27-.052.41-.235.41-.516l-.04-6.77c0-.365.245-.583.697-.673z" style="fill:#fff;fill-opacity:1;fill-rule:evenodd;stroke:none;stroke-width:1.33333"/></svg>