<?xml version="1.0" encoding="UTF-8" standalone="no"?>
<svg
   width="24"
   height="24"
   viewBox="0 0 6.349875 6.349875"
   version="1.1"
   id="svg2506"
   sodipodi:docname="web-lastfm.svg"
   xml:space="preserve"
   inkscape:version="1.2.2 (b0a8486541, 2022-12-01)"
   xmlns:inkscape="http://www.inkscape.org/namespaces/inkscape"
   xmlns:sodipodi="http://sodipodi.sourceforge.net/DTD/sodipodi-0.dtd"
   xmlns="http://www.w3.org/2000/svg"
   xmlns:svg="http://www.w3.org/2000/svg"><defs
     id="defs2510"><linearGradient
       x1="12"
       y1="1"
       x2="12"
       y2="23"
       gradientUnits="userSpaceOnUse"
       gradientTransform="matrix(0.75,0,0,0.75,-7.98374e-6,-2.49454e-5)"
       spreadMethod="pad"
       id="linearGradient38255-1"><stop
         style="stop-opacity:1;stop-color:#4a74d2"
         offset="0"
         id="stop38251-9" /><stop
         style="stop-opacity:1;stop-color:#375295"
         offset="1"
         id="stop38253-4" /></linearGradient><linearGradient
       id="paint0_linear_18_187"
       x1="12"
       y1="1"
       x2="12"
       y2="23"
       gradientUnits="userSpaceOnUse"
       gradientTransform="matrix(0.26457812,0,0,0.26457812,-2.8164292e-6,9.3778578e-6)"><stop
         stop-color="#33BEF0"
         id="stop43245"
         offset="0"
         style="stop-color:#ff5f5f;stop-opacity:1;" /><stop
         offset="1"
         stop-color="#0A85D9"
         id="stop43247"
         style="stop-color:#e82e34;stop-opacity:1;" /></linearGradient><linearGradient
       x1="12"
       y1="1"
       x2="12"
       y2="23"
       gradientUnits="userSpaceOnUse"
       gradientTransform="matrix(0.75,0,0,0.75,-7.98374e-6,2.65834e-5)"
       spreadMethod="pad"
       id="linearGradient44915"><stop
         style="stop-opacity:1;stop-color:#ff5f5f"
         offset="0"
         id="stop44911" /><stop
         style="stop-opacity:1;stop-color:#e82e34"
         offset="1"
         id="stop44913" /></linearGradient></defs><sodipodi:namedview
     id="namedview2508"
     pagecolor="#ffffff"
     bordercolor="#000000"
     borderopacity="0.25"
     inkscape:showpageshadow="2"
     inkscape:pageopacity="0.0"
     inkscape:pagecheckerboard="0"
     inkscape:deskcolor="#d1d1d1"
     showgrid="false"
     inkscape:zoom="6.828125"
     inkscape:cx="0.43935927"
     inkscape:cy="24.16476"
     inkscape:window-width="2560"
     inkscape:window-height="998"
     inkscape:window-x="1680"
     inkscape:window-y="0"
     inkscape:window-maximized="1"
     inkscape:current-layer="svg2506" /><g
     id="g44901"
     transform="matrix(0.35277082,0,0,0.35277082,-1.1961624e-4,-9.2306512e-6)"><g
       id="g44903"><g
         id="g44909"><path
           d="m 7.195,0.836 c 0.09,0 0.176,-0.012 0.258,-0.035 1.078,-0.071 2.156,-0.067 3.231,0.008 0.976,0.078 1.921,0.289 2.836,0.636 1.519,0.625 2.558,1.711 3.121,3.254 0.316,0.93 0.507,1.887 0.566,2.867 0.078,1.235 0.051,2.465 -0.086,3.696 -0.105,0.863 -0.328,1.691 -0.672,2.488 -0.637,1.383 -1.672,2.336 -3.101,2.859 C 12.191,17 11,17.207 9.773,17.227 8.398,17.301 7.035,17.195 5.684,16.918 3.203,16.367 1.668,14.852 1.09,12.375 0.844,11.262 0.73,10.133 0.754,8.992 0.727,7.777 0.855,6.582 1.141,5.402 1.75,3.09 3.219,1.656 5.547,1.102 6.09,0.969 6.641,0.879 7.195,0.836 Z"
           style="fill:url(#linearGradient44915);fill-rule:evenodd;stroke:none"
           id="path44917" /></g></g></g><path
     d="M 2.1957676,4.3837097 A 1.2796992,1.2796992 0 0 1 1.8812336,4.2815212 C 1.2671656,3.9876123 1.0163816,3.2469805 1.3187286,2.6230686 c 0.345003,-0.713444 1.287668,-0.8953207 1.854392,-0.3576595 0.164064,0.1546889 0.23672,0.2873464 0.483754,0.8742267 0.257815,0.6140681 0.305628,0.7106315 0.389066,0.7921947 0.08906,0.087188 0.172502,0.1162511 0.330941,0.1162511 0.261096,0 0.447191,-0.1607827 0.447191,-0.3857848 0,-0.1898454 -0.06703,-0.2507835 -0.407816,-0.3721909 -0.519849,-0.1875017 -0.688131,-0.3562532 -0.689069,-0.6965688 0,-0.1814079 0.04641,-0.3023465 0.163127,-0.4275039 0.167814,-0.1790641 0.457035,-0.2381272 0.712506,-0.1490639 0.109689,0.038438 0.337972,0.2409397 0.337972,0.2985965 0,0.028125 -0.132189,0.1139073 -0.205783,0.1340637 -0.03891,0.010313 -0.07219,-0.00281 -0.117189,-0.045938 -0.09047,-0.08672 -0.151876,-0.1139073 -0.260627,-0.1139073 -0.187033,0 -0.303284,0.1129698 -0.303284,0.2948465 0,0.1814079 0.07406,0.2428147 0.443441,0.3675033 0.508599,0.1715641 0.6586,0.3267217 0.661881,0.6857875 0.0028,0.3098466 -0.136407,0.5334424 -0.414378,0.6656311 -0.126564,0.060001 -0.169689,0.067501 -0.375473,0.067501 -0.295315,-4.691e-4 -0.427503,-0.054845 -0.592505,-0.24094 C 3.6657806,4.0049562 3.5532796,3.7701103 3.1923386,2.91229 3.0423376,2.5569743 2.8501486,2.3825977 2.5304576,2.3141595 a 0.8826643,0.8826643 0 0 0 -0.535786,0.075001 c -0.143438,0.075 -0.304221,0.2446895 -0.379691,0.3993784 -0.06281,0.1260949 -0.06891,0.1612514 -0.06891,0.3796909 0,0.2090644 0.0084,0.2582836 0.06094,0.3726597 0.07969,0.1753141 0.235314,0.3365655 0.407347,0.4237538 0.12422,0.062344 0.162658,0.070313 0.360941,0.070313 0.189845,0 0.239064,-0.00938 0.352503,-0.062813 0.129376,-0.063282 0.303284,-0.2184395 0.374535,-0.3346905 l 0.03703,-0.060469 0.07266,0.1664077 c 0.04078,0.091876 0.07313,0.1781266 0.07313,0.1940643 0,0.045938 -0.164064,0.1959393 -0.315472,0.2896901 a 1.1475105,1.1475105 0 0 1 -0.77298,0.156095 m 0,0"
     fill="#ffffff"
     id="path2669"
     style="stroke-width:0.468754" /></svg>
