<?xml version="1.0" encoding="UTF-8" standalone="no"?>
<svg
   width="24"
   height="24"
   viewBox="0 0 6.349875 6.349875"
   version="1.1"
   id="svg190"
   sodipodi:docname="qt-linguist.svg"
   xml:space="preserve"
   inkscape:version="1.2.2 (b0a8486541, 2022-12-01)"
   inkscape:export-filename="qt-creator.pdf"
   inkscape:export-xdpi="96"
   inkscape:export-ydpi="96"
   xmlns:inkscape="http://www.inkscape.org/namespaces/inkscape"
   xmlns:sodipodi="http://sodipodi.sourceforge.net/DTD/sodipodi-0.dtd"
   xmlns="http://www.w3.org/2000/svg"
   xmlns:svg="http://www.w3.org/2000/svg"><defs
     id="defs194"><rect
       x="5.3268056"
       y="2.0367198"
       width="12.69033"
       height="15.980416"
       id="rect6368" /><linearGradient
       id="paint0_linear_3_286"
       x1="12"
       y1="1"
       x2="12"
       y2="12"
       gradientUnits="userSpaceOnUse"><stop
         stop-color="#EEA5FF"
         id="stop266" /><stop
         offset="1"
         stop-color="#A159B2"
         id="stop268" /></linearGradient><linearGradient
       x1="12"
       y1="1"
       x2="12"
       y2="23"
       gradientUnits="userSpaceOnUse"
       gradientTransform="matrix(0.75,0,0,0.75,-7.98374e-6,-2.49454e-5)"
       spreadMethod="pad"
       id="linearGradient38255-1"><stop
         style="stop-opacity:1;stop-color:#4a74d2"
         offset="0"
         id="stop38251-9" /><stop
         style="stop-opacity:1;stop-color:#375295"
         offset="1"
         id="stop38253-4" /></linearGradient><linearGradient
       id="paint0_linear_18_187"
       x1="12"
       y1="1"
       x2="12"
       y2="23"
       gradientUnits="userSpaceOnUse"
       gradientTransform="matrix(0.26457812,0,0,0.26457812,-2.8164292e-6,9.3778578e-6)"><stop
         stop-color="#33BEF0"
         id="stop43245"
         offset="0"
         style="stop-color:#ff5f5f;stop-opacity:1;" /><stop
         offset="1"
         stop-color="#0A85D9"
         id="stop43247"
         style="stop-color:#e82e34;stop-opacity:1;" /></linearGradient><linearGradient
       x1="12"
       y1="1"
       x2="12"
       y2="23"
       gradientUnits="userSpaceOnUse"
       gradientTransform="matrix(0.75,0,0,0.75,-7.98374e-6,2.65834e-5)"
       spreadMethod="pad"
       id="linearGradient44915"><stop
         style="stop-color:#31d931;stop-opacity:1;"
         offset="0"
         id="stop44911" /><stop
         style="stop-color:#d4f3d4;stop-opacity:1;"
         offset="1"
         id="stop44913" /></linearGradient><linearGradient
       id="paint0_linear_3_286-3"
       x1="12"
       y1="1"
       x2="12"
       y2="12"
       gradientUnits="userSpaceOnUse"><stop
         stop-color="#EEA5FF"
         id="stop266-6" /><stop
         offset="1"
         stop-color="#A159B2"
         id="stop268-7" /></linearGradient><radialGradient
       id="paint0_radial_4_408"
       cx="0"
       cy="0"
       r="1"
       gradientUnits="userSpaceOnUse"
       gradientTransform="matrix(0,5.8207186,-5.8207186,0,3.1749362,0.26458225)"><stop
         stop-color="#D6B1FF"
         id="stop3331"
         offset="0"
         style="stop-color:#cdf2cd;stop-opacity:1;" /><stop
         offset="1"
         stop-color="#A75DFA"
         id="stop3333"
         style="stop-color:#38d23a;stop-opacity:1;" /></radialGradient><radialGradient
       fx="0"
       fy="0"
       cx="0"
       cy="0"
       r="1"
       gradientUnits="userSpaceOnUse"
       gradientTransform="matrix(0,16.5,-16.5,0,8.999996,0.750012)"
       spreadMethod="pad"
       id="radialGradient3666"><stop
         style="stop-opacity:1;stop-color:#cdf2cd"
         offset="0"
         id="stop3662" /><stop
         style="stop-opacity:1;stop-color:#38d23a"
         offset="1"
         id="stop3664" /></radialGradient><radialGradient
       fx="0"
       fy="0"
       cx="0"
       cy="0"
       r="1"
       gradientUnits="userSpaceOnUse"
       gradientTransform="matrix(0,16.5,-16.5,0,8.999996,0.750012)"
       spreadMethod="pad"
       id="radialGradient3666-6"><stop
         style="stop-color:#ffffff;stop-opacity:1;"
         offset="0"
         id="stop3662-7" /><stop
         style="stop-color:#478cbf;stop-opacity:1;"
         offset="1"
         id="stop3664-5" /></radialGradient><rect
       x="5.3268056"
       y="2.0367198"
       width="12.69033"
       height="15.980416"
       id="rect6368-6" /><radialGradient
       id="paint0_radial_4_408-2"
       cx="0"
       cy="0"
       r="1"
       gradientUnits="userSpaceOnUse"
       gradientTransform="matrix(0,5.8207186,-5.8207186,0,3.1749362,0.26458225)"><stop
         stop-color="#D6B1FF"
         id="stop3331-7"
         offset="0"
         style="stop-color:#cdf2cd;stop-opacity:1;" /><stop
         offset="1"
         stop-color="#A75DFA"
         id="stop3333-0"
         style="stop-color:#38d23a;stop-opacity:1;" /></radialGradient><radialGradient
       fx="0"
       fy="0"
       cx="0"
       cy="0"
       r="1"
       gradientUnits="userSpaceOnUse"
       gradientTransform="matrix(0,16.5,-16.5,0,8.999996,0.750012)"
       spreadMethod="pad"
       id="radialGradient3666-9"><stop
         style="stop-opacity:1;stop-color:#cdf2cd"
         offset="0"
         id="stop3662-3" /><stop
         style="stop-opacity:1;stop-color:#38d23a"
         offset="1"
         id="stop3664-6" /></radialGradient><radialGradient
       fx="0"
       fy="0"
       cx="0"
       cy="0"
       r="1"
       gradientUnits="userSpaceOnUse"
       gradientTransform="matrix(0,16.5,-16.5,0,8.999996,0.750012)"
       spreadMethod="pad"
       id="radialGradient3666-6-0"><stop
         style="stop-opacity:1;stop-color:#cdf2cd"
         offset="0"
         id="stop3662-7-6" /><stop
         style="stop-opacity:1;stop-color:#38d23a"
         offset="1"
         id="stop3664-5-2" /></radialGradient></defs><sodipodi:namedview
     id="namedview192"
     pagecolor="#ffffff"
     bordercolor="#000000"
     borderopacity="0.25"
     inkscape:showpageshadow="2"
     inkscape:pageopacity="0.0"
     inkscape:pagecheckerboard="0"
     inkscape:deskcolor="#d1d1d1"
     showgrid="false"
     inkscape:zoom="12.765625"
     inkscape:cx="15.510404"
     inkscape:cy="15.275398"
     inkscape:window-width="1366"
     inkscape:window-height="686"
     inkscape:window-x="0"
     inkscape:window-y="0"
     inkscape:window-maximized="1"
     inkscape:current-layer="svg190" /><g
     id="g3652"
     transform="matrix(0.35277082,0,0,0.35277082,0.02186344,-0.08061378)"><g
       id="g3654"><g
         id="g3660"><path
           d="m 7.195,0.836 c 0.09,0 0.176,-0.012 0.258,-0.035 1.078,-0.071 2.156,-0.067 3.231,0.008 0.976,0.078 1.921,0.289 2.836,0.636 1.519,0.625 2.558,1.711 3.121,3.254 0.316,0.93 0.507,1.887 0.566,2.867 0.078,1.235 0.051,2.465 -0.086,3.696 -0.105,0.863 -0.328,1.691 -0.672,2.488 -0.637,1.383 -1.672,2.336 -3.101,2.859 C 12.191,17 11,17.207 9.773,17.227 8.398,17.301 7.035,17.195 5.684,16.918 3.203,16.367 1.668,14.852 1.09,12.375 0.844,11.262 0.73,10.133 0.754,8.992 0.727,7.781 0.855,6.582 1.141,5.402 1.75,3.09 3.219,1.656 5.547,1.102 6.09,0.969 6.641,0.879 7.195,0.836 Z"
           style="fill:url(#radialGradient3666-6);fill-rule:evenodd;stroke:none;stroke-width:0.99975004;stroke-dasharray:none"
           id="path3668" /></g></g></g><g
     transform="matrix(0.03808293,0,0,0.03652702,1.2927689,-36.084235)"
     id="g19149"
     style="stroke-width:0.787417;stroke-dasharray:none"><path
       d="m 0,0 c 0,0 -0.325,1.994 -0.515,1.976 l -36.182,-3.491 c -2.879,-0.278 -5.115,-2.574 -5.317,-5.459 l -0.994,-14.247 -27.992,-1.997 -1.904,12.912 c -0.424,2.872 -2.932,5.037 -5.835,5.037 h -38.188 c -2.902,0 -5.41,-2.165 -5.834,-5.037 l -1.905,-12.912 -27.992,1.997 -0.994,14.247 c -0.202,2.886 -2.438,5.182 -5.317,5.46 l -36.2,3.49 c -0.187,0.018 -0.324,-1.978 -0.511,-1.978 l -0.049,-7.83 30.658,-4.944 1.004,-14.374 c 0.203,-2.91 2.551,-5.263 5.463,-5.472 l 38.551,-2.75 c 0.146,-0.01 0.29,-0.016 0.434,-0.016 2.897,0 5.401,2.166 5.825,5.038 l 1.959,13.286 h 28.005 l 1.959,-13.286 c 0.423,-2.871 2.93,-5.037 5.831,-5.037 0.142,0 0.284,0.005 0.423,0.015 l 38.556,2.75 c 2.911,0.209 5.26,2.562 5.463,5.472 l 1.003,14.374 30.645,4.966 z"
       fill="#ffffff"
       stroke-width="0.32031"
       transform="matrix(0.41022,0,0,-0.41022,90.133,1088.2)"
       id="path19133"
       style="stroke-width:1.9195;stroke-dasharray:none" /><path
       d="m 40.764,1026.7 c -0.22378,-0.01 -0.44741,0.016 -0.66602,0.064 -4.3317,0.963 -8.6879,2.3175 -12.83,4.4024 -0.95895,0.4827 -1.5531,1.4756 -1.5254,2.5488 0.07479,2.8867 0.32664,5.695 0.64453,8.5293 -1.0776,0.645 -2.1541,1.232 -3.3418,2.1856 -0.84553,0.6493 -1.7885,1.4733 -2.7109,2.2363 -2.1487,-1.3494 -4.3197,-2.6924 -6.6191,-3.8496 -1.1025,-0.5551 -2.4393,-0.3147 -3.2793,0.5898 -3.1265,3.3648 -6.0985,7.0462 -8.5527,11.223 -0.52064,0.8868 -0.50786,1.9888 0.033203,2.8633 1.6231,2.6255 3.3518,5.0794 5.1719,7.4589 v 29.805 c 0,8.223 5.472,14.496 13.299,18.238 7.8268,3.7426 18.185,5.4523 29.576,5.4922 h 0.07425 c 11.391,-0.04 21.749,-1.7494 29.574,-5.4922 7.825,-3.7428 13.295,-10.016 13.295,-18.238 l 0.0039,-29.031 c 1.8487,-2.7118 3.3825,-5.3341 5.1738,-8.2305 0.54026,-0.874 0.55303,-1.975 0.0332,-2.8613 -2.4537,-4.1771 -5.4284,-7.8601 -8.5547,-11.225 -0.83968,-0.9036 -2.1753,-1.144 -3.2773,-0.5899 -2.2985,1.157 -4.4703,2.5023 -6.6191,3.8516 -0.92228,-0.7635 -1.8625,-1.5876 -2.7109,-2.2383 -0.0034,0 -0.0064,0 -0.0098,-0.01 -1.1855,-0.951 -2.2584,-1.537 -3.332,-2.1797 0.3171,-2.834 0.56942,-5.643 0.64453,-8.5293 0.02779,-1.0733 -0.56641,-2.0662 -1.5254,-2.5489 -4.1423,-2.0846 -8.4981,-3.4392 -12.832,-4.4023 -1.1688,-0.2595 -2.3721,0.2603 -2.9844,1.2891 -1.4005,2.3538 -2.6017,4.8552 -3.7637,7.3261 -1.0352,-0.094 -2.0858,-0.238 -3.0879,-0.25 -0.01107,-10e-5 -0.02213,-10e-5 -0.0332,0 h -0.06054 c -0.01107,-10e-5 -0.02213,-10e-5 -0.0332,0 -1.0041,0.012 -2.0561,0.1556 -3.0918,0.25 -1.1152,-2.3725 -2.2767,-4.7643 -3.6152,-7.0351 -0.04428,-0.1006 -0.0945,-0.1984 -0.15039,-0.293 -0.48802,-0.8195 -1.3629,-1.3307 -2.3164,-1.3535 z"
       fill="#ffffff"
       id="path19135"
       style="stroke-width:0.787417;stroke-dasharray:none" /><path
       d="m 40.699,1029.4 c -4.1777,0.9287 -8.3103,2.2217 -12.185,4.1719 0.08864,3.4213 0.3098,6.6993 0.75817,10.029 -1.5047,0.9641 -3.086,1.7915 -4.4915,2.9199 -1.428,1.0985 -2.8864,2.1496 -4.1795,3.4344 -2.5831,-1.7086 -5.3171,-3.3141 -8.1337,-4.7315 -3.036,3.2674 -5.8748,6.7939 -8.1937,10.74 1.7447,2.8222 3.566,5.4678 5.5326,7.9784 h 0.055057 v 24.22 c 0.044277,4e-4 0.088553,0 0.13242,0.01 l 14.848,1.4317 c 0.77777,0.075 1.3873,0.701 1.4415,1.4804 l 0.4579,6.5545 12.952,0.924 0.89232,-6.0493 c 0.11568,-0.7844 0.78842,-1.3657 1.5818,-1.3657 h 15.665 c 0.79295,0 1.4657,0.5813 1.5814,1.3657 l 0.89232,6.0493 12.953,-0.924 0.45752,-6.5545 c 0.05457,-0.7794 0.66369,-1.405 1.4415,-1.4804 l 14.842,-1.4317 c 0.0439,0 0.08778,-0.01 0.13204,-0.01 v -1.9326 h 0.0058 v -22.285 h 0.05506 c 1.967,-2.5105 3.7871,-5.1561 5.5326,-7.9784 -2.3181,-3.9462 -5.1585,-7.4728 -8.1945,-10.74 -2.8157,1.4174 -5.5507,3.023 -8.1339,4.7315 -1.2926,-1.2848 -2.7485,-2.3358 -4.1785,-3.4343 -1.405,-1.1286 -2.9883,-1.9559 -4.4901,-2.9199 0.44714,-3.3298 0.66819,-6.6079 0.75721,-10.029 -3.8749,-1.9501 -8.007,-3.2432 -12.187,-4.1719 -1.6688,2.8047 -3.1949,5.8418 -4.524,8.811 -1.5761,-0.2633 -3.1595,-0.3609 -4.745,-0.3798 h -0.0308 -0.03003 c -1.5884,0.019 -3.1704,0.1165 -4.7469,0.3798 -1.3283,-2.9692 -2.8535,-6.0063 -4.5248,-8.811 z m -30.862,61.966 c 0.00577,1.4349 0.024448,3.007 0.024448,3.32 0,14.101 17.888,20.878 40.112,20.956 h 0.05448 c 22.224,-0.078 40.106,-6.8554 40.106,-20.956 0,-0.3188 0.01926,-1.8844 0.02579,-3.32 l -13.346,1.2872 -0.46002,6.5895 c -0.05535,0.7941 -0.68712,1.4261 -1.4813,1.4831 l -15.816,1.1286 h -0.11529 c -0.78597,0 -1.4641,-0.5767 -1.5802,-1.366 l -0.90696,-6.151 h -12.905 l -0.90695,6.151 c -0.12183,0.8277 -0.86196,1.4229 -1.6955,1.3617 l -15.816,-1.1285 c -0.79418,-0.057 -1.4259,-0.6889 -1.4813,-1.4831 l -0.45983,-6.5896 z"
       fill="#478cbf"
       id="path19137"
       style="stroke-width:0.787417;stroke-dasharray:none" /><g
       fill="#ffffff"
       stroke-width="0.32031"
       id="g19145"
       style="stroke-width:0.787417;stroke-dasharray:none"><path
         d="m 0,0 c 0,-12.052 -9.765,-21.815 -21.813,-21.815 -12.042,0 -21.81,9.763 -21.81,21.815 0,12.044 9.768,21.802 21.81,21.802 C -9.765,21.802 0,12.044 0,0"
         transform="matrix(0.41022,0,0,-0.41022,37.9,1073.8)"
         id="path19139"
         style="stroke-width:1.9195;stroke-dasharray:none" /><path
         d="m 0,0 c -3.878,0 -7.021,2.858 -7.021,6.381 v 20.081 c 0,3.52 3.143,6.381 7.021,6.381 3.878,0 7.028,-2.861 7.028,-6.381 V 6.381 C 7.028,2.858 3.878,0 0,0"
         transform="matrix(0.41022,0,0,-0.41022,50,1083.6)"
         id="path19141"
         style="stroke-width:1.9195;stroke-dasharray:none" /><path
         d="m 0,0 c 0,-12.052 9.765,-21.815 21.815,-21.815 12.041,0 21.808,9.763 21.808,21.815 0,12.044 -9.767,21.802 -21.808,21.802 C 9.765,21.802 0,12.044 0,0"
         transform="matrix(0.41022,0,0,-0.41022,62.101,1073.8)"
         id="path19143"
         style="stroke-width:1.9195;stroke-dasharray:none" /></g><path
       d="m 29.807,1068.4 c -3.2801,0 -5.9395,2.6601 -5.9395,5.9394 0,3.2794 2.6594,5.9371 5.9395,5.9371 3.2818,0 5.9397,-2.6577 5.9397,-5.9371 0,-3.2793 -2.6579,-5.9394 -5.9397,-5.9394 z m 40.383,0 c -3.2793,0 -5.9362,2.6601 -5.9362,5.9394 0,3.2794 2.6569,5.9371 5.9362,5.9371 3.2826,0 5.9396,-2.6577 5.9396,-5.9371 0,-3.2793 -2.6571,-5.9394 -5.9396,-5.9394 z"
       fill="#414042"
       id="path19147"
       style="stroke-width:0.787417;stroke-dasharray:none" /></g></svg>
