<?xml version="1.0" encoding="UTF-8" standalone="no"?>
<svg
   width="24"
   height="24"
   version="1"
   id="svg3785"
   sodipodi:docname="google-chrome-beta.svg"
   inkscape:version="1.2.2 (b0a8486541, 2022-12-01)"
   xmlns:inkscape="http://www.inkscape.org/namespaces/inkscape"
   xmlns:sodipodi="http://sodipodi.sourceforge.net/DTD/sodipodi-0.dtd"
   xmlns="http://www.w3.org/2000/svg"
   xmlns:svg="http://www.w3.org/2000/svg">
  <defs
     id="defs3789">
    <radialGradient
       fx="0"
       fy="0"
       cx="0"
       cy="0"
       r="1"
       gradientUnits="userSpaceOnUse"
       gradientTransform="matrix(0,16.5,-16.5,0,8.999651,0.749985)"
       spreadMethod="pad"
       id="radialGradient868-3">
      <stop
         style="stop-opacity:1;stop-color:#fafafa"
         offset="0"
         id="stop864-6" />
      <stop
         style="stop-opacity:1;stop-color:#c0c0c0"
         offset="1"
         id="stop866-7" />
    </radialGradient>
  </defs>
  <sodipodi:namedview
     id="namedview3787"
     pagecolor="#ffffff"
     bordercolor="#000000"
     borderopacity="0.25"
     inkscape:showpageshadow="2"
     inkscape:pageopacity="0.0"
     inkscape:pagecheckerboard="0"
     inkscape:deskcolor="#d1d1d1"
     showgrid="false"
     inkscape:zoom="3.3125"
     inkscape:cx="-96"
     inkscape:cy="40.603774"
     inkscape:window-width="2560"
     inkscape:window-height="1000"
     inkscape:window-x="1680"
     inkscape:window-y="0"
     inkscape:window-maximized="1"
     inkscape:current-layer="svg3785" />
  <g
     id="g856"
     transform="matrix(1.3333333,0,0,1.3333333,-4.5225532e-4,-3.504174e-5)">
    <g
       id="g862">
      <path
         d="m 7.195,0.836 c 0.09,0 0.176,-0.012 0.258,-0.035 1.078,-0.071 2.156,-0.067 3.231,0.008 0.976,0.078 1.921,0.289 2.836,0.636 1.519,0.625 2.558,1.711 3.121,3.254 0.316,0.93 0.507,1.887 0.566,2.867 0.078,1.235 0.051,2.465 -0.086,3.696 -0.105,0.863 -0.328,1.691 -0.672,2.488 -0.637,1.383 -1.672,2.336 -3.101,2.859 C 12.191,17 11,17.207 9.773,17.227 8.398,17.301 7.035,17.195 5.684,16.918 3.203,16.367 1.668,14.852 1.09,12.375 0.844,11.262 0.73,10.133 0.754,8.992 0.727,7.781 0.855,6.582 1.141,5.402 1.75,3.09 3.219,1.656 5.547,1.102 6.09,0.969 6.641,0.879 7.195,0.836 Z"
         style="fill:url(#radialGradient868-3);fill-rule:evenodd;stroke:none"
         id="path870" />
    </g>
  </g>
  <g
     id="g3602"
     transform="matrix(3.9494102,0,0,3.9494102,-0.53890447,-0.53937867)">
    <path
       d="M 1.656172,2.0365768 C 1.4081692,2.3660712 1.2758775,2.7685907 1.2758775,3.1806351 1.2730553,4.2305017 2.126072,5.0792851 3.1748803,5.0739934 L 3.8391608,3.7122712 2.6058497,3.4603879 Z"
       style="fill:#17a05e;fill-opacity:1;fill-rule:evenodd;stroke:none;stroke-width:0.352778"
       id="path872" />
    <path
       d="M 3.2701303,2.3205629 3.8391608,3.7069795 3.1748803,5.0739934 c 1.0502194,0.00282 1.9018249,-0.8487833 1.8990027,-1.8990028 0,-0.2963333 -0.068792,-0.5898444 -0.2039056,-0.8544277 z"
       style="fill:#ffce42;fill-opacity:1;fill-rule:evenodd;stroke:none;stroke-width:0.352778"
       id="path874" />
    <path
       d="M 3.1748803,1.2759879 C 2.5769219,1.2745768 2.0131831,1.5571518 1.656172,2.0365768 L 2.6044386,3.4603879 3.8391608,3.7069795 3.2701303,2.3205629 H 4.8699774 C 4.5489497,1.6785073 3.8913719,1.2745768 3.1748803,1.2759879 Z"
       style="fill:#de5347;fill-opacity:1;fill-rule:evenodd;stroke:none;stroke-width:0.352778"
       id="path876" />
    <path
       d="m 3.1748803,2.3247962 c 0.4699,-0.00141 0.8516055,0.3802945 0.8501944,0.8501944 0.00141,0.4699 -0.3802944,0.8516056 -0.8501944,0.8501945 -0.4699,0.00141 -0.8516056,-0.3802945 -0.8501945,-0.8501945 -0.00141,-0.4698999 0.3802945,-0.8516055 0.8501945,-0.8501944 z"
       style="fill:#ffffff;fill-opacity:1;fill-rule:nonzero;stroke:none;stroke-width:0.352778"
       id="path998" />
    <path
       d="m 3.1748803,2.5368157 c 0.3527777,0 0.6392333,0.2853972 0.6381749,0.6381749 0,0.3527778 -0.2853972,0.638175 -0.6381749,0.638175 -0.3527778,0 -0.638175,-0.2853972 -0.638175,-0.638175 0,-0.3527777 0.2853972,-0.6381749 0.638175,-0.6381749 z"
       style="fill:#4a8af4;fill-opacity:1;fill-rule:nonzero;stroke:none;stroke-width:0.352778"
       id="path1000" />
  </g>
  <path
     id="path4021"
     style="fill:#4d4d4d;fill-opacity:1;stroke-width:0.462765;paint-order:stroke fill markers"
     d="m 1.117188,14.462891 c 0.07561,0.682918 0.186834,1.362507 0.335937,2.037109 0.770666,3.302663 2.817003,5.321974 6.125,6.056641 1.801331,0.369329 3.617841,0.510779 5.451172,0.412109 1.635998,-0.02667 3.224913,-0.302886 4.767578,-0.824219 1.905331,-0.697333 3.285433,-1.966548 4.134766,-3.810547 0.458666,-1.062666 0.756484,-2.167694 0.896484,-3.318359 0.02051,-0.184315 0.03201,-0.368441 0.04883,-0.552734 z" />
  <g
     fill="#ffffff"
     stroke-width="0.24"
     aria-label="BETA"
     id="g4025"
     transform="matrix(0.46276482,0,0,0.46276482,-2.8084746,-4.0475814)">
    <path
       d="m 21.287,47.657 v 2.565 h 1.52 q 0.763,0 1.129,-0.315 0.37,-0.318 0.37,-0.97 0,-0.656 -0.37,-0.966 -0.366,-0.314 -1.13,-0.314 z m 0,-2.879 v 2.11 h 1.402 q 0.694,0 1.031,-0.258 0.343,-0.262 0.343,-0.797 0,-0.53 -0.343,-0.792 -0.337,-0.263 -1.031,-0.263 z M 20.34,44 h 2.42 q 1.082,0 1.668,0.45 0.586,0.45 0.586,1.28 0,0.642 -0.3,1.022 -0.3,0.38 -0.881,0.474 0.698,0.15 1.083,0.628 0.39,0.473 0.39,1.186 0,0.938 -0.639,1.449 -0.637,0.51 -1.814,0.51 H 20.34 Z m 6.587,0 h 4.426 v 0.797 h -3.479 v 2.072 h 3.334 v 0.797 h -3.334 v 2.537 h 3.563 V 51 h -4.51 z m 5.096,0 h 5.922 v 0.797 H 35.46 V 51 h -0.952 v -6.203 h -2.485 z m 8.43,0.933 -1.285,3.484 h 2.574 z M 39.919,44 h 1.073 l 2.668,7 H 42.675 L 42.038,49.204 H 38.882 L 38.245,51 h -0.999 z"
       id="path4023" />
  </g>
</svg>
