<?xml version="1.0" encoding="UTF-8" standalone="no"?>
<svg
   width="24"
   height="24"
   image-rendering="optimizeSpeed"
   version="1.1"
   id="svg2846"
   sodipodi:docname="kdepim-googledrive.svg"
   xml:space="preserve"
   inkscape:version="1.2.2 (b0a8486541, 2022-12-01)"
   xmlns:inkscape="http://www.inkscape.org/namespaces/inkscape"
   xmlns:sodipodi="http://sodipodi.sourceforge.net/DTD/sodipodi-0.dtd"
   xmlns="http://www.w3.org/2000/svg"
   xmlns:svg="http://www.w3.org/2000/svg"><defs
     id="defs2850"><radialGradient
       id="paint0_radial_3_321"
       cx="0"
       cy="0"
       r="1"
       gradientUnits="userSpaceOnUse"
       gradientTransform="matrix(0,22,-22,0,11.999988,1.0000149)"><stop
         stop-color="#555555"
         id="stop255"
         offset="0"
         style="stop-color:#818181;stop-opacity:1;" /><stop
         offset="1"
         stop-color="#222222"
         id="stop257"
         style="stop-color:#35393c;stop-opacity:1;" /></radialGradient></defs><sodipodi:namedview
     id="namedview2848"
     pagecolor="#ffffff"
     bordercolor="#000000"
     borderopacity="0.25"
     inkscape:showpageshadow="2"
     inkscape:pageopacity="0.0"
     inkscape:pagecheckerboard="0"
     inkscape:deskcolor="#d1d1d1"
     showgrid="false"
     inkscape:zoom="4.6845824"
     inkscape:cx="-69.376514"
     inkscape:cy="25.295744"
     inkscape:window-width="2560"
     inkscape:window-height="1000"
     inkscape:window-x="1680"
     inkscape:window-y="0"
     inkscape:window-maximized="1"
     inkscape:current-layer="svg2846" /><path
     fill-rule="evenodd"
     clip-rule="evenodd"
     d="m 9.5960276,1.1136049 c 0.11984,0.00127 0.23439,-0.01399 0.34365,-0.0458 1.4358104,-0.094054 2.8714104,-0.090239 4.3070104,0.01145 1.3017,0.10142 2.5618,0.38384 3.7802,0.84726 2.0256,0.83394 3.4117,2.2804 4.1581,4.33936 0.4269,1.23963 0.6789,2.51435 0.7561,3.8241401 0.1067,1.6447 0.0685,3.2858 -0.1146,4.9233 -0.137,1.1509 -0.4349,2.2577 -0.8935,3.3203 -0.8506,1.8425 -2.229,3.1134 -4.1352,3.8127 -1.5447,0.5219 -3.1331,0.7967 -4.7653,0.8243 -1.8359,0.0955 -3.6533704,-0.0419 -5.4525304,-0.4121 -3.31158,-0.7377 -5.35438,-2.7567 -6.12839,-6.0568 -0.32847,-1.4856 -0.47738095,-2.9893 -0.44675,-4.5111 -0.0366539,-1.6182 0.13517,-3.2135101 0.51548,-4.7858901 0.8114,-3.08563 2.77019,-4.9977 5.87638,-5.73619 0.72379,-0.17695 1.45691,-0.29526 2.19935,-0.35493 z"
     fill="url(#paint0_radial_3_321)"
     id="path249"
     style="fill:url(#paint0_radial_3_321)" /><g
     fill-rule="evenodd"
     id="g2844"
     transform="matrix(0.41666667,0,0,0.41666667,-1.3333334,-1.3331251)"><path
       d="M 26.002,37.078 H 50 L 44.002,47.23 H 19.998"
       fill="#2c88fa"
       id="path2838" /><path
       d="M 50,37.078 37.998,16.77 H 26.002 l 11.996,20.31"
       fill="#fbc549"
       id="path2840" /><path
       d="M 19.998,47.23 32,26.921 26.002,16.769 14,37.08"
       fill="#0bb36f"
       id="path2842" /></g></svg>
