<?xml version="1.0" encoding="UTF-8" standalone="no"?>
<svg
   width="24"
   height="24"
   viewBox="0 0 6.349875 6.349875"
   version="1.1"
   id="svg10099"
   sodipodi:docname="nuvolaplayer3_google_play_music.svg"
   xml:space="preserve"
   inkscape:version="1.2.2 (b0a8486541, 2022-12-01)"
   inkscape:export-filename="nuvolaplayer3_google_play_music.pdf"
   inkscape:export-xdpi="96"
   inkscape:export-ydpi="96"
   xmlns:inkscape="http://www.inkscape.org/namespaces/inkscape"
   xmlns:sodipodi="http://sodipodi.sourceforge.net/DTD/sodipodi-0.dtd"
   xmlns:xlink="http://www.w3.org/1999/xlink"
   xmlns="http://www.w3.org/2000/svg"
   xmlns:svg="http://www.w3.org/2000/svg"><defs
     id="defs10103"><linearGradient
       gradientUnits="userSpaceOnUse"
       y2="17.09"
       x2="0"
       y1="30.804001"
       id="3"><stop
         stop-color="#ef4e06"
         id="stop10222" /><stop
         offset="1"
         stop-color="#f9841c"
         id="stop10224" /></linearGradient><linearGradient
       id="4"
       gradientUnits="userSpaceOnUse"
       x1="22.263"
       y1="31.32"
       x2="22.365999"
       y2="15.89"><stop
         stop-color="#fed9a5"
         id="stop10227" /><stop
         offset="1"
         stop-color="#fffdfb"
         id="stop10229" /></linearGradient><linearGradient
       gradientUnits="userSpaceOnUse"
       y2="13.384"
       x2="0"
       y1="34"
       id="2"><stop
         stop-color="#ee6708"
         id="stop10232" /><stop
         offset="1"
         stop-color="#f9aa2b"
         id="stop10234" /></linearGradient><linearGradient
       gradientUnits="userSpaceOnUse"
       y2="10.12"
       x2="0"
       y1="36.549999"
       id="0"><stop
         stop-color="#f7891b"
         id="stop10237" /><stop
         offset="1"
         stop-color="#fbc969"
         id="stop10239" /></linearGradient><linearGradient
       id="1"
       y1="37.922001"
       x2="0"
       y2="9.3520002"
       gradientUnits="userSpaceOnUse"><stop
         stop-color="#f7881a"
         id="stop10242" /><stop
         offset="1"
         stop-color="#fbc967"
         id="stop10244" /></linearGradient><radialGradient
       id="paint0_radial_0_1"
       cx="0"
       cy="0"
       r="1"
       gradientUnits="userSpaceOnUse"
       gradientTransform="matrix(0,2.9103593,-2.9103593,0,3.1749362,0.26458207)"><stop
         stop-color="#6EBBF7"
         id="stop322"
         offset="0"
         style="stop-color:#ffcca7;stop-opacity:1;" /><stop
         offset="1"
         stop-color="#2196F3"
         id="stop324"
         style="stop-color:#ff8830;stop-opacity:1;" /></radialGradient><radialGradient
       fx="0"
       fy="0"
       cx="0"
       cy="0"
       r="1"
       gradientUnits="userSpaceOnUse"
       gradientTransform="matrix(0,8.25,-8.25,0,8.999996,0.750011)"
       spreadMethod="pad"
       id="radialGradient5326"><stop
         style="stop-opacity:1;stop-color:#ffcca7"
         offset="0"
         id="stop5322" /><stop
         style="stop-opacity:1;stop-color:#ff8830"
         offset="1"
         id="stop5324" /></radialGradient><radialGradient
       fx="0"
       fy="0"
       cx="0"
       cy="0"
       r="1"
       gradientUnits="userSpaceOnUse"
       gradientTransform="matrix(0,8.25,-8.25,0,8.999996,0.750011)"
       spreadMethod="pad"
       id="radialGradient5326-3"><stop
         style="stop-opacity:1;stop-color:#ffcca7"
         offset="0"
         id="stop5322-6" /><stop
         style="stop-opacity:1;stop-color:#ff8830"
         offset="1"
         id="stop5324-7" /></radialGradient><radialGradient
       id="paint0_radial_1_27"
       cx="0"
       cy="0"
       r="1"
       gradientUnits="userSpaceOnUse"
       gradientTransform="matrix(0,22.000003,-22.000003,0,2.8832922,-3.5034343)"><stop
         stop-color="#9BDF6C"
         id="stop5989"
         offset="0"
         style="stop-color:#a4a4a4;stop-opacity:1;" /><stop
         offset="1"
         stop-color="#204705"
         id="stop5991"
         style="stop-color:#626262;stop-opacity:1;" /></radialGradient><radialGradient
       id="paint0_radial_1_284"
       cx="0"
       cy="0"
       r="1"
       gradientUnits="userSpaceOnUse"
       gradientTransform="matrix(-10.999959,21.999967,-21.999967,-10.999959,-24.402365,-4.1651738)"><stop
         stop-color="#9A9A9A"
         id="stop8367" /><stop
         offset="1"
         stop-color="#5D5D5D"
         id="stop8369" /></radialGradient><radialGradient
       fx="0"
       fy="0"
       cx="0"
       cy="0"
       r="1"
       gradientUnits="userSpaceOnUse"
       gradientTransform="matrix(0,16.500002,-16.500002,0,8.999998,0.749999)"
       spreadMethod="pad"
       id="radialGradient12763"><stop
         style="stop-opacity:1;stop-color:#a4a4a4"
         offset="0"
         id="stop12759" /><stop
         style="stop-opacity:1;stop-color:#626262"
         offset="1"
         id="stop12761" /></radialGradient><clipPath
       clipPathUnits="userSpaceOnUse"
       id="clipPath12773"><path
         d="M 0,0 H 19 V 19 H 0 Z"
         id="path12771" /></clipPath><clipPath
       clipPathUnits="userSpaceOnUse"
       id="clipPath12789"><path
         d="M 0,0 H 19 V 19 H 0 Z"
         id="path12787" /></clipPath><radialGradient
       fx="0"
       fy="0"
       cx="0"
       cy="0"
       r="1"
       gradientUnits="userSpaceOnUse"
       gradientTransform="matrix(0,16.500002,-16.500002,0,8.999998,0.749999)"
       spreadMethod="pad"
       id="radialGradient12763-3"><stop
         style="stop-opacity:1;stop-color:#a4a4a4"
         offset="0"
         id="stop12759-6" /><stop
         style="stop-opacity:1;stop-color:#626262"
         offset="1"
         id="stop12761-7" /></radialGradient><radialGradient
       fx="0"
       fy="0"
       cx="0"
       cy="0"
       r="1"
       gradientUnits="userSpaceOnUse"
       gradientTransform="matrix(0,16.500002,-16.500002,0,8.999659,0.749973)"
       spreadMethod="pad"
       id="radialGradient48543"><stop
         style="stop-opacity:1;stop-color:#a4a4a4"
         offset="0"
         id="stop48539" /><stop
         style="stop-opacity:1;stop-color:#626262"
         offset="1"
         id="stop48541" /></radialGradient><radialGradient
       id="paint0_radial_1_27-2"
       cx="0"
       cy="0"
       r="1"
       gradientUnits="userSpaceOnUse"
       gradientTransform="matrix(0,22.000003,-22.000003,0,11.999997,0.99999709)"><stop
         stop-color="#9BDF6C"
         id="stop5989-6"
         offset="0"
         style="stop-color:#dedede;stop-opacity:1;" /><stop
         offset="1"
         stop-color="#204705"
         id="stop5991-1"
         style="stop-color:#656565;stop-opacity:1;" /></radialGradient><radialGradient
       fx="0"
       fy="0"
       cx="0"
       cy="0"
       r="1"
       gradientUnits="userSpaceOnUse"
       gradientTransform="matrix(0,16.500002,-16.500002,0,8.999998,0.749998)"
       spreadMethod="pad"
       id="radialGradient73082"><stop
         style="stop-opacity:1;stop-color:#dedede"
         offset="0"
         id="stop73078" /><stop
         style="stop-opacity:1;stop-color:#656565"
         offset="1"
         id="stop73080" /></radialGradient><clipPath
       clipPathUnits="userSpaceOnUse"
       id="clipPath73092"><path
         d="M 0,0 H 19 V 19 H 0 Z"
         id="path73090" /></clipPath><clipPath
       clipPathUnits="userSpaceOnUse"
       id="clipPath73164"><path
         d="m 5.273,12.059 h 0.219 c 0.098,0 0.176,0.082 0.176,0.179 v 0.727 c 0,0.097 -0.078,0.176 -0.176,0.176 H 5.273 c -0.097,0 -0.179,-0.079 -0.179,-0.176 v -0.727 c 0,-0.097 0.082,-0.179 0.179,-0.179 z"
         id="path73162" /></clipPath><clipPath
       clipPathUnits="userSpaceOnUse"
       id="clipPath73172"><path
         d="m -97.539457,25.423071 h 11.345439 V 48.11395 h -11.345439 z"
         id="path73170" /></clipPath><linearGradient
       x1="-91.305519"
       y1="36.521664"
       x2="-91.305519"
       y2="26.407284"
       gradientUnits="userSpaceOnUse"
       spreadMethod="pad"
       id="linearGradient73178"><stop
         style="stop-opacity:1;stop-color:#ffffff"
         offset="0"
         id="stop73174" /><stop
         style="stop-opacity:0;stop-color:#ffffff"
         offset="1"
         id="stop73176" /></linearGradient><mask
       maskUnits="userSpaceOnUse"
       x="0"
       y="0"
       width="1"
       height="1"
       id="mask73180"><g
         id="g73186"><g
           clip-path="url(#clipPath73172)"
           id="g73184"><path
             d="m -97.539457,25.423071 h 11.345439 V 48.11395 h -11.345439 z"
             style="fill:url(#linearGradient73178);stroke:none"
             id="path73182" /></g></g></mask><linearGradient
       x1="-91.305519"
       y1="36.521664"
       x2="-91.305519"
       y2="26.407284"
       gradientUnits="userSpaceOnUse"
       spreadMethod="pad"
       id="linearGradient73194"><stop
         style="stop-opacity:1;stop-color:#fff355"
         offset="0"
         id="stop73190" /><stop
         style="stop-opacity:1;stop-color:#a49a00"
         offset="1"
         id="stop73192" /></linearGradient><clipPath
       clipPathUnits="userSpaceOnUse"
       id="clipPath73204"><path
         d="m 6.09,12.059 h 0.219 c 0.097,0 0.175,0.082 0.175,0.179 v 0.727 c 0,0.097 -0.078,0.176 -0.175,0.176 H 6.09 c -0.102,0 -0.18,-0.079 -0.18,-0.176 v -0.727 c 0,-0.097 0.078,-0.179 0.18,-0.179 z"
         id="path73202" /></clipPath><clipPath
       clipPathUnits="userSpaceOnUse"
       id="clipPath73212"><path
         d="m -106.7967,25.423071 h 22.690882 V 48.11395 H -106.7967 Z"
         id="path73210" /></clipPath><mask
       maskUnits="userSpaceOnUse"
       x="0"
       y="0"
       width="1"
       height="1"
       id="mask73220"><g
         id="g73226"><g
           clip-path="url(#clipPath73212)"
           id="g73224"><path
             d="m -106.7967,25.423071 h 22.690882 V 48.11395 H -106.7967 Z"
             style="fill:url(#linearGradient73178);stroke:none"
             id="path73222" /></g></g></mask><clipPath
       clipPathUnits="userSpaceOnUse"
       id="clipPath73244"><path
         d="m 6.906,12.059 h 0.219 c 0.098,0 0.176,0.082 0.176,0.179 v 0.727 c 0,0.097 -0.078,0.176 -0.176,0.176 H 6.906 c -0.101,0 -0.179,-0.079 -0.179,-0.176 v -0.727 c 0,-0.097 0.078,-0.179 0.179,-0.179 z"
         id="path73242" /></clipPath><clipPath
       clipPathUnits="userSpaceOnUse"
       id="clipPath73252"><path
         d="m -104.7085,25.423071 h 22.690881 V 48.11395 H -104.7085 Z"
         id="path73250" /></clipPath><mask
       maskUnits="userSpaceOnUse"
       x="0"
       y="0"
       width="1"
       height="1"
       id="mask73260"><g
         id="g73266"><g
           clip-path="url(#clipPath73252)"
           id="g73264"><path
             d="m -104.7085,25.423071 h 22.690881 V 48.11395 H -104.7085 Z"
             style="fill:url(#linearGradient73178);stroke:none"
             id="path73262" /></g></g></mask><clipPath
       clipPathUnits="userSpaceOnUse"
       id="clipPath73284"><path
         d="m 7.719,12.059 h 0.222 c 0.098,0 0.176,0.082 0.176,0.179 v 0.727 c 0,0.097 -0.078,0.176 -0.176,0.176 H 7.719 c -0.098,0 -0.176,-0.079 -0.176,-0.176 v -0.727 c 0,-0.097 0.078,-0.179 0.176,-0.179 z"
         id="path73282" /></clipPath><clipPath
       clipPathUnits="userSpaceOnUse"
       id="clipPath73292"><path
         d="m -102.6203,25.423071 h 22.690874 V 48.11395 H -102.6203 Z"
         id="path73290" /></clipPath><mask
       maskUnits="userSpaceOnUse"
       x="0"
       y="0"
       width="1"
       height="1"
       id="mask73300"><g
         id="g73306"><g
           clip-path="url(#clipPath73292)"
           id="g73304"><path
             d="m -102.6203,25.423071 h 22.690874 V 48.11395 H -102.6203 Z"
             style="fill:url(#linearGradient73178);stroke:none"
             id="path73302" /></g></g></mask><clipPath
       clipPathUnits="userSpaceOnUse"
       id="clipPath73324"><path
         d="m 8.492,12.059 c 0.07,0 0.129,0.058 0.129,0.132 v 0.817 c 0,0.074 -0.059,0.133 -0.129,0.133 -0.074,0 -0.133,-0.059 -0.133,-0.133 v -0.817 c 0,-0.074 0.059,-0.132 0.133,-0.132 z"
         id="path73322" /></clipPath><clipPath
       clipPathUnits="userSpaceOnUse"
       id="clipPath73332"><path
         d="m -105.31784,25.423071 h 24.693021 V 48.11395 h -24.693021 z"
         id="path73330" /></clipPath><mask
       maskUnits="userSpaceOnUse"
       x="0"
       y="0"
       width="1"
       height="1"
       id="mask73340"><g
         id="g73346"><g
           clip-path="url(#clipPath73332)"
           id="g73344"><path
             d="m -105.31784,25.423071 h 24.693021 V 48.11395 h -24.693021 z"
             style="fill:url(#linearGradient73178);stroke:none"
             id="path73342" /></g></g></mask><linearGradient
       inkscape:collect="always"
       xlink:href="#linearGradient73194"
       id="linearGradient73506"
       gradientUnits="userSpaceOnUse"
       x1="-91.305519"
       y1="36.521664"
       x2="-91.305519"
       y2="26.407284"
       spreadMethod="pad" /><radialGradient
       id="paint0_radial_1_27-20"
       cx="0"
       cy="0"
       r="1"
       gradientUnits="userSpaceOnUse"
       gradientTransform="matrix(0,5.8207194,-5.8207194,0,3.1749394,0.26459927)"><stop
         stop-color="#9BDF6C"
         id="stop5989-2"
         offset="0"
         style="stop-color:#ff9b68;stop-opacity:1;" /><stop
         offset="1"
         stop-color="#204705"
         id="stop5991-3"
         style="stop-color:#f25e0d;stop-opacity:1;" /></radialGradient><linearGradient
       inkscape:collect="always"
       xlink:href="#linearGradient73194"
       id="linearGradient11722"
       gradientUnits="userSpaceOnUse"
       x1="-91.305519"
       y1="36.521664"
       x2="-91.305519"
       y2="26.407284"
       spreadMethod="pad" /><linearGradient
       inkscape:collect="always"
       xlink:href="#linearGradient73194"
       id="linearGradient11724"
       gradientUnits="userSpaceOnUse"
       x1="-91.305519"
       y1="36.521664"
       x2="-91.305519"
       y2="26.407284"
       spreadMethod="pad" /><linearGradient
       inkscape:collect="always"
       xlink:href="#linearGradient73194"
       id="linearGradient11726"
       gradientUnits="userSpaceOnUse"
       x1="-91.305519"
       y1="36.521664"
       x2="-91.305519"
       y2="26.407284"
       spreadMethod="pad" /><linearGradient
       inkscape:collect="always"
       xlink:href="#linearGradient73194"
       id="linearGradient11728"
       gradientUnits="userSpaceOnUse"
       x1="-91.305519"
       y1="36.521664"
       x2="-91.305519"
       y2="26.407284"
       spreadMethod="pad" /><linearGradient
       gradientUnits="userSpaceOnUse"
       y2="10.12"
       x2="0"
       y1="36.549999"
       id="0-9"><stop
         stop-color="#f7891b"
         id="stop10237-7" /><stop
         offset="1"
         stop-color="#fbc969"
         id="stop10239-3" /></linearGradient><linearGradient
       id="1-6"
       y1="37.922001"
       x2="0"
       y2="9.3520002"
       gradientUnits="userSpaceOnUse"><stop
         stop-color="#f7881a"
         id="stop10242-1" /><stop
         offset="1"
         stop-color="#fbc967"
         id="stop10244-2" /></linearGradient><linearGradient
       gradientUnits="userSpaceOnUse"
       y2="13.384"
       x2="0"
       y1="34"
       id="2-9"><stop
         stop-color="#ee6708"
         id="stop10232-3" /><stop
         offset="1"
         stop-color="#f9aa2b"
         id="stop10234-1" /></linearGradient><linearGradient
       gradientUnits="userSpaceOnUse"
       y2="17.09"
       x2="0"
       y1="30.804001"
       id="3-9"><stop
         stop-color="#ef4e06"
         id="stop10222-4" /><stop
         offset="1"
         stop-color="#f9841c"
         id="stop10224-7" /></linearGradient><linearGradient
       id="4-8"
       gradientUnits="userSpaceOnUse"
       x1="22.263"
       y1="31.32"
       x2="22.365999"
       y2="15.89"><stop
         stop-color="#fed9a5"
         id="stop10227-4" /><stop
         offset="1"
         stop-color="#fffdfb"
         id="stop10229-5" /></linearGradient><radialGradient
       fx="0"
       fy="0"
       cx="0"
       cy="0"
       r="1"
       gradientUnits="userSpaceOnUse"
       gradientTransform="matrix(0,16.500002,-16.500002,0,9.000005,0.75006)"
       spreadMethod="pad"
       id="radialGradient14942"><stop
         style="stop-opacity:1;stop-color:#ff9b68"
         offset="0"
         id="stop14938" /><stop
         style="stop-opacity:1;stop-color:#f25e0d"
         offset="1"
         id="stop14940" /></radialGradient><linearGradient
       x1="0"
       y1="36.549999"
       x2="0"
       y2="10.12"
       gradientUnits="userSpaceOnUse"
       gradientTransform="matrix(0,-0.02434975,-0.02434975,0,1.0764529,0.54409604)"
       spreadMethod="pad"
       id="linearGradient14954"><stop
         style="stop-opacity:1;stop-color:#f7891b"
         offset="0"
         id="stop14950" /><stop
         style="stop-opacity:1;stop-color:#fbc969"
         offset="1"
         id="stop14952" /></linearGradient><linearGradient
       x1="0"
       y1="37.922001"
       x2="0"
       y2="9.3520002"
       gradientUnits="userSpaceOnUse"
       gradientTransform="matrix(0,0.02434975,-0.02434975,0,1.0764529,17.455904)"
       spreadMethod="pad"
       id="linearGradient14960"><stop
         style="stop-opacity:1;stop-color:#f7881a"
         offset="0"
         id="stop14956" /><stop
         style="stop-opacity:1;stop-color:#fbc967"
         offset="1"
         id="stop14958" /></linearGradient><linearGradient
       x1="0"
       y1="34"
       x2="0"
       y2="13.384"
       gradientUnits="userSpaceOnUse"
       gradientTransform="matrix(0.401771,0,0,0.401771,0.0224192,-0.511535)"
       spreadMethod="pad"
       id="linearGradient14978"><stop
         style="stop-opacity:1;stop-color:#ee6708"
         offset="0"
         id="stop14974" /><stop
         style="stop-opacity:1;stop-color:#f9aa2b"
         offset="1"
         id="stop14976" /></linearGradient><linearGradient
       x1="0"
       y1="30.804001"
       x2="0"
       y2="17.09"
       gradientUnits="userSpaceOnUse"
       gradientTransform="matrix(0.401771,0,0,0.401771,0.0224192,-0.511535)"
       spreadMethod="pad"
       id="linearGradient14996"><stop
         style="stop-opacity:1;stop-color:#ef4e06"
         offset="0"
         id="stop14992" /><stop
         style="stop-opacity:1;stop-color:#f9841c"
         offset="1"
         id="stop14994" /></linearGradient><linearGradient
       x1="22.263"
       y1="31.32"
       x2="22.365999"
       y2="15.89"
       gradientUnits="userSpaceOnUse"
       gradientTransform="matrix(0.401771,0,0,0.401771,0.0224192,-0.511535)"
       spreadMethod="pad"
       id="linearGradient15014"><stop
         style="stop-opacity:1;stop-color:#fed9a5"
         offset="0"
         id="stop15010" /><stop
         style="stop-opacity:1;stop-color:#fffdfb"
         offset="1"
         id="stop15012" /></linearGradient><radialGradient
       fx="0"
       fy="0"
       cx="0"
       cy="0"
       r="1"
       gradientUnits="userSpaceOnUse"
       gradientTransform="matrix(0,16.500002,-16.500002,0,9.000005,0.75006)"
       spreadMethod="pad"
       id="radialGradient14942-0"><stop
         style="stop-opacity:1;stop-color:#ff9b68"
         offset="0"
         id="stop14938-3" /><stop
         style="stop-opacity:1;stop-color:#f25e0d"
         offset="1"
         id="stop14940-6" /></radialGradient></defs><sodipodi:namedview
     id="namedview10101"
     pagecolor="#ffffff"
     bordercolor="#000000"
     borderopacity="0.25"
     inkscape:showpageshadow="2"
     inkscape:pageopacity="0.0"
     inkscape:pagecheckerboard="0"
     inkscape:deskcolor="#d1d1d1"
     showgrid="false"
     inkscape:zoom="4.6845824"
     inkscape:cx="-99.048316"
     inkscape:cy="14.408968"
     inkscape:window-width="2560"
     inkscape:window-height="1000"
     inkscape:window-x="1680"
     inkscape:window-y="0"
     inkscape:window-maximized="1"
     inkscape:current-layer="svg10099" /><g
     id="g73158"
     transform="matrix(0.35277082,0,0,0.35277082,-6.6045479,-13.341065)"
     style="fill:none"><g
       id="g73160"
       clip-path="url(#clipPath73164)"><g
         id="g73166"
         transform="matrix(0.0881411,0,0,0.0881411,13.597239,9.759182)"><g
           id="g73168" /><g
           id="g73188"
           mask="url(#mask73180)"><path
             d="m 5.273,12.059 h 0.219 c 0.098,0 0.176,0.082 0.176,0.179 v 0.727 c 0,0.097 -0.078,0.176 -0.176,0.176 H 5.273 c -0.097,0 -0.179,-0.079 -0.179,-0.176 v -0.727 c 0,-0.097 0.082,-0.179 0.179,-0.179 z"
             style="fill:url(#linearGradient11722);stroke:none"
             id="path73196" /></g></g></g></g><g
     id="g73198"
     transform="matrix(0.35277082,0,0,0.35277082,-6.6045479,-13.341065)"
     style="fill:none"><g
       id="g73200"
       clip-path="url(#clipPath73204)"><g
         id="g73206"
         transform="matrix(0.0881411,0,0,0.0881411,14.413183,9.759182)"><g
           id="g73208" /><g
           id="g73228"
           mask="url(#mask73220)"><path
             d="m 6.09,12.059 h 0.219 c 0.097,0 0.175,0.082 0.175,0.179 v 0.727 c 0,0.097 -0.078,0.176 -0.175,0.176 H 6.09 c -0.102,0 -0.18,-0.079 -0.18,-0.176 v -0.727 c 0,-0.097 0.078,-0.179 0.18,-0.179 z"
             style="fill:url(#linearGradient11724);stroke:none"
             id="path73236" /></g></g></g></g><g
     id="g73238"
     transform="matrix(0.35277082,0,0,0.35277082,-6.6045479,-13.341065)"
     style="fill:none"><g
       id="g73240"
       clip-path="url(#clipPath73244)"><g
         id="g73246"
         transform="matrix(0.0881411,0,0,0.0881411,15.229127,9.759182)"><g
           id="g73248" /><g
           id="g73268"
           mask="url(#mask73260)"><path
             d="m 6.906,12.059 h 0.219 c 0.098,0 0.176,0.082 0.176,0.179 v 0.727 c 0,0.097 -0.078,0.176 -0.176,0.176 H 6.906 c -0.101,0 -0.179,-0.079 -0.179,-0.176 v -0.727 c 0,-0.097 0.078,-0.179 0.179,-0.179 z"
             style="fill:url(#linearGradient11726);stroke:none"
             id="path73276" /></g></g></g></g><g
     id="g73278"
     transform="matrix(0.35277082,0,0,0.35277082,-6.6045479,-13.341065)"
     style="fill:none"><g
       id="g73280"
       clip-path="url(#clipPath73284)"><g
         id="g73286"
         transform="matrix(0.0881411,0,0,0.0881411,16.045071,9.759182)"><g
           id="g73288" /><g
           id="g73308"
           mask="url(#mask73300)"><path
             d="m 7.719,12.059 h 0.222 c 0.098,0 0.176,0.082 0.176,0.179 v 0.727 c 0,0.097 -0.078,0.176 -0.176,0.176 H 7.719 c -0.098,0 -0.176,-0.079 -0.176,-0.176 v -0.727 c 0,-0.097 0.078,-0.179 0.176,-0.179 z"
             style="fill:url(#linearGradient11728);stroke:none"
             id="path73316" /></g></g></g></g><g
     id="g73318"
     transform="matrix(0.35277082,0,0,0.35277082,-6.6045479,-13.341065)"
     style="fill:none"><g
       id="g73320"
       clip-path="url(#clipPath73324)"><g
         id="g73326"
         transform="matrix(0.0404973,0,0,0.0881411,12.265086,9.759182)"><g
           id="g73328" /><g
           id="g73348"
           mask="url(#mask73340)"><path
             d="m 8.492,12.059 c 0.07,0 0.129,0.058 0.129,0.132 v 0.817 c 0,0.074 -0.059,0.133 -0.129,0.133 -0.074,0 -0.133,-0.059 -0.133,-0.133 v -0.817 c 0,-0.074 0.059,-0.132 0.133,-0.132 z"
             style="fill:url(#linearGradient73506);stroke:none"
             id="path73356" /></g></g></g></g><g
     id="g14926"
     transform="matrix(0.35277082,0,0,0.35277082,-1.1961624e-4,-9.2306512e-6)"><g
       id="g14928"><g
         id="g14930"><g
           id="g14936"><path
             d="m 7.195,0.836 c 0.09,0 0.176,-0.012 0.258,-0.035 1.078,-0.071 2.156,-0.067 3.231,0.008 0.976,0.078 1.921,0.289 2.836,0.636 1.519,0.625 2.558,1.711 3.121,3.254 0.316,0.93 0.507,1.887 0.566,2.867 0.078,1.235 0.051,2.465 -0.086,3.696 -0.105,0.863 -0.328,1.691 -0.672,2.488 -0.637,1.383 -1.672,2.336 -3.101,2.859 C 12.191,17 11,17.207 9.773,17.227 8.398,17.301 7.035,17.195 5.684,16.918 3.203,16.367 1.668,14.852 1.09,12.375 0.844,11.262 0.73,10.133 0.754,8.992 0.727,7.777 0.855,6.582 1.141,5.402 1.75,3.09 3.219,1.656 5.547,1.102 6.09,0.969 6.641,0.879 7.195,0.836 Z"
             style="fill:url(#radialGradient14942-0);fill-rule:evenodd;stroke:none"
             id="path14944" /></g></g></g><g
       id="g14946"><g
         id="g14948"><path
           d="m 14.445,9 c 0,3.008 -2.437,5.445 -5.445,5.445 C 5.992,14.445 3.555,12.008 3.555,9 3.555,5.992 5.992,3.555 9,3.555 c 3.008,0 5.445,2.437 5.445,5.445 z"
           style="fill:url(#linearGradient14954);fill-opacity:1;fill-rule:nonzero;stroke:url(#linearGradient14960);stroke-width:0.358782;stroke-linecap:butt;stroke-linejoin:round;stroke-miterlimit:4;stroke-dasharray:none;stroke-opacity:1"
           id="path14962" /></g></g><g
       id="g14964"><g
         id="g14966"><g
           id="g14972"><path
             d="m 13.254,9.113 c 0,2.348 -1.902,4.25 -4.25,4.25 -2.348,0 -4.25,-1.902 -4.25,-4.25 0,-2.343 1.902,-4.246 4.25,-4.246 2.348,0 4.25,1.903 4.25,4.246 z"
             style="fill:url(#linearGradient14978);stroke:none"
             id="path14980" /></g></g></g><g
       id="g14982"><g
         id="g14984"><g
           id="g14990"><path
             d="m 11.758,9.18 c 0,1.558 -1.266,2.824 -2.824,2.824 -1.559,0 -2.825,-1.266 -2.825,-2.824 0,-1.559 1.266,-2.825 2.825,-2.825 1.558,0 2.824,1.266 2.824,2.825 z"
             style="fill:url(#linearGradient14996);stroke:none"
             id="path14998" /></g></g></g><g
       id="g15000"><g
         id="g15002"><g
           id="g15008"><path
             d="M 11.266,6.914 C 10.895,6.363 10.23,6.043 9.289,5.965 9.219,5.957 9.152,5.953 9.09,5.953 8.617,5.953 8.449,6.191 8.449,6.395 V 9.93 C 8.262,9.875 8.062,9.859 7.863,9.883 7.52,9.926 7.211,10.09 6.996,10.34 c -0.219,0.25 -0.312,0.558 -0.273,0.867 0.07,0.578 0.609,1.012 1.25,1.012 0.062,0 0.121,0 0.183,-0.012 0.664,-0.086 1.149,-0.613 1.149,-1.258 V 7.48 c 0.05,-0.003 0.101,-0.007 0.148,-0.007 0.586,0 1.125,0.246 1.559,0.711 0.179,0.191 0.304,0.382 0.379,0.507 0.019,0.032 0.054,0.047 0.089,0.043 0.036,-0.007 0.063,-0.035 0.071,-0.07 0.07,-0.391 0.129,-1.137 -0.285,-1.75"
             style="fill:url(#linearGradient15014);stroke:none"
             id="path15016" /></g></g></g></g></svg>
