<?xml version="1.0" encoding="UTF-8" standalone="no"?>
<!-- Created with Inkscape (http://www.inkscape.org/) -->

<svg
   width="128mm"
   height="127.99948mm"
   viewBox="0 0 128 127.99948"
   version="1.1"
   id="svg5"
   xml:space="preserve"
   xmlns:inkscape="http://www.inkscape.org/namespaces/inkscape"
   xmlns:sodipodi="http://sodipodi.sourceforge.net/DTD/sodipodi-0.dtd"
   xmlns:xlink="http://www.w3.org/1999/xlink"
   xmlns="http://www.w3.org/2000/svg"
   xmlns:svg="http://www.w3.org/2000/svg"><sodipodi:namedview
     id="namedview7"
     pagecolor="#ffffff"
     bordercolor="#000000"
     borderopacity="0.25"
     inkscape:showpageshadow="2"
     inkscape:pageopacity="0.0"
     inkscape:pagecheckerboard="0"
     inkscape:deskcolor="#d1d1d1"
     inkscape:document-units="mm"
     showgrid="false" /><defs
     id="defs2"><linearGradient
       inkscape:collect="always"
       id="linearGradient3381"><stop
         style="stop-color:#4d4d4d;stop-opacity:1;"
         offset="0"
         id="stop3377" /><stop
         style="stop-color:#b3b3b3;stop-opacity:1"
         offset="1"
         id="stop3379" /></linearGradient><clipPath
       id="28a0eae2da"><path
         d="M 60.710938,107.31641 H 397.88281 V 354.40234 H 60.710938 Z m 0,0"
         clip-rule="nonzero"
         id="path3289" /></clipPath><clipPath
       id="0a5d9b100c"><path
         d="M 86.160156,107.31641 H 371.91797 c 14.05859,0 25.45312,11.39453 25.45312,25.44921 v 196.1836 c 0,14.05859 -11.39453,25.45312 -25.45312,25.45312 H 86.160156 c -14.054687,0 -25.449218,-11.39453 -25.449218,-25.45312 v -196.1836 c 0,-14.05468 11.394531,-25.44921 25.449218,-25.44921"
         clip-rule="nonzero"
         id="path3292" /></clipPath><clipPath
       id="9eb0b530c3"><path
         d="M 95.664062,137.89844 H 362.41406 V 323.81641 H 95.664062 Z m 0,0"
         clip-rule="nonzero"
         id="path3295" /></clipPath><linearGradient
       inkscape:collect="always"
       xlink:href="#linearGradient3381"
       id="linearGradient3383"
       x1="225.66426"
       y1="468.94104"
       x2="210.30426"
       y2="-57.687473"
       gradientUnits="userSpaceOnUse" /><linearGradient
       inkscape:collect="always"
       xlink:href="#linearGradient3381"
       id="linearGradient3739"
       gradientUnits="userSpaceOnUse"
       x1="225.66426"
       y1="468.94104"
       x2="210.30426"
       y2="-57.687473" /><linearGradient
       inkscape:collect="always"
       xlink:href="#linearGradient3381"
       id="linearGradient3741"
       gradientUnits="userSpaceOnUse"
       x1="225.66426"
       y1="468.94104"
       x2="210.30426"
       y2="-57.687473" /><linearGradient
       inkscape:collect="always"
       xlink:href="#linearGradient3381"
       id="linearGradient3743"
       gradientUnits="userSpaceOnUse"
       x1="225.66426"
       y1="468.94104"
       x2="210.30426"
       y2="-57.687473" /></defs><g
     inkscape:label="Camada 1"
     inkscape:groupmode="layer"
     id="layer1"
     transform="translate(-41.000001,-84.500272)"><g
       id="g244"
       transform="matrix(0.28676179,0,0,0.28676181,40.999978,84.500191)"
       style="fill:url(#linearGradient3383);fill-opacity:1"
       inkscape:export-filename="idevice.svg"
       inkscape:export-xdpi="25.400002"
       inkscape:export-ydpi="25.400002"><g
         id="g246"
         style="fill:url(#linearGradient3743);fill-opacity:1"><g
           id="g252"
           style="fill:url(#linearGradient3741);fill-opacity:1"><path
             d="m 174.406,2.305 c 2.434,0.027 4.758,-0.285 6.973,-0.93 29.133,-1.906 58.258,-1.832 87.387,0.234 26.41,2.055 51.976,7.786 76.699,17.188 41.097,16.922 69.219,46.269 84.363,88.043 8.66,25.152 13.774,51.015 15.34,77.59 2.164,33.371 1.391,66.668 -2.324,99.89 -2.782,23.352 -8.824,45.805 -18.129,67.368 -17.258,37.382 -45.223,63.167 -83.899,77.355 -31.343,10.59 -63.57,16.164 -96.687,16.723 -37.246,1.937 -74.121,-0.848 -110.625,-8.36 C 66.312,422.438 24.867,381.477 9.164,314.52 2.496,284.375 -0.523,253.867 0.098,222.992 -0.645,190.16 2.84,157.793 10.559,125.891 27.02,63.285 66.762,24.488 129.785,9.508 144.469,5.914 159.344,3.516 174.406,2.305 Z"
             style="fill:url(#linearGradient3739);fill-opacity:1;fill-rule:evenodd;stroke:none"
             id="path260" /></g></g></g><g
       id="g3375"
       transform="matrix(0.61255801,0,0,0.61255801,-124.26407,93.017605)"><g
         clip-path="url(#28a0eae2da)"
         id="g3312"
         transform="matrix(0.35277778,0,0,0.35277778,277.88771,-7.6096282)"><g
           clip-path="url(#0a5d9b100c)"
           id="g3310"><path
             fill="#ffffff"
             d="M 60.710938,107.31641 H 397.23828 V 354.40234 H 60.710938 Z m 0,0"
             fill-opacity="1"
             fill-rule="nonzero"
             id="path3308" /></g></g><g
         clip-path="url(#9eb0b530c3)"
         id="g3316"
         transform="matrix(0.35277778,0,0,0.35277778,277.88771,-7.6096282)"><path
           fill="#313539"
           d="M 95.664062,137.89844 H 362.69922 V 323.85937 H 95.664062 Z m 0,0"
           fill-opacity="1"
           fill-rule="nonzero"
           id="path3314" /></g><path
         stroke-linecap="round"
         fill="none"
         stroke-linejoin="miter"
         d="m 330.1126,129.70913 h 99.56053"
         stroke="#ffffff"
         stroke-width="10.0377"
         stroke-opacity="1"
         stroke-miterlimit="4"
         id="path3318" /><path
         stroke-linecap="round"
         fill="none"
         stroke-linejoin="miter"
         d="M 429.60145,128.71969 V 51.085204"
         stroke="#ffffff"
         stroke-width="10.0408"
         stroke-opacity="1"
         stroke-miterlimit="4"
         id="path3320" /><path
         stroke-linecap="round"
         fill="none"
         stroke-linejoin="miter"
         d="m 344.66193,145.88178 h 99.56052"
         stroke="#ffffff"
         stroke-width="10.0377"
         stroke-opacity="1"
         stroke-miterlimit="4"
         id="path3322" /><path
         stroke-linecap="round"
         fill="none"
         stroke-linejoin="miter"
         d="M 444.15078,144.89235 V 67.257867"
         stroke="#ffffff"
         stroke-width="10.0408"
         stroke-opacity="1"
         stroke-miterlimit="4"
         id="path3324" /></g></g></svg>
