<?xml version="1.0" encoding="UTF-8" standalone="no"?>
<svg
   width="24"
   height="24"
   viewBox="0 0 6.349875 6.349875"
   version="1.1"
   id="svg8713"
   sodipodi:docname="gparted.svg"
   inkscape:version="1.2.2 (b0a8486541, 2022-12-01)"
   xml:space="preserve"
   inkscape:export-filename="gparted.png"
   inkscape:export-xdpi="800"
   inkscape:export-ydpi="800"
   xmlns:inkscape="http://www.inkscape.org/namespaces/inkscape"
   xmlns:sodipodi="http://sodipodi.sourceforge.net/DTD/sodipodi-0.dtd"
   xmlns="http://www.w3.org/2000/svg"
   xmlns:svg="http://www.w3.org/2000/svg"><defs
     id="defs8717"><radialGradient
       id="paint0_radial_2_129"
       cx="0"
       cy="0"
       r="1"
       gradientUnits="userSpaceOnUse"
       gradientTransform="matrix(0,5.8207186,-5.8207186,0,3.1749334,0.26459256)"><stop
         stop-color="#FAFAFA"
         id="stop8838" /><stop
         offset="1"
         stop-color="#B0B0B0"
         id="stop8840" /></radialGradient></defs><sodipodi:namedview
     id="namedview8715"
     pagecolor="#ffffff"
     bordercolor="#000000"
     borderopacity="0.25"
     inkscape:showpageshadow="2"
     inkscape:pageopacity="0.0"
     inkscape:pagecheckerboard="0"
     inkscape:deskcolor="#d1d1d1"
     showgrid="false"
     inkscape:zoom="8"
     inkscape:cx="-31.9375"
     inkscape:cy="15.6875"
     inkscape:window-width="2560"
     inkscape:window-height="1000"
     inkscape:window-x="1680"
     inkscape:window-y="0"
     inkscape:window-maximized="1"
     inkscape:current-layer="svg8713" /><path
     fill-rule="evenodd"
     clip-rule="evenodd"
     d="m 2.6298231,0.28252566 c -0.028905,0.00842 -0.059212,0.012456 -0.09092,0.01212 -0.196436,0.01579 -0.3904035,0.047087 -0.5819025,0.093907 C 1.135168,0.58394096 0.616915,1.0898328 0.4022388,1.906223 c -0.100626,0.41602 -0.146085,0.8380909 -0.136384,1.2662577 -0.0081,0.4026349 0.03129,0.8004811 0.1182,1.1935383 0.2047832,0.8731343 0.745266,1.4073172 1.6214403,1.6024972 0.4760184,0.09795 0.9568759,0.134299 1.4426148,0.108979 0.4318445,-0.0073 0.8521003,-0.08001 1.2607942,-0.218091 C 5.2132429,5.6743842 5.5779374,5.3381319 5.8029875,4.8506468 5.924323,4.5695061 6.0031409,4.276671 6.0393881,3.972168 6.0878321,3.5389214 6.0979391,3.1047222 6.0697091,2.6695706 6.0492837,2.3230367 5.98261,1.9857711 5.8696616,1.6577894 5.6721805,1.1130337 5.3054488,0.73033476 4.7695193,0.50968976 4.4471573,0.38707896 4.1137624,0.31235416 3.7693611,0.28552596 c -0.3798283,-0.026881 -0.7596567,-0.027891 -1.139538,-0.003 z"
     fill="url(#paint0_radial_2_129)"
     id="path8836"
     style="fill:url(#paint0_radial_2_129);stroke-width:0.264578"
     sodipodi:nodetypes="cccccccccccccccc" /><path
     id="path389"
     style="fill:#848383;fill-opacity:1;stroke-width:0.263741;stroke-linecap:round;stroke-linejoin:round;stroke-dashoffset:1.89038;stroke-opacity:0.05;paint-order:stroke markers fill;stroke:#000000"
     d="m 3.1749379,1.0583125 a 2.1167179,2.1167179 0 0 0 -2.1166242,2.116625 2.1167179,2.1167179 0 0 0 2.1166242,2.116625 2.1167179,2.1167179 0 0 0 2.1166242,-2.116625 2.1167179,2.1167179 0 0 0 -2.1166242,-2.116625 z m 0,1.4474851 a 0.66915595,0.66915595 0 0 1 0.6691393,0.6691399 0.66915595,0.66915595 0 0 1 -0.6691393,0.66914 0.66915595,0.66915595 0 0 1 -0.6691403,-0.66914 0.66915595,0.66915595 0 0 1 0.6691403,-0.6691399 z" /><path
     id="circle945"
     style="opacity:0.342291;fill:#848383;fill-opacity:1;stroke-width:0.246725;stroke-linecap:round;stroke-linejoin:round;stroke-dashoffset:1.89038;stroke-opacity:0.15;paint-order:stroke markers fill"
     d="M 3.1749379,1.1948191 A 1.9801554,1.9801554 0 0 0 1.1948214,3.1749375 1.9801554,1.9801554 0 0 0 3.1749379,5.155056 1.9801554,1.9801554 0 0 0 5.1550554,3.1749375 1.9801554,1.9801554 0 0 0 3.1749379,1.1948191 Z m 0,1.3109785 a 0.66915595,0.66915595 0 0 1 0.6691393,0.6691399 0.66915595,0.66915595 0 0 1 -0.6691393,0.66914 0.66915595,0.66915595 0 0 1 -0.6691403,-0.66914 0.66915595,0.66915595 0 0 1 0.6691403,-0.6691399 z" /><path
     id="path10807"
     style="fill:#d9d6d3;fill-opacity:1;stroke-width:0.265159;stroke-linecap:round;stroke-linejoin:round;stroke-dashoffset:1.89038;stroke-opacity:0.15;paint-order:stroke markers fill"
     d="m 1.1954903,3.1965638 a 1.9801554,1.9801554 0 0 0 0.00469,0.1262042 1.9801554,1.9801554 0 0 0 0.016996,0.1473241 1.9801554,1.9801554 0 0 0 0.027303,0.1452636 1.9801554,1.9801554 0 0 0 0.038119,0.1432032 1.9801554,1.9801554 0 0 0 0.048935,0.1395973 1.9801554,1.9801554 0 0 0 0.059242,0.1359915 1.9801554,1.9801554 0 0 0 0.069539,0.1308403 1.9801554,1.9801554 0 0 0 0.07881,0.125174 1.9801554,1.9801554 0 0 0 0.087572,0.1195076 1.9801554,1.9801554 0 0 0 0.096843,0.1122961 1.9801554,1.9801554 0 0 0 0.1045691,0.1045691 1.9801554,1.9801554 0 0 0 0.1122966,0.096327 1.9801554,1.9801554 0 0 0 0.1189923,0.088085 1.9801554,1.9801554 0 0 0 0.1256891,0.078813 1.9801554,1.9801554 0 0 0 0.1308398,0.069026 1.9801554,1.9801554 0 0 0 0.135477,0.059239 1.9801554,1.9801554 0 0 0 0.1401123,0.048937 1.9801554,1.9801554 0 0 0 0.1426881,0.038634 1.9801554,1.9801554 0 0 0 0.1457784,0.027301 1.9801554,1.9801554 0 0 0 0.146809,0.016484 1.9801554,1.9801554 0 0 0 0.1483542,0.00566 1.9801554,1.9801554 0 0 0 0.00568,0 V 3.8435535 a 0.66915595,0.66915595 0 0 1 -0.00568,5.152e-4 0.66915595,0.66915595 0 0 1 -0.087572,-0.00566 0.66915595,0.66915595 0 0 1 -0.086027,-0.016999 0.66915595,0.66915595 0 0 1 -0.082418,-0.028331 0.66915595,0.66915595 0 0 1 -0.07881,-0.038634 0.66915595,0.66915595 0 0 1 -0.072629,-0.048421 0.66915595,0.66915595 0 0 1 -0.065931,-0.057694 0.66915595,0.66915595 0 0 1 -0.057697,-0.065935 0.66915595,0.66915595 0 0 1 -0.048426,-0.072631 0.66915595,0.66915595 0 0 1 -0.038637,-0.078813 0.66915595,0.66915595 0 0 1 -0.02833,-0.082935 0.66915595,0.66915595 0 0 1 -0.016996,-0.08551 0.66915595,0.66915595 0 0 1 -0.00409,-0.065936 z" /><path
     id="path10765"
     style="fill:#f26c57;fill-opacity:1;stroke-width:0.265159;stroke-linecap:round;stroke-linejoin:round;stroke-dashoffset:1.89038;stroke-opacity:0.15;paint-order:stroke markers fill"
     d="M 3.1807594,5.1550472 A 1.9801554,1.9801554 0 0 0 3.3574447,5.1468034 1.9801554,1.9801554 0 0 0 3.5387672,5.1215625 1.9801554,1.9801554 0 0 0 3.7169985,5.0793225 1.9801554,1.9801554 0 0 0 3.8900792,5.0211143 1.9801554,1.9801554 0 0 0 4.0574918,4.9474521 1.9801554,1.9801554 0 0 0 4.217178,4.8583369 1.9801554,1.9801554 0 0 0 4.368108,4.7553131 1.9801554,1.9801554 0 0 0 4.5087357,4.638381 1.9801554,1.9801554 0 0 0 4.5643691,4.5827476 L 3.6381856,3.6565653 a 0.66915595,0.66915595 0 0 1 -0.070058,0.059754 0.66915595,0.66915595 0 0 1 -0.089626,0.054603 0.66915595,0.66915595 0 0 1 -0.096843,0.040179 0.66915595,0.66915595 0 0 1 -0.1019943,0.024726 0.66915595,0.66915595 0 0 1 -0.098906,0.00773 z" /><path
     id="path10791"
     style="fill:#f9ab55;fill-opacity:1;stroke-width:0.265159;stroke-linecap:round;stroke-linejoin:round;stroke-dashoffset:1.89038;stroke-opacity:0.15;paint-order:stroke markers fill"
     d="m 1.7672726,1.7841068 a 1.9801554,1.9801554 0 0 0 -0.043781,0.043785 1.9801554,1.9801554 0 0 0 -0.096843,0.1122961 1.9801554,1.9801554 0 0 0 -0.087572,0.1195076 1.9801554,1.9801554 0 0 0 -0.07881,0.125174 1.9801554,1.9801554 0 0 0 -0.069539,0.1308402 1.9801554,1.9801554 0 0 0 -0.059242,0.1359915 1.9801554,1.9801554 0 0 0 -0.048935,0.1395974 1.9801554,1.9801554 0 0 0 -0.038119,0.1432032 1.9801554,1.9801554 0 0 0 -0.027303,0.1452635 1.9801554,1.9801554 0 0 0 -0.016996,0.1473241 1.9801554,1.9801554 0 0 0 -0.00518,0.1478393 1.9801554,1.9801554 0 0 0 9.969e-4,0.022665 H 2.507443 a 0.66915595,0.66915595 0 0 1 -0.0015,-0.022665 0.66915595,0.66915595 0 0 1 0.00568,-0.08757 0.66915595,0.66915595 0 0 1 0.016996,-0.08551 0.66915595,0.66915595 0 0 1 0.02833,-0.082935 0.66915595,0.66915595 0 0 1 0.038637,-0.078298 0.66915595,0.66915595 0 0 1 0.048426,-0.073147 0.66915595,0.66915595 0 0 1 0.049961,-0.056663 z" /><path
     id="path10827"
     style="fill:#97cd78;fill-opacity:1;stroke-width:0.527828;stroke-linecap:round;stroke-linejoin:round;stroke-dashoffset:1.89038;stroke-opacity:0.15;paint-order:stroke markers fill"
     d="M 4.5648835,4.5848102 A 1.9801554,1.9801554 0 0 0 4.5751805,4.5750202 1.9801554,1.9801554 0 0 0 4.7055059,4.431302 1.9801554,1.9801554 0 0 0 4.821408,4.2752208 1.9801554,1.9801554 0 0 0 4.921341,4.1083222 1.9801554,1.9801554 0 0 0 5.004278,3.9326665 1.9801554,1.9801554 0 0 0 5.0697,3.7497992 1.9801554,1.9801554 0 0 0 5.11709,3.5612656 1.9801554,1.9801554 0 0 0 5.14542,3.3691261 1.9801554,1.9801554 0 0 0 5.15519,3.1749261 1.9801554,1.9801554 0 0 0 5.14542,2.9807261 1.9801554,1.9801554 0 0 0 5.1170899,2.7885893 1.9801554,1.9801554 0 0 0 5.0697003,2.6000557 1.9801554,1.9801554 0 0 0 5.0042779,2.4171884 1.9801554,1.9801554 0 0 0 4.9213411,2.2415328 1.9801554,1.9801554 0 0 0 4.8214083,2.0746341 1.9801554,1.9801554 0 0 0 4.7055062,1.9185529 1.9801554,1.9801554 0 0 0 4.5751818,1.7748347 1.9801554,1.9801554 0 0 0 4.4309476,1.6445095 1.9801554,1.9801554 0 0 0 4.2748669,1.5286077 1.9801554,1.9801554 0 0 0 4.108483,1.4286745 1.9801554,1.9801554 0 0 0 3.9328275,1.3457397 1.9801554,1.9801554 0 0 0 3.7499619,1.2803194 1.9801554,1.9801554 0 0 0 3.5614283,1.2329288 1.9801554,1.9801554 0 0 0 3.3687737,1.2045977 1.9801554,1.9801554 0 0 0 3.1750884,1.1948088 1.9801554,1.9801554 0 0 0 2.9808888,1.2045977 1.9801554,1.9801554 0 0 0 2.7887496,1.2329288 1.9801554,1.9801554 0 0 0 2.600216,1.2803194 1.9801554,1.9801554 0 0 0 2.4173484,1.3457397 1.9801554,1.9801554 0 0 0 2.2416929,1.4286735 1.9801554,1.9801554 0 0 0 2.0747936,1.5286067 1.9801554,1.9801554 0 0 0 1.9187129,1.6445085 1.9801554,1.9801554 0 0 0 1.7749951,1.7748336 a 1.9801554,1.9801554 0 0 0 -0.00977,0.010302 l 0.9287603,0.9282448 a 0.66915595,0.66915595 0 0 1 0.050998,-0.050997 0.66915595,0.66915595 0 0 1 0.095298,-0.066966 0.66915595,0.66915595 0 0 1 0.1055999,-0.049451 0.66915595,0.66915595 0 0 1 0.1128109,-0.029877 0.66915595,0.66915595 0 0 1 0.1164166,-0.010302 0.66915595,0.66915595 0 0 1 0.1159011,0.010302 0.66915595,0.66915595 0 0 1 0.112811,0.029877 0.66915595,0.66915595 0 0 1 0.1056008,0.049451 0.66915595,0.66915595 0 0 1 0.095816,0.066966 0.66915595,0.66915595 0 0 1 0.082418,0.082419 0.66915595,0.66915595 0 0 1 0.066968,0.095812 0.66915595,0.66915595 0 0 1 0.048935,0.1055994 0.66915595,0.66915595 0 0 1 0.030394,0.112296 0.66915595,0.66915595 0 0 1 0.010297,0.116417 0.66915595,0.66915595 0 0 1 -0.010297,0.1164169 0.66915595,0.66915595 0 0 1 -0.030394,0.112296 0.66915595,0.66915595 0 0 1 -0.048935,0.1061147 0.66915595,0.66915595 0 0 1 -0.066968,0.095298 0.66915595,0.66915595 0 0 1 -0.050998,0.050997 z" /><path
     id="circle947"
     style="fill:#848383;fill-opacity:1;stroke-width:0.09869;stroke-linecap:round;stroke-linejoin:round;stroke-dashoffset:1.89038;stroke-opacity:0.15;paint-order:stroke markers fill"
     d="M 3.1749379,2.3831992 A 0.79206213,0.79206213 0 0 0 2.3832007,3.1749375 0.79206213,0.79206213 0 0 0 3.1749379,3.9671909 0.79206213,0.79206213 0 0 0 3.9671904,3.1749375 0.79206213,0.79206213 0 0 0 3.1749379,2.3831992 Z m 0,0.1225984 a 0.66915595,0.66915595 0 0 1 0.6691393,0.6691399 0.66915595,0.66915595 0 0 1 -0.6691393,0.66914 0.66915595,0.66915595 0 0 1 -0.6691403,-0.66914 0.66915595,0.66915595 0 0 1 0.6691403,-0.6691399 z" /></svg>
