<?xml version="1.0" encoding="UTF-8" standalone="no"?>
<!-- Created with Inkscape (http://www.inkscape.org/) -->

<svg
   width="133.96359mm"
   height="133.96271mm"
   viewBox="0 0 133.96359 133.96271"
   version="1.1"
   id="svg5"
   xml:space="preserve"
   xmlns:inkscape="http://www.inkscape.org/namespaces/inkscape"
   xmlns:sodipodi="http://sodipodi.sourceforge.net/DTD/sodipodi-0.dtd"
   xmlns:xlink="http://www.w3.org/1999/xlink"
   xmlns="http://www.w3.org/2000/svg"
   xmlns:svg="http://www.w3.org/2000/svg"><sodipodi:namedview
     id="namedview7"
     pagecolor="#ffffff"
     bordercolor="#000000"
     borderopacity="0.25"
     inkscape:showpageshadow="2"
     inkscape:pageopacity="0.0"
     inkscape:pagecheckerboard="0"
     inkscape:deskcolor="#d1d1d1"
     inkscape:document-units="mm"
     showgrid="false" /><defs
     id="defs2"><linearGradient
       inkscape:collect="always"
       id="linearGradient2420"><stop
         style="stop-color:#cccccc;stop-opacity:1"
         offset="0"
         id="stop2416" /><stop
         style="stop-color:#f9f9f9;stop-opacity:1"
         offset="1"
         id="stop2418" /></linearGradient><linearGradient
       inkscape:collect="always"
       xlink:href="#linearGradient2420"
       id="linearGradient2422"
       x1="156.21281"
       y1="-409.44241"
       x2="170.48215"
       y2="525.19788"
       gradientUnits="userSpaceOnUse" /><linearGradient
       inkscape:collect="always"
       xlink:href="#linearGradient2420"
       id="linearGradient3762"
       gradientUnits="userSpaceOnUse"
       x1="156.21281"
       y1="-409.44241"
       x2="170.48215"
       y2="525.19788" /></defs><g
     id="g192"
     transform="matrix(0.35277776,0,0,0.35277778,5.0620457e-4,-1.6930737e-4)"
     style="fill:url(#linearGradient2422);fill-opacity:1"
     inkscape:export-filename="g192.svg"
     inkscape:export-xdpi="24.269279"
     inkscape:export-ydpi="24.269279"><path
       d="m 148.375,1.961 c 2.07,0.023 4.047,-0.242 5.93,-0.789 24.785,-1.625 49.566,-1.559 74.343,0.195 22.469,1.75 44.219,6.625 65.25,14.625 34.965,14.395 58.887,39.36 71.774,74.899 7.367,21.398 11.719,43.402 13.051,66.007 1.839,28.391 1.179,56.715 -1.981,84.981 -2.363,19.867 -7.504,38.969 -15.422,57.312 -14.683,31.801 -38.472,53.739 -71.375,65.809 -26.664,9.008 -54.082,13.754 -82.254,14.23 C 176,380.879 144.633,378.508 113.574,372.117 56.414,359.387 21.156,324.535 7.793,267.574 2.125,241.93 -0.445,215.977 0.082,189.707 -0.551,161.773 2.418,134.238 8.98,107.098 22.988,53.84 56.797,20.836 110.414,8.086 122.906,5.035 135.559,2.992 148.375,1.961 Z"
       style="fill:url(#linearGradient3762);fill-opacity:1;fill-rule:evenodd;stroke:none"
       id="path194" /></g><g
     id="g3723"
     transform="matrix(1.0779098,0,0,1.0779098,-68.677971,-87.688247)"><path
       d="m 124.51784,103.12858 a 40.409417,40.409417 0 0 0 -27.239068,11.79582 40.409417,40.409417 0 0 0 -3.29708,53.31922 l 8.489748,-8.48975 a 28.523766,28.523766 0 0 1 3.21623,-36.42058 28.523766,28.523766 0 0 1 29.6737,-6.68399 v 10.20567 l 15.24561,-15.24562 a 40.409417,40.409417 0 0 0 -26.08914,-8.48077 z"
       fill="#4c8fd8"
       id="path3700"
       style="stroke-width:8.98386;paint-order:stroke markers fill" /><path
       d="m 157.73119,118.75152 -8.48975,8.48975 a 28.523766,28.523766 0 0 1 -3.22521,36.42058 28.523766,28.523766 0 0 1 -29.6737,6.684 V 160.1312 l -10.0799,10.08887 -5.16572,5.15674 a 40.409417,40.409417 0 0 0 53.32821,-3.30606 40.409417,40.409417 0 0 0 3.30607,-53.31923 z"
       fill="#6ddce7"
       id="path3702"
       style="stroke-width:8.98386;paint-order:stroke markers fill" /></g></svg>
