<?xml version="1.0" encoding="UTF-8" standalone="no"?>
<svg
   width="24"
   height="24"
   viewBox="0 0 6.349875 6.349875"
   version="1.1"
   id="svg5"
   sodipodi:docname="grub-customizer.svg"
   inkscape:version="1.3 (0e150ed6c4, 2023-07-21)"
   inkscape:export-filename="../../../../../../../../../Imagens/Big Icons/grub-customizer.pdf"
   inkscape:export-xdpi="96"
   inkscape:export-ydpi="96"
   xml:space="preserve"
   xmlns:inkscape="http://www.inkscape.org/namespaces/inkscape"
   xmlns:sodipodi="http://sodipodi.sourceforge.net/DTD/sodipodi-0.dtd"
   xmlns="http://www.w3.org/2000/svg"
   xmlns:svg="http://www.w3.org/2000/svg"><sodipodi:namedview
     id="namedview5"
     pagecolor="#ffffff"
     bordercolor="#000000"
     borderopacity="0.25"
     inkscape:showpageshadow="2"
     inkscape:pageopacity="0.0"
     inkscape:pagecheckerboard="0"
     inkscape:deskcolor="#d1d1d1"
     inkscape:zoom="6.3359375"
     inkscape:cx="22.254007"
     inkscape:cy="-1.8150432"
     inkscape:window-width="2560"
     inkscape:window-height="998"
     inkscape:window-x="0"
     inkscape:window-y="0"
     inkscape:window-maximized="1"
     inkscape:current-layer="svg5"><inkscape:page
       x="0"
       y="0"
       width="6.349875"
       height="6.349875"
       id="page1"
       margin="0"
       bleed="0" /></sodipodi:namedview><defs
     id="defs2"><linearGradient
       id="a"
       x1="32"
       x2="58"
       y1="32"
       y2="32"
       gradientTransform="matrix(-0.26458,0,0,0.26458,27.516124,0)"
       gradientUnits="userSpaceOnUse"><stop
         offset="0"
         id="stop1" /><stop
         stop-opacity="0"
         offset="1"
         id="stop2" /></linearGradient><radialGradient
       id="paint0_radial_3_321"
       cx="0"
       cy="0"
       r="1"
       gradientUnits="userSpaceOnUse"
       gradientTransform="matrix(0,5.8207186,-5.8207186,0,3.1749374,0.26457812)"><stop
         stop-color="#555555"
         id="stop255"
         offset="0"
         style="stop-color:#ff8080;stop-opacity:1;" /><stop
         offset="1"
         stop-color="#222222"
         id="stop257"
         style="stop-color:#bb3a3a;stop-opacity:1;" /></radialGradient><radialGradient
       fx="0"
       fy="0"
       cx="0"
       cy="0"
       r="1"
       gradientUnits="userSpaceOnUse"
       gradientTransform="matrix(0,16.5,-16.5,0,9,0.75)"
       spreadMethod="pad"
       id="radialGradient2"><stop
         style="stop-opacity:1;stop-color:#ff8080"
         offset="0"
         id="stop1-9" /><stop
         style="stop-opacity:1;stop-color:#bb3a3a"
         offset="1"
         id="stop2-7" /></radialGradient><linearGradient
       x1="32"
       y1="32"
       x2="58"
       y2="32"
       gradientUnits="userSpaceOnUse"
       gradientTransform="matrix(-0.317311,0,0,0.317311,19.154484,-1.153292)"
       spreadMethod="pad"
       id="linearGradient6"><stop
         style="stop-opacity:1;stop-color:#000000"
         offset="0"
         id="stop5" /><stop
         style="stop-opacity:0;stop-color:#000000"
         offset="1"
         id="stop6" /></linearGradient><clipPath
       clipPathUnits="userSpaceOnUse"
       id="clipPath6"><path
         d="M 0,0 H 19 V 19 H 0 Z"
         id="path6" /></clipPath><clipPath
       clipPathUnits="userSpaceOnUse"
       id="clipPath8"><path
         d="M 0,0 H 19 V 19 H 0 Z"
         id="path8" /></clipPath><clipPath
       clipPathUnits="userSpaceOnUse"
       id="clipPath12"><path
         d="M 0,0 H 19 V 19 H 0 Z"
         id="path12" /></clipPath><clipPath
       clipPathUnits="userSpaceOnUse"
       id="clipPath15"><path
         d="M 0,0 H 19 V 19 H 0 Z"
         id="path15" /></clipPath><radialGradient
       fx="0"
       fy="0"
       cx="0"
       cy="0"
       r="1"
       gradientUnits="userSpaceOnUse"
       gradientTransform="matrix(0,5.8207185,-5.8207185,0,19.524812,0.26457801)"
       spreadMethod="pad"
       id="radialGradient2-3"><stop
         style="stop-opacity:1;stop-color:#ff8080"
         offset="0"
         id="stop1-9-6" /><stop
         style="stop-opacity:1;stop-color:#bb3a3a"
         offset="1"
         id="stop2-7-1" /></radialGradient><clipPath
       clipPathUnits="userSpaceOnUse"
       id="clipPath6-3"><path
         d="M 0,0 H 19 V 19 H 0 Z"
         id="path6-1" /></clipPath><clipPath
       clipPathUnits="userSpaceOnUse"
       id="clipPath8-9"><path
         d="M 0,0 H 19 V 19 H 0 Z"
         id="path8-4" /></clipPath><clipPath
       clipPathUnits="userSpaceOnUse"
       id="clipPath12-7"><path
         d="M 0,0 H 19 V 19 H 0 Z"
         id="path12-8" /></clipPath><clipPath
       clipPathUnits="userSpaceOnUse"
       id="clipPath15-4"><path
         d="M 0,0 H 19 V 19 H 0 Z"
         id="path15-5" /></clipPath></defs><g
     id="g1"
     inkscape:groupmode="layer"
     inkscape:label="1"
     transform="matrix(0.26457812,0,0,0.26457812,16.349875,0)" /><g
     id="g2"
     transform="translate(-16.349909)"><path
       id="path2"
       d="m 18.888061,0.2949163 c 0.03175,0 0.06209,-0.004233 0.09101,-0.012347 0.380287,-0.0250467 0.760574,-0.0236356 1.139802,0.002822 0.344305,0.0275161 0.677673,0.10195077 1.000458,0.22436224 0.535859,0.22048176 0.902388,0.60359086 1.100998,1.14791626 0.111476,0.3280768 0.178855,0.6656785 0.199668,1.0113939 0.02752,0.435672 0.01799,0.8695801 -0.03034,1.303841 -0.03704,0.3044412 -0.115709,0.5965354 -0.237062,0.8776938 -0.224715,0.487882 -0.589833,0.8240726 -1.093942,1.0085717 -0.408156,0.1379334 -0.828306,0.210957 -1.261156,0.2180124 -0.48506,0.026105 -0.965886,-0.011289 -1.44248,-0.1090062 C 17.4798,5.7737999 16.938297,5.2393521 16.734395,4.3655388 16.647614,3.9729049 16.607398,3.5746266 16.615864,3.1721151 c -0.0095,-0.4272055 0.03563,-0.8501777 0.136523,-1.2664472 0.214837,-0.8156062 0.733057,-1.32147953 1.554308,-1.51691456 0.191554,-0.0469185 0.385931,-0.0786679 0.581366,-0.093837 z"
       style="fill:url(#radialGradient2-3);fill-rule:evenodd;stroke:none;stroke-width:0.352771" /><g
       opacity="0.1"
       id="g7"
       transform="matrix(0.26457812,0,0,0.26457812,16.349875,-1.0307298e-7)"><path
         d="m 9,0.75 v 16.5 H 1.602 C 1.129,17.254 0.75,16.871 0.75,16.402 V 1.602 C 0.75,1.129 1.129,0.75 1.598,0.75 Z"
         transform="scale(1.3333333)"
         style="fill:url(#linearGradient6);fill-rule:evenodd;stroke:none"
         opacity="1"
         clip-path="url(#clipPath6-3)"
         id="path7" /></g><g
       opacity="0.194"
       id="g9"
       transform="matrix(0.26457812,0,0,0.26457812,16.349875,-1.0307298e-7)"><path
         d="M 5.77,14.582 V 3.398 C 5.77,3.18 5.941,3 6.152,3 H 6.188 C 6.398,3 6.57,3.18 6.57,3.398 v 11.184 c 0,0.223 -0.172,0.402 -0.382,0.402 H 6.152 c -0.211,0 -0.382,-0.179 -0.382,-0.402 z"
         style="fill:#ffffff;fill-opacity:1;fill-rule:evenodd;stroke:none"
         transform="scale(1.3333333)"
         clip-path="url(#clipPath8-9)"
         id="path9" /></g><path
       id="path10"
       d="m 18.383952,5.1497483 c 0,0.078315 0.06315,0.1418139 0.141813,0.1418139 0.07867,0 0.140403,-0.063499 0.140403,-0.1418139 V 2.1829457 h -0.282216 z"
       style="fill:#e7b9b9;fill-opacity:1;fill-rule:evenodd;stroke:none;stroke-width:0.352771" /><path
       id="path11"
       d="m 18.517652,1.6386204 c 0.225773,0 0.410625,0.183088 0.410625,0.4106252 0,0.2257733 -0.184852,0.4092141 -0.410625,0.4092141 -0.226126,0 -0.410978,-0.1834408 -0.410978,-0.4092141 0,-0.2275372 0.184852,-0.4106252 0.410978,-0.4106252 z"
       style="fill:#fafafa;fill-opacity:1;fill-rule:evenodd;stroke:none;stroke-width:0.352771" /><g
       opacity="0.194"
       id="g13"
       transform="matrix(0.26457812,0,0,0.26457812,16.349875,-1.0307298e-7)"><path
         d="M 11.145,14.582 V 3.398 C 11.145,3.18 11.293,3 11.473,3 h 0.144 c 0.18,0 0.328,0.18 0.328,0.398 v 11.184 c 0,0.223 -0.148,0.402 -0.328,0.402 h -0.144 c -0.18,0 -0.328,-0.179 -0.328,-0.402 z"
         style="fill:#ffffff;fill-opacity:1;fill-rule:evenodd;stroke:none"
         transform="scale(1.3333333)"
         clip-path="url(#clipPath12-7)"
         id="path13" /></g><path
       id="path14"
       d="m 20.280095,5.1497483 c 0,0.078315 0.06315,0.1418139 0.141814,0.1418139 0.07867,0 0.141813,-0.063499 0.141813,-0.1418139 V 3.5926179 h -0.283627 z"
       style="fill:#e7b9b9;fill-opacity:1;fill-rule:evenodd;stroke:none;stroke-width:0.352771" /><g
       opacity="0.15"
       id="g16"
       transform="matrix(0.26457812,0,0,0.26457812,16.349875,-1.0307298e-7)"><path
         d="m 11.523,8.902 c 0.934,0 1.688,0.754 1.688,1.688 0,0.933 -0.754,1.687 -1.688,1.687 -0.929,0 -1.687,-0.754 -1.687,-1.687 0,-0.934 0.758,-1.688 1.687,-1.688 z"
         style="fill:#000000;fill-opacity:1;fill-rule:nonzero;stroke:none"
         transform="scale(1.3333333)"
         clip-path="url(#clipPath15-4)"
         id="path16" /></g><path
       id="path17"
       d="m 20.414853,3.3294509 c 0.227537,0 0.410978,0.1830881 0.410978,0.4106252 0,0.2257734 -0.183441,0.4092142 -0.410978,0.4092142 -0.225773,0 -0.410625,-0.1834408 -0.410625,-0.4092142 0,-0.2275371 0.184852,-0.4106252 0.410625,-0.4106252 z"
       style="fill:#fafafa;fill-opacity:1;fill-rule:evenodd;stroke:none;stroke-width:0.352771" /></g></svg>
