<?xml version="1.0" encoding="UTF-8" standalone="no"?>
<svg
   width="24"
   height="24"
   viewBox="0 0 24 24"
   fill="none"
   version="1.1"
   id="svg154"
   sodipodi:docname="gtick.svg"
   inkscape:version="1.2.2 (b0a8486541, 2022-12-01)"
   xmlns:inkscape="http://www.inkscape.org/namespaces/inkscape"
   xmlns:sodipodi="http://sodipodi.sourceforge.net/DTD/sodipodi-0.dtd"
   xmlns:xlink="http://www.w3.org/1999/xlink"
   xmlns="http://www.w3.org/2000/svg"
   xmlns:svg="http://www.w3.org/2000/svg"
   xmlns:sketch="http://www.bohemiancoding.com/sketch/ns">
  <sodipodi:namedview
     id="namedview156"
     pagecolor="#ffffff"
     bordercolor="#000000"
     borderopacity="1"
     inkscape:showpageshadow="0"
     inkscape:pageopacity="1"
     inkscape:pagecheckerboard="false"
     inkscape:deskcolor="#ffffff"
     showgrid="true"
     inkscape:zoom="22.627417"
     inkscape:cx="5.6568542"
     inkscape:cy="16.506524"
     inkscape:window-width="1920"
     inkscape:window-height="1052"
     inkscape:window-x="0"
     inkscape:window-y="0"
     inkscape:window-maximized="1"
     inkscape:current-layer="svg154"
     showguides="true"
     guidecolor="#ff0000"
     guideopacity="1"
     inkscape:lockguides="true"
     showborder="true"
     borderlayer="true">
    <inkscape:grid
       type="xygrid"
       id="grid356"
       color="#000000"
       opacity="0.10196078"
       empcolor="#000000"
       empopacity="0.10196078"
       snapvisiblegridlinesonly="true"
       enabled="true"
       visible="true"
       dotted="false" />
    <sodipodi:guide
       position="4,12"
       orientation="-1,0"
       id="guide764"
       inkscape:locked="true"
       inkscape:label="left-circle"
       inkscape:color="rgb(255,0,0)" />
    <sodipodi:guide
       position="5,12"
       orientation="-1,0"
       id="guide2218"
       inkscape:locked="true"
       inkscape:label="left-square"
       inkscape:color="rgb(255,0,0)" />
    <sodipodi:guide
       position="12,20"
       orientation="0,1"
       id="guide2220"
       inkscape:locked="true"
       inkscape:label="top-circle"
       inkscape:color="rgb(255,0,0)" />
    <sodipodi:guide
       position="12,5"
       orientation="0,1"
       id="guide2222"
       inkscape:locked="true"
       inkscape:label="bottom-square"
       inkscape:color="rgb(255,0,0)" />
    <sodipodi:guide
       position="12,4"
       orientation="0,1"
       id="guide2224"
       inkscape:locked="true"
       inkscape:label="bottom-circle"
       inkscape:color="rgb(255,0,0)" />
    <sodipodi:guide
       position="19,12"
       orientation="-1,0"
       id="guide2226"
       inkscape:locked="true"
       inkscape:label="right-square"
       inkscape:color="rgb(255,0,0)" />
    <sodipodi:guide
       position="20,12"
       orientation="-1,0"
       id="guide2228"
       inkscape:locked="true"
       inkscape:label="right-circle"
       inkscape:color="rgb(255,0,0)" />
    <sodipodi:guide
       position="12,19"
       orientation="0,1"
       id="guide2230"
       inkscape:locked="true"
       inkscape:label="top-square"
       inkscape:color="rgb(255,0,0)" />
    <sodipodi:guide
       position="12,12"
       orientation="1,0"
       id="guide765"
       inkscape:locked="true" />
    <sodipodi:guide
       position="12,12"
       orientation="0,-1"
       id="guide767"
       inkscape:locked="true" />
    <sodipodi:guide
       position="12,12"
       orientation="0.70710678,0.70710678"
       id="guide2266"
       inkscape:locked="true"
       inkscape:label=""
       inkscape:color="rgb(255,0,0)" />
    <sodipodi:guide
       position="12,12"
       orientation="-0.70710678,0.70710678"
       id="guide2994"
       inkscape:locked="true"
       inkscape:label=""
       inkscape:color="rgb(255,0,0)" />
    <sodipodi:guide
       position="3,12"
       orientation="-1,0"
       id="guide131543"
       inkscape:locked="true"
       inkscape:label="left-horizontal"
       inkscape:color="rgb(255,0,0)" />
    <sodipodi:guide
       position="12,21"
       orientation="0,1"
       id="guide131545"
       inkscape:locked="true"
       inkscape:label="top-vertical"
       inkscape:color="rgb(255,0,0)" />
    <sodipodi:guide
       position="21,12"
       orientation="-1,0"
       id="guide131547"
       inkscape:locked="true"
       inkscape:label="right-horizontal"
       inkscape:color="rgb(255,0,0)" />
    <sodipodi:guide
       position="12,3"
       orientation="0,1"
       id="guide131549"
       inkscape:locked="true"
       inkscape:label="bottom-vertical"
       inkscape:color="rgb(255,0,0)" />
  </sodipodi:namedview>
  <defs
     id="defs152">
    <radialGradient
       id="radialGradient66380"
       cx="0"
       cy="0"
       r="1"
       gradientUnits="userSpaceOnUse"
       gradientTransform="translate(12 1) rotate(90) scale(22)">
      <stop
         stop-color="#8FC8FF"
         id="stop66376"
         offset="0"
         style="stop-color:#68a8f5;stop-opacity:1;" />
      <stop
         offset="1"
         stop-color="#0056A8"
         id="stop66378"
         style="stop-color:#cccccc;stop-opacity:1;" />
    </radialGradient>
    <radialGradient
       id="paint0_radial_29_23"
       cx="0"
       cy="0"
       r="1"
       gradientUnits="userSpaceOnUse"
       gradientTransform="translate(12 1) rotate(90) scale(22)">
      <stop
         stop-color="#8FC8FF"
         id="stop147"
         offset="0"
         style="stop-color:#f6f6f6;stop-opacity:1;" />
      <stop
         offset="1"
         stop-color="#0056A8"
         id="stop149"
         style="stop-color:#cfcfcf;stop-opacity:1;" />
    </radialGradient>
    <radialGradient
       id="paint0_radial_10_2"
       cx="0"
       cy="0"
       r="1"
       gradientUnits="userSpaceOnUse"
       gradientTransform="matrix(-10.999959,21.999967,-21.999967,-10.999959,17.5,1)"
       xlink:href="#paint0_radial_29_23">
      <stop
         stop-color="#777777"
         id="stop2847" />
      <stop
         offset="1"
         stop-color="#222222"
         id="stop2849" />
    </radialGradient>
    <radialGradient
       fx="0"
       fy="0"
       cx="0"
       cy="0"
       r="1"
       gradientUnits="userSpaceOnUse"
       gradientTransform="matrix(0,16.5,-16.5,0,8.999996,0.750012)"
       spreadMethod="pad"
       id="radialGradient3666-6">
      <stop
         style="stop-color:#ffffff;stop-opacity:1;"
         offset="0"
         id="stop3662-7" />
      <stop
         style="stop-color:#6a7cf1;stop-opacity:1;"
         offset="1"
         id="stop3664-5" />
    </radialGradient>
    <linearGradient
       id="a"
       x2="0"
       y1="1"
       y2="47"
       gradientTransform="matrix(1.1739,0,0,1.1739,3.826,3.826)"
       gradientUnits="userSpaceOnUse">
      <stop
         stop-color="#9584f4"
         offset="0"
         id="stop76422" />
      <stop
         stop-color="#8471f2"
         offset="1"
         id="stop76424" />
    </linearGradient>
    <linearGradient
       id="a-5"
       x1="7.9000001"
       x2="56.169998"
       y1="19.867001"
       y2="19.867001"
       gradientUnits="userSpaceOnUse">
      <stop
         stop-color="#fff"
         stop-opacity=".454"
         offset="0"
         id="stop101157" />
      <stop
         stop-color="#fff"
         stop-opacity=".276"
         offset="1"
         id="stop101159" />
    </linearGradient>
  </defs>
  <path
     d="M 50,5 C 9.0909092,5 5,25.454546 5,50 5,82.727274 17.272728,95 50,95 82.727274,95 95,82.727274 95,50 95,25.454546 90.909093,5 50,5 Z"
     sketch:type="MSShapeGroup"
     id="path6"
     style="font-variation-settings:normal;display:inline;opacity:1;vector-effect:none;fill:#ef8d2f;fill-opacity:1;stroke-width:4.56656;stroke-linecap:butt;stroke-linejoin:miter;stroke-miterlimit:4;stroke-dasharray:none;stroke-dashoffset:0;stroke-opacity:1;-inkscape-stroke:none;stop-color:#000000;stop-opacity:1"
     sodipodi:nodetypes="sssss"
     inkscape:label="Shape"
     transform="matrix(0.24444444,0,0,0.24444444,-0.22222222,-0.22222222)" />
  <g
     id="g101703"
     transform="matrix(0.2962963,0,0,0.2962963,2.5185185,2.5185185)">
    <path
       d="M 53,32 V 31.93 H 46.313 V 32 c 0,3.95 -1.399,7.325 -4.195,10.118 h -0.001 l -0.002,10e-4 v 0.002 c -2.793,2.793 -6.164,4.191 -10.115,4.191 -3.954,0 -7.328,-1.398 -10.121,-4.191 l -0.002,-0.002 h 0.002 v 0.002 C 19.085,39.324 17.687,35.951 17.687,32 V 31.93 H 11 V 32 c 0,5.797 2.05,10.745 6.148,14.849 v -0.002 h 0.002 l 0.001,0.002 c 4.1,4.1 9.05,6.15 14.85,6.15 5.796,0 10.745,-2.05 14.846,-6.15 v -0.002 l -0.002,0.002 h 0.002 C 50.95,42.746 53,37.797 53,31.999 Z"
       opacity="0.35"
       id="path101166" />
    <path
       d="m 31.971,7.84 c -6.637,0.016 -12.305,2.37 -17.002,7.066 h -0.002 v 0.002 c -0.022,0.02 -0.041,0.043 -0.06,0.065 -4.653,4.68 -6.987,10.32 -7.007,16.922 h 7.686 c 0.02,-4.478 1.604,-8.307 4.754,-11.488 l 0.062,-0.065 c 3.198,-3.197 7.053,-4.8 11.568,-4.816 V 7.84 Z m 0.002,0 v 7.686 h 0.063 c 4.48,0 8.316,1.564 11.503,4.69 l 0.124,0.124 v 0.002 h 0.002 c 3.194,3.195 4.8,7.047 4.82,11.553 H 56.17 C 56.151,25.265 53.795,19.603 49.098,14.907 H 49.096 L 48.973,14.784 C 44.286,10.155 38.64,7.84 32.035,7.84 h -0.063 z"
       fill="url(#a)"
       transform="matrix(0.8701,0,0,0.8701,4.126,4.179)"
       id="path101168"
       style="fill:url(#a-5)" />
    <path
       d="m 40.408,7.39 -11.67,25.264 2.68,3.209 4.262,-0.69 z"
       fill="#e6e6e6"
       id="path101170" />
    <path
       d="m 31.926,26.908 c -0.851,0 -1.64,0.153 -2.367,0.46 a 6.013,6.013 0 0 0 -1.934,1.321 c -0.825,0.826 -1.364,1.768 -1.615,2.832 a 6.329,6.329 0 0 0 -0.166,1.469 c 0,0.8 0.136,1.545 0.406,2.234 a 6.003,6.003 0 0 0 1.375,2.065 c 1.188,1.188 2.621,1.781 4.301,1.781 1.68,0 3.111,-0.593 4.299,-1.781 1.188,-1.188 1.781,-2.619 1.781,-4.299 0,-1.629 -0.559,-3.03 -1.68,-4.2 l -0.101,-0.1 a 6.295,6.295 0 0 0 -1.387,-1.057 7.187,7.187 0 0 0 -0.414,-0.207 c -0.759,-0.346 -1.59,-0.518 -2.492,-0.518 z"
       fill="#ffffff"
       id="path101172" />
  </g>
</svg>
