<?xml version="1.0" encoding="UTF-8" standalone="no"?>
<!-- Created with Inkscape (http://www.inkscape.org/) -->

<svg
   width="133.96359mm"
   height="133.96271mm"
   viewBox="0 0 133.96359 133.96271"
   version="1.1"
   id="svg5"
   xml:space="preserve"
   xmlns:inkscape="http://www.inkscape.org/namespaces/inkscape"
   xmlns:sodipodi="http://sodipodi.sourceforge.net/DTD/sodipodi-0.dtd"
   xmlns:xlink="http://www.w3.org/1999/xlink"
   xmlns="http://www.w3.org/2000/svg"
   xmlns:svg="http://www.w3.org/2000/svg"><sodipodi:namedview
     id="namedview7"
     pagecolor="#ffffff"
     bordercolor="#000000"
     borderopacity="0.25"
     inkscape:showpageshadow="2"
     inkscape:pageopacity="0.0"
     inkscape:pagecheckerboard="0"
     inkscape:deskcolor="#d1d1d1"
     inkscape:document-units="mm"
     showgrid="false" /><defs
     id="defs2"><linearGradient
       inkscape:collect="always"
       id="linearGradient2420"><stop
         style="stop-color:#cccccc;stop-opacity:1"
         offset="0"
         id="stop2416" /><stop
         style="stop-color:#f9f9f9;stop-opacity:1"
         offset="1"
         id="stop2418" /></linearGradient><linearGradient
       inkscape:collect="always"
       xlink:href="#linearGradient2420"
       id="linearGradient2422"
       x1="156.21281"
       y1="-409.44241"
       x2="170.48215"
       y2="525.19788"
       gradientUnits="userSpaceOnUse" /><linearGradient
       id="a"
       x2="0"
       y1="-521.79999"
       y2="-525.79999"
       gradientUnits="userSpaceOnUse"><stop
         stop-color="#2a2c2f"
         offset="0"
         id="stop3777" /><stop
         stop-color="#424649"
         offset="1"
         id="stop3779" /></linearGradient><linearGradient
       inkscape:collect="always"
       xlink:href="#linearGradient2420"
       id="linearGradient3874"
       gradientUnits="userSpaceOnUse"
       x1="156.21281"
       y1="-409.44241"
       x2="170.48215"
       y2="525.19788" /></defs><g
     id="g192"
     transform="matrix(0.35277776,0,0,0.35277778,5.0620457e-4,-1.6930737e-4)"
     style="fill:url(#linearGradient2422);fill-opacity:1"
     inkscape:export-filename="g192.svg"
     inkscape:export-xdpi="24.269279"
     inkscape:export-ydpi="24.269279"><path
       d="m 148.375,1.961 c 2.07,0.023 4.047,-0.242 5.93,-0.789 24.785,-1.625 49.566,-1.559 74.343,0.195 22.469,1.75 44.219,6.625 65.25,14.625 34.965,14.395 58.887,39.36 71.774,74.899 7.367,21.398 11.719,43.402 13.051,66.007 1.839,28.391 1.179,56.715 -1.981,84.981 -2.363,19.867 -7.504,38.969 -15.422,57.312 -14.683,31.801 -38.472,53.739 -71.375,65.809 -26.664,9.008 -54.082,13.754 -82.254,14.23 C 176,380.879 144.633,378.508 113.574,372.117 56.414,359.387 21.156,324.535 7.793,267.574 2.125,241.93 -0.445,215.977 0.082,189.707 -0.551,161.773 2.418,134.238 8.98,107.098 22.988,53.84 56.797,20.836 110.414,8.086 122.906,5.035 135.559,2.992 148.375,1.961 Z"
       style="fill:url(#linearGradient3874);fill-opacity:1;fill-rule:evenodd;stroke:none"
       id="path194" /></g><g
     transform="matrix(2.4336705,0,0,2.4336705,-927.34297,-1207.7752)"
     stroke-width="0.741"
     id="g3802"><rect
       x="388.57001"
       y="503.79999"
       width="40"
       height="40"
       rx="20"
       fill="#383b3e"
       id="rect3784" /><rect
       x="401.57001"
       y="516.79999"
       width="14"
       height="14"
       rx="7"
       fill="#f57953"
       id="rect3786" /><rect
       transform="scale(1,-1)"
       x="406.57001"
       y="-525.79999"
       width="4"
       height="4"
       rx="2"
       fill="url(#a)"
       id="rect3788"
       style="fill:url(#a)" /><path
       d="m 408.57,517.8 c -3.324,0 -6,2.676 -6,6 0,3.324 2.676,6 6,6 3.324,0 6,-2.676 6,-6 0,-3.324 -2.676,-6 -6,-6 m 0,1 c 2.77,0 5,2.23 5,5 0,2.77 -2.23,5 -5,5 -2.77,0 -5,-2.23 -5,-5 0,-2.77 2.23,-5 5,-5"
       fill="#ffffff"
       fill-opacity="0.275"
       id="path3790" /><g
       fill="#4c5053"
       id="g3800"><path
         d="m 418.07,507.34 c -0.971,-0.56 -1.973,-1 -2.99,-1.377 l -3.465,9.368 c 0.495,0.179 0.982,0.396 1.454,0.668 0.472,0.273 0.903,0.587 1.306,0.925 l 6.381,-7.685 a 19.04,19.04 0 0 0 -2.687,-1.901 M 399.07,540.25 a 18.959,18.959 0 0 1 -2.687,-1.901 l 6.381,-7.685 c 0.403,0.339 0.834,0.653 1.306,0.925 0.472,0.273 0.96,0.489 1.454,0.668 l -3.465,9.368 a 19.039,19.039 0 0 1 -2.99,-1.376"
         id="path3792" /><g
         fill-opacity="0.198"
         id="g3798"><path
           d="m 422.01,510.36 a 19,19 0 0 0 -2.531,-2.103 l -5.771,8.152 c 0.431,0.301 0.846,0.636 1.232,1.022 0.386,0.386 0.721,0.801 1.022,1.232 l 8.152,-5.771 a 19.013,19.013 0 0 0 -2.103,-2.531 M 395.14,537.23 a 18.945,18.945 0 0 1 -2.103,-2.532 l 8.152,-5.771 c 0.301,0.431 0.636,0.846 1.022,1.232 0.386,0.386 0.801,0.721 1.232,1.022 l -5.771,8.152 a 19.013,19.013 0 0 1 -2.531,-2.103"
           id="path3794" /><path
           d="m 425.03,514.3 a 18.959,18.959 0 0 0 -1.901,-2.687 l -7.685,6.381 c 0.339,0.403 0.653,0.834 0.925,1.306 0.273,0.472 0.489,0.96 0.668,1.454 l 9.368,-3.465 a 18.955,18.955 0 0 0 -1.377,-2.99 M 392.12,533.3 c -0.56,-0.971 -1,-1.973 -1.377,-2.99 l 9.368,-3.465 c 0.179,0.495 0.396,0.982 0.668,1.454 0.273,0.472 0.587,0.903 0.925,1.306 l -7.685,6.381 a 19.04,19.04 0 0 1 -1.901,-2.687"
           id="path3796" /></g></g></g></svg>
