<?xml version="1.0" encoding="UTF-8" standalone="no"?>
<svg
   width="24"
   height="24"
   version="1"
   id="svg2"
   sodipodi:docname="haguichi.svg"
   inkscape:version="1.3 (0e150ed6c4, 2023-07-21)"
   xmlns:inkscape="http://www.inkscape.org/namespaces/inkscape"
   xmlns:sodipodi="http://sodipodi.sourceforge.net/DTD/sodipodi-0.dtd"
   xmlns="http://www.w3.org/2000/svg"
   xmlns:svg="http://www.w3.org/2000/svg">
  <defs
     id="defs2">
    <radialGradient
       fx="0"
       fy="0"
       cx="0"
       cy="0"
       r="1"
       gradientUnits="userSpaceOnUse"
       gradientTransform="matrix(0,21.999999,-21.999999,0,11.999082,0.99994475)"
       spreadMethod="pad"
       id="radialGradient868-3">
      <stop
         style="stop-opacity:1;stop-color:#fafafa"
         offset="0"
         id="stop864-6" />
      <stop
         style="stop-color:#f2f2f2;stop-opacity:1;"
         offset="1"
         id="stop866-7" />
    </radialGradient>
  </defs>
  <sodipodi:namedview
     id="namedview2"
     pagecolor="#ffffff"
     bordercolor="#000000"
     borderopacity="0.25"
     inkscape:showpageshadow="2"
     inkscape:pageopacity="0.0"
     inkscape:pagecheckerboard="0"
     inkscape:deskcolor="#d1d1d1"
     inkscape:zoom="6.3359375"
     inkscape:cx="3.1565968"
     inkscape:cy="32.434032"
     inkscape:window-width="2560"
     inkscape:window-height="998"
     inkscape:window-x="0"
     inkscape:window-y="0"
     inkscape:window-maximized="1"
     inkscape:current-layer="svg2" />
  <path
     d="m 9.5928807,1.1146314 c 0.1199999,0 0.2346666,-0.016 0.3439999,-0.046667 1.4373334,-0.0946666 2.8746664,-0.0893333 4.3080004,0.010667 1.301333,0.104 2.561333,0.3853333 3.781333,0.848 2.025333,0.8333333 3.410666,2.2813333 4.161333,4.3386665 0.421333,1.24 0.676,2.516 0.754667,3.8226671 0.104,1.646666 0.068,3.286666 -0.114667,4.927999 -0.14,1.150667 -0.437333,2.254667 -0.896,3.317334 -0.849333,1.844 -2.229333,3.114666 -4.134667,3.812 -1.542666,0.521333 -3.130666,0.797333 -4.766666,0.824 -1.833333,0.09867 -3.6506667,-0.04267 -5.452,-0.412 -3.3079999,-0.734667 -5.3546665,-2.754667 -6.1253331,-6.057334 -0.328,-1.484 -0.48000003,-2.989333 -0.448,-4.510666 -0.036,-1.614667 0.1346666,-3.2133334 0.516,-4.7866667 C 2.3328808,4.1199647 4.2915475,2.2079647 7.3955474,1.4692981 8.1195474,1.2919647 8.854214,1.1719647 9.5928807,1.1146314 Z"
     style="fill:url(#radialGradient868-3);fill-rule:evenodd;stroke:none;stroke-width:1.33333"
     id="path870" />
  <g
     stroke-width="0.980769"
     color="#000000"
     id="g4"
     transform="matrix(0.38235294,0,0,0.38235294,-0.23529408,-0.23529408)">
    <path
       d="M 34.144,15 H 45.6 L 29.857,32 23.954,37.966 18.4,32 Z"
       fill="#ff9662"
       id="path3"
       style="stroke-width:0.980769" />
    <path
       d="M 34.144,49 H 45.6 l -14.742,-15.924 -6.923,4.87 z"
       fill="#f94f4f"
       id="path4"
       style="stroke-width:0.980769" />
  </g>
</svg>
