<?xml version="1.0" encoding="UTF-8" standalone="no"?>
<svg
   width="24"
   height="24"
   version="1"
   id="svg8"
   sodipodi:docname="hedgewars.svg"
   inkscape:version="1.3 (0e150ed6c4, 2023-07-21)"
   xmlns:inkscape="http://www.inkscape.org/namespaces/inkscape"
   xmlns:sodipodi="http://sodipodi.sourceforge.net/DTD/sodipodi-0.dtd"
   xmlns="http://www.w3.org/2000/svg"
   xmlns:svg="http://www.w3.org/2000/svg">
  <defs
     id="defs8">
    <radialGradient
       fx="0"
       fy="0"
       cx="0"
       cy="0"
       r="1"
       gradientUnits="userSpaceOnUse"
       gradientTransform="matrix(0,16.5,-16.5,0,8.999651,0.749985)"
       spreadMethod="pad"
       id="radialGradient868-3">
      <stop
         style="stop-opacity:1;stop-color:#fafafa"
         offset="0"
         id="stop864-6" />
      <stop
         style="stop-opacity:1;stop-color:#c0c0c0"
         offset="1"
         id="stop866-7" />
    </radialGradient>
  </defs>
  <sodipodi:namedview
     id="namedview8"
     pagecolor="#ffffff"
     bordercolor="#000000"
     borderopacity="0.25"
     inkscape:showpageshadow="2"
     inkscape:pageopacity="0.0"
     inkscape:pagecheckerboard="0"
     inkscape:deskcolor="#d1d1d1"
     inkscape:zoom="4.4801844"
     inkscape:cx="-18.079613"
     inkscape:cy="36.047624"
     inkscape:window-width="2560"
     inkscape:window-height="998"
     inkscape:window-x="0"
     inkscape:window-y="0"
     inkscape:window-maximized="1"
     inkscape:current-layer="svg8" />
  <g
     id="g854"
     transform="matrix(1.3333333,0,0,1.3333333,-4.5244194e-4,-3.5228353e-5)">
    <g
       id="g856">
      <g
         id="g862">
        <path
           d="m 7.195,0.836 c 0.09,0 0.176,-0.012 0.258,-0.035 1.078,-0.071 2.156,-0.067 3.231,0.008 0.976,0.078 1.921,0.289 2.836,0.636 1.519,0.625 2.558,1.711 3.121,3.254 0.316,0.93 0.507,1.887 0.566,2.867 0.078,1.235 0.051,2.465 -0.086,3.696 -0.105,0.863 -0.328,1.691 -0.672,2.488 -0.637,1.383 -1.672,2.336 -3.101,2.859 C 12.191,17 11,17.207 9.773,17.227 8.398,17.301 7.035,17.195 5.684,16.918 3.203,16.367 1.668,14.852 1.09,12.375 0.844,11.262 0.73,10.133 0.754,8.992 0.727,7.781 0.855,6.582 1.141,5.402 1.75,3.09 3.219,1.656 5.547,1.102 6.09,0.969 6.641,0.879 7.195,0.836 Z"
           style="fill:url(#radialGradient868-3);fill-rule:evenodd;stroke:none"
           id="path870" />
      </g>
    </g>
  </g>
  <g
     transform="matrix(0.25,0,0,0.25,4,4)"
     id="g8"
     style="stroke-width:2.92308">
    <rect
       transform="matrix(0,-1,-1,0,0,0)"
       x="-54"
       y="-54"
       width="14"
       height="14"
       rx="7"
       ry="7"
       fill="#df82d9"
       id="rect1"
       style="stroke-width:2.92308" />
    <path
       d="m 8,38 8.43,-12.768 6.842,11.851 z"
       fill="#72acef"
       id="path1"
       style="stroke-width:2.92308" />
    <path
       d="M 6,27 20,20 V 34 Z"
       fill="#4c95eb"
       id="path2"
       style="stroke-width:2.92308" />
    <path
       d="M 8,17.849 22.988,14.782 19.447,28 Z"
       fill="#3a8ae9"
       id="path3"
       style="stroke-width:2.92308" />
    <path
       d="M 14,9.232 29.272,10.149 22.43,22 Z"
       fill="#3074c3"
       id="path4"
       style="stroke-width:2.92308" />
    <rect
       transform="matrix(0,-1,-1,0,0,0)"
       x="-48"
       y="-58"
       width="40"
       height="40"
       rx="20"
       ry="20"
       fill="#d761cf"
       id="rect4"
       style="stroke-width:2.92308" />
    <rect
       transform="matrix(0,-1,-1,0,0,0)"
       x="-56"
       y="-36"
       width="14"
       height="14"
       rx="7"
       ry="7"
       fill="#df82d9"
       id="rect5"
       style="stroke-width:2.92308" />
    <g
       transform="matrix(1.3333,0,0,1.2727,8.667,-2.364)"
       fill="#ffffff"
       id="g6"
       style="stroke-width:2.92308">
      <ellipse
         cx="26"
         cy="22"
         rx="4"
         ry="5"
         id="ellipse5"
         style="stroke-width:2.92308" />
      <ellipse
         cx="30"
         cy="21"
         rx="4"
         ry="5"
         id="ellipse6"
         style="stroke-width:2.92308" />
    </g>
    <ellipse
       cx="45.5"
       cy="26"
       rx="1.5"
       ry="2"
       fill="#1b1b1b"
       id="ellipse7"
       style="stroke-width:2.92308" />
    <path
       d="m 50.598,36 c -2.185,0.525 -3.53,2.285 -5.685,2.763 -1.551,0.302 -3.593,-0.98 -5.046,-0.264 -0.814,0.4 -2.923,1.458 -1.221,2.14 0,0 1.003,0.405 2.267,0.767 1.265,0.361 2.73,0.773 4.28,0.511 1.75,-0.296 3.16,-1.31 4.355,-2.202 1.195,-0.892 2.08,-1.73 2.08,-1.73 0.824,-0.758 0.192,-1.976 -1.03,-1.986 z"
       fill-rule="evenodd"
       opacity="0.6"
       id="path7"
       style="stroke-width:2.92308" />
    <ellipse
       cx="51.5"
       cy="24"
       rx="1.5"
       ry="2"
       fill="#1b1b1b"
       id="ellipse8"
       style="stroke-width:2.92308" />
  </g>
</svg>
