<?xml version="1.0" encoding="UTF-8" standalone="no"?>
<!-- Created with Inkscape (http://www.inkscape.org/) -->

<svg
   width="52.916664mm"
   height="52.916451mm"
   viewBox="0 0 52.916664 52.916451"
   version="1.1"
   id="svg5"
   xml:space="preserve"
   inkscape:export-filename="bitmap.svg"
   inkscape:export-xdpi="96"
   inkscape:export-ydpi="96"
   xmlns:inkscape="http://www.inkscape.org/namespaces/inkscape"
   xmlns:sodipodi="http://sodipodi.sourceforge.net/DTD/sodipodi-0.dtd"
   xmlns:xlink="http://www.w3.org/1999/xlink"
   xmlns="http://www.w3.org/2000/svg"
   xmlns:svg="http://www.w3.org/2000/svg"><sodipodi:namedview
     id="namedview7"
     pagecolor="#ffffff"
     bordercolor="#000000"
     borderopacity="0.25"
     inkscape:showpageshadow="2"
     inkscape:pageopacity="0.0"
     inkscape:pagecheckerboard="0"
     inkscape:deskcolor="#d1d1d1"
     inkscape:document-units="mm"
     showgrid="false" /><defs
     id="defs2"><linearGradient
       inkscape:collect="always"
       id="linearGradient12825"><stop
         style="stop-color:#000000;stop-opacity:1;"
         offset="0"
         id="stop12821" /><stop
         style="stop-color:#000000;stop-opacity:0;"
         offset="1"
         id="stop12823" /></linearGradient><linearGradient
       inkscape:collect="always"
       id="linearGradient11145"><stop
         style="stop-color:#070a0b;stop-opacity:1"
         offset="0"
         id="stop11141" /><stop
         style="stop-color:#449ffc;stop-opacity:1"
         offset="0.50819635"
         id="stop11157" /><stop
         style="stop-color:#1dd8ee;stop-opacity:1"
         offset="1"
         id="stop11143" /></linearGradient><style
       type="text/css"
       id="current-color-scheme">
      .ColorScheme-Text {
        color:#31363b;
      }
      .ColorScheme-Background {
        color:#eff0f1;
      }
      .ColorScheme-Highlight {
        color:#3daee9;
      }
      .ColorScheme-ViewText {
        color:#31363b;
      }
      .ColorScheme-ViewBackground {
        color:#fcfcfc;
      }
      .ColorScheme-ViewHover {
        color:#93cee9;
      }
      .ColorScheme-ViewFocus{
        color:#3daee9;
      }
      .ColorScheme-ButtonText {
        color:#31363b;
      }
      .ColorScheme-ButtonBackground {
        color:#eff0f1;
      }
      .ColorScheme-ButtonHover {
        color:#93cee9;
      }
      .ColorScheme-ButtonFocus{
        color:#3daee9;
      }
      </style><style
       type="text/css"
       id="current-color-scheme-9">
      .ColorScheme-Text {
        color:#31363b;
      }
      .ColorScheme-Background {
        color:#eff0f1;
      }
      .ColorScheme-Highlight {
        color:#3daee9;
      }
      .ColorScheme-ViewText {
        color:#31363b;
      }
      .ColorScheme-ViewBackground {
        color:#fcfcfc;
      }
      .ColorScheme-ViewHover {
        color:#93cee9;
      }
      .ColorScheme-ViewFocus{
        color:#3daee9;
      }
      .ColorScheme-ButtonText {
        color:#31363b;
      }
      .ColorScheme-ButtonBackground {
        color:#eff0f1;
      }
      .ColorScheme-ButtonHover {
        color:#93cee9;
      }
      .ColorScheme-ButtonFocus{
        color:#3daee9;
      }
      </style><style
       type="text/css"
       id="current-color-scheme-2">
      .ColorScheme-Text {
        color:#31363b;
      }
      .ColorScheme-Background {
        color:#eff0f1;
      }
      .ColorScheme-Highlight {
        color:#3daee9;
      }
      .ColorScheme-ViewText {
        color:#31363b;
      }
      .ColorScheme-ViewBackground {
        color:#fcfcfc;
      }
      .ColorScheme-ViewHover {
        color:#93cee9;
      }
      .ColorScheme-ViewFocus{
        color:#3daee9;
      }
      .ColorScheme-ButtonText {
        color:#31363b;
      }
      .ColorScheme-ButtonBackground {
        color:#eff0f1;
      }
      .ColorScheme-ButtonHover {
        color:#93cee9;
      }
      .ColorScheme-ButtonFocus{
        color:#3daee9;
      }
      </style><style
       type="text/css"
       id="current-color-scheme-3">
      .ColorScheme-Text {
        color:#31363b;
      }
      .ColorScheme-Background {
        color:#eff0f1;
      }
      .ColorScheme-Highlight {
        color:#3daee9;
      }
      .ColorScheme-ViewText {
        color:#31363b;
      }
      .ColorScheme-ViewBackground {
        color:#fcfcfc;
      }
      .ColorScheme-ViewHover {
        color:#93cee9;
      }
      .ColorScheme-ViewFocus{
        color:#3daee9;
      }
      .ColorScheme-ButtonText {
        color:#31363b;
      }
      .ColorScheme-ButtonBackground {
        color:#eff0f1;
      }
      .ColorScheme-ButtonHover {
        color:#93cee9;
      }
      .ColorScheme-ButtonFocus{
        color:#3daee9;
      }
      </style><style
       type="text/css"
       id="current-color-scheme-97">
      .ColorScheme-Text {
        color:#31363b;
      }
      .ColorScheme-Background {
        color:#eff0f1;
      }
      .ColorScheme-Highlight {
        color:#3daee9;
      }
      .ColorScheme-ViewText {
        color:#31363b;
      }
      .ColorScheme-ViewBackground {
        color:#fcfcfc;
      }
      .ColorScheme-ViewHover {
        color:#93cee9;
      }
      .ColorScheme-ViewFocus{
        color:#3daee9;
      }
      .ColorScheme-ButtonText {
        color:#31363b;
      }
      .ColorScheme-ButtonBackground {
        color:#eff0f1;
      }
      .ColorScheme-ButtonHover {
        color:#93cee9;
      }
      .ColorScheme-ButtonFocus{
        color:#3daee9;
      }
      </style><linearGradient
       inkscape:collect="always"
       xlink:href="#linearGradient11145"
       id="linearGradient11147"
       x1="226.98016"
       y1="-327.60983"
       x2="234.48647"
       y2="817.10016"
       gradientUnits="userSpaceOnUse" /><linearGradient
       inkscape:collect="always"
       xlink:href="#linearGradient11145"
       id="linearGradient12815"
       gradientUnits="userSpaceOnUse"
       x1="226.98016"
       y1="-327.60983"
       x2="234.48647"
       y2="817.10016" /><linearGradient
       inkscape:collect="always"
       xlink:href="#linearGradient11145"
       id="linearGradient12817"
       gradientUnits="userSpaceOnUse"
       x1="226.98016"
       y1="-327.60983"
       x2="234.48647"
       y2="817.10016" /><linearGradient
       inkscape:collect="always"
       xlink:href="#linearGradient11145"
       id="linearGradient12819"
       gradientUnits="userSpaceOnUse"
       x1="226.98016"
       y1="-327.60983"
       x2="234.48647"
       y2="817.10016" /><linearGradient
       inkscape:collect="always"
       xlink:href="#linearGradient12825"
       id="linearGradient12827"
       x1="99.221169"
       y1="125.4725"
       x2="98.331291"
       y2="243.38106"
       gradientUnits="userSpaceOnUse"
       gradientTransform="translate(0.44493608)" /></defs><g
     inkscape:label="Camada 1"
     inkscape:groupmode="layer"
     id="layer1"
     transform="translate(-78.541666,-122.04178)"><g
       id="g244"
       transform="matrix(0.11855061,0,0,0.11855062,78.541658,122.04175)"
       style="fill:url(#linearGradient11147);fill-opacity:1"
       inkscape:export-filename="heroic-games-launcher.svg"
       inkscape:export-xdpi="96"
       inkscape:export-ydpi="96"><g
         id="g246"
         style="fill:url(#linearGradient12819);fill-opacity:1"><g
           id="g252"
           style="fill:url(#linearGradient12817);fill-opacity:1"><path
             d="m 174.406,2.305 c 2.434,0.027 4.758,-0.285 6.973,-0.93 29.133,-1.906 58.258,-1.832 87.387,0.234 26.41,2.055 51.976,7.786 76.699,17.188 41.097,16.922 69.219,46.269 84.363,88.043 8.66,25.152 13.774,51.015 15.34,77.59 2.164,33.371 1.391,66.668 -2.324,99.89 -2.782,23.352 -8.824,45.805 -18.129,67.368 -17.258,37.382 -45.223,63.167 -83.899,77.355 -31.343,10.59 -63.57,16.164 -96.687,16.723 -37.246,1.937 -74.121,-0.848 -110.625,-8.36 C 66.312,422.438 24.867,381.477 9.164,314.52 2.496,284.375 -0.523,253.867 0.098,222.992 -0.645,190.16 2.84,157.793 10.559,125.891 27.02,63.285 66.762,24.488 129.785,9.508 144.469,5.914 159.344,3.516 174.406,2.305 Z"
             style="fill:url(#linearGradient12815);fill-opacity:1;fill-rule:evenodd;stroke:none"
             id="path260" /></g></g></g><path
       style="fill:url(#linearGradient12827);fill-opacity:1;stroke:none;stroke-width:0.0398661"
       d="m 104.79494,130.01833 c -0.43342,0.0682 -0.83735,0.3105 -1.23585,0.48384 -0.75893,0.33013 -1.5179,0.66127 -2.27237,1.00138 -2.236049,1.00805 -4.483709,2.00028 -6.737379,2.96827 -0.68051,0.29229 -1.35795,0.5944 -2.03317,0.89874 -0.51351,0.2315 -0.99099,0.43035 -1.19195,1.00885 -0.17015,0.48987 0.0149,0.9894 0.11545,1.47504 0.19562,0.94479 0.41389,1.88503 0.60604,2.8305 0.76611,3.76922 1.64396,7.51571 2.42378,11.2821 0.37474,1.80996 0.79601,3.61048 1.16417,5.42179 0.1137,0.55936 0.2451,1.11506 0.3588,1.67438 0.069,0.33962 0.10863,0.73553 0.29022,1.03652 0.37403,0.62 1.17745,1.10513 1.73501,1.55478 1.086,0.87581 2.144159,1.78616 3.229169,2.66317 0.8033,0.64934 1.59568,1.31331 2.39196,1.97126 0.44543,0.36804 0.89085,0.77715 1.51492,0.6961 0.60465,-0.0785 1.06123,-0.56111 1.51491,-0.92976 0.90169,-0.73273 1.81227,-1.45475 2.71089,-2.19124 1.00279,-0.82184 2.01743,-1.6308 3.02983,-2.44076 0.47169,-0.37737 1.13554,-0.76407 1.45638,-1.28369 0.28517,-0.46185 0.3283,-1.10979 0.43327,-1.63451 0.20483,-1.02396 0.41309,-2.04824 0.63032,-3.06969 0.7675,-3.60935 1.51619,-7.22517 2.24004,-10.84357 0.37749,-1.88715 0.74199,-3.78382 1.16612,-5.66099 0.16848,-0.74578 0.59963,-1.84831 0.31419,-2.5913 -0.19722,-0.51331 -0.62833,-0.71755 -1.0976,-0.92912 -0.64846,-0.29233 -1.30278,-0.57184 -1.95344,-0.85927 -2.57718,-1.13862 -5.15038,-2.28724 -7.73402,-3.41112 -0.62594,-0.27227 -1.24653,-0.55687 -1.87371,-0.82627 -0.38514,-0.16544 -0.76359,-0.36348 -1.19598,-0.29543 m -0.0399,0.55262 c 0.52348,-0.0773 0.97293,0.16611 1.43517,0.37449 0.55618,0.25072 1.11933,0.48574 1.67438,0.73898 2.27069,1.03592 4.56551,2.03138 6.85697,3.02061 0.59998,0.25901 1.19347,0.53341 1.79397,0.79135 0.44918,0.19291 0.907,0.39304 1.0976,0.88303 0.27579,0.70894 -0.1269,1.71946 -0.28337,2.43183 -0.38104,1.73485 -0.72839,3.48087 -1.07734,5.22246 -0.68474,3.4174 -1.36418,6.84138 -2.11195,10.24559 -0.20064,0.91361 -0.38359,1.83356 -0.56705,2.75076 -0.0901,0.45013 -0.12036,1.00084 -0.37207,1.39531 -0.28198,0.44192 -0.83209,0.74893 -1.23055,1.07962 -0.98497,0.81745 -1.99048,1.61302 -2.98996,2.41265 -0.82646,0.66122 -1.64519,1.33209 -2.4717,1.99331 -0.43482,0.34787 -0.81893,0.7608 -1.39531,0.82945 -0.56131,0.0669 -0.99458,-0.31697 -1.39531,-0.65085 -0.7284,-0.60685 -1.45699,-1.21464 -2.19264,-1.81268 -1.04258,-0.84755 -2.077228,-1.70598 -3.109559,-2.56594 -0.46468,-0.3871 -1.12052,-0.77053 -1.4467,-1.2856 -0.37853,-0.59767 -0.41306,-1.54744 -0.56351,-2.23246 -0.36737,-1.6725 -0.70906,-3.35063 -1.07639,-5.02313 -0.7783,-3.54334 -1.56482,-7.08915 -2.28739,-10.64425 -0.18135,-0.89228 -0.38507,-1.78038 -0.57447,-2.67103 -0.10063,-0.47333 -0.27317,-0.95774 -0.10716,-1.43517 0.17876,-0.514 0.64961,-0.72421 1.11222,-0.9229 0.61274,-0.2632 1.22588,-0.52951 1.83384,-0.80355 2.11837,-0.95483 4.253151,-1.8737 6.378589,-2.81271 0.69096,-0.30529 1.37896,-0.61837 2.07303,-0.9165 0.31714,-0.13622 0.65217,-0.34179 0.99666,-0.39267 m 0.11959,3.01783 c -0.50725,1.08647 -1.21236,2.10677 -1.80517,3.14942 -0.21564,0.37933 -0.61841,0.847 -0.70699,1.27572 -0.0788,0.38116 0.0724,0.89109 0.11358,1.27571 0.0925,0.86362 0.19251,1.727 0.27894,2.5913 0.28584,2.85884 0.61119,5.71441 0.91704,8.57121 0.15492,1.44682 0.26982,2.90313 0.46205,4.34541 0.065,0.48768 0.10274,0.67792 0.50136,0.99665 0.0965,0.0771 0.2264,0.22273 0.35879,0.22616 0.13292,0.003 0.26312,-0.14172 0.3588,-0.21819 0.40249,-0.32164 0.43115,-0.51431 0.48979,-1.00462 0.17438,-1.45807 0.28776,-2.92422 0.43386,-4.38527 0.28166,-2.81686 0.55554,-5.63484 0.83719,-8.45162 0.093,-0.92963 0.20759,-1.85891 0.27588,-2.79062 0.0254,-0.34704 0.17911,-0.81702 0.0956,-1.15612 -0.1288,-0.52288 -0.59835,-1.09229 -0.87242,-1.55478 -0.56319,-0.95037 -1.08185,-1.92804 -1.65855,-2.87036 h -0.0797 m -4.48977,21.53037 c -0.18689,0.10656 -0.29501,0.45451 -0.396858,0.63518 -0.14663,0.26013 -0.43163,0.6204 -0.47445,0.91692 -0.0506,0.35027 0.45495,0.97361 0.622548,1.27572 0.0654,0.11784 0.11908,0.28664 0.24215,0.35752 0.20444,0.11776 0.64743,-0.045 0.86857,-0.0816 l 1.83384,-0.30589 c 0.24135,-0.0402 0.61641,-0.0333 0.82419,-0.16884 0.19403,-0.12665 0.69531,-0.80242 0.68781,-1.03699 -0.008,-0.2449 -0.50773,-0.90772 -0.72162,-1.01922 -0.18992,-0.0991 -0.46204,-0.0965 -0.67078,-0.1369 -0.52911,-0.10242 -1.06295,-0.18781 -1.59465,-0.27588 -0.27802,-0.046 -0.97042,-0.3027 -1.22075,-0.15998 m 9.07378,-0.0231 c -0.72752,0.0421 -1.47306,0.25694 -2.19204,0.37606 -0.3446,0.0571 -0.83866,0.0558 -1.14878,0.21982 -0.22911,0.12119 -0.65536,0.72612 -0.71046,0.97935 -0.052,0.2392 0.47931,0.94834 0.67625,1.07687 0.23378,0.15256 0.67143,0.14359 0.94379,0.189 l 1.67438,0.27906 c 0.24653,0.0411 0.54708,0.14229 0.79672,0.11996 0.25044,-0.0224 0.38527,-0.43542 0.48776,-0.62837 0.13858,-0.26088 0.50124,-0.69626 0.49004,-0.99665 -0.0108,-0.28768 -0.3159,-0.66899 -0.4534,-0.91692 -0.11796,-0.21269 -0.27192,-0.71508 -0.56426,-0.69818 m -4.50427,2.33911 c -0.2111,0.0377 -0.64779,0.44953 -0.73398,0.64284 -0.0902,0.2022 -0.0781,0.48816 -0.10839,0.70619 -0.0738,0.53081 -0.13551,1.0633 -0.20539,1.59464 -0.0351,0.26674 -0.18961,0.73457 -0.0843,0.98932 0.0957,0.23138 0.95934,0.84883 1.21177,0.80756 0.17274,-0.0282 0.33958,-0.19598 0.47839,-0.29313 0.18586,-0.13008 0.56379,-0.29744 0.65365,-0.51443 0.0899,-0.21723 -0.0341,-0.60338 -0.0665,-0.82986 -0.0928,-0.64942 -0.19303,-1.3015 -0.26627,-1.95344 -0.0495,-0.44071 -0.15508,-0.61353 -0.48038,-0.91592 -0.10039,-0.0933 -0.24414,-0.26136 -0.39866,-0.23377 z"
       id="path1691" /></g></svg>
