<?xml version="1.0" encoding="UTF-8" standalone="no"?>
<!-- Created with Inkscape (http://www.inkscape.org/) -->

<svg
   width="133.96359mm"
   height="133.96271mm"
   viewBox="0 0 133.96359 133.96271"
   version="1.1"
   id="svg5"
   xml:space="preserve"
   xmlns:inkscape="http://www.inkscape.org/namespaces/inkscape"
   xmlns:sodipodi="http://sodipodi.sourceforge.net/DTD/sodipodi-0.dtd"
   xmlns:xlink="http://www.w3.org/1999/xlink"
   xmlns="http://www.w3.org/2000/svg"
   xmlns:svg="http://www.w3.org/2000/svg"><sodipodi:namedview
     id="namedview7"
     pagecolor="#ffffff"
     bordercolor="#000000"
     borderopacity="0.25"
     inkscape:showpageshadow="2"
     inkscape:pageopacity="0.0"
     inkscape:pagecheckerboard="0"
     inkscape:deskcolor="#d1d1d1"
     inkscape:document-units="mm"
     showgrid="false" /><defs
     id="defs2"><linearGradient
       inkscape:collect="always"
       id="linearGradient14592"><stop
         style="stop-color:#cccccc;stop-opacity:1;"
         offset="0"
         id="stop14588" /><stop
         style="stop-color:#f2f2f2;stop-opacity:1"
         offset="1"
         id="stop14590" /></linearGradient><linearGradient
       inkscape:collect="always"
       xlink:href="#linearGradient14592"
       id="linearGradient14594"
       x1="217.63074"
       y1="505.48901"
       x2="207.54082"
       y2="6.0374212"
       gradientUnits="userSpaceOnUse" /><linearGradient
       inkscape:collect="always"
       xlink:href="#linearGradient14592"
       id="linearGradient14724"
       gradientUnits="userSpaceOnUse"
       x1="217.63074"
       y1="505.48901"
       x2="207.54082"
       y2="6.0374212" /></defs><g
     id="g192"
     transform="matrix(0.35277776,0,0,0.35277778,5.0620457e-4,-1.6930737e-4)"
     style="fill:url(#linearGradient14594);fill-opacity:1"
     inkscape:export-filename="g192.svg"
     inkscape:export-xdpi="24.269279"
     inkscape:export-ydpi="24.269279"><path
       d="m 148.375,1.961 c 2.07,0.023 4.047,-0.242 5.93,-0.789 24.785,-1.625 49.566,-1.559 74.343,0.195 22.469,1.75 44.219,6.625 65.25,14.625 34.965,14.395 58.887,39.36 71.774,74.899 7.367,21.398 11.719,43.402 13.051,66.007 1.839,28.391 1.179,56.715 -1.981,84.981 -2.363,19.867 -7.504,38.969 -15.422,57.312 -14.683,31.801 -38.472,53.739 -71.375,65.809 -26.664,9.008 -54.082,13.754 -82.254,14.23 C 176,380.879 144.633,378.508 113.574,372.117 56.414,359.387 21.156,324.535 7.793,267.574 2.125,241.93 -0.445,215.977 0.082,189.707 -0.551,161.773 2.418,134.238 8.98,107.098 22.988,53.84 56.797,20.836 110.414,8.086 122.906,5.035 135.559,2.992 148.375,1.961 Z"
       style="fill:url(#linearGradient14724);fill-opacity:1;fill-rule:evenodd;stroke:none"
       id="path194" /></g><g
     transform="matrix(2.3688485,0,0,2.3688485,-10.390727,-7.4529483)"
     stroke-width="2.773"
     id="g14567"><path
       d="m 30.747,12.408 c -2.97,3.35 -4.724,6.903 -4.81,10.312 -0.09,3.619 1.014,7.015 2.221,9.591 a 0.693,0.693 0 0 1 -0.292,0.9 9.017,9.017 0 0 0 -3.114,2.827 c -0.419,0.612 -1.377,0.228 -1.257,-0.504 l 0.162,-0.986 c 0,-0.181 -0.182,-0.284 -0.21,-0.438 -0.025,0.11 -0.02,0.273 -0.044,0.379 -0.178,0.786 -0.32,1.455 -0.217,2.329 0.035,0.287 0.163,0.531 0.374,0.839 0.122,0.18 0.152,0.408 0.081,0.613 a 9.009,9.009 0 0 0 -0.411,3.957 v 0.005 c 0.056,0.441 0.145,0.874 0.265,1.3 0.208,0.752 -0.787,1.224 -1.235,0.586 -0.139,-0.2 -0.335,-0.474 -0.509,-0.699 0.25,1.994 0.81,3.932 1.966,5.513 1.813,2.479 4.558,4.106 7.891,3.97 h 0.027 c 5.697,0.006 8.896,-2.232 10.632,-5.529 1.73,-3.288 1.925,-7.739 1.16,-12.018 -0.458,-1.79 -1.393,-3.702 -2.807,-5.464 -2.259,-2.813 -5.023,-4.477 -7.258,-6.456 a 0.694,0.694 0 0 1 -0.232,-0.46 80.217,80.217 0 0 1 -0.287,-6.808 c -0.01,0.023 -0.034,0.041 -0.044,0.065 -0.336,0.81 -0.696,2.223 -0.97,3.385 -0.148,0.65 -1.04,0.736 -1.31,0.124 -0.034,-0.077 -0.144,-0.229 -0.243,-0.503 a 0.685,0.685 0 0 1 -0.028,-0.087 c -0.462,-2.083 -0.123,-4.37 0.347,-6.272 0.057,-0.23 0.091,-0.252 0.152,-0.47 z m -7.36,32.805 c 0.03,0.067 0.06,0.133 0.092,0.2 -0.045,0.014 -0.065,0.036 -0.114,0.05 0.03,-0.084 0.012,-0.167 0.022,-0.25 z"
       fill="#ff7d20"
       id="path14553" /><path
       d="m 32.507,9.24 c 0,0 -4.162,5.804 -3.77,9.495 0.32,3.005 6.512,12.224 8.424,18.322 l -6.963,0.011 C 29.143,35.837 25.071,29.688 25.244,22.7 25.357,18.197 27.465,13.346 32.507,9.24 Z"
       fill="#ff7d20"
       id="path14555" /><path
       d="m 23.028,31.7 c 0.133,2.078 -0.766,3.216 -0.53,5.2 0.101,0.85 0.74,1.378 1.13,2.104 l 0.262,-1.594 0.061,-0.375 0.402,-2.447 0.017,-0.021 -0.013,-0.005 V 34.56 c 0,-1.229 -0.59,-1.95 -1.329,-2.86 z"
       fill="#d83b2f"
       id="path14557" /><path
       d="m 33.914,13.151 c -0.582,1.106 -1.287,1.689 -1.753,2.813 -0.621,1.499 -1.37,5.06 -1.37,5.06 l 1.493,2.273 1.652,1.094 c -0.308,-3.211 -0.49,-5.96 -0.442,-9.188 0.009,-0.543 0.323,-1.513 0.42,-2.052 z"
       fill="#ff7d20"
       id="path14559" /><circle
       transform="rotate(-7.012)"
       cx="26.916"
       cy="44.747002"
       r="9.7049999"
       fill="#ffb832"
       id="circle14561" /><path
       d="m 32.507,9.24 c -8.14,8.593 -3.284,12.68 0.087,18.777 0.556,1.05 1.1,2.404 1.532,3.644 0.004,10e-4 0.008,0.005 0.011,0.006 0.482,0.1 0.948,0.231 1.403,0.4 0.01,0.005 0.022,0.008 0.032,0.011 l 0.054,0.022 c 0.45,0.172 0.884,0.366 1.3,0.601 0.744,0.42 1.417,0.94 2.026,1.538 0.115,0.112 0.237,0.213 0.345,0.33 0.206,0.221 0.383,0.46 0.563,0.7 a 8.719,8.719 0 0 1 0.89,1.375 c 0.161,0.308 0.303,0.625 0.433,0.954 0.08,0.206 0.166,0.408 0.233,0.622 0.175,0.554 0.316,1.123 0.39,1.722 0.475,3.865 -1.405,7.459 -4.5,9.397 -0.04,0.028 -0.085,0.047 -0.125,0.075 -0.174,0.105 -0.334,0.224 -0.515,0.322 -0.042,0.022 -0.087,0.022 -0.13,0.041 -0.132,0.07 -0.252,0.158 -0.39,0.216 -0.825,0.36 -1.75,0.56 -2.783,0.58 -4.012,0.078 -6.47,-1.53 -7.451,-4.62 -0.17,-1.056 0.097,-2.473 0.71,-2.83 -0.355,0.121 -0.785,0.254 -1.3,0.734 -0.87,0.81 -0.82,1.29 -1.956,1.605 0.577,-1.602 -2.739,-3.35 -2.404,-5.556 -1.216,6.613 3.52,13.98 10.675,13.69 11.77,0.01 14.05,-9.617 12.472,-18.392 -0.483,-1.902 -1.467,-3.905 -2.948,-5.747 -3.734,-4.65 -8.692,-6.214 -10.235,-10.458 -0.846,-3.805 1.225,-8.821 1.581,-9.759 z"
       fill="#db3f2e"
       id="path14563" /><path
       d="m 40.144,31.845 1.58,2.697 0.067,0.19 0.807,2.259 c 0.596,2.822 0.513,5.64 -0.358,7.944 -1.256,3.325 -3.98,5.729 -6.85,6.916 -5.026,2.077 -10.73,0.438 -13.427,-4.814 0.038,0.172 0.097,0.335 0.146,0.505 0.276,0.554 0.578,1.092 0.932,1.597 0.102,0.147 0.216,0.285 0.325,0.427 1.929,2.495 4.806,4.17 8.27,4.029 0.23,0 0.432,-0.025 0.655,-0.034 0.001,0 0.02,-0.024 0.022,-0.024 0.006,-0.003 0.01,0.019 0.016,0.019 8.15,-0.275 11.508,-5.357 12.11,-11.444 0,-0.006 -0.022,-0.114 -0.022,-0.117 -0.011,-0.499 -0.03,-0.998 -0.092,-1.502 A 14.856,14.856 0 0 0 42.98,35.939 l 0.011,-0.005 -0.113,-0.2 a 15.384,15.384 0 0 0 -1.07,-1.836 l -0.062,-0.103 z"
       fill="#ff7d20"
       id="path14565" /></g></svg>
