<?xml version="1.0" encoding="UTF-8" standalone="no"?>
<!-- Created with Inkscape (http://www.inkscape.org/) -->

<svg
   width="133.96359mm"
   height="133.96271mm"
   viewBox="0 0 133.96359 133.96271"
   version="1.1"
   id="svg5"
   xml:space="preserve"
   xmlns:inkscape="http://www.inkscape.org/namespaces/inkscape"
   xmlns:sodipodi="http://sodipodi.sourceforge.net/DTD/sodipodi-0.dtd"
   xmlns:xlink="http://www.w3.org/1999/xlink"
   xmlns="http://www.w3.org/2000/svg"
   xmlns:svg="http://www.w3.org/2000/svg"><sodipodi:namedview
     id="namedview7"
     pagecolor="#ffffff"
     bordercolor="#000000"
     borderopacity="0.25"
     inkscape:showpageshadow="2"
     inkscape:pageopacity="0.0"
     inkscape:pagecheckerboard="0"
     inkscape:deskcolor="#d1d1d1"
     inkscape:document-units="mm"
     showgrid="false" /><defs
     id="defs2"><linearGradient
       inkscape:collect="always"
       id="linearGradient2420"><stop
         style="stop-color:#015499;stop-opacity:1"
         offset="0"
         id="stop2416" /><stop
         style="stop-color:#f9f9f9;stop-opacity:1"
         offset="1"
         id="stop2418" /></linearGradient><linearGradient
       inkscape:collect="always"
       xlink:href="#linearGradient2420"
       id="linearGradient2422"
       x1="177.61681"
       y1="460.98596"
       x2="231.12675"
       y2="-437.98108"
       gradientUnits="userSpaceOnUse" /><linearGradient
       inkscape:collect="always"
       xlink:href="#linearGradient2420"
       id="linearGradient4722"
       gradientUnits="userSpaceOnUse"
       x1="177.61681"
       y1="460.98596"
       x2="231.12675"
       y2="-437.98108" /></defs><g
     id="g192"
     transform="matrix(0.35277776,0,0,0.35277778,5.0620457e-4,-1.6930737e-4)"
     style="fill:url(#linearGradient2422);fill-opacity:1"
     inkscape:export-filename="g192.svg"
     inkscape:export-xdpi="24.269279"
     inkscape:export-ydpi="24.269279"><path
       d="m 148.375,1.961 c 2.07,0.023 4.047,-0.242 5.93,-0.789 24.785,-1.625 49.566,-1.559 74.343,0.195 22.469,1.75 44.219,6.625 65.25,14.625 34.965,14.395 58.887,39.36 71.774,74.899 7.367,21.398 11.719,43.402 13.051,66.007 1.839,28.391 1.179,56.715 -1.981,84.981 -2.363,19.867 -7.504,38.969 -15.422,57.312 -14.683,31.801 -38.472,53.739 -71.375,65.809 -26.664,9.008 -54.082,13.754 -82.254,14.23 C 176,380.879 144.633,378.508 113.574,372.117 56.414,359.387 21.156,324.535 7.793,267.574 2.125,241.93 -0.445,215.977 0.082,189.707 -0.551,161.773 2.418,134.238 8.98,107.098 22.988,53.84 56.797,20.836 110.414,8.086 122.906,5.035 135.559,2.992 148.375,1.961 Z"
       style="fill:url(#linearGradient4722);fill-opacity:1;fill-rule:evenodd;stroke:none"
       id="path194" /></g><path
     d="M 65.345449,12.108429 A 54.919104,54.919104 0 0 0 54.570958,13.493717 L 28.727584,88.561114 H 38.947949 L 51.99278,50.311694 h 7.072677 l -12.867809,38.24942 h 10.274245 l 12.159766,-35.60967 c 1.77009,-5.12558 -1.01587,-9.80478 -6.18763,-9.80478 h -7.95773 z M 79.629339,43.146664 53.139495,120.2535 a 55.796453,55.796453 0 0 0 9.804774,1.60079 l 11.51332,-33.316246 h 13.56045 c 2.41657,0 5.04092,-1.93942 5.86441,-4.31749 l 10.820661,-31.2999 c 1.7701,-5.12558 -1.01588,-9.80479 -6.187631,-9.80479 m -11.17468,7.16505 h 7.69605 l -10.68214,31.07669 h -7.69605 z"
     fill="#ffffff"
     id="path4045"
     style="stroke-width:7.13425" /></svg>
