<?xml version="1.0" encoding="UTF-8" standalone="no"?>
<svg
   width="24"
   height="24"
   version="1.1"
   id="svg6"
   sodipodi:docname="ibus-typing-booster.svg"
   inkscape:version="1.3 (0e150ed6c4, 2023-07-21)"
   xmlns:inkscape="http://www.inkscape.org/namespaces/inkscape"
   xmlns:sodipodi="http://sodipodi.sourceforge.net/DTD/sodipodi-0.dtd"
   xmlns="http://www.w3.org/2000/svg"
   xmlns:svg="http://www.w3.org/2000/svg">
  <defs
     id="defs6">
    <radialGradient
       fx="0"
       fy="0"
       cx="0"
       cy="0"
       r="1"
       gradientUnits="userSpaceOnUse"
       gradientTransform="matrix(0,16.5,-16.5,0,8.999651,0.749985)"
       spreadMethod="pad"
       id="radialGradient868-3">
      <stop
         style="stop-opacity:1;stop-color:#fafafa"
         offset="0"
         id="stop864-6" />
      <stop
         style="stop-opacity:1;stop-color:#c0c0c0"
         offset="1"
         id="stop866-7" />
    </radialGradient>
  </defs>
  <sodipodi:namedview
     id="namedview6"
     pagecolor="#ffffff"
     bordercolor="#000000"
     borderopacity="0.25"
     inkscape:showpageshadow="2"
     inkscape:pageopacity="0.0"
     inkscape:pagecheckerboard="0"
     inkscape:deskcolor="#d1d1d1"
     inkscape:zoom="8.9603687"
     inkscape:cx="40.679129"
     inkscape:cy="28.849259"
     inkscape:window-width="2560"
     inkscape:window-height="998"
     inkscape:window-x="0"
     inkscape:window-y="0"
     inkscape:window-maximized="1"
     inkscape:current-layer="svg6" />
  <g
     id="g854"
     transform="matrix(1.3333333,0,0,1.3333333,-4.5244194e-4,-3.5228353e-5)">
    <g
       id="g856">
      <g
         id="g862">
        <path
           d="m 7.195,0.836 c 0.09,0 0.176,-0.012 0.258,-0.035 1.078,-0.071 2.156,-0.067 3.231,0.008 0.976,0.078 1.921,0.289 2.836,0.636 1.519,0.625 2.558,1.711 3.121,3.254 0.316,0.93 0.507,1.887 0.566,2.867 0.078,1.235 0.051,2.465 -0.086,3.696 -0.105,0.863 -0.328,1.691 -0.672,2.488 -0.637,1.383 -1.672,2.336 -3.101,2.859 C 12.191,17 11,17.207 9.773,17.227 8.398,17.301 7.035,17.195 5.684,16.918 3.203,16.367 1.668,14.852 1.09,12.375 0.844,11.262 0.73,10.133 0.754,8.992 0.727,7.781 0.855,6.582 1.141,5.402 1.75,3.09 3.219,1.656 5.547,1.102 6.09,0.969 6.641,0.879 7.195,0.836 Z"
           style="fill:url(#radialGradient868-3);fill-rule:evenodd;stroke:none"
           id="path870" />
      </g>
    </g>
  </g>
  <g
     transform="matrix(0.32318811,0,0,0.32318811,2.5955084,1.6453158)"
     id="g6"
     style="stroke-width:3.09417">
    <g
       stroke-width="1.22839"
       id="g5">
      <path
         d="m 12.407,42.827 c -3.246,3.246 -3.42,9.162 -3.42,9.162 0,0 5.912,-0.174 9.162,-3.42 3.25,-3.246 4.595,-7.163 3.008,-8.746 -1.588,-1.587 -5.504,-0.242 -8.75,3.004 z"
         fill="#ff6d00"
         id="path1"
         style="stroke-width:1.22839" />
      <path
         d="m 13.391,43.97 c -2.044,2.044 -2.155,5.766 -2.155,5.766 0,0 3.722,-0.112 5.766,-2.155 2.044,-2.044 2.893,-4.512 1.893,-5.508 -1,-0.996 -3.456,-0.15 -5.504,1.897 z"
         fill="#c62828"
         id="path2"
         style="stroke-width:1.22839" />
      <path
         d="m 17.581,44.005 c 1.944,2.075 4.496,1.857 4.706,1.516 l 1.778,-2.889 c 0.107,-0.175 0.008,-0.452 -0.068,-0.524 L 19.2,37.311 c -0.075,-0.076 -0.341,-0.163 -0.516,-0.056 l -2.889,1.778 c -0.337,0.21 -0.718,2.293 1.786,4.972 z"
         fill="#546e7a"
         id="path3"
         style="stroke-width:1.22839" />
      <path
         d="m 30.644,49.283 c -0.397,0.321 -0.929,0.25 -0.996,-0.226 -0.186,-1.318 -0.063,-3.964 -1.722,-5.623 -1.62,-1.619 -4.25,-1.857 -4.25,-1.857 l 9.904,-4.88 c 0,0 1.865,2.876 0.838,6.971 -0.857,3.385 -2.322,4.429 -3.774,5.615 z M 11.812,31.018 c -0.389,0.333 -0.25,0.929 0.226,0.996 1.318,0.186 3.964,0.063 5.623,1.722 1.619,1.62 1.956,3.913 1.956,3.913 l 4.786,-10.13 c 0,0 -2.532,-1.187 -6.214,-0.23 -2.54,0.662 -5.06,2.595 -6.377,3.73 z"
         fill="#0288d1"
         id="path4"
         style="stroke-width:1.22839" />
      <path
         d="m 36.969,14.288 a 20.315,20.315 0 0 1 5.841,4.075 c 0.73,0.73 1.353,1.476 1.893,2.206 a 20.328,20.328 0 0 1 2.226,3.806 c -1.044,2.742 -3.012,5.932 -4.936,7.857 -7.861,7.86 -16.543,12.349 -21.035,9.17 -0.262,-0.187 -0.52,-0.357 -0.754,-0.568 -3.853,-3.464 0.56,-13.38 8.575,-21.396 2.011,-2.011 5.364,-4.067 8.19,-5.15 z"
         fill="#ffffff"
         id="path5"
         style="stroke-width:1.22839" />
    </g>
    <circle
       transform="rotate(-45)"
       cx="6.5079999"
       cy="42.814999"
       r="3.5309999"
       fill="#455a64"
       id="circle5"
       style="stroke-width:3.09417" />
    <circle
       transform="rotate(-45)"
       cx="-4.1110001"
       cy="43.134998"
       r="2.5550001"
       fill="#455a64"
       id="circle6"
       style="stroke-width:3.09417" />
    <path
       d="m 36.969,14.288 c -0.734,3.623 5.662,10.718 9.96,10.087 1.337,-3.456 1.885,-5.801 2.25,-9.837 0.186,-2.043 -0.413,-2.627 -2.306,-2.404 -5.02,0.587 -7.003,0.968 -9.904,2.154 z"
       fill="#e53935"
       id="path6"
       style="stroke-width:3.09417" />
  </g>
</svg>
