<?xml version="1.0" encoding="UTF-8" standalone="no"?>
<svg
   width="24"
   height="24"
   viewBox="0 0 6.349875 6.349875"
   version="1.1"
   id="svg9117"
   sodipodi:docname="org.gtk.IconBrowser3.svg"
   inkscape:version="1.2.2 (b0a8486541, 2022-12-01)"
   xmlns:inkscape="http://www.inkscape.org/namespaces/inkscape"
   xmlns:sodipodi="http://sodipodi.sourceforge.net/DTD/sodipodi-0.dtd"
   xmlns="http://www.w3.org/2000/svg"
   xmlns:svg="http://www.w3.org/2000/svg">
  <defs
     id="defs9121">
    <radialGradient
       fx="0"
       fy="0"
       cx="0"
       cy="0"
       r="1"
       gradientUnits="userSpaceOnUse"
       gradientTransform="matrix(0,5.8207184,-5.8207184,0,3.1748138,0.2645734)"
       spreadMethod="pad"
       id="radialGradient3666-6">
      <stop
         style="stop-color:#f9f6f5;stop-opacity:1;"
         offset="0"
         id="stop3662-7" />
      <stop
         style="stop-color:#ff7f2a;stop-opacity:1;"
         offset="1"
         id="stop3664-5" />
    </radialGradient>
  </defs>
  <sodipodi:namedview
     id="namedview9119"
     pagecolor="#ffffff"
     bordercolor="#000000"
     borderopacity="0.25"
     inkscape:showpageshadow="2"
     inkscape:pageopacity="0.0"
     inkscape:pagecheckerboard="0"
     inkscape:deskcolor="#d1d1d1"
     showgrid="false"
     inkscape:zoom="9.656427"
     inkscape:cx="38.937798"
     inkscape:cy="15.223022"
     inkscape:window-width="2560"
     inkscape:window-height="998"
     inkscape:window-x="1680"
     inkscape:window-y="0"
     inkscape:window-maximized="1"
     inkscape:current-layer="svg9117" />
  <path
     d="m 2.5380638,0.2949075 c 0.031749,0 0.062088,-0.00423 0.091015,-0.012347 0.3802869,-0.025047 0.7605737,-0.023636 1.1398026,0.00282 C 4.1131856,0.3128966 4.446554,0.3873314 4.7693393,0.5097428 5.3051981,0.7302246 5.6717269,1.1133337 5.870337,1.6576591 5.9818127,1.9857359 6.0491918,2.3233376 6.0700054,2.669053 6.0975212,3.1047248 6.0879967,3.5386327 6.0396673,3.9728937 6.0026263,4.2773356 5.9239585,4.5694298 5.8026053,4.8505877 5.5778903,5.3384698 5.2127725,5.6746607 4.7086631,5.8591598 4.3005072,5.9970926 3.8803571,6.0701167 3.4475073,6.0771716 2.9624475,6.1032828 2.4816209,6.0658821 2.0050274,5.9681657 1.1298028,5.7737886 0.5882998,5.2393416 0.3843978,4.3655277 0.2976178,3.9728937 0.2574008,3.5746158 0.2658668,3.1721047 0.2563668,2.7448988 0.3014968,2.3219264 0.4023898,1.9056569 0.6172268,1.0900507 1.1354468,0.5841774 1.9566979,0.3887423 2.1482524,0.3418243 2.3426292,0.3100743 2.5380642,0.2949053 Z"
     style="fill:url(#radialGradient3666-6);fill-rule:evenodd;stroke:none;stroke-width:0.352683;stroke-dasharray:none"
     id="path3668" />
  <path
     id="path334"
     style="opacity:0.727273;mix-blend-mode:normal;fill:#f8f9f9;fill-opacity:1;stroke-width:0.637964;paint-order:stroke fill markers"
     d="M 4.325944,0.3673381 4.2981559,1.4142488 C 4.2836199,1.961875 4.7347275,2.414893 5.3091991,2.4303029 l 0.7469601,0.020037 C 6.0291773,2.20172 5.9787336,1.9570718 5.9045274,1.7166545 5.7205072,1.1643212 5.3641303,0.7691763 4.834343,0.5332391 4.6680766,0.4646979 4.4986841,0.4100553 4.325944,0.3673381 Z" />
  <g
     fill="#ffffff"
     id="g19754"
     transform="matrix(0.41672132,0,0,0.41672132,-0.18408841,-0.35322475)">
    <g
       stroke-width="0.132"
       id="g19750">
      <path
         d="m 10.4,9.025 v 0.277 c 0.236,0.284 0.373,0.601 0.373,1.031 0,0.43 -0.146,0.748 -0.374,1.032 v 0.276 h 0.258 A 2.007,2.007 0 0 0 10.664,9.025 Z M 9.363,9.212 8.808,9.772 H 8.343 v 1.122 h 0.465 l 0.568,0.56 H 9.465 V 9.212 Z m 0.662,0.187 v 0.374 c 0.114,0.147 0.187,0.328 0.187,0.56 0,0.232 -0.073,0.415 -0.187,0.56 v 0.375 h 0.187 c 0.229,-0.186 0.374,-0.537 0.374,-0.935 0,-0.405 -0.138,-0.751 -0.374,-0.934 z M 9.652,9.773 v 1.12 h 0.187 a 0.834,0.834 0 0 0 0.186,-0.56 c 0,-0.235 -0.058,-0.414 -0.186,-0.56 z"
         color="#bebebe"
         overflow="visible"
         id="path19744" />
      <path
         d="m 7.04,9.026 a 0.18,0.18 0 0 1 0.182,0.18 V 9.218 A 2.243,2.243 0 0 1 4.979,11.455 H 4.974 A 0.183,0.183 0 0 1 4.792,11.268 v -0.56 c 0,-0.104 0.084,-0.187 0.187,-0.187 h 0.374 c 0.104,0 0.187,0.083 0.187,0.187 v 0.087 A 1.676,1.676 0 0 0 6.562,9.773 H 6.474 A 0.186,0.186 0 0 1 6.288,9.586 V 9.213 c 0,-0.104 0.083,-0.187 0.186,-0.187 h 0.567 z"
         id="path19746" />
      <path
         d="m 5.16,3.705 a 0.6615,0.6615 0 0 0 0,1.323 0.654,0.654 0 0 0 0.322,-0.09 l 0.52,0.487 -0.52,0.488 A 0.653,0.653 0 0 0 5.159,5.822 0.661,0.661 0 1 0 5.821,6.483 C 5.821,6.423 5.811,6.365 5.796,6.31 L 6.358,5.764 7.541,6.88 H 7.937 V 6.616 L 5.796,4.54 A 0.65,0.65 0 0 0 5.821,4.367 0.661,0.661 0 0 0 5.159,3.705 Z m 0,0.397 a 0.265,0.265 0 1 1 0,0.53 0.265,0.265 0 0 1 0,-0.53 z M 7.54,3.97 6.5,4.954 6.847,5.293 7.938,4.234 V 3.97 Z M 5.16,6.219 a 0.265,0.265 0 1 1 0,0.529 0.265,0.265 0 0 1 0,-0.53 z"
         color="#000000"
         overflow="visible"
         style="isolation:auto;mix-blend-mode:normal"
         transform="matrix(0.70634,0,0,0.70634,1.802,2.859)"
         id="path19748" />
    </g>
    <path
       d="m 86.02,26.038 a 1.997,1.997 0 0 0 -1.196,0.37 l -13.98,9.986 a 1.998,1.998 0 0 0 -0.835,1.626 h -0.002 v 1.997 h 1.947 a 1.998,1.998 0 0 0 0.025,0 h 0.025 a 1.998,1.998 0 0 0 1.162,-0.37 L 74,39.05 V 50.003 A 1.997,1.997 0 0 0 75.998,52 h 19.971 a 1.997,1.997 0 0 0 1.997,-1.997 V 39.048 l 0.838,0.599 a 1.998,1.998 0 0 0 1.16,0.37 h 1.997 v -1.97 a 1.998,1.998 0 0 0 -0.836,-1.653 l -13.98,-9.986 a 1.997,1.997 0 0 0 -1.123,-0.37 z m -0.038,4.45 7.989,5.707 v 11.81 H 87.98 v -7.988 h -5.992 v 7.989 h -3.994 v -11.81 z"
       color="#000000"
       font-family="sans-serif"
       font-weight="400"
       overflow="visible"
       style="font-variant-ligatures:normal;font-variant-position:normal;font-variant-caps:normal;font-variant-numeric:normal;font-variant-alternates:normal;font-feature-settings:normal;text-indent:0;text-decoration-line:none;text-decoration-style:solid;text-decoration-color:#000000;text-transform:none;text-orientation:mixed;white-space:normal;shape-padding:0;isolation:auto;mix-blend-mode:normal"
       transform="matrix(0.09344,0,0,0.09344,1.802,2.859)"
       id="path19752" />
  </g>
</svg>
