<?xml version="1.0" encoding="UTF-8" standalone="no"?>
<svg
   width="24"
   height="24"
   viewBox="0 0 6.349875 6.349875"
   version="1.1"
   id="svg2"
   sodipodi:docname="display.im6.svg"
   inkscape:version="1.3 (0e150ed6c4, 2023-07-21)"
   xmlns:inkscape="http://www.inkscape.org/namespaces/inkscape"
   xmlns:sodipodi="http://sodipodi.sourceforge.net/DTD/sodipodi-0.dtd"
   xmlns="http://www.w3.org/2000/svg"
   xmlns:svg="http://www.w3.org/2000/svg"
   xmlns:sketch="http://www.bohemiancoding.com/sketch/ns">
  <defs
     id="defs2" />
  <sodipodi:namedview
     id="namedview2"
     pagecolor="#ffffff"
     bordercolor="#000000"
     borderopacity="0.25"
     inkscape:showpageshadow="2"
     inkscape:pageopacity="0.0"
     inkscape:pagecheckerboard="0"
     inkscape:deskcolor="#d1d1d1"
     inkscape:zoom="4.4801844"
     inkscape:cx="23.994548"
     inkscape:cy="29.128266"
     inkscape:window-width="2560"
     inkscape:window-height="998"
     inkscape:window-x="0"
     inkscape:window-y="0"
     inkscape:window-maximized="1"
     inkscape:current-layer="svg2" />
  <path
     d="m 3.1749374,0.26457811 c -2.64578117,0 -2.91035929,1.32289059 -2.91035929,2.91035929 0,2.116625 0.79373439,2.9103592 2.91035929,2.9103592 2.116625,0 2.9103592,-0.7937342 2.9103592,-2.9103592 0,-1.5874687 -0.264578,-2.91035929 -2.9103592,-2.91035929 z"
     sketch:type="MSShapeGroup"
     id="path6"
     style="font-variation-settings:normal;display:inline;vector-effect:none;fill:#3a3a3a;fill-opacity:1;stroke-width:0.295341;stroke-linecap:butt;stroke-linejoin:miter;stroke-miterlimit:4;stroke-dasharray:none;stroke-dashoffset:0;stroke-opacity:1;-inkscape-stroke:none;stop-color:#000000"
     sodipodi:nodetypes="sssss"
     inkscape:label="Shape" />
  <path
     d="m 3.1749374,0.52254189 c -2.41126864,0 -2.65239551,1.20563431 -2.65239551,2.65239551 0,1.929015 0.72338061,2.6523954 2.65239551,2.6523954 1.929015,0 2.6523954,-0.7233804 2.6523954,-2.6523954 0,-1.4467612 -0.2411267,-2.65239551 -2.6523954,-2.65239551 z"
     sketch:type="MSShapeGroup"
     id="path45683"
     style="font-variation-settings:normal;display:inline;vector-effect:none;fill:#4d4d4d;fill-opacity:1;stroke-width:0.269163;stroke-linecap:butt;stroke-linejoin:miter;stroke-miterlimit:4;stroke-dasharray:none;stroke-dashoffset:0;stroke-opacity:1;-inkscape-stroke:none;stop-color:#000000"
     sodipodi:nodetypes="sssss"
     inkscape:label="Shape" />
  <path
     d="m 3.4611294,1.7304893 c -0.300707,0.038964 -0.623875,0.1851914 -0.886993,0.6183743 -0.600955,0.9896738 -0.558325,1.3339281 -0.654129,1.445318 -0.09626,0.1109315 -0.355714,0.1709812 -0.318126,0.2970397 0.03759,0.1256001 0.07564,0.1095563 0.07564,0.1095563 0,0 0.378176,0.5482398 1.47603,0.4056791 1.097855,-0.1421023 1.250042,-0.3735915 1.239958,-0.4886486 -0.01009,-0.1145986 -0.241574,-0.1989432 -0.241574,-0.1989432 0,0 -0.17144,-0.6046224 -0.127434,-0.8526139 0.04401,-0.2484498 0.210862,-0.6096647 0.376342,-0.6875918 0.165022,-0.078844 0.247533,0.2626601 0.332795,0.1783155 0.0848,-0.084345 -0.14302,-0.7348065 -0.395137,-0.7398488 -0.141185,-0.00275 -0.492315,-0.1361432 -0.877367,-0.086178 m 9.17e-4,0.8306109 0.08389,0.2475331 0.254409,0.072426 -0.215445,0.1531038 0.0096,0.2599097 -0.214987,-0.1526454 -0.253492,0.08847 0.08159,-0.2452411 -0.163647,-0.2053608 0.267244,-0.00229 m -0.708219,0.5124851 0.0092,0.1796906 0.160438,0.096263 -0.173273,0.062342 -0.04355,0.177857 -0.118266,-0.1384351 -0.184733,0.011918 0.09901,-0.149895 -0.07059,-0.1682308 0.178774,0.046756 m 0.859489,-0.080677 0.171898,0.2301141 0.290623,-0.01146 -0.16869,0.2333229 0.09855,0.2654104 -0.278245,-0.086178 -0.229198,0.1764819 -0.0018,-0.2860382 -0.241116,-0.1572293 0.276412,-0.090762 m 0.08114,-0.2736616"
     fill="#ffffff"
     id="path3"
     style="stroke-width:0.458395" />
</svg>
