<?xml version="1.0" encoding="UTF-8" standalone="no"?>
<svg
   width="64"
   height="64"
   version="1"
   id="svg17803"
   sodipodi:docname="input-mouse.svg"
   inkscape:version="1.2.2 (b0a8486541, 2022-12-01)"
   xmlns:inkscape="http://www.inkscape.org/namespaces/inkscape"
   xmlns:sodipodi="http://sodipodi.sourceforge.net/DTD/sodipodi-0.dtd"
   xmlns="http://www.w3.org/2000/svg"
   xmlns:svg="http://www.w3.org/2000/svg">
  <defs
     id="defs17807">
    <radialGradient
       id="paint0_radial_29_149"
       cx="0"
       cy="0"
       r="1"
       gradientUnits="userSpaceOnUse"
       gradientTransform="matrix(0,150,-150,0,-278.33746,-123.84153)">
      <stop
         stop-color="#80D2FF"
         id="stop17930" />
      <stop
         offset="1"
         stop-color="#2991C9"
         id="stop17932"
         style="stop-color:#002a43;stop-opacity:1;" />
    </radialGradient>
  </defs>
  <sodipodi:namedview
     id="namedview17805"
     pagecolor="#ffffff"
     bordercolor="#000000"
     borderopacity="0.25"
     inkscape:showpageshadow="2"
     inkscape:pageopacity="0.0"
     inkscape:pagecheckerboard="0"
     inkscape:deskcolor="#d1d1d1"
     showgrid="false"
     inkscape:zoom="2.4141067"
     inkscape:cx="33.345667"
     inkscape:cy="59.856508"
     inkscape:window-width="2560"
     inkscape:window-height="1000"
     inkscape:window-x="1680"
     inkscape:window-y="0"
     inkscape:window-maximized="1"
     inkscape:current-layer="svg17803" />
  <g
     id="g26515"
     transform="matrix(0.21333345,0,0,0.2133331,91.378708,26.419498)">
    <path
       fill-rule="evenodd"
       clip-rule="evenodd"
       d="m -311.11846,-122.29259 c 1.634,0.0174 3.196,-0.19079 4.686,-0.62452 19.578,-1.28257 39.156,-1.23054 58.732,0.15613 17.751,1.38303 34.933,5.23424 51.548,11.55355 27.622,11.371899 46.523,31.096299 56.702,59.172999 5.821,16.9041 9.258,34.2869 10.309,52.14689985 1.455,22.42900015 0.935,44.80700015 -1.562,67.13600015 -1.868,15.694 -5.93,30.787 -12.184,45.277001 -11.599,25.125 -30.395,42.455 -56.389,51.991 -21.064,7.118 -42.725,10.865 -64.981,11.242 -25.035,1.302 -49.819,-0.572 -74.3531,-5.621 -45.1579,-10.059 -73.0143,-37.59 -83.56903,-82.592001 -4.47905,-20.258 -6.5097,-40.763 -6.09195,-61.515 -0.49988,-22.0670001 1.84318,-43.821 7.02917,-65.2623 11.06461,-42.0768 37.77541,-68.150499 80.13251,-78.220749 9.8699,-2.41298 19.8674,-4.02632 29.9914,-4.84001 z"
       fill="url(#paint0_radial_29_149)"
       id="path17926"
       style="fill:url(#paint0_radial_29_149)" />
    <path
       id="path22409"
       style="opacity:0.5;fill:#cdcaca;fill-opacity:1;stroke-width:3.95319;stroke-linecap:round;stroke-linejoin:round"
       d="m -315.38383,-63.841336 c -0.0114,0 -0.0224,0.0016 -0.0338,0.0017 h 13.35214 V 5.4411289 c 0,13.0109101 10.47536,23.4845601 23.48626,23.4845601 13.01088,0 23.48457,-10.47365 23.48457,-23.4845601 V -63.839646 h 13.83721 c -0.0114,-10e-6 -0.0225,-0.0017 -0.0338,-0.0017 z m 75.13033,0.0524 V 5.2078689 c 0,21.2327601 -17.09297,38.3257201 -38.32572,38.3257201 -21.23279,0 -38.32743,-17.09296 -38.32743,-38.3257201 V -63.765281 c -21.7119,0.802004 -38.96291,18.494848 -38.96291,40.40969 v 41.49137 29.16176 11.32905 c 0,42.952591 34.57943,77.532021 77.53202,77.532021 42.95258,0 77.53202,-34.57943 77.53202,-77.532021 v -11.32905 -29.16176 -41.49137 c 0,-22.078637 -17.50714,-39.881176 -39.44798,-40.433351 z m -38.32572,25.849078 c 4.89608,0 8.83776,3.941671 8.83776,8.837767 v 27.4412099 c 0,4.89609 -3.94168,8.83776 -8.83776,8.83776 -4.89611,0 -8.83778,-3.94167 -8.83778,-8.83776 V -29.102091 c 0,-4.896096 3.94167,-8.837767 8.83778,-8.837767 z" />
    <path
       id="rect19497"
       style="fill:#fafafa;fill-opacity:1;stroke-width:3.95319;stroke-linecap:round;stroke-linejoin:round"
       d="m -315.38383,-73.841336 c -0.0114,0 -0.0224,0.0016 -0.0338,0.0017 h 13.35214 v 69.2807649 c 0,13.01091 10.47536,23.4845601 23.48626,23.4845601 13.01088,0 23.48457,-10.4736501 23.48457,-23.4845601 V -73.839646 h 13.83721 c -0.0114,-1e-5 -0.0225,-0.0017 -0.0338,-0.0017 z m 75.13033,0.0524 v 68.9968049 c 0,21.2327601 -17.09297,38.3257201 -38.32572,38.3257201 -21.23279,0 -38.32743,-17.09296 -38.32743,-38.3257201 V -73.765281 c -21.7119,0.802004 -38.96291,18.494848 -38.96291,40.409686 V 8.1357789 37.297539 48.626589 c 0,42.95259 34.57943,77.532021 77.53202,77.532021 42.95258,0 77.53202,-34.579431 77.53202,-77.532021 V 37.297539 8.1357789 -33.355595 c 0,-22.078633 -17.50714,-39.881172 -39.44798,-40.433347 z m -38.32572,25.849078 c 4.89608,0 8.83776,3.941671 8.83776,8.837767 v 27.44121 c 0,4.8960899 -3.94168,8.8377599 -8.83776,8.8377599 -4.89611,0 -8.83778,-3.94167 -8.83778,-8.8377599 v -27.44121 c 0,-4.896096 3.94167,-8.837767 8.83778,-8.837767 z" />
  </g>
</svg>
