<?xml version="1.0" encoding="UTF-8" standalone="no"?>
<svg
   width="24"
   height="24"
   version="1.1"
   id="svg1"
   sodipodi:docname="rest.insomnia.Insomnia.svg"
   inkscape:version="1.3 (0e150ed6c4, 2023-07-21)"
   xmlns:inkscape="http://www.inkscape.org/namespaces/inkscape"
   xmlns:sodipodi="http://sodipodi.sourceforge.net/DTD/sodipodi-0.dtd"
   xmlns="http://www.w3.org/2000/svg"
   xmlns:svg="http://www.w3.org/2000/svg">
  <defs
     id="defs1" />
  <sodipodi:namedview
     id="namedview1"
     pagecolor="#ffffff"
     bordercolor="#000000"
     borderopacity="0.25"
     inkscape:showpageshadow="2"
     inkscape:pageopacity="0.0"
     inkscape:pagecheckerboard="0"
     inkscape:deskcolor="#d1d1d1"
     inkscape:zoom="4.4801844"
     inkscape:cx="-31.695124"
     inkscape:cy="27.789035"
     inkscape:window-width="2560"
     inkscape:window-height="998"
     inkscape:window-x="0"
     inkscape:window-y="0"
     inkscape:window-maximized="1"
     inkscape:current-layer="svg1" />
  <path
     d="m 9.592881,1.1146316 c 0.12,0 0.2346671,-0.015999 0.3440012,-0.046667 1.4373318,-0.0946668 2.8746648,-0.0893334 4.3079988,0.010667 1.301333,0.104 2.561333,0.3853333 3.781333,0.848 2.025333,0.8333333 3.410667,2.2813334 4.161333,4.3386667 0.421334,1.2399999 0.676,2.5159998 0.754667,3.8226667 0.104,1.646667 0.068,3.286666 -0.114667,4.928 -0.139999,1.150666 -0.437333,2.254666 -0.895999,3.317333 -0.849334,1.844 -2.229334,3.114667 -4.134667,3.812 -1.542667,0.521333 -3.130667,0.797333 -4.766667,0.824 -1.833333,0.09867 -3.6506666,-0.04267 -5.4519996,-0.412 -3.3080002,-0.734667 -5.3546667,-2.754666 -6.1253334,-6.057333 -0.328,-1.484 -0.47999998,-2.989333 -0.448,-4.510667 -0.036,-1.614667 0.1346667,-3.2133332 0.516,-4.7866666 C 2.332881,4.1199648 4.2915478,2.2079649 7.3955475,1.4692982 8.1195478,1.2919649 8.8542143,1.1719649 9.592881,1.1146316 Z"
     style="fill:#5e4fc1;fill-opacity:1;fill-rule:evenodd;stroke:none;stroke-width:1.33333"
     id="path4714" />
  <path
     d="m 12,5.5 c -3.589806,0 -6.5,2.910194 -6.5,6.5 0,3.589805 2.910194,6.5 6.5,6.5 3.589805,0 6.5,-2.910195 6.5,-6.5 C 18.5,8.410194 15.589805,5.5 12,5.5 Z M 11.783333,6.366667 C 14.774777,6.365222 17.2,8.791889 17.2,11.783333 17.2,14.774778 14.774777,17.2 11.783333,17.2 8.791889,17.2 6.3645,14.774778 6.366666,11.783333 c 0,-0.274444 0.02528,-0.548166 0.06933,-0.819361 a 3.2449444,3.2449444 0 0 0 1.880666,0.602695 c 1.794723,7.22e-4 3.251084,-1.455278 3.25,-3.25 A 3.2427778,3.2427778 0 0 0 10.960718,6.433472 c 0.271917,-0.04333 0.547083,-0.06681 0.822611,-0.06681 z"
     fill="#ffffff"
     style="stroke-width:1;paint-order:normal"
     id="path2" />
</svg>
