<?xml version="1.0" encoding="UTF-8" standalone="no"?>
<svg
   width="24"
   height="24"
   version="1"
   id="svg3"
   sodipodi:docname="insync.svg"
   xml:space="preserve"
   inkscape:version="1.3 (0e150ed6c4, 2023-07-21)"
   xmlns:inkscape="http://www.inkscape.org/namespaces/inkscape"
   xmlns:sodipodi="http://sodipodi.sourceforge.net/DTD/sodipodi-0.dtd"
   xmlns="http://www.w3.org/2000/svg"
   xmlns:svg="http://www.w3.org/2000/svg"><defs
     id="defs3"><radialGradient
       id="paint0_radial_1_33"
       cx="0"
       cy="0"
       r="1"
       gradientUnits="userSpaceOnUse"
       gradientTransform="matrix(0,11,-11,0,12,1)"><stop
         stop-color="#6EBBF7"
         id="stop5758" /><stop
         offset="1"
         stop-color="#2196F3"
         id="stop5760"
         style="stop-color:#1e87e4;stop-opacity:1;" /></radialGradient></defs><sodipodi:namedview
     id="namedview3"
     pagecolor="#ffffff"
     bordercolor="#000000"
     borderopacity="0.25"
     inkscape:showpageshadow="2"
     inkscape:pageopacity="0.0"
     inkscape:pagecheckerboard="0"
     inkscape:deskcolor="#d1d1d1"
     inkscape:zoom="6.3359375"
     inkscape:cx="43.324291"
     inkscape:cy="23.753391"
     inkscape:window-width="2560"
     inkscape:window-height="998"
     inkscape:window-x="0"
     inkscape:window-y="0"
     inkscape:window-maximized="1"
     inkscape:current-layer="svg3" /><path
     fill-rule="evenodd"
     clip-rule="evenodd"
     d="M 9.59604,1.11359 C 9.71588,1.11486 9.83043,1.0996 9.93969,1.06779 11.3755,0.973736 12.8111,0.977551 14.2467,1.07924 c 1.3017,0.10142 2.5618,0.38384 3.7802,0.84726 2.0256,0.83394 3.4117,2.2804 4.1581,4.33936 0.4269,1.23963 0.6789,2.51435 0.7561,3.82414 0.1067,1.6447 0.0685,3.2858 -0.1146,4.9233 -0.137,1.1509 -0.4349,2.2577 -0.8935,3.3203 -0.8506,1.8425 -2.229,3.1134 -4.1352,3.8127 -1.5447,0.5219 -3.1331,0.7967 -4.7653,0.8243 C 11.1966,23.0661 9.37913,22.9287 7.57997,22.5585 4.26839,21.8208 2.22559,19.8018 1.45158,16.5017 1.12311,15.0161 0.974199,13.5124 1.00483,11.9906 0.968176,10.3724 1.14,8.77709 1.52031,7.20471 2.33171,4.11908 4.2905,2.20701 7.39669,1.46852 8.12048,1.29157 8.8536,1.17326 9.59604,1.11359 Z"
     fill="url(#paint0_radial_1_33)"
     id="path5741"
     style="fill:url(#paint0_radial_1_33)" /><path
     id="rect6"
     style="opacity:1;fill:#ffffff;stroke:none;stroke-width:1;stroke-dasharray:none;paint-order:stroke markers fill"
     d="m 16.125407,5.5 c -0.769561,0 -1.523928,0.01556 -2.281632,0.167129 -2.204319,0.440959 -4.1197739,1.806329 -5.3292639,3.688654 -0.72235,1.124178 -1.14267,2.455525 -1.23423,3.785033 -0.021,0.305212 -0.0338,0.61344 -0.0338,0.919728 0,0.06964 -0.0324,0.252114 0.0284,0.300196 0.0678,0.05373 0.25984,0.01817 0.34306,0.01817 h 0.90205 c 0,-0.923335 0.0424,-1.816776 0.31881,-2.706122 0.66491,-2.139596 2.3725249,-3.847642 4.4920689,-4.554145 0.917653,-0.30588 1.837386,-0.345175 2.794557,-0.345175 z m 0,2.529251 c -0.696177,0 -1.39139,0.01112 -2.069387,0.18986 -1.931719,0.509252 -3.443519,1.994067 -4.032209,3.895855 -0.2297199,0.742137 -0.2303799,1.496079 -0.2303799,2.263945 h 0.9020449 c 0.08322,0 0.275232,0.03556 0.343067,-0.01817 0.05871,-0.0465 0.02836,-0.215543 0.02836,-0.282509 0,-0.278199 -0.0031,-0.554258 0.01921,-0.831293 0.05963,-0.741258 0.376649,-1.46399 0.794848,-2.069387 0.608598,-0.881026 1.590635,-1.530558 2.634925,-1.761211 0.534007,-0.117947 1.065875,-0.113619 1.609523,-0.113619 z m 0,2.546939 c -0.562196,0 -1.102393,-0.0129 -1.644897,0.159703 -0.964767,0.306948 -1.764462,1.147244 -2.031319,2.12193 -0.137383,0.501785 -0.126504,1.005602 -0.126504,1.521088 h 1.273469 c 0,-0.351392 -0.0302,-0.716 0.04712,-1.061224 0.151575,-0.676786 0.713978,-1.248168 1.385533,-1.416831 0.353394,-0.08876 0.734969,-0.0512 1.096598,-0.0512 z m -0.255426,2.527871 c -0.04358,-0.0012 -0.08819,8.56e-4 -0.133689,0.0065 -0.422767,0.05189 -0.780723,0.341317 -0.858444,0.773153 -0.10481,0.582339 0.383713,1.200391 0.999941,1.126929 0.341499,-0.04071 0.650605,-0.220922 0.79768,-0.543255 0.270885,-0.593684 -0.151812,-1.345278 -0.805488,-1.363287 z m -1.000355,2.866687 V 18.5 h 1.892517 v -2.529252 z"
     sodipodi:nodetypes="csssssscsscccsscsssssscccssccssccssssssccccc" /></svg>
