<?xml version="1.0" encoding="UTF-8" standalone="no"?>
<svg
   height="24"
   viewBox="0 0 24 24"
   width="24"
   version="1.1"
   id="svg12"
   sodipodi:docname="io.bassi.Amberol.svg"
   inkscape:version="1.3 (0e150ed6c4, 2023-07-21)"
   inkscape:export-filename="../../../../../../../../../Imagens/Big Icons/io.bassi.Amberol.pdf"
   inkscape:export-xdpi="96"
   inkscape:export-ydpi="96"
   xml:space="preserve"
   xmlns:inkscape="http://www.inkscape.org/namespaces/inkscape"
   xmlns:sodipodi="http://sodipodi.sourceforge.net/DTD/sodipodi-0.dtd"
   xmlns="http://www.w3.org/2000/svg"
   xmlns:svg="http://www.w3.org/2000/svg"><defs
     id="defs12"><radialGradient
       id="a-9"
       cx="0"
       cy="0"
       r="1"
       gradientTransform="matrix(0,22,-22,0,172.00004,146.00001)"
       gradientUnits="userSpaceOnUse"><stop
         stop-color="#8FC8FF"
         id="stop1-2"
         offset="0"
         style="stop-color:#59cde7;stop-opacity:1;" /><stop
         offset="1"
         stop-color="#0056A8"
         id="stop2-0"
         style="stop-color:#1c71d8;stop-opacity:1;" /></radialGradient><radialGradient
       fx="0"
       fy="0"
       cx="0"
       cy="0"
       r="1"
       gradientUnits="userSpaceOnUse"
       gradientTransform="matrix(0,16.5,-16.5,0,8.999955,0.749858)"
       spreadMethod="pad"
       id="radialGradient2"><stop
         style="stop-opacity:1;stop-color:#59cde7"
         offset="0"
         id="stop1-23" /><stop
         style="stop-opacity:1;stop-color:#1c71d8"
         offset="1"
         id="stop2-7" /></radialGradient><radialGradient
       fx="0"
       fy="0"
       cx="0"
       cy="0"
       r="1"
       gradientUnits="userSpaceOnUse"
       gradientTransform="matrix(0,21.999999,-21.999999,0,-21.000693,-9.0003994)"
       spreadMethod="pad"
       id="radialGradient2-9"><stop
         style="stop-opacity:1;stop-color:#59cde7"
         offset="0"
         id="stop1-23-2" /><stop
         style="stop-opacity:1;stop-color:#1c71d8"
         offset="1"
         id="stop2-7-2" /></radialGradient></defs><sodipodi:namedview
     id="namedview12"
     pagecolor="#ffffff"
     bordercolor="#000000"
     borderopacity="0.25"
     inkscape:showpageshadow="2"
     inkscape:pageopacity="0.0"
     inkscape:pagecheckerboard="0"
     inkscape:deskcolor="#d1d1d1"
     inkscape:zoom="18.03125"
     inkscape:cx="4.797227"
     inkscape:cy="13.254766"
     inkscape:window-width="3440"
     inkscape:window-height="1360"
     inkscape:window-x="2560"
     inkscape:window-y="0"
     inkscape:window-maximized="1"
     inkscape:current-layer="svg12"><inkscape:page
       x="0"
       y="0"
       width="24"
       height="24"
       id="page1"
       margin="0"
       bleed="0" /></sodipodi:namedview><linearGradient
     id="a"
     gradientTransform="matrix(1.008894,0,0,1.00892,-0.568699,-2.626877)"
     gradientUnits="userSpaceOnUse"
     x1="8"
     x2="120"
     y1="236"
     y2="236"><stop
       offset="0"
       stop-color="#498fe5"
       id="stop1" /><stop
       offset="0.186734"
       stop-color="#1a5fb4"
       stop-opacity="0.984314"
       id="stop2" /><stop
       offset="0.392857"
       stop-color="#2579e0"
       stop-opacity="0.968627"
       id="stop3" /><stop
       offset="0.617036"
       stop-color="#5596e6"
       stop-opacity="0.956863"
       id="stop4" /><stop
       offset="0.855136"
       stop-color="#134583"
       id="stop5" /><stop
       offset="1"
       stop-color="#2677df"
       id="stop6" /></linearGradient><linearGradient
     id="b"
     gradientTransform="matrix(0.659952,0.659952,-0.659952,0.659952,176.852,-137.32514)"
     gradientUnits="userSpaceOnUse"
     x1="139.47729"
     x2="25.039328"
     y1="259.5881"
     y2="189.37029"><stop
       offset="0"
       stop-color="#59cde7"
       id="stop7" /><stop
       offset="1"
       stop-color="#1c71d8"
       id="stop8" /></linearGradient><g
     id="g1"
     inkscape:groupmode="layer"
     inkscape:label="1"
     transform="translate(34)" /><g
     id="g2"
     transform="translate(33.000181,10.000175)"><path
       id="path2-5"
       d="m -23.4073,-8.8855434 c 0.12,0 0.234667,-0.016 0.344,-0.046667 1.437333,-0.094667 2.874667,-0.089333 4.308,0.010667 1.301333,0.104 2.561333,0.3853334 3.781333,0.848 2.025333,0.8333333 3.410667,2.2813333 4.161333,4.3386666 0.421334,1.2399999 0.676,2.5159999 0.754667,3.82266655 0.1040001,1.64133325 0.068,3.29199995 -0.114667,4.92266655 -0.134666,1.1453333 -0.437333,2.2653333 -0.896,3.3226666 -0.849333,1.8440001 -2.229333,3.1146661 -4.134666,3.8120001 -1.537333,0.521333 -3.141333,0.797333 -4.766667,0.824 -1.828,0.09867 -3.656,-0.04267 -5.452,-0.412 -3.313333,-0.734667 -5.354666,-2.7546668 -6.125333,-6.0573334 -0.328,-1.4786666 -0.48,-2.9946666 -0.448,-4.5106666 -0.036,-1.60933326 0.134667,-3.2186666 0.516,-4.7866665 0.812,-3.0826666 2.770667,-4.9946666 5.874667,-5.7333332 0.724,-0.1773333 1.458666,-0.2973333 2.197333,-0.3546667 z"
       style="fill:url(#radialGradient2-9);fill-rule:evenodd;stroke:none;stroke-width:1.33333" /><path
       id="path3"
       d="m -21.000633,-4.1828768 c -1.625334,0 -3.245334,0.62 -4.484,1.8546666 -2.474667,2.47866661 -2.474667,6.4946665 0,8.9679998 2.478666,2.4799999 6.489333,2.4799999 8.968,0 2.474666,-2.4733333 2.474666,-6.48933319 0,-8.9679998 -1.238667,-1.2346666 -2.858667,-1.8546666 -4.484,-1.8546666 z m -1.609334,3.20933324 c 0.161334,-0.005333 0.328,0.036 0.489334,0.124 l 3.964,2.21866656 c 0.645333,0.3653334 0.645333,1.2973334 0,1.6613333 l -3.964,2.22 c -0.634667,0.3533333 -1.416,-0.1053333 -1.416,-0.8346667 v -4.43733318 c 0,-0.54666666 0.442666,-0.93733331 0.926666,-0.95199998 z"
       style="fill:#1a5fb4;fill-opacity:1;fill-rule:nonzero;stroke:none;stroke-width:1.33333" /><path
       id="path4"
       d="m -21.000633,-4.5002101 c -1.625334,0 -3.245334,0.6199999 -4.484,1.8599999 -2.474667,2.47333329 -2.474667,6.4893332 0,8.9679998 2.478666,2.4746666 6.489333,2.4746666 8.968,0 2.474666,-2.4786666 2.474666,-6.49466651 0,-8.9679998 -1.238667,-1.24 -2.858667,-1.8599999 -4.484,-1.8599999 z m -1.609334,3.2079999 c 0.161334,0 0.328,0.037333 0.489334,0.1253333 l 3.964,2.2186666 c 0.645333,0.364 0.645333,1.2973333 0,1.6613333 l -3.964,2.2186666 c -0.634667,0.3546667 -1.416,-0.104 -1.416,-0.8333333 v -4.43733321 c 0,-0.54133332 0.442666,-0.93733329 0.926666,-0.95333329 z"
       style="fill:#ffffff;fill-opacity:1;fill-rule:nonzero;stroke:none;stroke-width:1.33333" /></g></svg>
