<?xml version="1.0" encoding="UTF-8" standalone="no"?>
<svg
   width="24"
   height="24"
   viewBox="0 0 24 24"
   fill="none"
   version="1.1"
   id="svg154"
   sodipodi:docname="app.svg"
   inkscape:version="1.2.2 (b0a8486541, 2022-12-01)"
   xml:space="preserve"
   inkscape:export-filename="../../../../svg/ventoy.pdf"
   inkscape:export-xdpi="96"
   inkscape:export-ydpi="96"
   xmlns:inkscape="http://www.inkscape.org/namespaces/inkscape"
   xmlns:sodipodi="http://sodipodi.sourceforge.net/DTD/sodipodi-0.dtd"
   xmlns="http://www.w3.org/2000/svg"
   xmlns:svg="http://www.w3.org/2000/svg"><sodipodi:namedview
     id="namedview156"
     pagecolor="#ffffff"
     bordercolor="#000000"
     borderopacity="1"
     inkscape:showpageshadow="0"
     inkscape:pageopacity="1"
     inkscape:pagecheckerboard="false"
     inkscape:deskcolor="#ffffff"
     showgrid="true"
     inkscape:zoom="32"
     inkscape:cx="9.609375"
     inkscape:cy="15.453125"
     inkscape:window-width="1920"
     inkscape:window-height="1052"
     inkscape:window-x="0"
     inkscape:window-y="0"
     inkscape:window-maximized="1"
     inkscape:current-layer="svg154"
     showguides="true"
     guidecolor="#ff0000"
     guideopacity="1"
     inkscape:lockguides="true"
     showborder="true"
     borderlayer="true"><inkscape:grid
       type="xygrid"
       id="grid356"
       color="#000000"
       opacity="0.10196078"
       empcolor="#000000"
       empopacity="0.10196078"
       snapvisiblegridlinesonly="true"
       enabled="true"
       visible="true"
       dotted="false"
       originx="-34"
       originy="0"
       spacingy="1"
       spacingx="1"
       units="px" /><sodipodi:guide
       position="4,12"
       orientation="-1,0"
       id="guide764"
       inkscape:locked="true"
       inkscape:label="left-circle"
       inkscape:color="rgb(255,0,0)" /><sodipodi:guide
       position="5,12"
       orientation="-1,0"
       id="guide2218"
       inkscape:locked="true"
       inkscape:label="left-square"
       inkscape:color="rgb(255,0,0)" /><sodipodi:guide
       position="12,20"
       orientation="0,1"
       id="guide2220"
       inkscape:locked="true"
       inkscape:label="top-circle"
       inkscape:color="rgb(255,0,0)" /><sodipodi:guide
       position="12,5"
       orientation="0,1"
       id="guide2222"
       inkscape:locked="true"
       inkscape:label="bottom-square"
       inkscape:color="rgb(255,0,0)" /><sodipodi:guide
       position="12,4"
       orientation="0,1"
       id="guide2224"
       inkscape:locked="true"
       inkscape:label="bottom-circle"
       inkscape:color="rgb(255,0,0)" /><sodipodi:guide
       position="19,12"
       orientation="-1,0"
       id="guide2226"
       inkscape:locked="true"
       inkscape:label="right-square"
       inkscape:color="rgb(255,0,0)" /><sodipodi:guide
       position="20,12"
       orientation="-1,0"
       id="guide2228"
       inkscape:locked="true"
       inkscape:label="right-circle"
       inkscape:color="rgb(255,0,0)" /><sodipodi:guide
       position="12,19"
       orientation="0,1"
       id="guide2230"
       inkscape:locked="true"
       inkscape:label="top-square"
       inkscape:color="rgb(255,0,0)" /><sodipodi:guide
       position="12,12"
       orientation="1,0"
       id="guide765"
       inkscape:locked="true" /><sodipodi:guide
       position="12,12"
       orientation="0,-1"
       id="guide767"
       inkscape:locked="true" /><sodipodi:guide
       position="12,12"
       orientation="0.70710678,0.70710678"
       id="guide2266"
       inkscape:locked="true"
       inkscape:label=""
       inkscape:color="rgb(255,0,0)" /><sodipodi:guide
       position="12,12"
       orientation="-0.70710678,0.70710678"
       id="guide2994"
       inkscape:locked="true"
       inkscape:label=""
       inkscape:color="rgb(255,0,0)" /><sodipodi:guide
       position="3,12"
       orientation="-1,0"
       id="guide131543"
       inkscape:locked="true"
       inkscape:label="left-horizontal"
       inkscape:color="rgb(255,0,0)" /><sodipodi:guide
       position="12,21"
       orientation="0,1"
       id="guide131545"
       inkscape:locked="true"
       inkscape:label="top-vertical"
       inkscape:color="rgb(255,0,0)" /><sodipodi:guide
       position="21,12"
       orientation="-1,0"
       id="guide131547"
       inkscape:locked="true"
       inkscape:label="right-horizontal"
       inkscape:color="rgb(255,0,0)" /><sodipodi:guide
       position="12,3"
       orientation="0,1"
       id="guide131549"
       inkscape:locked="true"
       inkscape:label="bottom-vertical"
       inkscape:color="rgb(255,0,0)" /></sodipodi:namedview><defs
     id="defs152"><radialGradient
       fx="0.179115"
       fy="-1.748343"
       cx="0.179115"
       cy="-1.748343"
       r="1"
       gradientUnits="userSpaceOnUse"
       gradientTransform="matrix(0.232021,20.32265,-16.500173,0.18838,-19.890763,-2.571644)"
       spreadMethod="pad"
       id="radialGradient2"><stop
         style="stop-opacity:1;stop-color:#80b3ff"
         offset="0"
         id="stop1" /><stop
         style="stop-opacity:1;stop-color:#003380"
         offset="1"
         id="stop2" /></radialGradient><radialGradient
       fx="0.179115"
       fy="-1.748343"
       cx="0.179115"
       cy="-1.748343"
       r="1"
       gradientUnits="userSpaceOnUse"
       gradientTransform="matrix(0.232021,20.32265,-16.500173,0.18838,-19.890763,-2.571644)"
       spreadMethod="pad"
       id="radialGradient4"><stop
         style="stop-opacity:1;stop-color:#d5ffe6"
         offset="0"
         id="stop3" /><stop
         style="stop-opacity:1;stop-color:#00d455"
         offset="1"
         id="stop4" /></radialGradient></defs><g
     id="g1"
     inkscape:groupmode="layer"
     inkscape:label="1"><path
       id="path2"
       d="M 9,0.75 C 1.5,0.75 0.75,4.5 0.75,9 0.75,15 3,17.25 9,17.25 15,17.25 17.25,15 17.25,9 17.25,4.5 16.5,0.75 9,0.75 Z"
       transform="scale(1.3333333)"
       style="fill:url(#radialGradient2);stroke:none" /><path
       id="path4"
       d="M 9,0.75 C 1.5,0.75 0.75,4.5 0.75,9 0.75,15 3,17.25 9,17.25 15,17.25 17.25,15 17.25,9 17.25,4.5 16.5,0.75 9,0.75 Z"
       transform="scale(1.3333333)"
       style="fill:url(#radialGradient4);stroke:none" /><path
       id="path5"
       d="M 4.312,13.18 C 4.281,13.168 4.25,13.137 4.234,13.113 L 4.211,13.066 V 12.195 H 3.512 L 3.457,12.133 3.398,12.074 3.391,11.293 c -0.004,-0.43 0,-0.82 0.007,-0.875 0.008,-0.055 0.028,-0.117 0.047,-0.141 L 3.477,10.234 3.836,10.223 4.199,10.211 4.203,10.004 4.211,9.801 3.5,9.785 3.457,9.73 C 3.406,9.672 3.398,9.562 3.434,9.492 3.445,9.469 3.492,9.438 3.531,9.426 3.574,9.41 3.742,9.398 3.906,9.398 H 4.211 V 9 H 3.598 L 3.516,8.965 3.438,8.934 3.383,8.754 3.391,7.934 3.398,7.117 3.465,7.059 3.531,7.004 h 0.68 L 4.203,6.797 4.199,6.594 3.52,6.578 3.41,6.477 V 6.301 L 3.473,6.254 3.535,6.203 H 4.211 L 4.203,5.695 4.199,5.184 3.633,5.172 C 3.324,5.164 3.066,5.156 3.062,5.152 3.059,5.148 3.039,5.109 3.023,5.066 L 2.988,4.984 3.012,4.93 C 3.023,4.898 3.055,4.855 3.086,4.832 L 3.141,4.797 h 1.308 l 0.137,0.137 v 0.871 h 9.348 l 0.164,0.039 c 0.191,0.043 0.39,0.156 0.558,0.32 l 0.125,0.121 0.094,0.192 0.094,0.187 0.019,0.176 c 0.032,0.23 0.032,3.691 0,3.922 l -0.019,0.176 -0.188,0.382 -0.152,0.141 c -0.168,0.156 -0.375,0.266 -0.574,0.309 -0.067,0.011 -0.289,0.023 -0.489,0.023 h -0.363 v 1.273 l -0.066,0.071 -0.071,0.066 H 11.352 L 11.285,13.148 11.219,13.09 11.215,12.441 11.207,11.793 h -0.82 v 1.289 L 10.34,13.137 10.297,13.191 8.02,13.199 5.738,13.203 5.672,13.148 5.605,13.09 5.602,12.441 5.594,11.793 H 4.586 v 1.273 l -0.07,0.071 c -0.071,0.07 -0.118,0.078 -0.204,0.043 z m 2.293,-0.618 0.012,-0.253 0.055,-0.047 c 0.031,-0.024 0.086,-0.043 0.121,-0.043 0.035,0 0.09,0.019 0.121,0.043 l 0.055,0.047 0.023,0.507 0.207,0.008 0.203,0.004 v -0.223 c 0,-0.226 0.02,-0.304 0.094,-0.359 0.055,-0.043 0.152,-0.035 0.219,0.02 l 0.062,0.046 0.008,0.254 0.008,0.25 0.203,0.008 0.207,0.004 v -0.465 l 0.059,-0.074 0.062,-0.07 h 0.067 c 0.039,0 0.097,0.023 0.132,0.054 l 0.067,0.055 0.015,0.5 h 0.391 l 0.008,-0.25 0.008,-0.246 0.066,-0.059 c 0.035,-0.031 0.09,-0.054 0.121,-0.054 0.031,0 0.086,0.023 0.125,0.054 l 0.063,0.059 0.008,0.246 0.011,0.25 h 0.606 V 11.793 H 5.996 v 1.035 l 0.297,-0.004 0.301,-0.008 z m 5.407,0.016 0.008,-0.246 0.066,-0.059 c 0.035,-0.031 0.09,-0.054 0.121,-0.054 0.031,0 0.086,0.023 0.121,0.054 l 0.067,0.059 0.007,0.25 0.008,0.246 0.203,-0.004 0.203,-0.008 v -1.011 l -0.605,-0.004 -0.602,-0.008 v 1.035 h 0.395 z M 4.211,11.207 V 10.598 H 3.785 v 1.218 h 0.426 z m 3.492,-0.258 c 0.109,-0.027 0.27,-0.078 0.359,-0.117 0.34,-0.144 0.68,-0.414 0.907,-0.719 C 9.16,9.863 9.316,9.504 9.379,9.172 L 9.406,9.023 9.395,8.699 9.383,8.379 9.332,8.211 C 9.266,7.996 9.117,7.688 8.992,7.508 8.773,7.207 8.379,6.895 8.039,6.754 7.961,6.723 7.801,6.672 7.691,6.645 L 7.484,6.594 H 6.898 L 6.691,6.648 C 6.449,6.707 6.16,6.836 5.945,6.98 5.863,7.035 5.715,7.16 5.617,7.262 5.305,7.574 5.098,7.984 5.016,8.445 L 4.98,8.66 5.004,9.176 5.066,9.387 c 0.149,0.511 0.461,0.949 0.883,1.234 0.399,0.27 0.875,0.41 1.336,0.387 C 7.41,11 7.598,10.977 7.703,10.949 Z M 6.973,10.52 C 6.875,10.395 6.793,10.18 6.766,9.988 L 6.738,9.809 6.77,9.676 C 6.785,9.602 6.805,9.535 6.816,9.527 6.852,9.508 7.027,9.609 7.027,9.648 c 0,0.02 0.035,0.11 0.078,0.196 l 0.075,0.152 0.152,0.156 c 0.086,0.082 0.219,0.188 0.301,0.235 0.078,0.043 0.144,0.086 0.144,0.093 0.004,0.04 -0.402,0.118 -0.613,0.118 H 7.031 Z M 6.27,10.328 C 6.109,10.23 5.895,10.055 5.844,9.973 L 5.805,9.91 5.832,9.789 C 5.867,9.641 5.973,9.422 6.066,9.301 6.141,9.211 6.359,9.047 6.406,9.047 c 0.012,0 0.039,0.043 0.063,0.094 L 6.508,9.23 6.477,9.273 C 6.422,9.355 6.371,9.52 6.348,9.688 L 6.32,9.855 6.348,10.039 c 0.011,0.102 0.039,0.227 0.058,0.277 0.016,0.051 0.024,0.094 0.016,0.094 -0.012,0 -0.078,-0.039 -0.152,-0.082 z M 8.172,10.16 C 7.891,10.094 7.586,9.875 7.48,9.668 L 7.434,9.578 7.527,9.535 7.617,9.492 7.703,9.539 c 0.293,0.145 0.66,0.156 1.07,0.031 L 8.816,9.559 8.742,9.699 C 8.703,9.777 8.594,9.922 8.504,10.02 8.414,10.117 8.332,10.195 8.324,10.195 8.316,10.195 8.246,10.18 8.172,10.16 Z M 5.457,9.207 5.406,8.988 5.41,8.801 5.418,8.613 5.531,8.535 C 5.762,8.383 6.129,8.316 6.375,8.387 L 6.484,8.418 6.441,8.512 6.402,8.609 6.281,8.648 C 6.012,8.742 5.758,8.973 5.59,9.273 L 5.508,9.43 Z m 2.539,0 C 7.953,9.195 7.922,9.18 7.922,9.168 7.922,9.16 7.938,9.117 7.953,9.074 L 7.98,8.996 8.105,8.953 C 8.176,8.926 8.281,8.875 8.348,8.832 8.496,8.738 8.719,8.492 8.805,8.332 8.84,8.262 8.879,8.207 8.887,8.215 8.934,8.242 9.008,8.75 8.988,8.895 L 8.973,8.992 8.848,9.07 C 8.777,9.109 8.656,9.164 8.578,9.191 L 8.434,9.234 8.254,9.23 C 8.152,9.23 8.039,9.219 7.996,9.207 Z M 7.051,9.16 C 6.977,9.133 6.891,9.051 6.848,8.973 6.832,8.938 6.816,8.855 6.816,8.793 V 8.676 L 6.871,8.598 C 6.898,8.555 6.957,8.496 7.004,8.465 L 7.082,8.414 H 7.297 L 7.391,8.465 7.484,8.52 7.539,8.621 C 7.566,8.68 7.59,8.762 7.59,8.801 7.59,8.84 7.566,8.922 7.535,8.977 L 7.48,9.082 7.391,9.133 7.297,9.188 H 7.203 C 7.152,9.184 7.082,9.176 7.051,9.16 Z M 7.93,8.465 7.895,8.379 7.957,8.246 C 7.988,8.172 8.027,8.051 8.039,7.973 8.074,7.797 8.055,7.5 7.996,7.316 L 7.949,7.168 8.023,7.207 C 8.148,7.27 8.371,7.438 8.48,7.551 L 8.586,7.656 8.57,7.77 C 8.551,7.918 8.422,8.184 8.305,8.316 8.223,8.41 8.031,8.555 7.988,8.555 7.977,8.555 7.953,8.516 7.93,8.465 Z M 6.711,8.07 C 6.684,8.051 6.598,8.016 6.516,7.988 L 6.367,7.941 H 6.148 c -0.187,0 -0.277,0.016 -0.527,0.086 L 5.562,8.043 5.633,7.926 C 5.73,7.758 5.906,7.535 6,7.465 L 6.082,7.402 6.219,7.438 C 6.418,7.488 6.586,7.574 6.723,7.699 6.828,7.797 6.977,8.004 6.953,8.023 6.945,8.031 6.766,8.109 6.762,8.105 6.758,8.105 6.738,8.09 6.711,8.07 Z M 7.469,8.043 7.387,8.008 7.355,7.902 C 7.289,7.664 7.004,7.34 6.738,7.203 6.664,7.164 6.605,7.125 6.605,7.117 6.605,7.109 6.648,7.09 6.703,7.078 6.887,7.027 7.055,7.004 7.215,7.004 h 0.16 l 0.07,0.109 C 7.551,7.281 7.617,7.465 7.633,7.641 7.648,7.816 7.625,7.992 7.586,8.043 L 7.555,8.078 Z m 5.054,2.906 c 0.247,-0.058 0.59,-0.222 0.797,-0.375 0.399,-0.293 0.688,-0.715 0.828,-1.215 L 14.203,9.176 V 8.426 L 14.148,8.238 C 14.078,7.988 13.961,7.746 13.816,7.531 13.684,7.344 13.445,7.105 13.266,6.98 13.074,6.852 12.789,6.723 12.555,6.656 L 12.324,6.598 H 11.668 L 11.48,6.648 C 10.941,6.793 10.473,7.125 10.18,7.566 10.012,7.816 9.902,8.074 9.844,8.352 L 9.801,8.566 v 0.243 c 0,0.132 0.015,0.32 0.035,0.421 0.109,0.516 0.422,1.016 0.84,1.336 0.082,0.059 0.25,0.161 0.379,0.219 0.367,0.176 0.664,0.238 1.047,0.219 0.125,-0.004 0.316,-0.031 0.421,-0.055 z M 11.801,10.543 C 11.73,10.465 11.637,10.262 11.594,10.098 L 11.555,9.953 11.566,9.797 c 0.008,-0.082 0.024,-0.18 0.039,-0.215 l 0.024,-0.062 0.094,0.035 0.093,0.039 0.039,0.113 c 0.086,0.258 0.325,0.531 0.602,0.688 0.074,0.039 0.137,0.078 0.137,0.085 0,0.04 -0.403,0.118 -0.614,0.118 h -0.128 z m -0.793,-0.262 c -0.211,-0.144 -0.387,-0.316 -0.387,-0.386 0,-0.024 0.02,-0.114 0.047,-0.196 0.051,-0.164 0.187,-0.394 0.297,-0.492 0.07,-0.062 0.219,-0.16 0.25,-0.16 0.008,0 0.035,0.039 0.058,0.082 l 0.043,0.086 -0.062,0.133 c -0.07,0.144 -0.117,0.351 -0.117,0.519 0.004,0.094 0.035,0.285 0.082,0.477 0.011,0.035 0.008,0.066 0,0.066 -0.012,-0.004 -0.106,-0.058 -0.211,-0.129 z m 2.008,-0.109 C 12.871,10.145 12.602,10.008 12.473,9.895 12.418,9.844 12.34,9.75 12.305,9.688 L 12.242,9.57 12.336,9.531 12.43,9.496 12.59,9.57 12.746,9.645 h 0.613 l 0.125,-0.043 c 0.067,-0.024 0.129,-0.04 0.133,-0.032 0.004,0.004 -0.027,0.075 -0.078,0.153 -0.094,0.156 -0.312,0.414 -0.375,0.445 -0.023,0.012 -0.09,0.012 -0.148,0.004 z M 10.277,9.266 10.234,9.129 V 8.613 l 0.11,-0.074 C 10.406,8.496 10.527,8.441 10.613,8.41 l 0.153,-0.051 h 0.168 c 0.164,0 0.343,0.039 0.343,0.075 0,0.011 -0.015,0.058 -0.035,0.105 -0.019,0.047 -0.051,0.086 -0.07,0.086 -0.024,0 -0.11,0.031 -0.195,0.074 L 10.824,8.77 10.656,8.938 c -0.09,0.093 -0.203,0.234 -0.25,0.316 L 10.32,9.406 Z M 12.801,9.207 C 12.766,9.195 12.734,9.176 12.734,9.164 c 0,-0.008 0.016,-0.055 0.036,-0.098 l 0.035,-0.082 0.097,-0.031 c 0.282,-0.082 0.559,-0.336 0.731,-0.664 l 0.058,-0.109 0.043,0.132 c 0.02,0.075 0.043,0.254 0.051,0.399 l 0.012,0.262 -0.098,0.07 c -0.054,0.039 -0.16,0.098 -0.234,0.125 L 13.336,9.219 13.098,9.227 C 12.969,9.23 12.836,9.223 12.801,9.207 Z M 11.867,9.16 C 11.77,9.125 11.656,8.996 11.629,8.898 11.582,8.73 11.66,8.551 11.816,8.465 l 0.09,-0.051 h 0.199 l 0.094,0.051 C 12.355,8.551 12.43,8.73 12.387,8.898 12.359,9 12.242,9.125 12.141,9.164 12.059,9.191 11.945,9.191 11.867,9.16 Z M 12.738,8.465 12.691,8.375 12.727,8.332 C 12.742,8.309 12.781,8.219 12.812,8.133 L 12.863,7.977 12.859,7.73 V 7.484 L 12.812,7.324 12.766,7.168 12.875,7.23 c 0.145,0.082 0.32,0.219 0.434,0.336 l 0.093,0.094 -0.027,0.133 c -0.059,0.273 -0.234,0.547 -0.441,0.687 -0.063,0.04 -0.122,0.075 -0.133,0.075 -0.008,0 -0.039,-0.043 -0.063,-0.09 z M 11.523,8.074 C 11.496,8.055 11.41,8.02 11.332,7.992 L 11.188,7.941 10.957,7.945 h -0.23 l -0.165,0.043 c -0.089,0.024 -0.167,0.043 -0.167,0.039 -0.004,-0.004 0.031,-0.07 0.082,-0.152 0.089,-0.152 0.304,-0.41 0.378,-0.449 l 0.043,-0.024 0.133,0.036 c 0.176,0.046 0.379,0.152 0.508,0.265 0.059,0.051 0.133,0.149 0.168,0.211 l 0.066,0.117 -0.066,0.024 c -0.035,0.011 -0.078,0.031 -0.098,0.039 -0.019,0.008 -0.058,0 -0.086,-0.02 z M 12.285,8.043 12.199,8.008 12.152,7.875 C 12.125,7.801 12.07,7.691 12.027,7.629 11.934,7.484 11.707,7.281 11.547,7.199 11.477,7.164 11.422,7.125 11.422,7.117 c 0,-0.008 0.043,-0.027 0.098,-0.039 0.175,-0.051 0.347,-0.074 0.5,-0.074 h 0.144 l 0.047,0.051 c 0.07,0.078 0.168,0.277 0.207,0.433 0.02,0.074 0.035,0.188 0.035,0.25 0,0.117 -0.039,0.317 -0.066,0.332 C 12.379,8.074 12.332,8.062 12.285,8.043 Z M 4.203,7.996 4.199,7.391 3.992,7.383 3.785,7.379 v 1.223 h 0.426 z"
       style="fill:#1a1a1a;fill-opacity:1;fill-rule:nonzero;stroke:none"
       transform="scale(1.3333333)" /></g></svg>
