<?xml version="1.0" encoding="UTF-8" standalone="no"?>
<svg
   width="24"
   height="24"
   version="1.1"
   id="svg4"
   sodipodi:docname="k9-copy.svg"
   inkscape:version="1.3 (0e150ed6c4, 2023-07-21)"
   xmlns:inkscape="http://www.inkscape.org/namespaces/inkscape"
   xmlns:sodipodi="http://sodipodi.sourceforge.net/DTD/sodipodi-0.dtd"
   xmlns:xlink="http://www.w3.org/1999/xlink"
   xmlns="http://www.w3.org/2000/svg"
   xmlns:svg="http://www.w3.org/2000/svg"
   xmlns:sketch="http://www.bohemiancoding.com/sketch/ns">
  <defs
     id="defs4">
    <linearGradient
       inkscape:collect="always"
       xlink:href="#linearGradient485"
       id="linearGradient487"
       x1="53.579548"
       y1="95.511368"
       x2="52.428978"
       y2="0.90909094"
       gradientUnits="userSpaceOnUse"
       gradientTransform="matrix(0.24444444,0,0,0.24444444,-0.22222222,-0.22222222)" />
    <linearGradient
       inkscape:collect="always"
       id="linearGradient485">
      <stop
         style="stop-color:#1a1a1a;stop-opacity:1"
         offset="0"
         id="stop481" />
      <stop
         style="stop-color:#999999;stop-opacity:1"
         offset="1"
         id="stop483" />
    </linearGradient>
  </defs>
  <sodipodi:namedview
     id="namedview4"
     pagecolor="#ffffff"
     bordercolor="#000000"
     borderopacity="0.25"
     inkscape:showpageshadow="2"
     inkscape:pageopacity="0.0"
     inkscape:pagecheckerboard="0"
     inkscape:deskcolor="#d1d1d1"
     inkscape:zoom="17.920737"
     inkscape:cx="5.9986371"
     inkscape:cy="19.390943"
     inkscape:window-width="2560"
     inkscape:window-height="998"
     inkscape:window-x="0"
     inkscape:window-y="0"
     inkscape:window-maximized="1"
     inkscape:current-layer="svg4" />
  <path
     d="M 12,0.99999998 C 2,0.99999998 0.99999998,6 0.99999998,12 0.99999998,20 4.0000001,23 12,23 20,23 23,20 23,12 23,6 22,0.99999998 12,0.99999998 Z"
     sketch:type="MSShapeGroup"
     id="path6"
     style="font-variation-settings:normal;display:inline;vector-effect:none;fill:url(#linearGradient487);fill-opacity:1;stroke-width:1.11627;stroke-linecap:butt;stroke-linejoin:miter;stroke-miterlimit:4;stroke-dasharray:none;stroke-dashoffset:0;stroke-opacity:1;-inkscape-stroke:none;stop-color:#000000"
     sodipodi:nodetypes="sssss"
     inkscape:label="Shape" />
  <g
     id="g8"
     transform="matrix(0.43591979,0,0,0.43591979,6.7685266,-1.9485614)"
     style="stroke-width:2.294">
    <path
       d="m 4.678,20.832 c -5.305,0 -9.617,4.218 -9.617,9.396 0,4.978 3.975,9.004 8.999,9.308 0,-5.63 4.504,-10.223 10.102,-10.72 C 13.467,24.3 9.491,20.832 4.677,20.832 m 0,6.441 c 1.654,0 3,1.34 3,2.956 0,1.616 -1.346,2.912 -3,2.912 -1.654,0 -3,-1.296 -3,-2.912 0,-1.616 1.346,-2.956 3,-2.956 m 0,0.618 c -1.328,0 -2.427,1.042 -2.427,2.338 0,1.301 1.097,2.337 2.427,2.337 1.328,0 2.383,-1.036 2.383,-2.337 0,-1.296 -1.053,-2.338 -2.383,-2.338 m 0,0.883 c 0.827,0 1.5,0.645 1.5,1.455 0,0.81 -0.667,1.455 -1.5,1.455 -0.827,0 -1.5,-0.645 -1.5,-1.455 0,-0.81 0.673,-1.455 1.5,-1.455"
       fill="#ff4d5b"
       id="path5"
       style="stroke-width:2.294" />
    <path
       d="m 15.134,30.178 c -5.305,0 -9.606,4.197 -9.606,9.38 0,5.184 4.301,9.38 9.606,9.38 5.31,0 9.612,-4.196 9.612,-9.38 0,-5.183 -4.302,-9.38 -9.612,-9.38 m 0,6.451 c 1.66,0 3.005,1.313 3.005,2.928 0,1.616 -1.345,2.933 -3.005,2.933 -1.654,0 -3,-1.318 -3,-2.933 0,-1.617 1.346,-2.928 3,-2.928 m 0,0.585 c -1.328,0 -2.398,1.041 -2.398,2.343 0,1.301 1.07,2.349 2.398,2.349 1.334,0 2.404,-1.048 2.404,-2.35 0,-1.3 -1.07,-2.342 -2.404,-2.342 m 0,0.876 c 0.833,0 1.505,0.657 1.505,1.467 0,0.81 -0.674,1.467 -1.505,1.467 -0.827,0 -1.5,-0.657 -1.5,-1.467 0,-0.81 0.673,-1.467 1.5,-1.467"
       fill="#4ca3e5"
       id="path7"
       style="stroke-width:2.294" />
    <path
       d="m 9.143,15.058 c -8.14,0.008 -14.897,6.283 -15.494,14.389 0.586,-5.766 5.447,-10.154 11.253,-10.154 6.246,0 11.335,5.056 11.335,11.293 v 2.823 h -5.675 l 9.896,9.881 9.895,-9.88 h -5.646 v -2.824 c 0,-8.576 -6.972,-15.528 -15.556,-15.528"
       fill="#f2f2f2"
       fill-rule="evenodd"
       id="path8"
       style="stroke-width:2.294" />
  </g>
</svg>
