<?xml version="1.0" encoding="UTF-8" standalone="no"?>
<svg
   width="24"
   height="24"
   version="1.1"
   id="svg1"
   sodipodi:docname="kate-bkp.svg"
   xml:space="preserve"
   inkscape:version="1.3 (0e150ed6c4, 2023-07-21)"
   inkscape:export-filename="../../../../../../../../../Imagens/Big Icons/kate-bkp.pdf"
   inkscape:export-xdpi="96"
   inkscape:export-ydpi="96"
   xmlns:inkscape="http://www.inkscape.org/namespaces/inkscape"
   xmlns:sodipodi="http://sodipodi.sourceforge.net/DTD/sodipodi-0.dtd"
   xmlns:xlink="http://www.w3.org/1999/xlink"
   xmlns="http://www.w3.org/2000/svg"
   xmlns:svg="http://www.w3.org/2000/svg"><defs
     id="defs1"><linearGradient
       id="paint0_linear_3_191"
       x1="12"
       y1="1"
       x2="12"
       y2="12"
       gradientUnits="userSpaceOnUse"
       gradientTransform="translate(-1.2792365e-5,1.4268859e-5)"><stop
         stop-color="#7DB9FF"
         id="stop6"
         offset="0"
         style="stop-color:#00ccff;stop-opacity:1;" /><stop
         offset="1"
         stop-color="#197CF1"
         id="stop8"
         style="stop-color:#2881ff;stop-opacity:1;" /></linearGradient><linearGradient
       id="m"
       gradientUnits="userSpaceOnUse"
       x1="68.210472"
       x2="148.52051"
       y1="177.75131"
       y2="258.06134"
       gradientTransform="matrix(0.35834457,0,0,0.35834465,-68.444282,-52.034513)"><stop
         offset="0"
         stop-color="#59f"
         id="stop17" /><stop
         offset="1"
         stop-color="#06f"
         id="stop18" /></linearGradient><linearGradient
       id="l"
       gradientTransform="matrix(0.15999446,0,0,0.15580629,-47.063671,1.0937544)"
       gradientUnits="userSpaceOnUse"
       x1="220.30621"
       x2="54.439178"
       xlink:href="#a"
       y1="207.9187"
       y2="42.051666" /><linearGradient
       id="a"><stop
         offset="0"
         stop-color="#2a7fff"
         id="stop1" /><stop
         offset="1"
         stop-color="#0cf"
         id="stop2" /></linearGradient><linearGradient
       id="b"
       gradientUnits="userSpaceOnUse"
       x1="80.723297"
       x2="141.40515"
       y1="192.15627"
       y2="252.8381"
       gradientTransform="matrix(0.35834457,0,0,0.35834465,-68.444282,-52.034513)"><stop
         offset="0"
         stop-color="#0055d4"
         id="stop3" /><stop
         offset="1"
         stop-color="#06f"
         stop-opacity="0"
         id="stop4" /></linearGradient><linearGradient
       id="c"
       gradientUnits="userSpaceOnUse"
       x1="61.163261"
       x2="64.927658"
       y1="105.1096"
       y2="109.0449"
       gradientTransform="matrix(1.6295988,0,0,1.6659384,-141.52643,-164.47865)"><stop
         offset="0"
         stop-color="#e6e6e6"
         id="stop5" /><stop
         offset="1"
         stop-color="#b3b3b3"
         id="stop6-9" /></linearGradient><linearGradient
       id="d"
       gradientUnits="userSpaceOnUse"
       x1="77.166962"
       x2="64.371704"
       y1="115.71481"
       y2="112.00438"
       gradientTransform="matrix(1.6295988,0,0,1.6659384,-161.52643,-164.47865)"><stop
         offset="0"
         stop-color="#0cf"
         id="stop7" /><stop
         offset="1"
         stop-color="#2a7fff"
         id="stop8-1" /></linearGradient><linearGradient
       id="e"
       gradientUnits="userSpaceOnUse"
       x1="68.7071"
       x2="75.81916"
       xlink:href="#a"
       y1="113.06454"
       y2="117.91264"
       gradientTransform="matrix(1.6295988,0,0,1.6659384,-161.52643,-164.47865)" /><linearGradient
       id="g"
       gradientUnits="userSpaceOnUse"
       x1="77.401382"
       x2="68.670082"
       xlink:href="#f"
       y1="106.36805"
       y2="120.35797"
       gradientTransform="matrix(1.6295988,0,0,1.6659384,-161.52643,-164.47865)" /><linearGradient
       id="f"><stop
         offset="0"
         stop-color="#fff"
         id="stop11" /><stop
         offset="1"
         stop-color="#b3b3b3"
         id="stop12" /></linearGradient><linearGradient
       id="h"
       gradientUnits="userSpaceOnUse"
       x1="68.228661"
       x2="68.16433"
       y1="112.73174"
       y2="118.55463"
       gradientTransform="matrix(1.6295988,0,0,1.6659384,-141.52643,-164.47865)"><stop
         offset="0"
         stop-color="#b3b3b3"
         id="stop13" /><stop
         offset="1"
         stop-color="#fff"
         id="stop14" /></linearGradient><linearGradient
       id="i"
       gradientUnits="userSpaceOnUse"
       x1="63.36673"
       x2="71.135635"
       xlink:href="#f"
       y1="106.86487"
       y2="104.88973"
       gradientTransform="matrix(1.6295988,0,0,1.6659384,-161.52643,-164.47865)" /><linearGradient
       id="j"
       gradientUnits="userSpaceOnUse"
       x1="66.951469"
       x2="66.335762"
       y1="104.46095"
       y2="109.66759"
       gradientTransform="matrix(1.6295988,0,0,1.6659384,-141.52643,-164.47865)"><stop
         offset="0"
         stop-color="#ccc"
         id="stop19" /><stop
         offset="1"
         stop-color="#b3b3b3"
         id="stop20" /></linearGradient><linearGradient
       id="k"
       gradientUnits="userSpaceOnUse"
       x1="62.960659"
       x2="77.488457"
       y1="115.88342"
       y2="107.31376"
       gradientTransform="matrix(1.6295988,0,0,1.6659384,-141.52643,-164.47865)"><stop
         offset="0"
         stop-color="#e6e6e6"
         id="stop21" /><stop
         offset="1"
         stop-color="#fff"
         id="stop22" /></linearGradient><linearGradient
       x1="12"
       y1="1"
       x2="12"
       y2="12"
       gradientUnits="userSpaceOnUse"
       gradientTransform="translate(-98.000646,-16.000196)"
       spreadMethod="pad"
       id="linearGradient2"><stop
         style="stop-opacity:1;stop-color:#00ccff"
         offset="0"
         id="stop1-9" /><stop
         style="stop-opacity:1;stop-color:#2881ff"
         offset="1"
         id="stop2-3" /></linearGradient><linearGradient
       x1="61.163261"
       y1="105.1096"
       x2="64.927658"
       y2="109.0449"
       gradientUnits="userSpaceOnUse"
       gradientTransform="matrix(0.71732398,0,0,0.73331998,-135.28294,-87.933018)"
       spreadMethod="pad"
       id="linearGradient4"><stop
         style="stop-opacity:1;stop-color:#e6e6e6"
         offset="0"
         id="stop3-6" /><stop
         style="stop-opacity:1;stop-color:#b3b3b3"
         offset="1"
         id="stop4-0" /></linearGradient><linearGradient
       x1="77.401382"
       y1="106.36805"
       x2="68.670082"
       y2="120.35797"
       gradientUnits="userSpaceOnUse"
       gradientTransform="matrix(0.71732398,0,0,0.73331998,-135.28294,-87.933018)"
       spreadMethod="pad"
       id="linearGradient6"><stop
         style="stop-opacity:1;stop-color:#ffffff"
         offset="0"
         id="stop5-6" /><stop
         style="stop-opacity:1;stop-color:#b3b3b3"
         offset="1"
         id="stop6-2" /></linearGradient><linearGradient
       x1="68.228661"
       y1="112.73174"
       x2="68.16433"
       y2="118.55463"
       gradientUnits="userSpaceOnUse"
       gradientTransform="matrix(0.71732398,0,0,0.73331998,-135.28294,-87.933018)"
       spreadMethod="pad"
       id="linearGradient8"><stop
         style="stop-opacity:1;stop-color:#b3b3b3"
         offset="0"
         id="stop7-6" /><stop
         style="stop-opacity:1;stop-color:#ffffff"
         offset="1"
         id="stop8-18" /></linearGradient><linearGradient
       x1="63.36673"
       y1="106.86487"
       x2="71.135635"
       y2="104.88973"
       gradientUnits="userSpaceOnUse"
       gradientTransform="matrix(0.71732398,0,0,0.73331998,-135.28294,-87.933018)"
       spreadMethod="pad"
       id="linearGradient10-7"><stop
         style="stop-opacity:1;stop-color:#ffffff"
         offset="0"
         id="stop9" /><stop
         style="stop-opacity:1;stop-color:#b3b3b3"
         offset="1"
         id="stop10" /></linearGradient><linearGradient
       x1="66.951469"
       y1="104.46095"
       x2="66.335762"
       y2="109.66759"
       gradientUnits="userSpaceOnUse"
       gradientTransform="matrix(0.71732398,0,0,0.73331998,-135.28294,-87.933018)"
       spreadMethod="pad"
       id="linearGradient12-9"><stop
         style="stop-opacity:1;stop-color:#cccccc"
         offset="0"
         id="stop11-2" /><stop
         style="stop-opacity:1;stop-color:#b3b3b3"
         offset="1"
         id="stop12-0" /></linearGradient><linearGradient
       x1="62.960659"
       y1="115.88342"
       x2="77.488457"
       y2="107.31376"
       gradientUnits="userSpaceOnUse"
       gradientTransform="matrix(0.71732398,0,0,0.73331998,-135.28294,-87.933018)"
       spreadMethod="pad"
       id="linearGradient14-2"><stop
         style="stop-opacity:1;stop-color:#e6e6e6"
         offset="0"
         id="stop13-3" /><stop
         style="stop-opacity:1;stop-color:#ffffff"
         offset="1"
         id="stop14-7" /></linearGradient></defs><sodipodi:namedview
     id="namedview1"
     pagecolor="#ffffff"
     bordercolor="#000000"
     borderopacity="0.25"
     inkscape:showpageshadow="2"
     inkscape:pageopacity="0.0"
     inkscape:pagecheckerboard="0"
     inkscape:deskcolor="#d1d1d1"
     inkscape:zoom="8.9603687"
     inkscape:cx="-7.3099671"
     inkscape:cy="25.166375"
     inkscape:window-width="2560"
     inkscape:window-height="998"
     inkscape:window-x="0"
     inkscape:window-y="0"
     inkscape:window-maximized="1"
     inkscape:current-layer="svg1"><inkscape:page
       x="0"
       y="0"
       width="24"
       height="24"
       id="page1"
       margin="0"
       bleed="0" /></sodipodi:namedview><g
     id="g1"
     inkscape:groupmode="layer"
     inkscape:label="1"
     transform="translate(34)" /><g
     id="g2"
     transform="translate(98.000181,16.000176)"><path
       id="path2-9"
       d="m -88.4073,-14.885543 c 0.12,0 0.234667,-0.016 0.344,-0.04667 1.437333,-0.09467 2.874667,-0.08933 4.308,0.01067 1.301333,0.104 2.561333,0.385333 3.781333,0.848 2.025333,0.833333 3.410667,2.281333 4.161333,4.3386662 0.421334,1.2399999 0.676,2.5159999 0.754667,3.8226665 0.104,1.6466667 0.068,3.2866666 -0.114667,4.92799992 -0.14,1.15066664 -0.437333,2.25466658 -0.896,3.31733328 -0.849333,1.8439999 -2.229333,3.1146666 -4.134666,3.8119999 -1.542667,0.5213333 -3.130667,0.7973333 -4.766667,0.824 -1.833333,0.098667 -3.650666,-0.042667 -5.452,-0.412 -3.307999,-0.7346667 -5.354666,-2.7546666 -6.125333,-6.05733321 -0.328,-1.48399997 -0.48,-2.98933329 -0.448,-4.51066659 -0.036,-1.6146666 0.134667,-3.2133332 0.516,-4.7866665 0.812,-3.0826665 2.770667,-4.9946665 5.874667,-5.7333335 0.724,-0.177333 1.458666,-0.297333 2.197333,-0.354666 z"
       style="fill:url(#linearGradient2);fill-rule:evenodd;stroke:none;stroke-width:1.33333" /><path
       id="path4-2"
       d="m -88.349967,-7.3282102 c -0.568,-1.8906666 -3.790666,-1.432 -4.327999,-1.4746666 0.604,-0.296 1.150666,-0.5466667 2.395999,-1.4480002 2.401334,-1.738666 4.942667,-1.358666 6.213334,-0.670666 -3.478667,0.134666 -2.817334,2.0306662 -2.301334,3.0253328 -0.657333,0.1933333 -1.682666,0.48 -1.98,0.568 z"
       style="fill:url(#linearGradient4);stroke:none;stroke-width:1.33333" /><path
       id="path6-2"
       d="m -79.760633,-9.9322102 c -1.256,1.656 -3.338667,3.8906666 -5.614667,4.1866666 -2.281333,0.292 -4.453333,-0.030667 -4.958667,1.6666666 -0.464,1.5626667 1.166667,3.0213333 2.86,2.672 1.806667,-0.38 1.416,-2.4266666 0.426667,-3.8173333 0.749333,-0.046667 0.609333,-0.036 1.885333,-0.098667 1.896,1.6199999 2.525334,2.0773332 5.838667,4.43733319 -2.552,-0.26533329 -3.484,-0.51066669 -5.313333,-1.60933329 0.474666,1.192 1.490666,3.8959999 1.709333,5.9946665 -1.057333,-1.5213333 -1.458667,-2.0786666 -3.1,-3.17199991 -2.093333,-1.40133329 -3.796,-1.45333329 -4.776,-3.51599989 -0.984,-2.0666666 0.318667,-3.5519999 2.641333,-4.1919999 3.322667,-0.9226667 6.182667,-1.792 8.401334,-2.5519996 z"
       style="fill:url(#linearGradient6);stroke:none;stroke-width:1.33333" /><path
       id="path8-8"
       d="m -87.0473,-5.2242103 c 0.749333,-0.046667 0.609333,-0.036 1.885333,-0.098667 1.896,1.6199999 2.525334,2.0773332 5.838667,4.43733319 -3.328,-0.23999999 -5.849333,-1.21866659 -7.724,-4.33866619 z"
       style="fill:url(#linearGradient8);stroke:none;stroke-width:1.33333" /><path
       id="path10"
       d="m -92.677966,-8.8028768 c 0.604,-0.296 1.150666,-0.5466667 2.395999,-1.4480002 2.401334,-1.738666 4.942667,-1.358666 6.213334,-0.670666 -3.478667,0.134666 -3.030667,0.828 -3.041334,1.3693328 -2.312,-0.4839998 -2.989333,0.1773334 -5.567999,0.7493334 z"
       style="fill:url(#linearGradient10-7);stroke:none;stroke-width:1.33333" /><path
       id="path12"
       d="m -84.068633,-10.921543 c -3.478667,0.134666 -2.817334,2.0306662 -2.301334,3.0253328 -0.406666,0.12 -0.849333,0.256 -1.390666,0.396 -2.193334,-3.9013328 1.905333,-4.4066668 3.692,-3.4213328 z"
       style="fill:url(#linearGradient12-9);stroke:none;stroke-width:1.33333" /><path
       id="path14"
       d="m -90.177967,-2.218877 c -1.702666,-2.1933333 -1.390666,-4.2026666 1.948,-5.2453332 3.286667,-1.0306667 6.250667,-1.708 8.469334,-2.468 -5.989334,2.2813333 -13.485333,3.8066666 -10.417334,7.7133332 z"
       style="fill:url(#linearGradient14-2);stroke:none;stroke-width:1.33333" /></g></svg>
