<?xml version="1.0" encoding="UTF-8" standalone="no"?>
<svg
   width="24"
   height="24"
   viewBox="0 0 6.349875 6.349875"
   version="1.1"
   id="svg190"
   sodipodi:docname="tdevelop.svg"
   xml:space="preserve"
   inkscape:version="1.3 (0e150ed6c4, 2023-07-21)"
   inkscape:export-filename="qt-creator.pdf"
   inkscape:export-xdpi="96"
   inkscape:export-ydpi="96"
   xmlns:inkscape="http://www.inkscape.org/namespaces/inkscape"
   xmlns:sodipodi="http://sodipodi.sourceforge.net/DTD/sodipodi-0.dtd"
   xmlns="http://www.w3.org/2000/svg"
   xmlns:svg="http://www.w3.org/2000/svg"><defs
     id="defs194"><rect
       x="5.3268056"
       y="2.0367198"
       width="12.69033"
       height="15.980416"
       id="rect6368" /><linearGradient
       id="paint0_linear_3_286"
       x1="12"
       y1="1"
       x2="12"
       y2="12"
       gradientUnits="userSpaceOnUse"><stop
         stop-color="#EEA5FF"
         id="stop266" /><stop
         offset="1"
         stop-color="#A159B2"
         id="stop268" /></linearGradient><linearGradient
       x1="12"
       y1="1"
       x2="12"
       y2="23"
       gradientUnits="userSpaceOnUse"
       gradientTransform="matrix(0.75,0,0,0.75,-7.98374e-6,-2.49454e-5)"
       spreadMethod="pad"
       id="linearGradient38255-1"><stop
         style="stop-opacity:1;stop-color:#4a74d2"
         offset="0"
         id="stop38251-9" /><stop
         style="stop-opacity:1;stop-color:#375295"
         offset="1"
         id="stop38253-4" /></linearGradient><linearGradient
       id="paint0_linear_18_187"
       x1="12"
       y1="1"
       x2="12"
       y2="23"
       gradientUnits="userSpaceOnUse"
       gradientTransform="matrix(0.26457812,0,0,0.26457812,-2.8164292e-6,9.3778578e-6)"><stop
         stop-color="#33BEF0"
         id="stop43245"
         offset="0"
         style="stop-color:#ff5f5f;stop-opacity:1;" /><stop
         offset="1"
         stop-color="#0A85D9"
         id="stop43247"
         style="stop-color:#e82e34;stop-opacity:1;" /></linearGradient><linearGradient
       x1="12"
       y1="1"
       x2="12"
       y2="23"
       gradientUnits="userSpaceOnUse"
       gradientTransform="matrix(0.75,0,0,0.75,-7.98374e-6,2.65834e-5)"
       spreadMethod="pad"
       id="linearGradient44915"><stop
         style="stop-color:#31d931;stop-opacity:1;"
         offset="0"
         id="stop44911" /><stop
         style="stop-color:#d4f3d4;stop-opacity:1;"
         offset="1"
         id="stop44913" /></linearGradient><linearGradient
       id="paint0_linear_3_286-3"
       x1="12"
       y1="1"
       x2="12"
       y2="12"
       gradientUnits="userSpaceOnUse"><stop
         stop-color="#EEA5FF"
         id="stop266-6" /><stop
         offset="1"
         stop-color="#A159B2"
         id="stop268-7" /></linearGradient><radialGradient
       id="paint0_radial_4_408"
       cx="0"
       cy="0"
       r="1"
       gradientUnits="userSpaceOnUse"
       gradientTransform="matrix(0,5.8207186,-5.8207186,0,3.1749362,0.26458225)"><stop
         stop-color="#D6B1FF"
         id="stop3331"
         offset="0"
         style="stop-color:#cdf2cd;stop-opacity:1;" /><stop
         offset="1"
         stop-color="#A75DFA"
         id="stop3333"
         style="stop-color:#38d23a;stop-opacity:1;" /></radialGradient><radialGradient
       fx="0"
       fy="0"
       cx="0"
       cy="0"
       r="1"
       gradientUnits="userSpaceOnUse"
       gradientTransform="matrix(0,16.5,-16.5,0,8.999996,0.750012)"
       spreadMethod="pad"
       id="radialGradient3666"><stop
         style="stop-opacity:1;stop-color:#cdf2cd"
         offset="0"
         id="stop3662" /><stop
         style="stop-opacity:1;stop-color:#38d23a"
         offset="1"
         id="stop3664" /></radialGradient><radialGradient
       fx="0"
       fy="0"
       cx="0"
       cy="0"
       r="1"
       gradientUnits="userSpaceOnUse"
       gradientTransform="matrix(0,5.8207185,-5.8207185,0,3.1748164,0.26457312)"
       spreadMethod="pad"
       id="radialGradient3666-6"><stop
         style="stop-color:#7ecea5;stop-opacity:1;"
         offset="0"
         id="stop3662-7" /><stop
         style="stop-color:#2b6e49;stop-opacity:1;"
         offset="1"
         id="stop3664-5" /></radialGradient><rect
       x="5.3268056"
       y="2.0367198"
       width="12.69033"
       height="15.980416"
       id="rect6368-6" /><radialGradient
       id="paint0_radial_4_408-2"
       cx="0"
       cy="0"
       r="1"
       gradientUnits="userSpaceOnUse"
       gradientTransform="matrix(0,5.8207186,-5.8207186,0,3.1749362,0.26458225)"><stop
         stop-color="#D6B1FF"
         id="stop3331-7"
         offset="0"
         style="stop-color:#cdf2cd;stop-opacity:1;" /><stop
         offset="1"
         stop-color="#A75DFA"
         id="stop3333-0"
         style="stop-color:#38d23a;stop-opacity:1;" /></radialGradient><radialGradient
       fx="0"
       fy="0"
       cx="0"
       cy="0"
       r="1"
       gradientUnits="userSpaceOnUse"
       gradientTransform="matrix(0,16.5,-16.5,0,8.999996,0.750012)"
       spreadMethod="pad"
       id="radialGradient3666-9"><stop
         style="stop-opacity:1;stop-color:#cdf2cd"
         offset="0"
         id="stop3662-3" /><stop
         style="stop-opacity:1;stop-color:#38d23a"
         offset="1"
         id="stop3664-6" /></radialGradient><radialGradient
       fx="0"
       fy="0"
       cx="0"
       cy="0"
       r="1"
       gradientUnits="userSpaceOnUse"
       gradientTransform="matrix(0,16.5,-16.5,0,8.999996,0.750012)"
       spreadMethod="pad"
       id="radialGradient3666-6-0"><stop
         style="stop-opacity:1;stop-color:#cdf2cd"
         offset="0"
         id="stop3662-7-6" /><stop
         style="stop-opacity:1;stop-color:#38d23a"
         offset="1"
         id="stop3664-5-2" /></radialGradient></defs><sodipodi:namedview
     id="namedview192"
     pagecolor="#ffffff"
     bordercolor="#000000"
     borderopacity="0.25"
     inkscape:showpageshadow="2"
     inkscape:pageopacity="0.0"
     inkscape:pagecheckerboard="0"
     inkscape:deskcolor="#d1d1d1"
     showgrid="false"
     inkscape:zoom="9.02666"
     inkscape:cx="-9.7488994"
     inkscape:cy="18.445361"
     inkscape:window-width="2560"
     inkscape:window-height="998"
     inkscape:window-x="0"
     inkscape:window-y="0"
     inkscape:window-maximized="1"
     inkscape:current-layer="svg190" /><path
     d="m 2.5380664,0.29490717 c 0.031749,0 0.062088,-0.004233 0.091015,-0.012347 0.3802869,-0.0250467 0.7605739,-0.0236357 1.1398025,0.002822 C 4.1131882,0.31289827 4.4465567,0.38733294 4.769342,0.50974441 5.3052008,0.73022618 5.6717297,1.1133353 5.8703397,1.6576607 5.9818153,1.9857375 6.0491945,2.3233392 6.070008,2.6690546 6.097524,3.1047266 6.087999,3.5386347 6.03967,3.9728955 6.0026287,4.277337 5.9239608,4.5694312 5.8026076,4.8505895 5.5778926,5.3384716 5.2127748,5.6746622 4.7086653,5.8591613 4.3005095,5.9970947 3.8803594,6.0701183 3.4475096,6.0771737 2.9624497,6.1032787 2.4816231,6.065885 2.0050297,5.9681675 1.1298053,5.7737908 0.58830211,5.239343 0.38440058,4.3655297 0.29761896,3.9728957 0.25740308,3.5746175 0.26586958,3.172106 0.25634477,2.7449005 0.30149943,2.3219283 0.40239189,1.9056587 0.61722932,1.0900526 1.1354497,0.58417925 1.9567001,0.38874421 2.1482547,0.34182569 2.3426314,0.31007632 2.5380664,0.29490717 Z"
     style="fill:url(#radialGradient3666-6);fill-rule:evenodd;stroke:none;stroke-width:0.352683;stroke-dasharray:none"
     id="path3668" /><g
     id="g15180"
     transform="matrix(0.07349535,0,0,0.07349719,0.82325905,0.82305129)"><g
       transform="matrix(1.3505,0,0,1.3505,-0.413,-0.413)"
       color="#000000"
       stroke-linejoin="round"
       stroke-width="2.221"
       id="g15157"><circle
         transform="rotate(15)"
         cx="29.393999"
         cy="16.971001"
         r="15"
         fill="#c0c7c7"
         id="circle15153" /><path
         d="m 21.952,43.884 a 20,20 0 0 0 4.097,0.006 l 0.475,-3.1 a 17,17 0 0 0 3.687,-0.986 l 1.956,2.441 a 20,20 0 0 0 3.55,-2.053 L 34.58,37.28 a 17,17 0 0 0 2.71,-2.696 l 2.893,1.127 a 20,20 0 0 0 2.05,-3.553 l -2.422,-1.941 a 17,17 0 0 0 0.609,-1.818 17,17 0 0 0 0.37,-1.877 l 3.093,-0.475 a 20,20 0 0 0 0.006,-4.097 l -3.1,-0.475 a 17,17 0 0 0 -0.985,-3.687 l 2.44,-1.956 a 20,20 0 0 0 -2.053,-3.55 L 37.28,13.42 a 17,17 0 0 0 -2.695,-2.71 l 1.127,-2.893 a 20,20 0 0 0 -3.553,-2.05 l -1.94,2.422 A 17,17 0 0 0 28.399,7.58 17,17 0 0 0 26.522,7.211 L 26.049,4.117 A 20,20 0 0 0 21.952,4.111 l -0.477,3.1 A 17,17 0 0 0 17.788,8.197 L 15.832,5.757 A 20,20 0 0 0 12.283,7.81 l 1.135,2.911 a 17,17 0 0 0 -2.71,2.695 L 7.815,12.288 a 20,20 0 0 0 -2.05,3.554 l 2.422,1.94 a 17,17 0 0 0 -0.609,1.82 17,17 0 0 0 -0.369,1.876 L 4.115,21.953 A 20,20 0 0 0 4.109,26.05 l 3.1,0.475 a 17,17 0 0 0 0.986,3.687 l -2.441,1.956 a 20,20 0 0 0 2.053,3.55 l 2.911,-1.136 a 17,17 0 0 0 2.696,2.71 l -1.127,2.893 a 20,20 0 0 0 3.553,2.05 l 1.941,-2.422 a 17,17 0 0 0 1.818,0.609 17,17 0 0 0 1.877,0.369 z m -1.575,-6.36 a 14,14 0 0 1 -9.9,-17.147 14,14 0 0 1 17.146,-9.9 14,14 0 0 1 9.9,17.147 14,14 0 0 1 -17.146,9.9"
         fill="#d9dddd"
         id="path15155" /></g><g
       stroke-linecap="round"
       transform="matrix(-1.3044828,-0.34953512,0.34953512,-1.3044828,-0.41250829,-0.41310148)"
       color="#000000"
       stroke-linejoin="round"
       stroke-width="2.221"
       id="g15163"><circle
         cx="-29.393999"
         cy="-16.971001"
         r="13"
         fill="#377b52"
         id="circle15159" /><circle
         cx="-29.393999"
         cy="-16.971001"
         r="12"
         fill="#4abd7e"
         id="circle15161" /></g><path
       d="m 19.845,37.401 5.402,5.402 2.7,-8.103 z"
       fill="#ffffff"
       fill-rule="evenodd"
       id="path15165" /></g></svg>
