<?xml version="1.0" encoding="UTF-8" standalone="no"?>
<!-- Created with Inkscape (http://www.inkscape.org/) -->

<svg
   width="24"
   height="24"
   viewBox="0 0 6.35 6.35"
   version="1.1"
   id="svg5"
   xml:space="preserve"
   sodipodi:docname="kdiskmark.svg"
   inkscape:version="1.2.2 (b0a8486541, 2022-12-01)"
   xmlns:inkscape="http://www.inkscape.org/namespaces/inkscape"
   xmlns:sodipodi="http://sodipodi.sourceforge.net/DTD/sodipodi-0.dtd"
   xmlns:xlink="http://www.w3.org/1999/xlink"
   xmlns="http://www.w3.org/2000/svg"
   xmlns:svg="http://www.w3.org/2000/svg"><sodipodi:namedview
     id="namedview7"
     pagecolor="#ffffff"
     bordercolor="#000000"
     borderopacity="0.25"
     inkscape:showpageshadow="2"
     inkscape:pageopacity="0.0"
     inkscape:pagecheckerboard="0"
     inkscape:deskcolor="#d1d1d1"
     inkscape:document-units="mm"
     showgrid="false"
     inkscape:zoom="16"
     inkscape:cx="5.8125"
     inkscape:cy="15"
     inkscape:window-width="2560"
     inkscape:window-height="998"
     inkscape:window-x="1680"
     inkscape:window-y="0"
     inkscape:window-maximized="1"
     inkscape:current-layer="svg5" /><defs
     id="defs2"><linearGradient
       inkscape:collect="always"
       id="linearGradient23570"><stop
         style="stop-color:#fefefe;stop-opacity:1;"
         offset="0"
         id="stop23566" /><stop
         style="stop-color:#e6e6e6;stop-opacity:1"
         offset="1"
         id="stop23568" /></linearGradient><style
       type="text/css"
       id="current-color-scheme">
      .ColorScheme-Text {
        color:#31363b;
      }
      .ColorScheme-Background {
        color:#eff0f1;
      }
      .ColorScheme-Highlight {
        color:#3daee9;
      }
      .ColorScheme-ViewText {
        color:#31363b;
      }
      .ColorScheme-ViewBackground {
        color:#fcfcfc;
      }
      .ColorScheme-ViewHover {
        color:#93cee9;
      }
      .ColorScheme-ViewFocus{
        color:#3daee9;
      }
      .ColorScheme-ButtonText {
        color:#31363b;
      }
      .ColorScheme-ButtonBackground {
        color:#eff0f1;
      }
      .ColorScheme-ButtonHover {
        color:#93cee9;
      }
      .ColorScheme-ButtonFocus{
        color:#3daee9;
      }
      </style><style
       type="text/css"
       id="current-color-scheme-9">
      .ColorScheme-Text {
        color:#31363b;
      }
      .ColorScheme-Background {
        color:#eff0f1;
      }
      .ColorScheme-Highlight {
        color:#3daee9;
      }
      .ColorScheme-ViewText {
        color:#31363b;
      }
      .ColorScheme-ViewBackground {
        color:#fcfcfc;
      }
      .ColorScheme-ViewHover {
        color:#93cee9;
      }
      .ColorScheme-ViewFocus{
        color:#3daee9;
      }
      .ColorScheme-ButtonText {
        color:#31363b;
      }
      .ColorScheme-ButtonBackground {
        color:#eff0f1;
      }
      .ColorScheme-ButtonHover {
        color:#93cee9;
      }
      .ColorScheme-ButtonFocus{
        color:#3daee9;
      }
      </style><style
       type="text/css"
       id="current-color-scheme-2">
      .ColorScheme-Text {
        color:#31363b;
      }
      .ColorScheme-Background {
        color:#eff0f1;
      }
      .ColorScheme-Highlight {
        color:#3daee9;
      }
      .ColorScheme-ViewText {
        color:#31363b;
      }
      .ColorScheme-ViewBackground {
        color:#fcfcfc;
      }
      .ColorScheme-ViewHover {
        color:#93cee9;
      }
      .ColorScheme-ViewFocus{
        color:#3daee9;
      }
      .ColorScheme-ButtonText {
        color:#31363b;
      }
      .ColorScheme-ButtonBackground {
        color:#eff0f1;
      }
      .ColorScheme-ButtonHover {
        color:#93cee9;
      }
      .ColorScheme-ButtonFocus{
        color:#3daee9;
      }
      </style><style
       type="text/css"
       id="current-color-scheme-3">
      .ColorScheme-Text {
        color:#31363b;
      }
      .ColorScheme-Background {
        color:#eff0f1;
      }
      .ColorScheme-Highlight {
        color:#3daee9;
      }
      .ColorScheme-ViewText {
        color:#31363b;
      }
      .ColorScheme-ViewBackground {
        color:#fcfcfc;
      }
      .ColorScheme-ViewHover {
        color:#93cee9;
      }
      .ColorScheme-ViewFocus{
        color:#3daee9;
      }
      .ColorScheme-ButtonText {
        color:#31363b;
      }
      .ColorScheme-ButtonBackground {
        color:#eff0f1;
      }
      .ColorScheme-ButtonHover {
        color:#93cee9;
      }
      .ColorScheme-ButtonFocus{
        color:#3daee9;
      }
      </style><style
       type="text/css"
       id="current-color-scheme-97">
      .ColorScheme-Text {
        color:#31363b;
      }
      .ColorScheme-Background {
        color:#eff0f1;
      }
      .ColorScheme-Highlight {
        color:#3daee9;
      }
      .ColorScheme-ViewText {
        color:#31363b;
      }
      .ColorScheme-ViewBackground {
        color:#fcfcfc;
      }
      .ColorScheme-ViewHover {
        color:#93cee9;
      }
      .ColorScheme-ViewFocus{
        color:#3daee9;
      }
      .ColorScheme-ButtonText {
        color:#31363b;
      }
      .ColorScheme-ButtonBackground {
        color:#eff0f1;
      }
      .ColorScheme-ButtonHover {
        color:#93cee9;
      }
      .ColorScheme-ButtonFocus{
        color:#3daee9;
      }
      </style><style
       type="text/css"
       id="current-color-scheme-7">
      .ColorScheme-Text {
        color:#31363b;
      }
      .ColorScheme-Background {
        color:#eff0f1;
      }
      .ColorScheme-Highlight {
        color:#3daee9;
      }
      .ColorScheme-ViewText {
        color:#31363b;
      }
      .ColorScheme-ViewBackground {
        color:#fcfcfc;
      }
      .ColorScheme-ViewHover {
        color:#93cee9;
      }
      .ColorScheme-ViewFocus{
        color:#3daee9;
      }
      .ColorScheme-ButtonText {
        color:#31363b;
      }
      .ColorScheme-ButtonBackground {
        color:#eff0f1;
      }
      .ColorScheme-ButtonHover {
        color:#93cee9;
      }
      .ColorScheme-ButtonFocus{
        color:#3daee9;
      }
      </style><style
       type="text/css"
       id="current-color-scheme-9-0">
      .ColorScheme-Text {
        color:#31363b;
      }
      .ColorScheme-Background {
        color:#eff0f1;
      }
      .ColorScheme-Highlight {
        color:#3daee9;
      }
      .ColorScheme-ViewText {
        color:#31363b;
      }
      .ColorScheme-ViewBackground {
        color:#fcfcfc;
      }
      .ColorScheme-ViewHover {
        color:#93cee9;
      }
      .ColorScheme-ViewFocus{
        color:#3daee9;
      }
      .ColorScheme-ButtonText {
        color:#31363b;
      }
      .ColorScheme-ButtonBackground {
        color:#eff0f1;
      }
      .ColorScheme-ButtonHover {
        color:#93cee9;
      }
      .ColorScheme-ButtonFocus{
        color:#3daee9;
      }
      </style><style
       type="text/css"
       id="current-color-scheme-2-9">
      .ColorScheme-Text {
        color:#31363b;
      }
      .ColorScheme-Background {
        color:#eff0f1;
      }
      .ColorScheme-Highlight {
        color:#3daee9;
      }
      .ColorScheme-ViewText {
        color:#31363b;
      }
      .ColorScheme-ViewBackground {
        color:#fcfcfc;
      }
      .ColorScheme-ViewHover {
        color:#93cee9;
      }
      .ColorScheme-ViewFocus{
        color:#3daee9;
      }
      .ColorScheme-ButtonText {
        color:#31363b;
      }
      .ColorScheme-ButtonBackground {
        color:#eff0f1;
      }
      .ColorScheme-ButtonHover {
        color:#93cee9;
      }
      .ColorScheme-ButtonFocus{
        color:#3daee9;
      }
      </style><style
       type="text/css"
       id="current-color-scheme-3-3">
      .ColorScheme-Text {
        color:#31363b;
      }
      .ColorScheme-Background {
        color:#eff0f1;
      }
      .ColorScheme-Highlight {
        color:#3daee9;
      }
      .ColorScheme-ViewText {
        color:#31363b;
      }
      .ColorScheme-ViewBackground {
        color:#fcfcfc;
      }
      .ColorScheme-ViewHover {
        color:#93cee9;
      }
      .ColorScheme-ViewFocus{
        color:#3daee9;
      }
      .ColorScheme-ButtonText {
        color:#31363b;
      }
      .ColorScheme-ButtonBackground {
        color:#eff0f1;
      }
      .ColorScheme-ButtonHover {
        color:#93cee9;
      }
      .ColorScheme-ButtonFocus{
        color:#3daee9;
      }
      </style><style
       type="text/css"
       id="current-color-scheme-97-6">
      .ColorScheme-Text {
        color:#31363b;
      }
      .ColorScheme-Background {
        color:#eff0f1;
      }
      .ColorScheme-Highlight {
        color:#3daee9;
      }
      .ColorScheme-ViewText {
        color:#31363b;
      }
      .ColorScheme-ViewBackground {
        color:#fcfcfc;
      }
      .ColorScheme-ViewHover {
        color:#93cee9;
      }
      .ColorScheme-ViewFocus{
        color:#3daee9;
      }
      .ColorScheme-ButtonText {
        color:#31363b;
      }
      .ColorScheme-ButtonBackground {
        color:#eff0f1;
      }
      .ColorScheme-ButtonHover {
        color:#93cee9;
      }
      .ColorScheme-ButtonFocus{
        color:#3daee9;
      }
      </style><linearGradient
       inkscape:collect="always"
       xlink:href="#linearGradient23570"
       id="linearGradient23572"
       x1="247.6071"
       y1="852.94098"
       x2="254.18996"
       y2="-167.40173"
       gradientUnits="userSpaceOnUse" /><linearGradient
       inkscape:collect="always"
       xlink:href="#linearGradient23570"
       id="linearGradient23651"
       gradientUnits="userSpaceOnUse"
       x1="247.6071"
       y1="852.94098"
       x2="254.18996"
       y2="-167.40173" /><linearGradient
       inkscape:collect="always"
       xlink:href="#linearGradient23570"
       id="linearGradient23653"
       gradientUnits="userSpaceOnUse"
       x1="247.6071"
       y1="852.94098"
       x2="254.18996"
       y2="-167.40173" /><linearGradient
       inkscape:collect="always"
       xlink:href="#linearGradient23570"
       id="linearGradient23655"
       gradientUnits="userSpaceOnUse"
       x1="247.6071"
       y1="852.94098"
       x2="254.18996"
       y2="-167.40173" /></defs><g
     id="g244"
     transform="matrix(0.01304062,0,0,0.01304062,0.26457054,0.26458043)"
     style="fill:url(#linearGradient23572);fill-opacity:1"
     inkscape:export-filename="upscayl.svg"
     inkscape:export-xdpi="25.400002"
     inkscape:export-ydpi="25.400002"><g
       id="g246"
       style="fill:url(#linearGradient23655);fill-opacity:1"><g
         id="g252"
         style="fill:url(#linearGradient23653);fill-opacity:1"><path
           d="m 174.406,2.305 c 2.434,0.027 4.758,-0.285 6.973,-0.93 29.133,-1.906 58.258,-1.832 87.387,0.234 26.41,2.055 51.976,7.786 76.699,17.188 41.097,16.922 69.219,46.269 84.363,88.043 8.66,25.152 13.774,51.015 15.34,77.59 2.164,33.371 1.391,66.668 -2.324,99.89 -2.782,23.352 -8.824,45.805 -18.129,67.368 -17.258,37.382 -45.223,63.167 -83.899,77.355 -31.343,10.59 -63.57,16.164 -96.687,16.723 -37.246,1.937 -74.121,-0.848 -110.625,-8.36 C 66.312,422.438 24.867,381.477 9.164,314.52 2.496,284.375 -0.523,253.867 0.098,222.992 -0.645,190.16 2.84,157.793 10.559,125.891 27.02,63.285 66.762,24.488 129.785,9.508 144.469,5.914 159.344,3.516 174.406,2.305 Z"
           style="fill:url(#linearGradient23651);fill-opacity:1;fill-rule:evenodd;stroke:none"
           id="path260" /></g></g></g><g
     id="g4718"
     transform="translate(5.2833984,0.01240235)"><path
       id="path2883"
       style="opacity:1;fill:#42c3cf;fill-opacity:1;stroke-width:0.252557;stroke-linecap:round;stroke-linejoin:round;paint-order:stroke markers fill"
       d="m -2.1083985,1.694987 a 2.0835936,2.0835936 0 0 0 -2.0835937,2.0835937 2.0835936,2.0835936 0 0 0 0.1834513,0.8516276 h 3.80028483 A 2.0835936,2.0835936 0 0 0 -0.02480467,3.7785807 2.0835936,2.0835936 0 0 0 -2.1083985,1.694987 Z" /><rect
       style="opacity:1;fill:#ffffff;fill-opacity:1;stroke-width:0.329841;stroke-linecap:round;stroke-linejoin:round;paint-order:stroke markers fill"
       id="rect1120"
       width="0.21645874"
       height="1.2884449"
       x="0.93136901"
       y="3.1132548"
       rx="0.10822937"
       ry="0.10822937"
       transform="rotate(38.065925)" /><path
       id="path1174"
       style="opacity:1;fill:#ffffff;fill-opacity:1;stroke-width:0.330122;stroke-linecap:round;stroke-linejoin:round;paint-order:stroke markers fill"
       d="m -2.1214797,3.9098085 a 0.49695426,0.49695426 0 0 0 -0.4960937,0.4898926 h 0.1824178 a 0.31425047,0.31425047 0 0 1 0.3136759,-0.306958 0.31425047,0.31425047 0 0 1 0.313676,0.306958 h 0.1834513 A 0.49695426,0.49695426 0 0 0 -2.1214797,3.9098085 Z" /><path
       id="path1915"
       style="opacity:1;fill:#ffffff;fill-opacity:1;stroke-width:0.216198;stroke-linecap:round;stroke-linejoin:round;paint-order:stroke markers fill"
       d="m -2.1197673,2.1456055 a 1.6457955,1.6457955 0 0 0 -1.6458944,1.6458943 1.6457955,1.6457955 0 0 0 5.168e-4,0.013953 h -0.00103 l 0.00103,0.012919 c 0.00433,0.053431 0.050957,0.093213 0.1043864,0.088883 0.052203,-0.00423 0.090655,-0.04889 0.088367,-0.100769 a 1.4528602,1.4528602 0 0 1 0,-0.0031 1.4528602,1.4528602 0 0 1 -5.168e-4,-0.011886 1.4528602,1.4528602 0 0 1 1.4531413,-1.4531412 1.4528602,1.4528602 0 0 1 1.45262453,1.4531412 1.4528602,1.4528602 0 0 1 -5.167e-4,0.014986 c -0.002209,0.051817 0.0367293,0.096547 0.0888834,0.100769 0.05343,0.00433 0.1000604,-0.035453 0.1043864,-0.088883 l 0.001033,-0.012919 h -0.001033 a 1.6457955,1.6457955 0 0 0 0,-5.168e-4 1.6457955,1.6457955 0 0 0 0,-5.168e-4 1.6457955,1.6457955 0 0 0 0,-5.167e-4 1.6457955,1.6457955 0 0 0 0,-5.168e-4 1.6457955,1.6457955 0 0 0 0,-5.167e-4 1.6457955,1.6457955 0 0 0 0,-5.168e-4 1.6457955,1.6457955 0 0 0 0,-5.168e-4 1.6457955,1.6457955 0 0 0 0,-5.167e-4 1.6457955,1.6457955 0 0 0 0,-5.168e-4 1.6457955,1.6457955 0 0 0 0,-5.168e-4 1.6457955,1.6457955 0 0 0 0,-5.167e-4 1.6457955,1.6457955 0 0 0 0,-5.168e-4 1.6457955,1.6457955 0 0 0 0,-5.168e-4 1.6457955,1.6457955 0 0 0 0,-5.167e-4 1.6457955,1.6457955 0 0 0 0,-5.168e-4 1.6457955,1.6457955 0 0 0 0,-5.168e-4 1.6457955,1.6457955 0 0 0 0,-5.167e-4 1.6457955,1.6457955 0 0 0 0,-5.168e-4 1.6457955,1.6457955 0 0 0 0,-5.167e-4 1.6457955,1.6457955 0 0 0 0,-5.168e-4 1.6457955,1.6457955 0 0 0 0,-5.168e-4 1.6457955,1.6457955 0 0 0 0,-5.167e-4 1.6457955,1.6457955 0 0 0 0,-5.168e-4 1.6457955,1.6457955 0 0 0 0,-5.168e-4 1.6457955,1.6457955 0 0 0 0,-5.167e-4 1.6457955,1.6457955 0 0 0 0,-5.168e-4 1.6457955,1.6457955 0 0 0 0,-5.168e-4 1.6457955,1.6457955 0 0 0 -1.64537793,-1.6458946 z" /></g></svg>
