<?xml version="1.0" encoding="UTF-8" standalone="no"?>
<svg
   width="24"
   height="24"
   version="1.1"
   id="svg7"
   sodipodi:docname="kipi-expoblending.svg"
   inkscape:version="1.3 (0e150ed6c4, 2023-07-21)"
   xmlns:inkscape="http://www.inkscape.org/namespaces/inkscape"
   xmlns:sodipodi="http://sodipodi.sourceforge.net/DTD/sodipodi-0.dtd"
   xmlns:xlink="http://www.w3.org/1999/xlink"
   xmlns="http://www.w3.org/2000/svg"
   xmlns:svg="http://www.w3.org/2000/svg"
   xmlns:sketch="http://www.bohemiancoding.com/sketch/ns">
  <sodipodi:namedview
     id="namedview7"
     pagecolor="#ffffff"
     bordercolor="#000000"
     borderopacity="0.25"
     inkscape:showpageshadow="2"
     inkscape:pageopacity="0.0"
     inkscape:pagecheckerboard="0"
     inkscape:deskcolor="#d1d1d1"
     inkscape:zoom="3.1679688"
     inkscape:cx="56.976572"
     inkscape:cy="82.229346"
     inkscape:window-width="2560"
     inkscape:window-height="998"
     inkscape:window-x="0"
     inkscape:window-y="0"
     inkscape:window-maximized="1"
     inkscape:current-layer="svg7" />
  <defs
     id="defs1">
    <path
       id="a"
       d="m 410.57,528.8 -1.996,-10 h 12 z"
       fill="#feb70d"
       stroke-linejoin="bevel" />
  </defs>
  <path
     d="M 12,0.99999995 C 1.9999999,0.99999995 0.99999995,5.9999999 0.99999995,12 0.99999995,20 4,22.999999 12,22.999999 20,22.999999 22.999999,20 22.999999,12 22.999999,5.9999999 22,0.99999995 12,0.99999995 Z"
     sketch:type="MSShapeGroup"
     id="path6-6"
     style="font-variation-settings:normal;display:inline;vector-effect:none;fill:#d2d8db;fill-opacity:1;stroke-width:1.11627;stroke-linecap:butt;stroke-linejoin:miter;stroke-miterlimit:4;stroke-dasharray:none;stroke-dashoffset:0;stroke-opacity:1;-inkscape-stroke:none;stop-color:#000000"
     sodipodi:nodetypes="sssss"
     inkscape:label="Shape" />
  <path
     d="M 12,1.9750004 C 2.886364,1.9750004 1.9750004,6.5318182 1.9750004,12 1.9750004,19.290909 4.7090912,22.024999 12,22.024999 19.290909,22.024999 22.024999,19.290909 22.024999,12 22.024999,6.5318182 21.113636,1.9750004 12,1.9750004 Z"
     sketch:type="MSShapeGroup"
     id="path45683"
     style="font-variation-settings:normal;display:inline;vector-effect:none;fill:#35383b;fill-opacity:1;stroke-width:1.01733;stroke-linecap:butt;stroke-linejoin:miter;stroke-miterlimit:4;stroke-dasharray:none;stroke-dashoffset:0;stroke-opacity:1;-inkscape-stroke:none;stop-color:#000000"
     sodipodi:nodetypes="sssss"
     inkscape:label="Shape" />
  <g
     transform="matrix(0.46435205,0,0,0.46435205,-177.72125,-233.54936)"
     id="g12"
     style="stroke-width:2.74081">
    <g
       transform="translate(-14,9.999)"
       id="g8"
       style="stroke-width:2.74081">
      <path
         d="m 410.57,528.8 4.14,-5.64 5.86,-4.36 2,10 z"
         fill="#6af804"
         fill-rule="evenodd"
         id="path8"
         style="stroke-width:2.74081" />
      <use
         width="100%"
         height="100%"
         xlink:href="#a"
         id="use8"
         style="stroke-width:2.74081" />
    </g>
    <path
       d="m 396.58,538.8 -2,-10 h 12 l 1.994,10 z"
       fill="#ffffff"
       fill-opacity="0.353"
       id="path9"
       style="stroke-width:2.74081" />
    <g
       transform="translate(-7,4.999)"
       id="g10"
       style="stroke-width:2.74081">
      <path
         d="m 410.57,528.8 3.751,-6.06 6.249,-3.936 2,10 z"
         fill="#6af804"
         fill-rule="evenodd"
         id="path10"
         style="stroke-width:2.74081" />
      <use
         width="100%"
         height="100%"
         xlink:href="#a"
         id="use10"
         style="stroke-width:2.74081" />
    </g>
    <path
       d="m 410.57,528.8 4.627,-5.577 5.373,-4.423 2,10 z"
       fill="#6af804"
       fill-rule="evenodd"
       id="path11"
       style="stroke-width:2.74081" />
    <use
       width="100%"
       height="100%"
       xlink:href="#a"
       id="use11"
       style="stroke-width:2.74081" />
    <path
       d="m 410.57,528.8 -1.996,-10 h 12 l 1.994,10 z"
       fill-opacity="0.353"
       id="path12"
       style="stroke-width:2.74081" />
  </g>
</svg>
