<?xml version="1.0" encoding="UTF-8" standalone="no"?>
<svg
   width="24"
   height="24"
   version="1.1"
   id="svg4"
   sodipodi:docname="kipi-dngconverter.svg"
   inkscape:version="1.3 (0e150ed6c4, 2023-07-21)"
   xmlns:inkscape="http://www.inkscape.org/namespaces/inkscape"
   xmlns:sodipodi="http://sodipodi.sourceforge.net/DTD/sodipodi-0.dtd"
   xmlns="http://www.w3.org/2000/svg"
   xmlns:svg="http://www.w3.org/2000/svg"
   xmlns:sketch="http://www.bohemiancoding.com/sketch/ns">
  <defs
     id="defs4" />
  <sodipodi:namedview
     id="namedview4"
     pagecolor="#ffffff"
     bordercolor="#000000"
     borderopacity="0.25"
     inkscape:showpageshadow="2"
     inkscape:pageopacity="0.0"
     inkscape:pagecheckerboard="0"
     inkscape:deskcolor="#d1d1d1"
     inkscape:zoom="4.4801844"
     inkscape:cx="18.860831"
     inkscape:cy="53.680826"
     inkscape:window-width="2560"
     inkscape:window-height="998"
     inkscape:window-x="0"
     inkscape:window-y="0"
     inkscape:window-maximized="1"
     inkscape:current-layer="svg4" />
  <path
     d="M 12,0.99999995 C 1.9999999,0.99999995 0.99999995,5.9999999 0.99999995,12 0.99999995,20 4,22.999999 12,22.999999 20,22.999999 22.999999,20 22.999999,12 22.999999,5.9999999 22,0.99999995 12,0.99999995 Z"
     sketch:type="MSShapeGroup"
     id="path6-6"
     style="font-variation-settings:normal;display:inline;vector-effect:none;fill:#d2d8db;fill-opacity:1;stroke-width:1.11627;stroke-linecap:butt;stroke-linejoin:miter;stroke-miterlimit:4;stroke-dasharray:none;stroke-dashoffset:0;stroke-opacity:1;-inkscape-stroke:none;stop-color:#000000"
     sodipodi:nodetypes="sssss"
     inkscape:label="Shape" />
  <path
     d="M 12,1.9750004 C 2.886364,1.9750004 1.9750004,6.5318182 1.9750004,12 1.9750004,19.290909 4.7090912,22.024999 12,22.024999 19.290909,22.024999 22.024999,19.290909 22.024999,12 22.024999,6.5318182 21.113636,1.9750004 12,1.9750004 Z"
     sketch:type="MSShapeGroup"
     id="path45683"
     style="font-variation-settings:normal;display:inline;vector-effect:none;fill:#35383b;fill-opacity:1;stroke-width:1.01733;stroke-linecap:butt;stroke-linejoin:miter;stroke-miterlimit:4;stroke-dasharray:none;stroke-dashoffset:0;stroke-opacity:1;-inkscape-stroke:none;stop-color:#000000"
     sodipodi:nodetypes="sssss"
     inkscape:label="Shape" />
  <g
     id="g7"
     transform="matrix(0.43333333,0,0,0.43333333,-10.524666,-1.8597332)"
     style="stroke-width:2.30769">
    <g
       stroke-linejoin="bevel"
       id="g6"
       transform="translate(20)"
       style="stroke-width:2.30769">
      <path
         d="M 16.982,19.984 H 46.98 v 24 h -30 z"
         fill="#f73e59"
         id="path5"
         style="stroke-width:2.30769" />
      <path
         d="m 19.273,21.804 v 1.273 h 25.454 v -1.273 z m -0.005,3.818 V 38.35 h 1.272 c 3.818,0 5.091,-2.543 5.091,-6.343 0,-3.83 -1.273,-6.389 -5.09,-6.389 z m 8.909,0 v 0.003 h -0.003 l 0.003,0.007 V 38.35 h 1.272 v -9.532 l 3.81,9.535 h 1.273 V 38.35 h 0.003 V 25.622 h -1.273 v 9.55 l -3.76,-9.411 -0.053,-0.139 z m 16.542,0 c -3.818,0 -7.631,1.273 -7.631,6.324 0,5.13 2.54,6.402 6.358,6.402 h 1.273 v -6.364 h -2.54 v 1.273 h 1.267 v 3.818 c -3.818,0 -5.085,-1.273 -5.085,-5.051 0,-3.856 2.54,-5.13 6.358,-5.13 z M 20.54,26.895 c 3.818,0 3.818,3.818 3.818,5.09 0,1.272 0,5.091 -3.818,5.091 z m -1.267,14 v 1.272 h 25.454 v -1.272 z"
         fill="#ffffff"
         id="path6"
         style="stroke-width:2.30769" />
    </g>
  </g>
</svg>
