<?xml version="1.0" encoding="UTF-8" standalone="no"?>
<svg
   width="24"
   height="24"
   version="1.1"
   id="svg6"
   sodipodi:docname="kmag.svg"
   inkscape:version="1.3 (0e150ed6c4, 2023-07-21)"
   xmlns:inkscape="http://www.inkscape.org/namespaces/inkscape"
   xmlns:sodipodi="http://sodipodi.sourceforge.net/DTD/sodipodi-0.dtd"
   xmlns="http://www.w3.org/2000/svg"
   xmlns:svg="http://www.w3.org/2000/svg">
  <sodipodi:namedview
     id="namedview6"
     pagecolor="#ffffff"
     bordercolor="#000000"
     borderopacity="0.25"
     inkscape:showpageshadow="2"
     inkscape:pageopacity="0.0"
     inkscape:pagecheckerboard="0"
     inkscape:deskcolor="#d1d1d1"
     inkscape:zoom="6.3359375"
     inkscape:cx="35.906289"
     inkscape:cy="1.8150432"
     inkscape:window-width="2560"
     inkscape:window-height="998"
     inkscape:window-x="0"
     inkscape:window-y="0"
     inkscape:window-maximized="1"
     inkscape:current-layer="svg6" />
  <defs
     id="defs2">
    <linearGradient
       id="a"
       x1="48"
       x2="48"
       y1="60"
       y2="31"
       gradientUnits="userSpaceOnUse"
       gradientTransform="translate(40)">
      <stop
         offset="0"
         id="stop1" />
      <stop
         stop-opacity="0"
         offset="1"
         id="stop2" />
    </linearGradient>
    <radialGradient
       fx="0"
       fy="0"
       cx="0"
       cy="0"
       r="1"
       gradientUnits="userSpaceOnUse"
       gradientTransform="matrix(0,21.999999,-21.999999,0,11.999082,0.99994493)"
       spreadMethod="pad"
       id="radialGradient868-3">
      <stop
         style="stop-color:#ffffff;stop-opacity:1;"
         offset="0"
         id="stop864-6" />
      <stop
         style="stop-color:#eceff1;stop-opacity:1;"
         offset="1"
         id="stop866-7" />
    </radialGradient>
  </defs>
  <circle
     cx="95"
     cy="47"
     fill="#37474f"
     id="circle4"
     r="0" />
  <circle
     transform="scale(-1,1)"
     cx="-87"
     cy="39"
     fill="#eceff1"
     id="circle5"
     r="0" />
  <circle
     transform="scale(-1,1)"
     cx="-87"
     cy="39"
     fill="#d0eaf6"
     id="circle6"
     r="0" />
  <path
     d="m 9.5928808,1.1146316 c 0.12,0 0.2346667,-0.016 0.344,-0.046667 1.4373332,-0.0946666 2.8746662,-0.0893333 4.3080002,0.010667 1.301333,0.104 2.561333,0.3853333 3.781333,0.848 2.025333,0.8333333 3.410667,2.2813333 4.161333,4.3386665 0.421334,1.24 0.676,2.516 0.754667,3.8226669 0.104,1.646666 0.068,3.286666 -0.114667,4.928 -0.14,1.150666 -0.437333,2.254666 -0.896,3.317333 -0.849333,1.844 -2.229333,3.114666 -4.134666,3.812 -1.542667,0.521333 -3.130667,0.797333 -4.766667,0.824 -1.833333,0.09867 -3.6506665,-0.04267 -5.4519998,-0.412 C 4.2702143,21.822631 2.2235477,19.802631 1.452881,16.499965 1.124881,15.015965 0.97288105,13.510631 1.0048811,11.989298 0.96888105,10.374631 1.1395477,8.7759647 1.520881,7.2026314 2.332881,4.1199649 4.2915476,2.2079649 7.3955476,1.4692983 8.1195475,1.2919649 8.8542142,1.1719649 9.5928808,1.1146316 Z"
     style="fill:url(#radialGradient868-3);fill-rule:evenodd;stroke:none;stroke-width:1.33333"
     id="path870" />
  <g
     id="g12"
     transform="translate(0.217016,-0.15942447)">
    <g
       id="g9"
       transform="matrix(0.36585366,0,0,0.36585366,7.541713,1.2122419)"
       style="stroke-width:2.73333">
      <path
         d="m -4,12 v 2 h 9 v -2 z m 0,4 v 2 h 22 v -2 z m 0,6 v 2 h 31 v -2 z m 0,4 v 2 h 31 v -2 z m 0,4 v 2 h 31 v -2 z m 0,6 v 2 h 31 v -2 z m 0,4 v 2 h 31 v -2 z m 0,4 v 2 h 15 v -2 z m 24,7 v 2 h 7 v -2 z"
         fill="#90a4ae"
         id="path7"
         style="stroke-width:2.73333" />
      <path
         d="M 27,29 A 10,10 0 0 0 17,39 10,10 0 0 0 27,49 h 7 c 1.662,0 3,-1.338 3,-3 V 39 A 10,10 0 0 0 27,29 Z"
         fill="#546e7a"
         id="path8"
         style="stroke-width:2.73333" />
      <path
         d="m 22.111,34 a 7,7 0 0 0 -2.033,4 H 29 v -4 h -6.89 z m -2.031,6 a 7,7 0 0 0 2.023,4 H 29 v -4 z"
         fill="#8ab1c3"
         id="path9"
         style="stroke-width:2.73333" />
    </g>
  </g>
</svg>
