<?xml version="1.0" encoding="UTF-8" standalone="no"?>
<svg
   width="24"
   height="24"
   image-rendering="optimizeSpeed"
   version="1.1"
   id="svg63860"
   sodipodi:docname="yast-network_services.svg"
   xml:space="preserve"
   inkscape:version="1.2.2 (b0a8486541, 2022-12-01)"
   xmlns:inkscape="http://www.inkscape.org/namespaces/inkscape"
   xmlns:sodipodi="http://sodipodi.sourceforge.net/DTD/sodipodi-0.dtd"
   xmlns:xlink="http://www.w3.org/1999/xlink"
   xmlns="http://www.w3.org/2000/svg"
   xmlns:svg="http://www.w3.org/2000/svg"><sodipodi:namedview
     id="namedview63862"
     pagecolor="#ffffff"
     bordercolor="#000000"
     borderopacity="0.25"
     inkscape:showpageshadow="2"
     inkscape:pageopacity="0.0"
     inkscape:pagecheckerboard="0"
     inkscape:deskcolor="#d1d1d1"
     showgrid="false"
     inkscape:zoom="22.627417"
     inkscape:cx="8.5736697"
     inkscape:cy="22.715805"
     inkscape:window-width="2560"
     inkscape:window-height="998"
     inkscape:window-x="1680"
     inkscape:window-y="0"
     inkscape:window-maximized="1"
     inkscape:current-layer="svg63860" /><defs
     id="defs63850"><linearGradient
       id="a"
       x1="399.57001"
       x2="399.57001"
       y1="545.79999"
       y2="517.79999"
       gradientUnits="userSpaceOnUse"><stop
         stop-color="#3889e9"
         offset="0"
         id="stop63843" /><stop
         stop-color="#5ea5fb"
         offset="1"
         id="stop63845" /></linearGradient><linearGradient
       id="b"
       x1="399.57001"
       x2="399.57001"
       y1="545.79999"
       y2="517.79999"
       gradientTransform="matrix(1.94,0,0,1.9415,-745.24,-1000.7)"
       gradientUnits="userSpaceOnUse"
       xlink:href="#a" /><linearGradient
       id="c"
       x1="399.57001"
       x2="399.57001"
       y1="545.79999"
       y2="517.79999"
       gradientTransform="matrix(3.1769,0,0,3.1794,-1323.6,-1658.8)"
       gradientUnits="userSpaceOnUse"
       xlink:href="#a" /><radialGradient
       id="paint0_radial_0_1"
       cx="0"
       cy="0"
       r="1"
       gradientUnits="userSpaceOnUse"
       gradientTransform="matrix(0,11,-11,0,-28.000005,1.0000143)"><stop
         stop-color="#6EBBF7"
         id="stop322" /><stop
         offset="1"
         stop-color="#2196F3"
         id="stop324" /></radialGradient><radialGradient
       id="paint0_radial_2_164"
       cx="0"
       cy="0"
       r="1"
       gradientUnits="userSpaceOnUse"
       gradientTransform="matrix(0,22,-22,0,12,1.00004)"><stop
         stop-color="#C5FFFE"
         id="stop64008" /><stop
         offset="1"
         stop-color="#00FFFF"
         id="stop64010" /></radialGradient><radialGradient
       id="paint1_radial_2_164"
       cx="0"
       cy="0"
       r="1"
       gradientUnits="userSpaceOnUse"
       gradientTransform="matrix(3.8397244e-5,22,-22,3.8397244e-5,12,1)"><stop
         stop-color="#58C6E3"
         id="stop64013" /><stop
         offset="1"
         stop-color="#034DB0"
         id="stop64015" /></radialGradient></defs><g
     style="fill:none"
     id="g64032"
     transform="translate(-2.6102511e-5,1.443742e-5)"><path
       fill-rule="evenodd"
       clip-rule="evenodd"
       d="M 9.59606,1.11363 C 9.7159,1.1149 9.83045,1.09964 9.9397,1.06782 c 1.4358,-0.094077 2.8714,-0.09026 4.307,0.01134 1.3017,0.1014 2.5618,0.38383 3.7802,0.84725 2.0256,0.83395 3.4117,2.2804 4.1581,4.33936 0.4269,1.23964 0.6789,2.51437 0.7561,3.82413 0.1067,1.6447 0.0685,3.2858 -0.1146,4.9233 -0.137,1.1509 -0.4349,2.2577 -0.8935,3.3203 -0.8506,1.8425 -2.229,3.1134 -4.1352,3.8127 -1.5447,0.5219 -3.1331,0.7967 -4.7653,0.8243 C 11.1966,23.0662 9.37915,22.9288 7.57999,22.5586 4.2684,21.8209 2.22559,19.8019 1.45159,16.5018 1.1231,15.0162 0.974206,13.5125 1.00484,11.9907 0.968173,10.3724 1.13999,8.77714 1.52032,7.20475 2.33171,4.11912 4.2905,2.20705 7.3967,1.46856 8.12049,1.2916 8.85361,1.17331 9.59606,1.11363 Z"
       fill="url(#paint0_radial_2_164)"
       id="path64004"
       style="fill:url(#paint0_radial_2_164)" /><path
       fill-rule="evenodd"
       clip-rule="evenodd"
       d="m 19.4474,21.3116 v -0.1918 l -7e-4,0.1923 c -0.0407,0.0275 -0.0817,0.0545 -0.1231,0.0812 -0.4048,-0.0524 -0.8089,-0.0994 -1.2131,-0.1447 l -1.3251,-0.2018 c -0.2855,-0.0457 -0.5689,-0.1012 -0.8522,-0.1567 -0.1538,-0.0302 -0.3075,-0.0603 -0.4615,-0.0888 -0.1643,-0.0289 -0.3267,-0.0674 -0.4892,-0.1058 -0.054,-0.0128 -0.108,-0.0255 -0.1621,-0.038 l -0.65,-0.1505 -0.3242,-0.0765 -0.3197,-0.0915 c -0.2142,-0.0606 -0.4278,-0.1207 -0.6422,-0.1772 l -0.3207,-0.0882 c -0.0777,-0.0229 -0.1548,-0.048 -0.2319,-0.073 -0.0286,-0.0093 -0.0571,-0.0185 -0.0857,-0.0277 l -0.6326,-0.2054 -0.0125,-0.004 C 11.3947,19.698 11.1867,19.6318 10.9856,19.5523 l -0.6205,-0.2259 c -0.2583,-0.0885 -0.51562,-0.1937 -0.77314,-0.3015 4.2e-4,-0.008 9.6e-4,-0.016 0.0015,-0.024 0.00116,-0.0174 0.00234,-0.035 0.00234,-0.0525 0,-0.114 -0.0198,-0.2244 -0.0534,-0.3287 0.04416,-0.0268 0.0894,-0.0544 0.13404,-0.0811 0.17358,-0.1007 0.35026,-0.202 0.52926,-0.3045 0.0804,-0.0461 0.1613,-0.0925 0.2426,-0.1392 0.149,-0.0865 0.303,-0.1666 0.4582,-0.2472 0.1174,-0.0611 0.2355,-0.1225 0.3526,-0.1873 0.2291,-0.1282 0.4668,-0.2447 0.7067,-0.3622 0.0444,-0.0218 0.0889,-0.0436 0.1334,-0.0655 0.0481,-0.0236 0.0965,-0.0473 0.1449,-0.0711 0.094,-0.0462 0.1884,-0.0927 0.2825,-0.1384 0.0473,-0.0213 0.0946,-0.0426 0.1419,-0.0638 0.0986,-0.0443 0.1972,-0.0886 0.2958,-0.1334 0.1062,-0.0463 0.2117,-0.0946 0.3172,-0.1429 0.1871,-0.0857 0.3744,-0.1715 0.5663,-0.2463 0.1053,-0.0426 0.2105,-0.0865 0.3156,-0.1305 0.1916,-0.08 0.3833,-0.1601 0.577,-0.2321 0.1142,-0.0423 0.2283,-0.084 0.3421,-0.1256 0.1845,-0.0675 0.3684,-0.1348 0.5512,-0.204 0.0438,-0.0154 0.0877,-0.0304 0.133,-0.0457 0.1867,0.2783 0.5042,0.4601 0.8647,0.4601 0.16,0 0.3115,-0.037 0.4471,-0.1017 0.0971,0.1156 0.1935,0.2311 0.2871,0.345 0.1076,0.1203 0.2006,0.2446 0.292,0.3673 0.1819,0.239 0.3562,0.4702 0.5243,0.6931 l 0.0113,0.0149 c 0.0856,0.1131 0.1703,0.2244 0.2522,0.3333 0.0522,0.0689 0.1001,0.1393 0.1473,0.2088 0.0274,0.0403 0.0545,0.0802 0.0822,0.1194 0.0715,0.1044 0.141,0.2064 0.2085,0.3057 0.0717,0.1053 0.1413,0.2075 0.2088,0.3059 0.0576,0.086 0.115,0.1688 0.1707,0.249 0.0696,0.1004 0.1364,0.1968 0.1975,0.2907 0.0638,0.1035 0.124,0.2017 0.1811,0.2947 0.0375,0.0612 0.0737,0.1201 0.1085,0.1767 0.1116,0.1829 0.2101,0.3389 0.2914,0.4677 0.0461,0.073 0.0867,0.1373 0.121,0.1927 0.0273,0.0435 0.0509,0.0811 0.0707,0.1127 0.0297,0.0473 0.0509,0.0811 0.0634,0.1009 -0.2634,0.2465 -0.5465,0.4717 -0.8491,0.6758 z M 18.1325,1.97069 c 1.9683,0.8404 3.3192,2.27209 4.0525,4.29508 0.4269,1.23964 0.6789,2.51437 0.7561,3.82413 0.0633,0.9751 0.0756,1.949 0.037,2.9215 -0.1026,0.0513 -0.1957,0.1191 -0.2757,0.2 -0.0105,-0.0095 -0.021,-0.0191 -0.0315,-0.0287 -0.0195,-0.0179 -0.039,-0.0357 -0.0588,-0.0531 L 22.3169,12.861 22.0351,12.5771 21.4662,12.0179 C 21.4347,11.9863 21.4027,11.9552 21.3706,11.9241 21.3074,11.8627 21.2442,11.8014 21.185,11.7359 L 20.9138,11.4442 20.3693,10.864 C 20.2471,10.7401 20.1348,10.6074 20.0226,10.4749 19.9637,10.4052 19.9047,10.3355 19.8444,10.2672 L 19.324,9.66588 19.1946,9.5154 19.0728,9.3588 18.8297,9.04608 18.3344,8.42364 C 18.2609,8.33579 18.1943,8.24164 18.1276,8.14748 18.1179,8.13373 18.1082,8.11998 18.0984,8.10624 L 17.8681,7.7832 C 17.8079,7.7 17.7484,7.61635 17.6889,7.53275 17.5949,7.40063 17.5009,7.26862 17.4044,7.13868 17.3043,6.99889 17.2111,6.855 17.1178,6.71092 17.0675,6.63324 17.0171,6.5555 16.9656,6.47832 L 16.5301,5.81484 16.2241,5.30748 c 0.1854,-0.189 0.2997,-0.44628 0.2997,-0.73128 0,-0.24444 -0.0843,-0.46776 -0.2244,-0.645 l 0.6325,-0.71064 c 0.148,-0.15321 0.294,-0.30984 0.4403,-0.4667 C 17.4516,2.6688 17.5309,2.58368 17.6107,2.499 17.7855,2.32407 17.9595,2.14806 18.1325,1.97069 Z M 18.0941,1.95441 C 18.0718,1.945 18.0494,1.93567 18.0269,1.92641 16.8085,1.46299 15.5484,1.18056 14.2467,1.07916 14.1559,1.07273 14.0652,1.0667 13.9744,1.06105 l 0.0679,0.15203 c 0.0682,0.14365 0.1376,0.28644 0.2068,0.42902 0.1082,0.22282 0.2162,0.44512 0.3194,0.66934 0.0588,0.11427 0.1183,0.22838 0.1777,0.34246 0.1278,0.24534 0.2555,0.49055 0.3772,0.73694 0.0325,0.05952 0.0646,0.11808 0.0982,0.17616 0.0824,-0.021 0.1692,-0.03336 0.2598,-0.03336 0.212,0 0.4101,0.06372 0.5745,0.17256 l 0.7077,-0.65688 c 0.1711,-0.14958 0.3445,-0.29631 0.5176,-0.44279 0.0807,-0.06821 0.1612,-0.13637 0.2414,-0.20473 0.189,-0.15041 0.3801,-0.29947 0.5715,-0.44739 z m -4.2995,-0.90402 0.0649,0.22989 c 0.0387,0.11313 0.0771,0.22662 0.1156,0.34025 0.0929,0.27474 0.1861,0.55036 0.2852,0.82387 0.0386,0.09505 0.0769,0.19022 0.1152,0.28541 0.115,0.28544 0.2301,0.57113 0.3509,0.85459 l 0.089,0.18996 c -0.2305,0.19104 -0.376,0.47964 -0.376,0.8016 0,0.2352 0.078,0.45096 0.2089,0.62448 -0.0222,0.02531 -0.0446,0.05055 -0.0669,0.07578 -0.0393,0.04439 -0.0785,0.08873 -0.117,0.13326 C 14.2272,5.66482 14.0142,5.93869 13.801,6.21277 13.7484,6.2804 13.6958,6.34805 13.6428,6.41544 13.5097,6.58596 13.3763,6.75744 13.2455,6.93 13.2229,6.96052 13.1999,6.99052 13.1769,7.0205 13.134,7.07634 13.0913,7.13208 13.0514,7.19088 l -0.1824,0.26856 -0.7266,1.08 C 12.0633,8.65815 11.9926,8.78198 11.9219,8.9058 11.885,8.97049 11.8481,9.03517 11.8099,9.09912 L 11.6966,9.29484 C 11.633,9.28308 11.5682,9.27636 11.5015,9.27636 c -0.2357,0 -0.4535,0.07968 -0.6288,0.21312 C 10.7569,9.40836 10.6409,9.32724 10.523,9.25224 10.3631,9.15156 10.2034,9.05136 10.0452,8.95332 10.0125,8.93315 9.97982,8.91298 9.94721,8.89285 9.66268,8.71715 9.3821,8.54388 9.09108,8.391 8.98334,8.33248 8.87652,8.27314 8.77033,8.21414 8.56145,8.0981 8.35501,7.98342 8.14872,7.87896 8.10067,7.8546 8.05286,7.83187 8.00452,7.80889 7.99286,7.80335 7.98117,7.7978 7.96944,7.7922 7.98336,7.72392 7.99152,7.65192 7.99152,7.57908 7.99152,7.43424 7.96128,7.29612 7.90812,7.17132 L 8.02296,7.06452 C 8.09443,6.99925 8.16213,6.92976 8.22991,6.86021 8.26193,6.82735 8.29398,6.79446 8.32644,6.762 8.47772,6.60991 8.62851,6.45747 8.77873,6.30562 8.82727,6.25656 8.87575,6.20755 8.92416,6.15864 9.04372,6.02822 9.1603,5.89599 9.27591,5.76485 9.34422,5.68738 9.41219,5.61028 9.48024,5.53416 9.52975,5.47857 9.57868,5.42298 9.6274,5.36761 9.66913,5.3202 9.71071,5.27294 9.7524,5.226 9.8382,5.12076 9.924,5.016 10.0087,4.91328 10.1789,4.7058 10.342,4.49988 10.5022,4.29708 10.6003,4.16709 10.6948,4.0369 10.7876,3.90887 10.8415,3.83456 10.8949,3.76097 10.9482,3.68856 11.1827,3.37939 11.3836,3.0663 11.5727,2.77155 11.6223,2.69426 11.6711,2.61824 11.7194,2.54388 11.8872,2.29711 12.0265,2.05123 12.1553,1.8237 c 0.0556,-0.0981 0.1092,-0.19279 0.1623,-0.28266 0.0156,-0.02729 0.031,-0.05422 0.0462,-0.08082 0.0691,-0.12056 0.1341,-0.23425 0.1899,-0.34278 0.0193,-0.0381 0.0381,-0.07536 0.0565,-0.11174 0.3948,0.0075 0.7896,0.0224 1.1844,0.04469 z m 9.0547,13.75181 c -0.0073,0.0704 -0.0149,0.1407 -0.0228,0.211 -0.137,1.1509 -0.4349,2.2577 -0.8935,3.3203 -0.4175,0.9045 -0.9622,1.6712 -1.6341,2.3002 -0.0164,-0.0359 -0.0522,-0.1123 -0.1061,-0.2264 -0.0257,-0.0537 -0.0549,-0.1159 -0.0879,-0.1861 -0.0666,-0.1418 -0.1484,-0.3161 -0.2471,-0.5184 -0.0741,-0.1514 -0.1552,-0.3194 -0.2433,-0.5027 -0.0649,-0.1284 -0.1404,-0.2609 -0.2196,-0.4 C 19.3625,18.7434 19.3296,18.6856 19.2965,18.6265 19.2219,18.4972 19.1454,18.3624 19.0662,18.2229 19.0205,18.1424 18.974,18.0603 18.9264,17.977 18.9022,17.936 18.8788,17.894 18.8553,17.8517 18.8133,17.7764 18.7707,17.7 18.7216,17.6256 18.6455,17.5096 18.5675,17.3921 18.4872,17.2714 18.4119,17.1588 18.3362,17.0429 18.2591,16.925 18.0123,16.5474 17.7513,16.1482 17.4464,15.7651 17.5886,15.587 17.674,15.362 17.674,15.1166 v -0.0081 c 0.1052,-0.0308 0.2097,-0.0616 0.3134,-0.0921 0.0951,-0.028 0.1895,-0.0558 0.283,-0.0831 0.1884,-0.0487 0.3753,-0.0912 0.5591,-0.133 0.0915,-0.0208 0.1823,-0.0415 0.2721,-0.0626 0.2711,-0.0617 0.5341,-0.1253 0.7872,-0.187 0.1588,-0.0371 0.3153,-0.0642 0.468,-0.0907 0.0927,-0.0161 0.184,-0.0319 0.2736,-0.0496 0.239,-0.041 0.4686,-0.0831 0.6853,-0.1257 0.0134,-0.0026 0.0268,-0.0051 0.0402,-0.0077 0.2028,-0.0388 0.396,-0.0757 0.5818,-0.0955 0.1701,-0.021 0.3278,-0.0415 0.4785,-0.0627 0.047,0.2823 0.2075,0.5264 0.4331,0.6834 z m -3.5559,6.6104 c -0.456,0.2906 -0.9545,0.5352 -1.4956,0.7336 -1.5447,0.5219 -3.1331,0.7967 -4.7653,0.8243 -1.6254,0.0847 -3.23636,-0.0133 -4.83297,-0.2938 0.02041,-0.1992 0.04116,-0.398 0.06535,-0.5962 l 0.08448,-0.6373 0.0408,-0.3184 0.05088,-0.3158 c 0.01401,-0.0842 0.02776,-0.1682 0.04151,-0.2522 0.0309,-0.1887 0.06178,-0.3774 0.09541,-0.5664 0.306,-0.007 0.58044,-0.1462 0.76584,-0.363 0.25836,0.1056 0.51888,0.209 0.791,0.2978 0.108,0.0372 0.2157,0.0755 0.3234,0.1138 0.3214,0.1144 0.6429,0.2288 0.971,0.3149 l 0.6531,0.1879 c 0.0441,0.0121 0.088,0.0248 0.1319,0.0376 0.0645,0.0187 0.1289,0.0375 0.1937,0.0539 l 0.3313,0.0786 c 0.2203,0.0524 0.4403,0.1032 0.6606,0.152 l 0.3313,0.0739 0.3333,0.0606 0.6687,0.1156 c 0.2224,0.0406 0.445,0.0785 0.6697,0.0996 l 0.6729,0.0775 c 0.075,0.0074 0.1498,0.0165 0.2246,0.0257 0.1491,0.0182 0.2981,0.0364 0.4486,0.0406 l 0.6756,0.0369 c 0.0696,0.0032 0.1391,0.0074 0.2086,0.0115 0.1547,0.0092 0.3096,0.0184 0.4653,0.0173 0.399,0 0.7978,-0.0023 1.195,-0.0105 z M 8.10653,22.6602 C 7.93084,22.6285 7.75532,22.5946 7.57999,22.5586 6.67579,22.3571 5.86619,22.0602 5.15117,21.6677 5.27084,21.5771 5.47031,21.424 5.73324,21.2173 5.76055,21.1957 5.78872,21.1735 5.81759,21.1508 5.84759,21.1271 5.87833,21.1029 5.90964,21.0781 5.973,21.0319 6.04008,20.9831 6.10992,20.9333 6.19961,20.8665 6.29483,20.796 6.39475,20.722 6.44696,20.6833 6.50046,20.6437 6.55512,20.6032 6.60859,20.5629 6.66378,20.5221 6.72025,20.4804 6.74667,20.4609 6.77336,20.4412 6.80028,20.4212 l 8.7e-4,-6e-4 C 6.8868,20.3608 6.97483,20.2993 7.06596,20.2369 7.24524,20.1097 7.4352,19.976 7.63344,19.8374 c 0.06468,-0.0452 0.132,-0.0903 0.20028,-0.1345 0.10884,0.1032 0.23976,0.1833 0.38436,0.2331 -0.00156,0.0142 -0.00317,0.0285 -0.00478,0.0428 -0.00559,0.0495 -0.01119,0.0991 -0.01454,0.1493 l -0.04572,0.6475 -0.02256,0.3235 -0.01176,0.324 -0.01512,0.6466 c -0.00318,0.1967 -0.00124,0.3936 0.00293,0.5905 z M 5.12649,21.6541 C 5.22892,21.546 5.40506,21.3618 5.64516,21.1166 5.78825,20.9632 5.96577,20.8003 6.16491,20.6176 6.23848,20.55 6.31501,20.4798 6.39384,20.4064 6.59958,20.2055 6.84137,20.0051 7.10097,19.79 7.20235,19.706 7.30644,19.6198 7.41216,19.5304 7.45106,19.4978 7.49117,19.4662 7.53133,19.4345 7.55536,19.4155 7.5794,19.3965 7.6032,19.3774 7.54416,19.2463 7.51068,19.1016 7.51068,18.9486 7.51068,18.907 7.5138,18.8654 7.5186,18.8249 7.2534,18.6999 6.99455,18.5622 6.73586,18.4245 6.63192,18.3692 6.52801,18.3139 6.42372,18.2594 L 6.1236,18.0986 C 6.06119,18.0631 6.00009,18.0259 5.93889,17.9887 5.9037,17.9672 5.86848,17.9458 5.83296,17.9246 L 5.25108,17.5739 4.96044,17.3977 4.67904,17.2087 C 4.54888,17.1236 4.42086,17.036 4.29317,16.9487 4.23451,16.9085 4.17591,16.8685 4.1172,16.8287 3.93625,16.7087 3.7629,16.5785 3.59007,16.4486 L 3.567,16.4312 3.02544,16.0235 C 2.89613,15.9288 2.77309,15.8244 2.65029,15.7202 2.60067,15.6781 2.5511,15.6361 2.50116,15.5947 L 1.98204,15.1603 C 1.87073,15.0669 1.76466,14.9662 1.65893,14.8659 1.60076,14.8107 1.5427,14.7555 1.48392,14.7018 1.43477,14.6555 1.38555,14.6094 1.33636,14.5633 1.258,14.49 1.17972,14.4166 1.10195,14.3428 c 0.07489,0.7238 0.19144,1.4435 0.34964,2.159 0.56023,2.3886 1.78521,4.1061 3.6749,5.1523 z M 1.07502,14.0622 c 0.01502,0.0118 0.03007,0.0234 0.04518,0.035 0.15901,0.1165 0.3156,0.2352 0.47197,0.3538 0.19884,0.1507 0.39733,0.3012 0.59999,0.4464 l 0.54636,0.3862 c 0.05987,0.0411 0.11913,0.0833 0.17843,0.1255 0.12194,0.0869 0.24404,0.1738 0.37201,0.252 l 0.55716,0.3672 c 0.01872,0.0124 0.03742,0.0248 0.05611,0.0371 0.16651,0.1104 0.33267,0.2205 0.50669,0.3198 0.06208,0.0374 0.12427,0.0746 0.18647,0.1119 0.12813,0.0766 0.25629,0.1533 0.38353,0.2321 l 0.28392,0.1736 0.28968,0.1623 0.58164,0.3235 c 0.03573,0.0194 0.07134,0.0393 0.10696,0.0593 0.06142,0.0344 0.12287,0.0689 0.185,0.1004 L 6.723,17.6988 c 0.10175,0.0516 0.20303,0.1039 0.30428,0.1562 0.25366,0.131 0.50709,0.2619 0.76696,0.3804 0.17868,-0.1899 0.42768,-0.3127 0.70716,-0.3266 0.04263,-0.2379 0.09226,-0.4744 0.14198,-0.7114 0.01887,-0.0899 0.03775,-0.1798 0.05626,-0.27 0.05604,-0.3039 0.1357,-0.6026 0.21539,-0.9015 0.03207,-0.1203 0.06415,-0.2406 0.09469,-0.3612 0.03586,-0.1481 0.08051,-0.2931 0.12527,-0.4384 0.01905,-0.0618 0.03811,-0.1237 0.05653,-0.186 l 0.18996,-0.6224 c 0.1392,-0.4098 0.28164,-0.8201 0.4368,-1.2258 l 0.24332,-0.6034 0.0092,-0.0229 c 0.0778,-0.1941 0.1553,-0.3877 0.2458,-0.5784 0.0442,-0.097 0.088,-0.1947 0.1318,-0.2926 0.0985,-0.22 0.1972,-0.4406 0.3017,-0.6538 -0.1798,-0.188 -0.2909,-0.4418 -0.2909,-0.7221 0,-0.1063 0.0162,-0.2095 0.0462,-0.3066 C 10.3955,9.93324 10.2848,9.85464 10.1729,9.7812 10.0767,9.72001 9.9815,9.65882 9.88668,9.59785 9.82716,9.55958 9.76778,9.5214 9.70836,9.48336 9.64223,9.44046 9.57647,9.39737 9.51093,9.35441 9.27214,9.19791 9.03618,9.04326 8.79504,8.90664 8.68149,8.84064 8.56991,8.7738 8.45906,8.7074 8.2706,8.59451 8.08424,8.48288 7.89384,8.37876 7.83384,8.34588 7.77624,8.31456 7.7166,8.28228 7.52664,8.49072 7.2534,8.62176 6.94896,8.62176 6.75744,8.62176 6.57924,8.56992 6.42468,8.47944 5.98248,8.82708 5.54244,9.17112 5.09952,9.46848 4.71705,9.74846 4.32649,9.99224 3.9534,10.2251 3.90496,10.2554 3.85683,10.2854 3.80904,10.3153 3.69726,10.3795 3.58774,10.4437 3.48005,10.5068 3.17685,10.6844 2.88813,10.8535 2.60424,10.991 2.49915,11.0452 2.39663,11.0978 2.29663,11.1492 2.21564,11.1907 2.1363,11.2315 2.0586,11.2715 c -0.11136,0.0577 -0.22291,0.107 -0.32999,0.1543 -0.05886,0.026 -0.11636,0.0514 -0.17173,0.0773 -0.2023,0.0926 -0.38747,0.1766 -0.55595,0.2476 7.9e-4,0.0799 0.00209,0.1599 0.00391,0.24 -0.013978,0.6942 0.00942,1.3848 0.07018,2.0715 z M 1.00005,11.5221 C 1.00333,10.0643 1.17674,8.62517 1.52032,7.20475 1.6568,6.68574 1.82574,6.19993 2.02715,5.74732 2.19557,5.81002 2.45729,5.906 2.79912,6.0276 2.82839,6.0382 2.8583,6.04891 2.88881,6.05983 3.0223,6.1076 3.16709,6.15942 3.318,6.22428 3.43307,6.27089 3.55445,6.31964 3.68119,6.37055 3.75971,6.40209 3.84028,6.43445 3.92268,6.46764 4.23588,6.58597 4.57063,6.73592 4.92931,6.8966 5.06715,6.95834 5.20852,7.02167 5.35356,7.0854 5.54042,7.16214 5.72569,7.25546 5.91661,7.35163 l 0.01391,0.00701 c -0.0162,0.0708 -0.02436,0.14484 -0.02436,0.22032 0,0.13092 0.0252,0.25572 0.0696,0.37176 C 5.87943,8.02956 5.78333,8.10797 5.6877,8.186 5.574,8.27877 5.46097,8.37099 5.349,8.46276 5.20165,8.5892 5.04759,8.70798 4.89541,8.82531 4.83803,8.86956 4.78091,8.9136 4.72452,8.95776 4.69295,8.98209 4.66149,9.00642 4.6301,9.0307 4.45544,9.16577 4.28304,9.2991 4.10676,9.42096 3.90444,9.57132 3.70512,9.71832 3.51156,9.861 3.38476,9.9481 3.26101,10.0335 3.13984,10.1171 3.0702,10.1652 3.00142,10.2127 2.9334,10.2595 2.88619,10.2923 2.84001,10.3249 2.79428,10.3572 2.749,10.3893 2.70416,10.421 2.6592,10.4521 c -0.05405,0.0355 -0.10723,0.0705 -0.15987,0.1053 -0.03665,0.0241 -0.07304,0.0481 -0.10929,0.072 -0.08572,0.0561 -0.16966,0.1114 -0.25183,0.1655 -0.25554,0.1683 -0.49396,0.3253 -0.71561,0.461 -0.11569,0.0712 -0.22481,0.1406 -0.32774,0.206 -0.0322,0.0205 -0.0638,0.0406 -0.09481,0.0602 z M 2.04154,5.71515 C 3.04033,3.49541 4.82538,2.07988 7.3967,1.46856 8.12049,1.2916 8.85361,1.17331 9.59606,1.11363 9.7159,1.1149 9.83045,1.09964 9.9397,1.06782 10.7587,1.01416 11.5776,0.992346 12.3965,1.00237 12.393,1.00727 12.3895,1.01218 12.386,1.01712 12.3404,1.07773 12.2932,1.14086 12.2442,1.20637 12.1968,1.26966 12.1478,1.33517 12.097,1.4028 12.04,1.4782 11.9819,1.55654 11.9219,1.63733 c -0.1582,0.213 -0.329,0.44295 -0.5224,0.68047 -0.1307,0.16584 -0.266,0.33732 -0.4075,0.51552 -0.0349,0.04416 -0.0707,0.08928 -0.1063,0.13404 -0.0198,0.02362 -0.0398,0.04697 -0.0599,0.0705 -0.018,0.02094 -0.036,0.04201 -0.0541,0.06354 -0.075,0.0888 -0.1515,0.18024 -0.228,0.27216 -0.0631,0.07405 -0.1261,0.14952 -0.1897,0.22566 -0.0943,0.1129 -0.1899,0.22729 -0.2886,0.34074 l -0.0296,0.0323 C 9.87478,4.14849 9.70995,4.32885 9.54756,4.51464 L 9.28332,4.80996 C 9.24422,4.8509 9.2047,4.89185 9.16507,4.93291 9.11178,4.98813 9.05827,5.04357 9.00528,5.09952 8.92466,5.18307 8.84361,5.2668 8.76225,5.35084 8.65408,5.46257 8.54538,5.57486 8.43648,5.688 8.24064,5.88012 8.0424,6.07476 7.84416,6.27084 7.80635,6.30694 7.76936,6.34367 7.73237,6.3804 7.67087,6.44148 7.6094,6.50252 7.54428,6.56052 L 7.43676,6.6576 C 7.29192,6.58008 7.12476,6.53592 6.9492,6.53592 6.6072,6.53592 6.30468,6.70068 6.11472,6.95544 5.9088,6.86868 5.70696,6.78756 5.50512,6.71928 5.23296,6.6222 4.97268,6.52932 4.72464,6.43992 4.54778,6.37353 4.37173,6.32253 4.20348,6.27379 4.13725,6.2546 4.07223,6.23577 4.00884,6.21648 3.91119,6.18819 3.8164,6.16024 3.72446,6.13313 3.39091,6.03478 3.09501,5.94753 2.83716,5.8956 2.48733,5.81355 2.21715,5.75339 2.04154,5.71515 Z M 15.3305,14.0936 c 0.1221,0.1331 0.2433,0.265 0.3641,0.3959 0.012,0.014 0.025,0.0275 0.0379,0.0409 0.0076,0.0079 0.0152,0.0157 0.0225,0.0237 -0.1042,0.1623 -0.1659,0.3549 -0.1659,0.5624 0,0.0037 3e-4,0.0076 6e-4,0.0116 4e-4,0.0042 7e-4,0.0084 7e-4,0.0125 -0.0242,0.0074 -0.0481,0.0145 -0.0721,0.0216 -0.0212,0.0063 -0.0423,0.0125 -0.0637,0.019 -0.2032,0.0694 -0.4059,0.1419 -0.6096,0.2149 -0.1051,0.0376 -0.2104,0.0753 -0.3161,0.1127 -0.1982,0.0712 -0.3925,0.1498 -0.5867,0.2283 -0.1101,0.0446 -0.2201,0.0891 -0.3307,0.1322 -0.2641,0.1013 -0.5208,0.218 -0.776,0.3339 -0.0425,0.0194 -0.085,0.0387 -0.1275,0.0579 -0.0658,0.0305 -0.1313,0.0608 -0.1967,0.091 -0.0832,0.0385 -0.166,0.0768 -0.2483,0.115 -0.1459,0.0744 -0.2907,0.1474 -0.436,0.2202 -0.5813,0.2851 -1.1339,0.6015 -1.6634,0.9162 -0.1605,0.1008 -0.31966,0.2001 -0.47694,0.2981 -0.09831,0.0613 -0.19588,0.1222 -0.29258,0.1826 -0.02643,0.0177 -0.0524,0.0353 -0.07854,0.053 C 9.29528,18.1509 9.27491,18.1647 9.25416,18.1787 9.17664,18.1078 9.0888,18.0482 8.99124,18.003 9.04764,17.7628 9.1112,17.5235 9.17477,17.2842 9.19479,17.2089 9.2148,17.1335 9.2346,17.0581 L 9.31548,16.7496 9.4092,16.445 9.58992,15.8345 C 9.62852,15.6918 9.67683,15.5519 9.72497,15.4125 9.74598,15.3516 9.76696,15.2909 9.78708,15.23 L 9.99204,14.6262 10.2168,14.031 c 0.0295,-0.0761 0.0575,-0.1525 0.0855,-0.2289 0.045,-0.1227 0.0899,-0.2452 0.1407,-0.3657 l 0.2442,-0.5875 c 0.0106,-0.0254 0.0211,-0.0508 0.0317,-0.0762 0.0706,-0.1705 0.1413,-0.3407 0.2213,-0.5052 0.0564,-0.1196 0.1115,-0.2392 0.1667,-0.3589 0.0854,-0.1853 0.1708,-0.3707 0.2613,-0.5562 0.0444,0.0056 0.0888,0.0092 0.1332,0.0092 0.2147,0 0.4139,-0.0653 0.5808,-0.1762 0.0563,0.0437 0.1129,0.0872 0.1696,0.1307 0.0633,0.0486 0.1266,0.0972 0.1896,0.1462 l 0.227,0.1761 c 0.0461,0.0371 0.0895,0.0753 0.1331,0.1135 0.0269,0.0237 0.0539,0.0474 0.0816,0.0709 0.1039,0.0914 0.2089,0.1827 0.3135,0.2736 0.0372,0.0323 0.0742,0.0645 0.1112,0.0967 l 0.0093,0.0081 c 0.1384,0.1215 0.2753,0.2415 0.4138,0.3616 0.0106,0.0092 0.0212,0.0185 0.0319,0.0277 0.1306,0.1133 0.2603,0.2258 0.3816,0.3492 0.2034,0.1965 0.4059,0.3918 0.6064,0.5852 0.0642,0.0619 0.1281,0.1236 0.1918,0.1851 0.0658,0.0637 0.1318,0.1274 0.1971,0.1901 0.066,0.0625 0.1307,0.1262 0.1908,0.1935 z m 1.3015,-0.0199 c -0.1661,0 -0.3212,0.0395 -0.4603,0.1078 -0.0115,-0.0127 -0.0222,-0.0254 -0.033,-0.0381 -0.0089,-0.0105 -0.0178,-0.0211 -0.0273,-0.0318 -0.0628,-0.0726 -0.1259,-0.1451 -0.1892,-0.2178 -0.057,-0.0655 -0.1141,-0.1311 -0.1712,-0.197 -0.0591,-0.0703 -0.1235,-0.137 -0.189,-0.2028 -0.0414,-0.0419 -0.0827,-0.0844 -0.1239,-0.1269 -0.0235,-0.0241 -0.047,-0.0483 -0.0704,-0.0723 -0.1697,-0.1728 -0.3405,-0.3475 -0.5122,-0.5231 -0.0932,-0.0954 -0.1867,-0.191 -0.2804,-0.2868 -0.1012,-0.1088 -0.2137,-0.2083 -0.3266,-0.3082 -0.0314,-0.0277 -0.0628,-0.0555 -0.094,-0.0836 -0.1237,-0.1096 -0.2471,-0.2192 -0.3708,-0.3292 L 13.7201,11.7074 C 13.6664,11.6598 13.6126,11.612 13.5588,11.5642 13.4676,11.4829 13.3761,11.4016 13.2844,11.3208 13.2563,11.2964 13.2286,11.2715 13.2008,11.2466 13.156,11.2064 13.1113,11.1663 13.0654,11.1282 L 12.8396,10.95 c -0.0995,-0.0774 -0.1981,-0.1555 -0.2972,-0.2341 -0.0199,-0.0157 -0.0398,-0.0315 -0.0598,-0.0473 0.0396,-0.1088 0.0615,-0.2269 0.0615,-0.3502 0,-0.2654 -0.0994,-0.50564 -0.2629,-0.69008 0.1377,-0.25068 0.277,-0.49968 0.4203,-0.74616 L 13.3787,7.80372 13.5479,7.5336 c 0.0383,-0.06073 0.0805,-0.11902 0.123,-0.17755 0.02,-0.02763 0.04,-0.05531 0.0597,-0.08333 0.1239,-0.17244 0.2458,-0.34656 0.3672,-0.52116 0.0447,-0.06386 0.0891,-0.128 0.1335,-0.19219 0.1974,-0.28519 0.3954,-0.57126 0.6183,-0.83789 0.0323,-0.04074 0.0645,-0.08195 0.0966,-0.12317 0.0234,-0.03005 0.0469,-0.06009 0.0704,-0.08995 0.1402,0.06984 0.2978,0.1104 0.4647,0.1104 0.0879,0 0.1722,-0.01188 0.2537,-0.03288 0.0151,0.02781 0.0302,0.05565 0.0453,0.08348 0.0818,0.15103 0.1637,0.30213 0.25,0.44956 l 0.4347,0.68352 c 0.0491,0.07627 0.0974,0.15295 0.1457,0.22959 0.0958,0.15196 0.1915,0.30375 0.293,0.45189 0.0979,0.13835 0.1984,0.27504 0.299,0.41204 0.0593,0.08069 0.1186,0.16149 0.1776,0.2428 l 0.2395,0.32664 0.0086,0.01185 c 0.0758,0.10496 0.1521,0.21065 0.2372,0.31011 l 0.5118,0.62652 0.2598,0.31068 0.1307,0.15408 0.1376,0.14846 0.5508,0.5931 c 0.0225,0.0241 0.045,0.0481 0.0675,0.0722 0.1615,0.1729 0.3231,0.3459 0.4989,0.5046 l 0.5873,0.5551 0.2942,0.2768 c 0.0642,0.0599 0.1323,0.1156 0.2001,0.1712 0.0363,0.0297 0.0725,0.0594 0.108,0.0896 l 0.6211,0.5156 0.313,0.2537 0.3253,0.2382 c 0.0337,0.0246 0.0673,0.0487 0.1022,0.0734 -0.1088,0.1634 -0.1728,0.359 -0.174,0.5711 -0.1505,0.0035 -0.3102,0.0082 -0.4807,0.0149 -0.174,0.0023 -0.3575,0.0203 -0.5508,0.0393 -0.027,0.0027 -0.0543,0.0053 -0.0817,0.008 -0.2224,0.02 -0.4576,0.0446 -0.702,0.0714 -0.0845,0.0099 -0.1705,0.0184 -0.2577,0.0271 -0.1652,0.0165 -0.3347,0.0333 -0.5064,0.0606 -0.0552,0.0094 -0.1109,0.0188 -0.167,0.0283 -0.2086,0.0352 -0.4233,0.0715 -0.641,0.1103 -0.1044,0.0194 -0.2102,0.0379 -0.3171,0.0566 -0.1768,0.0309 -0.3563,0.0622 -0.5369,0.099 -0.0414,0.01 -0.0831,0.02 -0.1249,0.03 -0.1627,0.039 -0.3277,0.0786 -0.4933,0.1194 -0.1789,-0.3183 -0.518,-0.5329 -0.9084,-0.5329 z"
       fill="url(#paint1_radial_2_164)"
       id="path64006"
       style="fill:url(#paint1_radial_2_164)" /></g><path
     id="circle1009"
     style="fill:#f9f9f9;fill-opacity:1;stroke-width:2.00803;paint-order:markers stroke fill"
     d="m 18.466804,11.395151 a 8.4999999,8.4999999 0 0 0 -8.4999983,8.5 8.4999999,8.4999999 0 0 0 0.5742203,3.064452 c 0.830976,0.05397 1.664299,0.05874 2.501953,0.01361 1.635997,-0.02683 3.224911,-0.302897 4.767577,-0.824229 1.905331,-0.697333 3.285436,-1.966549 4.134761,-3.810545 0.45867,-1.062666 0.756484,-2.167697 0.896492,-3.318362 0.08591,-0.771807 0.136481,-1.542403 0.158214,-2.314451 a 8.4999999,8.4999999 0 0 0 -4.533208,-1.310471 z" /><path
     id="path64044"
     style="fill:#33d4ff;fill-opacity:1;stroke-width:2.00803;paint-order:markers stroke fill"
     d="m 18.488281,14.859375 c -1.86263,0 -3.625946,0.745025 -4.964843,2.099609 a 0.69267924,0.69267924 0 0 0 -0.01758,0.941407 0.6100163,0.6100163 0 0 0 0.894532,0.01953 c 1.101769,-1.115044 2.554102,-1.728516 4.08789,-1.728516 1.374135,0 2.68216,0.496229 3.734375,1.404297 0.15867,-0.446083 0.28811,-0.900367 0.392578,-1.361328 -1.201185,-0.892964 -2.632941,-1.375 -4.126952,-1.374999 z m 0,2.220703 c -1.349154,0 -2.616974,0.550983 -3.570312,1.550781 a 0.69207586,0.69207586 0 0 0 -0.002,0.94336 c 0.246178,0.260646 0.645193,0.261406 0.892578,0.002 0.715003,-0.749396 1.667217,-1.16211 2.679687,-1.16211 1.010659,0 1.962127,0.415413 2.677735,1.166016 0.0099,0.01035 0.01897,0.01978 0.0293,0.0293 0.254618,-0.355763 0.480401,-0.742564 0.679681,-1.158253 -0.930795,-0.885457 -2.123584,-1.371094 -3.386719,-1.371094 z m 0,2.22461 c -0.832663,-10e-7 -1.629978,0.372249 -2.1875,1.021484 a 0.69207586,0.69207586 0 0 0 0.04297,0.941406 0.60941292,0.60941292 0 0 0 0.894531,-0.04687 c 0.322808,-0.375301 0.767297,-0.582031 1.25,-0.582031 a 1.6532588,1.6532588 0 0 1 1.179688,0.515625 c 0.352762,-0.258203 0.676599,-0.547405 0.972656,-0.867188 -0.557777,-0.624677 -1.338216,-0.982421 -2.152344,-0.982421 z m -0.07813,2.222656 a 0.76448136,0.76448136 0 0 0 -0.732422,0.654297 c 0.03961,-0.01304 0.07959,-0.02374 0.119141,-0.03711 0.373384,-0.136655 0.725593,-0.295961 1.058594,-0.476562 a 0.76448136,0.76448136 0 0 0 -0.445313,-0.140625 z" /></svg>
