<?xml version="1.0" encoding="UTF-8" standalone="no"?>
<svg
   width="24"
   height="24"
   version="1.1"
   id="svg26699"
   sodipodi:docname="tv.kodi.Kodi.svg"
   xml:space="preserve"
   inkscape:version="1.2.2 (b0a8486541, 2022-12-01)"
   xmlns:inkscape="http://www.inkscape.org/namespaces/inkscape"
   xmlns:sodipodi="http://sodipodi.sourceforge.net/DTD/sodipodi-0.dtd"
   xmlns="http://www.w3.org/2000/svg"
   xmlns:svg="http://www.w3.org/2000/svg"><defs
     id="defs26703"><linearGradient
       id="paint0_linear_18_187"
       x1="12"
       y1="1"
       x2="12"
       y2="23"
       gradientUnits="userSpaceOnUse"
       gradientTransform="translate(-1.2792365e-5,-3.0289019e-5)"><stop
         stop-color="#33BEF0"
         id="stop26830" /><stop
         offset="1"
         stop-color="#0A85D9"
         id="stop26832" /></linearGradient></defs><sodipodi:namedview
     id="namedview26701"
     pagecolor="#ffffff"
     bordercolor="#000000"
     borderopacity="0.25"
     inkscape:showpageshadow="2"
     inkscape:pageopacity="0.0"
     inkscape:pagecheckerboard="0"
     inkscape:deskcolor="#d1d1d1"
     showgrid="false"
     inkscape:zoom="6.828125"
     inkscape:cx="-19.990847"
     inkscape:cy="33.171625"
     inkscape:window-width="2560"
     inkscape:window-height="1000"
     inkscape:window-x="1680"
     inkscape:window-y="0"
     inkscape:window-maximized="1"
     inkscape:current-layer="svg26699" /><path
     fill-rule="evenodd"
     clip-rule="evenodd"
     d="m 9.5960472,1.1135597 c 0.11983,0.0013 0.23438,-0.01399 0.34364,-0.0458 1.4356998,-0.09405 2.8713998,-0.09024 4.3069998,0.01145 1.3018,0.10142 2.5618,0.38384 3.7802,0.84726 2.0256,0.83394 3.4117,2.2804 4.1582,4.33936 0.4268,1.23963 0.6789,2.51437 0.756,3.8241403 0.1067,1.6448 0.0685,3.2858 -0.1146,4.9233 -0.137,1.1509 -0.4349,2.2577 -0.8935,3.3203 -0.8506,1.8425 -2.229,3.1134 -4.1352,3.8127 -1.5447,0.522 -3.1332,0.7967 -4.7653,0.8244 -1.8359,0.0955 -3.6533598,-0.042 -5.4525198,-0.4122 -3.31159,-0.7377 -5.35439,-2.7566 -6.1284,-6.0568 -0.32847,-1.4856 -0.47738099,-2.9893 -0.44675,-4.5111 -0.03665,-1.6182 0.13517,-3.2135203 0.51548,-4.7858803 0.8114,-3.08564 2.77019,-4.99771 5.87638,-5.7362 0.7238,-0.17695 1.45695,-0.29526 2.19937,-0.35493 z"
     fill="url(#paint0_linear_18_187)"
     id="path26822"
     style="fill:url(#paint0_linear_18_187)" /><path
     d="m 12.000224,4.0000002 c -0.291373,0 -0.583197,0.1111712 -0.806884,0.3348566 L 8.74221,6.7859885 V 13.302913 L 15.258238,6.7859885 12.806659,4.3348568 A 1.1372567,1.1372567 0 0 0 11.999776,4.0000002 Z m 5.213809,4.7417824 -3.258911,3.2580144 3.258911,3.258462 2.451131,-2.451579 a 1.1386016,1.1386016 0 0 0 0,-1.613766 z M 6.1346334,9.393565 4.3348361,11.192914 a 1.1386016,1.1386016 0 0 0 0,1.613766 l 1.7997973,1.799798 V 9.393117 Z m 5.8655916,4.56113 -3.258015,3.258911 2.451131,2.451131 a 1.1386016,1.1386016 0 0 0 1.613767,0 l 2.45113,-2.451131 z"
     fill="#ffffff"
     id="path26697"
     style="stroke-width:0.448269" /></svg>
