<?xml version="1.0" encoding="UTF-8" standalone="no"?>
<svg
   width="24"
   height="24"
   viewBox="0 0 6.349875 6.349875"
   version="1.1"
   id="svg1"
   sodipodi:docname="org.kde.konqueror.svg"
   inkscape:version="1.3 (0e150ed6c4, 2023-07-21)"
   xmlns:inkscape="http://www.inkscape.org/namespaces/inkscape"
   xmlns:sodipodi="http://sodipodi.sourceforge.net/DTD/sodipodi-0.dtd"
   xmlns="http://www.w3.org/2000/svg"
   xmlns:svg="http://www.w3.org/2000/svg">
  <defs
     id="defs1">
    <radialGradient
       fx="0"
       fy="0"
       cx="0"
       cy="0"
       r="1"
       gradientUnits="userSpaceOnUse"
       gradientTransform="matrix(0,5.8207185,-5.8207185,0,3.1748145,0.26457272)"
       spreadMethod="pad"
       id="radialGradient9652-9">
      <stop
         style="stop-opacity:1;stop-color:#8fc8ff"
         offset="0"
         id="stop9648-1" />
      <stop
         style="stop-color:#359cf3;stop-opacity:1;"
         offset="1"
         id="stop9650-2" />
    </radialGradient>
    <clipPath
       clipPathUnits="userSpaceOnUse"
       id="clipPath9662-7">
      <path
         d="M 0,0 H 19 V 19 H 0 Z"
         id="path9660-0" />
    </clipPath>
    <clipPath
       clipPathUnits="userSpaceOnUse"
       id="clipPath9682-9">
      <path
         d="M 0,0 H 19 V 19 H 0 Z"
         id="path9680-3" />
    </clipPath>
  </defs>
  <sodipodi:namedview
     id="namedview1"
     pagecolor="#ffffff"
     bordercolor="#000000"
     borderopacity="0.25"
     inkscape:showpageshadow="2"
     inkscape:pageopacity="0.0"
     inkscape:pagecheckerboard="0"
     inkscape:deskcolor="#d1d1d1"
     inkscape:zoom="12.671875"
     inkscape:cx="-6.9839704"
     inkscape:cy="11.876695"
     inkscape:window-width="2560"
     inkscape:window-height="998"
     inkscape:window-x="0"
     inkscape:window-y="0"
     inkscape:window-maximized="1"
     inkscape:current-layer="svg1" />
  <path
     d="m 2.5380664,0.29490713 c 0.031749,0 0.062088,-0.004233 0.091015,-0.012347 0.3802869,-0.0250467 0.7605739,-0.0236357 1.1398025,0.002822 0.3443043,0.0275161 0.6776727,0.10195077 1.000458,0.22436224 0.5358589,0.22048177 0.9023878,0.60359083 1.1009978,1.14791623 0.1114755,0.3280769 0.1788548,0.6656785 0.1996682,1.011394 0.027516,0.4356719 0.017991,0.86958 -0.030338,1.3038409 C 6.0026286,4.2773369 5.9239607,4.5694312 5.8026076,4.8505895 5.5778925,5.3384715 5.2127748,5.6746621 4.7086652,5.8591613 4.3005094,5.9970947 3.8803594,6.0701182 3.4475096,6.0771736 2.9624497,6.1032787 2.4816231,6.065885 2.0050297,5.9681675 1.1298053,5.7737907 0.58830207,5.2393429 0.38440054,4.3655296 0.29761892,3.9728957 0.25740304,3.5746174 0.26586954,3.1721059 0.25634473,2.7449005 0.30149939,2.3219283 0.40239185,1.9056587 0.61722928,1.0900526 1.1354496,0.58417921 1.9567001,0.38874417 2.1482546,0.34182565 2.3426314,0.31007628 2.5380664,0.29490713 Z"
     style="fill:url(#radialGradient9652-9);fill-rule:evenodd;stroke:none;stroke-width:0.352771"
     id="path9654" />
  <path
     d="m 1.8857108,1.4551832 a 0.0239673,0.0239673 0 0 0 -0.013812,0.00406 L 1.7467817,1.5851753 a 0.02031128,0.02031128 0 0 0 0,0.026811 l 0.1746769,0.174677 -0.049559,0.048747 a 0.03127936,0.03127936 0 0 0 -0.00406,0.040623 l 0.3087313,0.5102192 a 1.2836726,1.2836726 0 0 0 -0.121057,0.28192 L 1.4827353,2.7892277 c -0.015843,0.00325 -0.026811,0.015437 -0.026811,0.031279 v 0.3733212 c 0,0.014218 0.011374,0.026811 0.026811,0.031279 l 0.5549036,0.1340544 c 0.02844,0.115368 0.07312,0.2254551 0.129993,0.3270115 L 1.8450882,4.1736442 c -0.00894,0.012999 -0.0065,0.032498 0.00447,0.044685 l 0.2599837,0.2599843 c 0.01097,0.011374 0.03128,0.012187 0.04468,0.00447 l 0.501282,-0.3046691 c 0.09425,0.055247 0.196207,0.099932 0.304263,0.1299922 l 0.116588,0.5593725 c 0.0032,0.015843 0.01544,0.027217 0.03128,0.027217 h 0.37129 c 0.01584,0 0.02844,-0.012187 0.03169,-0.027217 L 3.6491369,4.312575 c 0.114962,-0.030061 0.220986,-0.071496 0.322137,-0.1299921 l 0.487876,0.3136061 a 0.03209181,0.03209181 0 0 0 0.04062,-0.00406 l 0.06703,-0.067433 0.170209,0.1702085 c 0.0065,0.0065 0.02112,0.0065 0.02722,0 l 0.125113,-0.1255281 a 0.01584279,0.01584279 0 0 0 0,-0.022342 l -0.170614,-0.1702085 0.04062,-0.044685 c 0.01097,-0.010968 0.01706,-0.027217 0.0093,-0.040216 L 4.4599619,3.6906421 c 0.03331,-0.060528 0.065,-0.1263361 0.08937,-0.1925509 a 0.02152995,0.02152995 0 0 0 0,-0.013405 0.02152995,0.02152995 0 0 0 -0.0134,-0.00894 l -0.157209,-0.040622 h -0.0041 a 1.1252446,1.1252446 0 0 0 0.0719,-0.3891641 1.1252446,1.1252446 0 0 0 -1.52172,-1.052124 c -0.0098,-0.055247 -0.02397,-0.1137432 -0.03615,-0.1698023 -8.13e-4,-0.00487 -0.0049,-0.0065 -0.0093,-0.00894 -0.0041,-0.00325 -0.0081,-0.00284 -0.0134,0 a 1.1618049,1.1618049 0 0 0 -0.188082,0.085307 c -0.15721,-0.1121182 -0.335136,-0.223424 -0.501283,-0.33148 a 0.03656029,0.03656029 0 0 0 -0.04468,0.00447 l -0.05809,0.062965 -0.1791451,-0.1746769 c -0.00325,-0.00325 -0.00447,-0.00447 -0.00894,-0.00447 m 1.4900351,0.5455608 c 0.194988,0.012999 0.376165,0.078808 0.528093,0.183614 -0.03656,-0.00447 -0.07556,-0.010968 -0.09831,-0.031686 h -0.0089 a 0.1832077,0.1832077 0 0 1 -0.08084,0.027217 l -0.04469,0.062559 -0.05362,0.044685 c -0.0093,0.021124 0.0032,0.051591 0.0089,0.071902 l 0.05809,-0.027217 c 0.0081,0.028436 0.02844,0.034123 0.04956,0.049559 0.0325,-0.062965 0.0053,-0.1230863 0.0849,-0.156803 l -0.03575,0.049153 0.0089,0.035748 0.0045,-0.044685 c 0.01462,0.050372 -0.0032,0.1198365 -0.05809,0.1389291 l -0.05362,-0.00447 v -0.03574 c -0.03209,0.0065 -0.03087,0.025998 -0.02234,0.053622 -0.02153,-0.00609 -0.03372,-0.00731 -0.04956,0.00894 -0.01706,-0.017468 -0.03331,-0.028436 -0.03575,-0.053622 a 0.04955951,0.04955951 0 0 1 -0.01787,-0.035748 l -0.03575,-0.00406 0.01341,0.08937 c -0.0041,-0.00772 -0.0089,-0.00894 -0.01341,-0.013812 l 0.0089,0.062965 0.04915,-0.00934 c -0.01381,0.014218 -0.02519,0.014218 -0.04468,0.014218 l 0.0089,0.017874 h -0.03128 l 0.04062,0.067027 c -0.0914,8.125e-4 -0.09343,0.045497 -0.08978,0.1210552 0.01787,0.00162 0.02803,0.00487 0.04022,0.017874 0.07393,-0.038591 0.09099,-0.1113058 0.178739,-0.1340544 0.01422,0.043872 0.0585,0.044685 0.04509,0.098307 0.04306,-0.00934 0.05444,-0.047528 0.02681,-0.080839 0.03697,0.021936 0.04631,0.064184 0.0719,0.098713 0.01787,-0.023561 0.01219,-0.044685 0.04022,-0.062965 v 0.013405 c 0.04753,0.042247 0.07881,0.051184 0.138522,0.071902 -0.02031,0.028842 -0.04184,0.060528 -0.08043,0.05809 -0.04712,-0.00325 -0.1109,-0.050778 -0.143398,0.00406 l -0.08937,-0.071902 c -0.04997,-0.020717 -0.09628,0.00162 -0.147866,-0.00406 l -0.02234,0.00934 0.0093,0.00406 c -0.102775,0.04631 -0.159646,0.1681773 -0.170614,0.2689213 l -0.01747,0.067027 c 0.01097,0.065402 0.065,0.1348668 0.111712,0.1787392 0.0329,0.032498 0.05809,-0.030873 0.08937,0 0.04143,-0.014218 0.101556,-0.043466 0.138929,0 0.02519,0.028842 4.06e-4,0.054434 0.0089,0.08612 0.01503,0.051997 0.04915,0.1161805 0.04915,0.174677 l -0.01341,0.1393353 c 0.01219,0.084901 0.06215,0.1572093 0.06297,0.2461727 0.06865,-0.00731 0.145429,-0.044685 0.183208,-0.1031813 l 0.01381,-0.049153 0.02722,-0.035748 -0.0093,-0.054028 c 0.01625,-0.038998 0.08003,-0.04306 0.08937,-0.085307 0.01341,-0.056872 -0.02031,-0.1238988 0,-0.1828015 0.03209,-0.093432 0.123087,-0.1563968 0.125118,-0.2599843 l -0.06703,0.00406 c 0.06053,-0.074339 0.186457,-0.111712 0.121055,-0.2242365 l -0.02722,0.032498 h -0.01341 c -0.02112,-0.045091 -0.05362,-0.047122 -0.05362,-0.1039937 0.05281,0.045091 0.106838,0.045091 0.156803,0.098713 a 0.03737275,0.03737275 0 0 0 0.01787,-0.022342 c 0.01219,0.06459 0.01787,0.1340544 0.01787,0.2014878 -0.0012,0.5971515 -0.480564,1.0797474 -1.069591,1.0785287 a 1.0695917,1.0695917 0 0 1 -0.939887,-0.56953 c -0.0325,-0.062965 -0.06337,-0.1336482 -0.08978,-0.1925509 -0.05931,-0.1706147 -0.04469,-0.3781959 -0.04469,-0.3940387 0,-0.00812 0.0065,-0.019499 0.01341,-0.031279 0.0041,-0.042654 0.0134,-0.084089 0.02234,-0.1251174 a 0.01543657,0.01543657 0 0 1 -0.0045,-0.00934 c 0,-0.00162 0.0081,-0.024374 0.01341,-0.040216 a 0.39485119,0.39485119 0 0 0 -0.0089,0.04956 c -0.0053,0.029654 -0.0081,0.059715 -0.0093,0.08937 -0.0028,0.043466 0.03534,0.060934 0.05403,0.093838 l 0.0028,0.062965 0.01503,-0.058497 0.120649,0.049559 0.08531,0.080433 0.0715,0.00975 c -0.02641,0.05809 -0.07678,0.1535532 -0.06703,0.2185493 0.0053,0.038185 0.04468,0.090182 0.06703,0.1214615 0.03087,0.04306 0.08734,0.070277 0.103181,0.1251174 l 0.0041,0.08937 0.01828,0.067433 c -0.0037,0.02803 -0.03169,0.076777 -0.01381,0.1031813 0.01909,0.028436 0.09181,0.062559 0.125523,0.071496 0.03128,0.00894 0.03534,-0.020311 0.02234,-0.03981 l 0.03859,-0.05809 0.05362,-0.040216 0.03575,-0.1255236 0.08125,-0.053622 c 0.0325,-0.048747 0.0057,-0.088963 0.01787,-0.1385229 l 0.05362,-0.1478661 c -0.06053,-0.022749 -0.145429,-0.052809 -0.188489,-0.102775 l -0.01341,0.00406 -0.0089,-0.04956 -0.06703,-0.031279 -0.01381,0.00934 -0.01341,-0.075964 -0.08937,-0.00975 -0.06703,-0.035748 c -0.02925,-0.00406 -0.06987,0.044685 -0.08084,0.06784 l -0.03575,-0.00934 0.0089,-0.00934 -0.03128,-0.02153 0.0041,0.02153 c -0.02356,-0.02478 -0.02844,-0.056059 -0.02194,-0.08937 l -0.04062,-0.01828 -0.0041,0.017874 c -0.0069,-0.026811 -0.0028,-0.063777 0.01787,-0.085307 -0.03087,-0.020311 -0.05484,-8.124e-4 -0.07597,0.022749 l -0.04468,-0.08937 c -0.01219,0.027217 -0.0069,0.055653 -0.0049,0.084901 h -0.0089 c -0.002,-0.030873 -0.01097,-0.064184 0.0045,-0.093838 0.02965,-0.055247 0.119837,-0.078402 0.174677,-0.067433 l -0.0089,0.00934 0.05362,0.044685 c 0,-0.085307 0.0329,-0.094244 0.08043,-0.1563968 l 0.03168,-0.05809 a 0.37453991,0.37453991 0 0 1 0.142992,-0.085307 l 0.06297,-0.040216 c -0.0199,-0.033717 -0.07393,-0.024374 -0.10765,-0.02153 0.06053,-0.034529 0.142179,-0.014624 0.183614,-0.075964 -0.0455,-0.032904 -0.04469,-0.120649 -0.116587,-0.085307 l 0.0089,-0.031686 -0.05809,-0.031686 -0.04469,0.094244 -0.06256,0.075152 -0.0045,-0.039404 c -0.02356,-0.011374 -0.08856,-0.032092 -0.08937,-0.063371 -0.002,-0.032498 0.09993,-0.082057 0.125118,-0.102775 l -0.0089,0.026811 0.04468,-0.00325 c 0.0089,-0.00609 0.09628,-0.1263361 0.107243,-0.050372 0.06093,0.022749 0.06459,0.047122 0.125524,0.00934 l -0.03575,-0.017874 c -0.0061,-0.055247 -0.05687,-0.053622 -0.103181,-0.053622 l 0.147866,-0.067027 c 0.01625,0.038998 0.06418,0.047935 0.08043,0.084901 0.01219,0.025592 -0.02275,0.037373 -0.02234,0.062965 0.0012,0.030467 0.03087,0.071902 0.04468,0.098713 l 0.08531,-0.093838 c 0.04631,-0.024374 0.119837,-0.027217 0.156803,-0.067434 0.04306,-0.04631 0.01909,-0.120649 0.09831,-0.120649 -0.01625,-0.00691 -0.0394,-0.012187 -0.05362,0 l -0.01787,-0.013405 h 0.02234 m 0.108056,0.3745399 c -0.01219,-0.012187 -0.02234,-0.01828 -0.04468,-0.013405 l 0.01787,0.067433 0.01787,-0.00934 -0.01381,-0.00406"
     fill="#ffffff"
     id="path2"
     style="stroke-width:1" />
</svg>
