<?xml version="1.0" encoding="UTF-8" standalone="no"?>
<!-- Created with Inkscape (http://www.inkscape.org/) -->

<svg
   width="133.96359mm"
   height="133.96271mm"
   viewBox="0 0 133.96359 133.96271"
   version="1.1"
   id="svg5"
   xml:space="preserve"
   xmlns:inkscape="http://www.inkscape.org/namespaces/inkscape"
   xmlns:sodipodi="http://sodipodi.sourceforge.net/DTD/sodipodi-0.dtd"
   xmlns:xlink="http://www.w3.org/1999/xlink"
   xmlns="http://www.w3.org/2000/svg"
   xmlns:svg="http://www.w3.org/2000/svg"><sodipodi:namedview
     id="namedview7"
     pagecolor="#ffffff"
     bordercolor="#000000"
     borderopacity="0.25"
     inkscape:showpageshadow="2"
     inkscape:pageopacity="0.0"
     inkscape:pagecheckerboard="0"
     inkscape:deskcolor="#d1d1d1"
     inkscape:document-units="mm"
     showgrid="false" /><defs
     id="defs2"><linearGradient
       inkscape:collect="always"
       id="linearGradient27142"><stop
         style="stop-color:#c04242;stop-opacity:1"
         offset="0"
         id="stop27138" /><stop
         style="stop-color:#dcdcdc;stop-opacity:1"
         offset="1"
         id="stop27140" /></linearGradient><linearGradient
       inkscape:collect="always"
       xlink:href="#linearGradient27142"
       id="linearGradient27144"
       x1="205.01833"
       y1="323.87027"
       x2="217.63074"
       y2="-256.30081"
       gradientUnits="userSpaceOnUse" /><linearGradient
       inkscape:collect="always"
       xlink:href="#linearGradient27142"
       id="linearGradient27973"
       gradientUnits="userSpaceOnUse"
       x1="205.01833"
       y1="323.87027"
       x2="217.63074"
       y2="-256.30081" /></defs><g
     id="g816"
     transform="matrix(0.35277776,0,0,0.35277778,5.0620457e-4,-1.6930737e-4)"
     style="fill:url(#linearGradient27144);fill-opacity:1"><path
       d="m 148.375,1.961 c 2.07,0.023 4.047,-0.242 5.93,-0.789 24.785,-1.625 49.566,-1.559 74.343,0.195 22.469,1.75 44.219,6.625 65.25,14.625 34.965,14.395 58.887,39.36 71.774,74.899 7.367,21.398 11.719,43.402 13.051,66.007 1.839,28.391 1.179,56.715 -1.981,84.981 -2.363,19.867 -7.504,38.969 -15.422,57.312 -14.683,31.801 -38.472,53.739 -71.375,65.809 -26.664,9.008 -54.082,13.754 -82.254,14.23 C 176,380.879 144.633,378.508 113.574,372.117 56.414,359.387 21.156,324.535 7.793,267.574 2.125,241.93 -0.445,215.977 0.082,189.707 -0.551,161.773 2.418,134.238 8.98,107.098 22.988,53.84 56.797,20.836 110.414,8.086 122.906,5.035 135.559,2.992 148.375,1.961 Z"
       style="fill:url(#linearGradient27973);fill-opacity:1;fill-rule:evenodd;stroke:none"
       id="path818" /></g><g
     id="g27136"
     transform="matrix(1.5029914,0,0,1.5029914,-458.64225,-283.31295)"><path
       d="m 354.71766,206.59609 a 2.0637715,2.0637715 0 0 0 -2.52239,1.46184 l -10.8348,41.97769 a 2.1497619,2.1497619 0 0 0 1.46901,2.57971 l 24.82258,6.9079 a 2.0637715,2.0637715 0 0 0 2.52956,-1.47617 l 10.82763,-41.97768 a 2.1354302,2.1354302 0 0 0 -1.469,-2.57972"
       fill="#dcdcdc"
       id="path828"
       style="stroke-width:7.16587" /><path
       d="m 363.58185,223.86585 -9.029,7.35218 4.27086,11.05695 9.029,-7.34502"
       fill="#db6565"
       id="path830"
       style="stroke-width:7.16587" /><path
       d="m 320.07783,212.63692 a 2.1497619,2.1497619 0 0 0 -1.69115,2.4364 l 7.2662,42.80176 a 2.0781032,2.0781032 0 0 0 2.3934,1.69831 l 25.3027,-4.63632 a 2.1210984,2.1210984 0 0 0 1.66965,-2.43639 l -7.2662,-42.7946 a 2.0637715,2.0637715 0 0 0 -2.37907,-1.69831"
       fill="#f9f9f9"
       id="path832"
       style="stroke-width:7.16587" /><path
       d="m 332.60378,228.38035 a 3.6545953,3.6545953 0 0 0 -2.93801,4.25653 c 1.16087,5.91901 9.21531,9.27264 9.21531,9.27264 0,0 6.21281,-6.11966 5.05194,-12.03867 a 3.6617612,3.6617612 0 0 0 -4.32102,-2.85202 3.6760929,3.6760929 0 0 0 -2.98817,3.3393 3.6904246,3.6904246 0 0 0 -4.02722,-1.97778 z"
       fill="#d74949"
       id="path834"
       style="stroke-width:7.16587" /></g></svg>
