<?xml version="1.0" encoding="UTF-8" standalone="no"?>
<svg
   width="24"
   height="24"
   viewBox="0 0 6.349875 6.349875"
   version="1.1"
   id="svg24078"
   sodipodi:docname="org.kde.krusader.svg"
   xml:space="preserve"
   inkscape:version="1.3 (0e150ed6c4, 2023-07-21)"
   xmlns:inkscape="http://www.inkscape.org/namespaces/inkscape"
   xmlns:sodipodi="http://sodipodi.sourceforge.net/DTD/sodipodi-0.dtd"
   xmlns="http://www.w3.org/2000/svg"
   xmlns:svg="http://www.w3.org/2000/svg"><defs
     id="defs24082"><linearGradient
       id="paint0_linear_201_118"
       x1="23"
       y1="0.99999899"
       x2="1"
       y2="12"
       gradientUnits="userSpaceOnUse"><stop
         stop-color="#198CFF"
         id="stop24215" /><stop
         offset="1"
         stop-color="#1964FF"
         id="stop24217" /></linearGradient><linearGradient
       id="paint1_linear_201_118"
       x1="21"
       y1="4"
       x2="3"
       y2="4"
       gradientUnits="userSpaceOnUse"><stop
         stop-opacity="0.5"
         id="stop24220" /><stop
         offset="0.890123"
         id="stop24222" /><stop
         offset="1"
         stop-opacity="0"
         id="stop24224" /></linearGradient><linearGradient
       id="paint2_linear_201_118"
       x1="12"
       y1="3"
       x2="11.5"
       y2="8"
       gradientUnits="userSpaceOnUse"><stop
         stop-color="#DDDDDD"
         id="stop24227" /><stop
         offset="1"
         stop-color="#CCCCCC"
         stop-opacity="0"
         id="stop24229" /></linearGradient><linearGradient
       id="paint3_linear_201_118"
       x1="23"
       y1="9"
       x2="1.01236"
       y2="9.52141"
       gradientUnits="userSpaceOnUse"><stop
         stop-opacity="0.5"
         id="stop24232" /><stop
         offset="1"
         id="stop24234" /></linearGradient><linearGradient
       id="paint4_linear_201_118"
       x1="23"
       y1="5.4000001"
       x2="1.42949"
       y2="23.511499"
       gradientUnits="userSpaceOnUse"><stop
         stop-color="#198CFF"
         id="stop24237" /><stop
         offset="1"
         stop-color="#3F8AE8"
         id="stop24239" /></linearGradient><linearGradient
       id="paint5_linear_201_118"
       x1="15"
       y1="5.5"
       x2="5.5"
       y2="19.5"
       gradientUnits="userSpaceOnUse"><stop
         stop-color="#85F8FF"
         id="stop24242" /><stop
         offset="1"
         stop-color="#105BF6"
         id="stop24244" /></linearGradient></defs><sodipodi:namedview
     id="namedview24080"
     pagecolor="#ffffff"
     bordercolor="#000000"
     borderopacity="0.25"
     inkscape:showpageshadow="2"
     inkscape:pageopacity="0.0"
     inkscape:pagecheckerboard="0"
     inkscape:deskcolor="#d1d1d1"
     showgrid="false"
     inkscape:zoom="6.828125"
     inkscape:cx="27.093822"
     inkscape:cy="31.121281"
     inkscape:window-width="2560"
     inkscape:window-height="998"
     inkscape:window-x="0"
     inkscape:window-y="0"
     inkscape:window-maximized="1"
     inkscape:current-layer="svg24078" /><g
     id="g24289"
     transform="translate(7.747235,-4.7684606)"><g
       style="fill:none"
       id="g24279"
       transform="matrix(0.26457812,0,0,0.26457812,-7.7472349,4.7684607)"><rect
         opacity="0.8125"
         x="1"
         y="1"
         width="22"
         height="22"
         rx="6.5999999"
         fill="url(#paint0_linear_201_118)"
         id="rect24201"
         style="fill:url(#paint0_linear_201_118)" /><rect
         opacity="0.125"
         x="3"
         y="2.25"
         width="18"
         height="18"
         rx="4.4000001"
         fill="url(#paint1_linear_201_118)"
         fill-opacity="0.875"
         id="rect24203"
         style="fill:url(#paint1_linear_201_118)" /><rect
         x="3.25"
         y="3.25"
         width="17.5"
         height="17.5"
         rx="4.1500001"
         fill="#cccccc"
         stroke="url(#paint2_linear_201_118)"
         stroke-width="0.5"
         id="rect24205"
         style="stroke:url(#paint2_linear_201_118)" /><path
         opacity="0.125"
         d="M 1,7.50781 C 1,5.84664 2.34664,4.5 4.00781,4.5 h 4.18267 c 1.07452,0 2.11632,0.36994 2.95012,1.04762 v 0 c 0.8339,0.67768 1.8756,1.04762 2.9502,1.04762 h 5.9014 C 21.6534,6.59524 23,7.94188 23,9.60305 V 15.5 c 0,3.6451 -2.9549,6.6 -6.6,6.6 H 7.6 C 3.95492,22.1 1,19.1451 1,15.5 Z"
         fill="url(#paint3_linear_201_118)"
         fill-opacity="0.875"
         id="path24207"
         style="fill:url(#paint3_linear_201_118)" /><g
         opacity="0.875"
         id="g24213"><path
           d="M 1,8.40781 C 1,6.74664 2.34664,5.4 4.00781,5.4 h 4.18267 c 1.07452,0 2.11632,0.36994 2.95012,1.04762 v 0 c 0.8339,0.67768 1.8756,1.04762 2.9502,1.04762 h 5.9014 C 21.6534,7.49524 23,8.84188 23,10.5031 V 16.4 C 23,20.0451 20.0451,23 16.4,23 H 7.6 C 3.95492,23 1,20.0451 1,16.4 Z"
           fill="url(#paint4_linear_201_118)"
           id="path24209"
           style="fill:url(#paint4_linear_201_118)" /><path
           d="M 22.625,10.5031 V 16.4 c 0,3.438 -2.787,6.225 -6.225,6.225 H 7.6 C 4.16203,22.625 1.375,19.838 1.375,16.4 V 8.40781 C 1.375,6.95375 2.55375,5.775 4.00781,5.775 h 4.18267 c 0.98838,0 1.94662,0.34028 2.71362,0.96363 0.9007,0.73201 2.026,1.13161 3.1867,1.13161 h 5.9014 c 1.454,0 2.6328,1.17875 2.6328,2.63286 z"
           stroke="url(#paint5_linear_201_118)"
           stroke-opacity="0.375"
           stroke-width="0.75"
           stroke-linejoin="round"
           id="path24211"
           style="stroke:url(#paint5_linear_201_118)" /></g></g></g><g
     id="g193766"
     transform="matrix(0.07931561,0,0,0.07931561,0.42890637,1.364775)"
     style="stroke-width:1.59902"><g
       fill="#ffffff"
       stroke-width="0.799513"
       id="g193274"><path
         d="m 26.942,16.968 c -0.742,-0.041 -1.337,0.626 -1.32,1.534 h 0.001 v 22.166 c 0,0.725 0.66,1.386 1.385,1.386 h 4.98 l 3.72,3.721 c 0.408,0.41 1.086,0.52 1.602,0.261 l 1.385,-0.692 c 0.454,-0.222 0.768,-0.707 0.78,-1.212 v -4.98 l 3.767,-3.767 c 0.506,-0.513 0.506,-1.434 0,-1.947 L 28.003,17.506 c -0.355,-0.355 -0.723,-0.52 -1.06,-0.539 z m 0.06,1.517 15.238,15.932 -4.156,4.156 v 5.541 l -1.386,0.693 -4.156,-4.156 H 27 Z"
         id="path193270"
         style="stroke-width:0.799513" /><path
         d="M 27,40.65 V 18.484 l 15.24,15.932 -4.157,4.156 v 5.542 l -1.385,0.693 -4.157,-4.157 z"
         opacity="0.5"
         id="path193272"
         style="stroke-width:0.799513" /></g></g></svg>
