<?xml version="1.0" encoding="UTF-8" standalone="no"?>
<svg
   width="24"
   height="24"
   viewBox="0 0 6.349875 6.349875"
   version="1.1"
   id="svg24078"
   sodipodi:docname="org.kde.krusader.svg"
   xml:space="preserve"
   inkscape:version="1.2.2 (b0a8486541, 2022-12-01)"
   xmlns:inkscape="http://www.inkscape.org/namespaces/inkscape"
   xmlns:sodipodi="http://sodipodi.sourceforge.net/DTD/sodipodi-0.dtd"
   xmlns="http://www.w3.org/2000/svg"
   xmlns:svg="http://www.w3.org/2000/svg"><defs
     id="defs24082"><linearGradient
       id="paint0_linear_201_118"
       x1="23"
       y1="0.99999899"
       x2="1"
       y2="12"
       gradientUnits="userSpaceOnUse"><stop
         stop-color="#198CFF"
         id="stop24215" /><stop
         offset="1"
         stop-color="#1964FF"
         id="stop24217" /></linearGradient><linearGradient
       id="paint1_linear_201_118"
       x1="21"
       y1="4"
       x2="3"
       y2="4"
       gradientUnits="userSpaceOnUse"><stop
         stop-opacity="0.5"
         id="stop24220" /><stop
         offset="0.890123"
         id="stop24222" /><stop
         offset="1"
         stop-opacity="0"
         id="stop24224" /></linearGradient><linearGradient
       id="paint2_linear_201_118"
       x1="12"
       y1="3"
       x2="11.5"
       y2="8"
       gradientUnits="userSpaceOnUse"><stop
         stop-color="#DDDDDD"
         id="stop24227" /><stop
         offset="1"
         stop-color="#CCCCCC"
         stop-opacity="0"
         id="stop24229" /></linearGradient><linearGradient
       id="paint3_linear_201_118"
       x1="23"
       y1="9"
       x2="1.01236"
       y2="9.52141"
       gradientUnits="userSpaceOnUse"><stop
         stop-opacity="0.5"
         id="stop24232" /><stop
         offset="1"
         id="stop24234" /></linearGradient><linearGradient
       id="paint4_linear_201_118"
       x1="23"
       y1="5.4000001"
       x2="1.42949"
       y2="23.511499"
       gradientUnits="userSpaceOnUse"><stop
         stop-color="#198CFF"
         id="stop24237" /><stop
         offset="1"
         stop-color="#3F8AE8"
         id="stop24239" /></linearGradient><linearGradient
       id="paint5_linear_201_118"
       x1="15"
       y1="5.5"
       x2="5.5"
       y2="19.5"
       gradientUnits="userSpaceOnUse"><stop
         stop-color="#85F8FF"
         id="stop24242" /><stop
         offset="1"
         stop-color="#105BF6"
         id="stop24244" /></linearGradient></defs><sodipodi:namedview
     id="namedview24080"
     pagecolor="#ffffff"
     bordercolor="#000000"
     borderopacity="0.25"
     inkscape:showpageshadow="2"
     inkscape:pageopacity="0.0"
     inkscape:pagecheckerboard="0"
     inkscape:deskcolor="#d1d1d1"
     showgrid="false"
     inkscape:zoom="6.828125"
     inkscape:cx="27.093821"
     inkscape:cy="31.194508"
     inkscape:window-width="2560"
     inkscape:window-height="998"
     inkscape:window-x="1680"
     inkscape:window-y="0"
     inkscape:window-maximized="1"
     inkscape:current-layer="svg24078" /><g
     id="g24289"
     transform="translate(7.747235,-4.7684606)"><g
       style="fill:none"
       id="g24279"
       transform="matrix(0.26457812,0,0,0.26457812,-7.7472349,4.7684607)"><rect
         opacity="0.8125"
         x="1"
         y="1"
         width="22"
         height="22"
         rx="6.5999999"
         fill="url(#paint0_linear_201_118)"
         id="rect24201"
         style="fill:url(#paint0_linear_201_118)" /><rect
         opacity="0.125"
         x="3"
         y="2.25"
         width="18"
         height="18"
         rx="4.4000001"
         fill="url(#paint1_linear_201_118)"
         fill-opacity="0.875"
         id="rect24203"
         style="fill:url(#paint1_linear_201_118)" /><rect
         x="3.25"
         y="3.25"
         width="17.5"
         height="17.5"
         rx="4.1500001"
         fill="#cccccc"
         stroke="url(#paint2_linear_201_118)"
         stroke-width="0.5"
         id="rect24205"
         style="stroke:url(#paint2_linear_201_118)" /><path
         opacity="0.125"
         d="M 1,7.50781 C 1,5.84664 2.34664,4.5 4.00781,4.5 h 4.18267 c 1.07452,0 2.11632,0.36994 2.95012,1.04762 v 0 c 0.8339,0.67768 1.8756,1.04762 2.9502,1.04762 h 5.9014 C 21.6534,6.59524 23,7.94188 23,9.60305 V 15.5 c 0,3.6451 -2.9549,6.6 -6.6,6.6 H 7.6 C 3.95492,22.1 1,19.1451 1,15.5 Z"
         fill="url(#paint3_linear_201_118)"
         fill-opacity="0.875"
         id="path24207"
         style="fill:url(#paint3_linear_201_118)" /><g
         opacity="0.875"
         id="g24213"><path
           d="M 1,8.40781 C 1,6.74664 2.34664,5.4 4.00781,5.4 h 4.18267 c 1.07452,0 2.11632,0.36994 2.95012,1.04762 v 0 c 0.8339,0.67768 1.8756,1.04762 2.9502,1.04762 h 5.9014 C 21.6534,7.49524 23,8.84188 23,10.5031 V 16.4 C 23,20.0451 20.0451,23 16.4,23 H 7.6 C 3.95492,23 1,20.0451 1,16.4 Z"
           fill="url(#paint4_linear_201_118)"
           id="path24209"
           style="fill:url(#paint4_linear_201_118)" /><path
           d="M 22.625,10.5031 V 16.4 c 0,3.438 -2.787,6.225 -6.225,6.225 H 7.6 C 4.16203,22.625 1.375,19.838 1.375,16.4 V 8.40781 C 1.375,6.95375 2.55375,5.775 4.00781,5.775 h 4.18267 c 0.98838,0 1.94662,0.34028 2.71362,0.96363 0.9007,0.73201 2.026,1.13161 3.1867,1.13161 h 5.9014 c 1.454,0 2.6328,1.17875 2.6328,2.63286 z"
           stroke="url(#paint5_linear_201_118)"
           stroke-opacity="0.375"
           stroke-width="0.75"
           stroke-linejoin="round"
           id="path24211"
           style="stroke:url(#paint5_linear_201_118)" /></g></g></g><path
     d="M 3.0361659,4.203488 C 2.8882267,4.3129825 2.6619381,4.6701779 2.591375,4.5305116 2.5563367,4.5105592 2.4998862,2.9095064 2.5767757,2.8477029 2.644419,2.7941722 4.1116452,3.6910538 4.0420553,3.7844891 4.0332958,3.8803576 3.6994592,3.9105294 3.5281612,3.9742795 L 3.8980092,4.5864754 3.438619,4.8414759 Z"
     fill="#3d6fab"
     stroke="#f2f2f2"
     stroke-linejoin="round"
     stroke-width="0.257434"
     style="paint-order:stroke fill markers"
     id="path24291" /></svg>
