<?xml version="1.0" encoding="UTF-8" standalone="no"?>
<svg
   width="24"
   height="24"
   viewBox="0 0 24 24"
   fill="none"
   version="1.1"
   id="svg154"
   sodipodi:docname="app.svg"
   inkscape:version="1.2.2 (b0a8486541, 2022-12-01)"
   xml:space="preserve"
   inkscape:export-filename="../../../../svg/homebank.svg"
   inkscape:export-xdpi="96"
   inkscape:export-ydpi="96"
   xmlns:inkscape="http://www.inkscape.org/namespaces/inkscape"
   xmlns:sodipodi="http://sodipodi.sourceforge.net/DTD/sodipodi-0.dtd"
   xmlns:xlink="http://www.w3.org/1999/xlink"
   xmlns="http://www.w3.org/2000/svg"
   xmlns:svg="http://www.w3.org/2000/svg"
   xmlns:sketch="http://www.bohemiancoding.com/sketch/ns"><sodipodi:namedview
     id="namedview156"
     pagecolor="#ffffff"
     bordercolor="#000000"
     borderopacity="1"
     inkscape:showpageshadow="0"
     inkscape:pageopacity="1"
     inkscape:pagecheckerboard="false"
     inkscape:deskcolor="#ffffff"
     showgrid="true"
     inkscape:zoom="32"
     inkscape:cx="9.609375"
     inkscape:cy="15.453125"
     inkscape:window-width="1920"
     inkscape:window-height="1052"
     inkscape:window-x="0"
     inkscape:window-y="0"
     inkscape:window-maximized="1"
     inkscape:current-layer="svg154"
     showguides="true"
     guidecolor="#ff0000"
     guideopacity="1"
     inkscape:lockguides="true"
     showborder="true"
     borderlayer="true"><inkscape:grid
       type="xygrid"
       id="grid356"
       color="#000000"
       opacity="0.10196078"
       empcolor="#000000"
       empopacity="0.10196078"
       snapvisiblegridlinesonly="true"
       enabled="true"
       visible="true"
       dotted="false" /><sodipodi:guide
       position="4,12"
       orientation="-1,0"
       id="guide764"
       inkscape:locked="true"
       inkscape:label="left-circle"
       inkscape:color="rgb(255,0,0)" /><sodipodi:guide
       position="5,12"
       orientation="-1,0"
       id="guide2218"
       inkscape:locked="true"
       inkscape:label="left-square"
       inkscape:color="rgb(255,0,0)" /><sodipodi:guide
       position="12,20"
       orientation="0,1"
       id="guide2220"
       inkscape:locked="true"
       inkscape:label="top-circle"
       inkscape:color="rgb(255,0,0)" /><sodipodi:guide
       position="12,5"
       orientation="0,1"
       id="guide2222"
       inkscape:locked="true"
       inkscape:label="bottom-square"
       inkscape:color="rgb(255,0,0)" /><sodipodi:guide
       position="12,4"
       orientation="0,1"
       id="guide2224"
       inkscape:locked="true"
       inkscape:label="bottom-circle"
       inkscape:color="rgb(255,0,0)" /><sodipodi:guide
       position="19,12"
       orientation="-1,0"
       id="guide2226"
       inkscape:locked="true"
       inkscape:label="right-square"
       inkscape:color="rgb(255,0,0)" /><sodipodi:guide
       position="20,12"
       orientation="-1,0"
       id="guide2228"
       inkscape:locked="true"
       inkscape:label="right-circle"
       inkscape:color="rgb(255,0,0)" /><sodipodi:guide
       position="12,19"
       orientation="0,1"
       id="guide2230"
       inkscape:locked="true"
       inkscape:label="top-square"
       inkscape:color="rgb(255,0,0)" /><sodipodi:guide
       position="12,12"
       orientation="1,0"
       id="guide765"
       inkscape:locked="true" /><sodipodi:guide
       position="12,12"
       orientation="0,-1"
       id="guide767"
       inkscape:locked="true" /><sodipodi:guide
       position="12,12"
       orientation="0.70710678,0.70710678"
       id="guide2266"
       inkscape:locked="true"
       inkscape:label=""
       inkscape:color="rgb(255,0,0)" /><sodipodi:guide
       position="12,12"
       orientation="-0.70710678,0.70710678"
       id="guide2994"
       inkscape:locked="true"
       inkscape:label=""
       inkscape:color="rgb(255,0,0)" /><sodipodi:guide
       position="3,12"
       orientation="-1,0"
       id="guide131543"
       inkscape:locked="true"
       inkscape:label="left-horizontal"
       inkscape:color="rgb(255,0,0)" /><sodipodi:guide
       position="12,21"
       orientation="0,1"
       id="guide131545"
       inkscape:locked="true"
       inkscape:label="top-vertical"
       inkscape:color="rgb(255,0,0)" /><sodipodi:guide
       position="21,12"
       orientation="-1,0"
       id="guide131547"
       inkscape:locked="true"
       inkscape:label="right-horizontal"
       inkscape:color="rgb(255,0,0)" /><sodipodi:guide
       position="12,3"
       orientation="0,1"
       id="guide131549"
       inkscape:locked="true"
       inkscape:label="bottom-vertical"
       inkscape:color="rgb(255,0,0)" /></sodipodi:namedview><defs
     id="defs152"><linearGradient
       inkscape:collect="always"
       id="linearGradient18037"><stop
         style="stop-color:#37a0f4;stop-opacity:1"
         offset="0"
         id="stop18033" /><stop
         style="stop-color:#bbe0f4;stop-opacity:1"
         offset="1"
         id="stop18035" /></linearGradient><linearGradient
       id="linearGradient1257"
       inkscape:swatch="solid"><stop
         style="stop-color:#000000;stop-opacity:1;"
         offset="0"
         id="stop1255" /></linearGradient><style
       type="text/css"
       id="current-color-scheme">
      .ColorScheme-Text {
        color:#31363b;
      }
      .ColorScheme-Background {
        color:#eff0f1;
      }
      .ColorScheme-Highlight {
        color:#3daee9;
      }
      .ColorScheme-ViewText {
        color:#31363b;
      }
      .ColorScheme-ViewBackground {
        color:#fcfcfc;
      }
      .ColorScheme-ViewHover {
        color:#93cee9;
      }
      .ColorScheme-ViewFocus{
        color:#3daee9;
      }
      .ColorScheme-ButtonText {
        color:#31363b;
      }
      .ColorScheme-ButtonBackground {
        color:#eff0f1;
      }
      .ColorScheme-ButtonHover {
        color:#93cee9;
      }
      .ColorScheme-ButtonFocus{
        color:#3daee9;
      }
      </style><style
       type="text/css"
       id="current-color-scheme-9">
      .ColorScheme-Text {
        color:#31363b;
      }
      .ColorScheme-Background {
        color:#eff0f1;
      }
      .ColorScheme-Highlight {
        color:#3daee9;
      }
      .ColorScheme-ViewText {
        color:#31363b;
      }
      .ColorScheme-ViewBackground {
        color:#fcfcfc;
      }
      .ColorScheme-ViewHover {
        color:#93cee9;
      }
      .ColorScheme-ViewFocus{
        color:#3daee9;
      }
      .ColorScheme-ButtonText {
        color:#31363b;
      }
      .ColorScheme-ButtonBackground {
        color:#eff0f1;
      }
      .ColorScheme-ButtonHover {
        color:#93cee9;
      }
      .ColorScheme-ButtonFocus{
        color:#3daee9;
      }
      </style><style
       type="text/css"
       id="current-color-scheme-2">
      .ColorScheme-Text {
        color:#31363b;
      }
      .ColorScheme-Background {
        color:#eff0f1;
      }
      .ColorScheme-Highlight {
        color:#3daee9;
      }
      .ColorScheme-ViewText {
        color:#31363b;
      }
      .ColorScheme-ViewBackground {
        color:#fcfcfc;
      }
      .ColorScheme-ViewHover {
        color:#93cee9;
      }
      .ColorScheme-ViewFocus{
        color:#3daee9;
      }
      .ColorScheme-ButtonText {
        color:#31363b;
      }
      .ColorScheme-ButtonBackground {
        color:#eff0f1;
      }
      .ColorScheme-ButtonHover {
        color:#93cee9;
      }
      .ColorScheme-ButtonFocus{
        color:#3daee9;
      }
      </style><style
       type="text/css"
       id="current-color-scheme-3">
      .ColorScheme-Text {
        color:#31363b;
      }
      .ColorScheme-Background {
        color:#eff0f1;
      }
      .ColorScheme-Highlight {
        color:#3daee9;
      }
      .ColorScheme-ViewText {
        color:#31363b;
      }
      .ColorScheme-ViewBackground {
        color:#fcfcfc;
      }
      .ColorScheme-ViewHover {
        color:#93cee9;
      }
      .ColorScheme-ViewFocus{
        color:#3daee9;
      }
      .ColorScheme-ButtonText {
        color:#31363b;
      }
      .ColorScheme-ButtonBackground {
        color:#eff0f1;
      }
      .ColorScheme-ButtonHover {
        color:#93cee9;
      }
      .ColorScheme-ButtonFocus{
        color:#3daee9;
      }
      </style><style
       type="text/css"
       id="current-color-scheme-97">
      .ColorScheme-Text {
        color:#31363b;
      }
      .ColorScheme-Background {
        color:#eff0f1;
      }
      .ColorScheme-Highlight {
        color:#3daee9;
      }
      .ColorScheme-ViewText {
        color:#31363b;
      }
      .ColorScheme-ViewBackground {
        color:#fcfcfc;
      }
      .ColorScheme-ViewHover {
        color:#93cee9;
      }
      .ColorScheme-ViewFocus{
        color:#3daee9;
      }
      .ColorScheme-ButtonText {
        color:#31363b;
      }
      .ColorScheme-ButtonBackground {
        color:#eff0f1;
      }
      .ColorScheme-ButtonHover {
        color:#93cee9;
      }
      .ColorScheme-ButtonFocus{
        color:#3daee9;
      }
      </style><linearGradient
       inkscape:collect="always"
       xlink:href="#linearGradient18037"
       id="linearGradient18039"
       x1="48.458004"
       y1="113.18237"
       x2="48.458008"
       y2="-4.1531515"
       gradientUnits="userSpaceOnUse"
       gradientTransform="matrix(0.24444444,0,0,0.24444444,-0.22222222,-0.22222222)" /><linearGradient
       id="a-9"
       x1="37.200001"
       x2="36.985001"
       y1="56.511002"
       y2="34.977001"
       gradientUnits="userSpaceOnUse"><stop
         offset="0"
         id="stop6284" /><stop
         stop-opacity="0"
         offset="1"
         id="stop6286" /></linearGradient><style
       type="text/css"
       id="current-color-scheme-1">
      .ColorScheme-Text {
        color:#31363b;
      }
      .ColorScheme-Background {
        color:#eff0f1;
      }
      .ColorScheme-Highlight {
        color:#3daee9;
      }
      .ColorScheme-ViewText {
        color:#31363b;
      }
      .ColorScheme-ViewBackground {
        color:#fcfcfc;
      }
      .ColorScheme-ViewHover {
        color:#93cee9;
      }
      .ColorScheme-ViewFocus{
        color:#3daee9;
      }
      .ColorScheme-ButtonText {
        color:#31363b;
      }
      .ColorScheme-ButtonBackground {
        color:#eff0f1;
      }
      .ColorScheme-ButtonHover {
        color:#93cee9;
      }
      .ColorScheme-ButtonFocus{
        color:#3daee9;
      }
      </style><style
       type="text/css"
       id="current-color-scheme-9-2">
      .ColorScheme-Text {
        color:#31363b;
      }
      .ColorScheme-Background {
        color:#eff0f1;
      }
      .ColorScheme-Highlight {
        color:#3daee9;
      }
      .ColorScheme-ViewText {
        color:#31363b;
      }
      .ColorScheme-ViewBackground {
        color:#fcfcfc;
      }
      .ColorScheme-ViewHover {
        color:#93cee9;
      }
      .ColorScheme-ViewFocus{
        color:#3daee9;
      }
      .ColorScheme-ButtonText {
        color:#31363b;
      }
      .ColorScheme-ButtonBackground {
        color:#eff0f1;
      }
      .ColorScheme-ButtonHover {
        color:#93cee9;
      }
      .ColorScheme-ButtonFocus{
        color:#3daee9;
      }
      </style><style
       type="text/css"
       id="current-color-scheme-2-7">
      .ColorScheme-Text {
        color:#31363b;
      }
      .ColorScheme-Background {
        color:#eff0f1;
      }
      .ColorScheme-Highlight {
        color:#3daee9;
      }
      .ColorScheme-ViewText {
        color:#31363b;
      }
      .ColorScheme-ViewBackground {
        color:#fcfcfc;
      }
      .ColorScheme-ViewHover {
        color:#93cee9;
      }
      .ColorScheme-ViewFocus{
        color:#3daee9;
      }
      .ColorScheme-ButtonText {
        color:#31363b;
      }
      .ColorScheme-ButtonBackground {
        color:#eff0f1;
      }
      .ColorScheme-ButtonHover {
        color:#93cee9;
      }
      .ColorScheme-ButtonFocus{
        color:#3daee9;
      }
      </style><style
       type="text/css"
       id="current-color-scheme-3-0">
      .ColorScheme-Text {
        color:#31363b;
      }
      .ColorScheme-Background {
        color:#eff0f1;
      }
      .ColorScheme-Highlight {
        color:#3daee9;
      }
      .ColorScheme-ViewText {
        color:#31363b;
      }
      .ColorScheme-ViewBackground {
        color:#fcfcfc;
      }
      .ColorScheme-ViewHover {
        color:#93cee9;
      }
      .ColorScheme-ViewFocus{
        color:#3daee9;
      }
      .ColorScheme-ButtonText {
        color:#31363b;
      }
      .ColorScheme-ButtonBackground {
        color:#eff0f1;
      }
      .ColorScheme-ButtonHover {
        color:#93cee9;
      }
      .ColorScheme-ButtonFocus{
        color:#3daee9;
      }
      </style><style
       type="text/css"
       id="current-color-scheme-97-9">
      .ColorScheme-Text {
        color:#31363b;
      }
      .ColorScheme-Background {
        color:#eff0f1;
      }
      .ColorScheme-Highlight {
        color:#3daee9;
      }
      .ColorScheme-ViewText {
        color:#31363b;
      }
      .ColorScheme-ViewBackground {
        color:#fcfcfc;
      }
      .ColorScheme-ViewHover {
        color:#93cee9;
      }
      .ColorScheme-ViewFocus{
        color:#3daee9;
      }
      .ColorScheme-ButtonText {
        color:#31363b;
      }
      .ColorScheme-ButtonBackground {
        color:#eff0f1;
      }
      .ColorScheme-ButtonHover {
        color:#93cee9;
      }
      .ColorScheme-ButtonFocus{
        color:#3daee9;
      }
      </style><style
       type="text/css"
       id="current-color-scheme-7">
      .ColorScheme-Text {
        color:#31363b;
      }
      .ColorScheme-Background {
        color:#eff0f1;
      }
      .ColorScheme-Highlight {
        color:#3daee9;
      }
      .ColorScheme-ViewText {
        color:#31363b;
      }
      .ColorScheme-ViewBackground {
        color:#fcfcfc;
      }
      .ColorScheme-ViewHover {
        color:#93cee9;
      }
      .ColorScheme-ViewFocus{
        color:#3daee9;
      }
      .ColorScheme-ButtonText {
        color:#31363b;
      }
      .ColorScheme-ButtonBackground {
        color:#eff0f1;
      }
      .ColorScheme-ButtonHover {
        color:#93cee9;
      }
      .ColorScheme-ButtonFocus{
        color:#3daee9;
      }
      </style><style
       type="text/css"
       id="current-color-scheme-9-0">
      .ColorScheme-Text {
        color:#31363b;
      }
      .ColorScheme-Background {
        color:#eff0f1;
      }
      .ColorScheme-Highlight {
        color:#3daee9;
      }
      .ColorScheme-ViewText {
        color:#31363b;
      }
      .ColorScheme-ViewBackground {
        color:#fcfcfc;
      }
      .ColorScheme-ViewHover {
        color:#93cee9;
      }
      .ColorScheme-ViewFocus{
        color:#3daee9;
      }
      .ColorScheme-ButtonText {
        color:#31363b;
      }
      .ColorScheme-ButtonBackground {
        color:#eff0f1;
      }
      .ColorScheme-ButtonHover {
        color:#93cee9;
      }
      .ColorScheme-ButtonFocus{
        color:#3daee9;
      }
      </style><style
       type="text/css"
       id="current-color-scheme-2-9">
      .ColorScheme-Text {
        color:#31363b;
      }
      .ColorScheme-Background {
        color:#eff0f1;
      }
      .ColorScheme-Highlight {
        color:#3daee9;
      }
      .ColorScheme-ViewText {
        color:#31363b;
      }
      .ColorScheme-ViewBackground {
        color:#fcfcfc;
      }
      .ColorScheme-ViewHover {
        color:#93cee9;
      }
      .ColorScheme-ViewFocus{
        color:#3daee9;
      }
      .ColorScheme-ButtonText {
        color:#31363b;
      }
      .ColorScheme-ButtonBackground {
        color:#eff0f1;
      }
      .ColorScheme-ButtonHover {
        color:#93cee9;
      }
      .ColorScheme-ButtonFocus{
        color:#3daee9;
      }
      </style><style
       type="text/css"
       id="current-color-scheme-3-3">
      .ColorScheme-Text {
        color:#31363b;
      }
      .ColorScheme-Background {
        color:#eff0f1;
      }
      .ColorScheme-Highlight {
        color:#3daee9;
      }
      .ColorScheme-ViewText {
        color:#31363b;
      }
      .ColorScheme-ViewBackground {
        color:#fcfcfc;
      }
      .ColorScheme-ViewHover {
        color:#93cee9;
      }
      .ColorScheme-ViewFocus{
        color:#3daee9;
      }
      .ColorScheme-ButtonText {
        color:#31363b;
      }
      .ColorScheme-ButtonBackground {
        color:#eff0f1;
      }
      .ColorScheme-ButtonHover {
        color:#93cee9;
      }
      .ColorScheme-ButtonFocus{
        color:#3daee9;
      }
      </style><style
       type="text/css"
       id="current-color-scheme-97-6">
      .ColorScheme-Text {
        color:#31363b;
      }
      .ColorScheme-Background {
        color:#eff0f1;
      }
      .ColorScheme-Highlight {
        color:#3daee9;
      }
      .ColorScheme-ViewText {
        color:#31363b;
      }
      .ColorScheme-ViewBackground {
        color:#fcfcfc;
      }
      .ColorScheme-ViewHover {
        color:#93cee9;
      }
      .ColorScheme-ViewFocus{
        color:#3daee9;
      }
      .ColorScheme-ButtonText {
        color:#31363b;
      }
      .ColorScheme-ButtonBackground {
        color:#eff0f1;
      }
      .ColorScheme-ButtonHover {
        color:#93cee9;
      }
      .ColorScheme-ButtonFocus{
        color:#3daee9;
      }
      </style><style
       type="text/css"
       id="current-color-scheme-6">
      .ColorScheme-Text {
        color:#31363b;
      }
      .ColorScheme-Background {
        color:#eff0f1;
      }
      .ColorScheme-Highlight {
        color:#3daee9;
      }
      .ColorScheme-ViewText {
        color:#31363b;
      }
      .ColorScheme-ViewBackground {
        color:#fcfcfc;
      }
      .ColorScheme-ViewHover {
        color:#93cee9;
      }
      .ColorScheme-ViewFocus{
        color:#3daee9;
      }
      .ColorScheme-ButtonText {
        color:#31363b;
      }
      .ColorScheme-ButtonBackground {
        color:#eff0f1;
      }
      .ColorScheme-ButtonHover {
        color:#93cee9;
      }
      .ColorScheme-ButtonFocus{
        color:#3daee9;
      }
      </style><linearGradient
       inkscape:collect="always"
       xlink:href="#linearGradient1257"
       id="linearGradient8794"
       x1="5.3520002"
       y1="32.018501"
       x2="58.646"
       y2="32.018501"
       gradientUnits="userSpaceOnUse" /><linearGradient
       inkscape:collect="always"
       xlink:href="#linearGradient1257"
       id="linearGradient38909"
       gradientUnits="userSpaceOnUse"
       x1="5.3520002"
       y1="32.018501"
       x2="58.646"
       y2="32.018501" /><linearGradient
       inkscape:collect="always"
       xlink:href="#linearGradient1257"
       id="linearGradient38911"
       gradientUnits="userSpaceOnUse"
       x1="5.3520002"
       y1="32.018501"
       x2="58.646"
       y2="32.018501" /><linearGradient
       inkscape:collect="always"
       xlink:href="#linearGradient1257"
       id="linearGradient38913"
       gradientUnits="userSpaceOnUse"
       x1="5.3520002"
       y1="32.018501"
       x2="58.646"
       y2="32.018501" /><linearGradient
       inkscape:collect="always"
       xlink:href="#linearGradient1257"
       id="linearGradient38915"
       gradientUnits="userSpaceOnUse"
       x1="5.3520002"
       y1="32.018501"
       x2="58.646"
       y2="32.018501" /></defs><path
     d="M 12,0.99999998 C 2,0.99999998 0.99999998,6 0.99999998,12 0.99999998,20 4.0000001,23 12,23 20,23 23,20 23,12 23,6 22,0.99999998 12,0.99999998 Z"
     sketch:type="MSShapeGroup"
     id="path6"
     style="font-variation-settings:normal;display:inline;opacity:1;vector-effect:none;fill:url(#linearGradient18039);fill-opacity:1;stroke-width:1.11627;stroke-linecap:butt;stroke-linejoin:miter;stroke-miterlimit:4;stroke-dasharray:none;stroke-dashoffset:0;stroke-opacity:1;-inkscape-stroke:none;stop-color:#000000;stop-opacity:1"
     sodipodi:nodetypes="sssss"
     inkscape:label="Shape"
     sodipodi:insensitive="true"
     inkscape:export-filename="../../../../ícones big/path6.svg"
     inkscape:export-xdpi="96"
     inkscape:export-ydpi="96" /><g
     id="g6310"
     transform="matrix(0.27516348,0,0,0.27516348,3.1950438,3.17931)"
     style="stroke:url(#linearGradient8794);stroke-width:0.363898;stroke-dasharray:none"><path
       d="M 22.265,6.032 V 39.827 H 43.063 V 6.032 Z"
       fill="#81bdf8"
       id="path6291"
       style="stroke:url(#linearGradient38909);stroke-width:0.363898;stroke-dasharray:none" /><g
       fill-rule="evenodd"
       stroke-width="0.769"
       id="g6297"
       style="stroke:url(#linearGradient38915);stroke-width:0.363898;stroke-dasharray:none"><path
         d="m 34.599,19.007 a 1.9505001,1.9505001 0 1 0 0.001,3.901 1.9500001,1.9500001 0 0 0 -0.001,-3.9 m 22.746,11.697 a 1.3005001,1.3005001 0 1 0 10e-4,2.601 1.3,1.3 0 0 0 0,-2.6 m -46.143,-7.8 a 1.9505001,1.9505001 0 1 0 0.001,3.901 1.9500001,1.9500001 0 0 0 -0.001,-3.9 m 15.305,1.43 a 0.88,0.88 0 0 0 -0.254,0.07 c -0.657,0.29 -0.88,1.228 -0.015,3.2 0.865,1.972 2.099,3.338 2.757,3.049 0.658,-0.289 0.488,-2.12 -0.376,-4.092 -0.757,-1.726 -1.499,-2.302 -2.112,-2.226 m -7.783,0.825 c -0.514,-0.044 -1.218,0.467 -0.579,1.193 0.851,0.97 1.3,2.696 0.54,3.042 -0.762,0.346 -0.706,-1.287 -0.774,-2.155 -0.066,-0.868 -2.18,-1.391 -2.96,-0.315 -0.78,1.076 0.006,2.236 0.778,2.47 0.772,0.235 0.891,1.119 1.35,2.038 0.46,0.919 2.699,0.689 3.245,0 0.546,-0.689 0.885,-1.97 -0.178,-3.15 -1.063,-1.18 -0.741,-2.28 -1.029,-2.882 -0.071,-0.151 -0.222,-0.227 -0.393,-0.242 m 25.338,0.101 c -0.69,-0.162 -0.975,1.138 -1.137,2.357 -0.162,1.219 -0.773,2.477 -0.245,2.721 0.732,0.325 1.105,-1.674 1.932,-2.421 0.826,-0.749 0.139,-2.493 -0.551,-2.656 M 22.25,25.509 a 1.3,1.3 0 1 0 0,2.6 1.3,1.3 0 0 0 0,-2.6 m 15.795,0.307 c -0.845,0.062 -1.686,1.503 -2.1,2.503 -0.473,1.141 0.1,3.366 -1.015,4.201 -1.113,0.836 -1.928,0.86 -2.485,0.525 -0.557,-0.335 0.477,-0.291 -0.144,-1.564 -0.623,-1.272 -2.11,-0.874 -2.5,0.117 -0.39,0.991 0.418,0.947 0.138,1.532 -0.278,0.584 -2.646,1.216 -3.175,-0.539 -0.529,-1.755 -2.409,-3.664 -2.994,-3.19 -0.585,0.474 0.07,2.217 1.602,3.609 1.532,1.392 -0.393,2.142 -1.724,1.094 -1.33,-1.049 -2.896,0.797 -4.107,2.032 -1.213,1.234 -2.296,1.318 -3.159,0.578 -0.861,-0.738 -0.104,-2.747 -1.1,-4.767 -0.994,-2.02 -2.97,-1.014 -3.249,0.35 -0.279,1.364 2.496,2.284 1.958,3.042 -0.538,0.758 -2.69,0.586 -3.324,-0.842 -0.633,-1.429 -2.013,-0.966 -2.04,0.203 -0.028,1.17 1.068,0.353 1.923,1.209 L 32.647,58.005 54.743,35.91 c 2.6,-2.6 -0.377,-1.486 -0.99,-0.901 -0.612,0.585 -2.506,1.06 -2.73,0.418 -0.222,-0.64 2.122,-1.715 2.79,-2.44 0.668,-0.725 1.322,-2.78 0.241,-3.534 -1.081,-0.754 -2.612,0.607 -3.276,1.61 -0.669,1.002 -0.089,3.556 -0.98,4.336 -0.891,0.78 -1.382,0.305 -1.549,-0.363 -0.167,-0.668 1.924,-1.608 1.047,-3.27 -0.879,-1.663 -2.501,-0.909 -3.252,-0.13 -0.752,0.78 0.452,1.98 0.732,3.206 0.278,1.226 -2.573,1.195 -3.687,0.75 -1.114,-0.445 -1.476,-3.248 -1.95,-3.415 -0.474,-0.167 -1.679,0.928 -3.211,0.454 -1.531,-0.473 -0.26,-1.416 0.213,-2.53 0.473,-1.114 1.22,-3.798 0.264,-4.22 a 0.737,0.737 0 0 0 -0.36,-0.063 m 13.45,-1.607 a 1.9505003,1.9505003 0 1 0 0.002,3.901 1.9500003,1.9500003 0 0 0 -0.002,-3.9 M 6.652,29.41 a 1.3,1.3 0 1 0 0,2.6 1.3,1.3 0 0 0 0,-2.6"
         fill="#1b92f4"
         id="path6293"
         style="stroke:url(#linearGradient38911);stroke-width:0.363898;stroke-dasharray:none" /><path
         transform="matrix(1.2998,0,0,1.2998,1.454,-19.987)"
         d="m 38.498,34.004 a 1.5005001,1.5005001 0 1 0 0.001,3.001 1.5005001,1.5005001 0 0 0 -0.001,-3.001 z m -5.717,0.809 c -0.53,-0.125 -0.75,0.876 -0.875,1.814 -0.125,0.938 -0.593,1.906 -0.187,2.094 0.563,0.25 0.848,-1.288 1.484,-1.863 0.636,-0.576 0.107,-1.918 -0.424,-2.043 z m 7.014,3.064 c -0.706,0.086 -1.465,0.818 -1.848,1.397 -0.514,0.77 -0.068,2.735 -0.754,3.335 -0.686,0.6 -1.063,0.235 -1.191,-0.279 -0.13,-0.514 1.48,-1.236 0.805,-2.515 -0.676,-1.28 -1.924,-0.699 -2.502,-0.1 -0.578,0.6 0.347,1.524 0.562,2.467 0.214,0.943 -1.979,0.919 -2.836,0.576 a 0.852,0.852 0 0 1 -0.252,-0.176 17.546,21.501 0 0 1 -4.111,13.752 l 13.33,-13.33 c 2,-2 -0.29,-1.143 -0.762,-0.693 -0.47,0.45 -1.927,0.815 -2.1,0.322 -0.17,-0.493 1.631,-1.32 2.145,-1.877 0.514,-0.557 1.019,-2.14 0.188,-2.72 A 0.943,0.943 0 0 0 39.795,37.877 Z M 43,39 a 1,1 0 1 0 0,2 1,1 0 0 0 0,-2 z"
         fill="url(#a)"
         opacity="0.15"
         id="path6295"
         style="fill:url(#a-9);stroke:url(#linearGradient38913);stroke-width:0.279965;stroke-dasharray:none" /></g></g></svg>
