<svg width="24" height="24" viewBox="0 0 24 24" fill="none" xmlns="http://www.w3.org/2000/svg">
<path fill-rule="evenodd" clip-rule="evenodd" d="M9.3775 0.123915C9.50824 0.125307 9.6332 0.108652 9.75239 0.073954C11.3187 -0.0286516 12.8849 -0.0244899 14.451 0.0864444C15.871 0.197086 17.2456 0.505183 18.5748 1.01073C20.7846 1.92048 22.2966 3.49843 23.1109 5.74457C23.5766 7.0969 23.8516 8.4875 23.9357 9.91634C24.0521 11.7106 24.0105 13.5009 23.8107 15.2872C23.6612 16.5427 23.3363 17.7501 22.836 18.9094C21.9081 20.9194 20.4044 22.3058 18.3249 23.0687C16.6398 23.6381 14.9069 23.9378 13.1264 23.968C11.1236 24.0721 9.14087 23.9222 7.17815 23.5183C3.56552 22.7136 1.337 20.5111 0.49263 16.9109C0.134306 15.2903 -0.0281463 13.6499 0.00527377 11.9897C-0.0347169 10.2244 0.152728 8.4841 0.567607 6.76878C1.45278 3.40263 3.58964 1.31674 6.97821 0.511116C7.7678 0.318078 8.56757 0.18901 9.3775 0.123915Z" fill="url(#paint0_radial_1_5)"/>
<path d="M5 18.6667H19V7H5V18.6667ZM6.16667 8.16676H8.49997V10.5001H6.16667V8.16676ZM9.66672 8.16676H17.8334V10.5001H9.66672V8.16676ZM6.16667 11.6668H8.49997V14.0001H6.16667V11.6668ZM9.66672 11.6668H17.8334V14.0001H9.66672V11.6668ZM6.16667 15.1669H8.49997V17.5002H6.16667V15.1669ZM9.66672 15.1669H17.8334V17.5002H9.66672V15.1669Z" fill="#FAFAFA"/>
<defs>
<radialGradient id="paint0_radial_1_5" cx="0" cy="0" r="1" gradientUnits="userSpaceOnUse" gradientTransform="translate(12) rotate(90) scale(12)">
<stop stop-color="#8ACB8D"/>
<stop offset="1" stop-color="#4CAF50"/>
</radialGradient>
</defs>
</svg>
