<?xml version="1.0" encoding="UTF-8" standalone="no"?>
<svg
   width="24"
   height="24"
   version="1.1"
   id="svg7"
   sodipodi:docname="liferea.svg"
   inkscape:version="1.3 (0e150ed6c4, 2023-07-21)"
   xmlns:inkscape="http://www.inkscape.org/namespaces/inkscape"
   xmlns:sodipodi="http://sodipodi.sourceforge.net/DTD/sodipodi-0.dtd"
   xmlns="http://www.w3.org/2000/svg"
   xmlns:svg="http://www.w3.org/2000/svg">
  <defs
     id="defs7">
    <radialGradient
       fx="0"
       fy="0"
       cx="0"
       cy="0"
       r="1"
       gradientUnits="userSpaceOnUse"
       gradientTransform="matrix(0,16.5,-16.5,0,8.999651,0.749985)"
       spreadMethod="pad"
       id="radialGradient868-3">
      <stop
         style="stop-opacity:1;stop-color:#fafafa"
         offset="0"
         id="stop864-6" />
      <stop
         style="stop-opacity:1;stop-color:#c0c0c0"
         offset="1"
         id="stop866-7" />
    </radialGradient>
  </defs>
  <sodipodi:namedview
     id="namedview7"
     pagecolor="#ffffff"
     bordercolor="#000000"
     borderopacity="0.25"
     inkscape:showpageshadow="2"
     inkscape:pageopacity="0.0"
     inkscape:pagecheckerboard="0"
     inkscape:deskcolor="#d1d1d1"
     inkscape:zoom="12.671875"
     inkscape:cx="20.162762"
     inkscape:cy="22.609125"
     inkscape:window-width="2560"
     inkscape:window-height="998"
     inkscape:window-x="0"
     inkscape:window-y="0"
     inkscape:window-maximized="1"
     inkscape:current-layer="svg7" />
  <g
     id="g854"
     transform="matrix(1.3333333,0,0,1.3333333,-4.5225532e-4,-3.504174e-5)">
    <g
       id="g856">
      <g
         id="g862">
        <path
           d="m 7.195,0.836 c 0.09,0 0.176,-0.012 0.258,-0.035 1.078,-0.071 2.156,-0.067 3.231,0.008 0.976,0.078 1.921,0.289 2.836,0.636 1.519,0.625 2.558,1.711 3.121,3.254 0.316,0.93 0.507,1.887 0.566,2.867 0.078,1.235 0.051,2.465 -0.086,3.696 -0.105,0.863 -0.328,1.691 -0.672,2.488 -0.637,1.383 -1.672,2.336 -3.101,2.859 C 12.191,17 11,17.207 9.773,17.227 8.398,17.301 7.035,17.195 5.684,16.918 3.203,16.367 1.668,14.852 1.09,12.375 0.844,11.262 0.73,10.133 0.754,8.992 0.727,7.781 0.855,6.582 1.141,5.402 1.75,3.09 3.219,1.656 5.547,1.102 6.09,0.969 6.641,0.879 7.195,0.836 Z"
           style="fill:url(#radialGradient868-3);fill-rule:evenodd;stroke:none"
           id="path870" />
      </g>
    </g>
  </g>
  <g
     id="g13"
     transform="matrix(1.1349207,0,0,1.1349207,-21.743476,-10.122868)"
     style="stroke-width:0.881119">
    <rect
       x="32.909092"
       y="15"
       width="4.090909"
       height="1.6363636"
       rx="0.27272728"
       ry="0.27272728"
       opacity="0.3"
       id="rect8"
       style="stroke-width:0.881119" />
    <rect
       x="22"
       y="18"
       width="8.454545"
       height="8.454545"
       rx="4.2272725"
       ry="4.2272725"
       fill="#2968b4"
       id="rect9"
       style="stroke-width:0.881119" />
    <path
       d="m 26.227273,19.363636 c -1.581546,0 -2.863637,1.282091 -2.863637,2.863637 0,1.581545 1.282091,2.863636 2.863637,2.863636 1.581545,0 2.863636,-1.282091 2.863636,-2.863636 0,-1.581546 -1.282091,-2.863637 -2.863636,-2.863637 z M 25.940364,19.911 c 0.03355,-0.0035 0.07582,0.0019 0.109636,0 0.0038,0.01582 -0.02455,0.07254 -0.06245,0.155727 -0.242454,0.529637 -0.256363,1.150637 -0.03109,1.482273 0.04091,0.06 0.07746,0.117273 0.07746,0.124636 0,0.0074 -0.04364,0.015 -0.09355,0.015 -0.116455,0 -0.22691,-0.07091 -0.452182,-0.249272 -0.100091,-0.07909 -0.229909,-0.145637 -0.280364,-0.155728 -0.07909,-0.01582 -0.100636,-0.009 -0.202909,0.09355 -0.09546,0.09545 -0.124636,0.146727 -0.124636,0.234 0,0.330818 0.392454,0.593182 1.122545,0.747818 0.991364,0.21 1.235727,0.399273 1.263273,0.920455 0.03409,0.654 -0.313909,1.14709 -1.076455,1.528636 -0.09082,0.04555 -0.148636,0.06273 -0.186818,0.07745 -0.01691,-0.0016 -0.02945,0.0016 -0.04636,0 -0.0065,-0.02018 -0.01609,-0.06682 -0.01609,-0.155727 0,-0.347182 -0.136364,-0.704727 -0.342819,-0.904636 -0.05536,-0.05346 -0.210818,-0.166909 -0.343636,-0.249273 -0.132545,-0.08182 -0.266455,-0.177273 -0.296182,-0.218182 -0.04964,-0.06736 -0.05318,-0.109091 -0.01527,-0.234 0.06927,-0.228 0.151364,-0.355363 0.311728,-0.499363 0.084,-0.07555 0.168272,-0.138273 0.186818,-0.139909 0.01854,-0.0014 -0.106636,-0.03955 -0.295636,-0.07827 A 5.326909,5.326909 0 0 1 24.536636,22.234364 C 24.275364,22.14 23.923,21.941727 23.788818,21.798 l -0.01609,-0.01582 a 2.5074545,2.5074545 0 0 1 1.450091,-1.699364 2.4501818,2.4501818 0 0 1 0.468273,-0.140727 c 0.08127,-0.01636 0.165273,-0.02264 0.249273,-0.03109 z m 2.339454,1.169727 c 0.05864,0.03627 0.279546,0.515182 0.342818,0.748637 0.08182,0.301636 0.07582,0.823091 0,1.122545 -0.02864,0.114 -0.06545,0.220909 -0.07745,0.234273 -0.01227,0.01309 -0.05727,-0.063 -0.109364,-0.156 C 28.383454,22.937455 28.216,22.74 28.076909,22.593273 c -0.401182,-0.423546 -0.464455,-0.644182 -0.296455,-0.981818 0.08482,-0.170728 0.454091,-0.558819 0.499364,-0.530728 z"
       fill="#ffffff"
       id="path9"
       style="stroke-width:0.881119" />
    <path
       d="m 30.799273,15 c -0.09355,0 -0.177819,0.01636 -0.252,0.04909 a 0.40009091,0.40009091 0 0 0 -0.173455,0.138273 0.36872727,0.36872727 0 0 0 -0.06327,0.216545 c 0,0.123273 0.03382,0.222273 0.100909,0.298091 0.06818,0.07418 0.171819,0.139909 0.309819,0.196364 0.08782,0.03573 0.156272,0.06982 0.205363,0.102272 0.05073,0.03273 0.08564,0.06846 0.106364,0.107182 a 0.26590909,0.26590909 0 0 1 0.03355,0.138546 c 0,0.09082 -0.02809,0.160363 -0.08455,0.209454 -0.05673,0.04745 -0.134182,0.07146 -0.234,0.07146 -0.06982,0 -0.126273,-0.01636 -0.169091,-0.04909 a 0.30545454,0.30545454 0 0 1 -0.096,-0.131455 0.55036363,0.55036363 0 0 1 -0.03545,-0.174272 c -0.05073,0 -0.09,0.01418 -0.118363,0.04255 a 0.141,0.141 0 0 0 -0.04282,0.106909 c 0,0.09382 0.03764,0.169909 0.111818,0.227727 0.07582,0.05809 0.186545,0.08673 0.332182,0.08673 0.167727,0 0.300545,-0.03955 0.398454,-0.118364 0.09982,-0.07855 0.15,-0.188182 0.15,-0.329455 0,-0.114545 -0.03627,-0.206727 -0.109091,-0.276545 -0.07282,-0.06982 -0.175363,-0.131727 -0.306,-0.185455 a 1.47,1.47 0 0 1 -0.205091,-0.10009 0.31745454,0.31745454 0 0 1 -0.109091,-0.109091 0.33709091,0.33709091 0 0 1 -0.03109,-0.151909 c 0,-0.07718 0.024,-0.138819 0.07146,-0.184909 0.04773,-0.04609 0.114,-0.069 0.200182,-0.069 0.06273,0 0.111545,0.01391 0.147273,0.04227 a 0.22418182,0.22418182 0 0 1 0.078,0.107182 c 0.01636,0.04309 0.02482,0.08755 0.02482,0.133636 0.05345,0 0.096,-0.01173 0.127091,-0.03545 a 0.13036364,0.13036364 0 0 0 0.04909,-0.109364 c 0,-0.06545 -0.03627,-0.123818 -0.109091,-0.174545 C 31.034363,15.025091 30.931545,15 30.799273,15 Z m -5.978182,0.02236 v 0.09382 h 0.02864 c 0.04909,0 0.09164,0.0087 0.127091,0.02645 0.03736,0.01773 0.05591,0.05918 0.05591,0.124637 v 1.092545 c 0,0.06982 -0.01773,0.114546 -0.05345,0.133909 -0.03545,0.01773 -0.07909,0.02645 -0.129546,0.02645 h -0.02864 V 16.614 h 0.559636 v -0.09382 h -0.02918 c -0.05045,0 -0.09382,-0.0087 -0.129272,-0.02645 -0.03573,-0.01909 -0.05373,-0.06409 -0.05373,-0.133636 V 15.329455 L 26.004454,16.614 h 0.159 v -1.337454 c 0,-0.06982 0.01745,-0.113728 0.05318,-0.131455 0.03545,-0.01936 0.07882,-0.02891 0.129273,-0.02891 h 0.02891 v -0.09382 h -0.559364 v 0.09382 h 0.02864 c 0.04909,0 0.09191,0.0087 0.127636,0.02645 0.03709,0.01773 0.05509,0.05918 0.05509,0.124637 v 0.987545 l -0.797727,-1.232454 z m 1.763727,0 v 0.09382 H 26.614 c 0.05073,0 0.09354,0.0095 0.129,0.02891 0.03573,0.01773 0.05373,0.06164 0.05373,0.131455 V 16.371 c 0,0.06546 -0.01909,0.106909 -0.05591,0.124636 -0.03573,0.01636 -0.07773,0.02455 -0.126818,0.02455 h -0.02918 V 16.614 h 1.194546 l 0.01609,-0.39 H 27.679545 L 27.664,16.32 a 0.24736363,0.24736363 0 0 1 -0.06027,0.129 c -0.03136,0.03545 -0.08182,0.05345 -0.151909,0.05345 H 27.022 v -0.666819 h 0.537 V 15.72654 h -0.537273 v -0.592636 h 0.375 c 0.06682,0 0.114,0.01882 0.142091,0.05591 a 0.23727272,0.23727272 0 0 1 0.05373,0.126546 l 0.01091,0.096 h 0.11591 l -0.01091,-0.39 z m 1.301727,0 v 0.09382 h 0.02864 c 0.04309,0 0.07636,0.0082 0.09982,0.02454 0.024,0.01636 0.04364,0.04691 0.05836,0.09273 l 0.408,1.380545 h 0.204818 l 0.341727,-1.248545 0.363,1.248545 h 0.200727 l 0.376909,-1.324364 c 0.021,-0.07445 0.04255,-0.121909 0.06655,-0.142636 a 0.15790909,0.15790909 0 0 1 0.103091,-0.03082 h 0.04173 v -0.09382 h -0.543545 v 0.09382 h 0.051 c 0.09818,0 0.147273,0.03627 0.147273,0.109091 a 0.246,0.246 0 0 1 -0.009,0.05318 l -0.01527,0.06218 -0.196363,0.689728 c -0.021,0.07118 -0.03791,0.136363 -0.05127,0.195818 l -0.03791,0.169091 a 5.8243636,5.8243636 0 0 0 -0.096,-0.392182 L 29.15065,15.037899 h -0.160909 l -0.265636,0.956455 c -0.01909,0.07118 -0.03627,0.141818 -0.051,0.211636 -0.015,0.06818 -0.02809,0.131455 -0.04009,0.189545 a 7.1312727,7.1312727 0 0 0 -0.09573,-0.376363 l -0.205091,-0.714 a 0.82199999,0.82199999 0 0 0 -0.01364,-0.04446 0.17318182,0.17318182 0 0 1 -0.0046,-0.03736 c 0,-0.07146 0.04473,-0.107182 0.133636,-0.107182 h 0.05182 v -0.09382 z"
       opacity="0.7"
       id="path10"
       style="stroke-width:0.881119" />
    <rect
       x="31"
       y="18"
       width="6"
       height="0.54545456"
       rx="0.27272728"
       ry="0.27272728"
       opacity="0.35"
       id="rect10"
       style="stroke-width:0.881119" />
    <rect
       x="31"
       y="19.636364"
       width="6"
       height="0.54545456"
       rx="0.27272728"
       ry="0.27272728"
       opacity="0.35"
       id="rect11"
       style="stroke-width:0.881119" />
    <rect
       x="31"
       y="21.272728"
       width="6"
       height="0.54545456"
       rx="0.27272728"
       ry="0.27272728"
       opacity="0.35"
       id="rect12"
       style="stroke-width:0.881119" />
    <rect
       x="31"
       y="22.90909"
       width="6"
       height="0.54545456"
       rx="0.27272728"
       ry="0.27272728"
       opacity="0.35"
       id="rect13"
       style="stroke-width:0.881119" />
  </g>
</svg>
