<?xml version="1.0" encoding="UTF-8" standalone="no"?>
<svg
   width="24"
   height="24"
   version="1.1"
   id="svg1"
   sodipodi:docname="live-installer.svg"
   inkscape:version="1.3 (0e150ed6c4, 2023-07-21)"
   inkscape:export-filename="../../../../../../../../../Imagens/Big Icons/live-installer.pdf"
   inkscape:export-xdpi="96"
   inkscape:export-ydpi="96"
   xml:space="preserve"
   xmlns:inkscape="http://www.inkscape.org/namespaces/inkscape"
   xmlns:sodipodi="http://sodipodi.sourceforge.net/DTD/sodipodi-0.dtd"
   xmlns="http://www.w3.org/2000/svg"
   xmlns:svg="http://www.w3.org/2000/svg"><defs
     id="defs1"><radialGradient
       id="paint0_radial_3_321-5"
       cx="0"
       cy="0"
       r="1"
       gradientUnits="userSpaceOnUse"
       gradientTransform="matrix(0,22,-22,0,11.999987,1.0000149)"><stop
         stop-color="#555555"
         id="stop180-0"
         offset="0"
         style="stop-color:#737373;stop-opacity:1;" /><stop
         offset="1"
         stop-color="#222222"
         id="stop182-2"
         style="stop-color:#424242;stop-opacity:1;" /></radialGradient><radialGradient
       fx="0"
       fy="0"
       cx="0"
       cy="0"
       r="1"
       gradientUnits="userSpaceOnUse"
       gradientTransform="matrix(0,16.5,-16.5,0,8.99999,0.750011)"
       spreadMethod="pad"
       id="radialGradient2"><stop
         style="stop-opacity:1;stop-color:#737373"
         offset="0"
         id="stop1" /><stop
         style="stop-opacity:1;stop-color:#424242"
         offset="1"
         id="stop2" /></radialGradient><radialGradient
       fx="0"
       fy="0"
       cx="0"
       cy="0"
       r="1"
       gradientUnits="userSpaceOnUse"
       gradientTransform="matrix(0,21.999999,-21.999999,0,45.999986,1.0000146)"
       spreadMethod="pad"
       id="radialGradient2-4"><stop
         style="stop-opacity:1;stop-color:#737373"
         offset="0"
         id="stop1-7" /><stop
         style="stop-opacity:1;stop-color:#424242"
         offset="1"
         id="stop2-6" /></radialGradient></defs><sodipodi:namedview
     id="namedview1"
     pagecolor="#ffffff"
     bordercolor="#000000"
     borderopacity="0.25"
     inkscape:showpageshadow="2"
     inkscape:pageopacity="0.0"
     inkscape:pagecheckerboard="0"
     inkscape:deskcolor="#d1d1d1"
     inkscape:zoom="6.3359375"
     inkscape:cx="3.3144266"
     inkscape:cy="16.335388"
     inkscape:window-width="2560"
     inkscape:window-height="998"
     inkscape:window-x="0"
     inkscape:window-y="0"
     inkscape:window-maximized="1"
     inkscape:current-layer="svg1"><inkscape:page
       x="0"
       y="0"
       width="24"
       height="24"
       id="page1"
       margin="0"
       bleed="0" /></sodipodi:namedview><g
     id="g1"
     inkscape:groupmode="layer"
     inkscape:label="1"
     transform="translate(34)" /><g
     id="g2"
     transform="translate(-34.000452)"><path
       id="path2-1"
       d="m 43.593333,1.1146666 c 0.12,0 0.234667,-0.016 0.344,-0.046667 1.437333,-0.0946667 2.874667,-0.0893334 4.308,0.010667 1.301333,0.104 2.561333,0.3853334 3.781333,0.848 2.025333,0.8333333 3.410667,2.2813333 4.161333,4.3386666 0.421334,1.2399999 0.676,2.5159999 0.754667,3.8226668 0.104,1.646666 0.068,3.286666 -0.114667,4.928 -0.14,1.150666 -0.437333,2.254666 -0.896,3.317333 -0.849333,1.844 -2.229333,3.114666 -4.134666,3.812 -1.542667,0.521333 -3.130667,0.797333 -4.766667,0.824 -1.833333,0.09867 -3.650666,-0.04267 -5.452,-0.412 C 38.270667,21.822666 36.224,19.802666 35.453333,16.5 c -0.328,-1.484 -0.48,-2.989334 -0.448,-4.510667 -0.036,-1.614667 0.134667,-3.2133332 0.516,-4.7866665 C 36.333333,4.1199999 38.292,2.2079999 41.396,1.4693333 42.12,1.292 42.854666,1.172 43.593333,1.1146666 Z"
       style="fill:url(#radialGradient2-4);fill-rule:evenodd;stroke:none;stroke-width:1.33333" /><path
       id="path3"
       d="m 52.5,12 c 0,3.588 -2.912,6.5 -6.5,6.5 -3.588,0 -6.5,-2.912 -6.5,-6.5 0,-3.5880002 2.912,-6.5000001 6.5,-6.5000001 3.588,0 6.5,2.9119999 6.5,6.5000001 z"
       style="fill:#66bb6a;fill-opacity:1;fill-rule:nonzero;stroke:none;stroke-width:1.33333" /><path
       id="path4"
       d="M 44.557333,8.3906665 V 12 H 42.390666 L 46,15.609333 49.609333,12 H 47.442666 V 8.3906665 Z"
       style="fill:#fafafa;fill-opacity:1;fill-rule:nonzero;stroke:none;stroke-width:1.33333" /></g></svg>
