<?xml version="1.0" encoding="UTF-8" standalone="no"?>
<svg
   width="24"
   height="24"
   version="1.1"
   viewBox="0 0 6.349875 6.349875"
   id="svg7"
   sodipodi:docname="user_auth.svg"
   inkscape:version="1.3 (0e150ed6c4, 2023-07-21)"
   xmlns:inkscape="http://www.inkscape.org/namespaces/inkscape"
   xmlns:sodipodi="http://sodipodi.sourceforge.net/DTD/sodipodi-0.dtd"
   xmlns="http://www.w3.org/2000/svg"
   xmlns:svg="http://www.w3.org/2000/svg">
  <defs
     id="defs7">
    <radialGradient
       fx="0"
       fy="0"
       cx="0"
       cy="0"
       r="1"
       gradientUnits="userSpaceOnUse"
       gradientTransform="matrix(0,5.8207184,-5.8207184,0,3.174815,0.2645734)"
       spreadMethod="pad"
       id="radialGradient3666-6">
      <stop
         style="stop-color:#c9dcf1;stop-opacity:1;"
         offset="0"
         id="stop3662-7" />
      <stop
         style="stop-color:#5494de;stop-opacity:1;"
         offset="1"
         id="stop3664-5" />
    </radialGradient>
  </defs>
  <sodipodi:namedview
     id="namedview7"
     pagecolor="#ffffff"
     bordercolor="#000000"
     borderopacity="0.25"
     inkscape:showpageshadow="2"
     inkscape:pageopacity="0.0"
     inkscape:pagecheckerboard="0"
     inkscape:deskcolor="#d1d1d1"
     inkscape:zoom="13.700194"
     inkscape:cx="14.926796"
     inkscape:cy="27.189396"
     inkscape:window-width="1920"
     inkscape:window-height="998"
     inkscape:window-x="2560"
     inkscape:window-y="0"
     inkscape:window-maximized="1"
     inkscape:current-layer="svg7" />
  <path
     d="m 2.538065,0.2949075 c 0.031749,0 0.062088,-0.00423 0.091015,-0.012347 0.3802869,-0.025047 0.7605737,-0.023636 1.1398026,0.00282 0.3443042,0.027516 0.6776726,0.1019509 1.0004579,0.2243623 0.5358586,0.2204818 0.9023876,0.6035909 1.1009976,1.1479163 0.111476,0.3280768 0.178855,0.6656785 0.199669,1.0113939 0.02751,0.4356718 0.01799,0.8695797 -0.03034,1.3038407 -0.03704,0.3044419 -0.115708,0.5965361 -0.237062,0.877694 C 5.5778911,5.3384698 5.2127741,5.6746607 4.7086643,5.8591598 4.3005084,5.9970926 3.8803583,6.0701167 3.4475085,6.0771716 2.9624487,6.1032828 2.4816221,6.0658821 2.0050286,5.9681657 1.129804,5.7737886 0.588301,5.2393416 0.384399,4.3655277 0.297619,3.9728937 0.257402,3.5746158 0.265868,3.1721047 0.256368,2.7448988 0.301498,2.3219264 0.402391,1.9056569 0.617228,1.0900507 1.135448,0.5841774 1.9566991,0.3887423 2.1482536,0.3418243 2.3426304,0.3100743 2.5380654,0.2949053 Z"
     style="fill:url(#radialGradient3666-6);fill-rule:evenodd;stroke:none;stroke-width:0.352683;stroke-dasharray:none"
     id="path3668" />
  <g
     id="g7"
     transform="matrix(1.8100561,0,0,1.8100561,-12.305603,-11.954055)">
    <g
       id="g14720"
       transform="matrix(0.03518991,0,0,0.03518991,9.9646468,7.3687956)">
      <rect
         x="-65.128929"
         y="1.1194068"
         width="50.000355"
         height="53.999172"
         rx="8.9999886"
         ry="8.9999886"
         fill="#525252"
         stroke-linecap="round"
         stroke-linejoin="round"
         stroke-width="2.40734"
         id="rect14659"
         style="opacity:0.8" />
      <path
         d="m -40.128525,23.119563 a 16.000114,16.000114 0 0 0 -16.000113,16.000113 h 32.000227 A 16.000114,16.000114 0 0 0 -40.128525,23.119563 Z"
         fill="#55a3ff"
         stroke-linecap="round"
         stroke-linejoin="round"
         stroke-width="4.26663"
         id="path14661" />
      <rect
         x="-60.128895"
         y="30.119535"
         width="39.999527"
         height="11.999859"
         rx="2.9999835"
         ry="2.9999835"
         fill="#ffffff"
         stroke-linecap="round"
         stroke-linejoin="round"
         stroke-width="1.7108"
         id="rect14667" />
      <g
         transform="matrix(3.779602,0,0,3.779602,-70.128738,-5.8806431)"
         fill="#000000"
         opacity="0.65"
         stroke-linecap="round"
         stroke-linejoin="round"
         stroke-width="0.52916"
         id="g14677">
        <circle
           cx="4.7624002"
           cy="11.112"
           r="0.79373002"
           opacity="1"
           id="circle14669" />
        <circle
           cx="6.8790002"
           cy="11.112"
           r="0.79373002"
           opacity="1"
           id="circle14671" />
        <circle
           cx="8.9956999"
           cy="11.112"
           r="0.79373002"
           opacity="1"
           id="circle14673" />
        <circle
           cx="11.112"
           cy="11.112"
           r="0.79373002"
           opacity="1"
           id="circle14675" />
      </g>
      <circle
         cx="-40.12875"
         cy="13.119265"
         r="7.9999056"
         fill="#55a3ff"
         stroke-linecap="round"
         stroke-linejoin="round"
         stroke-width="2.13332"
         id="circle14679" />
    </g>
  </g>
</svg>
