<svg width="24" height="24" viewBox="0 0 24 24" fill="none" xmlns="http://www.w3.org/2000/svg">
<path fill-rule="evenodd" clip-rule="evenodd" d="M9.3775 0.123915C9.50824 0.125307 9.6332 0.108652 9.75239 0.073954C11.3187 -0.0286516 12.8849 -0.0244899 14.451 0.0864444C15.871 0.197086 17.2456 0.505183 18.5748 1.01073C20.7846 1.92048 22.2966 3.49843 23.1109 5.74457C23.5766 7.0969 23.8516 8.4875 23.9357 9.91634C24.0521 11.7106 24.0105 13.5009 23.8107 15.2872C23.6612 16.5427 23.3363 17.7501 22.836 18.9094C21.9081 20.9194 20.4044 22.3058 18.3249 23.0687C16.6398 23.6381 14.9069 23.9378 13.1264 23.968C11.1236 24.0721 9.14087 23.9222 7.17815 23.5183C3.56552 22.7136 1.337 20.5111 0.49263 16.9109C0.134306 15.2903 -0.0281463 13.6499 0.00527377 11.9897C-0.0347169 10.2244 0.152728 8.4841 0.567607 6.76878C1.45278 3.40263 3.58964 1.31674 6.97821 0.511116C7.7678 0.318078 8.56756 0.18901 9.3775 0.123915Z" fill="url(#paint0_radial_3_381)"/>
<path d="M2 17.1769L12 13.8313L22 17.1769L12 20.5224L2 17.1769Z" fill="white"/>
<path d="M16.1069 18.1524C17.3346 18.1524 18.3298 17.6527 18.3298 17.0363C18.3298 16.4199 17.3346 15.9202 16.1069 15.9202C14.8793 15.9202 13.8841 16.4199 13.8841 17.0363C13.8841 17.6527 14.8793 18.1524 16.1069 18.1524Z" fill="#FBBF00"/>
<path d="M8.66852 9.36689C8.66852 8.75048 8.17092 8.25078 7.5571 8.25078C6.94328 8.25078 6.44568 8.75048 6.44568 9.36689V16.0607C6.44568 16.6772 6.94328 17.1769 7.5571 17.1769C8.17092 17.1769 8.66852 16.6772 8.66852 16.0607V9.36689Z" fill="white" stroke="url(#paint1_linear_3_381)" stroke-width="0.600367"/>
<path d="M7.50391 10.6967C9.34538 10.6967 10.8382 9.19757 10.8382 7.34833C10.8382 5.4991 9.34538 4 7.50391 4C5.66245 4 4.16965 5.4991 4.16965 7.34833C4.16965 9.19757 5.66245 10.6967 7.50391 10.6967Z" fill="white"/>
<defs>
<radialGradient id="paint0_radial_3_381" cx="0" cy="0" r="1" gradientUnits="userSpaceOnUse" gradientTransform="translate(12) rotate(90) scale(24)">
<stop stop-color="#FFE698"/>
<stop offset="1" stop-color="#FBBF00"/>
</radialGradient>
<linearGradient id="paint1_linear_3_381" x1="12" y1="-4.8045e-07" x2="12" y2="24" gradientUnits="userSpaceOnUse">
<stop stop-color="#FFE698"/>
<stop offset="1" stop-color="#FBBF00"/>
</linearGradient>
</defs>
</svg>
