<svg width="24" height="24" viewBox="0 0 24 24" fill="none" xmlns="http://www.w3.org/2000/svg">
<path fill-rule="evenodd" clip-rule="evenodd" d="M9.59604 1.11359C9.71588 1.11486 9.83043 1.0996 9.93969 1.06779C11.3755 0.973736 12.8111 0.977551 14.2467 1.07924C15.5484 1.18066 16.8085 1.46308 18.0269 1.9265C20.0525 2.76044 21.4386 4.20689 22.185 6.26585C22.6119 7.50549 22.8639 8.78021 22.9411 10.09C23.0478 11.7347 23.0096 13.3758 22.8265 15.0133C22.6895 16.1642 22.3916 17.271 21.933 18.3336C21.0824 20.1761 19.704 21.447 17.7978 22.1463C16.2531 22.6682 14.6647 22.943 13.0325 22.9706C11.1966 23.0661 9.37913 22.9287 7.57997 22.5585C4.26839 21.8208 2.22559 19.8018 1.45158 16.5017C1.12311 15.0161 0.974199 13.5124 1.00483 11.9906C0.968176 10.3724 1.14 8.77709 1.52031 7.20471C2.33171 4.11908 4.2905 2.20701 7.39669 1.46852C8.12048 1.29157 8.8536 1.17326 9.59604 1.11359Z" fill="url(#paint0_radial_3_381)"/>
<path d="M2.83334 16.7455L12 13.6787L21.1667 16.7455L12 19.8122L2.83334 16.7455Z" fill="white"/>
<path d="M15.7647 17.6397C16.89 17.6397 17.8023 17.1816 17.8023 16.6166C17.8023 16.0516 16.89 15.5935 15.7647 15.5935C14.6394 15.5935 13.7271 16.0516 13.7271 16.6166C13.7271 17.1816 14.6394 17.6397 15.7647 17.6397Z" fill="#FBBF00"/>
<path d="M8.94615 9.58632C8.94615 9.02127 8.49001 8.56322 7.92734 8.56322C7.36467 8.56322 6.90854 9.02127 6.90854 9.58632V15.7223C6.90854 16.2874 7.36467 16.7455 7.92734 16.7455C8.49001 16.7455 8.94615 16.2874 8.94615 15.7223V9.58632Z" fill="white" stroke="url(#paint1_linear_3_381)" stroke-width="0.550336"/>
<path d="M7.87859 10.8053C9.56659 10.8053 10.935 9.4311 10.935 7.73597C10.935 6.04084 9.56659 4.66667 7.87859 4.66667C6.19058 4.66667 4.82217 6.04084 4.82217 7.73597C4.82217 9.4311 6.19058 10.8053 7.87859 10.8053Z" fill="white"/>
<defs>
<radialGradient id="paint0_radial_3_381" cx="0" cy="0" r="1" gradientUnits="userSpaceOnUse" gradientTransform="translate(12 1) rotate(90) scale(22)">
<stop stop-color="#FFE698"/>
<stop offset="1" stop-color="#FBBF00"/>
</radialGradient>
<linearGradient id="paint1_linear_3_381" x1="12" y1="0.999999" x2="12" y2="23" gradientUnits="userSpaceOnUse">
<stop stop-color="#FFE698"/>
<stop offset="1" stop-color="#FBBF00"/>
</linearGradient>
</defs>
</svg>
