<svg xmlns="http://www.w3.org/2000/svg" xml:space="preserve" width="24" height="24" viewBox="0 0 6.35 6.35"><g style="stroke-width:.759852"><g fill="#fff" style="fill:none;stroke-width:.759852"><path d="M-21.902 6.835a7.98 7.98 0 0 0-8-8 7.98 7.98 0 0 0-8 8 7.98 7.98 0 0 0 8 8 7.98 7.98 0 0 0 8-8zm-5.074 0a2.913 2.913 0 0 1-2.926 2.928 2.913 2.913 0 0 1-2.93-2.928c0-1.61 1.188-2.926 2.928-2.926s2.928 1.348 2.928 2.926z" opacity=".75" style="stroke-width:.759852" transform="matrix(.32014 0 0 .32014 13.01 1.01)"/><path d="M-29.903 2.833a4.002 4.002 0 1 0 .002 8.004 4.002 4.002 0 0 0-.002-8.004zm0 2a2.002 2.002 0 1 1 .001 4.004 2.002 2.002 0 0 1-.003-4.004z" opacity=".35" style="stroke-width:.759852" transform="matrix(.32014 0 0 .32014 13.01 1.01)"/></g></g><path d="M3.116.265a8.346 8.346 0 0 0-.487.018.336.336 0 0 1-.09.012c-.196.015-.39.047-.582.094C1.136.584.617 1.09.403 1.906c-.09.372-.137.748-.138 1.129v.049l.001.088c-.008.403.032.8.119 1.194.203.873.745 1.408 1.62 1.602.477.098.958.135 1.443.11.433-.008.853-.08 1.26-.219.418-.153.74-.409.965-.768V3.71a.557.557 0 0 1-.245-.208.556.556 0 0 1 0-.617.551.551 0 0 1 .245-.207V1.254A1.882 1.882 0 0 0 4.77.51a3.62 3.62 0 0 0-1-.225 8.29 8.29 0 0 0-.53-.02Z" style="fill:#5ed698;fill-opacity:1;fill-rule:evenodd;stroke:none;stroke-width:.352771"/><g style="opacity:.35;stroke-width:.759852"><g style="stroke-width:.759852"><g fill="#fff" style="fill:none;stroke-width:.759852"><path d="M-21.902 6.835a7.98 7.98 0 0 0-8-8 7.98 7.98 0 0 0-8 8 7.98 7.98 0 0 0 8 8 7.98 7.98 0 0 0 8-8zm-5.074 0a2.913 2.913 0 0 1-2.926 2.928 2.913 2.913 0 0 1-2.93-2.928c0-1.61 1.188-2.926 2.928-2.926s2.928 1.348 2.928 2.926z" opacity=".75" style="stroke-width:.759852" transform="matrix(.32014 0 0 .32014 13.01 1.01)"/><path d="M-29.903 2.833a4.002 4.002 0 1 0 .002 8.004 4.002 4.002 0 0 0-.002-8.004zm0 2a2.002 2.002 0 1 1 .001 4.004 2.002 2.002 0 0 1-.003-4.004z" opacity=".35" style="stroke-width:.759852" transform="matrix(.32014 0 0 .32014 13.01 1.01)"/></g></g></g><path fill-opacity=".875" fill-rule="evenodd" d="m3.42 1.77.782-.145a.173.173 0 0 1 .204.17v.515c0 .083-.059.154-.14.17l-.677.127c-.079.015-.093.029-.093.11V4.19c0 .473-.392.652-.652.652-.296 0-.509-.177-.509-.428 0-.247.167-.416.525-.484l.279-.054c.071-.013.108-.062.108-.136l-.01-1.791c0-.097.065-.155.184-.18z" clip-rule="evenodd" opacity=".125" style="fill:#fff;stroke-width:.30425"/><path d="m-48.43 6.3 2.953-.553c.401-.077.77.23.77.642v1.948a.653.653 0 0 1-.53.64l-2.557.478c-.298.058-.35.11-.35.418v5.573c0 1.787-1.484 2.463-2.468 2.463-1.12 0-1.922-.672-1.922-1.62 0-.932.63-1.572 1.985-1.828l1.052-.203c.27-.052.41-.235.41-.516l-.04-6.77c0-.365.245-.583.697-.673z" style="fill:#fff;fill-opacity:1;fill-rule:evenodd;stroke:none;stroke-width:1.33333" transform="matrix(.26458 0 0 .26458 16.35 0)"/></svg>