<?xml version="1.0" encoding="UTF-8" standalone="no"?>
<svg
   width="24"
   height="24"
   version="1"
   id="svg4"
   sodipodi:docname="meterbridge.svg"
   inkscape:version="1.3 (0e150ed6c4, 2023-07-21)"
   inkscape:export-filename="../../../../../../../../../Imagens/Big Icons/meterbridge.pdf"
   inkscape:export-xdpi="96"
   inkscape:export-ydpi="96"
   xml:space="preserve"
   xmlns:inkscape="http://www.inkscape.org/namespaces/inkscape"
   xmlns:sodipodi="http://sodipodi.sourceforge.net/DTD/sodipodi-0.dtd"
   xmlns="http://www.w3.org/2000/svg"
   xmlns:svg="http://www.w3.org/2000/svg"><defs
     id="defs4"><linearGradient
       x1="236.0594"
       y1="-0.63604498"
       x2="222.89369"
       y2="515.02106"
       gradientUnits="userSpaceOnUse"
       gradientTransform="matrix(-0.04928733,0,0,-0.04928733,57.000046,23.000014)"
       spreadMethod="pad"
       id="linearGradient2"><stop
         style="stop-opacity:1;stop-color:#4f4f4f"
         offset="0"
         id="stop1" /><stop
         style="stop-opacity:1;stop-color:#7d7d7d"
         offset="1"
         id="stop2" /></linearGradient><clipPath
       clipPathUnits="userSpaceOnUse"
       id="clipPath5"><path
         d="M 0,0 H 19 V 19 H 0 Z"
         id="path5" /></clipPath><clipPath
       clipPathUnits="userSpaceOnUse"
       id="clipPath5-9"><path
         d="M 0,0 H 19 V 19 H 0 Z"
         id="path5-4" /></clipPath></defs><sodipodi:namedview
     id="namedview4"
     pagecolor="#ffffff"
     bordercolor="#000000"
     borderopacity="0.25"
     inkscape:showpageshadow="2"
     inkscape:pageopacity="0.0"
     inkscape:pagecheckerboard="0"
     inkscape:deskcolor="#d1d1d1"
     inkscape:zoom="6.3359375"
     inkscape:cx="-22.806412"
     inkscape:cy="3.5511714"
     inkscape:window-width="2560"
     inkscape:window-height="998"
     inkscape:window-x="0"
     inkscape:window-y="0"
     inkscape:window-maximized="1"
     inkscape:current-layer="svg4"><inkscape:page
       x="0"
       y="0"
       width="24"
       height="24"
       id="page9"
       margin="0"
       bleed="0" /></sodipodi:namedview><g
     id="g1"
     inkscape:groupmode="layer"
     inkscape:label="1"
     transform="translate(34)" /><g
     id="g10"
     transform="translate(-33.999547,3.3977558e-5)"><path
       id="path2"
       d="m 48.406666,22.885333 c -0.12,0 -0.234666,0.016 -0.344,0.04667 -1.437333,0.09467 -2.874666,0.08933 -4.308,-0.01067 -1.301333,-0.104 -2.561333,-0.385334 -3.781333,-0.848 C 37.948,21.239999 36.562667,19.792 35.812,17.734666 c -0.421333,-1.24 -0.676,-2.516 -0.754667,-3.822666 -0.104,-1.646667 -0.068,-3.286667 0.114667,-4.9280002 0.14,-1.1506667 0.437333,-2.2546666 0.896,-3.3173333 0.849333,-1.8439999 2.229333,-3.1146666 4.134667,-3.8119999 1.542666,-0.5213333 3.130666,-0.7973333 4.766666,-0.824 1.833333,-0.0986666 3.650667,0.042667 5.452,0.412 3.308,0.7346667 5.354666,2.7546666 6.125333,6.0573332 0.328,1.484 0.48,2.9893332 0.448,4.5106662 0.036,1.614667 -0.134667,3.213334 -0.516,4.786667 -0.812,3.082667 -2.770666,4.994666 -5.874666,5.733333 -0.724,0.177333 -1.458667,0.297333 -2.197334,0.354667 z"
       style="fill:url(#linearGradient2);fill-rule:evenodd;stroke:none;stroke-width:1.33333" /><path
       id="path3"
       d="m 46,4.4999999 c 4.156,0 7.5,3.3439999 7.5,7.5000001 0,4.156 -3.344,7.5 -7.5,7.5 -4.156,0 -7.5,-3.344 -7.5,-7.5 0,-4.1560002 3.344,-7.5000001 7.5,-7.5000001 z"
       style="fill:#4f4f4f;fill-opacity:1;fill-rule:nonzero;stroke:none;stroke-width:1.33333" /><path
       id="path4"
       d="m 46,5.8906665 c -3.385334,0 -6.109333,2.724 -6.109333,6.1093335 0,1.114666 0.297333,2.156 0.817333,3.057333 h 3.625333 c 0,-0.921333 0.745333,-1.666667 1.666667,-1.666667 0.921333,0 1.666666,0.745334 1.666666,1.666667 H 51.292 c 0.536,-0.932 0.822666,-1.984 0.817333,-3.057333 0,-3.3853335 -2.724,-6.1093335 -6.109333,-6.1093335 z"
       style="fill:#ffe485;fill-opacity:1;fill-rule:nonzero;stroke:none;stroke-width:1.33333" /><g
       opacity="0.3"
       id="g6"
       transform="translate(34)"><path
         d="m 5.277,7.832 c 0,0 1.145,-1.43 3.723,-1.43 2.578,0 3.723,1.43 3.723,1.43"
         style="fill:none;stroke:#000000;stroke-width:0.6;stroke-linecap:round;stroke-linejoin:miter;stroke-miterlimit:4;stroke-dasharray:none;stroke-opacity:1"
         transform="scale(1.3333333)"
         clip-path="url(#clipPath5-9)"
         id="path6-1" /></g><path
       id="path7-2"
       d="M 48.057333,8.7866664 C 50.052,9.3066664 50.964,10.442666 50.964,10.442666"
       style="fill:none;stroke:#e93232;stroke-width:0.8;stroke-linecap:round;stroke-linejoin:miter;stroke-miterlimit:4;stroke-dasharray:none;stroke-opacity:1" /><path
       id="path8-9"
       d="m 43.713333,10.333333 c -0.129333,0 -0.265333,0.036 -0.38,0.104 -0.369333,0.213333 -0.5,0.693333 -0.286667,1.062667 L 44.588,14.166666 c 0.292,-0.464 0.797333,-0.754666 1.349333,-0.776 L 44.396,10.724 c -0.141334,-0.245334 -0.401334,-0.390667 -0.682667,-0.390667 z"
       style="fill:#3f3f3f;fill-opacity:1;fill-rule:nonzero;stroke:none;stroke-width:1.33333" /></g></svg>
