<?xml version="1.0" encoding="UTF-8" standalone="no"?>
<svg
   width="24"
   height="24"
   viewBox="0 0 6.349875 6.349875"
   version="1.1"
   id="svg4527"
   sodipodi:docname="terasology.svg"
   xml:space="preserve"
   inkscape:version="1.2.2 (b0a8486541, 2022-12-01)"
   inkscape:export-filename="terasology.pdf"
   inkscape:export-xdpi="96"
   inkscape:export-ydpi="96"
   xmlns:inkscape="http://www.inkscape.org/namespaces/inkscape"
   xmlns:sodipodi="http://sodipodi.sourceforge.net/DTD/sodipodi-0.dtd"
   xmlns:xlink="http://www.w3.org/1999/xlink"
   xmlns="http://www.w3.org/2000/svg"
   xmlns:svg="http://www.w3.org/2000/svg"><sodipodi:namedview
     id="namedview4529"
     pagecolor="#ffffff"
     bordercolor="#000000"
     borderopacity="0.25"
     inkscape:showpageshadow="2"
     inkscape:pageopacity="0.0"
     inkscape:pagecheckerboard="0"
     inkscape:deskcolor="#d1d1d1"
     showgrid="false"
     inkscape:zoom="11.313709"
     inkscape:cx="33.322407"
     inkscape:cy="4.9055533"
     inkscape:window-width="2560"
     inkscape:window-height="1000"
     inkscape:window-x="1680"
     inkscape:window-y="0"
     inkscape:window-maximized="1"
     inkscape:current-layer="svg4527" /><defs
     id="defs4381"><linearGradient
       inkscape:collect="always"
       id="linearGradient11575"><stop
         style="stop-color:#50c164;stop-opacity:1;"
         offset="0"
         id="stop11571" /><stop
         style="stop-color:#50c164;stop-opacity:0;"
         offset="1"
         id="stop11573" /></linearGradient><linearGradient
       id="a"
       x1="388.57001"
       x2="428.57001"
       y1="528.78998"
       y2="528.78998"
       gradientTransform="matrix(0.14550905,0,0,0.14550905,-43.575809,-73.04044)"
       gradientUnits="userSpaceOnUse"><stop
         stop-color="#9c6d42"
         offset="0"
         id="stop4373"
         style="stop-color:#6d502f;stop-opacity:1;" /><stop
         stop-color="#9c6d42"
         stop-opacity="0"
         offset="1"
         id="stop4375" /></linearGradient><clipPath
       id="b"><rect
         x="1.587"
         y="1.587"
         width="13.758"
         height="13.758"
         ry="0.79400003"
         fill="#71c947"
         id="rect4378" /></clipPath><linearGradient
       id="paint0_linear_18_187"
       x1="12"
       y1="1"
       x2="12"
       y2="23"
       gradientUnits="userSpaceOnUse"
       gradientTransform="matrix(0.26457812,0,0,0.26457812,-10.583129,-7.6808226e-6)"><stop
         stop-color="#33BEF0"
         id="stop4656"
         offset="0"
         style="stop-color:#dcdcdc;stop-opacity:1;" /><stop
         offset="1"
         stop-color="#0A85D9"
         id="stop4658"
         style="stop-color:#727272;stop-opacity:1;" /></linearGradient><linearGradient
       inkscape:collect="always"
       xlink:href="#a"
       id="linearGradient9237"
       gradientUnits="userSpaceOnUse"
       gradientTransform="matrix(0.14550905,0,0,0.14550905,-56.275553,-73.04044)"
       x1="388.57001"
       y1="528.78998"
       x2="428.57001"
       y2="528.78998" /><clipPath
       clipPathUnits="userSpaceOnUse"
       id="clipPath10870"><path
         d="M 0,0 H 19 V 19 H 0 Z"
         id="path10868" /></clipPath><linearGradient
       x1="12"
       y1="1"
       x2="12"
       y2="23"
       gradientUnits="userSpaceOnUse"
       gradientTransform="matrix(0.75,0,0,0.75,-1.13388e-5,-2.17728e-5)"
       spreadMethod="pad"
       id="linearGradient10880"><stop
         style="stop-opacity:1;stop-color:#dcdcdc"
         offset="0"
         id="stop10876" /><stop
         style="stop-opacity:1;stop-color:#727272"
         offset="1"
         id="stop10878" /></linearGradient><clipPath
       clipPathUnits="userSpaceOnUse"
       id="clipPath10902"><path
         d="M 6.941,4.871 2.816,4.875 2.812,9 H 0.754 c -0.024,1.141 0.09,2.266 0.336,3.375 0.578,2.477 2.113,3.992 4.594,4.543 1.097,0.227 2.203,0.336 3.316,0.332 0.258,0 0.516,-0.008 0.773,-0.023 1.227,-0.02 2.415,-0.227 3.575,-0.618 1.429,-0.523 2.464,-1.476 3.101,-2.859 0.344,-0.797 0.567,-1.625 0.672,-2.488 0.086,-0.77 0.129,-1.539 0.129,-2.309 0,-0.461 -0.016,-0.922 -0.043,-1.387 C 17.195,7.355 17.172,7.145 17.148,6.938 h -1.96 V 4.875 H 13.125 V 9 H 11.062 V 6.934 L 6.938,6.938 Z"
         id="path10900" /></clipPath><clipPath
       clipPathUnits="userSpaceOnUse"
       id="clipPath10910"><path
         d="m 386.74952,511.66249 h 43.63904 v 33.94148 h -43.63904 z"
         id="path10908" /></clipPath><linearGradient
       x1="388.57001"
       y1="528.78998"
       x2="428.57001"
       y2="528.78998"
       gradientUnits="userSpaceOnUse"
       spreadMethod="pad"
       id="linearGradient10916"><stop
         style="stop-opacity:1;stop-color:#ffffff"
         offset="0"
         id="stop10912" /><stop
         style="stop-opacity:0;stop-color:#ffffff"
         offset="1"
         id="stop10914" /></linearGradient><mask
       maskUnits="userSpaceOnUse"
       x="0"
       y="0"
       width="1"
       height="1"
       id="mask10918"><g
         id="g10924"><g
           clip-path="url(#clipPath10910)"
           id="g10922"><path
             d="m 386.74952,511.66249 h 43.63904 v 33.94148 h -43.63904 z"
             style="fill:url(#linearGradient10916);stroke:none"
             id="path10920" /></g></g></mask><linearGradient
       x1="388.57001"
       y1="528.78998"
       x2="428.57001"
       y2="528.78998"
       gradientUnits="userSpaceOnUse"
       spreadMethod="pad"
       id="linearGradient10932"><stop
         style="stop-opacity:1;stop-color:#9c6d42"
         offset="0"
         id="stop10928" /><stop
         style="stop-opacity:1;stop-color:#9c6d42"
         offset="1"
         id="stop10930" /></linearGradient><linearGradient
       inkscape:collect="always"
       xlink:href="#linearGradient11575"
       id="linearGradient11577"
       x1="0.265094"
       y1="1.7205327"
       x2="6.0496705"
       y2="1.7205327"
       gradientUnits="userSpaceOnUse" /></defs><path
     id="path4385"
     style="stroke-width:0.423048"
     d="m 3.1284296,0.26509488 c -0.1661841,9.7426e-4 -0.3324813,0.006682 -0.4986677,0.0175696 -0.02891,0.008418 -0.059249,0.0122241 -0.090949,0.0118854 C 2.3423853,0.31033785 2.1484498,0.34178217 1.956948,0.38859912 1.1351188,0.58398723 0.61671271,1.089914 0.40203473,1.9063061 0.31609781,2.2615934 0.27056347,2.6211531 0.26509488,2.9852887 v 0.147275 c 1.9482e-4,0.013281 2.1558e-4,0.026497 5.1675e-4,0.03979 -5.065e-4,0.025165 -3.8133e-4,0.050319 -5.1675e-4,0.075446 -1.3542e-4,0.025127 -2.3567e-4,0.050356 0,0.075446 0.003299,0.3512577 0.0428073,0.6988851 0.11885345,1.0428099 0.204786,0.8731598 0.74540137,1.4072755 1.62157457,1.6024546 0.3867642,0.079582 0.7767543,0.1185354 1.1699314,0.1167865 0.090733,-4.036e-4 0.1817702,-0.00301 0.2728461,-0.00775 C 3.880118,6.0702168 4.2999703,5.997585 4.7086638,5.8594753 5.2130021,5.674456 5.5780992,5.3382559 5.8031491,4.8507712 5.9244845,4.5696308 6.0030588,4.2767917 6.0393058,3.9722892 6.0695839,3.7015102 6.0849704,3.4304399 6.0852969,3.1589181 6.0854928,2.9960051 6.0803805,2.8327436 6.0697943,2.6695519 6.0493953,2.3230158 5.9827322,1.9857259 5.8698104,1.6577473 5.672303,1.1129921 5.3055698,0.73016167 4.7696408,0.50951959 4.4472791,0.38690901 4.1136324,0.31259802 3.7692048,0.28576505 3.5951747,0.27343768 3.4213219,0.26654995 3.2472831,0.26509488 Z" /><path
     id="path4387"
     style="stroke-width:0.423048"
     d="m 0.26561163,3.1749375 c -4.7688e-4,0.024302 -3.8597e-4,0.048596 -5.1675e-4,0.072862 -1.3542e-4,0.025127 -2.3567e-4,0.050356 0,0.075446 0.003299,0.3512577 0.0428073,0.6988851 0.11885345,1.0428099 0.204786,0.8731598 0.74540137,1.4072755 1.62157457,1.6024546 0.3865952,0.079547 0.7764122,0.1184991 1.1694146,0.1167865 v -2.910359 z" /><path
     id="path4389"
     style="fill:#8f6335;fill-opacity:1;stroke-width:0.423048"
     d="m 0.88158258,5.357707 c 0.0352585,0.038424 0.0721721,0.074831 0.11058539,0.1100687 V 5.357707 Z" /><path
     id="rect4391"
     style="fill:#a2703c;fill-opacity:1;stroke-width:0.423048"
     d="M 0.99216797,5.357707 V 5.4677757 C 1.1919705,5.6510616 1.4346059,5.7913139 1.7197578,5.8884135 V 5.357707 Z" /><path
     id="rect4393"
     style="fill:#875d32;fill-opacity:1;stroke-width:0.423048"
     d="m 1.7197578,5.357707 v 0.5307065 c 0.091019,0.030994 0.1860506,0.057884 0.2857651,0.080097 0.1468741,0.030221 0.2940276,0.054883 0.4418248,0.073379 V 5.357707 Z" /><path
     id="rect4395"
     style="fill:#b77939;fill-opacity:1;stroke-width:0.423048"
     d="m 2.4473477,5.357707 v 0.6841825 c 0.2412275,0.030189 0.4838958,0.044469 0.7275898,0.043407 V 5.357707 Z" /><path
     id="rect4397"
     style="fill:#956837;fill-opacity:1;stroke-width:0.423048"
     d="m 3.1749375,5.357707 v 0.7275899 h 5.168e-4 c 0.090733,-4.036e-4 0.1817702,-0.00301 0.2728461,-0.00775 0.1530001,-0.0026 0.3041257,-0.013547 0.4542269,-0.032555 V 5.357707 Z" /><path
     id="rect4399"
     style="fill:#a2703c;fill-opacity:1;stroke-width:0.423048"
     d="M 3.9025273,5.357707 V 6.0449901 C 4.1488846,6.0137919 4.3915852,5.9607461 4.6301172,5.885313 V 5.357707 Z" /><path
     id="rect4401"
     style="fill:#956837;fill-opacity:1;stroke-width:0.423048"
     d="M 4.6301172,5.357707 V 5.885313 C 4.6564322,5.876993 4.6824442,5.868336 4.7086642,5.859475 4.9594652,5.7674674 5.1759724,5.6376823 5.357707,5.4708762 V 5.357707 Z" /><path
     id="path4403"
     style="fill:#a2703c;fill-opacity:1;stroke-width:0.423048"
     d="M 5.357707,5.357707 V 5.4708762 C 5.3970628,5.4347533 5.4347594,5.3973377 5.4708762,5.357707 Z" /><path
     id="rect4405"
     style="fill:#a2703c;fill-opacity:1;stroke-width:0.423048"
     d="m 0.45991119,4.6301172 c 0.0980224,0.285421 0.23858555,0.528069 0.42167139,0.7275898 H 0.99216797 V 4.6301172 Z" /><rect
     x="0.99222076"
     y="4.6300116"
     width="0.7276426"
     height="0.7276426"
     ry="0"
     fill="#946f2d"
     id="rect4407"
     style="stroke-width:0.423048" /><rect
     x="1.7198633"
     y="4.6300116"
     width="0.7276426"
     height="0.7276426"
     ry="0"
     fill="#8f6335"
     id="rect4409"
     style="stroke-width:0.423048" /><rect
     x="2.447506"
     y="4.6300116"
     width="0.7276426"
     height="0.7276426"
     ry="0"
     fill="#aa7034"
     id="rect4411"
     style="stroke-width:0.423048" /><rect
     x="3.1747253"
     y="4.6300116"
     width="0.7276426"
     height="0.7276426"
     ry="0"
     fill="#956837"
     id="rect4413"
     style="stroke-width:0.423048" /><rect
     x="3.9023678"
     y="4.6300116"
     width="0.7276426"
     height="0.7276426"
     ry="0"
     fill="#8f6335"
     id="rect4415"
     style="stroke-width:0.423048" /><rect
     x="4.6300106"
     y="4.6300116"
     width="0.7276426"
     height="0.7276426"
     ry="0"
     fill="#8f6335"
     id="rect4417"
     style="stroke-width:0.423048" /><path
     id="rect4419"
     style="fill:#ac7740;fill-opacity:1;stroke-width:0.423048"
     d="M 5.357707,4.6301172 V 5.357707 H 5.4708762 C 5.6033564,5.2123374 5.7142496,5.0433381 5.8031491,4.8507712 c 0.031419,-0.072799 0.059548,-0.1462874 0.085264,-0.220654 z" /><path
     id="rect4421"
     style="fill:#a36b30;fill-opacity:1;stroke-width:0.423048"
     d="m 0.30385144,3.9025273 c 0.0194553,0.1551812 0.0461083,0.3098122 0.0800969,0.4635285 0.0215341,0.091816 0.047005,0.179742 0.0759629,0.2640614 H 0.99216797 V 3.9025273 Z" /><rect
     x="0.99222076"
     y="3.902369"
     width="0.7276426"
     height="0.7276426"
     ry="0"
     fill="#a2703c"
     id="rect4423"
     style="stroke-width:0.423048" /><rect
     x="1.7198633"
     y="3.902369"
     width="0.7276426"
     height="0.7276426"
     ry="0"
     fill="#7c502e"
     id="rect4425"
     style="stroke-width:0.423048" /><rect
     x="2.447506"
     y="3.902369"
     width="0.7276426"
     height="0.7276426"
     ry="0"
     fill="#a2703c"
     id="rect4427"
     style="stroke-width:0.423048" /><rect
     x="3.1747253"
     y="3.902369"
     width="0.7276426"
     height="0.7276426"
     ry="0"
     fill="#bc844a"
     id="rect4429"
     style="stroke-width:0.423048" /><rect
     x="3.9023678"
     y="3.902369"
     width="0.7276426"
     height="0.7276426"
     ry="0"
     fill="#a2703c"
     id="rect4431"
     style="stroke-width:0.423048" /><rect
     x="4.6300106"
     y="3.902369"
     width="0.7276426"
     height="0.7276426"
     ry="0"
     fill="#866b3b"
     id="rect4433"
     style="stroke-width:0.423048" /><path
     id="rect4435"
     style="fill:#a2703c;fill-opacity:1;stroke-width:0.423048"
     d="m 5.357707,3.9025273 v 0.7275899 h 0.5307065 c 0.073597,-0.2128284 0.1240311,-0.4321737 0.1508923,-0.657828 0.0026,-0.023215 0.00486,-0.046542 0.00723,-0.069762 z" /><path
     id="rect4437"
     style="fill:#a2703c;fill-opacity:1;stroke-width:0.423048"
     d="m 0.26561163,3.1749375 c -0.004794,0.2442984 0.008054,0.4868178 0.0382398,0.7275898 H 0.99216797 V 3.1749375 Z" /><rect
     x="0.99222076"
     y="3.1747262"
     width="0.7276426"
     height="0.7276426"
     ry="0"
     fill="#956837"
     id="rect4439"
     style="stroke-width:0.423048" /><rect
     x="1.7198633"
     y="3.1747262"
     width="0.7276426"
     height="0.7276426"
     ry="0"
     fill="#a36b30"
     id="rect4441"
     style="stroke-width:0.423048" /><rect
     x="2.447506"
     y="3.1747262"
     width="0.7276426"
     height="0.7276426"
     ry="0"
     fill="#ab7033"
     id="rect4443"
     style="stroke-width:0.423048" /><rect
     x="3.1747253"
     y="3.1747262"
     width="0.7276426"
     height="0.7276426"
     ry="0"
     fill="#8f6335"
     id="rect4445"
     style="stroke-width:0.423048" /><rect
     x="3.9023678"
     y="3.1747262"
     width="0.7276426"
     height="0.7276426"
     ry="0"
     fill="#845531"
     id="rect4447"
     style="stroke-width:0.423048" /><rect
     x="4.6300106"
     y="3.1747262"
     width="0.7276426"
     height="0.7276426"
     ry="0"
     fill="#a2703c"
     id="rect4449"
     style="stroke-width:0.423048" /><path
     id="rect4451"
     style="fill:#ac7740;fill-opacity:1;stroke-width:0.423048"
     d="M 5.357707,3.1749375 V 3.9025273 H 6.0465403 C 6.0713295,3.6602361 6.0844775,3.4178242 6.0852969,3.1749375 Z" /><path
     id="path4453"
     style="stroke-width:0.423048"
     d="m 3.1749375,0.26457812 c -0.1816671,5.539e-5 -0.3635056,0.006185 -0.5451756,0.0180864 -0.02891,0.008418 -0.059249,0.0122241 -0.090949,0.0118854 C 2.3423853,0.31033785 2.1484498,0.34178217 1.956948,0.38859912 1.1351188,0.58398723 0.61671271,1.089914 0.40203473,1.9063061 0.31609781,2.2615934 0.27056347,2.6211531 0.26509488,2.9852887 v 0.147275 c 1.9482e-4,0.013281 2.1558e-4,0.026497 5.1675e-4,0.03979 -1.734e-5,8.618e-4 1.691e-5,0.00172 0,0.00258 H 3.1749375 Z" /><path
     id="rect4455"
     style="fill:#3fa13d;fill-opacity:1;stroke-width:0.423048"
     d="m 0.30281793,2.4473477 c -0.0235679,0.1870453 -0.0364237,0.3753769 -0.0382398,0.5648122 -2.5562e-4,0.026664 -1.7531e-4,0.053386 0,0.080097 1.7532e-4,0.026712 4.2726e-4,0.053338 0.001034,0.080097 -1.734e-5,8.618e-4 1.691e-5,0.00172 0,0.00258 H 0.99216797 V 2.4473477 Z" /><rect
     x="0.99222076"
     y="2.4475069"
     width="0.7276426"
     height="0.7276426"
     ry="0"
     fill="#674726"
     id="rect4457"
     style="stroke-width:0.423048" /><rect
     x="1.7198633"
     y="2.4475069"
     width="0.7276426"
     height="0.7276426"
     ry="0"
     fill="#a36b30"
     id="rect4459"
     style="stroke-width:0.423048" /><rect
     x="2.447506"
     y="2.4475069"
     width="0.7276426"
     height="0.7276426"
     ry="0"
     fill="#977047"
     id="rect4461"
     style="stroke-width:0.423048" /><rect
     x="3.1747253"
     y="2.4475069"
     width="0.7276426"
     height="0.7276426"
     ry="0"
     fill="#a36b30"
     id="rect4463"
     style="stroke-width:0.423048" /><rect
     x="3.9023678"
     y="2.4475069"
     width="0.7276426"
     height="0.7276426"
     ry="0"
     fill="#3b843a"
     id="rect4465"
     style="stroke-width:0.423048" /><rect
     x="4.6300106"
     y="2.4475069"
     width="0.7276426"
     height="0.7276426"
     ry="0"
     fill="#b17a41"
     id="rect4467"
     style="stroke-width:0.423048" /><path
     id="rect4469"
     style="fill:#a2703c;fill-opacity:1;stroke-width:0.423048"
     d="m 5.357707,2.4473477 v 0.7275898 h 0.7275899 c 1.8e-5,-0.00534 -6.5e-6,-0.010676 0,-0.016019 1.959e-4,-0.162913 -0.00492,-0.3261745 -0.015503,-0.4893662 -0.00439,-0.074513 -0.011487,-0.148548 -0.020154,-0.2222042 z" /><path
     id="rect4471"
     style="fill:#4eb84b;fill-opacity:1;stroke-width:0.423048"
     d="m 0.45887769,1.7197578 c -0.0206225,0.060327 -0.0399708,0.1223856 -0.056843,0.1865483 -0.0433662,0.179288 -0.0763422,0.3594986 -0.0992168,0.5410416 H 0.99216797 V 1.7197578 Z" /><rect
     x="0.99222076"
     y="1.7198644"
     width="0.7276426"
     height="0.7276426"
     ry="0"
     fill="#956837"
     id="rect4473"
     style="stroke-width:0.423048" /><rect
     x="1.7198633"
     y="1.7198644"
     width="0.7276426"
     height="0.7276426"
     ry="0"
     fill="#7c502e"
     id="rect4475"
     style="stroke-width:0.423048" /><rect
     x="2.447506"
     y="1.7198644"
     width="0.7276426"
     height="0.7276426"
     ry="0"
     fill="#50a85f"
     id="rect4477"
     style="stroke-width:0.423048" /><rect
     x="3.1747253"
     y="1.7198644"
     width="0.7276426"
     height="0.7276426"
     ry="0"
     fill="#43c340"
     id="rect4479"
     style="stroke-width:0.423048" /><rect
     x="3.9023678"
     y="1.7198644"
     width="0.7276426"
     height="0.7276426"
     ry="0"
     fill="#3b843a"
     id="rect4481"
     style="stroke-width:0.423048" /><rect
     x="4.6300106"
     y="1.7198644"
     width="0.7276426"
     height="0.7276426"
     ry="0"
     fill="#9b783a"
     id="rect4483"
     style="stroke-width:0.423048" /><path
     id="rect4485"
     style="fill:#377c36;fill-opacity:1;stroke-width:0.423048"
     d="M 5.357707,1.7197578 V 2.4473477 H 6.0496408 C 6.0205391,2.200026 5.9678071,1.957404 5.8904806,1.7197578 Z" /><path
     id="rect4487"
     style="fill:#499648;fill-opacity:1;stroke-width:0.423048"
     d="M 0.87744855,0.99216797 C 0.6959306,1.1917246 0.5564473,1.4343375 0.45887769,1.7197578 H 0.99216797 V 0.99216797 Z" /><rect
     x="0.99222076"
     y="0.99222177"
     width="0.7276426"
     height="0.7276426"
     ry="0"
     fill="#45a943"
     id="rect4489"
     style="stroke-width:0.423048" /><rect
     x="1.7198633"
     y="0.99222177"
     width="0.7276426"
     height="0.7276426"
     ry="0"
     fill="#3b843a"
     id="rect4491"
     style="stroke-width:0.423048" /><rect
     x="2.447506"
     y="0.99222177"
     width="0.7276426"
     height="0.7276426"
     ry="0"
     fill="#4eb84b"
     id="rect4493"
     style="stroke-width:0.423048" /><rect
     x="3.1747253"
     y="0.99222177"
     width="0.7276426"
     height="0.7276426"
     ry="0"
     fill="#499648"
     id="rect4495"
     style="stroke-width:0.423048" /><rect
     x="3.9023678"
     y="0.99222177"
     width="0.7276426"
     height="0.7276426"
     ry="0"
     fill="#45a943"
     id="rect4497"
     style="stroke-width:0.423048" /><rect
     x="4.6300106"
     y="0.99222177"
     width="0.7276426"
     height="0.7276426"
     ry="0"
     fill="#3ca33b"
     id="rect4499"
     style="stroke-width:0.423048" /><path
     id="rect4501"
     style="fill:#499648;fill-opacity:1;stroke-width:0.423048"
     d="M 5.357707,0.99216797 V 1.7197578 h 0.5327736 c -0.00674,-0.020728 -0.013559,-0.041357 -0.02067,-0.06201 C 5.776177,1.3994923 5.6441893,1.17758 5.4744935,0.99216797 Z" /><path
     id="path4383"
     style="fill:#76bd74;fill-opacity:1;stroke-width:0.423048"
     d="M 5.357707,0.87589828 V 0.99268472 H 5.4750102 C 5.4376984,0.95188389 5.3986991,0.91317443 5.357707,0.87589828 Z" /><path
     id="path4503"
     style="fill:#3eb13b;fill-opacity:1;stroke-width:0.423048"
     d="m 0.99268472,0.87641504 c -0.0401844,0.0368775 -0.0784917,0.0753569 -0.11523617,0.11575293 h 0.11523617 z" /><path
     id="rect4505"
     style="fill:#499648;fill-opacity:1;stroke-width:0.423048"
     d="M 1.7197578,0.45629391 C 1.4344994,0.5527599 1.1921577,0.69325168 0.99216797,0.87693179 V 0.99216797 H 1.7197578 Z" /><path
     id="rect4507"
     style="fill:#548b53;fill-opacity:1;stroke-width:0.423048"
     d="M 2.4473477,0.30333469 C 2.2821721,0.320744 2.1186108,0.34907697 1.956948,0.38859912 1.8748669,0.40811371 1.7957824,0.43058465 1.7197578,0.45629391 v 0.53587406 h 0.7275899 z" /><path
     id="rect4509"
     style="fill:#3b843a;fill-opacity:1;stroke-width:0.423048"
     d="m 3.1749375,0.26457812 c -0.1816671,5.539e-5 -0.3635056,0.006185 -0.5451756,0.0180864 -0.02891,0.008418 -0.059249,0.0122241 -0.090949,0.0118854 -0.030606,0.00246 -0.060978,0.005571 -0.091465,0.008785 V 0.9921682 h 0.7275898 z" /><path
     id="rect4511"
     style="fill:#3b843a;fill-opacity:1;stroke-width:0.423048"
     d="M 3.1749375,0.26457812 V 0.99216797 H 3.9025273 V 0.29816714 C 3.858286,0.29308469 3.8138171,0.28924061 3.7692048,0.28576505 3.579291,0.27231256 3.3896656,0.26508312 3.1997417,0.26457812 Z" /><path
     id="rect4513"
     style="fill:#499648;fill-opacity:1;stroke-width:0.423048"
     d="M 3.9025273,0.29816714 V 0.99216797 H 4.6301172 V 0.45991119 C 4.3935044,0.38078691 4.1507988,0.3266886 3.9025273,0.29816714 Z" /><path
     id="rect4515"
     style="fill:#46b044;fill-opacity:1;stroke-width:0.423048"
     d="M 4.6301172,0.45991119 V 0.99216797 H 5.357707 V 0.87589828 C 5.1917837,0.72501585 4.9958587,0.60265357 4.7696408,0.50951959 4.7233476,0.49191194 4.6768645,0.47554368 4.6301172,0.45991119 Z" /><path
     clip-path="url(#b)"
     fill="none"
     d="M 1.587,1.587 H 15.345 V 15.345 H 1.587 Z"
     id="path4523"
     transform="matrix(0.423048,0,0,0.423048,-0.40658687,-0.40658687)" /><path
     fill="none"
     d="M 0.26479031,0.26479026 H 6.0850847 V 6.0850847 H 0.26479031 Z"
     id="path4525"
     style="stroke-width:0.423048" /><path
     id="path9233"
     style="fill:url(#linearGradient9237);stroke-width:0.11193"
     d="m 2.448381,1.7176908 -1.45518,0.00155 -0.001,1.4556964 H 0.265615 c -0.0079,0.4017524 0.03161,0.7989027 0.118337,1.1911183 0.204786,0.8731598 0.745401,1.4072755 1.621574,1.6024546 0.386765,0.079582 0.776755,0.1185354 1.169932,0.1167865 0.09073,-4.036e-4 0.18177,-0.00301 0.272846,-0.00775 0.431817,-0.00733 0.85167,-0.079961 1.2603625,-0.2180703 0.504335,-0.1850203 0.869432,-0.5212204 1.094482,-1.0087051 0.121335,-0.2811404 0.19991,-0.5739795 0.236157,-0.878482 0.03028,-0.270779 0.04566,-0.5418493 0.04599,-0.8133711 1.95e-4,-0.162913 -0.0049,-0.3261745 -0.0155,-0.4893662 -0.0044,-0.074513 -0.01149,-0.148548 -0.02015,-0.2222042 l -0.69245,-5.168e-4 V 1.7197578 H 4.630117 V 3.1749375 H 3.902011 V 2.4457974 l -1.454663,0.00155 z" /><path
     id="path9235"
     style="fill:url(#linearGradient11577);fill-opacity:1;stroke-width:0.423048"
     d="m 3.057118,0.26561163 c -0.142445,0.002049 -0.284911,0.007721 -0.427356,0.0170529 -0.02891,0.008418 -0.05925,0.0122241 -0.09095,0.0118854 C 2.342384,0.31033783 2.148449,0.34178213 1.956947,0.38859913 1.135118,0.58398724 0.616712,1.089914 0.402034,1.9063061 0.316094,2.2615934 0.270562,2.6211531 0.265094,2.9852887 v 0.147275 c 1.95e-4,0.013281 2.15e-4,0.026497 5.17e-4,0.03979 -2.1e-5,0.00103 2e-5,0.00207 0,0.0031 L 0.992167,3.1749375 V 1.7202746 l 0.727073,0.00413 0.728107,-0.00517 -5.17e-4,0.7275898 H 3.900976 L 3.901493,3.174931 H 4.630116 V 1.7207913 l 0.7275895,-0.00155 -10e-4,0.7275898 h 0.692965 C 6.0179845,2.1781137 5.9583945,1.9150411 5.8698095,1.6577473 5.6723025,1.1129921 5.3055685,0.73016167 4.7696395,0.50951959 4.447279,0.38690901 4.113632,0.31259802 3.769205,0.28576505 3.610886,0.27455056 3.452634,0.26782826 3.294308,0.26561163 Z" /><g
     id="g10896"
     transform="matrix(0.35277082,0,0,0.35277082,16.349875,0)"><g
       id="g10898"
       clip-path="url(#clipPath10902)"><g
         id="g10904"
         transform="matrix(0.412475,0,0,0.412475,-159.5244,-207.04784)"><g
           id="g10906" /><g
           id="g10926"
           mask="url(#mask10918)"><path
             d="M 6.941,4.871 2.816,4.875 2.812,9 H 0.754 c -0.024,1.141 0.09,2.266 0.336,3.375 0.578,2.477 2.113,3.992 4.594,4.543 1.097,0.227 2.203,0.336 3.316,0.332 0.258,0 0.516,-0.008 0.773,-0.023 1.227,-0.02 2.415,-0.227 3.575,-0.618 1.429,-0.523 2.464,-1.476 3.101,-2.859 0.344,-0.797 0.567,-1.625 0.672,-2.488 0.086,-0.77 0.129,-1.539 0.129,-2.309 0,-0.461 -0.016,-0.922 -0.043,-1.387 C 17.195,7.355 17.172,7.145 17.148,6.938 h -1.96 V 4.875 H 13.125 V 9 H 11.062 V 6.934 L 6.938,6.938 Z"
             style="fill:url(#linearGradient10932);stroke:none"
             id="path10934" /></g></g></g></g></svg>
