<?xml version="1.0" encoding="UTF-8" standalone="no"?>
<svg
   width="24"
   height="24"
   image-rendering="optimizeSpeed"
   version="1.1"
   id="svg57966"
   sodipodi:docname="mkvmerge.svg"
   xml:space="preserve"
   inkscape:version="1.2.2 (b0a8486541, 2022-12-01)"
   xmlns:inkscape="http://www.inkscape.org/namespaces/inkscape"
   xmlns:sodipodi="http://sodipodi.sourceforge.net/DTD/sodipodi-0.dtd"
   xmlns="http://www.w3.org/2000/svg"
   xmlns:svg="http://www.w3.org/2000/svg"><defs
     id="defs57970"><radialGradient
       fx="0"
       fy="0"
       cx="0"
       cy="0"
       r="1"
       gradientUnits="userSpaceOnUse"
       gradientTransform="matrix(0,21.999999,-21.999999,0,11.999082,0.99994498)"
       spreadMethod="pad"
       id="radialGradient868-3-1"><stop
         style="stop-opacity:1;stop-color:#fafafa"
         offset="0"
         id="stop864-6-5" /><stop
         style="stop-color:#ececec;stop-opacity:1;"
         offset="1"
         id="stop866-7-5" /></radialGradient></defs><sodipodi:namedview
     id="namedview57968"
     pagecolor="#ffffff"
     bordercolor="#000000"
     borderopacity="0.25"
     inkscape:showpageshadow="2"
     inkscape:pageopacity="0.0"
     inkscape:pagecheckerboard="0"
     inkscape:deskcolor="#d1d1d1"
     showgrid="false"
     inkscape:zoom="6.828125"
     inkscape:cx="-14.059497"
     inkscape:cy="40.2746"
     inkscape:window-width="2560"
     inkscape:window-height="998"
     inkscape:window-x="1680"
     inkscape:window-y="0"
     inkscape:window-maximized="1"
     inkscape:current-layer="svg57966" /><path
     d="m 9.5928811,1.1146316 c 0.12,0 0.2346667,-0.016 0.344,-0.046667 1.4373329,-0.0946667 2.8746669,-0.0893334 4.3079999,0.010667 1.301333,0.104 2.561333,0.3853334 3.781333,0.848 2.025333,0.8333333 3.410667,2.2813333 4.161333,4.3386666 0.421334,1.2399999 0.676,2.5159999 0.754667,3.8226668 0.104,1.646666 0.068,3.286666 -0.114667,4.928 -0.14,1.150666 -0.437333,2.254666 -0.896,3.317333 -0.849333,1.844 -2.229333,3.114666 -4.134666,3.812 -1.542667,0.521333 -3.130667,0.797333 -4.766667,0.824 -1.833333,0.09867 -3.6506662,-0.04267 -5.4519995,-0.412 -3.3079999,-0.734667 -5.3546666,-2.754667 -6.1253332,-6.057333 -0.328,-1.484 -0.47999999,-2.989334 -0.448,-4.510667 -0.036,-1.614667 0.1346667,-3.2133332 0.516,-4.7866665 0.812,-3.0826666 2.7706666,-4.9946666 5.8746665,-5.7333332 0.724,-0.1773333 1.4586666,-0.2973333 2.1973333,-0.3546667 z"
     style="fill:url(#radialGradient868-3-1);fill-rule:evenodd;stroke:none;stroke-width:1.33333"
     id="path870-5" /><g
     id="g58574"
     transform="matrix(0.38874703,0,0,0.38874703,11.120357,-7.2869728)"><path
       d="m 14.211314,43.836371 a 15.066,11.179 59 1 1 -19.1620005,11.515 15.066,11.179 59 1 1 19.1630005,-11.515 z"
       fill="none"
       stroke="#474747"
       stroke-width="0.961842"
       id="path58556" /><g
       stroke-width="0.767"
       id="g58566"
       transform="translate(-28.100686,17.574371)"><path
         d="m 32.708,23.784 c -4.985,0 -9.025,4.038 -9.025,9.025 0,4.987 4.038,9.026 9.025,9.026 4.987,0 9.026,-4.039 9.026,-9.026 0,-4.987 -4.039,-9.025 -9.026,-9.025 z m -1.614,4.77 c 3.39,0 6.164,2.736 6.164,6.126 0,3.39 -2.773,6.164 -6.164,6.164 -3.391,0 -6.127,-2.773 -6.127,-6.164 0,-3.391 2.737,-6.127 6.127,-6.127 z"
         fill="#462aae"
         id="path58558" /><path
         d="m 14.334,32.89 c 0,0 -3.523,3.364 -3.248,5.465 0.38,2.897 4.019,3.36 6.89,3.326 6.964,-0.08 31.762,-8.217 31.68,-17.978 -0.025,-3.156 -5.702,-3.435 -5.702,-3.247 0,0 4.21,1.056 4.118,3.088 -0.342,7.577 -21.055,16.083 -30.254,16.315 -1.93,0.049 -4.618,-0.367 -5.386,-2.138 -0.688,-1.589 1.9,-4.831 1.9,-4.831 z"
         fill="#474747"
         id="path58560" /><path
         d="m 42.214,23.817 a 4.396,4.396 0 1 1 -8.792,0 4.396,4.396 0 1 1 8.792,0 z"
         fill="#c4303d"
         id="path58562" /><path
         d="m 30.216,38.43 a 2.812,2.812 0 1 1 -5.623,0 2.812,2.812 0 1 1 5.623,0 z"
         fill="#606060"
         id="path58564" /></g></g></svg>
