<?xml version="1.0" encoding="UTF-8" standalone="no"?>
<svg
   width="24"
   height="24"
   version="1.1"
   id="svg4"
   sodipodi:docname="mongodb-compass.svg"
   inkscape:version="1.3 (0e150ed6c4, 2023-07-21)"
   xmlns:inkscape="http://www.inkscape.org/namespaces/inkscape"
   xmlns:sodipodi="http://sodipodi.sourceforge.net/DTD/sodipodi-0.dtd"
   xmlns:xlink="http://www.w3.org/1999/xlink"
   xmlns="http://www.w3.org/2000/svg"
   xmlns:svg="http://www.w3.org/2000/svg">
  <defs
     id="defs4">
    <linearGradient
       inkscape:collect="always"
       id="linearGradient2597">
      <stop
         style="stop-color:#cccccc;stop-opacity:1;"
         offset="0"
         id="stop2593" />
      <stop
         style="stop-color:#f2f2f2;stop-opacity:1;"
         offset="1"
         id="stop2595" />
    </linearGradient>
    <linearGradient
       inkscape:collect="always"
       xlink:href="#linearGradient2597"
       id="linearGradient9"
       gradientUnits="userSpaceOnUse"
       x1="236.0594"
       y1="-0.63604528"
       x2="222.89369"
       y2="515.02106"
       gradientTransform="matrix(-0.04928739,0,0,-0.04928739,23.00005,23.000013)" />
  </defs>
  <sodipodi:namedview
     id="namedview4"
     pagecolor="#ffffff"
     bordercolor="#000000"
     borderopacity="0.25"
     inkscape:showpageshadow="2"
     inkscape:pageopacity="0.0"
     inkscape:pagecheckerboard="0"
     inkscape:deskcolor="#d1d1d1"
     inkscape:zoom="6.3359375"
     inkscape:cx="-34.80148"
     inkscape:cy="16.808878"
     inkscape:window-width="2560"
     inkscape:window-height="998"
     inkscape:window-x="0"
     inkscape:window-y="0"
     inkscape:window-maximized="1"
     inkscape:current-layer="svg4" />
  <path
     d="m 14.404033,22.886406 c -0.119965,-0.0013 -0.234509,0.01405 -0.343681,0.04584 -1.435889,0.09394 -2.871384,0.09029 -4.3070767,-0.01153 C 8.4515954,22.819424 7.191514,22.536958 5.9729818,22.073558 3.9474179,21.239517 2.561358,19.79308 1.8149497,17.734148 1.3881209,16.494472 1.1360652,15.219752 1.0588812,13.90994 0.95222326,12.26517 0.99032241,10.624048 1.1734251,8.9866223 1.3105426,7.8356631 1.608337,6.7290134 2.0669562,5.6662294 2.9175579,3.8237682 4.2958798,2.5528928 6.2021189,1.8536033 7.7469336,1.3316499 9.3353183,1.056922 10.967569,1.0293703 c 1.835758,-0.0954697 3.65323,0.041796 5.452417,0.4120426 3.311719,0.7377336 5.354434,2.7565944 6.128394,6.0567302 0.328649,1.4857684 0.477447,2.9894279 0.44684,4.5111759 0.03662,1.618204 -0.135146,3.213489 -0.515596,4.785855 -0.811319,3.085687 -2.770099,4.997889 -5.876338,5.736214 -0.723736,0.177139 -1.456886,0.295331 -2.199253,0.355018 z"
     style="fill:url(#linearGradient9);fill-opacity:1;fill-rule:evenodd;stroke:none;stroke-width:1.08382"
     id="path7" />
  <g
     id="g16"
     transform="matrix(0.31250651,0,0,0.31250651,8.2499484,1.9999479)"
     style="stroke-width:3.19993">
    <g
       id="g15"
       transform="translate(-60)"
       style="stroke-width:3.19993">
      <path
         d="m 72.126,44.02 c -0.138,0.452 -0.112,0.934 -0.182,1.4 -0.114,1.114 -0.2,2.236 -0.488,3.325 -0.104,0.462 -0.267,0.91 -0.397,1.365 0.313,0.604 0.416,1.274 0.485,1.938 0.143,0.775 0.18,1.566 0.24,2.348 0.05,0.391 -0.156,0.887 0.19,1.182 0.396,0.13 0.79,0.27 1.178,0.421 -0.051,-0.755 -0.127,-1.51 -0.106,-2.268 -0.03,-0.717 0.087,-1.428 0.143,-2.141 0.036,-0.345 0.037,-0.698 0.175,-1.023 0.105,-0.308 0.32,-0.571 0.47,-0.86 a 5.179,5.179 0 0 1 -0.645,-0.523 c -0.173,-0.396 -0.394,-0.776 -0.535,-1.183 -0.341,-1.297 -0.546,-2.642 -0.528,-3.982 z"
         fill="#abacac"
         id="path12"
         style="stroke-width:3.19993" />
      <path
         d="m 72.037,9.507 a 5.79,5.79 0 0 1 -0.81,1.001 c -0.643,0.642 -1.353,1.185 -1.81,1.717 l -0.014,0.016 -0.015,0.015 c -1.687,1.688 -3.316,3.426 -4.327,5.47 l -0.009,0.02 -0.011,0.019 c -0.732,1.226 -1.381,2.462 -1.791,3.778 l -0.007,0.026 -0.01,0.026 c -1.318,3.1 -1.846,6.512 -1.873,9.89 v 0.006 c 0.035,6.807 3.836,13.26 9.264,17.543 l 0.068,0.054 0.048,0.07 0.013,0.018 c 0.053,-0.184 0.09,-0.306 0.157,-0.555 0.244,-1.073 0.376,-2.18 0.49,-3.306 l 0.053,-0.503 h 1.135 l 0.055,0.5 c 0.141,1.311 0.424,2.594 1.087,3.628 0.063,0.076 0.083,0.094 0.103,0.092 0.024,-0.003 0.168,-0.06 0.343,-0.206 0.333,-0.277 0.692,-0.774 1.208,-1.103 3.356,-2.982 5.673,-6.99 6.678,-11.278 v -0.002 c 1.015,-4.297 0.68,-8.896 -0.905,-13.036 L 81.152,23.398 81.148,23.387 C 79.686,19.068 77.038,15.158 73.632,12.009 L 73.62,12 C 72.846,11.245 72.471,10.355 72.036,9.508 Z"
         fill="#0d6436"
         id="path13"
         style="stroke-width:3.19993" />
      <path
         d="m 72,8 c -0.135,1.69 -1.975,2.66 -3.008,3.861 -1.695,1.696 -3.371,3.475 -4.432,5.618 -0.742,1.243 -1.414,2.518 -1.844,3.898 -1.354,3.189 -1.888,6.676 -1.916,10.11 0.034,7.015 3.932,13.612 9.476,17.986 0.852,1.253 0.98,0.031 1.182,-0.727 0.28,-1.232 0.418,-2.485 0.542,-3.74 z"
         fill="#10aa50"
         id="path14"
         style="stroke-width:3.19993" />
      <path
         d="m 72,8.408 c 0.071,2.138 0.008,4.28 0,6.425 0.058,7.126 0.051,14.253 0,21.38 -0.01,2.76 0.139,5.518 0,8.274 0.115,1.621 0.358,3.37 1.266,4.775 0.81,1.043 1.746,-0.69 2.482,-1.114 3.452,-3.063 5.826,-7.172 6.858,-11.575 1.042,-4.41 0.7,-9.12 -0.926,-13.365 -1.495,-4.416 -4.197,-8.403 -7.667,-11.61 -0.921,-0.9 -1.4,-2.096 -2.013,-3.19 z"
         fill="#12935a"
         id="path15"
         style="stroke-width:3.19993" />
    </g>
  </g>
</svg>
