<?xml version="1.0" encoding="UTF-8" standalone="no"?>
<svg
   width="24"
   height="24"
   version="1.1"
   id="svg5"
   sodipodi:docname="appimagekit-motrix.svg"
   inkscape:version="1.3 (0e150ed6c4, 2023-07-21)"
   xmlns:inkscape="http://www.inkscape.org/namespaces/inkscape"
   xmlns:sodipodi="http://sodipodi.sourceforge.net/DTD/sodipodi-0.dtd"
   xmlns="http://www.w3.org/2000/svg"
   xmlns:svg="http://www.w3.org/2000/svg"
   xmlns:sketch="http://www.bohemiancoding.com/sketch/ns">
  <defs
     id="defs5" />
  <sodipodi:namedview
     id="namedview5"
     pagecolor="#ffffff"
     bordercolor="#000000"
     borderopacity="0.25"
     inkscape:showpageshadow="2"
     inkscape:pageopacity="0.0"
     inkscape:pagecheckerboard="0"
     inkscape:deskcolor="#d1d1d1"
     inkscape:zoom="8.9603687"
     inkscape:cx="32.587945"
     inkscape:cy="28.402849"
     inkscape:window-width="2560"
     inkscape:window-height="998"
     inkscape:window-x="0"
     inkscape:window-y="0"
     inkscape:window-maximized="1"
     inkscape:current-layer="svg5" />
  <path
     d="M 12,0.99999995 C 1.9999999,0.99999995 0.99999995,5.9999999 0.99999995,12 0.99999995,20 4,22.999999 12,22.999999 20,22.999999 22.999999,20 22.999999,12 22.999999,5.9999999 22,0.99999995 12,0.99999995 Z"
     sketch:type="MSShapeGroup"
     id="path6"
     style="font-variation-settings:normal;display:inline;vector-effect:none;fill:#e3e7ee;fill-opacity:1;stroke-width:1.11627;stroke-linecap:butt;stroke-linejoin:miter;stroke-miterlimit:4;stroke-dasharray:none;stroke-dashoffset:0;stroke-opacity:1;-inkscape-stroke:none;stop-color:#000000"
     sodipodi:nodetypes="sssss"
     inkscape:label="Shape" />
  <path
     d="M 12,1.9750004 C 2.886364,1.9750004 1.9750004,6.5318182 1.9750004,12 1.9750004,19.290909 4.7090912,22.024999 12,22.024999 19.290909,22.024999 22.024999,19.290909 22.024999,12 22.024999,6.5318182 21.113636,1.9750004 12,1.9750004 Z"
     sketch:type="MSShapeGroup"
     id="path45683"
     style="font-variation-settings:normal;display:inline;vector-effect:none;fill:#8d74de;fill-opacity:1;stroke-width:1.01733;stroke-linecap:butt;stroke-linejoin:miter;stroke-miterlimit:4;stroke-dasharray:none;stroke-dashoffset:0;stroke-opacity:1;-inkscape-stroke:none;stop-color:#000000"
     sodipodi:nodetypes="sssss"
     inkscape:label="Shape" />
  <g
     id="g9"
     transform="matrix(0.38235294,0,0,0.38235294,-0.23529408,-0.23529408)"
     style="stroke-width:2.61539">
    <rect
       x="15"
       y="15"
       width="34"
       height="34"
       rx="3"
       ry="3"
       fill="#e5e9f0"
       id="rect5"
       style="stroke-width:2.61539" />
    <path
       d="m 34,42 c -0.554,0 -1,0.335 -1,0.75 V 45 h 1 v -2 h 1 v 2 h 1 v -2 h 1 v 2 h 1 V 42.75 C 38,42.335 37.554,42 37,42 Z m 8,0 c -0.554,0 -1,0.335 -1,0.75 v 1.5 c 0,0.415 0.446,0.75 1,0.75 h 3 c 0.554,0 1,-0.335 1,-0.75 v -1.5 C 46,42.335 45.554,42 45,42 Z m -2.5,1 a 0.5,0.5 0 1 0 0,1 0.5,0.5 0 1 0 0,-1 z m 2.5,0 h 3 v 1 h -3 z"
       fill="#9aa0aa"
       id="path7"
       style="stroke-width:2.61539" />
    <path
       d="m 22,15 v 5 c 0,1.662 1.338,3 3,3 h 14 c 1.662,0 3,-1.338 3,-3 v -5 z"
       fill="#333333"
       id="path8"
       style="stroke-width:2.61539" />
    <path
       d="m 26,19 v 1 h 4 v -1 z m 8,0 v 1 h 4 v -1 z"
       fill="#fbe604"
       id="path9"
       style="stroke-width:2.61539" />
  </g>
</svg>
