<?xml version="1.0" encoding="UTF-8" standalone="no"?>
<svg
   width="24"
   height="24"
   viewBox="0 0 24 24"
   fill="none"
   version="1.1"
   id="svg21"
   sodipodi:docname="mplayer.svg"
   xml:space="preserve"
   inkscape:version="1.2.2 (b0a8486541, 2022-12-01)"
   inkscape:export-filename="../../../../../../../../../Imagens/Big Icons/mplayer.pdf"
   inkscape:export-xdpi="96"
   inkscape:export-ydpi="96"
   xmlns:inkscape="http://www.inkscape.org/namespaces/inkscape"
   xmlns:sodipodi="http://sodipodi.sourceforge.net/DTD/sodipodi-0.dtd"
   xmlns="http://www.w3.org/2000/svg"
   xmlns:svg="http://www.w3.org/2000/svg"><sodipodi:namedview
     id="namedview23"
     pagecolor="#ffffff"
     bordercolor="#000000"
     borderopacity="0.25"
     inkscape:showpageshadow="2"
     inkscape:pageopacity="0.0"
     inkscape:pagecheckerboard="0"
     inkscape:deskcolor="#d1d1d1"
     showgrid="false"
     inkscape:zoom="9.1041667"
     inkscape:cx="16.201373"
     inkscape:cy="6.4256293"
     inkscape:window-width="2560"
     inkscape:window-height="1000"
     inkscape:window-x="1680"
     inkscape:window-y="0"
     inkscape:window-maximized="1"
     inkscape:current-layer="svg21" /><defs
     id="defs19"><linearGradient
       id="paint0_linear_3_200"
       x1="11.9997"
       y1="0.99970198"
       x2="12"
       y2="12"
       gradientUnits="userSpaceOnUse"><stop
         stop-color="#FFD996"
         id="stop14"
         offset="0"
         style="stop-color:#a1b8e0;stop-opacity:1;" /><stop
         offset="1"
         stop-color="#FFB32B"
         id="stop16"
         style="stop-color:#698bcf;stop-opacity:1;" /></linearGradient><linearGradient
       x1="11.9997"
       y1="0.99970198"
       x2="12"
       y2="12"
       gradientUnits="userSpaceOnUse"
       gradientTransform="scale(0.75)"
       spreadMethod="pad"
       id="linearGradient8967"><stop
         style="stop-opacity:1;stop-color:#a1b8e0"
         offset="0"
         id="stop8963" /><stop
         style="stop-opacity:1;stop-color:#698bcf"
         offset="1"
         id="stop8965" /></linearGradient><clipPath
       clipPathUnits="userSpaceOnUse"
       id="clipPath8979"><path
         d="M 0,0 H 19 V 19 H 0 Z"
         id="path8977" /></clipPath><clipPath
       clipPathUnits="userSpaceOnUse"
       id="clipPath8979-6"><path
         d="M 0,0 H 19 V 19 H 0 Z"
         id="path8977-2" /></clipPath></defs><g
     id="g8949"
     transform="matrix(1.3333333,0,0,1.3333333,-3.1607349e-4,3e-7)"><path
       d="M 2.844,15.531 C 1.984,14.758 1.398,13.703 1.09,12.375 1.016,12.055 0.957,11.73 0.91,11.406 h 16.192 c -0.11,0.813 -0.329,1.594 -0.653,2.344 -0.324,0.707 -0.754,1.301 -1.285,1.781 z"
       style="fill:#ffffff;fill-opacity:1;fill-rule:evenodd;stroke:none"
       id="path8951" /><g
       id="g8953"><g
         id="g8955"><g
           id="g8961"><path
             d="M 8.988,0.75 C 8.477,0.75 7.965,0.766 7.453,0.801 7.371,0.824 7.285,0.836 7.195,0.836 6.641,0.879 6.09,0.969 5.547,1.102 3.219,1.656 1.75,3.09 1.141,5.402 0.855,6.582 0.727,7.777 0.754,8.992 0.738,9.805 0.789,10.609 0.91,11.406 h 16.192 c 0.007,-0.047 0.011,-0.097 0.019,-0.144 0.082,-0.731 0.125,-1.461 0.129,-2.192 V 8.785 C 17.246,8.379 17.23,7.973 17.207,7.566 17.148,6.586 16.961,5.629 16.641,4.699 16.078,3.156 15.039,2.07 13.52,1.445 12.605,1.098 11.66,0.887 10.684,0.809 10.133,0.77 9.578,0.75 9.027,0.75 Z m 6.176,14.781 H 2.844 c 0.742,0.668 1.691,1.133 2.84,1.387 1.07,0.223 2.148,0.332 3.234,0.332 0.008,0 0.016,0 0.023,0 0.278,0 0.555,-0.008 0.832,-0.023 1.227,-0.02 2.418,-0.227 3.575,-0.618 0.699,-0.257 1.304,-0.617 1.816,-1.078 z"
             style="fill:url(#linearGradient8967);fill-rule:evenodd;stroke:none"
             id="path8969" /></g></g></g><path
       d="M 7.531,3.5 C 7.41,3.496 7.289,3.516 7.176,3.562 7.062,3.605 6.957,3.676 6.871,3.758 6.781,3.844 6.715,3.945 6.664,4.059 6.617,4.172 6.594,4.293 6.594,4.414 v 4.238 c 0,0.703 0.765,1.145 1.375,0.793 l 3.668,-2.117 c 0.14,-0.082 0.254,-0.195 0.336,-0.336 0.078,-0.14 0.121,-0.297 0.121,-0.457 0,-0.164 -0.043,-0.32 -0.121,-0.461 C 11.891,5.934 11.777,5.82 11.637,5.738 L 7.969,3.621 C 7.836,3.543 7.688,3.504 7.531,3.5 Z"
       style="fill:#ffffff;fill-opacity:1;fill-rule:evenodd;stroke:none"
       id="path8971" /><g
       id="g8973"><g
         id="g8975" /><g
         id="g8987"><g
           clip-path="url(#clipPath8979-6)"
           opacity="0.25"
           id="g8985"><g
             id="g8983"><path
               d="m 15.188,13.125 h -4.813 c -0.191,0 -0.344,0.152 -0.344,0.344 0,0.187 0.153,0.343 0.344,0.343 h 4.813 c 0.187,0 0.343,-0.156 0.343,-0.343 0,-0.192 -0.156,-0.344 -0.343,-0.344 z"
               style="fill:#000000;fill-opacity:1;fill-rule:nonzero;stroke:none"
               id="path8981" /></g></g></g></g><path
       d="M 9.688,13.125 H 2.812 c -0.191,0 -0.343,0.152 -0.343,0.344 0,0.187 0.152,0.343 0.343,0.343 h 6.876 c 0.191,0 0.343,-0.156 0.343,-0.343 0,-0.192 -0.152,-0.344 -0.343,-0.344 z"
       style="fill:#698bcf;fill-opacity:1;fill-rule:nonzero;stroke:none"
       id="path8989" /><path
       d="m 10.031,14.5 c 0.571,0 1.031,-0.461 1.031,-1.031 0,-0.571 -0.46,-1.031 -1.031,-1.031 -0.57,0 -1.031,0.46 -1.031,1.031 0,0.57 0.461,1.031 1.031,1.031 z"
       style="fill:#ffffff;fill-opacity:1;fill-rule:nonzero;stroke:none"
       id="path8991" /></g></svg>
