<?xml version="1.0" encoding="UTF-8" standalone="no"?>
<svg
   width="24"
   height="24"
   viewBox="0 0 6.349875 6.349875"
   version="1.1"
   id="svg25209"
   sodipodi:docname="ms-calendar.svg"
   xml:space="preserve"
   inkscape:version="1.2.2 (b0a8486541, 2022-12-01)"
   inkscape:export-filename="ms-calendar.pdf"
   inkscape:export-xdpi="96"
   inkscape:export-ydpi="96"
   xmlns:inkscape="http://www.inkscape.org/namespaces/inkscape"
   xmlns:sodipodi="http://sodipodi.sourceforge.net/DTD/sodipodi-0.dtd"
   xmlns="http://www.w3.org/2000/svg"
   xmlns:svg="http://www.w3.org/2000/svg"><defs
     id="defs25213"><radialGradient
       id="paint0_radial_24_2"
       cx="0"
       cy="0"
       r="1"
       gradientUnits="userSpaceOnUse"
       gradientTransform="matrix(0,5.8207237,-5.8207237,0,3.174937,0.2645789)"><stop
         stop-color="#7286F2"
         id="stop25340"
         offset="0"
         style="stop-color:#cfabff;stop-opacity:1;" /><stop
         offset="1"
         stop-color="#4A5ECA"
         id="stop25342"
         style="stop-color:#915fd3;stop-opacity:1;" /></radialGradient><radialGradient
       fx="0"
       fy="0"
       cx="0"
       cy="0"
       r="1"
       gradientUnits="userSpaceOnUse"
       gradientTransform="matrix(0,16.500014,-16.500014,0,8.999999,0.750002)"
       spreadMethod="pad"
       id="radialGradient4862"><stop
         style="stop-opacity:1;stop-color:#cfabff"
         offset="0"
         id="stop4858" /><stop
         style="stop-opacity:1;stop-color:#915fd3"
         offset="1"
         id="stop4860" /></radialGradient><clipPath
       clipPathUnits="userSpaceOnUse"
       id="clipPath4872"><path
         d="M 0,0 H 19 V 19 H 0 Z"
         id="path4870" /></clipPath><radialGradient
       fx="0"
       fy="0"
       cx="0"
       cy="0"
       r="1"
       gradientUnits="userSpaceOnUse"
       gradientTransform="matrix(0,16.500014,-16.500014,0,8.999999,0.750002)"
       spreadMethod="pad"
       id="radialGradient4862-5"><stop
         style="stop-opacity:1;stop-color:#cfabff"
         offset="0"
         id="stop4858-6" /><stop
         style="stop-opacity:1;stop-color:#915fd3"
         offset="1"
         id="stop4860-2" /></radialGradient><clipPath
       clipPathUnits="userSpaceOnUse"
       id="clipPath4872-9"><path
         d="M 0,0 H 19 V 19 H 0 Z"
         id="path4870-1" /></clipPath></defs><sodipodi:namedview
     id="namedview25211"
     pagecolor="#ffffff"
     bordercolor="#000000"
     borderopacity="0.25"
     inkscape:showpageshadow="2"
     inkscape:pageopacity="0.0"
     inkscape:pagecheckerboard="0"
     inkscape:deskcolor="#d1d1d1"
     showgrid="false"
     inkscape:zoom="6.625"
     inkscape:cx="106.56604"
     inkscape:cy="17.886792"
     inkscape:window-width="2560"
     inkscape:window-height="1000"
     inkscape:window-x="1680"
     inkscape:window-y="0"
     inkscape:window-maximized="1"
     inkscape:current-layer="svg25209" /><g
     id="g4846"
     transform="matrix(0.35277082,0,0,0.35277082,-1.1961624e-4,-9.2306512e-6)"><g
       id="g4848"><g
         id="g4850"><g
           id="g4856"><path
             d="m 7.195,0.836 c 0.09,0 0.176,-0.012 0.258,-0.035 1.078,-0.071 2.156,-0.067 3.231,0.008 0.976,0.078 1.921,0.289 2.836,0.636 1.519,0.625 2.558,1.711 3.121,3.254 0.316,0.93 0.507,1.887 0.566,2.867 0.078,1.235 0.051,2.465 -0.086,3.696 -0.105,0.863 -0.328,1.691 -0.672,2.488 -0.637,1.383 -1.672,2.336 -3.101,2.859 C 12.191,17 11,17.207 9.773,17.227 8.398,17.301 7.035,17.195 5.684,16.918 3.203,16.367 1.668,14.852 1.09,12.375 0.844,11.262 0.73,10.133 0.754,8.992 0.727,7.777 0.855,6.582 1.141,5.402 1.75,3.09 3.219,1.656 5.547,1.102 6.09,0.969 6.641,0.879 7.195,0.836 Z"
             style="fill:url(#radialGradient4862-5);fill-rule:evenodd;stroke:none"
             id="path4864" /></g></g></g><g
       id="g4866"><g
         id="g4868" /><g
         id="g4880"><g
           clip-path="url(#clipPath4872-9)"
           opacity="0.9"
           id="g4878"><g
             id="g4876"><path
               d="M 0.859,6.938 C 0.922,6.422 1.016,5.91 1.141,5.402 1.414,4.363 1.863,3.496 2.484,2.812 H 15.52 c 0.48,0.528 0.855,1.157 1.121,1.887 0.25,0.731 0.421,1.477 0.507,2.239 z"
               style="fill:#fafafa;fill-opacity:1;fill-rule:evenodd;stroke:none"
               id="path4874" /></g></g></g></g><path
       d="M 7.457,14.5 9.422,10.613 V 10.586 H 7.117 V 9.5 h 3.711 v 1.086 L 8.855,14.5 Z"
       style="fill:#ffffff;fill-opacity:1;fill-rule:nonzero;stroke:none"
       id="path4882" /><path
       d="M 6.781,4.008 V 5.746 H 7.246 V 5.094 h 0.52 V 4.719 H 7.246 V 4.387 H 7.809 V 4.008 Z m 1.657,0 V 5.746 H 8.906 V 5.113 H 9.023 L 9.395,5.746 H 9.926 L 9.418,4.988 C 9.508,4.938 9.582,4.871 9.633,4.797 9.688,4.719 9.715,4.629 9.715,4.523 9.715,4.18 9.477,4.008 9.008,4.008 Z m 1.882,0 v 0.269 l 0.219,0.078 v 1.04 L 10.32,5.477 v 0.269 h 0.907 V 5.477 L 11.012,5.395 V 4.355 L 11.227,4.277 V 4.008 Z M 8.906,4.363 H 9 c 0.086,0 0.145,0.016 0.184,0.051 0.035,0.027 0.054,0.074 0.054,0.129 0,0.082 -0.023,0.137 -0.07,0.172 C 9.125,4.746 9.066,4.762 8.996,4.762 h -0.09 z"
       style="fill:#915fd3;fill-opacity:1;fill-rule:nonzero;stroke:none"
       id="path4884" /></g></svg>
