<?xml version="1.0" encoding="UTF-8" standalone="no"?>
<!-- Created with Inkscape (http://www.inkscape.org/) -->

<svg
   width="133.96359mm"
   height="133.96271mm"
   viewBox="0 0 133.96359 133.96271"
   version="1.1"
   id="svg5"
   xml:space="preserve"
   xmlns:inkscape="http://www.inkscape.org/namespaces/inkscape"
   xmlns:sodipodi="http://sodipodi.sourceforge.net/DTD/sodipodi-0.dtd"
   xmlns:xlink="http://www.w3.org/1999/xlink"
   xmlns="http://www.w3.org/2000/svg"
   xmlns:svg="http://www.w3.org/2000/svg"><sodipodi:namedview
     id="namedview7"
     pagecolor="#ffffff"
     bordercolor="#000000"
     borderopacity="0.25"
     inkscape:showpageshadow="2"
     inkscape:pageopacity="0.0"
     inkscape:pagecheckerboard="0"
     inkscape:deskcolor="#d1d1d1"
     inkscape:document-units="mm"
     showgrid="false" /><defs
     id="defs2"><linearGradient
       inkscape:collect="always"
       id="linearGradient2420"><stop
         style="stop-color:#ececec;stop-opacity:1"
         offset="0"
         id="stop2416" /><stop
         style="stop-color:#f0f0f0;stop-opacity:1"
         offset="1"
         id="stop2418" /></linearGradient><linearGradient
       inkscape:collect="always"
       xlink:href="#linearGradient2420"
       id="linearGradient2422"
       x1="166.91481"
       y1="-420.14444"
       x2="170.48215"
       y2="300.45615"
       gradientUnits="userSpaceOnUse" /><linearGradient
       id="a-5"><stop
         offset="0"
         id="stop5802" /><stop
         offset="1"
         stop-opacity="0"
         id="stop5804" /></linearGradient><linearGradient
       xlink:href="#a-5"
       id="b-9"
       gradientUnits="userSpaceOnUse"
       gradientTransform="matrix(0.26458,0,0,0.26458,31.7,289.992)"
       x1="41.088001"
       y1="56.971001"
       x2="41.088001"
       y2="26.486" /><linearGradient
       inkscape:collect="always"
       xlink:href="#linearGradient2420"
       id="linearGradient6774"
       gradientUnits="userSpaceOnUse"
       x1="166.91481"
       y1="-420.14444"
       x2="170.48215"
       y2="300.45615" /></defs><g
     id="g192"
     transform="matrix(0.35277776,0,0,0.35277778,5.0620457e-4,-1.6930737e-4)"
     style="fill:url(#linearGradient2422);fill-opacity:1"
     inkscape:export-filename="g192.svg"
     inkscape:export-xdpi="24.269279"
     inkscape:export-ydpi="24.269279"><path
       d="m 148.375,1.961 c 2.07,0.023 4.047,-0.242 5.93,-0.789 24.785,-1.625 49.566,-1.559 74.343,0.195 22.469,1.75 44.219,6.625 65.25,14.625 34.965,14.395 58.887,39.36 71.774,74.899 7.367,21.398 11.719,43.402 13.051,66.007 1.839,28.391 1.179,56.715 -1.981,84.981 -2.363,19.867 -7.504,38.969 -15.422,57.312 -14.683,31.801 -38.472,53.739 -71.375,65.809 -26.664,9.008 -54.082,13.754 -82.254,14.23 C 176,380.879 144.633,378.508 113.574,372.117 56.414,359.387 21.156,324.535 7.793,267.574 2.125,241.93 -0.445,215.977 0.082,189.707 -0.551,161.773 2.418,134.238 8.98,107.098 22.988,53.84 56.797,20.836 110.414,8.086 122.906,5.035 135.559,2.992 148.375,1.961 Z"
       style="fill:url(#linearGradient6774);fill-opacity:1;fill-rule:evenodd;stroke:none"
       id="path194" /></g><g
     id="g6251"
     transform="matrix(6.3096768,0,0,6.3096768,13.544806,13.561318)"><g
       transform="rotate(4.372,3717.287,-1233.242)"
       paint-order="markers stroke fill"
       id="g6225"><rect
         ry="0.52899998"
         rx="0.52899998"
         y="280.59601"
         x="113.506"
         height="12.171"
         width="6.8790002"
         fill="#0d68ab"
         id="rect6219" /><rect
         width="5.8210001"
         height="11.112"
         x="114.035"
         y="281.125"
         rx="0"
         ry="0"
         fill="#ffffff"
         id="rect6221" /><path
         d="m 119.062,281.125 -1.852,5.556 1.852,5.556 h 0.53 l -1.852,-5.556 1.852,-5.556 z"
         fill="#0d68ab"
         id="path6223" /></g><g
       transform="translate(-31.683,-289.992)"
       paint-order="markers stroke fill"
       id="g6231"><rect
         transform="rotate(-8.462)"
         ry="0"
         rx="0"
         y="294.021"
         x="-10.166"
         height="13.758"
         width="8.9960003"
         fill="#1e84d0"
         id="rect6227" /><path
         d="m 43.003,297 a 11.132,17.633 6.416 0 1 -0.06,0.665 11.132,17.633 6.416 0 1 -1.933,7.4 l 3.124,-0.464 z"
         opacity="0.25"
         fill="url(#b)"
         id="path6229"
         style="fill:url(#b-9)" /></g><g
       style="line-height:1.25;-inkscape-font-specification:'sans-serif Bold'"
       id="g6235"><path
         d="M 6.727,6.88 C 6.377,6.938 6.072,7.13 5.926,7.44 5.779,7.75 5.667,8.17 5.75,8.673 5.833,9.175 6.04,9.541 6.278,9.787 6.516,10.032 6.902,10.111 7.251,10.053 7.602,9.995 7.955,9.794 8.101,9.485 8.248,9.175 8.331,8.762 8.248,8.26 A 2.058,2.058 0 0 0 7.708,7.146 C 7.47,6.9 7.078,6.822 6.727,6.88 Z M 6.579,5.987 C 7.293,5.869 7.889,5.997 8.365,6.369 8.842,6.742 9.145,7.316 9.273,8.091 9.401,8.863 9.299,9.503 8.967,10.01 8.635,10.516 8.113,10.829 7.399,10.947 6.687,11.064 6.092,10.937 5.612,10.564 5.135,10.192 4.832,9.619 4.705,8.846 4.577,8.071 4.679,7.43 5.011,6.924 5.344,6.417 5.867,6.104 6.579,5.987 Z"
         style="-inkscape-font-specification:'sans-serif Bold'"
         fill="#ffffff"
         aria-label="O"
         font-weight="700"
         font-size="6.406px"
         font-family="sans-serif"
         letter-spacing="0"
         word-spacing="0"
         id="path6233" /></g></g></svg>
