<?xml version="1.0" encoding="UTF-8" standalone="no"?>
<!-- Created with Inkscape (http://www.inkscape.org/) -->

<svg
   width="133.96359mm"
   height="133.96271mm"
   viewBox="0 0 133.96359 133.96271"
   version="1.1"
   id="svg5"
   xml:space="preserve"
   xmlns:inkscape="http://www.inkscape.org/namespaces/inkscape"
   xmlns:sodipodi="http://sodipodi.sourceforge.net/DTD/sodipodi-0.dtd"
   xmlns:xlink="http://www.w3.org/1999/xlink"
   xmlns="http://www.w3.org/2000/svg"
   xmlns:svg="http://www.w3.org/2000/svg"><sodipodi:namedview
     id="namedview7"
     pagecolor="#ffffff"
     bordercolor="#000000"
     borderopacity="0.25"
     inkscape:showpageshadow="2"
     inkscape:pageopacity="0.0"
     inkscape:pagecheckerboard="0"
     inkscape:deskcolor="#d1d1d1"
     inkscape:document-units="mm"
     showgrid="false" /><defs
     id="defs2"><linearGradient
       inkscape:collect="always"
       id="linearGradient2420"><stop
         style="stop-color:#ececec;stop-opacity:1"
         offset="0"
         id="stop2416" /><stop
         style="stop-color:#f0f0f0;stop-opacity:1"
         offset="1"
         id="stop2418" /></linearGradient><linearGradient
       inkscape:collect="always"
       xlink:href="#linearGradient2420"
       id="linearGradient2422"
       x1="166.91481"
       y1="-420.14444"
       x2="170.48215"
       y2="300.45615"
       gradientUnits="userSpaceOnUse" /><linearGradient
       id="a-5"><stop
         offset="0"
         id="stop5802" /><stop
         offset="1"
         stop-opacity="0"
         id="stop5804" /></linearGradient><linearGradient
       inkscape:collect="always"
       xlink:href="#a-5"
       id="linearGradient6306"
       gradientUnits="userSpaceOnUse"
       gradientTransform="matrix(0.26458,0,0,0.26458,31.7,289.992)"
       x1="41.088001"
       y1="56.971001"
       x2="41.088001"
       y2="26.486" /><linearGradient
       inkscape:collect="always"
       xlink:href="#linearGradient2420"
       id="linearGradient6475"
       gradientUnits="userSpaceOnUse"
       x1="166.91481"
       y1="-420.14444"
       x2="170.48215"
       y2="300.45615" /></defs><g
     id="g192"
     transform="matrix(0.35277776,0,0,0.35277778,5.0620457e-4,-1.6930737e-4)"
     style="fill:url(#linearGradient2422);fill-opacity:1"
     inkscape:export-filename="g192.svg"
     inkscape:export-xdpi="24.269279"
     inkscape:export-ydpi="24.269279"><path
       d="m 148.375,1.961 c 2.07,0.023 4.047,-0.242 5.93,-0.789 24.785,-1.625 49.566,-1.559 74.343,0.195 22.469,1.75 44.219,6.625 65.25,14.625 34.965,14.395 58.887,39.36 71.774,74.899 7.367,21.398 11.719,43.402 13.051,66.007 1.839,28.391 1.179,56.715 -1.981,84.981 -2.363,19.867 -7.504,38.969 -15.422,57.312 -14.683,31.801 -38.472,53.739 -71.375,65.809 -26.664,9.008 -54.082,13.754 -82.254,14.23 C 176,380.879 144.633,378.508 113.574,372.117 56.414,359.387 21.156,324.535 7.793,267.574 2.125,241.93 -0.445,215.977 0.082,189.707 -0.551,161.773 2.418,134.238 8.98,107.098 22.988,53.84 56.797,20.836 110.414,8.086 122.906,5.035 135.559,2.992 148.375,1.961 Z"
       style="fill:url(#linearGradient6475);fill-opacity:1;fill-rule:evenodd;stroke:none"
       id="path194" /></g><g
     id="g6304"
     transform="matrix(6.072854,0,0,6.072854,15.561431,15.566347)"><g
       paint-order="markers stroke fill"
       id="g6281"><g
         transform="translate(-31.694,-289.992)"
         id="g6277"><g
           transform="rotate(4.363,-101.83,-5.11)"
           id="g6273"><rect
             width="6.8790002"
             height="12.171"
             x="62.442001"
             y="279.802"
             rx="0.52899998"
             ry="0.52899998"
             fill="#bc492d"
             id="rect6261" /><rect
             ry="0"
             rx="0"
             y="280.33099"
             x="62.971001"
             height="11.112"
             width="5.8210001"
             fill="#ffffff"
             id="rect6263" /><rect
             ry="0"
             rx="0"
             y="289.327"
             x="63.764999"
             height="0.79400003"
             width="4.2329998"
             fill="#bc492d"
             id="rect6265" /><path
             d="m 66.146,281.654 v 2.117 h 2.117 a 2.117,2.117 0 0 0 -2.117,-2.117 z"
             fill="#bc492d"
             id="path6267" /><path
             d="m 65.881,281.919 a 2.117,2.117 0 0 0 -2.116,2.116 2.117,2.117 0 0 0 2.116,2.117 2.117,2.117 0 0 0 2.117,-2.117 H 65.88 Z"
             fill="#bc492d"
             id="path6269" /><rect
             width="4.2329998"
             height="0.79400003"
             x="63.764999"
             y="287.47501"
             rx="0"
             ry="0"
             fill="#bc492d"
             id="rect6271" /></g><rect
           transform="rotate(-8.462)"
           ry="0"
           rx="0"
           y="294.021"
           x="-10.166"
           height="13.758"
           width="8.9960003"
           fill="#d5583a"
           id="rect6275" /></g><path
         d="m 43.003,297 a 11.132,17.633 6.416 0 1 -0.06,0.665 11.132,17.633 6.416 0 1 -1.933,7.4 l 3.124,-0.464 z"
         opacity="0.25"
         fill="url(#b)"
         transform="translate(-31.694,-289.992)"
         id="path6279"
         style="fill:url(#linearGradient6306)" /></g><g
       style="line-height:1.25;-inkscape-font-specification:'sans-serif Bold'"
       id="g6285"><path
         style="-inkscape-font-specification:'sans-serif Bold'"
         d="M 4.98,6.284 6.923,5.985 C 7.5,5.896 7.964,5.94 8.313,6.16 8.664,6.377 8.877,6.752 8.953,7.244 9.029,7.738 8.927,8.11 8.658,8.424 8.391,8.737 7.964,8.904 7.386,8.994 L 6.5,9.13 6.762,10.829 5.707,10.991 Z M 6.159,6.926 6.373,8.316 7.136,8.198 C 7.363,8.164 7.682,8.063 7.798,7.922 7.923,7.764 7.987,7.635 7.948,7.399 7.914,7.189 7.859,7.018 7.686,6.895 7.494,6.762 7.202,6.765 6.922,6.809 Z"
         aria-label="P"
         font-weight="700"
         font-size="6.533px"
         font-family="sans-serif"
         letter-spacing="0"
         word-spacing="0"
         fill="#ffffff"
         id="path6283" /></g></g></svg>
