<?xml version="1.0" encoding="UTF-8" standalone="no"?>
<!-- Created with Inkscape (http://www.inkscape.org/) -->

<svg
   width="24"
   height="24"
   viewBox="0 0 6.35 6.35"
   version="1.1"
   id="svg5"
   xml:space="preserve"
   sodipodi:docname="org.musescore.MuseScore.svg"
   inkscape:version="1.2.2 (b0a8486541, 2022-12-01)"
   inkscape:export-filename="org.musescore.MuseScore.pdf"
   inkscape:export-xdpi="96"
   inkscape:export-ydpi="96"
   xmlns:inkscape="http://www.inkscape.org/namespaces/inkscape"
   xmlns:sodipodi="http://sodipodi.sourceforge.net/DTD/sodipodi-0.dtd"
   xmlns="http://www.w3.org/2000/svg"
   xmlns:svg="http://www.w3.org/2000/svg"><sodipodi:namedview
     id="namedview7"
     pagecolor="#ffffff"
     bordercolor="#000000"
     borderopacity="0.25"
     inkscape:showpageshadow="2"
     inkscape:pageopacity="0.0"
     inkscape:pagecheckerboard="0"
     inkscape:deskcolor="#d1d1d1"
     inkscape:document-units="mm"
     showgrid="false"
     inkscape:zoom="9.9157402"
     inkscape:cx="-6.5552343"
     inkscape:cy="3.2776171"
     inkscape:window-width="2560"
     inkscape:window-height="1000"
     inkscape:window-x="1680"
     inkscape:window-y="0"
     inkscape:window-maximized="1"
     inkscape:current-layer="svg5" /><defs
     id="defs2"><style
       type="text/css"
       id="current-color-scheme">
      .ColorScheme-Text {
        color:#31363b;
      }
      .ColorScheme-Background {
        color:#eff0f1;
      }
      .ColorScheme-Highlight {
        color:#3daee9;
      }
      .ColorScheme-ViewText {
        color:#31363b;
      }
      .ColorScheme-ViewBackground {
        color:#fcfcfc;
      }
      .ColorScheme-ViewHover {
        color:#93cee9;
      }
      .ColorScheme-ViewFocus{
        color:#3daee9;
      }
      .ColorScheme-ButtonText {
        color:#31363b;
      }
      .ColorScheme-ButtonBackground {
        color:#eff0f1;
      }
      .ColorScheme-ButtonHover {
        color:#93cee9;
      }
      .ColorScheme-ButtonFocus{
        color:#3daee9;
      }
      </style><style
       type="text/css"
       id="current-color-scheme-9">
      .ColorScheme-Text {
        color:#31363b;
      }
      .ColorScheme-Background {
        color:#eff0f1;
      }
      .ColorScheme-Highlight {
        color:#3daee9;
      }
      .ColorScheme-ViewText {
        color:#31363b;
      }
      .ColorScheme-ViewBackground {
        color:#fcfcfc;
      }
      .ColorScheme-ViewHover {
        color:#93cee9;
      }
      .ColorScheme-ViewFocus{
        color:#3daee9;
      }
      .ColorScheme-ButtonText {
        color:#31363b;
      }
      .ColorScheme-ButtonBackground {
        color:#eff0f1;
      }
      .ColorScheme-ButtonHover {
        color:#93cee9;
      }
      .ColorScheme-ButtonFocus{
        color:#3daee9;
      }
      </style><style
       type="text/css"
       id="current-color-scheme-2">
      .ColorScheme-Text {
        color:#31363b;
      }
      .ColorScheme-Background {
        color:#eff0f1;
      }
      .ColorScheme-Highlight {
        color:#3daee9;
      }
      .ColorScheme-ViewText {
        color:#31363b;
      }
      .ColorScheme-ViewBackground {
        color:#fcfcfc;
      }
      .ColorScheme-ViewHover {
        color:#93cee9;
      }
      .ColorScheme-ViewFocus{
        color:#3daee9;
      }
      .ColorScheme-ButtonText {
        color:#31363b;
      }
      .ColorScheme-ButtonBackground {
        color:#eff0f1;
      }
      .ColorScheme-ButtonHover {
        color:#93cee9;
      }
      .ColorScheme-ButtonFocus{
        color:#3daee9;
      }
      </style><style
       type="text/css"
       id="current-color-scheme-3">
      .ColorScheme-Text {
        color:#31363b;
      }
      .ColorScheme-Background {
        color:#eff0f1;
      }
      .ColorScheme-Highlight {
        color:#3daee9;
      }
      .ColorScheme-ViewText {
        color:#31363b;
      }
      .ColorScheme-ViewBackground {
        color:#fcfcfc;
      }
      .ColorScheme-ViewHover {
        color:#93cee9;
      }
      .ColorScheme-ViewFocus{
        color:#3daee9;
      }
      .ColorScheme-ButtonText {
        color:#31363b;
      }
      .ColorScheme-ButtonBackground {
        color:#eff0f1;
      }
      .ColorScheme-ButtonHover {
        color:#93cee9;
      }
      .ColorScheme-ButtonFocus{
        color:#3daee9;
      }
      </style><style
       type="text/css"
       id="current-color-scheme-97">
      .ColorScheme-Text {
        color:#31363b;
      }
      .ColorScheme-Background {
        color:#eff0f1;
      }
      .ColorScheme-Highlight {
        color:#3daee9;
      }
      .ColorScheme-ViewText {
        color:#31363b;
      }
      .ColorScheme-ViewBackground {
        color:#fcfcfc;
      }
      .ColorScheme-ViewHover {
        color:#93cee9;
      }
      .ColorScheme-ViewFocus{
        color:#3daee9;
      }
      .ColorScheme-ButtonText {
        color:#31363b;
      }
      .ColorScheme-ButtonBackground {
        color:#eff0f1;
      }
      .ColorScheme-ButtonHover {
        color:#93cee9;
      }
      .ColorScheme-ButtonFocus{
        color:#3daee9;
      }
      </style><style
       type="text/css"
       id="current-color-scheme-7">
      .ColorScheme-Text {
        color:#31363b;
      }
      .ColorScheme-Background {
        color:#eff0f1;
      }
      .ColorScheme-Highlight {
        color:#3daee9;
      }
      .ColorScheme-ViewText {
        color:#31363b;
      }
      .ColorScheme-ViewBackground {
        color:#fcfcfc;
      }
      .ColorScheme-ViewHover {
        color:#93cee9;
      }
      .ColorScheme-ViewFocus{
        color:#3daee9;
      }
      .ColorScheme-ButtonText {
        color:#31363b;
      }
      .ColorScheme-ButtonBackground {
        color:#eff0f1;
      }
      .ColorScheme-ButtonHover {
        color:#93cee9;
      }
      .ColorScheme-ButtonFocus{
        color:#3daee9;
      }
      </style><style
       type="text/css"
       id="current-color-scheme-9-0">
      .ColorScheme-Text {
        color:#31363b;
      }
      .ColorScheme-Background {
        color:#eff0f1;
      }
      .ColorScheme-Highlight {
        color:#3daee9;
      }
      .ColorScheme-ViewText {
        color:#31363b;
      }
      .ColorScheme-ViewBackground {
        color:#fcfcfc;
      }
      .ColorScheme-ViewHover {
        color:#93cee9;
      }
      .ColorScheme-ViewFocus{
        color:#3daee9;
      }
      .ColorScheme-ButtonText {
        color:#31363b;
      }
      .ColorScheme-ButtonBackground {
        color:#eff0f1;
      }
      .ColorScheme-ButtonHover {
        color:#93cee9;
      }
      .ColorScheme-ButtonFocus{
        color:#3daee9;
      }
      </style><style
       type="text/css"
       id="current-color-scheme-2-9">
      .ColorScheme-Text {
        color:#31363b;
      }
      .ColorScheme-Background {
        color:#eff0f1;
      }
      .ColorScheme-Highlight {
        color:#3daee9;
      }
      .ColorScheme-ViewText {
        color:#31363b;
      }
      .ColorScheme-ViewBackground {
        color:#fcfcfc;
      }
      .ColorScheme-ViewHover {
        color:#93cee9;
      }
      .ColorScheme-ViewFocus{
        color:#3daee9;
      }
      .ColorScheme-ButtonText {
        color:#31363b;
      }
      .ColorScheme-ButtonBackground {
        color:#eff0f1;
      }
      .ColorScheme-ButtonHover {
        color:#93cee9;
      }
      .ColorScheme-ButtonFocus{
        color:#3daee9;
      }
      </style><style
       type="text/css"
       id="current-color-scheme-3-3">
      .ColorScheme-Text {
        color:#31363b;
      }
      .ColorScheme-Background {
        color:#eff0f1;
      }
      .ColorScheme-Highlight {
        color:#3daee9;
      }
      .ColorScheme-ViewText {
        color:#31363b;
      }
      .ColorScheme-ViewBackground {
        color:#fcfcfc;
      }
      .ColorScheme-ViewHover {
        color:#93cee9;
      }
      .ColorScheme-ViewFocus{
        color:#3daee9;
      }
      .ColorScheme-ButtonText {
        color:#31363b;
      }
      .ColorScheme-ButtonBackground {
        color:#eff0f1;
      }
      .ColorScheme-ButtonHover {
        color:#93cee9;
      }
      .ColorScheme-ButtonFocus{
        color:#3daee9;
      }
      </style><style
       type="text/css"
       id="current-color-scheme-97-6">
      .ColorScheme-Text {
        color:#31363b;
      }
      .ColorScheme-Background {
        color:#eff0f1;
      }
      .ColorScheme-Highlight {
        color:#3daee9;
      }
      .ColorScheme-ViewText {
        color:#31363b;
      }
      .ColorScheme-ViewBackground {
        color:#fcfcfc;
      }
      .ColorScheme-ViewHover {
        color:#93cee9;
      }
      .ColorScheme-ViewFocus{
        color:#3daee9;
      }
      .ColorScheme-ButtonText {
        color:#31363b;
      }
      .ColorScheme-ButtonBackground {
        color:#eff0f1;
      }
      .ColorScheme-ButtonHover {
        color:#93cee9;
      }
      .ColorScheme-ButtonFocus{
        color:#3daee9;
      }
      </style><linearGradient
       id="paint0_linear_1_170"
       x1="277.5"
       y1="57"
       x2="751"
       y2="966"
       gradientUnits="userSpaceOnUse"
       gradientTransform="matrix(0.00652699,0,0,0.00652699,-9.7260612,0.27050126)"><stop
         stop-color="#5328E1"
         id="stop6374" /><stop
         offset="1"
         stop-color="#0F023A"
         id="stop6376" /></linearGradient><radialGradient
       id="paint0_radial_0_1"
       cx="0"
       cy="0"
       r="1"
       gradientUnits="userSpaceOnUse"
       gradientTransform="matrix(0,2.9104204,-2.9104204,0,-7.1513897,-0.21571085)"><stop
         stop-color="#6EBBF7"
         id="stop322"
         offset="0"
         style="stop-color:#4725d5;stop-opacity:1;" /><stop
         offset="1"
         stop-color="#2196F3"
         id="stop324"
         style="stop-color:#2a0e9e;stop-opacity:1;" /></radialGradient><radialGradient
       fx="0"
       fy="0"
       cx="0"
       cy="0"
       r="1"
       gradientUnits="userSpaceOnUse"
       gradientTransform="matrix(0,8.250011,-8.250011,0,8.999986,0.750008)"
       spreadMethod="pad"
       id="radialGradient13876"><stop
         style="stop-opacity:1;stop-color:#4725d5"
         offset="0"
         id="stop13872" /><stop
         style="stop-opacity:1;stop-color:#2a0e9e"
         offset="1"
         id="stop13874" /></radialGradient><radialGradient
       fx="0"
       fy="0"
       cx="0"
       cy="0"
       r="1"
       gradientUnits="userSpaceOnUse"
       gradientTransform="matrix(0,8.250011,-8.250011,0,8.999986,0.750008)"
       spreadMethod="pad"
       id="radialGradient13876-5"><stop
         style="stop-opacity:1;stop-color:#4725d5"
         offset="0"
         id="stop13872-3" /><stop
         style="stop-opacity:1;stop-color:#2a0e9e"
         offset="1"
         id="stop13874-5" /></radialGradient></defs><g
     id="g13862"
     transform="matrix(0.35277777,0,0,0.35277777,-1.196686e-4,-9.2808354e-6)"><g
       id="g13864"><g
         id="g13870"><path
           d="m 7.195,0.836 c 0.09,0 0.176,-0.012 0.258,-0.035 1.078,-0.071 2.156,-0.067 3.231,0.008 0.976,0.078 1.921,0.289 2.836,0.636 1.519,0.625 2.558,1.711 3.121,3.254 0.316,0.93 0.507,1.887 0.566,2.867 0.078,1.235 0.051,2.465 -0.086,3.696 -0.105,0.863 -0.328,1.691 -0.672,2.488 -0.637,1.383 -1.672,2.336 -3.101,2.859 C 12.191,17 11,17.207 9.773,17.227 8.398,17.301 7.035,17.195 5.684,16.918 3.203,16.367 1.668,14.852 1.09,12.375 0.844,11.262 0.73,10.133 0.754,8.992 0.727,7.781 0.855,6.582 1.141,5.402 1.75,3.09 3.219,1.656 5.547,1.102 6.09,0.969 6.641,0.879 7.195,0.836 Z"
           style="fill:url(#radialGradient13876-5);fill-rule:evenodd;stroke:none"
           id="path13878" /></g></g></g><g
     id="g13593"
     transform="matrix(1.0050367,0,0,1.0050367,9.5979754,-0.21040092)"><path
       fill-rule="evenodd"
       clip-rule="evenodd"
       d="m -4.9124025,1.7553924 c 0.099654,0.045199 0.1888579,0.1061224 0.2676063,0.1827558 0.048606,0.0595 0.092122,0.1225965 0.1305394,0.1892828 0.022264,0.047314 0.041844,0.095177 0.058743,0.1435939 0.012937,0.060264 0.021645,0.1211802 0.026108,0.1827558 0.013546,0.067816 -0.00385,0.1254684 -0.052216,0.1729653 -0.07491,0.03535 -0.1314792,0.016859 -0.1697022,-0.055479 -0.00442,-0.054403 -0.00987,-0.1087919 -0.016319,-0.1631749 -0.00265,-0.021161 -0.00808,-0.040742 -0.016319,-0.058743 C -4.694776,2.2994961 -4.71435,2.2538071 -4.742703,2.2122822 -4.782049,2.1379462 -4.836445,2.0770234 -4.9058777,2.0295265 -5.0207276,1.9558305 -5.146914,1.9264586 -5.2844449,1.9414125 c -0.2106522,0.03988 -0.352072,0.1606292 -0.4242535,0.3622482 -0.032993,0.083108 -0.048221,0.1701325 -0.045688,0.2610797 -0.034405,0.070237 -0.088801,0.091991 -0.1631748,0.06527 -0.03319,-0.018283 -0.053861,-0.046564 -0.062007,-0.084851 -0.00427,-0.041525 -0.00319,-0.08286 0.00326,-0.1240129 0.00338,-0.05608 0.014254,-0.1104694 0.032635,-0.1631747 0.015748,-0.051583 0.035323,-0.1016253 0.058741,-0.150121 0.2325782,-0.3652309 0.5567531,-0.4827168 0.9725229,-0.3524576 z"
       fill="#d9d5e5"
       id="path6368"
       style="stroke-width:0.00652699" /><path
       fill-rule="evenodd"
       clip-rule="evenodd"
       d="m -5.0886322,2.4929427 c 0.00138,0.00928 0.00462,0.017982 0.00979,0.026108 0.017656,0.073402 -0.00519,0.1288819 -0.068532,0.1664382 -0.097546,0.02958 -0.1606424,-0.00414 -0.1892826,-0.1011684 -0.00218,-0.046753 0.013035,-0.087005 0.045688,-0.1207493 0.075276,-0.045859 0.1427194,-0.036068 0.2023375,0.029371 z"
       fill="#d7d4e4"
       id="path6370"
       style="stroke-width:0.00652699" /><path
       d="m -6.3287594,2.9433053 c 0.109451,0.019953 0.2095354,0.061295 0.3002416,0.1240129 0.086214,0.068801 0.1558372,0.1514784 0.2088631,0.2480256 0.024757,0.05469 0.044338,0.1112527 0.058743,0.169702 0.011187,0.038483 0.019881,0.077645 0.026108,0.1174859 0.00507,0.052053 0.00725,0.1042687 0.00653,0.1566478 0.00338,0.067398 0.00554,0.1348411 0.00653,0.2023368 -7.28e-5,0.080576 0.0021,0.1610731 0.00653,0.2414987 0.00263,0.080106 0.01567,0.1584298 0.039163,0.2349719 0.00613,0.010116 0.010479,0.020991 0.013055,0.032635 0.034633,0.091143 0.091202,0.16512 0.1697022,0.2219179 0.1467007,0.1087006 0.3076951,0.1337249 0.4829987,0.075061 0.1710843,-0.065564 0.2820433,-0.1863132 0.3328749,-0.3622483 0.022883,-0.096495 0.031586,-0.1944 0.026108,-0.2937147 V 3.8244494 3.5829507 3.3806139 3.223966 c -9.83e-4,-0.03488 7.9e-6,-0.069689 0.00326,-0.1044319 0.00368,-0.00733 0.00729,-0.014581 0.010873,-0.021761 l 0.00543,-0.010874 c 0.032976,-0.042132 0.076491,-0.057366 0.1305414,-0.045689 0.046321,0.013688 0.07461,0.044149 0.084851,0.091378 v 0.1631747 0.202337 0.2414987 0.2871877 0.1892828 c -0.00433,0.032459 -0.00651,0.065094 -0.00653,0.097905 -0.010813,0.056341 -0.02169,0.1129106 -0.032635,0.169702 -0.02009,0.057659 -0.044025,0.1142288 -0.071798,0.1697018 -0.021637,0.038816 -0.046654,0.075798 -0.07506,0.1109588 -0.032875,0.03178 -0.064421,0.064415 -0.09464,0.097905 -0.1416498,0.1095948 -0.3026441,0.1661643 -0.4829987,0.169702 -0.092029,0.0046 -0.1812353,-0.00845 -0.2676062,-0.039162 -0.063462,-0.021937 -0.1222051,-0.052392 -0.1762297,-0.091378 C -5.6693081,4.8668306 -5.7106501,4.8276686 -5.747868,4.7839177 -5.767529,4.7575617 -5.787107,4.7314537 -5.806609,4.7055937 -5.83463,4.6517457 -5.860738,4.5973568 -5.884935,4.542419 -5.8857214,4.531218 -5.887945,4.520338 -5.891465,4.509784 -5.917247,4.437778 -5.934649,4.3638013 -5.943681,4.2878662 c -0.00368,-0.081502 -0.00804,-0.1620064 -0.013055,-0.2414987 0.00214,-0.09688 -2.56e-5,-0.1926116 -0.00653,-0.2871877 0.0021,-0.042569 -7.27e-5,-0.083905 -0.00653,-0.1240129 -1.967e-4,-0.027629 -0.0046,-0.053737 -0.013055,-0.078324 C -5.990731,3.4982699 -6.012492,3.4460538 -6.048124,3.4001952 -6.119366,3.2882833 -6.2216228,3.2219299 -6.3548911,3.2011218 -6.6187716,3.1736758 -6.798265,3.2835448 -6.8933693,3.530735 c -0.016004,0.042223 -0.025787,0.085732 -0.029372,0.1305398 -0.00649,0.079336 -0.00867,0.1598396 -0.00653,0.2414988 V 4.0333135 4.1964883 4.3922982 4.640324 4.9209846 c -0.015552,0.088356 -0.067774,0.1242545 -0.1566512,0.1076954 -0.020214,-0.00831 -0.037621,-0.020279 -0.052216,-0.035899 -0.00753,-0.015058 -0.015139,-0.030285 -0.022844,-0.045689 -0.00326,-0.073938 -0.00435,-0.1479149 -0.00326,-0.221918 V 4.4771487 4.2813391 4.1181641 3.9876242 3.7983413 c 0.010165,-0.1057763 -0.00725,-0.2058547 -0.052216,-0.3002416 -0.030681,-0.078448 -0.078546,-0.1437179 -0.1435943,-0.1958098 -0.058629,-0.054122 -0.1282469,-0.087847 -0.208863,-0.1011684 -0.2767644,-0.033614 -0.4529921,0.082782 -0.5286851,0.3491942 -0.027042,0.086326 -0.037922,0.1755303 -0.032635,0.2676066 V 4.1377451 4.327028 4.4575679 4.6207427 4.8230794 c 0.00222,0.046172 -9.83e-4,0.091861 -0.00979,0.1370669 -0.039863,0.072025 -0.097515,0.090516 -0.1729659,0.055479 -0.034118,-0.027981 -0.051524,-0.06388 -0.052216,-0.1076953 V 4.7055934 4.5489455 4.4184059 4.2291229 3.9093003 c -1.73e-4,-0.082756 0.00201,-0.1654267 0.00653,-0.2480258 0.00659,-0.054762 0.015296,-0.1091508 0.026108,-0.1631748 0.029588,-0.10265 0.073102,-0.1983748 0.1305394,-0.2871878 0.1736324,-0.2008028 0.3933758,-0.2834804 0.6592264,-0.2480256 0.1186877,0.022897 0.2296447,0.066412 0.3328769,0.1305398 0.060603,0.047549 0.1149914,0.1019386 0.1631747,0.1631749 0.180966,-0.2362119 0.4202919,-0.3406438 0.7179696,-0.3132957 z"
       fill="#d9d5e5"
       id="path6372"
       style="stroke-width:0.00652699" /></g></svg>
