<?xml version="1.0" encoding="UTF-8" standalone="no"?>
<svg
   width="24"
   height="24"
   fill="none"
   version="1.1"
   id="svg17"
   sodipodi:docname="nemo.svg"
   inkscape:version="1.3 (0e150ed6c4, 2023-07-21)"
   xmlns:inkscape="http://www.inkscape.org/namespaces/inkscape"
   xmlns:sodipodi="http://sodipodi.sourceforge.net/DTD/sodipodi-0.dtd"
   xmlns="http://www.w3.org/2000/svg"
   xmlns:svg="http://www.w3.org/2000/svg">
  <sodipodi:namedview
     id="namedview17"
     pagecolor="#ffffff"
     bordercolor="#000000"
     borderopacity="0.25"
     inkscape:showpageshadow="2"
     inkscape:pageopacity="0.0"
     inkscape:pagecheckerboard="0"
     inkscape:deskcolor="#d1d1d1"
     inkscape:zoom="48.041667"
     inkscape:cx="12"
     inkscape:cy="12"
     inkscape:window-width="3440"
     inkscape:window-height="1358"
     inkscape:window-x="2560"
     inkscape:window-y="0"
     inkscape:window-maximized="1"
     inkscape:current-layer="svg17" />
  <rect
     width="22"
     height="22"
     x="1"
     y="1"
     fill="url(#a)"
     opacity=".813"
     rx="6.6"
     id="rect1" />
  <rect
     width="18"
     height="18"
     x="3"
     y="2.25"
     fill="url(#b)"
     fill-opacity=".875"
     opacity=".125"
     rx="4.4"
     id="rect2" />
  <rect
     width="17.5"
     height="17.5"
     x="3.25"
     y="3.25"
     fill="#CCC"
     stroke="url(#c)"
     stroke-width=".5"
     rx="4.15"
     id="rect3" />
  <path
     fill="url(#d)"
     fill-opacity=".875"
     d="M1 7.508A3.008 3.008 0 0 1 4.008 4.5H8.19c1.075 0 2.117.37 2.95 1.048a4.678 4.678 0 0 0 2.95 1.047h5.902A3.008 3.008 0 0 1 23 9.603V15.5a6.6 6.6 0 0 1-6.6 6.6H7.6A6.6 6.6 0 0 1 1 15.5V7.508Z"
     opacity=".125"
     id="path3" />
  <g
     opacity=".875"
     id="g5">
    <path
       fill="url(#e)"
       d="M1 8.408A3.008 3.008 0 0 1 4.008 5.4H8.19c1.075 0 2.117.37 2.95 1.048a4.678 4.678 0 0 0 2.95 1.047h5.902A3.008 3.008 0 0 1 23 10.503V16.4a6.6 6.6 0 0 1-6.6 6.6H7.6A6.6 6.6 0 0 1 1 16.4V8.408Z"
       id="path4" />
    <path
       stroke="url(#f)"
       stroke-linejoin="round"
       stroke-opacity=".375"
       stroke-width=".75"
       d="M22.625 10.503V16.4a6.225 6.225 0 0 1-6.225 6.225H7.6A6.225 6.225 0 0 1 1.375 16.4V8.408a2.633 2.633 0 0 1 2.633-2.633H8.19c.989 0 1.947.34 2.714.964a5.053 5.053 0 0 0 3.187 1.131h5.901a2.633 2.633 0 0 1 2.633 2.633Z"
       id="path5" />
  </g>
  <defs
     id="defs17">
    <linearGradient
       id="a"
       x1="23"
       x2="1"
       y1="1"
       y2="12"
       gradientUnits="userSpaceOnUse">
      <stop
         stop-color="#87DE87"
         id="stop5" />
      <stop
         offset="1"
         stop-color="#217821"
         id="stop6" />
    </linearGradient>
    <linearGradient
       id="b"
       x1="21"
       x2="3"
       y1="4"
       y2="4"
       gradientUnits="userSpaceOnUse">
      <stop
         stop-opacity=".5"
         id="stop7" />
      <stop
         offset=".89"
         id="stop8" />
      <stop
         offset="1"
         stop-opacity="0"
         id="stop9" />
    </linearGradient>
    <linearGradient
       id="c"
       x1="12"
       x2="11.5"
       y1="3"
       y2="8"
       gradientUnits="userSpaceOnUse">
      <stop
         stop-color="#DDD"
         id="stop10" />
      <stop
         offset="1"
         stop-color="#CCC"
         stop-opacity="0"
         id="stop11" />
    </linearGradient>
    <linearGradient
       id="d"
       x1="23"
       x2="1.012"
       y1="9"
       y2="9.521"
       gradientUnits="userSpaceOnUse">
      <stop
         stop-opacity=".5"
         id="stop12" />
      <stop
         offset="1"
         id="stop13" />
    </linearGradient>
    <linearGradient
       id="e"
       x1="23"
       x2="1.429"
       y1="5.4"
       y2="23.512"
       gradientUnits="userSpaceOnUse">
      <stop
         stop-color="#AFE9AF"
         id="stop14" />
      <stop
         offset="1"
         stop-color="#2CA02C"
         id="stop15" />
    </linearGradient>
    <linearGradient
       id="f"
       x1="15"
       x2="5.5"
       y1="5.5"
       y2="19.5"
       gradientUnits="userSpaceOnUse">
      <stop
         stop-color="#CAFFCA"
         id="stop16" />
      <stop
         offset="1"
         stop-color="#217821"
         id="stop17" />
    </linearGradient>
  </defs>
</svg>
