<?xml version="1.0" encoding="UTF-8" standalone="no"?>
<svg
   width="24"
   height="24"
   image-rendering="optimizeSpeed"
   version="1.1"
   id="svg6"
   sodipodi:docname="nmap_icon.svg"
   inkscape:version="1.3 (0e150ed6c4, 2023-07-21)"
   xmlns:inkscape="http://www.inkscape.org/namespaces/inkscape"
   xmlns:sodipodi="http://sodipodi.sourceforge.net/DTD/sodipodi-0.dtd"
   xmlns:xlink="http://www.w3.org/1999/xlink"
   xmlns="http://www.w3.org/2000/svg"
   xmlns:svg="http://www.w3.org/2000/svg"
   xmlns:sketch="http://www.bohemiancoding.com/sketch/ns">
  <sodipodi:namedview
     id="namedview6"
     pagecolor="#ffffff"
     bordercolor="#000000"
     borderopacity="0.25"
     inkscape:showpageshadow="2"
     inkscape:pageopacity="0.0"
     inkscape:pagecheckerboard="0"
     inkscape:deskcolor="#d1d1d1"
     inkscape:zoom="4.3862718"
     inkscape:cx="32.943695"
     inkscape:cy="-7.5234737"
     inkscape:window-width="1920"
     inkscape:window-height="1000"
     inkscape:window-x="0"
     inkscape:window-y="0"
     inkscape:window-maximized="1"
     inkscape:current-layer="svg6" />
  <defs
     id="defs4">
    <linearGradient
       id="a"
       x1="399.57001"
       x2="399.57001"
       y1="545.79999"
       y2="517.79999"
       gradientUnits="userSpaceOnUse">
      <stop
         stop-color="#3889e9"
         offset="0"
         id="stop1" />
      <stop
         stop-color="#5ea5fb"
         offset="1"
         id="stop2" />
    </linearGradient>
    <linearGradient
       id="b"
       x1="399.57001"
       x2="399.57001"
       y1="545.79999"
       y2="517.79999"
       gradientTransform="matrix(1.94,0,0,1.9415,-838.26,-1004.2)"
       gradientUnits="userSpaceOnUse"
       xlink:href="#a" />
    <linearGradient
       id="c"
       x1="399.57001"
       x2="399.57001"
       y1="545.79999"
       y2="517.79999"
       gradientUnits="userSpaceOnUse"
       xlink:href="#a" />
    <linearGradient
       id="d"
       x1="28.77"
       x2="28.77"
       y1="47.028999"
       y2="0.88200003"
       gradientTransform="matrix(1.3104,0,0,1.311,0.552,0.531)"
       gradientUnits="userSpaceOnUse">
      <stop
         stop-color="#fff"
         stop-opacity=".498"
         offset="0"
         id="stop3" />
      <stop
         stop-color="#fff"
         stop-opacity="0"
         offset="1"
         id="stop4" />
    </linearGradient>
    <linearGradient
       inkscape:collect="always"
       id="linearGradient650">
      <stop
         style="stop-color:#157dff;stop-opacity:1;"
         offset="0"
         id="stop646" />
      <stop
         style="stop-color:#75b7ff;stop-opacity:1;"
         offset="1"
         id="stop648" />
    </linearGradient>
    <linearGradient
       inkscape:collect="always"
       xlink:href="#linearGradient650"
       id="linearGradient6"
       gradientUnits="userSpaceOnUse"
       x1="11.375"
       y1="46.75"
       x2="12.1875"
       y2="-3.9374998"
       gradientTransform="matrix(0.24444444,0,0,0.24444444,-0.22222222,-0.22222222)" />
    <linearGradient
       inkscape:collect="always"
       xlink:href="#d"
       id="linearGradient9"
       gradientUnits="userSpaceOnUse"
       gradientTransform="matrix(1.3104,0,0,1.311,0.552,0.531)"
       x1="28.77"
       y1="47.028999"
       x2="28.77"
       y2="0.88200003" />
  </defs>
  <path
     d="M 12,0.99999998 C 2,0.99999998 0.99999998,6 0.99999998,12 0.99999998,20 4.0000001,23 12,23 20,23 23,20 23,12 23,6 22,0.99999998 12,0.99999998 Z"
     sketch:type="MSShapeGroup"
     id="path6-7"
     style="font-variation-settings:normal;display:inline;vector-effect:none;fill:url(#linearGradient6);fill-opacity:1;stroke-width:1.11627;stroke-linecap:butt;stroke-linejoin:miter;stroke-miterlimit:4;stroke-dasharray:none;stroke-dashoffset:0;stroke-opacity:1;-inkscape-stroke:none;stop-color:#000000"
     sodipodi:nodetypes="sssss"
     inkscape:label="Squircle" />
  <g
     transform="matrix(0.36022877,0,0,0.36022877,0.47267936,0.47249925)"
     id="g9">
    <path
       d="m 31.957,2.002 c -0.105,0 -0.21,0.007 -0.314,0.008 v 3.607 h -4.91 v -3.15 c -0.12,0.02 -0.24,0.04 -0.358,0.062 V 5.617 H 21.463 V 3.893 c -0.105,0.039 -0.207,0.083 -0.31,0.123 v 1.601 h -3.485 c -0.185,0.1 -0.363,0.209 -0.545,0.313 h 4.03 v 4.914 H 16.24 V 6.447 c -0.105,0.065 -0.208,0.133 -0.312,0.2 v 4.197 h -4.955 v -0.272 c -0.21,0.206 -0.416,0.417 -0.62,0.63 h 0.309 v 4.911 H 6.529 c -0.066,0.106 -0.136,0.208 -0.201,0.315 h 4.334 v 4.914 H 5.75 v -3.906 c -0.107,0.192 -0.21,0.387 -0.313,0.582 v 3.324 H 3.941 c -0.04,0.105 -0.084,0.207 -0.123,0.312 h 1.62 v 4.913 H 2.495 c -0.022,0.119 -0.044,0.238 -0.064,0.357 h 3.005 v 4.914 H 2.004 C 2.004,31.892 2,31.946 2,32 c 0,0.05 0.004,0.1 0.004,0.15 h 3.433 v 4.915 H 2.43 c 0.02,0.119 0.043,0.237 0.064,0.355 h 2.943 v 4.914 H 3.814 c 0.039,0.106 0.082,0.208 0.122,0.313 h 1.502 v 3.336 c 0.102,0.195 0.205,0.39 0.312,0.582 v -3.918 h 4.912 v 4.914 h -4.34 c 0.064,0.105 0.133,0.206 0.198,0.31 h 4.142 v 4.96 h -0.277 c 0.194,0.2 0.388,0.401 0.588,0.597 v -0.283 h 4.955 v 4.209 c 0.104,0.066 0.207,0.134 0.312,0.199 v -4.408 h 4.912 v 4.91 h -4.056 c 0.183,0.105 0.363,0.214 0.549,0.314 h 3.508 v 1.616 c 0.103,0.04 0.206,0.084 0.31,0.123 v -1.739 h 4.912 v 3.102 c 0.119,0.022 0.238,0.042 0.358,0.063 v -3.165 h 4.91 v 3.622 c 0.104,0 0.208,0.007 0.312,0.007 V 58.37 h 4.91 v 3.237 c 0.106,-0.017 0.21,-0.039 0.315,-0.057 v -3.18 h 4.955 v 1.885 c 0.104,-0.037 0.209,-0.073 0.313,-0.111 V 58.37 h 3.908 c 0.185,-0.1 0.365,-0.21 0.549,-0.314 h -4.457 v -4.91 h 4.91 v 4.65 c 0.104,-0.062 0.209,-0.122 0.312,-0.185 v -4.465 h 4.912 v 0.707 c 0.12,-0.112 0.239,-0.224 0.356,-0.338 v -0.37 h 0.379 c 0.102,-0.102 0.198,-0.21 0.299,-0.314 h -0.678 v -4.959 h 4.543 c 0.065,-0.104 0.134,-0.205 0.197,-0.31 h -4.74 v -4.914 h 4.91 v 4.619 c 0.106,-0.18 0.21,-0.362 0.313,-0.545 v -4.074 h 1.904 c 0.04,-0.105 0.083,-0.208 0.121,-0.313 H 58.161 V 37.42 h 3.345 c 0.022,-0.118 0.045,-0.236 0.065,-0.355 h -3.41 V 32.15 h 3.835 C 61.996,32.1 62,32.05 62,32 62,31.945 61.997,31.891 61.996,31.837 h -3.835 v -4.914 h 3.408 c -0.02,-0.12 -0.043,-0.238 -0.065,-0.357 h -3.343 v -4.913 h 2.021 c -0.038,-0.105 -0.083,-0.207 -0.123,-0.312 h -1.898 v -4.063 a 29.861,29.861 0 0 0 -0.313,-0.544 v 4.607 h -4.91 v -4.914 h 4.734 c -0.064,-0.107 -0.135,-0.209 -0.2,-0.315 H 52.938 V 11.2 h 0.709 C 53.533,11.081 53.421,10.96 53.305,10.843 H 52.938 V 10.485 C 52.821,10.371 52.701,10.26 52.582,10.148 v 0.695 H 47.67 V 6.39 C 47.567,6.327 47.462,6.266 47.358,6.204 v 4.639 h -4.91 V 5.93 h 4.43 C 46.695,5.826 46.517,5.717 46.332,5.617 H 42.448 V 3.857 C 42.344,3.819 42.239,3.783 42.135,3.747 v 1.87 H 37.18 V 2.451 C 37.075,2.433 36.97,2.411 36.866,2.395 V 5.617 H 31.957 Z M 21.463,5.93 h 4.912 v 4.914 h -4.912 z m 5.27,0 h 4.91 v 4.914 h -4.91 z m 5.224,0 h 4.908 v 4.914 h -4.908 z m 5.223,0 h 4.955 v 4.914 H 37.18 Z M 10.973,11.2 h 4.955 v 4.912 h -4.955 z m 5.267,0 h 4.913 v 4.912 H 16.24 Z m 5.223,0 h 4.912 v 4.912 h -4.912 z m 5.27,0 h 4.91 v 4.912 h -4.91 z m 5.224,0 h 4.908 v 4.912 h -4.908 z m 5.223,0 h 4.955 v 4.912 H 37.18 Z m 5.268,0 h 4.91 v 4.912 h -4.91 z m 5.222,0 h 4.912 v 4.912 H 47.67 Z m -36.697,5.227 h 4.955 v 4.914 h -4.955 z m 5.268,0 h 4.912 v 4.914 H 16.24 Z m 5.223,0 h 4.912 v 4.914 h -4.912 z m 5.269,0 h 4.91 v 4.914 h -4.91 z m 5.225,0 h 4.908 v 4.914 h -4.908 z m 5.222,0 h 4.955 v 4.914 H 37.18 Z m 5.268,0 h 4.91 v 4.914 h -4.91 z m 5.223,0 h 4.912 v 4.914 H 47.67 Z M 5.75,21.654 h 4.912 v 4.913 H 5.75 Z m 5.222,0 h 4.955 v 4.913 h -4.955 z m 5.268,0 h 4.912 v 4.913 H 16.24 Z m 5.223,0 h 4.912 v 4.913 h -4.912 z m 5.27,0 h 4.91 v 4.913 h -4.91 z m 5.224,0 h 4.908 v 4.913 h -4.908 z m 5.222,0 h 4.956 v 4.913 H 37.18 Z m 5.268,0 h 4.91 v 4.913 h -4.91 z m 5.223,0 h 4.912 v 4.913 H 47.67 Z m 5.267,0 h 4.91 v 4.913 h -4.91 z M 5.75,26.924 h 4.912 v 4.914 H 5.75 Z m 5.223,0 h 4.955 v 4.914 h -4.955 z m 5.268,0 h 4.912 v 4.914 H 16.24 Z m 5.222,0 h 4.912 v 4.914 h -4.912 z m 5.27,0 h 4.91 v 4.914 h -4.91 z m 5.224,0 h 4.909 v 4.914 h -4.909 z m 5.223,0 h 4.955 v 4.914 H 37.18 Z m 5.268,0 h 4.91 v 4.914 h -4.91 z m 5.222,0 h 4.913 v 4.914 H 47.67 Z m 5.268,0 h 4.91 v 4.914 h -4.91 z M 5.75,32.15 h 4.912 v 4.914 H 5.75 Z m 5.223,0 h 4.955 v 4.914 h -4.955 z m 5.267,0 h 4.912 v 4.914 H 16.24 Z m 5.223,0 h 4.912 v 4.914 h -4.912 z m 5.27,0 h 4.91 v 4.914 h -4.91 z m 5.224,0 h 4.908 v 4.914 h -4.908 z m 5.223,0 h 4.955 v 4.914 H 37.18 Z m 5.267,0 h 4.91 v 4.914 h -4.91 z m 5.223,0 h 4.912 v 4.914 H 47.67 Z m 5.268,0 h 4.91 v 4.914 h -4.91 z M 5.75,37.42 h 4.912 v 4.914 H 5.75 Z m 5.222,0 h 4.956 v 4.914 h -4.956 z m 5.268,0 h 4.912 v 4.914 H 16.24 Z m 5.223,0 h 4.912 v 4.914 h -4.912 z m 5.27,0 h 4.91 v 4.914 h -4.91 z m 5.224,0 h 4.908 v 4.914 h -4.908 z m 5.223,0 h 4.955 v 4.914 H 37.18 Z m 5.267,0 h 4.91 v 4.914 h -4.91 z m 5.223,0 h 4.912 v 4.914 H 47.67 Z m 5.267,0 h 4.91 v 4.914 h -4.91 z m -41.965,5.227 h 4.956 v 4.914 h -4.956 z m 5.268,0 h 4.912 v 4.914 H 16.24 Z m 5.223,0 h 4.912 v 4.914 h -4.912 z m 5.27,0 h 4.91 v 4.914 h -4.91 z m 5.224,0 h 4.908 v 4.914 h -4.908 z m 5.223,0 h 4.955 v 4.914 H 37.18 Z m 5.267,0 h 4.91 v 4.914 h -4.91 z m 5.223,0 h 4.912 v 4.914 H 47.67 Z M 10.973,47.87 h 4.955 v 4.96 h -4.955 z m 5.267,0 h 4.913 v 4.96 H 16.24 Z m 5.223,0 h 4.912 v 4.96 h -4.912 z m 5.27,0 h 4.91 v 4.96 h -4.91 z m 5.224,0 h 4.908 v 4.96 h -4.908 z m 5.223,0 h 4.955 v 4.96 H 37.18 Z m 5.268,0 h 4.91 v 4.96 h -4.91 z m 5.222,0 h 4.912 v 4.96 H 47.67 Z m -26.207,5.274 h 4.912 v 4.91 h -4.912 z m 5.27,0 h 4.91 v 4.91 h -4.91 z m 5.224,0 h 4.909 v 4.91 h -4.909 z m 5.223,0 h 4.955 v 4.91 H 37.18 Z"
       fill="url(#d)"
       opacity="0.25"
       id="path7"
       style="fill:url(#linearGradient9)" />
    <path
       d="M 21.443,4.676 C 21.075,4.754 20.691,5.33 20.253,5.537 19.982,5.663 19.593,5.809 19.32,5.757 19.143,5.727 18.787,5.466 18.76,5.123 18.757,5.093 18.766,5.078 18.767,5.053 A 29.982,29.982 0 0 0 6.382,16.342 c 0.032,0.008 0.063,0.003 0.096,0.015 -0.06,0.051 -0.124,0.093 -0.188,0.137 a 29.811,29.811 0 0 0 -3.134,7.229 c 0.277,-0.242 0.593,-0.442 0.894,-0.62 0.308,-0.181 0.555,-0.5 0.822,-0.634 0.378,-0.19 0.656,-0.234 0.97,-0.41 0.565,-0.318 1.051,-0.574 1.493,-0.934 0.205,-0.482 0.013,-1.133 0.037,-1.61 0.205,-0.121 0.383,0.062 0.6,0.032 0.341,-0.077 0.365,-0.552 0.559,-0.744 0.11,-0.107 0.42,-0.191 0.56,-0.301 0.34,-0.266 0.451,-0.665 0.748,-0.78 0.107,-0.035 0.354,-0.03 0.522,-0.083 0.222,-0.065 0.536,-0.324 0.896,-0.448 0.234,-0.085 0.77,-0.097 0.86,-0.187 0.11,-0.108 0,-0.429 0.037,-0.598 0.18,-0.843 1.45,-1.023 2.2,-1.306 0.527,-0.201 1.067,-0.562 1.645,-0.45 -0.113,0.401 -0.654,0.261 -0.562,0.748 0.127,0.675 1.03,-0.199 1.27,-0.298 0.455,-0.192 1.234,-0.31 1.831,-0.526 0.524,-0.19 1.463,-0.482 0.969,-1.082 -0.412,-0.018 -0.61,0.483 -0.969,0.637 -0.248,0.031 -0.203,-0.207 -0.414,-0.227 -0.2,-0.015 -0.315,0.187 -0.521,0.153 -0.206,-0.032 -0.492,-0.358 -0.524,-0.598 -0.082,-0.623 0.527,-0.88 0.785,-1.344 -0.17,-0.564 -0.948,-0.112 -1.42,-0.338 0.046,-0.335 0.393,-0.57 0.786,-0.634 0.321,-0.059 1.04,-0.016 1.232,0.15 0.112,0.094 0.014,0.33 0.188,0.486 0.19,0.173 0.423,0.156 0.67,0.11 0.09,-0.426 -0.555,-0.318 -0.485,-0.6 0.505,-0.33 1.324,-0.063 1.942,-0.15 0.355,-0.056 0.731,-0.307 1.046,-0.485 0.3,-0.17 0.689,-0.466 1.006,-0.187 0.087,0.305 -0.277,0.408 -0.447,0.56 -0.571,0.509 -1.161,1.092 -1.605,1.682 0.272,0.266 0.771,0.13 1.232,0.187 0.18,0.017 0.405,0.082 0.596,0.106 0.222,0.034 0.46,0.025 0.634,0.078 0.314,0.083 0.4,0.414 0.71,0.414 0.51,0 0.515,-0.555 0.226,-0.9 0.091,-0.353 0.236,-0.535 0.111,-0.782 -0.23,-0.46 -1.075,0 -1.119,-0.597 -0.027,-0.373 0.31,-0.356 0.446,-0.635 -0.062,-0.72 0.595,-0.774 0.525,-1.42 -0.03,-0.27 -0.26,-0.27 -0.45,-0.523 C 23.591,8.507 23.547,8.248 23.428,8.148 23.038,7.818 22.243,7.884 22.195,7.254 22.177,6.882 22.285,6.572 22.234,6.168 22.186,5.792 21.928,4.748 21.599,4.676 a 0.361,0.361 0 0 0 -0.156,0 z m 25.363,1.213 c -0.235,0.176 -0.48,0.423 -0.527,0.535 -0.113,0.265 0.027,0.56 0,0.969 0.213,0.093 0.343,0.511 0.707,0.71 0.137,0.082 0.326,0.04 0.449,0.11 0.213,0.114 0.381,0.385 0.338,0.598 -0.063,0.306 -0.466,0.22 -0.674,0.447 0.036,0.435 -0.302,0.496 -0.41,0.787 0.065,0.183 0.342,0.15 0.37,0.37 -0.04,0.237 -0.463,0.273 -0.37,0.524 0.4,0.312 0.813,-0.068 1.191,-0.107 0.835,-0.102 1.694,0.1 2.207,-0.3 -0.07,-0.4 0.415,-0.539 0.371,-0.895 C 50.425,9.368 49.981,9.337 49.784,9.15 49.68,9.051 49.651,8.82 49.523,8.627 49.376,8.406 49.089,8.247 48.925,8.031 48.705,7.74 48.255,7.318 48.255,7.096 48.256,6.991 48.313,6.918 48.38,6.844 A 29.916,29.916 0 0 0 46.806,5.889 Z m -1.297,1.89 v 0.01 c -0.192,0 -0.383,0.043 -0.539,0.135 -0.284,0.173 -0.376,0.441 -0.596,0.525 -0.302,0.11 -0.517,0.014 -0.562,0.297 -0.037,0.23 0.194,0.343 0.187,0.559 -0.11,0.275 -0.431,0.342 -0.486,0.674 0.378,0.617 1.286,0.071 1.756,-0.08 0.211,-0.068 0.52,-0.06 0.635,-0.223 0.13,-0.197 0.015,-0.538 0.113,-0.824 C 46.125,8.538 46.425,8.497 46.388,8.217 46.355,7.962 45.932,7.774 45.509,7.779 Z m 6.607,1.932 c -0.032,0.045 -0.055,0.089 -0.091,0.133 -0.214,0.257 -0.616,0.535 -0.934,0.672 -0.155,0.072 -0.342,0.061 -0.484,0.152 -0.21,0.135 -0.283,0.476 -0.522,0.637 -0.171,0.11 -0.827,0.443 -1.008,0.447 -0.212,0 -0.41,-0.198 -0.562,-0.152 -0.224,0.076 -0.195,0.51 -0.447,0.6 -0.495,0.175 -1.322,-0.441 -1.494,0.296 0.212,0.428 0.75,0.325 1.12,0.56 0.234,0.146 0.723,0.797 0.784,1.048 0.052,0.211 -0.025,1.045 -0.111,1.269 -0.231,0.596 -0.77,0.39 -1.456,0.375 -0.187,0 -0.387,0.052 -0.56,0.03 -1.156,-0.085 -2.316,-0.488 -2.838,0.335 0.042,0.634 0.175,1.058 0.035,1.61 -0.103,0.404 -0.463,0.768 -0.445,1.119 0.009,0.18 0.218,0.353 0.262,0.597 0.022,0.128 -0.06,0.406 0,0.524 0.19,0.368 0.705,0.06 1.043,0.105 0.33,0.054 0.716,0.531 0.712,0.9 -0.002,0.258 -0.25,0.684 -0.414,0.932 -0.326,0.495 -0.763,0.521 -1.23,0.786 -0.39,0.22 -0.555,0.588 -0.783,0.972 -0.247,0.415 -0.403,0.667 -0.301,1.268 -0.334,0.662 -0.838,1.07 -1.53,1.385 -0.204,0.093 -0.486,0.12 -0.673,0.261 -0.15,0.105 -0.233,0.395 -0.446,0.633 -0.26,0.293 -0.536,0.41 -0.673,0.633 -0.107,0.174 -0.145,0.517 -0.262,0.748 -0.16,0.313 -0.5,0.467 -0.71,0.785 -0.095,0.149 -0.152,0.442 -0.259,0.635 -0.236,0.43 -0.64,0.745 -0.597,1.123 0.043,0.366 0.456,0.427 0.484,0.746 0.017,0.18 -0.12,0.29 -0.111,0.486 0.011,0.287 0.202,0.487 0.224,0.707 0.057,0.555 -0.196,0.78 -0.3,1.159 -0.05,0.181 -0.028,0.381 -0.075,0.523 -0.091,0.277 -0.477,0.533 -0.484,0.861 -0.004,0.235 0.242,0.419 0.262,0.746 0.013,0.226 -0.116,0.465 -0.077,0.672 0.08,0.407 0.804,0.882 1.12,1.198 0.422,0.422 0.976,0.75 1.158,1.195 0.153,0.378 0.155,0.873 0.449,1.158 0.218,0.21 0.58,0.341 0.86,0.56 0.26,0.203 0.542,0.38 0.82,0.596 0.454,0.356 1.143,1.063 1.867,1.008 0.378,-0.02 0.764,-0.334 1.193,-0.41 a 6.083,6.083 0 0 1 1.457,-0.078 c 0.342,0.031 0.689,0.24 1.043,0.222 0.374,-0.015 0.81,-0.3 1.235,-0.486 0.736,-0.32 1.836,-0.751 2.912,-0.594 0.819,0.114 0.778,1.059 1.345,1.418 0.66,0.06 1.196,-0.24 1.717,-0.107 0.394,0.098 0.857,0.698 0.895,1.01 0.038,0.324 -0.176,0.806 -0.223,1.006 -0.103,0.436 -0.11,0.956 -0.187,1.232 -0.06,0.215 -0.227,0.349 -0.223,0.563 0.003,0.196 0.248,0.674 0.45,0.931 0.244,0.315 0.633,0.557 0.93,0.899 0.244,0.277 0.42,0.584 0.579,0.908 A 29.906,29.906 0 0 0 61.999,32 c 0,-2.515 -0.31,-4.954 -0.888,-7.285 -0.322,-0.098 -0.666,-0.393 -1.098,-0.487 -0.222,-0.05 -0.534,-0.014 -0.707,-0.082 -0.407,-0.14 -0.358,-0.536 -0.709,-0.783 A 3.068,3.068 0 0 0 57.55,22.988 c -0.2,-0.016 -0.386,0.068 -0.598,0.033 -0.25,-0.022 -0.608,-0.206 -0.82,-0.336 -0.203,-0.118 -0.618,-0.307 -0.67,-0.484 -0.08,-0.275 0.502,-0.592 0.522,-0.826 0.013,-0.177 -0.219,-0.287 -0.262,-0.559 -0.025,-0.165 0.068,-0.335 0.037,-0.445 -0.055,-0.192 -0.371,-0.408 -0.672,-0.412 -0.266,0 -0.519,0.215 -0.746,0.222 -0.328,0.015 -0.865,-0.18 -1.271,-0.15 -0.25,0.015 -0.477,0.166 -0.71,0.184 -0.65,0.054 -1.176,-0.024 -1.68,0 -0.366,0.016 -1,0.145 -1.34,0.302 -0.174,0.084 -0.303,0.261 -0.526,0.373 -0.101,0.047 -0.24,0.046 -0.373,0.108 -0.212,0.096 -0.433,0.322 -0.635,0.373 -0.292,0.076 -0.742,-0.063 -1.27,-0.031 -0.379,0.015 -1,0.017 -1.006,-0.448 -0.009,-0.69 1.174,-0.44 1.827,-0.562 0.246,-0.044 0.38,-0.273 0.674,-0.447 0.14,-0.087 0.315,-0.096 0.447,-0.186 0.226,-0.158 0.566,-0.53 0.6,-0.709 0.029,-0.167 -0.096,-0.4 -0.077,-0.523 0.026,-0.16 0.208,-0.324 0.41,-0.524 0.315,-0.31 0.66,-0.73 1.047,-0.933 0.264,-0.134 0.623,-0.124 0.744,-0.338 0.028,-0.24 -0.042,-0.378 -0.037,-0.596 0.162,-0.149 0.275,-0.268 0.41,-0.297 0.403,-0.09 0.803,0.278 1.272,0.258 0.203,0 0.38,-0.157 0.598,-0.299 0.183,-0.115 0.38,-0.205 0.558,-0.297 0.197,-0.1 0.396,-0.32 0.635,-0.336 0.587,-0.031 0.817,0.617 1.084,0.971 0.223,0.295 0.864,0.803 1.23,1.01 0.207,0.11 0.484,0.113 0.711,0.222 0.22,0.1 0.532,0.309 0.813,0.545 a 29.97,29.97 0 0 0 -6.36,-8.14 z M 8.51,15.377 v 0.002 c 0.19,0 0.356,0.026 0.434,0.101 -0.122,0.494 -1.18,0.364 -1.568,0.186 0.025,-0.185 0.314,-0.236 0.558,-0.262 0.173,-0.015 0.387,-0.03 0.576,-0.027 z m 46.297,0.898 c -0.281,0 -0.454,0.6 -0.054,0.67 0.171,-0.1 0.304,-0.245 0.262,-0.56 -0.072,-0.083 -0.142,-0.106 -0.208,-0.106 z m -0.074,1.051 c -0.142,0.015 -0.306,0.096 -0.467,0.264 0.01,0.417 0.047,0.683 -0.035,1.045 0.24,0.46 0.774,0.047 0.897,-0.262 0.132,-0.712 -0.082,-1.068 -0.395,-1.047 z m 4.32,1.647 c -0.061,0.13 -0.142,0.251 -0.119,0.388 a 0.515,0.515 0 0 0 0.28,-0.033 C 59.159,19.21 59.11,19.09 59.054,18.973 Z m -1.462,0.42 v 0.002 c -0.238,0.015 -0.452,0.06 -0.598,0.173 0.273,0.448 0.843,0.597 1.455,0.707 0.22,-0.166 0.235,-0.534 0.336,-0.82 -0.335,0 -0.797,-0.079 -1.193,-0.062 z M 2.633,25.83 c -0.107,0.513 -0.203,1.03 -0.284,1.553 0.095,0.03 0.195,0.053 0.284,0.09 0.327,-0.27 0.044,-0.766 0,-1.157 -0.02,-0.172 0.018,-0.328 0,-0.486 z m 4.242,11.406 c -0.158,0 -0.298,0.21 -0.434,0.305 -0.206,0.144 -0.405,0.288 -0.634,0.373 -0.513,0.19 -0.832,0.092 -1.233,0.299 -0.371,0.192 -0.385,0.513 -0.596,0.896 -0.172,0.313 -0.565,0.764 -0.824,0.783 -0.039,0.002 -0.076,-0.02 -0.115,-0.03 3.055,11.353 12.57,20.006 24.4,21.796 0.608,-0.288 0.7,-0.99 1.027,-1.596 0.164,-0.302 0.382,-0.61 0.414,-0.824 0.03,-0.193 -0.074,-0.366 -0.04,-0.596 0.032,-0.224 0.24,-0.426 0.302,-0.673 0.081,-0.324 0.111,-0.796 0.111,-1.157 0,-0.296 -0.139,-0.556 -0.152,-0.822 -0.048,-0.969 0.353,-1.08 0.711,-1.607 0.178,-0.262 0.248,-0.56 0.373,-0.748 0.602,-0.898 1.644,-1.33 1.568,-2.688 -0.024,-0.45 -0.303,-1.462 -0.634,-1.605 -0.189,-0.086 -0.623,-0.017 -0.897,-0.11 -0.882,-0.329 -1.4,-1.424 -2.314,-1.494 -0.196,-0.015 -0.378,0.083 -0.598,0.08 -0.362,-0.015 -0.906,-0.253 -1.307,-0.299 -0.254,-0.022 -0.593,0.08 -0.746,0 C 25.023,47.411 25,46.977 24.81,46.848 c -0.152,-0.101 -0.444,-0.132 -0.672,-0.225 -0.368,-0.137 -0.66,-0.307 -1.084,-0.336 -0.13,-0.015 -0.297,0.066 -0.449,0.033 -0.235,-0.033 -0.414,-0.319 -0.63,-0.45 -0.272,-0.166 -0.526,-0.25 -0.638,-0.485 0.245,-0.805 -0.432,-1.03 -0.597,-1.494 -0.078,-0.218 -0.044,-0.476 -0.112,-0.67 -0.097,-0.279 -0.37,-0.442 -0.671,-0.674 -0.54,-0.415 -1.02,-0.803 -1.791,-0.899 -0.34,-0.034 -0.674,0.101 -1.084,0.08 -0.435,-0.019 -0.984,-0.411 -1.31,-0.783 -0.315,-0.364 -0.47,-0.69 -0.745,-0.863 -0.261,-0.166 -0.605,-0.163 -0.783,-0.332 -0.08,-0.081 -0.064,-0.2 -0.149,-0.375 -0.13,-0.272 -0.353,-0.423 -0.19,-0.748 -0.297,-0.156 -0.307,0.281 -0.632,0.225 -0.29,-0.412 -0.536,-0.608 -1.195,-0.487 -0.301,0.063 -0.469,0.44 -0.82,0.45 -0.29,0 -0.518,-0.32 -0.9,-0.374 -0.287,-0.034 -0.615,0.083 -0.82,0.032 C 9.22,38.405 9.121,38.143 8.83,37.951 8.617,37.811 8.203,37.572 8.083,37.576 7.708,37.591 7.443,38.373 6.925,38.1 6.673,37.78 7.337,37.613 7.039,37.314 6.982,37.257 6.927,37.237 6.875,37.238 Z m 0.021,1.54 c 0.253,0.014 0.288,0.545 0.03,0.587 -0.28,0.04 -0.42,-0.435 -0.149,-0.56 a 0.233,0.233 0 0 1 0.12,-0.018 v -0.01 z"
       fill="#ffffff"
       opacity="0.5"
       id="path8" />
    <rect
       transform="rotate(-45)"
       x="-24.361"
       y="44.645"
       width="24"
       height="1"
       rx="0.5"
       ry="0.5"
       fill="#ff5555"
       id="rect8" />
    <path
       d="M 32,2 C 31.665,2 31.333,2.015 31,2.025 V 31 H 2.025 C 2.015,31.333 2,31.665 2,32 c 0,0.335 0.014,0.668 0.025,1 H 31 v 28.975 c 0.333,0.011 0.665,0.026 1,0.026 0.335,0 0.667,-0.015 1,-0.026 V 33 H 61.975 C 61.985,32.668 62,32.336 62,32 62,31.664 61.986,31.333 61.975,31 H 33 V 2.025 C 32.667,2.015 32.335,2 32,2 Z"
       opacity="0.15"
       id="path9" />
  </g>
</svg>
