<?xml version="1.0" encoding="UTF-8" standalone="no"?>
<svg
   width="24"
   height="24"
   viewBox="0 0 6.349875 6.349875"
   version="1.1"
   id="svg7"
   sodipodi:docname="org.nomacs.ImageLounge.svg"
   inkscape:version="1.3 (0e150ed6c4, 2023-07-21)"
   xmlns:inkscape="http://www.inkscape.org/namespaces/inkscape"
   xmlns:sodipodi="http://sodipodi.sourceforge.net/DTD/sodipodi-0.dtd"
   xmlns="http://www.w3.org/2000/svg"
   xmlns:svg="http://www.w3.org/2000/svg"
   xmlns:sketch="http://www.bohemiancoding.com/sketch/ns">
  <defs
     id="defs7">
    <radialGradient
       id="paint0_radial_2_129"
       cx="0"
       cy="0"
       r="1"
       gradientUnits="userSpaceOnUse"
       gradientTransform="matrix(0,5.8207186,-5.8207186,0,3.1749334,0.26459256)">
      <stop
         stop-color="#FAFAFA"
         id="stop8838" />
      <stop
         offset="1"
         stop-color="#B0B0B0"
         id="stop8840" />
    </radialGradient>
  </defs>
  <sodipodi:namedview
     id="namedview7"
     pagecolor="#ffffff"
     bordercolor="#000000"
     borderopacity="0.25"
     inkscape:showpageshadow="2"
     inkscape:pageopacity="0.0"
     inkscape:pagecheckerboard="0"
     inkscape:deskcolor="#d1d1d1"
     inkscape:zoom="8.9603687"
     inkscape:cx="35.043201"
     inkscape:cy="27.286823"
     inkscape:window-width="2560"
     inkscape:window-height="998"
     inkscape:window-x="0"
     inkscape:window-y="0"
     inkscape:window-maximized="1"
     inkscape:current-layer="svg7" />
  <path
     d="m 3.1749374,0.26457811 c -2.64578117,0 -2.91035929,1.32289059 -2.91035929,2.91035929 0,2.116625 0.79373439,2.9103592 2.91035929,2.9103592 2.116625,0 2.9103592,-0.7937342 2.9103592,-2.9103592 0,-1.5874687 -0.264578,-2.91035929 -2.9103592,-2.91035929 z"
     sketch:type="MSShapeGroup"
     id="path6-2"
     style="font-variation-settings:normal;display:inline;vector-effect:none;fill:#ffffff;fill-opacity:1;stroke-width:0.295341;stroke-linecap:butt;stroke-linejoin:miter;stroke-miterlimit:4;stroke-dasharray:none;stroke-dashoffset:0;stroke-opacity:1;-inkscape-stroke:none;stop-color:#000000"
     sodipodi:nodetypes="sssss"
     inkscape:label="Shape" />
  <path
     d="m 3.1749374,0.52254189 c -2.41126864,0 -2.65239551,1.20563431 -2.65239551,2.65239551 0,1.929015 0.72338061,2.6523954 2.65239551,2.6523954 1.929015,0 2.6523954,-0.7233804 2.6523954,-2.6523954 0,-1.4467612 -0.2411267,-2.65239551 -2.6523954,-2.65239551 z"
     sketch:type="MSShapeGroup"
     id="path45683"
     style="font-variation-settings:normal;display:inline;vector-effect:none;fill:#4985cc;fill-opacity:1;stroke-width:0.269163;stroke-linecap:butt;stroke-linejoin:miter;stroke-miterlimit:4;stroke-dasharray:none;stroke-dashoffset:0;stroke-opacity:1;-inkscape-stroke:none;stop-color:#000000"
     sodipodi:nodetypes="sssss"
     inkscape:label="Shape" />
  <path
     id="path12"
     style="font-variation-settings:normal;display:inline;vector-effect:none;fill:#000000;fill-opacity:0.14902;stroke-width:0.269163;stroke-linecap:butt;stroke-linejoin:miter;stroke-miterlimit:4;stroke-dasharray:none;stroke-dashoffset:0;stroke-opacity:1;-inkscape-stroke:none;stop-color:#000000"
     inkscape:label="Shape"
     d="m 0.7296569,2.7915059 v 5.168e-4 a 4.5710652,4.5710652 0 0 0 -0.1989499,0.00775 c -0.00507,0.123082 -0.00827,0.2476769 -0.00827,0.3751635 0,1.9290131 0.7234865,2.6524991 2.6524995,2.6524991 0.7390493,0 1.3008042,-0.1067453 1.71304,-0.3462253 A 4.5710652,4.5710652 0 0 0 0.7296569,2.7915059 Z" />
  <g
     fill="#ffffff"
     opacity="0.5"
     stroke-width="0.626543"
     id="g9"
     transform="matrix(0.42295587,0,0,0.42295587,-0.40601837,-0.40601837)">
    <path
       d="m 5.027,5.027 v 1.852 h 0.53 V 5.556 h 1.322 v -0.53 z m 5.027,0 v 0.53 h 1.323 v 1.322 h 0.529 V 5.027 Z m -5.027,5.027 v 1.852 h 1.852 v -0.53 H 5.556 v -1.322 z m 6.35,0 v 1.323 h -1.323 v 0.53 h 1.852 V 10.054 Z M 9.525,6.085 9.899,6.459 8.402,7.956 8.028,7.582 Z"
       id="path8"
       style="stroke-width:0.626543" />
    <path
       d="m 6.614,6.88 1.588,1.85 v 1.588 H 7.144 v 0.529 h 2.645 v -0.53 H 8.731 V 8.732 L 10.32,6.88 Z"
       id="path9"
       style="stroke-width:0.626543" />
  </g>
  <path
     id="path14"
     style="fill:#000000;fill-opacity:0.14902;stroke-width:0.999999;paint-order:stroke markers fill"
     d="M 5.8000486,3.7630037 A 4.5710652,4.5710652 0 0 0 2.9170772,5.822269 c 0.083717,0.00311 0.1690829,0.00517 0.2578603,0.00517 1.7185198,0 2.4793522,-0.5752028 2.6251111,-2.0644329 z" />
</svg>
