<?xml version="1.0" encoding="UTF-8" standalone="no"?>
<!-- Created with Inkscape (http://www.inkscape.org/) -->

<svg
   width="133.96359mm"
   height="133.96271mm"
   viewBox="0 0 133.96359 133.96271"
   version="1.1"
   id="svg5"
   xml:space="preserve"
   xmlns:inkscape="http://www.inkscape.org/namespaces/inkscape"
   xmlns:sodipodi="http://sodipodi.sourceforge.net/DTD/sodipodi-0.dtd"
   xmlns:xlink="http://www.w3.org/1999/xlink"
   xmlns="http://www.w3.org/2000/svg"
   xmlns:svg="http://www.w3.org/2000/svg"><sodipodi:namedview
     id="namedview7"
     pagecolor="#ffffff"
     bordercolor="#000000"
     borderopacity="0.25"
     inkscape:showpageshadow="2"
     inkscape:pageopacity="0.0"
     inkscape:pagecheckerboard="0"
     inkscape:deskcolor="#d1d1d1"
     inkscape:document-units="mm"
     showgrid="false" /><defs
     id="defs2"><linearGradient
       inkscape:collect="always"
       id="linearGradient13212"><stop
         style="stop-color:#e6e6e6;stop-opacity:1;"
         offset="0"
         id="stop13208" /><stop
         style="stop-color:#e6e6e6;stop-opacity:0;"
         offset="1"
         id="stop13210" /></linearGradient><linearGradient
       inkscape:collect="always"
       xlink:href="#linearGradient13212"
       id="linearGradient13214"
       x1="187.36095"
       y1="487.83167"
       x2="184.83846"
       y2="-296.66052"
       gradientUnits="userSpaceOnUse" /><linearGradient
       inkscape:collect="always"
       xlink:href="#linearGradient13212"
       id="linearGradient13327"
       gradientUnits="userSpaceOnUse"
       x1="187.36095"
       y1="487.83167"
       x2="184.83846"
       y2="-296.66052" /></defs><g
     id="g192"
     transform="matrix(0.35277776,0,0,0.35277778,5.0620457e-4,-1.6930737e-4)"
     style="fill:url(#linearGradient13214);fill-opacity:1"
     inkscape:export-filename="g192.svg"
     inkscape:export-xdpi="24.269279"
     inkscape:export-ydpi="24.269279"><path
       d="m 148.375,1.961 c 2.07,0.023 4.047,-0.242 5.93,-0.789 24.785,-1.625 49.566,-1.559 74.343,0.195 22.469,1.75 44.219,6.625 65.25,14.625 34.965,14.395 58.887,39.36 71.774,74.899 7.367,21.398 11.719,43.402 13.051,66.007 1.839,28.391 1.179,56.715 -1.981,84.981 -2.363,19.867 -7.504,38.969 -15.422,57.312 -14.683,31.801 -38.472,53.739 -71.375,65.809 -26.664,9.008 -54.082,13.754 -82.254,14.23 C 176,380.879 144.633,378.508 113.574,372.117 56.414,359.387 21.156,324.535 7.793,267.574 2.125,241.93 -0.445,215.977 0.082,189.707 -0.551,161.773 2.418,134.238 8.98,107.098 22.988,53.84 56.797,20.836 110.414,8.086 122.906,5.035 135.559,2.992 148.375,1.961 Z"
       style="fill:url(#linearGradient13327);fill-opacity:1;fill-rule:evenodd;stroke:none"
       id="path194" /></g><g
     id="g13206"
     transform="matrix(1.4979526,0,0,1.4979526,-1043.4059,-300.93002)"><path
       d="m 723.30621,217.90991 -1.06926,0.91223 0.0748,0.0748 h -4.92005 a 2.6020934,2.6020934 0 0 0 -1.55528,0.52341 3.2750486,3.2750486 0 0 0 -1.27113,2.64695 v 37.10227 l 4.87518,7.58944 0.89728,1.39825 2.1385,3.31991 2.1385,-3.31991 0.89727,-1.39825 4.87519,-7.58944 V 247.7293 a 0.98700095,0.98700095 0 0 1 0.35143,-0.76268 l 20.98125,24.48809 3.26009,1.85436 h 6.14633 l -0.84494,-0.99447 h 4.86771 c 0.18694,0 0.37387,-0.0224 0.55332,-0.0598 -0.0822,0.0224 -0.0374,0 0.15703,-0.0598 a 2.8114572,2.8114572 0 0 0 1.35338,-0.89727 l 0.658,0.76268 a 4.3368223,4.3368223 0 0 0 1.09916,-2.90866 v -4.93501 l -0.99447,-1.1515 v -40.99793 c 0,-1.81697 -1.29357,-3.16288 -2.82642,-3.16288 h -10.1691 c -1.53284,0 -2.82641,1.34591 -2.82641,3.16288 v 21.38503 a 0.98700095,0.98700095 0 0 1 -0.35143,0.74772 l -21.57195,-25.18348 c -0.37387,-0.43368 -2.24319,-0.79259 -2.66192,-1.10663 h -2.12354 z"
       fill="#f09e19"
       id="path13161"
       style="stroke-width:7.47728" /><path
       d="m 754.97996,217.90991 c -2.11607,0 -3.81341,1.85436 -3.81341,4.15736 v 47.08444 c 0,2.303 1.69734,4.15736 3.81341,4.15736 h 10.1691 c 2.11607,0 3.81342,-1.85436 3.81342,-4.15736 v -47.08444 c 0,-2.303 -1.69735,-4.15736 -3.81342,-4.15736 h -8.05303 z m -37.58828,0 a 3.5741398,3.5741398 0 0 0 -2.13851,0.71034 4.2620495,4.2620495 0 0 0 -1.68238,3.43955 v 37.40135 l 5.93696,9.22696 2.96848,4.62096 2.96848,-4.62096 5.93696,-9.22696 v -37.39388 a 4.2620495,4.2620495 0 0 0 -1.68239,-3.44702 3.633958,3.633958 0 0 0 -2.1385,-0.71034 h -8.05303 z"
       fill="#ffb333"
       id="path13163"
       style="stroke-width:7.47728" /><path
       fill="#7d7d7c"
       d="m 751.15907,229.78383 h 17.80341 v 5.93696 h -17.80341 z"
       id="path13165"
       style="stroke-width:7.47728" /><path
       d="m 754.97996,217.90991 c -2.11607,0 -3.81341,1.85436 -3.81341,4.15736 v 7.71656 h 17.79593 v -7.71656 c 0,-2.303 -1.69735,-4.15736 -3.81342,-4.15736 z"
       fill="#ff5636"
       id="path13167"
       style="stroke-width:7.47728" /><path
       d="m 713.57079,259.46115 5.09202,7.91096 h 7.62683 l 5.08455,-7.91096 z"
       fill="#f7ddc1"
       id="path13169"
       style="stroke-width:7.47728" /><path
       d="m 718.66281,267.37211 3.81342,5.93696 3.81341,-5.93696 z"
       fill="#775d53"
       id="path13171"
       style="stroke-width:7.47728" /><path
       opacity="0.2"
       d="m 751.15907,229.78383 h 17.80341 v 1.98148 h -17.80341 z"
       id="path13173"
       style="stroke-width:7.47728" /></g></svg>
