<?xml version="1.0" encoding="UTF-8" standalone="no"?>
<!-- Created with Inkscape (http://www.inkscape.org/) -->

<svg
   width="133.96359mm"
   height="133.96271mm"
   viewBox="0 0 133.96359 133.96271"
   version="1.1"
   id="svg5"
   xml:space="preserve"
   xmlns:inkscape="http://www.inkscape.org/namespaces/inkscape"
   xmlns:sodipodi="http://sodipodi.sourceforge.net/DTD/sodipodi-0.dtd"
   xmlns:xlink="http://www.w3.org/1999/xlink"
   xmlns="http://www.w3.org/2000/svg"
   xmlns:svg="http://www.w3.org/2000/svg"><sodipodi:namedview
     id="namedview7"
     pagecolor="#ffffff"
     bordercolor="#000000"
     borderopacity="0.25"
     inkscape:showpageshadow="2"
     inkscape:pageopacity="0.0"
     inkscape:pagecheckerboard="0"
     inkscape:deskcolor="#d1d1d1"
     inkscape:document-units="mm"
     showgrid="false" /><defs
     id="defs2"><linearGradient
       inkscape:collect="always"
       id="linearGradient13212"><stop
         style="stop-color:#e6e6e6;stop-opacity:1;"
         offset="0"
         id="stop13208" /><stop
         style="stop-color:#ffffff;stop-opacity:1"
         offset="1"
         id="stop13210" /></linearGradient><linearGradient
       inkscape:collect="always"
       xlink:href="#linearGradient13212"
       id="linearGradient13214"
       x1="187.36095"
       y1="487.83167"
       x2="184.83846"
       y2="-296.66052"
       gradientUnits="userSpaceOnUse" /><linearGradient
       inkscape:collect="always"
       xlink:href="#linearGradient13212"
       id="linearGradient13474"
       gradientUnits="userSpaceOnUse"
       x1="187.36095"
       y1="487.83167"
       x2="184.83846"
       y2="-296.66052" /></defs><g
     id="g192"
     transform="matrix(0.35277776,0,0,0.35277778,5.0620457e-4,-1.6930737e-4)"
     style="fill:url(#linearGradient13214);fill-opacity:1"
     inkscape:export-filename="g192.svg"
     inkscape:export-xdpi="24.269279"
     inkscape:export-ydpi="24.269279"><path
       d="m 148.375,1.961 c 2.07,0.023 4.047,-0.242 5.93,-0.789 24.785,-1.625 49.566,-1.559 74.343,0.195 22.469,1.75 44.219,6.625 65.25,14.625 34.965,14.395 58.887,39.36 71.774,74.899 7.367,21.398 11.719,43.402 13.051,66.007 1.839,28.391 1.179,56.715 -1.981,84.981 -2.363,19.867 -7.504,38.969 -15.422,57.312 -14.683,31.801 -38.472,53.739 -71.375,65.809 -26.664,9.008 -54.082,13.754 -82.254,14.23 C 176,380.879 144.633,378.508 113.574,372.117 56.414,359.387 21.156,324.535 7.793,267.574 2.125,241.93 -0.445,215.977 0.082,189.707 -0.551,161.773 2.418,134.238 8.98,107.098 22.988,53.84 56.797,20.836 110.414,8.086 122.906,5.035 135.559,2.992 148.375,1.961 Z"
       style="fill:url(#linearGradient13474);fill-opacity:1;fill-rule:evenodd;stroke:none"
       id="path194" /></g><g
     id="g13369"
     transform="matrix(1.070554,0,0,1.070554,-701.33893,-150.70171)"><path
       d="m 717.68517,159.19241 a 44.144432,44.144432 0 0 0 -44.14443,44.14443 44.144432,44.144432 0 0 0 44.14443,44.14444 44.144432,44.144432 0 0 0 44.14444,-44.14444 44.144432,44.144432 0 0 0 -44.14444,-44.14443 z m 0,3.53156 a 40.612878,40.612878 0 0 1 40.61288,40.61287 40.612878,40.612878 0 0 1 -40.61288,40.61288 40.612878,40.612878 0 0 1 -40.61287,-40.61288 40.612878,40.612878 0 0 1 40.61287,-40.61287 z"
       fill="#666666"
       fill-rule="evenodd"
       style="stroke-width:1.76578;paint-order:stroke fill markers;image-rendering:optimizeSpeed"
       id="path13349" /><path
       d="m 700.02697,180.00663 h 8.50114 l 20.6888,39.03502 v -39.03502 h 6.12521 v 46.66113 h -8.50114 l -20.68879,-39.03502 v 39.03502 h -6.12522 z"
       fill="#666666"
       aria-label="N"
       id="path13351"
       style="stroke-width:1.96195;image-rendering:optimizeSpeed" /></g></svg>
