<?xml version="1.0" encoding="UTF-8" standalone="no"?>
<svg
   width="24"
   height="24"
   viewBox="0 0 6.349875 6.349875"
   version="1.1"
   id="svg8"
   sodipodi:docname="nutstore.svg"
   inkscape:version="1.3 (0e150ed6c4, 2023-07-21)"
   xmlns:inkscape="http://www.inkscape.org/namespaces/inkscape"
   xmlns:sodipodi="http://sodipodi.sourceforge.net/DTD/sodipodi-0.dtd"
   xmlns="http://www.w3.org/2000/svg"
   xmlns:svg="http://www.w3.org/2000/svg">
  <sodipodi:namedview
     id="namedview8"
     pagecolor="#ffffff"
     bordercolor="#000000"
     borderopacity="0.25"
     inkscape:showpageshadow="2"
     inkscape:pageopacity="0.0"
     inkscape:pagecheckerboard="0"
     inkscape:deskcolor="#d1d1d1"
     inkscape:zoom="6.3359375"
     inkscape:cx="39.220715"
     inkscape:cy="31.329223"
     inkscape:window-width="2560"
     inkscape:window-height="998"
     inkscape:window-x="0"
     inkscape:window-y="0"
     inkscape:window-maximized="1"
     inkscape:current-layer="svg8" />
  <defs
     id="defs4">
    <linearGradient
       id="a"
       x1="10.435"
       x2="8.0869999"
       y1="13.075"
       y2="9.3050003"
       gradientTransform="matrix(1.3719,0,0,1.3797,7.423125,-2.936)"
       gradientUnits="userSpaceOnUse">
      <stop
         stop-color="#975c25"
         offset="0"
         id="stop1" />
      <stop
         stop-color="#975c25"
         stop-opacity="0"
         offset="1"
         id="stop2" />
    </linearGradient>
    <linearGradient
       id="b"
       x1="13"
       x2="10.776"
       y1="9.8599997"
       y2="6.7709999"
       gradientTransform="matrix(1.3719,0,0,1.3797,7.423125,-2.936)"
       gradientUnits="userSpaceOnUse">
      <stop
         stop-color="#5d3417"
         offset="0"
         id="stop3" />
      <stop
         stop-color="#5d3417"
         stop-opacity="0"
         offset="1"
         id="stop4" />
    </linearGradient>
    <radialGradient
       fx="0"
       fy="0"
       cx="0"
       cy="0"
       r="1"
       gradientUnits="userSpaceOnUse"
       gradientTransform="matrix(0,16.5,-16.5,0,8.999651,0.749985)"
       spreadMethod="pad"
       id="radialGradient868-3">
      <stop
         style="stop-opacity:1;stop-color:#fafafa"
         offset="0"
         id="stop864-6" />
      <stop
         style="stop-opacity:1;stop-color:#c0c0c0"
         offset="1"
         id="stop866-7" />
    </radialGradient>
  </defs>
  <g
     id="g854"
     transform="matrix(0.35277082,0,0,0.35277082,-1.1965686e-4,-9.2712777e-6)">
    <g
       id="g856">
      <g
         id="g862">
        <path
           d="m 7.195,0.836 c 0.09,0 0.176,-0.012 0.258,-0.035 1.078,-0.071 2.156,-0.067 3.231,0.008 0.976,0.078 1.921,0.289 2.836,0.636 1.519,0.625 2.558,1.711 3.121,3.254 0.316,0.93 0.507,1.887 0.566,2.867 0.078,1.235 0.051,2.465 -0.086,3.696 -0.105,0.863 -0.328,1.691 -0.672,2.488 -0.637,1.383 -1.672,2.336 -3.101,2.859 C 12.191,17 11,17.207 9.773,17.227 8.398,17.301 7.035,17.195 5.684,16.918 3.203,16.367 1.668,14.852 1.09,12.375 0.844,11.262 0.73,10.133 0.754,8.992 0.727,7.781 0.855,6.582 1.141,5.402 1.75,3.09 3.219,1.656 5.547,1.102 6.09,0.969 6.641,0.879 7.195,0.836 Z"
           style="fill:url(#radialGradient868-3);fill-rule:evenodd;stroke:none"
           id="path870" />
      </g>
    </g>
  </g>
  <g
     id="g8"
     transform="matrix(0.25549153,0,0,0.25549153,-1.6922864,1.0118649)"
     style="stroke-width:3.91402">
    <path
       d="m 22.481124,4.123 c 0,0 0.5,-0.453 0.915,-0.744 0.415,-0.291 1.023,-0.624 1.564,-0.51 0.541,0.113 0.982,0.834 0.765,1.254 -0.217,0.42 -0.605,-0.09 -1.18,-0.06 -0.573,0.03 -1.42,0.97 -1.42,0.97 z"
       fill="#9b5a2d"
       style="stroke-width:3.91402;paint-order:normal"
       id="path4" />
    <path
       d="m 23.114124,5.621 c 1.417,2.276 2.47,5.39 -1.54,7.916 -4.008,2.525 -8.272999,0.41 -8.872999,-0.773 -0.944,-1.86 -0.287,-7.035 3.664999,-9.65 2.6,-1.722 5.026,-0.217 6.443,2.059 z"
       fill="#e6b260"
       style="stroke-width:3.91402;paint-order:normal"
       id="path5" />
    <path
       d="m 19.403124,2.426 a 6.36,6.36 0 0 1 1.611,1.729 c 1.419,2.275 2.059,5.785 -1.951,8.31 a 7.541,7.541 0 0 1 -5.681999,1.01 c 1.48,1.091 4.920999,2.124 8.194999,0.062 4.009,-2.526 3.37,-6.034 1.952,-8.31 -0.886,-1.422 -2.444,-2.563 -4.123,-2.8 z"
       fill="url(#a)"
       opacity="0.5"
       style="fill:url(#a);stroke-width:3.91402;paint-order:stroke markers fill"
       id="path6" />
    <path
       d="m 23.527124,5.227 c 1.627,2.448 1.67,5.603 0.161,7.295 -0.148,0.166 -0.792,0.172 -0.766,-0.08 0.028,-0.276 0.286,-0.735 0.151,-1.189 -0.253,-0.857 -0.426,-1.22 -0.966,-2.106 -0.463,-0.759 -1.206,-1.965 -1.64,-2.547 -0.67,-0.9 -1.783,-2.164 -3.01,-3.212 -0.38,-0.324 -0.811,-0.166 -1.093,-0.322 -0.22,-0.122 -0.157,-0.4 0.079,-0.488 2.914,-1.102 5.6,0.416 7.084,2.649 z"
       fill="#a46941"
       style="stroke-width:3.91402;paint-order:normal"
       id="path7" />
    <path
       d="m 23.664124,5.45 c 0.074,1.32 -0.505,3.197 -1.754,3.378 l 0.198,0.32 c 0.54,0.884 0.713,1.248 0.966,2.105 0.134,0.454 -0.123,0.913 -0.151,1.188 -0.026,0.253 0.618,0.247 0.766,0.082 1.463,-1.642 1.462,-4.66 -0.025,-7.074 z"
       fill="url(#b)"
       opacity="0.75"
       style="fill:url(#b);stroke-width:3.91402;paint-order:stroke markers fill"
       id="path8" />
  </g>
</svg>
