<?xml version="1.0" encoding="UTF-8" standalone="no"?>
<svg
   width="24"
   height="24"
   viewBox="0 0 6.349875 6.349875"
   version="1.1"
   id="svg23234"
   sodipodi:docname="nvdock.svg"
   xml:space="preserve"
   inkscape:version="1.2.2 (b0a8486541, 2022-12-01)"
   xmlns:inkscape="http://www.inkscape.org/namespaces/inkscape"
   xmlns:sodipodi="http://sodipodi.sourceforge.net/DTD/sodipodi-0.dtd"
   xmlns="http://www.w3.org/2000/svg"
   xmlns:svg="http://www.w3.org/2000/svg"><sodipodi:namedview
     id="namedview23236"
     pagecolor="#ffffff"
     bordercolor="#000000"
     borderopacity="0.25"
     inkscape:showpageshadow="2"
     inkscape:pageopacity="0.0"
     inkscape:pagecheckerboard="0"
     inkscape:deskcolor="#d1d1d1"
     showgrid="false"
     inkscape:zoom="4.8282135"
     inkscape:cx="-80.878776"
     inkscape:cy="-24.957471"
     inkscape:window-width="2560"
     inkscape:window-height="1000"
     inkscape:window-x="1680"
     inkscape:window-y="0"
     inkscape:window-maximized="1"
     inkscape:current-layer="svg23234" /><defs
     id="defs23226"><radialGradient
       id="paint0_radial_3_321"
       cx="0"
       cy="0"
       r="1"
       gradientUnits="userSpaceOnUse"
       gradientTransform="matrix(0,5.8207186,-5.8207186,0,3.1749362,0.26458188)"><stop
         stop-color="#555555"
         id="stop23373" /><stop
         offset="1"
         stop-color="#222222"
         id="stop23375" /></radialGradient><clipPath
       clipPathUnits="userSpaceOnUse"
       id="clipPath23424"><g
         id="g23428"><rect
           x="7.6606259"
           y="0.15875305"
           width="13.22875"
           height="13.22875"
           rx="0.79374999"
           ry="0.79374999"
           fill="#2196f3"
           stroke-linecap="round"
           stroke-linejoin="round"
           stroke-opacity="0.098"
           stroke-width="0.295"
           paint-order="markers stroke fill"
           id="rect23426" /></g></clipPath><clipPath
       clipPathUnits="userSpaceOnUse"
       id="clipPath23430"><g
         id="g23434"
         transform="matrix(0,-1,-1,0,0,0)"><rect
           x="7.6606259"
           y="0.15875305"
           width="13.22875"
           height="13.22875"
           rx="0.79374999"
           ry="0.79374999"
           fill="#2196f3"
           stroke-linecap="round"
           stroke-linejoin="round"
           stroke-opacity="0.098"
           stroke-width="0.295"
           paint-order="markers stroke fill"
           id="rect23432" /></g></clipPath></defs><path
     fill-rule="evenodd"
     clip-rule="evenodd"
     d="m 2.5389012,0.29463528 c 0.03171,3.361e-4 0.06201,-0.0037 0.09092,-0.012118 0.379884,-0.024885 0.759713,-0.023875 1.139541,0.00303 0.344401,0.026834 0.677796,0.1015557 1.000158,0.2241664 0.53593,0.2206423 0.902661,0.60334402 1.100143,1.14809982 0.112948,0.3279789 0.179622,0.665242 0.200047,1.0117837 0.02823,0.4351517 0.01812,0.8693508 -0.03032,1.3025969 -0.03625,0.304503 -0.115065,0.597338 -0.2364,0.878479 -0.22505,0.487485 -0.589745,0.823738 -1.094084,1.008757 -0.408693,0.138083 -0.828949,0.21079 -1.260794,0.218092 -0.485739,0.02527 -0.966601,-0.01109 -1.44262,-0.109033 -0.876171,-0.195179 -1.41665202,-0.729362 -1.62143802,-1.602497 -0.08691,-0.393057 -0.126304,-0.7909027 -0.1182,-1.1935377 -0.0097,-0.4281403 0.03576,-0.8502244 0.136385,-1.2662418 0.214678,-0.8163902 0.73293102,-1.32228202 1.55476102,-1.51767032 0.191499,-0.046817 0.385467,-0.078119 0.581901,-0.093907 z"
     fill="url(#paint0_radial_3_321)"
     id="path23367"
     style="fill:url(#paint0_radial_3_321);stroke-width:0.264578" /><path
     id="path24491"
     style="fill:#76b900;fill-opacity:1;stroke-width:0.264578"
     d="m 3.1997089,0.26460267 c -0.064918,-1.726e-4 -0.129897,7.269e-4 -0.194816,0.002067 V 1.8556887 l 0.052192,-0.00103 c 1.14614,-0.00746 1.889253,0.9895842 1.889253,0.9895842 0,0 -0.880273,1.0950021 -1.798304,1.0950021 a 1.3239051,1.3239051 0 0 1 -0.143141,-0.00723 v 0.2883488 c 0.033563,0.00249 0.068544,0.0031 0.103351,0.0031 0.854011,0 1.472289,-0.4458679 2.0696,-0.9735648 0.099448,0.080802 0.505295,0.2784329 0.588583,0.3648285 -0.568719,0.487296 -1.893809,0.8795155 -2.645265,0.8795155 a 1.7714223,1.7714223 0 0 1 -0.116269,-0.00362 v 1.5926363 c 0.147266,0.00376 0.295202,0.00202 0.443375,-0.00568 0.431844,-0.0073 0.852187,-0.079987 1.26088,-0.2180702 C 5.2134859,5.6744903 5.5780669,5.3382895 5.8031159,4.850805 5.9244509,4.5696643 6.0030229,4.2768256 6.0392729,3.9723229 6.0877129,3.5390773 6.0979919,3.104737 6.0697619,2.6695857 6.0493369,2.3230352 5.9827259,1.9857505 5.8697779,1.6577719 5.6722959,1.1130166 5.3055379,0.73070297 4.7696079,0.51006087 4.4472459,0.38745027 4.1140899,0.31262357 3.7696889,0.28578957 3.5797749,0.27233707 3.3896299,0.26510767 3.1997089,0.26460267 Z M 3.0048929,4.2203557 c -0.031699,-0.00186 -0.054809,-0.00557 -0.085265,-0.0093 -1.044827,-0.1348765 -1.401954,-1.313589 -1.401954,-1.313589 0,0 0.467141,-0.7070605 1.401954,-0.779782 0.029835,-0.00186 0.054187,-0.00455 0.085265,-0.00517 v 0.3141866 c 0.024862,-0.00124 0.059159,-0.0031 0.085264,-0.0031 0.541993,0 0.864013,0.4314898 0.864013,0.4314898 l -0.441308,0.380848 C 3.3357199,2.9332437 3.2553779,2.7821567 3.0048929,2.7243525 V 2.4267021 c -0.031078,0.00186 -0.054809,0.00464 -0.085265,0.00775 -0.629631,0.069614 -1.008704,0.4997012 -1.008704,0.4997012 0,0 0.218713,0.8403216 1.008704,0.9838999 0.030456,0.00622 0.053566,0.010223 0.085265,0.013952 v -0.238222 c -0.032321,-0.00622 -0.056052,-0.014859 -0.085265,-0.024804 -0.44503,-0.1529015 -0.589616,-0.6857327 -0.589616,-0.6857327 0,0 0.257918,-0.3163476 0.588583,-0.2759467 h 0.00103 c 0.034186,0.00435 0.056052,0.010733 0.085265,0.01757 v 0.968914 c 0,0.049724 0.109421,0.016019 0.165361,0.016019 0.642684,0 1.242794,-0.8526443 1.242794,-0.8526443 0,0 -0.562846,-0.7706431 -1.408155,-0.7451595 V 1.8567222 c -0.031078,0.00124 -0.054809,0.00216 -0.085265,0.00465 -1.035504,0.084531 -1.93162694,0.9823497 -1.93162694,0.9823497 0,0 0.50765394,1.5028149 1.93162694,1.6401776 0.031078,0.00311 0.053566,0.00496 0.085265,0.0062 z" /></svg>
