<svg width="24" height="24" viewBox="0 0 24 24" fill="none" xmlns="http://www.w3.org/2000/svg">
<path fill-rule="evenodd" clip-rule="evenodd" d="M9.59606 1.11359C9.71589 1.11487 9.83044 1.0996 9.9397 1.06779C11.3754 0.973736 12.8111 0.977551 14.2467 1.07924C15.5485 1.18066 16.8085 1.46308 18.0269 1.9265C20.0525 2.76044 21.4386 4.2069 22.1851 6.26586C22.6119 7.50549 22.864 8.78023 22.9411 10.09C23.0478 11.7348 23.0096 13.3758 22.8265 15.0133C22.6895 16.1642 22.3916 17.271 21.933 18.3336C21.0824 20.1761 19.704 21.447 17.7978 22.1463C16.2531 22.6683 14.6646 22.943 13.0325 22.9707C11.1966 23.0662 9.37914 22.9287 7.57998 22.5585C4.26839 21.8208 2.22559 19.8019 1.45158 16.5017C1.12311 15.0161 0.974199 13.5124 1.00483 11.9906C0.968176 10.3724 1.14 8.77708 1.52031 7.20472C2.33171 4.11908 4.2905 2.20701 7.39669 1.46852C8.12049 1.29157 8.85364 1.17326 9.59606 1.11359Z" fill="url(#paint0_radial_18_124)"/>
<path fill-rule="evenodd" clip-rule="evenodd" d="M8.98257 3.50179C7.32523 4.33019 5.94002 5.88119 5.90033 7.72805C5.86821 8.68734 6.07797 9.69684 6.5731 10.5234C8.30414 10.5503 10.0881 11.4899 10.6966 13.0875C11.5848 15.2033 10.5379 18.0077 8.19642 18.7859C6.99641 19.1965 5.66033 19.0136 4.5 18.5707C6.08742 19.5193 8.19831 19.8815 9.90479 18.9867C10.7968 18.5384 11.5829 17.8589 12.1177 17.0556C11.2768 15.614 11.2428 13.681 12.3974 12.3793C13.8771 10.5898 16.9594 10.0393 18.8416 11.5724C19.8186 12.3542 20.3175 13.543 20.4952 14.7174C20.567 12.9405 19.8432 11.0237 18.1802 10.0698C17.3138 9.55942 16.3274 9.26121 15.3096 9.20195C14.4157 10.6149 12.6677 11.61 10.9026 11.3142C8.53092 10.9968 6.48239 8.74293 6.9416 6.42808C7.1646 5.23569 8.00177 4.23157 8.98446 3.5L8.98257 3.50179Z" fill="#F9F9F9"/>
<defs>
<radialGradient id="paint0_radial_18_124" cx="0" cy="0" r="1" gradientUnits="userSpaceOnUse" gradientTransform="translate(12 1) rotate(90) scale(22 22)">
<stop stop-color="#333333"/>
<stop offset="1"/>
</radialGradient>
</defs>
</svg>
