<svg width="24" height="24" viewBox="0 0 24 24" fill="none" xmlns="http://www.w3.org/2000/svg">
<path fill-rule="evenodd" clip-rule="evenodd" d="M9.3775 0.123915C9.50824 0.125307 9.6332 0.108652 9.75239 0.073954C11.3187 -0.0286516 12.8849 -0.0244899 14.451 0.0864444C15.871 0.197086 17.2456 0.505183 18.5748 1.01073C20.7846 1.92048 22.2966 3.49843 23.1109 5.74457C23.5766 7.0969 23.8516 8.4875 23.9357 9.91634C24.0521 11.7106 24.0105 13.5009 23.8107 15.2872C23.6612 16.5427 23.3363 17.7501 22.836 18.9094C21.9081 20.9194 20.4044 22.3058 18.3249 23.0687C16.6398 23.6381 14.9069 23.9378 13.1264 23.968C11.1236 24.0721 9.14087 23.9222 7.17815 23.5183C3.56552 22.7136 1.337 20.5111 0.49263 16.9109C0.134306 15.2903 -0.0281463 13.6499 0.00527377 11.9897C-0.0347169 10.2244 0.152728 8.4841 0.567607 6.76878C1.45278 3.40263 3.58964 1.31674 6.97821 0.511116C7.7678 0.318078 8.56757 0.18901 9.3775 0.123915Z" fill="url(#paint0_radial_1_41)"/>
<path d="M9.68378 12.3079C10.1708 11.3532 10.7244 10.2777 11.1675 9.19771L11.3426 8.77142C10.7639 6.56922 10.4169 4.80151 10.7269 3.65857C10.8104 3.36058 11.1555 3.17976 11.5245 3.17976L11.7494 3.18309H11.7907C12.2959 3.17533 12.5337 3.81796 12.5607 4.06781C12.6053 4.48392 12.4128 5.18814 12.4128 5.18814C12.4128 4.90376 12.4239 4.44426 12.2444 4.04773C12.0355 3.58891 11.8359 3.31482 11.657 3.27137C11.5667 3.3317 11.4789 3.45666 11.4488 3.69701C11.3865 4.03402 11.3678 4.45941 11.3678 4.67868C11.3678 5.45344 11.5204 6.47604 11.8202 7.53022C11.8767 7.36701 11.9265 7.21019 11.966 7.06325C12.0275 6.83169 12.4183 5.29669 12.4183 5.29669C12.4183 5.29669 12.3198 7.34002 12.1823 7.95832C12.1528 8.08897 12.1203 8.21819 12.0864 8.35044C12.5808 9.73168 13.3773 10.9644 14.3276 11.8517C14.7023 12.2018 15.1754 12.4842 15.6233 12.7415C16.6013 12.6018 17.5018 12.5357 18.253 12.5441C19.2497 12.5572 19.9813 12.7046 20.2775 12.9964C20.4225 13.1383 20.4814 13.3096 20.4997 13.5016C20.5039 13.5763 20.4676 13.7518 20.4569 13.7959C20.4677 13.7426 20.4677 13.4803 19.6675 13.2249C19.0374 13.0235 17.8581 13.0298 16.443 13.1804C18.0798 13.9812 19.6744 14.379 20.1798 14.1405C20.3033 14.0803 20.4532 13.875 20.4532 13.875C20.4532 13.875 20.3641 14.2797 20.3002 14.3809C20.2185 14.4908 20.0584 14.6099 19.9066 14.65C19.1085 14.8629 17.0311 14.3702 15.2199 13.3354C13.1966 13.6334 10.9744 14.1839 9.19302 14.7681C7.4426 17.8358 6.12664 19.2446 5.05611 18.7087L4.66252 18.5108C4.50252 18.4192 4.4781 18.1965 4.5151 18.0151C4.63993 17.4044 5.40566 16.4846 6.94379 15.5662C7.10934 15.4661 7.84683 15.0761 7.84683 15.0761C7.84683 15.0761 7.30086 15.6045 7.17295 15.7083C5.94525 16.7143 5.0391 17.9801 5.06182 18.4708L5.06625 18.5135C6.10914 18.3649 7.67315 16.242 9.68378 12.3079ZM10.3208 12.6344C9.98501 13.2669 9.65676 13.8533 9.3537 14.3918C11.0301 13.6894 12.8343 13.24 14.5519 12.9207C14.3211 12.7613 14.097 12.5925 13.8862 12.4141C12.9404 11.6134 12.2193 10.6144 11.6965 9.56312C11.365 10.4562 10.9709 11.4051 10.3208 12.6344Z" fill="white"/>
<defs>
<radialGradient id="paint0_radial_1_41" cx="0" cy="0" r="1" gradientUnits="userSpaceOnUse" gradientTransform="translate(12) rotate(90) scale(12)">
<stop stop-color="#F08C85"/>
<stop offset="1" stop-color="#E84F43"/>
</radialGradient>
</defs>
</svg>
