<?xml version="1.0" encoding="UTF-8" standalone="no"?>
<svg
   width="24"
   height="24"
   viewBox="0 0 6.349875 6.349875"
   version="1.1"
   id="svg3"
   sodipodi:docname="onboard-settings.svg"
   inkscape:version="1.3 (0e150ed6c4, 2023-07-21)"
   xmlns:inkscape="http://www.inkscape.org/namespaces/inkscape"
   xmlns:sodipodi="http://sodipodi.sourceforge.net/DTD/sodipodi-0.dtd"
   xmlns="http://www.w3.org/2000/svg"
   xmlns:svg="http://www.w3.org/2000/svg">
  <defs
     id="defs3">
    <radialGradient
       id="paint0_radial_2_129"
       cx="0"
       cy="0"
       r="1"
       gradientUnits="userSpaceOnUse"
       gradientTransform="matrix(0,5.8207186,-5.8207186,0,3.1749334,0.26459256)">
      <stop
         stop-color="#FAFAFA"
         id="stop8838" />
      <stop
         offset="1"
         stop-color="#B0B0B0"
         id="stop8840" />
    </radialGradient>
  </defs>
  <sodipodi:namedview
     id="namedview3"
     pagecolor="#ffffff"
     bordercolor="#000000"
     borderopacity="0.25"
     inkscape:showpageshadow="2"
     inkscape:pageopacity="0.0"
     inkscape:pagecheckerboard="0"
     inkscape:deskcolor="#d1d1d1"
     inkscape:zoom="6.3359375"
     inkscape:cx="10.10111"
     inkscape:cy="24.069051"
     inkscape:window-width="2560"
     inkscape:window-height="998"
     inkscape:window-x="0"
     inkscape:window-y="0"
     inkscape:window-maximized="1"
     inkscape:current-layer="svg3" />
  <path
     fill-rule="evenodd"
     clip-rule="evenodd"
     d="m 2.6298231,0.28252566 c -0.028905,0.00842 -0.059212,0.012456 -0.09092,0.01212 -0.196436,0.01579 -0.3904035,0.047087 -0.5819025,0.093907 C 1.135168,0.58394096 0.616915,1.0898328 0.4022388,1.906223 c -0.100626,0.41602 -0.146085,0.8380909 -0.136384,1.2662577 -0.0081,0.4026349 0.03129,0.8004811 0.1182,1.1935383 0.2047832,0.8731343 0.745266,1.4073172 1.6214403,1.6024972 0.4760184,0.09795 0.9568759,0.134299 1.4426148,0.108979 0.4318445,-0.0073 0.8521003,-0.08001 1.2607942,-0.218091 C 5.2132429,5.6743842 5.5779374,5.3381319 5.8029875,4.8506468 5.924323,4.5695061 6.0031409,4.276671 6.0393881,3.972168 6.0878321,3.5389214 6.0979391,3.1047222 6.0697091,2.6695706 6.0492837,2.3230367 5.98261,1.9857711 5.8696616,1.6577894 5.6721805,1.1130337 5.3054488,0.73033476 4.7695193,0.50968976 4.4471573,0.38707896 4.1137624,0.31235416 3.7693611,0.28552596 c -0.3798283,-0.026881 -0.7596567,-0.027891 -1.139538,-0.003 z"
     fill="url(#paint0_radial_2_129)"
     id="path8836"
     style="fill:url(#paint0_radial_2_129);stroke-width:0.264578"
     sodipodi:nodetypes="cccccccccccccccc" />
  <g
     transform="matrix(0.30912217,0,0,0.30912217,0.496317,-86.160366)"
     id="g6">
    <rect
       x="2.1170001"
       y="282.70999"
       width="8.9960003"
       height="8.9960003"
       rx="0.52899998"
       ry="0.52899998"
       fill="none"
       opacity="0.15"
       stroke="#000000"
       stroke-width="0.265"
       paint-order="stroke markers fill"
       id="rect4" />
    <rect
       x="2.1170001"
       y="282.70999"
       width="8.9960003"
       height="8.9960003"
       rx="0.52899998"
       ry="0.52899998"
       fill="#ffffff"
       paint-order="stroke markers fill"
       id="rect5" />
    <path
       d="m 6.615,290.39 c 1.537,0 2.615,-1.228 2.615,-3.192 0,-1.963 -1.078,-3.158 -2.615,-3.158 -1.538,0 -2.615,1.195 -2.615,3.158 0,1.964 1.077,3.192 2.615,3.192 z m 0,-0.677 c -1.103,0 -1.822,-0.986 -1.822,-2.515 0,-1.537 0.719,-2.481 1.822,-2.481 1.094,0 1.821,0.944 1.821,2.481 0,1.53 -0.727,2.515 -1.821,2.515 z"
       fill="#cccccc"
       stroke-width="0.265"
       aria-label="O"
       id="path5" />
    <rect
       x="6.3499999"
       y="286.42001"
       width="8.9960003"
       height="8.9960003"
       rx="0.52899998"
       ry="0.52899998"
       fill="#5596ff"
       paint-order="stroke markers fill"
       id="rect6" />
    <path
       d="m 8.709,293.98 h 1.955 c 1.37,0 2.322,-0.593 2.322,-1.796 0,-0.836 -0.518,-1.32 -1.253,-1.462 v -0.042 c 0.577,-0.184 0.902,-0.719 0.902,-1.329 0,-1.077 -0.86,-1.495 -2.105,-1.495 H 8.709 Z m 0.777,-3.518 v -1.996 h 0.944 c 0.952,0 1.445,0.267 1.445,0.986 0,0.618 -0.426,1.01 -1.479,1.01 z m 0,2.9 v -2.306 h 1.069 c 1.07,0 1.67,0.342 1.67,1.103 0,0.827 -0.617,1.203 -1.67,1.203 z"
       fill="#ffffff"
       stroke-width="0.265"
       aria-label="B"
       id="path6" />
  </g>
</svg>
