<?xml version="1.0" encoding="UTF-8" standalone="no"?>
<svg
   width="24"
   height="24"
   viewBox="0 0 24 24"
   fill="none"
   version="1.1"
   id="svg154"
   sodipodi:docname="org.olivevideoeditor.Olive.svg"
   inkscape:version="1.2.2 (b0a8486541, 2022-12-01)"
   xmlns:inkscape="http://www.inkscape.org/namespaces/inkscape"
   xmlns:sodipodi="http://sodipodi.sourceforge.net/DTD/sodipodi-0.dtd"
   xmlns:xlink="http://www.w3.org/1999/xlink"
   xmlns="http://www.w3.org/2000/svg"
   xmlns:svg="http://www.w3.org/2000/svg"
   xmlns:sketch="http://www.bohemiancoding.com/sketch/ns">
  <sodipodi:namedview
     id="namedview156"
     pagecolor="#ffffff"
     bordercolor="#000000"
     borderopacity="1"
     inkscape:showpageshadow="0"
     inkscape:pageopacity="1"
     inkscape:pagecheckerboard="false"
     inkscape:deskcolor="#ffffff"
     showgrid="true"
     inkscape:zoom="16"
     inkscape:cx="-0.9375"
     inkscape:cy="16.78125"
     inkscape:window-width="1920"
     inkscape:window-height="1052"
     inkscape:window-x="0"
     inkscape:window-y="0"
     inkscape:window-maximized="1"
     inkscape:current-layer="svg154"
     showguides="true"
     guidecolor="#ff0000"
     guideopacity="1"
     inkscape:lockguides="true"
     showborder="true"
     borderlayer="true">
    <inkscape:grid
       type="xygrid"
       id="grid356"
       color="#000000"
       opacity="0.10196078"
       empcolor="#000000"
       empopacity="0.10196078"
       snapvisiblegridlinesonly="true"
       enabled="true"
       visible="true"
       dotted="false" />
    <sodipodi:guide
       position="4,12"
       orientation="-1,0"
       id="guide764"
       inkscape:locked="true"
       inkscape:label="left-circle"
       inkscape:color="rgb(255,0,0)" />
    <sodipodi:guide
       position="5,12"
       orientation="-1,0"
       id="guide2218"
       inkscape:locked="true"
       inkscape:label="left-square"
       inkscape:color="rgb(255,0,0)" />
    <sodipodi:guide
       position="12,20"
       orientation="0,1"
       id="guide2220"
       inkscape:locked="true"
       inkscape:label="top-circle"
       inkscape:color="rgb(255,0,0)" />
    <sodipodi:guide
       position="12,5"
       orientation="0,1"
       id="guide2222"
       inkscape:locked="true"
       inkscape:label="bottom-square"
       inkscape:color="rgb(255,0,0)" />
    <sodipodi:guide
       position="12,4"
       orientation="0,1"
       id="guide2224"
       inkscape:locked="true"
       inkscape:label="bottom-circle"
       inkscape:color="rgb(255,0,0)" />
    <sodipodi:guide
       position="19,12"
       orientation="-1,0"
       id="guide2226"
       inkscape:locked="true"
       inkscape:label="right-square"
       inkscape:color="rgb(255,0,0)" />
    <sodipodi:guide
       position="20,12"
       orientation="-1,0"
       id="guide2228"
       inkscape:locked="true"
       inkscape:label="right-circle"
       inkscape:color="rgb(255,0,0)" />
    <sodipodi:guide
       position="12,19"
       orientation="0,1"
       id="guide2230"
       inkscape:locked="true"
       inkscape:label="top-square"
       inkscape:color="rgb(255,0,0)" />
    <sodipodi:guide
       position="12,12"
       orientation="1,0"
       id="guide765"
       inkscape:locked="true" />
    <sodipodi:guide
       position="12,12"
       orientation="0,-1"
       id="guide767"
       inkscape:locked="true" />
    <sodipodi:guide
       position="12,12"
       orientation="0.70710678,0.70710678"
       id="guide2266"
       inkscape:locked="true"
       inkscape:label=""
       inkscape:color="rgb(255,0,0)" />
    <sodipodi:guide
       position="12,12"
       orientation="-0.70710678,0.70710678"
       id="guide2994"
       inkscape:locked="true"
       inkscape:label=""
       inkscape:color="rgb(255,0,0)" />
    <sodipodi:guide
       position="3,12"
       orientation="-1,0"
       id="guide131543"
       inkscape:locked="true"
       inkscape:label="left-horizontal"
       inkscape:color="rgb(255,0,0)" />
    <sodipodi:guide
       position="12,21"
       orientation="0,1"
       id="guide131545"
       inkscape:locked="true"
       inkscape:label="top-vertical"
       inkscape:color="rgb(255,0,0)" />
    <sodipodi:guide
       position="21,12"
       orientation="-1,0"
       id="guide131547"
       inkscape:locked="true"
       inkscape:label="right-horizontal"
       inkscape:color="rgb(255,0,0)" />
    <sodipodi:guide
       position="12,3"
       orientation="0,1"
       id="guide131549"
       inkscape:locked="true"
       inkscape:label="bottom-vertical"
       inkscape:color="rgb(255,0,0)" />
  </sodipodi:namedview>
  <defs
     id="defs152">
    <radialGradient
       id="radialGradient66380"
       cx="0"
       cy="0"
       r="1"
       gradientUnits="userSpaceOnUse"
       gradientTransform="translate(12 1) rotate(90) scale(22)">
      <stop
         stop-color="#8FC8FF"
         id="stop66376"
         offset="0"
         style="stop-color:#68a8f5;stop-opacity:1;" />
      <stop
         offset="1"
         stop-color="#0056A8"
         id="stop66378"
         style="stop-color:#cccccc;stop-opacity:1;" />
    </radialGradient>
    <radialGradient
       id="paint0_radial_29_23"
       cx="0"
       cy="0"
       r="1"
       gradientUnits="userSpaceOnUse"
       gradientTransform="translate(12 1) rotate(90) scale(22)">
      <stop
         stop-color="#8FC8FF"
         id="stop147"
         offset="0"
         style="stop-color:#f6f6f6;stop-opacity:1;" />
      <stop
         offset="1"
         stop-color="#0056A8"
         id="stop149"
         style="stop-color:#cfcfcf;stop-opacity:1;" />
    </radialGradient>
    <radialGradient
       id="paint0_radial_10_2"
       cx="0"
       cy="0"
       r="1"
       gradientUnits="userSpaceOnUse"
       gradientTransform="matrix(-10.999959,21.999967,-21.999967,-10.999959,17.5,1)"
       xlink:href="#paint0_radial_29_23">
      <stop
         stop-color="#777777"
         id="stop2847" />
      <stop
         offset="1"
         stop-color="#222222"
         id="stop2849" />
    </radialGradient>
    <radialGradient
       fx="0"
       fy="0"
       cx="0"
       cy="0"
       r="1"
       gradientUnits="userSpaceOnUse"
       gradientTransform="matrix(0,16.5,-16.5,0,8.999996,0.750012)"
       spreadMethod="pad"
       id="radialGradient3666-6">
      <stop
         style="stop-color:#ffffff;stop-opacity:1;"
         offset="0"
         id="stop3662-7" />
      <stop
         style="stop-color:#6a7cf1;stop-opacity:1;"
         offset="1"
         id="stop3664-5" />
    </radialGradient>
  </defs>
  <path
     d="M 50,5 C 9.0909092,5 5,25.454546 5,50 5,82.727274 17.272728,95 50,95 82.727274,95 95,82.727274 95,50 95,25.454546 90.909093,5 50,5 Z"
     sketch:type="MSShapeGroup"
     id="path6"
     style="font-variation-settings:normal;display:inline;opacity:1;vector-effect:none;fill:#4bae4f;fill-opacity:1;stroke-width:4.56656;stroke-linecap:butt;stroke-linejoin:miter;stroke-miterlimit:4;stroke-dasharray:none;stroke-dashoffset:0;stroke-opacity:1;-inkscape-stroke:none;stop-color:#000000;stop-opacity:1"
     sodipodi:nodetypes="sssss"
     inkscape:label="Shape"
     transform="matrix(0.24444444,0,0,0.24444444,-0.22222222,-0.22222222)" />
  <g
     id="g64260"
     transform="matrix(0.28571429,0,0,0.28571429,2.8571428,2.8571428)">
    <g
       id="g63767">
      <path
         d="M 9.1286751,8.5798756 10.792692,9.830044 c -5.2780095,2.429925 8.272667,13.537743 8.272667,13.537743 0,0 2.638286,-2.373883 6.502312,-2.623916 3.832413,-3.927254 19.784275,-0.938345 19.186493,2.28479 -5.362791,0.08335 -7.061296,-0.600655 -7.061296,-0.600655 0,0 0.26584,0.304638 0.373614,1.352193 -0.390858,0.32332 -5.934708,-0.919664 -7.094347,-0.830571 -3.299295,0.25147 -5.52517,0.334815 -7.891868,0.596344 1.628093,0.537429 14.601105,2.848085 18.748216,6.857246 -1.106471,0.426781 -1.589295,0.251471 -1.960035,0.387983 -0.324756,0.119269 -0.652386,0.780278 -1.365126,0.784589 -0.511563,0.0014 -0.337689,-0.452648 -1.392429,-0.951278 -6.564103,0.260093 -8.692263,-3.744757 -9.340339,-4.234766 -2.896942,-0.692622 -7.778346,-2.256051 -7.778346,-2.256051 0,0 4.13274,3.297858 6.39885,5.130002 0.188244,0.150882 3.294984,0.728546 7.245229,2.65553 2.122412,-1.73874 7.845885,1.21137 6.782523,3.911446 -0.946967,2.405497 -7.302708,-0.07185 -7.069918,-3.345278 -1.449908,-0.452647 -4.129867,-1.747362 -5.845615,-2.366698 1.6439,1.283219 8.10454,6.664691 9.402129,8.186447 5.684673,-0.698369 14.269163,0.721362 19.594593,4.132741 -1.214244,0.320446 -6.992321,1.418295 -8.150523,1.109345 -2.149715,-0.813328 -5.355606,-3.448741 -5.69617,-3.74332 -1.235798,-0.208362 -4.00916,-0.606404 -5.072522,-0.72711 1.079168,1.094975 4.647178,5.21622 5.766581,6.950649 0.464143,-0.09771 2.830842,0.471328 3.486102,0.91679 2.428488,-2.478782 6.368674,1.870942 8.789977,3.9718 -0.635143,1.290403 -10.626431,-0.696933 -9.291481,-3.591001 -0.714177,-0.09484 -2.14253,-0.879429 -2.6699,-0.921101 0.538866,0.704117 1.712874,1.66258 3.261934,3.286362 1.488706,-0.423908 7.101531,5.651623 7.252413,6.980825 -4.200278,-1.023126 -6.27527,-1.914051 -6.92622,-2.672773 -1.283219,-1.500203 -0.797521,-3.652791 -0.675378,-4.043649 -1.651085,-1.47721 -1.958598,-1.915488 -2.4989,-2.208631 -0.01437,0.01437 0.0014,0.455522 0.0273,0.668194 2.71301,2.000269 1.402488,7.536935 -0.158067,7.7338 -0.678252,0.08622 -2.243118,-7.811397 -0.288832,-8.10454 0.04311,-0.158067 0.07041,-0.623647 0.07185,-0.642328 -1.030311,-1.122277 -6.749473,-7.203556 -7.121649,-7.459338 0.18537,0.47995 0.488571,1.268849 0.767345,2.241682 3.376891,2.20863 3.937312,5.739278 3.68153,9.887826 -0.809017,-1.416858 -8.743994,-7.876061 -5.273699,-10.739953 0.02443,-0.441151 -0.106336,-1.44416 0.18537,-2.007454 -1.100723,-1.099286 -4.526472,-4.481926 -4.833985,-4.479052 0.382236,0.784589 0.619337,1.232925 0.809017,2.08074 2.612421,1.303337 1.853698,4.67017 0.663883,4.742018 -1.253043,0.07472 -4.030716,-3.789303 -1.418295,-4.608379 -0.211235,-0.972832 -0.594907,-2.294849 -0.750101,-2.86964 a 512.77741,512.77741 0 0 1 -5.737842,-4.555211 c 1.063362,1.76748 2.100858,4.519287 2.619606,6.097086 3.129732,3.546455 2.263236,9.029952 1.947101,14.687323 -3.671471,-2.725942 -5.951951,-12.027482 -3.615429,-14.345323 -0.780278,-2.690018 -1.958597,-7.240918 -1.958597,-7.240918 -5.048094,-3.918631 -7.841574,-6.854372 -7.841574,-6.854372 0,0 3.362522,4.36122 3.746194,6.699179 2.9458,0.570479 5.407338,5.701917 3.065068,6.578472 -3.422874,1.278908 -7.098657,-4.152858 -4.177286,-6.174682 0,0 -2.586556,-4.763573 -4.588262,-8.942297 C 6.0003801,11.472507 6.759103,8.8701446 9.1272381,8.5798756 Z"
         fill="#ffffff"
         id="path63765"
         style="stroke-width:1.43698" />
    </g>
  </g>
</svg>
