<?xml version="1.0" encoding="UTF-8" standalone="no"?>
<svg
   width="24"
   height="24"
   version="1.1"
   id="svg4"
   sodipodi:docname="org.midori_browser.Midori.svg"
   inkscape:version="1.3 (0e150ed6c4, 2023-07-21)"
   xmlns:inkscape="http://www.inkscape.org/namespaces/inkscape"
   xmlns:sodipodi="http://sodipodi.sourceforge.net/DTD/sodipodi-0.dtd"
   xmlns="http://www.w3.org/2000/svg"
   xmlns:svg="http://www.w3.org/2000/svg">
  <defs
     id="defs4" />
  <sodipodi:namedview
     id="namedview4"
     pagecolor="#ffffff"
     bordercolor="#000000"
     borderopacity="0.25"
     inkscape:showpageshadow="2"
     inkscape:pageopacity="0.0"
     inkscape:pagecheckerboard="0"
     inkscape:deskcolor="#d1d1d1"
     inkscape:zoom="4.4801844"
     inkscape:cx="3.7944867"
     inkscape:cy="34.261983"
     inkscape:window-width="2560"
     inkscape:window-height="998"
     inkscape:window-x="0"
     inkscape:window-y="0"
     inkscape:window-maximized="1"
     inkscape:current-layer="svg4" />
  <rect
     width="64"
     height="64"
     rx="0"
     ry="0"
     fill="none"
     style="paint-order:stroke fill markers"
     id="rect1"
     x="0"
     y="0" />
  <path
     d="m 9.592881,1.1146316 c 0.12,0 0.2346671,-0.015999 0.3440012,-0.046667 1.4373318,-0.0946668 2.8746648,-0.0893334 4.3079988,0.010667 1.301333,0.104 2.561333,0.3853333 3.781333,0.848 2.025333,0.8333333 3.410667,2.2813334 4.161333,4.3386667 0.421334,1.2399999 0.676,2.5159998 0.754667,3.8226667 0.104,1.646667 0.068,3.286666 -0.114667,4.928 -0.139999,1.150666 -0.437333,2.254666 -0.895999,3.317333 -0.849334,1.844 -2.229334,3.114667 -4.134667,3.812 -1.542667,0.521333 -3.130667,0.797333 -4.766667,0.824 -1.833333,0.09867 -3.6506666,-0.04267 -5.4519996,-0.412 -3.3080002,-0.734667 -5.3546667,-2.754666 -6.1253334,-6.057333 -0.328,-1.484 -0.47999998,-2.989333 -0.448,-4.510667 -0.036,-1.614667 0.1346667,-3.2133332 0.516,-4.7866666 C 2.332881,4.1199648 4.2915478,2.2079649 7.3955475,1.4692982 8.1195478,1.2919649 8.8542143,1.1719649 9.592881,1.1146316 Z"
     style="fill:#f2f2f2;fill-opacity:1;fill-rule:evenodd;stroke:none;stroke-width:1.33333"
     id="path4714" />
  <g
     id="g8"
     transform="matrix(0.35358985,0,0,0.34905352,0.6863817,0.82771469)"
     style="stroke-width:1.1385814;stroke-dasharray:none">
    <path
       d="m 45.43,14.749 c -4.293,2.396 -21.094,-0.077 -28.237,17.863 -1.004,4.737 -0.485,11.267 4.095,11.558 0.947,0.06 1.802,0.702 2.25,1.43 2.924,4.764 7.141,4.35 8.886,2.075 0.334,-0.436 0.97,-0.312 1.423,0.036 5.275,4.054 8.811,-2.362 10.613,-7.394 0.717,-2.2 4.318,-19.447 2.897,-21.291 -0.423,-0.55 -2.276,1.039 -3.89,2.734 C 30.562,35.306 22,25.193 44.951,15.09 l 0.35,-0.42 0.238,0.098"
       fill="#73d216"
       id="path5"
       style="stroke-width:1.1385814;stroke-dasharray:none" />
    <path
       d="m 46.652,14.486 c -4.387,0.814 -24.893,3.122 -29.455,18.36 -1.332,5.157 -0.582,12.172 5.353,11.913 0.42,-0.018 0.464,0.12 0.613,0.474 2.444,5.782 8.458,4.73 9.81,2.464 0.193,-0.323 -0.292,-0.2 0,0 6.124,4.193 9.462,-1.61 11.391,-6.782 2.356,-4.487 3.797,-23.169 2.536,-21.96 -21.482,20.585 -21.441,2.454 -0.248,-4.47"
       fill="none"
       stroke="#45a300"
       stroke-linejoin="round"
       stroke-width="2.22593"
       id="path6"
       style="stroke-width:1.1385814;stroke-dasharray:none" />
    <g
       fill="none"
       stroke="#45a300"
       stroke-linecap="round"
       stroke-linejoin="bevel"
       stroke-width="2.35686"
       id="g7"
       style="stroke-width:1.1385814;stroke-dasharray:none">
      <path
         d="m 23.16,44.86 c -1.541,-7.027 0.27,-8.263 0.973,-10.152 m 8.775,12.834 c -2.004,-4.241 -1.67,-7.741 -0.247,-10.35"
         stroke-width="2.22601"
         id="path7"
         style="stroke-width:1.1385814;stroke-dasharray:none" />
    </g>
  </g>
</svg>
