<?xml version="1.0" encoding="UTF-8" standalone="no"?>
<svg
   width="24"
   height="24"
   version="1.1"
   id="svg3"
   sodipodi:docname="org.gabmus.giara.svg"
   inkscape:version="1.3 (0e150ed6c4, 2023-07-21)"
   xmlns:inkscape="http://www.inkscape.org/namespaces/inkscape"
   xmlns:sodipodi="http://sodipodi.sourceforge.net/DTD/sodipodi-0.dtd"
   xmlns="http://www.w3.org/2000/svg"
   xmlns:svg="http://www.w3.org/2000/svg">
  <sodipodi:namedview
     id="namedview3"
     pagecolor="#ffffff"
     bordercolor="#000000"
     borderopacity="0.25"
     inkscape:showpageshadow="2"
     inkscape:pageopacity="0.0"
     inkscape:pagecheckerboard="0"
     inkscape:deskcolor="#d1d1d1"
     inkscape:zoom="4.4801844"
     inkscape:cx="10.379037"
     inkscape:cy="-6.1381402"
     inkscape:window-width="2560"
     inkscape:window-height="998"
     inkscape:window-x="0"
     inkscape:window-y="0"
     inkscape:window-maximized="1"
     inkscape:current-layer="svg3" />
  <defs
     id="defs2">
    <linearGradient
       id="a"
       x1="399.57001"
       x2="399.57001"
       y1="545.79999"
       y2="517.79999"
       gradientTransform="matrix(2.1429,0,0,2.1429,-826.36,-1107.5)"
       gradientUnits="userSpaceOnUse">
      <stop
         stop-color="#3889e9"
         offset="0"
         id="stop1" />
      <stop
         stop-color="#5ea5fb"
         offset="1"
         id="stop2" />
    </linearGradient>
    <linearGradient
       x1="12"
       y1="66.125"
       x2="12.4375"
       y2="-2.1875"
       gradientUnits="userSpaceOnUse"
       gradientTransform="matrix(0.24444399,0,0,0.24444399,-0.222223,-0.22222266)"
       spreadMethod="pad"
       id="linearGradient2-1">
      <stop
         style="stop-color:#ef8650;stop-opacity:1;"
         offset="0"
         id="stop1-6" />
      <stop
         style="stop-opacity:1;stop-color:#fab680"
         offset="1"
         id="stop2-2" />
    </linearGradient>
    <linearGradient
       x1="7.9000001"
       y1="19.867001"
       x2="56.169998"
       y2="19.867001"
       gradientUnits="userSpaceOnUse"
       gradientTransform="matrix(0.239754,0,0,0.239754,1.31939,1.831497)"
       spreadMethod="pad"
       id="linearGradient6">
      <stop
         style="stop-opacity:0.45400168;stop-color:#ffffff"
         offset="0"
         id="stop5" />
      <stop
         style="stop-opacity:0.27598993;stop-color:#ffffff"
         offset="1"
         id="stop6" />
    </linearGradient>
  </defs>
  <path
     id="path2"
     d="M 12,0.99999997 C 2,0.99999997 1,5.9999998 1,12 1,20 4,22.999999 12,22.999999 20,22.999999 22.999999,20 22.999999,12 c 0,-6.0000002 -1,-11.00000003 -10.999999,-11.00000003 z"
     style="fill:url(#linearGradient2-1);stroke:none;stroke-width:1.33333" />
  <path
     d="m 11.109552,5.5 c -0.218475,0 -0.394842,0.1676289 -0.394842,0.3753785 v 1.5031007 c 0,0.8532412 -0.744798,2.0449174 -1.464174,3.1730378 -0.760687,1.19128 -2.280074,2.42387 -2.428239,3.569072 a 2.9303328,2.9303328 0 0 0 -0.02185,0.410333 c 4.743667,0.157699 8.945518,-2.49974 8.990803,-2.528737 l 0.361077,-0.232377 C 15.91439,11.362255 15.322127,10.918157 14.927285,10.473264 13.973943,9.3979738 13.329247,8.2166256 13.329247,7.3784792 V 5.8753785 C 13.329247,5.667232 13.151686,5.5 12.93361,5.5 Z m 5.484493,6.920463 -0.287591,0.182724 c -2.379382,1.515812 -6.022734,2.71742 -9.412656,2.65148 0.480245,1.743026 2.392091,2.919608 2.489809,2.977205 0.06355,0.03774 0.513216,0.268128 2.572035,0.268128 2.058423,0 2.577994,-0.230391 2.641153,-0.268128 0.118771,-0.06951 2.890213,-1.757325 2.578788,-4.136308 -0.0715,-0.543008 -0.291167,-1.10548 -0.581538,-1.675101 z"
     fill="#ffffff"
     id="path5"
     style="stroke-width:1" />
</svg>
