<?xml version="1.0" encoding="UTF-8" standalone="no"?>
<svg
   width="24"
   height="24"
   version="1.1"
   id="svg3"
   sodipodi:docname="org.freedesktop.Piper.svg"
   inkscape:version="1.3 (0e150ed6c4, 2023-07-21)"
   xml:space="preserve"
   inkscape:export-filename="../../../../../../../../../Imagens/Big Icons/org.freedesktop.Piper.pdf"
   inkscape:export-xdpi="96"
   inkscape:export-ydpi="96"
   xmlns:inkscape="http://www.inkscape.org/namespaces/inkscape"
   xmlns:sodipodi="http://sodipodi.sourceforge.net/DTD/sodipodi-0.dtd"
   xmlns:xlink="http://www.w3.org/1999/xlink"
   xmlns="http://www.w3.org/2000/svg"
   xmlns:svg="http://www.w3.org/2000/svg"><defs
     id="defs3"><clipPath
       id="G"><rect
         height="152"
         width="192"
         id="rect32"
         x="0"
         y="0" /></clipPath><mask
       id="F"><g
         filter="url(#c)"
         id="g31"><rect
           fill-opacity="0.4"
           height="128"
           width="128"
           id="rect31"
           x="0"
           y="0" /></g></mask><filter
       id="c"
       height="1"
       width="1"
       x="0"
       y="0"><feColorMatrix
         in="SourceGraphic"
         type="matrix"
         values="0 0 0 0 1 0 0 0 0 1 0 0 0 0 1 0 0 0 1 0"
         id="feColorMatrix10" /></filter><clipPath
       id="E"><rect
         height="152"
         width="192"
         id="rect30"
         x="0"
         y="0" /></clipPath><mask
       id="D"><g
         filter="url(#c)"
         id="g29"><rect
           fill-opacity="0.4"
           height="128"
           width="128"
           id="rect29"
           x="0"
           y="0" /></g></mask><filter
       id="filter1"
       height="1"
       width="1"
       x="0"
       y="0"><feColorMatrix
         in="SourceGraphic"
         type="matrix"
         values="0 0 0 0 1 0 0 0 0 1 0 0 0 0 1 0 0 0 1 0"
         id="feColorMatrix1" /></filter><linearGradient
       id="C"
       x1="74"
       x2="78"
       xlink:href="#v"
       y1="226"
       y2="226"
       gradientTransform="translate(-210.79901,-198.68311)" /><linearGradient
       id="v"
       gradientUnits="userSpaceOnUse"><stop
         offset="0"
         stop-color="#c0bfbc"
         id="stop27" /><stop
         offset="0.636926"
         stop-color="#f6f5f4"
         id="stop28" /><stop
         offset="1"
         stop-color="#c0bfbc"
         id="stop29" /></linearGradient><linearGradient
       id="B"
       x1="80"
       x2="84"
       xlink:href="#v"
       y1="226"
       y2="226"
       gradientTransform="translate(-210.79901,-198.68311)" /><linearGradient
       id="A"
       x1="68"
       x2="72"
       xlink:href="#v"
       y1="226"
       y2="226"
       gradientTransform="translate(-210.79901,-198.68311)" /><linearGradient
       id="z"
       x1="62"
       x2="66"
       xlink:href="#v"
       y1="226"
       y2="226"
       gradientTransform="translate(-210.79901,-198.68311)" /><linearGradient
       id="y"
       x1="56"
       x2="60"
       xlink:href="#v"
       y1="226"
       y2="226"
       gradientTransform="translate(-210.79901,-198.68311)" /><linearGradient
       id="x"
       x1="50"
       x2="54"
       xlink:href="#v"
       y1="226"
       y2="226"
       gradientTransform="translate(-210.79901,-198.68311)" /><linearGradient
       id="w"
       x1="44"
       x2="48"
       xlink:href="#v"
       y1="226"
       y2="226"
       gradientTransform="translate(-210.79901,-198.68311)" /><clipPath
       id="u"><rect
         height="152"
         width="192"
         id="rect27"
         x="0"
         y="0" /></clipPath><mask
       id="t"><g
         filter="url(#c)"
         id="g26"><rect
           fill-opacity="0.35"
           height="128"
           width="128"
           id="rect26"
           x="0"
           y="0" /></g></mask><filter
       id="filter18"
       height="1"
       width="1"
       x="0"
       y="0"><feColorMatrix
         in="SourceGraphic"
         type="matrix"
         values="0 0 0 0 1 0 0 0 0 1 0 0 0 0 1 0 0 0 1 0"
         id="feColorMatrix18" /></filter><clipPath
       id="e"><rect
         height="152"
         width="192"
         id="rect11"
         x="0"
         y="0" /></clipPath><mask
       id="d"><g
         filter="url(#c)"
         id="g10"><rect
           fill-opacity="0.4"
           height="128"
           width="128"
           id="rect10"
           x="0"
           y="0" /></g></mask><filter
       id="filter19"
       height="1"
       width="1"
       x="0"
       y="0"><feColorMatrix
         in="SourceGraphic"
         type="matrix"
         values="0 0 0 0 1 0 0 0 0 1 0 0 0 0 1 0 0 0 1 0"
         id="feColorMatrix19" /></filter><clipPath
       id="g"><rect
         height="152"
         width="192"
         id="rect13"
         x="0"
         y="0" /></clipPath><mask
       id="f"><g
         filter="url(#c)"
         id="g12"><rect
           fill-opacity="0.4"
           height="128"
           width="128"
           id="rect12"
           x="0"
           y="0" /></g></mask><filter
       id="filter20"
       height="1"
       width="1"
       x="0"
       y="0"><feColorMatrix
         in="SourceGraphic"
         type="matrix"
         values="0 0 0 0 1 0 0 0 0 1 0 0 0 0 1 0 0 0 1 0"
         id="feColorMatrix20" /></filter><clipPath
       id="i"><rect
         height="152"
         width="192"
         id="rect15"
         x="0"
         y="0" /></clipPath><mask
       id="h"><g
         filter="url(#c)"
         id="g14"><rect
           fill-opacity="0.4"
           height="128"
           width="128"
           id="rect14"
           x="0"
           y="0" /></g></mask><filter
       id="filter21"
       height="1"
       width="1"
       x="0"
       y="0"><feColorMatrix
         in="SourceGraphic"
         type="matrix"
         values="0 0 0 0 1 0 0 0 0 1 0 0 0 0 1 0 0 0 1 0"
         id="feColorMatrix21" /></filter><clipPath
       id="k"><rect
         height="152"
         width="192"
         id="rect17"
         x="0"
         y="0" /></clipPath><mask
       id="j"><g
         filter="url(#c)"
         id="g16"><rect
           fill-opacity="0.4"
           height="128"
           width="128"
           id="rect16"
           x="0"
           y="0" /></g></mask><filter
       id="filter22"
       height="1"
       width="1"
       x="0"
       y="0"><feColorMatrix
         in="SourceGraphic"
         type="matrix"
         values="0 0 0 0 1 0 0 0 0 1 0 0 0 0 1 0 0 0 1 0"
         id="feColorMatrix22" /></filter><clipPath
       id="m"><rect
         height="152"
         width="192"
         id="rect19"
         x="0"
         y="0" /></clipPath><mask
       id="l"><g
         filter="url(#c)"
         id="g18"><rect
           fill-opacity="0.4"
           height="128"
           width="128"
           id="rect18"
           x="0"
           y="0" /></g></mask><filter
       id="filter23"
       height="1"
       width="1"
       x="0"
       y="0"><feColorMatrix
         in="SourceGraphic"
         type="matrix"
         values="0 0 0 0 1 0 0 0 0 1 0 0 0 0 1 0 0 0 1 0"
         id="feColorMatrix23" /></filter><clipPath
       id="o"><rect
         height="152"
         width="192"
         id="rect21"
         x="0"
         y="0" /></clipPath><mask
       id="n"><g
         filter="url(#c)"
         id="g20"><rect
           fill-opacity="0.4"
           height="128"
           width="128"
           id="rect20"
           x="0"
           y="0" /></g></mask><filter
       id="filter24"
       height="1"
       width="1"
       x="0"
       y="0"><feColorMatrix
         in="SourceGraphic"
         type="matrix"
         values="0 0 0 0 1 0 0 0 0 1 0 0 0 0 1 0 0 0 1 0"
         id="feColorMatrix24" /></filter><clipPath
       id="q"><rect
         height="152"
         width="192"
         id="rect23"
         x="0"
         y="0" /></clipPath><mask
       id="p"><g
         filter="url(#c)"
         id="g22"><rect
           fill-opacity="0.4"
           height="128"
           width="128"
           id="rect22"
           x="0"
           y="0" /></g></mask><filter
       id="filter25"
       height="1"
       width="1"
       x="0"
       y="0"><feColorMatrix
         in="SourceGraphic"
         type="matrix"
         values="0 0 0 0 1 0 0 0 0 1 0 0 0 0 1 0 0 0 1 0"
         id="feColorMatrix25" /></filter><clipPath
       id="s"><rect
         height="152"
         width="192"
         id="rect25"
         x="0"
         y="0" /></clipPath><mask
       id="r"><g
         filter="url(#c)"
         id="g24"><rect
           fill-opacity="0.35"
           height="128"
           width="128"
           id="rect24"
           x="0"
           y="0" /></g></mask><filter
       id="filter26"
       height="1"
       width="1"
       x="0"
       y="0"><feColorMatrix
         in="SourceGraphic"
         type="matrix"
         values="0 0 0 0 1 0 0 0 0 1 0 0 0 0 1 0 0 0 1 0"
         id="feColorMatrix26" /></filter><linearGradient
       id="b"
       gradientTransform="matrix(0.888889,0,0,1,-203.6879,-202.68311)"
       gradientUnits="userSpaceOnUse"
       x1="46"
       x2="82"
       y1="260"
       y2="260"><stop
         offset="0"
         stop-color="#e5a50a"
         id="stop26" /><stop
         offset="0.125"
         stop-color="#f5c211"
         id="stop30" /><stop
         offset="0.875"
         stop-color="#f5c211"
         id="stop31" /><stop
         offset="1"
         stop-color="#e5a50a"
         id="stop32" /></linearGradient><linearGradient
       id="a"
       gradientTransform="matrix(0.818182,0,0,1,-199.16265,-202.68311)"
       gradientUnits="userSpaceOnUse"
       x1="20"
       x2="108"
       y1="238"
       y2="238"><stop
         offset="0"
         stop-color="#63452c"
         id="stop33" /><stop
         offset="0.0555556"
         stop-color="#b5835a"
         id="stop34" /><stop
         offset="0.111111"
         stop-color="#865e3c"
         id="stop35" /><stop
         offset="0.888889"
         stop-color="#865e3c"
         id="stop36" /><stop
         offset="0.944444"
         stop-color="#b5835a"
         id="stop37" /><stop
         offset="1"
         stop-color="#63452c"
         id="stop38" /></linearGradient><linearGradient
       x1="189.88344"
       y1="407.11221"
       x2="177.27101"
       y2="-526.20648"
       gradientUnits="userSpaceOnUse"
       gradientTransform="matrix(0.05793493,0,0,0.05793493,35.000009,0.99997064)"
       spreadMethod="pad"
       id="linearGradient2"><stop
         style="stop-opacity:1;stop-color:#ffe287"
         offset="0"
         id="stop1" /><stop
         style="stop-opacity:1;stop-color:#ffffff"
         offset="1"
         id="stop2" /></linearGradient><linearGradient
       x1="46"
       y1="260"
       x2="82"
       y2="260"
       gradientUnits="userSpaceOnUse"
       gradientTransform="matrix(0.09929906,0,0,0.11171146,39.64486,-12.240736)"
       spreadMethod="pad"
       id="linearGradient6"><stop
         style="stop-opacity:1;stop-color:#e5a50a"
         offset="0"
         id="stop3" /><stop
         style="stop-opacity:1;stop-color:#f5c211"
         offset="0.125"
         id="stop4" /><stop
         style="stop-opacity:1;stop-color:#f5c211"
         offset="0.875"
         id="stop5" /><stop
         style="stop-opacity:1;stop-color:#e5a50a"
         offset="1"
         id="stop6" /></linearGradient></defs><sodipodi:namedview
     id="namedview3"
     pagecolor="#ffffff"
     bordercolor="#000000"
     borderopacity="0.25"
     inkscape:showpageshadow="2"
     inkscape:pageopacity="0.0"
     inkscape:pagecheckerboard="0"
     inkscape:deskcolor="#d1d1d1"
     inkscape:zoom="8.9603688"
     inkscape:cx="-15.791761"
     inkscape:cy="-5.3011211"
     inkscape:window-width="2560"
     inkscape:window-height="998"
     inkscape:window-x="0"
     inkscape:window-y="0"
     inkscape:window-maximized="1"
     inkscape:current-layer="svg3"><inkscape:page
       x="0"
       y="0"
       width="24"
       height="24"
       id="page2"
       margin="0"
       bleed="0" /></sodipodi:namedview><g
     id="g1"
     inkscape:groupmode="layer"
     inkscape:label="1"
     transform="translate(34)" /><g
     id="g3"
     transform="translate(-34.000452,-3.5455915e-5)"><path
       id="path2"
       d="m 43.593333,1.1146666 c 0.12,0 0.234667,-0.016 0.344,-0.046667 1.437333,-0.0946667 2.874667,-0.0893334 4.308,0.010667 1.301333,0.104 2.561333,0.3853334 3.781333,0.848 2.025333,0.8333333 3.410667,2.2813333 4.161333,4.3386666 0.421334,1.2399999 0.676,2.5159999 0.754667,3.8226668 0.104,1.646666 0.068,3.286666 -0.114667,4.928 -0.14,1.150666 -0.437333,2.254666 -0.896,3.317333 -0.849333,1.844 -2.229333,3.114666 -4.134666,3.812 -1.542667,0.521333 -3.130667,0.797333 -4.766667,0.824 -1.833333,0.09867 -3.650666,-0.04267 -5.452,-0.412 C 38.270667,21.822666 36.224,19.802666 35.453333,16.5 c -0.328,-1.484 -0.48,-2.989334 -0.448,-4.510667 -0.036,-1.62 0.134667,-3.2133332 0.516,-4.7866665 C 36.333333,4.1199999 38.292,2.2079999 41.396,1.4693333 42.12,1.292 42.854666,1.172 43.593333,1.1146666 Z"
       style="fill:url(#linearGradient2);fill-rule:evenodd;stroke:none;stroke-width:1.33333" /><path
       id="path3"
       d="m 42.073333,4.4999999 h 7.853333 C 50.521333,4.4999999 51,4.9786665 51,5.5733332 V 18.426666 C 51,19.021333 50.521333,19.5 49.926666,19.5 H 42.073333 C 41.478666,19.5 41,19.021333 41,18.426666 V 5.5733332 c 0,-0.5946667 0.478666,-1.0733333 1.073333,-1.0733333 z"
       style="fill:#b5835a;fill-opacity:1;fill-rule:nonzero;stroke:none;stroke-width:1.33333" /><path
       id="path6"
       d="m 44.661333,15.016 h 2.677333 c 0.249334,0 0.448,0.202666 0.448,0.448 v 2.681333 c 0,0.245333 -0.198666,0.448 -0.448,0.448 h -2.677333 c -0.249333,0 -0.448,-0.202667 -0.448,-0.448 V 15.464 c 0,-0.245334 0.198667,-0.448 0.448,-0.448 z"
       style="fill:url(#linearGradient6);stroke:none;stroke-width:1.33333" /><path
       id="path7-3"
       d="m 44.912,14.588 h 2.150666 c 0.349334,0 0.630667,0.286666 0.630667,0.636 v 2.145333 c 0,0.354667 -0.281333,0.636 -0.630667,0.636 H 44.912 c -0.349334,0 -0.630667,-0.281333 -0.630667,-0.636 V 15.224 c 0,-0.349334 0.281333,-0.636 0.630667,-0.636 z"
       style="fill:#d0b339;fill-opacity:1;fill-rule:nonzero;stroke:none;stroke-width:1.33333" /><path
       id="path8"
       d="m 44.926666,14.521333 c -0.396,0 -0.713333,0.317333 -0.713333,0.713333 V 17.38 c 0,0.396 0.317333,0.713333 0.713333,0.713333 h 2.146667 c 0.396,0 0.713333,-0.317333 0.713333,-0.713333 v -2.145334 c 0,-0.396 -0.317333,-0.713333 -0.713333,-0.713333 z M 46.713333,14.88 c 0.198667,0 0.36,0.156 0.36,0.354666 0,0.197334 -0.161333,0.358667 -0.36,0.358667 C 46.516,15.593333 46.36,15.432 46.36,15.234666 46.36,15.036 46.516,14.88 46.713333,14.88 Z M 45.64,15.593333 c 0.396,0 0.72,0.318667 0.72,0.713333 0,0.396 -0.324,0.714667 -0.72,0.714667 -0.389334,0 -0.713334,-0.318667 -0.713334,-0.714667 0,-0.394666 0.324,-0.713333 0.713334,-0.713333 z"
       style="fill:#f8e45c;fill-opacity:1;fill-rule:nonzero;stroke:none;stroke-width:1.33333" /><path
       id="path9"
       d="m 42.073333,5.5733332 v 7.1399998 h 7.853333 V 5.5733332 Z m 0.713333,0.7133333 h 6.426667 V 12 h -6.426667 z"
       style="fill:#ffffff;fill-opacity:1;fill-rule:nonzero;stroke:none;stroke-width:1.33333" /><path
       id="path10"
       d="m 45.64,5.5733332 h 0.718666 V 12 H 45.64 Z"
       style="fill:#cccccc;fill-opacity:1;fill-rule:nonzero;stroke:none;stroke-width:1.33333" /><path
       id="path11"
       d="m 43.494666,11.068 c 0.229334,0 0.412,0.186666 0.412,0.416 v 1.656 c 0,0.229333 -0.182666,0.417333 -0.412,0.417333 -0.229333,0 -0.416,-0.188 -0.416,-0.417333 v -1.656 c 0,-0.229334 0.186667,-0.416 0.416,-0.416 z"
       style="fill:#cccccc;fill-opacity:1;fill-rule:nonzero;stroke:none;stroke-width:1.33333" /><path
       id="path12"
       d="m 45.161333,11.068 c 0.229333,0 0.417333,0.186666 0.417333,0.416 v 1.656 c 0,0.229333 -0.188,0.417333 -0.417333,0.417333 -0.229333,0 -0.412,-0.188 -0.412,-0.417333 v -1.656 c 0,-0.229334 0.182667,-0.416 0.412,-0.416 z"
       style="fill:#cccccc;fill-opacity:1;fill-rule:nonzero;stroke:none;stroke-width:1.33333" /><path
       id="path13"
       d="m 46.833333,11.068 c 0.229333,0 0.412,0.186666 0.412,0.416 v 1.656 c 0,0.229333 -0.182667,0.417333 -0.412,0.417333 -0.229333,0 -0.417333,-0.188 -0.417333,-0.417333 v -1.656 c 0,-0.229334 0.188,-0.416 0.417333,-0.416 z"
       style="fill:#cccccc;fill-opacity:1;fill-rule:nonzero;stroke:none;stroke-width:1.33333" /><path
       id="path14"
       d="m 48.5,11.068 c 0.234666,0 0.417333,0.186666 0.417333,0.416 v 1.656 c 0,0.229333 -0.182667,0.417333 -0.417333,0.417333 -0.229334,0 -0.412,-0.188 -0.412,-0.417333 v -1.656 c 0,-0.229334 0.182666,-0.416 0.412,-0.416 z"
       style="fill:#cccccc;fill-opacity:1;fill-rule:nonzero;stroke:none;stroke-width:1.33333" /></g></svg>
