<?xml version="1.0" encoding="UTF-8" standalone="no"?>
<svg
   width="24"
   height="24"
   version="1"
   id="svg3"
   sodipodi:docname="otd.svg"
   inkscape:version="1.3 (0e150ed6c4, 2023-07-21)"
   xmlns:inkscape="http://www.inkscape.org/namespaces/inkscape"
   xmlns:sodipodi="http://sodipodi.sourceforge.net/DTD/sodipodi-0.dtd"
   xmlns="http://www.w3.org/2000/svg"
   xmlns:svg="http://www.w3.org/2000/svg">
  <defs
     id="defs3" />
  <sodipodi:namedview
     id="namedview3"
     pagecolor="#ffffff"
     bordercolor="#000000"
     borderopacity="0.25"
     inkscape:showpageshadow="2"
     inkscape:pageopacity="0.0"
     inkscape:pagecheckerboard="0"
     inkscape:deskcolor="#d1d1d1"
     inkscape:zoom="8.9603687"
     inkscape:cx="45.08743"
     inkscape:cy="26.728811"
     inkscape:window-width="2560"
     inkscape:window-height="998"
     inkscape:window-x="0"
     inkscape:window-y="0"
     inkscape:window-maximized="1"
     inkscape:current-layer="svg3" />
  <path
     d="m 9.592881,1.1146316 c 0.12,0 0.2346671,-0.015999 0.3440012,-0.046667 1.4373318,-0.0946668 2.8746648,-0.0893334 4.3079988,0.010667 1.301333,0.104 2.561333,0.3853333 3.781333,0.848 2.025333,0.8333333 3.410667,2.2813334 4.161333,4.3386667 0.421334,1.2399999 0.676,2.5159998 0.754667,3.8226667 0.104,1.646667 0.068,3.286666 -0.114667,4.928 -0.139999,1.150666 -0.437333,2.254666 -0.895999,3.317333 -0.849334,1.844 -2.229334,3.114667 -4.134667,3.812 -1.542667,0.521333 -3.130667,0.797333 -4.766667,0.824 -1.833333,0.09867 -3.6506666,-0.04267 -5.4519996,-0.412 -3.3080002,-0.734667 -5.3546667,-2.754666 -6.1253334,-6.057333 -0.328,-1.484 -0.47999998,-2.989333 -0.448,-4.510667 -0.036,-1.614667 0.1346667,-3.2133332 0.516,-4.7866666 C 2.332881,4.1199648 4.2915478,2.2079649 7.3955475,1.4692982 8.1195478,1.2919649 8.8542143,1.1719649 9.592881,1.1146316 Z"
     style="fill:#f2f2f2;fill-opacity:1;fill-rule:evenodd;stroke:none;stroke-width:1.33333"
     id="path4714" />
  <path
     id="path7"
     style="fill:#4c5263;fill-opacity:1;fill-rule:evenodd;stroke:none;stroke-width:1.33333"
     d="M 4.167969,2.9648438 C 2.885371,3.9685385 2.001829,5.3795513 1.521484,7.203125 1.140152,8.7764568 0.967906,10.375569 1.003906,11.990234 c -0.032,1.521333 0.121219,3.025767 0.449219,4.509766 0.458506,1.964911 1.371741,3.472978 2.730469,4.529297 V 2.9648438 Z" />
  <path
     d="m 10.384964,15.02775 c 0,0 1.455929,1.983929 4.3505,-0.111179 2.030286,-1.469285 4.237357,0.384608 4.237357,0.384608"
     fill="none"
     opacity="0.15"
     stroke="#000000"
     stroke-linecap="round"
     stroke-linejoin="round"
     id="path4"
     style="stroke-width:0.999998" />
  <circle
     cx="2.9070764"
     cy="16.285715"
     r="0.58928573"
     fill="#82b2ea"
     id="circle5"
     style="stroke-width:0.999998" />
  <path
     d="m 15.902643,8.0144643 c 0.255357,0.2031072 0.3135,0.5523572 0.130428,0.7829643 l -4.633357,5.8229284 c -0.183071,0.230214 -0.969178,0.586929 -1.122785,0.46475 -0.153608,-0.122178 0.01728,-0.968393 0.200357,-1.198607 l 4.633357,-5.8229285 c 0.183464,-0.2306072 0.536643,-0.2526072 0.792,-0.049107 z"
     fill="#5e6476"
     id="path6"
     style="stroke-width:0.999998" />
</svg>
