<?xml version="1.0" encoding="UTF-8" standalone="no"?>
<svg
   width="121.99982"
   height="122.00023"
   viewBox="0 0 121.99982 122.00023"
   fill="none"
   version="1.1"
   id="svg8571"
   sodipodi:docname="Template-B.svg"
   xml:space="preserve"
   xmlns:inkscape="http://www.inkscape.org/namespaces/inkscape"
   xmlns:sodipodi="http://sodipodi.sourceforge.net/DTD/sodipodi-0.dtd"
   xmlns:xlink="http://www.w3.org/1999/xlink"
   xmlns="http://www.w3.org/2000/svg"
   xmlns:svg="http://www.w3.org/2000/svg"><sodipodi:namedview
     id="namedview8573"
     pagecolor="#ffffff"
     bordercolor="#000000"
     borderopacity="0.25"
     inkscape:showpageshadow="2"
     inkscape:pageopacity="0.0"
     inkscape:pagecheckerboard="0"
     inkscape:deskcolor="#d1d1d1"
     showgrid="false" /><defs
     id="defs8569"><linearGradient
       id="linearGradient29319"
       inkscape:swatch="solid"><stop
         style="stop-color:#d2d8db;stop-opacity:1;"
         offset="0"
         id="stop29317" /></linearGradient><linearGradient
       inkscape:collect="always"
       id="linearGradient28577"><stop
         style="stop-color:#35383b;stop-opacity:1"
         offset="0"
         id="stop28573" /><stop
         style="stop-color:#999999;stop-opacity:1"
         offset="0.62252963"
         id="stop29209" /><stop
         style="stop-color:#d2d8db;stop-opacity:1"
         offset="1"
         id="stop28575" /></linearGradient><linearGradient
       id="fffff"
       inkscape:swatch="solid"><stop
         style="stop-color:#ffffff;stop-opacity:1;"
         offset="0"
         id="stop28389" /></linearGradient><linearGradient
       inkscape:collect="always"
       xlink:href="#linearGradient28577"
       id="linearGradient28579"
       x1="46.562832"
       y1="88.254303"
       x2="45.194542"
       y2="-47.890282"
       gradientUnits="userSpaceOnUse" /><linearGradient
       inkscape:collect="always"
       xlink:href="#linearGradient29319"
       id="linearGradient29321"
       x1="-0.00022735514"
       y1="45.749645"
       x2="91.499634"
       y2="45.749645"
       gradientUnits="userSpaceOnUse" /><linearGradient
       inkscape:collect="always"
       xlink:href="#linearGradient29319"
       id="linearGradient29392"
       gradientUnits="userSpaceOnUse"
       x1="-0.00022735514"
       y1="45.749645"
       x2="91.499634"
       y2="45.749645" /><linearGradient
       inkscape:collect="always"
       xlink:href="#linearGradient29319"
       id="linearGradient29394"
       gradientUnits="userSpaceOnUse"
       x1="-0.00022735514"
       y1="45.749645"
       x2="91.499634"
       y2="45.749645" /><linearGradient
       inkscape:collect="always"
       xlink:href="#linearGradient29319"
       id="linearGradient29396"
       gradientUnits="userSpaceOnUse"
       x1="-0.00022735514"
       y1="45.749645"
       x2="91.499634"
       y2="45.749645" /><linearGradient
       inkscape:collect="always"
       xlink:href="#linearGradient28577"
       id="linearGradient29489"
       gradientUnits="userSpaceOnUse"
       x1="46.562832"
       y1="88.254303"
       x2="45.194542"
       y2="-47.890282" /><linearGradient
       inkscape:collect="always"
       xlink:href="#linearGradient28577"
       id="linearGradient29491"
       gradientUnits="userSpaceOnUse"
       x1="46.562832"
       y1="88.254303"
       x2="45.194542"
       y2="-47.890282" /><linearGradient
       inkscape:collect="always"
       xlink:href="#linearGradient28577"
       id="linearGradient29493"
       gradientUnits="userSpaceOnUse"
       x1="46.562832"
       y1="88.254303"
       x2="45.194542"
       y2="-47.890282" /></defs><g
     id="g16605"
     transform="matrix(1.3333333,0,0,1.3333333,3.0444727e-4,5.917673e-4)"
     style="fill:url(#linearGradient28579);fill-opacity:1"
     inkscape:export-filename="../g16605.svg"
     inkscape:export-xdpi="100.72131"
     inkscape:export-ydpi="100.72131"><g
       id="g16607"
       style="fill:url(#linearGradient29493);fill-opacity:1"><g
         id="g16613"
         style="fill:url(#linearGradient29491);fill-opacity:1"><path
           d="m 35.75,0.473 c 0.5,0.004 0.977,-0.059 1.43,-0.192 5.972,-0.39 11.945,-0.375 17.914,0.047 5.414,0.422 10.656,1.598 15.722,3.524 8.426,3.468 14.192,9.484 17.293,18.05 1.778,5.157 2.825,10.457 3.145,15.903 0.445,6.843 0.285,13.668 -0.477,20.476 -0.57,4.789 -1.808,9.391 -3.715,13.813 -3.539,7.66 -9.269,12.945 -17.199,15.855 -6.425,2.172 -13.031,3.313 -19.82,3.43 C 42.41,91.773 34.848,91.203 27.367,89.664 13.594,86.594 5.098,78.199 1.879,64.473 0.512,58.293 -0.105,52.039 0.02,45.711 -0.133,38.98 0.582,32.344 2.164,25.805 5.539,12.973 13.684,5.02 26.605,1.949 29.613,1.211 32.664,0.719 35.75,0.473 Z"
           style="fill:url(#linearGradient29489);fill-opacity:1;fill-rule:evenodd;stroke:none"
           id="path16621" /></g></g></g><g
     id="g29207"
     transform="matrix(1.570809,0,0,1.570809,-94.488825,120.47016)"><g
       stroke-linejoin="bevel"
       transform="matrix(1.9709502,0,0,1.9709502,-565.38149,-1029.346)"
       id="g24442"><path
         d="m 324.08,493.05 v 19.996 l 8,-3.996 v -12 c -2.334,-1.333 -5.667,-2.668 -8,-4 m 26,0 -8,4 v 12 h 0.008 l 7.992,4 z m -17,4 v 12 h 8 v -12 z"
         fill="#0abafc"
         id="path24438" /><circle
         cx="347.07999"
         cy="498.04999"
         r="1"
         fill="#ffffff"
         fill-rule="evenodd"
         id="circle24440" /></g></g><g
     id="g29315"
     transform="matrix(1.2281434,0,0,1.2281434,4.8127144,4.8130021)"
     style="fill:none;fill-opacity:1;stroke:url(#linearGradient29321);stroke-width:1.407;stroke-dasharray:none"
     inkscape:export-filename="../g16605.svg"
     inkscape:export-xdpi="100.72131"
     inkscape:export-ydpi="100.72131"><g
       id="g29313"
       style="fill:none;fill-opacity:1;stroke:url(#linearGradient29396);stroke-width:1.407;stroke-dasharray:none"><g
         id="g29311"
         style="fill:none;fill-opacity:1;stroke:url(#linearGradient29394);stroke-width:1.407;stroke-dasharray:none"><path
           d="m 35.75,0.473 c 0.5,0.004 0.977,-0.059 1.43,-0.192 5.972,-0.39 11.945,-0.375 17.914,0.047 5.414,0.422 10.656,1.598 15.722,3.524 8.426,3.468 14.192,9.484 17.293,18.05 1.778,5.157 2.825,10.457 3.145,15.903 0.445,6.843 0.285,13.668 -0.477,20.476 -0.57,4.789 -1.808,9.391 -3.715,13.813 -3.539,7.66 -9.269,12.945 -17.199,15.855 -6.425,2.172 -13.031,3.313 -19.82,3.43 C 42.41,91.773 34.848,91.203 27.367,89.664 13.594,86.594 5.098,78.199 1.879,64.473 0.512,58.293 -0.105,52.039 0.02,45.711 -0.133,38.98 0.582,32.344 2.164,25.805 5.539,12.973 13.684,5.02 26.605,1.949 29.613,1.211 32.664,0.719 35.75,0.473 Z"
           style="fill:none;fill-opacity:1;fill-rule:evenodd;stroke:url(#linearGradient29392);stroke-width:1.407;stroke-dasharray:none"
           id="path29309" /></g></g></g></svg>
