<?xml version="1.0" encoding="UTF-8" standalone="no"?>
<svg
   width="24"
   height="24"
   version="1.1"
   id="svg4"
   sodipodi:docname="appimagekit-pcloud.svg"
   inkscape:version="1.3 (0e150ed6c4, 2023-07-21)"
   xmlns:inkscape="http://www.inkscape.org/namespaces/inkscape"
   xmlns:sodipodi="http://sodipodi.sourceforge.net/DTD/sodipodi-0.dtd"
   xmlns="http://www.w3.org/2000/svg"
   xmlns:svg="http://www.w3.org/2000/svg">
  <defs
     id="defs4" />
  <sodipodi:namedview
     id="namedview4"
     pagecolor="#ffffff"
     bordercolor="#000000"
     borderopacity="0.25"
     inkscape:showpageshadow="2"
     inkscape:pageopacity="0.0"
     inkscape:pagecheckerboard="0"
     inkscape:deskcolor="#d1d1d1"
     inkscape:zoom="6.3359375"
     inkscape:cx="8.6806412"
     inkscape:cy="11.916153"
     inkscape:window-width="2560"
     inkscape:window-height="998"
     inkscape:window-x="0"
     inkscape:window-y="0"
     inkscape:window-maximized="1"
     inkscape:current-layer="svg4" />
  <g
     id="g15"
     transform="translate(40.001059,20.000427)">
    <path
       id="path9"
       style="fill:#03c7dd;fill-opacity:1;fill-rule:evenodd;stroke:none;stroke-width:1.33333"
       d="m -27.908203,-19 c -0.718166,-0.002 -1.435632,0.02102 -2.154297,0.06836 -0.109334,0.03067 -0.22375,0.04687 -0.34375,0.04687 -0.738666,0.05733 -1.473265,0.176183 -2.197266,0.353516 -3.103996,0.738666 -5.063,2.651712 -5.875,5.734375 -0.381332,1.573332 -0.553578,3.172444 -0.517578,4.7871094 -0.02017,0.9588071 0.0342,1.9107077 0.158203,2.8554687 a 14.872692,14.872692 0 0 1 1.228516,-0.2011719 c 0.04146,-1.8108001 1.524128,-3.2565435 3.337891,-3.2578124 l 0.0078,0.00195 c 0.02919,-2.6104298 2.156401,-4.7120448 4.771484,-4.7128908 a 4.7808556,4.7808556 0 0 1 1.824219,0.363281 5.6143322,5.6143322 0 0 1 3.132813,-0.958984 c 3.097822,0 5.609375,2.506865 5.609375,5.5996094 a 5.593178,5.593178 0 0 1 -0.466797,2.2207031 14.877346,14.877346 0 0 1 2.232422,0.984375 c 0.170222,-1.5976276 0.202797,-3.1939926 0.101562,-4.796875 -0.07867,-1.3066655 -0.332572,-2.5822665 -0.753906,-3.8222655 -0.750665,-2.057331 -2.136778,-3.506512 -4.162109,-4.339844 -1.219999,-0.462666 -2.479919,-0.743656 -3.78125,-0.847656 -0.716667,-0.05 -1.434178,-0.07612 -2.152344,-0.07813 z" />
    <path
       id="path11"
       style="fill:#ffffff;fill-opacity:0.501961;stroke-width:0.999998"
       d="m -32.220703,-14.5625 a 4.9505126,4.9505126 0 0 0 -4.943359,4.806641 4.9505126,4.9505126 0 0 0 -1.833985,1.130859 c -0.0021,0.204561 -0.0026,0.410137 0.002,0.615234 -0.02017,0.958808 0.0342,1.910708 0.158203,2.855469 a 14.872692,14.872692 0 0 1 1.228516,-0.201172 c 0.04146,-1.810377 1.524128,-3.256543 3.337891,-3.257812 h 0.0078 c 0.02919,-2.610429 2.156824,-4.710515 4.771484,-4.710938 0.195888,0 0.388682,0.0169 0.582032,0.04102 A 4.9505126,4.9505126 0 0 0 -32.220703,-14.5625 Z M -19,-9.193359 c 0.04527,0.285158 0.07422,0.575196 0.07422,0.873047 a 5.593178,5.593178 0 0 1 -0.464844,2.220703 14.877346,14.877346 0 0 1 2.230469,0.984375 c 0.123179,-1.156099 0.174155,-2.310969 0.154297,-3.46875 A 3.6084883,3.6084883 0 0 0 -19,-9.193359 Z" />
    <path
       id="path14"
       style="fill:#f9f9f9;fill-opacity:1;fill-rule:evenodd;stroke:none;stroke-width:1.33333"
       d="m -24.535156,-13.921875 c -1.116519,0.0017 -2.207528,0.336888 -3.132813,0.960937 a 4.7808556,4.7808556 0 0 0 -1.824219,-0.363281 c -2.614659,8.46e-4 -4.742291,2.100086 -4.771484,4.710938 h -0.0078 c -1.813762,0.0013 -3.296428,1.447435 -3.337891,3.257812 -0.412815,0.045952 -0.821424,0.116063 -1.228516,0.197266 0.07281,0.555575 0.169456,1.108217 0.291016,1.658203 0.770666,3.302664 2.817003,5.321974 6.125,6.056641 1.801331,0.369329 3.617841,0.510779 5.451172,0.412109 1.635998,-0.026667 3.224913,-0.302886 4.767578,-0.824219 1.905331,-0.697332 3.285432,-1.966548 4.134766,-3.810547 0.458665,-1.062666 0.756485,-2.167694 0.896484,-3.318359 0.0049,-0.044287 0.007,-0.088527 0.01172,-0.132813 a 14.875653,14.875653 0 0 0 -2.230469,-0.982421 5.593178,5.593178 0 0 0 0.464844,-2.220703 c 0,-3.092745 -2.511552,-5.601563 -5.609375,-5.601563 z" />
    <path
       d="m -28.000422,-11.523237 c -3.465909,0 -6.285768,2.819436 -6.285768,6.285345 0,3.465908 2.819859,6.285767 6.286191,6.285767 3.466332,0 6.285344,-2.819859 6.285344,-6.285767 0,-3.465909 -2.819859,-6.285345 -6.285344,-6.285345 z m 0,1.047135 c 2.887975,0 5.237787,2.350234 5.237787,5.23821 0,2.887975 -2.349389,5.238633 -5.237364,5.238633 -2.887976,0 -5.23821,-2.349812 -5.23821,-5.237787 0,-2.887975 2.349811,-5.238633 5.237787,-5.238633 z m -1.833226,2.095537 a 0.78566805,0.78566805 0 0 0 -0.785668,0.785668 v 5.237787 a 0.78566805,0.78566805 0 1 0 1.571336,0 v -1.309446 h 1.833226 c 1.299292,0 2.357004,-1.057712 2.357004,-2.357004 0,-1.299293 -1.057712,-2.357005 -2.357004,-2.357005 z m 0.785668,1.571337 h 1.833226 c 0.433238,0 0.785668,0.352429 0.785668,0.785668 0,0.433238 -0.35243,0.785668 -0.785668,0.785668 h -1.833226 z"
       fill="#00bcd4"
       id="path13"
       style="stroke-width:0.999998" />
  </g>
</svg>
