<?xml version="1.0" encoding="UTF-8" standalone="no"?>
<svg
   width="121.99982"
   height="122.00023"
   viewBox="0 0 121.99982 122.00023"
   fill="none"
   version="1.1"
   id="svg8571"
   sodipodi:docname="Template-B.svg"
   xml:space="preserve"
   xmlns:inkscape="http://www.inkscape.org/namespaces/inkscape"
   xmlns:sodipodi="http://sodipodi.sourceforge.net/DTD/sodipodi-0.dtd"
   xmlns:xlink="http://www.w3.org/1999/xlink"
   xmlns="http://www.w3.org/2000/svg"
   xmlns:svg="http://www.w3.org/2000/svg"><sodipodi:namedview
     id="namedview8573"
     pagecolor="#ffffff"
     bordercolor="#000000"
     borderopacity="0.25"
     inkscape:showpageshadow="2"
     inkscape:pageopacity="0.0"
     inkscape:pagecheckerboard="0"
     inkscape:deskcolor="#d1d1d1"
     showgrid="false" /><defs
     id="defs8569"><linearGradient
       inkscape:collect="always"
       id="linearGradient35444"><stop
         style="stop-color:#a14dc8;stop-opacity:1;"
         offset="0"
         id="stop35440" /><stop
         style="stop-color:#eeaaff;stop-opacity:1"
         offset="1"
         id="stop35442" /></linearGradient><linearGradient
       id="linearGradient29319"
       inkscape:swatch="solid"><stop
         style="stop-color:#d2d8db;stop-opacity:1;"
         offset="0"
         id="stop29317" /></linearGradient><linearGradient
       id="fffff"
       inkscape:swatch="solid"><stop
         style="stop-color:#ffffff;stop-opacity:1;"
         offset="0"
         id="stop28389" /></linearGradient><linearGradient
       inkscape:collect="always"
       xlink:href="#linearGradient35444"
       id="linearGradient35446"
       x1="45.878689"
       y1="69.326332"
       x2="45.422592"
       y2="-20.524534"
       gradientUnits="userSpaceOnUse" /><linearGradient
       inkscape:collect="always"
       xlink:href="#linearGradient35444"
       id="linearGradient35511"
       gradientUnits="userSpaceOnUse"
       x1="45.878689"
       y1="69.326332"
       x2="45.422592"
       y2="-20.524534" /><linearGradient
       inkscape:collect="always"
       xlink:href="#linearGradient35444"
       id="linearGradient35513"
       gradientUnits="userSpaceOnUse"
       x1="45.878689"
       y1="69.326332"
       x2="45.422592"
       y2="-20.524534" /><linearGradient
       inkscape:collect="always"
       xlink:href="#linearGradient35444"
       id="linearGradient35515"
       gradientUnits="userSpaceOnUse"
       x1="45.878689"
       y1="69.326332"
       x2="45.422592"
       y2="-20.524534" /></defs><g
     id="g16605"
     transform="matrix(1.3333333,0,0,1.3333333,3.0444727e-4,5.917807e-4)"
     style="fill:url(#linearGradient35446);fill-opacity:1"
     inkscape:export-filename="../g16605.svg"
     inkscape:export-xdpi="100.72131"
     inkscape:export-ydpi="100.72131"><g
       id="g16607"
       style="fill:url(#linearGradient35515);fill-opacity:1"><g
         id="g16613"
         style="fill:url(#linearGradient35513);fill-opacity:1"><path
           d="m 35.75,0.473 c 0.5,0.004 0.977,-0.059 1.43,-0.192 5.972,-0.39 11.945,-0.375 17.914,0.047 5.414,0.422 10.656,1.598 15.722,3.524 8.426,3.468 14.192,9.484 17.293,18.05 1.778,5.157 2.825,10.457 3.145,15.903 0.445,6.843 0.285,13.668 -0.477,20.476 -0.57,4.789 -1.808,9.391 -3.715,13.813 -3.539,7.66 -9.269,12.945 -17.199,15.855 -6.425,2.172 -13.031,3.313 -19.82,3.43 C 42.41,91.773 34.848,91.203 27.367,89.664 13.594,86.594 5.098,78.199 1.879,64.473 0.512,58.293 -0.105,52.039 0.02,45.711 -0.133,38.98 0.582,32.344 2.164,25.805 5.539,12.973 13.684,5.02 26.605,1.949 29.613,1.211 32.664,0.719 35.75,0.473 Z"
           style="fill:url(#linearGradient35511);fill-opacity:1;fill-rule:evenodd;stroke:none"
           id="path16621" /></g></g></g><path
     d="m 61.069993,19.111816 c -17.257031,0 -31.249971,14.027904 -31.249971,31.327403 v 39.026887 a 5.6191531,5.6191531 0 0 1 3.571284,10.571514 9.7623421,9.7623421 0 0 0 6.241006,2.24266 9.8247771,9.8247771 0 0 0 9.807295,-9.839767 l 0.0025,-42.006289 a 11.645383,11.645383 0 0 1 11.630429,-11.65787 h 0.284704 a 11.13841,11.13841 0 0 1 11.208348,11.185861 l 0.007,-0.272216 -0.007,0.551926 -0.005,-0.0025 c 0.005,-0.0899 0.005,-0.187305 0.005,-0.277212 -0.27472,6.328415 -5.5767,11.575456 -11.353197,11.575456 -5.419361,0 -9.807283,4.402919 -9.807283,9.834767 0,5.431848 4.39042,9.827275 9.807283,9.827275 16.465377,0 30.335937,-13.758185 30.960297,-30.573189 0.005,-0.08741 0.005,-0.177315 0.007,-0.272217 V 50.079637 C 92.224688,32.959951 78.508908,19.11186 61.354245,19.11186 Z m 0.209782,46.08205 a 6.1835658,6.1835658 0 0 1 0,12.362137 6.1835658,6.1835658 0 0 1 0,-12.362137 z"
     fill="#ffffff"
     id="path35063"
     style="stroke-width:2.4974" /></svg>
