<?xml version="1.0" encoding="UTF-8" standalone="no"?>
<svg
   width="24"
   height="24"
   version="1.1"
   id="svg2"
   sodipodi:docname="plasma-mobile-phone.svg"
   inkscape:version="1.3 (0e150ed6c4, 2023-07-21)"
   xmlns:inkscape="http://www.inkscape.org/namespaces/inkscape"
   xmlns:sodipodi="http://sodipodi.sourceforge.net/DTD/sodipodi-0.dtd"
   xmlns="http://www.w3.org/2000/svg"
   xmlns:svg="http://www.w3.org/2000/svg"
   xmlns:sketch="http://www.bohemiancoding.com/sketch/ns">
  <defs
     id="defs2" />
  <sodipodi:namedview
     id="namedview2"
     pagecolor="#ffffff"
     bordercolor="#000000"
     borderopacity="0.25"
     inkscape:showpageshadow="2"
     inkscape:pageopacity="0.0"
     inkscape:pagecheckerboard="0"
     inkscape:deskcolor="#d1d1d1"
     inkscape:zoom="8.9603687"
     inkscape:cx="-0.11160255"
     inkscape:cy="-5.1895186"
     inkscape:window-width="2560"
     inkscape:window-height="998"
     inkscape:window-x="0"
     inkscape:window-y="0"
     inkscape:window-maximized="1"
     inkscape:current-layer="svg2" />
  <path
     d="M 12,0.99999995 C 1.9999999,0.99999995 0.99999995,5.9999999 0.99999995,12 0.99999995,20 4,22.999999 12,22.999999 20,22.999999 22.999999,20 22.999999,12 22.999999,5.9999999 22,0.99999995 12,0.99999995 Z"
     sketch:type="MSShapeGroup"
     id="path6"
     style="font-variation-settings:normal;display:inline;vector-effect:none;fill:#cbd2d5;fill-opacity:1;stroke-width:1.11627;stroke-linecap:butt;stroke-linejoin:miter;stroke-miterlimit:4;stroke-dasharray:none;stroke-dashoffset:0;stroke-opacity:1;-inkscape-stroke:none;stop-color:#000000"
     sodipodi:nodetypes="sssss"
     inkscape:label="Shape" />
  <path
     d="M 12,1.9750004 C 2.886364,1.9750004 1.9750004,6.5318182 1.9750004,12 1.9750004,19.290909 4.7090912,22.024999 12,22.024999 19.290909,22.024999 22.024999,19.290909 22.024999,12 22.024999,6.5318182 21.113636,1.9750004 12,1.9750004 Z"
     sketch:type="MSShapeGroup"
     id="path45683"
     style="font-variation-settings:normal;display:inline;vector-effect:none;fill:#a4b0b6;fill-opacity:1;stroke-width:1.01733;stroke-linecap:butt;stroke-linejoin:miter;stroke-miterlimit:4;stroke-dasharray:none;stroke-dashoffset:0;stroke-opacity:1;-inkscape-stroke:none;stop-color:#000000"
     sodipodi:nodetypes="sssss"
     inkscape:label="Shape" />
  <g
     id="g4"
     transform="matrix(1.1538462,0,0,1.1538462,-1.8461544,-1.8461544)"
     style="stroke-width:0.866667">
    <circle
       transform="scale(1,-1)"
       cx="12"
       cy="-12"
       r="6.5"
       fill="#a4b0b6"
       id="circle3"
       style="stroke-width:0.86697" />
    <path
       d="M 12.000464,15.25 A 0.46428572,0.46428572 0 0 1 11.536179,14.785714 0.46428572,0.46428572 0 0 1 12.000464,14.321428 0.46428572,0.46428572 0 0 1 12.46475,14.785714 0.46428572,0.46428572 0 0 1 12.000464,15.25 M 10.037,14.433786 a 0.46428572,0.46428572 0 0 1 -0.334286,-0.136036 0.46428572,0.46428572 0 0 1 0,-0.6565 0.46428572,0.46428572 0 0 1 0.6565,0 0.46428572,0.46428572 0 0 1 0,0.6565 0.46428572,0.46428572 0 0 1 -0.32175,0.136036 m 3.926465,0 a 0.46428572,0.46428572 0 0 1 -0.322214,-0.136036 0.46428572,0.46428572 0 0 1 0,-0.6565 0.46428572,0.46428572 0 0 1 0.6565,0 0.46428572,0.46428572 0 0 1 0,0.6565 0.46428572,0.46428572 0 0 1 -0.334286,0.136036 M 12,12.928571 A 0.92857145,0.92857145 0 0 1 11.071429,12 0.92857145,0.92857145 0 0 1 12,11.071428 0.92857145,0.92857145 0 0 1 12.928572,12 0.92857145,0.92857145 0 0 1 12,12.928571 M 9.214286,12.464286 A 0.46428572,0.46428572 0 0 1 8.75,12 0.46428572,0.46428572 0 0 1 9.214286,11.535714 0.46428572,0.46428572 0 0 1 9.678572,12 0.46428572,0.46428572 0 0 1 9.214286,12.464286 m 5.571429,0 A 0.46428572,0.46428572 0 0 1 14.321429,12 0.46428572,0.46428572 0 0 1 14.785715,11.535714 0.46428572,0.46428572 0 0 1 15.25,12 0.46428572,0.46428572 0 0 1 14.785715,12.464286 m -4.762643,-1.9695 A 0.46428572,0.46428572 0 0 1 9.70225,10.35875 a 0.46428572,0.46428572 0 0 1 0,-0.6565 0.46428572,0.46428572 0 0 1 0.6565,0 0.46428572,0.46428572 0 0 1 0,0.6565 0.46428572,0.46428572 0 0 1 -0.335678,0.136036 m 3.953857,0 a 0.46428572,0.46428572 0 0 1 -0.335679,-0.136036 0.46428572,0.46428572 0 0 1 0,-0.6565 0.46428572,0.46428572 0 0 1 0.6565,0 0.46428572,0.46428572 0 0 1 0,0.6565 0.46428572,0.46428572 0 0 1 -0.320821,0.136036 M 12,9.678571 A 0.46428572,0.46428572 0 0 1 11.535714,9.214285 0.46428572,0.46428572 0 0 1 12,8.75 0.46428572,0.46428572 0 0 1 12.464286,9.214285 0.46428572,0.46428572 0 0 1 12,9.678571"
       fill="#303334"
       id="path4"
       style="stroke-width:0.86697" />
  </g>
</svg>
