<?xml version="1.0" encoding="UTF-8" standalone="no"?>
<svg
   width="24"
   height="24"
   viewBox="0 0 6.349875 6.349875"
   version="1.1"
   id="svg2"
   sodipodi:docname="plasma.svg"
   inkscape:version="1.3 (0e150ed6c4, 2023-07-21)"
   xmlns:inkscape="http://www.inkscape.org/namespaces/inkscape"
   xmlns:sodipodi="http://sodipodi.sourceforge.net/DTD/sodipodi-0.dtd"
   xmlns="http://www.w3.org/2000/svg"
   xmlns:svg="http://www.w3.org/2000/svg">
  <defs
     id="defs2">
    <radialGradient
       fx="0"
       fy="0"
       cx="0"
       cy="0"
       r="1"
       gradientUnits="userSpaceOnUse"
       gradientTransform="matrix(0,16.5,-16.5,0,8.999989,0.75004)"
       spreadMethod="pad"
       id="radialGradient33149-2">
      <stop
         style="stop-opacity:1;stop-color:#f9dc6e"
         offset="0"
         id="stop33145-9" />
      <stop
         style="stop-opacity:1;stop-color:#efac01"
         offset="1"
         id="stop33147-1" />
    </radialGradient>
  </defs>
  <sodipodi:namedview
     id="namedview2"
     pagecolor="#ffffff"
     bordercolor="#000000"
     borderopacity="0.25"
     inkscape:showpageshadow="2"
     inkscape:pageopacity="0.0"
     inkscape:pagecheckerboard="0"
     inkscape:deskcolor="#d1d1d1"
     inkscape:zoom="4.4801844"
     inkscape:cx="-33.480765"
     inkscape:cy="20.646472"
     inkscape:window-width="2560"
     inkscape:window-height="998"
     inkscape:window-x="0"
     inkscape:window-y="0"
     inkscape:window-maximized="1"
     inkscape:current-layer="svg2" />
  <g
     id="g33135"
     transform="matrix(0.35277082,0,0,0.35277082,-1.1965686e-4,-9.2712777e-6)">
    <g
       id="g33137">
      <g
         id="g33143">
        <path
           d="M 7.453,0.801 C 7.371,0.824 7.285,0.836 7.195,0.836 6.641,0.879 6.09,0.969 5.547,1.102 3.219,1.656 1.75,3.09 1.141,5.402 0.855,6.582 0.727,7.781 0.754,8.992 c -0.024,1.141 0.09,2.27 0.336,3.383 0.578,2.477 2.113,3.992 4.594,4.543 1.351,0.277 2.714,0.383 4.089,0.309 1.227,-0.02 2.418,-0.227 3.575,-0.618 1.429,-0.523 2.464,-1.476 3.101,-2.859 0.344,-0.797 0.567,-1.625 0.672,-2.488 0.137,-1.231 0.164,-2.461 0.086,-3.696 C 17.148,6.586 16.957,5.629 16.641,4.699 16.078,3.156 15.039,2.07 13.52,1.445 12.605,1.098 11.66,0.887 10.684,0.809 9.609,0.734 8.531,0.73 7.453,0.801 Z"
           style="fill:url(#radialGradient33149-2);fill-rule:evenodd;stroke:none"
           id="path33151" />
      </g>
    </g>
  </g>
  <path
     d="m 3.3775119,1.5878436 a 0.19864916,0.19864916 0 1 0 0,0.3965487 0.19864916,0.19864916 0 0 0 0,-0.3965487 m 0.661164,0 a 0.19864916,0.19864916 0 1 0 0,0.3965487 0.19864916,0.19864916 0 0 0 0,-0.3965487 m 0.5284819,0.2642408 a 0.19864916,0.19864916 0 1 0 3.747e-4,0.3969236 0.19864916,0.19864916 0 0 0 0,-0.3969236 M 2.8295402,1.8726986 C 2.6781168,1.8813197 2.4464845,1.9765213 2.240714,2.1478094 1.7122325,2.5867115 1.2433456,3.4626419 1.9521101,4.2148851 2.6357632,4.9393923 3.6331322,4.7954653 3.9708352,4.6200543 4.4254792,4.3850487 4.4187334,3.9109144 4.3868743,3.7965974 4.2718072,3.3831822 3.9562174,3.2677408 3.7556946,3.2906042 3.5135679,3.3187146 3.0446808,3.4720121 2.7680706,3.1005757 2.5338149,2.7857355 2.7448368,2.3314661 2.9817122,2.1710476 3.0784138,2.104706 3.0757894,1.9630281 2.9517306,1.8929387 A 0.2192637,0.2192637 0 0 0 2.8291682,1.8726993 Z"
     fill="#f9f9f9"
     id="path3"
     style="stroke-width:1" />
</svg>
