<?xml version="1.0" encoding="UTF-8" standalone="no"?>
<svg
   width="24"
   height="24"
   viewBox="0 0 6.349875 6.349875"
   version="1.1"
   id="svg5"
   sodipodi:docname="playonlinux32.svg"
   inkscape:version="1.3 (0e150ed6c4, 2023-07-21)"
   xmlns:inkscape="http://www.inkscape.org/namespaces/inkscape"
   xmlns:sodipodi="http://sodipodi.sourceforge.net/DTD/sodipodi-0.dtd"
   xmlns="http://www.w3.org/2000/svg"
   xmlns:svg="http://www.w3.org/2000/svg">
  <defs
     id="defs5" />
  <sodipodi:namedview
     id="namedview5"
     pagecolor="#ffffff"
     bordercolor="#000000"
     borderopacity="0.25"
     inkscape:showpageshadow="2"
     inkscape:pageopacity="0.0"
     inkscape:pagecheckerboard="0"
     inkscape:deskcolor="#d1d1d1"
     showguides="false"
     inkscape:zoom="17.920737"
     inkscape:cx="-1.3950319"
     inkscape:cy="21.902"
     inkscape:window-width="2560"
     inkscape:window-height="998"
     inkscape:window-x="0"
     inkscape:window-y="0"
     inkscape:window-maximized="1"
     inkscape:current-layer="svg5" />
  <g
     stroke-width="0.841"
     id="g5"
     transform="translate(10.583125)">
    <path
       d="M 15.61,8.466 A 7.143,7.143 0 0 1 8.467,15.61 7.143,7.143 0 0 1 1.323,8.466 7.143,7.143 0 0 1 8.467,1.323 7.143,7.143 0 0 1 15.61,8.466 Z"
       fill="#6cc862"
       id="path1" />
    <path
       d="m 1.323,8.466 a 7.143,7.143 0 0 0 7.143,7.143 V 8.466 Z"
       fill="#60a5cf"
       id="path2" />
    <path
       d="M 15.61,8.466 8.466,8.511 v 7.098 a 7.143,7.143 0 0 0 7.143,-7.143 z"
       fill="#e96565"
       id="path3" />
    <path
       d="M 8.466,8.511 V 1.323 a 7.143,7.143 0 0 1 7.144,7.143"
       fill="#ffcd5f"
       id="path4" />
    <path
       d="M 9.963,4.296 C 9.095,4.063 8.501,5.255 8.363,6.582 8.01,5.016 7.028,3.72 5.99,4.884 5.604,5.317 5.515,5.667 5.574,5.948 5.288,5.923 4.949,6.052 4.563,6.484 3.647,7.51 4.931,8.368 6.455,8.597 4.948,8.972 3.758,9.927 4.891,10.933 c 0.435,0.386 0.786,0.475 1.068,0.417 -0.026,0.286 0.104,0.624 0.537,1.01 1.006,0.894 1.85,-0.312 2.1,-1.788 0.42,1.437 1.399,2.539 2.293,1.535 0.386,-0.432 0.476,-0.783 0.417,-1.064 0.287,0.026 0.625,-0.103 1.012,-0.536 1.01,-1.131 -0.29,-1.943 -1.833,-2.142 1.49,-0.401 2.67,-1.4 1.64,-2.315 C 11.692,5.665 11.34,5.575 11.059,5.633 11.084,5.347 10.955,5.01 10.521,4.623 A 1.413,1.413 0 0 0 9.961,4.296 Z M 8.446,8.454 c 10e-4,0.01 0.002,0.02 0.005,0.03 h -0.01 c 0.003,-0.01 0.003,-0.02 0.005,-0.03 z"
       fill="#ffffff"
       id="path5" />
  </g>
  <path
     id="path14"
     style="fill:#6cc862;fill-opacity:1;fill-rule:evenodd;stroke:none;stroke-width:0.352771"
     d="m 3.1992249,0.26457812 c -0.1900109,-5.2913e-4 -0.3798367,0.005563 -0.5699798,0.0180864 -0.028927,0.008114 -0.0592,0.0124021 -0.090949,0.0124021 -0.1954346,0.0151691 -0.389794,0.0466141 -0.5813484,0.0935325 C 1.1356981,0.58403398 0.6173883,1.090184 0.4025507,1.9057893 c -0.100891,0.4162692 -0.145923,0.8393594 -0.136423,1.2665644 -0.00847,0.4025112 0.031557,0.800552 0.118337,1.1931854 0.062681,0.2686175 0.157323,0.5050465 0.2836981,0.7095034 0.6685646,0.6105235 1.6008104,0.9992567 2.4721519,1.0092209 0.030118,3.85e-5 0.060281,-6.65e-5 0.090432,-5.168e-4 0.028451,-5.369e-4 0.057019,-7.191e-4 0.085265,-0.00207 0.00293,-8.85e-5 0.00586,9.32e-5 0.00878,0 0.00103,-5.25e-5 0.00207,5.35e-5 0.0031,0 C 4.8372816,6.003564 6.0416309,4.7747938 6.0832299,3.2560679 6.0839516,3.2051106 6.0840627,3.1540917 6.0837466,3.1031087 6.0631803,2.2392065 5.6736728,1.3200001 5.067808,0.6604118 4.9748663,0.60392262 4.8753675,0.55323398 4.7691241,0.50951959 4.446339,0.38710823 4.1129922,0.31276456 3.768688,0.28524829 3.5790739,0.27201945 3.3892359,0.26510726 3.1992249,0.26457812 Z" />
  <path
     id="path12"
     style="fill:#ffcd5f;fill-opacity:1;fill-rule:evenodd;stroke:none;stroke-width:0.352771"
     d="m 3.1992249,0.26457812 c -0.0081,-2.256e-5 -0.016182,5.1589e-4 -0.024287,5.1676e-4 V 3.1930239 l 2.908292,-0.015503 C 6.0838544,3.008254 6.0805107,2.8387125 6.0697943,2.6690352 6.0489808,2.3233201 5.9818026,1.9858238 5.8703271,1.6577473 5.6717173,1.1134225 5.3049823,0.73000114 4.7691241,0.50951959 4.446339,0.38710823 4.1129922,0.31276456 3.768688,0.28524829 3.5790739,0.27201945 3.3892359,0.26510726 3.1992249,0.26457812 Z" />
  <path
     id="path15"
     style="fill:#60a5cf;fill-opacity:1;fill-rule:evenodd;stroke:none;stroke-width:0.352771"
     d="m 0.266128,3.1749375 c -0.00824,0.4016286 0.031744,0.7988114 0.118337,1.1906016 0.203901,0.8738125 0.7453175,1.4080781 1.6205411,1.6024546 0.3871468,0.079378 0.7771977,0.1182047 1.1699314,0.1162697 V 3.1749375 Z" />
  <path
     id="path16"
     style="fill:#e96565;fill-opacity:1;fill-rule:evenodd;stroke:none;stroke-width:0.352771"
     d="m 6.0832299,3.1775213 -2.9082924,0.015503 v 2.8912395 c 0.090737,-4.471e-4 0.1812944,-0.00234 0.2723294,-0.00723 C 3.8801163,6.0699738 4.3005083,5.9968968 4.7086638,5.8589636 5.2127728,5.6744596 5.5779175,5.3386527 5.8026324,4.8507712 5.9239853,4.5696131 6.0027815,4.2772468 6.0398225,3.9728059 6.0693292,3.7076731 6.0822509,3.4428727 6.0832299,3.1775213 Z" />
  <path
     d="M 3.7881523,1.4671862 C 3.4327125,1.3717743 3.1894738,1.8598898 3.1329637,2.4032869 2.9884128,1.762021 2.5862908,1.2313183 2.1612371,1.7079679 2.0031729,1.8852784 1.966728,2.0286009 1.990888,2.1436684 1.8737731,2.1334311 1.734955,2.1862557 1.5768908,2.3631566 1.2017954,2.7832963 1.7275842,3.1346412 2.3516514,3.228415 1.7345455,3.3819749 1.2472491,3.7730405 1.7112044,4.1849903 1.8893339,4.3430546 2.0330659,4.3794995 2.1485429,4.3557489 2.137896,4.4728638 2.1911301,4.6112724 2.3684405,4.7693367 2.7803903,5.1354233 3.1260024,4.641575 3.2283756,4.0371634 3.4003626,4.6256047 3.8012561,5.0768659 4.1673427,4.6657351 4.325407,4.4888341 4.3622613,4.3451021 4.3381012,4.2300346 4.4556257,4.2406814 4.5940343,4.1878568 4.752508,4.0105464 5.1660958,3.54741 4.6337551,3.2149017 4.0019076,3.1334127 4.612052,2.969206 5.0952536,2.5601226 4.6734759,2.1854366 4.4961655,2.0277819 4.352024,1.9909276 4.2369566,2.0146782 4.2471938,1.8975632 4.1943692,1.7595641 4.0166493,1.6010904 A 0.57861343,0.57861343 0 0 0 3.7873334,1.4671862 Z M 3.1669516,3.1698575 c 4.095e-4,0.00409 8.191e-4,0.00819 0.00205,0.012284 h -0.00409 c 0.00123,-0.00409 0.00123,-0.00819 0.00205,-0.012284 z"
     fill="#ffffff"
     id="path10"
     style="stroke-width:0.841" />
</svg>
