<?xml version="1.0" encoding="UTF-8" standalone="no"?>
<svg
   width="24"
   height="24"
   viewBox="0 0 6.349875 6.349875"
   version="1.1"
   id="svg35791"
   sodipodi:docname="playmymusic.svg"
   inkscape:version="1.3 (0e150ed6c4, 2023-07-21)"
   inkscape:export-filename="../../../../../../../../../Imagens/Big Icons/com.github.artemanufrij.playmymusic.pdf"
   inkscape:export-xdpi="96"
   inkscape:export-ydpi="96"
   xml:space="preserve"
   xmlns:inkscape="http://www.inkscape.org/namespaces/inkscape"
   xmlns:sodipodi="http://sodipodi.sourceforge.net/DTD/sodipodi-0.dtd"
   xmlns="http://www.w3.org/2000/svg"
   xmlns:svg="http://www.w3.org/2000/svg"><defs
     id="defs35795"><clipPath
       clipPathUnits="userSpaceOnUse"
       id="clipPath42116"><path
         d="m 7.195,0.836 c 0.09,0 0.176,-0.012 0.258,-0.035 1.078,-0.071 2.156,-0.067 3.231,0.008 0.976,0.078 1.921,0.289 2.836,0.636 1.519,0.625 2.558,1.711 3.121,3.254 0.32,0.93 0.507,1.887 0.566,2.867 0.078,1.235 0.051,2.465 -0.086,3.696 -0.105,0.863 -0.328,1.691 -0.672,2.488 -0.637,1.383 -1.672,2.336 -3.101,2.859 C 12.191,17 11,17.207 9.773,17.227 8.398,17.301 7.035,17.195 5.684,16.918 3.203,16.367 1.668,14.852 1.09,12.375 0.844,11.262 0.73,10.133 0.754,8.992 0.727,7.777 0.855,6.582 1.141,5.402 1.75,3.09 3.219,1.656 5.547,1.102 6.09,0.969 6.641,0.879 7.195,0.836 Z"
         clip-rule="evenodd"
         id="path42114" /></clipPath><clipPath
       clipPathUnits="userSpaceOnUse"
       id="clipPath42124"><path
         d="M -17.260753,-17.259579 H 396.99751 V 396.99869 H -17.260753 Z"
         id="path42122" /></clipPath><linearGradient
       x1="181.18413"
       y1="378.93741"
       x2="170.48215"
       y2="-109.78677"
       gradientUnits="userSpaceOnUse"
       spreadMethod="pad"
       id="linearGradient42130"><stop
         style="stop-opacity:0.92156863;stop-color:#ffffff"
         offset="0"
         id="stop42126" /><stop
         style="stop-opacity:1;stop-color:#ffffff"
         offset="1"
         id="stop42128" /></linearGradient><mask
       maskUnits="userSpaceOnUse"
       x="0"
       y="0"
       width="1"
       height="1"
       id="mask42132"><g
         id="g42138"><g
           clip-path="url(#clipPath42124)"
           id="g42136"><path
             d="M -17.260753,-17.259579 H 396.99751 V 396.99869 H -17.260753 Z"
             style="fill:url(#linearGradient42130);stroke:none"
             id="path42134" /></g></g></mask><linearGradient
       x1="181.18413"
       y1="378.93741"
       x2="170.48215"
       y2="-109.78677"
       gradientUnits="userSpaceOnUse"
       spreadMethod="pad"
       id="linearGradient42146"><stop
         style="stop-opacity:1;stop-color:#61a3f2"
         offset="0"
         id="stop42142" /><stop
         style="stop-opacity:1;stop-color:#a3cdff"
         offset="1"
         id="stop42144" /></linearGradient><clipPath
       clipPathUnits="userSpaceOnUse"
       id="clipPath42156"><path
         d="M 0,0 H 49 V 49 H 0 Z"
         id="path42154" /></clipPath><clipPath
       clipPathUnits="userSpaceOnUse"
       id="clipPath42176"><path
         d="M 0,0 H 49 V 49 H 0 Z"
         id="path42174" /></clipPath><clipPath
       clipPathUnits="userSpaceOnUse"
       id="clipPath42156-2"><path
         d="M 0,0 H 49 V 49 H 0 Z"
         id="path42154-8" /></clipPath><clipPath
       clipPathUnits="userSpaceOnUse"
       id="clipPath42176-9"><path
         d="M 0,0 H 49 V 49 H 0 Z"
         id="path42174-7" /></clipPath><linearGradient
       id="paint0_linear_8_285"
       x1="19.693399"
       y1="4.53372"
       x2="8.9450197"
       y2="19.9799"
       gradientUnits="userSpaceOnUse"><stop
         stop-color="#F9F9F9"
         id="stop5" /><stop
         offset="1"
         stop-color="#CCCCCC"
         id="stop6" /></linearGradient></defs><sodipodi:namedview
     id="namedview35793"
     pagecolor="#ffffff"
     bordercolor="#000000"
     borderopacity="0.25"
     inkscape:showpageshadow="2"
     inkscape:pageopacity="0.0"
     inkscape:pagecheckerboard="0"
     inkscape:deskcolor="#d1d1d1"
     showgrid="false"
     inkscape:zoom="13.65625"
     inkscape:cx="39.176201"
     inkscape:cy="3.5514874"
     inkscape:window-width="2560"
     inkscape:window-height="998"
     inkscape:window-x="0"
     inkscape:window-y="0"
     inkscape:window-maximized="1"
     inkscape:current-layer="svg35791" /><g
     id="g9"
     transform="matrix(1.3160463,0,0,1.3160463,-7.159858,-0.36643979)"
     style="stroke-width:0.759852"><g
       id="g8"
       transform="translate(5.0472105,-0.46580082)"
       style="stroke-width:0.759852"><g
         id="g7"
         transform="matrix(0.24325822,0,0,0.24325822,10.278374,1.5123062)"
         style="fill:none;stroke-width:0.759852"><path
           opacity="0.75"
           d="m -21.902365,6.8348262 c 0.0027,-1.0513 -0.2024,-2.09284 -0.6035,-3.06467 -0.401,-0.97183 -0.9902,-1.85482 -1.7336,-2.59823 -0.7434,-0.7434 -1.6264,-1.33257 -2.5982,-1.73365 -0.9719,-0.40107 -2.0134,-0.60614 -3.0647,-0.60342 -1.0513,-0.00272 -2.09284,0.20235 -3.06467,0.60342 -0.97183,0.40108 -1.85482,0.99025 -2.59823,1.73365 -0.7434,0.74341 -1.33257,1.6264 -1.73365,2.59823 -0.40107,0.97183 -0.60614,2.01337 -0.60342,3.06467 -0.0027,1.0513 0.20235,2.0928 0.60342,3.0647 0.40108,0.9717998 0.99025,1.8547998 1.73365,2.5981998 0.74341,0.7434 1.6264,1.3326 2.59823,1.7336 0.97183,0.4011 2.01337,0.6062 3.06467,0.6035 1.0513,0.0027 2.0928,-0.2024 3.0647,-0.6035 0.9718,-0.401 1.8548,-0.9902 2.5982,-1.7336 0.7434,-0.7434 1.3326,-1.6264 1.7336,-2.5981998 0.4011,-0.9719 0.6062,-2.0134 0.6035,-3.0647 z m -5.0738,0 c 0,1.6121 -1.2832,2.9277 -2.9262,2.9277 -0.3851,0.0022 -0.7669,-0.0721 -1.1232,-0.2184 -0.3562,-0.1464 -0.6799,-0.3619 -0.95234,-0.6342 -0.27241,-0.2723 -0.48812,-0.5959 -0.63466,-0.9521 -0.14653,-0.3561 -0.22097,-0.7379 -0.21902,-1.123 0,-1.6106 1.18732,-2.92619 2.92772,-2.92619 1.7404,0 2.9277,1.34809 2.9277,2.92619 z"
           fill="#ffffff"
           id="path3"
           style="stroke-width:0.759852" /><path
           opacity="0.35"
           d="m -29.903165,2.8331362 c -0.5255,1.3e-4 -1.0458,0.10376 -1.5313,0.30497 -0.48542,0.20122 -0.92649,0.49609 -1.298,0.86777 -0.3715,0.37168 -0.66616,0.81289 -0.86715,1.29845 -0.20099,0.4855 -0.30437,1.0059 -0.30425,1.5314 1.3e-4,0.5256 0.10376,1.0459 0.30498,1.5314 0.20122,0.4854 0.49608,0.9265 0.86776,1.298 0.37168,0.3714998 0.81289,0.6660998 1.29846,0.8670998 0.4855,0.201 1.0059,0.3044 1.5314,0.3043 1.0614,-3e-4 2.0791,-0.4221 2.8294,-1.1726998 0.7503,-0.7507 1.1716,-1.7686 1.1714,-2.8299 -3e-4,-1.0614 -0.4221,-2.0791 -1.1728,-2.82939 -0.7506,-0.75028 -1.7685,-1.17165 -2.8299,-1.1714 z m 0,1.99943 c 0.2629,1.2e-4 0.5231,0.05206 0.7658,0.15266 0.2428,0.1007 0.4634,0.2483 0.6491,0.4342 0.1858,0.1859 0.3331,0.4066 0.4335,0.6495 0.1005,0.2428 0.1521,0.5031 0.152,0.7659 -10e-5,0.2628 -0.052,0.523 -0.1527,0.7658 -0.1007,0.2428 -0.2482,0.4633 -0.4341,0.6491 -0.1859,0.1857 -0.4066,0.333 -0.6495,0.4335 -0.2429,0.1005 -0.5031,0.1521 -0.7659,0.152 -0.5308,0 -1.0399,-0.2109 -1.4152,-0.5862 -0.3753,-0.3753 -0.58616,-0.8844 -0.58616,-1.4151 0,-0.5308 0.21086,-1.0399 0.58616,-1.4152 0.3753,-0.3753 0.8844,-0.58616 1.4152,-0.58616 z"
           fill="#ffffff"
           id="path6-6"
           style="stroke-width:0.759852" /></g></g></g><path
     id="path14"
     d="m 3.115728,0.26459653 c -0.161216,0.001411 -0.323844,0.007055 -0.486471,0.0179913 -0.02893,0.008114 -0.05927,0.012347 -0.09101,0.012347 -0.195435,0.0151691 -0.389812,0.0469185 -0.581366,0.093837 C 1.13563,0.58420687 0.61741,1.0900803 0.402573,1.9056864 0.312973,2.2778596 0.26605,2.6539133 0.264639,3.034553 v 0.049388 c 0,0.030338 0,0.059265 0.0014,0.088193 -0.0085,0.4025115 0.03175,0.8007897 0.118531,1.1934236 0.203902,0.8738134 0.745405,1.4082612 1.620629,1.6026379 0.476594,0.097717 0.95742,0.1351112 1.44248,0.1090062 0.43285,-0.00706 0.853,-0.080079 1.2611555,-0.2180124 0.417328,-0.1527498 0.738349,-0.4092142 0.964475,-0.7686876 V 3.7111675 c -0.100539,-0.044096 -0.18591,-0.1160616 -0.245175,-0.2081348 -0.06068,-0.091015 -0.09243,-0.19861 -0.09243,-0.3086745 0,-0.1090062 0.03175,-0.2166013 0.09243,-0.3086744 0.05926,-0.091015 0.144636,-0.1640385 0.245175,-0.2067237 V 1.2541187 C 5.4623585,0.91898637 5.1607395,0.67098847 4.7695165,0.50977227 4.446732,0.38736078 4.113364,0.31292614 3.769059,0.28541001 3.592674,0.27271026 3.416289,0.26600762 3.239903,0.26459653 Z"
     style="fill:#62a3f2;fill-opacity:0.99215686;fill-rule:evenodd;stroke:none;stroke-width:0.352771" /><g
     id="g3"
     transform="matrix(1.3160463,0,0,1.3160463,-7.159858,-0.36643979)"
     style="opacity:0.35;stroke-width:0.759852"><g
       id="g16145"
       transform="translate(5.0472105,-0.46580082)"
       style="stroke-width:0.759852"><g
         id="g10410"
         transform="matrix(0.24325822,0,0,0.24325822,10.278374,1.5123062)"
         style="fill:none;stroke-width:0.759852"><path
           opacity="0.75"
           d="m -21.902365,6.8348262 c 0.0027,-1.0513 -0.2024,-2.09284 -0.6035,-3.06467 -0.401,-0.97183 -0.9902,-1.85482 -1.7336,-2.59823 -0.7434,-0.7434 -1.6264,-1.33257 -2.5982,-1.73365 -0.9719,-0.40107 -2.0134,-0.60614 -3.0647,-0.60342 -1.0513,-0.00272 -2.09284,0.20235 -3.06467,0.60342 -0.97183,0.40108 -1.85482,0.99025 -2.59823,1.73365 -0.7434,0.74341 -1.33257,1.6264 -1.73365,2.59823 -0.40107,0.97183 -0.60614,2.01337 -0.60342,3.06467 -0.0027,1.0513 0.20235,2.0928 0.60342,3.0647 0.40108,0.9717998 0.99025,1.8547998 1.73365,2.5981998 0.74341,0.7434 1.6264,1.3326 2.59823,1.7336 0.97183,0.4011 2.01337,0.6062 3.06467,0.6035 1.0513,0.0027 2.0928,-0.2024 3.0647,-0.6035 0.9718,-0.401 1.8548,-0.9902 2.5982,-1.7336 0.7434,-0.7434 1.3326,-1.6264 1.7336,-2.5981998 0.4011,-0.9719 0.6062,-2.0134 0.6035,-3.0647 z m -5.0738,0 c 0,1.6121 -1.2832,2.9277 -2.9262,2.9277 -0.3851,0.0022 -0.7669,-0.0721 -1.1232,-0.2184 -0.3562,-0.1464 -0.6799,-0.3619 -0.95234,-0.6342 -0.27241,-0.2723 -0.48812,-0.5959 -0.63466,-0.9521 -0.14653,-0.3561 -0.22097,-0.7379 -0.21902,-1.123 0,-1.6106 1.18732,-2.92619 2.92772,-2.92619 1.7404,0 2.9277,1.34809 2.9277,2.92619 z"
           fill="#ffffff"
           id="path8363"
           style="stroke-width:0.759852" /><path
           opacity="0.35"
           d="m -29.903165,2.8331362 c -0.5255,1.3e-4 -1.0458,0.10376 -1.5313,0.30497 -0.48542,0.20122 -0.92649,0.49609 -1.298,0.86777 -0.3715,0.37168 -0.66616,0.81289 -0.86715,1.29845 -0.20099,0.4855 -0.30437,1.0059 -0.30425,1.5314 1.3e-4,0.5256 0.10376,1.0459 0.30498,1.5314 0.20122,0.4854 0.49608,0.9265 0.86776,1.298 0.37168,0.3714998 0.81289,0.6660998 1.29846,0.8670998 0.4855,0.201 1.0059,0.3044 1.5314,0.3043 1.0614,-3e-4 2.0791,-0.4221 2.8294,-1.1726998 0.7503,-0.7507 1.1716,-1.7686 1.1714,-2.8299 -3e-4,-1.0614 -0.4221,-2.0791 -1.1728,-2.82939 -0.7506,-0.75028 -1.7685,-1.17165 -2.8299,-1.1714 z m 0,1.99943 c 0.2629,1.2e-4 0.5231,0.05206 0.7658,0.15266 0.2428,0.1007 0.4634,0.2483 0.6491,0.4342 0.1858,0.1859 0.3331,0.4066 0.4335,0.6495 0.1005,0.2428 0.1521,0.5031 0.152,0.7659 -10e-5,0.2628 -0.052,0.523 -0.1527,0.7658 -0.1007,0.2428 -0.2482,0.4633 -0.4341,0.6491 -0.1859,0.1857 -0.4066,0.333 -0.6495,0.4335 -0.2429,0.1005 -0.5031,0.1521 -0.7659,0.152 -0.5308,0 -1.0399,-0.2109 -1.4152,-0.5862 -0.3753,-0.3753 -0.58616,-0.8844 -0.58616,-1.4151 0,-0.5308 0.21086,-1.0399 0.58616,-1.4152 0.3753,-0.3753 0.8844,-0.58616 1.4152,-0.58616 z"
           fill="#ffffff"
           id="path8365"
           style="stroke-width:0.759852" /></g></g></g><path
     opacity="0.125"
     fill-rule="evenodd"
     clip-rule="evenodd"
     d="M 3.4208992,1.7709273 4.2018585,1.624997 c 0.1061818,-0.01984 0.2042647,0.06162 0.2042647,0.1696239 v 0.5155832 c 0,0.082994 -0.059084,0.1542339 -0.1406476,0.1695825 L 3.5892485,2.6070414 c -0.078917,0.014497 -0.092952,0.028992 -0.092952,0.1095478 v 1.4740743 c 0,0.473642 -0.392792,0.6524599 -0.6523425,0.6524599 -0.296361,0 -0.5085474,-0.1772304 -0.5085474,-0.4285464 0,-0.2464843 0.1665892,-0.4156159 0.5243331,-0.4832823 l 0.2788289,-0.054782 c 0.0719,-0.012885 0.1087357,-0.061224 0.1087357,-0.1353329 L 3.2367664,1.9497521 c 0,-0.096663 0.064882,-0.1546572 0.1841328,-0.1788248 z"
     fill="#000000"
     fill-opacity="0.875"
     id="path4-0"
     style="fill:#ffffff;stroke-width:0.30425" /><path
     id="path13"
     d="M 3.5362749,1.6666432 4.3176622,1.5205961 c 0.1061839,-0.020461 0.2039016,0.060677 0.2039016,0.1696828 V 2.205677 c 0,0.082548 -0.059266,0.1541609 -0.1404029,0.16933 L 3.7045466,2.5016518 c -0.078668,0.015168 -0.092426,0.02928 -0.092426,0.1104172 v 1.474582 c 0,0.472713 -0.3926336,0.6515678 -0.6529785,0.6515678 -0.2963275,0 -0.5086956,-0.1777965 -0.5086956,-0.4282638 0,-0.2469395 0.1668607,-0.4162695 0.5252757,-0.4840015 L 3.2540581,3.7723322 C 3.3256707,3.7585742 3.3627116,3.7102447 3.3627116,3.6358099 L 3.3517766,1.8444397 c 0,-0.096306 0.06491,-0.1541608 0.1844983,-0.1777965 z"
     style="fill:#ffffff;fill-opacity:1;fill-rule:evenodd;stroke:none;stroke-width:0.35277" /></svg>
