<?xml version="1.0" encoding="UTF-8" standalone="no"?>
<svg
   width="24"
   height="24"
   viewBox="0 0 6.349875 6.349875"
   version="1.1"
   id="svg35791"
   sodipodi:docname="com.github.artemanufrij.playmymusic.svg"
   inkscape:version="1.2.2 (b0a8486541, 2022-12-01)"
   inkscape:export-filename="../../../../../../../../../Imagens/Big Icons/com.github.artemanufrij.playmymusic.pdf"
   inkscape:export-xdpi="96"
   inkscape:export-ydpi="96"
   xml:space="preserve"
   xmlns:inkscape="http://www.inkscape.org/namespaces/inkscape"
   xmlns:sodipodi="http://sodipodi.sourceforge.net/DTD/sodipodi-0.dtd"
   xmlns:xlink="http://www.w3.org/1999/xlink"
   xmlns="http://www.w3.org/2000/svg"
   xmlns:svg="http://www.w3.org/2000/svg"><defs
     id="defs35795"><linearGradient
       inkscape:collect="always"
       xlink:href="#linearGradient2420"
       id="linearGradient32193"
       gradientUnits="userSpaceOnUse"
       x1="181.18413"
       y1="378.93741"
       x2="170.48215"
       y2="-109.78677"
       gradientTransform="matrix(0.0153283,0,0,0.0153283,0.264578,0.26456)" /><linearGradient
       inkscape:collect="always"
       id="linearGradient2420"><stop
         style="stop-color:#61a3f2;stop-opacity:0.92156863;"
         offset="0"
         id="stop2416" /><stop
         style="stop-color:#a3cdff;stop-opacity:1;"
         offset="1"
         id="stop2418" /></linearGradient><clipPath
       clipPathUnits="userSpaceOnUse"
       id="clipPath42116"><path
         d="m 7.195,0.836 c 0.09,0 0.176,-0.012 0.258,-0.035 1.078,-0.071 2.156,-0.067 3.231,0.008 0.976,0.078 1.921,0.289 2.836,0.636 1.519,0.625 2.558,1.711 3.121,3.254 0.32,0.93 0.507,1.887 0.566,2.867 0.078,1.235 0.051,2.465 -0.086,3.696 -0.105,0.863 -0.328,1.691 -0.672,2.488 -0.637,1.383 -1.672,2.336 -3.101,2.859 C 12.191,17 11,17.207 9.773,17.227 8.398,17.301 7.035,17.195 5.684,16.918 3.203,16.367 1.668,14.852 1.09,12.375 0.844,11.262 0.73,10.133 0.754,8.992 0.727,7.777 0.855,6.582 1.141,5.402 1.75,3.09 3.219,1.656 5.547,1.102 6.09,0.969 6.641,0.879 7.195,0.836 Z"
         clip-rule="evenodd"
         id="path42114" /></clipPath><clipPath
       clipPathUnits="userSpaceOnUse"
       id="clipPath42124"><path
         d="M -17.260753,-17.259579 H 396.99751 V 396.99869 H -17.260753 Z"
         id="path42122" /></clipPath><linearGradient
       x1="181.18413"
       y1="378.93741"
       x2="170.48215"
       y2="-109.78677"
       gradientUnits="userSpaceOnUse"
       spreadMethod="pad"
       id="linearGradient42130"><stop
         style="stop-opacity:0.92156863;stop-color:#ffffff"
         offset="0"
         id="stop42126" /><stop
         style="stop-opacity:1;stop-color:#ffffff"
         offset="1"
         id="stop42128" /></linearGradient><mask
       maskUnits="userSpaceOnUse"
       x="0"
       y="0"
       width="1"
       height="1"
       id="mask42132"><g
         id="g42138"><g
           clip-path="url(#clipPath42124)"
           id="g42136"><path
             d="M -17.260753,-17.259579 H 396.99751 V 396.99869 H -17.260753 Z"
             style="fill:url(#linearGradient42130);stroke:none"
             id="path42134" /></g></g></mask><linearGradient
       x1="181.18413"
       y1="378.93741"
       x2="170.48215"
       y2="-109.78677"
       gradientUnits="userSpaceOnUse"
       spreadMethod="pad"
       id="linearGradient42146"><stop
         style="stop-opacity:1;stop-color:#61a3f2"
         offset="0"
         id="stop42142" /><stop
         style="stop-opacity:1;stop-color:#a3cdff"
         offset="1"
         id="stop42144" /></linearGradient><clipPath
       clipPathUnits="userSpaceOnUse"
       id="clipPath42156"><path
         d="M 0,0 H 49 V 49 H 0 Z"
         id="path42154" /></clipPath><clipPath
       clipPathUnits="userSpaceOnUse"
       id="clipPath42176"><path
         d="M 0,0 H 49 V 49 H 0 Z"
         id="path42174" /></clipPath><clipPath
       clipPathUnits="userSpaceOnUse"
       id="clipPath42156-2"><path
         d="M 0,0 H 49 V 49 H 0 Z"
         id="path42154-8" /></clipPath><clipPath
       clipPathUnits="userSpaceOnUse"
       id="clipPath42176-9"><path
         d="M 0,0 H 49 V 49 H 0 Z"
         id="path42174-7" /></clipPath></defs><sodipodi:namedview
     id="namedview35793"
     pagecolor="#ffffff"
     bordercolor="#000000"
     borderopacity="0.25"
     inkscape:showpageshadow="2"
     inkscape:pageopacity="0.0"
     inkscape:pagecheckerboard="0"
     inkscape:deskcolor="#d1d1d1"
     showgrid="false"
     inkscape:zoom="6.828125"
     inkscape:cx="6.8832952"
     inkscape:cy="11.276888"
     inkscape:window-width="2560"
     inkscape:window-height="998"
     inkscape:window-x="1680"
     inkscape:window-y="0"
     inkscape:window-maximized="1"
     inkscape:current-layer="svg35791" /><path
     d="m 2.538915,0.294619 c 0.03173,3.52e-4 0.06203,-0.0037 0.0909,-0.01209 0.379912,-0.02491 0.759763,-0.0239 1.139552,0.003 0.344412,0.02682 0.677802,0.10155 1.000172,0.224176 0.535954,0.220651 0.902637,0.603322 1.100173,1.148074 0.112924,0.327995 0.179632,0.665279 0.20005,1.011775 0.02819,0.435186 0.01807,0.869345 -0.03037,1.302615 C 6.003172,4.276696 5.924369,4.569497 5.802999,4.850664 5.577934,5.338119 5.213289,5.674392 4.708942,5.859404 4.300228,5.997481 3.879957,6.07023 3.448128,6.077526 2.962359,6.102806 2.481556,6.066456 2.005474,5.968496 1.129309,5.773366 0.588864,5.239145 0.384031,4.366029 0.297151,3.97295 0.257757,3.575135 0.265835,3.172461 0.256135,2.74428 0.301645,2.322215 0.402226,1.906205 0.616945,1.089851 1.135179,0.583955 1.957037,0.388519 2.148518,0.341749 2.342467,0.310439 2.538915,0.294629 Z"
     style="fill:url(#linearGradient32193);fill-opacity:1;fill-rule:evenodd;stroke:none;stroke-width:0.0153283"
     id="path194" /><g
     id="g42523"
     transform="translate(11.505818,-2.3660671)"><g
       id="g42150"
       transform="matrix(0.35277082,0,0,0.35277082,-11.507926,2.3660672)"><g
         id="g42152" /><g
         id="g42164"><g
           clip-path="url(#clipPath42156-2)"
           opacity="0.8"
           id="g42162"><g
             id="g42160"><path
               d="M 4.137,3.75 C 3.805,3.754 3.543,4.027 3.547,4.359 v 9.282 c 0,0.336 0.265,0.609 0.59,0.609 h 8.515 c 0.332,-0.004 0.594,-0.277 0.59,-0.609 V 9.926 C 12.871,9.766 12.637,9.402 12.637,9 c 0,-0.402 0.234,-0.766 0.605,-0.926 V 4.359 C 13.246,4.027 12.984,3.754 12.652,3.75 Z"
               style="fill:#61a3f2;fill-opacity:0.921569;fill-rule:nonzero;stroke:none"
               id="path42158" /></g></g></g></g><path
       d="m -6.405096,5.5367714 c 0,0.8970961 -0.726355,1.6248624 -1.623451,1.6248624 -0.897097,0 -1.623099,-0.7277663 -1.623099,-1.6248624 0,-0.8956852 0.726002,-1.6230986 1.623099,-1.6230986 0.897096,0 1.623451,0.7274134 1.623451,1.6230986 z"
       style="fill:#ffffff;fill-opacity:0.362319;fill-rule:nonzero;stroke:none;stroke-width:0.352771"
       id="path42166" /><path
       d="m -6.836537,4.4343625 v 0.7799763 c -0.130878,0.056443 -0.214837,0.1848519 -0.214837,0.3266658 0,0.1418139 0.08396,0.2702225 0.214837,0.3266658 v 0.7729208 c 0.274456,-0.301619 0.427206,-0.695664 0.427206,-1.1038198 0,-0.4078031 -0.15275,-0.8018481 -0.427206,-1.1024089 z"
       style="fill:#ececec;fill-opacity:1;fill-rule:nonzero;stroke:none;stroke-width:0.352771"
       id="path42168" /><g
       id="g42170"
       transform="matrix(0.35277082,0,0,0.35277082,-11.507928,2.3660672)"><g
         id="g42172" /><g
         id="g42184"><g
           clip-path="url(#clipPath42176-9)"
           opacity="0.6"
           id="g42182"><g
             id="g42180"><path
               d="M 4.137,3.75 C 3.805,3.754 3.543,4.027 3.547,4.355 v 9.286 c 0,0.339 0.265,0.609 0.59,0.609 h 8.515 c 0.332,-0.004 0.594,-0.277 0.59,-0.609 V 9.926 C 12.871,9.766 12.637,9.402 12.637,9 c 0,-0.402 0.234,-0.766 0.605,-0.926 V 4.359 C 13.246,4.027 12.984,3.754 12.652,3.75 Z"
               style="fill:#61a3f2;fill-opacity:0.921569;fill-rule:nonzero;stroke:none"
               id="path42178" /></g></g></g></g><path
       d="m -7.584764,4.6149812 -0.498818,0.143225 V 5.755842 C -8.192588,5.66518 -8.346749,5.611206 -8.510787,5.611206 c -0.315377,0 -0.570431,0.1915546 -0.570431,0.4286165 0,0.235651 0.255054,0.4272055 0.570431,0.4272055 0.314319,0 0.569019,-0.1915545 0.569019,-0.4272055 0.0014,-0.00423 0.0014,-0.00811 0,-0.012347 V 5.0023236 l 0.357004,-0.1019508 z"
       style="fill:#ffffff;fill-opacity:1;fill-rule:nonzero;stroke:none;stroke-width:0.352771"
       id="path42186" /></g></svg>
