<?xml version="1.0" encoding="UTF-8" standalone="no"?>
<svg
   width="24"
   height="24"
   version="1.1"
   id="svg2"
   sodipodi:docname="pomidor.svg"
   inkscape:version="1.3 (0e150ed6c4, 2023-07-21)"
   xmlns:inkscape="http://www.inkscape.org/namespaces/inkscape"
   xmlns:sodipodi="http://sodipodi.sourceforge.net/DTD/sodipodi-0.dtd"
   xmlns="http://www.w3.org/2000/svg"
   xmlns:svg="http://www.w3.org/2000/svg">
  <defs
     id="defs2" />
  <sodipodi:namedview
     id="namedview2"
     pagecolor="#ffffff"
     bordercolor="#000000"
     borderopacity="0.25"
     inkscape:showpageshadow="2"
     inkscape:pageopacity="0.0"
     inkscape:pagecheckerboard="0"
     inkscape:deskcolor="#d1d1d1"
     inkscape:zoom="4.4801844"
     inkscape:cx="-12.722691"
     inkscape:cy="24.887369"
     inkscape:window-width="2560"
     inkscape:window-height="998"
     inkscape:window-x="0"
     inkscape:window-y="0"
     inkscape:window-maximized="1"
     inkscape:current-layer="svg2" />
  <rect
     x="170.25"
     y="5.119"
     width="56.001999"
     height="56.001999"
     rx="13.002"
     ry="13.002"
     fill="#ffffff"
     id="rect1" />
  <path
     d="m 9.5928808,1.1146316 c 0.12,0 0.2346667,-0.016 0.344,-0.046667 1.4373332,-0.0946667 2.8746662,-0.0893333 4.3080002,0.010667 1.301333,0.104 2.561333,0.3853333 3.781333,0.8479999 2.025333,0.8333334 3.410667,2.2813333 4.161333,4.3386666 0.421333,1.24 0.676,2.5159999 0.754667,3.8226669 0.104,1.646666 0.068,3.286666 -0.114667,4.928 -0.14,1.150666 -0.437333,2.254666 -0.896,3.317333 -0.849333,1.844 -2.229333,3.114666 -4.134666,3.812 -1.542667,0.521333 -3.130667,0.797333 -4.766667,0.824 -1.833333,0.09867 -3.6506665,-0.04267 -5.4519998,-0.412 -3.3079999,-0.734667 -5.3546665,-2.754667 -6.1253332,-6.057333 -0.328,-1.484 -0.47999998,-2.989334 -0.448,-4.510667 -0.036,-1.614667 0.1346667,-3.2133333 0.516,-4.7866666 0.812,-3.0826666 2.7706666,-4.9946665 5.8746665,-5.7333332 0.724,-0.1773333 1.4586667,-0.2973333 2.1973333,-0.3546666 z"
     style="fill:#f2f2f2;fill-opacity:1;fill-rule:evenodd;stroke:none;stroke-width:1.33333"
     id="path4714" />
  <path
     d="m 11.77754,5.5 c -0.580761,0 -1.159528,0.432913 -1.9442847,1.299734 1.0223107,-0.506006 2.8539657,-0.524944 3.8998667,0 C 12.941055,5.932913 12.358301,5.5 11.77754,5.5 Z m 0.222603,1.732647 v 6.64e-4 c -1.39542,0 -2.6712327,0.512983 -3.6560007,1.356216 l -0.671131,-0.691065 -0.582089,0.611326 0.66515,0.664818 c -0.862503,0.990084 -1.389772,2.279851 -1.389772,3.692216 0,3.106803 2.527372,5.633178 5.6338427,5.633178 3.074576,0 5.571381,-2.476871 5.623543,-5.539153 a 0.43324474,0.43324474 0 0 0 0.01,-0.09469 0.43324474,0.43324474 0 0 0 -0.01,-0.09602 C 17.570526,9.710845 15.074054,7.232313 12.000143,7.232313 Z m 0,0.867154 A 4.7610408,4.7610408 0 0 1 16.767164,12.86649 4.7590473,4.7590473 0 0 1 12.000143,17.633511 4.7590473,4.7590473 0 0 1 7.2331223,12.86649 4.7607085,4.7607085 0 0 1 12.000143,8.099468 Z m -0.0066,1.585795 a 0.43324474,0.43324474 0 0 0 -0.426932,0.439225 v 2.790841 l 2.46192,2.501789 a 0.4334624,0.4334624 0 1 0 0.617971,-0.608005 l -2.212737,-2.24862 V 10.124489 A 0.43324474,0.43324474 0 0 0 11.993543,9.685264 Z"
     fill="#333333"
     id="path3"
     style="stroke-width:1" />
</svg>
