<?xml version="1.0" encoding="UTF-8" standalone="no"?>
<svg
   width="24"
   height="24"
   version="1.1"
   id="svg2"
   sodipodi:docname="ppsspp.svg"
   inkscape:version="1.3 (0e150ed6c4, 2023-07-21)"
   xmlns:inkscape="http://www.inkscape.org/namespaces/inkscape"
   xmlns:sodipodi="http://sodipodi.sourceforge.net/DTD/sodipodi-0.dtd"
   xmlns="http://www.w3.org/2000/svg"
   xmlns:svg="http://www.w3.org/2000/svg">
  <defs
     id="defs2" />
  <sodipodi:namedview
     id="namedview2"
     pagecolor="#ffffff"
     bordercolor="#000000"
     borderopacity="0.25"
     inkscape:showpageshadow="2"
     inkscape:pageopacity="0.0"
     inkscape:pagecheckerboard="0"
     inkscape:deskcolor="#d1d1d1"
     inkscape:zoom="4.4801844"
     inkscape:cx="-26.114997"
     inkscape:cy="25.780189"
     inkscape:window-width="2560"
     inkscape:window-height="998"
     inkscape:window-x="0"
     inkscape:window-y="0"
     inkscape:window-maximized="1"
     inkscape:current-layer="svg2" />
  <path
     d="m 9.5928808,1.1146316 c 0.12,0 0.2346667,-0.016 0.344,-0.046667 1.4373332,-0.0946667 2.8746662,-0.0893333 4.3080002,0.010667 1.301333,0.104 2.561333,0.3853333 3.781333,0.8479999 2.025333,0.8333334 3.410667,2.2813333 4.161333,4.3386666 0.421333,1.24 0.676,2.5159999 0.754667,3.8226669 0.104,1.646666 0.068,3.286666 -0.114667,4.928 -0.14,1.150666 -0.437333,2.254666 -0.896,3.317333 -0.849333,1.844 -2.229333,3.114666 -4.134666,3.812 -1.542667,0.521333 -3.130667,0.797333 -4.766667,0.824 -1.833333,0.09867 -3.6506665,-0.04267 -5.4519998,-0.412 -3.3079999,-0.734667 -5.3546665,-2.754667 -6.1253332,-6.057333 -0.328,-1.484 -0.47999998,-2.989334 -0.448,-4.510667 -0.036,-1.614667 0.1346667,-3.2133333 0.516,-4.7866666 0.812,-3.0826666 2.7706666,-4.9946665 5.8746665,-5.7333332 0.724,-0.1773333 1.4586667,-0.2973333 2.1973333,-0.3546666 z"
     style="fill:#f2f2f2;fill-opacity:1;fill-rule:evenodd;stroke:none;stroke-width:1.33333"
     id="path4714" />
  <g
     id="g4"
     transform="matrix(0.34210526,0,0,0.34210526,1.7368422,1.0526317)"
     style="stroke-width:2.92308">
    <path
       d="m 32.252,13 -12.629,2.89 2.287,10.085 7.76,4.97 4.869,-7.863 z m 13.869,8.662 -10.035,2.299 -4.947,7.795 7.824,4.892 L 49,34.351 46.12,21.663 Z M 21.035,27.314 11,29.614 13.879,42.3 23.914,40.001 28.861,32.206 Z m 9.135,5.74 -4.87,7.862 2.289,10.084 12.629,-2.893 -2.287,-10.082 -7.76,-4.97 z"
       fill="#2f6693"
       id="path3"
       style="stroke-width:2.92308" />
    <path
       d="m 31.26,14.684 -10.016,2.295 1.752,7.72 6.123,3.81 3.893,-6.102 z m 13.779,8.607 -7.684,1.76 -3.79,6.152 6.074,3.91 7.683,-1.76 -2.283,-10.061 z m -24.678,5.559 -7.686,1.76 2.284,10.062 7.685,-1.76 3.791,-6.152 z m 10.359,6.643 -3.893,6.101 1.752,7.72 10.016,-2.292 -1.752,-7.72 -6.123,-3.81 z"
       fill="#46abd2"
       id="path4"
       style="stroke-width:2.92308" />
  </g>
</svg>
