<?xml version="1.0" encoding="UTF-8" standalone="no"?>
<svg
   width="24"
   height="24"
   version="1.1"
   id="svg5"
   sodipodi:docname="yast-docker.svg"
   inkscape:version="1.3 (0e150ed6c4, 2023-07-21)"
   xmlns:inkscape="http://www.inkscape.org/namespaces/inkscape"
   xmlns:sodipodi="http://sodipodi.sourceforge.net/DTD/sodipodi-0.dtd"
   xmlns="http://www.w3.org/2000/svg"
   xmlns:svg="http://www.w3.org/2000/svg">
  <defs
     id="defs5">
    <radialGradient
       fx="0"
       fy="0"
       cx="0"
       cy="0"
       r="1"
       gradientUnits="userSpaceOnUse"
       gradientTransform="matrix(0,16.5,-16.5,0,8.999651,0.749985)"
       spreadMethod="pad"
       id="radialGradient868-3">
      <stop
         style="stop-opacity:1;stop-color:#fafafa"
         offset="0"
         id="stop864-6" />
      <stop
         style="stop-opacity:1;stop-color:#c0c0c0"
         offset="1"
         id="stop866-7" />
    </radialGradient>
  </defs>
  <sodipodi:namedview
     id="namedview5"
     pagecolor="#ffffff"
     bordercolor="#000000"
     borderopacity="0.25"
     inkscape:showpageshadow="2"
     inkscape:pageopacity="0.0"
     inkscape:pagecheckerboard="0"
     inkscape:deskcolor="#d1d1d1"
     inkscape:zoom="9.6875"
     inkscape:cx="31.948387"
     inkscape:cy="31.948387"
     inkscape:window-width="2560"
     inkscape:window-height="998"
     inkscape:window-x="0"
     inkscape:window-y="0"
     inkscape:window-maximized="1"
     inkscape:current-layer="svg5" />
  <g
     id="g854"
     transform="matrix(1.3333333,0,0,1.3333333,-4.5244194e-4,-3.5228353e-5)">
    <g
       id="g856">
      <g
         id="g862">
        <path
           d="m 7.195,0.836 c 0.09,0 0.176,-0.012 0.258,-0.035 1.078,-0.071 2.156,-0.067 3.231,0.008 0.976,0.078 1.921,0.289 2.836,0.636 1.519,0.625 2.558,1.711 3.121,3.254 0.316,0.93 0.507,1.887 0.566,2.867 0.078,1.235 0.051,2.465 -0.086,3.696 -0.105,0.863 -0.328,1.691 -0.672,2.488 -0.637,1.383 -1.672,2.336 -3.101,2.859 C 12.191,17 11,17.207 9.773,17.227 8.398,17.301 7.035,17.195 5.684,16.918 3.203,16.367 1.668,14.852 1.09,12.375 0.844,11.262 0.73,10.133 0.754,8.992 0.727,7.781 0.855,6.582 1.141,5.402 1.75,3.09 3.219,1.656 5.547,1.102 6.09,0.969 6.641,0.879 7.195,0.836 Z"
           style="fill:url(#radialGradient868-3);fill-rule:evenodd;stroke:none"
           id="path870" />
      </g>
    </g>
  </g>
  <g
     id="g10"
     transform="matrix(0.26923077,0,0,0.26923077,2.4813895,1.68933)">
    <path
       d="m 13.068839,64.296774 h 44.571 v -3.714 h -44.57 z m 0,-52 h 44.571 v 3.714 h -44.57 z"
       fill="#3b83b2"
       id="path6" />
    <path
       d="m 11.211839,12.296774 a 1.857,1.857 0 0 0 -0.186,0.011 1.857,1.857 0 0 0 -0.185,0.026 1.857,1.857 0 0 0 -0.177,0.047 1.857,1.857 0 0 0 -0.174,0.06 1.857,1.857 0 0 0 -0.168,0.084 1.857,1.857 0 0 0 -0.157,0.093 1.857,1.857 0 0 0 -0.149,0.114 1.857,1.857 0 0 0 -0.1360003,0.128 1.857,1.857 0 0 0 -0.122,0.14 1.857,1.857 0 0 0 -0.11,0.15 1.857,1.857 0 0 0 -0.09,0.163 1.857,1.857 0 0 0 -0.075,0.167 1.857,1.857 0 0 0 -0.06,0.176 1.857,1.857 0 0 0 -0.042,0.182 1.857,1.857 0 0 0 -0.022,0.186 1.857,1.857 0 0 0 -0.004,0.13 v 48.286 a 1.857,1.857 0 0 0 0.004,0.13 1.857,1.857 0 0 0 0.022,0.186 1.857,1.857 0 0 0 0.043,0.182 1.857,1.857 0 0 0 0.057,0.176 1.857,1.857 0 0 0 0.076,0.167 1.857,1.857 0 0 0 0.093,0.164 1.857,1.857 0 0 0 0.108,0.148 1.857,1.857 0 0 0 0.122,0.142 1.857,1.857 0 0 0 0.1340003,0.128 1.857,1.857 0 0 0 0.149,0.111 1.857,1.857 0 0 0 0.16,0.095 1.857,1.857 0 0 0 0.167,0.083 1.857,1.857 0 0 0 0.174,0.062 1.857,1.857 0 0 0 0.178,0.046 1.857,1.857 0 0 0 0.186,0.026 1.857,1.857 0 0 0 0.184,0.011 h 1.857 a 1.857,1.857 0 0 0 0.186,-0.01 1.857,1.857 0 0 0 0.186,-0.027 1.857,1.857 0 0 0 0.176,-0.046 1.857,1.857 0 0 0 0.175,-0.062 1.857,1.857 0 0 0 0.167,-0.083 1.857,1.857 0 0 0 0.158,-0.093 1.857,1.857 0 0 0 0.148,-0.113 1.857,1.857 0 0 0 0.136,-0.128 1.857,1.857 0 0 0 0.122,-0.142 1.857,1.857 0 0 0 0.11,-0.148 1.857,1.857 0 0 0 0.09,-0.164 1.857,1.857 0 0 0 0.075,-0.167 1.857,1.857 0 0 0 0.06,-0.176 1.857,1.857 0 0 0 0.042,-0.182 1.857,1.857 0 0 0 0.023,-0.186 1.857,1.857 0 0 0 0.003,-0.13 v -1.857 h 40.857 v 1.857 a 1.857,1.857 0 0 0 0.004,0.13 1.857,1.857 0 0 0 0.022,0.186 1.857,1.857 0 0 0 0.043,0.182 1.857,1.857 0 0 0 0.058,0.176 1.857,1.857 0 0 0 0.076,0.167 1.857,1.857 0 0 0 0.093,0.164 1.857,1.857 0 0 0 0.107,0.148 1.857,1.857 0 0 0 0.123,0.142 1.857,1.857 0 0 0 0.134,0.128 1.857,1.857 0 0 0 0.148,0.111 1.857,1.857 0 0 0 0.16,0.095 1.857,1.857 0 0 0 0.167,0.083 1.857,1.857 0 0 0 0.175,0.062 1.857,1.857 0 0 0 0.178,0.046 1.857,1.857 0 0 0 0.186,0.026 1.857,1.857 0 0 0 0.184,0.011 h 1.857 a 1.857,1.857 0 0 0 0.185,-0.01 1.857,1.857 0 0 0 0.186,-0.027 1.857,1.857 0 0 0 0.177,-0.046 1.857,1.857 0 0 0 0.174,-0.062 1.857,1.857 0 0 0 0.167,-0.083 1.857,1.857 0 0 0 0.158,-0.093 1.857,1.857 0 0 0 0.149,-0.113 1.857,1.857 0 0 0 0.135,-0.128 1.857,1.857 0 0 0 0.123,-0.142 1.857,1.857 0 0 0 0.11,-0.148 1.857,1.857 0 0 0 0.09,-0.164 1.857,1.857 0 0 0 0.075,-0.167 1.857,1.857 0 0 0 0.06,-0.176 1.857,1.857 0 0 0 0.042,-0.182 1.857,1.857 0 0 0 0.022,-0.186 1.857,1.857 0 0 0 0.004,-0.13 v -48.286 a 1.857,1.857 0 0 0 -0.004,-0.13 1.857,1.857 0 0 0 -0.022,-0.186 1.857,1.857 0 0 0 -0.043,-0.182 1.857,1.857 0 0 0 -0.057,-0.176 1.857,1.857 0 0 0 -0.077,-0.167 1.857,1.857 0 0 0 -0.092,-0.163 1.857,1.857 0 0 0 -0.108,-0.15 1.857,1.857 0 0 0 -0.123,-0.14 1.857,1.857 0 0 0 -0.133,-0.128 1.857,1.857 0 0 0 -0.149,-0.112 1.857,1.857 0 0 0 -0.16,-0.094 1.857,1.857 0 0 0 -0.167,-0.084 1.857,1.857 0 0 0 -0.174,-0.061 1.857,1.857 0 0 0 -0.179,-0.047 1.857,1.857 0 0 0 -0.185,-0.026 1.857,1.857 0 0 0 -0.184,-0.011 h -1.857 a 1.857,1.857 0 0 0 -0.186,0.011 1.857,1.857 0 0 0 -0.186,0.026 1.857,1.857 0 0 0 -0.176,0.047 1.857,1.857 0 0 0 -0.175,0.06 1.857,1.857 0 0 0 -0.167,0.085 1.857,1.857 0 0 0 -0.158,0.092 1.857,1.857 0 0 0 -0.148,0.114 1.857,1.857 0 0 0 -0.136,0.128 1.857,1.857 0 0 0 -0.123,0.14 1.857,1.857 0 0 0 -0.11,0.15 1.857,1.857 0 0 0 -0.09,0.163 1.857,1.857 0 0 0 -0.074,0.167 1.857,1.857 0 0 0 -0.06,0.176 1.857,1.857 0 0 0 -0.043,0.182 1.857,1.857 0 0 0 -0.022,0.186 1.857,1.857 0 0 0 -0.004,0.13 v 1.857 h -40.857 v -1.857 a 1.857,1.857 0 0 0 -0.003,-0.13 1.857,1.857 0 0 0 -0.023,-0.186 1.857,1.857 0 0 0 -0.042,-0.182 1.857,1.857 0 0 0 -0.058,-0.176 1.857,1.857 0 0 0 -0.076,-0.167 1.857,1.857 0 0 0 -0.093,-0.163 1.857,1.857 0 0 0 -0.108,-0.15 1.857,1.857 0 0 0 -0.122,-0.14 1.857,1.857 0 0 0 -0.134,-0.128 1.857,1.857 0 0 0 -0.149,-0.112 1.857,1.857 0 0 0 -0.16,-0.094 1.857,1.857 0 0 0 -0.167,-0.084 1.857,1.857 0 0 0 -0.174,-0.061 1.857,1.857 0 0 0 -0.178,-0.047 1.857,1.857 0 0 0 -0.186,-0.026 1.857,1.857 0 0 0 -0.184,-0.011 z"
       fill="#7bbbeb"
       id="path7" />
    <path
       d="m 13.200839,17.296774 c -1.02,0 -1.846,0.783 -1.846,1.75 v 38.5 c 0,0.967 0.827,1.75 1.846,1.75 h 44.308 c 1.02,0 1.846,-0.783 1.846,-1.75 v -38.5 c 0,-0.967 -0.826,-1.75 -1.846,-1.75 z m 1.154,3 h 19 v 36 h -19 z m 23,0 h 19 v 36 h -19 z"
       fill="#323940"
       opacity="0.8"
       id="path8" />
    <g
       fill="#39719b"
       id="g9"
       transform="translate(3.3548387,6.2967742)">
      <path
         d="m 36,38 h 15 v 4 H 36 Z m -23,0 h 15 v 4 H 13 Z m 0,-16 h 15 v 4 H 13 Z m 23,0 h 15 v 4 H 36 Z m 0,8 h 15 v 4 H 36 Z m -23,0 h 15 v 4 H 13 Z"
         id="path9" />
    </g>
    <path
       d="m 22.354839,17.296774 a 1,0.875 0 0 0 -1,0.875 v 40.25 a 1,0.875 0 0 0 2,0 v -40.25 a 1,0.875 0 0 0 -1,-0.875 z m 6,0 a 1,0.875 0 0 0 -1,0.875 v 40.25 a 1,0.875 0 0 0 2,0 v -40.25 a 1,0.875 0 0 0 -1,-0.875 z m 14,0 a 1,0.875 0 0 0 -1,0.875 v 40.25 a 1,0.875 0 0 0 2,0 v -40.25 a 1,0.875 0 0 0 -1,-0.875 z m 6,0 a 1,0.875 0 0 0 -1,0.875 v 40.25 a 1,0.875 0 0 0 2,0 v -40.25 a 1,0.875 0 0 0 -1,-0.875 z"
       fill="#ffffff"
       id="path10" />
  </g>
</svg>
