<?xml version="1.0" encoding="UTF-8" standalone="no"?>
<svg
   width="24"
   height="24"
   version="1.1"
   id="svg19"
   sodipodi:docname="preferences-system-backup.svg"
   inkscape:version="1.3 (0e150ed6c4, 2023-07-21)"
   xmlns:inkscape="http://www.inkscape.org/namespaces/inkscape"
   xmlns:sodipodi="http://sodipodi.sourceforge.net/DTD/sodipodi-0.dtd"
   xmlns:xlink="http://www.w3.org/1999/xlink"
   xmlns="http://www.w3.org/2000/svg"
   xmlns:svg="http://www.w3.org/2000/svg">
  <defs
     id="defs19">
    <radialGradient
       fx="0"
       fy="0"
       cx="0"
       cy="0"
       r="1"
       gradientUnits="userSpaceOnUse"
       gradientTransform="matrix(0,22.000002,-22.000002,0,11.999545,0.9999636)"
       spreadMethod="pad"
       id="radialGradient12763-3">
      <stop
         style="stop-color:#d9d9d9;stop-opacity:1;"
         offset="0"
         id="stop12759-6" />
      <stop
         style="stop-color:#cacbcf;stop-opacity:1;"
         offset="1"
         id="stop12761-7" />
    </radialGradient>
  </defs>
  <sodipodi:namedview
     id="namedview19"
     pagecolor="#ffffff"
     bordercolor="#000000"
     borderopacity="0.25"
     inkscape:showpageshadow="2"
     inkscape:pageopacity="0.0"
     inkscape:pagecheckerboard="0"
     inkscape:deskcolor="#d1d1d1"
     inkscape:zoom="4.84375"
     inkscape:cx="-62.245161"
     inkscape:cy="44.490323"
     inkscape:window-width="2560"
     inkscape:window-height="998"
     inkscape:window-x="0"
     inkscape:window-y="0"
     inkscape:window-maximized="1"
     inkscape:current-layer="svg19" />
  <linearGradient
     id="a">
    <stop
       stop-color="#292c2f"
       offset="0"
       id="stop1" />
    <stop
       stop-opacity="0"
       offset="1"
       id="stop2" />
  </linearGradient>
  <linearGradient
     id="b"
     x1="388.42001"
     x2="388.42001"
     y1="557.79999"
     y2="505.79999"
     gradientTransform="matrix(0.58696,0,0,0.53846,-271.92,-233.34)"
     gradientUnits="userSpaceOnUse">
    <stop
       stop-color="#7f8c8d"
       offset="0"
       id="stop3" />
    <stop
       stop-color="#afb0b3"
       offset="1"
       id="stop4" />
  </linearGradient>
  <path
     d="m 9.5928808,1.1146316 c 0.12,0 0.2346667,-0.016 0.344,-0.046667 1.4373332,-0.0946666 2.8746662,-0.0893333 4.3080002,0.010667 1.301333,0.104 2.561333,0.3853333 3.781333,0.848 2.025333,0.8333333 3.410667,2.2813333 4.161333,4.3386665 0.421334,1.24 0.676,2.516 0.754667,3.8226669 0.104,1.646666 0.068,3.286666 -0.114667,4.928 -0.14,1.150666 -0.437333,2.254666 -0.896,3.317333 -0.849333,1.844 -2.229333,3.114666 -4.134666,3.812 -1.542667,0.521333 -3.130667,0.797333 -4.766667,0.824 -1.833333,0.09867 -3.6506665,-0.04267 -5.4519998,-0.412 -3.3079999,-0.734667 -5.3546665,-2.754667 -6.1253332,-6.057333 -0.328,-1.484 -0.47999995,-2.989334 -0.4479999,-4.510667 -0.036,-1.62 0.1346666,-3.2133333 0.5159999,-4.7866666 C 2.332881,4.1199649 4.2915476,2.2079649 7.3955476,1.4692983 8.1195475,1.2919649 8.8542142,1.1719649 9.5928808,1.1146316 Z"
     style="fill:url(#radialGradient12763-3);fill-rule:evenodd;stroke:none;stroke-width:1.33333"
     id="path12765-6" />
  <path
     id="path29009"
     style="fill:#949496;fill-opacity:1;stroke-width:0.465671"
     d="m 1.2011719,15.109375 c 0.067716,0.465407 0.1499632,0.929183 0.2519531,1.390625 0.7706659,3.302663 2.8170034,5.321974 6.125,6.056641 1.2474244,0.255761 2.502855,0.400493 3.765625,0.433593 V 19.953125 C 7.6429283,19.754209 5.3581245,18.051291 4.2265625,15.109375 Z" />
  <g
     id="g22"
     transform="matrix(0.99102459,0,0,0.99102459,0.10063,-6.6875184)"
     style="stroke-width:1.00906">
    <g
       fill-rule="evenodd"
       id="g21"
       transform="matrix(0.4396816,0,0,0.4396816,-2.0440051,6.973758)"
       style="stroke-width:2.29497">
      <path
         d="M 48,27.122 C 48,35.837 40.837,43 32,43 23.163,43 16,35.837 16,27.122 16,18.164 23.163,11 32,11 c 8.837,0 16,7.164 16,16.122"
         fill="#ffffff"
         id="path20"
         style="stroke-width:2.29497" />
      <use
         transform="translate(27,22)"
         width="100%"
         height="100%"
         fill="#1a1a1a"
         xlink:href="#a"
         id="use20"
         style="stroke-width:2.29497" />
      <use
         transform="translate(27.003,22.007)"
         width="100%"
         height="100%"
         fill="#ffffff"
         opacity="0.1"
         xlink:href="#b"
         id="use21"
         style="stroke-width:2.29497" />
    </g>
    <path
       d="m 12.025806,11.370574 c -4.1277305,0 -7.4745869,3.345977 -7.4745869,7.474588 0,4.12773 3.3468564,7.474587 7.4745869,7.474587 4.127731,0 7.474587,-3.346857 7.474587,-7.474587 0,-4.128611 -3.346856,-7.474588 -7.474587,-7.474588 z m 4.580163,12.05519 a 6.4694751,6.4694751 0 0 1 -2.059029,1.388955 6.4395767,6.4395767 0 0 1 -2.521134,0.507832 c -0.874966,0 -1.723552,-0.170597 -2.521134,-0.507832 A 6.4694751,6.4694751 0 0 1 7.4456431,23.425325 6.4501291,6.4501291 0 0 1 5.5475376,18.845162 6.4527672,6.4527672 0 0 1 7.4452034,14.264998 6.4448529,6.4448529 0 0 1 9.504672,12.875605 6.4334212,6.4334212 0 0 1 12.025806,12.367772 c 0.874967,0 1.723552,0.171476 2.521134,0.508712 a 6.4435338,6.4435338 0 0 1 2.059029,1.388514 6.4527672,6.4527672 0 0 1 1.898106,4.580164 6.4514481,6.4514481 0 0 1 -1.897666,4.580602 z"
       fill="#808080"
       id="path21"
       style="stroke-width:1.00906" />
    <path
       d="m 12.025806,13.568982 c -2.9230029,0 -5.2761789,2.353176 -5.2761789,5.27618 0,2.923003 2.353176,5.276179 5.2761789,5.276179 2.923003,0 5.276179,-2.353176 5.276179,-5.276179 0,-2.923004 -2.353176,-5.27618 -5.276179,-5.27618 m 0,0.659523 c 2.557628,0 4.616657,2.059029 4.616657,4.616657 0,2.557627 -2.059029,4.616656 -4.616657,4.616656 -2.5576275,0 -4.6166565,-2.059029 -4.6166565,-4.616656 0,-2.557628 2.059029,-4.616657 4.6166565,-4.616657 m -0.659522,0.659522 v 4.616657 h 3.957134 v -0.659522 h -3.297612 v -3.957135 z"
       fill="#f6b44d"
       id="path22"
       style="stroke-width:1.00906" />
  </g>
  <path
     d="m 8.6412934,20.971092 2.3708216,-5.3717 c 0.0349,-0.07274 0.04498,-0.156778 0.02285,-0.239589 -0.04964,-0.185282 -0.243765,-0.294879 -0.433471,-0.244012 a 0.3565571,0.3565571 0 0 0 -0.200763,0.13933 L 6.8221416,19.946144 A 1.036006,1.036006 0 0 0 6.620887,20.870096 c 0.1496503,0.557811 0.7320353,0.885864 1.3011509,0.733265 a 1.0718829,1.0718829 0 0 0 0.7192575,-0.632269 z"
     fill="#ffffff"
     id="path29011"
     style="stroke-width:0.245732" />
  <rect
     transform="scale(-1,1)"
     x="-14.784595"
     y="20.074169"
     width="0.24573196"
     height="1.7201238"
     rx="0.12286598"
     fill-rule="evenodd"
     opacity="0.15"
     id="rect29013"
     style="stroke-width:0.245732" />
  <rect
     transform="scale(-1,1)"
     x="-14.29313"
     y="20.074169"
     width="0.24573196"
     height="1.7201238"
     rx="0.12286598"
     fill-rule="evenodd"
     opacity="0.15"
     id="rect29015"
     style="stroke-width:0.245732" />
  <rect
     transform="scale(-1,1)"
     x="-13.801664"
     y="20.074169"
     width="0.24573196"
     height="1.7201238"
     rx="0.12286598"
     fill-rule="evenodd"
     opacity="0.15"
     id="rect29017"
     style="stroke-width:0.245732" />
  <rect
     transform="scale(-1,1)"
     x="-13.3102"
     y="20.074169"
     width="0.24573196"
     height="1.7201238"
     rx="0.12286598"
     fill-rule="evenodd"
     opacity="0.15"
     id="rect29019"
     style="stroke-width:0.245732" />
  <rect
     transform="scale(-1,1)"
     x="-12.818735"
     y="20.074169"
     width="0.24573196"
     height="1.7201238"
     rx="0.12286598"
     fill-rule="evenodd"
     opacity="0.15"
     id="rect29021"
     style="stroke-width:0.245732" />
  <path
     d="m 16.504716,20.934232 a 0.368598,0.368598 0 1 0 -0.737196,0 0.368598,0.368598 0 0 0 0.737196,0 z M 8.1498291,20.565634 a 0.49146403,0.49146403 0 1 1 -0.982928,0 0.49146403,0.49146403 0 0 1 0.982928,0 z"
     opacity="0.15"
     id="path29023"
     style="stroke-width:0.245732" />
  <path
     d="m 7.9040969,20.565634 a 0.24573197,0.24573197 0 1 0 -0.4914636,0 0.24573197,0.24573197 0 0 0 0.4914636,0 z"
     opacity="0.35"
     id="path29025"
     style="stroke-width:0.245732" />
</svg>
