<?xml version="1.0" encoding="UTF-8" standalone="no"?>
<svg
   width="24"
   height="24"
   viewBox="0 0 24 24"
   fill="none"
   version="1.1"
   id="svg154"
   sodipodi:docname="preferences-web-browser-identification.svg"
   inkscape:version="1.2.2 (b0a8486541, 2022-12-01)"
   xmlns:inkscape="http://www.inkscape.org/namespaces/inkscape"
   xmlns:sodipodi="http://sodipodi.sourceforge.net/DTD/sodipodi-0.dtd"
   xmlns:xlink="http://www.w3.org/1999/xlink"
   xmlns="http://www.w3.org/2000/svg"
   xmlns:svg="http://www.w3.org/2000/svg"
   xmlns:sketch="http://www.bohemiancoding.com/sketch/ns">
  <sodipodi:namedview
     id="namedview156"
     pagecolor="#ffffff"
     bordercolor="#000000"
     borderopacity="1"
     inkscape:showpageshadow="0"
     inkscape:pageopacity="1"
     inkscape:pagecheckerboard="false"
     inkscape:deskcolor="#ffffff"
     showgrid="true"
     inkscape:zoom="22.627417"
     inkscape:cx="11.711456"
     inkscape:cy="19.290757"
     inkscape:window-width="1920"
     inkscape:window-height="1052"
     inkscape:window-x="0"
     inkscape:window-y="0"
     inkscape:window-maximized="1"
     inkscape:current-layer="svg154"
     showguides="true"
     guidecolor="#ff0000"
     guideopacity="1"
     inkscape:lockguides="true"
     showborder="true"
     borderlayer="true">
    <inkscape:grid
       type="xygrid"
       id="grid356"
       color="#000000"
       opacity="0.10196078"
       empcolor="#000000"
       empopacity="0.10196078"
       snapvisiblegridlinesonly="true"
       enabled="true"
       visible="true"
       dotted="false" />
    <sodipodi:guide
       position="4,12"
       orientation="-1,0"
       id="guide764"
       inkscape:locked="true"
       inkscape:label="left-circle"
       inkscape:color="rgb(255,0,0)" />
    <sodipodi:guide
       position="5,12"
       orientation="-1,0"
       id="guide2218"
       inkscape:locked="true"
       inkscape:label="left-square"
       inkscape:color="rgb(255,0,0)" />
    <sodipodi:guide
       position="12,20"
       orientation="0,1"
       id="guide2220"
       inkscape:locked="true"
       inkscape:label="top-circle"
       inkscape:color="rgb(255,0,0)" />
    <sodipodi:guide
       position="12,5"
       orientation="0,1"
       id="guide2222"
       inkscape:locked="true"
       inkscape:label="bottom-square"
       inkscape:color="rgb(255,0,0)" />
    <sodipodi:guide
       position="12,4"
       orientation="0,1"
       id="guide2224"
       inkscape:locked="true"
       inkscape:label="bottom-circle"
       inkscape:color="rgb(255,0,0)" />
    <sodipodi:guide
       position="19,12"
       orientation="-1,0"
       id="guide2226"
       inkscape:locked="true"
       inkscape:label="right-square"
       inkscape:color="rgb(255,0,0)" />
    <sodipodi:guide
       position="20,12"
       orientation="-1,0"
       id="guide2228"
       inkscape:locked="true"
       inkscape:label="right-circle"
       inkscape:color="rgb(255,0,0)" />
    <sodipodi:guide
       position="12,19"
       orientation="0,1"
       id="guide2230"
       inkscape:locked="true"
       inkscape:label="top-square"
       inkscape:color="rgb(255,0,0)" />
    <sodipodi:guide
       position="12,12"
       orientation="1,0"
       id="guide765"
       inkscape:locked="true" />
    <sodipodi:guide
       position="12,12"
       orientation="0,-1"
       id="guide767"
       inkscape:locked="true" />
    <sodipodi:guide
       position="12,12"
       orientation="0.70710678,0.70710678"
       id="guide2266"
       inkscape:locked="true"
       inkscape:label=""
       inkscape:color="rgb(255,0,0)" />
    <sodipodi:guide
       position="12,12"
       orientation="-0.70710678,0.70710678"
       id="guide2994"
       inkscape:locked="true"
       inkscape:label=""
       inkscape:color="rgb(255,0,0)" />
    <sodipodi:guide
       position="3,12"
       orientation="-1,0"
       id="guide131543"
       inkscape:locked="true"
       inkscape:label="left-horizontal"
       inkscape:color="rgb(255,0,0)" />
    <sodipodi:guide
       position="12,21"
       orientation="0,1"
       id="guide131545"
       inkscape:locked="true"
       inkscape:label="top-vertical"
       inkscape:color="rgb(255,0,0)" />
    <sodipodi:guide
       position="21,12"
       orientation="-1,0"
       id="guide131547"
       inkscape:locked="true"
       inkscape:label="right-horizontal"
       inkscape:color="rgb(255,0,0)" />
    <sodipodi:guide
       position="12,3"
       orientation="0,1"
       id="guide131549"
       inkscape:locked="true"
       inkscape:label="bottom-vertical"
       inkscape:color="rgb(255,0,0)" />
  </sodipodi:namedview>
  <defs
     id="defs152">
    <radialGradient
       id="radialGradient66380"
       cx="0"
       cy="0"
       r="1"
       gradientUnits="userSpaceOnUse"
       gradientTransform="translate(12 1) rotate(90) scale(22)">
      <stop
         stop-color="#8FC8FF"
         id="stop66376"
         offset="0"
         style="stop-color:#68a8f5;stop-opacity:1;" />
      <stop
         offset="1"
         stop-color="#0056A8"
         id="stop66378"
         style="stop-color:#cccccc;stop-opacity:1;" />
    </radialGradient>
    <radialGradient
       id="paint0_radial_29_23"
       cx="0"
       cy="0"
       r="1"
       gradientUnits="userSpaceOnUse"
       gradientTransform="translate(12 1) rotate(90) scale(22)">
      <stop
         stop-color="#8FC8FF"
         id="stop147"
         offset="0"
         style="stop-color:#f6f6f6;stop-opacity:1;" />
      <stop
         offset="1"
         stop-color="#0056A8"
         id="stop149"
         style="stop-color:#cfcfcf;stop-opacity:1;" />
    </radialGradient>
    <radialGradient
       id="paint0_radial_10_2"
       cx="0"
       cy="0"
       r="1"
       gradientUnits="userSpaceOnUse"
       gradientTransform="matrix(-10.999959,21.999967,-21.999967,-10.999959,17.5,1)"
       xlink:href="#paint0_radial_29_23">
      <stop
         stop-color="#777777"
         id="stop2847" />
      <stop
         offset="1"
         stop-color="#222222"
         id="stop2849" />
    </radialGradient>
    <radialGradient
       fx="0"
       fy="0"
       cx="0"
       cy="0"
       r="1"
       gradientUnits="userSpaceOnUse"
       gradientTransform="matrix(0,16.5,-16.5,0,8.999996,0.750012)"
       spreadMethod="pad"
       id="radialGradient3666-6">
      <stop
         style="stop-color:#ffffff;stop-opacity:1;"
         offset="0"
         id="stop3662-7" />
      <stop
         style="stop-color:#6a7cf1;stop-opacity:1;"
         offset="1"
         id="stop3664-5" />
    </radialGradient>
    <linearGradient
       id="a"
       x2="0"
       y1="1"
       y2="47"
       gradientTransform="matrix(1.1739,0,0,1.1739,3.826,3.826)"
       gradientUnits="userSpaceOnUse">
      <stop
         stop-color="#9584f4"
         offset="0"
         id="stop76422" />
      <stop
         stop-color="#8471f2"
         offset="1"
         id="stop76424" />
    </linearGradient>
    <linearGradient
       id="a-5"
       x1="7.9000001"
       x2="56.169998"
       y1="19.867001"
       y2="19.867001"
       gradientUnits="userSpaceOnUse">
      <stop
         stop-color="#fff"
         stop-opacity=".454"
         offset="0"
         id="stop101157" />
      <stop
         stop-color="#fff"
         stop-opacity=".276"
         offset="1"
         id="stop101159" />
    </linearGradient>
    <clipPath
       id="a-3">
      <circle
         cx="8.467"
         cy="288.53"
         r="6.8790002"
         fill="#d86eb0"
         stroke-opacity="0.039"
         stroke-width="0.491"
         style="paint-order:stroke markers fill"
         id="circle105957" />
    </clipPath>
    <filter
       id="a-6"
       x="-0.10481395"
       y="-0.11112434"
       width="1.2096279"
       height="1.2222487"
       color-interpolation-filters="sRGB">
      <feGaussianBlur
         stdDeviation=".392"
         id="feGaussianBlur146622" />
    </filter>
    <filter
       id="b"
       x="-0.069428573"
       y="-0.24300001"
       width="1.1388571"
       height="1.486"
       color-interpolation-filters="sRGB">
      <feGaussianBlur
         stdDeviation="1.215"
         id="feGaussianBlur163335" />
    </filter>
    <linearGradient
       id="c"
       x2="0"
       y1="28"
       y2="20"
       gradientTransform="matrix(3.4116249,0,0,3.4116249,-49.878996,-49.878996)"
       gradientUnits="userSpaceOnUse">
      <stop
         stop-color="#5c431c"
         offset="0"
         id="stop163330"
         style="stop-color:#010100;stop-opacity:1;" />
      <stop
         stop-color="#6b4e21"
         offset="1"
         id="stop163332" />
    </linearGradient>
    <linearGradient
       id="a-9"
       x1="40"
       x2="40"
       y1="59"
       y2="15"
       gradientUnits="userSpaceOnUse">
      <stop
         offset="0"
         id="stop224784" />
      <stop
         stop-opacity="0"
         offset="1"
         id="stop224786" />
    </linearGradient>
    <linearGradient
       id="a-1"
       x1="40"
       x2="40"
       y1="59"
       y2="15"
       gradientUnits="userSpaceOnUse">
      <stop
         offset="0"
         id="stop229738" />
      <stop
         stop-opacity="0"
         offset="1"
         id="stop229740" />
    </linearGradient>
    <linearGradient
       id="a-2"
       x1="40"
       x2="40"
       y1="59"
       y2="15"
       gradientUnits="userSpaceOnUse">
      <stop
         offset="0"
         id="stop254799" />
      <stop
         stop-opacity="0"
         offset="1"
         id="stop254801" />
    </linearGradient>
    <linearGradient
       id="a-7"
       x1="40"
       x2="40"
       y1="59"
       y2="15"
       gradientUnits="userSpaceOnUse">
      <stop
         offset="0"
         id="stop258055" />
      <stop
         stop-opacity="0"
         offset="1"
         id="stop258057" />
    </linearGradient>
  </defs>
  <path
     d="M 50,5 C 9.0909092,5 5,25.454546 5,50 5,82.727274 17.272728,95 50,95 82.727274,95 95,82.727274 95,50 95,25.454546 90.909093,5 50,5 Z"
     sketch:type="MSShapeGroup"
     id="path6"
     style="font-variation-settings:normal;display:inline;opacity:1;vector-effect:none;fill:#4d4d4d;fill-opacity:1;stroke-width:4.56656;stroke-linecap:butt;stroke-linejoin:miter;stroke-miterlimit:4;stroke-dasharray:none;stroke-dashoffset:0;stroke-opacity:1;-inkscape-stroke:none;stop-color:#000000;stop-opacity:1"
     sodipodi:nodetypes="sssss"
     inkscape:label="Shape"
     transform="matrix(0.24444444,0,0,0.24444444,-0.22222222,-0.22222222)" />
  <g
     id="g255302"
     transform="matrix(0.33391495,0,0,0.33391495,1.3147118,1.3147215)">
    <path
       d="M 31.953,5 A 27,27 0 0 0 6.768,22.357 h 0.114 l 5.785,-1.929 3.858,3.857 V 20.428 L 20.382,18.5 v -1.93 l 3.857,-1.928 3.857,-3.857 v 1.928 l 1.928,-1.928 -1.928,-1.93 h 3.857 v 1.93 L 35.81,8.855 33.881,6.927 V 5.096 A 27,27 0 0 0 31.953,5 Z m 20.009,8.92 -0.723,0.723 v 1.928 h 2.833 a 27,27 0 0 0 -2.11,-2.651 z m 2.538,3.247 -7.118,7.119 -1.929,5.785 V 32 l 3.857,3.857 3.857,1.929 5.383,-1.327 A 27,27 0 0 0 58.953,31.999 27,27 0 0 0 54.5,17.168 Z M 8.81,26.214 6.881,28.143 H 5.265 A 27.18,27.18 0 0 0 5.047,30.116 V 30.12 L 8.81,32 l 1.929,1.929 3.857,1.928 1.928,1.929 -1.928,1.928 v 3.858 l 1.928,3.857 3.857,3.857 v 5.07 A 27,27 0 0 0 31.952,59 c 0.328,-0.006 0.656,-0.017 0.984,-0.035 l 0.945,-1.894 v -1.928 l 3.857,-1.929 1.929,-1.929 V 47.428 L 41.595,45.5 V 43.57 L 39.667,41.642 33.881,39.713 30.024,35.856 H 28.095 L 26.167,33.927 20.38,32 16.523,33.928 h -3.857 v -3.857 h -1.929 v -3.857 z"
       fill="#ffffff"
       opacity="0.5"
       id="path254808" />
  </g>
  <path
     d="M 6.7591605,6.7591605 V 10.502617 H 10.502617 V 6.7591605 Z m 5.2408395,0 v 0.7486914 h 0.748691 V 6.7591605 Z m 1.497383,0 v 3.7434565 h 3.743456 V 6.7591605 Z M 7.5078519,7.5078519 h 2.246074 v 2.246074 h -2.246074 z m 6.7382221,0 h 2.246074 v 2.246074 H 14.246074 Z M 8.2565432,8.2565432 V 9.0052346 H 9.0052346 V 8.2565432 Z m 2.9947658,0 V 9.7539259 H 12 V 9.0052346 h 0.748691 V 8.2565432 H 12 Z M 12,9.7539259 v 0.7486911 h -0.748691 v 0.748692 H 10.502617 V 12 h 0.748692 v 0.748691 h 1.497382 V 12 H 12 v -0.748691 h 0.748691 V 9.7539259 Z m 0.748691,1.4973831 V 12 h 0.748692 v 0.748691 h 0.748691 V 12 h 0.748691 v -0.748691 h -1.497382 z m 2.246074,-2.9947658 v 0.7486914 h 0.748692 V 8.2565432 Z M 7.5078519,11.251309 V 12 H 8.2565432 V 11.251309 Z M 8.2565432,12 v 0.748691 H 9.7539259 V 11.251309 H 9.0052346 V 12 Z M 7.5078519,12 H 6.7591605 v 0.748691 H 7.5078519 Z M 15.743457,11.251309 V 12 h 0.748691 v -0.748691 z m 0,1.497382 v 0.748692 h 0.748691 v -0.748692 z m 0.748691,0.748692 v 0.748691 h 0.748691 v -0.748691 z m -9.7329875,0 v 3.743456 h 3.7434565 v -3.743456 z m 5.9895305,0 v 0.748691 h 0.748692 v -0.748691 z m 0,0.748691 H 12 v 0.748691 h -0.748691 v 0.748692 H 12 v 0.748691 h 0.748691 v -1.497383 z m 1.497383,-0.748691 v 0.748691 h 0.748691 v -0.748691 z m 0.748691,0.748691 v 0.748691 h 0.748692 v -0.748691 z m 0.748692,0.748691 v 0.748692 h 0.748691 v -0.748692 z m 0,0.748692 h -0.748692 v 1.497382 h 0.748692 v -0.748691 z m -0.748692,0 v -0.748692 h -1.497382 v 1.497383 h 0.748691 V 15.743457 Z M 7.5078519,14.246074 h 2.246074 v 2.246074 h -2.246074 z m 0.7486913,0.748691 v 0.748692 h 0.7486914 v -0.748692 z m 8.2356048,1.497383 v 0.748691 h 0.748691 v -0.748691 z"
     fill="#ffdb4f"
     id="path263488"
     style="stroke-width:0.374346" />
</svg>
