<?xml version="1.0" encoding="UTF-8" standalone="no"?>
<svg
   width="24"
   height="24"
   version="1.1"
   id="svg49831"
   sodipodi:docname="yast-iscsi-client.svg"
   xml:space="preserve"
   inkscape:version="1.2.2 (b0a8486541, 2022-12-01)"
   xmlns:inkscape="http://www.inkscape.org/namespaces/inkscape"
   xmlns:sodipodi="http://sodipodi.sourceforge.net/DTD/sodipodi-0.dtd"
   xmlns:xlink="http://www.w3.org/1999/xlink"
   xmlns="http://www.w3.org/2000/svg"
   xmlns:svg="http://www.w3.org/2000/svg"><defs
     id="defs49835"><linearGradient
       id="a-6"><stop
         offset="0"
         id="stop26479" /><stop
         stop-opacity="0"
         offset="1"
         id="stop26481" /></linearGradient><radialGradient
       fx="0"
       fy="0"
       cx="0"
       cy="0"
       r="1"
       gradientUnits="userSpaceOnUse"
       gradientTransform="matrix(0,22.000002,-22.000002,0,11.999545,0.9999636)"
       spreadMethod="pad"
       id="radialGradient12763-3"><stop
         style="stop-color:#d9d9d9;stop-opacity:1;"
         offset="0"
         id="stop12759-6" /><stop
         style="stop-color:#cacbcf;stop-opacity:1;"
         offset="1"
         id="stop12761-7" /></radialGradient><radialGradient
       fx="0"
       fy="0"
       cx="0"
       cy="0"
       r="1"
       gradientUnits="userSpaceOnUse"
       gradientTransform="matrix(0,16.500002,-16.500002,0,8.999998,0.749999)"
       spreadMethod="pad"
       id="radialGradient12763-3-4"><stop
         style="stop-opacity:1;stop-color:#a4a4a4"
         offset="0"
         id="stop12759-6-3" /><stop
         style="stop-opacity:1;stop-color:#626262"
         offset="1"
         id="stop12761-7-0" /></radialGradient></defs><sodipodi:namedview
     id="namedview49833"
     pagecolor="#ffffff"
     bordercolor="#000000"
     borderopacity="0.25"
     inkscape:showpageshadow="2"
     inkscape:pageopacity="0.0"
     inkscape:pagecheckerboard="0"
     inkscape:deskcolor="#d1d1d1"
     showgrid="false"
     inkscape:zoom="9.656427"
     inkscape:cx="40.284051"
     inkscape:cy="27.857095"
     inkscape:window-width="2560"
     inkscape:window-height="998"
     inkscape:window-x="1680"
     inkscape:window-y="0"
     inkscape:window-maximized="1"
     inkscape:current-layer="svg49831" /><linearGradient
     id="a"><stop
       stop-color="#292c2f"
       offset="0"
       id="stop49777" /><stop
       stop-opacity="0"
       offset="1"
       id="stop49779" /></linearGradient><linearGradient
     id="b"
     x1="388.42001"
     x2="388.42001"
     y1="557.79999"
     y2="505.79999"
     gradientTransform="matrix(0.58696,0,0,0.53846,-273.55,-235.91)"
     gradientUnits="userSpaceOnUse"><stop
       stop-color="#7f8c8d"
       offset="0"
       id="stop49782" /><stop
       stop-color="#afb0b3"
       offset="1"
       id="stop49784" /></linearGradient><use
     transform="matrix(1.6,0,0,1.6,40,19)"
     width="100%"
     height="100%"
     fill="#ffffff"
     fill-rule="evenodd"
     opacity="0.5"
     xlink:href="#a-6"
     id="use26500" /><path
     d="m 9.5928808,1.1146316 c 0.12,0 0.2346667,-0.016 0.344,-0.046667 1.4373332,-0.0946666 2.8746662,-0.0893333 4.3080002,0.010667 1.301333,0.104 2.561333,0.3853333 3.781333,0.848 2.025333,0.8333333 3.410667,2.2813333 4.161333,4.3386665 0.421334,1.24 0.676,2.516 0.754667,3.8226669 0.104,1.646666 0.068,3.286666 -0.114667,4.928 -0.14,1.150666 -0.437333,2.254666 -0.896,3.317333 -0.849333,1.844 -2.229333,3.114666 -4.134666,3.812 -1.542667,0.521333 -3.130667,0.797333 -4.766667,0.824 -1.833333,0.09867 -3.6506665,-0.04267 -5.4519998,-0.412 -3.3079999,-0.734667 -5.3546665,-2.754667 -6.1253332,-6.057333 -0.328,-1.484 -0.47999995,-2.989334 -0.4479999,-4.510667 -0.036,-1.62 0.1346666,-3.2133333 0.5159999,-4.7866666 C 2.332881,4.1199649 4.2915476,2.2079649 7.3955476,1.4692983 8.1195475,1.2919649 8.8542142,1.1719649 9.5928808,1.1146316 Z"
     style="fill:url(#radialGradient12763-3);fill-rule:evenodd;stroke:none;stroke-width:1.33333"
     id="path12765-6" /><path
     id="path29009"
     style="fill:#949496;fill-opacity:1;stroke-width:0.465671"
     d="m 1.2011719,15.109375 c 0.067716,0.465407 0.1499632,0.929183 0.2519531,1.390625 0.7706659,3.302663 2.8170034,5.321974 6.125,6.056641 1.2474244,0.255761 2.502855,0.400493 3.765625,0.433593 V 19.953125 C 7.6429283,19.754209 5.3581245,18.051291 4.2265625,15.109375 Z" /><g
     id="g50025"
     transform="translate(20)"><g
       fill-rule="evenodd"
       id="g50013"
       transform="matrix(0.43572487,0,0,0.43572487,-21.924889,0.22398696)"><path
         d="M 48,27.122 C 48,35.837 40.837,43 32,43 23.163,43 16,35.837 16,27.122 16,18.164 23.163,11 32,11 c 8.837,0 16,7.164 16,16.122"
         fill="#ffffff"
         id="path50007" /><use
         transform="translate(27,22)"
         width="100%"
         height="100%"
         fill="#1a1a1a"
         xlink:href="#a"
         id="use50009" /><use
         transform="translate(27.003,22.007)"
         width="100%"
         height="100%"
         fill="#ffffff"
         opacity="0.1"
         xlink:href="#b"
         id="use50011" /></g><path
       d="m -7.981694,4.5812357 c -4.090584,0 -7.407322,3.3158662 -7.407322,7.4073223 0,4.090585 3.316738,7.407323 7.407322,7.407323 4.090585,0 7.407323,-3.316738 7.407323,-7.407323 0,-4.0914561 -3.316738,-7.4073223 -7.407323,-7.4073223 z m 4.538946,11.9467033 a 6.4112556,6.4112556 0 0 1 -2.0405,1.376456 6.3816263,6.3816263 0 0 1 -2.498446,0.503261 c -0.867093,0 -1.708041,-0.16906 -2.498445,-0.503261 a 6.4112556,6.4112556 0 0 1 -2.0405,-1.376891 6.3920838,6.3920838 0 0 1 -1.881024,-4.538946 6.3946981,6.3946981 0 0 1 1.880587,-4.5389455 6.386855,6.386855 0 0 1 2.040936,-1.3768907 6.3755263,6.3755263 0 0 1 2.498446,-0.5032622 c 0.867093,0 1.708041,0.1699327 2.498446,0.5041337 a 6.3855479,6.3855479 0 0 1 2.0405,1.3760192 6.3946981,6.3946981 0 0 1 1.881024,4.5389455 6.3933909,6.3933909 0 0 1 -1.880589,4.539381 z"
       fill="#808080"
       id="path50015"
       style="stroke-width:0.435724" /><path
       d="m -7.977773,5.0126032 c -0.277991,0 -0.547269,0.022658 -0.817419,0.054902 a 7.128023,7.128023 0 0 0 -0.789533,0.1359462 c -0.08192,0.019171 -0.16122,0.058387 -0.244006,0.081917 -0.07407,0.020043 -0.146405,0.032244 -0.217863,0.054902 -0.09237,0.028758 -0.187362,0.051416 -0.273636,0.081917 -0.09324,0.033115 -0.180389,0.072331 -0.272762,0.1089317 -0.179519,0.07233 -0.345094,0.158603 -0.516769,0.2440051 -0.06187,0.032244 -0.130718,0.049673 -0.19172,0.082788 -0.200433,0.1045745 -0.383438,0.2291913 -0.5708,0.3538085 -0.07146,0.04793 -0.148146,0.085402 -0.217862,0.1350747 -0.02876,0.020915 -0.05315,0.033115 -0.08192,0.054902 -0.08192,0.061874 -0.166448,0.1237458 -0.244878,0.1917189 -0.09325,0.076688 -0.183005,0.1620896 -0.272764,0.2440059 -0.02789,0.026143 -0.05403,0.055773 -0.08192,0.081917 l -0.02702,0.027015 c -0.01394,0.013943 -0.01307,0.040958 -0.02702,0.054902 -0.183004,0.1777759 -0.383437,0.3477086 -0.544655,0.5446561 -0.0043,0.00872 0.0044,0.021786 0,0.026143 -0.157733,0.191719 -0.298908,0.3912809 -0.435725,0.6004289 -0.0183,0.027887 -0.0366,0.052287 -0.0549,0.081917 -0.01307,0.020915 -0.04096,0.032244 -0.0549,0.054902 -0.05229,0.085402 -0.08802,0.182133 -0.135946,0.2718922 -0.01569,0.028758 -0.03922,0.053159 -0.0549,0.081917 -0.06536,0.1272317 -0.130718,0.2527205 -0.191719,0.3816951 -0.0026,0.00872 0.0044,0.020043 0,0.027015 a 6.9938199,6.9938199 0 0 0 -0.271891,0.6797285 c -0.01656,0.047055 -0.03922,0.090626 -0.0549,0.1368176 -0.0026,0.00869 0.0026,0.019169 0,0.026138 -0.01743,0.054913 -0.03834,0.1098044 -0.0549,0.1647054 -0.06362,0.223091 -0.122003,0.447053 -0.163832,0.67973 -0.02963,0.166883 -0.06449,0.34553 -0.08192,0.517205 a 7.0617928,7.0617928 0 0 0 -0.02702,0.70849 c 0,0.351193 0.03137,0.697159 0.08192,1.034411 0.0052,0.03572 -0.0061,0.07407 0,0.108925 0.03834,0.231805 0.102831,0.457511 0.163832,0.679731 0.02266,0.08454 0.05577,0.162962 0.08192,0.24575 0.03486,0.112411 0.06884,0.21699 0.108932,0.325921 a 6.8840171,6.8840171 0 0 0 0.217862,0.544656 c 0.04357,0.09237 0.08889,0.183004 0.135946,0.272764 a 6.9711622,6.9711622 0 0 0 0.435725,0.735504 c 0.01394,0.02092 0.04009,0.03399 0.0549,0.05489 0.172547,0.244005 0.343351,0.488012 0.544656,0.707617 0.03486,0.03834 0.0732,0.07146 0.108932,0.108925 0.03486,0.0366 0.0732,0.0732 0.108932,0.108926 0.186491,0.186492 0.392153,0.352938 0.599557,0.517641 0.266664,0.212635 0.548143,0.399997 0.844436,0.5708 0.01046,0.0088 0.01655,0.02092 0.02614,0.02702 0.04706,0.02614 0.09063,0.05665 0.136817,0.08192 0.274506,0.135945 0.602172,0.283221 0.816548,0.381694 0.09586,0.0366 0.201304,0.04968 0.299779,0.08192 0.04619,0.01568 0.08975,0.04009 0.135945,0.05489 0.118518,0.03572 0.23355,0.07843 0.353809,0.108926 l 0.108926,0.02702 c 0.254463,0.061 0.524613,0.10544 0.789534,0.135947 0.27015,0.03137 0.538556,0.05489 0.817419,0.05489 0.296293,0 0.583871,-0.01831 0.87145,-0.05489 0.318079,-0.04183 0.592586,-0.108061 0.871449,-0.163833 a 6.8918602,6.8918602 0 0 0 3.675339,-2.395614 c 0.0244,-0.03051 0.05838,-0.05055 0.08192,-0.08192 0.0087,-0.01045 0.01917,-0.01743 0.02702,-0.02615 0.0122,-0.01656 0.01569,-0.03922 0.02701,-0.05577 a 6.93979,6.93979 0 0 0 1.171228,-2.449644 c 0.0488,-0.189105 0.102832,-0.376467 0.135946,-0.571672 0.0043,-0.02614 -0.0043,-0.0549 0,-0.08192 0.0052,-0.03485 0.0218,-0.06884 0.02702,-0.108925 0.0052,-0.03747 0.02265,-0.07146 0.02702,-0.108926 h -0.02615 c 0.03748,-0.286707 0.08105,-0.574285 0.08105,-0.871449 0,-0.48017 -0.04357,-0.961208 -0.135947,-1.415235 -0.0078,-0.03748 -0.01917,-0.07146 -0.02615,-0.108938 -0.04096,-0.18039 -0.108926,-0.367751 -0.164706,-0.5437852 -0.0026,-0.00869 0.0026,-0.01917 0,-0.027017 a 2.9969156,2.9969156 0 0 0 -0.02615,-0.08192 C -1.397917,9.703142 -1.434517,9.5828829 -1.47286,9.480924 -1.48331,9.453037 -1.48855,9.425151 -1.49901,9.399007 c -0.03834,-0.09586 -0.095,-0.1790833 -0.136818,-0.2723285 -0.0018,0 0.0017,-0.022658 0,-0.027015 -0.02178,-0.047058 -0.05926,-0.089759 -0.08192,-0.1359462 A 6.808201,6.808201 0 0 0 -1.990476,8.446097 c -0.05055,-0.085402 -0.08192,-0.1882331 -0.135947,-0.2718923 -0.02092,-0.031372 -0.06012,-0.050545 -0.08192,-0.081917 -0.05838,-0.087146 -0.128104,-0.1612181 -0.190849,-0.2448773 -0.06972,-0.087146 -0.122002,-0.1882331 -0.190847,-0.2727638 -0.0043,-0.00872 0.0043,-0.021786 0,-0.027015 C -2.739925,7.364627 -2.912474,7.1964373 -3.080663,7.0299903 -3.161714,6.9498167 -3.241009,6.8609291 -3.324669,6.7859845 c -0.02527,-0.022658 -0.05752,-0.033987 -0.08278,-0.055773 A 7.085322,7.085322 0 0 0 -3.979126,6.2945058 C -4.02705,6.2622621 -4.066267,6.2186893 -4.115072,6.1864456 -4.176075,6.1463583 -4.244046,6.1158578 -4.305918,6.0775138 -4.422694,6.0043118 -4.536852,5.9258816 -4.658856,5.8596515 A 7.0522069,7.0522069 0 0 0 -4.98565,5.6958199 6.8840171,6.8840171 0 0 0 -5.55732,5.4509424 6.6652832,6.6652832 0 0 0 -6.26581,5.2330801 6.7593999,6.7593999 0 0 0 -7.981259,5.0152176 m 0,0.8714498 a 6.1197556,6.1197556 0 0 1 1.224823,0.1368175 h 0.02615 c 0.145533,0.030501 0.295421,0.068845 0.435724,0.1089318 0.08453,0.02353 0.163833,0.054902 0.245749,0.081917 0.14989,0.049673 0.291064,0.1019601 0.435725,0.1638326 0.169062,0.069716 0.33028,0.1324602 0.490626,0.2178624 l -0.08192,0.026143 a 0.27799247,0.27799247 0 0 0 -0.108926,0.1089318 c -0.01743,0.041829 0.0043,0.1002167 0,0.1638326 0.03312,0.014814 0.05229,0.078431 0.108926,0.1089317 0.02178,0.012201 0.03485,-0.00872 0.05489,0 0.03312,0.018301 0.061,0.075817 0.05489,0.1089317 -0.0096,0.04793 -0.07669,0.019172 -0.108926,0.054902 0.0052,0.067973 -0.03748,0.091503 -0.05489,0.1359462 0.01045,0.028758 0.04968,0.020915 0.05489,0.054902 -0.0062,0.037472 -0.06972,0.042701 -0.05489,0.081917 0.06274,0.048801 0.130719,-0.019172 0.190849,-0.027015 0.129846,-0.017429 0.24662,0.034859 0.326793,-0.027015 -0.01045,-0.061874 0.08714,-0.080174 0.08192,-0.1359462 -0.0053,-0.041829 -0.07844,-0.053158 -0.108926,-0.081917 -0.01743,-0.015686 -0.03486,-0.051416 -0.05489,-0.081917 -0.02265,-0.034859 -0.05577,-0.075816 -0.08192,-0.1089317 -0.03485,-0.045316 -0.108937,-0.1019601 -0.108937,-0.1359461 0,-0.039216 0.04532,-0.054902 0.0549,-0.1089317 -0.01045,-0.049673 -0.101954,0 -0.108925,-0.054902 a 0.14117485,0.14117485 0 0 1 0.02614,-0.054902 c 0.130716,0.07146 0.260563,0.1559895 0.382566,0.2448774 l 0.08192,0.054902 c 0.09412,0.070588 0.180391,0.1481463 0.272765,0.2178623 -0.05838,0.010457 -0.08802,0.07843 -0.135947,0.1359462 a 0.40435268,0.40435268 0 0 1 -0.135946,0.1089317 c -0.0244,0.010457 -0.05926,-0.013943 -0.08192,0 -0.03225,0.021786 -0.04445,0.08366 -0.08192,0.1089317 -0.02701,0.017429 -0.10806,0.081917 -0.135945,0.081917 -0.03312,0 -0.0854,-0.034859 -0.108926,-0.027015 -0.03485,0.011335 -0.01482,0.067102 -0.05489,0.081917 -0.07669,0.026143 -0.217864,-0.061002 -0.244877,0.054902 0.03312,0.066231 0.133331,0.043573 0.190847,0.081481 a 0.41393862,0.41393862 0 0 1 0.108926,0.1638326 0.56121363,0.56121363 0 0 1 0,0.1908474 c -0.03572,0.092374 -0.139432,0.084531 -0.244878,0.081917 -0.02963,-8.715e-4 -0.05489,0 -0.08192,0 -0.180391,-0.012201 -0.354681,-0.074073 -0.435726,0.054902 0.0062,0.098475 0.02178,0.1594754 0,0.2440059 -0.01568,0.062744 -0.08453,0.1089318 -0.08192,0.1638326 0.0018,0.027887 0.04792,0.071459 0.05489,0.1089317 0.0043,0.020043 -0.0096,0.063616 0,0.081917 0.02963,0.057516 0.11067,-0.00872 0.163834,0 0.05141,0.00872 0.109804,0.1054459 0.108926,0.1638325 a 0.3015216,0.3015216 0 0 1 -0.05489,0.1359461 c -0.05055,0.078431 -0.145532,0.067102 -0.217864,0.1089318 -0.061,0.033981 -0.0732,0.103709 -0.108925,0.1638321 -0.03834,0.064488 -0.07058,0.09586 -0.05489,0.1908471 A 0.42265312,0.42265312 0 0 1 -6.155987,9.839134 c -0.03224,0.014817 -0.07974,0.033996 -0.108926,0.054893 a 0.54901333,0.54901333 0 0 0 -0.08149,0.08192 c -0.04096,0.045318 -0.08714,0.074072 -0.108926,0.108926 -0.01743,0.02615 -0.0088,0.0732 -0.02702,0.108938 -0.02615,0.0488 -0.07669,0.08714 -0.108938,0.135947 -0.01482,0.02265 -0.03747,0.05142 -0.05489,0.08192 -0.0366,0.0671 -0.08801,0.130718 -0.08192,0.189976 0.0062,0.05752 0.07756,0.05926 0.08192,0.108938 0.0035,0.02789 -0.02876,0.05229 -0.02702,0.08192 0,0.04444 0.02352,0.07494 0.02615,0.108938 0.0088,0.08714 -0.03747,0.104574 -0.05403,0.163832 -0.0088,0.02788 0.007,0.05926 0,0.08192 -0.01395,0.04357 -0.08105,0.0854 -0.08192,0.135945 -8.72e-4,0.0366 0.05142,0.08454 0.0549,0.135946 0.0018,0.03485 -0.03312,0.04968 -0.02702,0.08192 0.0122,0.06362 0.141174,0.141176 0.190847,0.190849 0.06537,0.06536 0.135075,0.12113 0.163832,0.190848 0.02352,0.05838 0.03485,0.146402 0.08192,0.190846 0.034,0.03225 0.09237,0.04706 0.135947,0.08192 0.04095,0.03137 0.09281,0.04793 0.135509,0.08192 0.06972,0.05577 0.159476,0.171675 0.272764,0.163831 0.05926,-0.0087 0.123746,-0.04357 0.190848,-0.05489 0.06884,-0.0122 0.148146,-0.03486 0.217862,-0.02702 0.05229,0.0087 0.10806,0.05752 0.163833,0.05489 0.05838,0 0.124618,-0.05316 0.190846,-0.08192 0.114167,-0.04966 0.294551,-0.133331 0.46187,-0.108925 0.127231,0.01743 0.130716,0.189103 0.217862,0.244005 0.102831,0.0087 0.191719,-0.0462 0.272764,-0.02615 0.061,0.01482 0.130717,0.115033 0.135945,0.163833 0.0062,0.05054 -0.04706,0.104574 -0.05489,0.135946 -0.01569,0.06797 -0.01481,0.147275 -0.02614,0.189976 -0.01045,0.03312 -0.02876,0.07494 -0.02788,0.108926 a 0.47058285,0.47058285 0 0 0 0.08192,0.163832 c 0.03834,0.0488 0.08976,0.08366 0.135947,0.135945 a 1.5686095,1.5686095 0 0 1 0.19172,0.326795 c 0.01394,0.03225 -0.01483,0.0671 0,0.108937 -0.02615,0.195205 -0.09064,0.328537 -0.217863,0.544656 -0.061,0.06972 -0.138561,0.130717 -0.136819,0.217863 -0.0043,0.209147 0.118518,0.341608 0.108926,0.543785 -0.02092,0.271891 0.02092,0.290192 0,0.435724 0.09151,0.0462 0.02702,0.203047 0,0.299779 -0.03921,0.115032 -0.08714,0.141174 -0.108926,0.217862 0.06187,0.02615 0.149019,0.01656 0.217864,0 0,0 0.08366,0.34858 0.08192,0.353809 a 6.1023268,6.1023268 0 0 1 -2.559012,1.49715 c -0.479297,0.115898 -0.621344,0.115898 -0.845306,0.163833 a 5.5624636,5.5624636 0 0 1 -0.897593,0.08192 c -0.211763,0 -0.42091,-0.0087 -0.626573,-0.02702 -0.158605,-0.01568 -0.308493,-0.05403 -0.461867,-0.08192 a 6.2478587,6.2478587 0 0 1 -0.136819,-0.02702 c -0.142051,-0.04792 -0.305013,-0.07668 -0.43573,-0.108918 a 6.1580995,6.1580995 0 0 1 -0.435724,-0.135947 c 0.0122,-0.0113 0.02352,-0.0096 0.02701,-0.02701 0.0087,-0.03485 0.0018,-0.05403 0,-0.108926 0.01307,-0.05665 0.069718,-0.05055 0.081919,-0.108938 -0.0244,-0.04183 -0.072325,-0.03312 -0.108926,-0.05489 a 0.11590281,0.11590281 0 0 1 -0.0549,-0.108925 c 0.061,-0.02527 0.17429,0.05752 0.217863,-0.02702 0.02178,-0.04009 -0.02963,-0.122003 0,-0.163833 0.02004,-0.02614 0.148145,-0.04792 0.191718,-0.05489 0.061,-0.01045 0.128103,-0.0088 0.162962,-0.02615 a 0.19433329,0.19433329 0 0 0 0.08192,-0.164703 c -0.0035,-0.034 -0.02876,-0.05142 -0.05489,-0.08192 -0.02178,-0.02527 -0.0113,-0.05752 -0.02615,-0.08192 -0.02789,-0.04097 -0.06972,-0.05055 -0.0828,-0.108926 0.08366,-0.01656 0.205662,0.08889 0.326794,0.05489 0.05752,-0.01655 0.136817,-0.163834 0.163832,-0.217864 0.0088,-0.01655 -0.0087,-0.03485 0,-0.05489 0.01045,-0.02265 0.05229,-0.04269 0.05491,-0.05489 0.0087,-0.03137 -0.007,-0.061 0,-0.08192 0.02092,-0.05926 0.07406,-0.06537 0.108926,-0.108926 0.02614,-0.03312 0.05665,-0.07582 0.08192,-0.108938 0.02702,-0.03485 0.0366,-0.07756 0.05489,-0.108925 0.01743,-0.105441 -0.05229,-0.178648 -0.02615,-0.271893 0.02702,-0.104574 0.169933,-0.143789 0.271893,-0.191719 0.03485,-0.01569 0.08017,-0.04357 0.108926,-0.05403 0.06972,-0.0244 0.153375,-0.03137 0.217862,-0.05489 0.108926,-0.04009 0.136818,-0.145533 0.190848,-0.244877 a 0.53245579,0.53245579 0 0 0 0.05491,-0.135947 c 0.0043,-0.03051 -0.0062,-0.0462 0,-0.08192 0.0052,-0.03486 0.01743,-0.07058 0.02702,-0.108926 a 0.9585947,0.9585947 0 0 0 0.02701,-0.190847 c 0,-0.0462 -0.02527,-0.06797 -0.02701,-0.108925 -0.0078,-0.150761 0.05316,-0.189976 0.108925,-0.272765 0.02788,-0.04096 0.03485,-0.07844 0.05489,-0.108938 0.09412,-0.139431 0.257079,-0.196075 0.244007,-0.407837 -0.0035,-0.06972 -0.02963,-0.223091 -0.08105,-0.244877 -0.02963,-0.01308 -0.09324,-0.0096 -0.135946,-0.02702 -0.137689,-0.05229 -0.238776,-0.235292 -0.381695,-0.244878 -0.0305,0 -0.04793,0.02614 -0.08192,0.02614 -0.05664,0 -0.128103,-0.04532 -0.190847,-0.05403 -0.04009,-0.0088 -0.112413,0.0113 -0.135946,0 -0.0366,-0.01743 -0.02527,-0.08889 -0.05489,-0.108926 -0.02352,-0.01568 -0.0732,-0.01308 -0.108926,-0.02702 -0.05752,-0.02178 -0.0976,-0.0488 -0.163833,-0.05489 -0.02004,-8.72e-4 -0.05838,0 -0.08192,0 -0.0366,-0.0088 -0.07495,-0.03486 -0.108926,-0.05491 a 0.18126155,0.18126155 0 0 1 -0.08192,-0.08192 c 0.03835,-0.125489 -0.08366,-0.145532 -0.108926,-0.217863 -0.0122,-0.03398 0.0113,-0.07843 0,-0.108926 -0.01482,-0.04357 -0.061,-0.0732 -0.108926,-0.108924 -0.08453,-0.06449 -0.151632,-0.121132 -0.272763,-0.135946 -0.05229,-0.0088 -0.12636,0 -0.190848,0 a 0.31982204,0.31982204 0 0 1 -0.190841,-0.108936 c -0.0488,-0.05665 -0.06623,-0.108938 -0.108927,-0.135946 -0.04095,-0.02614 -0.10806,-0.02614 -0.135946,-0.0549 -0.0122,-0.0122 -0.01481,-0.02615 -0.02614,-0.05489 -0.02091,-0.04183 -0.05403,-0.0854 -0.02789,-0.135947 -0.04619,-0.02352 -0.03051,0.06274 -0.08192,0.0549 -0.04532,-0.06449 -0.08715,-0.10021 -0.190847,-0.08192 -0.04706,0.0087 -0.08105,0.05229 -0.135947,0.05489 -0.04532,0 -0.07669,-0.04619 -0.135945,-0.05489 -0.04532,-0.0088 -0.104575,0.03137 -0.135947,0.02701 -0.04967,-0.0087 -0.06361,-0.05141 -0.108926,-0.08192 -0.03312,-0.02178 -0.09063,-0.08278 -0.108926,-0.08192 -0.05838,0 -0.109803,0.124618 -0.190847,0.08192 -0.03921,-0.04967 0.07408,-0.061 0.02702,-0.108926 -0.03486,-0.03486 -0.05229,0.0088 -0.08192,0.02702 a 0.58038553,0.58038553 0 0 1 -0.108926,0.05489 c -0.08017,0.02963 -0.128103,0.02179 -0.190848,0.0549 -0.05752,0.02963 -0.07581,0.07669 -0.108926,0.135945 -0.02614,0.0488 -0.06884,0.133333 -0.108925,0.135947 -0.0488,0 -0.0915,-0.06274 -0.135075,-0.08192 -0.133332,-0.05752 -0.21612,0.02615 -0.326793,0.02702 -0.102832,0 -0.250106,-0.148146 -0.244878,-0.244005 0.0035,-0.05839 0.04706,-0.144662 0.05491,-0.217862 0.0052,-0.05752 0.05403,-0.110668 0.0549,-0.163834 0,-0.07058 -0.11764,-0.128102 -0.163832,-0.135945 -0.10893,-0.02005 -0.257077,0.05229 -0.381695,0 -0.02353,-0.03922 0.04096,-0.0706 0.0549,-0.108938 0.0078,-0.02178 -0.0087,-0.02963 0,-0.05489 0.01394,-0.0366 0.06449,-0.06972 0.08192,-0.108926 0.01307,-0.02963 0.01394,-0.07146 0.02614,-0.108938 0.01569,-0.04357 0.05229,-0.07929 0.05577,-0.108926 0.0044,-0.03922 -0.02353,-0.08279 -0.0549,-0.108937 -0.09673,0.0088 -0.162961,0 -0.217862,0.02702 -0.125489,0.05752 -0.09237,0.231806 -0.217863,0.272764 -0.04357,0.01394 -0.115903,0.01743 -0.163832,0.02614 -0.04096,0.0087 -0.09325,0.02876 -0.135946,0.02789 a 0.30849321,0.30849321 0 0 1 -0.163833,-0.08192 0.15163225,0.15163225 0 0 1 -0.02702,-0.05491 c 0.0018,-0.0087 -0.0017,-0.01829 0,-0.02702 0.04009,-0.194333 0.08105,-0.386923 0.135946,-0.571669 0.0026,-0.0088 -0.0026,-0.01917 0,-0.02615 0.0366,-0.122003 0.08976,-0.2352922 0.135946,-0.3546804 0.01133,-0.00879 0.01656,-0.020048 0.02614,-0.026138 0.06797,-0.047055 0.136818,-0.1045743 0.217863,-0.1089255 0.05055,0 0.143789,0.017429 0.191719,0.026143 0.04357,0.00878 0.07146,0.052288 0.108932,0.055773 0.107188,0.00879 0.129846,-0.089753 0.217862,-0.1359466 0.09063,0.013078 0.135946,-0.00878 0.217863,0 0.05577,0.00866 0.120259,0.078431 0.163832,0.081917 0.0366,0 0.04619,-0.061002 0.08192,-0.054896 0.03486,0.00866 0.103697,0.094117 0.108926,0.1359465 0.0061,0.052287 -0.04183,0.106317 -0.02702,0.162961 0.0549,0.055771 0.165576,0.048802 0.244006,0.081919 0.05229,-0.041833 0.0087,-0.10283 0,-0.1629595 -8.72e-4,-0.027017 0.0043,-0.057519 0,-0.08192 -0.0043,-0.041808 -0.02615,-0.073181 -0.02615,-0.1089048 -8.72e-4,-0.165575 0.134202,-0.261435 0.244005,-0.326794 0.0488,-0.028764 0.09412,-0.061002 0.135946,-0.081917 0.05838,-0.029629 0.08715,-0.054902 0.135947,-0.081917 0.08801,-0.049673 0.176032,-0.080174 0.244877,-0.1359462 0.03224,-0.074945 -0.0035,-0.1708041 0,-0.2448773 0.03224,-0.019172 0.04792,0 0.08192,0 0.05316,-0.011335 0.07843,-0.079302 0.108938,-0.1089318 0.01743,-0.017429 0.061,-0.037472 0.08192,-0.054902 0.05315,-0.041829 0.06274,-0.090631 0.108926,-0.1089318 0.01743,-0.00872 0.05577,-0.014814 0.08192,-0.027015 0.03486,-0.00958 0.08017,-0.034859 0.135945,-0.054902 0.0366,-0.012201 0.122004,-0.013072 0.135947,-0.027015 0.01743,-0.017429 -0.0053,-0.082788 0,-0.1089318 0.02789,-0.130717 0.237033,-0.1459675 0.353807,-0.1904113 0.08192,-0.031372 0.155119,-0.099346 0.244877,-0.081917 -0.01743,0.062744 -0.09586,0.033115 -0.08192,0.1089318 0.02004,0.1054459 0.1533744,-0.011323 0.1917184,-0.026143 0.06972,-0.030501 0.205661,-0.048802 0.298907,-0.082789 0.08192,-0.029629 0.213506,-0.069716 0.135946,-0.1638325 -0.06449,0 -0.08017,0.057516 -0.135946,0.081917 -0.03834,0.00872 -0.0488,-0.02353 -0.08192,-0.026143 -0.03137,0 -0.04966,0.032244 -0.08192,0.026143 -0.03224,-0.00872 -0.07669,-0.07146 -0.08192,-0.1089318 -0.01308,-0.09586 0.09586,-0.1185177 0.135945,-0.1908476 -0.02614,-0.087146 -0.14466,-0.020915 -0.217862,-0.054902 a 0.12897455,0.12897455 0 0 1 0.108926,-0.1080603 c 0.04967,-0.00872 0.161218,0.00872 0.191718,0.026144 0.01743,0.015686 0,0.058387 0.02615,0.082788 0.02963,0.026143 0.0706,0.00872 0.108925,0 0.01395,-0.066231 -0.09237,-0.037472 -0.08192,-0.081917 0.07843,-0.052287 0.230933,-0.013943 0.326794,-0.027015 0.05489,-0.00872 0.114155,-0.05403 0.163832,-0.081917 0.04706,-0.026143 0.08714,-0.070588 0.135946,-0.027015 0.01394,0.047058 -0.02789,0.057516 -0.05489,0.081917 a 1.9015033,1.9015033 0 0 0 -0.244008,0.271879 c 0.04183,0.04183 0.117641,0.019171 0.189976,0.027015 0.02789,0 0.05229,0.021786 0.08192,0.027015 0.03486,0.00872 0.08192,-0.010457 0.108926,0 0.0488,0.012201 0.061,0.081917 0.108926,0.081917 0.07929,0 0.07232,-0.1089317 0.02702,-0.1638326 0.01394,-0.054902 0.04618,-0.069716 0.02701,-0.1089317 -0.03486,-0.071459 -0.183004,0.012201 -0.190848,-0.081917 -0.0043,-0.058387 0.061,-0.065359 0.08192,-0.1089318 -0.0088,-0.1115461 0.09237,-0.1167748 0.08192,-0.2178624 -0.0052,-0.040959 -0.05229,-0.041829 -0.08192,-0.081045 -0.01482,-0.020043 -0.0088,-0.066231 -0.02615,-0.081917 -0.061,-0.052287 -0.183004,-0.038344 -0.19172,-0.1359461 -0.0035,-0.057516 0.0087,-0.1002167 0,-0.1638325 -0.0078,-0.058387 -0.05752,-0.2335486 -0.108937,-0.2448775 -0.06537,-0.013943 -0.112412,0.099346 -0.190847,0.1359462 a 0.33899394,0.33899394 0 0 1 -0.163834,0.026144 c -0.02789,-0.00872 -0.07756,-0.027015 -0.08192,-0.081045 -0.0053,-0.061002 0.04357,-0.07146 0.05489,-0.1359461 -0.0087,-0.038344 -0.04357,-0.026143 -0.08192,-0.054902 -0.04269,-0.032244 -0.07844,-0.1010886 -0.135947,-0.1089317 -0.02876,0 -0.08104,0.025272 -0.108926,0.027015 -0.05229,0 -0.09237,-0.013072 -0.1359464,-0.027015 0.01831,-0.00872 0.035733,-0.020915 0.054912,-0.027015 0.106317,-0.036601 0.217862,-0.051416 0.326793,-0.081917 0.01917,-0.00872 0.03573,-0.021786 0.05491,-0.027015 0.02702,0.028758 0.0488,0.089759 0.08192,0.1089318 0.02178,0.012201 0.05489,-0.00872 0.08192,0 0.0854,0.026143 0.151631,0.074073 0.244877,0.054902 0.03224,-0.056644 -0.06449,-0.064488 -0.02615,-0.1089316 0.06187,0.00872 0.114155,0.034859 0.162962,0.054902 0.06709,-0.048801 0.111546,-0.057516 0.108926,-0.1359462 0,-0.040086 -0.05403,-0.054902 -0.08192,-0.081917 0.05489,-0.00958 0.10806,-0.019172 0.163834,-0.027015 0.0043,0.014814 0.01829,0.026143 0.02702,0.027015 0.03312,0.00872 0.143788,-0.044444 0.163831,-0.054902 0.0035,0 -0.0052,-0.02353 0,-0.027015 a 6.5145224,6.5145224 0 0 1 0.680603,-0.027015 m -2.1786074,0.4087102 c -0.02004,0.037472 -0.04095,0.068845 -0.08192,0.081917 0.01046,0.056644 -0.0732,0.091503 -0.08192,0.135946 -0.0052,0.0305 -0.0018,0.081917 0,0.1089318 0.01743,0.2779924 -0.217862,0.4148101 -0.490626,0.4078385 -0.05229,0.050545 -0.02527,0.1481465 -0.0549,0.2178624 -0.0244,0.058387 -0.104574,0.1141604 -0.163833,0.1089317 -0.04357,0 -0.108926,-0.068844 -0.108926,-0.1089317 0,-0.049673 0.07058,-0.07843 0.02702,-0.1359462 0.0061,-0.038344 0.09237,-0.074945 0.08192,-0.1359462 -0.01046,-0.064488 -0.08366,-0.016558 -0.163832,-0.026143 a 0.8043481,0.8043481 0 0 1 -0.163832,-0.055774 c 0.08802,-0.058387 0.178648,-0.1098032 0.272763,-0.1638326 0.08192,-0.048801 0.161219,-0.091503 0.244878,-0.1359462 a 7.9476216,7.9476216 0 0 1 0.680602,-0.2989244 m 4.6840424,0.6535872 c -0.02352,0 -0.03485,0.014814 -0.05489,0.026143 -0.04444,0.027015 -0.04706,0.069716 -0.08192,0.081917 -0.04706,0.018301 -0.101954,0.00872 -0.108926,0.054902 -0.0053,0.035729 0.02876,0.04793 0.02615,0.081917 -0.01743,0.043573 -0.04532,0.057516 -0.05403,0.1089317 0.05925,0.09586 0.199561,-0.00872 0.272764,-0.026143 0.03312,-0.010457 0.06361,0 0.08192,-0.027887 0.02005,-0.0305 0.0113,-0.091502 0.02614,-0.1359462 0.01743,-0.048801 0.061,-0.037472 0.05577,-0.081917 -0.0053,-0.043573 -0.09237,-0.088889 -0.163832,-0.081917 m -6.3716094,0.6797309 c 0.05229,0.01438 0.170804,0.1686256 0.0549,0.2178625 a 0.81131969,0.81131969 0 0 1 -0.19172,0.02745 c -0.03921,-0.00872 -0.0671,-0.074945 -0.10806,-0.081917 -0.08017,-0.013943 -0.189976,0.087146 -0.244878,0 0.01394,-0.052287 0.07494,-0.037472 0.135946,-0.054902 0.108926,-0.029629 0.259692,-0.1333316 0.353809,-0.1089315 m 0.217862,0.2727637 c 0.02614,0 0.04794,0.051415 0.08105,0.054902 0.03137,0 0.06274,-0.031372 0.08192,-0.027015 0.0488,0.013072 0.0732,0.1002167 0.02702,0.135946 -0.03834,0 -0.05229,-0.032244 -0.08192,-0.027015 -0.07843,0.013943 -0.104574,0.1681899 -0.162962,0.1638326 -0.05577,-0.00872 -0.08366,-0.1228744 -0.02702,-0.1638326 0.0018,-0.034858 -0.02876,-0.047058 -0.02702,-0.081917 0.01743,-0.021786 0.06274,-0.057516 0.108061,-0.054902 m -0.271893,0.026143 c 0.01656,0.00175 0.02092,0 0.02614,0 -0.007,0.062744 -0.03312,0.080174 -0.08105,0.109802 a 0.329408,0.329408 0 0 0 -0.163907,0.2178103 c -0.0088,0.031372 -0.09672,0.1159034 -0.135947,0.1080604 -0.09237,-0.019172 0.03312,-0.1917191 0.05491,-0.2178625 0.02352,-0.027887 0.05403,-0.04793 0.08192,-0.081045 0.02614,-0.032244 0.02876,-0.091503 0.0549,-0.1089306 a 0.38430933,0.38430933 0 0 1 0.163832,-0.027015 m 8.2765934,0.026143 c 0.04183,0.012201 0.05055,0.061002 0.08192,0.082788 0.02352,0.015686 0.05577,0.010457 0.08192,0.026143 0.03051,0.020043 0.04706,0.052287 0.08192,0.082788 0.0488,0.040958 0.122002,0.076688 0.191718,0.1089318 0.01307,0.00872 0.03748,0.020043 0.05403,0.026143 0.04792,0.062744 0.09064,0.1263603 0.135946,0.1917191 0.0053,0.034859 0.01045,0.085402 0.02702,0.1080602 0.04532,0.061874 0.114167,0.1150319 0.163832,0.191719 0,0.071459 0.03137,0.1150319 0.08192,0.1350747 0.06362,0.1080603 0.130719,0.2161195 0.191719,0.3267936 0.0244,0.050545 0.02963,0.1124176 0.05403,0.1638322 -0.01743,0 -0.03747,0.00866 -0.05489,0 -0.05752,-0.1010886 -0.356422,-0.121131 -0.381694,0.026143 -0.0113,0.066231 0.04357,0.1533759 -0.05491,0.1647048 -0.061,0.00878 -0.133331,-0.06361 -0.217863,-0.081917 -0.03485,-0.00866 -0.08192,0.012201 -0.108925,0 -0.06361,-0.02178 -0.05403,-0.097603 -0.108926,-0.1359468 a 0.476683,0.476683 0 0 0 -0.163833,-0.054908 h -0.08192 c -0.03921,-0.00866 -0.102831,-0.00866 -0.135947,-0.027021 -0.03137,-0.019172 -0.101088,-0.05403 -0.108925,-0.081917 -0.0122,-0.043573 0.07843,-0.099346 0.08192,-0.1359461 0.0017,-0.026143 -0.02004,-0.039216 -0.02614,-0.081917 -0.0052,-0.025272 0.0043,-0.064488 0,-0.081917 -0.0087,-0.029629 -0.06274,-0.05403 -0.109803,-0.054902 -0.04183,0 -0.0732,0.026143 -0.108938,0.027015 -0.05141,8.715e-4 -0.154246,-0.032244 -0.217862,-0.026143 -0.03748,0 -0.07233,0.02353 -0.10806,0.026143 -0.10109,0.00872 -0.166448,-0.00872 -0.244878,0 a 0.66230179,0.66230179 0 0 0 -0.217863,0.054902 c -0.02702,0.012201 -0.04706,0.037472 -0.08192,0.054902 a 0.53942738,0.53942738 0 0 1 -0.05489,0.027015 c -0.03312,0.014815 -0.07844,0.046187 -0.108938,0.054902 -0.04532,0.011335 -0.108061,0 -0.191719,0 -0.05839,0 -0.162089,-0.012201 -0.162961,-0.081917 -8.71e-4,-0.1071888 0.197819,-0.062744 0.299779,-0.081917 0.03834,-0.00872 0.06361,-0.054902 0.108926,-0.081917 0.0218,-0.013072 0.034,-0.013072 0.05491,-0.026143 0.03485,-0.025272 0.103697,-0.081917 0.108925,-0.1098032 0.0052,-0.026143 -0.03049,-0.062744 -0.02701,-0.081917 0.0043,-0.024401 0.04967,-0.050545 0.08192,-0.081917 0.0488,-0.04793 0.07582,-0.1045745 0.135947,-0.1359461 0.04096,-0.021786 0.11764,-0.020915 0.135945,-0.054902 0.0043,-0.037472 -8.71e-4,-0.04793 0,-0.081917 0.02528,-0.02353 0.03312,-0.050545 0.05489,-0.054902 0.06274,-0.013944 0.117652,0.030501 0.190847,0.027015 a 0.25272042,0.25272042 0 0 0 0.108061,-0.026143 c 0.02875,-0.020043 0.05403,-0.040087 0.08192,-0.055773 0.03049,-0.015686 0.04444,-0.051415 0.08192,-0.054902 0.09149,-0.00872 0.14902,0.1080603 0.19172,0.1638326 0.03485,0.046187 0.13246,0.1045744 0.189977,0.1359462 0.03224,0.018301 0.0732,0.039216 0.108926,0.054902 0.07582,0.034858 0.215247,0.1437892 0.217861,0.2178623 0.0017,0.036601 -0.03312,0.047058 -0.02614,0.081917 0.05664,0.00959 0.106317,-0.051415 0.10806,-0.1089317 8.72e-4,-0.034858 -0.034,-0.043573 -0.02615,-0.081917 0.02615,-0.057516 0.128103,-0.00872 0.162962,-0.026143 -0.0062,-0.066231 -0.108061,-0.075817 -0.163834,-0.109802 -0.02963,-0.017429 -0.05055,-0.04183 -0.08192,-0.054902 -0.04532,-0.017429 -0.101088,-0.027887 -0.135947,-0.054902 -0.03312,-0.025272 -0.04968,-0.069716 -0.08192,-0.1089318 -0.04706,-0.055773 -0.137688,-0.063616 -0.108925,-0.1908474 0.01395,-0.019171 0.03224,-0.06013 0.05489,-0.054902 m -7.6779204,0.1917368 h 0.08192 c 0.02963,0 0.06972,-0.016558 0.08192,0 -0.01917,0.075817 -0.184747,0.05403 -0.244877,0.026143 0.0035,-0.028758 0.04357,-0.02353 0.08192,-0.026143 m -0.272765,0.1350747 c 0.02004,0 0.03399,-0.00872 0.0549,0 a 0.61872931,0.61872931 0 0 1 -0.217864,0.1089318 c -0.04444,0.013943 -0.101089,0.021786 -0.108926,-0.026143 -0.0096,-0.061002 0.04095,-0.049673 0.08192,-0.055773 0.05054,-0.00872 0.130717,-0.025272 0.190847,-0.026143 m 7.5698484,0 c -0.03747,0.011323 -0.05752,0.097603 0,0.1080604 0.02615,-0.015686 0.034,-0.059259 0.02615,-0.1089318 -0.01395,-0.015686 -0.01395,0 -0.02615,0 m -0.02702,0.1638326 c -0.01829,0.00872 -0.03485,0.00872 -0.05489,0.027015 0,0.065359 0.01308,0.1071888 0,0.1638325 0.03748,0.071459 0.116774,0.022658 0.135947,-0.027015 0.02265,-0.1211315 -0.02615,-0.1786472 -0.08192,-0.1638325 m 0.380824,0.3267936 c 0.04357,0.069716 0.122873,0.1193879 0.217862,0.1359462 0.03486,-0.026143 0.03834,-0.091503 0.05489,-0.1359462 h -0.135947 c -0.05141,0 -0.106318,-0.0244 -0.135946,0 M -13.830855,11.112748 c 0.142918,-0.0087 0.184747,0.187362 0.299778,0.244007 0.02876,0.01568 0.07146,0.02004 0.108932,0.02789 0.0305,0.0087 0.05229,0.01743 0.08192,0.02615 0.061,0.0218 0.141175,0.0088 0.190848,0.02789 0.07407,0.03312 0.127231,0.179518 0.190847,0.217862 0.0035,0.0366 -0.01134,0.08017 0,0.10806 0.0305,0.04096 0.08627,0.05577 0.135947,0.08192 0.05926,0.03224 0.08017,0.110669 0.135946,0.135946 0.01917,0.0087 0.05141,-0.0088 0.08192,0 0.07669,0.02352 0.0976,0.128103 0.163832,0.108926 0.04357,-0.0122 0.04794,-0.06797 0.05491,-0.108926 0.02876,-0.03137 0.06449,-0.08105 0.108925,-0.08192 0.07232,0 0.08278,0.06537 0.108926,0.135946 0.01482,0.04009 0.04357,0.09412 0.05491,0.135945 0.01743,0.07233 0.01481,0.283222 0,0.326795 -0.01831,0.05229 -0.09237,0.07756 -0.135947,0.135946 -0.02092,0.02615 -0.03834,0.061 -0.0549,0.08192 -0.02789,0.03486 -0.061,0.04966 -0.08192,0.08192 -0.0122,0.01743 -0.01569,0.05752 -0.02702,0.08192 -0.03486,0.07407 -0.08366,0.128974 -0.05491,0.217862 0.0122,0.0366 0.05403,0.06623 0.05491,0.108926 0,0.05054 -0.100222,0.08105 -0.108937,0.135947 -0.0061,0.04096 0.04183,0.109803 0.05491,0.163832 0.0087,0.04096 0.08454,0.08192 0.108925,0.108926 0.04096,0.0462 0.07146,0.104574 0.108926,0.162961 0.07408,0.113289 0.118518,0.244005 0.190848,0.353808 0.03747,0.05752 0.110669,0.104575 0.135946,0.163832 0.01308,0.03051 -0.0122,0.08192 0,0.108938 0.04183,0.09412 0.231806,0.19869 0.326794,0.244878 0.04357,0.02177 0.09586,0 0.135946,0.02702 a 0.8008623,0.8008623 0 0 1 0.217863,0.190846 c 0.02789,0.0488 0.04095,0.16819 0.0549,0.244006 0.01743,0.102832 -0.0043,0.189977 0,0.300651 0.0035,0.06013 0.02614,0.103697 0.02614,0.163832 0,0.02092 0.0018,0.061 0,0.08192 -8.71e-4,0.07234 0.007,0.143788 0,0.217862 a 0.6483586,0.6483586 0 0 0 0,0.10806 c 0.0043,0.03572 0.02527,0.04967 0.02789,0.08192 0.0017,0.03485 -0.03051,0.08278 -0.02702,0.108926 0.0078,0.0732 0.0671,0.123745 0.08192,0.191718 0.0113,0.05229 0.03399,0.18039 0.02614,0.244006 -0.0035,0.03486 -0.02092,0.07232 -0.02614,0.108926 -0.0035,0.02876 0.0043,0.05403 0,0.08192 -0.0053,0.04096 -0.02963,0.0706 -0.02702,0.108937 0.0053,0.07843 0.06972,0.139432 0.08192,0.217862 0.0043,0.02614 -8.71e-4,0.05664 0,0.08192 0,0.02352 0.02005,0.03312 0.02614,0.05491 a 6.081412,6.081412 0 0 1 -0.65359,-0.435763 6.1563566,6.1563566 0 0 1 -0.570799,-0.490625 l -0.02702,-0.02615 a 6.3001457,6.3001457 0 0 1 -0.517642,-0.571664 c -0.09063,-0.115032 -0.189975,-0.232678 -0.272763,-0.353809 -0.0488,-0.07232 -0.09063,-0.142918 -0.135946,-0.217862 -0.02789,-0.04444 -0.0549,-0.09064 -0.08192,-0.135947 a 5.7315248,5.7315248 0 0 1 -0.217827,-0.408712 c -0.04357,-0.08714 -0.07059,-0.181261 -0.108931,-0.272764 a 5.8753141,5.8753141 0 0 1 -0.244878,-0.653588 c -0.04706,-0.160346 -0.07494,-0.322435 -0.108931,-0.489755 -0.02614,-0.12723 -0.06362,-0.251848 -0.08192,-0.381694 a 5.7193246,5.7193246 0 0 1 -0.02702,-0.217862 6.193829,6.193829 0 0 1 0.02789,-1.38822 v -0.02615 c 0.0549,0 0.129846,-0.08105 0.190848,-0.08279 m 2.342456,0.653587 c 0.05577,-0.02614 0.0732,0.101955 0.02614,0.108926 -0.04357,0.0088 -0.06972,-0.08889 -0.02614,-0.108926"
       fill="#808080"
       id="path50017"
       style="stroke-width:0.435724" /></g><path
     d="m 8.6412934,20.971092 2.3708216,-5.3717 c 0.0349,-0.07274 0.04498,-0.156778 0.02285,-0.239589 -0.04964,-0.185282 -0.243765,-0.294879 -0.433471,-0.244012 a 0.3565571,0.3565571 0 0 0 -0.200763,0.13933 L 6.8221416,19.946144 A 1.036006,1.036006 0 0 0 6.620887,20.870096 c 0.1496503,0.557811 0.7320353,0.885864 1.3011509,0.733265 a 1.0718829,1.0718829 0 0 0 0.7192575,-0.632269 z"
     fill="#ffffff"
     id="path29011"
     style="stroke-width:0.245732" /><rect
     transform="scale(-1,1)"
     x="-14.784595"
     y="20.074169"
     width="0.24573196"
     height="1.7201238"
     rx="0.12286598"
     fill-rule="evenodd"
     opacity="0.15"
     id="rect29013"
     style="stroke-width:0.245732" /><rect
     transform="scale(-1,1)"
     x="-14.29313"
     y="20.074169"
     width="0.24573196"
     height="1.7201238"
     rx="0.12286598"
     fill-rule="evenodd"
     opacity="0.15"
     id="rect29015"
     style="stroke-width:0.245732" /><rect
     transform="scale(-1,1)"
     x="-13.801664"
     y="20.074169"
     width="0.24573196"
     height="1.7201238"
     rx="0.12286598"
     fill-rule="evenodd"
     opacity="0.15"
     id="rect29017"
     style="stroke-width:0.245732" /><rect
     transform="scale(-1,1)"
     x="-13.3102"
     y="20.074169"
     width="0.24573196"
     height="1.7201238"
     rx="0.12286598"
     fill-rule="evenodd"
     opacity="0.15"
     id="rect29019"
     style="stroke-width:0.245732" /><rect
     transform="scale(-1,1)"
     x="-12.818735"
     y="20.074169"
     width="0.24573196"
     height="1.7201238"
     rx="0.12286598"
     fill-rule="evenodd"
     opacity="0.15"
     id="rect29021"
     style="stroke-width:0.245732" /><path
     d="m 16.504716,20.934232 a 0.368598,0.368598 0 1 0 -0.737196,0 0.368598,0.368598 0 0 0 0.737196,0 z M 8.1498291,20.565634 a 0.49146403,0.49146403 0 1 1 -0.982928,0 0.49146403,0.49146403 0 0 1 0.982928,0 z"
     opacity="0.15"
     id="path29023"
     style="stroke-width:0.245732" /><path
     d="m 7.9040969,20.565634 a 0.24573197,0.24573197 0 1 0 -0.4914636,0 0.24573197,0.24573197 0 0 0 0.4914636,0 z"
     opacity="0.35"
     id="path29025"
     style="stroke-width:0.245732" /></svg>
