<?xml version="1.0" encoding="UTF-8" standalone="no"?>
<svg
   width="24"
   height="24"
   version="1.1"
   id="svg6"
   sodipodi:docname="yast-apparmor.svg"
   inkscape:version="1.3 (0e150ed6c4, 2023-07-21)"
   xmlns:inkscape="http://www.inkscape.org/namespaces/inkscape"
   xmlns:sodipodi="http://sodipodi.sourceforge.net/DTD/sodipodi-0.dtd"
   xmlns:xlink="http://www.w3.org/1999/xlink"
   xmlns="http://www.w3.org/2000/svg"
   xmlns:svg="http://www.w3.org/2000/svg">
  <defs
     id="defs6">
    <radialGradient
       fx="0"
       fy="0"
       cx="0"
       cy="0"
       r="1"
       gradientUnits="userSpaceOnUse"
       gradientTransform="matrix(0,16.5,-16.5,0,8.999651,0.749985)"
       spreadMethod="pad"
       id="radialGradient868-3">
      <stop
         style="stop-opacity:1;stop-color:#fafafa"
         offset="0"
         id="stop864-6" />
      <stop
         style="stop-opacity:1;stop-color:#c0c0c0"
         offset="1"
         id="stop866-7" />
    </radialGradient>
    <linearGradient
       inkscape:collect="always"
       xlink:href="#a"
       id="linearGradient11"
       gradientUnits="userSpaceOnUse"
       x1="32"
       y1="54"
       x2="32"
       y2="9" />
    <linearGradient
       inkscape:collect="always"
       xlink:href="#a"
       id="linearGradient12"
       gradientUnits="userSpaceOnUse"
       x1="28.385"
       y1="27.846001"
       x2="28.385"
       y2="3.615" />
  </defs>
  <sodipodi:namedview
     id="namedview6"
     pagecolor="#ffffff"
     bordercolor="#000000"
     borderopacity="0.25"
     inkscape:showpageshadow="2"
     inkscape:pageopacity="0.0"
     inkscape:pagecheckerboard="0"
     inkscape:deskcolor="#d1d1d1"
     inkscape:zoom="9.6875"
     inkscape:cx="31.948387"
     inkscape:cy="31.948387"
     inkscape:window-width="2560"
     inkscape:window-height="998"
     inkscape:window-x="0"
     inkscape:window-y="0"
     inkscape:window-maximized="1"
     inkscape:current-layer="svg6" />
  <linearGradient
     id="c"
     x1="32"
     x2="32"
     y1="54"
     y2="9"
     gradientUnits="userSpaceOnUse"
     xlink:href="#a" />
  <linearGradient
     id="b"
     x1="28.385"
     x2="28.385"
     y1="27.846001"
     y2="3.615"
     gradientUnits="userSpaceOnUse"
     xlink:href="#a" />
  <linearGradient
     id="a">
    <stop
       stop-color="#eff0f1"
       offset="0"
       id="stop1" />
    <stop
       stop-color="#fcfcfc"
       offset="1"
       id="stop2" />
  </linearGradient>
  <g
     id="g854"
     transform="matrix(1.3333333,0,0,1.3333333,-4.5244194e-4,-3.5228353e-5)">
    <g
       id="g856">
      <g
         id="g862">
        <path
           d="m 7.195,0.836 c 0.09,0 0.176,-0.012 0.258,-0.035 1.078,-0.071 2.156,-0.067 3.231,0.008 0.976,0.078 1.921,0.289 2.836,0.636 1.519,0.625 2.558,1.711 3.121,3.254 0.316,0.93 0.507,1.887 0.566,2.867 0.078,1.235 0.051,2.465 -0.086,3.696 -0.105,0.863 -0.328,1.691 -0.672,2.488 -0.637,1.383 -1.672,2.336 -3.101,2.859 C 12.191,17 11,17.207 9.773,17.227 8.398,17.301 7.035,17.195 5.684,16.918 3.203,16.367 1.668,14.852 1.09,12.375 0.844,11.262 0.73,10.133 0.754,8.992 0.727,7.781 0.855,6.582 1.141,5.402 1.75,3.09 3.219,1.656 5.547,1.102 6.09,0.969 6.641,0.879 7.195,0.836 Z"
           style="fill:url(#radialGradient868-3);fill-rule:evenodd;stroke:none"
           id="path870" />
      </g>
    </g>
  </g>
  <g
     id="g12"
     transform="matrix(0.25,0,0,0.25,1.1744435,2.6580645)">
    <path
       d="m 43.302226,9.3677419 c -6.82,3.6120001 -13.64,5.0880001 -20.46,6.4600001 v 26.926 c 0,7.54 11.052,17.836 20.46,22.614 9.408,-4.778 20.46,-15.074 20.46,-22.614 v -26.924 c -6.82,-1.374 -13.64,-2.85 -20.46,-6.4620001 z"
       fill="#2a4f5d"
       id="path7" />
    <g
       stroke-width="0.269"
       id="g9"
       transform="translate(11.303226,5.3677419)">
      <path
         d="M 41.503,10.838 22.529,48.786 c 2.946,2.746 6.254,5.272 9.47,6.906 7.96,-4.042 17.23,-13.006 17.23,-19.384 V 12.616 a 122.196,122.196 0 0 1 -7.726,-1.778 z"
         fill="#d55443"
         id="path8" />
      <path
         d="M 16,3.615 C 13.114,5.144 10.27,5.727 7.385,6.308 v 11.846 c 0,1.9 1.707,4.215 3.88,6.24 L 20.752,5.419 C 19.172,4.993 17.592,4.459 16,3.615 Z"
         fill="url(#b)"
         transform="matrix(2,0,0,2,-0.001,0)"
         id="path9"
         style="fill:url(#linearGradient12)" />
    </g>
    <g
       stroke-width="0.928"
       id="g11"
       transform="translate(11.303226,5.3677419)">
      <path
         transform="matrix(1.07692,0,0,1.07692,-2.461,-2.46)"
         d="m 24,14 16,32 8,-16 h -4 l -1,2 H 37 L 28,14 Z m 14,20 h 4 l -2,4 z"
         fill="url(#c)"
         id="path10"
         style="fill:url(#linearGradient11)" />
      <path
         d="m 23.385,12.617 -8.615,17.23 h 4.307 l 1.077,-2.153 h 6.462 L 35.77,46 h 4.307 z m 0,8.615 2.154,4.308 H 21.23 Z"
         fill="#d55443"
         id="path11" />
    </g>
  </g>
</svg>
