<?xml version="1.0" encoding="UTF-8" standalone="no"?>
<svg
   width="24"
   height="24"
   version="1.1"
   id="svg7778"
   sodipodi:docname="yast2.svg"
   inkscape:version="1.2.2 (b0a8486541, 2022-12-01)"
   xmlns:inkscape="http://www.inkscape.org/namespaces/inkscape"
   xmlns:sodipodi="http://sodipodi.sourceforge.net/DTD/sodipodi-0.dtd"
   xmlns="http://www.w3.org/2000/svg"
   xmlns:svg="http://www.w3.org/2000/svg"
   xmlns:sketch="http://www.bohemiancoding.com/sketch/ns">
  <defs
     id="defs7782" />
  <sodipodi:namedview
     id="namedview7780"
     pagecolor="#ffffff"
     bordercolor="#000000"
     borderopacity="0.25"
     inkscape:showpageshadow="2"
     inkscape:pageopacity="0.0"
     inkscape:pagecheckerboard="0"
     inkscape:deskcolor="#d1d1d1"
     showgrid="false"
     inkscape:zoom="6.828125"
     inkscape:cx="11.8627"
     inkscape:cy="31.633867"
     inkscape:window-width="2560"
     inkscape:window-height="998"
     inkscape:window-x="1680"
     inkscape:window-y="0"
     inkscape:window-maximized="1"
     inkscape:current-layer="svg7778" />
  <path
     d="M 12,1 C 2,1 1,6 1,12 1,20 4,23 12,23 20,23 23,20 23,12 23,6 22,1 12,1 Z"
     sketch:type="MSShapeGroup"
     id="path6"
     style="font-variation-settings:normal;display:inline;vector-effect:none;fill:#ececec;fill-opacity:1;stroke-width:1.11627;stroke-linecap:butt;stroke-linejoin:miter;stroke-miterlimit:4;stroke-dasharray:none;stroke-dashoffset:0;stroke-opacity:1;-inkscape-stroke:none;stop-color:#000000"
     sodipodi:nodetypes="sssss"
     inkscape:label="Shape" />
  <g
     id="g50062"
     transform="matrix(0.31817459,0,0,0.31817459,15.998051,-1.9301482)">
    <path
       d="m -8.5695901,37.779961 h 12.004 V 49.78396 h -12.004 z"
       fill="#7cd1cc"
       fill-rule="evenodd"
       id="path50056" />
    <path
       d="m -32.56559,21.781961 v 10 h 10 v -10 z m 1.996,2 h 2 v 2 h 2 v -2 h 2 v 2 h -2 v 2 h 2 v 2 h -2 v -2 h -2 v 2 h -2 z m 12,-2.001 v 2 H 7.4304099 v -2 z m 0,6 v 2 H 7.4304099 v -2 z m -13.996,6 v 2 h 16 v -2 z m 20,0 V 53.78096 H 7.4344099 V 33.780961 Z m 1.998,2 H 5.4324099 V 51.78096 H -10.56759 Z m -21.998,3.999999 v 2 h 16 v -2 z m 0,6 v 2 h 16 v -2 z m 0,6 v 2 h 16 v -2 z m 0,6.001 v 2 H 7.4344099 v -2 z m 0,6 v 2 H 7.4344099 v -2 z"
       fill="#b3b3b3"
       fill-rule="evenodd"
       id="path50058" />
  </g>
</svg>
