<?xml version="1.0" encoding="UTF-8" standalone="no"?>
<svg
   width="24"
   height="24"
   viewBox="0 0 24 24"
   fill="none"
   version="1.1"
   id="svg154"
   sodipodi:docname="preferences-system-linux.svg"
   inkscape:version="1.2.2 (b0a8486541, 2022-12-01)"
   xmlns:inkscape="http://www.inkscape.org/namespaces/inkscape"
   xmlns:sodipodi="http://sodipodi.sourceforge.net/DTD/sodipodi-0.dtd"
   xmlns:xlink="http://www.w3.org/1999/xlink"
   xmlns="http://www.w3.org/2000/svg"
   xmlns:svg="http://www.w3.org/2000/svg"
   xmlns:sketch="http://www.bohemiancoding.com/sketch/ns">
  <sodipodi:namedview
     id="namedview156"
     pagecolor="#ffffff"
     bordercolor="#000000"
     borderopacity="1"
     inkscape:showpageshadow="0"
     inkscape:pageopacity="1"
     inkscape:pagecheckerboard="false"
     inkscape:deskcolor="#ffffff"
     showgrid="true"
     inkscape:zoom="22.627417"
     inkscape:cx="8.9714173"
     inkscape:cy="16.152971"
     inkscape:window-width="1920"
     inkscape:window-height="1052"
     inkscape:window-x="0"
     inkscape:window-y="0"
     inkscape:window-maximized="1"
     inkscape:current-layer="svg154"
     showguides="true"
     guidecolor="#ff0000"
     guideopacity="1"
     inkscape:lockguides="true"
     showborder="true"
     borderlayer="true">
    <inkscape:grid
       type="xygrid"
       id="grid356"
       color="#000000"
       opacity="0.10196078"
       empcolor="#000000"
       empopacity="0.10196078"
       snapvisiblegridlinesonly="true"
       enabled="true"
       visible="true"
       dotted="false" />
    <sodipodi:guide
       position="4,12"
       orientation="-1,0"
       id="guide764"
       inkscape:locked="true"
       inkscape:label="left-circle"
       inkscape:color="rgb(255,0,0)" />
    <sodipodi:guide
       position="5,12"
       orientation="-1,0"
       id="guide2218"
       inkscape:locked="true"
       inkscape:label="left-square"
       inkscape:color="rgb(255,0,0)" />
    <sodipodi:guide
       position="12,20"
       orientation="0,1"
       id="guide2220"
       inkscape:locked="true"
       inkscape:label="top-circle"
       inkscape:color="rgb(255,0,0)" />
    <sodipodi:guide
       position="12,5"
       orientation="0,1"
       id="guide2222"
       inkscape:locked="true"
       inkscape:label="bottom-square"
       inkscape:color="rgb(255,0,0)" />
    <sodipodi:guide
       position="12,4"
       orientation="0,1"
       id="guide2224"
       inkscape:locked="true"
       inkscape:label="bottom-circle"
       inkscape:color="rgb(255,0,0)" />
    <sodipodi:guide
       position="19,12"
       orientation="-1,0"
       id="guide2226"
       inkscape:locked="true"
       inkscape:label="right-square"
       inkscape:color="rgb(255,0,0)" />
    <sodipodi:guide
       position="20,12"
       orientation="-1,0"
       id="guide2228"
       inkscape:locked="true"
       inkscape:label="right-circle"
       inkscape:color="rgb(255,0,0)" />
    <sodipodi:guide
       position="12,19"
       orientation="0,1"
       id="guide2230"
       inkscape:locked="true"
       inkscape:label="top-square"
       inkscape:color="rgb(255,0,0)" />
    <sodipodi:guide
       position="12,12"
       orientation="1,0"
       id="guide765"
       inkscape:locked="true" />
    <sodipodi:guide
       position="12,12"
       orientation="0,-1"
       id="guide767"
       inkscape:locked="true" />
    <sodipodi:guide
       position="12,12"
       orientation="0.70710678,0.70710678"
       id="guide2266"
       inkscape:locked="true"
       inkscape:label=""
       inkscape:color="rgb(255,0,0)" />
    <sodipodi:guide
       position="12,12"
       orientation="-0.70710678,0.70710678"
       id="guide2994"
       inkscape:locked="true"
       inkscape:label=""
       inkscape:color="rgb(255,0,0)" />
    <sodipodi:guide
       position="3,12"
       orientation="-1,0"
       id="guide131543"
       inkscape:locked="true"
       inkscape:label="left-horizontal"
       inkscape:color="rgb(255,0,0)" />
    <sodipodi:guide
       position="12,21"
       orientation="0,1"
       id="guide131545"
       inkscape:locked="true"
       inkscape:label="top-vertical"
       inkscape:color="rgb(255,0,0)" />
    <sodipodi:guide
       position="21,12"
       orientation="-1,0"
       id="guide131547"
       inkscape:locked="true"
       inkscape:label="right-horizontal"
       inkscape:color="rgb(255,0,0)" />
    <sodipodi:guide
       position="12,3"
       orientation="0,1"
       id="guide131549"
       inkscape:locked="true"
       inkscape:label="bottom-vertical"
       inkscape:color="rgb(255,0,0)" />
  </sodipodi:namedview>
  <defs
     id="defs152">
    <radialGradient
       id="radialGradient66380"
       cx="0"
       cy="0"
       r="1"
       gradientUnits="userSpaceOnUse"
       gradientTransform="translate(12 1) rotate(90) scale(22)">
      <stop
         stop-color="#8FC8FF"
         id="stop66376"
         offset="0"
         style="stop-color:#68a8f5;stop-opacity:1;" />
      <stop
         offset="1"
         stop-color="#0056A8"
         id="stop66378"
         style="stop-color:#cccccc;stop-opacity:1;" />
    </radialGradient>
    <radialGradient
       id="paint0_radial_29_23"
       cx="0"
       cy="0"
       r="1"
       gradientUnits="userSpaceOnUse"
       gradientTransform="translate(12 1) rotate(90) scale(22)">
      <stop
         stop-color="#8FC8FF"
         id="stop147"
         offset="0"
         style="stop-color:#f6f6f6;stop-opacity:1;" />
      <stop
         offset="1"
         stop-color="#0056A8"
         id="stop149"
         style="stop-color:#cfcfcf;stop-opacity:1;" />
    </radialGradient>
    <radialGradient
       id="paint0_radial_10_2"
       cx="0"
       cy="0"
       r="1"
       gradientUnits="userSpaceOnUse"
       gradientTransform="matrix(-10.999959,21.999967,-21.999967,-10.999959,17.5,1)"
       xlink:href="#paint0_radial_29_23">
      <stop
         stop-color="#777777"
         id="stop2847" />
      <stop
         offset="1"
         stop-color="#222222"
         id="stop2849" />
    </radialGradient>
    <radialGradient
       fx="0"
       fy="0"
       cx="0"
       cy="0"
       r="1"
       gradientUnits="userSpaceOnUse"
       gradientTransform="matrix(0,16.5,-16.5,0,8.999996,0.750012)"
       spreadMethod="pad"
       id="radialGradient3666-6">
      <stop
         style="stop-color:#ffffff;stop-opacity:1;"
         offset="0"
         id="stop3662-7" />
      <stop
         style="stop-color:#6a7cf1;stop-opacity:1;"
         offset="1"
         id="stop3664-5" />
    </radialGradient>
    <linearGradient
       id="a"
       x2="0"
       y1="1"
       y2="47"
       gradientTransform="matrix(1.1739,0,0,1.1739,3.826,3.826)"
       gradientUnits="userSpaceOnUse">
      <stop
         stop-color="#9584f4"
         offset="0"
         id="stop76422" />
      <stop
         stop-color="#8471f2"
         offset="1"
         id="stop76424" />
    </linearGradient>
    <linearGradient
       id="a-5"
       x1="7.9000001"
       x2="56.169998"
       y1="19.867001"
       y2="19.867001"
       gradientUnits="userSpaceOnUse">
      <stop
         stop-color="#fff"
         stop-opacity=".454"
         offset="0"
         id="stop101157" />
      <stop
         stop-color="#fff"
         stop-opacity=".276"
         offset="1"
         id="stop101159" />
    </linearGradient>
    <clipPath
       id="a-3">
      <circle
         cx="8.467"
         cy="288.53"
         r="6.8790002"
         fill="#d86eb0"
         stroke-opacity="0.039"
         stroke-width="0.491"
         style="paint-order:stroke markers fill"
         id="circle105957" />
    </clipPath>
    <filter
       id="a-6"
       x="-0.10481395"
       y="-0.11112434"
       width="1.2096279"
       height="1.2222487"
       color-interpolation-filters="sRGB">
      <feGaussianBlur
         stdDeviation=".392"
         id="feGaussianBlur146622" />
    </filter>
    <filter
       id="b"
       x="-0.069428573"
       y="-0.24300001"
       width="1.1388571"
       height="1.486"
       color-interpolation-filters="sRGB">
      <feGaussianBlur
         stdDeviation="1.215"
         id="feGaussianBlur163335" />
    </filter>
    <linearGradient
       id="c"
       x2="0"
       y1="28"
       y2="20"
       gradientTransform="matrix(3.4116249,0,0,3.4116249,-49.878996,-49.878996)"
       gradientUnits="userSpaceOnUse">
      <stop
         stop-color="#5c431c"
         offset="0"
         id="stop163330"
         style="stop-color:#010100;stop-opacity:1;" />
      <stop
         stop-color="#6b4e21"
         offset="1"
         id="stop163332" />
    </linearGradient>
  </defs>
  <path
     d="M 50,5 C 9.0909092,5 5,25.454546 5,50 5,82.727274 17.272728,95 50,95 82.727274,95 95,82.727274 95,50 95,25.454546 90.909093,5 50,5 Z"
     sketch:type="MSShapeGroup"
     id="path6"
     style="font-variation-settings:normal;display:inline;opacity:1;vector-effect:none;fill:#f7f7f8;fill-opacity:1;stroke-width:4.56656;stroke-linecap:butt;stroke-linejoin:miter;stroke-miterlimit:4;stroke-dasharray:none;stroke-dashoffset:0;stroke-opacity:1;-inkscape-stroke:none;stop-color:#000000;stop-opacity:1"
     sodipodi:nodetypes="sssss"
     inkscape:label="Shape"
     transform="matrix(0.24444444,0,0,0.24444444,-0.22222222,-0.22222222)" />
  <g
     transform="matrix(0.28571737,0,0,0.28571737,4.1200819,2.2855154)"
     id="g196481">
    <path
       d="m 20.254,22.904 c 0.72,-2.852 0.026,-5.884 0.126,-8.824 0.22,-6.42 3.784,-7.876 7.438,-8.066 4.192,-0.22 9.154,2.264 9.454,8.32 0.142,2.898 -0.37,5.892 0.378,8.696 1.742,6.54 9.22,11.262 9.328,18.026 0.1,6.428 -2.86,14.004 -8.32,17.396 -2.82,1.752 -6.646,-0.35 -9.96,-0.126 -3.686,0.252 -7.786,3.526 -10.966,1.64 C 11.96,56.54 10.368,47.756 10.8,41.056 11.24,34.248 18.584,29.52 20.254,22.904 Z"
       fill="#2f3133"
       id="path196465" />
    <ellipse
       cx="30.52"
       cy="17.563999"
       rx="2.964"
       ry="3.832"
       fill="#fcfcfc"
       fill-opacity="0.941"
       id="ellipse196467" />
    <ellipse
       cx="23.5"
       cy="17.698"
       rx="2.0940001"
       ry="3.1199999"
       fill="#fcfcfc"
       fill-opacity="0.941"
       id="ellipse196469" />
    <ellipse
       cx="30.152"
       cy="18.188"
       rx="1.214"
       ry="2.006"
       fill="#232629"
       id="ellipse196471" />
    <ellipse
       cx="23.51"
       cy="18.188"
       rx="0.92400002"
       ry="1.494"
       fill="#232629"
       id="ellipse196473" />
    <path
       d="m 30.128,21.514 a 10.136,10.136 0 0 0 -1.09,0.008 c -2.46,0.144 -5.096,1.11 -6.428,2.28 -2.132,1.874 -0.868,3.696 -1.786,6.328 -0.918,2.632 -3.228,6.076 -3.92,9.36 -0.28,1.326 -0.636,2.652 -0.88,3.984 l 6.586,8.048 c 1.294,1.58 -2.082,0.994 -5.222,-1.04 2.228,3.134 6.648,6.24 11.012,5.946 4.648,-0.312 10.136,-5.172 11.892,-9.146 -1.704,-0.288 -3.36,-2.852 -1.996,-4.762 0.474,-0.662 1.492,-0.72 2.366,-0.58 -0.526,-2.036 -1.574,-3.86 -2.1,-5.392 -0.912,-2.672 -1.972,-3.42 -2.94,-5.792 -0.97,-2.372 0.054,-6.76 -2.676,-8.468 -0.768,-0.48 -1.75,-0.72 -2.818,-0.774 z"
       fill="#f7f7f8"
       id="path196475" />
    <g
       fill="#f7a931"
       id="g196479">
      <path
         d="m 9.666,46.73 c 0.974,-0.78 1.43,-2.366 2.646,-2.648 0.952,-0.22 2.02,0.326 2.774,0.946 1.722,1.416 1.984,4.028 3.34,5.8 0.904,1.178 2.436,1.848 3.152,3.15 0.746,1.36 1.708,3.156 1.008,4.538 -0.944,1.862 -3.648,2.44 -5.736,2.52 -1.268,0.05 -2.37,-0.92 -3.592,-1.26 C 11.478,59.28 9.424,59.586 7.838,58.642 6.58,57.896 5.092,56.76 5,55.302 4.962,54.726 5.805,54.412 5.945,53.852 6.317,52.38 4.891,50.672 5.567,49.312 6.287,47.868 8.403,47.738 9.665,46.73 Z M 37.86,44.538 c -0.402,0.36 -0.742,0.814 -0.99,1.264 -1.076,1.954 -0.35,4.48 -0.954,6.626 -0.404,1.43 -1.578,2.62 -1.76,4.092 -0.19,1.54 -0.42,3.564 0.742,4.59 1.568,1.38 4.294,0.914 6.262,0.216 1.198,-0.424 1.86,-1.732 2.87,-2.5 1.468,-1.12 3.49,-1.6 4.614,-3.062 0.89,-1.16 1.854,-2.764 1.4,-4.152 -0.18,-0.548 -1.076,-0.53 -1.414,-0.998 -0.89,-1.23 -0.2,-3.34 -1.33,-4.352 -0.84,-0.75 -2.074,-0.664 -3.266,-0.696 C 43.458,46.8 41.582,47.64 40.292,47.282 39.2,46.978 38.112,45.736 37.86,44.538 Z M 26.462,18.304 c 1.318,-0.07 2.53,0.784 3.72,1.354 1.15,0.554 3.114,0.72 3.276,1.986 0.186,1.438 -1.84,2.286 -3.024,3.12 -1.058,0.746 -2.238,1.62 -3.53,1.608 -1.306,-0.014 -2.462,-0.95 -3.53,-1.702 -0.88,-0.62 -2.266,-1.192 -2.3,-2.27 -0.038,-1.152 1.38,-1.886 2.3,-2.584 0.912,-0.692 1.944,-1.452 3.088,-1.512 z"
         id="path196477" />
    </g>
  </g>
</svg>
