<?xml version="1.0" encoding="UTF-8" standalone="no"?>
<svg
   width="24"
   height="24"
   version="1.1"
   id="svg7"
   sodipodi:docname="yast-device-tree.svg"
   inkscape:version="1.3 (0e150ed6c4, 2023-07-21)"
   xmlns:inkscape="http://www.inkscape.org/namespaces/inkscape"
   xmlns:sodipodi="http://sodipodi.sourceforge.net/DTD/sodipodi-0.dtd"
   xmlns="http://www.w3.org/2000/svg"
   xmlns:svg="http://www.w3.org/2000/svg">
  <defs
     id="defs7">
    <radialGradient
       fx="0"
       fy="0"
       cx="0"
       cy="0"
       r="1"
       gradientUnits="userSpaceOnUse"
       gradientTransform="matrix(0,16.5,-16.5,0,8.999651,0.749985)"
       spreadMethod="pad"
       id="radialGradient868-3">
      <stop
         style="stop-opacity:1;stop-color:#fafafa"
         offset="0"
         id="stop864-6" />
      <stop
         style="stop-opacity:1;stop-color:#c0c0c0"
         offset="1"
         id="stop866-7" />
    </radialGradient>
  </defs>
  <sodipodi:namedview
     id="namedview7"
     pagecolor="#ffffff"
     bordercolor="#000000"
     borderopacity="0.25"
     inkscape:showpageshadow="2"
     inkscape:pageopacity="0.0"
     inkscape:pagecheckerboard="0"
     inkscape:deskcolor="#d1d1d1"
     inkscape:zoom="9.6875"
     inkscape:cx="31.948387"
     inkscape:cy="31.948387"
     inkscape:window-width="2560"
     inkscape:window-height="998"
     inkscape:window-x="0"
     inkscape:window-y="0"
     inkscape:window-maximized="1"
     inkscape:current-layer="svg7" />
  <g
     id="g854"
     transform="matrix(1.3333333,0,0,1.3333333,-4.5244194e-4,-3.5228353e-5)">
    <g
       id="g856">
      <g
         id="g862">
        <path
           d="m 7.195,0.836 c 0.09,0 0.176,-0.012 0.258,-0.035 1.078,-0.071 2.156,-0.067 3.231,0.008 0.976,0.078 1.921,0.289 2.836,0.636 1.519,0.625 2.558,1.711 3.121,3.254 0.316,0.93 0.507,1.887 0.566,2.867 0.078,1.235 0.051,2.465 -0.086,3.696 -0.105,0.863 -0.328,1.691 -0.672,2.488 -0.637,1.383 -1.672,2.336 -3.101,2.859 C 12.191,17 11,17.207 9.773,17.227 8.398,17.301 7.035,17.195 5.684,16.918 3.203,16.367 1.668,14.852 1.09,12.375 0.844,11.262 0.73,10.133 0.754,8.992 0.727,7.781 0.855,6.582 1.141,5.402 1.75,3.09 3.219,1.656 5.547,1.102 6.09,0.969 6.641,0.879 7.195,0.836 Z"
           style="fill:url(#radialGradient868-3);fill-rule:evenodd;stroke:none"
           id="path870" />
      </g>
    </g>
  </g>
  <g
     id="g14"
     transform="matrix(0.28888889,0,0,0.28888889,-3.0222223,2.9)">
    <path
       d="m 51.376,15.22 -10,8 L 41,24 v 11.52 l -9.626,7.7 1.25,1.56 9.376,-7.5 9.376,7.5 1.248,-1.56 L 43,35.52 V 24.48 l 9,-7.2 9,7.2 V 36 l 0.376,0.78 10,8 1.25,-1.56 L 63,35.52 V 24 l -0.376,-0.78 -10,-8 z"
       fill="#474f50"
       id="path7" />
    <rect
       x="46"
       y="9"
       width="12"
       height="12"
       rx="1.5"
       fill="#e16e7b"
       id="rect8" />
    <rect
       x="36"
       y="23"
       width="12"
       height="12"
       rx="1.5"
       fill="#a779be"
       id="rect9" />
    <rect
       x="56"
       y="23"
       width="12"
       height="12"
       rx="1.5"
       fill="#a779be"
       id="rect10" />
    <g
       fill="#58b072"
       id="g13"
       transform="translate(20)">
      <rect
         x="42"
         y="42"
         width="12"
         height="12"
         rx="1.5"
         id="rect11" />
      <rect
         x="26"
         y="42"
         width="12"
         height="12"
         rx="1.5"
         id="rect12" />
      <rect
         x="10"
         y="42"
         width="12"
         height="12"
         rx="1.5"
         id="rect13" />
    </g>
  </g>
</svg>
