<?xml version="1.0" encoding="UTF-8" standalone="no"?>
<svg
   width="24"
   height="24"
   viewBox="0 0 6.349875 6.349875"
   version="1.1"
   id="svg12573"
   sodipodi:docname="preferences-desktop-notification.svg"
   xml:space="preserve"
   inkscape:version="1.2.2 (b0a8486541, 2022-12-01)"
   xmlns:inkscape="http://www.inkscape.org/namespaces/inkscape"
   xmlns:sodipodi="http://sodipodi.sourceforge.net/DTD/sodipodi-0.dtd"
   xmlns:xlink="http://www.w3.org/1999/xlink"
   xmlns="http://www.w3.org/2000/svg"
   xmlns:svg="http://www.w3.org/2000/svg"><defs
     id="defs12577"><radialGradient
       id="radialGradient66380"
       cx="0"
       cy="0"
       r="1"
       gradientUnits="userSpaceOnUse"
       gradientTransform="matrix(0,22,-22,0,12,1)"><stop
         stop-color="#8FC8FF"
         id="stop66376"
         offset="0"
         style="stop-color:#ff5555;stop-opacity:1;" /><stop
         offset="1"
         stop-color="#0056A8"
         id="stop66378"
         style="stop-color:#ff5555;stop-opacity:1;" /></radialGradient><radialGradient
       id="paint0_radial_29_23"
       cx="0"
       cy="0"
       r="1"
       gradientUnits="userSpaceOnUse"
       gradientTransform="matrix(0,22,-22,0,12,1)"><stop
         stop-color="#8FC8FF"
         id="stop147"
         offset="0"
         style="stop-color:#f6f6f6;stop-opacity:1;" /><stop
         offset="1"
         stop-color="#0056A8"
         id="stop149"
         style="stop-color:#cfcfcf;stop-opacity:1;" /></radialGradient><radialGradient
       id="paint0_radial_10_2"
       cx="0"
       cy="0"
       r="1"
       gradientUnits="userSpaceOnUse"
       gradientTransform="matrix(-10.999959,21.999967,-21.999967,-10.999959,17.5,1)"
       xlink:href="#paint0_radial_29_23"><stop
         stop-color="#777777"
         id="stop2847" /><stop
         offset="1"
         stop-color="#222222"
         id="stop2849" /></radialGradient><radialGradient
       fx="0"
       fy="0"
       cx="0"
       cy="0"
       r="1"
       gradientUnits="userSpaceOnUse"
       gradientTransform="matrix(0,16.5,-16.5,0,8.999651,0.749985)"
       spreadMethod="pad"
       id="radialGradient868-3"><stop
         style="stop-opacity:1;stop-color:#fafafa"
         offset="0"
         id="stop864-6" /><stop
         style="stop-opacity:1;stop-color:#c0c0c0"
         offset="1"
         id="stop866-7" /></radialGradient></defs><sodipodi:namedview
     id="namedview12575"
     pagecolor="#ffffff"
     bordercolor="#000000"
     borderopacity="0.25"
     inkscape:showpageshadow="2"
     inkscape:pageopacity="0.0"
     inkscape:pagecheckerboard="0"
     inkscape:deskcolor="#d1d1d1"
     showgrid="false"
     inkscape:zoom="22.627417"
     inkscape:cx="9.1039998"
     inkscape:cy="13.788582"
     inkscape:window-width="2560"
     inkscape:window-height="998"
     inkscape:window-x="1680"
     inkscape:window-y="0"
     inkscape:window-maximized="1"
     inkscape:current-layer="svg12573" /><g
     id="g854"
     transform="matrix(0.35277083,0,0,0.35277083,-1.1970624e-4,-9.3206515e-6)"><g
       id="g856"><g
         id="g862"><path
           d="m 7.195,0.836 c 0.09,0 0.176,-0.012 0.258,-0.035 1.078,-0.071 2.156,-0.067 3.231,0.008 0.976,0.078 1.921,0.289 2.836,0.636 1.519,0.625 2.558,1.711 3.121,3.254 0.316,0.93 0.507,1.887 0.566,2.867 0.078,1.235 0.051,2.465 -0.086,3.696 -0.105,0.863 -0.328,1.691 -0.672,2.488 -0.637,1.383 -1.672,2.336 -3.101,2.859 C 12.191,17 11,17.207 9.773,17.227 8.398,17.301 7.035,17.195 5.684,16.918 3.203,16.367 1.668,14.852 1.09,12.375 0.844,11.262 0.73,10.133 0.754,8.992 0.727,7.781 0.855,6.582 1.141,5.402 1.75,3.09 3.219,1.656 5.547,1.102 6.09,0.969 6.641,0.879 7.195,0.836 Z"
           style="fill:url(#radialGradient868-3);fill-rule:evenodd;stroke:none"
           id="path870" /></g></g></g><g
     id="g13530"
     transform="matrix(0.25862193,0,0,0.25862193,11.113533,1.0048291)"><path
       d="m -30.960423,1.5099834 c -0.879464,0 -1.58748,0.7080161 -1.58748,1.58748 v 3.70412 c 0,0.8794639 0.708016,1.58748 1.58748,1.58748 h 3.17496 V 9.500564 c 0,0.1526626 0.05821,0.2386511 0.206637,0.2071661 l 1.484822,-1.3186667 h 1.4835 c 0.879463,0 1.587479,-0.7080161 1.587479,-1.58748 v -3.70412 c 0,-0.8794639 -0.708016,-1.58748 -1.587479,-1.58748 z"
       fill="#a0ecff"
       opacity="0.9"
       style="stroke-width:0.26458;paint-order:stroke markers fill"
       id="path12793" /><path
       d="m -34.131348,4.6849209 c -0.879464,0 -1.58748,0.7080161 -1.58748,1.58748 v 3.70412 c 0,0.8794641 0.708016,1.5874801 1.58748,1.5874801 h 3.17496 v 1.1115 c 0,0.152663 0.05821,0.238652 0.206637,0.207167 l 1.484822,-1.318667 h 1.4835 c 0.879463,0 1.587479,-0.708016 1.587479,-1.5874801 v -3.70412 c 0,-0.8794639 -0.708016,-1.58748 -1.587479,-1.58748 z"
       fill="#a0ecff"
       opacity="0.9"
       style="opacity:0.25734;fill:#5ca4ed;fill-opacity:1;stroke-width:0.26458;paint-order:stroke markers fill"
       id="path13016" /><path
       id="path12791"
       style="fill:#5ca4ed;fill-opacity:1;stroke-width:0.26458;paint-order:stroke markers fill"
       d="m -36.781527,4.6848931 a 1.5835113,1.5835113 0 0 0 -1.586952,1.586952 v 5.2925959 a 1.5835113,1.5835113 0 0 0 1.586952,1.586952 h 1.597804 l 2.378103,2.112491 c 0.190232,0.04022 0.263544,-0.0701 0.263544,-0.265095 v -1.847396 h 4.757239 a 1.5835113,1.5835113 0 0 0 1.586952,-1.586952 V 8.4814859 l -1.380767,1.2262576 c -0.0093,0.00197 -0.01829,0.00359 -0.02687,0.00465 -0.01719,0.0021 -0.03305,0.0024 -0.04754,0.00103 -0.0072,-6.739e-4 -0.01409,-0.0016 -0.02067,-0.0031 -0.01318,-0.00303 -0.02499,-0.00776 -0.03566,-0.013952 -0.03197,-0.018554 -0.05293,-0.05101 -0.06459,-0.094566 -0.0039,-0.014519 -0.0069,-0.030125 -0.0088,-0.047025 -0.0019,-0.016739 -0.0026,-0.034861 -0.0026,-0.053742 V 9.5005251 8.3889869 h -3.174937 c -0.879464,0 -1.587469,-0.7080058 -1.587469,-1.5874688 v -2.116625 z" /></g></svg>
