<?xml version="1.0" encoding="UTF-8" standalone="no"?>
<svg
   width="24"
   height="24"
   version="1.1"
   id="svg1"
   sodipodi:docname="preferences-desktop-text-to-speech.svg"
   inkscape:version="1.3 (0e150ed6c4, 2023-07-21)"
   xmlns:inkscape="http://www.inkscape.org/namespaces/inkscape"
   xmlns:sodipodi="http://sodipodi.sourceforge.net/DTD/sodipodi-0.dtd"
   xmlns="http://www.w3.org/2000/svg"
   xmlns:svg="http://www.w3.org/2000/svg">
  <defs
     id="defs1">
    <radialGradient
       id="paint0_radial_109_2"
       cx="0"
       cy="0"
       r="1"
       gradientUnits="userSpaceOnUse"
       gradientTransform="matrix(0,22,-22,0,12,1)">
      <stop
         stop-color="#50FE71"
         id="stop5"
         offset="0"
         style="stop-color:#b7fa6b;stop-opacity:1;" />
      <stop
         offset="1"
         stop-color="#01AF22"
         id="stop6"
         style="stop-color:#6ed105;stop-opacity:1;" />
    </radialGradient>
  </defs>
  <sodipodi:namedview
     id="namedview1"
     pagecolor="#ffffff"
     bordercolor="#000000"
     borderopacity="0.25"
     inkscape:showpageshadow="2"
     inkscape:pageopacity="0.0"
     inkscape:pagecheckerboard="0"
     inkscape:deskcolor="#d1d1d1"
     inkscape:zoom="6.3359375"
     inkscape:cx="1.4204686"
     inkscape:cy="33.538841"
     inkscape:window-width="2560"
     inkscape:window-height="998"
     inkscape:window-x="0"
     inkscape:window-y="0"
     inkscape:window-maximized="1"
     inkscape:current-layer="svg1" />
  <path
     fill-rule="evenodd"
     clip-rule="evenodd"
     d="m 1,11.5632 c 0,10e-4 0,0.0019 0,0.0028 1e-5,0.1413 0.00162,0.2829 0.00483,0.4246 -0.030631,1.5218 0.11828,3.0255 0.44675,4.5111 0.77401,3.3001 2.81681,5.3191 6.12839,6.0568 1.42827,0.2939 2.86813,0.4411 4.31953,0.4415 0.0043,0 0.0086,0 0.0129,0 0.3726,-10e-5 0.746,-0.0099 1.1201,-0.0294 1.6322,-0.0276 3.2206,-0.3024 4.7653,-0.8243 1.9062,-0.6993 3.2846,-1.9702 4.1352,-3.8127 0.4586,-1.0626 0.7565,-2.1694 0.8935,-3.3203 C 23.0096,13.3758 23.0478,11.7347 22.941,10.09 22.8639,8.78021 22.6119,7.50549 22.185,6.26585 21.4386,4.20689 20.0525,2.76044 18.0269,1.9265 16.8085,1.46308 15.5484,1.18066 14.2467,1.07924 12.8111,0.977551 11.3755,0.973736 9.93969,1.06779 9.83043,1.0996 9.71588,1.11486 9.59604,1.11359 8.8536,1.17326 8.12048,1.29157 7.39669,1.46852 4.2905,2.20701 2.33171,4.11908 1.52031,7.20471 1.17352,8.6385 1.00008,10.0914 1,11.5632 Z"
     fill="url(#paint0_radial_109_2)"
     id="path1-4"
     style="fill:url(#paint0_radial_109_2)" />
  <path
     d="m 10.428515,6.5 v 4.714455 h 4.714454 v 2.357226 l 2.357228,-2.357226 V 6.5 Z m 0.785743,0.7857427 h 5.500197 V 10.428712 H 11.214258 Z M 9.2499016,11.214455 8.8570307,11.528752 7.2855461,12.838191 v -0.05225 H 6.4998034 V 15.92891 H 7.2855461 V 15.87666 L 8.8570307,17.185703 9.2499016,17.5 h 0.3928718 v -6.285939 z"
     fill="#ffffff"
     id="path2"
     style="stroke-width:1" />
</svg>
