<svg xmlns="http://www.w3.org/2000/svg" width="24" height="24" fill="none"><path fill="url(#a)" fill-rule="evenodd" d="M9.377.124c.131.001.256-.015.375-.05a34.502 34.502 0 0 1 4.699.012c1.42.111 2.795.42 4.124.925 2.21.91 3.722 2.487 4.536 4.734.466 1.352.74 2.743.825 4.171a30.475 30.475 0 0 1-.125 5.371 12.962 12.962 0 0 1-.975 3.622c-.928 2.01-2.432 3.397-4.511 4.16-1.685.57-3.418.869-5.199.899a23.372 23.372 0 0 1-5.948-.45c-3.612-.804-5.841-3.007-6.685-6.607a20.778 20.778 0 0 1-.488-4.921c-.04-1.766.148-3.506.563-5.221C1.453 3.403 3.59 1.317 6.978.51c.79-.193 1.59-.322 2.4-.387Z" clip-rule="evenodd"/><path fill="#FAFAFA" d="M12 3a4.49 4.49 0 0 0-4.5 4.5v2.25H9V7.5c0-1.662 1.338-3 3-3s3 1.338 3 3v2.25h1.5V7.5A4.49 4.49 0 0 0 12 3Zm0 9.75a.748.748 0 0 0-.75.75v3c0 .416.335.75.75.75s.75-.334.75-.75v-3a.748.748 0 0 0-.75-.75Z"/><path fill="#FAFAFA" d="M8.25 9a3.742 3.742 0 0 0-3.75 3.75v4.5A3.742 3.742 0 0 0 8.25 21h7.5a3.742 3.742 0 0 0 3.75-3.75v-4.5A3.742 3.742 0 0 0 15.75 9h-7.5Zm0 1.5h7.5A2.245 2.245 0 0 1 18 12.75v4.5a2.245 2.245 0 0 1-2.25 2.25h-7.5A2.245 2.245 0 0 1 6 17.25v-4.5a2.245 2.245 0 0 1 2.25-2.25Z"/><defs><radialGradient id="a" cx="0" cy="0" r="1" gradientTransform="matrix(0 24 -24 0 12 0)" gradientUnits="userSpaceOnUse"><stop stop-color="#98A5FF"/><stop offset="1" stop-color="#1F296B"/></radialGradient></defs></svg>