<?xml version="1.0" encoding="UTF-8" standalone="no"?>
<svg
   width="24"
   height="24"
   version="1.1"
   id="svg7"
   sodipodi:docname="preferences-desktop-navigation.svg"
   inkscape:version="1.3 (0e150ed6c4, 2023-07-21)"
   xmlns:inkscape="http://www.inkscape.org/namespaces/inkscape"
   xmlns:sodipodi="http://sodipodi.sourceforge.net/DTD/sodipodi-0.dtd"
   xmlns="http://www.w3.org/2000/svg"
   xmlns:svg="http://www.w3.org/2000/svg">
  <defs
     id="defs7" />
  <sodipodi:namedview
     id="namedview7"
     pagecolor="#ffffff"
     bordercolor="#000000"
     borderopacity="0.25"
     inkscape:showpageshadow="2"
     inkscape:pageopacity="0.0"
     inkscape:pagecheckerboard="0"
     inkscape:deskcolor="#d1d1d1"
     inkscape:zoom="8.9603687"
     inkscape:cx="52.676404"
     inkscape:cy="28.068041"
     inkscape:window-width="2560"
     inkscape:window-height="998"
     inkscape:window-x="0"
     inkscape:window-y="0"
     inkscape:window-maximized="1"
     inkscape:current-layer="svg7" />
  <path
     d="m 9.5928808,1.1146316 c 0.12,0 0.2346667,-0.016 0.344,-0.046667 1.4373332,-0.0946667 2.8746662,-0.0893333 4.3080002,0.010667 1.301333,0.104 2.561333,0.3853333 3.781333,0.8479999 2.025333,0.8333334 3.410667,2.2813333 4.161333,4.3386666 0.421333,1.24 0.676,2.5159999 0.754667,3.8226669 0.104,1.646666 0.068,3.286666 -0.114667,4.928 -0.14,1.150666 -0.437333,2.254666 -0.896,3.317333 -0.849333,1.844 -2.229333,3.114666 -4.134666,3.812 -1.542667,0.521333 -3.130667,0.797333 -4.766667,0.824 -1.833333,0.09867 -3.6506665,-0.04267 -5.4519998,-0.412 -3.3079999,-0.734667 -5.3546665,-2.754667 -6.1253332,-6.057333 -0.328,-1.484 -0.47999998,-2.989334 -0.448,-4.510667 -0.036,-1.614667 0.1346667,-3.2133333 0.516,-4.7866666 0.812,-3.0826666 2.7706666,-4.9946665 5.8746665,-5.7333332 0.724,-0.1773333 1.4586667,-0.2973333 2.1973333,-0.3546666 z"
     style="fill:#f2f2f2;fill-opacity:1;fill-rule:evenodd;stroke:none;stroke-width:1.33333"
     id="path4714" />
  <g
     id="g7"
     transform="matrix(0.25925926,0,0,0.25925926,-6.6666667,3.7037037)"
     style="stroke-width:3.85715">
    <rect
       x="45"
       y="5"
       width="54"
       height="54"
       ry="27"
       fill="#ececec"
       id="rect1"
       style="stroke-width:3.85715" />
    <path
       d="M 72,8 C 85.296,8 96,18.704 96,32 96,45.296 85.296,56 72,56 58.704,56 48,45.296 48,32 48,18.704 58.704,8 72,8 Z"
       opacity="0.15"
       id="path1"
       style="stroke-width:3.85715" />
    <path
       d="M 76,36 58,46 68,28 Z"
       fill="#3a3c3d"
       id="path2"
       style="stroke-width:3.85715" />
    <path
       d="M 68,28 86,18 76,36 Z"
       fill="#d52337"
       id="path3"
       style="stroke-width:3.85715" />
    <path
       d="M 73,12 H 71 V 8 h 2 z"
       fill="#4d4d4d"
       id="path4"
       style="stroke-width:3.85715" />
    <path
       d="m 74,32 a 2,2 0 0 1 -2,2 2,2 0 0 1 -2,-2 2,2 0 0 1 2,-2 2,2 0 0 1 2,2 z"
       fill="#bdc3c7"
       id="path5"
       style="stroke-width:3.85715" />
    <path
       d="m 73,32 a 1,1 0 0 1 -1,1 1,1 0 0 1 -1,-1 1,1 0 0 1 1,-1 1,1 0 0 1 1,1 z"
       fill="#9fa5a8"
       id="path6"
       style="stroke-width:3.85715" />
    <path
       d="m 52,31 v 2 h -4 v -2 z m 44,0 v 2 H 92 V 31 Z M 73,56 h -2 v -4 h 2 z"
       fill="#4d4d4d"
       id="path7"
       style="stroke-width:3.85715" />
  </g>
</svg>
