<?xml version="1.0" encoding="UTF-8" standalone="no"?>
<svg
   width="24"
   height="24"
   viewBox="0 0 24 24"
   fill="none"
   version="1.1"
   id="svg21583"
   sodipodi:docname="preferences_system.svg"
   inkscape:version="1.2.2 (b0a8486541, 2022-12-01)"
   xmlns:inkscape="http://www.inkscape.org/namespaces/inkscape"
   xmlns:sodipodi="http://sodipodi.sourceforge.net/DTD/sodipodi-0.dtd"
   xmlns="http://www.w3.org/2000/svg"
   xmlns:svg="http://www.w3.org/2000/svg">
  <sodipodi:namedview
     id="namedview21585"
     pagecolor="#ffffff"
     bordercolor="#000000"
     borderopacity="0.25"
     inkscape:showpageshadow="2"
     inkscape:pageopacity="0.0"
     inkscape:pagecheckerboard="0"
     inkscape:deskcolor="#d1d1d1"
     showgrid="false"
     inkscape:zoom="12.875236"
     inkscape:cx="-38.174058"
     inkscape:cy="15.339525"
     inkscape:window-width="2560"
     inkscape:window-height="1000"
     inkscape:window-x="1680"
     inkscape:window-y="0"
     inkscape:window-maximized="1"
     inkscape:current-layer="svg21583" />
  <path
     fill-rule="evenodd"
     clip-rule="evenodd"
     d="m 9.5960388,1.1135896 c 0.119845,0.00128 0.2343917,-0.013991 0.3436492,-0.045798 1.435785,-0.0940551 2.871468,-0.0902402 4.30706,0.011449 1.301667,0.1014215 2.561717,0.3838438 3.78015,0.8472619 2.02565,0.8339375 3.41165,2.2803918 4.158092,4.3393536 0.426892,1.2396359 0.678975,2.5143526 0.756067,3.824123 0.1067,1.644738 0.06857,3.285847 -0.114584,4.923289 -0.137041,1.150875 -0.434866,2.257658 -0.893475,3.32035 -0.850575,1.8425 -2.228966,3.113367 -4.135175,3.812692 -1.544675,0.52195 -3.133167,0.796675 -4.765292,0.824358 -1.8359,0.09542 -3.653403,-0.04198 -5.4525631,-0.412225 C 4.2683901,21.820802 2.22558,19.801844 1.4515741,16.50166 1.1231104,15.01611 0.97419582,13.51241 1.0048309,11.99056 0.96817277,10.372368 1.1399973,8.777093 1.5203031,7.2047162 2.3317117,4.1190785 4.2905001,2.2070125 7.3966895,1.4685239 8.1204804,1.2915724 8.8536029,1.17326 9.5960388,1.1135896 Z"
     fill="url(#paint0_radial_1_42)"
     id="path21562"
     style="fill:url(#paint0_radial_1_42);stroke-width:0.916667" />
  <path
     d="m 18.131474,12.515068 0.02209,0.02209 0.02484,0.01888 1.579508,1.199183 c 0.09194,0.06985 0.117609,0.197267 0.05977,0.297275 l -2.1428,3.705167 c -0.05775,0.100008 -0.18095,0.14135 -0.287375,0.09643 l -1.727275,-0.728658 c -0.1573,-0.06637 -0.478775,-0.14905 -0.764409,0.06517 -0.21505,0.161333 -0.309925,0.396275 -0.335225,0.599683 l -0.228158,1.838651 c -0.01421,0.114766 -0.111742,0.200933 -0.227425,0.200933 H 9.8963692 c -0.1156466,0 -0.21318,-0.08617 -0.2274158,-0.200933 L 9.4391267,17.776826 C 9.4203717,17.625668 9.3525107,17.335635 9.0708375,17.17201 9.0607905,17.16611 9.0506705,17.16046 9.0405045,17.15496 8.7640745,17.004168 8.475242,17.052751 8.2786445,17.13635 l -1.6823401,0.715275 c -0.1067734,0.04547 -0.2306242,0.0038 -0.2884017,-0.09671 L 4.1819239,14.05296 c -0.057402,-0.09992 -0.031643,-0.226876 0.060142,-0.296634 l 1.5027009,-1.140883 c 0.074479,-0.05656 0.27852,-0.227059 0.27852,-0.519934 v -0.191033 c 0,-0.292875 -0.2040408,-0.463375 -0.27852,-0.519933 l -1.5010046,-1.1396 C 4.1517289,10.175093 4.1261172,10.047584 4.1840139,9.9475851 L 6.3100665,6.2753173 C 6.3675048,6.1761065 6.4894307,6.1345998 6.5954799,6.178169 L 8.3487333,6.8984949 C 8.5103875,6.9649166 8.799935,7.0309899 9.0734959,6.8600132 9.326065,6.702154 9.4167325,6.4421598 9.4398875,6.2528407 L 9.6699801,4.3714739 C 9.6840326,4.2565239 9.7816392,4.170128 9.8974509,4.170128 h 4.2065571 c 0.115775,0 0.2134,0.086396 0.227425,0.2013459 l 0.231,1.8884251 c 0.01751,0.1431375 0.08552,0.4632742 0.403425,0.617045 0.0083,0.004 0.01659,0.00788 0.02484,0.011651 0.261434,0.1188183 0.528367,0.080612 0.726275,-0.00199 L 17.406482,6.18156 c 0.106241,-0.044348 0.228891,-0.00297 0.28655,0.096662 l 2.124375,3.6693619 c 0.05793,0.099999 0.03227,0.2275071 -0.05977,0.2973571 l -1.50095,1.139601 c -0.07453,0.05656 -0.278575,0.227058 -0.278575,0.519933 v 0.09167 c 0,3.66e-4 0,7.33e-4 -9.2e-5,0.0012 -3.66e-4,0.0042 -0.0013,0.01164 -0.0032,0.02283 -0.02851,0.171325 0.0176,0.35585 0.156658,0.494909 z m -6.18805,2.674192 c 0.873675,0 1.632858,-0.316342 2.252892,-0.936375 0.620033,-0.620034 0.936375,-1.379217 0.936375,-2.252892 0,-0.873675 -0.316342,-1.632859 -0.936375,-2.2529104 -0.620034,-0.6200242 -1.379217,-0.9363293 -2.252892,-0.9363293 -0.863042,0 -1.617459,0.3177717 -2.2414431,0.9344134 -0.6269634,0.6195843 -0.9477967,1.3794093 -0.9477967,2.2548263 0,0.875416 0.3208333,1.635241 0.9477967,2.254817 0.6239841,0.616641 1.3784011,0.93445 2.2414431,0.93445 z"
     fill="url(#paint1_linear_1_42)"
     stroke="url(#paint2_linear_1_42)"
     id="path21564"
     style="fill:url(#paint1_linear_1_42);stroke:url(#paint2_linear_1_42);stroke-width:0.916667" />
  <defs
     id="defs21581">
    <radialGradient
       id="paint0_radial_1_42"
       cx="0"
       cy="0"
       r="1"
       gradientUnits="userSpaceOnUse"
       gradientTransform="matrix(0,11.000001,-11.000001,0,11.999998,1.0000008)">
      <stop
         stop-color="#777777"
         id="stop21566" />
      <stop
         offset="1"
         stop-color="#444444"
         id="stop21568" />
    </radialGradient>
    <linearGradient
       id="paint1_linear_1_42"
       x1="12"
       y1="2.95833"
       x2="12"
       y2="21.0417"
       gradientUnits="userSpaceOnUse"
       gradientTransform="matrix(0.91666673,0,0,0.91666673,1.0007145,0.999992)">
      <stop
         stop-color="#FAFAFA"
         id="stop21571" />
      <stop
         offset="1"
         stop-color="#C0C0C0"
         id="stop21573" />
    </linearGradient>
    <linearGradient
       id="paint2_linear_1_42"
       x1="12"
       y1="2.95833"
       x2="12"
       y2="21.0417"
       gradientUnits="userSpaceOnUse"
       gradientTransform="matrix(0.91666673,0,0,0.91666673,1.0007145,0.999992)">
      <stop
         stop-color="#E1E1E1"
         id="stop21576" />
      <stop
         offset="1"
         stop-color="#828282"
         id="stop21578" />
    </linearGradient>
  </defs>
</svg>
