<?xml version="1.0" encoding="UTF-8" standalone="no"?>
<svg
   width="24"
   height="24"
   viewBox="0 0 6.349875 6.349875"
   version="1.1"
   id="svg23024"
   sodipodi:docname="XrendrMixer.svg"
   inkscape:version="1.3 (0e150ed6c4, 2023-07-21)"
   xml:space="preserve"
   inkscape:export-filename="../../../../../../../../../Imagens/Big Icons/XrendrMixer.pdf"
   inkscape:export-xdpi="96"
   inkscape:export-ydpi="96"
   xmlns:inkscape="http://www.inkscape.org/namespaces/inkscape"
   xmlns:sodipodi="http://sodipodi.sourceforge.net/DTD/sodipodi-0.dtd"
   xmlns="http://www.w3.org/2000/svg"
   xmlns:svg="http://www.w3.org/2000/svg"><defs
     id="defs23028"><radialGradient
       id="paint0_radial_29_149"
       cx="0"
       cy="0"
       r="1"
       gradientUnits="userSpaceOnUse"
       gradientTransform="matrix(0,2.9103587,-2.9103617,0,3.1749385,0.26457843)"><stop
         stop-color="#80D2FF"
         id="stop17930"
         offset="0"
         style="stop-color:#7ccffd;stop-opacity:1;" /><stop
         offset="1"
         stop-color="#2991C9"
         id="stop17932"
         style="stop-color:#2991c9;stop-opacity:1;" /></radialGradient><radialGradient
       fx="0"
       fy="0"
       cx="0"
       cy="0"
       r="1"
       gradientUnits="userSpaceOnUse"
       gradientTransform="matrix(0,8.249998,-8.250007,0,9.000003,0.750001)"
       spreadMethod="pad"
       id="radialGradient2"><stop
         style="stop-opacity:1;stop-color:#7ccffd"
         offset="0"
         id="stop1" /><stop
         style="stop-opacity:1;stop-color:#2991c9"
         offset="1"
         id="stop2" /></radialGradient><clipPath
       clipPathUnits="userSpaceOnUse"
       id="clipPath4"><path
         d="M 0,0 H 19 V 19 H 0 Z"
         id="path4" /></clipPath><clipPath
       clipPathUnits="userSpaceOnUse"
       id="clipPath7"><path
         d="M 0,0 H 19 V 19 H 0 Z"
         id="path7" /></clipPath><radialGradient
       fx="0"
       fy="0"
       cx="0"
       cy="0"
       r="1"
       gradientUnits="userSpaceOnUse"
       gradientTransform="matrix(0,2.9103586,-2.9103617,0,13.493317,6.6143979)"
       spreadMethod="pad"
       id="radialGradient2-6"><stop
         style="stop-opacity:1;stop-color:#7ccffd"
         offset="0"
         id="stop1-3" /><stop
         style="stop-opacity:1;stop-color:#2991c9"
         offset="1"
         id="stop2-2" /></radialGradient><clipPath
       clipPathUnits="userSpaceOnUse"
       id="clipPath4-0"><path
         d="M 0,0 H 19 V 19 H 0 Z"
         id="path4-6" /></clipPath><clipPath
       clipPathUnits="userSpaceOnUse"
       id="clipPath7-1"><path
         d="M 0,0 H 19 V 19 H 0 Z"
         id="path7-5" /></clipPath></defs><sodipodi:namedview
     id="namedview23026"
     pagecolor="#ffffff"
     bordercolor="#000000"
     borderopacity="0.25"
     inkscape:showpageshadow="2"
     inkscape:pageopacity="0.0"
     inkscape:pagecheckerboard="0"
     inkscape:deskcolor="#d1d1d1"
     showgrid="false"
     inkscape:zoom="6.828125"
     inkscape:cx="4.7597254"
     inkscape:cy="13.693364"
     inkscape:window-width="2560"
     inkscape:window-height="998"
     inkscape:window-x="0"
     inkscape:window-y="0"
     inkscape:window-maximized="1"
     inkscape:current-layer="svg23024"><inkscape:page
       x="0"
       y="0"
       width="6.349875"
       height="6.349875"
       id="page1"
       margin="0"
       bleed="0" /></sodipodi:namedview><g
     id="g1"
     inkscape:groupmode="layer"
     inkscape:label="1"
     transform="matrix(0.26457812,0,0,0.26457812,16.349875,0)" /><g
     id="g2"
     transform="translate(-10.318506,-6.3498262)"><path
       id="path2"
       d="m 12.856565,6.6447358 c 0.03175,0 0.06209,-0.00423 0.09102,-0.012347 0.380287,-0.025047 0.760574,-0.023636 1.139802,0.00282 0.344305,0.027516 0.677673,0.1019508 1.000458,0.2243622 0.535859,0.2204818 0.902388,0.6035909 1.100998,1.1479163 0.111476,0.3280768 0.178855,0.6656785 0.199668,1.0113939 0.02752,0.435672 0.01799,0.8695801 -0.03034,1.3038408 -0.03704,0.304442 -0.115709,0.596536 -0.237062,0.877694 -0.224715,0.487882 -0.589833,0.824073 -1.093942,1.008572 -0.408156,0.137933 -0.828306,0.210957 -1.261156,0.218012 -0.48506,0.0261 -0.965886,-0.01129 -1.44248,-0.109006 -0.875224,-0.194377 -1.416727,-0.728824 -1.620629,-1.602638 -0.08678,-0.392634 -0.126997,-0.7909121 -0.118531,-1.1934236 -0.0095,-0.4286165 0.03563,-0.8501777 0.136523,-1.2664472 0.214837,-0.8156062 0.733057,-1.3214795 1.554308,-1.5169146 0.191554,-0.046919 0.385931,-0.078668 0.581366,-0.093837 z"
       style="fill:url(#radialGradient2-6);fill-rule:evenodd;stroke:none;stroke-width:0.352771" /><path
       id="path3"
       d="m 11.721349,7.8244014 h 3.543935 c 0.11712,0 0.212368,0.093484 0.212368,0.2120153 v 2.9766803 c 0,0.118531 -0.09525,0.212015 -0.212368,0.212015 h -3.543935 c -0.11712,0 -0.212368,-0.09348 -0.212368,-0.212015 V 8.0364167 c 0,-0.118531 0.09525,-0.2120153 0.212368,-0.2120153 z"
       style="fill:#363842;fill-opacity:1;fill-rule:nonzero;stroke:none;stroke-width:0.352771" /><g
       opacity="0.1"
       id="g5"
       transform="matrix(0.26457812,0,0,0.26457812,10.318379,6.3498194)"><path
         d="M 4.582,10.605 H 6.59 v 2.008 H 4.582 Z"
         style="fill:#ffffff;fill-opacity:1;fill-rule:nonzero;stroke:none"
         transform="scale(1.3333333)"
         clip-path="url(#clipPath4-0)"
         id="path5" /></g><path
       id="path6"
       d="m 12.197942,8.6015555 -0.263167,0.5690194 c 0.04269,-0.023283 0.08819,-0.041274 0.136522,-0.05221 l 0.128056,1.2414001 0.128056,-1.2414001 c 0.04692,0.010936 0.09243,0.027516 0.135111,0.05221 z m 1.409672,1.6700175 c 0.02364,0.04269 0.04127,0.0896 0.05256,0.137933 l -1.28585,0.128056 1.28585,0.126645 c -0.01129,0.04833 -0.02893,0.09384 -0.05256,0.135111 l 0.569372,-0.263167 z"
       style="fill:#ffffff;fill-opacity:1;fill-rule:nonzero;stroke:none;stroke-width:0.352771" /><g
       opacity="0.2"
       id="g8"
       transform="matrix(0.26457812,0,0,0.26457812,10.318379,6.3498194)"><path
         d="m 4.824,8.109 h 4.262 v 4.258 H 4.824 Z"
         style="fill:none;stroke:#ffffff;stroke-width:0.375;stroke-linecap:butt;stroke-linejoin:miter;stroke-miterlimit:4;stroke-dasharray:0.604647, 0.604647;stroke-dashoffset:0.708882;stroke-opacity:1"
         transform="scale(1.3333333)"
         clip-path="url(#clipPath7-1)"
         id="path8" /></g></g></svg>
