<svg width="24" height="24" viewBox="0 0 24 24" fill="none" xmlns="http://www.w3.org/2000/svg">
<path fill-rule="evenodd" clip-rule="evenodd" d="M9.59604 1.11359C9.71588 1.11486 9.83043 1.0996 9.93969 1.06779C11.3755 0.973736 12.8111 0.977551 14.2467 1.07924C15.5484 1.18066 16.8085 1.46308 18.0269 1.9265C20.0525 2.76044 21.4386 4.2069 22.185 6.26586C22.6119 7.50549 22.8639 8.78021 22.9411 10.09C23.0478 11.7347 23.0096 13.3758 22.8265 15.0133C22.6895 16.1642 22.3916 17.271 21.933 18.3336C21.0824 20.1761 19.704 21.447 17.7978 22.1463C16.2531 22.6682 14.6647 22.943 13.0325 22.9706C11.1966 23.0661 9.37913 22.9287 7.57997 22.5585C4.26839 21.8208 2.22559 19.8018 1.45158 16.5017C1.12311 15.0161 0.974199 13.5124 1.00483 11.9906C0.968176 10.3724 1.14 8.77709 1.52031 7.20471C2.33171 4.11908 4.2905 2.20701 7.39669 1.46852C8.12048 1.29157 8.8536 1.17326 9.59604 1.11359Z" fill="url(#paint0_radial_1_42)"/>
<path d="M18.1308 12.5151L18.1528 12.5371L18.1777 12.556L19.7572 13.7552C19.8492 13.8251 19.8748 13.9525 19.817 14.0525L17.6742 17.7577C17.6164 17.8577 17.4932 17.899 17.3867 17.8541L15.6595 17.1254C15.5022 17.0591 15.1807 16.9764 14.8951 17.1906C14.6801 17.3519 14.5852 17.5869 14.5599 17.7903L14.3318 19.6289C14.3175 19.7437 14.22 19.8299 14.1043 19.8299H9.89566C9.78 19.8299 9.68248 19.7437 9.66823 19.6289L9.43841 17.7768C9.41965 17.6257 9.35179 17.3356 9.07012 17.172C9.06007 17.1662 9.04995 17.1605 9.03979 17.1549C8.76336 17.0041 8.47452 17.0527 8.27793 17.1363L6.59559 17.8517C6.48882 17.8971 6.36497 17.8555 6.30719 17.7549L4.1812 14.053C4.12381 13.9531 4.14956 13.826 4.24135 13.7564L5.74405 12.6154C5.81853 12.5589 6.02257 12.3884 6.02257 12.0955V11.9045C6.02257 11.6116 5.81853 11.4411 5.74405 11.3846L4.24305 10.2449C4.15102 10.1751 4.1254 10.0476 4.1833 9.94759L6.30935 6.27533C6.36679 6.17611 6.48872 6.13461 6.59476 6.17818L8.34802 6.89851C8.50967 6.96492 8.79922 7.03099 9.07278 6.86002C9.32535 6.70216 9.41601 6.44217 9.43917 6.25285L9.66926 4.37149C9.68332 4.25654 9.78093 4.17014 9.89673 4.17014H14.1033C14.2191 4.17014 14.3167 4.25654 14.3307 4.37149L14.5617 6.25991C14.5792 6.40304 14.6472 6.72318 14.9652 6.87696C14.9734 6.88095 14.9817 6.88483 14.99 6.88861C15.2514 7.00742 15.5183 6.96922 15.7163 6.88661L17.4057 6.18156C17.512 6.13722 17.6346 6.1786 17.6923 6.27823L19.8167 9.94759C19.8746 10.0476 19.849 10.1751 19.757 10.2449L18.2559 11.3846C18.1815 11.4411 17.9774 11.6116 17.9774 11.9045V11.9962C17.9774 11.9965 17.9774 11.9969 17.9773 11.9974C17.9769 12.0015 17.976 12.0089 17.9741 12.0201C17.9456 12.1915 17.9917 12.376 18.1308 12.5151ZM11.9427 15.1892C12.8163 15.1892 13.5756 14.8729 14.1956 14.2529C14.8156 13.6329 15.1319 12.8736 15.1319 12C15.1319 11.1264 14.8156 10.3671 14.1956 9.74709C13.5756 9.12706 12.8163 8.81076 11.9427 8.81076C11.0797 8.81076 10.3253 9.12853 9.70127 9.74518C9.0743 10.3648 8.75347 11.1246 8.75347 12C8.75347 12.8754 9.0743 13.6352 9.70127 14.2548C10.3253 14.8715 11.0797 15.1892 11.9427 15.1892Z" fill="url(#paint1_linear_1_42)" stroke="url(#paint2_linear_1_42)" stroke-width="0.916667"/>
<defs>
<radialGradient id="paint0_radial_1_42" cx="0" cy="0" r="1" gradientUnits="userSpaceOnUse" gradientTransform="translate(12 1) rotate(90) scale(11)">
<stop stop-color="#777777"/>
<stop offset="1" stop-color="#444444"/>
</radialGradient>
<linearGradient id="paint1_linear_1_42" x1="12" y1="3.71181" x2="12" y2="20.2882" gradientUnits="userSpaceOnUse">
<stop stop-color="#FAFAFA"/>
<stop offset="1" stop-color="#C0C0C0"/>
</linearGradient>
<linearGradient id="paint2_linear_1_42" x1="12" y1="3.71181" x2="12" y2="20.2882" gradientUnits="userSpaceOnUse">
<stop stop-color="#E1E1E1"/>
<stop offset="1" stop-color="#828282"/>
</linearGradient>
</defs>
</svg>
