<?xml version="1.0" encoding="UTF-8" standalone="no"?>
<svg
   width="24"
   height="24"
   viewBox="0 0 6.349875 6.349875"
   version="1.1"
   id="svg21439"
   sodipodi:docname="applications-system.svg"
   inkscape:version="1.2.2 (b0a8486541, 2022-12-01)"
   xml:space="preserve"
   xmlns:inkscape="http://www.inkscape.org/namespaces/inkscape"
   xmlns:sodipodi="http://sodipodi.sourceforge.net/DTD/sodipodi-0.dtd"
   xmlns="http://www.w3.org/2000/svg"
   xmlns:svg="http://www.w3.org/2000/svg"><defs
     id="defs21443"><radialGradient
       id="paint0_radial_1_42"
       cx="0"
       cy="0"
       r="1"
       gradientUnits="userSpaceOnUse"
       gradientTransform="matrix(0,2.9103622,-2.9103622,0,-12.699751,0.26457888)"><stop
         stop-color="#777777"
         id="stop21566"
         offset="0"
         style="stop-color:#bee9a6;stop-opacity:1;" /><stop
         offset="1"
         stop-color="#444444"
         id="stop21568"
         style="stop-color:#88ba65;stop-opacity:1;" /></radialGradient><linearGradient
       id="paint1_linear_1_42"
       x1="12"
       y1="2.9583299"
       x2="12"
       y2="21.0417"
       gradientUnits="userSpaceOnUse"
       gradientTransform="matrix(0.24253019,0,0,0.24253019,0.26457343,0.26457888)"><stop
         stop-color="#FAFAFA"
         id="stop21571"
         offset="0"
         style="stop-color:#ffffff;stop-opacity:1;" /><stop
         offset="1"
         stop-color="#C0C0C0"
         id="stop21573"
         style="stop-color:#d8d8d8;stop-opacity:1;" /></linearGradient><linearGradient
       id="paint2_linear_1_42"
       x1="12"
       y1="2.9583299"
       x2="12"
       y2="21.0417"
       gradientUnits="userSpaceOnUse"
       gradientTransform="matrix(0.24253019,0,0,0.24253019,0.26457343,0.26457888)"><stop
         stop-color="#E1E1E1"
         id="stop21576"
         offset="0"
         style="stop-color:#b1b1b1;stop-opacity:1;" /><stop
         offset="1"
         stop-color="#828282"
         id="stop21578"
         style="stop-color:#5c5c5c;stop-opacity:1;" /></linearGradient><radialGradient
       id="paint0_radial_1_42-5"
       cx="0"
       cy="0"
       r="1"
       gradientUnits="userSpaceOnUse"
       gradientTransform="matrix(0,2.9103596,-2.9103596,0,-2.1166239,0.26457851)"><stop
         stop-color="#777777"
         id="stop21566-3" /><stop
         offset="1"
         stop-color="#444444"
         id="stop21568-5" /></radialGradient><linearGradient
       id="paint1_linear_1_42-6"
       x1="12"
       y1="2.9583299"
       x2="12"
       y2="21.0417"
       gradientUnits="userSpaceOnUse"
       gradientTransform="matrix(0.24252996,0,0,0.24252996,-5.0267907,0.2645758)"><stop
         stop-color="#FAFAFA"
         id="stop21571-2" /><stop
         offset="1"
         stop-color="#C0C0C0"
         id="stop21573-9" /></linearGradient><linearGradient
       id="paint2_linear_1_42-1"
       x1="12"
       y1="2.9583299"
       x2="12"
       y2="21.0417"
       gradientUnits="userSpaceOnUse"
       gradientTransform="matrix(0.24252996,0,0,0.24252996,-5.0267907,0.2645758)"><stop
         stop-color="#E1E1E1"
         id="stop21576-2" /><stop
         offset="1"
         stop-color="#828282"
         id="stop21578-7" /></linearGradient><radialGradient
       id="paint0_radial_3_321"
       cx="0"
       cy="0"
       r="1"
       gradientUnits="userSpaceOnUse"
       gradientTransform="matrix(0,5.8207186,-5.8207186,0,3.1749362,0.2645824)"><stop
         stop-color="#555555"
         id="stop255"
         offset="0"
         style="stop-color:#818181;stop-opacity:1;" /><stop
         offset="1"
         stop-color="#222222"
         id="stop257"
         style="stop-color:#35393c;stop-opacity:1;" /></radialGradient></defs><sodipodi:namedview
     id="namedview21441"
     pagecolor="#ffffff"
     bordercolor="#000000"
     borderopacity="0.25"
     inkscape:showpageshadow="2"
     inkscape:pageopacity="0.0"
     inkscape:pagecheckerboard="0"
     inkscape:deskcolor="#d1d1d1"
     showgrid="false"
     inkscape:zoom="9.656427"
     inkscape:cx="-14.394558"
     inkscape:cy="29.410464"
     inkscape:window-width="2560"
     inkscape:window-height="998"
     inkscape:window-x="1680"
     inkscape:window-y="0"
     inkscape:window-maximized="1"
     inkscape:current-layer="svg21439" /><path
     fill-rule="evenodd"
     clip-rule="evenodd"
     d="m 2.5389012,0.29463583 c 0.03171,3.3601e-4 0.06201,-0.003701 0.09092,-0.0121177 0.379884,-0.0248846 0.759713,-0.0238753 1.139541,0.003029 0.344401,0.0268335 0.677796,0.10155567 1.000158,0.22416646 0.53593,0.22064228 0.902661,0.60334391 1.100143,1.14809971 0.112948,0.327979 0.179622,0.665242 0.200047,1.0117838 0.02823,0.4351516 0.01812,0.8693508 -0.03032,1.3025974 -0.03625,0.304503 -0.115065,0.5973381 -0.2364,0.8784788 -0.22505,0.4874852 -0.589745,0.8237375 -1.094084,1.008757 C 4.3002132,5.9975136 3.8799572,6.0702197 3.4481122,6.077522 2.9623732,6.102789 2.4815112,6.066436 2.0054922,5.9684894 1.1293212,5.7733101 0.58884018,5.2391269 0.38405418,4.3659926 c -0.08691,-0.3930572 -0.126304,-0.7909034 -0.1182,-1.1935383 -0.0097,-0.4281404 0.03576,-0.8502245 0.136385,-1.2662418 0.214678,-0.8163902 0.73293102,-1.3222821 1.55476102,-1.5176704 0.191499,-0.0468171 0.385467,-0.0781193 0.5819,-0.0939067 z"
     fill="url(#paint0_radial_3_321)"
     id="path249"
     style="fill:url(#paint0_radial_3_321);stroke-width:0.264578" /><path
     d="m 4.7970022,3.3112191 0.00585,0.00587 0.00657,0.00495 0.4179037,0.3172779 c 0.024326,0.01848 0.031116,0.052195 0.015813,0.07865 L 4.6762008,4.698271 c -0.015279,0.026455 -0.047876,0.0374 -0.076033,0.025511 L 4.1431651,4.5310241 c -0.041619,-0.017554 -0.1266735,-0.039435 -0.202246,0.017243 -0.056897,0.042689 -0.082,0.1048457 -0.088693,0.1586633 l -0.060366,0.4864669 c -0.00376,0.030369 -0.029564,0.053167 -0.060172,0.053167 H 2.6181716 c -0.030597,0 -0.056403,-0.022798 -0.060169,-0.053167 L 2.4971954,4.703365 c -0.00496,-0.039994 -0.022917,-0.1167303 -0.097441,-0.1600218 -0.00266,-0.00156 -0.00534,-0.00303 -0.00802,-0.00449 -0.073137,-0.039893 -0.1495562,-0.027042 -0.2015716,-0.00495 L 1.7450506,4.7231476 c -0.02825,0.012027 -0.061018,0.00101 -0.076304,-0.025584 L 1.106253,3.7181114 C 1.091066,3.6916744 1.097883,3.6580884 1.122165,3.6396264 L 1.5197477,3.3377732 c 0.019706,-0.01496 0.07369,-0.060078 0.07369,-0.1375634 v -0.050545 c 0,-0.077486 -0.053984,-0.1225988 -0.07369,-0.1375634 L 1.1226141,2.7105929 c -0.02435,-0.01848 -0.031126,-0.052213 -0.015808,-0.078678 L 1.6693135,1.6603158 c 0.015197,-0.026249 0.047456,-0.03723 0.075514,-0.025703 l 0.4638729,0.1905827 c 0.04277,0.017573 0.1193782,0.035055 0.1917565,-0.010181 0.066824,-0.041766 0.090813,-0.110555 0.096939,-0.1606448 L 2.5582742,1.1566 c 0.00372,-0.030413 0.029542,-0.053272 0.060184,-0.053272 h 1.1129637 c 0.030631,0 0.056461,0.022859 0.060172,0.053272 l 0.061118,0.4996365 c 0.00463,0.037871 0.022628,0.1225724 0.1067375,0.1632567 0.00221,0.00105 0.00439,0.00209 0.00657,0.00308 0.06917,0.031437 0.1397944,0.021328 0.1921566,-5.262e-4 L 4.6051853,1.6355099 c 0.02811,-0.011733 0.06056,-7.859e-4 0.075815,0.025575 L 5.2430639,2.631918 c 0.015328,0.026455 0.00853,0.060198 -0.015813,0.078678 L 4.8301324,3.0121087 c -0.019718,0.014969 -0.073705,0.060078 -0.073705,0.1375634 v 0.024255 c 0,9.71e-5 0,1.943e-4 -2.42e-5,3.153e-4 -9.7e-5,0.0011 -3.396e-4,0.00312 -8.489e-4,0.00605 -0.00754,0.045329 0.00466,0.09415 0.041448,0.1309423 z M 3.1597779,4.0187518 c 0.2311555,0 0.432019,-0.083701 0.5960665,-0.2477441 0.1640474,-0.1640478 0.2477445,-0.3649107 0.2477445,-0.5960668 0,-0.2311551 -0.083697,-0.432019 -0.2477445,-0.5960713 -0.1640475,-0.164045 -0.364911,-0.2477322 -0.5960665,-0.2477322 -0.2283422,0 -0.4279445,0.084077 -0.5930373,0.2472252 -0.1658809,0.1639286 -0.2507665,0.3649621 -0.2507665,0.5965783 0,0.2316162 0.084885,0.4326497 0.2507665,0.5965755 0.1650928,0.1631504 0.3646951,0.2472354 0.5930373,0.2472354 z"
     fill="url(#paint1_linear_1_42)"
     stroke="url(#paint2_linear_1_42)"
     id="path21564"
     style="fill:url(#paint1_linear_1_42);stroke:url(#paint2_linear_1_42);stroke-width:0.24253" /></svg>
