<?xml version="1.0" encoding="UTF-8" standalone="no"?>
<svg
   width="24"
   height="24"
   version="1.1"
   id="svg2"
   sodipodi:docname="puddletag.svg"
   inkscape:version="1.3 (0e150ed6c4, 2023-07-21)"
   xmlns:inkscape="http://www.inkscape.org/namespaces/inkscape"
   xmlns:sodipodi="http://sodipodi.sourceforge.net/DTD/sodipodi-0.dtd"
   xmlns="http://www.w3.org/2000/svg"
   xmlns:svg="http://www.w3.org/2000/svg">
  <defs
     id="defs2" />
  <sodipodi:namedview
     id="namedview2"
     pagecolor="#ffffff"
     bordercolor="#000000"
     borderopacity="0.25"
     inkscape:showpageshadow="2"
     inkscape:pageopacity="0.0"
     inkscape:pagecheckerboard="0"
     inkscape:deskcolor="#d1d1d1"
     inkscape:zoom="3.1679688"
     inkscape:cx="-72.917386"
     inkscape:cy="27.620222"
     inkscape:window-width="2560"
     inkscape:window-height="998"
     inkscape:window-x="0"
     inkscape:window-y="0"
     inkscape:window-maximized="1"
     inkscape:current-layer="svg2" />
  <path
     d="m 9.592881,1.1146316 c 0.12,0 0.2346671,-0.015999 0.3440012,-0.046667 1.4373318,-0.0946668 2.8746648,-0.0893334 4.3079988,0.010667 1.301333,0.104 2.561333,0.3853333 3.781333,0.848 2.025333,0.8333333 3.410667,2.2813334 4.161333,4.3386667 0.421334,1.2399999 0.676,2.5159998 0.754667,3.8226667 0.104,1.646667 0.068,3.286666 -0.114667,4.928 -0.139999,1.150666 -0.437333,2.254666 -0.895999,3.317333 -0.849334,1.844 -2.229334,3.114667 -4.134667,3.812 -1.542667,0.521333 -3.130667,0.797333 -4.766667,0.824 -1.833333,0.09867 -3.6506666,-0.04267 -5.4519996,-0.412 -3.3080002,-0.734667 -5.3546667,-2.754666 -6.1253334,-6.057333 -0.328,-1.484 -0.47999998,-2.989333 -0.448,-4.510667 -0.036,-1.614667 0.1346667,-3.2133332 0.516,-4.7866666 C 2.332881,4.1199648 4.2915478,2.2079649 7.3955475,1.4692982 8.1195478,1.2919649 8.8542143,1.1719649 9.592881,1.1146316 Z"
     style="fill:#4e7aa2;fill-opacity:1;fill-rule:evenodd;stroke:none;stroke-width:1.33333"
     id="path4714" />
  <g
     id="g3"
     transform="matrix(0.36362619,0,0,0.36362619,-14.181267,0.36396202)"
     style="stroke-width:2.75008">
    <path
       d="m 69.938,21 c -2.42,0.001 -4.813,2.107 -4.813,5.5 H 63.75 C 62.231,26.5 61,28.039 61,29.938 V 32 h -2.062 c -2.658,0 -4.813,2.155 -4.813,4.813 0,2.658 1.817,4.812 4.125,4.812 1.375,0 2.397,-0.707 2.75,-1.375 1.018,1.375 3.62,2.75 5.5,2.75 2.026,0 4.194,-1.202 5.5,-2.75 1.04,1.536 2.41,2.75 4.126,2.75 2.267,0 4.125,-0.806 5.5,-2.75 1.006,0.903 1.397,1.374 2.75,1.375 a 5.5,5.5 0 1 0 0,-11 c -0.982,0 -2.08,0.63 -2.75,1.375 0,-3.519 -1.912,-5.5 -5.5,-5.5 H 74.75 c 0,-4.125 -2.474,-5.501 -4.813,-5.5 z m 0.688,6.875 h 5.5 V 29.25 L 72,30.625 c -0.002,2.013 -0.005,4.313 0,5.184 0.005,1.29 -1.13,2.51 -2.719,2.923 -1.856,0.483 -3.68,-0.294 -4.078,-1.734 -0.397,-1.44 0.782,-3 2.64,-3.48 0.972,-0.253 1.987,-0.164 2.782,0.24 z"
       fill="#ffffff"
       id="path2"
       style="stroke-width:2.75008" />
  </g>
</svg>
