<?xml version="1.0" encoding="UTF-8" standalone="no"?>
<svg
   width="24"
   height="24"
   version="1.1"
   id="svg4"
   sodipodi:docname="pterm.svg"
   inkscape:version="1.3 (0e150ed6c4, 2023-07-21)"
   xmlns:inkscape="http://www.inkscape.org/namespaces/inkscape"
   xmlns:sodipodi="http://sodipodi.sourceforge.net/DTD/sodipodi-0.dtd"
   xmlns="http://www.w3.org/2000/svg"
   xmlns:svg="http://www.w3.org/2000/svg">
  <defs
     id="defs4" />
  <sodipodi:namedview
     id="namedview4"
     pagecolor="#ffffff"
     bordercolor="#000000"
     borderopacity="0.25"
     inkscape:showpageshadow="2"
     inkscape:pageopacity="0.0"
     inkscape:pagecheckerboard="0"
     inkscape:deskcolor="#d1d1d1"
     inkscape:zoom="4.4801844"
     inkscape:cx="-29.909483"
     inkscape:cy="28.45865"
     inkscape:window-width="2560"
     inkscape:window-height="998"
     inkscape:window-x="0"
     inkscape:window-y="0"
     inkscape:window-maximized="1"
     inkscape:current-layer="svg4" />
  <path
     d="m 9.592881,1.1146316 c 0.12,0 0.2346671,-0.015999 0.3440012,-0.046667 1.4373318,-0.0946668 2.8746648,-0.0893334 4.3079988,0.010667 1.301333,0.104 2.561333,0.3853333 3.781333,0.848 2.025333,0.8333333 3.410667,2.2813334 4.161333,4.3386667 0.421334,1.2399999 0.676,2.5159998 0.754667,3.8226667 0.104,1.646667 0.068,3.286666 -0.114667,4.928 -0.139999,1.150666 -0.437333,2.254666 -0.895999,3.317333 -0.849334,1.844 -2.229334,3.114667 -4.134667,3.812 -1.542667,0.521333 -3.130667,0.797333 -4.766667,0.824 -1.833333,0.09867 -3.6506666,-0.04267 -5.4519996,-0.412 -3.3080002,-0.734667 -5.3546667,-2.754666 -6.1253334,-6.057333 -0.328,-1.484 -0.47999998,-2.989333 -0.448,-4.510667 -0.036,-1.614667 0.1346667,-3.2133332 0.516,-4.7866666 C 2.332881,4.1199648 4.2915478,2.2079649 7.3955475,1.4692982 8.1195478,1.2919649 8.8542143,1.1719649 9.592881,1.1146316 Z"
     style="fill:#f2f2f2;fill-opacity:1;fill-rule:evenodd;stroke:none;stroke-width:1.33333"
     id="path4714" />
  <g
     id="g4"
     transform="matrix(0.42564338,0,0,0.42564338,-18.65058,-1.620801)"
     style="stroke-width:2.34938">
    <path
       d="m 57.362,19.087 a 0.714,0.714 0 0 0 -0.623,0.697 v 12.694 c 0,0.371 0.33,0.698 0.697,0.698 h 6.346 v 2.347 h -4.696 v 2.348 h 8.548 v -4.66 L 64.918,30.828 H 59.6 a 0.498,0.498 0 0 1 -0.476,-0.477 v -8.438 c -0.005,-0.22 0.151,-0.436 0.367,-0.477 a 0.434,0.434 0 0 1 0.11,0 h 13.06 c 0.248,0 0.477,0.234 0.477,0.477 v 3.375 h 2.384 v -5.503 a 0.721,0.721 0 0 0 -0.697,-0.698"
       fill="#c0274b"
       id="path2"
       style="stroke-width:2.34938" />
    <path
       d="m 73.327,26.13 2.898,2.348 h 8.181 c 0.248,0 0.477,0.229 0.477,0.476 v 8.439 a 0.498,0.498 0 0 1 -0.477,0.476 H 71.346 A 0.502,0.502 0 0 1 70.87,37.393 v -1.321 l -2.372,-2.09 v 5.539 a 0.71,0.71 0 0 0 0.698,0.697 h 6.346 v 2.348 h -4.696 v 2.348 h 14.087 v -2.348 h -4.695 v -2.348 h 6.333 c 0.37,0 0.71,-0.325 0.71,-0.697 V 26.827 c 0,-0.368 -0.33,-0.697 -0.71,-0.697"
       fill="#283751"
       id="path3"
       style="stroke-width:2.34938" />
    <path
       d="M 61.435,26.13 72,35.521 v -5.87 l 8.217,3.522 -11.739,-9.39 v 4.401 L 61.44,26.13"
       fill="#ea8e00"
       fill-rule="evenodd"
       id="path4"
       style="stroke-width:2.34938" />
  </g>
</svg>
