<?xml version="1.0" encoding="UTF-8" standalone="no"?>
<svg
   width="24"
   height="24"
   viewBox="0 0 6.349875 6.349875"
   version="1.1"
   id="svg2"
   sodipodi:docname="qgit.svg"
   inkscape:version="1.3 (0e150ed6c4, 2023-07-21)"
   xmlns:inkscape="http://www.inkscape.org/namespaces/inkscape"
   xmlns:sodipodi="http://sodipodi.sourceforge.net/DTD/sodipodi-0.dtd"
   xmlns="http://www.w3.org/2000/svg"
   xmlns:svg="http://www.w3.org/2000/svg">
  <defs
     id="defs2">
    <radialGradient
       fx="0"
       fy="0"
       cx="0"
       cy="0"
       r="1"
       gradientUnits="userSpaceOnUse"
       gradientTransform="matrix(0,16.5,-16.5,0,8.999651,0.749985)"
       spreadMethod="pad"
       id="radialGradient868-3">
      <stop
         style="stop-opacity:1;stop-color:#fafafa"
         offset="0"
         id="stop864-6" />
      <stop
         style="stop-opacity:1;stop-color:#c0c0c0"
         offset="1"
         id="stop866-7" />
    </radialGradient>
  </defs>
  <sodipodi:namedview
     id="namedview2"
     pagecolor="#ffffff"
     bordercolor="#000000"
     borderopacity="0.25"
     inkscape:showpageshadow="2"
     inkscape:pageopacity="0.0"
     inkscape:pagecheckerboard="0"
     inkscape:deskcolor="#d1d1d1"
     inkscape:zoom="6.3359375"
     inkscape:cx="39.61529"
     inkscape:cy="35.906289"
     inkscape:window-width="2560"
     inkscape:window-height="998"
     inkscape:window-x="0"
     inkscape:window-y="0"
     inkscape:window-maximized="1"
     inkscape:current-layer="svg2" />
  <g
     id="g854"
     transform="matrix(0.35277082,0,0,0.35277082,-1.1970624e-4,-9.3206514e-6)">
    <g
       id="g856">
      <g
         id="g862">
        <path
           d="m 7.195,0.836 c 0.09,0 0.176,-0.012 0.258,-0.035 1.078,-0.071 2.156,-0.067 3.231,0.008 0.976,0.078 1.921,0.289 2.836,0.636 1.519,0.625 2.558,1.711 3.121,3.254 0.316,0.93 0.507,1.887 0.566,2.867 0.078,1.235 0.051,2.465 -0.086,3.696 -0.105,0.863 -0.328,1.691 -0.672,2.488 -0.637,1.383 -1.672,2.336 -3.101,2.859 C 12.191,17 11,17.207 9.773,17.227 8.398,17.301 7.035,17.195 5.684,16.918 3.203,16.367 1.668,14.852 1.09,12.375 0.844,11.262 0.73,10.133 0.754,8.992 0.727,7.781 0.855,6.582 1.141,5.402 1.75,3.09 3.219,1.656 5.547,1.102 6.09,0.969 6.641,0.879 7.195,0.836 Z"
           style="fill:url(#radialGradient868-3);fill-rule:evenodd;stroke:none"
           id="path870" />
      </g>
    </g>
  </g>
  <g
     id="g3"
     transform="matrix(0.3421042,0,0,0.3421042,0.27834091,0.28073595)"
     style="stroke-width:2.92308">
    <circle
       cx="8.467001"
       cy="8.46"
       r="5.027"
       fill="#3f9f4a"
       style="stroke-width:2.92308;paint-order:stroke markers fill"
       id="circle3" />
    <path
       d="m 7.4082395,6.08534 a 1.05832,1.05832 0 0 0 -1.02313,0.79374 h -1.62267 v 0.52916 h 1.621876 a 1.05832,1.05832 0 0 0 1.023924,0.79374 1.05832,1.05832 0 0 0 0.356654,-0.06297 l 1.907622,1.907622 A 1.05832,1.05832 0 0 0 9.5248795,10.5832 1.05832,1.05832 0 0 0 10.583198,11.64152 1.05832,1.05832 0 0 0 11.641517,10.5832 1.05832,1.05832 0 0 0 10.583198,9.52488 1.05832,1.05832 0 0 0 10.046894,9.6727802 L 8.2085925,7.8344784 A 1.05832,1.05832 0 0 0 8.4313685,7.40824 h 1.392749 a 1.05832,1.05832 0 0 0 1.0236595,0.79374 1.05832,1.05832 0 0 0 1.05832,-1.05832 1.05832,1.05832 0 0 0 -1.05832,-1.05832 1.05832,1.05832 0 0 0 -1.0231295,0.79374 h -1.39275 A 1.05832,1.05832 0 0 0 7.4082395,6.08534 Z"
       fill="#ffffff"
       style="stroke-width:0.77339;paint-order:stroke fill markers"
       id="path3" />
  </g>
</svg>
