<?xml version="1.0" encoding="UTF-8" standalone="no"?>
<svg
   width="24"
   height="24"
   viewBox="0 0 6.349875 6.349875"
   version="1.1"
   id="svg13"
   sodipodi:docname="qjackctl.svg"
   inkscape:version="1.3 (0e150ed6c4, 2023-07-21)"
   xmlns:inkscape="http://www.inkscape.org/namespaces/inkscape"
   xmlns:sodipodi="http://sodipodi.sourceforge.net/DTD/sodipodi-0.dtd"
   xmlns="http://www.w3.org/2000/svg"
   xmlns:svg="http://www.w3.org/2000/svg"
   xmlns:sketch="http://www.bohemiancoding.com/sketch/ns">
  <defs
     id="defs13" />
  <sodipodi:namedview
     id="namedview13"
     pagecolor="#ffffff"
     bordercolor="#000000"
     borderopacity="0.25"
     inkscape:showpageshadow="2"
     inkscape:pageopacity="0.0"
     inkscape:pagecheckerboard="0"
     inkscape:deskcolor="#d1d1d1"
     inkscape:zoom="4.4801844"
     inkscape:cx="-12.053075"
     inkscape:cy="22.655318"
     inkscape:window-width="2560"
     inkscape:window-height="998"
     inkscape:window-x="0"
     inkscape:window-y="0"
     inkscape:window-maximized="1"
     inkscape:current-layer="svg13" />
  <path
     d="m 3.1749374,0.26457811 c -2.64578117,0 -2.91035929,1.32289059 -2.91035929,2.91035929 0,2.116625 0.79373439,2.9103592 2.91035929,2.9103592 2.116625,0 2.9103592,-0.7937342 2.9103592,-2.9103592 0,-1.5874687 -0.264578,-2.91035929 -2.9103592,-2.91035929 z"
     sketch:type="MSShapeGroup"
     id="path6-4"
     style="font-variation-settings:normal;display:inline;vector-effect:none;fill:#e6e6e6;fill-opacity:1;stroke-width:0.295341;stroke-linecap:butt;stroke-linejoin:miter;stroke-miterlimit:4;stroke-dasharray:none;stroke-dashoffset:0;stroke-opacity:1;-inkscape-stroke:none;stop-color:#000000"
     sodipodi:nodetypes="sssss"
     inkscape:label="Shape" />
  <path
     d="m 3.1749374,0.52254189 c -2.41126864,0 -2.65239551,1.20563431 -2.65239551,2.65239551 0,1.929015 0.72338061,2.6523954 2.65239551,2.6523954 1.929015,0 2.6523954,-0.7233804 2.6523954,-2.6523954 0,-1.4467612 -0.2411267,-2.65239551 -2.6523954,-2.65239551 z"
     sketch:type="MSShapeGroup"
     id="path45683"
     style="font-variation-settings:normal;display:inline;vector-effect:none;fill:#f2f2f2;fill-opacity:1;stroke-width:0.269163;stroke-linecap:butt;stroke-linejoin:miter;stroke-miterlimit:4;stroke-dasharray:none;stroke-dashoffset:0;stroke-opacity:1;-inkscape-stroke:none;stop-color:#000000"
     sodipodi:nodetypes="sssss"
     inkscape:label="Shape" />
  <g
     id="g25"
     transform="matrix(0.24760402,0,0,0.24760402,-0.13585981,0.53582922)"
     style="stroke-width:4.03871">
    <path
       d="m 7.7368823,4.2079867 -0.667,0.68 a 0.774,0.99 0 0 1 0.015,0.01 0.774,0.99 0 0 1 0.03,0.025 0.774,0.99 0 0 1 0.029,0.027 0.774,0.99 0 0 1 0.028,0.027 0.774,0.99 0 0 1 0.027,0.03 0.774,0.99 0 0 1 0.025,0.031 0.774,0.99 0 0 1 0.025,0.033 0.774,0.99 0 0 1 0.023,0.034 l 0.674,-0.688 a 1.204,1.16 0 0 0 -0.008,-0.011 1.204,1.16 0 0 0 -0.03,-0.036 1.204,1.16 0 0 0 -0.032,-0.035 1.204,1.16 0 0 0 -0.032,-0.033 1.204,1.16 0 0 0 -0.035,-0.033 1.204,1.16 0 0 0 -0.035,-0.031 1.204,1.16 0 0 0 -0.037,-0.03 z m -0.465,0.897 a 0.774,0.99 0 0 0 -0.023,-0.034 0.774,0.99 0 0 0 -0.025,-0.033 0.774,0.99 0 0 0 -0.025,-0.031 0.774,0.99 0 0 0 -0.027,-0.03 0.774,0.99 0 0 0 -0.028,-0.027 0.774,0.99 0 0 0 -0.03,-0.027 0.774,0.99 0 0 0 -0.03,-0.025 0.774,0.99 0 0 0 -0.014,-0.01 l -0.51,0.519 0.208,0.211 z m 0.95,-1.392 -0.485,0.495 a 1.204,1.16 0 0 1 0.037,0.03 1.204,1.16 0 0 1 0.035,0.031 1.204,1.16 0 0 1 0.035,0.033 1.204,1.16 0 0 1 0.032,0.033 1.204,1.16 0 0 1 0.032,0.035 1.204,1.16 0 0 1 0.03,0.036 1.204,1.16 0 0 1 0.008,0.011 l 0.483,-0.492 z"
       fill="#c0c0c0"
       fill-opacity="0.812"
       id="path14"
       style="stroke-width:4.03871" />
    <path
       d="m 7.2728823,5.1049867 a 0.774,0.99 0 0 0 -0.024,-0.034 0.774,0.99 0 0 0 -0.024,-0.033 0.774,0.99 0 0 0 -0.026,-0.031 0.774,0.99 0 0 0 -0.027,-0.03 0.774,0.99 0 0 0 -0.028,-0.027 0.774,0.99 0 0 0 -0.029,-0.027 0.774,0.99 0 0 0 -0.03,-0.025 0.774,0.99 0 0 0 -0.015,-0.01 l -0.51,0.519 0.208,0.211 0.504,-0.513 z"
       fill-opacity="0.2"
       id="path15"
       style="stroke-width:4.03871" />
    <path
       d="m 7.7368823,4.2079867 -0.667,0.68 a 0.774,0.99 0 0 1 0.015,0.01 0.774,0.99 0 0 1 0.03,0.025 0.774,0.99 0 0 1 0.029,0.027 0.774,0.99 0 0 1 0.028,0.027 0.774,0.99 0 0 1 0.027,0.03 0.774,0.99 0 0 1 0.025,0.031 0.774,0.99 0 0 1 0.025,0.033 0.774,0.99 0 0 1 0.023,0.034 l 0.674,-0.688 a 1.204,1.16 0 0 0 -0.008,-0.011 1.204,1.16 0 0 0 -0.03,-0.036 1.204,1.16 0 0 0 -0.032,-0.035 1.204,1.16 0 0 0 -0.032,-0.033 1.204,1.16 0 0 0 -0.035,-0.033 1.204,1.16 0 0 0 -0.035,-0.031 1.204,1.16 0 0 0 -0.037,-0.03 z"
       fill-opacity="0.1"
       id="path16"
       style="stroke-width:4.03871" />
    <path
       d="m 8.6348823,3.8239867 a 0.264,0.264 0 0 0 -0.186,0.08 l -0.684,0.698 -1.017,1.037 a 0.27,0.27 0 0 0 -0.004,0.378 l 0.23,0.234 0.002,0.003 -0.02,0.02 a 0.27,0.27 0 0 0 -0.004,0.378 l 4.8229987,4.9180003 a 0.258,0.258 0 0 0 0.37,-0.004 l 0.02,-0.02 0.115,0.116 0.532,0.543 a 0.258,0.258 0 0 0 0.37,-0.004 l 1.112,-1.133 0.591,-0.602 a 0.27,0.27 0 0 0 0.004,-0.378 l -0.647,-0.6600003 0.02,-0.02 a 0.27,0.27 0 0 0 0.004,-0.378 l -4.8229987,-4.918 a 0.258,0.258 0 0 0 -0.371,0.004 l -0.02,0.02 -0.232,-0.235 a 0.253,0.253 0 0 0 -0.185,-0.077 z"
       fill="#333333"
       id="path17"
       style="stroke-width:4.03871" />
    <g
       fill="#c0c0c0"
       fill-opacity="0.753"
       id="g20"
       transform="translate(4.9728823,2.1259867)"
       style="stroke-width:4.03871">
      <path
         d="m 14.998,15.43 a 1.272,0.692 48.332 0 0 -0.012,-0.028 1.272,0.692 48.332 0 0 -0.022,-0.045 1.272,0.692 48.332 0 0 -0.023,-0.046 1.272,0.692 48.332 0 0 -0.024,-0.045 1.272,0.692 48.332 0 0 -0.026,-0.044 1.272,0.692 48.332 0 0 -0.027,-0.045 1.272,0.692 48.332 0 0 -0.03,-0.044 1.272,0.692 48.332 0 0 -0.03,-0.045 1.272,0.692 48.332 0 0 -0.03,-0.043 A 1.272,0.692 48.332 0 0 14.74,15 a 1.272,0.692 48.332 0 0 -0.033,-0.042 1.272,0.692 48.332 0 0 -0.035,-0.042 1.272,0.692 48.332 0 0 -0.036,-0.04 1.272,0.692 48.332 0 0 -0.027,-0.03 1.272,0.692 48.332 0 0 -0.037,-0.04 1.272,0.692 48.332 0 0 -0.038,-0.039 1.272,0.692 48.332 0 0 -0.04,-0.037 1.272,0.692 48.332 0 0 -0.039,-0.037 1.272,0.692 48.332 0 0 -0.04,-0.035 1.272,0.692 48.332 0 0 -0.04,-0.034 1.272,0.692 48.332 0 0 -0.042,-0.032 1.272,0.692 48.332 0 0 -0.041,-0.032 1.272,0.692 48.332 0 0 -0.042,-0.03 1.272,0.692 48.332 0 0 -0.042,-0.028 1.272,0.692 48.332 0 0 -0.042,-0.027 1.272,0.692 48.332 0 0 -0.043,-0.025 1.272,0.692 48.332 0 0 -0.042,-0.024 1.272,0.692 48.332 0 0 -0.043,-0.022 1.272,0.692 48.332 0 0 -0.041,-0.02 1.272,0.692 48.332 0 0 -0.042,-0.02 1.272,0.692 48.332 0 0 -0.042,-0.016 1.272,0.692 48.332 0 0 -0.041,-0.015 1.272,0.692 48.332 0 0 -0.04,-0.013 1.272,0.692 48.332 0 0 -0.041,-0.012 1.272,0.692 48.332 0 0 -0.04,-0.009 1.272,0.692 48.332 0 0 -0.039,-0.008 1.272,0.692 48.332 0 0 -0.038,-0.005 1.272,0.692 48.332 0 0 -0.038,-0.004 1.272,0.692 48.332 0 0 -0.036,-0.002 1.272,0.692 48.332 0 0 -0.035,0 1.272,0.692 48.332 0 0 -0.035,0.002 1.272,0.692 48.332 0 0 -0.034,0.004 1.272,0.692 48.332 0 0 -0.032,0.006 1.272,0.692 48.332 0 0 -0.031,0.008 1.272,0.692 48.332 0 0 -0.03,0.01 1.272,0.692 48.332 0 0 -0.029,0.01 1.272,0.692 48.332 0 0 -0.007,0.004 0.223,0.223 0 0 1 0.156,0.068 c 0.208,0.212 -0.104,0.529 0.104,0.74 0.208,0.212 1.246,0.424 1.35,0.318 l 0.02,-0.02 z"
         id="path18"
         style="stroke-width:4.03871" />
      <path
         d="m 9.226,9.04 -0.788,0.802 4.567,4.657 c 0,0 0.183,-0.182 0.363,-0.173 a 1.272,0.692 48.332 0 1 0.007,-0.004 1.272,0.692 48.332 0 1 0.029,-0.011 1.272,0.692 48.332 0 1 0.03,-0.01 1.272,0.692 48.332 0 1 0.03,-0.008 1.272,0.692 48.332 0 1 0.033,-0.006 1.272,0.692 48.332 0 1 0.034,-0.004 1.272,0.692 48.332 0 1 0.034,-0.002 1.272,0.692 48.332 0 1 0.036,0 1.272,0.692 48.332 0 1 0.036,0.002 1.272,0.692 48.332 0 1 0.038,0.004 1.272,0.692 48.332 0 1 0.038,0.006 1.272,0.692 48.332 0 1 0.039,0.007 1.272,0.692 48.332 0 1 0.04,0.01 1.272,0.692 48.332 0 1 0.04,0.011 1.272,0.692 48.332 0 1 0.04,0.013 1.272,0.692 48.332 0 1 0.042,0.015 1.272,0.692 48.332 0 1 0.042,0.017 1.272,0.692 48.332 0 1 0.041,0.019 1.272,0.692 48.332 0 1 0.042,0.02 1.272,0.692 48.332 0 1 0.043,0.022 1.272,0.692 48.332 0 1 0.042,0.024 1.272,0.692 48.332 0 1 0.042,0.025 1.272,0.692 48.332 0 1 0.043,0.027 1.272,0.692 48.332 0 1 0.042,0.028 1.272,0.692 48.332 0 1 0.042,0.03 1.272,0.692 48.332 0 1 0.041,0.032 1.272,0.692 48.332 0 1 0.041,0.032 1.272,0.692 48.332 0 1 0.041,0.034 1.272,0.692 48.332 0 1 0.04,0.036 1.272,0.692 48.332 0 1 0.04,0.036 1.272,0.692 48.332 0 1 0.039,0.038 1.272,0.692 48.332 0 1 0.038,0.038 1.272,0.692 48.332 0 1 0.037,0.04 1.272,0.692 48.332 0 1 0.027,0.03 1.272,0.692 48.332 0 1 0.036,0.04 1.272,0.692 48.332 0 1 0.034,0.042 1.272,0.692 48.332 0 1 0.034,0.043 1.272,0.692 48.332 0 1 0.033,0.043 1.272,0.692 48.332 0 1 0.03,0.043 1.272,0.692 48.332 0 1 0.03,0.045 1.272,0.692 48.332 0 1 0.03,0.044 1.272,0.692 48.332 0 1 0.027,0.045 1.272,0.692 48.332 0 1 0.026,0.045 1.272,0.692 48.332 0 1 0.024,0.045 1.272,0.692 48.332 0 1 0.023,0.045 1.272,0.692 48.332 0 1 0.021,0.045 1.272,0.692 48.332 0 1 0.013,0.028 l 0.083,-0.084 0.104,-0.106 c 0.062,-0.064 0,-0.436 -0.095,-0.798 a 4.933,1.333 42.077 0 1 -0.05,-0.021 4.933,1.333 42.077 0 1 -0.069,-0.03 4.933,1.333 42.077 0 1 -0.07,-0.033 4.933,1.333 42.077 0 1 -0.071,-0.034 4.933,1.333 42.077 0 1 -0.072,-0.036 4.933,1.333 42.077 0 1 -0.074,-0.037 4.933,1.333 42.077 0 1 -0.074,-0.039 4.933,1.333 42.077 0 1 -0.075,-0.04 4.933,1.333 42.077 0 1 -0.076,-0.042 4.933,1.333 42.077 0 1 -0.077,-0.044 4.933,1.333 42.077 0 1 -0.078,-0.045 4.933,1.333 42.077 0 1 -0.079,-0.046 4.933,1.333 42.077 0 1 -0.08,-0.048 4.933,1.333 42.077 0 1 -0.08,-0.049 4.933,1.333 42.077 0 1 -0.08,-0.05 4.933,1.333 42.077 0 1 -0.082,-0.052 4.933,1.333 42.077 0 1 -0.082,-0.053 4.933,1.333 42.077 0 1 -0.082,-0.055 4.933,1.333 42.077 0 1 -0.083,-0.056 4.933,1.333 42.077 0 1 -0.084,-0.057 4.933,1.333 42.077 0 1 -0.084,-0.058 4.933,1.333 42.077 0 1 -0.084,-0.06 4.933,1.333 42.077 0 1 -0.085,-0.06 4.933,1.333 42.077 0 1 -0.085,-0.061 4.933,1.333 42.077 0 1 -0.085,-0.063 4.933,1.333 42.077 0 1 -0.085,-0.064 4.933,1.333 42.077 0 1 -0.086,-0.065 4.933,1.333 42.077 0 1 -0.085,-0.066 4.933,1.333 42.077 0 1 -0.086,-0.067 4.933,1.333 42.077 0 1 -0.086,-0.068 4.933,1.333 42.077 0 1 -0.086,-0.068 4.933,1.333 42.077 0 1 -0.086,-0.07 4.933,1.333 42.077 0 1 -0.085,-0.07 4.933,1.333 42.077 0 1 -0.085,-0.07 A 4.933,1.333 42.077 0 1 12.294,12.592 4.933,1.333 42.077 0 1 12.208,12.52 4.933,1.333 42.077 0 1 12.124,12.447 4.933,1.333 42.077 0 1 12.039,12.373 4.933,1.333 42.077 0 1 11.956,12.298 4.933,1.333 42.077 0 1 11.872,12.223 4.933,1.333 42.077 0 1 11.869,12.221 4.933,1.333 42.077 0 1 11.787,12.146 4.933,1.333 42.077 0 1 11.704,12.07 4.933,1.333 42.077 0 1 11.622,11.994 4.933,1.333 42.077 0 1 11.541,11.917 4.933,1.333 42.077 0 1 11.46,11.84 4.933,1.333 42.077 0 1 11.38,11.762 4.933,1.333 42.077 0 1 11.3,11.685 4.933,1.333 42.077 0 1 11.221,11.606 4.933,1.333 42.077 0 1 11.144,11.528 4.933,1.333 42.077 0 1 11.067,11.45 4.933,1.333 42.077 0 1 10.99,11.372 4.933,1.333 42.077 0 1 10.915,11.293 4.933,1.333 42.077 0 1 10.841,11.215 4.933,1.333 42.077 0 1 10.768,11.136 4.933,1.333 42.077 0 1 10.696,11.058 4.933,1.333 42.077 0 1 10.625,10.98 4.933,1.333 42.077 0 1 10.555,10.901 4.933,1.333 42.077 0 1 10.485,10.823 4.933,1.333 42.077 0 1 10.418,10.746 4.933,1.333 42.077 0 1 10.351,10.668 4.933,1.333 42.077 0 1 10.286,10.591 4.933,1.333 42.077 0 1 10.222,10.514 4.933,1.333 42.077 0 1 10.159,10.437 4.933,1.333 42.077 0 1 10.098,10.361 4.933,1.333 42.077 0 1 10.038,10.285 4.933,1.333 42.077 0 1 9.98,10.21 4.933,1.333 42.077 0 1 9.922,10.135 4.933,1.333 42.077 0 1 9.867,10.061 4.933,1.333 42.077 0 1 9.813,9.987 4.933,1.333 42.077 0 1 9.76,9.915 4.933,1.333 42.077 0 1 9.709,9.842 4.933,1.333 42.077 0 1 9.659,9.77 4.933,1.333 42.077 0 1 9.612,9.7 4.933,1.333 42.077 0 1 9.566,9.63 4.933,1.333 42.077 0 1 9.521,9.561 4.933,1.333 42.077 0 1 9.478,9.492 4.933,1.333 42.077 0 1 9.437,9.425 4.933,1.333 42.077 0 1 9.397,9.359 4.933,1.333 42.077 0 1 9.36,9.293 4.933,1.333 42.077 0 1 9.324,9.229 4.933,1.333 42.077 0 1 9.29,9.166 4.933,1.333 42.077 0 1 9.257,9.103 4.933,1.333 42.077 0 1 9.227,9.042 4.933,1.333 42.077 0 1 9.226,9.039 Z"
         id="path19"
         style="stroke-width:4.03871" />
      <path
         d="m 9.226,9.04 a 4.933,1.333 42.077 0 0 0,0.002 4.933,1.333 42.077 0 0 0.031,0.061 4.933,1.333 42.077 0 0 0.033,0.063 4.933,1.333 42.077 0 0 0.034,0.063 4.933,1.333 42.077 0 0 0.035,0.064 4.933,1.333 42.077 0 0 0.038,0.066 4.933,1.333 42.077 0 0 0.04,0.066 4.933,1.333 42.077 0 0 0.04,0.067 4.933,1.333 42.077 0 0 0.044,0.069 4.933,1.333 42.077 0 0 0.045,0.069 4.933,1.333 42.077 0 0 0.046,0.07 4.933,1.333 42.077 0 0 0.048,0.07 4.933,1.333 42.077 0 0 0.049,0.072 4.933,1.333 42.077 0 0 0.051,0.072 4.933,1.333 42.077 0 0 0.053,0.073 4.933,1.333 42.077 0 0 0.054,0.074 4.933,1.333 42.077 0 0 0.055,0.074 4.933,1.333 42.077 0 0 0.058,0.075 4.933,1.333 42.077 0 0 0.058,0.075 4.933,1.333 42.077 0 0 0.06,0.075 4.933,1.333 42.077 0 0 0.061,0.077 4.933,1.333 42.077 0 0 0.063,0.076 4.933,1.333 42.077 0 0 0.064,0.077 4.933,1.333 42.077 0 0 0.065,0.077 4.933,1.333 42.077 0 0 0.067,0.078 4.933,1.333 42.077 0 0 0.067,0.078 4.933,1.333 42.077 0 0 0.07,0.078 4.933,1.333 42.077 0 0 0.07,0.079 4.933,1.333 42.077 0 0 0.07,0.078 4.933,1.333 42.077 0 0 0.073,0.078 4.933,1.333 42.077 0 0 0.073,0.079 4.933,1.333 42.077 0 0 0.074,0.078 4.933,1.333 42.077 0 0 0.075,0.079 4.933,1.333 42.077 0 0 0.077,0.078 4.933,1.333 42.077 0 0 0.077,0.078 4.933,1.333 42.077 0 0 0.077,0.078 4.933,1.333 42.077 0 0 0.08,0.078 4.933,1.333 42.077 0 0 0.078,0.078 4.933,1.333 42.077 0 0 0.08,0.077 4.933,1.333 42.077 0 0 0.082,0.078 4.933,1.333 42.077 0 0 0.08,0.076 4.933,1.333 42.077 0 0 0.083,0.077 4.933,1.333 42.077 0 0 0.083,0.076 4.933,1.333 42.077 0 0 0.082,0.075 4.933,1.333 42.077 0 0 0.003,0.002 4.933,1.333 42.077 0 0 0.084,0.075 4.933,1.333 42.077 0 0 0.083,0.075 4.933,1.333 42.077 0 0 0.085,0.074 4.933,1.333 42.077 0 0 0.084,0.072 4.933,1.333 42.077 0 0 0.086,0.073 4.933,1.333 42.077 0 0 0.085,0.072 4.933,1.333 42.077 0 0 0.085,0.071 4.933,1.333 42.077 0 0 0.085,0.07 4.933,1.333 42.077 0 0 0.086,0.07 4.933,1.333 42.077 0 0 0.086,0.068 4.933,1.333 42.077 0 0 0.086,0.068 4.933,1.333 42.077 0 0 0.086,0.067 4.933,1.333 42.077 0 0 0.085,0.066 4.933,1.333 42.077 0 0 0.086,0.065 4.933,1.333 42.077 0 0 0.085,0.063 4.933,1.333 42.077 0 0 0.085,0.063 4.933,1.333 42.077 0 0 0.085,0.062 4.933,1.333 42.077 0 0 0.085,0.06 4.933,1.333 42.077 0 0 0.084,0.06 4.933,1.333 42.077 0 0 0.084,0.058 4.933,1.333 42.077 0 0 0.084,0.057 4.933,1.333 42.077 0 0 0.083,0.056 4.933,1.333 42.077 0 0 0.082,0.055 4.933,1.333 42.077 0 0 0.082,0.053 4.933,1.333 42.077 0 0 0.082,0.052 4.933,1.333 42.077 0 0 0.08,0.05 4.933,1.333 42.077 0 0 0.08,0.05 4.933,1.333 42.077 0 0 0.08,0.047 4.933,1.333 42.077 0 0 0.079,0.046 4.933,1.333 42.077 0 0 0.078,0.045 4.933,1.333 42.077 0 0 0.077,0.044 4.933,1.333 42.077 0 0 0.076,0.042 4.933,1.333 42.077 0 0 0.075,0.04 4.933,1.333 42.077 0 0 0.074,0.039 4.933,1.333 42.077 0 0 0.074,0.037 4.933,1.333 42.077 0 0 0.072,0.035 4.933,1.333 42.077 0 0 0.071,0.035 4.933,1.333 42.077 0 0 0.07,0.032 4.933,1.333 42.077 0 0 0.069,0.03 4.933,1.333 42.077 0 0 0.05,0.022 c -0.063,-0.238 -0.134,-0.494 -0.217,-0.578 -0.207,-0.212 -0.519,0.106 -0.726,-0.106 -0.208,-0.212 0.104,-0.529 0.104,-0.529 L 9.683,8.572 9.226,9.039 Z"
         id="path20"
         style="stroke-width:4.03871" />
    </g>
    <path
       d="m 14.198881,11.165987 a 4.933,1.333 42.077 0 0 0,0.002 4.933,1.333 42.077 0 0 0.031,0.061 4.933,1.333 42.077 0 0 0.033,0.063 4.933,1.333 42.077 0 0 0.034,0.063 4.933,1.333 42.077 0 0 0.035,0.064 4.933,1.333 42.077 0 0 0.038,0.066 4.933,1.333 42.077 0 0 0.04,0.066 4.933,1.333 42.077 0 0 0.04,0.067 4.933,1.333 42.077 0 0 0.044,0.069 4.933,1.333 42.077 0 0 0.045,0.069 4.933,1.333 42.077 0 0 0.046,0.07 4.933,1.333 42.077 0 0 0.048,0.07 4.933,1.333 42.077 0 0 0.049,0.072 4.933,1.333 42.077 0 0 0.051,0.072 4.933,1.333 42.077 0 0 0.053,0.073 4.933,1.333 42.077 0 0 0.054,0.074 4.933,1.333 42.077 0 0 0.055,0.074 4.933,1.333 42.077 0 0 0.058,0.075 4.933,1.333 42.077 0 0 0.058,0.075 4.933,1.333 42.077 0 0 0.06,0.075 4.933,1.333 42.077 0 0 0.061,0.077 4.933,1.333 42.077 0 0 0.063,0.076 4.933,1.333 42.077 0 0 0.064,0.077 4.933,1.333 42.077 0 0 0.065,0.077 4.933,1.333 42.077 0 0 0.067,0.078 4.933,1.333 42.077 0 0 0.067,0.078 4.933,1.333 42.077 0 0 0.07,0.078 4.933,1.333 42.077 0 0 0.07,0.079 4.933,1.333 42.077 0 0 0.07,0.078 4.933,1.333 42.077 0 0 0.073,0.078 4.933,1.333 42.077 0 0 0.073,0.079 4.933,1.333 42.077 0 0 0.074,0.078 4.933,1.333 42.077 0 0 0.075,0.079 4.933,1.333 42.077 0 0 0.077,0.078 4.933,1.333 42.077 0 0 0.077,0.078 4.933,1.333 42.077 0 0 0.077,0.078 4.933,1.333 42.077 0 0 0.08,0.078 4.933,1.333 42.077 0 0 0.078,0.078 4.933,1.333 42.077 0 0 0.08,0.077 4.933,1.333 42.077 0 0 0.082,0.078 4.933,1.333 42.077 0 0 0.08,0.076 4.933,1.333 42.077 0 0 0.083,0.077 4.933,1.333 42.077 0 0 0.083,0.076 4.933,1.333 42.077 0 0 0.082,0.075 4.933,1.333 42.077 0 0 0.003,0.002 4.933,1.333 42.077 0 0 0.084,0.075 4.933,1.333 42.077 0 0 0.083,0.075 4.933,1.333 42.077 0 0 0.085,0.074 4.933,1.333 42.077 0 0 0.084,0.072 4.933,1.333 42.077 0 0 0.086,0.073 4.933,1.333 42.077 0 0 0.085,0.072 4.933,1.333 42.077 0 0 0.085,0.071 4.933,1.333 42.077 0 0 0.085,0.07 4.933,1.333 42.077 0 0 0.086,0.07 4.933,1.333 42.077 0 0 0.086,0.068 4.933,1.333 42.077 0 0 0.086,0.068 4.933,1.333 42.077 0 0 0.086,0.067 4.933,1.333 42.077 0 0 0.085,0.066 4.933,1.333 42.077 0 0 0.086,0.065 4.933,1.333 42.077 0 0 0.085,0.063 4.933,1.333 42.077 0 0 0.085,0.063 4.933,1.333 42.077 0 0 0.085,0.062 4.933,1.333 42.077 0 0 0.085,0.06 4.933,1.333 42.077 0 0 0.084,0.06 4.933,1.333 42.077 0 0 0.084,0.058 4.933,1.333 42.077 0 0 0.084,0.057 4.933,1.333 42.077 0 0 0.083,0.056 4.933,1.333 42.077 0 0 0.082,0.055 4.933,1.333 42.077 0 0 0.082,0.053 4.933,1.333 42.077 0 0 0.082,0.052 4.933,1.333 42.077 0 0 0.08,0.05 4.933,1.333 42.077 0 0 0.08,0.05 4.933,1.333 42.077 0 0 0.08,0.047 4.933,1.333 42.077 0 0 0.079,0.046 4.933,1.333 42.077 0 0 0.078,0.045 4.933,1.333 42.077 0 0 0.077,0.044 4.933,1.333 42.077 0 0 0.076,0.042 4.933,1.333 42.077 0 0 0.075,0.04 4.933,1.333 42.077 0 0 0.074,0.039 4.933,1.333 42.077 0 0 0.074,0.037 4.933,1.333 42.077 0 0 0.072,0.035 4.933,1.333 42.077 0 0 0.071,0.035 4.933,1.333 42.077 0 0 0.07,0.032 4.933,1.333 42.077 0 0 0.069,0.03 4.933,1.333 42.077 0 0 0.05,0.022 c -0.063,-0.238 -0.134,-0.494 -0.216999,-0.578 -0.207,-0.212 -0.519001,0.106 -0.726001,-0.106 -0.207999,-0.212 0.104,-0.529 0.104,-0.529 l -4.568,-4.657 -0.457,0.467 z"
       fill="#ffffff"
       fill-opacity="0.326"
       id="path21"
       style="stroke-width:4.03871" />
    <path
       fill="#333333"
       d="m 16.524881,15.143987 1.246,-1.27 0.207,0.211 -1.246,1.27 z m 1.038,1.058 1.245,-1.27 0.208,0.211 -1.246,1.27 z"
       id="path22"
       style="stroke-width:4.03871" />
    <path
       d="m 19.970881,17.555987 a 1.272,0.692 48.332 0 0 -0.012,-0.028 1.272,0.692 48.332 0 0 -0.022,-0.045 1.272,0.692 48.332 0 0 -0.023,-0.046 1.272,0.692 48.332 0 0 -0.024,-0.045 1.272,0.692 48.332 0 0 -0.026,-0.044 1.272,0.692 48.332 0 0 -0.027,-0.045 1.272,0.692 48.332 0 0 -0.03,-0.044 1.272,0.692 48.332 0 0 -0.03,-0.045 1.272,0.692 48.332 0 0 -0.03,-0.043 1.272,0.692 48.332 0 0 -0.034,-0.045 1.272,0.692 48.332 0 0 -0.033,-0.042 1.272,0.692 48.332 0 0 -0.035,-0.042 1.272,0.692 48.332 0 0 -0.036,-0.04 1.272,0.692 48.332 0 0 -0.027,-0.03 1.272,0.692 48.332 0 0 -0.037,-0.04 1.272,0.692 48.332 0 0 -0.038,-0.039 1.272,0.692 48.332 0 0 -0.04,-0.037 1.272,0.692 48.332 0 0 -0.039,-0.037 1.272,0.692 48.332 0 0 -0.04,-0.035 1.272,0.692 48.332 0 0 -0.04,-0.034 1.272,0.692 48.332 0 0 -0.042,-0.032 1.272,0.692 48.332 0 0 -0.041,-0.032 1.272,0.692 48.332 0 0 -0.042,-0.03 1.272,0.692 48.332 0 0 -0.042,-0.028 1.272,0.692 48.332 0 0 -0.042,-0.027 1.272,0.692 48.332 0 0 -0.043,-0.025 1.272,0.692 48.332 0 0 -0.042,-0.024 1.272,0.692 48.332 0 0 -0.043,-0.022 1.272,0.692 48.332 0 0 -0.041,-0.02 1.272,0.692 48.332 0 0 -0.042,-0.02 1.272,0.692 48.332 0 0 -0.042,-0.016 1.272,0.692 48.332 0 0 -0.041,-0.015 1.272,0.692 48.332 0 0 -0.04,-0.013 1.272,0.692 48.332 0 0 -0.041,-0.012 1.272,0.692 48.332 0 0 -0.04,-0.009 1.272,0.692 48.332 0 0 -0.039,-0.008 1.272,0.692 48.332 0 0 -0.038,-0.005 1.272,0.692 48.332 0 0 -0.038,-0.004 1.272,0.692 48.332 0 0 -0.036,-0.002 1.272,0.692 48.332 0 0 -0.035,0 1.272,0.692 48.332 0 0 -0.035,0.002 1.272,0.692 48.332 0 0 -0.034,0.004 1.272,0.692 48.332 0 0 -0.032,0.006 1.272,0.692 48.332 0 0 -0.031,0.008 1.272,0.692 48.332 0 0 -0.03,0.01 1.272,0.692 48.332 0 0 -0.029,0.01 1.272,0.692 48.332 0 0 -0.007,0.004 0.223,0.223 0 0 1 0.156,0.068 c 0.208,0.212 -0.104,0.529 0.104,0.74 0.208,0.212 1.246,0.424 1.35,0.318 l 0.02,-0.02 z"
       fill-opacity="0.074"
       id="path23"
       style="stroke-width:4.03871" />
    <path
       d="m 8.6348823,3.8239867 a 0.264,0.264 0 0 0 -0.186,0.08 l -0.684,0.698 a 6.96,2.274 45 0 1 0.007,0.003 6.96,2.274 45 0 1 0.09,0.05 6.96,2.274 45 0 1 0.091,0.051 6.96,2.274 45 0 1 0.092,0.053 6.96,2.274 45 0 1 0.092,0.055 6.96,2.274 45 0 1 0.093,0.056 6.96,2.274 45 0 1 0.094,0.057 6.96,2.274 45 0 1 0.094,0.06 6.96,2.274 45 0 1 0.095,0.06 6.96,2.274 45 0 1 0.095,0.062 6.96,2.274 45 0 1 0.096,0.064 6.96,2.274 45 0 1 0.096,0.064 6.96,2.274 45 0 1 0.096,0.067 6.96,2.274 45 0 1 0.097,0.068 6.96,2.274 45 0 1 0.097,0.068 6.96,2.274 45 0 1 0.098,0.07 6.96,2.274 45 0 1 0.097,0.073 6.96,2.274 45 0 1 0.098,0.072 6.96,2.274 45 0 1 0.098,0.075 6.96,2.274 45 0 1 0.098,0.075 6.96,2.274 45 0 1 0.099,0.077 6.96,2.274 45 0 1 0.098,0.077 6.96,2.274 45 0 1 0.098,0.08 6.96,2.274 45 0 1 0.099,0.078 6.96,2.274 45 0 1 0.098,0.081 6.96,2.274 45 0 1 0.099,0.082 6.96,2.274 45 0 1 0.098,0.083 6.96,2.274 45 0 1 0.098,0.085 6.96,2.274 45 0 1 0.098,0.084 6.96,2.274 45 0 1 0.097,0.086 6.96,2.274 45 0 1 0.098,0.088 6.96,2.274 45 0 1 0.097,0.087 6.96,2.274 45 0 1 0.097,0.089 6.96,2.274 45 0 1 0.096,0.09 6.96,2.274 45 0 1 0.096,0.089 6.96,2.274 45 0 1 0.096,0.091 6.96,2.274 45 0 1 0.095,0.091 6.96,2.274 45 0 1 0.095,0.093 6.96,2.274 45 0 1 0.094,0.092 6.96,2.274 45 0 1 0.06,0.06 6.96,2.274 45 0 1 0.093,0.093 6.96,2.274 45 0 1 0.092,0.095 6.96,2.274 45 0 1 0.092,0.095 6.96,2.274 45 0 1 0.092,0.095 6.96,2.274 45 0 1 0.09,0.096 6.96,2.274 45 0 1 0.09,0.096 6.96,2.274 45 0 1 0.09,0.097 6.96,2.274 45 0 1 0.087,0.097 6.96,2.274 45 0 1 0.088,0.097 6.96,2.274 45 0 1 0.086,0.097 6.96,2.274 45 0 1 0.086,0.099 6.96,2.274 45 0 1 0.085,0.097 6.96,2.274 45 0 1 0.084,0.099 6.96,2.274 45 0 1 0.082,0.098 6.96,2.274 45 0 1 0.082,0.098 6.96,2.274 45 0 1 0.08,0.099 6.96,2.274 45 0 1 0.08,0.098 6.96,2.274 45 0 1 0.079,0.098 6.96,2.274 45 0 1 0.077,0.099 6.96,2.274 45 0 1 0.076,0.098 6.96,2.274 45 0 1 0.075,0.098 6.96,2.274 45 0 1 0.074,0.098 6.96,2.274 45 0 1 0.072,0.098 6.96,2.274 45 0 1 0.071,0.098 6.96,2.274 45 0 1 0.07,0.097 6.96,2.274 45 0 1 0.069,0.097 6.96,2.274 45 0 1 0.067,0.097 6.96,2.274 45 0 1 0.066,0.096 6.96,2.274 45 0 1 0.064,0.096 6.96,2.274 45 0 1 0.063,0.095 6.96,2.274 45 0 1 0.062,0.095 6.96,2.274 45 0 1 0.06,0.095 6.96,2.274 45 0 1 0.058,0.094 6.96,2.274 45 0 1 0.057,0.093 6.96,2.274 45 0 1 0.056,0.093 6.96,2.274 45 0 1 0.053,0.092 6.96,2.274 45 0 1 0.053,0.092 6.96,2.274 45 0 1 0.008,0.014 l 0.591,-0.602 a 0.27,0.27 0 0 0 0.004,-0.378 l -0.647,-0.6600033 0.02,-0.02 a 0.27,0.27 0 0 0 0.003,-0.378 l -4.8219967,-4.917 a 0.258,0.258 0 0 0 -0.37,0.004 l -0.02,0.02 -0.232,-0.235 a 0.253,0.253 0 0 0 -0.185,-0.077 z"
       fill="#ffffff"
       fill-opacity="0.31"
       id="path24"
       style="stroke-width:4.03871" />
    <path
       d="m 12.279881,11.661987 a 3.85,1.556 46.8 0 0 0.01,-0.036 3.85,1.556 46.8 0 0 0.011,-0.045 3.85,1.556 46.8 0 0 0.01,-0.045 3.85,1.556 46.8 0 0 0.006,-0.047 3.85,1.556 46.8 0 0 0.006,-0.049 3.85,1.556 46.8 0 0 0.003,-0.05 3.85,1.556 46.8 0 0 0.002,-0.051 3.85,1.556 46.8 0 0 0,-0.053 3.85,1.556 46.8 0 0 -0.003,-0.054 3.85,1.556 46.8 0 0 -0.003,-0.056 3.85,1.556 46.8 0 0 -0.006,-0.057 3.85,1.556 46.8 0 0 -0.008,-0.058 3.85,1.556 46.8 0 0 -0.009,-0.059 3.85,1.556 46.8 0 0 -0.01,-0.06 3.85,1.556 46.8 0 0 -0.014,-0.062 3.85,1.556 46.8 0 0 -0.015,-0.063 3.85,1.556 46.8 0 0 -0.016,-0.063 3.85,1.556 46.8 0 0 -0.018,-0.065 3.85,1.556 46.8 0 0 -0.005,-0.016 3.85,1.556 46.8 0 0 -0.02,-0.065 3.85,1.556 46.8 0 0 -0.022,-0.067 3.85,1.556 46.8 0 0 -0.025,-0.068 3.85,1.556 46.8 0 0 -0.025,-0.068 3.85,1.556 46.8 0 0 -0.027,-0.07 3.85,1.556 46.8 0 0 -0.03,-0.07 3.85,1.556 46.8 0 0 -0.03,-0.07 3.85,1.556 46.8 0 0 -0.032,-0.072 3.85,1.556 46.8 0 0 -0.034,-0.072 3.85,1.556 46.8 0 0 -0.036,-0.073 3.85,1.556 46.8 0 0 -0.037,-0.073 3.85,1.556 46.8 0 0 -0.039,-0.074 3.85,1.556 46.8 0 0 -0.04,-0.074 3.85,1.556 46.8 0 0 -0.042,-0.074 3.85,1.556 46.8 0 0 -0.043,-0.075 3.85,1.556 46.8 0 0 -0.045,-0.075 3.85,1.556 46.8 0 0 -0.046,-0.075 3.85,1.556 46.8 0 0 -0.048,-0.076 3.85,1.556 46.8 0 0 -0.048,-0.075 3.85,1.556 46.8 0 0 -0.05,-0.076 3.85,1.556 46.8 0 0 -0.052,-0.076 3.85,1.556 46.8 0 0 -0.053,-0.076 3.85,1.556 46.8 0 0 -0.054,-0.076 3.85,1.556 46.8 0 0 -0.055,-0.075 3.85,1.556 46.8 0 0 -0.057,-0.076 3.85,1.556 46.8 0 0 -0.057,-0.075 3.85,1.556 46.8 0 0 -0.058,-0.075 3.85,1.556 46.8 0 0 -0.06,-0.074 3.85,1.556 46.8 0 0 -0.06,-0.075 3.85,1.556 46.8 0 0 -0.062,-0.074 3.85,1.556 46.8 0 0 -0.063,-0.074 3.85,1.556 46.8 0 0 -0.063,-0.072 3.85,1.556 46.8 0 0 -0.065,-0.073 3.85,1.556 46.8 0 0 -0.065,-0.072 3.85,1.556 46.8 0 0 -0.066,-0.071 3.85,1.556 46.8 0 0 -0.067,-0.071 3.85,1.556 46.8 0 0 -0.067,-0.07 3.85,1.556 46.8 0 0 -0.068,-0.07 3.85,1.556 46.8 0 0 -0.068,-0.068 3.85,1.556 46.8 0 0 -0.07,-0.067 3.85,1.556 46.8 0 0 -0.07,-0.067 3.85,1.556 46.8 0 0 -0.07,-0.066 3.85,1.556 46.8 0 0 -0.07,-0.065 3.85,1.556 46.8 0 0 -0.071,-0.064 3.85,1.556 46.8 0 0 -0.072,-0.062 3.85,1.556 46.8 0 0 -0.071,-0.062 3.85,1.556 46.8 0 0 -0.072,-0.06 3.85,1.556 46.8 0 0 -0.072,-0.06 3.85,1.556 46.8 0 0 -0.072,-0.058 3.85,1.556 46.8 0 0 -0.073,-0.057 3.85,1.556 46.8 0 0 -0.072,-0.055 3.85,1.556 46.8 0 0 -0.072,-0.054 3.85,1.556 46.8 0 0 -0.073,-0.054 3.85,1.556 46.8 0 0 -0.072,-0.051 3.85,1.556 46.8 0 0 -0.072,-0.05 3.85,1.556 46.8 0 0 -0.072,-0.049 3.85,1.556 46.8 0 0 -0.072,-0.047 3.85,1.556 46.8 0 0 -0.072,-0.046 3.85,1.556 46.8 0 0 -0.071,-0.044 3.85,1.556 46.8 0 0 -0.071,-0.042 3.85,1.556 46.8 0 0 -0.07,-0.042 3.85,1.556 46.8 0 0 -0.07,-0.039 3.85,1.556 46.8 0 0 -0.017,-0.009 3.85,1.556 46.8 0 0 -0.07,-0.037 3.85,1.556 46.8 0 0 -0.068,-0.036 3.85,1.556 46.8 0 0 -0.068,-0.034 3.85,1.556 46.8 0 0 -0.068,-0.032 3.85,1.556 46.8 0 0 -0.067,-0.03 3.85,1.556 46.8 0 0 -0.067,-0.03 3.85,1.556 46.8 0 0 -0.065,-0.026 3.85,1.556 46.8 0 0 -0.065,-0.025 3.85,1.556 46.8 0 0 -0.064,-0.024 3.85,1.556 46.8 0 0 -0.063,-0.021 3.85,1.556 46.8 0 0 -0.062,-0.02 3.85,1.556 46.8 0 0 -0.061,-0.018 3.85,1.556 46.8 0 0 -0.06,-0.016 3.85,1.556 46.8 0 0 -0.06,-0.013 3.85,1.556 46.8 0 0 -0.058,-0.013 3.85,1.556 46.8 0 0 -0.057,-0.01 3.85,1.556 46.8 0 0 -0.056,-0.009 3.85,1.556 46.8 0 0 -0.054,-0.006 3.85,1.556 46.8 0 0 -0.054,-0.005 3.85,1.556 46.8 0 0 -0.052,-0.002 3.85,1.556 46.8 0 0 -0.051,-0.001 3.85,1.556 46.8 0 0 -0.05,0.001 3.85,1.556 46.8 0 0 -0.048,0.003 3.85,1.556 46.8 0 0 -0.047,0.005 3.85,1.556 46.8 0 0 -0.045,0.007 3.85,1.556 46.8 0 0 -0.044,0.008 3.85,1.556 46.8 0 0 -0.043,0.011 3.85,1.556 46.8 0 0 -0.04,0.013 3.85,1.556 46.8 0 0 -0.04,0.014 3.85,1.556 46.8 0 0 -0.038,0.017 3.85,1.556 46.8 0 0 -0.025,0.011 l 0.003,0.003 -0.02,0.02 a 0.27,0.27 0 0 0 -0.004,0.378 l 4.822999,4.918 a 0.258,0.258 0 0 0 0.37,-0.004 l 0.02,-0.02 z"
       fill-opacity="0.4"
       id="path25"
       style="stroke-width:4.03871" />
  </g>
</svg>
