<?xml version="1.0" encoding="UTF-8" standalone="no"?>
<svg
   width="24"
   height="24"
   version="1.1"
   id="svg42770"
   sodipodi:docname="deepinwine-qq.svg"
   inkscape:version="1.2.2 (b0a8486541, 2022-12-01)"
   xmlns:inkscape="http://www.inkscape.org/namespaces/inkscape"
   xmlns:sodipodi="http://sodipodi.sourceforge.net/DTD/sodipodi-0.dtd"
   xmlns:xlink="http://www.w3.org/1999/xlink"
   xmlns="http://www.w3.org/2000/svg"
   xmlns:svg="http://www.w3.org/2000/svg">
  <sodipodi:namedview
     id="namedview42772"
     pagecolor="#ffffff"
     bordercolor="#000000"
     borderopacity="0.25"
     inkscape:showpageshadow="2"
     inkscape:pageopacity="0.0"
     inkscape:pagecheckerboard="0"
     inkscape:deskcolor="#d1d1d1"
     showgrid="false"
     inkscape:zoom="6.625"
     inkscape:cx="-20.679245"
     inkscape:cy="21.962264"
     inkscape:window-width="2560"
     inkscape:window-height="1000"
     inkscape:window-x="1680"
     inkscape:window-y="0"
     inkscape:window-maximized="1"
     inkscape:current-layer="svg42770" />
  <defs
     id="defs42730">
    <linearGradient
       id="a"
       x1="23.875999"
       x2="23.875999"
       y1="16.35"
       y2="31.354"
       gradientTransform="matrix(0.93250809,0.01266672,-0.00874795,0.64440355,29.939883,17.478993)"
       gradientUnits="userSpaceOnUse">
      <stop
         stop-color="#f62f09"
         offset="0"
         id="stop42725" />
      <stop
         stop-color="#ff0034"
         offset="1"
         id="stop42727" />
    </linearGradient>
    <radialGradient
       fx="0"
       fy="0"
       cx="0"
       cy="0"
       r="1"
       gradientUnits="userSpaceOnUse"
       gradientTransform="matrix(0,16.500023,-16.500023,0,8.999991,0.750002)"
       spreadMethod="pad"
       id="radialGradient4427-3">
      <stop
         style="stop-opacity:1;stop-color:#ffffff"
         offset="0"
         id="stop4423-6" />
      <stop
         style="stop-opacity:1;stop-color:#bebebe"
         offset="1"
         id="stop4425-7" />
    </radialGradient>
    <filter
       id="a-7"
       x="-0.016883117"
       y="-0.0092615646"
       width="1.0337662"
       height="1.0185231"
       color-interpolation-filters="sRGB">
      <feGaussianBlur
         stdDeviation=".155"
         id="feGaussianBlur496" />
    </filter>
    <linearGradient
       inkscape:collect="always"
       xlink:href="#a"
       id="linearGradient43252"
       gradientUnits="userSpaceOnUse"
       gradientTransform="matrix(0.93250809,0.01266672,-0.00874795,0.64440355,29.939883,17.478993)"
       x1="23.875999"
       y1="16.35"
       x2="23.875999"
       y2="31.354" />
  </defs>
  <g
     id="g4413"
     transform="matrix(1.3333333,0,0,1.3333333,-4.5225532e-4,-3.504174e-5)">
    <g
       id="g4415">
      <g
         id="g4421">
        <path
           d="m 7.195,0.836 c 0.09,0 0.176,-0.012 0.258,-0.035 1.078,-0.071 2.156,-0.067 3.231,0.008 0.976,0.078 1.921,0.289 2.836,0.636 1.519,0.625 2.558,1.711 3.121,3.254 0.316,0.93 0.507,1.887 0.566,2.867 0.078,1.235 0.051,2.465 -0.086,3.696 -0.105,0.863 -0.328,1.691 -0.672,2.488 -0.637,1.383 -1.672,2.336 -3.101,2.859 C 12.191,17 11,17.207 9.773,17.227 8.398,17.301 7.035,17.195 5.684,16.918 3.203,16.367 1.668,14.852 1.09,12.375 0.844,11.262 0.73,10.133 0.754,8.992 0.727,7.781 0.855,6.582 1.141,5.402 1.75,3.09 3.219,1.656 5.547,1.102 6.09,0.969 6.641,0.879 7.195,0.836 Z"
           style="fill:url(#radialGradient4427-3);fill-rule:evenodd;stroke:none"
           id="path4429" />
      </g>
    </g>
  </g>
  <g
     id="g43250"
     transform="matrix(0.39473518,0,0,0.39473518,-8.526403,-0.63156529)">
    <path
       d="m 52.00044,47.04183 a 11.08338,3.2988889 0 0 0 -11.08338,3.298889 11.08338,3.2988889 0 0 0 0.236709,0.659461 H 62.859777 A 11.08338,3.2988889 0 0 0 63.08382,50.340719 11.08338,3.2988889 0 0 0 52.00044,47.04183 Z"
       fill="#fcc431"
       id="path43216"
       style="stroke-width:0.79167" />
    <g
       fill="#1c1c1c"
       stroke-width="1.023"
       id="g43220"
       transform="matrix(0.79167,0,0,0.79167,26.667,8.25)">
      <path
         d="m 47.447,26.929 c 0,0 4.502,4.097 5.07,14.146 0,0 0.737,9.772 -3.321,0.038 L 46.185,33 Z m -30.894,0 c 0,0 -4.502,4.097 -5.07,14.146 0,0 -0.737,9.772 3.321,0.038 L 17.815,33 Z"
         id="path43218" />
    </g>
    <rect
       x="39.333721"
       y="13.00002"
       width="25.333441"
       height="38.00016"
       ry="12.66672"
       fill="#1c1c1c"
       id="rect43222"
       style="stroke-width:0.79167" />
    <path
       d="M 41.70873,34.718695 V 39.9168 c 0,5.701607 4.590103,10.29171 10.29171,10.29171 5.701607,0 10.29171,-4.590103 10.29171,-10.29171 V 35.116113 A 24.970855,17.134905 0 0 1 52.631401,36.469077 24.970855,17.134905 0 0 1 41.70873,34.718695 Z"
       fill="#ffffff"
       id="path43224"
       style="stroke-width:0.79167" />
    <path
       d="m 44.583284,32.79177 c 0,0 -1.893675,7.459115 0.898545,8.943496 0,0 1.409173,0.969796 3.491265,0.463127 0,0 1.812924,-0.372877 1.49784,-3.069305 0,0 -0.270752,-3.543515 0.03563,-5.123688 z"
       fill="#d4001b"
       id="path43226"
       style="stroke-width:0.79167" />
    <path
       d="m 64.528998,28.834173 c -2.327648,3.274137 -6.803899,5.152702 -12.427856,5.076309 -5.48781,-0.07454 -9.834693,-1.817082 -12.140562,-5.025255 -0.979466,-1.362934 -2.892597,2.362199 -1.604295,3.853722 2.584857,2.993469 7.494025,5.088464 13.18504,5.240533 6.228993,0.165176 11.671322,-2.043796 14.221598,-5.365827 0.940912,-1.224702 -0.458998,-4.869156 -1.233925,-3.779482 z"
       fill="url(#a)"
       id="path43228"
       style="fill:url(#linearGradient43252);stroke-width:0.775256" />
    <g
       transform="matrix(0.63031182,0,0,0.63031182,-28.603441,13.251771)"
       id="g43248">
      <ellipse
         cx="127.88"
         cy="24.638"
         rx="11.079"
         ry="3.3859999"
         fill="#242424"
         opacity="0.41"
         id="ellipse43230" />
      <g
         transform="matrix(1.2308,0,0,1.2308,98.129,0.04)"
         fill="#fdfdfd"
         id="g43236">
        <ellipse
           cx="20.264"
           cy="12.583"
           rx="2.6489999"
           ry="4.1609998"
           id="ellipse43232" />
        <ellipse
           cx="27.549999"
           cy="12.583"
           rx="2.6489999"
           ry="4.1609998"
           id="ellipse43234" />
      </g>
      <ellipse
         cx="123.88"
         cy="15.364"
         rx="1.387"
         ry="2.062"
         id="ellipse43238" />
      <path
         d="m 131.14,14.417 c 0.606,0 1.117,0.575 1.307,1.376 0.025,0.105 0.08,0.108 0.08,-0.004 0,-1.138 -0.621,-2.061 -1.387,-2.061 -0.766,0 -1.387,0.923 -1.387,2.061 0,0.112 0.053,0.116 0.077,0.015 0.188,-0.806 0.702,-1.387 1.31,-1.387 z"
         id="path43240" />
      <ellipse
         cx="21.26"
         cy="12.431"
         rx="0.46200001"
         ry="0.63300002"
         fill="#fefefe"
         transform="matrix(1.2308,0,0,1.2308,98.129,0.04)"
         id="ellipse43242" />
      <ellipse
         transform="matrix(1.2293,-0.0594,0.0594,1.2293,97.38,1.305)"
         cx="20.954"
         cy="13.103"
         rx="0.27200001"
         ry="0.285"
         fill="#fefefe"
         opacity="0.6"
         id="ellipse43244" />
      <path
         d="m 127.88,21.225 c -6.239,0 -11.298,2.298 -11.298,3.272 0,0.72 1.908,1.78 4.808,2.497 -1.173,-1.02 -1.844,-1.95 -1.87,-1.926 l 0.154,-0.002 c 0.796,0.725 7.46,7.42 16.376,-0.158 l 0.13,-0.002 c -0.82,0.903 -1.62,1.641 -2.4,2.254 3.226,-0.681 5.398,-1.8 5.398,-2.664 0,-1.207 -5.06,-3.271 -11.299,-3.271 z"
         fill="#fcc431"
         id="path43246" />
    </g>
  </g>
</svg>
