<?xml version="1.0" encoding="UTF-8" standalone="no"?>
<svg
   width="24"
   height="24"
   image-rendering="optimizeSpeed"
   version="1.1"
   id="svg4"
   sodipodi:docname="qq-music.svg"
   inkscape:version="1.3 (0e150ed6c4, 2023-07-21)"
   xmlns:inkscape="http://www.inkscape.org/namespaces/inkscape"
   xmlns:sodipodi="http://sodipodi.sourceforge.net/DTD/sodipodi-0.dtd"
   xmlns="http://www.w3.org/2000/svg"
   xmlns:svg="http://www.w3.org/2000/svg">
  <defs
     id="defs4" />
  <sodipodi:namedview
     id="namedview4"
     pagecolor="#ffffff"
     bordercolor="#000000"
     borderopacity="0.25"
     inkscape:showpageshadow="2"
     inkscape:pageopacity="0.0"
     inkscape:pagecheckerboard="0"
     inkscape:deskcolor="#d1d1d1"
     inkscape:zoom="2.2400922"
     inkscape:cx="103.12076"
     inkscape:cy="-34.59679"
     inkscape:window-width="2560"
     inkscape:window-height="998"
     inkscape:window-x="0"
     inkscape:window-y="0"
     inkscape:window-maximized="1"
     inkscape:current-layer="svg4" />
  <g
     id="g9"
     transform="matrix(4.9741312,0,0,4.9741312,-27.061414,-1.3849966)"
     style="stroke-width:0.759852">
    <g
       id="g8"
       transform="translate(5.0472105,-0.46580082)"
       style="stroke-width:0.759852">
      <g
         id="g7"
         transform="matrix(0.24325822,0,0,0.24325822,10.278374,1.5123062)"
         style="fill:none;stroke-width:0.759852">
        <path
           opacity="0.75"
           d="m -21.902365,6.8348262 c 0.0027,-1.0513 -0.2024,-2.09284 -0.6035,-3.06467 -0.401,-0.97183 -0.9902,-1.85482 -1.7336,-2.59823 -0.7434,-0.7434 -1.6264,-1.33257 -2.5982,-1.73365 -0.9719,-0.40107 -2.0134,-0.60614 -3.0647,-0.60342 -1.0513,-0.00272 -2.09284,0.20235 -3.06467,0.60342 -0.97183,0.40108 -1.85482,0.99025 -2.59823,1.73365 -0.7434,0.74341 -1.33257,1.6264 -1.73365,2.59823 -0.40107,0.97183 -0.60614,2.01337 -0.60342,3.06467 -0.0027,1.0513 0.20235,2.0928 0.60342,3.0647 0.40108,0.9717998 0.99025,1.8547998 1.73365,2.5981998 0.74341,0.7434 1.6264,1.3326 2.59823,1.7336 0.97183,0.4011 2.01337,0.6062 3.06467,0.6035 1.0513,0.0027 2.0928,-0.2024 3.0647,-0.6035 0.9718,-0.401 1.8548,-0.9902 2.5982,-1.7336 0.7434,-0.7434 1.3326,-1.6264 1.7336,-2.5981998 0.4011,-0.9719 0.6062,-2.0134 0.6035,-3.0647 z m -5.0738,0 c 0,1.6121 -1.2832,2.9277 -2.9262,2.9277 -0.3851,0.0022 -0.7669,-0.0721 -1.1232,-0.2184 -0.3562,-0.1464 -0.6799,-0.3619 -0.95234,-0.6342 -0.27241,-0.2723 -0.48812,-0.5959 -0.63466,-0.9521 -0.14653,-0.3561 -0.22097,-0.7379 -0.21902,-1.123 0,-1.6106 1.18732,-2.92619 2.92772,-2.92619 1.7404,0 2.9277,1.34809 2.9277,2.92619 z"
           fill="#ffffff"
           id="path3-7"
           style="stroke-width:0.759852" />
        <path
           opacity="0.35"
           d="m -29.903165,2.8331362 c -0.5255,1.3e-4 -1.0458,0.10376 -1.5313,0.30497 -0.48542,0.20122 -0.92649,0.49609 -1.298,0.86777 -0.3715,0.37168 -0.66616,0.81289 -0.86715,1.29845 -0.20099,0.4855 -0.30437,1.0059 -0.30425,1.5314 1.3e-4,0.5256 0.10376,1.0459 0.30498,1.5314 0.20122,0.4854 0.49608,0.9265 0.86776,1.298 0.37168,0.3714998 0.81289,0.6660998 1.29846,0.8670998 0.4855,0.201 1.0059,0.3044 1.5314,0.3043 1.0614,-3e-4 2.0791,-0.4221 2.8294,-1.1726998 0.7503,-0.7507 1.1716,-1.7686 1.1714,-2.8299 -3e-4,-1.0614 -0.4221,-2.0791 -1.1728,-2.82939 -0.7506,-0.75028 -1.7685,-1.17165 -2.8299,-1.1714 z m 0,1.99943 c 0.2629,1.2e-4 0.5231,0.05206 0.7658,0.15266 0.2428,0.1007 0.4634,0.2483 0.6491,0.4342 0.1858,0.1859 0.3331,0.4066 0.4335,0.6495 0.1005,0.2428 0.1521,0.5031 0.152,0.7659 -10e-5,0.2628 -0.052,0.523 -0.1527,0.7658 -0.1007,0.2428 -0.2482,0.4633 -0.4341,0.6491 -0.1859,0.1857 -0.4066,0.333 -0.6495,0.4335 -0.2429,0.1005 -0.5031,0.1521 -0.7659,0.152 -0.5308,0 -1.0399,-0.2109 -1.4152,-0.5862 -0.3753,-0.3753 -0.58616,-0.8844 -0.58616,-1.4151 0,-0.5308 0.21086,-1.0399 0.58616,-1.4152 0.3753,-0.3753 0.8844,-0.58616 1.4152,-0.58616 z"
           fill="#ffffff"
           id="path6-6"
           style="stroke-width:0.759852" />
      </g>
    </g>
  </g>
  <path
     id="path14"
     d="m 11.776212,1.0000696 c -0.609333,0.00533 -1.224002,0.026665 -1.838667,0.068 C 9.8282011,1.0987372 9.713528,1.1147363 9.5935634,1.1147363 8.8548969,1.1720694 8.1202292,1.2920695 7.3962313,1.4694028 4.2922294,2.2080695 2.3335641,4.1200697 1.5215657,7.2027361 1.1829134,8.6094027 1.0055631,10.030736 1.0002301,11.469403 v 0.186667 c 0,0.114665 0,0.223998 0.00529,0.333334 -0.0321266,1.521333 0.1200024,3.026666 0.448,4.510666 0.7706684,3.302667 2.8173343,5.322667 6.1253327,6.057334 1.8013356,0.369331 3.6186672,0.510666 5.4520002,0.412 1.636001,-0.02668 3.224001,-0.302667 4.766666,-0.824 1.577334,-0.577334 2.790666,-1.546667 3.645332,-2.905334 v -5.213334 c -0.379997,-0.166665 -0.702666,-0.438667 -0.926664,-0.786667 -0.229346,-0.344 -0.349349,-0.750666 -0.349349,-1.166666 0,-0.412 0.120003,-0.818667 0.349349,-1.166667 0.223979,-0.344 0.546667,-0.62 0.926664,-0.781333 V 4.7400695 c -0.79731,-1.2666668 -1.93731,-2.2040001 -3.415977,-2.8133332 -1.219997,-0.4626667 -2.479995,-0.744 -3.781331,-0.8480001 -0.666665,-0.048 -1.33333,-0.073333 -1.999999,-0.078667 z"
     style="fill:#ffd85c;fill-opacity:1;fill-rule:evenodd;stroke:none;stroke-width:1.33333" />
  <g
     id="g3"
     transform="matrix(4.9741312,0,0,4.9741312,-27.061414,-1.3849966)"
     style="opacity:0.35;stroke-width:0.759852">
    <g
       id="g16145"
       transform="translate(5.0472105,-0.46580082)"
       style="stroke-width:0.759852">
      <g
         id="g10410"
         transform="matrix(0.24325822,0,0,0.24325822,10.278374,1.5123062)"
         style="fill:none;stroke-width:0.759852">
        <path
           opacity="0.75"
           d="m -21.902365,6.8348262 c 0.0027,-1.0513 -0.2024,-2.09284 -0.6035,-3.06467 -0.401,-0.97183 -0.9902,-1.85482 -1.7336,-2.59823 -0.7434,-0.7434 -1.6264,-1.33257 -2.5982,-1.73365 -0.9719,-0.40107 -2.0134,-0.60614 -3.0647,-0.60342 -1.0513,-0.00272 -2.09284,0.20235 -3.06467,0.60342 -0.97183,0.40108 -1.85482,0.99025 -2.59823,1.73365 -0.7434,0.74341 -1.33257,1.6264 -1.73365,2.59823 -0.40107,0.97183 -0.60614,2.01337 -0.60342,3.06467 -0.0027,1.0513 0.20235,2.0928 0.60342,3.0647 0.40108,0.9717998 0.99025,1.8547998 1.73365,2.5981998 0.74341,0.7434 1.6264,1.3326 2.59823,1.7336 0.97183,0.4011 2.01337,0.6062 3.06467,0.6035 1.0513,0.0027 2.0928,-0.2024 3.0647,-0.6035 0.9718,-0.401 1.8548,-0.9902 2.5982,-1.7336 0.7434,-0.7434 1.3326,-1.6264 1.7336,-2.5981998 0.4011,-0.9719 0.6062,-2.0134 0.6035,-3.0647 z m -5.0738,0 c 0,1.6121 -1.2832,2.9277 -2.9262,2.9277 -0.3851,0.0022 -0.7669,-0.0721 -1.1232,-0.2184 -0.3562,-0.1464 -0.6799,-0.3619 -0.95234,-0.6342 -0.27241,-0.2723 -0.48812,-0.5959 -0.63466,-0.9521 -0.14653,-0.3561 -0.22097,-0.7379 -0.21902,-1.123 0,-1.6106 1.18732,-2.92619 2.92772,-2.92619 1.7404,0 2.9277,1.34809 2.9277,2.92619 z"
           fill="#ffffff"
           id="path8363"
           style="stroke-width:0.759852" />
        <path
           opacity="0.35"
           d="m -29.903165,2.8331362 c -0.5255,1.3e-4 -1.0458,0.10376 -1.5313,0.30497 -0.48542,0.20122 -0.92649,0.49609 -1.298,0.86777 -0.3715,0.37168 -0.66616,0.81289 -0.86715,1.29845 -0.20099,0.4855 -0.30437,1.0059 -0.30425,1.5314 1.3e-4,0.5256 0.10376,1.0459 0.30498,1.5314 0.20122,0.4854 0.49608,0.9265 0.86776,1.298 0.37168,0.3714998 0.81289,0.6660998 1.29846,0.8670998 0.4855,0.201 1.0059,0.3044 1.5314,0.3043 1.0614,-3e-4 2.0791,-0.4221 2.8294,-1.1726998 0.7503,-0.7507 1.1716,-1.7686 1.1714,-2.8299 -3e-4,-1.0614 -0.4221,-2.0791 -1.1728,-2.82939 -0.7506,-0.75028 -1.7685,-1.17165 -2.8299,-1.1714 z m 0,1.99943 c 0.2629,1.2e-4 0.5231,0.05206 0.7658,0.15266 0.2428,0.1007 0.4634,0.2483 0.6491,0.4342 0.1858,0.1859 0.3331,0.4066 0.4335,0.6495 0.1005,0.2428 0.1521,0.5031 0.152,0.7659 -10e-5,0.2628 -0.052,0.523 -0.1527,0.7658 -0.1007,0.2428 -0.2482,0.4633 -0.4341,0.6491 -0.1859,0.1857 -0.4066,0.333 -0.6495,0.4335 -0.2429,0.1005 -0.5031,0.1521 -0.7659,0.152 -0.5308,0 -1.0399,-0.2109 -1.4152,-0.5862 -0.3753,-0.3753 -0.58616,-0.8844 -0.58616,-1.4151 0,-0.5308 0.21086,-1.0399 0.58616,-1.4152 0.3753,-0.3753 0.8844,-0.58616 1.4152,-0.58616 z"
           fill="#ffffff"
           id="path8365"
           style="stroke-width:0.759852" />
      </g>
    </g>
  </g>
  <path
     opacity="0.125"
     fill-rule="evenodd"
     clip-rule="evenodd"
     d="m 12.929637,6.6934004 2.951716,-0.5515585 c 0.401325,-0.074987 0.772039,0.2328991 0.772039,0.6411108 V 8.731652 c 0,0.3136843 -0.223314,0.5829428 -0.531592,0.6409544 l -2.555869,0.4809725 c -0.298275,0.054793 -0.351322,0.1095782 -0.351322,0.4140471 v 5.571414 c 0,1.790178 -1.484597,2.466039 -2.465595,2.466039 -1.1201264,0 -1.9221065,-0.66986 -1.9221065,-1.619735 0,-0.931612 0.6296408,-1.570863 1.9817705,-1.826615 l 1.053862,-0.207054 c 0.271754,-0.0487 0.410978,-0.231402 0.410978,-0.511504 l -0.03983,-6.7708841 c 0,-0.3653476 0.245228,-0.5845426 0.695949,-0.6758865 z"
     fill="#000000"
     fill-opacity="0.875"
     id="path4-0"
     style="fill:#ffffff;stroke-width:1.14994" />
  <path
     id="path13"
     d="m 13.365712,6.299248 2.953333,-0.5519999 c 0.401333,-0.077335 0.770667,0.2293349 0.770667,0.6413334 v 1.9479997 c 0,0.3119986 -0.224002,0.5826668 -0.530668,0.64 l -2.557332,0.4786669 c -0.297334,0.057329 -0.349334,0.1106668 -0.349334,0.4173331 v 5.5733328 c 0,1.786667 -1.483998,2.462667 -2.467999,2.462667 -1.12,0 -1.9226665,-0.672 -1.9226665,-1.618666 0,-0.933333 0.630667,-1.573333 1.9853335,-1.829333 l 1.051999,-0.202668 c 0.270667,-0.052 0.410666,-0.234666 0.410666,-0.516 l -0.04133,-6.770666 c 0,-0.3639984 0.245334,-0.5826665 0.69733,-0.672 z"
     style="fill:#1fe092;fill-opacity:1;fill-rule:evenodd;stroke:none;stroke-width:1.33333" />
</svg>
