<?xml version="1.0" encoding="UTF-8" standalone="no"?>
<svg
   width="24"
   height="24"
   viewBox="0 0 6.349875 6.349875"
   version="1.1"
   id="svg190"
   sodipodi:docname="qt-creator.svg"
   xml:space="preserve"
   inkscape:version="1.2.2 (b0a8486541, 2022-12-01)"
   inkscape:export-filename="qt-creator.pdf"
   inkscape:export-xdpi="96"
   inkscape:export-ydpi="96"
   xmlns:inkscape="http://www.inkscape.org/namespaces/inkscape"
   xmlns:sodipodi="http://sodipodi.sourceforge.net/DTD/sodipodi-0.dtd"
   xmlns="http://www.w3.org/2000/svg"
   xmlns:svg="http://www.w3.org/2000/svg"><defs
     id="defs194"><rect
       x="5.3268056"
       y="2.0367198"
       width="12.69033"
       height="15.980416"
       id="rect6368" /><linearGradient
       id="paint0_linear_3_286"
       x1="12"
       y1="1"
       x2="12"
       y2="12"
       gradientUnits="userSpaceOnUse"><stop
         stop-color="#EEA5FF"
         id="stop266" /><stop
         offset="1"
         stop-color="#A159B2"
         id="stop268" /></linearGradient><linearGradient
       x1="12"
       y1="1"
       x2="12"
       y2="23"
       gradientUnits="userSpaceOnUse"
       gradientTransform="matrix(0.75,0,0,0.75,-7.98374e-6,-2.49454e-5)"
       spreadMethod="pad"
       id="linearGradient38255-1"><stop
         style="stop-opacity:1;stop-color:#4a74d2"
         offset="0"
         id="stop38251-9" /><stop
         style="stop-opacity:1;stop-color:#375295"
         offset="1"
         id="stop38253-4" /></linearGradient><linearGradient
       id="paint0_linear_18_187"
       x1="12"
       y1="1"
       x2="12"
       y2="23"
       gradientUnits="userSpaceOnUse"
       gradientTransform="matrix(0.26457812,0,0,0.26457812,-2.8164292e-6,9.3778578e-6)"><stop
         stop-color="#33BEF0"
         id="stop43245"
         offset="0"
         style="stop-color:#ff5f5f;stop-opacity:1;" /><stop
         offset="1"
         stop-color="#0A85D9"
         id="stop43247"
         style="stop-color:#e82e34;stop-opacity:1;" /></linearGradient><linearGradient
       x1="12"
       y1="1"
       x2="12"
       y2="23"
       gradientUnits="userSpaceOnUse"
       gradientTransform="matrix(0.75,0,0,0.75,-7.98374e-6,2.65834e-5)"
       spreadMethod="pad"
       id="linearGradient44915"><stop
         style="stop-color:#31d931;stop-opacity:1;"
         offset="0"
         id="stop44911" /><stop
         style="stop-color:#d4f3d4;stop-opacity:1;"
         offset="1"
         id="stop44913" /></linearGradient><linearGradient
       id="paint0_linear_3_286-3"
       x1="12"
       y1="1"
       x2="12"
       y2="12"
       gradientUnits="userSpaceOnUse"><stop
         stop-color="#EEA5FF"
         id="stop266-6" /><stop
         offset="1"
         stop-color="#A159B2"
         id="stop268-7" /></linearGradient><radialGradient
       id="paint0_radial_4_408"
       cx="0"
       cy="0"
       r="1"
       gradientUnits="userSpaceOnUse"
       gradientTransform="matrix(0,5.8207186,-5.8207186,0,3.1749362,0.26458225)"><stop
         stop-color="#D6B1FF"
         id="stop3331"
         offset="0"
         style="stop-color:#cdf2cd;stop-opacity:1;" /><stop
         offset="1"
         stop-color="#A75DFA"
         id="stop3333"
         style="stop-color:#38d23a;stop-opacity:1;" /></radialGradient><radialGradient
       fx="0"
       fy="0"
       cx="0"
       cy="0"
       r="1"
       gradientUnits="userSpaceOnUse"
       gradientTransform="matrix(0,16.5,-16.5,0,8.999996,0.750012)"
       spreadMethod="pad"
       id="radialGradient3666"><stop
         style="stop-opacity:1;stop-color:#cdf2cd"
         offset="0"
         id="stop3662" /><stop
         style="stop-opacity:1;stop-color:#38d23a"
         offset="1"
         id="stop3664" /></radialGradient><radialGradient
       fx="0"
       fy="0"
       cx="0"
       cy="0"
       r="1"
       gradientUnits="userSpaceOnUse"
       gradientTransform="matrix(0,16.5,-16.5,0,8.999996,0.750012)"
       spreadMethod="pad"
       id="radialGradient3666-6"><stop
         style="stop-opacity:1;stop-color:#cdf2cd"
         offset="0"
         id="stop3662-7" /><stop
         style="stop-opacity:1;stop-color:#38d23a"
         offset="1"
         id="stop3664-5" /></radialGradient></defs><sodipodi:namedview
     id="namedview192"
     pagecolor="#ffffff"
     bordercolor="#000000"
     borderopacity="0.25"
     inkscape:showpageshadow="2"
     inkscape:pageopacity="0.0"
     inkscape:pagecheckerboard="0"
     inkscape:deskcolor="#d1d1d1"
     showgrid="false"
     inkscape:zoom="12.765625"
     inkscape:cx="18.643819"
     inkscape:cy="3.250918"
     inkscape:window-width="2560"
     inkscape:window-height="1000"
     inkscape:window-x="1680"
     inkscape:window-y="0"
     inkscape:window-maximized="1"
     inkscape:current-layer="svg190" /><text
     xml:space="preserve"
     transform="scale(0.26457812)"
     id="text6366"
     style="font-size:15px;font-family:Ubuntu;-inkscape-font-specification:Ubuntu;white-space:pre;shape-inside:url(#rect6368);display:inline;fill:#38d23a;stroke-width:0.513" /><g
     id="g3652"
     transform="matrix(0.35277082,0,0,0.35277082,-1.1961624e-4,-9.2306512e-6)"><g
       id="g3654"><g
         id="g3660"><path
           d="m 7.195,0.836 c 0.09,0 0.176,-0.012 0.258,-0.035 1.078,-0.071 2.156,-0.067 3.231,0.008 0.976,0.078 1.921,0.289 2.836,0.636 1.519,0.625 2.558,1.711 3.121,3.254 0.316,0.93 0.507,1.887 0.566,2.867 0.078,1.235 0.051,2.465 -0.086,3.696 -0.105,0.863 -0.328,1.691 -0.672,2.488 -0.637,1.383 -1.672,2.336 -3.101,2.859 C 12.191,17 11,17.207 9.773,17.227 8.398,17.301 7.035,17.195 5.684,16.918 3.203,16.367 1.668,14.852 1.09,12.375 0.844,11.262 0.73,10.133 0.754,8.992 0.727,7.781 0.855,6.582 1.141,5.402 1.75,3.09 3.219,1.656 5.547,1.102 6.09,0.969 6.641,0.879 7.195,0.836 Z"
           style="fill:url(#radialGradient3666-6);fill-rule:evenodd;stroke:none"
           id="path3668" /></g></g></g><path
     id="circle501"
     style="fill:#006306;fill-opacity:1;stroke-width:0.572812;stroke-dasharray:none"
     d="M 4.7422528,3.045749 A 2.1212199,2.1212199 0 0 0 2.6209771,5.1670247 2.1212199,2.1212199 0 0 0 2.8261284,6.0759953 c 0.20633,0.011889 0.4132533,0.012219 0.6211385,0.00103 C 3.8801165,6.0699728 4.3005082,5.9968924 4.7086638,5.8589586 5.2127723,5.6744597 5.5779176,5.3386527 5.8026324,4.8507712 5.9239852,4.5696125 6.0027825,4.2772466 6.0398225,3.9728059 6.0567193,3.8209828 6.0685087,3.6693728 6.0759953,3.5175455 A 2.1212199,2.1212199 0 0 0 4.7422528,3.045749 Z" /><rect
     style="fill:#ff00ff;fill-opacity:1;stroke-width:0.572812;stroke-dasharray:none"
     id="rect7349-3"
     width="1.285001"
     height="0.24870996"
     x="4.052547"
     y="4.2902465"
     rx="0.64250052"
     ry="0" /><rect
     style="fill:#ffff00;fill-opacity:1;stroke-width:0.572812;stroke-dasharray:none"
     id="rect7349"
     width="1.8238727"
     height="0.2901614"
     x="3.5233905"
     y="3.8550036"
     rx="0.91193634"
     ry="0" /><rect
     style="fill:#0000ff;fill-opacity:1;stroke-width:0.636645;stroke-dasharray:none"
     id="rect7482"
     width="2.3212926"
     height="0.2487099"
     x="2.9845188"
     y="4.6840363"
     rx="0"
     ry="0" /><rect
     style="fill:#ff0000;fill-opacity:1;stroke-width:0.535817;stroke-dasharray:none"
     id="rect7484"
     width="2.1554859"
     height="0.29016155"
     x="3.1088738"
     y="5.0985527" /><rect
     style="fill:#e3dbdb;fill-opacity:1;stroke-width:0.572812;stroke-dasharray:none"
     id="rect7540"
     width="1.0777429"
     height="0.29016155"
     x="3.1088738"
     y="5.554522" /><path
     d="m 1.9347274,1.5549133 c -0.4122459,0 -0.7441259,0.3318801 -0.7441259,0.7441259 v 1.2402099 c 0,0.4122458 0.33188,0.744126 0.7441259,0.744126 H 2.299473 L 2.647352,4.7949617 3.057737,4.5159144 2.8222211,4.1698959 C 3.0335533,4.0389297 3.1749367,3.8071345 3.1749367,3.5392491 V 2.2990393 c 0,-0.4122459 -0.3318797,-0.7441259 -0.7441256,-0.7441259 z m 1.9843358,0 V 2.0509972 H 3.6710213 v 0.496084 h 0.2480419 v 0.9921679 c 0,0.4122458 0.3318806,0.744126 0.7441265,0.744126 L 5.1592734,4.1593541 V 3.7872912 H 4.6631897 c -0.137416,0 -0.2480419,-0.1106267 -0.2480419,-0.248042 V 2.5470812 H 5.1592734 V 2.0509972 H 4.4151478 V 1.5549133 Z M 1.9347274,2.0509972 h 0.4960837 c 0.137415,0 0.2480419,0.1106268 0.2480419,0.248042 v 1.2402099 c 0,0.1374153 -0.1106269,0.248042 -0.2480419,0.248042 H 1.9347274 c -0.137415,0 -0.2480418,-0.1106267 -0.2480418,-0.248042 V 2.2990393 c 0,-0.1374153 0.1106268,-0.248042 0.2480418,-0.2480421 z"
     fill="#fafafa"
     id="path849"
     style="stroke-width:0.124021" /><path
     id="circle851"
     style="fill:#37474f;fill-opacity:1;stroke-width:0.240152"
     d="m 4.7789424,3.0343804 a 2.1613727,2.1613727 0 0 0 -2.1615826,2.1610658 2.1613727,2.1613727 0 0 0 0.189132,0.8795156 c 0.2128759,0.012921 0.4270286,0.013756 0.6418086,0.00258 C 3.880145,6.0702433 4.2999712,5.9975585 4.7086638,5.8594753 5.2130023,5.674456 5.5780993,5.3382559 5.8031491,4.8507712 5.924484,4.5696307 6.0030558,4.2767917 6.0393058,3.9722892 6.0580666,3.8044927 6.0708012,3.6365361 6.0780623,3.4684539 A 2.1613727,2.1613727 0 0 0 4.7789424,3.0343804 Z" /><path
     d="M 3.5781672,3.7546133 H 5.0190815 V 3.9947658 H 3.5781672 Z"
     fill="#78909c"
     id="path853"
     style="stroke-width:0.240152" /><path
     d="M 5.4993872,3.7546133 H 5.979692 V 3.9947658 H 5.4993872 Z"
     fill="#ff7043"
     id="path855"
     style="stroke-width:0.240152" /><path
     d="M 4.0584719,4.2349183 H 5.4993872 V 4.4750708 H 4.0584719 Z"
     fill="#26c6da"
     id="path857"
     style="stroke-width:0.240152" /><path
     d="M 3.5781672,4.7152233 H 5.2592339 V 4.9553757 H 3.5781672 Z"
     fill="#78909c"
     id="path859"
     style="stroke-width:0.240152" /><path
     id="path861"
     style="fill:#9ccc65;fill-opacity:1;stroke-width:0.240152"
     d="m 4.0585871,5.1954462 v 0.2402907 h 1.336843 C 5.4707683,5.3624988 5.5398356,5.2822396 5.6026485,5.1954462 Z M 4.2988778,5.6760276 V 5.9158015 H 4.5277999 C 4.5882832,5.8983484 4.6486632,5.8797475 4.7086638,5.8594753 4.8450997,5.8094231 4.971405,5.7482098 5.0874446,5.6760276 Z" /></svg>
