<?xml version="1.0" encoding="UTF-8" standalone="no"?>
<svg
   width="24"
   height="24"
   viewBox="0 0 6.349875 6.349875"
   version="1.1"
   id="svg2"
   sodipodi:docname="org.kde.kregexpeditor.svg"
   inkscape:version="1.3 (0e150ed6c4, 2023-07-21)"
   xmlns:inkscape="http://www.inkscape.org/namespaces/inkscape"
   xmlns:sodipodi="http://sodipodi.sourceforge.net/DTD/sodipodi-0.dtd"
   xmlns="http://www.w3.org/2000/svg"
   xmlns:svg="http://www.w3.org/2000/svg"
   xmlns:sketch="http://www.bohemiancoding.com/sketch/ns">
  <defs
     id="defs2" />
  <sodipodi:namedview
     id="namedview2"
     pagecolor="#ffffff"
     bordercolor="#000000"
     borderopacity="0.25"
     inkscape:showpageshadow="2"
     inkscape:pageopacity="0.0"
     inkscape:pagecheckerboard="0"
     inkscape:deskcolor="#d1d1d1"
     inkscape:zoom="4.4801844"
     inkscape:cx="-38.391277"
     inkscape:cy="26.003394"
     inkscape:window-width="2560"
     inkscape:window-height="998"
     inkscape:window-x="0"
     inkscape:window-y="0"
     inkscape:window-maximized="1"
     inkscape:current-layer="svg2" />
  <path
     d="m 3.1749374,0.26457811 c -2.64578117,0 -2.91035929,1.32289059 -2.91035929,2.91035929 0,2.116625 0.79373439,2.9103592 2.91035929,2.9103592 2.116625,0 2.9103592,-0.7937342 2.9103592,-2.9103592 0,-1.5874687 -0.264578,-2.91035929 -2.9103592,-2.91035929 z"
     sketch:type="MSShapeGroup"
     id="path6"
     style="font-variation-settings:normal;display:inline;vector-effect:none;fill:#84d45e;fill-opacity:1;stroke-width:0.295341;stroke-linecap:butt;stroke-linejoin:miter;stroke-miterlimit:4;stroke-dasharray:none;stroke-dashoffset:0;stroke-opacity:1;-inkscape-stroke:none;stop-color:#000000"
     sodipodi:nodetypes="sssss"
     inkscape:label="Shape" />
  <g
     id="g4"
     transform="matrix(0.39598391,0,0,0.39598391,-2.2946147,-0.24735411)"
     style="stroke-width:2.52536">
    <path
       d="M 10.511561,5.863 9.4695625,9.685 h 0.6949985 l 1.042,-3.822 z m 4.517,0 -1.043,3.822 h 0.695001 l 1.042999,-3.822 z m 1.914,1.042 a 1.69,1.69 0 0 0 -0.659,0.126 c -0.195,0.08 -0.359999,0.193 -0.496999,0.34 a 1.447,1.447 0 0 0 -0.305,0.514 c -0.07,0.197 -0.106,0.415 -0.106,0.654 0,0.272 0.038,0.506 0.111999,0.703 0.075,0.197 0.176,0.362 0.305,0.496 0.128,0.13 0.278,0.226 0.448,0.29 0.442,0.153 0.833,0.08 1.22,-0.114 v 0.138 c 0,0.302 0,0.549 -0.107,0.66 -0.15,0.138 -0.397,0.207 -0.74,0.207 -0.183,0 -0.359,-0.019 -0.529,-0.056 a 2.501,2.501 0 0 1 -0.422,-0.12 l -0.106,0.51 a 3.28,3.28 0 0 0 1.044,0.169 c 0.522,0 0.912,-0.113 1.17,-0.34 0.256,-0.226 0.385,-0.59 0.385,-1.093 V 7.075 c -0.396999,-0.087 -0.786999,-0.173 -1.213,-0.17 z m 0.518,0.585 v 1.909 c -0.346,0.252 -0.587,0.265 -0.94,0.157 -0.264,-0.08 -0.377,-0.315 -0.473,-0.528 -0.058,-0.129 -0.069,-0.295 -0.069,-0.483 0,-0.34 0.062,-0.63 0.248999,-0.817 0.382001,-0.383 0.775,-0.318 1.233,-0.239 z"
       fill="#2a2a2a"
       id="path3"
       style="stroke-width:2.52536" />
    <path
       d="m 11.206561,5.863 1.042001,3.822 h 0.695 l -1.042,-3.822 z m 1.737,3.822 h 0.695 V 8.99 h -0.695 z"
       fill="#f9f9f9"
       id="path4"
       style="stroke-width:2.52536" />
  </g>
</svg>
