<?xml version="1.0" encoding="UTF-8" standalone="no"?>
<svg
   width="24"
   height="24"
   viewBox="0 0 6.349875 6.349875"
   version="1.1"
   id="svg6"
   sodipodi:docname="retext.svg"
   inkscape:version="1.3 (0e150ed6c4, 2023-07-21)"
   inkscape:export-filename="../../../../../../../../../Imagens/Big Icons/retext.pdf"
   inkscape:export-xdpi="96"
   inkscape:export-ydpi="96"
   xml:space="preserve"
   xmlns:inkscape="http://www.inkscape.org/namespaces/inkscape"
   xmlns:sodipodi="http://sodipodi.sourceforge.net/DTD/sodipodi-0.dtd"
   xmlns="http://www.w3.org/2000/svg"
   xmlns:svg="http://www.w3.org/2000/svg"><defs
     id="defs6"><radialGradient
       id="paint0_radial_2_129"
       cx="0"
       cy="0"
       r="1"
       gradientUnits="userSpaceOnUse"
       gradientTransform="matrix(0,5.8207186,-5.8207186,0,3.1749333,0.26459257)"><stop
         stop-color="#FAFAFA"
         id="stop8838"
         offset="0"
         style="stop-color:#e97c7c;stop-opacity:1;" /><stop
         offset="1"
         stop-color="#B0B0B0"
         id="stop8840"
         style="stop-color:#de4f4f;stop-opacity:1;" /></radialGradient><radialGradient
       fx="0"
       fy="0"
       cx="0"
       cy="0"
       r="1"
       gradientUnits="userSpaceOnUse"
       gradientTransform="matrix(0,16.5,-16.5,0,8.999988,0.750041)"
       spreadMethod="pad"
       id="radialGradient2"><stop
         style="stop-opacity:1;stop-color:#e97c7c"
         offset="0"
         id="stop1" /><stop
         style="stop-opacity:1;stop-color:#de4f4f"
         offset="1"
         id="stop2" /></radialGradient><radialGradient
       fx="0"
       fy="0"
       cx="0"
       cy="0"
       r="1"
       gradientUnits="userSpaceOnUse"
       gradientTransform="matrix(0,21.999999,-21.999999,0,-49.796492,1.0000195)"
       spreadMethod="pad"
       id="radialGradient2-4"><stop
         style="stop-opacity:1;stop-color:#e97c7c"
         offset="0"
         id="stop1-3" /><stop
         style="stop-opacity:1;stop-color:#de4f4f"
         offset="1"
         id="stop2-1" /></radialGradient></defs><sodipodi:namedview
     id="namedview6"
     pagecolor="#ffffff"
     bordercolor="#000000"
     borderopacity="0.25"
     inkscape:showpageshadow="2"
     inkscape:pageopacity="0.0"
     inkscape:pagecheckerboard="0"
     inkscape:deskcolor="#d1d1d1"
     inkscape:zoom="6.3359375"
     inkscape:cx="17.203453"
     inkscape:cy="21.228113"
     inkscape:window-width="2560"
     inkscape:window-height="998"
     inkscape:window-x="0"
     inkscape:window-y="0"
     inkscape:window-maximized="1"
     inkscape:current-layer="g1"><inkscape:page
       x="0"
       y="0"
       width="6.349875"
       height="6.349875"
       id="page12"
       margin="0"
       bleed="0" /></sodipodi:namedview><g
     id="g1"
     inkscape:groupmode="layer"
     inkscape:label="1"
     transform="matrix(0.26457812,0,0,0.26457812,16.349875,0)"><path
       id="path2"
       d="m -51.859142,1.0679649 c -0.10933,0.030667 -0.224,0.046667 -0.344,0.046667 -0.73866,0.057333 -1.47333,0.1773334 -2.19733,0.3546667 -3.104,0.7386667 -5.06267,2.6506666 -5.874669,5.7333332 -0.38133,1.5733333 -0.552,3.1720002 -0.516,4.7866662 -0.032,1.521333 0.12,3.026667 0.448,4.510666 0.770669,3.302667 2.817339,5.322667 6.125339,6.057334 1.80133,0.369333 3.61866,0.510666 5.451996,0.412 1.636,-0.02667 3.224,-0.302667 4.766667,-0.824 1.905333,-0.697334 3.285333,-1.968 4.134666,-3.812 0.458667,-1.062667 0.756,-2.166667 0.896,-3.317333 0.182667,-1.641334 0.218667,-3.281333 0.114667,-4.928 -0.07867,-1.3066666 -0.333333,-2.5826666 -0.754667,-3.8226665 -0.750666,-2.0573333 -2.136,-3.5053332 -4.161333,-4.3386666 -1.22,-0.4626666 -2.48,-0.744 -3.781333,-0.848 -1.433333,-0.0999999 -2.870663,-0.10533321 -4.308003,-0.010667 z"
       style="fill:url(#radialGradient2-4);fill-rule:evenodd;stroke:none;stroke-width:1.33333" /></g><g
     id="g12"
     transform="matrix(0.42594621,0,0,0.42594621,-0.43133534,-0.43133609)"
     style="stroke-width:2.34771"><path
       d="m 5.0499985,4.429 v 8.075 H 11.882998 V 4.429 h -0.622 v 0.62 a 0.31,0.31 0 0 1 -0.62,0 v -0.62 h -0.622 v 0.62 a 0.3105,0.3105 0 0 1 -0.6209985,0 v -0.62 h -0.621 v 0.62 a 0.3105,0.3105 0 0 1 -0.621,0 v -0.62 h -0.622 v 0.62 a 0.31,0.31 0 0 1 -0.62,0 v -0.62 h -0.622 v 0.62 a 0.3105,0.3105 0 0 1 -0.621,0 v -0.62 z"
       fill="#ffffff"
       id="path7"
       style="stroke-width:2.34771" /><path
       d="m 7.0689985,6.603 h 0.776 c 0.976,0 1.453,0.163 1.65,0.32 0.198,0.158 0.214,0.328 0.214,0.612 0,0.283 -0.015,0.453 -0.214,0.611 -0.198,0.158 -0.678,0.32 -1.65,0.32 h -0.774999 v 0.622 c 0.503,0 0.962,0.096 1.174,0.233 0.212,0.137 0.356999,0.328 0.486,0.582 0.256,0.508 0.42,1.26 1.073,1.887 0.111999,0.132 0.3249995,0.117 0.4350005,0 A 0.307,0.307 0 0 0 10.234,11.35 C 9.7279995,10.865 9.5909995,10.233 9.2829995,9.621 a 2.263,2.263 0 0 0 -0.476,-0.62 c 0.460001,-0.072 0.838001,-0.18 1.078,-0.37 C 10.270999,8.323 10.331,7.873 10.331,7.534 c 0,-0.337 -0.06,-0.788 -0.4460005,-1.096 -0.386,-0.309 -1,-0.457 -2.039,-0.457 h -0.776 z"
       color="#000000"
       fill="#212121"
       id="path8"
       style="stroke-width:2.34771" /><path
       d="m 6.6029985,5.982 h 0.932 v 4.659 h -0.932 z"
       fill="#b72727"
       id="path9"
       style="stroke-width:2.34771" /><path
       d="m 6.6029985,5.982 h 0.466 v 4.659 h -0.466 z"
       fill="#d93535"
       id="path10"
       style="stroke-width:2.34771" /><path
       d="m 6.6029985,10.64 h 0.932 l -0.466,1.243 z"
       fill="#ffe680"
       id="path11"
       style="stroke-width:2.34771" /><path
       d="m 7.3019995,11.262 -0.233001,0.621 -0.233,-0.621 z"
       fill="#212121"
       id="path12"
       style="stroke-width:2.34771" /></g></svg>
