<?xml version="1.0" encoding="UTF-8" standalone="no"?>
<svg
   width="24"
   height="24"
   viewBox="0 0 24 24"
   fill="none"
   version="1.1"
   id="svg7"
   sodipodi:docname="yast-sound.svg"
   inkscape:version="1.3 (0e150ed6c4, 2023-07-21)"
   xmlns:inkscape="http://www.inkscape.org/namespaces/inkscape"
   xmlns:sodipodi="http://sodipodi.sourceforge.net/DTD/sodipodi-0.dtd"
   xmlns:xlink="http://www.w3.org/1999/xlink"
   xmlns="http://www.w3.org/2000/svg"
   xmlns:svg="http://www.w3.org/2000/svg">
  <sodipodi:namedview
     id="namedview7"
     pagecolor="#ffffff"
     bordercolor="#000000"
     borderopacity="0.25"
     inkscape:showpageshadow="2"
     inkscape:pageopacity="0.0"
     inkscape:pagecheckerboard="0"
     inkscape:deskcolor="#d1d1d1"
     inkscape:zoom="23.894317"
     inkscape:cx="9.1653594"
     inkscape:cy="13.245828"
     inkscape:window-width="2560"
     inkscape:window-height="998"
     inkscape:window-x="0"
     inkscape:window-y="0"
     inkscape:window-maximized="1"
     inkscape:current-layer="svg7" />
  <path
     fill-rule="evenodd"
     clip-rule="evenodd"
     d="M9.59606 1.11363C9.7159 1.1149 9.83045 1.09964 9.9397 1.06782C11.3755 0.973743 12.8111 0.97756 14.2467 1.07916C15.5484 1.18056 16.8085 1.46299 18.0269 1.92641C20.0525 2.76036 21.4386 4.20681 22.185 6.26577C22.6119 7.50541 22.8639 8.78014 22.9411 10.0899C23.0478 11.7346 23.0096 13.3757 22.8265 15.0132C22.6895 16.1641 22.3916 17.2709 21.933 18.3335C21.0824 20.176 19.704 21.4469 17.7978 22.1462C16.2531 22.6681 14.6647 22.9429 13.0325 22.9705C11.1966 23.0662 9.37915 22.9288 7.57999 22.5586C4.2684 21.8209 2.22559 19.8019 1.45159 16.5018C1.1231 15.0162 0.974206 13.5125 1.00484 11.9907C0.968173 10.3724 1.13999 8.77714 1.52032 7.20475C2.33171 4.11912 4.2905 2.20705 7.3967 1.46856C8.12049 1.2916 8.85361 1.17331 9.59606 1.11363Z"
     fill="url(#paint0_radial_2_105)"
     id="path1" />
  <defs
     id="defs7">
    <radialGradient
       id="paint0_radial_2_105"
       cx="0"
       cy="0"
       r="1"
       gradientUnits="userSpaceOnUse"
       gradientTransform="translate(12 1.00004) rotate(90) scale(22 22)">
      <stop
         stop-color="#A5DFFF"
         id="stop6" />
      <stop
         offset="1"
         stop-color="#005385"
         id="stop7" />
    </radialGradient>
    <linearGradient
       inkscape:collect="always"
       xlink:href="#linearGradient81891"
       id="linearGradient98864"
       gradientUnits="userSpaceOnUse"
       gradientTransform="matrix(0.40728057,0,0,0.40728057,-0.43916496,12.746188)"
       x1="-19.047689"
       y1="15.82151"
       x2="-16.219263"
       y2="19.754795" />
    <linearGradient
       inkscape:collect="always"
       id="linearGradient81891">
      <stop
         style="stop-color:#595762;stop-opacity:1;"
         offset="0"
         id="stop81887" />
      <stop
         style="stop-color:#19181d;stop-opacity:1;"
         offset="1"
         id="stop81889" />
    </linearGradient>
    <linearGradient
       inkscape:collect="always"
       xlink:href="#linearGradient81891"
       id="linearGradient98866"
       gradientUnits="userSpaceOnUse"
       gradientTransform="matrix(0.40728057,0,0,0.40728057,-0.43916496,24.253246)"
       x1="-19.047689"
       y1="15.82151"
       x2="-16.219263"
       y2="19.754795" />
    <linearGradient
       inkscape:collect="always"
       xlink:href="#linearGradient81891"
       id="linearGradient98868"
       gradientUnits="userSpaceOnUse"
       gradientTransform="matrix(0.40728057,0,0,0.40728057,-14.196097,24.253246)"
       x1="-19.047689"
       y1="15.82151"
       x2="-16.219263"
       y2="19.754795" />
    <linearGradient
       inkscape:collect="always"
       xlink:href="#linearGradient81891"
       id="linearGradient98870"
       gradientUnits="userSpaceOnUse"
       gradientTransform="matrix(3.4073522,0,0,3.4073522,46.074919,-35.253222)"
       x1="-19.047689"
       y1="15.82151"
       x2="-16.219263"
       y2="19.754795" />
    <linearGradient
       inkscape:collect="always"
       xlink:href="#linearGradient81891"
       id="linearGradient98872"
       gradientUnits="userSpaceOnUse"
       gradientTransform="matrix(0.40728057,0,0,0.40728057,-14.196097,12.746188)"
       x1="-19.047689"
       y1="15.82151"
       x2="-16.219263"
       y2="19.754795" />
    <linearGradient
       inkscape:collect="always"
       xlink:href="#linearGradient84736"
       id="linearGradient98874"
       gradientUnits="userSpaceOnUse"
       gradientTransform="translate(3.2439416,7.892674)"
       x1="-17.942835"
       y1="25.455845"
       x2="-17.942835"
       y2="10.120466" />
    <linearGradient
       inkscape:collect="always"
       id="linearGradient84736">
      <stop
         style="stop-color:#8d8e87;stop-opacity:1;"
         offset="0"
         id="stop84732" />
      <stop
         style="stop-color:#d8d7d2;stop-opacity:1;"
         offset="1"
         id="stop84734" />
    </linearGradient>
    <linearGradient
       inkscape:collect="always"
       xlink:href="#linearGradient81891"
       id="linearGradient98876"
       gradientUnits="userSpaceOnUse"
       gradientTransform="matrix(1.3501603,0,0,1.3501603,9.473902,1.6169072)"
       x1="-19.047689"
       y1="15.82151"
       x2="-16.219263"
       y2="19.754795" />
    <linearGradient
       inkscape:collect="always"
       xlink:href="#linearGradient78080"
       id="linearGradient98878"
       gradientUnits="userSpaceOnUse"
       gradientTransform="translate(3.2439416,7.892674)"
       x1="-17.987028"
       y1="23.290327"
       x2="-17.987028"
       y2="12.727922" />
    <linearGradient
       inkscape:collect="always"
       id="linearGradient78080">
      <stop
         style="stop-color:#fdfcf8;stop-opacity:1;"
         offset="0"
         id="stop78076" />
      <stop
         style="stop-color:#7e7160;stop-opacity:1;"
         offset="1"
         id="stop78078" />
    </linearGradient>
    <linearGradient
       inkscape:collect="always"
       xlink:href="#linearGradient81891"
       id="linearGradient98880"
       gradientUnits="userSpaceOnUse"
       gradientTransform="translate(3.2439416,7.892674)"
       x1="-19.047689"
       y1="15.82151"
       x2="-16.219263"
       y2="19.754795" />
    <linearGradient
       inkscape:collect="always"
       xlink:href="#linearGradient81891"
       id="linearGradient7"
       gradientUnits="userSpaceOnUse"
       gradientTransform="matrix(0.40728057,0,0,0.40728057,-0.43916496,12.746188)"
       x1="-19.047689"
       y1="15.82151"
       x2="-16.219263"
       y2="19.754795" />
    <linearGradient
       inkscape:collect="always"
       xlink:href="#linearGradient81891"
       id="linearGradient8"
       gradientUnits="userSpaceOnUse"
       gradientTransform="matrix(0.40728057,0,0,0.40728057,-0.43916496,24.253246)"
       x1="-19.047689"
       y1="15.82151"
       x2="-16.219263"
       y2="19.754795" />
    <linearGradient
       inkscape:collect="always"
       xlink:href="#linearGradient81891"
       id="linearGradient9"
       gradientUnits="userSpaceOnUse"
       gradientTransform="matrix(0.40728057,0,0,0.40728057,-14.196097,24.253246)"
       x1="-19.047689"
       y1="15.82151"
       x2="-16.219263"
       y2="19.754795" />
    <linearGradient
       inkscape:collect="always"
       xlink:href="#linearGradient81891"
       id="linearGradient10"
       gradientUnits="userSpaceOnUse"
       gradientTransform="matrix(3.4073522,0,0,3.4073522,46.074919,-35.253222)"
       x1="-19.047689"
       y1="15.82151"
       x2="-16.219263"
       y2="19.754795" />
    <linearGradient
       inkscape:collect="always"
       xlink:href="#linearGradient81891"
       id="linearGradient11"
       gradientUnits="userSpaceOnUse"
       gradientTransform="matrix(0.40728057,0,0,0.40728057,-14.196097,12.746188)"
       x1="-19.047689"
       y1="15.82151"
       x2="-16.219263"
       y2="19.754795" />
    <linearGradient
       inkscape:collect="always"
       xlink:href="#linearGradient84736"
       id="linearGradient12"
       gradientUnits="userSpaceOnUse"
       gradientTransform="translate(3.2439416,7.892674)"
       x1="-17.942835"
       y1="25.455845"
       x2="-17.942835"
       y2="10.120466" />
    <linearGradient
       inkscape:collect="always"
       xlink:href="#linearGradient81891"
       id="linearGradient13"
       gradientUnits="userSpaceOnUse"
       gradientTransform="matrix(1.3501603,0,0,1.3501603,9.473902,1.6169072)"
       x1="-19.047689"
       y1="15.82151"
       x2="-16.219263"
       y2="19.754795" />
    <linearGradient
       inkscape:collect="always"
       xlink:href="#linearGradient78080"
       id="linearGradient14"
       gradientUnits="userSpaceOnUse"
       gradientTransform="translate(3.2439416,7.892674)"
       x1="-17.987028"
       y1="23.290327"
       x2="-17.987028"
       y2="12.727922" />
    <linearGradient
       inkscape:collect="always"
       xlink:href="#linearGradient81891"
       id="linearGradient15"
       gradientUnits="userSpaceOnUse"
       gradientTransform="translate(3.2439416,7.892674)"
       x1="-19.047689"
       y1="15.82151"
       x2="-16.219263"
       y2="19.754795" />
  </defs>
  <g
     id="g98862"
     transform="matrix(0.87523502,0,0,0.87518827,1.4971796,1.4977408)"
     style="stroke-width:1.01967">
    <g
       id="g93887"
       transform="translate(26.567166,-13.814693)"
       style="stroke-width:1.01967">
      <circle
         style="opacity:1;fill:url(#linearGradient7);fill-opacity:1;stroke:none;stroke-width:0.107261;stroke-linecap:round;stroke-linejoin:round;stroke-dasharray:none;stroke-dashoffset:1.89038;stroke-opacity:1;paint-order:stroke markers fill"
         id="circle93860"
         cx="-7.6853933"
         cy="20.045694"
         r="0.87234449" />
      <circle
         style="opacity:1;fill:url(#linearGradient8);fill-opacity:1;stroke:none;stroke-width:0.107261;stroke-linecap:round;stroke-linejoin:round;stroke-dasharray:none;stroke-dashoffset:1.89038;stroke-opacity:1;paint-order:stroke markers fill"
         id="circle93864"
         cx="-7.6853933"
         cy="31.552752"
         r="0.87234449" />
      <circle
         style="opacity:1;fill:url(#linearGradient9);fill-opacity:1;stroke:none;stroke-width:0.107261;stroke-linecap:round;stroke-linejoin:round;stroke-dasharray:none;stroke-dashoffset:1.89038;stroke-opacity:1;paint-order:stroke markers fill"
         id="circle93866"
         cx="-21.442326"
         cy="31.552752"
         r="0.87234449" />
      <circle
         style="opacity:1;fill:url(#linearGradient10);fill-opacity:1;stroke:none;stroke-width:0.897355;stroke-linecap:round;stroke-linejoin:round;stroke-dasharray:none;stroke-dashoffset:1.89038;stroke-opacity:1;paint-order:stroke markers fill"
         id="circle93852"
         cx="-14.547795"
         cy="25.815226"
         r="7.2981257" />
      <circle
         style="opacity:1;fill:url(#linearGradient11);fill-opacity:1;stroke:none;stroke-width:0.107261;stroke-linecap:round;stroke-linejoin:round;stroke-dasharray:none;stroke-dashoffset:1.89038;stroke-opacity:1;paint-order:stroke markers fill"
         id="circle93856"
         cx="-21.442326"
         cy="20.045694"
         r="0.87234449" />
      <path
         id="path73811"
         style="opacity:1;fill:url(#linearGradient12);fill-opacity:1;stroke:none;stroke-width:0.992659;stroke-linecap:round;stroke-linejoin:round;stroke-dasharray:none;stroke-dashoffset:1.89038;stroke-opacity:1;paint-order:stroke markers fill"
         d="m -14.548636,17.741451 a 8.073226,8.073226 0 0 0 -5.333984,2.019531 1.5957224,1.5957224 0 0 0 -1.566406,-1.304687 1.5957224,1.5957224 0 0 0 -1.595703,1.595703 1.5957224,1.5957224 0 0 0 1.595703,1.595703 1.5957224,1.5957224 0 0 0 0.002,0 8.073226,8.073226 0 0 0 -1.173828,4.167968 8.073226,8.073226 0 0 0 1.162109,4.142579 1.5957224,1.5957224 0 0 0 -1.585937,1.595703 1.5957224,1.5957224 0 0 0 1.595703,1.595703 1.5957224,1.5957224 0 0 0 1.5625,-1.287109 8.073226,8.073226 0 0 0 5.33789,2.02539 8.073226,8.073226 0 0 0 5.3085946,-1.992187 1.5957224,1.5957224 0 0 0 1.554689,1.253906 1.5957224,1.5957224 0 0 0 1.5957027,-1.595703 1.5957224,1.5957224 0 0 0 -1.5468747,-1.591797 8.073226,8.073226 0 0 0 1.1621087,-4.146485 8.073226,8.073226 0 0 0 -1.1621087,-4.171874 1.5957224,1.5957224 0 0 0 1.5468747,-1.591797 1.5957224,1.5957224 0 0 0 -1.5957027,-1.595703 1.5957224,1.5957224 0 0 0 -1.558595,1.275391 8.073226,8.073226 0 0 0 -5.3046886,-1.990235 z m 0,1.154297 a 6.919908,6.919908 0 0 1 6.9199236,6.919921 6.919908,6.919908 0 0 1 -6.9199236,6.919922 6.919908,6.919908 0 0 1 -6.919921,-6.919922 6.919908,6.919908 0 0 1 6.919921,-6.919921 z m -6.90039,0.298828 a 0.85787189,0.85787189 0 0 1 0.857422,0.857422 0.85787189,0.85787189 0 0 1 -0.857422,0.857422 0.85787189,0.85787189 0 0 1 -0.857422,-0.857422 0.85787189,0.85787189 0 0 1 0.857422,-0.857422 z m 13.7636736,0 a 0.85787189,0.85787189 0 0 1 0.857422,0.857422 0.85787189,0.85787189 0 0 1 -0.857422,0.857422 0.85787189,0.85787189 0 0 1 -0.857423,-0.857422 0.85787189,0.85787189 0 0 1 0.857423,-0.857422 z M -21.449026,30.696529 a 0.85787189,0.85787189 0 0 1 0.857422,0.857422 0.85787189,0.85787189 0 0 1 -0.857422,0.857422 0.85787189,0.85787189 0 0 1 -0.857422,-0.857422 0.85787189,0.85787189 0 0 1 0.857422,-0.857422 z m 13.7636736,0 a 0.85787189,0.85787189 0 0 1 0.857422,0.857422 0.85787189,0.85787189 0 0 1 -0.857422,0.857422 0.85787189,0.85787189 0 0 1 -0.857423,-0.857422 0.85787189,0.85787189 0 0 1 0.857423,-0.857422 z" />
      <circle
         style="opacity:1;fill:url(#linearGradient13);fill-opacity:1;stroke:none;stroke-width:0.355576;stroke-linecap:round;stroke-linejoin:round;stroke-dasharray:none;stroke-dashoffset:1.89038;stroke-opacity:1;paint-order:stroke markers fill"
         id="circle93848"
         cx="-14.547795"
         cy="25.815226"
         r="2.891876" />
      <path
         id="path78052"
         style="opacity:1;fill:url(#linearGradient14);fill-opacity:1;stroke:none;stroke-width:0.695536;stroke-linecap:round;stroke-linejoin:round;stroke-dasharray:none;stroke-dashoffset:1.89038;stroke-opacity:1;paint-order:stroke markers fill"
         d="m -14.548636,20.15942 a 5.6567502,5.6567502 0 0 0 -5.65625,5.656249 5.6567502,5.6567502 0 0 0 5.65625,5.65625 5.6567502,5.6567502 0 0 0 5.6582046,-5.65625 5.6567502,5.6567502 0 0 0 -5.6582046,-5.656249 z m 0,2.964843 a 2.6910751,2.6910751 0 0 1 2.691407,2.691406 2.6910751,2.6910751 0 0 1 -2.691407,2.691407 2.6910751,2.6910751 0 0 1 -2.689453,-2.691407 2.6910751,2.6910751 0 0 1 2.689453,-2.691406 z" />
      <circle
         style="opacity:1;fill:url(#linearGradient15);fill-opacity:1;stroke:none;stroke-width:0.263358;stroke-linecap:round;stroke-linejoin:round;stroke-dasharray:none;stroke-dashoffset:1.89038;stroke-opacity:1;paint-order:stroke markers fill"
         id="circle78054"
         cx="-14.547795"
         cy="25.815226"
         r="2.141876" />
    </g>
    <g
       id="g98840"
       transform="translate(26.567166,-13.814693)"
       style="stroke:#535551;stroke-width:1.01967;stroke-linecap:round;stroke-linejoin:round;stroke-opacity:0.2;paint-order:stroke markers fill">
      <circle
         style="opacity:1;fill:url(#linearGradient98864);fill-opacity:1;stroke:#535551;stroke-width:0.107261;stroke-linecap:round;stroke-linejoin:round;stroke-dasharray:none;stroke-dashoffset:1.89038;stroke-opacity:0.2;paint-order:stroke markers fill"
         id="circle98822"
         cx="-7.6853933"
         cy="20.045694"
         r="0.87234449" />
      <circle
         style="opacity:1;fill:url(#linearGradient98866);fill-opacity:1;stroke:#535551;stroke-width:0.107261;stroke-linecap:round;stroke-linejoin:round;stroke-dasharray:none;stroke-dashoffset:1.89038;stroke-opacity:0.2;paint-order:stroke markers fill"
         id="circle98824"
         cx="-7.6853933"
         cy="31.552752"
         r="0.87234449" />
      <circle
         style="opacity:1;fill:url(#linearGradient98868);fill-opacity:1;stroke:#535551;stroke-width:0.107261;stroke-linecap:round;stroke-linejoin:round;stroke-dasharray:none;stroke-dashoffset:1.89038;stroke-opacity:0.2;paint-order:stroke markers fill"
         id="circle98826"
         cx="-21.442326"
         cy="31.552752"
         r="0.87234449" />
      <circle
         style="opacity:1;fill:url(#linearGradient98870);fill-opacity:1;stroke:#535551;stroke-width:0.897355;stroke-linecap:round;stroke-linejoin:round;stroke-dasharray:none;stroke-dashoffset:1.89038;stroke-opacity:0.2;paint-order:stroke markers fill"
         id="circle98828"
         cx="-14.547795"
         cy="25.815226"
         r="7.2981257" />
      <circle
         style="opacity:1;fill:url(#linearGradient98872);fill-opacity:1;stroke:#535551;stroke-width:0.107261;stroke-linecap:round;stroke-linejoin:round;stroke-dasharray:none;stroke-dashoffset:1.89038;stroke-opacity:0.2;paint-order:stroke markers fill"
         id="circle98830"
         cx="-21.442326"
         cy="20.045694"
         r="0.87234449" />
      <path
         id="path98832"
         style="opacity:1;fill:url(#linearGradient98874);fill-opacity:1;stroke:#535551;stroke-width:0.992659;stroke-linecap:round;stroke-linejoin:round;stroke-dasharray:none;stroke-dashoffset:1.89038;stroke-opacity:0.2;paint-order:stroke markers fill"
         d="m -14.548636,17.741451 a 8.073226,8.073226 0 0 0 -5.333984,2.019531 1.5957224,1.5957224 0 0 0 -1.566406,-1.304687 1.5957224,1.5957224 0 0 0 -1.595703,1.595703 1.5957224,1.5957224 0 0 0 1.595703,1.595703 1.5957224,1.5957224 0 0 0 0.002,0 8.073226,8.073226 0 0 0 -1.173828,4.167968 8.073226,8.073226 0 0 0 1.162109,4.142579 1.5957224,1.5957224 0 0 0 -1.585937,1.595703 1.5957224,1.5957224 0 0 0 1.595703,1.595703 1.5957224,1.5957224 0 0 0 1.5625,-1.287109 8.073226,8.073226 0 0 0 5.33789,2.02539 8.073226,8.073226 0 0 0 5.3085946,-1.992187 1.5957224,1.5957224 0 0 0 1.554689,1.253906 1.5957224,1.5957224 0 0 0 1.5957027,-1.595703 1.5957224,1.5957224 0 0 0 -1.5468747,-1.591797 8.073226,8.073226 0 0 0 1.1621087,-4.146485 8.073226,8.073226 0 0 0 -1.1621087,-4.171874 1.5957224,1.5957224 0 0 0 1.5468747,-1.591797 1.5957224,1.5957224 0 0 0 -1.5957027,-1.595703 1.5957224,1.5957224 0 0 0 -1.558595,1.275391 8.073226,8.073226 0 0 0 -5.3046886,-1.990235 z m 0,1.154297 a 6.919908,6.919908 0 0 1 6.9199236,6.919921 6.919908,6.919908 0 0 1 -6.9199236,6.919922 6.919908,6.919908 0 0 1 -6.919921,-6.919922 6.919908,6.919908 0 0 1 6.919921,-6.919921 z m -6.90039,0.298828 a 0.85787189,0.85787189 0 0 1 0.857422,0.857422 0.85787189,0.85787189 0 0 1 -0.857422,0.857422 0.85787189,0.85787189 0 0 1 -0.857422,-0.857422 0.85787189,0.85787189 0 0 1 0.857422,-0.857422 z m 13.7636736,0 a 0.85787189,0.85787189 0 0 1 0.857422,0.857422 0.85787189,0.85787189 0 0 1 -0.857422,0.857422 0.85787189,0.85787189 0 0 1 -0.857423,-0.857422 0.85787189,0.85787189 0 0 1 0.857423,-0.857422 z M -21.449026,30.696529 a 0.85787189,0.85787189 0 0 1 0.857422,0.857422 0.85787189,0.85787189 0 0 1 -0.857422,0.857422 0.85787189,0.85787189 0 0 1 -0.857422,-0.857422 0.85787189,0.85787189 0 0 1 0.857422,-0.857422 z m 13.7636736,0 a 0.85787189,0.85787189 0 0 1 0.857422,0.857422 0.85787189,0.85787189 0 0 1 -0.857422,0.857422 0.85787189,0.85787189 0 0 1 -0.857423,-0.857422 0.85787189,0.85787189 0 0 1 0.857423,-0.857422 z" />
      <circle
         style="opacity:1;fill:url(#linearGradient98876);fill-opacity:1;stroke:#535551;stroke-width:0.355576;stroke-linecap:round;stroke-linejoin:round;stroke-dasharray:none;stroke-dashoffset:1.89038;stroke-opacity:0.2;paint-order:stroke markers fill"
         id="circle98834"
         cx="-14.547795"
         cy="25.815226"
         r="2.891876" />
      <path
         id="path98836"
         style="opacity:1;fill:url(#linearGradient98878);fill-opacity:1;stroke:#535551;stroke-width:0.695536;stroke-linecap:round;stroke-linejoin:round;stroke-dasharray:none;stroke-dashoffset:1.89038;stroke-opacity:0.2;paint-order:stroke markers fill"
         d="m -14.548636,20.15942 a 5.6567502,5.6567502 0 0 0 -5.65625,5.656249 5.6567502,5.6567502 0 0 0 5.65625,5.65625 5.6567502,5.6567502 0 0 0 5.6582046,-5.65625 5.6567502,5.6567502 0 0 0 -5.6582046,-5.656249 z m 0,2.964843 a 2.6910751,2.6910751 0 0 1 2.691407,2.691406 2.6910751,2.6910751 0 0 1 -2.691407,2.691407 2.6910751,2.6910751 0 0 1 -2.689453,-2.691407 2.6910751,2.6910751 0 0 1 2.689453,-2.691406 z" />
      <circle
         style="opacity:1;fill:url(#linearGradient98880);fill-opacity:1;stroke:#535551;stroke-width:0.263358;stroke-linecap:round;stroke-linejoin:round;stroke-dasharray:none;stroke-dashoffset:1.89038;stroke-opacity:0.2;paint-order:stroke markers fill"
         id="circle98838"
         cx="-14.547795"
         cy="25.815226"
         r="2.141876" />
    </g>
  </g>
</svg>
