<?xml version="1.0" encoding="UTF-8" standalone="no"?>
<svg
   width="24"
   height="24"
   viewBox="0 0 24 24"
   fill="none"
   version="1.1"
   id="svg154"
   sodipodi:docname="rocket-league.svg"
   inkscape:version="1.2.2 (b0a8486541, 2022-12-01)"
   xml:space="preserve"
   xmlns:inkscape="http://www.inkscape.org/namespaces/inkscape"
   xmlns:sodipodi="http://sodipodi.sourceforge.net/DTD/sodipodi-0.dtd"
   xmlns:xlink="http://www.w3.org/1999/xlink"
   xmlns="http://www.w3.org/2000/svg"
   xmlns:svg="http://www.w3.org/2000/svg"
   xmlns:sketch="http://www.bohemiancoding.com/sketch/ns"><sodipodi:namedview
     id="namedview156"
     pagecolor="#ffffff"
     bordercolor="#000000"
     borderopacity="1"
     inkscape:showpageshadow="0"
     inkscape:pageopacity="1"
     inkscape:pagecheckerboard="false"
     inkscape:deskcolor="#ffffff"
     showgrid="true"
     inkscape:zoom="16"
     inkscape:cx="18.65625"
     inkscape:cy="9.71875"
     inkscape:window-width="1920"
     inkscape:window-height="1052"
     inkscape:window-x="0"
     inkscape:window-y="0"
     inkscape:window-maximized="1"
     inkscape:current-layer="svg154"
     showguides="true"
     guidecolor="#ff0000"
     guideopacity="1"
     inkscape:lockguides="true"
     showborder="true"
     borderlayer="true"><inkscape:grid
       type="xygrid"
       id="grid356"
       color="#000000"
       opacity="0.10196078"
       empcolor="#000000"
       empopacity="0.10196078"
       snapvisiblegridlinesonly="true"
       enabled="true"
       visible="true"
       dotted="false" /><sodipodi:guide
       position="4.003125,23.042969"
       orientation="1,0"
       id="guide764"
       inkscape:locked="true" /><sodipodi:guide
       position="5.0007813,21.049219"
       orientation="1,0"
       id="guide2218"
       inkscape:locked="true" /><sodipodi:guide
       position="3.6445312,20"
       orientation="0,-1"
       id="guide2220"
       inkscape:locked="true" /><sodipodi:guide
       position="3.796875,5"
       orientation="0,-1"
       id="guide2222"
       inkscape:locked="true" /><sodipodi:guide
       position="3.625,4"
       orientation="0,-1"
       id="guide2224"
       inkscape:locked="true" /><sodipodi:guide
       position="19,4.8984375"
       orientation="1,0"
       id="guide2226"
       inkscape:locked="true" /><sodipodi:guide
       position="20,3.3312502"
       orientation="1,0"
       id="guide2228"
       inkscape:locked="true" /><sodipodi:guide
       position="22.875,19"
       orientation="0,-1"
       id="guide2230"
       inkscape:locked="true" /></sodipodi:namedview><defs
     id="defs152"><radialGradient
       id="radialGradient1281"
       cx="0"
       cy="0"
       r="1"
       gradientUnits="userSpaceOnUse"
       gradientTransform="translate(12 1) rotate(90) scale(22)"><stop
         stop-color="#8FC8FF"
         id="stop1277"
         offset="0.00424011"
         style="stop-color:#e6e6e6;stop-opacity:1;" /><stop
         offset="0.99151897"
         stop-color="#0056A8"
         id="stop1279"
         style="stop-color:#e1e1e1;stop-opacity:1;" /></radialGradient><radialGradient
       id="paint0_radial_29_23"
       cx="0"
       cy="0"
       r="1"
       gradientUnits="userSpaceOnUse"
       gradientTransform="translate(12 1) rotate(90) scale(22)"><stop
         stop-color="#8FC8FF"
         id="stop147"
         offset="0"
         style="stop-color:#f6f6f6;stop-opacity:1;" /><stop
         offset="1"
         stop-color="#0056A8"
         id="stop149"
         style="stop-color:#cfcfcf;stop-opacity:1;" /></radialGradient><radialGradient
       inkscape:collect="always"
       xlink:href="#radialGradient1281"
       id="radialGradient1161"
       gradientUnits="userSpaceOnUse"
       gradientTransform="matrix(3.9045581e-8,90.059469,-90.006811,0,-107.36954,-11.19048)"
       cx="0.17911513"
       cy="-1.7483425"
       r="1"
       fx="0.17911513"
       fy="-1.7483425" /><radialGradient
       id="paint0_radial_10_2"
       cx="0"
       cy="0"
       r="1"
       gradientUnits="userSpaceOnUse"
       gradientTransform="matrix(-10.999959,21.999967,-21.999967,-10.999959,17.5,1)"
       xlink:href="#paint0_radial_29_23"><stop
         stop-color="#777777"
         id="stop2847" /><stop
         offset="1"
         stop-color="#222222"
         id="stop2849" /></radialGradient><linearGradient
       x1="12"
       y1="1"
       x2="12"
       y2="23"
       gradientUnits="userSpaceOnUse"
       gradientTransform="matrix(0.75,0,0,0.75,-7.98374e-6,2.65834e-5)"
       spreadMethod="pad"
       id="linearGradient44915"><stop
         style="stop-opacity:1;stop-color:#ff5f5f"
         offset="0"
         id="stop44911" /><stop
         style="stop-opacity:1;stop-color:#e82e34"
         offset="1"
         id="stop44913" /></linearGradient><radialGradient
       id="SVGID_1_"
       cx="85.226997"
       cy="71.662003"
       r="47.776001"
       gradientTransform="matrix(1,0,0,-1,0,103.8)"
       gradientUnits="userSpaceOnUse"><stop
         offset="0"
         stop-color="#00aeff"
         id="stop12" /><stop
         offset=".131"
         stop-color="#00a5f7"
         id="stop14" /><stop
         offset=".345"
         stop-color="#008de0"
         id="stop16" /><stop
         offset=".616"
         stop-color="#0065ba"
         id="stop18" /><stop
         offset=".928"
         stop-color="#002f87"
         id="stop20" /><stop
         offset="1"
         stop-color="#00217a"
         id="stop22" /></radialGradient><linearGradient
       id="SVGID_3_"
       gradientUnits="userSpaceOnUse"
       x1="92.800003"
       y1="72.949997"
       x2="130.763"
       y2="72.949997"
       gradientTransform="matrix(1,0,0,-1,0,103.8)"><stop
         offset="0"
         stop-color="#FFF"
         id="stop29" /><stop
         offset="1"
         stop-color="#FFF"
         stop-opacity="0"
         id="stop31" /></linearGradient><radialGradient
       id="SVGID_4_"
       cx="83.728996"
       cy="73.999001"
       r="8.2860003"
       gradientTransform="matrix(1,0,0,-1,0,103.8)"
       gradientUnits="userSpaceOnUse"><stop
         offset="0"
         stop-color="#FFF"
         id="stop36" /><stop
         offset=".679"
         stop-color="#7a7a7a"
         id="stop38" /><stop
         offset="1"
         stop-color="#404040"
         id="stop40" /></radialGradient></defs><path
     d="M 50,5 C 9.0909092,5 5,25.454546 5,50 5,82.727274 17.272728,95 50,95 82.727274,95 95,82.727274 95,50 95,25.454546 90.909093,5 50,5 Z"
     sketch:type="MSShapeGroup"
     id="path6"
     style="font-variation-settings:normal;display:inline;opacity:1;vector-effect:none;fill:url(#radialGradient1161);fill-opacity:1;stroke-width:4.56656;stroke-linecap:butt;stroke-linejoin:miter;stroke-miterlimit:4;stroke-dasharray:none;stroke-dashoffset:0;stroke-opacity:1;-inkscape-stroke:none;stop-color:#000000;stop-opacity:1"
     sodipodi:nodetypes="sssss"
     inkscape:label="Shape"
     transform="matrix(0.24444444,0,0,0.24444444,-0.22222222,-0.22222222)"
     sodipodi:insensitive="true" /><g
     inkscape:groupmode="layer"
     id="layer4"
     inkscape:label="Colors References"
     style="display:inline"
     sodipodi:insensitive="true"
     inkscape:highlight-color="#cc5ecc"><rect
       style="display:inline;fill:#3947be;fill-opacity:1;stroke-width:22.6872;paint-order:markers stroke fill"
       id="rect7816"
       width="1.9999923"
       height="2"
       x="12"
       y="-2.9999964"
       rx="0"
       ry="0"
       inkscape:label="Dark Blue" /><rect
       style="display:inline;fill:#6c7ad8;fill-opacity:1;stroke-width:22.6873;paint-order:markers stroke fill"
       id="rect7820"
       width="2"
       height="2.0000076"
       x="9"
       y="-3.0000041"
       rx="0"
       ry="0"
       inkscape:label="Blue" /><rect
       style="display:inline;fill:#33cc33;fill-opacity:1;stroke-width:22.6873;paint-order:markers stroke fill"
       id="rect7814"
       width="2"
       height="2.0000076"
       x="6"
       y="-3.0000041"
       rx="0"
       ry="0"
       inkscape:label="Green" /><rect
       style="display:inline;fill:#ffc328;fill-opacity:1;stroke-width:22.6872;paint-order:markers stroke fill"
       id="rect7824"
       width="1.9999926"
       height="2.0000002"
       x="3"
       y="-2.9999964"
       rx="0"
       ry="0"
       inkscape:label="Yellow" /><rect
       style="display:inline;fill:#cc5e55;fill-opacity:1;stroke-width:22.6873;paint-order:markers stroke fill"
       id="rect7822"
       width="2"
       height="2.0000076"
       x="0"
       y="-3.0000038"
       rx="0"
       ry="0"
       inkscape:label="Red" /><rect
       style="display:inline;fill:#0bb1cb;fill-opacity:1;stroke-width:22.6872;paint-order:markers stroke fill"
       id="rect3087"
       width="1.9999919"
       height="1.9999996"
       x="-3"
       y="12.000004"
       rx="0"
       ry="0"
       inkscape:label="Blue 4" /><rect
       style="display:inline;fill:#2a92c9;fill-opacity:1;stroke-width:22.6873;paint-order:markers stroke fill"
       id="rect3085"
       width="2"
       height="2.0000079"
       x="-3"
       y="8.9999962"
       rx="0"
       ry="0"
       inkscape:label="Blue 3" /><rect
       style="display:inline;fill:#006699;fill-opacity:1;stroke-width:22.6873;paint-order:markers stroke fill"
       id="rect3089"
       width="2"
       height="2.0000076"
       x="-3"
       y="6.0000038"
       rx="0"
       ry="0"
       inkscape:label="Blue 2" /><rect
       style="display:inline;fill:#002a44;fill-opacity:1;stroke-width:22.6873;paint-order:markers stroke fill"
       id="rect3083"
       width="2"
       height="2.0000076"
       x="-3"
       y="2.9999962"
       rx="0"
       ry="0"
       inkscape:label="Blue 1" /><rect
       style="display:inline;fill:#2c2d3d;fill-opacity:1;stroke-width:22.6873;paint-order:markers stroke fill"
       id="rect3456"
       width="2"
       height="2.0000076"
       x="-3"
       y="-3.8146973e-06"
       rx="0"
       ry="0"
       inkscape:label="Gray" /><rect
       style="display:inline;fill:#16171c;fill-opacity:1;stroke-width:22.6872;paint-order:markers stroke fill"
       id="rect3091"
       width="1.9999924"
       height="2"
       x="-3"
       y="-3"
       rx="0"
       ry="0"
       inkscape:label="Black" /></g><g
     id="Symbol_2_"
     transform="matrix(0.28282516,0,0,0.28282516,-17.691127,-2.3958006)"
     style="display:inline"><path
       class="st0"
       d="m 133.1,32.4 -0.1,-1.1 -1,-0.7 c -4.2,-2.9 -12.2,-6.3 -26.5,-6.3 -5.4,0 -10.3,0.5 -14.6,1.5 -1.5,-1.3 -3.5,-2.1 -5.6,-2.1 -4.7,0 -8.6,3.8 -8.6,8.6 0,1.5 0.4,2.9 1.1,4.2 0.2,7.4 2.5,15.1 7,22.9 7.4,12.5 15.3,16.2 19.1,17.9 0.3,0.1 0.5,0.2 0.7,0.3 l 1,0.5 1,-0.5 c 0.2,-0.1 0.5,-0.2 0.7,-0.3 3.9,-1.7 11.7,-5.4 18.9,-17.9 7.9,-13.7 7.2,-23.7 6.9,-27 z"
       id="path9"
       style="fill:#ffffff" /><radialGradient
       id="radialGradient64194"
       cx="85.226997"
       cy="71.662003"
       r="47.776001"
       gradientTransform="matrix(1,0,0,-1,0,103.8)"
       gradientUnits="userSpaceOnUse"><stop
         offset="0"
         stop-color="#00aeff"
         id="stop64182" /><stop
         offset=".131"
         stop-color="#00a5f7"
         id="stop64184" /><stop
         offset=".345"
         stop-color="#008de0"
         id="stop64186" /><stop
         offset=".616"
         stop-color="#0065ba"
         id="stop64188" /><stop
         offset=".928"
         stop-color="#002f87"
         id="stop64190" /><stop
         offset="1"
         stop-color="#00217a"
         id="stop64192" /></radialGradient><path
       class="st1"
       d="m 103.3,43.2 c 0,0 1.3,0.1 2.4,1.5 l -0.6,0.1 -0.3,-0.1 c 0,0 -0.9,-1.1 -1.5,-1.5 z m -2,6.2 -0.6,-1.5 h -0.2 l -1,1.2 c 0.7,0.6 1.8,0.3 1.8,0.3 z m 9.2,-8.8 -0.5,0.2 0.6,1.1 2,0.7 c -0.8,-1.7 -2.1,-2 -2.1,-2 z m -5.7,2.1 c 0.6,0.7 1.2,1.7 1.2,1.7 1,-1 3.1,-1.4 5.8,-1.3 -3.8,-0.8 -7,-0.4 -7,-0.4 z m -3.7,-1.5 c 0,0 1.1,0 2.6,0.3 -1,-0.7 -2.6,-1.1 -2.6,-1.1 z m 9.2,5.5 -1.7,1.5 1.3,0.4 1.3,-1.4 -0.7,-0.3 z M 99,38.8 c 0,0 0.7,0.4 0.8,0.4 0.1,0 1.5,0.5 2.1,0.7 0.5,0.2 0.8,0 0.9,0 0.1,0 1.8,-1 1.8,-1 -1.5,-0.6 -2.9,-1 -2.9,-1 -0.1,0 -2.7,0.9 -2.7,0.9 z m 10.2,0.9 c -0.1,-0.2 -0.3,-0.2 -1.5,-0.4 -1.1,-0.1 -2.1,-0.2 -2.3,-0.2 -0.2,0 -0.3,0.1 -0.3,0.1 0,0 -0.6,0.4 -1.1,0.7 -0.5,0.3 -0.6,0.4 -0.7,0.6 -0.1,0.1 0.2,0.5 0.2,0.5 l 0.8,1 c 0.1,0 0.4,0.2 0.4,0.2 0,0 1.6,-0.1 2.6,-0.2 h 2.6 c 0.1,0 0,-0.4 -0.2,-0.9 -0.2,-0.4 -0.5,-1.4 -0.5,-1.4 z m -9.5,1.1 c 0,0 0.1,0 0.3,0.1 0.2,0 0.3,-0.2 0.3,-0.4 0,-0.3 -0.3,-0.4 -0.3,-0.4 h -0.2 l -0.3,0.1 -0.1,0.7 h 0.1 l 0.2,-0.1 c -0.1,-0.2 -0.1,-0.3 -0.1,-0.5 0,-0.1 0.2,-0.3 0.3,-0.3 0,0 0.2,0 0.1,0.4 0,0.4 -0.3,0.4 -0.3,0.4 z m 16.9,7.9 -0.8,1.1 v 0.1 h 1.1 c 0.2,-0.7 -0.3,-1.2 -0.3,-1.2 z m -20,-5.2 h -0.2 l -0.5,-0.1 c -0.5,-0.1 -0.3,-1 -0.3,-1 L 95,42.6 c -0.2,-0.4 -1.1,-1.5 -1.1,-1.5 l -0.2,0.8 c 0.1,0.1 0.6,0.9 0.7,1.1 l -0.3,0.3 c 0,0 -0.1,0.2 -0.1,0.3 0,0.1 -0.1,0.2 -0.1,0.2 L 93.5,44 H 93.4 L 92,42.9 v 0.8 h 0.1 c 0.1,0.2 0.3,0.6 0.8,0.8 0.4,0.2 0.9,0.2 1.1,0.1 0.2,0.1 0.3,0.1 0.4,0.2 0.4,0.2 0.5,0.1 0.5,0.1 l 0.6,-0.2 h 0.1 l 0.1,-0.1 0.2,-0.4 c 0,0 1,0.1 1.4,0.1 0.4,-0.6 1.7,-1.5 2.6,-1.6 0.9,0 2.4,0.2 3.6,1.4 1.1,1.2 0.8,2.8 0.8,2.8 l 2.2,0.7 -1,-0.7 c -0.8,-2 -2.7,-3.8 -2.7,-3.8 0,0 -0.5,-0.1 -0.8,-0.1 -0.3,-0.1 -0.5,-0.3 -0.5,-0.3 0,0 -0.1,-0.1 -0.3,-0.4 L 101,41.9 c 0,0 -0.2,-0.2 -0.5,-0.4 -0.3,-0.2 -1.4,-0.3 -2,-0.4 -0.6,-0.1 -0.6,0 -0.6,0 1.7,0.4 2.2,0.5 2.3,0.6 0,0 0.1,0.2 0.2,0.3 -1.4,-0.3 -2.7,-0.1 -3,0 0.2,0.3 0.2,0.7 0,1 -0.2,0.2 -0.8,0.5 -0.8,0.5 z m 19,7.2 0.3,1.3 c 0,0 0.3,-0.3 0.6,-0.7 0.3,-0.4 0.4,-0.8 0.4,-0.8 l -1.2,0.1 z M 91.5,41.6 91.4,42.7 H 92 L 92.1,42 v 0.4 h 0.1 v -0.6 h -0.1 v -0.4 l 0.9,0.5 0.1,0.2 0.2,0.2 h 0.2 l 0.1,-0.1 V 42.1 C 93,42.1 93,41.8 93,41.8 c 0,0 0.1,-0.7 0.2,-0.9 0.1,-0.2 0.5,-0.1 0.5,-0.1 l -0.1,-0.1 h -0.2 c -0.2,-0.1 -0.8,-0.5 -1,-0.6 V 40 l 0.1,-0.1 v -0.4 h 0.1 c 0,-0.1 0.1,-0.1 0.1,-0.2 0.2,0 1.7,-0.3 1.7,-0.3 L 93,38.7 v -0.1 c -0.4,-0.1 -0.7,-0.2 -0.9,-0.3 -0.5,0.6 -0.7,1.4 -0.7,1.4 0,0 -0.1,1.4 -0.1,1.6 -0.1,0.2 0.2,0.3 0.2,0.3 z m 23.5,7.9 0.2,0.3 0.1,-0.1 0.8,-1 v -0.1 c -0.4,0 -1.1,0.9 -1.1,0.9 z m -2.4,-1.8 -0.6,-0.2 -1.4,1.6 1,0.3 c 0.2,-0.8 1,-1.7 1,-1.7 z m 2.1,2.3 c -0.5,1 -0.4,1.7 -0.4,1.7 l 0.5,-1.1 v -0.2 c 0.1,0 0,-0.2 -0.1,-0.4 z m -0.5,-6.5 c 0,0 -0.2,0.4 -0.3,0.5 -0.1,0.1 -0.8,0.2 -1.2,0.3 -0.4,0.2 -1.1,0.5 -1.3,0.7 -0.1,0.1 -0.1,0.4 -0.1,0.5 0,0 0.2,0.1 0.3,0.1 l -0.9,0.8 0.2,0.2 2.2,0.7 c 0.5,-0.4 1.2,-0.5 1.2,-0.5 -0.4,-0.2 -2.1,-0.9 -2.6,-1.1 0,0 -0.3,-0.1 -0.3,-0.2 v -0.3 c 0,0 1.3,-1 3.3,-1 l 0.3,-0.6 z m 1.3,8.8 -0.4,-1.2 H 115 l -0.6,1.1 0.1,0.1 c 0.5,0.2 1,0 1,0 z m -15.1,-11.4 0.3,0.1 c 0,0 0.2,0 0.2,-0.2 v -0.4 l -0.3,-0.2 -0.4,-0.1 c 0.1,0.1 0.1,0.2 0.1,0.2 h 0.1 c 0,-0.1 0.1,-0.1 0.1,0 0,0 0.2,0.1 0.1,0.4 0.1,0.1 -0.1,0.2 -0.2,0.2 z m -0.9,5.5 c -0.7,1.3 -0.2,2.2 -0.2,2.2 l 0.9,-1.3 V 47.1 Z M 93,38.7 94.2,39 c 0.1,0 0.8,-0.1 0.8,-0.1 l -1.9,-0.5 z m 0.7,-0.3 c 1.6,0.2 1.9,0.5 1.9,0.5 0,0 0.6,-0.1 0.9,-0.1 -0.5,-0.4 -2.7,-1.1 -2.7,-1.1 0,0 -0.1,0.3 -0.1,0.7 z m 2.4,3.1 c -0.3,0.2 -0.6,0.8 -0.5,1.3 0.1,0.5 0.2,0.5 0.5,0.5 -0.5,-0.2 -0.4,-1 0,-1.5 0.3,-0.4 0.6,-0.1 0.6,-0.1 0,0 -0.3,-0.4 -0.6,-0.2 z M 89,56.3 c -1.3,0 -2.8,0.5 -1.9,1.9 7.4,12.7 15.2,15.7 18.5,17.3 1.5,-0.7 3.9,-1.8 6.8,-3.8 1.7,-1.1 1.5,-2.8 1.1,-3.9 C 111.4,62.6 99.9,56.7 89,56.3 Z m 41.7,-23.7 c -3,-2.1 -10.4,-5.9 -25.1,-5.9 -5.1,0 -9.4,0.5 -12.8,1.2 0.8,1.3 1.2,2.8 1.2,4.4 0,2.2 -0.8,4.2 -2.1,5.7 0.3,0.1 0.7,0.2 1.2,0.3 l 0.2,-0.5 c 0,0 0.2,0 0.3,0.1 0,-0.5 0.3,-0.5 0.3,-0.5 0,0 0,-0.1 0.1,-0.1 0.5,0.1 1.9,0.8 2.5,1.1 0.6,0.3 0.6,0.4 0.6,0.4 0,0 1.4,0 1.8,-0.1 0.4,0 1.1,-0.3 2.1,-0.6 1,-0.3 1.2,-0.4 1.4,-0.4 0.2,0 2,0.1 3.6,0.3 1.6,0.2 3.1,0.8 3.4,1 l 0.5,0.1 0.1,-0.3 -0.8,-0.3 c 0,0 0.1,-0.5 0.1,-0.6 0,-0.1 0.1,-0.2 0.2,-0.2 0.1,0 1,0.2 1.3,0.3 0.3,0.1 1.3,0.8 1.4,0.8 0.1,0 0.1,0.1 0.1,0.1 0,0.2 -0.2,0.6 -0.2,0.6 l -0.3,-0.1 0.3,0.1 c 0,0 0.3,0.1 0.4,0.2 0.1,0.1 0.4,0.3 0.7,0.6 0.3,0.2 0.2,0.5 0.2,0.5 l 0.7,0.7 v 0.3 l 1.7,1.7 v 0.1 l -0.8,0.5 c 0,0 1.1,-0.1 1.9,0.3 0.8,0.4 0.9,0.6 0.9,0.8 -0.2,0.1 -0.5,0.2 -0.5,0.2 -0.6,0.2 -2.1,1.2 -2.1,1.2 v 0.1 l 0.8,0.2 c 0.9,-0.8 2.5,-1.1 3.7,-0.9 4.1,0.8 6.9,3.5 7.5,5.8 0,0.1 0.1,0.3 0.1,0.4 4.1,-9.6 3.7,-16.5 3.4,-19.6 z m -14.4,14.6 c 0.1,0.1 0.2,0.1 0.3,0.2 0.6,0.4 0.9,0.6 1,1.5 0.1,0.7 -0.1,1.7 -0.6,2.6 2.8,1.9 6.7,0.4 8.2,1.9 -0.3,-3.8 -5.9,-7.6 -8.9,-6.2 z m -23,-4.9 -0.2,0.1 v 0.8 l 0.2,-0.1 z m 28.9,12.4 c -2.1,0 -4.2,-0.7 -5.7,-2.5 v 0.1 c -0.9,1.2 -1.9,1.2 -2.3,1.2 -0.4,0 -1.7,-0.6 -2.2,-1.2 -0.5,-0.6 -0.5,-1.7 -0.5,-1.7 l -2,-0.7 -2.5,-1.4 -0.4,-0.1 c -0.8,0.4 -1.8,0.1 -2.7,-0.6 -0.1,0.4 -0.6,1.4 -1.2,1.9 -0.6,0.5 -1.8,1.2 -2.7,1.2 -0.9,0 -2.9,-1 -3.5,-2.4 -0.6,-1.4 0,-2.9 0,-2.9 l -1,-0.2 -0.4,-0.5 c 0,0 -1.2,1 -2.5,0.6 C 91.3,45.1 90.2,44 89.9,43 89.7,42 90,41.1 90.1,41 89.9,40.3 89.9,39.9 89.9,39.9 h -0.1 v -0.3 c -1.3,0.9 -2.8,1.3 -4.4,1.3 -1.8,0 -3.5,-0.6 -4.9,-1.5 0.2,2.2 0.8,4.8 1.6,7.7 1.1,4 4.7,5.3 10.1,6.2 11.9,1.9 23.3,11 22.5,16.6 3,-2.5 6.2,-6.2 9.4,-11.7 1.3,-2.1 0.1,-3.5 -1.9,-3.5 z M 90.4,40.9 90.3,42 H 91 V 41.9 H 90.9 V 41.8 H 90.8 L 90.9,41.6 91,41.1 90.9,41 v -0.2 l 0.1,-0.1 0.1,-1.2 -0.5,-0.3 c 0.2,-0.8 0.7,-1.5 0.7,-1.5 H 91 c -0.5,0.6 -0.7,1.4 -0.7,1.4 0,0 -0.1,1.3 -0.1,1.5 0,0.3 0.2,0.3 0.2,0.3 z m 11,6.7 0.5,1.6 c 1,-0.7 1.2,-1.8 1.2,-1.8 l -1.6,0.1 z m 0.9,-2.5 -0.8,1.4 0.1,0.1 1.6,0.1 c 0,-1.1 -0.9,-1.6 -0.9,-1.6 z m -10,-3.1 -0.1,0.6 h 0.1 z m 7.6,3.8 0.8,0.6 0.2,-0.1 0.9,-1.4 c -1.1,-0.1 -1.9,0.9 -1.9,0.9 z M 92.5,42.1 92.4,42 v 0.7 h 0.1 z m 0.3,0.2 -0.1,0.7 h 0.1 z m 0.2,0.1 -0.1,0.7 H 93 Z m -0.4,-0.2 -0.1,0.7 h 0.1 z"
       id="path24"
       style="fill:url(#SVGID_1_)" /><path
       class="st2"
       d="m 130.7,32.6 c 0.3,3.7 0.8,12.8 -6.6,25.6 -7.3,12.7 -15.2,15.7 -18.5,17.3 v -1.9 c 6.1,-3.3 11.4,-8.6 15.6,-17 4.9,-9.7 5.5,-17.6 5.1,-21.6 z"
       id="path26"
       style="opacity:0.4;enable-background:new" /><linearGradient
       id="linearGradient64202"
       gradientUnits="userSpaceOnUse"
       x1="92.800003"
       y1="72.949997"
       x2="130.763"
       y2="72.949997"
       gradientTransform="matrix(1,0,0,-1,0,103.8)"><stop
         offset="0"
         stop-color="#FFF"
         id="stop64198" /><stop
         offset="1"
         stop-color="#FFF"
         stop-opacity="0"
         id="stop64200" /></linearGradient><path
       class="st3"
       d="m 130.7,32.6 c -3,-2.1 -10.4,-5.9 -25.1,-5.9 -5.1,0 -9.4,0.5 -12.8,1.2 0.7,1.1 1.1,2.4 1.2,3.8 3.8,-0.7 7.9,-1.1 12.3,-1 9.4,0.1 17,2.2 20.1,4.3 l 4.3,-2.4"
       id="path33"
       style="opacity:0.4;fill:url(#SVGID_3_);enable-background:new" /><radialGradient
       id="radialGradient64211"
       cx="83.728996"
       cy="73.999001"
       r="8.2860003"
       gradientTransform="matrix(1,0,0,-1,0,103.8)"
       gradientUnits="userSpaceOnUse"><stop
         offset="0"
         stop-color="#FFF"
         id="stop64205" /><stop
         offset=".679"
         stop-color="#7a7a7a"
         id="stop64207" /><stop
         offset="1"
         stop-color="#404040"
         id="stop64209" /></radialGradient><circle
       class="st4"
       cx="85.400002"
       cy="32.299999"
       r="6.1999998"
       id="circle42"
       style="fill:url(#SVGID_4_)" /></g></svg>
