<?xml version="1.0" encoding="UTF-8" standalone="no"?>
<svg
   width="24"
   height="24"
   viewBox="0 0 6.349875 6.349875"
   version="1.1"
   id="svg2"
   sodipodi:docname="rstudio.svg"
   inkscape:version="1.3 (0e150ed6c4, 2023-07-21)"
   xmlns:inkscape="http://www.inkscape.org/namespaces/inkscape"
   xmlns:sodipodi="http://sodipodi.sourceforge.net/DTD/sodipodi-0.dtd"
   xmlns="http://www.w3.org/2000/svg"
   xmlns:svg="http://www.w3.org/2000/svg"
   xmlns:sketch="http://www.bohemiancoding.com/sketch/ns">
  <defs
     id="defs2" />
  <sodipodi:namedview
     id="namedview2"
     pagecolor="#ffffff"
     bordercolor="#000000"
     borderopacity="0.25"
     inkscape:showpageshadow="2"
     inkscape:pageopacity="0.0"
     inkscape:pagecheckerboard="0"
     inkscape:deskcolor="#d1d1d1"
     inkscape:zoom="3.1679688"
     inkscape:cx="-7.5758323"
     inkscape:cy="18.150432"
     inkscape:window-width="2560"
     inkscape:window-height="998"
     inkscape:window-x="0"
     inkscape:window-y="0"
     inkscape:window-maximized="1"
     inkscape:current-layer="svg2" />
  <path
     d="m 3.1749374,0.26457811 c -2.64578117,0 -2.91035929,1.32289059 -2.91035929,2.91035929 0,2.116625 0.79373439,2.9103592 2.91035929,2.9103592 2.116625,0 2.9103592,-0.7937342 2.9103592,-2.9103592 0,-1.5874687 -0.264578,-2.91035929 -2.9103592,-2.91035929 z"
     sketch:type="MSShapeGroup"
     id="path6"
     style="font-variation-settings:normal;display:inline;vector-effect:none;fill:#3680b2;fill-opacity:1;stroke-width:0.295341;stroke-linecap:butt;stroke-linejoin:miter;stroke-miterlimit:4;stroke-dasharray:none;stroke-dashoffset:0;stroke-opacity:1;-inkscape-stroke:none;stop-color:#000000"
     sodipodi:nodetypes="sssss"
     inkscape:label="Shape" />
  <path
     d="m 3.1749374,0.52254189 c -2.41126864,0 -2.65239551,1.20563431 -2.65239551,2.65239551 0,1.929015 0.72338061,2.6523954 2.65239551,2.6523954 1.929015,0 2.6523954,-0.7233804 2.6523954,-2.6523954 0,-1.4467612 -0.2411267,-2.65239551 -2.6523954,-2.65239551 z"
     sketch:type="MSShapeGroup"
     id="path45683"
     style="font-variation-settings:normal;display:inline;vector-effect:none;fill:#5493bd;fill-opacity:1;stroke-width:0.269163;stroke-linecap:butt;stroke-linejoin:miter;stroke-miterlimit:4;stroke-dasharray:none;stroke-dashoffset:0;stroke-opacity:1;-inkscape-stroke:none;stop-color:#000000"
     sodipodi:nodetypes="sssss"
     inkscape:label="Shape" />
  <path
     d="m 2.6369926,1.9287588 c 0.1413084,-0.033846 0.2656935,-0.050769 0.4070019,-0.050769 0.4315404,0 0.6726953,0.2013856 0.6726953,0.557618 0,0.3850017 -0.3029244,0.627849 -0.7843881,0.627849 -0.029192,0 -0.066846,0 -0.1205775,-0.00423 l -0.024962,0.050769 c 0.3837328,0.5064245 0.7881962,1.0128499 1.1719285,1.5196984 0.1950394,-0.012692 0.2153472,-0.012692 0.260617,-0.012692 0.038077,0 0.038077,0 0.2991168,0.012692 V 4.5175783 C 4.3855777,4.5048863 4.3191543,4.4668083 4.2654233,4.3953085 L 3.3223804,3.1561105 C 3.5550741,3.0977255 3.6625357,3.0516101 3.8004595,2.9551481 4.0162303,2.8003012 4.1325766,2.5908772 4.1325766,2.3480299 c 0,-0.4019249 -0.2910787,-0.6282721 -0.8059655,-0.6282721 -0.5394255,0 -0.606272,0.012692 -0.7471572,0.012692 -0.1375002,0 -0.16627,0 -0.7480034,-0.012692 v 0.1116929 c 0.057116,0.00423 0.1734623,0.022423 0.2301549,0.026231 0.1908085,0.012692 0.2174625,0.05077 0.2174625,0.3769633 v 1.8801624 c 0,0.3312708 -0.057116,0.3845787 -0.2483473,0.3972711 l -0.198847,0.012692 v 0.1053467 a 15.866303,15.866303 0 0 1 1.2311594,0 c 0,-0.041462 -0.014808,-0.063885 -0.014808,-0.1057698 C 2.981802,4.5201174 2.9153785,4.5163074 2.8493786,4.5116554 2.6581466,4.4993864 2.615416,4.4460784 2.615416,4.1148074 c 0,-0.7281187 0.022,-1.4570835 0.022,-2.1856253"
     fill="#f9f9f9"
     id="path4"
     style="stroke-width:1" />
</svg>
