<?xml version="1.0" encoding="UTF-8" standalone="no"?>
<svg
   width="24"
   height="24"
   image-rendering="optimizeSpeed"
   version="1.1"
   id="svg3"
   sodipodi:docname="screenrecorder.svg"
   xml:space="preserve"
   inkscape:version="1.3 (0e150ed6c4, 2023-07-21)"
   xmlns:inkscape="http://www.inkscape.org/namespaces/inkscape"
   xmlns:sodipodi="http://sodipodi.sourceforge.net/DTD/sodipodi-0.dtd"
   xmlns:xlink="http://www.w3.org/1999/xlink"
   xmlns="http://www.w3.org/2000/svg"
   xmlns:svg="http://www.w3.org/2000/svg"><defs
     id="defs3"><radialGradient
       fx="0"
       fy="0"
       cx="0"
       cy="0"
       r="1"
       gradientUnits="userSpaceOnUse"
       gradientTransform="matrix(0,16.5,-16.5,0,8.999988,0.750041)"
       spreadMethod="pad"
       id="radialGradient2"><stop
         style="stop-opacity:1;stop-color:#e97c7c"
         offset="0"
         id="stop1" /><stop
         style="stop-opacity:1;stop-color:#de4f4f"
         offset="1"
         id="stop2" /></radialGradient><radialGradient
       fx="0"
       fy="0"
       cx="0"
       cy="0"
       r="1"
       gradientUnits="userSpaceOnUse"
       gradientTransform="matrix(0,21.999999,-21.999999,0,-22.000468,1.0000196)"
       spreadMethod="pad"
       id="radialGradient2-9"><stop
         style="stop-color:#ff9283;stop-opacity:1;"
         offset="0"
         id="stop1-4" /><stop
         style="stop-color:#ff644f;stop-opacity:1;"
         offset="1"
         id="stop2-2" /></radialGradient><radialGradient
       inkscape:collect="always"
       xlink:href="#radialGradient2-9"
       id="radialGradient7"
       gradientUnits="userSpaceOnUse"
       gradientTransform="matrix(0,21.999999,-21.999999,0,-22.000468,1.0000196)"
       cx="0"
       cy="0"
       fx="0"
       fy="0"
       r="1"
       spreadMethod="pad" /></defs><sodipodi:namedview
     id="namedview3"
     pagecolor="#ffffff"
     bordercolor="#000000"
     borderopacity="0.25"
     inkscape:showpageshadow="2"
     inkscape:pageopacity="0.0"
     inkscape:pagecheckerboard="0"
     inkscape:deskcolor="#d1d1d1"
     inkscape:zoom="6.3359375"
     inkscape:cx="16.414303"
     inkscape:cy="11.600493"
     inkscape:window-width="2560"
     inkscape:window-height="998"
     inkscape:window-x="0"
     inkscape:window-y="0"
     inkscape:window-maximized="1"
     inkscape:current-layer="g1"><inkscape:page
       x="0"
       y="0"
       width="24"
       height="24"
       id="page3"
       margin="0"
       bleed="0" /></sodipodi:namedview><g
     id="g1"
     inkscape:groupmode="layer"
     inkscape:label="1"
     transform="translate(34)"><path
       id="path2-6"
       d="m -24.063119,1.067965 c -0.109333,0.030667 -0.224,0.046667 -0.344,0.046667 -0.738667,0.057333 -1.473333,0.177333 -2.197333,0.3546663 -3.104,0.7386666 -5.062667,2.6506666 -5.874667,5.7333332 -0.381333,1.5733333 -0.552,3.1719995 -0.516,4.7866665 -0.032,1.521333 0.12,3.026667 0.448,4.510667 0.770667,3.302666 2.817333,5.322666 6.125333,6.057333 1.801334,0.369333 3.618667,0.510666 5.452,0.412 1.636,-0.02667 3.224,-0.302667 4.766667,-0.824 1.905333,-0.697334 3.285333,-1.968 4.134666,-3.812 0.458667,-1.062667 0.756,-2.166667 0.896,-3.317333 0.182667,-1.641334 0.218667,-3.281334 0.114667,-4.928 -0.07867,-1.3066669 -0.333333,-2.5826669 -0.754667,-3.8226668 -0.750666,-2.0573333 -2.136,-3.5053333 -4.161333,-4.3386666 -1.22,-0.4626666 -2.48,-0.744 -3.781333,-0.848 -1.433333,-0.10000001 -2.870667,-0.1053333 -4.308,-0.010667 z"
       style="fill:url(#radialGradient7);fill-rule:evenodd;stroke:none;stroke-width:1.33333" /><path
       id="path6"
       style="fill:#ffffff;fill-opacity:0.298039;fill-rule:evenodd;stroke:none;stroke-width:1.33333"
       d="m -12.474609,4.9179688 -4.529297,2.8945312 0.679687,6.472656 4.955078,1.859375 c 0.08122,-0.37163 0.150824,-0.7472 0.197266,-1.128906 0.182667,-1.641332 0.217281,-3.28107 0.113281,-4.927734 -0.07867,-1.306666 -0.332572,-2.5822673 -0.753906,-3.822266 -0.133644,-0.3662749 -0.28703,-0.7133977 -0.460938,-1.0410156 a 11.45887,11.458997 0 0 0 -0.201171,-0.3066406 z" /></g><path
     d="m 14.20207,9.5373374 3.383422,-2.1210603 c 0.276923,-0.1734128 0.530164,-0.051184 0.565304,0.2731061 l 0.700137,6.4728058 c 0.03514,0.324671 -0.186015,0.499612 -0.493113,0.391133 l -3.768058,-1.326952 0.08174,0.777684 a 1.1844652,1.1844783 0 0 1 -1.05307,1.302506 L 5.96849,16.110218 A 1.1829373,1.1829504 0 0 1 4.6675264,15.055226 L 4.1113892,9.7623157 A 1.1844652,1.1844783 0 0 1 5.1644593,8.4601917 L 12.814401,7.6561521 a 1.1829373,1.1829504 0 0 1 1.300963,1.0549917 z m 0,0 -3.126362,1.9598706 c -0.276922,0.173795 -0.252477,0.402211 0.055,0.510689 l 3.459051,1.218473 z"
     id="path4"
     style="fill:#ffffff;fill-rule:evenodd;stroke-width:0.899996" /></svg>
