<?xml version="1.0" encoding="UTF-8" standalone="no"?>
<svg
   width="24"
   height="24"
   viewBox="0 0 6.349875 6.349875"
   version="1.1"
   id="svg20846"
   sodipodi:docname="xfce4-session.svg"
   xml:space="preserve"
   inkscape:version="1.2.2 (b0a8486541, 2022-12-01)"
   xmlns:inkscape="http://www.inkscape.org/namespaces/inkscape"
   xmlns:sodipodi="http://sodipodi.sourceforge.net/DTD/sodipodi-0.dtd"
   xmlns="http://www.w3.org/2000/svg"
   xmlns:svg="http://www.w3.org/2000/svg"><defs
     id="defs20850"><radialGradient
       id="paint0_radial_1_27"
       cx="0"
       cy="0"
       r="1"
       gradientUnits="userSpaceOnUse"
       gradientTransform="matrix(0,5.8207246,-5.8207246,0,3.174936,0.2645767)"><stop
         stop-color="#9BDF6C"
         id="stop20975" /><stop
         offset="1"
         stop-color="#204705"
         id="stop20977" /></radialGradient><radialGradient
       id="paint0_radial_0_1"
       cx="0"
       cy="0"
       r="1"
       gradientUnits="userSpaceOnUse"
       gradientTransform="matrix(0.00692877,5.8466684,-5.8466684,0.00692877,-21.533271,12.033064)"><stop
         stop-color="#FF5555"
         id="stop21026" /><stop
         offset="1"
         stop-color="#972626"
         id="stop21028" /></radialGradient></defs><sodipodi:namedview
     id="namedview20848"
     pagecolor="#ffffff"
     bordercolor="#000000"
     borderopacity="0.25"
     inkscape:showpageshadow="2"
     inkscape:pageopacity="0.0"
     inkscape:pagecheckerboard="0"
     inkscape:deskcolor="#d1d1d1"
     showgrid="false"
     inkscape:zoom="4.8282135"
     inkscape:cx="37.073754"
     inkscape:cy="29.721138"
     inkscape:window-width="2560"
     inkscape:window-height="1000"
     inkscape:window-x="1680"
     inkscape:window-y="0"
     inkscape:window-maximized="1"
     inkscape:current-layer="svg20846" /><path
     fill-rule="evenodd"
     clip-rule="evenodd"
     d="m 2.5389006,0.2946303 c 0.031709,3.376e-4 0.062015,-0.0037 0.090922,-0.012118 0.3798775,-0.024885 0.7597283,-0.023875 1.1395548,0.00303 0.3443929,0.026834 0.6777749,0.1015568 1.0001461,0.2241667 0.5359432,0.2206419 0.9026488,0.6033424 1.1001412,1.1480991 0.1129706,0.327981 0.1796421,0.6652434 0.2000388,1.0117828 C 6.0979345,3.104751 6.0878455,3.538953 6.0393875,3.972184 6.0031535,4.276681 5.9243312,4.569512 5.8029933,4.850677 5.5779496,5.338163 5.213257,5.674407 4.7089154,5.859433 4.3002278,5.99753 3.8799472,6.070217 3.4481222,6.077541 2.9623828,6.102781 2.4815109,6.066431 2.0054926,5.968475 1.1293216,5.773311 0.58884059,5.239138 0.38405359,4.365981 c -0.0869,-0.393044 -0.126304,-0.790891 -0.118199,-1.19354 -0.0097,-0.4281389 0.03576,-0.8502141 0.136382,-1.266231 C 0.61691759,1.089817 1.1351706,0.5839257 1.9570006,0.388538 2.1484999,0.34172 2.3424683,0.310418 2.5389006,0.2946303 Z"
     fill="url(#paint0_radial_1_27)"
     id="path20969"
     style="fill:url(#paint0_radial_1_27);stroke-width:0.24253" /><g
     id="g21058"
     transform="translate(24.701292,-11.800486)"><path
       d="m -21.344438,13.065503 c 0,-0.100458 -0.08144,-0.181897 -0.181898,-0.181897 -0.100456,0 -0.181897,0.08144 -0.181897,0.181897 v 1.637079 c 0,0.100456 0.08144,0.181897 0.181897,0.181897 0.100457,0 0.181898,-0.08145 0.181898,-0.181897 z"
       fill="#fafafa"
       id="path21022"
       style="stroke-width:0.24253" /><path
       d="m -20.41043,13.465538 c -0.04792,0.0053 -0.09175,0.0295 -0.121872,0.06715 -0.01494,0.01865 -0.02604,0.04008 -0.03272,0.06303 -0.0066,0.02295 -0.0087,0.047 -0.0061,0.07076 0.0027,0.02375 0.0099,0.04676 0.02149,0.0677 0.01152,0.02094 0.02707,0.03939 0.04574,0.05431 0.388412,0.310618 0.614451,0.780568 0.61462,1.2779 0,0.906286 -0.730792,1.637078 -1.637078,1.637078 -0.906286,0 -1.637078,-0.730792 -1.637078,-1.637078 0.0014,-0.49675 0.228,-0.965689 0.616393,-1.275412 0.0187,-0.0149 0.03427,-0.03333 0.04584,-0.05426 0.01157,-0.02093 0.01889,-0.04392 0.02157,-0.06768 0.0027,-0.02376 6.36e-4,-0.0478 -0.006,-0.07078 -0.0066,-0.02297 -0.01772,-0.0444 -0.03264,-0.06309 -0.03008,-0.03766 -0.07387,-0.06184 -0.121764,-0.06724 -0.0479,-0.0054 -0.09597,0.0084 -0.133675,0.03846 -0.474581,0.378454 -0.75198,0.952268 -0.753524,1.559279 0,2.43e-4 0,4.61e-4 0,7.04e-4 0,1.102906 0.897977,2.000873 2.000872,2.000873 1.102906,0 2.000874,-0.897967 2.000874,-2.000873 0,-1.22e-4 0,-2.43e-4 0,-3.64e-4 -2.18e-4,-0.607555 -0.276558,-1.182305 -0.751043,-1.56176 -0.01867,-0.01495 -0.04011,-0.02606 -0.0631,-0.03271 -0.02299,-0.0066 -0.04705,-0.0087 -0.07082,-0.0061 z"
       fill="#fafafa"
       id="path21024"
       style="stroke-width:0.24253" /></g></svg>
