<?xml version="1.0" encoding="UTF-8" standalone="no"?>
<svg
   width="24"
   height="24"
   version="1.1"
   id="svg8"
   sodipodi:docname="sheets.svg"
   inkscape:version="1.3 (0e150ed6c4, 2023-07-21)"
   xmlns:inkscape="http://www.inkscape.org/namespaces/inkscape"
   xmlns:sodipodi="http://sodipodi.sourceforge.net/DTD/sodipodi-0.dtd"
   xmlns="http://www.w3.org/2000/svg"
   xmlns:svg="http://www.w3.org/2000/svg"
   xmlns:sketch="http://www.bohemiancoding.com/sketch/ns">
  <defs
     id="defs8" />
  <sodipodi:namedview
     id="namedview8"
     pagecolor="#ffffff"
     bordercolor="#000000"
     borderopacity="0.25"
     inkscape:showpageshadow="2"
     inkscape:pageopacity="0.0"
     inkscape:pagecheckerboard="0"
     inkscape:deskcolor="#d1d1d1"
     inkscape:zoom="8.9603687"
     inkscape:cx="39.618905"
     inkscape:cy="18.581825"
     inkscape:window-width="2560"
     inkscape:window-height="998"
     inkscape:window-x="0"
     inkscape:window-y="0"
     inkscape:window-maximized="1"
     inkscape:current-layer="svg8" />
  <path
     d="M 12,0.99999995 C 1.9999999,0.99999995 0.99999995,5.9999999 0.99999995,12 0.99999995,20 4,22.999999 12,22.999999 20,22.999999 22.999999,20 22.999999,12 22.999999,5.9999999 22,0.99999995 12,0.99999995 Z"
     sketch:type="MSShapeGroup"
     id="path6-6"
     style="font-variation-settings:normal;display:inline;vector-effect:none;fill:#e6e6e6;fill-opacity:1;stroke-width:1.11627;stroke-linecap:butt;stroke-linejoin:miter;stroke-miterlimit:4;stroke-dasharray:none;stroke-dashoffset:0;stroke-opacity:1;-inkscape-stroke:none;stop-color:#000000"
     sodipodi:nodetypes="sssss"
     inkscape:label="Shape" />
  <path
     d="M 12,1.9750004 C 2.886364,1.9750004 1.9750004,6.5318182 1.9750004,12 1.9750004,19.290909 4.7090912,22.024999 12,22.024999 19.290909,22.024999 22.024999,19.290909 22.024999,12 22.024999,6.5318182 21.113636,1.9750004 12,1.9750004 Z"
     sketch:type="MSShapeGroup"
     id="path45683"
     style="font-variation-settings:normal;display:inline;vector-effect:none;fill:#f3f3f3;fill-opacity:1;stroke-width:1.01733;stroke-linecap:butt;stroke-linejoin:miter;stroke-miterlimit:4;stroke-dasharray:none;stroke-dashoffset:0;stroke-opacity:1;-inkscape-stroke:none;stop-color:#000000"
     sodipodi:nodetypes="sssss"
     inkscape:label="Shape" />
  <g
     id="g15"
     transform="matrix(0.40625,0,0,0.40625,-17.25,-1)"
     style="stroke-width:2.46154">
    <g
       stroke-linecap="round"
       stroke-linejoin="bevel"
       stroke-width="4.92308"
       id="g14"
       transform="translate(40)">
      <path
         fill="#0fb285"
         d="m 16,33.5 h 4 v 9 h -4 z m 4,-12 h 4 v 21 h -4 z"
         id="path9"
         style="stroke-width:4.92308" />
      <path
         fill="#c91727"
         d="m 24,29.5 h 4 v 13 h -4 z"
         id="path10"
         style="stroke-width:4.92308" />
      <path
         fill="#0fb285"
         d="m 28,27.5 h 4 v 15 h -4 z m 4,-3 h 4 v 18 h -4 z"
         id="path11"
         style="stroke-width:4.92308" />
      <path
         fill="#c91727"
         d="m 36,29.5 h 4 v 13 h -4 z"
         id="path12"
         style="stroke-width:4.92308" />
      <path
         fill="#0fb285"
         d="m 40,21.5 h 4 v 21 h -4 z"
         id="path13"
         style="stroke-width:4.92308" />
      <path
         fill="#c91727"
         d="m 44,25.5 h 4 v 17 h -4 z"
         id="path14"
         style="stroke-width:4.92308" />
    </g>
    <path
       d="m 56,42.5 v -3 c 2,0 2,-3 4,-3 2,0 1.5,4 4,4 2.5,0 2,-4 4,-4 2,0 2,-4 4,-4 2,0 2,4 4,4 2,0 2,-2 4,-2 2,0 2,-5 4,-5 2,0 2,7 4,7 v 6 z"
       fill="#f4a01b"
       fill-rule="evenodd"
       id="path15"
       style="stroke-width:2.46154" />
  </g>
</svg>
