<?xml version="1.0" encoding="UTF-8" standalone="no"?>
<svg
   width="24"
   height="24"
   viewBox="0 0 6.349875 6.349875"
   version="1.1"
   id="svg77446"
   sodipodi:docname="signal.svg"
   xml:space="preserve"
   inkscape:version="1.2.2 (b0a8486541, 2022-12-01)"
   xmlns:inkscape="http://www.inkscape.org/namespaces/inkscape"
   xmlns:sodipodi="http://sodipodi.sourceforge.net/DTD/sodipodi-0.dtd"
   xmlns="http://www.w3.org/2000/svg"
   xmlns:svg="http://www.w3.org/2000/svg"><defs
     id="defs77450"><linearGradient
       id="paint0_linear_18_187"
       x1="12"
       y1="1"
       x2="12"
       y2="23"
       gradientUnits="userSpaceOnUse"
       gradientTransform="matrix(0.26457812,0,0,0.26457812,-3.2084885e-6,-7.7955571e-6)"><stop
         stop-color="#33BEF0"
         id="stop77577" /><stop
         offset="1"
         stop-color="#0A85D9"
         id="stop77579" /></linearGradient></defs><sodipodi:namedview
     id="namedview77448"
     pagecolor="#ffffff"
     bordercolor="#000000"
     borderopacity="0.25"
     inkscape:showpageshadow="2"
     inkscape:pageopacity="0.0"
     inkscape:pagecheckerboard="0"
     inkscape:deskcolor="#d1d1d1"
     showgrid="false"
     inkscape:zoom="9.3691649"
     inkscape:cx="0.2134662"
     inkscape:cy="16.810463"
     inkscape:window-width="2560"
     inkscape:window-height="1000"
     inkscape:window-x="1680"
     inkscape:window-y="0"
     inkscape:window-maximized="1"
     inkscape:current-layer="svg77446" /><path
     fill-rule="evenodd"
     clip-rule="evenodd"
     d="m 2.5389043,0.29462375 c 0.031704,3.3866e-4 0.062012,-0.003701 0.09092,-0.0121177 0.3798548,-0.0248846 0.7597096,-0.0238753 1.139538,0.003029 0.3444278,0.0268335 0.6777962,0.10155567 1.0001582,0.22416646 0.5359294,0.22064228 0.9026612,0.60334399 1.1001687,1.14809979 0.112922,0.3279789 0.1796221,0.6652473 0.2000211,1.0117837 0.02823,0.4351781 0.018124,0.8693508 -0.030321,1.3025975 C 6.003142,4.2766859 5.9243242,4.5695209 5.8029887,4.8506616 5.5779385,5.3381468 5.2132441,5.6743991 4.7089053,5.8594186 4.3002114,5.9975284 3.8799291,6.070208 3.4481111,6.0775368 2.9623722,6.102804 2.481512,6.0664245 2.0054936,5.9684777 1.1293194,5.7732984 0.58883921,5.2391417 0.3840531,4.365981 0.29714712,3.9729237 0.25774853,3.5750776 0.26585282,3.1724426 0.25615498,2.7443023 0.30161585,2.3222155 0.40223755,1.9062035 0.61691624,1.0898106 1.1351692,0.58391876 1.9569991,0.38853047 2.1485008,0.34171337 2.3424762,0.31041113 2.5389043,0.29462375 Z"
     fill="url(#paint0_linear_18_187)"
     id="path77569"
     style="fill:url(#paint0_linear_18_187);stroke-width:0.264578" /><g
     id="g77607"
     transform="matrix(0.44227486,0,0,0.44227486,-0.26041356,-0.46342894)"><path
       d="m 7.7671146,4.776382 a 3.451,3.101 0 0 0 -3.45,3.1 3.451,3.101 0 0 0 1.017,2.197 l 0.087,1.473 a 0.143,0.14 0 0 0 0.215,0.113 l 1.352,-0.765 a 3.451,3.101 0 0 0 0.78,0.083 3.451,3.101 0 0 0 3.4500004,-3.1 3.451,3.101 0 0 0 -3.4500004,-3.101 z"
       fill="#f9f9f9"
       id="path77601" /><path
       d="m 7.5511146,3.750382 0.013,0.286 a 4.42,4.42 0 0 1 1.31,0.126 l 0.065,-0.28 c -0.466,-0.12 -1.147,-0.162 -1.388,-0.133 z m -1.72,0.392 0.114,0.263 c 0.377,-0.165 0.702,-0.238 1.06,-0.313 l -0.038,-0.285 c -0.404,0.056 -0.813,0.202 -1.136,0.335 z m 3.576,0.18 c 0.346,0.157 0.6940004,0.336 0.9790004,0.525 l 0.16,-0.238 a 6.474,6.474 0 0 0 -1.0450004,-0.559 c -0.025,0.093 -0.063,0.181 -0.094,0.271 z m -5.028,0.82 0.201,0.206 c 0.264,-0.277 0.574,-0.496 0.864,-0.69 l -0.137,-0.252 c -0.354,0.208 -0.679,0.491 -0.928,0.737 z m 6.4300004,0.052 c 0.288,0.27 0.502,0.572 0.689,0.86 l 0.253,-0.136 c -0.2,-0.359 -0.493,-0.682 -0.74,-0.929 z m -7.3500004,1.476 0.276,0.079 c 0.109,-0.356 0.283,-0.663 0.497,-0.98 l -0.238,-0.162 c -0.25,0.348 -0.394,0.691 -0.535,1.063 z m 8.2800004,-0.11 c 0.145,0.34 0.202,0.705 0.228,1.072 l 0.287,-0.017 c 0,-0.404 -0.119,-0.787 -0.249,-1.164 z m -8.3980004,1.875 0.284,-0.048 c -0.08,-0.363 -0.056,-0.731 -0.016,-1.096 l -0.283,-0.048 c -0.074,0.396 -0.049,0.797 0.015,1.192 z m 8.3130004,0.809 0.266,0.109 c 0.171,-0.385 0.261,-0.794 0.32,-1.149 -0.095,-0.013 -0.19,-0.02 -0.284,-0.03 -0.038,0.374 -0.161,0.724 -0.302,1.07 z m -8.1620004,-0.224 c 0.151,0.38 0.357,0.745 0.562,1.049 0.068,-0.068 0.15,-0.118 0.225,-0.177 -0.228,-0.298 -0.383,-0.633 -0.52,-0.979 z m 7.1580004,1.519 0.181,0.223 c 0.314,-0.248 0.567,-0.557 0.791,-0.884 l -0.237,-0.161 c -0.196,0.324 -0.497,0.599 -0.735,0.822 z m -6.2090004,-0.029 0.124,0.122 0.05,0.865 0.287,-0.017 -0.057,-0.975 -0.202,-0.199 z m 4.755,0.83 0.089,0.273 c 0.428,-0.132 0.7240004,-0.302 1.0720004,-0.503 l -0.16,-0.239 a 4.83,4.83 0 0 1 -1.0010004,0.469 z m -3.315,0.614 0.142,0.25 0.792,-0.449 0.136,0.022 0.045,-0.284 -0.235,-0.038 z m 1.67,-0.4 -0.016,0.287 c 0.433,0.03 0.806,-0.023 1.183,-0.079 l -0.065,-0.28 a 4.575,4.575 0 0 1 -1.102,0.072 z m -2.902,0.517 0.022,0.366 c -0.003,0.139 0.05,0.23 0.17,0.267 0.119,0.038 0.41,-0.063 0.682,-0.217 l -0.141,-0.25 c -0.118,0.109 -0.36,0.232 -0.404,0.205 -0.044,-0.027 -0.036,-0.274 -0.042,-0.388 z"
       fill="#b4dcf3"
       id="path77603" /></g></svg>
