<?xml version="1.0" encoding="UTF-8" standalone="no"?>
<svg
   width="24"
   height="24"
   version="1.1"
   id="svg2"
   sodipodi:docname="simplenote.svg"
   inkscape:version="1.3 (0e150ed6c4, 2023-07-21)"
   xmlns:inkscape="http://www.inkscape.org/namespaces/inkscape"
   xmlns:sodipodi="http://sodipodi.sourceforge.net/DTD/sodipodi-0.dtd"
   xmlns="http://www.w3.org/2000/svg"
   xmlns:svg="http://www.w3.org/2000/svg">
  <defs
     id="defs2">
    <radialGradient
       fx="0"
       fy="0"
       cx="0"
       cy="0"
       r="1"
       gradientUnits="userSpaceOnUse"
       gradientTransform="matrix(0,16.5,-16.5,0,8.999651,0.749985)"
       spreadMethod="pad"
       id="radialGradient868-3">
      <stop
         style="stop-opacity:1;stop-color:#fafafa"
         offset="0"
         id="stop864-6" />
      <stop
         style="stop-opacity:1;stop-color:#c0c0c0"
         offset="1"
         id="stop866-7" />
    </radialGradient>
  </defs>
  <sodipodi:namedview
     id="namedview2"
     pagecolor="#ffffff"
     bordercolor="#000000"
     borderopacity="0.25"
     inkscape:showpageshadow="2"
     inkscape:pageopacity="0.0"
     inkscape:pagecheckerboard="0"
     inkscape:deskcolor="#d1d1d1"
     inkscape:zoom="8.9603687"
     inkscape:cx="33.592368"
     inkscape:cy="33.313361"
     inkscape:window-width="2560"
     inkscape:window-height="998"
     inkscape:window-x="0"
     inkscape:window-y="0"
     inkscape:window-maximized="1"
     inkscape:current-layer="svg2" />
  <g
     id="g854"
     transform="matrix(1.3333333,0,0,1.3333333,-4.5244194e-4,-3.5228353e-5)">
    <g
       id="g856">
      <g
         id="g862">
        <path
           d="m 7.195,0.836 c 0.09,0 0.176,-0.012 0.258,-0.035 1.078,-0.071 2.156,-0.067 3.231,0.008 0.976,0.078 1.921,0.289 2.836,0.636 1.519,0.625 2.558,1.711 3.121,3.254 0.316,0.93 0.507,1.887 0.566,2.867 0.078,1.235 0.051,2.465 -0.086,3.696 -0.105,0.863 -0.328,1.691 -0.672,2.488 -0.637,1.383 -1.672,2.336 -3.101,2.859 C 12.191,17 11,17.207 9.773,17.227 8.398,17.301 7.035,17.195 5.684,16.918 3.203,16.367 1.668,14.852 1.09,12.375 0.844,11.262 0.73,10.133 0.754,8.992 0.727,7.781 0.855,6.582 1.141,5.402 1.75,3.09 3.219,1.656 5.547,1.102 6.09,0.969 6.641,0.879 7.195,0.836 Z"
           style="fill:url(#radialGradient868-3);fill-rule:evenodd;stroke:none"
           id="path870" />
      </g>
    </g>
  </g>
  <path
     d="m 13.999997,13.999 c 0,0 0,0 0,0 0,0 0,0 0,0 0,0 0,0 0,0 z m 0,0 c 0,0 0,0 0,0 0,0 0,0 0,0 0,0 0,0 0,0 z"
     fill="#4284ce"
     id="path3" />
  <path
     d="m 12,5.0002592 c 3.866075,0 7,3.1336667 7,6.9997408 0,3.866075 -3.133925,7 -7,7 C 8.133926,19 5,15.866075 5,12 5,8.133926 8.133926,5 12,5 Z"
     fill="#f2f2f2"
     id="path1"
     style="stroke-width:1" />
  <path
     d="m 11.999999,7.3334632 c -0.622221,0 -1.555555,0.6222221 -1.555555,1.8666666 0,2.1777772 4.977778,0.9333332 4.977778,5.6000002 0,0.128332 -0.0083,0.257703 -0.02126,0.386814 A 4.6599261,4.6599261 0 0 0 16.666667,11.99987 C 16.668174,9.4228335 14.577296,7.3332038 11.999999,7.3332038 Z M 8.5967039,8.815389 A 4.6617408,4.6617408 0 0 0 7.3333331,12.00013 c -0.00151,2.577037 2.0896293,4.666666 4.6666659,4.666666 0.622223,0 1.555556,-0.622222 1.555556,-1.866666 0,-3.111111 -4.9777769,-1.555556 -4.9777769,-5.6000001 0,-0.1285926 0.007,-0.2566667 0.018663,-0.3847408 z"
     fill="#4284ce"
     id="path2"
     style="stroke-width:1" />
</svg>
