<?xml version="1.0" encoding="UTF-8" standalone="no"?>
<svg
   width="24"
   height="24"
   version="1.1"
   id="svg3"
   sodipodi:docname="smtube.svg"
   inkscape:version="1.3 (0e150ed6c4, 2023-07-21)"
   xmlns:inkscape="http://www.inkscape.org/namespaces/inkscape"
   xmlns:sodipodi="http://sodipodi.sourceforge.net/DTD/sodipodi-0.dtd"
   xmlns="http://www.w3.org/2000/svg"
   xmlns:svg="http://www.w3.org/2000/svg">
  <defs
     id="defs3">
    <radialGradient
       id="paint0_radial_3_321"
       cx="0"
       cy="0"
       r="1"
       gradientUnits="userSpaceOnUse"
       gradientTransform="matrix(0,22,-22,0,11.999987,1.0000149)">
      <stop
         stop-color="#555555"
         id="stop180" />
      <stop
         offset="1"
         stop-color="#222222"
         id="stop182" />
    </radialGradient>
  </defs>
  <sodipodi:namedview
     id="namedview3"
     pagecolor="#ffffff"
     bordercolor="#000000"
     borderopacity="0.25"
     inkscape:showpageshadow="2"
     inkscape:pageopacity="0.0"
     inkscape:pagecheckerboard="0"
     inkscape:deskcolor="#d1d1d1"
     inkscape:zoom="6.3359375"
     inkscape:cx="42.771887"
     inkscape:cy="34.48582"
     inkscape:window-width="2560"
     inkscape:window-height="998"
     inkscape:window-x="0"
     inkscape:window-y="0"
     inkscape:window-maximized="1"
     inkscape:current-layer="svg3" />
  <path
     fill-rule="evenodd"
     clip-rule="evenodd"
     d="m 9.5960272,1.1136049 c 0.11984,0.00127 0.23439,-0.01399 0.34365,-0.0458 1.4358098,-0.094054 2.8714098,-0.090239 4.3070098,0.01145 1.3017,0.10142 2.5618,0.38384 3.7802,0.84726 2.0256,0.83394 3.4117,2.2804 4.1581,4.33936 0.4269,1.23963 0.6789,2.51435 0.7561,3.8241401 0.1067,1.6447 0.0685,3.2858 -0.1146,4.9233 -0.137,1.1509 -0.4349,2.2577 -0.8935,3.3203 -0.8506,1.8425 -2.229,3.1134 -4.1352,3.8127 -1.5447,0.5219 -3.1331,0.7967 -4.7653,0.8243 -1.8359,0.0955 -3.6533698,-0.0419 -5.4525298,-0.4121 -3.31158,-0.7377 -5.35438,-2.7567 -6.12839,-6.0568 -0.32847,-1.4856 -0.47738099,-2.9893 -0.44675,-4.5111 -0.03665,-1.6182 0.13517,-3.2135101 0.51548,-4.7858901 0.8114,-3.08563 2.77019,-4.9977 5.87638,-5.73619 0.72379,-0.17695 1.45691,-0.29526 2.19935,-0.35493 z"
     fill="url(#paint0_radial_3_321)"
     id="path174"
     style="fill:url(#paint0_radial_3_321)" />
  <g
     id="g6"
     transform="translate(12.151454,-11.65)">
    <g
       fill="#ffffff"
       opacity="0.5"
       stroke-width="1.52384"
       id="g4"
       transform="matrix(0.43771044,0,0,0.43771044,-12.836303,8.3301347)">
      <path
         opacity="1"
         d="m 7.38,20.15 h 4.05 v 2.7 H 7.38 Z m 0,5.4 h 4.05 v 2.7 H 7.38 Z m 0,5.4 h 4.05 v 2.7 H 7.38 Z m 0,5.4 h 4.05 v 2.7 H 7.38 Z m 0,5.4 h 4.05 v 2.7 H 7.38 Z m 0,5.4 h 4.05 v 2.7 H 7.38 Z"
         id="path4"
         style="stroke-width:1.52384" />
    </g>
    <g
       fill="#ffffff"
       opacity="0.5"
       stroke-width="1.52384"
       id="g5"
       transform="matrix(0.43771044,0,0,0.43771044,-12.836303,8.3301347)">
      <path
         opacity="1"
         d="m 46.53,20.15 h 4.05 v 2.7 h -4.05 z m 0,5.4 h 4.05 v 2.7 h -4.05 z m 0,5.4 h 4.05 v 2.7 h -4.05 z m 0,5.4 h 4.05 v 2.7 h -4.05 z m 0,5.4 h 4.05 v 2.7 h -4.05 z m 0,5.4 h 4.05 v 2.7 h -4.05 z"
         id="path5"
         style="stroke-width:1.52384" />
    </g>
    <rect
       x="-6.0583568"
       y="18.922728"
       width="11.817307"
       height="9.454546"
       rx="1.7880472"
       ry="1.5534344"
       fill="#db3447"
       id="rect5"
       style="stroke-width:1" />
    <path
       d="m -1.8392659,20.695455 a 0.66181819,0.66181819 0 0 0 -0.6749495,0.660942 v 4.585893 a 0.66181819,0.66181819 0 0 0 0.9909764,0.574713 l 3.9941078,-2.293602 a 0.66181819,0.66181819 0 0 0 0,-1.148115 L -1.523239,20.783434 a 0.66181819,0.66181819 0 0 0 -0.3160269,-0.08754 z"
       color="#000000"
       fill="#ffffff"
       style="text-indent:0;text-decoration-line:none;text-decoration-style:solid;text-decoration-color:#000000;text-transform:none;white-space:normal;isolation:auto;mix-blend-mode:normal;stroke-width:1"
       id="path6" />
  </g>
</svg>
