<?xml version="1.0" encoding="UTF-8" standalone="no"?>
<svg
   width="24"
   height="24"
   version="1"
   id="svg1"
   sodipodi:docname="solaar.svg"
   inkscape:version="1.3 (0e150ed6c4, 2023-07-21)"
   xmlns:inkscape="http://www.inkscape.org/namespaces/inkscape"
   xmlns:sodipodi="http://sodipodi.sourceforge.net/DTD/sodipodi-0.dtd"
   xmlns="http://www.w3.org/2000/svg"
   xmlns:svg="http://www.w3.org/2000/svg">
  <defs
     id="defs1" />
  <sodipodi:namedview
     id="namedview1"
     pagecolor="#ffffff"
     bordercolor="#000000"
     borderopacity="0.25"
     inkscape:showpageshadow="2"
     inkscape:pageopacity="0.0"
     inkscape:pagecheckerboard="0"
     inkscape:deskcolor="#d1d1d1"
     inkscape:zoom="3.1679688"
     inkscape:cx="-11.995068"
     inkscape:cy="32.355117"
     inkscape:window-width="2560"
     inkscape:window-height="998"
     inkscape:window-x="0"
     inkscape:window-y="0"
     inkscape:window-maximized="1"
     inkscape:current-layer="svg1" />
  <path
     d="m 9.5928808,1.1146316 c 0.12,0 0.2346667,-0.016 0.344,-0.046667 1.4373332,-0.0946667 2.8746662,-0.0893333 4.3080002,0.010667 1.301333,0.104 2.561333,0.3853333 3.781333,0.8479999 2.025333,0.8333334 3.410667,2.2813333 4.161333,4.3386666 0.421333,1.24 0.676,2.5159999 0.754667,3.8226669 0.104,1.646666 0.068,3.286666 -0.114667,4.928 -0.14,1.150666 -0.437333,2.254666 -0.896,3.317333 -0.849333,1.844 -2.229333,3.114666 -4.134666,3.812 -1.542667,0.521333 -3.130667,0.797333 -4.766667,0.824 -1.833333,0.09867 -3.6506665,-0.04267 -5.4519998,-0.412 -3.3079999,-0.734667 -5.3546665,-2.754667 -6.1253332,-6.057333 -0.328,-1.484 -0.47999998,-2.989334 -0.448,-4.510667 -0.036,-1.614667 0.1346667,-3.2133333 0.516,-4.7866666 0.812,-3.0826666 2.7706666,-4.9946665 5.8746665,-5.7333332 0.724,-0.1773333 1.4586667,-0.2973333 2.1973333,-0.3546666 z"
     style="fill:#029499;fill-opacity:1;fill-rule:evenodd;stroke:none;stroke-width:1.33333"
     id="path4714" />
  <path
     d="m 9.4435165,5.5 -1.794374,1.036101 1.628597,2.81973 a 3.7990377,3.7990377 0 0 0 -0.928653,1.607876 h -3.256428 v 2.072202 h 3.253358 a 3.7990377,3.7990377 0 0 0 0.929421,1.611713 L 7.6491425,17.463899 9.4435165,18.5 11.072498,15.678735 A 3.7990377,3.7990377 0 0 0 12,15.798846 a 3.7990377,3.7990377 0 0 0 0.928654,-0.11896 l 1.62783,2.820114 1.794374,-1.036101 -1.628214,-2.81973 a 3.7990377,3.7990377 0 0 0 0.928654,-1.607876 h 3.256044 V 10.964091 H 15.653983 A 3.7990377,3.7990377 0 0 0 14.724562,9.352378 L 16.350857,6.536101 14.556483,5.5 12.927502,8.320881 A 3.7990377,3.7990377 0 0 0 11.999999,8.20077 3.7990377,3.7990377 0 0 0 11.071346,8.31973 Z m 2.5564825,4.082239 a 2.4175694,2.4175694 0 0 1 2.41757,2.417569 2.4175694,2.4175694 0 0 1 -2.41757,2.417569 2.4175694,2.4175694 0 0 1 -2.4175685,-2.417569 2.4175694,2.4175694 0 0 1 2.4175685,-2.417569 z"
     fill="#ffffff"
     id="path2"
     style="stroke-width:0.999999" />
</svg>
