<?xml version="1.0" encoding="UTF-8" standalone="no"?>
<svg
   width="24"
   height="24"
   version="1.1"
   id="svg4"
   sodipodi:docname="soundkonverter.svg"
   inkscape:version="1.3 (0e150ed6c4, 2023-07-21)"
   xmlns:inkscape="http://www.inkscape.org/namespaces/inkscape"
   xmlns:sodipodi="http://sodipodi.sourceforge.net/DTD/sodipodi-0.dtd"
   xmlns="http://www.w3.org/2000/svg"
   xmlns:svg="http://www.w3.org/2000/svg"
   xmlns:sketch="http://www.bohemiancoding.com/sketch/ns">
  <defs
     id="defs4" />
  <sodipodi:namedview
     id="namedview4"
     pagecolor="#ffffff"
     bordercolor="#000000"
     borderopacity="0.25"
     inkscape:showpageshadow="2"
     inkscape:pageopacity="0.0"
     inkscape:pagecheckerboard="0"
     inkscape:deskcolor="#d1d1d1"
     inkscape:zoom="6.3359375"
     inkscape:cx="13.573366"
     inkscape:cy="0.07891492"
     inkscape:window-width="2560"
     inkscape:window-height="998"
     inkscape:window-x="0"
     inkscape:window-y="0"
     inkscape:window-maximized="1"
     inkscape:current-layer="svg4" />
  <path
     d="M 12,0.99999995 C 1.9999999,0.99999995 0.99999995,5.9999999 0.99999995,12 0.99999995,20 4,22.999999 12,22.999999 20,22.999999 22.999999,20 22.999999,12 22.999999,5.9999999 22,0.99999995 12,0.99999995 Z"
     sketch:type="MSShapeGroup"
     id="path6"
     style="font-variation-settings:normal;display:inline;vector-effect:none;fill:#f2f2f2;fill-opacity:1;stroke-width:1.11627;stroke-linecap:butt;stroke-linejoin:miter;stroke-miterlimit:4;stroke-dasharray:none;stroke-dashoffset:0;stroke-opacity:1;-inkscape-stroke:none;stop-color:#000000"
     sodipodi:nodetypes="sssss"
     inkscape:label="Shape" />
  <path
     d="M 12,1.9750004 C 2.886364,1.9750004 1.9750004,6.5318182 1.9750004,12 1.9750004,19.290909 4.7090912,22.024999 12,22.024999 19.290909,22.024999 22.024999,19.290909 22.024999,12 22.024999,6.5318182 21.113636,1.9750004 12,1.9750004 Z"
     sketch:type="MSShapeGroup"
     id="path45683"
     style="font-variation-settings:normal;display:inline;vector-effect:none;fill:#e7e7e7;fill-opacity:1;stroke-width:1.01733;stroke-linecap:butt;stroke-linejoin:miter;stroke-miterlimit:4;stroke-dasharray:none;stroke-dashoffset:0;stroke-opacity:1;-inkscape-stroke:none;stop-color:#000000"
     sodipodi:nodetypes="sssss"
     inkscape:label="Shape" />
  <g
     id="g8"
     transform="matrix(0.32166519,0,0,0.32166519,-4.72672,1.7065038)"
     style="stroke-width:3.10882">
    <path
       fill="#5fa1e9"
       d="m 67.154,33.304 h 5.625 L 62.875,23.4 52.971,33.304 h 5.183 v 8 h 9 z"
       id="path5"
       style="stroke-width:3.10882" />
    <path
       fill="#1964c2"
       d="m 47.154,42.304 h -4.86 l 9.905,9.904 9.904,-9.904 h -4.95 v -8 h -10 z"
       id="path7"
       style="stroke-width:3.10882" />
    <path
       d="m 61.672,16.26 v -3.28 c 0,-0.705 -0.61,-1.254 -1.311,-1.18 l -13.048,1.38 a 1.187,1.187 0 0 0 -1.061,1.18 v 23.299 c -1.84,-0.31 -4.054,-0.236 -6.36,0.305 -5.418,1.272 -9.266,4.623 -8.594,7.486 0.672,2.863 5.634,4.466 11.028,3.092 8.429,-2.147 8.67,-6.948 8.67,-6.948 v -22.6 c 0,-0.303 0.229,-0.558 0.53,-0.59 l 9.085,-0.963 a 1.186,1.186 0 0 0 1.06,-1.18 z"
       fill="#b4d100"
       id="path8"
       style="stroke-width:3.10882" />
  </g>
</svg>
