<?xml version="1.0" encoding="UTF-8" standalone="no"?>
<svg
   width="121.99982"
   height="122.00023"
   viewBox="0 0 121.99982 122.00023"
   fill="none"
   version="1.1"
   id="svg8571"
   sodipodi:docname="Template-B.svg"
   xml:space="preserve"
   xmlns:inkscape="http://www.inkscape.org/namespaces/inkscape"
   xmlns:sodipodi="http://sodipodi.sourceforge.net/DTD/sodipodi-0.dtd"
   xmlns:xlink="http://www.w3.org/1999/xlink"
   xmlns="http://www.w3.org/2000/svg"
   xmlns:svg="http://www.w3.org/2000/svg"><sodipodi:namedview
     id="namedview8573"
     pagecolor="#ffffff"
     bordercolor="#000000"
     borderopacity="0.25"
     inkscape:showpageshadow="2"
     inkscape:pageopacity="0.0"
     inkscape:pagecheckerboard="0"
     inkscape:deskcolor="#d1d1d1"
     showgrid="false" /><defs
     id="defs8569"><linearGradient
       inkscape:collect="always"
       id="linearGradient20266"><stop
         style="stop-color:#cecece;stop-opacity:1"
         offset="0"
         id="stop20262" /><stop
         style="stop-color:#e7e7e7;stop-opacity:1"
         offset="1"
         id="stop20264" /></linearGradient><linearGradient
       inkscape:collect="always"
       xlink:href="#linearGradient20266"
       id="linearGradient20268"
       x1="41.31773"
       y1="100.56889"
       x2="43.142113"
       y2="-12.314811"
       gradientUnits="userSpaceOnUse" /><linearGradient
       inkscape:collect="always"
       xlink:href="#linearGradient20266"
       id="linearGradient22180"
       gradientUnits="userSpaceOnUse"
       x1="41.31773"
       y1="100.56889"
       x2="43.142113"
       y2="-12.314811" /><linearGradient
       inkscape:collect="always"
       xlink:href="#linearGradient20266"
       id="linearGradient22182"
       gradientUnits="userSpaceOnUse"
       x1="41.31773"
       y1="100.56889"
       x2="43.142113"
       y2="-12.314811" /><linearGradient
       inkscape:collect="always"
       xlink:href="#linearGradient20266"
       id="linearGradient22184"
       gradientUnits="userSpaceOnUse"
       x1="41.31773"
       y1="100.56889"
       x2="43.142113"
       y2="-12.314811" /></defs><g
     id="g16605"
     transform="matrix(1.3333333,0,0,1.3333333,3.0444727e-4,5.917673e-4)"
     style="fill:url(#linearGradient20268);fill-opacity:1"
     inkscape:export-filename="../g16605.svg"
     inkscape:export-xdpi="100.72131"
     inkscape:export-ydpi="100.72131"><g
       id="g16607"
       style="fill:url(#linearGradient22184);fill-opacity:1"><g
         id="g16613"
         style="fill:url(#linearGradient22182);fill-opacity:1"><path
           d="m 35.75,0.473 c 0.5,0.004 0.977,-0.059 1.43,-0.192 5.972,-0.39 11.945,-0.375 17.914,0.047 5.414,0.422 10.656,1.598 15.722,3.524 8.426,3.468 14.192,9.484 17.293,18.05 1.778,5.157 2.825,10.457 3.145,15.903 0.445,6.843 0.285,13.668 -0.477,20.476 -0.57,4.789 -1.808,9.391 -3.715,13.813 -3.539,7.66 -9.269,12.945 -17.199,15.855 -6.425,2.172 -13.031,3.313 -19.82,3.43 C 42.41,91.773 34.848,91.203 27.367,89.664 13.594,86.594 5.098,78.199 1.879,64.473 0.512,58.293 -0.105,52.039 0.02,45.711 -0.133,38.98 0.582,32.344 2.164,25.805 5.539,12.973 13.684,5.02 26.605,1.949 29.613,1.211 32.664,0.719 35.75,0.473 Z"
           style="fill:url(#linearGradient22180);fill-opacity:1;fill-rule:evenodd;stroke:none"
           id="path16621" /></g></g></g><circle
     cx="60.153206"
     cy="60.134304"
     r="45.651741"
     fill="#cecece"
     id="circle19514"
     style="stroke-width:6.39022;paint-order:stroke markers fill" /><circle
     cx="60.159599"
     cy="60.134304"
     r="30.430233"
     fill="#ffffff"
     opacity="0.5"
     id="circle19516"
     style="stroke-width:6.39022;paint-order:stroke markers fill" /><circle
     cx="60.159599"
     cy="60.134304"
     r="25.362789"
     fill="#4d4d4d"
     id="circle19518"
     style="stroke-width:6.39022;paint-order:stroke markers fill" /><circle
     cx="60.159599"
     cy="60.134304"
     r="10.147672"
     fill="#ffffff"
     id="circle19520"
     style="stroke-width:6.39022;paint-order:stroke markers fill" /><circle
     cx="87.209412"
     cy="87.228783"
     r="20.288952"
     fill="#ffffff"
     id="circle19524"
     style="stroke-width:6.39022" /><g
     fill="#ff7920"
     stroke="#ffffff"
     stroke-linejoin="round"
     stroke-width="7.085"
     paint-order="stroke markers fill"
     id="g19550"
     transform="matrix(6.3902212,0,0,6.3902212,6.0535934,-1783.6362)"><path
       transform="matrix(0.01867,0.03236,-0.03233,0.01868,13.73,290.08)"
       d="m 64,59.82 a 4.18,4.18 0 0 0 -2.09,7.8 l 44.375,25.624 a 4.18,4.18 0 0 0 5.707,-1.525 55.41,55.41 0 0 0 7.438,-27.725 4.18,4.18 0 0 0 -4.18,-4.174 z"
       id="path19526" /><path
       transform="matrix(0.03233,0.01868,-0.01867,0.03236,12.248,289.92)"
       d="m 64,59.82 a 4.18,4.18 0 0 0 -2.09,7.8 l 44.375,25.624 a 4.18,4.18 0 0 0 5.707,-1.525 55.41,55.41 0 0 0 7.438,-27.725 4.18,4.18 0 0 0 -4.18,-4.174 z"
       id="path19528" /><path
       transform="matrix(0.03733,0,0,0.03736,10.888,290.53)"
       d="m 64,59.82 a 4.18,4.18 0 0 0 -2.09,7.8 l 44.375,25.624 a 4.18,4.18 0 0 0 5.707,-1.525 55.41,55.41 0 0 0 7.438,-27.725 4.18,4.18 0 0 0 -4.18,-4.174 z"
       id="path19530" /><path
       transform="matrix(0.03233,-0.01868,0.01867,0.03236,10.013,291.74)"
       d="m 64,59.82 a 4.18,4.18 0 0 0 -2.09,7.8 l 44.375,25.624 a 4.18,4.18 0 0 0 5.707,-1.525 55.41,55.41 0 0 0 7.438,-27.725 4.18,4.18 0 0 0 -4.18,-4.174 z"
       id="path19532" /><path
       transform="matrix(0.01867,-0.03236,0.03233,0.01868,9.86,293.22)"
       d="m 64,59.82 a 4.18,4.18 0 0 0 -2.09,7.8 l 44.375,25.624 a 4.18,4.18 0 0 0 5.707,-1.525 55.41,55.41 0 0 0 7.438,-27.725 4.18,4.18 0 0 0 -4.18,-4.174 z"
       id="path19534" /><path
       transform="matrix(0,-0.03736,0.03733,0,10.467,294.58)"
       d="m 64,59.82 a 4.18,4.18 0 0 0 -2.09,7.8 l 44.375,25.624 a 4.18,4.18 0 0 0 5.707,-1.525 55.41,55.41 0 0 0 7.438,-27.725 4.18,4.18 0 0 0 -4.18,-4.174 z"
       id="path19536" /><path
       transform="matrix(-0.01867,0.03236,0.03233,0.01868,11.67,290.08)"
       d="m 64,59.82 a 4.18,4.18 0 0 0 -2.09,7.8 l 44.375,25.624 a 4.18,4.18 0 0 0 5.707,-1.525 55.41,55.41 0 0 0 7.438,-27.725 4.18,4.18 0 0 0 -4.18,-4.174 z"
       id="path19538" /><path
       transform="matrix(-0.03233,0.01868,0.01867,0.03236,13.152,289.92)"
       d="m 64,59.82 a 4.18,4.18 0 0 0 -2.09,7.8 l 44.375,25.624 a 4.18,4.18 0 0 0 5.707,-1.525 55.41,55.41 0 0 0 7.438,-27.725 4.18,4.18 0 0 0 -4.18,-4.174 z"
       id="path19540" /><path
       transform="matrix(-0.03733,0,0,0.03736,14.512,290.53)"
       d="m 64,59.82 a 4.18,4.18 0 0 0 -2.09,7.8 l 44.375,25.624 a 4.18,4.18 0 0 0 5.707,-1.525 55.41,55.41 0 0 0 7.438,-27.725 4.18,4.18 0 0 0 -4.18,-4.174 z"
       id="path19542" /><path
       transform="matrix(-0.03233,-0.01868,-0.01867,0.03236,15.387,291.74)"
       d="m 64,59.82 a 4.18,4.18 0 0 0 -2.09,7.8 l 44.375,25.624 a 4.18,4.18 0 0 0 5.707,-1.525 55.41,55.41 0 0 0 7.438,-27.725 4.18,4.18 0 0 0 -4.18,-4.174 z"
       id="path19544" /><path
       transform="matrix(-0.01867,-0.03236,-0.03233,0.01868,15.54,293.22)"
       d="m 64,59.82 a 4.18,4.18 0 0 0 -2.09,7.8 l 44.375,25.624 a 4.18,4.18 0 0 0 5.707,-1.525 55.41,55.41 0 0 0 7.438,-27.725 4.18,4.18 0 0 0 -4.18,-4.174 z"
       id="path19546" /><path
       transform="matrix(0,-0.03736,-0.03733,0,14.933,294.58)"
       d="m 64,59.82 a 4.18,4.18 0 0 0 -2.09,7.8 l 44.375,25.624 a 4.18,4.18 0 0 0 5.707,-1.525 55.41,55.41 0 0 0 7.438,-27.725 4.18,4.18 0 0 0 -4.18,-4.174 z"
       id="path19548" /></g></svg>
