<?xml version="1.0" encoding="UTF-8" standalone="no"?>
<svg
   width="24"
   height="24"
   viewBox="0 0 24 24"
   fill="none"
   version="1.1"
   id="svg154"
   sodipodi:docname="app.svg"
   inkscape:version="1.2.2 (b0a8486541, 2022-12-01)"
   xml:space="preserve"
   xmlns:inkscape="http://www.inkscape.org/namespaces/inkscape"
   xmlns:sodipodi="http://sodipodi.sourceforge.net/DTD/sodipodi-0.dtd"
   xmlns:xlink="http://www.w3.org/1999/xlink"
   xmlns="http://www.w3.org/2000/svg"
   xmlns:svg="http://www.w3.org/2000/svg"
   xmlns:sketch="http://www.bohemiancoding.com/sketch/ns"><sodipodi:namedview
     id="namedview156"
     pagecolor="#ffffff"
     bordercolor="#000000"
     borderopacity="1"
     inkscape:showpageshadow="0"
     inkscape:pageopacity="1"
     inkscape:pagecheckerboard="false"
     inkscape:deskcolor="#ffffff"
     showgrid="true"
     inkscape:zoom="32"
     inkscape:cx="9.609375"
     inkscape:cy="15.453125"
     inkscape:window-width="1920"
     inkscape:window-height="1052"
     inkscape:window-x="0"
     inkscape:window-y="0"
     inkscape:window-maximized="1"
     inkscape:current-layer="svg154"
     showguides="false"
     guidecolor="#ff0000"
     guideopacity="1"
     inkscape:lockguides="true"
     showborder="true"
     borderlayer="true"><inkscape:grid
       type="xygrid"
       id="grid356"
       color="#000000"
       opacity="0.10196078"
       empcolor="#000000"
       empopacity="0.10196078"
       snapvisiblegridlinesonly="true"
       enabled="true"
       visible="true"
       dotted="false" /><sodipodi:guide
       position="4,12"
       orientation="-1,0"
       id="guide764"
       inkscape:locked="true"
       inkscape:label="left-circle"
       inkscape:color="rgb(255,0,0)" /><sodipodi:guide
       position="5,12"
       orientation="-1,0"
       id="guide2218"
       inkscape:locked="true"
       inkscape:label="left-square"
       inkscape:color="rgb(255,0,0)" /><sodipodi:guide
       position="12,20"
       orientation="0,1"
       id="guide2220"
       inkscape:locked="true"
       inkscape:label="top-circle"
       inkscape:color="rgb(255,0,0)" /><sodipodi:guide
       position="12,5"
       orientation="0,1"
       id="guide2222"
       inkscape:locked="true"
       inkscape:label="bottom-square"
       inkscape:color="rgb(255,0,0)" /><sodipodi:guide
       position="12,4"
       orientation="0,1"
       id="guide2224"
       inkscape:locked="true"
       inkscape:label="bottom-circle"
       inkscape:color="rgb(255,0,0)" /><sodipodi:guide
       position="19,12"
       orientation="-1,0"
       id="guide2226"
       inkscape:locked="true"
       inkscape:label="right-square"
       inkscape:color="rgb(255,0,0)" /><sodipodi:guide
       position="20,12"
       orientation="-1,0"
       id="guide2228"
       inkscape:locked="true"
       inkscape:label="right-circle"
       inkscape:color="rgb(255,0,0)" /><sodipodi:guide
       position="12,19"
       orientation="0,1"
       id="guide2230"
       inkscape:locked="true"
       inkscape:label="top-square"
       inkscape:color="rgb(255,0,0)" /><sodipodi:guide
       position="12,12"
       orientation="1,0"
       id="guide765"
       inkscape:locked="true" /><sodipodi:guide
       position="12,12"
       orientation="0,-1"
       id="guide767"
       inkscape:locked="true" /><sodipodi:guide
       position="12,12"
       orientation="0.70710678,0.70710678"
       id="guide2266"
       inkscape:locked="true"
       inkscape:label=""
       inkscape:color="rgb(255,0,0)" /><sodipodi:guide
       position="12,12"
       orientation="-0.70710678,0.70710678"
       id="guide2994"
       inkscape:locked="true"
       inkscape:label=""
       inkscape:color="rgb(255,0,0)" /><sodipodi:guide
       position="3,12"
       orientation="-1,0"
       id="guide131543"
       inkscape:locked="true"
       inkscape:label="left-horizontal"
       inkscape:color="rgb(255,0,0)" /><sodipodi:guide
       position="12,21"
       orientation="0,1"
       id="guide131545"
       inkscape:locked="true"
       inkscape:label="top-vertical"
       inkscape:color="rgb(255,0,0)" /><sodipodi:guide
       position="21,12"
       orientation="-1,0"
       id="guide131547"
       inkscape:locked="true"
       inkscape:label="right-horizontal"
       inkscape:color="rgb(255,0,0)" /><sodipodi:guide
       position="12,3"
       orientation="0,1"
       id="guide131549"
       inkscape:locked="true"
       inkscape:label="bottom-vertical"
       inkscape:color="rgb(255,0,0)" /></sodipodi:namedview><defs
     id="defs152"><linearGradient
       inkscape:collect="always"
       id="linearGradient485"><stop
         style="stop-color:#1a1a1a;stop-opacity:1"
         offset="0"
         id="stop481" /><stop
         style="stop-color:#999999;stop-opacity:1"
         offset="1"
         id="stop483" /></linearGradient><linearGradient
       id="linearGradient29319"
       inkscape:swatch="solid"><stop
         style="stop-color:#d2d8db;stop-opacity:1;"
         offset="0"
         id="stop29317" /></linearGradient><linearGradient
       id="fffff"
       inkscape:swatch="solid"><stop
         style="stop-color:#ffffff;stop-opacity:1;"
         offset="0"
         id="stop28389" /></linearGradient><linearGradient
       inkscape:collect="always"
       xlink:href="#linearGradient485"
       id="linearGradient487"
       x1="53.579548"
       y1="95.511368"
       x2="52.428978"
       y2="0.90909094"
       gradientUnits="userSpaceOnUse"
       gradientTransform="matrix(0.24444444,0,0,0.24444444,-0.22222222,-0.22222222)" /></defs><path
     d="M 12,0.99999998 C 2,0.99999998 0.99999998,6 0.99999998,12 0.99999998,20 4.0000001,23 12,23 20,23 23,20 23,12 23,6 22,0.99999998 12,0.99999998 Z"
     sketch:type="MSShapeGroup"
     id="path6"
     style="font-variation-settings:normal;display:inline;opacity:1;vector-effect:none;fill:url(#linearGradient487);fill-opacity:1;stroke-width:1.11627;stroke-linecap:butt;stroke-linejoin:miter;stroke-miterlimit:4;stroke-dasharray:none;stroke-dashoffset:0;stroke-opacity:1;-inkscape-stroke:none;stop-color:#000000;stop-opacity:1"
     sodipodi:nodetypes="sssss"
     inkscape:label="Shape"
     sodipodi:insensitive="true" /><g
     id="g848"
     transform="matrix(0.91055433,0,0,0.91055433,17.207231,1.9838965)"><circle
       cx="-5.8714342"
       cy="10.84387"
       r="8.2322931"
       fill="#cecece"
       id="circle19514"
       style="stroke-width:1.15234;paint-order:stroke markers fill" /><circle
       cx="-5.8702812"
       cy="10.84387"
       r="5.4874272"
       fill="#ffffff"
       opacity="0.5"
       id="circle19516"
       style="stroke-width:1.15234;paint-order:stroke markers fill" /><circle
       cx="-5.8702812"
       cy="10.84387"
       r="4.5736246"
       fill="#4d4d4d"
       id="circle19518"
       style="stroke-width:1.15234;paint-order:stroke markers fill" /><circle
       cx="-5.8702812"
       cy="10.84387"
       r="1.8299108"
       fill="#ffffff"
       id="circle19520"
       style="stroke-width:1.15234;paint-order:stroke markers fill" /><circle
       cx="-0.99243903"
       cy="15.729767"
       r="3.658669"
       fill="#ffffff"
       id="circle19524"
       style="stroke-width:1.15234" /><g
       fill="#ff7920"
       stroke="#ffffff"
       stroke-linejoin="round"
       stroke-width="7.085"
       paint-order="stroke markers fill"
       id="g19550"
       transform="matrix(1.1523367,0,0,1.1523367,-15.627117,-321.63984)"><path
         transform="matrix(0.01867,0.03236,-0.03233,0.01868,13.73,290.08)"
         d="m 64,59.82 a 4.18,4.18 0 0 0 -2.09,7.8 l 44.375,25.624 a 4.18,4.18 0 0 0 5.707,-1.525 55.41,55.41 0 0 0 7.438,-27.725 4.18,4.18 0 0 0 -4.18,-4.174 z"
         id="path19526" /><path
         transform="matrix(0.03233,0.01868,-0.01867,0.03236,12.248,289.92)"
         d="m 64,59.82 a 4.18,4.18 0 0 0 -2.09,7.8 l 44.375,25.624 a 4.18,4.18 0 0 0 5.707,-1.525 55.41,55.41 0 0 0 7.438,-27.725 4.18,4.18 0 0 0 -4.18,-4.174 z"
         id="path19528" /><path
         transform="matrix(0.03733,0,0,0.03736,10.888,290.53)"
         d="m 64,59.82 a 4.18,4.18 0 0 0 -2.09,7.8 l 44.375,25.624 a 4.18,4.18 0 0 0 5.707,-1.525 55.41,55.41 0 0 0 7.438,-27.725 4.18,4.18 0 0 0 -4.18,-4.174 z"
         id="path19530" /><path
         transform="matrix(0.03233,-0.01868,0.01867,0.03236,10.013,291.74)"
         d="m 64,59.82 a 4.18,4.18 0 0 0 -2.09,7.8 l 44.375,25.624 a 4.18,4.18 0 0 0 5.707,-1.525 55.41,55.41 0 0 0 7.438,-27.725 4.18,4.18 0 0 0 -4.18,-4.174 z"
         id="path19532" /><path
         transform="matrix(0.01867,-0.03236,0.03233,0.01868,9.86,293.22)"
         d="m 64,59.82 a 4.18,4.18 0 0 0 -2.09,7.8 l 44.375,25.624 a 4.18,4.18 0 0 0 5.707,-1.525 55.41,55.41 0 0 0 7.438,-27.725 4.18,4.18 0 0 0 -4.18,-4.174 z"
         id="path19534" /><path
         transform="matrix(0,-0.03736,0.03733,0,10.467,294.58)"
         d="m 64,59.82 a 4.18,4.18 0 0 0 -2.09,7.8 l 44.375,25.624 a 4.18,4.18 0 0 0 5.707,-1.525 55.41,55.41 0 0 0 7.438,-27.725 4.18,4.18 0 0 0 -4.18,-4.174 z"
         id="path19536" /><path
         transform="matrix(-0.01867,0.03236,0.03233,0.01868,11.67,290.08)"
         d="m 64,59.82 a 4.18,4.18 0 0 0 -2.09,7.8 l 44.375,25.624 a 4.18,4.18 0 0 0 5.707,-1.525 55.41,55.41 0 0 0 7.438,-27.725 4.18,4.18 0 0 0 -4.18,-4.174 z"
         id="path19538" /><path
         transform="matrix(-0.03233,0.01868,0.01867,0.03236,13.152,289.92)"
         d="m 64,59.82 a 4.18,4.18 0 0 0 -2.09,7.8 l 44.375,25.624 a 4.18,4.18 0 0 0 5.707,-1.525 55.41,55.41 0 0 0 7.438,-27.725 4.18,4.18 0 0 0 -4.18,-4.174 z"
         id="path19540" /><path
         transform="matrix(-0.03733,0,0,0.03736,14.512,290.53)"
         d="m 64,59.82 a 4.18,4.18 0 0 0 -2.09,7.8 l 44.375,25.624 a 4.18,4.18 0 0 0 5.707,-1.525 55.41,55.41 0 0 0 7.438,-27.725 4.18,4.18 0 0 0 -4.18,-4.174 z"
         id="path19542" /><path
         transform="matrix(-0.03233,-0.01868,-0.01867,0.03236,15.387,291.74)"
         d="m 64,59.82 a 4.18,4.18 0 0 0 -2.09,7.8 l 44.375,25.624 a 4.18,4.18 0 0 0 5.707,-1.525 55.41,55.41 0 0 0 7.438,-27.725 4.18,4.18 0 0 0 -4.18,-4.174 z"
         id="path19544" /><path
         transform="matrix(-0.01867,-0.03236,-0.03233,0.01868,15.54,293.22)"
         d="m 64,59.82 a 4.18,4.18 0 0 0 -2.09,7.8 l 44.375,25.624 a 4.18,4.18 0 0 0 5.707,-1.525 55.41,55.41 0 0 0 7.438,-27.725 4.18,4.18 0 0 0 -4.18,-4.174 z"
         id="path19546" /><path
         transform="matrix(0,-0.03736,-0.03733,0,14.933,294.58)"
         d="m 64,59.82 a 4.18,4.18 0 0 0 -2.09,7.8 l 44.375,25.624 a 4.18,4.18 0 0 0 5.707,-1.525 55.41,55.41 0 0 0 7.438,-27.725 4.18,4.18 0 0 0 -4.18,-4.174 z"
         id="path19548" /></g></g></svg>
