<?xml version="1.0" encoding="UTF-8" standalone="no"?>
<svg
   width="24"
   height="24"
   viewBox="0 0 6.349875 6.349875"
   version="1.1"
   id="svg5"
   sodipodi:docname="sqlitestudio.svg"
   inkscape:version="1.3 (0e150ed6c4, 2023-07-21)"
   xmlns:inkscape="http://www.inkscape.org/namespaces/inkscape"
   xmlns:sodipodi="http://sodipodi.sourceforge.net/DTD/sodipodi-0.dtd"
   xmlns="http://www.w3.org/2000/svg"
   xmlns:svg="http://www.w3.org/2000/svg">
  <defs
     id="defs5">
    <radialGradient
       fx="0"
       fy="0"
       cx="0"
       cy="0"
       r="1"
       gradientUnits="userSpaceOnUse"
       gradientTransform="matrix(0,16.5,-16.5,0,8.999651,0.749985)"
       spreadMethod="pad"
       id="radialGradient868-3">
      <stop
         style="stop-opacity:1;stop-color:#fafafa"
         offset="0"
         id="stop864-6" />
      <stop
         style="stop-opacity:1;stop-color:#c0c0c0"
         offset="1"
         id="stop866-7" />
    </radialGradient>
  </defs>
  <sodipodi:namedview
     id="namedview5"
     pagecolor="#ffffff"
     bordercolor="#000000"
     borderopacity="0.25"
     inkscape:showpageshadow="2"
     inkscape:pageopacity="0.0"
     inkscape:pagecheckerboard="0"
     inkscape:deskcolor="#d1d1d1"
     inkscape:zoom="6.3359375"
     inkscape:cx="2.6831073"
     inkscape:cy="34.80148"
     inkscape:window-width="2560"
     inkscape:window-height="998"
     inkscape:window-x="0"
     inkscape:window-y="0"
     inkscape:window-maximized="1"
     inkscape:current-layer="svg5" />
  <g
     id="g854"
     transform="matrix(0.35277083,0,0,0.35277083,-1.1970624e-4,-9.3206515e-6)">
    <g
       id="g856">
      <g
         id="g862">
        <path
           d="m 7.195,0.836 c 0.09,0 0.176,-0.012 0.258,-0.035 1.078,-0.071 2.156,-0.067 3.231,0.008 0.976,0.078 1.921,0.289 2.836,0.636 1.519,0.625 2.558,1.711 3.121,3.254 0.316,0.93 0.507,1.887 0.566,2.867 0.078,1.235 0.051,2.465 -0.086,3.696 -0.105,0.863 -0.328,1.691 -0.672,2.488 -0.637,1.383 -1.672,2.336 -3.101,2.859 C 12.191,17 11,17.207 9.773,17.227 8.398,17.301 7.035,17.195 5.684,16.918 3.203,16.367 1.668,14.852 1.09,12.375 0.844,11.262 0.73,10.133 0.754,8.992 0.727,7.781 0.855,6.582 1.141,5.402 1.75,3.09 3.219,1.656 5.547,1.102 6.09,0.969 6.641,0.879 7.195,0.836 Z"
           style="fill:url(#radialGradient868-3);fill-rule:evenodd;stroke:none"
           id="path870" />
      </g>
    </g>
  </g>
  <g
     transform="matrix(0.24074443,0,0,0.24074443,1.2002313,1.2640286)"
     id="g9"
     style="stroke-width:4.15378">
    <path
       d="m 1.323,10.319 v 3.175 a 6.879,1.587 0 0 0 6.879,1.587 6.879,1.587 0 0 0 6.879,-1.587 v -3.175 z"
       fill="#e6e6e6"
       id="path6"
       style="stroke-width:4.15378" />
    <ellipse
       cx="8.2019997"
       cy="10.319"
       rx="6.8790002"
       ry="1.587"
       fill="#cccccc"
       id="ellipse6"
       style="stroke-width:4.15378" />
    <path
       d="m 1.323,6.35 v 3.175 a 6.879,1.587 0 0 0 6.879,1.587 6.879,1.587 0 0 0 6.879,-1.587 V 6.35 Z"
       fill="#e6e6e6"
       id="path7"
       style="stroke-width:4.15378" />
    <ellipse
       cx="8.2019997"
       cy="6.3499999"
       rx="6.8790002"
       ry="1.587"
       fill="#cccccc"
       id="ellipse7"
       style="stroke-width:4.15378" />
    <path
       d="m 1.323,2.381 v 3.175 a 6.88,1.587 0 0 0 6.879,1.588 6.88,1.587 0 0 0 6.88,-1.588 V 2.381 Z"
       fill="#e6e6e6"
       id="path8"
       style="stroke-width:4.15378" />
    <ellipse
       cx="8.2019997"
       cy="2.381"
       rx="6.8790002"
       ry="1.587"
       fill="#cccccc"
       id="ellipse8"
       style="stroke-width:4.15378" />
    <path
       d="m 1.852,2.988 v 3.178 a 6.88,1.587 0 0 0 0.53,0.233 V 3.226 A 6.88,1.587 0 0 1 1.852,2.988 Z m 0,3.969 v 3.177 a 6.88,1.587 0 0 0 0.53,0.234 V 7.195 A 6.88,1.587 0 0 1 1.852,6.957 Z m 0,3.968 v 3.178 a 6.88,1.587 0 0 0 0.53,0.233 V 11.164 A 6.88,1.587 0 0 1 1.852,10.925 Z M 2.646,3.314 V 6.489 A 6.88,1.587 0 0 0 3.969,6.807 V 3.63 A 6.88,1.587 0 0 1 2.646,3.314 Z m 0,3.969 v 3.175 a 6.88,1.587 0 0 0 1.323,0.317 V 7.6 A 6.88,1.587 0 0 1 2.646,7.284 Z m 0,3.968 v 3.176 a 6.88,1.587 0 0 0 1.323,0.317 V 11.567 A 6.88,1.587 0 0 1 2.646,11.251 Z"
       fill="#ffffff"
       opacity="0.35"
       id="path9"
       style="stroke-width:4.15378" />
  </g>
  <path
     d="m 4.5761902,1.5187362 c -0.8173273,0 -1.8821399,1.1673698 -2.4481297,2.3657955 C 1.9643543,4.2307222 1.826167,4.6050798 1.7736848,4.8311388 l 0.063556,-0.00289 C 2.074856,4.1435727 2.3481008,4.0879608 2.4781026,4.0665345 2.9427394,3.9894965 3.2985599,3.839994 3.6416204,3.4297655 c -0.4670442,0 -0.7600301,-0.078242 -0.7600301,-0.1273538 H 3.7225106 C 3.8395123,3.180595 3.9591623,3.0407225 4.0496822,2.9203503 3.6416204,2.9203503 3.30193,2.8685903 3.30193,2.7927557 h 0.8406795 c 0.084261,-0.1251871 0.1552801,-0.2595225 0.2135403,-0.3820614 -0.3642462,0 -0.6083611,-0.082335 -0.6083611,-0.1275945 H 4.4170582 C 4.5273191,2.0115401 4.5769124,1.7517768 4.5759496,1.518977 Z"
     fill="#f67d7d"
     id="path10"
     style="stroke-width:0.999999" />
</svg>
