<?xml version="1.0" encoding="UTF-8" standalone="no"?>
<svg
   width="24"
   height="24"
   viewBox="0 0 6.349875 6.349875"
   version="1.1"
   id="svg1"
   sodipodi:docname="staruml.svg"
   inkscape:version="1.3 (0e150ed6c4, 2023-07-21)"
   xmlns:inkscape="http://www.inkscape.org/namespaces/inkscape"
   xmlns:sodipodi="http://sodipodi.sourceforge.net/DTD/sodipodi-0.dtd"
   xmlns="http://www.w3.org/2000/svg"
   xmlns:svg="http://www.w3.org/2000/svg">
  <defs
     id="defs1">
    <radialGradient
       id="paint0_radial_0_1"
       cx="0"
       cy="0"
       r="1"
       gradientUnits="userSpaceOnUse"
       gradientTransform="matrix(0,2.9103593,-2.9103593,0,3.1749374,0.26457812)">
      <stop
         stop-color="#6EBBF7"
         id="stop322" />
      <stop
         offset="1"
         stop-color="#2196F3"
         id="stop324"
         style="stop-color:#5c9cfa;stop-opacity:1;" />
    </radialGradient>
  </defs>
  <sodipodi:namedview
     id="namedview1"
     pagecolor="#ffffff"
     bordercolor="#000000"
     borderopacity="0.25"
     inkscape:showpageshadow="2"
     inkscape:pageopacity="0.0"
     inkscape:pagecheckerboard="0"
     inkscape:deskcolor="#d1d1d1"
     inkscape:zoom="2.2400922"
     inkscape:cx="72.764862"
     inkscape:cy="18.972433"
     inkscape:window-width="2560"
     inkscape:window-height="998"
     inkscape:window-x="0"
     inkscape:window-y="0"
     inkscape:window-maximized="1"
     inkscape:current-layer="svg1" />
  <path
     fill-rule="evenodd"
     clip-rule="evenodd"
     d="m 2.5389022,0.29463155 c 0.031707,3.3601e-4 0.062015,-0.003701 0.090922,-0.0121177 0.3798839,-0.0248846 0.7597123,-0.0238753 1.1395406,0.003029 0.3444016,0.0268339 0.6777965,0.10155611 1.0001585,0.2241669 C 5.3054528,0.73035203 5.6721845,1.1130537 5.8696656,1.6578095 5.982614,1.9857884 6.0492877,2.3230515 6.0697131,2.6695932 6.0979436,3.1047449 6.0878367,3.538944 6.0393925,3.9721907 6.0031453,4.2766936 5.9243274,4.5695287 5.8029919,4.8506694 5.5779418,5.3381546 5.2132473,5.6744069 4.7089085,5.8594264 4.3002146,5.9975097 3.8799588,6.0702158 3.4481143,6.0775182 2.9623754,6.1027854 2.4815126,6.0664323 2.0054942,5.9684855 1.1293226,5.7733062 0.58884242,5.239123 0.38405631,4.3659888 0.29715033,3.9729315 0.25775174,3.5750854 0.26585603,3.1724504 0.25615819,2.7443101 0.30161906,2.322226 0.40224076,1.9062086 0.61691945,1.0898184 1.1351724,0.58392656 1.9570023,0.38853826 2.1485013,0.34172116 2.3424688,0.31041893 2.5389022,0.29463155 Z"
     fill="url(#paint0_radial_0_1)"
     id="path318"
     style="fill:url(#paint0_radial_0_1);stroke-width:0.264578" />
  <path
     d="M 3.1770044,1.7197674 A 0.18221415,0.18221415 0 0 0 3.0116364,1.8215323 L 2.6399883,2.5737672 1.8100547,2.6944412 A 0.18221415,0.18221415 0 0 0 1.7093213,3.0055805 L 2.3102838,3.5907287 2.1686381,4.4175684 A 0.18221415,0.18221415 0 0 0 2.4326767,4.609409 L 3.1752853,4.2188518 3.9178941,4.6090652 A 0.18221415,0.18221415 0 0 0 4.1822764,4.416537 L 4.0399431,3.5903849 4.640906,3.0045491 A 0.18221415,0.18221415 0 0 0 4.5398288,2.6937536 L 3.7095511,2.5734235 3.3382467,1.8211885 A 0.18221415,0.18221415 0 0 0 3.1770044,1.7197674 Z"
     color="#000000"
     fill="#ffffff"
     style="font-variant-ligatures:normal;font-variant-position:normal;font-variant-caps:normal;font-variant-numeric:normal;font-variant-alternates:normal;font-feature-settings:normal;text-indent:0;text-decoration-line:none;text-decoration-style:solid;text-decoration-color:#000000;text-transform:none;text-orientation:mixed;white-space:normal;shape-padding:0;isolation:auto;mix-blend-mode:normal;stroke-width:1"
     id="path2" />
</svg>
