<?xml version="1.0" encoding="UTF-8" standalone="no"?>
<svg
   width="24"
   height="24"
   viewBox="0 0 24 24"
   fill="none"
   version="1.1"
   id="svg154"
   sodipodi:docname="steampowered.svg"
   inkscape:version="1.3 (0e150ed6c4, 2023-07-21)"
   xml:space="preserve"
   inkscape:export-filename="../../../../svg/steam.svg"
   inkscape:export-xdpi="96"
   inkscape:export-ydpi="96"
   xmlns:inkscape="http://www.inkscape.org/namespaces/inkscape"
   xmlns:sodipodi="http://sodipodi.sourceforge.net/DTD/sodipodi-0.dtd"
   xmlns:xlink="http://www.w3.org/1999/xlink"
   xmlns="http://www.w3.org/2000/svg"
   xmlns:svg="http://www.w3.org/2000/svg"
   xmlns:sketch="http://www.bohemiancoding.com/sketch/ns"><sodipodi:namedview
     id="namedview156"
     pagecolor="#ffffff"
     bordercolor="#000000"
     borderopacity="1"
     inkscape:showpageshadow="0"
     inkscape:pageopacity="1"
     inkscape:pagecheckerboard="false"
     inkscape:deskcolor="#ffffff"
     showgrid="true"
     inkscape:zoom="8"
     inkscape:cx="53"
     inkscape:cy="7.3125"
     inkscape:window-width="2560"
     inkscape:window-height="998"
     inkscape:window-x="0"
     inkscape:window-y="0"
     inkscape:window-maximized="1"
     inkscape:current-layer="svg154"
     showguides="true"
     guidecolor="#ff0000"
     guideopacity="1"
     inkscape:lockguides="true"
     showborder="true"
     borderlayer="true"><inkscape:grid
       type="xygrid"
       id="grid356"
       color="#000000"
       opacity="0.10196078"
       empcolor="#000000"
       empopacity="0.10196078"
       snapvisiblegridlinesonly="true"
       enabled="true"
       visible="true"
       dotted="false"
       originx="0"
       originy="0"
       spacingy="1"
       spacingx="1"
       units="px" /><sodipodi:guide
       position="4,12"
       orientation="-1,0"
       id="guide764"
       inkscape:locked="true"
       inkscape:label="left-circle"
       inkscape:color="rgb(255,0,0)" /><sodipodi:guide
       position="5,12"
       orientation="-1,0"
       id="guide2218"
       inkscape:locked="true"
       inkscape:label="left-square"
       inkscape:color="rgb(255,0,0)" /><sodipodi:guide
       position="12,20"
       orientation="0,1"
       id="guide2220"
       inkscape:locked="true"
       inkscape:label="top-circle"
       inkscape:color="rgb(255,0,0)" /><sodipodi:guide
       position="12,5"
       orientation="0,1"
       id="guide2222"
       inkscape:locked="true"
       inkscape:label="bottom-square"
       inkscape:color="rgb(255,0,0)" /><sodipodi:guide
       position="12,4"
       orientation="0,1"
       id="guide2224"
       inkscape:locked="true"
       inkscape:label="bottom-circle"
       inkscape:color="rgb(255,0,0)" /><sodipodi:guide
       position="19,12"
       orientation="-1,0"
       id="guide2226"
       inkscape:locked="true"
       inkscape:label="right-square"
       inkscape:color="rgb(255,0,0)" /><sodipodi:guide
       position="20,12"
       orientation="-1,0"
       id="guide2228"
       inkscape:locked="true"
       inkscape:label="right-circle"
       inkscape:color="rgb(255,0,0)" /><sodipodi:guide
       position="12,19"
       orientation="0,1"
       id="guide2230"
       inkscape:locked="true"
       inkscape:label="top-square"
       inkscape:color="rgb(255,0,0)" /><sodipodi:guide
       position="12,12"
       orientation="1,0"
       id="guide765"
       inkscape:locked="true" /><sodipodi:guide
       position="12,12"
       orientation="0,-1"
       id="guide767"
       inkscape:locked="true" /><sodipodi:guide
       position="12,12"
       orientation="0.70710678,0.70710678"
       id="guide2266"
       inkscape:locked="true"
       inkscape:label=""
       inkscape:color="rgb(255,0,0)" /><sodipodi:guide
       position="12,12"
       orientation="-0.70710678,0.70710678"
       id="guide2994"
       inkscape:locked="true"
       inkscape:label=""
       inkscape:color="rgb(255,0,0)" /><sodipodi:guide
       position="3,12"
       orientation="-1,0"
       id="guide131543"
       inkscape:locked="true"
       inkscape:label="left-horizontal"
       inkscape:color="rgb(255,0,0)" /><sodipodi:guide
       position="12,21"
       orientation="0,1"
       id="guide131545"
       inkscape:locked="true"
       inkscape:label="top-vertical"
       inkscape:color="rgb(255,0,0)" /><sodipodi:guide
       position="21,12"
       orientation="-1,0"
       id="guide131547"
       inkscape:locked="true"
       inkscape:label="right-horizontal"
       inkscape:color="rgb(255,0,0)" /><sodipodi:guide
       position="12,3"
       orientation="0,1"
       id="guide131549"
       inkscape:locked="true"
       inkscape:label="bottom-vertical"
       inkscape:color="rgb(255,0,0)" /></sodipodi:namedview><defs
     id="defs152"><linearGradient
       inkscape:collect="always"
       id="linearGradient2599"><stop
         style="stop-color:#0f182e;stop-opacity:1;"
         offset="0"
         id="stop2595" /><stop
         style="stop-color:#256d8e;stop-opacity:1"
         offset="1"
         id="stop2597" /></linearGradient><linearGradient
       inkscape:collect="always"
       xlink:href="#linearGradient2599"
       id="linearGradient2601"
       x1="51.278412"
       y1="95.767044"
       x2="50.767048"
       y2="0.65340912"
       gradientUnits="userSpaceOnUse"
       gradientTransform="matrix(0.24444444,0,0,0.24444444,-0.222222,-0.22222222)" /><linearGradient
       id="A"
       x2="32.01076"
       x1="32.01076"
       y2="63.965491"
       y1="0"
       gradientTransform="scale(0.99946079,1.0005395)"
       gradientUnits="userSpaceOnUse"><stop
         stop-color="#111d2e"
         offset="0%"
         id="stop1" /><stop
         stop-color="#051839"
         offset="21.2%"
         id="stop2" /><stop
         stop-color="#0a1b48"
         offset="40.7%"
         id="stop3" /><stop
         stop-color="#132e62"
         offset="58.1%"
         id="stop4" /><stop
         stop-color="#144b7e"
         offset="73.8%"
         id="stop5" /><stop
         stop-color="#136497"
         offset="87.3%"
         id="stop6" /><stop
         stop-color="#1387b8"
         offset="100%"
         id="stop7" /></linearGradient><radialGradient
       fx="0"
       fy="0"
       cx="0"
       cy="0"
       r="1"
       gradientUnits="userSpaceOnUse"
       gradientTransform="matrix(0,16.5,-16.5,0,8.999651,0.749985)"
       spreadMethod="pad"
       id="radialGradient868-3"><stop
         style="stop-opacity:1;stop-color:#fafafa"
         offset="0"
         id="stop864-6" /><stop
         style="stop-opacity:1;stop-color:#c0c0c0"
         offset="1"
         id="stop866-7" /></radialGradient></defs><path
     d="M 12,0.99999998 C 2,0.99999998 1,6 1,12 1,20 4,23 12,23 20,23 23,20 23,12 23,6 22,0.99999998 12,0.99999998 Z"
     sketch:type="MSShapeGroup"
     id="path6"
     style="font-variation-settings:normal;display:inline;opacity:1;vector-effect:none;fill:url(#linearGradient2601);fill-opacity:1;stroke-width:1.11627;stroke-linecap:butt;stroke-linejoin:miter;stroke-miterlimit:4;stroke-dasharray:none;stroke-dashoffset:0;stroke-opacity:1;-inkscape-stroke:none;stop-color:#000000;stop-opacity:1"
     sodipodi:nodetypes="sssss"
     inkscape:label="Shape" /><path
     id="path5"
     style="font-variation-settings:normal;display:inline;opacity:1;vector-effect:none;fill:#ffffff;fill-opacity:1;stroke-width:1.11627;stroke-linecap:butt;stroke-linejoin:miter;stroke-miterlimit:4;stroke-dasharray:none;stroke-dashoffset:0;stroke-opacity:1;-inkscape-stroke:none;stop-color:#000000;stop-opacity:1"
     inkscape:label="Shape"
     d="m 16.101562,4.8378906 c -2.427613,0 -4.404296,1.9781965 -4.404296,4.4101563 h 0.0039 l 0.002,0.056641 -2.835937,4.1191401 c -0.459274,-0.02101 -0.919857,0.06021 -1.357422,0.240234 A 2.9484921,2.9484921 0 0 0 6.966838,13.955078 L 1.005859,11.498047 C 1.004092,11.665447 1,11.830922 1,12 c 0,1.316382 0.08254,2.494296 0.253906,3.548828 l 4.34375,1.792969 c 0.217333,0.988142 0.89798,1.854928 1.898438,2.271484 a 3.2165369,3.2165369 0 0 0 4.203125,-1.732422 3.2201592,3.2201592 0 0 0 0.248047,-1.324218 l 4.054687,-2.900391 0.09961,0.002 c 2.428702,0 4.402344,-1.978195 4.402344,-4.4101561 0,-2.4319598 -1.970022,-4.4050852 -4.402344,-4.4101563 z m 0.0039,1.4726563 a 2.9412478,2.9412478 0 0 1 2.933593,2.9375 2.9412478,2.9412478 0 0 1 -2.933593,2.9394531 2.9412478,2.9412478 0 0 1 -2.933594,-2.9394531 2.9412478,2.9412478 0 0 1 2.933594,-2.9375 z m 0.0039,0.7246093 A 2.2059358,2.2059358 0 0 0 13.90625,9.2421875 2.2059358,2.2059358 0 0 0 16.109375,11.449219 2.2059358,2.2059358 0 0 0 18.3125,9.2421875 c 0,-1.2188784 -0.987868,-2.2070313 -2.203125,-2.2070313 z M 8.753893,14.158203 c 0.309881,0.0026 0.625784,0.06517 0.929688,0.191406 0.615778,0.254643 1.085784,0.732461 1.33789,1.345703 0.252107,0.613242 0.250352,1.289684 -0.0039,1.900391 h 0.0039 c -0.526672,1.267777 -1.981072,1.864201 -3.24414,1.337891 A 2.4776029,2.4776029 0 0 1 6.50194,17.716797 l 1.433594,0.59375 A 1.825602,1.825602 0 0 0 10.322253,17.326172 1.8292243,1.8292243 0 0 0 9.337878,14.935547 L 7.853503,14.320312 c 0.285793,-0.108666 0.590509,-0.164689 0.90039,-0.162109 z" /></svg>
