<?xml version="1.0" encoding="UTF-8" standalone="no"?>
<svg
   width="24"
   height="24"
   version="1.1"
   id="svg14"
   sodipodi:docname="stellarium.svg"
   inkscape:version="1.3 (0e150ed6c4, 2023-07-21)"
   xmlns:inkscape="http://www.inkscape.org/namespaces/inkscape"
   xmlns:sodipodi="http://sodipodi.sourceforge.net/DTD/sodipodi-0.dtd"
   xmlns:xlink="http://www.w3.org/1999/xlink"
   xmlns="http://www.w3.org/2000/svg"
   xmlns:svg="http://www.w3.org/2000/svg">
  <defs
     id="defs14">
    <linearGradient
       id="linearGradient17"
       inkscape:collect="always">
      <stop
         style="stop-color:#5f4b89;stop-opacity:1;"
         offset="0"
         id="stop17" />
      <stop
         style="stop-color:#513c81;stop-opacity:1;"
         offset="1"
         id="stop18" />
    </linearGradient>
    <linearGradient
       id="linearGradient14"
       inkscape:collect="always">
      <stop
         style="stop-color:#7c6797;stop-opacity:1;"
         offset="0"
         id="stop14" />
      <stop
         style="stop-color:#4b3071;stop-opacity:1;"
         offset="1"
         id="stop15" />
    </linearGradient>
    <radialGradient
       id="radialGradient45"
       cx="0"
       cy="0"
       r="1"
       gradientUnits="userSpaceOnUse"
       gradientTransform="matrix(0,22,-22,0,11.999985,1.0000546)">
      <stop
         stop-color="#FAFAFA"
         id="stop44"
         offset="0"
         style="stop-color:#fafafa;stop-opacity:0.34999999;" />
      <stop
         offset="1"
         stop-color="#B0B0B0"
         id="stop45"
         style="stop-color:#b0b0b0;stop-opacity:0;" />
    </radialGradient>
    <radialGradient
       id="paint0_radial_2_129"
       cx="0"
       cy="0"
       r="1"
       gradientUnits="userSpaceOnUse"
       gradientTransform="matrix(0,22,-22,0,11.999985,1.0000546)">
      <stop
         stop-color="#FAFAFA"
         id="stop8838" />
      <stop
         offset="1"
         stop-color="#B0B0B0"
         id="stop8840" />
    </radialGradient>
    <radialGradient
       inkscape:collect="always"
       xlink:href="#linearGradient14"
       id="radialGradient15"
       cx="11.999636"
       cy="1.0394995"
       fx="11.999636"
       fy="1.0394995"
       r="11.000497"
       gradientTransform="matrix(1,0,0,0.99996659,0,4.0094494e-4)"
       gradientUnits="userSpaceOnUse" />
    <radialGradient
       inkscape:collect="always"
       xlink:href="#linearGradient17"
       id="radialGradient18"
       cx="12.265129"
       cy="0.2815499"
       fx="12.265129"
       fy="-4.0853505"
       r="7.2885133"
       gradientTransform="matrix(3.2677631,0,0,3.1086371,-27.814407,0.0623593)"
       gradientUnits="userSpaceOnUse" />
  </defs>
  <sodipodi:namedview
     id="namedview14"
     pagecolor="#ffffff"
     bordercolor="#000000"
     borderopacity="0.25"
     inkscape:showpageshadow="2"
     inkscape:pageopacity="0.0"
     inkscape:pagecheckerboard="0"
     inkscape:deskcolor="#d1d1d1"
     inkscape:zoom="90.509664"
     inkscape:cx="4.0437671"
     inkscape:cy="5.6955244"
     inkscape:window-width="2560"
     inkscape:window-height="998"
     inkscape:window-x="0"
     inkscape:window-y="0"
     inkscape:window-maximized="1"
     inkscape:current-layer="svg14" />
  <path
     id="path29"
     style="fill:url(#radialGradient15);fill-opacity:1;stroke-width:0.423085"
     d="M 12.09375,1 C 11.375926,0.9981 10.657352,1.02132 9.939453,1.06836 9.830203,1.10018 9.715547,1.11455 9.595703,1.11328 8.853254,1.17296 8.120274,1.291788 7.396484,1.468749 4.290287,2.207238 2.33092,4.11945 1.519531,7.205077 1.186745,8.580917 1.013523,9.973791 1,11.384765 c -0.0019,0.201567 -6.77e-4,0.403181 0.0039,0.605468 -0.03061,1.521799 0.118781,3.026121 0.447266,4.511719 0.773998,3.300097 2.817319,5.318938 6.128906,6.056641 1.799158,0.370211 3.617227,0.507809 5.453125,0.412109 1.632198,-0.02759 3.218974,-0.302328 4.763672,-0.824219 1.906198,-0.699301 3.28612,-1.970001 4.136719,-3.8125 0.458599,-1.062599 0.755578,-2.169413 0.892578,-3.320312 0.183099,-1.637498 0.221932,-3.27913 0.115234,-4.923828 C 22.8642,8.780085 22.61244,7.505263 22.185541,6.265624 21.439142,4.206666 20.052936,2.75973 18.027338,1.92578 16.808939,1.462361 15.547786,1.181477 14.246088,1.080077 c -0.7178,-0.0508 -1.43452,-0.07818 -2.152344,-0.08008 z" />
  <circle
     cx="16.927673"
     cy="7.3589706"
     r="3.4735284"
     fill="#3a3670"
     id="circle29"
     style="stroke-width:0.423085;fill:#615e8b;fill-opacity:1" />
  <path
     d="m 19.590569,5.129734 c 0.116348,0.346929 0.181927,0.717552 0.181927,1.102982 A 3.4735283,3.4735283 0 0 1 13.63607,8.461528 c 0.461163,1.377565 1.759188,2.370969 3.291602,2.370969 A 3.4735283,3.4735283 0 0 0 20.401623,7.358969 3.462528,3.462528 0 0 0 19.590569,5.129734 Z"
     fill="#e6e6e6"
     id="path30"
     style="stroke-width:0.423085" />
  <path
     id="path31"
     style="fill:url(#radialGradient18);fill-opacity:1;stroke-width:0.423085"
     d="M 1.632812,6.820312 C 1.594072,6.947522 1.554102,7.073608 1.519531,7.205078 1.186745,8.580918 1.013523,9.973792 1,11.384766 c -0.0019,0.201567 -6.77e-4,0.403181 0.0039,0.605468 -0.03061,1.521799 0.118781,3.026121 0.447266,4.511719 0.222424,0.948351 0.554343,1.786683 0.986328,2.523438 l 3.744141,1.300781 7.660156,0.361328 1.734375,-3.232422 C 12.710562,8.778283 4.025225,7.117485 1.632806,6.820312 Z" />
  <path
     id="path32"
     style="fill:#ac776d;fill-opacity:1;stroke-width:0.423085"
     d="m 21.800781,11.572266 c -2.267303,-0.02055 -7.341837,0.768638 -11.660156,7.404296 l 7.351563,2.056641 2.697265,-0.302734 c 0.721751,-0.646954 1.304451,-1.444064 1.744141,-2.396485 0.458599,-1.062599 0.755578,-2.169413 0.892578,-3.320312 0.124266,-1.111345 0.177186,-2.225182 0.167969,-3.339844 -0.01632,-0.0035 -0.45179,-0.09484 -1.19336,-0.101562 z" />
  <path
     id="path33"
     style="fill:#b8ad99;fill-opacity:1;stroke-width:0.423085"
     d="m 21.800781,15.046875 c -2.267303,-0.02055 -7.341837,0.768638 -11.660156,7.404297 l 9.544922,-1.308594 c 0.959625,-0.707914 1.710307,-1.643785 2.248047,-2.808594 0.444448,-1.029809 0.734557,-2.102096 0.876953,-3.214843 -0.194736,-0.02904 -0.530412,-0.06792 -1.009766,-0.07227 z" />
  <path
     id="path34"
     style="fill:#574a5c;fill-opacity:1;stroke-width:0.423085"
     d="M 19.773438,16.710938 C 14.066857,16.776748 9.160156,19.03125 9.160156,19.03125 l -0.05469,2.232422 h 10.408203 c 1.042365,-0.721101 1.850544,-1.696349 2.419922,-2.929688 0.2089,-0.484033 0.381245,-0.978102 0.523437,-1.480468 -0.903276,-0.110353 -1.803302,-0.152731 -2.683593,-0.142578 z" />
  <path
     id="path35"
     style="fill:#312b33;fill-opacity:1;stroke-width:0.423085"
     d="m 1.007812,12.810547 c 0.02788,1.242559 0.173997,2.473189 0.44336,3.691406 0.773998,3.300097 2.817319,5.318938 6.128906,6.056641 1.799158,0.370211 3.617227,0.507809 5.453125,0.412109 1.632198,-0.02759 3.218974,-0.302328 4.763672,-0.824219 1.538024,-0.564234 2.73317,-1.500122 3.583984,-2.808593 C 16.0298,21.117527 11.714844,17.791016 11.714844,17.791016 4.728778,12.972806 2.835728,13.034935 1.007812,12.810547 Z" />
  <circle
     cx="4.1830826"
     cy="5.8460159"
     r="0.71628296"
     fill="#e5e5e5"
     id="circle35"
     style="stroke-width:0.423085" />
  <circle
     cx="5.4959106"
     cy="7.6136665"
     r="0.46031657"
     fill="#e5e5e5"
     id="circle36"
     style="stroke-width:0.423085" />
  <circle
     cx="10.706627"
     cy="9.9296341"
     r="0.46031657"
     fill="#e5e5e5"
     id="circle37"
     style="stroke-width:0.423085" />
  <circle
     cx="6.7059326"
     cy="4.2602921"
     r="0.37527645"
     fill="#e5e5e5"
     id="circle38"
     style="stroke-width:0.423085" />
  <circle
     cx="4.8715434"
     cy="3.5809906"
     r="0.27288985"
     fill="#e5e5e5"
     id="circle39"
     style="stroke-width:0.423085" />
  <circle
     cx="6.4994736"
     cy="6.9096527"
     r="0.27288985"
     fill="#e5e5e5"
     id="circle40"
     style="stroke-width:0.423085" />
  <circle
     cx="7.6570282"
     cy="7.4884338"
     r="0.27288985"
     fill="#e5e5e5"
     id="circle41"
     style="stroke-width:0.423085" />
  <circle
     cx="7.0782471"
     cy="11.541164"
     r="0.27288985"
     fill="#e5e5e5"
     id="circle42"
     style="stroke-width:0.423085" />
</svg>
