<?xml version="1.0" encoding="UTF-8" standalone="no"?>
<svg
   width="24"
   height="24"
   viewBox="0 0 6.349875 6.349875"
   version="1.1"
   id="svg4"
   sodipodi:docname="stoken-gui.svg"
   inkscape:version="1.3 (0e150ed6c4, 2023-07-21)"
   xmlns:inkscape="http://www.inkscape.org/namespaces/inkscape"
   xmlns:sodipodi="http://sodipodi.sourceforge.net/DTD/sodipodi-0.dtd"
   xmlns="http://www.w3.org/2000/svg"
   xmlns:svg="http://www.w3.org/2000/svg">
  <defs
     id="defs4">
    <radialGradient
       fx="0"
       fy="0"
       cx="0"
       cy="0"
       r="1"
       gradientUnits="userSpaceOnUse"
       gradientTransform="matrix(0,5.8207184,-5.8207184,0,3.174815,0.2645734)"
       spreadMethod="pad"
       id="radialGradient3666-6">
      <stop
         style="stop-color:#c9dcf1;stop-opacity:1;"
         offset="0"
         id="stop3662-7" />
      <stop
         style="stop-color:#5494de;stop-opacity:1;"
         offset="1"
         id="stop3664-5" />
    </radialGradient>
  </defs>
  <sodipodi:namedview
     id="namedview4"
     pagecolor="#ffffff"
     bordercolor="#000000"
     borderopacity="0.25"
     inkscape:showpageshadow="2"
     inkscape:pageopacity="0.0"
     inkscape:pagecheckerboard="0"
     inkscape:deskcolor="#d1d1d1"
     inkscape:zoom="13.700194"
     inkscape:cx="2.5912042"
     inkscape:cy="19.379288"
     inkscape:window-width="2560"
     inkscape:window-height="998"
     inkscape:window-x="0"
     inkscape:window-y="0"
     inkscape:window-maximized="1"
     inkscape:current-layer="svg4" />
  <path
     d="m 2.538065,0.2949075 c 0.031749,0 0.062088,-0.00423 0.091015,-0.012347 0.3802869,-0.025047 0.7605737,-0.023636 1.1398026,0.00282 0.3443042,0.027516 0.6776726,0.1019509 1.0004579,0.2243623 0.5358586,0.2204818 0.9023876,0.6035909 1.1009976,1.1479163 0.111476,0.3280768 0.178855,0.6656785 0.199669,1.0113939 0.02751,0.4356718 0.01799,0.8695797 -0.03034,1.3038407 -0.03704,0.3044419 -0.115708,0.5965361 -0.237062,0.877694 C 5.5778911,5.3384698 5.2127741,5.6746607 4.7086643,5.8591598 4.3005084,5.9970926 3.8803583,6.0701167 3.4475085,6.0771716 2.9624487,6.1032828 2.4816221,6.0658821 2.0050286,5.9681657 1.129804,5.7737886 0.588301,5.2393416 0.384399,4.3655277 0.297619,3.9728937 0.257402,3.5746158 0.265868,3.1721047 0.256368,2.7448988 0.301498,2.3219264 0.402391,1.9056569 0.617228,1.0900507 1.135448,0.5841774 1.9566991,0.3887423 2.1482536,0.3418243 2.3426304,0.3100743 2.5380654,0.2949053 Z"
     style="fill:url(#radialGradient3666-6);fill-rule:evenodd;stroke:none;stroke-width:0.352683;stroke-dasharray:none"
     id="path3668" />
  <rect
     x="0.73335451"
     y="2.8658986"
     width="2.0707958"
     height="0.65374041"
     ry="0.32707617"
     fill="#477dc1"
     fill-rule="evenodd"
     style="stroke-width:0.411935;paint-order:stroke fill markers"
     id="rect1" />
  <path
     id="path7"
     style="fill:#477dc1;fill-opacity:1;fill-rule:evenodd;stroke:none;stroke-width:0.352683;stroke-dasharray:none"
     d="m 3.861187,1.6665321 a 1.9616331,1.9616331 0 0 0 -0.730174,1.5264918 1.9616331,1.9616331 0 0 0 0.730174,1.525975 h 1.9931205 c 0.09142,-0.2405233 0.154209,-0.4888806 0.185516,-0.746193 0.04833,-0.4342606 0.05748,-0.8680993 0.02997,-1.3037707 -0.02063,-0.3426664 -0.08716,-0.6771533 -0.196882,-1.0025031 z" />
  <path
     d="M 3.9699255,1.6667566 A 1.9616331,1.9616331 0 0 0 3.2399772,3.1929747 1.9616331,1.9616331 0 0 0 3.9699255,4.7187809 H 5.1974909 A 2.39746,2.39746 0 0 0 5.7470118,3.1929747 2.39746,2.39746 0 0 0 5.1962551,1.6667566 H 3.9703374 Z"
     opacity="0.1"
     style="stroke-width:0.411935;paint-order:stroke markers fill"
     id="path2" />
  <circle
     cx="3.2399774"
     cy="3.1925626"
     r="2.1799583"
     fill="#5da3ee"
     style="stroke-width:0.411935;paint-order:stroke markers fill"
     id="circle2" />
  <path
     d="M 3.2399772,1.4488432 A 1.7437196,1.7437196 0 0 0 2.1302251,1.8492437 V 4.5367058 A 1.7437196,1.7437196 0 0 0 3.2399772,4.9362824 1.7437196,1.7437196 0 0 0 4.9836968,3.1929747 1.7437196,1.7437196 0 0 0 3.2403891,1.4488432 Z"
     fill="#3e74b7"
     style="stroke-width:0.411935;paint-order:stroke markers fill"
     id="path3" />
  <circle
     cx="3.2399774"
     cy="3.1925626"
     r="1.5258062"
     fill="#3e74b7"
     style="stroke-width:0.411935;paint-order:stroke markers fill"
     id="circle3" />
  <path
     d="M 3.7367704,2.3958811 V 2.6207974 Q 3.6057752,2.5581834 3.4896096,2.5272884 3.373444,2.4963934 3.2646933,2.4963934 q -0.1882542,0 -0.290826,0.072912 -0.1017478,0.072912 -0.1017478,0.2076151 0,0.1128701 0.067557,0.1713648 0.068381,0.056847 0.2578711,0.092273 l 0.138822,0.028835 q 0.2578711,0.048608 0.3802157,0.1730126 0.1231685,0.1235804 0.1231685,0.3307836 0,0.2471608 -0.1668335,0.3752725 -0.1651859,0.1276997 -0.486083,0.1276997 -0.1206969,0 -0.2574592,-0.027188 -0.1359385,-0.0276 -0.2817633,-0.081151 V 3.7305495 q 0.1400578,0.07868 0.2747604,0.1186372 0.1347027,0.039958 0.264874,0.039958 0.1973168,0 0.3044198,-0.077444 0.107103,-0.077444 0.107103,-0.221209 0,-0.1256401 -0.077444,-0.1964928 -0.07662,-0.070441 -0.2521041,-0.1058673 l -0.1400578,-0.0276 Q 2.871295,3.2094516 2.7559533,3.0998771 2.6406116,2.9903025 2.6406116,2.7950454 q 0,-0.2257402 0.1585948,-0.3554997 0.1598307,-0.1301713 0.4391224,-0.1301713 0.119873,0 0.2442773,0.021421 0.1244043,0.021832 0.2541643,0.065086 z"
     fill="#ffffff"
     aria-label="S"
     id="path4"
     style="stroke-width:0.411935" />
</svg>
