<?xml version="1.0" encoding="UTF-8" standalone="no"?>
<svg
   width="24"
   height="24"
   version="1.1"
   id="svg13"
   sodipodi:docname="strawberry.svg"
   inkscape:version="1.3 (0e150ed6c4, 2023-07-21)"
   xmlns:inkscape="http://www.inkscape.org/namespaces/inkscape"
   xmlns:sodipodi="http://sodipodi.sourceforge.net/DTD/sodipodi-0.dtd"
   xmlns="http://www.w3.org/2000/svg"
   xmlns:svg="http://www.w3.org/2000/svg">
  <defs
     id="defs13">
    <radialGradient
       fx="0"
       fy="0"
       cx="0"
       cy="0"
       r="1"
       gradientUnits="userSpaceOnUse"
       gradientTransform="matrix(0,16.5,-16.5,0,8.999651,0.749985)"
       spreadMethod="pad"
       id="radialGradient868-3">
      <stop
         style="stop-opacity:1;stop-color:#fafafa"
         offset="0"
         id="stop864-6" />
      <stop
         style="stop-opacity:1;stop-color:#c0c0c0"
         offset="1"
         id="stop866-7" />
    </radialGradient>
  </defs>
  <sodipodi:namedview
     id="namedview13"
     pagecolor="#ffffff"
     bordercolor="#000000"
     borderopacity="0.25"
     inkscape:showpageshadow="2"
     inkscape:pageopacity="0.0"
     inkscape:pagecheckerboard="0"
     inkscape:deskcolor="#d1d1d1"
     inkscape:zoom="8.9603687"
     inkscape:cx="64.729479"
     inkscape:cy="29.518874"
     inkscape:window-width="2560"
     inkscape:window-height="998"
     inkscape:window-x="0"
     inkscape:window-y="0"
     inkscape:window-maximized="1"
     inkscape:current-layer="svg13" />
  <g
     id="g854"
     transform="matrix(1.3333333,0,0,1.3333333,-4.5244194e-4,-3.5228353e-5)">
    <g
       id="g856">
      <g
         id="g862">
        <path
           d="m 7.195,0.836 c 0.09,0 0.176,-0.012 0.258,-0.035 1.078,-0.071 2.156,-0.067 3.231,0.008 0.976,0.078 1.921,0.289 2.836,0.636 1.519,0.625 2.558,1.711 3.121,3.254 0.316,0.93 0.507,1.887 0.566,2.867 0.078,1.235 0.051,2.465 -0.086,3.696 -0.105,0.863 -0.328,1.691 -0.672,2.488 -0.637,1.383 -1.672,2.336 -3.101,2.859 C 12.191,17 11,17.207 9.773,17.227 8.398,17.301 7.035,17.195 5.684,16.918 3.203,16.367 1.668,14.852 1.09,12.375 0.844,11.262 0.73,10.133 0.754,8.992 0.727,7.781 0.855,6.582 1.141,5.402 1.75,3.09 3.219,1.656 5.547,1.102 6.09,0.969 6.641,0.879 7.195,0.836 Z"
           style="fill:url(#radialGradient868-3);fill-rule:evenodd;stroke:none"
           id="path870" />
      </g>
    </g>
  </g>
  <g
     id="g25"
     transform="matrix(0.38186887,0,0,0.38186887,-0.21965109,0.00448684)">
    <path
       d="m 24.9562,20.2606 c -3.902044,0 -7.0434,2.3478 -7.0434,8.2173 0,7.0434 7.0434,19.9563 14.0868,19.9563 7.0434,0 14.0868,-12.9129 14.0868,-19.9563 0,-5.8695 -3.141356,-8.2173 -7.0434,-8.2173 z"
       fill="#f23d35"
       id="path13"
       style="stroke-width:1.1739" />
    <path
       d="m 31.9996,14.3911 c 0,0 -2.3478,1.1739 -2.3478,4.6956 -1.1739,-2.3478 -3.568656,-2.3478 -5.8695,-2.3478 0,2.3478 1.1739,3.5217 3.5217,4.6956 -2.3478,1.1739 -3.5217,2.3478 -3.5217,4.6956 2.300844,0 4.6956,0 5.8695,-2.3478 0,3.5217 2.3478,4.6956 2.3478,4.6956 0,0 2.3478,-1.1739 2.3478,-4.6956 1.1739,2.3478 3.568656,2.3478 5.8695,2.3478 0,-2.3478 -1.1739,-3.5217 -3.5217,-4.6956 2.3478,-1.1739 3.5217,-2.3478 3.5217,-4.6956 -2.300844,0 -4.6956,0 -5.8695,2.3478 0,-3.5217 -2.3478,-4.6956 -2.3478,-4.6956 z"
       fill="#78b540"
       style="stroke-width:1.1739;paint-order:normal"
       id="path14" />
    <circle
       cx="31.999603"
       cy="43.738602"
       r="1.1739"
       fill="#eeebcd"
       style="stroke-width:1.1739;paint-order:normal"
       id="circle14" />
    <circle
       cx="27.304001"
       cy="39.042999"
       r="1.1739"
       fill="#eeebcd"
       style="stroke-width:1.1739;paint-order:normal"
       id="circle15" />
    <circle
       cx="36.695198"
       cy="39.042999"
       r="1.1739"
       fill="#eeebcd"
       style="stroke-width:1.1739;paint-order:normal"
       id="circle16" />
    <circle
       cx="31.999603"
       cy="36.695202"
       r="1.1739"
       fill="#eeebcd"
       style="stroke-width:1.1739;paint-order:normal"
       id="circle17" />
    <circle
       cx="39.042999"
       cy="34.347401"
       r="1.1739"
       fill="#eeebcd"
       style="stroke-width:1.1739;paint-order:normal"
       id="circle18" />
    <circle
       cx="24.9562"
       cy="34.347401"
       r="1.1739"
       fill="#eeebcd"
       style="stroke-width:1.1739;paint-order:normal"
       id="circle19" />
    <circle
       cx="22.608398"
       cy="29.6518"
       r="1.1739"
       fill="#eeebcd"
       style="stroke-width:1.1739;paint-order:normal"
       id="circle20" />
    <circle
       cx="41.3908"
       cy="29.6518"
       r="1.1739"
       fill="#eeebcd"
       style="stroke-width:1.1739;paint-order:normal"
       id="circle21" />
    <circle
       cx="28.477898"
       cy="30.825701"
       r="1.1739"
       fill="#eeebcd"
       style="stroke-width:1.1739;paint-order:normal"
       id="circle22" />
    <circle
       cx="35.521301"
       cy="30.825701"
       r="1.1739"
       fill="#eeebcd"
       style="stroke-width:1.1739;paint-order:normal"
       id="circle23" />
    <circle
       cx="31.999603"
       cy="21.4345"
       r="2.3478"
       fill="#2c9148"
       style="stroke-width:1.1739;paint-order:normal"
       id="circle24" />
    <circle
       cx="31.999603"
       cy="21.4345"
       r="1.1739"
       fill="#5ccd7c"
       style="stroke-width:1.1739;paint-order:normal"
       id="circle25" />
  </g>
</svg>
