<?xml version="1.0" encoding="UTF-8" standalone="no"?>
<svg
   width="24"
   height="24"
   viewBox="0 0 6.349875 6.349875"
   version="1.1"
   id="svg12172"
   sodipodi:docname="stremio.svg"
   xml:space="preserve"
   inkscape:version="1.2.2 (b0a8486541, 2022-12-01)"
   inkscape:export-filename="stremio.pdf"
   inkscape:export-xdpi="96"
   inkscape:export-ydpi="96"
   xmlns:inkscape="http://www.inkscape.org/namespaces/inkscape"
   xmlns:sodipodi="http://sodipodi.sourceforge.net/DTD/sodipodi-0.dtd"
   xmlns="http://www.w3.org/2000/svg"
   xmlns:svg="http://www.w3.org/2000/svg"><defs
     id="defs12176"><radialGradient
       id="paint0_radial_30_272"
       cx="0"
       cy="0"
       r="1"
       gradientUnits="userSpaceOnUse"
       gradientTransform="matrix(0,2.9103408,-2.9103408,0,3.174939,0.26457773)"><stop
         stop-color="#80D2FF"
         id="stop12307"
         offset="0"
         style="stop-color:#b280d1;stop-opacity:1;" /><stop
         offset="1"
         stop-color="#2991C9"
         id="stop12309"
         style="stop-color:#8d49bc;stop-opacity:1;" /></radialGradient><radialGradient
       fx="0"
       fy="0"
       cx="0"
       cy="0"
       r="1"
       gradientUnits="userSpaceOnUse"
       gradientTransform="matrix(0,8.249947,-8.249947,0,9.000004,0.749999)"
       spreadMethod="pad"
       id="radialGradient13384"><stop
         style="stop-opacity:1;stop-color:#b280d1"
         offset="0"
         id="stop13380" /><stop
         style="stop-opacity:1;stop-color:#8d49bc"
         offset="1"
         id="stop13382" /></radialGradient><clipPath
       clipPathUnits="userSpaceOnUse"
       id="clipPath13396"><path
         d="M 0,0 H 19 V 19 H 0 Z"
         id="path13394" /></clipPath><radialGradient
       fx="0"
       fy="0"
       cx="0"
       cy="0"
       r="1"
       gradientUnits="userSpaceOnUse"
       gradientTransform="matrix(0,8.249947,-8.249947,0,9.000004,0.749999)"
       spreadMethod="pad"
       id="radialGradient13384-2"><stop
         style="stop-opacity:1;stop-color:#b280d1"
         offset="0"
         id="stop13380-9" /><stop
         style="stop-opacity:1;stop-color:#8d49bc"
         offset="1"
         id="stop13382-1" /></radialGradient><clipPath
       clipPathUnits="userSpaceOnUse"
       id="clipPath13396-2"><path
         d="M 0,0 H 19 V 19 H 0 Z"
         id="path13394-7" /></clipPath></defs><sodipodi:namedview
     id="namedview12174"
     pagecolor="#ffffff"
     bordercolor="#000000"
     borderopacity="0.25"
     inkscape:showpageshadow="2"
     inkscape:pageopacity="0.0"
     inkscape:pagecheckerboard="0"
     inkscape:deskcolor="#d1d1d1"
     showgrid="false"
     inkscape:zoom="8.2395833"
     inkscape:cx="18.326169"
     inkscape:cy="11.469027"
     inkscape:window-width="2560"
     inkscape:window-height="1000"
     inkscape:window-x="1680"
     inkscape:window-y="0"
     inkscape:window-maximized="1"
     inkscape:current-layer="svg12172" /><g
     id="g13368"
     transform="matrix(0.35277082,0,0,0.35277082,-1.1961624e-4,-9.2306512e-6)"><g
       id="g13370"><g
         id="g13372"><g
           id="g13378"><path
             d="m 7.195,0.836 c 0.09,0 0.176,-0.012 0.258,-0.035 1.078,-0.071 2.156,-0.067 3.231,0.008 0.976,0.078 1.921,0.289 2.836,0.636 1.519,0.625 2.558,1.711 3.121,3.254 0.316,0.93 0.507,1.887 0.566,2.867 0.078,1.235 0.051,2.465 -0.086,3.696 -0.105,0.863 -0.328,1.691 -0.672,2.488 -0.637,1.383 -1.672,2.336 -3.101,2.859 C 12.191,17 11,17.207 9.773,17.227 8.398,17.301 7.035,17.195 5.684,16.918 3.203,16.367 1.668,14.852 1.09,12.375 0.844,11.262 0.73,10.133 0.754,8.992 0.727,7.777 0.855,6.582 1.141,5.402 1.75,3.09 3.219,1.656 5.547,1.102 6.09,0.969 6.641,0.879 7.195,0.836 Z"
             style="fill:url(#radialGradient13384-2);fill-rule:evenodd;stroke:none"
             id="path13386" /></g></g></g><path
       d="m 0.754,9 c 0.008,1.004 0.121,2.395 0.336,3.375 0.582,2.477 2.113,3.992 4.598,4.543 1.347,0.277 2.71,0.383 4.089,0.309 1.223,-0.02 2.414,-0.227 3.575,-0.618 1.429,-0.523 2.46,-1.476 3.101,-2.859 0.344,-0.797 0.567,-1.629 0.668,-2.492 C 17.191,10.641 17.23,9.621 17.246,9 Z"
       style="fill:#3a497d;fill-opacity:1;fill-rule:nonzero;stroke:none"
       id="path13388" /><g
       id="g13390"><g
         id="g13392" /><g
         id="g13404"><g
           clip-path="url(#clipPath13396-2)"
           opacity="0.0878553"
           id="g13402"><g
             id="g13400"><path
               d="M 9,2.25 C 8.645,2.25 8.293,2.383 8.027,2.648 L 2.645,8.027 C 2.383,8.293 2.25,8.645 2.25,9 c 0,0.355 0.133,0.707 0.395,0.973 l 5.382,5.379 c 0.528,0.531 1.414,0.531 1.946,0 L 15.352,9.973 C 15.617,9.707 15.75,9.355 15.75,9 15.75,8.645 15.617,8.293 15.352,8.027 L 9.973,2.648 C 9.707,2.383 9.355,2.25 9,2.25 Z"
               style="fill:#000000;fill-opacity:1;fill-rule:nonzero;stroke:none"
               id="path13398" /></g></g></g></g><path
       d="M 11.328,9 7.836,11.559 V 6.441 Z"
       style="fill:#ffffff;fill-opacity:1;fill-rule:nonzero;stroke:none"
       id="path13406" /></g></svg>
