<?xml version="1.0" encoding="UTF-8" standalone="no"?>
<svg
   width="24"
   height="24"
   version="1.1"
   id="svg2"
   sodipodi:docname="subtitlecomposer.svg"
   inkscape:version="1.3 (0e150ed6c4, 2023-07-21)"
   xmlns:inkscape="http://www.inkscape.org/namespaces/inkscape"
   xmlns:sodipodi="http://sodipodi.sourceforge.net/DTD/sodipodi-0.dtd"
   xmlns="http://www.w3.org/2000/svg"
   xmlns:svg="http://www.w3.org/2000/svg">
  <sodipodi:namedview
     id="namedview2"
     pagecolor="#ffffff"
     bordercolor="#000000"
     borderopacity="0.25"
     inkscape:showpageshadow="2"
     inkscape:pageopacity="0.0"
     inkscape:pagecheckerboard="0"
     inkscape:deskcolor="#d1d1d1"
     inkscape:zoom="4.4801844"
     inkscape:cx="-33.034355"
     inkscape:cy="33.369162"
     inkscape:window-width="2560"
     inkscape:window-height="998"
     inkscape:window-x="0"
     inkscape:window-y="0"
     inkscape:window-maximized="1"
     inkscape:current-layer="svg2" />
  <defs
     id="defs1">
    <style
       id="current-color-scheme"
       type="text/css">.ColorScheme-Text{color:#f2f2f2}</style>
    <radialGradient
       id="paint0_radial_1_33"
       cx="0"
       cy="0"
       r="1"
       gradientUnits="userSpaceOnUse"
       gradientTransform="matrix(0,11,-11,0,12,1)">
      <stop
         stop-color="#6EBBF7"
         id="stop6" />
      <stop
         offset="1"
         stop-color="#2196F3"
         id="stop7" />
    </radialGradient>
  </defs>
  <path
     fill-rule="evenodd"
     clip-rule="evenodd"
     d="M 9.59604,1.11359 C 9.71588,1.11486 9.83043,1.0996 9.93969,1.06779 11.3755,0.973736 12.8111,0.977551 14.2467,1.07924 c 1.3017,0.10142 2.5618,0.38384 3.7802,0.84726 2.0256,0.83394 3.4117,2.2804 4.1581,4.33936 0.4269,1.23963 0.6789,2.51435 0.7561,3.82414 0.1067,1.6447 0.0685,3.2858 -0.1146,4.9233 -0.137,1.1509 -0.4349,2.2577 -0.8935,3.3203 -0.8506,1.8425 -2.229,3.1134 -4.1352,3.8127 -1.5447,0.5219 -3.1331,0.7967 -4.7653,0.8243 C 11.1966,23.0661 9.37913,22.9287 7.57997,22.5585 4.26839,21.8208 2.22559,19.8018 1.45158,16.5017 1.12311,15.0161 0.974199,13.5124 1.00483,11.9906 0.968176,10.3724 1.14,8.77709 1.52031,7.20471 2.33171,4.11908 4.2905,2.20701 7.39669,1.46852 8.12048,1.29157 8.8536,1.17326 9.59604,1.11359 Z"
     fill="url(#paint0_radial_1_33)"
     id="path1-7"
     style="fill:url(#paint0_radial_1_33)" />
  <g
     transform="matrix(0.24074074,0,0,0.24074074,4.5370371,4.0555556)"
     stroke-width="1.038"
     id="g4">
    <rect
       x="4"
       y="6"
       width="54"
       height="54"
       rx="1.35"
       ry="1.35"
       color="#000000"
       fill="#0c96df"
       stroke-linejoin="round"
       stroke-width="0.519"
       style="isolation:auto;mix-blend-mode:normal"
       id="rect3" />
    <path
       d="M 5.35,6 C 4.602,6 4,6.602 4,7.35 v 51.3 C 4,59.398 4.602,60 5.35,60 H 12.1 V 49.2 H 49.9 V 60 h 6.75 C 57.398,60 58,59.398 58,58.65 V 7.35 C 58,6.602 57.398,6 56.65,6 H 55.3 V 8.7 H 52.6 V 6 H 49.9 V 16.8 H 12.1 V 6 H 9.4 V 8.7 H 6.7 V 6 Z m 1.35,5.4 h 2.7 v 2.7 H 6.7 Z m 45.9,0 h 2.7 v 2.7 H 52.6 Z M 6.7,16.8 h 2.7 v 2.7 H 6.7 Z m 45.9,0 h 2.7 v 2.7 H 52.6 Z M 6.7,22.2 h 2.7 v 2.7 H 6.7 Z m 5.4,-2.7 h 37.8 v 27 H 12.1 V 22.2 Z m 40.5,2.7 h 2.7 v 2.7 H 52.6 Z M 6.7,27.6 h 2.7 v 2.7 H 6.7 Z m 45.9,0 h 2.7 v 2.7 H 52.6 Z M 6.7,33 h 2.7 v 2.7 H 6.7 Z m 45.9,0 h 2.7 v 2.7 H 52.6 Z M 6.7,38.4 h 2.7 v 2.7 H 6.7 Z m 45.9,0 h 2.7 v 2.7 H 52.6 Z M 6.7,43.8 h 2.7 v 2.7 H 6.7 Z m 45.9,0 h 2.7 v 2.7 H 52.6 Z M 6.7,49.2 h 2.7 v 2.7 H 6.7 Z m 45.9,0 h 2.7 v 2.7 H 52.6 Z M 6.7,54.6 h 2.7 v 2.7 H 6.7 Z m 45.9,0 h 2.7 v 2.7 h -2.7 z"
       opacity="0.5"
       stroke-linejoin="round"
       stroke-width="0.519"
       id="path3" />
    <path
       d="M 36.4,19.5 20.211,35.689 h -0.005 v 5.413 h 5.413 v -0.005 l 16.19,-16.189 -0.004,-0.003 0.003,-0.002 -5.4,-5.4 -0.003,0.002 z m -2.697,4.606 3.496,3.497 -10.244,10.244 V 35.7 h -2.7 V 33.554 Z M 22.906,34.903 v 2.147 h 2.7 v 2.146 l -0.554,0.554 h -2.146 l -1.35,-1.35 v -2.147 z m 6.75,4.847 -1.35,1.35 h 13.5 v -1.35 z"
       color="#000000"
       fill="#ffffff"
       fill-rule="evenodd"
       style="isolation:auto;mix-blend-mode:normal"
       id="path4" />
    <rect
       x="22.9"
       y="42.450001"
       width="16.200001"
       height="1.35"
       rx="0"
       ry="1.35"
       color="#000000"
       fill="#ffffff"
       fill-rule="evenodd"
       stroke-width="1.078"
       style="isolation:auto;mix-blend-mode:normal"
       id="rect4" />
  </g>
</svg>
