<?xml version="1.0" encoding="UTF-8" standalone="no"?>
<svg
   width="24"
   height="24"
   viewBox="0 0 6.349875 6.349875"
   version="1.1"
   id="svg4"
   sodipodi:docname="susers.svg"
   inkscape:version="1.3 (0e150ed6c4, 2023-07-21)"
   xmlns:inkscape="http://www.inkscape.org/namespaces/inkscape"
   xmlns:sodipodi="http://sodipodi.sourceforge.net/DTD/sodipodi-0.dtd"
   xmlns="http://www.w3.org/2000/svg"
   xmlns:svg="http://www.w3.org/2000/svg">
  <defs
     id="defs4">
    <radialGradient
       fx="0"
       fy="0"
       cx="0"
       cy="0"
       r="1"
       gradientUnits="userSpaceOnUse"
       gradientTransform="matrix(0,5.8207184,-5.8207184,0,3.174815,0.2645734)"
       spreadMethod="pad"
       id="radialGradient3666-6">
      <stop
         style="stop-color:#f4dc71;stop-opacity:1;"
         offset="0"
         id="stop3662-7" />
      <stop
         style="stop-color:#cca700;stop-opacity:1;"
         offset="1"
         id="stop3664-5" />
    </radialGradient>
  </defs>
  <sodipodi:namedview
     id="namedview4"
     pagecolor="#ffffff"
     bordercolor="#000000"
     borderopacity="0.25"
     inkscape:showpageshadow="2"
     inkscape:pageopacity="0.0"
     inkscape:pagecheckerboard="0"
     inkscape:deskcolor="#d1d1d1"
     inkscape:zoom="6.3359375"
     inkscape:cx="9.1541307"
     inkscape:cy="24.22688"
     inkscape:window-width="2560"
     inkscape:window-height="998"
     inkscape:window-x="0"
     inkscape:window-y="0"
     inkscape:window-maximized="1"
     inkscape:current-layer="svg4" />
  <path
     d="m 2.538065,0.2949075 c 0.031749,0 0.062088,-0.00423 0.091015,-0.012347 0.3802869,-0.025047 0.7605737,-0.023636 1.1398026,0.00282 0.3443042,0.027516 0.6776726,0.1019509 1.0004579,0.2243623 0.5358586,0.2204818 0.9023876,0.6035909 1.1009976,1.1479163 0.111476,0.3280768 0.178855,0.6656785 0.199669,1.0113939 0.02751,0.4356718 0.01799,0.8695797 -0.03034,1.3038407 -0.03704,0.3044419 -0.115708,0.5965361 -0.237062,0.877694 C 5.5778911,5.3384698 5.2127741,5.6746607 4.7086643,5.8591598 4.3005084,5.9970926 3.8803583,6.0701167 3.4475085,6.0771716 2.9624487,6.1032828 2.4816221,6.0658821 2.0050286,5.9681657 1.129804,5.7737886 0.588301,5.2393416 0.384399,4.3655277 0.297619,3.9728937 0.257402,3.5746158 0.265868,3.1721047 0.256368,2.7448988 0.301498,2.3219264 0.402391,1.9056569 0.617228,1.0900507 1.135448,0.5841774 1.9566991,0.3887423 2.1482536,0.3418243 2.3426304,0.3100743 2.5380654,0.2949053 Z"
     style="fill:url(#radialGradient3666-6);fill-rule:evenodd;stroke:none;stroke-width:0.352683;stroke-dasharray:none"
     id="path3668" />
  <g
     id="g9"
     transform="matrix(0.29628009,0,0,0.29628009,6.9377685,0.6684083)"
     style="stroke-width:3.37518">
    <g
       transform="translate(-21.166249,-280.07)"
       paint-order="stroke markers fill"
       id="g8"
       style="stroke-width:3.37518">
      <circle
         cx="8.4659996"
         cy="288.53"
         r="7.1440001"
         fill="#f4d035"
         id="circle4"
         style="stroke-width:3.37518" />
      <path
         d="m 8.467,282.713 a 5.82,5.82 0 0 0 -5.821,5.82 5.82,5.82 0 0 0 2.131,4.498 h 0.915 a 5.292,5.292 0 0 0 2.775,0.794 5.292,5.292 0 0 0 2.78,-0.794 h 0.908 a 5.82,5.82 0 0 0 2.132,-4.498 5.82,5.82 0 0 0 -5.82,-5.82 z"
         opacity="0.15"
         id="path5"
         style="stroke-width:3.37518" />
      <path
         d="m 9.743,289.475 a 1.587,1.587 0 0 1 -1.276,0.646 1.587,1.587 0 0 1 -1.276,-0.645 3.704,2.381 0 0 0 -2.429,2.232 h 7.409 a 3.704,2.381 0 0 0 -2.428,-2.233 z"
         fill="#ffffff"
         id="path6"
         style="stroke-width:3.37518" />
      <g
         transform="translate(0.265,1.323)"
         fill="#ffffff"
         id="g7"
         style="stroke-width:3.37518">
        <circle
           cx="8.2019997"
           cy="284.82999"
           r="1.587"
           id="circle6"
           style="stroke-width:3.37518" />
        <path
           d="m 6.615,284.83 a 1.587,2.646 0 0 0 1.587,2.645 1.587,2.646 0 0 0 1.588,-2.646 z"
           id="path7"
           style="stroke-width:3.37518" />
      </g>
    </g>
  </g>
</svg>
