<?xml version="1.0" encoding="UTF-8" standalone="no"?>
<svg
   width="121.99982"
   height="122.00023"
   viewBox="0 0 121.99982 122.00023"
   fill="none"
   version="1.1"
   id="svg8571"
   sodipodi:docname="Template-B.svg"
   xml:space="preserve"
   xmlns:inkscape="http://www.inkscape.org/namespaces/inkscape"
   xmlns:sodipodi="http://sodipodi.sourceforge.net/DTD/sodipodi-0.dtd"
   xmlns:xlink="http://www.w3.org/1999/xlink"
   xmlns="http://www.w3.org/2000/svg"
   xmlns:svg="http://www.w3.org/2000/svg"><sodipodi:namedview
     id="namedview8573"
     pagecolor="#ffffff"
     bordercolor="#000000"
     borderopacity="0.25"
     inkscape:showpageshadow="2"
     inkscape:pageopacity="0.0"
     inkscape:pagecheckerboard="0"
     inkscape:deskcolor="#d1d1d1"
     showgrid="false" /><defs
     id="defs8569"><linearGradient
       inkscape:collect="always"
       id="linearGradient36581"><stop
         style="stop-color:#1ca4d4;stop-opacity:1;"
         offset="0"
         id="stop36577" /><stop
         style="stop-color:#afdde9;stop-opacity:1"
         offset="1"
         id="stop36579" /></linearGradient><linearGradient
       id="linearGradient29319"
       inkscape:swatch="solid"><stop
         style="stop-color:#d2d8db;stop-opacity:1;"
         offset="0"
         id="stop29317" /></linearGradient><linearGradient
       id="fffff"
       inkscape:swatch="solid"><stop
         style="stop-color:#ffffff;stop-opacity:1;"
         offset="0"
         id="stop28389" /></linearGradient><linearGradient
       inkscape:collect="always"
       xlink:href="#linearGradient36581"
       id="linearGradient36583"
       x1="43.598209"
       y1="77.536057"
       x2="44.282352"
       y2="-15.279433"
       gradientUnits="userSpaceOnUse" /><linearGradient
       inkscape:collect="always"
       xlink:href="#linearGradient36581"
       id="linearGradient36667"
       gradientUnits="userSpaceOnUse"
       x1="43.598209"
       y1="77.536057"
       x2="44.282352"
       y2="-15.279433" /><linearGradient
       inkscape:collect="always"
       xlink:href="#linearGradient36581"
       id="linearGradient36669"
       gradientUnits="userSpaceOnUse"
       x1="43.598209"
       y1="77.536057"
       x2="44.282352"
       y2="-15.279433" /><linearGradient
       inkscape:collect="always"
       xlink:href="#linearGradient36581"
       id="linearGradient36671"
       gradientUnits="userSpaceOnUse"
       x1="43.598209"
       y1="77.536057"
       x2="44.282352"
       y2="-15.279433" /></defs><g
     id="g16605"
     transform="matrix(1.3333333,0,0,1.3333333,3.0444727e-4,5.917807e-4)"
     style="fill:url(#linearGradient36583);fill-opacity:1"
     inkscape:export-filename="../g16605.svg"
     inkscape:export-xdpi="100.72131"
     inkscape:export-ydpi="100.72131"><g
       id="g16607"
       style="fill:url(#linearGradient36671);fill-opacity:1"><g
         id="g16613"
         style="fill:url(#linearGradient36669);fill-opacity:1"><path
           d="m 35.75,0.473 c 0.5,0.004 0.977,-0.059 1.43,-0.192 5.972,-0.39 11.945,-0.375 17.914,0.047 5.414,0.422 10.656,1.598 15.722,3.524 8.426,3.468 14.192,9.484 17.293,18.05 1.778,5.157 2.825,10.457 3.145,15.903 0.445,6.843 0.285,13.668 -0.477,20.476 -0.57,4.789 -1.808,9.391 -3.715,13.813 -3.539,7.66 -9.269,12.945 -17.199,15.855 -6.425,2.172 -13.031,3.313 -19.82,3.43 C 42.41,91.773 34.848,91.203 27.367,89.664 13.594,86.594 5.098,78.199 1.879,64.473 0.512,58.293 -0.105,52.039 0.02,45.711 -0.133,38.98 0.582,32.344 2.164,25.805 5.539,12.973 13.684,5.02 26.605,1.949 29.613,1.211 32.664,0.719 35.75,0.473 Z"
           style="fill:url(#linearGradient36667);fill-opacity:1;fill-rule:evenodd;stroke:none"
           id="path16621" /></g></g></g><g
     id="g36590"
     transform="matrix(2.0186139,0,0,2.0186139,-228.094,139.87464)"><path
       d="m 143.21407,-59.224235 c -11.046,0 -20,8.955 -20,20 0,11.046 8.954,20 20,20 11.045,0 20,-8.954 20,-20 a 19.982,19.982 0 0 0 -1.231,-6.827 l 0.042,-0.032 -0.104,-0.148 a 20,20 0 0 0 -18.707,-12.993 z m 0,2 a 17.999,17.999 0 0 1 15.975,9.723 l -12.479,8.917 -21.292,1.934 a 17.888,17.888 0 0 1 -0.204,-2.574 c 0,-9.941 8.059,-18 18,-18 z m 17.077,12.379 c 0.604,1.813 0.916,3.71 0.923,5.621 a 18,18 0 0 1 -5.215,12.652 l -6.867,-10.3 z m -13.781,9.089 7.347,11.02 a 17.993,17.993 0 0 1 -10.643,3.512 18,18 0 0 1 -17.172,-12.668 z"
       fill="#ffffff"
       id="path36095" /><circle
       cx="125.21407"
       cy="-35.224236"
       r="4"
       fill="#ffffff"
       id="circle36097" /><circle
       cx="155.21407"
       cy="-25.224236"
       r="4"
       fill="#ffffff"
       id="circle36099" /><circle
       cx="161.21407"
       cy="-47.224236"
       r="4"
       fill="#ffffff"
       id="circle36101" /><circle
       cx="147.21407"
       cy="-37.224236"
       r="4"
       fill="#ffffff"
       id="circle36103" /></g></svg>
