<?xml version="1.0" encoding="UTF-8" standalone="no"?>
<svg
   width="24"
   height="24"
   viewBox="0 0 24 24"
   fill="none"
   version="1.1"
   id="svg154"
   sodipodi:docname="synfig_icon.svg"
   inkscape:version="1.3 (0e150ed6c4, 2023-07-21)"
   xml:space="preserve"
   inkscape:export-filename="../../../../svg/syncthing.svg"
   inkscape:export-xdpi="96"
   inkscape:export-ydpi="96"
   xmlns:inkscape="http://www.inkscape.org/namespaces/inkscape"
   xmlns:sodipodi="http://sodipodi.sourceforge.net/DTD/sodipodi-0.dtd"
   xmlns:xlink="http://www.w3.org/1999/xlink"
   xmlns="http://www.w3.org/2000/svg"
   xmlns:svg="http://www.w3.org/2000/svg"
   xmlns:sketch="http://www.bohemiancoding.com/sketch/ns"><sodipodi:namedview
     id="namedview156"
     pagecolor="#ffffff"
     bordercolor="#000000"
     borderopacity="1"
     inkscape:showpageshadow="0"
     inkscape:pageopacity="1"
     inkscape:pagecheckerboard="false"
     inkscape:deskcolor="#ffffff"
     showgrid="true"
     inkscape:zoom="32"
     inkscape:cx="9.625"
     inkscape:cy="10.453125"
     inkscape:window-width="2560"
     inkscape:window-height="998"
     inkscape:window-x="0"
     inkscape:window-y="0"
     inkscape:window-maximized="1"
     inkscape:current-layer="svg154"
     showguides="true"
     guidecolor="#ff0000"
     guideopacity="1"
     inkscape:lockguides="true"
     showborder="true"
     borderlayer="true"><inkscape:grid
       type="xygrid"
       id="grid356"
       color="#000000"
       opacity="0.10196078"
       empcolor="#000000"
       empopacity="0.10196078"
       snapvisiblegridlinesonly="true"
       enabled="true"
       visible="true"
       dotted="false"
       originx="0"
       originy="0"
       spacingy="1"
       spacingx="1"
       units="px" /><sodipodi:guide
       position="4,12"
       orientation="-1,0"
       id="guide764"
       inkscape:locked="true"
       inkscape:label="left-circle"
       inkscape:color="rgb(255,0,0)" /><sodipodi:guide
       position="5,12"
       orientation="-1,0"
       id="guide2218"
       inkscape:locked="true"
       inkscape:label="left-square"
       inkscape:color="rgb(255,0,0)" /><sodipodi:guide
       position="12,20"
       orientation="0,1"
       id="guide2220"
       inkscape:locked="true"
       inkscape:label="top-circle"
       inkscape:color="rgb(255,0,0)" /><sodipodi:guide
       position="12,5"
       orientation="0,1"
       id="guide2222"
       inkscape:locked="true"
       inkscape:label="bottom-square"
       inkscape:color="rgb(255,0,0)" /><sodipodi:guide
       position="12,4"
       orientation="0,1"
       id="guide2224"
       inkscape:locked="true"
       inkscape:label="bottom-circle"
       inkscape:color="rgb(255,0,0)" /><sodipodi:guide
       position="19,12"
       orientation="-1,0"
       id="guide2226"
       inkscape:locked="true"
       inkscape:label="right-square"
       inkscape:color="rgb(255,0,0)" /><sodipodi:guide
       position="20,12"
       orientation="-1,0"
       id="guide2228"
       inkscape:locked="true"
       inkscape:label="right-circle"
       inkscape:color="rgb(255,0,0)" /><sodipodi:guide
       position="12,19"
       orientation="0,1"
       id="guide2230"
       inkscape:locked="true"
       inkscape:label="top-square"
       inkscape:color="rgb(255,0,0)" /><sodipodi:guide
       position="12,12"
       orientation="1,0"
       id="guide765"
       inkscape:locked="true" /><sodipodi:guide
       position="12,12"
       orientation="0,-1"
       id="guide767"
       inkscape:locked="true" /><sodipodi:guide
       position="12,12"
       orientation="0.70710678,0.70710678"
       id="guide2266"
       inkscape:locked="true"
       inkscape:label=""
       inkscape:color="rgb(255,0,0)" /><sodipodi:guide
       position="12,12"
       orientation="-0.70710678,0.70710678"
       id="guide2994"
       inkscape:locked="true"
       inkscape:label=""
       inkscape:color="rgb(255,0,0)" /><sodipodi:guide
       position="3,12"
       orientation="-1,0"
       id="guide131543"
       inkscape:locked="true"
       inkscape:label="left-horizontal"
       inkscape:color="rgb(255,0,0)" /><sodipodi:guide
       position="12,21"
       orientation="0,1"
       id="guide131545"
       inkscape:locked="true"
       inkscape:label="top-vertical"
       inkscape:color="rgb(255,0,0)" /><sodipodi:guide
       position="21,12"
       orientation="-1,0"
       id="guide131547"
       inkscape:locked="true"
       inkscape:label="right-horizontal"
       inkscape:color="rgb(255,0,0)" /><sodipodi:guide
       position="12,3"
       orientation="0,1"
       id="guide131549"
       inkscape:locked="true"
       inkscape:label="bottom-vertical"
       inkscape:color="rgb(255,0,0)" /></sodipodi:namedview><defs
     id="defs152"><linearGradient
       inkscape:collect="always"
       id="linearGradient488"><stop
         style="stop-color:#2f3942;stop-opacity:1"
         offset="0"
         id="stop484" /><stop
         style="stop-color:#4c5f64;stop-opacity:1"
         offset="1"
         id="stop486" /></linearGradient><linearGradient
       id="linearGradient29319"
       inkscape:swatch="solid"><stop
         style="stop-color:#d2d8db;stop-opacity:1;"
         offset="0"
         id="stop29317" /></linearGradient><linearGradient
       id="fffff"
       inkscape:swatch="solid"><stop
         style="stop-color:#ffffff;stop-opacity:1;"
         offset="0"
         id="stop28389" /></linearGradient><linearGradient
       inkscape:collect="always"
       xlink:href="#linearGradient488"
       id="linearGradient490"
       x1="52.977863"
       y1="96.00692"
       x2="50.989128"
       y2="9.2256308"
       gradientUnits="userSpaceOnUse"
       gradientTransform="matrix(0.24444444,0,0,0.24444444,-0.22222222,-0.22222222)" /></defs><path
     d="M 12,0.99999998 C 2,0.99999998 0.99999998,6 0.99999998,12 0.99999998,20 4.0000001,23 12,23 20,23 23,20 23,12 23,6 22,0.99999998 12,0.99999998 Z"
     sketch:type="MSShapeGroup"
     id="path6"
     style="font-variation-settings:normal;display:inline;opacity:1;vector-effect:none;fill:url(#linearGradient490);fill-opacity:1;stroke-width:1.11627;stroke-linecap:butt;stroke-linejoin:miter;stroke-miterlimit:4;stroke-dasharray:none;stroke-dashoffset:0;stroke-opacity:1;-inkscape-stroke:none;stop-color:#000000;stop-opacity:1"
     sodipodi:nodetypes="sssss"
     inkscape:label="Shape" /><g
     id="g37592"
     transform="matrix(0.4471504,0,0,0.4471504,41.609766,-39.416785)"
     style="fill:none"><path
       d="m -66.168808,95.386367 c -0.125333,-0.0053 -0.245333,0.04133 -0.333333,0.134667 -1.281334,1.349333 -2.510667,2.745333 -3.688,4.182667 v 0.0053 c -2.844,3.546669 -5.005333,7.193339 -6.573333,11.093339 -1.457334,3.636 -2.312,6.776 -3.088,11.36533 -0.177334,1.05733 -0.328,2.12533 -0.458667,3.192 -0.06267,0.49067 -0.109333,0.92267 -0.134667,1.23467 -0.01067,0.16133 -0.016,0.292 -0.02133,0.396 v 0.15066 c 0,0.0267 0,0.0573 0.02133,0.10934 0.0093,0.048 0,0.14666 0.197334,0.27066 0.109333,0.068 0.125333,0.0533 0.150666,0.0573 0.068,0.0213 0.141334,0.032 0.209334,0.0373 0.104,0.0107 0.233333,0.02 0.374666,0.0253 1.088,0.0627 2.697334,0.33867 3.765334,0.652 0.718666,0.208 1.193333,0.38534 1.896,0.69734 0.182666,0.0787 0.369333,0.16133 0.557333,0.24 l 0.04133,0.02 c 0,0.005 0.016,0.005 0.02133,0.0107 v -0.005 0.005 c 0.016,0 0.016,0.005 0.02533,0.0107 l 0.016,0.005 h -0.016 l 0.114666,0.0627 0.464,0.25467 c 1.718667,0.96933 3.005334,1.96933 5.062667,3.93733 0.270667,0.26133 0.52,0.49467 0.713333,0.66667 0.09333,0.0893 0.172,0.16133 0.234667,0.21333 0.04667,0.0373 0.09333,0.0733 0.14,0.10533 l 0.052,0.0307 c 0.02667,0.016 0.052,0.036 0.177333,0.0467 0.145334,0.005 0.177334,-0.0253 0.202667,-0.0413 0.032,-0.0107 0.048,-0.0213 0.05733,-0.032 0.052,-0.036 0.105334,-0.072 0.152,-0.10933 0.348,-0.312 0.697334,-0.62933 1.036,-0.952 1.702667,-1.61467 2.526667,-2.29733 3.708,-3.07867 2.584,-1.71866 4.890667,-2.47866 8.422667,-2.776 l 0.285333,-0.0267 c 0.234667,-0.02 0.412,-0.21334 0.412,-0.44267 v -0.16667 c 0,-0.35333 -0.08267,-1.07733 -0.197333,-1.97866 -0.114667,-0.90134 -0.256,-1.92134 -0.390667,-2.69734 -0.776,-4.62533 -1.656,-7.88133 -3.136,-11.56266 -1.328,-3.31334 -3.24,-6.66667 -5.516,-9.69867 0,-0.005 -0.01467,-0.0107 -0.01467,-0.02 -1.537334,-1.813336 -3.016,-3.718669 -4.636,-5.485336 -0.08267,-0.088 -0.197334,-0.14 -0.317334,-0.145333 z"
       style="fill:#1793ef;fill-opacity:1;fill-rule:nonzero;stroke:none;stroke-width:1.33333"
       id="path37510" /><path
       d="m -56.367475,109.20903 -24.025333,18.17734 c 0.02533,0.0413 0.05733,0.088 0.14,0.13466 0.104,0.068 0.125334,0.0533 0.146667,0.0573 l 0.072,0.0213 c 0.04133,0.005 0.08933,0.0107 0.141333,0.016 0.104,0.0107 0.233334,0.02 0.369334,0.0307 1.093333,0.0573 2.697333,0.33333 3.765333,0.64666 0.718667,0.208 1.198667,0.38534 1.901333,0.69734 0.182667,0.0787 0.369333,0.16133 0.557333,0.24 l 0.04133,0.02 h 0.0053 v 0.005 l 0.02133,0.005 c 0.01067,0.005 0.016,0.005 0.02533,0.0107 0.0053,0 0.01067,0.005 0.016,0.005 h -0.016 l 0.114666,0.0627 0.464,0.25467 c 1.718667,0.96933 3.005334,1.96933 5.062667,3.93733 0.270667,0.256 0.52,0.49467 0.713333,0.66667 0.109334,0.1 0.213334,0.19333 0.322667,0.28133 0.016,0.016 0.032,0.0267 0.05733,0.0373 0.01067,0.009 0.02667,0.02 0.052,0.0307 0.02667,0.0107 0.052,0.036 0.172,0.0413 0.145334,0.0107 0.177334,-0.02 0.208,-0.036 0.032,-0.016 0.04667,-0.0267 0.05733,-0.032 0.052,-0.0307 0.104,-0.0667 0.146666,-0.10933 0.06667,-0.0573 0.156,-0.13467 0.26,-0.228 0.208,-0.188 0.484,-0.44267 0.781334,-0.724 1.697333,-1.60933 2.521333,-2.292 3.708,-3.07867 2.583999,-1.71866 4.885333,-2.47866 8.422666,-2.776 l 0.285333,-0.0267 c 0.229334,-0.0147 0.406667,-0.21334 0.406667,-0.44267 v -0.16667 c 0,-0.348 -0.08267,-1.07733 -0.197333,-1.97866 -0.109334,-0.90134 -0.24,-1.80267 -0.385334,-2.69734 -0.776,-4.62533 -1.657333,-7.88133 -3.136,-11.56266 -0.202666,-0.50534 -0.442666,-1.016 -0.677333,-1.52134"
       style="fill:#000000;fill-opacity:0.065;fill-rule:evenodd;stroke:none;stroke-width:1.33333"
       id="path37512" /><path
       d="m -75.996808,109.20903 24.025333,18.17734 c -0.03067,0.0573 -0.07867,0.104 -0.134667,0.13466 -0.109333,0.068 -0.125333,0.0533 -0.152,0.0573 l -0.068,0.0213 c -0.04133,0.005 -0.088,0.0107 -0.14,0.016 -0.104,0.0107 -0.234666,0.02 -0.369333,0.0307 -1.094667,0.0573 -2.704,0.33333 -3.766667,0.64666 -0.650666,0.18134 -1.285333,0.416 -1.9,0.69734 -0.182666,0.0787 -0.370666,0.16133 -0.557333,0.24 l -0.04267,0.02 h -0.004 v 0.005 l -0.02133,0.005 h -0.0053 c -0.0053,0.005 -0.016,0.005 -0.02133,0.0107 -0.0053,0 -0.0093,0.005 -0.01467,0.005 h 0.01467 l -0.118666,0.0627 -0.458667,0.25467 c -1.724,0.96933 -3.010666,1.96933 -5.062666,3.93733 -0.270667,0.256 -0.526667,0.49467 -0.713334,0.66667 -0.109333,0.1 -0.218666,0.19333 -0.328,0.28133 -0.016,0.016 -0.032,0.0267 -0.052,0.0373 -0.01067,0.009 -0.02667,0.02 -0.052,0.0307 -0.02667,0.0107 -0.05333,0.036 -0.172,0.0413 -0.152,0.0107 -0.182666,-0.02 -0.209333,-0.036 -0.03067,-0.016 -0.04667,-0.0267 -0.06267,-0.032 -0.052,-0.0307 -0.09867,-0.0667 -0.145333,-0.10933 -0.068,-0.0573 -0.150667,-0.13467 -0.254667,-0.228 -0.266666,-0.24 -0.526666,-0.48 -0.781333,-0.724 -1.698667,-1.60933 -2.526667,-2.292 -3.708,-3.07867 -2.584,-1.71866 -4.886666,-2.47866 -8.422666,-2.776 l -0.286667,-0.0267 c -0.229333,-0.0147 -0.405333,-0.21334 -0.405333,-0.44267 v -0.16667 c 0,-0.348 0.08267,-1.07733 0.192,-1.97866 0.114666,-0.896 0.26,-1.92134 0.390666,-2.69734 0.776,-4.62533 1.656,-7.88133 3.136,-11.56266 0.202667,-0.50534 0.442667,-1.016 0.672,-1.52134"
       style="fill:#000000;fill-opacity:0.065;fill-rule:evenodd;stroke:none;stroke-width:1.33333"
       id="path37514" /></g></svg>
