<svg xmlns="http://www.w3.org/2000/svg" width="24" height="24" fill="none"><path fill="url(#a)" fill-rule="evenodd" d="M9.377.124c.131.001.256-.015.375-.05a34.502 34.502 0 0 1 4.699.012c1.42.111 2.795.42 4.124.925 2.21.91 3.722 2.487 4.536 4.734.466 1.352.74 2.743.825 4.171a30.475 30.475 0 0 1-.125 5.371 12.962 12.962 0 0 1-.975 3.622c-.928 2.01-2.432 3.397-4.511 4.16-1.685.57-3.418.869-5.199.899a23.372 23.372 0 0 1-5.948-.45c-3.612-.804-5.841-3.007-6.685-6.607a20.778 20.778 0 0 1-.488-4.921c-.04-1.766.148-3.506.563-5.221C1.453 3.403 3.59 1.317 6.978.51c.79-.193 1.59-.322 2.4-.387Z" clip-rule="evenodd"/><path fill="#FAFAFA" d="M13.368 3.105a8.997 8.997 0 0 0-5.525.916.819.819 0 1 0 .757 1.452 7.36 7.36 0 0 1 9.931 9.93.818.818 0 1 0 1.452.76 9.012 9.012 0 0 0-1.615-10.531h-.001a8.994 8.994 0 0 0-4.999-2.527ZM4.502 7.44a.819.819 0 0 0-.48.403 9.01 9.01 0 0 0 1.61 10.524 9.012 9.012 0 0 0 10.525 1.61.818.818 0 0 0-.451-1.541.818.818 0 0 0-.307.09 7.362 7.362 0 0 1-8.609-1.317l-.001-.001a7.361 7.361 0 0 1-1.315-8.609.819.819 0 0 0-.972-1.16Z"/><path fill="#FAFAFA" d="M4.742 7.395a.817.817 0 0 0-.579 1.397L6.79 11.42c.321.32.837.32 1.158 0a.817.817 0 0 0 0-1.158L5.321 7.635a.815.815 0 0 0-.579-.24Zm11.888 4.943a.819.819 0 0 0-.579 1.399l2.628 2.627a.819.819 0 1 0 1.159-1.158l-2.629-2.629a.816.816 0 0 0-.579-.24Z"/><defs><radialGradient id="a" cx="0" cy="0" r="1" gradientTransform="matrix(0 24 -24 0 12 0)" gradientUnits="userSpaceOnUse"><stop stop-color="#78BDFF"/><stop offset="1" stop-color="#1A5084"/></radialGradient></defs></svg>