<?xml version="1.0" encoding="UTF-8" standalone="no"?>
<svg
   width="24"
   height="24"
   viewBox="0 0 6.349875 6.349875"
   version="1.1"
   id="svg4"
   sodipodi:docname="tracker.svg"
   inkscape:version="1.3 (0e150ed6c4, 2023-07-21)"
   xmlns:inkscape="http://www.inkscape.org/namespaces/inkscape"
   xmlns:sodipodi="http://sodipodi.sourceforge.net/DTD/sodipodi-0.dtd"
   xmlns="http://www.w3.org/2000/svg"
   xmlns:svg="http://www.w3.org/2000/svg">
  <defs
     id="defs4">
    <radialGradient
       id="paint0_radial_1_75"
       cx="0"
       cy="0"
       r="1"
       gradientUnits="userSpaceOnUse"
       gradientTransform="matrix(0,2.9103593,-2.9103593,0,3.1749374,0.26457812)">
      <stop
         stop-color="#FAFAFA"
         id="stop5" />
      <stop
         offset="1"
         stop-color="#D0D0D0"
         id="stop6" />
    </radialGradient>
  </defs>
  <sodipodi:namedview
     id="namedview4"
     pagecolor="#ffffff"
     bordercolor="#000000"
     borderopacity="0.25"
     inkscape:showpageshadow="2"
     inkscape:pageopacity="0.0"
     inkscape:pagecheckerboard="0"
     inkscape:deskcolor="#d1d1d1"
     inkscape:zoom="6.3359375"
     inkscape:cx="14.678175"
     inkscape:cy="13.178792"
     inkscape:window-width="2560"
     inkscape:window-height="998"
     inkscape:window-x="0"
     inkscape:window-y="0"
     inkscape:window-maximized="1"
     inkscape:current-layer="svg4" />
  <path
     fill-rule="evenodd"
     clip-rule="evenodd"
     d="m 2.5389022,0.29463155 c 0.031707,3.3601e-4 0.062015,-0.003701 0.090922,-0.0121177 0.3798839,-0.0248846 0.7597123,-0.0238753 1.1395406,0.003029 0.3444016,0.0268339 0.6777965,0.10155611 1.0001585,0.2241669 C 5.3054528,0.73035203 5.6721845,1.1130537 5.8696656,1.6578095 5.982614,1.9857884 6.0492877,2.3230515 6.0697131,2.6695932 6.0979436,3.1047449 6.0878367,3.538944 6.0393925,3.9721907 6.0031453,4.2766936 5.9243274,4.5695287 5.8029919,4.8506694 5.5779418,5.3381546 5.2132473,5.6744069 4.7089085,5.8594264 4.3002146,5.9975097 3.8799588,6.0702158 3.4481143,6.0775182 2.9623754,6.1027854 2.4815126,6.0664323 2.0054942,5.9684855 1.1293226,5.7733062 0.58884242,5.239123 0.38405631,4.3659888 0.29715033,3.9729315 0.25775174,3.5750854 0.26585603,3.1724504 0.25615819,2.7443101 0.30161906,2.322226 0.40224076,1.9062086 0.61691945,1.0898184 1.1351724,0.58392656 1.9570023,0.38853826 2.1485013,0.34172116 2.3424688,0.31041893 2.5389022,0.29463155 Z"
     fill="url(#paint0_radial_1_75)"
     id="path1"
     style="fill:url(#paint0_radial_1_75);stroke-width:0.264578" />
  <g
     id="g8"
     transform="matrix(0.27778204,0,0,0.27778204,8.1313439,0.82309591)">
    <rect
       transform="matrix(0,-1,-1,0,0,0)"
       x="-15.61"
       y="10.847813"
       width="14.287"
       height="14.287"
       rx="7.1440001"
       ry="7.1440001"
       fill="#f9f9f9"
       style="paint-order:markers stroke fill"
       id="rect5" />
    <rect
       transform="matrix(0,-1,-1,0,0,0)"
       x="-14.28"
       y="12.169811"
       width="11.642"
       height="11.642"
       rx="5.8210001"
       ry="5.8210001"
       fill="#4d8dd8"
       id="rect6" />
    <rect
       transform="matrix(0,-1,-1,0,0,0)"
       x="-12.7"
       y="13.757812"
       width="8.467"
       height="8.467"
       rx="4.2329998"
       ry="4.2329998"
       fill="#ffffff"
       opacity="0.25"
       id="rect7" />
    <rect
       transform="matrix(0,-1,-1,0,0,0)"
       x="-11.11"
       y="15.344812"
       width="5.2919998"
       height="5.2919998"
       rx="2.6459999"
       ry="2.6459999"
       fill="#ffffff"
       opacity="0.25"
       id="rect8" />
    <path
       d="m -18.783812,7.09 a 1.584,1.584 0 0 0 -0.581,2.169 1.584,1.584 0 0 0 2.169,0.58 c 0.51,-0.294 0.795,-0.826 0.793999,-1.375 l 5.453998,-3.148 c 0.38,-0.22 0.510001,-0.703 0.29,-1.084 a 0.792,0.792 0 0 0 -1.083999,-0.29 l -5.452998,3.146 a 1.584,1.584 0 0 0 -1.589,0.001 z"
       fill="#ffffff"
       id="path8" />
  </g>
</svg>
