<?xml version="1.0" encoding="UTF-8" standalone="no"?>
<svg
   width="24"
   height="24"
   fill="none"
   version="1.1"
   id="svg4"
   sodipodi:docname="system-log-out.svg"
   inkscape:version="1.3 (0e150ed6c4, 2023-07-21)"
   xmlns:inkscape="http://www.inkscape.org/namespaces/inkscape"
   xmlns:sodipodi="http://sodipodi.sourceforge.net/DTD/sodipodi-0.dtd"
   xmlns:xlink="http://www.w3.org/1999/xlink"
   xmlns="http://www.w3.org/2000/svg"
   xmlns:svg="http://www.w3.org/2000/svg">
  <sodipodi:namedview
     id="namedview4"
     pagecolor="#ffffff"
     bordercolor="#000000"
     borderopacity="0.25"
     inkscape:showpageshadow="2"
     inkscape:pageopacity="0.0"
     inkscape:pagecheckerboard="0"
     inkscape:deskcolor="#d1d1d1"
     inkscape:zoom="24.020833"
     inkscape:cx="3.5594103"
     inkscape:cy="12.093669"
     inkscape:window-width="3440"
     inkscape:window-height="1358"
     inkscape:window-x="2560"
     inkscape:window-y="0"
     inkscape:window-maximized="1"
     inkscape:current-layer="svg4" />
  <path
     d="M 12,1 C 2,1 1,6 1,12 1,20 4,23 12,23 20,23 23,20 23,12 23,6 22,1 12,1 Z"
     style="font-variation-settings:normal;display:inline;vector-effect:none;fill:url(#b);fill-opacity:1;stroke-width:1.11627;stroke-linecap:butt;stroke-linejoin:miter;stroke-miterlimit:4;stroke-dasharray:none;stroke-dashoffset:0;stroke-opacity:1;-inkscape-stroke:none;stop-color:#000000"
     id="path2-5" />
  <path
     id="path1"
     style="fill:url(#a);stroke-width:0.999995"
     d="M 12,6.7871094 A 5.2119999,5.2111092 0 0 0 6.7871094,11.999109 5.2119999,5.2111092 0 0 0 12,17.211109 5.2119999,5.2111092 0 0 0 17.212891,11.999109 5.2119999,5.2111092 0 0 0 12,6.7871094 Z m 0,0.4354724 A 4.7776665,4.77685 0 0 1 16.777344,11.999109 4.7776665,4.77685 0 0 1 12,16.775637 4.7776665,4.77685 0 0 1 7.2226562,11.999109 4.7776665,4.77685 0 0 1 12,7.2225818 Z m 1.419922,1.3025117 -3.591797,3.4740155 3.591797,3.474015 0.318359,-0.306587 -3.27539,-3.167428 3.27539,-3.1674273 z" />
  <defs
     id="defs4">
    <radialGradient
       id="a"
       cx="0"
       cy="0"
       r="1"
       gradientTransform="matrix(0,21.995928,-21.999688,0,11.999966,1.0011754)"
       gradientUnits="userSpaceOnUse">
      <stop
         stop-color="#9BDF6C"
         id="stop3" />
      <stop
         offset="1"
         stop-color="#204705"
         id="stop4" />
    </radialGradient>
    <linearGradient
       xlink:href="#a-6"
       id="b"
       x1="57.159"
       x2="58.181999"
       y1="115.199"
       y2="-26.193001"
       gradientTransform="matrix(0.24444,0,0,0.24444,-0.222,-0.222)"
       gradientUnits="userSpaceOnUse" />
    <linearGradient
       id="a-6">
      <stop
         offset="0"
         style="stop-color:#d9d9d9;stop-opacity:1"
         id="stop1" />
      <stop
         offset="1"
         style="stop-color:#fff;stop-opacity:1"
         id="stop2-7" />
    </linearGradient>
  </defs>
</svg>
