<?xml version="1.0" encoding="UTF-8" standalone="no"?>
<svg
   width="24"
   height="24"
   viewBox="0 0 6.349875 6.349875"
   version="1.1"
   id="svg6938"
   sodipodi:docname="system-suspend-hibernate.svg"
   xml:space="preserve"
   inkscape:version="1.2.2 (b0a8486541, 2022-12-01)"
   xmlns:inkscape="http://www.inkscape.org/namespaces/inkscape"
   xmlns:sodipodi="http://sodipodi.sourceforge.net/DTD/sodipodi-0.dtd"
   xmlns="http://www.w3.org/2000/svg"
   xmlns:svg="http://www.w3.org/2000/svg"><defs
     id="defs6942"><radialGradient
       id="paint0_radial_1_142"
       cx="0"
       cy="0"
       r="1"
       gradientUnits="userSpaceOnUse"
       gradientTransform="matrix(0,5.820719,-5.820719,0,3.1749369,0.26457813)"><stop
         stop-color="#98A5FF"
         id="stop7067"
         offset="0"
         style="stop-color:#a8b0dd;stop-opacity:1;" /><stop
         offset="1"
         stop-color="#1F296B"
         id="stop7069"
         style="stop-color:#3c4a9d;stop-opacity:1;" /></radialGradient></defs><sodipodi:namedview
     id="namedview6940"
     pagecolor="#ffffff"
     bordercolor="#000000"
     borderopacity="0.25"
     inkscape:showpageshadow="2"
     inkscape:pageopacity="0.0"
     inkscape:pagecheckerboard="0"
     inkscape:deskcolor="#d1d1d1"
     showgrid="false"
     inkscape:zoom="4.8282135"
     inkscape:cx="-41.008957"
     inkscape:cy="9.6308914"
     inkscape:window-width="2560"
     inkscape:window-height="1000"
     inkscape:window-x="1680"
     inkscape:window-y="0"
     inkscape:window-maximized="1"
     inkscape:current-layer="svg6938" /><path
     fill-rule="evenodd"
     clip-rule="evenodd"
     d="m 2.5389021,0.29463123 c 0.031708,3.376e-4 0.062015,-0.003702 0.090922,-0.012117 0.3798771,-0.0248849 0.7597276,-0.0238756 1.1395537,0.003029 0.3443926,0.0268339 0.6777743,0.10155665 1.0001451,0.22416695 C 5.3054656,0.73035207 5.6721709,1.1130522 5.869663,1.6578085 5.9826092,1.985789 6.049305,2.3230512 6.0697017,2.6695877 6.0979322,3.1047495 6.087843,3.5389509 6.0393855,3.9721821 6.0031273,4.2766785 5.9243293,4.5695092 5.8029915,4.8506742 5.577948,5.3381594 5.2132557,5.6744029 4.7089146,5.859429 4.3002274,5.9975256 3.8799472,6.0702118 3.4481226,6.0775362 2.9623836,6.1027836 2.4815122,6.0664283 2.0054938,5.9684705 1.1293228,5.7733066 0.58883994,5.2391344 0.38405491,4.365978 0.29715061,3.972934 0.25775106,3.5750878 0.26585643,3.1724396 0.25615749,2.7443015 0.3016185,2.3222266 0.40223908,1.9062101 0.61692006,1.0898178 1.1351726,0.58392703 1.9570024,0.38853907 2.1485016,0.34172157 2.3424698,0.31041872 2.5389021,0.29463123 Z"
     fill="url(#paint0_radial_1_142)"
     id="path7061"
     style="fill:url(#paint0_radial_1_142);stroke-width:0.24253" /><rect
     style="fill:#ffffff;stroke-width:0.275712;stroke-linecap:round;stroke-linejoin:round;stroke-opacity:0.0472222;paint-order:stroke markers fill"
     id="rect7157"
     width="2.1919339"
     height="0.47606066"
     x="2.0789707"
     y="2.9369071"
     rx="0.23803033"
     ry="0.23803033" /></svg>
