<?xml version="1.0" encoding="UTF-8" standalone="no"?>
<svg
   width="24"
   height="24"
   version="1.1"
   id="svg7"
   sodipodi:docname="tangram.svg"
   inkscape:version="1.3 (0e150ed6c4, 2023-07-21)"
   xmlns:inkscape="http://www.inkscape.org/namespaces/inkscape"
   xmlns:sodipodi="http://sodipodi.sourceforge.net/DTD/sodipodi-0.dtd"
   xmlns="http://www.w3.org/2000/svg"
   xmlns:svg="http://www.w3.org/2000/svg">
  <defs
     id="defs7">
    <radialGradient
       id="paint0_radial_2_129"
       cx="0"
       cy="0"
       r="1"
       gradientUnits="userSpaceOnUse"
       gradientTransform="matrix(0,22,-22,0,-28.000015,1.0000546)">
      <stop
         stop-color="#FAFAFA"
         id="stop8838" />
      <stop
         offset="1"
         stop-color="#B0B0B0"
         id="stop8840" />
    </radialGradient>
    <radialGradient
       id="paint0_radial_2_129-9"
       cx="0"
       cy="0"
       r="1"
       gradientUnits="userSpaceOnUse"
       gradientTransform="matrix(0,22,-22,0,11.999985,1.0000546)">
      <stop
         stop-color="#FAFAFA"
         id="stop8838-2"
         offset="0"
         style="stop-color:#ffffff;stop-opacity:1;" />
      <stop
         offset="0.79022986"
         stop-color="#B0B0B0"
         id="stop8840-2"
         style="stop-color:#8c8c8c;stop-opacity:0.34999999;" />
    </radialGradient>
  </defs>
  <sodipodi:namedview
     id="namedview7"
     pagecolor="#ffffff"
     bordercolor="#000000"
     borderopacity="0.25"
     inkscape:showpageshadow="2"
     inkscape:pageopacity="0.0"
     inkscape:pagecheckerboard="0"
     inkscape:deskcolor="#d1d1d1"
     inkscape:zoom="12.671875"
     inkscape:cx="-4.6954377"
     inkscape:cy="12.902589"
     inkscape:window-width="1920"
     inkscape:window-height="998"
     inkscape:window-x="2560"
     inkscape:window-y="0"
     inkscape:window-maximized="1"
     inkscape:current-layer="svg7" />
  <path
     id="path8"
     style="fill:#33d17a;fill-opacity:1;stroke-width:0.597666"
     d="M 12.09375,1 C 11.375926,0.998105 10.657353,1.021321 9.939453,1.068359 9.830204,1.100183 9.715547,1.114551 9.595703,1.113281 8.853254,1.172961 8.120274,1.291789 7.396484,1.4687498 5.5668,1.903752 4.138918,2.7486506 3.105469,3.9980467 L 14.75,22.082031 21.339844,4.5820312 c -0.79124,-1.1851016 -1.89372,-2.0721305 -3.3125,-2.65625 C 16.808945,1.4623617 15.547792,1.1814779 14.246094,1.0800781 13.528294,1.0292781 12.811574,1.0018951 12.09375,1 Z" />
  <path
     id="path9"
     style="fill:#5799e9;fill-opacity:1;stroke-width:0.597666"
     d="M 3.529297,3.5292969 C 2.587243,4.4760248 1.915384,5.6996946 1.519531,7.2050781 1.186746,8.580918 1.013523,9.9737923 1,11.384766 c -0.0019,0.201567 -6.77e-4,0.403181 0.0039,0.605468 -0.03061,1.521799 0.118781,3.026121 0.447266,4.511719 0.670321,2.858048 2.295518,4.75329 4.86914,5.689453 l 13.078126,-0.849609 c 0.547464,-0.36281 1.031893,-0.793451 1.453124,-1.292969 L 12,12.001953 Z" />
  <path
     id="path10"
     style="fill:#837f8a;fill-opacity:1;stroke-width:0.597666"
     d="M 20.472656,3.5253906 17.5,6.5019531 l 1.832031,3.6660159 3.660157,1.830078 c 0.0021,-0.635558 -0.0095,-1.271566 -0.05078,-1.908203 C 22.864208,8.7800853 22.612448,7.5052641 22.185549,6.265625 21.792626,5.1817384 21.220103,4.2697976 20.472658,3.5253906 Z" />
  <path
     d="M 11.999666,12.000122 17.499841,6.4999463 22.999313,12.000824 18.4156,20.251087 Z"
     fill="#f8db51"
     style="stroke-width:0.916462;paint-order:normal"
     id="path11" />
  <path
     id="path8836"
     style="fill:#f65960;fill-opacity:1;stroke-width:1"
     d="m 6.5,17.5 -2.962891,2.962891 c 1.024819,1.02432 2.37233,1.723545 4.042969,2.095703 1.462456,0.300928 2.937117,0.444383 4.423828,0.4375 L 17.5,17.5 Z" />
  <path
     id="path15"
     style="fill:#b78860;fill-opacity:1;stroke-width:1"
     d="M 22.992188,12.007812 12.003906,22.996094 c 0.342287,-0.0016 0.685719,-0.0075 1.029297,-0.02539 1.632198,-0.02759 3.218974,-0.302328 4.763672,-0.824219 1.906198,-0.699301 3.28612,-1.970001 4.136719,-3.8125 0.458599,-1.062599 0.755578,-2.169413 0.892578,-3.320312 0.111861,-1.000405 0.162318,-2.002768 0.166016,-3.005861 z" />
  <path
     d="M 17.499999,17.499996 H 6.499546 l 5.499997,-5.499997 z"
     fill="#ff9536"
     id="path16"
     style="stroke-width:0.597666" />
  <path
     fill-rule="evenodd"
     clip-rule="evenodd"
     d="m 9.939685,1.0678345 c -0.10925,0.031824 -0.223798,0.047079 -0.343642,0.045809 -0.74245,0.05968 -1.47557,0.1779701 -2.19936,0.3549311 -3.1062,0.73849 -5.06499,2.6505598 -5.87638,5.7361899 -0.380327,1.57239 -0.552144,3.1676495 -0.515478,4.7859495 -0.03061,1.5218 0.118264,3.0255 0.446749,4.5111 0.773999,3.3001 2.816809,5.319099 6.128399,6.056802 1.79916,0.370212 3.61661,0.507597 5.45251,0.411897 1.6322,-0.02759 3.2206,-0.302406 4.7653,-0.824297 1.9062,-0.699302 3.2846,-1.970202 4.1352,-3.812702 0.4586,-1.0626 0.7565,-2.1694 0.8935,-3.3203 0.183099,-1.6375 0.2213,-3.2786 0.114602,-4.9233 -0.0772,-1.3097596 -0.3292,-2.5844894 -0.7561,-3.8241297 -0.7464,-2.0589597 -2.1325,-3.5054094 -4.1581,-4.3393597 -1.2184,-0.46342 -2.4785,-0.74585 -3.7802,-0.8472499 -1.4356,-0.10159949 -2.8712,-0.10541689 -4.307,-0.01134 z"
     fill="url(#paint0_radial_2_129)"
     id="path8836-8"
     style="opacity:0.35;mix-blend-mode:normal;fill:url(#paint0_radial_2_129-9);stroke-width:1"
     sodipodi:nodetypes="cccccccccccccccc" />
</svg>
