<?xml version="1.0" encoding="UTF-8" standalone="no"?>
<svg
   width="24"
   height="24"
   version="1.1"
   id="svg8"
   sodipodi:docname="TeamViewer.svg"
   xml:space="preserve"
   inkscape:version="1.2.2 (b0a8486541, 2022-12-01)"
   xmlns:inkscape="http://www.inkscape.org/namespaces/inkscape"
   xmlns:sodipodi="http://sodipodi.sourceforge.net/DTD/sodipodi-0.dtd"
   xmlns="http://www.w3.org/2000/svg"
   xmlns:svg="http://www.w3.org/2000/svg"><defs
     id="defs12"><radialGradient
       id="paint0_radial_1_112"
       cx="0"
       cy="0"
       r="1"
       gradientUnits="userSpaceOnUse"
       gradientTransform="matrix(0,22.000002,-22.000002,0,11.999997,1)"><stop
         stop-color="#78BDFF"
         id="stop247" /><stop
         offset="1"
         stop-color="#1A5084"
         id="stop249" /></radialGradient></defs><sodipodi:namedview
     id="namedview10"
     pagecolor="#ffffff"
     bordercolor="#000000"
     borderopacity="0.25"
     inkscape:showpageshadow="2"
     inkscape:pageopacity="0.0"
     inkscape:pagecheckerboard="0"
     inkscape:deskcolor="#d1d1d1"
     showgrid="false"
     inkscape:zoom="9.656427"
     inkscape:cx="3.4174131"
     inkscape:cy="16.724613"
     inkscape:window-width="2560"
     inkscape:window-height="1000"
     inkscape:window-x="1680"
     inkscape:window-y="0"
     inkscape:window-maximized="1"
     inkscape:current-layer="svg8" /><path
     fill-rule="evenodd"
     clip-rule="evenodd"
     d="m 9.5960389,1.1135888 c 0.119845,0.00128 0.2343917,-0.013991 0.3436492,-0.045798 1.4357839,-0.0940552 2.8714679,-0.0902403 4.3070599,0.011449 1.301666,0.1014215 2.561716,0.3838437 3.78015,0.8472619 2.02565,0.8339375 3.41165,2.2803918 4.158092,4.3393536 0.426891,1.2396359 0.678975,2.5143527 0.756067,3.8241227 0.1067,1.644738 0.06857,3.285847 -0.114584,4.923289 -0.137041,1.150875 -0.434867,2.257658 -0.893475,3.32035 -0.850575,1.8425 -2.228967,3.113367 -4.135175,3.812692 -1.544675,0.52195 -3.133167,0.796675 -4.765292,0.824358 -1.8359,0.09542 -3.6534029,-0.04198 -5.452563,-0.412225 C 4.2683902,21.820801 2.2255801,19.801843 1.4515742,16.501659 1.1231105,15.016109 0.97419589,13.512409 1.004831,11.990559 0.96817284,10.372367 1.1399973,8.7770922 1.5203031,7.2047154 2.3317118,4.1190777 4.2905002,2.2070118 7.3966896,1.468523 8.1204805,1.2915715 8.853603,1.1732592 9.5960389,1.1135888 Z"
     fill="url(#paint0_radial_1_112)"
     id="path241"
     style="fill:url(#paint0_radial_1_112);stroke-width:0.916667" /><rect
     x="4"
     y="4"
     width="16"
     height="16"
     rx="8"
     fill="#3384ba"
     id="rect2"
     style="stroke-width:0.4" /><path
     d="m 11.999999,4.3102974 c -4.2512229,0 -7.689703,3.4390715 -7.689703,7.6897026 0,4.250631 3.4384801,7.689703 7.689703,7.689703 4.251225,0 7.689705,-3.439072 7.689705,-7.689703 0,-4.2506309 -3.43848,-7.6897026 -7.689705,-7.6897026 z m -1.774547,5.3236403 v 1.1830313 h 3.549093 V 9.6339377 L 15.887439,10.816969 17.915157,12 l -2.027718,1.183031 -2.112894,1.183031 v -1.183031 h -3.549093 v 1.183031 L 8.1125582,13.183031 6.0848428,12 8.1125582,10.816969 Z"
     fill="#ebf3fc"
     id="path4"
     style="stroke-width:0.591516" /></svg>
