<?xml version="1.0" encoding="UTF-8" standalone="no"?>
<svg
   width="24"
   height="24"
   version="1"
   id="svg3"
   sodipodi:docname="terraria.svg"
   inkscape:version="1.3 (0e150ed6c4, 2023-07-21)"
   xmlns:inkscape="http://www.inkscape.org/namespaces/inkscape"
   xmlns:sodipodi="http://sodipodi.sourceforge.net/DTD/sodipodi-0.dtd"
   xmlns="http://www.w3.org/2000/svg"
   xmlns:svg="http://www.w3.org/2000/svg"
   xmlns:sketch="http://www.bohemiancoding.com/sketch/ns">
  <defs
     id="defs3" />
  <sodipodi:namedview
     id="namedview3"
     pagecolor="#ffffff"
     bordercolor="#000000"
     borderopacity="0.25"
     inkscape:showpageshadow="2"
     inkscape:pageopacity="0.0"
     inkscape:pagecheckerboard="0"
     inkscape:deskcolor="#d1d1d1"
     inkscape:zoom="3.1679688"
     inkscape:cx="-22.411837"
     inkscape:cy="16.572133"
     inkscape:window-width="2560"
     inkscape:window-height="998"
     inkscape:window-x="0"
     inkscape:window-y="0"
     inkscape:window-maximized="1"
     inkscape:current-layer="svg3" />
  <path
     d="M 12,0.99999995 C 1.9999999,0.99999995 0.99999995,5.9999999 0.99999995,12 0.99999995,20 4,22.999999 12,22.999999 20,22.999999 22.999999,20 22.999999,12 22.999999,5.9999999 22,0.99999995 12,0.99999995 Z"
     sketch:type="MSShapeGroup"
     id="path6"
     style="font-variation-settings:normal;display:inline;vector-effect:none;fill:#e6e6e6;fill-opacity:1;stroke-width:1.11627;stroke-linecap:butt;stroke-linejoin:miter;stroke-miterlimit:4;stroke-dasharray:none;stroke-dashoffset:0;stroke-opacity:1;-inkscape-stroke:none;stop-color:#000000"
     sodipodi:nodetypes="sssss"
     inkscape:label="Shape" />
  <path
     d="M 12,1.9750004 C 2.886364,1.9750004 1.9750004,6.5318182 1.9750004,12 1.9750004,19.290909 4.7090912,22.024999 12,22.024999 19.290909,22.024999 22.024999,19.290909 22.024999,12 22.024999,6.5318182 21.113636,1.9750004 12,1.9750004 Z"
     sketch:type="MSShapeGroup"
     id="path45683"
     style="font-variation-settings:normal;display:inline;vector-effect:none;fill:#f2f2f2;fill-opacity:1;stroke-width:1.01733;stroke-linecap:butt;stroke-linejoin:miter;stroke-miterlimit:4;stroke-dasharray:none;stroke-dashoffset:0;stroke-opacity:1;-inkscape-stroke:none;stop-color:#000000"
     sodipodi:nodetypes="sssss"
     inkscape:label="Shape" />
  <g
     id="g5"
     transform="matrix(0.3636281,0,0,0.3636281,0.36371916,0.36371905)">
    <path
       d="m 31.42,29.814 c -0.702,0.4 -1.502,0.613 -2.315,0.615 -0.084,0 -0.165,-0.018 -0.248,-0.022 v 8.76 l -2,-2.23 a 2.095,2.095 0 0 1 -1.668,0.824 2.095,2.095 0 0 1 -0.052,0.451 l 3.72,4.067 v 6.646 c -2.583,0.828 -3.143,2.787 -3.143,5.076 h 12.572 c 0,-2.289 -0.56,-4.248 -3.143,-5.076 V 46.758 L 38.94,43.09 a 2.095,2.245 0 0 1 -0.13,-0.762 2.095,2.245 0 0 1 0.284,-1.127 2.095,2.245 0 0 1 -0.013,-0.017 2.095,2.245 0 0 1 -0.27,0.02 2.095,2.245 0 0 1 -0.885,-0.21 l -2.783,2.65 v -13.45 a 4.68,4.68 0 0 1 -1.407,0.235 4.701,4.701 0 0 1 -2.316,-0.615 z"
       fill="#a57959"
       id="path4" />
    <path
       d="m 31.42,10 a 4.68,4.68 0 0 0 -3.275,1.335 c -0.44,-0.132 -0.897,-0.2 -1.356,-0.2 -2.558,0 -4.632,2.033 -4.632,4.54 A 4.484,4.484 0 0 0 23.25,18.597 4.522,4.522 0 0 0 21,22.486 c 0.002,2.115 1.494,3.947 3.597,4.42 0.482,2.06 2.352,3.52 4.508,3.523 a 4.696,4.696 0 0 0 2.315,-0.614 c 0.704,0.4 1.503,0.612 2.317,0.614 a 4.649,4.649 0 0 0 4.03,-2.308 c 2.324,-0.275 4.073,-2.208 4.077,-4.503 A 4.56,4.56 0 0 0 41.822,23.232 4.485,4.485 0 0 0 43,20.215 C 42.997,18.1 41.506,16.267 39.403,15.795 38.966,13.933 37.383,12.537 35.446,12.306 A 4.649,4.649 0 0 0 31.42,10.001 Z M 23.096,33.572 A 2.095,2.095 0 0 0 21,35.668 2.095,2.095 0 0 0 21.282,36.715 2.095,2.095 0 0 0 21,37.76 a 2.095,2.095 0 0 0 2.096,2.097 2.095,2.095 0 0 0 2.093,-2.097 2.095,2.095 0 0 0 2.097,-2.093 2.095,2.095 0 0 0 -2.097,-2.096 2.095,2.095 0 0 0 -1.046,0.283 2.095,2.095 0 0 0 -1.047,-0.283 z m 15.715,3.143 a 2.095,2.245 0 0 0 -2.096,2.244 2.095,2.245 0 0 0 2.096,2.245 2.095,2.245 0 0 0 0.27,-0.02 2.095,2.245 0 0 0 0.013,0.017 2.095,2.245 0 0 0 -0.283,1.127 2.095,2.245 0 0 0 2.093,2.244 2.095,2.245 0 0 0 2.097,-2.244 A 2.095,2.245 0 0 0 42.718,41.204 2.095,2.245 0 0 0 43,40.082 2.095,2.245 0 0 0 40.903,37.838 2.095,2.245 0 0 0 40.633,37.86 2.095,2.245 0 0 0 38.81,36.715 Z"
       fill="#1c8d43"
       id="path5" />
  </g>
</svg>
