<svg width="300" height="300" viewBox="0 0 300 300" fill="none" xmlns="http://www.w3.org/2000/svg">
<path fill-rule="evenodd" clip-rule="evenodd" d="M117.219 1.54894C118.853 1.56634 120.415 1.35815 121.905 0.924425C141.483 -0.358145 161.061 -0.306123 180.637 1.08055C198.388 2.46358 215.57 6.31479 232.185 12.6341C259.807 24.006 278.708 43.7304 288.887 71.8071C294.708 88.7112 298.145 106.094 299.196 123.954C300.651 146.383 300.131 168.761 297.634 191.09C295.766 206.784 291.704 221.877 285.45 236.367C273.851 261.492 255.055 278.822 229.061 288.358C207.997 295.476 186.336 299.223 164.08 299.6C139.045 300.902 114.261 299.028 89.7269 293.979C44.569 283.92 16.7126 256.389 6.15787 211.387C1.67882 191.129 -0.351829 170.624 0.0659221 149.872C-0.433961 127.805 1.9091 106.051 7.09509 84.6097C18.1597 42.5329 44.8705 16.4592 87.2276 6.38895C97.0975 3.97597 107.095 2.36263 117.219 1.54894Z" fill="url(#paint0_radial_30_272)"/>
<path opacity="0.4" d="M236 109.797V214C236 246.062 216.869 256.75 193.25 256.75H107.75C84.1306 256.75 65 246.062 65 214V109.797C65 75.0625 84.1306 67.0469 107.75 67.0469C107.75 73.6731 110.422 79.6581 114.803 84.04C119.185 88.4219 125.171 91.0937 131.797 91.0937H169.203C182.456 91.0937 193.25 80.2994 193.25 67.0469C216.869 67.0469 236 75.0625 236 109.797Z" fill="#FAFAFA"/>
<path d="M194 67C194 70.4814 194 73.4406 194 76.0041C194 84.2883 187.284 91 179 91H131.469C129.14 91 126.319 90.9293 123.342 90.8611C114.552 90.6599 107 83.4424 107 74.6494C107 71.7999 107 69.1103 107 67C107 63.49 107 60.5393 107 57.9957C107 49.7115 113.716 43 122 43H169.531C172.171 43 175.52 43 178.999 43C187.284 43 194 49.7159 194 58.0002C194 61.3308 194 64.533 194 67Z" fill="#FAFAFA"/>
<path d="M150.5 168.578H103.734C101.525 168.578 99.7344 166.788 99.7344 164.579C99.7344 163.535 99.7344 162.261 99.7344 160.562C99.7344 158.95 99.7344 157.636 99.7344 156.546C99.7344 154.337 101.525 152.547 103.734 152.547H150.5C154.882 152.547 158.516 156.181 158.516 160.562C158.516 164.944 154.882 168.578 150.5 168.578Z" fill="#FAFAFA"/>
<path d="M201.266 207.327C201.266 209.536 199.475 211.328 197.266 211.328H103.734C101.525 211.328 99.7344 209.537 99.7344 207.328C99.7344 205.624 99.7344 204.323 99.7344 203.312C99.7344 202.394 99.7344 200.902 99.7344 199.297C99.7344 197.088 101.525 195.297 103.734 195.297H197.266C199.475 195.297 201.266 197.089 201.266 199.298C201.266 200.373 201.266 200.665 201.266 203.312C201.266 206.004 201.266 206.214 201.266 207.327Z" fill="#FAFAFA"/>
<path d="M219.967 100.545C220.744 101.322 222.003 101.327 222.786 100.555L228.979 94.4455C232.821 90.5792 232.972 86.4101 229.582 82.9232L227.021 80.3458C223.631 76.9346 219.488 77.3136 215.646 81.0279L209.456 87.1947C208.673 87.9752 208.672 89.2432 209.453 90.0253L219.967 100.545ZM130.577 191.863C131.882 191.357 133.066 190.583 134.052 189.591L213.344 109.875C214.118 109.097 214.12 107.84 213.348 107.059L202.977 96.5626C202.196 95.7721 200.92 95.77 200.136 96.5579L120.657 176.464C119.759 177.366 119.042 178.432 118.544 179.603L112.141 194.658C111.464 196.478 113.347 198.6 115.155 197.842L130.577 191.863Z" fill="#006699"/>
<defs>
<radialGradient id="paint0_radial_30_272" cx="0" cy="0" r="1" gradientUnits="userSpaceOnUse" gradientTransform="translate(150) rotate(90) scale(150)">
<stop stop-color="#80D2FF"/>
<stop offset="1" stop-color="#2991C9"/>
</radialGradient>
</defs>
</svg>
