<svg xmlns="http://www.w3.org/2000/svg" xmlns:xlink="http://www.w3.org/1999/xlink" xml:space="preserve" width="24" height="24" fill="none"><defs><linearGradient id="c"><stop offset="0" style="stop-color:#fff;stop-opacity:1"/><stop offset="1" style="stop-color:#bfbfbf;stop-opacity:1"/></linearGradient><linearGradient id="b"><stop offset=".711" style="stop-color:#069;stop-opacity:1"/><stop offset="1" style="stop-color:#fff;stop-opacity:1"/></linearGradient><linearGradient id="a"><stop offset="0" style="stop-color:#00cbff;stop-opacity:1"/><stop offset="1" style="stop-color:#1b9aff;stop-opacity:1"/></linearGradient><linearGradient xlink:href="#b" id="g" x1="-97.575" x2="-97.575" y1="52.696" y2="189.235" gradientTransform="matrix(.07631 0 0 .07631 19.524 3.578)" gradientUnits="userSpaceOnUse"/><linearGradient xlink:href="#c" id="f" x1="181.872" x2="181.872" y1="106.35" y2="267.793" gradientTransform="matrix(.07333 0 0 .07333 1 1)" gradientUnits="userSpaceOnUse"/><linearGradient id="d" x1="12" x2="12" y1="1" y2="12" gradientTransform="translate(-98 -16)" gradientUnits="userSpaceOnUse" spreadMethod="pad"><stop offset="0" style="stop-opacity:1;stop-color:#0cf"/><stop offset="1" style="stop-opacity:1;stop-color:#2881ff"/></linearGradient><linearGradient xlink:href="#d" id="e" x1="12" x2="12" y1="1" y2="12" gradientUnits="userSpaceOnUse" spreadMethod="pad"/><radialGradient xlink:href="#a" id="h" cx="-171.066" cy="9.235" r="67.51" fx="-171.066" fy="33.911" gradientTransform="matrix(.15827 0 0 .16134 39.075 .763)" gradientUnits="userSpaceOnUse"/></defs><path d="M9.593 1.115c.12 0 .235-.016.344-.047a31.813 31.813 0 0 1 4.308.01 13.68 13.68 0 0 1 3.781.849c2.026.833 3.41 2.281 4.162 4.338.42 1.24.676 2.516.754 3.823a28.303 28.303 0 0 1-.114 4.928 11.968 11.968 0 0 1-.896 3.317c-.85 1.844-2.23 3.115-4.135 3.812-1.543.522-3.13.798-4.767.824a21.331 21.331 0 0 1-5.452-.412c-3.308-.734-5.354-2.754-6.125-6.057a18.991 18.991 0 0 1-.448-4.51 18.502 18.502 0 0 1 .516-4.787c.812-3.083 2.77-4.995 5.875-5.734a13.692 13.692 0 0 1 2.197-.354z" style="fill:url(#e);fill-rule:evenodd;stroke:none;stroke-width:1.33333"/><rect width="12.545" height="14.578" x="5.728" y="4.711" rx="2.11" ry="2.221" style="fill:url(#f);fill-opacity:.4;stroke:none;stroke-width:.05;stroke-linecap:round;stroke-linejoin:round;paint-order:stroke markers fill"/><rect width="10.3" height="10.5" x="6.85" y="7.579" rx=".679" ry=".679" style="fill:url(#g);stroke:none;stroke-width:.05;stroke-linecap:round;stroke-linejoin:round;paint-order:stroke markers fill"/><rect width="10.3" height="10.5" x="6.85" y="6.206" rx=".679" ry=".679" style="fill:url(#h);stroke:none;stroke-width:.05;stroke-linecap:round;stroke-linejoin:round;paint-order:stroke markers fill"/><g style="stroke-width:13.1036;stroke:none" transform="matrix(.07631 0 0 .07631 50.33 3.73)"><rect width="88.964" height="11.097" x="-546.732" y="68.619" rx="2.959" ry="2.959" style="opacity:1;fill:#fff;stroke:none;stroke-width:.655182;stroke-linecap:round;stroke-linejoin:round;paint-order:stroke markers fill"/><rect width="88.964" height="11.097" x="-546.732" y="98.619" rx="2.959" ry="2.959" style="opacity:1;fill:#fff;stroke:none;stroke-width:.655182;stroke-linecap:round;stroke-linejoin:round;paint-order:stroke markers fill"/><rect width="88.964" height="11.097" x="-546.732" y="128.619" rx="2.959" ry="2.959" style="opacity:1;fill:#fff;stroke:none;stroke-width:.655182;stroke-linecap:round;stroke-linejoin:round;paint-order:stroke markers fill"/></g><g style="stroke-width:13.1036;stroke:none" transform="matrix(.07631 0 0 .07631 50.286 3.73)"><rect width="15.563" height="22.626" x="-465.461" y="20.664" rx="7.782" ry="7.782" style="opacity:1;fill:#069;fill-opacity:1;stroke:none;stroke-width:.655182;stroke-linecap:round;stroke-linejoin:round;paint-order:stroke markers fill"/><rect width="15.563" height="22.626" x="-493.461" y="20.664" rx="7.782" ry="7.782" style="opacity:1;fill:#069;fill-opacity:1;stroke:none;stroke-width:.655182;stroke-linecap:round;stroke-linejoin:round;paint-order:stroke markers fill"/><rect width="15.563" height="22.626" x="-523.461" y="20.664" rx="7.782" ry="7.782" style="opacity:1;fill:#069;fill-opacity:1;stroke:none;stroke-width:.655182;stroke-linecap:round;stroke-linejoin:round;paint-order:stroke markers fill"/><rect width="15.563" height="22.626" x="-553.461" y="20.664" rx="7.782" ry="7.782" style="opacity:1;fill:#069;fill-opacity:1;stroke:none;stroke-width:.655182;stroke-linecap:round;stroke-linejoin:round;paint-order:stroke markers fill"/></g><path fill="#069" d="M18.198 6.707a.146.146 0 0 0 .206 0l.453-.446c.28-.282.291-.586.044-.841l-.187-.188c-.248-.25-.55-.222-.831.05l-.452.45a.146.146 0 0 0 0 .207zm-6.527 6.668a.73.73 0 0 0 .254-.166l5.79-5.821a.146.146 0 0 0 0-.206l-.757-.766a.146.146 0 0 0-.208 0l-5.803 5.834a.73.73 0 0 0-.155.23l-.467 1.099c-.05.133.088.288.22.232z" style="stroke-width:.999996"/></svg>