<?xml version="1.0" encoding="UTF-8" standalone="no"?>
<svg
   width="300"
   height="300"
   viewBox="0 0 300 300"
   fill="none"
   version="1.1"
   id="svg7"
   sodipodi:docname="utilities-text-editor.svg"
   xml:space="preserve"
   inkscape:version="1.3 (0e150ed6c4, 2023-07-21)"
   xmlns:inkscape="http://www.inkscape.org/namespaces/inkscape"
   xmlns:sodipodi="http://sodipodi.sourceforge.net/DTD/sodipodi-0.dtd"
   xmlns:xlink="http://www.w3.org/1999/xlink"
   xmlns="http://www.w3.org/2000/svg"
   xmlns:svg="http://www.w3.org/2000/svg"><sodipodi:namedview
     id="namedview7"
     pagecolor="#ffffff"
     bordercolor="#000000"
     borderopacity="0.25"
     inkscape:showpageshadow="2"
     inkscape:pageopacity="0.0"
     inkscape:pagecheckerboard="0"
     inkscape:deskcolor="#d1d1d1"
     inkscape:zoom="10.813333"
     inkscape:cx="221.43958"
     inkscape:cy="83.369297"
     inkscape:window-width="2560"
     inkscape:window-height="998"
     inkscape:window-x="0"
     inkscape:window-y="0"
     inkscape:window-maximized="1"
     inkscape:current-layer="svg7" /><path
     fill-rule="evenodd"
     clip-rule="evenodd"
     d="M117.219 1.54894C118.853 1.56634 120.415 1.35815 121.905 0.924425C141.483 -0.358145 161.061 -0.306123 180.637 1.08055C198.388 2.46358 215.57 6.31479 232.185 12.6341C259.807 24.006 278.708 43.7304 288.887 71.8071C294.708 88.7112 298.145 106.094 299.196 123.954C300.651 146.383 300.131 168.761 297.634 191.09C295.766 206.784 291.704 221.877 285.45 236.367C273.851 261.492 255.055 278.822 229.061 288.358C207.997 295.476 186.336 299.223 164.08 299.6C139.045 300.902 114.261 299.028 89.7269 293.979C44.569 283.92 16.7126 256.389 6.15787 211.387C1.67882 191.129 -0.351829 170.624 0.0659221 149.872C-0.433961 127.805 1.9091 106.051 7.09509 84.6097C18.1597 42.5329 44.8705 16.4592 87.2276 6.38895C97.0975 3.97597 107.095 2.36263 117.219 1.54894Z"
     fill="url(#paint0_radial_30_272)"
     id="path1"
     style="fill:url(#paint0_radial_30_272)" /><defs
     id="defs7"><linearGradient
       id="linearGradient19"
       inkscape:collect="always"><stop
         style="stop-color:#ffffff;stop-opacity:1;"
         offset="0"
         id="stop19" /><stop
         style="stop-color:#bfbfbf;stop-opacity:1;"
         offset="1"
         id="stop20" /></linearGradient><linearGradient
       id="linearGradient17"
       inkscape:collect="always"><stop
         style="stop-color:#006699;stop-opacity:1;"
         offset="0.71148705"
         id="stop16" /><stop
         style="stop-color:#ffffff;stop-opacity:1;"
         offset="1"
         id="stop17" /></linearGradient><linearGradient
       id="linearGradient7"
       inkscape:collect="always"><stop
         style="stop-color:#00cbff;stop-opacity:1;"
         offset="0"
         id="stop8" /><stop
         style="stop-color:#1b9aff;stop-opacity:1;"
         offset="1"
         id="stop9" /></linearGradient><radialGradient
       id="paint0_radial_30_272"
       cx="0"
       cy="0"
       r="1"
       gradientUnits="userSpaceOnUse"
       gradientTransform="matrix(0,252.27188,-219.8172,0,150,0)"
       fx="0"
       fy="0"><stop
         stop-color="#80D2FF"
         id="stop6"
         offset="0"
         style="stop-color:#00ccff;stop-opacity:1;" /><stop
         offset="1"
         stop-color="#2991C9"
         id="stop7"
         style="stop-color:#2785ff;stop-opacity:1;" /></radialGradient><radialGradient
       inkscape:collect="always"
       xlink:href="#linearGradient7"
       id="radialGradient9"
       cx="-171.06581"
       cy="9.2347174"
       fx="-171.06581"
       fy="33.91082"
       r="67.509665"
       gradientTransform="matrix(2.1582811,0,0,2.2000931,519.20812,-3.2381045)"
       gradientUnits="userSpaceOnUse" /><linearGradient
       inkscape:collect="always"
       xlink:href="#linearGradient17"
       id="linearGradient18"
       x1="-97.57505"
       y1="52.696056"
       x2="-97.57505"
       y2="189.2348"
       gradientUnits="userSpaceOnUse"
       gradientTransform="matrix(1.0406541,0,0,1.0406542,252.60467,35.149953)" /><linearGradient
       inkscape:collect="always"
       xlink:href="#linearGradient19"
       id="linearGradient20"
       x1="181.8721"
       y1="106.35018"
       x2="181.87209"
       y2="267.79321"
       gradientUnits="userSpaceOnUse" /></defs><rect
     style="opacity:1;fill:url(#linearGradient20);fill-opacity:0.40000001;stroke:#feaf27;stroke-width:0.05;stroke-linecap:round;stroke-linejoin:round;paint-order:stroke markers fill"
     id="rect19"
     width="171.06578"
     height="198.79205"
     x="64.46711"
     y="50.603973"
     rx="28.772532"
     ry="30.286877" /><rect
     style="fill:url(#linearGradient18);stroke:#feaf27;stroke-width:0.05;stroke-linecap:round;stroke-linejoin:round;paint-order:stroke markers fill"
     id="rect16"
     width="140.45639"
     height="143.17844"
     x="79.771805"
     y="89.716125"
     rx="9.254879"
     ry="9.25488" /><rect
     style="fill:url(#radialGradient9);stroke:#feaf27;stroke-width:0.05;stroke-linecap:round;stroke-linejoin:round;paint-order:stroke markers fill"
     id="rect7"
     width="140.45639"
     height="143.17844"
     x="79.771805"
     y="70.984344"
     rx="9.254879"
     ry="9.25488" /><g
     id="g11"
     transform="matrix(1.0406541,0,0,1.0406542,672.66884,37.231261)"
     style="stroke-width:0.960934"><rect
       style="opacity:1;fill:#ffffff;stroke:#feaf27;stroke-width:0.0480467;stroke-linecap:round;stroke-linejoin:round;paint-order:stroke markers fill"
       id="rect9"
       width="88.964241"
       height="11.09741"
       x="-546.73242"
       y="68.618988"
       rx="2.9593096"
       ry="2.9593096" /><rect
       style="opacity:1;fill:#ffffff;stroke:#feaf27;stroke-width:0.0480467;stroke-linecap:round;stroke-linejoin:round;paint-order:stroke markers fill"
       id="rect10"
       width="88.964241"
       height="11.09741"
       x="-546.73242"
       y="98.618988"
       rx="2.9593096"
       ry="2.9593096" /><rect
       style="opacity:1;fill:#ffffff;stroke:#feaf27;stroke-width:0.0480467;stroke-linecap:round;stroke-linejoin:round;paint-order:stroke markers fill"
       id="rect11"
       width="88.964241"
       height="11.09741"
       x="-546.73242"
       y="128.61899"
       rx="2.9593096"
       ry="2.9593096" /></g><g
     id="g15"
     transform="matrix(1.0406541,0,0,1.0406542,672.07474,37.231261)"
     style="stroke-width:0.960934"><rect
       style="opacity:1;fill:#006699;fill-opacity:1;stroke:#feaf27;stroke-width:0.0480467;stroke-linecap:round;stroke-linejoin:round;paint-order:stroke markers fill"
       id="rect12"
       width="15.563324"
       height="22.625673"
       x="-465.46109"
       y="20.66391"
       rx="7.781662"
       ry="7.781662" /><rect
       style="opacity:1;fill:#006699;fill-opacity:1;stroke:#feaf27;stroke-width:0.0480467;stroke-linecap:round;stroke-linejoin:round;paint-order:stroke markers fill"
       id="rect13"
       width="15.563324"
       height="22.625673"
       x="-493.46109"
       y="20.66391"
       rx="7.781662"
       ry="7.781662" /><rect
       style="opacity:1;fill:#006699;fill-opacity:1;stroke:#feaf27;stroke-width:0.0480467;stroke-linecap:round;stroke-linejoin:round;paint-order:stroke markers fill"
       id="rect14"
       width="15.563324"
       height="22.625673"
       x="-523.46106"
       y="20.66391"
       rx="7.781662"
       ry="7.781662" /><rect
       style="opacity:1;fill:#006699;fill-opacity:1;stroke:#feaf27;stroke-width:0.0480467;stroke-linecap:round;stroke-linejoin:round;paint-order:stroke markers fill"
       id="rect15"
       width="15.563324"
       height="22.625673"
       x="-553.46106"
       y="20.66391"
       rx="7.781662"
       ry="7.781662" /></g><path
     d="m 234.52437,77.818655 c 0.7737,0.773692 2.02734,0.778672 2.807,0.01 l 6.16664,-6.083493 c 3.82564,-3.849841 3.976,-8.001194 0.60043,-11.473251 l -2.55009,-2.56646 c -3.37557,-3.396679 -7.50094,-3.019292 -11.32658,0.679197 l -6.16365,6.140548 c -0.77967,0.777177 -0.78066,2.039779 -0.003,2.818551 z m -89.00946,90.929255 c 1.29944,-0.50384 2.4784,-1.27455 3.46021,-2.26232 l 78.95445,-79.376652 c 0.7707,-0.774688 0.7727,-2.026337 0.004,-2.804012 L 217.6067,73.853208 c -0.77767,-0.787135 -2.04824,-0.789226 -2.8289,-0.0047 l -79.14066,79.565942 c -0.89418,0.89817 -1.60813,1.95962 -2.10401,3.12563 l -6.37574,14.99092 c -0.67412,1.81226 1.20087,3.92522 3.00117,3.17045 z"
     fill="#006699"
     id="path18"
     style="stroke-width:0.999997" /></svg>
