<?xml version="1.0" encoding="UTF-8" standalone="no"?>
<svg
   width="24"
   height="24"
   version="1.1"
   id="svg13621"
   sodipodi:docname="textpieces.svg"
   xml:space="preserve"
   inkscape:version="1.3 (0e150ed6c4, 2023-07-21)"
   xmlns:inkscape="http://www.inkscape.org/namespaces/inkscape"
   xmlns:sodipodi="http://sodipodi.sourceforge.net/DTD/sodipodi-0.dtd"
   xmlns="http://www.w3.org/2000/svg"
   xmlns:svg="http://www.w3.org/2000/svg"><defs
     id="defs13625"><radialGradient
       fx="0"
       fy="0"
       cx="0"
       cy="0"
       r="1"
       gradientUnits="userSpaceOnUse"
       gradientTransform="matrix(0,16.5,-16.5,0,8.999651,0.749985)"
       spreadMethod="pad"
       id="radialGradient868-3"><stop
         style="stop-opacity:1;stop-color:#fafafa"
         offset="0"
         id="stop864-6" /><stop
         style="stop-opacity:1;stop-color:#c0c0c0"
         offset="1"
         id="stop866-7" /></radialGradient></defs><sodipodi:namedview
     id="namedview13623"
     pagecolor="#ffffff"
     bordercolor="#000000"
     borderopacity="0.25"
     inkscape:showpageshadow="2"
     inkscape:pageopacity="0.0"
     inkscape:pagecheckerboard="0"
     inkscape:deskcolor="#d1d1d1"
     showgrid="false"
     inkscape:zoom="18.73833"
     inkscape:cx="-3.7089752"
     inkscape:cy="16.143381"
     inkscape:window-width="2560"
     inkscape:window-height="998"
     inkscape:window-x="0"
     inkscape:window-y="0"
     inkscape:window-maximized="1"
     inkscape:current-layer="svg13621" /><g
     id="g854"
     transform="matrix(1.3333333,0,0,1.3333333,-4.5225532e-4,-3.504174e-5)"><g
       id="g856"><g
         id="g862"><path
           d="m 7.195,0.836 c 0.09,0 0.176,-0.012 0.258,-0.035 1.078,-0.071 2.156,-0.067 3.231,0.008 0.976,0.078 1.921,0.289 2.836,0.636 1.519,0.625 2.558,1.711 3.121,3.254 0.316,0.93 0.507,1.887 0.566,2.867 0.078,1.235 0.051,2.465 -0.086,3.696 -0.105,0.863 -0.328,1.691 -0.672,2.488 -0.637,1.383 -1.672,2.336 -3.101,2.859 C 12.191,17 11,17.207 9.773,17.227 8.398,17.301 7.035,17.195 5.684,16.918 3.203,16.367 1.668,14.852 1.09,12.375 0.844,11.262 0.73,10.133 0.754,8.992 0.727,7.781 0.855,6.582 1.141,5.402 1.75,3.09 3.219,1.656 5.547,1.102 6.09,0.969 6.641,0.879 7.195,0.836 Z"
           style="fill:url(#radialGradient868-3);fill-rule:evenodd;stroke:none"
           id="path870" /></g></g></g><path
     id="path13891"
     style="stroke-width:1;stroke:#000000;stroke-opacity:1;stroke-dasharray:none;paint-order:stroke markers fill;stroke-linejoin:round;stroke-linecap:round;opacity:0.2"
     d="m 7.7421873,4.5000086 c 0,2.6785321 1.071915,4.2855121 3.2148437,5.8925784 l 0.07031,0.04687 h -0.173828 a 13.975862,13.975862 0 0 0 0.0098,0.0078 H 6.0800783 v 0.517578 c 0,1.146205 0.922153,2.070312 2.068359,2.070312 h 0.517578 v -1.552734 h 1.5507807 c 0.286552,0 0.517579,0.231026 0.517579,0.517578 0,0.286552 -0.231027,0.517578 -0.517579,0.517578 H 9.6992183 v 0.517578 h 1.8300777 l -3.2519527,3.25 c -0.351723,0.350431 -0.534638,0.843292 -0.535156,1.339844 a 1.8734482,1.8734482 0 0 0 1.875,1.875 c 0.4965517,-5e-4 0.9894127,-0.183156 1.3398437,-0.535138 l 6.427734,-6.429688 c 0.351724,-0.350431 0.534638,-0.84134 0.535156,-1.33789 a 1.8734482,1.8734482 0 0 0 -1.875,-1.8750003 c -0.326375,3.39e-4 -0.649936,0.08016 -0.933593,0.234374 l -1.847657,-1.259765 z" /><path
     d="m 6.0793964,10.448276 v 0.517241 c 0,1.146207 0.9227586,2.068965 2.0689655,2.068965 h 0.5172413 v -1.551724 h 1.5517238 c 0.286552,0 0.517242,0.23069 0.517242,0.517242 0,0.286551 -0.23069,0.517241 -0.517242,0.517241 H 9.7000859 v 0.517241 h 5.6896551 c 0.716379,0 1.293103,-0.576724 1.293103,-1.293103 a 1.2905172,1.2905172 0 0 0 -0.840517,-1.212414 l 0.06466,-0.08069 z"
     fill="#e6e6e6"
     id="path13605"
     style="stroke-width:0.258621" /><path
     d="m 10.85431,10.439224 a 13.975862,13.975862 0 0 0 0.670603,0.535603 l 3.096466,2.045431 0.515431,0.02043 0.965689,-2.601724 z"
     opacity="0.1"
     id="path13607"
     style="stroke-width:0.258621" /><path
     d="m 7.7418102,4.4999999 c 0,2.6785344 1.071724,4.2856033 3.2146548,5.8926721 l 0.100604,0.06672 c 0.04034,0.0344 0.08276,0.06672 0.127758,0.0975 l 3.263017,2.228535 a 1.516293,1.516293 0 0 0 2.111897,-0.398276 1.5155172,1.5155172 0 0 0 -0.246983,-1.993448 l 0.001,-0.001 -0.0096,-0.0065 a 1.5478448,1.5478448 0 0 0 -0.1425,-0.11069 L 13.263362,8.2960343 Z"
     fill="#f9f9f9"
     id="path13609"
     style="stroke-width:0.258621" /><path
     d="M 16.045603,9.3214653 C 15.549051,9.3219825 15.056637,9.505086 14.706206,9.8570687 L 8.2776722,16.285603 C 7.9259481,16.636034 7.742586,17.128448 7.7420688,17.624999 a 1.8734482,1.8734482 0 0 0 1.8749999,1.875 c 0.4965513,-5.17e-4 0.9889653,-0.18362 1.3393963,-0.535603 l 6.428534,-6.428534 c 0.351725,-0.350431 0.535087,-0.842845 0.535604,-1.339397 a 1.8734482,1.8734482 0 0 0 -1.875,-1.8749997 z"
     fill="#e74b52"
     id="path13613"
     style="stroke-width:0.258621" /><path
     d="m 9.8847411,15.75 -0.267931,0.267931 0.4018969,0.401637 -0.2679314,0.267931 -0.4016379,-0.401896 -0.267931,0.267931 0.4018965,0.401897 -0.4018965,0.401637 0.267931,0.267931 0.4016379,-0.401896 0.2679314,0.267931 -0.4018969,0.401896 0.267931,0.267673 0.4018969,-0.401638 0.401638,0.401638 0.267931,-0.267673 -0.401897,-0.401896 0.267931,-0.267931 0.401897,0.401896 0.267672,-0.267931 -0.401638,-0.401637 0.401638,-0.401897 -0.267672,-0.267931 -0.401897,0.401896 -0.267931,-0.267931 0.401897,-0.401637 -0.26819,-0.267931 -0.401638,0.401896 z m 0.4018969,0.937499 0.267672,0.267932 -0.267672,0.267672 -0.267931,-0.267672 z"
     fill="#f9f9f9"
     id="path13615"
     style="stroke-width:0.258621" /><path
     d="M 9.3491377,6.1404309 V 6.6760343 L 12.563534,8.8859481 V 8.350086 Z"
     fill="#878787"
     id="path13617"
     style="stroke-width:0.258621" /></svg>
