<?xml version="1.0" encoding="UTF-8" standalone="no"?>
<svg
   width="24"
   height="24"
   version="1.1"
   id="svg60917"
   sodipodi:docname="tigervnc.svg"
   inkscape:version="1.2.2 (b0a8486541, 2022-12-01)"
   xmlns:inkscape="http://www.inkscape.org/namespaces/inkscape"
   xmlns:sodipodi="http://sodipodi.sourceforge.net/DTD/sodipodi-0.dtd"
   xmlns="http://www.w3.org/2000/svg"
   xmlns:svg="http://www.w3.org/2000/svg">
  <defs
     id="defs60921">
    <radialGradient
       fx="0"
       fy="0"
       cx="0"
       cy="0"
       r="1"
       gradientUnits="userSpaceOnUse"
       gradientTransform="matrix(0,22.000002,-22.000002,0,11.999554,1.000045)"
       spreadMethod="pad"
       id="radialGradient14942-0">
      <stop
         style="stop-opacity:1;stop-color:#ff9b68"
         offset="0"
         id="stop14938-3" />
      <stop
         style="stop-color:#ff7f2a;stop-opacity:1;"
         offset="1"
         id="stop14940-6" />
    </radialGradient>
  </defs>
  <sodipodi:namedview
     id="namedview60919"
     pagecolor="#ffffff"
     bordercolor="#000000"
     borderopacity="0.25"
     inkscape:showpageshadow="2"
     inkscape:pageopacity="0.0"
     inkscape:pagecheckerboard="0"
     inkscape:deskcolor="#d1d1d1"
     showgrid="false"
     inkscape:zoom="6.828125"
     inkscape:cx="22.993135"
     inkscape:cy="24.16476"
     inkscape:window-width="2560"
     inkscape:window-height="998"
     inkscape:window-x="1680"
     inkscape:window-y="0"
     inkscape:window-maximized="1"
     inkscape:current-layer="svg60917" />
  <path
     d="m 9.5928811,1.1146316 c 0.12,0 0.2346667,-0.016 0.344,-0.046667 1.4373329,-0.0946667 2.8746669,-0.0893334 4.3079999,0.010667 1.301333,0.104 2.561333,0.3853334 3.781333,0.848 2.025333,0.8333333 3.410667,2.2813333 4.161333,4.3386666 0.421334,1.2399999 0.676,2.5159999 0.754667,3.8226668 0.104,1.646666 0.068,3.286666 -0.114667,4.928 -0.14,1.150666 -0.437333,2.254666 -0.896,3.317333 -0.849333,1.844 -2.229333,3.114666 -4.134666,3.812 -1.542667,0.521333 -3.130667,0.797333 -4.766667,0.824 -1.833333,0.09867 -3.6506662,-0.04267 -5.4519995,-0.412 -3.3079999,-0.734667 -5.3546666,-2.754667 -6.1253332,-6.057333 -0.328,-1.484 -0.47999999,-2.989334 -0.448,-4.510667 -0.036,-1.62 0.1346667,-3.2133332 0.516,-4.7866665 0.812,-3.0826666 2.7706666,-4.9946666 5.8746665,-5.7333332 0.724,-0.1773333 1.4586666,-0.2973333 2.1973333,-0.3546667 z"
     style="fill:url(#radialGradient14942-0);fill-rule:evenodd;stroke:none;stroke-width:1.33333"
     id="path14944" />
  <path
     id="path63265"
     style="fill:#592c0f;fill-rule:evenodd;stroke:none;stroke-width:1.33333;fill-opacity:1"
     d="M 12.091797 1 C 11.747048 0.9990399 11.403518 1.0052967 11.058594 1.015625 C 10.92359 1.7696886 10.456477 2.9583073 9.9335938 3.8671875 C 9.0655556 5.3760143 8.5863863 6.0545188 9.2597656 6.3359375 C 9.933585 6.6173562 11.07499 4.3943618 11.53125 3.1621094 C 11.797299 2.4426203 12.125496 1.5205854 12.28125 1.0039062 C 12.218157 1.0033553 12.154897 1.0001757 12.091797 1 z M 7.0351562 1.5664062 C 6.8138247 1.6274944 6.5976432 1.6938309 6.3886719 1.7675781 C 6.5491191 3.3235314 6.8668907 4.1841194 7.3476562 4.3339844 C 7.489513 3.8543009 7.3778205 2.9187411 7.0351562 1.5664062 z M 17.560547 3.6503906 C 17.381743 3.6561206 17.19238 3.6700174 16.990234 3.6933594 C 15.373949 3.8796505 11.516494 5.0344789 12.130859 5.9355469 C 12.745224 6.836175 14.597778 5.4833947 16.597656 5.1914062 C 18.597093 4.8994175 20.793704 5.8113476 21.3125 5.5761719 C 21.830415 5.3409951 21.28932 4.6312377 20.357422 4.2753906 C 19.541352 3.9640244 18.812618 3.6094331 17.560547 3.6503906 z M 3.34375 3.7246094 C 3.0434935 4.0510448 2.7734092 4.4090533 2.5332031 4.796875 C 3.0707519 6.0411753 3.2363531 7.0437715 3.0117188 7.7890625 C 2.5105383 9.4524708 1.3564168 11.971604 3.4941406 13.498047 C 5.6314255 15.02493 6.4179603 15.025364 7.2578125 15.941406 C 8.0976637 16.857448 9.4583439 17.163063 10.251953 16.857422 C 11.046002 16.552221 13.089844 16.857422 13.089844 16.857422 L 13.09375 16.857422 C 13.15365 16.856541 13.665908 16.840315 13.089844 16.552734 C 12.479002 16.247534 10.431154 15.787109 9.7753906 15.787109 C 9.1196273 15.787109 7.7324738 13.803689 5.9003906 13.498047 C 5.0636205 13.358879 4.5274349 13.076224 4.1914062 12.578125 C 5.5993818 12.401963 6.6857476 12.539314 7.4511719 12.986328 C 8.6799016 13.704187 10.570104 14.344052 12.158203 14.023438 C 13.746744 13.701942 14.324009 12.250632 15.867188 10.873047 C 17.410365 9.4954615 19.555333 8.441548 19.210938 7.6074219 C 18.8661 6.7737357 17.85952 7.6074219 17.160156 7.6074219 L 17.082031 7.6074219 C 16.176118 7.6083029 11.84488 7.629145 10.417969 8.2871094 C 8.9448142 8.9666537 8.0783082 10.36264 7.4511719 9.7324219 C 6.8240355 9.1022025 6.8230319 8.3753391 6.9648438 7.9921875 C 7.1066526 7.6090349 6.6230469 7.7059248 6.6230469 7.9921875 C 6.6230469 8.2573112 6.2777682 9.4608518 6.6230469 10.201172 C 6.6433069 10.245212 5.7801079 10.500464 4.7949219 10.873047 C 4.3443883 11.043484 3.9778611 10.942651 3.6933594 10.572266 C 3.6805794 10.302052 3.6727931 10.032233 3.6738281 9.7617188 C 3.6738281 7.3187932 4.3568602 6.8190479 3.9160156 5.3027344 C 3.7663075 4.7879328 3.5732204 4.2608068 3.34375 3.7246094 z M 22.810547 15.123047 C 20.821352 17.561979 16.996865 20.406496 13.035156 20.953125 C 8.8557154 21.529614 4.7744566 17.82396 3.7597656 18.486328 C 2.7450726 19.148256 7.8013865 23.238733 13.035156 22.667969 C 16.660385 22.272646 19.61789 20.80337 21.429688 19.257812 C 21.613261 18.967324 21.781294 18.660403 21.931641 18.333984 C 22.375895 17.30471 22.665366 16.23472 22.810547 15.123047 z " />
  <path
     d="m 16.387586,6.1487326 c -0.252352,0.00352 -0.505145,0.021139 -0.755295,0.057253 -1.519398,0.2219639 -2.951596,1.0538889 -3.822717,1.0472829 -1.122153,0.5646 -2.249149,1.115547 -4.531769,0.528927 -2.149178,-0.552268 -3.632462,0.312688 -4.407576,1.103655 A 10.632702,10.632702 0 0 0 2.709041,10.776511 c 0,0.290667 0.0053,0.560636 0.01806,0.811226 0.284502,0.36994 0.65268,0.470353 1.102774,0.299916 0.985627,-0.372583 1.848381,-0.628018 1.827682,-0.671618 -0.344837,-0.740321 0,-1.9448295 0,-2.2099535 0,-0.286263 0.484446,-0.383153 0.342635,0 -0.14181,0.383152 -0.140049,1.1111425 0.486648,1.7409225 0.626696,0.629779 1.492973,-0.7654255 2.966129,-1.4445295 1.426913,-0.658406 5.759619,-0.679105 6.665532,-0.679986 h 0.07751 c 0.699803,0 1.70657,-0.833687 2.051407,0 0.344397,0.833687 -1.801257,1.8880175 -3.344437,3.2651645 -1.54318,1.377147 -2.121432,2.830044 -3.709973,3.151099 C 9.604466,15.359808 7.715128,14.718137 6.485957,14.000277 5.720533,13.553265 4.634053,13.41718 3.226078,13.593342 3.562107,14.091 4.098521,14.37374 4.93485,14.512908 c 1.832086,0.305642 3.218481,2.288346 3.874685,2.288346 0.656204,0 2.703207,0.460223 3.314049,0.765424 0.380069,0.189815 0.28274,0.257637 0.158546,0.284502 0.376106,0.0097 0.91296,-0.07311 1.772631,-0.331625 2.802738,-0.844257 3.781759,-4.848862 4.548504,-5.881171 0.491052,-0.661489 1.390359,-1.200985 2.687793,-1.620691 V 8.1578615 a 5.9014295,5.9014295 0 0 0 -0.169996,-1.389038 6.691076,6.691076 0 0 0 -0.649598,-0.264244 0.38667575,0.38667575 0 0 1 -0.123313,0.08632 C 19.894533,6.7961285 18.154933,6.1240703 16.387587,6.148733 Z"
     fill="#ffffff"
     id="path61275"
     style="stroke-width:0.440405" />
  <path
     d="m 9.274479,11.706063 c -0.208752,0.389319 0.007,2.07563 0.651799,2.295392 0.645634,0.219322 2.04304,0.469913 2.678545,0.227249 0.635064,-0.242222 2.197622,-1.744004 2.197622,-2.133322 0,-0.389319 -0.546984,-2.4235496 -1.896385,-2.4235496 -1.349402,0 -3.422829,1.6449126 -3.631581,2.0342306 z"
     fill="#91ed98"
     id="path61279"
     style="stroke-width:0.440405" />
  <circle
     cx="12"
     cy="12"
     r="0.76322222"
     opacity="0.65"
     id="circle61281"
     style="stroke-width:0.440405" />
</svg>
