<?xml version="1.0" encoding="UTF-8" standalone="no"?>
<svg
   width="24"
   height="24"
   viewBox="0 0 6.349875 6.349875"
   version="1.1"
   id="svg4"
   sodipodi:docname="tixati.svg"
   inkscape:version="1.3 (0e150ed6c4, 2023-07-21)"
   xmlns:inkscape="http://www.inkscape.org/namespaces/inkscape"
   xmlns:sodipodi="http://sodipodi.sourceforge.net/DTD/sodipodi-0.dtd"
   xmlns="http://www.w3.org/2000/svg"
   xmlns:svg="http://www.w3.org/2000/svg">
  <defs
     id="defs4">
    <radialGradient
       id="paint0_radial_1_75"
       cx="0"
       cy="0"
       r="1"
       gradientUnits="userSpaceOnUse"
       gradientTransform="matrix(0,2.9103593,-2.9103593,0,3.1749374,0.26457812)">
      <stop
         stop-color="#FAFAFA"
         id="stop5" />
      <stop
         offset="1"
         stop-color="#D0D0D0"
         id="stop6" />
    </radialGradient>
  </defs>
  <sodipodi:namedview
     id="namedview4"
     pagecolor="#ffffff"
     bordercolor="#000000"
     borderopacity="0.25"
     inkscape:showpageshadow="2"
     inkscape:pageopacity="0.0"
     inkscape:pagecheckerboard="0"
     inkscape:deskcolor="#d1d1d1"
     inkscape:zoom="4.4801844"
     inkscape:cx="-39.953713"
     inkscape:cy="21.985702"
     inkscape:window-width="2560"
     inkscape:window-height="998"
     inkscape:window-x="0"
     inkscape:window-y="0"
     inkscape:window-maximized="1"
     inkscape:current-layer="svg4" />
  <path
     fill-rule="evenodd"
     clip-rule="evenodd"
     d="m 2.5389022,0.29463155 c 0.031707,3.3601e-4 0.062015,-0.003701 0.090922,-0.0121177 0.3798839,-0.0248846 0.7597123,-0.0238753 1.1395406,0.003029 0.3444016,0.0268339 0.6777965,0.10155611 1.0001585,0.2241669 C 5.3054528,0.73035203 5.6721845,1.1130537 5.8696656,1.6578095 5.982614,1.9857884 6.0492877,2.3230515 6.0697131,2.6695932 6.0979436,3.1047449 6.0878367,3.538944 6.0393925,3.9721907 6.0031453,4.2766936 5.9243274,4.5695287 5.8029919,4.8506694 5.5779418,5.3381546 5.2132473,5.6744069 4.7089085,5.8594264 4.3002146,5.9975097 3.8799588,6.0702158 3.4481143,6.0775182 2.9623754,6.1027854 2.4815126,6.0664323 2.0054942,5.9684855 1.1293226,5.7733062 0.58884242,5.239123 0.38405631,4.3659888 0.29715033,3.9729315 0.25775174,3.5750854 0.26585603,3.1724504 0.25615819,2.7443101 0.30161906,2.322226 0.40224076,1.9062086 0.61691945,1.0898184 1.1351724,0.58392656 1.9570023,0.38853826 2.1485013,0.34172116 2.3424688,0.31041893 2.5389022,0.29463155 Z"
     fill="url(#paint0_radial_1_75)"
     id="path1-1"
     style="fill:url(#paint0_radial_1_75);stroke-width:0.264578" />
  <g
     stroke-width="0.265"
     id="g8"
     transform="matrix(0.31541203,0,0,0.31541203,0.50434384,0.50245137)">
    <path
       d="M 4.34,12.614 7.627,4.29 h 1.676 l 3.574,8.247 -0.673,0.227 -3.32,-7.636 H 8.046 L 5.09,12.842 Z"
       fill="#c9371b"
       id="path5" />
    <path
       d="M 4.188,12.955 4.726,13.41 13.075,4.29 H 11.818 Z"
       fill="#4dcb32"
       id="path6" />
    <path
       d="M 12.532,13.316 13.051,12.842 5.115,4.29 H 3.858 Z"
       fill="#4dcb32"
       id="path7" />
    <path
       d="m 3.44,3.44 v 0.85 h 4.608 v 9.216 H 8.885 V 4.29 h 4.609 V 3.44 Z"
       fill="#1d8af3"
       id="path8" />
  </g>
</svg>
