<?xml version="1.0" encoding="UTF-8" standalone="no"?>
<svg
   width="24"
   height="24"
   style="isolation:isolate"
   version="1.1"
   id="svg3"
   sodipodi:docname="Todoist.svg"
   inkscape:version="1.3 (0e150ed6c4, 2023-07-21)"
   xmlns:inkscape="http://www.inkscape.org/namespaces/inkscape"
   xmlns:sodipodi="http://sodipodi.sourceforge.net/DTD/sodipodi-0.dtd"
   xmlns:xlink="http://www.w3.org/1999/xlink"
   xmlns="http://www.w3.org/2000/svg"
   xmlns:svg="http://www.w3.org/2000/svg">
  <defs
     id="defs3">
    <radialGradient
       fx="0"
       fy="0"
       cx="0"
       cy="0"
       r="1"
       gradientUnits="userSpaceOnUse"
       gradientTransform="matrix(0,8.249996,-8.249996,0,8.999992,0.750015)"
       spreadMethod="pad"
       id="radialGradient41229-5">
      <stop
         style="stop-color:#ff847e;stop-opacity:1;"
         offset="0"
         id="stop41225-0" />
      <stop
         style="stop-color:#f35852;stop-opacity:1;"
         offset="1"
         id="stop41227-3" />
    </radialGradient>
    <radialGradient
       inkscape:collect="always"
       xlink:href="#radialGradient41229-5"
       id="radialGradient11"
       gradientUnits="userSpaceOnUse"
       gradientTransform="matrix(0,10.999994,-10.999994,0,11.999535,0.9999852)"
       cx="0"
       cy="0"
       fx="0"
       fy="0"
       r="1"
       spreadMethod="pad" />
  </defs>
  <sodipodi:namedview
     id="namedview3"
     pagecolor="#ffffff"
     bordercolor="#000000"
     borderopacity="0.25"
     inkscape:showpageshadow="2"
     inkscape:pageopacity="0.0"
     inkscape:pagecheckerboard="0"
     inkscape:deskcolor="#d1d1d1"
     inkscape:zoom="8.9603687"
     inkscape:cx="33.369162"
     inkscape:cy="30.523297"
     inkscape:window-width="2560"
     inkscape:window-height="998"
     inkscape:window-x="0"
     inkscape:window-y="0"
     inkscape:window-maximized="1"
     inkscape:current-layer="svg3" />
  <path
     d="m 9.592879,1.1146319 c 0.12,0 0.234667,-0.016 0.344,-0.046667 1.437333,-0.0946667 2.874667,-0.0893333 4.308,0.010667 1.301333,0.104 2.561333,0.3853333 3.781333,0.8479999 2.025333,0.8333334 3.410667,2.2813333 4.161333,4.3386666 0.421334,1.24 0.676,2.5159999 0.754667,3.8226666 0.104,1.646667 0.068,3.286667 -0.114667,4.928 -0.14,1.150666 -0.437333,2.254666 -0.896,3.317333 -0.849333,1.844 -2.229333,3.114667 -4.134666,3.812 -1.542667,0.521333 -3.130667,0.797333 -4.766667,0.824 -1.833333,0.09867 -3.650666,-0.04267 -5.452,-0.412 -3.307999,-0.734667 -5.354666,-2.754667 -6.125333,-6.057333 -0.328,-1.484 -0.48,-2.989333 -0.448,-4.510667 -0.036,-1.614666 0.134667,-3.213333 0.516,-4.7866663 0.812,-3.0826666 2.770667,-4.9946665 5.874667,-5.7333332 0.724,-0.1773333 1.458666,-0.2973333 2.197333,-0.3546666 z"
     style="fill:url(#radialGradient11);fill-rule:evenodd;stroke:none;stroke-width:1.33333"
     id="path7" />
  <path
     id="path14"
     style="fill:#ffffff;fill-rule:evenodd;stroke:none;stroke-width:1.33333"
     d="M 12.824219,5.5 C 12.719079,5.499575 12.6137,5.52233 12.533203,5.56836 L 5.365234,9.673829 C 5.168839,9.786375 4.850321,9.784795 4.654297,9.671829 L 1.388672,7.79097 C 1.278371,8.320686 1.192082,8.853824 1.128906,9.388626 l 3.462891,2.011719 c 0.231055,0.134142 0.606091,0.135741 0.837891,0.002 l 8.359374,-4.822266 c 0.294018,-0.169564 0.29329,-0.446505 0,-0.617187 L 13.115234,5.570313 c -0.07994,-0.0466 -0.185876,-0.06989 -0.291015,-0.07031 z" />
  <path
     id="path13"
     style="fill:#ffffff;fill-rule:evenodd;stroke:none;stroke-width:1.33333"
     d="m 12.824219,9.003906 c -0.10514,-3.73e-4 -0.210519,0.02233 -0.291016,0.06836 L 5.365234,13.177734 C 5.168839,13.29028 4.850321,13.288699 4.654297,13.175834 L 1.009766,11.076225 c -0.008,0.303829 -0.01266,0.609028 -0.0059,0.914062 -0.0059,0.278385 -0.0025,0.554752 0.0039,0.832032 l 3.583985,2.082031 c 0.231055,0.134143 0.606091,0.135741 0.837891,0.002 l 8.359374,-4.822266 c 0.294018,-0.169563 0.29329,-0.446505 0,-0.617187 L 13.115188,9.074319 c -0.07994,-0.0464 -0.185876,-0.06994 -0.291015,-0.07031 z" />
  <path
     id="path12"
     style="fill:#ffffff;fill-rule:evenodd;stroke:none;stroke-width:1.33333"
     d="m 12.824219,12.498047 c -0.10514,-3.78e-4 -0.210519,0.02233 -0.291016,0.06836 l -7.167969,4.105469 c -0.196395,0.112546 -0.514913,0.110966 -0.710937,-0.002 L 1.138672,14.644485 c 0.0749,0.621827 0.178549,1.240588 0.314453,1.855469 0.007,0.03007 0.01621,0.05803 0.02344,0.08789 L 4.5918,18.398391 c 0.231055,0.134141 0.606091,0.13574 0.837891,0.002 l 8.359374,-4.822266 c 0.294018,-0.169564 0.29329,-0.446506 0,-0.617187 l -0.673828,-0.392579 c -0.07994,-0.04641 -0.185876,-0.06993 -0.291015,-0.07031 z" />
</svg>
