<?xml version="1.0" encoding="UTF-8" standalone="no"?>
<svg
   width="24"
   height="24"
   version="1.1"
   id="svg1"
   sodipodi:docname="tutanota-desktop.svg"
   inkscape:version="1.3 (0e150ed6c4, 2023-07-21)"
   xmlns:inkscape="http://www.inkscape.org/namespaces/inkscape"
   xmlns:sodipodi="http://sodipodi.sourceforge.net/DTD/sodipodi-0.dtd"
   xmlns="http://www.w3.org/2000/svg"
   xmlns:svg="http://www.w3.org/2000/svg">
  <defs
     id="defs1">
    <radialGradient
       fx="0"
       fy="0"
       cx="0"
       cy="0"
       r="1"
       gradientUnits="userSpaceOnUse"
       gradientTransform="matrix(0,10.999994,-10.999994,0,11.999535,0.9999852)"
       spreadMethod="pad"
       id="radialGradient41229-5">
      <stop
         style="stop-opacity:1;stop-color:#ff5151"
         offset="0"
         id="stop41225-0" />
      <stop
         style="stop-color:#e2434b;stop-opacity:1;"
         offset="1"
         id="stop41227-3" />
    </radialGradient>
  </defs>
  <sodipodi:namedview
     id="namedview1"
     pagecolor="#ffffff"
     bordercolor="#000000"
     borderopacity="0.25"
     inkscape:showpageshadow="2"
     inkscape:pageopacity="0.0"
     inkscape:pagecheckerboard="0"
     inkscape:deskcolor="#d1d1d1"
     inkscape:zoom="3.4250485"
     inkscape:cx="26.71495"
     inkscape:cy="6.5692501"
     inkscape:window-width="1920"
     inkscape:window-height="998"
     inkscape:window-x="2560"
     inkscape:window-y="0"
     inkscape:window-maximized="1"
     inkscape:current-layer="svg1" />
  <path
     d="m 9.5928791,1.1146319 c 0.12,0 0.2346667,-0.016 0.344,-0.046667 1.4373329,-0.0946667 2.8746669,-0.0893333 4.3079999,0.010667 1.301333,0.104 2.561333,0.3853333 3.781333,0.8479999 2.025333,0.8333334 3.410667,2.2813333 4.161333,4.3386666 0.421334,1.24 0.676,2.5159999 0.754667,3.8226666 0.104,1.646667 0.068,3.286667 -0.114667,4.928 -0.14,1.150666 -0.437333,2.254666 -0.896,3.317333 -0.849333,1.844 -2.229333,3.114667 -4.134666,3.812 -1.542667,0.521333 -3.130667,0.797333 -4.766667,0.824 -1.833333,0.09867 -3.6506662,-0.04267 -5.4519995,-0.412 -3.3079999,-0.734667 -5.3546666,-2.754667 -6.1253332,-6.057333 -0.328,-1.484 -0.47999999,-2.989333 -0.448,-4.510667 -0.036,-1.614666 0.1346667,-3.213333 0.516,-4.7866663 0.812,-3.0826666 2.7706666,-4.9946665 5.8746665,-5.7333332 0.724,-0.1773333 1.4586666,-0.2973333 2.1973333,-0.3546666 z"
     style="fill:url(#radialGradient41229-5);fill-rule:evenodd;stroke:none;stroke-width:1.33333"
     id="path41231" />
  <path
     id="path3"
     style="fill:#ffffff;fill-rule:evenodd;stroke:none;stroke-width:1.33333"
     d="m 12.685547,8.8476562 c 0,0 1.569107,0.2541052 1.564453,0.8984376 0,0.02327 7.17e-4,0.043566 -0.0039,0.066406 -0.09181,0.5753722 -1.663659,0.6606272 -2.753906,0.7207032 -0.226764,0.01269 -0.433605,0.02468 -0.601563,0.03906 -0.140882,0.01227 -0.317044,0.02109 -0.517578,0.03125 h -0.0019 c -1.176976,0.06134 -3.177067,0.164415 -3.746094,1.158203 a 0.37906963,0.37906963 0 0 0 -0.05078,0.177734 c -0.0017,0.435761 0.928543,0.81278 2.048828,1.267578 1.60766,0.652372 3.604182,1.464414 3.789062,2.830078 0.0093,0.07404 0.01563,0.152526 0.01563,0.226563 -0.0034,1.844687 -3.093175,3.522327 -7.378906,5.341797 0.740585,0.421727 1.581102,0.740589 2.529297,0.951172 1.801331,0.369329 3.617841,0.510779 5.451172,0.412109 1.635998,-0.02667 3.224914,-0.302886 4.767578,-0.824219 1.905332,-0.697332 3.285433,-1.966548 4.134766,-3.810547 0.01338,-0.031 0.024,-0.06268 0.03711,-0.09375 -0.611703,-1.3656 -1.600674,-2.602176 -3.183594,-3.423828 C 16.684622,13.722771 13.919619,13.131134 11.855469,12.68945 10.245693,12.344649 9.060747,12.092394 8.951172,11.763669 a 0.34607027,0.34607027 0 0 1 -0.01367,-0.09375 c 0.0042,-0.514029 1.600659,-0.634779 2.646484,-0.685547 1.1059,-0.05585 2.78088,-0.204893 2.984375,-1.0019533 0.0063,-0.02538 0.01156,-0.049259 0.01367,-0.074219 8.46e-4,-0.01227 0,-0.025259 0,-0.037109 0.0042,-0.7416393 -1.896484,-1.0234376 -1.896484,-1.0234376 z" />
</svg>
