<?xml version="1.0" encoding="UTF-8" standalone="no"?>
<svg
   width="24"
   height="24"
   viewBox="0 0 6.349875 6.349875"
   version="1.1"
   id="svg2"
   sodipodi:docname="typora.svg"
   inkscape:version="1.3 (0e150ed6c4, 2023-07-21)"
   xmlns:inkscape="http://www.inkscape.org/namespaces/inkscape"
   xmlns:sodipodi="http://sodipodi.sourceforge.net/DTD/sodipodi-0.dtd"
   xmlns="http://www.w3.org/2000/svg"
   xmlns:svg="http://www.w3.org/2000/svg"
   xmlns:sketch="http://www.bohemiancoding.com/sketch/ns">
  <defs
     id="defs2" />
  <sodipodi:namedview
     id="namedview2"
     pagecolor="#ffffff"
     bordercolor="#000000"
     borderopacity="0.25"
     inkscape:showpageshadow="2"
     inkscape:pageopacity="0.0"
     inkscape:pagecheckerboard="0"
     inkscape:deskcolor="#d1d1d1"
     inkscape:zoom="9.6875"
     inkscape:cx="31.948387"
     inkscape:cy="31.948387"
     inkscape:window-width="2560"
     inkscape:window-height="998"
     inkscape:window-x="0"
     inkscape:window-y="0"
     inkscape:window-maximized="1"
     inkscape:current-layer="svg2" />
  <path
     d="m 3.1749374,0.26457811 c -2.64578117,0 -2.91035929,1.32289059 -2.91035929,2.91035929 0,2.116625 0.79373439,2.9103592 2.91035929,2.9103592 2.116625,0 2.9103592,-0.7937342 2.9103592,-2.9103592 0,-1.5874687 -0.264578,-2.91035929 -2.9103592,-2.91035929 z"
     sketch:type="MSShapeGroup"
     id="path6"
     style="font-variation-settings:normal;display:inline;vector-effect:none;fill:#f2f2f2;fill-opacity:1;stroke-width:0.295341;stroke-linecap:butt;stroke-linejoin:miter;stroke-miterlimit:4;stroke-dasharray:none;stroke-dashoffset:0;stroke-opacity:1;-inkscape-stroke:none;stop-color:#000000"
     sodipodi:nodetypes="sssss"
     inkscape:label="Shape" />
  <path
     d="m 3.1749374,0.52254189 c -2.41126864,0 -2.65239551,1.20563431 -2.65239551,2.65239551 0,1.929015 0.72338061,2.6523954 2.65239551,2.6523954 1.929015,0 2.6523954,-0.7233804 2.6523954,-2.6523954 0,-1.4467612 -0.2411267,-2.65239551 -2.6523954,-2.65239551 z"
     sketch:type="MSShapeGroup"
     id="path45683"
     style="font-variation-settings:normal;display:inline;vector-effect:none;fill:#dadada;fill-opacity:1;stroke-width:0.269163;stroke-linecap:butt;stroke-linejoin:miter;stroke-miterlimit:4;stroke-dasharray:none;stroke-dashoffset:0;stroke-opacity:1;-inkscape-stroke:none;stop-color:#000000"
     sodipodi:nodetypes="sssss"
     inkscape:label="Shape" />
  <path
     d="M 4.3389779,1.7197578 H 2.0108968 L 1.9380261,2.8839703 H 2.1562949 C 2.1855119,2.6825447 2.2164476,2.4855876 2.2621636,2.3566889 2.3704384,2.0624563 2.4553397,2.0174277 2.7382292,2.0174277 c 0.1374919,0 0.2182683,0.044341 0.2182683,0.145054 v 1.9953509 c 0,0.1691149 0,0.1811455 -0.3148563,0.1811455 H 2.5199609 V 4.6301172 H 3.8295712 V 4.3389781 H 3.7078908 c -0.3334179,0 -0.3148565,-0.012031 -0.3148565,-0.1811455 V 2.1621379 c 0,-0.1007127 0.080776,-0.1450539 0.2182683,-0.1450539 0.2543602,0 0.3471672,0.028873 0.4513173,0.270859 0.062558,0.1488349 0.097619,0.3657284 0.1306173,0.5956835 h 0.2186117 z"
     fill="#4d4d4d"
     id="path3"
     style="stroke-width:0.343729" />
</svg>
