<?xml version="1.0" encoding="UTF-8" standalone="no"?>
<svg
   width="24"
   height="24"
   version="1.1"
   id="svg7"
   sodipodi:docname="ubiquity.svg"
   inkscape:version="1.3 (0e150ed6c4, 2023-07-21)"
   xmlns:inkscape="http://www.inkscape.org/namespaces/inkscape"
   xmlns:sodipodi="http://sodipodi.sourceforge.net/DTD/sodipodi-0.dtd"
   xmlns:xlink="http://www.w3.org/1999/xlink"
   xmlns="http://www.w3.org/2000/svg"
   xmlns:svg="http://www.w3.org/2000/svg">
  <sodipodi:namedview
     id="namedview7"
     pagecolor="#ffffff"
     bordercolor="#000000"
     borderopacity="0.25"
     inkscape:showpageshadow="2"
     inkscape:pageopacity="0.0"
     inkscape:pagecheckerboard="0"
     inkscape:deskcolor="#d1d1d1"
     inkscape:zoom="9.6875"
     inkscape:cx="31.948387"
     inkscape:cy="31.948387"
     inkscape:window-width="2560"
     inkscape:window-height="998"
     inkscape:window-x="0"
     inkscape:window-y="0"
     inkscape:window-maximized="1"
     inkscape:current-layer="svg7" />
  <defs
     id="defs3">
    <linearGradient
       id="a"
       x1="23.683001"
       x2="25.655001"
       y1="-25.544001"
       y2="75.049004"
       gradientUnits="userSpaceOnUse">
      <stop
         stop-color="#111"
         offset="0"
         id="stop1" />
      <stop
         stop-color="#4c4c4c"
         offset=".549"
         id="stop2" />
      <stop
         stop-color="#888"
         offset="1"
         id="stop3" />
    </linearGradient>
    <linearGradient
       id="b"
       x1="23.683001"
       x2="25.655001"
       y1="-25.544001"
       y2="75.049004"
       gradientUnits="userSpaceOnUse"
       xlink:href="#a" />
    <radialGradient
       fx="0"
       fy="0"
       cx="0"
       cy="0"
       r="1"
       gradientUnits="userSpaceOnUse"
       gradientTransform="matrix(0,21.999999,-21.999999,0,11.999534,0.99992097)"
       spreadMethod="pad"
       id="radialGradient60965-4">
      <stop
         style="stop-color:#e9aa80;stop-opacity:1;"
         offset="0"
         id="stop60961-7" />
      <stop
         style="stop-color:#d35400;stop-opacity:1;"
         offset="1"
         id="stop60963-4" />
    </radialGradient>
    <radialGradient
       fx="0"
       fy="0"
       cx="0"
       cy="0"
       r="1"
       gradientUnits="userSpaceOnUse"
       gradientTransform="matrix(0,21.999999,-21.999999,0,11.999534,0.99992097)"
       spreadMethod="pad"
       id="radialGradient60983-4">
      <stop
         style="stop-opacity:1;stop-color:#a3dadb"
         offset="0"
         id="stop60979-3" />
      <stop
         style="stop-color:#e9aa80;stop-opacity:1;"
         offset="1"
         id="stop60981-0" />
    </radialGradient>
    <clipPath
       clipPathUnits="userSpaceOnUse"
       id="clipPath7">
      <g
         id="g8"
         transform="matrix(0.75000002,0,0,0.75000002,3.391915e-4,-0.02633975)">
        <path
           d="M -4.5225532e-4,0.03511966 H 65.332879 V 65.368451 H -4.5225532e-4 Z"
           id="path8"
           style="stroke-width:1.33333" />
      </g>
    </clipPath>
  </defs>
  <path
     d="m 9.5928808,1.1137863 c 0.12,0 0.2346667,-0.016 0.344,-0.048 1.4373332,-0.0933333 2.8746662,-0.088 4.3080002,0.010667 1.301333,0.104 2.561333,0.3853333 3.781333,0.8493333 2.025333,0.8333333 3.410667,2.2813333 4.161333,4.3386665 0.421334,1.24 0.676,2.516 0.754667,3.8279999 0.104,1.64 0.068,3.281333 -0.114667,4.921333 -0.14,1.152 -0.437333,2.256 -0.896,3.318667 -0.849333,1.842666 -2.229333,3.114666 -4.134666,3.811999 -1.542667,0.526667 -3.130667,0.797334 -4.766667,0.828 -1.833333,0.09333 -3.6506665,-0.04133 -5.4519998,-0.416 -3.3079999,-0.734666 -5.3546665,-2.756 -6.1253332,-6.051999 -0.328,-1.490667 -0.47999995,-2.990667 -0.4479999,-4.516 -0.036,-1.614667 0.1346666,-3.2133333 0.5159999,-4.7813332 0.812,-3.0893333 2.7706666,-4.9999999 5.8746666,-5.7399999 0.7239999,-0.1773333 1.4586666,-0.292 2.1973332,-0.3533336 z"
     style="fill:url(#radialGradient60965-4);fill-rule:evenodd;stroke:none;stroke-width:1.33333"
     id="path60967" />
  <path
     d="m 1.2702144,15.472453 c -0.00533,0.01067 -0.010667,0.016 -0.016,0.02667 0.057333,0.338667 0.12,0.672 0.1986666,1.005334 0.7706667,3.295999 2.8173333,5.317333 6.1253332,6.051999 1.8013333,0.374667 3.6186668,0.509334 5.4519998,0.416 1.636,-0.03067 3.22,-0.301333 4.766667,-0.828 1.905333,-0.697333 3.285333,-1.969333 4.134666,-3.811999 0.396,-0.906667 0.656,-1.849334 0.817334,-2.824 -0.0093,-0.0093 -0.0093,-0.02533 -0.02,-0.036 z"
     style="fill:url(#radialGradient60983-4);stroke:none;stroke-width:1.33333"
     id="path60985" />
  <g
     id="g60997"
     transform="matrix(1.3333333,0,0,1.3333333,-4.5225532e-4,0.03511966)"
     style="opacity:1;fill:#604837;fill-opacity:1"
     clip-path="url(#clipPath7)">
    <path
       d="m 9.891,14.109 h 2.652 c 0.352,1.012 1.844,0.754 1.84,-0.316 0,-0.523 -0.426,-0.949 -0.949,-0.949 -0.403,0.004 -0.758,0.254 -0.891,0.633 H 9.891 c 0.058,0.316 0.058,0.316 0,0.632"
       style="fill:#604837;fill-opacity:1;fill-rule:nonzero;stroke:none"
       id="path60995" />
  </g>
  <path
     d="m 6.0928809,17.160453 c -0.7026666,0 -1.2653333,0.568 -1.2653333,1.265333 0,0.702667 0.5626667,1.265333 1.2653333,1.265333 0.532,0 1.0106667,-0.338666 1.188,-0.844 h 3.5306661 c 0.474667,1.344 2.458667,1.005333 2.453334,-0.421333 0,-0.697333 -0.562667,-1.265333 -1.265334,-1.265333 -0.530666,0.0053 -1.010666,0.338666 -1.188,0.844 H 7.2808809 c -0.1773333,-0.505334 -0.656,-0.838667 -1.188,-0.844"
     style="fill:#d35400;fill-opacity:1;fill-rule:nonzero;stroke:none;stroke-width:1.33333"
     id="path61003" />
  <path
     d="m 11.275547,4.0764529 v 7.2346661 l -3.2546661,-3.2546662 -1.084,1.0826666 5.0626661,5.0679996 5.068,-5.0679996 -1.089333,-1.0826666 -3.254667,3.2546662 V 4.0764529 Z"
     style="fill:#fcfcfc;fill-opacity:1;fill-rule:nonzero;stroke:none;stroke-width:1.33333"
     id="path61005" />
</svg>
