<?xml version="1.0" encoding="UTF-8" standalone="no"?>
<svg
   width="24"
   height="24"
   viewBox="0 0 6.349875 6.349875"
   version="1.1"
   id="svg3"
   sodipodi:docname="uget-icon.svg"
   inkscape:version="1.3 (0e150ed6c4, 2023-07-21)"
   xmlns:inkscape="http://www.inkscape.org/namespaces/inkscape"
   xmlns:sodipodi="http://sodipodi.sourceforge.net/DTD/sodipodi-0.dtd"
   xmlns="http://www.w3.org/2000/svg"
   xmlns:svg="http://www.w3.org/2000/svg">
  <defs
     id="defs3">
    <radialGradient
       id="paint0_radial_2_129"
       cx="0"
       cy="0"
       r="1"
       gradientUnits="userSpaceOnUse"
       gradientTransform="matrix(0,5.8207186,-5.8207186,0,3.1749334,0.26459256)">
      <stop
         stop-color="#FAFAFA"
         id="stop8838" />
      <stop
         offset="1"
         stop-color="#B0B0B0"
         id="stop8840" />
    </radialGradient>
  </defs>
  <sodipodi:namedview
     id="namedview3"
     pagecolor="#ffffff"
     bordercolor="#000000"
     borderopacity="0.25"
     inkscape:showpageshadow="2"
     inkscape:pageopacity="0.0"
     inkscape:pagecheckerboard="0"
     inkscape:deskcolor="#d1d1d1"
     inkscape:zoom="6.3359375"
     inkscape:cx="18.150432"
     inkscape:cy="26.436498"
     inkscape:window-width="2560"
     inkscape:window-height="998"
     inkscape:window-x="0"
     inkscape:window-y="0"
     inkscape:window-maximized="1"
     inkscape:current-layer="svg3" />
  <path
     fill-rule="evenodd"
     clip-rule="evenodd"
     d="m 2.6298231,0.28252566 c -0.028905,0.00842 -0.059212,0.012456 -0.09092,0.01212 -0.196436,0.01579 -0.3904035,0.047087 -0.5819025,0.093907 C 1.135168,0.58394096 0.616915,1.0898328 0.4022388,1.906223 c -0.100626,0.41602 -0.146085,0.8380909 -0.136384,1.2662577 -0.0081,0.4026349 0.03129,0.8004811 0.1182,1.1935383 0.2047832,0.8731343 0.745266,1.4073172 1.6214403,1.6024972 0.4760184,0.09795 0.9568759,0.134299 1.4426148,0.108979 0.4318445,-0.0073 0.8521003,-0.08001 1.2607942,-0.218091 C 5.2132429,5.6743842 5.5779374,5.3381319 5.8029875,4.8506468 5.924323,4.5695061 6.0031409,4.276671 6.0393881,3.972168 6.0878321,3.5389214 6.0979391,3.1047222 6.0697091,2.6695706 6.0492837,2.3230367 5.98261,1.9857711 5.8696616,1.6577894 5.6721805,1.1130337 5.3054488,0.73033476 4.7695193,0.50968976 4.4471573,0.38707896 4.1137624,0.31235416 3.7693611,0.28552596 c -0.3798283,-0.026881 -0.7596567,-0.027891 -1.139538,-0.003 z"
     fill="url(#paint0_radial_2_129)"
     id="path8836"
     style="fill:url(#paint0_radial_2_129);stroke-width:0.264578"
     sodipodi:nodetypes="cccccccccccccccc" />
  <g
     id="g6"
     transform="matrix(0.24558242,0,0,0.24558242,6.2937583,1.1281444)">
    <path
       d="m -10.847252,0.794 a 0.792,0.792 0 0 0 -0.793999,0.793 v 3.97 h 1.585 V 1.583 a 0.789,0.789 0 0 0 -0.791001,-0.79 z m 0.79,6.356 -2.772999,2.775 a 0.522,0.522 0 0 1 -0.396999,0.173 v 3.395 h 0.794 c 0.44,0 0.793,0.354 0.793,0.794 v 0.794 a 0.79250142,0.79250142 0 1 0 1.584999,0.003 V 7.15 Z"
       fill="#cccccc"
       opacity="0.9"
       style="paint-order:stroke fill markers"
       id="path4" />
    <path
       d="m -18.255869,3.9687 c -0.879464,0 -1.58748,0.7080161 -1.58748,1.58748 v 7.9374 c 0,0.879464 0.708016,1.58748 1.58748,1.58748 h 3.439539 v -0.79374 c 0,-0.439732 0.354008,-0.79374 0.79374,-0.79374 h 1.58748 c 0.439732,0 0.79374,0.354008 0.79374,0.79374 v 0.79374 h 4.497858 c 0.879464,0 1.5874795,-0.708016 1.5874795,-1.58748 v -7.9374 c 0,-0.8794639 -0.7080155,-1.58748 -1.5874795,-1.58748 h -4.497858 v 1.58748 h 1.986994 c 0.605094,0 0.630759,0.5609096 0.397399,0.7942692 l -3.574474,3.5744758 c -0.138376,0.138375 -0.275956,0.177269 -0.3974,0.173035 -0.121706,0.0042 -0.258494,-0.03466 -0.39687,-0.173035 L -17.200724,6.3504492 C -17.434348,6.116825 -17.408684,5.55618 -16.803325,5.55618 h 1.989905 V 3.9687 Z"
       fill="#5fd391"
       style="stroke-width:0.26458;paint-order:stroke fill markers"
       id="path5" />
    <path
       d="m -14.019251,0.794 a 0.792,0.792 0 0 0 -0.794,0.793 v 3.97 h -1.989998 c -0.605,0 -0.631,0.56 -0.397,0.793 l 3.573998,3.575 a 0.52,0.52 0 0 0 0.397,0.173 0.522,0.522 0 0 0 0.398,-0.173 L -9.257252,6.35 c 0.234001,-0.233 0.208,-0.794 -0.396999,-0.794 h -1.987 V 1.587 c 0,-0.44 0.354,-0.793 0.793999,-0.793 h -1.851999 z m -0.003,12.7 a 0.792,0.792 0 0 0 -0.794,0.793 v 0.794 c 0,0.44 0.354,0.794 0.794,0.794 h 3.174999 a 0.792,0.792 0 0 1 -0.793999,-0.794 v -0.794 a 0.792,0.792 0 0 0 -0.794,-0.793 z"
       fill="#f9f9f9"
       opacity="0.9"
       style="paint-order:stroke markers fill"
       id="path6" />
  </g>
</svg>
