<?xml version="1.0" encoding="UTF-8" standalone="no"?>
<svg
   width="24"
   height="24"
   version="1.1"
   id="svg2000"
   sodipodi:docname="variety.svg"
   inkscape:version="1.2.2 (b0a8486541, 2022-12-01)"
   xmlns:inkscape="http://www.inkscape.org/namespaces/inkscape"
   xmlns:sodipodi="http://sodipodi.sourceforge.net/DTD/sodipodi-0.dtd"
   xmlns="http://www.w3.org/2000/svg"
   xmlns:svg="http://www.w3.org/2000/svg">
  <defs
     id="defs2004">
    <radialGradient
       fx="0"
       fy="0"
       cx="0"
       cy="0"
       r="1"
       gradientUnits="userSpaceOnUse"
       gradientTransform="matrix(0,16.500002,-16.500002,0,8.999659,0.749973)"
       spreadMethod="pad"
       id="radialGradient74494-3">
      <stop
         style="stop-opacity:1;stop-color:#a4a4a4"
         offset="0"
         id="stop74490-1" />
      <stop
         style="stop-opacity:1;stop-color:#626262"
         offset="1"
         id="stop74492-8" />
    </radialGradient>
    <linearGradient
       x1="-240.47"
       y1="-60.605"
       x2="-240.47"
       y2="-29.025999"
       gradientUnits="userSpaceOnUse"
       gradientTransform="matrix(0.18118,0,0,0.178055,52.192432,15.631391)"
       spreadMethod="pad"
       id="linearGradient74518">
      <stop
         style="stop-opacity:1;stop-color:#4285db"
         offset="0"
         id="stop74514" />
      <stop
         style="stop-opacity:1;stop-color:#42b9db"
         offset="1"
         id="stop74516" />
    </linearGradient>
    <clipPath
       clipPathUnits="userSpaceOnUse"
       id="clipPath74530-4">
      <path
         d="M 0,0 H 19 V 19 H 0 Z"
         id="path74528-3" />
    </clipPath>
  </defs>
  <sodipodi:namedview
     id="namedview2002"
     pagecolor="#ffffff"
     bordercolor="#000000"
     borderopacity="0.25"
     inkscape:showpageshadow="2"
     inkscape:pageopacity="0.0"
     inkscape:pagecheckerboard="0"
     inkscape:deskcolor="#d1d1d1"
     showgrid="false"
     inkscape:zoom="9.656427"
     inkscape:cx="-13.77321"
     inkscape:cy="7.66329"
     inkscape:window-width="2560"
     inkscape:window-height="998"
     inkscape:window-x="1680"
     inkscape:window-y="0"
     inkscape:window-maximized="1"
     inkscape:current-layer="svg2000" />
  <g
     id="g74480"
     transform="matrix(1.3333333,0,0,1.3333333,-4.5e-4,-3.5e-5)">
    <g
       id="g74482">
      <g
         id="g74488">
        <path
           d="m 7.195,0.836 c 0.09,0 0.176,-0.012 0.258,-0.035 1.078,-0.071 2.156,-0.067 3.231,0.008 0.976,0.078 1.921,0.289 2.836,0.636 1.519,0.625 2.558,1.711 3.121,3.254 0.316,0.93 0.507,1.887 0.566,2.867 0.078,1.235 0.051,2.465 -0.086,3.696 -0.105,0.863 -0.328,1.691 -0.672,2.488 -0.637,1.383 -1.672,2.336 -3.101,2.859 C 12.191,17 11,17.207 9.773,17.227 8.398,17.301 7.035,17.195 5.684,16.918 3.203,16.367 1.668,14.852 1.09,12.375 0.844,11.262 0.73,10.133 0.754,8.992 0.727,7.777 0.855,6.582 1.141,5.402 1.75,3.09 3.219,1.656 5.547,1.102 6.09,0.969 6.641,0.879 7.195,0.836 Z"
           style="fill:url(#radialGradient74494-3);fill-rule:evenodd;stroke:none"
           id="path74496" />
      </g>
    </g>
  </g>
  <path
     d="m 11.99955,13.729298 -2.30667,1.734667 c 0,2.014666 -0.28667,2.014666 -1.72933,2.885333 l 4.036,0.286666 4.036,-0.292 c -1.44267,-0.865333 -1.72934,-0.865333 -1.72934,-2.879999 z"
     style="fill:#b3b3b3;fill-opacity:1;fill-rule:nonzero;stroke:none;stroke-width:1.33333"
     id="path74498" />
  <path
     d="m 7.96355,18.343964 h 8.07333 v 0.578667 H 7.96355 Z"
     style="fill:#cccccc;fill-opacity:1;fill-rule:nonzero;stroke:none;stroke-width:1.33333"
     id="path74500" />
  <path
     d="m 5.67155,5.431965 h 12.656 c 0.64533,0 1.172,0.526666 1.172,1.177333 v 7.688 c 0,0.650667 -0.52667,1.172 -1.172,1.172 h -12.656 c -0.64534,0 -1.172,-0.521333 -1.172,-1.172 v -7.688 c 0,-0.650667 0.52666,-1.177333 1.172,-1.177333 z"
     style="fill:#303030;fill-opacity:1;fill-rule:nonzero;stroke:none;stroke-width:1.33333"
     id="path74502" />
  <g
     id="g74504"
     transform="matrix(1.3333333,0,0,1.3333333,0,-3.5e-5)">
    <g
       id="g74506">
      <g
         id="g74512">
        <path
           d="m 4.312,4.277 h 9.376 c 0.414,0 0.746,0.328 0.746,0.739 v 5.648 c 0,0.406 -0.332,0.734 -0.746,0.734 H 4.312 c -0.414,0 -0.746,-0.328 -0.746,-0.734 V 5.016 c 0,-0.411 0.332,-0.739 0.746,-0.739 z"
           style="fill:url(#linearGradient74518);stroke:none"
           id="path74520" />
      </g>
    </g>
  </g>
  <path
     d="m 10.15021,14.297298 3.62534,-3.922667 3.016,3.922667 z"
     style="fill:#1a1a1a;fill-opacity:1;fill-rule:nonzero;stroke:none;stroke-width:1.33333"
     id="path74522" />
  <g
     id="g74524"
     transform="matrix(1.3333333,0,0,1.3333333,-4.5e-4,-3.5e-5)">
    <g
       id="g74526" />
    <g
       id="g74538">
      <g
         clip-path="url(#clipPath74530-4)"
         opacity="0.9"
         id="g74536">
        <g
           id="g74534">
          <path
             d="M 7.41,8.934 3.836,11.23 c 0.133,0.106 0.297,0.172 0.48,0.172 h 6.993 z"
             style="fill:#e6e6e6;fill-opacity:1;fill-rule:nonzero;stroke:none"
             id="path74532" />
        </g>
      </g>
    </g>
  </g>
  <path
     d="m 8.94221,15.202631 0.93734,-3.290666 5.20266,3.290666 z"
     style="fill:#fafbfb;fill-opacity:1;fill-rule:nonzero;stroke:none;stroke-width:1.33333"
     id="path74540" />
  <path
     d="m 13.77555,10.073298 -1.208,1.281333 v 3.848 h 5.67733 c 0.276,0 0.52,-0.104 0.70267,-0.281333 z"
     style="fill:#b0b2b5;fill-opacity:1;fill-rule:nonzero;stroke:none;stroke-width:1.33333"
     id="path74542" />
  <path
     d="m 13.77555,10.073298 1.51066,5.129333 h 2.95867 c 0.276,0 0.52,-0.104 0.70267,-0.281333 z"
     style="fill:#ffffff;fill-opacity:1;fill-rule:nonzero;stroke:none;stroke-width:1.33333"
     id="path74544" />
  <circle
     cx="16.917484"
     cy="8.0802374"
     r="1.6912198"
     fill="#ffdb8a"
     style="stroke-width:0.30755;paint-order:stroke markers fill"
     id="circle2751" />
</svg>
