<?xml version="1.0" encoding="UTF-8" standalone="no"?>
<svg
   width="24"
   height="24"
   viewBox="0 0 24 24"
   fill="none"
   version="1.1"
   id="svg154"
   sodipodi:docname="app.svg"
   inkscape:version="1.2.2 (b0a8486541, 2022-12-01)"
   xml:space="preserve"
   inkscape:export-filename="../../../../svg/io.github.arunsivaramanneo.GPUViewer.svg"
   inkscape:export-xdpi="96"
   inkscape:export-ydpi="96"
   xmlns:inkscape="http://www.inkscape.org/namespaces/inkscape"
   xmlns:sodipodi="http://sodipodi.sourceforge.net/DTD/sodipodi-0.dtd"
   xmlns:xlink="http://www.w3.org/1999/xlink"
   xmlns="http://www.w3.org/2000/svg"
   xmlns:svg="http://www.w3.org/2000/svg"
   xmlns:sketch="http://www.bohemiancoding.com/sketch/ns"><sodipodi:namedview
     id="namedview156"
     pagecolor="#ffffff"
     bordercolor="#000000"
     borderopacity="1"
     inkscape:showpageshadow="0"
     inkscape:pageopacity="1"
     inkscape:pagecheckerboard="false"
     inkscape:deskcolor="#ffffff"
     showgrid="true"
     inkscape:zoom="32"
     inkscape:cx="9.609375"
     inkscape:cy="15.453125"
     inkscape:window-width="1920"
     inkscape:window-height="1052"
     inkscape:window-x="0"
     inkscape:window-y="0"
     inkscape:window-maximized="1"
     inkscape:current-layer="svg154"
     showguides="true"
     guidecolor="#ff0000"
     guideopacity="1"
     inkscape:lockguides="true"
     showborder="true"
     borderlayer="true"><inkscape:grid
       type="xygrid"
       id="grid356"
       color="#000000"
       opacity="0.10196078"
       empcolor="#000000"
       empopacity="0.10196078"
       snapvisiblegridlinesonly="true"
       enabled="true"
       visible="true"
       dotted="false"
       originx="0"
       originy="0"
       spacingy="1"
       spacingx="1"
       units="px" /><sodipodi:guide
       position="4,12"
       orientation="-1,0"
       id="guide764"
       inkscape:locked="true"
       inkscape:label="left-circle"
       inkscape:color="rgb(255,0,0)" /><sodipodi:guide
       position="5,12"
       orientation="-1,0"
       id="guide2218"
       inkscape:locked="true"
       inkscape:label="left-square"
       inkscape:color="rgb(255,0,0)" /><sodipodi:guide
       position="12,20"
       orientation="0,1"
       id="guide2220"
       inkscape:locked="true"
       inkscape:label="top-circle"
       inkscape:color="rgb(255,0,0)" /><sodipodi:guide
       position="12,5"
       orientation="0,1"
       id="guide2222"
       inkscape:locked="true"
       inkscape:label="bottom-square"
       inkscape:color="rgb(255,0,0)" /><sodipodi:guide
       position="12,4"
       orientation="0,1"
       id="guide2224"
       inkscape:locked="true"
       inkscape:label="bottom-circle"
       inkscape:color="rgb(255,0,0)" /><sodipodi:guide
       position="19,12"
       orientation="-1,0"
       id="guide2226"
       inkscape:locked="true"
       inkscape:label="right-square"
       inkscape:color="rgb(255,0,0)" /><sodipodi:guide
       position="20,12"
       orientation="-1,0"
       id="guide2228"
       inkscape:locked="true"
       inkscape:label="right-circle"
       inkscape:color="rgb(255,0,0)" /><sodipodi:guide
       position="12,19"
       orientation="0,1"
       id="guide2230"
       inkscape:locked="true"
       inkscape:label="top-square"
       inkscape:color="rgb(255,0,0)" /><sodipodi:guide
       position="12,12"
       orientation="1,0"
       id="guide765"
       inkscape:locked="true" /><sodipodi:guide
       position="12,12"
       orientation="0,-1"
       id="guide767"
       inkscape:locked="true" /><sodipodi:guide
       position="12,12"
       orientation="0.70710678,0.70710678"
       id="guide2266"
       inkscape:locked="true"
       inkscape:label=""
       inkscape:color="rgb(255,0,0)" /><sodipodi:guide
       position="12,12"
       orientation="-0.70710678,0.70710678"
       id="guide2994"
       inkscape:locked="true"
       inkscape:label=""
       inkscape:color="rgb(255,0,0)" /><sodipodi:guide
       position="3,12"
       orientation="-1,0"
       id="guide131543"
       inkscape:locked="true"
       inkscape:label="left-horizontal"
       inkscape:color="rgb(255,0,0)" /><sodipodi:guide
       position="12,21"
       orientation="0,1"
       id="guide131545"
       inkscape:locked="true"
       inkscape:label="top-vertical"
       inkscape:color="rgb(255,0,0)" /><sodipodi:guide
       position="21,12"
       orientation="-1,0"
       id="guide131547"
       inkscape:locked="true"
       inkscape:label="right-horizontal"
       inkscape:color="rgb(255,0,0)" /><sodipodi:guide
       position="12,3"
       orientation="0,1"
       id="guide131549"
       inkscape:locked="true"
       inkscape:label="bottom-vertical"
       inkscape:color="rgb(255,0,0)" /></sodipodi:namedview><defs
     id="defs152"><radialGradient
       id="radialGradient66380"
       cx="0"
       cy="0"
       r="1"
       gradientUnits="userSpaceOnUse"
       gradientTransform="matrix(0,22,-22,0,12,1)"><stop
         stop-color="#8FC8FF"
         id="stop66376"
         offset="0"
         style="stop-color:#80b3ff;stop-opacity:1" /><stop
         offset="1"
         stop-color="#0056A8"
         id="stop66378"
         style="stop-color:#003380;stop-opacity:1" /></radialGradient><radialGradient
       inkscape:collect="always"
       xlink:href="#radialGradient66380"
       id="radialGradient1161"
       gradientUnits="userSpaceOnUse"
       gradientTransform="matrix(0.30936111,27.096867,-22.000231,0.25117358,-26.521017,-3.4288581)"
       cx="0.17911513"
       cy="-1.7483425"
       r="1"
       fx="0.17911513"
       fy="-1.7483425" /></defs><path
     d="M 12,0.99999998 C 2,0.99999998 0.99999998,6 0.99999998,12 0.99999998,20 4.0000001,23 12,23 20,23 23,20 23,12 23,6 22,0.99999998 12,0.99999998 Z"
     sketch:type="MSShapeGroup"
     id="path6"
     style="font-variation-settings:normal;display:inline;opacity:1;vector-effect:none;fill:url(#radialGradient1161);fill-opacity:1;stroke-width:1.11627;stroke-linecap:butt;stroke-linejoin:miter;stroke-miterlimit:4;stroke-dasharray:none;stroke-dashoffset:0;stroke-opacity:1;-inkscape-stroke:none;stop-color:#000000;stop-opacity:1"
     sodipodi:nodetypes="sssss"
     inkscape:label="Shape"
     sodipodi:insensitive="true" /><path
     style="fill:#ffffff;stroke-width:0.891011"
     d="M 9.620362,19.664059 C 9.406603,19.614643 9.0249018,19.49806 8.7919576,19.411037 8.220783,19.197657 7.6632657,18.880963 7.1948175,18.503792 6.9730269,18.325218 6.6739902,18.036808 6.4736303,17.808234 6.3100638,17.621633 6.0415967,17.267933 5.9672909,17.141139 5.9018104,17.029411 5.8583612,16.86168 5.857921,16.718961 5.8577499,16.663321 5.871429,16.571251 5.888322,16.514375 5.906276,16.453915 5.9904435,16.305259 6.0909852,16.156434 6.3445423,15.781114 6.6640813,15.30993 7.0690583,14.714192 7.2668361,14.423252 7.8671095,13.538456 8.4029984,12.747979 8.938888,11.9575 9.4597821,11.18948 9.5605421,11.041265 9.6613012,10.89305 10.1059,10.237313 10.548537,9.5840715 10.991173,8.9308308 11.445151,8.2616189 11.557378,8.096936 c 0.209361,-0.3072216 0.477861,-0.7030952 0.973068,-1.4346831 0.188179,-0.2780036 0.305562,-0.4321806 0.352762,-0.4633348 0.0389,-0.025679 0.115652,-0.056187 0.170546,-0.067797 l 0.09981,-0.021108 0.100229,0.026214 0.100229,0.026213 0.558503,0.3800323 c 0.307176,0.2090179 0.729173,0.495568 0.937771,0.6367773 1.561826,1.0572668 2.322234,1.5765758 2.362396,1.6133612 0.02577,0.023603 0.06547,0.078845 0.08823,0.1227617 l 0.04137,0.079843 v 0.1197699 0.119769 l -0.04207,0.07984 c -0.02314,0.04392 -0.19473,0.304414 -0.38131,0.578885 -0.186579,0.2744715 -0.442748,0.6517455 -0.569263,0.8383855 -0.126517,0.186641 -0.731211,1.078066 -1.343767,1.980947 -0.612556,0.902879 -1.369746,2.019055 -1.682643,2.480391 -0.312897,0.461334 -0.664888,0.980191 -0.782201,1.153016 -0.117313,0.172825 -0.355355,0.523968 -0.528982,0.780317 -0.173626,0.256349 -0.427968,0.631171 -0.565204,0.832938 -0.137235,0.201765 -0.422237,0.622095 -0.633336,0.934063 -0.2111,0.311968 -0.412165,0.591067 -0.44681,0.62022 -0.03464,0.02915 -0.09744,0.07058 -0.139546,0.09206 -0.09001,0.04592 -0.3018949,0.09882 -0.3872128,0.09667 -0.032941,-8.3e-4 -0.1317476,-0.01812 -0.2195781,-0.03842 z m 1.178908,-5.07916 c 0.03569,-0.02723 0.08564,-0.08307 0.110998,-0.124086 l 0.04609,-0.07458 v -0.102739 c 0,-0.05659 -0.01634,-0.138983 -0.03638,-0.183422 l -0.03638,-0.08068 0.404692,-0.595782 c 0.222581,-0.32768 0.498649,-0.735013 0.613486,-0.905186 0.114837,-0.170172 0.2189,-0.319963 0.231251,-0.332869 0.01235,-0.0129 0.242533,-0.06495 0.511515,-0.115656 0.268982,-0.05071 0.502532,-0.09637 0.519001,-0.101465 0.01647,-0.0051 0.12426,-0.149232 0.239538,-0.320291 0.115278,-0.17106 0.214833,-0.314309 0.221233,-0.318332 0.0064,-0.004 0.04413,0.01476 0.08385,0.04176 l 0.07222,0.04907 0.17281,-0.250744 c 0.09505,-0.137909 0.169597,-0.253417 0.165669,-0.256684 -0.04107,-0.03415 -0.501063,-0.332548 -0.505074,-0.327637 -0.0029,0.0036 -0.07902,0.114302 -0.169062,0.245987 l -0.163702,0.239425 0.04427,0.03584 c 0.02434,0.01971 0.05751,0.04325 0.07369,0.0523 l 0.02942,0.01647 -0.183667,0.271831 c -0.101017,0.149507 -0.194293,0.278725 -0.20728,0.287153 -0.0242,0.0157 -0.67811,0.145978 -0.687183,0.136904 -0.0038,-0.0038 0.928126,-1.38709 1.126682,-1.672225 l 0.03727,-0.05352 0.106255,0.07122 c 0.06848,0.04591 0.111035,0.06349 0.119698,0.04947 0.01855,-0.03001 0.128419,-0.8223425 0.115786,-0.8349755 -0.0124,-0.0124 -0.732335,0.410715 -0.732335,0.430411 0,0.0077 0.04108,0.04291 0.09129,0.0783 0.05021,0.03539 0.08838,0.071499 0.08483,0.08026 -0.0036,0.0087 -0.293895,0.439542 -0.645219,0.957307 -0.351323,0.517764 -0.815362,1.202328 -1.031196,1.521253 l -0.392427,0.579863 -0.0195,-0.09556 c -0.01073,-0.05256 -0.04026,-0.205622 -0.06564,-0.340138 l -0.04614,-0.244574 0.196529,-0.289397 0.196528,-0.289397 h 0.07917 c 0.106946,0 0.220103,-0.06764 0.274205,-0.163898 l 0.0446,-0.07935 -0.0088,-0.106496 -0.0088,-0.106496 -0.05302,-0.06953 c -0.03119,-0.0409 -0.08968,-0.08352 -0.142039,-0.103517 l -0.08901,-0.03399 -0.100562,0.02412 -0.100562,0.02413 -0.06,0.06834 c -0.033,0.03758 -0.06537,0.09287 -0.07194,0.122866 -0.0066,0.02999 -0.01532,0.06554 -0.01944,0.079 -0.0041,0.01346 0.0055,0.06736 0.02142,0.11977 l 0.02892,0.0953 -0.222218,0.326927 -0.222218,0.326927 0.03131,0.172112 c 0.01721,0.09466 0.06051,0.32541 0.0962,0.512776 l 0.06489,0.340664 -0.178183,0.263522 -0.178184,0.263521 -0.0576,-0.01037 c -0.03168,-0.0057 -0.09456,-5.42e-4 -0.139731,0.01148 -0.178185,0.04738 -0.291729,0.194303 -0.291729,0.377471 0,0.24996 0.208428,0.421144 0.457192,0.375498 0.04835,-0.0089 0.117111,-0.03841 0.15281,-0.06563 z M 15.637523,7.5449046 C 14.908116,7.0496824 14.190062,6.5635413 14.041848,6.4645909 13.893633,6.3656415 13.765813,6.2789701 13.757804,6.2719882 c -0.008,-0.00695 0.04218,-0.094961 0.111535,-0.1955111 l 0.126097,-0.1828159 0.113542,0.080547 c 0.06245,0.044301 0.124542,0.076262 0.137985,0.071031 0.01344,-0.00526 0.0873,-0.1026721 0.164128,-0.2165273 0.220827,-0.3272595 1.032822,-1.5237566 1.039136,-1.5311966 0.0094,-0.01112 2.060725,1.3831248 2.053451,1.3957175 -0.0037,0.00642 0.0041,0.012002 0.01735,0.01243 0.0201,6.558e-4 0.566922,0.3587149 0.61988,0.4058993 0.01562,0.013918 -0.117039,0.215197 -0.871156,1.321816 -0.151443,0.2222325 -0.284038,0.4193759 -0.294656,0.4380969 l -0.01931,0.034037 0.119992,0.081483 c 0.066,0.044818 0.119974,0.087889 0.119951,0.095713 -2.3e-5,0.00784 -0.05224,0.092611 -0.116028,0.1884142 L 16.963715,8.4453089 Z M 17.1831,6.7773234 c 0.108307,-0.159875 0.189152,-0.2976129 0.179654,-0.3060855 -0.0095,-0.00846 -0.14143,-0.098685 -0.293183,-0.2004713 C 16.917819,6.1689792 16.786477,6.0935836 16.7777,6.1032208 16.7689,6.1128608 16.67871,6.2455634 16.577226,6.3981233 L 16.39271,6.675504 16.41997,6.691373 c 0.01499,0.00873 0.144028,0.096223 0.286753,0.1944365 0.142725,0.098213 0.263991,0.1793855 0.269481,0.1803834 0.0055,9.801e-4 0.09859,-0.1289926 0.206903,-0.2888667 z M 15.833903,5.7911495 c 0.09085,-0.1347245 0.162715,-0.246852 0.159692,-0.2491704 -0.05155,-0.039534 -0.573945,-0.3893728 -0.581441,-0.3893728 -0.01683,0 -0.400115,0.577614 -0.389999,0.5877306 0.0051,0.00508 0.134634,0.094477 0.287952,0.1987169 l 0.278761,0.1895252 0.03993,-0.046235 c 0.02195,-0.025429 0.114258,-0.1564669 0.205112,-0.2911922 z"
     id="path152" /></svg>
