<?xml version="1.0" encoding="UTF-8" standalone="no"?>
<svg
   width="24"
   height="24"
   version="1.1"
   id="svg2"
   sodipodi:docname="com.viber.Viber.svg"
   inkscape:version="1.3 (0e150ed6c4, 2023-07-21)"
   xmlns:inkscape="http://www.inkscape.org/namespaces/inkscape"
   xmlns:sodipodi="http://sodipodi.sourceforge.net/DTD/sodipodi-0.dtd"
   xmlns="http://www.w3.org/2000/svg"
   xmlns:svg="http://www.w3.org/2000/svg">
  <defs
     id="defs2">
    <radialGradient
       fx="0"
       fy="0"
       cx="0"
       cy="0"
       r="1"
       gradientUnits="userSpaceOnUse"
       gradientTransform="matrix(0,21.999999,-21.999999,0,12.082629,0.69532797)"
       spreadMethod="pad"
       id="radialGradient3666-6">
      <stop
         style="stop-color:#ece2f7;stop-opacity:1;"
         offset="0"
         id="stop3662-7" />
      <stop
         style="stop-color:#966fb2;stop-opacity:1;"
         offset="1"
         id="stop3664-5" />
    </radialGradient>
  </defs>
  <sodipodi:namedview
     id="namedview2"
     pagecolor="#ffffff"
     bordercolor="#000000"
     borderopacity="0.25"
     inkscape:showpageshadow="2"
     inkscape:pageopacity="0.0"
     inkscape:pagecheckerboard="0"
     inkscape:deskcolor="#d1d1d1"
     inkscape:zoom="25.34375"
     inkscape:cx="11.778052"
     inkscape:cy="15.210851"
     inkscape:window-width="2560"
     inkscape:window-height="998"
     inkscape:window-x="0"
     inkscape:window-y="0"
     inkscape:window-maximized="1"
     inkscape:current-layer="svg2" />
  <path
     d="m 9.6759682,0.80997864 c 0.12,0 0.2346667,-0.016 0.3439998,-0.0466667 1.437333,-0.0946667 2.874667,-0.0893333 4.308,0.0106667 1.301333,0.104 2.561333,0.38533336 3.781333,0.84799996 2.025334,0.8333333 3.410667,2.2813333 4.161334,4.3386666 0.421333,1.2399999 0.676,2.5159999 0.754666,3.8226665 0.104,1.6466663 0.068,3.2866663 -0.114666,4.9280003 -0.14,1.150666 -0.437334,2.254666 -0.896,3.317333 -0.849334,1.844 -2.229334,3.114666 -4.134667,3.812 -1.542667,0.521333 -3.130667,0.797333 -4.766667,0.824 -1.833333,0.09867 -3.6506661,-0.04267 -5.4519994,-0.412 -3.3079999,-0.734667 -5.3546666,-2.754667 -6.1253332,-6.057333 -0.328,-1.484 -0.48,-2.989334 -0.448,-4.510667 -0.036,-1.614667 0.1346667,-3.2133332 0.516,-4.7866665 0.812,-3.0826666 2.7706666,-4.9946666 5.8746665,-5.7333332 0.724,-0.17733333 1.4586666,-0.29733333 2.1973333,-0.35466666 z"
     style="fill:url(#radialGradient3666-6);fill-rule:evenodd;stroke:none;stroke-width:1.333;stroke-dasharray:none"
     id="path3668" />
  <g
     id="g2"
     transform="matrix(0.27776732,0,0,0.27776732,-7.9995245,3.1108949)"
     style="stroke-width:3.60014">
    <path
       d="m 59.211,5.001 a 14.18,14.18 0 0 0 -14.21,14.211 v 14.211 c 0,7.393 5.589,13.433 12.79,14.142 V 59.003 L 69.159,47.634 H 84.79 A 14.18,14.18 0 0 0 99.001,33.424 V 19.211 A 14.18,14.18 0 0 0 84.79,5.001 Z"
       fill="#966fb2"
       fill-rule="evenodd"
       id="path1"
       style="stroke-width:3.60014" />
    <path
       d="m 74.686,10.686 c -0.687,0 -1.257,0.548 -1.263,1.213 -0.004,0.667 0.566,1.228 1.257,1.232 2.984,0.022 5.438,0.965 7.416,2.825 1.956,1.843 2.975,4.396 3,7.728 v 0.003 c 0.008,0.662 0.578,1.21 1.266,1.21 l 0.014,-0.003 c 0.69,-0.007 1.263,-0.563 1.258,-1.23 V 23.661 C 87.618,21.72 87.302,19.934 86.684,18.363 A 11.446,11.446 0 0 0 83.87,14.203 C 81.422,11.9 78.295,10.711 74.697,10.686 Z m -12.818,2.872 c -0.482,-0.081 -1.003,0.008 -1.524,0.258 h -0.042 l -0.058,0.034 c -0.965,0.548 -1.87,1.284 -2.717,2.206 l -0.067,0.072 v 0.067 c -0.586,0.731 -0.974,1.467 -1.063,2.204 -0.028,0.125 -0.028,0.237 -0.028,0.358 0,0.335 0.05,0.676 0.153,1.01 l 0.028,0.095 0.058,0.033 c 0.335,1.148 1.094,2.936 2.756,5.962 1.107,2.006 2.238,3.681 3.362,5.093 a 27.278,27.278 0 0 0 2.04,2.293 c 0.009,0.01 0.042,0.043 0.077,0.075 0.013,0.012 0.03,0.038 0.072,0.08 l 0.078,0.078 H 65 a 0.86,0.86 0 0 1 0.05,0.053 l 0.014,0.016 0.014,0.014 c 0.778,0.77 1.545,1.444 2.295,2.032 a 36.35,36.35 0 0 0 5.09,3.372 c 3.03,1.672 4.834,2.427 5.976,2.757 l 0.042,0.05 0.07,0.024 a 3,3 0 0 0 0.993,0.153 c 0.135,0.008 0.255,-0.002 0.369,-0.028 0.782,-0.091 1.557,-0.461 2.323,-1.104 l 0.009,-0.011 0.008,-0.006 c 0.012,-0.012 0.005,-0.006 0.011,-0.014 0.007,-0.006 0.01,-0.013 0.017,-0.02 0.907,-0.827 1.639,-1.727 2.19,-2.692 l 0.036,-0.06 V 37.953 C 85.013,36.9 84.812,35.824 83.99,35.139 83.97,35.121 83.575,34.791 83.086,34.392 A 43.996,43.996 0 0 0 81.589,33.21 c -0.759,-0.562 -1.932,-1.288 -2.6,-1.66 h -0.003 c -1.285,-0.72 -2.627,-0.302 -3.217,0.463 l -1.036,1.296 c -0.417,0.527 -1.251,0.476 -1.274,0.475 -7.022,-1.807 -8.91,-8.868 -8.923,-8.918 -0.001,-0.022 -0.052,-0.858 0.475,-1.282 l 1.29,-1.033 c 0.767,-0.587 1.198,-1.929 0.475,-3.217 -0.377,-0.666 -1.107,-1.847 -1.66,-2.6 h -0.003 c -0.296,-0.4 -0.775,-0.998 -1.182,-1.5 -0.204,-0.25 -0.39,-0.48 -0.525,-0.643 l -0.16,-0.195 -0.048,-0.052 -0.014,-0.017 a 2.183,2.183 0 0 0 -1.316,-0.769 z m 12.893,2.815 c -0.678,-0.048 -1.286,0.46 -1.335,1.113 -0.05,0.654 0.478,1.237 1.154,1.285 1.673,0.118 2.802,0.61 3.65,1.507 v 0.003 c 0.866,0.914 1.26,1.957 1.227,3.383 v 0.006 c -0.015,0.656 0.536,1.212 1.216,1.227 h 0.03 c 0.67,0 1.229,-0.53 1.244,-1.177 0.045,-1.96 -0.593,-3.71 -1.88,-5.066 -1.292,-1.363 -3.123,-2.126 -5.306,-2.281 z"
       fill="#ece2f7"
       id="path2"
       style="stroke-width:3.60014" />
  </g>
</svg>
