<svg width="24" height="24" viewBox="0 0 24 24" fill="none" xmlns="http://www.w3.org/2000/svg">
<path d="M1.50471 11.9793C1.46907 10.4061 1.63584 8.8557 2.00512 7.32711C2.3918 5.85946 3.04371 4.69618 3.94722 3.81423C4.85171 2.93131 6.03248 2.3068 7.51234 1.95496L7.51235 1.95497L7.51544 1.95422C8.20669 1.78522 8.90666 1.67171 9.61551 1.61365C9.75322 1.61322 9.88901 1.59689 10.0217 1.56353C11.4177 1.47429 12.8137 1.47906 14.2096 1.57787C15.461 1.67553 16.6715 1.94663 17.8428 2.39142C19.7336 3.17164 21.0156 4.51007 21.7136 6.43252C22.1249 7.62786 22.3676 8.85642 22.4419 10.1193L22.4421 10.1223C22.5469 11.7372 22.5095 13.3482 22.3298 14.9558C22.1987 16.0562 21.9143 17.1137 21.4764 18.1297C20.6823 19.8465 19.4081 21.0214 17.6316 21.6747C16.1378 22.1788 14.6025 22.444 13.0241 22.4708L13.0153 22.4709L13.0066 22.4714C11.2145 22.5646 9.44087 22.4306 7.68468 22.0695C6.10569 21.7172 4.85809 21.0668 3.91566 20.1354C2.97306 19.2038 2.30868 17.9644 1.93909 16.3906C1.61968 14.9448 1.47492 13.4818 1.50473 12.0007L1.50495 11.99L1.50471 11.9793Z" fill="url(#paint0_radial_18_137)" stroke="#FAFAFA"/>
<path fill-rule="evenodd" clip-rule="evenodd" d="M23 11.9494H22.0198L20.6248 8.46186C19.7223 6.20541 19.1819 4.9336 19.0862 4.85146C18.8948 4.7011 18.6623 4.63967 18.4366 4.69431C18.3829 4.70814 18.3363 4.71967 18.2933 4.73917C17.9963 4.87381 17.8714 5.38818 16.8023 9.65867C16.1733 12.1955 15.633 14.2948 15.6126 14.3223C15.5855 14.3498 15.0862 12.9137 14.4912 11.129C13.5343 8.2698 13.36 7.73156 13.0455 7.63067C12.9666 7.60537 12.879 7.60757 12.7679 7.60757C12.5629 7.60757 12.4329 7.65542 12.3165 7.76471C12.1933 7.874 11.6736 9.18009 10.4154 12.5308C9.46502 15.0677 8.66501 17.167 8.6443 17.1945C8.6168 17.222 8.05608 14.5619 7.40678 11.2798C6.75035 7.99757 6.17605 5.22146 6.12819 5.09825C6.03926 4.86575 5.73176 4.66753 5.47176 4.66753C5.38283 4.66753 5.2189 4.72896 5.10247 4.79753C4.91104 4.9136 4.76068 5.24896 3.48173 8.43543L2.07993 11.9501H1.00396C1.00424 11.9636 1.00453 11.9771 1.00484 11.9906C0.995212 12.4687 1.00331 12.9449 1.02912 13.4194H2.81887L3.01708 13.228C3.18101 13.0844 3.44102 12.4894 4.22746 10.5269C4.77461 9.14544 5.23961 8.01722 5.2464 8.03114C5.25997 8.04472 5.81391 10.773 6.47713 14.1034C7.14035 17.4334 7.73536 20.2438 7.79 20.3463C7.84465 20.4556 7.99501 20.5856 8.13179 20.647C8.34358 20.7292 8.41215 20.736 8.61716 20.6538C8.74716 20.606 8.91109 20.4899 8.97966 20.3938C9.04109 20.2981 9.90967 18.062 10.8943 15.4159C11.8858 12.7766 12.7065 10.6155 12.7336 10.6155C12.754 10.6155 13.2601 12.0855 13.8551 13.8773C14.4501 15.6755 14.9969 17.2552 15.0655 17.392C15.209 17.6859 15.503 17.8295 15.8312 17.7681C15.9002 17.7552 15.9586 17.7461 16.0119 17.7244C16.3276 17.5955 16.4623 17.0232 17.568 12.6055C18.2316 9.96653 18.7787 7.81936 18.7855 7.82614C18.7976 7.83828 19.1762 8.78009 19.6671 10.0013C19.7251 10.1457 19.7848 10.294 19.8455 10.4451C20.6523 12.4826 20.9191 13.0844 21.083 13.2284L21.2813 13.4198H22.9589C22.9855 12.93 22.9992 12.4399 23 11.9494Z" fill="#FAFAFA"/>
<defs>
<radialGradient id="paint0_radial_18_137" cx="0" cy="0" r="1" gradientUnits="userSpaceOnUse" gradientTransform="translate(12 1) rotate(90) scale(22 22)">
<stop stop-color="#779ACD"/>
<stop offset="1" stop-color="#11345F"/>
</radialGradient>
</defs>
</svg>
