<?xml version="1.0" encoding="UTF-8" standalone="no"?>
<svg
   width="24"
   height="24"
   version="1.1"
   id="svg14"
   sodipodi:docname="vocal.svg"
   xml:space="preserve"
   inkscape:version="1.2.2 (b0a8486541, 2022-12-01)"
   xmlns:inkscape="http://www.inkscape.org/namespaces/inkscape"
   xmlns:sodipodi="http://sodipodi.sourceforge.net/DTD/sodipodi-0.dtd"
   xmlns="http://www.w3.org/2000/svg"
   xmlns:svg="http://www.w3.org/2000/svg"><defs
     id="defs18"><linearGradient
       id="paint0_linear_3_253"
       x1="12"
       y1="1"
       x2="12"
       y2="12"
       gradientUnits="userSpaceOnUse"><stop
         stop-color="#DC9DFF"
         id="stop311"
         offset="0"
         style="stop-color:#d492d6;stop-opacity:1;" /><stop
         offset="1"
         stop-color="#AD5BDB"
         id="stop313"
         style="stop-color:#c569c7;stop-opacity:1;" /></linearGradient></defs><sodipodi:namedview
     id="namedview16"
     pagecolor="#ffffff"
     bordercolor="#000000"
     borderopacity="0.25"
     inkscape:showpageshadow="2"
     inkscape:pageopacity="0.0"
     inkscape:pagecheckerboard="0"
     inkscape:deskcolor="#d1d1d1"
     showgrid="false"
     inkscape:zoom="4.8282135"
     inkscape:cx="-49.914943"
     inkscape:cy="50.950522"
     inkscape:window-width="2560"
     inkscape:window-height="998"
     inkscape:window-x="1680"
     inkscape:window-y="0"
     inkscape:window-maximized="1"
     inkscape:current-layer="svg14" /><path
     fill-rule="evenodd"
     clip-rule="evenodd"
     d="M 9.93969,1.06779 C 9.83043,1.0996 9.71588,1.11486 9.59604,1.11359 8.8536,1.17326 8.12048,1.29157 7.39669,1.46852 4.2905,2.20701 2.33171,4.11908 1.52031,7.20471 1.14,8.77709 0.968176,10.3724 1.00483,11.9906 c -0.030631,1.5218 0.11828,3.0255 0.44675,4.5111 0.77401,3.3001 2.81681,5.3191 6.12839,6.0568 1.42826,0.2939 2.86813,0.4411 4.31953,0.4415 0.0042,0 0.0085,0 0.0128,0 0.3726,-10e-5 0.746,-0.0099 1.1202,-0.0294 1.6322,-0.0276 3.2206,-0.3024 4.7653,-0.8243 1.9062,-0.6993 3.2846,-1.9702 4.1352,-3.8127 0.4586,-1.0626 0.7565,-2.1694 0.8935,-3.3203 C 22.9421,13.9799 22.9999,12.945 23,11.9087 23,11.9066 23,11.9045 23,11.9024 22.9999,11.2988 22.9803,10.6946 22.9411,10.09 22.8639,8.78021 22.6119,7.50549 22.185,6.26586 21.4386,4.2069 20.0525,2.76044 18.0269,1.9265 16.8085,1.46308 15.5484,1.18066 14.2467,1.07924 13.5021,1.0265 12.7575,1.00008 12.0128,1 c -0.0023,0 -0.0047,0 -0.007,0 -0.6887,8e-5 -1.3774,0.02267 -2.06611,0.06779 z"
     fill="url(#paint0_linear_3_253)"
     id="path301"
     style="fill:url(#paint0_linear_3_253)" /><g
     fill="#f9f9f9"
     id="g1336"
     transform="matrix(0.35714286,0,0,0.35714286,0.57142848,0.57142848)"><path
       d="M 30.597,23.602 V 37.418 A 5.601,5.601 0 0 1 26.4,32.006 v -3.503 a 0.7,0.7 0 1 0 -1.4,0 v 3.503 a 7,7 0 0 0 5.597,6.85 v 1.549 H 26.4 v 1.399 h 11.202 v -1.4 H 33.395 V 38.867 A 7,7 0 0 0 39,32.006 v -3.503 a 0.7,0.7 0 1 0 -1.4,0 v 3.503 a 5.601,5.601 0 0 1 -4.206,5.422 V 23.607 h -2.798 z"
       id="path1328" /><path
       d="M 32,11 C 20.401,11 11,20.4 11,32 11,43.6 20.402,53 32,53 43.598,53 53,43.598 53,32 53,20.402 43.6,11 32,11 Z m -0.005,1.399 c 10.826,0 19.606,8.776 19.606,19.6 0,10.826 -8.781,19.602 -19.606,19.602 -10.825,0 -19.6,-8.777 -19.6,-19.601 0,-10.825 8.776,-19.601 19.6,-19.601 z"
       id="path1330" /><path
       d="m 31.996,15.202 c -9.277,0 -16.803,7.52 -16.803,16.802 0,9.278 7.521,16.803 16.803,16.803 9.277,0 16.802,-7.52 16.802,-16.803 0,-9.277 -7.52,-16.802 -16.802,-16.802 z m 0,1.399 c 8.508,0 15.399,6.896 15.399,15.399 0,8.508 -6.896,15.399 -15.4,15.399 -8.508,0 -15.398,-6.896 -15.398,-15.4 0,-8.508 6.896,-15.398 15.399,-15.398 z"
       id="path1332" /><path
       d="m 32,20.801 c -2.32,0 -4.201,1.4 -4.201,3.5 v 0.7 h 8.4 v -0.7 c 0,-2.1 -1.88,-3.5 -4.2,-3.5 z m -4.201,5.601 v 1.4 h 8.4 v -1.4 z m 0,2.8 v 1.4 h 8.4 v -1.4 z m 0,2.8 v 0.7 c 0,2.1 1.88,3.5 4.2,3.5 2.32,0 4.2,-1.4 4.2,-3.5 v -0.7 z"
       id="path1334" /></g></svg>
