<?xml version="1.0" encoding="UTF-8" standalone="no"?>
<svg
   width="24"
   height="24"
   viewBox="0 0 6.349875 6.349875"
   version="1.1"
   id="svg190"
   sodipodi:docname="vscodium.svg"
   xml:space="preserve"
   inkscape:version="1.2.2 (b0a8486541, 2022-12-01)"
   inkscape:export-filename="qt-creator.pdf"
   inkscape:export-xdpi="96"
   inkscape:export-ydpi="96"
   xmlns:inkscape="http://www.inkscape.org/namespaces/inkscape"
   xmlns:sodipodi="http://sodipodi.sourceforge.net/DTD/sodipodi-0.dtd"
   xmlns="http://www.w3.org/2000/svg"
   xmlns:svg="http://www.w3.org/2000/svg"><defs
     id="defs194"><rect
       x="5.3268056"
       y="2.0367198"
       width="12.69033"
       height="15.980416"
       id="rect6368" /><linearGradient
       id="paint0_linear_3_286"
       x1="12"
       y1="1"
       x2="12"
       y2="12"
       gradientUnits="userSpaceOnUse"><stop
         stop-color="#EEA5FF"
         id="stop266" /><stop
         offset="1"
         stop-color="#A159B2"
         id="stop268" /></linearGradient><linearGradient
       x1="12"
       y1="1"
       x2="12"
       y2="23"
       gradientUnits="userSpaceOnUse"
       gradientTransform="matrix(0.75,0,0,0.75,-7.98374e-6,-2.49454e-5)"
       spreadMethod="pad"
       id="linearGradient38255-1"><stop
         style="stop-opacity:1;stop-color:#4a74d2"
         offset="0"
         id="stop38251-9" /><stop
         style="stop-opacity:1;stop-color:#375295"
         offset="1"
         id="stop38253-4" /></linearGradient><linearGradient
       id="paint0_linear_18_187"
       x1="12"
       y1="1"
       x2="12"
       y2="23"
       gradientUnits="userSpaceOnUse"
       gradientTransform="matrix(0.26457812,0,0,0.26457812,-2.8164292e-6,9.3778578e-6)"><stop
         stop-color="#33BEF0"
         id="stop43245"
         offset="0"
         style="stop-color:#ff5f5f;stop-opacity:1;" /><stop
         offset="1"
         stop-color="#0A85D9"
         id="stop43247"
         style="stop-color:#e82e34;stop-opacity:1;" /></linearGradient><linearGradient
       x1="12"
       y1="1"
       x2="12"
       y2="23"
       gradientUnits="userSpaceOnUse"
       gradientTransform="matrix(0.75,0,0,0.75,-7.98374e-6,2.65834e-5)"
       spreadMethod="pad"
       id="linearGradient44915"><stop
         style="stop-color:#31d931;stop-opacity:1;"
         offset="0"
         id="stop44911" /><stop
         style="stop-color:#d4f3d4;stop-opacity:1;"
         offset="1"
         id="stop44913" /></linearGradient><linearGradient
       id="paint0_linear_3_286-3"
       x1="12"
       y1="1"
       x2="12"
       y2="12"
       gradientUnits="userSpaceOnUse"><stop
         stop-color="#EEA5FF"
         id="stop266-6" /><stop
         offset="1"
         stop-color="#A159B2"
         id="stop268-7" /></linearGradient><radialGradient
       id="paint0_radial_4_408"
       cx="0"
       cy="0"
       r="1"
       gradientUnits="userSpaceOnUse"
       gradientTransform="matrix(0,5.8207186,-5.8207186,0,3.1749362,0.26458225)"><stop
         stop-color="#D6B1FF"
         id="stop3331"
         offset="0"
         style="stop-color:#cdf2cd;stop-opacity:1;" /><stop
         offset="1"
         stop-color="#A75DFA"
         id="stop3333"
         style="stop-color:#38d23a;stop-opacity:1;" /></radialGradient><radialGradient
       fx="0"
       fy="0"
       cx="0"
       cy="0"
       r="1"
       gradientUnits="userSpaceOnUse"
       gradientTransform="matrix(0,16.5,-16.5,0,8.999996,0.750012)"
       spreadMethod="pad"
       id="radialGradient3666"><stop
         style="stop-opacity:1;stop-color:#cdf2cd"
         offset="0"
         id="stop3662" /><stop
         style="stop-opacity:1;stop-color:#38d23a"
         offset="1"
         id="stop3664" /></radialGradient><radialGradient
       fx="0"
       fy="0"
       cx="0"
       cy="0"
       r="1"
       gradientUnits="userSpaceOnUse"
       gradientTransform="matrix(0,16.5,-16.5,0,8.999996,0.750012)"
       spreadMethod="pad"
       id="radialGradient3666-6"><stop
         style="stop-color:#ffffff;stop-opacity:1;"
         offset="0"
         id="stop3662-7" /><stop
         style="stop-color:#8ec9f6;stop-opacity:1;"
         offset="1"
         id="stop3664-5" /></radialGradient><rect
       x="5.3268056"
       y="2.0367198"
       width="12.69033"
       height="15.980416"
       id="rect6368-6" /><radialGradient
       id="paint0_radial_4_408-2"
       cx="0"
       cy="0"
       r="1"
       gradientUnits="userSpaceOnUse"
       gradientTransform="matrix(0,5.8207186,-5.8207186,0,3.1749362,0.26458225)"><stop
         stop-color="#D6B1FF"
         id="stop3331-7"
         offset="0"
         style="stop-color:#cdf2cd;stop-opacity:1;" /><stop
         offset="1"
         stop-color="#A75DFA"
         id="stop3333-0"
         style="stop-color:#38d23a;stop-opacity:1;" /></radialGradient><radialGradient
       fx="0"
       fy="0"
       cx="0"
       cy="0"
       r="1"
       gradientUnits="userSpaceOnUse"
       gradientTransform="matrix(0,16.5,-16.5,0,8.999996,0.750012)"
       spreadMethod="pad"
       id="radialGradient3666-9"><stop
         style="stop-opacity:1;stop-color:#cdf2cd"
         offset="0"
         id="stop3662-3" /><stop
         style="stop-opacity:1;stop-color:#38d23a"
         offset="1"
         id="stop3664-6" /></radialGradient><radialGradient
       fx="0"
       fy="0"
       cx="0"
       cy="0"
       r="1"
       gradientUnits="userSpaceOnUse"
       gradientTransform="matrix(0,16.5,-16.5,0,8.999996,0.750012)"
       spreadMethod="pad"
       id="radialGradient3666-6-0"><stop
         style="stop-opacity:1;stop-color:#cdf2cd"
         offset="0"
         id="stop3662-7-6" /><stop
         style="stop-opacity:1;stop-color:#38d23a"
         offset="1"
         id="stop3664-5-2" /></radialGradient></defs><sodipodi:namedview
     id="namedview192"
     pagecolor="#ffffff"
     bordercolor="#000000"
     borderopacity="0.25"
     inkscape:showpageshadow="2"
     inkscape:pageopacity="0.0"
     inkscape:pagecheckerboard="0"
     inkscape:deskcolor="#d1d1d1"
     showgrid="false"
     inkscape:zoom="9.02666"
     inkscape:cx="3.3234884"
     inkscape:cy="18.500752"
     inkscape:window-width="1366"
     inkscape:window-height="686"
     inkscape:window-x="0"
     inkscape:window-y="0"
     inkscape:window-maximized="1"
     inkscape:current-layer="svg190" /><g
     id="g3652"
     transform="matrix(0.35277082,0,0,0.35277082,0.02186344,-0.08061378)"><g
       id="g3654"><g
         id="g3660"><path
           d="m 7.195,0.836 c 0.09,0 0.176,-0.012 0.258,-0.035 1.078,-0.071 2.156,-0.067 3.231,0.008 0.976,0.078 1.921,0.289 2.836,0.636 1.519,0.625 2.558,1.711 3.121,3.254 0.316,0.93 0.507,1.887 0.566,2.867 0.078,1.235 0.051,2.465 -0.086,3.696 -0.105,0.863 -0.328,1.691 -0.672,2.488 -0.637,1.383 -1.672,2.336 -3.101,2.859 C 12.191,17 11,17.207 9.773,17.227 8.398,17.301 7.035,17.195 5.684,16.918 3.203,16.367 1.668,14.852 1.09,12.375 0.844,11.262 0.73,10.133 0.754,8.992 0.727,7.781 0.855,6.582 1.141,5.402 1.75,3.09 3.219,1.656 5.547,1.102 6.09,0.969 6.641,0.879 7.195,0.836 Z"
           style="fill:url(#radialGradient3666-6);fill-rule:evenodd;stroke:none;stroke-width:0.99975004;stroke-dasharray:none"
           id="path3668" /></g></g></g><g
     id="g40740"
     transform="matrix(0.11676847,0,0,0.11024053,-0.53971596,-0.4334052)"><g
       transform="matrix(0.36,0,0,0.36,14.012,14.113)"
       id="g40728"><path
         id="Shape"
         d="m 63.697,1.417 c 0.657,-1.036 1.832,-1.725 3.066,-1.73 1.729,-0.004 3.375,0.967 4.376,2.35 0.943,1.322 1.234,2.993 1.236,4.589 -0.015,2.244 -0.532,4.449 -1.148,6.596 -1.539,5.067 -3.63,9.946 -5.192,15.007 -1.72,5.743 -2.545,12.143 -0.234,17.845 1.208,-3.372 2.403,-6.751 3.607,-10.127 0.342,-0.892 0.792,-1.906 1.748,-2.272 1.331,-0.474 2.688,0.915 2.649,2.201 -0.364,1.873 -1.07,3.658 -1.626,5.48 -4.503,13.536 -9.546,26.885 -14.402,40.299 6.458,-5.905 12.936,-11.788 19.402,-17.682 1.861,-1.694 3.879,-3.54 4.449,-6.1 0.569,-2.513 -0.489,-5.007 -1.688,-7.165 -1.385,-2.575 -3.153,-5.024 -3.803,-7.922 -0.327,-1.501 -0.228,-3.228 0.784,-4.458 0.73,-0.926 2.059,-1.404 3.18,-0.952 1.107,0.423 1.775,1.486 2.298,2.49 1.757,3.525 2.853,7.377 3.23,11.299 1.2,-2.421 2.414,-4.832 3.616,-7.251 0.726,-1.425 1.367,-2.954 2.545,-4.08 0.711,-0.702 1.747,-1.144 2.75,-0.916 1.258,0.278 2.141,1.422 2.479,2.61 0.383,1.262 -0.022,2.576 -0.429,3.775 -1.212,3.353 -3.116,6.387 -4.951,9.424 -2.558,4.02 -5.275,7.943 -8.241,11.675 1.695,-1.132 3.48,-2.323 5.556,-2.56 1.964,-0.263 4.135,0.887 4.785,2.804 0.435,1.305 -0.269,2.782 -1.451,3.419 -1.734,0.967 -3.786,0.954 -5.713,1.04 -6.993,0.192 -13.808,3.635 -18.147,9.116 -3.424,4.371 -5.173,9.802 -8.648,14.137 -2.192,2.642 -5.289,5.959 -8.696,5.226 -4.537,-0.975 -4.537,-8.066 -5.668,-11.581 -0.583,-1.772 -1.677,-3.391 -3.195,-4.496 -1.327,-0.98 -2.916,-1.542 -4.522,-1.85 -3.687,-0.708 -7.49,-0.334 -11.168,-1.094 -1.841,-0.375 -3.654,-1.113 -5.06,-2.386 -1.34,-1.176 -2.266,-2.75 -2.908,-4.397 -1.386,-3.588 -1.668,-7.481 -2.9,-11.114 C 13.88,57.436 10.352,52.812 5.757,49.741 4.788,49.087 3.735,48.449 3.108,47.429 c -0.51,-0.797 -0.465,-1.93 0.203,-2.625 1.126,-1.226 3.161,-1.327 4.462,-0.313 2.666,1.891 3.051,5.565 5.536,7.621 0.004,-3.394 -0.013,-6.785 -0.019,-10.177 0.008,-0.98 -0.101,-2.035 0.389,-2.926 0.446,-0.844 1.68,-1.073 2.397,-0.44 0.969,0.812 1.264,2.137 1.402,3.336 0.482,4.675 0.948,9.352 1.432,14.03 2.436,-2.188 3.555,-5.739 2.767,-8.924 -0.239,-1.017 -0.626,-2.063 -0.407,-3.118 0.179,-0.885 1.118,-1.508 2.003,-1.35 0.995,0.135 1.705,0.988 2.078,1.864 0.594,1.452 0.596,3.069 0.476,4.611 -0.353,3.512 -1.839,6.755 -2.864,10.097 -0.999,2.95 -1.686,6.228 -0.685,9.275 0.892,2.849 3.153,5.101 5.806,6.378 3.275,1.609 6.964,2.109 10.573,2.251 -2.194,-3.84 -4.58,-7.903 -4.539,-12.471 0.043,-4.599 2.967,-8.473 3.757,-12.912 C 39.221,44.272 35.898,36.267 29.712,32.042 26.964,30.154 23.665,29.314 20.842,27.563 18.288,26 15.994,23.218 16.395,20.05 c 1.94,-0.751 4.106,-0.271 5.857,0.737 3.422,1.826 5.599,5.288 9.038,7.086 1.208,0.659 2.593,0.985 3.969,0.901 0.745,-1.786 0,-3.786 -1.202,-5.177 -2.261,-2.724 -6.077,-3.385 -8.441,-5.989 -1.185,-1.359 -1.846,-3.301 -1.348,-5.078 0.405,-1.404 1.858,-2.36 3.305,-2.254 2.143,0.133 3.988,1.475 5.453,2.952 4.847,4.845 7.636,11.435 8.73,18.132 1.292,7.899 0.288,15.957 -1.303,23.735 -0.297,1.585 -0.853,3.21 -0.442,4.828 0.177,0.749 0.717,1.522 1.547,1.589 1.141,0.073 2.084,-0.704 2.915,-1.385 2.599,-2.123 4.665,-4.981 5.517,-8.254 0.666,-2.386 0.685,-4.884 0.638,-7.341 0.013,-1.229 -0.078,-2.586 0.657,-3.65 0.525,-0.822 1.505,-1.468 2.513,-1.229 0.79,0.15 1.35,0.835 1.591,1.569 0.388,1.209 0.329,2.514 0.095,3.747 -0.743,3.403 -1.415,6.85 -2.761,10.081 -0.95,2.319 -2.233,4.524 -3.971,6.341 -1.916,2.031 -4.283,3.659 -5.827,6.026 -1.053,1.617 -1.734,3.626 -1.277,5.558 0.334,1.541 1.507,2.799 2.922,3.441 2.061,0.941 4.563,0.893 6.572,-0.166 1.594,-0.862 2.727,-2.352 3.629,-3.883 1.589,-2.754 2.552,-5.812 3.351,-8.874 1.229,-4.944 1.953,-10.013 2.237,-15.1 0.325,-5.433 -0.661,-11.051 -3.4,-15.797 -1.456,-2.541 -3.515,-4.705 -5.92,-6.361 -2.166,-1.611 -4.548,-3.006 -6.305,-5.093 -1.643,-1.934 -2.782,-4.544 -2.184,-7.111 1.124,-0.706 2.543,-0.829 3.788,-0.387 2.349,0.799 4.189,2.685 5.375,4.819 1.611,2.515 2.955,5.508 5.793,6.874 -2.309,-4.542 -4.69,-9.045 -7.027,-13.571 -0.76,-1.529 -1.509,-3.2 -1.311,-4.949 0.144,-1.333 1.382,-2.426 2.719,-2.42 1.187,0.004 2.3,0.672 3.007,1.602 0.807,1.047 1.193,2.337 1.557,3.59 1.862,6.482 3.723,12.961 5.592,19.441 2.349,-4.475 3.342,-9.66 2.674,-14.682 C 64.425,11.686 63.643,9.115 63.023,6.518 62.601,4.819 62.728,2.913 63.697,1.417 Z"
         fill="#3e9def" /></g></g></svg>
