<?xml version="1.0" encoding="UTF-8" standalone="no"?>
<svg
   width="24"
   height="24"
   viewBox="0 0 6.349875 6.349875"
   version="1.1"
   id="svg1"
   sodipodi:docname="unity-webapps-yahoo-mail.svg"
   inkscape:version="1.3 (0e150ed6c4, 2023-07-21)"
   xmlns:inkscape="http://www.inkscape.org/namespaces/inkscape"
   xmlns:sodipodi="http://sodipodi.sourceforge.net/DTD/sodipodi-0.dtd"
   xmlns="http://www.w3.org/2000/svg"
   xmlns:svg="http://www.w3.org/2000/svg"
   xmlns:sketch="http://www.bohemiancoding.com/sketch/ns">
  <defs
     id="defs1" />
  <sodipodi:namedview
     id="namedview1"
     pagecolor="#ffffff"
     bordercolor="#000000"
     borderopacity="0.25"
     inkscape:showpageshadow="2"
     inkscape:pageopacity="0.0"
     inkscape:pagecheckerboard="0"
     inkscape:deskcolor="#d1d1d1"
     inkscape:zoom="4.4801844"
     inkscape:cx="73.657683"
     inkscape:cy="52.564801"
     inkscape:window-width="2560"
     inkscape:window-height="998"
     inkscape:window-x="0"
     inkscape:window-y="0"
     inkscape:window-maximized="1"
     inkscape:current-layer="svg1" />
  <path
     d="m 3.1749374,0.26457811 c -2.64578117,0 -2.91035929,1.32289059 -2.91035929,2.91035929 0,2.116625 0.79373439,2.9103592 2.91035929,2.9103592 2.116625,0 2.9103592,-0.7937342 2.9103592,-2.9103592 0,-1.5874687 -0.264578,-2.91035929 -2.9103592,-2.91035929 z"
     sketch:type="MSShapeGroup"
     id="path6"
     style="font-variation-settings:normal;display:inline;vector-effect:none;fill:#881fa2;fill-opacity:1;stroke-width:0.295341;stroke-linecap:butt;stroke-linejoin:miter;stroke-miterlimit:4;stroke-dasharray:none;stroke-dashoffset:0;stroke-opacity:1;-inkscape-stroke:none;stop-color:#000000"
     sodipodi:nodetypes="sssss"
     inkscape:label="Shape" />
  <path
     d="m 4.2165862,2.6242429 c -0.052113,0.00505 -0.2683335,0.053666 -0.3406664,0.069223 -0.077777,0.021 -0.7886663,0.5697218 -0.8337773,0.7046662 a 0.96444386,0.96444386 0 0 0 -0.015551,0.1858888 l -0.00549,0.1088888 c 0,0.077778 0.021776,0.2029999 0.031888,0.2702776 0.046664,0.0105 0.3849998,0.00155 0.4472213,0.011666 l -0.00775,0.1396111 c -0.061052,-0.00466 -0.4903885,-0.0035 -0.7353878,-0.0035 -0.1244451,0 -0.5250002,0.013611 -0.6478891,0.010112 L 2.132515,3.988855 C 2.199792,3.983405 2.4786253,4.000522 2.5404591,3.935578 2.5707961,3.9033 2.5610721,3.869078 2.5610721,3.6828004 v -0.088278 c 0,-0.041611 0,-0.1193887 -0.010123,-0.192111 C 2.5252851,3.3246328 1.8991715,2.5429668 1.7381717,2.4185225 1.6915077,2.4029671 1.3990604,2.3738002 1.3263387,2.3582448 l -0.00345,-0.1193887 c 0.036164,-0.017889 0.3616667,0.00428 0.6774438,-0.00739 0.2072783,-0.00778 0.6805552,0 0.7388889,0.007 l -0.014776,0.1053886 c -0.062226,0.015555 -0.3616667,0.021389 -0.4394445,0.042 0.2022219,0.3006109 0.521889,0.6883329 0.6257224,0.8392217 0.056781,-0.08322 0.5584478,-0.4277755 0.5736144,-0.5471643 -0.077777,-0.015555 -0.3352224,-0.052889 -0.3768333,-0.052889 l -0.0245,-0.136111 c 0.070389,-0.010889 0.4417774,0 0.6261103,0 0.1594447,0 0.4997223,0 0.5965557,0.00855 l -0.088277,0.1275554 m 0.3379438,1.3887214 -0.1201664,-0.010112 -0.00151,-0.2605553 0.1524446,0.018667 0.1364993,0.00622 -0.037725,0.255111 -0.1295003,-0.00972 M 4.7104747,3.5529091 4.4856972,3.5315199 c 0.023337,-0.1139444 0.00312,-0.9854439 0.00151,-1.0783882 L 4.4755416,2.2699651 c 0.062226,0.012055 0.052889,0.00584 0.3169445,0.033445 0.160611,0.017111 0.1816104,0.0245 0.2345001,0.026444 L 4.958148,2.5468537 C 4.8990346,2.7202984 4.7287041,3.4949647 4.7104262,3.5529091 Z"
     fill="#ffffff"
     stroke-width="0.143888"
     id="path2" />
</svg>
