<?xml version="1.0" encoding="UTF-8" standalone="no"?>
<svg
   width="24"
   height="24"
   viewBox="0 0 24 24"
   fill="none"
   version="1.1"
   id="svg154"
   sodipodi:docname="whatsapp-for-linux.svg"
   inkscape:version="1.2.2 (b0a8486541, 2022-12-01)"
   inkscape:export-filename="arduino.svg"
   inkscape:export-xdpi="96"
   inkscape:export-ydpi="96"
   xml:space="preserve"
   xmlns:inkscape="http://www.inkscape.org/namespaces/inkscape"
   xmlns:sodipodi="http://sodipodi.sourceforge.net/DTD/sodipodi-0.dtd"
   xmlns:xlink="http://www.w3.org/1999/xlink"
   xmlns="http://www.w3.org/2000/svg"
   xmlns:svg="http://www.w3.org/2000/svg"
   xmlns:sketch="http://www.bohemiancoding.com/sketch/ns"><sodipodi:namedview
     id="namedview156"
     pagecolor="#ffffff"
     bordercolor="#000000"
     borderopacity="1"
     inkscape:showpageshadow="0"
     inkscape:pageopacity="1"
     inkscape:pagecheckerboard="false"
     inkscape:deskcolor="#ffffff"
     showgrid="true"
     inkscape:zoom="11.313709"
     inkscape:cx="4.4194174"
     inkscape:cy="22.229669"
     inkscape:window-width="1920"
     inkscape:window-height="1052"
     inkscape:window-x="0"
     inkscape:window-y="0"
     inkscape:window-maximized="1"
     inkscape:current-layer="svg154"
     showguides="true"
     guidecolor="#ff0000"
     guideopacity="1"
     inkscape:lockguides="true"
     showborder="true"
     borderlayer="true"><inkscape:grid
       type="xygrid"
       id="grid356"
       color="#000000"
       opacity="0.10196078"
       empcolor="#000000"
       empopacity="0.10196078"
       snapvisiblegridlinesonly="true"
       enabled="true"
       visible="true"
       dotted="false" /><sodipodi:guide
       position="4.003125,23.042969"
       orientation="1,0"
       id="guide764"
       inkscape:locked="true" /><sodipodi:guide
       position="5.0007813,21.049219"
       orientation="1,0"
       id="guide2218"
       inkscape:locked="true" /><sodipodi:guide
       position="3.6445312,20"
       orientation="0,-1"
       id="guide2220"
       inkscape:locked="true" /><sodipodi:guide
       position="3.796875,5"
       orientation="0,-1"
       id="guide2222"
       inkscape:locked="true" /><sodipodi:guide
       position="3.625,4"
       orientation="0,-1"
       id="guide2224"
       inkscape:locked="true" /><sodipodi:guide
       position="19,4.8984375"
       orientation="1,0"
       id="guide2226"
       inkscape:locked="true" /><sodipodi:guide
       position="20,3.3312502"
       orientation="1,0"
       id="guide2228"
       inkscape:locked="true" /><sodipodi:guide
       position="22.875,19"
       orientation="0,-1"
       id="guide2230"
       inkscape:locked="true" /></sodipodi:namedview><defs
     id="defs152"><radialGradient
       id="radialGradient20031"
       cx="0"
       cy="0"
       r="1"
       gradientUnits="userSpaceOnUse"
       gradientTransform="translate(12 1) rotate(90) scale(22)"><stop
         stop-color="#8FC8FF"
         id="stop20027"
         offset="0"
         style="stop-color:#59d264;stop-opacity:1;" /><stop
         offset="0.99730951"
         stop-color="#0056A8"
         id="stop20029"
         style="stop-color:#29b63f;stop-opacity:1;" /></radialGradient><radialGradient
       id="radialGradient3053"
       cx="0"
       cy="0"
       r="1"
       gradientUnits="userSpaceOnUse"
       gradientTransform="translate(12 1) rotate(90) scale(22)"><stop
         stop-color="#8FC8FF"
         id="stop3049"
         offset="0"
         style="stop-color:#3f3f3f;stop-opacity:1;" /><stop
         offset="0.99730951"
         stop-color="#0056A8"
         id="stop3051"
         style="stop-color:#3f3f3f;stop-opacity:1;" /></radialGradient><radialGradient
       id="paint0_radial_29_23"
       cx="0"
       cy="0"
       r="1"
       gradientUnits="userSpaceOnUse"
       gradientTransform="translate(12 1) rotate(90) scale(22)"><stop
         stop-color="#8FC8FF"
         id="stop147"
         offset="0"
         style="stop-color:#f6f6f6;stop-opacity:1;" /><stop
         offset="1"
         stop-color="#0056A8"
         id="stop149"
         style="stop-color:#cfcfcf;stop-opacity:1;" /></radialGradient><radialGradient
       inkscape:collect="always"
       xlink:href="#radialGradient20031"
       id="radialGradient1161"
       gradientUnits="userSpaceOnUse"
       gradientTransform="matrix(3.9045581e-8,90.059469,-90.006811,0,-107.36954,-11.19048)"
       cx="0.17911513"
       cy="-1.7483425"
       r="1"
       fx="0.17911513"
       fy="-1.7483425" /><radialGradient
       id="paint0_radial_10_2"
       cx="0"
       cy="0"
       r="1"
       gradientUnits="userSpaceOnUse"
       gradientTransform="matrix(-10.999959,21.999967,-21.999967,-10.999959,17.5,1)"
       xlink:href="#paint0_radial_29_23"><stop
         stop-color="#777777"
         id="stop2847" /><stop
         offset="1"
         stop-color="#222222"
         id="stop2849" /></radialGradient><linearGradient
       id="a"
       gradientUnits="userSpaceOnUse"
       x1="609.77002"
       y1="1190.114"
       x2="609.77002"
       y2="21.084"
       gradientTransform="matrix(0.00221442,0,0,0.00221442,26.424796,288.67932)"><stop
         offset="0"
         stop-color="#20b038"
         id="stop24570" /><stop
         offset="1"
         stop-color="#60d66a"
         id="stop24572" /></linearGradient></defs><path
     d="M 50,5 C 9.0909092,5 5,25.454546 5,50 5,82.727274 17.272728,95 50,95 82.727274,95 95,82.727274 95,50 95,25.454546 90.909093,5 50,5 Z"
     sketch:type="MSShapeGroup"
     id="path6"
     style="font-variation-settings:normal;display:inline;opacity:1;vector-effect:none;fill:url(#radialGradient1161);fill-opacity:1;stroke-width:4.56656;stroke-linecap:butt;stroke-linejoin:miter;stroke-miterlimit:4;stroke-dasharray:none;stroke-dashoffset:0;stroke-opacity:1;-inkscape-stroke:none;stop-color:#000000;stop-opacity:1"
     sodipodi:nodetypes="sssss"
     inkscape:label="Shape"
     transform="matrix(0.24444444,0,0,0.24444444,-0.22222222,-0.22222222)"
     sodipodi:insensitive="true" /><g
     inkscape:groupmode="layer"
     id="layer4"
     inkscape:label="Colors References"
     style="display:none"
     sodipodi:insensitive="true"
     inkscape:highlight-color="#cc5ecc"><rect
       style="display:inline;fill:#3947be;fill-opacity:1;stroke-width:22.6872;paint-order:markers stroke fill"
       id="rect7816"
       width="1.9999923"
       height="2"
       x="12"
       y="-2.9999964"
       rx="0"
       ry="0"
       inkscape:label="Dark Blue" /><rect
       style="display:inline;fill:#6c7ad8;fill-opacity:1;stroke-width:22.6873;paint-order:markers stroke fill"
       id="rect7820"
       width="2"
       height="2.0000076"
       x="9"
       y="-3.0000041"
       rx="0"
       ry="0"
       inkscape:label="Blue" /><rect
       style="display:inline;fill:#33cc33;fill-opacity:1;stroke-width:22.6873;paint-order:markers stroke fill"
       id="rect7814"
       width="2"
       height="2.0000076"
       x="6"
       y="-3.0000041"
       rx="0"
       ry="0"
       inkscape:label="Green" /><rect
       style="display:inline;fill:#ffc328;fill-opacity:1;stroke-width:22.6872;paint-order:markers stroke fill"
       id="rect7824"
       width="1.9999926"
       height="2.0000002"
       x="3"
       y="-2.9999964"
       rx="0"
       ry="0"
       inkscape:label="Yellow" /><rect
       style="display:inline;fill:#cc5e55;fill-opacity:1;stroke-width:22.6873;paint-order:markers stroke fill"
       id="rect7822"
       width="2"
       height="2.0000076"
       x="0"
       y="-3.0000038"
       rx="0"
       ry="0"
       inkscape:label="Red" /><rect
       style="display:inline;fill:#0bb1cb;fill-opacity:1;stroke-width:22.6872;paint-order:markers stroke fill"
       id="rect3087"
       width="1.9999919"
       height="1.9999996"
       x="-3"
       y="12.000004"
       rx="0"
       ry="0"
       inkscape:label="Blue 4" /><rect
       style="display:inline;fill:#2a92c9;fill-opacity:1;stroke-width:22.6873;paint-order:markers stroke fill"
       id="rect3085"
       width="2"
       height="2.0000079"
       x="-3"
       y="8.9999962"
       rx="0"
       ry="0"
       inkscape:label="Blue 3" /><rect
       style="display:inline;fill:#006699;fill-opacity:1;stroke-width:22.6873;paint-order:markers stroke fill"
       id="rect3089"
       width="2"
       height="2.0000076"
       x="-3"
       y="6.0000038"
       rx="0"
       ry="0"
       inkscape:label="Blue 2" /><rect
       style="display:inline;fill:#002a44;fill-opacity:1;stroke-width:22.6873;paint-order:markers stroke fill"
       id="rect3083"
       width="2"
       height="2.0000076"
       x="-3"
       y="2.9999962"
       rx="0"
       ry="0"
       inkscape:label="Blue 1" /><rect
       style="display:inline;fill:#2c2d3d;fill-opacity:1;stroke-width:22.6873;paint-order:markers stroke fill"
       id="rect3456"
       width="2"
       height="2.0000076"
       x="-3"
       y="-3.8146973e-06"
       rx="0"
       ry="0"
       inkscape:label="Gray" /><rect
       style="display:inline;fill:#16171c;fill-opacity:1;stroke-width:22.6872;paint-order:markers stroke fill"
       id="rect3091"
       width="1.9999924"
       height="2"
       x="-3"
       y="-3"
       rx="0"
       ry="0"
       inkscape:label="Black" /></g><g
     transform="matrix(3.779602,0,0,3.779602,-71.998109,-1083.5286)"
     paint-order="stroke markers fill"
     id="g21778"><g
       id="g24798"
       transform="matrix(1.3654638,0,0,1.3654638,-15.701798,-106.18031)"><path
         fill="#e0e0e0"
         d="m 28.731908,289.07353 c -0.253886,-0.25406 -0.591482,-0.39405 -0.951165,-0.39421 -0.741186,0 -1.344362,0.60298 -1.344657,1.34413 -9.1e-5,0.23692 0.06181,0.46817 0.179473,0.67203 l -0.190763,0.69654 0.712819,-0.18691 c 0.196394,0.10711 0.417521,0.16355 0.642549,0.16364 h 5.38e-4 6e-6 c 0.741064,0 1.344332,-0.60309 1.344646,-1.34421 1.28e-4,-0.3592 -0.139624,-0.69693 -0.393478,-0.95101 z m -0.951165,2.06819 h -3.59e-4 c -0.200577,-1e-4 -0.397271,-0.054 -0.568836,-0.15576 l -0.04083,-0.0242 -0.423001,0.11091 0.112937,-0.41227 -0.0266,-0.0423 c -0.111884,-0.1779 -0.17095,-0.38348 -0.170865,-0.59458 1.79e-4,-0.61602 0.501582,-1.11718 1.118058,-1.11718 0.298531,1.3e-4 0.579112,0.11649 0.790135,0.32765 0.211011,0.21117 0.327134,0.49189 0.327045,0.79044 -1.8e-4,0.61604 -0.501615,1.11727 -1.117603,1.11727 z"
         id="path24568"
         style="stroke-width:0.00221441" /><path
         fill="url(#a)"
         d="m 26.486523,291.31474 0.182049,-0.66473 c -0.112313,-0.19454 -0.171374,-0.41525 -0.171305,-0.6413 3.59e-4,-0.70728 0.575923,-1.28271 1.283189,-1.28271 0.343271,1.6e-4 0.665452,0.13375 0.907687,0.37621 0.242289,0.24247 0.37564,0.56475 0.3755,0.9075 -3.59e-4,0.7073 -0.575957,1.28277 -1.283135,1.28277 -5.2e-5,0 3.8e-5,0 0,0 h -5.38e-4 c -0.214749,-6e-5 -0.425759,-0.054 -0.613169,-0.15611 z"
         id="path24575"
         style="fill:url(#a);stroke-width:0.00221441" /><path
         fill-rule="evenodd"
         clip-rule="evenodd"
         fill="#ffffff"
         d="m 27.448463,289.4528 c -0.02487,-0.0553 -0.05107,-0.0564 -0.07474,-0.0574 -0.01936,-6.2e-4 -0.04152,-6.2e-4 -0.06365,-6.2e-4 -0.02214,0 -0.05813,0.008 -0.08856,0.0415 -0.03045,0.0332 -0.116256,0.11357 -0.116256,0.27697 0,0.16342 0.119025,0.32132 0.135616,0.34349 0.01662,0.0221 0.229763,0.36818 0.567341,0.50131 0.280555,0.11063 0.337648,0.0886 0.398544,0.0831 0.0609,-0.006 0.196495,-0.0803 0.224175,-0.15788 0.02768,-0.0775 0.02768,-0.14401 0.01938,-0.1579 -0.0083,-0.0139 -0.03045,-0.0221 -0.06367,-0.0387 -0.03322,-0.0166 -0.196493,-0.097 -0.226942,-0.10804 -0.03045,-0.0111 -0.0526,-0.0166 -0.07474,0.0167 -0.02214,0.0332 -0.08576,0.108 -0.105135,0.13014 -0.01938,0.0222 -0.03875,0.0249 -0.07197,0.008 -0.03322,-0.0167 -0.140184,-0.0517 -0.267081,-0.16483 -0.09873,-0.088 -0.16539,-0.19674 -0.184767,-0.22999 -0.01938,-0.0332 -0.0021,-0.0512 0.01459,-0.0678 0.01491,-0.0149 0.03322,-0.0387 0.04982,-0.0581 0.01658,-0.0194 0.02211,-0.0332 0.03318,-0.0554 0.01108,-0.0222 0.0055,-0.0415 -0.0027,-0.0582 -0.0083,-0.0166 -0.07285,-0.18085 -0.102382,-0.24653 z"
         id="path24579"
         style="stroke-width:0.00221441" /><path
         fill="#ffffff"
         d="m 28.720926,289.06926 c -0.250975,-0.25114 -0.584695,-0.38953 -0.940246,-0.38969 -0.73268,0 -1.328931,0.59606 -1.329224,1.3287 -9e-5,0.2342 0.0611,0.46281 0.177413,0.66432 l -0.188572,0.68854 0.704635,-0.18477 c 0.194143,0.10589 0.412731,0.16168 0.635176,0.16177 h 5.38e-4 5e-6 c 0.732558,0 1.328895,-0.59617 1.329207,-1.32878 1.29e-4,-0.35507 -0.13802,-0.68892 -0.388962,-0.94009 z m -0.940246,2.04445 h -3.58e-4 c -0.198277,-1e-4 -0.392715,-0.0534 -0.56231,-0.15397 l -0.04036,-0.0239 -0.418146,0.10963 0.111639,-0.40754 -0.0263,-0.0418 c -0.110597,-0.17585 -0.168986,-0.37908 -0.168899,-0.58775 1.79e-4,-0.60895 0.495821,-1.10436 1.105222,-1.10436 0.295107,1.3e-4 0.572463,0.11515 0.781068,0.32389 0.208587,0.20875 0.323374,0.48624 0.323288,0.78136 -1.79e-4,0.60897 -0.49586,1.10445 -1.104773,1.10445 z"
         id="path24581"
         style="stroke-width:0.00221441" /></g></g></svg>
