<?xml version="1.0" encoding="UTF-8" standalone="no"?>
<svg
   width="24"
   height="24"
   viewBox="0 0 6.349875 6.349875"
   version="1.1"
   id="svg42563"
   sodipodi:docname="winefile.svg"
   xml:space="preserve"
   inkscape:version="1.2.2 (b0a8486541, 2022-12-01)"
   xmlns:inkscape="http://www.inkscape.org/namespaces/inkscape"
   xmlns:sodipodi="http://sodipodi.sourceforge.net/DTD/sodipodi-0.dtd"
   xmlns="http://www.w3.org/2000/svg"
   xmlns:svg="http://www.w3.org/2000/svg"><defs
     id="defs42567"><linearGradient
       id="paint0_linear_16_2"
       x1="23"
       y1="0.999999"
       x2="1"
       y2="12"
       gradientUnits="userSpaceOnUse"><stop
         stop-color="#E3C880"
         id="stop1669" /><stop
         offset="1"
         stop-color="#6F5C38"
         id="stop1671" /></linearGradient><linearGradient
       id="paint1_linear_16_2"
       x1="23"
       y1="5.4"
       x2="1.42949"
       y2="23.5115"
       gradientUnits="userSpaceOnUse"><stop
         stop-color="#FFE795"
         id="stop1674" /><stop
         offset="1"
         stop-color="#7A653E"
         id="stop1676" /></linearGradient></defs><sodipodi:namedview
     id="namedview42565"
     pagecolor="#ffffff"
     bordercolor="#000000"
     borderopacity="0.25"
     inkscape:showpageshadow="2"
     inkscape:pageopacity="0.0"
     inkscape:pagecheckerboard="0"
     inkscape:deskcolor="#d1d1d1"
     showgrid="false"
     inkscape:zoom="9.3691649"
     inkscape:cx="13.555104"
     inkscape:cy="36.235887"
     inkscape:window-width="2560"
     inkscape:window-height="1000"
     inkscape:window-x="1680"
     inkscape:window-y="0"
     inkscape:window-maximized="1"
     inkscape:current-layer="svg42563" /><g
     style="fill:none"
     id="g42707"
     transform="scale(0.26457812)"><rect
       x="1"
       y="1"
       width="22"
       height="22"
       rx="6.5999999"
       fill="url(#paint0_linear_16_2)"
       id="rect1663"
       style="fill:url(#paint0_linear_16_2)" /><rect
       x="3.2"
       y="3.2"
       width="17.6"
       height="17.6"
       rx="4.4000001"
       fill="#fafafa"
       id="rect1665" /><path
       d="M 1,8.40781 C 1,6.74664 2.34664,5.4 4.00781,5.4 h 4.18267 c 1.07452,0 2.11632,0.36994 2.95012,1.04762 v 0 c 0.8339,0.67768 1.8756,1.04762 2.9502,1.04762 h 5.9014 C 21.6534,7.49524 23,8.84188 23,10.5031 V 16.4 C 23,20.0451 20.0451,23 16.4,23 H 7.6 C 3.95492,23 1,20.0451 1,16.4 Z"
       fill="url(#paint1_linear_16_2)"
       fill-opacity="0.9"
       id="path1667"
       style="fill:url(#paint1_linear_16_2)" /></g><path
     d="M 2.0909569,3.6368382 2.0900456,2.8626966 2.9580502,2.7332933 V 3.6368382 Z M 3.1024899,2.710511 4.2598293,2.5255189 V 3.6368382 H 3.1024899 Z M 4.2598293,3.7954028 V 4.906722 L 3.1024899,4.7281091 V 3.7954028 Z M 2.9580502,4.707605 2.0909569,4.5772904 V 3.7954028 h 0.8670933 z"
     fill="#ffffff"
     id="path42709"
     style="stroke-width:0.455645" /></svg>
