<?xml version="1.0" encoding="UTF-8" standalone="no"?>
<svg
   width="24"
   height="24"
   viewBox="0 0 6.349875 6.349875"
   version="1.1"
   id="svg42563"
   sodipodi:docname="wine-winefile.svg"
   xml:space="preserve"
   inkscape:version="1.3 (0e150ed6c4, 2023-07-21)"
   xmlns:inkscape="http://www.inkscape.org/namespaces/inkscape"
   xmlns:sodipodi="http://sodipodi.sourceforge.net/DTD/sodipodi-0.dtd"
   xmlns:xlink="http://www.w3.org/1999/xlink"
   xmlns="http://www.w3.org/2000/svg"
   xmlns:svg="http://www.w3.org/2000/svg"><defs
     id="defs42567"><linearGradient
       id="paint0_linear_16_2"
       x1="23"
       y1="0.999999"
       x2="1"
       y2="12"
       gradientUnits="userSpaceOnUse"><stop
         stop-color="#E3C880"
         id="stop1669" /><stop
         offset="1"
         stop-color="#6F5C38"
         id="stop1671" /></linearGradient><linearGradient
       id="paint1_linear_16_2"
       x1="23"
       y1="5.4"
       x2="1.42949"
       y2="23.5115"
       gradientUnits="userSpaceOnUse"><stop
         stop-color="#FFE795"
         id="stop1674" /><stop
         offset="1"
         stop-color="#7A653E"
         id="stop1676" /></linearGradient><linearGradient
       id="paint5_linear_207_185"
       x1="15"
       y1="5.5"
       x2="5.5"
       y2="19.5"
       gradientUnits="userSpaceOnUse"
       gradientTransform="scale(0.26457812)"><stop
         stop-color="#FFE795"
         id="stop18" /><stop
         offset="1"
         stop-color="#7A653E"
         id="stop19" /></linearGradient><linearGradient
       id="paint3_linear_207_185"
       x1="23"
       y1="9"
       x2="1.01236"
       y2="9.52141"
       gradientUnits="userSpaceOnUse"
       gradientTransform="scale(0.26457812)"><stop
         stop-opacity="0.5"
         id="stop14" /><stop
         offset="1"
         id="stop15" /></linearGradient><linearGradient
       id="paint2_linear_207_185"
       x1="12"
       y1="3"
       x2="11.5"
       y2="8"
       gradientUnits="userSpaceOnUse"
       gradientTransform="scale(0.26457812)"><stop
         stop-color="#DDDDDD"
         id="stop12" /><stop
         offset="1"
         stop-color="#CCCCCC"
         stop-opacity="0"
         id="stop13" /></linearGradient><linearGradient
       id="paint1_linear_207_185"
       x1="21"
       y1="4"
       x2="3"
       y2="4"
       gradientUnits="userSpaceOnUse"
       gradientTransform="scale(0.26457812)"><stop
         stop-opacity="0.5"
         id="stop9" /><stop
         offset="0.890123"
         id="stop10" /><stop
         offset="1"
         stop-opacity="0"
         id="stop11" /></linearGradient><linearGradient
       inkscape:collect="always"
       xlink:href="#paint0_linear_16_2"
       id="linearGradient1"
       gradientUnits="userSpaceOnUse"
       x1="23"
       y1="0.999999"
       x2="1"
       y2="12"
       gradientTransform="scale(0.26457812)" /><linearGradient
       inkscape:collect="always"
       xlink:href="#paint1_linear_16_2"
       id="linearGradient2"
       gradientUnits="userSpaceOnUse"
       x1="23"
       y1="5.4"
       x2="1.42949"
       y2="23.5115"
       gradientTransform="scale(0.26457812)" /></defs><sodipodi:namedview
     id="namedview42565"
     pagecolor="#ffffff"
     bordercolor="#000000"
     borderopacity="0.25"
     inkscape:showpageshadow="2"
     inkscape:pageopacity="0.0"
     inkscape:pagecheckerboard="0"
     inkscape:deskcolor="#d1d1d1"
     showgrid="false"
     inkscape:zoom="9.3691649"
     inkscape:cx="13.661837"
     inkscape:cy="36.235887"
     inkscape:window-width="2560"
     inkscape:window-height="998"
     inkscape:window-x="0"
     inkscape:window-y="0"
     inkscape:window-maximized="1"
     inkscape:current-layer="svg42563" /><rect
     opacity="0.8125"
     x="0.26457876"
     y="0.26457813"
     width="5.8207188"
     height="5.8207188"
     rx="1.7462156"
     fill="url(#paint0_linear_207_185)"
     id="rect1"
     style="fill:url(#linearGradient1);stroke-width:0.264578" /><rect
     opacity="0.125"
     x="0.79373449"
     y="0.59530079"
     width="4.7624063"
     height="4.7624063"
     rx="1.1641438"
     fill="url(#paint1_linear_207_185)"
     fill-opacity="0.875"
     id="rect2"
     style="fill:url(#paint1_linear_207_185);stroke-width:0.264578" /><rect
     x="0.85987943"
     y="0.8598789"
     width="4.6301169"
     height="4.6301169"
     rx="1.0979992"
     fill="#cccccc"
     stroke="url(#paint2_linear_207_185)"
     stroke-width="0.132289"
     id="rect3"
     style="stroke:url(#paint2_linear_207_185)" /><path
     opacity="0.125"
     d="m 0.264578,1.9864023 c 0,-0.4395093 0.3562916,-0.7958008 0.7958008,-0.7958008 h 1.106643 c 0.2842945,0 0.559932,0.097878 0.7805372,0.2771774 v 0 c 0.2206317,0.1792993 0.4962427,0.2771773 0.7805584,0.2771773 h 1.5613813 c 0.4395172,0 0.7957981,0.3562915 0.7957981,0.7958007 v 1.560204 c 0,0.9644137 -0.7818019,1.7462156 -1.7462156,1.7462156 H 2.0107937 c -0.9644084,0 -1.7462157,-0.7818019 -1.7462157,-1.7462156 z"
     fill="url(#paint3_linear_207_185)"
     fill-opacity="0.875"
     id="path3"
     style="fill:url(#paint3_linear_207_185);stroke-width:0.264578" /><path
     d="m 0.264578,2.2245226 c 0,-0.4395093 0.3562916,-0.7958008 0.7958008,-0.7958008 h 1.106643 c 0.2842945,0 0.559932,0.097878 0.7805372,0.2771774 v 0 c 0.2206317,0.1792993 0.4962427,0.2771773 0.7805584,0.2771773 h 1.5613813 c 0.4395172,0 0.7957981,0.3562915 0.7957981,0.795814 v 1.5601907 c 0,0.9644137 -0.7818019,1.7462156 -1.7462156,1.7462156 H 2.0107937 c -0.9644084,0 -1.7462157,-0.7818019 -1.7462157,-1.7462156 z"
     fill="url(#paint4_linear_207_185)"
     id="path4"
     style="opacity:0.875;fill:url(#linearGradient2);stroke-width:0.264578" /><path
     d="M 5.98608,2.7788905 V 4.3390812 C 5.98608,5.2487007 5.2487007,5.98608 4.3390812,5.98608 H 2.0107937 C 1.1011821,5.98608 0.363795,5.2487007 0.363795,4.3390812 V 2.2245226 c 0,-0.3847125 0.3118714,-0.696584 0.6965838,-0.696584 h 1.106643 c 0.2615037,0 0.5150331,0.090031 0.7179645,0.2549555 0.2383055,0.1936738 0.5360352,0.2993992 0.8431311,0.2993992 h 1.5613813 c 0.3846966,0 0.6965813,0.3118715 0.6965813,0.6965972 z"
     stroke="url(#paint5_linear_207_185)"
     stroke-opacity="0.375"
     stroke-width="0.198434"
     stroke-linejoin="round"
     id="path5"
     style="opacity:0.875;fill:none;stroke:url(#paint5_linear_207_185)" /><path
     d="M 2.0909569,3.6368382 2.0900456,2.8626966 2.9580502,2.7332933 V 3.6368382 Z M 3.1024899,2.710511 4.2598293,2.5255189 V 3.6368382 H 3.1024899 Z M 4.2598293,3.7954028 V 4.906722 L 3.1024899,4.7281091 V 3.7954028 Z M 2.9580502,4.707605 2.0909569,4.5772904 V 3.7954028 h 0.8670933 z"
     fill="#ffffff"
     id="path42709"
     style="stroke-width:0.455645" /></svg>
