<?xml version="1.0" encoding="UTF-8" standalone="no"?>
<svg
   width="24"
   height="24"
   viewBox="0 0 6.349875 6.349875"
   version="1.1"
   id="svg4"
   sodipodi:docname="workspace-switcher-right-top.svg"
   inkscape:version="1.3 (0e150ed6c4, 2023-07-21)"
   xmlns:inkscape="http://www.inkscape.org/namespaces/inkscape"
   xmlns:sodipodi="http://sodipodi.sourceforge.net/DTD/sodipodi-0.dtd"
   xmlns="http://www.w3.org/2000/svg"
   xmlns:svg="http://www.w3.org/2000/svg">
  <defs
     id="defs4">
    <radialGradient
       id="paint0_radial_1_42"
       cx="0"
       cy="0"
       r="1"
       gradientUnits="userSpaceOnUse"
       gradientTransform="matrix(0,2.9103593,-2.9103593,0,3.1749343,0.26457812)">
      <stop
         stop-color="#777777"
         id="stop2-0" />
      <stop
         offset="1"
         stop-color="#444444"
         id="stop3" />
    </radialGradient>
  </defs>
  <sodipodi:namedview
     id="namedview4"
     pagecolor="#ffffff"
     bordercolor="#000000"
     borderopacity="0.25"
     inkscape:showpageshadow="2"
     inkscape:pageopacity="0.0"
     inkscape:pagecheckerboard="0"
     inkscape:deskcolor="#d1d1d1"
     inkscape:zoom="9.6875"
     inkscape:cx="31.948387"
     inkscape:cy="31.948387"
     inkscape:window-width="2560"
     inkscape:window-height="998"
     inkscape:window-x="0"
     inkscape:window-y="0"
     inkscape:window-maximized="1"
     inkscape:current-layer="svg4" />
  <path
     fill-rule="evenodd"
     clip-rule="evenodd"
     d="m 2.5388989,0.29463155 c 0.031707,3.3601e-4 0.062014,-0.003701 0.090922,-0.0121177 0.3798841,-0.0248846 0.7597125,-0.0238753 1.1395408,0.003029 0.3444014,0.0268335 0.6777963,0.10155567 1.0001582,0.22416646 0.5359295,0.22064228 0.9026612,0.60334399 1.1001423,1.14809979 0.1129484,0.3279789 0.1796221,0.665242 0.2000475,1.0117837 0.02823,0.4351517 0.018124,0.8693508 -0.030321,1.3025975 -0.036247,0.3045033 -0.1150644,0.5973384 -0.2364,0.8784791 C 5.5779386,5.3381546 5.2132441,5.6744069 4.7089053,5.8594264 4.3002115,5.9975097 3.8799556,6.0702158 3.4481112,6.0775182 2.9623722,6.1027854 2.4815092,6.0664323 2.0054909,5.9684855 1.1293192,5.7733062 0.58883906,5.239123 0.38405295,4.3659888 0.29714697,3.9729315 0.25774841,3.5750854 0.26585267,3.1724504 0.25615485,2.7443101 0.3016157,2.322226 0.4022374,1.9062086 0.61691609,1.0898184 1.1351691,0.58392656 1.956999,0.38853826 2.148498,0.34172116 2.3424655,0.31041893 2.5388989,0.29463155 Z"
     fill="url(#paint0_radial_1_42)"
     id="path1-6"
     style="fill:url(#paint0_radial_1_42);stroke-width:0.264578" />
  <g
     id="g5"
     transform="matrix(0.27848977,0,0,0.27848977,-2.1853988,0.87245144)">
    <g
       transform="translate(10.583125,-280.067)"
       paint-order="markers stroke fill"
       id="g4">
      <rect
         width="13.758"
         height="10.054"
         x="1.587"
         y="283.50601"
         ry="0.26499999"
         rx="0.26499999"
         fill="#638df5"
         id="rect1" />
      <g
         transform="translate(7.408)"
         fill="#ffffff"
         id="g3">
        <rect
           ry="0.26499999"
           y="283.242"
           x="1.323"
           height="4.7620001"
           width="6.8790002"
           rx="0.26499999"
           stroke="#000000"
           stroke-width="0.265"
           stroke-linecap="round"
           stroke-linejoin="round"
           stroke-opacity="0.098"
           id="rect2" />
        <rect
           rx="0.26499999"
           width="6.8790002"
           height="4.7620001"
           x="1.323"
           y="283.242"
           ry="0.26499999"
           id="rect3" />
      </g>
    </g>
  </g>
</svg>
