<?xml version="1.0" encoding="UTF-8" standalone="no"?>
<svg
   width="24"
   height="24"
   viewBox="0 0 6.349875 6.349875"
   version="1.1"
   id="svg3"
   sodipodi:docname="wxmaxima.svg"
   inkscape:version="1.3 (0e150ed6c4, 2023-07-21)"
   xmlns:inkscape="http://www.inkscape.org/namespaces/inkscape"
   xmlns:sodipodi="http://sodipodi.sourceforge.net/DTD/sodipodi-0.dtd"
   xmlns="http://www.w3.org/2000/svg"
   xmlns:svg="http://www.w3.org/2000/svg"
   xmlns:sketch="http://www.bohemiancoding.com/sketch/ns">
  <defs
     id="defs3" />
  <sodipodi:namedview
     id="namedview3"
     pagecolor="#ffffff"
     bordercolor="#000000"
     borderopacity="0.25"
     inkscape:showpageshadow="2"
     inkscape:pageopacity="0.0"
     inkscape:pagecheckerboard="0"
     inkscape:deskcolor="#d1d1d1"
     inkscape:zoom="4.4801844"
     inkscape:cx="35.266406"
     inkscape:cy="-11.048652"
     inkscape:window-width="2560"
     inkscape:window-height="998"
     inkscape:window-x="0"
     inkscape:window-y="0"
     inkscape:window-maximized="1"
     inkscape:current-layer="svg3" />
  <path
     d="m 3.1749374,0.26457811 c -2.64578117,0 -2.91035929,1.32289059 -2.91035929,2.91035929 0,2.116625 0.79373439,2.9103592 2.91035929,2.9103592 2.116625,0 2.9103592,-0.7937342 2.9103592,-2.9103592 0,-1.5874687 -0.264578,-2.91035929 -2.9103592,-2.91035929 z"
     sketch:type="MSShapeGroup"
     id="path6"
     style="font-variation-settings:normal;display:inline;vector-effect:none;fill:#e0cef9;fill-opacity:1;stroke-width:0.295341;stroke-linecap:butt;stroke-linejoin:miter;stroke-miterlimit:4;stroke-dasharray:none;stroke-dashoffset:0;stroke-opacity:1;-inkscape-stroke:none;stop-color:#000000"
     sodipodi:nodetypes="sssss"
     inkscape:label="Shape" />
  <path
     d="m 3.1749374,0.52254189 c -2.41126864,0 -2.65239551,1.20563431 -2.65239551,2.65239551 0,1.929015 0.72338061,2.6523954 2.65239551,2.6523954 1.929015,0 2.6523954,-0.7233804 2.6523954,-2.6523954 0,-1.4467612 -0.2411267,-2.65239551 -2.6523954,-2.65239551 z"
     sketch:type="MSShapeGroup"
     id="path45683"
     style="font-variation-settings:normal;display:inline;vector-effect:none;fill:#e5d5fa;fill-opacity:1;stroke-width:0.269163;stroke-linecap:butt;stroke-linejoin:miter;stroke-miterlimit:4;stroke-dasharray:none;stroke-dashoffset:0;stroke-opacity:1;-inkscape-stroke:none;stop-color:#000000"
     sodipodi:nodetypes="sssss"
     inkscape:label="Shape" />
  <g
     id="g5"
     transform="matrix(0.425927,0,0,0.425927,-0.15321975,-0.59779605)">
    <path
       d="m 5.9889144,11.302804 c -0.693,-0.033 -1.236,-0.208 -1.627999,-0.526 -0.39,-0.318 -0.585,-0.7840005 -0.585,-1.4000005 0,-0.308 0.059,-0.588 0.177,-0.844 0.119,-0.255 0.284,-0.49 0.495999,-0.708 0.212,-0.218 0.461,-0.413 0.746,-0.587 0.288,-0.176 0.6,-0.336 0.937,-0.48 h -1.605 v -0.762 h 3.008 v 0.762 a 7.57,7.57 0 0 0 -1.367,0.533 3.89,3.89 0 0 0 -0.903,0.631 2.102,2.102 0 0 0 -0.5,0.704 1.929,1.929 0 0 0 -0.153,0.75 c 0,0.7430005 0.492,1.1440005 1.475,1.2000005 0.47,0.028 0.818,0.142 1.04,0.343 a 0.98,0.98 0 0 1 0.34,0.774 c 0,0.138 -0.025,0.274 -0.073,0.407 a 0.974,0.974 0 0 1 -0.23,0.362 1.17,1.17 0 0 1 -0.4,0.257 1.516,1.516 0 0 1 -0.56,0.11 l -0.097,-0.725 c 0.191,-0.024 0.327,-0.07 0.408,-0.139 a 0.331,0.331 0 0 0 0.12,-0.272 0.301,0.301 0 0 0 -0.177,-0.29 1.248,1.248 0 0 0 -0.467,-0.101 m 5.8609996,0.009 H 8.4649144 v -0.758 l 1.19,-1.8940005 -1.19,-1.902 v -0.761 h 3.3869996 v 1.795 h -0.754 v -1.034 H 9.4809144 l 1.1569996,1.901 -1.1569996,1.8950005 H 11.097914 V 9.5108035 h 0.754 v 1.8000005"
       fill="#9191ff"
       id="path4" />
    <path
       d="m 7.9039144,10.964804 h -0.167 l -1.505,-3.9350005 v 3.5900005 l 0.547,0.093 v 0.254 h -1.45 v -0.254 l 0.523,-0.094 V 6.6508035 l -0.523,-0.09 v -0.254 h 1.602 l 1.165,3.064 1.189,-3.064 h 1.6349996 v 0.254 l -0.523,0.09 v 3.9670005 l 0.523,0.094 v 0.254 H 8.8929144 v -0.254 l 0.547,-0.094 V 7.0288035 l -1.535,3.9370005"
       fill="#c83737"
       id="path5" />
  </g>
</svg>
