<?xml version="1.0" encoding="UTF-8" standalone="no"?>
<svg
   width="24"
   height="24"
   version="1.1"
   id="svg65124"
   sodipodi:docname="xfce4-fsguard-plugin-warning.svg"
   xml:space="preserve"
   inkscape:version="1.2.2 (b0a8486541, 2022-12-01)"
   xmlns:inkscape="http://www.inkscape.org/namespaces/inkscape"
   xmlns:sodipodi="http://sodipodi.sourceforge.net/DTD/sodipodi-0.dtd"
   xmlns:xlink="http://www.w3.org/1999/xlink"
   xmlns="http://www.w3.org/2000/svg"
   xmlns:svg="http://www.w3.org/2000/svg"><sodipodi:namedview
     id="namedview65126"
     pagecolor="#ffffff"
     bordercolor="#000000"
     borderopacity="0.25"
     inkscape:showpageshadow="2"
     inkscape:pageopacity="0.0"
     inkscape:pagecheckerboard="0"
     inkscape:deskcolor="#d1d1d1"
     showgrid="false"
     inkscape:zoom="3.4140625"
     inkscape:cx="-134.15103"
     inkscape:cy="17.867277"
     inkscape:window-width="2560"
     inkscape:window-height="998"
     inkscape:window-x="1680"
     inkscape:window-y="0"
     inkscape:window-maximized="1"
     inkscape:current-layer="svg65124" /><defs
     id="defs65066"><linearGradient
       id="a"><stop
         offset="0"
         id="stop65056" /><stop
         stop-color="#313131"
         offset="1"
         id="stop65058" /></linearGradient><linearGradient
       id="b"
       x1="5"
       x2="5"
       y1="6"
       y2="4"
       gradientTransform="translate(67,22)"
       gradientUnits="userSpaceOnUse"><stop
         stop-color="#E2E096"
         offset="0"
         id="stop65061" /><stop
         stop-color="#F9F8D2"
         offset="1"
         id="stop65063" /></linearGradient><radialGradient
       fx="0"
       fy="0"
       cx="0"
       cy="0"
       r="1"
       gradientUnits="userSpaceOnUse"
       gradientTransform="matrix(0,22.000002,-22.000002,0,11.999545,0.9999633)"
       spreadMethod="pad"
       id="radialGradient12763-3"><stop
         style="stop-color:#d9d9d9;stop-opacity:1;"
         offset="0"
         id="stop12759-6" /><stop
         style="stop-color:#cacbcf;stop-opacity:1;"
         offset="1"
         id="stop12761-7" /></radialGradient><linearGradient
       id="a-8"><stop
         offset="0"
         id="stop26479" /><stop
         stop-opacity="0"
         offset="1"
         id="stop26481" /></linearGradient><radialGradient
       fx="0"
       fy="0"
       cx="0"
       cy="0"
       r="1"
       gradientUnits="userSpaceOnUse"
       gradientTransform="matrix(0,16.500002,-16.500002,0,8.999998,0.749999)"
       spreadMethod="pad"
       id="radialGradient12763-3-8"><stop
         style="stop-opacity:1;stop-color:#a4a4a4"
         offset="0"
         id="stop12759-6-4" /><stop
         style="stop-opacity:1;stop-color:#626262"
         offset="1"
         id="stop12761-7-3" /></radialGradient><radialGradient
       fx="0"
       fy="0"
       cx="0"
       cy="0"
       r="1"
       gradientUnits="userSpaceOnUse"
       gradientTransform="matrix(0,16.500002,-16.500002,0,8.999998,0.749999)"
       spreadMethod="pad"
       id="radialGradient12763-3-4"><stop
         style="stop-opacity:1;stop-color:#a4a4a4"
         offset="0"
         id="stop12759-6-3" /><stop
         style="stop-opacity:1;stop-color:#626262"
         offset="1"
         id="stop12761-7-0" /></radialGradient><radialGradient
       id="paint0_radial_2_164"
       cx="0"
       cy="0"
       r="1"
       gradientUnits="userSpaceOnUse"
       gradientTransform="matrix(0,22,-22,0,12,1.00004)"><stop
         stop-color="#C5FFFE"
         id="stop64008" /><stop
         offset="1"
         stop-color="#00FFFF"
         id="stop64010" /></radialGradient><radialGradient
       id="paint1_radial_2_164"
       cx="0"
       cy="0"
       r="1"
       gradientUnits="userSpaceOnUse"
       gradientTransform="matrix(3.8397244e-5,22,-22,3.8397244e-5,12,1)"><stop
         stop-color="#58C6E3"
         id="stop64013" /><stop
         offset="1"
         stop-color="#034DB0"
         id="stop64015" /></radialGradient></defs><use
     transform="translate(27,22)"
     width="100%"
     height="100%"
     fill="#1a1a1a"
     fill-rule="evenodd"
     xlink:href="#a"
     id="use65084" /><path
     d="m 9.592881,1.1146313 c 0.12,0 0.234667,-0.016 0.344,-0.046667 1.437333,-0.094667 2.874666,-0.089333 4.308,0.010667 1.301333,0.104 2.561333,0.3853333 3.781333,0.848 2.025333,0.8333333 3.410667,2.2813333 4.161333,4.3386665 0.421334,1.24 0.676,2.516 0.754667,3.8226672 0.104,1.646666 0.068,3.286666 -0.114667,4.928 -0.14,1.150666 -0.437333,2.254666 -0.896,3.317332 -0.849333,1.844 -2.229333,3.114666 -4.134666,3.812 -1.542667,0.521333 -3.130667,0.797333 -4.766667,0.824 -1.833333,0.09867 -3.650667,-0.04267 -5.452,-0.412 -3.308,-0.734667 -5.354666,-2.754667 -6.125333,-6.057332 -0.328,-1.484 -0.48,-2.989334 -0.448,-4.510667 -0.036,-1.62 0.134667,-3.2133336 0.516,-4.7866669 0.812,-3.0826665 2.770667,-4.9946665 5.874667,-5.7333331 0.724,-0.1773334 1.458666,-0.2973334 2.197333,-0.3546667 z"
     style="fill:url(#radialGradient12763-3);fill-rule:evenodd;stroke:none;stroke-width:1.33333"
     id="path12765-6" /><path
     id="path8363"
     style="fill:#808080;fill-opacity:1;stroke-width:0.919419"
     d="M 12,4.644531 C 11.033416,4.642031 10.075159,4.830468 9.181641,5.199219 8.288122,5.567979 7.476473,6.109473 6.792969,6.792969 6.109473,7.476474 5.567979,8.288122 5.199219,9.181641 4.830468,10.075159 4.64203,11.033416 4.644531,12 c -0.0025,0.966585 0.185937,1.924776 0.554688,2.818359 0.36876,0.89349 0.910254,1.705176 1.59375,2.388672 0.683505,0.683496 1.495153,1.225064 2.388672,1.59375 0.893518,0.368779 1.851775,0.55717 2.818359,0.554688 0.966585,0.0025 1.924777,-0.185909 2.818359,-0.554688 0.893491,-0.368686 1.705176,-0.910254 2.388672,-1.59375 0.683496,-0.683496 1.225064,-1.495182 1.59375,-2.388672 C 19.16956,13.924776 19.357952,12.966585 19.355469,12 19.357969,11.033416 19.16956,10.075159 18.800781,9.181641 18.432095,8.288122 17.890527,7.476474 17.207031,6.792969 16.523535,6.109473 15.71185,5.567979 14.818359,5.199219 13.924777,4.830468 12.966585,4.642031 12,4.644531 Z m 0,5.917969 c 0.381369,-9e-5 0.747881,0.15034 1.017578,0.419922 C 13.28731,11.252007 13.437392,11.61863 13.4375,12 c 7.2e-5,0.381333 -0.150333,0.745893 -0.419922,1.015625 C 12.747989,13.285321 12.38137,13.437392 12,13.4375 c -0.188816,3.6e-5 -0.374384,-0.03716 -0.548828,-0.109375 -0.174469,-0.07222 -0.333249,-0.177064 -0.466797,-0.310547 -0.133547,-0.133483 -0.2402,-0.292389 -0.3125,-0.466797 C 10.599575,12.376337 10.562547,12.188853 10.5625,12 c -4.3e-5,-0.188816 0.03716,-0.376337 0.109375,-0.550781 0.07222,-0.174465 0.177064,-0.331296 0.310547,-0.464844 0.133486,-0.133547 0.292381,-0.2402 0.466797,-0.3125 C 11.623663,10.599575 11.811183,10.562546 12,10.5625 Z"
     sodipodi:nodetypes="ccccccccccsccccccscccccscccscs" /><path
     opacity="0.35"
     d="m 12.00069,14.084343 c 0.273717,-6.7e-5 0.544723,-0.05404 0.797605,-0.158849 0.25284,-0.104809 0.482579,-0.258397 0.676086,-0.451992 0.193503,-0.193597 0.346982,-0.423408 0.451671,-0.67632 0.104693,-0.252881 0.158535,-0.523941 0.158473,-0.797656 -6.8e-5,-0.273769 -0.05404,-0.544777 -0.158855,-0.797658 -0.104809,-0.252829 -0.258391,-0.482583 -0.451986,-0.676085 -0.193597,-0.193503 -0.423408,-0.34695 -0.676326,-0.451645 -0.252881,-0.104693 -0.523941,-0.158551 -0.797656,-0.158499 -0.55285,1.56e-4 -1.082936,0.219858 -1.473743,0.610821 -0.390808,0.391014 -0.610249,0.921206 -0.610144,1.474002 1.57e-4,0.55285 0.219858,1.082936 0.610873,1.473737 0.390964,0.390798 0.921154,0.610275 1.474002,0.610144 z m 0,-1.041437 c -0.136933,-6.2e-5 -0.272465,-0.02711 -0.39888,-0.07951 -0.126467,-0.05245 -0.24137,-0.129337 -0.338094,-0.226162 -0.09678,-0.09684 -0.173502,-0.211784 -0.225796,-0.338303 -0.05235,-0.126466 -0.07922,-0.262048 -0.07918,-0.398932 5.3e-5,-0.13689 0.02708,-0.272414 0.07954,-0.398881 0.05245,-0.126466 0.129279,-0.241317 0.22611,-0.338095 0.09684,-0.09672 0.211783,-0.173448 0.338302,-0.225796 0.126525,-0.05235 0.262049,-0.07922 0.398933,-0.07918 0.276477,0 0.54165,0.109854 0.737132,0.305334 0.195482,0.195481 0.305311,0.460655 0.305311,0.737079 0,0.276477 -0.109825,0.54165 -0.305311,0.737132 -0.195482,0.195481 -0.460655,0.305312 -0.737132,0.305312 z"
     fill="#ffffff"
     id="path8365"
     style="stroke-width:0.520868" /><path
     id="path29009"
     style="fill:#949496;fill-opacity:1;stroke-width:0.465671"
     d="m 1.201172,15.109375 c 0.06772,0.465407 0.149963,0.929183 0.251953,1.390625 0.770666,3.302662 2.817003,5.321973 6.125,6.05664 1.247424,0.255761 2.502855,0.400493 3.765625,0.433593 V 19.953124 C 7.642928,19.754208 5.358125,18.05129 4.226563,15.109375 Z" /><path
     d="m 8.641293,20.971091 2.370822,-5.371699 c 0.0349,-0.07274 0.04498,-0.156778 0.02285,-0.239589 -0.04964,-0.185282 -0.243765,-0.294879 -0.433471,-0.244012 a 0.3565571,0.3565571 0 0 0 -0.200763,0.13933 l -3.578589,4.691022 a 1.036006,1.036006 0 0 0 -0.201255,0.923952 c 0.14965,0.557811 0.732035,0.885864 1.301151,0.733265 a 1.0718829,1.0718829 0 0 0 0.719257,-0.632269 z"
     fill="#ffffff"
     id="path29011"
     style="stroke-width:0.245732" /><rect
     transform="scale(-1,1)"
     x="-14.784595"
     y="20.074169"
     width="0.24573196"
     height="1.7201238"
     rx="0.12286598"
     fill-rule="evenodd"
     opacity="0.15"
     id="rect29013"
     style="stroke-width:0.245732" /><rect
     transform="scale(-1,1)"
     x="-14.293131"
     y="20.074169"
     width="0.24573196"
     height="1.7201238"
     rx="0.12286598"
     fill-rule="evenodd"
     opacity="0.15"
     id="rect29015"
     style="stroke-width:0.245732" /><rect
     transform="scale(-1,1)"
     x="-13.801664"
     y="20.074169"
     width="0.24573196"
     height="1.7201238"
     rx="0.12286598"
     fill-rule="evenodd"
     opacity="0.15"
     id="rect29017"
     style="stroke-width:0.245732" /><rect
     transform="scale(-1,1)"
     x="-13.3102"
     y="20.074169"
     width="0.24573196"
     height="1.7201238"
     rx="0.12286598"
     fill-rule="evenodd"
     opacity="0.15"
     id="rect29019"
     style="stroke-width:0.245732" /><rect
     transform="scale(-1,1)"
     x="-12.818735"
     y="20.074169"
     width="0.24573196"
     height="1.7201238"
     rx="0.12286598"
     fill-rule="evenodd"
     opacity="0.15"
     id="rect29021"
     style="stroke-width:0.245732" /><path
     d="m 16.504716,20.934231 a 0.368598,0.368598 0 1 0 -0.737196,0 0.368598,0.368598 0 0 0 0.737196,0 z M 8.149829,20.565633 a 0.49146403,0.49146403 0 1 1 -0.982928,0 0.49146403,0.49146403 0 0 1 0.982928,0 z"
     opacity="0.15"
     id="path29023"
     style="stroke-width:0.245732" /><path
     d="m 7.904097,20.565633 a 0.245732,0.245732 0 1 0 -0.491464,0 0.245732,0.245732 0 0 0 0.491464,0 z"
     opacity="0.35"
     id="path29025"
     style="stroke-width:0.245732" /><use
     transform="matrix(1.6,0,0,1.6,-2.022883,31.604119)"
     width="100%"
     height="100%"
     fill="#ffffff"
     fill-rule="evenodd"
     opacity="0.5"
     xlink:href="#a-8"
     id="use26500" /><path
     id="circle1009"
     style="fill:#ff8080;fill-opacity:1;stroke-width:2.00803;paint-order:markers stroke fill"
     d="m 18.466804,11.393198 a 8.4999999,8.4999999 0 0 0 -8.499998,8.5 8.4999999,8.4999999 0 0 0 0.57422,3.064452 c 0.830976,0.05397 1.664299,0.05874 2.501953,0.01361 1.635997,-0.02683 3.224911,-0.302897 4.767577,-0.824229 1.905331,-0.697333 3.285436,-1.966549 4.134761,-3.810545 0.45867,-1.062666 0.756484,-2.167697 0.896492,-3.318362 0.08591,-0.771807 0.136481,-1.542403 0.158214,-2.314451 a 8.4999999,8.4999999 0 0 0 -4.533208,-1.310471 z" /><rect
     x="17.5357"
     y="13.807228"
     width="1.0014055"
     height="6.0084329"
     rx="0.50070274"
     ry="0.50070274"
     fill="#ffffff"
     style="stroke-width:0.500703;stroke-linecap:square;paint-order:stroke fill markers"
     id="rect69074" /><circle
     cx="18.036402"
     cy="21.110655"
     r="0.50070274"
     fill="#ffffff"
     style="stroke-width:0.500703;stroke-linecap:square;paint-order:stroke fill markers"
     id="circle69076" /></svg>
