<?xml version="1.0" encoding="UTF-8" standalone="no"?>
<svg
   width="24"
   height="24"
   version="1.1"
   id="svg6"
   sodipodi:docname="xfce4-systray.svg"
   inkscape:version="1.3 (0e150ed6c4, 2023-07-21)"
   xmlns:inkscape="http://www.inkscape.org/namespaces/inkscape"
   xmlns:sodipodi="http://sodipodi.sourceforge.net/DTD/sodipodi-0.dtd"
   xmlns="http://www.w3.org/2000/svg"
   xmlns:svg="http://www.w3.org/2000/svg">
  <defs
     id="defs6">
    <radialGradient
       id="paint0_radial_1_42"
       cx="0"
       cy="0"
       r="1"
       gradientUnits="userSpaceOnUse"
       gradientTransform="matrix(0,11,-11,0,11.999988,1)">
      <stop
         stop-color="#777777"
         id="stop2" />
      <stop
         offset="1"
         stop-color="#444444"
         id="stop3" />
    </radialGradient>
    <linearGradient
       x1="3.5392921"
       y1="17.4209"
       x2="20.460707"
       y2="17.4209"
       gradientUnits="userSpaceOnUse"
       gradientTransform="translate(7.4e-7,-1.9679708)"
       spreadMethod="pad"
       id="linearGradient6">
      <stop
         style="stop-opacity:1;stop-color:#e0e0e0"
         offset="0"
         id="stop3-5" />
      <stop
         style="stop-opacity:1;stop-color:#858585"
         offset="0.134016"
         id="stop4-6" />
      <stop
         style="stop-opacity:1;stop-color:#858585"
         offset="0.844835"
         id="stop5-2" />
      <stop
         style="stop-opacity:1;stop-color:#dfdfdf"
         offset="1"
         id="stop6-9" />
    </linearGradient>
  </defs>
  <sodipodi:namedview
     id="namedview6"
     pagecolor="#ffffff"
     bordercolor="#000000"
     borderopacity="0.25"
     inkscape:showpageshadow="2"
     inkscape:pageopacity="0.0"
     inkscape:pagecheckerboard="0"
     inkscape:deskcolor="#d1d1d1"
     inkscape:zoom="4.4801844"
     inkscape:cx="39.953713"
     inkscape:cy="20.200062"
     inkscape:window-width="2560"
     inkscape:window-height="998"
     inkscape:window-x="0"
     inkscape:window-y="0"
     inkscape:window-maximized="1"
     inkscape:current-layer="svg6" />
  <path
     fill-rule="evenodd"
     clip-rule="evenodd"
     d="m 9.5960273,1.11359 c 0.11984,0.00127 0.23439,-0.01399 0.34365,-0.0458 1.4358107,-0.094054 2.8714107,-0.090239 4.3070107,0.01145 1.3017,0.10142 2.5618,0.38384 3.7802,0.84726 2.0256,0.83394 3.4117,2.2804 4.1581,4.33936 0.4269,1.23963 0.6789,2.51435 0.7561,3.82414 0.1067,1.6447 0.0685,3.2858 -0.1146,4.9233 -0.137,1.1509 -0.4349,2.2577 -0.8935,3.3203 -0.8506,1.8425 -2.229,3.1134 -4.1352,3.8127 -1.5447,0.5219 -3.1331,0.7967 -4.7653,0.8243 -1.8359,0.0955 -3.6533707,-0.0419 -5.4525307,-0.4121 -3.31158,-0.7377 -5.35438,-2.7567 -6.12839,-6.0568 -0.32847,-1.4856 -0.47738087,-2.9893 -0.44675,-4.5111 -0.0366539,-1.6182 0.13517,-3.21351 0.51548,-4.78589 0.8114,-3.08563 2.77019,-4.9977 5.87638,-5.73619 0.72379,-0.17695 1.45691,-0.29526 2.19935,-0.35493 z"
     fill="url(#paint0_radial_1_42)"
     id="path1"
     style="fill:url(#paint0_radial_1_42)" />
  <path
     id="path6-1"
     d="M 4.1040004,14.042695 H 19.895999 c 0.312,0 0.562667,0.249334 0.562667,0.562667 v 1.692 c 0,0.313333 -0.250667,0.568 -0.562667,0.568 H 4.1040004 c -0.3119999,0 -0.5626666,-0.254667 -0.5626666,-0.568 v -1.692 c 0,-0.313333 0.2506667,-0.562667 0.5626666,-0.562667 z"
     style="fill:url(#linearGradient6);stroke:none;stroke-width:1.33333" />
  <path
     d="M 5.765645,14.61924 A 0.84766511,0.84766511 0 0 0 4.91798,15.466905 0.84766511,0.84766511 0 0 0 5.765645,16.31457 0.84766511,0.84766511 0 0 0 6.613311,15.466905 0.84766511,0.84766511 0 0 0 5.765645,14.61924 Z m 0,0.282554 a 0.56511007,0.56511007 0 0 1 0.56511,0.565111 0.56511007,0.56511007 0 0 1 -0.56511,0.565111 0.56511007,0.56511007 0 0 1 -0.565109,-0.565111 0.56511007,0.56511007 0 0 1 0.565109,-0.565111 z"
     fill="#ffffff"
     style="stroke-width:0.282555;paint-order:fill markers stroke"
     id="path6" />
  <rect
     x="14.242295"
     y="14.901796"
     width="4.5208807"
     height="1.1302202"
     rx="0.28255504"
     ry="0.28255504"
     fill="#ffffff"
     style="stroke-width:0.282555;paint-order:fill markers stroke"
     id="rect7" />
  <rect
     x="8.0260849"
     y="14.901796"
     width="1.1302202"
     height="1.1302202"
     rx="0.28255504"
     ry="0.28255504"
     fill="#ffffff"
     style="stroke-width:0.282555;paint-order:fill markers stroke"
     id="rect8" />
  <rect
     x="9.7214146"
     y="14.901796"
     width="1.1302202"
     height="1.1302202"
     rx="0.28255504"
     ry="0.28255504"
     fill="#ffffff"
     style="stroke-width:0.282555;paint-order:fill markers stroke"
     id="rect9" />
  <rect
     x="11.416747"
     y="14.901796"
     width="1.1302202"
     height="1.1302202"
     rx="0.28255504"
     ry="0.28255504"
     fill="#ffffff"
     style="stroke-width:0.282555;paint-order:fill markers stroke"
     id="rect10" />
</svg>
