<?xml version="1.0" encoding="UTF-8" standalone="no"?>
<svg
   width="24"
   height="24"
   version="1.1"
   id="svg4"
   sodipodi:docname="xfce4-taskbar.svg"
   inkscape:version="1.3 (0e150ed6c4, 2023-07-21)"
   inkscape:export-filename="../../../../../../../../../Imagens/Big Icons/xfce4-taskbar.pdf"
   inkscape:export-xdpi="96"
   inkscape:export-ydpi="96"
   xml:space="preserve"
   xmlns:inkscape="http://www.inkscape.org/namespaces/inkscape"
   xmlns:sodipodi="http://sodipodi.sourceforge.net/DTD/sodipodi-0.dtd"
   xmlns="http://www.w3.org/2000/svg"
   xmlns:svg="http://www.w3.org/2000/svg"><defs
     id="defs4"><radialGradient
       id="paint0_radial_1_42"
       cx="0"
       cy="0"
       r="1"
       gradientUnits="userSpaceOnUse"
       gradientTransform="matrix(0,11,-11,0,11.999988,1)"><stop
         stop-color="#777777"
         id="stop2" /><stop
         offset="1"
         stop-color="#444444"
         id="stop3" /></radialGradient><linearGradient
       id="paint1_linear_1_42"
       x1="12"
       y1="3.7118101"
       x2="12"
       y2="20.2882"
       gradientUnits="userSpaceOnUse"
       gradientTransform="translate(-40)"><stop
         stop-color="#FAFAFA"
         id="stop4" /><stop
         offset="1"
         stop-color="#C0C0C0"
         id="stop5" /></linearGradient><linearGradient
       id="paint2_linear_1_42"
       x1="12"
       y1="3.7118101"
       x2="12"
       y2="20.2882"
       gradientUnits="userSpaceOnUse"
       gradientTransform="translate(-40)"><stop
         stop-color="#E1E1E1"
         id="stop6" /><stop
         offset="1"
         stop-color="#828282"
         id="stop7" /></linearGradient><radialGradient
       fx="0"
       fy="0"
       cx="0"
       cy="0"
       r="1"
       gradientUnits="userSpaceOnUse"
       gradientTransform="matrix(0,8.25,-8.25,0,8.999991,0.75)"
       spreadMethod="pad"
       id="radialGradient2"><stop
         style="stop-opacity:1;stop-color:#777777"
         offset="0"
         id="stop1" /><stop
         style="stop-opacity:1;stop-color:#444444"
         offset="1"
         id="stop2-3" /></radialGradient><linearGradient
       x1="3.5392921"
       y1="17.4209"
       x2="20.460707"
       y2="17.4209"
       gradientUnits="userSpaceOnUse"
       gradientTransform="translate(-0.17556451,-2.5598327)"
       spreadMethod="pad"
       id="linearGradient6"><stop
         style="stop-opacity:1;stop-color:#e0e0e0"
         offset="0"
         id="stop3-5" /><stop
         style="stop-opacity:1;stop-color:#858585"
         offset="0.134016"
         id="stop4-6" /><stop
         style="stop-opacity:1;stop-color:#858585"
         offset="0.844835"
         id="stop5-2" /><stop
         style="stop-opacity:1;stop-color:#dfdfdf"
         offset="1"
         id="stop6-9" /></linearGradient></defs><sodipodi:namedview
     id="namedview4"
     pagecolor="#ffffff"
     bordercolor="#000000"
     borderopacity="0.25"
     inkscape:showpageshadow="2"
     inkscape:pageopacity="0.0"
     inkscape:pagecheckerboard="0"
     inkscape:deskcolor="#d1d1d1"
     inkscape:zoom="8.9603685"
     inkscape:cx="-30.802305"
     inkscape:cy="21.371889"
     inkscape:window-width="2560"
     inkscape:window-height="998"
     inkscape:window-x="0"
     inkscape:window-y="0"
     inkscape:window-maximized="1"
     inkscape:current-layer="svg4"><inkscape:page
       x="0"
       y="0"
       width="24"
       height="24"
       id="page1"
       margin="0"
       bleed="0" /></sodipodi:namedview><path
     fill-rule="evenodd"
     clip-rule="evenodd"
     d="m 9.5960273,1.11359 c 0.11984,0.00127 0.23439,-0.01399 0.34365,-0.0458 1.4358107,-0.094054 2.8714107,-0.090239 4.3070107,0.01145 1.3017,0.10142 2.5618,0.38384 3.7802,0.84726 2.0256,0.83394 3.4117,2.2804 4.1581,4.33936 0.4269,1.23963 0.6789,2.51435 0.7561,3.82414 0.1067,1.6447 0.0685,3.2858 -0.1146,4.9233 -0.137,1.1509 -0.4349,2.2577 -0.8935,3.3203 -0.8506,1.8425 -2.229,3.1134 -4.1352,3.8127 -1.5447,0.5219 -3.1331,0.7967 -4.7653,0.8243 -1.8359,0.0955 -3.6533707,-0.0419 -5.4525307,-0.4121 -3.31158,-0.7377 -5.35438,-2.7567 -6.12839,-6.0568 -0.32847,-1.4856 -0.47738087,-2.9893 -0.44675,-4.5111 -0.0366539,-1.6182 0.13517,-3.21351 0.51548,-4.78589 0.8114,-3.08563 2.77019,-4.9977 5.87638,-5.73619 0.72379,-0.17695 1.45691,-0.29526 2.19935,-0.35493 z"
     fill="url(#paint0_radial_1_42)"
     id="path1"
     style="fill:url(#paint0_radial_1_42)" /><g
     id="g1"
     inkscape:groupmode="layer"
     inkscape:label="1"
     transform="translate(34)" /><g
     id="g2"
     transform="translate(0.17556525,0.59186192)"><path
       id="path6-1"
       d="M 3.9284352,13.450833 H 19.720434 c 0.312,0 0.562667,0.249334 0.562667,0.562667 v 1.692 c 0,0.313333 -0.250667,0.568 -0.562667,0.568 H 3.9284352 c -0.312,0 -0.5626667,-0.254667 -0.5626667,-0.568 v -1.692 c 0,-0.313333 0.2506667,-0.562667 0.5626667,-0.562667 z"
       style="fill:url(#linearGradient6);stroke:none;stroke-width:1.33333" /><path
       id="path7"
       d="m 5.6217685,14.0135 c -0.4693333,0 -0.8493333,0.38 -0.8493333,0.848 0,0.469333 0.38,0.844 0.8493333,0.844 0.4626666,0 0.8426666,-0.374667 0.8426666,-0.844 0,-0.468 -0.38,-0.848 -0.8426666,-0.848 z m 0,0.286667 c 0.312,0 0.5626666,0.249333 0.5626666,0.561333 0,0.313333 -0.2506666,0.562667 -0.5626666,0.562667 -0.3133333,0 -0.568,-0.249334 -0.568,-0.562667 0,-0.312 0.2546667,-0.561333 0.568,-0.561333 z"
       style="fill:#ffffff;fill-opacity:1;fill-rule:nonzero;stroke:none;stroke-width:1.33333" /><path
       id="path8"
       d="m 14.360435,14.300167 h 3.947999 c 0.156,0 0.286667,0.124 0.286667,0.28 v 0.562666 c 0,0.157334 -0.130667,0.281334 -0.286667,0.281334 h -3.947999 c -0.156,0 -0.281333,-0.124 -0.281333,-0.281334 v -0.562666 c 0,-0.156 0.125333,-0.28 0.281333,-0.28 z"
       style="fill:#ffffff;fill-opacity:1;fill-rule:nonzero;stroke:none;stroke-width:1.33333" /><path
       id="path9"
       d="m 8.4391018,14.300167 h 3.9480002 c 0.156,0 0.281333,0.124 0.281333,0.28 v 0.562666 c 0,0.157334 -0.125333,0.281334 -0.281333,0.281334 H 8.4391018 c -0.156,0 -0.2813334,-0.124 -0.2813334,-0.281334 v -0.562666 c 0,-0.156 0.1253334,-0.28 0.2813334,-0.28 z"
       style="fill:#ffffff;fill-opacity:1;fill-rule:nonzero;stroke:none;stroke-width:1.33333" /></g></svg>
