<?xml version="1.0" encoding="UTF-8" standalone="no"?>
<svg
   width="24"
   height="24"
   version="1"
   id="svg6"
   sodipodi:docname="xfce4-eyes.svg"
   inkscape:version="1.3 (0e150ed6c4, 2023-07-21)"
   xmlns:inkscape="http://www.inkscape.org/namespaces/inkscape"
   xmlns:sodipodi="http://sodipodi.sourceforge.net/DTD/sodipodi-0.dtd"
   xmlns="http://www.w3.org/2000/svg"
   xmlns:svg="http://www.w3.org/2000/svg">
  <defs
     id="defs6">
    <radialGradient
       id="paint0_radial_1_42"
       cx="0"
       cy="0"
       r="1"
       gradientUnits="userSpaceOnUse"
       gradientTransform="matrix(0,11,-11,0,11.999988,1)">
      <stop
         stop-color="#777777"
         id="stop2" />
      <stop
         offset="1"
         stop-color="#444444"
         id="stop3" />
    </radialGradient>
  </defs>
  <sodipodi:namedview
     id="namedview6"
     pagecolor="#ffffff"
     bordercolor="#000000"
     borderopacity="0.25"
     inkscape:showpageshadow="2"
     inkscape:pageopacity="0.0"
     inkscape:pagecheckerboard="0"
     inkscape:deskcolor="#d1d1d1"
     inkscape:zoom="6.3359375"
     inkscape:cx="15.782984"
     inkscape:cy="20.123305"
     inkscape:window-width="2560"
     inkscape:window-height="998"
     inkscape:window-x="0"
     inkscape:window-y="0"
     inkscape:window-maximized="1"
     inkscape:current-layer="svg6" />
  <path
     fill-rule="evenodd"
     clip-rule="evenodd"
     d="m 9.5960273,1.11359 c 0.11984,0.00127 0.23439,-0.01399 0.34365,-0.0458 1.4358107,-0.094054 2.8714107,-0.090239 4.3070107,0.01145 1.3017,0.10142 2.5618,0.38384 3.7802,0.84726 2.0256,0.83394 3.4117,2.2804 4.1581,4.33936 0.4269,1.23963 0.6789,2.51435 0.7561,3.82414 0.1067,1.6447 0.0685,3.2858 -0.1146,4.9233 -0.137,1.1509 -0.4349,2.2577 -0.8935,3.3203 -0.8506,1.8425 -2.229,3.1134 -4.1352,3.8127 -1.5447,0.5219 -3.1331,0.7967 -4.7653,0.8243 -1.8359,0.0955 -3.6533707,-0.0419 -5.4525307,-0.4121 -3.31158,-0.7377 -5.35438,-2.7567 -6.12839,-6.0568 -0.32847,-1.4856 -0.47738087,-2.9893 -0.44675,-4.5111 -0.0366539,-1.6182 0.13517,-3.21351 0.51548,-4.78589 0.8114,-3.08563 2.77019,-4.9977 5.87638,-5.73619 0.72379,-0.17695 1.45691,-0.29526 2.19935,-0.35493 z"
     fill="url(#paint0_radial_1_42)"
     id="path1-6"
     style="fill:url(#paint0_radial_1_42)" />
  <g
     id="g12"
     transform="matrix(0.30534352,0,0,0.30534352,20.711126,-9.9165817)">
    <circle
       cx="-38.503437"
       cy="67.397804"
       r="11.313"
       fill="#ececec"
       id="circle7" />
    <circle
       cx="-38.503437"
       cy="65.207802"
       r="4.0139999"
       fill="#479ae5"
       id="circle8" />
    <circle
       cx="-38.503437"
       cy="65.207802"
       r="1.095"
       opacity="0.75"
       id="circle9" />
    <circle
       cx="-21.473438"
       cy="73.236801"
       r="14.232"
       fill="#ffffff"
       id="circle10" />
    <circle
       cx="-19.527439"
       cy="71.046799"
       r="6.204"
       fill="#479ae5"
       id="circle11" />
    <circle
       cx="-19.527439"
       cy="71.046799"
       r="1.825"
       opacity="0.75"
       id="circle12" />
  </g>
</svg>
