<?xml version="1.0" encoding="UTF-8" standalone="no"?>
<svg
   width="24"
   height="24"
   viewBox="0 0 24 24"
   fill="none"
   version="1.1"
   id="svg187"
   sodipodi:docname="yakuake.svg"
   inkscape:export-filename="yakuake.pdf"
   inkscape:export-xdpi="512"
   inkscape:export-ydpi="512"
   inkscape:version="1.2.2 (b0a8486541, 2022-12-01)"
   xml:space="preserve"
   xmlns:inkscape="http://www.inkscape.org/namespaces/inkscape"
   xmlns:sodipodi="http://sodipodi.sourceforge.net/DTD/sodipodi-0.dtd"
   xmlns="http://www.w3.org/2000/svg"
   xmlns:svg="http://www.w3.org/2000/svg"><sodipodi:namedview
     id="namedview189"
     pagecolor="#ffffff"
     bordercolor="#000000"
     borderopacity="0.25"
     inkscape:showpageshadow="2"
     inkscape:pageopacity="0.0"
     inkscape:pagecheckerboard="0"
     inkscape:deskcolor="#d1d1d1"
     showgrid="false"
     inkscape:zoom="8.8333333"
     inkscape:cx="-45.962265"
     inkscape:cy="17.377359"
     inkscape:window-width="2560"
     inkscape:window-height="1000"
     inkscape:window-x="1680"
     inkscape:window-y="0"
     inkscape:window-maximized="1"
     inkscape:current-layer="svg187" /><path
     fill-rule="evenodd"
     clip-rule="evenodd"
     d="m 9.5960272,1.1136044 c 0.11984,0.0013 0.23439,-0.01399 0.34365,-0.0458 1.4358098,-0.09405 2.8714098,-0.09024 4.3070098,0.01145 1.3017,0.10142 2.5618,0.38384 3.7802,0.84726 2.0256,0.83394 3.4117,2.2804 4.1581,4.3393603 0.4269,1.23963 0.6789,2.51435 0.7561,3.8241393 0.1067,1.6447 0.0685,3.2858 -0.1146,4.9233 -0.137,1.1509 -0.4349,2.2577 -0.8935,3.3203 -0.8506,1.8425 -2.229,3.1134 -4.1352,3.8127 -1.5447,0.5219 -3.1331,0.7967 -4.7653,0.8243 -1.8359,0.0955 -3.6533698,-0.0419 -5.4525298,-0.4121 -3.31158,-0.7377 -5.35438,-2.7567 -6.12839,-6.0568 -0.32847,-1.4856 -0.47738099,-2.9893 -0.44675,-4.5111 -0.03665,-1.6182 0.13517,-3.2135093 0.51548,-4.7858893 0.8114,-3.0856303 2.77019,-4.9977003 5.87638,-5.7361903 0.72379,-0.17695 1.45691,-0.29526 2.19935,-0.35493 z"
     fill="url(#paint0_linear_3_191)"
     id="path2"
     style="fill:url(#paint0_linear_3_191)" /><g
     id="g6965"><path
       d="M 18.6689,17.1432 H 9.38486 c -0.36694,0 -0.6644,0.2851 -0.6644,0.6367 0,0.3517 0.29746,0.6368 0.6644,0.6368 h 9.28404 c 0.367,0 0.6644,-0.2851 0.6644,-0.6368 0,-0.3516 -0.2974,-0.6367 -0.6644,-0.6367 z"
       fill="#fafafa"
       id="path176" /><path
       d="M 5.41348,5.58841 C 5.28405,5.57261 5.15265,5.59388 5.03577,5.64956 4.9189,5.70524 4.82177,5.79284 4.75659,5.90135 4.71264,5.97382 4.68405,6.05393 4.67248,6.13705 4.66092,6.22018 4.6666,6.30468 4.68921,6.38569 4.71182,6.4667 4.7509,6.5426 4.8042,6.60904 4.85751,6.67548 4.92398,6.73113 4.99979,6.77278 L 12.1252,10.7207 4.99979,14.671 c -0.07581,0.0416 -0.14228,0.0973 -0.19559,0.1637 -0.0533,0.0665 -0.09238,0.1424 -0.11499,0.2234 -0.02261,0.081 -0.02829,0.1655 -0.01673,0.2486 0.01157,0.0831 0.04016,0.1632 0.08411,0.2357 0.18554,0.3057 0.58919,0.4092 0.9076,0.2335 l 8.04051,-4.4582 c 0.0976,-0.0558 0.1784,-0.1352 0.2342,-0.2302 0.0559,-0.095 0.0849,-0.2024 0.0842,-0.3115 0.005,-0.0192 0.0025,-0.0361 0.005,-0.0529 0,-0.0193 0,-0.0361 -0.005,-0.0554 3e-4,-0.1087 -0.029,-0.2156 -0.0848,-0.3101 -0.0558,-0.0945 -0.1363,-0.1735 -0.2336,-0.2291 L 5.66419,5.66785 C 5.58697,5.62559 5.50173,5.59859 5.41348,5.58841 Z"
       fill="#fafafa"
       id="path178" /></g><defs
     id="defs185"><radialGradient
       id="paint0_radial_3_321"
       cx="0"
       cy="0"
       r="1"
       gradientUnits="userSpaceOnUse"
       gradientTransform="matrix(0,22,-22,0,12,1)"><stop
         stop-color="#555555"
         id="stop180"
         offset="0"
         style="stop-color:#3291ff;stop-opacity:0.90196073;" /><stop
         offset="1"
         stop-color="#222222"
         id="stop182"
         style="stop-color:#184a86;stop-opacity:0.90196073;" /></radialGradient><clipPath
       clipPathUnits="userSpaceOnUse"
       id="clipPath6881"><path
         d="m 7.195,0.836 c 0.09,0 0.176,-0.012 0.258,-0.035 1.078,-0.071 2.156,-0.067 3.231,0.008 0.976,0.078 1.921,0.289 2.836,0.636 1.519,0.625 2.558,1.711 3.121,3.254 0.316,0.93 0.507,1.887 0.566,2.867 0.078,1.235 0.051,2.465 -0.086,3.696 -0.105,0.863 -0.328,1.691 -0.672,2.488 -0.637,1.383 -1.672,2.336 -3.101,2.859 C 12.191,17 11,17.207 9.773,17.227 8.398,17.301 7.035,17.195 5.684,16.918 3.203,16.367 1.668,14.852 1.09,12.375 0.844,11.262 0.73,10.133 0.754,8.992 0.727,7.781 0.855,6.582 1.141,5.402 1.75,3.09 3.219,1.656 5.547,1.102 6.09,0.969 6.641,0.879 7.195,0.836 Z"
         clip-rule="evenodd"
         id="path6879" /></clipPath><clipPath
       clipPathUnits="userSpaceOnUse"
       id="clipPath6889"><path
         d="M -0.0454545,-0.545455 H 1.045455 v 1.09091 h -1.0909095 z"
         id="path6887" /></clipPath><radialGradient
       fx="0"
       fy="0"
       cx="0"
       cy="0"
       r="1"
       gradientUnits="userSpaceOnUse"
       spreadMethod="pad"
       id="radialGradient6895"><stop
         style="stop-opacity:0.90196078;stop-color:#ffffff"
         offset="0"
         id="stop6891" /><stop
         style="stop-opacity:0.90196078;stop-color:#ffffff"
         offset="1"
         id="stop6893" /></radialGradient><mask
       maskUnits="userSpaceOnUse"
       x="0"
       y="0"
       width="1"
       height="1"
       id="mask6897"><g
         id="g6903"><g
           clip-path="url(#clipPath6889)"
           id="g6901"><path
             d="M -0.0454545,-0.545455 H 1.045455 v 1.09091 h -1.0909095 z"
             style="fill:url(#radialGradient6895);stroke:none"
             id="path6899" /></g></g></mask><radialGradient
       fx="0"
       fy="0"
       cx="0"
       cy="0"
       r="1"
       gradientUnits="userSpaceOnUse"
       spreadMethod="pad"
       id="radialGradient6911"><stop
         style="stop-opacity:1;stop-color:#3291ff"
         offset="0"
         id="stop6907" /><stop
         style="stop-opacity:1;stop-color:#184a86"
         offset="1"
         id="stop6909" /></radialGradient><linearGradient
       id="paint0_linear_3_191"
       x1="12"
       y1="1"
       x2="12"
       y2="12"
       gradientUnits="userSpaceOnUse"
       gradientTransform="translate(-1.2792365e-5,1.4387718e-5)"><stop
         stop-color="#7DB9FF"
         id="stop6" /><stop
         offset="1"
         stop-color="#197CF1"
         id="stop8"
         style="stop-color:#2569bb;stop-opacity:0.90196079;" /></linearGradient></defs></svg>
