<?xml version="1.0" encoding="UTF-8" standalone="no"?>
<svg
   width="24"
   height="24"
   version="1.1"
   id="svg10888"
   sodipodi:docname="yast-sw_source.svg"
   xml:space="preserve"
   inkscape:version="1.2.2 (b0a8486541, 2022-12-01)"
   xmlns:inkscape="http://www.inkscape.org/namespaces/inkscape"
   xmlns:sodipodi="http://sodipodi.sourceforge.net/DTD/sodipodi-0.dtd"
   xmlns:xlink="http://www.w3.org/1999/xlink"
   xmlns="http://www.w3.org/2000/svg"
   xmlns:svg="http://www.w3.org/2000/svg"><defs
     id="defs10892"><filter
       id="c"
       x="-0.080881894"
       y="-0.16176379"
       width="1.1617638"
       height="1.3235276"
       color-interpolation-filters="sRGB"><feGaussianBlur
         stdDeviation=".214"
         id="feGaussianBlur1485" /></filter><filter
       id="b"
       x="-0.11297998"
       y="-0.10355905"
       width="1.22596"
       height="1.2071182"
       color-interpolation-filters="sRGB"><feGaussianBlur
         stdDeviation=".548"
         id="feGaussianBlur1488" /></filter><clipPath
       id="a"><rect
         x="1.587"
         y="2.6459999"
         width="13.758"
         height="12.7"
         rx="0.79400003"
         ry="0.79400003"
         fill="#ececec"
         opacity="0.8"
         stroke-linecap="round"
         stroke-linejoin="round"
         stroke-width="0.37"
         style="paint-order:stroke fill markers"
         id="rect1491" /></clipPath><linearGradient
       id="paint0_linear_14_2"
       x1="12"
       y1="0"
       x2="12"
       y2="12"
       gradientUnits="userSpaceOnUse"
       gradientTransform="matrix(0.24252996,0,0,0.24252996,0.26457741,0.26457817)"><stop
         stop-color="#C7CEFF"
         id="stop1647"
         offset="0"
         style="stop-color:#b8d5ff;stop-opacity:1;" /><stop
         offset="1"
         stop-color="#6C7AD8"
         id="stop1649"
         style="stop-color:#6694ff;stop-opacity:1;" /></linearGradient><linearGradient
       x1="12"
       y1="0"
       x2="12"
       y2="12"
       gradientUnits="userSpaceOnUse"
       gradientTransform="matrix(0.6875,0,0,0.6875,0.749998,0.75)"
       spreadMethod="pad"
       id="linearGradient4207"><stop
         style="stop-opacity:1;stop-color:#b8d5ff"
         offset="0"
         id="stop4203" /><stop
         style="stop-opacity:1;stop-color:#6694ff"
         offset="1"
         id="stop4205" /></linearGradient><radialGradient
       id="paint0_radial_1_27"
       cx="0"
       cy="0"
       r="1"
       gradientUnits="userSpaceOnUse"
       gradientTransform="matrix(0,22.000003,-22.000003,0,2.8832922,-3.5034343)"><stop
         stop-color="#9BDF6C"
         id="stop5989"
         offset="0"
         style="stop-color:#a4a4a4;stop-opacity:1;" /><stop
         offset="1"
         stop-color="#204705"
         id="stop5991"
         style="stop-color:#626262;stop-opacity:1;" /></radialGradient><radialGradient
       id="paint0_radial_1_284"
       cx="0"
       cy="0"
       r="1"
       gradientUnits="userSpaceOnUse"
       gradientTransform="matrix(-10.999959,21.999967,-21.999967,-10.999959,-24.402365,-4.1651738)"><stop
         stop-color="#9A9A9A"
         id="stop8367" /><stop
         offset="1"
         stop-color="#5D5D5D"
         id="stop8369" /></radialGradient><radialGradient
       fx="0"
       fy="0"
       cx="0"
       cy="0"
       r="1"
       gradientUnits="userSpaceOnUse"
       gradientTransform="matrix(0,16.500002,-16.500002,0,8.999998,0.749999)"
       spreadMethod="pad"
       id="radialGradient12763"><stop
         style="stop-opacity:1;stop-color:#a4a4a4"
         offset="0"
         id="stop12759" /><stop
         style="stop-opacity:1;stop-color:#626262"
         offset="1"
         id="stop12761" /></radialGradient><clipPath
       clipPathUnits="userSpaceOnUse"
       id="clipPath12773"><path
         d="M 0,0 H 19 V 19 H 0 Z"
         id="path12771" /></clipPath><clipPath
       clipPathUnits="userSpaceOnUse"
       id="clipPath12789"><path
         d="M 0,0 H 19 V 19 H 0 Z"
         id="path12787" /></clipPath><radialGradient
       fx="0"
       fy="0"
       cx="0"
       cy="0"
       r="1"
       gradientUnits="userSpaceOnUse"
       gradientTransform="matrix(0,16.500002,-16.500002,0,8.999998,0.749999)"
       spreadMethod="pad"
       id="radialGradient12763-3"><stop
         style="stop-opacity:1;stop-color:#a4a4a4"
         offset="0"
         id="stop12759-6" /><stop
         style="stop-opacity:1;stop-color:#626262"
         offset="1"
         id="stop12761-7" /></radialGradient><radialGradient
       fx="0"
       fy="0"
       cx="0"
       cy="0"
       r="1"
       gradientUnits="userSpaceOnUse"
       gradientTransform="matrix(0,16.500002,-16.500002,0,8.999659,0.749973)"
       spreadMethod="pad"
       id="radialGradient48543"><stop
         style="stop-opacity:1;stop-color:#a4a4a4"
         offset="0"
         id="stop48539" /><stop
         style="stop-opacity:1;stop-color:#626262"
         offset="1"
         id="stop48541" /></radialGradient><radialGradient
       id="paint0_radial_1_27-2"
       cx="0"
       cy="0"
       r="1"
       gradientUnits="userSpaceOnUse"
       gradientTransform="matrix(0,22.000003,-22.000003,0,11.999997,0.99999709)"><stop
         stop-color="#9BDF6C"
         id="stop5989-6"
         offset="0"
         style="stop-color:#dedede;stop-opacity:1;" /><stop
         offset="1"
         stop-color="#204705"
         id="stop5991-1"
         style="stop-color:#656565;stop-opacity:1;" /></radialGradient><radialGradient
       fx="0"
       fy="0"
       cx="0"
       cy="0"
       r="1"
       gradientUnits="userSpaceOnUse"
       gradientTransform="matrix(0,16.500002,-16.500002,0,8.999998,0.749998)"
       spreadMethod="pad"
       id="radialGradient73082"><stop
         style="stop-opacity:1;stop-color:#dedede"
         offset="0"
         id="stop73078" /><stop
         style="stop-opacity:1;stop-color:#656565"
         offset="1"
         id="stop73080" /></radialGradient><clipPath
       clipPathUnits="userSpaceOnUse"
       id="clipPath73092"><path
         d="M 0,0 H 19 V 19 H 0 Z"
         id="path73090" /></clipPath><clipPath
       clipPathUnits="userSpaceOnUse"
       id="clipPath73164"><path
         d="m 5.273,12.059 h 0.219 c 0.098,0 0.176,0.082 0.176,0.179 v 0.727 c 0,0.097 -0.078,0.176 -0.176,0.176 H 5.273 c -0.097,0 -0.179,-0.079 -0.179,-0.176 v -0.727 c 0,-0.097 0.082,-0.179 0.179,-0.179 z"
         id="path73162" /></clipPath><clipPath
       clipPathUnits="userSpaceOnUse"
       id="clipPath73172"><path
         d="m -97.539457,25.423071 h 11.345439 V 48.11395 h -11.345439 z"
         id="path73170" /></clipPath><linearGradient
       x1="-91.305519"
       y1="36.521664"
       x2="-91.305519"
       y2="26.407284"
       gradientUnits="userSpaceOnUse"
       spreadMethod="pad"
       id="linearGradient73178"><stop
         style="stop-opacity:1;stop-color:#ffffff"
         offset="0"
         id="stop73174" /><stop
         style="stop-opacity:0;stop-color:#ffffff"
         offset="1"
         id="stop73176" /></linearGradient><mask
       maskUnits="userSpaceOnUse"
       x="0"
       y="0"
       width="1"
       height="1"
       id="mask73180"><g
         id="g73186"><g
           clip-path="url(#clipPath73172)"
           id="g73184"><path
             d="m -97.539457,25.423071 h 11.345439 V 48.11395 h -11.345439 z"
             style="fill:url(#linearGradient73178);stroke:none"
             id="path73182" /></g></g></mask><linearGradient
       x1="-91.305519"
       y1="36.521664"
       x2="-91.305519"
       y2="26.407284"
       gradientUnits="userSpaceOnUse"
       spreadMethod="pad"
       id="linearGradient73194"><stop
         style="stop-opacity:1;stop-color:#fff355"
         offset="0"
         id="stop73190" /><stop
         style="stop-opacity:1;stop-color:#a49a00"
         offset="1"
         id="stop73192" /></linearGradient><clipPath
       clipPathUnits="userSpaceOnUse"
       id="clipPath73204"><path
         d="m 6.09,12.059 h 0.219 c 0.097,0 0.175,0.082 0.175,0.179 v 0.727 c 0,0.097 -0.078,0.176 -0.175,0.176 H 6.09 c -0.102,0 -0.18,-0.079 -0.18,-0.176 v -0.727 c 0,-0.097 0.078,-0.179 0.18,-0.179 z"
         id="path73202" /></clipPath><clipPath
       clipPathUnits="userSpaceOnUse"
       id="clipPath73212"><path
         d="m -106.7967,25.423071 h 22.690882 V 48.11395 H -106.7967 Z"
         id="path73210" /></clipPath><mask
       maskUnits="userSpaceOnUse"
       x="0"
       y="0"
       width="1"
       height="1"
       id="mask73220"><g
         id="g73226"><g
           clip-path="url(#clipPath73212)"
           id="g73224"><path
             d="m -106.7967,25.423071 h 22.690882 V 48.11395 H -106.7967 Z"
             style="fill:url(#linearGradient73178);stroke:none"
             id="path73222" /></g></g></mask><clipPath
       clipPathUnits="userSpaceOnUse"
       id="clipPath73244"><path
         d="m 6.906,12.059 h 0.219 c 0.098,0 0.176,0.082 0.176,0.179 v 0.727 c 0,0.097 -0.078,0.176 -0.176,0.176 H 6.906 c -0.101,0 -0.179,-0.079 -0.179,-0.176 v -0.727 c 0,-0.097 0.078,-0.179 0.179,-0.179 z"
         id="path73242" /></clipPath><clipPath
       clipPathUnits="userSpaceOnUse"
       id="clipPath73252"><path
         d="m -104.7085,25.423071 h 22.690881 V 48.11395 H -104.7085 Z"
         id="path73250" /></clipPath><mask
       maskUnits="userSpaceOnUse"
       x="0"
       y="0"
       width="1"
       height="1"
       id="mask73260"><g
         id="g73266"><g
           clip-path="url(#clipPath73252)"
           id="g73264"><path
             d="m -104.7085,25.423071 h 22.690881 V 48.11395 H -104.7085 Z"
             style="fill:url(#linearGradient73178);stroke:none"
             id="path73262" /></g></g></mask><clipPath
       clipPathUnits="userSpaceOnUse"
       id="clipPath73284"><path
         d="m 7.719,12.059 h 0.222 c 0.098,0 0.176,0.082 0.176,0.179 v 0.727 c 0,0.097 -0.078,0.176 -0.176,0.176 H 7.719 c -0.098,0 -0.176,-0.079 -0.176,-0.176 v -0.727 c 0,-0.097 0.078,-0.179 0.176,-0.179 z"
         id="path73282" /></clipPath><clipPath
       clipPathUnits="userSpaceOnUse"
       id="clipPath73292"><path
         d="m -102.6203,25.423071 h 22.690874 V 48.11395 H -102.6203 Z"
         id="path73290" /></clipPath><mask
       maskUnits="userSpaceOnUse"
       x="0"
       y="0"
       width="1"
       height="1"
       id="mask73300"><g
         id="g73306"><g
           clip-path="url(#clipPath73292)"
           id="g73304"><path
             d="m -102.6203,25.423071 h 22.690874 V 48.11395 H -102.6203 Z"
             style="fill:url(#linearGradient73178);stroke:none"
             id="path73302" /></g></g></mask><clipPath
       clipPathUnits="userSpaceOnUse"
       id="clipPath73324"><path
         d="m 8.492,12.059 c 0.07,0 0.129,0.058 0.129,0.132 v 0.817 c 0,0.074 -0.059,0.133 -0.129,0.133 -0.074,0 -0.133,-0.059 -0.133,-0.133 v -0.817 c 0,-0.074 0.059,-0.132 0.133,-0.132 z"
         id="path73322" /></clipPath><clipPath
       clipPathUnits="userSpaceOnUse"
       id="clipPath73332"><path
         d="m -105.31784,25.423071 h 24.693021 V 48.11395 h -24.693021 z"
         id="path73330" /></clipPath><mask
       maskUnits="userSpaceOnUse"
       x="0"
       y="0"
       width="1"
       height="1"
       id="mask73340"><g
         id="g73346"><g
           clip-path="url(#clipPath73332)"
           id="g73344"><path
             d="m -105.31784,25.423071 h 24.693021 V 48.11395 h -24.693021 z"
             style="fill:url(#linearGradient73178);stroke:none"
             id="path73342" /></g></g></mask><linearGradient
       inkscape:collect="always"
       xlink:href="#linearGradient73194"
       id="linearGradient73506"
       gradientUnits="userSpaceOnUse"
       x1="-91.305519"
       y1="36.521664"
       x2="-91.305519"
       y2="26.407284"
       spreadMethod="pad" /><radialGradient
       id="paint0_radial_1_27-20"
       cx="0"
       cy="0"
       r="1"
       gradientUnits="userSpaceOnUse"
       gradientTransform="matrix(0,5.8207194,-5.8207194,0,15.701019,2.4268576)"><stop
         stop-color="#9BDF6C"
         id="stop5989-2"
         offset="0"
         style="stop-color:#67f1fc;stop-opacity:1;" /><stop
         offset="1"
         stop-color="#204705"
         id="stop5991-3"
         style="stop-color:#3d6b9c;stop-opacity:1;" /></radialGradient><radialGradient
       id="paint0_radial_1_27-3"
       cx="0"
       cy="0"
       r="1"
       gradientUnits="userSpaceOnUse"
       gradientTransform="matrix(0,22.000003,-22.000003,0,12.000002,0.99999882)"><stop
         stop-color="#9BDF6C"
         id="stop5989-67"
         offset="0"
         style="stop-color:#bddc95;stop-opacity:1;" /><stop
         offset="1"
         stop-color="#204705"
         id="stop5991-5"
         style="stop-color:#73b72f;stop-opacity:1;" /></radialGradient><radialGradient
       fx="0"
       fy="0"
       cx="0"
       cy="0"
       r="1"
       gradientUnits="userSpaceOnUse"
       gradientTransform="matrix(0,16.500002,-16.500002,0,9.000002,0.749999)"
       spreadMethod="pad"
       id="radialGradient8001"><stop
         style="stop-opacity:1;stop-color:#bddc95"
         offset="0"
         id="stop7997" /><stop
         style="stop-opacity:1;stop-color:#73b72f"
         offset="1"
         id="stop7999" /></radialGradient><radialGradient
       fx="0"
       fy="0"
       cx="0"
       cy="0"
       r="1"
       gradientUnits="userSpaceOnUse"
       gradientTransform="matrix(0,16.500002,-16.500002,0,9.000002,0.749999)"
       spreadMethod="pad"
       id="radialGradient8001-3"><stop
         style="stop-opacity:1;stop-color:#bddc95"
         offset="0"
         id="stop7997-5" /><stop
         style="stop-opacity:1;stop-color:#73b72f"
         offset="1"
         id="stop7999-6" /></radialGradient><linearGradient
       inkscape:collect="always"
       xlink:href="#linearGradient73194"
       id="linearGradient11296"
       gradientUnits="userSpaceOnUse"
       x1="-91.305519"
       y1="36.521664"
       x2="-91.305519"
       y2="26.407284"
       spreadMethod="pad" /><linearGradient
       inkscape:collect="always"
       xlink:href="#linearGradient73194"
       id="linearGradient11298"
       gradientUnits="userSpaceOnUse"
       x1="-91.305519"
       y1="36.521664"
       x2="-91.305519"
       y2="26.407284"
       spreadMethod="pad" /><linearGradient
       inkscape:collect="always"
       xlink:href="#linearGradient73194"
       id="linearGradient11300"
       gradientUnits="userSpaceOnUse"
       x1="-91.305519"
       y1="36.521664"
       x2="-91.305519"
       y2="26.407284"
       spreadMethod="pad" /><linearGradient
       inkscape:collect="always"
       xlink:href="#linearGradient73194"
       id="linearGradient11302"
       gradientUnits="userSpaceOnUse"
       x1="-91.305519"
       y1="36.521664"
       x2="-91.305519"
       y2="26.407284"
       spreadMethod="pad" /></defs><sodipodi:namedview
     id="namedview10890"
     pagecolor="#ffffff"
     bordercolor="#000000"
     borderopacity="0.25"
     inkscape:showpageshadow="2"
     inkscape:pageopacity="0.0"
     inkscape:pagecheckerboard="0"
     inkscape:deskcolor="#d1d1d1"
     showgrid="false"
     inkscape:zoom="4.8282135"
     inkscape:cx="8.4917537"
     inkscape:cy="44.219254"
     inkscape:window-width="2560"
     inkscape:window-height="1000"
     inkscape:window-x="1680"
     inkscape:window-y="0"
     inkscape:window-maximized="1"
     inkscape:current-layer="svg10888" /><g
     id="g73158"
     transform="matrix(1.3333333,0,0,1.3333333,81.343604,8.1725567)"
     style="fill:none"><g
       id="g73160"
       clip-path="url(#clipPath73164)"><g
         id="g73166"
         transform="matrix(0.0881411,0,0,0.0881411,13.597239,9.759182)"><g
           id="g73168" /><g
           id="g73188"
           mask="url(#mask73180)"><path
             d="m 5.273,12.059 h 0.219 c 0.098,0 0.176,0.082 0.176,0.179 v 0.727 c 0,0.097 -0.078,0.176 -0.176,0.176 H 5.273 c -0.097,0 -0.179,-0.079 -0.179,-0.176 v -0.727 c 0,-0.097 0.082,-0.179 0.179,-0.179 z"
             style="fill:url(#linearGradient11296);stroke:none"
             id="path73196" /></g></g></g></g><g
     id="g73198"
     transform="matrix(1.3333333,0,0,1.3333333,81.343604,8.1725567)"
     style="fill:none"><g
       id="g73200"
       clip-path="url(#clipPath73204)"><g
         id="g73206"
         transform="matrix(0.0881411,0,0,0.0881411,14.413183,9.759182)"><g
           id="g73208" /><g
           id="g73228"
           mask="url(#mask73220)"><path
             d="m 6.09,12.059 h 0.219 c 0.097,0 0.175,0.082 0.175,0.179 v 0.727 c 0,0.097 -0.078,0.176 -0.175,0.176 H 6.09 c -0.102,0 -0.18,-0.079 -0.18,-0.176 v -0.727 c 0,-0.097 0.078,-0.179 0.18,-0.179 z"
             style="fill:url(#linearGradient11298);stroke:none"
             id="path73236" /></g></g></g></g><g
     id="g73238"
     transform="matrix(1.3333333,0,0,1.3333333,81.343604,8.1725567)"
     style="fill:none"><g
       id="g73240"
       clip-path="url(#clipPath73244)"><g
         id="g73246"
         transform="matrix(0.0881411,0,0,0.0881411,15.229127,9.759182)"><g
           id="g73248" /><g
           id="g73268"
           mask="url(#mask73260)"><path
             d="m 6.906,12.059 h 0.219 c 0.098,0 0.176,0.082 0.176,0.179 v 0.727 c 0,0.097 -0.078,0.176 -0.176,0.176 H 6.906 c -0.101,0 -0.179,-0.079 -0.179,-0.176 v -0.727 c 0,-0.097 0.078,-0.179 0.179,-0.179 z"
             style="fill:url(#linearGradient11300);stroke:none"
             id="path73276" /></g></g></g></g><g
     id="g73278"
     transform="matrix(1.3333333,0,0,1.3333333,81.343604,8.1725567)"
     style="fill:none"><g
       id="g73280"
       clip-path="url(#clipPath73284)"><g
         id="g73286"
         transform="matrix(0.0881411,0,0,0.0881411,16.045071,9.759182)"><g
           id="g73288" /><g
           id="g73308"
           mask="url(#mask73300)"><path
             d="m 7.719,12.059 h 0.222 c 0.098,0 0.176,0.082 0.176,0.179 v 0.727 c 0,0.097 -0.078,0.176 -0.176,0.176 H 7.719 c -0.098,0 -0.176,-0.079 -0.176,-0.176 v -0.727 c 0,-0.097 0.078,-0.179 0.176,-0.179 z"
             style="fill:url(#linearGradient11302);stroke:none"
             id="path73316" /></g></g></g></g><g
     id="g73318"
     transform="matrix(1.3333333,0,0,1.3333333,81.343604,8.1725567)"
     style="fill:none"><g
       id="g73320"
       clip-path="url(#clipPath73324)"><g
         id="g73326"
         transform="matrix(0.0404973,0,0,0.0881411,12.265086,9.759182)"><g
           id="g73328" /><g
           id="g73348"
           mask="url(#mask73340)"><path
             d="m 8.492,12.059 c 0.07,0 0.129,0.058 0.129,0.132 v 0.817 c 0,0.074 -0.059,0.133 -0.129,0.133 -0.074,0 -0.133,-0.059 -0.133,-0.133 v -0.817 c 0,-0.074 0.059,-0.132 0.133,-0.132 z"
             style="fill:url(#linearGradient73506);stroke:none"
             id="path73356" /></g></g></g></g><g
     id="g7987"
     transform="matrix(1.3333333,0,0,1.3333333,-4.5225532e-4,-3.504174e-5)"><g
       id="g7989"><g
         id="g7995"><path
           d="m 7.195,0.836 c 0.09,0 0.176,-0.012 0.258,-0.035 1.078,-0.071 2.156,-0.067 3.231,0.008 0.976,0.078 1.921,0.289 2.836,0.636 1.519,0.625 2.558,1.711 3.121,3.254 0.316,0.93 0.507,1.887 0.566,2.867 0.078,1.235 0.051,2.465 -0.086,3.696 -0.105,0.863 -0.328,1.691 -0.672,2.488 -0.637,1.383 -1.672,2.336 -3.101,2.859 C 12.191,17 11,17.207 9.773,17.227 8.398,17.301 7.035,17.195 5.684,16.918 3.203,16.367 1.668,14.852 1.09,12.375 0.844,11.262 0.73,10.133 0.754,8.992 0.727,7.777 0.855,6.582 1.141,5.402 1.75,3.09 3.219,1.656 5.547,1.102 6.09,0.969 6.641,0.879 7.195,0.836 Z"
           style="fill:url(#radialGradient8001-3);fill-rule:evenodd;stroke:none"
           id="path8003" /></g></g></g><path
     d="m 9.8328808,5.6399648 c 0.6933332,0 1.2546662,-0.5613333 1.2546662,-1.2546666 0,-0.692 -0.561333,-1.2546667 -1.2546662,-1.2546667 -0.6933333,0 -1.2493333,0.5626667 -1.2493333,1.2546667 0,0.6933333 0.556,1.2546666 1.2493333,1.2546666 z"
     style="fill:#73b72f;fill-opacity:1;fill-rule:nonzero;stroke:none;stroke-width:1.33333"
     id="path8005" /><path
     d="m 14.250214,5.6399648 c 0.692,0 1.249333,-0.5613333 1.249333,-1.2546666 0,-0.692 -0.557333,-1.2546667 -1.249333,-1.2546667 -0.693333,0 -1.256,0.5626667 -1.256,1.2546667 0,0.6933333 0.562667,1.2546666 1.256,1.2546666 z"
     style="fill:#73b72f;fill-opacity:1;fill-rule:nonzero;stroke:none;stroke-width:1.33333"
     id="path8007" /><g
     id="g8009"
     transform="matrix(1.3333333,0,0,1.3333333,-4.5225532e-4,-3.504174e-5)"><path
       d="M 10.684,3.383 V 4.266 C 10.68,4.703 10.5,5.121 10.188,5.43 9.875,5.734 9.453,5.906 9.02,5.902 8.582,5.906 8.16,5.734 7.848,5.43 7.535,5.121 7.359,4.703 7.355,4.266 V 3.383"
       style="fill:none;stroke:#ffffff;stroke-width:0.6875;stroke-linecap:round;stroke-linejoin:round;stroke-miterlimit:4;stroke-dasharray:none;stroke-opacity:1"
       id="path8011" /></g><path
     d="m 12,11.409043 a 4.5000005,4.5000005 0 1 0 0,9.000001 4.5000005,4.5000005 0 0 0 0,-9.000001 z m 0,0.75 c 0.12975,0 0.249,0.0105 0.375,0.02325 0.03,0.003 0.06375,-0.0038 0.09375,0 0.03975,0.0053 0.078,0.01725 0.117,0.024 0.108,0.0165 0.20025,0.04425 0.30525,0.06975 0.192,0.048 0.3825,0.11175 0.5625,0.1875 0.09825,0.042 0.18675,0.09075 0.28125,0.141 v 0.02325 c 0.021,0.0098 0.033,0.05025 0.06975,0.0705 0.0135,0.0075 0.01125,0.0165 0.024,0.02325 0.021,0.012 0.051,0.0255 0.0465,0.04725 -0.006,0.03 -0.0495,0.02325 -0.0705,0.0465 0.003,0.0435 -0.03525,0.04125 -0.0465,0.0705 0.0068,0.01875 0.0435,0.024 0.0465,0.0465 -0.0038,0.024 -0.0555,0.0225 -0.0465,0.04725 0.0405,0.0315 0.07875,0.0075 0.117,0 0.084,-0.0105 0.159,-0.0045 0.21075,-0.04725 -0.0068,-0.03975 0.075,-0.03375 0.0705,-0.06975 0.02175,0.015 0.04875,0.03 0.0705,0.0465 -0.0083,0.0075 -0.015,0.0195 -0.024,0.02325 -0.015,0.0075 -0.03225,0.015 -0.0465,0.024 l -0.0705,0.0465 c -0.01725,0.012 -0.0525,0.0705 -0.06975,0.0705 -0.0225,0 -0.05475,-0.0285 -0.0705,-0.024 -0.0225,0.0075 -0.02175,0.03825 -0.04725,0.04725 -0.0495,0.018 -0.147,-0.027 -0.1635,0.04725 0.021,0.04275 0.10275,0.0225 0.14025,0.0465 a 0.2325,0.2325 0 0 1 0.0705,0.09375 0.4425,0.4425 0 0 1 0,0.141 c -0.02325,0.06 -0.09525,0.04725 -0.16425,0.0465 H 13.734 c -0.1155,-0.0075 -0.22875,-0.06 -0.28125,0.02325 0.0038,0.06375 0.015,0.10875 0,0.16425 -0.0098,0.0405 -0.072,0.0825 -0.06975,0.117 0,0.018 0.042,0.045 0.0465,0.0705 0.003,0.0135 -0.006,0.03375 0,0.04725 0.0195,0.03675 0.06,-0.0075 0.09375,0 0.033,0.0075 0.0705,0.05625 0.0705,0.09375 a 0.195,0.195 0 0 1 -0.02325,0.09375 c -0.033,0.0495 -0.09375,0.04275 -0.141,0.06975 -0.039,0.0225 -0.0465,0.07875 -0.06975,0.11775 -0.02475,0.042 -0.057,0.057 -0.04725,0.117 a 0.27375,0.27375 0 0 1 -0.141,0.14025 c -0.02025,0.009 -0.051,0.0105 -0.06975,0.024 -0.015,0.0105 -0.02625,0.04575 -0.04725,0.06975 -0.02625,0.03 -0.0555,0.048 -0.06975,0.0705 -0.01125,0.01725 -0.01275,0.0465 -0.024,0.0705 -0.0165,0.0315 -0.0495,0.03825 -0.06975,0.06975 -0.0098,0.015 -0.0135,0.051 -0.024,0.0705 -0.024,0.0435 -0.051,0.0795 -0.0465,0.117749 0.0038,0.036 0.045,0.0375 0.0465,0.06975 0.0023,0.018 -0.024,0.027 -0.02325,0.04725 7.5e-4,0.0285 0.021,0.04725 0.02325,0.06975 0.0053,0.0555 -0.036,0.0795 -0.0465,0.11775 -0.0053,0.018 0.0045,0.0315 0,0.0465 -0.009,0.02775 -0.0465,0.06075 -0.04725,0.09375 0,0.02325 0.045,0.0375 0.04725,0.0705 0.0015,0.02175 -0.02775,0.0495 -0.024,0.0705 0.0083,0.0405 0.08625,0.0855 0.11775,0.117 0.04275,0.04275 0.09825,0.072 0.117,0.117001 0.01575,0.03825 0.018,0.1125 0.04725,0.141 0.021,0.021 0.066,0.024 0.09375,0.0465 0.0255,0.02025 0.042,0.02475 0.06975,0.04725 0.04575,0.036 0.11475,0.12225 0.1875,0.117001 0.03825,-0.0075 0.075,-0.039 0.11775,-0.04725 0.04425,-0.0075 0.09525,-0.027 0.14025,-0.0225 0.0345,0.0075 0.081,0.02475 0.117,0.0225 0.0375,-0.0075 0.075,-0.0045 0.11775,-0.0225 0.07425,-0.033 0.1965,-0.08625 0.3045,-0.07125 0.0825,0.012 0.0825,0.10425 0.14025,0.141 0.066,0.0075 0.11175,-0.01275 0.16425,0 0.03975,0.0098 0.09,0.06225 0.09375,0.09375 0.0038,0.03225 -0.04275,0.0735 -0.04725,0.09375 -0.0098,0.0435 0.0075,0.09 0,0.116999 -0.006,0.0225 -0.024,0.04875 -0.0225,0.0705 0,0.0195 0.02625,0.0675 0.0465,0.09375 0.02475,0.0315 0.06375,0.06 0.09375,0.09375 0.05475,0.063 0.07875,0.127499 0.117,0.210749 0.0098,0.021 -0.009,0.0435 0,0.0705 -0.0165,0.125999 -0.0585,0.212249 -0.141,0.351749 -0.03825,0.045 -0.0945,0.084 -0.09375,0.14025 -0.0023,0.135001 0.0765,0.221251 0.0705,0.351751 -0.0135,0.1755 0.0135,0.1875 0,0.28125 0.06,0.03 0.01725,0.12525 0,0.1875 -0.0255,0.07425 -0.0555,0.09075 -0.06975,0.140999 0.03975,0.01725 0.096,0.0097 0.14025,0 l -0.0705,0.06975 a 3.90225,3.90225 0 0 1 -0.5625,0.46875 3.705,3.705 0 0 1 -1.2885,0.5625 A 3.73875,3.73875 0 0 1 12,19.659044 c -0.1425,0 -0.2835,-0.0075 -0.42225,-0.02325 -0.1095,-0.01275 -0.2205,-0.0255 -0.32775,-0.04725 -0.21225,-0.0435 -0.41175,-0.13275 -0.60975,-0.210749 -0.0068,-0.01275 -0.02475,-0.0315 -0.0225,-0.04725 0.03825,-0.0165 0.11175,0.0555 0.14025,0 0.01425,-0.02625 -0.01875,-0.09 0,-0.117001 0.0135,-0.018 0.08925,-0.018 0.117,-0.02325 0.03975,-0.0075 0.0945,-0.01275 0.117,-0.02325 0.02475,-0.01575 0.05175,-0.07125 0.04725,-0.11775 -0.0023,-0.02175 -0.03,-0.027 -0.04725,-0.0465 -0.01425,-0.0165 0.0098,-0.0315 0,-0.04725 -0.018,-0.02625 -0.06225,-0.0315 -0.06975,-0.06975 0.054,-0.0105 0.13275,0.045 0.21,0.02325 0.0375,-0.0105 0.1005,-0.0825 0.11775,-0.117001 0.0053,-0.0105 -0.006,-0.03375 0,-0.04725 0.0068,-0.0135 0.021,-0.039 0.02325,-0.0465 0.0053,-0.02025 -0.0045,-0.0105 0,-0.024 0.0135,-0.0375 0.048,-0.066 0.0705,-0.09375 0.01725,-0.021 0.05475,-0.048 0.0705,-0.06975 0.018,-0.02325 0.01125,-0.02625 0.02325,-0.04725 0.01125,-0.0675 -0.03975,-0.127499 -0.02325,-0.1875 0.018,-0.0675 0.12225,-0.109499 0.1875,-0.14025 0.0225,-0.0105 0.051,-0.01725 0.06975,-0.024 0.045,-0.015 0.099,-0.0315 0.141,-0.0465 0.0705,-0.0255 0.0825,-0.0765 0.117,-0.141 0.0165,-0.03 0.04425,-0.07125 0.04725,-0.09375 0.003,-0.0195 -0.0038,-0.02325 0,-0.0465 0.0038,-0.02175 -0.006,-0.045 0,-0.0705 0.0075,-0.03225 0.02325,-0.105 0.02325,-0.14025 0,-0.03 -0.0225,-0.0435 -0.02325,-0.0705 -0.0053,-0.0975 0.0345,-0.08775 0.06975,-0.141 0.018,-0.02625 0.0345,-0.075 0.04725,-0.09375 0.06075,-0.09 0.17175,-0.12075 0.16425,-0.25725 -0.003,-0.045 -0.0375,-0.15 -0.0705,-0.164249 -0.01875,-0.0082 -0.04275,-0.0135 -0.0705,-0.02325 -0.0885,-0.033 -0.165,-0.1335 -0.25725,-0.141 H 11.8125 c -0.036,0 -0.0765,-0.018 -0.117,-0.02325 -0.0255,-0.0075 -0.07875,0.0075 -0.09375,0 -0.02325,-0.01125 -0.0285,-0.05775 -0.04725,-0.0705 -0.015,-0.0105 -0.04725,-0.015 -0.06975,-0.02325 -0.0375,-0.0135 -0.051,-0.04425 -0.09375,-0.04725 -0.0135,0 -0.03225,0.0075 -0.04725,0 -0.02325,-0.0075 -0.04875,-0.0098 -0.0705,-0.0225 -0.027,-0.01725 -0.0585,-0.024 -0.06975,-0.04725 0.02475,-0.081 -0.054,-0.09375 -0.0705,-0.141 -0.0075,-0.02175 0.0075,-0.07425 0,-0.09375 -0.0097,-0.02775 -0.03975,-0.0465 -0.0705,-0.06975 a 0.2805,0.2805 0 0 0 -0.16425,-0.0705 c -0.0345,-0.0075 -0.07575,0.0075 -0.117,0 a 0.267,0.267 0 0 1 -0.141,-0.0705 c -0.0315,-0.03675 -0.042,-0.0765 -0.06975,-0.09375 -0.02625,-0.0165 -0.0525,-0.03 -0.0705,-0.04725 -0.0083,-0.0075 -0.01575,-0.006 -0.02325,-0.0225 -0.0135,-0.0285 -0.0405,-0.0375 -0.024,-0.07125 -0.03,-0.015 -0.01425,0.02925 -0.0465,0.024 -0.02925,-0.04125 -0.051,-0.0825 -0.117,-0.0705 -0.03,0.0075 -0.0585,0.06975 -0.09375,0.0705 -0.03,0 -0.0555,-0.0645 -0.09375,-0.0705 -0.03,-0.0075 -0.0735,0.027 -0.09375,0.02325 -0.03225,-0.0075 -0.04125,-0.027 -0.0705,-0.0465 -0.02175,-0.015 -0.0585,-0.048 -0.0705,-0.04725 -0.0375,0 -0.06525,0.075 -0.117,0.04725 -0.0255,-0.03225 0.05325,-0.0405 0.02325,-0.0705 -0.0225,-0.02175 -0.0285,0.01275 -0.0465,0.02325 -0.021,0.0135 -0.04725,0.015 -0.0705,0.024 -0.05175,0.0195 -0.1005,0.02475 -0.141,0.0465 a 0.13875,0.13875 0 0 0 -0.06975,0.0705 c -0.01725,0.0315 -0.04425,0.09225 -0.0705,0.09375 -0.0315,0 -0.042,-0.0345 -0.0705,-0.04725 -0.08625,-0.0375 -0.1395,0.0225 -0.21075,0.024 -0.066,0 -0.16725,-0.102 -0.16425,-0.165 0.0022,-0.0375 0.0195,-0.093 0.024,-0.14025 0.0038,-0.0375 0.04575,-0.0825 0.0465,-0.117 7.5e-4,-0.0465 -0.087,-0.06525 -0.117,-0.0705 -0.0705,-0.01275 -0.1545,0.0315 -0.23475,0 -0.015,-0.0255 0.015,-0.045 0.024,-0.06975 0.0053,-0.0135 -0.0053,-0.0315 0,-0.04725 0.0083,-0.024 0.0585,-0.045 0.06975,-0.0705 0.0082,-0.0195 -0.0075,-0.045 0,-0.06975 0.0097,-0.027 0.045,-0.051 0.04725,-0.0705 0.003,-0.0255 -0.027,-0.054 -0.04725,-0.0705 -0.06225,0.0075 -0.105,0.0053 -0.14025,0.02325 -0.081,0.0375 -0.05925,0.13875 -0.141,0.16425 A 0.6855,0.6855 0 0 1 8.367,15.182294 c -0.0135,0.0075 -0.0315,-0.0015 -0.0465,0 0.0015,-0.0075 -0.0015,-0.015 0,-0.02325 0.003,-0.01725 0.0195,-0.03 0.02325,-0.04725 A 3.6825,3.6825 0 0 1 8.5785,14.409043 H 8.601 c 0.02925,0.0075 0.0465,0.045 0.07125,0.04725 0.06825,0.0075 0.08325,-0.06375 0.14025,-0.09375 0.0585,0.0075 0.08775,-0.0075 0.141,0 0.036,0.0075 0.0885,0.0435 0.117,0.0465 0.024,0 0.024,-0.02625 0.0465,-0.02325 0.0225,0.0075 0.06675,0.04275 0.0705,0.06975 0.0038,0.03375 -0.033,0.08025 -0.02325,0.11775 0.03525,0.036 0.114,0.04875 0.1635,0.06975 0.033,-0.02775 0.0053,-0.078 0,-0.117 0,-0.01725 0.0023,-0.054 0,-0.06975 -0.003,-0.027 -0.0225,-0.04725 -0.0225,-0.0705 0,-0.10725 0.0915,-0.1455 0.1635,-0.1875 0.03075,-0.018 0.06675,-0.057 0.09375,-0.0705 0.03825,-0.01875 0.06225,-0.0052 0.09375,-0.02325 0.057,-0.03225 0.09675,-0.081 0.141,-0.11775 0.02025,-0.04875 -0.0023,-0.1155 0,-0.1635 0.02025,-0.01275 0.048,0 0.06975,0 0.0345,-0.0075 0.051,-0.051 0.0705,-0.0705 0.01125,-0.01125 0.033,-0.012 0.04725,-0.02325 0.03375,-0.027 0.03975,-0.0585 0.06975,-0.0705 a 0.195,0.195 0 0 1 0.04725,-0.02325 c 0.0225,-0.0075 0.05775,-0.0105 0.09375,-0.024 0.0225,-0.0075 0.08475,-0.0135 0.09375,-0.0225 0.01125,-0.012 -0.003,-0.054 0,-0.07125 0.018,-0.084 0.135,-0.0885 0.21075,-0.117 0.0525,-0.0195 0.105,-0.08025 0.16425,-0.06975 -0.01125,0.0405 -0.057,0.045 -0.04725,0.09375 0.01275,0.0675 0.09375,-0.01425 0.11775,-0.024 0.045,-0.0195 0.1275,-0.04725 0.1875,-0.06975 0.0525,-0.01875 0.1425,-0.03375 0.09375,-0.09375 -0.04125,-0.0075 -0.0585,0.0315 -0.09375,0.0465 -0.02475,0.0075 -0.02625,-0.021 -0.04725,-0.02325 -0.02025,0 -0.02625,0.027 -0.04725,0.02325 -0.02025,-0.0075 -0.0435,-0.045 -0.0465,-0.0705 -0.0083,-0.063 0.045,-0.0705 0.0705,-0.117 -0.01725,-0.057 -0.093,-0.02475 -0.141,-0.04725 a 0.08475,0.08475 0 0 1 0.0705,-0.06975 c 0.03225,-0.0075 0.1215,0.006 0.141,0.02325 0.01125,0.0098 -0.01725,0.0315 0,0.04725 0.0195,0.01725 0.045,0.0075 0.06975,0 0.009,-0.04275 -0.054,-0.0195 -0.0465,-0.04725 0.051,-0.033 0.1485,-0.015 0.21075,-0.02325 a 0.51,0.51 0 0 0 0.117,-0.04725 c 0.03,-0.01725 0.039,-0.05175 0.0705,-0.02325 0.009,0.03075 -0.006,0.054 -0.02325,0.0705 -0.05775,0.051 -0.11925,0.105 -0.16425,0.1635 0.02775,0.027 0.0705,0.01875 0.117,0.024 0.018,0.0075 0.05175,-0.0038 0.0705,0 0.0225,0.0075 0.0525,-0.0075 0.0705,0 0.0315,0.0075 0.039,0.06975 0.06975,0.06975 0.051,0 0.03,-0.06 0,-0.09375 0.009,-0.03525 0.03675,-0.06825 0.024,-0.09375 -0.02325,-0.0465 -0.1125,0.01425 -0.11775,-0.0465 -0.0023,-0.0375 0.03375,-0.042 0.04725,-0.0705 -0.006,-0.072 0.054,-0.075 0.04725,-0.14025 -0.0038,-0.027 -0.0285,-0.02175 -0.04725,-0.04725 -0.0098,-0.0135 -0.012,-0.06 -0.02325,-0.06975 -0.039,-0.033 -0.1125,-0.0075 -0.11775,-0.0705 -0.0015,-0.0375 0.0053,-0.07725 0,-0.11775 -0.0053,-0.0375 -0.0375,-0.156 -0.06975,-0.1635 -0.042,-0.009 -0.0675,0.06975 -0.11775,0.09375 a 0.282,0.282 0 0 1 -0.117,0.02325 c -0.018,-0.0075 -0.045,-0.01125 -0.0465,-0.04725 -0.003,-0.0315 0.03525,-0.045 0.0465,-0.06975 0.003,-0.006 -0.0015,-0.015 0,-0.024 0.05475,-0.015 0.10875,-0.03375 0.16425,-0.0465 0.0315,-0.0075 0.06225,-0.01725 0.09375,-0.02325 0.0225,-0.0045 0.048,0.0038 0.0705,0 A 3.7575,3.7575 0 0 1 12,12.159043 Z m -1.52325,0.351751 c -0.024,0.1365 -0.15225,0.19125 -0.30525,0.1875 -0.03375,0.033 -0.0045,0.0945 -0.0225,0.14025 -0.0165,0.03825 -0.0795,0.0735 -0.11775,0.0705 -0.02775,0 -0.0705,-0.04425 -0.0705,-0.0705 0,-0.03225 0.05175,-0.033 0.024,-0.06975 7.5e-4,-0.0075 0.015,-0.0165 0.0225,-0.024 0.01575,-0.009 0.03225,-0.01425 0.04725,-0.02325 0.13575,-0.084 0.27525,-0.14475 0.42225,-0.21075 z m 3.14025,0.14025 c -0.0135,0.0075 -0.01125,0.0165 -0.02325,0.024 -0.0285,0.01725 -0.04875,0.03825 -0.0705,0.0465 -0.03,0.01125 -0.06525,0.01875 -0.06975,0.04725 -0.0038,0.0225 0.024,0.02475 0.0225,0.0465 -0.0105,0.02775 -0.0165,0.03675 -0.0225,0.0705 0.0375,0.06225 0.11625,-0.01425 0.1635,-0.024 0.021,-0.0075 0.036,-0.0053 0.04725,-0.0225 0.01275,-0.021 0.0135,-0.042 0.02325,-0.07125 0.0105,-0.0315 0.051,-0.042 0.04725,-0.06975 -0.003,-0.02775 -0.07125,-0.051 -0.11775,-0.04725 z m -4.101,0.46875 c 0.03525,0.0285 0.0855,0.09 0.0225,0.117749 a 0.387,0.387 0 0 1 -0.116249,0.0225 c -0.0075,0 -0.01725,-0.01725 -0.024,-0.0225 0.039,-0.0375 0.07725,-0.08175 0.117749,-0.117749 z m 0.14025,0.141 c 0.018,0 0.0255,0.045 0.04725,0.0465 0.02025,0 0.0345,-0.02625 0.0465,-0.02325 0.0315,0.0083 0.05325,0.0705 0.02325,0.09375 -0.02475,0.0075 -0.0285,-0.02625 -0.0465,-0.02325 -0.051,0.009 -0.0795,0.12 -0.11775,0.117 -0.036,-0.0075 -0.06,-0.09075 -0.0225,-0.117 0,-0.0225 -0.0023,-0.024 0,-0.04725 0.0105,-0.0135 0.03975,-0.04875 0.06975,-0.0465 z m -0.187499,0.02325 c 0.0105,0 0.0195,-0.0075 0.02325,0 -0.0053,0.03975 -0.01575,0.05175 -0.0465,0.0705 -0.05325,0.03225 -0.09975,0.072 -0.11775,0.14025 -0.0052,0.02025 -0.0675,0.075 -0.09375,0.0705 -0.05925,-0.01275 0.03375,-0.123749 0.04725,-0.141 0.015,-0.01875 0.03,-0.02475 0.04725,-0.0465 0.0165,-0.021 0.03,-0.0585 0.0465,-0.0705 a 0.1845,0.1845 0 0 1 0.09375,-0.02325 z m 5.085749,0.117 c 0.06,-0.0075 0.09,0.0585 0.11775,0.09375 0.0225,0.03 0.08025,0.0735 0.117,0.09375 0.021,0.01125 0.0465,0.03675 0.06975,0.04725 0.04875,0.02175 0.13875,0.09225 0.141,0.14025 7.5e-4,0.024 -0.027,0.048 -0.02325,0.0705 0.03675,0.0075 0.069,-0.057 0.06975,-0.09375 0.069,0.0975 0.12825,0.201 0.1875,0.3045 0.0285,0.0495 0.0675,0.09 0.09375,0.141 -0.033,0.0098 -0.04125,0.015 -0.0465,0.0465 -0.0075,0.042 0.01575,0.11025 -0.04725,0.11775 -0.039,0.0075 -0.0855,-0.0345 -0.14025,-0.04725 -0.0225,-0.0075 -0.0525,0.0075 -0.0705,0 -0.04125,-0.0135 -0.0345,-0.069 -0.06975,-0.09375 a 0.37575,0.37575 0 0 0 -0.11775,-0.04725 c -0.02025,0 -0.0255,0.0075 -0.0465,0 -0.0255,-0.0075 -0.07275,0.0105 -0.09375,0 a 0.24075,0.24075 0 0 1 -0.0705,-0.06975 c -0.0083,-0.02775 0.069,-0.04725 0.0705,-0.0705 0.0015,-0.018 -0.02025,-0.04275 -0.024,-0.0705 -0.0023,-0.0165 0.0038,-0.03525 0,-0.0465 -0.0053,-0.0195 -0.039,-0.0225 -0.06975,-0.024 h -0.0705 c -0.033,0 -0.09975,-0.003 -0.141,0 -0.02475,0 -0.0465,-0.0023 -0.06975,0 -0.06525,0.0075 -0.11325,-0.0075 -0.16425,0 a 0.471,0.471 0 0 0 -0.141,0.04725 l -0.0465,0.02325 a 0.30825,0.30825 0 0 1 -0.04725,0.024 c -0.02025,0.0098 -0.0495,0.0405 -0.06975,0.0465 -0.03,0.0075 -0.0645,-0.0075 -0.11775,0 -0.0375,0 -0.09225,-0.02475 -0.09375,-0.0705 0,-0.06975 0.12225,-0.03375 0.1875,-0.0465 0.02475,-0.0075 0.0405,-0.02925 0.0705,-0.04725 0.015,-0.0075 0.0105,-0.01425 0.024,-0.02325 0.0225,-0.01575 0.066,-0.0525 0.06975,-0.0705 0.003,-0.0165 -0.0023,-0.03375 0,-0.0465 0.003,-0.01575 0.027,-0.02625 0.04725,-0.04725 0.0315,-0.0315 0.05475,-0.0735 0.09375,-0.09375 0.02625,-0.0135 0.05775,-0.02475 0.06975,-0.0465 0.003,-0.024 0,-0.02475 0,-0.04725 A 0.0975,0.0975 0 0 1 14.25,13.471543 c 0.0405,-0.009 0.06975,0.0023 0.117,0 0.02025,0 0.04875,0.0098 0.0705,0 0.018,-0.012 0.0285,-0.0375 0.04725,-0.04725 a 0.18525,0.18525 0 0 1 0.06975,-0.0225 z m 0.42225,0.4455 H 14.883 c -0.033,0 -0.075,-0.01725 -0.09375,0 0.02775,0.045 0.078,0.05925 0.14025,0.0705 a 0.14475,0.14475 0 0 0 0.04725,-0.0705 z m -5.133,-0.42225 h 0.0705 c 0.01875,0 0.039,-0.0075 0.0465,0 -0.012,0.0495 -0.12525,0.042 -0.1635,0.024 0.0015,-0.01875 0.0225,-0.021 0.0465,-0.024 z m -0.16425,0.09375 c -0.03225,0.024 -0.06525,0.05475 -0.117,0.0705 -0.0285,0.009 -0.06525,0.0083 -0.0705,-0.02325 -0.006,-0.039 0.045,-0.0195 0.0705,-0.02325 0.033,-0.0075 0.07875,-0.0225 0.117,-0.024 z m 4.875,0 c -0.02475,0.0083 -0.03675,0.063 0,0.0705 0.01725,-0.0105 0.0285,-0.0375 0.024,-0.06975 -0.0098,-0.0105 -0.0165,-0.0075 -0.024,0 z m -0.0465,0.11775 c 0,0.042 0.0075,0.08025 0,0.117 0.024,0.0465 0.08175,0.0075 0.09375,-0.02325 0.01425,-0.078 -0.01125,-0.1035 -0.04725,-0.09375 -0.012,0.0075 -0.03375,-0.0098 -0.0465,0 z m -6.211499,1.757249 c 0.04275,0.03825 0.0675,0.09225 0.11775,0.11775 a 0.35175,0.35175 0 0 0 0.06975,0.02325 c 0.02025,0.0075 0.0285,-0.006 0.04725,0 0.03975,0.0135 0.0855,0.03225 0.117,0.04725 0.048,0.021 0.09975,0.093 0.141,0.117001 0.0023,0.024 -0.0075,0.0525 0,0.06975 0.0195,0.02625 0.03825,0.0525 0.06975,0.0705 0.03825,0.021 0.0585,0.054 0.09375,0.0705 0.01275,0.0075 0.02775,-0.0075 0.04725,0 0.0495,0.015 0.075,0.0825 0.117,0.0705 0.02775,-0.0083 0.0195,-0.0435 0.024,-0.0705 0.01875,-0.02025 0.0405,-0.04725 0.06975,-0.04725 0.0465,0 0.05325,0.072 0.0705,0.11775 0.0098,0.0255 0.0405,0.04275 0.04725,0.06975 a 0.70725,0.70725 0 0 1 0,0.2115 c -0.012,0.0345 -0.06525,0.03225 -0.09375,0.06975 -0.0135,0.018 -0.0135,0.05775 -0.024,0.0705 -0.018,0.0225 -0.033,0.02625 -0.0465,0.04725 a 0.33675,0.33675 0 0 0 -0.024,0.0465 c -0.0225,0.048 -0.06525,0.0825 -0.0465,0.141 0.0075,0.0225 0.04725,0.042 0.04725,0.06975 0,0.033 -0.06525,0.05775 -0.0705,0.09375 -0.0038,0.02625 0.015,0.05925 0.02325,0.09375 0.006,0.02625 0.05475,0.05325 0.0705,0.0705 0.02625,0.03 0.04575,0.08025 0.06975,0.11775 0.04725,0.07275 0.07125,0.16275 0.11775,0.234 0.02475,0.03675 0.07725,0.05475 0.09375,0.09375 0.0075,0.0195 -0.0075,0.0525 0,0.0705 0.027,0.06 0.149999,0.13425 0.210749,0.1635 0.0285,0.015 0.0675,0.009 0.09375,0.024 0.03975,0.0225 0.12,0.0825 0.141,0.117 0.01725,0.0315 0.01425,0.114 0.0225,0.16425 0.012,0.066 -0.0023,0.11625 0,0.1875 0.003,0.039 0.024,0.05475 0.024,0.09375 v 0.06975 c -7.5e-4,0.0465 0.0038,0.09375 0,0.141 a 0.4485,0.4485 0 0 0 0,0.0705 c 0.0023,0.0225 0.0225,0.0255 0.02325,0.0465 0.0015,0.0225 -0.0255,0.05325 -0.02325,0.0705 0.0053,0.04725 0.0375,0.0735 0.04725,0.117 0.0075,0.0345 0.02775,0.123 0.0225,0.16425 -0.0023,0.02175 -0.0195,0.045 -0.0225,0.0705 -0.0023,0.0195 0.0023,0.0285 0,0.0465 -0.0023,0.01725 0.0038,0.033 0,0.04725 -0.024,-0.015 -0.04725,-0.0315 -0.0705,-0.04725 a 3.90225,3.90225 0 0 1 -0.562499,-0.46875 l -0.0705,-0.06975 a 3.9,3.9 0 0 1 -0.375,-0.46875 c -0.0105,-0.015 -0.0135,-0.03225 -0.02325,-0.04725 a 3.618,3.618 0 0 1 -0.3285,-0.60975 c -0.0068,-0.015 -0.0165,-0.03 -0.02325,-0.0465 a 3.76425,3.76425 0 0 1 -0.21075,-0.72675 3.7575,3.7575 0 0 1 -0.0705,-0.6795 c 0,-0.1785 0.0225,-0.34425 0.04725,-0.516 z M 9.75,15.792044 c 0.036,-0.0165 0.02925,0.04125 0,0.0465 -0.02775,0.0075 -0.027,-0.033 0,-0.0465 z"
     fill="#ffffff"
     id="path11304"
     style="stroke-width:0.375" /></svg>
