<?xml version="1.0" encoding="UTF-8" standalone="no"?>
<svg
   width="24"
   height="24"
   version="1.1"
   id="svg11513"
   sodipodi:docname="yast-autoyast.svg"
   xml:space="preserve"
   inkscape:version="1.2.2 (b0a8486541, 2022-12-01)"
   xmlns:inkscape="http://www.inkscape.org/namespaces/inkscape"
   xmlns:sodipodi="http://sodipodi.sourceforge.net/DTD/sodipodi-0.dtd"
   xmlns:xlink="http://www.w3.org/1999/xlink"
   xmlns="http://www.w3.org/2000/svg"
   xmlns:svg="http://www.w3.org/2000/svg"><defs
     id="defs11517"><filter
       id="c"
       x="-0.080881894"
       y="-0.16176379"
       width="1.1617638"
       height="1.3235276"
       color-interpolation-filters="sRGB"><feGaussianBlur
         stdDeviation=".214"
         id="feGaussianBlur1485" /></filter><filter
       id="b"
       x="-0.11297998"
       y="-0.10355905"
       width="1.22596"
       height="1.2071182"
       color-interpolation-filters="sRGB"><feGaussianBlur
         stdDeviation=".548"
         id="feGaussianBlur1488" /></filter><clipPath
       id="a"><rect
         x="1.587"
         y="2.6459999"
         width="13.758"
         height="12.7"
         rx="0.79400003"
         ry="0.79400003"
         fill="#ececec"
         opacity="0.8"
         stroke-linecap="round"
         stroke-linejoin="round"
         stroke-width="0.37"
         style="paint-order:stroke fill markers"
         id="rect1491" /></clipPath><linearGradient
       id="paint0_linear_14_2"
       x1="12"
       y1="0"
       x2="12"
       y2="12"
       gradientUnits="userSpaceOnUse"
       gradientTransform="matrix(0.24252996,0,0,0.24252996,0.26457741,0.26457817)"><stop
         stop-color="#C7CEFF"
         id="stop1647"
         offset="0"
         style="stop-color:#b8d5ff;stop-opacity:1;" /><stop
         offset="1"
         stop-color="#6C7AD8"
         id="stop1649"
         style="stop-color:#6694ff;stop-opacity:1;" /></linearGradient><linearGradient
       x1="12"
       y1="0"
       x2="12"
       y2="12"
       gradientUnits="userSpaceOnUse"
       gradientTransform="matrix(0.6875,0,0,0.6875,0.749998,0.75)"
       spreadMethod="pad"
       id="linearGradient4207"><stop
         style="stop-opacity:1;stop-color:#b8d5ff"
         offset="0"
         id="stop4203" /><stop
         style="stop-opacity:1;stop-color:#6694ff"
         offset="1"
         id="stop4205" /></linearGradient><radialGradient
       id="paint0_radial_1_27"
       cx="0"
       cy="0"
       r="1"
       gradientUnits="userSpaceOnUse"
       gradientTransform="matrix(0,22.000003,-22.000003,0,2.8832922,-3.5034343)"><stop
         stop-color="#9BDF6C"
         id="stop5989"
         offset="0"
         style="stop-color:#a4a4a4;stop-opacity:1;" /><stop
         offset="1"
         stop-color="#204705"
         id="stop5991"
         style="stop-color:#626262;stop-opacity:1;" /></radialGradient><radialGradient
       id="paint0_radial_1_284"
       cx="0"
       cy="0"
       r="1"
       gradientUnits="userSpaceOnUse"
       gradientTransform="matrix(-10.999959,21.999967,-21.999967,-10.999959,-24.402365,-4.1651738)"><stop
         stop-color="#9A9A9A"
         id="stop8367" /><stop
         offset="1"
         stop-color="#5D5D5D"
         id="stop8369" /></radialGradient><radialGradient
       fx="0"
       fy="0"
       cx="0"
       cy="0"
       r="1"
       gradientUnits="userSpaceOnUse"
       gradientTransform="matrix(0,16.500002,-16.500002,0,8.999998,0.749999)"
       spreadMethod="pad"
       id="radialGradient12763"><stop
         style="stop-opacity:1;stop-color:#a4a4a4"
         offset="0"
         id="stop12759" /><stop
         style="stop-opacity:1;stop-color:#626262"
         offset="1"
         id="stop12761" /></radialGradient><clipPath
       clipPathUnits="userSpaceOnUse"
       id="clipPath12773"><path
         d="M 0,0 H 19 V 19 H 0 Z"
         id="path12771" /></clipPath><clipPath
       clipPathUnits="userSpaceOnUse"
       id="clipPath12789"><path
         d="M 0,0 H 19 V 19 H 0 Z"
         id="path12787" /></clipPath><radialGradient
       fx="0"
       fy="0"
       cx="0"
       cy="0"
       r="1"
       gradientUnits="userSpaceOnUse"
       gradientTransform="matrix(0,16.500002,-16.500002,0,8.999998,0.749999)"
       spreadMethod="pad"
       id="radialGradient12763-3"><stop
         style="stop-opacity:1;stop-color:#a4a4a4"
         offset="0"
         id="stop12759-6" /><stop
         style="stop-opacity:1;stop-color:#626262"
         offset="1"
         id="stop12761-7" /></radialGradient><radialGradient
       fx="0"
       fy="0"
       cx="0"
       cy="0"
       r="1"
       gradientUnits="userSpaceOnUse"
       gradientTransform="matrix(0,16.500002,-16.500002,0,8.999659,0.749973)"
       spreadMethod="pad"
       id="radialGradient48543"><stop
         style="stop-opacity:1;stop-color:#a4a4a4"
         offset="0"
         id="stop48539" /><stop
         style="stop-opacity:1;stop-color:#626262"
         offset="1"
         id="stop48541" /></radialGradient><radialGradient
       id="paint0_radial_1_27-2"
       cx="0"
       cy="0"
       r="1"
       gradientUnits="userSpaceOnUse"
       gradientTransform="matrix(0,22.000003,-22.000003,0,11.999997,0.99999709)"><stop
         stop-color="#9BDF6C"
         id="stop5989-6"
         offset="0"
         style="stop-color:#dedede;stop-opacity:1;" /><stop
         offset="1"
         stop-color="#204705"
         id="stop5991-1"
         style="stop-color:#656565;stop-opacity:1;" /></radialGradient><radialGradient
       fx="0"
       fy="0"
       cx="0"
       cy="0"
       r="1"
       gradientUnits="userSpaceOnUse"
       gradientTransform="matrix(0,16.500002,-16.500002,0,8.999998,0.749998)"
       spreadMethod="pad"
       id="radialGradient73082"><stop
         style="stop-opacity:1;stop-color:#dedede"
         offset="0"
         id="stop73078" /><stop
         style="stop-opacity:1;stop-color:#656565"
         offset="1"
         id="stop73080" /></radialGradient><clipPath
       clipPathUnits="userSpaceOnUse"
       id="clipPath73092"><path
         d="M 0,0 H 19 V 19 H 0 Z"
         id="path73090" /></clipPath><clipPath
       clipPathUnits="userSpaceOnUse"
       id="clipPath73164"><path
         d="m 5.273,12.059 h 0.219 c 0.098,0 0.176,0.082 0.176,0.179 v 0.727 c 0,0.097 -0.078,0.176 -0.176,0.176 H 5.273 c -0.097,0 -0.179,-0.079 -0.179,-0.176 v -0.727 c 0,-0.097 0.082,-0.179 0.179,-0.179 z"
         id="path73162" /></clipPath><clipPath
       clipPathUnits="userSpaceOnUse"
       id="clipPath73172"><path
         d="m -97.539457,25.423071 h 11.345439 V 48.11395 h -11.345439 z"
         id="path73170" /></clipPath><linearGradient
       x1="-91.305519"
       y1="36.521664"
       x2="-91.305519"
       y2="26.407284"
       gradientUnits="userSpaceOnUse"
       spreadMethod="pad"
       id="linearGradient73178"><stop
         style="stop-opacity:1;stop-color:#ffffff"
         offset="0"
         id="stop73174" /><stop
         style="stop-opacity:0;stop-color:#ffffff"
         offset="1"
         id="stop73176" /></linearGradient><mask
       maskUnits="userSpaceOnUse"
       x="0"
       y="0"
       width="1"
       height="1"
       id="mask73180"><g
         id="g73186"><g
           clip-path="url(#clipPath73172)"
           id="g73184"><path
             d="m -97.539457,25.423071 h 11.345439 V 48.11395 h -11.345439 z"
             style="fill:url(#linearGradient73178);stroke:none"
             id="path73182" /></g></g></mask><linearGradient
       x1="-91.305519"
       y1="36.521664"
       x2="-91.305519"
       y2="26.407284"
       gradientUnits="userSpaceOnUse"
       spreadMethod="pad"
       id="linearGradient73194"><stop
         style="stop-opacity:1;stop-color:#fff355"
         offset="0"
         id="stop73190" /><stop
         style="stop-opacity:1;stop-color:#a49a00"
         offset="1"
         id="stop73192" /></linearGradient><clipPath
       clipPathUnits="userSpaceOnUse"
       id="clipPath73204"><path
         d="m 6.09,12.059 h 0.219 c 0.097,0 0.175,0.082 0.175,0.179 v 0.727 c 0,0.097 -0.078,0.176 -0.175,0.176 H 6.09 c -0.102,0 -0.18,-0.079 -0.18,-0.176 v -0.727 c 0,-0.097 0.078,-0.179 0.18,-0.179 z"
         id="path73202" /></clipPath><clipPath
       clipPathUnits="userSpaceOnUse"
       id="clipPath73212"><path
         d="m -106.7967,25.423071 h 22.690882 V 48.11395 H -106.7967 Z"
         id="path73210" /></clipPath><mask
       maskUnits="userSpaceOnUse"
       x="0"
       y="0"
       width="1"
       height="1"
       id="mask73220"><g
         id="g73226"><g
           clip-path="url(#clipPath73212)"
           id="g73224"><path
             d="m -106.7967,25.423071 h 22.690882 V 48.11395 H -106.7967 Z"
             style="fill:url(#linearGradient73178);stroke:none"
             id="path73222" /></g></g></mask><clipPath
       clipPathUnits="userSpaceOnUse"
       id="clipPath73244"><path
         d="m 6.906,12.059 h 0.219 c 0.098,0 0.176,0.082 0.176,0.179 v 0.727 c 0,0.097 -0.078,0.176 -0.176,0.176 H 6.906 c -0.101,0 -0.179,-0.079 -0.179,-0.176 v -0.727 c 0,-0.097 0.078,-0.179 0.179,-0.179 z"
         id="path73242" /></clipPath><clipPath
       clipPathUnits="userSpaceOnUse"
       id="clipPath73252"><path
         d="m -104.7085,25.423071 h 22.690881 V 48.11395 H -104.7085 Z"
         id="path73250" /></clipPath><mask
       maskUnits="userSpaceOnUse"
       x="0"
       y="0"
       width="1"
       height="1"
       id="mask73260"><g
         id="g73266"><g
           clip-path="url(#clipPath73252)"
           id="g73264"><path
             d="m -104.7085,25.423071 h 22.690881 V 48.11395 H -104.7085 Z"
             style="fill:url(#linearGradient73178);stroke:none"
             id="path73262" /></g></g></mask><clipPath
       clipPathUnits="userSpaceOnUse"
       id="clipPath73284"><path
         d="m 7.719,12.059 h 0.222 c 0.098,0 0.176,0.082 0.176,0.179 v 0.727 c 0,0.097 -0.078,0.176 -0.176,0.176 H 7.719 c -0.098,0 -0.176,-0.079 -0.176,-0.176 v -0.727 c 0,-0.097 0.078,-0.179 0.176,-0.179 z"
         id="path73282" /></clipPath><clipPath
       clipPathUnits="userSpaceOnUse"
       id="clipPath73292"><path
         d="m -102.6203,25.423071 h 22.690874 V 48.11395 H -102.6203 Z"
         id="path73290" /></clipPath><mask
       maskUnits="userSpaceOnUse"
       x="0"
       y="0"
       width="1"
       height="1"
       id="mask73300"><g
         id="g73306"><g
           clip-path="url(#clipPath73292)"
           id="g73304"><path
             d="m -102.6203,25.423071 h 22.690874 V 48.11395 H -102.6203 Z"
             style="fill:url(#linearGradient73178);stroke:none"
             id="path73302" /></g></g></mask><clipPath
       clipPathUnits="userSpaceOnUse"
       id="clipPath73324"><path
         d="m 8.492,12.059 c 0.07,0 0.129,0.058 0.129,0.132 v 0.817 c 0,0.074 -0.059,0.133 -0.129,0.133 -0.074,0 -0.133,-0.059 -0.133,-0.133 v -0.817 c 0,-0.074 0.059,-0.132 0.133,-0.132 z"
         id="path73322" /></clipPath><clipPath
       clipPathUnits="userSpaceOnUse"
       id="clipPath73332"><path
         d="m -105.31784,25.423071 h 24.693021 V 48.11395 h -24.693021 z"
         id="path73330" /></clipPath><mask
       maskUnits="userSpaceOnUse"
       x="0"
       y="0"
       width="1"
       height="1"
       id="mask73340"><g
         id="g73346"><g
           clip-path="url(#clipPath73332)"
           id="g73344"><path
             d="m -105.31784,25.423071 h 24.693021 V 48.11395 h -24.693021 z"
             style="fill:url(#linearGradient73178);stroke:none"
             id="path73342" /></g></g></mask><linearGradient
       inkscape:collect="always"
       xlink:href="#linearGradient73194"
       id="linearGradient73506"
       gradientUnits="userSpaceOnUse"
       x1="-91.305519"
       y1="36.521664"
       x2="-91.305519"
       y2="26.407284"
       spreadMethod="pad" /><radialGradient
       id="paint0_radial_1_27-20"
       cx="0"
       cy="0"
       r="1"
       gradientUnits="userSpaceOnUse"
       gradientTransform="matrix(0,5.8207194,-5.8207194,0,15.701019,2.4268576)"><stop
         stop-color="#9BDF6C"
         id="stop5989-2"
         offset="0"
         style="stop-color:#67f1fc;stop-opacity:1;" /><stop
         offset="1"
         stop-color="#204705"
         id="stop5991-3"
         style="stop-color:#3d6b9c;stop-opacity:1;" /></radialGradient><radialGradient
       id="paint0_radial_1_27-3"
       cx="0"
       cy="0"
       r="1"
       gradientUnits="userSpaceOnUse"
       gradientTransform="matrix(0,22.000003,-22.000003,0,12.000002,0.99999882)"><stop
         stop-color="#9BDF6C"
         id="stop5989-67"
         offset="0"
         style="stop-color:#bddc95;stop-opacity:1;" /><stop
         offset="1"
         stop-color="#204705"
         id="stop5991-5"
         style="stop-color:#73b72f;stop-opacity:1;" /></radialGradient><radialGradient
       fx="0"
       fy="0"
       cx="0"
       cy="0"
       r="1"
       gradientUnits="userSpaceOnUse"
       gradientTransform="matrix(0,16.500002,-16.500002,0,9.000002,0.749999)"
       spreadMethod="pad"
       id="radialGradient8001"><stop
         style="stop-opacity:1;stop-color:#bddc95"
         offset="0"
         id="stop7997" /><stop
         style="stop-opacity:1;stop-color:#73b72f"
         offset="1"
         id="stop7999" /></radialGradient><radialGradient
       fx="0"
       fy="0"
       cx="0"
       cy="0"
       r="1"
       gradientUnits="userSpaceOnUse"
       gradientTransform="matrix(0,22.000002,-22.000002,0,11.99955,0.9999636)"
       spreadMethod="pad"
       id="radialGradient8001-3"><stop
         style="stop-opacity:1;stop-color:#bddc95"
         offset="0"
         id="stop7997-5" /><stop
         style="stop-opacity:1;stop-color:#73b72f"
         offset="1"
         id="stop7999-6" /></radialGradient><linearGradient
       inkscape:collect="always"
       xlink:href="#linearGradient73194"
       id="linearGradient11919"
       gradientUnits="userSpaceOnUse"
       x1="-91.305519"
       y1="36.521664"
       x2="-91.305519"
       y2="26.407284"
       spreadMethod="pad" /><linearGradient
       inkscape:collect="always"
       xlink:href="#linearGradient73194"
       id="linearGradient11921"
       gradientUnits="userSpaceOnUse"
       x1="-91.305519"
       y1="36.521664"
       x2="-91.305519"
       y2="26.407284"
       spreadMethod="pad" /><linearGradient
       inkscape:collect="always"
       xlink:href="#linearGradient73194"
       id="linearGradient11923"
       gradientUnits="userSpaceOnUse"
       x1="-91.305519"
       y1="36.521664"
       x2="-91.305519"
       y2="26.407284"
       spreadMethod="pad" /><linearGradient
       inkscape:collect="always"
       xlink:href="#linearGradient73194"
       id="linearGradient11925"
       gradientUnits="userSpaceOnUse"
       x1="-91.305519"
       y1="36.521664"
       x2="-91.305519"
       y2="26.407284"
       spreadMethod="pad" /></defs><sodipodi:namedview
     id="namedview11515"
     pagecolor="#ffffff"
     bordercolor="#000000"
     borderopacity="0.25"
     inkscape:showpageshadow="2"
     inkscape:pageopacity="0.0"
     inkscape:pagecheckerboard="0"
     inkscape:deskcolor="#d1d1d1"
     showgrid="false"
     inkscape:zoom="19.312854"
     inkscape:cx="20.038468"
     inkscape:cy="17.527187"
     inkscape:window-width="2560"
     inkscape:window-height="1000"
     inkscape:window-x="1680"
     inkscape:window-y="0"
     inkscape:window-maximized="1"
     inkscape:current-layer="svg11513" /><g
     id="g73158"
     transform="matrix(1.3333333,0,0,1.3333333,81.343604,8.1725567)"
     style="fill:none"><g
       id="g73160"
       clip-path="url(#clipPath73164)"><g
         id="g73166"
         transform="matrix(0.0881411,0,0,0.0881411,13.597239,9.759182)"><g
           id="g73168" /><g
           id="g73188"
           mask="url(#mask73180)"><path
             d="m 5.273,12.059 h 0.219 c 0.098,0 0.176,0.082 0.176,0.179 v 0.727 c 0,0.097 -0.078,0.176 -0.176,0.176 H 5.273 c -0.097,0 -0.179,-0.079 -0.179,-0.176 v -0.727 c 0,-0.097 0.082,-0.179 0.179,-0.179 z"
             style="fill:url(#linearGradient11919);stroke:none"
             id="path73196" /></g></g></g></g><g
     id="g73198"
     transform="matrix(1.3333333,0,0,1.3333333,81.343604,8.1725567)"
     style="fill:none"><g
       id="g73200"
       clip-path="url(#clipPath73204)"><g
         id="g73206"
         transform="matrix(0.0881411,0,0,0.0881411,14.413183,9.759182)"><g
           id="g73208" /><g
           id="g73228"
           mask="url(#mask73220)"><path
             d="m 6.09,12.059 h 0.219 c 0.097,0 0.175,0.082 0.175,0.179 v 0.727 c 0,0.097 -0.078,0.176 -0.175,0.176 H 6.09 c -0.102,0 -0.18,-0.079 -0.18,-0.176 v -0.727 c 0,-0.097 0.078,-0.179 0.18,-0.179 z"
             style="fill:url(#linearGradient11921);stroke:none"
             id="path73236" /></g></g></g></g><g
     id="g73238"
     transform="matrix(1.3333333,0,0,1.3333333,81.343604,8.1725567)"
     style="fill:none"><g
       id="g73240"
       clip-path="url(#clipPath73244)"><g
         id="g73246"
         transform="matrix(0.0881411,0,0,0.0881411,15.229127,9.759182)"><g
           id="g73248" /><g
           id="g73268"
           mask="url(#mask73260)"><path
             d="m 6.906,12.059 h 0.219 c 0.098,0 0.176,0.082 0.176,0.179 v 0.727 c 0,0.097 -0.078,0.176 -0.176,0.176 H 6.906 c -0.101,0 -0.179,-0.079 -0.179,-0.176 v -0.727 c 0,-0.097 0.078,-0.179 0.179,-0.179 z"
             style="fill:url(#linearGradient11923);stroke:none"
             id="path73276" /></g></g></g></g><g
     id="g73278"
     transform="matrix(1.3333333,0,0,1.3333333,81.343604,8.1725567)"
     style="fill:none"><g
       id="g73280"
       clip-path="url(#clipPath73284)"><g
         id="g73286"
         transform="matrix(0.0881411,0,0,0.0881411,16.045071,9.759182)"><g
           id="g73288" /><g
           id="g73308"
           mask="url(#mask73300)"><path
             d="m 7.719,12.059 h 0.222 c 0.098,0 0.176,0.082 0.176,0.179 v 0.727 c 0,0.097 -0.078,0.176 -0.176,0.176 H 7.719 c -0.098,0 -0.176,-0.079 -0.176,-0.176 v -0.727 c 0,-0.097 0.078,-0.179 0.176,-0.179 z"
             style="fill:url(#linearGradient11925);stroke:none"
             id="path73316" /></g></g></g></g><g
     id="g73318"
     transform="matrix(1.3333333,0,0,1.3333333,81.343604,8.1725567)"
     style="fill:none"><g
       id="g73320"
       clip-path="url(#clipPath73324)"><g
         id="g73326"
         transform="matrix(0.0404973,0,0,0.0881411,12.265086,9.759182)"><g
           id="g73328" /><g
           id="g73348"
           mask="url(#mask73340)"><path
             d="m 8.492,12.059 c 0.07,0 0.129,0.058 0.129,0.132 v 0.817 c 0,0.074 -0.059,0.133 -0.129,0.133 -0.074,0 -0.133,-0.059 -0.133,-0.133 v -0.817 c 0,-0.074 0.059,-0.132 0.133,-0.132 z"
             style="fill:url(#linearGradient73506);stroke:none"
             id="path73356" /></g></g></g></g><path
     d="m 9.5928808,1.1146316 c 0.12,0 0.2346667,-0.016 0.344,-0.046667 1.4373332,-0.0946666 2.8746662,-0.0893333 4.3080002,0.010667 1.301333,0.104 2.561333,0.3853333 3.781333,0.848 2.025333,0.8333333 3.410667,2.2813333 4.161333,4.3386665 0.421334,1.24 0.676,2.516 0.754667,3.8226669 0.104,1.646666 0.068,3.286666 -0.114667,4.928 -0.14,1.150666 -0.437333,2.254666 -0.896,3.317333 -0.849333,1.844 -2.229333,3.114666 -4.134666,3.812 -1.542667,0.521333 -3.130667,0.797333 -4.766667,0.824 -1.833333,0.09867 -3.6506665,-0.04267 -5.4519998,-0.412 -3.3079999,-0.734667 -5.3546665,-2.754667 -6.1253332,-6.057333 -0.328,-1.484 -0.47999995,-2.989334 -0.4479999,-4.510667 -0.036,-1.62 0.1346666,-3.2133333 0.5159999,-4.7866666 C 2.332881,4.1199649 4.2915476,2.2079649 7.3955476,1.4692983 8.1195475,1.2919649 8.8542142,1.1719649 9.5928808,1.1146316 Z"
     style="fill:url(#radialGradient8001-3);fill-rule:evenodd;stroke:none;stroke-width:1.33333"
     id="path8003" /><path
     d="m 9.8328808,5.6399648 c 0.6933332,0 1.2546662,-0.5613333 1.2546662,-1.2546666 0,-0.692 -0.561333,-1.2546667 -1.2546662,-1.2546667 -0.6933333,0 -1.2493333,0.5626667 -1.2493333,1.2546667 0,0.6933333 0.556,1.2546666 1.2493333,1.2546666 z"
     style="fill:#73b72f;fill-opacity:1;fill-rule:nonzero;stroke:none;stroke-width:1.33333"
     id="path8005" /><path
     d="m 14.250214,5.6399648 c 0.692,0 1.249333,-0.5613333 1.249333,-1.2546666 0,-0.692 -0.557333,-1.2546667 -1.249333,-1.2546667 -0.693333,0 -1.256,0.5626667 -1.256,1.2546667 0,0.6933333 0.562667,1.2546666 1.256,1.2546666 z"
     style="fill:#73b72f;fill-opacity:1;fill-rule:nonzero;stroke:none;stroke-width:1.33333"
     id="path8007" /><g
     id="g8009"
     transform="matrix(1.3333333,0,0,1.3333333,-4.5225532e-4,-3.504174e-5)"><path
       d="M 10.684,3.383 V 4.266 C 10.68,4.703 10.5,5.121 10.188,5.43 9.875,5.734 9.453,5.906 9.02,5.902 8.582,5.906 8.16,5.734 7.848,5.43 7.535,5.121 7.359,4.703 7.355,4.266 V 3.383"
       style="fill:none;stroke:#ffffff;stroke-width:0.6875;stroke-linecap:round;stroke-linejoin:round;stroke-miterlimit:4;stroke-dasharray:none;stroke-opacity:1"
       id="path8011" /></g><path
     d="m 11.25,11.413332 v 0.826499 a 3.75,3.75 0 0 0 -1.3155,0.5475 l -0.58575,-0.58575 -1.0605,1.0605 0.58575,0.58575 a 3.75,3.75 0 0 0 -0.54525,1.3155 H 7.5 v 1.5 h 0.8265 a 3.75,3.75 0 0 0 0.5475,1.3155 l -0.58575,0.58575 1.0605,1.0605 0.58575,-0.58575 a 3.75,3.75 0 0 0 1.3155,0.54525 v 0.82875 h 1.5 v -0.8265 a 3.75,3.75 0 0 0 1.3155,-0.5475 l 0.58575,0.58575 1.0605,-1.0605 -0.58575,-0.58575 a 3.75,3.75 0 0 0 0.54525,-1.3155 H 16.5 v -1.5 h -0.8265 a 3.75,3.75 0 0 0 -0.5475,-1.3155 l 0.58575,-0.58575 -1.0605,-1.0605 -0.58575,0.58575 A 3.75,3.75 0 0 0 12.75,12.242081 v -0.828749 z m 0.75,1.5 a 3,3 0 0 1 2.1525,0.90975 3,3 0 0 1 0.8475,2.09025 3,3 0 0 1 -0.90975,2.1525 A 3,3 0 0 1 12,18.913331 3,3 0 0 1 9.8475,18.003582 3,3 0 0 1 9,15.913332 3,3 0 0 1 9.90975,13.760832 3,3 0 0 1 12,12.913332 Z m -0.75,1.5 v 2.999999 l 2.25,-1.499999 z"
     fill="#ffffff"
     id="path11966"
     style="stroke-width:0.375" /></svg>
