<?xml version="1.0" encoding="UTF-8" standalone="no"?>
<svg
   width="24"
   height="24"
   version="1.1"
   id="svg898"
   sodipodi:docname="appimagekit-youtube-music-desktop-app.svg"
   inkscape:version="1.2.2 (b0a8486541, 2022-12-01)"
   xmlns:inkscape="http://www.inkscape.org/namespaces/inkscape"
   xmlns:sodipodi="http://sodipodi.sourceforge.net/DTD/sodipodi-0.dtd"
   xmlns="http://www.w3.org/2000/svg"
   xmlns:svg="http://www.w3.org/2000/svg">
  <defs
     id="defs902">
    <linearGradient
       x1="12"
       y1="1"
       x2="12"
       y2="23"
       gradientUnits="userSpaceOnUse"
       gradientTransform="matrix(0.75,0,0,0.75,-7.98374e-6,2.65834e-5)"
       spreadMethod="pad"
       id="linearGradient44915">
      <stop
         style="stop-opacity:1;stop-color:#ff5f5f"
         offset="0"
         id="stop44911" />
      <stop
         style="stop-opacity:1;stop-color:#e82e34"
         offset="1"
         id="stop44913" />
    </linearGradient>
  </defs>
  <sodipodi:namedview
     id="namedview900"
     pagecolor="#ffffff"
     bordercolor="#000000"
     borderopacity="0.25"
     inkscape:showpageshadow="2"
     inkscape:pageopacity="0.0"
     inkscape:pagecheckerboard="0"
     inkscape:deskcolor="#d1d1d1"
     showgrid="false"
     inkscape:zoom="9.656427"
     inkscape:cx="-2.4336124"
     inkscape:cy="19.624236"
     inkscape:window-width="2560"
     inkscape:window-height="1000"
     inkscape:window-x="1680"
     inkscape:window-y="0"
     inkscape:window-maximized="1"
     inkscape:current-layer="svg898" />
  <g
     id="g44901"
     transform="matrix(1.3333333,0,0,1.3333333,-4.5225532e-4,-3.504174e-5)">
    <g
       id="g44903">
      <g
         id="g44909">
        <path
           d="m 7.195,0.836 c 0.09,0 0.176,-0.012 0.258,-0.035 1.078,-0.071 2.156,-0.067 3.231,0.008 0.976,0.078 1.921,0.289 2.836,0.636 1.519,0.625 2.558,1.711 3.121,3.254 0.316,0.93 0.507,1.887 0.566,2.867 0.078,1.235 0.051,2.465 -0.086,3.696 -0.105,0.863 -0.328,1.691 -0.672,2.488 -0.637,1.383 -1.672,2.336 -3.101,2.859 C 12.191,17 11,17.207 9.773,17.227 8.398,17.301 7.035,17.195 5.684,16.918 3.203,16.367 1.668,14.852 1.09,12.375 0.844,11.262 0.73,10.133 0.754,8.992 0.727,7.777 0.855,6.582 1.141,5.402 1.75,3.09 3.219,1.656 5.547,1.102 6.09,0.969 6.641,0.879 7.195,0.836 Z"
           style="fill:url(#linearGradient44915);fill-rule:evenodd;stroke:none"
           id="path44917" />
      </g>
    </g>
  </g>
  <path
     d="M 11.9625,4.5000232 A 7.4999883,7.4999883 0 0 0 4.5000113,12.000011 7.4999883,7.4999883 0 0 0 12,19.5 7.4999883,7.4999883 0 0 0 19.499989,12.000011 7.4999883,7.4999883 0 0 0 12,4.5000232 a 7.4999883,7.4999883 0 0 0 -0.0375,0 z m -1.737497,3.608328 c 0.145,0.0075 0.280833,0.05542 0.407083,0.143333 l 4.672076,3.2195778 c 0.147083,0.10375 0.249166,0.240417 0.305833,0.409166 0.05667,0.169167 0.05667,0.339583 0,0.510416 a 0.78583211,0.78583211 0 0 1 -0.3075,0.4075 l -4.670826,3.219578 a 0.78124878,0.78124878 0 0 1 -0.554582,0.136666 c -0.2025007,-0.025 -0.3700007,-0.11375 -0.5054167,-0.266249 -0.135417,-0.1525 -0.204167,-0.330416 -0.204167,-0.534583 V 8.9166832 c 0,-0.204166 0.06875,-0.383333 0.204167,-0.535833 a 0.78416544,0.78416544 0 0 1 0.5054167,-0.266249 c 0.05,-0.0063 0.1,-0.0083 0.147916,-0.0054 z"
     fill="#ffffff"
     id="path896"
     style="stroke-width:0.416666" />
</svg>
