<?xml version="1.0" encoding="UTF-8" standalone="no"?>
<svg
   width="24"
   height="24"
   viewBox="0 0 6.349875 6.349875"
   version="1.1"
   id="svg190"
   sodipodi:docname="YouTubeDownloader.svg"
   xml:space="preserve"
   inkscape:version="1.2.2 (b0a8486541, 2022-12-01)"
   xmlns:inkscape="http://www.inkscape.org/namespaces/inkscape"
   xmlns:sodipodi="http://sodipodi.sourceforge.net/DTD/sodipodi-0.dtd"
   xmlns="http://www.w3.org/2000/svg"
   xmlns:svg="http://www.w3.org/2000/svg"><defs
     id="defs194"><linearGradient
       id="paint0_linear_3_286"
       x1="12"
       y1="1"
       x2="12"
       y2="12"
       gradientUnits="userSpaceOnUse"><stop
         stop-color="#EEA5FF"
         id="stop266" /><stop
         offset="1"
         stop-color="#A159B2"
         id="stop268" /></linearGradient><linearGradient
       x1="12"
       y1="1"
       x2="12"
       y2="23"
       gradientUnits="userSpaceOnUse"
       gradientTransform="matrix(0.75,0,0,0.75,-7.98374e-6,-2.49454e-5)"
       spreadMethod="pad"
       id="linearGradient38255-1"><stop
         style="stop-opacity:1;stop-color:#4a74d2"
         offset="0"
         id="stop38251-9" /><stop
         style="stop-opacity:1;stop-color:#375295"
         offset="1"
         id="stop38253-4" /></linearGradient><linearGradient
       id="paint0_linear_18_187"
       x1="12"
       y1="1"
       x2="12"
       y2="23"
       gradientUnits="userSpaceOnUse"
       gradientTransform="matrix(0.26457812,0,0,0.26457812,-2.8164292e-6,9.3778578e-6)"><stop
         stop-color="#33BEF0"
         id="stop43245"
         offset="0"
         style="stop-color:#ff5f5f;stop-opacity:1;" /><stop
         offset="1"
         stop-color="#0A85D9"
         id="stop43247"
         style="stop-color:#e82e34;stop-opacity:1;" /></linearGradient><linearGradient
       x1="12"
       y1="1"
       x2="12"
       y2="23"
       gradientUnits="userSpaceOnUse"
       gradientTransform="matrix(0.75,0,0,0.75,-7.98374e-6,2.65834e-5)"
       spreadMethod="pad"
       id="linearGradient44915"><stop
         style="stop-opacity:1;stop-color:#ff5f5f"
         offset="0"
         id="stop44911" /><stop
         style="stop-opacity:1;stop-color:#e82e34"
         offset="1"
         id="stop44913" /></linearGradient><linearGradient
       id="paint0_linear_3_286-3"
       x1="12"
       y1="1"
       x2="12"
       y2="12"
       gradientUnits="userSpaceOnUse"><stop
         stop-color="#EEA5FF"
         id="stop266-6" /><stop
         offset="1"
         stop-color="#A159B2"
         id="stop268-7" /></linearGradient></defs><sodipodi:namedview
     id="namedview192"
     pagecolor="#ffffff"
     bordercolor="#000000"
     borderopacity="0.25"
     inkscape:showpageshadow="2"
     inkscape:pageopacity="0.0"
     inkscape:pagecheckerboard="0"
     inkscape:deskcolor="#d1d1d1"
     showgrid="false"
     inkscape:zoom="6.3828125"
     inkscape:cx="24.04896"
     inkscape:cy="30.315789"
     inkscape:window-width="2560"
     inkscape:window-height="1000"
     inkscape:window-x="1680"
     inkscape:window-y="0"
     inkscape:window-maximized="1"
     inkscape:current-layer="svg190" /><g
     id="g44899"
     transform="matrix(0.35277082,0,0,0.35277082,-1.1961624e-4,-9.2306512e-6)"><g
       id="g44901"><g
         id="g44903"><g
           id="g44909"><path
             d="m 7.195,0.836 c 0.09,0 0.176,-0.012 0.258,-0.035 1.078,-0.071 2.156,-0.067 3.231,0.008 0.976,0.078 1.921,0.289 2.836,0.636 1.519,0.625 2.558,1.711 3.121,3.254 0.316,0.93 0.507,1.887 0.566,2.867 0.078,1.235 0.051,2.465 -0.086,3.696 -0.105,0.863 -0.328,1.691 -0.672,2.488 -0.637,1.383 -1.672,2.336 -3.101,2.859 C 12.191,17 11,17.207 9.773,17.227 8.398,17.301 7.035,17.195 5.684,16.918 3.203,16.367 1.668,14.852 1.09,12.375 0.844,11.262 0.73,10.133 0.754,8.992 0.727,7.777 0.855,6.582 1.141,5.402 1.75,3.09 3.219,1.656 5.547,1.102 6.09,0.969 6.641,0.879 7.195,0.836 Z"
             style="fill:url(#linearGradient44915);fill-rule:evenodd;stroke:none"
             id="path44917" /></g></g></g><path
       d="M 14.207,7 C 14.148,6.293 13.727,5.406 12.863,5.375 10.449,5.211 7.594,5.168 5.137,5.375 4.371,5.457 3.852,6.387 3.793,7.094 c -0.121,1.265 -0.121,2.539 0,3.804 0.059,0.707 0.566,1.641 1.344,1.735 2.484,0.164 5.328,0.187 7.726,0 0.754,-0.129 1.285,-1.028 1.344,-1.735 0.121,-1.296 0.121,-2.601 0,-3.898 z M 7.676,10.875 V 7.078 l 3.308,1.899 z"
       style="fill:#ffffff;fill-opacity:1;fill-rule:nonzero;stroke:none"
       id="path44919" /></g><path
     id="circle501"
     style="stroke-width:0.572684;fill:#33a5ff;fill-opacity:1"
     d="M 4.7422528 3.045749 A 2.1212199 2.1212199 0 0 0 2.6209771 5.1670247 A 2.1212199 2.1212199 0 0 0 2.8261284 6.0759953 C 3.0324584 6.0878838 3.2393817 6.0882146 3.4472669 6.0770288 C 3.8801165 6.0699728 4.3005082 5.9968924 4.7086638 5.8589586 C 5.2127723 5.6744597 5.5779176 5.3386527 5.8026324 4.8507712 C 5.9239852 4.5696125 6.0027825 4.2772466 6.0398225 3.9728059 C 6.0567193 3.8209828 6.0685087 3.6693728 6.0759953 3.5175455 A 2.1212199 2.1212199 0 0 0 4.7422528 3.045749 z " /><path
     id="path842"
     style="fill:#ffffff;fill-rule:evenodd;stroke:none;stroke-width:0.352771"
     d="M 4.2875092 3.8027938 L 4.2875092 5.3184337 L 3.6813566 5.3184337 L 4.262705 5.9829796 C 4.4129968 5.9501754 4.5615227 5.9086838 4.7086638 5.8589586 C 5.0312417 5.7408983 5.2965991 5.5607196 5.504982 5.3184337 L 5.1969965 5.3184337 L 5.1969965 3.8027938 L 4.2875092 3.8027938 z " /></svg>
