<svg width="24" height="24" viewBox="0 0 24 24" fill="none" xmlns="http://www.w3.org/2000/svg">
<rect width="24" height="24" fill="#A4A4A4" fill-opacity="0.01"/>
<path d="M18.6667 7.25H5.33333C4.59695 7.25 4 7.78246 4 8.43927V15.5749C4 16.2317 4.59695 16.7642 5.33333 16.7642H18.6667C19.403 16.7642 20 16.2317 20 15.5749V8.43927C20 7.78246 19.403 7.25 18.6667 7.25Z" fill="#4D4D4D"/>
<path d="M18.6667 7.48785H5.33333C4.74423 7.48785 4.26667 7.90647 4.26667 8.42286V15.5913C4.26667 16.1077 4.74423 16.5263 5.33333 16.5263H18.6667C19.2558 16.5263 19.7333 16.1077 19.7333 15.5913V8.42286C19.7333 7.90647 19.2558 7.48785 18.6667 7.48785Z" fill="url(#paint0_linear_4_49)"/>
<path d="M10.0264 15.6641L13.8931 11.9279L17.1152 15.6641H10.0264Z" fill="#1A1A1A"/>
<path opacity="0.9" d="M9.73653 13.3933L4.65173 16.3061C4.8368 16.4417 5.07226 16.5263 5.3336 16.5263H15.2867L9.73653 13.3933Z" fill="#A4A4A4"/>
<path d="M8.7376 16.5263L9.73653 13.3936L15.2869 16.5263H8.7376Z" fill="#FAFBFB"/>
<path d="M13.8933 11.6406L12.6043 12.8619V16.5263H18.6667C18.9584 16.5263 19.2213 16.4241 19.4133 16.2588L13.8933 11.6406Z" fill="#B0B2B5"/>
<path d="M13.8928 11.6401L15.5043 16.5263H18.6667C18.9584 16.5263 19.2213 16.4241 19.4133 16.2588L13.8928 11.6401Z" fill="white"/>
<path d="M8.7376 16.5263L9.73653 13.3936L15.2869 16.5263H8.7376Z" fill="url(#paint1_linear_4_49)"/>
<path opacity="0.35" d="M12.2819 14.8304V16.5263H12.604V15.0124L12.2819 14.8304Z" fill="url(#paint2_linear_4_49)"/>
<defs>
<linearGradient id="paint0_linear_4_49" x1="11.4653" y1="8.20148" x2="11.4653" y2="15.3371" gradientUnits="userSpaceOnUse">
<stop stop-color="#A4A4A4"/>
<stop offset="1" stop-color="#FAFAFA"/>
</linearGradient>
<linearGradient id="paint1_linear_4_49" x1="8.7374" y1="14.9601" x2="15.2864" y2="14.9601" gradientUnits="userSpaceOnUse">
<stop stop-color="#FAFAFA"/>
<stop offset="1" stop-color="#FAFBFB" stop-opacity="0"/>
</linearGradient>
<linearGradient id="paint2_linear_4_49" x1="12.6029" y1="15.5216" x2="11.7171" y2="15.5216" gradientUnits="userSpaceOnUse">
<stop/>
<stop offset="1" stop-opacity="0"/>
</linearGradient>
</defs>
</svg>
