<svg xmlns="http://www.w3.org/2000/svg" width="22" height="22"><defs><style id="current-color-scheme" type="text/css">.ColorScheme-Highlight{color:#5294e2}</style></defs><path fill="currentColor" d="M11 3a8 8 0 0 0-8 8 8 8 0 0 0 3.938 6.878.556.556 0 0 0 .332.112.556.556 0 0 0 .556-.556.556.556 0 0 0-.266-.474A6.889 6.888 0 0 1 4.11 11 6.889 6.888 0 0 1 11 4.11 6.889 6.888 0 0 1 17.889 11a6.889 6.888 0 0 1-3.45 5.958l.002.003a.556.556 0 0 0-.284.484.556.556 0 0 0 .556.555.556.556 0 0 0 .325-.107A8 8 0 0 0 19 11a8 8 0 0 0-8-8zm0 2.222A5.778 5.777 0 0 0 5.222 11a5.778 5.777 0 0 0 2.846 4.969.556.556 0 0 0 .048.03.556.556 0 0 0 .267.069.556.556 0 0 0 .555-.556.556.556 0 0 0-.3-.493.556.556 0 0 0-.003-.002A4.667 4.666 0 0 1 6.333 11 4.667 4.666 0 0 1 11 6.333 4.667 4.666 0 0 1 15.667 11a4.667 4.666 0 0 1-2.338 4.037.556.556 0 0 0-.279.48.556.556 0 0 0 .556.556.556.556 0 0 0 .278-.075v.001a5.778 5.777 0 0 0 2.894-5A5.778 5.777 0 0 0 11 5.223zm0 2.444A3.333 3.333 0 0 0 7.667 11a3.333 3.333 0 0 0 1.625 2.857.556.556 0 0 0 .034.02.556.556 0 0 0 .01.007.556.556 0 0 0 .264.066.556.556 0 0 0 .555-.556.556.556 0 0 0-.283-.483A2.222 2.222 0 0 1 8.778 11 2.222 2.222 0 0 1 11 8.776 2.222 2.222 0 0 1 13.222 11a2.222 2.222 0 0 1-1.114 1.923l.001.001a.556.556 0 0 0-.269.476.556.556 0 0 0 .556.555.556.556 0 0 0 .268-.07 3.333 3.333 0 0 0 .008-.004.556.556 0 0 0 .045-.03A3.333 3.333 0 0 0 14.333 11 3.333 3.333 0 0 0 11 7.665zm0 2.445a.889.889 0 0 0-.889.889.889.889 0 0 0 .889.888.889.889 0 0 0 .889-.888.889.889 0 0 0-.889-.89z" style="color:#dedede"/></svg>