<svg width="24" height="24" viewBox="0 0 24 24" fill="none" xmlns="http://www.w3.org/2000/svg">
<rect width="24" height="24" fill="#A4A4A4" fill-opacity="0.01"/>
<path d="M19.7497 15.2202L17.3361 9.5758C16.8966 8.54253 16.2413 7.9565 15.4933 7.91796C14.753 7.8794 14.0359 8.39602 13.4884 9.38302L12.0233 12.0125C11.7149 12.5677 11.2754 12.8992 10.7973 12.9377C10.3115 12.9841 9.82571 12.7296 9.43244 12.2283L9.26279 12.0125C8.71532 11.3262 8.03676 10.9946 7.34278 11.064C6.6488 11.1335 6.05505 11.6115 5.6618 12.3904L4.3278 15.0506C3.84972 16.0144 3.89599 17.1325 4.45889 18.0424C5.02178 18.9523 6.00107 19.4998 7.0729 19.4998H16.9121C17.9454 19.4998 18.9092 18.9832 19.4797 18.1195C20.0658 17.2559 20.1584 16.1687 19.7497 15.2202Z" fill="url(#paint0_linear_4_24)"/>
<path d="M8.14562 8.71279C9.58504 8.71279 10.7519 7.54593 10.7519 6.10651C10.7519 4.66709 9.58504 3.50021 8.14562 3.50021C6.7062 3.50021 5.53932 4.66709 5.53932 6.10651C5.53932 7.54593 6.7062 8.71279 8.14562 8.71279Z" fill="url(#paint1_linear_4_24)"/>
<defs>
<linearGradient id="paint0_linear_4_24" x1="21.5997" y1="6.75756" x2="8.39373" y2="24.9976" gradientUnits="userSpaceOnUse">
<stop stop-color="#FAFAFA"/>
<stop offset="1" stop-color="#CCCCCC"/>
</linearGradient>
<linearGradient id="paint1_linear_4_24" x1="11.273" y1="2.97895" x2="5.01788" y2="9.23387" gradientUnits="userSpaceOnUse">
<stop stop-color="#FAFAFA"/>
<stop offset="1" stop-color="#CCCCCC"/>
</linearGradient>
</defs>
</svg>
