<svg width="24" height="24" viewBox="0 0 24 24" fill="none" xmlns="http://www.w3.org/2000/svg">
<rect width="24" height="24" fill="#A4A4A4" fill-opacity="0.01"/>
<path d="M8.03828 19.1998V17.994L9.24402 16.7691H6.25837C5.62424 16.7691 5.08931 16.5513 4.65359 16.1155C4.21786 15.6798 4 15.1449 4 14.5108V7.00837C4 6.37424 4.21786 5.83931 4.65359 5.40359C5.08931 4.96786 5.62424 4.75 6.25837 4.75H11.0813V7.00837H6.25837V14.5108H17.7416V12.2715H20V14.5108C20 15.1449 19.7821 15.6798 19.3464 16.1155C18.9107 16.5513 18.3758 16.7691 17.7416 16.7691H14.756L15.9617 17.994V19.1998H8.03828ZM14.4689 13.9366L10.1818 9.64952L11.7703 8.061L13.3397 9.63038V4.75H15.5981V9.63038L17.1675 8.061L18.756 9.64952L14.4689 13.9366Z" fill="url(#paint0_radial_4_36)"/>
<defs>
<radialGradient id="paint0_radial_4_36" cx="0" cy="0" r="1" gradientUnits="userSpaceOnUse" gradientTransform="translate(20.6172 4.75) rotate(139.185) scale(21.0019 23.2551)">
<stop stop-color="#FAFAFA"/>
<stop offset="1" stop-color="#CCCCCC"/>
</radialGradient>
</defs>
</svg>
