<svg width="24" height="24" viewBox="0 0 24 24" fill="none" xmlns="http://www.w3.org/2000/svg">
<rect width="24" height="24" fill="#A4A4A4" fill-opacity="0.01"/>
<path fill-rule="evenodd" clip-rule="evenodd" d="M12.0385 4.63442L15.9178 3.90955C16.4451 3.81101 16.9323 4.21564 16.9323 4.75211V7.31314C16.9323 7.7254 16.6389 8.07926 16.2337 8.1555L12.8747 8.7876C12.4827 8.85961 12.4131 8.93162 12.4131 9.33174V16.6538C12.4131 19.0065 10.4619 19.8947 9.17266 19.8947C7.70057 19.8947 6.64659 19.0145 6.64659 17.7661C6.64659 16.5418 7.47408 15.7015 9.25108 15.3654L10.6361 15.0934C10.9932 15.0293 11.1762 14.7893 11.1762 14.4212L11.1239 5.52269C11.1239 5.04253 11.4462 4.75447 12.0385 4.63442Z" fill="url(#paint0_linear_4_24)"/>
<defs>
<linearGradient id="paint0_linear_4_24" x1="20.582" y1="3.36182" x2="8.29806" y2="21.0147" gradientUnits="userSpaceOnUse">
<stop stop-color="#FAFAFA"/>
<stop offset="1" stop-color="#CCCCCC"/>
</linearGradient>
</defs>
</svg>
