<svg xmlns="http://www.w3.org/2000/svg" width="22" height="22"><path fill="currentColor" d="M11 3a8 8 0 0 0-.152.006l-.002.002a8 8 0 0 0-.036.002 8.17 8.17 0 0 0-.029-.002 8 8 0 0 0-.097.008 8 8 0 0 0-.674.052 8 8 0 0 0-.102.016 8 8 0 0 0-.664.12 8 8 0 0 0-.158.038 8 8 0 0 0-.635.184 8 8 0 0 0-.076.027 8 8 0 0 0-.686.272 8 8 0 0 0-.015.007 8 8 0 0 0-.69.356 8 8 0 0 0-.033.021 8 8 0 0 0-.642.42 8 8 0 0 0-.014.01 8 8 0 0 0-.592.477 8 8 0 0 0-.072.066 8 8 0 0 0-.5.492 8 8 0 0 0-.063.07 8 8 0 0 0-.459.555 8 8 0 0 0-.025.037 8 8 0 0 0-.412.61 8 8 0 0 0-.06.103 8 8 0 0 0-.315.586 8 8 0 0 0-.063.139 8 8 0 0 0-.256.623 8 8 0 0 0-.023.068 8 8 0 0 0-.203.67 8 8 0 0 0-.065.268l.004.002a8 8 0 0 0-.017.084 8 8 0 0 0-.094.552 8 8 0 0 0-.033.272 8 8 0 0 0-.041.617A8 8 0 0 0 3 11a8 8 0 0 0 4.586 7.225 8 8 0 0 0 .012.005 8 8 0 0 0 .388.174v.002a8 8 0 0 0 .01.004 8 8 0 0 0 .617.217 8 8 0 0 0 .155.05 8 8 0 0 0 .539.132 8 8 0 0 0 .257.056 8 8 0 0 0 .514.073 8 8 0 0 0 .277.033A8 8 0 0 0 11 19a8 8 0 0 0 .662-.032v-.002a8 8 0 0 0 .014 0 8 8 0 0 0 .736-.1 8 8 0 0 0 .057-.008 8 8 0 0 0 .011-.002 8 8 0 0 0 .766-.185 8 8 0 0 0 3.654-2.283 8 8 0 0 0 .02-.022 8 8 0 0 0 .2-.213 8 8 0 0 0 .001-.004.925.925 0 0 0-.016.006A8 8 0 0 0 19 11a8 8 0 0 0-.262-1.99h.004a8 8 0 0 0-.021-.065 8 8 0 0 0-.004-.013 8 8 0 0 0-.194-.621 8 8 0 0 0-.043-.12 8 8 0 0 0-1.101-2.005 8 8 0 0 0-.03-.037 8 8 0 0 0-.023-.03 8 8 0 0 0-1.035-1.107 8 8 0 0 0-.047-.04 8 8 0 0 0-.01-.009 8 8 0 0 0-.564-.447 8 8 0 0 0-.07-.051 8 8 0 0 0-.577-.367 8 8 0 0 0-.09-.053A8 8 0 0 0 11 3zm0 1a7 7 0 0 1 .023.002c-.004.122-.023.241-.023.365 0 .986.126 1.94.34 2.861a7.462 7.462 0 0 1-4.018 1.725c.43-1.821 1.29-3.47 2.463-4.846a7 7 0 0 1 .494-.062 7 7 0 0 1 .213-.026A7 7 0 0 1 11 4zm1.018.082a7 7 0 0 1 .015.004 7 7 0 0 1 .668.133 7 7 0 0 1 .002 0 7 7 0 0 1 .002 0 7 7 0 0 1 .668.205 7 7 0 0 1 .024.008 7.52 7.52 0 0 1-1.21 1.955A11.68 11.68 0 0 1 12 4.367c0-.096.015-.189.018-.285zm-3.862.531a12.441 12.441 0 0 0-1.873 4.375 7.463 7.463 0 0 1-1.88-.302 7 7 0 0 1 .257-.633 7 7 0 0 1 .02-.041 7 7 0 0 1 .31-.586A7 7 0 0 1 5 7.41a7 7 0 0 1 .383-.572 7 7 0 0 1 .441-.537 7 7 0 0 1 .008-.01 7 7 0 0 1 .483-.48 7 7 0 0 1 .023-.02 7 7 0 0 1 .516-.42 7 7 0 0 1 .03-.021 7 7 0 0 1 .56-.37 7 7 0 0 1 .015-.007 7 7 0 0 1 .611-.32 7 7 0 0 1 .086-.04zm6.149.219a7 7 0 0 1 .006.004 7 7 0 0 1 .593.357 7 7 0 0 1 .5.373 7 7 0 0 1 .06.045 7 7 0 0 1 .007.006 7 7 0 0 1 .451.412 7 7 0 0 1 .059.055 7 7 0 0 1 .003.006 7 7 0 0 1 .336.373 7 7 0 0 1 .14.16 7 7 0 0 1 .259.354 7 7 0 0 1 .15.212 7 7 0 0 1 .293.502 7 7 0 0 1 .049.084 7 7 0 0 1 .002.006 7 7 0 0 1 .238.518 7 7 0 0 1 .051.113 7 7 0 0 1 .004.012 7 7 0 0 1 .156.457 7 7 0 0 1 .076.226 8.46 8.46 0 0 0-3.845 1.614 11.558 11.558 0 0 1-1.44-3.164 8.504 8.504 0 0 0 1.852-2.725zm-2.682 3.436c.36 1.109.866 2.152 1.502 3.103a8.486 8.486 0 0 0-2.457 4.451 11.54 11.54 0 0 1-3.228-1.054A11.633 11.633 0 0 1 7 11.633c0-.568.055-1.12.133-1.666a8.444 8.444 0 0 0 4.49-1.7zM4.135 9.635a8.23 8.23 0 0 0 1.986.345A12.659 12.659 0 0 0 6 11.633c0 .84.088 1.659.244 2.453a11.536 11.536 0 0 1-2.127-1.826 7 7 0 0 1 0-.002 7 7 0 0 1-.068-.502 7 7 0 0 1-.028-.223A7 7 0 0 1 4 11a7 7 0 0 1 .035-.7 7 7 0 0 1 .1-.665zm13.797.45a7 7 0 0 1 .058.665A7 7 0 0 1 18 11a7 7 0 0 1-.707 3.043 7 7 0 0 1-.023.053 11.718 11.718 0 0 1-2.797-2.569 7.464 7.464 0 0 1 3.459-1.441zm-4.213 2.09a12.682 12.682 0 0 0 3.06 2.774 7 7 0 0 1-.002.004 7 7 0 0 1-.283.371c-1.21.427-2.504.676-3.861.676-.328 0-.65-.022-.97-.049a7.47 7.47 0 0 1 2.056-3.775zM4.82 14.278c.555.445 1.147.844 1.777 1.188.149.468.33.921.531 1.363a7 7 0 0 1-.006-.004 7 7 0 0 1-.53-.392 7 7 0 0 1-.03-.024 7 7 0 0 1-.514-.467 7 7 0 0 1-.469-.52 7 7 0 0 1-.414-.562 7 7 0 0 1-.346-.582zm3.056 1.787a12.52 12.52 0 0 0 2.658.746 8.51 8.51 0 0 0-.035.69c0 .16.012.318.022.477a7 7 0 0 1-.01-.002 7 7 0 0 1-1.852-.387 7 7 0 0 1-.008-.002 10.87 10.87 0 0 1-.775-1.522zm7.06.715a7 7 0 0 1-.003.004 7 7 0 0 1-.582.354 7 7 0 0 1-.012.007 7 7 0 0 1-.006.002 7 7 0 0 1-.533.26 7 7 0 0 1-.131.057 7 7 0 0 1-.514.187 7 7 0 0 1-.144.047 7 7 0 0 1-.483.125 7 7 0 0 1-.216.05 7 7 0 0 1-.45.065 7 7 0 0 1-.334.042c-.012-.16-.029-.317-.029-.479 0-.187.014-.37.027-.555.365.032.733.055 1.106.055.789 0 1.559-.077 2.305-.22z" style="color:#dedede"/></svg>