<?xml version="1.0" encoding="UTF-8" standalone="no"?>
<svg
   xmlns:dc="http://purl.org/dc/elements/1.1/"
   xmlns:cc="http://creativecommons.org/ns#"
   xmlns:rdf="http://www.w3.org/1999/02/22-rdf-syntax-ns#"
   xmlns:svg="http://www.w3.org/2000/svg"
   xmlns="http://www.w3.org/2000/svg"
   xmlns:sodipodi="http://sodipodi.sourceforge.net/DTD/sodipodi-0.dtd"
   xmlns:inkscape="http://www.inkscape.org/namespaces/inkscape"
   width="64"
   height="64"
   version="1.1"
   id="svg1367"
   sodipodi:docname="usb-creator-gtk.svg"
   inkscape:version="0.92.4 (5da689c313, 2019-01-14)">
  <metadata
     id="metadata1371">
    <rdf:RDF>
      <cc:Work
         rdf:about="">
        <dc:format>image/svg+xml</dc:format>
        <dc:type
           rdf:resource="http://purl.org/dc/dcmitype/StillImage" />
        <dc:title></dc:title>
      </cc:Work>
    </rdf:RDF>
  </metadata>
  <sodipodi:namedview
     pagecolor="#ffffff"
     bordercolor="#666666"
     borderopacity="1"
     objecttolerance="10"
     gridtolerance="10"
     guidetolerance="10"
     inkscape:pageopacity="0"
     inkscape:pageshadow="2"
     inkscape:window-width="1366"
     inkscape:window-height="706"
     id="namedview1369"
     showgrid="false"
     inkscape:zoom="4.9166667"
     inkscape:cx="24"
     inkscape:cy="24"
     inkscape:window-x="-8"
     inkscape:window-y="-8"
     inkscape:window-maximized="1"
     inkscape:current-layer="svg1367" />
  <defs
     id="defs1335">
    <linearGradient
       id="a"
       y1="543.79999"
       y2="515.79999"
       x2="0"
       gradientUnits="userSpaceOnUse"
       gradientTransform="matrix(1.125,0,0,1,-51.07,0)">
      <stop
         stop-color="#1d1e1e"
         id="stop1315" />
      <stop
         offset="1"
         stop-color="#44484c"
         id="stop1317" />
    </linearGradient>
    <linearGradient
       id="b"
       y1="525.79999"
       y2="503.79999"
       x2="0"
       gradientUnits="userSpaceOnUse">
      <stop
         stop-color="#c6cdd1"
         id="stop1320" />
      <stop
         offset="1"
         stop-color="#e0e5e7"
         id="stop1322" />
    </linearGradient>
    <linearGradient
       id="c"
       y1="14"
       x1="5"
       y2="36"
       x2="27"
       gradientUnits="userSpaceOnUse">
      <stop
         stop-color="#383e51"
         id="stop1325" />
      <stop
         offset="1"
         stop-color="#655c6f"
         stop-opacity="0"
         id="stop1327" />
    </linearGradient>
    <linearGradient
       id="d"
       y1="543.79999"
       y2="515.79999"
       gradientUnits="userSpaceOnUse"
       x2="0"
       gradientTransform="matrix(1.16129,0,0,1,-65.38,0)">
      <stop
         stop-color="#197cf1"
         id="stop1330" />
      <stop
         offset="1"
         stop-color="#20bcfa"
         id="stop1332" />
    </linearGradient>
  </defs>
  <g
     transform="matrix(1.25,0,0,1.375,-479.66164,-687.72501)"
     id="g1365">
    <g
       id="g1343"
       style="stroke-width:2.79999995;stroke-opacity:0.55">
      <rect
         width="31"
         x="392.57001"
         y="525.79999"
         height="18"
         id="rect1337"
         style="fill:url(#a)" />
      <rect
         width="32"
         x="392.57001"
         y="542.79999"
         height="1"
         id="rect1339"
         style="fill:#202224" />
      <rect
         width="26"
         x="395.57001"
         y="503.79999"
         height="22"
         id="rect1341"
         style="fill:url(#b)" />
    </g>
    <path
       d="m 22,11 -7,7 24,24.25 V 26.002 h -2 v -11 l -4,-4 h -7 v 4 z"
       transform="translate(384.57,499.8)"
       id="path1345"
       inkscape:connector-curvature="0"
       style="opacity:0.2;fill:url(#c);fill-rule:evenodd" />
    <g
       id="g1361"
       style="stroke-width:2.79999995;stroke-opacity:0.55">
      <g
         id="g1351"
         style="fill:#202224">
        <rect
           width="7"
           x="399.57001"
           y="510.79999"
           height="7"
           id="rect1347" />
        <rect
           width="7"
           x="410.57001"
           y="510.79999"
           height="7"
           id="rect1349" />
      </g>
      <g
         id="g1357"
         style="fill:#fdbc4a">
        <rect
           width="3"
           x="401.57001"
           y="510.79999"
           height="7"
           id="rect1353" />
        <rect
           width="3"
           x="412.57001"
           y="510.79999"
           height="7"
           id="rect1355" />
      </g>
      <rect
         width="32"
         x="392.57001"
         y="525.79999"
         height="18"
         id="rect1359"
         style="fill:url(#d)" />
    </g>
    <path
       d="M 22.5,32 A 0.5,0.5 0 0 0 22,32.5 0.5,0.5 0 0 0 22.5,33 0.5,0.5 0 0 0 23,32.5 0.5,0.5 0 0 0 22.5,32 m 2.5,0 -1,1 1,1 -1,1 1,1 2,-2 z m -3.5,2.09961 A 0.5,0.5 0 0 0 21,34.599609 0.5,0.5 0 0 0 21.5,35.09961 0.5,0.5 0 0 0 22,34.599609 0.5,0.5 0 0 0 21.5,34.09961 M 23,36 a 0.999987,0.999987 0 0 0 -1,1 0.999987,0.999987 0 0 0 1,1 0.999987,0.999987 0 0 0 1,-1 0.999987,0.999987 0 0 0 -1,-1"
       transform="translate(384.57,499.8)"
       id="path1363"
       inkscape:connector-curvature="0"
       style="fill:#085ba7;fill-rule:evenodd" />
  </g>
</svg>
