<svg width="22" height="22" version="1.1" xmlns="http://www.w3.org/2000/svg">
 <style id="current-color-scheme" type="text/css">.ColorScheme-Contrast{color:#dedede}</style>
 <path class="ColorScheme-Contrast" d="m13.578 3.242c-1.2007 2.165-2.4013 4.33-3.602 6.495h3.582c-1.4253 2.05-2.8507 4.1-4.276 6.15 0.45267 0.047 0.90533 0.094 1.358 0.141-0.88567 0.71733-1.7713 1.4347-2.657 2.152 3.1017 1.3619 7.0571 0.29855 9.0181-2.4785 1.9244-2.4882 1.9477-6.1948 0.09042-8.7259-0.65971-0.9713-1.587-1.7242-2.5857-2.319-0.35008-0.43935-0.61184-0.94819-0.92781-1.4147zm-2.624 0.458c-2.1768 0.11997-4.3625 1.0223-5.7194 2.7802-2.1514 2.6219-2.3056 6.7116-0.16163 9.3865 0.75835 0.97064 1.7651 1.7839 2.884 2.2746 0.15263-1.0612 0.20063-2.1647 0.30806-3.2444 0.24483 0.22705 0.52522 0.75831 0.74888 0.80417 0.82637-1.6547 1.6527-3.3094 2.4791-4.9642h-3.746c1.069-2.3457 2.138-4.6913 3.207-7.037zm-1.738 1.404-3.024 6.633h3.684c-0.36767 0.73633-0.73533 1.4727-1.103 2.209-0.43233-0.51667-0.86467-1.0333-1.297-1.55-0.112 1.298-0.224 2.596-0.336 3.894-2.1851-1.5603-3.3047-4.5619-2.3213-7.1216 0.6953-1.9583 2.3948-3.5185 4.3973-4.0644zm4.357 0.182c2.9641 1.2205 4.6202 4.8245 3.6143 7.865-0.75151 2.5164-3.1123 4.4502-5.7508 4.5957-0.66838 0.17605-1.4916-0.10011-0.616-0.55748 0.74651-0.63774 1.493-1.2755 2.2395-1.9132-0.663-0.069-1.326-0.138-1.989-0.207 1.4667-2.1107 2.9333-4.2213 4.4-6.332h-3.801c0.63433-1.1503 1.2687-2.3007 1.903-3.451z" style="-inkscape-stroke:hairline;fill:currentColor;vector-effect:non-scaling-stroke"/>
</svg>
