<svg xmlns="http://www.w3.org/2000/svg" width="16" height="16">
<defs>
<style id="current-color-scheme" type="text/css">
.ColorScheme-Text{color:#dedede}
</style>
</defs>
<g class="ColorScheme-Text" style="fill:currentColor">
<path d="M14 .007a1 1 0 0 0-1 1v1H1.51c-.822 0-1.5.678-1.5 1.5v8.994c0 .823.678 1.5 1.5 1.5H13v2.006h1v-4h2l.01-7.003-2.005.003v-3.5s0-.5.5-.5h1.5v-1zm-12.49 3H13v9.994H1.51a.49.49 0 0 1-.5-.5V3.507c0-.286.214-.5.5-.5m12.5 2.994h1v1h-1zm0 2h1v1h-1zm0 2h1v1h-1z"/>
<path d="M9.7 3.987a.4.4 0 0 0-.178.01l-4.09 1.124c-.252.069-.455.348-.455.625v4.261a2.2 2.2 0 0 0-.869.04c-.803.196-1.288.774-1.084 1.29.203.517 1.019.777 1.822.58.685-.168 1.155-.62 1.13-1.086V6.817l3-.823v3.013a2.2 2.2 0 0 0-.87.04c-.803.196-1.288.774-1.084 1.29.203.517 1.019.777 1.822.58.666-.164 1.132-.597 1.13-1.053V4.372c0-.207-.115-.354-.278-.384z"/>
</g>
</svg>
