<svg xmlns="http://www.w3.org/2000/svg" viewBox="0 0 16 16">
<style id="current-color-scheme" type="text/css">
.ColorScheme-Contrast{color:#dedede}
</style>
<path d="M4 1c-1.108 0-2 .892-2 2v10c0 1.108.892 2 2 2h8c1.108 0 2-.892 2-2V5l-4-4zm0 1h5.586L13 5.414V13c0 .554-.446 1-1 1H4c-.554 0-1-.446-1-1V3c0-.554.446-1 1-1m1 2c-.554 0-1 .446-1 1v2.293L5.293 6H6V4zm2 0v2h2V4zm3 0v2h.707L12 7.293V5.826L10.174 4zM5.707 7l-1 1H4v1h.707l1 1h4.586l1-1H12V8h-.707l-1-1zM4 9.707V12c0 .554.446 1 1 1h1v-2h-.707zm8 0L10.707 11H10v2h1c.554 0 1-.446 1-1zM7 11v2h2v-2z" class="ColorScheme-Contrast" style="fill:currentColor"/>
</svg>
