<?xml version='1.0' encoding='ASCII'?>
<svg xmlns="http://www.w3.org/2000/svg" width="16" height="16">
<defs><style id="current-color-scheme" type="text/css">.ColorScheme-Contrast{color:#dedede; fill:currentColor;}</style></defs><g class="ColorScheme-Contrast" style="fill:currentColor" fill="currentColor">
<path d="M15 6.588v2.824A1.5 1.5 0 0 0 16 8a1.5 1.5 0 0 0-1-1.412" class="ColorScheme-Contrast" fill="currentColor" style="fill:currentColor"/>
<rect width="10" height="4" x="2" y="6" ry="0" class="ColorScheme-Contrast" fill="currentColor" style="fill:currentColor"/>
<path d="M2 4C.892 4 0 4.892 0 6v4c0 1.108.892 2 2 2h10c1.108 0 2-.892 2-2V6c0-1.108-.892-2-2-2zm0 1h10c.554 0 1 .446 1 1v4c0 .554-.446 1-1 1H2c-.554 0-1-.446-1-1V6c0-.554.446-1 1-1" class="ColorScheme-Contrast" fill="currentColor" style="fill:currentColor"/>
</g>
</svg>
