<svg width="16" height="16">
<defs>
<style id="current-color-scheme" type="text/css">
.ColorScheme-Text{color:#fcfcfc}
</style>
</defs>
<g class="ColorScheme-Text" style="fill:currentColor">
<path d="M8 1a6 6 0 0 0-6 6 6 6 0 0 0 6 6 6 6 0 0 0 6-6 6 6 0 0 0-6-6m0 1a5 5 0 0 1 5 5 5 5 0 0 1-5 5 5 5 0 0 1-5-5 5 5 0 0 1 5-5M5 14c-1.108 0-2 .892-2 2h1c0-.554.446-1 1-1h6c.554 0 1 .446 1 1h1c0-1.108-.892-2-2-2z"/>
<path d="M7.95 4A3 3 0 0 0 5 7a3 3 0 0 0 3 3 3 3 0 0 0 3-3 3 3 0 0 0-3-3zM8 6a1 1 0 0 1 1 1 1 1 0 0 1-1 1 1 1 0 0 1-1-1 1 1 0 0 1 1-1"/>
</g>
</svg>
