<svg xmlns="http://www.w3.org/2000/svg" width="16" height="16">
<style id="current-color-scheme" type="text/css">
.ColorScheme-Text{color:#fcfcfc}
</style>
<path d="M7.063 1c-.455.05-.884.221-1.25.5C5.325 1.871 5 2.455 5 3.188V7H2.5c-.277 0-.5.222-.5.496v7.01c0 .274.223.494.5.494h6c.277 0 .5-.22.5-.494v-7.01A.497.497 0 0 0 8.5 7H6V3.188c0-.45.172-.704.438-.907.266-.202.663-.3 1.062-.281s.784.154 1.063.406c.277.252.468.585.468 1.125 0 2.166 1.464 3.51 3 3.47.857-.023 1.69-.477 2.25-1.313l-.562-1C13.344 5.604 12.65 5.983 12 6c-.96.025-1.969-.73-1.969-2.469 0-.792-.336-1.444-.812-1.875-.476-.43-1.08-.627-1.688-.656-.15-.007-.318-.017-.469 0M14 3v.125l.781 1.375.031-.125zm0 .344-.03.312.718 1.219a3 3 0 0 0 .062-.187zm-.062.5c-.015.09-.042.166-.06.25l.655 1.125c.03-.061.067-.124.094-.188zm-.094.437c-.024.09-.065.17-.094.25l.594 1.031c.04-.066.088-.118.125-.187zM3 8h5v6H3z" class="ColorScheme-Text" style="fill:currentColor"/>
</svg>
