<svg xmlns="http://www.w3.org/2000/svg" width="16" height="16">
<path fill="#fcfcfc" d="M4.585 6.901V5.48h.386v1.408q0 .333.13.5t.39.167q.312 0 .493-.2.182-.199.182-.543V5.48h.386v2.35h-.386v-.362q-.14.214-.327.32-.185.102-.43.102-.405 0-.615-.252-.21-.251-.21-.736m4.265-1.353v.365q-.164-.084-.34-.126t-.365-.042q-.287 0-.432.088-.143.088-.143.264 0 .134.103.212.103.075.413.145l.132.029q.411.088.583.25.174.159.174.446 0 .327-.26.518-.258.191-.71.191-.19 0-.395-.038-.203-.035-.43-.109v-.398q.214.111.422.168.207.054.41.054.273 0 .42-.092.147-.095.147-.264 0-.158-.107-.242-.105-.083-.463-.161l-.135-.031q-.358-.076-.518-.231-.16-.157-.16-.43 0-.331.236-.512.235-.18.667-.18.214 0 .402.031.19.032.348.095m2.431 1.108q0-.426-.176-.667-.174-.243-.48-.243-.307 0-.483.243-.174.241-.174.667t.174.669q.176.241.483.241.306 0 .48-.241.176-.243.176-.669m-1.313-.82q.122-.21.306-.31.187-.103.445-.103.428 0 .694.34.269.34.269.893 0 .554-.269.893-.266.34-.694.34-.258 0-.445-.1-.184-.103-.306-.313v.352h-.388V4.566h.388z"/>
<g fill="currentColor" class="ColorScheme-Text" color="#fcfcfc">
<path d="M6 2C4.5 2 3.458 3.037 3.068 4.033L.2 11.518l-.008.023-.058.15h.012A2.5 2.5 0 0 0 0 12.5C0 13.885 1.115 15 2.5 15h11c1.385 0 2.5-1.115 2.5-2.5 0-.285-.057-.554-.144-.809h.011l-.058-.15-.004-.016-.004-.007-2.87-7.485C12.544 3.037 11.5 2 10.002 2H8zm0 1h4c1.108 0 1.709.65 2 1.397l2.188 5.71A2.5 2.5 0 0 0 13.5 10h-11c-.24 0-.468.045-.687.107L4 4.397C4.292 3.65 4.892 3 6 3m-3.5 8h11c.831 0 1.5.669 1.5 1.5s-.669 1.5-1.5 1.5h-11c-.831 0-1.5-.669-1.5-1.5S1.669 11 2.5 11"/>
<circle cx="12.5" cy="12.5" r=".5"/>
<circle cx="10.5" cy="12.5" r=".5"/>
<circle cx="8.5" cy="12.5" r=".5"/>
</g>
</svg>
