<svg xmlns="http://www.w3.org/2000/svg" width="16" height="16">
<defs>
<style id="current-color-scheme" type="text/css">
.ColorScheme-Text{color:#dedede}
</style>
</defs>
<path d="M6.5 1.004a4.5 4.5 0 0 0-4.5 4.5v6c0 2.484 2.016 4.5 4.5 4.5h2c2.484 0 4.5-2.016 4.5-4.5v-6c0-2.484-2.016-4.5-4.5-4.5zm0 1H7v4H3v-.5c0-1.948 1.553-3.5 3.5-3.5m1.5 0h.5c1.948 0 3.5 1.552 3.5 3.5v.5H8zm-5 5h9v4.5c0 1.948-1.552 3.5-3.5 3.5h-2a3.48 3.48 0 0 1-3.5-3.5z" class="ColorScheme-Text" style="fill:currentColor"/>
</svg>
