<svg xmlns="http://www.w3.org/2000/svg" width="16" height="16">
<path fill="#fcfcfc" d="M1254.5 83.004c-.822 0-1.5.678-1.5 1.5v10c0 .822.678 1.5 1.5 1.5h12c.823 0 1.5-.678 1.5-1.5v-8.049l.729-.732a1.02 1.02 0 0 0 .281-.72c0-.553-.446-1-1-1-.034 0-.064.015-.098.019a1.5 1.5 0 0 0-1.412-1.018zm0 1h1.5V87h-2v-2.496c0-.286.215-.5.5-.5m2.51 0h9.49c.286 0 .5.214.5.5v.07l-5.99 5.961v1.469h1.469l4.521-4.545v7.045c0 .286-.214.5-.5.5h-9.49zM1254 88h2v3h-2zm0 4h2v3.004h-1.5a.49.49 0 0 1-.5-.5z" color="#000" font-family="sans-serif" font-weight="400" overflow="visible" style="line-height:normal;font-variant-ligatures:normal;font-variant-position:normal;font-variant-caps:normal;font-variant-numeric:normal;font-variant-alternates:normal;font-feature-settings:normal;text-indent:0;text-align:start;text-decoration-line:none;text-decoration-style:solid;text-decoration-color:#000;text-transform:none;text-orientation:mixed;shape-padding:0;isolation:auto;mix-blend-mode:normal" transform="translate(-1253 -80.993)"/>
</svg>
