<svg xmlns="http://www.w3.org/2000/svg" width="16" height="16">
<defs>
<style id="current-color-scheme" type="text/css">
.ColorScheme-Contrast{color:#dedede}
</style>
</defs>
<path d="M1.5 1.011c-.822 0-1.5.678-1.5 1.5v11c0 .822.678 1.5 1.5 1.5h12c.823 0 1.5-.678 1.5-1.5v-11c0-.822-.677-1.5-1.5-1.5zm0 1h12c.286 0 .5.214.5.5v8.496H1V2.511c0-.286.215-.5.5-.5M1 12.007h6.01v2.004H1.5a.49.49 0 0 1-.5-.5zm7.01 0H14v1.504c0 .286-.214.5-.5.5H8.01z" class="ColorScheme-Contrast" style="fill:currentColor"/>
</svg>
