<svg xmlns="http://www.w3.org/2000/svg" width="16" height="16">
<style id="current-color-scheme" type="text/css">
.ColorScheme-Contrast{color:#dedede}
</style>
<path stroke-linecap="round" stroke-linejoin="round" stroke-width="2" d="M9.75 0q.781 0 1.46.297.688.289 1.196.797t.797 1.195q.297.68.297 1.461v6.75q0 .758-.195 1.46-.196.704-.555 1.321-.36.61-.86 1.11t-1.117.859q-.609.36-1.312.555T8 16t-1.46-.195-1.321-.555q-.61-.36-1.11-.86t-.859-1.109q-.36-.617-.555-1.32T2.5 10.5V3.75q0-.781.29-1.46.296-.688.804-1.196T4.78.297Q5.47 0 6.25 0zm2.75 3.75q0-.57-.219-1.07-.21-.5-.586-.875t-.875-.586Q10.32 1 9.75 1H8.5v5h-1V1H6.25q-.57 0-1.07.219-.5.21-.875.586t-.594.875q-.211.5-.211 1.07v6.75q0 .93.352 1.75.359.82.968 1.43t1.43.968Q7.07 15 8 15t1.75-.352q.82-.359 1.43-.968t.96-1.43q.36-.82.36-1.75z" class="ColorScheme-Contrast" style="fill:currentColor" transform="translate(-.5)"/>
</svg>
