<svg xmlns="http://www.w3.org/2000/svg" width="16" height="16">
<path fill="#fcfcfc" d="M8 5C6.32 5 5 6.32 5 8s1.32 3 3 3 3-1.32 3-3-1.32-3-3-3m.006 1.006a2 2 0 0 1 1.996 1.996 2 2 0 0 1-1.996 1.996c-1.098 0-2.014-.897-2.014-1.996s.916-1.996 2.014-1.996" color="#fcfcfc" style="font-feature-settings:normal;font-variant-alternates:normal;font-variant-caps:normal;font-variant-ligatures:normal;font-variant-numeric:normal;font-variant-position:normal;isolation:auto;mix-blend-mode:normal;shape-padding:0;text-decoration-color:#000;text-decoration-line:none;text-decoration-style:solid;text-indent:0;text-orientation:mixed;text-transform:none"/>
<path fill="#fcfcfc" d="M8 0a8 8 0 0 0-8 8 8 8 0 0 0 8 8 8 8 0 0 0 8-8 8 8 0 0 0-8-8m-.094 1H8a7 7 0 0 1 7 7 7 7 0 0 1-7 7 7 7 0 0 1-7-7 7 7 0 0 1 6.906-7"/>
</svg>
