<svg xmlns="http://www.w3.org/2000/svg" viewBox="0 0 16 16">
<defs>
<style id="current-color-scheme" type="text/css">
.ColorScheme-Text{color:#fcfcfc}
</style>
</defs>
<path fill="#fdbc4b" d="M8 5C6.32 5 5 6.32 5 8s1.32 3 3 3 3-1.32 3-3-1.32-3-3-3m.006 1.006a2 2 0 0 1 1.996 1.996 2 2 0 0 1-1.996 1.996c-1.098 0-2.014-.897-2.014-1.996s.916-1.996 2.014-1.996"/>
<path d="M8 0a8 8 0 0 0-8 8 8 8 0 0 0 8 8 8 8 0 0 0 8-8 8 8 0 0 0-8-8m-.094 1H8a7 7 0 0 1 7 7 7 7 0 0 1-7 7 7 7 0 0 1-7-7 7 7 0 0 1 6.906-7" class="ColorScheme-Text" style="fill:currentColor"/>
</svg>
