<svg xmlns="http://www.w3.org/2000/svg" width="16" height="16">
<style id="current-color-scheme" type="text/css">
.ColorScheme-Contrast{color:#dedede}
</style>
<path d="M5 0C3.892 0 3 .892 3 2v12c0 1.108.892 2 2 2h6c1.108 0 2-.892 2-2V2c0-1.108-.892-2-2-2zm0 1h6c.554 0 1 .446 1 1v12c0 .554-.446 1-1 1H5c-.554 0-1-.446-1-1V2c0-.554.446-1 1-1" class="ColorScheme-Contrast" style="fill:currentColor"/>
<circle cx="8" cy="13" r="1" class="ColorScheme-Contrast" style="fill:currentColor"/>
<rect width="8" height="1" x="4" y="7" class="ColorScheme-Contrast" rx="0" ry="0" style="fill:currentColor"/>
<path d="M5 2v4h6V2zm1 1h4v2H6z" class="ColorScheme-Contrast" style="fill:currentColor"/>
</svg>
