<svg xmlns="http://www.w3.org/2000/svg" viewBox="0 0 16 16">
<defs id="defs3051">
<style id="current-color-scheme" type="text/css">
.ColorScheme-Contrast{color:#dedede}
</style>
</defs>
<path d="M8 5.692a7.3 7.3 0 0 0-5.592 2.613.73.73 0 1 0 1.118.94A5.84 5.84 0 0 1 8 7.152c1.725 0 3.356.762 4.473 2.091a.73.73 0 0 0 1.03.09.73.73 0 0 0 .088-1.03A7.3 7.3 0 0 0 8 5.693m0 3.214c-1.296 0-2.519.57-3.356 1.566a.73.73 0 0 0 1.12.94 2.915 2.915 0 0 1 4.472 0 .73.73 0 0 0 1.029.09.73.73 0 0 0 .09-1.03A4.37 4.37 0 0 0 8 8.906m-.063 2.773c-.571.055-1.12.482-1.14 1.118a1.203 1.203 0 0 0 2.405 0c-.101-.854-.693-1.172-1.265-1.118" class="ColorScheme-Contrast" style="fill:currentColor;fill-opacity:1;stroke:none"/>
<path d="M8 2.597A10.21 10.21 0 0 0 .17 6.256a.73.73 0 0 0 1.12.94A8.75 8.75 0 0 1 8 4.058a8.75 8.75 0 0 1 6.71 3.138c.144.171.35.26.559.26a.73.73 0 0 0 .56-1.2 10.21 10.21 0 0 0-7.83-3.659" class="ColorScheme-Contrast" style="fill:currentColor;fill-opacity:.5;stroke:none"/>
</svg>
