<svg xmlns="http://www.w3.org/2000/svg" viewBox="0 0 16 16">
<defs id="defs3051">
<style id="current-color-scheme" type="text/css">
.ColorScheme-Text{color:#dedede}
</style>
</defs>
<path d="M8 .5C3.877.5.5 4.032.5 8.344c0 3.184 1.826 5.93 4.407 7.156l.364-.84c-2.272-1.08-3.889-3.501-3.889-6.316C1.382 4.536 4.36 1.423 8 1.423s6.618 3.113 6.618 6.921c0 2.726-1.534 5.106-3.724 6.23l.389.827c2.486-1.275 4.217-3.97 4.217-7.057C15.5 4.032 12.123.5 8 .5m0 2.307c-2.927 0-5.294 2.476-5.294 5.537 0 2.261 1.3 4.178 3.128 5.034l.361-.84c-1.524-.714-2.607-2.302-2.607-4.194C3.588 5.777 5.545 3.73 8 3.73s4.412 2.047 4.412 4.614c0 1.805-1.005 3.399-2.488 4.153l.387.83c1.781-.907 2.983-2.82 2.983-4.983 0-3.061-2.367-5.537-5.294-5.537m0 2.307c-1.696 0-3.088 1.456-3.088 3.23 0 1.326.722 2.473 1.812 2.961l.346-.848c-.763-.342-1.276-1.132-1.276-2.113 0-1.27.99-2.307 2.206-2.307s2.206 1.036 2.206 2.307c0 .928-.512 1.689-1.257 2.078l.396.826a3.27 3.27 0 0 0 1.743-2.904c0-1.774-1.392-3.23-3.088-3.23m0 2.307a.882.923 0 0 0-.882.923.882.923 0 0 0 .882.923.882.923 0 0 0 .882-.923A.882.923 0 0 0 8 7.421" class="ColorScheme-Text" style="fill:currentColor"/>
</svg>
