<svg xmlns="http://www.w3.org/2000/svg" viewBox="0 0 16 16">
<defs>
<style id="current-color-scheme" type="text/css">
.ColorScheme-Text{color:#dedede}
</style>
</defs>
<path d="M3 1C1.338 1 0 2.338 0 4v6c0 1.662 1.338 3 3 3 0 1.108.892 2 2 2h6c1.108 0 2-.892 2-2 1.662 0 3-1.338 3-3V4c0-1.662-1.338-3-3-3zm0 1h10c1.108 0 2 .892 2 2v6c0 1.108-.892 2-2 2h-1v1c0 .554-.446 1-1 1H5c-.554 0-1-.446-1-1v-1H3c-1.108 0-2-.892-2-2V4c0-1.108.892-2 2-2m1 2c-.554 0-1 .446-1 1v4c0 .554.446 1 1 1s1-.446 1-1V5c0-.554-.446-1-1-1m4 0c-.554 0-1 .446-1 1v4c0 .554.446 1 1 1s1-.446 1-1V5c0-.554-.446-1-1-1m4 0c-.554 0-1 .446-1 1v4c0 .554.446 1 1 1s1-.446 1-1V5c0-.554-.446-1-1-1" class="ColorScheme-Text" style="fill:currentColor"/>
</svg>
