<svg xmlns="http://www.w3.org/2000/svg" width="16" height="16">
<style id="current-color-scheme" type="text/css">
.ColorScheme-Contrast{color:#dedede}
</style>
<path d="M2.357.357A8 8 0 0 0 0 6a8 8 0 0 0 2.734 6.02l.67-.768A7 7 0 0 1 1 6a7 7 0 0 1 2.05-4.95zm11.285 0-.693.694A7 7 0 0 1 14.999 6a7 7 0 0 1-2.403 5.252l.67.768A8 8 0 0 0 16 6 8 8 0 0 0 13.642.357m-9.166 2.12A5 5 0 0 0 3 6a5 5 0 0 0 1.713 3.758l.664-.76A4 4 0 0 1 4 6a4 4 0 0 1 1.172-2.828zm7.047 0-.695.695A4 4 0 0 1 12 6a4 4 0 0 1-1.377 2.998l.664.76A5 5 0 0 0 13 6a5 5 0 0 0-1.477-3.523M8 5a1 1 0 0 0-1 1 1 1 0 0 0 1 1 1 1 0 0 0 1-1 1 1 0 0 0-1-1m0 4c-.277 0-.5.223-.5.5v6a.499.499 0 1 0 1 0v-6c0-.277-.223-.5-.5-.5" class="ColorScheme-Contrast" style="fill:currentColor"/>
</svg>
