<svg xmlns="http://www.w3.org/2000/svg" width="16" height="16">
<style id="current-color-scheme" type="text/css">
.ColorScheme-Contrast{color:#dedede}
</style>
<path d="M3 1c-.554 0-1 .446-1 1v13c0 .554.446 1 1 1h10c.554 0 1-.446 1-1V2c0-.554-.446-1-1-1zm0 1h10v13H3z" class="ColorScheme-Contrast" style="fill:currentColor"/>
<path d="M15.5 3a.5.5 0 0 0-.354.146L8 10.293V11h.707l7.147-7.146A.499.499 0 0 0 15.5 3" class="ColorScheme-Contrast" style="fill:currentColor"/>
<circle cx="4.5" cy="3.5" r=".5" class="ColorScheme-Contrast" style="fill:currentColor"/>
</svg>
