<svg xmlns="http://www.w3.org/2000/svg" width="16" height="16">
<defs>
<style id="current-color-scheme" type="text/css">
.ColorScheme-Text{color:#dedede}
</style>
</defs>
<path fill="currentColor" d="M4.96 0C3.875 0 3 .874 3 1.96v12.08C3 15.126 3.874 16 4.96 16h6.079c1.087 0 1.96-.874 1.96-1.96V1.96A1.954 1.954 0 0 0 11.04 0zM5 1h6c.554 0 1 .446 1 1v12c0 .554-.446 1-1 1H5c-.554 0-1-.446-1-1V2c0-.554.446-1 1-1" class="ColorScheme-Text"/>
<rect width="4" height="2" x="6" fill="currentColor" class="ColorScheme-Text" rx="1" ry="1"/>
<path fill="currentColor" d="M6.638 13h2.725c.353 0 .637.223.637.5s-.284.5-.637.5H6.638C6.284 14 6 13.777 6 13.5s.284-.5.638-.5" class="ColorScheme-Text" opacity=".5"/>
</svg>
