<svg xmlns="http://www.w3.org/2000/svg" width="16" height="16">
<defs>
<style id="current-color-scheme" type="text/css">
.ColorScheme-Contrast{color:#dedede}
</style>
</defs>
<g class="ColorScheme-Contrast" style="fill:currentColor">
<path d="M1.344.003a.5.5 0 0 0-.313.656l1.97 5.875-1 6.406v3.063h12v-3.062l-1-6.438L14.719.628a.5.5 0 0 0-.469-.625H1.5a.5.5 0 0 0-.094 0zm.844 1h11.406l-1.469 5H3.844zm1.75 6h8.125l.937 6H3zm-.938 7h1v1H3z"/>
<path d="m11.469 10.159-7.188 1.812v.032h7.438zM4.813 8.003l-.375 2.875 6.906-1.75-.156-1.125zm-1.25-6 1 3h6.812l.875-3z"/>
</g>
</svg>
