<svg xmlns="http://www.w3.org/2000/svg" width="22" height="22"><path fill="currentColor" d="M3.856 1.26a.605.605 0 0 0-.072 1.186L9.583 4H2.01c-1.108 0-2 .892-2 2v7c0 1.108.892 2 2 2H14c1.108 0 2-.892 2-2V6c0-1.108-.892-2-2-2h-.16a.588.588 0 0 0-.29-.193L4.099 1.273a.613.613 0 0 0-.243-.013zM2 5h12.01c.554 0 1 .446 1 1v7c0 .554-.446 1-1 1H2c-.554 0-1-.446-1-1V6c0-.554.446-1 1-1zm.01 2v1H7V7zm9.49 0a2.5 2.5 0 1 0 0 5 2.5 2.5 0 0 0 0-5zm0 1a1.5 1.5 0 1 1 0 3 1.5 1.5 0 0 1 0-3zM2.01 9v1H7V9zm0 2v1H7v-1z" style="color:#dedede" transform="translate(3 3)"/></svg>