<svg xmlns="http://www.w3.org/2000/svg" width="22" height="22"><defs><style id="current-color-scheme" type="text/css">.ColorScheme-Text{color:#dedede}</style></defs><path fill="currentColor" d="M18.479 15.009c.278-.034.57.024.778.187.417.325.507 1.068.181 1.485l-.216.278-1.737 2.223c-.434.556-1.424.678-1.98.244-.555-.435-.677-1.424-.243-1.98l1.737-2.223.277.216-1.736 2.223c-.325.417-.235 1.16.181 1.485.417.326 1.16.236 1.485-.181l1.738-2.223.216-.278c.217-.278.157-.774-.12-.99s-.774-.156-.991.122l-.216.276-1.304 1.668-.216.279c-.109.139-.079.386.06.494s.386.079.495-.06l1.52-1.947.278.218-1.52 1.945c-.217.278-.71.34-.989.122s-.34-.712-.122-.99l.217-.279 1.52-1.944c.163-.208.429-.336.707-.37z" class="ColorScheme-Text"/><g fill="currentColor" class="ColorScheme-Text"><path d="M11 8c-1.68 0-3 1.32-3 3s1.32 3 3 3 3-1.32 3-3-1.32-3-3-3zm.006 1.006a2.002 2.002 0 0 1 1.996 1.996 2.002 2.002 0 0 1-1.996 1.996c-1.098 0-2.014-.897-2.014-1.996 0-1.098.916-1.996 2.014-1.996z" class="ColorScheme-Text"/></g><path fill="currentColor" d="M10.99 2A9 9 0 0 0 2 11a9 9 0 0 0 9 9 9 9 0 0 0 3-.516v-1.07A8 8 0 0 1 11 19a8 8 0 0 1-8-8 8 8 0 0 1 8-8 8 8 0 0 1 8 8 8 8 0 0 1-.584 3h1.068A9 9 0 0 0 20 11a9 9 0 0 0-9-9 9 9 0 0 0-.01 0z" class="ColorScheme-Text"/></svg>