<svg xmlns="http://www.w3.org/2000/svg" width="22" height="22"><defs><style id="current-color-scheme" type="text/css">.ColorScheme-Text{color:#dedede}</style></defs><path fill="currentColor" d="M11 8c-1.68 0-3 1.32-3 3s1.32 3 3 3 3-1.32 3-3-1.32-3-3-3zm.006 1.006a2.002 2.002 0 0 1 1.996 1.996 2.002 2.002 0 0 1-1.996 1.996c-1.098 0-2.014-.897-2.014-1.996 0-1.098.916-1.996 2.014-1.996z" class="ColorScheme-Text"/><path fill="currentColor" d="M10.99 2A9 9 0 0 0 2 11a9 9 0 0 0 9 9 9 9 0 0 0 9-9 9 9 0 0 0-9-9 9 9 0 0 0-.01 0zM11 3a8 8 0 0 1 8 8 8 8 0 0 1-8 8 8 8 0 0 1-8-8 8 8 0 0 1 8-8z" class="ColorScheme-Text"/></svg>