<svg xmlns="http://www.w3.org/2000/svg" width="22" height="22"><path fill="currentColor" d="M5 3C3.338 3 2 4.338 2 6v8c0 1.662 1.338 3 3 3 0 1.108.892 2 2 2h8c1.108 0 2-.892 2-2 1.662 0 3-1.338 3-3V6c0-1.662-1.338-3-3-3zm0 1h12c1.108 0 2 .892 2 2v8c0 1.108-.892 2-2 2h-1v1c0 .554-.446 1-1 1H7c-.554 0-1-.446-1-1v-1H5c-1.108 0-2-.892-2-2V6c0-1.108.892-2 2-2zm2 3c-.554 0-1 .446-1 1v4c0 .554.446 1 1 1s1-.446 1-1V8c0-.554-.446-1-1-1zm4 0c-.554 0-1 .446-1 1v4c0 .554.446 1 1 1s1-.446 1-1V8c0-.554-.446-1-1-1zm4 0c-.554 0-1 .446-1 1v4c0 .554.446 1 1 1s1-.446 1-1V8c0-.554-.446-1-1-1z" style="color:#dedede"/></svg>