<svg xmlns="http://www.w3.org/2000/svg" width="24" height="24" fill="none"><path fill="#A4A4A4" fill-opacity=".01" d="M0 0h24v24H0z"/><rect width="16" height="2" x="4" y="6" fill="#FAFAFA" rx=".5"/><rect width="16" height="2" x="4" y="16" fill="#FAFAFA" rx=".5"/><rect width="16" height="2" x="4" y="11" fill="#FAFAFA" rx=".5"/><path fill="#CCC" d="M17.038 18.465a.5.5 0 0 1-.706 0l-1.818-1.806a.528.528 0 0 0-.526-.123 6.116 6.116 0 0 1-.774.178c-.376.062-.781.093-1.214.093-1.68 0-3.196-.477-4.546-1.43-1.303-.92-2.265-2.154-2.886-3.7a.469.469 0 0 1-.002-.348c.188-.475.432-.938.73-1.388.242-.365.502-.709.779-1.03a.52.52 0 0 0-.018-.707l-.956-.956a.5.5 0 0 1 0-.707l.437-.437a.5.5 0 0 1 .707 0l11.216 11.23a.5.5 0 0 1 0 .707l-.423.424ZM12 14.425c.052 0 .103-.002.155-.008.066-.006.09-.086.043-.133l-2.9-2.873a.129.129 0 0 0-.22.092c0 .824.28 1.518.842 2.08.562.561 1.255.842 2.08.842Zm5.492.131a.477.477 0 0 1-.673-.013l-1.827-1.827c-.152-.152-.183-.384-.135-.594a3.39 3.39 0 0 0 .066-.62c0-.824-.281-1.517-.843-2.08-.562-.561-1.255-.842-2.08-.842a2.725 2.725 0 0 0-.655.081.56.56 0 0 1-.527-.135L9.58 7.29c-.253-.253-.164-.68.18-.778A8.25 8.25 0 0 1 12 6.198c1.67 0 3.178.475 4.523 1.423 1.298.915 2.267 2.15 2.907 3.708a.47.47 0 0 1 .004.349 7.473 7.473 0 0 1-.924 1.688c-.321.443-.66.84-1.018 1.19Zm-4.448-3.966c.03.074-.056.11-.113.054l-.188-.181c-.057-.055-.023-.149.053-.128a.28.28 0 0 1 .147.1.473.473 0 0 1 .1.155Z"/></svg>