<svg xmlns="http://www.w3.org/2000/svg" width="16" height="16"><path fill="#dedede" d="M8 0a8 8 0 0 0-8 8 8 8 0 0 0 8 8 8 8 0 0 0 8-8 8 8 0 0 0-8-8zm0 1a7 7 0 0 1 5.143 2.256l-.012-.006C12.77 3.11 12.4 3 12 3c-1.39 0-2.54.97-2.87 2.25C8.77 5.11 8.4 5 8 5s-.77.11-1.12.25C6.54 3.97 5.39 3 4 3c-.4 0-.77.11-1.12.25A7 7 0 0 1 8 1zM2.88 3.25c.428-.42.33-.356 0 0zm-.362.424a6.994 6.994 0 0 0-.327.45 7 7 0 0 1 .327-.45zM4 4c1.066 0 1.94.846 1.994 1.898A1.003 1.003 0 0 0 5 5c-.55 0-1 .45-1 1s.45 1 1 1c.516 0 .943-.396.994-.898A2.004 2.004 0 0 1 4 8c-1.1 0-2-.9-2-2s.9-2 2-2zm8 0c1.1 0 2 .9 2 2s-.9 2-2 2a2.004 2.004 0 0 1-1.994-1.898c.051.502.478.898.994.898.55 0 1-.45 1-1s-.45-1-1-1c-.516 0-.943.396-.994.898A2.004 2.004 0 0 1 12 4zm-10.049.514a6.978 6.978 0 0 0-.297.574 7 7 0 0 1 .297-.574zm-.467.978a7.01 7.01 0 0 0-.226.697 7 7 0 0 1 .226-.697zM8 6c.37 0 .73.1 1.03.28C9.18 7.8 10.44 9 12 9c1.38 0 2.53-.95 2.88-2.22.053.297.095.594.112.9v.008A7 7 0 0 1 15 8a7 7 0 0 1-7 7 7 7 0 0 1-7-7 7 7 0 0 1 .06-.781l.002-.01a7 7 0 0 1 0-.004 7 7 0 0 1 .1-.621 6.98 6.98 0 0 0-.1.621c.02-.142.044-.284.069-.426C1.47 8.05 2.62 9 4 9c1.56 0 2.82-1.2 2.97-2.72C7.27 6.1 7.63 6 8 6zM5.17 9.83l-.7.7C5.4 11.47 6.67 12 8 12s2.6-.53 3.53-1.47l-.7-.7a4.004 4.004 0 0 1-5.66 0z" style="paint-order:stroke fill markers"/></svg>