<?xml version="1.0" encoding="UTF-8" standalone="no"?>
<svg
   width="32"
   height="32"
   version="1.0"
   viewBox="0 0 32 32"
   id="svg127"
   xmlns="http://www.w3.org/2000/svg"
   xmlns:svg="http://www.w3.org/2000/svg"
   xmlns:rdf="http://www.w3.org/1999/02/22-rdf-syntax-ns#"
   xmlns:cc="http://creativecommons.org/ns#"
   xmlns:dc="http://purl.org/dc/elements/1.1/">
  <metadata
     id="metadata131">
    <rdf:RDF>
      <cc:Work
         rdf:about="">
        <dc:format>image/svg+xml</dc:format>
        <dc:type
           rdf:resource="http://purl.org/dc/dcmitype/StillImage" />
      </cc:Work>
    </rdf:RDF>
  </metadata>
  <defs
     id="defs3">
    <style
       id="current-color-scheme"
       type="text/css">.ColorScheme-Text {
        color:#31363b;
      }
      .ColorScheme-Background {
        color:#eff0f1;
      }
      .ColorScheme-Highlight {
        color:#3daee9;
      }
      .ColorScheme-ViewText {
        color:#31363b;
      }
      .ColorScheme-NegativeText {
        color:#31363b;
      }
      .ColorScheme-ViewBackground {
        color:#fcfcfc;
      }
      .ColorScheme-ViewHover {
        color:#93cee9;
      }
      .ColorScheme-ViewFocus{
        color:#3daee9;
      }
      .ColorScheme-ButtonText {
        color:#31363b;
      }
      .ColorScheme-ButtonBackground {
        color:#eff0f1;
      }
      .ColorScheme-ButtonHover {
        color:#93cee9;
      }
      .ColorScheme-ButtonFocus{
        color:#3daee9;
      }</style>
  </defs>
  <g
     id="audio-volume-muted"
     transform="translate(-123)">
    <rect
       style="fill:none;stroke-width:2.032;stroke-linecap:round;stroke-linejoin:round"
       id="rect3399"
       width="32"
       height="32"
       x="123"
       y="0"
       rx="0"
       ry="0" />
    <path
       id="path3401"
       d="m 140,6 a 1.0001,1.0001 0 0 0 -0.70703,0.2929688 l -4,4.0000002 C 134.8798,10.706134 134.32233,11 134,11 h -4 c -1.6447,0 -3,1.355299 -3,3 v 4 c 0,1.644701 1.3553,3 3,3 h 4 c 0.32233,0 0.8798,0.293866 1.29297,0.707031 l 4,4 A 1.0001,1.0001 0 0 0 141,25 V 7 A 1.0001,1.0001 0 0 0 140.38281,6.0761719 1.0001,1.0001 0 0 0 140,6 Z m 0,1 v 18 l -4,-4 c -0.52705,-0.527046 -1.25464,-1 -2,-1 h -4 c -1.108,0 -2,-0.892 -2,-2 v -4 c 0,-1.108 0.892,-2 2,-2 h 4 c 0.74536,0 1.47295,-0.472954 2,-1 z"
       class="ColorScheme-Text"
       fill="currentColor" />
    <path
       id="rect3431"
       d="m 143.17188,12.671875 c -0.12781,0 -0.25558,0.04855 -0.35352,0.146485 -0.19586,0.195868 -0.19586,0.511162 0,0.707031 L 145.29297,16 l -2.47461,2.47461 c -0.19586,0.195868 -0.19586,0.511162 0,0.707031 0.19587,0.195868 0.51117,0.195868 0.70704,0 L 146,16.707032 l 2.47461,2.474609 c 0.19587,0.195868 0.51117,0.195868 0.70704,0 0.19586,-0.195869 0.19586,-0.511163 0,-0.707031 L 146.70704,16 l 2.47461,-2.474609 c 0.19586,-0.195869 0.19586,-0.511163 0,-0.707031 -0.19587,-0.195869 -0.51117,-0.195869 -0.70704,0 L 146,15.292969 143.5254,12.81836 c -0.0979,-0.09793 -0.22571,-0.146485 -0.35352,-0.146485 z"
       fill="currentColor"
       class="ColorScheme-Text" />
  </g>
</svg>
