<svg xmlns="http://www.w3.org/2000/svg" viewBox="0 0 32 32"><path fill="currentColor" d="M29 16.5c0-.277-.223-.5-.5-.5H27v-3c0-1.108-.892-2-2-2h-6c-1.108 0-2 .892-2 2v3h-1.988l.011-8c.002-1.108-.89-2-1.996-2H7.043a1.995 1.995 0 0 0-1.996 2l-.012 8H3.5a.499.499 0 1 0 0 1h1.535l-.012 8c-.001 1.108.891 2 1.996 2h5.985A1.995 1.995 0 0 0 15 25l.012-8H17v3c0 1.108.892 2 2 2h6c1.108 0 2-.892 2-2v-3h1.5c.277 0 .5-.223.5-.5zM26 13v7c0 .554-.446 1-1 1h-6c-.554 0-1-.446-1-1v-7c0-.554.446-1 1-1h6c.554 0 1 .446 1 1zM14.025 8l-.012 8H14v1h.013l-.011 8c-.001.554-.446 1-.998 1H7.019a.996.996 0 0 1-.998-1l.023-17c.001-.554.446-1 .999-1h5.984c.553 0 .999.446.998 1z" style="color:#dedede"/></svg>