<svg xmlns="http://www.w3.org/2000/svg" viewBox="0 0 32 32"><defs><style id="current-color-scheme" type="text/css">.ColorScheme-Text{color:#dedede}</style></defs><path fill="currentColor" d="M20 24a1.997 1.997 0 0 1-2-2l-.023-16c-.002-1.108.892-2 2-2h6c1.108 0 1.998.892 2 2L28 22c.002 1.108-.892 2-2 2zm0-1h6c.554 0 1-.446 1-1l-.023-16c-.001-.554-.446-1-1-1h-6c-.554 0-1.001.446-1 1L19 22c0 .554.446 1 1 1zM6 24c-1.108 0-2-.892-2-2v-6c0-1.108.892-2 2-2h6c1.108 0 2 .892 2 2v6c0 1.108-.892 2-2 2zm0-1h6c.554 0 1-.446 1-1v-6c0-.554-.446-1-1-1H6c-.554 0-1 .446-1 1v6c0 .554.446 1 1 1z" class="ColorScheme-Text"/><rect width="26" height="1" x="3" y="-28" fill="currentColor" class="ColorScheme-Text" rx=".5" ry=".5" transform="scale(1 -1)"/></svg>