<svg xmlns="http://www.w3.org/2000/svg" viewBox="0 0 32 32"><defs><style id="current-color-scheme" type="text/css">.ColorScheme-Text{color:#dedede}</style></defs><path fill="currentColor" d="M24 12a1.997 1.997 0 0 1-2 2l-16 .023c-1.108.002-2-.892-2-2v-6c0-1.108.892-1.998 2-2L22 4c1.108-.002 2 .892 2 2zm-1 0V6c0-.554-.446-1-1-1L6 5.023c-.554.001-1 .446-1 1v6c0 .554.446 1.001 1 1L22 13c.554 0 1-.446 1-1zM24 26c0 1.108-.892 2-2 2h-6c-1.108 0-2-.892-2-2v-6c0-1.108.892-2 2-2h6c1.108 0 2 .892 2 2zm-1 0v-6c0-.554-.446-1-1-1h-6c-.554 0-1 .446-1 1v6c0 .554.446 1 1 1h6c.554 0 1-.446 1-1z" class="ColorScheme-Text"/><rect width="26" height="1" x="-29" y="-28" fill="currentColor" class="ColorScheme-Text" rx=".5" ry=".5" transform="matrix(0 -1 -1 0 0 0)"/></svg>