<svg xmlns="http://www.w3.org/2000/svg" viewBox="0 0 32 32"><path fill="currentColor" d="M15.5 3c-.277 0-.5.223-.5.5V5h-3c-1.108 0-2 .892-2 2v6c0 1.108.892 2 2 2h3v1.988l-8-.011c-1.108-.002-2 .89-2 1.996v5.984c0 1.105.892 1.995 2 1.996l8 .012V28.5a.499.499 0 1 0 1 0v-1.535l8 .012c1.108.001 2-.891 2-1.996v-5.985A1.995 1.995 0 0 0 24 17l-8-.012V15h3c1.108 0 2-.892 2-2V7c0-1.108-.892-2-2-2h-3V3.5c0-.277-.223-.5-.5-.5zM12 6h7c.554 0 1 .446 1 1v6c0 .554-.446 1-1 1h-7c-.554 0-1-.446-1-1V7c0-.554.446-1 1-1zM7 17.975l8 .012V18h1v-.013l8 .011c.554.001 1 .446 1 .998v5.985a.996.996 0 0 1-1 .998l-17-.023c-.554-.001-1-.446-1-.999v-5.984a.996.996 0 0 1 1-.998z" style="color:#dedede"/></svg>