<svg xmlns="http://www.w3.org/2000/svg" viewBox="0 0 32 32"><defs><style id="current-color-scheme" type="text/css">.ColorScheme-Text{color:#dedede}</style></defs><path fill="currentColor" d="M3 26c0 1.108.892 2 2 2h8c1.108 0 2-.892 2-2v-6c0-1.108-.892-2-2-2H5c-1.108 0-2 .892-2 2zm1 0v-6c0-.554.446-1 1-1h8c.554 0 1 .446 1 1v6c0 .554-.446 1-1 1H5c-.554 0-1-.446-1-1zM5 12c0 1.108.892 2 2 2h6c1.108 0 2-.892 2-2V6c0-1.108-.892-2-2-2H7c-1.108 0-2 .892-2 2zm1 0V6c0-.554.446-1 1-1h6c.554 0 1 .446 1 1v6c0 .554-.446 1-1 1H7c-.554 0-1-.446-1-1z" class="ColorScheme-Text"/><rect width="26" height="1" x="-29" y="18" fill="currentColor" class="ColorScheme-Text" rx=".5" ry=".5" transform="rotate(-90)"/><rect width="10" height="6" x="-14" y="22" fill="currentColor" class="ColorScheme-Text" rx="2" ry="2" transform="rotate(-90)"/></svg>