<svg xmlns="http://www.w3.org/2000/svg" viewBox="0 0 32 32"><defs><style id="current-color-scheme" type="text/css">.ColorScheme-NegativeText{color:#da4453}</style></defs><g fill="currentColor" class="ColorScheme-NegativeText"><path d="m12.111 13.402-.707.709L15.293 18l-3.889 3.888.707.707L16 18.707l3.888 3.888.707-.707L16.707 18l3.888-3.889-.707-.709L16 17.291z" class="ColorScheme-NegativeText"/></g><path fill="currentColor" d="M7 4C5.338 4 4 5.338 4 7v18c0 1.662 1.338 3 3 3h18c1.662 0 3-1.338 3-3V7c0-1.662-1.338-3-3-3zm0 1h18c1.108 0 2 .892 2 2v1H5V7c0-1.108.892-2 2-2zM5 9h22v16c0 1.108-.892 2-2 2H7c-1.108 0-2-.892-2-2z" class="ColorScheme-NegativeText"/></svg>