<svg xmlns="http://www.w3.org/2000/svg" viewBox="0 0 32 32"><style id="current-color-scheme" type="text/css">.ColorScheme-Text{color:#dedede}</style><path fill="currentColor" d="M24 19v5h-5v1h5v5h1v-5h5v-1h-5v-5zM16 3v2h2V3zm0 2h-2v2h2zm0 2v2h2V7zm0 2h-2v2h2zm0 2v2h2v-2zm0 2h-2v4h4v-2h-2z" class="ColorScheme-Text"/><path fill="currentColor" d="M5 2C3.338 2 2 3.338 2 5v22c0 1.662 1.338 3 3 3h16v-1H5c-1.108 0-2-.892-2-2V5c0-1.108.892-2 2-2h22c1.108 0 2 .892 2 2v13h1V5c0-1.662-1.338-3-3-3z" class="ColorScheme-Text"/></svg>