<svg xmlns="http://www.w3.org/2000/svg" viewBox="0 0 32 32"><style id="current-color-scheme" type="text/css">.ColorScheme-Text{color:#dedede}</style><g fill="currentColor" class="ColorScheme-Text"><path d="M16 3v2h2V3zm0 2h-2v2h2zm0 2v2h2V7zm0 2h-2v2h2zm0 2v2h2v-2zm0 2h-2v4h4v-2h-2zM25.5 17.996l-4.5 4.5.707.707L25 19.91V30h1V19.91l3.293 3.293.707-.707z"/></g><path fill="currentColor" d="M5 2C3.338 2 2 3.338 2 5v22c0 1.662 1.338 3 3 3h16v-1H5c-1.108 0-2-.892-2-2V5c0-1.108.892-2 2-2h22c1.108 0 2 .892 2 2v13h1V5c0-1.662-1.338-3-3-3H5z" class="ColorScheme-Text"/></svg>