<svg xmlns="http://www.w3.org/2000/svg" viewBox="0 0 32 32"><defs><style id="current-color-scheme" type="text/css">.ColorScheme-Text{color:#dedede}</style></defs><path fill="currentColor" d="m6.25 4-.797 1.453L4 6.25l1.453.797L6.25 8.5l.797-1.453L8.5 6.25l-1.453-.797zm7.5 0-.797 1.453-1.453.797 1.453.797.797 1.453.797-1.453L16 6.25l-1.453-.797zm-4.5 6-.797 1.453L7 12.25l1.453.797.797 1.453.797-1.453 1.453-.797-1.453-.797zM25.899 6.1a2.993 2.993 0 0 0-4.243 0L6.1 21.657a2.993 2.993 0 0 0 0 4.243 2.993 2.993 0 0 0 4.243 0l15.556-15.556a2.993 2.993 0 0 0 0-4.242zm-.707.708a1.996 1.996 0 0 1 0 2.828l-2.829 2.828c-.783.784-2.045.784-2.828 0s-.783-2.045 0-2.828l2.828-2.828a1.996 1.996 0 0 1 2.829 0z" class="ColorScheme-Text"/></svg>