<svg xmlns="http://www.w3.org/2000/svg" viewBox="0 0 32 32"><defs><style id="current-color-scheme" type="text/css">.ColorScheme-Highlight{color:#3daee9}</style></defs><path fill="currentColor" d="M16 4c-.277 0-.5.223-.5.5v1.535a10 10 0 0 0-1.596.213l-.398-1.486a.5.5 0 1 0-.965.26l.395 1.474a10 10 0 0 0-1.485.623l-.767-1.328a.5.5 0 1 0-.868.5l.756 1.309a10 10 0 0 0-1.271.994L8.223 7.516a.501.501 0 0 0-.71.707L8.594 9.3a10 10 0 0 0-.99 1.273l-1.312-.758a.5.5 0 1 0-.5.868l1.328.767a10 10 0 0 0-.623 1.485l-1.475-.395a.5.5 0 1 0-.26.965l1.487.398a10 10 0 0 0-.213 1.596H4.5a.499.499 0 1 0 0 1h1.535a10 10 0 0 0 .213 1.596l-1.486.398a.5.5 0 1 0 .26.965l1.474-.394a10 10 0 0 0 .623 1.486l-1.328.765a.5.5 0 1 0 .5.868l1.313-.758a10 10 0 0 0 .99 1.275L7.516 23.78a.499.499 0 1 0 .707.707l1.078-1.08a10 10 0 0 0 1.273.99l-.758 1.313a.5.5 0 1 0 .868.5l.767-1.328a10 10 0 0 0 1.485.623l-.395 1.475a.5.5 0 1 0 .965.26l.398-1.487a10 10 0 0 0 1.596.213V27.5a.499.499 0 1 0 1 0v-1.535a10 10 0 0 0 1.596-.213l.398 1.486a.5.5 0 1 0 .965-.26l-.395-1.474a10 10 0 0 0 1.485-.623l.767 1.328a.5.5 0 1 0 .868-.5l-.758-1.313a10 10 0 0 0 1.273-.99l1.078 1.08a.499.499 0 1 0 .707-.707l-1.078-1.08a10 10 0 0 0 .99-1.273l1.313.758a.5.5 0 1 0 .5-.868l-1.328-.767a10 10 0 0 0 .621-1.486l1.477.396a.5.5 0 1 0 .257-.965l-1.484-.398a10 10 0 0 0 .213-1.596H27.5a.499.499 0 1 0 0-1h-1.512a10 10 0 0 0-.214-1.602l1.464-.392a.5.5 0 1 0-.26-.965l-1.464.393a10 10 0 0 0-.617-1.493l1.312-.757a.5.5 0 1 0-.5-.868l-1.312.758a10 10 0 0 0-.983-1.281l1.07-1.07a.499.499 0 1 0-.707-.707L22.71 8.584a10 10 0 0 0-1.283-.98l.758-1.313a.5.5 0 1 0-.868-.5l-.757 1.313a10 10 0 0 0-1.493-.62l.393-1.462a.5.5 0 1 0-.965-.26l-.392 1.463a10 10 0 0 0-1.602-.213V4.5c0-.277-.223-.5-.5-.5zm-.01 3H16a9 9 0 0 1 2.328.307 9 9 0 0 1 2.172.898 9 9 0 0 1 1.863 1.432 9 9 0 0 1 2.186 3.554l-5.822 1.56A3 3 0 0 0 16 13a3 3 0 0 0-.05 0 3 3 0 0 0-1.684.558L10.018 9.31A9 9 0 0 1 15.99 7zm-6.68 3.018 4.249 4.248a3 3 0 0 0-.56 1.734 3 3 0 0 0 1.75 2.727l-1.558 5.82a9 9 0 0 1-3.548-2.178 9 9 0 0 1-.006-.006h-.002a9 9 0 0 1-.006-.006A9 9 0 0 1 7 16a9 9 0 0 1 2.31-5.982zM15.952 14A2 2 0 0 1 16 14a2 2 0 0 1 2 2 2 2 0 0 1-2 2 2 2 0 0 1-2-2 2 2 0 0 1 1.951-2zm8.858.156a9 9 0 0 1 .19 1.844 9 9 0 0 1-9 9 9 9 0 0 1-1.837-.215l1.557-5.804a3 3 0 0 0 .28.019 3 3 0 0 0 3-3 3 3 0 0 0-.013-.283l5.823-1.56z" style="color:#dedede"/></svg>