<svg xmlns="http://www.w3.org/2000/svg" viewBox="0 0 32 32"><path fill="currentColor" d="M13 4c-1.108 0-2 .892-2 2v4h1V6c0-.554.446-1 1-1h2v3c0 1.108.892 2 2 2h4c1.108 0 2-.892 2-2V5h.586L27 8.414V19c0 .554-.446 1-1 1h-1v-4c0-1.108-.892-2-2-2h-1v1h1c.554 0 1 .446 1 1v4h-2v1h4c1.108 0 2-.892 2-2V8l-4-4H13zm3 1h4v3c0 .554-.446 1-1 1h-2c-.554 0-1-.446-1-1V5zM6 11c-1.108 0-2 .892-2 2v13c0 1.108.892 2 2 2h13c1.108 0 2-.892 2-2V15l-4-4H6zm0 1h2v3c0 1.108.892 2 2 2h4c1.108 0 2-.892 2-2v-3h.586L20 15.414V26c0 .554-.446 1-1 1h-1v-4c0-1.108-.892-2-2-2H9c-1.108 0-2 .892-2 2v4H6c-.554 0-1-.446-1-1V13c0-.554.446-1 1-1zm3 0h4v3c0 .554-.446 1-1 1h-2c-.554 0-1-.446-1-1v-3zm0 10h7c.554 0 1 .446 1 1v4H8v-4c0-.554.446-1 1-1z" style="color:#dedede"/></svg>