<svg xmlns="http://www.w3.org/2000/svg" viewBox="0 0 32 32"><defs><style id="current-color-scheme" type="text/css">.ColorScheme-Text{color:#dedede}</style></defs><path fill="currentColor" d="M24.398 16 16 24.398V28H19.6L28 19.602zm-2.049 3.49 2.16 2.16-3.173 3.174v-.674l-1.014.024h-1.035v-1.621zm-4.076 4.074v1.622H20.3l.022.654-1.082 1.08H17.8l-.72-.72v-1.442z" class="ColorScheme-Text"/><path fill="currentColor" d="M7 4C5.338 4 4 5.338 4 7v18c0 1.662 1.338 3 3 3h8v-1h-5v-6c0-.554.446-1 1-1h7v-1h-7c-1.108 0-2 .892-2 2v6H7c-1.108 0-2-.892-2-2V7c0-1.108.892-2 2-2h3v6c0 1.108.892 2 2 2h7c1.108 0 2-.892 2-2V5h.586L27 10.414V16h1v-6l-6-6zm4 1h6v6c0 .554-.446 1-1 1h-4c-.554 0-1-.446-1-1z" class="ColorScheme-Text"/></svg>