<svg xmlns="http://www.w3.org/2000/svg" viewBox="0 0 32 32"><defs><style id="current-color-scheme" type="text/css">.ColorScheme-Text{color:#dedede}</style></defs><path fill="currentColor" d="M18.5 16c-2.493 0-4.5 2.01-4.5 4.5 0 2.493 2.01 4.5 4.5 4.5a4.462 4.462 0 0 0 2.795-.994l3.998 3.998.707-.707-3.998-3.998A4.46 4.46 0 0 0 23 20.5c0-2.493-2.01-4.5-4.5-4.5zm0 1c1.939 0 3.5 1.561 3.5 3.5S20.439 24 18.5 24 15 22.439 15 20.5s1.561-3.5 3.5-3.5z" class="ColorScheme-Text"/><path fill="currentColor" d="M9 4C7.338 4 6 5.338 6 7v18c0 1.662 1.338 3 3 3h6v-1H9c-1.108 0-2-.892-2-2V7c0-1.108.892-2 2-2h9v4c0 1.662 1.338 3 3 3h4v5h1v-6l-7-7h-1zm10 1.414L24.586 11H21c-1.108 0-2-.892-2-2z" class="ColorScheme-Text"/></svg>