<svg xmlns="http://www.w3.org/2000/svg" viewBox="0 0 32 32"><defs><style id="current-color-scheme" type="text/css">.ColorScheme-Text{color:#dedede}</style></defs><path fill="currentColor" d="M24.5 16a1.5 1.5 0 1 0 .001 3.001A1.5 1.5 0 0 0 24.5 16zm-3 3a.5.5 0 1 0 0 1 .5.5 0 0 0 0-1zm-2 1a.5.5 0 1 0 0 1 .5.5 0 0 0 0-1zm-3 1a1.5 1.5 0 1 0 .001 3.001A1.5 1.5 0 0 0 16.5 21zm3 3a.5.5 0 1 0 0 1 .5.5 0 0 0 0-1zm2 1a.5.5 0 1 0 0 1 .5.5 0 0 0 0-1zm3 0a1.5 1.5 0 1 0 .001 3.001A1.5 1.5 0 0 0 24.5 25z" class="ColorScheme-Text"/><path fill="currentColor" d="M9 4C7.338 4 6 5.338 6 7v18c0 1.662 1.338 3 3 3h10v-1H9c-1.108 0-2-.892-2-2V7c0-1.108.892-2 2-2h9v4c0 1.662 1.338 3 3 3h4v3h1v-4l-7-7h-1zm10 1.414L24.586 11H21c-1.108 0-2-.892-2-2z" class="ColorScheme-Text"/></svg>