<svg xmlns="http://www.w3.org/2000/svg" viewBox="0 0 32 32"><defs><style id="current-color-scheme" type="text/css">.ColorScheme-NegativeText{color:#da4453}</style></defs><path fill="currentColor" d="M22 20.707 25.293 24 22 27.293c.013.025.707.707.707.707L26 24.707 29.293 28l.707-.707L26.707 24 30 20.707 29.293 20 26 23.293 22.707 20ZM15 6l1 1h6v4c0 1.662 1.338 3 3 3h4v4h1v-5l-7-7h-1zm8 1.414L28.586 13H25c-1.108 0-2-.892-2-2zM12.174 26A2.99 2.99 0 0 0 15 28h5v-1h-5a1.995 1.995 0 0 1-1.732-1z" class="ColorScheme-NegativeText"/><path fill="currentColor" d="M5 4C3.338 4 2 5.338 2 7v16c0 1.662 1.338 3 3 3h12c1.662 0 3-1.338 3-3V11l-7-7h-1zm0 1h7v4c0 1.662 1.338 3 3 3h4v11c0 1.108-.892 2-2 2H5c-1.108 0-2-.892-2-2V7c0-1.108.892-2 2-2zm8 .414L18.586 11H15c-1.108 0-2-.892-2-2z" style="color:#dedede"/></svg>