<svg xmlns="http://www.w3.org/2000/svg" viewBox="0 0 32 32"><defs><style id="current-color-scheme" type="text/css">.ColorScheme-Text{color:#dedede}</style></defs><path fill="currentColor" d="M21 16a3 3 0 0 0-3 3v1h1v-1a2 2 0 1 1 4 0v3h-5c-1.108 0-2 .892-2 2v2c0 1.108.892 2 2 2h6c1.108 0 2-.892 2-2v-2c0-1.108-.892-2-2-2v-3a3 3 0 0 0-3-3zm-3 7h6c.554 0 1 .446 1 1v2c0 .554-.446 1-1 1h-6c-.554 0-1-.446-1-1v-2c0-.554.446-1 1-1z" class="ColorScheme-Text"/><path fill="currentColor" d="M9 4C7.338 4 6 5.338 6 7v18c0 1.662 1.338 3 3 3h6v-1H9c-1.108 0-2-.892-2-2V7c0-1.108.892-2 2-2h9v4c0 1.662 1.338 3 3 3h4v4h1v-5l-7-7H9zm10 1.414L24.586 11H21c-1.108 0-2-.892-2-2V5.414z" class="ColorScheme-Text"/></svg>