<svg xmlns="http://www.w3.org/2000/svg" viewBox="0 0 32 32"><path fill="currentColor" d="M5 4c-1.09 0-2 .91-2 2v16h1V11h10c.5 0 .959.014 1.447-.23.489-.245.76-.563 1.26-1.063L18.414 8H27c.554 0 1 .446 1 1v13h1V9c0-1.108-.892-2-2-2h-8.586l-1.707-1.707c-.5-.5-.771-.818-1.26-1.062C14.96 3.986 14.5 4 14 4H5zm0 1h9c1 0 1 0 2 1l1.5 1.5L16 9c-1 1-1 1-2 1H4V6c0-.554.446-1 1-1zm9.5 16a3.49 3.49 0 0 0-3.463 3H3v1h8.037a3.49 3.49 0 0 0 3.463 3h.5v-1h-.5c-1.385 0-2.5-1.115-2.5-2.5s1.115-2.5 2.5-2.5h.5v-1h-.5zm2.5 0v1h.5c1.385 0 2.5 1.115 2.5 2.5S18.885 27 17.5 27H17v1h.5a3.49 3.49 0 0 0 3.463-3H29v-1h-8.037a3.49 3.49 0 0 0-3.463-3H17zm-2.5 2c-.831 0-1.5.669-1.5 1.5s.669 1.5 1.5 1.5h3c.831 0 1.5-.669 1.5-1.5s-.669-1.5-1.5-1.5h-3zm0 1h3a.499.499 0 1 1 0 1h-3a.499.499 0 1 1 0-1z" style="color:#dedede"/></svg>