<svg xmlns="http://www.w3.org/2000/svg" viewBox="0 0 32 32"><defs><style id="current-color-scheme" type="text/css">.ColorScheme-Highlight{color:#3daee9}</style></defs><path fill="currentColor" d="M12 4c-1.108 0-2 .892-2 2v7H6c-1.108 0-2 .892-2 2v8c0 1.108.892 2 2 2h4v1c0 1.108.892 2 2 2h8c1.108 0 2-.892 2-2v-1h4c1.108 0 2-.892 2-2v-8c0-1.108-.892-2-2-2h-4V6c0-1.108-.892-2-2-2h-8zm0 1h8c.554 0 1 .446 1 1v7H11V6c0-.554.446-1 1-1zm-6 9h20c.554 0 1 .446 1 1v8c0 .554-.446 1-1 1h-4v-4c0-1.108-.892-2-2-2h-8c-1.108 0-2 .892-2 2v4H6c-.554 0-1-.446-1-1v-8c0-.554.446-1 1-1zm1.5 2a.5.5 0 0 0-.5.5.5.5 0 0 0 .5.5.5.5 0 0 0 .5-.5.5.5 0 0 0-.5-.5zm4.5 3h8c.554 0 1 .446 1 1v6c0 .554-.446 1-1 1h-8c-.554 0-1-.446-1-1v-6c0-.554.446-1 1-1z" style="color:#dedede"/></svg>