<svg xmlns="http://www.w3.org/2000/svg" viewBox="0 0 32 32"><style id="current-color-scheme" type="text/css">.ColorScheme-Text{color:#dedede}</style><rect width="1" height="15" x="12" y="10" fill="currentColor" class="ColorScheme-Text" rx="0" ry="0"/><path fill="currentColor" d="M4 5h23v1H4zM14 2c-1.108 0-2 .892-2 2v1h1V4c0-.554.446-1 1-1h4c.554 0 1 .446 1 1v1h1V4c0-1.108-.892-2-2-2h-4z" class="ColorScheme-Text"/><path fill="currentColor" d="M7 5v23c0 1.108.892 2 2 2h14c1.108 0 2-.892 2-2V5h-1v23c0 .554-.446 1-1 1H9c-.554 0-1-.446-1-1V5H7z" class="ColorScheme-Text"/><rect width="1" height="15" x="15.5" y="10" fill="currentColor" class="ColorScheme-Text" rx="0" ry="0"/><rect width="1" height="15" x="19" y="10" fill="currentColor" class="ColorScheme-Text" rx="0" ry="0"/></svg>