<svg xmlns="http://www.w3.org/2000/svg" xmlns:xlink="http://www.w3.org/1999/xlink" width="32" height="32"><linearGradient id="b" x1="32" x2="-8" y1="-6" y2="32" gradientTransform="matrix(0 -.7 .64516 0 8.355 24.4)" gradientUnits="userSpaceOnUse"><stop offset="0" stop-color="#d8dcde"/><stop offset="1" stop-color="#f9fafb"/></linearGradient><linearGradient id="a" x1="8" x2="19" y1="8" y2="19" gradientUnits="userSpaceOnUse"><stop offset="0"/><stop offset="1" stop-opacity="0"/></linearGradient><linearGradient xlink:href="#a" id="e" x1="8" x2="13" y1="8" y2="13" gradientTransform="matrix(0 1 1 0 -2 -3)" gradientUnits="userSpaceOnUse"/><linearGradient id="c" x1="44.177" x2="44.106" y1="18.554" y2="1.868" gradientTransform="matrix(-.00176 .69563 .41203 -.00296 3.308 -.676)" gradientUnits="userSpaceOnUse"><stop offset="0" stop-color="#c9963c"/><stop offset="1" stop-color="#f6cd7b"/></linearGradient><linearGradient id="d" x2="0" y1="8" y2="4" gradientTransform="rotate(-90 21 23)" gradientUnits="userSpaceOnUse"><stop offset="0" stop-color="#2f3943"/><stop offset="1" stop-color="#4d5662"/></linearGradient><linearGradient xlink:href="#a" id="f" x1="8" x2="13" y1="8" y2="13" gradientTransform="matrix(0 1 1 0 -2 14)" gradientUnits="userSpaceOnUse"/><g stroke-linejoin="bevel" stroke-width="2"><path fill="url(#b)" d="M9 30h20V2H9z"/><path fill="url(#c)" d="M4 30V2h5v28z"/><g stroke-linecap="round"><path fill="#c9963c" d="M8 2v28h1V2zM5 4v7h1V4zm0 17v7h1v-7z"/><path fill="url(#d)" d="M2 5v5h4V5zm0 17v5h4v-5z"/></g></g><path fill="url(#e)" fill-rule="evenodd" d="m6 5 3 3v5l-3-3z" opacity=".2"/><path fill="#626363" d="M11 6v1h3V6zm4 0v1h1V6zm-4 2v1h8V8zm0 2v1h7v-1zm0 4v1h3v-1zm4 0v1h2v-1zm-4 2v1h8v-1zm0 2v1h7v-1zm0 3v1h3v-1zm4 0v1h1v-1zm-4 2v1h8v-1zm0 2v1h7v-1z"/><path fill="#da4453" d="M24 14v1h3v-1z"/><path fill="url(#f)" fill-rule="evenodd" d="m6 22 3 3v5l-3-3z" opacity=".2"/><g fill="#27ae60"><path d="M22 6v1h-1v1h1v1h1V8h1V7h-1V6zM22 21v1h-1v1h1v1h1v-1h1v-1h-1v-1z"/></g></svg>