<svg xmlns="http://www.w3.org/2000/svg" xmlns:xlink="http://www.w3.org/1999/xlink" width="32" height="32"><linearGradient id="i" x1="9" x2="9" y1="37" y2="40" gradientTransform="matrix(.88842 0 0 1 -3.996 -1)" gradientUnits="userSpaceOnUse"><stop offset="0" stop-color="#fcfcfc" stop-opacity=".8"/><stop offset="1" stop-color="#fcfcfc" stop-opacity=".45"/></linearGradient><linearGradient id="f" x1="2" x2="24" y1="38" y2="38" gradientUnits="userSpaceOnUse"><stop offset="0" stop-color="#3daee9"/><stop offset="1" stop-color="#2a7aaf"/></linearGradient><linearGradient id="h" x1="14" x2="15" y1="43" y2="47" gradientUnits="userSpaceOnUse"><stop offset="0" stop-color="#318bba"/><stop offset="1" stop-color="#115c92"/></linearGradient><linearGradient id="e" x1="23" x2="32.8" y1="16.7" y2="30" gradientUnits="userSpaceOnUse"><stop offset="0"/><stop offset="1" stop-opacity="0"/></linearGradient><linearGradient id="a"><stop offset="0" stop-opacity=".102"/><stop offset="1" stop-opacity=".03"/></linearGradient><linearGradient id="b" x1="30" x2="30" y1="4" y2="44" gradientTransform="matrix(.71429 0 0 .7 -1.429 -.8)" gradientUnits="userSpaceOnUse"><stop offset="0" stop-color="#fcfcfc"/><stop offset="1" stop-color="#cacaca"/></linearGradient><linearGradient id="g" x1="20" x2="20" y1="26" y2="30" gradientTransform="matrix(.6875 0 0 .75 -.75 12.5)" gradientUnits="userSpaceOnUse"><stop offset="0" stop-color="#194d6f"/><stop offset="1" stop-color="#0c3d61"/></linearGradient><linearGradient xlink:href="#a" id="c" x1="16" x2="16" y1="43" y2="4" gradientTransform="matrix(1 0 0 .6923 -6 -.77)" gradientUnits="userSpaceOnUse"/><linearGradient xlink:href="#a" id="d" x1="43" x2="43" y1="43" y2="4" gradientTransform="matrix(1 0 0 .6923 -14 -.77)" gradientUnits="userSpaceOnUse"/><g stroke-linejoin="round"><path fill="url(#b)" d="M10 2h20v28H10z"/><g stroke-width="1.429"><path fill="#979797" d="M10 29h20v1H10z"/><path fill="#4d4d4d" d="M12 6v1h10V6zm0 2v1h9V8zm0 2v1h10v-1z"/><path fill="#da4453" d="M24 6v1h4V6zm0 4v1h4v-1z"/><path fill="#27ae60" d="M24 8h4v1h-4z"/></g><path fill="url(#c)" d="M10 2h1v27h-1z"/><path fill="url(#d)" d="M29 2h1v27h-1z"/></g><path fill="url(#e)" d="M23 16v14h7v-7.41l-6.295-6.295z" opacity=".1"/><path fill="url(#f)" d="M3 31c-.554 0-1 .446-1 1v8a1 1.5 0 0 1 1 1.5A1 1.5 0 0 1 2 43v1c0 .554.446 1 1 1h20c.554 0 1-.446 1-1V32c0-.554-.446-1-1-1z" transform="translate(0 -15)"/><path fill="url(#g)" d="M2 32h22v3H2z" transform="translate(0 -15)"/><g stroke-linejoin="round" transform="translate(0 -15)"><path fill="url(#h)" d="M2 43v1c0 .554.446 1 1 1h20c.554 0 1-.446 1-1v-1c0 .554-.446 1-1 1H3c-.554 0-1-.446-1-1z"/><rect width="4" height="3" x="4" y="36" fill="url(#i)" rx=".5"/><path fill="#1f5b83" d="M6 41v1h3v-1zm4 0v1h3v-1zm4 0v1h3v-1zm4 0v1h3v-1z"/></g></svg>