<svg xmlns="http://www.w3.org/2000/svg" width="32" height="32" viewBox="0 0 8.467 8.467"><path d="M25.459 11a5 5 0 0 0-3.992 2H18v-1h-3v.984L16.016 14H21v4h-.984l1 1h.455a5 5 0 0 0 3.988 2H30V11h-1zm0 1H29v8h-3.541A4 4 0 0 1 22 18v-4a4 4 0 0 1 3.459-2zM2 13v6h14.984l-1-1H3v-4h8.986l-1-1z" style="fill:currentColor;fill-opacity:1;stroke:none;color:#dedede" transform="scale(.26458)"/><path d="m.53 289.25.186-.188 7.222 7.222-.188.187z" style="fill:currentColor;fill-opacity:1;stroke:none;color:#da4453" transform="translate(0 -288.533)"/></svg>