<svg xmlns="http://www.w3.org/2000/svg" viewBox="0 0 32 32"><defs><style id="current-color-scheme" type="text/css">.ColorScheme-Text{color:#dedede}</style></defs><path fill="currentColor" d="M14 13v8l7-4z" class="ColorScheme-Text"/><path fill="currentColor" d="M6 6C4.338 6 3 7.338 3 9v12c0 1.359.894 2.5 2.129 2.871A2.992 2.992 0 0 0 8 26h18c1.662 0 3-1.338 3-3V11c0-1.359-.894-2.5-2.129-2.871A2.992 2.992 0 0 0 24 6H6zm0 1h18c.743 0 1.387.402 1.732 1H8c-1.662 0-3 1.338-3 3v11.732c-.598-.345-1-.99-1-1.732V9c0-1.108.892-2 2-2zm20 1zm.354.023zM8 9h18c1.108 0 2 .892 2 2v12c0 1.108-.892 2-2 2H8c-1.108 0-2-.892-2-2V11c0-1.108.892-2 2-2zM5 23zm.023.354z" class="ColorScheme-Text"/></svg>