<svg xmlns="http://www.w3.org/2000/svg" viewBox="0 0 32 32"><defs><style id="current-color-scheme" type="text/css">.ColorScheme-Text{color:#dedede}</style></defs><path fill="currentColor" d="M23 15a6 6 0 0 0-6 6 6 6 0 0 0 .836 3.043l.732-.732A5 5 0 0 1 23 16a5 5 0 0 1 2.309.57l.73-.735A6 6 0 0 0 23 15zm5.16 2.957-.728.732A5 5 0 0 1 23 26a5 5 0 0 1-2.309-.57l-.734.731A6 6 0 0 0 23 27a6 6 0 0 0 6-6 6 6 0 0 0-.836-3.043z" class="ColorScheme-Text"/><path fill="currentColor" d="M5 4c-1.09 0-2 .91-2 2v19c0 1.108.892 2 2 2h12v-1H5c-.554 0-1-.446-1-1V11h10c.5 0 .959.014 1.447-.23.489-.245.76-.563 1.26-1.063L18.414 8H27c.554 0 1 .446 1 1v6h1V9c0-1.108-.892-2-2-2h-8.586l-1.707-1.707c-.5-.5-.77-.818-1.26-1.062C14.96 3.986 14.5 4 14 4H5zm0 1h9c1 0 1 0 2 1l1.5 1.5L16 9c-1 1-1 1-2 1H4V6c0-.554.446-1 1-1z" class="ColorScheme-Text"/></svg>