<svg xmlns="http://www.w3.org/2000/svg" viewBox="0 0 32 32"><defs><style id="current-color-scheme" type="text/css">.ColorScheme-Text{color:#dedede}</style></defs><path fill="currentColor" d="M23 15v11.086l-3.793-3.793L18.5 23l5 5 5-5-.707-.707L24 26.086V15zM16 4v1h9c1.108 0 2 .892 2 2v8h1V7c0-1.662-1.338-3-3-3h-9zM4 16v9c0 1.662 1.338 3 3 3h10v-1H7c-1.108 0-2-.892-2-2v-9H4zM14 6c0-1.108-.892-2-2-2h-2v1h2c.554 0 1 .446 1 1v2h1zm0 4h-1v2c0 .554-.446 1-1 1h-2v1h2c1.108 0 2-.892 2-2zM8 4H6c-1.108 0-2 .892-2 2v2h1V6c0-.554.446-1 1-1h2zm0 9H6c-.554 0-1-.446-1-1v-2H4v2c0 1.108.892 2 2 2h2z" class="ColorScheme-Text"/></svg>