<svg xmlns="http://www.w3.org/2000/svg" viewBox="0 0 32 32"><defs><style id="current-color-scheme" type="text/css">.ColorScheme-Text{color:#dedede}</style></defs><path fill="currentColor" d="M11 4v1h4V4zm12 0-.707.707L26.086 8.5H15v1h11.086l-3.793 3.793L23 14l5-5zM4 11v4h1v-4zm23 4v5h1v-5zM4 17v3h1v-3zm8 10v1h3v-1zm5 0v1h4v-1zM7 4C5.338 4 4 5.338 4 7v2h1V7c0-1.108.892-2 2-2h2V4zm20 19v2c0 1.108-.892 2-2 2h-2v1h2c1.662 0 3-1.338 3-3v-2zM6 21c-1.108 0-2 .892-2 2v3c0 1.108.892 2 2 2h3c1.108 0 2-.892 2-2v-3c0-1.108-.892-2-2-2zm0 1h3c.554 0 1 .446 1 1v3c0 .554-.446 1-1 1H6c-.554 0-1-.446-1-1v-3c0-.554.446-1 1-1z" class="ColorScheme-Text"/></svg>