<svg xmlns="http://www.w3.org/2000/svg" viewBox="0 0 32 32"><defs><style id="current-color-scheme" type="text/css">.ColorScheme-Text{color:#dedede}</style></defs><path fill="currentColor" d="M21 20v1h9v-1zm0 3v1h9v-1zm0 3v1h9v-1zM6.516 16l.728.727-4.24 4.228L12 21v1l-9.06-.018 4.305 4.291-.729.727L1 21.5z" class="ColorScheme-Text"/><path fill="currentColor" d="M6 5a3.987 3.987 0 0 0-3.986 3.73L2 8.72V16h1v-5.258L9.777 16l.803.623 3.604 2.795c.998.775 2.633.775 3.632 0l3.604-2.795L24.484 19h1.606l-3.867-3L29 10.742V19h1V8.723l-.014.012A3.987 3.987 0 0 0 26 5H6zm0 1h20c1.662 0 3 1.338 3 3v.498l-11.986 9.299c-.568.44-1.457.439-2.025-.002L3 9.495V9c0-1.662 1.338-3 3-3zm6 20v1h8v-1h-8z" class="ColorScheme-Text"/></svg>