<svg xmlns="http://www.w3.org/2000/svg" viewBox="0 0 32 32"><defs><style id="current-color-scheme" type="text/css">.ColorScheme-Text{color:#dedede}</style></defs><path fill="currentColor" d="M26.455 14.916a2.5 2.5 0 0 0-2.5 2.5v6.035h.002a1.5 1.5 0 0 0 2.998-.035v-5.5h-1v5.5a.5.5 0 0 1-1 0v-6a1.5 1.5 0 1 1 3 0v6a2.5 2.5 0 0 1-5 0v-6.5h-1v6.5a3.5 3.5 0 1 0 7 0v-6.035h-.002a2.5 2.5 0 0 0-2.498-2.465z" class="ColorScheme-Text"/><path fill="currentColor" d="M6 5a3.987 3.987 0 0 0-3.986 3.734L2 8.723v14.556l.014-.012A3.987 3.987 0 0 0 6 26.999h13v-1H6c-1.662 0-3-1.338-3-3v-.496l7.58-5.88 3.604 2.794c.999.775 2.634.775 3.632 0L19 18.5v-1.248l-1.988 1.543c-.568.44-1.458.443-2.026.002L3 9.498v-.499c0-1.662 1.338-3 3-3h20c1.662 0 3 1.338 3 3v.495l-5.808 4.505h1.61L29 10.742v3.257h1V8.72l-.013.011A3.987 3.987 0 0 0 26 5H6zm-3 5.742L9.777 16 3 21.258V10.742z" class="ColorScheme-Text"/></svg>