<svg xmlns="http://www.w3.org/2000/svg" viewBox="0 0 32 32"><path fill="currentColor" d="M6 5a3.987 3.987 0 0 0-3.986 3.734L2 8.723V23.279l.014-.012A3.987 3.987 0 0 0 6 27h20a3.987 3.987 0 0 0 3.986-3.733l.014.012V8.719l-.014.011A3.987 3.987 0 0 0 26 5H6zm0 1h20c1.662 0 3 1.338 3 3v.494l-11.988 9.3c-.568.442-1.457.444-2.025.003L3 9.498V9c0-1.662 1.338-3 3-3zm-3 4.742L9.777 16 3 21.258V10.742zm26 0v10.516L22.223 16 29 10.743zm-18.42 5.881 3.603 2.795c1 .775 2.634.775 3.633 0l3.604-2.795L29 22.504V23c0 1.662-1.338 3-3 3H6c-1.662 0-3-1.338-3-3v-.496l7.58-5.88z" style="color:#dedede"/></svg>