<svg xmlns="http://www.w3.org/2000/svg" viewBox="0 0 32 32"><path fill="currentColor" d="M22 15v2h1v-1h4v1h1v-2h-5zm-3 3v1h2v8h8v-8h2v-1zm3 1h6v7h-6z" style="color:#da4453"/><path fill="currentColor" d="M6 5a3.987 3.987 0 0 0-3.986 3.734L2 8.723V23.279l.014-.012A3.987 3.987 0 0 0 6 27h13v-1H6c-1.662 0-3-1.338-3-3v-.496l7.58-5.881 3.604 2.795c.999.774 2.634.774 3.632 0l.184-.143v-1.248l-.988.768c-.568.44-1.458.442-2.026.001L3 9.498V9c0-1.662 1.338-3 3-3h20c1.662 0 3 1.338 3 3v.494L23.192 14h1.61L29 10.742V14h1V8.718l-.013.012A3.987 3.987 0 0 0 26 5H6zm-3 5.742L9.777 16 3 21.258V10.742z" style="color:#dedede"/></svg>