<svg xmlns="http://www.w3.org/2000/svg" viewBox="0 0 32 32"><defs><style id="current-color-scheme" type="text/css">.ColorScheme-Text{color:#dedede}</style></defs><path fill="currentColor" d="M16 2.63c-.663 0-1.327.183-1.83.548L11.658 5H8C6.338 5 5 6.338 5 8v1.832L2.012 12H2v4h1v-3h2.91l3.867 3 .803.623 3.604 2.795c.999.775 2.634.775 3.632 0l3.604-2.795.803-.623 3.867-3H29v3h1v-4h-.014L27 9.832V8c0-1.662-1.338-3-3-3h-3.66l-2.512-1.822c-.503-.365-1.165-.547-1.828-.547zm0 .847c.36 0 .72.1 1 .304l1.68 1.22h-5.36L15 3.78c.28-.203.64-.304 1-.304zM8 6h16c1.108 0 2 .892 2 2v4h-.2l-1.314 1h-.006l-7.468 5.795c-.568.44-1.458.442-2.026.002L7.514 13l-1.315-1H6V8c0-1.108.893-2 2-2zm-3 5.037V12H3.672zm22 0 1.328.963H27zM9 26v1h14v-1z" class="ColorScheme-Text"/><path fill="currentColor" d="m6.516 16 .728.727-4.24 4.228L12 21v1l-9.06-.018 4.305 4.291-.729.727L1 21.5zM25.484 16l-.729.727 4.24 4.228L20 21v1l9.06-.018-4.305 4.291.729.727 5.515-5.5z" class="ColorScheme-Text"/></svg>