<svg xmlns="http://www.w3.org/2000/svg" viewBox="0 0 32 32"><path fill="#ed333b" d="M25 15a3 3 0 0 0-3 3v3c-1.108 0-2 .892-2 2v2c0 1.108.892 2 2 2h6c1.108 0 2-.892 2-2v-2c0-1.108-.892-2-2-2v-3a3 3 0 0 0-3-3zm0 1a2 2 0 0 1 2 2v3h-4v-3a2 2 0 0 1 2-2zm-3 6h6c.554 0 1 .446 1 1v2c0 .554-.446 1-1 1h-6c-.554 0-1-.446-1-1v-2c0-.554.446-1 1-1z"/><path fill="currentColor" d="M6 5a3.987 3.987 0 0 0-3.986 3.734L2 8.723v14.556l.014-.012A3.987 3.987 0 0 0 6 26.999h13v-1H6c-1.662 0-3-1.338-3-3v-.496l7.58-5.88 3.604 2.794c.999.775 2.634.775 3.632 0L19 18.5v-1.248l-1.988 1.543c-.568.44-1.458.443-2.026.002L3 9.498v-.499c0-1.662 1.338-3 3-3h20c1.662 0 3 1.338 3 3v.495l-5.808 4.505h1.61L29 10.742V15h1V8.718l-.013.012A3.987 3.987 0 0 0 26 5H6zm-3 5.742L9.777 16 3 21.258V10.742z" style="color:#dedede"/></svg>