<svg xmlns="http://www.w3.org/2000/svg" viewBox="0 0 32 32"><defs><style id="current-color-scheme" type="text/css">.ColorScheme-Text{color:#dedede}</style></defs><path fill="currentColor" d="M25.5 17a2.5 2.5 0 1 0 0 5 2.5 2.5 0 0 0 0-5zm0 6c-1.933 0-3.5 1.79-3.5 4h7c0-2.21-1.567-4-3.5-4zm0 1c1.058.002 2 .803 2.353 2h-4.707c.353-1.197 1.296-1.998 2.354-2z" class="ColorScheme-Text"/><path fill="currentColor" d="M16.012 2.63c.663 0 1.327.183 1.83.548L20.354 5h3.658c1.662 0 3 1.338 3 3v1.832L30 12h.012v4h-1v-3h-2.91l-3.867 3-.803.623-3.604 2.795c-.999.775-2.634.775-3.632 0l-3.604-2.795-7.58 5.881V23c0 1.662 1.338 3 3 3H20v1H6.012a3.987 3.987 0 0 1-3.986-3.732l-.014.011V12h.014l2.986-2.168V8c0-1.662 1.338-3 3-3h3.66l2.512-1.822c.503-.365 1.165-.547 1.828-.547zm0 .847c-.36 0-.72.1-1 .304l-1.68 1.22h5.36l-1.68-1.22a1.714 1.714 0 0 0-1-.304zm8 2.523h-16c-1.108 0-2 .892-2 2v4h.2l1.314 1h.006L15 18.795c.568.44 1.458.442 2.026.002L24.498 13l1.315-1h.2V8c0-1.108-.893-2-2-2zm3 5.037V12h1.328zm-22 0L3.684 12h1.328zM5.922 13h-2.91v8.258L9.789 16z" class="ColorScheme-Text"/></svg>