<svg xmlns="http://www.w3.org/2000/svg" viewBox="0 0 32 32"><defs><style id="current-color-scheme" type="text/css">.ColorScheme-Text{color:#dedede}</style></defs><path fill="currentColor" d="M2 13v1h6v-1zm2 3v1h4v-1zm2 3v1h2v-1zM9 5v1h17c1.662 0 3 1.338 3 3v.494l-11.988 9.3c-.568.442-1.457.443-2.025.003L9 14.152v1.244l.778.604-.778.604v1.246l1.58-1.227 3.604 2.795c.999.775 2.634.775 3.633 0l3.603-2.795 7.58 5.88V23c0 1.662-1.338 3-3 3H9v1h17a3.987 3.987 0 0 0 3.987-3.732l.013.011V8.72l-.013.01A3.987 3.987 0 0 0 26 5H9zm20 5.742v10.516L22.223 16 29 10.743z" class="ColorScheme-Text"/></svg>