<svg xmlns="http://www.w3.org/2000/svg" viewBox="0 0 32 32"><defs><style id="current-color-scheme" type="text/css">.ColorScheme-Text{color:#dedede}</style></defs><path fill="currentColor" d="m6.516 16 .728.727-4.24 4.228L12 21v1l-9.06-.018 4.305 4.291-.729.727L1 21.5z" class="ColorScheme-Text"/><path fill="currentColor" d="M26 5a3.987 3.987 0 0 1 3.986 3.734L30 8.723V23.28l-.014-.012A3.987 3.987 0 0 1 26 27H12v-1h14c1.662 0 3-1.338 3-3v-.496l-7.58-5.88-3.604 2.794c-.999.775-2.634.775-3.632 0l-3.604-2.795L9.777 16 3 10.743V16H2V8.72l.014.01A3.987 3.987 0 0 1 6 5zm0 1H6C4.338 6 3 7.338 3 9v.494l11.988 9.3c.568.442 1.457.443 2.025.003L29 9.498V9c0-1.662-1.338-3-3-3zm3 4.742L22.223 16 29 21.258z" class="ColorScheme-Text"/></svg>