<svg xmlns="http://www.w3.org/2000/svg" viewBox="0 0 32 32"><path fill="currentColor" d="M24 15v8h2v-8h-2zm0 10v2h2v-2h-2z" style="color:#da4453"/><path fill="currentColor" d="M6 5a3.987 3.987 0 0 0-3.986 3.734L2 8.723v14.556l.014-.012A3.987 3.987 0 0 0 6 26.999h15v-1H6c-1.662 0-3-1.338-3-3v-.496l7.58-5.88 3.604 2.794c.999.775 2.634.775 3.632 0L21 16.948V15.7l-3.988 3.094c-.568.44-1.458.443-2.026.002L3 9.497V9c0-1.662 1.338-3 3-3h20c1.662 0 3 1.338 3 3v.495l-5.808 4.505h1.61L29 10.742v3.257h1V8.72l-.013.011A3.987 3.987 0 0 0 26 5H6zm-3 5.742L9.777 16 3 21.258V10.742z" style="color:#dedede"/></svg>