<svg xmlns="http://www.w3.org/2000/svg" viewBox="0 0 32 32"><path fill="currentColor" d="M16 2.63c-.663 0-1.327.183-1.83.548L11.658 5H8C6.338 5 5 6.338 5 8v1.832L2.012 12H2V23.28l.014-.012A3.987 3.987 0 0 0 6 27h20a3.987 3.987 0 0 0 3.986-3.732l.014.011V12h-.014L27 9.832V8c0-1.662-1.338-3-3-3h-3.66l-2.512-1.822c-.503-.365-1.165-.547-1.828-.547zm0 .847c.36 0 .72.1 1 .304l1.68 1.22h-5.36L15 3.78c.28-.203.64-.304 1-.304zM8 6h16c1.108 0 2 .892 2 2v4h-.2l-1.314 1h-.006l-7.468 5.795c-.568.44-1.458.442-2.026.002L7.514 13l-1.315-1h-.2V8c0-1.108.893-2 2-2zm-3 5.037V12H3.672L5 11.037zm22 0 1.328.963H27v-.963zM3 13h2.91l3.867 3L3 21.258V13zm23.09 0H29v8.258L22.223 16l3.867-3zm-15.51 3.623 3.603 2.795c1 .775 2.634.775 3.633 0l3.604-2.795 7.58 5.88V23c0 1.662-1.338 3-3 3H6c-1.662 0-3-1.338-3-3v-.496l7.58-5.881z" style="color:#dedede"/></svg>