<svg xmlns="http://www.w3.org/2000/svg" viewBox="0 0 32 32"><defs><style id="current-color-scheme" type="text/css">.ColorScheme-Text{color:#dedede}</style></defs><path fill="currentColor" d="M6 5C3.784 5 2 6.784 2 9v8h1v-5h26v11c0 1.662-1.338 3-3 3H10v1h16c2.216 0 4-1.784 4-4V9c0-2.216-1.784-4-4-4zm0 1h20c1.662 0 3 1.338 3 3v2H3V9c0-1.662 1.338-3 3-3z" class="ColorScheme-Text"/><path fill="currentColor" d="m6.516 16 .728.727-4.24 4.228L12 21v1l-9.06-.018 4.305 4.291-.729.727L1 21.5z" class="ColorScheme-Text"/></svg>