<svg xmlns="http://www.w3.org/2000/svg" viewBox="0 0 32 32"><radialGradient id="c" cx="9.875" cy="15.125" r="14" gradientTransform="matrix(0 2.14286 -2.14286 0 42.41 -11.16)" gradientUnits="userSpaceOnUse"><stop offset="0" stop-color="#fc9"/><stop offset="1" stop-color="#feb01b"/></radialGradient><radialGradient id="b" cx="9.875" cy="15.125" r="14" gradientTransform="matrix(0 2.14286 -2.14286 0 42.41 -11.16)" gradientUnits="userSpaceOnUse"><stop offset="0" stop-color="#f9917f"/><stop offset="1" stop-color="#fa3033"/></radialGradient><radialGradient id="a" cx="9.875" cy="15.125" r="14" gradientTransform="matrix(0 2.14286 -2.14286 0 42.41 -11.16)" gradientUnits="userSpaceOnUse"><stop offset="0" stop-color="#7dd89b"/><stop offset="1" stop-color="#0ddb6e"/></radialGradient><radialGradient id="d" cx="9.875" cy="15.125" r="14" gradientTransform="matrix(0 2.14286 -2.14286 0 42.41 -10.16)" gradientUnits="userSpaceOnUse"><stop offset="0" stop-color="#81c6d6"/><stop offset="1" stop-color="#279dd8"/></radialGradient><g stroke-linejoin="round"><path fill="url(#a)" d="M16 2C8.268 2 2 8.268 2 16a14 14 0 0 0 7 12.123L16 17l7-12.123v-1A14 14 0 0 0 16 2z" transform="matrix(1 0 0 .97754 0 .352)"/><path fill="url(#b)" d="M3.877 9A14 14 0 0 0 2 16c0 7.732 6.268 14 14 14a14 14 0 0 0 11.694-6.304c.018-.036-.027-.96-.027-.96z" transform="matrix(1 0 0 .97754 0 .352)"/><path fill="url(#c)" d="M12.377 2.479A14 14 0 0 0 2 16a14 14 0 0 0 14 14 14 14 0 0 0 3.623-.479z" transform="matrix(1 0 0 .97754 0 .352)"/><path fill="url(#d)" d="m24.66 5-5.93 10.27v1l10.268 5.927A14 14 0 0 0 30 17v-1a14 14 0 0 0-5.34-11z" transform="matrix(1 0 0 .97754 0 .352)"/><path fill-opacity=".149" d="m23 4.142-7 11.85.434.245L23 5.119zm-4.27 11.136v.978l10.268 5.794A13.417 13.417 0 0 0 30 16.97c0-.15-.02-.297-.025-.447a13.412 13.412 0 0 1-.977 4.55zm-16.71.256c-.007.158-.01.316-.01.474 0 7.558 6.268 13.685 14 13.685 5.187 0 9.531-2.836 11.702-6.213l-.018.036-.027-.939c-2.522 3.631-6.848 6.138-11.657 6.139-7.531 0-13.713-5.825-13.99-13.182z"/></g></svg>