<svg xmlns="http://www.w3.org/2000/svg" viewBox="0 0 32 32"><path d="M20.5 4A4.5 4.5 0 0 0 16 8.5a4.5 4.5 0 0 0 4.5 4.5A4.5 4.5 0 0 0 25 8.5 4.5 4.5 0 0 0 20.5 4Zm0 1A3.5 3.5 0 0 1 24 8.5a3.5 3.5 0 0 1-3.5 3.5A3.5 3.5 0 0 1 17 8.5 3.5 3.5 0 0 1 20.5 5Zm-9 4a4.5 4.5 0 1 0 0 9 4.5 4.5 0 0 0 0-9Zm0 1a3.5 3.5 0 0 1 3.5 3.5 3.5 3.5 0 0 1-3.5 3.5A3.5 3.5 0 0 1 8 13.5a3.5 3.5 0 0 1 3.5-3.5Zm9 4a7.084 7.084 0 0 0-2.586.5 6.5 6.5 0 0 1-.322 1.242A6.124 6.124 0 0 1 20.5 15c3.59 0 6.5 3.134 6.5 7h-8.342c.17.323.326.657.465 1H28v-1c0-4.418-3.358-8-7.5-8zm-9 5C7.358 19 4 22.582 4 27v1h15v-1c0-4.418-3.358-8-7.5-8zm0 1c3.59 0 6.5 3.134 6.5 7H5c0-3.866 2.91-7 6.5-7z" style="fill:currentColor;fill-opacity:1;stroke:none;color:#dedede"/></svg>