<svg xmlns="http://www.w3.org/2000/svg" viewBox="0 0 32 32"><path d="M18 8a3.977 3.977 0 0 0-3.148 1.56c.329.113.646.251.945.419A2.981 2.981 0 0 1 18 9a2.993 2.993 0 0 1 .744 5.896c0 .035.006.069.006.104 0 .318-.032.628-.082.932A3.99 3.99 0 0 0 22 12a4 4 0 0 0-4-4Zm-5 12c-3.881 0-7 2.69-7 6.436.003.527.07 1.051.198 1.564h13.659c.129-.513.14-1.037.143-1.564C20 22.69 16.881 20 13 20Zm.027.992c3.814 0 5.973 2.274 5.973 5.444a5.48 5.48 0 0 1-.029.521H7.029A5.656 5.656 0 0 1 7 26.436c0-3.17 2.18-5.444 5.973-5.444zM19.251 17c-.257 0-.509.016-.758.043A5.756 5.756 0 0 1 18 18.14 5.92 5.92 0 0 1 19.251 18c3.154 0 5.71 2.462 5.71 5.5 0 .167-.008.334-.026.5h-4.53c.109.321.203.649.27.986l5.134.014c.124-.491.188-.995.191-1.5 0-3.59-3.022-6.5-6.749-6.5ZM13 11a4 4 0 1 0 0 8 4 4 0 0 0 0-8zm0 1a3 3 0 1 1 0 6 3 3 0 0 1 0-6zm3.027-8.2a3.68 3.68 0 0 0-3.684 3.675v.616l-1.607-1.703-.613.743 2.233 2.227L13 10l.582-.743 2.064-2.227-.644-.642-1.707 1.703v-.616c0-1.45 1.279-2.625 2.732-2.625C17.48 4.85 18 5.37 18 6.82h1c0-2.1-1.117-2.98-2.973-3.019Z" style="fill:currentColor;fill-opacity:1;stroke:none;color:#dedede"/></svg>