<svg xmlns="http://www.w3.org/2000/svg" width="32" height="32"><path fill="currentColor" d="M12 5c-1.108 0-2 .892-2 2v1H5c-1.662 0-3 1.338-3 3v13c0 1.662 1.338 3 3 3h22c1.662 0 3-1.338 3-3V11c0-1.662-1.338-3-3-3h-5V7c0-1.108-.892-2-2-2h-8zm0 1h8c.554 0 1 .446 1 1v1H11V7c0-.554.446-1 1-1zM5 9h22c1.108 0 2 .892 2 2v3H3v-3c0-1.108.892-2 2-2zm-2 6h8v1c0 1.108.892 2 2 2h6c1.108 0 2-.892 2-2v-1h8v9c0 1.108-.892 2-2 2H5c-1.108 0-2-.892-2-2v-9zm9 0h8v1c0 .554-.446 1-1 1h-6c-.554 0-1-.446-1-1v-1z" style="color:#dedede"/></svg>