<svg xmlns="http://www.w3.org/2000/svg" viewBox="0 0 32 32"><defs><style id="current-color-scheme" type="text/css">.ColorScheme-Text{color:#dedede}</style></defs><path fill="currentColor" d="M11 7a4 4 0 1 0 0 8 4 4 0 0 0 0-8m0 1a3 3 0 1 1 0 6 3 3 0 0 1 0-6m9.5 6.793-5 5-2-2-6.5 6.5.707.707 5.793-5.793 2 2 5-5L24.293 20l.707-.707z" class="ColorScheme-Text"/><path d="M8 4C5.784 4 4 5.784 4 8v16c0 2.216 1.784 4 4 4h16c2.216 0 4-1.784 4-4V8c0-2.216-1.784-4-4-4H8zm0 1h16c1.662 0 3 1.338 3 3v16c0 1.662-1.338 3-3 3H8c-1.662 0-3-1.338-3-3V8c0-1.662 1.338-3 3-3z" class="ColorScheme-Text" style="fill:currentColor"/></svg>