<svg xmlns="http://www.w3.org/2000/svg" viewBox="0 0 32 32"><path fill="currentColor" d="M6 4c-1.108 0-2 .892-2 2v6c0 1.108.892 2 2 2h3v7c0 1.108.892 2 2 2h7v3c0 1.108.892 2 2 2h6c1.108 0 2-.892 2-2v-6c0-1.108-.892-2-2-2h-6c-1.108 0-2 .892-2 2v2h-7c-.554 0-1-.446-1-1v-7h2c1.108 0 2-.892 2-2V9h4v3c0 1.108.892 2 2 2h6c1.108 0 2-.892 2-2V6c0-1.108-.892-2-2-2h-6c-1.108 0-2 .892-2 2v2h-4V6c0-1.108-.892-2-2-2H6zm0 1h6c.554 0 1 .446 1 1v6c0 .554-.446 1-1 1H6c-.554 0-1-.446-1-1V6c0-.554.446-1 1-1zm14 0h6c.554 0 1 .446 1 1v6c0 .554-.446 1-1 1h-6c-.554 0-1-.446-1-1V6c0-.554.446-1 1-1z" style="color:#dedede"/></svg>