<svg xmlns="http://www.w3.org/2000/svg" viewBox="0 0 32 32"><defs><style id="current-color-scheme" type="text/css">.ColorScheme-Text{color:#dedede}</style></defs><path fill="currentColor" d="M16 6v1h12V6zm0 5v1h12v-1zm0 9v1h8v-1zm0 5v1h8v-1zM6 4c-1.108 0-2 .892-2 2v6c0 1.108.892 2 2 2h6c1.108 0 2-.892 2-2V6c0-1.108-.892-2-2-2H6zm0 1h6c.554 0 1 .446 1 1v6c0 .554-.446 1-1 1H6c-.554 0-1-.446-1-1V6c0-.554.446-1 1-1zm0 13c-1.108 0-2 .892-2 2v6c0 1.108.892 2 2 2h6c1.108 0 2-.892 2-2v-6c0-1.108-.892-2-2-2H6z" class="ColorScheme-Text"/></svg>