<svg xmlns="http://www.w3.org/2000/svg" viewBox="0 0 32 32"><path d="m8.176 4 .049.9h4.257L8 11.191V12h6l-.033-.938H9.525l4.4-6.2V4h-5.75zM20.5 13.996v12.09l-3.793-3.793L16 23l5 5 1-1 4-4-.707-.707-3.793 3.793v-12.09h-1zm-9.42.002c-1.033 0-1.963.191-2.79.574l.327.887c.356-.17.76-.3 1.213-.393a6.087 6.087 0 0 1 1.272-.146c.584 0 1.01.14 1.279.416.273.276.408.695.408 1.258v.756l-1.234.002c-1.243 0-2.149.194-2.72.587-.564.388-.847 1-.847 1.834 0 .698.214 1.242.643 1.635.434.393 1.006.59 1.717.59 1.062 0 1.925-.403 2.588-1.213l.13 1.06h.922V16.77c0-.98-.253-1.686-.76-2.118-.501-.436-1.218-.654-2.148-.654zm.783 4.15h.928v1.696c-.58.848-1.368 1.273-2.367 1.273h-.002c-.365 0-.668-.117-.912-.35-.244-.232-.367-.56-.367-.988 0-.237.022-.437.066-.597a1.135 1.135 0 0 1 .725-.778c.204-.082.464-.145.78-.19.318-.043.7-.066 1.15-.066z" style="fill:currentColor;fill-opacity:1;stroke:none;color:#dedede"/></svg>