<svg xmlns="http://www.w3.org/2000/svg" viewBox="0 0 32 32"><defs><style id="current-color-scheme" type="text/css">.ColorScheme-Text{color:#dedede}</style></defs><path fill="#da4453" d="m16 14.71-3.293 3.293L16 21.296c-.013.025-.707.707-.707.707L12 18.71l-3.293 3.293L8 21.296l3.293-3.293L8 14.71l.707-.707L12 17.296l3.293-3.293z"/><path fill="currentColor" d="M7 4C5.338 4 4 5.338 4 7v18c0 1.662 1.338 3 3 3h18c1.662 0 3-1.338 3-3V7c0-1.662-1.338-3-3-3zm0 1h18c1.108 0 2 .892 2 2v1H5V7c0-1.108.892-2 2-2zM5 9h22v16c0 1.108-.892 2-2 2H7c-1.108 0-2-.892-2-2z" class="ColorScheme-Text"/><path fill="currentColor" d="M19 9h1v18h-1z" class="ColorScheme-Text"/></svg>