<svg xmlns="http://www.w3.org/2000/svg" viewBox="0 0 32 32"><defs><style id="current-color-scheme" type="text/css">.ColorScheme-Text{color:#dedede}</style></defs><path fill="currentColor" d="M19.5 13.5v4h-4v1h4v4h1v-4h4v-1h-4v-4z" class="ColorScheme-Text"/><path fill="currentColor" d="M25 4c1.662 0 3 1.338 3 3v18c0 1.662-1.338 3-3 3H7c-1.662 0-3-1.338-3-3V7c0-1.662 1.338-3 3-3zm0 1H7c-1.108 0-2 .892-2 2v1h22V7c0-1.108-.892-2-2-2zm2 4H5v16c0 1.108.892 2 2 2h18c1.108 0 2-.892 2-2z" class="ColorScheme-Text"/><path fill="currentColor" d="M13 9h-1v18h1z" class="ColorScheme-Text"/></svg>