<svg xmlns="http://www.w3.org/2000/svg" viewBox="0 0 32 32"><defs><style id="current-color-scheme" type="text/css">.ColorScheme-Text{color:#dedede}</style></defs><path fill="currentColor" d="M23.838 7.453 16 15.293V9.93h-1V17h7.07v-1h-5.363l7.84-7.838z" class="ColorScheme-Text"/><path d="M7 4C5.338 4 4 5.338 4 7v9h1V7c0-1.108.892-2 2-2h18c1.108 0 2 .892 2 2v18c0 1.108-.892 2-2 2h-9v1h9c1.662 0 3-1.338 3-3V7c0-1.662-1.338-3-3-3z" class="ColorScheme-Text" style="fill:currentColor"/><path d="M6 18c-1.108 0-2 .892-2 2v2h1v-2c0-.554.446-1 1-1h2v-1H6zm4 0v1h2c.554 0 1 .446 1 1v2h1v-2c0-1.108-.892-2-2-2h-2zm-6 6v2c0 1.108.892 2 2 2h2v-1H6c-.554 0-1-.446-1-1v-2H4zm9 0v2c0 .554-.446 1-1 1h-2v1h2c1.108 0 2-.892 2-2v-2h-1z" class="ColorScheme-Text" style="fill:currentColor"/></svg>