<svg xmlns="http://www.w3.org/2000/svg" viewBox="0 0 32 32"><defs><style id="current-color-scheme" type="text/css">.ColorScheme-Text{color:#dedede}</style></defs><path fill="currentColor" d="M13.709 8.25 13 8.973l6.666 7.01L13 22.99l.674.76L21 15.982zM7 4C5.338 4 4 5.338 4 7v2h1V7c0-1.108.892-2 2-2h2V4zm16 0v1h2c1.108 0 2 .892 2 2v2h1V7c0-1.662-1.338-3-3-3zM4 23v2c0 1.662 1.338 3 3 3h2v-1H7c-1.108 0-2-.892-2-2v-2zm23 0v2c0 1.108-.892 2-2 2h-2v1h2c1.662 0 3-1.338 3-3v-2z" class="ColorScheme-Text"/></svg>