<svg xmlns="http://www.w3.org/2000/svg" viewBox="0 0 32 32"><defs><style id="current-color-scheme" type="text/css">.ColorScheme-Text{color:#dedede}</style></defs><path fill="currentColor" d="M7 4C5.338 4 4 5.338 4 7v2h1V7c0-1.108.892-2 2-2h2V4zm16 0v1h2c1.108 0 2 .892 2 2v2h1V7c0-1.662-1.338-3-3-3zM4 23v2c0 1.662 1.338 3 3 3h2v-1H7c-1.108 0-2-.892-2-2v-2zm23 0v2c0 1.108-.892 2-2 2h-2v1h2c1.662 0 3-1.338 3-3v-2z" class="ColorScheme-Text"/><path d="M8 6c-1.108 0-2 .892-2 2v16c0 1.108.892 2 2 2h16c1.108 0 2-.892 2-2V8c0-1.108-.892-2-2-2H8zm0 1h16c.554 0 1 .446 1 1v16c0 .554-.446 1-1 1H8c-.554 0-1-.446-1-1V8c0-.554.446-1 1-1z" class="ColorScheme-Text" style="fill:currentColor"/></svg>