<svg xmlns="http://www.w3.org/2000/svg" viewBox="0 0 32 32"><defs><style id="current-color-scheme" type="text/css">.ColorScheme-Text{color:#dedede}</style></defs><path fill="currentColor" d="m16 4-3 3h6zm-9 9-3 3 3 3zm18 0v6l3-3zM13 25l3 3 3-3z" class="ColorScheme-Text"/><path d="M7 4C5.338 4 4 5.338 4 7v2h1V7c0-1.108.892-2 2-2h2V4H7zm16 0v1h2c1.108 0 2 .892 2 2v2h1V7c0-1.662-1.338-3-3-3h-2zM4 23v2c0 1.662 1.338 3 3 3h2v-1H7c-1.108 0-2-.892-2-2v-2H4zm23 0v2c0 1.108-.892 2-2 2h-2v1h2c1.662 0 3-1.338 3-3v-2h-1z" class="ColorScheme-Text" style="fill:currentColor"/></svg>