<svg xmlns="http://www.w3.org/2000/svg" viewBox="0 0 32 32"><defs><style id="current-color-scheme" type="text/css">.ColorScheme-Text{color:#dedede}</style></defs><path fill="currentColor" d="M11 4v1h4V4zm6 0v1h4V4zm-2.07 6v1h5.363l-7.84 7.838.71.709L21 11.707v5.363h1V10zM4 11v4h1v-4zm23 0v4h1v-4zM4 17v3h1v-3zm23 0v4h1v-4zM12 27v1h3v-1zm5 0v1h4v-1zM7 4C5.338 4 4 5.338 4 7v2h1V7c0-1.108.892-2 2-2h2V4zm16 0v1h2c1.108 0 2 .892 2 2v2h1V7c0-1.662-1.338-3-3-3zm4 19v2c0 1.108-.892 2-2 2h-2v1h2c1.662 0 3-1.338 3-3v-2zM6 21c-1.108 0-2 .892-2 2v3c0 1.108.892 2 2 2h3c1.108 0 2-.892 2-2v-3c0-1.108-.892-2-2-2H6zm0 1h3c.554 0 1 .446 1 1v3c0 .554-.446 1-1 1H6c-.554 0-1-.446-1-1v-3c0-.554.446-1 1-1z" class="ColorScheme-Text"/></svg>