<?xml version="1.0" encoding="UTF-8"?>
<svg width="24" height="24" fill="none" version="1.1" xmlns="http://www.w3.org/2000/svg">
 <rect x="1" y="1" width="22" height="22" rx="6.6" fill="url(#a)" opacity=".9" stroke="gray" stroke-opacity=".2" vector-effect="non-scaling-stroke" style="-inkscape-stroke:hairline"/>
 <text x="11.98832" y="13.062226" fill="#fafafa" font-family="Lato" font-weight="bold" opacity=".9" stroke-width=".88121" text-anchor="middle"><tspan font-size="5px" stroke-width=".88121">MSX</tspan></text>
 <defs>
  <linearGradient id="a" x1=".05" x2="1" y2="1" gradientTransform="scale(22)" gradientUnits="userSpaceOnUse">
   <stop stop-color="#0f00e7" offset=".2"/>
   <stop stop-color="#2654ec" offset=".205"/>
   <stop stop-color="#0d0099" offset="1"/>
  </linearGradient>
 </defs>
 <path d="m8.422 15.511c-0.61732 0-1.2049 0.11717-1.7637 0.35156-0.5594 0.22894-1.0538 0.56129-1.4844 0.99805-0.43676 0.43608-0.77342 0.93346-1.0078 1.4922-0.22894 0.55395-0.3418 1.1385-0.3418 1.7559-1e-7 0.18601 0.00472 0.41091 0.015625 0.67188 0.010902 0.26096 0.031158 0.54249 0.0625 0.8457 0.011222 0.091 0.025457 0.1845 0.039062 0.27734 0.36158 0.2404 0.74878 0.44515 1.1562 0.61133-0.016792-0.07309-0.036603-0.14436-0.050781-0.21875-0.058598-0.30321-0.10469-0.59319-0.13672-0.86914-0.026575-0.28277-0.045741-0.53737-0.056641-0.76562-0.00545-0.22962-0.00781-0.41442-0.00781-0.55273 0-0.49536 0.093283-0.95805 0.2793-1.3887 0.19215-0.43676 0.44674-0.8152 0.76562-1.1348 0.32501-0.32433 0.70346-0.57893 1.1348-0.76562 0.43676-0.19146 0.90181-0.28711 1.3965-0.28711h7.1543c0.49535 0 0.95932 0.09565 1.3906 0.28711 0.43608 0.1867 0.81452 0.44129 1.1348 0.76562 0.32433 0.31956 0.57893 0.69869 0.76563 1.1348 0.19078 0.43131 0.28711 0.89332 0.28711 1.3887 0 0.13764-0.0055 0.32243-0.01563 0.55273-0.0055 0.22826-0.02462 0.48286-0.05664 0.76562-0.02658 0.27595-0.06835 0.56593-0.12695 0.86914-0.01416 0.07433-0.03397 0.14573-0.05078 0.21875 0.40466-0.16516 0.78903-0.36902 1.1484-0.60742 0.01324-0.09417 0.02739-0.18897 0.03711-0.28125 0.03755-0.30321 0.0621-0.58474 0.07227-0.8457 0.01016-0.26096 0.01367-0.48586 0.01367-0.67188 0-0.61732-0.1159-1.2019-0.34961-1.7559-0.22962-0.5594-0.56197-1.0581-0.99805-1.4941-0.43608-0.43608-0.93346-0.76716-1.4922-0.99609-0.55395-0.23439-1.1398-0.35156-1.7578-0.35156zm-1.5312 3.0645v1.0234h-1.0234v1.0215h1.0234v1.0215h1.0215v-1.0215h1.0215v-1.0215h-1.0215v-1.0234zm8.1758 0c-0.14377-6.86e-4 -0.27775 0.02624-0.40039 0.08008-0.12264 0.05382-0.23205 0.12921-0.32812 0.22461-0.08925 0.0913-0.16101 0.19835-0.21484 0.32031-0.05381 0.12196-0.07879 0.25467-0.07813 0.39844 6.87e-4 0.14378 0.02693 0.2758 0.08008 0.39844 0.05315 0.12265 0.12422 0.23274 0.21484 0.32812 0.0954 0.09062 0.20548 0.1617 0.32812 0.21484 0.12265 0.05315 0.25467 0.08008 0.39844 0.08008 0.14309 0 0.2758-0.02693 0.39844-0.08008 0.12265-0.05314 0.22969-0.12549 0.32031-0.2168 0.09403-0.09675 0.16814-0.20488 0.22266-0.32617 0.0545-0.12128 0.0827-0.25399 0.08203-0.39844-6.87e-4 -0.14445-0.02888-0.27843-0.08203-0.40039-0.05315-0.12197-0.12727-0.22774-0.22266-0.31836-0.0913-0.09607-0.19835-0.17146-0.32031-0.22461-0.12196-0.05315-0.25399-0.08008-0.39844-0.08008zm2.043 2.0449c-0.14378-6.86e-4 -0.2758 0.02624-0.39844 0.08008-0.12264 0.05382-0.23205 0.12726-0.32813 0.22266-0.08925 0.0913-0.16101 0.19835-0.21484 0.32031-0.05381 0.12197-0.08075 0.25467-0.08008 0.39844 6.86e-4 0.14377 0.02888 0.27775 0.08203 0.40039 0.05315 0.12265 0.12422 0.23079 0.21484 0.32617 0.0954 0.09062 0.20353 0.16365 0.32617 0.2168 0.12265 0.05315 0.25662 0.08008 0.40039 0.08008 0.14309 0 0.2758-0.02693 0.39844-0.08008 0.12265-0.05314 0.22969-0.12549 0.32031-0.2168 0.09402-0.09675 0.16814-0.20684 0.22266-0.32812 0.0545-0.12128 0.08075-0.25399 0.08008-0.39844-6.86e-4 -0.14445-0.02693-0.27647-0.08008-0.39844-0.05315-0.12197-0.12727-0.22969-0.22266-0.32031-0.09131-0.09607-0.19835-0.16951-0.32031-0.22266-0.12196-0.05315-0.25594-0.08008-0.40039-0.08008z" fill="#fefefe" opacity=".5" style="-inkscape-stroke:hairline"/>
</svg>
