<svg xmlns="http://www.w3.org/2000/svg" width="24" height="24" fill="none">
<rect width="22" height="22" opacity="0.9" fill="url(#a)" rx="6.6" style="vector-effect:non-scaling-stroke;-inkscape-stroke:hairline;stroke-width:1;stroke-dasharray:none;stroke:gray;stroke-opacity:.2" transform="matrix(-1 0 0 1 23 1)"/>
<path fill="#ffffff" d="M16.95 15.3v3.575a.274.274 0 0 1-.275.275h-1.65a.274.274 0 0 1-.275-.275V15.3zm-.55 2.2h-1.1v1.1h1.1zM15.85 1v1.1h-1.1V1zm0 1.1h1.1v1.1h-1.1zm0 1.1v1.1h-1.1V3.2zm0 1.1h1.1v1.1h-1.1zm0 1.1v1.1h-1.1V5.4zm0 1.1h1.1v1.1h-1.1zm0 1.1v1.1h-1.1V7.6zm0 1.1h1.1v1.1h-1.1zm0 1.1v1.1h-1.1V9.8zm0 1.1h1.1V12h-1.1zm0 1.1v1.1h-1.1V12zm0 1.1h1.1v1.1h-1.1zm0 1.1v1.1h-1.1v-1.1zM4 14.363v.623h7.48v-.623zm0 1.247v.623h6.233v-.623zm0 1.246v.624h7.48v-.624zm0 1.247v.623h4.987v-.623zm2.423-7.817v.428a1.4 1.4 0 0 0-.44-.286 1.3 1.3 0 0 0-.492-.094q-.514 0-.789.316-.273.314-.273.91 0 .593.273.909.274.314.789.314.262 0 .493-.095.234-.094.439-.286v.425a1.66 1.66 0 0 1-.956.29q-.682 0-1.075-.417Q4 12.28 4 11.56q0-.726.392-1.142Q4.785 10 5.467 10q.27 0 .507.072.24.071.449.214m1.631.168-.551 1.494h1.105zm-.229-.4h.46l1.146 3.003h-.423l-.274-.77H7.38l-.273.77h-.429zm2.451 1.569v1.1h.652q.328 0 .484-.135.16-.136.16-.416 0-.282-.16-.415-.156-.134-.484-.134zm0-1.236v.906h.601q.298 0 .443-.111.147-.113.147-.342 0-.228-.147-.34-.145-.113-.443-.113zm-.407-.334h1.039q.464 0 .716.193.25.194.251.55 0 .276-.129.438a.58.58 0 0 1-.378.204q.3.063.465.27a.78.78 0 0 1 .167.508q0 .403-.274.622-.274.22-.778.22H9.869z"/>
<defs>
<linearGradient id="a" gradientTransform="scale(33)" gradientUnits="userSpaceOnUse">
<stop stop-color="#F2C6A3"/>
<stop offset="1" stop-color="#D59868"/>
</linearGradient>
</defs>
</svg>
