<?xml version="1.0" encoding="UTF-8"?>
<svg width="24" height="24" fill="none" version="1.1" xmlns="http://www.w3.org/2000/svg">
 <rect x="1" y="1" width="22" height="22" rx="6.6" fill="url(#a)" opacity=".85" stroke="gray" stroke-opacity=".2" vector-effect="non-scaling-stroke" style="-inkscape-stroke:hairline"/>
 <path d="m16.747 2.8587c0.53107 2.0908-1.8728 2.7232-2.7395 4.0251-0.59078 0.88663 0.28951 1.8402 1.4901 2.9241-0.46774-1.0585-2.0555-1.9841 0-3.6089 2.5658-2.0239 1.2503-3.3402 1.2503-3.3402zm1.586 2.5875s-4.3354 1.082-2.2645 3.4687c0.61069 0.70388-0.16014 1.3363-0.16014 1.3363s1.5507-0.80068 0.83868-1.804c-0.66588-0.93458-1.1761-1.3996 1.586-3.001m0.76902 4.2622q-0.23161-9.05e-4 -0.48041 0.08504c-0.133 0.04705-0.20356 0.15652-0.20356 0.15652s0.08414-0.03347 0.27142-0.07238c0.7672-0.16014 1.8664 1.0269-0.51026 2.2618-0.01086 0.02895-0.04704 0.06152-0.04704 0.06152 2.8264-0.74278 2.2102-2.4952 0.96896-2.4925zm-5.0936 0.12033c-0.18547-0.0045-0.99067 0.0081-1.9524 0.47317-1.3001 0.62878 3.2163 0.91468 5.5541 0.30037 0.24337-0.16647 0.57902-0.31032 0.57902-0.31032s-0.95629 0.17099-1.909 0.25061c-1.1671 0.09862-2.4174 0.11761-3.0453 0.03348-1.4865-0.19904 0.81425-0.74549 0.81425-0.74549l-0.03981-0.0018zm-0.49488 1.4385c-2.1442 0.71202 1.1942 1.5199 4.1916 0.64235a1.538 1.538 0 0 1-0.52022-0.31665c-1.4657 0.28137-2.3125 0.27232-3.3846 0.16194-0.82963-0.08595-0.2868-0.48765-0.2868-0.48765m0.30308 1.3869c-1.947 0.54374 1.1852 1.6683 3.6641 0.60616-0.40532-0.15833-0.69664-0.34108-0.69664-0.34108-1.1056 0.20899-1.6195 0.22618-2.6228 0.11128-0.82782-0.095-0.34379-0.37636-0.34379-0.37636zm-1.3526 0.9192c-0.87487 0.02714-2.5848 0.81335-1.0205 1.0676 5.0556 0.81878 9.2155-0.37003 7.9037-0.96172 0 0 0.35827 0.29584-0.39356 0.52474-1.4313 0.43246-5.9576 0.56364-7.2152 0.01628-0.45146-0.19632 0.39627-0.46865 0.66226-0.52655 0.27866-0.05971 0.43698-0.04885 0.43698-0.04885-0.07871-0.05609-0.2117-0.0769-0.37365-0.07238zm7.6865 0.75092s-0.16014 0.40984-1.8854 0.73464c-1.947 0.36641-4.3481 0.32299-5.7721 0.08866 0 0 0.29132 0.24066 1.7914 0.33746 2.2799 0.14566 5.783-0.08142 5.8662-1.1599z" clip-rule="evenodd" fill="#fff" fill-rule="evenodd" stroke-width=".90472"/>
 <path d="M6 13.994v3.249c0 .138.111.25.25.25h1.5a.25.25 0 0 0 .25-.25v-3.249zm.5 2h1v.999h-1v-1Z" fill="#FFF"/>
 <path d="M7 1v1h1V1zm0 1H6v1h1zm0 1v.999h1v-1zm0 .999H6v1h1zm0 1v.999h1v-1zm0 .999H6v1h1zm0 1v.999h1v-1H7Zm0 .999H6v1h1zm0 1v.999h1v-1zm0 .999H6v1h1zm0 1v1h1v-1zm0 1H6v.999h1zm0 .999v1h1v-1z" fill="#FFF"/>
 <text id="labelText" x="15.5" y="20" alignment-baseline="middle" fill="#ffffff" font-family="Sans" font-size="5px" letter-spacing=".5px" text-anchor="middle"><tspan>java</tspan></text>
 <defs>
  <linearGradient id="a" gradientTransform="scale(33)" gradientUnits="userSpaceOnUse">
   <stop stop-color="#FFB878" offset="0"/>
   <stop stop-color="#E6842B" offset="1"/>
  </linearGradient>
 </defs>
</svg>
