<svg xmlns="http://www.w3.org/2000/svg" width="24" height="24" fill="none">
<rect width="22" height="22" x="1" y="1" opacity="0.85" fill="url(#a)" rx="6.6" style="vector-effect:non-scaling-stroke;-inkscape-stroke:hairline;stroke-width:1;stroke-dasharray:none;stroke:gray;stroke-opacity:.2"/>
<path fill="#EDEEF8" d="M6.622 5A.62.62 0 0 0 6 5.623v12.753a.62.62 0 0 0 .92.546l11.668-6.376a.623.623 0 0 0 0-1.092L8.086 5.714 6.92 5.077A.6.6 0 0 0 6.622 5"/>
<path fill="#fff" fill-rule="evenodd" d="M3 2.867a6.6 6.6 0 0 0-1.307 1.785H3zM1 7.6c0-.63.088-1.24.253-1.817H3v2.26H1zm0 1.574v2.26h2v-2.26zm0 3.391v2.261h2v-2.26H1Zm0 3.392v.443c0 .63.088 1.24.253 1.817H3v-2.26zm2 5.176a6.6 6.6 0 0 1-1.307-1.785H3zM21 2.867c.53.515.973 1.118 1.307 1.785H21zm1.747 2.916H21v2.26h2V7.6c0-.63-.088-1.24-.253-1.817M23 9.173h-2v2.262h2zm0 3.392h-2v2.261h2v-2.26Zm0 3.392h-2v2.26h1.747A6.6 6.6 0 0 0 23 16.4zm-.693 3.39H21v1.786a6.6 6.6 0 0 0 1.307-1.785Z" clip-rule="evenodd" opacity=".2"/>
<defs>
<linearGradient id="a" gradientTransform="scale(33)" gradientUnits="userSpaceOnUse">
<stop stop-color="#748290"/>
<stop offset="1" stop-color="#636F7B"/>
</linearGradient>
</defs>
</svg>
