<svg xmlns="http://www.w3.org/2000/svg" width="24" height="24" fill="none">
<rect width="22" height="22" x="1" y="1" opacity="0.85" fill="url(#a)" rx="6.6"/>
<g fill="#fff" opacity=".75">
<path d="M12 6.683a5.317 5.317 0 1 0 0 10.634 5.317 5.317 0 0 0 0-10.634m0 .665a4.652 4.652 0 1 1 0 9.304 4.652 4.652 0 0 1 0-9.304"/>
<path d="M11.867 8.677a3.32 3.32 0 0 0-2.205.842l.472.472a2.66 2.66 0 0 1 1.733-.65A2.66 2.66 0 0 1 14.526 12h.664a3.324 3.324 0 0 0-3.323-3.323m-3.007 1.92A3.3 3.3 0 0 0 8.545 12h.663a2.7 2.7 0 0 1 .159-.896z"/>
<path d="m12.76 10.116-1.426 3.309a.8.8 0 0 0-.185.388l-.005.01h.004c-.059.372.148.721.478.805.331.083.68-.126.803-.484l.005.001v-.018l.016-.05a.8.8 0 0 0 .004-.367z"/>
</g>
<defs>
<linearGradient id="a" gradientTransform="scale(33)" gradientUnits="userSpaceOnUse">
<stop stop-color="#FEA4A1"/>
<stop offset="1" stop-color="#E46864"/>
</linearGradient>
</defs>
</svg>
