<?xml version="1.0" encoding="UTF-8"?>
<svg width="24" height="24" fill="none" version="1.1" xmlns="http://www.w3.org/2000/svg">
 <rect x="1" y="1" width="22" height="22" rx="6.6" fill="url(#a)" opacity=".9" stroke="gray" stroke-opacity=".2" vector-effect="non-scaling-stroke" style="-inkscape-stroke:hairline"/>
 <path d="m8.1041 10.196h-0.43606v-2.259q0-0.47497 0.019903-0.89205l-0.674 0.57539-0.23703-0.29765 0.94995-0.75271h0.37726zm1.2684-1.823q0-0.93186 0.27684-1.3869 0.29765-0.47497 0.87214-0.47587 0.59439 0 0.87214 0.47587 0.29674 0.45506 0.29674 1.3869 0 0.93186-0.29674 1.4068-0.27774 0.45597-0.87214 0.45597-0.57448 0-0.87214-0.45597-0.27684-0.47497-0.27684-1.4068m1.8628 0q0-0.83232-0.19904-1.1489-0.17642-0.31755-0.51477-0.31755-0.31665 0-0.51567 0.31665-0.17732 0.29855-0.17823 1.1489 0 0.87214 0.17913 1.1897 0.19813 0.29674 0.51477 0.29674 0.33655 0 0.51567-0.31665 0.19723-0.31665 0.19723-1.1689zm0.93091 0q0-0.93186 0.27774-1.3869 0.29765-0.47497 0.87118-0.47587 0.59439 0 0.87214 0.47587 0.29765 0.45506 0.29765 1.3869 0 0.93186-0.29765 1.4068-0.27774 0.45597-0.87214 0.45597-0.57448 0-0.87118-0.45597-0.27774-0.47497-0.27774-1.4068m1.8628 0q0-0.83232-0.19904-1.1489-0.17642-0.31755-0.51477-0.31755-0.31665 0-0.51567 0.31665-0.17642 0.29855-0.17732 1.1489 0 0.87214 0.17823 1.1897 0.19813 0.29674 0.51567 0.29674 0.33565 0 0.51477-0.31665 0.19813-0.31665 0.19813-1.1689m0.93091 0q0-0.93186 0.27774-1.3869 0.29765-0.47497 0.87214-0.47587 0.59529 0 0.87214 0.47587 0.29674 0.45506 0.29674 1.3869 0 0.93186-0.29674 1.4068-0.27774 0.45597-0.87214 0.45597-0.57448 0-0.87214-0.45597-0.27684-0.47497-0.27684-1.4068zm1.8636 0q0-0.83232-0.19904-1.1489-0.17732-0.31755-0.51567-0.31755-0.31574 0-0.51477 0.31665-0.17732 0.29855-0.17823 1.1489 0 0.87214 0.17823 1.1897 0.19904 0.29674 0.51567 0.29674 0.33655 0 0.51567-0.31665 0.19723-0.31665 0.19723-1.1689zm-10.245 4.4701q0-0.93091 0.27684-1.3869 0.29765-0.47587 0.87214-0.47587 0.59439 0 0.87214 0.47587 0.29674 0.45597 0.29674 1.3869 0 0.93186-0.29674 1.4068-0.27774 0.45597-0.87214 0.45597-0.57539 0-0.87214-0.45597-0.27684-0.47497-0.27684-1.4068m1.8619 0q0-0.83232-0.19813-1.1489-0.17732-0.31665-0.51567-0.31665-0.31665 0-0.51477 0.31665-0.17823 0.29674-0.17823 1.1489 0 0.87214 0.17823 1.1888 0.19813 0.29855 0.51567 0.29765 0.33655 0 0.51567-0.31665 0.19723-0.31755 0.19723-1.1698m2.4571 1.823h-0.43606v-2.259q0-0.47497 0.0199-0.89109l-0.67309 0.57448-0.23793-0.29765 0.95082-0.75271h0.37635zm1.2684-1.823q0-0.93091 0.27774-1.3869 0.29765-0.47587 0.87118-0.47587 0.59439 0 0.87214 0.47587 0.29765 0.45597 0.29765 1.3869 0 0.93186-0.29765 1.4068-0.27774 0.45597-0.87214 0.45597-0.57448 0-0.87118-0.45597-0.27774-0.47497-0.27774-1.4068m1.8628 0q0-0.83232-0.19904-1.1489-0.17642-0.31665-0.51477-0.31665-0.31665 0-0.51567 0.31665-0.17642 0.29674-0.17732 1.1489 0 0.87214 0.17823 1.1888 0.19813 0.29855 0.51567 0.29765 0.33565 0 0.51477-0.31665 0.19813-0.31755 0.19813-1.1698m0.93091 0q0-0.93091 0.27774-1.3869 0.29765-0.47587 0.87214-0.47587 0.59529 0 0.87214 0.47587 0.29674 0.45597 0.29674 1.3869 0 0.93186-0.29674 1.4068-0.27774 0.45597-0.87214 0.45597-0.57448 0-0.87214-0.45597-0.27684-0.47497-0.27684-1.4068zm1.8636 0q0-0.83232-0.19904-1.1489-0.17732-0.31665-0.51567-0.31665-0.31574 0-0.51477 0.31665-0.17732 0.29674-0.17823 1.1489 0 0.87214 0.17823 1.1888 0.19904 0.29855 0.51567 0.29765 0.33655 0 0.51567-0.31665 0.19723-0.31755 0.19723-1.1698zm-10.259 4.4701q0-0.93091 0.27774-1.3869 0.29765-0.47497 0.87119-0.47587 0.59529 0 0.87214 0.47587 0.29765 0.45597 0.29765 1.3869 0 0.93186-0.29765 1.4068-0.27684 0.45597-0.87214 0.45597-0.57448 0-0.87119-0.45597-0.27774-0.47497-0.27774-1.4068m1.8628 0q0-0.83232-0.19904-1.1489-0.17642-0.31665-0.51477-0.31665-0.31665 0-0.51567 0.31665-0.17642 0.29674-0.17732 1.1489 0 0.87214 0.17823 1.1888 0.19813 0.29855 0.51567 0.29765 0.33655 0 0.51477-0.31665 0.19813-0.31755 0.19813-1.1698m0.93091 0q0-0.93091 0.27774-1.3869 0.29674-0.47497 0.87214-0.47587 0.59439 0 0.87119 0.47587 0.29855 0.45597 0.29765 1.3869 0 0.93186-0.29765 1.4068-0.27684 0.45597-0.87119 0.45597-0.57539 0-0.87214-0.45597-0.27774-0.47497-0.27774-1.4068m1.8636 0q0-0.83232-0.19904-1.1489-0.17732-0.31665-0.51568-0.31665-0.31665 0-0.51477 0.31665-0.17823 0.29674-0.17823 1.1489 0 0.87214 0.17823 1.1888 0.19813 0.29855 0.51567 0.29765 0.33655 0 0.51568-0.31665 0.19723-0.31755 0.19723-1.1698zm2.4563 1.8239h-0.43606v-2.259q0-0.47587 0.0199-0.89205l-0.674 0.57448-0.23703-0.29674 0.94995-0.75362h0.37726zm1.2684-1.8239q0-0.93091 0.27774-1.3869 0.29765-0.47497 0.87119-0.47587 0.59529 0 0.87214 0.47587 0.29855 0.45597 0.29765 1.3869 0 0.93186-0.29765 1.4068-0.27684 0.45597-0.87214 0.45597-0.57358 0-0.87119-0.45597-0.27774-0.47497-0.27774-1.4068m1.8628 0q0-0.83232-0.19904-1.1489-0.17642-0.31665-0.51477-0.31665-0.31665 0-0.51567 0.31665-0.17732 0.29674-0.17732 1.1489 0 0.87214 0.17823 1.1888 0.19813 0.29855 0.51567 0.29765 0.33655 0 0.51477-0.31665 0.19813-0.31755 0.19813-1.1698" fill="url(#linearGradient5)" stroke-width=".90468"/>
 <defs>
  <linearGradient id="a" x1=".05" x2="1" y2="1" gradientTransform="scale(22)" gradientUnits="userSpaceOnUse">
   <stop stop-color="#347AB4" offset=".2"/>
   <stop stop-color="#fff" offset=".205"/>
   <stop stop-color="#dadada" offset="1"/>
  </linearGradient>
  <linearGradient id="linearGradient5" x1="12.518" x2="12.518" y1="4.8926" y2="19.053" gradientTransform="matrix(.90468 0 0 .90468 1.1361 1.987)" gradientUnits="userSpaceOnUse">
   <stop stop-color="#2b638e" offset=".67163"/>
   <stop stop-color="#dadada" stop-opacity="0" offset="1"/>
  </linearGradient>
 </defs>
</svg>
