<svg xmlns="http://www.w3.org/2000/svg" width="24" height="24" fill="none">
<rect width="22" height="22" x="1" y="1" opacity="0.85" fill="url(#a)" rx="6.6" style="vector-effect:non-scaling-stroke;-inkscape-stroke:hairline;stroke-width:1;stroke-dasharray:none;stroke:gray;stroke-opacity:.2"/>
<path fill="#fff" d="M5.09 17.463q0-.646.447-1.084a1.48 1.48 0 0 1 1.087-.445q.63 0 1.066.445.444.436.444 1.084a1.47 1.47 0 0 1-.444 1.074 1.45 1.45 0 0 1-1.066.437 1.5 1.5 0 0 1-1.087-.437 1.45 1.45 0 0 1-.447-1.074m-.087-6.903v2.544c3.248 0 5.885 2.643 5.885 5.896h2.55A8.44 8.44 0 0 0 5 10.562zM5.005 5v2.812A11.186 11.186 0 0 1 16.178 19h2.82A14.003 14.003 0 0 0 5.004 5Z"/>
<defs>
<linearGradient id="a" gradientTransform="scale(33)" gradientUnits="userSpaceOnUse">
<stop stop-color="#FDB67C"/>
<stop offset="1" stop-color="#E38131"/>
</linearGradient>
</defs>
</svg>
