<?xml version="1.0" encoding="UTF-8"?>
<svg width="24" height="24" fill="none" version="1.1" xmlns="http://www.w3.org/2000/svg">
 <rect x="1" y="1" width="22" height="22" rx="6.6" fill="url(#a)" opacity=".9" stroke="gray" stroke-opacity=".2" vector-effect="non-scaling-stroke" style="-inkscape-stroke:hairline"/>
 <path d="m9.7032 13.067c0.39689-0.77866 0.84896-1.6552 1.2103-2.5362l0.14238-0.34884c-0.47165-1.7958-0.75463-3.2383-0.5019-4.1701 0.06763-0.24294 0.34973-0.39155 0.65051-0.39155l0.18332 0.00356h0.03382c0.41202-0.00623 0.60602 0.51792 0.62827 0.72082 0.0356 0.33994-0.12103 0.91481-0.12103 0.91481 0-0.23137 0.0089-0.60691-0.13704-0.93083-0.16997-0.37376-0.33282-0.59712-0.47876-0.63272-0.07386 0.048944-0.14594 0.15128-0.16997 0.34706a4.9986 4.9986 0 0 0-0.06585 0.80091c0 0.63183 0.12459 1.4657 0.36842 2.3262 0.04627-0.13348 0.08721-0.26163 0.11925-0.38088 0.04983-0.18955 0.36931-1.4416 0.36931-1.4416s-0.08009 1.6668-0.19311 2.1713c-0.02403 0.10679-0.05072 0.2118-0.07831 0.32036 0.40312 1.1266 1.0536 2.1322 1.8287 2.8557 0.30524 0.28566 0.69145 0.51614 1.0563 0.72616a14.429 14.429 0 0 1 2.1446-0.16107c0.81337 0.01068 1.4105 0.13082 1.6525 0.36842 0.11836 0.11569 0.16641 0.2554 0.18065 0.41202 0.0036 0.0614-0.02581 0.20468-0.03471 0.24027 0.0089-0.0436 0.0089-0.25718-0.6434-0.46542-0.51436-0.16463-1.4772-0.16018-2.6305-0.03649 1.3348 0.65318 2.6359 0.978 3.0479 0.78311 0.10056-0.04894 0.22248-0.21624 0.22248-0.21624s-0.07119 0.32926-0.12459 0.41202a0.64962 0.64962 0 0 1-0.32036 0.21981c-0.6514 0.17353-2.3458-0.22781-3.823-1.0723a31.237 31.237 0 0 0-4.9167 1.1684c-1.4283 2.5024-2.5006 3.6521-3.3745 3.2152l-0.32125-0.16196c-0.13081-0.07475-0.15128-0.25629-0.12014-0.40401 0.10145-0.49834 0.72616-1.2485 1.9809-1.9978 0.13526-0.08187 0.73684-0.40045 0.73684-0.40045s-0.44495 0.4316-0.54996 0.51614c-1.0011 0.82138-1.7406 1.8537-1.722 2.2541l0.00356 0.03471c0.85074-0.12192 2.1269-1.8528 3.7669-5.0626zm0.5197 0.26697c-0.27409 0.51614-0.54195 0.99402-0.78934 1.4327 1.3678-0.5722 2.8388-0.93884 4.2404-1.1996a7.04 7.04 0 0 1-0.54284-0.41291c-0.77154-0.65318-1.3598-1.4683-1.786-2.3262a19.948 19.948 0 0 1-1.1222 2.506z" fill="#fff" stroke-width=".8899"/>
 <defs>
  <linearGradient id="a" x1=".05" x2="1" y2="1" gradientTransform="scale(22)" gradientUnits="userSpaceOnUse">
   <stop stop-color="#d86961" offset=".2"/>
   <stop stop-color="#EF8A83" offset=".205"/>
   <stop stop-color="#E84F43" offset="1"/>
  </linearGradient>
 </defs>
</svg>
