<?xml version="1.0" encoding="UTF-8"?>
<svg width="24" height="24" fill="none" version="1.1" xmlns="http://www.w3.org/2000/svg">
 <rect x="1" y="1" width="22" height="22" rx="6.6" fill="url(#a)" opacity=".9" stroke="gray" stroke-opacity=".2" vector-effect="non-scaling-stroke" style="-inkscape-stroke:hairline"/>
 <path d="m12 10.425c-2.2606 0-4.0989 1.8384-4.0989 4.0989s1.8384 4.0989 4.0989 4.0989c2.2606 0 4.0989-1.8384 4.0989-4.0989s-1.8384-4.0989-4.0989-4.0989m0 0.51237c1.9839 0 3.5866 1.6027 3.5866 3.5866s-1.6027 3.5866-3.5866 3.5866-3.5866-1.6027-3.5866-3.5866 1.6027-3.5866 3.5866-3.5866m-0.77675 1.0247a0.25619 0.25619 0 0 0-0.20495 0.11426l-1.0247 1.5371a0.25619 0.25619 0 1 0 0.42629 0.28386l0.55541-0.83259v2.9964a0.25619 0.25619 0 1 0 0.51237 0v-3.8428a0.25619 0.25619 0 0 0-0.26438-0.25619m1.5412 0.76446a0.25619 0.25619 0 0 0-0.25209 0.26028v3.8428a0.25619 0.25619 0 0 0 0.46933 0.14192l1.0247-1.5371a0.25619 0.25619 0 1 0-0.4263-0.28386l-0.55541 0.83259v-2.9964a0.25619 0.25619 0 0 0-0.26028-0.26028" fill="#fafafa" stroke-width=".51237"/>
 <g transform="translate(0 .64658)" alignment-baseline="middle" fill="#fafafa" font-family="Lato" font-weight="bold" text-anchor="middle">
  <text x="12" y="8"><tspan font-size="5px">torrent</tspan></text>
 </g>
 <defs>
  <linearGradient id="a" x1=".05" x2="1" y2="1" gradientTransform="scale(22)" gradientUnits="userSpaceOnUse">
   <stop stop-color="#6b71e2" offset=".2"/>
   <stop stop-color="#8c92ff" offset=".205"/>
   <stop stop-color="#6b71e2" offset="1"/>
  </linearGradient>
 </defs>
</svg>
