<svg xmlns="http://www.w3.org/2000/svg" width="24" height="24" fill="none">
<rect width="22" height="22" x="1" y="1" opacity="0.85" fill="url(#a)" rx="6.6" style="vector-effect:non-scaling-stroke;-inkscape-stroke:hairline;stroke-width:1;stroke-dasharray:none;stroke:gray;stroke-opacity:.2"/>
<path fill="#fff" d="M12 5c-3.866 0-7 .855-7 1.91v6.363c.003.273.22.542.636.79l.008.004a4 4 0 0 0 .323.169 5 5 0 0 0 .391.163 7 7 0 0 0 .46.154 10 10 0 0 0 .478.13 13 13 0 0 0 1.132.23 18 18 0 0 0 1.338.167 24 24 0 0 0 1.693.094q.27.007.541.008a25 25 0 0 0 1.55-.05 23 23 0 0 0 1.14-.098 19 19 0 0 0 1.775-.293l.124-.03q.219-.051.421-.107l.009-.003.015-.005a7 7 0 0 0 .851-.294h.001l.004-.001a5 5 0 0 0 .34-.162l.005-.002.129-.074c.416-.248.633-.517.636-.79V6.909C19 5.855 15.866 5 12 5m0 10.182h-.636v1.909H12v.636H6.91v-.636H5V19h1.91v-.636h10.18V19H19v-1.91h-1.91v.637h-4.455v-.636h.637v-1.91zm0-9.546c3.515 0 6.364.57 6.364 1.273S15.514 8.182 12 8.182c-3.515 0-6.364-.57-6.364-1.273S8.486 5.636 12 5.636M5.636 7.7C6.772 8.38 9.26 8.817 12 8.82c2.742-.001 5.228-.439 6.364-1.12v2.392c0 .703-2.85 1.273-6.364 1.273-3.515 0-6.364-.57-6.364-1.273V7.699Zm0 3.182C6.772 11.561 9.26 12 12 12c2.742 0 5.228-.438 6.364-1.119v2.392c0 .337-.67.661-1.864.9-1.194.238-2.812.373-4.5.373s-3.306-.135-4.5-.373c-1.193-.239-1.864-.563-1.864-.9V10.88ZM12 15.818h.636v.636H12zm-6.364 1.91h.637v.636h-.637v-.637Zm12.091 0h.637v.636h-.637v-.637Z" opacity=".75"/>
<defs>
<linearGradient id="a" gradientTransform="scale(33)" gradientUnits="userSpaceOnUse">
<stop stop-color="#B084D7"/>
<stop offset="1" stop-color="#783CAF"/>
</linearGradient>
</defs>
</svg>
