<?xml version="1.0" encoding="UTF-8"?>
<svg width="24" height="24" fill="none" version="1.1" xmlns="http://www.w3.org/2000/svg">
 <rect x="1" y="1" width="22" height="22" rx="6.6" fill="url(#a)" opacity=".9" stroke="gray" stroke-opacity=".2" vector-effect="non-scaling-stroke" style="-inkscape-stroke:hairline"/>
 <text x="11.98832" y="11" fill="#bbcaff" font-family="Lato" font-weight="bold" opacity=".9" stroke-width=".88121" text-anchor="middle"><tspan font-family="Lato" font-size="5px" font-weight="bold" stroke-width=".88121">Sega</tspan></text>
 <text x="11.98832" y="16" fill="#bbcaff" font-family="Lato" font-weight="bold" opacity=".9" stroke-width=".88121" text-anchor="middle"><tspan font-family="Lato" font-size="5px" font-weight="bold" stroke-width=".88121">32X</tspan></text>
 <defs>
  <linearGradient id="a" x1=".05" x2="1" y2="1" gradientTransform="scale(22)" gradientUnits="userSpaceOnUse">
   <stop stop-color="#bbcaff" offset=".2"/>
   <stop stop-color="#58747f" offset=".205"/>
   <stop stop-color="#35454c" offset="1"/>
  </linearGradient>
 </defs>
 <path d="m8.4186 17.492c-0.61732 0-1.2049 0.11717-1.7637 0.35156-0.5594 0.22894-1.0538 0.56129-1.4844 0.99805-0.43676 0.43608-0.77343 0.93345-1.0078 1.4922-0.19317 0.46739-0.30221 0.95643-0.33203 1.4688 0.31935 0.22166 0.65828 0.4188 1.0156 0.58203-0.00145-0.10001-0.00391-0.22112-0.00391-0.29492 0-0.49536 0.09328-0.95802 0.2793-1.3887 0.19215-0.43676 0.44675-0.81517 0.76562-1.1348 0.32501-0.32433 0.70343-0.57894 1.1348-0.76563 0.43676-0.19146 0.90179-0.28711 1.3965-0.28711h7.1543c0.49535 0 0.95934 0.09565 1.3906 0.28711 0.43608 0.1867 0.81449 0.4413 1.1348 0.76563 0.32433 0.31956 0.57893 0.69866 0.76563 1.1348 0.19078 0.43131 0.28711 0.89329 0.28711 1.3887 0 0.07392-0.0048 0.19601-0.0078 0.29688 0.3588-0.16361 0.69899-0.3615 1.0195-0.58398-0.0306-0.51228-0.14265-1.0013-0.33984-1.4688-0.22962-0.5594-0.56197-1.0581-0.99805-1.4941-0.43608-0.43608-0.93345-0.76716-1.4922-0.99609-0.55395-0.23439-1.1398-0.35156-1.7578-0.35156zm-1.5312 3.0645v1.0234h-1.0234v1.0215h1.0234v0.3418c0.23316 0.02472 0.46905 0.03711 0.70898 0.03711h0.3125v-0.37891h1.0215v-1.0215h-1.0215v-1.0234zm8.1758 0c-0.14377-6.86e-4 -0.27775 0.02624-0.40039 0.08008-0.12264 0.05382-0.23206 0.12921-0.32812 0.22461-0.08925 0.0913-0.16101 0.19835-0.21484 0.32031-0.05381 0.12196-0.07878 0.25467-0.07813 0.39844 6.87e-4 0.14378 0.02693 0.2758 0.08008 0.39844 0.05315 0.12265 0.12422 0.23274 0.21484 0.32812 0.0954 0.09062 0.20548 0.1617 0.32812 0.21484 0.12265 0.05315 0.25467 0.08008 0.39844 0.08008 0.14309 0 0.2758-0.02693 0.39844-0.08008 0.12265-0.05314 0.22969-0.12549 0.32031-0.2168 0.09403-0.09675 0.16814-0.20488 0.22266-0.32617 0.0545-0.12128 0.0827-0.25399 0.08203-0.39844-6.87e-4 -0.14445-0.02888-0.27843-0.08203-0.40039-0.05315-0.12197-0.12727-0.22774-0.22266-0.31836-0.0913-0.09607-0.19835-0.17146-0.32031-0.22461s-0.25399-0.08008-0.39844-0.08008zm2.043 2.0449c-0.14378-6.86e-4 -0.2758 0.02624-0.39844 0.08008-0.12264 0.05382-0.23205 0.12726-0.32813 0.22266-0.02295 0.02348-0.04187 0.05062-0.0625 0.07617h0.08008c0.46824 0 0.9231-0.04876 1.3633-0.14062-0.0754-0.06535-0.16072-0.11759-0.25391-0.1582-0.12196-0.05315-0.25594-0.08008-0.40039-0.08008z" fill="#fefefe" opacity=".5" style="-inkscape-stroke:hairline"/>
</svg>
