<svg xmlns="http://www.w3.org/2000/svg" width="24" height="24" fill="none">
<rect width="22" height="22" x="1" y="1" opacity="0.85" fill="url(#a)" rx="6.6" style="vector-effect:non-scaling-stroke;-inkscape-stroke:hairline;stroke-width:1;stroke-dasharray:none;stroke:gray;stroke-opacity:.2"/>
<path fill="#fff" d="M11.844 8a3.5 3.5 0 0 0-1.639.393l.255.706a2.64 2.64 0 0 1 1.266-.333q.51 0 .775.264.265.255.265.668 0 .255-.118.47a2 2 0 0 1-.284.413q-.177.195-.373.392-.196.187-.373.412a2.2 2.2 0 0 0-.294.472q-.108.255-.108.568 0 .216.039.413h.765a1 1 0 0 1-.01-.108v-.108q0-.324.128-.58.128-.264.314-.48.187-.225.412-.432a4 4 0 0 0 .412-.431q.187-.226.314-.481.128-.265.128-.599 0-.264-.088-.55a1.25 1.25 0 0 0-.295-.53 1.6 1.6 0 0 0-.579-.382Q12.403 8 11.844 8M9.239 9.835 5 11.631v.785l4.239 1.796.255-.756-3.483-1.433 3.483-1.432zm5.522 0-.255.756 3.483 1.432-3.483 1.433.255.755L19 12.416v-.785zm-3.074 3.935a.61.61 0 0 0-.481.196.67.67 0 0 0-.177.461q0 .265.177.462.176.195.48.196a.62.62 0 0 0 .482-.196.67.67 0 0 0 .176-.462.67.67 0 0 0-.176-.46.61.61 0 0 0-.481-.197"/>
<defs>
<linearGradient id="a" gradientTransform="scale(33)" gradientUnits="userSpaceOnUse">
<stop stop-color="#B6A6ED"/>
<stop offset="1" stop-color="#816ACE"/>
</linearGradient>
</defs>
</svg>
