<svg xmlns="http://www.w3.org/2000/svg" width="24" height="24" fill="none">
<rect width="22" height="22" x="1" y="1" opacity="0.85" fill="url(#a)" rx="6.6" style="vector-effect:non-scaling-stroke;-inkscape-stroke:hairline;stroke-width:1;stroke-dasharray:none;stroke:gray;stroke-opacity:.2"/>
<path fill="#DDD" d="M6.75 10C5.78 10 5 10.78 5 11.75s.78 1.75 1.75 1.75h2.625c.649 0 1.207-.353 1.509-.875h-.545c-.24.265-.577.438-.964.438H6.75a1.31 1.31 0 0 1-1.313-1.313 1.31 1.31 0 0 1 1.313-1.313h2.625c.387 0 .725.173.964.438h.545A1.74 1.74 0 0 0 9.375 10zm7.875 0c-.649 0-1.207.353-1.509.875h.545c.24-.265.578-.438.964-.438h2.625a1.31 1.31 0 0 1 1.313 1.313 1.31 1.31 0 0 1-1.313 1.313h-2.625c-.386 0-.725-.173-.964-.438h-.545c.302.522.86.875 1.509.875h2.625c.97 0 1.75-.78 1.75-1.75S18.22 10 17.25 10z"/>
<path fill="#DDD" d="M10.688 11.312h2.624a.437.437 0 1 1 0 .875h-2.624a.437.437 0 1 1 0-.875"/>
<defs>
<linearGradient id="a" gradientTransform="scale(33)" gradientUnits="userSpaceOnUse">
<stop stop-color="#DDD"/>
<stop offset="1" stop-color="#363636"/>
</linearGradient>
</defs>
</svg>
