<svg xmlns="http://www.w3.org/2000/svg" width="24" height="24" fill="none">
<rect width="22" height="22" x="1" y="1" opacity="0.85" fill="url(#a)" rx="6.6" style="vector-effect:non-scaling-stroke;-inkscape-stroke:hairline;stroke-width:1;stroke-dasharray:none;stroke:gray;stroke-opacity:.2"/>
<path fill="#555" d="M7.702 9.074H7.22V6.577q0-.525.022-.986l-.745.636-.262-.329 1.05-.832h.417zm1.402-2.015q0-1.03.306-1.533.329-.525.964-.526.657 0 .964.526.328.503.328 1.533t-.328 1.555q-.307.504-.964.504-.635 0-.964-.504-.306-.525-.306-1.555m2.059 0q0-.92-.22-1.27-.195-.351-.569-.351-.35 0-.57.35-.196.33-.197 1.27 0 .964.198 1.315.219.328.569.328.372 0 .57-.35.218-.35.218-1.292Zm1.029 0q0-1.03.307-1.533.329-.525.963-.526.657 0 .964.526.329.503.329 1.533t-.329 1.555q-.307.504-.964.504-.635 0-.963-.504-.307-.525-.307-1.555m2.059 0q0-.92-.22-1.27-.195-.351-.569-.351-.35 0-.57.35-.195.33-.196 1.27 0 .964.197 1.315.219.328.57.328.371 0 .569-.35.219-.35.219-1.292m1.029 0q0-1.03.307-1.533.329-.525.964-.526.658 0 .964.526.328.503.328 1.533t-.328 1.555q-.307.504-.964.504-.635 0-.964-.504-.306-.525-.306-1.555Zm2.06 0q0-.92-.22-1.27-.196-.351-.57-.351-.349 0-.569.35-.196.33-.197 1.27 0 .964.197 1.315.22.328.57.328.372 0 .57-.35.218-.35.218-1.292ZM6.016 12q0-1.029.306-1.533.329-.526.964-.526.657 0 .964.526.328.504.328 1.533 0 1.03-.328 1.555-.307.504-.964.504-.636 0-.964-.504-.306-.525-.306-1.555m2.058 0q0-.92-.219-1.27-.196-.35-.57-.35-.35 0-.569.35-.197.328-.197 1.27 0 .964.197 1.314.219.33.57.329.372 0 .57-.35.218-.351.218-1.293m2.716 2.015h-.482v-2.497q0-.525.022-.985l-.744.635-.263-.329 1.051-.832h.416zM12.192 12q0-1.029.307-1.533.329-.526.963-.526.657 0 .964.526.329.504.329 1.533 0 1.03-.329 1.555-.307.504-.964.504-.635 0-.963-.504-.307-.525-.307-1.555m2.059 0q0-.92-.22-1.27-.195-.35-.569-.35-.35 0-.57.35-.195.328-.196 1.27 0 .964.197 1.314.219.33.57.329.371 0 .569-.35.219-.351.219-1.293m1.029 0q0-1.029.307-1.533.329-.526.964-.526.658 0 .964.526.328.504.328 1.533 0 1.03-.328 1.555-.307.504-.964.504-.635 0-.964-.504-.306-.525-.306-1.555Zm2.06 0q0-.92-.22-1.27-.196-.35-.57-.35-.349 0-.569.35-.196.328-.197 1.27 0 .964.197 1.314.22.33.57.329.372 0 .57-.35.218-.351.218-1.293ZM6 16.941q0-1.029.307-1.533.329-.525.963-.526.658 0 .964.526.329.504.329 1.533 0 1.03-.329 1.555Q7.928 19 7.27 19q-.635 0-.963-.504Q6 17.971 6 16.941m2.059 0q0-.92-.22-1.27-.195-.35-.569-.35-.35 0-.57.35-.195.328-.196 1.27 0 .964.197 1.314.219.33.57.329.372 0 .569-.35.219-.351.219-1.293m1.029 0q0-1.029.307-1.533.328-.525.964-.526.657 0 .963.526.33.504.329 1.533 0 1.03-.329 1.555-.306.504-.963.504-.636 0-.964-.504-.307-.525-.307-1.555m2.06 0q0-.92-.22-1.27-.196-.35-.57-.35-.35 0-.569.35-.197.328-.197 1.27 0 .964.197 1.314.219.33.57.329.372 0 .57-.35.218-.351.218-1.293Zm2.715 2.016h-.482V16.46q0-.526.022-.986l-.745.635-.262-.328 1.05-.833h.417zm1.402-2.016q0-1.029.307-1.533.329-.525.963-.526.658 0 .964.526.33.504.329 1.533 0 1.03-.329 1.555-.306.504-.964.504-.634 0-.963-.504-.307-.525-.307-1.555m2.059 0q0-.92-.22-1.27-.195-.35-.569-.35-.35 0-.57.35-.196.328-.196 1.27 0 .964.197 1.314.219.33.57.329.372 0 .569-.35.219-.351.219-1.293"/>
<defs>
<linearGradient id="a" gradientTransform="scale(33)" gradientUnits="userSpaceOnUse">
<stop stop-color="#F4F4F4"/>
<stop offset="1" stop-color="#DDD"/>
</linearGradient>
</defs>
</svg>
