<?xml version="1.0" encoding="UTF-8"?>
<svg width="24" height="24" fill="none" version="1.1" xmlns="http://www.w3.org/2000/svg">
 <rect x="1" y="1" width="22" height="22" rx="6.6" fill="url(#a)" opacity=".9" stroke="gray" stroke-opacity=".2" vector-effect="non-scaling-stroke" style="-inkscape-stroke:hairline"/>
 <path d="m12.928 10.163c0.38834 1.5315-1.3719 1.9947-2.0066 2.9484-0.43274 0.64944 0.21206 1.3479 1.0915 2.1418-0.34262-0.77535-1.5056-1.4532 0-2.6435 1.8793-1.4824 0.91517-2.4467 0.91517-2.4467m1.1618 1.8953s-3.1756 0.79258-1.6586 2.5407c0.44732 0.51558-0.11796 0.9788-0.11796 0.9788s1.1366-0.58648 0.61498-1.3215c-0.48774-0.68457-0.8615-1.0252 1.1618-2.1982m0.56263 3.122q-0.16833-6.63e-4 -0.35122 0.06228c-0.09808 0.03446-0.1491 0.11465-0.1491 0.11465s0.06163-0.02452 0.1988-0.05301c0.56196-0.11729 1.3672 0.75216-0.37376 1.6567-0.0079 0.02121-0.03446 0.04506-0.03446 0.04506 2.0696-0.54407 1.6183-1.8277 0.70975-1.8257m-3.7297 0.08814c-0.13652-0.0033-0.72631 6e-3 -1.4308 0.34659-0.95226 0.46058 2.3559 0.66998 4.0683 0.22001 0.1776-0.12194 0.42413-0.2273 0.42413-0.2273s-0.70047 0.12592-1.3983 0.18356c-0.85486 0.07223-1.7707 0.08615-2.2307 0.02452-1.0895-0.14579 0.59642-0.54606 0.59642-0.54606zm-0.36316 1.0537c-1.5706 0.52155 0.87476 1.1133 3.0703 0.47051-0.23326-0.08151-0.38105-0.23194-0.38105-0.23194-1.0736 0.2061-1.6939 0.19947-2.4798 0.11862-0.60702-0.06295-0.20941-0.35719-0.20941-0.35719m0.22201 1.0159c-1.4261 0.39828 0.86813 1.2219 2.684 0.444a3.3135 3.3135 0 0 1-0.51028-0.24984c-0.80982 0.15308-1.1862 0.16568-1.9212 0.08151-0.60637-0.06959-0.25183-0.27568-0.25183-0.27568zm-0.99075 0.6733c-0.64083 0.01987-1.8933 0.59577-0.74752 0.78198 3.7032 0.59974 6.7503-0.27104 5.7893-0.70444 0 0 0.26243 0.2167-0.28894 0.38436-1.0478 0.31677-4.3632 0.41286-5.2837 0.01193-0.33135-0.14381 0.2896-0.34328 0.4851-0.38569 0.20345-0.04373 0.31942-0.03578 0.31942-0.03578-0.05766-0.04108-0.15506-0.05632-0.2737-0.05301zm5.6302 0.55005s-0.11729 0.3002-1.3811 0.53811c-1.4261 0.26839-3.1849 0.23658-4.228 0.06495 0 0 0.21339 0.17629 1.3114 0.24719 1.67 0.10669 4.2366-0.05964 4.2976-0.84955z" clip-rule="evenodd" fill="#fff" fill-rule="evenodd" stroke-width=".59456"/>
 <text id="labelText" x="12.624999" y="8.5" alignment-baseline="middle" fill="#ffffff" font-family="Sans" font-size="5px" letter-spacing=".5px" text-anchor="middle"><tspan>java</tspan></text>
 <defs>
  <linearGradient id="a" x1=".05" x2="1" y2="1" gradientTransform="scale(22)" gradientUnits="userSpaceOnUse">
   <stop stop-color="#e86464" offset=".2"/>
   <stop stop-color="#e77d7d" offset=".205"/>
   <stop stop-color="#a71818" offset="1"/>
  </linearGradient>
 </defs>
</svg>
