<?xml version="1.0" encoding="UTF-8"?>
<svg width="24" height="24" fill="none" version="1.1" xmlns="http://www.w3.org/2000/svg">
 <rect x="1" y="1" width="22" height="22" rx="6.6" fill="url(#a)" opacity=".9" stroke="gray" stroke-opacity=".2" vector-effect="non-scaling-stroke" style="-inkscape-stroke:hairline"/>
 <path d="m13.282 3.7028c0.46808 1.846-1.6535 2.4043-2.4187 3.5538-0.5216 0.7828 0.25561 1.6247 1.3156 2.5817-0.41297-0.93457-1.8148-1.7517 0-3.1863 2.2653-1.7869 1.1031-2.9491 1.1031-2.9491m1.4003 2.2845s-3.8277 0.95534-1.9993 3.0625c0.53918 0.62145-0.14218 1.1798-0.14218 1.1798s1.3699-0.70692 0.74127-1.5928c-0.5879-0.82514-1.0384-1.2357 1.4003-2.6496m0.67816 3.7631q-0.20289-7.99e-4 -0.42335 0.07508c-0.11822 0.04154-0.17972 0.13819-0.17972 0.13819s0.07428-0.02955 0.23963-0.0639c0.67736-0.14138 1.6479 0.90661-0.45051 1.9969-0.0096 0.02557-0.04154 0.05432-0.04154 0.05432 2.4946-0.6558 1.9506-2.203 0.85549-2.2006m-4.4955 0.10624c-0.16455-4e-3 -0.87546 0.0073-1.7246 0.41776-1.1478 0.55515 2.8397 0.80756 4.9037 0.26519 0.21407-0.14698 0.51122-0.27398 0.51122-0.27398s-0.84431 0.15177-1.6854 0.22126c-1.0304 0.08706-2.1343 0.10384-2.6887 0.02955-1.3132-0.17573 0.7189-0.65819 0.7189-0.65819zm-0.43773 1.2701c-1.8931 0.62864 1.0544 1.3419 3.7007 0.56713-0.28117-0.09825-0.4593-0.27957-0.4593-0.27957-1.294 0.24842-2.0417 0.24043-2.989 0.14298-0.73168-0.07588-0.25241-0.43054-0.25241-0.43054m0.26759 1.2245c-1.719 0.48007 1.0464 1.4729 3.2351 0.53518a3.9939 3.9939 0 0 1-0.61506-0.30114c-0.97611 0.18452-1.4298 0.19969-2.3157 0.09825-0.73088-0.08387-0.30354-0.33229-0.30354-0.33229zm-1.1942 0.81156c-0.77242 0.02396-2.2821 0.7181-0.90102 0.94256 4.4636 0.72289 8.1364-0.3267 6.9781-0.8491 0 0 0.31632 0.2612-0.34827 0.46329-1.2629 0.38182-5.2592 0.49764-6.3687 0.01438-0.39939-0.17333 0.34907-0.41377 0.58471-0.46489 0.24522-0.05271 0.38501-0.04313 0.38501-0.04313-0.069493-0.04952-0.18691-0.06789-0.3299-0.0639zm6.7864 0.66299s-0.14138 0.36184-1.6647 0.64861c-1.719 0.3235-3.8389 0.28516-5.0962 0.07828 0 0 0.25721 0.21248 1.5808 0.29794 2.0129 0.1286 5.1066-0.07189 5.1801-1.024z" clip-rule="evenodd" fill="#fff" fill-rule="evenodd" stroke-width=".79878"/>
 <text id="labelText" x="12.624999" y="20" alignment-baseline="middle" fill="#ffffff" font-family="Sans" font-size="5px" letter-spacing=".5px" text-anchor="middle"><tspan>java</tspan></text>
 <defs>
  <linearGradient id="a" x1=".05" x2="1" y2="1" gradientTransform="scale(22)" gradientUnits="userSpaceOnUse">
   <stop stop-color="#ca6557" offset=".2"/>
   <stop stop-color="#EA9385" offset=".205"/>
   <stop stop-color="#C9503C" offset="1"/>
  </linearGradient>
 </defs>
</svg>
