<svg xmlns="http://www.w3.org/2000/svg" width="24" height="24" fill="none">
<rect width="22" height="22" x="1" y="1" opacity="0.85" fill="url(#a)" rx="6.6" style="vector-effect:non-scaling-stroke;-inkscape-stroke:hairline;stroke-width:1;stroke-dasharray:none;stroke:gray;stroke-opacity:.2"/>
<path fill="#57688E" fill-opacity=".471" d="M16.814 4.06a4 4 0 0 0-.35.42l-.285.375-.101-.07q-.214-.143-.409-.058c-.086.04-.298.307-1.671 2.115a89 89 0 0 0-1.572 2.095c0 .013.35.287.77.607l.772.585 1.025-1.35c.562-.743 1.033-1.343 1.044-1.335.036.026.099.612.086.8a2 2 0 0 1-.086.41c-.072.218-.08.233-1.352 1.911-.702.929-1.288 1.717-1.296 1.75-.033.086 0 .246.065.339.108.157.377.207.53.097.109-.078 2.625-3.428 2.707-3.603.233-.498.285-1.14.143-1.77a4 4 0 0 0-.206-.664c-.021-.047.015-.108.25-.419.223-.298.273-.382.277-.46.011-.166-.039-.259-.2-.384l-.152-.119.303-.402c.248-.332.302-.418.306-.496.015-.33-.326-.545-.598-.374"/>
<path fill="#57688E" fill-opacity=".471" d="M9.884 12.258c-1.808 2.385-2.065 2.737-2.231 3.041-.333.605-.696 1.527-.94 2.37-.155.54-.162.492.052.378.665-.355 1.533-.93 2.039-1.355.496-.416.579-.522 2.68-3.289l2.021-2.663-.777-.59c-.428-.323-.782-.59-.788-.587-.007 0-.931 1.214-2.056 2.695m2.019 3.482a1.36 1.36 0 0 0-.83.648q-.096.195-.161.401a4 4 0 0 1-.085.264c-.021.03-.622.173-.972.233-.829.145-1.053.199-1.133.274-.16.147-.037.294.188.23.06-.02.315-.07.561-.113s.622-.119.836-.168q.198-.057.404-.074a1.8 1.8 0 0 1-.087.38l-.099.363-.227.097a3 3 0 0 0-.393.212c-.28.186-.337.42-.138.57.108.082.408.08.596 0 .166-.075.26-.179.389-.453.069-.143.12-.216.164-.227.034-.013.33-.07.66-.136l.67-.138c.065-.016.072-.013.052.047q-.051.123-.123.236a.7.7 0 0 0-.102.248c0 .093.078.186.143.162a.2.2 0 0 1 .071-.02.6.6 0 0 0 .147-.107c.123-.113.424-.657.424-.77 0-.058.043-.073.07-.027.01.015.08.043.154.06.108.028.136.048.136.097 0 .093.153.23.29.255a.7.7 0 0 0 .384-.063c.052-.021.054-.015.037.065q-.08.181-.195.341-.304.458-.5.972c-.05.177-.029.31.064.372.082.054.22.03.294-.048a9 9 0 0 0 .531-1.123c.067-.196.183-.373.337-.512.168-.177.222-.22.186-.15q-.089.196.01.289c.14.13.346 0 .523-.32.106-.194.184-.25.575-.434l.205-.093-.022.11q-.06.196-.155.378c-.14.298-.169.488-.085.648.059.112.12.114.396.022.384-.13.885-.428 1.015-.599.177-.241.23-.475.123-.55-.112-.082-.173-.048-.315.16a1.8 1.8 0 0 1-.648.61c-.108.057-.201.093-.21.083q.156-.49.357-.961a.6.6 0 0 0 .05-.173c0-.087-.109-.182-.195-.182a2 2 0 0 0-.44.182c-.411.205-.385.222-.281-.162.064-.238.043-.3-.1-.315-.138-.016-.194.032-.32.257a1.8 1.8 0 0 1-.395.47c-.274.253-.285.262-.35.216-.097-.069-.15-.058-.384.059-.229.114-.305.13-.363.06-.047-.056.028-.086.447-.168.404-.078.454-.1.454-.184 0-.134-.108-.263-.307-.352-.343-.151-.382-.162-.533-.123-.162.043-.402.274-.437.419-.032.149-.133.106-.133-.06a.53.53 0 0 0-.134-.275c-.102-.069-.268.082-.393.357l-.1.213-.22.048c-.29.065-1.128.231-1.24.253-.073.012-.086.012-.069-.037l.084-.296c.093-.371.12-.421.255-.469q.432-.167.851-.365.163-.097.302-.224c.303-.283.35-.544.134-.737a1 1 0 0 0-.172-.12 1.3 1.3 0 0 0-.519-.03zm.386.412c.061.06.061.065.007.18a.7.7 0 0 1-.227.229c-.183.125-.756.356-.777.315-.022-.07.162-.482.28-.613.156-.178.201-.195.45-.182.16.015.222.026.268.074m-1.961 2.5c-.04.074-.14.13-.197.108-.065-.028-.05-.064.056-.118.138-.07.181-.065.143.015z"/>
<defs>
<linearGradient id="a" gradientTransform="scale(33)" gradientUnits="userSpaceOnUse">
<stop stop-color="#F4F4F4"/>
<stop offset="1" stop-color="#DDD"/>
</linearGradient>
</defs>
</svg>
