<?xml version="1.0" encoding="UTF-8"?>
<svg width="24" height="24" fill="none" version="1.1" xmlns="http://www.w3.org/2000/svg">
 <rect x="1" y="1" width="22" height="22" rx="6.6" fill="url(#a)" opacity=".9" stroke="gray" stroke-opacity=".2" vector-effect="non-scaling-stroke" style="-inkscape-stroke:hairline"/>
 <g transform="matrix(.67016 0 0 .67016 3.9365 6.4824)" fill="#fff">
  <path d="m14.405 5.003a4.593 4.593 0 0 0-4.594 4.59c0 0.69 0.157 1.34 0.429 1.924l-0.787 0.931-0.068 0.872c-7e-3 7e-3 -0.856 0.031-0.856 0.031l-0.437 0.316s4e-3 0.953 0 0.94l-1e-3 1e-3 -0.935 0.015-0.395 0.452-0.01 0.853s-0.806-0.053-0.888 0.022a47 47 0 0 0-0.863 0.814l4e-3 2.233h0.438l5.949-5.948c0.315 0.274 0.668 0.506 1.05 0.687v-2e-3a4.6 4.6 0 0 0 1.965 0.447 4.591 4.591 0 1 0-1e-3 -9.181m0.877 2.187a1.5305 1.5305 0 1 1-1e-3 3.061 1.5305 1.5305 0 0 1 1e-3 -3.061" opacity=".8126"/>
  <path d="m15.282 7.19a1.532 1.532 0 1 0 0 3.064 1.532 1.532 0 0 0 0-3.063zm0 0.875a0.6565 0.6565 0 1 1-1e-3 1.313 0.6565 0.6565 0 0 1 0-1.313zm-3.892 4.987-5.951 5.95h2.187l5.195-5.103a4.6 4.6 0 0 1-1.431-0.846" opacity=".5"/>
 </g>
 <g transform="matrix(.88121 0 0 .88121 1.4138 2.111)" alignment-baseline="middle" fill="#fafafa" font-family="Lato" font-weight="bold" text-anchor="middle">
  <text x="12" y="7" font-size="6px"><tspan>pkcs</tspan><tspan fill="#ffff00">7</tspan></text>
 </g>
 <defs>
  <linearGradient id="a" x1=".05" x2="1" y2="1" gradientTransform="scale(22)" gradientUnits="userSpaceOnUse">
   <stop stop-color="#6ca745" offset=".2"/>
   <stop stop-color="#60c231" offset=".205"/>
   <stop stop-color="#6ca745" offset="1"/>
  </linearGradient>
 </defs>
</svg>
