<svg xmlns="http://www.w3.org/2000/svg" width="24" height="24" fill="none">
<rect width="22" height="22" x="1" y="1" opacity="0.85" fill="url(#a)" rx="6.6" style="vector-effect:non-scaling-stroke;-inkscape-stroke:hairline;stroke-width:1;stroke-dasharray:none;stroke:gray;stroke-opacity:.2"/>
<path fill="#fff" d="M12.768 17.469c-1.593-.31-3.016-1.324-3.923-2.656-.62-.899-.784-2.001-1.096-3.02.008-.493.031-.993.143-1.474.27-.231.161-.799.38-1.13A4.1 4.1 0 0 1 9.333 7.8c.348-.299.683-.639 1.097-.843.262-.082.594-.247.512-.069.15.03.595-.312.55-.096-.418.19.351-.11.564-.15.497-.02.999.202 1.469-.003.262.046.296.187.443.093.862.241 1.684.768 2.152 1.542-.34-.216.225.547.301.711.297.596-.58-.699-.482-.537-.16-.367-.53.06-.173.09.208.116.512.78.229.535.211.213.237.606.422.687-.078.215.128.77-.039.663.137.217.01.655-.027.184-.014-.124-.074.702-.092.843.029.207-.375-.168-.184.336.085.144-.036.325-.09.152-.344.603-.856 1.14-1.528 1.367-.235.198-1.129.152-1.237.22.438.17.912-.011 1.345-.063-.416.341-1.044.31-1.552.202-.359-.053-1.142-.4-1.12-.6.35.142.737.334 1.103.388-.608-.308-1.321-.606-1.601-1.284-.355-.721-.164-1.632.347-2.225.516-.622 1.543-.701 2.15-.176-.588-.205-1.328-.17-1.798.294-.467.373-.696 1.12-.446 1.65.192.446.512.945 1.001 1.16.595.323 1.353.318 1.921-.061.275-.052.363-.454.578-.515-.092.235.308-.35.406-.507.117-.23-.004-.514.203-.726.02-.419-.155-.808-.225-1.241-.28-1.1-1.266-1.925-2.337-2.216a3.33 3.33 0 0 0-2.2.393c.032-.244-.644.398-.597.41-.048.208-.832.395-.711.74-.565.354-.886.986-1.12 1.592.196.308-.208.817-.05 1.21.12.557.142 1.16.43 1.663.31.364.302 1.058.912 1.062.186.111.523.42.27.456.306.29.469.55.716.824.355.213.546.393.872.657.2.033.672.157.687.322.05.07.58.25.524.074.427.26.918.397 1.42.311.204-.06.54.01.135.094-.558.125-1.148.1-1.715.057m-.392-4.126c-.21-.167-.175-.08 0 0m3.949-2.885c-.052-.052.017.159 0 0M9.798 7.553c.083-.123-.162.157 0 0m.326-.255c.148-.197-.214.2 0 0m.361-.193c.157.024.861-.177.387-.077-.166-.03-.767.194-.616.174q.11-.058.229-.097m.827-.07c.417-.158-.497.128 0 0m.476-.15c.352-.079-.433.072-.098.02zm.227-.052c-.066-.058-.135.101 0 0m.927.008c-.121-.031-.034.052 0 0m-.172-.03c-.252-.017.011.043 0 0m-.286-.028h-.23c-.08.016.32.014.23 0m-.374-.024c-.089-.03-.083.05 0 0m-.194 6.615c-.248-.038-.597-.688-.193-.305.05.06.56.52.193.305m-.15-.51c-.493-.613.54.448-.001-.001zm1.678-.602c-.073-.122.798-.405.384-.035-.092.111-.274.013-.384.035m.86-.616c-.175-.193.19-.569.031-.137.002.243.224-.7.188-.137-.017.12-.02.39-.219.274M7.517 11.3c-.096-.216.052-.537.064-.154-.002.032.024.3-.064.154m6.9-.643c-.212-.655.406.288 0 0m-6.906-.437c.033-.454.277.232.008.114l-.005-.052zm7.434-3.384c-.01-.527.203.06.014.212-.028-.067-.005-.143-.014-.212m-3.768-.147c.13-.128.791-.284.3-.053-.074.005-.26.138-.3.053" opacity=".75"/>
<defs>
<linearGradient id="a" gradientTransform="scale(33)" gradientUnits="userSpaceOnUse">
<stop offset="0" stop-color="#FA92A8"/>
<stop offset="1" stop-color="#E04F6D"/>
</linearGradient>
</defs>
</svg>
