<svg xmlns="http://www.w3.org/2000/svg" width="24" height="24" fill="none">
<rect width="22" height="22" x="1" y="1" opacity="0.85" fill="url(#a)" rx="6.6" style="vector-effect:non-scaling-stroke;-inkscape-stroke:hairline;stroke-width:1;stroke-dasharray:none;stroke:gray;stroke-opacity:.2"/>
<path fill="#fff" d="M10.546 4v2.91h2.909V4h-2.91Zm.727.727h1.454v1.455h-1.454zm-1.21.915-1.405.377.189.703 1.405-.377-.19-.703ZM7.88 6.37l-1.405.377.189.703 1.405-.376-.19-.704Zm6.3.2v.753l4.47 1.197-4.468 1.275v10.204h.021L20 18.342V8.116L14.182 6.57Zm-8.726.34a.727.727 0 1 0 0 1.455.727.727 0 0 0 0-1.455M4 8.364v10.181L12.727 20V9.818zm15.273.734v8.22l-4.364-1.17v-5.803zm-4.364 7.803 3.87 1.037-3.87 1.106V16.9Z" opacity=".75"/>
<defs>
<linearGradient id="a" gradientTransform="scale(33)" gradientUnits="userSpaceOnUse">
<stop stop-color="#78BBF8"/>
<stop offset="1" stop-color="#3097F4"/>
</linearGradient>
</defs>
</svg>
