<svg xmlns="http://www.w3.org/2000/svg" width="24" height="24" fill="none">
<rect width="22" height="22" x="1" y="1" opacity="0.85" fill="url(#a)" rx="6.6" style="vector-effect:non-scaling-stroke;-inkscape-stroke:hairline;stroke-width:1;stroke-dasharray:none;stroke:gray;stroke-opacity:.2"/>
<path stroke="#F34F17" stroke-width=".516" d="m7.039 9.164 9.917 5.472"/>
<path fill="#8F76E4" fill-opacity=".251" fill-rule="evenodd" d="M7.871 19.146c6.71 3.097 9.806-4.13 4.129-7.226S9.42 1.597 16.129 4.694" clip-rule="evenodd"/>
<path stroke="#8C59D9" stroke-width=".516" d="M7.871 19.146c6.71 3.097 9.806-4.13 4.129-7.226S9.42 1.597 16.129 4.694"/>
<path stroke="#F34F17" stroke-linejoin="round" stroke-width=".516" d="M6.323 9.597a.774.774 0 1 0 0-1.548.774.774 0 0 0 0 1.548Zm11.354 6.194a.774.774 0 1 0 0-1.548.774.774 0 0 0 0 1.548Z"/>
<path fill="#fff" stroke="#8F76E4" stroke-width=".516" d="M16.903 3.92h-1.548v1.548h1.548zm-4.129 7.226h-1.548v1.548h1.548zm-4.129 7.226H7.097v1.548h1.548z"/>
<defs>
<linearGradient id="a" gradientTransform="scale(33)" gradientUnits="userSpaceOnUse">
<stop stop-color="#F4F4F4"/>
<stop offset="1" stop-color="#DDD"/>
</linearGradient>
</defs>
</svg>
