<?xml version="1.0" encoding="UTF-8"?>
<svg width="24" height="24" fill="none" version="1.1" xmlns="http://www.w3.org/2000/svg">
 <rect x="1" y="1" width="22" height="22" rx="6.6" fill="url(#a)" opacity=".9" stroke="gray" stroke-opacity=".2" vector-effect="non-scaling-stroke" style="-inkscape-stroke:hairline"/>
 <g transform="matrix(.83606 0 0 .83606 -1.3067 -3.1121)" fill-rule="evenodd" stroke-linecap="square">
<g fill-rule="evenodd"><path d="m7 0c-2.216 0-4 1.784-4 4v24c0 2.216 1.784 4 4 4h18c2.216 0 4-1.784 4-4v-16l-12-12h-10zm13 0 9 9v-9h-9z" fill="url(#linearGradient3898)" stroke-linecap="square"/><g stroke-linecap="square"><path d="m3 27v1c0 2.216 1.784 4 4 4h18c2.216 0 4-1.784 4-4v-1c0 2.216-1.784 4-4 4h-18c-2.216 0-4-1.784-4-4z" fill-opacity=".19862"/><path d="m20 0h1.4l7.6 7.6v1.4z" fill-opacity=".20149"/></g><g><path d="m12 13a4 1 0 0 0-4 1v1a4 1 0 0 0 4 1 4 1 0 0 0 4-1v-1a4 1 0 0 0-4-1zm-4 3v2a4 1 0 0 0 4 1 4 1 0 0 0 4-1v-2a4 1 0 0 1-4 1 4 1 0 0 1-4-1zm0 3v2a4 1 0 0 0 4 1 4 1 0 0 0 4-1v-2a4 1 0 0 1-4 1 4 1 0 0 1-4-1zm0 3v2a4 1 0 0 0 4 1 4 1 0 0 0 4-1v-2a4 1 0 0 1-4 1 4 1 0 0 1-4-1z" fill="#fa9bfd"/><path d="m18 15c-0.554 0-1 0.446-1 1v8c0 0.554 0.446 1 1 1h5c0.554 0 1-0.446 1-1v-8c0-0.554-0.446-1-1-1h-5zm0 1h2v2h-2v-2zm3 0h2v2h-2v-2zm-3 3h2v2h-2v-2zm3 0h2v2h-2v-2zm-3 3h2v2h-2v-2zm3 0h2v2h-2v-2z" fill="#fafafa"/></g></g>
 </g>
 <defs>
  <linearGradient id="a" x1=".05" x2="1" y2="1" gradientTransform="scale(22)" gradientUnits="userSpaceOnUse">
   <stop stop-color="#9f36bc" offset=".2"/>
   <stop stop-color="#eb4df0" offset=".205"/>
   <stop stop-color="#7324a9" offset="1"/>
  </linearGradient>
 </defs>
</svg>
