<svg xmlns="http://www.w3.org/2000/svg" width="24" height="24" fill="none">
<rect width="22" height="22" x="1" y="1" opacity="0.85" fill="url(#a)" rx="6.6" style="vector-effect:non-scaling-stroke;-inkscape-stroke:hairline;stroke-width:1;stroke-dasharray:none;stroke:gray;stroke-opacity:.2"/>
<path fill="#fff" d="m12 4-8.59 6.147q-.028.018-.053.038l-.01.007v.001a.84.84 0 0 0-.347.673v6.885h.003l.929-1.142.601 1.436 1.17-.814.873 2.286 1.183-1.766 1.209 1.252.672-1.585.736.846 1.014-1.011 1.032 2.32h.283l.978-3.364.75 2.233.86-1.263 1.107 2.394h.326l.546-1.822.952.574.92-.838.952.764.904-.46v-6.924a.84.84 0 0 0-.36-.684l.003-.005zm0 3.923c.852 0 1.67.323 2.273.898s.941 1.355.941 2.168v.919c0 .51-.43.92-.964.92a.96.96 0 0 1-.88-.546 2 2 0 0 1-.628.404 2 2 0 0 1-.742.142 1.98 1.98 0 0 1-1.364-.539 1.8 1.8 0 0 1-.564-1.3 1.8 1.8 0 0 1 .564-1.301A1.98 1.98 0 0 1 12 9.15c.511 0 1.002.194 1.364.54.361.344.565.812.565 1.3v.919c0 .17.143.307.321.307a.314.314 0 0 0 .322-.307v-.919c0-.65-.271-1.275-.754-1.735A2.64 2.64 0 0 0 12 8.537c-.682 0-1.336.259-1.818.719a2.4 2.4 0 0 0-.753 1.734c0 .65.27 1.274.753 1.734.482.46 1.136.718 1.818.718h2.25c.178 0 .322.137.322.307s-.144.306-.322.306H12c-.852 0-1.67-.323-2.273-.898a3 3 0 0 1-.941-2.167c0-.813.338-1.593.941-2.168A3.3 3.3 0 0 1 12 7.923m0 1.84c-.34 0-.668.129-.91.359-.24.23-.376.542-.376.867s.136.637.377.867.568.359.91.359c.34 0 .667-.13.908-.36s.377-.541.377-.866a1.2 1.2 0 0 0-.377-.867 1.32 1.32 0 0 0-.909-.36Z" opacity=".5"/>
<path fill="#fff" d="M5.893 6.083c-.534 0-.964.411-.964.92v9.198c0 .51.43.919.964.919h7.524l.265-.912.307.912h4.118c.534 0 .964-.41.964-.919V7.003c0-.509-.43-.92-.964-.92zM12 7.923c.852 0 1.67.323 2.273.898s.941 1.354.941 2.168v.919c0 .51-.43.92-.964.92a.96.96 0 0 1-.88-.546 2 2 0 0 1-.628.404 2 2 0 0 1-.742.142 1.98 1.98 0 0 1-1.364-.539 1.8 1.8 0 0 1-.565-1.3 1.8 1.8 0 0 1 .565-1.301A1.98 1.98 0 0 1 12 9.149a1.98 1.98 0 0 1 1.364.539 1.8 1.8 0 0 1 .564 1.3v.921c0 .17.144.307.322.307a.314.314 0 0 0 .321-.307v-.921c0-.65-.27-1.274-.753-1.734A2.64 2.64 0 0 0 12 8.536c-.682 0-1.336.258-1.818.718a2.4 2.4 0 0 0-.753 1.735c0 .65.27 1.274.753 1.734.482.46 1.136.718 1.818.718h2.25c.178 0 .321.137.321.306 0 .17-.143.307-.321.307H12c-.852 0-1.67-.323-2.273-.898a3 3 0 0 1-.941-2.168c0-.813.338-1.592.941-2.167A3.3 3.3 0 0 1 12 7.923m0 1.84a1.32 1.32 0 0 0-.91.358c-.24.23-.376.542-.376.867 0 .326.136.638.377.867.24.23.568.36.909.36.34 0 .668-.13.91-.36a1.2 1.2 0 0 0 .376-.867 1.2 1.2 0 0 0-.377-.867 1.32 1.32 0 0 0-.91-.359Z"/>
<path fill="#FCD4E1" d="M3 10.866v6.885h.003l.929-1.142.601 1.436 1.17-.814.873 2.287 1.183-1.767 1.209 1.252.671-1.585.736.846 1.015-1.011 1.202 2.703.692-2.378zm11.384 7.428.05.148.053-.08-.103-.067Zm2.042 1.333.172.373.065-.218z"/>
<path fill="#FDEFEF" d="m21 10.866-10.882 7.102.257.296 1.015-1.011 1.202 2.703 1.09-3.747.751 2.233.859-1.263L16.598 20l.674-2.249.952.574.92-.839.952.764.904-.46zM9.135 18.61l-.335.218.168.174z"/>
<defs>
<linearGradient id="a" gradientTransform="scale(33)" gradientUnits="userSpaceOnUse">
<stop stop-color="#F97798"/>
<stop offset="1" stop-color="#DE2957"/>
</linearGradient>
</defs>
</svg>
