<svg xmlns="http://www.w3.org/2000/svg" width="24" height="24" fill="none">
<rect width="22" height="22" x="1" y="1" opacity="0.85" fill="url(#a)" rx="6.6" style="vector-effect:non-scaling-stroke;-inkscape-stroke:hairline;stroke-width:1;stroke-dasharray:none;stroke:gray;stroke-opacity:.2"/>
<path fill="#fff" d="M12 4 4.364 9.456l-.047.034-.009.006v.002a.75.75 0 0 0-.308.597v6.639c0 1.088.901 1.088 1.143 1.088h13.714s1.143 0 1.143-1.088v-6.64a.75.75 0 0 0-.32-.606l.003-.004zm0 3.482a2.93 2.93 0 0 1 2.02.797c.536.51.837 1.203.837 1.925v.816c0 .452-.382.816-.857.816-.35 0-.65-.2-.782-.485-.16.154-.35.276-.558.359a1.8 1.8 0 0 1-.66.126 1.76 1.76 0 0 1-1.212-.478 1.6 1.6 0 0 1-.502-1.155c0-.433.18-.848.502-1.154A1.76 1.76 0 0 1 12 8.571c.455 0 .89.172 1.212.478s.502.721.502 1.155v.816c0 .15.128.272.286.272a.28.28 0 0 0 .286-.272v-.816c0-.578-.241-1.132-.67-1.54A2.35 2.35 0 0 0 12 8.027c-.606 0-1.188.229-1.616.637s-.67.962-.67 1.54c0 .577.241 1.13.67 1.539.428.408 1.01.637 1.616.637h2a.28.28 0 0 1 .286.272.28.28 0 0 1-.286.273h-2a2.93 2.93 0 0 1-2.02-.797 2.66 2.66 0 0 1-.837-1.925c0-.721.3-1.413.837-1.924A2.93 2.93 0 0 1 12 7.482m0 1.633c-.303 0-.594.115-.808.319a1.06 1.06 0 0 0-.335.77c0 .288.12.565.335.77.214.203.505.318.808.318s.594-.115.808-.319.335-.48.335-.77c0-.288-.12-.565-.335-.77A1.17 1.17 0 0 0 12 9.116Z" opacity=".5"/>
<path fill="#fff" d="M6.571 5.85c-.474 0-.857.364-.857.816v8.164c0 .452.383.816.857.816h10.857c.475 0 .858-.364.858-.816V6.666c0-.452-.383-.817-.858-.817zM12 7.481c.758 0 1.484.287 2.02.797s.837 1.203.837 1.924v.817c0 .452-.382.816-.857.816-.35 0-.65-.2-.782-.485-.16.154-.35.275-.558.359a1.8 1.8 0 0 1-.66.126 1.76 1.76 0 0 1-1.212-.478 1.6 1.6 0 0 1-.502-1.155c0-.433.18-.848.502-1.154A1.76 1.76 0 0 1 12 8.57c.455 0 .89.172 1.212.478s.502.721.502 1.154v.817c0 .15.128.272.286.272a.28.28 0 0 0 .286-.272v-.817a2.13 2.13 0 0 0-.67-1.54A2.35 2.35 0 0 0 12 8.027c-.606 0-1.188.23-1.616.638s-.67.962-.67 1.54c0 .577.241 1.13.67 1.539.428.408 1.01.637 1.616.637h2a.28.28 0 0 1 .286.272.28.28 0 0 1-.286.272h-2a2.93 2.93 0 0 1-2.02-.797 2.66 2.66 0 0 1-.837-1.924c0-.721.3-1.414.837-1.924A2.93 2.93 0 0 1 12 7.482Zm0 1.633c-.303 0-.594.114-.808.319a1.06 1.06 0 0 0-.335.77c0 .288.12.565.335.769.214.204.505.319.808.319s.594-.115.808-.32a1.06 1.06 0 0 0 .335-.769c0-.288-.12-.565-.335-.77A1.17 1.17 0 0 0 12 9.116Z"/>
<path fill="#BDEDFB" d="M4 10.095 19.2 20H5.143C4.57 20 4 19.728 4 18.91v-8.816Z"/>
<path fill="#DEF8FE" d="M18.857 20C20 20 20 18.912 20 18.912v-8.817L4.8 20z"/>
<defs>
<linearGradient id="a" gradientTransform="scale(33)" gradientUnits="userSpaceOnUse">
<stop stop-color="#60D9F5"/>
<stop offset="1" stop-color="#09B1D8"/>
</linearGradient>
</defs>
</svg>
