<?xml version="1.0" encoding="UTF-8"?>
<svg width="24" height="24" fill="none" version="1.1" xmlns="http://www.w3.org/2000/svg">
 <rect x="1" y="1" width="22" height="22" rx="6.6" fill="url(#a)" opacity=".9" stroke="gray" stroke-opacity=".2" vector-effect="non-scaling-stroke" style="-inkscape-stroke:hairline"/>
 <g stroke-width=".80671">
  <path d="m12 5.5463-6.1601 4.4014-0.037915 0.027428-0.00726 0.00484v0.00161a0.60503 0.60503 0 0 0-0.24847 0.48161v5.3558c0 0.8777 0.72685 0.8777 0.92207 0.8777h11.063s0.92207 0 0.92207-0.8777v-5.3566a0.60503 0.60503 0 0 0-0.25815-0.48887l0.0024-0.00323zm0 2.809a2.3637 2.3637 0 0 1 1.6296 0.64295c0.4324 0.41142 0.67522 0.97048 0.67522 1.5529v0.65828c0 0.36463-0.30816 0.65828-0.69135 0.65828-0.28235 0-0.52436-0.16134-0.63085-0.39126-0.12907 0.12423-0.28235 0.22265-0.45015 0.28961a1.4521 1.4521 0 0 1-0.53243 0.10165 1.4198 1.4198 0 0 1-0.97774-0.38561 1.2907 1.2907 0 0 1-0.40497-0.93175c0-0.34931 0.14521-0.68409 0.40497-0.93095a1.4198 1.4198 0 0 1 0.97774-0.38561c0.36705 0 0.71797 0.13875 0.97774 0.38561 0.25976 0.24685 0.40497 0.58164 0.40497 0.93175v0.65828c0 0.12101 0.10326 0.21943 0.23072 0.21943a0.22588 0.22588 0 0 0 0.23072-0.21943v-0.65828c0-0.46628-0.19442-0.9132-0.5405-1.2423a1.8958 1.8958 0 0 0-1.3036-0.51388c-0.48887 0-0.95837 0.18474-1.3036 0.51388s-0.5405 0.77606-0.5405 1.2423c0 0.46547 0.19442 0.91158 0.5405 1.2415 0.34527 0.32914 0.81478 0.51388 1.3036 0.51388h1.6134a0.22588 0.22588 0 0 1 0.23072 0.21943 0.22588 0.22588 0 0 1-0.23072 0.22023h-1.6134a2.3637 2.3637 0 0 1-1.6296-0.64295 2.1459 2.1459 0 0 1-0.67522-1.5529c0-0.58164 0.24201-1.1399 0.67522-1.5521a2.3637 2.3637 0 0 1 1.6296-0.64295m0 1.3174c-0.24443 0-0.47919 0.092772-0.65182 0.25734a0.85512 0.85512 0 0 0-0.27025 0.62117c0 0.23233 0.0968 0.45579 0.27025 0.62117 0.17264 0.16376 0.40739 0.25654 0.65182 0.25654s0.47919-0.09277 0.65182-0.25734c0.17264-0.16457 0.27025-0.38722 0.27025-0.62117 0-0.23233-0.0968-0.45579-0.27025-0.62117a0.94385 0.94385 0 0 0-0.65182-0.25573z" fill="#fff" opacity=".5"/>
  <path d="m7.6204 7.0387c-0.38238 0-0.69135 0.29364-0.69135 0.65828v6.586c0 0.36463 0.30897 0.65828 0.69135 0.65828h8.7585c0.38319 0 0.69216-0.29364 0.69216-0.65828v-6.586c0-0.36463-0.30897-0.65908-0.69216-0.65908zm4.3796 1.3157c0.61149 0 1.1972 0.23153 1.6296 0.64295 0.4324 0.41142 0.67522 0.97048 0.67522 1.5521v0.65908c0 0.36463-0.30816 0.65828-0.69135 0.65828-0.28235 0-0.52436-0.16134-0.63085-0.39126-0.12907 0.12423-0.28235 0.22185-0.45015 0.28961a1.4521 1.4521 0 0 1-0.53243 0.10164 1.4198 1.4198 0 0 1-0.97774-0.38561 1.2907 1.2907 0 0 1-0.40497-0.93175c0-0.34931 0.14521-0.68409 0.40497-0.93095a1.4198 1.4198 0 0 1 0.97774-0.38561c0.36705 0 0.71797 0.13875 0.97774 0.38561 0.25976 0.24685 0.40497 0.58164 0.40497 0.93095v0.65908c0 0.12101 0.10326 0.21943 0.23072 0.21943a0.22588 0.22588 0 0 0 0.23072-0.21943v-0.65908a1.7183 1.7183 0 0 0-0.5405-1.2423 1.8958 1.8958 0 0 0-1.3036-0.51226c-0.48887 0-0.95837 0.18554-1.3036 0.51468s-0.5405 0.77606-0.5405 1.2423c0 0.46547 0.19442 0.91158 0.5405 1.2415 0.34527 0.32914 0.81478 0.51388 1.3036 0.51388h1.6134a0.22588 0.22588 0 0 1 0.23072 0.21943 0.22588 0.22588 0 0 1-0.23072 0.21943h-1.6134a2.3637 2.3637 0 0 1-1.6296-0.64295 2.1459 2.1459 0 0 1-0.67522-1.5521c0-0.58164 0.24201-1.1407 0.67522-1.5521a2.3637 2.3637 0 0 1 1.6296-0.64376zm0 1.3174c-0.24443 0-0.47919 0.091965-0.65182 0.25734a0.85512 0.85512 0 0 0-0.27025 0.62117c0 0.23233 0.0968 0.45579 0.27025 0.62036 0.17264 0.16457 0.40739 0.25734 0.65182 0.25734s0.47919-0.09277 0.65182-0.25815a0.85512 0.85512 0 0 0 0.27025-0.62036c0-0.23233-0.0968-0.45579-0.27025-0.62117a0.94385 0.94385 0 0 0-0.65182-0.25492z" fill="#fff"/>
  <path d="m5.5463 10.463 12.262 7.9905h-11.34c-0.46225 0-0.92207-0.21943-0.92207-0.87932v-7.112z" fill="#bdedfb"/>
  <path d="m17.532 18.454c0.92207 0 0.92207-0.8777 0.92207-0.8777v-7.1128l-12.262 7.9905z" fill="#def8fe"/>
 </g>
 <defs>
  <linearGradient id="a" x1=".05" x2="1" y2="1" gradientTransform="scale(22)" gradientUnits="userSpaceOnUse">
   <stop stop-color="#09B1D8" offset=".2"/>
   <stop stop-color="#60D9F5" offset=".205"/>
   <stop stop-color="#09B1D8" offset="1"/>
  </linearGradient>
 </defs>
</svg>
