<svg xmlns="http://www.w3.org/2000/svg" width="24" height="24" fill="none">
<rect width="22" height="22" x="1" y="1" opacity="0.85" fill="url(#a)" rx="6.6" style="vector-effect:non-scaling-stroke;-inkscape-stroke:hairline;stroke-width:1;stroke-dasharray:none;stroke:gray;stroke-opacity:.2"/>
<path fill="#A2AAB9" d="M4.296 13.846h1.187c.163 0 .295.091.295.205v.821a.15.15 0 0 1-.022.08.2.2 0 0 1-.065.066.3.3 0 0 1-.097.044.4.4 0 0 1-.114.015H4.296a.37.37 0 0 1-.21-.06c-.055-.038-.086-.09-.086-.145v-.821c0-.114.132-.205.296-.205m2.916 0c-.135.006-.251.079-.249.158v.915c0 .084.13.158.273.158h10.119c.143 0 .276-.074.273-.158v-.915c0-.084-.13-.158-.273-.158z"/>
<path fill="#ABD56B" d="M5.48 16.308h1.187c.164 0 .296.092.296.205v.82a.15.15 0 0 1-.023.079.2.2 0 0 1-.064.066.3.3 0 0 1-.097.045.4.4 0 0 1-.114.015H5.48a.37.37 0 0 1-.209-.06q-.084-.06-.086-.145v-.822c0-.111.132-.203.295-.203m2.916 0c-.134.006-.25.078-.248.157v.915c0 .083.13.16.275.158H18.54c.143 0 .275-.075.273-.157v-.915c0-.083-.13-.16-.273-.158z"/>
<path fill="#A2AAB9" d="M4.296 18.769h1.187c.163 0 .295.093.295.205v.821a.15.15 0 0 1-.022.079.2.2 0 0 1-.065.067.3.3 0 0 1-.097.044.4.4 0 0 1-.114.015H4.296a.37.37 0 0 1-.21-.06c-.055-.038-.086-.09-.086-.145v-.822c0-.113.132-.204.296-.204m2.916 0c-.135.006-.251.079-.249.158v.915c0 .084.13.158.273.158h10.119c.143 0 .276-.074.273-.158v-.915c0-.084-.13-.158-.273-.158zM4.296 4h1.187c.163 0 .295.091.295.205v.821a.15.15 0 0 1-.022.08.2.2 0 0 1-.065.066.3.3 0 0 1-.097.044.4.4 0 0 1-.114.015H4.296a.37.37 0 0 1-.21-.06C4.032 5.133 4 5.081 4 5.026v-.821C4 4.09 4.132 4 4.296 4m2.916 0c-.135.006-.251.08-.249.158v.915c0 .084.13.158.273.158h10.119c.143 0 .276-.074.273-.158v-.915c0-.084-.13-.158-.273-.158z"/>
<path fill="#ABD56B" d="M5.48 6.462h1.187c.164 0 .296.092.296.205v.82a.15.15 0 0 1-.023.079.2.2 0 0 1-.064.066.3.3 0 0 1-.097.045.4.4 0 0 1-.114.015H5.48a.37.37 0 0 1-.209-.06c-.055-.038-.086-.09-.086-.145v-.822c0-.111.132-.203.295-.203m2.916 0c-.134.006-.25.078-.248.157v.915c0 .083.13.16.275.158H18.54c.143 0 .275-.075.273-.157V6.62c0-.083-.13-.16-.273-.158zM5.48 11.385h1.187c.164 0 .296.092.296.205v.82a.15.15 0 0 1-.023.079.2.2 0 0 1-.064.066.3.3 0 0 1-.097.045.4.4 0 0 1-.114.015H5.48a.37.37 0 0 1-.209-.06c-.055-.038-.086-.09-.086-.145v-.822c0-.111.132-.203.295-.203m2.916 0c-.134.006-.25.078-.248.157v.915c0 .083.13.16.275.158H18.54c.143 0 .275-.075.273-.157v-.915c0-.083-.13-.16-.273-.158z"/>
<path fill="#EFB458" d="M6.665 8.923h1.187c.164 0 .296.093.296.205v.821c0 .055-.031.107-.087.145a.37.37 0 0 1-.209.06H6.665a.37.37 0 0 1-.209-.06c-.055-.038-.086-.09-.086-.145v-.821c0-.114.134-.205.295-.205m2.918 0c-.136.006-.253.079-.25.158v.915c0 .084.13.158.275.158h10.116c.144 0 .276-.074.276-.158V9.08c0-.084-.132-.158-.276-.158z"/>
<defs>
<linearGradient id="a" gradientTransform="scale(33)" gradientUnits="userSpaceOnUse">
<stop stop-color="#F4F4F4"/>
<stop offset="1" stop-color="#DDD"/>
</linearGradient>
</defs>
</svg>
