<svg xmlns="http://www.w3.org/2000/svg" width="24" height="24" fill="none">
<rect width="22" height="22" x="1" y="1" opacity="0.85" fill="url(#a)" rx="6.6" style="vector-effect:non-scaling-stroke;-inkscape-stroke:hairline;stroke-width:1;stroke-dasharray:none;stroke:gray;stroke-opacity:.2"/>
<path stroke="#999" stroke-linejoin="round" stroke-width="1.143" d="M12 9.714c3.866 0 7-1.279 7-2.857C19 5.28 15.866 4 12 4 8.136 4 5.002 5.28 5.002 6.857s3.134 2.857 7 2.857Z"/>
<path stroke="#999" stroke-width="1.143" d="M5 6.715v10.429"/>
<path stroke="#999" stroke-linejoin="round" stroke-width="1.143" d="M18.999 10.286c0 .501-.323.994-.938 1.428-.614.435-1.498.795-2.562 1.046-1.064.25-2.27.383-3.5.383a15.5 15.5 0 0 1-3.5-.383c-1.063-.25-1.947-.611-2.561-1.046C5.323 11.28 5 10.787 5 10.286m13.999 3.428c0 .502-.323.995-.938 1.429-.614.434-1.498.795-2.562 1.046a15.5 15.5 0 0 1-3.5.382c-1.228 0-2.435-.132-3.5-.382-1.063-.251-1.947-.612-2.561-1.046-.615-.434-.938-.927-.938-1.429m13.999 3.429c0 .501-.323.994-.938 1.428-.614.435-1.498.795-2.562 1.046A15.5 15.5 0 0 1 12 20a15.5 15.5 0 0 1-3.5-.383c-1.063-.25-1.947-.611-2.561-1.046-.615-.434-.938-.927-.938-1.428"/>
<path stroke="#999" stroke-width="1.143" d="M18.999 6.715v10.429"/>
<defs>
<linearGradient id="a" gradientTransform="scale(33)" gradientUnits="userSpaceOnUse">
<stop stop-color="#F4F4F4"/>
<stop offset="1" stop-color="#DDD"/>
</linearGradient>
</defs>
</svg>
