<svg xmlns="http://www.w3.org/2000/svg" width="24" height="24" fill="none">
<rect width="22" height="22" x="1" y="1" opacity="0.85" fill="url(#a)" rx="6.6" style="vector-effect:non-scaling-stroke;-inkscape-stroke:hairline;stroke-width:1;stroke-dasharray:none;stroke:gray;stroke-opacity:.2"/>
<path fill="#999" d="M12.161 15.96q-.755 0-1.414-.271-.639-.272-1.123-.775a3.5 3.5 0 0 1-.755-1.24q-.27-.753-.27-1.703 0-.93.29-1.646a3.8 3.8 0 0 1 .813-1.24 3.2 3.2 0 0 1 1.162-.774q.658-.27 1.374-.27.95 0 1.53.27.6.252.813.407l-.367.871a7 7 0 0 0-.756-.329q-.445-.194-1.22-.194-1.064 0-1.781.756-.697.755-.697 2.149 0 1.433.678 2.207.696.756 1.878.756.832 0 1.297-.175.484-.193.697-.329l.33.93q-.252.154-.891.387-.64.213-1.588.213m6.467-3.97q0 1.665-.542 2.963a6.8 6.8 0 0 1-1.452 2.207 6.2 6.2 0 0 1-2.091 1.375 6.7 6.7 0 0 1-2.479.465 6.9 6.9 0 0 1-2.498-.465 6.5 6.5 0 0 1-2.09-1.375q-.892-.91-1.434-2.207T5.5 11.99q0-1.645.542-2.943.543-1.317 1.433-2.207a6.2 6.2 0 0 1 2.091-1.356A6.6 6.6 0 0 1 12.064 5q1.297 0 2.479.484 1.2.465 2.091 1.356.91.89 1.452 2.207.543 1.297.542 2.943m-1.142 0q0-1.336-.407-2.44a5.6 5.6 0 0 0-1.123-1.878 4.8 4.8 0 0 0-1.723-1.22 5.4 5.4 0 0 0-2.169-.426q-1.181 0-2.188.426a4.9 4.9 0 0 0-1.704 1.22A5.6 5.6 0 0 0 7.05 9.55q-.407 1.105-.407 2.44 0 1.336.407 2.44a5.8 5.8 0 0 0 1.123 1.898 5.2 5.2 0 0 0 1.704 1.22q1.006.426 2.188.426a5.4 5.4 0 0 0 2.169-.426 5.2 5.2 0 0 0 1.723-1.22 5.8 5.8 0 0 0 1.123-1.898q.407-1.104.407-2.44Z"/>
<defs>
<linearGradient id="a" gradientTransform="scale(33)" gradientUnits="userSpaceOnUse">
<stop stop-color="#F4F4F4"/>
<stop offset="1" stop-color="#DDD"/>
</linearGradient>
</defs>
</svg>
