<svg xmlns="http://www.w3.org/2000/svg" width="24" height="24" fill="none">
 <rect x="1" y="1" width="22" height="22" rx="6.6" fill="url(#a)" opacity="0.9" style="-inkscape-stroke:hairline;fill:url(#a);stroke-opacity:.2;stroke:gray;vector-effect:non-scaling-stroke"/>
<path fill="#347AB4" d="M11.697 3.2c-2.018 0-3.642.812-3.642 1.82v2.428h3.642v.607H5.02c-1.008 0-1.82 1.625-1.82 3.642v.606c0 2.018.812 3.642 1.82 3.642h2.428v-1.82s0-2.428 2.428-2.428h4.855s1.214 0 1.214-1.214V5.02c0-1.009-1.624-1.821-3.642-1.821h-.606ZM9.876 4.414a.607.607 0 1 1 0 1.214.607.607 0 0 1 0-1.214"/>
<path fill="#b4912a" d="M12.303 20.8c2.018 0 3.642-.812 3.642-1.82v-2.428h-3.642v-.607h6.676c1.009 0 1.821-1.624 1.821-3.642v-.606c0-2.018-.812-3.642-1.82-3.642h-2.428v2.428c0 1.82-1.821 1.82-1.821 1.82H9.876c-1.82 0-1.82 1.821-1.82 1.821v4.855c0 1.009 1.623 1.821 3.64 1.821zm1.821-1.82a.607.607 0 1 1 0-1.215.607.607 0 0 1 0 1.214Z"/>
<defs>
  <linearGradient id="a" x1=".05" x2="1" y1="0" y2="1" gradientTransform="scale(22)" gradientUnits="userSpaceOnUse">
   <stop  style="stop-color:#347AB4" offset="0.2"/>
   <stop  style="stop-color:#fff" offset="0.205"/>
   <stop  style="stop-color:#dadada" offset="1"/>
  </linearGradient>
</defs>
</svg>
