<svg xmlns="http://www.w3.org/2000/svg" width="24" height="24" fill="none">
<rect width="22" height="22" x="1" y="1" opacity="0.85" fill="url(#a)" rx="6.6" style="vector-effect:non-scaling-stroke;-inkscape-stroke:hairline;stroke-width:1;stroke-dasharray:none;stroke:gray;stroke-opacity:.2"/>
<path fill="#76C22B" d="M7.43 4v.432h6.856V4zm0 1.297v.433H20v-.433zm0 1.297v.433H12v-.433zM4 16.973v.432h15.999v-.432z"/>
<path fill="#8F76E4" d="M6.285 9.19v.431h9.428V9.19zm0 1.296v.433h3.428v-.433zm0 1.297v.433h8v-.432z"/>
<path fill="#46A926" d="M4 7.892v.432h4.571v-.432z"/>
<path fill="#76C22B" d="M9.714 13.08v.433h3.429v-.432zm-3.428 1.298v.432h6.857v-.432z"/>
<path fill="#46A926" d="M4 13.08v.433h4.571v-.432zm0 2.595v.433h4.571v-.433zM4 4v.432h2.286V4zm0 1.297v.433h2.286v-.433zm0 1.297v.433h2.286v-.433z"/>
<path fill="#F22C42" d="M14.286 14.378v.432h3.429v-.432zm-3.429-3.892v.433h3.428v-.433z"/>
<path fill="#76C22B" d="M4 18.27v.433h15.999v-.433zm0 1.298V20h8v-.432z"/>
<defs>
<linearGradient id="a" gradientTransform="scale(33)" gradientUnits="userSpaceOnUse">
<stop stop-color="#F4F4F4"/>
<stop offset="1" stop-color="#DDD"/>
</linearGradient>
</defs>
</svg>
