<svg xmlns="http://www.w3.org/2000/svg" width="24" height="24" fill="none">
<rect width="22" height="22" x="1" y="1" opacity="0.85" fill="url(#a)" rx="6.6" style="vector-effect:non-scaling-stroke;-inkscape-stroke:hairline;stroke-width:1;stroke-dasharray:none;stroke:gray;stroke-opacity:.2"/>
<path fill="#8F76E4" d="M11.821 8a4 4 0 0 0-1.873.443l.292.798a3.04 3.04 0 0 1 1.447-.377q.583 0 .886.3.303.288.303.753 0 .288-.135.532a2 2 0 0 1-.325.465q-.203.222-.426.443a4 4 0 0 0-.427.466 2.5 2.5 0 0 0-.336.532 1.6 1.6 0 0 0-.123.642q0 .244.045.465h.874a.6.6 0 0 1-.011-.121v-.122q0-.366.146-.654.146-.3.359-.543.213-.255.47-.487.259-.233.472-.488.212-.254.359-.543.145-.3.145-.676 0-.3-.1-.62a1.4 1.4 0 0 0-.337-.599 1.8 1.8 0 0 0-.662-.432Q12.46 8.001 11.821 8m-2.976 2.072L4 12.1v.886l4.845 2.028.291-.853-3.981-1.618 3.981-1.618zm6.31 0-.291.853 3.98 1.618-3.98 1.618.291.853L20 12.986V12.1zm-3.513 4.443q-.348 0-.55.222a.75.75 0 0 0-.202.52q0 .3.202.521t.55.222.55-.222a.75.75 0 0 0 .201-.52q0-.3-.202-.521-.2-.222-.55-.222Z"/>
<defs>
<linearGradient id="a" gradientTransform="scale(33)" gradientUnits="userSpaceOnUse">
<stop stop-color="#F4F4F4"/>
<stop offset="1" stop-color="#DDD"/>
</linearGradient>
</defs>
</svg>
