<svg xmlns="http://www.w3.org/2000/svg" width="24" height="24" fill="none">
<rect width="22" height="22" x="1" y="1" opacity="0.85" fill="url(#a)" rx="6.6" style="vector-effect:non-scaling-stroke;-inkscape-stroke:hairline;stroke-width:1;stroke-dasharray:none;stroke:gray;stroke-opacity:.2"/>
<path fill="#AEA795" d="M5 4v1.143h.857c.397 0 .72-.026 1.036.075.315.1.569.377.698.789.259.824.265 2.308.266 5.429 0 1.188-.008 2.082-.026 2.85h.013l-.004.29c-.02 1.214-.055 2.446-.124 2.869-.07.423-.214.646-.35.803a1.6 1.6 0 0 1-.575.436c-.241.103-.53.154-.92.173-.402.02-.667.006-.871 0V20h8v-1.143c-.208.005-.486.016-.869 0-.713-.03-1.122-.248-1.438-.564-.213-.212-.361-.501-.434-.958s-.098-1.68-.116-2.759v-2.005H11c1.17 0 2.13.259 2.678.972l.02.025.012.028c.375.802.414 1.655.42 2.404h1.156V8.571h-1.143v.33c-.002.882-.32 1.556-.888 1.966s-1.389.85-2.255.562h-.857V5.143h2.571c2.269 0 3.239-.017 3.86.346l.024.015.022.019c.73.651 1.124 1.35 1.32 2.094.173.657.193 1.353.196 2.097h1.15V4z"/>
<defs>
<linearGradient id="a" gradientTransform="scale(33)" gradientUnits="userSpaceOnUse">
<stop stop-color="#F4F4F4"/>
<stop offset="1" stop-color="#DDD"/>
</linearGradient>
</defs>
</svg>
