<svg xmlns="http://www.w3.org/2000/svg" width="24" height="24" fill="none">
<rect width="22" height="22" x="1" y="1" opacity="0.85" fill="url(#a)" rx="6.6" style="vector-effect:non-scaling-stroke;-inkscape-stroke:hairline;stroke-width:1;stroke-dasharray:none;stroke:gray;stroke-opacity:.2"/>
<path fill="#F9B72B" d="M14.364 6q-.646 0-1.204.24a2.8 2.8 0 0 0-.966.664l-.003.003v.001c-.265.29-.47.64-.615 1.04q-.22.6-.22 1.31-.001.72.22 1.32c.145.394.35.74.614 1.029h.001l.002.003q.41.435.964.676h.003v.001h.002c.37.153.774.228 1.202.228s.832-.075 1.203-.228h.002l.002-.002c.369-.16.69-.387.954-.677l.001-.001a3 3 0 0 0 .627-1.03q.22-.598.218-1.32 0-.708-.218-1.307v-.003a3 3 0 0 0-.627-1.039 2.7 2.7 0 0 0-.957-.668h-.001c-.37-.16-.774-.24-1.202-.24zm-.001.511c.368 0 .7.067 1.005.199h.002l.001.001q.457.188.778.541v.001l.003.003c.222.237.396.523.52.868l.003.006v.003q.184.499.185 1.125-.001.642-.187 1.143a2.5 2.5 0 0 1-.521.858l-.002.003h-.001a2.25 2.25 0 0 1-.778.552l-.001.001a2.6 2.6 0 0 1-1.006.19c-.368 0-.7-.065-1.006-.19h-.001a2.4 2.4 0 0 1-.79-.553v-.001a2.6 2.6 0 0 1-.512-.86 3.3 3.3 0 0 1-.187-1.143q.001-.628.185-1.126l.002-.006v-.002c.126-.346.296-.633.511-.87h.001q.333-.355.789-.543h.002l.002-.001a2.5 2.5 0 0 1 1.003-.199m-6.21.99c-.324 0-.632.061-.915.183q-.425.177-.738.508l-.001.002h-.001a2.4 2.4 0 0 0-.468.792v.002a2.9 2.9 0 0 0-.166.988q-.001.543.166.999c.11.298.267.562.468.783l.002.003c.207.22.455.392.735.514l.006.002c.282.116.59.174.913.174q.487 0 .913-.173l.003-.002.002-.001a2.1 2.1 0 0 0 .728-.517h.001a2.3 2.3 0 0 0 .477-.783 2.9 2.9 0 0 0 .165-.999 2.9 2.9 0 0 0-.165-.989 2.3 2.3 0 0 0-.477-.793H9.8a2 2 0 0 0-.73-.51 2.3 2.3 0 0 0-.916-.182Zm-.014.512h.015q.393 0 .715.141l.002.001.003.001q.322.134.549.382l.002.002.002.002q.237.25.37.619l.002.004q.133.356.133.811-.001.464-.134.822a1.8 1.8 0 0 1-.371.612l-.001.001v.001h-.001l-.001.002a1.6 1.6 0 0 1-.552.39l-.001.001H8.87a1.9 1.9 0 0 1-.716.135q-.393-.001-.716-.134h-.001l-.001-.001a1.7 1.7 0 0 1-.56-.392h-.001v-.002a1.9 1.9 0 0 1-.365-.613 2.4 2.4 0 0 1-.135-.822q.001-.455.134-.812v-.002l.001-.001q.135-.37.365-.62V8.54c.159-.168.342-.295.56-.384h.001l.002-.002a1.8 1.8 0 0 1 .696-.14zm6.296 5.605c-2.253 0-3.627.206-4.485.842-.428.317-.71.747-.871 1.261-.156.495-.207 1.116-.213 1.79l.512.002c.005-.646.057-1.22.189-1.638.136-.435.347-.753.687-1.005.684-.506 1.962-.74 4.181-.74s3.498.234 4.18.74c.34.252.551.57.687 1.005.13.417.182.992.187 1.637H20c-.004-.674-.055-1.295-.21-1.79-.16-.515-.442-.945-.87-1.262-.858-.637-2.231-.842-4.485-.842m-6.433-.107c-1.598.005-2.541.16-3.182.638a1.86 1.86 0 0 0-.66.967c-.12.393-.159.847-.16 1.383v.764h.511v-.764c.001-.51.04-.918.138-1.232.096-.313.242-.533.477-.708.467-.349 1.314-.53 2.876-.537z"/>
<defs>
<linearGradient id="a" gradientTransform="scale(33)" gradientUnits="userSpaceOnUse">
<stop stop-color="#F4F4F4"/>
<stop offset="1" stop-color="#DDD"/>
</linearGradient>
</defs>
</svg>
