<svg xmlns="http://www.w3.org/2000/svg" width="24" height="24" fill="none">
<rect width="22" height="22" x="1" y="1" opacity="0.85" fill="url(#a)" rx="6.6" style="vector-effect:non-scaling-stroke;-inkscape-stroke:hairline;stroke-width:1;stroke-dasharray:none;stroke:gray;stroke-opacity:.2"/>
<g filter="url(#b)" opacity=".15">
<path fill="#000" d="M5.875 10.25h7c.485 0 .875.39.875.875v7c0 .485-.39.875-.875.875h-7A.873.873 0 0 1 5 18.125v-7c0-.485.39-.875.875-.875"/>
<path stroke="#000" stroke-linejoin="round" stroke-opacity=".294" stroke-width=".438" d="M5.875 10.25h7c.485 0 .875.39.875.875v7c0 .485-.39.875-.875.875h-7A.873.873 0 0 1 5 18.125v-7c0-.485.39-.875.875-.875Z"/>
</g>
<path fill="#E6E6E6" d="M5.875 10.25h7c.485 0 .875.39.875.875v7c0 .485-.39.875-.875.875h-7A.873.873 0 0 1 5 18.125v-7c0-.485.39-.875.875-.875"/>
<path fill="#999" d="M8.399 11.547a.14.14 0 0 0-.133.127l-.021.198q-.031.254-.049.432l-.02.223-.004.036q-.331.02-.688.022-.277 0-.564-.02a.14.14 0 0 0-.14.091.14.14 0 0 0-.007.06l.045.496a.14.14 0 0 0 .129.126q.118.008.306.008c.274 0 .565-.016.862-.036q-.035.435-.05.872a5 5 0 0 0-.5.309h-.002c-.733.556-1.122 1.206-1.122 1.924 0 .267.057.487.19.645.135.158.34.234.577.234.326 0 .662-.134 1.006-.345l.046.279a.14.14 0 0 0 .125.114q.03.003.059-.008l.511-.191a.14.14 0 0 0 .085-.166 4 4 0 0 1-.106-.58c.558-.543 1.008-1.223 1.36-2.024.24.038.448.103.614.205v.001c.378.228.548.527.548.954 0 .414-.185.728-.599.987-.323.205-.768.342-1.336.403a.14.14 0 0 0-.123.147.14.14 0 0 0 .022.067l.304.472q.021.034.058.05.037.017.076.011c.681-.097 1.228-.292 1.635-.595.518-.387.792-.912.792-1.535a1.73 1.73 0 0 0-.667-1.397h-.002c-.277-.217-.645-.347-1.075-.421.025-.078.057-.17.069-.222a.14.14 0 0 0-.104-.165l-.522-.121a.137.137 0 0 0-.165.101 8 8 0 0 1-.102.372 5 5 0 0 0-.853.168c.009-.213.02-.42.039-.61a15 15 0 0 0 2.023-.352.14.14 0 0 0 .104-.15l-.055-.49a.14.14 0 0 0-.115-.121.14.14 0 0 0-.059.003c-.608.168-1.216.282-1.823.355.024-.231.05-.47.086-.752a.14.14 0 0 0-.128-.155l-.525-.035zm1.007 2.884q-.232.485-.554.915c-.009-.228-.018-.45-.019-.76a4 4 0 0 1 .573-.155m-1.34.606c.009.41.022.793.047 1.084q-.456.4-.812.398c-.042 0-.047-.006-.05-.01s-.016-.024-.016-.08q-.002-.045-.011-.087c.003-.023.011-.047.011-.07v.011c.024-.315.2-.653.555-1.014l.001-.001c.097-.103.184-.159.275-.231"/>
<g filter="url(#c)" opacity=".15">
<path fill="#074271" d="M11.125 5a.873.873 0 0 0-.875.875v7c0 .485.39.875.875.875h7c.485 0 .875-.39.875-.875v-7A.873.873 0 0 0 18.125 5z"/>
<path stroke="#0B5FA1" stroke-linejoin="round" stroke-width=".438" d="M11.125 5a.873.873 0 0 0-.875.875v7c0 .485.39.875.875.875h7c.485 0 .875-.39.875-.875v-7A.873.873 0 0 0 18.125 5z"/>
</g>
<path fill="#44A5F3" d="M11.125 5a.873.873 0 0 0-.875.875v7c0 .485.39.875.875.875h7c.485 0 .875-.39.875-.875v-7A.873.873 0 0 0 18.125 5z"/>
<path fill="#fff" d="M14.16 6.75 12.204 12h.9l.543-1.575h1.94l.55 1.575h.91L15.09 6.75zm.465.866.783 2.284h-1.581z"/>
<defs>
<filter id="b" width="9.713" height="9.713" x="4.519" y="9.769" color-interpolation-filters="sRGB" filterUnits="userSpaceOnUse">
<feFlood flood-opacity="0" result="BackgroundImageFix"/>
<feBlend in="SourceGraphic" in2="BackgroundImageFix" result="shape"/>
<feGaussianBlur result="effect1_foregroundBlur_6_222" stdDeviation=".131"/>
</filter>
<filter id="c" width="10.063" height="10.063" x="9.594" y="4.344" color-interpolation-filters="sRGB" filterUnits="userSpaceOnUse">
<feFlood flood-opacity="0" result="BackgroundImageFix"/>
<feBlend in="SourceGraphic" in2="BackgroundImageFix" result="shape"/>
<feGaussianBlur result="effect1_foregroundBlur_6_222" stdDeviation=".219"/>
</filter>
<linearGradient id="a" gradientTransform="scale(33)" gradientUnits="userSpaceOnUse">
<stop stop-color="#F4F4F4"/>
<stop offset="1" stop-color="#DDD"/>
</linearGradient>
</defs>
</svg>
