<svg xmlns="http://www.w3.org/2000/svg" width="24" height="24" fill="none">
 <rect x="1" y="1" width="22" height="22" rx="6.6" fill="url(#a)" opacity="0.9" style="-inkscape-stroke:hairline;fill:url(#a);stroke-opacity:.2;stroke:gray;vector-effect:non-scaling-stroke"/>
<path fill="#888" d="M12 5c-3.862 0-7 3.138-7 7s3.138 7 7 7 7-3.138 7-7-3.138-7-7-7m0 .7a6.3 6.3 0 1 1 0 12.6 6.3 6.3 0 0 1 0-12.6"/>
<path fill="#888" d="M11.533 11.067v4.666h.934v-4.666zM12 8.5a.7.7 0 1 0 0 1.4.7.7 0 0 0 0-1.4"/>
<defs>
  <linearGradient id="a" x1=".05" x2="1" y1="0" y2="1" gradientTransform="scale(22)" gradientUnits="userSpaceOnUse">
   <stop  style="stop-color:#888" offset="0.2"/>
   <stop  style="stop-color:#fff" offset="0.205"/>
   <stop  style="stop-color:#dadada" offset="1"/>
  </linearGradient>
</defs>
</svg>
