<?xml version="1.0" encoding="UTF-8"?>
<svg width="24" height="24" fill="none" version="1.1" xmlns="http://www.w3.org/2000/svg">
 <rect x="1" y="1" width="22" height="22" rx="6.6" fill="url(#a)" opacity=".9" stroke="gray" stroke-opacity=".2" vector-effect="non-scaling-stroke" style="-inkscape-stroke:hairline"/>
 <path d="m15.289 7.0151 0.118 0.158-0.576 2.22-0.219 0.036-1.397-2.22 0.101-0.194zm-4.605 0 0.097 0.2-1.643 2.342-0.22-0.057-0.329-2.343 0.122-0.142zm5.85 0.044 2.466 3.206-0.095 0.203h-3.452l-0.117-0.163 0.986-3.206zm-4.44 0 2.467 3.206-0.095 0.203h-4.932l-0.095-0.203 2.466-3.206h0.19zm-4.628 0 0.212 0.04 0.986 3.206-0.117 0.163h-3.452l-0.095-0.203zm11.44 3.902 0.09 0.207-6.413 7.152-0.203-0.132 2.96-7.152 0.113-0.075zm-4.44 0 0.114 0.17-2.466 6.166h-0.228l-2.466-6.165 0.114-0.171zm-5.919 0 0.114 0.075 2.96 7.152-0.205 0.132-6.412-7.152 0.09-0.207z" clip-rule="evenodd" fill="#f44336" fill-rule="evenodd"/>
 <defs>
  <linearGradient id="a" x1=".05" x2="1" y2="1" gradientTransform="scale(22)" gradientUnits="userSpaceOnUse">
   <stop stop-color="#F44336" offset=".2"/>
   <stop stop-color="#fff" offset=".205"/>
   <stop stop-color="#dadada" offset="1"/>
  </linearGradient>
 </defs>
</svg>
