<?xml version="1.0" encoding="UTF-8"?>
<svg width="24" height="24" fill="none" version="1.1" xmlns="http://www.w3.org/2000/svg">
 <rect x="1" y="1" width="22" height="22" rx="6.6" fill="url(#a)" opacity=".9" stroke="gray" stroke-opacity=".5" vector-effect="non-scaling-stroke" style="-inkscape-stroke:hairline"/>
 <g stroke-width=".81112">
  <path d="m5.511 6.2138v0.41854h8.3432v-0.41854zm0 1.2556v0.41935h12.978v-0.41935zm0 1.2564v0.41854h6.489v-0.41854z" fill="#5884f4"/>
  <path d="m5.511 17.518v0.41854h12.978v-0.41935h-12.978zm0 1.2556v0.41854h6.489v-0.41854z" fill="#b3b3b3"/>
  <path d="m10.146 9.9815v0.41854h7.6481v-0.41854zm0 1.2564v0.41854h8.3432v-0.41935h-8.3432zm0 1.2556v0.41854h6.489v-0.41854z" fill="#c43ac4"/>
  <path d="m5.511 9.9815v0.41854h3.7076v-0.41854zm0 1.2564v0.41854h3.7076v-0.41935h-3.7076zm0 1.2556v0.41854h3.7076v-0.41854z" fill="#8c59d9"/>
  <path d="m10.146 13.749v0.41935h8.3432v-0.41935zm0 1.2564v0.41854h6.489v-0.41854z" fill="#76c22b"/>
  <path d="m5.511 13.749v0.41935h3.7076v-0.41935zm0 1.2564v0.41854h3.7076v-0.41854zm0 1.2556v0.41854h3.7076v-0.41854z" fill="#f22c42"/>
  <path d="m10.146 16.261v0.41854h8.3432v-0.41854z" fill="#b3b3b3"/>
 </g>
 <defs>
  <linearGradient id="a" x1=".05" x2="1" y2="1" gradientTransform="scale(22)" gradientUnits="userSpaceOnUse">
   <stop stop-color="#9e9e9e" offset="0"/>
   <stop offset=".205"/>
   <stop stop-color="#454545" offset="1"/>
  </linearGradient>
 </defs>
</svg>
