<?xml version="1.0" encoding="UTF-8"?>
<svg width="24" height="24" fill="none" version="1.1" xmlns="http://www.w3.org/2000/svg">
 <rect x="1" y="1" width="22" height="22" rx="6.6" fill="url(#a)" opacity=".9" stroke="gray" stroke-opacity=".2" vector-effect="non-scaling-stroke" style="-inkscape-stroke:hairline"/>
 <path d="m7.2791 6.3352c-0.31291-1.3e-6 -0.56633 0.25412-0.56547 0.56703v10.196c0 0.31312 0.25236 0.56703 0.56547 0.56703h9.4403c0.31352 8.66e-4 0.56789-0.25351 0.56703-0.56703v-10.196c4e-6 -0.31195-0.25197-0.56531-0.56392-0.56703h-9.4403zm0.18849 0.75552h0.75552v0.75552h-0.75552zm1.8896 0h5.2856c0.2103 0 0.37854 0.16824 0.37854 0.37698v3.7776c0.0017 0.20892-0.16806 0.37873-0.37698 0.37698h-5.2886c-0.20953 0.002607-0.3803-0.16744-0.37854-0.37698v-3.7776c0-0.20874 0.16824-0.37698 0.37854-0.37698zm6.4181 0h0.75708v0.75552h-0.75552v-0.75552zm-8.3077 1.511h0.75552v0.75397h-0.75552zm8.3092 0h0.75552v0.75397h-0.75552zm-8.3092 1.511h0.75552v0.75397h-0.75552v-0.75552zm8.3092 0h0.75552v0.75397h-0.75552v-0.75552zm-8.3092 1.5095h0.75552v0.75552h-0.75552zm8.3092 0h0.75552v0.75552h-0.75552zm-6.4196 0.75552h5.2856c0.2103 0 0.37854 0.16824 0.37854 0.37698v3.7776c0.0017 0.20892-0.16806 0.37873-0.37698 0.37698h-5.2886c-0.15378 0.0016-0.29284-0.09112-0.3505-0.23366-0.02057-0.04488-0.03018-0.094-0.02804-0.14332v-3.7792c0-0.20874 0.16824-0.37698 0.37854-0.37698zm-1.8896 0.75552h0.75552v0.75397h-0.75552zm8.3092 0h0.75552v0.75397h-0.75552zm-8.3092 1.511h0.75552v0.75397h-0.75552zm8.3092 0h0.75552v0.75397h-0.75552zm-8.3092 1.5095h0.75552v0.75552h-0.75552zm8.3092 0h0.75552v0.75552h-0.75552z" fill="#7e8087" stroke-width="1.5578"/>
 <defs>
  <linearGradient id="a" x1=".05" x2="1" y2="1" gradientTransform="scale(22)" gradientUnits="userSpaceOnUse">
   <stop stop-color="#7E8087" offset=".2"/>
   <stop stop-color="#fff" offset=".205"/>
   <stop stop-color="#dadada" offset="1"/>
  </linearGradient>
 </defs>
</svg>
