<?xml version="1.0" encoding="UTF-8"?>
<svg width="24" height="24" version="1.1" xmlns="http://www.w3.org/2000/svg">
 <defs>
  <linearGradient id="a" x1=".05" x2="1" y2="1" gradientTransform="scale(22)" gradientUnits="userSpaceOnUse">
   <stop stop-color="#8f8f8f" offset=".2"/>
   <stop stop-color="#fff" offset=".205"/>
   <stop stop-color="#dadada" offset="1"/>
  </linearGradient>
 </defs>
 <rect x="1" y="1" width="22" height="22" rx="6.6" fill="url(#a)" opacity=".9" stroke="gray" stroke-opacity=".2" vector-effect="non-scaling-stroke" style="-inkscape-stroke:hairline"/>
 <path d="m14.464 10.275a2.8828 2.8828 0 0 0-0.42062 0.04259l-3.0184 0.46124c-0.72857 0.15462-0.72594 0.2031-0.72857 0.81891v4.995q-0.04455-0.03276-0.09172-0.06355c-0.23127-0.15594-0.47829-0.26601-0.80981-0.26601-0.41538 0-0.66304 0.15921-0.81237 0.36821-0.15003 0.20965-0.19983 0.47304-0.19983 0.67746 0 0.24634 0.083868 0.50842 0.266 0.7089 0.18279 0.19983 0.46256 0.34004 0.8648 0.34004 0.45535 0 0.77505-0.1271 0.95654-0.37542 0.14218-0.19524 0.22145-0.456 0.24897-0.77768v-2e-3l0.0092-0.1199c0.0039-0.06355 0.0026-0.18345 0.0026-0.18345v-3.8236c0-0.54641 0-0.57917 0.7292-0.70366l2.1464-0.33676c0.73049-0.09499 0.73049-0.02883 0.73049 0.3813v3.5104l-0.08976-0.06223c-0.23062-0.15592-0.47828-0.26534-0.80917-0.26534-0.41538 0-0.66304 0.15855-0.81237 0.36821-0.15069 0.20965-0.19983 0.47369-0.19983 0.67745 0 0.24569 0.08387 0.50842 0.266 0.70824 0.18213 0.20048 0.46256 0.34069 0.86547 0.34069 0.45469 0 0.77505-0.1271 0.95595-0.37541 0.14217-0.19459 0.2208-0.456 0.24897-0.77839q0.0053-0.05897 0.0092-0.1212c0.0039-0.06355 0.0033-0.18214 0.0033-0.18214v-5.3214c0-0.47894-0.0039-0.63749-0.31056-0.64075" opacity=".5" stroke-width=".76708"/>
 <g transform="matrix(.88121 0 0 .88121 1.4138 2.7084)" alignment-baseline="middle" font-family="Lato" font-weight="bold" opacity=".5" text-anchor="middle">
  <text x="12"  y="7"><tspan font-size="5.5px">cdda</tspan></text>
 </g>
</svg>
