<svg xmlns="http://www.w3.org/2000/svg" viewBox="0 0 256 256"><defs><style id="current-color-scheme" type="text/css">.ColorScheme-Text{color:#363636}</style></defs><rect width="232" height="232" x="12" y="12" fill="#ffb852" stroke-width="1.483" rx="8" ry="8"/><path fill="#fff" d="M22.24 26.736V38.32h6.711l.033-1.063h-5.348V26.736zm103.61.881-1.055.078-.215 2.223-1.293.088-.031.746h1.293v5.05c0 .513.045.929.135 1.246.09.318.252.579.484.785.238.206.545.35.92.43.376.079.869.119 1.477.119h.547l.064-.906-.666-.031c-.703-.026-1.156-.138-1.357-.334-.201-.199-.303-.635-.303-1.309v-5.05h2.223v-.834h-2.223zm-15.91 2.133c-1.265 0-2.215.443-2.85 1.332l-.143-1.156h-1.143v8.395h1.316v-4.682c0-1.92.863-2.879 2.588-2.879.64 0 1.088.192 1.342.578.254.381.381.95.381 1.707v5.275h1.316v-5.135c0-1.153-.229-2.01-.689-2.578-.455-.571-1.162-.857-2.119-.857m-67.924.002c-1.121 0-2.132.209-3.03.627l.357.967a5.678 5.678 0 0 1 1.316-.428 6.57 6.57 0 0 1 1.381-.158c.635 0 1.1.15 1.391.451.296.302.443.76.443 1.373v.824h-1.344c-1.349 0-2.333.214-2.951.643-.613.423-.92 1.09-.92 2 0 .761.232 1.356.697 1.785.471.429 1.093.643 1.865.643 1.153 0 2.089-.441 2.809-1.324l.145 1.158h1v-5.539c0-1.069-.276-1.838-.826-2.309-.545-.476-1.321-.713-2.332-.713m29.83 0c-1.074 0-1.937.469-2.588 1.41l-.15-1.236h-1.064v8.395l.002-.002h1.316V33.2c.111-.735.355-1.323.73-1.768.381-.449.894-.674 1.539-.674.587 0 .988.219 1.205.658.217.434.326 1.163.326 2.189v4.713h1.316v-4.307c.016-.73.046-1.168.088-1.311.143-.629.412-1.11.809-1.443s.849-.5 1.357-.5c.227 0 .424.035.594.104a.864.864 0 0 1 .414.301c.106.138.191.279.254.422.063.137.108.32.135.547s.043.421.049.58c.011.153.016.355.016.609v5h1.316v-5.412c0-2.105-.856-3.156-2.57-3.156-1.217 0-2.14.568-2.77 1.705-.195-.535-.474-.953-.834-1.254s-.856-.451-1.49-.451m24.979 0c-1.121 0-2.13.209-3.03.627l.357.967a5.678 5.678 0 0 1 1.316-.428 6.57 6.57 0 0 1 1.381-.158c.635 0 1.098.15 1.389.451.296.302.445.76.445 1.373v.824h-1.344c-1.349 0-2.333.214-2.951.643-.613.423-.92 1.09-.92 2 0 .761.232 1.356.697 1.785.471.429 1.093.643 1.865.643 1.153 0 2.089-.441 2.809-1.324l.143 1.158h1v-5.539c0-1.069-.274-1.838-.824-2.309-.545-.476-1.323-.713-2.334-.713m21.539 0c-1.233 0-2.201.401-2.904 1.205-.698.799-1.047 1.858-1.047 3.176 0 1.285.356 2.331 1.064 3.141.709.804 1.67 1.207 2.887 1.207 1.19 0 2.148-.406 2.873-1.215.725-.815 1.086-1.858 1.086-3.133 0-1.317-.349-2.377-1.047-3.176-.698-.804-1.669-1.205-2.912-1.205m-84.46.002c-1.111 0-2.025.399-2.744 1.197-.719.795-1.08 1.866-1.08 3.213 0 1.328.368 2.381 1.104 3.158.735.772 1.695 1.158 2.873 1.158 1.057 0 2-.247 2.832-.738l-.279-.928a8.042 8.042 0 0 1-1.205.5c-.359.111-.76.166-1.199.166-.809 0-1.464-.256-1.967-.77-.503-.518-.776-1.312-.818-2.381h5.674l.049-.666c0-1.227-.279-2.183-.834-2.871-.55-.693-1.352-1.039-2.404-1.039m25.391 0c-1.111 0-2.025.399-2.744 1.197-.719.795-1.08 1.866-1.08 3.213 0 1.328.368 2.381 1.104 3.158.735.772 1.692 1.158 2.871 1.158 1.058 0 2-.246 2.832-.738l-.277-.928a8.056 8.056 0 0 1-1.207.5 4.042 4.042 0 0 1-1.197.166c-.809 0-1.466-.256-1.969-.77-.503-.518-.774-1.312-.816-2.381h5.674l.047-.666c0-1.227-.277-2.183-.832-2.871-.55-.693-1.352-1.039-2.404-1.039m25.709 0c-1.111 0-2.025.399-2.744 1.197-.719.795-1.078 1.866-1.078 3.213 0 1.328.366 2.381 1.102 3.158.735.772 1.695 1.158 2.873 1.158 1.057 0 2-.247 2.832-.738l-.279-.928a8.042 8.042 0 0 1-1.205.5 4.042 4.042 0 0 1-1.197.166c-.809 0-1.466-.256-1.969-.77-.503-.518-.774-1.312-.816-2.381h5.672l.049-.666c0-1.227-.279-2.183-.834-2.871-.55-.693-1.352-1.039-2.404-1.039m48.21 0c-1.111 0-2.025.399-2.744 1.197-.719.795-1.08 1.866-1.08 3.213 0 1.328.368 2.381 1.104 3.158.735.772 1.692 1.158 2.871 1.158 1.058 0 2-.246 2.832-.738l-.277-.928a8.056 8.056 0 0 1-1.207.5 4.042 4.042 0 0 1-1.197.166c-.809 0-1.464-.256-1.967-.77-.502-.518-.776-1.312-.818-2.381h5.674l.047-.666c0-1.227-.277-2.183-.832-2.871-.55-.693-1.352-1.039-2.404-1.039m-80.15.168c-.275.772-.693 1.927-1.254 3.467-.555 1.539-.971 2.695-1.246 3.467-.344-.907-.842-2.243-1.492-4.01-.645-1.767-1-2.74-1.07-2.92h-1.35l3.246 8.395v-.004h1.326l3.182-8.395zm-19.13.834c1.333 0 2.032.906 2.096 2.715h-4.572c.074-.836.335-1.498.779-1.984.449-.487 1.015-.73 1.697-.73m25.391 0c1.333 0 2.03.906 2.094 2.715h-4.57c.074-.836.333-1.498.777-1.984.449-.487 1.017-.73 1.699-.73m25.709 0c1.333 0 2.032.906 2.096 2.715h-4.57c.074-.836.333-1.498.777-1.984.449-.487 1.015-.73 1.697-.73m48.21 0c1.333 0 2.032.906 2.096 2.715h-4.572c.074-.836.335-1.498.779-1.984.449-.487 1.015-.73 1.697-.73m-14.881.004c.862 0 1.514.309 1.953.928.439.614.658 1.435.658 2.461 0 .656-.09 1.229-.27 1.721-.18.487-.471.88-.873 1.176-.397.291-.887.436-1.469.436-.847 0-1.492-.307-1.936-.92-.445-.613-.666-1.42-.666-2.42 0-1.021.221-1.84.666-2.453.444-.619 1.089-.928 1.936-.928m-75.5 3.521h1.01v1.85c-.629.926-1.486 1.389-2.57 1.389h-.002c-.397 0-.728-.127-.992-.381-.265-.254-.398-.615-.398-1.08 0-.259.025-.476.072-.65a1.237 1.237 0 0 1 .785-.849c.222-.09.506-.158.85-.205s.759-.072 1.246-.072m54.811 0h1.01v1.85c-.629.926-1.488 1.389-2.572 1.389h-.002c-.397 0-.728-.127-.992-.381-.265-.254-.396-.615-.396-1.08 0-.259.023-.476.07-.65.048-.18.137-.344.264-.492.127-.153.301-.273.523-.357.222-.09.506-.158.85-.205s.759-.072 1.246-.072m-77.67 15.719v1h216v-1zm3 168v14h-1v1h1v1h1v-1h12v1h1v-1h1v-1h-1v-14h-1v14h-12v-14zm2 1v2h4v10h2v-10h4v-2z"/><path fill="#fff" fill-rule="evenodd" d="M223.51 219a1.987 1.987 0 0 0-1.986 1.986.985.985 0 0 1-.99.979.924.924 0 0 1-.461-.131.5.5 0 0 0-.008-.004 2 2 0 0 0-2.717.734l-.516.848a.5.5 0 0 0-.006.01 2 2 0 0 0 .725 2.717.5.5 0 0 0 .002.002.99.99 0 0 1 0 1.719 1.993 1.993 0 0 0-.727 2.71.5.5 0 0 0 0 .002l.488.842.002.002a1.995 1.995 0 0 0 2.717.77.5.5 0 0 0 .006-.004.977.977 0 0 1 .746-.1.5.5 0 0 0 .002 0 .976.976 0 0 1 .596.46.5.5 0 0 0 .004.007c.084.14.13.3.13.463A2 2 0 0 0 223.51 235h.979a2 2 0 0 0 1.992-1.984.5.5 0 0 0 0-.004.985.985 0 0 1 .986-.988c.166.005.329.05.473.132a2.002 2.002 0 0 0 2.717-.726l.51-.852a.5.5 0 0 0 .003-.006 1.983 1.983 0 0 0-.724-2.72.983.983 0 0 1-.362-1.35.5.5 0 0 0 .002-.004.964.964 0 0 1 .358-.357.5.5 0 0 0 .004-.002 1.993 1.993 0 0 0 .777-2.586.5.5 0 0 0-.053-.131l-.486-.844a2 2 0 0 0-2.717-.734.5.5 0 0 0-.006.004.985.985 0 0 1-1.351-.352.5.5 0 0 0 0-.002.925.925 0 0 1-.131-.463v.02a1.995 1.995 0 0 0-1.992-2.051h-.979zm0 1h.979a.994.994 0 0 1 .992 1.021.5.5 0 0 0 0 .02 1.985 1.985 0 0 0 2.984 1.672.985.985 0 0 1 1.354.365l.468.813a.5.5 0 0 0 .018.035.986.986 0 0 1-.361 1.35c-.3.172-.55.422-.723.722V226a1.987 1.987 0 0 0 .725 2.719.988.988 0 0 1 .36 1.347c0 .001.002.003 0 .004l-.51.852a.5.5 0 0 0-.005.006.985.985 0 0 1-1.353.361.5.5 0 0 0-.002-.002 2.021 2.021 0 0 0-.95-.265.5.5 0 0 0-.01 0 1.986 1.986 0 0 0-1.996 1.994.985.985 0 0 1-.992.984h-.978a.986.986 0 0 1-.994-.992.5.5 0 0 0 0-.006 1.936 1.936 0 0 0-.268-.959 1.979 1.979 0 0 0-1.203-.928 1.982 1.982 0 0 0-1.502.2.992.992 0 0 1-1.354-.385.5.5 0 0 0-.004-.01l-.492-.848a.978.978 0 0 1 .36-1.346 1.995 1.995 0 0 0 0-3.451v-.002a.984.984 0 0 1-.36-1.351l.516-.848a.5.5 0 0 0 .006-.01.985.985 0 0 1 1.353-.367c.29.17.62.264.957.267a.5.5 0 0 0 .006 0 2 2 0 0 0 1.992-1.964.5.5 0 0 0 0-.01.984.984 0 0 1 .987-.99zm.49 4c-1.65 0-3 1.35-3 3s1.35 3 3 3 3-1.35 3-3-1.349-3-3-3zm0 1c1.11 0 2 .89 2 2s-.89 2-2 2-2-.89-2-2 .89-2 2-2z" clip-rule="evenodd" color="#000" style="font-feature-settings:normal;font-variant-alternates:normal;font-variant-caps:normal;font-variant-east-asian:normal;font-variant-ligatures:normal;font-variant-numeric:normal;font-variant-position:normal;font-variation-settings:normal;inline-size:0;isolation:auto;mix-blend-mode:normal;shape-margin:0;shape-padding:0;text-decoration-color:#000;text-decoration-line:none;text-decoration-style:solid;text-indent:0;text-orientation:mixed;text-transform:none;white-space:normal"/></svg>