<?xml version="1.0" encoding="UTF-8" standalone="no"?>
<svg
   viewBox="0 0 32 32"
   id="svg"
   version="1.1"
   width="32"
   height="32"
   xmlns="http://www.w3.org/2000/svg"
   xmlns:svg="http://www.w3.org/2000/svg"
   xmlns:rdf="http://www.w3.org/1999/02/22-rdf-syntax-ns#"
   xmlns:cc="http://creativecommons.org/ns#"
   xmlns:dc="http://purl.org/dc/elements/1.1/">
  <defs
     id="defs81">
    <style
       id="current-color-scheme"
       type="text/css">
      .ColorScheme-Text {
        color:#7B7C7E;
      }
      .ColorScheme-Background{
        color:#EFF0F1;
      }
      .ColorScheme-Highlight{
        color:#3DAEE6;
      }
      .ColorScheme-ViewText {
        color:#7B7C7E;
      }
      .ColorScheme-ViewBackground{
        color:#FCFCFC;
      }
      .ColorScheme-ViewHover {
        color:#3DAEE6;
      }
      .ColorScheme-ViewFocus{
        color:#1E92FF;
      }
      .ColorScheme-ButtonText {
        color:#7B7C7E;
      }
      .ColorScheme-ButtonBackground{
        color:#EFF0F1;
      }
      .ColorScheme-ButtonHover {
        color:#3DAEE6;
      }
      .ColorScheme-ButtonFocus{
        color:#1E92FF;
      }
</style>
    <style
       type="text/css"
       id="style3">
      .ColorScheme-Text {
        color:#31363b;
      }
      .ColorScheme-Background {
        color:#eff0f1;
      }
      .ColorScheme-Highlight {
        color:#3daee9;
      }
      .ColorScheme-ViewText {
        color:#31363b;
      }
      .ColorScheme-ViewBackground {
        color:#fcfcfc;
      }
      .ColorScheme-ViewHover {
        color:#93cee9;
      }
      .ColorScheme-ViewFocus{
        color:#3daee9;
      }
      .ColorScheme-ButtonText {
        color:#31363b;
      }
      .ColorScheme-ButtonBackground {
        color:#eff0f1;
      }
      .ColorScheme-ButtonHover {
        color:#93cee9;
      }
      .ColorScheme-ButtonFocus{
        color:#3daee9;
      }
      </style>
  </defs>
  <metadata
     id="metadata34">
    <rdf:RDF>
      <cc:Work
         rdf:about="">
        <dc:format>image/svg+xml</dc:format>
        <dc:type
           rdf:resource="http://purl.org/dc/dcmitype/StillImage" />
      </cc:Work>
    </rdf:RDF>
  </metadata>
  <g
     id="printer"
     transform="translate(32.5,10)">
    <rect
       y="-10"
       x="-32.5"
       height="32"
       width="32"
       id="rect4208"
       style="fill:none;fill-opacity:1;stroke:none" />
    <path
       id="rect1088"
       d="m -22.5,-6 c -1.662,0 -3,1.338 -3,3 v 1 h -1 c -2.216,0 -4,1.784 -4,4 v 10 c 0,1.108 0.892,2 2,2 h 2 1 v 2 c 0,1.662 1.338,3 3,3 h 12 c 1.662,0 3,-1.338 3,-3 v -2 h 1 2 c 1.108,0 2,-0.892 2,-2 V 2 c 0,-2.216 -1.784,-4 -4,-4 h -1 v -1 c 0,-1.662 -1.338,-3 -3,-3 z m 0,1 h 12 c 1.108,0 2,0.892 2,2 v 1 h -16 v -1 c 0,-1.108 0.892,-2 2,-2 z m -4,4 h 20 c 1.662,0 3,1.338 3,3 v 10 c 0,0.554 -0.446,1 -1,1 h -2 -1 v -3 c 0,-1.662 -1.338,-3 -3,-3 h -12 c -1.662,0 -3,1.338 -3,3 v 3 h -1 -2 c -0.554,0 -1,-0.446 -1,-1 V 2 c 0,-1.662 1.338,-3 3,-3 z m 4,9 h 12 c 1.108,0 2,0.892 2,2 v 6 c 0,1.108 -0.892,2 -2,2 h -12 c -1.108,0 -2,-0.892 -2,-2 v -6 c 0,-1.108 0.892,-2 2,-2 z"
       class="ColorScheme-Text"
       fill="currentColor" />
  </g>
</svg>
