<?xml version="1.0" encoding="UTF-8" standalone="no"?>
<svg
   id="svg2"
   viewBox="0 0 32 32"
   version="1.1"
   width="32"
   height="32"
   xmlns="http://www.w3.org/2000/svg"
   xmlns:svg="http://www.w3.org/2000/svg">
  <defs
     id="defs15" />
  <style
     type="text/css"
     id="current-color-scheme">
        .ColorScheme-Text {
            color:#232629;
        }
    </style>
  <g
     id="drive"
     transform="translate(0,-31)">
    <path
       id="path927-3"
       class="ColorScheme-Text"
       d="m 9,35 c -1.108,0 -2,0.892 -2,2 v 6 1 4 1 8 c 0,1.108 0.892,2 2,2 h 14 c 1.108,0 2,-0.892 2,-2 v -8 -1 -4 -1 -6 c 0,-1.108 -0.892,-2 -2,-2 z m 0,1 h 3 11 c 0.554,0 1,0.446 1,1 v 3 3.054688 0.11914 A 3,3 0 0 0 22,46 3,3 0 0 0 24,48.828125 V 52 55 c 0,0.554 -0.446,1 -1,1 H 12 9 C 8.446,56 8,55.554 8,55 V 52 48.828125 A 3,3 0 0 0 10,46 3,3 0 0 0 8,43.173828 V 43.050781 40 37 c 0,-0.554 0.446,-1 1,-1 z m 0.4882812,1 A 0.5,0.5 0 0 0 9,37.5 0.5,0.5 0 0 0 9.5,38 0.5,0.5 0 0 0 10,37.5 0.5,0.5 0 0 0 9.5,37 0.5,0.5 0 0 0 9.4882812,37 Z M 22.488281,37 A 0.5,0.5 0 0 0 22,37.5 0.5,0.5 0 0 0 22.5,38 0.5,0.5 0 0 0 23,37.5 0.5,0.5 0 0 0 22.5,37 0.5,0.5 0 0 0 22.488281,37 Z M 8,44.269531 A 2,2 0 0 1 9,46 2,2 0 0 1 8,47.730469 Z m 16,0 v 3.460938 A 2,2 0 0 1 23,46 2,2 0 0 1 24,44.269531 Z M 9.4882812,54 A 0.5,0.5 0 0 0 9,54.5 0.5,0.5 0 0 0 9.5,55 0.5,0.5 0 0 0 10,54.5 0.5,0.5 0 0 0 9.5,54 0.5,0.5 0 0 0 9.4882812,54 Z M 22.488281,54 A 0.5,0.5 0 0 0 22,54.5 0.5,0.5 0 0 0 22.5,55 0.5,0.5 0 0 0 23,54.5 0.5,0.5 0 0 0 22.5,54 0.5,0.5 0 0 0 22.488281,54 Z M 10.5,57 h 6 c 0.277,0 0.5,0.223 0.5,0.5 0,0.277 -0.223,0.5 -0.5,0.5 h -6 C 10.223,58 10,57.777 10,57.5 10,57.223 10.223,57 10.5,57 Z m 9,0 h 2 c 0.277,0 0.5,0.223 0.5,0.5 0,0.277 -0.223,0.5 -0.5,0.5 h -2 C 19.223,58 19,57.777 19,57.5 19,57.223 19.223,57 19.5,57 Z"
       fill="currentColor" />
    <rect
       width="32"
       height="32"
       ry="0"
       fill="none"
       id="rect865"
       x="0"
       y="31"
       style="fill:none;stroke-width:1.45455" />
  </g>
</svg>
