<svg xmlns="http://www.w3.org/2000/svg" width="16" height="16"><path fill="#dedede" d="M10.776 2.962A5.038 5.038 0 0 0 8 3.799 5.038 5.038 0 0 1 10.263 8a5.038 5.038 0 0 1-2.261 4.2 5.038 5.038 0 0 0 2.774.837 5.038 5.038 0 0 0 5.037-5.037 5.038 5.038 0 0 0-5.037-5.04zm-5.552 0A5.038 5.038 0 0 0 .186 8a5.038 5.038 0 0 0 5.038 5.037 5.038 5.038 0 0 0 2.778-.837 5.038 5.038 0 0 1-.07-.043 5.038 5.038 0 0 1-.402-.304 5.038 5.038 0 0 1-.367-.344 5.038 5.038 0 0 1-.333-.378 5.038 5.038 0 0 1-.293-.41 5.038 5.038 0 0 1-.25-.437 5.038 5.038 0 0 1-.206-.46 5.038 5.038 0 0 1-.16-.478 5.038 5.038 0 0 1-.11-.49 5.038 5.038 0 0 1-.06-.501 5.038 5.038 0 0 1-.012-.355 5.038 5.038 0 0 1 .024-.503A5.038 5.038 0 0 1 5.84 7a5.038 5.038 0 0 1 .123-.489 5.038 5.038 0 0 1 .173-.472 5.038 5.038 0 0 1 .22-.453 5.038 5.038 0 0 1 .262-.431 5.038 5.038 0 0 1 .306-.4 5.038 5.038 0 0 1 .342-.37 5.038 5.038 0 0 1 .38-.332A5.038 5.038 0 0 1 8 3.8a5.038 5.038 0 0 0-2.776-.837z"/></svg>