<svg width="16" height="16"><path fill="#dedede" d="M4.5 1a.5.5 0 0 0-.5.5v5.648a.5.5 0 0 0 .645.479 3.001 3.001 0 0 1 1.712-.002A.5.5 0 0 0 7 7.146V1.5a.5.5 0 0 0-.5-.5zM5 2h1v4.574c-.168-.021-.33-.074-.5-.074a.5.5 0 0 0-.002 0c-.169 0-.331.053-.498.074zm3.853 7a.5.5 0 0 0-.478.643 3.001 3.001 0 0 1-.002 1.712.5.5 0 0 0 .479.645H14.5a.5.5 0 0 0 .5-.5v-2a.5.5 0 0 0-.5-.5zm.573 1H14v1H9.426c.021-.167.074-.33.074-.498a.5.5 0 0 0 0-.002c0-.17-.053-.332-.074-.5z"/><path fill="#61a1ff" d="M5.5 6A4.5 4.5 0 0 0 1 10.5 4.5 4.5 0 0 0 5.5 15a4.5 4.5 0 0 0 4.5-4.5A4.5 4.5 0 0 0 5.5 6zm0 2A2.5 2.5 0 0 1 8 10.5 2.5 2.5 0 0 1 5.5 13 2.5 2.5 0 0 1 3 10.5 2.5 2.5 0 0 1 5.5 8z"/></svg>