<svg xmlns="http://www.w3.org/2000/svg" width="16" height="16"><path fill="#dedede" d="M11.5 15a.5.5 0 0 0 .5-.5V8.852a.5.5 0 0 0-.645-.479 3.001 3.001 0 0 1-1.712.002.5.5 0 0 0-.643.479V14.5a.5.5 0 0 0 .5.5zm-.5-1h-1V9.426c.168.021.33.074.5.074a.5.5 0 0 0 .002 0c.169 0 .331-.053.498-.074zM7.146 7a.5.5 0 0 0 .479-.643 3.001 3.001 0 0 1 .002-1.712A.5.5 0 0 0 7.148 4H1.5a.5.5 0 0 0-.5.5v2a.5.5 0 0 0 .5.5zm-.572-1H2V5h4.574c-.021.167-.074.33-.074.498a.5.5 0 0 0 0 .002c0 .17.053.332.074.5z"/><path fill="#61a1ff" d="M10.5 10A4.5 4.5 0 0 0 15 5.5 4.5 4.5 0 0 0 10.5 1 4.5 4.5 0 0 0 6 5.5a4.5 4.5 0 0 0 4.5 4.5zm0-2A2.5 2.5 0 0 1 8 5.5 2.5 2.5 0 0 1 10.5 3 2.5 2.5 0 0 1 13 5.5 2.5 2.5 0 0 1 10.5 8z"/></svg>