<svg xmlns="http://www.w3.org/2000/svg" width="16" height="16"><path fill="#dedede" d="M4.5 15a.5.5 0 0 1-.5-.5V8.852a.5.5 0 0 1 .645-.479 3.001 3.001 0 0 0 1.712.002.5.5 0 0 1 .643.479V14.5a.5.5 0 0 1-.5.5zm.5-1h1V9.426c-.168.021-.33.074-.5.074a.5.5 0 0 1-.002 0c-.169 0-.331-.053-.498-.074zm3.853-7a.5.5 0 0 1-.478-.643 3.001 3.001 0 0 0-.002-1.712A.5.5 0 0 1 8.852 4H14.5a.5.5 0 0 1 .5.5v2a.5.5 0 0 1-.5.5zm.573-1H14V5H9.426c.021.167.074.33.074.498a.5.5 0 0 1 0 .002c0 .17-.053.332-.074.5z"/><path fill="#61a1ff" d="M5.5 10A4.5 4.5 0 0 1 1 5.5 4.5 4.5 0 0 1 5.5 1 4.5 4.5 0 0 1 10 5.5 4.5 4.5 0 0 1 5.5 10zm0-2A2.5 2.5 0 0 0 8 5.5 2.5 2.5 0 0 0 5.5 3 2.5 2.5 0 0 0 3 5.5 2.5 2.5 0 0 0 5.5 8z"/></svg>