<svg xmlns="http://www.w3.org/2000/svg" viewBox="0 0 16 16"><path fill="#dedede" d="M4.383.111a2.548 2.548 0 0 0-.28.022c-.377.05-.78.185-1.2.426a.25.25 0 1 0 .247.435C3.898.568 4.494.534 5.004.697c.51.163.947.543 1.299.99.163.208.307.429.431.645a2.89 2.89 0 0 0-.394.246c-.524.39-.85.93-.85 1.526 0 .155.012.314.05.462a.01.01 0 0 0 .017.006 4.922 4.922 0 0 1 2.076-.468h.013c.416.01.894.041 1.28.115.748.1 1.445.375 2.054.787a.01.01 0 0 0 .014-.002c.014-.016.028-.03.041-.047.187-.23.238-.551.238-.853 0-.596-.326-1.136-.85-1.526a2.819 2.819 0 0 0-.24-.16c.105-.18.222-.36.352-.531.344-.452.77-.833 1.274-.998.502-.166 1.092-.136 1.84.29a.25.25 0 1 0 .247-.433A3.285 3.285 0 0 0 12.697.32a2.305 2.305 0 0 0-1.045.094c-.637.21-1.134.668-1.515 1.17a5.83 5.83 0 0 0-.405.613 3.672 3.672 0 0 0-1.35-.25h-.001c-.422 0-.822.068-1.184.19a6.036 6.036 0 0 0-.502-.758C6.305.882 5.8.429 5.156.223A2.362 2.362 0 0 0 4.383.11zm3.236 4.26C5.082 4.397 3.315 6.21 2.764 8.54h-.002c-.096.413-.238.941-.21 1.483l-.003.175-.008.518a.25.25 0 0 0 0 .008c.055 2.642 1.827 4.842 4.164 5.263a.25.25 0 0 0 .219-.068l.75-.738a.25.25 0 0 0 .006-.352c.001.002-.133-.193-.18-.875-.047-.681-.026-1.841.176-3.767l.08-.705v-.002c.16-1.47.432-3.185.685-4.786a.25.25 0 0 0-.207-.287c-.202-.033-.41-.03-.605-.035a.25.25 0 0 0-.01 0zm1.223.111a.25.25 0 0 0-.229.217C8.36 6.297 8.11 7.95 7.95 9.434v.002l-.072.713c-.207 1.959-.23 3.141-.178 3.87.052.73.159 1.017.322 1.182a.25.25 0 0 0 .04.031c.306.204.609.462.923.71a.25.25 0 0 0 .215.046c2.11-.45 3.705-2.357 3.938-4.7l.09-.712.002-.002c.024-.22.037-.446.037-.674 0-2.776-1.899-5.085-4.373-5.416a.256.256 0 0 0-.051-.002zm-1.22.39c.109.002.19.01.286.015-.24 1.522-.496 3.134-.648 4.539l-.082.701v.002c-.205 1.947-.227 3.13-.176 3.86.04.561.14.726.244.911l-.562.551c-2.025-.427-3.593-2.358-3.643-4.738l.012-.701a.248.248 0 0 0-.002-.018c-.023-.432.1-.917.199-1.342.51-2.156 2.068-3.757 4.371-3.78zm1.444.19c2.083.414 3.7 2.387 3.7 4.838 0 .21-.013.415-.036.618l-.09.714-.001.006c-.21 2.115-1.635 3.78-3.471 4.215-.253-.203-.51-.415-.791-.605v-.002c.005.005-.13-.183-.178-.862-.048-.68-.03-1.84.176-3.783V10.2l.072-.715-.002.002c.15-1.378.385-2.92.621-4.423zm-5.707.26a2.34 2.34 0 0 0-1.115.276c-.556.304-.99.88-1.25 1.734a.348.348 0 1 0 .666.203c.223-.734.546-1.122.918-1.326.308-.169.675-.221 1.09-.176.173-.217.36-.419.562-.605a3.611 3.611 0 0 0-.871-.105zm9.516.295c-.33.002-.667.058-1.002.15.179.188.346.39.498.602.409-.075.785-.07 1.1.035.482.163.883.545 1.15 1.426a.348.348 0 1 0 .666-.201c-.31-1.025-.888-1.648-1.594-1.887a2.508 2.508 0 0 0-.818-.125zM5.941 6.643a1 1 0 0 0-1 1 1 1 0 0 0 1 1 1 1 0 0 0 1-1 1 1 0 0 0-1-1zm4.582.464a1 1 0 0 0-1 1 1 1 0 0 0 1 1 1 1 0 0 0 1-1 1 1 0 0 0-1-1zM2.43 8.553a2.511 2.511 0 0 0-.819.125c-.706.238-1.283.86-1.593 1.885a.348.348 0 1 0 .666.203c.267-.88.668-1.265 1.15-1.428.154-.052.323-.08.504-.086.041-.259.1-.492.148-.7H2.43zm11.143.295c-.06 0-.119.002-.178.006.038.227.062.46.074.697a1.89 1.89 0 0 1 .697.082c.483.163.884.547 1.15 1.428a.349.349 0 1 0 .669-.202c-.31-1.024-.888-1.646-1.594-1.884a2.511 2.511 0 0 0-.818-.127zm-8.37 2.4a1 1 0 0 0-1 1 1 1 0 0 0 1 1 1 1 0 0 0 1-1 1 1 0 0 0-1-1zm4.774.03a1 1 0 0 0-1 1 1 1 0 0 0 1 1 1 1 0 0 0 1-1 1 1 0 0 0-1-1zm-7.54.697c-.685.25-1.244.866-1.548 1.869a.348.348 0 1 0 .666.203c.254-.838.63-1.224 1.08-1.4a6.12 6.12 0 0 1-.197-.672zm10.76.185c-.057.232-.129.458-.212.678.134.012.262.038.38.078.483.163.884.545 1.151 1.426a.348.348 0 1 0 .666-.201c-.31-1.025-.886-1.648-1.592-1.887a2.369 2.369 0 0 0-.392-.094z" style="text-indent:0;text-transform:none"/></svg>