<svg xmlns="http://www.w3.org/2000/svg" width="16" height="16"><g fill="#dedede"><path d="M9.315 2.551v.538h.823V2.55zm1.36 0v.538h1.076V2.55zm1.612 0v.538h1.075V2.55zm1.613 0v.538h.832V2.55zm.562.591v1.075H15V3.142zM8.24 3.81v.408h.538V3.81zm0 .947V5.83h.538V4.756zm6.22 0V5.83H15V4.756zm-6.22 1.613v1.075h.538V6.37zm6.22 0v1.075H15V6.37zm-6.22 1.613v.353h-.792v.538h.792v.185h.538V7.982zm6.22 0v.353h-.56v.538h.56v.185H15V7.982zm-11.024.353v.538h.25v-.538zm.786 0v.538h1.075v-.538zm1.613 0v.538h1.075v-.538zm3.226 0v.538h1.076v-.538zm1.614 0v.538h1.075v-.538zm1.611 0v.538h1.075v-.538zM2.02 9.595v1.074h.538V9.595zm6.22 0v1.074h.539V9.595zm6.222 0v1.074H15V9.595zM2.02 11.207v1.075h.537v-1.075zm6.22 0v1.075h.539v-1.075zm6.222 0v1.075H15v-1.075zM2.02 12.82v1.075h.537V12.82zm6.22 0v1.075h.538V12.82zm6.221 0v1.075H15V12.82zm-11.85 1.298v.538h1.075v-.538zm1.61 0v.538h1.076v-.538zm1.614 0v.538H6.91v-.538zm1.613 0v.538h1.076v-.538zm1.613 0v.538h1.076v-.538zm1.614 0v.538h1.075v-.538zm1.61 0v.538h1.076v-.538zm1.614 0v.538h.831v-.538z" opacity=".35"/><path d="M1.734 1.344a.542.542 0 0 0-.538.538v1.66c0 .292.245.537.538.537h.048v2.75h-.244A.543.543 0 0 0 1 7.367v1.659c0 .293.244.537.538.537h1.63a.542.542 0 0 0 .539-.537V7.367a.543.543 0 0 0-.538-.538h-.58v-2.75h.774a.543.543 0 0 0 .538-.538v-.419h2.977v.42c0 .292.244.537.537.537h1.632a.542.542 0 0 0 .537-.538V1.882a.542.542 0 0 0-.537-.538H7.415a.542.542 0 0 0-.537.538v.433H3.9v-.433a.543.543 0 0 0-.538-.538zm0 .538h1.63v1.66h-1.63zm5.681 0h1.632v1.66H7.415zM1.538 7.367h1.631v1.659H1.538z"/></g></svg>