<svg xmlns="http://www.w3.org/2000/svg" width="16" height="16"><path fill="#dedede" d="m9.668 1.205-3.67.024.582 3.576h.233l2.322-.018.533-3.582zm-.629.545-.371 2.5-1.629.012-.406-2.496 2.406-.016zm3.822 1.13-2.806 2.294.117.2 1.176 2.003 3.37-1.33-1.857-3.166zm-9.912.276L1.137 6.348 4.523 7.63l.116-.201 1.148-2.02L2.95 3.156zm9.766.543 1.217 2.076-2.352.928-.824-1.404 1.959-1.6zm-9.608.274 1.981 1.572-.805 1.416-2.363-.896 1.187-2.092zM8 6.883 6.883 8l.158.158.96.96L9.116 8 8 6.883zm0 .639L8.48 8 8 8.48 7.522 8 8 7.522zm3.475.843-.116.203-1.146 2.02 2.836 2.254 1.814-3.192-3.388-1.285zm-6.825.256-3.369 1.33 1.858 3.166 2.804-2.293-.117-.199L4.65 8.621zm7.065.416 2.365.897-1.19 2.09-1.978-1.57.803-1.417zm-7.297.258.824 1.404-1.957 1.6-1.217-2.076 2.35-.928zm5 1.897-.23.003-2.325.018-.533 3.582 3.672-.025-.584-3.578zm-.459.544.406 2.495-2.406.017.371-2.5 1.629-.012z"/></svg>