<svg xmlns="http://www.w3.org/2000/svg" width="16" height="16"><path fill="#333" d="m.863 6.332-.256.758c.235.079.466.157.692.238l.271-.752a35.25 35.25 0 0 0-.707-.244zm1.42.523-.32.733c.217.095.425.199.619.312l.404-.691a6.637 6.637 0 0 0-.703-.354zm1.363.82-.517.61c.022.02.045.037.066.057.14.126.271.266.395.42l.623-.502a4.401 4.401 0 0 0-.483-.512l-.084-.072zm1.02 1.241-.688.408c.117.196.223.403.32.617l.73-.332a7.182 7.182 0 0 0-.362-.693zm.65 1.412-.754.268a16.736 16.736 0 0 1 .219.684l.768-.227a17.51 17.51 0 0 0-.233-.725zm.444 1.42L5 12c.084.253.181.503.305.742l.709-.367a4.403 4.403 0 0 1-.254-.627zm.61 1.125-.563.568c.058.059.12.115.187.168a2.8 2.8 0 0 0 .525.326l.35-.718a2.004 2.004 0 0 1-.375-.233 1.576 1.576 0 0 1-.125-.111zm1.126.576-.219.77c.243.069.495.126.754.175l.15-.787a7.854 7.854 0 0 1-.685-.158zm1.399.276-.116.792c.246.036.493.068.739.1l.103-.793a54.465 54.465 0 0 1-.726-.1z" opacity=".4"/><path fill="#dedede" d="m5.836.723-.256.757c.234.08.466.158.691.239l.272-.752a35.25 35.25 0 0 0-.707-.244zm1.42.523-.32.733c.217.094.425.198.619.312l.404-.691a6.637 6.637 0 0 0-.703-.354zm1.363.82-.517.61.066.056c.14.126.27.267.394.42l.624-.502a4.401 4.401 0 0 0-.483-.511c-.027-.025-.056-.049-.084-.073zm1.02 1.24-.688.409c.117.196.223.403.32.617L10 4a7.182 7.182 0 0 0-.361-.693zm.65 1.413-.754.267a16.736 16.736 0 0 1 .219.684l.767-.227a17.51 17.51 0 0 0-.232-.724zm.443 1.42-.76.252c.085.252.182.503.305.742l.71-.367a4.402 4.402 0 0 1-.255-.627zm.61 1.125-.563.568c.059.058.121.115.188.168a2.8 2.8 0 0 0 .525.326l.35-.719a2.004 2.004 0 0 1-.375-.232 1.576 1.576 0 0 1-.125-.111zm1.127.576-.219.77c.243.069.494.126.754.175l.15-.787a7.854 7.854 0 0 1-.685-.158zm1.398.275-.115.793c.245.036.493.068.738.1l.104-.793a54.465 54.465 0 0 1-.727-.1z" opacity=".4"/><path fill="#dedede" d="M13.338 9.074c-.509.822-1.006 1.62-1.673 2.237-.666.618-1.55 1.104-2.467 1.602l.41.544c.917-.499 1.861-1.01 2.618-1.712.757-.701 1.279-1.55 1.787-2.372zm-2.8-.635c-.283.664-.545 1.276-1.084 1.866-.54.59-1.408 1.199-2.291 1.812l.398.576c.884-.613 1.782-1.23 2.408-1.916.627-.685.929-1.4 1.211-2.062zm-1.38-1.806c-.478.823-.95 1.625-1.496 2.223-.546.598-1.205 1.036-1.892 1.49l.387.584c.687-.454 1.402-.923 2.021-1.601.62-.678 1.105-1.52 1.584-2.342zm-.99-1.995c-.478.773-.947 1.528-1.5 2.133-.551.604-1.218 1.094-1.906 1.597l.414.565c.688-.504 1.395-1.018 2.008-1.69.614-.671 1.102-1.463 1.58-2.236zm-.953-1.773c-.515.798-1.024 1.58-1.578 2.188-.554.606-1.181 1.07-1.832 1.548l.414.565c.65-.479 1.324-.972 1.936-1.64.611-.67 1.133-1.482 1.648-2.28zM5.287 1.834c-.442.814-.874 1.602-1.436 2.227-.56.624-1.299 1.135-2.049 1.65l.395.578c.75-.515 1.539-1.051 2.176-1.76.636-.708 1.087-1.549 1.529-2.363z"/></svg>