<svg xmlns="http://www.w3.org/2000/svg" width="16" height="16"><g fill="#dedede"><path d="M2 1c-.554 0-1 .446-1 1v1h1V2h1V1zm11 0v1h1v1h1V2c0-.554-.446-1-1-1zM1 13v1c0 .554.446 1 1 1h1v-1H2v-1zm13 0v1h-1v1h1c.554 0 1-.446 1-1v-1z" style="paint-order:stroke fill markers"/><rect width="2" height="1" x="4" y="1" rx="0" ry="0" style="paint-order:stroke fill markers"/><rect width="2" height="1" x="7" y="1" rx="0" ry="0" style="paint-order:stroke fill markers"/><rect width="2" height="1" x="10" y="1" rx="0" ry="0" style="paint-order:stroke fill markers"/><rect width="2" height="1" x="4" y="14" rx="0" ry="0" style="paint-order:stroke fill markers"/><rect width="2" height="1" x="7" y="14" rx="0" ry="0" style="paint-order:stroke fill markers"/><rect width="2" height="1" x="10" y="14" rx="0" ry="0" style="paint-order:stroke fill markers"/><rect width="2" height="1" x="4" y="-2" rx="0" ry="0" style="paint-order:stroke fill markers" transform="rotate(90)"/><rect width="2" height="1" x="7" y="-2" rx="0" ry="0" style="paint-order:stroke fill markers" transform="rotate(90)"/><rect width="2" height="1" x="10" y="-2" rx="0" ry="0" style="paint-order:stroke fill markers" transform="rotate(90)"/><rect width="2" height="1" x="4" y="-15" rx="0" ry="0" style="paint-order:stroke fill markers" transform="rotate(90)"/><rect width="2" height="1" x="7" y="-15" rx="0" ry="0" style="paint-order:stroke fill markers" transform="rotate(90)"/><rect width="2" height="1" x="10" y="-15" rx="0" ry="0" style="paint-order:stroke fill markers" transform="rotate(90)"/></g></svg>