<svg xmlns="http://www.w3.org/2000/svg" xmlns:xlink="http://www.w3.org/1999/xlink" width="16" height="16"><g fill="#dedede" fill-rule="evenodd" color="#000"><path d="m18.537 11.57-9.338.012c-.222.354-.307.748.002 1.254l9.326-.012a1.335.587 89.93 0 1-.064-.608 1.335.587 89.93 0 1 .074-.646z" opacity=".35" style="-inkscape-stroke:none" transform="scale(.86165) rotate(42.144 15.852 5.361)"/><path d="m18.607 11.338-9.537.012-.068.11a1.36 1.36 0 0 0 0 1.497l.068.111 9.523-.011a1.335.587 89.93 0 1-.107-.465l-9.088.012c-.155-.317-.132-.553-.002-.79l9.096-.011a1.335.587 89.93 0 1 .115-.465z" style="-inkscape-stroke:none" transform="scale(.86165) rotate(42.144 15.852 5.361)"/><path d="m13.316 4.726-.459-1.058.398-2.375 1.287-.001.375 2.46-.434.9z" opacity=".35" style="-inkscape-stroke:none" transform="scale(.86165) rotate(42.144 15.852 5.361)"/><path d="m14.82.967-1.84.002-.459 2.74.562 1.202.227-.016 1.387.005.557-1.1zm-1.291.65h.734l.317 2.084-.307.639-.75.047-.33-.76zM9.425 18.342l.852 2.497.162-2.374-1.014-.123z" style="-inkscape-stroke:none" transform="scale(.86165) rotate(42.144 15.852 5.361)"/><path d="m9.396 18.105-.265.098.074.215 1.225 3.587.256-3.746zm.368.512.43.052-.069 1.004z" style="-inkscape-stroke:none" transform="scale(.86165) rotate(42.144 15.852 5.361)"/><path d="M11.74 5.791a.325.325 0 0 0-.256.238l-1.447 5.553.672-.002 1.228-4.713.854 1.197-.908 3.516.67-.002.904-3.498a.325.325 0 0 0-.05-.27l-1.345-1.888a.325.325 0 0 0-.322-.131zm.49 7.041-.672.002-1.363 5.273-.588-.07-.424-.598 1.2-4.605-.672.002-1.196 4.586a.325.325 0 0 0 .051.27l.594.837a.325.325 0 0 0 .225.135l1.015.123a.325.325 0 0 0 .354-.24z" style="-inkscape-stroke:none" transform="scale(.86165) rotate(42.144 15.852 5.361)"/><path d="M13.092 4.654c-.706.262-1.233.764-1.294 1.454l1.347 1.894c.278 1.124 1.21.993 1.522-.002l1.343-1.897c-.063-.69-.592-1.19-1.298-1.451-.558-.299-1.078-.28-1.62.002z" opacity=".35" style="-inkscape-stroke:none" transform="scale(.86165) rotate(42.144 15.852 5.361)"/><path d="M13.895 4.117c-.316.003-.629.091-.928.242l.012-.01c-.006.003-.01.008-.016.01-.007.004-.014.003-.021.006l-.072.037-.022.034c-.714.309-1.305.858-1.375 1.644l-.01.12 1.418 1.99-.05-.11c.08.324.21.58.396.766a.914.914 0 0 0 .684.273c.492-.027.883-.44 1.066-1.021l-.045.09 1.412-1.995-.01-.119c-.075-.833-.717-1.423-1.492-1.715a2.01 2.01 0 0 0-.947-.242zm.664.82.02.012.021.008c.597.22.95.617 1.031 1.117l-1.26 1.78-.013.048c-.13.414-.362.562-.483.569-.06.003-.115-.01-.191-.086s-.164-.223-.223-.461l-.015-.06-1.27-1.786c.08-.5.433-.897 1.03-1.119l.046-.018c.467-.24.831-.258 1.307-.003z" style="-inkscape-stroke:none" transform="scale(.86165) rotate(42.144 15.852 5.361)"/><path d="M16.068 5.783a.325.325 0 0 0-.324.133l-1.34 1.89a.325.325 0 0 0-.049.27l.912 3.498h.672l-.918-3.515.852-1.2 1.24 4.713h.67l-1.46-5.55a.325.325 0 0 0-.255-.239zm1.375 7.043 1.209 4.6-.422.597-.59.075-1.375-5.27h-.67l1.489 5.71a.325.325 0 0 0 .355.24l1.014-.126a.325.325 0 0 0 .226-.136l.592-.84a.325.325 0 0 0 .047-.27l-1.205-4.58z" style="-inkscape-stroke:none" transform="scale(.86165) rotate(42.144 15.852 5.361)"/><path d="M19.635 12.216a1.335.587 89.93 0 1-.585 1.335 1.335.587 89.93 0 1-.588-1.334 1.335.587 89.93 0 1 .585-1.335 1.335.587 89.93 0 1 .588 1.334z" opacity=".35" style="-inkscape-stroke:none" transform="scale(.86165) rotate(42.144 15.852 5.361)"/><path d="M19.048 10.65a.573.573 0 0 0-.39.17c-.1.097-.177.22-.238.36-.124.282-.19.641-.19 1.037s.068.756.192 1.037c.062.14.138.263.239.36.1.096.238.169.39.169a.568.568 0 0 0 .39-.17c.1-.098.175-.22.237-.36a2.62 2.62 0 0 0 .19-1.038 2.62 2.62 0 0 0-.192-1.036 1.105 1.105 0 0 0-.24-.36.568.568 0 0 0-.388-.169zm0 .465c.01 0 .027 0 .067.039.04.038.09.112.135.213.089.201.153.508.153.849 0 .341-.062.65-.15.852-.045.1-.096.173-.135.21s-.057.042-.067.042c-.01 0-.028-.003-.068-.041a.687.687 0 0 1-.135-.21c-.09-.202-.153-.511-.154-.852s.063-.648.152-.85c.044-.1.095-.175.134-.213s.059-.04.069-.04z" style="-inkscape-stroke:none" transform="scale(.86165) rotate(42.144 15.852 5.361)"/><path d="M20.201 12.215a1.335.587 89.93 0 1-.585 1.335 1.335.587 89.93 0 1-.588-1.334 1.335.587 89.93 0 1 .585-1.335 1.335.587 89.93 0 1 .588 1.334z" opacity=".35" style="-inkscape-stroke:none" transform="scale(.86165) rotate(42.144 15.852 5.361)"/><path d="M19.698 10.649a.568.568 0 0 0-.388.17c-.101.097-.177.22-.238.36-.124.282-.19.641-.19 1.037s.068.756.192 1.037c.062.14.138.265.239.361s.236.168.389.168c.152 0 .29-.072.39-.169.1-.097.176-.22.238-.361a2.62 2.62 0 0 0 .19-1.038 2.62 2.62 0 0 0-.192-1.036 1.105 1.105 0 0 0-.24-.36.573.573 0 0 0-.39-.169zm0 .465c.01 0 .03 0 .069.039.04.038.09.112.135.213.089.201.153.508.153.849 0 .341-.063.65-.15.852a.687.687 0 0 1-.135.21c-.04.04-.06.042-.069.042-.01 0-.026-.003-.066-.041a.687.687 0 0 1-.135-.21 2.228 2.228 0 0 1-.154-.852c0-.341.063-.648.152-.85.044-.1.095-.175.134-.213s.057-.04.067-.04zM18.413 18.329l-.846 2.499-.168-2.374z" style="-inkscape-stroke:none" transform="scale(.86165) rotate(42.144 15.852 5.361)"/><path d="m18.752 18.053-.367.045-1.233.152.266 3.746zm-.678.553-.357 1.054-.07-1.002zM13.519 3.53l.271-1.567" style="-inkscape-stroke:none" transform="scale(.86165) rotate(42.144 15.852 5.361)"/></g><use xlink:href="#path6927" width="1250" height="540" transform="rotate(-40.583 -37.894 652.843) scale(.81227)"/><path fill="#dedede" d="M2 0C.892 0 0 .892 0 2v12c0 1.108.892 2 2 2h12c1.108 0 2-.892 2-2V2c0-1.108-.892-2-2-2H2zm0 1h12c.554 0 1 .446 1 1v12c0 .554-.446 1-1 1H2c-.554 0-1-.446-1-1V2c0-.554.446-1 1-1z"/></svg>