<svg xmlns="http://www.w3.org/2000/svg" width="16" height="16"><path fill="none" stroke="#dedede" stroke-dashoffset="25.89584" stroke-linecap="square" stroke-linejoin="bevel" stroke-miterlimit="4.27" stroke-width="1.1162" d="M15.467 8.409c0 .897-.179 1.794-.522 2.623a6.878 6.878 0 0 1-1.486 2.223 6.875 6.875 0 0 1-2.223 1.486 6.873 6.873 0 0 1-2.622.522 6.865 6.865 0 0 1-2.62-.522 6.864 6.864 0 0 1-3.706-3.71 6.885 6.885 0 0 1-.52-2.622 6.861 6.861 0 0 1 4.226-6.332 6.863 6.863 0 0 1 2.62-.522c.897 0 1.793.178 2.622.521a6.875 6.875 0 0 1 2.223 1.486 6.878 6.878 0 0 1 1.486 2.224c.343.829.522 1.725.522 2.623"/><path fill="#ff2100" fill-opacity=".392" fill-rule="evenodd" stroke="#d40000" stroke-linecap="round" stroke-linejoin="round" stroke-miterlimit="0" stroke-width="1.0001152000000002" d="M5.287.503h2.846v2.856H5.287zM.52 7.622h2.847v2.856H.521zM12.676 11.196h2.846v2.856h-2.846z" color="#000"/></svg>