<svg xmlns="http://www.w3.org/2000/svg" width="24" height="24"><path fill="#dedede" d="M3 1c-1.09 0-2 .91-2 2v13c0 1.09.91 2 2 2h8v4a1 1 0 0 0 1.65.76L18.203 18H21c1.09 0 2-.91 2-2V3c0-1.09-.91-2-2-2H3zm0 1h18c.554 0 1 .446 1 1v13c0 .554-.446 1-1 1h-3.166L12 22v-5H3c-.554 0-1-.446-1-1V3c0-.554.446-1 1-1z" color="#000" style="-inkscape-stroke:none"/><g fill="#dedede"><path d="M5.095 7.086c-.848-.02-1.2.901-1.273 1.603-.091 1.045-.168 2.197.36 3.146.416.737 1.614.624 1.917-.153.439-1.012.383-2.17.23-3.24-.11-.632-.478-1.388-1.234-1.356zm0-.683c.957-.06 1.758.702 1.982 1.592.312 1.159.314 2.424-.047 3.572-.256.888-1.128 1.556-2.067 1.448-1.033.005-1.77-.933-1.93-1.882-.224-1.207-.239-2.525.29-3.657a1.896 1.896 0 0 1 1.772-1.073zM8.819 11.81h.901v1.084H8.82v-1.085zM12.346 12.168h3.011v.726H11.31v-.726c.952-1.035 2.05-1.947 2.884-3.085.437-.573.328-1.54-.392-1.829-.824-.324-1.72.046-2.45.443v-.871c1.075-.456 2.5-.712 3.454.136.782.712.607 1.996-.072 2.719-.758.862-1.59 1.66-2.387 2.487zM19.785 9.457c.894.124 1.483 1.057 1.293 1.923-.094 1.003-1.114 1.59-2.042 1.62-.723.07-1.452-.059-2.133-.298v-.833c.836.456 1.924.602 2.8.178.802-.435.691-1.812-.196-2.081-.481-.184-1-.11-1.502-.125v-.709c.667-.029 1.509.149 1.956-.475.418-.661-.145-1.535-.908-1.511-.665-.068-1.33.092-1.958.3v-.77c1.08-.286 2.408-.529 3.353.232.802.645.627 2.143-.399 2.464l-.128.046-.136.039"/></g></svg>