<svg xmlns="http://www.w3.org/2000/svg" width="16" height="16"><path fill="#dedede" d="M8 0a8 8 0 0 0-8 8 8 8 0 0 0 8 8 8 8 0 0 0 8-8 8 8 0 0 0-8-8zm0 1.334A6.667 6.667 0 0 1 14.666 8 6.667 6.667 0 0 1 8 14.666 6.667 6.667 0 0 1 1.334 8 6.667 6.667 0 0 1 8 1.334z"/><g stroke-linecap="round" stroke-linejoin="round" stroke-miterlimit="0"><path fill="none" stroke="#dedede" stroke-width="1.1951" d="m7.66 8.211 6.475-4.05"/><path fill="#ff2100" fill-opacity=".392" fill-rule="evenodd" stroke="#d40000" stroke-width="1.0002987" d="M6.212 6.634H9.26v3.059H6.212zM12.478 2.619h3.048v3.058h-3.048z" color="#000"/></g></svg>