<svg xmlns="http://www.w3.org/2000/svg" width="16" height="16"><path fill="#dedede" d="M7.06 3.469a.5.5 0 0 0-.207.02.5.5 0 0 0-.306.265l-4 8.533A.5.5 0 0 0 3 13h10a.5.5 0 0 0 .5-.5v-1a.5.5 0 0 0-.5-.5.5.5 0 0 0-.5.5v.5H8.586c.073-.934-.204-1.833-.66-2.574-.517-.84-1.258-1.5-2.075-1.828L7.22 4.682l.242.144a.5.5 0 0 0 .687-.172.5.5 0 0 0-.171-.685l-.72-.432a.5.5 0 0 0-.197-.068zM5.427 8.506c.586.223 1.225.756 1.648 1.443.377.613.585 1.329.508 2.051H3.787l1.639-3.494z" color="#000" style="-inkscape-stroke:none"/></svg>