<svg xmlns="http://www.w3.org/2000/svg" viewBox="0 0 16 16"><defs id="defs3051"><style id="current-color-scheme" type="text/css">.ColorScheme-Highlight{color:#3daee9}</style></defs><path d="M2 2v12h12V2H2zm1 1h3v2h1V3h2v2h1V3h3v2h-3v1h3v3h-3v1h3v3h-3v-3H9v3H7v-3H6v3H3v-3h3V9H3V6h3V5H3V3z" style="fill:currentColor;fill-opacity:1;stroke:none;color:#dedede"/><path d="M426.714 535.79v7h6v-7zm1 1h4v1l-1 1.5 1 1.5v1h-4v-1l1-1.5-1-1.5z" style="fill:currentColor;fill-opacity:1;stroke:none;color:#da4453" transform="translate(-421.714 -531.79)"/></svg>