<svg xmlns="http://www.w3.org/2000/svg" width="16" height="16"><path fill="#dedede" d="M0 0v1h1V0H0zm2 0v1h1V0H2zm2 0v1h1V0H4zm2 0v1h1V0H6zm2 0v1h1V0H8zm2 0v1h1V0h-1zm2 0v1h1V0h-1zm2 0v1h1V0h-1zM0 2v1h1V2H0zm7.44 0L5.921 5.61 2 6.267l2.813 2.627L4.199 13l3.256-1.986 3.543 1.879-.8-3.854L13 6.094l-3.75-.395L7.44 2zM14 2v1h1V2h-1zM0 4v1h1V4H0zm14 0v1h1V4h-1zM0 6v1h1V6H0zm14 0v1h1V6h-1zM0 8v1h1V8H0zm14 0v1h1V8h-1zM0 10v1h1v-1H0zm14 0v1h1v-1h-1zM0 12v1h1v-1H0zm14 0v1h1v-1h-1zM0 14v1h1v-1H0zm2 0v1h1v-1H2zm2 0v1h1v-1H4zm2 0v1h1v-1H6zm2 0v1h1v-1H8zm2 0v1h1v-1h-1zm2 0v1h1v-1h-1zm2 0v1h1v-1h-1z"/></svg>