<svg xmlns="http://www.w3.org/2000/svg" width="16" height="16"><g fill="#dedede"><path d="M0 0h1v1H0zM2 0h1v1H2zM4 0h1v1H4zM6 0h1v1H6zM8 0h1v1H8zM10 0h1v1h-1zM12 0h1v1h-1zM14 0h1v1h-1zM0 2h1v1H0zM0 4h1v1H0zM0 6h1v1H0zM0 8h1v1H0zM0 10h1v1H0zM0 12h1v1H0zM0 14h1v1H0zM14 2h1v1h-1zM14 4h1v1h-1zM14 6h1v1h-1zM14 8h1v1h-1zM14 10h1v1h-1zM14 12h1v1h-1zM14 14h1v1h-1zM2 14h1v1H2zM4 14h1v1H4zM6 14h1v1H6zM8 14h1v1H8zM10 14h1v1h-1zM12 14h1v1h-1z"/><path d="M2 2v11h11V2zm2 2h7v7H4z" opacity=".5" style="paint-order:stroke fill markers"/><path d="M47 713.36h2v3h-2zM56 713.36h2v3h-2zM51 709.36h3v2h-3zM51 718.36h3v2h-3zM47 718.36h2v2h-2zM47 709.36h2v2h-2zM56 709.36h2v2h-2zM56 718.36h2v2h-2z" opacity=".999" style="paint-order:stroke fill markers" transform="translate(-45 -707.36)"/></g></svg>