<svg xmlns="http://www.w3.org/2000/svg" viewBox="0 0 16 16"><g style="fill:currentColor;color:#dedede"><path d="M3.268 12A2 2 0 0 0 4 14.732 2 2 0 0 0 6.732 14a2 2 0 0 0-.331-2.426l5.532-9.582-.866-.5-5.533 9.584A2 2 0 0 0 3.268 12zm.866.5a1 1 0 0 1 1.366-.366 1 1 0 0 1 .366 1.366 1 1 0 0 1-1.366.366 1 1 0 0 1-.366-1.366z"/><path d="M12.732 12A2 2 0 0 1 12 14.732 2 2 0 0 1 9.268 14a2 2 0 0 1 .331-2.426L4.067 1.992l.866-.5 5.533 9.584a2 2 0 0 1 2.266.924zm-.866.5a1 1 0 0 0-1.366-.366 1 1 0 0 0-.366 1.366 1 1 0 0 0 1.366.366 1 1 0 0 0 .366-1.366z"/><path d="M7 8.685v1.043A2 2 0 0 0 8 10a2 2 0 0 0 1-.27V8.686h-.273c-.19.2-.452-.186-.727-.186-.275 0-.538.386-.727.186z"/></g></svg>