<svg xmlns="http://www.w3.org/2000/svg" width="16" height="16"><path fill="#dedede" d="M0 0v9h2c-.12-2.768.753-5 3-5h3V0H0zm11.582 2.844c-1.446.362-2.25 2.15-2.002 3.34a13.627 13.627 0 0 0-3.478 3.414 4.27 4.27 0 0 1-.883-4.06c-1.737 1.668-1.524 4.717-.309 6.175A10.708 10.708 0 0 0 4 16h1c0-1.277.257-2.504.71-3.646.047.021.092.042.14.06 2.94 1.114 5.221.071 6.224-2.453-1.342 1.17-3.322 1.432-4.943.482a4.287 4.287 0 0 1-.303-.195 12.337 12.337 0 0 1 3.217-3.228c1.348 1.434 2.67 1.197 4.03.314a2.677 2.677 0 0 1-2.798-1.06C12.771 5.485 14.397 5.026 16 5l.053-1.013c-1.727.027-3.518.535-5.176 1.414a2.689 2.689 0 0 1 .705-2.557z"/></svg>