<svg xmlns="http://www.w3.org/2000/svg" width="16" height="16"><path fill="#dedede" d="m8 1.635.273 10.053 1.159.576-1.34-10.451zm-.479.672-.16.343-.713 9.803 1.131-.629zm1.24.787 1.21 9.44 1.326.66-2.149-9.36zm-1.993.83-.455.976-1.471 8.555 1.285-.713zm3.265 1.535 1.842 8.022.295.146-.861-4.416.316-.322-1.12-3.371zm1.024.125.962 2.902.524-.535-1.004-2.306zm-5.37.016-.457.076-.867 3.21.402.297L4 14l.285-.234zm6.428.115.807 1.852.42-.428-.737-1.365zm-7.426.053-.459.078-.798 2.172.517.484zm8.526.08.494.916.332-.34-.33-.516zm-9.557.093-.459.077-.578 1.246.41.383zm10.7.047.042.069.057-.057zM2.6 6.12l-.455.076-.23.41.32.3z"/></svg>