<svg xmlns="http://www.w3.org/2000/svg" width="16" height="16"><g fill="#dedede"><path d="M12.554.443a.726.726 0 0 0-.722.723c0 .396.326.722.722.722a.726.726 0 0 0 .723-.722.728.728 0 0 0-.723-.723zm-6.836.768a.725.725 0 0 0-.721.721c0 .396.325.724.721.724s.723-.328.723-.724a.726.726 0 0 0-.723-.721zm4.23.618c-1.409.068-2.584.874-3.646 1.745-.926.76-1.78 1.573-2.605 2.048h-.595a.486.486 0 0 0-.482.482V7.59c0 .116.045.222.115.306l-.03.073c-.337.744-.746 1.55-.888 2.358-.146.771-.076 1.486.185 2.242a.24.24 0 0 0 .003.004c.336.926 1.049 1.56 1.206 2.16a.24.24 0 0 0 .249.178c1.678-.116 4.39-.105 5.958-.094a.24.24 0 0 0 .003 0c.623 0 1.16-.01 1.785-.023.7-.011 1.421-.003 2.161.035a.24.24 0 0 0 .22-.362c-.564-.964-.93-1.623-1.128-2.25a.24.24 0 0 0 0-.005 5.31 5.31 0 0 1-.26-2.037v-.005a9.58 9.58 0 0 1 .516-2.426c.062-.173.132-.34.205-.505h1.213a.486.486 0 0 0 .481-.481V5.272a.486.486 0 0 0-.481-.482h-.515c-.296-.54-.632-1.167-1.107-1.74a.24.24 0 0 0-.003-.005.24.24 0 0 0-.032-.051.24.24 0 0 0-.004-.004.24.24 0 0 0-.003-.003c-.65-.746-1.554-1.202-2.518-1.16a.24.24 0 0 0-.003 0zm.022.48c.798-.034 1.565.344 2.132.993a.24.24 0 0 0 .003.003l.003.003c.397.464.689.988.96 1.487h-.393a.486.486 0 0 0-.482.481v1.486c0 .173.096.326.237.41-.06.135-.117.272-.168.414a9.993 9.993 0 0 0-.543 2.557.24.24 0 0 0 0 .003 5.81 5.81 0 0 0 .284 2.22c.185.586.556 1.232.986 1.979a33.904 33.904 0 0 0-1.791-.029 73.22 73.22 0 0 1-1.777.022c-1.53-.011-4.125-.015-5.844.094-.27-.726-.86-1.312-1.118-2.019-.24-.697-.299-1.304-.167-1.997a.24.24 0 0 0 0-.004c.123-.702.511-1.485.853-2.242.015-.032.026-.064.04-.096h1.378c.262 0 .481-.22.481-.482V6.107a.486.486 0 0 0-.481-.482h-.018c.69-.487 1.364-1.101 2.065-1.677 1.039-.852 2.125-1.576 3.362-1.636zm2.703 2.966h1.459V6.76h-1.459zm-9.57.83H4.56V7.59H3.102z"/><path d="M12.753 1.579a.245.245 0 0 0-.025.002.245.245 0 0 0-.047.011.245.245 0 0 0-.044.022.245.245 0 0 0-.021.014.245.245 0 0 0-.036.033.245.245 0 0 0-.027.04.245.245 0 0 0-.013.021.245.245 0 0 0-.01.022.245.245 0 0 0-.006.025.245.245 0 0 0-.005.072.245.245 0 0 0 .004.028l.648 3.182a.245.245 0 0 0 .015.047.245.245 0 0 0 .01.022.245.245 0 0 0 .015.02.245.245 0 0 0 .014.02.245.245 0 0 0 .078.06.245.245 0 0 0 .022.009.245.245 0 0 0 .023.007.245.245 0 0 0 .024.005.245.245 0 0 0 .025.003.245.245 0 0 0 .073-.005.245.245 0 0 0 .066-.03.245.245 0 0 0 .022-.012.245.245 0 0 0 .063-.074.245.245 0 0 0 .013-.022.245.245 0 0 0 .01-.021.245.245 0 0 0 .007-.125l-.648-3.183a.245.245 0 0 0-.009-.024.245.245 0 0 0-.032-.065.245.245 0 0 0-.092-.079.245.245 0 0 0-.117-.024zm-7.376.698a.245.245 0 0 0-.096.018.245.245 0 0 0-.021.01.245.245 0 0 0-.022.014.245.245 0 0 0-.018.014.245.245 0 0 0-.034.037.245.245 0 0 0-.015.017.245.245 0 0 0-.013.022.245.245 0 0 0-.002.004l-1.606 3.3a.245.245 0 0 0-.01.024.245.245 0 0 0-.007.022.245.245 0 0 0-.008.049.245.245 0 0 0 .017.095.245.245 0 0 0 .01.024.245.245 0 0 0 .011.022.245.245 0 0 0 .031.037.245.245 0 0 0 .018.017.245.245 0 0 0 .018.016.245.245 0 0 0 .043.023.245.245 0 0 0 .047.015.245.245 0 0 0 .072.004.245.245 0 0 0 .026-.003.245.245 0 0 0 .023-.008.245.245 0 0 0 .046-.018.245.245 0 0 0 .02-.012.245.245 0 0 0 .082-.095l1.606-3.3a.245.245 0 0 0 .01-.021.245.245 0 0 0 .008-.024.245.245 0 0 0 .005-.074.245.245 0 0 0-.003-.024.245.245 0 0 0-.006-.024.245.245 0 0 0-.008-.023.245.245 0 0 0-.01-.024.245.245 0 0 0-.012-.02.245.245 0 0 0-.014-.02.245.245 0 0 0-.034-.036.245.245 0 0 0-.04-.028.245.245 0 0 0-.022-.011.245.245 0 0 0-.047-.015.245.245 0 0 0-.048-.006zm3.808.287C8.4 3.81 7.435 5.727 6.868 6.628l-2.18.61v.486c0 .136-.11.245-.245.245h-.61l1.878 1.777L4.24 14.67l3.365-2.416 2.416 2.404-.088-3.972 2.148-2.265L9.478 7.21c-.002-1.659-.029-3.216-.293-4.645z" opacity=".3"/></g></svg>