<svg xmlns="http://www.w3.org/2000/svg" width="16" height="16"><g fill="#dedede"><path d="m4.502 4.694 1.492 1.488-.373.372h.994v-.992l-.373.372-1.491-1.488z"/><rect width="3" height="3" x="1" y="1" rx="0" ry="0"/><rect width="3" height="3" x="8" y="1" rx="0" ry="0"/><rect width="3" height="3" x="12" y="1" rx="0" ry="0"/><rect width="3" height="3" x="8" y="5" rx="0" ry="0"/><rect width="3" height="3" x="12" y="5" rx="0" ry="0"/><rect width="3" height="3" x="8" y="9" rx="0" ry="0"/><rect width="3" height="3" x="12" y="9" rx="0" ry="0"/><rect width="3" height="3" x="8" y="13" rx="0" ry="0"/><rect width="3" height="3" x="12" y="13" rx="0" ry="0"/></g></svg>