<svg xmlns="http://www.w3.org/2000/svg" width="16" height="16"><g fill="#dedede"><path d="m8.93 2.584-.594.773c.815.626 1.093 1.192 1.207 1.825.114.632.024 1.356-.023 2.177s-.043 1.748.353 2.723c.396.975 1.172 1.971 2.565 2.982l.572-.79c-1.287-.935-1.914-1.778-2.23-2.56-.318-.78-.33-1.524-.286-2.298.045-.774.16-1.573.01-2.408-.113-.626-.397-1.26-.941-1.85a4.976 4.976 0 0 0-.633-.574zM2.627 3.652a.488.488 0 0 0-.139.95c.922.33 1 .646.936 1.271-.065.626-.475 1.52-.856 2.461-.38.941-.744 1.96-.527 2.982.217 1.023 1.076 1.906 2.74 2.454a.488.488 0 0 0 .305-.928c-1.481-.487-1.953-1.076-2.092-1.729s.114-1.51.479-2.412c.364-.9.827-1.816.922-2.728.094-.912-.382-1.862-1.577-2.291a.488.488 0 0 0-.191-.03z"/><path d="m2.5 3.91 6.382-.912.98 1.958s.1 2.263.1 2.466c0 .202.305 2.668.339 2.803.033.135.81 1.35 1.046 1.52.237.169 1.318.912 1.318.912l-7.565.776-1.588-.979s-1.148-.81-1.114-.946c.034-.135 0-1.215.101-1.587.101-.371.608-2.026.608-2.026s.439-1.52.473-1.689c.034-.169-.135-1.486-.135-1.486z" opacity=".3"/></g></svg>