<svg xmlns="http://www.w3.org/2000/svg" viewBox="0 0 16 16"><path fill="currentColor" d="M6.383 2 2 13h1.357l1.19-3h4.795a3.5 3.5 0 0 1 1.023-1.272L7.685 2H6.383zm.623 1.328L9.126 9H4.942z" style="color:#dedede"/><path fill="currentColor" d="M15 11.5A2.5 2.5 0 0 0 12.5 9a2.5 2.5 0 0 0-2.5 2.5 2.5 2.5 0 0 0 2.5 2.5 2.5 2.5 0 0 0 2.5-2.5m-1 0a1.5 1.5 0 0 1-.148.645l-1.997-1.997A1.5 1.5 0 0 1 12.5 10a1.5 1.5 0 0 1 1.5 1.5m-.856 1.352A1.5 1.5 0 0 1 12.5 13a1.5 1.5 0 0 1-1.5-1.5 1.5 1.5 0 0 1 .148-.644z" style="color:#da4453"/></svg>