<svg xmlns="http://www.w3.org/2000/svg" viewBox="0 0 16 16"><defs id="defs3051"><style id="current-color-scheme" type="text/css">.ColorScheme-Text{color:#dedede}</style></defs><path d="M2 1v6h1V2h5V1H2zm7 0v1h5v5h1V1H9zM2 8v6h6v-1H3V8H2zm12 0v5H9v1h6V8h-1z" style="fill:currentColor;fill-opacity:1;stroke:none;color:#fcfcfc" transform="translate(-421.714 -531.79)"/><path d="M8 1v6H2v1h6v6h1V8h6V7H9V1H8z" class="ColorScheme-Text" style="fill:currentColor;fill-opacity:1;stroke:none"/><path d="M435.714 533.79v5h-5v-5h5zm-6 0v5h-5v-5h5zm6 6v5h-5v-5h5zm-6 0v5h-5v-5h5z" class="ColorScheme-Text" style="fill:currentColor;fill-opacity:.5;stroke:none" transform="translate(-421.714 -531.79)"/></svg>