<svg xmlns="http://www.w3.org/2000/svg" viewBox="0 0 16 16"><defs id="defs3051"><style id="current-color-scheme" type="text/css">.ColorScheme-Text{color:#dedede}</style></defs><path d="M423.714 545.79v-6h1v5h5v-5h1v5h5v-5h1v6h-13zm0-7v-5h1v5h-1zm6 0v-5h1v5h-1zm6 0v-5h1v5h-1z" style="fill:currentColor;fill-opacity:1;stroke:none;color:#fcfcfc" transform="translate(-421.714 -531.79)"/><path d="M423.714 533.79h13v-1h-13z" class="ColorScheme-Text" style="fill:currentColor;fill-opacity:1;stroke:none" transform="translate(-421.714 -531.79)"/><path d="M435.714 544.79v-5h-5v5h5zm-6 0v-5h-5v5h5zm6-6v-5h-5v5h5zm-6 0v-5h-5v5h5z" class="ColorScheme-Text" style="fill:currentColor;fill-opacity:.5;stroke:none" transform="translate(-421.714 -531.79)"/></svg>