<svg xmlns="http://www.w3.org/2000/svg" viewBox="0 0 16 16"><defs id="defs3051"><style id="current-color-scheme" type="text/css">.ColorScheme-Text{color:#dedede}</style></defs><path d="M436.714 532.79h-6v1h5v5h-5v1h5v5h-5v1h6v-13zm-7 0h-5v1h5v-1zm0 6h-5v1h5v-1zm0 6h-5v1h5v-1z" style="fill:currentColor;fill-opacity:1;stroke:none;color:#fcfcfc" transform="translate(-421.714 -531.79)"/><path d="M424.714 532.79v13h-1v-13z" class="ColorScheme-Text" style="fill:currentColor;fill-opacity:1;stroke:none" transform="translate(-421.714 -531.79)"/><path d="M435.714 544.79h-5v-5h5v5zm0-6h-5v-5h5v5zm-6 6h-5v-5h5v5zm0-6h-5v-5h5v5z" class="ColorScheme-Text" style="fill:currentColor;fill-opacity:.5;stroke:none" transform="translate(-421.714 -531.79)"/></svg>