<svg xmlns="http://www.w3.org/2000/svg" width="16" height="16"><path fill="#dedede" d="M11.534 1.995c-.128-.003-.255.001-.38.01l-.264 1.207a2.906 2.906 0 0 0-.565.167l-.867-.871a4.004 4.004 0 0 0-.626.456l.499 1.116a2.93 2.93 0 0 0-.355.462l-1.208-.19c-.109.233-.19.48-.253.736l1.054.604a3.343 3.343 0 0 0-.018.213h-.007l.002.052-.002.024h.003c.001.071.002.142.008.214l-1.08.554c.05.26.12.508.217.747l1.216-.134c.094.17.207.332.333.479l-.55 1.09c.19.178.381.348.603.486l.907-.83c.175.084.364.147.557.194L10.965 10a3.907 3.907 0 0 0 .76.018l.263-1.207a2.9 2.9 0 0 0 .565-.168l.867.871a4 4 0 0 0 .626-.456l-.499-1.116c.132-.141.253-.297.355-.462l1.208.191a4 4 0 0 0 .253-.736L14.31 6.33c.01-.072.015-.142.02-.214h.005l-.002-.052.002-.023h-.003a3.297 3.297 0 0 0-.008-.215l1.08-.554a4.002 4.002 0 0 0-.217-.747l-1.216.134a2.93 2.93 0 0 0-.333-.478l.55-1.092a4 4 0 0 0-.603-.484l-.907.829a2.9 2.9 0 0 0-.556-.194l-.207-1.218a4.154 4.154 0 0 0-.38-.027zm-.075 3.185c.464.01.831.384.845.842A.866.866 0 0 1 10.574 6a.867.867 0 0 1 .885-.82zm-6.727.49a4.394 4.394 0 0 0-.38.014c-.128.01-.254.027-.377.049L3.84 6.96a2.9 2.9 0 0 0-.544.226l-.954-.775a4.004 4.004 0 0 0-.575.52l.614 1.057a2.93 2.93 0 0 0-.304.497L.855 8.423a4.002 4.002 0 0 0-.174.76l1.112.489c-.002.097-.002.19.005.29h.007c.009.082.02.162.036.244l-1.017.665a4 4 0 0 0 .295.72l1.196-.262c.112.16.24.308.381.441l-.433 1.144c.208.156.417.304.653.418l.813-.92c.183.064.378.108.575.134l.334 1.189a4.156 4.156 0 0 0 .757-.062l.135-1.228c.19-.059.374-.133.544-.227l.954.775c.213-.151.395-.331.575-.52l-.614-1.057c.116-.154.22-.321.304-.497l1.222.063a4 4 0 0 0 .173-.759l-1.111-.49a2.55 2.55 0 0 0-.006-.29l-.006.001a3.304 3.304 0 0 0-.036-.245l1.016-.665a3.993 3.993 0 0 0-.295-.72l-1.195.262a2.934 2.934 0 0 0-.382-.441l.433-1.143a4.004 4.004 0 0 0-.652-.419l-.814.921a2.9 2.9 0 0 0-.574-.135zM4.72 7.988c.88.016 1.623.698 1.697 1.594a1.736 1.736 0 0 1-3.464.243h-.001A1.737 1.737 0 0 1 4.72 7.987z"/></svg>