<svg xmlns="http://www.w3.org/2000/svg" width="16" height="16"><path fill="#dedede" d="M5.966 2.134a.56.56 0 0 0-.376.161 1.3 1.3 0 0 0-.246.34c-.144.267-.269.616-.393 1.026-.247.82-.485 1.876-.768 2.875-.036.127-.073.25-.11.375l1.206.337c.207-.806.37-1.606.496-2.272l.133-.7c.011.211.032.374.03.643-.004.697-.059 1.565-.162 2.468l.683.191c.157-1.279.203-2.565.154-3.551-.025-.508-.074-.935-.15-1.253a1.504 1.504 0 0 0-.146-.403c-.064-.112-.177-.237-.351-.237zM3.093 2.5a.563.563 0 0 0-.42.208 1.194 1.194 0 0 0-.207.408c-.1.307-.148.681-.181 1.05-.067.736-.069 1.46-.069 1.46-.002.266.371.328.455.076l.146-.443c-.011.242-.022.473-.036.721l-.809-.223-.062.225-.372 1.35 1.125.31c-.083 1.099-.159 2.287-.09 3.09.017.208.048.37.105.507.057.137.155.269.312.312.156.043.3-.02.411-.1.11-.08.208-.187.309-.322.4-.54.846-1.533 1.243-2.744.074-.225.142-.455.207-.686l-1.22-.342a24.241 24.241 0 0 1-.606 1.757c-.006.016-.009.017-.015.032.002-.376-.008-.699.026-1.197.03-.457.067-.93.101-1.393l.101-.365-.075-.02c.013-.194.029-.398.038-.576.04-.775.048-1.493.019-2.028a4.076 4.076 0 0 0-.078-.658.825.825 0 0 0-.08-.232c-.042-.073-.134-.178-.278-.178zm5.565.363c-.161 0-.278.1-.356.203a1.537 1.537 0 0 0-.197.37c-.117.294-.225.689-.339 1.156-.214.878-.448 2.013-.747 3.142l1.093.306c.05-.253.092-.503.148-.77-.033.274-.053.53-.08.789l1.516.424c.261-1.028.45-2.032.588-2.814.046-.263.079-.426.116-.63.013.181.034.316.038.545.012.84-.048 1.952-.178 3.057l.692.193c.036-.28.069-.565.095-.852.112-1.186.127-2.384.059-3.3-.034-.458-.087-.844-.167-1.133-.04-.145-.086-.266-.154-.37s-.184-.216-.346-.216a.542.542 0 0 0-.386.184 1.433 1.433 0 0 0-.242.376c-.143.298-.267.695-.393 1.164-.126.468-.271 1.107-.403 1.68.043-.581.138-1.234.134-1.706a8.197 8.197 0 0 0-.076-1.17 1.65 1.65 0 0 0-.094-.373.495.495 0 0 0-.094-.152.32.32 0 0 0-.227-.103zm4.27 1.753a.345.345 0 0 0-.205.095.624.624 0 0 0-.117.17c-.127.247-.233.628-.341 1.055-.108.427-.207.89-.288 1.239-.131.571-.3 1.197-.481 1.812l.963.269-.126.45-.974-.273c-.133.437-.27.864-.401 1.248-.158.458-.299.823-.424 1.128.02-.195.03-.358.069-.623.079-.531.187-1.186.285-1.885L10.2 9.11c-.143 1.047-.336 2.066-.452 2.855-.063.434-.102.796-.09 1.077.005.14.018.26.073.377.055.117.201.236.352.236.262 0 .49-.14.704-.336.214-.195.42-.458.622-.765.402-.612.782-1.401 1.071-2.163l.002-.006.116.031c-.2 1.702-.46 2.772-.46 2.772-.09.247.233.43.4.228l.035-.064h.002l.002-.005c.025-.036.06-.079.129-.23.09-.195.202-.5.313-.96.096-.395.188-.912.263-1.56l.501.133.418-1.579-.793-.21c.022-.52.033-1.094.028-1.735-.008-1.14-.05-1.792-.13-2.156a.979.979 0 0 0-.075-.233c-.034-.07-.087-.157-.212-.19a.267.267 0 0 0-.09-.01zM2.298 6.332l.675.186-.186.675-.675-.187zm3.418 1.523c-.028.211-.054.422-.088.633-.204 1.282-.513 2.548-.72 3.503-.102.478-.18.876-.205 1.175-.012.15-.016.272.016.394a.406.406 0 0 0 .1.188c.058.06.153.1.236.1.301 0 .513-.207.747-.482.235-.275.48-.652.729-1.103.496-.901 1-2.097 1.366-3.317.046-.155.084-.303.118-.447l-1.12-.314a34.294 34.294 0 0 1-1.015 3.038c-.065.165-.108.253-.167.394.028-.136.037-.214.07-.37.187-.867.439-2.012.61-3.202zm2.406.674a7.55 7.55 0 0 1-.057.353c-.229 1.203-.56 2.394-.81 3.285-.126.446-.23.815-.293 1.083-.032.134-.056.24-.064.333-.004.046-.008.089.007.153.007.033.02.073.062.12a.284.284 0 0 0 .19.087c.168 0 .252-.087.337-.174.085-.086.167-.197.257-.333.178-.271.378-.644.587-1.092.419-.896.872-2.089 1.214-3.305.01-.034.017-.068.027-.103zm4.832.775.677.179-.18.677-.676-.18z"/></svg>