<svg xmlns="http://www.w3.org/2000/svg" width="16" height="16"><path fill="#dedede" d="M2.478.012C1.101.022-.01 1.159 0 2.512A2.498 2.498 0 0 0 1.826 4.88l.963.603-.879.58A2.508 2.508 0 0 0 .045 8.49a2.504 2.504 0 0 0 2.514 2.47 2.506 2.506 0 0 0 2.478-2.507 2.493 2.493 0 0 0-1.039-1.996l.143-.107 5.002 2.99c.659.414 1.48.172 1.853-.557L5.502 5.465l5.445-3.4c-.384-.724-1.21-.954-1.863-.53L4.13 4.6l-.158-.11a2.482 2.482 0 0 0 1.023-2.015C4.984 1.122 3.856.002 2.48.012zm.012 1.41a1.052 1.052 0 0 1 1.065 1.062 1.052 1.052 0 0 1-.951 1.073L2.3 3.545A1.053 1.053 0 0 1 1.439 2.5 1.053 1.053 0 0 1 2.49 1.422zM10.033 5v1h1.989V5zm2.983 0v1h1.99V5zm.996 2v2h.994V7zm-11.29.412c.495.085.872.51.876 1.053a1.054 1.054 0 0 1-1.05 1.082A1.054 1.054 0 0 1 1.485 8.48a1.056 1.056 0 0 1 .842-1.06l.397-.008zM14.013 10v2h.994v-2zm-12.93 3v1H3.07v-1zm2.984 0v1h1.988v-1zm2.983 0v1h1.99v-1zm2.984 0v1h1.988v-1zm2.982 0v1h1.99v-1z"/></svg>