<svg xmlns="http://www.w3.org/2000/svg" width="16" height="16"><path fill="#dedede" d="M9.175 1.837c-2.66.051-4.775 1.261-6.044 3.084-1.692 2.43-2.005 5.763-1 8.785a1.082 1.082 0 1 0 2.054-.684c-.808-2.426-.497-5.113.722-6.863 1.014-1.457 2.571-2.39 4.986-2.16-1.07 2.055-.84 4.23-.246 5.85a11.39 11.39 0 0 0 1.265 2.439c.2.297.379.532.51.698.132.165.064.088.232.275a1.082 1.082 0 1 0 1.61-1.445c-.117-.13-.047-.05-.149-.178a9.36 9.36 0 0 1-1.437-2.534c-.577-1.572-.767-3.34.859-5.141a6.661 6.661 0 0 1 1.318-1.124 12.11 12.11 0 0 0-1.846-.647 10.397 10.397 0 0 0-2.834-.355zm.015.956a9.74 9.74 0 0 1 2.57.34 12.037 12.037 0 0 1 .176.047 7.159 7.159 0 0 0-.122.13c-1.883 2.087-1.701 4.357-1.05 6.13.325.886.77 1.643 1.133 2.179.181.268.342.48.457.625.116.145.046.066.185.221a.108.108 0 1 1-.16.146c-.145-.16-.074-.082-.193-.23a10.382 10.382 0 0 1-.469-.64 10.453 10.453 0 0 1-1.155-2.226c-.653-1.78-.84-4.102.975-6.216C4.403 1.545 1.481 7.985 3.26 13.332a.108.108 0 1 1-.204.068C1.452 8.58 3.662 2.854 9.19 2.794z"/></svg>