<svg xmlns="http://www.w3.org/2000/svg" width="16" height="16"><path fill="#dedede" d="M5.254 1.716c-1.025-.05-1.979.22-2.649.89-.949.948-1.092 2.432-.67 3.968.422 1.536 1.409 3.183 2.86 4.634.328.328.666.632 1.011.912l.35.284.568-.701-.35-.284c-.32-.26-.637-.544-.943-.85C4.08 9.216 3.174 7.68 2.805 6.334c-.37-1.346-.207-2.444.439-3.09.456-.456 1.121-.669 1.965-.628l.45.023.045-.901zm6.377.04c-.68-.102-1.434-.032-2.203.18-1.536.421-3.183 1.408-4.634 2.859-.328.328-.634.666-.913 1.011l-.284.35.7.569.285-.35c.26-.322.543-.637.85-.944C6.783 4.08 8.32 3.175 9.665 2.805c1.346-.37 2.444-.207 3.09.439.456.456.671 1.122.63 1.965l-.022.45.898.045.022-.45c.05-1.025-.219-1.979-.89-2.649-.473-.474-1.082-.747-1.763-.85zm-1.788 1.84-.568.702.35.284c.322.26.637.543.944.85 1.352 1.352 2.259 2.888 2.628 4.234.37 1.346.205 2.444-.441 3.09-.456.456-1.122.672-1.965.63l-.45-.022-.045.9.45.02c1.025.05 1.979-.219 2.649-.889.949-.949 1.092-2.43.67-3.966-.422-1.536-1.407-3.184-2.857-4.634a13.038 13.038 0 0 0-1.014-.914zm1.86 5.682-.285.348c-.26.32-.543.637-.85.943-1.352 1.352-2.888 2.259-4.234 2.629-1.346.37-2.444.204-3.09-.442-.457-.456-.67-1.121-.628-1.965l.022-.45-.9-.045-.023.45c-.05 1.025.22 1.979.89 2.65.949.948 2.432 1.091 3.968.67 1.536-.423 3.184-1.408 4.634-2.858.329-.329.633-.669.912-1.014l.284-.35z"/></svg>