<svg xmlns="http://www.w3.org/2000/svg" viewBox="0 0 16 16"><path d="M1 2a7 9 0 0 0 4.504 8.396 2.5 2.5 0 0 1 .252-.992A6 8 0 0 1 2 2Zm13 0a6 8 0 0 1-3.752 7.41 2.5 2.5 0 0 1 .248.979A7 9 0 0 0 15 2Z" style="fill:currentColor;fill-opacity:1;stroke:none;color:#dedede"/><path d="M8.004 8a2.5 2.5 0 0 0-2.5 2.5 2.5 2.5 0 0 0 2.5 2.5 2.5 2.5 0 0 0 2.5-2.5 2.5 2.5 0 0 0-2.5-2.5m0 1a1.5 1.5 0 0 1 1.5 1.5 1.5 1.5 0 0 1-1.5 1.5 1.5 1.5 0 0 1-1.5-1.5 1.5 1.5 0 0 1 1.5-1.5" style="fill:currentColor;fill-opacity:1;stroke:none;color:#3daee9"/></svg>