<svg xmlns="http://www.w3.org/2000/svg" width="16" height="16"><path fill="#dedede" d="M1.5 1.5h5v5h-5z" color="#000" opacity=".35" style="-inkscape-stroke:none"/><path fill="#dedede" d="M1 1v6h6V1zm1 1h4v4H2z" color="#000" style="-inkscape-stroke:none"/><path fill="#dedede" d="M9.5 1.5h5v5h-5z" color="#000" opacity=".35" style="-inkscape-stroke:none"/><path fill="#dedede" d="M9 1v6h6V1zm1 1h4v4h-4z" color="#000" style="-inkscape-stroke:none"/><path fill="#dedede" d="M1.5 9.5h5v5h-5z" color="#000" opacity=".35" style="-inkscape-stroke:none"/><path fill="#dedede" d="M1 9v6h6V9zm1 1h4v4H2z" color="#000" style="-inkscape-stroke:none"/><path fill="#dedede" d="M9.5 9.5h5v5h-5z" color="#000" opacity=".35" style="-inkscape-stroke:none"/><path fill="#dedede" d="M9 9v6h6V9zm1 1h4v4h-4z" color="#000" style="-inkscape-stroke:none"/></svg>