<svg xmlns="http://www.w3.org/2000/svg" width="16" height="16"><path fill="#dedede" d="M4.057 2.38c-.833.044-1.54.323-2.002.905-.728.915-.583 2.25.062 3.611a1.5 1.5 0 0 0-.412 1.034 1.5 1.5 0 0 0 1.5 1.5 1.5 1.5 0 0 0 .564-.112c.548.62 1.17 1.23 1.885 1.8.943.75 1.916 1.333 2.864 1.775a1.5 1.5 0 0 0-.008.15 1.5 1.5 0 0 0 1.5 1.5 1.5 1.5 0 0 0 1.334-.814c1.15.111 2.158-.119 2.754-.868.74-.93.585-2.296-.09-3.683-.525-1.079-1.388-2.21-2.502-3.264a1.5 1.5 0 0 0 .127-.604 1.5 1.5 0 0 0-1.5-1.5 1.5 1.5 0 0 0-.912.311c-1.218-.782-2.444-1.323-3.557-1.578a5.886 5.886 0 0 0-1.607-.162zm.486.804c.29.016.604.063.941.14.984.226 2.116.719 3.252 1.44a1.5 1.5 0 0 0-.103.547 1.5 1.5 0 0 0 1.5 1.5 1.5 1.5 0 0 0 .865-.276c1.034.99 1.824 2.037 2.29 2.992.605 1.245.642 2.261.183 2.838-.357.449-1.045.656-1.965.584a1.5 1.5 0 0 0-1.496-1.406 1.5 1.5 0 0 0-1.201.602c-.87-.411-1.775-.955-2.655-1.655a14.022 14.022 0 0 1-1.748-1.662 1.5 1.5 0 0 0 .3-.898 1.5 1.5 0 0 0-1.5-1.5 1.5 1.5 0 0 0-.395.055c-.541-1.18-.573-2.147-.131-2.702.344-.432.992-.649 1.863-.6z"/></svg>