<svg xmlns="http://www.w3.org/2000/svg" width="16" height="16"><g fill="#dedede"><path d="M7.278.914v3.572H8V4a4.035 4.035 0 0 1 3.134 6.04A4.036 4.036 0 0 1 8 12.043v-.532h-.722v3.618h.716v-2.366a4.75 4.75 0 0 0 1.206-.25l.405.926.656-.285-.404-.93c.364-.192.702-.43 1.005-.71l.742.689.488-.524-.741-.69a4.75 4.75 0 0 0 .404-.589c.088-.151.164-.307.233-.465l2.233.786.238-.676-2.231-.785c.107-.4.162-.81.164-1.222l1.007-.072-.05-.717-1.01.074A4.746 4.746 0 0 0 12 6.137l.897-.469-.333-.635-.897.47a4.744 4.744 0 0 0-.782-.95l1.483-1.847-.56-.448-1.481 1.844a4.76 4.76 0 0 0-1.097-.56l.266-.975-.691-.189-.266.975a4.755 4.755 0 0 0-.545-.073V.914zm0 4.551v1.036H8V5.465zm0 2.016v1.034H8V7.481zm0 2.014v1.036H8V9.495z"/><path d="M7.442 3.265A4.757 4.757 0 0 0 3.323 10.4a4.757 4.757 0 0 0 4.119 2.378v-.717a4.038 4.038 0 0 1-3.498-6.059 4.038 4.038 0 0 1 3.498-2.02z" opacity=".4"/></g></svg>