<svg xmlns="http://www.w3.org/2000/svg" width="16" height="16"><path fill="#dedede" fill-rule="evenodd" d="M965.46 171.96a.5.5 0 0 0-.39.813l4 5a.5.5 0 0 0 .39.187h11a.5.5 0 0 0 .39-.813l-4-5a.5.5 0 0 0-.39-.187zm1.041 1h9.719l3.199 4H969.7z" color="#000" style="-inkscape-stroke:none" transform="matrix(.99744 0 0 1 -962.49 -164)"/><path fill="none" d="M.04 0h15.959v16H.039z" color="#000"/><path fill="#dedede" fill-rule="evenodd" d="m15.999 4.5-3 2.494V4.999h-5l-1-.998h6V2.006z"/><path fill="#dedede" d="M969.3 173v.93l-.139.138.707.71.707-.71-.275-.275V173zm2.5 0v1h1v-1zm2.5 0v1h1v-1zm2.502 0v1h1v-1zm2.853.148-.707.707.707.708.708-.708zm1.768 1.768-.707.707.707.709.707-.709zm-9.787.215-.707.707.707.707.709-.707zm11.555 1.555-.707.707.463.46.006-.013v.16h.348a.5.5 0 0 0 .353-.853zm-9.785.212-.707.707.248.249a.5.5 0 0 0 .353.146h.649v-1h-.442zm2.045.102v1h1v-1zm2.5 0v1h1v-1zm2.5 0v1h1v-1z" color="#000" style="-inkscape-stroke:none" transform="matrix(.99744 0 0 1 -968.708 -171)"/></svg>