<svg xmlns="http://www.w3.org/2000/svg" width="16" height="16.001"><path fill="#dedede" d="M8 2.5c-3.619 0-5.57 1.335-6.535 2.713C.5 6.59.5 8 .5 8a.5.5 0 0 0 .5.5.5.5 0 0 0 .5-.5s0-1.091.785-2.213c.685-.979 2.18-1.862 4.74-2.103C5.594 5.789 4.957 7.653 5.227 9.18c.313 1.776 1.562 3.073 3.005 3.992 2.888 1.837 6.702 2.322 6.702 2.322a.5.5 0 0 0 .562-.428.5.5 0 0 0-.43-.562s-3.686-.513-6.298-2.176C7.46 11.497 6.46 10.417 6.21 9.006c-.249-1.411.232-3.26 2.18-5.694A.5.5 0 0 0 8 2.5z" color="#000" style="-inkscape-stroke:none"/><path fill="#3daee9" fill-rule="evenodd" d="M5.466 3.034 8 .5l2.56 2.56-2.534 2.534z" color="#000" opacity=".35" style="-inkscape-stroke:none"/><path fill="#3daee9" fill-rule="evenodd" d="M5.144 2.714a.453.453 0 0 0 .002.64l2.56 2.56a.453.453 0 0 0 .64.001l2.534-2.534a.453.453 0 0 0 0-.641L8.32.18a.453.453 0 0 0-.641 0zm.962.32L8 1.14l1.92 1.92-1.896 1.895z" color="#000" style="-inkscape-stroke:none"/></svg>