<svg xmlns="http://www.w3.org/2000/svg" viewBox="0 0 16 16"><path d="M14 2A12 12 0 0 0 2 14h1A11 11 0 0 1 14 3Z" style="fill:currentColor;fill-opacity:1;stroke:none;color:#dedede"/><path d="M4.504 3a1.5 1.5 0 0 0-1.5 1.5 1.5 1.5 0 0 0 1.5 1.5 1.5 1.5 0 0 0 1.5-1.5 1.5 1.5 0 0 0-1.5-1.5zm0 1a.5.5 0 0 1 .5.5.5.5 0 0 1-.5.5.5.5 0 0 1-.5-.5.5.5 0 0 1 .5-.5zm3 2a1.5 1.5 0 0 0-1.5 1.5 1.5 1.5 0 0 0 1.5 1.5 1.5 1.5 0 0 0 1.5-1.5 1.5 1.5 0 0 0-1.5-1.5zm0 1a.5.5 0 0 1 .5.5.5.5 0 0 1-.5.5.5.5 0 0 1-.5-.5.5.5 0 0 1 .5-.5z" style="fill:currentColor;fill-opacity:1;stroke:none;color:#3daee9"/></svg>