<svg xmlns="http://www.w3.org/2000/svg" viewBox="0 0 16 16"><defs><style id="current-color-scheme" type="text/css">.ColorScheme-Highlight{color:#3daee9}.ColorScheme-Text{color:#dedede}</style></defs><path d="m11.78 4.223-.708.707A9.996 9.996 0 0 1 14 12h1c0-2.917-1.158-5.715-3.22-7.777Z" class="ColorScheme-Highlight" style="fill:currentColor;fill-opacity:1;stroke:none"/><path d="M1 12v1h1v-1H1Zm5 0v1h1v-1H6Zm2 0v1h2v-1H8Zm3 0v1h2v-1h-2Zm3 0v1h2v-1h-2ZM13 2.293 5.293 10l.707.707L13.707 3 13 2.293Z" class="ColorScheme-Text" style="fill:currentColor;fill-opacity:1;stroke:none"/><path d="M2 10v4h4v-4H2Zm1 1h2v2H3v-2Z" class="ColorScheme-Highlight" style="fill:currentColor;fill-opacity:1;stroke:none"/></svg>