<svg xmlns="http://www.w3.org/2000/svg" viewBox="0 0 16 16"><path d="m8.078 1.672-.707.707L8.992 4H4.906v1h4.086l-1.62 1.621.706.707L10.906 4.5 9.027 2.621l-.949-.95zM3.406 5a.5.5 0 1 0 0 1 .5.5 0 0 0 0-1zm-1 3a.5.5 0 1 0 0 1 .5.5 0 0 0 0-1zm1 3a.5.5 0 1 0 0 1 .5.5 0 0 0 0-1zm3 1a.5.5 0 1 0 0 1 .5.5 0 0 0 0-1z" style="fill:currentColor;fill-opacity:1;stroke:none;color:#dedede"/><path d="M10 8a2 2 0 0 0-2 2 2 2 0 0 0 2 2 2 2 0 0 0 2-2 2 2 0 0 0-2-2m0 1a1 1 0 0 1 1 1 1 1 0 0 1-1 1 1 1 0 0 1-1-1 1 1 0 0 1 1-1" style="fill:currentColor;fill-opacity:1;stroke:none;color:#3daee9"/></svg>