<svg xmlns="http://www.w3.org/2000/svg" width="16" height="16" fill="none"><style id="current-color-scheme" type="text/css">.ColorScheme-Text{color:#dedede}</style><path fill="currentColor" fill-rule="evenodd" d="M2 2h12v7.707L9.707 14H2V2Zm1 1v10h6V9h4V3H3Zm9.293 7H10v2.293L12.293 10Z" class="ColorScheme-Text" clip-rule="evenodd"/><path fill="currentColor" d="M7 6.5a.5.5 0 1 1-1 0 .5.5 0 0 1 1 0ZM10 6.5a.5.5 0 1 1-1 0 .5.5 0 0 1 1 0Z" class="ColorScheme-Text"/><path fill="currentColor" fill-rule="evenodd" d="M11.354 8.854a4.743 4.743 0 0 1-6.708 0l.708-.708a3.743 3.743 0 0 0 5.292 0l.708.708Z" class="ColorScheme-Text" clip-rule="evenodd"/></svg>