<svg xmlns="http://www.w3.org/2000/svg" width="16" height="16.128"><path fill="none" d="M0 .128v16h16v-16z" color="#000"/><path fill="#c00" fill-rule="evenodd" d="m3 7.832 1.016-.064.033.508.006.094.007.101.012.1.014.1.035.195.022.096.023.095.025.096.004.012.145.488-.975.29-.146-.49-.004-.017a.509.509 0 0 1-.004-.012l-.03-.107a.509.509 0 0 1-.001-.012l-.028-.107a.509.509 0 0 1-.002-.014l-.023-.11a.509.509 0 0 1-.004-.01l-.022-.11a.509.509 0 0 1-.001-.014l-.018-.11a.509.509 0 0 1-.002-.013l-.016-.111a.509.509 0 0 1-.002-.014l-.013-.111a.509.509 0 0 1 0-.014l-.01-.113a.509.509 0 0 1-.002-.014l-.006-.1zm.223-1.234.191-.471v-.002a.509.509 0 0 1 .006-.012l.043-.1a.509.509 0 0 1 .006-.011l.047-.098a.509.509 0 0 1 .004-.011l.048-.098a.509.509 0 0 1 .006-.01l.051-.098a.509.509 0 0 1 .006-.01l.053-.095a.509.509 0 0 1 .005-.01l.055-.094a.509.509 0 0 1 .006-.01l.059-.091a.509.509 0 0 1 .005-.01l.06-.092a.509.509 0 0 1 .007-.01l.06-.087a.509.509 0 0 1 .008-.01l.024-.033.298-.41.823.6-.3.41-.019.027-.054.078-.053.08-.05.082-.05.082-.047.084-.044.086-.043.086-.041.088-.038.088v-.004l-.19.47zm.75 4.43.761-.674.338.381.002.002.065.07.066.069.068.066.07.065.073.064.072.06.075.061.076.059.076.057.027.017.418.291-.58.836-.418-.29-.031-.022a.509.509 0 0 1-.01-.008l-.088-.062a.509.509 0 0 1-.01-.008l-.086-.067a.509.509 0 0 1-.01-.006l-.083-.068a.509.509 0 0 1-.008-.008l-.082-.07a.509.509 0 0 1-.01-.008l-.08-.07a.509.509 0 0 1-.01-.008l-.078-.074a.509.509 0 0 1-.01-.008l-.076-.076a.509.509 0 0 1-.008-.008l-.076-.078a.509.509 0 0 1-.008-.008l-.074-.078a.509.509 0 0 1-.008-.01l-.005-.008zm1.242-7.134.45-.238.071-.037a.509.509 0 0 1 .012-.006l.096-.049a.509.509 0 0 1 .011-.004l.1-.047a.509.509 0 0 1 .01-.006l.1-.043a.509.509 0 0 1 .011-.005l.102-.041a.509.509 0 0 1 .011-.004l.102-.04a.509.509 0 0 1 .014-.003l.101-.037a.509.509 0 0 1 .014-.004l.103-.034a.509.509 0 0 1 .012-.003l.106-.032a.509.509 0 0 1 .013-.004l.059-.015.49-.135.268.983-.492.132-.053.016-.094.027-.092.03-.092.033-.091.035-.088.035-.09.04-.086.04-.086.043-.066.035-.452.239zm1.523 9.021.168-1.004.502.084.098.014.101.012.1.007.102.006.101.004.096.002h.014l.095-.002.102-.004.101-.006.102-.007.1-.012.097-.014.1-.017.095-.018.102-.021.496-.11.217.995-.496.109-.108.021a.509.509 0 0 1-.011.004l-.11.02a.509.509 0 0 1-.013.004l-.112.017a.509.509 0 0 1-.011.002l-.112.016a.509.509 0 0 1-.013.002l-.112.012a.509.509 0 0 1-.013.002v.031l-.497-.006h-.013l-.496.006v-.031a.509.509 0 0 1-.012-.002l-.113-.012a.509.509 0 0 1-.014-.002l-.111-.016A.509.509 0 0 1 7.248 13l-.008-.002zm1.53-8.853.191-.998.5.096.053.01a.509.509 0 0 1 .011.001l.11.024a.509.509 0 0 1 .012.004l.109.025a.509.509 0 0 1 .012.004l.107.03a.509.509 0 0 1 .012.003l.105.032a.509.509 0 0 1 .012.003l.105.034a.509.509 0 0 1 .012.004l.104.037a.509.509 0 0 1 .011.004l.102.039a.509.509 0 0 1 .012.004l.101.04a.509.509 0 0 1 .012.006l.074.034.465.203-.408.932-.465-.204-.068-.03-.09-.036-.092-.035-.09-.033-.094-.03-.093-.027-.094-.025-.096-.024-.098-.021-.046-.01zm1.851 7.41.395-.32.023-.02.074-.06.141-.13.068-.066.067-.068.129-.141.12-.148.005-.006.308-.405.809.62-.309.404-.01.01a.509.509 0 0 1-.005.01l-.069.083a.509.509 0 0 1-.008.01l-.068.082a.509.509 0 0 1-.008.01l-.072.08a.509.509 0 0 1-.008.01l-.074.078a.509.509 0 0 1-.008.008l-.074.078a.509.509 0 0 1-.01.008l-.076.076a.509.509 0 0 1-.01.008l-.078.074a.509.509 0 0 1-.01.008l-.08.07a.509.509 0 0 1-.008.008l-.082.07a.509.509 0 0 1-.01.008l-.029.024-.394.318zm.606-6.355.777-.656.328.388.027.034a.509.509 0 0 1 .008.007l.069.084a.509.509 0 0 1 .005.01l.067.086a.509.509 0 0 1 .008.01l.062.088a.509.509 0 0 1 .008.01l.06.088a.509.509 0 0 1 .008.01l.059.091a.509.509 0 0 1 .008.01l.056.092a.509.509 0 0 1 .006.01l.055.093a.509.509 0 0 1 .006.01l.053.096a.509.509 0 0 1 .006.01l.05.097a.509.509 0 0 1 .006.01l.002.004.227.455-.912.451-.227-.455-.043-.082-.047-.084-.049-.082-.05-.082-.053-.08-.055-.078-.056-.078-.057-.077-.06-.074-.024-.027zm1.064 4.265.11-.497.003-.02.02-.097.016-.097.013-.1.012-.1.016-.203.003-.101v-.178l-.005-.51 1.015-.012.008.508v.082a.509.509 0 0 1 0 .014l-.002.115a.509.509 0 0 1 0 .012l-.004.115a.509.509 0 0 1 0 .014l-.008.113a.509.509 0 0 1 0 .014l-.011.113a.509.509 0 0 1 0 .014l-.014.111a.509.509 0 0 1-.002.014l-.016.111a.509.509 0 0 1-.002.014l-.017.11a.509.509 0 0 1-.002.013l-.022.11a.509.509 0 0 1-.002.01l-.006.026-.107.498z" color="#000" style="-inkscape-stroke:none"/><path fill="#dedede" fill-rule="evenodd" d="M10.504 0H8.381v7.628H3v-2L0 8.502l3 2.874v-2h7.504z"/></svg>