<svg xmlns="http://www.w3.org/2000/svg" width="16" height="16"><g fill="none" color="#000" transform="translate(-319.65 -108.19)"><path d="M319.65 108.19h16v16h-16z"/><ellipse cx="327.65" cy="116.19" stroke="#c80000" stroke-dasharray="1.01888, 1.01888" stroke-linejoin="round" stroke-miterlimit="0" stroke-width="1.019" rx="4.486" ry="4.491"/></g><path fill="#dedede" d="M8 1a7 7 0 0 0-7 7 7 7 0 0 0 7 7 7 7 0 0 0 7-7 7 7 0 0 0-7-7zm0 1a6 6 0 0 1 6 6 6 6 0 0 1-6 6 6 6 0 0 1-6-6 6 6 0 0 1 6-6z"/></svg>