<svg xmlns="http://www.w3.org/2000/svg" width="28" height="28"><path fill="none" d="M0 0h28v28H0z"/><g fill="#dedede" color="#000"><path d="M2.281 2.42H15.72v2.842h-4.834V17h-3.76V5.262H2.282z" opacity=".35" style="-inkscape-stroke:none"/><path d="M1.906 2.045v3.592H6.75v11.738h4.51V5.637h4.834V2.045zm.75.75h12.688v2.092H10.51v11.738H7.5V4.887H2.657z" style="-inkscape-stroke:none"/></g><g fill="#dedede" color="#000"><path d="M13.969 13.252h8.063v1.705h-2.9V22h-2.257v-7.043H13.97z" opacity=".35" style="-inkscape-stroke:none"/><path d="M13.594 12.877v2.455H16.5v7.043h3.006v-7.043h2.9v-2.455zm.75.75h7.313v.955h-2.9v7.043H17.25v-7.043h-2.906z" style="-inkscape-stroke:none"/></g><path fill="#dedede" d="M20 1.25a.75.75 0 0 0-.75.75.75.75 0 0 0 .75.75h5.25v22.5H2.75V10A.75.75 0 0 0 2 9.25a.75.75 0 0 0-.75.75v16a.75.75 0 0 0 .75.75h24a.75.75 0 0 0 .75-.75V2a.75.75 0 0 0-.75-.75z" color="#000" style="-inkscape-stroke:none"/></svg>