<svg xmlns="http://www.w3.org/2000/svg" width="249.51" height="249.51"><path fill="#dedede" fill-rule="evenodd" d="M44.206 53.627c6.538 8.776 7.18 14.93 7.185 20.8.004 4.681-10.77 1.898-15.87-.213-7.693-3.185-15.823-9.785-17.69-16.915-1.158-4.43.75-10.23 5.2-11.624 6.495-2.036 16.872 2.177 21.175 7.952zm-14.197 152.37c9.1-17.448 19.58-23.918 30.209-29.205 8.476-4.216 14.636 14.034 16.114 23.384 2.23 14.109-1.271 31.926-12.25 41.065-6.819 5.676-19.31 8.104-26.462 2.855-10.441-7.662-13.6-26.616-7.61-38.1zm143.63-82.899c1.436-39.914 54.537 19.127 69.592-3.639 8.94-13.518 5.325-38.56-7.865-47.979-9.686-6.917-50.667 5.557-60.77-.737-18.812-11.722 7.934-34.93-8.702-49.577-24.862-21.89-44.625-21.294-68.54 1.625-15.177 14.547 10.873 22.047 3.193 41.618-10.607 27.033-39.064 8.12-45.546 36.427-4.105 17.923 1.357 48.934 19.082 53.826 13.317 3.675 13.818-22.594 38.883-4.906 25.064 17.688 4.455 41.492 10.1 65.11 5.645 23.618 22.85 17.716 35.421 15.118 15.977-3.303 11.126-30.422 33.71-33.397 22.582-2.975 16.697 21.865 41.585-.638 41.602-37.614-49.858-50.128-60.143-72.851z"/></svg>