<svg xmlns="http://www.w3.org/2000/svg" id="svg19" version="1.1" viewBox="0 0 16 16"><style id="current-color-scheme" type="text/css">.ColorScheme-Text{color:#dedede}</style><g id="g13" fill="currentColor" stroke-linecap="square" class="ColorScheme-Text"><path id="path3" d="M3.5 3A1.5 1.5 0 0 0 2 4.5 1.5 1.5 0 0 0 3.5 6 1.5 1.5 0 0 0 5 4.5 1.5 1.5 0 0 0 3.5 3Zm-.012 1A.5.5 0 0 1 3.5 4a.5.5 0 0 1 .5.5.5.5 0 0 1-.5.5.5.5 0 0 1-.5-.5.5.5 0 0 1 .488-.5Z"/><path id="path5" d="M3.5 11A1.5 1.5 0 0 0 2 12.5 1.5 1.5 0 0 0 3.5 14 1.5 1.5 0 0 0 5 12.5 1.5 1.5 0 0 0 3.5 11Zm-.012 1a.5.5 0 0 1 .012 0 .5.5 0 0 1 .5.5.5.5 0 0 1-.5.5.5.5 0 0 1-.5-.5.5.5 0 0 1 .488-.5Z"/><path id="path7" d="M11.5 11a1.5 1.5 0 0 0-1.5 1.5 1.5 1.5 0 0 0 1.5 1.5 1.5 1.5 0 0 0 1.5-1.5 1.5 1.5 0 0 0-1.5-1.5zm-.012 1a.5.5 0 0 1 .012 0 .5.5 0 0 1 .5.5.5.5 0 0 1-.5.5.5.5 0 0 1-.5-.5.5.5 0 0 1 .488-.5z"/><path id="path9" d="M3 5h1v7H3z"/><path id="path11" d="M7 4v1h3a1 1 0 0 1 1 1v6h1V6a2 2 0 0 0-1.951-2A2 2 0 0 0 10 4z"/></g><path id="path15" fill="currentColor" d="M8.5 1.793 5.793 4.5 8.5 7.207l.707-.707-2-2 2-2-.707-.707z" class="ColorScheme-Text"/></svg>