<svg xmlns="http://www.w3.org/2000/svg" id="svg17" version="1.1" viewBox="0 0 16 16"><style id="current-color-scheme" type="text/css">.ColorScheme-Text{color:#dedede}</style><path id="path3" fill="currentColor" stroke-linecap="square" d="M3.5 3A1.5 1.5 0 0 0 2 4.5 1.5 1.5 0 0 0 3.5 6 1.5 1.5 0 0 0 5 4.5 1.5 1.5 0 0 0 3.5 3Zm-.012 1A.5.5 0 0 1 3.5 4a.5.5 0 0 1 .5.5.5.5 0 0 1-.5.5.5.5 0 0 1-.5-.5.5.5 0 0 1 .488-.5Z" class="ColorScheme-Text"/><path id="path5" fill="currentColor" stroke-linecap="square" stroke-width=".845" d="M3 5v5a2 2 0 0 0 1.951 2A2 2 0 0 0 5 12h3v-1H5a1 1 0 0 1-1-1V5z" class="ColorScheme-Text"/><path id="path7" fill="currentColor" d="m6.5 8.793-.707.707 2 2-1.647 1.646-.353.354.707.707.354-.353L9.207 11.5 6.5 8.793z" class="ColorScheme-Text"/><path id="path9" fill="currentColor" stroke-linecap="square" d="M11.5 13a1.5 1.5 0 0 0 1.5-1.5 1.5 1.5 0 0 0-1.5-1.5 1.5 1.5 0 0 0-1.5 1.5 1.5 1.5 0 0 0 1.5 1.5zm.012-1a.5.5 0 0 1-.012 0 .5.5 0 0 1-.5-.5.5.5 0 0 1 .5-.5.5.5 0 0 1 .5.5.5.5 0 0 1-.488.5z" class="ColorScheme-Text"/><path id="path11" fill="currentColor" stroke-linecap="square" stroke-width=".845" d="M12 11V6a2 2 0 0 0-1.951-2A2 2 0 0 0 10 4H7v1h3a1 1 0 0 1 1 1v5z" class="ColorScheme-Text"/><path id="path13" fill="currentColor" d="M8.5 1.793 5.793 4.5 8.5 7.207l.707-.707-2-2 2-2-.707-.707z" class="ColorScheme-Text"/></svg>