<svg xmlns="http://www.w3.org/2000/svg" width="16" height="16"><path fill="currentColor" d="M2 2v4h4V2H2zm6 0v1h1V2H8zm0 1H7v2h1V3zm0 2v1h1V5H8zm0 1H7v1h1V6zm0 1v2h2V8H9V7H8zm2 1h1V7h-1v1zm1 0v1h1V8h-1zm1 0h1V7h-1v1zm1 0v1h-1v1h2V8h-1zm-1 2h-2v2h2v-2zm-2 2H9v1h1v-1zm0 1v1h1v-1h-1zm-1 0H8v1h1v-1zm-1 0v-2H7v2h1zm0-2h1v-1H8v1zM7 7H5v1h1v1h1V7zM5 8H3v1h2V8zM3 8V7H2v1h1zm7-6v4h4V2h-4zM3 3h2v2H3V3zm8 0h2v2h-2V3zm-9 7v4h4v-4H2zm1 1h2v2H3v-2zm10 0v2h1v-2h-1zm0 2h-1v1h1v-1z" style="color:#dedede"/></svg>