<svg xmlns="http://www.w3.org/2000/svg" viewBox="0 0 16 16"><g style="fill:currentColor;color:#dedede"><path d="M2 1c-.554 0-1 .446-1 1v4c0 .554.446 1 1 1h4c.554 0 1-.446 1-1V2c0-.554-.446-1-1-1zm0 1h4v4H2zM10 1c-.554 0-1 .446-1 1v4c0 .554.446 1 1 1h4c.554 0 1-.446 1-1V2c0-.554-.446-1-1-1zm0 1h4v4h-4zM2 9c-.554 0-1 .446-1 1v4c0 .554.446 1 1 1h4c.554 0 1-.446 1-1v-4c0-.554-.446-1-1-1zm0 1h4v4H2zM10 9c-.554 0-1 .446-1 1v4c0 .554.446 1 1 1h4c.554 0 1-.446 1-1v-4c0-.554-.446-1-1-1zm0 1h4v4h-4z"/></g></svg>