<svg xmlns="http://www.w3.org/2000/svg" viewBox="0 0 16 16"><path d="m4.121 2 1 1H14v8.879l1 1V2H4.121zm2 2 1 1H9V4H6.121zM3 5.121V8H1v1h5.879l-1-1H4V6.121l-1-1zM10.121 8l1 1H13V8h-2.879zM1 10v4h10.879l-1-1H10v-.879L7.879 10H1zm11.121 0 .879.879V10h-.879zM2 12h1v1H2v-1zm2 0h1v1H4v-1zm2 0h1v1H6v-1zm2 0h1v1H8v-1z" style="fill:currentColor;fill-opacity:1;stroke:none;color:#dedede"/><path d="M2.707 2 2 2.707 13.293 14l.707-.732L2.707 2zM10 4v1h3V4h-3z" style="fill:currentColor;fill-opacity:1;stroke:none;color:#da4453"/></svg>