<svg xmlns="http://www.w3.org/2000/svg" viewBox="0 0 16 16"><path fill="currentColor" d="M2 1C.892 1 0 1.892 0 3v10c0 1.108.892 2 2 2h11c1.108 0 2-.892 2-2V3c0-1.108-.892-2-2-2zm0 3h11c.554 0 1 .446 1 1v8c0 .554-.446 1-1 1H2c-.554 0-1-.446-1-1V5c0-.554.446-1 1-1z" style="color:#dedede"/><g fill="currentColor" style="color:#27ae60"><rect width="2" height="2" x="5" y="5" ry=".5"/><rect width="2" height="2" x="8" y="5" ry=".5"/><rect width="2" height="2" x="11" y="5" ry=".5"/><rect width="2" height="2" x="5" y="8" ry=".5"/><rect width="2" height="2" x="8" y="8" ry=".5"/><rect width="2" height="2" x="11" y="8" ry=".5"/><rect width="2" height="2" x="2" y="8" ry=".5"/><rect width="2" height="2" x="2" y="11" ry=".5"/><rect width="2" height="2" x="5" y="11" ry=".5"/><rect width="2" height="2" x="8" y="11" ry=".5"/></g></svg>