<svg xmlns="http://www.w3.org/2000/svg" viewBox="0 0 16 16"><path fill="currentColor" d="M11.5 2a2.5 2.5 0 1 0 0 5 2.5 2.5 0 0 0 0-5zM1 6v1h3.879l-1-1H1zm1 2c-.366 0-.705.106-1 .277V10a1 1 0 1 1 2 0 1 1 0 0 1-2 0v1.723c.295.171.634.277 1 .277a2 2 0 1 0 0-4zm9.646 0c-.434 0-.85.11-1.242.283l.776.776A2.09 2.09 0 0 1 11.646 9c1.059.002 2.001.803 2.354 2h-.879l1 1h1.025c0-2.21-1.567-4-3.5-4zM7 9.121V12H6v1H1v1h7v-3.879l-1-1zm2 2V12h.879L9 11.121z" style="color:#dedede"/><path fill="currentColor" d="M2.707 1.988 2 2.695l11.293 11.293.707-.732Z" style="color:#da4453"/></svg>