<svg width="27" height="24" viewBox="0 0 27 24" fill="none" xmlns="http://www.w3.org/2000/svg">
<rect width="27" height="24" fill="#A4A4A4" fill-opacity="0.01"/>
<path d="M13.3997 20.3491C11.0929 20.3491 9.11627 19.5397 7.46976 17.9211C5.82325 16.3025 5 14.3536 5 12.0743C5 9.79503 5.82325 7.83783 7.46976 6.2027C9.11627 4.56757 11.0929 3.75 13.3997 3.75C14.6416 3.75 15.7836 3.99775 16.8259 4.49324C17.2623 4.70069 17.6747 4.9371 18.0632 5.20245C18.6403 5.59666 19.5428 5.2184 19.5428 4.51952V4.51952C19.5428 4.09452 19.8873 3.75 20.3123 3.75H21.1981C21.641 3.75 22 4.10902 22 4.55189V10.6283C22 11.0711 21.641 11.4302 21.1981 11.4302H15.004C14.5611 11.4302 14.2021 11.0711 14.2021 10.6283V9.8289C14.2021 9.38603 14.5611 9.02701 15.004 9.02701H15.8697C16.5419 9.02701 16.8771 8.27402 16.3243 7.89153C16.1331 7.7592 15.9329 7.63807 15.7237 7.52814C15.0163 7.15652 14.2417 6.97071 13.3997 6.97071C11.9621 6.97071 10.7377 7.46552 9.7264 8.45514C8.71509 9.44474 8.20944 10.6511 8.20944 12.0743C8.20944 13.5002 8.71509 14.7073 9.7264 15.6955C10.7377 16.6838 11.965 17.1779 13.4082 17.1779C14.7074 17.1779 15.8331 16.7443 16.7854 15.8772C17.5584 15.1734 18.0728 14.3416 18.3284 13.3821C18.4319 12.9936 18.7648 12.6937 19.1668 12.6937H20.8758C21.3456 12.6937 21.7185 13.0972 21.6338 13.5593C21.3088 15.3324 20.4614 16.8565 19.0914 18.1317C17.5034 19.6099 15.6062 20.3491 13.3997 20.3491Z" fill="url(#paint0_linear_2_2)"/>
<defs>
<linearGradient id="paint0_linear_2_2" x1="5" y1="20.5473" x2="21.796" y2="3.54848" gradientUnits="userSpaceOnUse">
<stop stop-color="#CCCCCC"/>
<stop offset="1" stop-color="#F9F9F9"/>
</linearGradient>
</defs>
</svg>
