<svg xmlns="http://www.w3.org/2000/svg" viewBox="0 0 16 16"><path fill="currentColor" d="m429.71 532.79-5.969.031a1 1 0 0 0-.994.994l-.031 5.97c-.001.28.115.549.322.74l6.5 6a.985.985 0 0 0 .908.22 4.5 4.5 0 0 1-.57-1.27l-6.16-5.685.031-5.969 5.969-.03 5.691 6.165a4.5 4.5 0 0 1 1.264.566.986.986 0 0 0-.22-.91l-6-6.5a1 1 0 0 0-.741-.322zm-2.494 3a1.5 1.5 0 1 0 .001 3.001 1.5 1.5 0 0 0-.001-3.001z" style="color:#dedede" transform="translate(-421.71 -531.79)"/><path d="M12.5 9a3.5 3.5 0 1 0 0 7 3.5 3.5 0 0 0 0-7zm-1.666 1 1.666 1.666L14.166 10l.834.834-1.666 1.666L15 14.166l-.834.834-1.666-1.666L10.834 15 10 14.166l1.666-1.666L10 10.834l.834-.834z" style="fill:currentColor;color:#da4453"/></svg>