<svg width="24" height="24" viewBox="0 0 24 24" fill="none" xmlns="http://www.w3.org/2000/svg">
<rect x="1" y="1" width="22" height="22" rx="6.6" fill="url(#paint0_radial_6_71)"/>
<path d="M11 13.9941V17.2427C11 17.3812 11.1114 17.4926 11.2499 17.4926H12.7492C12.8877 17.4926 12.9991 17.3812 12.9991 17.2427V13.9941H11ZM11.4998 15.9932H12.4993V16.9927H11.4998V15.9932Z" fill="#FAFAFA"/>
<path d="M12.0004 1V1.99955H13V1H12.0004ZM12.0004 1.99955H11.0009V2.99911H12.0004V1.99955ZM12.0004 2.99911V3.99866H13V2.99911H12.0004ZM12.0004 3.99866H11.0009V4.99821H12.0004V3.99866ZM12.0004 4.99821V5.99777H13V4.99821H12.0004ZM12.0004 5.99777H11.0009V6.99732H12.0004V5.99777ZM12.0004 6.99732V7.99687H13V6.99732H12.0004ZM12.0004 7.99687H11.0009V8.99643H12.0004V7.99687ZM12.0004 8.99643V9.99598H13V8.99643H12.0004ZM12.0004 9.99598H11.0009V10.9955H12.0004V9.99598ZM12.0004 10.9955V11.9951H13V10.9955H12.0004ZM12.0004 11.9951H11.0009V12.9946H12.0004V11.9951ZM12.0004 12.9946V13.9942H13V12.9946H12.0004Z" fill="#FAFAFA"/>
<defs>
<radialGradient id="paint0_radial_6_71" cx="0" cy="0" r="1" gradientUnits="userSpaceOnUse" gradientTransform="translate(17.5 1) rotate(116.565) scale(24.5967)">
<stop stop-color="#F6D497"/>
<stop offset="1" stop-color="#D9AA57"/>
</radialGradient>
</defs>
</svg>
