<svg width="24" height="24" viewBox="0 0 24 24" fill="none" xmlns="http://www.w3.org/2000/svg">
<rect x="1" y="1" width="22" height="22" rx="6.6" fill="url(#paint0_radial_6_46)"/>
<path d="M6.62153 5C6.2782 4.99982 5.99981 5.27873 6 5.62273V18.3765C5.99991 18.8496 6.50583 19.1499 6.91989 18.9225L18.5879 12.5456C19.0184 12.3095 19.0184 11.69 18.5879 11.4538L8.08636 5.71428L6.91989 5.07703C6.82848 5.02676 6.72586 5 6.62153 5Z" fill="#EDEEF8"/>
<path opacity="0.2" fill-rule="evenodd" clip-rule="evenodd" d="M2.99975 2.86737C2.4703 3.38211 2.02693 3.98491 1.69329 4.65214H2.99975V2.86737ZM1 7.6C1 6.96966 1.08836 6.35997 1.25338 5.78262H2.99975V8.04346H1V7.6ZM1 9.17393V11.4348H2.99975V9.17393H1ZM1 12.5652V14.8261H2.99975V12.5652H1ZM1 15.9565V16.4C1 17.0303 1.08836 17.64 1.25338 18.2174H2.99975V15.9565H1ZM2.99975 21.1326C2.4703 20.6179 2.02693 20.0151 1.69329 19.3479H2.99975V21.1326Z" fill="white"/>
<path opacity="0.2" fill-rule="evenodd" clip-rule="evenodd" d="M21.0002 2.86737C21.5297 3.38211 21.9731 3.98491 22.3067 4.65214H21.0002V2.86737ZM22.7466 5.78262H21.0002V8.04346H23V7.6C23 6.96966 22.9116 6.35997 22.7466 5.78262ZM23 9.17393H21.0002V11.4348H23V9.17393ZM23 12.5652H21.0002V14.8261H23V12.5652ZM23 15.9565H21.0002V18.2174H22.7466C22.9116 17.64 23 17.0303 23 16.4V15.9565ZM22.3067 19.3479H21.0002V21.1326C21.5297 20.6179 21.9731 20.0151 22.3067 19.3479Z" fill="white"/>
<defs>
<radialGradient id="paint0_radial_6_46" cx="0" cy="0" r="1" gradientUnits="userSpaceOnUse" gradientTransform="translate(17.5 1) rotate(116.565) scale(24.5967)">
<stop stop-color="#748290"/>
<stop offset="1" stop-color="#636F7B"/>
</radialGradient>
</defs>
</svg>
