<svg width="24" height="24" viewBox="0 0 24 24" fill="none" xmlns="http://www.w3.org/2000/svg">
<rect x="2" y="2" width="20" height="20" rx="6" fill="url(#paint0_radial_3_85)"/>
<path d="M7.5 15V18.2501C7.5 18.3886 7.6115 18.5001 7.75 18.5001H9.25C9.3885 18.5001 9.5 18.3886 9.5 18.2501V15H7.5ZM8 17H9V18H8V17Z" fill="#85613E"/>
<path d="M8.50089 2.00008V3.00008H9.50089V2.00008H8.50089ZM8.50089 3.00008H7.5009V4.00008H8.50089V3.00008ZM8.50089 4.00008V5.00008H9.50089V4.00008H8.50089ZM8.50089 5.00008H7.5009V6.00008H8.50089V5.00008ZM8.50089 6.00008V7.00008H9.50089V6.00008H8.50089ZM8.50089 7.00008H7.5009V8.00008H8.50089V7.00008ZM8.50089 8.00008V9.00008H9.50089V8.00008H8.50089ZM8.50089 9.00008H7.5009V10.0001H8.50089V9.00008ZM8.50089 10.0001V11.0001H9.50089V10.0001H8.50089ZM8.50089 11.0001H7.5009V12.0001H8.50089V11.0001ZM8.50089 12.0001V13.0001H9.50089V12.0001H8.50089ZM8.50089 13.0001H7.5009V14.0001H8.50089V13.0001ZM8.50089 14.0001V15.0001H9.50089V14.0001H8.50089Z" fill="#85613E"/>
<defs>
<radialGradient id="paint0_radial_3_85" cx="0" cy="0" r="1" gradientUnits="userSpaceOnUse" gradientTransform="translate(17 2) rotate(116.565) scale(22.3607)">
<stop stop-color="#DDB78F"/>
<stop offset="1" stop-color="#CB9153"/>
</radialGradient>
</defs>
</svg>
