<svg width="24" height="24" viewBox="0 0 24 24" fill="none" xmlns="http://www.w3.org/2000/svg">
<rect x="1" y="1" width="22" height="22" rx="6.6" fill="url(#paint0_radial_3_1284)"/>
<path d="M12.3167 5C9.87847 5.4342 7.43893 6.0103 5.00071 6.43655C5.00071 10.1455 4.99911 13.8561 5.00071 17.5667C7.42627 17.9914 9.85315 18.5578 12.2738 19H13.0002V5H12.3167ZM11.3736 9.53476L10.2503 14.25L9.3283 14.1773C9.11677 13.1244 8.87034 12.0779 8.68108 11.0202C8.49499 12.0476 8.25304 13.0655 8.03991 14.0866C7.73453 14.0707 7.42776 14.0516 7.1208 14.0309C6.85678 12.6313 6.54653 11.2412 6.30003 9.83839C6.57201 9.82573 6.84557 9.81462 7.11755 9.80507C7.28136 10.8182 7.46739 11.8266 7.61054 12.8412C7.83481 11.8011 8.06398 10.7609 8.28666 9.72079C8.58886 9.70321 8.89099 9.69057 9.19317 9.67466C9.4047 10.7482 9.62091 11.82 9.84994 12.8888C10.0297 11.785 10.2285 10.6846 10.421 9.58244C10.7391 9.57129 11.0571 9.55385 11.3736 9.53476Z" fill="white"/>
<path d="M13.5016 6.99997H18.5016V17H13.5016V16H17.5015V15.5H13.5016V14.5H17.5015V14H13.5016V13H17.5015V12.5H13.5016V11.5H17.5015V11H13.5016V10.0017H17.5015V9.50001H13.5016V8.5H17.5015V8H13.5016V6.99997Z" fill="white"/>
<defs>
<radialGradient id="paint0_radial_3_1284" cx="0" cy="0" r="1" gradientUnits="userSpaceOnUse" gradientTransform="translate(17.5 1) rotate(116.565) scale(24.5967)">
<stop stop-color="#6666B4"/>
<stop offset="1" stop-color="#101072"/>
</radialGradient>
</defs>
</svg>
