<svg width="24" height="24" viewBox="0 0 24 24" fill="none" xmlns="http://www.w3.org/2000/svg">
<rect x="1" y="1" width="22" height="22" rx="6.6" fill="url(#paint0_radial_3_1361)"/>
<path d="M5.08993 17.4633C5.08993 17.0321 5.23805 16.6698 5.53694 16.3788C5.67827 16.2345 5.84762 16.1207 6.03456 16.0443C6.22151 15.9679 6.42211 15.9305 6.62403 15.9344C7.04459 15.9344 7.39902 16.0826 7.68997 16.3788C7.98621 16.6698 8.13433 17.0321 8.13433 17.4633C8.13741 17.6631 8.09958 17.8615 8.02316 18.0461C7.94675 18.2308 7.83336 18.3979 7.68997 18.5371C7.55155 18.6789 7.38555 18.7907 7.20221 18.8658C7.01888 18.9408 6.8221 18.9775 6.62403 18.9736C6.42278 18.9778 6.22275 18.9413 6.03594 18.8663C5.84913 18.7913 5.6794 18.6793 5.53694 18.5371C5.39231 18.3987 5.27792 18.2318 5.20099 18.047C5.12405 17.8622 5.08624 17.6634 5.08993 17.4633ZM5.00265 10.5598V13.1043C8.25071 13.1043 10.8878 15.7466 10.8878 19H13.4376C13.4376 14.3395 9.65521 10.5624 5 10.5624L5.00265 10.5598ZM5.00529 5V7.81164C7.97009 7.81514 10.8122 8.99555 12.9072 11.0935C15.0021 13.1914 16.1785 16.0352 16.1778 19H18.9974C18.9967 15.2886 17.5225 11.7292 14.8989 9.10408C12.2752 6.47895 8.71673 5.0028 5.00529 5Z" fill="white"/>
<defs>
<radialGradient id="paint0_radial_3_1361" cx="0" cy="0" r="1" gradientUnits="userSpaceOnUse" gradientTransform="translate(17.5 1) rotate(116.565) scale(24.5967)">
<stop stop-color="#FDB67C"/>
<stop offset="1" stop-color="#E38131"/>
</radialGradient>
</defs>
</svg>
