<svg width="24" height="24" viewBox="0 0 24 24" fill="none" xmlns="http://www.w3.org/2000/svg">
<rect x="1" y="1" width="22" height="22" rx="6.6" fill="url(#paint0_radial_1_284)"/>
<path opacity="0.75" d="M20 12C20.0027 10.9487 19.7976 9.90716 19.3965 8.93533C18.9955 7.9635 18.4063 7.08051 17.6629 6.3371C16.9195 5.5937 16.0365 5.00453 15.0647 4.60345C14.0928 4.20238 13.0513 3.99731 12 4.00003C10.9487 3.99731 9.90716 4.20238 8.93533 4.60345C7.9635 5.00453 7.08051 5.5937 6.3371 6.3371C5.5937 7.08051 5.00453 7.9635 4.60345 8.93533C4.20238 9.90716 3.99731 10.9487 4.00003 12C3.99731 13.0513 4.20238 14.0928 4.60345 15.0647C5.00453 16.0365 5.5937 16.9195 6.3371 17.6629C7.08051 18.4063 7.9635 18.9955 8.93533 19.3965C9.90716 19.7976 10.9487 20.0027 12 20C13.0513 20.0027 14.0928 19.7976 15.0647 19.3965C16.0365 18.9955 16.9195 18.4063 17.6629 17.6629C18.4063 16.9195 18.9955 16.0365 19.3965 15.0647C19.7976 14.0928 20.0027 13.0513 20 12ZM14.9262 12C14.9262 13.6121 13.643 14.9277 12 14.9277C11.6149 14.9299 11.2331 14.8556 10.8768 14.7093C10.5206 14.5629 10.1969 14.3474 9.92446 14.0751C9.65205 13.8028 9.43634 13.4792 9.2898 13.123C9.14327 12.7669 9.06883 12.3851 9.07078 12C9.07078 10.3894 10.2581 9.07381 11.9985 9.07381C13.7389 9.07381 14.9262 10.4219 14.9262 12Z" fill="white"/>
<path opacity="0.35" d="M11.9992 7.99831C11.4737 7.99844 10.9534 8.10207 10.4679 8.30328C9.98248 8.5045 9.54141 8.79937 9.1699 9.17105C8.7984 9.54273 8.50374 9.98394 8.30275 10.4695C8.10176 10.955 7.99838 11.4754 7.9985 12.0009C7.99863 12.5265 8.10226 13.0468 8.30348 13.5323C8.5047 14.0177 8.79956 14.4588 9.17124 14.8303C9.54292 15.2018 9.98413 15.4964 10.4697 15.6974C10.9552 15.8984 11.4756 16.0018 12.0011 16.0017C13.0625 16.0014 14.0802 15.5796 14.8305 14.829C15.5808 14.0783 16.0021 13.0604 16.0019 11.9991C16.0016 10.9377 15.5798 9.92 14.8291 9.16971C14.0785 8.41943 13.0606 7.99806 11.9992 7.99831ZM11.9992 9.99774C12.2621 9.99786 12.5223 10.0498 12.765 10.1504C13.0078 10.2511 13.2284 10.3987 13.4141 10.5846C13.5999 10.7705 13.7472 10.9912 13.8476 11.2341C13.9481 11.4769 13.9997 11.7372 13.9996 12C13.9995 12.2628 13.9476 12.523 13.8469 12.7658C13.7462 13.0086 13.5987 13.2291 13.4128 13.4149C13.2269 13.6006 13.0062 13.7479 12.7633 13.8484C12.5204 13.9489 12.2602 14.0005 11.9974 14.0004C11.4666 14.0004 10.9575 13.7895 10.5822 13.4142C10.2069 13.0389 9.99604 12.5298 9.99604 11.9991C9.99604 11.4683 10.2069 10.9592 10.5822 10.5839C10.9575 10.2086 11.4666 9.99774 11.9974 9.99774H11.9992Z" fill="white"/>
<defs>
<radialGradient id="paint0_radial_1_284" cx="0" cy="0" r="1" gradientUnits="userSpaceOnUse" gradientTransform="translate(17.5 1) rotate(116.565) scale(24.5967)">
<stop stop-color="#9A9A9A"/>
<stop offset="1" stop-color="#5D5D5D"/>
</radialGradient>
</defs>
</svg>
