<?xml version="1.0" encoding="UTF-8" standalone="no"?>
<svg
   width="24"
   height="24"
   fill="none"
   version="1.1"
   id="svg2"
   sodipodi:docname="application-x-generic.svg"
   inkscape:version="1.3 (0e150ed6c4, 2023-07-21)"
   inkscape:export-filename="application-x-generic.pdf"
   inkscape:export-xdpi="96"
   inkscape:export-ydpi="96"
   xml:space="preserve"
   xmlns:inkscape="http://www.inkscape.org/namespaces/inkscape"
   xmlns:sodipodi="http://sodipodi.sourceforge.net/DTD/sodipodi-0.dtd"
   xmlns="http://www.w3.org/2000/svg"
   xmlns:svg="http://www.w3.org/2000/svg"><sodipodi:namedview
     id="namedview2"
     pagecolor="#ffffff"
     bordercolor="#000000"
     borderopacity="0.25"
     inkscape:showpageshadow="2"
     inkscape:pageopacity="0.0"
     inkscape:pagecheckerboard="0"
     inkscape:deskcolor="#d1d1d1"
     inkscape:zoom="19.541667"
     inkscape:cx="12.025586"
     inkscape:cy="12"
     inkscape:window-width="3440"
     inkscape:window-height="1358"
     inkscape:window-x="2560"
     inkscape:window-y="0"
     inkscape:window-maximized="1"
     inkscape:current-layer="svg2"><inkscape:page
       x="0"
       y="0"
       width="24"
       height="24"
       id="page1"
       margin="0"
       bleed="0" /></sodipodi:namedview><defs
     id="defs2"><radialGradient
       id="a"
       cx="0"
       cy="0"
       r="1"
       gradientTransform="matrix(-10.999959,21.999967,-21.999967,-10.999959,17.500201,1.0002699)"
       gradientUnits="userSpaceOnUse"><stop
         stop-color="#FAFAFA"
         id="stop1" /><stop
         offset="1"
         stop-color="#AAA"
         id="stop2" /></radialGradient><radialGradient
       id="a-3"
       cx="0"
       cy="0"
       r="1"
       gradientTransform="matrix(-10.999959,21.999967,-21.999967,-10.999959,48.500201,-3.9997301)"
       gradientUnits="userSpaceOnUse"><stop
         stop-color="#C49DE6"
         id="stop2-6" /><stop
         offset="1"
         stop-color="#945FC3"
         id="stop3" /></radialGradient><radialGradient
       fx="0"
       fy="0"
       cx="0"
       cy="0"
       r="1"
       gradientUnits="userSpaceOnUse"
       gradientTransform="matrix(-8.249969,16.499975,-16.499975,-8.249969,13.125151,0.750202)"
       spreadMethod="pad"
       id="radialGradient2"><stop
         style="stop-opacity:1;stop-color:#c49de6"
         offset="0"
         id="stop1-3" /><stop
         style="stop-opacity:1;stop-color:#945fc3"
         offset="1"
         id="stop2-67" /></radialGradient><radialGradient
       fx="0"
       fy="0"
       cx="0"
       cy="0"
       r="1"
       gradientUnits="userSpaceOnUse"
       gradientTransform="matrix(-10.999958,21.999966,-21.999966,-10.999958,51.500201,1.0002693)"
       spreadMethod="pad"
       id="radialGradient2-3"><stop
         style="stop-opacity:1;stop-color:#c49de6"
         offset="0"
         id="stop1-3-5" /><stop
         style="stop-opacity:1;stop-color:#945fc3"
         offset="1"
         id="stop2-67-6" /></radialGradient></defs><g
     id="g1"
     inkscape:groupmode="layer"
     inkscape:label="1"
     transform="translate(34)" /><g
     id="g2"
     transform="translate(-34)"><path
       id="path2-5"
       d="m 41.598666,0.99999997 h 8.802667 c 3.656,0 6.598666,2.94266663 6.598666,6.59866653 v 8.8026665 c 0,3.656 -2.942666,6.598666 -6.598666,6.598666 H 41.598666 C 37.942667,22.999999 35,20.057333 35,16.401333 V 7.5986665 c 0,-3.6559999 2.942667,-6.59866653 6.598666,-6.59866653 z"
       style="fill:url(#radialGradient2-3);stroke:none;stroke-width:1.33333" /><path
       id="path3"
       d="m 45,13.994666 v 3.250667 c 0,0.134667 0.109333,0.249333 0.250666,0.249333 h 1.498667 C 46.890666,17.494666 47,17.38 47,17.245333 v -3.250667 z m 0.5,2 h 1 v 1 h -1 z"
       style="fill:#fafafa;fill-opacity:1;fill-rule:nonzero;stroke:none;stroke-width:1.33333" /><path
       id="path4"
       d="M 46,0.99999997 V 2 h 1 V 0.99999997 Z M 46,2 h -1 v 0.9999999 h 1 z m 0,0.9999999 v 1 h 1 v -1 z m 0,1 h -1 v 1 h 1 z m 0,1 v 0.9999999 h 1 V 4.9999999 Z m 0,0.9999999 h -1 v 1 h 1 z m 0,1 v 0.9946667 h 1 v -1 h -1 z m 0,0.9946667 h -1 v 0.9999999 h 1 z m 0,0.9999999 v 1 h 1 v -1 z m 0,1 h -1 v 0.9999996 h 1 z m 0,0.9999996 v 1 h 1 v -1 z m 0,1 h -1 v 1 h 1 z m 0,1 v 1 h 1 v -1 z"
       style="fill:#fafafa;fill-opacity:1;fill-rule:nonzero;stroke:none;stroke-width:1.33333" /></g></svg>
