<svg width="24" height="24" viewBox="0 0 24 24" fill="none" xmlns="http://www.w3.org/2000/svg">
<rect x="1" y="1" width="22" height="22" rx="6.6" fill="url(#paint0_radial_1_202)"/>
<path opacity="0.9" d="M13.9091 5C13.5565 5 13.2727 5.28382 13.2727 5.63636V6.90909H5.63636C5.28382 6.90909 5 7.19291 5 7.54545V18.3636C5 18.7162 5.28382 19 5.63636 19H16.4545C16.8071 19 17.0909 18.7162 17.0909 18.3636V15.8182H18.3636C18.7162 15.8182 19 15.5344 19 15.1818V5.63636C19 5.28382 18.7162 5 18.3636 5H17.0909H13.9091ZM13.9091 5.63636H18.3636V15.1818H17.0909V7.54545C17.0909 7.19291 16.8071 6.90909 16.4545 6.90909C15.4644 6.52027 13.8703 6.28227 13.9091 5.63636ZM6.27273 8.81818H15.8182V11.3636H6.27273V8.81818ZM6.27273 12.6364H10.7273V13.2727H6.27273V12.6364ZM11.3636 12.6364H15.8182V13.2727H11.3636V12.6364ZM6.27273 14.5455H10.7273V15.1818H6.27273V14.5455ZM11.3636 14.5455H15.8182V15.1818H11.3636V14.5455ZM6.27273 16.4545H10.7273V17.0909H6.27273V16.4545ZM11.3636 16.4545H15.8182V17.0909H11.3636V16.4545Z" fill="white"/>
<defs>
<radialGradient id="paint0_radial_1_202" cx="0" cy="0" r="1" gradientUnits="userSpaceOnUse" gradientTransform="translate(17.5 1) rotate(116.565) scale(24.5967)">
<stop stop-color="#8FDD8F"/>
<stop offset="1" stop-color="#4FB84F"/>
</radialGradient>
</defs>
</svg>
