<svg width="24" height="24" viewBox="0 0 24 24" fill="none" xmlns="http://www.w3.org/2000/svg">
<rect x="1" y="1" width="22" height="22" rx="6.6" fill="url(#paint0_radial_3_1037)"/>
<path opacity="0.2" d="M11.0976 5V6.36585H12.4634V5H11.0976ZM12.4634 6.36585V7.73171H13.8293V6.36585H12.4634ZM12.4634 7.73171H11.0976V9.09756H12.4634V7.73171ZM11.0976 7.73171V6.36585H9.7317V7.73171H11.0976ZM11.0976 13.1845V13.1951H12.4634V13.1845H11.0976Z" fill="#99E159"/>
<path opacity="0.6" d="M9.7317 7.73171V9.09756H11.0976V7.73171H9.7317ZM11.0976 9.09756V10.4634H13.8293V7.73171H12.4634V9.09756H11.0976ZM11.0976 10.4634H9.7317V11.8293H11.0976V10.4634Z" fill="#99E159"/>
<path d="M11.0976 10.4634V11.8293H12.4634V10.4634H11.0976ZM12.4634 11.8293V13.1951H11.0976V11.8293H9.73171V13.0961H7L11.7805 19L16.561 13.0961L13.8293 13.0971V11.8293H12.4634Z" fill="#99E159"/>
<defs>
<radialGradient id="paint0_radial_3_1037" cx="0" cy="0" r="1" gradientUnits="userSpaceOnUse" gradientTransform="translate(17.5 1) rotate(116.565) scale(24.5967)">
<stop stop-color="#F4F4F4"/>
<stop offset="1" stop-color="#BBBBBB"/>
</radialGradient>
</defs>
</svg>
