<svg width="24" height="24" viewBox="0 0 24 24" fill="none" xmlns="http://www.w3.org/2000/svg">
<rect x="1" y="1" width="22" height="22" rx="6.6" fill="url(#paint0_radial_3_1258)"/>
<path fill-rule="evenodd" clip-rule="evenodd" d="M14.4384 5L10.708 5.00882C11.1137 5.26457 11.6517 5.84 12.097 6.49921C12.5909 7.23339 12.9855 8.08 13.2831 8.81858L12.2293 9.42709L15.5871 9.42047L17.1546 6.48378L16.3191 7.03937L15.7899 6.03842C15.435 5.47402 15.1087 5.06173 14.4384 5ZM9.08094 5.26016L7.45386 7.65449L10.32 9.56157L11.8567 6.67779C11.4312 6.05386 10.8072 5.1411 9.81953 5.11905H9.78425C9.54297 5.12091 9.30427 5.1688 9.08094 5.26016ZM14.8044 11.0365L16.1405 13.9137L17.2891 13.9225C17.9439 13.9291 18.9868 12.9965 19 12.291V12.2403L17.6926 9.19339L14.8044 11.0365ZM5 10.0797L5.99874 10.622L5.66362 11.3276C4.5789 13.6293 5.95024 14.7515 7.57291 16.9915C7.35084 16.4376 7.34612 15.8202 7.55968 15.263L8.99937 12.2006L9.90331 12.668L8.11748 9.90992L5 10.0797ZM12.7077 16.1228L14.2444 19L14.2532 17.8139H15.005C17.4369 17.8139 17.7742 16.0192 18.9449 13.4838C18.7681 13.7058 18.5479 13.8893 18.2977 14.0231C18.0474 14.1569 17.7725 14.2383 17.4898 14.262L14.2532 14.2709L14.2444 13.2104L12.7077 16.1228ZM8.47024 14.2709L7.94772 15.3446C7.63905 15.9773 7.99181 17.4413 8.60913 17.7191H11.7972L11.8192 14.1584L8.47024 14.2709Z" fill="#8A92A2"/>
<defs>
<radialGradient id="paint0_radial_3_1258" cx="0" cy="0" r="1" gradientUnits="userSpaceOnUse" gradientTransform="translate(17.5 1) rotate(116.565) scale(24.5967)">
<stop stop-color="#F4F4F4"/>
<stop offset="1" stop-color="#BBBBBB"/>
</radialGradient>
</defs>
</svg>
