<svg width="24" height="24" viewBox="0 0 24 24" fill="none" xmlns="http://www.w3.org/2000/svg">
<rect x="1" y="1" width="22" height="22" rx="6.6" fill="url(#paint0_radial_21_331)"/>
<path opacity="0.5" d="M8.72727 4C8.67948 3.99987 8.63214 4.00919 8.58796 4.02742C8.54379 4.04565 8.50365 4.07243 8.46986 4.10622C8.43607 4.14002 8.40928 4.18015 8.39106 4.22433C8.37283 4.2685 8.36351 4.31585 8.36364 4.36364V10.9091C8.36364 11.1103 8.52606 11.2727 8.72727 11.2727H14.7879C14.9896 11.2727 15.1515 11.1103 15.1515 10.9091V4.36364C15.1516 4.31585 15.1423 4.2685 15.1241 4.22433C15.1059 4.18015 15.0791 4.14002 15.0453 4.10622C15.0115 4.07243 14.9714 4.04565 14.9272 4.02742C14.883 4.00919 14.8357 3.99987 14.7879 4H8.72727ZM8.84848 4.48485H9.33333V4.9697H8.84848V4.48485ZM10.0606 4.48485H13.4545C13.5888 4.48485 13.697 4.59297 13.697 4.72727V7.15152C13.697 7.28582 13.5888 7.39394 13.4545 7.39394H10.0606C10.0288 7.394 9.9972 7.38778 9.96776 7.37562C9.93832 7.36346 9.91157 7.3456 9.88904 7.32308C9.86652 7.30055 9.84867 7.2738 9.8365 7.24436C9.82434 7.21492 9.81812 7.18337 9.81818 7.15152V4.72727C9.81818 4.59297 9.9263 4.48485 10.0606 4.48485ZM14.1818 4.48485H14.6667V4.9697H14.1818V4.48485ZM8.84848 5.45455H9.33333V5.9394H8.84848V5.45455ZM14.1818 5.45455H14.6667V5.9394H14.1818V5.45455ZM8.84848 6.42424H9.33333V6.90909H8.84848V6.42424ZM14.1818 6.42424H14.6667V6.90909H14.1818V6.42424ZM8.84848 7.39394H9.33333V7.87879H8.84848V7.39394ZM14.1818 7.39394H14.6667V7.87879H14.1818V7.39394ZM10.0606 7.87879H13.4545C13.5888 7.87879 13.697 7.98691 13.697 8.12121V10.5455C13.697 10.6798 13.5888 10.7879 13.4545 10.7879H10.0606C10.0288 10.7879 9.9972 10.7817 9.96776 10.7696C9.93832 10.7574 9.91157 10.7395 9.88904 10.717C9.86652 10.6945 9.84867 10.6677 9.8365 10.6383C9.82434 10.6089 9.81812 10.5773 9.81818 10.5455V8.12121C9.81818 7.98691 9.9263 7.87879 10.0606 7.87879ZM8.84848 8.36364H9.33333V8.84849H8.84848V8.36364ZM14.1818 8.36364H14.6667V8.84849H14.1818V8.36364ZM8.84848 9.33333H9.33333V9.81818H8.84848V9.33333ZM14.1818 9.33333H14.6667V9.81818H14.1818V9.33333ZM8.84848 10.303H9.33333V10.7879H8.84848V10.303ZM14.1818 10.303H14.6667V10.7879H14.1818V10.303ZM4.72727 18.5455C4.53439 18.5455 4.3494 18.6221 4.21301 18.7585C4.07662 18.8949 4 19.0798 4 19.2727C4 19.4656 4.07662 19.6506 4.21301 19.787C4.3494 19.9234 4.53439 20 4.72727 20C4.92016 20 5.10514 19.9234 5.24153 19.787C5.37792 19.6506 5.45455 19.4656 5.45455 19.2727C5.45455 19.0798 5.37792 18.8949 5.24153 18.7585C5.10514 18.6221 4.92016 18.5455 4.72727 18.5455ZM7.15151 18.5455C6.95863 18.5455 6.77365 18.6221 6.63726 18.7585C6.50087 18.8949 6.42424 19.0798 6.42424 19.2727C6.42424 19.4656 6.50087 19.6506 6.63726 19.787C6.77365 19.9234 6.95863 20 7.15151 20C7.3444 20 7.52938 19.9234 7.66577 19.787C7.80216 19.6506 7.87879 19.4656 7.87879 19.2727C7.87879 19.0798 7.80216 18.8949 7.66577 18.7585C7.52938 18.6221 7.3444 18.5455 7.15151 18.5455ZM9.57576 18.5455C9.38287 18.5455 9.19789 18.6221 9.0615 18.7585C8.92511 18.8949 8.84848 19.0798 8.84848 19.2727C8.84848 19.4656 8.92511 19.6506 9.0615 19.787C9.19789 19.9234 9.38287 20 9.57576 20C9.76864 20 9.95363 19.9234 10.09 19.787C10.2264 19.6506 10.303 19.4656 10.303 19.2727C10.303 19.0798 10.2264 18.8949 10.09 18.7585C9.95363 18.6221 9.76864 18.5455 9.57576 18.5455ZM12 18.5455C11.8071 18.5455 11.6221 18.6221 11.4857 18.7585C11.3494 18.8949 11.2727 19.0798 11.2727 19.2727C11.2727 19.4656 11.3494 19.6506 11.4857 19.787C11.6221 19.9234 11.8071 20 12 20C12.1929 20 12.3779 19.9234 12.5143 19.787C12.6506 19.6506 12.7273 19.4656 12.7273 19.2727C12.7273 19.0798 12.6506 18.8949 12.5143 18.7585C12.3779 18.6221 12.1929 18.5455 12 18.5455ZM14.4242 18.5455C14.2314 18.5455 14.0464 18.6221 13.91 18.7585C13.7736 18.8949 13.697 19.0798 13.697 19.2727C13.697 19.4656 13.7736 19.6506 13.91 19.787C14.0464 19.9234 14.2314 20 14.4242 20C14.6171 20 14.8021 19.9234 14.9385 19.787C15.0749 19.6506 15.1515 19.4656 15.1515 19.2727C15.1515 19.0798 15.0749 18.8949 14.9385 18.7585C14.8021 18.6221 14.6171 18.5455 14.4242 18.5455ZM16.8485 18.5455C16.6556 18.5455 16.4706 18.6221 16.3342 18.7585C16.1978 18.8949 16.1212 19.0798 16.1212 19.2727C16.1212 19.4656 16.1978 19.6506 16.3342 19.787C16.4706 19.9234 16.6556 20 16.8485 20C17.0414 20 17.2264 19.9234 17.3627 19.787C17.4991 19.6506 17.5758 19.4656 17.5758 19.2727C17.5758 19.0798 17.4991 18.8949 17.3627 18.7585C17.2264 18.6221 17.0414 18.5455 16.8485 18.5455ZM19.2727 18.5455C19.0798 18.5455 18.8949 18.6221 18.7585 18.7585C18.6221 18.8949 18.5455 19.0798 18.5455 19.2727C18.5455 19.4656 18.6221 19.6506 18.7585 19.787C18.8949 19.9234 19.0798 20 19.2727 20C19.4656 20 19.6506 19.9234 19.787 19.787C19.9234 19.6506 20 19.4656 20 19.2727C20 19.0798 19.9234 18.8949 19.787 18.7585C19.6506 18.6221 19.4656 18.5455 19.2727 18.5455Z" fill="#7E8087"/>
<defs>
<radialGradient id="paint0_radial_21_331" cx="0" cy="0" r="1" gradientUnits="userSpaceOnUse" gradientTransform="translate(17.5 1) rotate(116.565) scale(24.5967)">
<stop stop-color="#F4F4F4"/>
<stop offset="1" stop-color="#BBBBBB"/>
</radialGradient>
</defs>
</svg>
