<svg width="24" height="24" viewBox="0 0 24 24" fill="none" xmlns="http://www.w3.org/2000/svg">
<rect x="1" y="1" width="22" height="22" rx="6.6" fill="url(#paint0_radial_3_1054)"/>
<path opacity="0.75" d="M14.4051 5.00255C11.8678 5.00255 9.81149 7.05888 9.81149 9.59362C9.81149 10.2829 9.96756 10.9333 10.2396 11.5174L9.45347 12.4481L9.38531 13.3202C9.37831 13.3266 8.52914 13.3515 8.52914 13.3515L8.09214 13.6674C8.09214 13.6674 8.09596 14.6198 8.09214 14.607L8.09087 14.6083L7.15635 14.623L6.76075 15.0746L6.75183 15.9282C6.75183 15.9282 5.94535 15.8754 5.86318 15.9505C5.34718 16.4258 5 16.764 5 16.764L5.00382 18.9974C5.00382 18.9974 5.30259 18.9962 5.4421 18.9962L11.3907 13.0489C11.706 13.3234 12.0589 13.5547 12.4405 13.7356L12.4418 13.7343C13.038 14.0172 13.7025 14.1809 14.4064 14.1809C16.9437 14.1809 19 12.1252 19 9.5898C19 7.05506 16.9437 4.99936 14.4051 5M15.2823 7.18756C16.1276 7.18756 16.8124 7.87364 16.8124 8.71898C16.8124 9.56432 16.1276 10.2491 15.2823 10.2491C14.4363 10.2491 13.7509 9.56432 13.7509 8.71898C13.7509 7.87364 14.4363 7.18756 15.2823 7.18756Z" fill="white"/>
<path opacity="0.5" d="M15.2817 7.19074C14.4357 7.19074 13.7502 7.87683 13.7502 8.72216C13.7502 9.5675 14.4357 10.2523 15.2817 10.2523C16.127 10.2523 16.8118 9.5675 16.8118 8.72216C16.8118 7.87683 16.127 7.19074 15.2817 7.19074ZM15.2817 8.06539C15.6441 8.06539 15.9372 8.35969 15.9372 8.72216C15.9372 9.08463 15.6435 9.37767 15.2817 9.37767C14.9192 9.37767 14.6249 9.084 14.6249 8.72216C14.6249 8.35969 14.9198 8.06539 15.2817 8.06539ZM11.39 13.0521L5.43892 19.0019H7.62648L12.8208 13.8993C12.2908 13.7037 11.8079 13.4171 11.39 13.0533" fill="white"/>
<defs>
<radialGradient id="paint0_radial_3_1054" cx="0" cy="0" r="1" gradientUnits="userSpaceOnUse" gradientTransform="translate(17.5 1) rotate(116.565) scale(24.5967)">
<stop stop-color="#8EE88E"/>
<stop offset="1" stop-color="#49C649"/>
</radialGradient>
</defs>
</svg>
