<svg width="24" height="24" viewBox="0 0 24 24" fill="none" xmlns="http://www.w3.org/2000/svg">
<rect x="1" y="1" width="22" height="22" rx="6.6" fill="url(#paint0_radial_3_1372)"/>
<path d="M11.9471 5.00005C10.0998 5.01401 8.33284 5.75767 7.03151 7.06892C5.73018 8.38016 4.99995 10.1527 5 12.0001C5 13.8566 5.7375 15.637 7.05025 16.9498C8.36301 18.2626 10.1435 19 12 19C13.8565 19 15.637 18.2626 16.9497 16.9498C18.2625 15.637 19 13.8566 19 12.0001C19 10.1435 18.2625 8.36306 16.9497 7.0503C15.637 5.73755 13.8565 5.00005 12 5.00005C11.9824 4.99998 11.9647 4.99998 11.9471 5.00005ZM11.9954 7.80009C11.9969 7.80008 11.9984 7.80008 11.9999 7.80009C13.1138 7.80009 14.1821 8.24258 14.9698 9.03023C15.7574 9.81787 16.1999 10.8862 16.1999 12.0001C16.1999 13.114 15.7574 14.1822 14.9698 14.9699C14.1821 15.7575 13.1138 16.2 11.9999 16.2C10.886 16.2 9.81777 15.7575 9.03012 14.9699C8.24247 14.1822 7.79998 13.114 7.79998 12.0001C7.79998 10.8869 8.24184 9.81936 9.0285 9.03185C9.81515 8.24433 10.8823 7.8013 11.9954 7.80009Z" fill="#FF6E65"/>
<path d="M5.64238 9.09772C5.2221 10.0074 5.00311 10.9971 5.00036 11.9992C5.00036 13.0345 5.23671 14.017 5.64238 14.9024L8.0923 13.5019C7.90333 13.0232 7.80408 12.5138 7.79951 11.9992C7.79951 11.47 7.91239 10.9638 8.0923 10.4982M18.3594 9.09772L15.9077 10.4982C16.0876 10.9638 16.2005 11.4683 16.2005 11.9992C16.2005 12.5301 16.0876 13.0345 15.9095 13.5019L18.3594 14.9024C18.7633 14.017 18.9997 13.0345 18.9997 11.9992C18.9997 10.9638 18.7633 9.98138 18.3594 9.09772ZM10.4981 15.9095L9.09767 18.3577C9.9831 18.7633 10.9655 18.9997 12.0009 18.9997C13.0362 18.9997 14.0187 18.7633 14.9023 18.3577L13.5019 15.9078C13.0362 16.0877 12.5318 16.2005 12.0009 16.2005C11.47 16.2005 10.9655 16.0894 10.4981 15.9095ZM12.0009 5.0004C10.9655 5.0004 9.9831 5.23675 9.09767 5.64066L10.4981 8.09235C10.9655 7.91244 11.4682 7.79956 12.0009 7.79956C12.53 7.79956 13.0362 7.91244 13.5019 8.09058L14.9023 5.64066C13.9925 5.22099 13.0028 5.0026 12.0009 5.0004Z" fill="white"/>
<defs>
<radialGradient id="paint0_radial_3_1372" cx="0" cy="0" r="1" gradientUnits="userSpaceOnUse" gradientTransform="translate(17.5 1) rotate(116.565) scale(24.5967)">
<stop stop-color="#82C6E5"/>
<stop offset="1" stop-color="#3997C2"/>
</radialGradient>
</defs>
</svg>
