<svg width="24" height="24" viewBox="0 0 24 24" fill="none" xmlns="http://www.w3.org/2000/svg">
<rect x="1" y="1" width="22" height="22" rx="6.6" fill="url(#paint0_radial_21_97)"/>
<path opacity="0.75" d="M4.72727 4C4.32436 4 4 4.32436 4 4.72727V19.2727C4 19.6756 4.32436 20 4.72727 20H19.2727C19.6756 20 20 19.6756 20 19.2727V4.72727C20 4.32436 19.6756 4 19.2727 4H4.72727ZM4.72727 4.72727H19.2727V19.2727H4.72727V4.72727ZM16 5.81818L14.1818 7.63636H9.78182C9.69801 7.22578 9.47495 6.85676 9.15037 6.59171C8.82579 6.32666 8.41963 6.18187 8.00058 6.18182C7.51837 6.18182 7.05591 6.37338 6.71493 6.71435C6.37396 7.05533 6.1824 7.51779 6.1824 8C6.1831 8.41856 6.32819 8.82406 6.59319 9.14805C6.85818 9.47205 7.22684 9.69469 7.63694 9.7784V16.3602H10.546V17.8148H14.1824V16.3602H16.3642V9.81476L18.1824 7.99658L16 5.81818ZM16 6.69018L17.3098 8L16 9.30982L14.9091 8.21891V7.78109L16 6.69018ZM8 6.90893C8.28933 6.90893 8.5668 7.02387 8.77139 7.22845C8.97597 7.43304 9.09091 7.71051 9.09091 7.99984C9.09091 8.28917 8.97597 8.56664 8.77139 8.77123C8.5668 8.97581 8.28933 9.09075 8 9.09075C7.71067 9.09075 7.4332 8.97581 7.22861 8.77123C7.02403 8.56664 6.90909 8.28917 6.90909 7.99984C6.90909 7.71051 7.02403 7.43304 7.22861 7.22845C7.4332 7.02387 7.71067 6.90893 8 6.90893ZM9.77818 8.36348H14.1782L15.6327 9.81802V15.6362H14.1782V14.1817H10.5418V15.6362H8.36V9.78166C8.70871 9.70984 9.02866 9.53722 9.28016 9.28521C9.53166 9.03321 9.70364 8.71291 9.77476 8.36406M11.2693 14.9095H13.4511V17.0913H11.2693V14.9095Z" fill="white"/>
<defs>
<radialGradient id="paint0_radial_21_97" cx="0" cy="0" r="1" gradientUnits="userSpaceOnUse" gradientTransform="translate(17.5 1) rotate(116.565) scale(24.5967)">
<stop stop-color="#8192C4"/>
<stop offset="1" stop-color="#374F95"/>
</radialGradient>
</defs>
</svg>
