<svg width="24" height="24" viewBox="0 0 24 24" fill="none" xmlns="http://www.w3.org/2000/svg">
<rect x="1" y="1" width="22" height="22" rx="6.6" fill="url(#paint0_radial_21_79)"/>
<path opacity="0.75" d="M12 4C7.568 4 4 7.568 4 12C4 16.432 7.568 20 12 20C16.432 20 20 16.432 20 12C20 7.568 16.432 4 12 4ZM12 4.72727C13.2087 4.72727 14.3433 5.024 15.344 5.54109C15.3469 5.57018 15.3462 5.59127 15.344 5.62327C15.3862 5.64218 15.4109 5.72073 15.4815 5.76C15.5076 5.77455 15.5251 5.78109 15.5498 5.79418C15.592 5.81745 15.6269 5.856 15.6182 5.89673C15.6065 5.95636 15.5222 5.95418 15.4815 5.99782C15.4873 6.08218 15.4349 6.07855 15.4131 6.13527C15.4262 6.17164 15.4756 6.16 15.4815 6.20364C15.4742 6.25018 15.3956 6.25673 15.4131 6.30473C15.4916 6.36582 15.5775 6.31491 15.6516 6.30473C15.8145 6.28436 15.9593 6.31491 16.0596 6.23636C16.0465 6.15927 16.1709 6.136 16.1622 6.06618C16.1549 6.01382 16.0647 6.00145 16.0255 5.96509C16.0167 5.95709 16.0051 5.93673 15.9956 5.92073C16.1156 5.99927 16.2298 6.08509 16.3447 6.17091C16.3164 6.19418 16.2931 6.22327 16.264 6.23636C16.2335 6.24946 16.1891 6.25309 16.1615 6.27055C16.1207 6.29818 16.1055 6.34109 16.0589 6.37164C16.0255 6.39491 15.9236 6.47418 15.8887 6.47418C15.8465 6.47418 15.7833 6.43127 15.752 6.44145C15.7084 6.45455 15.7331 6.52509 15.6836 6.54255C15.5876 6.57745 15.4102 6.46691 15.3767 6.61091C15.4175 6.69382 15.5425 6.66836 15.6153 6.71346C15.6604 6.74255 15.7404 6.86836 15.752 6.91782C15.7636 6.95854 15.7695 7.11273 15.752 7.15636C15.7069 7.27273 15.5789 7.26182 15.4451 7.25891C15.4087 7.25891 15.376 7.26182 15.3425 7.25891C15.1171 7.24436 14.9004 7.16582 14.7985 7.32727C14.8058 7.45091 14.8262 7.52655 14.7985 7.63418C14.7782 7.71273 14.6916 7.77018 14.696 7.83855C14.6975 7.87345 14.7556 7.92727 14.7644 7.97527C14.7702 8.00145 14.7527 8.05455 14.7644 8.07782C14.8022 8.14909 14.9018 8.06618 14.9687 8.07782C15.0327 8.088 15.1062 8.17673 15.1062 8.248C15.1062 8.29891 15.0684 8.40291 15.0364 8.45236C14.9724 8.54836 14.8553 8.53673 14.7636 8.58909C14.688 8.63273 14.672 8.71927 14.6269 8.79491C14.5789 8.87636 14.5396 8.91709 14.5585 9.03345C14.4931 9.16291 14.4196 9.24364 14.2844 9.30618C14.2451 9.32364 14.184 9.34836 14.1476 9.37455C14.1185 9.39491 14.0858 9.43055 14.0451 9.47709C13.9942 9.53382 13.936 9.57018 13.9084 9.61382C13.888 9.64727 13.896 9.70545 13.8742 9.75055C13.8422 9.81164 13.7782 9.85964 13.7375 9.92073C13.7185 9.94982 13.6895 9.98545 13.6691 10.0233C13.6225 10.1076 13.5578 10.1876 13.5665 10.2618C13.5738 10.3331 13.6647 10.336 13.6691 10.3985C13.6735 10.4335 13.6335 10.4618 13.6349 10.4996C13.6364 10.5549 13.6647 10.5935 13.6691 10.6371C13.6793 10.7447 13.6211 10.7673 13.6007 10.8415C13.5905 10.8764 13.6095 10.9164 13.6007 10.944C13.5833 10.9978 13.4996 11.0487 13.4982 11.1127C13.4967 11.1578 13.5622 11.1862 13.5665 11.2502C13.5695 11.2938 13.5251 11.3462 13.5338 11.3869C13.5498 11.4655 13.7113 11.5644 13.7724 11.6255C13.8553 11.7084 13.9404 11.7767 13.9767 11.864C14.0073 11.9382 14.0225 12.0473 14.0793 12.1025C14.1215 12.1433 14.1956 12.1615 14.2495 12.2036C14.3004 12.2429 14.3644 12.264 14.4182 12.3062C14.5069 12.376 14.6182 12.5207 14.7593 12.5105C14.8335 12.5047 14.9149 12.4567 14.9978 12.4422C15.0836 12.4276 15.1833 12.4007 15.2705 12.4095C15.3375 12.4167 15.4065 12.4465 15.4764 12.4422C15.5491 12.4378 15.632 12.4102 15.7149 12.3738C15.8589 12.3113 16.0836 12.2073 16.2931 12.2371C16.4531 12.2604 16.4553 12.4385 16.5673 12.5098C16.6953 12.5215 16.8051 12.4851 16.9069 12.5098C16.984 12.5287 17.0698 12.6545 17.0771 12.7156C17.0844 12.7782 17.0175 12.8451 17.0087 12.8844C16.9884 12.9687 16.9891 13.0691 16.9745 13.1229C16.9629 13.1651 16.9404 13.2175 16.9418 13.2596C16.9418 13.2975 17.0051 13.3804 17.0444 13.4298C17.0924 13.4909 17.1549 13.5331 17.2131 13.6C17.3193 13.7222 17.3775 13.8815 17.4516 14.0429C17.4705 14.0836 17.4342 14.0945 17.4516 14.1455C17.4196 14.3898 17.3389 14.5571 17.1789 14.8276C17.1033 14.9149 17.0073 15.0255 17.0087 15.1345C17.0029 15.3964 17.1564 15.528 17.1455 15.7811C17.1193 16.1215 17.1389 16.1789 17.1127 16.3607C17.2276 16.4189 17.1789 16.5796 17.1455 16.7004C17.096 16.8444 17.0364 16.8785 17.0087 16.9745C17.0989 17.0138 17.1978 17.0044 17.2982 16.9789C15.9731 18.3913 14.0924 19.2756 11.9942 19.2756C11.1011 19.2756 10.2502 19.1084 9.46182 18.8167C9.43273 18.8051 9.40073 18.7985 9.37236 18.7825C9.32727 18.7564 9.29818 18.7011 9.304 18.6458C9.37964 18.6138 9.52291 18.7178 9.57818 18.6116C9.60582 18.5607 9.54182 18.4582 9.57818 18.4073C9.60436 18.3724 9.76291 18.3476 9.81673 18.3389C9.89382 18.3258 9.97745 18.3324 10.0211 18.3047C10.0691 18.2742 10.1324 18.1905 10.1236 18.1004C10.1193 18.0582 10.0887 18.0356 10.0553 17.9978C10.0276 17.9658 10.04 17.9258 10.0211 17.8967C9.98618 17.8458 9.93309 17.8342 9.91855 17.76C10.0233 17.7396 10.1767 17.8705 10.328 17.8284C10.3993 17.808 10.4989 17.6567 10.5324 17.5898C10.5425 17.5695 10.5207 17.512 10.5324 17.4873C10.5455 17.4596 10.5978 17.4335 10.6022 17.4189C10.6124 17.3796 10.5935 17.3753 10.6022 17.3505C10.6284 17.2764 10.6953 17.2342 10.7389 17.1804C10.7724 17.1396 10.8109 17.0858 10.8415 17.0436C10.8764 16.9985 10.8865 16.9804 10.9098 16.9411C10.9316 16.8087 10.8436 16.7178 10.8756 16.6015C10.9105 16.4705 11.0902 16.3869 11.2167 16.3273C11.2604 16.3069 11.3171 16.272 11.3535 16.2589C11.4407 16.2284 11.5447 16.2196 11.6262 16.1905C11.7629 16.1411 11.7978 16.0087 11.8647 15.8836C11.8967 15.8255 11.9287 15.7556 11.9345 15.7135C11.9404 15.6756 11.9273 15.656 11.9345 15.6124C11.9418 15.5687 11.9556 15.5229 11.9673 15.4749C11.9833 15.4124 12.0015 15.3076 12.0015 15.2378C12.0015 15.1796 11.9687 15.1527 11.9673 15.1004C11.9571 14.9113 12.0342 14.8967 12.104 14.7935C12.1389 14.7425 12.1476 14.6611 12.1724 14.6247C12.2902 14.4502 12.4938 14.3767 12.4793 14.112C12.4735 14.0247 12.4422 13.8327 12.3782 13.8051C12.3418 13.7891 12.2618 13.7927 12.208 13.7724C12.0364 13.7084 11.9098 13.5127 11.7309 13.4982C11.6931 13.4967 11.6705 13.4996 11.6284 13.4982C11.5585 13.4967 11.4698 13.4385 11.3913 13.4298C11.3418 13.424 11.2502 13.4444 11.2211 13.4298C11.176 13.408 11.1891 13.3178 11.1527 13.2931C11.1236 13.2727 11.0604 13.2749 11.0153 13.2589C10.944 13.2313 10.8938 13.1964 10.8109 13.1905C10.7847 13.1891 10.7375 13.1949 10.7084 13.1905C10.6633 13.1833 10.6138 13.1484 10.5716 13.1222C10.5193 13.0902 10.4909 13.0662 10.4691 13.0211C10.5171 12.864 10.3651 12.8385 10.3324 12.7469C10.3178 12.7047 10.3469 12.648 10.3324 12.6102C10.3135 12.5564 10.2553 12.5185 10.1956 12.4735C10.0909 12.392 10.0044 12.3222 9.85455 12.3033C9.78764 12.296 9.696 12.3091 9.616 12.3033C9.53164 12.2975 9.44145 12.24 9.37745 12.1665C9.31636 12.0953 9.29455 12.0298 9.24073 11.9964C9.18982 11.9644 9.10545 11.9615 9.07055 11.928C9.05455 11.9135 9.05236 11.8931 9.03782 11.8596C9.01164 11.8073 8.97164 11.7862 9.00364 11.7222C8.94545 11.6931 8.96509 11.768 8.90255 11.7564C8.84582 11.6764 8.792 11.6291 8.664 11.6538C8.60582 11.6655 8.56218 11.7549 8.49382 11.7564C8.43709 11.7578 8.39782 11.664 8.32364 11.6538C8.26691 11.6465 8.19273 11.6967 8.15345 11.688C8.09091 11.6764 8.07346 11.6233 8.01673 11.5855C7.97455 11.5578 7.904 11.4829 7.88 11.4844C7.80727 11.4858 7.74182 11.6393 7.64145 11.5855C7.592 11.5229 7.73236 11.5069 7.67418 11.4487C7.63055 11.4051 7.608 11.4596 7.57309 11.4829C7.53236 11.5105 7.48145 11.5353 7.43636 11.5513C7.336 11.5891 7.27636 11.5789 7.19782 11.6196C7.12509 11.6575 7.10255 11.7156 7.06036 11.7898C7.02691 11.8509 6.97455 11.9556 6.92364 11.9585C6.86255 11.9629 6.80873 11.8807 6.75345 11.8575C6.58618 11.7847 6.48364 11.8887 6.34545 11.8902C6.21745 11.8916 6.03273 11.704 6.03855 11.5833C6.04291 11.5091 6.09818 11.4022 6.10691 11.3105C6.11418 11.2378 6.17382 11.1716 6.17527 11.1047C6.17673 11.016 6.02764 10.9462 5.96945 10.936C5.83273 10.9113 5.64946 10.9971 5.49382 10.936C5.46473 10.8865 5.54473 10.8465 5.56218 10.7985C5.57236 10.7709 5.552 10.7607 5.56218 10.7302C5.57964 10.6836 5.64146 10.6429 5.66327 10.5935C5.67927 10.5556 5.68145 10.5033 5.69745 10.4567C5.71636 10.4044 5.76145 10.3578 5.76582 10.32C5.77164 10.2705 5.73673 10.2145 5.69745 10.1825C5.57673 10.1898 5.49309 10.1847 5.42327 10.2167C5.26618 10.288 5.30909 10.5084 5.15055 10.5578C5.09673 10.5753 5.00727 10.5804 4.94618 10.5905C4.91927 10.5956 4.88945 10.6 4.85964 10.6073C4.96145 10.0793 5.11855 9.57164 5.32727 9.09164C5.36218 9.09164 5.39855 9.08727 5.42255 9.09164C5.47782 9.10182 5.512 9.15564 5.56 9.16C5.69382 9.17018 5.72218 9.048 5.83273 8.98982C5.94618 9.00582 6.00364 8.97818 6.10691 8.98982C6.17673 8.99709 6.256 9.088 6.31127 9.09236C6.35782 9.09382 6.37018 9.05091 6.41382 9.05818C6.45745 9.06545 6.54255 9.14255 6.55055 9.19491C6.55782 9.26036 6.49745 9.328 6.51636 9.40073C6.58473 9.47055 6.72582 9.49673 6.82327 9.53745C6.88727 9.48509 6.83345 9.37455 6.82327 9.29891C6.82182 9.26545 6.82764 9.22691 6.82327 9.19636C6.816 9.144 6.79055 9.10473 6.79055 9.05964C6.79055 8.85164 6.95782 8.76582 7.09746 8.68436C7.15709 8.64945 7.21527 8.57382 7.26764 8.54764C7.34182 8.51127 7.37673 8.51418 7.43782 8.47927C7.54836 8.41673 7.65891 8.34473 7.74473 8.27345C7.784 8.17891 7.74036 8.05964 7.74473 7.96655C7.784 7.94182 7.80364 7.97091 7.84582 7.96655C7.91273 7.952 7.94545 7.86764 7.98327 7.82982C8.00509 7.808 8.05818 7.78327 8.08436 7.76146C8.15127 7.70909 8.16291 7.648 8.22109 7.62473C8.24146 7.61745 8.29164 7.59927 8.32364 7.59055C8.36727 7.57891 8.424 7.54691 8.49382 7.52218C8.53891 7.50618 8.64655 7.50691 8.664 7.48945C8.68582 7.46764 8.65818 7.38545 8.664 7.352C8.69891 7.18764 8.96 7.17018 9.10691 7.11491C9.20873 7.07564 9.30036 6.99055 9.41382 7.01236C9.392 7.09091 9.29236 7.088 9.31127 7.18255C9.336 7.31491 9.50327 7.13309 9.54982 7.11418C9.63855 7.07636 9.80873 7.05382 9.92509 7.01164C10.0269 6.97527 10.1913 6.92509 10.0953 6.80727C10.0153 6.80146 9.99491 6.87927 9.92509 6.90836C9.87709 6.91564 9.86473 6.87855 9.824 6.87564C9.78473 6.87418 9.76073 6.91564 9.72146 6.90836C9.68218 6.90109 9.62473 6.81818 9.61891 6.77164C9.60291 6.64946 9.73964 6.62327 9.78909 6.53309C9.75564 6.42255 9.60945 6.50836 9.51636 6.46473C9.52654 6.39927 9.57527 6.34182 9.65309 6.328C9.71564 6.31782 9.85382 6.33018 9.89164 6.36073C9.91345 6.37964 9.89091 6.43273 9.92436 6.46327C9.96218 6.49673 10.0124 6.47054 10.0618 6.46327C10.0793 6.38036 9.94473 6.41455 9.95927 6.36073C10.0582 6.29673 10.248 6.344 10.3687 6.328C10.4385 6.31782 10.5105 6.25891 10.5731 6.22545C10.6313 6.192 10.6822 6.13745 10.7433 6.19273C10.7607 6.25236 10.7084 6.29891 10.6749 6.32945C10.5629 6.42836 10.4553 6.52145 10.368 6.63636C10.4218 6.68873 10.5164 6.65891 10.6065 6.66909C10.6415 6.67345 10.6713 6.69745 10.7076 6.70327C10.7513 6.71054 10.8102 6.696 10.8451 6.70327C10.9062 6.71782 10.9207 6.80582 10.9818 6.80582C11.0807 6.80582 11.0713 6.70255 11.0145 6.63564C11.032 6.56727 11.0735 6.51345 11.0487 6.46545C11.0036 6.37527 10.8189 6.47782 10.8102 6.36291C10.8044 6.29018 10.8865 6.28146 10.9127 6.22618C10.9011 6.08655 11.0284 6.08 11.0138 5.95346C11.0065 5.90109 10.9491 5.90036 10.9127 5.85091C10.8938 5.82473 10.9004 5.76727 10.8785 5.74836C10.8029 5.68436 10.6487 5.70182 10.64 5.57964C10.6356 5.50691 10.6502 5.45236 10.64 5.37382C10.6298 5.29964 10.568 5.08145 10.5033 5.06691C10.4218 5.04945 10.3622 5.192 10.2647 5.23709C10.2124 5.26182 10.1142 5.28145 10.0604 5.27127C10.0255 5.264 9.96218 5.23564 9.95782 5.16873C9.95055 5.09164 10.0116 5.08 10.0262 4.99854C10.6531 4.824 11.3113 4.72291 11.9949 4.72291M9.064 5.33891C9.04291 5.63782 8.776 5.79273 8.46182 5.78473C8.39491 5.84873 8.42982 5.96873 8.39345 6.05745C8.36291 6.13164 8.26327 6.20073 8.18909 6.19491C8.13527 6.19055 8.05236 6.10836 8.05236 6.05745C8.05236 5.99491 8.13891 5.96 8.08509 5.88873C8.08727 5.87418 8.10691 5.85891 8.12218 5.84291C8.42327 5.65382 8.73527 5.48291 9.064 5.33891ZM15.1353 5.68582C15.1084 5.69091 15.0938 5.70473 15.0698 5.71855C15.0145 5.752 15.0095 5.80509 14.9673 5.82109C14.9076 5.84291 14.84 5.83564 14.8305 5.88945C14.8233 5.93455 14.8662 5.94982 14.8647 5.99055C14.8429 6.04436 14.808 6.06182 14.7964 6.12727C14.8705 6.248 15.0444 6.12073 15.136 6.09454C15.1767 6.08291 15.2167 6.09236 15.2385 6.06036C15.2633 6.02109 15.2524 5.94691 15.2713 5.89164C15.2916 5.83055 15.3469 5.84291 15.3396 5.78909C15.3338 5.73527 15.2255 5.67709 15.1353 5.68582ZM7.17382 6.55418C7.24436 6.59054 7.36364 6.75418 7.22764 6.81236C7.21309 6.81964 7.024 6.85236 6.98909 6.84509C6.96073 6.84073 6.93746 6.81527 6.91346 6.78982C6.99709 6.70836 7.08655 6.63127 7.17382 6.55418ZM7.43054 6.87927C7.46545 6.88073 7.49236 6.94473 7.53309 6.94764C7.57236 6.95055 7.61236 6.90618 7.63564 6.91346C7.69673 6.92946 7.72655 7.03855 7.66836 7.08364C7.62036 7.08945 7.60218 7.04364 7.56727 7.05091C7.46836 7.06836 7.43564 7.26109 7.36145 7.25527C7.29164 7.248 7.25745 7.10182 7.32873 7.05091C7.33018 7.00727 7.29164 6.992 7.29455 6.94836C7.31636 6.92073 7.37309 6.87564 7.43127 6.88L7.43054 6.87927ZM7.09091 6.91346C7.11127 6.91346 7.11636 6.90473 7.12364 6.91346C7.11345 6.99055 7.08218 7.01455 7.02255 7.05091C6.91927 7.11345 6.85018 7.18982 6.81673 7.32364C6.80654 7.36291 6.69746 7.46982 6.648 7.46036C6.53309 7.43564 6.69018 7.22109 6.71636 7.18764C6.74546 7.15127 6.784 7.12582 6.81746 7.08509C6.85091 7.04436 6.85382 6.97164 6.88582 6.94836C6.92073 6.92364 7.03055 6.91127 7.09164 6.91418L7.09091 6.91346ZM17.3818 7.10836C17.4276 7.15927 17.4749 7.20873 17.5193 7.26036C17.4735 7.20655 17.3985 7.18618 17.3818 7.10836ZM16.9375 7.12291C17.0524 7.11564 17.1236 7.25746 17.176 7.32727C17.2196 7.384 17.3433 7.45818 17.4145 7.49745C17.4553 7.51927 17.5062 7.54545 17.5513 7.56582C17.6458 7.608 17.8196 7.74545 17.824 7.83855C17.8255 7.88509 17.784 7.93236 17.7913 7.976C17.8625 7.98764 17.9258 7.87709 17.928 7.80582C17.928 7.78909 17.9222 7.77818 17.9149 7.76727C18.1207 8.05527 18.3062 8.35782 18.4691 8.67491C18.4051 8.69382 18.3498 8.72436 18.3396 8.78691C18.3251 8.86836 18.3935 8.97673 18.2713 8.99127C18.1942 9.00146 18.1033 8.912 17.9971 8.88873C17.9535 8.87855 17.8953 8.90036 17.8604 8.88873C17.7804 8.86109 17.7927 8.768 17.7236 8.72C17.6844 8.69236 17.5804 8.65891 17.5178 8.65164C17.4785 8.64727 17.4575 8.65745 17.4167 8.65164C17.3673 8.64582 17.2873 8.64218 17.2465 8.61746C17.2073 8.59273 17.1207 8.54836 17.1098 8.51491C17.0938 8.46109 17.208 8.39127 17.2109 8.34618C17.2138 8.31127 17.1855 8.296 17.1782 8.24364C17.1724 8.21164 17.1855 8.16145 17.1782 8.14109C17.168 8.10327 17.1004 8.07418 17.0407 8.07273C16.9884 8.07273 16.9491 8.10691 16.904 8.10691C16.84 8.10836 16.7113 8.06545 16.6313 8.07273C16.5833 8.07709 16.5389 8.104 16.4938 8.10691C16.3673 8.11709 16.2858 8.09964 16.1869 8.10691C16.1156 8.11127 15.9811 8.14473 15.9142 8.17527C15.8807 8.19127 15.8553 8.22182 15.8116 8.24364C15.7913 8.25382 15.7695 8.26473 15.7433 8.27636C15.7025 8.29527 15.6465 8.336 15.6065 8.34618C15.5498 8.36073 15.4713 8.34182 15.368 8.34618C15.2938 8.35055 15.1651 8.33236 15.1636 8.24364C15.1622 8.10836 15.4109 8.16436 15.5389 8.14109C15.5869 8.13091 15.6175 8.07345 15.6756 8.04C15.7033 8.024 15.7178 8.02327 15.744 8.00582C15.7876 7.97527 15.8735 7.904 15.8807 7.86909C15.8865 7.83709 15.8436 7.78982 15.848 7.76655C15.8538 7.736 15.9098 7.70473 15.9491 7.66546C16.0102 7.60436 16.0436 7.53455 16.1193 7.49527C16.1702 7.46764 16.2662 7.46764 16.2895 7.42691C16.2953 7.38036 16.288 7.36654 16.2895 7.32436C16.3215 7.29527 16.3316 7.26182 16.3578 7.256C16.4364 7.23855 16.5047 7.29309 16.5964 7.28873C16.6356 7.28727 16.6909 7.28364 16.7331 7.256C16.768 7.23273 16.8007 7.20509 16.8356 7.18764C16.8735 7.16727 16.8916 7.12218 16.9382 7.11927M7.83709 7.18909H7.83855C7.872 7.18764 7.90473 7.18909 7.94109 7.18909C7.97746 7.18909 8.02764 7.17455 8.04218 7.18909C8.01891 7.28509 7.81091 7.25673 7.73527 7.22182C7.73964 7.18545 7.792 7.19345 7.83855 7.18909M17.5207 7.25891C17.5622 7.30764 17.6051 7.35418 17.6458 7.40364C17.6393 7.4 17.6291 7.39855 17.6233 7.39345C17.5825 7.36145 17.5615 7.30764 17.5207 7.25818M7.49673 7.35927C7.52146 7.35927 7.54036 7.34909 7.56655 7.35927C7.49964 7.416 7.40873 7.45964 7.29236 7.496C7.23709 7.51345 7.16582 7.52291 7.15564 7.46182C7.144 7.38618 7.20873 7.40073 7.25818 7.39345C7.32218 7.38618 7.42109 7.36218 7.49527 7.36073L7.49673 7.35927ZM16.9731 7.36073C16.9251 7.37673 16.9018 7.48436 16.9731 7.49745C17.0065 7.47709 17.016 7.42182 17.0073 7.36073C16.9884 7.34036 16.9876 7.35491 16.9731 7.36073ZM16.9404 7.56509C16.9171 7.57236 16.8967 7.57164 16.872 7.59782C16.8735 7.67927 16.888 7.73236 16.872 7.80364C16.9185 7.89382 17.0175 7.83055 17.0407 7.76946C17.0684 7.61818 17.0102 7.54618 16.9404 7.56509ZM17.5862 7.97455C17.5222 7.97164 17.4553 7.97673 17.4175 8.00727C17.4713 8.09455 17.5695 8.12218 17.6902 8.144C17.7338 8.112 17.7382 8.03055 17.7585 7.97527C17.7062 7.97527 17.6524 7.97818 17.5884 7.97527L17.5862 7.97455ZM4.80654 10.9702C4.88873 11.0444 4.94545 11.1687 5.04364 11.2175C5.08 11.2364 5.13309 11.2415 5.18036 11.2516C5.21818 11.2589 5.24655 11.2727 5.28291 11.2844C5.36 11.3105 5.46036 11.3265 5.52145 11.3542C5.61454 11.3949 5.68 11.5447 5.76 11.5913C5.76436 11.6378 5.74545 11.6938 5.76 11.7287C5.79782 11.7796 5.86909 11.7964 5.93018 11.8298C6.00436 11.8705 6.02909 11.968 6.09891 12C6.12364 12.0102 6.16364 11.9884 6.20145 12C6.29745 12.0291 6.32436 12.1607 6.40727 12.1367C6.46109 12.1207 6.46691 12.0524 6.47564 12C6.512 11.9607 6.55564 11.8975 6.61236 11.8975C6.70254 11.896 6.71564 12.0145 6.74909 12.1033C6.768 12.1527 6.80436 12.1876 6.81746 12.24C6.83927 12.3302 6.83636 12.5956 6.81746 12.6495C6.79418 12.7164 6.70255 12.7455 6.64727 12.8182C6.62109 12.8531 6.59927 12.8975 6.57891 12.9207C6.544 12.9644 6.504 12.984 6.47782 13.0233C6.46327 13.0451 6.45673 13.0938 6.44364 13.1244C6.4 13.2175 6.33891 13.2865 6.37527 13.3985C6.38982 13.4436 6.44364 13.4815 6.44364 13.5353C6.44364 13.5993 6.31709 13.6356 6.30691 13.7055C6.29964 13.7564 6.35927 13.8415 6.37527 13.9098C6.38691 13.9607 6.48073 14.0131 6.512 14.0465C6.56291 14.1033 6.60291 14.1796 6.64945 14.2524C6.74109 14.3935 6.79636 14.5571 6.88655 14.6953C6.93455 14.7665 7.02473 14.824 7.05673 14.8996C7.07273 14.9375 7.04218 15.0015 7.05673 15.0364C7.10909 15.1542 7.34836 15.2851 7.46618 15.3433C7.52146 15.3709 7.58545 15.384 7.63636 15.4131C7.71345 15.4567 7.86982 15.5491 7.90909 15.6175C7.944 15.6785 7.96 15.8269 7.97745 15.9244C7.99927 16.0524 7.97164 16.1615 7.97745 16.2996C7.98182 16.3753 8.01164 16.4284 8.01164 16.504C8.01164 16.5302 8.01309 16.5804 8.01164 16.6065C8.01018 16.6967 8.01891 16.7876 8.01164 16.8793C8.00727 16.9287 8.00873 16.9745 8.01164 17.0167C8.016 17.0618 8.04146 17.0785 8.04436 17.1178C8.04727 17.16 8.00727 17.2218 8.01164 17.2553C8.02182 17.3469 8.09673 17.408 8.11418 17.4924C8.12873 17.5593 8.15564 17.7193 8.14691 17.7993C8.14109 17.8415 8.12 17.8902 8.11418 17.9367C8.10982 17.9731 8.12 18.0044 8.11418 18.0378C8.10982 18.0705 8.10182 18.0975 8.09309 18.1258C6.06982 16.8371 4.728 14.5804 4.728 11.9935C4.728 11.6451 4.76073 11.3055 4.80727 10.9709M7.63709 11.768C7.70691 11.736 7.69382 11.8618 7.63709 11.8705C7.58327 11.8778 7.58473 11.7927 7.63709 11.768Z" fill="white"/>
<defs>
<radialGradient id="paint0_radial_21_79" cx="0" cy="0" r="1" gradientUnits="userSpaceOnUse" gradientTransform="translate(17.5 1) rotate(116.565) scale(24.5967)">
<stop stop-color="#7A9CBB"/>
<stop offset="1" stop-color="#2D5D87"/>
</radialGradient>
</defs>
</svg>
