<svg width="24" height="24" viewBox="0 0 24 24" fill="none" xmlns="http://www.w3.org/2000/svg">
<rect x="2" y="2" width="20" height="20" rx="6" fill="url(#paint0_radial_0_1)"/>
<path d="M17.6794 15.4602C17.6794 17.6096 16.0418 18.421 14.9599 18.421C13.7244 18.421 12.8399 17.6169 12.8399 16.4764C12.8399 15.3579 13.5343 14.5903 15.0257 14.2833L16.1881 14.0347C16.4878 13.9762 16.6413 13.7569 16.6413 13.4206L16.6143 8.41434L11.2084 9.52171C10.8794 9.58749 10.8209 9.65327 10.8209 10.0188V16.7079C10.8209 18.8572 9.18334 19.6687 8.10137 19.6687C6.86591 19.6687 5.98135 18.8645 5.98135 17.7241C5.98135 16.6056 6.67583 15.838 8.16719 15.5309L9.32957 15.2824C9.62929 15.2239 9.78281 15.0046 9.78281 14.6683L9.73892 6.53903C9.73892 6.10038 10.0094 5.83722 10.5065 5.72755L16.952 4.41654C17.3467 4.32883 17.683 4.59929 17.683 5.00867V7.76475C17.683 7.78656 17.6818 7.80799 17.6794 7.82899V15.4602Z" fill="url(#paint1_linear_0_1)"/>
<path fill-rule="evenodd" clip-rule="evenodd" d="M16.4613 17.9481C15.9718 18.2766 15.4164 18.421 14.9599 18.421C13.7244 18.421 12.8399 17.6168 12.8399 16.4764C12.8399 16.0944 12.9209 15.7533 13.087 15.4575C12.4242 15.859 12.1085 16.4536 12.1085 17.2077C12.1085 18.3482 12.9931 19.1523 14.2285 19.1523C14.9405 19.1523 15.8931 18.8009 16.4613 17.9481ZM15.9096 14.0942L16.1881 14.0347C16.4878 13.9762 16.6413 13.7569 16.6413 13.4206L16.6143 8.41434L11.2084 9.52171C10.8794 9.58749 10.8209 9.65327 10.8209 10.0188V10.1826L15.8829 9.14569L15.9096 14.0942ZM9.74148 6.46665C9.26585 6.58068 9.00757 6.84175 9.00757 7.27037L9.05114 15.3419L9.32957 15.2824C9.62929 15.2239 9.78281 15.0046 9.78281 14.6683L9.73892 6.53903C9.73892 6.51435 9.73978 6.49022 9.74148 6.46665ZM6.22845 16.7052C6.06236 17.001 5.98135 17.3421 5.98135 17.7241C5.98135 18.8645 6.86591 19.6687 8.10137 19.6687C8.55787 19.6687 9.11326 19.5242 9.60284 19.1958C9.03464 20.0486 8.08203 20.4 7.37002 20.4C6.13456 20.4 5.25 19.5959 5.25 18.4554C5.25 17.7013 5.56569 17.1067 6.22845 16.7052Z" fill="url(#paint2_linear_0_1)" fill-opacity="0.5"/>
<defs>
<radialGradient id="paint0_radial_0_1" cx="0" cy="0" r="1" gradientUnits="userSpaceOnUse" gradientTransform="translate(17 2) rotate(116.565) scale(22.3607)">
<stop stop-color="#FAFAFA"/>
<stop offset="1" stop-color="#C0C0C0"/>
</radialGradient>
<linearGradient id="paint1_linear_0_1" x1="17.6767" y1="4.4" x2="5.99667" y2="19.6533" gradientUnits="userSpaceOnUse">
<stop stop-color="#E996B1"/>
<stop offset="1" stop-color="#BC546F"/>
</linearGradient>
<linearGradient id="paint2_linear_0_1" x1="5.25" y1="20.4898" x2="18.4144" y2="2.93729" gradientUnits="userSpaceOnUse">
<stop stop-color="#54452A" stop-opacity="0.35"/>
<stop offset="1" stop-color="#7A653E" stop-opacity="0.45"/>
</linearGradient>
</defs>
</svg>
