<svg width="24" height="24" viewBox="0 0 24 24" fill="none" xmlns="http://www.w3.org/2000/svg">
<rect x="2" y="2" width="20" height="20" rx="6" fill="url(#paint0_radial_3_18)"/>
<g opacity="0.35">
<path opacity="0.220771" d="M9.57545 10.7627C10.4764 10.7627 11.2068 10.0323 11.2068 9.13136C11.2068 8.23039 10.4764 7.5 9.57545 7.5C8.67448 7.5 7.94409 8.23039 7.94409 9.13136C7.94409 10.0323 8.67448 10.7627 9.57545 10.7627Z" fill="black" stroke="black" stroke-width="0.157044" stroke-linecap="round" stroke-linejoin="round"/>
<path opacity="0.220771" d="M14.1017 10.2681C13.8804 10.2682 13.6637 10.332 13.4777 10.4518C13.2916 10.5716 13.1438 10.7423 13.0521 10.9437L11.897 12.9479C11.8908 12.9592 11.8844 12.9703 11.8778 12.9813L11.866 13.0017H11.865C11.7881 13.1205 11.6827 13.2182 11.5585 13.2859C11.4342 13.3536 11.295 13.3891 11.1534 13.3892C11.0119 13.3891 10.8727 13.3536 10.7484 13.2859C10.6241 13.2182 10.5188 13.1205 10.4419 13.0017H10.4402L10.1233 12.6848C10.0134 12.5418 9.87215 12.426 9.71039 12.3463C9.54864 12.2666 9.37073 12.2252 9.1904 12.2252C8.94689 12.2253 8.70943 12.301 8.51076 12.4419C8.31209 12.5827 8.16199 12.7817 8.08116 13.0114L7.2655 14.5811C7.23398 14.6352 7.20511 14.6908 7.17899 14.7477L7.15793 14.7882L7.15999 14.7913C7.05493 15.033 7.00048 15.2937 7 15.5572C6.99999 15.8107 7.04991 16.0617 7.14691 16.2959C7.2439 16.5301 7.38607 16.7429 7.56531 16.9221C7.74454 17.1013 7.95732 17.2435 8.1915 17.3405C8.42569 17.4375 8.67668 17.4874 8.93016 17.4875C8.94438 17.4871 8.9586 17.4865 8.97281 17.4858H14.9627C14.9769 17.4865 14.9911 17.4871 15.0054 17.4875C15.2589 17.4875 15.5099 17.4375 15.7441 17.3405C15.9782 17.2435 16.191 17.1014 16.3703 16.9221C16.5495 16.7429 16.6917 16.5301 16.7887 16.2959C16.8857 16.0617 16.9356 15.8107 16.9356 15.5572C16.9356 15.2741 16.8733 14.9945 16.7531 14.7381L16.756 14.7336L15.1993 11.0658C15.1785 11.0016 15.1521 10.9393 15.1203 10.8797L15.1085 10.8519H15.105C15.0042 10.6746 14.8583 10.5272 14.6821 10.4246C14.5058 10.3221 14.3056 10.2681 14.1017 10.2681Z" fill="black" stroke="black" stroke-width="0.157044" stroke-linecap="round" stroke-linejoin="round"/>
</g>
<path d="M10.0755 10.2627C10.9765 10.2627 11.7069 9.53234 11.7069 8.63136C11.7069 7.73039 10.9765 7 10.0755 7C9.17454 7 8.44415 7.73039 8.44415 8.63136C8.44415 9.53234 9.17454 10.2627 10.0755 10.2627Z" fill="url(#paint1_linear_3_18)"/>
<path d="M14.6017 9.76805C14.3804 9.76819 14.1637 9.83196 13.9777 9.95175C13.7916 10.0715 13.6438 10.2423 13.5521 10.4437L12.397 12.4479C12.3908 12.4592 12.3844 12.4703 12.3778 12.4813L12.366 12.5017H12.365C12.2881 12.6205 12.1827 12.7182 12.0585 12.7859C11.9342 12.8536 11.795 12.8891 11.6534 12.8892C11.5119 12.8891 11.3727 12.8536 11.2484 12.7859C11.1241 12.7182 11.0188 12.6205 10.9419 12.5017H10.9402L10.6233 12.1848C10.5134 12.0418 10.3722 11.926 10.2104 11.8463C10.0486 11.7666 9.87073 11.7252 9.6904 11.7251C9.44689 11.7253 9.20943 11.801 9.01076 11.9419C8.81209 12.0827 8.66199 12.2816 8.58116 12.5114L7.7655 14.0811C7.73398 14.1352 7.70511 14.1908 7.67899 14.2477L7.65793 14.2882L7.65999 14.2913C7.55493 14.533 7.50048 14.7937 7.5 15.0572C7.49999 15.3107 7.54991 15.5617 7.64691 15.7959C7.7439 16.0301 7.88607 16.2428 8.06531 16.4221C8.24454 16.6013 8.45732 16.7435 8.6915 16.8405C8.92569 16.9375 9.17668 16.9874 9.43016 16.9874C9.44438 16.9871 9.4586 16.9865 9.47281 16.9858H15.4627C15.4769 16.9865 15.4911 16.9871 15.5054 16.9874C15.7589 16.9875 16.0099 16.9375 16.2441 16.8405C16.4782 16.7435 16.691 16.6014 16.8703 16.4221C17.0495 16.2429 17.1917 16.0301 17.2887 15.7959C17.3857 15.5617 17.4356 15.3107 17.4356 15.0572C17.4356 14.7741 17.3733 14.4945 17.2531 14.2381L17.256 14.2336L15.6993 10.5658C15.6785 10.5016 15.6521 10.4393 15.6203 10.3797L15.6085 10.3519H15.605C15.5042 10.1746 15.3583 10.0272 15.1821 9.92463C15.0058 9.82209 14.8056 9.76806 14.6017 9.76805Z" fill="url(#paint2_linear_3_18)"/>
<defs>
<radialGradient id="paint0_radial_3_18" cx="0" cy="0" r="1" gradientUnits="userSpaceOnUse" gradientTransform="translate(17 2) rotate(116.565) scale(22.3607)">
<stop stop-color="#95BFFF"/>
<stop offset="1" stop-color="#5C9DFF"/>
</radialGradient>
<linearGradient id="paint1_linear_3_18" x1="8.93296" y1="9.5995" x2="11.3137" y2="7.59076" gradientUnits="userSpaceOnUse">
<stop stop-color="#CBC900"/>
<stop offset="1" stop-color="#F4ED12"/>
</linearGradient>
<linearGradient id="paint2_linear_3_18" x1="7.43867" y1="16.5041" x2="17.4346" y2="10.7329" gradientUnits="userSpaceOnUse">
<stop stop-color="#84FAA1"/>
<stop offset="1" stop-color="#33C478"/>
</linearGradient>
</defs>
</svg>
