<svg width="24" height="24" viewBox="0 0 24 24" fill="none" xmlns="http://www.w3.org/2000/svg">
<rect x="1" y="1" width="22" height="22" rx="6.6" fill="url(#paint0_radial_21_705)"/>
<path opacity="0.8" d="M4 4V20H5H20V6V4H19.2727V4.72727H17.8182V4H16.3636V4.72727H14.9091V4H13.4545V4.72727H11.2727V4H9.81818V4.72727H7.63636V4H6.18182V4.72727H4.72727V4H4ZM4.72727 6.18182H19.2727V19.2727H4.72727V6.18182ZM6.90909 9.09091V9.81818H17.0909V9.09091H6.90909ZM6.90909 12V12.7273H12.7273V12H6.90909ZM6.90909 14.9091V15.6364H14.9091V14.9091H6.90909ZM14.9091 17.0909V17.8182H17.0909V17.0909H14.9091Z" fill="white"/>
<defs>
<radialGradient id="paint0_radial_21_705" cx="0" cy="0" r="1" gradientUnits="userSpaceOnUse" gradientTransform="translate(17.5 1) rotate(116.565) scale(24.5967)">
<stop stop-color="#78BBF8"/>
<stop offset="1" stop-color="#3097F4"/>
</radialGradient>
</defs>
</svg>
