<svg width="24" height="24" viewBox="0 0 24 24" fill="none" xmlns="http://www.w3.org/2000/svg">
<rect x="1.5" y="1.5" width="21" height="21" rx="6.1" fill="url(#paint0_radial_21_721)" stroke="#5B5B5B"/>
<path d="M20 6H11.4712V11.8635H20V6Z" fill="#1C99E0"/>
<path d="M19.4664 6.53304H12.0043V11.3304H19.4664V6.53304Z" fill="#C5EBFF"/>
<path d="M19.4487 8.69587C18.8596 8.69587 18.2947 8.46613 17.8781 8.05718C17.4616 7.64822 17.2276 7.09356 17.2276 6.51522H19.4487V8.69587Z" fill="#DCDB46"/>
<path d="M16.3752 10.1577L14.1986 7.57447L12.022 10.7318V11.3058H19.4846V10.7318L17.93 9.00964L16.3752 10.1577Z" fill="#37B324"/>
<path d="M10.3964 6.53446H4V7.60055H10.3964V6.53446Z" fill="#1C99E0"/>
<path d="M10.3964 8.66681H4V9.7329H10.3964V8.66681Z" fill="#1C99E0"/>
<path d="M10.3964 10.799H4V11.865H10.3964V10.799Z" fill="#1C99E0"/>
<path d="M19.9912 12.9311H4V13.9972H19.9912V12.9311Z" fill="#1C99E0"/>
<path d="M19.9912 15.0633H4V16.1293H19.9912V15.0633Z" fill="#1C99E0"/>
<path d="M16.7931 17.196H4V18.2621H16.7931V17.196Z" fill="#1C99E0"/>
<defs>
<radialGradient id="paint0_radial_21_721" cx="0" cy="0" r="1" gradientUnits="userSpaceOnUse" gradientTransform="translate(17.5 1) rotate(116.565) scale(24.5967)">
<stop stop-color="#F4F4F4"/>
<stop offset="1" stop-color="#BBBBBB"/>
</radialGradient>
</defs>
</svg>
