<svg width="24" height="24" viewBox="0 0 24 24" fill="none" xmlns="http://www.w3.org/2000/svg">
<rect x="1" y="1" width="22" height="22" rx="6.6" fill="url(#paint0_radial_6_368)"/>
<path fill-rule="evenodd" clip-rule="evenodd" d="M15.2889 6L15.4073 6.15786L14.8312 8.3774L14.6121 8.41413L13.2153 6.19459L13.316 6H15.2889ZM10.6841 6L10.7811 6.19942L9.13768 8.54218L8.91876 8.48523L8.5893 6.14246L8.71116 6.00002L10.6841 6ZM16.5338 6.04431L19 9.2504L18.9052 9.45271H15.4527L15.3358 9.29039L16.3223 6.0843L16.5338 6.04431ZM12.0947 6.04431L14.5609 9.2504L14.4661 9.45271H9.53378L9.43901 9.2504L11.9052 6.04431H12.0947ZM7.46607 6.04431L7.67777 6.08428L8.66424 9.29037L8.54731 9.45269H5.09478L5 9.25038L7.46607 6.04431ZM18.9051 9.94594L18.9954 10.1532L12.5834 17.3051L12.3798 17.1726L15.3393 10.0207L15.4526 9.94594H18.9051ZM14.466 9.94594L14.5798 10.1167L12.1136 16.282H11.8861L9.41988 10.1167L9.53367 9.94594H14.466ZM8.54731 9.94594L8.66062 10.0207L11.6201 17.1726L11.4164 17.3051L5.00446 10.1532L5.09478 9.94592L8.54731 9.94594Z" fill="#F44336"/>
<defs>
<radialGradient id="paint0_radial_6_368" cx="0" cy="0" r="1" gradientUnits="userSpaceOnUse" gradientTransform="translate(17.5 1) rotate(116.565) scale(24.5967)">
<stop stop-color="#F4F4F4"/>
<stop offset="1" stop-color="#BBBBBB"/>
</radialGradient>
</defs>
</svg>
