<svg width="24" height="24" viewBox="0 0 24 24" fill="none" xmlns="http://www.w3.org/2000/svg">
<rect x="1" y="1" width="22" height="22" rx="6.6" fill="url(#paint0_radial_6_211)"/>
<path d="M6.99999 8.00007C6.99999 8.00007 5 8.00007 5 10.0001V14.0001C5 16.0001 6.99999 16.0001 6.99999 16.0001H10.0001V15H6.99999C6.99999 15 5.99998 15 5.99998 14V10C5.99998 9.00002 6.99999 9.00002 6.99999 9.00002H10.0001V8L6.99999 8.00007ZM13 8.00007V10.0001H11V11.0001H13V13.0001H11V14.0001H13V16.0001H14V14.0001H16V16.0001H17V14.0001H19V13.0001H17V11.0001H19V10.0001H17V8.00007H16V10.0001H14V8.00007H13ZM14 11.0002H16V13.0002H14V11.0002Z" fill="#8C59D9"/>
<defs>
<radialGradient id="paint0_radial_6_211" cx="0" cy="0" r="1" gradientUnits="userSpaceOnUse" gradientTransform="translate(17.5 1) rotate(116.565) scale(24.5967)">
<stop stop-color="#F4F4F4"/>
<stop offset="1" stop-color="#BBBBBB"/>
</radialGradient>
</defs>
</svg>
