<svg width="24" height="24" viewBox="0 0 24 24" fill="none" xmlns="http://www.w3.org/2000/svg">
<rect x="1" y="1" width="22" height="22" rx="6.6" fill="url(#paint0_radial_6_135)"/>
<g opacity="0.4">
<path d="M10.2312 8V9.47195H11.7032V8H10.2312ZM12.12 8V9.47195H13.592V8H12.12ZM16.143 9.21186C15.6482 9.55097 15.4206 10.165 15.5749 10.7446C15.7308 11.3239 16.2348 11.7421 16.8328 11.7887C17.0327 12.354 17.5668 12.7322 18.1664 12.7331C18.766 12.7322 19.3002 12.354 19.5 11.7887C19.3001 11.2234 18.766 10.8451 18.1664 10.8443C17.8804 10.8451 17.6013 10.9326 17.3659 11.0951C17.4615 10.8251 17.4731 10.5325 17.3991 10.2558C17.2433 9.67719 16.7404 9.25917 16.143 9.21186ZM16.8328 11.7887H5.5C5.5 14.9181 8.03695 16.5107 11.1664 16.5107C14.2959 16.5107 16.8328 14.9181 16.8328 11.7887ZM7.80567 9.89617V11.3681H9.27761V9.89617H7.80567ZM9.69447 9.89617V11.3681H11.1664V9.89617H9.69447ZM11.5833 9.89617V11.3681H13.0552V9.89617H11.5833ZM13.4721 9.89617V11.3681H14.944V9.89617H13.4721ZM7.86101 12.7331C7.98625 12.7331 8.10635 12.7828 8.19491 12.8714C8.28346 12.9599 8.33321 13.08 8.33321 13.2053C8.33321 13.3305 8.28346 13.4506 8.19491 13.5392C8.10635 13.6277 7.98625 13.6775 7.86101 13.6775C7.73577 13.6775 7.61567 13.6277 7.52711 13.5392C7.43856 13.4506 7.38881 13.3305 7.38881 13.2053C7.38881 13.08 7.43856 12.9599 7.52711 12.8714C7.61567 12.7828 7.73577 12.7331 7.86101 12.7331Z" fill="black"/>
</g>
<defs>
<radialGradient id="paint0_radial_6_135" cx="0" cy="0" r="1" gradientUnits="userSpaceOnUse" gradientTransform="translate(17.5 1) rotate(116.565) scale(24.5967)">
<stop stop-color="#66D7FC"/>
<stop offset="1" stop-color="#3D87A0"/>
</radialGradient>
</defs>
</svg>
