<svg width="24" height="24" viewBox="0 0 24 24" fill="none" xmlns="http://www.w3.org/2000/svg">
<rect x="1" y="1" width="22" height="22" rx="6.6" fill="url(#paint0_radial_21_1694)"/>
<path d="M4.29563 13.8459H5.48264C5.64614 13.8459 5.77828 13.9374 5.77828 14.0506V14.8724C5.77828 14.8994 5.77056 14.9261 5.75556 14.9511C5.74056 14.976 5.71859 14.9986 5.6909 15.0176C5.66321 15.0367 5.63035 15.0517 5.59422 15.0619C5.5581 15.0721 5.51941 15.0772 5.4804 15.077H4.29563C4.21723 15.077 4.14203 15.0555 4.08659 15.0171C4.03115 14.9787 4 14.9267 4 14.8724V14.0506C4 13.9374 4.13214 13.8459 4.29563 13.8459ZM7.21165 13.8459C7.07727 13.8521 6.96081 13.925 6.96305 14.0041V14.9189C6.96305 15.0026 7.09295 15.077 7.23628 15.077H17.355C17.4983 15.077 17.6305 15.0026 17.6282 14.9189V14.0041C17.6282 13.9203 17.4983 13.8459 17.355 13.8459H7.21165Z" fill="#A2AAB9"/>
<path d="M5.4804 16.3082H6.66741C6.83091 16.3082 6.96304 16.3996 6.96304 16.5128V17.3331C6.96305 17.3601 6.95533 17.3868 6.94033 17.4118C6.92533 17.4367 6.90335 17.4593 6.87567 17.4783C6.84798 17.4974 6.81512 17.5124 6.77899 17.5226C6.74287 17.5328 6.70418 17.5379 6.66517 17.5377H5.4804C5.40199 17.5377 5.3268 17.5162 5.27136 17.4778C5.21592 17.4394 5.18477 17.3874 5.18477 17.3331V16.5113C5.18477 16.3996 5.31691 16.3082 5.4804 16.3082ZM8.39641 16.3082C8.26204 16.3144 8.14557 16.3857 8.14781 16.4648V17.3796C8.14781 17.4633 8.27771 17.5393 8.42329 17.5377H18.5398C18.6831 17.5377 18.8152 17.4633 18.813 17.3811V16.4663C18.813 16.3826 18.6831 16.3066 18.5398 16.3082H8.39641Z" fill="#ABD56B"/>
<path d="M4.29563 18.7689H5.48264C5.64614 18.7689 5.77828 18.8619 5.77828 18.9735V19.7953C5.77828 19.8223 5.77056 19.8491 5.75556 19.874C5.74056 19.8989 5.71859 19.9216 5.6909 19.9406C5.66321 19.9596 5.63035 19.9747 5.59422 19.9849C5.5581 19.9951 5.51941 20.0002 5.4804 20H4.29563C4.21723 20 4.14203 19.9784 4.08659 19.94C4.03115 19.9017 4 19.8496 4 19.7953V18.9735C4 18.8603 4.13214 18.7689 4.29563 18.7689ZM7.21165 18.7689C7.07727 18.7751 6.96081 18.8479 6.96305 18.927V19.8418C6.96305 19.9256 7.09295 20 7.23628 20H17.355C17.4983 20 17.6305 19.9256 17.6282 19.8418V18.927C17.6282 18.8433 17.4983 18.7689 17.355 18.7689H7.21165ZM4.29563 4H5.48264C5.64614 4 5.77828 4.09148 5.77828 4.20467V5.02646C5.77828 5.05346 5.77056 5.08021 5.75556 5.10514C5.74056 5.13007 5.71859 5.15271 5.6909 5.17173C5.66321 5.19076 5.63035 5.2058 5.59422 5.21599C5.5581 5.22619 5.51941 5.23133 5.4804 5.23113H4.29563C4.21723 5.23113 4.14203 5.20956 4.08659 5.17118C4.03115 5.1328 4 5.08074 4 5.02646V4.20467C4 4.09148 4.13214 4 4.29563 4ZM7.21165 4C7.07727 4.0062 6.96081 4.07908 6.96305 4.15815V5.07297C6.96305 5.1567 7.09295 5.23113 7.23628 5.23113H17.355C17.4983 5.23113 17.6305 5.1567 17.6282 5.07297V4.15815C17.6282 4.07443 17.4983 4 17.355 4H7.21165Z" fill="#A2AAB9"/>
<path d="M5.4804 6.46225H6.66741C6.83091 6.46225 6.96304 6.55373 6.96304 6.66692V7.48716C6.96305 7.51417 6.95533 7.54091 6.94033 7.56584C6.92533 7.59078 6.90335 7.61341 6.87567 7.63243C6.84798 7.65146 6.81512 7.6665 6.77899 7.6767C6.74287 7.68689 6.70418 7.69203 6.66517 7.69183H5.4804C5.40199 7.69183 5.3268 7.67027 5.27136 7.63188C5.21592 7.5935 5.18477 7.54144 5.18477 7.48716V6.66537C5.18477 6.55373 5.31691 6.46225 5.4804 6.46225ZM8.39641 6.46225C8.26204 6.46846 8.14557 6.53978 8.14781 6.61886V7.53367C8.14781 7.6174 8.27771 7.69338 8.42329 7.69183H18.5398C18.6831 7.69183 18.8152 7.6174 18.813 7.53522V6.62041C18.813 6.53668 18.6831 6.4607 18.5398 6.46225H8.39641ZM5.4804 11.3852H6.66741C6.83091 11.3852 6.96304 11.4767 6.96304 11.5899V12.4101C6.96305 12.4371 6.95533 12.4639 6.94033 12.4888C6.92533 12.5137 6.90335 12.5364 6.87567 12.5554C6.84798 12.5744 6.81512 12.5895 6.77899 12.5997C6.74287 12.6098 6.70418 12.615 6.66517 12.6148H5.4804C5.40199 12.6148 5.3268 12.5932 5.27136 12.5548C5.21592 12.5165 5.18477 12.4644 5.18477 12.4101V11.5883C5.18477 11.4767 5.31691 11.3852 5.4804 11.3852ZM8.39641 11.3852C8.26204 11.3914 8.14557 11.4627 8.14781 11.5418V12.4566C8.14781 12.5404 8.27771 12.6163 8.42329 12.6148H18.5398C18.6831 12.6148 18.8152 12.5404 18.813 12.4582V11.5434C18.813 11.4596 18.6831 11.3837 18.5398 11.3852H8.39641Z" fill="#ABD56B"/>
<path d="M6.66517 8.92296H7.85218C8.01568 8.92296 8.14781 9.01599 8.14781 9.12763V9.94941C8.14781 10.0037 8.11667 10.0558 8.06123 10.0941C8.00578 10.1325 7.93059 10.1541 7.85218 10.1541H6.66517C6.58677 10.1541 6.51157 10.1325 6.45613 10.0941C6.40069 10.0558 6.36954 10.0037 6.36954 9.94941V9.12763C6.36954 9.01444 6.50392 8.92296 6.66517 8.92296ZM9.58342 8.92296C9.44681 8.92916 9.33035 9.00203 9.33259 9.08111V9.99593C9.33259 10.0797 9.46248 10.1541 9.60806 10.1541H19.7245C19.8679 10.1541 20 10.0797 20 9.99593V9.08111C20 8.99738 19.8679 8.92296 19.7245 8.92296H9.58342Z" fill="#EFB458"/>
<defs>
<radialGradient id="paint0_radial_21_1694" cx="0" cy="0" r="1" gradientUnits="userSpaceOnUse" gradientTransform="translate(17.5 1) rotate(116.565) scale(24.5967)">
<stop stop-color="#F4F4F4"/>
<stop offset="1" stop-color="#BBBBBB"/>
</radialGradient>
</defs>
</svg>
