<svg xmlns="http://www.w3.org/2000/svg" width="24" height="24" fill="none"><rect width="22" height="22" x="1" y="1" fill="url(#a)" rx="6.6"/><path fill="#069" d="M4 12.557c0-.11.089-.2.2-.2h15.6c.11 0 .2.09.2.2v.6a.2.2 0 0 1-.2.2H4.2a.2.2 0 0 1-.2-.2v-.6ZM4 14.271c0-.11.089-.2.2-.2h15.6c.11 0 .2.09.2.2v.6a.2.2 0 0 1-.2.2H4.2a.2.2 0 0 1-.2-.2v-.6ZM4 15.986c0-.11.089-.2.2-.2h15.6c.11 0 .2.09.2.2v.6a.2.2 0 0 1-.2.2H4.2a.2.2 0 0 1-.2-.2v-.6ZM4 17.7c0-.11.089-.2.2-.2h7.6c.11 0 .2.09.2.2v.6a.2.2 0 0 1-.2.2H4.2a.2.2 0 0 1-.2-.2v-.6ZM4 7.414c0-.11.089-.2.2-.2h15.6c.11 0 .2.09.2.2v.6a.2.2 0 0 1-.2.2H4.2a.2.2 0 0 1-.2-.2v-.6ZM4 9.128c0-.11.089-.2.2-.2h15.6c.11 0 .2.09.2.2v.6a.2.2 0 0 1-.2.2H4.2a.2.2 0 0 1-.2-.2v-.6ZM4 10.843c0-.11.089-.2.2-.2h15.6c.11 0 .2.09.2.2v.6a.2.2 0 0 1-.2.2H4.2a.2.2 0 0 1-.2-.2v-.6ZM4 5.7c0-.11.089-.2.2-.2h15.6c.11 0 .2.09.2.2v.6a.2.2 0 0 1-.2.2H4.2a.2.2 0 0 1-.2-.2v-.6Z"/><defs><radialGradient id="a" cx="0" cy="0" r="1" gradientTransform="rotate(116.565 8.441 5.908) scale(24.5967)" gradientUnits="userSpaceOnUse"><stop stop-color="#F4F4F4"/><stop offset="1" stop-color="#BBB"/></radialGradient></defs></svg>