<svg width="24" height="24" viewBox="0 0 24 24" fill="none" xmlns="http://www.w3.org/2000/svg">
<rect x="1" y="1" width="22" height="22" rx="6.6" fill="url(#paint0_radial_6_164)"/>
<path d="M12.0005 5.00004C11.9328 5.00004 11.865 5.02993 11.8284 5.0895L11.4642 5.67783L11.2927 5.69459L10.821 5.18873C10.7254 5.08644 10.5324 5.1243 10.4833 5.25603L10.2417 5.9024L10.075 5.95284L9.51495 5.54983C9.40115 5.46764 9.21919 5.5433 9.1967 5.68152L9.0855 6.36312L8.93252 6.44517L8.30408 6.15866C8.17636 6.10028 8.01238 6.21002 8.01774 6.35007L8.04189 7.04171L7.90913 7.15092L7.23557 6.99204C7.09875 6.96017 6.95962 7.09901 6.99176 7.23583L7.1505 7.90955L7.04143 8.04201L6.34979 8.01785C6.21027 8.01379 6.10044 8.17634 6.15854 8.30434L6.44503 8.93293L6.363 9.0859L5.68153 9.19679C5.54309 9.21926 5.46801 9.40122 5.54969 9.51503L5.95286 10.0748L5.90227 10.2417L5.25591 10.4833C5.1247 10.5323 5.08621 10.7252 5.18876 10.8211L5.69446 11.2926L5.67771 11.464L5.08937 11.8283C4.97021 11.9019 4.97021 12.0991 5.08937 12.1725L5.67771 12.5366L5.69446 12.7079L5.18876 13.1796C5.08621 13.2752 5.1247 13.468 5.25591 13.5173L5.90227 13.759L5.95286 13.9258L5.54969 14.4857C5.46776 14.5998 5.54334 14.7817 5.68169 14.804L6.363 14.9147L6.44503 15.0679L6.15854 15.6964C6.10017 15.8241 6.21029 15.9884 6.34979 15.9827L7.04127 15.9584L7.15048 16.0914L6.99174 16.7651C6.9596 16.9016 7.09873 17.0404 7.23555 17.0083L7.90911 16.8497L8.04187 16.9586L8.01773 17.6504C8.01243 17.7904 8.17634 17.9 8.30406 17.8416L8.9325 17.5551L9.08548 17.6373L9.19667 18.3185C9.21916 18.4572 9.40111 18.5321 9.51491 18.4505L10.0747 18.047L10.2415 18.0977L10.4832 18.744C10.5322 18.8751 10.7253 18.9138 10.8208 18.8109L11.2925 18.3054L11.464 18.3225L11.8281 18.9108C11.9015 19.0294 12.0987 19.0297 12.1723 18.9108L12.5366 18.3225L12.708 18.3054L13.1795 18.8109C13.2751 18.9138 13.4682 18.8751 13.5172 18.744L13.7587 18.0977L13.9257 18.047L14.4856 18.4505C14.5994 18.5321 14.7812 18.457 14.8037 18.3185L14.9149 17.6373L15.0679 17.5551L15.6963 17.8416C15.824 17.9 15.9877 17.7907 15.9826 17.6504L15.9585 16.9586L16.0911 16.8497L16.7648 17.0083C16.9016 17.0404 17.0404 16.9016 17.0083 16.7651L16.8496 16.0914L16.9586 15.9584L17.6503 15.9827C17.7898 15.9884 17.9 15.8241 17.8414 15.6964L17.555 15.0679L17.6371 14.9147L18.3185 14.804C18.4572 14.7817 18.5324 14.5998 18.4502 14.4857L18.0471 13.9258L18.0977 13.759L18.744 13.5173C18.8755 13.468 18.9138 13.2752 18.811 13.1796L18.3055 12.7079L18.3222 12.5366L18.9106 12.1725C19.0297 12.0991 19.0299 11.9019 18.9107 11.8282L18.3223 11.464L18.3056 11.2926L18.8111 10.8211C18.914 10.7252 18.8755 10.5323 18.744 10.4833L18.0978 10.2417L18.0472 10.0748L18.4503 9.51502C18.5326 9.4012 18.4571 9.21955 18.3186 9.19677L17.637 9.08588L17.5552 8.93291L17.8415 8.30433C17.9001 8.17633 17.7913 8.01247 17.6504 8.01783L16.9588 8.04198L16.8494 7.90952L17.0084 7.2358C17.0406 7.09898 16.9016 6.95987 16.7648 6.992L16.0912 7.15089L15.9584 7.04167L15.9828 6.35003C15.988 6.20999 15.8241 6.10051 15.6964 6.15862L15.068 6.44514L14.915 6.36308L14.8038 5.68148C14.7813 5.54332 14.5995 5.46783 14.4857 5.5498L13.9255 5.95281L13.7588 5.90236L13.5173 5.256C13.4683 5.12426 13.2752 5.08641 13.1796 5.18869L12.7081 5.69455L12.5366 5.67779L12.1724 5.08946C12.1356 5.0299 12.0681 5.00004 12.0005 5.00004ZM11.9781 6.23322C12.1862 6.23322 12.3945 6.37192 12.3944 6.64942C12.3941 7.20403 11.5623 7.20403 11.5621 6.64942C11.5619 6.37192 11.77 6.23322 11.9781 6.23322ZM12.944 6.91877C14.4232 7.19585 15.7057 8.10923 16.4511 9.41667L15.9603 10.5251C15.8755 10.717 15.9619 10.9414 16.1532 11.0264L17.0982 11.4461C17.1276 11.7417 17.1312 12.0393 17.109 12.3355H16.5834C16.5308 12.3355 16.5097 12.3701 16.5097 12.4217V12.6631C16.5097 13.2313 16.1892 13.3548 15.9085 13.3863C15.6411 13.4164 15.3447 13.2743 15.3081 13.1107C15.1504 12.2236 14.8877 12.0341 14.4726 11.7068C14.9877 11.3797 15.5235 10.8972 15.5235 10.2514C15.5235 9.55398 15.0455 9.11467 14.7196 8.89926C14.2624 8.59789 13.7563 8.56953 13.6197 8.56953H8.18347C8.93496 7.72978 9.94235 7.12917 11.0496 6.9199L11.6904 7.59224C11.8353 7.74393 12.0752 7.74954 12.2268 7.60459L12.944 6.91877ZM7.01423 10.0007C7.22234 10.0007 7.43041 10.1394 7.43031 10.4169C7.43008 10.9715 6.59822 10.9715 6.59801 10.4169C6.59789 10.1394 6.80612 10.0007 7.01423 10.0007ZM16.942 10.0201C17.1501 10.0201 17.3583 10.1588 17.3582 10.4363C17.358 10.9909 16.5261 10.9909 16.5259 10.4363C16.5258 10.1588 16.7339 10.0201 16.942 10.0201ZM7.88749 10.1848H8.50013L8.49836 13.4278H7.07227C6.89147 12.7927 6.83513 12.0613 6.90639 11.4049L7.80279 11.0066C7.99425 10.9216 8.08073 10.6971 7.99571 10.5053L7.88749 10.1848ZM10.654 10.1848H12.5466C12.6359 10.1848 13.1771 10.2208 13.1771 10.6255C13.1771 10.9615 12.762 11.127 12.4206 11.127H10.654V10.1848ZM10.654 12.3384H12.164C12.2849 12.3384 12.8103 12.5076 12.9784 13.1793C13.031 13.3858 13.1465 14.0578 13.2255 14.273C13.3042 14.5143 13.6248 15.0309 13.9664 15.0309H16.1281C15.9831 15.2249 15.8245 15.3738 15.6535 15.5454L14.7735 15.3562C14.5686 15.3123 14.367 15.4427 14.3231 15.648L14.1143 16.6227C12.7551 17.2383 11.195 17.231 9.8418 16.6023L9.63307 15.6275C9.58915 15.4224 9.38751 15.2918 9.18266 15.3359L8.32226 15.5206C8.16239 15.3559 8.01372 15.2154 7.87733 15.0308H12.0002V13.4155H10.6541L10.654 12.3384ZM8.89539 15.8643C9.1035 15.8643 9.31172 16.003 9.31162 16.2805C9.31138 16.8351 8.47954 16.8351 8.47931 16.2805C8.4792 16.003 8.68728 15.8643 8.89539 15.8643ZM15.0609 15.8836C15.2691 15.8836 15.4771 16.0224 15.477 16.2999C15.4768 16.8546 14.6449 16.8546 14.6447 16.2999C14.6446 16.0224 14.8528 15.8836 15.0609 15.8836Z" fill="#666666"/>
<defs>
<radialGradient id="paint0_radial_6_164" cx="0" cy="0" r="1" gradientUnits="userSpaceOnUse" gradientTransform="translate(17.5 1) rotate(116.565) scale(24.5967)">
<stop stop-color="#F4F4F4"/>
<stop offset="1" stop-color="#BBBBBB"/>
</radialGradient>
</defs>
</svg>
