<svg width="24" height="24" viewBox="0 0 24 24" fill="none" xmlns="http://www.w3.org/2000/svg">
<rect x="2" y="2" width="20" height="20" rx="6" fill="url(#paint0_radial_3_167)"/>
<path d="M11.7241 4C9.89021 4 8.41379 4.73821 8.41379 5.65517V7.86207H11.7241V8.41379H5.65517C4.73821 8.41379 4 9.89021 4 11.7241V12.2759C4 14.1098 4.73821 15.5862 5.65517 15.5862H7.86207V13.931C7.86207 13.931 7.86207 11.7241 10.069 11.7241H14.4828C14.4828 11.7241 15.5862 11.7241 15.5862 10.6207V5.65517C15.5862 4.73821 14.1098 4 12.2759 4H11.7241ZM10.069 5.10345C10.3737 5.10345 10.6207 5.35047 10.6207 5.65517C10.6207 5.95988 10.3737 6.2069 10.069 6.2069C9.76426 6.2069 9.51724 5.95988 9.51724 5.65517C9.51724 5.35047 9.76426 5.10345 10.069 5.10345Z" fill="#347AB4"/>
<path d="M12.2759 20C14.1098 20 15.5862 19.2618 15.5862 18.3448V16.1379H12.2759V15.5862H18.3448C19.2618 15.5862 20 14.1098 20 12.2759V11.7241C20 9.89021 19.2618 8.41379 18.3448 8.41379H16.1379V10.6207C16.1379 12.2759 14.4828 12.2759 14.4828 12.2759H10.069C8.41379 12.2759 8.41379 13.931 8.41379 13.931V18.3448C8.41379 19.2618 9.89021 20 11.7241 20H12.2759ZM13.931 18.3448C13.6263 18.3448 13.3793 18.0978 13.3793 17.7931C13.3793 17.4884 13.6263 17.2414 13.931 17.2414C14.2357 17.2414 14.4828 17.4884 14.4828 17.7931C14.4828 18.0978 14.2357 18.3448 13.931 18.3448Z" fill="#FFD43B"/>
<defs>
<radialGradient id="paint0_radial_3_167" cx="0" cy="0" r="1" gradientUnits="userSpaceOnUse" gradientTransform="translate(17 2) rotate(116.565) scale(22.3607)">
<stop stop-color="#F4F4F4"/>
<stop offset="1" stop-color="#BBBBBB"/>
</radialGradient>
</defs>
</svg>
