<svg width="24" height="24" viewBox="0 0 24 24" fill="none" xmlns="http://www.w3.org/2000/svg">
<rect x="1" y="1" width="22" height="22" rx="6.6" fill="url(#paint0_radial_21_2069)"/>
<path d="M19.1279 8.36906C20.0091 10.0986 20.2316 12.0895 19.7539 13.9709C19.2761 15.8523 18.1308 17.4956 16.5314 18.5948C14.932 19.6939 12.9878 20.1738 11.0605 19.9452C9.13348 19.7166 7.35489 18.7951 6.05613 17.3526C3.36956 14.3689 3.30854 9.85753 5.91535 6.80487C8.40213 3.89276 12.5814 3.16905 15.8845 5.00689C16.044 5.09564 16.2015 5.19035 16.3566 5.2911" stroke="#888888" stroke-width="0.290894" stroke-dasharray="1.09 1.09"/>
<path d="M12.0003 18.401C15.5348 18.401 18.4001 15.5357 18.4001 12.0012C18.4001 8.46666 15.5348 5.60137 12.0003 5.60137C8.46577 5.60137 5.60048 8.46666 5.60048 12.0012C5.60048 15.5357 8.46577 18.401 12.0003 18.401Z" fill="#1A7FD4"/>
<path d="M14.6184 10.8375C15.4217 10.8375 16.073 10.1863 16.073 9.38303C16.073 8.57973 15.4217 7.92852 14.6184 7.92852C13.8151 7.92852 13.1639 8.57973 13.1639 9.38303C13.1639 10.1863 13.8151 10.8375 14.6184 10.8375Z" fill="white"/>
<path d="M18.1091 7.34684C18.9124 7.34684 19.5636 6.69564 19.5636 5.89234C19.5636 5.08903 18.9124 4.43783 18.1091 4.43783C17.3058 4.43783 16.6546 5.08903 16.6546 5.89234C16.6546 6.69564 17.3058 7.34684 18.1091 7.34684Z" fill="#1A7FD4"/>
<defs>
<radialGradient id="paint0_radial_21_2069" cx="0" cy="0" r="1" gradientUnits="userSpaceOnUse" gradientTransform="translate(17.5 1) rotate(116.565) scale(24.5967)">
<stop stop-color="#F4F4F4"/>
<stop offset="1" stop-color="#BBBBBB"/>
</radialGradient>
</defs>
</svg>
