<svg width="24" height="24" viewBox="0 0 24 24" fill="none" xmlns="http://www.w3.org/2000/svg">
<rect x="1" y="1" width="22" height="22" rx="6.6" fill="url(#paint0_radial_6_222)"/>
<g opacity="0.15" filter="url(#filter0_f_6_222)">
<path d="M5.875 10.25H12.875C13.3598 10.25 13.75 10.6402 13.75 11.125V18.125C13.75 18.6098 13.3598 19 12.875 19H5.875C5.39025 19 5 18.6098 5 18.125V11.125C5 10.6402 5.39025 10.25 5.875 10.25Z" fill="black"/>
<path d="M5.875 10.25H12.875C13.3598 10.25 13.75 10.6402 13.75 11.125V18.125C13.75 18.6098 13.3598 19 12.875 19H5.875C5.39025 19 5 18.6098 5 18.125V11.125C5 10.6402 5.39025 10.25 5.875 10.25Z" stroke="black" stroke-opacity="0.294" stroke-width="0.4375" stroke-linejoin="round"/>
</g>
<path d="M5.875 10.25H12.875C13.3598 10.25 13.75 10.6402 13.75 11.125V18.125C13.75 18.6098 13.3598 19 12.875 19H5.875C5.39025 19 5 18.6098 5 18.125V11.125C5 10.6402 5.39025 10.25 5.875 10.25Z" fill="#E6E6E6"/>
<path d="M8.3985 11.5467C8.3646 11.5478 8.33228 11.5615 8.30774 11.585C8.2832 11.6086 8.26816 11.6405 8.2655 11.6745L8.2445 11.8722C8.22394 12.0407 8.20775 12.1846 8.19638 12.3036C8.19638 12.3039 8.19638 12.3042 8.19638 12.3045L8.17538 12.5267C8.17538 12.527 8.17538 12.5273 8.17538 12.5276L8.17188 12.5626C7.95006 12.5757 7.72344 12.5849 7.48369 12.5849C7.29863 12.5849 7.1105 12.5788 6.92019 12.5652C6.90034 12.5638 6.88043 12.5668 6.86182 12.5739C6.8432 12.5809 6.82633 12.592 6.81237 12.6062C6.7984 12.6205 6.78767 12.6376 6.7809 12.6565C6.77414 12.6753 6.77151 12.6954 6.77319 12.7153L6.81825 13.2119C6.8212 13.2449 6.83579 13.2757 6.85938 13.2988C6.88298 13.322 6.91402 13.3358 6.94688 13.3379C7.02563 13.3427 7.12625 13.3457 7.25269 13.3457C7.527 13.3457 7.81838 13.33 8.115 13.3099C8.09146 13.6002 8.07483 13.8911 8.06513 14.1822C7.86738 14.2934 7.6915 14.3979 7.56506 14.4907C7.56448 14.491 7.5639 14.4913 7.56331 14.4916C6.83006 15.0472 6.44069 15.6969 6.44069 16.4152C6.44069 16.6817 6.49756 16.9022 6.63188 17.0601C6.76575 17.2181 6.97138 17.2937 7.20763 17.2937C7.53356 17.2937 7.87044 17.1603 8.21431 16.949C8.23094 17.0514 8.25281 17.1874 8.26025 17.2277C8.26376 17.2477 8.27161 17.2667 8.28323 17.2833C8.29485 17.3 8.30996 17.3138 8.32749 17.3239C8.34502 17.334 8.36455 17.3401 8.38468 17.3418C8.40481 17.3435 8.42507 17.3406 8.444 17.3336L8.95544 17.1428C8.98755 17.1307 9.01401 17.1069 9.02962 17.0761C9.04524 17.0454 9.04889 17.0099 9.03988 16.9766C8.99034 16.7862 8.95481 16.5924 8.93356 16.3969C9.49181 15.8535 9.942 15.1741 10.2942 14.3734C10.5344 14.4111 10.7418 14.4762 10.9076 14.5782C10.9079 14.5785 10.9081 14.5788 10.9084 14.5791C11.2856 14.807 11.4558 15.1062 11.4558 15.5332C11.4558 15.9467 11.2707 16.2608 10.8573 16.5202C10.5344 16.7246 10.0894 16.8619 9.52069 16.9227C9.49721 16.9253 9.47477 16.9338 9.45552 16.9476C9.43627 16.9613 9.42086 16.9798 9.41076 17.0013C9.40066 17.0228 9.39621 17.0465 9.39784 17.0702C9.39947 17.0939 9.40712 17.1168 9.42006 17.1367L9.72369 17.6092C9.73805 17.6312 9.75835 17.6487 9.78221 17.6595C9.80608 17.6704 9.83252 17.6742 9.85844 17.6704C10.5392 17.5733 11.0861 17.3782 11.4929 17.075C12.0114 16.6882 12.2848 16.1628 12.2848 15.5402C12.2848 14.9741 12.0564 14.4946 11.6181 14.1433C11.6175 14.143 11.6169 14.1427 11.6163 14.1424C11.3394 13.9263 10.9706 13.7964 10.5405 13.7216C10.5659 13.6437 10.5983 13.5527 10.6096 13.5002C10.6174 13.4645 10.6109 13.4271 10.5915 13.3963C10.5721 13.3654 10.5413 13.3434 10.5059 13.3352L9.98444 13.2136C9.94921 13.2054 9.91217 13.2114 9.88132 13.2304C9.85046 13.2494 9.82826 13.2798 9.8195 13.3151C9.78231 13.4634 9.7495 13.5785 9.71669 13.687C9.40213 13.7207 9.12081 13.7789 8.86356 13.855C8.87275 13.6415 8.88456 13.4354 8.90294 13.2456C9.627 13.1664 10.3043 13.0509 10.9264 12.8934C10.9588 12.8853 10.9872 12.8656 11.0063 12.838C11.0253 12.8104 11.0338 12.7767 11.0301 12.7433L10.9749 12.2533C10.9727 12.2334 10.9662 12.2142 10.9559 12.197C10.9456 12.1799 10.9317 12.1652 10.9152 12.1539C10.8987 12.1427 10.8799 12.1352 10.8603 12.132C10.8406 12.1287 10.8205 12.1298 10.8013 12.1352C10.1931 12.3032 9.585 12.4169 8.97775 12.4904C9.00225 12.2586 9.02894 12.0201 9.06394 11.7379C9.06623 11.7192 9.06469 11.7002 9.05943 11.6821C9.05416 11.664 9.04528 11.6471 9.03332 11.6326C9.02136 11.618 9.00657 11.6061 8.98987 11.5975C8.97317 11.5889 8.9549 11.5839 8.93619 11.5826L8.41119 11.5476C8.40683 11.5471 8.40289 11.5468 8.3985 11.5467ZM9.40606 14.4307C9.25249 14.7535 9.06678 15.06 8.85175 15.3456C8.843 15.1181 8.83425 14.8967 8.83338 14.5861C9.01581 14.5161 9.21094 14.4732 9.40606 14.4307ZM8.066 15.0367C8.07475 15.4471 8.08831 15.8303 8.11325 16.1208C7.81006 16.3881 7.53706 16.5194 7.30081 16.5194C7.25881 16.5194 7.25444 16.5128 7.25094 16.5089C7.24744 16.5049 7.23519 16.4848 7.23519 16.4292C7.23519 16.3986 7.2295 16.3702 7.22381 16.3417C7.22731 16.319 7.23519 16.2954 7.23519 16.2726L7.23431 16.2831C7.25881 15.9681 7.43556 15.6299 7.78994 15.2694C7.79038 15.2689 7.79082 15.2683 7.79125 15.2677C7.88794 15.1649 7.975 15.1093 8.066 15.0367Z" fill="#999999"/>
<g opacity="0.15" filter="url(#filter1_f_6_222)">
<path d="M11.125 5C10.6402 5 10.25 5.39025 10.25 5.875V12.875C10.25 13.3598 10.6402 13.75 11.125 13.75H18.125C18.6098 13.75 19 13.3598 19 12.875V5.875C19 5.39025 18.6098 5 18.125 5H11.125Z" fill="#074271"/>
<path d="M11.125 5C10.6402 5 10.25 5.39025 10.25 5.875V12.875C10.25 13.3598 10.6402 13.75 11.125 13.75H18.125C18.6098 13.75 19 13.3598 19 12.875V5.875C19 5.39025 18.6098 5 18.125 5H11.125Z" stroke="#0B5FA1" stroke-width="0.4375" stroke-linejoin="round"/>
</g>
<path d="M11.125 5C10.6402 5 10.25 5.39025 10.25 5.875V12.875C10.25 13.3598 10.6402 13.75 11.125 13.75H18.125C18.6098 13.75 19 13.3598 19 12.875V5.875C19 5.39025 18.6098 5 18.125 5H11.125Z" fill="#44A5F3"/>
<path d="M14.1604 6.75L12.2043 12H13.1047L13.6472 10.425H15.5875L16.137 12H17.047L15.0905 6.75H14.1604ZM14.625 7.61625L15.4081 9.9H13.827L14.625 7.61625Z" fill="white"/>
<defs>
<filter id="filter0_f_6_222" x="4.51875" y="9.76875" width="9.7125" height="9.7125" filterUnits="userSpaceOnUse" color-interpolation-filters="sRGB">
<feFlood flood-opacity="0" result="BackgroundImageFix"/>
<feBlend mode="normal" in="SourceGraphic" in2="BackgroundImageFix" result="shape"/>
<feGaussianBlur stdDeviation="0.13125" result="effect1_foregroundBlur_6_222"/>
</filter>
<filter id="filter1_f_6_222" x="9.59375" y="4.34375" width="10.0625" height="10.0625" filterUnits="userSpaceOnUse" color-interpolation-filters="sRGB">
<feFlood flood-opacity="0" result="BackgroundImageFix"/>
<feBlend mode="normal" in="SourceGraphic" in2="BackgroundImageFix" result="shape"/>
<feGaussianBlur stdDeviation="0.21875" result="effect1_foregroundBlur_6_222"/>
</filter>
<radialGradient id="paint0_radial_6_222" cx="0" cy="0" r="1" gradientUnits="userSpaceOnUse" gradientTransform="translate(17.5 1) rotate(116.565) scale(24.5967)">
<stop stop-color="#F4F4F4"/>
<stop offset="1" stop-color="#BBBBBB"/>
</radialGradient>
</defs>
</svg>
