<svg width="24" height="24" viewBox="0 0 24 24" fill="none" xmlns="http://www.w3.org/2000/svg">
<rect x="1" y="1" width="22" height="22" rx="6.6" fill="url(#paint0_radial_21_1875)"/>
<g opacity="0.75">
<path d="M17.648 6.3478C17.5922 6.40478 19.9965 11.9992 19.9965 11.9992L17.648 17.6484C17.648 17.6484 11.9977 14.6622 11.9977 11.9981C11.9977 9.33516 17.648 6.3478 17.648 6.3478Z" fill="#46A926"/>
<path d="M6.34849 17.6484C6.40546 17.5914 4 11.9981 4 11.9981L6.34849 6.3478C6.34849 6.3478 11.9988 9.33516 11.9988 11.9992C11.9988 14.6622 6.34849 17.6484 6.34849 17.6484Z" fill="#F22C42"/>
<path d="M17.648 6.3478C17.5922 6.40478 11.9977 4 11.9977 4L6.34733 6.3478L11.9977 11.9992L17.648 6.3478Z" fill="#FFDA64"/>
<path d="M6.3485 17.6484L11.9988 19.9892C11.9988 19.9892 17.591 17.5914 17.6492 17.6484L11.9988 11.9981L6.3485 17.6484Z" fill="#2F5FDD"/>
<path d="M11.9988 4.00349C11.9977 6.04778 12.7801 8.09207 14.3462 9.65727L17.6538 6.35012C16.1554 4.84963 14.1227 4.00558 12.0023 4.00349H11.9988Z" fill="#A6D74F"/>
<path d="M17.6538 6.35012L14.3462 9.65727C15.0874 10.4013 15.9687 10.9912 16.9391 11.3927C17.9095 11.7943 18.9498 11.9997 20 11.9969C19.9964 9.87819 19.1526 7.8474 17.6538 6.35012Z" fill="#76C22B"/>
<path d="M14.338 14.3459C13.5933 15.0869 13.0025 15.9679 12.5996 16.9382C12.1968 17.9085 11.9898 18.949 11.9907 19.9997H12.0709C14.1658 19.9804 16.1696 19.14 17.6515 17.6588L14.338 14.3459Z" fill="#1463A5"/>
<path d="M20 12.0062C18.9485 12.0024 17.9066 12.2072 16.9347 12.6088C15.9629 13.0104 15.0803 13.6008 14.338 14.3459L17.6515 17.66C19.1528 16.1614 19.9976 14.1277 20 12.0062Z" fill="#2B898F"/>
<path d="M4.00349 11.9992C4.00349 12.0004 4.00349 12.0016 4.00349 12.0027C4.00558 14.1212 4.84765 16.1524 6.34501 17.6507L9.65848 14.3389C8.91702 13.5949 8.03553 13.0051 7.06491 12.6037C6.09429 12.2024 5.05379 11.9962 4.00349 11.9992Z" fill="#9B33AE"/>
<path d="M9.65732 14.3389L6.34384 17.6507C7.83189 19.1421 9.8481 19.9862 11.9547 19.9997H12.0046C12.0064 18.9478 11.7999 17.906 11.397 16.9345C10.9942 15.9629 10.4029 15.0807 9.65732 14.3389Z" fill="#7839B7"/>
<path d="M12.0023 4.00349C9.8837 4.00558 7.85244 4.84827 6.35431 6.34663L9.66545 9.65727C10.41 8.91642 11.0008 8.03559 11.4036 7.06547C11.8065 6.09535 12.0135 5.05512 12.0128 4.00465C12.0089 4.00465 12.005 4.00465 12.0012 4.00465L12.0023 4.00349Z" fill="#FDC92B"/>
<path d="M6.35431 6.34663C4.8534 7.8442 4.00828 9.87647 4.00465 11.9969C5.056 12.0006 6.09764 11.7957 7.0693 11.3941C8.04096 10.9925 8.92336 10.4022 9.66545 9.65727L6.35431 6.34663Z" fill="#F34F17"/>
</g>
<path opacity="0.35" d="M12.0001 17.714C15.156 17.714 17.7143 15.1556 17.7143 11.9997C17.7143 8.84381 15.156 6.28545 12.0001 6.28545C8.84417 6.28545 6.28581 8.84381 6.28581 11.9997C6.28581 15.1556 8.84417 17.714 12.0001 17.714Z" fill="white"/>
<defs>
<radialGradient id="paint0_radial_21_1875" cx="0" cy="0" r="1" gradientUnits="userSpaceOnUse" gradientTransform="translate(17.5 1) rotate(116.565) scale(24.5967)">
<stop stop-color="#F4F4F4"/>
<stop offset="1" stop-color="#BBBBBB"/>
</radialGradient>
</defs>
</svg>
