<svg width="24" height="24" viewBox="0 0 24 24" fill="none" xmlns="http://www.w3.org/2000/svg">
<rect x="1" y="1" width="22" height="22" rx="6.6" fill="url(#paint0_radial_21_1642)"/>
<path d="M7.42948 4V4.43242H14.2861V4H7.42948ZM7.42948 5.29723V5.72965H20V5.29723H7.42948ZM7.42948 6.59448V7.0269H12.0005V6.59448H7.42948Z" fill="#76C22B"/>
<path d="M4 16.9727V17.4051H19.9989V16.9727H4Z" fill="#76C22B"/>
<path d="M6.28488 9.18906V9.62148H15.7127V9.18906H6.28488ZM6.28488 10.4863V10.9187H9.71328V10.4863H6.28488ZM6.28488 11.7835V12.2159H14.2843V11.7835H6.28488Z" fill="#8F76E4"/>
<path d="M4 7.89172V8.32413H8.57106V7.89172H4Z" fill="#46A926"/>
<path d="M9.71436 13.0808V13.5132H13.1428V13.0808H9.71436ZM6.28596 14.378V14.8104H13.1425V14.378H6.28596Z" fill="#76C22B"/>
<path d="M4 13.0808V13.5132H8.57106V13.0808H4ZM4 15.6753V16.1077H8.57106V15.6753H4Z" fill="#46A926"/>
<path d="M4 4V4.43242H6.28553V4H4ZM4 5.29723V5.72965H6.28553V5.29723H4ZM4 6.59448V7.0269H6.28553V6.59448H4Z" fill="#46A926"/>
<path d="M14.2863 14.378V14.8104H17.7147V14.378H14.2863Z" fill="#F22C42"/>
<path d="M10.8568 10.4862V10.9187H14.2852V10.4862H10.8568Z" fill="#F22C42"/>
<path d="M4 18.2703V18.7028H19.9989V18.2703H4ZM4 19.5676V20H11.9995V19.5676H4Z" fill="#76C22B"/>
<defs>
<radialGradient id="paint0_radial_21_1642" cx="0" cy="0" r="1" gradientUnits="userSpaceOnUse" gradientTransform="translate(17.5 1) rotate(116.565) scale(24.5967)">
<stop stop-color="#F4F4F4"/>
<stop offset="1" stop-color="#BBBBBB"/>
</radialGradient>
</defs>
</svg>
