<svg width="24" height="24" viewBox="0 0 24 24" fill="none" xmlns="http://www.w3.org/2000/svg">
<rect x="1" y="1" width="22" height="22" rx="6.6" fill="url(#paint0_radial_3_167)"/>
<path d="M11.6966 3.2C9.67923 3.2 8.05517 4.01203 8.05517 5.02069V7.44828H11.6966V8.05517H5.02069C4.01203 8.05517 3.2 9.67923 3.2 11.6966V12.3034C3.2 14.3208 4.01203 15.9448 5.02069 15.9448H7.44828V14.1241C7.44828 14.1241 7.44828 11.6966 9.87586 11.6966H14.731C14.731 11.6966 15.9448 11.6966 15.9448 10.4828V5.02069C15.9448 4.01203 14.3208 3.2 12.3034 3.2H11.6966ZM9.87586 4.41379C10.211 4.41379 10.4828 4.68552 10.4828 5.02069C10.4828 5.35586 10.211 5.62759 9.87586 5.62759C9.54069 5.62759 9.26897 5.35586 9.26897 5.02069C9.26897 4.68552 9.54069 4.41379 9.87586 4.41379Z" fill="#347AB4"/>
<path d="M12.3034 20.8C14.3208 20.8 15.9448 19.988 15.9448 18.9793V16.5517H12.3034V15.9448H18.9793C19.988 15.9448 20.8 14.3208 20.8 12.3034V11.6966C20.8 9.67923 19.988 8.05517 18.9793 8.05517H16.5517V10.4828C16.5517 12.3034 14.731 12.3034 14.731 12.3034H9.87586C8.05517 12.3034 8.05517 14.1241 8.05517 14.1241V18.9793C8.05517 19.988 9.67923 20.8 11.6966 20.8H12.3034ZM14.1241 18.9793C13.789 18.9793 13.5172 18.7076 13.5172 18.3724C13.5172 18.0372 13.789 17.7655 14.1241 17.7655C14.4593 17.7655 14.731 18.0372 14.731 18.3724C14.731 18.7076 14.4593 18.9793 14.1241 18.9793Z" fill="#FFD43B"/>
<defs>
<radialGradient id="paint0_radial_3_167" cx="0" cy="0" r="1" gradientUnits="userSpaceOnUse" gradientTransform="translate(17.5 1) rotate(116.565) scale(24.5967)">
<stop stop-color="#F4F4F4"/>
<stop offset="1" stop-color="#BBBBBB"/>
</radialGradient>
</defs>
</svg>
