<svg width="24" height="24" viewBox="0 0 24 24" fill="none" xmlns="http://www.w3.org/2000/svg">
<rect x="1" y="1" width="22" height="22" rx="6.6" fill="url(#paint0_radial_21_1244)"/>
<path d="M14.3639 6C13.9355 6 13.5315 6.07958 13.1605 6.23985L13.1597 6.2401L13.1592 6.24035C12.7903 6.39264 12.4656 6.6155 12.1942 6.90401L12.1937 6.90451L12.1912 6.90716L12.1905 6.90816C11.9261 7.19819 11.7211 7.54745 11.5759 7.94769L11.5757 7.94844C11.4288 8.34661 11.3566 8.78482 11.3566 9.25764C11.3566 9.73749 11.4285 10.1788 11.5757 10.5776C11.7211 10.9716 11.9264 11.3171 12.1905 11.6069L12.1912 11.6079L12.1929 11.6101L12.1937 11.6109C12.4651 11.8994 12.789 12.1259 13.1573 12.2855L13.158 12.2857L13.1595 12.2865L13.1607 12.287L13.1615 12.2872C13.5324 12.44 13.9358 12.5154 14.3639 12.5154C14.7921 12.5154 15.1958 12.4399 15.5666 12.2872L15.5689 12.2862L15.5708 12.2855C15.9396 12.1256 16.2607 11.8978 16.5253 11.6077L16.5261 11.6069C16.7974 11.3175 17.0071 10.9717 17.1526 10.5777C17.2998 10.1789 17.3712 9.73761 17.3712 9.25769C17.3712 8.78559 17.2995 8.34812 17.1531 7.95044L17.1521 7.94744C17.0068 7.54716 16.7976 7.19784 16.526 6.90816L16.5253 6.90741C16.2604 6.61711 15.9384 6.39292 15.5688 6.24035L15.568 6.2401L15.5675 6.23985C15.1973 6.07997 14.7938 6.00034 14.3663 6.00009L14.3639 6ZM14.3627 6.51099H14.3639C14.7309 6.51099 15.063 6.57778 15.3676 6.70981L15.3683 6.71006L15.3698 6.71081L15.3711 6.71131L15.3718 6.71156C15.6771 6.83725 15.9335 7.01611 16.1488 7.25231L16.1498 7.25331L16.1522 7.25616C16.3744 7.4928 16.5478 7.77925 16.6725 8.12376L16.6747 8.12962L16.6755 8.13323C16.7972 8.46608 16.8601 8.83965 16.8601 9.25774C16.8601 9.68693 16.7962 10.0663 16.6728 10.4006C16.5483 10.7378 16.3751 11.0216 16.152 11.2592L16.1513 11.2599L16.1496 11.2622L16.1488 11.2629C15.9336 11.4991 15.6766 11.6815 15.3714 11.8144L15.3706 11.8149L15.3699 11.8152C15.0649 11.9404 14.7318 12.0042 14.3641 12.0042C13.9963 12.0042 13.6632 11.9404 13.3582 11.8152L13.3575 11.8149L13.3567 11.8144C13.0515 11.6815 12.7904 11.4985 12.5673 11.2617L12.5663 11.2606C12.3503 11.0232 12.1798 10.7387 12.055 10.4007C11.9316 10.0663 11.8677 9.68699 11.8677 9.2578C11.8677 8.83888 11.9309 8.46488 12.0531 8.13152L12.0545 8.12642L12.055 8.12542L12.0555 8.12372C12.1805 7.77837 12.3511 7.49127 12.5663 7.25466L12.5668 7.25416L12.5673 7.25341C12.7904 7.01655 13.0508 6.83705 13.356 6.71141L13.3582 6.71066L13.3604 6.70966C13.6646 6.57779 13.9963 6.51112 14.3627 6.51099ZM8.15382 7.50174C7.8293 7.50174 7.52108 7.56243 7.23835 7.68444L7.23785 7.68469L7.23735 7.68494C6.9562 7.80106 6.7074 7.97164 6.50045 8.19177L6.4997 8.19277L6.49865 8.19382L6.4979 8.19482C6.29591 8.41637 6.13985 8.68301 6.02992 8.98644L6.02942 8.98769C6.0293 8.98781 6.0293 8.98806 6.02917 8.98819C5.9181 9.29008 5.86406 9.62098 5.86406 9.9762C5.86406 10.3374 5.91823 10.6719 6.03016 10.975C6.14029 11.2732 6.29654 11.5367 6.49791 11.7576L6.49866 11.7586L6.50036 11.7605C6.70715 11.9804 6.95496 12.1534 7.2353 12.2749L7.2358 12.2751L7.2407 12.2774C7.52287 12.3933 7.83027 12.4505 8.15397 12.4505C8.47775 12.4505 8.78451 12.3936 9.06674 12.2776C9.06687 12.2775 9.06712 12.2775 9.06724 12.2774L9.0699 12.2759L9.07215 12.2749C9.35271 12.1533 9.59839 11.9795 9.80028 11.7583L9.80078 11.7578L9.80103 11.7573C10.0077 11.5368 10.1674 11.2733 10.2776 10.975C10.3895 10.6718 10.4434 10.3375 10.4434 9.9762C10.4434 9.62069 10.3893 9.28953 10.2781 8.98744L10.2778 8.98644C10.1677 8.68255 10.0082 8.41573 9.80052 8.19433L9.80002 8.19383L9.79977 8.19332C9.59787 7.97216 9.35129 7.80102 9.07024 7.68494L9.06919 7.68444C8.78645 7.56241 8.47837 7.50174 8.15382 7.50174ZM8.13888 8.01298H8.15382C8.41679 8.01298 8.65271 8.06066 8.869 8.1544L8.86975 8.15465L8.87145 8.15515L8.8737 8.15615C9.09034 8.24533 9.27074 8.37159 9.423 8.53841L9.42451 8.53991L9.42676 8.54181C9.58466 8.70976 9.70805 8.91378 9.79754 9.16099L9.79879 9.1646C9.88661 9.4033 9.9324 9.67243 9.9324 9.97622C9.9324 10.2867 9.88644 10.5592 9.79831 10.7979C9.70904 11.0397 9.58523 11.2415 9.42657 11.4102L9.42582 11.4112L9.42507 11.412L9.42457 11.4127L9.42382 11.4137C9.27107 11.5813 9.08895 11.7102 8.87157 11.8048L8.87056 11.8053L8.86981 11.8055C8.65359 11.894 8.41722 11.9399 8.15393 11.9399C7.89053 11.9399 7.65387 11.8941 7.43755 11.8055L7.4368 11.8053L7.43605 11.8048C7.21883 11.7103 7.03396 11.5807 6.87549 11.4128L6.87499 11.4123L6.87449 11.4115C6.7212 11.2429 6.59918 11.0411 6.50957 10.7984C6.42141 10.5596 6.37549 10.287 6.37549 9.97649C6.37549 9.6723 6.4213 9.40278 6.50935 9.16387C6.50947 9.16349 6.50947 9.16272 6.5096 9.16242L6.5101 9.16091C6.59989 8.91286 6.72201 8.70874 6.87453 8.54098L6.87558 8.53993C7.03379 8.3723 7.21747 8.24517 7.43419 8.15597L7.43609 8.15522L7.43834 8.15422C7.64902 8.06292 7.8797 8.01717 8.13446 8.01475L8.13888 8.01298ZM14.4353 13.6181C12.1818 13.6181 10.808 13.8236 9.94967 14.4598C9.52185 14.7768 9.24059 15.2068 9.07892 15.7213C8.92331 16.2165 8.87196 16.8375 8.86642 17.5116L9.37766 17.5129C9.38333 16.8671 9.43549 16.2924 9.56671 15.8748C9.70325 15.4402 9.91421 15.1224 10.2543 14.8704C10.9382 14.3636 12.2157 14.1291 14.4353 14.1291C16.6551 14.1291 17.9325 14.3637 18.6158 14.8704C18.9555 15.1223 19.1662 15.44 19.3022 15.8745C19.4328 16.2921 19.484 16.8666 19.4888 17.5124L20 17.5119C19.9956 16.8377 19.9451 16.2171 19.7902 15.7218C19.6292 15.2073 19.3478 14.7769 18.9201 14.4598C18.0621 13.8235 16.6888 13.6181 14.4353 13.6181ZM8.00182 13.511C6.40423 13.5159 5.46054 13.6715 4.8204 14.149C4.49649 14.3907 4.28125 14.7241 4.16044 15.1158C4.03919 15.509 4.00119 15.9626 4 16.4985V17.2628H4.51099V16.4992C4.51219 15.9885 4.55188 15.5805 4.64874 15.2665C4.74507 14.9542 4.89073 14.7342 5.12575 14.5588C5.59296 14.2103 6.44046 14.0284 8.00183 14.0224L8.00182 13.511Z" fill="#F9B72B"/>
<defs>
<radialGradient id="paint0_radial_21_1244" cx="0" cy="0" r="1" gradientUnits="userSpaceOnUse" gradientTransform="translate(17.5 1) rotate(116.565) scale(24.5967)">
<stop stop-color="#F4F4F4"/>
<stop offset="1" stop-color="#BBBBBB"/>
</radialGradient>
</defs>
</svg>
