<svg width="24" height="24" viewBox="0 0 24 24" fill="none" xmlns="http://www.w3.org/2000/svg">
<rect x="1" y="1" width="22" height="22" rx="6.6" fill="url(#paint0_radial_6_383)"/>
<path d="M11.8777 5.00004C11.2555 5.00004 10.6851 5.07124 10.1666 5.21383C9.661 5.35642 9.27223 5.50552 9 5.66107L9.36931 6.71106C10.0823 6.32217 10.873 6.12779 11.7415 6.12779C12.0526 6.12779 12.3508 6.1537 12.636 6.20555C12.9211 6.2574 13.1675 6.35468 13.3749 6.49726C13.5953 6.63985 13.7703 6.83424 13.8999 7.08054C14.0295 7.31388 14.0942 7.61206 14.0942 7.97502C14.0942 8.37688 14.0165 8.73974 13.861 9.0638C13.7054 9.37491 13.511 9.6731 13.2777 9.95829C13.0443 10.2305 12.7915 10.5028 12.5192 10.775C12.247 11.0343 11.9943 11.3129 11.761 11.611C11.5276 11.9092 11.3332 12.2333 11.1777 12.5833C11.0221 12.9203 10.9443 13.3093 10.9443 13.75C10.9443 13.9055 10.9507 14.061 10.9637 14.2165C10.9767 14.3591 10.9961 14.4954 11.022 14.625H12.0332C12.0203 14.5602 12.0138 14.4953 12.0138 14.4305V14.1C12.0138 13.6722 12.098 13.2833 12.2665 12.9333C12.435 12.5833 12.649 12.2592 12.9082 11.961C13.1675 11.6499 13.4398 11.3517 13.7249 11.0665C14.0231 10.7814 14.3017 10.4833 14.561 10.1722C14.8202 9.86113 15.0342 9.524 15.2027 9.16103C15.3712 8.79807 15.4554 8.38323 15.4554 7.91655C15.4554 7.57952 15.3971 7.23603 15.2804 6.88604C15.1638 6.53604 14.9692 6.22499 14.697 5.95276C14.4248 5.66759 14.0554 5.44076 13.5887 5.27224C13.135 5.09076 12.5648 5.00004 11.8777 5.00004ZM11.625 16.861C11.2879 16.861 11.0222 16.9648 10.8277 17.1722C10.6463 17.3797 10.5555 17.6324 10.5555 17.9305C10.5555 18.2287 10.6463 18.4814 10.8277 18.6888C11.0222 18.8962 11.2879 19 11.625 19C11.962 19 12.2213 18.8962 12.4027 18.6888C12.5972 18.4814 12.6943 18.2287 12.6943 17.9305C12.6943 17.6324 12.5972 17.3797 12.4027 17.1722C12.2213 16.9648 11.962 16.861 11.625 16.861Z" fill="#999999"/>
<defs>
<radialGradient id="paint0_radial_6_383" cx="0" cy="0" r="1" gradientUnits="userSpaceOnUse" gradientTransform="translate(17.5 1) rotate(116.565) scale(24.5967)">
<stop stop-color="#F4F4F4"/>
<stop offset="1" stop-color="#BBBBBB"/>
</radialGradient>
</defs>
</svg>
