<svg width="24" height="24" viewBox="0 0 24 24" fill="none" xmlns="http://www.w3.org/2000/svg">
<rect x="2" y="2" width="20" height="20" rx="6" fill="url(#paint0_radial_2_9)"/>
<path d="M15.4172 14.6431C15.4172 15.7864 14.4904 16.7132 13.3471 16.7132H6.84117C5.6979 16.7132 4.7711 15.7864 4.7711 14.6431V9.32008C4.7711 8.1768 5.6979 7.25 6.84117 7.25H13.3471C14.4904 7.25 15.4172 8.1768 15.4172 9.32008V14.6431ZM18.2889 8.1348C18.8014 8.1348 19.2202 8.53594 19.2485 9.04137L19.25 9.09591V14.9097C19.25 15.136 19.1701 15.3551 19.0245 15.5283C18.6956 15.9195 18.1212 15.9826 17.7163 15.6817L17.6704 15.6453L16.3562 14.5403C16.1359 14.355 16.0087 14.0818 16.0087 13.794V10.2289C16.0087 9.94361 16.1336 9.67266 16.3505 9.4874L17.6647 8.36509C17.8213 8.23132 18.0162 8.1518 18.2205 8.13723L18.2889 8.1348Z" fill="url(#paint1_linear_2_9)"/>
<path fill-rule="evenodd" clip-rule="evenodd" d="M14.9641 15.9358C15.2476 15.5816 15.4172 15.1322 15.4172 14.6431V10.2725L16.1436 9.65217C16.1858 9.61613 16.2308 9.58402 16.278 9.55607C16.106 9.73646 16.0087 9.9771 16.0087 10.2289V13.794C16.0087 14.0818 16.1359 14.355 16.3562 14.5403L17.6704 15.6453L17.7163 15.6817C17.7205 15.6848 17.7247 15.6879 17.7289 15.6909V16.1968C17.7289 16.4231 17.6491 16.6421 17.5034 16.8153C17.1745 17.2066 16.6001 17.2697 16.1952 16.9688L16.1493 16.9324L14.9641 15.9358ZM13.7592 16.6722C13.4608 17.449 12.7078 18.0003 11.826 18.0003H5.32008C4.1768 18.0003 3.25 17.0735 3.25 15.9302V10.6072C3.25 9.60497 3.96218 8.76912 4.90805 8.57809C4.81958 8.80843 4.7711 9.05859 4.7711 9.32008V14.6431C4.7711 15.7864 5.6979 16.7132 6.84117 16.7132H13.3471C13.4882 16.7132 13.626 16.6991 13.7592 16.6722Z" fill="url(#paint2_linear_2_9)" fill-opacity="0.75"/>
<defs>
<radialGradient id="paint0_radial_2_9" cx="0" cy="0" r="1" gradientUnits="userSpaceOnUse" gradientTransform="translate(17 2) rotate(116.565) scale(22.3607)">
<stop stop-color="#967CCC"/>
<stop offset="1" stop-color="#5E35B1"/>
</radialGradient>
<linearGradient id="paint1_linear_2_9" x1="19.2254" y1="7.25" x2="4.87251" y2="16.6106" gradientUnits="userSpaceOnUse">
<stop stop-color="#FAFAFA"/>
<stop offset="1" stop-color="#C0C0C0"/>
</linearGradient>
<linearGradient id="paint2_linear_2_9" x1="5.12212" y1="17.2346" x2="19.475" y2="7.25" gradientUnits="userSpaceOnUse">
<stop stop-color="#471F99" stop-opacity="0.45"/>
<stop offset="1" stop-color="#471F99" stop-opacity="0"/>
</linearGradient>
</defs>
</svg>
