<svg width="24" height="24" viewBox="0 0 24 24" fill="none" xmlns="http://www.w3.org/2000/svg">
<rect x="1" y="1" width="22" height="22" rx="6.6" fill="url(#paint0_radial_21_2967)"/>
<path opacity="0.25" d="M10 1H7V23H10V1Z" fill="white"/>
<path opacity="0.25" d="M9.998 1H8.47691V23H9.998V1Z" fill="white"/>
<path opacity="0.5" d="M13.125 12C12.5017 12 12 12.5017 12 13.125V19.875C12 20.4983 12.5017 21 13.125 21H19.875C20.4983 21 21 20.4983 21 19.875V13.125C21 12.5017 20.4983 12 19.875 12H13.125ZM13.125 13.125H19.875V14.25H13.125V13.125ZM13.125 15.375H18.1875V17.0625H13.125V15.375ZM18.75 15.375H19.875V17.0625H18.75V15.375ZM13.125 18.1875H18.1875V19.875H13.125V18.1875ZM18.75 18.1875H19.875V19.875H18.75V18.1875Z" fill="white"/>
<defs>
<radialGradient id="paint0_radial_21_2967" cx="0" cy="0" r="1" gradientUnits="userSpaceOnUse" gradientTransform="translate(17.5 1) rotate(116.565) scale(24.5967)">
<stop stop-color="#BA8DCD"/>
<stop offset="1" stop-color="#8648A1"/>
</radialGradient>
</defs>
</svg>
