<svg width="24" height="24" viewBox="0 0 24 24" fill="none" xmlns="http://www.w3.org/2000/svg">
<rect x="1" y="1" width="22" height="22" rx="6.6" fill="url(#paint0_radial_1_305)"/>
<path opacity="0.75" d="M12.2739 4C10.1634 4 8.46438 5.69905 8.46438 7.80952V11.619C8.46438 13.7295 10.1634 15.4286 12.2739 15.4286C14.3844 15.4286 16.0834 13.7295 16.0834 11.619V7.80952C16.0834 5.69905 14.3844 4 12.2739 4ZM9.22629 7.04762H11.512V7.80952H9.22629V7.04762ZM13.0358 7.04762H15.3215V7.80952H13.0358V7.04762ZM9.22629 9.33333H11.512V10.0952H9.22629V9.33333ZM13.0358 9.33333H15.3215V10.0952H13.0358V9.33333ZM9.22629 11.619H11.512V12.381H9.22629V11.619ZM13.0358 11.619H15.3215V12.381H13.0358V11.619ZM7 12.381C7.33295 14.7215 9.17219 16.56 11.512 16.893V17.7143H11.893V19.2381H10.7501V20H13.7977V19.2381H12.6549V17.7143H13.0358V16.893C15.3756 16.56 17.2149 14.7215 17.5478 12.381H16.7768C16.4156 14.5478 14.5459 16.1905 12.2739 16.1905C10.0019 16.1905 8.13219 14.5478 7.77105 12.381H7Z" fill="white"/>
<defs>
<radialGradient id="paint0_radial_1_305" cx="0" cy="0" r="1" gradientUnits="userSpaceOnUse" gradientTransform="translate(17.5 1) rotate(116.565) scale(24.5967)">
<stop stop-color="#B489C6"/>
<stop offset="1" stop-color="#814599"/>
</radialGradient>
</defs>
</svg>
