<svg width="24" height="24" viewBox="0 0 24 24" fill="none" xmlns="http://www.w3.org/2000/svg">
<rect x="1" y="1" width="22" height="22" rx="6.6" fill="url(#paint0_radial_6_423)"/>
<path fill-rule="evenodd" clip-rule="evenodd" d="M16.4 1H7.6C4.15718 1 1.33005 3.6361 1.02691 7H22.9731C22.67 3.6361 19.8428 1 16.4 1Z" fill="#3F51B5"/>
<path d="M5 5C5.55228 5 6 4.55228 6 4C6 3.44772 5.55228 3 5 3C4.44772 3 4 3.44772 4 4C4 4.55228 4.44772 5 5 5Z" fill="white"/>
<path d="M19 5C19.5523 5 20 4.55228 20 4C20 3.44772 19.5523 3 19 3C18.4477 3 18 3.44772 18 4C18 4.55228 18.4477 5 19 5Z" fill="white"/>
<defs>
<radialGradient id="paint0_radial_6_423" cx="0" cy="0" r="1" gradientUnits="userSpaceOnUse" gradientTransform="translate(17.5 1) rotate(116.565) scale(24.5967)">
<stop stop-color="#F4F4F4"/>
<stop offset="1" stop-color="#BBBBBB"/>
</radialGradient>
</defs>
</svg>
