<svg xmlns="http://www.w3.org/2000/svg" width="16" height="16">
<defs>
<style id="current-color-scheme" type="text/css">
.ColorScheme-Contrast{color:#dedede}
</style>
</defs>
<path d="M8.002.365a.5.5 0 0 0-.469.32L5.663 5.54l-5.188.273a.5.5 0 0 0-.291.89l4.035 3.282-1.334 5.022a.5.5 0 0 0 .756.549L8 12.73l4 2.592V14a1 1 0 0 1 .134-.5A1 1 0 0 1 12 13v-2.191l-.219-.825.22-.177V8.516l-1.1.896a.5.5 0 0 0-.168.516l1.084 4.084-3.545-2.297a.5.5 0 0 0-.543 0l-3.545 2.297 1.084-4.084a.5.5 0 0 0-.168-.516L1.824 6.744l4.215-.223a.5.5 0 0 0 .44-.32L8 2.256 9.522 6.2a.5.5 0 0 0 .44.32l4.214.223L13.86 7H15a1 1 0 0 1 .362.07l.454-.369a.5.5 0 0 0-.291-.889l-5.188-.273L8.467.686a.5.5 0 0 0-.465-.32" class="ColorScheme-Contrast" style="fill:currentColor"/>
<path fill="#ff7f2a" d="M13 8v5h2V8zm0 6v2h2v-2z" class="warning"/>
</svg>
