<svg width="16" height="16">
<defs>
<style id="current-color-scheme" type="text/css">
.ColorScheme-Contrast{color:#dedede}
</style>
</defs>
<path d="M8 0 1 4.234v7.532L8 16l7-4.234V4.234zm1.193 5c.148.008.225.07.207.17l-.52 2.963 1.406-.018c.148-.002.235.086.195.196s-.191.2-.34.203l-1.638.021c-.134.002-.222-.069-.203-.168l.27-1.547-2.029 3.998c-.048.094-.177.171-.309.18L6.211 11c-.12.002-.205-.056-.205-.143l-.035-2.3-1.3 1.228a.42.42 0 0 1-.308.11c-.107-.009-.175-.07-.174-.149l.034-1.24-2.018.027c-.147.002-.235-.085-.195-.195s.192-.203.34-.205l2.226-.03c.123-.001.208.06.205.149l-.023.887 1.277-1.21a.4.4 0 0 1 .303-.109c.105.007.177.063.18.14l.027 1.798 2.322-4.576c.05-.1.19-.179.326-.182m4.602 3.068c.147-.002.235.086.195.196s-.193.2-.34.203l-.902.014c-.147.001-.235-.088-.195-.198s.193-.201.34-.203zm-1.824.024c.147-.002.235.087.195.197s-.193.201-.34.203l-.847.012c-.148.002-.235-.087-.196-.197.04-.11.193-.202.34-.203z" class="ColorScheme-Contrast" style="fill:currentColor"/>
</svg>
