<svg xmlns="http://www.w3.org/2000/svg" width="16" height="16">
<path fill="#dedede" d="M2 1C.892 1 0 1.892 0 3v9c0 1.108.892 2 2 2h12c1.108 0 2-.892 2-2V3c0-1.108-.892-2-2-2zm0 1h12c.554 0 1 .446 1 1v9c0 .554-.446 1-1 1H2c-.554 0-1-.446-1-1V3c0-.554.446-1 1-1" style="paint-order:stroke fill markers"/>
<rect width="5" height="1" x="2" y="7" fill="#dedede" rx=".5" ry=".5" style="paint-order:stroke fill markers"/>
<rect width="1" height="5" x="4" y="5" fill="#dedede" rx=".5" ry=".5" style="paint-order:stroke fill markers"/>
<circle cx="11.5" cy="5.5" r=".5" fill="#dedede" style="paint-order:stroke fill markers"/>
<circle cx="11.5" cy="9.5" r=".5" fill="#dedede" style="paint-order:stroke fill markers"/>
<circle cx="9.5" cy="7.5" r=".5" fill="#dedede" style="paint-order:stroke fill markers"/>
<circle cx="13.5" cy="7.5" r=".5" fill="#dedede" style="paint-order:stroke fill markers"/>
</svg>
