<svg xmlns="http://www.w3.org/2000/svg" width="16" height="16">
<defs>
<style id="current-color-scheme" type="text/css">
.ColorScheme-Text{color:#dedede}
</style>
</defs>
<path d="M8.002.365a.5.5 0 0 0-.469.32L5.663 5.54l-5.188.273a.5.5 0 0 0-.291.89l4.035 3.282-1.334 5.022a.5.5 0 0 0 .756.549L8 12.73l4.358 2.825a.5.5 0 0 0 .756-.55l-1.334-5.02L15.817 6.7a.5.5 0 0 0-.291-.889l-5.188-.273L8.467.686a.5.5 0 0 0-.465-.32M8 2.255l1.522 3.946a.5.5 0 0 0 .439.32l4.215.223L10.9 9.412a.5.5 0 0 0-.168.516l1.084 4.084-3.544-2.297a.5.5 0 0 0-.543 0l-3.545 2.297 1.084-4.084a.5.5 0 0 0-.168-.516L1.824 6.744l4.215-.223a.5.5 0 0 0 .44-.32z" class="ColorScheme-Text" style="fill:currentColor"/>
</svg>
