<svg xmlns="http://www.w3.org/2000/svg" width="16" height="16">
<defs>
<style id="current-color-scheme" type="text/css">
.ColorScheme-Contrast{color:#dedede}
</style>
</defs>
<path d="M8 3.021a8.93 8.93 0 0 0-6.85 3.201.638.638 0 0 0 .49 1.05.64.64 0 0 0 .49-.228C3.594 5.3 5.734 4.299 8 4.299s4.404 1.001 5.87 2.745a.64.64 0 0 0 .49.228.638.638 0 0 0 .49-1.05 8.93 8.93 0 0 0-6.851-3.2zm0 2.707a6.39 6.39 0 0 0-4.893 2.286.639.639 0 1 0 .979.823 5.1 5.1 0 0 1 3.913-1.83c1.51 0 2.937.667 3.914 1.83a.64.64 0 0 0 .49.227.638.638 0 0 0 .489-1.05 6.38 6.38 0 0 0-4.893-2.286zm0 2.813a3.83 3.83 0 0 0-2.936 1.37.64.64 0 0 0 .08.9.636.636 0 0 0 .9-.077A2.55 2.55 0 0 1 8 9.819a2.55 2.55 0 0 1 1.956.915.637.637 0 0 0 .9.078.64.64 0 0 0 .08-.9A3.83 3.83 0 0 0 8 8.54m-.055 2.426c-.5.049-.98.422-.997.979a1.052 1.052 0 0 0 2.104 0c-.089-.748-.607-1.026-1.107-.979" class="ColorScheme-Contrast" style="fill:currentColor"/>
</svg>
