<svg xmlns="http://www.w3.org/2000/svg" width="16" height="16">
<defs>
<style id="current-color-scheme" type="text/css">
.ColorScheme-Contrast{color:#dedede}
</style>
</defs>
<path fill="currentColor" d="M8 0a8 8 0 0 0-8 8 8 8 0 0 0 8 8 8 8 0 0 0 5.277-2H8a6 6 0 0 1-6-6 6 6 0 0 1 6-6v1a5 5 0 0 0-5 5 5 5 0 0 0 5 5h6.236a8 8 0 0 0 .684-1H8a4 4 0 1 1 0-8 4 4 0 0 1 1 .13v1.046A3 3 0 0 0 8 5a3 3 0 0 0 0 6h7.41a8 8 0 0 0 .324-1H8a2 2 0 0 1-2-2 2 2 0 0 1 2-2 2 2 0 0 1 1.73 1H8a1 1 0 0 0-1 1 1 1 0 0 0 1 1h7.93A8 8 0 0 0 16 8a8 8 0 0 0-8-8" class="ColorScheme-Contrast"/>
</svg>
