<svg xmlns="http://www.w3.org/2000/svg" width="16" height="16">
<defs>
<style id="current-color-scheme" type="text/css">
.ColorScheme-Text{color:#dedede}
</style>
</defs>
<path d="M7 0C5.892 0 5 .892 5 2v1H3c-1.108 0-2 .892-2 2v9c0 1.108.892 2 2 2h6c1.108 0 2-.892 2-2v-1h2c1.108 0 2-.892 2-2V5l-5-5zm0 1h2v5h5v5c0 .554-.446 1-1 1h-2V8L6 3V2q.002-.208.078-.39A1 1 0 0 1 7 1m3 .414L13.586 5H10zM3 4h2v5h5v5c0 .554-.446 1-1 1H3c-.554 0-1-.446-1-1V5q.002-.21.078-.39A1 1 0 0 1 3 4m3 .414L9.586 8H6z" class="ColorScheme-Text" style="fill:currentColor"/>
</svg>
