<svg xmlns="http://www.w3.org/2000/svg" width="16" height="16">
<defs>
<style id="current-color-scheme" type="text/css">
.ColorScheme-Contrast{color:#dedede}
</style>
</defs>
<path fill="currentColor" d="M12.5 8A3.5 3.5 0 0 0 9 11.5a3.5 3.5 0 0 0 3.5 3.5 3.5 3.5 0 0 0 3.5-3.5A3.5 3.5 0 0 0 12.5 8m0 1c.277 0 .5.223.5.5V11h1.5a.499.499 0 1 1 0 1H13v1.5a.499.499 0 1 1-1 0V12h-1.5a.499.499 0 1 1 0-1H12V9.5c0-.277.223-.5.5-.5" class="ColorScheme-Contrast"/>
<path d="M2 1C.892 1 0 1.892 0 3v10c0 1.108.892 2 2 2h7.672a4.5 4.5 0 0 1-.912-1H2c-.554 0-1-.446-1-1V6h5l2-2h6c.554 0 1 .446 1 1v2.758a4.5 4.5 0 0 1 1 .916V5c0-1.108-.892-2-2-2H8L6 1zm0 1h3.586l1.496 1.504L5.586 5H1V3c0-.554.446-1 1-1" class="ColorScheme-Contrast" style="fill:currentColor"/>
</svg>
