<svg xmlns="http://www.w3.org/2000/svg" width="16" height="16">
<style id="current-color-scheme" type="text/css">
.ColorScheme-Contrast{color:#dedede}
</style>
<path class="ColorScheme-Contrast" style="fill:currentColor" stroke-width=".25" d="M8 0a8 8 0 0 0-8 8 8 8 0 0 0 8 8 8 8 0 0 0 8-8 8 8 0 0 0-8-8m-.094 1H8a7 7 0 0 1 7 7 7 7 0 0 1-7 7 7 7 0 0 1-2.816-.592c.104-.14.2-.291.271-.46.122-.295.178-.603.17-.91l2.79-1.995.067.002a3.032 3.032 0 0 0 0-6.064 3.03 3.03 0 0 0-3.025 3.03v.04l-1.95 2.834a2.2 2.2 0 0 0-1.306.361l-.508-.209A7 7 0 0 1 1 8a7 7 0 0 1 6.906-7m.576 4.992c1.113 0 2.02.906 2.02 2.02a2.024 2.024 0 0 1-2.02 2.021 2.021 2.021 0 0 1 0-4.04m.004.498c-.836 0-1.513.68-1.513 1.518a1.516 1.516 0 1 0 3.029 0c0-.838-.68-1.518-1.516-1.518M3.434 11.39a1.69 1.69 0 0 1 1.559 1.057 1.7 1.7 0 0 1-.005 1.306 1.7 1.7 0 0 1-.27.43 7 7 0 0 1-.44-.254q.143-.156.23-.362a1.26 1.26 0 0 0-.676-1.644l-1.02-.422c.197-.075.409-.113.622-.111"/>
</svg>
