<svg width="16" height="16">
<defs>
<style id="current-color-scheme" type="text/css">
.ColorScheme-Text{color:#dedede}
</style>
</defs>
<path d="M5.898 12.375s-.613.356.434.475c1.269.144 1.916.125 3.312-.14 0 0 .37.23.882.43-3.131 1.341-7.088-.078-4.628-.765m-.382-1.753s-.684.506.363.616c1.353.14 2.425.15 4.275-.207 0 0 .256.26.66.4-3.791 1.11-8.01.09-5.298-.81m3.225-2.97c.772.887-.203 1.687-.203 1.687s1.96-1.013 1.06-2.278C8.757 5.878 8.113 5.29 11.6 3.269c.003 0-5.475 1.369-2.86 4.381m4.144 6.019s.453.372-.497.662c-1.81.547-7.525.713-9.112.022-.572-.247.5-.594.837-.665.35-.075.553-.063.553-.063-.634-.447-4.103.878-1.762 1.256 6.381 1.038 11.637-.465 9.981-1.212M6.191 8.806s-2.909.691-1.03.941c.793.106 2.374.081 3.846-.04 1.203-.1 2.412-.32 2.412-.32s-.425.182-.73.391c-2.954.778-8.657.416-7.016-.378 1.39-.669 2.518-.594 2.518-.594m5.22 2.916c3.002-1.56 1.612-3.06.643-2.856-.238.05-.344.093-.344.093s.088-.137.256-.196c1.916-.675 3.391 1.987-.618 3.04 0-.003.046-.044.062-.081M9.598 0S11.26 1.662 8.02 4.219c-2.597 2.05-.594 3.221 0 4.556C6.504 7.406 5.39 6.203 6.138 5.08 7.235 3.441 10.27 2.641 9.598 0m-3.11 15.95c2.882.184 7.307-.103 7.41-1.466 0 0-.2.516-2.382.928-2.459.463-5.493.41-7.29.113 0-.003.369.303 2.262.425" class="ColorScheme-Text" style="fill:currentColor"/>
</svg>
