<svg xmlns="http://www.w3.org/2000/svg" width="16" height="16">
<rect width="11" height="1" x="2" y="14" fill="#dedede" rx=".5" ry=".5" style="paint-order:stroke fill markers"/>
<path fill="#dedede" d="M7.5 1c-.277 0-.5.223-.5.5v9.793L3.611 7.904a.499.499 0 1 0-.707.707l4.242 4.243.038.033h.002a.5.5 0 0 0 .107.068l.02.008.013.004.049.015.006.002q.011.004.023.006l.008.002q.02.005.04.006a.5.5 0 0 0 .114-.002l.03-.006.023-.006.055-.017.013-.004.02-.008.025-.012.047-.029q.019-.013.035-.027l.04-.033 4.242-4.243a.499.499 0 1 0-.707-.707L8 11.293V1.5c0-.277-.223-.5-.5-.5"/>
</svg>
