<svg xmlns="http://www.w3.org/2000/svg" width="16" height="16">
<path fill="#dedede" fill-rule="evenodd" d="M7.51 0a1.987 1.987 0 0 0-1.987 1.986.985.985 0 0 1-.99.979.9.9 0 0 1-.46-.131l-.009-.004a2 2 0 0 0-2.716.734l-.516.848-.006.01a2 2 0 0 0 .725 2.717l.002.002a.99.99 0 0 1 0 1.718 1.993 1.993 0 0 0-.727 2.711v.002l.489.842.001.002a1.995 1.995 0 0 0 2.717.77l.006-.004a.98.98 0 0 1 .746-.1h.002a.98.98 0 0 1 .596.459l.004.008c.083.14.129.3.13.463A2 2 0 0 0 7.51 16h.978a2 2 0 0 0 1.993-1.984v-.004a.984.984 0 0 1 .986-.989c.165.006.329.051.473.133a2 2 0 0 0 2.716-.726l.51-.852.004-.006a1.983 1.983 0 0 0-.725-2.72.983.983 0 0 1-.36-1.35l.001-.004a.96.96 0 0 1 .357-.357l.004-.002a1.993 1.993 0 0 0 .778-2.586.5.5 0 0 0-.053-.131l-.486-.844a2 2 0 0 0-2.717-.734l-.006.004a.985.985 0 0 1-1.352-.352v-.002a.9.9 0 0 1-.13-.463v.02A1.995 1.995 0 0 0 8.488 0zm0 1h.978a.994.994 0 0 1 .993 1.021v.02c.003.338.097.67.269.961a1.985 1.985 0 0 0 2.715.71.985.985 0 0 1 1.353.366l.47.813.017.035a.986.986 0 0 1-.362 1.35c-.3.172-.55.422-.722.722V7a1.987 1.987 0 0 0 .724 2.719.99.99 0 0 1 .362 1.347v.004l-.512.852-.004.006a.985.985 0 0 1-1.353.361l-.002-.002a2 2 0 0 0-.95-.265h-.01a1.99 1.99 0 0 0-1.995 1.994.985.985 0 0 1-.993.984H7.51a.986.986 0 0 1-.994-.992v-.006a1.93 1.93 0 0 0-.268-.959 1.98 1.98 0 0 0-1.203-.928 1.98 1.98 0 0 0-1.502.2.99.99 0 0 1-1.354-.385l-.003-.01-.493-.848a.98.98 0 0 1 .36-1.345 1.995 1.995 0 0 0 0-3.451v-.003a.984.984 0 0 1-.36-1.351l.516-.848.006-.01a.985.985 0 0 1 1.353-.367c.29.17.62.264.957.268h.006A2 2 0 0 0 6.523 2v-.01A.983.983 0 0 1 7.51 1M8 5C6.35 5 5 6.35 5 8s1.35 3 3 3 3-1.35 3-3-1.35-3-3-3m0 1c1.11 0 2 .89 2 2s-.89 2-2 2-2-.89-2-2 .89-2 2-2" clip-rule="evenodd" color="#000" style="font-feature-settings:normal;font-variant-alternates:normal;font-variant-caps:normal;font-variant-east-asian:normal;font-variant-ligatures:normal;font-variant-numeric:normal;font-variant-position:normal;font-variation-settings:normal;inline-size:0;isolation:auto;mix-blend-mode:normal;shape-margin:0;shape-padding:0;text-decoration-color:#000;text-decoration-line:none;text-decoration-style:solid;text-indent:0;text-orientation:mixed;text-transform:none;white-space:normal"/>
</svg>
