<svg xmlns="http://www.w3.org/2000/svg" width="16" height="16">
<g fill="#fcfcfc">
<path d="M5.075 0c-.4 0-.797.485-1.177.901s-.91 1.096-.91 1.627V14.82A1.19 1.19 0 0 0 4.194 16h7.589a1.19 1.19 0 0 0 1.205-1.18V2.529c0-.53-.528-1.211-.909-1.627C11.7.485 11.302 0 10.902 0H7.347zm.799.657h4.229c.354 0 .683.13.935.417l.645.75c.31.404.396.633.396 1.055H3.897c0-.422.087-.651.396-1.055l.646-.75c.251-.286.58-.417.935-.417M3.897 3.556h8.182v11.556H3.897z"/>
<rect width="8.182" height="11.556" x="3.898" y="3.56" opacity=".3" rx="0" ry="0"/>
<ellipse cx="7.989" cy="1.62" rx="1.151" ry=".347"/>
<path fill-rule="evenodd" d="M8.02 1.27s.1-.206.331-.265-.1.373-.331.265"/>
</g>
</svg>
