<svg xmlns="http://www.w3.org/2000/svg" width="16" height="16">
<path fill="#dedede" d="M6.998.389a1.5 1.5 0 0 1 2.004 0l5.5 4.941A1.5 1.5 0 0 1 15 6.446V13.5a1.5 1.5 0 0 1-1.5 1.5h-3A1.5 1.5 0 0 1 9 13.5v-3a.5.5 0 0 0-.5-.5h-1a.5.5 0 0 0-.5.5v3A1.5 1.5 0 0 1 5.5 15h-3A1.5 1.5 0 0 1 1 13.5V6.446c0-.426.18-.831.498-1.116zm1.336.743a.5.5 0 0 0-.668 0l-5.5 4.942A.5.5 0 0 0 2 6.446V13.5a.5.5 0 0 0 .5.5h3a.5.5 0 0 0 .5-.5v-3A1.5 1.5 0 0 1 7.5 9h1a1.5 1.5 0 0 1 1.5 1.5v3a.5.5 0 0 0 .5.5h3a.5.5 0 0 0 .5-.5V6.446a.5.5 0 0 0-.166-.372z"/>
</svg>
