<svg width="12" height="11" viewBox="0 0 12 11" fill="none" xmlns="http://www.w3.org/2000/svg">
<path d="M11.3281 8.05772L9.66872 4.17708C9.36655 3.46669 8.91599 3.06378 8.40174 3.03728C7.89277 3.01077 7.39975 3.36596 7.02333 4.04454L6.01606 5.85233C5.80404 6.23403 5.50186 6.46195 5.17316 6.48846C4.83916 6.52036 4.50518 6.34535 4.2348 6.00072L4.11817 5.85233C3.74177 5.38054 3.27525 5.15251 2.79812 5.20025C2.321 5.24799 1.91279 5.57667 1.64242 6.11215L0.725271 7.94112C0.39658 8.60376 0.428391 9.37244 0.815393 9.99801C1.2024 10.6236 1.87567 11 2.61257 11H9.37722C10.0876 11 10.7502 10.6448 11.1425 10.051C11.5454 9.45725 11.6091 8.7098 11.3281 8.05772Z" fill="url(#paint0_linear_4_10)"/>
<path d="M3.35009 3.58375C4.33971 3.58375 5.14194 2.78151 5.14194 1.79188C5.14194 0.802254 4.33971 1.43051e-06 3.35009 1.43051e-06C2.36046 1.43051e-06 1.55821 0.802254 1.55821 1.79188C1.55821 2.78151 2.36046 3.58375 3.35009 3.58375Z" fill="url(#paint1_linear_4_10)"/>
<defs>
<linearGradient id="paint0_linear_4_10" x1="12.6" y1="2.23948" x2="3.52067" y2="14.7798" gradientUnits="userSpaceOnUse">
<stop stop-color="#3C9BCE"/>
<stop offset="1" stop-color="#00405F"/>
</linearGradient>
<linearGradient id="paint1_linear_4_10" x1="5.50021" y1="-0.358379" x2="1.19971" y2="3.94199" gradientUnits="userSpaceOnUse">
<stop stop-color="#3C9BCE"/>
<stop offset="1" stop-color="#00405F"/>
</linearGradient>
</defs>
</svg>
