<svg xmlns="http://www.w3.org/2000/svg" viewBox="0 0 22 22">
<defs>
<style id="current-color-scheme" type="text/css">
.ColorScheme-Contrast{color:#dedede}
</style>
</defs>
<path fill="currentColor" d="M10.906 1A7 7 0 0 0 4 8v6h1V8a6 6 0 0 1 12 0v9c0 1.662-1.338 3-3 3h-1.088a1.5 1.5 0 0 0-1.412-1 1.5 1.5 0 0 0-1.5 1.5 1.5 1.5 0 0 0 1.5 1.5 1.5 1.5 0 0 0 1.414-1H14c2.216 0 4-1.784 4-4V8a7 7 0 0 0-7.094-7M6 11v6h1s1 0 1-1v-4c0-1-1-1-1-1zm9 0s-1 0-1 1v4c0 1 1 1 1 1h1v-6z" class="ColorScheme-Contrast"/>
</svg>
