<svg xmlns="http://www.w3.org/2000/svg" width="22" height="22">
<defs>
<style id="current-color-scheme" type="text/css">
.ColorScheme-Contrast{color:#dedede}
</style>
</defs>
<path fill="currentColor" d="M4 4c-1.108 0-2 .892-2 2v8c0 1.108.892 2 2 2h14c1.108 0 2-.892 2-2V6c0-1.108-.892-2-2-2zm0 1h14c.554 0 1 .446 1 1v8c0 .554-.446 1-1 1H4c-.554 0-1-.446-1-1V6c0-.554.446-1 1-1M1.5 16a.5.5 0 1 0 0 1h19a.5.5 0 1 0 0-1h-6.525a.49.49 0 0 1-.475.377h-5A.49.49 0 0 1 8.025 16z" class="ColorScheme-Contrast"/>
</svg>
