<svg xmlns="http://www.w3.org/2000/svg" width="22" height="22">
<defs>
<style id="current-color-scheme" type="text/css">
.ColorScheme-Text{color:#fcfcfc}
</style>
</defs>
<g fill="currentColor" class="ColorScheme-Text">
<path d="M5 11a6 6 0 0 0 6 6v-6z" opacity=".35"/>
<path d="M17 11a6 6 0 0 1-6 6v-6z" opacity=".75"/>
<path d="M17 11a6 6 0 0 0-6-6v6z" opacity=".5"/>
<path d="M5 11a6 6 0 0 1 6-6v6z" opacity=".15"/>
</g>
<path fill="currentColor" d="M11 3a8 8 0 0 0-8 8 8 8 0 0 0 8 8 8 8 0 0 0 8-8 8 8 0 0 0-8-8m-.094 1H11a7 7 0 0 1 7 7 7 7 0 0 1-7 7 7 7 0 0 1-7-7 7 7 0 0 1 6.906-7" class="ColorScheme-Text"/>
</svg>
