<svg xmlns="http://www.w3.org/2000/svg" width="22" height="22">
<style id="current-color-scheme" type="text/css">
.ColorScheme-Text{color:#dedede}
</style>
<path fill="currentColor" d="M8 3.002c-1.5 0-2.543 1.037-2.932 2.033L2.2 11.52q-.003.012-.008.023l-.058.15h.012a2.5 2.5 0 0 0-.145.81c0 .671.265 1.277.693 1.726l-.494 1.29q-.003.013-.008.024l-.058.15h.012a2.5 2.5 0 0 0-.145.81c0 1.384 1.115 2.5 2.5 2.5h13c1.385 0 2.5-1.116 2.5-2.5 0-.286-.057-.555-.145-.81h.012l-.058-.15-.004-.015-.004-.008-.494-1.291A2.5 2.5 0 0 0 20 12.502c0-.285-.057-.554-.145-.808h.012l-.058-.15-.004-.016-.004-.008-2.87-6.485c-.388-.996-1.434-2.116-2.93-2.033zm0 1h6c1.108 0 1.708.65 2 1.397l2.146 4.709a2.2 2.2 0 0 0-.646-.106h-13c-.24 0-.429.039-.649.102L6 5.399c.291-.747.892-1.397 2-1.397m-3.5 7h13c.83 0 1.5.67 1.5 1.5s-.67 1.5-1.5 1.5h-13c-.831 0-1.5-.669-1.5-1.5s.669-1.5 1.5-1.5m6.988 1a.5.5 0 1 0 .024 1 .5.5 0 0 0-.024-1m2 0a.5.5 0 1 0 .024 1 .5.5 0 0 0-.024-1m2 0a.5.5 0 1 0 .024 1 .5.5 0 0 0-.024-1m-10.988 3h13c.831 0 1.5.67 1.5 1.5s-.669 1.5-1.5 1.5h-13c-.83 0-1.5-.669-1.5-1.5s.67-1.5 1.5-1.5m6.988 1a.5.5 0 1 0 .024 1 .5.5 0 0 0-.024-1m2 0a.5.5 0 1 0 .024 1 .5.5 0 0 0-.024-1m2 0a.5.5 0 1 0 .024 1 .5.5 0 0 0-.024-1" class="ColorScheme-Text"/>
</svg>
