<svg xmlns="http://www.w3.org/2000/svg" width="22" height="22">
<defs>
<style id="current-color-scheme" type="text/css">
.ColorScheme-Text{color:#dedede}
</style>
</defs>
<path fill="currentColor" d="M11 4a1 1 0 0 0-.11.008c-1.603.002-2.95.042-4.105.281-.59.122-1.183.3-1.742.647-.602.372-1.14.953-1.387 1.742C2.892 9.112 2 11.42 2 14.334 2 16.456 3.884 18 5.953 18c1.784 0 3.01-1.161 3.7-2.455.225-.411.46-.9.558-.924.258-.035.528-.087.766-.084h.046c.238-.003.508.049.766.084.096.035.341.548.56.926C13.04 16.84 14.265 18 16.048 18 18.117 18 20 16.456 20 14.334c0-2.913-.892-5.222-1.656-7.656-.248-.79-.785-1.368-1.387-1.74v-.002c-.56-.346-1.152-.525-1.742-.647h-.002C14.027 4.044 12.663 4 11 4m0 1c1.642 0 2.957.05 4.012.268.527.108.997.258 1.42.52.422.26.798.678.959 1.189.775 2.47 1.609 4.65 1.609 7.357C19 15.864 17.642 17 16.047 17c-1.554 0-2.678-1.12-3.129-2.312l.023.056-.472-1.05a7.2 7.2 0 0 0-1.457-.157h-.024a7.3 7.3 0 0 0-1.457.156l-.472 1.051.023-.056C8.632 15.88 7.507 17 5.953 17 4.358 17 3 15.864 3 14.334c0-2.707.834-4.888 1.61-7.357.16-.511.536-.929.958-1.19.423-.26.893-.41 1.42-.52C8.043 5.05 9.358 5 11 5" class="ColorScheme-Text"/>
<path fill="currentColor" d="M8.5 7c-.277 0-.5.223-.5.5V9H6.5a.499.499 0 1 0 0 1H8v1.5a.499.499 0 1 0 1 0V10h1.5a.499.499 0 1 0 0-1H9V7.5c0-.277-.223-.5-.5-.5M15 8a1 1 0 0 0-1 1 1 1 0 0 0 1 1 1 1 0 0 0 1-1 1 1 0 0 0-1-1m-2 2a1 1 0 0 0-1 1 1 1 0 0 0 1 1 1 1 0 0 0 1-1 1 1 0 0 0-1-1" class="ColorScheme-Text"/>
</svg>
