<svg xmlns="http://www.w3.org/2000/svg" width="22" height="22">
<defs>
<style id="current-color-scheme" type="text/css">
.ColorScheme-Text{color:#dedede}
</style>
</defs>
<g class="ColorScheme-Text" opacity=".3" style="fill:currentColor">
<path d="M2 15h17v3H2z" class="ColorScheme-Text" opacity=".15" style="fill:currentColor"/>
<path d="M3 3c-1.108 0-2 .892-2 2v12c0 1.108.892 2 2 2h15c1.108 0 2-.892 2-2V5c0-1.108-.892-2-2-2zm0 1h15c.554 0 1 .446 1 1v9H2V5c0-.554.446-1 1-1M2 15h8v3H3c-.554 0-1-.446-1-1zm9 0h8v2c0 .554-.446 1-1 1h-7z" class="ColorScheme-Text" style="fill:currentColor"/>
</g>
</svg>
