<svg xmlns="http://www.w3.org/2000/svg" width="22" height="22">
<defs>
<style id="current-color-scheme" type="text/css">
.ColorScheme-Contrast{color:#dedede}
</style>
</defs>
<path fill="currentColor" d="M3.49 4.004c-.822 0-1.5.678-1.5 1.5V17.5c0 .822.678 1.5 1.5 1.5h14c.823 0 1.5-.678 1.5-1.5V7.455l.729-.732a1.02 1.02 0 0 0 .281-.72c0-.553-.446-1-1-1-.034 0-.064.015-.098.019a1.5 1.5 0 0 0-1.412-1.018zm0 1h1.5V8h-2V5.504c0-.286.215-.516.5-.5m2.51 0h11.49c.286 0 .5.214.5.5v.07L12 11.535v1.469h1.469l4.521-4.545V17.5c0 .286-.214.5-.5.5H6zM2.99 9h2v4.996h-2zm0 5.996h2V18h-1.5a.49.49 0 0 1-.5-.5z" class="ColorScheme-Contrast"/>
</svg>
