<svg xmlns="http://www.w3.org/2000/svg" width="22" height="22">
<defs>
<style id="current-color-scheme" type="text/css">
.ColorScheme-Contrast{color:#dedede}
</style>
</defs>
<path fill="currentColor" d="M12.567 6.538c.056.513-.15 1.026-.454 1.396-.306.37-.808.659-1.3.62-.066-.502.182-1.025.466-1.353.315-.37.848-.645 1.288-.663m-.007 2.116c.285.011 1.085.114 1.6.866-.042.026-.957.558-.946 1.666.012 1.324 1.16 1.765 1.174 1.77-.01.031-.183.628-.605 1.245-.365.533-.743 1.064-1.34 1.075-.586.01-.774-.347-1.444-.347s-.88.335-1.434.357c-.575.021-1.013-.574-1.38-1.106-.752-1.085-1.326-3.07-.554-4.409.382-.665 1.067-1.086 1.81-1.097.565-.01 1.097.381 1.442.381.346 0 .995-.47 1.677-.401" class="ColorScheme-Contrast"/>
<path fill="currentColor" d="M6 3C4.338 3 3 4.338 3 6v10c0 1.662 1.338 3 3 3h10c1.662 0 3-1.338 3-3V6c0-1.662-1.338-3-3-3zm0 1h10c1.108 0 2 .892 2 2v10c0 1.108-.892 2-2 2H6c-1.108 0-2-.892-2-2V6c0-1.108.892-2 2-2" class="ColorScheme-Contrast"/>
</svg>
