<svg xmlns="http://www.w3.org/2000/svg" width="22" height="22">
<defs>
<style id="current-color-scheme" type="text/css">
.ColorScheme-Contrast{color:#dedede}
</style>
</defs>
<path fill="currentColor" d="M11 5.597a10.21 10.21 0 0 0-7.829 3.659.73.73 0 0 0 1.12.94A8.75 8.75 0 0 1 11 7.058a8.75 8.75 0 0 1 6.71 3.138c.144.171.35.26.56.26a.73.73 0 0 0 .56-1.2A10.21 10.21 0 0 0 11 5.597m0 3.095a7.3 7.3 0 0 0-5.591 2.613.73.73 0 1 0 1.118.94A5.84 5.84 0 0 1 11 10.151c1.725 0 3.356.763 4.473 2.092a.73.73 0 0 0 1.03.09.73.73 0 0 0 .088-1.03A7.3 7.3 0 0 0 11 8.693m0 3.214c-1.295 0-2.519.57-3.355 1.566a.73.73 0 0 0 1.12.94 2.915 2.915 0 0 1 4.471 0 .73.73 0 0 0 1.029.09.73.73 0 0 0 .09-1.03A4.37 4.37 0 0 0 11 11.906zm-.062 2.773c-.572.055-1.121.482-1.14 1.118a1.203 1.203 0 1 0 2.405 0c-.102-.854-.694-1.172-1.265-1.118" class="ColorScheme-Contrast"/>
</svg>
