<svg xmlns="http://www.w3.org/2000/svg" width="22" height="22">
<defs>
<style id="current-color-scheme" type="text/css">
.ColorScheme-Text{color:#dedede}
</style>
</defs>
<path fill="currentColor" d="M10.951 7A2 2 0 0 0 9 9a2 2 0 0 0 .842 1.63L9 14h4l-.842-3.37A2 2 0 0 0 13 9a2 2 0 0 0-2-2zM11 8a1 1 0 0 1 1 1 1 1 0 0 1-1 1 1 1 0 0 1-1-1 1 1 0 0 1 1-1" class="ColorScheme-Text"/>
<path fill="currentColor" d="m10.639 2.068-6 2.32A1 1 0 0 0 4 5.323V12c0 3.662 2.679 6.43 6.29 7.8l.355.136a1 1 0 0 0 .709 0l.355-.135h.002C15.321 18.43 18 15.66 18.001 12V5.322a1 1 0 0 0-.64-.931l-6-2.323C11.201 2 11.093 2 11 2s-.214 0-.361.068M11 3l6 2.322V12c0 3.184-2.283 5.59-5.644 6.865L11 19l-.355-.135C7.284 17.59 5 15.184 5 12V5.322z" class="ColorScheme-Text"/>
</svg>
