<svg xmlns="http://www.w3.org/2000/svg" width="22" height="22">
<defs>
<style id="current-color-scheme" type="text/css">
.ColorScheme-Text{color:#dedede}
</style>
</defs>
<path fill="currentColor" d="M10.5 2a9.5 9.5 0 0 0-4.084 18.076l.41-.912a8.5 8.5 0 1 1 7.348 0l.41.912A9.5 9.5 0 0 0 10.5 2m-.037 2a7.5 7.5 0 0 0-3.227 14.252l.41-.912a6.5 6.5 0 1 1 5.707 0l.41.912A7.5 7.5 0 0 0 10.464 4m.037 2a5.5 5.5 0 0 0-2.443 10.428l.412-.914a4.5 4.5 0 1 1 4.062.002l.412.912A5.5 5.5 0 0 0 10.5 6zm0 2a3.5 3.5 0 0 0-1.621 6.602l.412-.914a2.5 2.5 0 1 1 2.418 0l.412.914A3.5 3.5 0 0 0 10.5 8m0 2a1.5 1.5 0 1 0 0 3 1.5 1.5 0 0 0 0-3" class="ColorScheme-Text"/>
</svg>
