<svg xmlns="http://www.w3.org/2000/svg" viewBox="0 0 22 22">
<style id="current-color-scheme" type="text/css">
.ColorScheme-Text{color:#dedede}
</style>
<path d="M6 3a3 3 0 0 0-3 3 3 3 0 0 0 3 3 3 3 0 0 0 1.086-.207C7.626 9.613 8 10.435 8 11c0 .564-.372 1.384-.91 2.205A3 3 0 0 0 6 13a3 3 0 0 0-3 3 3 3 0 0 0 3 3 3 3 0 0 0 3-3 3 3 0 0 0-.205-1.08C9.618 14.377 10.44 14 11 14s1.378.375 2.201.916A3 3 0 0 0 13 16a3 3 0 0 0 3 3 3 3 0 0 0 3-3 3 3 0 0 0-3-3 3 3 0 0 0-1.086.207C14.374 12.387 14 11.565 14 11c0-.564.372-1.384.91-2.205l.002.002A3 3 0 0 0 16 9a3 3 0 0 0 3-3 3 3 0 0 0-3-3 3 3 0 0 0-3 3 3 3 0 0 0 .205 1.08C12.382 7.623 11.56 8 11 8s-1.378-.375-2.201-.916A3 3 0 0 0 9 6a3 3 0 0 0-3-3m0 1a2 2 0 0 1 2 2 2 2 0 0 1-.053.453 10 10 0 0 1-1.24-1.16A1 1 0 0 0 6.014 5a1 1 0 0 0-.721.293 1 1 0 0 0 0 1.414l.059.055c.382.334.755.747 1.107 1.183A2 2 0 0 1 6 8a2 2 0 0 1-2-2 2 2 0 0 1 2-2m10 0a2 2 0 0 1 2 2 2 2 0 0 1-2 2 2 2 0 0 1-.457-.055c.37-.459.762-.895 1.164-1.238a1 1 0 0 0 0-1.414 1 1 0 0 0-1.414 0l-.053.055c-.337.381-.75.754-1.185 1.105A2 2 0 0 1 14 6a2 2 0 0 1 2-2M6 14a2 2 0 0 1 .457.055c-.37.459-.762.895-1.164 1.238a1 1 0 0 0 0 1.414 1 1 0 0 0 1.414 0l.053-.055c.337-.382.75-.754 1.185-1.105A2 2 0 0 1 8 16a2 2 0 0 1-2 2 2 2 0 0 1-2-2 2 2 0 0 1 2-2m10 0a2 2 0 0 1 2 2 2 2 0 0 1-2 2 2 2 0 0 1-2-2 2 2 0 0 1 .053-.453c.458.369.892.759 1.24 1.16a1 1 0 0 0 1.414 0 1 1 0 0 0 0-1.414c-.017-.015-.034-.034-.05-.049l-.009-.006a9.5 9.5 0 0 1-1.107-1.183A2 2 0 0 1 16 14" class="ColorScheme-Text" style="fill:currentColor;fill-opacity:1;stroke:none"/>
</svg>
