<svg xmlns="http://www.w3.org/2000/svg" viewBox="0 0 22 22"><defs><style id="current-color-scheme" type="text/css">.ColorScheme-Text{color:#dedede}</style></defs><g fill="currentColor" class="ColorScheme-Text"><circle cx="6" cy="11" r="1" class="ColorScheme-Text"/><circle cx="11" cy="11" r="1" class="ColorScheme-Text"/><circle cx="16" cy="11" r="1" class="ColorScheme-Text"/><path d="M10.99 2A9 9 0 0 0 2 11a9 9 0 0 0 9 9 9 9 0 0 0 9-9 9 9 0 0 0-9-9 9 9 0 0 0-.01 0zM11 3a8 8 0 0 1 8 8 8 8 0 0 1-8 8 8 8 0 0 1-8-8 8 8 0 0 1 8-8z" class="ColorScheme-Text"/></g></svg>