<svg xmlns="http://www.w3.org/2000/svg" viewBox="0 0 22 22"><g fill="currentColor" style="color:#dedede"><path d="M11 4v1h1V4h-1zm0 1h-1v1h1V5zm0 1v1h1V6h-1zm0 1h-1v1h1V7zm0 1v1h1V8h-1zm0 1h-1v2h2v-1h-1V9zM16.5 13a3.5 3.5 0 0 0-3.5 3.5 3.5 3.5 0 0 0 3.5 3.5 3.5 3.5 0 0 0 3.5-3.5 3.5 3.5 0 0 0-3.5-3.5zm0 1.086 2.5 2.5-.707.707L17 16v3h-1v-3l-1.293 1.293-.707-.707 2.5-2.5z"/><path d="M6 3C4.338 3 3 4.338 3 6v10c0 1.662 1.338 3 3 3h6.76a4.5 4.5 0 0 1-.504-1H6c-1.108 0-2-.892-2-2V6c0-1.108.892-2 2-2h10c1.108 0 2 .892 2 2v6.258a4.5 4.5 0 0 1 1 .5V6c0-1.662-1.338-3-3-3H6z"/></g></svg>