<svg xmlns="http://www.w3.org/2000/svg" viewBox="0 0 22 22"><defs><style id="current-color-scheme" type="text/css">.ColorScheme-Text{color:#dedede}</style></defs><path fill="currentColor" d="M11 7c-2.203 0-4 1.797-4 4 0 2.203 1.797 4 4 4 2.203 0 4-1.797 4-4 0-2.203-1.797-4-4-4zm0 1c1.663 0 3 1.337 3 3s-1.337 3-3 3-3-1.337-3-3 1.337-3 3-3zM10.5 3v3h1V3h-1zM10.5 16v3h1v-3h-1zM3 10.5v1h3v-1H3zM16 10.5v1h3v-1h-3zM14.707 14l-.707.707 2.121 2.121.707-.707L14.707 14zM5.707 5 5 5.707l2.121 2.121.707-.707L5.707 5zM7.121 14 5 16.121l.707.707 2.121-2.121L7.121 14zM16.121 5 14 7.121l.707.707 2.121-2.121L16.121 5z" class="ColorScheme-Text"/><path fill="currentColor" d="M11 7.75v6.5h2.167l1.083-2.167V9.917L13.167 7.75z" class="ColorScheme-Text"/><path fill="currentColor" d="M10.984 7.734v6.532h2.192l1.09-2.178V9.912l-1.09-2.178h-2.192zm.032.032h2.14l1.078 2.154v2.16l-1.078 2.154h-2.14V7.766z" class="ColorScheme-Text"/></svg>