<svg xmlns="http://www.w3.org/2000/svg" viewBox="0 0 22 22"><defs><style id="current-color-scheme" type="text/css">.ColorScheme-Text{color:#dedede}</style></defs><path fill="currentColor" d="M11 7c-2.203 0-4 1.797-4 4 0 2.203 1.797 4 4 4 2.203 0 4-1.797 4-4 0-2.203-1.797-4-4-4zm0 1c1.663 0 3 1.337 3 3s-1.337 3-3 3-3-1.337-3-3 1.337-3 3-3zM10.5 5v1h1V5zM10.5 16v1h1v-1zM5 10.5v1h1v-1zM16 10.5v1h1v-1z" class="ColorScheme-Text"/><path fill="currentColor" d="M11 7.75v6.5h2.167l1.083-2.167V9.917L13.167 7.75z" class="ColorScheme-Text"/><path fill="currentColor" d="M10.984 7.734v6.532h2.192l1.09-2.178V9.912l-1.09-2.178h-2.192zm.032.032h2.14l1.078 2.154v2.16l-1.078 2.154h-2.14V7.766zM14.807 14.1l-.707.707.707.707.707-.707zM7.207 14.1l-.707.707.707.707.707-.707zM14.807 6.5l-.707.707.707.707.707-.707zM7.207 6.5l-.707.707.707.707.707-.707Z" class="ColorScheme-Text"/></svg>