<svg xmlns="http://www.w3.org/2000/svg" xmlns:xlink="http://www.w3.org/1999/xlink" id="svg4355" width="22" height="22" version="1.1"><defs id="defs4357"><linearGradient id="linearGradient4012"><stop id="stop4014" offset="0" style="stop-color:#1d99f3;stop-opacity:1"/><stop id="stop4016" offset=".417" style="stop-color:#48acf5;stop-opacity:.76119405"/><stop id="stop4018" offset=".667" style="stop-color:#73c0f7;stop-opacity:0"/><stop id="stop4020" offset="1" style="stop-color:#cae7fc;stop-opacity:0"/></linearGradient><linearGradient xlink:href="#linearGradient4012" id="linearGradient4164" x1="3" x2="19" y1="1049.362" y2="1033.362" gradientTransform="matrix(.75 0 0 .75 1.75 269.34)" gradientUnits="userSpaceOnUse"/><linearGradient xlink:href="#linearGradient4012" id="linearGradient3983" x1="3" x2="24.333" y1="1049.362" y2="1028.029" gradientTransform="matrix(.75 0 0 .75 2.75 262.34)" gradientUnits="userSpaceOnUse"/><linearGradient xlink:href="#linearGradient4012" id="linearGradient4007" x1="3" x2="24.333" y1="1049.362" y2="1028.029" gradientTransform="matrix(.75 0 0 .75 3.75 -767.022)" gradientUnits="userSpaceOnUse"/><linearGradient xlink:href="#linearGradient4012" id="linearGradient4010" x1="3" x2="19" y1="1049.362" y2="1033.362" gradientTransform="matrix(.75 0 0 .75 3.75 -767.022)" gradientUnits="userSpaceOnUse"/><linearGradient xlink:href="#linearGradient4012" id="linearGradient4164-76" x1="3" x2="19" y1="1049.362" y2="1033.362" gradientTransform="matrix(.75 0 0 .75 3.75 -769.022)" gradientUnits="userSpaceOnUse"/><clipPath id="clipPath4160" clipPathUnits="userSpaceOnUse"><path id="rect4162" d="M7 1023.362h1v1H7z" style="opacity:1;fill:#f2f2f2;fill-opacity:1;stroke:none;stroke-opacity:1"/></clipPath><clipPath id="clipPath4160-4" clipPathUnits="userSpaceOnUse"><path id="rect4162-9" d="M7 1023.362h1v1H7z" style="opacity:1;fill:#f2f2f2;fill-opacity:1;stroke:none;stroke-opacity:1"/></clipPath><clipPath id="clipPath4160-3" clipPathUnits="userSpaceOnUse"><path id="rect4162-0" d="M7 1023.362h1v1H7z" style="opacity:1;fill:#f2f2f2;fill-opacity:1;stroke:none;stroke-opacity:1"/></clipPath><style id="current-color-scheme" type="text/css">.ColorScheme-Background{color:#eff0f1}.ColorScheme-Highlight{color:#3daee9}.ColorScheme-ViewText{color:#31363b}.ColorScheme-ViewBackground{color:#fcfcfc}.ColorScheme-ViewHover{color:#93cee9}.ColorScheme-ViewFocus{color:#3daee9}.ColorScheme-ButtonText{color:#31363b}.ColorScheme-ButtonBackground{color:#eff0f1}.ColorScheme-ButtonHover{color:#93cee9}.ColorScheme-ButtonFocus{color:#3daee9}</style></defs><g id="layer1" transform="translate(-544.571 -742.934)"><g id="layer1-5" transform="translate(544.571 -287.429)"><g id="g4071" transform="translate(1)"><path id="rect4346" d="M11 4c-.973 3.405-3.356 6.344-4.406 8.688A4.91 4.91 0 0 0 6 15c0 2.77 2.23 5 5 5s5-2.23 5-5a4.91 4.91 0 0 0-.594-2.313C14.356 10.345 11.973 7.405 11 4Z" style="fill:#b3b3b3;fill-opacity:1;stroke:none" transform="translate(-1 1029.362)"/><path id="rect4352-0" d="M11 4c-.3 1.048-.732 2.044-1.219 3H11V4Zm0 3v4h3.5c-.705-1.214-1.545-2.554-2.281-4H11Zm0 4H7.5c-.167.288-.354.57-.5.844V15h4v-4zm0 4v4h3a4.947 4.947 0 0 0 1-1v-3h-4z" style="fill:#777;fill-opacity:1;stroke:none" transform="translate(-1 1029.362)"/><path id="rect4156" d="M11 4c-.973 3.405-3.356 6.344-4.406 8.688A4.91 4.91 0 0 0 6 15c0 2.77 2.23 5 5 5s5-2.23 5-5a4.91 4.91 0 0 0-.594-2.313C14.356 10.345 11.973 7.405 11 4Z" style="fill:url(#linearGradient4010);fill-opacity:1;stroke:none" transform="translate(-1 1029.362)"/><g id="layer1-0" transform="translate(-379.857 490.286)"><path id="rect4108" d="M11 4c-.973 3.405-3.356 6.344-4.406 8.688A4.91 4.91 0 0 0 6 15c0 2.77 2.23 5 5 5s5-2.23 5-5a4.91 4.91 0 0 0-.594-2.313C14.356 10.345 11.973 7.405 11 4Zm0 2c.778 2.767 2.691 5.158 3.531 7.063.156.3.261.6.344.937.034.14.075.292.094.438.003.02-.003.042 0 .062.017.145.031.287.031.438V15a4.096 4.096 0 0 1-.094.75c-.003.02.004.043 0 .063a4.233 4.233 0 0 1-.219.718c-.003.01.004.022 0 .032a4.07 4.07 0 0 1-.374.656c-.006.007.004.024 0 .031-.14.208-.294.385-.47.563a3.848 3.848 0 0 1-.593.5A3.977 3.977 0 0 1 11 19a4.066 4.066 0 0 1-1.344-.25c-.03-.011-.063-.02-.094-.031-.04-.016-.085-.015-.124-.032-.065-.027-.126-.063-.188-.093-.11-.054-.21-.125-.313-.188-.071-.043-.15-.077-.218-.125-.02-.013-.044-.017-.063-.031a4.06 4.06 0 0 1-.5-.438 4.043 4.043 0 0 1-.406-.5c-.012-.008-.02-.023-.031-.03A4.129 4.129 0 0 1 7 14.936c0-.686.175-1.308.469-1.874C8.309 11.158 10.222 8.767 11 6Z" style="fill:currentColor;fill-opacity:1;stroke:none;color:#dedede" transform="translate(378.857 539.076)"/></g></g></g></g></svg>