<svg xmlns="http://www.w3.org/2000/svg" viewBox="0 0 22 22"><path d="M555.571 745.934c-.973 3.405-3.354 6.332-4.404 8.675a4.958 4.958 0 0 0-.596 2.325c0 2.77 2.23 5 5 5s5-2.23 5-5c0-.846-.228-1.628-.595-2.325-1.05-2.343-3.432-5.27-4.405-8.675zm2.284 7.716a3.984 3.984 0 0 1 1.716 3.284c0 2.216-1.784 4-4 4a3.984 3.984 0 0 1-3.283-1.717c.647.45 1.432.717 2.283.717 2.216 0 4-1.784 4-4 0-.852-.267-1.637-.716-2.284z" style="fill:#da4453;fill-opacity:1;stroke:none" transform="translate(-544.571 -742.934)"/></svg>