<svg xmlns="http://www.w3.org/2000/svg" viewBox="0 0 22 22"><path d="M11.5 4v1.813h1V4h-1M6.687 5.969l-.718.718L7.25 8l.719-.75-1.282-1.281m10.625 0-1.28 1.281.718.75 1.281-1.313-.718-.718M12 7a5 5 0 1 0 0 10 5 5 0 0 0 0-10zm0 1v8a4 4 0 0 1 0-8m-8 3.5v1h1.813v-1H4m14.188 0v1H20v-1h-1.813zM7.25 16.031l-1.281 1.282.718.718L7.97 16.75l-.719-.719m9.5 0-.719.719 1.282 1.281.718-.718-1.281-1.282m-5.25 2.157V20h1v-1.813h-1z" style="fill:currentColor;fill-opacity:1;stroke:none;color:#dedede" transform="translate(-1 -1)"/></svg>