<svg xmlns="http://www.w3.org/2000/svg" viewBox="0 0 22 22"><defs><style id="current-color-scheme" type="text/css">.ColorScheme-Text{color:#dedede}</style></defs><g fill="currentColor" class="ColorScheme-Text" transform="translate(3 3)"><path d="M3.5 7c-.277 0-.5.223-.5.5v4c0 .277.223.5.5.5h2c.277 0 .5-.223.5-.5v-4c0-.277-.223-.5-.5-.5zM4 8h1v3H4z"/><rect width="6" height="1" x="7" y="7" ry=".5"/><rect width="6" height="1" x="7" y="9" ry=".5"/><rect width="6" height="1" x="7" y="11" ry=".5"/></g><path fill="currentColor" d="M6 3C4.338 3 3 4.338 3 6v10c0 1.662 1.338 3 3 3h10c1.662 0 3-1.338 3-3V6c0-1.662-1.338-3-3-3H6zm0 3h10c1.108 0 2 .892 2 2v8c0 1.108-.892 2-2 2H6c-1.108 0-2-.892-2-2V8c0-1.108.892-2 2-2z" class="ColorScheme-Text"/></svg>