<svg xmlns="http://www.w3.org/2000/svg" viewBox="0 0 22 22"><defs><style id="current-color-scheme" type="text/css">.ColorScheme-Text{color:#dedede}</style></defs><path fill="currentColor" d="M15.5 13a3.5 3.5 0 0 0-3.5 3.5 3.5 3.5 0 0 0 3.5 3.5 3.5 3.5 0 0 0 3.5-3.5 3.5 3.5 0 0 0-3.5-3.5zm0 1 .479 1.346 1.289-.614-.614 1.29L18 16.5l-1.346.479.614 1.289-1.29-.614L15.5 19l-.479-1.346-1.289.614.614-1.29L13 16.5l1.346-.478-.614-1.29 1.29.614z" class="ColorScheme-Text"/><path fill="currentColor" d="M7 3C5.338 3 4 4.338 4 6v10c0 1.662 1.338 3 3 3h4v-1H7c-1.108 0-2-.892-2-2V6c0-1.108.892-2 2-2h5v5h5v3h1V8l-5-5h-1zm6 1.414L16.586 8H13z" class="ColorScheme-Text"/></svg>