<svg xmlns="http://www.w3.org/2000/svg" viewBox="0 0 22 22"><path d="M432.683 528.79c-1.75 0-3.407.422-4.969 1.264l.778 1.788c.78-.384 1.482-.658 2.107-.825a7.566 7.566 0 0 1 1.936-.25c.986 0 1.743.22 2.27.662.525.442.788 1.075.788 1.9 0 .443-.057.831-.172 1.165a3.198 3.198 0 0 1-.591 1c-.28.333-.868.883-1.764 1.65-1.1 1.004-2.251 2.786-2.352 4.647h2l-.006-.031c0-.76.132-1.368.395-1.827.271-.467.813-1.055 1.627-1.763.994-.842 1.657-1.475 1.986-1.9.337-.426.588-.875.752-1.35.165-.476.246-1.022.246-1.639 0-1.417-.448-2.519-1.344-3.303-.896-.792-2.125-1.187-3.687-1.187zm-1.969 14v2h2v-2h-2" style="fill:currentColor;fill-opacity:1;stroke:none;color:#dedede" transform="translate(-421.714 -525.79)"/><path d="m436.705 538.79-.99.99 2.01 2.01-2.01 2.01.99.99 2.01-2.01 2.01 2.01.99-.99-2.01-2.01 2.01-2.01-.99-.99-2.01 2.01-2.01-2.01" style="fill:#da4453" transform="translate(-421.714 -525.79)"/></svg>