<svg xmlns="http://www.w3.org/2000/svg" viewBox="0 0 22 22"><path d="M18.5 4c-.654 0-1.202.418-1.408 1H4v1c3.601 0 6.5 2.899 6.5 6.5a6.453 6.453 0 0 1-2.121 4.787A1.497 1.497 0 0 0 6 18.5a1.497 1.497 0 0 0 2.908.5H13v1h3v-3h-3v1H9.088a7.461 7.461 0 0 0 2.412-5.5A7.478 7.478 0 0 0 7.742 6h9.35A1.497 1.497 0 0 0 20 5.5c0-.831-.669-1.5-1.5-1.5m0 1a.499.499 0 1 1 0 1 .499.499 0 0 1-.46-.695A.499.499 0 0 1 18.5 5m-11 13a.499.499 0 1 1 0 1 .499.499 0 1 1 0-1m6.5 0h1v1h-1v-1z" style="fill:currentColor;fill-opacity:1;stroke:none;color:#dedede" transform="translate(-1 -1)"/></svg>