<svg xmlns="http://www.w3.org/2000/svg" viewBox="0 0 22 22"><defs><style id="current-color-scheme" type="text/css">.ColorScheme-Text{color:#dedede}</style></defs><g fill="currentColor" class="ColorScheme-Text"><path d="M5.268 16a2 2 0 1 0 3.133-.426L15.445 3.4l-.866-.5-7.045 12.175a2 2 0 0 0-2.266.924zm.866.5a1 1 0 1 1 1.732 1 1 1 0 0 1-1.732-1z"/><path d="M16.732 16a2 2 0 1 1-3.133-.426L6.556 3.4l.866-.5 7.044 12.175a2 2 0 0 1 2.266.924zm-.866.5a1 1 0 1 0-1.732 1 1 1 0 0 0 1.732-1z"/></g><path fill="currentColor" d="m9.457 12.572-.514.857A4 4 0 0 0 11 14a4 4 0 0 0 2.059-.57l-.516-.857A3 3 0 0 1 11 13a3 3 0 0 1-1.543-.428z" class="ColorScheme-Text"/></svg>