<svg xmlns="http://www.w3.org/2000/svg" viewBox="0 0 22 22"><defs><style id="current-color-scheme" type="text/css">.ColorScheme-Text{color:#dedede}</style></defs><path fill="currentColor" d="M9 1c-1.108 0-2 .892-2 2v1H2.5c-.277 0-.5.223-.5.5s.237.587.5.5h.498l.547 13.061c.061 1.016.906 1.94 1.998 1.94h9.914c1.092 0 1.937-.924 1.998-1.94L18.002 5h.498a.499.499 0 1 0 0-1H14V3c0-1.108-.892-2-2-2H9zm0 1h3c.554 0 1 .446 1 1v1H8V3c0-.554.446-1 1-1zM4 5h13l-.543 13c-.033.553-.446 1-1 1H5.543c-.554 0-.967-.447-1-1L4 5zm3.5 2c-.277 0-.5.223-.5.5v9a.499.499 0 1 0 1 0v-9c0-.277-.223-.5-.5-.5zm3.002 0c-.277 0-.5.223-.5.5v9a.499.499 0 1 0 1 0v-9c0-.277-.223-.5-.5-.5zM13.5 7c-.277 0-.5.223-.5.5v9a.499.499 0 1 0 1 0v-9c0-.277-.223-.5-.5-.5z" style="color:#da4453"/></svg>