<svg xmlns="http://www.w3.org/2000/svg" width="22" height="22" viewBox="0 0 5.821 5.821"><g fill="currentColor" style="color:#dedede"><path d="M2.901.793a2.383 2.383 0 0 0-1.105.24c-.11.054-.126.073-.119.132.014.12.076.132.26.05.341-.154.507-.187.938-.187.494 0 .676.042 1.081.252.07.036.29.206.372.114.082-.081.039-.148-.171-.268A2.368 2.368 0 0 0 2.9.793zm-.013.485a2.05 2.05 0 0 0-1.51.656c-.158.17-.34.447-.34.516 0 .08.032.124.092.124.047 0 .095-.05.209-.221a1.878 1.878 0 0 1 1.007-.775c.33-.108.714-.095 1.085 0a1.94 1.94 0 0 1 1.112.95c.05.096.079.125.126.125.083 0 .131-.061.109-.137a2.056 2.056 0 0 0-1.89-1.238zm.027.482a1.608 1.608 0 0 0-.357.034 1.604 1.604 0 0 0-1.195 1.158c-.08.307-.044.809.09 1.21.04.12.058.145.115.152.131.015.144-.048.066-.319-.225-.776-.031-1.436.525-1.796a1.358 1.358 0 0 1 1.738.241c.27.309.418.83.3 1.058a.396.396 0 0 1-.423.202c-.113-.028-.248-.168-.265-.275-.061-.379-.147-.527-.365-.628a.543.543 0 0 0-.522.008c-.17.086-.3.26-.326.435a1.572 1.572 0 0 0 1.2 1.62c.08.021.21.035.29.032l.146-.005c.082-.041.087-.137 0-.185l-.206-.031c-.259-.04-.366-.074-.544-.174a1.368 1.368 0 0 1-.664-1.132c0-.194.073-.308.245-.379.124-.051.126-.051.25 0 .157.065.233.174.252.363.036.346.276.573.605.573a.587.587 0 0 0 .566-.435c.077-.26-.027-.694-.244-1.024a1.556 1.556 0 0 0-1.277-.703zm-.017.501a1.39 1.39 0 0 0-.473.087 1.2 1.2 0 0 0-.523.536c-.08.17-.085.196-.085.483 0 .354.043.542.195.86.132.273.313.511.515.675.176.142.194.149.267.095.075-.054.033-.148-.118-.264a1.804 1.804 0 0 1-.459-.59c-.196-.39-.245-.873-.118-1.15.093-.2.234-.35.414-.438a.92.92 0 0 1 .75 0c.258.127.423.358.481.675.035.189.088.252.168.2.038-.024.046-.065.042-.209-.008-.35-.253-.701-.612-.877a1.018 1.018 0 0 0-.444-.083z"/><path d="M3.628 4.388a1.087 1.087 0 0 1-.839-.959c-.012-.146-.008-.165.043-.192.096-.052.152.002.171.166a.875.875 0 0 0 .76.78c.2.027.263.104.167.2-.048.048-.101.05-.302.005z"/></g></svg>