<svg xmlns="http://www.w3.org/2000/svg" viewBox="0 0 22 22"><path fill="currentColor" d="M7.91 3 3 17h1.658l1.625-4.438h5.434l.65 1.776a4 4 0 0 1 1.125-1.453L10.09 3H7.91zm1.106 1.938 2.18 6.343H6.804z" style="color:#dedede"/><path fill="currentColor" d="M19 16c0-1.662-1.338-3-3-3s-3 1.338-3 3 1.338 3 3 3 3-1.338 3-3zm-1 0c0 .372-.106.714-.281 1.012l-2.73-2.73c.297-.176.64-.282 1.011-.282 1.108 0 2 .892 2 2zm-.988 1.719A1.996 1.996 0 0 1 14 16c0-.372.106-.714.281-1.012z" style="color:#da4453"/></svg>