<svg xmlns="http://www.w3.org/2000/svg" viewBox="0 0 22 22"><path fill="currentColor" d="M7.5 2C5.567 2 4 3.79 4 6v3c0 2.21 1.567 4 3.5 4S11 11.21 11 9V6c0-2.21-1.567-4-3.5-4zm8 0C13.567 2 12 3.79 12 6v3c0 2.21 1.567 4 3.5 4S19 11.21 19 9V6c0-2.21-1.567-4-3.5-4zm-8 1C8.88 3 10 4.343 10 6v3c0 1.657-1.12 3-2.5 3S5 10.657 5 9V6c0-1.657 1.12-3 2.5-3zm8 0C16.88 3 18 4.343 18 6v3c0 1.657-1.12 3-2.5 3S13 10.657 13 9V6c0-1.657 1.12-3 2.5-3zM3 12v1h1v-1z" style="color:#dedede"/><path fill="#1d99f3" d="M15 14v2h-2v1h2v2h1v-2h2v-1h-2v-2z"/></svg>