<svg xmlns="http://www.w3.org/2000/svg" viewBox="0 0 22 22"><path fill="currentColor" d="M11.996 3.002c-2.911 2.92-5.832 5.826-8.742 8.736l.002.004-.25.25H3V16h4.008c2.905-2.902 6-6.003 8.99-8.996l-3.998-4zm-.584 1.996L14 7.588l-4.268 4.267-2.587-2.59zM16.5 8c-.486 1.702-1.678 3.166-2.203 4.338-.184.348-.297.74-.297 1.162 0 1.385 1.115 2.5 2.5 2.5s2.5-1.115 2.5-2.5c0-.423-.113-.814-.297-1.162C18.178 11.166 16.986 9.703 16.5 8zM6.437 9.973l2.588 2.59-.707.707-2.59-2.59c.238-.235.473-.471.71-.707zm-1.416 1.414 2.59 2.59.004.002-.707.707-.004-.002-2.59-2.59zM3 18v1h16v-1z" style="color:#dedede"/></svg>