<svg xmlns="http://www.w3.org/2000/svg" viewBox="0 0 22 22"><path fill="currentColor" d="M10.961 2c-.019.002-.036.012-.055.016-.03.006-.06.011-.09.023a.486.486 0 0 0-.09.05c-.016.012-.035.015-.05.028L2.303 9.252a.5.5 0 1 0 .648.762l1.05-.895V16c0 1.662 1.337 3 3 3h8c1.661 0 3-1.338 3-3V9.12l1.048.894a.5.5 0 1 0 .648-.762L17 6.953V3.5c0-.277-.223-.5-.5-.5h-1c-.277 0-.5.223-.5.5v1.75l-3.676-3.133c-.015-.013-.034-.016-.05-.027a.486.486 0 0 0-.09-.05c-.03-.013-.06-.018-.09-.024A.484.484 0 0 0 11 2.004c-.013 0-.026-.005-.04-.004zm.04 1.154 6 5.114V16c0 1.108-.893 2-2 2h-2v-3c0-1.108-.893-2-2-2s-2 .892-2 2v3H7c-1.109 0-2-.892-2-2V8.268l6-5.114z" style="color:#dedede"/></svg>