<svg xmlns="http://www.w3.org/2000/svg" viewBox="0 0 22 22"><defs><style id="current-color-scheme" type="text/css">.ColorScheme-Text{color:#dedede}</style></defs><path fill="currentColor" d="M16.5 11a3.5 3.5 0 0 0-3.5 3.5 3.5 3.5 0 0 0 3.5 3.5 3.5 3.5 0 0 0 3.5-3.5 3.5 3.5 0 0 0-3.5-3.5zm0 1.086 2.5 2.5-.707.707L17 14v3h-1v-3l-1.293 1.293-.707-.707 2.5-2.5z" class="ColorScheme-Text"/><path fill="currentColor" d="M4 3c-1.108 0-2 .892-2 2v11c0 1.108.892 2 2 2h8v-1H4c-.554 0-1-.446-1-1V8h16v2h1V6c0-1.108-.892-2-2-2H8.371c-.58-.023-.605.077-1.039-.357C6.898 3.209 6.719 3 6 3H4zm0 1h2c.311 0 .52 0 .998.47.479.472.639.53 1 .53H18c.554 0 1 .446 1 1v1H3V5c0-.554.446-1 1-1z" class="ColorScheme-Text"/></svg>