<svg width="24" height="24" viewBox="0 0 24 24" fill="none" xmlns="http://www.w3.org/2000/svg">
<rect x="0.5" y="0.5" width="23" height="23" fill="#A4A4A4" fill-opacity="0.01"/>
<path fill-rule="evenodd" clip-rule="evenodd" d="M3.99254 18L12 5.67171L20.0075 18H3.99254ZM10.5324 4.25952C11.2224 3.19716 12.7776 3.19716 13.4676 4.25952L21.9355 17.2968C22.6917 18.461 21.8562 20 20.4679 20H3.53206C2.14381 20 1.30827 18.461 2.06446 17.2968L10.5324 4.25952Z" fill="url(#paint0_linear_2_14)"/>
<path d="M12 5.67171L12.2097 5.53554L12 5.21275L11.7903 5.53554L12 5.67171ZM3.99254 18L3.78289 17.8638L3.53206 18.25H3.99254V18ZM20.0075 18V18.25H20.4679L20.2171 17.8638L20.0075 18ZM13.4676 4.25952L13.2579 4.39569L13.2579 4.39569L13.4676 4.25952ZM10.5324 4.25952L10.7421 4.39569L10.7421 4.39569L10.5324 4.25952ZM21.9355 17.2968L22.1452 17.1606L22.1452 17.1606L21.9355 17.2968ZM2.06446 17.2968L1.8548 17.1606L1.8548 17.1606L2.06446 17.2968ZM11.7903 5.53554L3.78289 17.8638L4.2022 18.1362L12.2097 5.80789L11.7903 5.53554ZM20.2171 17.8638L12.2097 5.53554L11.7903 5.80789L19.7978 18.1362L20.2171 17.8638ZM3.99254 18.25H20.0075V17.75H3.99254V18.25ZM13.6773 4.12334C12.8887 2.90922 11.1113 2.90922 10.3227 4.12334L10.7421 4.39569C11.3335 3.4851 12.6665 3.4851 13.2579 4.39569L13.6773 4.12334ZM22.1452 17.1606L13.6773 4.12334L13.2579 4.39569L21.7259 17.4329L22.1452 17.1606ZM20.4679 20.25C22.0545 20.25 23.0094 18.4911 22.1452 17.1606L21.7259 17.4329C22.374 18.4308 21.6579 19.75 20.4679 19.75V20.25ZM3.53206 20.25H20.4679V19.75H3.53206V20.25ZM1.8548 17.1606C0.99059 18.4911 1.94549 20.25 3.53206 20.25V19.75C2.34213 19.75 1.62596 18.4308 2.27412 17.4329L1.8548 17.1606ZM10.3227 4.12334L1.8548 17.1606L2.27412 17.4329L10.7421 4.39569L10.3227 4.12334Z" fill="url(#paint1_linear_2_14)"/>
<defs>
<linearGradient id="paint0_linear_2_14" x1="12" y1="17.2786" x2="12" y2="3.33154" gradientUnits="userSpaceOnUse">
<stop stop-color="#CCCCCC"/>
<stop offset="1" stop-color="#F9F9F9"/>
</linearGradient>
<linearGradient id="paint1_linear_2_14" x1="12" y1="3.67171" x2="12" y2="18.5" gradientUnits="userSpaceOnUse">
<stop stop-color="#F9F9F9"/>
<stop offset="1" stop-color="#CCCCCC"/>
</linearGradient>
</defs>
</svg>
