<svg xmlns="http://www.w3.org/2000/svg" viewBox="0 0 22 22"><defs id="defs3051"><style id="current-color-scheme" type="text/css">.ColorScheme-Text{color:#dedede}</style></defs><path d="m9.91 4-3.314 9.594-.123.406L5 18h1.658l1.625-4.438h5.434L15.342 18H17l-1.473-4-.123-.406L12.09 4H9.91zm1.106 1.938 2.18 6.343H8.804l2.21-6.344zM18 3a1 1 0 1 0 0 2 1 1 0 0 0 0-2zm0 4a1 1 0 1 0 0 2 1 1 0 0 0 0-2zm0 4a1 1 0 1 0 0 2 1 1 0 0 0 0-2z" class="ColorScheme-Text" style="fill:currentColor;fill-opacity:1;stroke:none"/></svg>