<svg xmlns="http://www.w3.org/2000/svg" viewBox="0 0 22 22"><defs><style id="current-color-scheme" type="text/css">.ColorScheme-Text{color:#dedede}</style></defs><path fill="currentColor" d="M10 7v1h1V7zm0 2v7h1V9z" class="ColorScheme-Text"/><path fill="currentColor" d="M10.387 3A8.5 8.5 0 0 0 2 11.5a8.5 8.5 0 0 0 8.5 8.5 8.5 8.5 0 0 0 8.5-8.5A8.5 8.5 0 0 0 10.5 3a8.5 8.5 0 0 0-.113 0zm.076 1a7.5 7.5 0 0 1 .037 0 7.5 7.5 0 0 1 7.5 7.5 7.5 7.5 0 0 1-7.5 7.5A7.5 7.5 0 0 1 3 11.5 7.5 7.5 0 0 1 10.463 4z" class="ColorScheme-Text"/></svg>