<svg xmlns="http://www.w3.org/2000/svg" width="22" height="22"><path d="M11 4c-.558 0-.827.299-.998.494a3.024 3.024 0 0 0-.395.596c-.222.415-.42.894-.609 1.379s-.369.97-.52 1.342a7.023 7.023 0 0 1-.193.44c-.005.011-.008.011-.014.02-.009.006-.009.01-.02.014-.099.05-.255.118-.44.194-.371.15-.858.33-1.342.519s-.964.387-1.38.61c-.207.11-.4.223-.595.394C4.3 10.173 4 10.442 4 11s.299.827.494.998c.196.171.388.283.596.395.415.222.894.42 1.379.609.484.19.97.369 1.342.52.185.075.341.143.44.193.012.005.013.008.022.014l.012.019c.05.1.118.256.194.441.15.371.33.858.519 1.342s.387.964.61 1.38c.11.207.223.4.394.595.171.195.44.494.998.494s.827-.299.998-.494c.171-.196.283-.388.395-.596.222-.415.42-.894.609-1.379.19-.484.369-.97.52-1.342.075-.185.143-.341.193-.441.005-.01.008-.012.014-.021l.019-.012c.1-.05.256-.118.441-.194.371-.15.858-.33 1.342-.52.485-.189.964-.386 1.38-.608.207-.112.4-.224.595-.395.195-.171.494-.44.494-.998s-.299-.827-.494-.998a3.024 3.024 0 0 0-.596-.395c-.415-.222-.894-.42-1.379-.609s-.97-.369-1.342-.52a7.026 7.026 0 0 1-.441-.193c-.01-.005-.01-.008-.02-.014-.005-.009-.008-.009-.013-.02-.05-.099-.118-.255-.194-.44-.15-.371-.33-.858-.52-1.342s-.386-.964-.608-1.38a3.023 3.023 0 0 0-.395-.595C11.827 4.3 11.558 4 11 4zm0 1c.617 0 1.569 3.558 2.006 3.994C13.442 9.431 17 10.383 17 11s-3.558 1.569-3.994 2.006C12.569 13.442 11.617 17 11 17s-1.569-3.558-2.006-3.994C8.558 12.569 5 11.617 5 11s3.558-1.569 3.994-2.006C9.431 8.558 10.383 5 11 5z" style="fill:currentColor;color:#dedede"/></svg>