<svg xmlns="http://www.w3.org/2000/svg" viewBox="0 0 22 22"><g fill="currentColor" style="color:#dedede"><path d="M3 8v6h2V8zM6 8v6l5 5h1v-5zM11 3 8 6l4 4V3z"/><g opacity=".35"><path d="M14.832 16.832a7 7 0 0 1-1.213.647l.244.974a8 8 0 0 0 1.682-.908zM14.324 7.281l-.539.862A4 4 0 0 1 15 11a4 4 0 0 1-.371 1.629l.75.75A5 5 0 0 0 16 11a5 5 0 0 0-1.676-3.719z"/><path d="m13.865 3.537-.244.977A7 7 0 0 1 18 11a7 7 0 0 1-1.166 3.834l.717.717A8 8 0 0 0 19 11a8 8 0 0 0-5.135-7.463z"/></g></g><path fill="currentColor" d="M-.5 4.743h1V26.37h-1z" style="color:#da4453" transform="rotate(-45)"/></svg>