<svg xmlns="http://www.w3.org/2000/svg" viewBox="0 0 22 22"><path d="M10 3v1h2v1.994c.166-.019.329-.05.5-.05a4.5 4.5 0 0 1 4.5 4.5 4.49 4.49 0 0 1-2.059 3.77 6.39 6.39 0 0 1-.285 1.286C16.618 14.658 18 12.705 18 10.443c0-1.318-.486-2.517-1.266-3.466l.77-.762.787.785.707-.707-2.295-2.291-.707.707.799.799-.762.756A5.461 5.461 0 0 0 13 4.969V4h2V3zM6 6.031v1h2V8c-2.793.255-5 2.618-5 5.475 0 3.025 2.474 5.5 5.5 5.5s5.5-2.475 5.5-5.5c0-1.318-.486-2.518-1.266-3.467l.77-.762.787.785.707-.707-2.295-2.29-.707.706.799.8-.762.755A5.461 5.461 0 0 0 9 8v-.969h2v-1zm2.5 2.944a4.5 4.5 0 1 1 0 9 4.5 4.5 0 0 1 0-9z" style="fill:currentColor;fill-opacity:1;stroke:none;color:#dedede"/></svg>