<svg xmlns="http://www.w3.org/2000/svg" viewBox="0 0 22 22"><defs><style id="current-color-scheme" type="text/css">.ColorScheme-Text{color:#dedede}</style></defs><g fill="currentColor" class="ColorScheme-Text"><path d="M12.414 9.586a2.483 2.483 0 0 0-.39-.318l-.734.735a1.486 1.486 0 0 1 .417 2.411l-2.121 2.122a1.486 1.486 0 0 1-2.122 0 1.486 1.486 0 0 1 0-2.122l.605-.605a3.53 3.53 0 0 1-.205-1.208l-1.107 1.106a2.506 2.506 0 0 0 0 3.536 2.506 2.506 0 0 0 3.536 0l2.121-2.122a2.506 2.506 0 0 0 0-3.535z" class="ColorScheme-Text"/><path d="M9.586 12.414c.121.121.251.227.39.318l.734-.735a1.486 1.486 0 0 1-.417-2.411l2.121-2.122a1.486 1.486 0 0 1 2.122 0 1.486 1.486 0 0 1 0 2.122l-.605.605c.136.39.21.798.205 1.208l1.107-1.106a2.506 2.506 0 0 0 0-3.536 2.506 2.506 0 0 0-3.536 0L9.586 8.88a2.506 2.506 0 0 0 0 3.535z" class="ColorScheme-Text"/></g><path fill="currentColor" d="M10.99 2A9 9 0 0 0 2 11a9 9 0 0 0 9 9 9 9 0 0 0 9-9 9 9 0 0 0-9-9 9 9 0 0 0-.01 0zM11 3a8 8 0 0 1 8 8 8 8 0 0 1-8 8 8 8 0 0 1-8-8 8 8 0 0 1 8-8z" class="ColorScheme-Text"/></svg>