<svg xmlns="http://www.w3.org/2000/svg" viewBox="0 0 22 22"><defs><style id="current-color-scheme" type="text/css">.ColorScheme-Text{color:#dedede}</style></defs><path fill="currentColor" d="M17.5 12a1.5 1.5 0 0 0-1.5 1.5V15h-1v3h5v-3h-1v-1.5a1.5 1.5 0 0 0-1.5-1.5zm0 1a.5.5 0 0 1 .5.5V15h-1v-1.5a.5.5 0 0 1 .5-.5zM16 16h3v1h-3z" class="ColorScheme-Text"/><path fill="currentColor" d="M5 4C3.338 4 2 5.338 2 7v8c0 1.662 1.338 3 3 3h9v-1H5a1.99 1.99 0 0 1-1.988-1.887l4.597-3.498.721.55c1.465 1.114 3.876 1.114 5.342 0L19 8.11v2.89h1V7c0-1.663-1.338-3-3-3zm0 1h12a1.99 1.99 0 0 1 1.988 1.887l-6.129 4.66c-1.03.783-2.688.783-3.718 0l-6.13-4.66A1.99 1.99 0 0 1 5 5zM3 8.11 6.8 11 3 13.889z" class="ColorScheme-Text"/><path fill="currentColor" d="M17.5 12a1.5 1.5 0 0 0-1.5 1.5V15h-1v3h5v-3h-1v-1.5a1.5 1.5 0 0 0-1.5-1.5zm0 1a.5.5 0 0 1 .5.5V15h-1v-1.5a.5.5 0 0 1 .5-.5zM16 16h3v1h-3z" class="ColorScheme-Text"/></svg>