<svg xmlns="http://www.w3.org/2000/svg" width="22" height="22"><style id="current-color-scheme" type="text/css">.ColorScheme-NegativeText{color:#da4453}</style><path id="strikethrough" fill="#da4453" d="M4 4.707 19.293 20l.707-.707L4.707 4z"/><path fill="currentColor" fill-rule="evenodd" d="M12 4a1 1 0 0 0-1 1 1 1 0 0 0 .01.129 4 4 0 0 0-2.24 1.52l.716.716A3 3 0 0 1 12 6a3 3 0 0 1 3 3c0 3 .586 4 2.586 6h-.465l1 1H19v-1c-2-2-3-3-3-6a4 4 0 0 0-3.01-3.871A1 1 0 0 0 13 5a1 1 0 0 0-1-1zm-4.053 6.068C7.722 12.273 6.741 13.258 5 15v1h8.879l-1-1H6.414c1.48-1.48 2.182-2.416 2.45-4.016zM10.27 17a2 2 0 0 0-.27 1 2 2 0 0 0 2 2 2 2 0 0 0 2-2 2 2 0 0 0-.271-1z" style="color:#dedede"/></svg>