<svg xmlns="http://www.w3.org/2000/svg" viewBox="0 0 22 22"><path fill="currentColor" d="M10.998 5.04c-3.77.004-7.07 2.366-8.008 5.73a1.042.96 0 0 0 0 .478c.946 3.356 4.246 5.71 8.01 5.713a1.042.96 0 0 0 .002 0c3.77-.005 7.07-2.367 8.007-5.73a1.042.96 0 0 0 0-.48c-.945-3.357-4.245-5.71-8.01-5.712a1.042.96 0 0 0-.001 0zM11 6c3.295.002 6.172 2.054 7 4.992-.821 2.945-3.7 5.004-7 5.008-3.295-.002-6.172-2.054-7-4.992C4.82 8.063 7.7 6.004 11 6z" style="color:#dedede"/><path fill="#da4453" d="M11 8a3 3 0 0 0-3 3 3 3 0 0 0 3 3 3 3 0 0 0 3-3 3 3 0 0 0-3-3zm0 1a2 2 0 0 1 2 2 2 2 0 0 1-2 2 2 2 0 0 1-2-2 2 2 0 0 1 2-2z"/></svg>