<svg xmlns="http://www.w3.org/2000/svg" viewBox="0 0 22 22"><g fill="currentColor" style="color:#dedede"><path d="M5 3C3.338 3 2 4.338 2 6v10c0 1.662 1.338 3 3 3h3v-1H5c-1.108 0-2-.892-2-2V8c0-1.108.892-2 2-2h11c1.108 0 2 .892 2 2h1V6c0-1.662-1.338-3-3-3z"/><path d="M12 9c-1.662 0-3 1.338-3 3v5c0 1.662 1.338 3 3 3h5c1.662 0 3-1.338 3-3v-5c0-1.662-1.338-3-3-3zm0 3h5c1.108 0 2 .892 2 2v3c0 1.108-.892 2-2 2h-5c-1.108 0-2-.892-2-2v-3c0-1.108.892-2 2-2zM6.5 8c-.277 0-.5.223-.5.5v1c0 .277.223.5.5.5h1c.277 0 .5-.223.5-.5v-1c0-.277-.223-.5-.5-.5h-1zm3 0c-.277 0-.5.223-.5.5v.875a3.96 3.96 0 0 1 1.875-1.197A.492.492 0 0 0 10.5 8h-1zm-5 3c-.277 0-.5.223-.5.5v1c0 .277.223.5.5.5h1c.277 0 .5-.223.5-.5v-1c0-.277-.223-.5-.5-.5h-1zm3 0c-.277 0-.5.223-.5.5v1c0 .277.223.5.5.5H8v-1c0-.347.056-.679.139-1H7.5zm-3 3c-.277 0-.5.223-.5.5v1c0 .277.223.5.5.5h1c.277 0 .5-.223.5-.5v-1c0-.277-.223-.5-.5-.5h-1zm3 0c-.277 0-.5.223-.5.5v1c0 .277.223.5.5.5H8v-2h-.5z"/></g></svg>