<svg xmlns="http://www.w3.org/2000/svg" viewBox="0 0 22 22"><path d="M2.005 2v3c8.285 0 15.001 6.717 15.001 15.002h3v-.095c0-.586-.039-1.162-.094-1.734-.003-.031.003-.063 0-.094-.059-.572-.171-1.134-.282-1.688-.006-.03.006-.064 0-.094a17.635 17.635 0 0 0-1.782-4.876c-.006-.012.006-.036 0-.046a17.91 17.91 0 0 0-10.501-8.58 17.65 17.65 0 0 0-1.642-.421c-.03-.006-.064.006-.094 0a17.915 17.915 0 0 0-1.688-.282c-.031-.003-.063.003-.094 0a18.404 18.404 0 0 0-1.734-.095H2m0 6v3.001a9 9 0 0 1 9.001 9.001h3C14.001 13.371 8.628 7.998 2 7.998m3 6A3 3 0 1 0 5 20a3 3 0 1 0 0-6" style="fill:currentColor;fill-opacity:1;stroke:none;color:#dedede"/></svg>