<svg xmlns="http://www.w3.org/2000/svg" viewBox="0 0 22 22"><path fill="currentColor" d="M11 3a8 8 0 1 0 0 16c.692 0 1.36-.097 2-.262v-1.037A7 7 0 0 1 11 18a7 7 0 0 1-7-7 7 7 0 0 1 7-7 7 7 0 0 1 7 7 7 7 0 0 1-.297 2h1.018c.167-.641.279-1.306.279-2a8 8 0 0 0-8-8zM8 7.037c-.24 0-.286.008-.424.076a1.061 1.061 0 0 0-.469.469c-.067.136-.076.184-.076.41 0 .22.01.276.07.406.129.274.361.476.641.555.072.02.205.03.319.024a.954.954 0 0 0 .82-.551c.08-.163.088-.2.088-.434 0-.226-.01-.273-.076-.41a1.061 1.061 0 0 0-.47-.469c-.137-.068-.182-.076-.423-.076zm6 0c-.24 0-.286.008-.424.076a1.061 1.061 0 0 0-.469.469c-.067.136-.076.184-.076.41 0 .22.01.276.07.406.129.274.361.476.641.555.072.02.205.03.319.024a.954.954 0 0 0 .82-.551c.08-.163.088-.2.088-.434 0-.226-.01-.273-.076-.41a1.061 1.061 0 0 0-.47-.469c-.137-.068-.182-.076-.423-.076zm-6.822 5.986.017.075c.01.04.053.166.094.279a3.98 3.98 0 0 0 3.106 2.562c1.03.16 2.141-.114 2.959-.732.351-.266.742-.689.988-1.07.163-.253.403-.791.463-1.04l.017-.074H7.178zM16 14v2h-2v1h2v2h1v-2h2v-1h-2v-2h-1z" style="color:#dedede"/></svg>