<svg xmlns="http://www.w3.org/2000/svg" viewBox="0 0 22 22"><defs><style id="current-color-scheme" type="text/css">.ColorScheme-Text{color:#dedede}</style></defs><path fill="currentColor" d="M17.5 12a3.5 3.5 0 1 0 0 7 3.5 3.5 0 0 0 0-7zm-.5 1h1v2h2v1h-2v2h-1v-2h-2v-1h2v-2z" class="ColorScheme-Text"/><path fill="currentColor" d="M5 4C3.338 4 2 5.338 2 7v8c0 1.662 1.338 3 3 3h8v-1H5c-1.108 0-2-.892-2-2V8h8v1h8v2h1V7c0-1.662-1.338-3-3-3zm0 1h12c1.108 0 2 .892 2 2H3c0-1.108.892-2 2-2z" class="ColorScheme-Text"/></svg>