<svg xmlns="http://www.w3.org/2000/svg" viewBox="0 0 22 22"><defs><style id="current-color-scheme" type="text/css">.ColorScheme-Text{color:#dedede}</style></defs><path fill="currentColor" d="m4.5 3-.531.969L3 4.5l.969.531L4.5 6l.531-.969L6 4.5l-.969-.531Zm5 0-.531.969L8 4.5l.969.531L9.5 6l.531-.969L11 4.5l-.969-.531Zm-3 4-.531.969L5 8.5l.969.531L6.5 10l.531-.969L8 8.5l-.969-.531ZM17.364 4.636a1.996 1.996 0 0 0-2.828 0l-9.9 9.9a1.996 1.996 0 0 0 0 2.828 1.996 1.996 0 0 0 2.828 0l9.9-9.9a1.996 1.996 0 0 0 0-2.828zm-.707.707a.998.998 0 0 1 0 1.414l-2.829 2.829-1.414-1.414 2.829-2.829a.998.998 0 0 1 1.414 0zm-4.95 3.536 1.414 1.414-6.364 6.364a.998.998 0 0 1-1.414 0 .998.998 0 0 1 0-1.414z" class="ColorScheme-Text"/></svg>