<svg xmlns="http://www.w3.org/2000/svg" viewBox="0 0 22 22"><defs><style id="current-color-scheme" type="text/css">.ColorScheme-Text{color:#dedede}</style></defs><g fill="currentColor" class="ColorScheme-Text" transform="translate(3 3)"><circle cx="5" cy="6" r="1"/><circle cx="11" cy="6" r="1"/><path d="M8 9a5 5 0 0 0-4.576 3H4.54A4 4 0 0 1 8 10a4 4 0 0 1 3.459 2h1.121A5 5 0 0 0 8 9z"/></g><path fill="currentColor" d="M10.99 2A9 9 0 0 0 2 11a9 9 0 0 0 9 9 9 9 0 0 0 9-9 9 9 0 0 0-9-9 9 9 0 0 0-.01 0zM11 3a8 8 0 0 1 8 8 8 8 0 0 1-8 8 8 8 0 0 1-8-8 8 8 0 0 1 8-8z" class="ColorScheme-Text"/></svg>