<svg xmlns="http://www.w3.org/2000/svg" viewBox="0 0 22 22"><path d="M566.732 587.12c-1.694-.041-2.94.895-3.771 2.19-.831 1.297-1.331 2.962-1.748 4.608-.417 1.646-.746 3.28-1.158 4.457-.207.589-.438 1.059-.67 1.348-.233.288-.42.391-.672.396h-1.99v1h2.01c.58-.011 1.078-.331 1.431-.77.353-.438.608-1 .834-1.644.452-1.29.777-2.929 1.186-4.543.408-1.614.902-3.195 1.619-4.312.716-1.118 1.571-1.763 2.908-1.73h.008c2.713.02 3.864 1.138 4.455 2.251.39.732.328 1.05.362 1.465-1.7-.755-3.136-.951-4.145-.418-1.202.635-1.748 1.98-1.836 3.385-.088 1.405.256 2.927.955 4.146.699 1.22 1.81 2.17 3.213 2.17 1.548.015 3.006 0 3.006 0l-.012-1s-1.45.015-2.99 0h-.004c-.952 0-1.758-.643-2.346-1.668-.587-1.025-.899-2.395-.824-3.586.075-1.19.514-2.146 1.305-2.564.79-.418 2.097-.393 4.119.754l.71.402.036-.816s.064-1.363-.666-2.739c-.73-1.374-2.326-2.756-5.322-2.783h-.002z" style="fill:currentColor;fill-opacity:1;stroke:none;color:#dedede" transform="translate(-553.723 -583.12)"/></svg>