<svg xmlns="http://www.w3.org/2000/svg" id="svg19" version="1.1" viewBox="0 0 22 22"><style id="current-color-scheme" type="text/css">.ColorScheme-Text{color:#dedede}</style><g id="g13" fill="currentColor" stroke-linecap="square" class="ColorScheme-Text"><path id="path3" d="M5.5 4A2.5 2.5 0 0 0 3 6.5 2.5 2.5 0 0 0 5.5 9 2.5 2.5 0 0 0 8 6.5 2.5 2.5 0 0 0 5.5 4Zm0 1A1.5 1.5 0 0 1 7 6.5 1.5 1.5 0 0 1 5.5 8 1.5 1.5 0 0 1 4 6.5 1.5 1.5 0 0 1 5.5 5Z"/><path id="path5" d="M5.5 14A2.5 2.5 0 0 0 3 16.5 2.5 2.5 0 0 0 5.5 19 2.5 2.5 0 0 0 8 16.5 2.5 2.5 0 0 0 5.5 14zm0 1A1.5 1.5 0 0 1 7 16.5 1.5 1.5 0 0 1 5.5 18 1.5 1.5 0 0 1 4 16.5 1.5 1.5 0 0 1 5.5 15z"/><path id="path7" d="M15.5 14a2.5 2.5 0 0 0-2.5 2.5 2.5 2.5 0 0 0 2.5 2.5 2.5 2.5 0 0 0 2.5-2.5 2.5 2.5 0 0 0-2.5-2.5zm0 1a1.5 1.5 0 0 1 1.5 1.5 1.5 1.5 0 0 1-1.5 1.5 1.5 1.5 0 0 1-1.5-1.5 1.5 1.5 0 0 1 1.5-1.5z"/><path id="path9" d="M5 8h1v7H5z"/><path id="path11" d="M10 6v1h4a1 1 0 0 1 1 1v7h1V8a2 2 0 0 0-1.951-2A2 2 0 0 0 14 6z"/></g><path id="path15" fill="currentColor" d="m12.5 2.793-.354.353L8.793 6.5l3.353 3.354.354.353.707-.707-.353-.354L10.207 6.5l2.647-2.646.353-.354-.707-.707z" class="ColorScheme-Text"/></svg>