<svg xmlns="http://www.w3.org/2000/svg" viewBox="0 0 22 22"><g fill="currentColor" stroke-linecap="square"><g style="color:#dedede"><path d="M5.5 3A2.5 2.5 0 0 0 3 5.5 2.5 2.5 0 0 0 5.5 8 2.5 2.5 0 0 0 8 5.5 2.5 2.5 0 0 0 5.5 3zm0 1A1.5 1.5 0 0 1 7 5.5 1.5 1.5 0 0 1 5.5 7 1.5 1.5 0 0 1 4 5.5 1.5 1.5 0 0 1 5.5 4zM5.5 14A2.5 2.5 0 0 0 3 16.5 2.5 2.5 0 0 0 5.5 19 2.5 2.5 0 0 0 8 16.5 2.5 2.5 0 0 0 5.5 14zm0 1A1.5 1.5 0 0 1 7 16.5 1.5 1.5 0 0 1 5.5 18 1.5 1.5 0 0 1 4 16.5 1.5 1.5 0 0 1 5.5 15z"/><path d="M5 7h1v8H5z"/><path d="M15 7v2a1 1 0 0 1-1 1H7a2 2 0 0 0-.049 0A2 2 0 0 0 5 12h1a1 1 0 0 1 1-1h7a2 2 0 0 0 .049 0A2 2 0 0 0 16 9V7z"/></g><path d="M15.5 3A2.5 2.5 0 0 0 13 5.5 2.5 2.5 0 0 0 15.5 8 2.5 2.5 0 0 0 18 5.5 2.5 2.5 0 0 0 15.5 3zm0 1A1.5 1.5 0 0 1 17 5.5 1.5 1.5 0 0 1 15.5 7 1.5 1.5 0 0 1 14 5.5 1.5 1.5 0 0 1 15.5 4z" style="color:#3daee9"/></g></svg>