<svg xmlns="http://www.w3.org/2000/svg" viewBox="0 0 22 22"><defs><style id="current-color-scheme" type="text/css">.ColorScheme-Text{color:#dedede}</style></defs><path fill="currentColor" d="M20 16.5a3.5 3.5 0 0 0-3.5-3.5 3.5 3.5 0 0 0-3.5 3.5 3.5 3.5 0 0 0 3.5 3.5 3.5 3.5 0 0 0 3.5-3.5zm-1.086 0-2.5 2.5-.707-.707L17 17h-3v-1h3l-1.293-1.293.707-.707 2.5 2.5z" class="ColorScheme-Text"/><path fill="currentColor" d="M7 3C5.338 3 4 4.338 4 6v1h-.5a.499.499 0 1 0 0 1H4v7h-.5a.499.499 0 1 0 0 1H4c0 1.662 1.338 3 3 3h5v-1H8c-1.108 0-2-.892-2-2V6c0-1.108.892-2 2-2h8c1.108 0 2 .892 2 2v6h1V6c0-1.662-1.338-3-3-3H7z" class="ColorScheme-Text"/></svg>