<svg width="25" height="24" viewBox="0 0 25 24" fill="none" xmlns="http://www.w3.org/2000/svg">
<rect x="0.5" width="24" height="24" fill="#A4A4A4" fill-opacity="0.01"/>
<path d="M12.3879 21.3255C9.80973 21.3255 7.60054 20.421 5.76032 18.6119C3.92011 16.8029 3 14.6246 3 12.0772C3 9.52979 3.92011 7.34233 5.76032 5.51483C7.60054 3.68733 9.80973 2.77358 12.3879 2.77358C13.7759 2.77358 15.0523 3.05048 16.2172 3.60427C16.7049 3.83612 17.1659 4.10034 17.6001 4.39691C18.245 4.83749 19.2537 4.41473 19.2537 3.63363V3.63363C19.2537 3.15864 19.6387 2.77358 20.1137 2.77358H21.1038C21.5987 2.77358 22 3.17484 22 3.66981V10.4611C22 10.956 21.5987 11.3573 21.1038 11.3573H14.1809C13.6859 11.3573 13.2847 10.956 13.2847 10.4611V9.56765C13.2847 9.07268 13.6859 8.67142 14.1809 8.67142H15.1485C15.8998 8.67142 16.2744 7.82984 15.6566 7.40235C15.4429 7.25445 15.2191 7.11908 14.9853 6.99622C14.1947 6.58087 13.3289 6.3732 12.3879 6.3732C10.7812 6.3732 9.41273 6.92623 8.28245 8.03227C7.15216 9.13829 6.58702 10.4866 6.58702 12.0772C6.58702 13.6709 7.15216 15.02 8.28245 16.1245C9.41273 17.229 10.7844 17.7812 12.3974 17.7812C13.8494 17.7812 15.1076 17.2967 16.1719 16.3275C17.0359 15.5409 17.6107 14.6113 17.8965 13.5388C18.0121 13.1047 18.3842 12.7695 18.8335 12.7695H20.7435C21.2686 12.7695 21.6854 13.2204 21.5907 13.7369C21.2275 15.7186 20.2804 17.422 18.7493 18.8473C16.9744 20.4994 14.854 21.3255 12.3879 21.3255Z" fill="url(#paint0_linear_2_2)"/>
<defs>
<linearGradient id="paint0_linear_2_2" x1="3" y1="21.547" x2="21.772" y2="2.54835" gradientUnits="userSpaceOnUse">
<stop stop-color="#CCCCCC"/>
<stop offset="1" stop-color="#F9F9F9"/>
</linearGradient>
</defs>
</svg>
