<svg xmlns="http://www.w3.org/2000/svg" viewBox="0 0 22 22"><g fill="currentColor" style="color:#dedede"><path d="M5 3c-1.108 0-2 .892-2 2v3c0 1.108.892 2 2 2h3c1.108 0 2-.892 2-2V5c0-1.108-.892-2-2-2H5zm0 1h3c.554 0 1 .446 1 1v3c0 .554-.446 1-1 1H5c-.554 0-1-.446-1-1V5c0-.554.446-1 1-1zM14 3c-1.108 0-2 .892-2 2v3c0 1.108.892 2 2 2h3c1.108 0 2-.892 2-2V5c0-1.108-.892-2-2-2zm0 1h3c.554 0 1 .446 1 1v3c0 .554-.446 1-1 1h-3c-.554 0-1-.446-1-1V5c0-.554.446-1 1-1zM5 12c-1.108 0-2 .892-2 2v3c0 1.108.892 2 2 2h3c1.108 0 2-.892 2-2v-3c0-1.108-.892-2-2-2zm0 1h3c.554 0 1 .446 1 1v3c0 .554-.446 1-1 1H5c-.554 0-1-.446-1-1v-3c0-.554.446-1 1-1zM14 12c-1.108 0-2 .892-2 2v3c0 1.108.892 2 2 2h3c1.108 0 2-.892 2-2v-3c0-1.108-.892-2-2-2zm0 1h3c.554 0 1 .446 1 1v3c0 .554-.446 1-1 1h-3c-.554 0-1-.446-1-1v-3c0-.554.446-1 1-1z"/></g></svg>