<svg xmlns="http://www.w3.org/2000/svg" viewBox="0 0 22 22"><path fill="currentColor" d="M5 3c-1.108 0-2 .892-2 2v4c0 1.108.892 2 2 2h12c1.108 0 2-.892 2-2V5c0-1.108-.892-2-2-2H5zm0 1h3v6H5c-.554 0-1-.446-1-1V5c0-.554.446-1 1-1zm4 0h8c.554 0 1 .446 1 1v4c0 .554-.446 1-1 1H9V4zm-4 9c-1.108 0-2 .892-2 2v2c0 1.108.892 2 2 2h12c1.108 0 2-.892 2-2v-2c0-1.108-.892-2-2-2H5zm0 1h3v4H5c-.554 0-1-.446-1-1v-2c0-.554.446-1 1-1zm4 0h8c.554 0 1 .446 1 1v2c0 .554-.446 1-1 1H9v-4z" style="color:#dedede"/></svg>