<svg xmlns="http://www.w3.org/2000/svg" viewBox="0 0 22 22"><path fill="currentColor" d="m5.121 3 1 1H16v1h1v1h1v2h1V3H5.121zM11 5a3 3 0 0 0-2.473 1.406l.707.707A2 2 0 0 1 10.95 6a2 2 0 0 1 .002 0A2 2 0 0 1 11 6a2 2 0 0 1 2 2h1a3 3 0 0 0-3-3zm-8 .121V8h1V6.121l-1-1zM3 9v5h1v-2h1v-1h1v-1h1.879l-1-1H3zm8.121 0 1 1H16v1h1v1h1v2h1V9h-7.879zm-1.715 2.527A3 3 0 0 0 8 14h1a2 2 0 0 1 1.121-1.758l-.715-.715zM3 15v4h1v-1h1v-1h1v-1h7.879l-1-1H3zm14.121 0L19 16.879V15h-1.879zM11 17a3 3 0 0 0-2.8 2h1.073a2 2 0 0 1 1.676-1 2 2 0 0 1 .002 0A2 2 0 0 1 11 18a2 2 0 0 1 1.723 1h1.101A3 3 0 0 0 11 17z" style="color:#dedede"/><path fill="currentColor" d="M3.707 3 3 3.707 18.293 19l.707-.707Z" style="color:#da4453"/></svg>