<svg xmlns="http://www.w3.org/2000/svg" viewBox="0 0 22 22"><path fill="currentColor" d="m6.121 4 1 1h2.313l2.29.004 4.56.008 1.655 4.97c0 .014-.925.012-1.228.018h-4.59l1 1H18v4.879l1 1V10l-2-6H6.121zM4.22 6.34 3 10v7h1v2h2v-2h8.879l-1-1H4v-5h4.879l-1-1H4.87c-.201-.006-.809-.004-.81-.018l.949-2.851-.791-.791zM6.5 12A1.5 1 0 0 0 5 13a1.5 1 0 0 0 1.5 1A1.5 1 0 0 0 8 13a1.5 1 0 0 0-1.5-1zm9 0a1.5 1 0 0 0-1.076.303l1.627 1.627A1.5 1 0 0 0 17 13a1.5 1 0 0 0-1.5-1zm.5 6.121V19h.879L16 18.121z" style="color:#dedede"/><path fill="currentColor" d="M3.707 3 3 3.707 18.293 19l.707-.707Z" style="color:#da4453"/></svg>