<svg xmlns="http://www.w3.org/2000/svg" viewBox="0 0 22 22"><defs><style id="current-color-scheme" type="text/css">.ColorScheme-Text{color:#dedede}</style></defs><path fill="currentColor" d="M6 9v3h1v-1h3v1h1V9h-1v1H7V9z" class="ColorScheme-Text"/><path fill="currentColor" d="M16.5 13a3.5 3.5 0 1 0 0 7 3.5 3.5 0 0 0 0-7zm-1.666 1 1.666 1.666L18.166 14l.834.834-1.666 1.666L19 18.166l-.834.834-1.666-1.666L14.834 19 14 18.166l1.666-1.666L14 14.834z" style="color:#da4453"/><path fill="currentColor" d="M5 3C3.338 3 2 4.338 2 6v10c0 1.662 1.338 3 3 3h7v-1H5c-1.108 0-2-.892-2-2V8c0-1.108.892-2 2-2h11c1.108 0 2 .892 2 2v4h1V6c0-1.662-1.338-3-3-3H5z" class="ColorScheme-Text"/></svg>