<svg xmlns="http://www.w3.org/2000/svg" viewBox="0 0 22 22"><defs><style id="current-color-scheme" type="text/css">.ColorScheme-Text{color:#dedede}</style></defs><rect width="1" height="11" x="4" y="3" fill="currentColor" class="ColorScheme-Text" ry="0" transform="matrix(-1 0 0 1.1818 19 .455)"/><path fill="currentColor" d="m434.79 542.91-.707.707-2.121-2.121-2.122 2.12-.707-.706 2.122-2.121-2.122-2.122.707-.707 2.122 2.122 2.12-2.122.708.707-2.121 2.122z" style="color:#da4453" transform="translate(-423.47 -530.29)"/><path fill="currentColor" d="M5 3C3.338 3 2 4.338 2 6v9c0 1.662 1.338 3 3 3h12c1.662 0 3-1.338 3-3V6c0-1.662-1.338-3-3-3zm0 1h12c1.108 0 2 .892 2 2v9c0 1.108-.892 2-2 2H5c-1.108 0-2-.892-2-2V6c0-1.108.892-2 2-2z" class="ColorScheme-Text"/></svg>