<svg xmlns="http://www.w3.org/2000/svg" viewBox="0 0 22 22"><path fill="currentColor" d="M11 2a3.966 3.966 0 0 0-2.62 1H5.122l1 1h1.434a4.142 4.142 0 0 0-.42 1.014l.877.877A2.994 2.994 0 0 1 11 3a3 3 0 0 1 3 3c0 1.62-1.286 2.93-2.89 2.988L12.12 10H16V9h-2.38A3.972 3.972 0 0 0 15 6a3.96 3.96 0 0 0-.555-2H18v11.879l1 1V3h-5.38A3.966 3.966 0 0 0 11 2zM3 5.121V19h13.879l-3-3H4V6.121l-1-1zM6 9v1h1.879l-1-1H6z" style="color:#dedede"/><path fill="currentColor" d="M3.707 3 3 3.707 18.293 19l.707-.707Z" style="color:#da4453"/></svg>