<svg xmlns="http://www.w3.org/2000/svg" viewBox="0 0 22 22"><defs><style id="current-color-scheme" type="text/css">.ColorScheme-Text{color:#dedede}</style></defs><path fill="currentColor" d="M9 7c-1.108 0-2 .892-2 2v4c0 1.108.892 2 2 2h4c1.108 0 2-.892 2-2V9c0-1.108-.892-2-2-2zm0 1h4c.554 0 1 .446 1 1v4c0 .554-.446 1-1 1H9c-.554 0-1-.446-1-1V9c0-.554.446-1 1-1zM6 3C4.338 3 3 4.338 3 6v2h1V6c0-1.108.892-2 2-2h2V3zm8 0v1h2c1.108 0 2 .892 2 2v2h1V6c0-1.662-1.338-3-3-3zM3 14v2c0 1.662 1.338 3 3 3h2v-1H6c-1.108 0-2-.892-2-2v-2zm15 0v2c0 1.108-.892 2-2 2h-2v1h2c1.662 0 3-1.338 3-3v-2z" class="ColorScheme-Text"/></svg>