<svg xmlns="http://www.w3.org/2000/svg" viewBox="0 0 22 22"><path d="M5 3c-1.108 0-2 .892-2 2v2h1V5c0-.554.446-1 1-1h2V3H5zm6 0L9 5h4l-2-2zm4 0v1h2c.554 0 1 .446 1 1v2h1V5c0-1.108-.892-2-2-2h-2zM8 6c-1.108 0-2 .892-2 2v6c0 1.108.892 2 2 2h6c1.108 0 2-.892 2-2V8c0-1.108-.892-2-2-2H8zm0 1h6c.554 0 1 .446 1 1v6c0 .554-.446 1-1 1H8c-.554 0-1-.446-1-1V8c0-.554.446-1 1-1zM5 9l-2 2 2 2V9zm12 0v4l2-2-2-2zM3 15v2c0 1.108.892 2 2 2h2v-1H5c-.554 0-1-.446-1-1v-2H3zm15 0v2c0 .554-.446 1-1 1h-2v1h2c1.108 0 2-.892 2-2v-2h-1zm-9 2 2 2 2-2H9z" style="fill:currentColor;color:#dedede"/></svg>