<svg xmlns="http://www.w3.org/2000/svg" viewBox="0 0 22 22"><path d="M5 3c-1.108 0-2 .892-2 2v1h1V5c0-.554.446-1 1-1h1V3H5zm3 0v1h2V3H8zm4 0v1h2V3h-2zm4 0v1h1c.554 0 1 .446 1 1v1h1V5c0-1.108-.892-2-2-2h-1zm-5 4v1h2.293L10 11.293l.707.707L14 8.707V11h1V7h-4zM3 8v2h1V8H3zm15 0v2h1V8h-1zm0 4v2h1v-2h-1zM5 13c-1.108 0-2 .892-2 2v2c0 1.108.892 2 2 2h2c1.108 0 2-.892 2-2v-2c0-1.108-.892-2-2-2H5zm0 1h2c.554 0 1 .446 1 1v2c0 .554-.446 1-1 1H5c-.554 0-1-.446-1-1v-2c0-.554.446-1 1-1zm13 2v1c0 .554-.446 1-1 1h-1v1h1c1.108 0 2-.892 2-2v-1h-1z" style="fill:currentColor;color:#dedede"/></svg>