<svg xmlns="http://www.w3.org/2000/svg" viewBox="0 0 22 22"><path d="M5 3c-1.108 0-2 .892-2 2v1h1V5c0-.554.446-1 1-1h1V3H5zm11 0v1h1c.554 0 1 .446 1 1v1h1V5c0-1.108-.892-2-2-2h-1zm-3 2c-.554 0-1 .446-1 1v10c0 .554.446 1 1 1h3c.554 0 1-.446 1-1V6c0-.554-.446-1-1-1h-3zM6 8c-.554 0-1 .446-1 1v4c0 .554.446 1 1 1h1c.554 0 1-.446 1-1V9c0-.554-.446-1-1-1H6zm3 1v4l2-2-2-2zm-6 7v1c0 1.108.892 2 2 2h1v-1H5c-.554 0-1-.446-1-1v-1H3zm15 0v1c0 .554-.446 1-1 1h-1v1h1c1.108 0 2-.892 2-2v-1h-1z" style="fill:currentColor;color:#dedede"/></svg>