<svg xmlns="http://www.w3.org/2000/svg" viewBox="0 0 22 22"><defs><style id="current-color-scheme" type="text/css">.ColorScheme-Text{color:#dedede}</style></defs><path fill="currentColor" d="M11 3 9 5h4zM8 6c-1.108 0-2 .892-2 2v6c0 1.108.892 2 2 2h6c1.108 0 2-.892 2-2V8c0-1.108-.892-2-2-2zm0 1h6c.554 0 1 .446 1 1v6c0 .554-.446 1-1 1H8c-.554 0-1-.446-1-1V8c0-.554.446-1 1-1zm1 10 2 2 2-2zM5 3c-1.108 0-2 .892-2 2v2h1V5c0-.554.446-1 1-1h2V3zm10 0v1h2c.554 0 1 .446 1 1v2h1V5c0-1.108-.892-2-2-2zM3 15v2c0 1.108.892 2 2 2h2v-1H5c-.554 0-1-.446-1-1v-2zm15 0v2c0 .554-.446 1-1 1h-2v1h2c1.108 0 2-.892 2-2v-2z" class="ColorScheme-Text"/></svg>