<svg xmlns="http://www.w3.org/2000/svg" viewBox="0 0 22 22"><path d="M5 3c-1.108 0-2 .892-2 2v5h1V5c0-.554.446-1 1-1h12c.554 0 1 .446 1 1v12c0 .554-.446 1-1 1h-5v1h5c1.108 0 2-.892 2-2V5c0-1.108-.892-2-2-2H5zm9.293 4L11 10.293V8h-1v4h4v-1h-2.293L15 7.707 14.293 7zM5 13c-1.108 0-2 .892-2 2h1c0-.554.446-1 1-1v-1zm2 0v1c.554 0 1 .446 1 1h1c0-1.108-.892-2-2-2zm-4 4c0 1.108.892 2 2 2v-1c-.554 0-1-.446-1-1H3zm5 0c0 .554-.446 1-1 1v1c1.108 0 2-.892 2-2H8z" style="fill:currentColor;color:#dedede"/></svg>