<svg xmlns="http://www.w3.org/2000/svg" viewBox="0 0 22 22"><defs><style id="current-color-scheme" type="text/css">.ColorScheme-Text{color:#dedede}</style></defs><path fill="currentColor" d="M14.998 12.43v4.656l-1.621-1.62-.707.706L15.498 19l2.83-2.828-.707-.707-1.623 1.621V12.43zM5 3c-1.108 0-2 .892-2 2h1c0-.554.446-1 1-1V3zm2 0v1c.554 0 1 .446 1 1h1c0-1.108-.892-2-2-2zm5 0v1h5c.554 0 1 .446 1 1v5h1V5c0-1.108-.892-2-2-2h-5zM3 7c0 1.108.892 2 2 2V8c-.554 0-1-.446-1-1H3zm5 0c0 .554-.446 1-1 1v1c1.108 0 2-.892 2-2H8zm-5 5v5c0 1.108.892 2 2 2h5v-1H5c-.554 0-1-.446-1-1v-5H3z" class="ColorScheme-Text"/></svg>