<svg xmlns="http://www.w3.org/2000/svg" width="16" height="16"><g fill="#dedede"><path d="M8.002 0a8 8 0 0 0-8 8 8 8 0 0 0 8 8 8 8 0 0 0 8-8 8 8 0 0 0-8-8zm0 .89A7.111 7.111 0 0 1 15.113 8a7.111 7.111 0 0 1-7.11 7.111A7.111 7.111 0 0 1 .89 8.001 7.111 7.111 0 0 1 8.002.888z"/><path d="M8.002 2.667a5.333 5.333 0 1 0 0 10.667 5.333 5.333 0 0 0 0-10.667zm0 .444a4.889 4.889 0 1 1 0 9.778 4.889 4.889 0 0 1 0-9.778z" opacity=".5"/><path d="M8.002 5.333a2.667 2.667 0 1 0 0 5.334 2.667 2.667 0 0 0 0-5.333zm0 .445a2.222 2.222 0 1 1 0 4.444 2.222 2.222 0 0 1 0-4.444z" opacity=".5"/><rect width=".889" height="7.427" x="10.902" y="-7.456" rx="0" ry="0" transform="rotate(45)"/></g></svg>