<svg xmlns="http://www.w3.org/2000/svg" width="16" height="16"><path fill="currentColor" d="M2 1C.892 1 0 1.892 0 3v9c0 1.108.892 2 2 2h12c1.108 0 2-.892 2-2V3c0-1.108-.892-2-2-2H2zm0 1h12c.554 0 1 .446 1 1v9c0 .554-.446 1-1 1H2c-.554 0-1-.446-1-1V3c0-.554.446-1 1-1z" style="color:#dedede"/><rect width="4" height="1" x="9" y="9" fill="#dedede" rx="0" ry="0" style="paint-order:stroke fill markers"/><path fill="#dedede" d="M5.828 4.172 3 7l2.828 2.828.707-.707L4.414 7l2.121-2.121z" style="paint-order:stroke fill markers"/></svg>