<svg xmlns="http://www.w3.org/2000/svg" width="16" height="16"><defs><style id="current-color-scheme" type="text/css">.ColorScheme-Text{color:#dedede}</style></defs><path fill="#dedede" stroke-linecap="round" stroke-linejoin="round" stroke-width="2" d="M16 2v12H0V2zM1 3v5.29l3.5-3.493 5 5 2-2 3.5 3.492V3zm0 10h10.289l-6.79-6.797L1 9.711zm14 0v-.29l-3.5-3.507-1.297 1.297 2.508 2.5zm-2.5-7q-.203 0-.352-.148Q12 5.703 12 5.5t.148-.352Q12.297 5 12.5 5t.352.148Q13 5.297 13 5.5t-.148.352Q12.703 6 12.5 6z" aria-label="" style="paint-order:stroke fill markers"/></svg>