<svg xmlns="http://www.w3.org/2000/svg" width="16" height="16"><defs><style id="current-color-scheme" type="text/css">.ColorScheme-Text{color:#dedede}</style></defs><path fill="#dedede" stroke-linecap="round" stroke-linejoin="round" stroke-width="1.5" d="M14 2A12 12 0 0 0 2 14h1A11 11 0 0 1 14 3zm-.01 3A9 9 0 0 0 5 14h1a8 8 0 0 1 8-8V5a9 9 0 0 0-.01 0zM14 8a6 6 0 0 0-6 6h1a5 5 0 0 1 5-5z" style="paint-order:stroke fill markers"/><circle cx="12.5" cy="12.5" r="1.5" fill="#dedede" stroke-linecap="round" stroke-linejoin="round" stroke-width=".188" style="paint-order:stroke fill markers"/></svg>