<svg xmlns="http://www.w3.org/2000/svg" width="16" height="16"><path fill="currentColor" d="M12.5 8a3.5 3.5 0 1 0 0 7 3.5 3.5 0 0 0 0-7zm-1 1c.277 0 .5.223.5.5V12h2.5a.499.499 0 1 1 0 1h-3a.499.499 0 0 1-.5-.5v-3c0-.277.223-.5.5-.5z" style="color:#dedede"/><path fill="#dedede" d="M2 1C.892 1 0 1.892 0 3v10c0 1.108.892 2 2 2h7.672a4.5 4.5 0 0 1-.912-1H2c-.554 0-1-.446-1-1V6h5l2-2h6c.554 0 1 .446 1 1v2.758a4.5 4.5 0 0 1 1 .916V5c0-1.108-.892-2-2-2H8L6 1zm0 1h3.586l1.496 1.504L5.586 5H1V3c0-.554.446-1 1-1z" style="paint-order:stroke fill markers"/></svg>