<svg xmlns="http://www.w3.org/2000/svg" width="16" height="16"><defs><style id="current-color-scheme" type="text/css">.ColorScheme-Text{color:#dedede}</style></defs><path fill="#dedede" stroke-linecap="round" stroke-linejoin="round" stroke-width="2" d="M12.781 6.457q.508.258.914.64.414.376.703.845.29.46.445 1 .157.53.157 1.101h-1q0-.617-.242-1.164-.235-.547-.641-.953t-.953-.64q-.547-.243-1.164-.243-.617 0-1.164.242-.547.235-.954.641t-.648.953Q8 9.426 8 10.043q0 .711-.328 1.352-.32.64-.891 1.062.508.258.914.641.414.375.703.844.29.46.445 1Q9 15.473 9 16.043H8q0-.617-.243-1.164-.234-.547-.64-.953t-.953-.64q-.547-.243-1.164-.243t-1.164.243q-.547.234-.954.64t-.648.953Q2 15.426 2 16.043H1q0-.57.156-1.101.156-.54.445-1 .29-.469.695-.844.415-.383.922-.64-.57-.423-.898-1.063-.32-.64-.32-1.352 0-.617.234-1.164.242-.547.648-.953t.954-.64Q4.382 7.042 5 7.042q.71 0 1.351.328.64.32 1.063.891.297-.586.758-1.047t1.046-.758q-.57-.422-.898-1.062Q8 4.755 8 4.043q0-.617.234-1.164.242-.547.649-.953t.953-.64q.547-.243 1.164-.243.617 0 1.164.242.547.235.953.641t.64.953Q14 3.426 14 4.043q0 .711-.328 1.352-.32.64-.891 1.062zM5 12.043q.406 0 .773-.156.367-.164.633-.43.273-.273.43-.633.164-.367.164-.78 0-.407-.164-.774-.157-.367-.43-.633-.266-.273-.633-.43-.367-.164-.773-.164-.414 0-.781.164-.36.157-.633.43-.266.266-.43.633Q3 9.637 3 10.043q0 .414.156.781.164.36.43.633.273.266.633.43.367.156.78.156zm4-8q0 .414.156.781.164.36.43.633.273.266.633.43.367.156.78.156.407 0 .774-.156.367-.164.633-.43.273-.273.43-.633.164-.367.164-.78 0-.407-.164-.774-.157-.367-.43-.633-.266-.273-.633-.43-.367-.164-.773-.164-.414 0-.781.164-.36.157-.633.43-.266.266-.43.633Q9 3.637 9 4.043z" aria-label="" style="paint-order:stroke fill markers" transform="translate(0 -.043)"/></svg>