<svg xmlns="http://www.w3.org/2000/svg" width="16" height="16"><defs><style id="current-color-scheme" type="text/css">.ColorScheme-Text{color:#dedede}</style></defs><path fill="#dedede" stroke-linecap="round" stroke-linejoin="round" stroke-width="2" d="M6.03 8h3v1h-3zm0-2h3v1h-3zm0-4h3v1h-3zm8 13h-3v1h-7v-1h-3v-1h3v-1h2v-1h1v-1h-3V1q0-.21.079-.39T4.32.296q.14-.14.32-.219T5.03 0h5q.212 0 .392.078.18.078.312.219.14.133.219.312T11.03 1v10h-3v1h1v1h2v1h3zm-4-5V1h-5v9zm0 4h-2v-1h-1v1h-2v1h5z" aria-label="" style="paint-order:stroke fill markers" transform="translate(-.03)"/></svg>