<svg width="14" height="12" viewBox="0 0 14 12" fill="none" xmlns="http://www.w3.org/2000/svg">
<path d="M4.612 11.0208C4.40244 11.0208 4.23256 10.8509 4.23256 10.6414V9.54169C4.23256 9.33213 4.40244 9.16225 4.612 9.16225H5.04148C5.25105 9.16225 5.42093 8.99236 5.42093 8.7828V8.48172C5.42093 8.27216 5.25105 8.10227 5.04148 8.10227H2.08372C1.49957 8.10227 1.00625 7.92277 0.603758 7.56376C0.201253 7.20475 0 6.76472 0 6.24369V1.85859C0 1.33755 0.201253 0.897533 0.603758 0.538525C1.00625 0.179509 1.49957 0 2.08372 0H11.9163C12.5004 0 12.9937 0.179509 13.3962 0.538525C13.7987 0.897533 14 1.33755 14 1.85859V6.24369C14 6.76472 13.7987 7.20475 13.3962 7.56376C12.9937 7.92277 12.5004 8.10227 11.9163 8.10227H8.95852C8.74895 8.10227 8.57907 8.27216 8.57907 8.48172V8.7828C8.57907 8.99236 8.74895 9.16225 8.95852 9.16225H9.38799C9.59756 9.16225 9.76744 9.33213 9.76744 9.54169V10.6414C9.76744 10.8509 9.59756 11.0208 9.388 11.0208H4.612Z" fill="#3C9BCE"/>
<path d="M12.2083 0.297319H1.79167C1.21637 0.297319 0.75 0.713301 0.75 1.22644V6.80116C0.75 7.3143 1.21637 7.73028 1.79167 7.73028H12.2083C12.7836 7.73028 13.25 7.3143 13.25 6.80116V1.22644C13.25 0.713301 12.7836 0.297319 12.2083 0.297319Z" fill="#4D4D4D"/>
<path d="M12.2083 0.483143H1.79167C1.33143 0.483143 0.958332 0.810188 0.958332 1.21362V6.81398C0.958332 7.21741 1.33143 7.54446 1.79167 7.54446H12.2083C12.6686 7.54446 13.0417 7.21741 13.0417 6.81398V1.21362C13.0417 0.810188 12.6686 0.483143 12.2083 0.483143Z" fill="url(#paint0_linear_4_50)"/>
<path d="M5.45812 6.87084L8.47896 3.95192L10.9962 6.87084H5.45812Z" fill="#1A1A1A"/>
<path opacity="0.9" d="M5.23166 5.09678L1.25916 7.37238C1.40375 7.4783 1.58771 7.54446 1.79187 7.54446H9.56771L5.23166 5.09678Z" fill="#E6E6E6"/>
<path d="M4.45125 7.54446L5.23167 5.09697L9.56792 7.54446H4.45125Z" fill="#FAFBFB"/>
<path d="M8.47917 3.72744L7.47208 4.68165V7.54446H12.2083C12.4362 7.54446 12.6417 7.46455 12.7917 7.3354L8.47917 3.72744Z" fill="#B0B2B5"/>
<path d="M8.47875 3.72707L9.73771 7.54446H12.2083C12.4362 7.54446 12.6417 7.46455 12.7917 7.3354L8.47875 3.72707Z" fill="white"/>
<path d="M4.45125 7.54446L5.23167 5.09697L9.56792 7.54446H4.45125Z" fill="url(#paint1_linear_4_50)"/>
<path opacity="0.35" d="M7.22021 6.21953V7.54446H7.47187V6.36169L7.22021 6.21953Z" fill="url(#paint2_linear_4_50)"/>
<path fill-rule="evenodd" clip-rule="evenodd" d="M1.26939 1.28481L1.26941 1.28479C1.47283 1.10334 1.72296 1 2.08372 1H11.9163C12.277 1 12.5272 1.10334 12.7306 1.28479L12.7306 1.28481C12.9289 1.46167 13 1.63381 13 1.85859V6.24369C13 6.46847 12.9289 6.64061 12.7306 6.81749C12.5272 6.99893 12.277 7.10227 11.9163 7.10227H8.95852C8.84835 7.10227 8.7412 7.11519 8.6385 7.13958H5.3615C5.2588 7.11519 5.15165 7.10227 5.04148 7.10227H2.08372C1.72296 7.10227 1.47282 6.99893 1.2694 6.81749C1.0711 6.64062 1 6.46847 1 6.24369V1.85859C1 1.63381 1.0711 1.46167 1.26939 1.28481ZM0 1.85859C0 1.33755 0.201253 0.897533 0.603758 0.538525C1.00625 0.179509 1.49957 0 2.08372 0H11.9163C12.5004 0 12.9937 0.179509 13.3962 0.538525C13.7987 0.897533 14 1.33755 14 1.85859V6.24369C14 6.76472 13.7987 7.20475 13.3962 7.56376C12.9937 7.92277 12.5004 8.10227 11.9163 8.10227H8.95852C8.74895 8.10227 8.57907 8.27216 8.57907 8.48172V8.7828C8.57907 8.99236 8.74895 9.16225 8.95852 9.16225H9.38799C9.59756 9.16225 9.76744 9.33213 9.76744 9.5417V10.6414C9.76744 10.851 9.59756 11.0208 9.38799 11.0208H4.612C4.40244 11.0208 4.23256 10.851 4.23256 10.6414V9.5417C4.23256 9.33213 4.40244 9.16225 4.612 9.16225H5.04148C5.25105 9.16225 5.42093 8.99236 5.42093 8.7828V8.48172C5.42093 8.27216 5.25105 8.10227 5.04148 8.10227H2.08372C1.49957 8.10227 1.00625 7.92277 0.603758 7.56376C0.201253 7.20475 0 6.76472 0 6.24369V1.85859Z" fill="url(#paint3_linear_4_50)"/>
<defs>
<linearGradient id="paint0_linear_4_50" x1="6.58226" y1="1.04066" x2="6.58226" y2="6.61539" gradientUnits="userSpaceOnUse">
<stop stop-color="#4285DB"/>
<stop offset="1" stop-color="#42B9DB"/>
</linearGradient>
<linearGradient id="paint1_linear_4_50" x1="4.4511" y1="6.32082" x2="9.5675" y2="6.32082" gradientUnits="userSpaceOnUse">
<stop stop-color="#FAFBFB"/>
<stop offset="1" stop-color="#FAFBFB" stop-opacity="0"/>
</linearGradient>
<linearGradient id="paint2_linear_4_50" x1="7.47104" y1="6.75953" x2="6.77896" y2="6.75953" gradientUnits="userSpaceOnUse">
<stop/>
<stop offset="1" stop-opacity="0"/>
</linearGradient>
<linearGradient id="paint3_linear_4_50" x1="14" y1="4.21675e-07" x2="1.37397" y2="12.1332" gradientUnits="userSpaceOnUse">
<stop stop-color="#777777"/>
<stop offset="1" stop-color="#333333"/>
</linearGradient>
</defs>
</svg>
