<svg xmlns="http://www.w3.org/2000/svg" id="svg127" width="22" height="22" version="1.0">
<defs id="defs3">
<style id="current-color-scheme" type="text/css">
.ColorScheme-Contrast{color:#bebebe}
</style>
</defs>
<g id="22-22-audio-volume-muted" transform="translate(-46 159)">
<rect id="rect2470" width="22" height="22" x="46" y="-159" rx="0" ry="0" style="opacity:1;fill:none;stroke-width:1.76;stroke-linecap:round;stroke-linejoin:round"/>
<path id="path1717" fill="currentColor" d="M59-154.994c0-.873-1.04-1.327-1.68-.733l-3.872 3.594a.5.5 0 0 1-.34.133H50.5a1.5 1.5 0 0 0-1.5 1.5v5a1.5 1.5 0 0 0 1.5 1.5h2.607a.5.5 0 0 1 .34.134l3.873 3.593c.64.594 1.68.14 1.68-.733zm-4.872 3.594L58-154.994v13.988l-3.872-3.593a1.5 1.5 0 0 0-1.02-.401H50.5a.5.5 0 0 1-.5-.5v-5a.5.5 0 0 1 .5-.5h2.607a1.5 1.5 0 0 0 1.02-.4m6.018 1.046a.5.5 0 0 1 .708 0l1.646 1.647 1.646-1.647a.5.5 0 0 1 .708.708L63.207-148l1.647 1.646a.5.5 0 1 1-.708.708l-1.646-1.647-1.646 1.647a.5.5 0 1 1-.708-.708L61.793-148l-1.647-1.646a.5.5 0 0 1 0-.708" class="ColorScheme-Contrast"/>
</g>
</svg>
