<svg xmlns="http://www.w3.org/2000/svg" width="16" height="16">
<path fill="#363636" d="M12.363.93a.5.5 0 0 0 0 .707A9 9 0 0 1 15 8a9 9 0 0 1-2.655 6.344.5.5 0 0 0-.002.709.5.5 0 0 0 .71.002A10 10 0 0 0 16 8.002V8A10 10 0 0 0 13.07.93a.5.5 0 0 0-.707 0" color="#000" opacity=".35" style="-inkscape-stroke:none;paint-order:normal"/>
<path fill="#363636" d="M10.242 3.05a.5.5 0 0 0 0 .708A6 6 0 0 1 12 8a6 6 0 0 1-1.77 4.229.5.5 0 0 0-.002.709.5.5 0 0 0 .71.002A7 7 0 0 0 13 8.002V8a7 7 0 0 0-2.051-4.95.5.5 0 0 0-.707 0" color="#000" opacity=".35" style="-inkscape-stroke:none;paint-order:normal"/>
<path fill="#363636" d="M8.475 5.025a.5.5 0 0 0-.354.147.5.5 0 0 0 0 .707A3 3 0 0 1 9 8a3 3 0 0 1-.885 2.115.5.5 0 0 0 0 .707.5.5 0 0 0 .707 0A4 4 0 0 0 10 8.002V8a4 4 0 0 0-1.172-2.828.5.5 0 0 0-.353-.147" color="#000" style="-inkscape-stroke:none;paint-order:normal"/>
<path fill="#363636" d="M6.098 2.713a1 1 0 0 0-.805.289L3.297 5H2C.91 5 0 5.91 0 7v2c0 1.09.91 2 2 2h1.297l1.996 1.998A1 1 0 0 0 7 12.291V3.709a1 1 0 0 0-.617-.924 1 1 0 0 0-.285-.072M6 3.709v8.582L3.71 10H2c-.554 0-1-.446-1-1V7c0-.554.446-1 1-1h1.71z" color="#000" style="-inkscape-stroke:none;paint-order:stroke fill markers"/>
</svg>
