<svg xmlns="http://www.w3.org/2000/svg" viewBox="0 0 22 22">
<style id="current-color-scheme" type="text/css">
.ColorScheme-Contrast{color:#bebebe}.ColorScheme-NegativeText{color:#da4453}
</style>
<g fill="currentColor" class="ColorScheme-NegativeText">
<path d="m14.324 7.281-.539.862A4 4 0 0 1 15 11a4 4 0 0 1-1.21 2.861l.538.864A5 5 0 0 0 16 11a5 5 0 0 0-1.676-3.719"/>
<path d="m13.865 3.537-.244.977A7 7 0 0 1 18 11a7 7 0 0 1-4.38 6.479l.243.974A8 8 0 0 0 19 11a8 8 0 0 0-5.135-7.463"/>
</g>
<g fill="currentColor" class="ColorScheme-Contrast">
<path fill-rule="evenodd" d="M3 8h2v6H3z"/>
<path d="m6 14 5 5h1V3h-1L6 8z"/>
</g>
</svg>
