<svg xmlns="http://www.w3.org/2000/svg" id="svg27" width="22" height="22" version="1.1">
<defs id="defs3">
<style id="current-color-scheme" type="text/css">
.ColorScheme-Contrast{color:#bebebe}
</style>
</defs>
<g id="22-22-klipper" transform="translate(-49 -5)">
<path id="rect16" fill="none" d="M49 5h22v22H49z"/>
<path id="path835" fill="currentColor" d="M54.5 10h1.585a1.5 1.5 0 0 0 1.415 1h3a1.5 1.5 0 0 0 1.415-1H63.5a.5.5 0 0 1 .5.5v1a.5.5 0 0 0 1 0v-1A1.5 1.5 0 0 0 63.5 9h-1.585A1.5 1.5 0 0 0 60.5 8h-3a1.5 1.5 0 0 0-1.415 1H54.5a1.5 1.5 0 0 0-1.5 1.5v12a1.5 1.5 0 0 0 1.5 1.5h3a.5.5 0 0 0 0-1h-3a.5.5 0 0 1-.5-.5v-12a.5.5 0 0 1 .5-.5m3 0a.5.5 0 0 1 0-1h3a.5.5 0 0 1 0 1zm3 3a1.5 1.5 0 0 0-1.5 1.5v8a1.5 1.5 0 0 0 1.5 1.5h5a1.5 1.5 0 0 0 1.5-1.5v-8a1.5 1.5 0 0 0-1.5-1.5zm-.5 1.5a.5.5 0 0 1 .5-.5h5a.5.5 0 0 1 .5.5v8a.5.5 0 0 1-.5.5h-5a.5.5 0 0 1-.5-.5z" class="ColorScheme-Contrast"/>
</g>
</svg>
