<?xml version="1.0" encoding="UTF-8" standalone="no"?>
<svg
   viewBox="0 0 22 22"
   version="1.1"
   id="svg175"
   width="22"
   height="22"
   xmlns="http://www.w3.org/2000/svg"
   xmlns:svg="http://www.w3.org/2000/svg">
  <defs
     id="defs179" />
  <style
     type="text/css"
     id="current-color-scheme">
        .ColorScheme-Text {
            color:#363636;
        }
    </style>
  <g
     id="22-22-media-seek-backward"
     transform="matrix(-1,0,0,1,386,0)">
    <rect
       id="rect10049"
       width="22"
       height="22"
       x="-386"
       y="0"
       rx="0"
       ry="0"
       style="fill:none"
       transform="scale(-1,1)" />
    <path
       id="path10051"
       d="m 375,2 c 4.97056,0 9,4.0294373 9,9 0,4.970563 -4.02944,9 -9,9 -4.97056,0 -9,-4.029437 -9,-9 0,-4.9705627 4.02944,-9 9,-9 z m 0,1 c -4.41828,0 -8,3.581722 -8,8 0,4.418278 3.58172,8 8,8 4.41828,0 8,-3.581722 8,-8 0,-4.418278 -3.58172,-8 -8,-8 z"
       class="ColorScheme-Text"
       fill="currentColor" />
    <path
       id="path10053"
       d="m 376.08984,7.0039062 a 1.0001,1.0001 0 0 1 0.50977,0.1953126 l 4,3.0000002 a 1.0001,1.0001 0 0 1 0,1.601562 l -4,3 A 1.0001,1.0001 0 0 1 375,14 v -1.75 l -3.40039,2.550781 A 1.0001,1.0001 0 0 1 370,14 V 8 a 1.0001,1.0001 0 0 1 0.55273,-0.8945312 1.0001,1.0001 0 0 1 0.53711,-0.1015626 1.0001,1.0001 0 0 1 0.50977,0.1953126 L 375,9.75 V 8 a 1.0001,1.0001 0 0 1 0.55273,-0.8945312 1.0001,1.0001 0 0 1 0.53711,-0.1015626 z M 376,8 v 6 l 4,-3 z m -5,0 v 6 l 4,-3 z"
       class="ColorScheme-Text"
       fill="currentColor" />
  </g>
</svg>
