<?xml version="1.0" encoding="UTF-8" standalone="no"?>
<svg
   viewBox="0 0 22 22"
   version="1.1"
   id="svg175"
   width="22"
   height="22"
   xmlns="http://www.w3.org/2000/svg"
   xmlns:svg="http://www.w3.org/2000/svg">
  <defs
     id="defs179" />
  <style
     type="text/css"
     id="current-color-scheme">
        .ColorScheme-Text {
            color:#363636;
        }
    </style>
  <g
     id="22-22-media-playback-paused"
     transform="translate(28,-42)">
    <rect
       id="rect2596"
       width="22"
       height="22"
       x="-28"
       y="42"
       rx="0"
       ry="0"
       style="fill:none" />
    <path
       id="path938"
       d="m -17,91 a 9,9 0 0 0 -9,9 9,9 0 0 0 9,9 9,9 0 0 0 9,-9 9,9 0 0 0 -9,-9 z m 0,1 a 8,8 0 0 1 8,8 8,8 0 0 1 -8,8 8,8 0 0 1 -8,-8 8,8 0 0 1 8,-8 z m -2.5,4 c -0.277,0 -0.5,0.223 -0.5,0.5 v 7 c 0,0.277 0.223,0.5 0.5,0.5 0.277,0 0.5,-0.223 0.5,-0.5 v -7 c 0,-0.277 -0.223,-0.5 -0.5,-0.5 z m 5,0 c -0.277,0 -0.5,0.223 -0.5,0.5 v 7 c 0,0.277 0.223,0.5 0.5,0.5 0.277,0 0.5,-0.223 0.5,-0.5 v -7 c 0,-0.277 -0.223,-0.5 -0.5,-0.5 z"
       transform="translate(0,-47)"
       class="ColorScheme-Text"
       fill="currentColor" />
  </g>
</svg>
