<?xml version="1.0" encoding="UTF-8" standalone="no"?>
<svg
   id="svg4153"
   width="22"
   height="22"
   version="1.1"
   viewBox="0 0 22 22"
   xmlns="http://www.w3.org/2000/svg"
   xmlns:svg="http://www.w3.org/2000/svg"
   xmlns:rdf="http://www.w3.org/1999/02/22-rdf-syntax-ns#"
   xmlns:cc="http://creativecommons.org/ns#"
   xmlns:dc="http://purl.org/dc/elements/1.1/">
  <metadata
     id="metadata870">
    <rdf:RDF>
      <cc:Work
         rdf:about="">
        <dc:format>image/svg+xml</dc:format>
        <dc:type
           rdf:resource="http://purl.org/dc/dcmitype/StillImage" />
      </cc:Work>
    </rdf:RDF>
  </metadata>
  <defs
     id="defs4157">
    <style
       id="current-color-scheme"
       type="text/css">.ColorScheme-Text {
        color:#31363b;
      }
      .ColorScheme-Background {
        color:#eff0f1;
      }
      .ColorScheme-Highlight {
        color:#3498db;
      }
      .ColorScheme-ViewText {
        color:#31363b;
      }
      .ColorScheme-ViewBackground {
        color:#fcfcfc;
      }
      .ColorScheme-ViewHover {
        color:#93cee9;
      }
      .ColorScheme-ViewFocus{
        color:#3daee9;
      }
      .ColorScheme-ButtonText {
        color:#31363b;
      }
      .ColorScheme-ButtonBackground {
        color:#eff0f1;
      }
      .ColorScheme-ButtonHover {
        color:#93cee9;
      }
      .ColorScheme-ButtonFocus{
        color:#3daee9;
      }
      .ColorScheme-NegativeText{
        color:#e74c3c;
      }</style>
  </defs>
  <g
     id="network-wireless-disconnected"
     transform="translate(56.997223,-195)">
    <g
       id="g13310"
       transform="translate(-191,157)">
      <rect
         style="fill:none;fill-opacity:1;stroke:none;stroke-width:0.733333;stroke-linecap:round;stroke-linejoin:round;stroke-miterlimit:4;stroke-dasharray:none;stroke-opacity:1"
         id="rect13298"
         width="22"
         height="22"
         x="134.00278"
         y="38"
         rx="0"
         ry="0" />
      <g
         id="g13308"
         transform="translate(-55,-14)">
        <path
           id="path13300"
           class="ColorScheme-Text"
           d="m -46,201 c -3.15899,0.005 -6.111887,1.58062 -7.873047,4.20312 a 0.5,0.5 0 0 0 0.136719,0.69532 0.5,0.5 0 0 0 0.695312,-0.13672 C -51.464636,203.41437 -48.82754,202.00453 -46,202 c 2.82876,4.5e-4 5.471271,1.4072 7.050781,3.75391 a 0.5,0.5 0 0 0 0.69336,0.13476 0.5,0.5 0 0 0 0.134765,-0.69336 C -39.885764,202.57353 -42.83965,201.00051 -46,201 Z m -0.002,3 c -2.35092,0.007 -4.516856,1.28566 -5.660156,3.33984 a 0.5,0.5 0 0 0 0.195312,0.67969 0.5,0.5 0 0 0 0.679688,-0.19531 C -49.819249,206.08526 -47.99003,205.00666 -46,205 c 1.376698,6.5e-4 2.67831,0.51462 3.671875,1.40625 a 4.5,4.5 0 0 1 1.076172,-0.33984 C -42.464927,204.76678 -44.177203,204.00086 -46,204 a 0.50005,0.50005 0 0 0 -0.002,0 z m 0.002,3 c -1.55078,0.001 -2.964264,0.90182 -3.621094,2.30664 a 0.5,0.5 0 0 0 0.242188,0.66406 0.5,0.5 0 0 0 0.664062,-0.24218 C -48.221344,208.67303 -47.16515,208.00086 -46,208 c 0.548421,1e-4 1.072369,0.15042 1.525391,0.41797 a 4.5,4.5 0 0 1 0.550781,-0.83399 C -44.538117,207.21037 -45.252807,207.00013 -46,207 Z m 0,3 a 1,1 0 0 0 -1,1 1,1 0 0 0 1,1 1,1 0 0 0 1,-1 1,1 0 0 0 -1,-1 z"
           transform="translate(246,-143)"
           fill="currentColor" />
      </g>
    </g>
    <path
       id="path13334"
       d="m -40.5,207 a 3.5,3.5 0 0 0 -3.5,3.5 3.5,3.5 0 0 0 3.5,3.5 3.5,3.5 0 0 0 3.5,-3.5 3.5,3.5 0 0 0 -3.5,-3.5 z m -1.414062,1.58594 c 0.127808,0 0.255581,0.0486 0.353515,0.14648 l 1.060547,1.06055 1.060547,-1.06055 c 0.195868,-0.19587 0.511163,-0.19587 0.707031,0 0.195869,0.19587 0.195869,0.51116 0,0.70703 l -1.060547,1.06055 1.060547,1.06055 c 0.195869,0.19587 0.195869,0.51116 0,0.70703 -0.195868,0.19587 -0.511163,0.19587 -0.707031,0 L -40.5,211.20703 l -1.060547,1.06055 c -0.195868,0.19587 -0.511163,0.19587 -0.707031,0 -0.195869,-0.19587 -0.195869,-0.51116 0,-0.70703 l 1.060547,-1.06055 -1.060547,-1.06055 c -0.195869,-0.19587 -0.195869,-0.51116 0,-0.70703 0.09793,-0.0979 0.225706,-0.14648 0.353516,-0.14648 z"
       style="fill:#ff8080" />
  </g>
</svg>
