<?xml version="1.0" encoding="UTF-8" standalone="no"?>
<svg
   id="svg4153"
   width="22"
   height="22"
   version="1.1"
   viewBox="0 0 22 22"
   xmlns="http://www.w3.org/2000/svg"
   xmlns:svg="http://www.w3.org/2000/svg"
   xmlns:rdf="http://www.w3.org/1999/02/22-rdf-syntax-ns#"
   xmlns:cc="http://creativecommons.org/ns#"
   xmlns:dc="http://purl.org/dc/elements/1.1/">
  <metadata
     id="metadata870">
    <rdf:RDF>
      <cc:Work
         rdf:about="">
        <dc:format>image/svg+xml</dc:format>
        <dc:type
           rdf:resource="http://purl.org/dc/dcmitype/StillImage" />
      </cc:Work>
    </rdf:RDF>
  </metadata>
  <defs
     id="defs4157">
    <style
       id="current-color-scheme"
       type="text/css">.ColorScheme-Text {
        color:#31363b;
      }
      .ColorScheme-Background {
        color:#eff0f1;
      }
      .ColorScheme-Highlight {
        color:#3498db;
      }
      .ColorScheme-ViewText {
        color:#31363b;
      }
      .ColorScheme-ViewBackground {
        color:#fcfcfc;
      }
      .ColorScheme-ViewHover {
        color:#93cee9;
      }
      .ColorScheme-ViewFocus{
        color:#3daee9;
      }
      .ColorScheme-ButtonText {
        color:#31363b;
      }
      .ColorScheme-ButtonBackground {
        color:#eff0f1;
      }
      .ColorScheme-ButtonHover {
        color:#93cee9;
      }
      .ColorScheme-ButtonFocus{
        color:#3daee9;
      }
      .ColorScheme-NegativeText{
        color:#e74c3c;
      }</style>
  </defs>
  <g
     id="22-22-network-wired-activated"
     transform="translate(202,10)">
    <rect
       style="fill:none;fill-opacity:1;stroke:none"
       id="rect7157"
       width="22"
       height="22"
       x="-202"
       y="-10" />
    <g
       id="g9567"
       transform="translate(-25,1)">
      <path
         id="rect7220"
         d="m 15,4 c -0.554,0 -1,0.446 -1,1 v 5 c 0,0.554 0.446,1 1,1 h 1 v 8.445312 C 16,19.75309 16.223,20 16.5,20 16.777,20 17,19.75309 17,19.445312 V 11 h 1 c 0.554,0 1,-0.446 1,-1 V 5 C 19,4.446 18.554,4 18,4 Z M 5,5 C 3.892,5 3,5.892 3,7 v 8 c 0,1.108 0.892,2 2,2 h 3 v 2 H 6.5 C 6.223,19 6,19.223 6,19.5 6,19.777 6.223,20 6.5,20 h 8 C 14.777,20 15,19.777 15,19.5 15,19.223 14.777,19 14.5,19 H 14 v -2 h 0.5 C 14.777,17 15,16.777 15,16.5 15,16.223 14.777,16 14.5,16 H 11.5 5 C 4.446,16 4,15.554 4,15 V 7 C 4,6.446 4.446,6 5,6 h 4.5 3 C 12.777,6 13,5.777 13,5.5 13,5.223 12.777,5 12.5,5 h -3 z m 10,0 h 3 v 1 h -3 z m 0,2 h 3 v 3 H 15 Z M 9,17 h 2.5 1.5 v 2 H 9 Z"
         transform="translate(-177,-11)"
         fill="currentColor"
         class="ColorScheme-Text" />
    </g>
  </g>
</svg>
