<?xml version="1.0" encoding="UTF-8" standalone="no"?>
<svg
   id="svg4153"
   width="22"
   height="22"
   version="1.1"
   viewBox="0 0 22 22"
   xmlns="http://www.w3.org/2000/svg"
   xmlns:svg="http://www.w3.org/2000/svg"
   xmlns:rdf="http://www.w3.org/1999/02/22-rdf-syntax-ns#"
   xmlns:cc="http://creativecommons.org/ns#"
   xmlns:dc="http://purl.org/dc/elements/1.1/">
  <metadata
     id="metadata870">
    <rdf:RDF>
      <cc:Work
         rdf:about="">
        <dc:format>image/svg+xml</dc:format>
        <dc:type
           rdf:resource="http://purl.org/dc/dcmitype/StillImage" />
      </cc:Work>
    </rdf:RDF>
  </metadata>
  <defs
     id="defs4157">
    <style
       id="current-color-scheme"
       type="text/css">.ColorScheme-Text {
        color:#31363b;
      }
      .ColorScheme-Background {
        color:#eff0f1;
      }
      .ColorScheme-Highlight {
        color:#3498db;
      }
      .ColorScheme-ViewText {
        color:#31363b;
      }
      .ColorScheme-ViewBackground {
        color:#fcfcfc;
      }
      .ColorScheme-ViewHover {
        color:#93cee9;
      }
      .ColorScheme-ViewFocus{
        color:#3daee9;
      }
      .ColorScheme-ButtonText {
        color:#31363b;
      }
      .ColorScheme-ButtonBackground {
        color:#eff0f1;
      }
      .ColorScheme-ButtonHover {
        color:#93cee9;
      }
      .ColorScheme-ButtonFocus{
        color:#3daee9;
      }
      .ColorScheme-NegativeText{
        color:#e74c3c;
      }</style>
  </defs>
  <g
     id="22-22-network-vpn"
     transform="translate(-238,-119.00002)">
    <rect
       id="rect6813"
       x="238"
       y="119.00002"
       width="22"
       height="22"
       fill="none" />
    <path
       d="m 248.72265,122.08399 c 0.16795,-0.11196 0.38675,-0.11196 0.55475,0 1.9381,1.29213 4.0343,2.09833 6.2933,2.42106 0.2463,0.0352 0.4293,0.24614 0.4293,0.49497 v 4.5 c 0,3.8913 -2.307,6.7307 -6.8205,8.4667 -0.1155,0.0444 -0.24345,0.0444 -0.35899,0 -4.51352,-1.736 -6.82051,-4.5754 -6.82051,-8.4667 v -4.5 c 0,-0.24883 0.18296,-0.45979 0.42929,-0.49497 2.25904,-0.32273 4.35517,-1.12893 6.29336,-2.42106 z m -0.12351,1.26186 c -1.74639,1.05023 -3.61373,1.74472 -5.59914,2.08204 v 4.07213 c 0,3.392 1.96795,5.8634 6,7.4632 4.0321,-1.5998 6,-4.0712 6,-7.4632 v -4.07213 c -1.9854,-0.33732 -3.8527,-1.03181 -5.5991,-2.08204 L 249,123.09717 Z"
       fill="currentColor"
       id="path28247"
       class="ColorScheme-Text" />
  </g>
</svg>
