<?xml version="1.0" encoding="UTF-8" standalone="no"?>
<svg
   id="svg4153"
   width="22"
   height="22"
   version="1.1"
   viewBox="0 0 22 22"
   xmlns="http://www.w3.org/2000/svg"
   xmlns:svg="http://www.w3.org/2000/svg"
   xmlns:rdf="http://www.w3.org/1999/02/22-rdf-syntax-ns#"
   xmlns:cc="http://creativecommons.org/ns#"
   xmlns:dc="http://purl.org/dc/elements/1.1/">
  <metadata
     id="metadata870">
    <rdf:RDF>
      <cc:Work
         rdf:about="">
        <dc:format>image/svg+xml</dc:format>
        <dc:type
           rdf:resource="http://purl.org/dc/dcmitype/StillImage" />
      </cc:Work>
    </rdf:RDF>
  </metadata>
  <defs
     id="defs4157">
    <style
       id="current-color-scheme"
       type="text/css">.ColorScheme-Text {
        color:#31363b;
      }
      .ColorScheme-Background {
        color:#eff0f1;
      }
      .ColorScheme-Highlight {
        color:#3498db;
      }
      .ColorScheme-ViewText {
        color:#31363b;
      }
      .ColorScheme-ViewBackground {
        color:#fcfcfc;
      }
      .ColorScheme-ViewHover {
        color:#93cee9;
      }
      .ColorScheme-ViewFocus{
        color:#3daee9;
      }
      .ColorScheme-ButtonText {
        color:#31363b;
      }
      .ColorScheme-ButtonBackground {
        color:#eff0f1;
      }
      .ColorScheme-ButtonHover {
        color:#93cee9;
      }
      .ColorScheme-ButtonFocus{
        color:#3daee9;
      }
      .ColorScheme-NegativeText{
        color:#e74c3c;
      }</style>
  </defs>
  <g
     id="network-wireless-20-locked"
     transform="translate(-134.00278,-38)">
    <rect
       style="fill:none;fill-opacity:1;stroke:none;stroke-width:0.733333;stroke-linecap:round;stroke-linejoin:round;stroke-miterlimit:4;stroke-dasharray:none;stroke-opacity:1"
       id="rect23573"
       width="22"
       height="22"
       x="134.00278"
       y="38"
       rx="0"
       ry="0" />
    <g
       id="g23583"
       transform="translate(-55,-14)">
      <path
         d="m 200,58 c -3.15899,0.0051 -6.11189,1.580622 -7.87305,4.203125 a 0.5,0.5 0 0 0 0.13672,0.695312 0.5,0.5 0 0 0 0.69531,-0.136718 C 194.53536,60.414368 197.17246,59.004534 200,59 c 2.82876,4.55e-4 5.47127,1.4072 7.05078,3.753906 a 0.5,0.5 0 0 0 0.69336,0.134766 0.5,0.5 0 0 0 0.13477,-0.69336 C 206.11424,59.573526 203.16035,58.000509 200,58 Z"
         id="path23575"
         fill="currentColor"
         class="ColorScheme-Text"
         style="opacity:0.35" />
      <path
         d="m 199.99805,61 c -2.35092,0.007 -4.51686,1.285664 -5.66016,3.339844 a 0.5,0.5 0 0 0 0.19531,0.679687 0.5,0.5 0 0 0 0.67969,-0.195312 C 196.18075,63.085261 198.00997,62.00666 200,62 c 1.99213,9.4e-4 3.82675,1.077539 4.79883,2.816406 a 0.5,0.5 0 0 0 0.67969,0.191406 0.5,0.5 0 0 0 0.1914,-0.679687 C 204.52202,62.274726 202.35247,61.00111 200,61 a 0.50005,0.50005 0 0 0 -0.002,0 z"
         id="path23577"
         fill="currentColor"
         class="ColorScheme-Text"
         style="opacity:0.35" />
      <path
         d="m 200,64 c -1.55078,0.0011 -2.96426,0.901825 -3.62109,2.306641 a 0.5,0.5 0 0 0 0.24218,0.664062 0.5,0.5 0 0 0 0.66407,-0.242187 C 197.77866,65.673029 198.83485,65.000858 200,65 c 1.16577,2.12e-4 2.22303,0.672478 2.7168,1.728516 a 0.5,0.5 0 0 0 0.66406,0.242187 0.5,0.5 0 0 0 0.24219,-0.664062 C 202.96587,64.901099 201.55159,64.000282 200,64 Z"
         id="path23579"
         fill="currentColor"
         class="ColorScheme-Text"
         style="opacity:0.35" />
      <path
         d="m 201,68 a 1,1 0 0 1 -1,1 1,1 0 0 1 -1,-1 1,1 0 0 1 1,-1 1,1 0 0 1 1,1 z"
         id="path23581"
         fill="currentColor"
         class="ColorScheme-Text" />
    </g>
    <path
       id="path23585"
       d="m 153,51 c -1.108,0 -2,0.892 -2,2 v 1 c -0.554,0 -1,0.446 -1,1 v 1 c 0,0.554 0.446,1 1,1 h 4 c 0.554,0 1,-0.446 1,-1 v -1 c 0,-0.554 -0.446,-1 -1,-1 v -1 c 0,-1.108 -0.892,-2 -2,-2 z m 0,1 c 0.554,0 1,0.446 1,1 v 1 h -2 v -1 c 0,-0.554 0.446,-1 1,-1 z m -2,3 h 4 v 1 h -4 z"
       fill="currentColor"
       class="ColorScheme-Text" />
  </g>
</svg>
