<?xml version="1.0" encoding="UTF-8" standalone="no"?>
<svg
   id="svg4153"
   width="22"
   height="22"
   version="1.1"
   viewBox="0 0 22 22"
   xmlns="http://www.w3.org/2000/svg"
   xmlns:svg="http://www.w3.org/2000/svg"
   xmlns:rdf="http://www.w3.org/1999/02/22-rdf-syntax-ns#"
   xmlns:cc="http://creativecommons.org/ns#"
   xmlns:dc="http://purl.org/dc/elements/1.1/">
  <metadata
     id="metadata870">
    <rdf:RDF>
      <cc:Work
         rdf:about="">
        <dc:format>image/svg+xml</dc:format>
        <dc:type
           rdf:resource="http://purl.org/dc/dcmitype/StillImage" />
      </cc:Work>
    </rdf:RDF>
  </metadata>
  <defs
     id="defs4157">
    <style
       id="current-color-scheme"
       type="text/css">.ColorScheme-Text {
        color:#31363b;
      }
      .ColorScheme-Background {
        color:#eff0f1;
      }
      .ColorScheme-Highlight {
        color:#3498db;
      }
      .ColorScheme-ViewText {
        color:#31363b;
      }
      .ColorScheme-ViewBackground {
        color:#fcfcfc;
      }
      .ColorScheme-ViewHover {
        color:#93cee9;
      }
      .ColorScheme-ViewFocus{
        color:#3daee9;
      }
      .ColorScheme-ButtonText {
        color:#31363b;
      }
      .ColorScheme-ButtonBackground {
        color:#eff0f1;
      }
      .ColorScheme-ButtonHover {
        color:#93cee9;
      }
      .ColorScheme-ButtonFocus{
        color:#3daee9;
      }
      .ColorScheme-NegativeText{
        color:#e74c3c;
      }</style>
  </defs>
  <g
     id="network-flightmode-on"
     transform="translate(66)">
    <rect
       style="fill:none;fill-opacity:1;stroke:none"
       id="rect8320"
       width="22"
       height="22"
       x="-66"
       y="-1.3322676e-15" />
    <path
       d="m -56.21803,9.78958 -0.68508,-5.48335 c -0.07961,-0.63685 0.37212,-1.21765 1.00897,-1.29726 l 0.07193,-0.0067 0.16819,-0.0023 c 0.59595,0 1.13542,0.35279 1.37422,0.89879 l 2.512,5.7423 2.752,-0.09084 c 1.0278,-0.03426 1.8965,0.73305 2.0045,1.73942 l 0.0102,0.14534 L -47,11.5 c 0,1.0774 -0.8734,1.9508 -1.9592,1.9508 l -2.8076,-0.0928 -2.513,5.7432 C -54.5186,19.6472 -55.05807,20 -55.65402,20 H -55.75 c -0.6418,0 -1.16209,-0.5203 -1.16209,-1.1621 0,-0.0482 0.003,-0.0963 0.009,-0.1441 l 0.6851,-5.4844 -2.14236,-0.0716 -0.95743,1.6761 c -0.24242,0.4243 -0.69357,0.6861 -1.18219,0.6861 -0.55228,0 -1,-0.4477 -1,-1 v -1.4664 l -0.16125,-0.0121 C -62.41891,12.9252 -63,12.2786 -63,11.5 c 0,-0.77859 0.58109,-1.42517 1.33792,-1.52149 L -61.5,9.96635 V 8.5 c 0,-0.55228 0.44772,-1 1,-1 0.48862,0 0.93977,0.26181 1.18218,0.68603 l 0.95737,1.67518 z M -55.65402,4 -55.7701,4.0013 c -0.08883,0.01111 -0.15184,0.09211 -0.14073,0.18097 l 0.82087,6.5702 -3.83959,0.12837 -1.2565,-2.1986 C -60.25043,8.56953 -60.37024,8.5 -60.5,8.5 v 2.43165 l -0.9839,0.03476 C -61.77167,10.97601 -62,11.21206 -62,11.5 c 0,0.2879 0.22833,0.524 0.5161,0.5336 L -60.5,12.0664 V 14.5 l 0.0763,-0.0081 c 0.0992,-0.0214 0.18614,-0.0839 0.23761,-0.174 l 1.25647,-2.1997 3.83964,0.1284 -0.82211,6.5913 c 0,0.0895 0.07257,0.1621 0.16209,0.1621 h 0.09598 c 0.19865,0 0.37846,-0.1176 0.45809,-0.2996 l 2.78473,-6.3644 3.4604,0.1148 C -48.4257,12.4508 -48,12.0251 -48,11.5 l -5e-4,-0.03168 c -0.0175,-0.52484 -0.4572,-0.93612 -0.9822,-0.91862 l -3.4295,0.11321 -2.78374,-6.36332 C -55.27556,4.1176 -55.45537,4 -55.65402,4 Z"
       id="path8322"
       fill="currentColor"
       class="ColorScheme-Text" />
  </g>
</svg>
