<?xml version="1.0" encoding="UTF-8" standalone="no"?>
<svg
   id="svg"
   version="1.1"
   viewBox="0 0 22 22"
   width="22"
   height="22"
   xmlns="http://www.w3.org/2000/svg"
   xmlns:svg="http://www.w3.org/2000/svg"
   xmlns:rdf="http://www.w3.org/1999/02/22-rdf-syntax-ns#"
   xmlns:cc="http://creativecommons.org/ns#"
   xmlns:dc="http://purl.org/dc/elements/1.1/">
  <metadata
     id="metadata71">
    <rdf:RDF>
      <cc:Work
         rdf:about="">
        <dc:format>image/svg+xml</dc:format>
        <dc:type
           rdf:resource="http://purl.org/dc/dcmitype/StillImage" />
      </cc:Work>
    </rdf:RDF>
  </metadata>
  <defs
     id="defs3">
    <style
       id="current-color-scheme"
       type="text/css">.ColorScheme-Text {
        color:#31363b;
      }
      .ColorScheme-Background {
        color:#eff0f1;
      }
      .ColorScheme-Highlight {
        color:#3daee9;
      }
      .ColorScheme-ViewText {
        color:#31363b;
      }
      .ColorScheme-ViewBackground {
        color:#fcfcfc;
      }
      .ColorScheme-ViewHover {
        color:#93cee9;
      }
      .ColorScheme-ViewFocus{
        color:#3daee9;
      }
      .ColorScheme-ButtonText {
        color:#31363b;
      }
      .ColorScheme-ButtonBackground {
        color:#eff0f1;
      }
      .ColorScheme-ButtonHover {
        color:#93cee9;
      }
      .ColorScheme-ButtonFocus{
        color:#3daee9;
      }</style>
  </defs>
  <g
     id="22-22-notification-active"
     transform="translate(0,-63)">
    <rect
       style="opacity:1;fill:none;fill-opacity:1;stroke-width:1.69231;stroke-linecap:round;stroke-linejoin:round"
       id="rect3606"
       width="22"
       height="22"
       x="0"
       y="63" />
    <path
       id="path959"
       d="m 11,67 c -3.22662,0 -5.8715206,2.451269 -5.9941406,5.568359 l -0.00391,0.22461 v 3.607422 L 4.078125,78.621094 4.0351562,78.748047 4.0136719,78.875 c -0.050399,0.4635 0.1927356,0.881734 0.6035156,1.052734 l 0.125,0.04297 c 0.08456,0.0228 0.1718156,0.0332 0.2597656,0.0332 h 3.5 l 0.00586,0.160156 c 0.084649,1.304103 1.16867,2.33594 2.4941399,2.33594 1.3252,0 2.409041,-1.030284 2.494141,-2.333984 l 0.0059,-0.16211 h 3.501953 l 0.134766,-0.0098 0.115234,-0.02734 c 0.4527,-0.129 0.75,-0.514891 0.75,-0.962891 l -0.0098,-0.130859 -0.01367,-0.08594 c -0.0127,-0.0569 -0.03209,-0.111915 -0.05469,-0.166015 l -0.923828,-2.222656 v -3.595704 l -0.0039,-0.224609 -0.0078,-0.119141 a 4,4 0 0 1 -0.988281,0.40625 V 76.5 l 0.03906,0.191406 0.96289,2.3125 -0.04492,0.002 -11.9570309,-0.002 0.9628907,-2.3125 L 6.0019531,76.5 v -3.697266 l 0.00391,-0.205078 0.013672,-0.21289 C 6.2295513,69.923506 8.37745,68 11,68 c 0.04509,0 0.08997,0.0028 0.134766,0.0039 a 4,4 0 0 1 0.398437,-0.980468 C 11.357509,67.008547 11.179634,67 11,67 Z M 9.5019531,80.003906 h 2.9999999 l -0.0059,0.140625 C 12.423494,80.905131 11.781653,81.5 11.001953,81.5 L 10.857422,81.4922 C 10.144612,81.4241 9.5783156,80.857243 9.5097656,80.144543 Z"
       fill="currentColor"
       class="ColorScheme-Text" />
    <circle
       style="opacity:1;fill:#00a0d7;fill-opacity:1;stroke-width:2.18248;stroke-linecap:round;stroke-linejoin:round"
       id="path983"
       cx="15"
       cy="69"
       r="3.0000002" />
  </g>
</svg>
