<svg width="16" height="16" viewBox="-3 -3 22 22">
<style id="current-color-scheme" type="text/css">
.ColorScheme-Contrast{color:#dedede}
</style>
<path d="M4 3c-1.108 0-2 .892-2 2v7c0 1.108.892 2 2 2h7c1.108 0 2-.892 2-2V9h-1v3c0 .554-.446 1-1 1H4c-.554 0-1-.446-1-1V5c0-.554.446-1 1-1h3V3z" class="ColorScheme-Contrast" style="paint-order:stroke fill markers"/>
<path fill="currentColor" d="M8.5 2a.499.499 0 1 0 0 1h3.793L8.195 7.096a.501.501 0 1 0 .71.709L13 3.707V7.5a.499.499 0 1 0 1 0v-5l-.002-.047V2.45l-.008-.045a.5.5 0 0 0-.027-.092l-.014-.029-.006-.015q0-.003-.004-.006-.009-.02-.021-.037l-.004-.004-.006-.008a.5.5 0 0 0-.12-.121l-.071-.041-.03-.014a.5.5 0 0 0-.091-.027q-.022-.006-.045-.008h-.004L13.5 2z"/>
</svg>
