<svg xmlns="http://www.w3.org/2000/svg" id="svg8" version="1.1" viewBox="0 0 22 22">
<defs id="defs3051">
<style id="current-color-scheme" type="text/css">
.ColorScheme-Contrast{color:#dedede}.ColorScheme-Highlight{color:#3daee9}
</style>
</defs>
<path id="path4" fill="currentColor" d="M9 2v4h4V2zm1 1h2v2h-2zm-7 7v1h1v-1zm3 0v1h1v-1zm3 0v1h1v-1zm3 0v1h1v-1zm3 0v1h1v-1zm3 0v1h1v-1zM3 15v4h4v-4zm12 0v4h4v-4zM4 16h2v2H4zm12 0h2v2h-2z" class="ColorScheme-Contrast"/>
<path id="path6" fill="currentColor" d="m9 7 2 3 2-3zm-4 4-2 3h4zm12 0-2 3h4z" class="ColorScheme-Highlight"/>
</svg>
