<svg xmlns="http://www.w3.org/2000/svg" width="16" height="16" viewBox="-3 -3 22 22">
<path fill="currentColor" fill-rule="evenodd" d="M8 0a8 8 0 0 0-8 8 8 8 0 0 0 8 8 8 8 0 0 0 8-8 8 8 0 0 0-8-8m0 1a7 7 0 0 1 7 7 7 7 0 0 1-7 7 7 7 0 0 1-7-7 7 7 0 0 1 7-7" style="paint-order:stroke fill markers"/>
<circle cx="8" cy="4.5" r=".5" fill="currentColor" fill-rule="evenodd" style="paint-order:stroke fill markers"/>
<rect width="1" height="6" x="7.5" y="6" fill="currentColor" fill-rule="evenodd" rx=".5" ry=".5" style="paint-order:stroke fill markers"/>
</svg>
