<svg xmlns="http://www.w3.org/2000/svg" width="16" height="16" viewBox="-3 -3 22 22">
<path fill="#dedede" d="M10.824 0q-.62 0-1.23.12a5.2 5.2 0 0 0-1.248.42q-.627.3-1.118.746v.002a3.4 3.4 0 0 0-.818 1.191 4.1 4.1 0 0 0-.303 1.594c0 .48.122 1.072.317 1.752a3 3 0 0 0-.432.508 13 13 0 0 1-.484-.293l-.002-.002a82 82 0 0 0-.737-.463 15 15 0 0 0-.705-.416 5 5 0 0 0-.697-.318v.002c-.264-.098-.506-.158-.764-.14a1.8 1.8 0 0 0-.62.157l-.07.036a3.05 3.05 0 0 0-1.177 1.35 3.4 3.4 0 0 0-.26 1.724c.061.591.248 1.175.547 1.742l.004.006q.365.668.87 1.213.514.556 1.189.937h.002a3 3 0 0 0 1.646.373c.61-.03 1.207-.238 1.774-.597l.004-.002c.287-.185.605-.479.945-.83A3 3 0 0 0 8.482 11a3 3 0 0 0 .389-.03c.026.245.045.502.049.786q0 .255-.008.732-.008.485-.008.74 0 .27.024.64c.016.263.046.485.109.687q.086.278.244.53c.124.195.297.363.502.474l.004.002c.624.328 1.27.482 1.906.43a3.53 3.53 0 0 0 1.73-.63c.521-.359.96-.837 1.313-1.416l.002-.002q.418-.676.627-1.449.21-.782.17-1.619c-.03-.607-.243-1.194-.613-1.736-.377-.552-.91-1.01-1.569-1.371-.491-.274-1.177-.496-2.02-.696a3 3 0 0 0-.39-.787c.102-.064.21-.13.334-.2a83 83 0 0 1 1.477-.823 6 6 0 0 0 1.205-.848c.382-.347.646-.761.646-1.234 0-.964-.396-1.808-1.134-2.367C12.75.267 11.846 0 10.824 0m0 1c.853 0 1.514.209 2.043.61.512.387.738.854.738 1.57 0 .093-.055.255-.318.494l-.002.002q-.433.394-1.006.705-.63.34-1.496.832c-.205.116-.39.229-.568.34A3 3 0 0 0 8.482 5a3 3 0 0 0-1.193.252c-.118-.487-.182-.892-.182-1.178 0-.46.076-.857.223-1.203V2.87c.152-.36.345-.634.574-.844q.374-.341.875-.584A4.2 4.2 0 0 1 9.785 1.1q.517-.1 1.039-.1M2.67 5.701c.036-.002.164.012.35.08h.001q.304.113.56.254.279.152.659.389v.002q.385.24.727.457c.19.122.398.244.615.367a3 3 0 0 0-.1.75 3 3 0 0 0 1.09 2.309c-.236.222-.44.387-.602.492-.447.283-.87.421-1.285.441-.432.02-.785-.06-1.105-.242a3.9 3.9 0 0 1-.95-.748 5 5 0 0 1-.722-1.008 3.8 3.8 0 0 1-.436-1.377c-.045-.444.014-.84.18-1.22.155-.357.41-.638.78-.881A1 1 0 0 1 2.67 5.7zM8.482 6a2 2 0 0 1 2 2 2 2 0 0 1-2 2 2 2 0 0 1-2-2 2 2 0 0 1 2-2m2.96 1.514.005.029zm.03.61c.616.168 1.086.344 1.395.517l.002.002c.55.301.95.656 1.227 1.06.284.416.421.813.44 1.22a4.2 4.2 0 0 1-.136 1.311 4.4 4.4 0 0 1-.513 1.186l-.002.002a3.6 3.6 0 0 1-1.03 1.117 2.5 2.5 0 0 1-1.244.453c-.426.035-.868-.059-1.355-.314l-.004-.002a.33.33 0 0 1-.125-.125 1.2 1.2 0 0 1-.135-.291 2.2 2.2 0 0 1-.066-.453v-.002a10 10 0 0 1-.022-.577q0-.241.008-.724.008-.485.008-.754v-.008a14 14 0 0 0-.055-1.088 3 3 0 0 0 1.607-2.531zm-4.5 2.46.051.027z" color="#000" style="-inkscape-stroke:none"/>
</svg>
