<?xml version='1.0' encoding='ASCII'?>
<svg xmlns="http://www.w3.org/2000/svg" width="16" height="16" viewBox="-3 -3 22 22">
<defs><style id="current-color-scheme" type="text/css">.ColorScheme-Text{color:#fcfcfc; fill:currentColor;}</style></defs><path d="M9 0v7h7V6a6 6 0 0 0-6-6zM7 1v.035A7.5 7.5 0 0 0 0 8.5 7.5 7.5 0 0 0 7.5 16a7.5 7.5 0 0 0 7.465-7H15V8H8V.999zm3 0a5 5 0 0 1 5 5h-5zM7 2.04V9h6.96a6.5 6.5 0 0 1-6.46 6A6.5 6.5 0 0 1 1 8.5a6.5 6.5 0 0 1 6-6.46" class="ColorScheme-Text" style="fill:currentColor" fill="currentColor"/>
</svg>
