<svg xmlns="http://www.w3.org/2000/svg" width="16" height="16" viewBox="-3 -3 22 22">
<defs>
<style id="current-color-scheme" type="text/css">
.ColorScheme-Contrast{color:#dedede}
</style>
</defs>
<path fill="currentColor" d="M6.127.26a.498.498 0 0 0-.55.625l.136.51a7 7 0 0 0-1.172.529c-.013.006-.028.006-.041.014-.013.007-.02.02-.033.029a7 7 0 0 0-1.045.748l-.371-.371a.499.499 0 1 0-.707.707l.369.369a7 7 0 0 0-.775 1.08 7 7 0 0 0-.55 1.21l-.503-.134c-.268-.072-.54.086-.612.354s.086.54.354.611l.506.137a7 7 0 0 0-.002 2.646l-.504.135a.5.5 0 0 0-.354.611.5.5 0 0 0 .612.354l.51-.137a7 7 0 0 0 1.32 2.291l-.371.371a.499.499 0 1 0 .707.707l.369-.369a7 7 0 0 0 1.08.776 7 7 0 0 0 1.21.548l-.134.504a.5.5 0 0 0 .354.612.5.5 0 0 0 .611-.354l.137-.506a7 7 0 0 0 2.646.002l.135.504a.5.5 0 0 0 .611.354.5.5 0 0 0 .354-.612l-.137-.51a7 7 0 0 0 2.291-1.32l.371.371a.499.499 0 1 0 .707-.707l-.369-.369a7 7 0 0 0 .776-1.08 7 7 0 0 0 .548-1.21l.504.134a.5.5 0 0 0 .612-.354.5.5 0 0 0-.354-.611l-.506-.137a7 7 0 0 0 .127-1.295c0-.01.006-.017.006-.027 0-.012-.007-.023-.008-.035a7 7 0 0 0-.123-1.29l.504-.134a.5.5 0 0 0 .354-.611.5.5 0 0 0-.612-.354l-.51.137a7 7 0 0 0-1.32-2.291l.371-.371a.499.499 0 1 0-.707-.707l-.369.369a7 7 0 0 0-1.08-.775 7 7 0 0 0-1.21-.55l.134-.503a.5.5 0 0 0-.354-.612.5.5 0 0 0-.611.354l-.137.506a7 7 0 0 0-2.646-.002L6.54.627A.5.5 0 0 0 6.127.26m1.59 1.746A6 6 0 0 1 11 2.805 6 6 0 0 1 13.973 7.5h-4.04A2 2 0 0 0 8 6a2 2 0 0 0-.533.074l-2.022-3.5a6 6 0 0 1 2.272-.568M4.58 3.078 6.6 6.574A2 2 0 0 0 6 8a2 2 0 0 0 .598 1.426l-2.02 3.498A6 6 0 0 1 2.805 5 6 6 0 0 1 4.58 3.078M8 7a1 1 0 0 1 1 1 1 1 0 0 1-1 1 1 1 0 0 1-1-1 1 1 0 0 1 1-1m1.936 1.5h4.037a6 6 0 0 1-.778 2.5 6 6 0 0 1-7.75 2.424l2.02-3.496A2 2 0 0 0 8 10a2 2 0 0 0 1.935-1.5" class="ColorScheme-Contrast"/>
</svg>
