<svg xmlns="http://www.w3.org/2000/svg" width="16" height="16" viewBox="-3 -3 22 22">
<path fill="#dedede" d="M8 16a8 8 0 0 1-8-8 8 8 0 0 1 8-8 8 8 0 0 1 8 8 8 8 0 0 1-8 8m-.094-1H8a7 7 0 0 0 7-7 7 7 0 0 0-7-7 7 7 0 0 0-7 7 7 7 0 0 0 6.906 7"/>
<path fill="#dedede" d="M8.485 1.828h4v1h-4z" style="paint-order:fill markers stroke" transform="scale(1 -1)rotate(-45)"/>
<path fill="#dedede" d="M-2.828-9.485h4v1h-4z" style="paint-order:fill markers stroke" transform="rotate(135)"/>
<path fill="#dedede" d="M7.5-12h1v7h-1z" style="paint-order:fill markers stroke" transform="scale(1 -1)"/>
</svg>
