<?xml version='1.0' encoding='ASCII'?>
<svg xmlns="http://www.w3.org/2000/svg" viewBox="0 0 22 22">
<defs><style id="current-color-scheme" type="text/css">.ColorScheme-Text{color:#fcfcfc; fill:currentColor;}</style></defs><path d="M11 3a3 3 0 0 0-3 3H5v13h12V6h-3a3 3 0 0 0-3-3m0 1a2 2 0 0 1 2 2H9a2 2 0 0 1 2-2M6 7h2v1.088A1.5 1.5 0 0 0 7 9.5 1.5 1.5 0 0 0 8.5 11 1.5 1.5 0 0 0 10 9.5a1.5 1.5 0 0 0-1-1.412V7h4v1.088A1.5 1.5 0 0 0 12 9.5a1.5 1.5 0 0 0 1.5 1.5A1.5 1.5 0 0 0 15 9.5a1.5 1.5 0 0 0-1-1.412V7h2v11H6zm2.5 2a.5.5 0 0 1 .5.5.5.5 0 0 1-.5.5.5.5 0 0 1-.5-.5.5.5 0 0 1 .5-.5m5 0a.5.5 0 0 1 .5.5.5.5 0 0 1-.5.5.5.5 0 0 1-.5-.5.5.5 0 0 1 .5-.5" class="ColorScheme-Text" style="fill-opacity:1;stroke:none;fill:currentColor" fill="currentColor"/>
</svg>
