<?xml version='1.0' encoding='ASCII'?>
<svg xmlns="http://www.w3.org/2000/svg" viewBox="0 0 22 22">
<defs><style id="current-color-scheme" type="text/css">.ColorScheme-Contrast{color:#dedede; fill:currentColor;}</style></defs><path d="M12 4a2 2 0 0 0-.5 3.938V10H9v1h2.5v7.969a7.97 7.97 0 0 1-6.094-3.5l.188-.094.906-.5L6 14l-3 1.625.5.875 1.031-.562C6.135 18.373 8.867 20 12 20s5.864-1.627 7.469-4.062l1.031.562.5-.875L18 14l-.5.875.906.5.188.094a7.97 7.97 0 0 1-6.094 3.5V11H15v-1h-2.5V7.938A2.001 2.001 0 0 0 12 4m0 1a1 1 0 1 1 0 2 1 1 0 0 1 0-2" class="ColorScheme-Contrast" style="fill-opacity:1;stroke:none;fill:currentColor" transform="translate(-1 -1)" fill="currentColor"/>
</svg>
