<svg xmlns="http://www.w3.org/2000/svg" width="16" height="16" viewBox="-3 -3 22 22">
<style id="current-color-scheme" type="text/css">
.ColorScheme-Contrast{color:#dedede}
</style>
<path d="M8 1C6.338 1 5 2.338 5 4v2h1V4c0-1.108.892-2 2-2h4c1.108 0 2 .892 2 2v8c0 1.108-.892 2-2 2H8c-1.108 0-2-.892-2-2v-2H5v2c0 1.662 1.338 3 3 3h4c1.662 0 3-1.338 3-3V4c0-1.662-1.338-3-3-3zM3.328 4.67a.5.5 0 0 0-.353.148L.146 7.646l-.033.038v.002l-.008.01-.033.05-.006.01-.029.056-.006.016a.5.5 0 0 0-.03.121v.004a.5.5 0 0 0 0 .094v.002a.5.5 0 0 0 .036.14l.016.032a.5.5 0 0 0 .05.082l.01.011v.002q.016.02.033.037l2.829 2.829a.499.499 0 1 0 .707-.707L1.707 8.5H9.5a.499.499 0 1 0 0-1H1.707l1.975-1.975a.5.5 0 0 0 0-.707.5.5 0 0 0-.354-.148" class="ColorScheme-Contrast" style="fill:currentColor"/>
</svg>
