<svg xmlns="http://www.w3.org/2000/svg" viewBox="0 0 22 22">
<style id="current-color-scheme" type="text/css">
.ColorScheme-Text{color:#dedede}.ColorScheme-NegativeText{color:#da4453}
</style>
<path fill="currentColor" d="M16.5 13a3.5 3.5 0 1 0 0 7 3.5 3.5 0 0 0 0-7M14 16h5v1h-5z" class="ColorScheme-NegativeText"/>
<path fill="currentColor" d="M11 4v1h1V4zm0 1h-1v1h1zm0 1v1h1V6zm0 1h-1v1h1zm0 1v1h1V8zm0 1h-1v2h2v-1h-1z" class="ColorScheme-Text"/>
<path fill="currentColor" d="M6 3C4.338 3 3 4.338 3 6v10c0 1.662 1.338 3 3 3h6.76a4.5 4.5 0 0 1-.504-1H6c-1.108 0-2-.892-2-2V6c0-1.108.892-2 2-2h10c1.108 0 2 .892 2 2v6.258a4.5 4.5 0 0 1 1 .5V6c0-1.662-1.338-3-3-3z" class="ColorScheme-Text"/>
</svg>
