<?xml version='1.0' encoding='ASCII'?>
<svg xmlns="http://www.w3.org/2000/svg" viewBox="0 0 22 22">
<defs><style id="current-color-scheme" type="text/css">.ColorScheme-Text{color:#fcfcfc; fill:currentColor;}</style></defs><path d="m4.5 3-.531.969L3 4.5l.969.531L4.5 6l.531-.969L6 4.5l-.969-.531zm5 0-.531.969L8 4.5l.969.531L9.5 6l.531-.969L11 4.5l-.969-.531zm6.672 0L3 16.172 5.828 19 19 5.828zm-.068 1.482 1.414 1.414-3.098 3.1-1.416-1.416zM6.5 7l-.531.969L5 8.5l.969.531L6.5 10l.531-.969L8 8.5l-.969-.531z" class="ColorScheme-Text" style="fill-opacity:1;stroke:none;fill:currentColor" fill="currentColor"/>
</svg>
