<?xml version='1.0' encoding='ASCII'?>
<svg xmlns="http://www.w3.org/2000/svg" width="16" height="16" viewBox="-3 -3 22 22">
<defs><style id="current-color-scheme" type="text/css">.ColorScheme-Text{color:#fcfcfc; fill:currentColor;}</style></defs><path d="M2 3.085a.7.7 0 0 0-.455.17c-.33.28-.498.803-.738 1.322v.003l-.002.002c-.151.37-.193.612-.175.798.017.186.1.304.151.397.052.093.085.16.065.324s-.108.423-.33.84L.5 6.977l.005.038c.047.336.092.507.176.622a.3.3 0 0 0 .157.112c.055.015.1.011.134.011.069 0 .093-.009.164.063.072.071.178.244.298.6l.002.008.005.009c.305.564.601.697.862.819l.017.009-.909 2.482a.8.8 0 0 0-.231-.037.85.85 0 0 0-.848.848c0 .466.382.848.848.848a.85.85 0 0 0 .848-.848.85.85 0 0 0-.415-.724l.903-2.467c.189.115.387.3.644.757l.003.005.004.005c.14.192.326.28.5.326.176.045.343.056.471.09s.209.075.27.196c.06.122.095.343.054.726l-.01.092.087.034c.375.147.757.48 1.107.686.175.103.347.18.527.163.129-.012.221-.145.315-.266a.31.31 0 0 1 .16.243c.018.145-.001.326.022.5a.54.54 0 0 0 .094.255.44.44 0 0 0 .26.159c.224.047.53-.01 1.032-.19l.063-.023.015-.065a1.1 1.1 0 0 1 .166-.42.3.3 0 0 1 .187-.13c.143-.033.365.035.625.098h.005c.282.053.558.017.773-.152s.355-.456.41-.86h.002v-.002c.035-.317.151-.487.296-.597.136-.104.305-.147.464-.177.298.283.563.466.804.491.264.028.487-.104.657-.295.316-.355.525-.927.783-1.39.118.093.238.188.338.224.138.05.275.042.38-.025.207-.134.263-.405.309-.701.046-.297.066-.634.11-.912.031-.193.089-.273.142-.367h.003c.113-.045.226-.148.351-.31a1.44 1.44 0 0 0 .183-1.437c.362-.159.61-.365.647-.596a.55.55 0 0 0-.333-.58.5.5 0 0 0-.298-.096c-.1.003-.187.026-.256.034-.069.007-.109.002-.145-.022-.035-.023-.081-.081-.123-.219l.002.026-.006-.034.004.008a.74.74 0 0 0-.136-.43.72.72 0 0 0-.376-.245c-.298-.09-.692-.068-1.159-.01h-.002c-.3-.043-.665.039-1.021.17-.357.133-.7.318-.944.51a1.1 1.1 0 0 0-.28.298c-.06.104-.082.245-.008.35.074.106.2.154.374.18.076.013.212 0 .312.003-.375.242-.789.485-1.026.71a.8.8 0 0 0-.179.228.31.31 0 0 0 0 .278c.036.065.11.104.183.145-.237.029-.53.023-.69.102-.28.139-.447.344-.56.544s-.181.394-.258.525-.139.196-.297.204h-.01c-.372.046-.534-.05-.654-.206s-.182-.398-.266-.633-.207-.479-.478-.567c-.217-.07-.57.054-.964.217-.013-.02-.023-.047-.04-.063a1 1 0 0 0-.107-.085c-.165-.115-.431-.255-.745-.437-.615-.356-1.384-.877-1.814-1.55.015-.045.03-.089.066-.117a.6.6 0 0 1 .183-.086l.09-.03c.03-.011.066-.008.108-.08a.16.16 0 0 0 0-.135.16.16 0 0 0-.055-.059.6.6 0 0 0-.12-.06c-.213-.104-.231-.13-.286-.212-.055-.08-.137-.223-.396-.465l-.001-.002-.004-.002c-.345-.29-.623-.452-.873-.507a.8.8 0 0 0-.18-.02m-.002.24q.059 0 .128.016c.187.042.442.18.77.456l.001.001c.236.222.293.323.356.417.054.08.163.158.317.246-.06.022-.12.042-.184.09a.47.47 0 0 0-.183.32l-.005.042.022.036c.464.765 1.302 1.3 1.94 1.67.318.185.59.33.73.426l.068.055.062.174c.01-.002.018-.009.027-.011.542-.272.852-.308 1.018-.254s.244.202.322.419.14.483.304.697.446.349.873.297a.61.61 0 0 0 .488-.32c.097-.165.16-.354.26-.528.098-.174.226-.332.457-.447s.573-.185 1.095-.154l.027-.241a1.8 1.8 0 0 1-.385-.098c-.084-.036-.117-.07-.125-.086-.009-.016-.012-.022.005-.06a.6.6 0 0 1 .127-.155c.261-.247.844-.574 1.314-.905l.367-.26-.447.04a3 3 0 0 1-.65-.002c-.142-.022-.2-.065-.212-.08-.01-.016-.016-.027.02-.088a1 1 0 0 1 .222-.229c.214-.17.542-.35.876-.474s.679-.19.907-.159l.016.002.016-.002c.472-.06.852-.068 1.09.003a.47.47 0 0 1 .252.16.5.5 0 0 1 .087.31v.017l.005.016c.052.176.125.294.226.362.101.067.214.069.306.059s.173-.03.238-.033c.065-.002.107.005.157.047l.014.012.016.008a.31.31 0 0 1 .197.33c-.023.145-.162.338-.572.48l-.129.044.06.124c.27.542.071 1-.142 1.275-.071.092-.117.118-.167.156l-.059-.068c-.011.007-.007.03-.017.037l-.011-.012c-.061.073-.098.112-.113.193a.14.14 0 0 0 .005.08c-.061.132-.155.231-.182.401-.047.297-.068.633-.111.912-.043.28-.125.486-.2.535-.038.024-.079.034-.168.002s-.217-.114-.38-.26l-.109-.098-.077.127c-.307.511-.536 1.147-.817 1.463-.14.158-.273.233-.449.215s-.418-.148-.733-.467l-.045-.045-.065.011c-.18.033-.404.087-.599.236-.194.148-.35.393-.391.762v-.004c-.05.365-.17.583-.32.701s-.343.15-.578.106c-.244-.06-.486-.152-.728-.097a.57.57 0 0 0-.329.222c-.076.103-.128.258-.175.433-.442.153-.73.199-.855.172-.066-.014-.094-.036-.117-.066a.3.3 0 0 1-.048-.142c-.017-.129 0-.314-.023-.499-.024-.185-.113-.39-.335-.485l-.109-.046-.05.11c-.082.181-.155.225-.243.234-.089.008-.223-.038-.381-.131-.297-.175-.67-.481-1.073-.66.027-.342.014-.607-.071-.778a.63.63 0 0 0-.426-.322c-.163-.042-.327-.052-.47-.09A.6.6 0 0 1 3.364 10l.004.007-.008-.013.004.006c-.285-.504-.541-.726-.766-.859l.308-.842h.874c1.712.958 2.672 1.212 4.097 1.234 1.402.021 2.348-.267 4.225-1.263v.029H13.8V6.603h-1.696v.934C10.053 8.65 9.196 8.905 7.89 8.885c-1.298-.02-2.16-.22-3.936-1.23V6.604H2.255V8.3h.418l-.27.74c-.269-.125-.467-.19-.75-.714-.121-.353-.23-.557-.346-.672a.47.47 0 0 0-.338-.136q-.058 0-.071-.002c-.009-.002-.008 0-.023-.021-.029-.04-.082-.195-.126-.487.204-.393.311-.673.337-.876a.74.74 0 0 0-.093-.472c-.06-.108-.11-.174-.122-.303-.012-.127.015-.33.156-.677l.002-.004c.246-.531.434-1.034.672-1.236a.42.42 0 0 1 .297-.115m.742 3.763h.728v.726H2.74zm9.846 0h.728v.726h-.728zm-11.407 5.11c.206 0 .363.158.363.363a.357.357 0 0 1-.363.363.357.357 0 0 1-.363-.363c0-.205.158-.363.363-.363" class="ColorScheme-Text" style="fill:currentColor" fill="currentColor"/>
</svg>
