<svg xmlns="http://www.w3.org/2000/svg" viewBox="0 0 22 22">
<defs>
<style id="current-color-scheme" type="text/css">
.ColorScheme-Text{color:#dedede}
</style>
</defs>
<path fill="currentColor" d="m18 12-4 4v2h2l4-4zm-.312 1.688.593.593-2.969 3-.593-.593z" class="ColorScheme-Text"/>
<path fill="currentColor" d="M5 4C3.338 4 2 5.338 2 7v8c0 1.662 1.338 3 3 3h8v-2a1 1 0 0 1 .293-.707l2.209-2.209L13 11l-4 4-3-2-2.82 2.82A2 2 0 0 1 3 15V7c0-1.108.892-2 2-2h12c1.108 0 2 .892 2 2v4.586l1 1V7c0-1.662-1.338-3-3-3zm2.5 3a1.5 1.5 0 1 0 0 3 1.5 1.5 0 0 0 0-3" class="ColorScheme-Text"/>
<path fill="currentColor" d="m18 12-4 4v2h2l4-4zm-.312 1.688.593.593-2.969 3-.593-.593z" class="ColorScheme-Text"/>
</svg>
