<svg xmlns="http://www.w3.org/2000/svg" viewBox="0 0 22 22">
<defs>
<style id="current-color-scheme" type="text/css">
.ColorScheme-Contrast{color:#dedede}.ColorScheme-NegativeText{color:#da4453}
</style>
</defs>
<path fill="currentColor" d="M7 0C5.892 0 5 .892 5 2v16l6-3v-1.174l-5 2.592V2c0-.554.446-1 1-1h8c.554 0 1 .446 1 1v10h1V2c0-1.108-.892-2-2-2z" class="ColorScheme-Contrast"/>
<path fill="currentColor" d="m12.707 13-.707.707 1.793 1.793L12 17.293l.707.707 1.793-1.793L16.293 18l.707-.707-1.793-1.793L17 13.707 16.293 13 14.5 14.793Z" class="ColorScheme-NegativeText"/>
</svg>
