<?xml version='1.0' encoding='ASCII'?>
<svg xmlns="http://www.w3.org/2000/svg" width="16" height="16" viewBox="-3 -3 22 22">
<defs><style id="current-color-scheme" type="text/css">.ColorScheme-Contrast{color:#dedede; fill:currentColor;}</style></defs><path d="M5 5a3 3 0 0 0-3 3 3 3 0 0 0 3 3 3 3 0 0 0 2.418-1.236A4 4 0 0 1 7 8a4 4 0 0 1 .422-1.771A3 3 0 0 0 5 5m6 0a3 3 0 0 1 3 3 3 3 0 0 1-3 3 3 3 0 0 1-2.418-1.236A4 4 0 0 0 9 8a4 4 0 0 0-.422-1.771A3 3 0 0 1 11 5" class="ColorScheme-Contrast" style="stroke-width:2;stroke-linecap:round;stroke-linejoin:round;paint-order:stroke fill markers;stop-opacity:.35;fill:currentColor" fill="currentColor"/>
<path d="M5 3a5 5 0 0 0-5 5 5 5 0 0 0 5 5 5 5 0 0 0 5-5 5 5 0 0 0-5-5m0 1a4 4 0 0 1 4 4 4 4 0 0 1-4 4 4 4 0 0 1-4-4 4 4 0 0 1 4-4" style="stroke-width:2;stroke-linecap:round;stroke-linejoin:round;paint-order:stroke fill markers;stop-fill:currentColor" class="ColorScheme-Contrast" fill="currentColor"/>
<path d="M11 3a5 5 0 0 0-5 5 5 5 0 0 0 5 5 5 5 0 0 0 5-5 5 5 0 0 0-5-5m0 1a4 4 0 0 1 4 4 4 4 0 0 1-4 4 4 4 0 0 1-4-4 4 4 0 0 1 4-4" style="stroke-width:2;stroke-linecap:round;stroke-linejoin:round;paint-order:stroke fill markers;stop-fill:currentColor" class="ColorScheme-Contrast" fill="currentColor"/>
</svg>
