<svg xmlns="http://www.w3.org/2000/svg" width="16" height="16" viewBox="-3 -3 22 22">
<path fill="#fcfcfc" d="M1.5 9a.5.5 0 0 0-.5.5v2a.5.5 0 0 0 .5.5h3.232a.5.5 0 0 0 .479-.643 3 3 0 0 1 0-1.714A.5.5 0 0 0 4.732 9zm9.94 0a.5.5 0 0 0-.479.643 3 3 0 0 1-.002 1.712.5.5 0 0 0 .479.645H14.5a.5.5 0 0 0 .5-.5v-2a.5.5 0 0 0-.5-.5zM2 10h2.16c-.021.168-.074.33-.074.5s.053.332.074.5H2zm10.012 0H14v1h-1.988c.022-.167.074-.33.074-.498V10.5c0-.17-.053-.332-.074-.5" color="#000" style="-inkscape-stroke:none"/>
<path fill="#61a1ff" d="M8 6a4.5 4.5 0 0 0-4.5 4.5A4.5 4.5 0 0 0 8 15a4.5 4.5 0 0 0 4.5-4.5A4.5 4.5 0 0 0 8 6m0 2a2.5 2.5 0 0 1 2.5 2.5A2.5 2.5 0 0 1 8 13a2.5 2.5 0 0 1-2.5-2.5A2.5 2.5 0 0 1 8 8"/>
</svg>
