<?xml version='1.0' encoding='ASCII'?>
<svg xmlns="http://www.w3.org/2000/svg" width="16" height="16" viewBox="-3 -3 22 22">
<defs><style id="current-color-scheme" type="text/css">.ColorScheme-Contrast{color:#dedede; fill:currentColor;}</style></defs><path d="M8 3.5A4.5 4.5 0 0 0 3.5 8 4.5 4.5 0 0 0 8 12.5 4.5 4.5 0 0 0 12.5 8 4.5 4.5 0 0 0 8 3.5m0 2A2.5 2.5 0 0 1 10.5 8 2.5 2.5 0 0 1 8 10.5 2.5 2.5 0 0 1 5.5 8 2.5 2.5 0 0 1 8 5.5" class="ColorScheme-Contrast" style="fill:currentColor" fill="currentColor"/>
</svg>
