<?xml version='1.0' encoding='ASCII'?>
<svg xmlns="http://www.w3.org/2000/svg" width="16" height="16" viewBox="-3 -3 22 22">
<defs><style id="current-color-scheme" type="text/css">.ColorScheme-Text{color:#fcfcfc; fill:currentColor;}</style></defs><path d="M1.963.644v1.86h.63v10.993h-.63v1.858h1.86v-.686h8.355v.686h1.859v-1.858h-.655V2.504h.655V.644h-1.859v.717H3.823V.644zm.532.531h.797v.798h-.798zm10.215 0h.795v.798h-.75l.067-.209-.113.107zm-8.887.718h8.355v.48l-9.027 8.54 5.467 3.226H3.823v-.642h-.7V2.504h.7zm8.763.611h.265v10.993h-.673v.641H8.875zM2.494 14.03h.798v.796h-.798zm10.215 0h.796v.796h-.796z" class="ColorScheme-Text" style="fill:currentColor" fill="currentColor"/>
</svg>
