<?xml version='1.0' encoding='ASCII'?>
<svg xmlns="http://www.w3.org/2000/svg" width="16" height="16" viewBox="-3 -3 22 22">
<defs><style id="current-color-scheme" type="text/css">.ColorScheme-Contrast{color:#dedede; fill:currentColor;}</style></defs><g fill="currentColor" class="ColorScheme-Contrast" style="fill:currentColor">
<style id="current-color-scheme" type="text/css" class="ColorScheme-Contrast" fill="currentColor" style="fill:currentColor">
.ColorScheme-Contrast{color:#dedede}
</style>
<path d="M2.992 1A1.99 1.99 0 0 0 1 2.992v10.016C1 14.112 1.889 15 2.992 15h10.016A1.99 1.99 0 0 0 15 13.008V2.992A1.99 1.99 0 0 0 13.008 1zM3 2h10c.554 0 1 .446 1 1v10c0 .554-.446 1-1 1H3c-.554 0-1-.446-1-1V3c0-.554.446-1 1-1" class="ColorScheme-Contrast" style="fill:currentColor" fill="currentColor"/>
<path d="m6.755 3.754 4.243 4.242-.707.708L6.048 4.46z" class="ColorScheme-Contrast" fill="currentColor" style="fill:currentColor"/>
<path d="M6.758 12.24 11 7.997l-.708-.707-4.242 4.242z" class="ColorScheme-Contrast" fill="currentColor" style="fill:currentColor"/>
</g>
</svg>
