<?xml version='1.0' encoding='ASCII'?>
<svg xmlns="http://www.w3.org/2000/svg" width="16" height="16" viewBox="-3 -3 22 22">
<defs><style id="current-color-scheme" type="text/css">.ColorScheme-Contrast{color:#dedede; fill:currentColor;}</style></defs><path d="M10.967 1.667c2.2 1 3.733 3.133 4 5.666h1c-.4-4.133-3.8-7.333-8-7.333H7.5l2.534 2.533zm-4.2-.534c-.4-.4-1-.4-1.4 0L1.1 5.4c-.4.4-.4 1 0 1.4l8 8c.4.4 1 .4 1.4 0l4.267-4.267c.4-.4.4-1 0-1.4zm3.067 13-8-8L6.1 1.867l8 8zm-4.867.2c-2.2-1-3.733-3.133-4-5.666H.034C.367 12.8 3.767 16 7.967 16h.467L5.9 13.467z" class="ColorScheme-Contrast" style="fill:currentColor" fill="currentColor"/>
</svg>
