<svg xmlns="http://www.w3.org/2000/svg" width="16" height="16" viewBox="-3 -3 22 22">
<style id="current-color-scheme" type="text/css">
.ColorScheme-Contrast{color:#dedede}
</style>
<path d="M8 0v4h1V1.074A7 7 0 0 1 15 8a7 7 0 0 1-7 7 7 7 0 0 1-7-7 7 7 0 0 1 1.49-4.297l-.67-.766A8 8 0 0 0 0 8a8 8 0 0 0 8 8 8 8 0 0 0 8-8 8 8 0 0 0-8-8M4.818 4.111l-.707.707 2.17 2.17A2 2 0 0 0 6 8a2 2 0 0 0 2 2 2 2 0 0 0 2-2 2 2 0 0 0-2-2 2 2 0 0 0-1.012.281zM8 7a1 1 0 0 1 1 1 1 1 0 0 1-1 1 1 1 0 0 1-1-1 1 1 0 0 1 .293-.707A1 1 0 0 1 8 7" class="ColorScheme-Contrast" style="fill:currentColor"/>
</svg>
