<svg xmlns="http://www.w3.org/2000/svg" width="16" height="16" viewBox="-3 -3 22 22">
<style id="current-color-scheme" type="text/css">
.ColorScheme-Contrast{color:#dedede}
</style>
<path d="M8.205.254C7.07.263 5.743.562 4.4 1.115l-.125.053-.082.107a.67.67 0 0 0-.12.598l.005.02.008.02c.096.238.38.434.652.427h.008c.96-.043 2.273.19 2.967.877l.002.002c.16.16.335.317.437.578.068.173.043.57-.226.844l-.012.011c-.165.156-.452.437-.717.698l-.361.353L8.922 7.79l1.238-1.238.004-.004A1.9 1.9 0 0 1 11.5 6l.082.004a1.9 1.9 0 0 0-.563-.125 1.65 1.65 0 0 0-1.261.445l-.457.43L8.26 5.713c.124-.121.28-.277.35-.342l.019-.02.012-.011c.548-.559.675-1.314.441-1.91-.2-.509-.563-.821-.66-.918L8.42 2.51l-.002-.002c-.477-.474-1.077-.738-1.686-.914.494-.099 1.066-.337 1.481-.34.987-.008 1.692.279 1.928.515l.007.008.016.016.008.008c.516.473 1.189 1.173 2.152 2.14.014.014.008.029-.03.12l-.003.007-.014.045a1.67 1.67 0 0 0 .364 1.785l.037.037.035.028-.041-.037c.548.516 1.334.502 1.965.14l.361.362c.009 0 .016-.013-.002.006L13.859 7.57l.707.707 1.14-1.138.001-.002c.38-.384.377-1.03.004-1.41l-.002-.003-.488-.488-.006-.004a.7.7 0 0 0-.334-.183.7.7 0 0 0-.54.117l-.023.015-.02.02a.69.69 0 0 1-.943-.002.68.68 0 0 1-.158-.685l-.008.01.016-.036.002-.004v-.002l.002-.002v-.004c.201-.477.072-.992-.178-1.242-.95-.954-1.611-1.645-2.168-2.156l-.008-.008-.007-.008C10.29.502 9.365.244 8.205.254M5.891 6.629l-.352.35-4.943 4.925c-.191.19-.307.312-.393.489-.075.154-.106.351-.107.597v.016a2.055 2.055 0 0 0 1.992 1.992H2.1c.245 0 .368-.089.515-.19.147-.1.305-.236.498-.43l2.893-2.888c.002-.482.183-.964.545-1.33l.002-.002 1.45-1.451zm.004 1.406L6.98 9.102l-4.574 4.57a3 3 0 0 1-.347.303c-.54-.047-.947-.444-.963-.995v-.002c.001-.135.008-.153.006-.148-.013.026.034-.053.199-.217zM13 9.54v.19q.065-.028.125-.065z" class="ColorScheme-Contrast" style="fill:currentColor"/>
<path fill="currentColor" d="M11.5 7c-.23 0-.46.09-.637.262l-3.601 3.601a.91.91 0 0 0 0 1.274l3.601 3.597a.9.9 0 0 0 1.274 0l3.601-3.597a.91.91 0 0 0 0-1.274l-3.601-3.601A.9.9 0 0 0 11.5 7M11 9h1v3h-1zm.5 3.898c.332.004.598.27.602.602a.601.601 0 0 1-1.204 0 .607.607 0 0 1 .602-.602"/>
</svg>
