<?xml version='1.0' encoding='ASCII'?>
<svg xmlns="http://www.w3.org/2000/svg" width="16" height="16" viewBox="-3 -3 22 22">
<defs><style id="current-color-scheme" type="text/css">.ColorScheme-Contrast{color:#dedede; fill:currentColor;}</style></defs><path d="M8 .342c-.511 0-1.022.196-1.414.588L.93 6.586a1.995 1.995 0 0 0 0 2.828l5.656 5.656a1.995 1.995 0 0 0 2.828 0l5.656-5.656a1.995 1.995 0 0 0 0-2.828L9.414.93A2 2 0 0 0 8 .342m0 1c.256 0 .511.099.707.295l5.656 5.656a1 1 0 0 1 0 1.414l-5.656 5.656a1 1 0 0 1-1.414 0L1.637 8.707a1 1 0 0 1 0-1.414L5.11 3.818l1.037 1.037A1.495 1.495 0 0 0 7 6.91v3.176a1.5 1.5 0 1 0 1 0V6.91a1 1 0 0 0 .145-.058l1.503 1.503A1.5 1.5 0 0 0 9.5 9 1.5 1.5 0 1 0 11 7.5c-.223 0-.445.05-.645.148L8.852 6.145A1.5 1.5 0 0 0 7.5 4c-.223 0-.445.05-.645.148L5.816 3.113l1.477-1.476A1 1 0 0 1 8 1.342" class="ColorScheme-Contrast" style="fill:currentColor" fill="currentColor"/>
</svg>
