<?xml version='1.0' encoding='ASCII'?>
<svg xmlns="http://www.w3.org/2000/svg" viewBox="0 0 22 22">
<defs><style id="current-color-scheme" type="text/css">.ColorScheme-Text{color:#fcfcfc; fill:currentColor;}</style></defs><path d="M389.765 557.04c1.816 1.817 4.359 2.406 6.67 1.815l.4-.4.708-.707s.707-.707 0-1.414l-3.04-3.04c-.708-.708-1.415 0-1.415 0l-.353.353a1.497 1.497 0 0 1-2.122 0l-3.326-3.326a1.497 1.497 0 0 1 0-2.122l.354-.353s.707-.707 0-1.415l-3.041-3.04c-.707-.707-1.414 0-1.414 0l-.707.707-.4.4c-.591 2.312 0 4.855 1.814 6.671z" class="ColorScheme-Text" style="fill-opacity:1;stroke:none;fill:currentColor" transform="translate(-378.857 -540.076)" fill="currentColor"/>
</svg>
