<svg xmlns="http://www.w3.org/2000/svg" viewBox="0 0 22 22">
<style id="current-color-scheme" type="text/css">
.ColorScheme-Text{color:#dedede}
</style>
<g fill="currentColor" fill-rule="evenodd" class="ColorScheme-Text">
<path d="M4.5 7A4.5 4.5 0 0 0 0 11.5 4.5 4.5 0 0 0 4.5 16 4.5 4.5 0 0 0 9 11.5 4.5 4.5 0 0 0 4.5 7m0 1A3.5 3.5 0 0 1 8 11.5 3.5 3.5 0 0 1 4.5 15 3.5 3.5 0 0 1 1 11.5 3.5 3.5 0 0 1 4.5 8m13-1a4.5 4.5 0 0 0-4.5 4.5 4.5 4.5 0 0 0 4.5 4.5 4.5 4.5 0 0 0 4.5-4.5A4.5 4.5 0 0 0 17.5 7m0 1a3.5 3.5 0 0 1 3.5 3.5 3.5 3.5 0 0 1-3.5 3.5 3.5 3.5 0 0 1-3.5-3.5A3.5 3.5 0 0 1 17.5 8"/>
<path d="M4.5 15h13v1h-13z"/>
</g>
</svg>
