<?xml version='1.0' encoding='ASCII'?>
<svg xmlns="http://www.w3.org/2000/svg" xmlns:xlink="http://www.w3.org/1999/xlink" id="svg2" version="1.1" viewBox="0 0 22 22">
<defs><style id="current-color-scheme" type="text/css">.ColorScheme-Text{color:#fcfcfc; fill:currentColor;}</style></defs><path id="path6" d="m15.406 3-4 4-1.094 1.094L7 11.375v.031l-.687.688L3 15.375V17l2 2h1.625l3.969-4 1.125-1.125L15 10.594l.719-.719L19 6.594V5l-2-2z" class="ColorScheme-Text" style="fill-opacity:1;stroke:none;fill:currentColor" fill="currentColor"/>
<path id="path6-3" d="m15.406 3-4 4-1.094 1.094L7 11.375v.031l-.687.688L3 15.375V17l2 2h1.625l3.969-4 1.125-1.125L15 10.594l.719-.719L19 6.594V5l-2-2z" style="color:#fcfcfc;fill-opacity:1;stroke:none;fill:currentColor" class="ColorScheme-Text" fill="currentColor"/>
</svg>
