<?xml version='1.0' encoding='ASCII'?>
<svg xmlns="http://www.w3.org/2000/svg" width="16" height="16" viewBox="-3 -3 22 22">
<defs><style id="current-color-scheme" type="text/css">.ColorScheme-Text{color:#fcfcfc; fill:currentColor;}</style></defs><path d="M2 1C.892 1 0 1.892 0 3v8c0 1.108.892 2 2 2h1.522L6 16l2-3h6c1.108 0 2-.892 2-2V3c0-1.108-.892-2-2-2zm0 1h12c.554 0 1 .446 1 1v8c0 .554-.446 1-1 1H7.566L6 14.4 4.034 12H2c-.554 0-1-.446-1-1V3c0-.554.446-1 1-1" class="ColorScheme-Text" opacity=".35" style="fill:currentColor" fill="currentColor"/>
<rect width="22" height="1" x=".314" y="-.5" fill="currentColor" rx=".5" ry=".5" transform="rotate(45)" class="ColorScheme-Text" style="fill:currentColor"/>
</svg>
