<?xml version='1.0' encoding='ASCII'?>
<svg xmlns="http://www.w3.org/2000/svg" width="16" height="16" viewBox="-3 -3 22 22">
<defs><style id="current-color-scheme" type="text/css">.ColorScheme-Contrast{color:#dedede; fill:currentColor;}</style></defs><path d="m15 3.293-7.5 7.5-3.182-3.182a.499.499 0 1 0-.707.707l3.536 3.536a.5.5 0 0 0 .166.109q.03.012.064.02.026.007.05.011a.5.5 0 0 0 .143 0q.026-.004.053-.011.033-.008.065-.02a.5.5 0 0 0 .087-.045q.02-.014.04-.031l.039-.033L15 4.707z" class="ColorScheme-Contrast" style="fill:currentColor" fill="currentColor"/>
<path fill="currentColor" d="M3 0C1.338 0 0 1.338 0 3v10c0 1.662 1.338 3 3 3h10c1.662 0 3-1.338 3-3V3c0-1.662-1.338-3-3-3zm0 1h10c1.108 0 2 .892 2 2v10c0 1.108-.892 2-2 2H3c-1.108 0-2-.892-2-2V3c0-1.108.892-2 2-2" class="ColorScheme-Contrast" style="fill:currentColor"/>
</svg>
