<svg xmlns="http://www.w3.org/2000/svg" viewBox="0 0 22 22">
<defs>
<style id="current-color-scheme" type="text/css">
.ColorScheme-Text{color:#dedede}.ColorScheme-Highlight{color:#3daee9}
</style>
</defs>
<path fill="currentColor" d="M5 3C3.338 3 2 4.338 2 6v9c0 1.662 1.338 3 3 3h4v-1H5c-1.108 0-2-.892-2-2V8c0-1.108.892-2 2-2h11c1.108 0 2 .892 2 2v1h1V6c0-1.662-1.338-3-3-3z" class="ColorScheme-Text"/>
<path fill="currentColor" d="M13 10c-1.662 0-3 1.338-3 3v3c0 1.662 1.338 3 3 3h4c1.662 0 3-1.338 3-3v-3c0-1.662-1.338-3-3-3zm0 3h4c1.108 0 2 .892 2 2v1c0 1.108-.892 2-2 2h-4c-1.108 0-2-.892-2-2v-1c0-1.108.892-2 2-2" class="ColorScheme-Highlight"/>
</svg>
