<?xml version='1.0' encoding='ASCII'?>
<svg xmlns="http://www.w3.org/2000/svg" width="16" height="16" viewBox="-3 -3 22 22">
<defs><style id="current-color-scheme" type="text/css">.ColorScheme-Contrast{color:#dedede; fill:currentColor;}</style></defs><path d="M6 0v4H5v2H4v9H3V6H0v10h16v-1h-1v-4h-1V3l-3 3v5h-1v4H9V6H8V4H7V0zm0 5h1v1H6zm6.5 1a.499.499 0 1 1 0 1 .499.499 0 1 1 0-1M1 7h1v1H1zm4 0h3v1H5zm7.5 1a.499.499 0 1 1 0 1 .499.499 0 1 1 0-1M1 9h1v1H1zm4 0h3v1H5zm7.5 1.008a.499.499 0 1 1-.5.5c0-.278.223-.5.5-.5M1 11h1v1H1zm4 0h3v1H5zm6 1h3v1h-3zM1 13h1v1H1zm4 0h3v1H5zm6 1h3v1h-3z" class="ColorScheme-Contrast" style="fill:currentColor" fill="currentColor"/>
</svg>
