<?xml version='1.0' encoding='ASCII'?>
<svg xmlns="http://www.w3.org/2000/svg" viewBox="0 0 22 22">
<defs><style id="current-color-scheme" type="text/css">.ColorScheme-Contrast{color:#dedede; fill:currentColor;}</style></defs><g transform="translate(-378.857 -540.076)" class="ColorScheme-Contrast" fill="currentColor" style="fill:currentColor">
<g class="ColorScheme-Contrast" style="fill-opacity:1;stroke:none;fill:currentColor" fill="currentColor">
<path d="M386.857 543.076c-.973 3.405-3.354 6.333-4.404 8.676a4.96 4.96 0 0 0-.596 2.324c0 2.77 2.23 5 5 5s5-2.23 5-5c0-.845-.228-1.627-.596-2.324-1.05-2.343-3.431-5.27-4.404-8.676m2.283 7.717a3.98 3.98 0 0 1 1.717 3.283c0 2.216-1.784 4-4 4a3.98 3.98 0 0 1-3.283-1.716c.647.45 1.432.716 2.283.716 2.216 0 4-1.784 4-4 0-.85-.267-1.636-.717-2.283" class="ColorScheme-Contrast" fill="currentColor" style="fill:currentColor"/>
<rect width="7" height="7" x="390.857" y="543.076" rx="3.5" class="ColorScheme-Contrast" fill="currentColor" style="fill:currentColor"/>
</g>
<rect width="5" height="5" x="391.857" y="544.076" rx="2.5" style="fill:currentColor" class="ColorScheme-Contrast" fill="currentColor"/>
</g>
</svg>
