<svg xmlns="http://www.w3.org/2000/svg" viewBox="0 0 22 22">
<defs>
<style id="current-color-scheme" type="text/css">
.ColorScheme-Text{color:#dedede}
</style>
</defs>
<path d="M11 4v8.992L13.994 10l.006.008.008-.008L17 12.992l-.707.707L14 11.406l-2.645 2.645-.355.355V18h7V4zm-1.707 8L5 16.293l.707.707 3.592-3.592.642.643.707.707.352-.352v-1.414l-.352.352L9.307 12l-.006.008zM7.5 6C8.331 6 9 6.669 9 7.5S8.331 9 7.5 9 6 8.331 6 7.5 6.669 6 7.5 6m0-1A2.495 2.495 0 0 0 5 7.5C5 8.885 6.115 10 7.5 10S10 8.885 10 7.5 8.885 5 7.5 5M4 4h14v14H4zM3 3v16h16V3z" class="ColorScheme-Text" style="fill:currentColor;fill-opacity:1;stroke:none"/>
</svg>
