<svg xmlns="http://www.w3.org/2000/svg" xmlns:xlink="http://www.w3.org/1999/xlink" viewBox="0 0 22 22">
<defs>
<linearGradient id="3" x1="424.57" x2="408.57" y1="523.8" y2="539.8" gradientUnits="userSpaceOnUse">
<stop stop-color="#c1cc00"/>
<stop offset=".312" stop-color="#dfcd00"/>
<stop offset=".562" stop-color="#f0cc00"/>
<stop offset=".75" stop-color="#fd8c08"/>
<stop offset="1" stop-color="#f25c13"/>
</linearGradient>
<linearGradient id="0" x1="8" x2="24" y1="24" y2="8" gradientUnits="userSpaceOnUse">
<stop stop-color="#e81877"/>
<stop offset=".312" stop-color="#dd1d8c"/>
<stop offset=".562" stop-color="#6d57b1"/>
<stop offset=".75" stop-color="#2a78c1"/>
<stop offset="1" stop-color="#018dcb"/>
</linearGradient>
<linearGradient id="2" x1="424.57" x2="408.57" y1="523.8" y2="507.8" gradientUnits="userSpaceOnUse">
<stop stop-color="#bec900"/>
<stop offset=".312" stop-color="#9ec80a"/>
<stop offset=".562" stop-color="#71b93d"/>
<stop offset=".75" stop-color="#35a48f"/>
<stop offset="1" stop-color="#018fca"/>
</linearGradient>
<linearGradient id="1" x1="392.57" x2="408.57" y1="523.8" y2="539.8" gradientUnits="userSpaceOnUse">
<stop stop-color="#e51561"/>
<stop offset=".312" stop-color="#e4156c"/>
<stop offset=".562" stop-color="#e71e2c"/>
<stop offset=".75" stop-color="#e8301e"/>
<stop offset="1" stop-color="#e6320e"/>
</linearGradient>
<path id="H" fill="url(#0)" d="M24 8C15.136 8 8 15.136 8 24h16z"/>
<path id="I" fill="url(#3)" d="M408.571 539.798c8.864 0 16-7.136 16-16h-16z"/>
<path id="J" fill="url(#1)" d="M408.571 539.798c-8.864 0-16-7.136-16-16h16z"/>
<style id="current-color-scheme" type="text/css">
.ColorScheme-Contrast{color:#dedede}
</style>
</defs>
<g transform="matrix(1.09334 0 0 1.09335 -1.027 -1128.57)">
<g transform="rotate(15 -3071.937 46.542)scale(.4)">
<use xlink:href="#H" clip-path="url(#5)" transform="translate(384.57 499.8)"/>
<use xlink:href="#J" clip-path="url(#6)"/>
<path fill="url(#2)" d="M408.571 507.798c8.864 0 16 7.136 16 16h-16z" clip-path="url(#7)"/>
<use xlink:href="#I" clip-path="url(#8)"/>
</g>
<g opacity=".7" transform="matrix(.4 0 0 .4 -152.43 831.84)">
<use xlink:href="#H" clip-path="url(#9)" filter="url(#4)" transform="translate(384.57 499.8)"/>
<use xlink:href="#J" clip-path="url(#A)" filter="url(#4)"/>
<use xlink:href="#I" clip-path="url(#B)" filter="url(#4)"/>
<path fill="url(#2)" d="M408.571 507.798c8.864 0 16 7.136 16 16h-16z" clip-path="url(#C)" filter="url(#4)"/>
</g>
<use xlink:href="#H" clip-path="url(#9)" opacity=".35" transform="rotate(45 -1235.164 527.178)scale(.4)"/>
<path fill="url(#1)" d="M408.571 539.798c-8.864 0-16-7.136-16-16h16z" clip-path="url(#A)" opacity=".35" transform="rotate(45 -916.92 441.448)scale(.4)"/>
<use xlink:href="#I" clip-path="url(#B)" opacity=".35" transform="rotate(45 -916.92 441.448)scale(.4)"/>
<path fill="url(#2)" d="M408.571 507.798c8.864 0 16 7.136 16 16h-16z" clip-path="url(#C)" opacity=".35" transform="rotate(45 -916.92 441.448)scale(.4)"/>
<g transform="rotate(75 -454.826 526.113)scale(.4)">
<use xlink:href="#H" clip-path="url(#D)" opacity=".3" transform="translate(384.57 499.8)"/>
<use xlink:href="#J" clip-path="url(#E)" opacity=".3"/>
<use xlink:href="#I" clip-path="url(#F)" opacity=".3"/>
<path fill="url(#2)" d="M408.571 507.798c8.864 0 16 7.136 16 16h-16z" clip-path="url(#G)" opacity=".3"/>
</g>
</g>
<path d="m1 15.708 3.5 3.5 3.5-3.5L7.293 15 5 17.294V10a6 6 0 0 1 12 0h1a7 7 0 1 0-14 0v7.294L1.707 15z" class="ColorScheme-Contrast" style="fill:currentColor;fill-opacity:1;stroke:none"/>
</svg>
