<svg xmlns="http://www.w3.org/2000/svg" viewBox="0 0 22 22">
<defs>
<style id="current-color-scheme" type="text/css">
.ColorScheme-Text{color:#dedede}
</style>
</defs>
<path fill="currentColor" d="m12.846 2.177-.263.981a8 8 0 0 0-3.167.001l-.262-.982-.967.258.262.983A8 8 0 0 0 5.71 5l-.72-.718-.708.708.72.719A8 8 0 0 0 3.417 8.45l-.981-.263-.26.966.982.263a8 8 0 0 0 0 3.166l-.982.263.259.967.982-.263A8 8 0 0 0 5 16.292l-.719.719.709.707.718-.719a8 8 0 0 0 2.742 1.584l-.263.981.966.259.263-.981a8 8 0 0 0 3.167 0l.262.981.967-.258-.262-.982A8 8 0 0 0 16.29 17l.72.718.707-.708-.72-.718a8 8 0 0 0 1.585-2.742l.98.262.26-.966-.982-.262a8 8 0 0 0 0-3.167l.982-.263-.259-.967-.982.263A8 8 0 0 0 17 5.709l.719-.72-.708-.707-.719.72a8 8 0 0 0-2.742-1.585l.263-.98zm-.125 2.037.09.025a7 7 0 0 1 4.804 4.471l-4.875 1.304a2 2 0 0 0-1.223-.946l-.047-.012a2 2 0 0 0-1.487.22L6.418 5.71a7 7 0 0 1 6.303-1.496M5.708 6.418l3.57 3.567a2 2 0 0 0-.21.497 2 2 0 0 0 .948 2.258l-1.307 4.875a7 7 0 0 1-4.47-8.427 7 7 0 0 1 1.47-2.77m12.165 3.26a7 7 0 0 1-.087 3.043l-.025.09a7 7 0 0 1-4.96 4.954l-.009.002a7 7 0 0 1-3.116.105L10.982 13a2 2 0 0 0 1.95-1.481 2 2 0 0 0 .066-.536zm-6.614.356a1 1 0 0 1 .696.67l.022.083a1 1 0 0 1-.011.472 1 1 0 0 1-1.225.707 1 1 0 0 1-.707-1.225 1 1 0 0 1 .24-.429l.025-.023a1 1 0 0 1 .96-.255" class="ColorScheme-Text"/>
</svg>
