<?xml version='1.0' encoding='ASCII'?>
<svg xmlns="http://www.w3.org/2000/svg" width="16" height="16" viewBox="-3 -3 22 22">
<defs><style id="current-color-scheme" type="text/css">.ColorScheme-Text{color:#fcfcfc; fill:currentColor;}</style></defs><path d="M10 2v1h1V2zm2 0v1h1V2zm2 0v1h1V2zM8 4v1h1V4zm6 0v1h1V4zM8 6v1h1V6zm6 0v1h1V6zM4 8v1h1V8zm2 0v1h1V8zm2 0v1h1V8zm2 0v1h1V8zm2 0v1h1V8zm2 0v1h1V8zM2 10v1h1v-1zm6 0v1h1v-1zm6 0v1h1v-1zM2 12v1h1v-1zm6 0v1h1v-1zm6 0v1h1v-1zM2 14v1h1v-1zm2 0v1h1v-1zm2 0v1h1v-1zm2 0v1h1v-1zm2 0v1h1v-1zm2 0v1h1v-1zm2 0v1h1v-1z" class="ColorScheme-Text" style="stroke-width:2;stroke-linecap:round;stroke-linejoin:round;paint-order:stroke fill markers;stop-opacity:.35;fill:currentColor" fill="currentColor"/>
<path d="M1 1v3h3V1zm1 1h1v1H2zm5-1v3h3V1Zm1 1h1v1H8ZM1 7v3h3V7Zm1 1h1v1H2Zm0-4h1v3H2zm2-2h3v1H4z" style="stroke-width:2;stroke-linecap:round;stroke-linejoin:round;paint-order:stroke fill markers;stop-fill:currentColor" class="ColorScheme-Text" fill="currentColor"/>
</svg>
