<svg xmlns="http://www.w3.org/2000/svg" viewBox="0 0 22 22">
<defs id="defs3051">
<style id="current-color-scheme" type="text/css">
.ColorScheme-Text{color:#dedede}
</style>
</defs>
<path d="M11.5 4v1.813h1V4zM6.688 5.969l-.72.718L7.25 8l.719-.75zm10.625 0-1.28 1.281.718.75 1.281-1.312zM12 7a5 5 0 1 0 0 10 5 5 0 0 0 0-10m0 1v8a4 4 0 0 1 0-8m-8 3.5v1h1.813v-1zm14.188 0v1H20v-1zM7.25 16.031l-1.281 1.282.718.718L7.97 16.75zm9.5 0-.719.719 1.282 1.281.718-.718zm-5.25 2.157V20h1v-1.812z" class="ColorScheme-Text" style="fill:currentColor;fill-opacity:1;stroke:none" transform="translate(-1 -1)"/>
</svg>
