<svg xmlns="http://www.w3.org/2000/svg" viewBox="0 0 22 22">
<defs id="defs3051">
<style id="current-color-scheme" type="text/css">
.ColorScheme-Contrast{color:#dedede}
</style>
</defs>
<path d="m394.857 547.076 3-2-3-2z" style="fill:#f60;fill-rule:evenodd" transform="translate(-378.857 -540.076)"/>
<path d="M381.857 543.076v16h16v-10h-1v9h-14v-11h9v-4zm6.428 6c-1.066 0-1.514.353-1.514 1.254v1.223c0 .557-.02 1.201-.61 1.201h-.304v.645h.305c.589 0 .61.644.61 1.2v1.224c0 .901.447 1.253 1.513 1.253v-.591c-.71 0-.72-.24-.72-1.106v-1.008c0-.415-.124-1.034-.723-1.29.599-.257.722-.874.722-1.29v-1.017c0-.867.001-1.106.72-1.106zm3.137 0v.592c.71 0 .728.24.728 1.106v1.017c0 .416.124 1.033.723 1.29-.6.256-.723.875-.723 1.29v1.008c0 .867-.018 1.106-.728 1.106v.591c1.066 0 1.521-.352 1.521-1.253V554.6c0-.557.04-1.201.62-1.201h.294v-.645h-.295c-.579 0-.619-.644-.619-1.201v-1.223c0-.901-.455-1.254-1.521-1.254" class="ColorScheme-Contrast" style="fill:currentColor;fill-opacity:1;stroke:none" transform="translate(-378.857 -540.076)"/>
</svg>
