<svg xmlns="http://www.w3.org/2000/svg" viewBox="0 0 22 22">
<defs id="defs3051">
<style id="current-color-scheme" type="text/css">
.ColorScheme-Text{color:#dedede}
</style>
</defs>
<path d="M12 4a7.95 7.95 0 0 0-5.281 2c-.126.111-.256.225-.375.344L6 6.719A7.95 7.95 0 0 0 4 12a8 8 0 0 0 8 8 7.95 7.95 0 0 0 5.281-2l.375-.344c.12-.119.233-.249.344-.375A7.95 7.95 0 0 0 20 12a8 8 0 0 0-8-8m0 1a7 7 0 0 1 7 7 6.92 6.92 0 0 1-1.719 4.563L7.438 6.719A6.92 6.92 0 0 1 12 5M6.719 7.438l9.843 9.843A6.92 6.92 0 0 1 12 19a7 7 0 0 1-7-7c0-1.754.653-3.334 1.719-4.562" class="ColorScheme-Text" style="fill:currentColor;fill-opacity:1;stroke:none" transform="translate(-1 -1)"/>
</svg>
