<?xml version='1.0' encoding='ASCII'?>
<svg xmlns="http://www.w3.org/2000/svg" width="16" height="16" viewBox="-3 -3 22 22">
<defs><style id="current-color-scheme" type="text/css">.ColorScheme-Text{color:#fcfcfc; fill:currentColor;}</style></defs><path d="M50.755 672.362q-.6 0-1.058.117-.45.118-.76.332a1.45 1.45 0 0 0-.459.51 1.4 1.4 0 0 0-.146.648q0 .265.059.52.06.255.125.505.067.25.126.5.06.249.06.504a.65.65 0 0 1-.26.53q-.258.205-.746.205v.545q.489 0 .746.21a.64.64 0 0 1 .26.524q0 .256-.06.506t-.126.505a16 16 0 0 0-.125.505 2.2 2.2 0 0 0-.06.515q0 .352.147.648.156.295.459.51.31.214.76.331a4 4 0 0 0 1.058.122h.4v-.407q0-.102-.105-.148a.5.5 0 0 0-.191-.046h-.149q-.576 0-.9-.255a.84.84 0 0 1-.325-.7q0-.286.05-.55a8 8 0 0 1 .12-.515q.065-.255.117-.505t.053-.505a.8.8 0 0 0-.083-.352.9.9 0 0 0-.236-.3 1.3 1.3 0 0 0-.355-.225 2 2 0 0 0-.444-.138 2 2 0 0 0 .444-.138q.208-.096.355-.228a.9.9 0 0 0 .236-.297.8.8 0 0 0 .083-.357q-.001-.255-.053-.505a9 9 0 0 0-.117-.5 9 9 0 0 1-.12-.52 3 3 0 0 1-.05-.55q0-.439.325-.695.324-.26.9-.26h.149a.5.5 0 0 0 .191-.045q.104-.046.104-.148v-.403zm4.044 0v.403q0 .103.102.148a.5.5 0 0 0 .193.046h.146q.578 0 .903.26.325.255.325.694-.001.285-.053.55a8 8 0 0 1-.117.52 9 9 0 0 0-.119.5 2.5 2.5 0 0 0-.05.505.8.8 0 0 0 .08.357q.08.164.23.297.154.132.354.228.207.092.45.138a2 2 0 0 0-.45.138 1.5 1.5 0 0 0-.355.224 1 1 0 0 0-.229.3.8.8 0 0 0-.08.353q0 .255.05.505.052.25.12.505.066.25.116.514.052.266.053.552a.84.84 0 0 1-.325.699q-.325.255-.903.255h-.146a.5.5 0 0 0-.193.046q-.103.045-.102.148v.407h.397q.599 0 1.05-.122.458-.117.762-.33a1.37 1.37 0 0 0 .612-1.158q0-.267-.058-.516-.06-.255-.125-.505-.068-.255-.128-.505a2.2 2.2 0 0 1-.057-.506q-.001-.32.257-.524.259-.21.747-.21v-.545q-.488 0-.747-.204a.64.64 0 0 1-.257-.531q0-.255.057-.504.06-.25.128-.5.066-.25.125-.505t.057-.52a1.37 1.37 0 0 0-.611-1.158 2.3 2.3 0 0 0-.763-.332 4.2 4.2 0 0 0-1.05-.117z" class="ColorScheme-Text" style="fill-opacity:1;fill:currentColor" transform="translate(-44.976 -667.362)" fill="currentColor"/>
<path d="M46.976 669.362h12v1h-12z" style="fill-opacity:1;stroke-width:.7071;fill:currentColor" transform="translate(-44.976 -667.362)" class="ColorScheme-Text" fill="currentColor"/>
<path d="M46.976 667.362c-1.108 0-2 .892-2 2v12c0 1.108.892 2 2 2h12c1.108 0 2-.892 2-2v-12c0-1.108-.892-2-2-2zm0 1h12c.554 0 1 .446 1 1v12c0 .554-.446 1-1 1h-12c-.554 0-1-.446-1-1v-12c0-.554.446-1 1-1" style="stroke-width:0;stroke-linecap:round;stroke-linejoin:round;paint-order:stroke fill markers;stop-fill:currentColor" transform="translate(-44.976 -667.362)" class="ColorScheme-Text" fill="currentColor"/>
</svg>
