<?xml version='1.0' encoding='ASCII'?>
<svg xmlns="http://www.w3.org/2000/svg" width="16" height="16" viewBox="-3 -3 22 22">
<defs><style id="current-color-scheme" type="text/css">.ColorScheme-Contrast{color:#dedede; fill:currentColor;}</style></defs><path d="M3.5 6A3.5 3.5 0 0 0 0 9.5v3c0 4.667 7 4.667 7 0v-3A3.5 3.5 0 0 0 3.5 6m0 1A2.5 2.5 0 0 1 6 9.5v3c0 3.333-5 3.333-5 0v-3A2.5 2.5 0 0 1 3.5 7M3 8v2h1V8Z" class="ColorScheme-Contrast" style="fill:currentColor" fill="currentColor"/>
<path d="M2 0C.892 0 0 .892 0 2v3h15v7c0 .554-.446 1-1 1h-1V8h-1v5H8v1h4v1h1v-1h1c1.108 0 2-.892 2-2V2c0-1.108-.892-2-2-2zm0 1h12c.554 0 1 .446 1 1v2H1V2c0-.554.446-1 1-1m0 1v1h2V2zm10 0v1h2V2z" style="fill-opacity:1;fill:currentColor" class="ColorScheme-Contrast" fill="currentColor"/>
</svg>
