<?xml version='1.0' encoding='ASCII'?>
<svg xmlns="http://www.w3.org/2000/svg" width="16" height="16" viewBox="-3 -3 22 22">
<defs><style id="current-color-scheme" type="text/css">.ColorScheme-Text{color:#fcfcfc; fill:currentColor;}</style></defs><path d="M5.5 1c-.277 0-.5.446-.5 1s.223 1 .5 1 .5-.446.5-1-.223-1-.5-1m2 0c-.277 0-.5.446-.5 1s.223 1 .5 1 .5-.446.5-1-.223-1-.5-1m2 0c-.277 0-.5.446-.5 1s.223 1 .5 1 .5-.446.5-1-.223-1-.5-1m2 0c-.277 0-.5.446-.5 1s.223 1 .5 1 .5-.446.5-1-.223-1-.5-1M4 4v9h9V4zM1.95 5c-.53.013-.95.232-.95.5 0 .277.446.5 1 .5s1-.223 1-.5S2.554 5 2 5zM5 5h7v7H5zm9.95 0c-.53.013-.95.232-.95.5 0 .277.446.5 1 .5s1-.223 1-.5-.446-.5-1-.5zm-13 2c-.53.013-.95.232-.95.5 0 .277.446.5 1 .5s1-.223 1-.5S2.554 7 2 7zm13 0c-.53.013-.95.232-.95.5 0 .277.446.5 1 .5s1-.223 1-.5-.446-.5-1-.5zm-13 2c-.53.013-.95.232-.95.5 0 .277.446.5 1 .5s1-.223 1-.5S2.554 9 2 9zm13 0c-.53.013-.95.232-.95.5 0 .277.446.5 1 .5s1-.223 1-.5-.446-.5-1-.5zm-13 2c-.53.013-.95.232-.95.5 0 .277.446.5 1 .5s1-.223 1-.5-.446-.5-1-.5zm13 0c-.53.013-.95.232-.95.5 0 .277.446.5 1 .5s1-.223 1-.5-.446-.5-1-.5zM5.5 14c-.277 0-.5.446-.5 1s.223 1 .5 1 .5-.446.5-1-.223-1-.5-1m2 0c-.277 0-.5.446-.5 1s.223 1 .5 1 .5-.446.5-1-.223-1-.5-1m2 0c-.277 0-.5.446-.5 1s.223 1 .5 1 .5-.446.5-1-.223-1-.5-1m2 0c-.277 0-.5.446-.5 1s.223 1 .5 1 .5-.446.5-1-.223-1-.5-1" class="ColorScheme-Text" style="fill-opacity:1;fill:currentColor" fill="currentColor"/>
</svg>
