<?xml version='1.0' encoding='ASCII'?>
<svg xmlns="http://www.w3.org/2000/svg" width="16" height="16" viewBox="-3 -3 22 22">
<defs><style id="current-color-scheme" type="text/css">.ColorScheme-Text{color:#fcfcfc; fill:currentColor;}</style></defs><path d="M3 6v7h4v-1H4V7h3V6H4Zm10 0v7H9v-1h3V7H9V6h3z" class="ColorScheme-Text" style="fill-opacity:1;fill:currentColor" fill="currentColor"/>
<path d="M2 2h12v1H2Z" style="fill-opacity:1;stroke-width:.7071;fill:currentColor" class="ColorScheme-Text" fill="currentColor"/>
<path d="M2 0C.892 0 0 .892 0 2v12c0 1.108.892 2 2 2h12c1.108 0 2-.892 2-2V2c0-1.108-.892-2-2-2Zm0 1h12c.554 0 1 .446 1 1v12c0 .554-.446 1-1 1H2c-.554 0-1-.446-1-1V2c0-.554.446-1 1-1" style="stroke-width:0;stroke-linecap:round;stroke-linejoin:round;paint-order:stroke fill markers;stop-fill:currentColor" class="ColorScheme-Text" fill="currentColor"/>
</svg>
