<?xml version='1.0' encoding='ASCII'?>
<svg xmlns="http://www.w3.org/2000/svg" width="16" height="16" viewBox="-3 -3 22 22">
<defs><style id="current-color-scheme" type="text/css">.ColorScheme-Contrast{color:#dedede; fill:currentColor;}</style></defs><path d="M1 15.127c2.721.001 2.443-2.964 3.765-3.789 1.53-.957 2.872.229 3.14 1.204.338 1.231-.295 2.237-1.137 2.782-1.615 1.044-5.51.801-5.768-.197M15.416 1.335c.309-.666-.163-.921-.732-.357-3.999 3.969-4.684 4-8.424 9.15 1.004.038 1.865.686 2.313 1.623C13 6.978 13.499 4.417 15.416 1.335M0 0h12v1H0Z" class="ColorScheme-Contrast" style="stroke-width:0;stroke:none;fill-opacity:1;fill:currentColor" fill="currentColor"/>
<path d="M0 0h1v13H0Z" style="stroke-width:0;stroke:none;fill-opacity:1;fill:currentColor" class="ColorScheme-Contrast" fill="currentColor"/>
</svg>
