<?xml version='1.0' encoding='ASCII'?>
<svg xmlns="http://www.w3.org/2000/svg" width="16" height="16" viewBox="-3 -3 22 22">
<defs><style id="current-color-scheme" type="text/css">.ColorScheme-Contrast{color:#dedede; fill:currentColor;}</style></defs><g fill="currentColor" class="ColorScheme-Contrast" style="fill:currentColor">
<style id="current-color-scheme" type="text/css" class="ColorScheme-Contrast" fill="currentColor" style="fill:currentColor">
.ColorScheme-Contrast{color:#dedede}
</style>
<path d="M4.8 4v1l2.1 2.309L7.2 10h1.6l.3-2.691 2.035-2.239a3.5 3.5 0 0 1-.79-1.07zm1.352 1h3.696L8.359 6.637a1 1 0 0 0-.254.56L8 8.152l-.105-.955a1 1 0 0 0-.254-.56z" class="ColorScheme-Contrast" opacity=".5" style="fill:currentColor" fill="currentColor"/>
<path d="M2.488 2c-.822 0-1.5.678-1.5 1.5v7c0 .822.678 1.5 1.5 1.5h3.5v1h-2v1h8v-1h-2v-1h3.5c.823 0 1.5-.678 1.5-1.5v-7c0-.822-.677-1.5-1.5-1.5zm0 1h11c.286 0 .5.214.5.5v7c0 .286-.214.5-.5.5h-11a.49.49 0 0 1-.5-.5v-7c0-.286.215-.5.5-.5M7 12h2v1H7z" class="ColorScheme-Contrast" fill="currentColor" style="fill:currentColor"/>
</g>
</svg>
