<svg xmlns="http://www.w3.org/2000/svg" width="16" height="16" viewBox="-3 -3 22 22">
<g fill="currentColor">
<circle cx="8" cy="7" r="2.5" opacity=".35"/>
<style id="current-color-scheme" type="text/css">
.ColorScheme-Contrast{color:#dedede}
</style>
<path d="M7.988 4c-1.65 0-3 1.35-3 3s1.35 3 3 3c1.651 0 3-1.35 3-3s-1.349-3-3-3m0 1c1.11 0 2 .89 2 2s-.89 2-2 2-2-.89-2-2 .89-2 2-2" class="ColorScheme-Contrast" style="fill:currentColor"/>
<path d="M2.5 2C1.678 2 1 2.678 1 3.5v7c0 .822.678 1.5 1.5 1.5H6v1H4v1h8v-1h-2v-1h3.5c.822 0 1.5-.678 1.5-1.5V5.658a3.5 3.5 0 0 1-1 .307V10.5c0 .286-.214.5-.5.5h-11a.49.49 0 0 1-.5-.5v-7c0-.286.214-.5.5-.5H10a3 3 0 0 1 .02-.21A4 4 0 0 1 10 2.5a3.5 3.5 0 0 1 .035-.5zM7 12h2v1H7z"/>
<path d="M13.5 0A2.5 2.5 0 0 0 11 2.5 2.5 2.5 0 0 0 13.5 5 2.5 2.5 0 0 0 16 2.5 2.5 2.5 0 0 0 13.5 0m0 1A1.5 1.5 0 0 1 15 2.5 1.5 1.5 0 0 1 13.5 4 1.5 1.5 0 0 1 12 2.5 1.5 1.5 0 0 1 13.5 1" opacity=".5"/>
</g>
</svg>
