<?xml version='1.0' encoding='ASCII'?>
<svg xmlns="http://www.w3.org/2000/svg" width="16" height="16" viewBox="-3 -3 22 22">
<defs><style id="current-color-scheme" type="text/css">.ColorScheme-Contrast{color:#dedede; fill:currentColor;}</style></defs><path d="M2.488 2c-.822 0-1.5.678-1.5 1.5v7c0 .822.678 1.5 1.5 1.5h3.5v1h-2v1h8v-1h-2v-1h3.5c.823 0 1.5-.678 1.5-1.5v-7c0-.822-.677-1.5-1.5-1.5zm0 1h11c.286 0 .5.214.5.5v7c0 .286-.214.5-.5.5h-11a.49.49 0 0 1-.5-.5v-7c0-.286.215-.5.5-.5m5.5 1c-1.65 0-3 1.35-3 3s1.35 3 3 3 3-1.35 3-3-1.349-3-3-3m0 1c1.11 0 2 .89 2 2s-.89 2-2 2-2-.89-2-2 .89-2 2-2M7 12h2v1H7z" class="ColorScheme-Contrast" style="fill:currentColor" fill="currentColor"/>
</svg>
