<svg xmlns="http://www.w3.org/2000/svg" viewBox="0 0 22 22">
<defs id="defs3051">
<style id="current-color-scheme" type="text/css">
.ColorScheme-Text{color:#dedede}.ColorScheme-Highlight{color:#3daee9}
</style>
</defs>
<path d="m7.688 4.611-5 4 .624.78 5-4zm1.697.07-.77.64 5 6 .77-.64zm9.199.042-4 6 .832.554 4-6zM2 9.998v7h1v-7zm1 7v1h6v-1zm10.61-5.309-4 5 .78.624 4-5zm1.78 0-.78.624 4 5 .78-.624z" class="ColorScheme-Text" style="fill:currentColor;fill-opacity:1;stroke:none"/>
<path id="path10" d="M8.5 3A1.5 1.5 0 0 0 7 4.5 1.5 1.5 0 0 0 8.5 6 1.5 1.5 0 0 0 10 4.5 1.5 1.5 0 0 0 8.5 3m11 0A1.5 1.5 0 0 0 18 4.5 1.5 1.5 0 0 0 19.5 6 1.5 1.5 0 0 0 21 4.5 1.5 1.5 0 0 0 19.5 3m-17 5A1.5 1.5 0 0 0 1 9.5 1.5 1.5 0 0 0 2.5 11 1.5 1.5 0 0 0 4 9.5 1.5 1.5 0 0 0 2.5 8m12 2a1.5 1.5 0 0 0-1.5 1.5 1.5 1.5 0 0 0 1.5 1.5 1.5 1.5 0 0 0 1.5-1.5 1.5 1.5 0 0 0-1.5-1.5m-12 6A1.5 1.5 0 0 0 1 17.5 1.5 1.5 0 0 0 2.5 19 1.5 1.5 0 0 0 4 17.5 1.5 1.5 0 0 0 2.5 16m7 0A1.5 1.5 0 0 0 8 17.5 1.5 1.5 0 0 0 9.5 19a1.5 1.5 0 0 0 1.5-1.5A1.5 1.5 0 0 0 9.5 16m10 0a1.5 1.5 0 0 0-1.5 1.5 1.5 1.5 0 0 0 1.5 1.5 1.5 1.5 0 0 0 1.5-1.5 1.5 1.5 0 0 0-1.5-1.5" class="ColorScheme-Highlight" style="fill:currentColor;fill-opacity:1;stroke:none"/>
</svg>
