<?xml version='1.0' encoding='ASCII'?>
<svg xmlns="http://www.w3.org/2000/svg" viewBox="0 0 22 22">
<defs><style id="current-color-scheme" type="text/css">.ColorScheme-Contrast{color:#dedede; fill:currentColor;}</style></defs><path fill="currentColor" d="M12 16.5a3.5 3.5 0 0 1 3.5-3.5 3.5 3.5 0 0 1 3.5 3.5 3.5 3.5 0 0 1-3.5 3.5 3.5 3.5 0 0 1-3.5-3.5m1.086 0 2.5 2.5.707-.707L15 17h3v-1h-3l1.293-1.293-.707-.707z" class="ColorScheme-Contrast" style="fill:currentColor"/>
<path fill="currentColor" d="M7 3C5.338 3 4 4.338 4 6v10c0 1.662 1.338 3 3 3h4v-1H7c-1.108 0-2-.892-2-2V6c0-1.108.892-2 2-2h5v5h5v3h1V8l-5-5h-1zm6 1.414L16.586 8H13z" class="ColorScheme-Contrast" style="fill:currentColor"/>
</svg>
