<?xml version='1.0' encoding='ASCII'?>
<svg xmlns="http://www.w3.org/2000/svg" width="16" height="16" viewBox="-3 -3 22 22">
<defs><style id="current-color-scheme" type="text/css">.ColorScheme-Text{color:#fcfcfc; fill:currentColor;}</style></defs><g fill="currentColor" class="ColorScheme-Text" style="fill:currentColor">
<path d="M3 14h10v-1H3zM3 2h10V1H3z" class="ColorScheme-Text" fill="currentColor" style="fill:currentColor"/>
<path d="M3 1.5c0 2.55.378 3.922 1.037 4.8.489.652 1.071.89 1.623 1.2-.552.31-1.134.549-1.623 1.2C3.378 9.58 3 10.95 3 13.5h1c0-2.45.371-3.578.838-4.2s1.125-.842 1.94-1.385a.5.5 0 0 0 0-.832c-.815-.542-1.474-.76-1.94-1.382C4.37 5.079 4 3.949 4 1.499H3zm9 0c0 2.45-.372 3.579-.838 4.2-.467.623-1.126.84-1.94 1.383a.5.5 0 0 0 0 .832c.814.543 1.473.763 1.94 1.385S12 11.05 12 13.5h1c0-2.55-.379-3.921-1.037-4.8-.49-.651-1.071-.89-1.623-1.2.552-.31 1.134-.548 1.623-1.2C12.62 5.422 13 4.05 13 1.5z" font-family="sans-serif" font-weight="400" overflow="visible" style="line-height:normal;text-indent:0;text-align:start;text-decoration-line:none;text-decoration-style:solid;text-decoration-text-transform:none;block-progression:tb;white-space:normal;isolation:auto;mix-blend-mode:normal;solid-solid-opacity:1;fill:currentColor" class="ColorScheme-Text" fill="currentColor"/>
<path d="M5.625 5c.012.028.019.077.031.094.27.36.781.551 1.688 1.156v.031h.03c.416.298.605.727.626 1.156.02-.429.21-.858.625-1.156h.031V6.25c.907-.604 1.417-.795 1.688-1.156.012-.017.019-.066.03-.094zm-.375 7h5.5c0-1-2.5-1.25-2.75-1.694C7.75 10.75 5.25 11 5.25 12" class="ColorScheme-Text" fill="currentColor" style="fill:currentColor"/>
</g>
</svg>
