<?xml version='1.0' encoding='ASCII'?>
<svg xmlns="http://www.w3.org/2000/svg" width="16" height="16" viewBox="-3 -3 22 22">
<defs><style id="current-color-scheme" type="text/css">.ColorScheme-Text{color:#fcfcfc; fill:currentColor;}</style></defs><path fill="currentColor" d="M12 9v.563a3.1 3.1 0 0 0-1.25.5l-.156-.188a.46.46 0 0 0-.344-.125h-.5v.5c0 .128.058.277.156.375l.157.125c-.26.362-.424.79-.5 1.25H9v1h.563c.076.46.24.888.5 1.25l-.157.125a.56.56 0 0 0-.156.375v.5h.5c.128 0 .277-.027.375-.125l.156-.188c.359.253.766.425 1.219.5V16h1v-.563c.453-.075.86-.247 1.219-.5l.156.188c.098.098.25.098.375.125h.5v-.5a.56.56 0 0 0-.156-.375l-.156-.125c.258-.362.423-.79.5-1.25H16v-1h-.562a3 3 0 0 0-.5-1.25l.156-.125c.098-.098.14-.248.156-.375v-.5h-.5c-.128 0-.277.027-.375.125l-.156.188a2.9 2.9 0 0 0-1.219-.5V9zm.5 1.5a2 2 0 1 1 0 4 2 2 0 0 1 0-4" overflow="visible" class="ColorScheme-Text" style="fill:currentColor"/>
<path fill="currentColor" d="M4 1c-1.108 0-2 .892-2 2v10c0 1.108.892 2 2 2h4v-1H4c-.554 0-1-.446-1-1V3c0-.554.446-1 1-1h8c.554 0 1 .446 1 1v5h1V3c0-1.108-.892-2-2-2z" class="ColorScheme-Text" style="fill:currentColor"/>
</svg>
