<?xml version='1.0' encoding='ASCII'?>
<svg xmlns="http://www.w3.org/2000/svg" viewBox="0 0 22 22">
<defs><style id="current-color-scheme" type="text/css">.ColorScheme-Text{color:#fcfcfc; fill:currentColor;}</style></defs><path fill="currentColor" d="M4 3c-1.108 0-2 .892-2 2v11c0 1.108.892 2 2 2h14c1.108 0 2-.892 2-2V6c0-1.108-.892-2-2-2H8.371c-.58-.023-.605.077-1.039-.357S6.719 3 6 3zm0 1h2c.311 0 .52 0 .998.47.479.472.639.53 1 .53H18c.554 0 1 .446 1 1v1H3V5c0-.554.446-1 1-1M3 8h16v8c0 .554-.446 1-1 1H4c-.554 0-1-.446-1-1z" class="ColorScheme-Text" style="fill:currentColor"/>
</svg>
