<?xml version='1.0' encoding='ASCII'?>
<svg xmlns="http://www.w3.org/2000/svg" viewBox="0 0 22 22">
<defs><style id="current-color-scheme" type="text/css">.ColorScheme-Text{color:#fcfcfc; fill:currentColor;}</style></defs><path fill="currentColor" d="M16.5 13a3.5 3.5 0 1 0 0 7 3.5 3.5 0 0 0 0-7m-1 1c.277 0 .5.223.5.5V17h2.5a.499.499 0 1 1 0 1h-3a.5.5 0 0 1-.5-.5v-3c0-.277.223-.5.5-.5" class="ColorScheme-Text" style="fill:currentColor"/>
<path fill="currentColor" d="M9 2c-1.31 0-2.407.835-2.818 2H5C3.338 4 2 5.338 2 7v10c0 1.662 1.338 3 3 3h7v-1H5c-1.108 0-2-.892-2-2V7c0-1.108.892-2 2-2h5v5h5v2h1V9l-1-1h4v4h1V7l-5-5zm0 1h5v4l-3-3H7.275C7.621 3.404 8.26 3 9 3m6 .414L18.586 7H15zm-4 2L14.586 9H11z" class="ColorScheme-Text" style="fill:currentColor"/>
</svg>
