<?xml version='1.0' encoding='ASCII'?>
<svg xmlns="http://www.w3.org/2000/svg" viewBox="0 0 22 22">
<defs><style id="current-color-scheme" type="text/css">.ColorScheme-Contrast{color:#dedede; fill:currentColor;}</style></defs><path fill="currentColor" d="M9 16.5A3.5 3.5 0 0 0 5.5 13 3.5 3.5 0 0 0 2 16.5 3.5 3.5 0 0 0 5.5 20 3.5 3.5 0 0 0 9 16.5m-1.086 0-2.5 2.5-.707-.707L6 17H3v-1h3l-1.293-1.293.707-.707z" class="ColorScheme-Contrast" style="fill:currentColor"/>
<path fill="currentColor" d="M7 3C5.338 3 4 4.338 4 6v6h1V6c0-1.108.892-2 2-2h5v5h5v7c0 1.108-.892 2-2 2h-5v1h5c1.662 0 3-1.338 3-3V8l-5-5zm6 1.414L16.586 8H13z" class="ColorScheme-Contrast" style="fill:currentColor"/>
</svg>
