<?xml version='1.0' encoding='ASCII'?>
<svg xmlns="http://www.w3.org/2000/svg" viewBox="0 0 22 22">
<defs><style id="current-color-scheme" type="text/css">.ColorScheme-Contrast{color:#dedede; fill:currentColor;}</style></defs><path fill="currentColor" d="M15.5 13a1.5 1.5 0 0 0-1.5 1.5V16h-1v3h5v-3h-1v-1.5a1.5 1.5 0 0 0-1.5-1.5m0 1a.5.5 0 0 1 .5.5V16h-1v-1.5a.5.5 0 0 1 .5-.5" class="ColorScheme-Contrast" style="fill:currentColor"/>
<path fill="currentColor" d="M7 3C5.338 3 4 4.338 4 6v10c0 1.662 1.338 3 3 3h5v-1H7c-1.108 0-2-.892-2-2V6c0-1.108.892-2 2-2h5v5h5v3h1V8l-5-5zm6 1.414L16.586 8H13z" class="ColorScheme-Contrast" style="fill:currentColor"/>
</svg>
