<svg xmlns="http://www.w3.org/2000/svg" viewBox="0 0 22 22">
<defs>
<style id="current-color-scheme" type="text/css">
.ColorScheme-Text{color:#dedede}
</style>
</defs>
<path fill="currentColor" d="M6 9c-1.662 0-3 1.338-3 3v4c0 1.662 1.338 3 3 3h8c1.662 0 3-1.338 3-3v-4c0-1.662-1.338-3-3-3zm0 1h8c1.108 0 2 .892 2 2v4c0 1.108-.892 2-2 2H6c-1.108 0-2-.892-2-2v-4c0-1.108.892-2 2-2m10-8c-2.77 0-5 2.23-5 5v2h1V7c0-2.216 1.784-4 4-4s4 1.784 4 4v2h1V7c0-2.77-2.23-5-5-5" class="ColorScheme-Text"/>
</svg>
