<svg xmlns="http://www.w3.org/2000/svg" viewBox="0 0 22 22">
<defs>
<style id="current-color-scheme" type="text/css">
.ColorScheme-NegativeText{color:#da4453}
</style>
</defs>
<path fill="currentColor" d="m13.707 14-.707.707 1.793 1.793L13 18.293l.707.707 1.793-1.793L17.293 19l.707-.707-1.793-1.793L18 14.707 17.293 14 15.5 15.793Z" class="ColorScheme-NegativeText"/>
<path fill="currentColor" d="M7 3C5.338 3 4 4.338 4 6v10c0 1.662 1.338 3 3 3h5v-1H7c-1.108 0-2-.892-2-2V6c0-1.108.892-2 2-2h8c1.108 0 2 .892 2 2v7h1V6c0-1.662-1.338-3-3-3z" class="ColorScheme-NegativeText"/>
</svg>
