<?xml version='1.0' encoding='ASCII'?>
<svg xmlns="http://www.w3.org/2000/svg" width="16" height="16" viewBox="-3 -3 22 22">
<defs><style id="current-color-scheme" type="text/css">.ColorScheme-Contrast{color:#dedede; fill:currentColor;}</style></defs><path d="M3 0C1.892 0 1 .892 1 2v12c0 1.108.892 2 2 2h10c1.108 0 2-.892 2-2V2c0-1.108-.892-2-2-2zm0 1h10c.554 0 1 .446 1 1v1H2V2c0-.554.446-1 1-1M2 4h12v3H2zm4.502 1a.499.499 0 1 0 0 1h3a.499.499 0 1 0 0-1zM2 8h12v3H2zm4.502 1a.499.499 0 1 0 0 1h3a.499.499 0 1 0 0-1zM2 12h12v2c0 .554-.446 1-1 1H3c-.554 0-1-.446-1-1zm4.502 1a.499.499 0 1 0 0 1h3a.499.499 0 1 0 0-1z" class="ColorScheme-Contrast" style="fill:currentColor" fill="currentColor"/>
</svg>
