<?xml version='1.0' encoding='ASCII'?>
<svg xmlns="http://www.w3.org/2000/svg" viewBox="0 0 22 22">
<defs><style id="current-color-scheme" type="text/css">.ColorScheme-Contrast{color:#dedede; fill:currentColor;}</style></defs><path fill="currentColor" d="m17 13.016-4 4v2h2l4-4zm-.31 1.69.591.591-2.969 3-.593-.593z" class="ColorScheme-Contrast" style="fill:currentColor"/>
<path fill="currentColor" d="M7 3C5.338 3 4 4.338 4 6v10c0 1.662 1.338 3 3 3h5v-1H7c-1.108 0-2-.892-2-2V6c0-1.108.892-2 2-2h5v5h5v3h1V8l-5-5h-1zm6 1.414L16.586 8H13z" class="ColorScheme-Contrast" style="fill:currentColor"/>
</svg>
