<?xml version='1.0' encoding='ASCII'?>
<svg xmlns="http://www.w3.org/2000/svg" viewBox="0 0 22 22">
<defs><style id="current-color-scheme" type="text/css">.ColorScheme-Contrast{color:#dedede; fill:currentColor;}</style></defs><g fill="currentColor" class="ColorScheme-Contrast" style="fill:currentColor">
<path d="M8 1c-1.108 0-2 .892-2 2v2h1V3c0-.554.446-1 1-1h6a.995.995 0 0 1 1 1v2h1V3c0-1.108-.892-2-2-2zm0 12h6v1H8zm0 3h6v1H8z" class="ColorScheme-Contrast" fill="currentColor" style="fill:currentColor"/>
<path d="M5 4C3.338 4 2 5.338 2 7v6c0 1.662 1.338 3 3 3h1v-1H5c-1.108 0-2-.892-2-2V7c0-1.108.892-2 2-2h12c1.108 0 2 .892 2 2v6c0 1.108-.892 2-2 2h-1v1h1c1.662 0 3-1.338 3-3V7c0-1.662-1.338-3-3-3z" class="ColorScheme-Contrast" fill="currentColor" style="fill:currentColor"/>
<path d="M8 10c-1.108 0-2 .892-2 2v6c0 1.108.892 2 2 2h6c1.108 0 2-.892 2-2v-6c0-1.108-.892-2-2-2zm0 1h6c.554 0 1 .446 1 1v6c0 .554-.446 1-1 1H8c-.554 0-1-.446-1-1v-6c0-.554.446-1 1-1m8-4h1v1h-1z" class="ColorScheme-Contrast" fill="currentColor" style="fill:currentColor"/>
</g>
</svg>
