<svg xmlns="http://www.w3.org/2000/svg" viewBox="0 0 22 22">
<defs>
<style id="current-color-scheme" type="text/css">
.ColorScheme-Text{color:#dedede}
</style>
</defs>
<path fill="currentColor" d="m13.172 5.672-.707.707L14.086 8H10v1h4.086l-1.621 1.621.707.707L16 8.5l-1.879-1.879zm-4.344 2L6 10.5l2.828 2.828.707-.707L7.915 11H12v-1H7.914l1.621-1.621z" class="ColorScheme-Text"/>
<path fill="currentColor" d="M7 19c-1.662 0-3-1.338-3-3V6c0-1.662 1.338-3 3-3h8c1.662 0 3 1.338 3 3v8l-5 5h-1zm0-1h5v-5h5V6c0-1.108-.892-2-2-2H7c-1.108 0-2 .892-2 2v10c0 1.108.892 2 2 2m6-.414L16.586 14H13z" class="ColorScheme-Text"/>
</svg>
