<svg xmlns="http://www.w3.org/2000/svg" viewBox="0 0 22 22">
<defs>
<style id="current-color-scheme" type="text/css">
.ColorScheme-Text{color:#dedede}
</style>
</defs>
<path fill="currentColor" d="M13 11c-1.662 0-3 1.338-3 3s1.338 3 3 3c.65 0 1.26-.214 1.75-.562L17.281 19l.719-.719-2.563-2.53c.348-.49.563-1.102.563-1.75 0-1.663-1.338-3-3-3m0 1c1.108 0 2 .892 2 2s-.892 2-2 2-2-.892-2-2 .892-2 2-2" class="ColorScheme-Text"/>
<path fill="currentColor" d="M7 3C5.338 3 4 4.338 4 6v10c0 1.662 1.338 3 3 3h3v-1H7c-1.108 0-2-.892-2-2V6c0-1.108.892-2 2-2h8c1.108 0 2 .892 2 2v5h1V6c0-1.662-1.338-3-3-3z" class="ColorScheme-Text"/>
</svg>
