<?xml version='1.0' encoding='ASCII'?>
<svg xmlns="http://www.w3.org/2000/svg" viewBox="0 0 22 22">
<defs><style id="current-color-scheme" type="text/css">.ColorScheme-Contrast{color:#dedede; fill:currentColor;}</style></defs><path d="M4 2.998V5h2V3h2v2h2V3h2v2h2V3h2v2h2V2.998zM6 6v2h2V6zm4 0v2h2V6zm4 0v2h2V6zM4 9v10h10v-.01l.008.01L18 15.008V9h-2v2h1v3h-4v4H5v-7h1V9zm4 0v2h2V9zm4 0v2h2V9z" class="ColorScheme-Contrast" style="fill-opacity:1;stroke:none;fill:currentColor" fill="currentColor"/>
</svg>
