<svg xmlns="http://www.w3.org/2000/svg" width="16" height="16" viewBox="-3 -3 22 22">
<path fill="#dedede" fill-rule="evenodd" d="M2.5 6a.5.5 0 0 0-.5.5V16h1V7h6v3.5a.5.5 0 0 0 .5.5H13v5h1v-5.5a.5.5 0 0 0-.04-.191.5.5 0 0 0-.106-.163l-4-4a.5.5 0 0 0-.15-.1l-.038-.013a.5.5 0 0 0-.13-.025L9.5 6zM10 7.707 12.293 10H10z" color="#000" style="-inkscape-stroke:none"/>
<path fill="#dedede" d="M2 0C.892 0 0 .892 0 2v12c0 1.108.892 2 2 2h12c1.108 0 2-.892 2-2V2c0-1.108-.892-2-2-2zm0 1h12c.554 0 1 .446 1 1v2H1V2c0-.554.446-1 1-1M1 5h14v9c0 .554-.446 1-1 1H2c-.554 0-1-.446-1-1z"/>
</svg>
