<?xml version='1.0' encoding='ASCII'?>
<svg xmlns="http://www.w3.org/2000/svg" viewBox="0 0 22 22">
<defs><style id="current-color-scheme" type="text/css">.ColorScheme-Text{color:#fcfcfc; fill:currentColor;}</style></defs><path fill="currentColor" d="m10.5 2.086 2.828 2.828-.707.707L11 4v9h-1V4L8.379 5.621l-.707-.707z" class="ColorScheme-Text" style="fill:currentColor"/>
<path fill="currentColor" d="M6 6C4.338 6 3 7.338 3 9v7c0 1.662 1.338 3 3 3h9c1.662 0 3-1.338 3-3V9c0-1.662-1.338-3-3-3h-1v1h1c1.108 0 2 .892 2 2v7c0 1.108-.892 2-2 2H6c-1.108 0-2-.892-2-2V9c0-1.108.892-2 2-2h1V6z" class="ColorScheme-Text" style="fill:currentColor"/>
</svg>
