<svg xmlns="http://www.w3.org/2000/svg" viewBox="0 0 22 22">
<defs id="defs3051">
<style id="current-color-scheme" type="text/css">
.ColorScheme-Text{color:#dedede}
</style>
</defs>
<path d="M432.683 528.79q-2.625 0-4.969 1.264l.778 1.788q1.17-.575 2.107-.825a7.6 7.6 0 0 1 1.936-.25q1.48 0 2.27.662.788.663.788 1.9 0 .664-.172 1.165a3.2 3.2 0 0 1-.591 1q-.42.5-1.764 1.65c-1.1 1.004-2.251 2.786-2.352 4.647h2l-.006-.031q0-1.14.395-1.827.406-.7 1.627-1.763 1.492-1.263 1.986-1.9.506-.638.752-1.35.247-.714.246-1.639 0-2.126-1.344-3.303-1.344-1.188-3.687-1.187zm-1.969 14v2h2v-2z" class="ColorScheme-Text" style="fill:currentColor;fill-opacity:1;stroke:none" transform="translate(-421.714 -525.79)"/>
<path d="m436.705 538.79-.99.99 2.01 2.01-2.01 2.01.99.99 2.01-2.01 2.01 2.01.99-.99-2.01-2.01 2.01-2.01-.99-.99-2.01 2.01z" style="fill:#da4453" transform="translate(-421.714 -525.79)"/>
</svg>
