<svg xmlns="http://www.w3.org/2000/svg" viewBox="0 0 22 22">
<defs id="defs3051">
<style id="current-color-scheme" type="text/css">
.ColorScheme-Text{color:#dedede}
</style>
</defs>
<path d="M11 3c-4.432 0-8 3.568-8 8a7.976 7.976 0 0 0 7 7.932v-1.01C6.6 17.438 4 14.537 4 11q0-.362.035-.717A6.985 6.985 0 0 1 11 4c3.878 0 7 3.122 7 7 0 .34-.032.672-.078 1h1.01c.04-.328.068-.66.068-1 0-4.432-3.568-8-8-8m-1 2v7h6v-1h-5V5zm6 8v4.293L13.707 15l-.707.707L16.293 19l.207.207.207-.207L20 15.707 19.293 15 17 17.293V13z" class="ColorScheme-Text" style="fill:currentColor;fill-opacity:1;stroke:none"/>
</svg>
