<svg xmlns="http://www.w3.org/2000/svg" viewBox="0 0 22 22">
<defs>
<style id="current-color-scheme" type="text/css">
.ColorScheme-Text{color:#dedede}
</style>
</defs>
<path fill="currentColor" d="M8.5 5.5C5.453 5.5 3 7.953 3 11s2.453 5.5 5.5 5.5h5c3.047 0 5.5-2.453 5.5-5.5s-2.453-5.5-5.5-5.5zm0 1h5c2.493 0 4.5 2.007 4.5 4.5s-2.007 4.5-4.5 4.5h-5C6.007 15.5 4 13.493 4 11s2.007-4.5 4.5-4.5" class="ColorScheme-Text"/>
<path fill="currentColor" fill-opacity=".502" d="M7.513 16q-1.73-.285-2.924-1.645c-.57-.648-.996-1.56-1.141-2.442-.073-.442-.074-1.25-.002-1.675.305-1.81 1.574-3.318 3.277-3.896.733-.249.618-.242 4.281-.242 3.057 0 3.337.005 3.636.066 1.918.394 3.38 1.81 3.857 3.74.127.515.158 1.421.068 1.974-.334 2.034-1.8 3.597-3.835 4.086-.247.06-.557.066-3.6.073-2.585.007-3.394-.002-3.617-.039" class="ColorScheme-Text"/>
</svg>
