<svg xmlns="http://www.w3.org/2000/svg" viewBox="0 0 22 22">
<defs id="defs3051">
<style id="current-color-scheme" type="text/css">
.ColorScheme-Text{color:#dedede}
</style>
</defs>
<path d="M3 3v3h1v7.996l-.996.996H3V19h4.008v-.004l1-1H16V19h3v-3h-3v1H9.004L19 7.004l-.002-.002L19 7l-4-4-.002.002L14.996 3 5 12.996V6h1V3zm1 1h1v1H4zm10.998.412 2.59 2.59-2 2-6.793 6.793L8 15l-1.795-1.795 6.793-6.793zM17 17h1v1h-1z" class="ColorScheme-Text" style="fill:currentColor;fill-opacity:1;stroke:none"/>
</svg>
