<?xml version='1.0' encoding='ASCII'?>
<svg xmlns="http://www.w3.org/2000/svg" viewBox="0 0 22 22">
<defs><style id="current-color-scheme" type="text/css">.ColorScheme-Contrast{color:#dedede; fill:currentColor;}</style></defs><path d="M19.514 4.008a2 9 45 0 0-7.446 5.097 2 9 45 0 0-3.543 4.114 3.47 3.47 0 0 1 2.258 2.258 2 9 45 0 0 4.113-3.543 2 9 45 0 0 4.95-7.778 2 9 45 0 0-.332-.148M8 14.664C4 15.736 7 18.268 4 20c4.003 0 6-2 6-3.336 0-.665.068-1.89-2-2" class="ColorScheme-Contrast" style="fill-opacity:1;stroke:none;fill:currentColor" transform="translate(-1 -1)" fill="currentColor"/>
</svg>
