<svg xmlns="http://www.w3.org/2000/svg" viewBox="0 0 22 22">
<defs id="defs3051">
<style id="current-color-scheme" type="text/css">
.ColorScheme-Text{color:#dedede}
</style>
</defs>
<path d="m10 4-7 7.156L6.875 18H10l-.312 2L14 17.594 18.313 20l-.813-5.062 3.5-3.594-4.844-.75L14 6l-.656 1.406zm0 1.25 2.938 3-1.094 2.344-4.844.75 3.5 3.594-.344 2.187H7.375l-3.312-5.812zm4 2.5 1.625 3.469 3.625.531-2.625 2.688.625 3.812L14 16.469l-3.25 1.781.625-3.812L8.75 11.75l3.625-.531z" class="ColorScheme-Text" style="fill:currentColor;fill-opacity:1;stroke:none" transform="translate(-1 -1)"/>
</svg>
