<svg xmlns="http://www.w3.org/2000/svg" viewBox="0 0 22 22">
<defs id="defs3051">
<style id="current-color-scheme" type="text/css">
.ColorScheme-Text{color:#dedede}
</style>
</defs>
<path d="M18.5 4c-.654 0-1.202.418-1.408 1H4v1c3.601 0 6.5 2.899 6.5 6.5a6.45 6.45 0 0 1-2.121 4.787A1.497 1.497 0 0 0 6 18.5a1.497 1.497 0 0 0 2.908.5H13v1h3v-3h-3v1H9.088a7.46 7.46 0 0 0 2.412-5.5A7.48 7.48 0 0 0 7.742 6h9.35A1.497 1.497 0 0 0 20 5.5c0-.831-.669-1.5-1.5-1.5m0 1a.499.499 0 1 1 0 1 .5.5 0 0 1-.46-.695A.5.5 0 0 1 18.5 5m-11 13a.499.499 0 1 1 0 1 .499.499 0 1 1 0-1m6.5 0h1v1h-1z" class="ColorScheme-Text" style="fill:currentColor;fill-opacity:1;stroke:none" transform="translate(-1 -1)"/>
</svg>
