<?xml version='1.0' encoding='ASCII'?>
<svg xmlns="http://www.w3.org/2000/svg" viewBox="0 0 22 22">
<defs><style id="current-color-scheme" type="text/css">.ColorScheme-Contrast{color:#dedede; fill:currentColor;}</style></defs><path d="M11 .412c-.742.47-.007 0-.781.488L2 6.37v9.218c1.149.752.222.144.75.5l7.344 4.906c.895.596.008 0 .906.594 8.023-5.324 6.054-4.014 8.375-5.563.632-.461.117-.095.625-.468V6.369c-2.324-1.547-.34-.226-.562-.375L11.78.9l-.406-.25c-.283-.182 1.223.791-.375-.238m-.5 1.52v7.75l-.062.093-.22.125L3 14.713V6.932zm1 0 7.5 5v7.625l-7.5-5zm-.375 8.593 7.313 4.875L11 20.37l-7.344-4.876 7.125-4.75z" class="ColorScheme-Contrast" style="fill-opacity:1;stroke:none;fill:currentColor" fill="currentColor"/>
<path d="M10.582 1.875c-.013 0-1.75 1.147-3.86 2.549L2.888 6.973v3.957c0 2.177.011 3.959.025 3.959s1.75-1.149 3.86-2.553l3.833-2.553V5.828c0-2.175-.01-3.953-.023-3.953" class="ColorScheme-Contrast" style="fill-opacity:.2;stroke:none;fill:currentColor" fill="currentColor"/>
<path d="M11.09 10.395c-.115.004-7.683 5.11-7.639 5.154.022.02 1.722 1.164 3.778 2.539 2.055 1.374 3.749 2.492 3.763 2.482.64-.414 7.603-5.125 7.61-5.148.015-.05-7.428-5.027-7.512-5.027" class="ColorScheme-Contrast" style="fill-opacity:.4;stroke:none;fill:currentColor" fill="currentColor"/>
<path d="M11.428 1.813c-.013 0-.024 1.75-.024 3.89l.002 3.889 3.832 2.564c2.107 1.41 3.836 2.567 3.842 2.567.006.001.012-1.753.012-3.899v-3.9l-3.82-2.557a413 413 0 0 0-3.844-2.554" class="ColorScheme-Contrast" style="fill-opacity:.6;stroke:none;fill:currentColor" fill="currentColor"/>
</svg>
