<svg xmlns="http://www.w3.org/2000/svg" width="16" height="16" viewBox="-3 -3 22 22">
<style id="current-color-scheme" type="text/css">
.ColorScheme-Contrast{color:#dedede}
</style>
<path d="M4.522.048c-.966-.16-1.933.104-2.6.477a3.5 3.5 0 0 0-1.027.867c-.322.404-.58.952-.52 1.584.088.92.724 1.68 1.348 2.176.255.203.583.481.746.71a.6.6 0 0 1 .117.248c.004.038.016.033-.044.1-.083.093-.381.231-.75.312-.37.08-.77.117-1.115.206-.172.045-.363.056-.561.33a.7.7 0 0 0-.092.532.77.77 0 0 0 .208.34c.323.333.817.58 1.796 1.042a.513.508 0 1 0 .44-.918c-.537-.253-.598-.32-.847-.468.148-.025.229-.037.39-.072.443-.097.935-.225 1.296-.63.221-.246.327-.58.299-.873a1.5 1.5 0 0 0-.3-.735c-.29-.407-.682-.71-.943-.917-.459-.365-.925-1.024-.968-1.479-.03-.309.09-.592.303-.859a2.7 2.7 0 0 1 .728-.61c.454-.255 1.28-.469 1.928-.361.374.062.79.204 1.134.363.344.158.632.358.687.413A.512.508 0 1 0 6.9 1.11C6.661.87 6.334.682 5.92.491A5.6 5.6 0 0 0 4.522.048" class="ColorScheme-Contrast" style="stroke-width:.664006;stroke-linecap:round;fill:#dedede;fill-opacity:1"/>
<path d="M2.414 10.757 1 15l4.243-1.414 4.95-4.95 1.414-1.414.707-.707a2 1 45 0 0-.707-2.122 2 1 45 0 0-2.122-.707l-.707.707-1.414 1.415Zm7.778-7.778a2 1 45 0 1 2.122.707 2 1 45 0 1 .707 2.122l2.121-2.122a2 1 45 0 0-.707-2.121 2 1 45 0 0-2.121-.707Zm-6.904 8.318 4.783-4.782L9.485 5.1l.562-.563.036.011c.191.064.522.257.816.552.295.294.488.625.552.816l.01.036-.562.562-1.414 1.414-4.782 4.783-2.122.707Zm8.874-8.873.714-.714.036.011c.19.064.52.256.816.551s.487.625.551.816l.011.036-.714.714c-.18-.288-.294-.598-.555-.859s-.57-.374-.86-.555Z" style="fill:#dedede;fill-opacity:1;stroke:none;stroke-width:1px;stroke-linecap:butt;stroke-linejoin:miter;stroke-opacity:1"/>
</svg>
