<?xml version='1.0' encoding='ASCII'?>
<svg xmlns="http://www.w3.org/2000/svg" width="16" height="16" viewBox="-3 -3 22 22">
<defs><style id="current-color-scheme" type="text/css">.ColorScheme-Contrast{color:#dedede; fill:currentColor;}</style></defs><path d="M1 14h4v1H1zm7 0h7v1H8zM9.17.438a1 1 0 0 0-1.366.366L4.804 6 10 9l3-5.196a1 1 0 0 0-.366-1.366Zm-.5.866 3.464 2-2.5 4.33-3.464-2zM4.304 6.866l-1.5 2.598a1 1 0 0 0 .366 1.366l3.464 2A1 1 0 0 0 8 12.464l1.5-2.598Zm.366 1.366 3.464 2-1 1.732-3.464-2z" class="ColorScheme-Contrast" style="stroke-width:2;stroke-linecap:round;stroke-linejoin:round;paint-order:stroke fill markers;stop-fill:currentColor" fill="currentColor"/>
</svg>
