<?xml version='1.0' encoding='ASCII'?>
<svg xmlns="http://www.w3.org/2000/svg" width="16" height="16" viewBox="-3 -3 22 22">
<defs><style id="current-color-scheme" type="text/css">.ColorScheme-Text{color:#fcfcfc; fill:currentColor;}</style></defs><path d="M15.451 0a.542.543 0 0 0-.375.158L12.17 3H13v.703L15.832.936a.542.543 0 0 0-.38-.936zM11 4.143 5.008 10H6v.547L11.674 5H11zm-7 6.841L.168 14.73a.542.543 0 1 0 .756.778L4.512 12H4z" class="ColorScheme-Text" style="stroke-width:.998804;stroke-linecap:round;fill-opacity:1;fill:currentColor" fill="currentColor"/>
<path d="M4 9c-.554 0-1 .446-1 1v2.002c0 .554.446 1 1 1h2.016c.554 0 1-.446 1-1V10c0-.554-.446-1-1-1zm0 1h2v2H4z" style="stroke-linecap:round;stroke-linejoin:round;paint-order:stroke fill markers;stop-fill:currentColor" class="ColorScheme-Text" fill="currentColor"/>
<rect width="2" height="2" x="4" y="10" rx="0" ry="0" style="stroke-linecap:round;stroke-linejoin:round;paint-order:stroke fill markers;stop-opacity:.35;fill:currentColor" class="ColorScheme-Text" fill="currentColor"/>
<path d="M11 1.999c-.554 0-1 .446-1 1v2.002c0 .554.446 1 1 1h2.016c.554 0 1-.446 1-1V2.999c0-.554-.446-1-1-1zm0 1h2v2h-2z" style="stroke-linecap:round;stroke-linejoin:round;paint-order:stroke fill markers;stop-fill:currentColor" class="ColorScheme-Text" fill="currentColor"/>
<rect width="2" height="2" x="11" y="2.999" rx="0" ry="0" style="opacity:.35;stroke-linecap:round;stroke-linejoin:round;paint-order:stroke fill markers;stop-fill:currentColor" class="ColorScheme-Text" fill="currentColor"/>
</svg>
