<?xml version='1.0' encoding='ASCII'?>
<svg xmlns="http://www.w3.org/2000/svg" width="16" height="16" viewBox="-3 -3 22 22">
<defs><style id="current-color-scheme" type="text/css">.ColorScheme-Contrast{color:#dedede; fill:currentColor;}</style></defs><path d="M8 1a7 7 0 0 0-7 7 7 7 0 0 0 7 7 7 7 0 0 0 6.744-5.148A2 2 0 0 1 14 10a2 2 0 0 1-.34-.031A6 6 0 0 1 8 14a6 6 0 0 1-6-6 6 6 0 0 1 6-6 6 6 0 0 1 .264.021 2 2 0 0 1 1.027-.884A7 7 0 0 0 8 1m3.799 1.125A2 2 0 0 1 12 3a2 2 0 0 1-.064.492 6 6 0 0 1 1.73 2.537A2 2 0 0 1 14 6a2 2 0 0 1 .748.146 7 7 0 0 0-2.95-4.021z" class="ColorScheme-Contrast" style="fill-opacity:1;fill:currentColor" fill="currentColor"/>
<circle cx="10" cy="3" r="1" style="opacity:1;stroke-width:2;stroke-linecap:round;stroke-linejoin:round;paint-order:stroke fill markers;stop-fill-opacity:1;fill:currentColor" class="ColorScheme-Contrast" fill="currentColor"/>
<circle cx="14" cy="8" r="1" style="opacity:1;stroke-width:2;stroke-linecap:round;stroke-linejoin:round;paint-order:stroke fill markers;stop-fill-opacity:1;fill:currentColor" class="ColorScheme-Contrast" fill="currentColor"/>
</svg>
