<?xml version='1.0' encoding='ASCII'?>
<svg xmlns="http://www.w3.org/2000/svg" width="16" height="16" viewBox="-3 -3 22 22">
<defs><style id="current-color-scheme" type="text/css">.ColorScheme-Contrast{color:#dedede; fill:currentColor;}</style></defs><g fill="currentColor" fill-rule="evenodd" stroke-linecap="round" stroke-linejoin="round" stroke-width="2" class="ColorScheme-Contrast" style="fill:currentColor">
<style id="current-color-scheme" type="text/css" class="ColorScheme-Contrast" fill="currentColor" style="fill:currentColor">
.ColorScheme-Contrast{color:#dedede}
</style>
<path d="M6 1a5 5 0 0 0-5 5 5 5 0 0 0 5 5v4h9V6h-4a5 5 0 0 0-5-5m0 1a4 4 0 0 1 .234.008l.08.006a4 4 0 0 1 .207.021 4 4 0 0 1 .26.041 4 4 0 0 1 .254.06 4 4 0 0 1 .236.073l.014.004.012.004a4 4 0 0 1 .234.088 4 4 0 0 1 .18.08l.018.008.12.062.036.018.043.023.097.055a4 4 0 0 1 .198.123 4 4 0 0 1 .16.113l.02.016.09.07.044.035.041.035.094.082a4 4 0 0 1 .29.29l.013.013.082.094.035.04.035.046.07.09a4 4 0 0 1 .13.18 4 4 0 0 1 .122.197l.055.097.023.043.018.035.062.121a4 4 0 0 1 .088.198 4 4 0 0 1 .088.234l.004.012.004.014a4 4 0 0 1 .072.236 4 4 0 0 1 .06.254 4 4 0 0 1 .042.26 4 4 0 0 1 .021.207l.006.08A4 4 0 0 1 10 6a4 4 0 0 1-.143 1H14v7H7V9.857A4 4 0 0 1 6 10a4 4 0 0 1-.69-.066 4 4 0 0 1-.216-.05 4 4 0 0 1-.508-.154l-.166-.06a4 4 0 0 1-.613-.328l-.114-.084a4 4 0 0 1-.445-.367 4 4 0 0 1-.139-.139 4 4 0 0 1-.367-.445l-.084-.114a4 4 0 0 1-.328-.613l-.06-.166a4 4 0 0 1-.155-.508 4 4 0 0 1-.049-.217A4 4 0 0 1 2 6a4 4 0 0 1 .066-.69 4 4 0 0 1 .05-.216 4 4 0 0 1 .154-.508l.06-.166a4 4 0 0 1 .328-.613l.084-.114a4 4 0 0 1 .367-.445 4 4 0 0 1 .14-.139 4 4 0 0 1 .444-.367l.114-.084a4 4 0 0 1 .613-.328l.166-.06a4 4 0 0 1 .508-.155 4 4 0 0 1 .217-.049A4 4 0 0 1 6 2" class="ColorScheme-Contrast" style="paint-order:stroke fill markers;fill:currentColor" fill="currentColor"/>
<path d="M9.861 7A4 4 0 0 1 7 9.861v1.026A5 5 0 0 0 10.887 7zM6 6v4a4 4 0 0 0 1-.139V7h2.861A4 4 0 0 0 10 6z" opacity=".35" style="paint-order:stroke fill markers;fill:currentColor" class="ColorScheme-Contrast" fill="currentColor"/>
</g>
</svg>
