<svg xmlns="http://www.w3.org/2000/svg" viewBox="0 0 22 22">
<defs>
<style id="current-color-scheme" type="text/css">
.ColorScheme-Text{color:#fcfcfc}.ColorScheme-NegativeText{color:#da4453}
</style>
</defs>
<path fill="currentColor" d="M15.5 12a3.5 3.5 0 0 0-3.5 3.5 3.5 3.5 0 0 0 3.5 3.5 3.5 3.5 0 0 0 3.5-3.5 3.5 3.5 0 0 0-3.5-3.5m-1.668 1 1.668 1.668L17.168 13l.832.832-1.668 1.668L18 17.168l-.832.832-1.668-1.668L13.832 18 13 17.168l1.668-1.668L13 13.832z" class="ColorScheme-NegativeText"/>
<path fill="currentColor" d="M7 7v3h3V7zm5 0v3h3V7zM8 8h1v1H8zm5 0h1v1h-1zm-6 4v3h3v-3zm1 1h1v1H8zM6 3C4.338 3 3 4.338 3 6v2h1V6c0-1.108.892-2 2-2h2V3zm8 0v1h2c1.108 0 2 .892 2 2v2h1V6c0-1.662-1.338-3-3-3zM3 14v2c0 1.662 1.338 3 3 3h2v-1H6c-1.108 0-2-.892-2-2v-2z" class="ColorScheme-Text"/>
</svg>
