<?xml version='1.0' encoding='ASCII'?>
<svg xmlns="http://www.w3.org/2000/svg" width="16" height="16" viewBox="-3 -3 22 22">
<defs><style id="current-color-scheme" type="text/css">.ColorScheme-Text{color:#fcfcfc; fill:currentColor;}</style></defs><path d="M3.92.228a.5.5 0 0 0-.84.544L7.405 7.43 5.48 10.39a3 3 0 1 0 .779.636L8 8.348l1.74 2.68a3 3 0 1 0 .779-.636zM12 15a2 2 0 1 1 0-4 2 2 0 0 1 0 4M2 13a2 2 0 1 1 4 0 2 2 0 0 1-4 0m7.192-6.49-.596-.918L12.081.227a.5.5 0 0 1 .838.545z" class="ColorScheme-Text" style="fill:currentColor" fill="currentColor"/>
</svg>
