<?xml version='1.0' encoding='ASCII'?>
<svg xmlns="http://www.w3.org/2000/svg" viewBox="0 0 22 22">
<defs><style id="current-color-scheme" type="text/css">.ColorScheme-Contrast{color:#dedede; fill:currentColor;}</style></defs><path fill="currentColor" d="M10.5 7c-.277 0-.5.223-.5.5v6.793l-1.268-1.268a.499.499 0 1 0-.707.707l2.121 2.122a.5.5 0 0 0 .541.109.5.5 0 0 0 .167-.11l2.12-2.12a.499.499 0 1 0-.706-.708L11 14.293V7.5c0-.277-.223-.5-.5-.5" class="ColorScheme-Contrast" style="fill:currentColor"/>
<path fill="currentColor" d="M10.387 3A8.5 8.5 0 0 0 2 11.5a8.5 8.5 0 0 0 8.5 8.5 8.5 8.5 0 0 0 8.5-8.5A8.5 8.5 0 0 0 10.5 3zm.076 1h.037a7.5 7.5 0 0 1 7.5 7.5 7.5 7.5 0 0 1-7.5 7.5A7.5 7.5 0 0 1 3 11.5 7.5 7.5 0 0 1 10.463 4" class="ColorScheme-Contrast" style="fill:currentColor"/>
</svg>
