<?xml version='1.0' encoding='ASCII'?>
<svg xmlns="http://www.w3.org/2000/svg" width="16" height="16" viewBox="-3 -3 22 22">
<defs><style id="current-color-scheme" type="text/css">.ColorScheme-Contrast{color:#dedede; fill:currentColor;}</style></defs><path d="M8 0a3 3 0 0 0-2.822 2H1a.5.5 0 0 0-.5.5l.008.09A.5.5 0 0 0 1 3h.553L2.85 14.229a2 2 0 0 0 1.986 1.772h6.328a2 2 0 0 0 1.986-1.772L14.445 3H15a.5.5 0 0 0 0-1h-4.172A3 3 0 0 0 8 0m0 1a2 2 0 0 1 1.73 1H6.275A2 2 0 0 1 8 1M2.56 3h10.878l-1.282 11.115a1 1 0 0 1-.992.885H4.836a1 1 0 0 1-.992-.885zM6.5 5.5c-.276 0-.5.196-.5.438v6.125l.008.078c.042.204.247.359.492.359.276 0 .5-.196.5-.437V5.938l-.008-.079C6.95 5.655 6.745 5.5 6.5 5.5m3 0c-.276 0-.5.196-.5.438v6.125l.008.078c.042.204.247.359.492.359.276 0 .5-.196.5-.437V5.938l-.008-.079C9.95 5.655 9.745 5.5 9.5 5.5" class="ColorScheme-Contrast" style="fill:currentColor" fill="currentColor"/>
</svg>
