<?xml version='1.0' encoding='ASCII'?>
<svg xmlns="http://www.w3.org/2000/svg" viewBox="0 0 22 22">
<defs><style id="current-color-scheme" type="text/css">.ColorScheme-Text{color:#fcfcfc; fill:currentColor;}</style></defs><path d="M3 3v16h16V3zm1 1h14v14H4zm1 1v2h1V6h1V5zm6 0a2.495 2.495 0 0 0-2.5 2.5C8.5 8.885 9.615 10 11 10s2.5-1.115 2.5-2.5S12.385 5 11 5m4 0v1h1v1h1V5zm-4 1c.831 0 1.5.669 1.5 1.5S11.831 9 11 9s-1.5-.669-1.5-1.5S10.169 6 11 6M5 9v2h2v-1H6V9zm11 0v1h-1v1h2V9zm-5 2a4.49 4.49 0 0 0-4.5 4.5V17h9v-1.5A4.49 4.49 0 0 0 11 11m0 1c1.939 0 3.5 1.561 3.5 3.5v.5h-7v-.5c0-1.939 1.561-3.5 3.5-3.5" class="ColorScheme-Text" style="fill-opacity:1;stroke:none;fill:currentColor" fill="currentColor"/>
</svg>
