<?xml version='1.0' encoding='ASCII'?>
<svg xmlns="http://www.w3.org/2000/svg" viewBox="0 0 22 22">
<defs><style id="current-color-scheme" type="text/css">.ColorScheme-Contrast{color:#dedede; fill:currentColor;}</style></defs><path d="M19 3a5 5 0 0 0-3.182 2.178A2 2 0 0 0 15 5c-.209 0-.405.04-.594.1A7.47 7.47 0 0 0 10.5 4 7.484 7.484 0 0 0 3 11.5c0 4.155 3.345 7.5 7.5 7.5s7.5-3.345 7.5-7.5a7.47 7.47 0 0 0-1.1-3.906c.06-.189.1-.385.1-.594 0-.448-.15-.857-.396-1.19A4 4 0 0 1 19 4.03zM6.318 6.518a6.48 6.48 0 0 0-1.517 4.181c0 3.601 2.899 6.5 6.5 6.5 1.595 0 3.05-.57 4.18-1.517A6.48 6.48 0 0 1 10.5 18 6.486 6.486 0 0 1 4 11.5c0-2.005.9-3.792 2.318-4.982" class="ColorScheme-Contrast" style="fill-opacity:1;stroke:none;fill:currentColor" fill="currentColor"/>
</svg>
