<?xml version='1.0' encoding='ASCII'?>
<svg xmlns="http://www.w3.org/2000/svg" width="16" height="16" viewBox="-3 -3 22 22">
<defs><style id="current-color-scheme" type="text/css">.ColorScheme-Text{color:#fcfcfc; fill:currentColor;}</style></defs><path d="M6 0a2 2 0 0 0-2 2v10a2 2 0 0 0 2 2h6a2 2 0 0 0 2-2V2a2 2 0 0 0-2-2zM5 2a1 1 0 0 1 1-1h6a1 1 0 0 1 1 1v10a1 1 0 0 1-1 1H6a1 1 0 0 1-1-1zM2 4a2 2 0 0 1 1-1.732V12.5A2.5 2.5 0 0 0 5.5 15h6.232A2 2 0 0 1 10 16H5.5A3.5 3.5 0 0 1 2 12.5z" class="ColorScheme-Text" style="fill:currentColor" fill="currentColor"/>
</svg>
