<svg xmlns="http://www.w3.org/2000/svg" width="16" height="16" viewBox="-3 -3 22 22">
<style id="current-color-scheme" type="text/css">
.ColorScheme-Text{color:#dedede}
</style>
<path d="M2 0C.892 0 0 .892 0 2v8c0 1.108.892 2 2 2h2v2c0 1.108.892 2 2 2h8c1.108 0 2-.892 2-2V6c0-1.108-.892-2-2-2h-2V2c0-1.108-.892-2-2-2zm0 1h8c.554 0 1 .446 1 1v2H6c-1.108 0-2 .892-2 2v5H2c-.554 0-1-.446-1-1V2c0-.554.446-1 1-1m4 4h8c.554 0 1 .446 1 1v8c0 .554-.446 1-1 1H6c-.554 0-1-.446-1-1V6c0-.554.446-1 1-1m3.469 2c-.852 0-1.5.71-1.5 1.563V10H7.5c-.275 0-.446.285-.5.594V14h6v-3.406c0-.313-.256-.594-.531-.594H12V8.563C12 7.71 11.32 7 10.469 7zm0 1.031h1c.257 0 .5.198.5.531V10H9V8.562c0-.333.211-.53.469-.53M8 11h4v2H8z" class="ColorScheme-Text" style="fill:currentColor"/>
</svg>
