<svg xmlns="http://www.w3.org/2000/svg" viewBox="0 0 22 22">
<defs id="defs3051">
<style id="current-color-scheme" type="text/css">
.ColorScheme-Text{color:#fcfcfc}.ColorScheme-Highlight{color:#3daee9}
</style>
</defs>
<path d="M3 3v16h16V9h-1v4h-2V9h-1v4h-2V3h-1v10h-2V9H9v4H7V9H6v4H4V3zm13.5 0L14 8h5zM4 14h2v4H4zm3 0h2v4H7zm3 0h2v4h-2zm3 0h2v4h-2zm3 0h2v4h-2z" class="ColorScheme-Text" style="fill:currentColor;fill-opacity:1;stroke:none"/>
<path d="M3 3v6h10V3zm1 1h.293l4 4H4zm1.707 0h2.586L12 7.707V8H9.707zm4 0H12v2.293z" class="ColorScheme-Highlight" style="fill:currentColor;fill-opacity:1;stroke:none"/>
</svg>
