<?xml version='1.0' encoding='ASCII'?>
<svg xmlns="http://www.w3.org/2000/svg" viewBox="0 0 22 22">
<defs><style id="current-color-scheme" type="text/css">.ColorScheme-Contrast{color:#dedede; fill:currentColor;}</style></defs><path d="M17.564 2.756 14.3 8.574 11.883 7.14 10.86 8.857l5.65 3.36 1.022-1.72-2.375-1.413 3.278-5.84zM7 6a1 1 0 0 0-1 1 1 1 0 0 0 1 1 1 1 0 0 0 1-1 1 1 0 0 0-1-1M3.5 7a.5.5 0 0 0-.5.5.5.5 0 0 0 .5.5.5.5 0 0 0 .5-.5.5.5 0 0 0-.5-.5M5 9a1 1 0 0 0-1 1 1 1 0 0 0 1 1 1 1 0 0 0 1-1 1 1 0 0 0-1-1m5 1c-1.118 1.564-3.164 2.81-7 3v1c2.114 3.372 5 5 9 5h1c1.311-1.587 2.358-3.032 3-5v-1l-5-3zm.53 1.102 4.327 2.597c-.572 1.547-1.472 2.904-2.584 4.27C9 18 6.053 16.54 4.326 13.83c3.118-.31 5.02-1.285 6.203-2.728" class="ColorScheme-Contrast" style="fill-opacity:1;stroke:none;fill:currentColor" fill="currentColor"/>
</svg>
