<?xml version='1.0' encoding='ASCII'?>
<svg xmlns="http://www.w3.org/2000/svg" viewBox="0 0 22 22">
<defs><style id="current-color-scheme" type="text/css">.ColorScheme-Text{color:#fcfcfc; fill:currentColor;}</style></defs><path fill="currentColor" d="M7 7v3h3V7zm5 0v3h3V7zm-5 5v3h3v-3zm5 0v3h3v-3zM6 3C4.338 3 3 4.338 3 6v2h1V6c0-1.108.892-2 2-2h2V3zm8 0v1h2c1.108 0 2 .892 2 2v2h1V6c0-1.662-1.338-3-3-3zM3 14v2c0 1.662 1.338 3 3 3h2v-1H6c-1.108 0-2-.892-2-2v-2zm15 0v2c0 1.108-.892 2-2 2h-2v1h2c1.662 0 3-1.338 3-3v-2z" class="ColorScheme-Text" style="fill:currentColor"/>
</svg>
