<?xml version='1.0' encoding='ASCII'?>
<svg xmlns="http://www.w3.org/2000/svg" width="16" height="16" viewBox="-3 -3 22 22">
<defs><style id="current-color-scheme" type="text/css">.ColorScheme-Contrast{color:#dedede; fill:currentColor;}</style></defs><g fill="currentColor" class="ColorScheme-Contrast" style="fill:currentColor">
<path d="m8.005 4.086-2.5 2.924h1.5v4h-1.5l2.5 3 2.5-3h-1.5v-4h1.5z" class="ColorScheme-Contrast" fill="currentColor" style="fill:currentColor"/>
<path d="M56.07 571.36h2v2h-2zm-8 0h2v2h-2zm8 8h2v2h-2zm-8 0h2v2h-2z" opacity=".999" style="paint-order:stroke fill markers;fill:currentColor" transform="translate(-45.07 -567.36)" class="ColorScheme-Contrast" fill="currentColor"/>
<path d="M3 1c-1.108 0-2 .892-2 2v11c0 1.108.892 2 2 2h10c1.108 0 2-.892 2-2V3c0-1.108-.892-2-2-2h-2v1l-.002.033H13c.554 0 1 .446 1 1v10.934c0 .554-.446 1-1 1H3c-.554 0-1-.446-1-1V3.033c0-.554.446-1 1-1h2.002L5 2V1z" class="ColorScheme-Contrast" fill="currentColor" style="fill:currentColor"/>
<path d="M6 0c-.554 0-1 .446-1 1v1c0 .554.446 1 1 1h4c.554 0 1-.446 1-1V1c0-.554-.446-1-1-1zm0 1h4v1H6z" class="ColorScheme-Contrast" fill="currentColor" style="fill:currentColor"/>
</g>
</svg>
