<svg xmlns="http://www.w3.org/2000/svg" viewBox="0 0 22 22">
<defs>
<style id="current-color-scheme" type="text/css">
.ColorScheme-Text{color:#dedede}
</style>
</defs>
<g fill="currentColor" class="ColorScheme-Text">
<path d="M16 13a2 2 0 0 0-2 2v1h1v-1a1 1 0 0 1 2 0v2h-4v3h6v-3h-1v-2a2 2 0 0 0-2-2m-2 5h4v1h-4z" class="ColorScheme-Text"/>
</g>
<path fill="currentColor" d="M6 2C4.338 2 3 3.338 3 5v10c0 1.36.902 2.491 2.139 2.861A2.98 2.98 0 0 0 8 20h4v-1H8c-1.108 0-2-.892-2-2V7c0-1.108.892-2 2-2h8c1.108 0 2 .892 2 2v5h1V7c0-1.36-.902-2.491-2.139-2.861A2.98 2.98 0 0 0 14 2zm0 1h8a1.99 1.99 0 0 1 1.725 1H8C6.338 4 5 5.338 5 7v9.725A1.99 1.99 0 0 1 4 15V5c0-1.108.892-2 2-2" class="ColorScheme-Text"/>
</svg>
