<?xml version='1.0' encoding='ASCII'?>
<svg xmlns="http://www.w3.org/2000/svg" viewBox="0 0 22 22">
<defs><style id="current-color-scheme" type="text/css">.ColorScheme-Text{color:#fcfcfc; fill:currentColor;}</style></defs><path d="M10.912 3a8 6 0 0 0-2.418.303l.838.842A7 5 0 0 1 11 3.996a7 5 0 0 1 .527.02zm1.207.063.67 1.105a7 5 0 0 1 2.742 1.018l.813-.645a8 6 0 0 0-4.225-1.479m-4.701.577a8 6 0 0 0-1.86.968l.973.547a7 5 0 0 1 1.664-.732zm9.74 1.53-.789.628a7 5 0 0 1 .795.838l1-.293a8 6 0 0 0-1.006-1.172m-12.44.111a8 6 0 0 0-1.032 1.305l.931.367a7 5 0 0 1 1.012-1.16zm13.93 1.961-.967.283a7 5 0 0 1 .297 1.09l1.005.137a8 6 0 0 0-.336-1.51m-15.386.25a8 6 0 0 0-.258 1.426l1.004-.045a7 5 0 0 1 .181-1.014zM17.939 9.62a7 5 0 0 1-.587 1.467l.99.275a8 6 0 0 0 .584-1.607zm-13.83.25-1.005.045a8 6 0 0 0 .562 1.473l.91-.418a7 5 0 0 1-.467-1.1m1.088 1.916-.94.43a8 6 0 0 0 1.772 1.467c.636 2.375-1.84 4.501-1.029 5.312 1.135.108 1.81-1.567 2.082-3.19.102-.138.471-.666.768-1.296a8 6 0 0 0 3.14.488L9.924 13.93a7 5 0 0 1-1.787-.385c.008-.444-.266-.724-1.135-.545L7 12.994c-.08 0-.158-.016-.236-.027a7 5 0 0 1-1.567-1.182m11.461.147a7 5 0 0 1-1.674 1.168l.977.595a8 6 0 0 0 1.777-1.463zm-2.834 1.632a7 5 0 0 1-2.43.422l.922.922a8 6 0 0 0 2.594-.681z" class="ColorScheme-Text" style="fill-opacity:1;stroke:none;fill:currentColor" fill="currentColor"/>
</svg>
