<svg xmlns="http://www.w3.org/2000/svg" width="16" height="16" viewBox="-3 -3 22 22">
<style id="current-color-scheme" type="text/css">
.ColorScheme-Contrast{color:#dedede}
</style>
<path d="M8 1a7 7 0 0 0-6.707 5h1.06A6 6 0 0 1 8 2a6 6 0 0 1 5.813 4.588l-2.133-.57a.5.5 0 0 0-.612.353.5.5 0 0 0 .354.611l2.898.778a.5.5 0 0 0 .612-.354l.777-2.898a.5.5 0 0 0-.967-.258l-.289 1.076A7 7 0 0 0 8 1M1.479 8a.5.5 0 0 0-.461.371L.24 11.27a.5.5 0 1 0 .967.258l.273-1.023A7 7 0 0 0 8 15a7 7 0 0 0 6.707-5h-1.06A6 6 0 0 1 8 14a6 6 0 0 1-5.865-4.812l2.133.572a.5.5 0 1 0 .26-.967l-2.9-.775A.5.5 0 0 0 1.479 8" class="ColorScheme-Contrast" style="paint-order:stroke fill markers"/>
</svg>
