<?xml version='1.0' encoding='ASCII'?>
<svg xmlns="http://www.w3.org/2000/svg" width="16" height="16" viewBox="-3 -3 22 22">
<defs><style id="current-color-scheme" type="text/css">.ColorScheme-Text{color:#fcfcfc; fill:currentColor;}</style></defs><path fill="currentColor" d="M4.8 0s-.43-.013-.876.229C3.478.469 3 1.126 3 1.867V14a1 1 0 0 0 1.545.838L8 12.592l3.455 2.246A1 1 0 0 0 13 14V1.867s.015-.406-.191-.853S11.96 0 11.199 0zm0 1h6.4c.8 0 .8.867.8.867V14l-4-2.6L4 14V1.867C4 1.001 4.8 1 4.8 1" style="font-feature-settings:normal;font-variant-alternates:normal;font-variant-caps:normal;font-variant-ligatures:normal;font-variant-numeric:normal;font-variant-position:normal;isolation:auto;mix-blend-mode:normal;shape-padding:0;text-decoration-text-decoration-line:none;text-decoration-style:solid;text-indent:0;text-orientation:mixed;text-transform:none;white-space:normal;fill:currentColor" class="ColorScheme-Text"/>
</svg>
