<?xml version='1.0' encoding='ASCII'?>
<svg xmlns="http://www.w3.org/2000/svg" width="16" height="16" viewBox="-3 -3 22 22">
<defs><style id="current-color-scheme" type="text/css">.ColorScheme-Text{color:#fcfcfc; fill:currentColor;}</style></defs><path d="M1 2v11h5c1 0 2 1 2 1s1-.996 2-1h5V2h-5C9 2 8 3 8 3S7 2 6 2zm1 1h4c1 0 2 1 2 1s1-1 2-1h4v9h-4c-1 0-2 1-2 1s-1-1-2-1H2z" class="ColorScheme-Text" style="fill:currentColor" fill="currentColor"/>
<path fill="currentColor" d="M3 5v1h4V5zm6 0v1h4V5zM3 7v1h4V7zm6 0v1h4V7zM3 9v1h4V9zm6 0v1h4V9z" opacity=".3" class="ColorScheme-Text" style="fill:currentColor"/>
</svg>
