<svg xmlns="http://www.w3.org/2000/svg" width="16" height="16" viewBox="-3 -3 22 22">
<path fill="currentColor" fill-rule="evenodd" d="M8 0C6.338 0 5 1.338 5 3v6.026c0 1.662 1.338 3 3 3s3-1.338 3-3V3c0-1.662-1.338-3-3-3m0 1c1.108 0 2 .892 2 2v6.026c0 1.108-.892 2-2 2s-2-.892-2-2V3c0-1.108.892-2 2-2"/>
<path fill="currentColor" fill-rule="evenodd" d="M3.5 7.025c-.277 0-.5.223-.5.5v1.5A4.99 4.99 0 0 0 7.5 14v1.024h-2a.5.5 0 1 0 0 1h5a.5.5 0 1 0 0-1h-2v-1.025A4.99 4.99 0 0 0 13 9.024v-1.5a.5.5 0 1 0-1 0v1.5c0 2.216-1.784 4-4 4s-4-1.784-4-4v-1.5c0-.277-.223-.5-.5-.5z"/>
</svg>
