<svg xmlns="http://www.w3.org/2000/svg" width="16" height="16" viewBox="-3 -3 22 22">
<defs>
<style id="current-color-scheme" type="text/css">
.ColorScheme-Contrast{color:#dedede}
</style>
</defs>
<path d="m8 0-.152.006-.002.002L7.81.01 7.78.008l-.097.008a8 8 0 0 0-.674.052l-.102.016a8 8 0 0 0-.664.12l-.158.038a8 8 0 0 0-.635.184l-.076.027a8 8 0 0 0-.686.272l-.015.007a8 8 0 0 0-.69.356l-.033.021a8 8 0 0 0-.642.42l-.014.01a8 8 0 0 0-.592.477l-.072.066a8 8 0 0 0-.5.492l-.063.07a8 8 0 0 0-.459.555l-.025.037a8 8 0 0 0-.412.61l-.06.103a8 8 0 0 0-.315.586l-.063.139a8 8 0 0 0-.255.623l-.024.068a8 8 0 0 0-.203.67 8 8 0 0 0-.064.268l.003.002-.017.084a8 8 0 0 0-.094.552 8 8 0 0 0-.033.272 8 8 0 0 0-.041.617L0 8a8 8 0 0 0 4.586 7.225l.012.005a8 8 0 0 0 .388.174v.002l.01.004a8 8 0 0 0 .617.217l.155.05a8 8 0 0 0 .539.132 8 8 0 0 0 .257.056 8 8 0 0 0 .514.072 8 8 0 0 0 .277.034A8 8 0 0 0 8 16a8 8 0 0 0 .662-.031v-.002h.014a8 8 0 0 0 .736-.1l.057-.008.011-.002a8 8 0 0 0 .766-.185 8 8 0 0 0 3.654-2.283l.02-.022a8 8 0 0 0 .2-.213l.001-.004-.016.006A8 8 0 0 0 16 8a8 8 0 0 0-.262-1.99h.004l-.021-.065-.004-.013a8 8 0 0 0-.194-.621l-.043-.12a8 8 0 0 0-1.101-2.005l-.03-.038-.023-.029a8 8 0 0 0-1.035-1.107l-.047-.04-.01-.009a8 8 0 0 0-.564-.447l-.07-.051a8 8 0 0 0-.577-.367l-.09-.053A8 8 0 0 0 8 0m0 1 .023.002C8.02 1.124 8 1.243 8 1.367c0 .986.126 1.94.34 2.861a7.46 7.46 0 0 1-4.018 1.725c.43-1.821 1.29-3.47 2.463-4.846a7 7 0 0 1 .494-.062l.213-.026A7 7 0 0 1 8 1m1.018.082.015.004a7 7 0 0 1 .668.133h.004a7 7 0 0 1 .668.205l.024.008a7.5 7.5 0 0 1-1.21 1.955A11.7 11.7 0 0 1 9 1.367c0-.096.015-.189.018-.285m-3.862.531a12.4 12.4 0 0 0-1.873 4.375 7.5 7.5 0 0 1-1.88-.302 7 7 0 0 1 .257-.633l.02-.041a7 7 0 0 1 .31-.586L2 4.41a7 7 0 0 1 .383-.572 7 7 0 0 1 .441-.537l.008-.01a7 7 0 0 1 .483-.48l.023-.02a7 7 0 0 1 .516-.42l.03-.021a7 7 0 0 1 .56-.37l.015-.007a7 7 0 0 1 .611-.32zm6.149.219.006.004a7 7 0 0 1 .593.357 7 7 0 0 1 .5.373l.06.045.007.006a7 7 0 0 1 .45.412l.06.055.003.006a7 7 0 0 1 .336.373l.139.16a7 7 0 0 1 .26.354 7 7 0 0 1 .15.212 7 7 0 0 1 .293.502l.049.084.002.006a7 7 0 0 1 .238.518l.051.113.004.012a7 7 0 0 1 .156.457 7 7 0 0 1 .076.226 8.46 8.46 0 0 0-3.845 1.614 11.6 11.6 0 0 1-1.44-3.164 8.5 8.5 0 0 0 1.852-2.725M8.623 5.268c.36 1.109.866 2.152 1.502 3.103a8.5 8.5 0 0 0-2.457 4.451 11.5 11.5 0 0 1-3.228-1.054A11.6 11.6 0 0 1 4 8.633c0-.568.055-1.12.133-1.666a8.44 8.44 0 0 0 4.49-1.7M1.135 6.635a8.2 8.2 0 0 0 1.986.345A13 13 0 0 0 3 8.633c0 .84.088 1.659.244 2.453A11.5 11.5 0 0 1 1.117 9.26v-.002a7 7 0 0 1-.068-.502l-.028-.223A7 7 0 0 1 1 8a7 7 0 0 1 .035-.7 7 7 0 0 1 .1-.665m13.797.45a7 7 0 0 1 .058.665A7 7 0 0 1 15 8a7 7 0 0 1-.707 3.043l-.023.053a11.7 11.7 0 0 1-2.797-2.569 7.46 7.46 0 0 1 3.459-1.441m-4.213 2.09a12.7 12.7 0 0 0 3.06 2.774l-.002.004a7 7 0 0 1-.283.371c-1.21.427-2.504.676-3.861.676-.328 0-.65-.022-.97-.049a7.47 7.47 0 0 1 2.056-3.775M1.82 11.278c.555.445 1.147.844 1.777 1.188.149.468.33.921.531 1.363l-.006-.004a7 7 0 0 1-.53-.392l-.03-.024a7 7 0 0 1-.514-.467 7 7 0 0 1-.469-.52 7 7 0 0 1-.414-.562 7 7 0 0 1-.346-.582m3.056 1.787a12.5 12.5 0 0 0 2.658.746 9 9 0 0 0-.035.69c0 .16.012.318.022.477l-.01-.002a7 7 0 0 1-1.852-.387l-.008-.002a11 11 0 0 1-.775-1.522m7.06.715-.003.004a7 7 0 0 1-.582.354l-.012.007-.006.002a7 7 0 0 1-.533.26l-.131.057a7 7 0 0 1-.514.187l-.144.047a7 7 0 0 1-.483.125l-.216.049a7 7 0 0 1-.45.066 7 7 0 0 1-.334.041c-.012-.158-.029-.316-.029-.478 0-.187.014-.37.027-.555.365.032.733.055 1.106.055.789 0 1.559-.077 2.305-.22" class="ColorScheme-Contrast" style="fill:currentColor"/>
</svg>
