<?xml version='1.0' encoding='ASCII'?>
<svg xmlns="http://www.w3.org/2000/svg" width="16" height="16" viewBox="-3 -3 22 22">
<defs><style id="current-color-scheme" type="text/css">.ColorScheme-Contrast{color:#dedede; fill:currentColor;}</style></defs><g fill="currentColor" class="ColorScheme-Contrast" style="fill:currentColor">
<path d="M11.812 2.305a3 3 0 0 0-.42.039l.693 1.877c.128.012.278.049.46.111l.318-1.906a4.3 4.3 0 0 0-1.051-.121m-.834.129a2.3 2.3 0 0 0-1.06.68l1.742 1.163zm2.29.103q-.164.976-.325 1.951c.113.048.23.1.363.16.26-.616.55-1.26.783-1.785a6 6 0 0 0-.822-.326m-4.47.533-.601.88c-2.327-.658-4.84.144-6.236 2.185a5.7 5.7 0 0 0 1.5 7.926 5.697 5.697 0 0 0 7.923-1.5c1.386-2.036 1.191-4.695-.254-6.622l.694-.941c-.706-.627-1.39-1.184-2.205-1.625l-.014-.008c-.257-.126-.518-.193-.807-.295m.313 1.375c.246.091.49.18.695.31.212.135.382.325.541.53l-.455.697.154.163a4.656 4.656 0 0 1 .473 5.826 4.657 4.657 0 0 1-6.469 1.224 4.66 4.66 0 0 1-1.224-6.47A4.66 4.66 0 0 1 8.44 5.047l.217.09z" class="ColorScheme-Contrast" fill="currentColor" style="fill:currentColor"/>
<path d="m13.178 1.803-.561 3.368M11.17 2.349l1.183 3.203m-2.907-2.5 2.84 1.895" style="-inkscape-stroke:none;fill:currentColor" class="ColorScheme-Contrast" fill="currentColor"/>
</g>
</svg>
