<svg xmlns="http://www.w3.org/2000/svg" width="16" height="16" viewBox="-3 -3 22 22">
<style id="current-color-scheme" type="text/css">
.ColorScheme-Contrast{color:#dedede}
</style>
<path d="M4 3a3 3 0 0 0-3 3 3 3 0 0 0 3 3 3 3 0 0 0 3-3 3 3 0 0 0-3-3m0 1a2 2 0 0 1 2 2 2 2 0 0 1-2 2 2 2 0 0 1-2-2 2 2 0 0 1 2-2m8-1a3 3 0 0 0-3 3 3 3 0 0 0 3 3 3 3 0 0 0 1.988-.756A4 4 0 0 1 10 12a4 4 0 0 1-1-.133v1.028A5 5 0 0 0 10 13a5 5 0 0 0 5-5V6a3 3 0 0 0-3-3m0 1a2 2 0 0 1 2 2 2 2 0 0 1-2 2 2 2 0 0 1-2-2 2 2 0 0 1 2-2" class="ColorScheme-Contrast" style="fill:currentColor"/>
</svg>
