<svg xmlns="http://www.w3.org/2000/svg" viewBox="0 0 22 22">
<defs id="defs3051">
<style id="current-color-scheme" type="text/css">
.ColorScheme-Text{color:#dedede}.ColorScheme-Highlight{color:#3daee9}
</style>
</defs>
<path d="M339 539.362v12h1v-1.361a4 4 0 0 0 3 1.361 4 4 0 0 0 4-4 4 4 0 0 0-4-4 4 4 0 0 0-3 1.362v-5.362zm4 5a3 3 0 0 1 3 3 3 3 0 0 1-3 3 3 3 0 0 1-3-3 3 3 0 0 1 3-3" class="ColorScheme-Text" style="fill:currentColor;fill-opacity:1;stroke:none" transform="translate(-326 -534.362)"/>
<path d="m331.672 537.362-4.841 14H328l1.735-4.666h6.04l1.728 4.666h1.328l-4.907-14zm1.09 1.201 2.58 6.966h-5.172z" class="ColorScheme-Highlight" style="fill:currentColor;fill-opacity:1;stroke:none" transform="translate(-326 -534.362)"/>
</svg>
