<?xml version='1.0' encoding='ASCII'?>
<svg xmlns="http://www.w3.org/2000/svg" viewBox="0 0 22 22">
<defs><style id="current-color-scheme" type="text/css">.ColorScheme-Contrast{color:#dedede; fill:currentColor;}</style></defs><path d="M333 537.362v11.504a2.5 2.5 0 0 0-1.5-.504 2.5 2.5 0 0 0-2.5 2.5 2.5 2.5 0 0 0 2.5 2.5 2.5 2.5 0 0 0 2.5-2.5v-9.5h10v5.504a2.5 2.5 0 0 0-1.5-.504 2.5 2.5 0 0 0-2.5 2.5 2.5 2.5 0 0 0 2.5 2.5 2.5 2.5 0 0 0 2.5-2.5v-11.5zm1 1h10v2h-10z" class="ColorScheme-Contrast" style="fill-opacity:1;stroke:none;fill:currentColor" transform="translate(-326 -534.362)" fill="currentColor"/>
</svg>
