<svg xmlns="http://www.w3.org/2000/svg" width="16" height="16" viewBox="-3 -3 22 22">
<g fill="#dedede" fill-rule="evenodd" stroke-linecap="round" stroke-linejoin="round">
<path d="M0 0v16h13v-4h-1v3H1V1h7v4h5V4L9 0zm9 1.414L11.586 4H9z" style="paint-order:stroke fill markers"/>
<path d="M6.5 6a2.495 2.495 0 0 0-2.496 2.627v.01q.009.185.045.363c.23 1.144 1.237 2 2.451 2h1.56a3.5 3.5 0 0 1-.718-1H6.5a1.5 1.5 0 0 1-1.467-1.187q0-.008-.002-.014l-.02-.117-.003-.041a1.5 1.5 0 0 1 0-.295A1.496 1.496 0 0 1 6.5 7h3a1.5 1.5 0 0 1 1.467 1.188l.002.013q.012.058.02.117l.005.051Q11 8.434 11 8.5a1.5 1.5 0 0 1-.086.5h1.037a2.5 2.5 0 0 0 .045-.629v-.008A2.494 2.494 0 0 0 9.5 6H8.06zm5.44 0c.294.287.539.625.718 1h.842a1.5 1.5 0 0 1 1.467 1.188q0 .007.002.013.012.058.02.117l.003.041a1.5 1.5 0 0 1 0 .295A1.496 1.496 0 0 1 13.5 10h-3a1.5 1.5 0 0 1-1.467-1.188l-.002-.013-.02-.117-.005-.051a1.5 1.5 0 0 1 .08-.63H8.049a2.5 2.5 0 0 0-.045.628v.008q.009.185.045.363c.23 1.144 1.237 2 2.451 2h3a2.495 2.495 0 0 0 2.496-2.627v-.01A2.494 2.494 0 0 0 13.5 6z" color="#000" style="-inkscape-stroke:none;paint-order:stroke fill markers"/>
</g>
</svg>
