<?xml version='1.0' encoding='ASCII'?>
<svg xmlns="http://www.w3.org/2000/svg" viewBox="0 0 22 22">
<defs><style id="current-color-scheme" type="text/css">.ColorScheme-Text{color:#fcfcfc; fill:currentColor;}</style></defs><path d="M10.5 1033.362a2.495 2.495 0 0 0-2.5 2.5v2.5l-5 5 6 6 7-7-3-3v-3.5c0-1.385-1.115-2.5-2.5-2.5m0 1c.831 0 1.5.67 1.5 1.5v2.5l-2-2-1 1v-1.5c0-.83.669-1.5 1.5-1.5m-.5 3.414 4.535 4.537c-3.535 4.05-5.536-1.95-10.12 1.05zm7.5 3.586s-1.5 2.672-1.5 3.5a1.5 1.5 0 0 0 3 0c0-.828-1.5-3.5-1.5-3.5" class="ColorScheme-Text" style="fill-opacity:1;stroke:none;fill:currentColor" transform="translate(0 -1030.362)" fill="currentColor"/>
</svg>
