<?xml version='1.0' encoding='ASCII'?>
<svg xmlns="http://www.w3.org/2000/svg" width="16" height="16" viewBox="-3 -3 22 22">
<defs><style id="current-color-scheme" type="text/css">.ColorScheme-Contrast{color:#dedede; fill:currentColor;}</style></defs><path fill="currentColor" fill-rule="evenodd" d="M4 1a3 3 0 0 1-3 3v7a4 4 0 0 1 .504.031l.014.002a4 4 0 0 1 .46.09 4 4 0 0 1 2.897 2.887l.008.031.006.025.025.106.004.02.002.013.004.014.021.117.002.017.002.016.002.006.004.025.01.067.004.033.004.03.007.07.002.02.004.046.002.02.002.052.004.06.002.036.004.133V15h10V6c0-2.77-2.23-5-5-5zm.867 1H10c2.216 0 4 1.784 4 4v3h.01v4.977H5.895A5 5 0 0 0 2 10.102V4.867A4 4 0 0 0 4.867 2" style="paint-order:stroke fill markers;fill:currentColor" class="ColorScheme-Contrast"/>
</svg>
