<?xml version='1.0' encoding='ASCII'?>
<svg xmlns="http://www.w3.org/2000/svg" viewBox="0 0 22 22">
<defs><style id="current-color-scheme" type="text/css">.ColorScheme-Contrast{color:#dedede; fill:currentColor;}</style></defs><path d="M547.571 746.434v15h16v-15zm1 1h1v1h-1zm2 0h10v5.5h-10zm11 0h1v1h-1zm-13 3h1v1h-1zm13 0h1v1h-1zm-13 3h1v1h-1zm13 0h1v1h-1zm-11 1.5h10v5.5h-10zm-2 1.5h1v1h-1zm13 0h1v1h-1zm-13 3h1v1h-1zm13 0h1v1h-1z" class="ColorScheme-Contrast" style="fill-opacity:1;stroke:none;fill:currentColor" transform="translate(-544.571 -742.934)" fill="currentColor"/>
</svg>
