<svg xmlns="http://www.w3.org/2000/svg" viewBox="0 0 22 22">
<defs id="defs3051">
<style id="current-color-scheme" type="text/css">
.ColorScheme-Text{color:#dedede}
</style>
</defs>
<path d="M11 3a8 8 0 1 0 0 16 8 8 0 0 0 0-16m0 1a7 7 0 0 1 4.531 1.666v.002l.031.05L11 10.282 6.438 5.72l.019-.033A7 7 0 0 1 11 4M5.719 6.438 10.28 11l-4.56 4.563c-.102-.122-.168-.188-.262-.297A7 7 0 0 1 4 11a7 7 0 0 1 1.666-4.53zm10.562 0 .024.007A7 7 0 0 1 18 11a7 7 0 0 1-1.678 4.545c-.015.008-.025.009-.04.018L11.718 11zM11 11.718l4.563 4.563-.012.026A7 7 0 0 1 11 18a7 7 0 0 1-4.559-1.693l-.003-.026z" class="ColorScheme-Text" style="fill:currentColor;fill-opacity:1;stroke:none"/>
</svg>
