<?xml version='1.0' encoding='ASCII'?>
<svg xmlns="http://www.w3.org/2000/svg" width="16" height="16" viewBox="-3 -3 22 22">
<defs><style id="current-color-scheme" type="text/css">.ColorScheme-Text{color:#fcfcfc; fill:currentColor;}</style></defs><path d="M7.987 1a6 6 0 0 1 6 6c0 2.867-1.935 5.506-5.732 7.922a.5.5 0 0 1-.536 0C3.922 12.506 1.987 9.867 1.987 7a6 6 0 0 1 6-6m0 1a5 5 0 0 0-5 5c0 2.325 1.54 4.558 4.68 6.692l.32.213.32-.213c3.14-2.134 4.68-4.367 4.68-6.692a5 5 0 0 0-5-5m0 3.5a1.5 1.5 0 1 1 0 3 1.5 1.5 0 0 1 0-3" class="ColorScheme-Text" style="fill:currentColor" fill="currentColor"/>
</svg>
