<?xml version='1.0' encoding='ASCII'?>
<svg xmlns="http://www.w3.org/2000/svg" width="16" height="16" viewBox="-3 -3 22 22">
<defs><style id="current-color-scheme" type="text/css">.ColorScheme-Text{color:#fcfcfc; fill:currentColor;}</style></defs><path fill="currentColor" fill-rule="evenodd" d="M5 8a2 2 0 0 0-2 2 2 2 0 0 0 2 2 2 2 0 0 0 2-2 2 2 0 0 0-2-2m0 1a1 1 0 0 1 1 1 1 1 0 0 1-1 1 1 1 0 0 1-1-1 1 1 0 0 1 1-1m7-4a2 2 0 0 0-2 2 2 2 0 0 0 2 2 2 2 0 0 0 2-2 2 2 0 0 0-2-2m0 1a1 1 0 0 1 1 1 1 1 0 0 1-1 1 1 1 0 0 1-1-1 1 1 0 0 1 1-1" style="paint-order:stroke fill markers;fill:currentColor" class="ColorScheme-Text"/>
<path fill="currentColor" d="M13.471 6.424q-.317.001-.645.013A1 1 0 0 1 13 7a1 1 0 0 1-.105.445 30 30 0 0 1 3.08.084l.094-.996s-.762-.076-1.787-.101a24 24 0 0 0-.811-.008m-2.389.183-.166.03c-1.9.37-3.888 1.613-5.39 2.513A1 1 0 0 1 6 10l-.002.037c1.545-.91 3.49-2.105 5.108-2.42l.097-.015A1 1 0 0 1 11 7a1 1 0 0 1 .082-.393M4.008 9.898c-.64.188-1.437.305-2.144.356-1.018.073-1.84.039-1.84.039l-.043.998s.877.036 1.955-.041c.797-.057 1.703-.163 2.5-.426A1 1 0 0 1 4 10a1 1 0 0 1 .008-.102" style="-inkscape-stroke:none;fill:currentColor" class="ColorScheme-Text"/>
</svg>
