<svg xmlns="http://www.w3.org/2000/svg" viewBox="0 0 22 22">
<defs>
<style id="current-color-scheme" type="text/css">
.ColorScheme-Text{color:#dedede}
</style>
</defs>
<path fill="currentColor" d="M16.5 11a3.5 3.5 0 1 0 0 7 3.5 3.5 0 0 0 0-7m0 1a2.5 2.5 0 0 1 1.377.416l-.732.732A1.5 1.5 0 0 0 16.5 13a1.5 1.5 0 0 0-1.5 1.5c.001.223.052.443.148.645l-.732.732A2.5 2.5 0 0 1 16.5 12m2.084 1.123a2.5 2.5 0 0 1-3.461 3.461l.732-.732A1.5 1.5 0 0 0 16.5 16a1.5 1.5 0 0 0 1.5-1.5 1.5 1.5 0 0 0-.148-.645z" class="ColorScheme-Text"/>
<path fill="currentColor" d="M4 3c-1.108 0-2 .892-2 2v11c0 1.108.892 2 2 2h8v-1H4c-.554 0-1-.446-1-1V8h16v2h1V6c0-1.108-.892-2-2-2H8.371c-.58-.023-.605.077-1.039-.357S6.719 3 6 3zm0 1h2c.311 0 .52 0 .998.47.479.472.639.53 1 .53H18c.554 0 1 .446 1 1v1H3V5c0-.554.446-1 1-1" class="ColorScheme-Text"/>
</svg>
