<svg xmlns="http://www.w3.org/2000/svg" viewBox="0 0 22 22">
<defs>
<style id="current-color-scheme" type="text/css">
.ColorScheme-Text{color:#dedede}
</style>
</defs>
<path fill="currentColor" d="M16 12v1h-1v5h5v-5h-1v-1zm0 2h3v3h-3z" class="ColorScheme-Text"/>
<path fill="currentColor" d="M4 3c-1.108 0-2 .892-2 2v11c0 1.108.892 2 2 2h10v-1H4c-.554 0-1-.446-1-1V8h16v3h1V6c0-1.108-.892-2-2-2H8.371c-.58-.023-.605.077-1.039-.357S6.719 3 6 3zm0 1h2c.311 0 .52 0 .998.47.479.472.639.53 1 .53H18c.554 0 1 .446 1 1v1H3V5c0-.554.446-1 1-1" class="ColorScheme-Text"/>
</svg>
