<?xml version='1.0' encoding='ASCII'?>
<svg xmlns="http://www.w3.org/2000/svg" viewBox="0 0 22 22">
<defs><style id="current-color-scheme" type="text/css">.ColorScheme-Contrast{color:#dedede; fill:currentColor;}</style></defs><path fill="currentColor" d="M16.5 11a3.5 3.5 0 0 0-3.5 3.5 3.5 3.5 0 0 0 3.5 3.5 3.5 3.5 0 0 0 3.5-3.5 3.5 3.5 0 0 0-3.5-3.5m0 1c.277 0 .5.223.5.5V14h1.5a.499.499 0 1 1 0 1H17v1.5a.499.499 0 1 1-1 0V15h-1.5a.499.499 0 1 1 0-1H16v-1.5c0-.277.223-.5.5-.5" class="ColorScheme-Contrast" style="fill:currentColor"/>
<path fill="currentColor" d="M4 3c-1.108 0-2 .892-2 2v11c0 1.108.892 2 2 2h8v-1H4c-.554 0-1-.446-1-1V8h16v2h1V6c0-1.108-.892-2-2-2H8.371c-.58-.023-.605.077-1.039-.357S6.719 3 6 3zm0 1h2c.311 0 .52 0 .998.47.479.472.639.53 1 .53H18c.554 0 1 .446 1 1v1H3V5c0-.554.446-1 1-1" class="ColorScheme-Contrast" style="fill:currentColor"/>
</svg>
