<?xml version='1.0' encoding='ASCII'?>
<svg xmlns="http://www.w3.org/2000/svg" viewBox="0 0 22 22">
<defs><style id="current-color-scheme" type="text/css">.ColorScheme-Contrast{color:#dedede; fill:currentColor;}</style></defs><path d="M11.5 2C9.72 2 8.3 3.361 8.084 5.084 6.361 5.3 5 6.72 5 8.5c0 1.593 1.082 2.93 2.543 3.35l2.99 7.964a.5.5 0 0 0 .938 0l2.984-7.964C15.917 11.43 17 10.094 17 8.5c-.002-1.338-.833-2.464-2.01-3.049A3.5 3.5 0 0 0 11.5 2m0 1A2.49 2.49 0 0 1 14 5.498l-.008.13a.5.5 0 0 0 .334.517A2.49 2.49 0 0 1 16 8.5c0 1.387-1.113 2.5-2.5 2.5-.84 0-1.62-.421-2.082-1.121a.5.5 0 0 0-.836 0A2.5 2.5 0 0 1 8.5 11 2.49 2.49 0 0 1 6 8.5C6 7.113 7.113 6 8.5 6a.5.5 0 0 0 .5-.5C9 4.113 10.113 3 11.5 3m-.5 7.81c.618.665 1.427 1.119 2.338 1.17l-2.34 6.24-2.338-6.24c.912-.05 1.721-.504 2.34-1.17" class="ColorScheme-Contrast" style="fill:currentColor" fill="currentColor"/>
</svg>
