<?xml version='1.0' encoding='ASCII'?>
<svg xmlns="http://www.w3.org/2000/svg" viewBox="0 0 22 22">
<defs><style id="current-color-scheme" type="text/css">.ColorScheme-Text{color:#fcfcfc; fill:currentColor;}</style></defs><path d="M5.035 7 1 19h.975l1.445-4h5.033l1.442 4H11L6.91 7zM12 7v12h1v-1.361A4 4 0 0 0 16 19a4 4 0 0 0 4-4 4 4 0 0 0-4-4 4 4 0 0 0-3 1.361V7zM5.943 8.03 8.092 14H3.783zM16 12a3 3 0 0 1 3 3 3 3 0 0 1-3 3 3 3 0 0 1-3-3 3 3 0 0 1 3-3" class="ColorScheme-Text" style="fill-opacity:1;stroke:none;fill:currentColor" fill="currentColor"/>
<path d="m424.714 531.79 3-4 3 4z" class="ColorScheme-Text" style="fill-opacity:1;stroke:none;fill:currentColor" transform="translate(-421.714 -525.79)" fill="currentColor"/>
</svg>
