<?xml version='1.0' encoding='ASCII'?>
<svg xmlns="http://www.w3.org/2000/svg" viewBox="0 0 22 22">
<defs><style id="current-color-scheme" type="text/css">.ColorScheme-Contrast{color:#dedede; fill:currentColor;}</style></defs><path d="M6.943 3 3 9.828V10h1.057L5.21 8h4.578l1.154 2H12v-.172L8.057 3zM15 3v13h1V3zm3 0v13h1V3zM7.5 4.037 9.21 7H5.79zM3 11v5h1v-5zm3 0v5h1v-5zm3 0v5h1v-5zm3 0v5h1v-5zm-9 6 2 2 2-2zm6 0 2 2 2-2zm6 0 2 2 2-2z" class="ColorScheme-Contrast" style="fill-opacity:1;stroke:none;fill:currentColor" fill="currentColor"/>
</svg>
