<?xml version='1.0' encoding='ASCII'?>
<svg xmlns="http://www.w3.org/2000/svg" viewBox="0 0 22 22">
<defs><style id="current-color-scheme" type="text/css">.ColorScheme-Text{color:#fcfcfc; fill:currentColor;}</style></defs><path d="M3.5 3c-.171 0-.335.025-.5.049V5c1.108 0 2 .892 2 2v8c0 1.108-.892 2-2 2v1.951c.165.024.329.049.5.049H14c2.77 0 5-2.23 5-5 0-2.205-1.423-4.047-3.396-4.715A3.492 3.492 0 0 0 13.5 3zM9 5h2c1.108 0 2 .892 2 2s-.892 2-2 2H9zm0 6h3c1.662 0 3 1.338 3 3s-1.338 3-3 3H9z" class="ColorScheme-Text" style="fill-opacity:1;stroke:none;fill:currentColor" fill="currentColor"/>
</svg>
