<svg xmlns="http://www.w3.org/2000/svg" viewBox="0 0 22 22">
<defs id="defs3051">
<style id="current-color-scheme" type="text/css">
.ColorScheme-Text{color:#dedede}
</style>
</defs>
<path d="M11.996 3.002 4.67 10.328l-.002-.004-1.414 1.414.002.004-.25.25H3V16h4.008l.252-.252.353-.353.707-.707.356-.354 7.322-7.33-3.998-4zm-.584 1.996L14 7.588l-4.268 4.267-2.587-2.59zM6.437 9.973l2.588 2.59-.707.707-2.59-2.59.274-.272zm-1.416 1.414 2.59 2.59.004.002-.707.707-.004-.002-2.59-2.59zM3 18v1h16v-1z" class="ColorScheme-Text" style="fill:currentColor;fill-opacity:1;stroke:none"/>
</svg>
