<svg xmlns="http://www.w3.org/2000/svg" width="16" height="16" viewBox="-3 -3 22 22">
<g fill="#dedede">
<path d="M8 8h6v1H8zm0 5h6v.984H8zM8 3h6v1H8z" color="#000"/>
<g color="#dedede">
<path d="M2.282 4.948V4.36h1.212V1.657l-1.174.594V1.63L3.546.986h.924V4.36h1.12v.588z" aria-label="1"/>
<path d="M2.22 10.05v-.557q.189-.345.535-.672.35-.328.878-.684.506-.342.709-.564.205-.222.205-.436 0-.525-.634-.525-.308 0-.472.14-.16.137-.21.414l-.97-.046q.083-.558.5-.853.422-.293 1.145-.293.782 0 1.2.295.418.298.418.833 0 .282-.133.51t-.342.422q-.21.19-.468.36l-.493.328q-.24.158-.438.321-.196.162-.291.347H5.6v.66z" aria-label="2"/>
<path d="M5.6 13.877q0 .588-.43.908-.427.32-1.218.32-.747 0-1.189-.308-.443-.312-.517-.896l.942-.074q.089.601.76.601.333 0 .52-.148t.183-.453q0-.279-.224-.427t-.666-.148H3.44v-.673h.303q.397 0 .599-.145.202-.148.202-.421 0-.259-.163-.403-.158-.148-.464-.148-.286 0-.465.142-.174.143-.2.403l-.927-.059q.074-.54.499-.846t1.109-.305q.729 0 1.137.296.411.294.411.816 0 .392-.256.643-.253.252-.734.335v.011q.532.057.82.32.29.256.29.66" aria-label="3"/>
</g>
</g>
</svg>
