<?xml version='1.0' encoding='ASCII'?>
<svg xmlns="http://www.w3.org/2000/svg" viewBox="0 0 22 22">
<defs><style id="current-color-scheme" type="text/css">.ColorScheme-Text{color:#fcfcfc; fill:currentColor;}</style></defs><path d="M6.943 3 3 9.828V10h1.057L5.21 8h4.578l1.154 2H12v-.172L8.057 3zM11 3v1h5V3zm6 0v4l2-2zM7.5 4.037 9.21 7H5.79zM12 6v1h4V6zm1 3v1h3V9zm4 0v4l2-2zM3 12v1h13v-1zm0 3v1h13v-1zm14 0v4l2-2zM3 18v1h13v-1z" class="ColorScheme-Text" style="fill-opacity:1;stroke:none;fill:currentColor" fill="currentColor"/>
</svg>
