<svg xmlns="http://www.w3.org/2000/svg" viewBox="0 0 22 22">
<defs id="defs3051">
<style id="current-color-scheme" type="text/css">
.ColorScheme-Text{color:#dedede}
</style>
</defs>
<path d="m16.48 2.611-12 15.998.57.428.356.274.004-.004.11.082 12-16-.47-.352-.456-.351-.004.007zM6.5 3.998a3.5 3.5 0 1 0 0 7 3.5 3.5 0 0 0 0-7m0 1a2.5 2.5 0 1 1 0 5 2.5 2.5 0 0 1 0-5m9 7a3.5 3.5 0 1 0 0 7 3.5 3.5 0 0 0 0-7m0 1a2.5 2.5 0 1 1 0 5 2.5 2.5 0 0 1 0-5" class="ColorScheme-Text" style="fill:currentColor;fill-opacity:1;stroke:none"/>
</svg>
