<?xml version='1.0' encoding='ASCII'?>
<svg xmlns="http://www.w3.org/2000/svg" width="16" height="16" viewBox="-3 -3 22 22">
<defs><style id="current-color-scheme" type="text/css">.ColorScheme-Contrast{color:#dedede; fill:currentColor;}</style></defs><g fill="currentColor" class="ColorScheme-Contrast" style="fill:currentColor">
<path d="M5 2v1h1l-2 9H3v1h3v-1h-.911L6 8h3v1h1V6H9v1H6.221l1-4h4.78v1h1V2z" class="ColorScheme-Contrast" fill="currentColor" style="fill:currentColor"/>
<path fill-rule="evenodd" d="M9 10v1c0 .277.112.526.293.707l.793.793-.793.793A1 1 0 0 0 9 14v1h1a1 1 0 0 0 .707-.293l.793-.793.793.793c.18.18.43.293.707.293h1v-1a1 1 0 0 0-.293-.707l-.793-.793.793-.793A1 1 0 0 0 14 11v-1h-1a1 1 0 0 0-.707.293l-.793.793-.793-.793A1 1 0 0 0 10 10z" color="#dedede" font-family="sans-serif" font-weight="400" overflow="visible" style="line-height:normal;text-indent:0;text-align:start;text-decoration-line:none;text-decoration-style:solid;text-decoration-color:#dedede;text-transform:none;isolation:auto;mix-blend-mode:normal;fill:currentColor" class="ColorScheme-Contrast" fill="currentColor"/>
</g>
</svg>
