<?xml version='1.0' encoding='ASCII'?>
<svg xmlns="http://www.w3.org/2000/svg" width="16" height="16" viewBox="-3 -3 22 22">
<defs><style id="current-color-scheme" type="text/css">.ColorScheme-Text{color:#fcfcfc; fill:currentColor;}</style></defs><path d="m11.28.406-.687.719 2.406 2.406v2.781l.187.125.813.781v4.309c0 .962-.307 1.504-.994 1.504-.611 0-1.006-.479-1.006-1.479l.004-2.084c0-.903-.574-1.468-1.555-1.468h-.45V3c0-1.108-.891-2-2-2h-5c-1.107 0-2 .892-2 2v11c-.553 0-1 .446-1 1h11c0-.554-.445-1-1-1V9h.419c.324 0 .586.252.586.468v2.084c0 1.666.99 2.463 1.996 2.463 1.287 0 2-.805 2-2.463v-7.49l-.157-.156zM2.999 2h5c.554 0 1 .446 1 1v4h-7V3c0-.554.446-1 1-1m-1 6h7v6h-7z" class="ColorScheme-Text" style="fill:currentColor" fill="currentColor"/>
</svg>
