<?xml version='1.0' encoding='ASCII'?>
<svg xmlns="http://www.w3.org/2000/svg" viewBox="0 0 22 22">
<defs><style id="current-color-scheme" type="text/css">.ColorScheme-Contrast{color:#dedede; fill:currentColor;}</style></defs><path d="M12 4C9.784 4 8 5.784 8 8c0 1.483.807 2.758 2 3.45V20l2-2 2 2v-8.55A3.98 3.98 0 0 0 16 8c0-2.216-1.784-4-4-4m0 1c1.662 0 3 1.338 3 3s-1.338 3-3 3-3-1.338-3-3 1.338-3 3-3m0 1-.62 1.316-1.38.211 1 1.026L10.764 10 12 9.316l1.236.684L13 8.553l1-1.026-1.38-.21z" class="ColorScheme-Contrast" style="fill-opacity:1;stroke:none;fill:currentColor" fill="currentColor"/>
</svg>
