<?xml version='1.0' encoding='ASCII'?>
<svg xmlns="http://www.w3.org/2000/svg" viewBox="0 0 22 22">
<defs><style id="current-color-scheme" type="text/css">.ColorScheme-Text{color:#fcfcfc; fill:currentColor;}</style></defs><path d="M4 4v16h16V4zm1 1h2v2H5zm3 0h2v2H8zm3 0h2v2h-2zm3 0h2v2h-2zm3 0h2v2h-2zM5 8h2v2H5zm3 0h2v2H8zm3 0h2v2h-2zm3 0h2v2h-2zm3 0h2v2h-2zM5 11h2v2H5zm3 0h2v2H8zm3 0h2v2h-2zm3 0h2v2h-2zm3 0h2v2h-2zM5 14h2v2H5zm3 0h2v2H8zm3 0h2v2h-2zm3 0h2v2h-2zm3 0h2v2h-2zM5 17h2v2H5zm3 0h2v2H8zm3 0h2v2h-2zm3 0h2v2h-2zm3 0h2v2h-2z" class="ColorScheme-Text" style="fill-opacity:1;stroke:none;fill:currentColor" fill="currentColor"/>
</svg>
