<?xml version='1.0' encoding='ASCII'?>
<svg xmlns="http://www.w3.org/2000/svg" width="16" height="16" viewBox="-3 -3 22 22">
<defs><style id="current-color-scheme" type="text/css">.ColorScheme-Text{color:#fcfcfc; fill:currentColor;}</style></defs><path d="M2 2v3h3V2zm5 0v3h3V2zm5 0v3h3V2zM3 3h1v1H3zm5 0h1v1H8zm5 0h1v1h-1zM2 7v3h3V7zm5 0v3h3V7zm5 0v3h3V7zM3 8h1v1H3zm5 0h1v1H8zm5 0h1v1h-1zM2 12v3h3v-3zm5 0v3h3v-3zm5 0v3h3v-3zm-9 1h1v1H3zm5 0h1v1H8zm5 0h1v1h-1z" class="ColorScheme-Text" style="stroke:none;stroke-width:0;stroke-miterlimit:4;stroke-dasharray:none;stroke-opacity:1;fill-opacity:1;fill:currentColor" fill="currentColor"/>
</svg>
