<?xml version='1.0' encoding='ASCII'?>
<svg xmlns="http://www.w3.org/2000/svg" id="svg6" version="1.1" viewBox="0 0 22 22">
<defs><style id="current-color-scheme" type="text/css">.ColorScheme-Text{color:#fcfcfc; fill:currentColor;}</style></defs><path id="path4" fill="currentColor" d="M10 2v2.13c-.977.143-1.81.4-2.463.802q-1.515.922-1.516 2.83C6.017 9.957 7.58 10.68 10 11.346v4.99c-1.173-.1-2.245-.32-3.377-.803L6 16.89q.847.451 2.29.785c.543.122 1.11.2 1.71.254V20h1v-2.023c.17.004.314.023.494.023.164-.001.336-.015.506-.023V20h1v-2.12c1.997-.284 3.98-1.201 3.959-3.687-.07-1.829-1.203-2.507-3.959-3.476V5.764c.903.12 2.002.372 3.225.982L17 5.203c-.55-.295-1.831-.766-2.646-.941a12 12 0 0 0-1.354-.2V2h-1v2.014c-.092-.002-.178-.014-.271-.014-.257 0-.488.02-.729.033V2zm1.438 3.648c.15.001.362.01.562.018v4.701c-.157-.053-.255-.093-.422-.148-.179-.044-.385-.108-.578-.16V5.662c.146-.006.292-.014.438-.014M10 5.76v3.996c-1.227-.435-2.357-1.091-2.324-2.19C7.616 6.526 8.68 5.976 10 5.76m1 5.853c.184.047.33.092.521.14l.479.145v4.493c-.15.003-.311.018-.451.017-.192-.002-.365-.014-.549-.02zm2 .598c1.281.448 2.32 1.035 2.297 2.064-.039 1.396-1.132 1.883-2.297 2.05z" class="ColorScheme-Text" style="fill:currentColor"/>
</svg>
