<svg xmlns="http://www.w3.org/2000/svg" id="svg8" version="1.1" viewBox="0 0 22 22">
<defs id="defs3051">
<style id="current-color-scheme" type="text/css">
.ColorScheme-Text{color:#fcfcfc}
</style>
</defs>
<path id="path4" fill="currentColor" d="M7.5 2C5.567 2 4 3.79 4 6v3c0 2.21 1.567 4 3.5 4S11 11.21 11 9V6c0-2.21-1.567-4-3.5-4m8 0C13.567 2 12 3.79 12 6v3c0 2.21 1.567 4 3.5 4S19 11.21 19 9V6c0-2.21-1.567-4-3.5-4m-8 1C8.88 3 10 4.343 10 6v3c0 1.657-1.12 3-2.5 3S5 10.657 5 9V6c0-1.657 1.12-3 2.5-3m8 0C16.88 3 18 4.343 18 6v3c0 1.657-1.12 3-2.5 3S13 10.657 13 9V6c0-1.657 1.12-3 2.5-3M3 12v1h1v-1z" class="ColorScheme-Text"/>
<path id="path6" fill="#1d99f3" d="M15 14v2h-2v1h2v2h1v-2h2v-1h-2v-2z"/>
</svg>
