<svg xmlns="http://www.w3.org/2000/svg" id="svg10" version="1.1" viewBox="0 0 22 22">
<defs id="defs3051">
<style id="current-color-scheme" type="text/css">
.ColorScheme-Contrast{color:#dedede}
</style>
</defs>
<path id="path4" fill="#b3b3b3" d="M16.5 3C14.567 3 13 4.79 13 7v3c0 2.21 1.567 4 3.5 4s3.5-1.79 3.5-4V7c0-2.21-1.567-4-3.5-4m0 1C17.88 4 19 5.343 19 7v3c0 1.657-1.12 3-2.5 3S14 11.657 14 10V7c0-1.657 1.12-3 2.5-3"/>
<path id="path6" fill="#da4453" d="m15.086 15-.707.707 1.414 1.414-1.414 1.414.707.707 1.414-1.414 1.414 1.414.707-.707-1.414-1.414 1.414-1.414-.707-.707-1.414 1.414z"/>
<path id="path8" fill="currentColor" d="M8.5 3C6.567 3 5 4.79 5 7v3c0 2.21 1.567 4 3.5 4s3.5-1.79 3.5-4V7c0-2.21-1.567-4-3.5-4m0 1C9.88 4 11 5.343 11 7v3c0 1.657-1.12 3-2.5 3S6 11.657 6 10V7c0-1.657 1.12-3 2.5-3M3 13v1h1v-1z" class="ColorScheme-Contrast"/>
</svg>
