<?xml version='1.0' encoding='ASCII'?>
<svg xmlns="http://www.w3.org/2000/svg" id="svg8" version="1.1" viewBox="0 0 22 22">
<defs><style id="current-color-scheme" type="text/css">.ColorScheme-Contrast{color:#dedede; fill:currentColor;}</style></defs><path id="path4" fill="currentColor" d="M17.969 7.031c.013.072.031.143.031.219v7.5c0 .693-.557 1.25-1.25 1.25H4.25c-.076 0-.147-.018-.219-.031A1.24 1.24 0 0 0 5.25 17h12.5c.693 0 1.25-.557 1.25-1.25v-7.5c0-.617-.446-1.114-1.031-1.219" class="ColorScheme-Contrast" style="fill:currentColor"/>
<path id="path6" fill="currentColor" d="M4.25 6C3.557 6 3 6.557 3 7.25v7.5c0 .693.557 1.25 1.25 1.25h12.5c.693 0 1.25-.557 1.25-1.25v-7.5C18 6.557 17.443 6 16.75 6zM14 8h1v4H9v2l-3-2.5L9 9v2h5z" class="ColorScheme-Contrast" style="fill:currentColor"/>
</svg>
