<?xml version='1.0' encoding='ASCII'?>
<svg xmlns="http://www.w3.org/2000/svg" id="svg8" version="1.1" viewBox="0 0 22 22">
<defs><style id="current-color-scheme" type="text/css">.ColorScheme-Contrast{color:#dedede; fill:currentColor;}</style></defs><path id="path4" fill="currentColor" d="M6 3a3 3 0 1 0 0 6c1.301 0 2.397-.842 2.813-2h2.406C6.886 9.46 4 13.914 4 19h2c0-6.37 5.301-11.585 12-12h1V5H8.813C8.397 3.842 7.3 3 6 3m0 2a1 1 0 1 1 0 2 1 1 0 0 1 0-2" class="ColorScheme-Contrast" style="fill:currentColor"/>
<path id="path6" fill="currentColor" d="M17.5 7c-.303.014-.398.027-.469.031C10.897 7.277 6 12.306 6 18.5c0 .167.024.334.031.5H19V7Z" class="ColorScheme-Contrast" style="fill:currentColor"/>
</svg>
