<?xml version='1.0' encoding='ASCII'?>
<svg xmlns="http://www.w3.org/2000/svg" viewBox="0 0 22 22">
<defs><style id="current-color-scheme" type="text/css">.ColorScheme-Text{color:#fcfcfc; fill:currentColor;}</style></defs><path d="M11 3h3l4 4v4h-1V8h-4V4h-2zm-6 8v7h6v1H4v-8zm8 1v1h-1v1h1v3h-1v1h1v1h1v-1h3v1h1v-1h1v-1h-1v-3h1v-1h-1v-1h-1v1h-3v-1zm1 2h3v3h-3zM4 3v1H3v1h1v3H3v1h1v1h1V9h3v1h1V9h1V8H9V5h1V4H9V3H8v1H5V3zm1 2h3v3H5z" class="ColorScheme-Text" style="fill-opacity:1;stroke:none;fill:currentColor" fill="currentColor"/>
</svg>
