<svg xmlns="http://www.w3.org/2000/svg" id="svg6" version="1.1" viewBox="0 0 22 22">
<defs id="defs3051">
<style id="current-color-scheme" type="text/css">
.ColorScheme-Text{color:#dedede}
</style>
</defs>
<path id="path4" fill="currentColor" d="M3 4v14h7v-1H4V5h10v4h4v2h1V8l-4-4H4zm12 7a4 4 0 1 0 0 8 4 4 0 0 0 0-8m0 .666c.115 0 .222.01.334.021h.082l.105.02c.096.015.177.041.27.064q.258.064.5.166c.088.038.166.081.25.125v.02c.02.009.03.046.063.064.012.007.01.014.021.02.02.01.045.022.041.041-.005.027-.044.021-.062.041.002.039-.032.038-.042.064.006.017.039.022.042.042-.004.02-.05.02-.042.04.036.029.07.007.104 0 .075-.009.142-.006.188-.04-.006-.036.066-.031.062-.063.02.014.044.027.063.041q-.01.012-.02.02-.022.009-.043.021l-.062.041c-.016.01-.047.063-.063.063-.02 0-.048-.024-.062-.02-.02.007-.019.034-.042.041-.044.016-.13-.024-.146.041.019.038.092.02.125.041.02.013.057.061.063.084a.4.4 0 0 1 0 .125c-.021.053-.084.042-.145.041h-.043c-.103-.007-.203-.052-.25.022.003.056.013.095 0 .144-.01.036-.064.074-.062.106 0 .016.038.04.042.062.003.012-.005.03 0 .041.018.033.052-.007.083 0 .029.007.062.05.062.082a.2.2 0 0 1-.02.084c-.029.044-.083.039-.125.063-.034.02-.041.07-.062.105-.022.037-.052.05-.043.104a.24.24 0 0 1-.125.125c-.018.008-.046.007-.062.02-.014.008-.023.042-.042.064-.023.026-.05.042-.062.062-.01.015-.012.041-.021.063-.015.028-.044.034-.063.062-.009.013-.01.045-.02.063-.02.038-.046.07-.042.103s.04.033.042.063c.002.016-.022.023-.021.04 0 .026.02.045.021.065.005.05-.033.07-.042.104-.005.016.004.028 0 .04-.008.025-.04.055-.042.085 0 .02.04.033.042.062 0 .02-.024.044-.02.063.007.036.075.075.103.103.038.038.087.065.104.106.014.034.017.1.043.125.02.018.057.021.082.04.023.019.038.022.063.042.04.032.103.108.167.103.034-.007.066-.035.104-.04.04-.008.085-.026.125-.022.03.006.072.023.104.021.033-.007.067-.007.105-.021.066-.03.174-.077.27-.063.073.01.073.092.125.125.058.007.1-.011.146 0 .035.009.08.056.084.084.003.029-.039.066-.043.084-.01.039.007.079 0 .104-.005.019-.02.043-.02.062a.2.2 0 0 0 .041.084c.022.028.058.052.084.082.05.056.07.114.104.188.009.018-.008.04 0 .064a.8.8 0 0 1-.125.313c-.035.04-.085.075-.084.125-.003.12.068.196.063.312-.012.156.012.167 0 .25.052.027.015.11 0 .166-.023.066-.05.081-.063.125.035.015.086.01.125 0l-.062.063a3.6 3.6 0 0 1-.5.416 3.3 3.3 0 0 1-1.145.5c-.23.05-.465.062-.709.062q-.19.001-.375-.02-.148-.013-.291-.04c-.189-.04-.367-.119-.543-.188-.006-.011-.021-.03-.02-.043.035-.015.1.05.125 0 .013-.023-.016-.08 0-.103.012-.016.08-.015.104-.02.035-.007.085-.012.105-.021.022-.014.045-.063.041-.104-.002-.02-.025-.026-.04-.043-.013-.015.008-.028 0-.041-.017-.023-.056-.029-.063-.063.048-.009.118.041.187.022.033-.01.089-.073.104-.104.005-.009-.005-.03 0-.043.006-.012.02-.035.021-.04.005-.019-.004-.008 0-.02.012-.034.041-.06.061-.084.015-.019.049-.043.063-.063.016-.02.01-.022.021-.04.01-.061-.036-.115-.021-.169.016-.06.11-.097.167-.125.02-.009.046-.013.063-.02.04-.013.088-.027.125-.04.063-.023.073-.068.103-.125.015-.027.039-.065.042-.084.002-.017-.004-.021 0-.041.003-.02-.006-.04 0-.063A1 1 0 0 0 15 16.48c0-.026-.02-.038-.021-.062-.005-.087.03-.078.062-.125.016-.023.032-.067.043-.084.054-.08.151-.107.145-.229-.003-.04-.034-.133-.063-.146l-.062-.022c-.08-.029-.147-.118-.229-.125h-.041c-.032 0-.07-.014-.105-.02-.023-.006-.07.008-.083 0-.02-.01-.026-.05-.042-.062-.014-.009-.042-.014-.063-.021-.033-.012-.044-.04-.082-.041-.012 0-.03.007-.043 0-.02-.007-.041-.01-.06-.022-.025-.014-.053-.02-.063-.04.022-.072-.048-.084-.063-.126-.006-.019.007-.064 0-.082-.008-.024-.035-.043-.062-.064a.25.25 0 0 0-.147-.063c-.03-.006-.066.007-.103 0a.24.24 0 0 1-.125-.062c-.028-.033-.038-.067-.063-.082q-.036-.022-.062-.043c-.007-.007-.015-.006-.022-.02-.012-.024-.036-.032-.021-.062-.027-.013-.012.024-.041.02-.026-.037-.045-.074-.104-.063-.026.007-.052.062-.084.062-.026 0-.05-.057-.084-.062-.026-.007-.064.025-.082.021-.028-.006-.036-.023-.062-.04-.02-.013-.052-.042-.063-.042-.033 0-.059.066-.105.041-.023-.028.048-.035.021-.062-.02-.02-.025.01-.04.02-.02.011-.042.014-.063.02-.046.018-.089.023-.125.042a.12.12 0 0 0-.063.062c-.015.028-.039.083-.062.084-.028 0-.037-.03-.063-.04-.076-.034-.124.018-.187.019-.059 0-.15-.091-.147-.147.002-.034.018-.083.022-.125.003-.033.04-.073.041-.103 0-.041-.077-.058-.104-.063-.062-.01-.137.028-.209 0-.013-.022.014-.04.022-.062.005-.012-.005-.028 0-.041.008-.021.053-.04.062-.063.008-.017-.007-.04 0-.062.01-.024.04-.045.041-.063.003-.022-.023-.05-.04-.064-.056.007-.094.007-.126.021-.072.033-.052.124-.125.147l-.084.02c-.012.006-.027 0-.04 0v-.02c.003-.015.016-.026.019-.041.048-.217.122-.426.209-.625h.021c.026.007.041.04.063.041.061.007.074-.057.125-.084.052.007.078-.007.125 0 .032.007.078.038.103.041.022 0 .022-.022.042-.02.02.007.059.039.062.063.003.03-.028.07-.02.103.032.032.1.044.145.063.03-.025.005-.069 0-.104 0-.015.002-.048 0-.062-.003-.024-.02-.042-.02-.063 0-.095.081-.13.145-.168.027-.016.06-.05.084-.062.034-.017.056-.006.084-.02.05-.028.086-.073.125-.105.018-.043-.002-.102 0-.145.018-.01.043 0 .062 0 .031-.006.046-.045.063-.062.01-.01.029-.012.041-.022.03-.024.036-.051.062-.062a.2.2 0 0 1 .042-.021c.02-.007.051-.008.083-.02.021-.007.076-.013.084-.022.01-.01-.002-.047 0-.062.016-.075.12-.078.188-.104.047-.017.093-.071.145-.062-.01.036-.05.039-.042.082.012.06.083-.01.104-.02.04-.017.115-.042.168-.062.047-.017.126-.03.082-.084-.037-.007-.05.028-.082.041-.022.007-.024-.018-.043-.02-.018 0-.023.023-.041.02-.018-.007-.038-.04-.041-.062-.007-.056.04-.062.062-.104-.015-.05-.082-.022-.125-.041a.08.08 0 0 1 .063-.064.24.24 0 0 1 .125.021c.01.009-.015.028 0 .041.017.015.04.007.062 0 .008-.038-.05-.016-.042-.041.045-.03.132-.014.187-.021a.5.5 0 0 0 .105-.041c.027-.016.035-.045.063-.02.008.027-.006.048-.022.062-.05.046-.106.092-.146.145.025.024.064.017.105.022.016.006.046 0 .063 0 .02.006.045-.007.06 0 .029.006.035.062.063.062.045 0 .026-.054 0-.084.008-.031.033-.06.021-.082-.02-.041-.099.012-.103-.041-.003-.033.029-.037.041-.063-.005-.064.048-.067.041-.125-.003-.024-.024-.02-.041-.042-.009-.012-.012-.054-.021-.063-.035-.03-.1-.006-.104-.062-.002-.034.005-.068 0-.104-.005-.034-.033-.14-.062-.146-.038-.008-.06.063-.104.083a.3.3 0 0 1-.105.02c-.016-.007-.04-.01-.041-.041-.003-.028.03-.04.04-.062.003-.007 0-.013 0-.02.049-.013.098-.032.147-.043l.084-.02c.02-.006.042.007.062 0a3 3 0 0 1 .604-.062zm-1.354.313c-.02.121-.135.171-.271.167-.03.03-.005.085-.021.125-.014.034-.07.066-.104.063-.025 0-.062-.04-.062-.063 0-.028.046-.03.021-.062.001-.007.013-.015.02-.021.013-.01.029-.014.042-.022.121-.074.245-.129.375-.187m2.792.125c-.013.006-.011.014-.022.021-.025.015-.043.034-.062.041-.028.01-.059.016-.063.041-.003.02.022.022.021.041-.01.025-.016.034-.021.064.034.056.105-.012.147-.021.018-.007.03-.007.04-.021.012-.018.013-.038.022-.063.01-.028.044-.038.041-.062-.003-.025-.062-.045-.103-.041m-3.647.417c.032.026.077.08.021.104a.3.3 0 0 1-.103.021c-.007 0-.016-.016-.022-.021.035-.033.068-.072.104-.104m.125.125c.016 0 .024.04.043.042.018 0 .03-.025.041-.022.028.007.048.063.021.084-.022.007-.026-.024-.042-.021-.046.008-.07.108-.104.105-.032-.007-.054-.082-.021-.105 0-.02-.002-.02 0-.041.01-.012.035-.044.062-.042m-.166.02c.01 0 .018-.007.021 0-.004.035-.015.046-.042.063-.048.028-.089.064-.104.125-.005.018-.061.066-.084.062-.053-.011.031-.11.043-.125.013-.017.026-.022.041-.041s.026-.052.041-.063a.2.2 0 0 1 .084-.019zm4.521.105c.053-.006.08.05.104.083a.4.4 0 0 0 .104.083c.018.01.041.033.062.042.043.019.123.082.125.125 0 .02-.023.042-.02.062.033.007.062-.05.063-.082.061.087.113.177.166.27.025.043.06.08.084.125-.03.008-.038.013-.043.04-.007.038.015.1-.041.106-.035.007-.076-.03-.125-.041-.02-.007-.047.007-.063 0-.036-.012-.03-.062-.062-.084a.3.3 0 0 0-.104-.041c-.018 0-.024.007-.042 0-.023-.007-.064.01-.083 0a.2.2 0 0 1-.062-.063c-.007-.024.061-.04.062-.062.002-.016-.018-.04-.021-.064-.003-.015.003-.031 0-.041-.005-.018-.035-.02-.063-.02h-.25c-.058.007-.1-.007-.146 0-.033 0-.094.028-.125.041l-.041.02-.041.021c-.019.009-.045.036-.063.041-.026.007-.058-.007-.105 0-.034 0-.081-.022-.082-.062 0-.062.107-.03.166-.041.022-.007.036-.025.062-.041.013-.008.01-.014.022-.022.02-.014.06-.046.062-.062.003-.015-.002-.03 0-.041.003-.014.023-.023.041-.042.028-.028.05-.065.084-.083.024-.012.052-.023.063-.042.003-.02 0-.02 0-.04a.1.1 0 0 1 .041-.022c.036-.008.062 0 .104 0 .018 0 .043.009.062 0 .016-.01.027-.034.043-.041a.2.2 0 0 1 .062-.022m.375.395h-.084c-.029 0-.066-.015-.083 0 .024.04.07.053.125.063a.13.13 0 0 0 .042-.063m-4.562-.375h.062c.017 0 .035-.007.042 0-.011.044-.112.037-.147.021.002-.016.022-.018.043-.021m-.147.084c-.029.021-.057.048-.103.063-.025.007-.058.006-.063-.022-.005-.035.04-.016.063-.02.03-.006.07-.02.103-.021m4.334 0c-.022.007-.032.056 0 .063.016-.01.024-.034.02-.063-.009-.01-.013-.007-.02 0m-.042.104c0 .037.007.073 0 .105.02.041.073.006.083-.021.013-.07-.009-.093-.04-.084-.011.006-.032-.01-.043 0m-5.52 1.562c.038.034.059.083.103.105.017.01.042.015.063.02.017.007.024-.007.041 0 .035.012.077.028.105.041.043.019.089.084.125.105.002.022-.006.047 0 .063.018.023.035.046.063.062.034.02.05.048.082.063.011.007.026-.007.043 0 .044.013.065.074.104.062.024-.007.017-.038.021-.062.017-.018.036-.041.062-.041.042 0 .048.063.063.103.009.023.035.039.041.063a.6.6 0 0 1 0 .187c-.01.031-.059.029-.084.063-.012.016-.01.051-.02.062-.016.02-.03.025-.042.043-.007.01-.014.028-.02.041-.02.043-.06.074-.043.125.007.021.043.038.043.063 0 .03-.058.052-.063.084-.003.023.013.05.02.082.005.023.049.047.063.062.023.026.04.073.062.106.042.065.064.144.105.207.022.033.068.05.083.084.007.017-.007.046 0 .062.024.054.133.12.187.147.025.013.06.006.084.02.035.02.107.074.125.105.016.028.014.1.021.144.01.06-.002.105 0 .168.002.035.02.048.02.082v.063c0 .041.003.083 0 .125a.4.4 0 0 0 0 .062c.002.021.02.025.021.043.002.02-.023.048-.021.063.005.042.035.065.043.103a.6.6 0 0 1 .02.147c-.003.02-.017.04-.02.062-.002.018.003.026 0 .041-.002.016.004.029 0 .041l-.063-.04a3.5 3.5 0 0 1-.5-.417l-.062-.064a3.5 3.5 0 0 1-.334-.416c-.009-.013-.013-.028-.021-.041a3 3 0 0 1-.291-.541c-.006-.014-.016-.029-.022-.043a3.3 3.3 0 0 1-.166-.541q-.012-.051-.021-.104a3.3 3.3 0 0 1-.063-.605c0-.158.022-.306.043-.459" class="ColorScheme-Text"/>
</svg>
