<?xml version='1.0' encoding='ASCII'?>
<svg xmlns="http://www.w3.org/2000/svg" viewBox="0 0 22 22">
<defs><style id="current-color-scheme" type="text/css">.ColorScheme-Contrast{color:#dedede; fill:currentColor;}</style></defs><path d="M398.857 543.076v16h-14l-4-8 4-8zm-5.428 4v.592c.711 0 .721.24.721 1.106v1.017c0 .416.124 1.033.723 1.29-.6.256-.723.875-.723 1.29v1.008c0 .867 0 1.106-.72 1.106v.591c1.066 0 1.513-.352 1.513-1.253V552.6c0-.557.02-1.201.61-1.201h.304v-.645h-.305c-.588 0-.609-.644-.609-1.201v-1.223c0-.901-.447-1.254-1.514-1.254m-3.136 0c-1.066 0-1.522.353-1.522 1.254v1.223c0 .557-.04 1.201-.619 1.201h-.295v.645h.295c.579 0 .62.644.62 1.2v1.224c0 .901.455 1.253 1.52 1.253v-.591c-.71 0-.728-.24-.728-1.106v-1.008c0-.415-.123-1.034-.722-1.29.599-.257.722-.874.722-1.29v-1.017c0-.867.018-1.106.729-1.106z" class="ColorScheme-Contrast" style="fill-opacity:1;stroke:none;fill:currentColor" transform="translate(-378.857 -540.076)" fill="currentColor"/>
</svg>
