<?xml version='1.0' encoding='ASCII'?>
<svg xmlns="http://www.w3.org/2000/svg" viewBox="0 0 22 22">
<defs><style id="current-color-scheme" type="text/css">.ColorScheme-Text{color:#fcfcfc; fill:currentColor;}</style></defs><path d="M3 3v1h10V3zm13 0v1h1v2h-1v1h3V6h-1V4h1V3zM3 5v1h6V5zm7 0v1h1V5zm2 0v1h1V5zm2 0v1h1V5zM3 9v1h8V9zm11 0v1h1v2h-1v1h5v-1h-1v-2h1V9zm2 1h1v2h-1zM3 11v1h4v-1zm5 0v1h1v-1zm2 0v1h1v-1zm2 0v1h1v-1zm-9 4v1h7v-1zm9 0v1h1v2h-1v1h7v-1h-1v-2h1v-1zm2 1h1v2h-1zm2 0h1v2h-1zM3 17v1h2v-1zm3 0v1h1v-1zm2 0v1h1v-1zm2 0v1h1v-1z" class="ColorScheme-Text" style="fill-opacity:1;stroke:none;fill:currentColor" fill="currentColor"/>
</svg>
