<svg xmlns="http://www.w3.org/2000/svg" viewBox="0 0 22 22">
<defs id="defs3051">
<style id="current-color-scheme" type="text/css">
.ColorScheme-Text{color:#dedede}
</style>
</defs>
<path d="M11 3.121 9.125 4.996 7.949 6.172l.707.707 1.176-1.176L11 4.535l1.168 1.168 1.176 1.176.707-.707-1.176-1.176zM6.172 7.95 4.996 9.125 3.121 11l1.875 1.875 1.176 1.176.707-.707-1.176-1.176L4.535 11l1.168-1.168L6.88 8.656zm9.656 0-.707.707 1.176 1.176L17.465 11l-1.168 1.168-1.176 1.176.707.707 1.176-1.176L18.879 11l-1.875-1.875zM11 8.172 8.172 11 11 13.828 13.828 11zm0 1.414L12.414 11 11 12.414 9.586 11zM8.656 15.12l-.707.707 1.176 1.176L11 18.879l1.875-1.875 1.176-1.176-.707-.707-1.176 1.176L11 17.465l-1.168-1.168z" class="ColorScheme-Text" style="fill:currentColor;fill-opacity:1;stroke:none"/>
</svg>
