<svg xmlns="http://www.w3.org/2000/svg" viewBox="0 0 22 22">
<defs id="defs3051">
<style id="current-color-scheme" type="text/css">
.ColorScheme-Text{color:#dedede}
</style>
</defs>
<path d="M15.316 7.61v6.656h1.061V7.609zm-9.601.408L3 14.266h1.232L4.8 12.84h2.697l.58 1.426h1.266L6.658 8.018zm.428 1.332q.133.45.293.85l.673 1.683H5.172l.67-1.654q.167-.411.3-.88m5.896.552q-.97 0-1.64.616-.67.609-.67 1.623 0 1.005.623 1.627t1.64.623q.636 0 1.078-.198.447-.201.739-.537.295-.335.408-.73.115-.4.115-.653 0-.511-.09-.812a2.2 2.2 0 0 0-.459-.842 1.94 1.94 0 0 0-.77-.54 2.6 2.6 0 0 0-.974-.177m0 .938q.606 0 .91.387.309.385.309.968.001.337-.145.633a1.1 1.1 0 0 1-.443.47 1.27 1.27 0 0 1-.666.179q-.518 0-.861-.358-.34-.36-.34-.957 0-.596.351-.957.352-.365.885-.365m6.262 2.078a.7.7 0 0 0-.504.205.7.7 0 0 0-.201.498q0 .292.207.498a.7.7 0 0 0 .498.203.67.67 0 0 0 .492-.207.68.68 0 0 0 .207-.494.68.68 0 0 0-.207-.498.66.66 0 0 0-.492-.205" class="ColorScheme-Text" style="fill:currentColor;fill-opacity:1;stroke:none"/>
</svg>
