<svg xmlns="http://www.w3.org/2000/svg" viewBox="0 0 22 22">
<defs id="defs3051">
<style id="current-color-scheme" type="text/css">
.ColorScheme-NegativeText{color:#da4453}
</style>
</defs>
<g class="ColorScheme-NegativeText" style="fill:currentColor;fill-opacity:1;stroke:none" transform="translate(-421.714 -525.79)">
<path d="M432.714 528.79a4 4 0 0 0-4 4 4 4 0 0 0 4 4 4 4 0 0 0 4-4 4 4 0 0 0-4-4m0 1a3 3 0 0 1 3 3 3 3 0 0 1-3 3 3 3 0 0 1-3-3 3 3 0 0 1 3-3m0 8a8 8 0 0 0-7.927 7h1.007a7 7 0 0 1 6.92-6 7 7 0 0 1 1 .08v-1.009a8 8 0 0 0-1-.07"/>
<circle cx="437.214" cy="541.291" r="3.5"/>
</g>
<path fill="#fff" d="M13 15h5v1h-5z"/>
</svg>
