<?xml version='1.0' encoding='ASCII'?>
<svg xmlns="http://www.w3.org/2000/svg" viewBox="0 0 22 22">
<defs><style id="current-color-scheme" type="text/css">.ColorScheme-Text{color:#fcfcfc; fill:currentColor;}</style></defs><path d="M7.426 3C4.982 3 3 4.954 3 7.363c0 .806.223 1.56.61 2.207a7.5 7.5 0 0 0-.157 1.514c0 4.156 3.416 7.525 7.631 7.525q.718-.001 1.398-.127a4.45 4.45 0 0 0 2.092.518C17.02 19 19 17.047 19 14.637a4.3 4.3 0 0 0-.46-1.938c.114-.52.177-1.06.177-1.615 0-4.156-3.416-7.525-7.631-7.525-.445 0-.882.04-1.307.11A4.45 4.45 0 0 0 7.426 3m3.61 2.79c.68 0 1.28.078 1.78.231.503.155.927.363 1.26.62.336.258.586.535.742.822q.239.437.239.857 0 .406-.313.727a1.06 1.06 0 0 1-.785.324q-.426-.001-.656-.203c-.143-.124-.29-.319-.455-.598a2.5 2.5 0 0 0-.686-.836c-.256-.192-.684-.289-1.273-.289-.547 0-.992.107-1.323.32-.318.206-.474.444-.474.723 0 .172.05.314.152.438q.165.196.455.34c.2.1.409.178.615.234q.321.088 1.055.256c.618.13 1.186.277 1.688.435.508.16.948.359 1.306.588.366.235.654.537.86.897s.31.806.31 1.324c0 .62-.18 1.186-.535 1.68-.353.493-.873.883-1.549 1.16-.669.274-1.471.414-2.385.414-1.096 0-2.015-.192-2.732-.567a3.6 3.6 0 0 1-1.258-1.097c-.324-.461-.488-.92-.488-1.361q0-.415.318-.71.317-.291.797-.292.395 0 .672.23.265.222.447.645.205.459.44.765.225.295.638.488c.277.13.651.196 1.11.196.63 0 1.148-.133 1.537-.395.38-.255.564-.563.564-.94 0-.296-.096-.529-.295-.712A2.1 2.1 0 0 0 12 12.06a16 16 0 0 0-1.398-.342c-.792-.167-1.465-.365-2-.59-.548-.23-.99-.549-1.313-.947-.328-.404-.492-.912-.492-1.508 0-.569.173-1.08.517-1.522.342-.439.84-.781 1.48-1.015.634-.231 1.389-.348 2.241-.348" class="ColorScheme-Text" style="fill-opacity:1;stroke:none;fill:currentColor" fill="currentColor"/>
</svg>
