<?xml version='1.0' encoding='ASCII'?>
<svg xmlns="http://www.w3.org/2000/svg" viewBox="0 0 22 22">
<defs><style id="current-color-scheme" type="text/css">.ColorScheme-Contrast{color:#dedede; fill:currentColor;}</style></defs><path d="M14.078 4.5a3.282 3.282 0 0 0-3.2 4.03 9.32 9.32 0 0 1-6.765-3.428A3.26 3.26 0 0 0 3.67 6.75a3.28 3.28 0 0 0 1.459 2.732 3.26 3.26 0 0 1-1.486-.41v.041a3.28 3.28 0 0 0 2.632 3.217 3.3 3.3 0 0 1-1.482.057 3.29 3.29 0 0 0 3.066 2.279 6.6 6.6 0 0 1-4.076 1.404q-.397 0-.783-.045A9.3 9.3 0 0 0 8.031 17.5c6.038 0 9.34-5 9.34-9.338q-.001-.213-.01-.424A6.7 6.7 0 0 0 19 6.04a6.6 6.6 0 0 1-1.885.516 3.3 3.3 0 0 0 1.442-1.815 6.6 6.6 0 0 1-2.084.797A3.28 3.28 0 0 0 14.078 4.5" class="ColorScheme-Contrast" style="fill-opacity:1;stroke:none;fill:currentColor" fill="currentColor"/>
</svg>
