<svg xmlns="http://www.w3.org/2000/svg" viewBox="0 0 22 22">
<defs id="defs3051">
<style id="current-color-scheme" type="text/css">
.ColorScheme-Text{color:#dedede}
</style>
</defs>
<path d="M11 3a4 4 0 0 0-4 4 4 4 0 0 0 4 4 4 4 0 0 0 4-4 4 4 0 0 0-4-4m0 1a3 3 0 0 1 3 3 3 3 0 0 1-3 3 3 3 0 0 1-3-3 3 3 0 0 1 3-3m0 8a8 8 0 0 0-7.928 7H4.08A7 7 0 0 1 11 13a7 7 0 0 1 1 .08v-1.01a8 8 0 0 0-1-.07m4.5 0a3.5 3.5 0 1 0 0 7 3.5 3.5 0 0 0 0-7M13 15h5v1h-5z" class="ColorScheme-Text" style="fill:currentColor;fill-opacity:.5;stroke:none"/>
<path d="M13 15v1h5v-1z" style="fill:#fff;fill-opacity:1;stroke:none"/>
</svg>
