<svg xmlns="http://www.w3.org/2000/svg" viewBox="0 0 22 22">
<g style="fill:#fdbc4b">
<style id="current-color-scheme" type="text/css">
.ColorScheme-Text{color:#dedede}
</style>
<path d="M11 3a4 4 0 0 0-4 4 4 4 0 0 0 4 4 4 4 0 0 0 4-4 4 4 0 0 0-4-4m0 1a3 3 0 0 1 3 3 3 3 0 0 1-3 3 3 3 0 0 1-3-3 3 3 0 0 1 3-3m0 8a8 8 0 0 0-7.928 7H4.08A7 7 0 0 1 11 13a7 7 0 0 1 1 .08v-1.01a8 8 0 0 0-1-.07" class="ColorScheme-Text" style="fill:currentColor"/>
<path d="m440.714 536.79-8 4 2 1 1 3 1-2 2 1z" style="fill-rule:evenodd" transform="translate(-421.714 -525.79)"/>
</g>
</svg>
