<?xml version='1.0' encoding='ASCII'?>
<svg xmlns="http://www.w3.org/2000/svg" viewBox="0 0 22 22">
<defs><style id="current-color-scheme" type="text/css">.ColorScheme-Contrast{color:#dedede; fill:currentColor;}</style></defs><path d="m3 6.033.014.72 2.107.276c.578.503 3.791 4.221 4.281 5.176l.05 2.664c-.315.414-2.235.328-2.235.328l-.164.77s7.197-.144 7.234-.06c-.018-.097.014-.721.014-.721l-2.336-.063s-.152-1.898-.04-3.004c1.533-1.696 4.268-3.611 4.268-3.611l1.858-.317.428-.744-6.325-.039.164.772s1.73.138 1.918.289c-.025.377-2.992 2.754-2.992 2.754L8 6.853l2.273-.175.1-.543zm14.33 4.477.016 4.066.693.092.961-3.932zm-.133 4.515-.113.803.848.139.127-.846z" class="ColorScheme-Contrast" style="fill-opacity:1;stroke:none;fill:currentColor" fill="currentColor"/>
</svg>
