<?xml version='1.0' encoding='ASCII'?>
<svg xmlns="http://www.w3.org/2000/svg" width="16" height="16" viewBox="-3 -3 22 22">
<defs><style id="current-color-scheme" type="text/css">.ColorScheme-Contrast{color:#dedede; fill:currentColor;}</style></defs><path d="M1 1h2v2H1zm2 0h2v2H3zm2 0h2v2H5zm0 2h2v2H5zM3 5h2v2H3zM1 7h2v2H1zm2 2h2v2H3zm2-2h2v2H5zm2-2h2v2H7zm2 0h2v2H9zm0-4h2v2H9zm2 2h2v2h-2zm0 6h2v2h-2zm-4 2h2v2H7zm2 2h2v2H9zm-6 0h2v2H3zm10-2h2v2h-2zm0 2h2v2h-2z" class="ColorScheme-Contrast" style="fill:currentColor" fill="currentColor"/>
<path fill="currentColor" d="M13 13h2v2h-2z" class="ColorScheme-Contrast" style="fill:currentColor"/>
</svg>
