<?xml version='1.0' encoding='ASCII'?>
<svg xmlns="http://www.w3.org/2000/svg" width="16" height="16" viewBox="-3 -3 22 22">
<defs><style id="current-color-scheme" type="text/css">.ColorScheme-Text{color:#fcfcfc; fill:currentColor;}</style></defs><g fill="currentColor" class="ColorScheme-Text" style="fill:currentColor">
<style id="current-color-scheme" type="text/css" class="ColorScheme-Text" fill="currentColor" style="fill:currentColor">
.ColorScheme-Text{color:#fcfcfc}
</style>
<path d="M4.024 2.01v11.991h-1V2.01" class="ColorScheme-Text" opacity=".83" style="fill:currentColor" fill="currentColor"/>
<path d="M5.024 2.01v11.991h-1V2.01" opacity=".74" class="ColorScheme-Text" fill="currentColor" style="fill:currentColor"/>
<path d="M5.024 2.01h1v11.991h-1" opacity=".65" class="ColorScheme-Text" fill="currentColor" style="fill:currentColor"/>
<path d="M6.024 2.01h1v11.991h-1" opacity=".57" class="ColorScheme-Text" fill="currentColor" style="fill:currentColor"/>
<path d="M7.024 2.01h1v11.991h-1" opacity=".49" class="ColorScheme-Text" fill="currentColor" style="fill:currentColor"/>
<path d="M8.024 2.01h1v11.991h-1" opacity=".4" class="ColorScheme-Text" fill="currentColor" style="fill:currentColor"/>
<path d="M9.024 2.01h1v11.991h-1" opacity=".32" class="ColorScheme-Text" fill="currentColor" style="fill:currentColor"/>
<path d="M10.024 2.01h1v11.991h-1" opacity=".24" class="ColorScheme-Text" fill="currentColor" style="fill:currentColor"/>
<path d="M11.024 2.01h1v11.991h-1" opacity=".16" class="ColorScheme-Text" fill="currentColor" style="fill:currentColor"/>
<path d="M12.024 2.01h1v11.991h-1" opacity=".07" class="ColorScheme-Text" fill="currentColor" style="fill:currentColor"/>
<path d="M3.028 2v11.994h-1V2" opacity=".94" class="ColorScheme-Text" fill="currentColor" style="fill:currentColor"/>
<path d="M.028.01v15.996h15.996V.01zm1 1h13.996v13.996H1.028z" opacity=".7" class="ColorScheme-Text" fill="currentColor" style="fill:currentColor"/>
</g>
</svg>
