<svg xmlns="http://www.w3.org/2000/svg" viewBox="0 0 22 22">
<defs id="defs3051">
<style id="current-color-scheme" type="text/css">
.ColorScheme-Contrast{color:#dedede}.ColorScheme-Highlight{color:#3daee9}
</style>
</defs>
<path d="M3 3v16h9v-1h-2v-2h2v-1h-2v-2h2v-1h-2v-2h2v2h1v-2h2v2h1v-2h2v2h1V3zm1 1h5v5H4zm6 0h2v2h-2zm3 0h2v2h-2zm3 0h2v2h-2zm-6 3h2v2h-2zm3 0h2v2h-2zm3 0h2v2h-2zM4 10h2v2H4zm3 0h2v2H7zm-3 3h2v2H4zm3 0h2v2H7zm9 1v2h-2v1h2v2h1v-2h2v-1h-2v-2zM4 16h2v2H4zm3 0h2v2H7z" class="ColorScheme-Contrast" style="fill:currentColor;fill-opacity:1;stroke:none"/>
<path d="M4 4v5h5V4z" class="ColorScheme-Highlight" style="fill:currentColor;fill-opacity:1;stroke:none"/>
</svg>
