<?xml version='1.0' encoding='ASCII'?>
<svg xmlns="http://www.w3.org/2000/svg" width="16" height="16" viewBox="-3 -3 22 22">
<defs><style id="current-color-scheme" type="text/css">.ColorScheme-Contrast{color:#dedede; fill:currentColor;}</style></defs><g fill="currentColor" class="ColorScheme-Contrast" style="fill:currentColor">
<style id="current-color-scheme" type="text/css" class="ColorScheme-Contrast" fill="currentColor" style="fill:currentColor">
.ColorScheme-Contrast{color:#dedede}
</style>
<path d="m10.098 2.748.764.17.168-.764-.764-.168zm-8.168.104h.78V2.07h-.78zM9.848 4.33l.775.086.088-.775-.775-.088zm-7.918.082h.78v-.78h-.78zm7.889.746.01.557v.03l.003.028.038.221.771-.129-.033-.191-.01-.53zm-7.889.817h.78v-.782h-.78zm8.106.845.21.614.01.029.014.027.063.117.69-.365-.05-.094-.199-.58zm-8.106.715h.78v-.78h-.78zm8.816.793.274.383.01.014.012.013.203.237.591-.51-.199-.233-.004-.004-.25-.353zm-8.816.77h.78v-.782h-.78zm9.846.468.531.573.572-.532-.531-.572zM1.93 10.658h.78v-.78h-.78zm10.805.037.229.375.1.254.726-.287-.114-.287-.011-.033-.02-.028-.244-.402zM1.93 12.221h.78v-.782h-.78zM13.243 12l.037.206-.006.498.781.008.006-.535v-.037l-.006-.037-.045-.24zM1.93 13.782h.78v-.78h-.78zm11.141.324.77.135.119-.691-.77-.135z" class="ColorScheme-Contrast" opacity=".5" style="fill:currentColor" fill="currentColor"/>
<path d="M8.395 1.984c-.835 3.621-.001 5.487.878 6.952.88 1.465 1.736 2.473 1.252 4.93l.768.15c.528-2.682-.5-4.069-1.35-5.483-.849-1.414-1.587-2.912-.789-6.373zm-2.086.02c-.557 3.09-.01 4.985.572 6.619.581 1.634 1.172 2.979.848 5.262l.773.11c.35-2.462-.314-4.03-.885-5.634-.57-1.604-1.073-3.27-.54-6.22zm-2.086.025c-.278 2.547-.008 4.478.28 6.282.29 1.803.595 3.477.43 5.6l.778.06c.173-2.228-.15-3.99-.438-5.784-.287-1.793-.542-3.62-.275-6.072z" class="ColorScheme-Contrast" fill="currentColor" style="fill:currentColor"/>
</g>
</svg>
