<?xml version='1.0' encoding='ASCII'?>
<svg xmlns="http://www.w3.org/2000/svg" width="16" height="16" viewBox="-3 -3 22 22">
<defs><style id="current-color-scheme" type="text/css">.ColorScheme-Contrast{color:#dedede; fill:currentColor;}</style></defs><path d="M7.75.976v.734h.674V.977Zm-5.414 1-.485.76 3.744 2.382L1.26 7.877l4.274 2.766-3.329 2.314.514.739 4.428-3.08-4.221-2.732L7.27 5.118Zm7.842.261v.003L9.694 3c.238.152.59.314 1.031.523.442.209.958.451 1.444.704s.943.521 1.256.759c.227.173.333.336.375.388-.007.01-.007.013-.027.03-.072.07-.214.172-.398.277-.37.209-.904.436-1.446.667-.542.23-1.092.461-1.536.713a2.8 2.8 0 0 0-.584.415c-.165.16-.323.376-.324.667 0 .288.155.503.317.663.16.16.354.287.571.412.434.25.973.48 1.503.71.53.228 1.05.456 1.412.664.18.104.32.205.392.275.022.023.026.03.034.041-.034.048-.125.203-.329.372-.275.229-.681.489-1.116.736-.434.246-.894.483-1.29.688s-.713.363-.933.515l.514.74c.104-.072.438-.251.832-.455s.865-.447 1.321-.707c.457-.26.897-.534 1.247-.825s.68-.589.673-1.087c-.01-.286-.16-.5-.322-.66a2.8 2.8 0 0 0-.573-.414c-.436-.251-.977-.481-1.506-.71-.53-.229-1.05-.457-1.41-.664a2 2 0 0 1-.387-.273l-.02-.02c.007-.01.007-.01.02-.024a2.2 2.2 0 0 1 .4-.277c.37-.21.903-.437 1.446-.667s1.092-.462 1.536-.713c.222-.126.418-.253.582-.413.165-.16.324-.377.324-.67 0-.524-.367-.818-.755-1.113s-.878-.575-1.386-.84a44 44 0 0 0-1.472-.72c-.44-.208-.81-.39-.934-.47Zm-2.429.087v.734h.675v-.734zm0 1.348v.734h.675v-.734Zm0 1.348v.734h.675V5.02Zm0 1.348v.734h.675v-.734Zm0 1.348v.733h.675v-.732Zm0 1.347v.734h.675v-.732Zm0 1.348v.734h.675v-.733zm0 1.348v.734h.675v-.733zm0 1.348v.734h.675v-.734zm0 1.348v.734h.675v-.734z" class="ColorScheme-Contrast" style="opacity:1;fill:currentColor" fill="currentColor"/>
</svg>
