<?xml version='1.0' encoding='ASCII'?>
<svg xmlns="http://www.w3.org/2000/svg" width="16" height="16" viewBox="-3 -3 22 22">
<defs><style id="current-color-scheme" type="text/css">.ColorScheme-Contrast{color:#dedede; fill:currentColor;}</style></defs><path fill="currentColor" d="M5.881 3.009a.97.97 0 0 0-.628.329.97.97 0 0 0-.253.665v7.995a.97.97 0 0 0 .253.664.97.97 0 0 0 .628.33.97.97 0 0 0 .69-.168l5.799-3.997a1 1 0 0 0 .384-.51 1 1 0 0 0-.381-1.14l-5.803-4a.96.96 0 0 0-.689-.168" class="ColorScheme-Contrast" style="fill:currentColor"/>
<path fill="currentColor" d="M8 0a8 8 0 1 0 0 16A8 8 0 0 0 8 0m-.096 1H8a7 7 0 1 1-.096 0" class="ColorScheme-Contrast" style="fill:currentColor"/>
</svg>
