<svg xmlns="http://www.w3.org/2000/svg" viewBox="0 0 22 22">
<defs id="defs3051">
<style id="current-color-scheme" type="text/css">
.ColorScheme-Text{color:#fcfcfc}
</style>
</defs>
<path d="M3 3v4h1V4h3V3zm12 0v1h3v3h1V3zM5 5v5h5V5zm7 0v5h5V5zM6 6h3v3H6zm7 0h3v3h-3zm-8 6v5h5v-5zm7 0v5h1v-4h4v-1zm-6 1h3v3H6zm-3 2v4h4v-1H4v-3z" class="ColorScheme-Text" style="fill:currentColor;fill-opacity:1;stroke:none"/>
<path d="m14.707 14-.707.707 1.793 1.793L14 18.293l.707.707 1.793-1.793L18.293 19l.707-.707-1.793-1.793L19 14.707 18.293 14 16.5 15.793z" style="fill:#da4453;fill-opacity:1;stroke:none"/>
</svg>
