<?xml version='1.0' encoding='ASCII'?>
<svg xmlns="http://www.w3.org/2000/svg" viewBox="0 0 22 22">
<defs><style id="current-color-scheme" type="text/css">.ColorScheme-Contrast{color:#dedede; fill:currentColor;}</style></defs><path d="M3 3v16h7v-2l5-5 .5-.5L14 10l-4 4-1-1-4.844 4.844L4 18V4h14v7h1V3zm4 2c-1.108 0-2 .892-2 2s.892 2 2 2 2-.892 2-2-.892-2-2-2m10 6-1 1-5 5v2h2v-.031L14 18l4-4 1-1zm-.281 1.688.562.593-4.968 5-.594-.593z" class="ColorScheme-Contrast" style="fill-opacity:1;stroke:none;fill:currentColor" fill="currentColor"/>
</svg>
