<?xml version='1.0' encoding='ASCII'?>
<svg xmlns="http://www.w3.org/2000/svg" viewBox="0 0 22 22">
<defs><style id="current-color-scheme" type="text/css">.ColorScheme-Text{color:#fcfcfc; fill:currentColor;}</style></defs><path d="M7 3v1h3v2.025c-3.345.258-6 3.066-6 6.475 0 3.578 2.922 6.5 6.5 6.5s6.5-2.922 6.5-6.5c0-1.61-.597-3.082-1.574-4.219l1.076-1.076.799.795.705-.709-2.299-2.289-.705.709.791.789-1.074 1.074A6.48 6.48 0 0 0 11 6.025V4h3V3zm3.5 4a5.5 5.5 0 1 1 0 11 5.5 5.5 0 0 1 0-11" class="ColorScheme-Text" style="fill-opacity:1;stroke:none;fill:currentColor" fill="currentColor"/>
</svg>
