<svg xmlns="http://www.w3.org/2000/svg" viewBox="0 0 22 22">
<defs id="defs3051">
<style id="current-color-scheme" type="text/css">
.ColorScheme-Text{color:#dedede}
</style>
</defs>
<path d="M3 3v16h16V3zm1 1h14v12h-7v1H8v-1l-1 1v1H4v-1h1l-1-1zm2 2v8h2l1-1H7V7h2v4h4V7h2v6H9l1 1h6V6zm6 11h6v1h-6z" class="ColorScheme-Text" style="fill:currentColor;fill-opacity:1;stroke:none"/>
<path d="M7 11c-2.216 0-4 1.784-4 4s1.784 4 4 4 4-1.784 4-4-1.784-4-4-4m2 2 1 1-4 4-1-1-1-1 1-1 1 1z" style="fill:#2ecc71;fill-opacity:1;stroke:none"/>
</svg>
