<svg xmlns="http://www.w3.org/2000/svg" viewBox="0 0 22 22">
<defs id="defs3051">
<style id="current-color-scheme" type="text/css">
.ColorScheme-Text{color:#dedede}
</style>
</defs>
<path d="M6 3a1 1 0 0 0-1 1 1 1 0 0 0 1 1 1 1 0 0 0 1-1 1 1 0 0 0-1-1m1 3 .006 13 3.894-4.7L17 14z" class="ColorScheme-Text" style="fill:currentColor;fill-opacity:1;stroke:none"/>
<path d="M14.707 3 14 3.707 15.793 5.5 14 7.293l.707.707L16.5 6.207 18.293 8 19 7.293 17.207 5.5 19 3.707 18.293 3 16.5 4.793z" style="fill:#da4453;fill-opacity:1;stroke:none"/>
</svg>
