<?xml version='1.0' encoding='ASCII'?>
<svg xmlns="http://www.w3.org/2000/svg" viewBox="0 0 22 22">
<defs><style id="current-color-scheme" type="text/css">.ColorScheme-Text{color:#fcfcfc; fill:currentColor;}</style></defs><path d="M6 3a5 5 0 0 0-5 5v6a5 5 0 0 0 5 5 5 5 0 0 0 5-5V8a5 5 0 0 0-5-5m0 1a4 4 0 0 1 4 4v6a4 4 0 0 1-4 4 4 4 0 0 1-4-4V8a4 4 0 0 1 4-4m13 3v1h1V7zm-7 3v9h1v-6a2 2 0 0 1 2-2 2 2 0 0 1 2 2h1a3 3 0 0 0-3-3 3 3 0 0 0-2 .768V10zm7 0v9h1v-9z" class="ColorScheme-Text" style="fill-opacity:1;stroke:none;fill:currentColor" fill="currentColor"/>
</svg>
