<svg xmlns="http://www.w3.org/2000/svg" viewBox="0 0 22 22">
<defs id="defs3051">
<style id="current-color-scheme" type="text/css">
.ColorScheme-Text{color:#dedede}
</style>
</defs>
<path d="M3 3v8h8V3zm13.5 0A2.5 2.5 0 0 0 14 5.5 2.5 2.5 0 0 0 16.5 8 2.5 2.5 0 0 0 19 5.5 2.5 2.5 0 0 0 16.5 3M4 4h6v6H4zm12.5 0A1.5 1.5 0 0 1 18 5.5 1.5 1.5 0 0 1 16.5 7 1.5 1.5 0 0 1 15 5.5 1.5 1.5 0 0 1 16.5 4M13 11a6 4 0 0 0-6 4 6 4 0 0 0 6 4 6 4 0 0 0 6-4 6 4 0 0 0-6-4m0 1a5 3 0 0 1 5 3 5 3 0 0 1-5 3 5 3 0 0 1-5-3 5 3 0 0 1 5-3" class="ColorScheme-Text" style="fill:currentColor;fill-opacity:1;stroke:none"/>
</svg>
