<?xml version='1.0' encoding='ASCII'?>
<svg xmlns="http://www.w3.org/2000/svg" viewBox="0 0 22 22">
<defs><style id="current-color-scheme" type="text/css">.ColorScheme-Contrast{color:#dedede; fill:currentColor;}</style></defs><path d="M3 3v2a14 14 0 0 1 12.633 8h2.187A16 16 0 0 0 3 3m0 4v2a10 10 0 0 1 8 4.03V13h2.38A12 12 0 0 0 3 7m0 4v2a6 6 0 0 1 6 6h2a8 8 0 0 0-8-8m13 3v2h-2v1h2v2h1v-2h2v-1h-2v-2zM4.5 16A1.5 1.5 0 0 0 3 17.5 1.5 1.5 0 0 0 4.5 19 1.5 1.5 0 0 0 6 17.5 1.5 1.5 0 0 0 4.5 16" class="ColorScheme-Contrast" style="fill-opacity:1;stroke:none;fill:currentColor" fill="currentColor"/>
</svg>
