<?xml version='1.0' encoding='ASCII'?>
<svg xmlns="http://www.w3.org/2000/svg" viewBox="0 0 22 22">
<defs><style id="current-color-scheme" type="text/css">.ColorScheme-Text{color:#fcfcfc; fill:currentColor;}</style></defs><path d="M2 3v16h17V3zm1 1h15v6H3zm3.08 1.002a2 2 0 0 0-1.457.549 2 2 0 0 0-.371 2.42 2 2 0 0 0 2.25.965A2 2 0 0 0 8 7H6l1.059-1.697a2 2 0 0 0-.979-.301M3 11h15v7H3zm13 1v5h1v-5zm-2 2v3h1v-3zm-2 1v2h1v-2z" class="ColorScheme-Text" style="fill-opacity:1;stroke:none;fill:currentColor" fill="currentColor"/>
</svg>
