<?xml version='1.0' encoding='ASCII'?>
<svg xmlns="http://www.w3.org/2000/svg" viewBox="0 0 22 22">
<defs><style id="current-color-scheme" type="text/css">.ColorScheme-Text{color:#fcfcfc; fill:currentColor;}</style></defs><path d="M6 3 2 7v12h3v-1H3V8h4V4h12v3h1V3zm8 4-4.002 4.002H8.002v1h2.41l3.59-3.59 2.123 2.123.006-.004.004.004 2.828-2.828c.003.005-.707-.707-.707-.707L16.13 9.125 14.004 7l-.002.002zM7 9v10h7v-1H8v-4h2.46l3.536 3.535.002-.002.002.002v-1.414l-.002.002L10.875 13H8V9zm10 5v2h-2v1h2v2h1v-2h2v-1h-2v-2z" class="ColorScheme-Text" style="fill-opacity:1;stroke:none;fill:currentColor" fill="currentColor"/>
</svg>
