<svg xmlns="http://www.w3.org/2000/svg" viewBox="0 0 22 22">
<defs id="defs3051">
<style id="current-color-scheme" type="text/css">
.ColorScheme-Contrast{color:#dedede}.ColorScheme-Highlight{color:#3daee9}
</style>
</defs>
<path d="M20.287 16.967H19V19h-1.063v-2.033h-4.25v-.936L17.863 10H19v5.976h1.287zm-2.35-.991v-2.817q0-.839.067-1.983h-.055q-.066.159-.236.477-.164.318-.298.502l-2.66 3.82z" class="ColorScheme-Highlight" style="fill:currentColor;fill-opacity:1;stroke:none"/>
<path d="M3 3v2h1V4h1V3zm5 0v1h2V3zm4 0v1h2V3zm5 0v1h1v1h1V3zM9 7v1h2.293L8 11.293l.707.707L12 8.707V11h1V7zM3 8v2h1V8zm0 5v6h6v-6zm1 1h4v4H4z" class="ColorScheme-Contrast" style="fill:currentColor;fill-opacity:1;stroke:none"/>
</svg>
