<?xml version='1.0' encoding='ASCII'?>
<svg xmlns="http://www.w3.org/2000/svg" viewBox="0 0 22 22">
<defs><style id="current-color-scheme" type="text/css">.ColorScheme-Text{color:#fcfcfc; fill:currentColor;}</style></defs><path d="M3 3v2h1V4h1V3zm5 0v1h2V3zm8.172.67-.707.707L17.085 6H12.43v1h4.656l-1.621 1.621.707.707 2.121-2.121L19 6.5zM3 8v2h1V8zm15 4v2h1v-2zM3 13v6h6v-6zm1 1h4v4H4zm14 3v1h-1v1h2v-2zm-6 1v1h2v-1z" class="ColorScheme-Text" style="fill-opacity:1;stroke:none;fill:currentColor" fill="currentColor"/>
</svg>
