<svg xmlns="http://www.w3.org/2000/svg" viewBox="0 0 22 22">
<defs id="defs3051">
<style id="current-color-scheme" type="text/css">
.ColorScheme-Text{color:#fcfcfc}.ColorScheme-Highlight{color:#3daee9}
</style>
</defs>
<path d="m10.217 5.834-3.186 8.49.938.352 2.816-7.508 6.518 2.793.394-.92z" class="ColorScheme-Highlight" style="fill:currentColor;fill-opacity:1;stroke:none"/>
<path d="M4 3v14H3v1h1v1h1v-1h14v-1H5V3zm6 2v1h1V5zm1 1v1h1V6zm0 1h-1v1h1zm-1 0V6H9v1zm7 1v1h1V8zm1 1v1h1V9zm0 1h-1v1h1zm-1 0V9h-1v1zM7 13v1h1v-1zm1 1v1h1v-1zm0 1H7v1h1zm-1 0v-1H6v1z" class="ColorScheme-Text" style="fill:currentColor;fill-opacity:1;stroke:none"/>
</svg>
