<?xml version='1.0' encoding='ASCII'?>
<svg xmlns="http://www.w3.org/2000/svg" viewBox="0 0 22 22">
<defs><style id="current-color-scheme" type="text/css">.ColorScheme-Contrast{color:#dedede; fill:currentColor;}</style></defs><path d="M3 3v16h17V3zm1 1h13.719l-.469.469-.812.812-1.313 1.313L13 4.469 11.469 6 11 6.469l-.844.812L8.47 9H4zm15 .125v13.719l-.281-.282-.75-.75-.844-.812-1.281-1.312-.719-.688L13 16.094l-1.312-1.282-.813-.812-2-2H4v-2h4.875l2-2 .813-.844L13 5.875 15.125 8l2-2 .844-.844zM4 13h4.469l1.687 1.688.844.843.469.469L13 17.531l.531-.531 1.594-1.594 1.313 1.281.5.532.312.312.031.032.438.437H4z" class="ColorScheme-Contrast" style="fill-opacity:1;stroke:none;fill:currentColor" fill="currentColor"/>
</svg>
