<?xml version='1.0' encoding='ASCII'?>
<svg xmlns="http://www.w3.org/2000/svg" width="16" height="16" viewBox="-3 -3 22 22">
<defs><style id="current-color-scheme" type="text/css">.ColorScheme-Contrast{color:#dedede; fill:currentColor;}</style></defs><g fill="currentColor" class="ColorScheme-Contrast" style="fill:currentColor">
<style id="current-color-scheme" type="text/css" class="ColorScheme-Contrast" fill="currentColor" style="fill:currentColor">
.ColorScheme-Contrast{color:#dedede}
</style>
<path d="M11 0C9.89 0 9 .914 9 2.016v4.777l-.852.852a.495.495 0 0 0-.015.69L9 9.29v4.664c0 .656.234 1.207.625 1.563.387.351.895.496 1.39.484l-.03-1c-.278.008-.52-.074-.688-.227-.168-.152-.297-.386-.297-.82v-4.86a.5.5 0 0 0-.129-.335l-.68-.742.664-.664A.5.5 0 0 0 10 7V2.016C10 1.43 10.422 1 11 1zM5 9s-.707-.016-1.445.355C2.816 9.723 2 10.665 2 12v1h2v-1c0-.668.188-.727.45-.855.257-.133.546-.145.55-.145 0 0 .29.016.55.145.262.132.45.19.45.859V16h2v-3.996c0-1.336-.812-2.277-1.55-2.649C5.71 8.988 5 9 5 9m0 0" class="ColorScheme-Contrast" style="fill:currentColor" fill="currentColor"/>
<path d="M2 9v7h2V9zm11.016-9v1c.578 0 1 .43 1 1.016V7c0 .133.05.258.144.352l.664.664-.68.742a.5.5 0 0 0-.128.336v4.86c0 .433-.13.667-.297.82-.168.152-.41.234-.692.226L13 16c.496.012 1-.133 1.39-.484.387-.356.626-.907.626-1.563V9.29l.867-.953a.5.5 0 0 0-.016-.691l-.851-.852V2.016a2.013 2.013 0 0 0-2-2.016m0 0" class="ColorScheme-Contrast" fill="currentColor" style="fill:currentColor"/>
</g>
</svg>
