<svg xmlns="http://www.w3.org/2000/svg" width="16" height="16" viewBox="-3 -3 22 22">
<style id="current-color-scheme" type="text/css">
.ColorScheme-Contrast{color:#dedede}
</style>
<path d="M7 4C5.338 4 4 5.338 4 7v2c0 1.662 1.338 3 3 3h3v-1H7c-1.108 0-2-.892-2-2V8h7V7c0-1.662-1.338-3-3-3zm0 1h2c1.108 0 2 .892 2 2H5c0-1.108.892-2 2-2" class="ColorScheme-Contrast" style="fill:currentColor"/>
<path fill="currentColor" d="M8 0a8 8 0 0 0-8 8 8 8 0 0 0 8 8 8 8 0 0 0 8-8 8 8 0 0 0-8-8m0 1a7 7 0 0 1 7 7 7 7 0 0 1-7 7 7 7 0 0 1-7-7 7 7 0 0 1 7-7"/>
</svg>
