<?xml version='1.0' encoding='ASCII'?>
<svg xmlns="http://www.w3.org/2000/svg" width="16" height="16" viewBox="-3 -3 22 22">
<defs><style id="current-color-scheme" type="text/css">.ColorScheme-Text{color:#fcfcfc; fill:currentColor;}</style></defs><path d="M11 3v6h2.781c1.681.069 1.605-4.125-.031-4H12V3Zm1 3h1.875c.368-.038.435 2.018 0 2H12c-.006-.476.004-1.853 0-2M6.993 4.031v1.032h1.411c.808.008.618.88.596.937H7c-1.52.07-1.625 3 0 3h3V5.437c0-.37-.102-.716-.313-.968a1.28 1.28 0 0 0-.846-.438zM7.181 7H9v1H7.121c-.376-.013-.342-1.04.06-1" class="ColorScheme-Text" style="fill-opacity:1;fill:currentColor" fill="currentColor"/>
<path d="M1 12h14v1H1zM2 2h3v1H2zm0 7h3v1H2zm1-6h1v6H3z" style="opacity:1;stroke-width:2;stroke-linecap:square;paint-order:stroke fill markers;stop-fill:currentColor" class="ColorScheme-Text" fill="currentColor"/>
</svg>
