<svg xmlns="http://www.w3.org/2000/svg" viewBox="0 0 22 22">
<defs id="defs3051">
<style id="current-color-scheme" type="text/css">
.ColorScheme-Text{color:#dedede}
</style>
</defs>
<path d="M3 3v16h16V3zm1 1h14v2.387A11 6 0 0 0 11 5a11 6 0 0 0-7 1.38zm7 2a10 5 0 0 1 7 1.441V9.55A8 3 0 0 0 11 8a8 3 0 0 0-7 1.555v-2.11A10 5 0 0 1 11 6m0 3a7 2 0 0 1 7 2 7 2 0 0 1-7 2 7 2 0 0 1-7-2 7 2 0 0 1 7-2m7 3.445v2.114A10 5 0 0 1 11 16a10 5 0 0 1-7-1.445V12.45A8 3 0 0 0 11 14a8 3 0 0 0 7-1.555m0 3.168V18H4v-2.38A11 6 0 0 0 11 17a11 6 0 0 0 7-1.387" class="ColorScheme-Text" style="fill:currentColor;fill-opacity:1;stroke:none"/>
</svg>
