<?xml version='1.0' encoding='ASCII'?>
<svg xmlns="http://www.w3.org/2000/svg" viewBox="0 0 22 22">
<defs><style id="current-color-scheme" type="text/css">.ColorScheme-Text{color:#fcfcfc; fill:currentColor;}</style></defs><path d="M11 3a8 8 0 0 0-8 8c0 2.028.757 3.871 2 5.281.208.267.499.505.719.719A7.95 7.95 0 0 0 11 19a8 8 0 0 0 8-8 7.95 7.95 0 0 0-2-5.281c-.111-.126-.225-.256-.344-.375L16.281 5A7.95 7.95 0 0 0 11 3m4.95 3.05a7 7 0 0 1 1.587 2.466l.004.005.02.06c.283.684.357 1.382.423 2.095.005.108.014.214.014.324v.043c-.068 3.545-2.593 6.18-5.953 6.871q-.191.032-.387.053-.204.015-.408.02c-.084.002-.166.013-.25.013l-.045-.004c-.822.013-1.597-.193-2.357-.432q-.07-.024-.137-.05a7 7 0 0 1-.504-.221 7 7 0 0 1-1.906-1.344z" class="ColorScheme-Text" style="fill-opacity:1;stroke:none;fill:currentColor" fill="currentColor"/>
</svg>
