<?xml version='1.0' encoding='ASCII'?>
<svg xmlns="http://www.w3.org/2000/svg" viewBox="0 0 22 22">
<defs><style id="current-color-scheme" type="text/css">.ColorScheme-Contrast{color:#dedede; fill:currentColor;}</style></defs><g fill="currentColor" class="ColorScheme-Contrast" style="fill:currentColor">
<path d="M12.415 9.585a2.5 2.5 0 0 0-.39-.317l-.735.734a1.486 1.486 0 0 1 .417 2.412l-2.12 2.122a1.486 1.486 0 0 1-2.122 0 1.486 1.486 0 0 1 0-2.12l.605-.606a3.5 3.5 0 0 1-.206-1.209l-1.106 1.106a2.506 2.506 0 0 0 0 3.535 2.506 2.506 0 0 0 3.535 0l2.122-2.12a2.506 2.506 0 0 0 0-3.537" class="ColorScheme-Contrast" fill="currentColor" style="fill:currentColor"/>
<path d="M9.587 12.414q.18.181.389.317l.734-.734a1.486 1.486 0 0 1-.417-2.41l2.122-2.123a1.486 1.486 0 0 1 2.12 0 1.486 1.486 0 0 1 0 2.121l-.604.605c.137.391.21.798.206 1.21l1.106-1.108a2.506 2.506 0 0 0 0-3.535 2.506 2.506 0 0 0-3.535 0L9.586 8.878a2.506 2.506 0 0 0 0 3.536" class="ColorScheme-Contrast" fill="currentColor" style="fill:currentColor"/>
</g>
<path fill="currentColor" d="M10.99 2A9 9 0 0 0 2 11a9 9 0 0 0 9 9 9 9 0 0 0 9-9 9 9 0 0 0-9-9zM11 3a8 8 0 0 1 8 8 8 8 0 0 1-8 8 8 8 0 0 1-8-8 8 8 0 0 1 8-8" class="ColorScheme-Contrast" style="fill:currentColor"/>
</svg>
