<?xml version='1.0' encoding='ASCII'?>
<svg xmlns="http://www.w3.org/2000/svg" viewBox="0 0 22 22">
<defs><style id="current-color-scheme" type="text/css">.ColorScheme-Contrast{color:#dedede; fill:currentColor;}</style></defs><g fill="currentColor" class="ColorScheme-Contrast" style="fill:currentColor">
<path d="M8 4v1h9a1.99 1.99 0 0 1 1.988 1.887l-6.129 4.66c-1.03.783-2.688.783-3.718 0L8 10.68v1.232l.33.252c1.465 1.114 3.876 1.114 5.342 0l.719-.547 4.597 3.496A1.99 1.99 0 0 1 17 17H8v1h9c1.662 0 3-1.338 3-3V7c0-1.662-1.338-3-3-3zm11 4.111v5.778l-3.797-2.89z" class="ColorScheme-Contrast" fill="currentColor" style="fill:currentColor"/>
<rect width="6" height="1" x="1" y="7" ry=".5" class="ColorScheme-Contrast" fill="currentColor" style="fill:currentColor"/>
<rect width="5" height="1" x="2" y="11" ry=".5" class="ColorScheme-Contrast" fill="currentColor" style="fill:currentColor"/>
<rect width="4" height="1" x="3" y="15" ry=".5" class="ColorScheme-Contrast" fill="currentColor" style="fill:currentColor"/>
</g>
</svg>
