<?xml version='1.0' encoding='ASCII'?>
<svg xmlns="http://www.w3.org/2000/svg" viewBox="0 0 22 22">
<defs><style id="current-color-scheme" type="text/css">.ColorScheme-Text{color:#fcfcfc; fill:currentColor;}</style></defs><path fill="currentColor" d="M10.5 2c-.277 0-.5.223-.5.5v6.793L8.732 8.025a.499.499 0 1 0-.707.707l2.121 2.122a.5.5 0 0 0 .541.109.5.5 0 0 0 .167-.11l2.12-2.12a.499.499 0 1 0-.706-.708L11 9.293V2.5c0-.277-.223-.5-.5-.5M7 6.03a3.3 3.3 0 0 0-2.17 1.22l-2.625 3.428a1 1 0 0 0-.205.607V17c0 1.108.892 2 2 2h13a1.997 1.997 0 0 0 2-2v-5.715a1 1 0 0 0-.205-.607L16.17 7.25A3.3 3.3 0 0 0 14 6.03v1.015c.763.104 1.124.485 1.375.812L17.781 11H12.95a2.5 2.5 0 0 1-2.45 2 2.5 2.5 0 0 1-2.444-2H3.219l2.406-3.143c.25-.327.612-.708 1.375-.812zM3 12h4.342a3.5 3.5 0 0 0 3.158 2 3.5 3.5 0 0 0 3.152-2H18v5c0 .554-.446 1-1 1H4c-.554 0-1-.446-1-1z" class="ColorScheme-Text" style="fill:currentColor"/>
</svg>
