<svg xmlns="http://www.w3.org/2000/svg" width="16" height="16" viewBox="-3 -3 22 22">
<g fill="#dedede" color="#000" transform="translate(-302 -150)">
<rect width="1" height="15" x="305" y="151" overflow="visible" ry="0" style="marker:none"/>
<path d="M314.656 150.844c-2.824-.28-3.593 4.406-7.656 1.156v8c5 4 5-4 10 0v-8c-.937-.75-1.692-1.092-2.344-1.156m-.468 1.031c.39-.062.96.095 1.812.688v5.687c-.747-.32-1.475-.479-2.125-.375-1.11.178-1.875.844-2.5 1.344s-1.11.834-1.562.906c-.39.062-.961-.095-1.813-.688v-5.687c.748.32 1.475.479 2.125.375 1.11-.178 1.875-.844 2.5-1.344s1.11-.834 1.563-.906" overflow="visible" style="marker:none"/>
</g>
</svg>
