<?xml version='1.0' encoding='ASCII'?>
<svg xmlns="http://www.w3.org/2000/svg" viewBox="0 0 22 22">
<defs><style id="current-color-scheme" type="text/css">.ColorScheme-Contrast{color:#dedede; fill:currentColor;}</style></defs><path fill="currentColor" d="M16.505 11.018a3.5 3.5 0 0 0-3.5 3.5 3.5 3.5 0 0 0 3.5 3.5 3.5 3.5 0 0 0 3.5-3.5 3.5 3.5 0 0 0-3.5-3.5m0 .982a2.517 2.517 0 0 1 2.518 2.518 2.52 2.52 0 0 1-.871 1.898A3.5 3.5 0 0 0 16.505 16a3.5 3.5 0 0 0-1.65.414 2.52 2.52 0 0 1-.868-1.896A2.517 2.517 0 0 1 16.505 12m0 1a1 1 0 0 0-1 1 1 1 0 0 0 1 1 1 1 0 0 0 1-1 1 1 0 0 0-1-1" class="ColorScheme-Contrast" style="fill:currentColor"/>
<g fill="currentColor" class="ColorScheme-Contrast" style="fill:currentColor">
<path d="M5 4C3.338 4 2 5.338 2 7v8c0 1.662 1.338 3 3 3h7v-1H5a1.99 1.99 0 0 1-1.988-1.887l4.597-3.498.721.55c.988.75 2.402.983 3.67.722v-.903c-.952.3-2.083.153-2.86-.437l-6.128-4.66A1.99 1.99 0 0 1 5 5zm12 0v1a1.99 1.99 0 0 1 1.988 1.887L14.894 10h1.623L19 8.111V10h1V7c0-1.662-1.338-3-3-3M3 8.11 6.8 11 3 13.889z" class="ColorScheme-Contrast" fill="currentColor" style="fill:currentColor"/>
<g class="ColorScheme-Contrast" fill="currentColor" style="fill:currentColor">
<path d="M7 1c-1.108 0-2 .892-2 2v6.371h1V3c0-.554.446-1 1-1h8c.554 0 1 .446 1 1v6.371h1V3c0-1.108-.892-2-2-2z" class="ColorScheme-Contrast" fill="currentColor" style="fill:currentColor"/>
<rect width="8" height="1" x="7" y="4" ry=".5" class="ColorScheme-Contrast" fill="currentColor" style="fill:currentColor"/>
<rect width="8" height="1" x="7" y="7" ry=".5" class="ColorScheme-Contrast" fill="currentColor" style="fill:currentColor"/>
</g>
</g>
</svg>
