<svg xmlns="http://www.w3.org/2000/svg" viewBox="0 0 22 22">
<defs id="defs3051">
<style id="current-color-scheme" type="text/css">
.ColorScheme-Text{color:#dedede}
</style>
</defs>
<path d="M3 3v3L1 9v10h13v-1H2v-8h2.078L11 13.996 17.922 10H20v2h1V9l-2-3V3zm1 1h14v4.799l-7 4.04L4 8.8zm1 1v.986L4.986 6h12.028L17 5.986V5zm0 2v1h7V7zm12.707 5-.707.707L19.293 15H15v1h4.293L17 18.293l.707.707L21 15.707l.207-.207-.207-.207z" class="ColorScheme-Text" style="fill:currentColor;fill-opacity:1;stroke:none"/>
</svg>
