<?xml version='1.0' encoding='ASCII'?>
<svg xmlns="http://www.w3.org/2000/svg" viewBox="0 0 22 22">
<defs><style id="current-color-scheme" type="text/css">.ColorScheme-Text{color:#fcfcfc; fill:currentColor;}</style></defs><path d="M1 3v9h1V4h.049l.222.223 5.752 5.754L6 12h1.414l1.316-1.316 1.454 1.45.816.815h.002l.814-.814 1.454-1.451L14.586 12H16l-2.023-2.023 5.752-5.754L19.95 4H20v8h1V3zm2.463 1h15.074L11 11.537zM4 13l-3 3 3 3v-2h2v-2H4zm11 1v1h6v-1zm0 2v1h6v-1zm-7 2v1h6v-1zm7 0v1h6v-1z" class="ColorScheme-Text" style="fill-opacity:1;stroke:none;fill:currentColor" fill="currentColor"/>
</svg>
