<svg xmlns="http://www.w3.org/2000/svg" viewBox="0 0 22 22">
<defs id="defs3051">
<style id="current-color-scheme" type="text/css">
.ColorScheme-Text{color:#dedede}
</style>
</defs>
<path d="M3 3v16h16V3zm1 1h4v4.707A7 3 0 0 1 4 6zm5 0h4v4.873A7 3 0 0 1 11 9a7 3 0 0 1-2-.127zm5 0h4v2a7 3 0 0 1-4 2.707zM4 7.928a8 4 0 0 0 4 1.777v2.59a8 4 0 0 0-4 1.777zm14 .008v6.128a8 4 0 0 0-4-1.77V9.706a8 4 0 0 0 4-1.77M9 9.867A8 4 0 0 0 11 10a8 4 0 0 0 2-.13v2.26a8 4 0 0 0-2-.13 8 4 0 0 0-2 .133zM11 13a7 3 0 0 1 2 .127V18H9v-4.873A7 3 0 0 1 11 13m-3 .293V18H4v-2a7 3 0 0 1 4-2.707m6 0A7 3 0 0 1 18 16v2h-4z" class="ColorScheme-Text" style="fill:currentColor;fill-opacity:1;stroke:none"/>
</svg>
