<?xml version='1.0' encoding='ASCII'?>
<svg xmlns="http://www.w3.org/2000/svg" width="16" height="16" viewBox="-3 -3 22 22">
<defs><style id="current-color-scheme" type="text/css">.ColorScheme-Contrast{color:#dedede; fill:currentColor;}</style></defs><path d="M13.119 3.009q.376.045.628.329c.252.284.253.411.253.665v7.995a.97.97 0 0 1-.253.664.97.97 0 0 1-.628.33.97.97 0 0 1-.69-.168L6.63 8.827a1 1 0 0 1-.384-.51 1 1 0 0 1 .381-1.14l5.803-4q.313-.218.69-.168" class="ColorScheme-Contrast" style="fill:currentColor" fill="currentColor"/>
<rect width="2" height="10" x="2" y="3" fill="currentColor" rx="1" ry="1" class="ColorScheme-Contrast" style="fill:currentColor"/>
</svg>
