<?xml version='1.0' encoding='ASCII'?>
<svg xmlns="http://www.w3.org/2000/svg" viewBox="0 0 22 22">
<defs><style id="current-color-scheme" type="text/css">.ColorScheme-Contrast{color:#dedede; fill:currentColor;}</style></defs><path d="M16 5v2h-3c-2.216 0-4 1.784-4 4 0 1.662-1.338 3-3 3H3v1h3c2.216 0 4-1.784 4-4 0-1.662 1.338-3 3-3h3v2l3-2.5zM3 7v1h3a2.98 2.98 0 0 1 2.162.926q.144-.519.412-.969A3.97 3.97 0 0 0 6 7zm13 5v2h-3a2.98 2.98 0 0 1-2.162-.926 4 4 0 0 1-.412.969A3.97 3.97 0 0 0 13 15h3v2l3-2.5z" class="ColorScheme-Contrast" style="fill-opacity:1;stroke:none;fill:currentColor" fill="currentColor"/>
</svg>
