<?xml version='1.0' encoding='ASCII'?>
<svg xmlns="http://www.w3.org/2000/svg" width="16" height="16" viewBox="-3 -3 22 22">
<defs><style id="current-color-scheme" type="text/css">.ColorScheme-Text{color:#fcfcfc; fill:currentColor;}</style></defs><path d="M5.881 3.009a.97.97 0 0 0-.628.329.97.97 0 0 0-.253.665v7.995a.97.97 0 0 0 .253.664.97.97 0 0 0 .628.33.97.97 0 0 0 .69-.168l5.799-3.997a1 1 0 0 0 .384-.51 1 1 0 0 0-.381-1.14l-5.803-4a.96.96 0 0 0-.689-.168" class="ColorScheme-Text" style="fill:currentColor" fill="currentColor"/>
</svg>
