<svg xmlns="http://www.w3.org/2000/svg" viewBox="0 0 22 22">
<defs id="defs3051">
<style id="current-color-scheme" type="text/css">
.ColorScheme-Text{color:#dedede}
</style>
</defs>
<path d="M4.5 3a1.5 1.5 0 1 0 0 3 1.5 1.5 0 0 0 0-3M7 4v1h1V4zm2 0v1h10V4zm0 2v1h3V6zM4.5 9a1.5 1.5 0 1 0 0 3 1.5 1.5 0 0 0 0-3M7 10v1h1v-1zm2 0v1h10v-1zm3 2-2 1.5 2 1.5v-1h5c.554 0 1 .446 1 1h1c0-1.108-.892-2-2-2h-5zm-7.5 3a1.5 1.5 0 1 0 0 3 1.5 1.5 0 0 0 0-3M7 16v1h1v-1zm3 0c0 1.108.892 2 2 2h5v1l2-1.5-2-1.5v1h-5c-.554 0-1-.446-1-1z" class="ColorScheme-Text" style="fill:currentColor;fill-opacity:1;stroke:none"/>
</svg>
