<svg xmlns="http://www.w3.org/2000/svg" viewBox="0 0 22 22">
<defs id="defs3051">
<style id="current-color-scheme" type="text/css">
.ColorScheme-Text{color:#dedede}
</style>
</defs>
<path d="M8 6C6.338 6 5 7.338 5 9s1.338 3 3 3 3-1.338 3-3-1.338-3-3-3m0 7c-2.77 0-5 2.23-5 5v1h10v-1c0-2.77-2.23-5-5-5m0 1c2.216 0 4 1.784 4 4H4c0-2.216 1.784-4 4-4" class="ColorScheme-Text" style="fill:currentColor;fill-opacity:1;stroke:none"/>
<path d="M10 3c-.554 0-1 .446-1 1s.446 1 1 1 1-.446 1-1-.446-1-1-1m4 0c-.554 0-1 .446-1 1s.446 1 1 1 1-.446 1-1-.446-1-1-1m4 0c-.554 0-1 .446-1 1s.446 1 1 1 1-.446 1-1-.446-1-1-1" style="fill:#da4453;fill-opacity:1;stroke:none"/>
</svg>
