<?xml version='1.0' encoding='ASCII'?>
<svg xmlns="http://www.w3.org/2000/svg" width="16" height="16" viewBox="-3 -3 22 22">
<defs><style id="current-color-scheme" type="text/css">.ColorScheme-Text{color:#fcfcfc; fill:currentColor;}</style></defs><path d="M13.463 2.537c4.682 4.683-3.122 7.804 0 10.925-4.682 4.683-7.804-3.121-10.925 0-4.682-4.682 3.121-7.803 0-10.925 4.682-4.682 7.804 3.122 10.925 0" class="ColorScheme-Text" opacity=".35" style="fill:currentColor" fill="currentColor"/>
<path fill="currentColor" d="M2 0C.892 0 0 .892 0 2v12c0 1.108.892 2 2 2h12c1.108 0 2-.892 2-2V2c0-1.108-.892-2-2-2Zm0 1h12c.554 0 1 .446 1 1v12c0 .554-.446 1-1 1H2c-.554 0-1-.446-1-1V2c0-.554.446-1 1-1" class="ColorScheme-Text" style="fill:currentColor"/>
</svg>
