<svg xmlns="http://www.w3.org/2000/svg" id="svg3521" width="22" height="22" version="1.1">
<defs id="defs4339">
<style id="current-color-scheme" type="text/css">
.ColorScheme-Text{color:#dedede}
</style>
</defs>
<g id="layer1" transform="translate(0 -1030.4)">
<path id="rect4314" d="M3 5v1h16V5zm8.801 2.1c-1.142-.015-2.211.69-3.069 1.9H3v1h5.133c-.435.852-.772 1.871-1.004 3H3v1h3.951c-.035.267-.07.534-.092.807q.024-.162.051-.323c.058-.16.124-.322.184-.484h7.051a2 2 0 0 0 1.328 1.322A2 2 0 0 0 17.961 14H19v-1h-.996a2 2 0 0 0-1.369-1.5l-.008-.002a2 2 0 0 0-2.488 1.334 2 2 0 0 0-.041.168H7.471c.432-1.092.916-2.14 1.472-3h6.065l.002.002q.428.49.885 1.115A10 10 0 0 0 15.402 10H19V9h-4.201c-.471-.663-1.002-1.182-1.578-1.504l-.121-.064a2.9 2.9 0 0 0-1.299-.33zm.189.892c.605.068 1.271.398 1.996 1.008H9.703c.663-.702 1.415-1.105 2.287-1.008m4.067 4.465a1 1 0 0 1 .255.035l.026.008a.98.98 0 0 1 .652 1.217.98.98 0 0 1-1.213.66.98.98 0 0 1-.668-1.209.98.98 0 0 1 .948-.711m-8.96 2.957a2 2 0 0 0-1.958 1.418 2 2 0 0 0-.041.168H3v1h2.145a2 2 0 0 0 1.326 1.322A2 2 0 0 0 8.96 18H19v-1H9.004a2 2 0 0 0-1.37-1.5l-.007-.002a2 2 0 0 0-.53-.084m-.04 1.043a1 1 0 0 1 .256.035l.025.008a.98.98 0 0 1 .652 1.217.98.98 0 0 1-1.213.66.98.98 0 0 1-.668-1.209.98.98 0 0 1 .948-.711" class="ColorScheme-Text" style="fill:currentColor" transform="translate(0 1030.4)"/>
</g>
</svg>
