<?xml version='1.0' encoding='ASCII'?>
<svg xmlns="http://www.w3.org/2000/svg" id="svg4337" width="22" height="22" version="1.1">
<defs><style id="current-color-scheme" type="text/css">.ColorScheme-Contrast{color:#dedede; fill:currentColor;}</style></defs><g id="layer1" transform="translate(0 6)" class="ColorScheme-Contrast" fill="currentColor" style="fill:currentColor">
<path id="rect4179" d="M12.013-2.991v2h-9v1h9v1.777a2 2 0 0 0-.365-.154l-.008-.002a2 2 0 0 0-2.488 1.334l-.012.045H3.013v1h6.111a2 2 0 0 0 1.36 1.445 2 2 0 0 0 .308.066 2 2 0 0 0-1.64 1.399l-.024.09H3.013v1h6.121a2 2 0 0 0 1.35 1.398 2 2 0 0 0 .307.066 2 2 0 0 0-1.64 1.399 2 2 0 0 0-.034.136H3.013v1h6.133a2 2 0 0 0 1.338 1.354 2 2 0 0 0 2.492-1.33l.006-.024h6.031v-1h-6v-3h6v-1h-6v-3h6v-1h-6v-3h6v-1h-6v-2zM11.07 2.56a1 1 0 0 1 .255.037l.026.006a.98.98 0 0 1 .652 1.217.98.98 0 0 1-1.213.662.98.98 0 0 1-.668-1.209.98.98 0 0 1 .948-.713m.943 2.737v.441a2 2 0 0 0-.365-.154l-.008-.002a2 2 0 0 0-.3-.065 2 2 0 0 0 .673-.22m-.943 1.218a1 1 0 0 1 .255.036l.026.007a.98.98 0 0 1 .652 1.217.98.98 0 0 1-1.213.66.98.98 0 0 1-.668-1.209.98.98 0 0 1 .948-.71m.943 2.737v.441a2 2 0 0 0-.365-.154l-.008-.002a2 2 0 0 0-.303-.065 2 2 0 0 0 .676-.22m-.943 1.218a1 1 0 0 1 .256.035l.025.006a.98.98 0 0 1 .653 1.219.98.98 0 0 1-1.213.66.98.98 0 0 1-.668-1.209.98.98 0 0 1 .947-.71" class="ColorScheme-Contrast" style="fill:currentColor" fill="currentColor"/>
</g>
</svg>
