<svg xmlns="http://www.w3.org/2000/svg" id="svg3521" width="22" height="22" version="1.1">
<defs id="defs4339">
<style id="current-color-scheme" type="text/css">
.ColorScheme-Text{color:#dedede}
</style>
</defs>
<g id="layer1" transform="translate(0 -1030.4)">
<path id="rect4298" d="M8 4v10h1V6h7v8h1V4zM5.086 14.301l-.707.707 1.414 1.414-1.414 1.414.707.707L6.5 17.129l1.414 1.414.707-.707-1.414-1.414 1.414-1.414-.707-.707L6.5 15.715zm8 0-.707.707 1.414 1.414-1.414 1.414.707.707 1.414-1.414 1.414 1.414.707-.707-1.414-1.414 1.414-1.414-.707-.707-1.414 1.414z" class="ColorScheme-Text" style="fill:currentColor" transform="translate(0 1030.4)"/>
</g>
</svg>
