<?xml version='1.0' encoding='ASCII'?>
<svg xmlns="http://www.w3.org/2000/svg" width="16" height="16" viewBox="-3 -3 22 22">
<defs><style id="current-color-scheme" type="text/css">.ColorScheme-Text{color:#fcfcfc; fill:currentColor;}</style></defs><path d="M7.678 1.214v.705h.646v-.705zm.306.991q-.189.002-.363.212L5.47 4.876l-3.727.668a.35.35 0 0 0-.155.62L4.375 8.37l-.736 5.032a.35.35 0 0 0 .436.39l3.926-1.051 3.924 1.051a.35.35 0 0 0 .437-.39l-.737-5.032 2.788-2.205a.35.35 0 0 0-.155-.62l-3.726-.67-2.15-2.457q-.208-.215-.398-.213m.017.842 2.085 2.382c.052.06.123.101.201.115l3.084.554-2.339 1.848a.35.35 0 0 0-.129.325l.689 4.706-3.46-.927a.4.4 0 0 0-.138-.009.4.4 0 0 0-.126.009l-3.459.927.688-4.706a.35.35 0 0 0-.13-.325L2.63 6.098l3.085-.554a.35.35 0 0 0 .202-.115zm-.324.538v.705h.647v-.705zm0 1.258v.705h.647v-.705zm0 1.258v.705h.647V6.1zm0 1.258v.705h.647v-.705zm0 1.258v.705h.647v-.705zm0 1.258v.705h.647v-.705zm0 1.258v.705h.647v-.705zm0 1.897v.705h.647v-.705zm0 1.05v.706h.647v-.705z" class="ColorScheme-Text" style="fill:currentColor" fill="currentColor"/>
</svg>
