<svg xmlns="http://www.w3.org/2000/svg" viewBox="0 0 22 22">
<defs id="defs3051">
<style id="current-color-scheme" type="text/css">
.ColorScheme-Text{color:#fcfcfc}.ColorScheme-Highlight{color:#3daee9}
</style>
</defs>
<path d="M3 3v1h7V3zm9 0v1h7V3zM3 6v1h7V6zm9 0v1h7V6zM3 9v1h7V9zm9 0v1h7V9zm-9 4v1h7v-1zm15 0a2.5 2.5 0 0 0-1.268.348c.208.261.384.545.51.859A1.5 1.5 0 0 1 18 14h2.01v-1zm-5 3-2 1.5 2 1.5v-1h1a2.5 2.5 0 0 0 1.268-.348 3.5 3.5 0 0 1-.51-.859A1.5 1.5 0 0 1 14 17h-1zM3 17v1h7v-1z" class="ColorScheme-Text" style="fill:currentColor;fill-opacity:1;stroke:none"/>
<path d="m13 12-2 1.5 2 1.5v-1h1a1.5 1.5 0 0 1 1.5 1.5A2.5 2.5 0 0 0 18 18h2.031v-1H18a1.5 1.5 0 0 1-1.5-1.5A2.5 2.5 0 0 0 14 13h-1z" class="ColorScheme-Highlight" style="fill:currentColor;fill-opacity:1;stroke:none"/>
</svg>
