<?xml version='1.0' encoding='ASCII'?>
<svg xmlns="http://www.w3.org/2000/svg" viewBox="0 0 22 22">
<defs><style id="current-color-scheme" type="text/css">.ColorScheme-Text{color:#fcfcfc; fill:currentColor;}</style></defs><path d="M3 3v1h6V3zm13 0v3h1v10.092c-.424.15-.757.485-.908.908H6v-1H3v3h3v-1h10.092A1.497 1.497 0 1 0 18 16.092V6h1V3zm-6 1L8.146 7.951 4 8.584l3 3.074L6.293 16 10 13.951 13.707 16 13 11.658l3-3.074-4.146-.633zm7 0h1v1h-1zM3 5v1h5V5zm0 2v1h3.246V7zm0 4v1h2v-1zm0 2v1h3v-1zm1 4h1v1H4zm13.5 0a.499.499 0 1 1 0 1 .499.499 0 1 1 0-1" class="ColorScheme-Text" style="fill-opacity:1;stroke:none;fill:currentColor" fill="currentColor"/>
</svg>
