<svg xmlns="http://www.w3.org/2000/svg" width="16" height="16" viewBox="-3 -3 22 22">
<g fill="currentColor" fill-rule="evenodd">
<style id="current-color-scheme" type="text/css">
.ColorScheme-Contrast{color:#dedede}
</style>
<path d="m8 5 4 4H4z" class="ColorScheme-Contrast" style="paint-order:fill markers stroke"/>
<rect width="8" height="1" x="4" y="10" ry="0" style="paint-order:fill markers stroke"/>
</g>
<path fill="currentColor" d="M3 1c-1.108 0-2 .892-2 2v10c0 1.108.892 2 2 2h10c1.108 0 2-.892 2-2V3c0-1.108-.892-2-2-2zm0 1h10c.554 0 1 .446 1 1v10c0 .554-.446 1-1 1H3c-.554 0-1-.446-1-1V3c0-.554.446-1 1-1"/>
</svg>
