<?xml version='1.0' encoding='ASCII'?>
<svg xmlns="http://www.w3.org/2000/svg" width="16" height="16" viewBox="-3 -3 22 22">
<defs><style id="current-color-scheme" type="text/css">.ColorScheme-Text{color:#fcfcfc; fill:currentColor;}</style></defs><path d="M13 8v3.27a2 2 0 0 0-1-.27 2 2 0 0 0-2 2 2 2 0 0 0 2 2 2 2 0 0 0 2-2V9h2V8zm-1 4a1 1 0 0 1 1 1 1 1 0 0 1-1 1 1 1 0 0 1-1-1 1 1 0 0 1 1-1M3 3h10v1H3zm0 4h9v1H3zm0 4h6v1H3z" class="ColorScheme-Text" style="fill:currentColor" fill="currentColor"/>
</svg>
