<svg xmlns="http://www.w3.org/2000/svg" viewBox="0 0 22 22">
<defs id="defs3051">
<style id="current-color-scheme" type="text/css">
.ColorScheme-Text{color:#dedede}.ColorScheme-Highlight{color:#3daee9}
</style>
</defs>
<path d="M3 3v3h3V3zm13 0v3h3V3zM4 4h1v1H4zm13 0h1v1h-1zM7 5v1h2V5zm3 0v1h2V5zm3 0v1h2V5zM5 7v2h1V7zm11 0v2h1V7zM5 10v2h1v-2zm11 0v2h1v-2zM5 13v2h1v-2zm-2 3v3h3v-3zm4 0v1h2v-1zm3 0v1h2v-1zm-6 1h1v1H4z" class="ColorScheme-Text" style="fill:currentColor;fill-opacity:1;stroke:none"/>
<path d="M13 13v2h1v-1h1v-1zm4 0v1h1v1h1v-2zm-4 4v2h2v-1h-1v-1zm5 0v1h-1v1h2v-2z" class="ColorScheme-Highlight" style="fill:currentColor;fill-opacity:1;stroke:none"/>
</svg>
