<?xml version='1.0' encoding='ASCII'?>
<svg xmlns="http://www.w3.org/2000/svg" width="16" height="16" viewBox="-3 -3 22 22">
<defs><style id="current-color-scheme" type="text/css">.ColorScheme-Text{color:#fcfcfc; fill:currentColor;}</style></defs><path d="M3 0c-.554 0-1 .446-1 1H0v1h2v1c0 .554.446 1 1 1h2c.554 0 1-.446 1-1V2h4v1c0 .554.446 1 1 1h2c.554 0 1-.446 1-1V2h2V1h-2c0-.554-.446-1-1-1h-2c-.554 0-1 .446-1 1H6c0-.554-.446-1-1-1zm0 1h2v2H3zm8 0h2v2h-2zM7.503 6.006h.994V11h-.994z" class="ColorScheme-Text" style="stroke-linecap:round;stroke-linejoin:round;stop-fill:currentColor" fill="currentColor"/>
<path d="M-2.828 13.142h4v1h-4z" style="stroke-linecap:round;stroke-linejoin:round;stop-fill:currentColor" transform="rotate(-45)" class="ColorScheme-Text" fill="currentColor"/>
<path d="M-14.142 1.828h4v1h-4z" style="stroke-linecap:round;stroke-linejoin:round;stop-fill:currentColor" transform="scale(-1 1)rotate(-45)" class="ColorScheme-Text" fill="currentColor"/>
<path d="M3 12c-.554 0-1 .446-1 1v2c0 .554.446 1 1 1h2c.554 0 1-.446 1-1v-2c0-.554-.446-1-1-1Zm0 1h2v2H3Zm8-1c-.554 0-1 .446-1 1v2c0 .554.446 1 1 1h2c.554 0 1-.446 1-1v-2c0-.554-.446-1-1-1zm0 1h2v2h-2zM0 13h2v1H0zm14 0h2v1h-2z" style="stroke-linecap:round;stroke-linejoin:round;stop-fill:currentColor" class="ColorScheme-Text" fill="currentColor"/>
</svg>
