<svg xmlns="http://www.w3.org/2000/svg" viewBox="0 0 22 22">
<defs id="defs3051">
<style id="current-color-scheme" type="text/css">
.ColorScheme-Text{color:#fcfcfc}.ColorScheme-Highlight{color:#3daee9}
</style>
</defs>
<path d="M1 2a10 15 0 0 0 8 14.68v-1.043A9 14 0 0 1 2 2zm19 0a9 14 0 0 1-7 13.633v1.062A10 15 0 0 0 21 2zM3 15v3h3v-1h1v-1H6v-1zm15 0v1h-1v1h1v1h3v-3zM4 16h1v1H4zm11 0v1h1v-1zm4 0h1v1h-1z" class="ColorScheme-Text" style="fill:currentColor;fill-opacity:1;stroke:none"/>
<path d="M8.5 14v5h5v-5zm1 1h3v3h-3z" class="ColorScheme-Highlight" style="fill:currentColor;fill-opacity:1;stroke:none"/>
</svg>
