<svg xmlns="http://www.w3.org/2000/svg" width="16" height="16" viewBox="-3 -3 22 22">
<path fill="currentColor" fill-rule="evenodd" d="M8 1C6.338 1 5 2.338 5 4v4c0 1.662 1.338 3 3 3h4c1.662 0 3-1.338 3-3V4c0-1.662-1.338-3-3-3zm0 1h4c1.108 0 2 .892 2 2v4c0 1.108-.892 2-2 2H8c-1.108 0-2-.892-2-2V4c0-1.108.892-2 2-2" style="paint-order:stroke fill markers"/>
<path fill="currentColor" fill-rule="evenodd" d="M6 5v1a4 4 0 0 1 4 4h1a5 5 0 0 0-5-5" opacity=".35" style="paint-order:stroke fill markers"/>
<path fill="currentColor" fill-rule="evenodd" d="M4 5.424A5 5 0 0 0 1 10a5 5 0 0 0 5 5 5 5 0 0 0 4.576-3H9.451A4 4 0 0 1 6 14a4 4 0 0 1-4-4 4 4 0 0 1 2-3.451z" style="paint-order:stroke fill markers"/>
</svg>
