<?xml version='1.0' encoding='ASCII'?>
<svg xmlns="http://www.w3.org/2000/svg" width="16" height="16" viewBox="-3 -3 22 22">
<defs><style id="current-color-scheme" type="text/css">.ColorScheme-Text{color:#fcfcfc; fill:currentColor;}</style></defs><g fill="currentColor" class="ColorScheme-Text" style="fill:currentColor">
<path d="M13 7v1H3V7z" font-family="sans-serif" font-weight="400" overflow="visible" style="line-height:normal;font-variant-ligatures:none;font-variant-position:normal;font-variant-caps:normal;font-variant-numeric:normal;font-variant-alternates:normal;font-feature-settings:normal;text-indent:0;text-align:start;text-decoration-line:none;text-decoration-style:solid;text-decoration-text-transform:none;shape-padding:0;isolation:auto;mix-blend-mode:normal;marker:none;fill:currentColor" class="ColorScheme-Text" fill="currentColor"/>
<path d="m5 5-.002 5a37 37 0 0 1-2.323-1.166A45 45 0 0 1 .416 7.5a52 52 0 0 1 2.26-1.32A43 43 0 0 1 4.999 5zm6 0 .002 5q1.14-.522 2.323-1.166A45 45 0 0 0 15.584 7.5a52 52 0 0 0-2.26-1.32A43 43 0 0 0 11.001 5z" overflow="visible" style="marker:none;fill:currentColor" class="ColorScheme-Text" fill="currentColor"/>
</g>
</svg>
