<svg xmlns="http://www.w3.org/2000/svg" width="16" height="16" viewBox="-3 -3 22 22">
<path fill="currentColor" fill-rule="evenodd" d="M4 1C2.338 1 1 2.338 1 4v8c0 1.662 1.338 3 3 3h8c1.662 0 3-1.338 3-3V4c0-1.662-1.338-3-3-3zm0 1h8c1.108 0 2 .892 2 2v8c0 1.108-.892 2-2 2H4c-1.108 0-2-.892-2-2V4c0-1.108.892-2 2-2" style="paint-order:stroke fill markers"/>
<path fill="currentColor" fill-rule="evenodd" d="M5.314-.5h12v1h-12z" style="paint-order:stroke fill markers" transform="rotate(45)"/>
</svg>
