<?xml version='1.0' encoding='ASCII'?>
<svg xmlns="http://www.w3.org/2000/svg" viewBox="0 0 22 22">
<defs><style id="current-color-scheme" type="text/css">.ColorScheme-Contrast{color:#dedede; fill:currentColor;}</style></defs><path d="M6 3v3H5v1h1v3h3v2H6v3H5v1h1v3h10v-3h1v-1h-1v-3h-3v-2h3V7h1V6h-1V3zm1 1h8v5H7zM3 6v1h1V6zm15 0v1h1V6zm-8 4h2v2h-2zm-3 3h8v5H7zm1 1v3h6v-3zm-5 1v1h1v-1zm15 0v1h1v-1z" class="ColorScheme-Contrast" style="fill-opacity:1;stroke:none;fill:currentColor" fill="currentColor"/>
</svg>
