<?xml version='1.0' encoding='ASCII'?>
<svg xmlns="http://www.w3.org/2000/svg" viewBox="0 0 22 22">
<defs><style id="current-color-scheme" type="text/css">.ColorScheme-Text{color:#fcfcfc; fill:currentColor;}</style></defs><path d="M3 3v4h1V4h3V3zm12 0v1h3v3h1V3zM7.5 5A2.5 2.5 0 0 0 5 7.5 2.5 2.5 0 0 0 7.5 10 2.5 2.5 0 0 0 10 7.5 2.5 2.5 0 0 0 7.5 5M12 5v5h5V5zm-6 7v5h3v-5zm8.5 0L12 17h5zM3 15v4h4v-1H4v-3zm15 0v3h-3v1h4v-4z" class="ColorScheme-Text" style="fill-opacity:1;stroke:none;fill:currentColor" fill="currentColor"/>
</svg>
