<?xml version='1.0' encoding='ASCII'?>
<svg xmlns="http://www.w3.org/2000/svg" width="16" height="16" viewBox="-3 -3 22 22">
<defs><style id="current-color-scheme" type="text/css">.ColorScheme-Text{color:#fcfcfc; fill:currentColor;}</style></defs><path d="M4 7c-1.108 0-2 .892-2 2v4c0 1.108.892 2 2 2h8c1.108 0 2-.892 2-2V9c0-1.108-.892-2-2-2Zm0 1h8c.554 0 1 .446 1 1v4c0 .554-.446 1-1 1H4c-.554 0-1-.446-1-1V9c0-.554.446-1 1-1m8-7C9.784 1 8 2.784 8 5v2h1V5c0-1.662 1.338-3 3-3s3 1.338 3 3v2h1V5c0-2.216-1.784-4-4-4" class="ColorScheme-Text" style="stroke-linecap:round;stroke-linejoin:round;stop-fill:currentColor" fill="currentColor"/>
</svg>
