<?xml version='1.0' encoding='ASCII'?>
<svg xmlns="http://www.w3.org/2000/svg" width="16" height="16" viewBox="-3 -3 22 22">
<defs><style id="current-color-scheme" type="text/css">.ColorScheme-Contrast{color:#dedede; fill:currentColor;}</style></defs><g fill="currentColor" class="ColorScheme-Contrast" style="fill:currentColor">
<path d="m13.909 1.307-3.304 3.307q1.097.409 2.306.764 1.2.347 2.375.612a49 49 0 0 0-.621-2.366 40 40 0 0 0-.756-2.316z" overflow="visible" style="marker:none;fill:currentColor" class="ColorScheme-Contrast" fill="currentColor"/>
<path d="m12.756 11.656-.072.084.75.66.091-.103.04-.05.48-.72-.832-.554zm-1.11 1.108-.34.226.555.832.368-.244.05-.039.422-.37-.658-.751zm-1.353.779-.676.23.322.948.717-.246.06-.024.218-.11-.442-.896zm-2.326.459.066.996.801-.053-.066-.998z" font-family="sans-serif" font-weight="400" overflow="visible" style="line-height:normal;font-variant-ligatures:normal;font-variant-position:normal;font-variant-caps:normal;font-variant-numeric:normal;font-variant-alternates:normal;font-feature-settings:normal;text-indent:0;text-align:start;text-decoration-line:none;text-decoration-style:solid;text-decoration-text-transform:none;text-orientation:mixed;shape-padding:0;isolation:auto;mix-blend-mode:normal;fill:currentColor" class="ColorScheme-Contrast" fill="currentColor"/>
<path d="M8 6a2 2 0 0 1 2 2 2 2 0 0 1-2 2 2 2 0 0 1-2-2 2 2 0 0 1 2-2m0 1a1 1 0 0 0-1 1 1 1 0 0 0 1 1 1 1 0 0 0 1-1 1 1 0 0 0-1-1" class="ColorScheme-Contrast" fill="currentColor" style="fill:currentColor"/>
<path d="M7.574 1.014a7 7 0 0 0-2.347.558 7.005 7.005 0 0 0-4.082 7.844A7.005 7.005 0 0 0 8 15h.5v-1H8a5.996 5.996 0 0 1-5.877-4.787 5.995 5.995 0 0 1 3.5-6.723 5.995 5.995 0 0 1 7.291 2.069l.287.41.82-.574-.287-.41a7 7 0 0 0-6.16-2.971" font-family="sans-serif" font-weight="400" overflow="visible" style="line-height:normal;font-variant-ligatures:normal;font-variant-position:normal;font-variant-caps:normal;font-variant-numeric:normal;font-variant-alternates:normal;font-feature-settings:normal;text-indent:0;text-align:start;text-decoration-line:none;text-decoration-style:solid;text-decoration-text-transform:none;text-orientation:mixed;shape-padding:0;isolation:auto;mix-blend-mode:normal;fill:currentColor" class="ColorScheme-Contrast" fill="currentColor"/>
</g>
</svg>
