<?xml version='1.0' encoding='ASCII'?>
<svg xmlns="http://www.w3.org/2000/svg" width="16" height="16" viewBox="-3 -3 22 22">
<defs><style id="current-color-scheme" type="text/css">.ColorScheme-Text{color:#fcfcfc; fill:currentColor;}</style></defs><g fill="currentColor" class="ColorScheme-Text" style="fill:currentColor">
<path d="M7 3h1v10H7z" font-family="sans-serif" font-weight="400" overflow="visible" style="line-height:normal;font-variant-ligatures:none;font-variant-position:normal;font-variant-caps:normal;font-variant-numeric:normal;font-variant-alternates:normal;font-feature-settings:normal;text-indent:0;text-align:start;text-decoration-line:none;text-decoration-style:solid;text-decoration-text-transform:none;shape-padding:0;isolation:auto;mix-blend-mode:normal;marker:none;fill:currentColor" class="ColorScheme-Text" fill="currentColor"/>
<path d="m5 11 5 .002q-.522 1.14-1.166 2.323A44 44 0 0 1 7.5 15.584a52 52 0 0 1-1.32-2.26A43 43 0 0 1 5 11.001zm0-6 5-.002a37 37 0 0 0-1.166-2.323A44 44 0 0 0 7.5.416a52 52 0 0 0-1.32 2.26A43 43 0 0 0 5 4.999z" overflow="visible" style="marker:none;fill:currentColor" class="ColorScheme-Text" fill="currentColor"/>
</g>
</svg>
