<?xml version='1.0' encoding='ASCII'?>
<svg xmlns="http://www.w3.org/2000/svg" viewBox="0 0 22 22">
<defs><style id="current-color-scheme" type="text/css">.ColorScheme-Text{color:#fcfcfc; fill:currentColor;}</style></defs><path d="M6 3v12.092l-2.281-2.246-.719.709 3.281 3.23L6.5 17l.219-.215L10 13.555l-.719-.71L7 15.093V3zm4 1v1h9V4zm6 2v1h3V6zm-4 2v1h7V8zm-2 2v1h9v-1zm5 2v1h4v-1zm-3 2v1h7v-1zm-1 2v1h8v-1zm-8 2v1h16v-1z" class="ColorScheme-Text" style="fill-opacity:1;stroke:none;fill:currentColor" fill="currentColor"/>
</svg>
