<svg xmlns="http://www.w3.org/2000/svg" width="16" height="16" viewBox="-3 -3 22 22">
<style id="current-color-scheme" type="text/css">
.ColorScheme-Contrast{color:#dedede}
</style>
<path d="M3 2v1h10V2zm10 1v10h1V3zm0 10H3v1h10zM3 13V3H2v10z" class="ColorScheme-Contrast" style="fill:#dedede;fill-opacity:1"/>
<path d="M5 5h6v6H5Z" style="opacity:.5;fill:#dedede;fill-opacity:1"/>
<path d="M2 1c-.554 0-1 .446-1 1v1c0 .554.446 1 1 1h1c.554 0 1-.446 1-1V2c0-.554-.446-1-1-1zm0 1h1v1H2zm11-1c-.554 0-1 .446-1 1v1c0 .554.446 1 1 1h1c.554 0 1-.446 1-1V2c0-.554-.446-1-1-1Zm0 1h1v1h-1zM2 12c-.554 0-1 .446-1 1v1c0 .554.446 1 1 1h1c.554 0 1-.446 1-1v-1c0-.554-.446-1-1-1Zm0 1h1v1H2Zm11-1c-.554 0-1 .446-1 1v1c0 .554.446 1 1 1h1c.554 0 1-.446 1-1v-1c0-.554-.446-1-1-1zm0 1h1v1h-1z" style="fill:#dedede;stroke-linecap:round;stroke-linejoin:round;stop-color:#000"/>
</svg>
