<svg xmlns="http://www.w3.org/2000/svg" viewBox="0 0 22 22">
<defs id="defs3051">
<style id="current-color-scheme" type="text/css">
.ColorScheme-Text{color:#fcfcfc}.ColorScheme-Highlight{color:#3daee9}
</style>
</defs>
<path d="M15 4.5A10.5 10.5 0 0 0 4.5 15h1A9.5 9.5 0 0 1 15 5.5zm1.5 9.5a2.5 2.5 0 0 0-2.5 2.5 2.5 2.5 0 0 0 .416 1.377l.732-.732A1.5 1.5 0 0 1 15 16.5a1.5 1.5 0 0 1 1.5-1.5 1.5 1.5 0 0 1 .645.148l.732-.732A2.5 2.5 0 0 0 16.5 14m2.084 1.123-.732.732A1.5 1.5 0 0 1 18 16.5a1.5 1.5 0 0 1-1.5 1.5 1.5 1.5 0 0 1-.645-.148l-.732.732A2.5 2.5 0 0 0 16.5 19a2.5 2.5 0 0 0 2.5-2.5 2.5 2.5 0 0 0-.416-1.377" class="ColorScheme-Text" style="fill:currentColor;fill-opacity:1;stroke:none"/>
<path d="M15 3v4h4V3zm1 1h2v2h-2zM3 15v4h4v-4zm1 1h2v2H4z" class="ColorScheme-Highlight" style="fill:currentColor;fill-opacity:1;stroke:none"/>
</svg>
