<?xml version='1.0' encoding='ASCII'?>
<svg xmlns="http://www.w3.org/2000/svg" viewBox="0 0 22 22">
<defs><style id="current-color-scheme" type="text/css">.ColorScheme-Text{color:#fcfcfc; fill:currentColor;}</style></defs><path d="M4 3v14H3v1h1v1h1v-1h14v-1H5v-1h3v-.008l.008.008 2-2H11.6l2 2H19v-1h-4.986l-2-2h-2.42l-2 2H5v-4h5v-.008l.008.008.996-.996L11 10l-.703-.703-.703.703H5V3zm7 7h2V9h-1V8h-1zm0-6v2h1V5h1V4zm4 0v1h1v1h1V4zm-1 1.594-.707.707-.996.996.707.707.996-.996.996.996.707-.707zM16 8v1h-1v1h2V8zm3 0-1 1h1z" class="ColorScheme-Text" style="fill-opacity:1;stroke:none;fill:currentColor" fill="currentColor"/>
<path d="m14 7-1.996 2H13v1h-1.994l-.998 1H5v4h2.6l2-2h2.408L14 14.992 19 15V9h-2v1h-2V9h1zm-4 7-2 2H5v1h14v-1h-5.4l-2-2z" class="ColorScheme-Text" style="fill-opacity:.5;stroke:none;fill:currentColor" fill="currentColor"/>
</svg>
