<?xml version='1.0' encoding='ASCII'?>
<svg xmlns="http://www.w3.org/2000/svg" viewBox="0 0 22 22">
<defs><style id="current-color-scheme" type="text/css">.ColorScheme-Text{color:#fcfcfc; fill:currentColor;}</style></defs><path d="M11 3c-4.432 0-8 3.568-8 8s3.568 8 8 8 8-3.568 8-8-3.568-8-8-8m0 1c1.366 0 2.634.393 3.709 1.064l-2.65 4.243c.52.324.87.88.923 1.527l4.989-.416c.015.193.029.385.029.582 0 3.878-3.122 7-7 7s-7-3.122-7-7 3.122-7 7-7m0 1a5.98 5.98 0 0 0-4.686 2.25l3.13 2.504A1.99 1.99 0 0 1 11 9zm-1.416 7.416-2.123 2.123A5 5 0 0 0 11 16v-3a2 2 0 0 1-1.416-.584" class="ColorScheme-Text" style="fill-opacity:1;stroke:none;fill:currentColor" fill="currentColor"/>
</svg>
