<svg xmlns="http://www.w3.org/2000/svg" viewBox="0 0 22 22">
<defs id="defs3051">
<style id="current-color-scheme" type="text/css">
.ColorScheme-Text{color:#dedede}
</style>
</defs>
<path d="M4 3v14H3v1h1v1h1v-1h14v-1h-.293l-.748-.748-.828-.828-2-2-.004.004-.006-.004-2.123 2.123-1.295-1.295-.828-.828-2-2H5V10h3.875l2-2 .828-.828 1.295-1.295L15.121 8l.006-.004.004.004 2-2 .828-.828L19 4.13l-.707-.707-1.041 1.04-.828.829-1.297 1.297L13 4.465l-.002.002-.002-.002-1.527 1.527H5V3zm1 3h6.46l-.464.465-.828.828L8.461 9H5zm0 6.424h3.46l1.708 1.707.828.828.465.465H5zm10.127 2.41 1.297 1.297.828.828.041.041H5v-1.568h6.469l1.527 1.527.002-.002.002.002z" class="ColorScheme-Text" style="fill:currentColor;fill-opacity:1;stroke:none"/>
<path d="m18.934 4.064.066.067v-.004zm.066.067-1.041 1.04-.828.829-2 2-.004-.004-.006.004-2.123-2.123-1.295 1.295-.828.828-2 2H5v1.424h3.875l2 2 .828.828 1.295 1.295 2.123-2.123.006.004.004-.004 2 2 .828.828.748.748H19zM5 12.424v3h6.46l-.464-.465-.828-.828-1.707-1.707zm10.127 2.41L13 16.959l-.002-.002-.002.002-1.527-1.527H5V17h5l2-.008.008.008h.006l1.992-.008 3.285.006-.039-.039-.828-.828z" class="ColorScheme-Text" style="fill:currentColor;fill-opacity:.5;stroke:none"/>
</svg>
