<?xml version='1.0' encoding='ASCII'?>
<svg xmlns="http://www.w3.org/2000/svg" width="16" height="16" viewBox="-3 -3 22 22">
<defs><style id="current-color-scheme" type="text/css">.ColorScheme-Contrast{color:#dedede; fill:currentColor;}</style></defs><g fill="currentColor" class="ColorScheme-Contrast" style="fill:currentColor">
<path stroke-width=".778" d="M9.78 10.55h2.342v1.55l-1.561-.775zm3.123 0h2.341l-.78.775-1.561.775zm-2.342 2.325h3.903c-1.932 3.48-3.903 0-3.903 0" class="ColorScheme-Contrast" fill="currentColor" style="fill:currentColor"/>
<path d="M9 9v3.754C9 14.087 10.562 15.2 12.488 16 14.464 15.2 16 14.298 16 12.803V9zm1 1h5v2.803c0 .405-.158.687-.646 1.084-.404.327-1.112.656-1.85.978-.715-.329-1.407-.681-1.828-1.045-.505-.436-.676-.79-.676-1.066z" style="-inkscape-stroke:none;fill:currentColor" class="ColorScheme-Contrast" fill="currentColor"/>
</g>
</svg>
