<?xml version='1.0' encoding='ASCII'?>
<svg xmlns="http://www.w3.org/2000/svg" width="16" height="16" viewBox="-3 -3 22 22">
<defs><style id="current-color-scheme" type="text/css">.ColorScheme-Contrast{color:#dedede; fill:currentColor;}</style></defs><path d="M1 1v4h4V1zm1 1h2v2H2zm4-1v4h4V1Zm1 1h2v2H7Zm4-1v4h4V1Zm1 1h2v2h-2zM1 6v4h4V6Zm1 1h2v2H2Zm4-1v4h4V6Zm1 1h2v2H7Zm4-1v4h4V6Zm1 1h2v2h-2zM1 11v4h4v-4zm1 1h2v2H2Zm4-1v4h4v-4zm1 1h2v2H7Zm4-1v4h4v-4zm1 1h2v2h-2z" class="ColorScheme-Contrast" style="stroke-width:.99092;stroke-linecap:round;stroke-linejoin:round;stop-fill:currentColor" fill="currentColor"/>
</svg>
