<?xml version='1.0' encoding='ASCII'?>
<svg xmlns="http://www.w3.org/2000/svg" width="16" height="16" viewBox="-3 -3 22 22">
<defs><style id="current-color-scheme" type="text/css">.ColorScheme-Text{color:#fcfcfc; fill:currentColor;}</style></defs><path d="M9 9v7h7V9Z" class="ColorScheme-Text" style="opacity:.65;stroke-linecap:round;stroke-linejoin:round;stop-fill:currentColor" fill="currentColor"/>
<path d="M5 5v11h3V8h8V5H8Z" style="opacity:.35;stroke-linecap:round;stroke-linejoin:round;stop-fill:currentColor" class="ColorScheme-Text" fill="currentColor"/>
<path d="M6 0a6 6 0 0 0-6 6 6 6 0 0 0 5 5.908v-1.023A5 5 0 0 1 1 6a5 5 0 0 1 9.896-1h1.018A6 6 0 0 0 6 0" style="stroke-linecap:round;stroke-linejoin:round;stop-fill:currentColor" class="ColorScheme-Text" fill="currentColor"/>
<path d="M6 1a5 5 0 0 0-5 5 5 5 0 0 0 4 4.887V5h5.898A5 5 0 0 0 6 1" style="opacity:.15;stroke-linecap:round;stroke-linejoin:round;stop-fill:currentColor" class="ColorScheme-Text" fill="currentColor"/>
<path d="M4 4v12h1V5h11V4H5Z" style="stroke-linecap:round;stroke-linejoin:round;stop-fill:currentColor" class="ColorScheme-Text" fill="currentColor"/>
<path d="M6 8h1v1H6zm0 2h1v1H6zm0 2h1v1H6zm0 2h1v1H6zm0-8h1v1H6zm2 0h1v1H8zm2 0h1v1h-1zm2 0h1v1h-1zm2 0h1v1h-1zM8 8v8h1V9h7V8H9Z" style="stroke-linecap:round;stroke-linejoin:round;stop-fill:currentColor" class="ColorScheme-Text" fill="currentColor"/>
</svg>
