<?xml version='1.0' encoding='ASCII'?>
<svg xmlns="http://www.w3.org/2000/svg" width="16" height="16" viewBox="-3 -3 22 22">
<defs><style id="current-color-scheme" type="text/css">.ColorScheme-Text{color:#fcfcfc; fill:currentColor;}</style></defs><path d="M9.975 9A5 5 0 0 1 9 9.975V16h7V9Z" class="ColorScheme-Text" style="opacity:.65;stroke-linecap:round;stroke-linejoin:round;stop-fill:currentColor" fill="currentColor"/>
<path d="M10.898 5A5 5 0 0 1 11 6a5 5 0 0 1-.424 2H16V5zM8 10.576A5 5 0 0 1 6 11a5 5 0 0 1-1-.113V16h3z" style="opacity:.35;stroke-linecap:round;stroke-linejoin:round;stop-fill:currentColor" class="ColorScheme-Text" fill="currentColor"/>
<path d="M10.58 4a5 5 0 0 1 .318 1H16V4zM4 10.576V16h1v-5.113a5 5 0 0 1-1-.31zM6 12h1v1H6zm0 2h1v1H6zm6-8h1v1h-1zm2 0h1v1h-1zm-3.424 2a5 5 0 0 1-.592 1H16V8zM9 9.984a5 5 0 0 1-1 .592V16h1z" style="stroke-linecap:round;stroke-linejoin:round;stop-fill:currentColor" class="ColorScheme-Text" fill="currentColor"/>
<circle cx="6" cy="6" r="5" style="opacity:.15;stroke-linecap:round;stroke-linejoin:round;stop-fill:currentColor" class="ColorScheme-Text" fill="currentColor"/>
<path d="M6 0a6 6 0 0 0-6 6 6 6 0 0 0 6 6 6 6 0 0 0 6-6 6 6 0 0 0-6-6m0 1a5 5 0 0 1 5 5 5 5 0 0 1-5 5 5 5 0 0 1-5-5 5 5 0 0 1 5-5" style="opacity:1;stroke-width:1.2;stroke-linecap:round;stroke-linejoin:round;stop-fill:currentColor" class="ColorScheme-Text" fill="currentColor"/>
</svg>
