<?xml version='1.0' encoding='ASCII'?>
<svg xmlns="http://www.w3.org/2000/svg" viewBox="0 0 22 22">
<defs><style id="current-color-scheme" type="text/css">.ColorScheme-Contrast{color:#dedede; fill:currentColor;}</style></defs><path d="M7 3c-.973 3.405-3.354 6.332-4.404 8.676A4.96 4.96 0 0 0 2 14c0 2.77 2.23 5 5 5s5-2.23 5-5c0-.845-.228-1.627-.596-2.324C10.354 9.332 7.973 6.405 7 3m2.283 7.717A3.98 3.98 0 0 1 11 14c0 2.216-1.784 4-4 4a3.98 3.98 0 0 1-3.283-1.717C4.364 16.733 5.149 17 6 17c2.216 0 4-1.784 4-4 0-.851-.267-1.636-.717-2.283" class="ColorScheme-Contrast" style="fill-opacity:1;stroke:none;fill:currentColor" fill="currentColor"/>
<path d="M8 3h7l4 4v12h-8v-1h7V8h-4V4H8z" class="ColorScheme-Contrast" style="fill-opacity:1;stroke:none;fill:currentColor" fill="currentColor"/>
</svg>
