<svg xmlns="http://www.w3.org/2000/svg" width="16" height="16" viewBox="-3 -3 22 22">
<style id="current-color-scheme" type="text/css">
.ColorScheme-Contrast{color:#dedede}
</style>
<path d="M3 1c-1.108 0-2 .892-2 2v10c0 1.108.892 2 2 2h10c1.108 0 2-.892 2-2V3c0-1.108-.892-2-2-2zm0 1h10c.554 0 1 .446 1 1v10c0 .554-.446 1-1 1H3c-.554 0-1-.446-1-1V3c0-.554.446-1 1-1m2 1v10h1v-3h2.5c1.939 0 3.5-1.561 3.5-3.5S10.439 3 8.5 3zm1 1h2.5C9.885 4 11 5.115 11 6.5S9.885 9 8.5 9H6z" class="ColorScheme-Contrast" style="paint-order:stroke fill markers"/>
</svg>
