<?xml version='1.0' encoding='ASCII'?>
<svg xmlns="http://www.w3.org/2000/svg" width="16" height="16" viewBox="-3 -3 22 22">
<defs><style id="current-color-scheme" type="text/css">.ColorScheme-Text{color:#fcfcfc; fill:currentColor;}</style></defs><path fill="currentColor" d="M.741 10.78c3.117.026 2.606-2.218 7.253-2.19s3.221 2.254 7.161 2.19v2.6c-3.545 0-4.297-3.425-7.166-3.427C4.8 9.95 4.203 13.38.74 13.38z" opacity=".35" class="ColorScheme-Text" style="fill:currentColor"/>
<path fill="currentColor" d="M7.996 8.283c-2.373-.014-3.51.579-4.371 1.145-.86.566-1.396 1.057-2.88 1.045l-.007.613c1.632.013 2.4-.604 3.225-1.147.825-.542 1.755-1.056 4.03-1.043 2.274.014 2.95.521 3.66 1.067.708.546 1.48 1.156 3.507 1.123l-.01-.613c-1.912.03-2.398-.438-3.123-.997S10.37 8.297 7.996 8.283m-.008 1.412c-1.702-.001-2.743.92-3.72 1.762S2.373 13.074.742 13.074v.613c1.831 0 2.943-.916 3.926-1.763s1.835-1.615 3.32-1.614c1.315.002 2.135.766 3.131 1.616.997.85 2.167 1.761 4.037 1.761v-.613c-1.675 0-2.655-.777-3.638-1.615s-1.975-1.762-3.53-1.764" style="-inkscape-stroke:none;fill:currentColor" class="ColorScheme-Text"/>
<path fill="currentColor" d="M.741 5.19c3.117-.025 2.606 2.218 7.253 2.19s3.221-2.254 7.161-2.19v-2.6c-3.545 0-4.297 3.17-7.166 3.173C4.8 5.766 4.203 2.59.74 2.59z" opacity=".35" class="ColorScheme-Text" style="fill:currentColor"/>
<path fill="currentColor" d="M.742 2.283v.613c1.634 0 2.552.75 3.53 1.567s2.017 1.71 3.716 1.709c1.552-.001 2.542-.896 3.526-1.71.983-.812 1.964-1.566 3.642-1.566v-.613c-1.867 0-3.037.883-4.033 1.707S9.306 5.558 7.988 5.56c-1.489.001-2.34-.745-3.324-1.567S2.57 2.283.742 2.283m-.004 2.6.006.615c1.485-.012 2.02.48 2.881 1.045.86.566 1.998 1.159 4.371 1.144 2.373-.014 3.307-.635 4.031-1.193.725-.558 1.21-1.027 3.123-.996l.01-.615c-2.027-.033-2.799.579-3.508 1.125-.708.545-1.385 1.05-3.66 1.064-2.274.014-3.204-.5-4.03-1.043C3.139 5.487 2.37 4.87.739 4.883" style="-inkscape-stroke:none;fill:currentColor" class="ColorScheme-Text"/>
</svg>
