<?xml version='1.0' encoding='ASCII'?>
<svg xmlns="http://www.w3.org/2000/svg" xmlns:xlink="http://www.w3.org/1999/xlink" width="16" height="16" viewBox="-3 -3 22 22">
<defs><style id="current-color-scheme" type="text/css">.ColorScheme-Text{color:#fcfcfc; fill:currentColor;}</style></defs><g transform="translate(-829 -558.362)" class="ColorScheme-Text" fill="currentColor" style="fill:currentColor">
<path id="a" d="m836.377 563.455-.707.707c1.549 1.55 3.125 2.488 4.639 2.764s2.965-.16 4.068-1.264l-.707-.707c-.897.897-1.946 1.211-3.182.986-1.236-.224-2.66-1.035-4.111-2.486" style="opacity:1;stroke-linecap:butt;fill-opacity:1;fill:currentColor" class="ColorScheme-Text" fill="currentColor"/>
<use xlink:href="#a" width="1250" height="1250" transform="matrix(0 1 1 0 271.137 -270.754)" class="ColorScheme-Text" fill="currentColor" style="fill:currentColor"/>
<path d="m842.518 560.307-.086.01c-5.558 1.033-10.534 4.701-11.395 11.356a.5.5 0 0 1 .463-.31.5.5 0 0 1 .5.5.5.5 0 0 1-.012.095.5.5 0 0 0 .032-.086c.767-6.176 5.193-9.491 10.367-10.523a.5.5 0 0 1-.387-.487.5.5 0 0 1 .5-.5.5.5 0 0 1 .5.5.5.5 0 0 1-.064.24.5.5 0 0 0-.418-.795" style="opacity:1;stroke-linecap:round;fill-opacity:1;fill:currentColor" class="ColorScheme-Text" fill="currentColor"/>
<path d="M842 48a1 1 0 0 0-1 1 1 1 0 0 0 1 1 1 1 0 0 0 1-1 1 1 0 0 0-1-1m0 .667a.333.333 0 0 1 .333.333.333.333 0 0 1-.333.333.333.333 0 0 1-.333-.333.333.333 0 0 1 .333-.333" style="opacity:1;fill-opacity:1;fill:currentColor" transform="matrix(1.5 0 0 1.5 -420.5 487.362)" class="ColorScheme-Text" fill="currentColor"/>
<path d="M842 48a1 1 0 0 0-1 1 1 1 0 0 0 1 1 1 1 0 0 0 1-1 1 1 0 0 0-1-1m0 .667a.333.333 0 0 1 .333.333.333.333 0 0 1-.333.333.333.333 0 0 1-.333-.333.333.333 0 0 1 .333-.333" style="opacity:1;fill-opacity:1;fill:currentColor" transform="matrix(1.5 0 0 1.5 -431.5 498.362)" class="ColorScheme-Text" fill="currentColor"/>
</g>
</svg>
