<?xml version='1.0' encoding='ASCII'?>
<svg xmlns="http://www.w3.org/2000/svg" width="16" height="16" viewBox="-3 -3 22 22">
<defs><style id="current-color-scheme" type="text/css">.ColorScheme-Contrast{color:#dedede; fill:currentColor;}</style></defs><path d="M10.145 1A5 5 0 0 0 5 6H1.5c-.277 0-.5.223-.5.5v8c0 .277.223.5.5.5h8c.277 0 .5-.223.5-.5v-3.502A5 5 0 0 0 15 6a5 5 0 0 0-4.855-5" class="ColorScheme-Contrast" style="display:inline;overflow:visible;visibility:visible;opacity:.25;vector-effect:none;fill-opacity:1;fill-rule:nonzero;stroke:none;stroke-width:1;stroke-linecap:round;stroke-linejoin:round;stroke-miterlimit:4;stroke-dasharray:none;stroke-dashoffset:0;stroke-opacity:1;marker:none;paint-order:normal;fill:currentColor" fill="currentColor"/>
<path d="M1 5c-.554 0-1 .446-1 1v9c0 .554.446 1 1 1h9c.554 0 1-.446 1-1V6c0-.554-.446-1-1-1Zm.5 1h8c.277 0 .5.223.5.5v8c0 .277-.223.5-.5.5h-8a.5.5 0 0 1-.5-.5v-8c0-.277.223-.5.5-.5M10.174.002A6 6 0 0 0 4 6a6 6 0 1 0 12 0A6 6 0 0 0 10.174.002m-.027 1A5 5 0 0 1 15 6 5 5 0 1 1 5 6a5 5 0 0 1 5.146-4.998" style="display:inline;overflow:visible;visibility:visible;opacity:1;vector-effect:none;fill-opacity:1;fill-rule:nonzero;stroke:none;stroke-width:1;stroke-linecap:butt;stroke-linejoin:miter;stroke-miterlimit:4;stroke-dasharray:none;stroke-dashoffset:0;stroke-opacity:1;marker:none;paint-order:normal;fill:currentColor" class="ColorScheme-Contrast" fill="currentColor"/>
</svg>
