<?xml version='1.0' encoding='ASCII'?>
<svg xmlns="http://www.w3.org/2000/svg" width="16" height="16" viewBox="-3 -3 22 22">
<defs><style id="current-color-scheme" type="text/css">.ColorScheme-Contrast{color:#dedede; fill:currentColor;}</style></defs><path d="M10.174.002A6 6 0 0 0 4.09 5H1c-.554 0-1 .446-1 1v9c0 .554.446 1 1 1h9c.554 0 1-.446 1-1v-3.088A6 6 0 0 0 16 6 6 6 0 0 0 10.174.002m-.03 1h.003a5 5 0 0 1 .99.129 5 5 0 0 1 2.195 1.14 5 5 0 0 1 .674.737 5 5 0 0 1 .28.414v.002a5 5 0 0 1 .425.902A5 5 0 0 1 15 6a5 5 0 0 1-.395 1.947 5 5 0 0 1-.216.45v.001l-.1.16a5 5 0 0 1-.463.663 5 5 0 0 1-1.558 1.236 5 5 0 0 1-3.885.275 5 5 0 0 1-.461-.183l-.002-.002A5 5 0 0 1 6.314 9.38l-.068-.082a5 5 0 0 1-.252-.307 5 5 0 0 1-.277-.41l-.002-.004a5 5 0 0 1-.426-.902 5 5 0 0 1-.143-.475 5 5 0 0 1-.058-.303l-.037-.191a5 5 0 0 1-.047-.494v-.004A5 5 0 0 1 5 6a5 5 0 0 1 .025-.498V5.5a5 5 0 0 1 .074-.492v-.002a5 5 0 0 1 .123-.483v-.002a5 5 0 0 1 .172-.468 5 5 0 0 1 .479-.877 5 5 0 0 1 .303-.397 5 5 0 0 1 1.123-.986 5 5 0 0 1 .888-.453 5 5 0 0 1 1.957-.338M1.5 6H4a6 6 0 0 0 6 5.996V14.5c0 .277-.223.5-.5.5h-8a.5.5 0 0 1-.5-.5v-8c0-.277.223-.5.5-.5" class="ColorScheme-Contrast" style="opacity:1;vector-effect:none;fill-opacity:1;stroke:none;stroke-width:1;stroke-linecap:butt;stroke-linejoin:miter;stroke-miterlimit:4;stroke-dasharray:none;stroke-dashoffset:0;stroke-opacity:1;marker:none;paint-order:normal;fill:currentColor" fill="currentColor"/>
</svg>
