<?xml version='1.0' encoding='ASCII'?>
<svg xmlns="http://www.w3.org/2000/svg" width="16" height="16" viewBox="-3 -3 22 22">
<defs><style id="current-color-scheme" type="text/css">.ColorScheme-Text{color:#fcfcfc; fill:currentColor;}</style></defs><path fill="currentColor" d="M10.174.002A6 6 0 0 0 4.09 5H1c-.554 0-1 .446-1 1v9c0 .554.446 1 1 1h9c.554 0 1-.446 1-1v-3.088A6 6 0 0 0 16 6 6 6 0 0 0 10.174.002m-.03 1h.003a5 5 0 0 1 .99.129 5 5 0 0 1 2.195 1.14 5 5 0 0 1 .674.737 5 5 0 0 1 .28.414v.002a5 5 0 0 1 .425.902A5 5 0 0 1 15.001 6a5 5 0 0 1-.395 1.947 5 5 0 0 1-.217.45v.002l-.1.16a5 5 0 0 1-.463.662 5 5 0 0 1-1.558 1.236 5 5 0 0 1-3.885.275 5 5 0 0 1-.461-.183l-.002-.002A5 5 0 0 1 6.315 9.38l-.069-.082a5 5 0 0 1-.252-.307 5 5 0 0 1-.277-.41l-.002-.004a5 5 0 0 1-.426-.902 5 5 0 0 1-.143-.475 5 5 0 0 1-.058-.303l-.037-.19a5 5 0 0 1-.047-.495v-.004A5 5 0 0 1 5 6a5 5 0 0 1 .026-.498V5.5a5 5 0 0 1 .074-.492v-.002a5 5 0 0 1 .123-.483v-.001a5 5 0 0 1 .172-.47 5 5 0 0 1 .478-.876 5 5 0 0 1 .303-.397 5 5 0 0 1 1.123-.986 5 5 0 0 1 .889-.453 5 5 0 0 1 1.957-.338zM1.5 6H4a6 6 0 0 0 6 5.996V14.5c0 .277-.223.5-.5.5h-8a.5.5 0 0 1-.5-.5v-8c0-.277.223-.5.5-.5" style="paint-order:normal;fill:currentColor" class="ColorScheme-Text"/>
<path fill="currentColor" d="M1.5 6c-.277 0-.5.223-.5.5v8c0 .277.223.5.5.5h8c.277 0 .5-.223.5-.5v-2.506A6 6 0 0 1 4 6zm3.518.363a5 5 0 0 0 .023.242 5 5 0 0 1-.023-.242m.06.483a5 5 0 0 0 .045.238 5 5 0 0 1-.045-.238m.121.53.051.169zm.158.466.077.183zm.206.449.087.166zm.265.455.088.129zm.295.402.092.114zm.356.395.074.072zm.357.32.1.082zm.434.319.056.037zm.433.254.057.029zm.438.199.086.035zm.492.17.056.015zm.484.111.063.012zm.48.063.104.007z" opacity=".25" style="paint-order:normal;fill:currentColor" class="ColorScheme-Text"/>
</svg>
