<?xml version='1.0' encoding='ASCII'?>
<svg xmlns="http://www.w3.org/2000/svg" width="16" height="16" viewBox="-3 -3 22 22">
<defs><style id="current-color-scheme" type="text/css">.ColorScheme-Text{color:#fcfcfc; fill:currentColor;}</style></defs><path fill="currentColor" d="M9.286.659 6.29 5.653a3 3 0 0 0-2.462.862l-.707.707 2.122 2.121-2.829 2.828L1 15l2.828-1.414 2.829-2.829 2.121 2.122.707-.708a3 3 0 0 0 .862-2.46l4.994-2.998zm.2 1.613 4.242 4.243-3.536 2.121-2.828-2.828zm-2.122 4.95 1.414 1.414a1.996 1.996 0 0 1 0 2.828L4.536 7.222a1.996 1.996 0 0 1 2.828 0" class="ColorScheme-Text" style="fill:currentColor"/>
</svg>
