<svg xmlns="http://www.w3.org/2000/svg" width="16" height="16" viewBox="-3 -3 22 22">
<g fill="currentColor">
<style id="current-color-scheme" type="text/css">
.ColorScheme-Contrast{color:#dedede}
</style>
<path d="m2.066 1.679-.051.174s.22.048.771.257c.446.169.962.527 1.35 1.013.41.51.605 1.058.667 1.622.058.521.002 1.068-.034 1.57-.048.664-.064 1.276.072 1.712q.014.045.033.094c.155.418.593 1.162 1.26 1.902a8.7 8.7 0 0 0 2.04 1.661c.864.513 1.79.88 2.762 1.196.869.282 1.727.505 2.353.713.975.326 1.36.407 1.36.407l.117-.433s-.38-.08-1.335-.4a7.6 7.6 0 0 1-2.072-1.113c-.766-.578-1.327-1.232-1.682-1.911a4.7 4.7 0 0 1-.503-1.735c-.07-.657-.057-1.222-.151-1.6L9 6.73c-.095-.304-.452-.903-.929-1.54-.399-.534-.893-1.105-1.506-1.593a6.9 6.9 0 0 0-1.996-1.096c-.651-.239-1.276-.392-1.719-.56-.56-.212-.784-.261-.784-.261m4.88 4.955A1.055.976 0 0 1 8 7.61a1.055.976 0 0 1-1.055.975A1.055.976 0 0 1 5.89 7.61a1.055.976 0 0 1 1.055-.976" class="ColorScheme-Contrast" opacity=".31" style="fill:currentColor"/>
<path d="m2.175 1.626-.213.728c1.893.553 2.834 1.331 3.432 2.248.384.588.622 1.257.843 1.971-.317.23-.526.602-.526 1.022 0 .697.568 1.264 1.265 1.264h.02c.355.861.856 1.735 1.692 2.55 1.18 1.152 3.001 2.176 5.948 2.965l.197-.733c-2.864-.768-4.554-1.739-5.617-2.775-.736-.718-1.179-1.473-1.503-2.249a1.26 1.26 0 0 0-.737-2.287h-.017c-.226-.735-.486-1.462-.93-2.143-.694-1.064-1.838-1.972-3.854-2.562m4.8 5.209c.426 0 .759.336.759.76a.75.75 0 0 1-.758.758.75.75 0 0 1-.76-.758c0-.424.335-.76.76-.76"/>
<path fill-rule="evenodd" d="M10 3v1h1.293L9.818 5.475l.707.707L12 4.707V6h1V3zM5 14v-1H3.707l1.475-1.475-.707-.707L3 12.293V11H2v3z" style="paint-order:stroke fill markers"/>
</g>
</svg>
