<svg xmlns="http://www.w3.org/2000/svg" width="24" height="24">
<defs id="defs3051">
<style id="current-color-scheme" type="text/css">
.ColorScheme-Text{color:#232629}
</style>
</defs>
<path d="M7 3c-.554 0-1 .446-1 1s.446 1 1 1 1-.446 1-1-.446-1-1-1m7 0-2 2 3 3-3 3 2 2 3-3 2-2zM4.5 9C3.669 9 3 9.669 3 10.5S3.669 12 4.5 12 6 11.331 6 10.5 5.331 9 4.5 9M9 15c-1.108 0-2 .892-2 2s.892 2 2 2 2-.892 2-2-.892-2-2-2" class="ColorScheme-Text" style="fill:currentColor;fill-opacity:1;stroke:none" transform="translate(1 1)"/>
</svg>
