<?xml version='1.0' encoding='ASCII'?>
<svg xmlns="http://www.w3.org/2000/svg" viewBox="0 0 22 22">
<defs><style id="current-color-scheme" type="text/css">.ColorScheme-Contrast{color:#dedede; fill:currentColor;}</style></defs><path d="M4 3v16h9v-1H5V4h12v9h1V3zm2 2v5h5V5zm6 0v1h4V5zm0 2v1h4V7zm0 2v1h4V9zm-6 2v1h10v-1zm0 2v1h7v-1zm14.445 0-4.591 4.592-1.147-1.147-.707.707L15.846 19l.006-.008.007.008 5.293-5.293zM6 15v1h7v-1z" class="ColorScheme-Contrast" style="fill-opacity:1;stroke:none;fill:currentColor" fill="currentColor"/>
</svg>
