<svg xmlns="http://www.w3.org/2000/svg" viewBox="0 0 22 22">
<defs id="defs3051">
<style id="current-color-scheme" type="text/css">
.ColorScheme-Text{color:#dedede}
</style>
</defs>
<path d="M5 9c-1.108 0-2 .892-2 2s.892 2 2 2 2-.892 2-2-.892-2-2-2m6 0c-1.108 0-2 .892-2 2s.892 2 2 2 2-.892 2-2-.892-2-2-2m6 0c-1.108 0-2 .892-2 2s.892 2 2 2 2-.892 2-2-.892-2-2-2M5 10c.554 0 1 .446 1 1s-.446 1-1 1-1-.446-1-1 .446-1 1-1m6 0c.554 0 1 .446 1 1s-.446 1-1 1-1-.446-1-1 .446-1 1-1m6 0c.554 0 1 .446 1 1s-.446 1-1 1-1-.446-1-1 .446-1 1-1" class="ColorScheme-Text" style="fill:currentColor;fill-opacity:1;stroke:none"/>
</svg>
