<?xml version='1.0' encoding='ASCII'?>
<svg xmlns="http://www.w3.org/2000/svg" viewBox="0 0 22 22">
<defs><style id="current-color-scheme" type="text/css">.ColorScheme-Contrast{color:#dedede; fill:currentColor;}</style></defs><path fill="currentColor" d="M11 2.401A8.6 8.6 0 0 0 2.401 11 8.6 8.6 0 0 0 11 19.599 8.6 8.6 0 0 0 19.599 11 8.6 8.6 0 0 0 11 2.401m0 1.433A7.166 7.166 0 0 1 18.166 11 7.166 7.166 0 0 1 11 18.166 7.166 7.166 0 0 1 3.834 11 7.166 7.166 0 0 1 11 3.834" style="stroke-width:1.43312;fill:currentColor" class="ColorScheme-Contrast"/>
<path fill="currentColor" d="M11 2.401A8.6 8.6 0 0 0 2.401 11 8.6 8.6 0 0 0 11 19.599a8.6 8.6 0 0 0 6.04-2.489l-1.004-1.016A7.17 7.17 0 0 1 11 18.166 7.166 7.166 0 0 1 3.834 11 7.166 7.166 0 0 1 11 3.834Z" style="stroke-width:1.43312;fill:currentColor" class="ColorScheme-Contrast"/>
</svg>
