<svg xmlns="http://www.w3.org/2000/svg" xmlns:xlink="http://www.w3.org/1999/xlink" width="22" height="22">
<linearGradient id="c" x2="0" y1="538.798" y2="519.798" gradientTransform="matrix(.625 0 0 .78948 -241.233 -408.368)" gradientUnits="userSpaceOnUse">
<stop offset="0" stop-color="#2a2c2f"/>
<stop offset="1" stop-color="#424649"/>
</linearGradient>
<linearGradient xlink:href="#a" id="d" x2="0" y1="542.798" y2="538.798" gradientTransform="matrix(.66667 0 0 .5 -256.048 -252.399)" gradientUnits="userSpaceOnUse"/>
<linearGradient id="a">
<stop offset="0" stop-color="#c6cdd1"/>
<stop offset="1" stop-color="#e0e5e7"/>
</linearGradient>
<linearGradient xlink:href="#b" id="e" x1="6.786" x2="17.714" y1="3.286" y2="14.214" gradientUnits="userSpaceOnUse"/>
<linearGradient id="b">
<stop offset="0"/>
<stop offset="1" stop-opacity="0"/>
</linearGradient>
<linearGradient id="g" x1="2" x2="20" y1="8.5" y2="8.5" gradientTransform="matrix(1.25 0 0 1.13333 -484.714 -587.238)" gradientUnits="userSpaceOnUse">
<stop offset="0" stop-color="#232629"/>
<stop offset="1" stop-color="#292c30"/>
</linearGradient>
<linearGradient xlink:href="#a" id="m" x1="389.571" x2="389.571" y1="526.798" y2="519.798" gradientTransform="matrix(2 0 0 1 -772.143 -515.798)" gradientUnits="userSpaceOnUse"/>
<linearGradient xlink:href="#b" id="n" x1="3" x2="6" y1="5" y2="8" gradientUnits="userSpaceOnUse"/>
<linearGradient xlink:href="#b" id="o" x1="3" x2="6" y1="7" y2="10" gradientUnits="userSpaceOnUse"/>
<linearGradient xlink:href="#b" id="p" x1="3" x2="6" y1="9" y2="12" gradientUnits="userSpaceOnUse"/>
<linearGradient xlink:href="#b" id="q" x1="3" x2="6" y1="11" y2="14" gradientUnits="userSpaceOnUse"/>
<linearGradient xlink:href="#b" id="i" x1="7" x2="13.5" y1="5" y2="11.5" gradientUnits="userSpaceOnUse"/>
<linearGradient xlink:href="#b" id="j" x1="7" x2="12.454" y1="7" y2="12.453" gradientUnits="userSpaceOnUse"/>
<linearGradient xlink:href="#b" id="k" x1="7" x2="12.454" y1="11" y2="16.453" gradientUnits="userSpaceOnUse"/>
<linearGradient xlink:href="#b" id="l" x1="7" x2="11.5" y1="9" y2="13.5" gradientUnits="userSpaceOnUse"/>
<path fill="url(#c)" d="M1 2h20v15H1z"/>
<path fill="url(#d)" d="M9 17h4v2H9z"/>
<path fill="#99a1a7" d="M7 19h8v1H7z"/>
<path fill="url(#e)" fill-rule="evenodd" d="m2 14 3 3h16V4l-1-1z" opacity=".2"/>
<path fill="url(#g)" d="M2 3h18v11H2z"/>
<path fill="url(#i)" d="m7 5 1 1h7l2 2 2-2-2-2z" opacity=".2"/>
<path fill="url(#j)" d="m7 7 1 1h5l2 2 2-2-2-2z" opacity=".2"/>
<path fill="url(#k)" d="m15 10-8 1 3 3h9z" opacity=".2"/>
<path fill="url(#l)" d="m7 9 1 1h7l-2-2z" opacity=".2"/>
<path fill="url(#m)" d="M6.999 4h10v1h-10zm0 6h8v1h-8zm0-4h8v1h-8zm0 2h6v1h-6z"/>
<path fill="url(#n)" d="m3 5 1 1h2l1 1 1-1-2-2z" opacity=".2"/>
<path fill="url(#o)" d="m3 7 1 1h2l1 1 1-1-2-2z" opacity=".2"/>
<path fill="url(#p)" d="m3 9 1 1h2l1 1 1-1-2-2z" opacity=".2"/>
<path fill="url(#q)" d="m6 10-3 1 3 3h4z" opacity=".2"/>
<path fill="#11d116" d="M3 4h3v1H3zm0 2h3v1H3zm0 2h3v1H3zm0 2h3v1H3z"/>
</svg>
