<svg version="1.1" viewBox="0 0 22 22" xmlns="http://www.w3.org/2000/svg">
 <style id="current-color-scheme" type="text/css">.ColorScheme-Contrast{color:#dedede}</style>
 <g class="ColorScheme-Contrast" style="stroke:currentColor;fill:currentColor">
 <path d="m15.173 5.3297a4.2502 4.2502 0 0 1-4.2502 4.2502 4.2502 4.2502 0 0 1-4.2502-4.2502 4.2502 4.2502 0 0 1 4.2502-4.2502 4.2502 4.2502 0 0 1 4.2502 4.2502z" style="color:#dedede;fill:none;paint-order:fill markers stroke;stroke-linecap:square;stroke-width:1.1"/>
 <path d="m10.923 10.643a8.5003 8.5003 0 0 0-8.5003 8.5003h17.001a8.5003 8.5003 0 0 0-8.5003-8.5003z" style="color:#dedede;fill:none;stroke-width:1.1"/>
 <rect x=".29727" y="14.362" width="21.251" height="6.3752" rx="1.5938" ry="1.5938" opacity=".4"/>
 <g transform="matrix(2.008 0 0 2.008 -5.0154 -4.7639)" style="fill:#ffffff;stroke:none">
  <circle cx="4.762" cy="11.112" r=".794"/>
  <circle cx="6.879" cy="11.112" r=".794"/>
  <circle cx="8.996" cy="11.112" r=".794"/>
  <circle cx="11.112" cy="11.112" r=".794"/>
 </g>
</g>
</svg>
