<?xml version='1.0' encoding='ASCII'?>
<svg xmlns="http://www.w3.org/2000/svg" viewBox="0 0 22 22">
<defs><style id="current-color-scheme" type="text/css">.ColorScheme-Text{color:#fcfcfc; fill:currentColor;}</style></defs><path d="M11 3c-.486 1.702-1.663 3.172-2.187 4.344-.184.348-.313.733-.313 1.156C8.5 9.885 9.615 11 11 11s2.5-1.115 2.5-2.5c0-.423-.098-.808-.281-1.156C12.694 6.172 11.486 4.702 11 3m-4.5 8c-.486 1.703-1.663 3.172-2.187 4.344-.184.348-.313.733-.313 1.156C4 17.885 5.115 19 6.5 19S9 17.885 9 16.5c0-.423-.098-.808-.281-1.156C8.194 14.172 6.986 12.703 6.5 11m9 0c-.486 1.703-1.663 3.172-2.187 4.344-.184.348-.313.733-.313 1.156 0 1.385 1.115 2.5 2.5 2.5s2.5-1.115 2.5-2.5c0-.423-.098-.808-.281-1.156-.525-1.172-1.733-2.641-2.219-4.344" class="ColorScheme-Text" style="fill-opacity:1;stroke:none;fill:currentColor" fill="currentColor"/>
</svg>
