<svg xmlns="http://www.w3.org/2000/svg" viewBox="0 0 22 22">
<defs id="defs3051">
<style id="current-color-scheme" type="text/css">
.ColorScheme-Contrast{color:#dedede}
</style>
</defs>
<path d="M5 3 4 4v1.305l5 7.062v3.673L12.99 19H13v-6.633l5-7.062V4l-1-1zm0 1h12v.988L12.035 12H12v5.02l-2-1.485V12h-.035L5 4.988zm1 1 2 3V6l2-1z" class="ColorScheme-Contrast" style="fill:currentColor;fill-opacity:1;stroke:none"/>
<path d="m14.99 13-.99.99L16.01 16 14 18.01l.99.99L17 16.99 19.01 19l.99-.99L17.99 16 20 13.99l-.99-.99L17 15.01z" style="fill:#da4453;fill-opacity:1;stroke:none"/>
</svg>
