<?xml version='1.0' encoding='ASCII'?>
<svg xmlns="http://www.w3.org/2000/svg" viewBox="0 0 22 22">
<defs><style id="current-color-scheme" type="text/css">.ColorScheme-Text{color:#fcfcfc; fill:currentColor;}</style></defs><path fill="currentColor" d="M16.5 13a3.5 3.5 0 0 0-3.5 3.5 3.5 3.5 0 0 0 3.5 3.5 3.5 3.5 0 0 0 3.5-3.5 3.5 3.5 0 0 0-3.5-3.5m-.5 1h1v2h2v1h-2v2h-1v-2h-2v-1h2z" class="ColorScheme-Text" style="fill:currentColor"/>
<g fill="currentColor" class="ColorScheme-Text" style="fill:currentColor">
<path d="M8.5 8c-.277 0-.5.223-.5.5v1c0 .277.223.5.5.5h1c.277 0 .5-.223.5-.5v-1c0-.277-.223-.5-.5-.5zm3 0c-.277 0-.5.223-.5.5v1c0 .277.223.5.5.5h1c.277 0 .5-.223.5-.5v-1c0-.277-.223-.5-.5-.5zm3 0c-.277 0-.5.223-.5.5v1c0 .277.223.5.5.5h1c.277 0 .5-.223.5-.5v-1c0-.277-.223-.5-.5-.5zm-9 3c-.277 0-.5.223-.5.5v1c0 .277.223.5.5.5h1c.277 0 .5-.223.5-.5v-1c0-.277-.223-.5-.5-.5zm3 0c-.277 0-.5.223-.5.5v1c0 .277.223.5.5.5h1c.277 0 .5-.223.5-.5v-1c0-.277-.223-.5-.5-.5zm3 0c-.277 0-.5.223-.5.5v1c0 .277.223.5.5.5h1c.277 0 .5-.223.5-.5v-1c0-.277-.223-.5-.5-.5zm3 0c-.277 0-.5.223-.5.5v1c0 .151.07.282.176.373A5 5 0 0 1 16 12.102V11.5c0-.277-.223-.5-.5-.5zm-9 3c-.277 0-.5.223-.5.5v1c0 .277.223.5.5.5h1c.277 0 .5-.223.5-.5v-1c0-.277-.223-.5-.5-.5zm3 0c-.277 0-.5.223-.5.5v1c0 .277.223.5.5.5h1c.277 0 .5-.223.5-.5v-1c0-.277-.223-.5-.5-.5zm3 0c-.277 0-.5.223-.5.5v1c0 .277.223.5.5.5h.602a5 5 0 0 1 .773-1.822A.5.5 0 0 0 12.5 14z" class="ColorScheme-Text" fill="currentColor" style="fill:currentColor"/>
<rect width="2" height="2" x="14" y="14" ry=".5" class="ColorScheme-Text" fill="currentColor" style="fill:currentColor"/>
<path d="M5 3C3.338 3 2 4.338 2 6v10c0 1.662 1.338 3 3 3h7v-1H5c-1.108 0-2-.892-2-2V8c0-1.108.892-2 2-2h11c1.108 0 2 .892 2 2v4h1V6c0-1.662-1.338-3-3-3z" class="ColorScheme-Text" fill="currentColor" style="fill:currentColor"/>
</g>
</svg>
