<svg xmlns="http://www.w3.org/2000/svg" viewBox="0 0 22 22">
<defs id="defs3051">
<style id="current-color-scheme" type="text/css">
.ColorScheme-Text{color:#dedede}
</style>
</defs>
<path d="M3 3v16h16V3zm1 1h14v14H4zm2.5 1C5.669 5 5 5.669 5 6.5S5.669 8 6.5 8 8 7.331 8 6.5 7.331 5 6.5 5m9 0c-.831 0-1.5.669-1.5 1.5S14.669 8 15.5 8 17 7.331 17 6.5 16.331 5 15.5 5M11 9.5c-.831 0-1.5.669-1.5 1.5s.669 1.5 1.5 1.5 1.5-.669 1.5-1.5-.669-1.5-1.5-1.5M6.5 14c-.831 0-1.5.669-1.5 1.5S5.669 17 6.5 17 8 16.331 8 15.5 7.331 14 6.5 14m9 0c-.831 0-1.5.669-1.5 1.5s.669 1.5 1.5 1.5 1.5-.669 1.5-1.5-.669-1.5-1.5-1.5" class="ColorScheme-Text" style="fill:currentColor;fill-opacity:1;stroke:none"/>
</svg>
