<svg xmlns="http://www.w3.org/2000/svg" width="16" height="16" viewBox="-3 -3 22 22">
<style id="current-color-scheme" type="text/css">
.ColorScheme-Text{color:#dedede}
</style>
<path d="M7.7.812v.65c-.45.019-.775.314-.948.679-.176.37-.251.818-.32 1.283-.07.464-.13.943-.24 1.343s-.268.71-.497.878c-.22.163-.555.219-.965.2s-.88-.108-1.337-.185c-.458-.077-.903-.144-1.3-.091-.398.053-.775.282-.904.716-.13.44.052.847.35 1.129.296.281.7.492 1.12.701.421.21.859.414 1.206.642s.592.474.682.744c.086.257.03.594-.12.98-.151.385-.39.805-.614 1.219s-.437.819-.517 1.214c-.04.198-.047.398.013.591s.191.368.378.496c.375.258.816.207 1.176.01.36-.198.69-.518 1.021-.853.332-.335.662-.687.982-.945.27-.218.525-.36.754-.399.022.027.042.053.07.082l.01.01v.556h.682v-.038c.039.021.076.045.116.063.105.048.226.046.342.059.07.222.16.44.308.616.098.116.198.217.3.292.05.038.099.071.17.095.01.003.03-.012.042-.01a.6.6 0 0 1 .116.097s.003.008-.016.067c-.01.03-.026.069-.03.139-.006.07.025.19.1.257.101.094.215.078.328.082.044.079.08.162.145.224a.58.58 0 0 0 .382.163c.293.006.535-.193.784-.52l.016-.025c.151-.26.259-.326.353-.505a.45.45 0 0 0 0-.364c-.031-.057-.08-.096-.122-.14a1.7 1.7 0 0 1 .193-.674c.05-.097.102-.17.127-.302a.35.35 0 0 0-.055-.262c-.03-.042-.07-.042-.109-.063-.189-.468-.467-.823-.756-1.007a1.4 1.4 0 0 0-.452-.196c-.07-.016-.139.015-.206.016a7 7 0 0 1 .017-.758c.276-.162.51-.338.632-.428a.4.4 0 0 1 .156-.083c.037-.007.08-.008.177.031a.246.246 0 0 0 .338-.222c.004-.165.142-.44.314-.629.086-.094.18-.167.242-.202a.1.1 0 0 1 .05-.018.25.25 0 0 0 .28-.098c.296-.444.48-.468.535-.467q.018 0 .021.003c.01.01.018.02.052.033l.046.013.045.006.082-.013.06-.03.06-.056.038-.074v-.002l.058-.035c.154-.091.364-.222.567-.372s.398-.31.524-.513a.6.6 0 0 0 .1-.364c-.007-.078-.075-.134-.12-.201a.6.6 0 0 0-.038-.207.35.35 0 0 0-.237-.202c-.112-.02-.183.016-.232.041s-.084.05-.119.074a.7.7 0 0 1-.16.085c-.03.006-.023.016-.076-.03-.108-.129-.154-.21-.285-.281a.3.3 0 0 0-.155-.037.3.3 0 0 0-.165.06c-.074.058-.084.095-.1.12-.034.053-.053.087-.125.137s-.2.112-.435.149l-.042.01c-.69.237-1.057.694-1.276.92-.08.085-.134.116-.147.126-.004-.002-.004-.001-.011-.007a1 1 0 0 1-.146-.167l-.001-.002c-.08-.512-.006-.53-.493-1.222a.25.25 0 0 0-.178-.103c-.19-.018-.227-.058-.24-.075s-.03-.07-.033-.189c-.006-.238.013-.691-.37-1.05a3 3 0 0 0-.457-.577 2.5 2.5 0 0 1-.325-.378.6.6 0 0 0-.002-.145 1.7 1.7 0 0 0-.109-.331c-.09-.22-.208-.486-.291-.753.028-.077.062-.143.05-.247a.3.3 0 0 0-.06-.142.3.3 0 0 0-.092-.07V.811zm.02.743h.41l-.033.02c-.07.044-.113.086-.153.122-.04.035-.097.066-.043.042l.098.216a.25.25 0 0 0-.006.151l.023.069h-.315v.743h.603l.015.035q.06.15.074.214a.25.25 0 0 0 .007.26c.2.304.354.44.476.553.123.113.223.21.413.523a.3.3 0 0 0 .042.053c.241.227.207.42.214.704.004.141.013.317.135.476.087.114.256.149.418.19.478.676.317.401.44 1.097a.25.25 0 0 0 .044.102c.082.114.158.202.247.27.09.069.202.116.318.115.233-.003.369-.15.494-.281.25-.26.517-.6 1.07-.794.274-.047.47-.126.608-.223.073-.05.089-.088.131-.138.035.035.017.019.073.083l.027.026c.152.13.354.168.504.135.104-.023.16-.068.225-.108a.3.3 0 0 0 .067.075l.013.01c0-.004.002.014-.025.057-.058.093-.218.245-.398.378-.18.134-.381.257-.53.346l-.16.094c-.015-.001-.02-.01-.036-.01-.24-.006-.555.205-.87.625-.082.012-.176-.016-.242.02a1.5 1.5 0 0 0-.369.301c-.169.185-.252.444-.326.698-.078-.011-.16-.045-.232-.03a.9.9 0 0 0-.357.169c-.197.145-.366.316-.692.476a.25.25 0 0 0-.138.205c-.028.433-.038.741-.015.964.012.11.015.202.104.314a.33.33 0 0 0 .221.12.34.34 0 0 0 .208-.058l-.01.007c-.06.035-.011.003.064.02a1 1 0 0 1 .297.13c.225.143.475.404.623.843a.3.3 0 0 0 .037.067c-.015.031-.014.033-.04.084-.105.203-.272.535-.268.97a.25.25 0 0 0 .079.177c.055.051.062.061.08.081-.03.035-.139.162-.286.408-.208.272-.357.325-.385.325-.015 0-.02 0-.05-.028a.6.6 0 0 1-.107-.172.25.25 0 0 0-.225-.15c-.088 0-.05.012-.074.006.016-.069.044-.128.014-.232-.045-.158-.174-.293-.367-.404a.25.25 0 0 0-.136-.033l-.006-.003a1.5 1.5 0 0 1-.216-.215c-.16-.19-.291-.47-.293-.518a.246.246 0 0 0-.294-.233.5.5 0 0 1-.237-.056 2 2 0 0 1-.32-.194v-.126h-.16a3 3 0 0 1-.178-.163 1 1 0 0 1-.07-.082H7.97c.006.01.038.031.013.138l-.24-.056v-.246c-.438 0-.827.23-1.187.52-.359.29-.698.654-1.023.982s-.639.62-.907.767c-.269.146-.439.17-.66.018a.42.42 0 0 1-.187-.236.7.7 0 0 1 0-.348c.058-.287.245-.67.465-1.077s.47-.84.64-1.276.272-.887.129-1.315c-.144-.43-.488-.74-.88-.998-.39-.257-.842-.467-1.254-.672s-.784-.41-1.004-.618-.294-.362-.214-.63c.077-.258.208-.331.496-.37s.705.014 1.154.089c.45.075.934.172 1.397.193s.918-.03 1.28-.296c.365-.27.555-.693.679-1.144.124-.452.183-.946.251-1.402s.146-.872.276-1.145c.13-.272.256-.39.535-.398zM7.7 3.538v.744h.682v-.744zm0 1.364v.743h.682v-.743zm0 1.363v.743h.682v-.743zm5.695.953.02.001.04.011c.02.008.002-.001.008.002l.006.007c-.02-.012-.052-.012-.074-.021m-5.695.41v.744h.682v-.744zm5.512.02h.002l.004.004zM7.7 8.992v.743h.682v-.743zm0 1.363v.743h.682v-.743zm2.627.174c.005 0 .007.005.011.006-.022.007-.04-.006-.063.005.014-.005.02-.013.052-.01M7.7 13.082v.743h.682v-.743zm0 1.363v.743h.682v-.743z" class="ColorScheme-Text" style="fill:currentColor"/>
</svg>
