<?xml version='1.0' encoding='ASCII'?>
<svg xmlns="http://www.w3.org/2000/svg" viewBox="0 0 22 22">
<defs><style id="current-color-scheme" type="text/css">.ColorScheme-Contrast{color:#dedede; fill:currentColor;}</style></defs><path d="M11 3a8 8 0 0 0-2 .266V4.31a7 7 0 0 0-1.316.544l-.008-.007-.733-.733a8 8 0 0 0-2.828 2.828l.522.522.218.219A7 7 0 0 0 4.31 9H3.26A8 8 0 0 0 3 11c.004.675.093 1.347.266 2H4.31a7 7 0 0 0 .544 1.316l-.218.22-.522.52a8 8 0 0 0 2.828 2.829l.522-.522.219-.218A7 7 0 0 0 9 17.69v1.049a8 8 0 0 0 2 .26 8 8 0 0 0 1-.07v-1.006q-.496.074-1 .076-.503-.001-1-.074V16.91a6 6 0 0 1-2.473-1.023l-.062.062-.65.65-.004.005a7 7 0 0 1-1.413-1.416l.002-.002.65-.65.065-.065A6 6 0 0 1 5.085 12H4.077A7 7 0 0 1 4 11q.001-.503.074-1H5.09a6 6 0 0 1 1.023-2.473l-.062-.062-.65-.65-.005-.004a7 7 0 0 1 1.417-1.413l.001.002.65.65.065.065A6 6 0 0 1 10 5.085V4.077q.496-.074 1-.076.503.001 1 .074V5.09a6 6 0 0 1 2.473 1.023l.062-.062.65-.65.004-.005a7 7 0 0 1 1.413 1.417l-.002.001-.65.65-.065.065A6 6 0 0 1 16.915 10h1.009q.074.496.076 1-.001.503-.074 1H16.91a6 6 0 0 1-.271 1h2.102A8 8 0 0 0 19 11a8 8 0 0 0-.266-2H17.69a7 7 0 0 0-.545-1.316l.007-.008.733-.733a8 8 0 0 0-2.828-2.828l-.729.729-.012.011A7 7 0 0 0 13 4.31V3.26A8 8 0 0 0 11 3M9 8v6l5-3zm4.707 6-.707.707 1.793 1.793L13 18.293l.707.707 1.793-1.793L17.293 19l.707-.707-1.793-1.793L18 14.707 17.293 14 15.5 15.793z" class="ColorScheme-Contrast" style="fill-opacity:1;stroke:none;fill:currentColor" fill="currentColor"/>
</svg>
