<?xml version='1.0' encoding='ASCII'?>
<svg xmlns="http://www.w3.org/2000/svg" width="16" height="16" viewBox="-3 -3 22 22">
<defs><style id="current-color-scheme" type="text/css">.ColorScheme-Text{color:#fcfcfc; fill:currentColor;}</style></defs><g fill="currentColor" class="ColorScheme-Text" style="fill:currentColor">
<path d="M175 532c-.75-.018-1.41-.094-1.937-.385a1.88 1.88 0 0 1-.838-.998c-.165-.439-.225-.96-.225-1.617v-3c0-.658.06-1.179.225-1.617a1.88 1.88 0 0 1 .838-.998c.282-.156.599-.234.937-.287v1.025c-.187.035-.347.08-.455.139-.183.1-.287.212-.385.472-.097.26-.16.674-.16 1.266v3c0 .592.063 1.006.16 1.266.098.26.202.371.385.472.366.202 1.197.247 2.455.262h8c1.259-.015 2.087-.06 2.453-.262.184-.101.29-.213.387-.473s.16-.673.16-1.265v-3c0-.592-.063-1.006-.16-1.266-.098-.26-.203-.371-.387-.472a1.6 1.6 0 0 0-.453-.139v-1.025c.338.053.655.13.937.287.377.207.674.56.838.998.165.438.225.96.225 1.617v3c0 .658-.06 1.178-.225 1.617a1.88 1.88 0 0 1-.838.998c-.526.29-1.188.367-1.937.385z" style="font-feature-settings:normal;font-variant-alternates:normal;font-variant-caps:normal;font-variant-ligatures:normal;font-variant-numeric:normal;font-variant-position:normal;isolation:auto;mix-blend-mode:normal;shape-padding:0;text-decoration-text-decoration-line:none;text-decoration-style:solid;text-indent:0;text-orientation:mixed;text-transform:none;white-space:normal;fill:currentColor" transform="translate(-172 -516)" class="ColorScheme-Text" fill="currentColor"/>
<path d="M175 526v-6h10v6h-1v-5h-8v5z" style="font-feature-settings:normal;font-variant-alternates:normal;font-variant-caps:normal;font-variant-ligatures:normal;font-variant-numeric:normal;font-variant-position:normal;isolation:auto;mix-blend-mode:normal;shape-padding:0;text-decoration-text-decoration-line:none;text-decoration-style:solid;text-indent:0;text-orientation:mixed;text-transform:none;white-space:normal;fill:currentColor" transform="translate(-172 -516)" class="ColorScheme-Text" fill="currentColor"/>
<path d="M177 525v-1h6v1zm0-2v-1h6v1zm-2-4v-1h10v1zm0-2v-1h10v1z" style="font-feature-settings:normal;font-variant-alternates:normal;font-variant-caps:normal;font-variant-ligatures:normal;font-variant-numeric:normal;font-variant-position:normal;isolation:auto;mix-blend-mode:normal;shape-padding:0;text-decoration-text-decoration-line:none;text-decoration-style:solid;text-indent:0;text-orientation:mixed;text-transform:none;white-space:normal;fill:currentColor" transform="translate(-172 -516)" class="ColorScheme-Text" fill="currentColor"/>
</g>
</svg>
