<?xml version='1.0' encoding='ASCII'?>
<svg xmlns="http://www.w3.org/2000/svg" width="16" height="16" viewBox="-3 -3 22 22">
<defs><style id="current-color-scheme" type="text/css">.ColorScheme-Text{color:#fcfcfc; fill:currentColor;}</style></defs><g fill="currentColor" class="ColorScheme-Text" style="fill:currentColor">
<style id="current-color-scheme" type="text/css" class="ColorScheme-Text" fill="currentColor" style="fill:currentColor">
.ColorScheme-Text{color:#fcfcfc}
</style>
<path d="M3 1c-1.108 0-2 .892-2 2v2h1V3c0-.554.446-1 1-1h2V1zm8 0v1h2c.554 0 1 .446 1 1v2h1V3c0-1.108-.892-2-2-2zM1 11v2c0 1.108.892 2 2 2h2v-1H3c-.554 0-1-.446-1-1v-2zm13 0v2c0 .554-.446 1-1 1h-2v1h2c1.108 0 2-.892 2-2v-2zM5 5c-1.108 0-2 .892-2 2v3c0 1.108.892 2 2 2h6c1.108 0 2-.892 2-2V7c0-1.108-.892-2-2-2zm0 1h6c.554 0 1 .446 1 1v3c0 .554-.446 1-1 1H5c-.554 0-1-.446-1-1V7c0-.554.446-1 1-1" class="ColorScheme-Text" style="fill:currentColor" fill="currentColor"/>
<path d="M9.5 7A1.5 1.5 0 0 0 8 8.5 1.5 1.5 0 0 0 9.5 10 1.5 1.5 0 0 0 11 8.5 1.5 1.5 0 0 0 9.5 7m-.012 1H9.5a.5.5 0 0 1 .5.5.5.5 0 0 1-.5.5.5.5 0 0 1-.5-.5.5.5 0 0 1 .488-.5" class="ColorScheme-Text" fill="currentColor" style="fill:currentColor"/>
<rect width="2" height="1" x="9" y="3" rx="0" ry="0" class="ColorScheme-Text" fill="currentColor" style="fill:currentColor"/>
</g>
</svg>
