<?xml version='1.0' encoding='ASCII'?>
<svg xmlns="http://www.w3.org/2000/svg" width="16" height="16" viewBox="-3 -3 22 22">
<defs><style id="current-color-scheme" type="text/css">.ColorScheme-Contrast{color:#dedede; fill:currentColor;}</style></defs><path d="M1.025 4v2H2V5h1V4ZM4 4v1h2V4Zm3 0v1h2V4ZM1.025 7v2H2V7ZM11 7v2h1V7Zm-9.975 3v2H2v-2ZM11 10v2h1v-2zm-9.975 3v2H3v-1H2v-1ZM11 13v1h-1v1h2v-2zm-7 1v1h2v-1zm3 0v1h2v-1z" class="ColorScheme-Contrast" style="stroke-linecap:round;stroke-linejoin:round;stop-fill:currentColor" fill="currentColor"/>
<path d="M10 1v5h5V1zm1 1h3v3h-3z" style="opacity:1;stroke-width:.666667;fill-opacity:1;fill:currentColor" class="ColorScheme-Contrast" fill="currentColor"/>
<path d="M11 2h3v3h-3z" style="stroke-linecap:round;stroke-linejoin:round;stop-opacity:.35;fill:currentColor" class="ColorScheme-Contrast" fill="currentColor"/>
</svg>
