<?xml version='1.0' encoding='ASCII'?>
<svg xmlns="http://www.w3.org/2000/svg" viewBox="0 0 22 22">
<defs><style id="current-color-scheme" type="text/css">.ColorScheme-Contrast{color:#dedede; fill:currentColor;}</style></defs><path d="M2 3v2h1v12H2v2h2v-1h14v1h2v-2h-1V5h1V3h-2v1H4V3zm2 2h14v12H4zm1 1v10h3v-1H6V7h11V6zm10 2-.996.994L14 8.99l-5 4.998.008.008L9.004 15H9v1h2l.006-.006.004-.004.01.002-.006-.006L12 15l4-3.996-.705-.71-4.99 4.987-.594-.592 4.992-4.988.592.594.705.703 1-1z" class="ColorScheme-Contrast" style="fill-opacity:1;stroke:none;fill:currentColor" fill="currentColor"/>
</svg>
