<?xml version='1.0' encoding='ASCII'?>
<svg xmlns="http://www.w3.org/2000/svg" width="16" height="16" viewBox="-3 -3 22 22">
<defs><style id="current-color-scheme" type="text/css">.ColorScheme-Text{color:#fcfcfc; fill:currentColor;}</style></defs><g fill="currentColor" class="ColorScheme-Text" style="fill:currentColor">
<style id="current-color-scheme" type="text/css" class="ColorScheme-Text" fill="currentColor" style="fill:currentColor">
.ColorScheme-Text{color:#fcfcfc}
</style>
<path d="M1.025 4v1.977h1.116v-.862h.87V4zm3.416 0v1.115H5.87V4zM7.3 4v1.115h1.427V4zm2.715 0v1.115h.87v.862H12V4zM1.039 7.31v1.42h1.115V7.31zm9.86 0v1.42h1.115V7.31zm-9.86 2.836v1.418h1.115v-1.418zm9.86 0v1.418h1.115v-1.418zm-9.86 2.836v1.977h1.986v-1.115h-.87v-.862zm9.86 0v.862h-.872v1.115h1.987v-1.977zm-6.444.862v1.115h1.428v-1.115zm2.857 0v1.115H8.74v-1.115z" class="ColorScheme-Text" style="fill:currentColor" fill="currentColor"/>
<path d="M10 1h5v5h-5z" class="ColorScheme-Text" fill="currentColor" style="fill:currentColor"/>
</g>
</svg>
