<?xml version='1.0' encoding='ASCII'?>
<svg xmlns="http://www.w3.org/2000/svg" width="16" height="16" viewBox="-3 -3 22 22">
<defs><style id="current-color-scheme" type="text/css">.ColorScheme-Contrast{color:#dedede; fill:currentColor;}</style></defs><path d="M1 10.005h1v-1H1Zm2 0h1v-1H3Zm2 0h1v-1H5Zm2-.01h1v-1H7Zm2 0h1v-1H9ZM1 4h1V3H1Zm2 0h1V3H3Zm2 0h1V3H5Zm2 0h1V3H7Zm2 0h1V3H9Zm0 1.998h1v-1H9Zm0 1.998h1v-1H9Z" class="ColorScheme-Contrast" style="stroke-width:.999635;fill-opacity:1;fill:currentColor" fill="currentColor"/>
<path d="M5.5 11h1v4h-1z" style="stroke-width:1.41421;stroke-linecap:square;paint-order:stroke fill markers;stop-fill:currentColor" transform="matrix(0 1 1 0 0 0)" class="ColorScheme-Contrast" fill="currentColor"/>
<path d="M10.556 6.071h5v1h-5z" style="stroke-width:2;stroke-linecap:square;paint-order:stroke fill markers;stop-fill:currentColor" transform="scale(1 -1)rotate(-45)" class="ColorScheme-Contrast" fill="currentColor"/>
<path d="M2.071 14.556h5v1h-5z" style="stroke-width:2;stroke-linecap:square;paint-order:stroke fill markers;stop-fill:currentColor" transform="rotate(-45)" class="ColorScheme-Contrast" fill="currentColor"/>
<rect width="8" height="1" y="6" rx="0" ry="0" style="opacity:1;stroke-linecap:round;stroke-linejoin:round;stop-fill-opacity:1;fill:currentColor" class="ColorScheme-Contrast" fill="currentColor"/>
<path d="M2 14h12v1H2z" style="opacity:1;fill-opacity:1;stroke-linecap:round;stroke-linejoin:round;stop-fill:currentColor" class="ColorScheme-Contrast" fill="currentColor"/>
</svg>
