<svg xmlns="http://www.w3.org/2000/svg" width="16" height="16" viewBox="-3 -3 22 22">
<style id="current-color-scheme" type="text/css">
.ColorScheme-Contrast{color:#dedede}
</style>
<path d="M2 1c-.554 0-1 .446-1 1v3c0 .554.446 1 1 1h3c.554 0 1-.446 1-1V2c0-.554-.446-1-1-1zm0 1h3v3H2zm9-1c-.554 0-1 .446-1 1v3c0 .554.446 1 1 1h3c.554 0 1-.446 1-1V2c0-.554-.446-1-1-1Zm0 1h3v3h-3zm-9 8c-.554 0-1 .446-1 1v3c0 .554.446 1 1 1h3c.554 0 1-.446 1-1v-3c0-.554-.446-1-1-1Zm0 1h3v3H2Zm9-1c-.554 0-1 .446-1 1v3c0 .554.446 1 1 1h3c.554 0 1-.446 1-1v-3c0-.554-.446-1-1-1zm0 1h3v3h-3z" class="ColorScheme-Contrast" style="fill:#dedede;stroke-linecap:round;stroke-linejoin:round;stop-color:#000"/>
<path d="M3 5h1v6H3zm2-2h6v1H5zm7 2h1v6h-1zm-7 7h6v1H5z" style="fill:#dedede;stroke-linecap:round;stroke-linejoin:round;stop-color:#000"/>
</svg>
