<svg xmlns="http://www.w3.org/2000/svg" width="16" height="16" viewBox="-3 -3 22 22">
<g fill="currentColor">
<style id="current-color-scheme" type="text/css">
.ColorScheme-Contrast{color:#dedede}
</style>
<path d="M5.5 1A4.5 4.5 0 0 0 1 5.5 4.5 4.5 0 0 0 5.5 10 4.5 4.5 0 0 0 10 5.5 4.5 4.5 0 0 0 5.5 1m0 1A3.5 3.5 0 0 1 9 5.5 3.5 3.5 0 0 1 5.5 9 3.5 3.5 0 0 1 2 5.5 3.5 3.5 0 0 1 5.5 2M5 3v2H3v1h2v2h1V6h2V5H6V3z" class="ColorScheme-Contrast" opacity=".45" style="fill:currentColor"/>
<path fill-rule="evenodd" d="M10.963 6A5.5 5.5 0 0 1 6 10.963V15h9V6z" style="paint-order:stroke fill markers"/>
</g>
</svg>
