<?xml version='1.0' encoding='ASCII'?>
<svg xmlns="http://www.w3.org/2000/svg" width="16" height="16" viewBox="-3 -3 22 22">
<defs><style id="current-color-scheme" type="text/css">.ColorScheme-Contrast{color:#dedede; fill:currentColor;}</style></defs><path d="M2.02 0a1.994 1.994 0 0 0-2 2v12c0 1.108.89 2 1.999 2H10v-1H2c-.554 0-1-.446-1-1V2c0-.554.446-1 1-1h12c.554 0 1 .446 1 1v8h1V2c0-1.108-.892-2-2-2Z" class="ColorScheme-Contrast" style="fill-rule:evenodd;stroke-linecap:round;stroke-linejoin:round;stop-fill:currentColor" fill="currentColor"/>
<rect width="14" height="1" x="1" y="3" rx="0" ry="0" style="fill-rule:evenodd;stroke-linecap:round;stroke-linejoin:round;stop-fill:currentColor" class="ColorScheme-Contrast" fill="currentColor"/>
<path d="M12.828 7.172a4 4 0 0 0-5.656 0 4 4 0 0 0 0 5.656 4 4 0 0 0 5.656 0 4 4 0 0 0 0-5.656m-.707.707a3 3 0 0 1 0 4.242 3 3 0 0 1-4.242 0 3 3 0 0 1 0-4.242 3 3 0 0 1 4.242 0" style="fill-rule:evenodd;stroke-linecap:round;stroke-linejoin:round;stop-fill:currentColor" class="ColorScheme-Contrast" fill="currentColor"/>
<path d="M17.142-.5h5v1h-5z" style="fill-rule:evenodd;stroke-linecap:round;stroke-linejoin:round;stop-fill:currentColor" transform="rotate(45)" class="ColorScheme-Contrast" fill="currentColor"/>
</svg>
