<?xml version='1.0' encoding='ASCII'?>
<svg xmlns="http://www.w3.org/2000/svg" width="16" height="16" viewBox="-3 -3 22 22">
<defs><style id="current-color-scheme" type="text/css">.ColorScheme-Text{color:#fcfcfc; fill:currentColor;}</style></defs><g fill="currentColor" class="ColorScheme-Text" style="fill:currentColor">
<path fill-rule="evenodd" d="M692.99 501.42h8v1h-8z" style="paint-order:stroke fill markers;fill:currentColor" transform="translate(-691.99 -493.92)" class="ColorScheme-Text" fill="currentColor"/>
<path d="M8 1a7 7 0 0 0-4.937 2.063l.69.69A6 6 0 0 1 8 1.997 6.004 6.004 0 0 1 14.004 8 6.004 6.004 0 0 1 8 14.004a6 6 0 0 1-4.246-1.758l-.692.692A7 7 0 0 0 8 15a7 7 0 0 0 7-7 7 7 0 0 0-7-7" class="ColorScheme-Text" fill="currentColor" style="fill:currentColor"/>
<path fill-rule="evenodd" d="M846.29-141.47h5v1h-5z" style="paint-order:stroke fill markers;fill:currentColor" transform="rotate(45 250.22 -1082.266)" class="ColorScheme-Text" fill="currentColor"/>
<path fill-rule="evenodd" d="M136.47-851.29h5v1h-5z" style="paint-order:stroke fill markers;fill:currentColor" transform="scale(1 -1)rotate(45 -942.205 -588.343)" class="ColorScheme-Text" fill="currentColor"/>
</g>
</svg>
