<?xml version='1.0' encoding='ASCII'?>
<svg xmlns="http://www.w3.org/2000/svg" width="16" height="16" viewBox="-3 -3 22 22">
<defs><style id="current-color-scheme" type="text/css">.ColorScheme-Text{color:#fcfcfc; fill:currentColor;}</style></defs><path d="M13.614 3.59a.517.555 0 0 0-.303.016c-1.94.298-4.187 1.426-6.003 3.089-1.027.94-1.925 2.063-2.511 3.306h1.085a1 1 0 0 1 .095.005c.497-.884 1.178-1.714 1.976-2.444 1.67-1.53 3.812-2.624 5.487-2.88a.517.555 0 0 0 .174-1.092" class="ColorScheme-Text" style="fill-opacity:1;stroke-width:.902172;fill:currentColor" fill="currentColor"/>
<path d="M4.969 2.672A.5.5 0 0 1 4.5 3a.5.5 0 0 1-.465-.316.499.768 0 0 0-.033.316v8H5V3a.499.768 0 0 0-.031-.328" style="stroke-width:.95246;fill-opacity:1;fill:currentColor" class="ColorScheme-Text" fill="currentColor"/>
<path d="M4.5 1A1.5 1.5 0 0 0 3 2.5 1.5 1.5 0 0 0 4.5 4 1.5 1.5 0 0 0 6 2.5 1.5 1.5 0 0 0 4.5 1m0 1a.5.5 0 0 1 .5.5.5.5 0 0 1-.5.5.5.5 0 0 1-.5-.5.5.5 0 0 1 .5-.5" style="stroke-width:.999994;fill-opacity:1;fill:currentColor" class="ColorScheme-Text" fill="currentColor"/>
<path d="M4 10c-.554 0-1 .446-1 1v2c0 .554.446 1 1 1h2c.554 0 1-.446 1-1v-2c0-.554-.446-1-1-1zm0 1h2v2H4z" style="fill-rule:evenodd;stroke-linecap:round;stroke-linejoin:round;stop-fill:currentColor" class="ColorScheme-Text" fill="currentColor"/>
<rect width="2" height="2" x="4" y="11" rx="0" ry="0" style="fill-rule:evenodd;stroke-linecap:round;stroke-linejoin:round;stop-opacity:.35;fill:currentColor" class="ColorScheme-Text" fill="currentColor"/>
</svg>
