<?xml version='1.0' encoding='ASCII'?>
<svg xmlns="http://www.w3.org/2000/svg" width="16" height="16" viewBox="-3 -3 22 22">
<defs><style id="current-color-scheme" type="text/css">.ColorScheme-Text{color:#fcfcfc; fill:currentColor;}</style></defs><path fill="currentColor" d="M13.657 2.343a8 8 0 0 0-11.314 0 8 8 0 0 0 0 11.314 8 8 0 0 0 11.314 0 8 8 0 0 0 0-11.314m-.707.707a7 7 0 0 1 0 9.9 7 7 0 0 1-9.9 0 7 7 0 0 1 0-9.9 7 7 0 0 1 9.9 0" class="ColorScheme-Text" style="fill:currentColor"/>
<rect width="1" height="7" x="10.814" y="-6" fill="currentColor" rx=".5" ry=".5" transform="rotate(45)" class="ColorScheme-Text" style="fill:currentColor"/>
</svg>
