<?xml version='1.0' encoding='ASCII'?>
<svg xmlns="http://www.w3.org/2000/svg" viewBox="0 0 22 22">
<defs><style id="current-color-scheme" type="text/css">.ColorScheme-Text{color:#fcfcfc; fill:currentColor;}</style></defs><path d="M3 3v3h3V3zm4 0v1h9l1-1zm11.293 0L3 18.293l.707.707L19 3.707zM7 5v1h6.17l1-1zm-4 5v3h3v-3zm4 0v1h2l1-1zm7 0-1 1h4v-1zm-2 2-1 1h2v-1zm-3.17 3-1 1H17v-1zM7 17l-1 1h8v-1zm10 1v1h2v-1z" class="ColorScheme-Text" style="fill-opacity:1;stroke:none;fill:currentColor" fill="currentColor"/>
</svg>
