<?xml version='1.0' encoding='ASCII'?>
<svg xmlns="http://www.w3.org/2000/svg" width="16" height="16" viewBox="-3 -3 22 22">
<defs><style id="current-color-scheme" type="text/css">.ColorScheme-Text{color:#fcfcfc; fill:currentColor;}</style></defs><path fill="currentColor" d="M2 8c-.554 0-1 .446-1 1v5c0 .554.446 1 1 1h5c.554 0 1-.446 1-1V9c0-.554-.446-1-1-1zm0 1h5v5H2z" class="ColorScheme-Text" style="fill:currentColor"/>
<rect width="7" height="7" x="1" fill="currentColor" rx="1" ry="1" class="ColorScheme-Text" style="fill:currentColor"/>
<rect width="7" height="7" x="9" y="8" fill="currentColor" rx="1" ry="1" class="ColorScheme-Text" style="fill:currentColor"/>
<path fill="currentColor" d="M10 0c-.554 0-1 .446-1 1v5c0 .554.446 1 1 1h5c.554 0 1-.446 1-1V1c0-.554-.446-1-1-1zm0 1h5v5h-5z" class="ColorScheme-Text" style="fill:currentColor"/>
</svg>
