<?xml version='1.0' encoding='ASCII'?>
<svg xmlns="http://www.w3.org/2000/svg" width="16" height="16" viewBox="-3 -3 22 22">
<defs><style id="current-color-scheme" type="text/css">.ColorScheme-Contrast{color:#dedede; fill:currentColor;}</style></defs><path d="M11.5 1c-.277 0-.5.223-.5.5V6c0 .554-.446 1-1 1s-1-.446-1-1v-.5a.5.5 0 0 0-.04-.195.5.5 0 0 0-.106-.159A.5.5 0 0 0 8.5 5a.5.5 0 0 0-.195.04.5.5 0 0 0-.159.106A.5.5 0 0 0 8 5.5V6c0 .554-.446 1-1 1s-1-.446-1-1v-.5a.5.5 0 0 0-.04-.195.5.5 0 0 0-.106-.159A.5.5 0 0 0 5.5 5a.5.5 0 0 0-.195.04.5.5 0 0 0-.159.106A.5.5 0 0 0 5 5.5V6c0 .554-.446 1-1 1s-1-.446-1-1V2.5a.499.499 0 1 0-1 0V13c0 1.108.892 2 2 2h6c.768 0 1.432-.429 1.768-1.06l4.06-4.061a.499.499 0 1 0-.707-.707l-2.346 2.346A.499.499 0 0 1 12 11.1V1.5c0-.277-.223-.5-.5-.5M4 8h1v1.5a.499.499 0 1 0 1 0V8h2v1.5a.499.499 0 1 0 1 0V8h1c.554 0 1 .446 1 1v4c0 .554-.446 1-1 1H4c-.554 0-1-.446-1-1V9c0-.554.446-1 1-1" class="ColorScheme-Contrast" style="paint-order:stroke fill markers;fill:currentColor" fill="currentColor"/>
</svg>
