<svg xmlns="http://www.w3.org/2000/svg" viewBox="0 0 22 22">
<defs id="defs3051">
<style id="current-color-scheme" type="text/css">
.ColorScheme-Text{color:#dedede}
</style>
</defs>
<path d="M4 3v14H3v1h1v1h1v-1h14v-1H5V3zm11.049 1.23a2.22 2.22 0 0 0-2.219 2.22 2.22 2.22 0 0 0 2.219 2.218 2.22 2.22 0 0 0 2.219-2.219 2.22 2.22 0 0 0-2.22-2.219M7.994 7.764a.806.806 0 0 0-.806.806.806.806 0 0 0 .806.807.806.806 0 0 0 .805-.807.806.806 0 0 0-.805-.806m3.91 3.406a1.47 1.47 0 0 0-1.47 1.47 1.47 1.47 0 0 0 1.47 1.471 1.47 1.47 0 0 0 1.471-1.47 1.47 1.47 0 0 0-1.47-1.471" class="ColorScheme-Text" style="fill:currentColor;fill-opacity:1;stroke:none"/>
</svg>
