<?xml version='1.0' encoding='ASCII'?>
<svg xmlns="http://www.w3.org/2000/svg" width="16" height="16" viewBox="-3 -3 22 22">
<defs><style id="current-color-scheme" type="text/css">.ColorScheme-Text{color:#fcfcfc; fill:currentColor;}</style></defs><path d="M7 0h3v1H7z" class="ColorScheme-Text" style="fill-rule:evenodd;stroke-width:1.03265;stroke-linecap:round;stroke-linejoin:round;stop-fill:currentColor" fill="currentColor"/>
<path d="M12 0h4v1h-4z" style="fill-rule:evenodd;stroke-linecap:round;stroke-linejoin:round;stop-fill:currentColor" class="ColorScheme-Text" fill="currentColor"/>
<path d="M15 0h.969v4.047H15zm0 6h1v3.961h-1zm0 6h1v4h-1z" style="fill-rule:evenodd;stroke-linecap:round;stroke-linejoin:round;stop-fill:currentColor" class="ColorScheme-Text" fill="currentColor"/>
<path d="M11.969 15.004H16V16h-4.031zM7 15h3v1H7z" style="fill-rule:evenodd;stroke-linecap:round;stroke-linejoin:round;stop-fill:currentColor" class="ColorScheme-Text" fill="currentColor"/>
<path d="M2.5 1h1v14h-1z" style="fill-rule:evenodd;stroke-width:1.08012;stroke-linecap:round;stroke-linejoin:round;stop-fill:currentColor" class="ColorScheme-Text" fill="currentColor"/>
<path d="M2.121-2.121h4v1h-4z" style="fill-rule:evenodd;stroke-linecap:round;stroke-linejoin:round;stop-fill:currentColor" transform="rotate(45)" class="ColorScheme-Text" fill="currentColor"/>
<path d="M-2.121 2.121h4v1h-4z" style="fill-rule:evenodd;stroke-linecap:round;stroke-linejoin:round;stop-fill:currentColor" transform="scale(-1 1)rotate(45)" class="ColorScheme-Text" fill="currentColor"/>
<path d="M-9.192-13.435h4v1h-4z" style="fill-rule:evenodd;stroke-linecap:round;stroke-linejoin:round;stop-fill:currentColor" transform="scale(1 -1)rotate(45)" class="ColorScheme-Text" fill="currentColor"/>
<path d="M-13.435-9.192h4v1h-4z" style="fill-rule:evenodd;stroke-linecap:round;stroke-linejoin:round;stop-fill:currentColor" transform="rotate(-135)" class="ColorScheme-Text" fill="currentColor"/>
<path d="M-3.536-14.849h4v1h-4z" style="fill-rule:evenodd;stroke-linecap:round;stroke-linejoin:round;stop-fill:currentColor" transform="rotate(135)" class="ColorScheme-Text" fill="currentColor"/>
<path d="M-14.849-3.536h4v1h-4z" style="fill-rule:evenodd;stroke-linecap:round;stroke-linejoin:round;stop-fill:currentColor" transform="scale(-1 1)rotate(-45)" class="ColorScheme-Text" fill="currentColor"/>
<path d="M3 7.5h9v1H3z" style="fill-rule:evenodd;stroke-linecap:round;stroke-linejoin:round;stop-fill:currentColor" class="ColorScheme-Text" fill="currentColor"/>
</svg>
