<svg xmlns="http://www.w3.org/2000/svg" viewBox="0 0 22 22">
<defs id="defs3051">
<style id="current-color-scheme" type="text/css">
.ColorScheme-Text{color:#dedede}.ColorScheme-Highlight{color:#3daee9}
</style>
</defs>
<path d="M3 3v3h1v1h1V6h1V5h1V4H6V3zm13 0v1h-1v1h1v1h1v1h1V6h1V3zM4 4h1v1H4zm5 0v1h1V4zm3 0v1h1V4zm5 0h1v1h-1zM4 9v1h1V9zm0 3v1h1v-1zm0 3v1H3v3h3v-1h1v-1H6v-1H5v-1zm13 0v1h-1v1h-1v1h1v1h3v-3h-1v-1zM4 17h1v1H4zm5 0v1h1v-1zm3 0v1h1v-1zm5 0h1v1h-1z" class="ColorScheme-Text" style="fill:currentColor;fill-opacity:1;stroke:none"/>
<path d="M15 9v4h4V9zm1 1h2v2h-2z" class="ColorScheme-Highlight" style="fill:currentColor;fill-opacity:1;stroke:none"/>
</svg>
