<svg xmlns="http://www.w3.org/2000/svg" id="svg8" version="1.1" viewBox="0 0 22 22">
<defs id="defs3051">
<style id="current-color-scheme" type="text/css">
.ColorScheme-Contrast{color:#dedede}.ColorScheme-Highlight{color:#3daee9}
</style>
</defs>
<path id="path4" fill="currentColor" d="M9 4.295A7 7 0 0 0 4.299 9h1.053A6 6 0 0 1 9 5.35Zm4 .004v1.053A6 6 0 0 1 16.65 9h1.055A7 7 0 0 0 13 4.299M4.295 13A7 7 0 0 0 9 17.701v-1.053A6 6 0 0 1 5.35 13Zm12.353 0A6 6 0 0 1 13 16.65v1.055A7 7 0 0 0 17.701 13Z" class="ColorScheme-Contrast"/>
<path id="path6" fill="currentColor" d="M9 2v4h4V2zm1 1h2v2h-2zM2 9v4h4V9zm14 0v4h4V9zM3 10h2v2H3zm14 0h2v2h-2zm-8 6v4h4v-4zm1 1h2v2h-2z" class="ColorScheme-Highlight"/>
</svg>
