<svg xmlns="http://www.w3.org/2000/svg" viewBox="0 0 22 22">
<defs id="defs3051">
<style id="current-color-scheme" type="text/css">
.ColorScheme-Text{color:#fcfcfc}.ColorScheme-Highlight{color:#3daee9}
</style>
</defs>
<path d="m9.6 3.05-.707.708 2.293 2.293H8v1h3.186L8.893 9.344l.707.707 3.293-3.293.207-.207-.207-.207zm-3.1 3a.499.499 0 1 0 0 1 .499.499 0 1 0 0-1m-3 2a.499.499 0 1 0 0 1 .499.499 0 1 0 0-1m-1 3a.499.499 0 1 0 0 1 .499.499 0 1 0 0-1m1 3a.499.499 0 1 0 0 1 .499.499 0 1 0 0-1m3 2a.499.499 0 1 0 0 1 .499.499 0 1 0 0-1" class="ColorScheme-Text" style="fill:currentColor;fill-opacity:1;stroke:none"/>
<path d="M14 10a4 4 0 0 0-4 4 4 4 0 0 0 4 4 4 4 0 0 0 4-4 4 4 0 0 0-4-4m0 1a3 3 0 0 1 3 3 3 3 0 0 1-3 3 3 3 0 0 1-3-3 3 3 0 0 1 3-3" class="ColorScheme-Highlight" style="fill:currentColor;fill-opacity:1;stroke:none"/>
</svg>
