<?xml version='1.0' encoding='ASCII'?>
<svg xmlns="http://www.w3.org/2000/svg" width="16" height="16" viewBox="-3 -3 22 22">
<defs><style id="current-color-scheme" type="text/css">.ColorScheme-Text{color:#fcfcfc; fill:currentColor;}</style></defs><path d="M1 3v1h14V3zm7 1c-4.412 0-8 3.588-8 8a8 8 0 0 0 .252 2h1.039A7 7 0 0 1 1 12c0-3.872 3.128-7 7-7s7 3.128 7 7a7 7 0 0 1-.291 2h1.039A8 8 0 0 0 16 12c0-4.412-3.588-8-8-8" class="ColorScheme-Text" style="fill-opacity:1;fill:currentColor" fill="currentColor"/>
</svg>
