<?xml version='1.0' encoding='ASCII'?>
<svg xmlns="http://www.w3.org/2000/svg" width="16" height="16" viewBox="-3 -3 22 22">
<defs><style id="current-color-scheme" type="text/css">.ColorScheme-Contrast{color:#dedede; fill:currentColor;}</style></defs><path d="M4 0v6.09A1.5 1.5 0 0 1 4.5 6a1.5 1.5 0 0 1 .5.086V0zM0 7v1h3.09A1.5 1.5 0 0 1 3 7.5a1.5 1.5 0 0 1 .09-.5zm5.914 0A1.5 1.5 0 0 1 6 7.5a1.5 1.5 0 0 1-.09.5H16V7zM4 8.91V16h1V8.91a1.5 1.5 0 0 1-.5.09 1.5 1.5 0 0 1-.5-.09" class="ColorScheme-Contrast" style="opacity:1;fill-rule:evenodd;stroke-linecap:round;stroke-linejoin:round;stop-fill:currentColor" fill="currentColor"/>
<path d="M4.5 5A2.5 2.5 0 0 0 2 7.5 2.5 2.5 0 0 0 4.5 10 2.5 2.5 0 0 0 7 7.5 2.5 2.5 0 0 0 4.5 5m0 1A1.5 1.5 0 0 1 6 7.5 1.5 1.5 0 0 1 4.5 9 1.5 1.5 0 0 1 3 7.5 1.5 1.5 0 0 1 4.5 6" style="fill-rule:evenodd;stroke-linecap:round;stroke-linejoin:round;stop-fill:currentColor" class="ColorScheme-Contrast" fill="currentColor"/>
<circle cx="4.5" cy="7.5" r="1.5" style="fill-rule:evenodd;stroke-width:.6;stroke-linecap:round;stroke-linejoin:round;stop-opacity:.35;fill:currentColor" class="ColorScheme-Contrast" fill="currentColor"/>
</svg>
