<?xml version='1.0' encoding='ASCII'?>
<svg xmlns="http://www.w3.org/2000/svg" width="16" height="16" viewBox="-3 -3 22 22">
<defs><style id="current-color-scheme" type="text/css">.ColorScheme-Text{color:#fcfcfc; fill:currentColor;}</style></defs><path d="M-16-2h3.992v1.004H-16zm6 0h4v1h-4zm8-8h1v4h-1zm0-6h1v4h-1z" class="ColorScheme-Text" style="fill-rule:evenodd;stroke-linecap:round;stroke-linejoin:round;stop-fill:currentColor" transform="scale(-1)" fill="currentColor"/>
<path d="M2.293 5.828a1 1 0 0 0 1.414 0l2.121-2.12a1 1 0 0 0 0-1.415L3.708.172a1 1 0 0 0-1.415 0L.172 2.292a1 1 0 0 0 0 1.415zM3 5.121.879 3 3 .879 5.121 3z" style="fill-rule:evenodd;stroke-linecap:round;stroke-linejoin:round;stop-fill:currentColor" class="ColorScheme-Text" fill="currentColor"/>
<path d="M-5.743-1.5h3v3h-3z" style="opacity:.35;fill-rule:evenodd;stroke-width:.6;stroke-linecap:round;stroke-linejoin:round;stop-fill:currentColor" transform="rotate(-135)" class="ColorScheme-Text" fill="currentColor"/>
<path d="M-7-12h1v6h-1z" style="fill-rule:evenodd;stroke-linecap:round;stroke-linejoin:round;stop-fill:currentColor" transform="scale(-1)" class="ColorScheme-Text" fill="currentColor"/>
<path d="M-12-7h6v1h-6z" style="fill-rule:evenodd;stroke-linecap:round;stroke-linejoin:round;stop-fill:currentColor" transform="scale(-1)" class="ColorScheme-Text" fill="currentColor"/>
</svg>
