<svg xmlns="http://www.w3.org/2000/svg" viewBox="0 0 22 22">
<defs id="defs3051">
<style id="current-color-scheme" type="text/css">
.ColorScheme-Text{color:#fcfcfc}
</style>
</defs>
<path d="M7 3v1h12V3zm0 2v1h5V5zm0 4v1h12V9zm0 2v1h6v-1zm0 4v1h12v-1zm0 2v1h9v-1z" class="ColorScheme-Text" style="fill:currentColor;fill-opacity:1;stroke:none"/>
<path d="M4.5 3a1.5 1.5 0 1 0 0 3 1.5 1.5 0 0 0 0-3m0 6a1.5 1.5 0 1 0 0 3 1.5 1.5 0 0 0 0-3" style="fill:#2ecc71;fill-opacity:1;stroke:none"/>
<path d="M4.5 15a1.5 1.5 0 1 0 0 3 1.5 1.5 0 0 0 0-3M17 18v1h2v-1z" style="opacity:1;fill:#da4453;fill-opacity:1;stroke:none"/>
</svg>
