<?xml version='1.0' encoding='ASCII'?>
<svg xmlns="http://www.w3.org/2000/svg" width="16" height="16" viewBox="-3 -3 22 22">
<defs><style id="current-color-scheme" type="text/css">.ColorScheme-Text{color:#fcfcfc; fill:currentColor;}</style></defs><path d="M5.477 3.619c-.38-.01-.756.053-1.11.171-.47.158-.896.41-1.27.715-.642.524-1.134 1.202-1.488 1.931a7 7 0 0 0-.674 2.446c-.064.73-.017 1.52.35 2.221.183.352.446.673.785.908.34.235.751.377 1.18.371.347-.005.676-.106.966-.255.289-.148.538-.341.76-.547.41-.38.729-.773 1.102-.985.282-.16.62-.228.944-.201v.575h1.645V9.323H7.022v.359a2.36 2.36 0 0 0-1.293.3c-.532.303-.877.752-1.231 1.08a2.8 2.8 0 0 1-.605.439 1.5 1.5 0 0 1-.652.175 1.35 1.35 0 0 1-.77-.246 1.8 1.8 0 0 1-.562-.653c-.275-.527-.329-1.18-.27-1.832a6.4 6.4 0 0 1 .605-2.202c.316-.652.751-1.245 1.3-1.691.317-.26.671-.468 1.047-.594a2.46 2.46 0 0 1 1.154-.109c.427.068.843.272 1.206.552.363.281.679.64.968 1.03.605.818 1.077 1.752 1.571 2.691.196.371.4.755.663 1.12.264.364.589.709.998.959.405.248.876.389 1.358.39a2.4 2.4 0 0 0 1.367-.415 2.6 2.6 0 0 0 .802-.905c.19-.351.306-.731.366-1.11.062-.396.07-.82-.042-1.236a1.96 1.96 0 0 0-.723-1.093 1.7 1.7 0 0 0-1.332-.288v-.283h-1.645v1.647h1.645v-.634a1 1 0 0 1 .409-.057c.18.013.363.08.51.186.217.157.38.42.456.706.078.29.076.615.024.942a2.8 2.8 0 0 1-.287.883 1.9 1.9 0 0 1-.58.66c-.278.19-.625.294-.968.293a1.94 1.94 0 0 1-.993-.288 2.8 2.8 0 0 1-.792-.77 9 9 0 0 1-.61-1.036c-.491-.933-.977-1.899-1.63-2.781a6 6 0 0 0-1.105-1.168c-.437-.338-.954-.6-1.525-.69a3 3 0 0 0-.38-.035Zm6.295 2.613h.705v.706h-.705Zm-4.28 3.56H8.2v.707h-.706Z" class="ColorScheme-Text" style="opacity:1;fill:currentColor" fill="currentColor"/>
</svg>
