<svg xmlns="http://www.w3.org/2000/svg" width="16" height="16" viewBox="-3 -3 22 22">
<style id="current-color-scheme" type="text/css">
.ColorScheme-Text{color:#dedede}
</style>
<path d="M5 1c-1.108 0-2 .892-2 2v2h1V3c0-.554.446-1 1-1h9c.554 0 1 .446 1 1v7c0 .554-.446 1-1 1h-1v1h1c1.108 0 2-.892 2-2V3c0-1.108-.892-2-2-2z" class="ColorScheme-Text" style="fill:currentColor"/>
<path fill="currentColor" d="M2 5C.892 5 0 5.892 0 7v7c0 1.108.892 2 2 2h9c1.108 0 2-.892 2-2v-3h-1v3c0 .554-.446 1-1 1H2c-.554 0-1-.446-1-1V7c0-.554.446-1 1-1h2V5z"/>
<path fill="currentColor" d="M5 2c-.554 0-1 .446-1 1v3H2c-.554 0-1 .446-1 1v7c0 .554.446 1 1 1h9c.554 0 1-.446 1-1v-3h2c.554 0 1-.446 1-1V3c0-.554-.446-1-1-1z" opacity=".35"/>
</svg>
