<svg xmlns="http://www.w3.org/2000/svg" viewBox="0 0 22 22">
<defs id="defs3051">
<style id="current-color-scheme" type="text/css">
.ColorScheme-Text{color:#dedede}
</style>
</defs>
<path d="M4.5 3A1.5 1.5 0 0 0 3 4.5a1.5 1.5 0 0 0 1 1.412v10.176A1.5 1.5 0 0 0 3 17.5 1.5 1.5 0 0 0 4.5 19 1.5 1.5 0 0 0 6 17.5a1.5 1.5 0 0 0-1-1.412V12a1 1 0 0 1 1-1h10a2 2 0 0 0 2-2V5.912A1.5 1.5 0 0 0 19 4.5 1.5 1.5 0 0 0 17.5 3 1.5 1.5 0 0 0 16 4.5a1.5 1.5 0 0 0 1 1.412V9a1 1 0 0 1-1 1H6a2 2 0 0 0-1 .27V5.912A1.5 1.5 0 0 0 6 4.5 1.5 1.5 0 0 0 4.5 3m0 1a.5.5 0 0 1 .5.5.5.5 0 0 1-.5.5.5.5 0 0 1-.5-.5.5.5 0 0 1 .5-.5m13 0a.5.5 0 0 1 .5.5.5.5 0 0 1-.5.5.5.5 0 0 1-.5-.5.5.5 0 0 1 .5-.5M16 14v2h-2v1h2v2h1v-2h2v-1h-2v-2zM4.5 17a.5.5 0 0 1 .5.5.5.5 0 0 1-.5.5.5.5 0 0 1-.5-.5.5.5 0 0 1 .5-.5" class="ColorScheme-Text" style="fill:currentColor;fill-opacity:1;stroke:none"/>
</svg>
