<?xml version='1.0' encoding='ASCII'?>
<svg xmlns="http://www.w3.org/2000/svg" viewBox="0 0 22 22">
<defs><style id="current-color-scheme" type="text/css">.ColorScheme-Text{color:#fcfcfc; fill:currentColor;}</style></defs><path d="M11 3a8 8 0 0 0-3.121.637l.775.775a6.985 6.985 0 0 1 8.934 8.934l.775.775A8 8 0 0 0 19 11c0-4.432-3.568-8-8-8M3 5v1h5V5zm.637 2.879A8 8 0 0 0 3 11c0 4.432 3.568 8 8 8a8 8 0 0 0 3.121-.637l-.775-.775a6.985 6.985 0 0 1-8.934-8.934zM16 14v2h-2v1h2v2h1v-2h2v-1h-2v-2z" class="ColorScheme-Text" style="fill-opacity:1;stroke:none;fill:currentColor" fill="currentColor"/>
</svg>
