<?xml version='1.0' encoding='ASCII'?>
<svg xmlns="http://www.w3.org/2000/svg" viewBox="0 0 22 22">
<defs><style id="current-color-scheme" type="text/css">.ColorScheme-Contrast{color:#dedede; fill:currentColor;}</style></defs><path d="M11 3a8 8 0 0 0-2 .266V4.31a7 7 0 0 0-1.316.544l-.008-.007-.733-.733a8 8 0 0 0-2.828 2.828l.522.522.218.219A7 7 0 0 0 4.31 9H3.26A8 8 0 0 0 3 11c.004.675.093 1.347.266 2H4.31a7 7 0 0 0 .544 1.316l-.218.22-.522.52a8 8 0 0 0 2.828 2.829l.522-.522.219-.218A7 7 0 0 0 9 17.69v1.049q.494.128 1 .194V16.91a6 6 0 0 1-2.473-1.023l-.062.062-.65.65-.004.005a7 7 0 0 1-1.413-1.416l.002-.002.65-.65.065-.065A6 6 0 0 1 5.085 12H4.077A7 7 0 0 1 4 11q.001-.503.074-1H5.09a6 6 0 0 1 1.023-2.473l-.062-.062-.65-.65-.005-.004a7 7 0 0 1 1.417-1.413l.001.002.65.65.065.065A6 6 0 0 1 10 5.085V4.077q.496-.074 1-.076.504.002 1 .076v1.01a6 6 0 0 1 2.47 1.03l.065-.065.65-.65.002-.003a7 7 0 0 1 1.417 1.413l-.004.003-.65.65-.063.063A6 6 0 0 1 16.91 10h1.016q.073.497.074 1h1a8 8 0 0 0-.26-2h-1.049a7 7 0 0 0-.546-1.316l.218-.22.522-.52a8 8 0 0 0-2.828-2.829l-.733.733-.008.007A7 7 0 0 0 13 4.311V3.266A8 8 0 0 0 11 3m0 7a1 1 0 0 0-1 1 1 1 0 0 0 1 1 1 1 0 0 0 1-1 1 1 0 0 0-1-1m7.01 2v1h-1a2.5 2.5 0 0 0-2.5 2.5 1.5 1.5 0 0 1-1.5 1.5h-2.031v1h2.03a2.5 2.5 0 0 0 2.5-2.5 1.5 1.5 0 0 1 1.5-1.5h1v1l2-1.5zM11 13v1h2.01a1.5 1.5 0 0 1 .758.207 3.5 3.5 0 0 1 .51-.86A2.5 2.5 0 0 0 13.01 13zm7.01 3v1h-1a1.5 1.5 0 0 1-.758-.207 3.5 3.5 0 0 1-.51.86A2.5 2.5 0 0 0 17.01 18h1v1l2-1.5z" class="ColorScheme-Contrast" style="fill-opacity:1;stroke:none;fill:currentColor" fill="currentColor"/>
</svg>
