<svg xmlns="http://www.w3.org/2000/svg" width="22" height="22" fill="none">
<style id="current-color-scheme" type="text/css">
.ColorScheme-Text{color:#dedede}
</style>
<path fill="currentColor" fill-rule="evenodd" d="M3 3h16v10h-1V4H4v14h9v1H3z" class="ColorScheme-Text" clip-rule="evenodd"/>
<path fill="currentColor" d="M9 9a1 1 0 1 1-2 0 1 1 0 0 1 2 0m6 0a1 1 0 1 1-2 0 1 1 0 0 1 2 0" class="ColorScheme-Text"/>
<path fill="currentColor" fill-rule="evenodd" d="M14.429 12.257c-1.553 2.589-5.305 2.589-6.858 0l.858-.514c1.164 1.94 3.978 1.94 5.142 0z" class="ColorScheme-Text" clip-rule="evenodd"/>
<path fill="currentColor" fill-rule="evenodd" d="M19 11.5v2.207L13.707 19H11.5v-1H13v-5h5v-1.5zM17.293 14H14v3.293z" class="ColorScheme-Text" clip-rule="evenodd"/>
</svg>
