<?xml version='1.0' encoding='ASCII'?>
<svg xmlns="http://www.w3.org/2000/svg" viewBox="0 0 22 22">
<defs><style id="current-color-scheme" type="text/css">.ColorScheme-Contrast{color:#dedede; fill:currentColor;}</style></defs><path d="M3 3v16h6v-1H4V6h12v4h1V3h-2v1h-1V3H6v1H5V3zm2 4v1h10V7zm0 3v1h10v-1zm12 1-.996.994L16 11.99l-5 4.998.008.008L11.004 18H11v1h2l.006-.006.004-.004.01.002-.006-.006L14 18l4-3.996-.705-.71-4.99 4.987-.594-.592 4.992-4.988.592.594.705.703 1-1zM5 13v1h7v-1z" class="ColorScheme-Contrast" style="fill-opacity:1;stroke:none;fill:currentColor" fill="currentColor"/>
</svg>
