<?xml version='1.0' encoding='ASCII'?>
<svg xmlns="http://www.w3.org/2000/svg" width="16" height="16" viewBox="-3 -3 22 22">
<defs><style id="current-color-scheme" type="text/css">.ColorScheme-Contrast{color:#dedede; fill:currentColor;}</style></defs><path d="M7 6h1v1H7zm0 2h1v1H7zm0 2h1v1H7zm0 2h1v1H7zm0 2h1v1H7zM1 1h13v1H1z" class="ColorScheme-Contrast" style="fill-rule:evenodd;stroke-linecap:round;stroke-linejoin:round;stop-fill-opacity:1;fill:currentColor" fill="currentColor"/>
<path d="M1 1h1v14H1zm12 0h1v14h-1zM4 4h1v11H4zm6 0h1v11h-1z" style="fill-rule:evenodd;stroke-linecap:round;stroke-linejoin:round;stop-fill-opacity:1;fill:currentColor" class="ColorScheme-Contrast" fill="currentColor"/>
<path d="M4 4h7v1H4zM1 14h4v1H1zm9 0h4v1h-4z" style="fill-rule:evenodd;stroke-linecap:round;stroke-linejoin:round;stop-fill-opacity:1;fill:currentColor" class="ColorScheme-Contrast" fill="currentColor"/>
</svg>
