<?xml version='1.0' encoding='ASCII'?>
<svg xmlns="http://www.w3.org/2000/svg" width="16" height="16" viewBox="-3 -3 22 22">
<defs><style id="current-color-scheme" type="text/css">.ColorScheme-Contrast{color:#dedede; fill:currentColor;}</style></defs><path d="M14.5 10a4.5 4.5 0 0 1-4.5 4.5A4.5 4.5 0 0 1 5.5 10 4.5 4.5 0 0 1 10 5.5a4.5 4.5 0 0 1 4.5 4.5" class="ColorScheme-Contrast" style="opacity:.5;fill-opacity:1;fill:currentColor" fill="currentColor"/>
<path d="M10 5c-2.756 0-5 2.244-5 5s2.244 5 5 5 5-2.244 5-5-2.244-5-5-5m0 1c2.215 0 4 1.785 4 4s-1.785 4-4 4-4-1.785-4-4 1.785-4 4-4" style="opacity:1;stroke-linecap:butt;fill-opacity:1;fill:currentColor" class="ColorScheme-Contrast" fill="currentColor"/>
<path d="M2 10h9v1H2z" style="fill-rule:evenodd;stroke-linecap:round;stroke-linejoin:round;stop-fill:currentColor" class="ColorScheme-Contrast" fill="currentColor"/>
<path d="M10 1h1v10h-1z" style="fill-rule:evenodd;stroke-width:1.11803;stroke-linecap:round;stroke-linejoin:round;stop-fill:currentColor" class="ColorScheme-Contrast" fill="currentColor"/>
<path d="m10.5 0-.707.707-2.121 2.121.707.707 2.121-2.12 2.121 2.12.707-.707L11.207.707Z" style="fill-rule:evenodd;stroke-linecap:round;stroke-linejoin:round;stop-fill:currentColor" class="ColorScheme-Contrast" fill="currentColor"/>
</svg>
