<?xml version='1.0' encoding='ASCII'?>
<svg xmlns="http://www.w3.org/2000/svg" width="16" height="16" viewBox="-3 -3 22 22">
<defs><style id="current-color-scheme" type="text/css">.ColorScheme-Text{color:#fcfcfc; fill:currentColor;}</style></defs><path d="M3.05 3.05a7 7 0 0 0 0 9.9 7 7 0 0 0 9.9 0 7 7 0 0 0 1.426-2.092l.013-.005.052-.132a7 7 0 0 0 .094-.243 7 7 0 0 0 .159-.457l.053-.194a7 7 0 0 0 .096-.356l-.007.004-.005.003a6 6 0 0 1-1.211.606l-.002.002a6 6 0 0 1-6.325-1.379 6 6 0 0 1-1.308-6.49 6 6 0 0 1 .119-.273 6 6 0 0 1 .149-.298A6 6 0 0 1 6.39 1.4a6 6 0 0 1 .145-.239l.004-.006A7 7 0 0 0 3.05 3.05m.707.707a6 6 0 0 1 .945-.765 7 7 0 0 0 1.884 6.422 7 7 0 0 0 6.41 1.891 6 6 0 0 1-.753.938 6 6 0 0 1-8.486 0 6 6 0 0 1 0-8.486" class="ColorScheme-Text" style="fill:currentColor" fill="currentColor"/>
</svg>
