<?xml version='1.0' encoding='ASCII'?>
<svg xmlns="http://www.w3.org/2000/svg" width="16" height="16" viewBox="-3 -3 22 22">
<defs><style id="current-color-scheme" type="text/css">.ColorScheme-Contrast{color:#dedede; fill:currentColor;}</style></defs><g fill="currentColor" class="ColorScheme-Contrast" style="fill:currentColor">
<style id="current-color-scheme" type="text/css" class="ColorScheme-Contrast" fill="currentColor" style="fill:currentColor">
.ColorScheme-Contrast{color:#dedede}
</style>
<path d="M7.903 1.478s-.148.05-.499.283c-.429.287-.67.235-.954.156l-.002.002a3 3 0 0 0-.16-.087V1.83c-.22-.195-.396-.37-.39-.886.006-.422-.033-.572-.033-.572a1.1 1.1 0 0 0-.364-.107s-.214-.023-.378.029c0 0-.07.139-.152.553-.101.506-.309.64-.565.785v.003a3 3 0 0 0-.175.052l-.002-.002c-.294.018-.541.019-.902-.35C3.033 1.031 2.9.953 2.9.953a1.1 1.1 0 0 0-.333.18s-.167.136-.247.289c0 0 .05.147.283.498.287.43.235.671.156.955l.002.002q-.046.078-.087.16H2.67c-.195.22-.37.395-.886.389-.421-.005-.572.034-.572.034-.085.15-.107.364-.107.364s-.023.214.029.378c0 0 .139.07.553.152.506.101.64.309.785.565h.002q.023.088.052.175l-.002.002c.018.294.019.54-.35.901-.303.295-.382.429-.382.429.047.166.182.333.182.333s.135.167.288.247c0 0 .148-.05.498-.284.43-.286.671-.234.955-.155l.002-.002q.08.046.16.087v.003c.22.195.395.37.389.885-.005.422.033.573.033.573.15.085.364.107.364.107s.214.023.379-.03c0 0 .07-.138.152-.552.1-.506.309-.64.565-.785V6.85a3 3 0 0 0 .174-.052l.002.002c.294-.018.541-.019.901.35.295.303.429.381.429.381.166-.046.333-.181.333-.181s.167-.136.247-.289c0 0-.049-.147-.283-.498-.287-.429-.234-.67-.156-.954l-.002-.002a3 3 0 0 0 .087-.16h.003c.195-.22.37-.396.886-.39.422.006.572-.033.572-.033.085-.15.107-.364.107-.364s.023-.214-.029-.379c0 0-.139-.07-.553-.152-.506-.1-.64-.308-.785-.565H7.69a3 3 0 0 0-.052-.174l.002-.002c-.018-.294-.019-.541.35-.902.303-.294.381-.428.381-.428-.046-.166-.181-.333-.181-.333s-.135-.168-.288-.247zM6.26 5.696a1.87 1.87 0 1 1-2.355-2.908A1.87 1.87 0 0 1 6.26 5.696" class="ColorScheme-Contrast" style="fill:currentColor" fill="currentColor"/>
<path d="M12.326 6.472s-.158.113-.492.521c-.409.5-.717.525-1.085.535l-.002.003a3 3 0 0 0-.222-.046v-.003c-.336-.152-.61-.297-.79-.916-.148-.506-.25-.672-.25-.672-.21-.046-.474.005-.474.005s-.264.052-.441.174c0 0-.033.191.02.716.064.642-.135.878-.388 1.145v.004q-.097.06-.19.126l-.002-.002c-.344.129-.64.22-1.205-.09-.463-.253-.652-.298-.652-.298-.181.115-.331.338-.331.338s-.15.223-.19.435c0 0 .113.158.52.492.5.408.526.716.536 1.084l.003.002a3 3 0 0 0-.046.223h-.002c-.153.335-.297.609-.916.79-.506.147-.672.25-.672.25-.047.21.004.473.004.473s.051.264.174.442c0 0 .19.032.716-.02.641-.065.877.135 1.144.388h.003a3 3 0 0 0 .126.189l-.002.003c.13.345.22.64-.09 1.206-.253.462-.298.651-.298.651.116.182.339.332.339.332s.223.15.435.19c0 0 .158-.113.492-.521.408-.5.716-.525 1.084-.535l.002-.003q.11.028.223.046v.004c.335.152.609.297.79.916.147.506.249.672.249.672.21.046.474-.005.474-.005s.264-.052.442-.174c0 0 .032-.191-.02-.716-.064-.642.136-.878.389-1.145l-.001-.003q.096-.06.19-.126l.002.002c.345-.129.64-.22 1.206.09.462.253.651.298.651.298.182-.116.332-.338.332-.338s.15-.223.19-.435c0 0-.112-.159-.52-.492-.5-.409-.526-.717-.536-1.085l-.002-.002q.027-.111.046-.222h.003c.153-.336.297-.61.916-.79.506-.148.672-.25.672-.25.046-.21-.005-.474-.005-.474s-.051-.264-.173-.442c0 0-.192-.032-.717.02-.641.065-.878-.134-1.145-.388h-.003a3 3 0 0 0-.126-.188l.002-.003c-.129-.345-.22-.64.09-1.206.253-.462.298-.652.298-.652-.116-.181-.338-.332-.338-.332s-.223-.15-.435-.19zm-.423 5.643A2.338 2.338 0 1 1 8.026 9.5a2.338 2.338 0 0 1 3.877 2.615" class="ColorScheme-Contrast" fill="currentColor" style="fill:currentColor"/>
</g>
</svg>
