<?xml version='1.0' encoding='ASCII'?>
<svg xmlns="http://www.w3.org/2000/svg" viewBox="0 0 22 22">
<defs><style id="current-color-scheme" type="text/css">.ColorScheme-Text{color:#fcfcfc; fill:currentColor;}</style></defs><path fill="currentColor" d="M17.5 12a3.5 3.5 0 0 0-3.5 3.5 3.5 3.5 0 0 0 3.5 3.5 3.5 3.5 0 0 0 3.5-3.5 3.5 3.5 0 0 0-3.5-3.5m0 1 .479 1.346 1.289-.614-.614 1.29L20 15.5l-1.346.479.614 1.289-1.29-.614L17.5 18l-.479-1.346-1.289.614.614-1.29L15 15.5l1.346-.478-.614-1.29 1.29.614z" class="ColorScheme-Text" style="fill:currentColor"/>
<path fill="currentColor" d="M5 4C3.338 4 2 5.338 2 7v8c0 1.662 1.338 3 3 3h8v-1H5c-1.108 0-2-.892-2-2V8h8v1h8v2h1V7c0-1.662-1.338-3-3-3zm0 1h12c1.108 0 2 .892 2 2H3c0-1.108.892-2 2-2" class="ColorScheme-Text" style="fill:currentColor"/>
</svg>
