<svg xmlns="http://www.w3.org/2000/svg" viewBox="0 0 22 22">
<defs id="defs3051">
<style id="current-color-scheme" type="text/css">
.ColorScheme-Text{color:#dedede}.ColorScheme-Highlight{color:#3daee9}
</style>
</defs>
<path d="M3 3v16h16V3zm1 1h5v5H4zm6 0h2v2h-2zm3 0h2v2h-2zm3 0h2v2h-2zm-6 3h2v2h-2zm3 0h2v2h-2zm3 0h2v2h-2zM4 10h2v2H4zm3 0h2v2H7zm3 0h2v2h-2zm3 0h2v2h-2zm3 0h2v2h-2zM4 13h2v2H4zm3 0h2v2H7zm3 0h2v2h-2zm3 0h2v2h-2zm3 0h2v2h-2zM4 16h2v2H4zm3 0h2v2H7zm3 0h2v2h-2zm3 0h2v2h-2zm3 0h2v2h-2z" class="ColorScheme-Text" style="fill:currentColor;fill-opacity:1;stroke:none"/>
<path d="M4 4v5h5V4z" class="ColorScheme-Highlight" style="fill:currentColor;fill-opacity:1;stroke:none"/>
</svg>
