<?xml version='1.0' encoding='ASCII'?>
<svg xmlns="http://www.w3.org/2000/svg" viewBox="0 0 22 22">
<defs><style id="current-color-scheme" type="text/css">.ColorScheme-Contrast{color:#dedede; fill:currentColor;}</style></defs><path fill="currentColor" d="M11.778 3.293A1 1 0 0 0 11.071 3H4a1 1 0 0 0-1 1v7.071a1 1 0 0 0 .293.707l7.778 7.778a1 1 0 0 0 1.414 0l7.071-7.07a1 1 0 0 0 0-1.415zM11.071 4l7.778 7.778-7.071 7.071L4 11.071V4z" class="ColorScheme-Contrast" style="fill:currentColor"/>
<path fill="currentColor" d="M7.951 6A2 2 0 0 0 6 8a2 2 0 0 0 2 2 2 2 0 0 0 2-2 2 2 0 0 0-2-2zM8 7a1 1 0 0 1 1 1 1 1 0 0 1-1 1 1 1 0 0 1-1-1 1 1 0 0 1 1-1" class="ColorScheme-Contrast" style="fill:currentColor"/>
</svg>
