<?xml version='1.0' encoding='ASCII'?>
<svg xmlns="http://www.w3.org/2000/svg" width="16" height="16" viewBox="-3 -3 22 22">
<defs><style id="current-color-scheme" type="text/css">.ColorScheme-Text{color:#fcfcfc; fill:currentColor;}</style></defs><g fill="currentColor" class="ColorScheme-Text" style="fill:currentColor">
<style id="current-color-scheme" type="text/css" class="ColorScheme-Text" fill="currentColor" style="fill:currentColor">
.ColorScheme-Text{color:#fcfcfc}
</style>
<path d="M3.908 1.5c-.257 0-.495.075-.702.198a4.8 4.8 0 0 0-1.193-.185c-.476-.01-.785.051-.785.051s.613.47 1.321 1.076q-.022.118-.023.242a1.386 1.386 0 0 0 1.666 1.353c.764.958 1.041 2.155 1.485 3.579.476 1.526 1.203 3.272 3.066 4.746.04.725.642 1.306 1.377 1.306.23 0 .443-.062.634-.162.754.297 1.492.472 2.126.573 1.142.182 1.91.155 1.91.155s-.677-.374-1.642-.925c-.526-.3-1.081-.637-1.646-.999l.001-.026a1.385 1.385 0 0 0-1.872-1.29C8.17 9.998 7.664 8.727 7.228 7.33c-.439-1.409-.76-2.981-1.943-4.322q.006-.062.006-.126c0-.761-.622-1.382-1.383-1.382m0 .554a.82.82 0 0 1 .83.828c0 .464-.365.83-.83.83a.823.823 0 0 1-.83-.83.82.82 0 0 1 .83-.828m6.212 9.599c.465 0 .83.365.83.83s-.365.83-.83.83a.82.82 0 0 1-.828-.83.82.82 0 0 1 .828-.83" class="ColorScheme-Text" style="fill:currentColor" fill="currentColor"/>
<path d="m1.455.784-.456 1.56c.75.219 1.343.466 1.824.738a1.1 1.1 0 0 1 .975-1.294c-.644-.392-1.415-.732-2.343-1.004m3.542 1.927q.016.084.018.172a1.1 1.1 0 0 1-1.036 1.099q.266.29.469.601c.588.902.85 2.036 1.26 3.327.408 1.292.995 2.736 2.323 4.03q.458.45 1.038.868a1.1 1.1 0 0 1-.054-.324c0-.539.38-.984.889-1.085a8 8 0 0 1-.738-.622C8.092 9.729 7.638 8.623 7.257 7.421c-.38-1.203-.652-2.507-1.448-3.726a5.8 5.8 0 0 0-.812-.984m6.192 9.5c.022.087.038.178.038.272a1.1 1.1 0 0 1-.94 1.09c1.128.617 2.532 1.17 4.294 1.643l.42-1.57c-1.604-.43-2.839-.917-3.812-1.435" opacity=".3" class="ColorScheme-Text" fill="currentColor" style="fill:currentColor"/>
</g>
</svg>
