<svg xmlns="http://www.w3.org/2000/svg" viewBox="0 0 22 22">
<defs id="defs3051">
<style id="current-color-scheme" type="text/css">
.ColorScheme-Text{color:#fcfcfc}
</style>
</defs>
<path d="M3 3v16h9v-1H4V4h14v8h1V3zm2 2v1h12V5zm0 2v1h9V7zm0 3v1h12v-1zm0 2v1h4v-1zm0 3v1h7v-1z" class="ColorScheme-Text" style="fill:currentColor;fill-opacity:1;stroke:none"/>
<path d="m13.98 13-.99.99L15 16l-2.01 2.01.99.99 2.01-2.01L18 19l.99-.99L16.98 16l2.01-2.01L18 13l-2.01 2.01z" style="fill:#da4453;fill-opacity:1;stroke:none"/>
</svg>
