<?xml version='1.0' encoding='ASCII'?>
<svg xmlns="http://www.w3.org/2000/svg" width="16" height="16" viewBox="-3 -3 22 22">
<defs><style id="current-color-scheme" type="text/css">.ColorScheme-Text{color:#fcfcfc; fill:currentColor;}</style></defs><path d="M204.063 547.411c0 5.02 0 2.56.03 5.46v.428h2.75c1.682.068 1.606-4.048-.03-3.925h-1.75v-1.963zm.937 2.853h1.875c.368-.038.435 2.164 0 2.146H205c-.006-.466.004-2.002 0-2.146m-5.937-1.949v.872h1.75a.34.34 0 0 1 .25.125.63.63 0 0 1 .125.374v.716h-1.875c-1.611-.116-1.688 2.963-.032 2.898h2.75v-.437l.032-3.146c0-.37-.103-.714-.313-.966a1.28 1.28 0 0 0-.844-.436zm.187 2.96h1.906l-.031 1.152h-1.875c-.468.019-.401-1.193 0-1.153zm3.75 3.087c-4.241 0-7.698 3.088-7.969 7h1c.28-3.352 3.287-6 6.969-6s6.69 2.648 6.969 6h1c-.271-3.912-3.728-7-7.969-7" class="ColorScheme-Text" style="opacity:1;fill-opacity:1;fill:currentColor" transform="matrix(1 0 0 .99693 -195 -545.684)" fill="currentColor"/>
<path d="m6.232 9.525-.707.707L7.293 12l-1.768 1.768.707.707L8 12.707l1.768 1.768.707-.707L8.707 12l1.768-1.768-.707-.707L8 11.293Z" style="fill-opacity:1;fill-rule:evenodd;stroke-linecap:round;stroke-linejoin:round;stop-fill:currentColor" class="ColorScheme-Text" fill="currentColor"/>
</svg>
