<svg xmlns="http://www.w3.org/2000/svg" viewBox="0 0 22 22">
<defs id="defs3051">
<style id="current-color-scheme" type="text/css">
.ColorScheme-Text{color:#dedede}
</style>
</defs>
<path id="path6" d="M2 4s4.134 14.017 4.139 14c.01.007.353.002.609 0h.387c.366.003.815.01.83 0 .005.017 4.139-14 4.139-14H11L7.28 16h-.464L3.104 4zm11.379 0L9.043 17.863 9 18h1.137l1.564-5h6.344l-3.518-9zm.51 2h.257l2.346 6h-4.48z" class="ColorScheme-Text" style="fill:currentColor;fill-opacity:1;stroke:none"/>
<path id="rect4126" d="m14.99 14-.99.99L16.01 17 14 19.01l.99.99L17 17.99 19.01 20l.99-.99L17.99 17 20 14.99l-.99-.99L17 16.01z" style="fill:#da4453;fill-opacity:1;stroke:none"/>
</svg>
