<svg xmlns="http://www.w3.org/2000/svg" width="16" height="16" viewBox="-3 -3 22 22">
<style id="current-color-scheme" type="text/css">
.ColorScheme-Contrast{color:#dedede}
</style>
<path d="M8 2v2H7v1h1v4.5A1.5 1.5 0 0 0 9.5 11h.5v-1h-.5a.5.5 0 0 1-.5-.5V5h1V4H9V2Zm3 0v9h1V8c0-.554.446-1 1-1s1 .446 1 1v3h1V8c0-1.108-.892-2-2-2a2 2 0 0 0-1 .266V2ZM0 4v1h1V4Zm0 2v5h1V6Zm4 0c-1.108 0-2 .892-2 2v3h1V8c0-.554.446-1 1-1s1 .446 1 1v3h1V8c0-1.108-.892-2-2-2" class="ColorScheme-Contrast" style="fill:#dedede;fill-rule:evenodd;stroke-linecap:round;stroke-linejoin:round;stop-color:#000"/>
</svg>
