<svg xmlns="http://www.w3.org/2000/svg" viewBox="0 0 22 22">
<defs id="defs3051">
<style id="current-color-scheme" type="text/css">
.ColorScheme-Text{color:#dedede}
</style>
</defs>
<path d="M3 3v6h3a1.996 1.996 0 0 0 .828-3.816A1.488 1.488 0 0 0 5.5 3zm11 0v6h3c1.108 0 2-.892 2-2V5c0-1.108-.892-2-2-2zM4 4h1.5a.499.499 0 1 1 0 1H4zm11 0h2c.554 0 1 .446 1 1v2c0 .554-.446 1-1 1h-2zM4 6h2c.554 0 1 .446 1 1s-.446 1-1 1H4zm6 0v1h2V6zm-6 6v1h2v-1zm4 0v1h2v-1zm4 0v1h2v-1zm4 0v1h2v-1zM5 15l-2 2 2 2zm12 0v4l2-2zm-6 1c-.554 0-1 .446-1 1s.446 1 1 1 1-.446 1-1-.446-1-1-1" class="ColorScheme-Text" style="fill:currentColor;fill-opacity:1;stroke:none"/>
</svg>
