<svg xmlns="http://www.w3.org/2000/svg" viewBox="0 0 22 22">
<defs id="defs3051">
<style id="current-color-scheme" type="text/css">
.ColorScheme-Text{color:#dedede}.ColorScheme-Highlight{color:#3daee9}
</style>
</defs>
<path d="M3 3v16h8v-1H4V4h14v8h1V3zm2 2v1h12V5zm0 2v1h9V7zm0 3v1h12v-1zm0 2v1h4v-1zm0 3v1h9v-1zm7 2v1h3v-1z" class="ColorScheme-Text" style="fill:currentColor;fill-opacity:1;stroke:none"/>
<path d="M11 12v1h4.5a2.495 2.495 0 0 1 1.5 4.49V16h-1v3h3v-1h-1.076A3.45 3.45 0 0 0 19 15.5c0-1.939-1.561-3.5-3.5-3.5z" class="ColorScheme-Highlight" style="fill:currentColor;fill-opacity:1;stroke:none"/>
</svg>
