<svg xmlns="http://www.w3.org/2000/svg" width="16" height="16" viewBox="-3 -3 22 22">
<style id="current-color-scheme" type="text/css">
.ColorScheme-Contrast{color:#dedede}
</style>
<path d="M1 14c0 1.108.892 2 2 2h6c1.108 0 2-.892 2-2V7h-1v7c0 .554-.446 1-1 1H3c-.554 0-1-.446-1-1V5c0-.554.446-1 1-1h4V3H3c-1.108 0-2 .892-2 2Z" class="ColorScheme-Contrast" style="fill:#dedede;stroke-linecap:round;stroke-linejoin:round;stop-color:#000"/>
<path d="M6 7c0 .554.446 1 1 1h4V7H7V3H6Z" style="fill:#dedede;stroke-linecap:round;stroke-linejoin:round;stop-color:#000"/>
<path d="m6.293 3.707 4 4L11 7 7 3Z" style="color:#000;fill:#dedede;fill-opacity:1;-inkscape-stroke:none"/>
<path d="M7 0C5.892 0 5 .892 5 2h1c0-.554.446-1 1-1h4V0zm7 4v7c0 .554-.446 1-1 1h-1v1h1c1.108 0 2-.892 2-2V4z" style="fill:#dedede;stroke-linecap:round;stroke-linejoin:round;stop-color:#000"/>
<path d="M10 4c0 .554.446 1 1 1h4V4h-4V0h-1z" style="fill:#dedede;stroke-linecap:round;stroke-linejoin:round;stop-color:#000"/>
<path d="m10.293.707 4 4L15 4l-4-4Z" style="color:#000;fill:#dedede;fill-opacity:1;-inkscape-stroke:none"/>
</svg>
