<?xml version='1.0' encoding='ASCII'?>
<svg xmlns="http://www.w3.org/2000/svg" viewBox="0 0 22 22">
<defs><style id="current-color-scheme" type="text/css">.ColorScheme-Contrast{color:#dedede; fill:currentColor;}</style></defs><g fill="currentColor" class="ColorScheme-Contrast" transform="translate(3 3)" style="fill:currentColor">
<circle cx="5" cy="6" r="1" class="ColorScheme-Contrast" fill="currentColor" style="fill:currentColor"/>
<circle cx="11" cy="6" r="1" class="ColorScheme-Contrast" fill="currentColor" style="fill:currentColor"/>
<path d="M8 9a5 5 0 0 0-4.576 3H4.54A4 4 0 0 1 8 10a4 4 0 0 1 3.459 2h1.121A5 5 0 0 0 8 9" class="ColorScheme-Contrast" fill="currentColor" style="fill:currentColor"/>
</g>
<path fill="currentColor" d="M10.99 2A9 9 0 0 0 2 11a9 9 0 0 0 9 9 9 9 0 0 0 9-9 9 9 0 0 0-9-9zM11 3a8 8 0 0 1 8 8 8 8 0 0 1-8 8 8 8 0 0 1-8-8 8 8 0 0 1 8-8" class="ColorScheme-Contrast" style="fill:currentColor"/>
</svg>
