<?xml version='1.0' encoding='ASCII'?>
<svg xmlns="http://www.w3.org/2000/svg" width="16" height="16" viewBox="-3 -3 22 22">
<defs><style id="current-color-scheme" type="text/css">.ColorScheme-Contrast{color:#dedede; fill:currentColor;}</style></defs><path fill="currentColor" d="M6 1c-.554 0-1 .446-1 1v1H3c-1.108 0-2 .892-2 2v8c0 1.108.892 2 2 2h10c1.108 0 2-.892 2-2V5c0-1.108-.892-2-2-2h-2V2c0-.554-.446-1-1-1zm0 1h4v1H6zM3 4h10c.554 0 1 .446 1 1v2h-3V6h-1v1H6V6H5v1H2V5c0-.554.446-1 1-1M2 8h3v1h1V8h4v1h1V8h3v5c0 .554-.446 1-1 1H3c-.554 0-1-.446-1-1z" class="ColorScheme-Contrast" style="fill:currentColor"/>
</svg>
