<?xml version='1.0' encoding='ASCII'?>
<svg xmlns="http://www.w3.org/2000/svg" viewBox="0 0 22 22">
<defs><style id="current-color-scheme" type="text/css">.ColorScheme-Text{color:#fcfcfc; fill:currentColor;}</style></defs><path d="M11 3c-4.432 0-8 3.568-8 8a7.982 7.982 0 0 0 9 7.934v-1.008q-.49.072-1 .074c-3.878 0-7-3.122-7-7s3.122-7 7-7 7 3.122 7 7a7 7 0 0 1-.293 2h1.033A7.982 7.982 0 0 0 11 3m0 2c-3.324 0-6 2.676-6 6h3c0-1.662 1.338-3 3-3zm0 4c-1.108 0-2 .892-2 2s.892 2 2 2 2-.892 2-2-.892-2-2-2m0 1c.554 0 1 .446 1 1s-.446 1-1 1-1-.446-1-1 .446-1 1-1m3 1c0 .353-.069.688-.182 1h3.092c.056-.325.09-.658.09-1zm-2 2.818A2.9 2.9 0 0 1 11 14v3c.342 0 .675-.034 1-.09zM15 15l-2 2 2 2h4v-4zm.6 1H18v2h-2.4l-1-1z" class="ColorScheme-Text" style="fill-opacity:1;stroke:none;fill:currentColor" fill="currentColor"/>
</svg>
