<?xml version='1.0' encoding='ASCII'?>
<svg xmlns="http://www.w3.org/2000/svg" width="16" height="16" viewBox="-3 -3 22 22">
<defs><style id="current-color-scheme" type="text/css">.ColorScheme-Contrast{color:#dedede; fill:currentColor;}</style></defs><path d="M4 0h1v16H4z" class="ColorScheme-Contrast" style="opacity:1;fill-rule:evenodd;stroke-linecap:round;stroke-linejoin:round;stop-fill-opacity:1;fill:currentColor" fill="currentColor"/>
<path d="M4 15h8v1H4zM8 0v1h2c.554 0 1 .446 1 1v2h1V2c0-1.108-.892-2-2-2z" style="opacity:1;fill-opacity:1;fill-rule:evenodd;stroke-linecap:round;stroke-linejoin:round;stop-fill:currentColor" class="ColorScheme-Contrast" fill="currentColor"/>
<rect width="4" height="1" x="4" rx="0" ry="0" style="opacity:1;fill-opacity:1;fill-rule:evenodd;stroke-linecap:round;stroke-linejoin:round;stop-fill:currentColor" class="ColorScheme-Contrast" fill="currentColor"/>
<path d="M11 4h1v12h-1zM5 2h2v1H5zm0 2h1v1H5zm0 2h1v1H5zm0 2h2v1H5zm0 2h1v1H5zm0 2h1v1H5z" style="opacity:1;fill-opacity:1;fill-rule:evenodd;stroke-linecap:round;stroke-linejoin:round;stop-fill:currentColor" class="ColorScheme-Contrast" fill="currentColor"/>
</svg>
