<?xml version='1.0' encoding='ASCII'?>
<svg xmlns="http://www.w3.org/2000/svg" viewBox="0 0 22 22">
<defs><style id="current-color-scheme" type="text/css">.ColorScheme-Text{color:#fcfcfc; fill:currentColor;}</style></defs><path d="M2 3v2h2V3zm9 0a9 8 0 0 0-9 8 9 8 0 0 0 9 8 9 8 0 0 0 9-8 9 8 0 0 0-9-8m7 0v2h2V3zm-7 1a8 7 0 0 1 8 7 8 7 0 0 1-8 7 8 7 0 0 1-8-7 8 7 0 0 1 8-7M2 17v2h2v-2zm16 0v2h2v-2z" class="ColorScheme-Text" style="fill-opacity:1;stroke:none;fill:currentColor" fill="currentColor"/>
</svg>
