<?xml version='1.0' encoding='ASCII'?>
<svg xmlns="http://www.w3.org/2000/svg" width="16" height="16" viewBox="-3 -3 22 22">
<defs><style id="current-color-scheme" type="text/css">.ColorScheme-Text{color:#fcfcfc; fill:currentColor;}</style></defs><path fill="currentColor" d="m.13 2 1.038 1.555L3 6.303V13c0 1.108.892 2 2 2h6c1.108 0 2-.892 2-2v-2a3 3 0 0 0 3-3 3 3 0 0 0-3-3V2zM2 3h10v10c0 .554-.446 1-1 1H5c-.554 0-1-.446-1-1V6zm11 3a2 2 0 0 1 2 2 2 2 0 0 1-2 2z" class="ColorScheme-Text" style="fill:currentColor"/>
</svg>
