<?xml version='1.0' encoding='ASCII'?>
<svg xmlns="http://www.w3.org/2000/svg" viewBox="0 0 22 22">
<defs><style id="current-color-scheme" type="text/css">.ColorScheme-Text{color:#fcfcfc; fill:currentColor;}</style></defs><path d="M3 3v3h3V3zm13 0v3h3V3zM4 4h1v1H4zm13 0h1v1h-1zM7 5v1h2V5zm3 0v1h2V5zm3 0v1h2V5zM5 7v2h1V7zm11 0v2h1V7zM5 10v2h1v-2zm11 0v2h1v-2zM5 13v2h1v-2zm11 0v2h1v-2zM3 16v3h3v-3zm4 0v1h2v-1zm3 0v1h2v-1zm3 0v1h2v-1zm3 0v3h3v-3zM4 17h1v1H4zm13 0h1v1h-1z" class="ColorScheme-Text" style="fill-opacity:1;stroke:none;fill:currentColor" fill="currentColor"/>
</svg>
