<?xml version='1.0' encoding='ASCII'?>
<svg xmlns="http://www.w3.org/2000/svg" width="16" height="16" viewBox="-3 -3 22 22">
<defs><style id="current-color-scheme" type="text/css">.ColorScheme-Text{color:#fcfcfc; fill:currentColor;}</style></defs><path d="M410 528.37v1h11v6.992h1v-7.992h-11.5zm0 6.992v1h7v1h1v-2h-7.5z" class="ColorScheme-Text" style="opacity:1;fill-opacity:1;fill:currentColor" transform="translate(-408 -527.362)" fill="currentColor"/>
<path d="M412 530.362h3v4h-3zm-1 1h1v1h-1zm0 2h1v1h-1z" style="opacity:.5;fill-opacity:1;fill:currentColor" transform="translate(-408 -527.362)" class="ColorScheme-Text" fill="currentColor"/>
<path d="M418 530.362h2v4h-2Zm-1 2h1v1h-1zm0-2h1v1h-1z" style="opacity:1;fill-opacity:1;fill:currentColor" transform="translate(-408 -527.362)" class="ColorScheme-Text" fill="currentColor"/>
<path d="M410 532.362h1v1h-1zm0-2h1v1h-1z" style="opacity:.5;fill-opacity:1;fill:currentColor" transform="translate(-408 -527.362)" class="ColorScheme-Text" fill="currentColor"/>
<path d="M416-534.362h1v1h-1zm0 2h1v1h-1zm-1 1h1v1h-1zm0-2h1v1h-1z" style="opacity:1;fill-opacity:1;fill:currentColor" transform="matrix(1 0 0 -1 -408 -527.362)" class="ColorScheme-Text" fill="currentColor"/>
<path d="M2 12h2v1H2zm3 0h2v1H5zm4 0h5v1H9z" style="fill-rule:evenodd;stroke:none;stroke-linecap:square;stop-fill:currentColor" class="ColorScheme-Text" fill="currentColor"/>
<path d="m12.172 9.672-.707.707 2.12 2.121-2.12 2.121.707.707 2.121-2.121L15 12.5l-.707-.707Z" style="fill-rule:evenodd;stroke:none;stroke-linecap:square;stop-fill:currentColor" class="ColorScheme-Text" fill="currentColor"/>
</svg>
