<svg xmlns="http://www.w3.org/2000/svg" width="16" height="16" viewBox="-3 -3 22 22">
<path fill="#dedede" fill-rule="evenodd" d="M2 1c-.554 0-1 .446-1 1v4c0 .554.446 1 1 1h4c.554 0 1-.446 1-1V2c0-.554-.446-1-1-1zm0 1h4v4H2z" style="paint-order:stroke fill markers"/>
<path fill="#dedede" fill-rule="evenodd" d="M10 1c-.554 0-1 .446-1 1v4c0 .554.446 1 1 1h4c.554 0 1-.446 1-1V2c0-.554-.446-1-1-1zm0 1h4v4h-4zM2 9c-.554 0-1 .446-1 1v4c0 .554.446 1 1 1h4c.554 0 1-.446 1-1v-4c0-.554-.446-1-1-1zm0 1h4v4H2z" opacity=".5" style="paint-order:stroke fill markers"/>
<path fill="#dedede" fill-rule="evenodd" d="M10 9c-.554 0-1 .446-1 1v4c0 .554.446 1 1 1h4c.554 0 1-.446 1-1v-4c0-.554-.446-1-1-1zm0 1h4v4h-4z" style="paint-order:stroke fill markers"/>
</svg>
