<?xml version='1.0' encoding='ASCII'?>
<svg xmlns="http://www.w3.org/2000/svg" viewBox="0 0 22 22">
<defs><style id="current-color-scheme" type="text/css">.ColorScheme-Text{color:#fcfcfc; fill:currentColor;}</style></defs><path d="M14 3c-1.662 0-3 1.338-3 3s1.338 3 3 3 3-1.338 3-3-1.338-3-3-3M8 6C6.338 6 5 7.338 5 9s1.338 3 3 3 3-1.338 3-3-1.338-3-3-3m6 4c-.646 0-1.256.134-1.818.361l.455.914c.428-.16.877-.275 1.363-.275 2.216 0 4 1.784 4 4h-3.5l.5 1h4v-1c0-2.77-2.23-5-5-5m-6 3c-2.77 0-5 2.23-5 5v1h10v-1c0-2.77-2.23-5-5-5m0 1c2.216 0 4 1.784 4 4H4c0-2.216 1.784-4 4-4" class="ColorScheme-Text" style="fill-opacity:1;stroke:none;fill:currentColor" fill="currentColor"/>
</svg>
