<?xml version='1.0' encoding='ASCII'?>
<svg xmlns="http://www.w3.org/2000/svg" viewBox="0 0 22 22">
<defs><style id="current-color-scheme" type="text/css">.ColorScheme-Contrast{color:#dedede; fill:currentColor;}</style></defs><g fill="currentColor" class="ColorScheme-Contrast" style="fill:currentColor">
<path d="M10 4h1v5h-1zm0 10h1v5h-1z" class="ColorScheme-Contrast" fill="currentColor" style="fill:currentColor"/>
<path d="M10.5 8A3.5 3.5 0 0 0 7 11.5a3.5 3.5 0 0 0 3.5 3.5 3.5 3.5 0 0 0 3.5-3.5A3.5 3.5 0 0 0 10.5 8m0 1a2.5 2.5 0 0 1 2.5 2.5 2.5 2.5 0 0 1-2.5 2.5A2.5 2.5 0 0 1 8 11.5 2.5 2.5 0 0 1 10.5 9" class="ColorScheme-Contrast" fill="currentColor" style="fill:currentColor"/>
</g>
</svg>
