<?xml version='1.0' encoding='ASCII'?>
<svg xmlns="http://www.w3.org/2000/svg" viewBox="0 0 22 22">
<defs><style id="current-color-scheme" type="text/css">.ColorScheme-Text{color:#fcfcfc; fill:currentColor;}</style></defs><g fill="currentColor" class="ColorScheme-Text" style="fill:currentColor">
<path d="M5.5 14A2.5 2.5 0 0 0 3 16.5 2.5 2.5 0 0 0 5.5 19 2.5 2.5 0 0 0 8 16.5 2.5 2.5 0 0 0 5.5 14m0 1A1.5 1.5 0 0 1 7 16.5 1.5 1.5 0 0 1 5.5 18 1.5 1.5 0 0 1 4 16.5 1.5 1.5 0 0 1 5.5 15m10-1a2.5 2.5 0 0 0-2.5 2.5 2.5 2.5 0 0 0 2.5 2.5 2.5 2.5 0 0 0 2.5-2.5 2.5 2.5 0 0 0-2.5-2.5m0 1a1.5 1.5 0 0 1 1.5 1.5 1.5 1.5 0 0 1-1.5 1.5 1.5 1.5 0 0 1-1.5-1.5 1.5 1.5 0 0 1 1.5-1.5m-5-12A2.5 2.5 0 0 0 8 5.5 2.5 2.5 0 0 0 10.5 8 2.5 2.5 0 0 0 13 5.5 2.5 2.5 0 0 0 10.5 3m0 1A1.5 1.5 0 0 1 12 5.5 1.5 1.5 0 0 1 10.5 7 1.5 1.5 0 0 1 9 5.5 1.5 1.5 0 0 1 10.5 4" class="ColorScheme-Text" fill="currentColor" style="fill:currentColor"/>
<path d="M10 7v3H6.951A2 2 0 0 0 5 12v3h1v-3a1 1 0 0 1 1-1h7a1 1 0 0 1 1 1v3h1v-3a2 2 0 0 0-1.951-2H11V7z" class="ColorScheme-Text" fill="currentColor" style="fill:currentColor"/>
</g>
</svg>
