<svg xmlns="http://www.w3.org/2000/svg" id="svg13" version="1.1" viewBox="0 0 22 22">
<style id="current-color-scheme" type="text/css">
.ColorScheme-Text{color:#dedede}.ColorScheme-Highlight{color:#3daee9}
</style>
<path id="path3" fill="currentColor" stroke-linecap="square" d="M3 10v9h7v-9H9v4H4v-4zm1 6h5v1H4z" class="ColorScheme-Text"/>
<path id="path5" fill="currentColor" stroke-linecap="square" d="M4 11h5v2H4z" class="ColorScheme-Highlight"/>
<path id="path7" fill="currentColor" d="m12.5 11.793-.707.707.353.354 3.354 3.353 3.354-3.353.353-.354-.707-.707-.354.353-2.646 2.647-2.646-2.647z" class="ColorScheme-Text"/>
<path id="path11" fill="currentColor" d="M7.951 3A2 2 0 0 0 6 5v5h1V5a1 1 0 0 1 1-1h6a1 1 0 0 1 1 1v10h1V5a2 2 0 0 0-1.951-2z" class="ColorScheme-Text"/>
</svg>
