<?xml version='1.0' encoding='ASCII'?>
<svg xmlns="http://www.w3.org/2000/svg" viewBox="0 0 22 22">
<defs><style id="current-color-scheme" type="text/css">.ColorScheme-Contrast{color:#dedede; fill:currentColor;}</style></defs><path fill="currentColor" d="M10.998 5.04c-3.77.004-7.07 2.366-8.008 5.73a1.042.96 0 0 0 0 .478c.946 3.356 4.246 5.71 8.01 5.713a1.042.96 0 0 0 .002 0c3.77-.005 7.07-2.367 8.008-5.73a1.042.96 0 0 0 0-.48c-.946-3.357-4.246-5.71-8.01-5.712a1.042.96 0 0 0-.002 0M11 6c3.295.002 6.172 2.054 7 4.992-.82 2.945-3.7 5.004-7 5.008-3.295-.002-6.172-2.054-7-4.992C4.82 8.063 7.7 6.004 11 6m0 2a3 3 0 0 0-3 3 3 3 0 0 0 3 3 3 3 0 0 0 3-3 3 3 0 0 0-3-3m-.049 1H11a2 2 0 0 1 2 2 2 2 0 0 1-2 2 2 2 0 0 1-2-2 2 2 0 0 1 1.951-2" class="ColorScheme-Contrast" opacity=".35" style="fill:currentColor"/>
<rect width="1" height="22" x="3.093" y="3.776" fill="currentColor" class="ColorScheme-Contrast" rx="0" ry="0" transform="rotate(-30)" style="fill:currentColor"/>
</svg>
