<?xml version='1.0' encoding='ASCII'?>
<svg xmlns="http://www.w3.org/2000/svg" viewBox="0 0 22 22">
<defs><style id="current-color-scheme" type="text/css">.ColorScheme-Contrast{color:#dedede; fill:currentColor;}</style></defs><g fill="currentColor" class="ColorScheme-Contrast" style="fill:currentColor">
<rect width="17" height="1" x="2" y="11" ry=".5" class="ColorScheme-Contrast" fill="currentColor" style="fill:currentColor"/>
<path d="M3 4c-.554 0-1 .446-1 1v3c0 .554.446 1 1 1h3c.554 0 1-.446 1-1V5c0-.554-.446-1-1-1zm0 1h3v3H3zm6-1c-.554 0-1 .446-1 1v3c0 .554.446 1 1 1h3c.554 0 1-.446 1-1V5c0-.554-.446-1-1-1zm0 1h3v3H9zm6-1c-.554 0-1 .446-1 1v3c0 .554.446 1 1 1h3c.554 0 1-.446 1-1V5c0-.554-.446-1-1-1zm0 1h3v3h-3zM3 14c-.554 0-1 .446-1 1v3c0 .554.446 1 1 1h3c.554 0 1-.446 1-1v-3c0-.554-.446-1-1-1zm0 1h3v3H3zm6-1c-.554 0-1 .446-1 1v3c0 .554.446 1 1 1h3c.554 0 1-.446 1-1v-3c0-.554-.446-1-1-1zm0 1h3v3H9zm6-1c-.554 0-1 .446-1 1v3c0 .554.446 1 1 1h3c.554 0 1-.446 1-1v-3c0-.554-.446-1-1-1zm0 1h3v3h-3z" class="ColorScheme-Contrast" fill="currentColor" style="fill:currentColor"/>
</g>
</svg>
