<?xml version='1.0' encoding='ASCII'?>
<svg xmlns="http://www.w3.org/2000/svg" viewBox="0 0 22 22">
<defs><style id="current-color-scheme" type="text/css">.ColorScheme-Text{color:#fcfcfc; fill:currentColor;}</style></defs><path d="M11 2a3.97 3.97 0 0 0-2.62 1H3v16h16V3h-5.38A3.97 3.97 0 0 0 11 2m0 1a3 3 0 1 1 0 6 3 3 0 0 1 0-6M4 4h3.555A3.96 3.96 0 0 0 7 6c0 1.202.542 2.267 1.38 3H6v1h10V9h-2.38A3.97 3.97 0 0 0 15 6a3.96 3.96 0 0 0-.555-2H18v12H4z" class="ColorScheme-Text" style="fill-opacity:1;stroke:none;fill:currentColor" fill="currentColor"/>
</svg>
