<svg xmlns="http://www.w3.org/2000/svg" viewBox="0 0 22 22">
<defs>
<style id="current-color-scheme" type="text/css">
.ColorScheme-Text{color:#dedede}
</style>
</defs>
<path fill="currentColor" d="M7 9v2h2V9zm3 1v1h5v-1zm-3 2v1h8v-1zm0 2v1h8v-1z" class="ColorScheme-Text"/>
<path fill="currentColor" d="M6 3C4.338 3 3 4.338 3 6v10c0 1.662 1.338 3 3 3h10c1.662 0 3-1.338 3-3V6c0-1.662-1.338-3-3-3zm0 3h10c1.108 0 2 .892 2 2v8c0 1.108-.892 2-2 2H6c-1.108 0-2-.892-2-2V8c0-1.108.892-2 2-2" class="ColorScheme-Text"/>
</svg>
