<svg xmlns="http://www.w3.org/2000/svg" viewBox="0 0 22 22">
<defs id="defs3051">
<style id="current-color-scheme" type="text/css">
.ColorScheme-Text{color:#dedede}
</style>
</defs>
<path d="M3 3v16h11v-1H4V7h14v5h1V3zm11.625 1L16 4.813 17.375 4l.625.813-1.687 1L16 6l-.312-.187-1.688-1zM7 8a2 2 0 1 0 0 4 2 2 0 0 0 0-4m0 1a1 1 0 1 1 0 2 1 1 0 0 1 0-2m4 1v1h6v-1zm6 2-3 4.084L16 16v3l3-4h-2zM5 13v4h4v-4zm1 1h2v2H6zm5 1v1h2v-1z" class="ColorScheme-Text" style="fill:currentColor;fill-opacity:1;stroke:none"/>
</svg>
