<svg xmlns="http://www.w3.org/2000/svg" viewBox="0 0 22 22">
<defs>
<style id="current-color-scheme" type="text/css">
.ColorScheme-Text{color:#dedede}.ColorScheme-NegativeText{color:#da4453}
</style>
</defs>
<path fill="currentColor" d="M13.15 9.39 10.002 13l-1.526-1.553-.662.675 2.227 2.268 3.773-4.322z" class="ColorScheme-Text"/>
<path fill="currentColor" d="M16.5 13a3.5 3.5 0 0 0-3.5 3.5 3.5 3.5 0 0 0 3.5 3.5 3.5 3.5 0 0 0 3.5-3.5 3.5 3.5 0 0 0-3.5-3.5m-.5 1h1v3h-1zm0 4h1v1h-1z" class="ColorScheme-NegativeText"/>
<path fill="currentColor" d="M5 3C3.338 3 2 4.338 2 6v10c0 1.662 1.338 3 3 3h7v-1H5c-1.108 0-2-.892-2-2V8c0-1.108.892-2 2-2h11c1.108 0 2 .892 2 2v4h1V6c0-1.662-1.338-3-3-3z" class="ColorScheme-Text"/>
</svg>
