<?xml version='1.0' encoding='ASCII'?>
<svg xmlns="http://www.w3.org/2000/svg" viewBox="0 0 22 22">
<defs><style id="current-color-scheme" type="text/css">.ColorScheme-Contrast{color:#dedede; fill:currentColor;}</style></defs><path d="M3 3v16h7v-1H4V7h14v5h1V3h-2v2h-2V3h-3v2h-2V3H7v2H5V3zm2 5v1h6V8zm0 3v1h6v-1zm6 2v6h8v-6zm1 1h6v1h-1v2h1v1h-6v-1h1v-2h-1zm3 1c-.554 0-1 .446-1 1s.446 1 1 1 1-.446 1-1-.446-1-1-1" class="ColorScheme-Contrast" style="fill-opacity:1;stroke:none;fill:currentColor" fill="currentColor"/>
<path d="M12 8v1h5V8z" style="fill-opacity:1;stroke:none;fill:currentColor" class="ColorScheme-Contrast" fill="currentColor"/>
</svg>
