<?xml version='1.0' encoding='ASCII'?>
<svg xmlns="http://www.w3.org/2000/svg" width="16" height="16" viewBox="-3 -3 22 22">
<defs><style id="current-color-scheme" type="text/css">.ColorScheme-Contrast{color:#dedede; fill:currentColor;}</style></defs><path d="M5 2 4 6h8l-1-4-3 1ZM3 7 2 8h12l-1-1Z" class="ColorScheme-Contrast" style="fill-opacity:1;stroke:none;fill:currentColor" fill="currentColor"/>
<path d="M11 15.5h6V17h-6z" class="ColorScheme-Contrast" style="fill-opacity:1;stroke:none;fill:currentColor" transform="translate(-1.333 .667)scale(.66667)" fill="currentColor"/>
<path d="M3.5 10A2.5 2.5 0 0 0 1 12.5 2.5 2.5 0 0 0 3.5 15 2.5 2.5 0 0 0 6 12.5 2.5 2.5 0 0 0 3.5 10m0 1A1.5 1.5 0 0 1 5 12.5 1.5 1.5 0 0 1 3.5 14 1.5 1.5 0 0 1 2 12.5 1.5 1.5 0 0 1 3.5 11" class="ColorScheme-Contrast" style="fill-opacity:1;stroke:none;fill:currentColor" transform="translate(1 -1)" fill="currentColor"/>
<path d="M15.75 15A3.75 3.75 0 0 0 12 18.75a3.75 3.75 0 0 0 3.75 3.75 3.75 3.75 0 0 0 3.75-3.75A3.75 3.75 0 0 0 15.75 15m0 1.5A2.25 2.25 0 0 1 18 18.75 2.25 2.25 0 0 1 15.75 21a2.25 2.25 0 0 1-2.25-2.25 2.25 2.25 0 0 1 2.25-2.25" class="ColorScheme-Contrast" style="fill-opacity:1;stroke:none;fill:currentColor" transform="translate(1 -1)scale(.66667)" fill="currentColor"/>
</svg>
