<?xml version='1.0' encoding='ASCII'?>
<svg xmlns="http://www.w3.org/2000/svg" width="16" height="16" viewBox="-3 -3 22 22">
<defs><style id="current-color-scheme" type="text/css">.ColorScheme-Text{color:#fcfcfc; fill:currentColor;}</style></defs><g fill="currentColor" class="ColorScheme-Text" style="fill:currentColor">
<style id="current-color-scheme" type="text/css" class="ColorScheme-Text" fill="currentColor" style="fill:currentColor">
.ColorScheme-Text{color:#fcfcfc}
</style>
<path d="M3.189 6.996h.824v-4.48h-.496l-1.692.863.308.586 1.056-.477z" aria-label="1" class="ColorScheme-Text" style="fill:currentColor" fill="currentColor"/>
<path d="M2.012 12.983H5.01v-.72H3.215c1.165-1.024 1.648-1.751 1.648-2.485 0-.81-.599-1.325-1.513-1.325-.56 0-1.074.186-1.46.52l.218.6c.354-.265.74-.393 1.075-.393.508 0 .824.29.824.727 0 .598-.618 1.274-1.995 2.503z" aria-label="2" class="ColorScheme-Text" fill="currentColor" style="fill:currentColor"/>
<rect width="8" height="1" x="6" y="4" rx="0" ry="0" class="ColorScheme-Text" fill="currentColor" style="fill:currentColor"/>
<rect width="8" height="1" x="6" y="10" rx="0" ry="0" class="ColorScheme-Text" fill="currentColor" style="fill:currentColor"/>
</g>
</svg>
