<?xml version='1.0' encoding='ASCII'?>
<svg xmlns="http://www.w3.org/2000/svg" viewBox="0 0 22 22">
<defs><style id="current-color-scheme" type="text/css">.ColorScheme-Contrast{color:#dedede; fill:currentColor;}</style></defs><path d="M3 3v1h1V3zm5 0v1h1V3zm5 0v1h1V3zm5 0v1h1V3zM3 6v1h1V6zm5 0v1h1V6zm5 0v1h1V6zm5 0v1h1V6zM3 9v1h1V9zm5 0v1h1V9zm5 0v1h1V9zm5 0v1h1V9zM3 12v1h1v-1zm5 0v1h1v-1zm5 0v1h1v-1zm5 0v1h1v-1zM3 15v1h1v-1zm5 0v1h1v-1zm5 0v1h1v-1zm5 0v1h1v-1zM3 18v1h1v-1zm5 0v1h1v-1zm5 0v1h1v-1zm5 0v1h1v-1z" class="ColorScheme-Contrast" style="fill-opacity:1;stroke:none;fill:currentColor" fill="currentColor"/>
</svg>
