<?xml version='1.0' encoding='ASCII'?>
<svg xmlns="http://www.w3.org/2000/svg" viewBox="0 0 22 22">
<defs><style id="current-color-scheme" type="text/css">.ColorScheme-Text{color:#fcfcfc; fill:currentColor;}</style></defs><path fill="currentColor" d="M5 3c-1.108 0-2 .892-2 2v3c0 1.108.892 2 2 2h3c1.108 0 2-.892 2-2V5c0-1.108-.892-2-2-2zm0 1h3c.554 0 1 .446 1 1v3c0 .554-.446 1-1 1H5c-.554 0-1-.446-1-1V5c0-.554.446-1 1-1m9-1c-1.108 0-2 .892-2 2v3c0 1.108.892 2 2 2h3c1.108 0 2-.892 2-2V5c0-1.108-.892-2-2-2zm0 1h3c.554 0 1 .446 1 1v3c0 .554-.446 1-1 1h-3c-.554 0-1-.446-1-1V5c0-.554.446-1 1-1m-9 8c-1.108 0-2 .892-2 2v3c0 1.108.892 2 2 2h3c1.108 0 2-.892 2-2v-3c0-1.108-.892-2-2-2zm0 1h3c.554 0 1 .446 1 1v3c0 .554-.446 1-1 1H5c-.554 0-1-.446-1-1v-3c0-.554.446-1 1-1m9-1c-1.108 0-2 .892-2 2v3c0 1.108.892 2 2 2h3c1.108 0 2-.892 2-2v-3c0-1.108-.892-2-2-2zm0 1h3c.554 0 1 .446 1 1v3c0 .554-.446 1-1 1h-3c-.554 0-1-.446-1-1v-3c0-.554.446-1 1-1" class="ColorScheme-Text" style="fill:currentColor"/>
</svg>
