<svg xmlns="http://www.w3.org/2000/svg" viewBox="0 0 22 22">
<defs>
<style id="current-color-scheme" type="text/css">
.ColorScheme-Contrast{color:#dedede}.ColorScheme-NegativeText{color:#da4453}
</style>
</defs>
<path fill="currentColor" d="m13.83 12.62-.707.707-2.121-2.121-2.122 2.12-.707-.706 2.122-2.121-2.122-2.122.707-.707 2.122 2.122 2.12-2.122.708.707-2.121 2.122z" class="ColorScheme-NegativeText"/>
<path fill="currentColor" d="M5 3C3.338 3 2 4.338 2 6v9c0 1.662 1.338 3 3 3h12c1.662 0 3-1.338 3-3V6c0-1.662-1.338-3-3-3zm0 1h12c1.108 0 2 .892 2 2v9c0 1.108-.892 2-2 2H5c-1.108 0-2-.892-2-2V6c0-1.108.892-2 2-2" class="ColorScheme-Contrast"/>
</svg>
