<svg xmlns="http://www.w3.org/2000/svg" viewBox="0 0 22 22">
<style id="current-color-scheme" type="text/css">
.ColorScheme-NegativeText{color:#da4453}.ColorScheme-Contrast{color:#dedede}
</style>
<path fill="currentColor" d="M3 6v10h10.879l-1-1H6v-1H5v-1H4V9h1V8h.879l-2-2zm5.121 0 1 1H16v1h1v1h1v4h-1v1h-.879l2 2H19V6zM11 8a3 3 0 0 0-.768.111l.903.903a1.99 1.99 0 0 1 1.851 1.851l.903.903A3 3 0 0 0 14 11a3 3 0 0 0-3-3m-2.889 2.232A3 3 0 0 0 8 11a3 3 0 0 0 3 3 3 3 0 0 0 .768-.111l-.903-.903a1.99 1.99 0 0 1-1.851-1.851z" class="ColorScheme-Contrast"/>
<path fill="currentColor" d="M3.707 3 3 3.707 18.293 19l.707-.707Z" class="ColorScheme-NegativeText"/>
</svg>
