<svg xmlns="http://www.w3.org/2000/svg" viewBox="0 0 22 22">
<style id="current-color-scheme" type="text/css">
.ColorScheme-Text{color:#dedede}
</style>
<path fill="currentColor" d="M3 3v6h6V3Zm7 0v1h1V3Zm1 1v1h-1v1h2V4Zm2-1v6h6V3ZM4 4h4v4H4Zm10 0h4v4h-4ZM5 5v2h2V5Zm10 0v2h2V5Zm-5 2v1h1V7Zm1 1v1h1V8Zm-7 2v1h1v-1zm1 1v1h2v-1zm2 0h2v-1H7Zm2 0v1h2v-2h-1v1zm2 1v1h-1v1h1v1h1v-3zm0 3h-1v1h1zm-7-4H3v1h1zm8-1v1h1v-1zm1 1v1h3v-1h-1v-1h-1v1zm4-1v2h1v-1h1v-1ZM3 13v6h6v-6zm10 0v4h1v1h1v-1h2v-1h1v-1h-1v-2zm5 2h1v-2h-1zm0 1v1h1v-1zm-3 2v1h2v-1ZM4 14h4v4H4Zm10 0h2v2h-2zm-9 1v2h2v-2zm5 2v1h1v-1zm2 1v1h1v-1zm6 0v1h1v-1z" class="ColorScheme-Text"/>
</svg>
