<svg xmlns="http://www.w3.org/2000/svg" viewBox="0 0 22 22">
<defs id="defs3051">
<style id="current-color-scheme" type="text/css">
.ColorScheme-Contrast{color:#dedede}.ColorScheme-Highlight{color:#3daee9}
</style>
</defs>
<path d="M3 3v16h11v-1H4V7h14v7h1V3h-2v3h-2V3H7v3H5V3zm2 5v3h1v-1h4v1h1V8h-1v1H6V8zm4 4v3h1v-1h4v1h1v-3h-1v1h-4v-1zm7 2v2h-2v1h2v2h1v-2h2v-1h-2v-2z" class="ColorScheme-Contrast" style="fill:currentColor;fill-opacity:1;stroke:none"/>
<path d="M433.714 532.79h1v11h-1z" class="ColorScheme-Highlight" style="fill:currentColor;fill-opacity:1;stroke:none" transform="translate(-421.714 -525.79)"/>
</svg>
