<svg xmlns="http://www.w3.org/2000/svg" viewBox="0 0 22 22">
<defs>
<style id="current-color-scheme" type="text/css">
.ColorScheme-Text{color:#dedede}
</style>
</defs>
<path fill="currentColor" d="M6 9v6h2V9zm3 2v4h2v-4zm3 2v2h2v-2z" class="ColorScheme-Text"/>
<path fill="currentColor" d="M5 3C3.338 3 2 4.338 2 6v10c0 1.662 1.338 3 3 3h11c1.662 0 3-1.338 3-3V6c0-1.662-1.338-3-3-3zm0 3h11c1.108 0 2 .892 2 2v8c0 1.108-.892 2-2 2H5c-1.108 0-2-.892-2-2V8c0-1.108.892-2 2-2" class="ColorScheme-Text"/>
</svg>
