<?xml version='1.0' encoding='ASCII'?>
<svg xmlns="http://www.w3.org/2000/svg" viewBox="0 0 22 22">
<defs><style id="current-color-scheme" type="text/css">.ColorScheme-Contrast{color:#dedede; fill:currentColor;}</style></defs><path d="M3 3v1h16V3zm0 3v1h9V6zm13 2v6.5a2.48 2.48 0 0 0-1.5-.5 2.495 2.495 0 0 0-2.5 2.5c0 1.385 1.115 2.5 2.5 2.5s2.5-1.115 2.5-2.5V10h2c0-1.108-.892-2-2-2zM3 9v1h11V9zm0 3v1h9v-1zm0 3v1h7v-1zm0 3v1h7v-1z" class="ColorScheme-Contrast" style="fill-opacity:1;stroke:none;fill:currentColor" fill="currentColor"/>
</svg>
