<svg xmlns="http://www.w3.org/2000/svg" viewBox="0 0 22 22">
<defs id="defs3051">
<style id="current-color-scheme" type="text/css">
.ColorScheme-Text{color:#dedede}
</style>
</defs>
<path d="M11 3c-1.442 0-2.79.383-3.955 1.045l.738.738.002-.002 2.78 2.778.706-.707-2.482-2.48A7 7 0 0 1 11 4c3.878 0 7 3.122 7 7a7 7 0 0 1-.783 3.217l.738.738A8 8 0 0 0 19 11c0-4.432-3.568-8-8-8M4.045 7.045A8 8 0 0 0 3 11c0 4.432 3.568 8 8 8 1.442 0 2.79-.383 3.955-1.045l-.684-.684.002-.001-2.828-2.829-.707.707 2.479 2.479A7 7 0 0 1 11 18c-3.878 0-7-3.122-7-7 0-1.162.286-2.254.783-3.217z" class="ColorScheme-Text" style="fill:currentColor;fill-opacity:1;stroke:none"/>
</svg>
