<?xml version='1.0' encoding='ASCII'?>
<svg xmlns="http://www.w3.org/2000/svg" viewBox="0 0 22 22">
<defs><style id="current-color-scheme" type="text/css">.ColorScheme-Contrast{color:#dedede; fill:currentColor;}</style></defs><path fill="currentColor" d="M6 3C4.338 3 3 4.338 3 6v1h.5a.499.499 0 1 1 0 1H3v6h.5a.499.499 0 1 1 0 1H3v1c0 1.662 1.338 3 3 3h10c1.662 0 3-1.338 3-3V6c0-1.662-1.338-3-3-3zm2 1h1v4H6V6c0-1.108.892-2 2-2m2 0h6c1.108 0 2 .892 2 2v2h-8zM6 9h3v4H6zm4 0h8v4h-8zm-4 5h3v4H8c-1.108 0-2-.892-2-2zm4 0h8v2c0 1.108-.892 2-2 2h-6z" class="ColorScheme-Contrast" style="fill:currentColor"/>
</svg>
