<svg xmlns="http://www.w3.org/2000/svg" viewBox="0 0 22 22">
<style id="current-color-scheme" type="text/css">
.ColorScheme-NegativeText{color:#da4453}.ColorScheme-Text{color:#dedede}
</style>
<path fill="currentColor" d="m5.121 3 1 1H16v1h1v1h1v2h1V3zM11 5a3 3 0 0 0-2.473 1.406l.707.707A2 2 0 0 1 10.95 6H11a2 2 0 0 1 2 2h1a3 3 0 0 0-3-3m-8 .121V8h1V6.121zM3 9v5h1v-2h1v-1h1v-1h1.879l-1-1zm8.121 0 1 1H16v1h1v1h1v2h1V9zm-1.715 2.527A3 3 0 0 0 8 14h1a2 2 0 0 1 1.121-1.758zM3 15v4h1v-1h1v-1h1v-1h7.879l-1-1zm14.121 0L19 16.879V15zM11 17a3 3 0 0 0-2.8 2h1.073a2 2 0 0 1 1.676-1H11a2 2 0 0 1 1.723 1h1.101A3 3 0 0 0 11 17" class="ColorScheme-Text"/>
<path fill="currentColor" d="M3.707 3 3 3.707 18.293 19l.707-.707Z" class="ColorScheme-NegativeText"/>
</svg>
