<svg xmlns="http://www.w3.org/2000/svg" viewBox="0 0 22 22">
<defs>
<style id="current-color-scheme" type="text/css">
.ColorScheme-Text{color:#dedede}
</style>
</defs>
<path fill="currentColor" d="M5 3C3.338 3 2 4.338 2 6v10c0 1.662 1.338 3 3 3h3v-1H5c-1.108 0-2-.892-2-2V8c0-1.108.892-2 2-2h11c1.108 0 2 .892 2 2h1V6c0-1.662-1.338-3-3-3z" class="ColorScheme-Text"/>
<path fill="currentColor" d="M15 9v3h2c1.108 0 2 .892 2 2v3c0 1.108-.892 2-2 2h-5c-1.108 0-2-.892-2-2v-1H9v1c0 1.662 1.338 3 3 3h5c1.662 0 3-1.338 3-3v-5c0-1.662-1.338-3-3-3z" class="ColorScheme-Text"/>
<path fill="currentColor" d="M10.5 8A3.5 3.5 0 0 0 7 11.5a3.5 3.5 0 0 0 3.5 3.5 3.5 3.5 0 0 0 3.5-3.5A3.5 3.5 0 0 0 10.5 8m1.99 1.379.707.707-3.535 3.535L7.541 11.5l.707-.707 1.414 1.414z" class="ColorScheme-Text"/>
</svg>
