<svg xmlns="http://www.w3.org/2000/svg" viewBox="0 0 22 22">
<style id="current-color-scheme" type="text/css">
.ColorScheme-Text{color:#fcfcfc}.ColorScheme-PositiveText{color:#27ae60}
</style>
<path fill="currentColor" d="M18.293 3.424 15.127 6.59 13 4.465l-.002.002-.002-.002L8.461 9H5v1h3.875l4.123-4.123L15.121 8l.006-.004.004.004L19 4.13z" class="ColorScheme-PositiveText"/>
<path fill="currentColor" d="M4 3v14H3v1h1v1h1v-1h14v-1h-.293l-3.576-3.576-.004.004-.006-.004-2.123 2.123-4.123-4.123H5V3zm1 9.424h3.46l4.536 4.535.002-.002.002.002 2.127-2.125 2.125 2.125.041.041H5z" class="ColorScheme-Text"/>
</svg>
