<svg xmlns="http://www.w3.org/2000/svg" viewBox="0 0 22 22">
<style id="current-color-scheme" type="text/css">
.ColorScheme-Text{color:#fcfcfc}.ColorScheme-PositiveText{color:#27ae60}
</style>
<path fill="currentColor" d="M3 15v4h1v-1h1v-1h1v-1h10v1h1v1h1v1h1v-4zm8 2a3 3 0 0 0-2.8 2h1.073a2 2 0 0 1 1.676-1H11a2 2 0 0 1 1.723 1h1.101A3 3 0 0 0 11 17" class="ColorScheme-PositiveText"/>
<path fill="currentColor" d="M3 3v5h1V6h1V5h1V4h10v1h1v1h1v2h1V3zm8 2a3 3 0 0 0-3 3h1a2 2 0 0 1 1.95-2H11a2 2 0 0 1 2 2h1a3 3 0 0 0-3-3M3 9v5h1v-2h1v-1h1v-1h10v1h1v1h1v2h1V9zm8 2a3 3 0 0 0-3 3h1a2 2 0 0 1 1.95-2H11a2 2 0 0 1 2 2h1a3 3 0 0 0-3-3" class="ColorScheme-Text"/>
</svg>
