<?xml version='1.0' encoding='ASCII'?>
<svg xmlns="http://www.w3.org/2000/svg" viewBox="0 0 22 22">
<defs><style id="current-color-scheme" type="text/css">.ColorScheme-Text{color:#fcfcfc; fill:currentColor;}</style></defs><path fill="currentColor" d="M5 3c-1.108 0-2 .892-2 2v12c0 1.108.892 2 2 2h3c1.108 0 2-.892 2-2V5c0-1.108-.892-2-2-2zm8 0c-1.108 0-2 .892-2 2v12c0 1.108.892 2 2 2h4c1.108 0 2-.892 2-2V5c0-1.108-.892-2-2-2zM5 4h3c.554 0 1 .446 1 1v2H4V5c0-.554.446-1 1-1m8 0h4c.554 0 1 .446 1 1v2h-6V5c0-.554.446-1 1-1M4 8h5v9c0 .554-.446 1-1 1H5c-.554 0-1-.446-1-1zm8 0h6v9c0 .554-.446 1-1 1h-4c-.554 0-1-.446-1-1z" class="ColorScheme-Text" style="fill:currentColor"/>
</svg>
