<?xml version='1.0' encoding='ASCII'?>
<svg xmlns="http://www.w3.org/2000/svg" viewBox="0 0 22 22">
<defs><style id="current-color-scheme" type="text/css">.ColorScheme-Text{color:#fcfcfc; fill:currentColor;}</style></defs><path d="M5 3v8H3v1h10v-1H6V4h12v8h1V3zm2 2v1h6V5zm0 2v1h4V7zm-4 6v6h10v-6zm13 1v2h-2v1h2v2h1v-2h2v-1h-2v-2zm-6 1h2v2h-2zm-6 2h1v1H4zm2 0h1v1H6zm2 0h1v1H8z" class="ColorScheme-Text" style="fill-opacity:1;stroke:none;fill:currentColor" fill="currentColor"/>
<path d="M14 5v1h3V5z" class="ColorScheme-Text" style="fill-opacity:1;stroke:none;fill:currentColor" fill="currentColor"/>
</svg>
