<svg xmlns="http://www.w3.org/2000/svg" viewBox="0 0 22 22">
<defs id="defs3051">
<style id="current-color-scheme" type="text/css">
.ColorScheme-Text{color:#fcfcfc}.ColorScheme-NegativeText{color:#da4453}
</style>
</defs>
<path d="M5 3v5h1V4h12v10h-4v1h4v3h-4v1h5V3zm2 3v1h8V6zM3 9v10h10V9zm1 1h8v8H4zm10 0v1h1v-1zm-9 5v1h4v-1zm5 0v1h1v-1z" class="ColorScheme-Text" style="fill:currentColor;fill-opacity:1;stroke:none"/>
<path d="M16 6v1h1V6zm-2 2v1h1V8zm2 0v1h1V8zm0 2v1h1v-1zM5 12v1h4v-1zm5 0v1h1v-1z" class="ColorScheme-NegativeText" style="fill:currentColor;fill-opacity:1;stroke:none"/>
</svg>
