<?xml version='1.0' encoding='ASCII'?>
<svg xmlns="http://www.w3.org/2000/svg" viewBox="0 0 22 22">
<defs><style id="current-color-scheme" type="text/css">.ColorScheme-Text{color:#fcfcfc; fill:currentColor;}</style></defs><path d="M3 5v8h1V6h14v5h1V5zm4.5 2C6.669 7 6 7.669 6 8.5V10H5v3h5v-3H9V8.5C9 7.669 8.331 7 7.5 7m0 1c.277 0 .5.223.5.5V10H7V8.5c0-.277.223-.5.5-.5M11 8v1h6V8zm0 2v1h5v-1zm0 2v1h4v-1zm-8 2v5h5v-5zm11 0v1h5v-1zm-9 1h2v1H5zm4 1v1h4v-1zm5 0v1h5v-1zM4 17h3v1H4zm10 1v1h5v-1z" class="ColorScheme-Text" style="fill-opacity:1;stroke:none;fill:currentColor" fill="currentColor"/>
</svg>
