<?xml version='1.0' encoding='ASCII'?>
<svg xmlns="http://www.w3.org/2000/svg" viewBox="0 0 22 22">
<defs><style id="current-color-scheme" type="text/css">.ColorScheme-Contrast{color:#dedede; fill:currentColor;}</style></defs><path d="M3 5v12h10v-1H4V6h14v5h1V5zm4.5 2C6.669 7 6 7.669 6 8.5V10H5v3h5v-3H9V8.5C9 7.669 8.331 7 7.5 7m0 1c.277 0 .5.223.5.5V10H7V8.5c0-.277.223-.5.5-.5M11 8v1h6V8zm0 2v1h5v-1zm0 2v1h4v-1zm6.5 0-2.793 2.793L14 15.5l.707.707L17.5 19l.707-.707L15.914 16H21v-1h-5.086l2.293-2.293z" class="ColorScheme-Contrast" style="fill-opacity:1;stroke:none;fill:currentColor" fill="currentColor"/>
</svg>
