<svg xmlns="http://www.w3.org/2000/svg" viewBox="0 0 22 22">
<defs id="defs3051">
<style id="current-color-scheme" type="text/css">
.ColorScheme-Text{color:#fcfcfc}
</style>
</defs>
<path d="M3 5v12h8v-1H4V6h14v4h1V5zm4.5 2C6.669 7 6 7.669 6 8.5V10H5v3h5v-3H9V8.5C9 7.669 8.331 7 7.5 7m0 1c.277 0 .5.223.5.5V10H7V8.5c0-.277.223-.5.5-.5M11 8v1h6V8zm0 2v1h5v-1zm0 2v1h4v-1z" class="ColorScheme-Text" style="fill:currentColor;fill-opacity:1;stroke:none"/>
<path d="m18 11-.996.994L17 11.99l-5 4.998.006.006L12 17l.008.008-.004.992H12v1h2l.006-.006.004-.004.01.002-.006-.006L15 18l4-3.996-.01.006.01-.012.998-.998.002-.002z" style="fill:#2ecc71;fill-opacity:1;stroke:none"/>
</svg>
