<?xml version='1.0' encoding='ASCII'?>
<svg xmlns="http://www.w3.org/2000/svg" viewBox="0 0 22 22">
<defs><style id="current-color-scheme" type="text/css">.ColorScheme-Contrast{color:#dedede; fill:currentColor;}</style></defs><path d="M3 3v16h6v-1H4V4h10v4h1V3zm2 2v4h4V5zm5 0v1h3V5zm0 2v1h3V7zm0 2v10h9V9zm1 1h7v4l-1-1-2 2-1-1-3 3zm-6 1v1h4v-1zm8 0c-.554 0-1 .446-1 1s.446 1 1 1 1-.446 1-1-.446-1-1-1m-8 2v1h4v-1zm0 2v1h4v-1z" class="ColorScheme-Contrast" style="fill-opacity:1;stroke:none;fill:currentColor" fill="currentColor"/>
</svg>
