<svg xmlns="http://www.w3.org/2000/svg" viewBox="0 0 22 22">
<style id="current-color-scheme" type="text/css">
.ColorScheme-Text{color:#dedede}.ColorScheme-NegativeText{color:#da4453}
</style>
<path d="M4 3v16h7v-1H5V4h12v8h1V3zm2 3v1h7V6zm0 2v1h7V8zm0 2v1h7v-1zm8.95 3A3 3 0 0 0 12 16a3 3 0 0 0 3 3 3 3 0 0 0 3-3 3 3 0 0 0-3-3zm0 1H15a2 2 0 0 1 2 2h-2v2a2 2 0 0 1-2-2 2 2 0 0 1 1.95-2" class="ColorScheme-Text" style="fill:currentColor;fill-opacity:1;stroke:none"/>
<path d="M14 6v1h2V6zm0 2v1h2V8zm0 2v1h2v-1z" class="ColorScheme-NegativeText" style="fill:currentColor;fill-opacity:1;stroke:none"/>
</svg>
