<svg xmlns="http://www.w3.org/2000/svg" viewBox="0 0 22 22">
<defs>
<style id="current-color-scheme" type="text/css">
.ColorScheme-Text{color:#dedede}
</style>
</defs>
<path fill="currentColor" d="M16.5 13a3.5 3.5 0 1 0 0 7 3.5 3.5 0 0 0 0-7m-.5 1h1v2h2v1h-2v2h-1v-2h-2v-1h2zm-9-4v5h1v-2h4v2h.264A4.5 4.5 0 0 1 13 13.678V10h-1v2H8v-2z" class="ColorScheme-Text"/>
<path fill="currentColor" d="M5 3C3.338 3 2 4.338 2 6v10c0 1.662 1.338 3 3 3h7v-1H5c-1.108 0-2-.892-2-2V8c0-1.108.892-2 2-2h11c1.108 0 2 .892 2 2v4h1V6c0-1.662-1.338-3-3-3z" class="ColorScheme-Text"/>
</svg>
