<?xml version='1.0' encoding='ASCII'?>
<svg xmlns="http://www.w3.org/2000/svg" viewBox="0 0 22 22">
<defs><style id="current-color-scheme" type="text/css">.ColorScheme-Contrast{color:#dedede; fill:currentColor;}</style></defs><path fill="currentColor" d="M6 10v5h1v-2h4v2h1v-5h-1v2H7v-2zm11 3-4 4v2h2l4-4zm-.31 1.69.591.591-2.969 3-.593-.593z" class="ColorScheme-Contrast" style="fill:currentColor"/>
<path fill="currentColor" d="M5 3C3.338 3 2 4.338 2 6v10c0 1.662 1.338 3 3 3h7v-1H5c-1.108 0-2-.892-2-2V8c0-1.108.892-2 2-2h11c1.108 0 2 .892 2 2v4h1V6c0-1.662-1.338-3-3-3z" class="ColorScheme-Contrast" style="fill:currentColor"/>
</svg>
