<?xml version='1.0' encoding='ASCII'?>
<svg xmlns="http://www.w3.org/2000/svg" viewBox="0 0 22 22">
<defs><style id="current-color-scheme" type="text/css">.ColorScheme-Text{color:#fcfcfc; fill:currentColor;}</style></defs><path fill="currentColor" d="M5 3C3.338 3 2 4.338 2 6v10c0 1.662 1.338 3 3 3h3v-1H5c-1.108 0-2-.892-2-2V8c0-1.108.892-2 2-2h11c1.108 0 2 .892 2 2h1V6c0-1.662-1.338-3-3-3z" class="ColorScheme-Text" style="fill:currentColor"/>
<path fill="currentColor" d="M12 9c-1.662 0-3 1.338-3 3v5c0 1.662 1.338 3 3 3h5c1.662 0 3-1.338 3-3v-5c0-1.662-1.338-3-3-3zm0 3h5c1.108 0 2 .892 2 2v3c0 1.108-.892 2-2 2h-5c-1.108 0-2-.892-2-2v-3c0-1.108.892-2 2-2" class="ColorScheme-Text" style="fill:currentColor"/>
</svg>
