<?xml version='1.0' encoding='ASCII'?>
<svg xmlns="http://www.w3.org/2000/svg" viewBox="0 0 22 22">
<defs><style id="current-color-scheme" type="text/css">.ColorScheme-Contrast{color:#dedede; fill:currentColor;}</style></defs><path fill="currentColor" d="M16.5 13a3.5 3.5 0 1 0 0 7 3.5 3.5 0 0 0 0-7m-.5 1h1v2h2v1h-2v2h-1v-2h-2v-1h2z" class="ColorScheme-Contrast" style="fill:currentColor"/>
<path fill="currentColor" d="M6 3C4.338 3 3 4.338 3 6v10c0 1.662 1.338 3 3 3h6v-1H6c-1.108 0-2-.892-2-2V8c0-1.108.892-2 2-2h10c1.108 0 2 .892 2 2v4h1V6c0-1.662-1.338-3-3-3z" class="ColorScheme-Contrast" style="fill:currentColor"/>
</svg>
