<?xml version='1.0' encoding='ASCII'?>
<svg xmlns="http://www.w3.org/2000/svg" width="16" height="16" viewBox="-3 -3 22 22">
<defs><style id="current-color-scheme" type="text/css">.ColorScheme-Contrast{color:#dedede; fill:currentColor;}</style></defs><path d="M3 2c-1.108 0-2 .892-2 2v6c0 1.108.892 2 2 2h6v3l3-3h1c1.108 0 2-.892 2-2V4c0-1.108-.892-2-2-2zm0 1h10c.554 0 1 .446 1 1v6c0 .554-.446 1-1 1H3c-.554 0-1-.446-1-1V4c0-.554.446-1 1-1" class="ColorScheme-Contrast" style="fill:currentColor" fill="currentColor"/>
<path fill="currentColor" d="M3 5h10v1H3zm0 3h7v1H3z" class="ColorScheme-Contrast" style="fill:currentColor"/>
</svg>
