<?xml version='1.0' encoding='ASCII'?>
<svg xmlns="http://www.w3.org/2000/svg" width="16" height="16" viewBox="-3 -3 22 22">
<defs><style id="current-color-scheme" type="text/css">.ColorScheme-Contrast{color:#dedede; fill:currentColor;}</style></defs><path fill="currentColor" d="M14.584 5.5a44 44 0 0 1-2.26 1.334Q11.142 7.478 10.002 8V6H2V5h8V3a43 43 0 0 1 2.324 1.18 50 50 0 0 1 2.26 1.32M13 14h-3v-3h3zm-1-1v-1h-1v1zm-3 1H6v-3h3zm-1-1v-1H7v1zm-3 1H2v-3h3zm-1-1v-1H3v1z" font-family="sans-serif" font-weight="400" overflow="visible" style="font-feature-settings:normal;font-variant-alternates:normal;font-variant-caps:normal;font-variant-ligatures:none;font-variant-numeric:normal;font-variant-position:normal;isolation:auto;mix-blend-mode:normal;shape-padding:0;text-decoration-text-decoration-line:none;text-decoration-style:solid;text-indent:0;text-transform:none;fill:currentColor" class="ColorScheme-Contrast"/>
</svg>
