<svg xmlns="http://www.w3.org/2000/svg" width="16" height="16" viewBox="-3 -3 22 22">
<path fill="#dedede" d="M1.416 5.5a44 44 0 0 0 2.26 1.334Q4.858 7.478 5.998 8V6H14V5H6V3a43 43 0 0 0-2.324 1.18 50 50 0 0 0-2.26 1.32M3 14h3v-3H3zm1-1v-1h1v1zm3 1h3v-3H7zm1-1v-1h1v1zm3 1h3v-3h-3zm1-1v-1h1v1z" color="#000" font-family="sans-serif" font-weight="400" overflow="visible" style="font-feature-settings:normal;font-variant-alternates:normal;font-variant-caps:normal;font-variant-ligatures:none;font-variant-numeric:normal;font-variant-position:normal;isolation:auto;mix-blend-mode:normal;shape-padding:0;text-decoration-color:#000;text-decoration-line:none;text-decoration-style:solid;text-indent:0;text-transform:none"/>
</svg>
