<?xml version='1.0' encoding='ASCII'?>
<svg xmlns="http://www.w3.org/2000/svg" width="16" height="16" viewBox="-3 -3 22 22">
<defs><style id="current-color-scheme" type="text/css">.ColorScheme-Contrast{color:#dedede; fill:currentColor;}</style></defs><path fill="currentColor" d="M3 1c-1.108 0-2 .892-2 2v10c0 1.108.892 2 2 2h10c1.108 0 2-.892 2-2V3c0-1.108-.892-2-2-2zm0 1h10c.554 0 1 .446 1 1v10c0 .554-.446 1-1 1H3c-.554 0-1-.446-1-1V3c0-.554.446-1 1-1" class="ColorScheme-Contrast" style="fill:currentColor"/>
<path fill="currentColor" fill-rule="evenodd" d="M8 4c-.334 0-.647.168-.832.445l-2 3A1 1 0 0 0 5 8v4h1V9h4v3h1V8a1 1 0 0 0-.168-.555l-2-3A1 1 0 0 0 8 4m0 1 2 3H6z" class="ColorScheme-Contrast" style="fill:currentColor"/>
</svg>
