<svg xmlns="http://www.w3.org/2000/svg" width="16" height="16" viewBox="-3 -3 22 22"><style type="text/css" id="current-color-scheme">.ColorScheme-Contrast { color:#dedede }</style><path style="fill:currentColor" class="ColorScheme-Contrast" d="M78 610.362h9v9h-9zm1 1v7h7v-7zm1 1h5v5h-5z" style="opacity:1;fill:#dedede;fill-opacity:1" transform="translate(-75 -607.362)"/><path d="M12.803 2.197a7.5 7.5 0 0 0-10.606 0 7.5 7.5 0 0 0 0 10.606 7.5 7.5 0 0 0 10.606 0 7.5 7.5 0 0 0 0-10.606m-.707.707a6.5 6.5 0 0 1 0 9.192 6.5 6.5 0 0 1-9.192 0 6.5 6.5 0 0 1 0-9.192 6.5 6.5 0 0 1 9.192 0" style="fill:currentColor" class="ColorScheme-Contrast""/><path d="M17.107-.5h6v1h-6z" style="fill:currentColor" class="ColorScheme-Contrast"" transform="rotate(45)"/></svg>