<?xml version='1.0' encoding='ASCII'?>
<svg xmlns="http://www.w3.org/2000/svg" width="16" height="16" viewBox="-3 -3 22 22"><defs><style id="current-color-scheme" type="text/css">.ColorScheme-Contrast{color:#dedede; fill:currentColor;}</style></defs><path style="fill:currentColor" class="ColorScheme-Contrast" d="M78 551.362h2v7h-1v-6h-1zm6 0h3v4h-2v2h2v1h-3v-4h2v-2h-2zm-3 3h1v1h-1zm0 3h1v1h-1z" style="opacity:1;fill:#dedede;fill-opacity:1" transform="translate(-75 -547.362)" fill="currentColor"/><path d="M12.803 2.197a7.5 7.5 0 0 0-10.606 0 7.5 7.5 0 0 0 0 10.606 7.5 7.5 0 0 0 10.606 0 7.5 7.5 0 0 0 0-10.606m-.707.707a6.5 6.5 0 0 1 0 9.192 6.5 6.5 0 0 1-9.192 0 6.5 6.5 0 0 1 0-9.192 6.5 6.5 0 0 1 9.192 0" style="fill:currentColor" class="ColorScheme-Contrast" fill="currentColor"/>"/&gt;<path d="M17.107-.5h6v1h-6z" style="fill:currentColor" class="ColorScheme-Contrast" fill="currentColor"/>" transform="rotate(45)"/&gt;</svg>
