<svg xmlns="http://www.w3.org/2000/svg" viewBox="0 0 22 22">
<defs>
<style id="current-color-scheme" type="text/css">
.ColorScheme-Text{color:#dedede}
</style>
</defs>
<path fill="currentColor" d="M5.828 12.67 3 15.498l2.828 2.83.707-.707-1.621-1.623H9.57v-1H4.914l1.621-1.62zM5 3c-1.108 0-2 .892-2 2h1c0-.554.446-1 1-1zm2 0v1c.554 0 1 .446 1 1h1c0-1.108-.892-2-2-2m5 0v1h5c.554 0 1 .446 1 1v12c0 .554-.446 1-1 1h-5v1h5c1.108 0 2-.892 2-2V5c0-1.108-.892-2-2-2zM3 7c0 1.108.892 2 2 2V8c-.554 0-1-.446-1-1zm5 0c0 .554-.446 1-1 1v1c1.108 0 2-.892 2-2z" class="ColorScheme-Text"/>
</svg>
