<?xml version="1.0" encoding="UTF-8" standalone="no"?>
<svg
   width="24"
   height="24"
   fill="none"
   version="1.1"
   id="svg8"
   sodipodi:docname="lutris.svg"
   inkscape:version="1.3.2 (091e20ef0f, 2023-11-25, custom)"
   inkscape:export-filename="../../../../../../../../../Imagens/lutris.pdf"
   inkscape:export-xdpi="96"
   inkscape:export-ydpi="96"
   xml:space="preserve"
   xmlns:inkscape="http://www.inkscape.org/namespaces/inkscape"
   xmlns:sodipodi="http://sodipodi.sourceforge.net/DTD/sodipodi-0.dtd"
   xmlns="http://www.w3.org/2000/svg"
   xmlns:svg="http://www.w3.org/2000/svg"><sodipodi:namedview
     id="namedview8"
     pagecolor="#ffffff"
     bordercolor="#000000"
     borderopacity="0.25"
     inkscape:showpageshadow="2"
     inkscape:pageopacity="0.0"
     inkscape:pagecheckerboard="0"
     inkscape:deskcolor="#d1d1d1"
     inkscape:zoom="17.338848"
     inkscape:cx="-29.7886"
     inkscape:cy="16.783122"
     inkscape:window-width="3440"
     inkscape:window-height="1366"
     inkscape:window-x="2560"
     inkscape:window-y="38"
     inkscape:window-maximized="1"
     inkscape:current-layer="svg8"><inkscape:page
       x="0"
       y="0"
       width="24"
       height="24"
       id="page9"
       margin="0"
       bleed="0" /></sodipodi:namedview><defs
     id="defs8"><radialGradient
       id="a"
       cx="0"
       cy="0"
       r="1"
       gradientTransform="matrix(0,22,-22,0,12,1)"
       gradientUnits="userSpaceOnUse"><stop
         stop-color="#FFE698"
         id="stop5" /><stop
         offset="1"
         stop-color="#FBBF00"
         id="stop6" /></radialGradient><linearGradient
       id="b"
       x1="12"
       x2="12"
       y1="1"
       y2="23"
       gradientUnits="userSpaceOnUse"><stop
         stop-color="#FFE698"
         id="stop7" /><stop
         offset="1"
         stop-color="#FBBF00"
         id="stop8" /></linearGradient><radialGradient
       id="a-6"
       cx="0"
       cy="0"
       r="1"
       gradientTransform="matrix(0,11,-11,0,18.000036,5.0000051)"
       gradientUnits="userSpaceOnUse"><stop
         stop-color="#F08C85"
         id="stop2"
         offset="0"
         style="stop-color:#8e695a;stop-opacity:1;" /><stop
         offset="1"
         stop-color="#E84F43"
         id="stop3"
         style="stop-color:#5e3c2e;stop-opacity:1;" /></radialGradient><linearGradient
       id="linearGradient4214"><stop
         id="stop4216"
         offset="0"
         style="stop-color:#e5dfdd;stop-opacity:1;" /><stop
         id="stop4218"
         offset="1"
         style="stop-color:#ffffff;stop-opacity:1;" /></linearGradient><radialGradient
       id="radialGradient9"
       cx="0"
       cy="0"
       r="1"
       gradientTransform="matrix(0,11,-11,0,12,1)"
       gradientUnits="userSpaceOnUse"><stop
         stop-color="#F08C85"
         id="stop8-5"
         offset="0"
         style="stop-color:#ffffff;stop-opacity:0.15865681;" /><stop
         offset="1"
         stop-color="#E84F43"
         id="stop9"
         style="stop-color:#ffffff;stop-opacity:0.39195681;" /></radialGradient><radialGradient
       fx="0"
       fy="0"
       cx="0"
       cy="0"
       r="1"
       gradientUnits="userSpaceOnUse"
       gradientTransform="matrix(0,8.25,-8.25,0,8.999955,0.749855)"
       spreadMethod="pad"
       id="radialGradient2"><stop
         style="stop-opacity:1;stop-color:#8e695a"
         offset="0"
         id="stop1" /><stop
         style="stop-opacity:1;stop-color:#5e3c2e"
         offset="1"
         id="stop2-9" /></radialGradient><radialGradient
       fx="31.360138"
       fy="12.70698"
       cx="31.360138"
       cy="12.70698"
       r="8.0087891"
       gradientUnits="userSpaceOnUse"
       gradientTransform="matrix(0.75,0,0,0.704731,-15.000045,0.650594)"
       spreadMethod="pad"
       id="radialGradient4"><stop
         style="stop-opacity:1;stop-color:#ffb700"
         offset="0"
         id="stop3-3" /><stop
         style="stop-opacity:1;stop-color:#ff8802"
         offset="1"
         id="stop4" /></radialGradient><linearGradient
       x1="369.23862"
       y1="-117.5489"
       x2="369.23862"
       y2="-183.11708"
       gradientUnits="userSpaceOnUse"
       gradientTransform="matrix(0.0778846,0,0,0.0786815,-19.78358,19.781046)"
       spreadMethod="pad"
       id="linearGradient6"><stop
         style="stop-opacity:1;stop-color:#e5dfdd"
         offset="0"
         id="stop5-7" /><stop
         style="stop-opacity:1;stop-color:#ffffff"
         offset="1"
         id="stop6-4" /></linearGradient><radialGradient
       fx="0"
       fy="0"
       cx="0"
       cy="0"
       r="1"
       gradientUnits="userSpaceOnUse"
       gradientTransform="matrix(-11.407373,10.566038,-9.67593,-10.446389,8.999955,0.749855)"
       spreadMethod="pad"
       id="radialGradient12"><stop
         style="stop-opacity:0.15864805;stop-color:#ffffff"
         offset="0"
         id="stop11-5" /><stop
         style="stop-opacity:0.3919585;stop-color:#ffffff"
         offset="1"
         id="stop12-2" /></radialGradient></defs><g
     id="g1"
     inkscape:groupmode="layer"
     inkscape:label="1"><path
       id="path2"
       d="m 7.195,0.836 c 0.09,0 0.176,-0.012 0.258,-0.035 1.078,-0.071 2.156,-0.067 3.231,0.008 0.976,0.078 1.921,0.289 2.836,0.636 1.519,0.625 2.558,1.711 3.121,3.254 0.316,0.93 0.507,1.887 0.566,2.867 0.078,1.231 0.051,2.469 -0.086,3.692 -0.101,0.859 -0.328,1.699 -0.672,2.492 -0.637,1.383 -1.672,2.336 -3.101,2.859 C 12.195,17 10.992,17.207 9.773,17.227 8.402,17.301 7.031,17.195 5.684,16.918 3.199,16.367 1.668,14.852 1.09,12.375 0.844,11.266 0.73,10.129 0.754,8.992 0.727,7.785 0.855,6.578 1.141,5.402 1.75,3.09 3.219,1.656 5.547,1.102 6.09,0.969 6.641,0.879 7.195,0.836 Z"
       transform="scale(1.3333333)"
       style="fill:url(#radialGradient2);fill-rule:evenodd;stroke:none" /><path
       id="path4"
       d="M 13.137,5.137 8.473,5.5 6.23,6.945 c 0.129,0.086 0.274,0.141 0.438,0.149 0.008,0 0.02,0 0.027,0 C 7.559,7.137 8.082,8.449 8.098,8.793 8.102,8.828 8.102,8.809 8.102,8.848 8.078,9.344 7.848,9.711 7.359,9.695 7.133,9.688 6.906,9.621 6.695,9.359 6.652,9.309 6.629,9.246 6.59,9.188 6.168,8.508 5.512,8.293 4.855,8.18 l -0.664,3.015 c 0.403,2.993 2.957,5.227 5.981,5.231 1.598,0 3.133,-0.637 4.266,-1.77 1.132,-1.129 1.769,-2.664 1.769,-4.265 -0.004,-2.176 -1.176,-4.184 -3.07,-5.254 z"
       transform="scale(1.3333333)"
       style="fill:url(#radialGradient4);stroke:none" /><path
       id="path5"
       d="M 13.016,4.512 12.648,4.996 8.398,5.461 6.145,6.883 c 0.144,0.121 0.324,0.199 0.523,0.211 0.008,0 0.02,0 0.027,0 C 6.844,7.102 6.98,7.148 7.109,7.219 7.16,7.188 7.207,7.156 7.258,7.129 7.773,6.828 8.867,6.488 10.383,6.711 c 0.769,0.113 1.398,0.273 2.371,0.574 1.129,0.352 1.754,0.836 2.621,0.934 C 15.52,8.234 15.668,8.23 15.812,8.203 15.34,6.684 14.34,5.387 13.016,4.512 Z m -8.2,3.66 -0.703,3.129 c 0,0 0.555,2.363 1.032,2.84 0.476,0.48 1.46,1.851 2.675,2.093 1.219,0.239 2.254,0.508 3.239,0.27 0.988,-0.242 1.644,-0.527 1.644,-0.527 l 0.414,-0.192 c 0,0 -0.105,0.086 -0.265,0.199 0.222,-0.14 0.433,-0.293 0.64,-0.453 -1.14,0.692 -2.527,1.039 -3.316,1.039 -2.926,0 -5.301,-2.3 -5.301,-5.144 0,-1.004 0.25,-1.985 0.758,-2.781 0.355,0.148 0.734,0.402 0.969,0.773 0.039,0.055 0.066,0.113 0.109,0.164 0.211,0.25 0.437,0.313 0.664,0.324 C 7.863,9.922 8.094,9.566 8.113,9.09 8.117,9.055 8.117,9.07 8.113,9.039 8.113,9.012 8.105,8.969 8.098,8.926 8.055,9.379 7.824,9.711 7.359,9.695 7.133,9.688 6.906,9.621 6.695,9.359 6.652,9.309 6.629,9.246 6.59,9.188 6.16,8.492 5.484,8.285 4.816,8.172 Z"
       style="fill:#000000;fill-opacity:0.156863;fill-rule:nonzero;stroke:none"
       transform="scale(1.3333333)" /><path
       id="path6"
       d="M 11.594,3.82 C 10.043,3.828 9.137,4.012 7.527,4.703 7.105,4.902 6.688,5.137 6.285,5.406 6.016,5.609 5.875,5.852 5.828,6.16 c -0.012,0.492 0.36,0.906 0.84,0.934 0.008,0 0.02,0 0.027,0 C 6.738,7.098 6.781,7.102 6.824,7.113 6.961,7.012 7.105,6.914 7.258,6.82 7.773,6.512 8.863,6.156 10.383,6.387 c 0.765,0.117 1.398,0.285 2.367,0.597 1.129,0.364 1.758,0.871 2.625,0.973 0.988,0.113 2.031,-0.824 1.262,-2.289 0,0 -0.141,0.141 -0.258,0.211 C 16.262,5.949 16.102,5.855 15.633,5.691 15.164,5.527 15.094,5.336 14.441,4.891 13.785,4.441 13.789,3.945 11.871,3.828 11.781,3.82 11.691,3.82 11.594,3.82 Z M 4.328,8.117 c -0.211,0 -0.414,0.047 -0.516,0.203 -0.246,0.621 -0.39,1.313 -0.394,2.086 -0.016,3.426 2.75,6.203 6.141,6.203 1.753,0 3.644,-0.644 4.761,-1.836 -1.203,1.02 -3.191,1.344 -4.125,1.344 -2.929,0 -5.32,-2.203 -5.32,-5.16 0,-1 0.262,-1.859 0.73,-2.578 C 5.316,8.262 5.008,8.199 4.703,8.152 4.59,8.133 4.457,8.117 4.328,8.117 Z"
       transform="scale(1.3333333)"
       style="fill:url(#linearGradient6);stroke:none" /><path
       id="path7-5"
       d="m 14.867,4.887 c 0,0.336 -0.273,0.609 -0.605,0.609 -0.336,0 -0.606,-0.273 -0.606,-0.609 0,-0.34 0.27,-0.614 0.606,-0.614 0.332,0 0.605,0.274 0.605,0.614 z"
       style="fill:#3f3f3f;fill-opacity:1;fill-rule:nonzero;stroke:none"
       transform="scale(1.3333333)" /><path
       id="path8"
       d="m 16.809,5.316 c 0,0.219 -0.141,0.395 -0.313,0.395 -0.176,0 -0.316,-0.176 -0.316,-0.395 0,-0.218 0.14,-0.394 0.316,-0.394 0.172,0 0.313,0.176 0.313,0.394 z"
       style="fill:#3f3f3f;fill-opacity:1;fill-rule:nonzero;stroke:none"
       transform="scale(1.3333333)" /><path
       id="path9"
       d="m 16.34,5.895 c 0,0 -0.078,0.136 -0.246,0.218 C 16.023,6.148 15.902,6.062 15.785,6.184 15.543,6.676 16.137,7.09 16.414,7.078 16.691,7.066 16.91,6.781 16.902,6.539 16.891,6.156 16.34,5.895 16.34,5.895 Z"
       style="fill:#3f3f3f;fill-opacity:1;fill-rule:nonzero;stroke:none"
       transform="scale(1.3333333)" /><path
       d="M 8.586,1.395 C 4.824,1.395 1.672,4.012 0.805,7.539 0.789,7.727 0.777,7.91 0.773,8.098 1.59,4.5 4.777,1.816 8.586,1.816 c 1.223,0 2.379,0.274 3.414,0.766 0.055,-0.117 0.188,-0.367 0.309,-0.379 0.164,-0.012 0.253,0.094 0.359,0.211 0.102,0.117 0.309,0.293 0.309,0.293 0,0 0.949,-0.328 2.011,0.258 0.883,0.484 1.137,0.687 1.317,0.976 C 16.102,3.551 15.859,3.199 15.578,2.883 15.418,2.785 15.23,2.676 14.988,2.543 13.926,1.957 12.977,2.285 12.977,2.285 c 0,0 -0.207,-0.176 -0.309,-0.293 C 12.562,1.875 12.473,1.77 12.309,1.781 12.188,1.793 12.055,2.043 12,2.164 10.965,1.672 9.809,1.395 8.586,1.395 Z"
       transform="scale(1.3333333)"
       style="fill:url(#radialGradient12);stroke:none"
       opacity="1"
       id="path12" /></g></svg>
