<svg xmlns="http://www.w3.org/2000/svg" width="24" height="24"><defs><style id="current-color-scheme" type="text/css">.ColorScheme-Highlight{color:#5294e2}</style></defs><g fill="currentColor" style="color:#dedede"><path d="M18 4a1 1 0 0 0-1 1v1H5.51c-.822 0-1.5.678-1.5 1.5v8.994c0 .823.678 1.5 1.5 1.5H17V20h1v-4h2l.01-7.003L18.005 9V5.5s0-.5.5-.5h1.5V4zM5.51 7H17v9.994H5.51a.488.488 0 0 1-.5-.5V7.5c0-.286.214-.5.5-.5zm12.5 2.994h1v1h-1zm0 2h1v1h-1zm0 2h1v1h-1z"/><path d="M13.7 7.98a.385.385 0 0 0-.178.01l-4.09 1.124c-.252.069-.455.348-.455.625V14a2.237 2.237 0 0 0-.869.04c-.803.196-1.288.774-1.084 1.29.203.517 1.019.777 1.822.58.685-.168 1.155-.62 1.13-1.086V10.81l3-.823V13a2.237 2.237 0 0 0-.87.04c-.803.196-1.288.774-1.084 1.29.203.517 1.019.777 1.822.58.666-.164 1.132-.597 1.13-1.053V8.365c0-.207-.115-.354-.278-.384z"/></g></svg>