<svg xmlns="http://www.w3.org/2000/svg" width="24" height="24"><defs><style id="current-color-scheme" type="text/css">.ColorScheme-Text{color:#dedede}</style></defs><rect width="6" height="11" x="9" y="4" fill="currentColor" class="ColorScheme-Text" rx="3" ry="3"/><path fill="currentColor" d="M7.5 10c-.277 0-.5.223-.5.5V12c0 2.6 1.967 4.725 4.5 4.975V19h-2a.499.499 0 1 0 0 1h5a.499.499 0 1 0 0-1h-2v-2.025A4.988 4.988 0 0 0 17 12v-1.5a.499.499 0 1 0-1 0V12c0 2.216-1.784 4-4 4s-4-1.784-4-4v-1.5c0-.277-.223-.5-.5-.5z" class="ColorScheme-Text"/></svg>