<svg xmlns="http://www.w3.org/2000/svg" width="24" height="24"><path fill="currentColor" d="M7 4c-1.108 0-2 .892-2 2v12c0 1.108.892 2 2 2h10c1.108 0 2-.892 2-2V8l-4-4zm0 1h7.586L18 8.414V18c0 .554-.446 1-1 1H7c-.554 0-1-.446-1-1V6c0-.554.446-1 1-1zm1 2c-.554 0-1 .446-1 1v3.293L8.293 10H10V7zm3 0v3h2V7zm3 0v3h1.707L17 11.293V8.826L15.174 7zm-5.293 4-1 1H7v1h.707l1 1h6.586l1-1H17v-1h-.707l-1-1zM7 13.707V17c0 .554.447 1.035 1 1h2v-3H8.293zm10 0L15.707 15H14v3h2c.554 0 1-.446 1-1zM11 15v3h2v-3z" style="color:#dedede"/></svg>