<svg xmlns="http://www.w3.org/2000/svg" width="24" height="24"><defs><style id="current-color-scheme" type="text/css">.ColorScheme-Text{color:#dedede}</style></defs><path fill="currentColor" d="m12 7-2.017 4 2.017.017V14l2-4h-2zm-4 5.989v3h1v-3zm2 0v3h1v-3zm4.5 0a1.5 1.5 0 1 0 0 3 1.5 1.5 0 0 0 0-3z" class="ColorScheme-Text"/><path fill="currentColor" d="M7 4C5.338 4 4 5.338 4 7v10c0 1.662 1.338 3 3 3h10c1.662 0 3-1.338 3-3V7c0-1.662-1.338-3-3-3zm0 1h10c1.108 0 2 .892 2 2v10c0 1.108-.892 2-2 2H7c-1.108 0-2-.892-2-2V7c0-1.108.892-2 2-2z" class="ColorScheme-Text"/></svg>