<svg xmlns="http://www.w3.org/2000/svg" width="24" height="24"><defs><style id="current-color-scheme" type="text/css">.ColorScheme-Text{color:#dedede}</style></defs><g fill="currentColor" class="ColorScheme-Text"><path d="M8 19c-1.108 0-2 .892-2 2h1c0-.554.446-1 1-1h8c.554 0 1 .446 1 1h1c0-1.108-.892-2-2-2zM11.95 8A3 3 0 0 0 9 11a3 3 0 0 0 3 3 3 3 0 0 0 3-3 3 3 0 0 0-3-3 3 3 0 0 0-.05 0zm.05 2a1 1 0 0 1 1 1 1 1 0 0 1-1 1 1 1 0 0 1-1-1 1 1 0 0 1 1-1z"/></g><path fill="currentColor" d="M11.906 4A7 7 0 0 0 5 11a7 7 0 0 0 7 7 7 7 0 0 0 7-7 7 7 0 0 0-7-7 7 7 0 0 0-.094 0zM12 5a6 6 0 0 1 6 6 6 6 0 0 1-6 6 6 6 0 0 1-6-6 6 6 0 0 1 6-6z" class="ColorScheme-Text"/></svg>