<svg xmlns="http://www.w3.org/2000/svg" width="24" height="24"><defs><style id="current-color-scheme" type="text/css">.ColorScheme-Text{color:#dedede}</style></defs><g fill="#dedede"><path d="M5 6c-1.108 0-2 .892-2 2v8c0 1.108.892 2 2 2h14c1.108 0 2-.892 2-2V8c0-1.108-.892-2-2-2zm0 1h14c.554 0 1 .446 1 1v8c0 .554-.446 1-1 1H5c-.554 0-1-.446-1-1V8c0-.554.446-1 1-1z"/><path stroke-linecap="round" stroke-linejoin="round" stroke-width="1.5" d="M2.5 18a.499.499 0 1 0 0 1h19a.499.499 0 1 0 0-1h-6.525a.491.491 0 0 1-.475.377h-5A.491.491 0 0 1 9.025 18H2.5z"/></g></svg>