<svg xmlns="http://www.w3.org/2000/svg" width="24" height="24"><defs><style id="current-color-scheme" type="text/css">.ColorScheme-Text{color:#dedede}</style></defs><g fill="currentColor" class="ColorScheme-Text"><path d="M6 12a6 6 0 0 0 6 6v-6z" class="ColorScheme-Text" opacity=".35"/><path d="M18 12a6 6 0 0 1-6 6v-6z" class="ColorScheme-Text" opacity=".75"/><path d="M18 12a6 6 0 0 0-6-6v6z" class="ColorScheme-Text" opacity=".5"/><path d="M6 12a6 6 0 0 1 6-6v6z" class="ColorScheme-Text" opacity=".15"/></g><path fill="currentColor" d="M12 4a8 8 0 0 0-8 8 8 8 0 0 0 8 8 8 8 0 0 0 8-8 8 8 0 0 0-8-8zm-.094 1A7 7 0 0 1 12 5a7 7 0 0 1 7 7 7 7 0 0 1-7 7 7 7 0 0 1-7-7 7 7 0 0 1 6.906-7z" class="ColorScheme-Text"/></svg>