<svg xmlns="http://www.w3.org/2000/svg" width="24" height="24"><g fill="currentColor" style="color:#dedede" transform="translate(4 4)"><path d="M5 2C3.5 2 2.458 3.037 2.068 4.033L-.8 11.518c-.003.007-.004.015-.008.023l-.058.15h.012A2.488 2.488 0 0 0-1 12.5C-1 13.885.115 15 1.5 15h13c1.385 0 2.5-1.115 2.5-2.5 0-.285-.057-.554-.144-.809h.011l-.058-.15-.004-.016-.004-.007-2.87-7.485C13.544 3.037 12.5 2 11.002 2H8zm0 1h6c1.108 0 1.708.65 2 1.397l2.188 5.71A2.49 2.49 0 0 0 14.5 10h-13c-.24 0-.468.045-.688.107L3 4.397C3.292 3.65 3.892 3 5 3zm-3.5 8h13c.831 0 1.5.669 1.5 1.5s-.669 1.5-1.5 1.5h-13C.669 14 0 13.331 0 12.5S.669 11 1.5 11z"/><circle cx="12.5" cy="12.5" r=".5"/></g></svg>