<svg xmlns="http://www.w3.org/2000/svg" width="24" height="24"><defs><style id="current-color-scheme" type="text/css">.ColorScheme-Highlight{color:#5294e2}</style></defs><path fill="currentColor" d="M4.495 5c-.822 0-1.5.678-1.5 1.5v11.996c0 .822.678 1.5 1.5 1.5h14c.823 0 1.5-.678 1.5-1.5V8.451l.729-.732a1.02 1.02 0 0 0 .28-.72c0-.553-.445-1-1-1-.033 0-.063.015-.097.019A1.503 1.503 0 0 0 18.495 5zm0 1h1.5v2.996h-2V6.5c0-.286.215-.516.5-.5zm2.51 0h11.49c.286 0 .5.214.5.5v.07l-5.99 5.961V14h1.469l4.52-4.545v9.041c0 .286-.213.5-.5.5H7.005zm-3.01 3.996h2v4.996h-2zm0 5.996h2v3.004h-1.5a.488.488 0 0 1-.5-.5z" style="color:#dedede"/></svg>