<svg xmlns="http://www.w3.org/2000/svg" width="24" height="24"><defs><style id="current-color-scheme" type="text/css">.ColorScheme-Text{color:#dedede}</style></defs><path fill="currentColor" d="M12 5a1 1 0 0 0-.11.008c-1.603.002-2.95.042-4.105.281-.59.122-1.183.3-1.742.647-.602.372-1.14.953-1.387 1.742C3.892 10.112 3 12.42 3 15.334 3 17.456 4.884 19 6.953 19c1.784 0 3.01-1.161 3.7-2.455.225-.411.46-.9.558-.924.258-.035.528-.087.766-.084h.046c.238-.003.508.049.766.084.096.035.341.548.56.926C14.04 17.84 15.265 19 17.048 19 19.117 19 21 17.456 21 15.334c0-2.913-.892-5.222-1.656-7.656-.248-.79-.785-1.368-1.387-1.74v-.002c-.56-.346-1.152-.525-1.742-.647h-.002C15.027 5.044 13.663 5 12 5zm0 1c1.642 0 2.957.05 4.012.268.527.108.997.258 1.42.52.422.26.798.678.959 1.189.775 2.47 1.609 4.65 1.609 7.357C20 16.864 18.642 18 17.047 18c-1.554 0-2.678-1.12-3.129-2.312l.023.056-.472-1.05c-.495-.096-.97-.162-1.457-.157h-.024c-.488-.005-.962.061-1.457.156l-.472 1.051.023-.056C9.632 16.88 8.507 18 6.953 18 5.358 18 4 16.864 4 15.334c0-2.707.834-4.888 1.61-7.357.16-.511.536-.929.958-1.19.423-.26.893-.41 1.42-.52C9.043 6.05 10.358 6 12 6z" class="ColorScheme-Text"/><path fill="currentColor" d="M9.5 8c-.277 0-.5.223-.5.5V10H7.5a.499.499 0 1 0 0 1H9v1.5a.499.499 0 1 0 1 0V11h1.5a.499.499 0 1 0 0-1H10V8.5c0-.277-.223-.5-.5-.5zM16 9a1 1 0 0 0-1 1 1 1 0 0 0 1 1 1 1 0 0 0 1-1 1 1 0 0 0-1-1zm-2 2a1 1 0 0 0-1 1 1 1 0 0 0 1 1 1 1 0 0 0 1-1 1 1 0 0 0-1-1z" class="ColorScheme-Text"/></svg>