<svg xmlns="http://www.w3.org/2000/svg" width="24" height="24"><path fill="currentColor" d="M12 6.691a10.21 10.21 0 0 0-7.829 3.659.73.73 0 0 0 1.12.94A8.751 8.751 0 0 1 12 8.152a8.753 8.753 0 0 1 6.71 3.138c.144.172.35.26.56.26a.73.73 0 0 0 .56-1.2 10.21 10.21 0 0 0-7.83-3.658zm0 3.095a7.293 7.293 0 0 0-5.591 2.613.73.73 0 1 0 1.118.94c1.116-1.33 2.747-2.092 4.473-2.092s3.356.762 4.473 2.092a.728.728 0 0 0 1.03.089.73.73 0 0 0 .088-1.03A7.294 7.294 0 0 0 12 9.787zM12 13c-1.296 0-2.519.57-3.355 1.566a.73.73 0 0 0 1.12.94 2.915 2.915 0 0 1 4.471 0 .73.73 0 0 0 1.029.09.73.73 0 0 0 .09-1.03A4.374 4.374 0 0 0 12 13zm-.062 2.773c-.572.055-1.121.482-1.14 1.118a1.203 1.203 0 1 0 2.405 0c-.102-.854-.694-1.172-1.265-1.118z" style="color:#dedede"/></svg>