<svg xmlns="http://www.w3.org/2000/svg" width="24" height="24"><path fill="currentColor" d="M7 4a3 3 0 0 0-3 3 3 3 0 0 0 3 3 3 3 0 0 0 1.086-.207c.54.82.914 1.642.914 2.207 0 .564-.372 1.384-.91 2.205A3 3 0 0 0 7 14a3 3 0 0 0-3 3 3 3 0 0 0 3 3 3 3 0 0 0 3-3 3 3 0 0 0-.205-1.08C10.618 15.377 11.44 15 12 15s1.378.375 2.201.916A3 3 0 0 0 14 17a3 3 0 0 0 3 3 3 3 0 0 0 3-3 3 3 0 0 0-3-3 3 3 0 0 0-1.086.207C15.374 13.387 15 12.565 15 12c0-.564.373-1.384.91-2.205a3 3 0 0 0 .002.002A3 3 0 0 0 17 10a3 3 0 0 0 3-3 3 3 0 0 0-3-3 3 3 0 0 0-3 3 3 3 0 0 0 .205 1.08C13.382 8.623 12.561 9 12 9c-.56 0-1.378-.375-2.201-.916A3 3 0 0 0 10 7a3 3 0 0 0-3-3zm0 1a2 2 0 0 1 2 2 2 2 0 0 1-.053.453c-.458-.369-.892-.759-1.24-1.16A1 1 0 0 0 7.014 6a1 1 0 0 0-.721.293 1 1 0 0 0 0 1.414 1 1 0 0 0 .059.055c.382.333.755.747 1.107 1.183A2 2 0 0 1 7 9a2 2 0 0 1-2-2 2 2 0 0 1 2-2zm10 0a2 2 0 0 1 2 2 2 2 0 0 1-2 2 2 2 0 0 1-.457-.055c.37-.459.762-.895 1.164-1.238a1 1 0 0 0 0-1.414 1 1 0 0 0-1.414 0 1 1 0 0 0-.053.055c-.337.381-.75.754-1.185 1.105A2 2 0 0 1 15 7a2 2 0 0 1 2-2zM7 15a2 2 0 0 1 .457.055c-.37.459-.762.895-1.164 1.238a1 1 0 0 0 0 1.414 1 1 0 0 0 1.414 0 1 1 0 0 0 .053-.055c.337-.381.75-.754 1.185-1.105A2 2 0 0 1 9 17a2 2 0 0 1-2 2 2 2 0 0 1-2-2 2 2 0 0 1 2-2zm10 0a2 2 0 0 1 2 2 2 2 0 0 1-2 2 2 2 0 0 1-2-2 2 2 0 0 1 .053-.453c.458.369.892.759 1.24 1.16a1 1 0 0 0 1.414 0 1 1 0 0 0 0-1.414c-.017-.015-.034-.034-.05-.049a1 1 0 0 0-.009-.006 9.534 9.534 0 0 1-1.107-1.183A2 2 0 0 1 17 15z" style="color:#dedede"/></svg>