<svg xmlns="http://www.w3.org/2000/svg" viewBox="0 0 256 256"><defs><radialGradient id="a" cx="1007" cy="855.36" r="104" gradientTransform="translate(-963.02 -796.56) scale(1.0834)" gradientUnits="userSpaceOnUse"><stop offset="0" stop-color="#232629"/><stop offset=".9" stop-color="#232629" stop-opacity=".523"/><stop offset=".96" stop-color="#232629" stop-opacity=".107"/><stop offset="1" stop-color="#232629" stop-opacity="0"/></radialGradient></defs><path fill="#717171" d="M12.072 12.072h231.86v231.86H12.072z" opacity=".005"/><circle cx="128" cy="130.17" r="112.68" fill="url(#a)" opacity=".35"/><circle cx="128" cy="128" r="104.67" fill="#f2f2f2"/><path fill="#31363b" d="m80.751 44.738-.914.542 2.268 3.894c.301-.177.611-.334.915-.509zm95.202 0-2.2 3.826c.317.18.633.357.948.541l2.2-3.825zm-103.67 5.45-.88.61 2.674 3.69c.292-.216.586-.431.881-.644zm112.14 0-2.573 3.554c.29.209.594.4.88.61l2.574-3.554zm-119.99 6.298-.779.71 3.013 3.353c.26-.238.55-.442.813-.678zm127.85 0-2.946 3.25c.269.24.547.468.813.71l2.946-3.25zm-134.99 7.076-.71.812 3.385 3.048c.237-.268.47-.547.71-.813zm142.14 0-3.25 2.912c.252.276.496.567.744.846l3.25-2.946zm-148.5 7.787-.644.847 3.725 2.708c.208-.29.398-.592.61-.88zm154.87 0-3.521 2.574c.206.28.406.563.609.846l3.555-2.573zm-160.41 8.397-.542.948 3.996 2.302c.18-.316.359-.633.542-.948zm165.97 0-3.792 2.2c.184.315.36.631.542.949l3.792-2.2zm-170.58 8.939-.44.981 4.198 1.863c.145-.331.292-.654.44-.982zm175.18 0-3.996 1.76c.148.326.297.653.44.982l3.996-1.76zm-178.83 9.378-.338 1.016 4.4 1.423c.107-.334.196-.684.305-1.017zm182.49 0-4.165 1.354c.11.336.232.678.34 1.016l4.164-1.354zm-185.17 9.717-.204 1.05 4.503.948c.072-.351.162-.7.237-1.05zm187.8 0-4.265.915c.074.347.132.7.202 1.05l4.3-.915zm-189.4 9.92-.135 1.05 4.638.475c.033-.35.064-.702.102-1.05l-4.605-.475m191.05 0-4.402.475c.038.348.068.7.102 1.05l4.4-.475-.101-1.05m-186.53 19.6-4.672.474.136 1.083 4.638-.474c-.04-.361-.066-.722-.102-1.084m182.19 0c-.036.362-.062.723-.102 1.084l4.436.474.102-1.083zm-180.76 9.447-4.571.981.204 1.05 4.604-.981c-.077-.35-.164-.7-.237-1.05m179.34.068c-.073.351-.16.7-.237 1.05l4.333.914.238-1.05zm-176.9 9.176-4.47 1.456.339 1.05 4.469-1.456c-.116-.35-.226-.698-.338-1.05m174.43.068c-.113.352-.222.7-.34 1.05l4.267 1.388.338-1.05zm-171.04 8.905-4.3 1.93.44.981 4.3-1.93c-.15-.328-.295-.65-.44-.981m167.66.102c-.145.328-.292.655-.44.981l4.097 1.83.44-.982zm-163.33 8.43-4.131 2.37.541.949 4.132-2.371c-.185-.313-.361-.633-.542-.948m158.99.102c-.182.316-.357.634-.542.948l3.928 2.268.541-.948zm-153.85 7.957-3.826 2.776.644.881 3.825-2.777c-.215-.292-.43-.585-.643-.88m148.64.101c-.21.29-.397.593-.609.881l3.657 2.675.643-.88zm-142.6 7.347-3.555 3.183.71.813 3.556-3.183c-.243-.267-.472-.544-.711-.813m136.61.102c-.245.274-.496.54-.745.813l3.419 3.081.744-.813zm-129.95 6.704-3.149 3.522.78.745 3.183-3.555c-.27-.24-.547-.468-.813-.71m123.21.101c-.272.247-.537.5-.813.746l3.082 3.419.812-.745zm-115.83 5.96-2.777 3.825.88.643 2.778-3.825c-.295-.212-.589-.428-.881-.644m108.41.102c-.293.215-.585.432-.88.644l2.708 3.725.88-.644zm-100.39 5.18-2.37 4.096.915.542 2.37-4.131c-.303-.173-.613-.332-.914-.508m92.363.068c-.307.179-.606.366-.914.542l2.302 4.03.948-.543zm-83.902 4.334-1.896 4.3.982.44 1.93-4.3c-.34-.15-.679-.287-1.016-.44m75.429.102c-.334.15-.68.293-1.016.44l1.862 4.198 1.016-.44zm-66.491 3.386-1.456 4.502 1.016.34 1.456-4.503c-.34-.109-.677-.227-1.015-.34m57.52.069c-.349.115-.699.227-1.05.339l1.456 4.435 1.05-.339zm-48.315 2.437-.981 4.605 1.083.237.982-4.604c-.362-.075-.724-.158-1.084-.238m39.07.069c-.354.077-.695.164-1.05.237l.98 4.537 1.05-.237zm-29.592 1.49-.508 4.706 1.083.102.475-4.673c-.352-.035-.699-.096-1.05-.135m20.145.033c-.35.038-.699.067-1.05.102l.474 4.673 1.05-.102z" color="#000" opacity=".6"/><path fill="#3d95e9" d="M134.16 33.047c2.976 0 5.36.783 7.152 2.349 1.806 1.551 2.708 3.675 2.708 6.37 0 1.834-.472 3.562-1.418 5.184-.945 1.607-2.397 3.463-4.355 5.565l-8.952 9.544h14.117v3.261h-17.817v-3.998l10.178-11.576c1.383-1.58 2.42-2.955 3.111-4.126.705-1.186 1.058-2.356 1.058-3.513 0-1.806-.514-3.18-1.545-4.127-1.03-.944-2.475-1.418-4.333-1.418-2.765 0-5.03.889-6.792 2.666l-1.228-3.321c2.074-1.905 4.782-2.857 8.126-2.857m-16.122 1.332h3.788V65.32h-3.788V37.917a36.125 36.125 0 0 1-5.184 2.9v-3.322c1.354-.593 3.082-1.63 5.184-3.11M30.393 126.85h21.669v2.935H30.393zM205.04 126.85h21.669v2.935H205.04zM129.91 205.56v21.669h-2.936V205.56z"/><g fill="#666667"><path d="m206.294 81.536 4.366-2.52 1.467 2.542-4.366 2.52zM44.4 175.01l4.366-2.518 1.468 2.541-4.366 2.52zM172.492 48.785l2.518-4.367 2.542 1.468-2.519 4.367zM79.016 210.677l2.519-4.366 2.541 1.468-2.519 4.366zM48.8 84.082l-4.366-2.52 1.468-2.54 4.366 2.518zm161.892 93.475-4.366-2.518 1.467-2.542 4.366 2.519zM81.55 50.258l-2.518-4.366 2.542-1.468 2.519 4.366zm93.477 161.892-2.52-4.366 2.542-1.468 2.52 4.366z"/></g><g fill="#232629" transform="matrix(-.54172 .93829 -.93829 -.54172 1476.3 -351)"><path d="m1004.2 904.03 2.98 5.209 2.894-5.322h-.062l.034-43.13-5.812.082-.035 43.13z"/><circle cx="-1288.8" cy="292.23" r="6.499" transform="rotate(-126.871)"/></g><g fill="#717171" transform="translate(-963.02 -796.56) scale(1.0834)"><path d="m1045.9 790.13-37.89 65.58-2.598-1.501 37.89-65.58z"/><circle cx="232.3" cy="-1300.7" r="3.671" transform="rotate(120.219)"/></g></svg>