<?xml version="1.0" encoding="UTF-8" standalone="no"?>
<svg
   viewBox="0 0 256 256"
   version="1.1"
   id="svg9"
   sodipodi:docname="org.kde.plasma.analogclock.svg"
   inkscape:version="1.3 (0e150ed6c4, 2023-07-21)"
   xmlns:inkscape="http://www.inkscape.org/namespaces/inkscape"
   xmlns:sodipodi="http://sodipodi.sourceforge.net/DTD/sodipodi-0.dtd"
   xmlns="http://www.w3.org/2000/svg"
   xmlns:svg="http://www.w3.org/2000/svg">
  <sodipodi:namedview
     id="namedview9"
     pagecolor="#ffffff"
     bordercolor="#000000"
     borderopacity="0.25"
     inkscape:showpageshadow="2"
     inkscape:pageopacity="0.0"
     inkscape:pagecheckerboard="0"
     inkscape:deskcolor="#d1d1d1"
     inkscape:zoom="3.1847427"
     inkscape:cx="209.27908"
     inkscape:cy="168.77345"
     inkscape:window-width="3440"
     inkscape:window-height="1358"
     inkscape:window-x="2560"
     inkscape:window-y="0"
     inkscape:window-maximized="1"
     inkscape:current-layer="svg9" />
  <defs
     id="defs4">
    <radialGradient
       id="a"
       cx="1007"
       cy="855.36"
       r="104"
       gradientTransform="translate(-963.02 -796.56) scale(1.0834)"
       gradientUnits="userSpaceOnUse">
      <stop
         offset="0"
         stop-color="#232629"
         id="stop1" />
      <stop
         offset=".9"
         stop-color="#232629"
         stop-opacity=".523"
         id="stop2" />
      <stop
         offset=".96"
         stop-color="#232629"
         stop-opacity=".107"
         id="stop3" />
      <stop
         offset="1"
         stop-color="#232629"
         stop-opacity="0"
         id="stop4" />
    </radialGradient>
    <radialGradient
       id="radialGradient4671"
       cx="1255.9"
       cy="382.73001"
       r="96.606003"
       gradientTransform="matrix(1.1663451,0,0,1.1663451,-1576.8406,-318.40724)"
       gradientUnits="userSpaceOnUse">
      <stop
         stop-color="#232629"
         offset="0"
         id="stop3-4" />
      <stop
         stop-color="#232629"
         stop-opacity=".52349"
         offset=".9"
         id="stop5-8" />
      <stop
         stop-color="#232629"
         stop-opacity=".10738"
         offset=".96"
         id="stop7-0" />
      <stop
         stop-color="#232629"
         stop-opacity="0"
         offset="1"
         id="stop9-4" />
    </radialGradient>
  </defs>
  <path
     fill="#717171"
     d="M12.072 12.072h231.86v231.86H12.072z"
     opacity=".005"
     id="path4" />
  <g
     id="g14"
     transform="translate(240)">
    <path
       d="M -112.46589,15.320235 A 112.67988,112.67988 0 0 0 -224.67988,128.00012 112.67988,112.67988 0 0 0 -112,240.68 112.67988,112.67988 0 0 0 0.67987852,128.00012 112.67988,112.67988 0 0 0 -112,15.320235 a 112.67988,112.67988 0 0 0 -0.46343,0 z m 0.46343,4.333842 A 106.17912,106.17912 0 0 1 -5.8233433,125.8332 106.17912,106.17912 0 0 1 -112.00246,232.01232 106.17912,106.17912 0 0 1 -218.18158,125.8332 106.17912,106.17912 0 0 1 -112.00246,19.654077 Z"
       fill="url(#radialGradient4671)"
       opacity="0.5"
       id="path14"
       style="fill:url(#radialGradient4671);stroke-width:1" />
    <circle
       cx="-112.00217"
       cy="125.8332"
       r="106.17912"
       fill="currentColor"
       id="circle16"
       class="ColorScheme-Background"
       style="color:#efefef;stroke-width:1;stop-color:#efefef" />
    <path
       d="m -112.00217,28.32176 c -0.60024,0 -1.08346,0.483223 -1.08346,1.08346 v 15.168446 c 0,0.600237 0.48322,1.08346 1.08346,1.08346 0.60024,0 1.08346,-0.483223 1.08346,-1.08346 V 29.40522 c 0,-0.600237 -0.48322,-1.08346 -1.08346,-1.08346 z m -96.42798,96.42798 c -0.60023,0 -1.08346,0.48322 -1.08346,1.08346 0,0.60023 0.48323,1.08346 1.08346,1.08346 h 15.16845 c 0.60024,0 1.08346,-0.48323 1.08346,-1.08346 0,-0.60024 -0.48322,-1.08346 -1.08346,-1.08346 z m 177.68751,0 c -0.600237,0 -1.08346,0.48322 -1.08346,1.08346 0,0.60023 0.483223,1.08346 1.08346,1.08346 h 15.168446 c 0.600237,0 1.08346,-0.48323 1.08346,-1.08346 0,-0.60024 -0.483223,-1.08346 -1.08346,-1.08346 z m -81.25953,81.25953 c -0.60024,0 -1.08346,0.48322 -1.08346,1.08346 v 15.16844 c 0,0.60024 0.48322,1.08346 1.08346,1.08346 0.60024,0 1.08346,-0.48322 1.08346,-1.08346 v -15.16844 c 0,-0.60024 -0.48322,-1.08346 -1.08346,-1.08346 z"
       opacity="0.65"
       stroke-linecap="square"
       stroke-width="2.6252"
       id="path18"
       fill="currentColor"
       class="ColorScheme-Text"
       style="color:#242424;stop-color:#242424" />
    <path
       d="m -160.34942,41.247443 c -0.13967,0.0175 -0.27846,0.06464 -0.40841,0.139668 -0.51983,0.300119 -0.69583,0.959361 -0.39572,1.479141 l 5.41731,9.382983 c 0.30011,0.519823 0.95936,0.695842 1.47914,0.395723 0.51978,-0.300118 0.69583,-0.95936 0.39571,-1.47914 l -5.4173,-9.382983 c -0.22509,-0.389862 -0.65175,-0.587886 -1.07077,-0.535382 z m 96.694503,0 c -0.419017,-0.0525 -0.845673,0.145519 -1.070762,0.535381 l -5.417302,9.382983 c -0.300118,0.519823 -0.12411,1.179022 0.395712,1.479141 0.519823,0.300118 1.179022,0.124099 1.479141,-0.395723 l 5.417302,-9.382984 c 0.300118,-0.519823 0.12411,-1.179022 -0.395713,-1.47914 -0.12995,-0.07503 -0.268741,-0.122161 -0.40841,-0.139669 z M -195.38203,76.544415 c -0.41902,-0.0525 -0.84568,0.143396 -1.07076,0.533269 -0.30012,0.519822 -0.1241,1.179021 0.39571,1.47914 l 9.38298,5.417302 c 0.51982,0.300119 1.17902,0.1241 1.47914,-0.395712 0.30012,-0.519812 0.1241,-1.179022 -0.39572,-1.47914 l -9.38298,-5.417302 c -0.12996,-0.07503 -0.26875,-0.120048 -0.40842,-0.137546 z m 166.755388,0 c -0.139669,0.0175 -0.278449,0.06252 -0.40841,0.137546 l -9.382984,5.417302 c -0.519823,0.300118 -0.695842,0.959361 -0.395723,1.47914 0.300118,0.519779 0.959361,0.695831 1.47914,0.395712 l 9.382984,-5.417302 c 0.519822,-0.300118 0.695841,-0.959361 0.395723,-1.47914 -0.225089,-0.389862 -0.651745,-0.585762 -1.070773,-0.533268 z M -186.2593,167.55509 c -0.13966,0.0174 -0.27846,0.0625 -0.40841,0.13756 l -9.38298,5.4173 c -0.51982,0.30012 -0.69583,0.95935 -0.39571,1.47914 0.30012,0.51979 0.95936,0.69583 1.47914,0.39571 l 9.38298,-5.4173 c 0.51982,-0.30012 0.69584,-0.95935 0.39573,-1.47914 -0.22509,-0.38986 -0.65175,-0.58576 -1.07077,-0.53327 z m 148.520756,0 c -0.419017,-0.0525 -0.845673,0.14341 -1.070762,0.53327 -0.300119,0.51982 -0.1241,1.17902 0.395723,1.47914 l 9.382984,5.4173 c 0.519822,0.30012 1.179021,0.12411 1.47914,-0.39571 0.300118,-0.51983 0.124099,-1.17902 -0.395723,-1.47914 l -9.382984,-5.4173 c -0.129961,-0.0751 -0.268741,-0.12006 -0.408421,-0.13756 z m -116.927046,31.32717 c -0.41902,-0.0525 -0.84567,0.14551 -1.07076,0.53538 l -5.4173,9.38299 c -0.30012,0.51982 -0.1241,1.17902 0.39571,1.47914 0.51981,0.30012 1.17902,0.1241 1.47914,-0.39572 l 5.4173,-9.38299 c 0.30012,-0.51982 0.1241,-1.17902 -0.39571,-1.47914 -0.12995,-0.0751 -0.26874,-0.12216 -0.40841,-0.13966 z m 85.32684,0 c -0.139669,0.0176 -0.27846,0.0647 -0.40841,0.13966 -0.519823,0.30012 -0.695831,0.95936 -0.395712,1.47914 l 5.417302,9.38299 c 0.300118,0.51982 0.95935,0.69584 1.47914,0.39572 0.51979,-0.30012 0.69583,-0.95936 0.395712,-1.47914 l -5.417302,-9.38299 c -0.225089,-0.38987 -0.651745,-0.58788 -1.070762,-0.53538 z"
       opacity="0.35"
       stroke-linecap="square"
       stroke-width="2.2735"
       id="path20"
       class="ColorScheme-Text"
       fill="currentColor"
       style="color:#242424;stop-color:#242424" />
    <path
       d="m -101.82848,28.852656 c -0.29848,-0.0313 -0.56544,0.183993 -0.59675,0.482475 l -0.79143,7.544027 c -0.0313,0.298482 0.184,0.563323 0.48248,0.594635 0.29848,0.0313 0.56544,-0.183993 0.59675,-0.482475 l 0.78932,-7.54186 c 0.0313,-0.298482 -0.18188,-0.565447 -0.48037,-0.596748 z m -20.54999,0.02328 c -0.29842,0.03194 -0.51442,0.298331 -0.48248,0.596748 l 0.80836,7.539801 c 0.0319,0.298418 0.29834,0.512304 0.59675,0.480363 0.29842,-0.03194 0.5123,-0.296218 0.48036,-0.594635 l -0.80624,-7.54186 c -0.0319,-0.298417 -0.29833,-0.512303 -0.59675,-0.480363 z m 30.510245,1.58922 c -0.207396,0.03961 -0.38049,0.198858 -0.427458,0.418996 L -93.87851,38.3012 c -0.06262,0.293509 0.123373,0.58068 0.416883,0.643304 0.293509,0.06262 0.578557,-0.123363 0.641181,-0.416883 l 1.582827,-7.417045 c 0.06262,-0.293509 -0.123363,-0.58068 -0.416872,-0.643304 -0.07335,-0.01566 -0.144599,-0.01532 -0.213734,-0.0022 z m -40.337235,0.01481 c -0.0691,-0.01315 -0.14247,-0.01149 -0.21584,0.0042 -0.29347,0.06285 -0.47974,0.349839 -0.41689,0.643305 l 1.58922,7.414986 c 0.0629,0.293466 0.34984,0.479735 0.64331,0.416872 0.29346,-0.06285 0.47761,-0.349838 0.41476,-0.643304 l -1.58706,-7.417045 c -0.0471,-0.220094 -0.22002,-0.379536 -0.42745,-0.418996 z m 50.056958,2.566826 c -0.210376,0.01803 -0.400371,0.160439 -0.469778,0.374552 l -2.338324,7.213896 c -0.09253,0.285492 0.06371,0.590974 0.349156,0.683512 0.285503,0.09254 0.588861,-0.06366 0.681399,-0.349167 l 2.340491,-7.213896 c 0.09253,-0.285492 -0.06371,-0.590973 -0.349167,-0.683512 -0.0714,-0.02313 -0.143601,-0.03141 -0.213734,-0.0254 z m -59.776678,0.02327 c -0.0701,-0.006 -0.14238,0.0022 -0.21372,0.0254 -0.28543,0.09276 -0.4398,0.398085 -0.34705,0.683512 l 2.34472,7.211729 c 0.0928,0.285427 0.39597,0.439798 0.6814,0.347043 0.28543,-0.09276 0.44192,-0.395972 0.34917,-0.681399 l -2.34472,-7.213896 c -0.0696,-0.21407 -0.25939,-0.354563 -0.46978,-0.37244 z m 69.277542,3.591129 c -0.211112,-0.004 -0.412322,0.118043 -0.503646,0.323771 l -3.078978,6.930354 c -0.12176,0.27431 0.0032,0.593487 0.277214,0.715257 0.27431,0.12177 0.591374,-7.92e-4 0.713144,-0.275101 l 3.078978,-6.932413 c 0.12177,-0.274311 -0.0032,-0.593487 -0.277214,-0.715257 -0.06858,-0.03045 -0.139116,-0.04523 -0.209487,-0.04656 z m -78.897582,0.08465 c -0.0704,0.0015 -0.14099,0.01597 -0.2095,0.04656 -0.27405,0.122355 -0.39746,0.44333 -0.2751,0.71737 l 3.09165,6.923962 c 0.12236,0.27404 0.44333,0.397457 0.71737,0.275102 0.27405,-0.122356 0.39533,-0.443331 0.27298,-0.71737 l -3.09166,-6.923962 c -0.0918,-0.205533 -0.29465,-0.326079 -0.50576,-0.321658 z m 96.440973,10.089725 c -0.136765,0.02169 -0.26521,0.09655 -0.353392,0.21796 l -4.456598,6.136828 c -0.176355,0.242836 -0.122214,0.579098 0.120622,0.755464 0.242836,0.176366 0.581211,0.124327 0.757577,-0.118509 l 4.456597,-6.136828 c 0.176355,-0.242836 0.122215,-0.581222 -0.120621,-0.757577 -0.121424,-0.08818 -0.26742,-0.119029 -0.404185,-0.09734 z m -113.936693,0.103687 c -0.13681,-0.02144 -0.28081,0.009 -0.40206,0.09734 -0.24253,0.176799 -0.2953,0.515055 -0.11851,0.757577 l 4.4671,6.128269 c 0.1768,0.242522 0.51506,0.295297 0.75758,0.118509 0.24252,-0.176799 0.2953,-0.515056 0.11851,-0.757577 l -4.46711,-6.128269 c -0.0884,-0.121261 -0.2187,-0.194405 -0.3555,-0.215847 z m 121.9543,6.342035 c -0.138293,0.0072 -0.274051,0.06632 -0.374552,0.177753 l -5.078721,5.633127 c -0.200993,0.222868 -0.182661,0.562923 0.0402,0.763926 0.222868,0.200993 0.562923,0.184785 0.763927,-0.03809 l 5.080779,-5.633127 c 0.200993,-0.222868 0.18266,-0.562923 -0.0402,-0.763927 -0.111433,-0.100501 -0.253193,-0.146798 -0.391486,-0.139668 z m -129.86356,0.02751 c -0.1383,-0.007 -0.2801,0.03911 -0.39149,0.139669 -0.22278,0.201091 -0.23919,0.543258 -0.0381,0.766039 l 5.08088,5.628902 c 0.20109,0.222781 0.54326,0.241298 0.76604,0.04021 0.22278,-0.20109 0.23919,-0.543258 0.0381,-0.766039 l -5.08089,-5.628901 c -0.10055,-0.111391 -0.23626,-0.172791 -0.37455,-0.179877 z m 136.992729,7.046719 c -0.138293,-0.0072 -0.280031,0.03918 -0.391476,0.139668 l -5.633127,5.078721 c -0.2229,0.200971 -0.239065,0.54315 -0.03814,0.766039 0.200971,0.22289 0.541037,0.239066 0.763927,0.03809 l 5.633127,-5.078721 c 0.222889,-0.200971 0.241178,-0.541037 0.0402,-0.763926 -0.100437,-0.111445 -0.23627,-0.172726 -0.374563,-0.179876 z m -144.121899,0.03175 c -0.1383,0.0073 -0.27412,0.06838 -0.37456,0.179876 -0.20087,0.222976 -0.18276,0.563053 0.0402,0.763926 l 5.63313,5.076554 c 0.22298,0.200874 0.56516,0.18278 0.76604,-0.04021 0.20087,-0.222976 0.18278,-0.563053 -0.0402,-0.763926 l -5.63529,-5.076554 c -0.11149,-0.100437 -0.25108,-0.146874 -0.38938,-0.139669 z m 150.546819,7.829735 c -0.136797,-0.02152 -0.28288,0.009 -0.404184,0.09734 l -6.130436,4.465049 c -0.242619,0.176669 -0.295167,0.512845 -0.118509,0.755464 0.176669,0.242608 0.512845,0.29728 0.755464,0.120622 l 6.130436,-4.465049 c 0.242619,-0.176669 0.29728,-0.514958 0.120622,-0.757577 -0.0883,-0.121304 -0.216606,-0.19433 -0.353393,-0.215847 z m -157.058419,0.141781 c -0.13675,0.02177 -0.26529,0.09438 -0.35339,0.215847 -0.17623,0.242934 -0.12231,0.581353 0.12062,0.757578 l 6.13889,4.452372 c 0.24293,0.176225 0.58135,0.124424 0.75757,-0.118509 0.17623,-0.242934 0.12231,-0.581352 -0.12062,-0.757577 l -6.13889,-4.452372 c -0.12146,-0.08812 -0.26741,-0.119105 -0.40418,-0.09734 z m 167.145436,17.468633 c -0.07043,0.0014 -0.140958,0.01814 -0.209498,0.04867 l -6.928188,3.08537 c -0.274137,0.122138 -0.397229,0.441109 -0.275101,0.715257 0.122138,0.274137 0.44112,0.397229 0.715257,0.275101 l 6.928188,-3.087428 c 0.274148,-0.122139 0.397229,-0.44111 0.275101,-0.715258 -0.09155,-0.205608 -0.294658,-0.325904 -0.505759,-0.321657 z m -177.524986,0.884547 c -0.21113,-0.0022 -0.41198,0.119376 -0.50152,0.325884 -0.1194,0.27535 0.006,0.593736 0.28144,0.713133 l 6.95787,3.017654 c 0.27535,0.119398 0.59374,-0.0061 0.71313,-0.28145 0.1194,-0.275351 -0.006,-0.593737 -0.28144,-0.713134 l -6.95993,-3.017654 c -0.0688,-0.02985 -0.13911,-0.04372 -0.2095,-0.04444 z m 181.25209,8.684586 c -0.0701,-0.006 -0.142356,0.0023 -0.213724,0.0254 l -7.216063,2.338324 c -0.285492,0.09253 -0.439571,0.395897 -0.347043,0.681399 0.09253,0.285503 0.395896,0.441684 0.681399,0.349167 l 7.216063,-2.338324 c 0.285503,-0.09253 0.439571,-0.398009 0.347043,-0.683512 -0.06945,-0.214124 -0.257289,-0.3544 -0.467665,-0.37244 z m -184.84918,0.793548 c -0.21021,0.01985 -0.398,0.164079 -0.46555,0.378788 -0.0901,0.286283 0.0692,0.589208 0.3555,0.679276 l 7.23297,2.274833 c 0.28628,0.09007 0.58921,-0.06711 0.67927,-0.353392 0.0901,-0.286283 -0.0671,-0.589208 -0.35339,-0.679276 l -7.23502,-2.277 c -0.0716,-0.02251 -0.14366,-0.02989 -0.21374,-0.02327 z m 187.492823,8.879283 c -0.06912,-0.0132 -0.142464,-0.0135 -0.215847,0.002 l -7.417045,1.58283 c -0.29352,0.0626 -0.479496,0.34979 -0.416883,0.6433 0.06262,0.29351 0.349795,0.4795 0.643305,0.41688 l 7.417045,-1.58282 c 0.293509,-0.0626 0.479485,-0.3498 0.416872,-0.64331 -0.04691,-0.22014 -0.220062,-0.37937 -0.427458,-0.41899 z m -190.049793,0.81683 c -0.20705,0.0414 -0.37816,0.2027 -0.42322,0.42322 -0.0601,0.29404 0.12918,0.57898 0.42322,0.63907 l 7.42973,1.51728 c 0.29404,0.0601 0.57898,-0.12707 0.63906,-0.42111 0.0601,-0.29404 -0.12706,-0.57898 -0.4211,-0.63907 l -7.43189,-1.51933 c -0.0735,-0.015 -0.14683,-0.0138 -0.21585,0 z m 191.479961,9.16499 -7.54186,0.7999 c -0.298439,0.0317 -0.514178,0.29831 -0.482476,0.59675 0.03175,0.29844 0.29831,0.51418 0.596749,0.48248 l 7.541859,-0.80201 c 0.298439,-0.0317 0.512065,-0.29831 0.480363,-0.59675 -0.03174,-0.29844 -0.296185,-0.51207 -0.594624,-0.48037 z m -192.845121,0.96073 c -0.29874,-0.0287 -0.56166,0.18797 -0.5904,0.48671 -0.0287,0.29875 0.18797,0.56167 0.48672,0.5904 l 7.54825,0.72583 c 0.29874,0.0287 0.56379,-0.18797 0.59252,-0.48671 0.0287,-0.29874 -0.19008,-0.56167 -0.48882,-0.5904 l -7.54826,-0.72583 z m 185.499259,17.83918 c -0.298742,-0.0287 -0.563789,0.18797 -0.592512,0.48671 -0.02871,0.29874 0.190082,0.56166 0.488825,0.5904 l 7.548252,0.72583 c 0.298732,0.0287 0.561666,-0.18797 0.590399,-0.48671 0.02871,-0.29873 -0.187969,-0.56167 -0.486712,-0.5904 z m -177.969209,0.88454 -7.54186,0.80201 c -0.29843,0.0318 -0.51206,0.29831 -0.48036,0.59675 0.0317,0.29844 0.2962,0.51207 0.59464,0.48037 l 7.54186,-0.7999 c 0.29844,-0.0317 0.51417,-0.29831 0.48247,-0.59675 -0.0317,-0.29844 -0.29831,-0.51418 -0.59675,-0.48248 z m 176.409026,8.46237 c -0.207049,0.0414 -0.37816,0.20271 -0.423232,0.42323 -0.06013,0.29404 0.127068,0.57898 0.421119,0.63907 l 7.431889,1.51945 c 0.29404,0.0601 0.578979,-0.12919 0.639068,-0.42324 0.06013,-0.29404 -0.129181,-0.57897 -0.423221,-0.63906 l -7.429722,-1.51728 c -0.07346,-0.0151 -0.14683,-0.0159 -0.215847,-0.002 z m -174.783836,0.75123 c -0.0691,-0.0132 -0.14246,-0.0135 -0.21584,0.002 l -7.41705,1.58282 c -0.29351,0.0626 -0.47949,0.3498 -0.41687,0.64331 0.0626,0.29352 0.3498,0.47949 0.64331,0.41688 l 7.41704,-1.58283 c 0.29351,-0.0626 0.4795,-0.34978 0.41688,-0.6433 -0.047,-0.22014 -0.22006,-0.37937 -0.42745,-0.419 z m 172.530239,8.17037 c -0.210213,0.0198 -0.395886,0.16196 -0.46344,0.37668 -0.09004,0.28628 0.06707,0.58921 0.353403,0.67928 l 7.235024,2.277 c 0.286283,0.09 0.589207,-0.0692 0.679275,-0.35551 0.09004,-0.28629 -0.06923,-0.58922 -0.355505,-0.67928 l -7.232965,-2.27484 c -0.07162,-0.0225 -0.145779,-0.0299 -0.215847,-0.0233 z m -170.200799,0.73007 c -0.0701,-0.007 -0.14235,0.002 -0.21373,0.0254 l -7.21606,2.33832 c -0.28551,0.0925 -0.43957,0.39801 -0.34705,0.68351 0.0925,0.28549 0.3959,0.43957 0.6814,0.34705 l 7.21607,-2.33833 c 0.2855,-0.0925 0.43957,-0.3959 0.34704,-0.6814 -0.0694,-0.21412 -0.25729,-0.35651 -0.46767,-0.37455 z m 166.993756,8.0032 c -0.211134,-0.002 -0.414088,0.11938 -0.503636,0.32588 -0.119397,0.27534 0.0065,0.59374 0.28144,0.71314 l 6.959933,3.01765 c 0.27535,0.1194 0.591623,-0.006 0.711021,-0.28145 0.119397,-0.27534 -0.0065,-0.59374 -0.28144,-0.71313 l -6.957875,-3.01766 c -0.0688,-0.0298 -0.139116,-0.0437 -0.209497,-0.0444 z m -163.667526,0.81471 c -0.0704,0.001 -0.14096,0.016 -0.2095,0.0466 l -6.92819,3.08743 c -0.27413,0.12212 -0.39723,0.4411 -0.2751,0.71524 0.12214,0.27415 0.44111,0.39512 0.71526,0.27299 l 6.92819,-3.08537 c 0.27413,-0.12214 0.39722,-0.44111 0.2751,-0.71526 -0.0916,-0.20559 -0.29465,-0.3259 -0.50576,-0.32164 z m 153.927217,16.11647 c -0.136755,0.0218 -0.265275,0.0944 -0.353393,0.21585 -0.176224,0.24293 -0.122311,0.58135 0.120622,0.75758 l 6.138887,4.45237 c 0.242933,0.17622 0.581352,0.12442 0.757577,-0.1185 0.176225,-0.24293 0.122312,-0.58135 -0.120622,-0.75758 l -6.138886,-4.45237 c -0.121467,-0.0881 -0.267431,-0.1191 -0.404185,-0.0973 z m -144.446937,0.12908 c -0.1368,-0.0216 -0.28076,0.009 -0.40207,0.0973 l -6.13043,4.46505 c -0.24261,0.17666 -0.29728,0.51496 -0.12062,0.75758 0.17666,0.2426 0.51496,0.29516 0.75757,0.11849 l 6.13044,-4.46505 c 0.24261,-0.17666 0.29517,-0.51284 0.11851,-0.75546 -0.0883,-0.1213 -0.21661,-0.19644 -0.35339,-0.21796 z m 138.552912,7.20545 c -0.138282,0.008 -0.274115,0.0684 -0.374552,0.17988 -0.200874,0.22297 -0.18278,0.56304 0.0402,0.76391 l 5.635295,5.07666 c 0.222976,0.20088 0.563052,0.18278 0.763926,-0.0402 0.200873,-0.22298 0.182769,-0.56306 -0.0402,-0.76393 l -5.633127,-5.07655 c -0.111488,-0.10044 -0.253194,-0.14689 -0.391487,-0.13967 z m -132.745572,0.0296 c -0.13829,-0.008 -0.27791,0.0392 -0.38937,0.13967 l -5.63313,5.07872 c -0.22289,0.20097 -0.24118,0.54103 -0.0402,0.76392 0.20097,0.22289 0.54314,0.24118 0.76603,0.0402 l 5.63313,-5.07872 c 0.22289,-0.20097 0.23907,-0.54315 0.0381,-0.76604 -0.10049,-0.11145 -0.23626,-0.17061 -0.37456,-0.17776 z m 126.277314,6.49654 c -0.138304,-0.008 -0.280097,0.037 -0.391487,0.13754 -0.222781,0.20109 -0.239185,0.54326 -0.03814,0.76604 l 5.080888,5.6289 c 0.20109,0.22279 0.543257,0.24131 0.766039,0.0402 0.222781,-0.20109 0.239184,-0.54326 0.03814,-0.76604 l -5.080779,-5.6289 c -0.100545,-0.11139 -0.236259,-0.17068 -0.374552,-0.17776 z m -119.809054,0.0254 c -0.13829,0.008 -0.27406,0.0663 -0.37455,0.17776 l -5.08089,5.63313 c -0.20099,0.22287 -0.18266,0.56292 0.0402,0.76391 0.22287,0.20101 0.56505,0.18479 0.76604,-0.038 l 5.07872,-5.63312 c 0.20099,-0.22287 0.18266,-0.56294 -0.0402,-0.76393 -0.11143,-0.10054 -0.25108,-0.1468 -0.38937,-0.13967 z m 112.636546,5.85751 c -0.136798,-0.0214 -0.282913,0.009 -0.404174,0.0973 -0.242522,0.1768 -0.295297,0.51506 -0.118509,0.75758 l 4.467107,6.12827 c 0.176799,0.24251 0.515055,0.2953 0.757577,0.1185 0.242511,-0.17679 0.295297,-0.51506 0.118498,-0.75758 l -4.467107,-6.12827 c -0.08841,-0.12125 -0.216595,-0.19439 -0.353403,-0.21583 z m -105.351356,0.0952 c -0.13676,0.0217 -0.26521,0.0945 -0.35339,0.21583 l -4.4566,6.13683 c -0.17635,0.24284 -0.12221,0.58121 0.12062,0.75758 0.24284,0.17635 0.58122,0.12221 0.75758,-0.12062 l 4.4566,-6.13683 c 0.17635,-0.24284 0.12221,-0.57911 -0.12062,-0.75547 -0.12142,-0.0882 -0.26742,-0.11903 -0.40419,-0.0973 z m 89.04311,9.28774 c -0.07043,10e-4 -0.143104,0.0159 -0.211611,0.0466 -0.27405,0.12236 -0.395344,0.44332 -0.272989,0.71737 l 3.091655,6.92396 c 0.122355,0.27406 0.441206,0.39746 0.715257,0.27511 0.27404,-0.12236 0.397446,-0.44332 0.275091,-0.71737 l -3.091655,-6.92397 c -0.09177,-0.20553 -0.294658,-0.32607 -0.505759,-0.32165 z m -72.68936,0.0783 c -0.21111,-0.004 -0.41231,0.11592 -0.50363,0.32164 l -3.07898,6.93242 c -0.12177,0.2743 0.003,0.59349 0.27721,0.71526 0.27431,0.12177 0.59137,-0.003 0.71314,-0.27722 l 3.07897,-6.93035 c 0.12177,-0.2743 -0.003,-0.59348 -0.27721,-0.71525 -0.0686,-0.0305 -0.13913,-0.0453 -0.2095,-0.0466 z m 63.930666,3.31387 c -0.0701,-0.005 -0.142378,0.002 -0.213734,0.0254 -0.285427,0.0927 -0.441922,0.39598 -0.349167,0.68139 l 2.344717,7.2139 c 0.09274,0.28542 0.398085,0.4398 0.683511,0.34704 0.285416,-0.0927 0.439799,-0.39808 0.347044,-0.68351 l -2.344717,-7.21173 c -0.06956,-0.21407 -0.257279,-0.35456 -0.467665,-0.37244 z m -55.279236,0.0211 c -0.21037,0.018 -0.39826,0.15831 -0.46766,0.37244 l -2.34049,7.21389 c -0.0925,0.28549 0.0637,0.59098 0.34916,0.6835 0.2855,0.0925 0.59098,-0.0637 0.68352,-0.34915 l 2.33832,-7.2139 c 0.0925,-0.2855 -0.0637,-0.59098 -0.34916,-0.68351 -0.0714,-0.0232 -0.1436,-0.0293 -0.21373,-0.0233 z m 46.428448,2.38068 c -0.06912,-0.0131 -0.142475,-0.0136 -0.215836,0.002 -0.293466,0.0628 -0.477622,0.34984 -0.414771,0.64331 l 1.587053,7.41704 c 0.06284,0.29347 0.349839,0.47762 0.643305,0.41477 0.293455,-0.0628 0.479724,-0.34985 0.416872,-0.6433 l -1.58922,-7.41499 c -0.04713,-0.2201 -0.220029,-0.37955 -0.427457,-0.419 z m -37.574408,0.0148 c -0.20739,0.0397 -0.38049,0.19886 -0.42746,0.41899 l -1.58282,7.41705 c -0.0626,0.29351 0.12336,0.58068 0.41687,0.6433 0.29351,0.0626 0.57857,-0.12336 0.64119,-0.41687 l 1.58283,-7.41704 c 0.0626,-0.29351 -0.12337,-0.58068 -0.41689,-0.64331 -0.0734,-0.0156 -0.14459,-0.0153 -0.21373,-0.002 z m 28.20789,1.45379 c -0.2984,0.032 -0.5123,0.29621 -0.48036,0.59462 l 0.80625,7.54186 c 0.032,0.29842 0.29834,0.5123 0.59674,0.48036 0.29842,-0.032 0.51443,-0.29833 0.48249,-0.59675 l -0.80837,-7.5398 c -0.032,-0.29841 -0.29833,-0.5123 -0.59675,-0.48036 z m -18.72111,0.0191 c -0.29848,-0.0313 -0.56545,0.18401 -0.59675,0.48249 l -0.78932,7.54186 c -0.0313,0.29848 0.18399,0.56545 0.48248,0.59676 0.29848,0.0313 0.56333,-0.184 0.59463,-0.48249 l 0.79144,-7.54402 c 0.0313,-0.29849 -0.184,-0.56333 -0.48248,-0.59464 z"
       opacity="0.15"
       id="path22"
       class="ColorScheme-Text"
       fill="currentColor"
       style="color:#242424;stroke-width:1;stop-color:#242424" />
  </g>
  <g
     id="g12"
     transform="matrix(-0.5417302,0.93830423,-0.93830423,-0.5417302,264.61701,110.27432)"
     stroke-linecap="square"
     style="stroke-width:0.922969">
    <rect
       x="70"
       y="91"
       width="18"
       height="64"
       rx="0"
       ry="0"
       fill="none"
       stroke-width="2.69951"
       id="rect10" />
    <path
       transform="translate(-47)"
       d="m 123.06,105.23 0.93555,46.768 c 0.0222,1.1078 0.892,2 2,2 1.108,0 1.9778,-0.8922 2,-2 l 0.93555,-46.768 a 6,6 0 0 1 -2.9356,0.76758 6,6 0 0 1 -2.9356,-0.76758 z"
       fill="currentColor"
       id="path10"
       class="ColorScheme-Text"
       style="color:#242424;stroke-width:0.922969;stop-color:#242424" />
    <path
       transform="translate(-47)"
       d="m 125.94,96 a 4,4 0 0 0 -3.9394,4 4,4 0 0 0 4,4 4,4 0 0 0 4,-4 4,4 0 0 0 -4,-4 4,4 0 0 0 -0.0606,0 z m 0.0117,2 a 2,2 0 0 1 0.0488,0 2,2 0 0 1 2,2 2,2 0 0 1 -2,2 2,2 0 0 1 -2,-2 2,2 0 0 1 1.9512,-2 z"
       fill="currentColor"
       id="path11"
       class="ColorScheme-Highlight"
       style="color:#3476cf;stroke-width:0.922969;stop-color:#3476cf" />
    <path
       transform="translate(-47)"
       d="m 123.06,105.23 0.93555,46.768 c 0.0222,1.1078 0.892,2 2,2 1.108,0 1.9778,-0.8922 2,-2 l 0.93555,-46.768 a 6,6 0 0 1 -2.9356,0.76758 6,6 0 0 1 -2.9356,-0.76758 z"
       id="path12"
       style="opacity:0.25;fill:#ffffff;stroke-width:0.922969" />
  </g>
  <g
     id="g13"
     stroke-linecap="square"
     style="stroke-width:0.922969"
     transform="matrix(-0.93830423,-0.5417302,0.5417302,-0.93830423,167.62149,278.19819)">
    <rect
       x="96"
       y="96"
       width="8"
       height="81"
       rx="0"
       ry="0"
       fill="none"
       stroke-width="3.32269"
       id="rect12" />
    <path
       d="m 99.939,96 a 4,4 0 0 0 -3.9395,4 4,4 0 0 0 2.0352,3.4844 l 0.96484,67.516 c 0.0079,0.55394 0.446,1 1,1 0.554,0 0.992,-0.44606 1,-1 l 0.96484,-67.516 a 4,4 0 0 0 2.0352,-3.4844 4,4 0 0 0 -4,-4 4,4 0 0 0 -0.06055,0 z m 0.01172,2 a 2,2 0 0 1 0.04883,0 2,2 0 0 1 2,2 2,2 0 0 1 -2,2 2,2 0 0 1 -2,-2 2,2 0 0 1 1.9512,-2 z"
       fill="currentColor"
       id="path13"
       class="ColorScheme-Highlight"
       style="color:#3476cf;stroke-width:0.922969;stop-color:#3476cf" />
  </g>
</svg>
