<svg xmlns="http://www.w3.org/2000/svg" width="16" height="16"><path fill="#dedede" stroke-linecap="round" stroke-linejoin="round" stroke-width="2" d="M8 1q.828 0 1.594.219.765.21 1.43.601.671.39 1.218.938t.938 1.219q.39.664.601 1.43.22.765.22 1.593v5.5q0 .313-.118.586-.117.273-.32.477t-.477.32Q12.813 14 12.5 14H11V8h1.5q.258 0 .5.086V7q0-1.031-.398-1.937-.391-.914-1.07-1.594-.68-.68-1.594-1.07Q9.03 2 8 2T6.055 2.4q-.906.39-1.586 1.07T3.39 5.063Q3 5.969 3 7v1.086Q3.241 8 3.5 8H5v6H3.5q-.313 0-.587-.117-.273-.117-.476-.32t-.32-.477Q2 12.813 2 12.5V7q0-.828.211-1.594.219-.765.61-1.43.39-.671.937-1.218t1.21-.938q.673-.39 1.438-.601Q7.172 1 8 1zM3.5 9q-.203 0-.352.148T3 9.5v3q0 .203.148.352.149.148.352.148H4V9zm9 4q.203 0 .352-.148.148-.149.148-.352v-3q0-.203-.148-.352Q12.703 9 12.5 9H12v4z" aria-label="" style="paint-order:stroke fill markers"/></svg>