<svg xmlns="http://www.w3.org/2000/svg" width="16" height="16"><path fill="#dedede" stroke-linecap="round" stroke-linejoin="round" stroke-width="2" d="M5.5 12q-.313 0-.586-.117-.273-.117-.476-.32t-.32-.477Q4 10.813 4 10.5v-9q0-.313.117-.586t.32-.477.477-.32T5.5 0h4q.313 0 .586.117.273.117.477.32t.32.477Q11 1.187 11 1.5v9q0 .313-.117.586-.117.273-.32.477t-.477.32Q9.813 12 9.5 12zM5 10.5q0 .203.148.352.149.148.352.148h4q.203 0 .352-.148.148-.149.148-.352v-9q0-.203-.148-.352Q9.703 1 9.5 1h-4q-.203 0-.352.148T5 1.5zM13 8v2.828q0 .656-.25 1.234t-.68 1.008q-.43.43-1.007.68T9.828 14H8v1h2v1H5v-1h2v-1H5.172q-.656 0-1.234-.25t-1.008-.68q-.43-.43-.68-1.008T2 10.829V8h1q0 .43-.031.969-.024.539-.008 1.101.016.555.102 1.086.093.524.335.938.243.406.665.656.43.25 1.109.25h4.656q.68 0 1.102-.25.43-.25.672-.656.242-.414.328-.938.093-.531.11-1.086.015-.562-.017-1.093Q12 8.437 12 8z" aria-label="" style="paint-order:stroke fill markers"/></svg>