<svg xmlns="http://www.w3.org/2000/svg" width="16" height="16.003"><path fill="#333" d="M8 .004c-3.315 0-6 2.685-6 6V11h2c.554 0 1-.446 1-1V8c0-.554-.446-1-1-1H3v-.996c0-2.778 2.222-5 5-5 2.779 0 5 2.222 5 5V7h-1c-.554 0-1 .446-1 1v2c0 .554.446 1 1 1h1v1.004c0 1.662-1.338 3-3 3V14c0-.554-.446-1-1-1H7c-.554 0-1 .446-1 1v1c0 .554.446 1 1 1h2v.004h1c2.216 0 4-1.784 4-4v-6c0-3.315-2.684-6-6-6zM3 8h1v2H3V8zm9 0h1v2h-1V8zm-5 6h2v1H7v-1z" style="font-feature-settings:normal;font-variant-alternates:normal;font-variant-caps:normal;font-variant-ligatures:normal;font-variant-numeric:normal;font-variant-position:normal;isolation:auto;mix-blend-mode:normal;shape-padding:0;text-decoration-color:#000;text-decoration-line:none;text-decoration-style:solid;text-indent:0;text-orientation:mixed;text-transform:none"/></svg>