<svg xmlns="http://www.w3.org/2000/svg" width="16" height="16"><path fill="#dedede" d="M8.066.5a6.496 6.496 0 0 0-3.232.824c-.168.101-.221.199-.244.307a.54.54 0 0 0 .064.363c.067.119.17.21.276.248s.216.046.394-.049A5.5 5.5 0 0 1 13.5 6.996v.998c0 .208.06.302.145.377.084.075.216.123.355.123s.271-.048.356-.123c.084-.075.144-.169.144-.377v-.976c0-.022-.003-.043-.004-.065l-.002-.01v-.03l-.002-.03a6.5 6.5 0 0 0-3.205-5.49A6.504 6.504 0 0 0 8.067.5zM2.934 3.316a.497.497 0 0 0-.45.24l-.002.005-.002.001a6.499 6.499 0 0 0-.98 3.434v5.059c0 .208.06.3.145.375.084.075.216.125.355.125s.271-.05.355-.125c.085-.075.145-.167.145-.375V6.996c0-1.027.29-2.035.832-2.906l.002-.002.002-.004c.221-.345.01-.75-.4-.768h-.002zM8 3.498a3.51 3.51 0 0 0-3.5 3.498v.998c0 .208.06.302.145.377.084.075.216.123.355.123s.271-.048.355-.123c.085-.075.145-.169.145-.377v-.998a2.501 2.501 0 0 1 5 0v4.984s.011.37.148.79l.002.001c.206.593.544 1.13.993 1.569l.003.004.006.006c.148.152.256.176.37.17a.55.55 0 0 0 .341-.166c.1-.1.16-.23.166-.342.006-.113-.017-.221-.17-.37l-.004-.001-.001-.002a3.037 3.037 0 0 1-.754-1.178 2.153 2.153 0 0 1-.086-.322.861.861 0 0 1-.014-.114c-.001-.036.006-.115.006-.115l-.006.082V6.996A3.512 3.512 0 0 0 8 3.498zm-.008 2.984a.492.492 0 0 0-.492.506v5.004s0 .548.135 1.22c.138.69.38 1.502 1.011 2.132l.002.002.004.002c.148.152.256.176.37.17a.547.547 0 0 0 .341-.164c.1-.1.16-.23.166-.342.006-.113-.017-.221-.17-.37l-.002-.001-.003-.002c-.42-.418-.62-1.026-.739-1.62-.114-.572-.115-1.027-.115-1.027V6.988a.492.492 0 0 0-.508-.505zm-3 3.998a.492.492 0 0 0-.492.506V13.99c0 .208.06.302.145.377.084.075.216.123.355.123s.271-.048.355-.123c.085-.075.145-.169.145-.377V10.986a.492.492 0 0 0-.508-.506zm9.008.014c-.282 0-.5.217-.5.498 0 .282.218.5.5.5s.5-.218.5-.5a.491.491 0 0 0-.5-.498z"/></svg>