<svg xmlns="http://www.w3.org/2000/svg" width="16" height="16"><path fill="#dedede" d="M2 3C.892 3 0 3.892 0 5v5c0 1.108.892 2 2 2 0 .554.446 1 1 1h1c.554 0 1-.446 1-1h6c0 .554.446 1 1 1h1c.554 0 1-.446 1-1 1.108 0 2-.892 2-2V5c0-1.108-.892-2-2-2H2zm0 1h12c.554 0 1 .446 1 1v5c0 .554-.446 1-1 1H2c-.554 0-1-.446-1-1V5c0-.554.446-1 1-1zm.5 1c-.277 0-.5.223-.5.5v4a.499.499 0 1 0 1 0v-4c0-.277-.223-.5-.5-.5zm2 0c-.277 0-.5.223-.5.5v4a.499.499 0 1 0 1 0v-4c0-.277-.223-.5-.5-.5zm2 0c-.277 0-.5.223-.5.5v4a.499.499 0 1 0 1 0v-4c0-.277-.223-.5-.5-.5zm5 0A2.5 2.5 0 0 0 9 7.5a2.5 2.5 0 0 0 2.5 2.5A2.5 2.5 0 0 0 14 7.5 2.5 2.5 0 0 0 11.5 5zm0 1A1.5 1.5 0 0 1 13 7.5 1.5 1.5 0 0 1 11.5 9 1.5 1.5 0 0 1 10 7.5 1.5 1.5 0 0 1 11.5 6z"/></svg>