<svg xmlns="http://www.w3.org/2000/svg" width="16" height="16.007"><path fill="#dedede" d="M6 0C4.5 0 3.458 1.037 3.068 2.033L.2 8.518c-.003.007-.004.015-.008.023l-.058.15h.012A2.488 2.488 0 0 0 0 9.5c0 .672.265 1.278.693 1.727L.2 12.517c-.003.008-.004.016-.008.024l-.058.15h.012A2.488 2.488 0 0 0 0 13.5C0 14.885 1.115 16 2.5 16h11c1.385 0 2.5-1.115 2.5-2.5 0-.285-.057-.554-.144-.809h.011l-.058-.15-.004-.016-.004-.007-.494-1.291A2.489 2.489 0 0 0 16 9.5c0-.285-.057-.554-.144-.809h.011l-.058-.15-.004-.016-.004-.007-2.87-6.485c-.388-.996-1.434-2.116-2.93-2.033H6zm0 1h4c1.108 0 1.708.65 2 1.397l2.147 4.708A2.205 2.205 0 0 0 13.5 7h-11c-.24 0-.429.039-.648.102L4 2.396C4.292 1.65 4.892 1 6 1zM2.5 8h11c.831 0 1.5.669 1.5 1.5s-.669 1.5-1.5 1.5h-11C1.669 11 1 10.331 1 9.5S1.669 8 2.5 8zm5.988 1A.5.5 0 0 0 8 9.5a.5.5 0 0 0 .5.5.5.5 0 0 0 .5-.5.5.5 0 0 0-.5-.5.5.5 0 0 0-.012 0zm2 0a.5.5 0 0 0-.488.5.5.5 0 0 0 .5.5.5.5 0 0 0 .5-.5.5.5 0 0 0-.5-.5.5.5 0 0 0-.012 0zm2 0a.5.5 0 0 0-.488.5.5.5 0 0 0 .5.5.5.5 0 0 0 .5-.5.5.5 0 0 0-.5-.5.5.5 0 0 0-.012 0zM2.5 12h11c.831 0 1.5.669 1.5 1.5s-.669 1.5-1.5 1.5h-11c-.831 0-1.5-.669-1.5-1.5S1.669 12 2.5 12zm5.988 1a.5.5 0 0 0-.488.5.5.5 0 0 0 .5.5.5.5 0 0 0 .5-.5.5.5 0 0 0-.5-.5.5.5 0 0 0-.012 0zm2 0a.5.5 0 0 0-.488.5.5.5 0 0 0 .5.5.5.5 0 0 0 .5-.5.5.5 0 0 0-.5-.5.5.5 0 0 0-.012 0zm2 0a.5.5 0 0 0-.488.5.5.5 0 0 0 .5.5.5.5 0 0 0 .5-.5.5.5 0 0 0-.5-.5.5.5 0 0 0-.012 0z" color="#dedede"/></svg>