<svg xmlns="http://www.w3.org/2000/svg" viewBox="0 0 16 16"><path fill="currentColor" d="M11.557 11c.35 0 .633.282.633.63 0 .35-.284.636-.633.636a.635.635 0 0 1-.633-.635c0-.35.284-.631.633-.631zM13 11a.633.633 0 1 1 .004 1.266A.633.633 0 0 1 13 11zm-1.84 1.49h2.237c.13 0 .234.13.234.291v.26c.001.017.016.081.184.023l.92-.32c.029-.011.092-.024.092.07v1.608c0 .07-.038.073-.073.062l-.953-.226c-.156-.037-.169.01-.17.023v.178c0 .161-.104.291-.234.291H11.16c-.13 0-.237-.13-.237-.291V12.78c0-.16.106-.29.237-.29z" style="color:#dedede"/><path fill="#dedede" d="M8 5C6.32 5 5 6.32 5 8s1.32 3 3 3 3-1.32 3-3-1.32-3-3-3zm.006 1.006a2.002 2.002 0 0 1 1.996 1.996 2.002 2.002 0 0 1-1.996 1.996c-1.098 0-2.014-.897-2.014-1.996 0-1.098.916-1.996 2.014-1.996z" color="#bebebe" style="font-feature-settings:normal;font-variant-alternates:normal;font-variant-caps:normal;font-variant-ligatures:normal;font-variant-numeric:normal;font-variant-position:normal;isolation:auto;mix-blend-mode:normal;shape-padding:0;text-decoration-color:#000;text-decoration-line:none;text-decoration-style:solid;text-indent:0;text-orientation:mixed;text-transform:none"/><path fill="#dedede" d="M8 0a8 8 0 0 0-8 8 8 8 0 0 0 8 8 8 8 0 0 0 2-.254v-1.039A7 7 0 0 1 8 15a7 7 0 0 1-7-7 7 7 0 0 1 6.906-7A7 7 0 0 1 8 1a7 7 0 0 1 7 7 7 7 0 0 1-.293 2h1.04A8 8 0 0 0 16 8a8 8 0 0 0-8-8z"/></svg>