<svg xmlns="http://www.w3.org/2000/svg" viewBox="0 0 16 16"><path fill="currentColor" d="M13.48 11.023c.046 0 .096.003.148.01h.002c.704.059 1.202.298 1.48.71.308.458.265 1.016.212 1.309a.065.065 0 0 1-.053.051.062.062 0 0 1-.066-.03 2.167 2.167 0 0 0-.282-.38c-.325-.347-.73-.531-1.168-.531-.037 0-.074.001-.112.004v2.596c0 .481-.36.877-.859.94-.045.005-.09.009-.135.009-.48 0-.885-.326-.94-.757a.829.829 0 0 1 .206-.65A1.06 1.06 0 0 1 13 14v-2.647c0-.153.124-.33.479-.33z" style="color:#dedede"/><path fill="#dedede" d="M8 5C6.32 5 5 6.32 5 8s1.32 3 3 3 3-1.32 3-3-1.32-3-3-3zm.006 1.006a2.002 2.002 0 0 1 1.996 1.996 2.002 2.002 0 0 1-1.996 1.996c-1.098 0-2.014-.897-2.014-1.996 0-1.098.916-1.996 2.014-1.996z" color="#bebebe" style="font-feature-settings:normal;font-variant-alternates:normal;font-variant-caps:normal;font-variant-ligatures:normal;font-variant-numeric:normal;font-variant-position:normal;isolation:auto;mix-blend-mode:normal;shape-padding:0;text-decoration-color:#000;text-decoration-line:none;text-decoration-style:solid;text-indent:0;text-orientation:mixed;text-transform:none"/><path fill="#dedede" d="M8 0a8 8 0 0 0-8 8 8 8 0 0 0 8 8 8 8 0 0 0 3-.584v-1.092A7 7 0 0 1 8 15a7 7 0 0 1-7-7 7 7 0 0 1 6.906-7A7 7 0 0 1 8 1a7 7 0 0 1 7 7 7 7 0 0 1-.293 2h1.04A8 8 0 0 0 16 8a8 8 0 0 0-8-8z"/></svg>