<svg xmlns="http://www.w3.org/2000/svg" width="16" height="16"><path fill="#dedede" d="m5.24.087-.717.216A3.5 3.5 0 0 0 2.07 3.157c-.297 2.069.367 4.487 1.968 7.259 1.597 2.766 3.355 4.549 5.29 5.328a3.5 3.5 0 0 0 3.715-.705l.542-.514a2 2 0 0 0 .247-2.622l-1.357-1.88a1.5 1.5 0 0 0-1.654-.557l-2.051.627-.053.01c-.226.033-.748-.456-1.398-1.582-.68-1.178-.82-1.867-.633-2.044l1.043-.973a2.497 2.497 0 0 0 .575-2.85L7.64 1.181A2 2 0 0 0 5.24.087zm1.49 1.505.66 1.472a1.497 1.497 0 0 1-.344 1.709L6 5.748c-.669.633-.447 1.716.452 3.273.846 1.466 1.618 2.19 2.448 2.065l.124-.027 2.088-.637a.5.5 0 0 1 .552.186l1.356 1.88a1 1 0 0 1-.123 1.311l-.543.514a2.5 2.5 0 0 1-2.653.504c-1.698-.684-3.303-2.312-4.798-4.901C3.405 7.32 2.798 5.114 3.059 3.299a2.5 2.5 0 0 1 1.753-2.038l.717-.216a1 1 0 0 1 1.2.547z"/></svg>