<svg xmlns="http://www.w3.org/2000/svg" width="16" height="16"><path fill="#dedede" d="M5 0C3.892 0 3 .892 3 2v12c0 1.108.892 2 2 2h6c1.108 0 2-.892 2-2V2c0-1.108-.892-2-2-2H5zm0 1h6c.554 0 1 .446 1 1v12c0 .554-.446 1-1 1H5c-.554 0-1-.446-1-1V2c0-.554.446-1 1-1z" style="paint-order:stroke fill markers"/><circle cx="8" cy="13" r="1" fill="#dedede" style="paint-order:stroke fill markers"/><rect width="8" height="1" x="4" y="7" fill="#dedede" rx="0" ry="0" style="paint-order:stroke fill markers"/><path fill="#dedede" d="M5 2v4h6V2H5zm1 1h4v2H6V3z" style="paint-order:stroke fill markers"/></svg>