<svg xmlns="http://www.w3.org/2000/svg" width="16" height="16"><path fill="#dedede" d="M3.5 0c-.277 0-.5.223-.5.5V13c0 1.108.892 2 2 2h5c1.108 0 2-.892 2-2V5c0-1.108-.892-2-2-2H5c-.365 0-.706.098-1 .268V.5c0-.277-.223-.5-.5-.5zM5 4h5c.554 0 1 .446 1 1v8c0 .554-.446 1-1 1H5c-.554 0-1-.446-1-1V5c0-.554.446-1 1-1zm.756 1a.75.75 0 0 0-.752.752v1.496A.75.75 0 0 0 5.756 8h3.496a.75.75 0 0 0 .75-.752V5.752A.75.75 0 0 0 9.25 5H5.756zM6 6h3v1H6V6zm-.496 4c-.667 0-.667 1 0 1h1.143c.666 0 .666-1 0-1H5.504zm2.855 0c-.666 0-.666 1 0 1h1.145c.667 0 .667-1 0-1H8.359zm-2.855 2c-.667 0-.667 1 0 1h1.143c.666 0 .666-1 0-1H5.504zm2.855 0c-.666 0-.666 1 0 1h1.145c.667 0 .667-1 0-1H8.359z"/></svg>