<svg xmlns="http://www.w3.org/2000/svg" width="16" height="16" viewBox="0 0 4.233 4.233"><path fill="#dedede" d="M4.233 2.91H3.97v1.191a.132.132 0 0 1-.133.132H2.778a.132.132 0 0 1-.132-.132v-1.19H0v-.53h.53V.132A.13.13 0 0 1 .66 0h1.06c.073 0 .132.059.132.132v2.25h.265V.925c0-.073.059-.132.132-.132h1.058c.074 0 .133.059.133.132V2.38h.793zm-.529 1.06V2.91H2.91v1.06zm-.529-1.59V1.058h-.794v1.323zm-1.587 0V.265H.794V2.38z" style="marker:none"/><rect width="1.323" height=".794" x="-3.969" y="-3.704" fill="#dedede" fill-opacity=".931" opacity=".3" rx="0" ry="0" style="marker:none" transform="matrix(0 -1 -1 0 0 0)"/><path fill="#dedede" fill-opacity=".931" d="M3.175 2.646h-.794V1.058h.794zm-1.587 0H.794V.265h.794z" opacity=".1"/></svg>