<svg xmlns="http://www.w3.org/2000/svg" width="16" height="16" viewBox="0 0 4.233 4.233"><path fill="#dedede" d="M2.91 0v.265h1.191c.073 0 .132.059.132.132v1.058a.132.132 0 0 1-.132.132h-1.19v2.646h-.53v-.529H.132A.132.132 0 0 1 0 3.572V2.514c0-.074.059-.133.132-.133h2.25v-.264H.925a.132.132 0 0 1-.132-.133V.926c0-.073.059-.132.132-.132H2.38V0zm1.06.53H2.91v.793h1.06zm-1.588.528H1.058v.794h1.323zm0 1.588H.265v.794H2.38z" style="marker:none"/><rect width="1.323" height=".794" x="-3.969" y=".529" fill="#dedede" fill-opacity=".931" opacity=".3" rx="0" ry="0" style="marker:none" transform="scale(-1 1)"/><path fill="#dedede" fill-opacity=".931" d="M2.646 1.058v.794H1.058v-.794zm0 1.588v.794H.265v-.794z" opacity=".1"/></svg>