<svg xmlns="http://www.w3.org/2000/svg" width="16" height="16"><path fill="#dedede" d="M8 1C6.338 1 5 2.338 5 4v2h1V4c0-1.108.892-2 2-2h4c1.108 0 2 .892 2 2v8c0 1.108-.892 2-2 2H8c-1.108 0-2-.892-2-2v-2H5v2c0 1.662 1.338 3 3 3h4c1.662 0 3-1.338 3-3V4c0-1.662-1.338-3-3-3H8zM3.328 4.67a.5.5 0 0 0-.353.148L.146 7.646a.48.48 0 0 0-.033.038v.002l-.008.01a.494.494 0 0 0-.033.05l-.006.01c-.01.018-.02.036-.029.056l-.006.016a.482.482 0 0 0-.03.121v.004a.5.5 0 0 0 0 .094v.002a.516.516 0 0 0 .036.14l.016.032a.497.497 0 0 0 .05.082l.01.011v.002c.01.013.022.026.033.037l2.829 2.829a.499.499 0 1 0 .707-.707L1.707 8.5H9.5a.499.499 0 1 0 0-1H1.707l1.975-1.975a.499.499 0 0 0 0-.707.5.5 0 0 0-.354-.148z"/></svg>