<svg xmlns="http://www.w3.org/2000/svg" width="16" height="16"><path fill="#dedede" d="M3 1c-1.108 0-2 .892-2 2v10c0 1.108.892 2 2 2h5v-1H3c-.554 0-1-.446-1-1V3c0-.554.446-1 1-1h10c.554 0 1 .446 1 1v5h1V3c0-1.108-.892-2-2-2H3zm1.5 4a.499.499 0 1 0 0 1h7a.499.499 0 1 0 0-1h-7zm0 2a.499.499 0 1 0 0 1h3.857A3.988 3.988 0 0 1 10 7.143v-.14C8.256 7 6.282 7 4.5 7zm0 2a.499.499 0 1 0 0 1h2.633a4 4 0 0 1 .158-.488l.012-.032A4 4 0 0 1 7.547 9H4.5zm0 2a.499.499 0 1 0 0 1h2.633A4 4 0 0 1 7 11H4.5z"/><path fill="#dedede" d="M10.957 8a3 3 0 0 0-2.078.878 3 3 0 0 0 0 4.244 3 3 0 0 0 3.86.324l1.796 1.797a.499.499 0 1 0 .707-.707l-1.8-1.8a3 3 0 0 0-.32-3.858A3 3 0 0 0 10.956 8zm.072 1a2 2 0 0 1 1.385.587 2 2 0 0 1 0 2.828 2 2 0 0 1-2.828 0 2 2 0 0 1 0-2.828A2 2 0 0 1 11.029 9z"/></svg>