<svg width="16" height="16"><path fill="#dedede" d="M3 0a5 5 0 0 0 5 5h3a1 1 0 0 1 .102.006 1 1 0 0 1 .035.004c.008 0 .015.002.023.004.034.005.069.012.102.021a1 1 0 0 1 .008.002h.002c.02.006.041.014.062.022.019.006.038.011.057.02a1 1 0 0 1 .007.003 1 1 0 0 1 .079.04l.021.01a1 1 0 0 1 .022.014 1 1 0 0 1 .056.038 1 1 0 0 1 .055.04l.006.005a1 1 0 0 1 .045.04l.002.002a1 1 0 0 1 .047.047l.04.045a1 1 0 0 1 .045.06l.038.057a1 1 0 0 1 .013.022l.012.021a1 1 0 0 1 .04.079l.003.007a1 1 0 0 1 .02.057c.007.02.015.041.021.063a1 1 0 0 1 0 .001l.002.008c.009.033.016.068.021.102a1 1 0 0 1 .004.023l.004.035A1 1 0 0 1 12 6v1h1V6a2 2 0 0 0-2-2H8a4 4 0 0 1-4-4H3zm2 0a3 3 0 0 0 3 3h3a3 3 0 0 1 3 3v1h1V6a4 4 0 0 0-4-4H8a2 2 0 0 1-2-2zm7 8v4h2c.554 0 1-.446 1-1V9c0-.554-.446-1-1-1h-1zM0 8.012v4h11V11H1V9h10v-.988H0z" opacity=".35"/><rect width="22" height="1" x=".314" y="-.5" fill="#dedede" rx=".5" ry=".5" style="paint-order:stroke fill markers" transform="rotate(45)"/></svg>