<svg xmlns="http://www.w3.org/2000/svg" width="16" height="16"><path fill="#dedede" d="M8 0C5.784 0 4 1.784 4 4h1c0-1.662 1.338-3 3-3s3 1.338 3 3v2h1V4c0-2.216-1.784-4-4-4zM4 6c-1.108 0-2 .892-2 2v5c0 1.108.892 2 2 2h3.268a5.5 5.5 0 0 1-.655-1H4c-.554 0-1-.446-1-1V8c0-.554.446-1 1-1h4.357A5.5 5.5 0 0 1 11.5 6H4z"/><path fill="#dedede" d="M11.5 7A4.5 4.5 0 0 0 7 11.5a4.5 4.5 0 0 0 4.5 4.5 4.5 4.5 0 0 0 4.5-4.5A4.5 4.5 0 0 0 11.5 7zm-.426 1.5h.844l2.037 6h-.8l-.575-1.834h-2.193L9.805 14.5h-.76l2.03-6zm.393.613a48.963 48.963 0 0 1-.598 2.031l-.295.924h1.819l-.287-.924a53.12 53.12 0 0 1-.606-2.03h-.033z" style="paint-order:stroke fill markers"/></svg>