<svg xmlns="http://www.w3.org/2000/svg" viewBox="0 0 16 16"><defs><style id="current-color-scheme" type="text/css">.ColorScheme-Text{color:#dedede}</style></defs><path fill="#dedede" d="M5 0a2 2 0 0 0-2 2v4.207a5.48 5.48 0 0 1 1-.186V2c0-.552.448-.987 1-1h4v3.5A1.5 1.5 0 0 0 10.5 6H14v7a1 1 0 0 1-1 1H9.4a5.51 5.51 0 0 1-.658 1H13a2 2 0 0 0 2-2V5.414a1.5 1.5 0 0 0-.44-1.06L10.647.439A1.5 1.5 0 0 0 9.586 0H5zm5 1.207L13.793 5H10.5a.5.5 0 0 1-.5-.5V1.207zM4.5 7a4.5 4.5 0 1 0 0 9 4.5 4.5 0 0 0 0-9zm.586 2.584a.5.5 0 0 1 .353.148l1.38 1.381c.012.01.023.022.035.034.01.01.023.022.033.035v.004c.005.006.012.012.017.02l.008.01.002.005.004.004c.008.012.015.024.021.037l.004.006.01.023.01.022c.012.029.021.06.027.091.003.015.007.03.008.045v.004a.5.5 0 0 1 0 .094v.004c-.001.015-.005.03-.008.045a.493.493 0 0 1-.027.092l-.01.021-.004.008-.006.015c0 .003-.002.004-.004.006-.006.013-.013.026-.021.037-.005.009-.012.016-.018.024a.523.523 0 0 1-.082.088l-1.379 1.38a.499.499 0 1 1-.707-.706l.561-.56H2.5a.499.499 0 1 1 0-1h2.793l-.56-.561a.499.499 0 0 1 0-.707.5.5 0 0 1 .353-.149z"/></svg>