<svg xmlns="http://www.w3.org/2000/svg" width="16" height="16"><defs><style id="current-color-scheme" type="text/css">.ColorScheme-Text{color:#dedede}</style></defs><path fill="#dedede" stroke-linecap="round" stroke-linejoin="round" stroke-width="1.5" d="M6 0c-.554 0-1 .446-1 1v1H1v1h1v12c0 .554.446 1 1 1h9c.554 0 1-.446 1-1V3h1V2h-4V1c0-.554-.446-1-1-1zm0 1h3v1H6zM3 3h9v12H3z" style="paint-order:stroke fill markers"/><rect width="1" height="8" x="5" y="5" fill="#dedede" stroke-linecap="round" stroke-linejoin="round" stroke-width="1.5" rx="0" ry="0" style="paint-order:stroke fill markers"/><rect width="1" height="8" x="7" y="5" fill="#dedede" stroke-linecap="round" stroke-linejoin="round" stroke-width="1.5" rx="0" ry="0" style="paint-order:stroke fill markers"/><rect width="1" height="8" x="9" y="5" fill="#dedede" stroke-linecap="round" stroke-linejoin="round" stroke-width="1.5" rx="0" ry="0" style="paint-order:stroke fill markers"/></svg>