<svg width="16" height="16"><path fill="#dedede" d="M8.006 0A1.506 1.506 0 0 0 6.6.96a1 1 0 0 0 0 .003l-1.567 4.07L.961 6.6A1.54 1.54 0 0 0 .001 8c0 .563.364 1.17.96 1.4l4.072 1.567L6.6 15.039c.23.596.838.961 1.4.961a1.54 1.54 0 0 0 1.4-.963l1.567-4.07 4.07-1.567A1.54 1.54 0 0 0 16 8a1.54 1.54 0 0 0-.96-1.4h-.003l-4.07-1.567L9.4.963a1 1 0 0 0 0-.002 1.505 1.505 0 0 0-1.394-.96zm-.004 1c.206 0 .39.13.465.322l1.726 4.485 4.487 1.726a.5.5 0 0 1 0 .934l-4.487 1.726-1.726 4.487a.5.5 0 0 1-.934 0l-1.726-4.487L1.32 8.467a.5.5 0 0 1 0-.934l4.487-1.726 1.726-4.485A.502.502 0 0 1 8.002 1zm4.646.906a1.495 1.495 0 0 0-.662.127l-.941.418.36.936.988-.44a.5.5 0 0 1 .66.66l-.44.989.936.36.418-.942a1.502 1.502 0 0 0-1.318-2.107zm-9.316.006a1.54 1.54 0 0 0-.988.432 1.541 1.541 0 0 0-.31 1.67l.417.941.936-.36-.44-.988a.5.5 0 0 1 .66-.66l.989.44.36-.936-.942-.418a1.47 1.47 0 0 0-.682-.12zM8 6a2 2 0 0 0-2 2 2 2 0 0 0 2 2 2 2 0 0 0 2-2 2 2 0 0 0-2-2zm0 1a1 1 0 0 1 1 1 1 1 0 0 1-1 1 1 1 0 0 1-1-1 1 1 0 0 1 1-1zm-5.549 4.045-.418.941a1.54 1.54 0 0 0 .31 1.67c.399.398 1.086.57 1.67.31l.942-.417-.36-.936-.987.44a.5.5 0 0 1-.66-.66l.439-.989-.936-.36zm11.098 0-.935.36.44.988a.5.5 0 0 1-.661.66l-.988-.44-.36.936.942.418c.584.26 1.272.087 1.67-.31.397-.399.57-1.087.31-1.67l-.418-.942z"/></svg>