<svg width="16" height="16"><path fill="#dedede" d="M4 3c-1.108 0-2 .892-2 2v7c0 1.108.892 2 2 2h7c1.108 0 2-.892 2-2V9h-1v3c0 .554-.446 1-1 1H4c-.554 0-1-.446-1-1V5c0-.554.446-1 1-1h3V3H4z" style="paint-order:stroke fill markers"/><path fill="#dedede" d="M8.5 2a.499.499 0 1 0 0 1h3.793L8.195 7.096a.501.501 0 1 0 .71.709L13 3.707V7.5a.499.499 0 1 0 1 0v-5a.5.5 0 0 0-.002-.047V2.45c-.001-.015-.005-.03-.008-.045a.493.493 0 0 0-.027-.092l-.014-.029-.006-.015c0-.002-.002-.004-.004-.006-.006-.013-.013-.026-.021-.037l-.004-.004-.006-.008a.5.5 0 0 0-.12-.121.494.494 0 0 0-.071-.041l-.03-.014a.493.493 0 0 0-.091-.027c-.015-.003-.03-.007-.045-.008h-.004A.48.48 0 0 0 13.5 2h-5z"/></svg>