<svg xmlns="http://www.w3.org/2000/svg" width="16" height="16"><g fill="#dedede"><g color="#000"><path d="M8 8H2v1h6zM8 13H2v1h6zM8 3H2v1h6z"/></g><g color="#dedede"><path d="M10.68 4.948V4.36h1.213V1.658l-1.174.593V1.63l1.226-.644h.923V4.36h1.122v.588z" aria-label="1"/><path d="M10.62 10.05v-.557q.188-.344.534-.672.35-.328.878-.684.507-.342.709-.564.206-.223.206-.436 0-.525-.634-.525-.309 0-.473.14-.161.137-.21.413l-.969-.045q.082-.559.5-.853.422-.293 1.145-.293.781 0 1.2.296.417.297.417.832 0 .283-.133.51-.134.228-.343.422-.21.191-.466.36l-.494.327q-.24.16-.438.322-.196.163-.291.348h2.24v.658z" aria-label="2"/><path d="M13.998 13.877q0 .587-.428.907-.428.32-1.219.32-.748 0-1.189-.308-.441-.31-.517-.895l.942-.074q.089.602.76.602.334 0 .518-.148t.185-.454q0-.279-.224-.427-.224-.148-.666-.148h-.323v-.673h.303q.399 0 .6-.145.2-.148.2-.421 0-.258-.16-.403-.159-.149-.465-.149-.287 0-.465.143-.174.142-.2.403l-.926-.06q.072-.539.497-.844.425-.306 1.11-.306.728 0 1.137.297.412.293.412.815 0 .391-.257.643-.254.252-.735.335v.012q.534.057.82.317.29.258.29.661z" aria-label="3"/></g></g></svg>