<svg xmlns="http://www.w3.org/2000/svg" width="16" height="16"><path fill="#dedede" d="M2 14v1h12v-1z"/><path fill="#dedede" stroke-width=".36" d="M11.765 5.254c0-.72-.043-.922-.274-1.411C10.916 2.633 9.691 2 7.921 2 5.617 2 4.19 3.18 4.19 5.081c0 1.282.677 2.088 2.06 2.448l2.606.69c1.339.346 1.929.88 1.929 1.7 0 .561-.303 1.137-.749 1.454-.417.302-1.08.446-1.93.446-1.15 0-1.914-.273-2.418-.878-.389-.46-.561-.964-.547-1.612H3.875c.014.964.202 1.598.619 2.174.72.993 1.93 1.497 3.528 1.497 1.252 0 2.274-.288 2.951-.806.706-.562 1.152-1.498 1.152-2.405 0-1.295-.806-2.246-2.232-2.634l-2.635-.706C5.991 6.104 5.531 5.7 5.531 4.894c0-1.065.936-1.77 2.347-1.77 1.67 0 2.606.748 2.62 2.13z" aria-label="S"/></svg>