<svg width="20" height="18" viewBox="0 0 20 18" fill="none" xmlns="http://www.w3.org/2000/svg">
<path opacity="0.8125" d="M5.35417 17.9C4.53993 17.9 3.85026 17.6038 3.28517 17.0114C2.72006 16.4191 2.4375 15.7085 2.4375 14.8797V7.65254C2.4375 7.17786 2.54188 6.72666 2.75065 6.29892C2.95941 5.87119 3.25086 5.51698 3.625 5.23629L8.25365 1.63074C8.50122 1.44561 8.77583 1.29911 9.0775 1.19124C9.37917 1.08338 9.68819 1.02944 10.0046 1.02944C10.321 1.02944 10.6285 1.08338 10.9271 1.19124C11.2257 1.29911 11.4988 1.44561 11.7464 1.63074L16.375 5.23629C16.7617 5.52214 17.0563 5.87811 17.2588 6.30419C17.4613 6.73027 17.5625 7.17972 17.5625 7.65254V14.8797C17.5625 15.7085 17.2799 16.4191 16.7148 17.0114C16.1497 17.6038 15.4601 17.9 14.6458 17.9H12.9583C12.406 17.9 11.9583 17.4523 11.9583 16.9V11.6944C11.9583 11.1421 11.5106 10.6944 10.9583 10.6944H9.04167C8.48938 10.6944 8.04167 11.1421 8.04167 11.6944V16.9C8.04167 17.4523 7.59395 17.9 7.04167 17.9H5.35417Z" fill="url(#paint0_linear_0_1)"/>
<path d="M1 7.1132L9.43188 1.29221C9.77384 1.05613 10.2262 1.05613 10.5681 1.29221L19 7.1132" stroke="#6F5C38" stroke-width="2" stroke-linecap="round"/>
<defs>
<linearGradient id="paint0_linear_0_1" x1="17.5625" y1="1.02944" x2="1.81966" y2="8.08643" gradientUnits="userSpaceOnUse">
<stop stop-color="#FFE795"/>
<stop offset="1" stop-color="#7A653E"/>
</linearGradient>
</defs>
</svg>
