<svg xmlns="http://www.w3.org/2000/svg" width="16" height="16"><path fill="#dedede" d="M8 1c-.558 0-.827.299-.998.494a3.024 3.024 0 0 0-.395.596c-.222.415-.42.894-.609 1.379s-.369.97-.52 1.342a7.023 7.023 0 0 1-.193.441c-.005.01-.008.01-.014.02-.009.005-.009.008-.02.013-.099.05-.255.118-.44.194-.371.15-.858.33-1.342.519s-.964.387-1.38.61c-.207.11-.4.223-.595.394C1.3 7.173 1 7.442 1 8s.299.827.494.998c.196.171.388.283.596.395.415.222.894.42 1.379.609.484.19.97.369 1.342.52.185.075.341.143.44.193.012.005.013.008.022.014l.012.019c.05.1.118.256.194.441.15.371.33.858.519 1.342s.387.964.61 1.38c.11.207.223.4.394.595.171.195.44.494.998.494s.827-.299.998-.494c.171-.196.283-.388.395-.596.222-.415.42-.894.609-1.379.19-.484.369-.97.52-1.342.075-.185.143-.341.193-.441.005-.01.008-.012.014-.021l.019-.012c.1-.05.256-.118.441-.194.371-.15.858-.33 1.342-.519.485-.19.964-.387 1.38-.61.207-.11.4-.223.595-.394C14.7 8.827 15 8.558 15 8s-.299-.827-.494-.998a3.024 3.024 0 0 0-.596-.395c-.415-.222-.894-.42-1.379-.609s-.97-.369-1.342-.52a7.026 7.026 0 0 1-.441-.193c-.01-.005-.01-.008-.02-.014-.005-.009-.008-.009-.013-.019-.05-.1-.118-.256-.194-.441-.15-.371-.33-.858-.52-1.342-.189-.485-.386-.964-.608-1.38a3.023 3.023 0 0 0-.395-.595C8.827 1.3 8.558 1 8 1zm0 1c.617 0 1.569 3.558 2.006 3.994C10.442 6.431 14 7.383 14 8s-3.558 1.569-3.994 2.006C9.569 10.442 8.617 14 8 14s-1.569-3.558-2.006-3.994C5.558 9.569 2 8.617 2 8s3.558-1.569 3.994-2.006C6.431 5.558 7.383 2 8 2z" color="#000" style="font-feature-settings:normal;font-variant-alternates:normal;font-variant-caps:normal;font-variant-ligatures:normal;font-variant-numeric:normal;font-variant-position:normal;isolation:auto;mix-blend-mode:normal;shape-padding:0;text-decoration-color:#000;text-decoration-line:none;text-decoration-style:solid;text-indent:0;text-orientation:mixed;text-transform:none;white-space:normal"/></svg>