<svg xmlns="http://www.w3.org/2000/svg" width="16" height="16"><path fill="#dedede" d="M1 8v1h1V8zm2 0v1h1V8zm2 0v1h1V8zm2 0v1h1V8zm2 0v1h1V8zm2 0v1h1V8zm2 0v1h1V8zm2 0v1h1V8zM13.031 1.287a2.029 2.029 0 0 0-.406.016L1.729 2.81A1.996 1.996 0 0 0 .022 5.066L.289 7H1.3l-.287-2.07a.997.997 0 0 1 .854-1.127l10.896-1.51a.997.997 0 0 1 1.127.853L14.424 7h1.01l-.553-3.992a1.994 1.994 0 0 0-1.85-1.721zm-8.248 3.15A1.5 1.5 0 0 0 3.199 6.14c.047.342.21.636.438.86h2.1a1.496 1.496 0 0 0-.954-2.563zm5.557 2.229L10.12 7h.571l-.351-.334zM.705 10l.414 2.992a1.995 1.995 0 0 0 2.256 1.705L14.27 13.19a1.996 1.996 0 0 0 1.707-2.256l-.13-.934H14.84l.148 1.07L13.86 10H8.163l-.722 1.106L5.566 10H4.269L2.11 12.854 1.714 10H.704z"/></svg>