<svg xmlns="http://www.w3.org/2000/svg" width="16" height="16"><path fill="#dedede" d="M2.343 9.414a2.993 2.993 0 0 0 0 4.243 2.993 2.993 0 0 0 4.243 0l2.828-2.829a2.993 2.993 0 0 0 0-4.242 2.986 2.986 0 0 0-.835-.58L8 6.587c-.064.063-.099.139-.142.21.31.093.604.251.85.497a1.996 1.996 0 0 1 0 2.828l-2.83 2.828a1.996 1.996 0 0 1-2.828 0 1.996 1.996 0 0 1 0-2.828l1.81-1.81a4.017 4.017 0 0 1-.12-1.293zm4.243-4.243a2.993 2.993 0 0 0 0 4.243c.25.25.535.435.835.579L8 9.414c.064-.064.099-.14.142-.211a1.98 1.98 0 0 1-.85-.496 1.996 1.996 0 0 1 0-2.828l2.83-2.829a1.996 1.996 0 0 1 2.828 0 1.996 1.996 0 0 1 0 2.829l-1.81 1.809c.111.424.15.858.12 1.294l2.397-2.396a2.993 2.993 0 0 0 0-4.243 2.993 2.993 0 0 0-4.243 0z"/></svg>