<svg xmlns="http://www.w3.org/2000/svg" width="16" height="15.974"><path fill="#dedede" d="M14.706 1.26a.5.5 0 0 0-.025-.023.5.5 0 0 0-.048-.035.5.5 0 0 0-.013-.006.5.5 0 0 0-.037-.021.5.5 0 0 0-.03-.014.5.5 0 0 0-.047-.017.5.5 0 0 0-.017-.005.5.5 0 0 0-.037-.007.5.5 0 0 0-.011-.003.5.5 0 0 0-.033-.002.5.5 0 0 0-.05-.003.5.5 0 0 0-.033.003.5.5 0 0 0-.017 0 .5.5 0 0 0-.016.002.5.5 0 0 0-.033.006.5.5 0 0 0-.043.01.5.5 0 0 0-.01.004.5.5 0 0 0-.012.004.5.5 0 0 0-.03.012.5.5 0 0 0-.004.002L1.432 6.823a.5.5 0 0 0 .007.916l4.767 2.043 2.042 4.766a.5.5 0 0 0 .916.007l5.643-12.698a.5.5 0 0 0 .045-.126.5.5 0 0 0 .003-.017.5.5 0 0 0 .004-.031.5.5 0 0 0 .004-.043.5.5 0 0 0 0-.008.5.5 0 0 0 0-.017.5.5 0 0 0-.001-.032.5.5 0 0 0-.001-.018.5.5 0 0 0-.006-.033.5.5 0 0 0-.004-.015.5.5 0 0 0-.007-.032.5.5 0 0 0-.005-.016.5.5 0 0 0-.012-.03.5.5 0 0 0-.02-.046.5.5 0 0 0-.017-.03.5.5 0 0 0-.008-.015.5.5 0 0 0-.01-.012.5.5 0 0 0-.032-.04.5.5 0 0 0-.034-.037zm-2.6 1.915L6.471 8.808 2.887 7.272zm.707.707L8.715 13.1 7.179 9.515z" color="#000" style="font-feature-settings:normal;font-variant-alternates:normal;font-variant-caps:normal;font-variant-ligatures:normal;font-variant-numeric:normal;font-variant-position:normal;isolation:auto;mix-blend-mode:normal;shape-padding:0;text-decoration-color:#000;text-decoration-line:none;text-decoration-style:solid;text-indent:0;text-orientation:mixed;text-transform:none;white-space:normal"/></svg>