<svg xmlns="http://www.w3.org/2000/svg" width="16" height="15.974"><path fill="#dedede" d="M1.294 1.26a.5.5 0 0 1 .025-.023.5.5 0 0 1 .048-.035.5.5 0 0 1 .013-.006.5.5 0 0 1 .037-.021.5.5 0 0 1 .03-.014.5.5 0 0 1 .047-.017.5.5 0 0 1 .017-.005.5.5 0 0 1 .037-.007.5.5 0 0 1 .011-.003.5.5 0 0 1 .034-.002.5.5 0 0 1 .05-.003.5.5 0 0 1 .032.003.5.5 0 0 1 .017 0 .5.5 0 0 1 .017.002.5.5 0 0 1 .033.006.5.5 0 0 1 .042.01.5.5 0 0 1 .01.004.5.5 0 0 1 .013.004.5.5 0 0 1 .029.012.5.5 0 0 1 .004.002l12.728 5.656a.5.5 0 0 1-.007.916L9.795 9.782l-2.043 4.766a.5.5 0 0 1-.916.007L1.193 1.857a.5.5 0 0 1-.045-.126.5.5 0 0 1-.003-.017.5.5 0 0 1-.004-.031.5.5 0 0 1-.004-.043.5.5 0 0 1 0-.008.5.5 0 0 1 0-.017.5.5 0 0 1 .001-.032.5.5 0 0 1 .002-.018.5.5 0 0 1 .005-.033.5.5 0 0 1 .004-.015.5.5 0 0 1 .007-.032.5.5 0 0 1 .006-.016.5.5 0 0 1 .01-.03.5.5 0 0 1 .021-.046.5.5 0 0 1 .017-.03.5.5 0 0 1 .008-.015.5.5 0 0 1 .01-.012.5.5 0 0 1 .032-.04.5.5 0 0 1 .034-.037zm2.6 1.915 5.634 5.633 3.585-1.536zm-.706.707L7.285 13.1l1.536-3.585z" color="#000" style="font-feature-settings:normal;font-variant-alternates:normal;font-variant-caps:normal;font-variant-ligatures:normal;font-variant-numeric:normal;font-variant-position:normal;isolation:auto;mix-blend-mode:normal;shape-padding:0;text-decoration-color:#000;text-decoration-line:none;text-decoration-style:solid;text-indent:0;text-orientation:mixed;text-transform:none;white-space:normal"/></svg>