<svg xmlns="http://www.w3.org/2000/svg" width="16" height="16"><path fill="#dedede" d="M1.881 3.009c-.251.03-.46.14-.628.329S1 3.749 1 4.003v7.995a.97.97 0 0 0 .253.664.974.974 0 0 0 .628.33.969.969 0 0 0 .69-.168L8.37 8.827a.987.987 0 0 0 .384-.51 1 1 0 0 0-.381-1.14l-5.803-4a.955.955 0 0 0-.689-.168z"/><path fill="#dedede" d="M7.881 3.009c-.251.03-.46.14-.628.329S7 3.749 7 4.003v7.995a.97.97 0 0 0 .253.664.974.974 0 0 0 .628.33.969.969 0 0 0 .69-.168l5.799-3.997a.987.987 0 0 0 .384-.51 1 1 0 0 0-.381-1.14l-5.803-4a.955.955 0 0 0-.689-.168z"/></svg>