<svg xmlns="http://www.w3.org/2000/svg" width="16" height="16"><path fill="#dedede" d="M14.119 3.009c.251.03.46.14.628.329s.253.411.253.665v7.995a.97.97 0 0 1-.253.664.974.974 0 0 1-.628.33.969.969 0 0 1-.69-.168L7.63 8.827a.987.987 0 0 1-.384-.51 1 1 0 0 1 .381-1.14l5.803-4c.209-.146.438-.2.69-.168z"/><path fill="#dedede" d="M8.119 3.009c.251.03.46.14.628.329S9 3.749 9 4.003v7.995a.97.97 0 0 1-.253.664.974.974 0 0 1-.628.33.969.969 0 0 1-.69-.168L1.63 8.827a.987.987 0 0 1-.384-.51 1 1 0 0 1 .381-1.14l5.803-4c.209-.146.438-.2.689-.168z"/></svg>