<svg width="16" height="16"><g fill="#dedede"><path d="M2.969 1.012v3.02l5.785 5.78c.133-.39.215-.824.215-1.3 0-.871-.254-1.649-.637-2.184-.383-.539-.86-.816-1.363-.816a.501.501 0 0 1 0-1c.883 0 1.652.504 2.176 1.234.523.73.824 1.703.824 2.766 0 .761-.176 1.457-.473 2.047l1.473 1.472v-.02c1.383 0 2.5-1.566 2.5-3.5 0-1.933-1.117-3.5-2.5-3.5v-4zm0 5.144v9.856h4v-4.45l.363-.105c.207-.059.414-.172.605-.336zm5.586 5.582a3.042 3.042 0 0 1-.586.387v3.887h3v-1.856zm0 0"/><path d="M1.531.469.47 1.53l14 14 1.062-1.062zm0 0"/></g></svg>