<svg xmlns="http://www.w3.org/2000/svg" width="16" height="16"><path d="M5 6a5 5 0 0 0 5 4.996V6.5c0-.277-.223-.5-.5-.5Z" style="color:#000;display:inline;overflow:visible;visibility:visible;opacity:.25;vector-effect:none;fill:#dedede;fill-opacity:1;fill-rule:nonzero;stroke:none;stroke-width:1;stroke-linecap:round;stroke-linejoin:round;stroke-miterlimit:4;stroke-dasharray:none;stroke-dashoffset:0;stroke-opacity:1;marker:none;paint-order:normal;enable-background:accumulate"/><path d="M1 5c-.554 0-1 .446-1 1v9c0 .554.446 1 1 1h9c.554 0 1-.446 1-1V6c0-.554-.446-1-1-1Zm.5 1h8c.277 0 .5.223.5.5v8c0 .277-.223.5-.5.5h-8a.499.499 0 0 1-.5-.5v-8c0-.277.223-.5.5-.5ZM10.174.002A6 6 0 0 0 4 6a6 6 0 1 0 12 0A6 6 0 0 0 10.174.002Zm-.028 1A5 5 0 0 1 15 6 5 5 0 1 1 5 6a5 5 0 0 1 5.146-4.998Z" style="color:#000;display:inline;overflow:visible;visibility:visible;opacity:1;vector-effect:none;fill:#dedede;fill-opacity:1;fill-rule:nonzero;stroke:none;stroke-width:1;stroke-linecap:butt;stroke-linejoin:miter;stroke-miterlimit:4;stroke-dasharray:none;stroke-dashoffset:0;stroke-opacity:1;marker:none;paint-order:normal;enable-background:accumulate"/></svg>