<svg width="16" height="16"><path fill="#dedede" d="M11 1c-.555 0-1 .445-1 1v5.5s0 .5-.5.5-.5-.5-.5-.5V7c0-.555-.414-1.012-1-1-.547.008-1 .445-1 1v.5s0 .5-.5.5-.5-.5-.5-.5V7c0-.555-.445-1-1-1s-1 .445-1 1v.5s0 .5-.5.5-.5-.5-.5-.5V3c0-.555-.445-1-1-1s-1 .445-1 1v10s0 3 3 3h6c.95-.004 2-.5 2.707-1.293l3-3c.45-.45.387-1.633-.695-1.719a.992.992 0 0 0-.72.305L12.5 12s-.5 0-.5-.5V2c0-.555-.445-1-1-1zm-7 9c0 .554.446 1 1 1s1-.446 1-1h1c0 .554.446 1 1 1s1-.446 1-1c.554 0 1 .446 1 1v2c0 .554-.446 1-1 1H4c-.554 0-1-.446-1-1v-2c0-.554.446-1 1-1z"/></svg>