<svg xmlns="http://www.w3.org/2000/svg" width="16" height="16"><rect width="7" height="1" x="-11.502" y="6" fill="#dedede" ry=".5" style="paint-order:stroke fill markers" transform="scale(-1 1)"/><rect width="4" height="1" x="-2.441" y="7.633" fill="#dedede" ry=".5" style="paint-order:stroke fill markers" transform="scale(-1 1) rotate(45)"/><rect width="7" height="1" x="4.501" y="-10" fill="#dedede" ry=".5" style="paint-order:stroke fill markers" transform="scale(1 -1)"/><rect width="4" height="1" x="-2.439" y="-14.997" fill="#dedede" ry=".5" style="paint-order:stroke fill markers" transform="scale(1 -1) rotate(45)"/><path fill="#dedede" d="M8 1a7 7 0 0 0-7 7 7 7 0 0 0 7 7 7 7 0 0 0 7-7 7 7 0 0 0-7-7zm0 1a6 6 0 0 1 6 6 6 6 0 0 1-6 6 6 6 0 0 1-6-6 6 6 0 0 1 6-6z"/></svg>