<svg xmlns="http://www.w3.org/2000/svg" width="16" height="16"><defs><style id="current-color-scheme" type="text/css">.ColorScheme-Text{color:#dedede}.ColorScheme-Highlight{color:#4285f4}</style></defs><path fill="#dedede" d="M12 5a1 1 0 1 0 0-2 1 1 0 0 0 0 2zM9.13 0a2 2 0 0 0-1.426.584L1.022 7.248a2 2 0 0 0-.002 2.83l4.949 4.949a2 2 0 0 0 2.828 0l6.631-6.63a2 2 0 0 0 .586-1.418l-.007-4.95A2 2 0 0 0 14.02.032zm-.72 1.292A1 1 0 0 1 9.123 1l4.89.032a1 1 0 0 1 .994.999l.007 4.95a1 1 0 0 1-.293.708L8.09 14.32a1 1 0 0 1-1.415 0L1.727 9.372a1 1 0 0 1 .001-1.415z"/></svg>