<svg xmlns="http://www.w3.org/2000/svg" width="16" height="16"><path fill="#dedede" d="M6.74 12.72c-.3.83.27 1.79 1.26 2.15 1 .35 2.04-.03 2.34-.86z"/><path fill="#dedede" d="M10.412.959c-.54-.003-1.049.259-1.463.637C7 1.65 5.241 2.85 4.576 4.713a1 1 0 0 0-.002.006 12.819 12.819 0 0 1-.959 2.07 5.401 5.401 0 0 1-.474.7c-.095.11-.13.102-.014.068a1 1 0 0 0-.223.097c-.298.18-.53.45-.66.774a1 1 0 0 0-.012.031c-.293.807.14 1.687.93 1.975a1 1 0 0 0 .004.002l7.871 2.818c.796.29 1.67-.152 1.957-.916a1.515 1.515 0 0 0-.02-1.129 1 1 0 0 0-.07-.135c.047.075.022.056.02-.08-.003-.19.023-.498.078-.844.109-.691.33-1.55.57-2.21a1 1 0 0 0 0-.002c.672-1.86-.002-3.788-1.377-5.05-.064-.783-.44-1.535-1.223-1.825a1 1 0 0 0-.013-.006 1.66 1.66 0 0 0-.547-.098zm-.18.98c.13-.004.263.015.393.061.525.195.796.736.678 1.27a3.769 3.769 0 0 1 1.33 4.328c-.534 1.465-.924 3.59-.576 4.005.05.12.058.254.007.381a.538.538 0 0 1-.685.33l-7.875-2.82a.546.546 0 0 1-.33-.693.593.593 0 0 1 .244-.29c.542-.1 1.585-1.989 2.101-3.462A3.77 3.77 0 0 1 9.295 2.55c.178-.373.546-.599.937-.612z" color="#000" style="font-feature-settings:normal;font-variant-alternates:normal;font-variant-caps:normal;font-variant-east-asian:normal;font-variant-ligatures:normal;font-variant-numeric:normal;font-variant-position:normal;font-variation-settings:normal;inline-size:0;isolation:auto;mix-blend-mode:normal;shape-margin:0;shape-padding:0;text-decoration-color:#000;text-decoration-line:none;text-decoration-style:solid;text-indent:0;text-orientation:mixed;text-transform:none;white-space:normal"/></svg>