<svg xmlns="http://www.w3.org/2000/svg" width="16" height="16"><path fill="#dedede" d="M5 3v1h9V3zm0 4v1h9V7zm0 4v1h9v-1z" color="#dedede" overflow="visible"/><path fill="#333" d="M2.5 2A1.5 1.5 0 0 0 1 3.5 1.5 1.5 0 0 0 2.5 5 1.5 1.5 0 0 0 4 3.5 1.5 1.5 0 0 0 2.5 2zm-.012 1A.5.5 0 0 1 2.5 3a.5.5 0 0 1 .5.5.5.5 0 0 1-.5.5.5.5 0 0 1-.5-.5.5.5 0 0 1 .488-.5zM2.5 6A1.5 1.5 0 0 0 1 7.5 1.5 1.5 0 0 0 2.5 9 1.5 1.5 0 0 0 4 7.5 1.5 1.5 0 0 0 2.5 6Zm-.012 1A.5.5 0 0 1 2.5 7a.5.5 0 0 1 .5.5.5.5 0 0 1-.5.5.5.5 0 0 1-.5-.5.5.5 0 0 1 .488-.5ZM2.5 10A1.5 1.5 0 0 0 1 11.5 1.5 1.5 0 0 0 2.5 13 1.5 1.5 0 0 0 4 11.5 1.5 1.5 0 0 0 2.5 10Zm-.012 1a.5.5 0 0 1 .012 0 .5.5 0 0 1 .5.5.5.5 0 0 1-.5.5.5.5 0 0 1-.5-.5.5.5 0 0 1 .488-.5Z" style="paint-order:markers stroke fill"/></svg>