<svg xmlns="http://www.w3.org/2000/svg" width="16" height="16"><g fill="#333" stroke-linecap="round" stroke-linejoin="round"><path d="M2 2C.892 2 0 2.892 0 4v9c0 1.108.892 2 2 2h12c1.108 0 2-.892 2-2V4c0-1.108-.892-2-2-2H2zm0 1h12c.554 0 1 .446 1 1v9c0 .554-.446 1-1 1H2c-.554 0-1-.446-1-1V4c0-.554.446-1 1-1z" style="paint-order:stroke fill markers"/><rect width="2" height="2" x="3" y="1" ry=".5" style="paint-order:stroke fill markers"/><rect width="2" height="2" x="11" y="1" ry=".5" style="paint-order:stroke fill markers"/><rect width="2" height="2" x="11" y="5" rx="1" ry="1" style="paint-order:stroke fill markers"/></g></svg>