<svg xmlns="http://www.w3.org/2000/svg" width="16" height="16"><g fill="#dedede" stroke-linecap="round" stroke-linejoin="round"><path d="M3 1c-1.108 0-2 .892-2 2v2c0 1.108.892 2 2 2h2c1.108 0 2-.892 2-2V3c0-1.108-.892-2-2-2H3zm0 1h2c.554 0 1 .446 1 1v2c0 .554-.446 1-1 1H3c-.554 0-1-.446-1-1V3c0-.554.446-1 1-1zM11 1c-1.108 0-2 .892-2 2v2c0 1.108.892 2 2 2h2c1.108 0 2-.892 2-2V3c0-1.108-.892-2-2-2zm0 1h2c.554 0 1 .446 1 1v2c0 .554-.446 1-1 1h-2c-.554 0-1-.446-1-1V3c0-.554.446-1 1-1zM3 9c-1.108 0-2 .892-2 2v2c0 1.108.892 2 2 2h2c1.108 0 2-.892 2-2v-2c0-1.108-.892-2-2-2zm0 1h2c.554 0 1 .446 1 1v2c0 .554-.446 1-1 1H3c-.554 0-1-.446-1-1v-2c0-.554.446-1 1-1zM11 9c-1.108 0-2 .892-2 2v2c0 1.108.892 2 2 2h2c1.108 0 2-.892 2-2v-2c0-1.108-.892-2-2-2zm0 1h2c.554 0 1 .446 1 1v2c0 .554-.446 1-1 1h-2c-.554 0-1-.446-1-1v-2c0-.554.446-1 1-1z" style="paint-order:stroke fill markers"/></g></svg>