<svg xmlns="http://www.w3.org/2000/svg" width="16" height="16"><g fill="#dedede"><path d="M2 2c-.554 0-1 .446-1 1v4c0 .554.446 1 1 1h2c.554 0 1-.446 1-1V3c0-.554-.446-1-1-1H2zm0 1h2v4H2V3zM7 2c-.554 0-1 .446-1 1v4c0 .554.446 1 1 1h2c.554 0 1-.446 1-1V3c0-.554-.446-1-1-1zm0 1h2v4H7zM12 2c-.554 0-1 .446-1 1v4c0 .554.446 1 1 1h2c.554 0 1-.446 1-1V3c0-.554-.446-1-1-1zm0 1h2v4h-2zM2 9c-.554 0-1 .446-1 1v4c0 .554.446 1 1 1h2c.554 0 1-.446 1-1v-4c0-.554-.446-1-1-1zm0 1h2v4H2zM7 9c-.554 0-1 .446-1 1v4c0 .554.446 1 1 1h2c.554 0 1-.446 1-1v-4c0-.554-.446-1-1-1zm0 1h2v4H7zM12 9c-.554 0-1 .446-1 1v4c0 .554.446 1 1 1h2c.554 0 1-.446 1-1v-4c0-.554-.446-1-1-1zm0 1h2v4h-2z"/></g></svg>