<?xml version="1.0" encoding="UTF-8" standalone="no"?>
<svg
   xmlns:dc="http://purl.org/dc/elements/1.1/"
   xmlns:cc="http://creativecommons.org/ns#"
   xmlns:rdf="http://www.w3.org/1999/02/22-rdf-syntax-ns#"
   xmlns:svg="http://www.w3.org/2000/svg"
   xmlns="http://www.w3.org/2000/svg"
   xmlns:sodipodi="http://sodipodi.sourceforge.net/DTD/sodipodi-0.dtd"
   xmlns:inkscape="http://www.inkscape.org/namespaces/inkscape"
   width="22"
   height="22"
   version="1.1"
   id="svg1367"
   sodipodi:docname="drive-removable-media.svg"
   inkscape:version="0.92.4 (5da689c313, 2019-01-14)">
  <metadata
     id="metadata1371">
    <rdf:RDF>
      <cc:Work
         rdf:about="">
        <dc:format>image/svg+xml</dc:format>
        <dc:type
           rdf:resource="http://purl.org/dc/dcmitype/StillImage" />
        <dc:title></dc:title>
      </cc:Work>
    </rdf:RDF>
  </metadata>
  <sodipodi:namedview
     pagecolor="#ffffff"
     bordercolor="#666666"
     borderopacity="1"
     objecttolerance="10"
     gridtolerance="10"
     guidetolerance="10"
     inkscape:pageopacity="0"
     inkscape:pageshadow="2"
     inkscape:window-width="800"
     inkscape:window-height="531"
     id="namedview1369"
     showgrid="false"
     inkscape:zoom="3.0650134"
     inkscape:cx="12.949132"
     inkscape:cy="19.999971"
     inkscape:window-x="0"
     inkscape:window-y="0"
     inkscape:window-maximized="1"
     inkscape:current-layer="g1365" />
  <defs
     id="defs1335">
    <linearGradient
       id="a"
       y1="543.79999"
       y2="515.79999"
       x2="0"
       gradientUnits="userSpaceOnUse"
       gradientTransform="matrix(1.125,0,0,1,-51.07,0)">
      <stop
         stop-color="#1d1e1e"
         id="stop1315" />
      <stop
         offset="1"
         stop-color="#44484c"
         id="stop1317" />
    </linearGradient>
    <linearGradient
       id="b"
       y1="525.79999"
       y2="503.79999"
       x2="0"
       gradientUnits="userSpaceOnUse">
      <stop
         stop-color="#c6cdd1"
         id="stop1320" />
      <stop
         offset="1"
         stop-color="#e0e5e7"
         id="stop1322" />
    </linearGradient>
    <linearGradient
       id="c"
       y1="14"
       x1="5"
       y2="36"
       x2="27"
       gradientUnits="userSpaceOnUse"
       gradientTransform="matrix(0.60506844,0,0,0.64011164,386.76048,515.29917)">
      <stop
         stop-color="#383e51"
         id="stop1325" />
      <stop
         offset="1"
         stop-color="#655c6f"
         stop-opacity="0"
         id="stop1327" />
    </linearGradient>
    <linearGradient
       id="d"
       y1="543.79999"
       y2="515.79999"
       gradientUnits="userSpaceOnUse"
       x2="0"
       gradientTransform="matrix(1.16129,0,0,1,-65.38,0)">
      <stop
         stop-color="#197cf1"
         id="stop1330" />
      <stop
         offset="1"
         stop-color="#20bcfa"
         id="stop1332" />
    </linearGradient>
  </defs>
  <g
     transform="matrix(0.78125,0,0,0.75,-302.2199,-386.3624)"
     id="g1365">
    <g
       id="g1343"
       style="stroke-width:2.79999995;stroke-opacity:0.55"
       transform="matrix(0.60506843,0,0,0.64011162,154.0693,195.37136)">
      <rect
         width="31"
         x="392.57001"
         y="525.79999"
         height="18"
         id="rect1337"
         style="fill:url(#a)" />
      <rect
         width="32"
         x="392.57001"
         y="542.79999"
         height="1"
         id="rect1339"
         style="fill:#202224" />
      <rect
         width="26"
         x="395.57001"
         y="503.79999"
         height="22"
         id="rect1341"
         style="fill:url(#b)" />
    </g>
    <path
       d="m 400.07197,522.34037 -4.23547,4.48078 14.52164,15.52271 V 531.94332 H 409.148 v -7.04121 l -2.42027,-2.56045 h -4.23549 v 2.56045 z"
       id="path1345"
       inkscape:connector-curvature="0"
       style="opacity:0.2;fill:url(#c);fill-rule:evenodd;stroke-width:0.62234348" />
    <g
       id="g1361"
       style="stroke-width:2.79999995;stroke-opacity:0.55"
       transform="matrix(0.60506843,0,0,0.64011162,154.0693,195.37136)">
      <g
         id="g1351"
         style="fill:#202224">
        <rect
           width="7"
           x="399.57001"
           y="510.79999"
           height="7"
           id="rect1347" />
        <rect
           width="7"
           x="410.57001"
           y="510.79999"
           height="7"
           id="rect1349" />
      </g>
      <g
         id="g1357"
         style="fill:#fdbc4a">
        <rect
           width="3"
           x="401.57001"
           y="510.79999"
           height="7"
           id="rect1353" />
        <rect
           width="3"
           x="412.57001"
           y="510.79999"
           height="7"
           id="rect1355" />
      </g>
      <rect
         width="32"
         x="392.57001"
         y="525.79999"
         height="18"
         id="rect1359"
         style="fill:url(#d)" />
    </g>
    <path
       d="m 400.37451,535.78272 a 0.30253421,0.32005581 0 0 0 -0.30254,0.32006 0.30253421,0.32005581 0 0 0 0.30254,0.32004 0.30253421,0.32005581 0 0 0 0.30253,-0.32004 0.30253421,0.32005581 0 0 0 -0.30253,-0.32006 m 1.51266,0 -0.60506,0.6401 0.60506,0.64013 -0.60506,0.6401 0.60506,0.64012 1.21015,-1.28022 z m -2.11773,1.34398 a 0.30253421,0.32005581 0 0 0 -0.30253,0.32006 0.30253421,0.32005581 0 0 0 0.30253,0.32005 0.30253421,0.32005581 0 0 0 0.30253,-0.32005 0.30253421,0.32005581 0 0 0 -0.30253,-0.32006 m 0.9076,1.21647 a 0.60506056,0.64010329 0 0 0 -0.60507,0.6401 0.60506056,0.64010329 0 0 0 0.60507,0.64011 0.60506056,0.64010329 0 0 0 0.60507,-0.64011 0.60506056,0.64010329 0 0 0 -0.60507,-0.6401"
       id="path1363"
       inkscape:connector-curvature="0"
       style="fill:#085ba7;fill-rule:evenodd;stroke-width:0.62234348" />
  </g>
  <rect
     style="opacity:1;fill:none;fill-opacity:1;stroke:#ffa900;stroke-width:1.95794165;stroke-miterlimit:4;stroke-dasharray:none;stroke-dashoffset:4.00629902;stroke-opacity:0"
     id="rect1916"
     width="20.042059"
     height="19.991226"
     x="2.1400545"
     y="2.3093977" />
</svg>
