<svg xmlns="http://www.w3.org/2000/svg" width="16" height="16">
<style id="current-color-scheme" type="text/css">
.ColorScheme-Text{color:#fcfcfc}
</style>
<g stroke-linecap="round" stroke-linejoin="round" class="ColorScheme-Text" style="fill:currentColor">
<path d="M3 1c-1.108 0-2 .892-2 2v10c0 1.108.892 2 2 2h10c1.108 0 2-.892 2-2V3c0-1.108-.892-2-2-2zm0 1h10c.554 0 1 .446 1 1v10c0 .554-.446 1-1 1H3c-.554 0-1-.446-1-1V3c0-.554.446-1 1-1"/>
<path d="M6 9c-.554 0-1 .446-1 1v1c0 .554.446 1 1 1h4c.554 0 1-.446 1-1v-1c0-.554-.446-1-1-1zm0 1h4v1H6z"/>
<path d="M5 7v1h5v2h1V8c0-.554-.446-1-1-1z"/>
<rect width="5" height="1" x="2.16" y="7.598" rx="0" ry="0" transform="rotate(-30)"/>
</g>
</svg>
