<svg xmlns="http://www.w3.org/2000/svg" width="16" height="16">
<style id="current-color-scheme" type="text/css">
.ColorScheme-Text{color:#fcfcfc}
</style>
<path d="M10.029 1.15c-.15 0-.299.01-.459.03-.57.08-1.25.35-2.02.76-1.54-.85-2.74-.9-3.74-.64-.93.235-1.727.586-2.8.653C1.009 1.97 1 1.983 1 2v12c0 .554.446 1 1 1h11c.554 0 1-.446 1-1V2l-.004-.021c-1.182-.052-1.904-.404-2.766-.659-.36-.11-.76-.18-1.201-.17m-4.81.98c.497.038 1.06.22 1.78.61v8.64a4.22 4.22 0 0 0-3.179-.44c-.66.16-1.25.34-1.82.49V2.79c.8-.14 1.47-.37 2.05-.52.24-.06.46-.11.69-.13q.232-.026.478-.01m4.46.01c.24-.03.45-.03.66 0 .2.02.4.07.61.14.53.15 1.19.4 2.05.55v8.6c-.57-.15-1.16-.34-1.81-.5-.98-.24-2.09-.18-3.19.48V2.8c.7-.38 1.25-.59 1.68-.66m.121 9.61c.37-.01.749.05 1.149.15.64.16 1.32.43 2.05.63V14H2v-1.46c.72-.2 1.411-.47 2.051-.63 1.08-.27 1.999-.3 3.149.74l.34.3.33-.31c.7-.64 1.311-.87 1.931-.89" class="ColorScheme-Text" style="fill:currentColor"/>
</svg>
