<svg xmlns="http://www.w3.org/2000/svg" width="16.262" height="16"><style id="current-color-scheme" type="text/css">.ColorScheme-Contrast{color:#dedede}</style><g class="ColorScheme-Contrast" style="fill:currentColor">
<path fill="#dedede" d="M8.338 1a6 6 0 0 0-1.512.212c-1.31.358-2.25 1.164-2.537 2.561a.48.48 0 0 0 .067.375.46.46 0 0 0 .335.184l.834.085q.116.015.23.024l.538.056c.143.015.275-.003.379-.08s.16-.197.195-.341a1.4 1.4 0 0 1 .084-.235q.101-.192.242-.347a1.2 1.2 0 0 1 .38-.237l.007-.004c.035-.016.075-.024.112-.037a1.54 1.54 0 0 1 .75-.04q.077.013.15.038l.027.01a.93.93 0 0 1 .522.469 1 1 0 0 1 .076.271c.042.245.038.506.037.778-.009.016-.008.038-.021.052-.225.038-.464.069-.698.1-.715.073-1.433.158-2.136.373h-.002c-.72.224-1.357.595-1.817 1.225-.079.108-.127.224-.19.336l-.048.086c-.373.723-.441 1.51-.268 2.32.19.88.722 1.535 1.582 1.842.179.063.357.102.536.136.709.138 1.422.068 2.119-.17.498-.168.892-.484 1.257-.824.054-.043.114-.08.166-.125.01.01.022.027.032.037.222.331.474.646.795.907.133.109.261.18.406.181.144 0 .273-.072.406-.183.412-.347.818-.694 1.229-1.04h.002c.108-.092.187-.195.207-.322.02-.126-.026-.252-.106-.373a2 2 0 0 0-.135-.18c-.018-.023-.03-.046-.048-.069a2.2 2.2 0 0 1-.362-.64l-.002-.002c-.003-.02-.01-.036-.011-.055a9 9 0 0 1-.102-.961c.015-.483.008-.962.008-1.438v-.132c-.002-.57.002-1.141-.004-1.71-.007-.483-.055-.98-.28-1.447-.39-.815-1.099-1.231-1.911-1.459A5.5 5.5 0 0 0 8.34 1zm.916 5.488c.004.206.002.432-.008.658 0 .045-.006.088-.008.133-.034.494-.133.991-.4 1.37a1.6 1.6 0 0 1-.317.327c-.065.049-.141.09-.219.129-.047.023-.09.05-.142.068a1.1 1.1 0 0 1-.447.06c-.104-.008-.192-.052-.282-.093a1 1 0 0 1-.2-.135 1 1 0 0 1-.13-.129.94.94 0 0 1-.197-.646 1.22 1.22 0 0 1 .133-.857 1.4 1.4 0 0 1 .156-.225q.025-.028.053-.055c.052-.056.105-.112.166-.16l.021-.015c.264-.189.577-.278.906-.334.299-.047.61-.084.914-.096zm5.8 4.19a5 5 0 0 0-.286.01c-.56.03-1.105.155-1.592.478h-.002c-.031.021-.076.05-.117.105a.26.26 0 0 0-.028.239.25.25 0 0 0 .184.134c.062.008.106-.002.135-.004h.002c.374-.04.74-.087 1.103-.084h.002c.22 0 .424-.01.617.043h.002v.002c.09.023.132.049.15.073.02.024.033.063.032.152q-.004.091-.018.17v.002c-.09.494-.282.962-.474 1.441-.013.029-.034.068-.041.125a.24.24 0 0 0 .078.203.26.26 0 0 0 .215.05.4.4 0 0 0 .138-.073h.002a1 1 0 0 0 .088-.074c.68-.666.998-1.494 1.018-2.428a.45.45 0 0 0-.088-.287.5.5 0 0 0-.25-.158 3 3 0 0 0-.87-.12zm-14.753.298a.2.2 0 0 0-.092.002.27.27 0 0 0-.164.111.26.26 0 0 0-.041.188.3.3 0 0 0 .062.13c.037.051.077.085.11.114v.002q.565.499 1.19.914c2.039 1.361 4.3 2.007 6.81 2.024h.002a12 12 0 0 0 2.576-.3c1.316-.292 2.563-.769 3.703-1.509.073-.048.153-.094.229-.158v-.002h.002a.5.5 0 0 0 .14-.18.35.35 0 0 0-.203-.467.5.5 0 0 0-.242-.01l-.002.002h-.004a2 2 0 0 0-.283.098 15.5 15.5 0 0 1-5.39 1.121 16 16 0 0 1-3.87-.371A15.8 15.8 0 0 1 .811 11.22v-.002c-.138-.07-.276-.146-.424-.217H.385a.3.3 0 0 0-.084-.025m13.037.399v.004h-.008zm1.676 2.142.004.002-.006.004z" color="#000" font-family="sans-serif" font-weight="400" overflow="visible" style="font-feature-settings:normal;font-variant-alternates:normal;font-variant-caps:normal;font-variant-ligatures:normal;font-variant-numeric:normal;font-variant-position:normal;isolation:auto;mix-blend-mode:normal;shape-padding:0;text-decoration-color:#000;text-decoration-line:none;text-decoration-style:solid;text-indent:0;text-orientation:mixed;text-transform:none;white-space:normal"/>
</g></svg>
