<svg xmlns="http://www.w3.org/2000/svg" width="16" height="16"><style id="current-color-scheme" type="text/css">.ColorScheme-Contrast{color:#dedede}</style><g class="ColorScheme-Contrast" style="fill:currentColor">
<path fill="#dedede" d="M12.471 1a.5.5 0 0 0-.111.012l-1.356.308-.07.022-1.45.562-.044.02-1.422.72-.043.024-1.274.814-.048.036-1.01.832-.063.062-.105.125-.77-.084a.5.5 0 0 0-.181.016l-1.338.355a.5.5 0 0 0-.096.035l-1.281.647a.5.5 0 0 0-.112.076l-.841.768a.5.5 0 0 0-.164.382l.02.674a.5.5 0 0 0 .2.387l.692.516a.5.5 0 0 0 .103.058l.967.408.574.262-.049.783a.5.5 0 0 0 .008.127l.004.018-.125.05a.5.5 0 0 0-.176.124l-.338.365-.023.03-.355.448-.028.038-.328.505-.035.065-.244.533-.02.053-.13.402-.014.049-.094.43a.5.5 0 0 0-.012.105v.402a.5.5 0 0 0 .053.225l.16.316a.5.5 0 0 0 .211.22l.281.148a.5.5 0 0 0 .21.058l.365.02a.5.5 0 0 0 .107-.006l.393-.067.02-.003.364-.075.067-.02.627-.224.074-.033.607-.336.047-.03.543-.382.04-.031.42-.365a.5.5 0 0 0 .157-.256l.016-.065.772-.068.027.076.137.314.39.977a.5.5 0 0 0 .057.104l.504.71a.5.5 0 0 0 .394.21l.664.019a.5.5 0 0 0 .373-.152l.787-.815a.5.5 0 0 0 .082-.115l.674-1.281a.5.5 0 0 0 .037-.096l.375-1.318a.5.5 0 0 0 .018-.178l-.045-.541.143-.113.056-.057.871-.973.032-.039.879-1.205.023-.037.814-1.346.024-.043.654-1.375.026-.066.402-1.291a.5.5 0 0 0 .021-.12l.067-1.103a.5.5 0 0 0-.047-.24l-.373-.805a.5.5 0 0 0-.233-.238l-.814-.4a.5.5 0 0 0-.22-.053zm.057 1h.976l.551.271.248.532-.055.916-.373 1.199-.629 1.32-.79 1.307-.852 1.17-.826.924-.315.255a.5.5 0 0 0-.183.428l.058.715-.336 1.182-.615 1.172-.584.603-.193-.006-.326-.459-.372-.926-.005-.013-.309-.711a.5.5 0 0 0-.58-.287l-.1.025-.914.043-.754-.164-.55-.357-.35-.567-.149-.754.057-.898.008-.024a.5.5 0 0 0-.25-.605l-.076-.037-.016-.008-.842-.383-.011-.006-.918-.388-.45-.334-.005-.202.62-.566 1.174-.59 1.2-.318.629.066-.094-.138a.5.5 0 0 0 .797.046l.289-.34.953-.785 1.226-.783 1.377-.699 1.393-.539zm-1.086.71-.541.104a.5.5 0 0 0-.18.07l-.477.31a.5.5 0 0 0-.138.132l-.326.469a.5.5 0 0 0-.082.193l-.104.543a.5.5 0 0 0 0 .178l.092.543a.5.5 0 0 0 .074.186l.309.476a.5.5 0 0 0 .136.14l.477.329a.5.5 0 0 0 .19.078l.542.103a.5.5 0 0 0 .178.002l.543-.093a.5.5 0 0 0 .186-.073l.478-.308a.5.5 0 0 0 .145-.143l.316-.478a.5.5 0 0 0 .074-.176l.114-.541a.5.5 0 0 0 0-.195l-.102-.543a.5.5 0 0 0-.072-.178l-.309-.477a.5.5 0 0 0-.138-.142L12.36 2.9a.5.5 0 0 0-.18-.076l-.543-.111a.5.5 0 0 0-.195-.002m.09 1 .347.073.301.205.201.31.067.35-.073.35-.207.31-.304.196-.352.06-.352-.066-.306-.21-.2-.308-.06-.351.066-.35.211-.3.311-.202zM3.248 9.028l-.068-.035zm.364 2.254.297.48a.5.5 0 0 0 .152.157l.562.365-.644.164-.428-.127-.119-.412zm-1.078 1.117.132.463a.5.5 0 0 0 .338.342l.461.135-.248.09-.32.066-.33.055-.2-.01-.042-.023-.036-.069v-.23l.079-.354.113-.351z" color="#000" style="-inkscape-stroke:none"/>
</g></svg>
