<svg xmlns="http://www.w3.org/2000/svg" width="16" height="16"><style id="current-color-scheme" type="text/css">.ColorScheme-Contrast{color:#dedede}</style><g class="ColorScheme-Contrast" style="fill:currentColor">
<path fill="#dedede" d="M3.5 5A2.5 2.5 0 0 0 1 7.5 2.5 2.5 0 0 0 3.5 10 2.5 2.5 0 0 0 6 7.5 2.5 2.5 0 0 0 3.5 5m0 1A1.5 1.5 0 0 1 5 7.5 1.5 1.5 0 0 1 3.5 9 1.5 1.5 0 0 1 2 7.5 1.5 1.5 0 0 1 3.5 6m5-3A1.5 1.5 0 0 0 7 4.5 1.5 1.5 0 0 0 8.5 6 1.5 1.5 0 0 0 10 4.5 1.5 1.5 0 0 0 8.5 3m0 1a.5.5 0 0 1 .5.5.5.5 0 0 1-.5.5.5.5 0 0 1-.5-.5.5.5 0 0 1 .5-.5m0 5A1.5 1.5 0 0 0 7 10.5 1.5 1.5 0 0 0 8.5 12a1.5 1.5 0 0 0 1.5-1.5A1.5 1.5 0 0 0 8.5 9m0 1a.5.5 0 0 1 .5.5.5.5 0 0 1-.5.5.5.5 0 0 1-.5-.5.5.5 0 0 1 .5-.5m5-4A1.5 1.5 0 0 0 12 7.5 1.5 1.5 0 0 0 13.5 9 1.5 1.5 0 0 0 15 7.5 1.5 1.5 0 0 0 13.5 6m0 1a.5.5 0 0 1 .5.5.5.5 0 0 1-.5.5.5.5 0 0 1-.5-.5.5.5 0 0 1 .5-.5m0-7A1.5 1.5 0 0 0 12 1.5 1.5 1.5 0 0 0 13.5 3 1.5 1.5 0 0 0 15 1.5 1.5 1.5 0 0 0 13.5 0m0 1a.5.5 0 0 1 .5.5.5.5 0 0 1-.5.5.5.5 0 0 1-.5-.5.5.5 0 0 1 .5-.5m0 11a1.5 1.5 0 0 0-1.5 1.5 1.5 1.5 0 0 0 1.5 1.5 1.5 1.5 0 0 0 1.5-1.5 1.5 1.5 0 0 0-1.5-1.5m0 1a.5.5 0 0 1 .5.5.5.5 0 0 1-.5.5.5.5 0 0 1-.5-.5.5.5 0 0 1 .5-.5"/>
</g></svg>
