<svg xmlns="http://www.w3.org/2000/svg" width="16" height="16"><style id="current-color-scheme" type="text/css">.ColorScheme-Contrast{color:#dedede}</style><g class="ColorScheme-Contrast" style="fill:currentColor">
<path fill="#dedede" d="M6.5 2A4.49 4.49 0 0 0 2 6.5v.033l.031-.015A3.99 3.99 0 0 0 .001 10c0 2.216 1.783 4 4 4h8c2.215 0 4-1.784 4-4s-1.785-4-4-4h-1.029a4.49 4.49 0 0 0-4.473-4m0 1a3.49 3.49 0 0 1 3.463 3q.036.245.037.5V7h2c1.662 0 3 1.338 3 3s-1.338 3-3 3h-8c-1.662 0-3-1.338-3-3a2.99 2.99 0 0 1 2-2.826V6.5q0-.193.02-.38A3.49 3.49 0 0 1 6.499 3M2.296 6.38l-.113.056q.056-.03.113-.055"/>
</g></svg>
