<svg xmlns="http://www.w3.org/2000/svg" width="16" height="16"><style id="current-color-scheme" type="text/css">.ColorScheme-Contrast{color:#dedede}</style><g class="ColorScheme-Contrast" style="fill:currentColor">
<g fill="#dedede" color="#000" font-family="sans-serif" font-weight="400">
<path d="m13.969.97-1.576 1.577c.325.393.603.827.837 1.285l1.801-1.8zm-3.711 3.712L6.5 8.44 3.377 5.316A4 4 0 0 0 3 7c0 .023.005.045.006.068L6.5 10.561l4.408-4.407a4 4 0 0 0-.65-1.472" overflow="visible" style="font-feature-settings:normal;font-variant-alternates:normal;font-variant-caps:normal;font-variant-ligatures:normal;font-variant-numeric:normal;font-variant-position:normal;isolation:auto;mix-blend-mode:normal;shape-padding:0;text-decoration-color:#000;text-decoration-line:none;text-decoration-style:solid;text-indent:0;text-orientation:mixed;text-transform:none;white-space:normal" transform="translate(-.015 .088)"/>
<path d="M7 1C3.69 1 1 3.69 1 7s2.69 6 6 6a5.97 5.97 0 0 0 3.871-1.422l3.275 3.276.708-.707-3.276-3.276A5.97 5.97 0 0 0 13 7.001c0-3.31-2.69-6-6-6zm0 1a5 5 0 0 1 5 5 5 5 0 0 1-5 5 5 5 0 0 1-5-5 5 5 0 0 1 5-5" overflow="visible" style="font-feature-settings:normal;font-variant-alternates:normal;font-variant-caps:normal;font-variant-ligatures:none;font-variant-numeric:normal;font-variant-position:normal;isolation:auto;mix-blend-mode:normal;shape-padding:0;text-decoration-color:#000;text-decoration-line:none;text-decoration-style:solid;text-indent:0;text-transform:none;white-space:normal" transform="translate(-.015 .088)"/>
</g>
</g></svg>
