<svg xmlns="http://www.w3.org/2000/svg" width="16" height="16">
<style id="current-color-scheme" type="text/css">
.ColorScheme-Contrast{color:#dedede}
</style>
<path d="M8 0a8 8 0 0 0-8 8 8 8 0 0 0 .275 2.025L.252 10A8 8 0 0 0 8 16.014c3.638 0 6.706-2.432 7.676-5.76q.158-.54.24-1.11l.002-.005v-.01q.077-.535.08-1.092L16 8a8 8 0 0 0-8-8m0 1a7 7 0 0 1 7 7 7 7 0 0 1-.264 1.836l-.312-.197-3.154-3.512-4.036 4.596 1.948-3.899-.973-1.74-5.734 6.598-.288.191A7 7 0 0 1 1 8a7 7 0 0 1 7-7" class="ColorScheme-Contrast" style="fill:currentColor"/>
</svg>
