<svg xmlns="http://www.w3.org/2000/svg" width="16" height="16">
<style id="current-color-scheme" type="text/css">
.ColorScheme-Text{color:#fcfcfc}
</style>
<g class="ColorScheme-Text" style="fill:currentColor">
<path d="M7 0C5.892 0 5 .892 5 2v7c0 1.108.892 2 2 2h7c1.108 0 2-.892 2-2V2c0-1.108-.892-2-2-2zm0 1h7c.554 0 1 .446 1 1v7c0 .554-.446 1-1 1H7c-.554 0-1-.446-1-1V2c0-.554.446-1 1-1"/>
<path d="m12.181 9-.477-1.66H9.301L8.819 9H7.327l2.265-7h1.807l2.274 7zm-.82-2.9-.448-1.525q-.029-.086-.086-.281l-.124-.43q-.062-.238-.12-.476-.057-.239-.08-.406-.02.105-.053.248-.029.143-.071.305-.039.158-.082.32t-.08.305-.072.253l-.043.162L9.659 6.1z" aria-label="A"/>
<path d="M2 5C.892 5 0 5.892 0 7v7c0 1.108.892 2 2 2h7c1.108 0 2-.892 2-2v-2h-1v2c0 .554-.446 1-1 1H2c-.554 0-1-.446-1-1V7c0-.554.446-1 1-1h1V5zm.111 2.723v5.015h.453v-.746h1.123v-1.1a3 3 0 0 1-.453-.722v1.29h-.67V8.255H3v-.531zm2.287 3.808c-.261.795-.593 1.662-.855 2.2l.5.269a33 33 0 0 0 .812-2.227 3 3 0 0 1-.457-.242m1.057.414c-.059.352-.119.738-.174 1.008h2.531q-.059.346-.154.44c-.077.092-.154.107-.277.107-.139 0-.492-.008-.87-.039.085.138.14.338.147.484.362.016.722.024.922.008.223-.023.37-.085.508-.262.1-.123.169-.338.238-.738h.44v-.484h-.377c.015-.126.026-.32.039-.469h-.493c-.013.148-.024.35-.039.469H5.881c.02-.142.049-.317.072-.473a3 3 0 0 1-.498-.05M6.861 12c.168.154.315.307.405.432l.306-.301c-.03-.039-.09-.088-.129-.131z" opacity=".35"/>
</g>
</svg>
