<svg xmlns="http://www.w3.org/2000/svg" width="16" height="16"><style id="current-color-scheme" type="text/css">.ColorScheme-Text{color:#fcfcfc}</style><g class="ColorScheme-Text" style="fill:currentColor">
<g>
<path d="M4.994 0C3.736.015 2.815-.03 2.063.385a1.88 1.88 0 0 0-.838.998C1.06 1.82 1 2.343 1 3v10c0 .658.06 1.178.225 1.617.164.439.461.789.838.996.68.376 1.534.371 2.615.38a6 6 0 0 1-1.192-1.052c-.43-.038-.752-.099-.941-.203-.183-.101-.287-.213-.385-.472C2.063 14.006 2 13.592 2 13V3c0-.592.063-1.006.16-1.266.098-.26.202-.371.385-.472C2.91 1.06 3.74 1.015 5 1h5c1.259.015 2.09.06 2.455.262.184.1.287.213.385.472.097.26.16.674.16 1.266v1.535a6 6 0 0 1 1 1.154V3c0-.658-.06-1.179-.225-1.617a1.88 1.88 0 0 0-.837-.996C12.185-.028 11.264.015 10.006 0H4.998zm8.777 13.627a6 6 0 0 1-.449.523l.082.084c.153-.173.28-.377.367-.607" color="#000" font-family="sans-serif" font-weight="400" overflow="visible" style="font-feature-settings:normal;font-variant-alternates:normal;font-variant-caps:normal;font-variant-ligatures:normal;font-variant-numeric:normal;font-variant-position:normal;isolation:auto;mix-blend-mode:normal;shape-padding:0;text-decoration-color:#000;text-decoration-line:none;text-decoration-style:solid;text-indent:0;text-orientation:mixed;text-transform:none;white-space:normal" transform="translate(.006)"/>
<path d="M6.863 8c-.264.293-.467.63-.591 1h5.617a3 3 0 0 0-.59-1zm-.736 2c-.009.346.04.684.16 1h5.567c.123-.317.194-.653.19-1zm.793 2c.532.56 1.271.929 2.055.94.848.048 1.66-.336 2.238-.94z"/>
<path d="M9 5c-2.755 0-5 2.245-5 5s2.245 5 5 5 5-2.245 5-5-2.245-5-5-5m0 1.04A3.954 3.954 0 0 1 12.96 10 3.954 3.954 0 0 1 9 13.96 3.95 3.95 0 0 1 5.041 10 3.95 3.95 0 0 1 9 6.04" color="#000" font-family="sans-serif" font-weight="400" overflow="visible" style="font-feature-settings:normal;font-variant-alternates:normal;font-variant-caps:normal;font-variant-ligatures:normal;font-variant-numeric:normal;font-variant-position:normal;isolation:auto;mix-blend-mode:normal;shape-padding:0;text-decoration-color:#000;text-decoration-line:none;text-decoration-style:solid;text-indent:0;text-orientation:mixed;text-transform:none;white-space:normal" transform="translate(.006)"/>
<path fill-rule="evenodd" d="m12.353 12.646-.707.708 2.5 2.5.707-.708z" color="#000" font-family="sans-serif" font-weight="400" overflow="visible" style="font-feature-settings:normal;font-variant-alternates:normal;font-variant-caps:normal;font-variant-ligatures:normal;font-variant-numeric:normal;font-variant-position:normal;isolation:auto;mix-blend-mode:normal;shape-padding:0;text-decoration-color:#000;text-decoration-line:none;text-decoration-style:solid;text-indent:0;text-orientation:mixed;text-transform:none;white-space:normal" transform="translate(.006)"/>
</g>
</g></svg>
