<svg xmlns="http://www.w3.org/2000/svg" width="16" height="16"><style id="current-color-scheme" type="text/css">.ColorScheme-Text{color:#fcfcfc}</style><g class="ColorScheme-Text" style="fill:currentColor">
<path fill="#fcfcfc" d="m10.191 0-.021.002h-.264L9.67.139a5.93 5.93 0 0 0-2.898 4.535l-.03.293c-.04-.038-.09-.088-.128-.121-.052-.294-.09-.595-.012-.885l.563-2.078-1.952.91c-.187.087-.313.262-.49.367l.145-1.44-1.531.614a2.4 2.4 0 0 0-.405.209l-.011.008-.014.01q-.44.303-.82.68-.416.407-.758.878A6.6 6.6 0 0 0 .218 6.537l-.007.033v.002l-.006.03-.002.004v.001l-.01.041v.004a8 8 0 0 0-.105.598v.002l-.02.137c-.023.14-.037.284-.05.472l-.005.04v.027l-.011.205L0 8.158v.076c.072 4.344 3.67 7.827 8.013 7.762a7.954 7.954 0 0 0 7.885-6.441l.008-.035.035-.293v-.004a7.76 7.76 0 0 0-.525-3.908c-.293-.71-.848-1.25-1.428-1.745l-.039-.048c-.126-.105-.17-.283-.307-.375l-.35.316c-.668-.79-1.348-1.486-1.898-2.322l-.142-.225-.045-.084-.012-.02a.2.2 0 0 1-.014-.039l.004.022a1.03 1.03 0 0 0-.578-.707l-.02-.008-.02-.01A1 1 0 0 0 10.19 0zm-.014 1.002h.006a.02.02 0 0 1 .016 0 .02.02 0 0 1 .012.016q.037.14.105.267.032.065.076.14l.166.264c1.102 1.678 2.45 2.448 3.237 4.36v-.014a6.9 6.9 0 0 0-.71-2.058 3.84 3.84 0 0 1 1.405 1.718 6.76 6.76 0 0 1 .459 3.409l-.033.261A6.95 6.95 0 0 1 8.006 15 6.897 6.897 0 0 1 .998 8.22v-.035l.014-.227v-.02c.013-.173.027-.286.043-.388l.022-.158c.048-.341.115-.62.115-.627a5.6 5.6 0 0 1 .943-2.053q.296-.406.655-.76.316-.315.685-.568.112-.072.234-.121c-.058.577.025 1.16.24 1.7A5.2 5.2 0 0 1 5.637 3.7a3.05 3.05 0 0 0 .02 1.659c.069.045.124.085.181.132.108.088.23.205.483.448q.806.562 1.697.976a1.67 1.67 0 0 1-.844.75c-1.992 0-2.314 1.168-2.314 1.168a2.87 2.87 0 0 0 1.65 2.215q.06.029.12.055.102.044.204.08c.294.103.602.162.913.176 3.105.403 4.428-3.82 1.648-5.262a2.48 2.48 0 0 1 1.69.396 3.56 3.56 0 0 0-3.07-1.734q-.126.002-.249.012a4.92 4.92 0 0 1 2.41-3.768zM9.052 7.109c.816.514 1.001 1.271.77 2.01-.248.79-.856 1.387-1.947 1.246l-.041-.006-.043-.002a2.2 2.2 0 0 1-.762-.173l-.07-.032-.032-.015c-.473-.216-.71-.69-.875-1.172.16-.126.399-.3 1.123-.3h.194l.18-.073a2.67 2.67 0 0 0 1.347-1.197z" color="#000" style="-inkscape-stroke:none"/>
</g></svg>
