<svg xmlns="http://www.w3.org/2000/svg" width="16" height="16">
<style id="current-color-scheme" type="text/css">
.ColorScheme-Text{color:#fcfcfc}
</style>
<path d="M4 0C1.784 0 0 1.784 0 4v8c0 2.216 1.784 4 4 4h8c2.216 0 4-1.784 4-4V4c0-2.216-1.784-4-4-4zm0 1h8c1.662 0 3 1.338 3 3v8c0 1.662-1.338 3-3 3h-1.049l.002-1.281a2.7 2.7 0 0 0-.263-1.192c.698-.147 1.397-.369 1.986-.875.81-.696 1.334-1.84 1.334-3.521 0-.883-.269-1.653-.744-2.291.124-.409.287-1.19-.133-2.277a.5.5 0 0 0-.31-.295s-.13-.037-.262-.043c-.39-.019-1.17.15-2.268.865a8.2 8.2 0 0 0-2.043-.254 8.6 8.6 0 0 0-2.068.258c-.998-.637-1.716-.885-2.082-.867-.13.006-.256.039-.256.039a.5.5 0 0 0-.317.297c-.418 1.083-.257 1.86-.133 2.271a3.73 3.73 0 0 0-.792 2.297c0 1.686.579 2.835 1.43 3.527.678.553 1.48.78 2.253.918-.045.127-.126.234-.154.373-.215.09-.481.2-.748.2-.318-.002-.583-.066-.865-.563-.01-.017-.52-1.022-1.627-1.102h-.03s-.079-.002-.174.008-.214.019-.386.12a.62.62 0 0 0-.264.294.66.66 0 0 0 .002.475c.103.252.259.36.475.512l.07.04s.035.01.166.145.315.375.475.79a2.2 2.2 0 0 0 .722.888c.136.098.305.18.496.244H4c-1.662 0-3-1.338-3-3V4c0-1.662 1.338-3 3-3m8.268 3.33c.163.736.059 1.294.013 1.408a.5.5 0 0 0 .092.516c.427.477.637 1.07.637 1.877 0 1.483-.412 2.27-.987 2.764-.574.493-1.383.706-2.232.802a.5.5 0 0 0-.275.873c.18.16.437.519.437 1.149 0 .334 0 .82-.002 1.281H6.965v-.363a.5.5 0 0 0-.61-.487c-1.006.225-1.52.013-1.822-.205-.023-.017-.008-.016-.03-.033.291.153.596.235.874.236.588.003 1.072-.218 1.314-.33a.5.5 0 0 0 .288-.386c.065-.48.231-.813.283-.86a.5.5 0 0 0-.276-.867c-.847-.099-1.706-.32-2.324-.822S3.602 9.6 3.602 8.13c0-.787.25-1.385.687-1.875a.5.5 0 0 0 .092-.518c-.045-.114-.148-.668.012-1.4.193.016.505.02 1.443.672a.5.5 0 0 0 .424.068c.64-.186 1.319-.24 1.992-.242.733-.002 1.422.069 1.996.242a.5.5 0 0 0 .43-.068c.936-.651 1.374-.664 1.59-.68z" class="ColorScheme-Text" style="fill:currentColor"/>
</svg>
