<svg xmlns="http://www.w3.org/2000/svg" width="16" height="16">
<style id="current-color-scheme" type="text/css">
.ColorScheme-Text{color:#fcfcfc}
</style>
<path d="M7.935 15.942c-.678-.133-1.527-.516-2.11-.953-.36-.268-.528-.412-.418-.356.029.015.244.136.478.269.563.32 1.183.59 1.993.867.648.222.672.293.057.173m.953-.156a12 12 0 0 1-1.037-.237c-1.065-.308-2.585-1.001-2.829-1.29-.587-.74-1.061-1.582-1.213-2.522l-.038-.26c.228.14.42.35.613.502.207.161.2.148-.09-.168-.368-.401-.744-.963-.86-1.284-.045-.124-.126-.601-.18-1.06-.113-.955-.266-1.619-.48-2.094-.168-.37-.608-.869-.86-.972l-.164-.069.207-.071c.459-.159 1.17-.132 1.877.071.11.031.123.022.092-.059-.066-.17-.29-1.37-.324-1.723l-.032-.345.13.24c.163.303.604.717.906.85.128.057.348.12.489.138l.255.035-.193-.225c-.493-.575-.787-1.428-.786-2.279.001-.563.05-.727.15-.508.101.224.537.653.827.815.332.187.65.29 1.308.43 1.036.22 1.559.64 1.841 1.477.1.298.138.352.242.352.099 0 .159-.074.315-.388.25-.503.33-.897.303-1.478-.019-.387-.052-.531-.192-.83a3.6 3.6 0 0 0-.334-.569c-.09-.114-.143-.207-.116-.207s.214.056.417.125c1.041.354 1.87.926 2.388 1.65.578.809.789 1.685.527 2.2-.247.49-.955.61-1.735.296-.181-.073-.338-.124-.348-.114-.079.079.845.533 1.255.618.761.158 1.168-.077 1.364-.788.038-.137.071-.2.074-.14.002.06.125.343.271.63.24.468.267.554.258.836-.01.365-.039.392-.578.573-.828.279-2.414-.034-3.655-.721-.215-.12-.233-.122-.12-.024.381.337 1.49.855 2.287 1.068.358.096.596.122 1.145.123.656.003.708-.005.977-.144.157-.081.292-.14.302-.13s.113.219.23.465l.214.448-.123.11c-.068.06-.325.176-.57.259-.398.133-.52.15-1.112.148-1.154-.003-2.374-.332-3.707-1a15 15 0 0 0-.757-.367c0 .036.641.431 1.077.663 1.452.773 3.308 1.226 4.374 1.068.486-.072.797-.204.787-.335-.004-.049.024-.1.062-.115q.103-.042.211.69c.03.197.019.228-.117.321-.185.128-.656.314-.973.384-.37.082-1.517.066-2.077-.03-1.243-.21-2.743-.767-3.916-1.45-.405-.236-.342-.147.094.132 2.245 1.435 5.288 2.17 6.697 1.615.148-.058.282-.105.3-.105.043 0-.037.698-.093.803-.062.115-.737.392-1.135.464-.453.083-1.515.071-2.102-.024-1.424-.23-3.036-.808-4.319-1.55-.256-.147-.465-.257-.465-.244 0 .063 1.05.69 1.62.97 2.268 1.107 4.626 1.55 6.073 1.14.163-.047.154.014-.072.47-.21.42-.294.48-.934.652-1.575.422-4.579-.27-6.86-1.58-.284-.163-.518-.287-.518-.274 0 .055.95.634 1.504.916 1.672.854 3.601 1.4 4.954 1.401.35 0 .76-.009.908-.021l.27-.022-.19.227c-.362.432-.635.545-1.52.625-1.46.132-4.077-.603-5.885-1.653-.27-.157-.422-.228-.336-.157s.405.278.71.46c1.519.901 3.766 1.649 4.993 1.66.27.002.492.022.492.044s.054.04.12.042c.178.004-.265.23-.774.394-.505.163-.98.17-1.791.026m4.358-9.621a3 3 0 0 0-.21-.396c-.309-.491-.322-.84-.04-1.102l.117-.11.012.161c.006.089.088.281.182.427.225.349.268.753.108 1.005l-.11.172zM7.944 3.666c-.214-.216-.46-.343-1.18-.611-.78-.29-1.476-.635-1.743-.864-.443-.381-.655-.906-.655-1.62 0-.63.03-.687.223-.422.268.37.473.49 1.535.903.677.263.965.442 1.325.822.37.39.575.842.647 1.422.03.253.048.48.039.503s-.096-.036-.191-.133" class="ColorScheme-Text" style="fill:currentColor"/>
</svg>
