<svg xmlns="http://www.w3.org/2000/svg" width="16" height="16"><style id="current-color-scheme" type="text/css">.ColorScheme-Contrast{color:#dedede}</style><g class="ColorScheme-Contrast" style="fill:currentColor">
<path fill="#dedede" fill-rule="evenodd" d="M13.514.041a3 3 0 0 0-.41.016l-7.21 1.125c-.813.082-.901.462-.894.935v9.52c-.413-.272-.856-.465-1.445-.465-.76 0-1.213.29-1.487.674-.274.383-.365.865-.365 1.238 0 .45.155.929.488 1.295.334.366.846.623 1.582.623.832 0 1.416-.232 1.747-.686.26-.357.405-.835.457-1.423q.009-.108.015-.221c.004-.06.003-.102.004-.172H6V4.797c.022-.62.584-.711.584-.711l5.854-.914C13 3 13 3.695 13 3.695v6.942c-.413-.272-.856-.465-1.445-.465-.76 0-1.212.29-1.486.674-.275.383-.366.865-.366 1.238 0 .45.155.929.489 1.295s.845.623 1.582.623c.831 0 1.415-.232 1.746-.686.26-.357.405-.835.457-1.423q.009-.108.015-.221c.004-.06.003-.102.004-.172H14V.932c.012-.686-.14-.867-.486-.891" color="#000" font-family="sans-serif" font-weight="400" overflow="visible" style="line-height:normal;font-variant-ligatures:normal;font-variant-position:normal;font-variant-caps:normal;font-variant-numeric:normal;font-variant-alternates:normal;font-feature-settings:normal;text-indent:0;text-align:start;text-decoration-line:none;text-decoration-style:solid;text-decoration-color:#000;text-transform:none;text-orientation:mixed;white-space:normal;shape-padding:0;isolation:auto;mix-blend-mode:normal;solid-color:#000;solid-opacity:1"/>
</g></svg>
