<svg xmlns="http://www.w3.org/2000/svg" width="16" height="16">
<style id="current-color-scheme" type="text/css">
.ColorScheme-Contrast{color:#dedede}
</style>
<path d="M5.41 2C4.635 2 4 2.635 4 3.41V13c0 .942 1.184 1.361 1.777.629l2.516-3.113c.026-.003-.041.01.039.007h2.031c.734 0 1.262-.437 1.387-1.12.041-.193.288-1.392.346-1.694.115-.576-.206-1.027-.649-1.328.566-.11 1.01-.476 1.133-1.026l.002-.013.34-1.643.002-.002V3.69c.145-.719-.036-1.69-1.35-1.69zm0 1h6.164c.215 0 .43.215.371.488l-.341 1.65a.43.43 0 0 1-.41.333H8.222a.61.61 0 0 0-.606.605v.362c0 .332.274.605.606.605h2.511c.235 0 .43.225.381.469a226 226 0 0 1-.342 1.68.416.416 0 0 1-.41.331H8.311c-.43.01-.518.02-.772.332L5 13V3.41c0-.224.186-.41.41-.41" class="ColorScheme-Contrast" style="fill:currentColor"/>
</svg>
