<svg xmlns="http://www.w3.org/2000/svg" width="16" height="16"><style id="current-color-scheme" type="text/css">.ColorScheme-Text{color:#fcfcfc}</style><g class="ColorScheme-Text" style="fill:currentColor">
<path fill="#fcfcfc" d="M4 4.023h.666A7.334 7.334 0 0 1 12 11.357v.666h-1.334v-.666a6 6 0 0 0-6-6c-.364 0-.666.018-.666 0zM4 6.69h.666a4.67 4.67 0 0 1 4.668 4.668v.666H8v-.666a3.334 3.334 0 0 0-3.334-3.334H4zm1.334 2.668c1.188 0 1.781 1.437.94 2.276-.84.84-2.275.244-2.274-.944 0-.736.598-1.332 1.334-1.332" color="#000" style="font-variation-settings:normal"/>
<path fill="#fcfcfc" d="M3 1c-1.108 0-2 .892-2 2v10c0 1.108.892 2 2 2h10c1.108 0 2-.892 2-2V3c0-1.108-.892-2-2-2zm0 1h10c.554 0 1 .446 1 1v10c0 .554-.446 1-1 1H3c-.554 0-1-.446-1-1V3c0-.554.446-1 1-1"/>
</g></svg>
