<svg xmlns="http://www.w3.org/2000/svg" width="16" height="16"><style id="current-color-scheme" type="text/css">.ColorScheme-Contrast{color:#dedede}</style><g class="ColorScheme-Contrast" style="fill:currentColor">
<g>
<path d="M5 11h3v1H5zm0-2h6v1H5zm0-2h5v1H5zm0-2h3v1H5z"/>
<path d="M10.826 0 15 4.174V1c0-.554-.446-1-1-1z" style="paint-order:stroke fill markers"/>
<path d="M3 0C1.91 0 1 .91 1 2v12c0 1.09.91 2 2 2h10c1.09 0 2-.91 2-2V6a1 1 0 0 0-.293-.707l-5-5A1 1 0 0 0 9 0zm0 1h6l5 5v8c0 .554-.446 1-1 1H3c-.554 0-1-.446-1-1V2c0-.554.446-1 1-1" color="#000" style="font-feature-settings:normal;font-variant-alternates:normal;font-variant-caps:normal;font-variant-ligatures:normal;font-variant-numeric:normal;font-variant-position:normal;isolation:auto;mix-blend-mode:normal;paint-order:stroke fill markers;shape-padding:0;text-decoration-color:#000;text-decoration-line:none;text-decoration-style:solid;text-indent:0;text-orientation:mixed;text-transform:none;white-space:normal"/>
</g>
</g></svg>
