<svg width="16" height="16" version="1.1" xmlns="http://www.w3.org/2000/svg">
<style id="current-color-scheme" type="text/css">
.ColorScheme-Text{color:#fcfcfc}
</style>
 <path d="m8.012 4.358a3.654 3.654 0 0 0-3.5 2.648 2.38 2.38 0 0 0-2.144-1.374 2.38 2.38 0 0 0-2.368 2.368 2.38 2.38 0 0 0 2.368 2.368c0.945 0 1.766-0.566 2.144-1.374a3.654 3.654 0 0 0 3.5 2.648 3.655 3.655 0 0 0 3.492-2.614 2.38 2.38 0 0 0 2.127 1.34 2.38 2.38 0 0 0 2.369-2.368 2.38 2.38 0 0 0-2.369-2.368c-0.931 0-1.742 0.55-2.127 1.34a3.655 3.655 0 0 0-3.492-2.614m0 1.39c1.252 0 2.252 1 2.252 2.252s-1 2.252-2.252 2.252-2.251-1-2.251-2.252 1-2.252 2.251-2.252m-5.644 1.274c0.549 0 0.979 0.43 0.979 0.978s-0.43 0.978-0.979 0.978a0.97 0.97 0 0 1-0.978-0.978c0-0.549 0.43-0.978 0.978-0.978m11.263 0c0.549 0 0.979 0.43 0.979 0.978s-0.43 0.978-0.979 0.978a0.97 0.97 0 0 1-0.978-0.978c0-0.549 0.43-0.978 0.978-0.978" class="ColorScheme-Text" style="fill:currentColor"/>
</svg>
