<svg xmlns="http://www.w3.org/2000/svg" width="16" height="16" version="1.0">
<style id="current-color-scheme" type="text/css">
.ColorScheme-Text{color:#fcfcfc}
</style>
<g class="ColorScheme-Text" style="fill:currentColor">
<path d="M8 4a4 4 0 1 0 0 8 4 4 0 0 0 0-8m0 1a3 3 0 1 1 0 6 3 3 0 0 1 0-6m0 1.5c-.75 0-1.5.5-1.5 1.5 0 2 3 2 3 0 0-1-.75-1.5-1.5-1.5"/>
<path d="M4 1C2.338 1 1 2.338 1 4v8c0 1.662 1.338 3 3 3h8c1.662 0 3-1.338 3-3V4c0-1.662-1.338-3-3-3zm0 1h8c1.108 0 2 .892 2 2v8c0 1.108-.892 2-2 2H4c-1.108 0-2-.892-2-2V4c0-1.108.892-2 2-2"/>
</g>
</svg>
