<svg xmlns="http://www.w3.org/2000/svg" width="16" height="16">
<style id="current-color-scheme" type="text/css">
.ColorScheme-Contrast{color:#dedede}
</style>
<path d="M7.5 0c-.277 0-.5.223-.5.5V7c0 .554-.446 1-1 1s-1-.446-1-1V1.5a.499.499 0 1 0-1 0V8c0 .554-.446 1-1 1s-1-.446-1-1V4.5a.499.499 0 1 0-1 0V13c0 1.662 1.338 3 3 3h5a3 3 0 0 0 2.125-.88l.055-.048 4.242-4.242a.499.499 0 1 0-.707-.707l-2.865 2.865A1 1 0 0 1 11 12V2.5a.499.499 0 1 0-1 0V7c0 .554-.446 1-1 1s-1-.446-1-1V.5c0-.277-.223-.5-.5-.5m0 8.326C7.866 8.74 8.402 9 9 9c.365 0 .706-.096 1-.266V12c0 .694.35 1.306.885 1.664A1.99 1.99 0 0 1 9 15H4c-1.108 0-2-.892-2-2V9.734c.294.17.635.266 1 .266.875 0 1.614-.556 1.887-1.336.318.213.7.336 1.113.336.598 0 1.134-.26 1.5-.674" class="ColorScheme-Contrast" style="fill:currentColor"/>
</svg>
