<svg xmlns="http://www.w3.org/2000/svg" width="16" height="16">
<g fill="currentColor" fill-opacity=".996">
<style id="current-color-scheme" type="text/css">
.ColorScheme-Text{color:#fcfcfc}
</style>
<g class="ColorScheme-Text" style="fill:currentColor">
<path d="M85.008 175.98v14h11c.513 0 1-.534 1-1h-11v-2h10c.575 0 1-.602 1-1v-9c0-.488-.447-1-1-1zm.992 1.018h10v9H86z" style="paint-order:normal" transform="translate(-83 -175)"/>
<path d="M89.457 177.98h.266v1.012h-.127c-.37 0-.551.203-.551.558v1.117c0 .521-.159.74-.506.846.347.106.506.325.506.846v1.144c0 .355.18.559.55.559h.128v.984h-.266c-.944 0-1.428-.483-1.428-1.351v-1.307c0-.241-.128-.354-.332-.353l-.342-.002v-1.006h.342c.204 0 .332-.114.332-.356v-1.34c0-.868.484-1.351 1.428-1.351m2.86 0h.265c.944 0 1.428.483 1.428 1.352v1.34c0 .241.128.355.332.355h.342v1.006l-.342.002c-.204-.001-.332.112-.332.353v1.307c0 .868-.484 1.351-1.428 1.351h-.266v-.984h.127c.37 0 .551-.204.551-.558v-1.145c0-.521.159-.74.506-.846-.347-.105-.506-.324-.506-.845v-1.118c0-.354-.18-.558-.55-.558h-.128z" style="paint-order:normal" transform="translate(-83 -175)"/>
</g>
</g>
</svg>
