<svg xmlns="http://www.w3.org/2000/svg" width="16" height="16">
<style id="current-color-scheme" type="text/css">
.ColorScheme-Text{color:#fcfcfc}
</style>
<path d="M8 1c-.529 0-1.032.098-1.494.295-.46.188-.868.463-1.207.82l-.002.004-.002.002a3.8 3.8 0 0 0-.766 1.28A4.6 4.6 0 0 0 4.26 5c0 .58.087 1.122.27 1.612.18.482.436.908.766 1.266l.004.004c.338.356.743.636 1.201.832l.008.004C6.969 8.907 7.472 9 8 9s1.028-.093 1.49-.281v-.002a3.5 3.5 0 0 0 1.19-.834c.34-.358.6-.786.781-1.27.184-.49.271-1.031.271-1.613h.008c0-.573-.087-1.109-.27-1.598a3.7 3.7 0 0 0-.78-1.283 3.3 3.3 0 0 0-1.196-.824A3.8 3.8 0 0 0 8 1m0 1c.406 0 .77.073 1.102.215l.01.004.01.002a2.3 2.3 0 0 1 .837.576v.01q.361.378.569.94v.005q.193.528.199 1.202V5c0 .482-.072.9-.207 1.262v.002a2.7 2.7 0 0 1-.57.931l-.01.004v.004q-.348.379-.848.594A2.9 2.9 0 0 1 8 8c-.41 0-.777-.072-1.11-.207h-.003a2.6 2.6 0 0 1-.838-.582l-.051-.07-.008-.006a2.8 2.8 0 0 1-.523-.871A3.6 3.6 0 0 1 5.259 5q.001-.705.208-1.25l.002-.002v-.004c.138-.376.324-.684.554-.936l.012-.01c.24-.25.52-.443.85-.578l.006-.004.008-.002Q7.393 2.002 8 2m5.5 6c-.277 0-.5.223-.5.5v1c0 .277.223.5.5.5h1c.277 0 .5-.223.5-.5v-1c0-.277-.223-.5-.5-.5zm0 3c-.277 0-.5.223-.5.5v1c0 .277.223.5.5.5h1c.277 0 .5-.223.5-.5v-1c0-.277-.223-.5-.5-.5zm-5.47.025c-2.882 0-4.43.266-5.579 1.133-.575.434-.954 1.025-1.168 1.713S1.002 15.083 1 15.998L2 16c.002-.865.072-1.3.238-1.834s.412-.903.817-1.209c.81-.61 2.162-.933 4.974-.933.77 0 1.407.03 1.971.078v-1.014a28 28 0 0 0-1.97-.063M13.5 14c-.277 0-.5.223-.5.5v1c0 .277.223.5.5.5h1c.277 0 .5-.223.5-.5v-1c0-.277-.223-.5-.5-.5z" class="ColorScheme-Text" style="fill:currentColor"/>
</svg>
