<svg xmlns="http://www.w3.org/2000/svg" width="16" height="16"><style id="current-color-scheme" type="text/css">.ColorScheme-Text{color:#fcfcfc}</style><g class="ColorScheme-Text" style="fill:currentColor">
<g fill="#fcfcfc" color="#000">
<path d="M13 3v5.563c0 .515-.052 1.108-.437 1.624-.386.517-1.095.839-2.063.813H6.438l-1.032 1H10l3 3v-3c1.108 0 2-.892 2-2V5c0-1.108-.892-2-2-2" opacity=".5"/>
<path d="M5 3h1v1h1V3h1v1h1v1H8v1h1v1H8v1H7V7H6v1H5V7H4V6h1V5H4V4h1zm1 2v1h1V5z"/>
<path d="M3 1c-1.09 0-2 .91-2 2v5c0 .703.439 1.223 1 1.58V12a1 1 0 0 0 1.707.707L6.414 10H10c1.09 0 2-.91 2-2V3c0-1.09-.91-2-2-2zm0 1h7c.554 0 1 .446 1 1v5c0 .554-.446 1-1 1H6l-3 3V9c-.554 0-1-.446-1-1V3c0-.554.446-1 1-1" style="-inkscape-stroke:none;paint-order:fill markers stroke"/>
</g>
</g></svg>
