<svg xmlns="http://www.w3.org/2000/svg" width="16" height="16">
<style id="current-color-scheme" type="text/css">
.ColorScheme-Text{color:#fcfcfc}
</style>
<path d="M8.139.002a7 7 0 0 0-.493.008H7.64a7 7 0 0 0-6.632 6.648 7 7 0 0 0 .002.7A7 7 0 0 0 1.074 8h1.018a6 6 0 0 1-.084-.693 6 6 0 0 1 5.685-6.299h.004a6 6 0 0 1 6.295 5.687A6 6 0 0 1 13.912 8h1.008a7 7 0 0 0 .07-1.355A7 7 0 0 0 8.14.002zM8 4a3 3 0 0 0-3 3 3 3 0 0 0 .176 1h1.709A1.5 1.5 0 0 1 6.5 7 1.5 1.5 0 0 1 8 5.5 1.5 1.5 0 0 1 9.5 7a1.5 1.5 0 0 1-.385 1h1.711A3 3 0 0 0 11 7a3 3 0 0 0-3-3M0 9v3.006c.015 1.258-.03 2.179.385 2.932.207.376.56.673.998.837.438.165.96.225 1.617.225h10c.658 0 1.179-.06 1.617-.225.439-.164.789-.461.996-.838.415-.752.372-1.673.387-2.931V9zm.977 1.016h14.002c-.025 1.311.005 2.595-.067 3.873-.026.622-.592 1.093-1.201 1.056-3.607.073-7.253.052-10.861.024-.65.04-1.553-.088-1.715-.852-.163-.905-.097-1.84-.139-2.758l-.02-1.343zM6 11v1h4v-1z" class="ColorScheme-Text" style="fill:currentColor"/>
</svg>
