<svg xmlns="http://www.w3.org/2000/svg" width="16" height="16"><style id="current-color-scheme" type="text/css">.ColorScheme-Text{color:#fcfcfc}</style><g class="ColorScheme-Text" style="fill:currentColor">
<path fill="#fcfcfc" d="M4 0C2.742.015 1.821-.028 1.069.387a1.88 1.88 0 0 0-.838.996C.066 1.82.006 2.343.006 3v4h.01c-.028.332.03.678.18 1.006.203.447.544.878 1.03 1.365l5.41 5.408c.486.488.918.828 1.364 1.032.447.203.929.244 1.362.119.586-.17 1.098-.6 1.644-1.115v-1.45c-.896.873-1.53 1.44-1.937 1.557-.211.06-.37.056-.635-.065-.265-.12-.618-.379-1.057-.818l-5.41-5.41c-.439-.439-.698-.79-.818-1.055C1.041 7.337 1.006 7 1.006 7V3c0-.592.063-1.006.16-1.266.098-.26.202-.371.385-.472.365-.202 1.195-.247 2.455-.262h3s.335.035.572.143c.265.12.618.381 1.057.82L12.674 6h1.482L9.377 1.22C8.89.735 8.459.394 8.012.19A2 2 0 0 0 7.006.008V0H4.002zm-.974 2-.07.002a1 1 0 0 0-.948 1.049 1 1 0 0 0 1.049.947 1 1 0 0 0 .947-1.049A1 1 0 0 0 3.026 2m10.48 6c-.277 0-.5.223-.5.5v1c0 .277.223.5.5.5h1c.277 0 .5-.223.5-.5v-1c0-.277-.223-.5-.5-.5zm0 3c-.277 0-.5.223-.5.5v1c0 .277.223.5.5.5h1c.277 0 .5-.223.5-.5v-1c0-.277-.223-.5-.5-.5zm0 3c-.277 0-.5.223-.5.5v1c0 .277.223.5.5.5h1c.277 0 .5-.223.5-.5v-1c0-.277-.223-.5-.5-.5z" color="#000" font-family="sans-serif" font-weight="400" overflow="visible" style="font-feature-settings:normal;font-variant-alternates:normal;font-variant-caps:normal;font-variant-ligatures:normal;font-variant-numeric:normal;font-variant-position:normal;isolation:auto;mix-blend-mode:normal;shape-padding:0;text-decoration-color:#000;text-decoration-line:none;text-decoration-style:solid;text-indent:0;text-orientation:mixed;text-transform:none;white-space:normal"/>
</g></svg>
