<svg xmlns="http://www.w3.org/2000/svg" width="16" height="16">
<style id="current-color-scheme" type="text/css">
.ColorScheme-Text{color:#fcfcfc}
</style>
<path d="M6 2c-1.096 0-1.876.947-1.992 1.877L2.868 13h10.265l-1.14-9.133-.002-.008a2.27 2.27 0 0 0-.584-1.25A1.98 1.98 0 0 0 10 2zm0 1h4c.554 0 .922.452 1 1l1 8H4l1-8c.069-.55.446-1 1-1m2 1.063c-.554 0-1 .446-1 1V7c0 .554.446 1 1 1s1-.446 1-1V5.063c0-.554-.446-1-1-1M8 9a1 1 0 0 0-1 1 1 1 0 0 0 1 1 1 1 0 0 0 1-1 1 1 0 0 0-1-1m-5.5 5a.499.499 0 1 0 0 1h11a.499.499 0 1 0 0-1z" class="ColorScheme-Text" style="fill:currentColor"/>
</svg>
