<svg xmlns="http://www.w3.org/2000/svg" width="16" height="16">
<style id="current-color-scheme" type="text/css">
.ColorScheme-Contrast{color:#dedede}
</style>
<g class="ColorScheme-Contrast" style="fill:currentColor">
<path d="M12.612 6.143A12.6 12.6 0 0 0 6.94 4.81c-1.037 0-2.07.126-3.073.374-.331.082-.533.483-.45.814.081.33.417.533.749.45a11.6 11.6 0 0 1 2.775-.337c1.798 0 3.519.404 5.119 1.202a.6.6 0 0 0 .274.065c.228 0 .446-.19.556-.407a.62.62 0 0 0-.278-.83M6.94 10.043c-.836 0-1.661.123-2.454.369-.246.073-.382.593-.306.84a.46.46 0 0 0 .58.304 7.4 7.4 0 0 1 2.18-.328c1.24 0 2.467.314 3.549.912l.223.057a.46.46 0 0 0 .405-.241c.123-.224.044-.768-.182-.89a8.3 8.3 0 0 0-3.995-1.023m4.805-1.358a10.47 10.47 0 0 0-7.557-.803c-.288.079-.457.57-.379.858a.54.54 0 0 0 .665.38 9.4 9.4 0 0 1 2.467-.33c1.519 0 2.966.352 4.307 1.048a.5.5 0 0 0 .248.063c.197 0 .385-.303.482-.488a.543.543 0 0 0-.233-.728"/>
<path d="M8 0a8 8 0 0 0-8 8 8 8 0 0 0 8 8 8 8 0 0 0 8-8 8 8 0 0 0-8-8m0 1a7 7 0 0 1 7 7 7 7 0 0 1-7 7 7 7 0 0 1-7-7 7 7 0 0 1 7-7" style="paint-order:stroke fill markers"/>
</g>
</svg>
