<svg xmlns="http://www.w3.org/2000/svg" width="16" height="16">
<style id="current-color-scheme" type="text/css">
.ColorScheme-Contrast{color:#dedede}
</style>
<g class="ColorScheme-Contrast" style="fill:currentColor">
<path d="M4.5 1a3.5 3.5 0 1 1 0 7 3.5 3.5 0 1 1 0-7m7 7a3.5 3.5 0 1 1 0 7 3.5 3.5 0 1 1 0-7"/>
<path d="M8 4.5a3.5 3.5 0 1 0 7 0 3.5 3.5 0 1 0-7 0m1 0C9 3.121 10.121 2 11.5 2S14 3.121 14 4.5 12.879 7 11.5 7 9 5.879 9 4.5m-8 7a3.5 3.5 0 1 0 7 0 3.5 3.5 0 1 0-7 0m1 0C2 10.121 3.121 9 4.5 9S7 10.121 7 11.5 5.879 14 4.5 14 2 12.879 2 11.5"/>
</g>
</svg>
