<svg xmlns="http://www.w3.org/2000/svg" width="16" height="16"><style id="current-color-scheme" type="text/css">.ColorScheme-Contrast{color:#dedede}</style><g class="ColorScheme-Contrast" style="fill:currentColor">
<path fill="#dedede" d="M2.5 0A2.5 2.5 0 0 0 0 2.5a2.5 2.5 0 0 0 2 2.443v6.114A2.5 2.5 0 0 0 0 13.5 2.5 2.5 0 0 0 2.5 16a2.5 2.5 0 0 0 2.443-2h6.114a2.5 2.5 0 0 0 2.443 2 2.5 2.5 0 0 0 2.5-2.5 2.5 2.5 0 0 0-2-2.45V4.944A2.5 2.5 0 0 0 16 2.5 2.5 2.5 0 0 0 13.5 0a2.5 2.5 0 0 0-2.443 2H4.949A2.5 2.5 0 0 0 2.5 0m0 1A1.5 1.5 0 0 1 4 2.5 1.5 1.5 0 0 1 2.5 4 1.5 1.5 0 0 1 1 2.5 1.5 1.5 0 0 1 2.5 1m11 0A1.5 1.5 0 0 1 15 2.5 1.5 1.5 0 0 1 13.5 4 1.5 1.5 0 0 1 12 2.5 1.5 1.5 0 0 1 13.5 1M4.943 3h6.114a2.5 2.5 0 0 0 .375.861l-.285.285A1.5 1.5 0 0 0 10.5 4a1.5 1.5 0 0 0-1.41 1H6.914A1.5 1.5 0 0 0 5.5 4a1.5 1.5 0 0 0-.633.16l-.299-.299A2.5 2.5 0 0 0 4.943 3M3.861 4.568l.3.3A1.5 1.5 0 0 0 4 5.5a1.5 1.5 0 0 0 1 1.41v2.18a1.5 1.5 0 0 0-1 1.41 1.5 1.5 0 0 0 .16.633l-.294.293A2.5 2.5 0 0 0 3 11.05V4.944a2.5 2.5 0 0 0 .861-.375zm8.278 0a2.5 2.5 0 0 0 .861.375v6.114a2.5 2.5 0 0 0-.861.375l-.3-.3A1.5 1.5 0 0 0 12 10.5a1.5 1.5 0 0 0-1-1.414V6.91a1.5 1.5 0 0 0 1-1.41 1.5 1.5 0 0 0-.146-.647zM5.5 5a.5.5 0 0 1 .5.5.5.5 0 0 1-.5.5.5.5 0 0 1-.5-.5.5.5 0 0 1 .5-.5m5 0a.5.5 0 0 1 .5.5.5.5 0 0 1-.5.5.5.5 0 0 1-.5-.5.5.5 0 0 1 .5-.5M6.91 6h2.18a1.5 1.5 0 0 0 .91.91v2.18a1.5 1.5 0 0 0-.91.91H6.914A1.5 1.5 0 0 0 6 9.086V6.91A1.5 1.5 0 0 0 6.91 6M5.5 10a.5.5 0 0 1 .5.5.5.5 0 0 1-.5.5.5.5 0 0 1-.5-.5.5.5 0 0 1 .5-.5m5 0a.5.5 0 0 1 .5.5.5.5 0 0 1-.5.5.5.5 0 0 1-.5-.5.5.5 0 0 1 .5-.5m-3.59 1h2.18a1.5 1.5 0 0 0 1.41 1 1.5 1.5 0 0 0 .633-.16l.299.299a2.5 2.5 0 0 0-.375.861H4.949a2.5 2.5 0 0 0-.375-.867l.293-.293A1.5 1.5 0 0 0 5.5 12a1.5 1.5 0 0 0 1.41-1M2.5 12A1.5 1.5 0 0 1 4 13.5 1.5 1.5 0 0 1 2.5 15 1.5 1.5 0 0 1 1 13.5 1.5 1.5 0 0 1 2.5 12m11 0a1.5 1.5 0 0 1 1.5 1.5 1.5 1.5 0 0 1-1.5 1.5 1.5 1.5 0 0 1-1.5-1.5 1.5 1.5 0 0 1 1.5-1.5" color="#000" style="text-decoration-line:none;text-indent:0;text-transform:none"/>
</g></svg>
