<svg xmlns="http://www.w3.org/2000/svg" width="16" height="16">
<style id="current-color-scheme" type="text/css">
.ColorScheme-Text{color:#fcfcfc}
</style>
<g class="ColorScheme-Text" style="fill:currentColor">
<g class="ColorScheme-Text" style="fill:currentColor" transform="matrix(1 0 0 -1 0 16)">
<path d="M4 11v5h8v-5h-1v4H5v-4z"/>
<rect width="1" height="1" x="6" y="13" rx="0" ry="0"/>
<rect width="1" height="1" x="9" y="13" rx="0" ry="0"/>
</g>
<path d="M4 12c-1.108 0-2-.892-2-2V6h1v4c0 .554.446 1 1 1h8c.554 0 1-.446 1-1V6h1v4c0 1.108-.892 2-2 2zM2 6c0-3.324 2.676-6 6-6s6 2.676 6 6h-1c0-2.77-2.23-5-5-5S3 3.23 3 6z"/>
</g>
</svg>
