<svg xmlns="http://www.w3.org/2000/svg" width="16" height="16">
<style id="current-color-scheme" type="text/css">
.ColorScheme-Contrast{color:#dedede}
</style>
<g class="ColorScheme-Contrast" style="fill:currentColor">
<defs>
<mask id="org_gtk_PrintEditor4-symbolic_svg__b" maskUnits="userSpaceOnUse">
<g filter="url(#org_gtk_PrintEditor4-symbolic_svg__a)">
<path fill-opacity=".396" d="M0 0h16v16H0z"/>
</g>
</mask>
</defs>
<filter id="org_gtk_PrintEditor4-symbolic_svg__a" width="1" height="1" x="0" y="0">
<feColorMatrix in="SourceGraphic" values="0 0 0 0 1 0 0 0 0 1 0 0 0 0 1 0 0 0 1 0"/>
</filter>
<path d="M29 112a7.98 7.98 0 0 1-8-8v-2c0 4.434 3.566 8 8 8h88c4.434 0 8-3.566 8-8v2c0 4.434-3.566 8-8 8z" mask="url(#org_gtk_PrintEditor4-symbolic_svg__b)" transform="translate(-168 -16)"/>
<path d="M6 10h1l9-9-1-1-9 9z"/>
<path d="M5 0C3.892 0 2.963.893 3 2v1H2C.892 3 0 3.892 0 5v6c0 1.108.892 2 2 2h1v1c0 1.108.892 2 2 2h6c1.108 0 2-.892 2-2v-1h1c1.108 0 2-.892 2-2V5c0-.704-.361-1.322-.908-1.678l-.742.742c.38.142.65.505.65.936v6c0 .554-.446 1-1 1h-1V9c0-.979-.697-1.787-1.623-1.963L10.414 8H11c.554 0 1 .446 1 1v5c0 .554-.446 1-1 1H5c-.554 0-1-.446-1-1V9c0-.554.446-1 1-1h.586l1-1H5c-1.108 0-2 .892-2 2v3H2c-.554 0-1-.446-1-1V5c0-.554.446-1 1-1h7.586l1-1H4V2c0-.554.446-1 1-1h6c.425 0 .812.264.95.637l.728-.729A2 2 0 0 0 11 0zm8.5 5a.5.5 0 0 0-.107.021l-.372.372A.5.5 0 0 0 13 5.5a.5.5 0 1 0 .5-.5"/>
</g>
</svg>
