<svg xmlns="http://www.w3.org/2000/svg" width="16" height="16" version="1.0"><style id="current-color-scheme" type="text/css">.ColorScheme-Contrast{color:#dedede}</style><g class="ColorScheme-Contrast" style="fill:currentColor">
<rect width="11.989" height="1" x="2" y="14" fill="#dedede" color="#000" opacity=".257" overflow="visible" rx=".5" ry=".5"/>
<rect width="7.625" height="1" x="2" y="14" fill="#dedede" color="#000" overflow="visible" rx=".5" ry=".5"/>
<path fill="#dedede" d="M8 1a6 6 0 0 0-6 5.996v4.643C2.002 12.39 2.61 13 3.363 13h4.639A6 6 0 0 0 8 1m0 1c2.773 0 5 2.227 5 5a4.985 4.985 0 0 1-4.998 5H3.363A.35.35 0 0 1 3 11.639V6.996A4.985 4.985 0 0 1 8 2"/>
<path fill="#dedede" d="M9.223 3.439c1.01 0 1.966.774 1.966 1.84 0 .1-.001.198-.017.31a.502.502 0 1 1-.992-.141c.004-.032.006-.082.006-.169 0-.604-.494-.838-.963-.838s-.891.393-.893.837v1.54l.87-.006c.678-.014.685 1.007.007 1.002l-.877.006-.006 1.436a2.246 2.246 0 0 1-2.22 2.029c-1.224 0-2.233-1-2.233-2.225a2.283 2.283 0 0 1 2.312-2.239l.705-.005v1.001l-.711.006c-.696.021-1.292.493-1.303 1.237 0 .679.55 1.222 1.23 1.222s1.224-.494 1.224-1.22V5.274c0-.07.004-.127.012-.204.114-.927.944-1.633 1.883-1.633z"/>
</g></svg>
