<svg xmlns="http://www.w3.org/2000/svg" width="16" height="16">
<style id="current-color-scheme" type="text/css">
.ColorScheme-Contrast{color:#dedede}
</style>
<path fill="#dedede" d="M6.5 3 8 5H7v3h5V7l2 1.5-2 1.5V9H7v2h1l-1.5 2L5 11h1V9H4v1L2 8.5 4 7v1h2V5H5z" class="ColorScheme-Contrast" style="fill:currentColor" overflow="visible"/>
<path fill="#dedede" d="M3 1C1.338 1 0 2.338 0 4v8c0 1.662 1.338 3 3 3h10c1.662 0 3-1.338 3-3V4c0-1.662-1.338-3-3-3zm0 1h10c1.108 0 2 .892 2 2v8c0 1.108-.892 2-2 2H3c-1.108 0-2-.892-2-2V4c0-1.108.892-2 2-2" class="ColorScheme-Contrast" style="fill:currentColor"/>
</svg>
