<svg xmlns="http://www.w3.org/2000/svg" width="16" height="16">
<style id="current-color-scheme" type="text/css">
.ColorScheme-Text{color:#fcfcfc}
</style>
<g fill-rule="evenodd" class="ColorScheme-Text" style="fill:currentColor">
<rect width="2" height="2" x="2" y="9" rx="0" ry="0" style="paint-order:fill markers stroke"/>
<rect width="2" height="2" x="2" y="6" rx="0" ry="0" style="paint-order:fill markers stroke"/>
<rect width="2" height="1" x="2" y="4" rx="0" ry="0" style="paint-order:fill markers stroke"/>
<path d="M4.5 14h7a.499.499 0 1 1 0 1h-7a.499.499 0 1 1 0-1M2 2C.892 2 0 2.892 0 4v7c0 1.108.892 2 2 2h12c1.108 0 2-.892 2-2V4c0-1.108-.892-2-2-2zm0 1h12c.554 0 1 .446 1 1v7c0 .554-.446 1-1 1H2c-.554 0-1-.446-1-1V4c0-.554.446-1 1-1"/>
</g>
</svg>
