<svg xmlns="http://www.w3.org/2000/svg" width="16" height="16"><style id="current-color-scheme" type="text/css">.ColorScheme-Text{color:#fcfcfc}</style><g class="ColorScheme-Text" style="fill:currentColor">
<g fill="#fcfcfc" color="#000" font-family="sans-serif" font-weight="400">
<path d="M3.994 10c-1.258-.015-2.179.03-2.931-.385a1.88 1.88 0 0 1-.838-.998C.06 8.18 0 7.657 0 7V4c0-.658.06-1.179.225-1.617a1.88 1.88 0 0 1 .838-.998C1.815.969 2.736 1.015 3.994 1h4.012c1.258.015 2.179-.03 2.932.385.376.207.673.56.838.998S12 3.343 12 4v3c0 .658-.06 1.179-.225 1.617a1.88 1.88 0 0 1-.837.998c-.753.416-1.674.37-2.932.385H3.998zM4 9h4c1.259-.015 2.087-.06 2.453-.262.184-.1.29-.212.387-.472S11 7.592 11 7V4c0-.592-.063-1.006-.16-1.266-.098-.26-.201-.371-.385-.472C10.09 2.06 9.26 2.015 8 2H4c-1.259.015-2.09.06-2.455.262-.184.1-.287.212-.385.472S1 3.408 1 4v3c0 .592.062 1.006.16 1.266s.201.371.385.472C1.91 8.94 2.74 8.985 4 9" overflow="visible" style="font-feature-settings:normal;font-variant-alternates:normal;font-variant-caps:normal;font-variant-ligatures:normal;font-variant-numeric:normal;font-variant-position:normal;isolation:auto;mix-blend-mode:normal;shape-padding:0;text-decoration-color:#000;text-decoration-line:none;text-decoration-style:solid;text-indent:0;text-orientation:mixed;text-transform:none;white-space:normal"/>
<path d="M13 5v1h1v.004c.113.006.312.004.398.014.306.035.408.093.444.129.036.035.093.133.125.435S15 7.348 15 7.977v3.011c0 .595-.063 1.009-.16 1.27-.098.26-.203.373-.387.475-.366.202-1.194.248-2.453.263H7c-.958 0-1.497-.142-1.723-.293-.225-.15-.277-.292-.277-.71V11H4v1c.002.583.2 1.19.723 1.54.524.35 1.235.46 2.277.46h5.006c1.258-.015 2.179.03 2.932-.387.376-.208.673-.561.838-1.002s.224-.962.224-1.623V7.977c0-.627.003-1.101-.04-1.5-.042-.4-.137-.767-.411-1.041-.274-.275-.638-.37-1.037-.416-.136-.016-.355-.013-.512-.02z" opacity=".5" overflow="visible" style="font-feature-settings:normal;font-variant-alternates:normal;font-variant-caps:normal;font-variant-ligatures:normal;font-variant-numeric:normal;font-variant-position:normal;isolation:auto;mix-blend-mode:normal;shape-padding:0;text-decoration-color:#000;text-decoration-line:none;text-decoration-style:solid;text-indent:0;text-orientation:mixed;text-transform:none;white-space:normal"/>
</g>
</g></svg>
