<svg xmlns="http://www.w3.org/2000/svg" width="16" height="16" viewBox="0 0 128 125.8">
<style id="current-color-scheme" type="text/css">
.ColorScheme-Text{color:#fcfcfc}
</style>
<g class="ColorScheme-Text" style="fill:currentColor">
<path d="M88-1.1c-8.242 0-14.897.611-20.404 3.313-5.036 2.47-8.598 6.99-10.619 12.988-8.716 4.697-14.119 10.81-14.119 18.04v7.106l6.074-3.685S55.784 32.615 64 32.615c16.351 0 30.285 13.934 30.285 30.285 0 16.218-14.235 30.285-30.285 30.285-16.339 0-30.285-14.03-30.285-30.285 0-12.048 7.467-19.957 7.467-19.957l1.104-1.158v-1.6c0-6.562-.27-12.392-1.713-17.35-1.444-4.957-4.624-9.414-9.729-10.916l-.553-.162h-.576c-1.647 0-3.504.984-4.328 2.117s-.941 2.463-.941 2.463l.011-.113c-1.052 8.797-4.763 10.17-8.2 15.04l-.005.007c-1.797 2.525-3.207 5.38-4.375 8.348-.658-.81-1.624-1.72-3.591-1.72-1.812 0-2.936.943-3.55 1.58s-.93 1.19-1.197 1.688c-.516.964-.68 1.389-.902 2.258C.831 49.385 0 57.115 0 62.9c0 36.286 27.714 64 64 64 36.563 0 64-27.175 64-64 0-10.067-2.027-21.615-6.326-31.584l-.037-.082-.039-.082c-.494-1.017-1.165-2.012-1.777-3.021.126.021.254.024.378.046l11.113 2.022-7.365-8.565c-2.612-3.037-5.823-4.816-9.34-5.984.328-.062.635-.168.98-.182l10.19-.408-7.748-6.629c-7.936-6.788-17.885-9.53-30.03-9.53zm0 8c7.78 0 13.773 1.19 18.873 3.747-1.923 1.501-3.518 3.395-4.518 5.605l-2.403 3.495s3.234 1.36 4.808 2.438c1.575 1.078 4.158 4.266 4.158 4.266 1.87 2.259 4.22 5.635 5.441 8.125C118.093 43.277 120 53.968 120 62.9c0 32.946-23.304 56-56 56-32.285 0-56-23.714-56-56 0-2.592.26-5.87.692-9.105.237.587 3.522 21.18 8.309 25.105 0 0-2.522-11.758-1.26-22.07s3.528-16.001 7.033-20.923l.006-.008.006-.01c1.587-2.252 6.394-6.093 8.652-14.043.537.817 1.022 1.743 1.454 3.227.94 3.227 1.287 8.097 1.343 13.742-2.418 2.975-8.52 11.64-8.52 24.086 0 20.774 17.425 38.285 38.286 38.285 20.636 0 38.285-17.475 38.285-38.285 0-20.85-17.436-38.285-38.285-38.285-3.14 0-5.964.478-8.551 1.101 1.671-1.398 3.687-2.812 6.555-4.232l1.611-.797.473-1.734c1.467-5.381 3.495-7.825 7.03-9.559.428-.21.98-.36 1.466-.541.946-.436 2.534-.942 4.886-1.256 2.914-.463 6.384-.697 10.53-.697z"/>
<path d="M44.32 49.14C49.12 42.34 56.88 38.9 64 38.9s15.04 3.44 19.68 10.24L64 62.9zm42.32 5.76c.88 2.56 1.36 5.2 1.36 8 0 13.28-10.72 24-24 24s-24-10.72-24-24c0-2.8.48-5.44 1.36-8L64 70.9z" opacity=".45"/>
<circle cx="82.691" cy="-4.149" r="4" opacity=".45" transform="rotate(15)"/>
</g>
</svg>
