<svg xmlns="http://www.w3.org/2000/svg" width="16" height="16">
<style id="current-color-scheme" type="text/css">
.ColorScheme-Contrast{color:#dedede}
</style>
<path d="M5 0a1 1 0 0 0-1 1 1 1 0 0 0 1 1 1 1 0 0 0 .25-.035L6.272 3H4C2.338 3 1 4.338 1 6v7c0 1.662 1.338 3 3 3h8c1.662 0 3-1.338 3-3V6c0-1.662-1.338-3-3-3H9.736l1.014-1.031a1 1 0 0 0 .238.031 1 1 0 0 0 1-1 1 1 0 0 0-1-1 1 1 0 0 0-1 1 1 1 0 0 0 .043.274L8.346 2.99l-.67.01L5.96 1.262A1 1 0 0 0 6.001 1a1 1 0 0 0-1-1M4 4h3.258l.006.006L7.64 4H12c1.108 0 2 .892 2 2v5H2V6c0-1.108.892-2 2-2m-2 8h12v1c0 1.108-.892 2-2 2H4c-1.108 0-2-.892-2-2zm10.475 1a.5.5 0 1 0 .025 0z" class="ColorScheme-Contrast" style="fill:currentColor"/>
</svg>
