<svg xmlns="http://www.w3.org/2000/svg" width="16" height="16"><path fill="#dedede" d="M5.229.682a1.566 1.566 0 0 0-.542.06c-.615.211-1.027.706-1.23 1.424-.184.658-.17 1.71.006 2.654v.002l.025.13-.072.017C2.138 5.26 1.18 5.696.578 6.303c-.266.265-.434.53-.525.842a1.649 1.649 0 0 0 0 .89C.23 8.63.714 9.15 1.43 9.595h.002c.243.15.404.246.582.286a.578.578 0 0 0 .617-.313.49.49 0 0 0 .039-.205.586.586 0 0 0-.104-.347.893.893 0 0 0-.296-.235c-.675-.38-1.032-.754-1.118-1.03-.043-.137-.035-.25.028-.386s.192-.29.404-.449c.436-.327 1.068-.599 1.941-.813.123-.03.164-.036.227-.048l.002.007a18.808 18.808 0 0 0 .395 1.219l.115.31-.15.294c-.822 1.586-1.355 3.198-1.42 4.426-.054.935.113 1.66.58 2.128.502.504 1.243.605 2.08.336.347-.112.917-.404 1.287-.656.125-.084.207-.14.275-.201a.604.604 0 0 0 .152-.217.63.63 0 0 0 0-.379.581.581 0 0 0-.525-.375c-.07 0-.165.02-.246.059-.08.038-.16.09-.28.172-.508.345-.98.55-1.337.611-.241.041-.398.009-.52-.074-.122-.083-.227-.235-.3-.496a3.565 3.565 0 0 1-.044-.625 5.08 5.08 0 0 1 .06-.78c.118-.661.323-1.352.62-2.084.087-.214.218-.508.33-.752l.03-.06c.396.852.926 1.826 1.474 2.64 1.404 2.084 2.922 3.452 4.24 3.684.063.006.107.012.16.018.51.038 1.005-.083 1.356-.434l.002-.002c.318-.324.519-.77.627-1.348v-.002c.077-.423.07-1.331.002-1.843v-.002c-.195-1.428-.712-3.047-1.483-4.659-.063-.134-.115-.235-.212-.324a.545.545 0 0 0-.35-.125.556.556 0 0 0-.563.545c0 .112.027.16.057.242s.072.18.123.29c.926 1.973 1.414 3.884 1.365 5.214-.015.398-.073.705-.162.918s-.196.328-.332.395c-.13.064-.315.074-.623-.026h-.002c-.702-.239-1.62-1.009-2.508-2.119-.889-1.111-1.76-2.556-2.441-4.119l-.086-.2.135-.234c.215-.37.794-1.247 1.045-1.587v-.002l.101-.135h.34c2.79 0 5.569.65 6.975 1.578.263.174.633.569.693.685a.11.11 0 0 0 .002.004c.074.139.057.076.057.268 0 .187.014.136-.041.238a.745.745 0 0 0-.004.006c-.132.253-.57.611-1.153.856-.153.065-.27.12-.369.22a.56.56 0 0 0-.146.375.572.572 0 0 0 .627.557c.079-.012.138-.036.22-.068 1.042-.412 1.799-1.047 1.97-1.801v-.002a1.74 1.74 0 0 0-.005-.756V7.86c-.094-.4-.377-.822-.72-1.13-1.409-1.265-4.23-1.998-7.557-2.116.153-.175.393-.436.563-.608.957-.972 1.84-1.596 2.568-1.845h.002c.247-.087.226-.084.48-.084.12 0 .187.003.22.008s.032.005.072.025a.868.868 0 0 1 .275.28c.118.233.184.768.111 1.33-.026.21-.049.429-.049.554 0 .072-.005.135.028.225a.454.454 0 0 0 .142.185c.09.082.243.143.358.143.224 0 .441-.097.531-.33.086-.223.115-.536.135-.893.02-.357.02-.723-.024-.98-.12-.712-.45-1.252-.986-1.508-.47-.227-1.032-.22-1.63-.026-.6.195-1.252.576-1.944 1.131-.73.586-1.659 1.55-2.315 2.391l.006-.01-.271.016a25.96 25.96 0 0 0-1.352.13l-.016-.083v-.002c-.108-.631-.115-.69-.115-1.295 0-.531.005-.59.053-.791v-.002c.114-.491.317-.717.512-.758.332-.07.832.104 1.597.672a.6.6 0 0 0 .633.068.568.568 0 0 0 .283-.57.61.61 0 0 0-.199-.352 3.349 3.349 0 0 0-.443-.334h-.002A4.15 4.15 0 0 0 5.807.767a2.279 2.279 0 0 0-.578-.086zm.117 5.109c-.115.167-.246.364-.344.522-.064-.2-.111-.357-.143-.471l.149-.02c.114-.013.22-.02.338-.031zm2.953 1.268c-.63 0-1.143.516-1.143 1.144S7.67 9.348 8.3 9.348c.628 0 1.142-.516 1.142-1.145 0-.628-.513-1.144-1.142-1.144z"/></svg>