<svg xmlns="http://www.w3.org/2000/svg" width="16" height="16"><path fill="#dedede" d="M8 0a8.162 8.162 0 0 0-.7.035c-.12.013-.24.027-.359.045a7.323 7.323 0 0 0-.416.063 7.97 7.97 0 0 0-.37.082 7.166 7.166 0 0 0-.42.107c-.11.034-.218.07-.325.107a8 8 0 0 0-.433.16 7.927 7.927 0 0 0-.319.143c-.132.06-.263.123-.392.19A8 8 0 0 0 0 8a8 8 0 0 0 4.129 7h.018a8 8 0 0 0 3.673.992L8 16a7.18 7.18 0 0 0 1.059-.08 8.34 8.34 0 0 0 .416-.062 10.456 10.456 0 0 0 .812-.198 5.57 5.57 0 0 0 .258-.086c.163-.053.323-.112.482-.175.098-.041.195-.084.291-.13A8 8 0 0 0 15 11.872v-.017a8 8 0 0 0 .992-3.674L16 8a8.162 8.162 0 0 0-.035-.699 8.036 8.036 0 0 0-.045-.36 7.992 7.992 0 0 0-.062-.415 8.1 8.1 0 0 0-.082-.371 7.96 7.96 0 0 0-.108-.42 7.986 7.986 0 0 0-.107-.325 8 8 0 0 0-.16-.433 8.071 8.071 0 0 0-.143-.319 8.025 8.025 0 0 0-.19-.392 8 8 0 0 0-3.158-3.24l-.015-.002A8 8 0 0 0 9.658.178a8.028 8.028 0 0 0-.69-.113l-.1-.016h-.011a7.772 7.772 0 0 0-.506-.031A7.296 7.296 0 0 0 8 0zm0 1a7 7 0 0 1 7 7 7 7 0 0 1-7 7 7 7 0 0 1-7-7 7 7 0 0 1 7-7zm3.578 3.988a.469.469 0 0 0-.334.086l-3.36 2.002a1.002 1.002 0 0 0-.782.008l-2.346-.992c-.206-.152-.487-.094-.592.047l-.086.113c-.126.17-.106.496.1.649l2.33.982a1 1 0 0 0 .492.98V11.5c0 .277.208.5.469.5h.062c.26 0 .469-.223.469-.5V8.865a1 1 0 0 0 .49-1l3.332-1.982c.206-.152.226-.479.1-.649l-.086-.113a.377.377 0 0 0-.258-.133z" color="#000" font-family="sans-serif" font-weight="400" overflow="visible" style="font-feature-settings:normal;font-variant-alternates:normal;font-variant-caps:normal;font-variant-ligatures:normal;font-variant-numeric:normal;font-variant-position:normal;isolation:auto;mix-blend-mode:normal;shape-padding:0;text-decoration-color:#000;text-decoration-line:none;text-decoration-style:solid;text-indent:0;text-orientation:mixed;text-transform:none;white-space:normal"/></svg>