<svg xmlns="http://www.w3.org/2000/svg" width="16" height="16"><g fill="#dedede"><path d="M4 1c-1.108 0-2 .892-2 2v11.102c0 1.108.892 2 2 2h1.6a8.001 8.001 0 0 1-1.545-1H4c-.554 0-1-.446-1-1v-.084a8.56 8.56 0 0 1-.71-.982 2.005 2.005 0 0 1 0-2.07A8.56 8.56 0 0 1 3 9.982V3c0-.554.446-1 1-1h8c.554 0 1 .446 1 1v4.707c.356.155.69.328 1 .52V3c0-1.108-.892-2-2-2z"/><path d="M9.5 8c-3.461 0-5.357 1.831-6.356 3.482a1 1 0 0 0 0 1.036C4.144 14.168 6.04 16 9.5 16s5.357-1.831 6.356-3.482a1 1 0 0 0 0-1.036C14.855 9.832 12.96 8 9.5 8zm0 1c3.143 0 4.593 1.5 5.5 3-.907 1.5-2.357 3-5.5 3S4.907 13.5 4 12c.907-1.5 2.357-3 5.5-3z" color="#000" style="font-feature-settings:normal;font-variant-alternates:normal;font-variant-caps:normal;font-variant-east-asian:normal;font-variant-ligatures:normal;font-variant-numeric:normal;font-variant-position:normal;font-variation-settings:normal;inline-size:0;isolation:auto;mix-blend-mode:normal;shape-margin:0;shape-padding:0;text-decoration-color:#000;text-decoration-line:none;text-decoration-style:solid;text-indent:0;text-orientation:mixed;text-transform:none;white-space:normal"/><path d="M9.451 10A2 2 0 0 0 7.5 12a2 2 0 0 0 2 2 2 2 0 0 0 2-2 2 2 0 0 0-2-2 2 2 0 0 0-.049 0zm.049 1a1 1 0 0 1 1 1 1 1 0 0 1-1 1 1 1 0 0 1-1-1 1 1 0 0 1 1-1z"/></g></svg>