<svg xmlns="http://www.w3.org/2000/svg" width="16" height="16"><path fill="#dedede" d="m10.191 0-.021.002h-.264L9.67.139a5.928 5.928 0 0 0-2.898 4.535l-.03.293c-.04-.038-.09-.088-.128-.121-.052-.294-.09-.595-.012-.885l.563-2.078-1.952.91c-.187.087-.313.262-.49.367l.145-1.44-1.531.614a2.362 2.362 0 0 0-.405.209l-.011.008-.014.01c-.293.202-.567.429-.82.68-.277.27-.53.565-.758.878A6.635 6.635 0 0 0 .218 6.537l-.007.033v.002l-.006.03-.002.004v.001l-.01.041v.004a8.382 8.382 0 0 0-.105.598v.002l-.02.137c-.023.14-.037.284-.05.472l-.005.04v.027a12.95 12.95 0 0 0-.011.205L0 8.158v.076c.072 4.344 3.67 7.827 8.013 7.762a7.954 7.954 0 0 0 7.885-6.441l.008-.035.035-.293v-.004a7.763 7.763 0 0 0-.525-3.908c-.293-.71-.848-1.25-1.428-1.745l-.039-.048c-.126-.105-.17-.283-.307-.375l-.35.316c-.668-.79-1.348-1.486-1.898-2.322l-.142-.225c-.016-.027-.028-.05-.045-.084l-.012-.02a.166.166 0 0 1-.014-.039l.004.022a1.026 1.026 0 0 0-.578-.707l-.02-.008-.02-.01A1.029 1.029 0 0 0 10.19 0zm-.014 1.002h.006a.023.023 0 0 1 .016 0 .02.02 0 0 1 .012.016c.024.093.06.183.105.267.022.043.046.09.076.14l.166.264c1.102 1.678 2.45 2.448 3.237 4.36v-.014a6.907 6.907 0 0 0-.71-2.058 3.835 3.835 0 0 1 1.405 1.718 6.758 6.758 0 0 1 .459 3.409l-.033.261A6.947 6.947 0 0 1 8.006 15 6.897 6.897 0 0 1 .998 8.22v-.035l.014-.227v-.02c.013-.173.027-.286.043-.388l.022-.158c.048-.341.115-.62.115-.627a5.64 5.64 0 0 1 .943-2.053c.197-.27.416-.525.655-.76.21-.209.44-.4.685-.568.074-.048.153-.088.234-.121-.058.577.025 1.16.24 1.7a5.174 5.174 0 0 1 1.688-1.263 3.046 3.046 0 0 0 .02 1.659c.069.045.124.085.181.132.108.088.23.205.483.448.536.374 1.104.701 1.697.976a1.67 1.67 0 0 1-.844.75c-1.992 0-2.314 1.168-2.314 1.168a2.871 2.871 0 0 0 1.65 2.215c.039.02.08.037.12.055.068.03.136.055.204.08.294.103.602.162.913.176 3.105.403 4.428-3.82 1.648-5.262a2.483 2.483 0 0 1 1.69.396 3.56 3.56 0 0 0-3.07-1.734c-.084 0-.167.006-.249.012a4.924 4.924 0 0 1 2.41-3.768zM9.052 7.109c.816.514 1.001 1.271.77 2.01-.248.79-.856 1.387-1.947 1.246l-.041-.006-.043-.002a2.197 2.197 0 0 1-.762-.173c-.036-.016-.06-.026-.07-.032l-.032-.015c-.473-.216-.71-.69-.875-1.172.16-.126.399-.3 1.123-.3h.194l.18-.073a2.669 2.669 0 0 0 1.347-1.197z" color="#000" style="-inkscape-stroke:none"/></svg>