<svg xmlns="http://www.w3.org/2000/svg" width="16" height="16"><path fill="#dedede" stroke-linecap="round" stroke-linejoin="round" stroke-width="4" d="M16 8v2h-1v4H4v-1h10V5H6V4h9v4zM5 6.5c0 .292-.052.573-.156.844-.094.27-.23.515-.407.734s-.39.406-.64.563c-.24.145-.505.25-.797.312V14H2V8.953a2.741 2.741 0 0 1-.813-.312A2.687 2.687 0 0 1 .141 7.344 2.561 2.561 0 0 1 0 6.5V4h1V2h1v2h1V2h1v2h1zm-4 0c0 .417.146.77.438 1.063S2.083 8 2.5 8s.77-.146 1.063-.438S4 6.918 4 6.5V5H1zm3 3.156a3.528 3.528 0 0 0 1.453-1.281A3.425 3.425 0 0 0 6 6.5V6h7v6H4z" aria-label="" style="paint-order:stroke fill markers"/></svg>