<svg xmlns="http://www.w3.org/2000/svg" xmlns:xlink="http://www.w3.org/1999/xlink" width="16" height="16"><defs><clipPath id="d"><path d="M0 0h192v152H0z"/></clipPath><clipPath id="b"><path d="M0 0h192v152H0z"/></clipPath><clipPath id="c"><path d="M0 0h192v152H0z"/></clipPath><clipPath id="e"><path d="M0 0h192v152H0z"/></clipPath><mask id="h"><g filter="url(#a)"><path fill-opacity=".1" d="M0 0h16v16H0z"/></g></mask><mask id="f"><g filter="url(#a)"><path fill-opacity=".2" d="M0 0h16v16H0z"/></g></mask><mask id="j"><g filter="url(#a)"><path fill-opacity=".2" d="M0 0h16v16H0z"/></g></mask><mask id="l"><g filter="url(#a)"><path fill-opacity=".1" d="M0 0h16v16H0z"/></g></mask><g id="i" clip-path="url(#b)"><path d="M73.027 54.629v52.726a7.286 7.286 0 0 1-7.215 7.215H19.965V47.414h45.847a7.238 7.238 0 0 1 7.215 7.215zm0 0"/></g><g id="k" clip-path="url(#c)"><path d="M70.86 54.629v52.726a5.037 5.037 0 0 1-5.047 5.047H19.965V49.578h45.847a5.038 5.038 0 0 1 5.047 5.05zm0 0"/></g><g id="g" clip-path="url(#d)"><path d="M70.86 54.629v57.059c.003.292-.024.582-.087.867a5.007 5.007 0 0 1-4.96 4.18H19.965V49.577h45.847a5.038 5.038 0 0 1 5.047 5.05zm0 0"/></g><g id="m" clip-path="url(#e)"><path d="M68.695 54.629v52.726a5.04 5.04 0 0 1-5.05 5.047h-43.68V49.578h43.68a5.041 5.041 0 0 1 5.05 5.05z"/></g><filter id="a" width="1" height="1" x="0" y="0"><feColorMatrix in="SourceGraphic" values="0 0 0 0 1 0 0 0 0 1 0 0 0 0 1 0 0 0 1 0"/></filter></defs><use xlink:href="#g" fill="#dedede" mask="url(#f)" transform="translate(-168 -16)"/><use xlink:href="#i" fill="#dedede" mask="url(#h)" transform="translate(-168 -16)"/><use xlink:href="#k" fill="#dedede" mask="url(#j)" transform="translate(-168 -16)"/><use xlink:href="#m" fill="#dedede" mask="url(#l)" transform="translate(-168 -16)"/><path fill="#dedede" d="M2.018 1.008a.998.998 0 0 0-1.01 1.01V5.58a1 1 0 0 0 .297.715l1.697 1.697h3.18a1.83 1.83 0 0 0 1.81-1.81v-3.18L6.295 1.305a1.008 1.008 0 0 0-.719-.297H2.018zm-.012.998c.003.001.005.002.012.002H5.58c.002 0 .003-.002.004 0l.002.002 1.406 1.408v2.764c0 .424-.386.81-.81.81H3.418L2.012 5.586H2.01c-.01-.01-.002.006-.002-.006V2.018c0-.007-.001-.009-.002-.012zM9.818 8A1.818 1.818 0 0 0 8 9.818V13l1.701 1.703c.192.192.452.297.723.297h3.558c.564 0 1.018-.454 1.018-1.018v-3.558c0-.27-.105-.53-.297-.723L13 8H9.818zm0 1h2.768l1.408 1.408c.005.005.006.006.006.016v3.558c0 .026.008.018-.018.018h-3.558c-.011 0-.012 0-.016-.004L9 12.586V9.818C9 9.354 9.354 9 9.818 9z"/><path fill="#dedede" d="M15 2.018a.998.998 0 0 0-1.01-1.01h-3.562a1 1 0 0 0-.715.297L8.016 3.002v3.18c0 .984.826 1.81 1.81 1.81h3.18l1.697-1.697c.191-.19.298-.45.297-.719zm-.998-.012c-.001.003-.002.005-.002.012v3.566l-.002.002-1.408 1.406H9.826c-.424 0-.81-.386-.81-.81V3.418l1.406-1.406V2.01c.01-.01-.006-.002.006-.002h3.562c.007 0 .008-.001.012-.002zM8.008 9.818A1.818 1.818 0 0 0 6.189 8H3.008L1.305 9.701a1.02 1.02 0 0 0-.297.723v3.558c0 .564.454 1.018 1.017 1.018h3.56c.27 0 .53-.105.722-.297L8.007 13zm-1 0v2.768L5.6 13.994C5.594 14 5.593 14 5.584 14H2.025c-.025 0-.017.008-.017-.017v-3.56c0-.01 0-.011.004-.015L3.422 9H6.19c.464 0 .818.354.818.818z" opacity=".45"/><path fill="#dedede" d="M9.818 8A1.818 1.818 0 0 0 8 9.818V13l1.701 1.703c.192.192.452.297.723.297h3.558c.564 0 1.018-.454 1.018-1.018v-3.558c0-.27-.105-.53-.297-.723L13 8z" opacity=".75"/></svg>