<svg xmlns="http://www.w3.org/2000/svg" width="16" height="16"><path fill="#dedede" d="M8.121 2C5.818 2 3.764 3.354 2.764 5.323a5.896 5.896 0 0 0 .04 5.427C3.817 12.68 5.846 14 8.121 14c1.51 0 2.863-.582 3.876-1.537C13.161 11.365 13.88 9.772 13.88 8c0-.388-.036-.766-.102-1.134H8.121v2.268h3.422a3.613 3.613 0 0 1-1.312 1.924 3.392 3.392 0 0 1-2.036.671c-1.585 0-2.975-1.057-3.459-2.519a3.58 3.58 0 0 1-.18-1.128c0-.432.074-.846.214-1.23.513-1.41 1.876-2.42 3.425-2.42a3.4 3.4 0 0 1 2.236.832l1.634-1.659A5.605 5.605 0 0 0 8.12 2z"/></svg>