<svg xmlns="http://www.w3.org/2000/svg" width="16" height="16"><path fill="#dedede" d="M10 5a6 5 0 0 0-6 5 6 5 0 0 0 6 5 6 5 0 0 0 1.185-.1c.6.477 1.488.949 2.815 1.1-.516-.62-.773-1.198-.898-1.72A6 5 0 0 0 16 10a6 5 0 0 0-6-5zm0 1a5 4 0 0 1 5 4 5 4 0 0 1-5 4 5 4 0 0 1-5-4 5 4 0 0 1 5-4z"/><path fill="#dedede" d="M6 0a6 5 0 0 0-6 5 6 5 0 0 0 2.898 4.28c-.125.522-.382 1.1-.898 1.72a6.152 6.152 0 0 0 1.182-.258A7 5.5 0 0 1 3 9.5a7 5.5 0 0 1 .17-1.203A5 4 0 0 1 1 5a5 4 0 0 1 5-4 5 4 0 0 1 4.853 3.041 7 5.5 0 0 1 1.07.172A6 5 0 0 0 6 0z"/></svg>