<svg xmlns="http://www.w3.org/2000/svg" width="16" height="16"><path fill="#dedede" d="M12.24 1.21c-1.11-.012-2.228.303-3.268.908-.829.483-1.127.894-1.22.951C4.605 2.633 1.34 5.216 1.01 9.522c-.017.209-.021.54 0 .868.01.164.026.324.058.476.016.076.036.15.072.235a.612.612 0 0 0 .239.289c1.09.803 2.43.725 3.576.396 1.155-.332 2.185-.918 2.767-1.228 1.08-.575 1.504-.456 1.758-.297.128.079.231.198.33.334.063.086.169.193.254.295-.004.013 0-.001-.01.021-.056.125-.208.354-.384.606-.354.503-.88 1.091-.8 1.884.056.543.132.975.132.975l.072.412h.42c.132 0 .164-.021.215-.037.05-.016.098-.033.152-.055.107-.044.233-.102.375-.175.283-.146.629-.35.973-.6s.686-.542.955-.887c.16-.206.188-.485.27-.74.365.047.77.153 1 .06.356-.145.533-.26.986-.19l1.113.171-.62-.941c-.147-.225-.436-.739-1.052-1.002l-.012-.004-.01-.004c-.336-.126-.658-.16-.886-.233-.218-.07-.28-.118-.323-.226-.015-.36-.023-1.4-.236-2.563-.224-1.217-.578-2.355-1.547-3.172h-.002c-.05-.1-.038-.176.03-.388.068-.212.215-.452.402-.64a7.05 7.05 0 0 1 .684-.573c.244-.187.467-.338.652-.55l.711-.817zm-1.838 1.512c-.191.242-.388.485-.48.773-.125.388-.145.829.052 1.227l.059.117.11.074c.636.43 1.063 1.52 1.267 2.631s.212 2.159.234 2.56l.004.069.022.066c.172.499.621.751.978.866.35.112.669.156.823.21.017.008.019.03.035.038-.124.044-.361.039-.448.074-.291.118-.308.18-.697-.04l-.8-.45.056.918c.008.134-.06.332-.242.564-.182.232-.46.48-.754.693a6.4 6.4 0 0 1-.72.444c-.016-.12-.021-.113-.036-.256-.015-.149.267-.703.623-1.21.178-.252.356-.495.479-.769.061-.137.116-.286.115-.478a.823.823 0 0 0-.266-.576l-.021-.018-.026-.016c.118.08-.02-.05-.15-.228a2.183 2.183 0 0 0-.61-.594c-.583-.363-1.504-.402-2.755.264-.608.323-1.571.862-2.575 1.15-.969.279-1.899.292-2.638-.215a2.587 2.587 0 0 1-.033-.283 6.43 6.43 0 0 1-.002-.726c.304-3.96 3.256-6.073 5.832-5.563l.16.031.148-.068c.559-.26.64-.618 1.33-1.02.303-.176.617-.143.926-.26zm-.258 8.26c.034.03.021.048.069.08l-.047-.034c-.011-.009-.011-.03-.022-.046z"/></svg>