<svg xmlns="http://www.w3.org/2000/svg" width="16" height="16"><path fill="#333" d="M10.608.005 7.006 6.5h3.582l-4.276 6.15 1.358.141-2.657 2.152s.927.407 1.76.518c.192.025.913.06 1.223.06 4.139 0 7.504-3.366 7.504-7.505v-.004c-.017-2.53-1.32-5.118-3.979-6.569zM7.984.463 7.1.57C3.511 1.004.84 3.956.593 7.514c-.031.263-.04.813-.027 1.002.168 2.517 1.55 4.809 3.772 6.05l.675.377.282-3.283.72.862L8.523 7.5H4.777zM6.246 1.867 3.222 8.5h3.684l-1.103 2.209-1.297-1.55-.336 3.894c-1.59-1.22-2.674-2.998-2.67-5.037 0-2.94 2-5.362 4.746-6.149zm4.357.182.176.086c2.551 1.24 3.706 3.583 3.72 5.883a6.497 6.497 0 0 1-6.503 6.503c-.18 0-.476-.021-.768-.037l2.862-2.445-1.989-.207 4.4-6.332H8.7z"/></svg>