<svg xmlns="http://www.w3.org/2000/svg" width="16" height="16"><path fill="#dedede" d="M7.5 2A1.5 1.5 0 0 0 6 3.5a1.5 1.5 0 0 0 .125.596L4.598 6.004A2.5 2.5 0 0 0 4.5 6 2.5 2.5 0 0 0 2 8.5a2.5 2.5 0 0 0 1 1.992V13H2c-.554 0-1 .446-1 1v1h1v-1h5v1h1v-1c0-.554-.446-1-1-1H6v-2.508A2.5 2.5 0 0 0 7 8.5a2.5 2.5 0 0 0-.37-1.307l.944-2.199a1.5 1.5 0 0 0 1.178-.672l2.27.422A1.5 1.5 0 0 0 12.5 6 1.5 1.5 0 0 0 14 4.5 1.5 1.5 0 0 0 12.5 3a1.5 1.5 0 0 0-1.3.762l-2.208-.41A1.5 1.5 0 0 0 7.5 2zm0 1a.5.5 0 0 1 .5.5.5.5 0 0 1-.5.5.5.5 0 0 1-.5-.5.5.5 0 0 1 .5-.5zm1.463.809a1.5 1.5 0 0 1-.01.05 1.5 1.5 0 0 0 .01-.05zM12.5 4a.5.5 0 0 1 .5.5.5.5 0 0 1-.5.5.5.5 0 0 1-.5-.5.5.5 0 0 1 .5-.5zm-1.455.148a1.5 1.5 0 0 0-.018.088 1.5 1.5 0 0 1 .018-.088zm-.031.178A1.5 1.5 0 0 0 11 4.5a1.5 1.5 0 0 0 .014.18A1.5 1.5 0 0 1 11 4.5a1.5 1.5 0 0 1 .014-.174zm-4.592.211a1.5 1.5 0 0 0 .058.059 1.5 1.5 0 0 1-.058-.059zm.496.344a1.5 1.5 0 0 0 .05.017 1.5 1.5 0 0 1-.05-.017zm.26.08a1.5 1.5 0 0 0 .056.012 1.5 1.5 0 0 1-.056-.012zM4.5 7A1.5 1.5 0 0 1 6 8.5 1.5 1.5 0 0 1 4.5 10 1.5 1.5 0 0 1 3 8.5 1.5 1.5 0 0 1 4.5 7zM12 7c-.554 0-1 .446-1 1l-1 2 .666 2H11v-2l1-1v2h1V9l1 1v2h.334L15 10l-1-2c0-.554-.446-1-1-1h-1zm-8 3.943a2.5 2.5 0 0 0 .5.057 2.5 2.5 0 0 0 .467-.049l.033.05v2H4v-2.058z"/></svg>