<svg xmlns="http://www.w3.org/2000/svg" width="16" height="16"><path fill="#dedede" d="M8 0v1.5a.491.491 0 0 1-.492.5H4.496A1.501 1.501 0 0 0 3.2 4.25c.266.46.762.75 1.297.75h3.008c.18 0 .34.094.43.25A.51.51 0 0 1 8 5.5V6H3C1.338 6 0 7.338 0 9v4c0 1.662 1.338 3 3 3h10c1.662 0 3-1.338 3-3V9c0-.876-.375-1.66-.97-2.207l-.708.705C14.738 7.864 15 8.4 15 9v4c0 1.108-.892 2-2 2H3c-1.108 0-2-.892-2-2V9c0-1.108.892-2 2-2h6.188l.996-1H9v-.5A1.501 1.501 0 0 0 7.504 4H4.496a.49.49 0 0 1-.43-.25.497.497 0 0 1 0-.5.49.49 0 0 1 .43-.25h3.012c.398 0 .777-.16 1.054-.441C8.844 2.277 9 1.899 9 1.5V0H8zm7 3a.984.984 0 0 0-.703.293h-.004L8 9.609V11h1.39l6.317-6.293-.004-.004A.972.972 0 0 0 16 4c0-.55-.45-1-1-1z"/></svg>