<svg xmlns="http://www.w3.org/2000/svg" width="16" height="16"><filter id="a" width="1" height="1" x="0" y="0"><feColorMatrix in="SourceGraphic" values="0 0 0 0 1 0 0 0 0 1 0 0 0 0 1 0 0 0 1 0"/></filter><mask id="c"><g filter="url(#a)"><path fill-opacity=".3" d="M0 0h16v16H0z"/></g></mask><clipPath id="b"><path d="M0 0h1024v800H0z"/></clipPath><mask id="e"><g filter="url(#a)"><path fill-opacity=".05" d="M0 0h16v16H0z"/></g></mask><clipPath id="d"><path d="M0 0h1024v800H0z"/></clipPath><mask id="g"><g filter="url(#a)"><path fill-opacity=".05" d="M0 0h16v16H0z"/></g></mask><clipPath id="f"><path d="M0 0h1024v800H0z"/></clipPath><mask id="i"><g filter="url(#a)"><path fill-opacity=".05" d="M0 0h16v16H0z"/></g></mask><clipPath id="h"><path d="M0 0h1024v800H0z"/></clipPath><mask id="k"><g filter="url(#a)"><path fill-opacity=".05" d="M0 0h16v16H0z"/></g></mask><clipPath id="j"><path d="M0 0h1024v800H0z"/></clipPath><mask id="m"><g filter="url(#a)"><path fill-opacity=".05" d="M0 0h16v16H0z"/></g></mask><clipPath id="l"><path d="M0 0h1024v800H0z"/></clipPath><mask id="o"><g filter="url(#a)"><path fill-opacity=".05" d="M0 0h16v16H0z"/></g></mask><clipPath id="n"><path d="M0 0h1024v800H0z"/></clipPath><mask id="q"><g filter="url(#a)"><path fill-opacity=".3" d="M0 0h16v16H0z"/></g></mask><clipPath id="p"><path d="M0 0h1024v800H0z"/></clipPath><mask id="s"><g filter="url(#a)"><path fill-opacity=".5" d="M0 0h16v16H0z"/></g></mask><clipPath id="r"><path d="M0 0h1024v800H0z"/></clipPath><g clip-path="url(#b)" mask="url(#c)" transform="translate(-700 -664)"><path fill="#2e3436" d="M562.46 212.06h10.449c-1.184.492-1.297 2.46 0 3H562.46z"/></g><g clip-path="url(#d)" mask="url(#e)" transform="translate(-700 -664)"><path fill="#2e3436" fill-rule="evenodd" d="M16 632h1v1h-1z"/></g><g clip-path="url(#f)" mask="url(#g)" transform="translate(-700 -664)"><path fill="#2e3436" fill-rule="evenodd" d="M17 631h1v1h-1z"/></g><g clip-path="url(#h)" mask="url(#i)" transform="translate(-700 -664)"><path fill="#2e3436" fill-rule="evenodd" d="M18 634h1v1h-1z"/></g><g clip-path="url(#j)" mask="url(#k)" transform="translate(-700 -664)"><path fill="#2e3436" fill-rule="evenodd" d="M16 634h1v1h-1z"/></g><g clip-path="url(#l)" mask="url(#m)" transform="translate(-700 -664)"><path fill="#2e3436" fill-rule="evenodd" d="M17 635h1v1h-1z"/></g><g clip-path="url(#n)" mask="url(#o)" transform="translate(-700 -664)"><path fill="#2e3436" fill-rule="evenodd" d="M19 635h1v1h-1z"/></g><g clip-path="url(#p)" mask="url(#q)" transform="translate(-700 -664)"><path fill="#2e3436" d="M136 660v7h7v-7z"/></g><g clip-path="url(#r)" mask="url(#s)" transform="translate(-700 -664)"><path fill="#2e3436" d="M219 642h3v12h-3z"/></g><path fill="#dedede" d="M4 1c-.554 0-1 .446-1 1v1H1c-.554 0-1 .446-1 1v8c0 .554.446 1 1 1h2v1c0 .554.446 1 1 1h8c.554 0 1-.446 1-1v-1h2c.554 0 1-.446 1-1V4c0-.554-.446-1-1-1h-2V2c0-.554-.446-1-1-1H4zm0 1h8v12H4V2zM1 4h2v8H1V4zm12 0h2v8h-2V4z" style="paint-order:stroke fill markers"/></svg>