<svg xmlns="http://www.w3.org/2000/svg" width="16" height="16"><path fill="#dedede" d="M1 2c-.554 0-1 .446-1 1v7c0 .554.446 1 1 1h9.338a3.5 3.5 0 0 1-.3-1H1V3h13v3.035a3.5 3.5 0 0 1 1 .303V3c0-.554-.446-1-1-1H1zm1 2v1h1V4H2zm2 0v1h1V4H4zm2 0v1h1V4H6zm2 0v1h1V4H8zm2 0v1h1V4h-1zm2 0v1h1V4h-1zM2 6v1h2V6H2zm3 0v1h1V6H5zm2 0v1h1V6H7zm2 0v1h1V6H9zm2 0v1h.05A3.5 3.5 0 0 1 13 6.037V6h-2zM2 8v1h2V8H2zm3 0v1h5V8H5z" style="paint-order:stroke fill markers"/><path fill="#dedede" d="M13.5 7A2.5 2.5 0 0 0 11 9.5a2.5 2.5 0 0 0 2.5 2.5A2.5 2.5 0 0 0 16 9.5 2.5 2.5 0 0 0 13.5 7zm0 1A1.5 1.5 0 0 1 15 9.5a1.5 1.5 0 0 1-1.5 1.5A1.5 1.5 0 0 1 12 9.5 1.5 1.5 0 0 1 13.5 8z" style="paint-order:stroke fill markers"/><circle cx="13.5" cy="9.5" r=".5" fill="#dedede" style="paint-order:stroke fill markers"/></svg>