<svg xmlns="http://www.w3.org/2000/svg" width="16" height="16"><g fill="#dedede"><path d="M10.48 5.83c.32.39.52.89.52 1.43 0 1.25-1.01 2.26-2.26 2.26-.54 0-1.04-.2-1.43-.52a2.637 2.637 0 0 0 2.56 2.02c1.45 0 2.63-1.18 2.63-2.63 0-1.24-.86-2.29-2.02-2.56zM5.5 8.64 5 7.14l-1.5-.5 1.5-.5.5-1.5.5 1.5 1.5.5-1.5.5zM8 4.5a.5.5 0 0 1-.5.5.5.5 0 0 1-.5-.5.5.5 0 0 1 .5-.5.5.5 0 0 1 .5.5Zm5 0a.5.5 0 0 1-.5.5.5.5 0 0 1-.5-.5.5.5 0 0 1 .5-.5.5.5 0 0 1 .5.5Zm-4 2a.5.5 0 0 1-.5.5.5.5 0 0 1-.5-.5.5.5 0 0 1 .5-.5.5.5 0 0 1 .5.5Zm-4 3a.5.5 0 0 1-.5.5.5.5 0 0 1-.5-.5.5.5 0 0 1 .5-.5.5.5 0 0 1 .5.5ZM4.5 14h7a.499.499 0 1 1 0 1h-7a.499.499 0 1 1 0-1z"/><path d="M2 2C.892 2 0 2.892 0 4v7c0 1.108.892 2 2 2h12c1.108 0 2-.892 2-2V4c0-1.108-.892-2-2-2zm0 1h12c.554 0 1 .446 1 1v7c0 .554-.446 1-1 1H2c-.554 0-1-.446-1-1V4c0-.554.446-1 1-1z"/></g></svg>