<svg xmlns="http://www.w3.org/2000/svg" width="16" height="16"><path fill="#dedede" d="M5.178 5.672a.499.499 0 0 0-.354.854L7.3 9h1.414L5.53 5.818a.498.498 0 0 0-.353-.146z"/><path fill="#dedede" d="M8 1a8 8 0 0 0-8 8 8 8 0 0 0 3.35 6.51l.582-.815A7 7 0 0 1 1 9a7 7 0 0 1 6.906-7A7 7 0 0 1 8 2a7 7 0 0 1 7 7 7 7 0 0 1-2.932 5.697l.58.813A8 8 0 0 0 16 9a8 8 0 0 0-8-8z"/><circle cx="8" cy="9" r="1" fill="#dedede"/><rect width="1" height="1.474" x="7.505" y="1.526" fill="#dedede" rx="0" ry="0"/><rect width="1" height="1.474" x="11.525" y="-6.771" fill="#dedede" rx="0" ry="0" transform="rotate(45)"/><rect width="1" height="1.474" x="11.525" y="6.703" fill="#dedede" rx="0" ry="0" transform="rotate(45)"/><rect width="1" height="1.474" x="8.5" y="-15.479" fill="#dedede" rx="0" ry="0" transform="rotate(90)"/><rect width="1" height="1.474" x="8.5" y="-2.006" fill="#dedede" rx="0" ry="0" transform="rotate(90)"/><rect width="1" height="1.474" x=".203" y="-19.499" fill="#dedede" rx="0" ry="0" transform="rotate(135)"/><rect width="1" height="1.474" x=".203" y="-6.025" fill="#dedede" rx="0" ry="0" transform="rotate(135)"/></svg>