<svg xmlns="http://www.w3.org/2000/svg" width="16" height="16"><path fill="#dedede" stroke-linecap="square" d="M3 1c-1.108 0-2 .892-2 2v10c0 1.108.892 2 2 2h1a4 4 0 0 1 .295-1.508c.007-.018.01-.037.017-.054.008-.018.018-.032.026-.05a4 4 0 0 1 .293-.542c.038-.061.08-.12.12-.178a4 4 0 0 1 .325-.396l.016-.018c.026-.028.045-.063.072-.09.032-.032.07-.055.104-.086a4 4 0 0 1 .39-.32c.064-.046.129-.09.196-.133a4 4 0 0 1 .146-.09 5.5 5.5 0 0 1 0-.035 5.5 5.5 0 0 1 .373-1.99 3.05 3.05 0 0 1-.49-.393 3.121 3.121 0 0 1-.649-.953A2.923 2.923 0 0 1 5 7c0-.411.078-.8.234-1.164.162-.365.378-.682.649-.953s.588-.485.953-.64A2.843 2.843 0 0 1 8 4c.412 0 .8.08 1.164.242.365.156.682.37.953.64.271.272.485.59.64.954.03.067.043.139.067.207A5.5 5.5 0 0 1 11.5 6a5.5 5.5 0 0 1 .363.012c-.049-.192-.097-.384-.175-.567a3.924 3.924 0 0 0-.86-1.273 3.927 3.927 0 0 0-1.273-.86A3.893 3.893 0 0 0 8 3a3.95 3.95 0 0 0-1.562.313 3.99 3.99 0 0 0-2.125 2.133A3.891 3.891 0 0 0 4.003 7c0 .349.041.69.13 1.023.088.334.216.651.383.954.172.296.377.57.617.82.24.245.51.456.812.633-.37.161-.71.364-1.023.609a5.031 5.031 0 0 0-1.46 1.836c-.168.36-.29.734-.368 1.125H3c-.554 0-1-.446-1-1V3c0-.554.446-1 1-1h10c.554 0 1 .446 1 1v3.6a5.5 5.5 0 0 1 1 .66V3c0-1.108-.892-2-2-2H3z" aria-label="" style="paint-order:stroke fill markers"/><path fill="#dedede" d="M11.5 7A4.5 4.5 0 0 0 7 11.5a4.5 4.5 0 0 0 4.5 4.5 4.5 4.5 0 0 0 4.5-4.5A4.5 4.5 0 0 0 11.5 7zm0 1a3.5 3.5 0 0 1 3.5 3.5 3.5 3.5 0 0 1-3.5 3.5A3.5 3.5 0 0 1 8 11.5 3.5 3.5 0 0 1 11.5 8zM11 9v1h1V9h-1zm0 2v3h1v-3h-1z" style="paint-order:stroke fill markers"/></svg>