<svg xmlns="http://www.w3.org/2000/svg" width="16" height="16"><defs><style id="current-color-scheme" type="text/css">.ColorScheme-Text{color:#404040}.ColorScheme-Highlight{color:#5294e2}</style></defs><path fill="#dedede" d="M8 0a1.06 1.06 0 0 0-.719.26 1.646 1.646 0 0 0-.285.289 4.346 4.346 0 0 0-.383.586 22.78 22.78 0 0 0-.74 1.472c-.247.525-.488 1.052-.682 1.448a8.6 8.6 0 0 1-.203.388c-.106.024-.228.052-.396.08-.416.072-.966.148-1.518.233a20.47 20.47 0 0 0-1.572.287 4.053 4.053 0 0 0-.662.205c-.218.093-.582.12-.791.795-.209.675.063.88.183 1.082.12.202.258.377.414.564.314.376.709.789 1.108 1.198.399.409.8.812 1.098 1.127.122.13.208.228.283.314a7.838 7.838 0 0 1-.08.428c-.095.437-.235 1.01-.371 1.586a23.67 23.67 0 0 0-.348 1.646c-.04.248-.069.472-.068.711 0 .12.003.244.043.41.04.167.109.425.417.66.31.236.565.234.733.231.167-.002.288-.028.404-.057.232-.056.444-.136.678-.234a24.093 24.093 0 0 0 1.543-.734c.536-.272 1.07-.55 1.48-.75.18-.088.32-.15.434-.2.113.05.254.112.434.2.41.2.944.478 1.48.75.537.272 1.074.54 1.543.734.234.098.446.178.678.234.116.029.237.054.404.057.168.003.424.005.733-.23.308-.236.378-.494.418-.66.04-.167.042-.29.043-.41 0-.24-.03-.464-.069-.712-.079-.495-.21-1.07-.348-1.646s-.276-1.149-.37-1.586a7.837 7.837 0 0 1-.08-.428c.074-.086.16-.185.283-.314.297-.315.698-.718 1.097-1.127.4-.41.794-.822 1.108-1.198.156-.187.293-.362.414-.564.12-.202.392-.407.183-1.082-.209-.675-.573-.702-.79-.795a4.053 4.053 0 0 0-.663-.205c-.468-.112-1.02-.202-1.572-.287s-1.102-.161-1.518-.232c-.168-.03-.29-.057-.396-.08a8.597 8.597 0 0 1-.203-.39c-.194-.395-.435-.922-.682-1.447a22.801 22.801 0 0 0-.74-1.472 4.348 4.348 0 0 0-.383-.586 1.646 1.646 0 0 0-.285-.29A1.061 1.061 0 0 0 8 0zm0 1c.472 0 1.995 3.995 2.377 4.287.382.292 4.471.579 4.617 1.05.146.473-3 3.228-3.146 3.7-.146.472 1.198 4.646.816 4.938-.382.291-4.191-2.002-4.664-2.002-.472 0-4.282 2.293-4.664 2.002-.382-.292.962-4.466.816-4.938-.146-.472-3.292-3.227-3.146-3.7.146-.471 4.235-.758 4.617-1.05C6.005 4.995 7.528 1 8 1z"/></svg>