<?xml version="1.0" encoding="UTF-8" standalone="no"?>
<svg
   id="svg4153"
   width="22"
   height="22"
   version="1.1"
   viewBox="0 0 22 22"
   xmlns="http://www.w3.org/2000/svg"
   xmlns:svg="http://www.w3.org/2000/svg"
   xmlns:rdf="http://www.w3.org/1999/02/22-rdf-syntax-ns#"
   xmlns:cc="http://creativecommons.org/ns#"
   xmlns:dc="http://purl.org/dc/elements/1.1/">
  <metadata
     id="metadata870">
    <rdf:RDF>
      <cc:Work
         rdf:about="">
        <dc:format>image/svg+xml</dc:format>
        <dc:type
           rdf:resource="http://purl.org/dc/dcmitype/StillImage" />
      </cc:Work>
    </rdf:RDF>
  </metadata>
  <defs
     id="defs4157">
    <style
       id="current-color-scheme"
       type="text/css">.ColorScheme-Text {
        color:#31363b;
      }
      .ColorScheme-Background {
        color:#eff0f1;
      }
      .ColorScheme-Highlight {
        color:#3498db;
      }
      .ColorScheme-ViewText {
        color:#31363b;
      }
      .ColorScheme-ViewBackground {
        color:#fcfcfc;
      }
      .ColorScheme-ViewHover {
        color:#93cee9;
      }
      .ColorScheme-ViewFocus{
        color:#3daee9;
      }
      .ColorScheme-ButtonText {
        color:#31363b;
      }
      .ColorScheme-ButtonBackground {
        color:#eff0f1;
      }
      .ColorScheme-ButtonHover {
        color:#93cee9;
      }
      .ColorScheme-ButtonFocus{
        color:#3daee9;
      }
      .ColorScheme-NegativeText{
        color:#e74c3c;
      }</style>
  </defs>
  <g
     id="network-wired-activated-limited"
     transform="translate(98,-45)">
    <rect
       style="fill:none;fill-opacity:1;stroke:none"
       id="rect14232"
       width="22"
       height="22"
       x="-98"
       y="45" />
    <path
       id="path14234"
       d="m 59,4 c -0.554,0 -1,0.446 -1,1 v 5 c 0,0.554 0.446,1 1,1 h 1 v 3.5 c 0,0.277 0.223,0.5 0.5,0.5 0.277,0 0.5,-0.223 0.5,-0.5 V 11 h 1 c 0.554,0 1,-0.446 1,-1 V 5 C 63,4.446 62.554,4 62,4 Z M 49,5 c -1.108,0 -2,0.892 -2,2 v 8 c 0,1.108 0.892,2 2,2 h 3 v 2 h -1.5 c -0.277,0 -0.5,0.223 -0.5,0.5 0,0.277 0.223,0.5 0.5,0.5 h 8 C 58.777,20 59,19.777 59,19.5 59,19.223 58.777,19 58.5,19 H 58 v -2 h 0.5 C 58.777,17 59,16.777 59,16.5 59,16.223 58.777,16 58.5,16 h -3 -6.5 c -0.554,0 -1,-0.446 -1,-1 V 7 c 0,-0.554 0.446,-1 1,-1 h 4.5 3 C 56.777,6 57,5.777 57,5.5 57,5.223 56.777,5 56.5,5 h -3 z m 10,0 h 3 v 1 h -3 z m 0,2 h 3 v 3 h -3 z m -6,10 h 2.5 1.5 v 2 h -4 z"
       transform="translate(-142,45)"
       fill="currentColor"
       class="ColorScheme-Text" />
    <path
       style="fill:#ffc850;fill-opacity:1;fill-rule:evenodd;stroke:none;stroke-width:1px;stroke-linecap:butt;stroke-linejoin:miter;stroke-opacity:1"
       d="m -79,60 -3,5 h 6 z m 0,2 1.19922,2 h -2.39844 z"
       id="path14321" />
  </g>
</svg>
