<?xml version="1.0" encoding="UTF-8" standalone="no"?>
<svg
   id="svg4153"
   width="22"
   height="22"
   version="1.1"
   viewBox="0 0 22 22"
   xmlns="http://www.w3.org/2000/svg"
   xmlns:svg="http://www.w3.org/2000/svg"
   xmlns:rdf="http://www.w3.org/1999/02/22-rdf-syntax-ns#"
   xmlns:cc="http://creativecommons.org/ns#"
   xmlns:dc="http://purl.org/dc/elements/1.1/">
  <metadata
     id="metadata870">
    <rdf:RDF>
      <cc:Work
         rdf:about="">
        <dc:format>image/svg+xml</dc:format>
        <dc:type
           rdf:resource="http://purl.org/dc/dcmitype/StillImage" />
      </cc:Work>
    </rdf:RDF>
  </metadata>
  <defs
     id="defs4157">
    <style
       id="current-color-scheme"
       type="text/css">.ColorScheme-Text {
        color:#31363b;
      }
      .ColorScheme-Background {
        color:#eff0f1;
      }
      .ColorScheme-Highlight {
        color:#3498db;
      }
      .ColorScheme-ViewText {
        color:#31363b;
      }
      .ColorScheme-ViewBackground {
        color:#fcfcfc;
      }
      .ColorScheme-ViewHover {
        color:#93cee9;
      }
      .ColorScheme-ViewFocus{
        color:#3daee9;
      }
      .ColorScheme-ButtonText {
        color:#31363b;
      }
      .ColorScheme-ButtonBackground {
        color:#eff0f1;
      }
      .ColorScheme-ButtonHover {
        color:#93cee9;
      }
      .ColorScheme-ButtonFocus{
        color:#3daee9;
      }
      .ColorScheme-NegativeText{
        color:#e74c3c;
      }</style>
  </defs>
  <g
     id="network-wireless-available"
     transform="translate(85.997223,-166)">
    <path
       style="color:#000000;fill:#ffc850;stroke-linecap:round;stroke-linejoin:round;-inkscape-stroke:none"
       d="m -68.23437,177.0137 a 2,2 0 0 0 -1.7676,1.8965 2,2 0 0 0 0,0.0898 h 1 a 1,1 0 0 1 0.88281,-0.99414 h 0.11524 v -0.99219 h -0.23047 z m 0.23242,0.002 v 1 a 1,1 0 0 1 0.99414,0.88281 v 0.11523 h 0.0059 a 1,1 0 0 1 -0.88281,0.99414 L -68,180.00783 v -0.008 a 2,2 0 0 0 -0.19922,0.002 2,2 0 0 0 -0.80078,0.2187 v -0.20683 h -0.002 v 2 h 1 V 181 h 0.23247 a 2,2 0 0 0 1.7676,-1.8965 2,2 0 0 0 0,-0.0898 h -0.01367 v -0.23047 a 2,2 0 0 0 -1.8965,-1.7676 2,2 0 0 0 -0.08984,0 z M -69,183 v 1 h 1 v -1 z"
       id="path26568" />
    <g
       id="g26484"
       transform="translate(-220,128)">
      <rect
         style="fill:none;fill-opacity:1;stroke:none;stroke-width:0.733333;stroke-linecap:round;stroke-linejoin:round;stroke-miterlimit:4;stroke-dasharray:none;stroke-opacity:1"
         id="rect26472"
         width="22"
         height="22"
         x="134.00278"
         y="38"
         rx="0"
         ry="0" />
      <g
         id="g26482"
         transform="translate(-55,-14)">
        <path
           id="path26474"
           class="ColorScheme-Text"
           d="m -75,172 c -3.15899,0.005 -6.111887,1.58062 -7.873047,4.20312 -0.154889,0.22963 -0.09358,0.54143 0.136719,0.69532 0.229632,0.15488 0.541418,0.0936 0.695312,-0.13672 1.57638,-2.34735 4.213476,-3.75719 7.041016,-3.76172 2.730597,4.3e-4 5.287918,1.31191 6.882812,3.51367 0.357418,-0.0238 0.740369,0.0297 1.031298,0.17583 0.07644,-0.15935 0.06307,-0.34722 -0.03516,-0.49414 C -68.885764,173.57353 -71.83965,172.00051 -75,172 Z m -0.002,3 c -2.35092,0.007 -4.516856,1.28566 -5.660156,3.33984 -0.133795,0.24162 -0.04634,0.54596 0.195312,0.67969 0.24162,0.13379 0.545953,0.0463 0.679688,-0.19531 0.96786,-1.73896 2.797079,-2.81756 4.787109,-2.82422 1.839606,8.7e-4 3.544744,0.91983 4.560547,2.42969 0.08802,-0.37469 0.263157,-0.71599 0.5,-1.00586 C -71.160097,175.90703 -73.015103,175.00094 -75,175 Z m 0.002,3 c -1.55078,0.001 -2.964264,0.90182 -3.621094,2.30664 -0.116387,0.25026 -0.008,0.54749 0.242188,0.66406 0.250257,0.11639 0.547488,0.008 0.664062,-0.24218 0.4935,-1.05549 1.549694,-1.72766 2.714844,-1.72852 1.16577,2.1e-4 2.223027,0.67248 2.716797,1.72852 0.116574,0.25017 0.413805,0.35857 0.664062,0.24218 0.250172,-0.11657 0.358575,-0.4138 0.242188,-0.66406 C -72.034133,178.9011 -73.44841,178.00028 -75,178 Z m 0,3 c -0.552285,0 -1,0.44772 -1,1 0,0.55228 0.447715,1 1,1 0.552285,0 1,-0.44772 1,-1 0,-0.55228 -0.447715,-1 -1,-1 z"
           transform="translate(275,-114)"
           fill="currentColor" />
      </g>
    </g>
  </g>
</svg>
