<?xml version="1.0" encoding="UTF-8" standalone="no"?>
<svg
   width="22"
   height="22"
   version="1.1"
   viewBox="0 0 22 22"
   id="svg87"
   xmlns="http://www.w3.org/2000/svg"
   xmlns:svg="http://www.w3.org/2000/svg"
   xmlns:rdf="http://www.w3.org/1999/02/22-rdf-syntax-ns#"
   xmlns:cc="http://creativecommons.org/ns#"
   xmlns:dc="http://purl.org/dc/elements/1.1/">
  <metadata
     id="metadata91">
    <rdf:RDF>
      <cc:Work
         rdf:about="">
        <dc:format>image/svg+xml</dc:format>
        <dc:type
           rdf:resource="http://purl.org/dc/dcmitype/StillImage" />
        <dc:title />
      </cc:Work>
    </rdf:RDF>
  </metadata>
  <defs
     id="defs3">
    <style
       id="current-color-scheme"
       type="text/css">.ColorScheme-Text { color:#333333; } .ColorScheme-Highlight { color:#5294e2; } .ColorScheme-ButtonBackground { color:#f5f5f5; }</style>
  </defs>
  <g
     id="22-22-update-medium"
     transform="translate(-44)">
    <rect
       width="22"
       height="22"
       clip-rule="evenodd"
       fill-opacity="0"
       stroke-linejoin="round"
       stroke-miterlimit="1.4142"
       stroke-width="0.54635"
       id="rect607"
       x="44"
       y="0" />
    <path
       id="path609"
       class="ColorScheme-Text"
       d="M 54.990234,2 A 9,9 0 0 0 46,11 9,9 0 0 0 55,20 9,9 0 0 0 57.890625,19.503906 4,4 0 0 1 57.351562,18.638672 8,8 0 0 1 55,19 a 8,8 0 0 1 -8,-8 8,8 0 0 1 8,-8 8,8 0 0 1 8,8 8,8 0 0 1 -0.361328,2.351562 4,4 0 0 1 0.867187,0.53125 A 9,9 0 0 0 64,11 9,9 0 0 0 55,2 9,9 0 0 0 54.990234,2 Z M 55,7 c -0.01598,0 -0.03324,5.039e-4 -0.04883,0.00195 h -0.002 c -0.05913,0.00597 -0.114884,0.024206 -0.166016,0.048828 -0.005,0.00243 -0.01069,0.00326 -0.01563,0.00586 -0.0021,0.00109 -0.0038,0.00279 -0.0059,0.00391 -0.0124,0.00676 -0.02519,0.013597 -0.03711,0.021484 -0.0015,9.842e-4 -0.0024,0.00291 -0.0039,0.00391 -0.0012,7.981e-4 -0.0027,0.00114 -0.0039,0.00195 -0.0037,0.00258 -0.008,0.00512 -0.01172,0.00781 -0.0071,0.00518 -0.01468,0.012035 -0.02148,0.017578 h -0.002 c -0.01271,0.010442 -0.02327,0.021319 -0.03516,0.033203 -0.0113,0.011297 -0.02303,0.022819 -0.0332,0.035156 l -2.794922,2.7929688 c -0.195867,0.1958672 -0.195867,0.5111622 0,0.7070312 0.195869,0.195867 0.511163,0.195867 0.707032,0 L 54.5,8.7070312 V 15.5 c 0,0.277 0.223,0.5 0.5,0.5 0.277,0 0.5,-0.223 0.5,-0.5 V 8.7070312 l 1.974609,1.9746098 c 0.195869,0.195867 0.511163,0.195867 0.707032,0 0.195867,-0.195869 0.195867,-0.511163 0,-0.7070316 L 55.386719,7.1816406 c -0.01017,-0.012338 -0.02191,-0.023859 -0.0332,-0.035156 -0.01188,-0.011884 -0.02245,-0.022761 -0.03516,-0.033203 h -0.002 c -0.0057,-0.00463 -0.01177,-0.00933 -0.01758,-0.013672 -0.05917,-0.044195 -0.127617,-0.075355 -0.203125,-0.089844 -0.0151,-0.00294 -0.02965,-0.00628 -0.04492,-0.00781 h -0.002 -0.002 C 55.031098,7.0004204 55.015976,7 55,7 Z"
       fill="currentColor" />
    <circle
       id="circle611"
       cx="61"
       cy="17"
       r="3"
       class="ColorScheme-Highlight"
       fill="currentColor"
       style="opacity:0.65" />
  </g>
</svg>
