<?xml version="1.0" encoding="UTF-8" standalone="no"?>
<svg
   id="svg"
   version="1.1"
   viewBox="0 0 32 32"
   width="32"
   height="32"
   xmlns="http://www.w3.org/2000/svg"
   xmlns:svg="http://www.w3.org/2000/svg"
   xmlns:rdf="http://www.w3.org/1999/02/22-rdf-syntax-ns#"
   xmlns:cc="http://creativecommons.org/ns#"
   xmlns:dc="http://purl.org/dc/elements/1.1/">
  <metadata
     id="metadata47">
    <rdf:RDF>
      <cc:Work
         rdf:about="">
        <dc:format>image/svg+xml</dc:format>
        <dc:type
           rdf:resource="http://purl.org/dc/dcmitype/StillImage" />
      </cc:Work>
    </rdf:RDF>
  </metadata>
  <defs
     id="defs3">
    <style
       id="current-color-scheme"
       type="text/css">.ColorScheme-Text { color:#333333; } .ColorScheme-Highlight { color:#5294e2; } .ColorScheme-ButtonBackground { color:#dedede; }</style>
  </defs>
  <g
     id="device-notifier"
     transform="translate(0,36)">
    <rect
       y="-36"
       width="32"
       height="32"
       fill="none"
       opacity="0.2"
       id="rect5"
       x="0" />
    <path
       id="path9"
       d="m 12,-34 c -0.554,0 -1,0.446 -1,1 v 5 c -1.662,0 -3,1.338 -3,3 v 16 c 0,1.662 1.338,3 3,3 h 10 c 1.662,0 3,-1.338 3,-3 v -16 c 0,-1.662 -1.338,-3 -3,-3 v -5 c 0,-0.554 -0.446,-1 -1,-1 z m 0,1 h 8 v 5 h -8 z m 2,1 v 3 h 1 v -3 z m 3,0 v 3 h 1 v -3 z m -6,5 h 1 8 1 c 1.108,0 2,0.892 2,2 v 16 c 0,1.108 -0.892,2 -2,2 H 11 C 9.892,-7 9,-7.892 9,-9 v -16 c 0,-1.108 0.892,-2 2,-2 z"
       class="ColorScheme-Text"
       fill="currentColor" />
  </g>
</svg>
