<?xml version="1.0" encoding="UTF-8" standalone="no"?>
<svg
   xmlns:dc="http://purl.org/dc/elements/1.1/"
   xmlns:cc="http://creativecommons.org/ns#"
   xmlns:rdf="http://www.w3.org/1999/02/22-rdf-syntax-ns#"
   xmlns:svg="http://www.w3.org/2000/svg"
   xmlns="http://www.w3.org/2000/svg"
   xmlns:sodipodi="http://sodipodi.sourceforge.net/DTD/sodipodi-0.dtd"
   xmlns:inkscape="http://www.inkscape.org/namespaces/inkscape"
   width="16"
   height="16.006815"
   version="1.1"
   id="svg1367"
   sodipodi:docname="drive-removable-media-usb.svg"
   inkscape:version="0.92.4 (5da689c313, 2019-01-14)">
  <metadata
     id="metadata1371">
    <rdf:RDF>
      <cc:Work
         rdf:about="">
        <dc:format>image/svg+xml</dc:format>
        <dc:type
           rdf:resource="http://purl.org/dc/dcmitype/StillImage" />
        <dc:title />
      </cc:Work>
    </rdf:RDF>
  </metadata>
  <sodipodi:namedview
     pagecolor="#ffffff"
     bordercolor="#666666"
     borderopacity="1"
     objecttolerance="10"
     gridtolerance="10"
     guidetolerance="10"
     inkscape:pageopacity="0"
     inkscape:pageshadow="2"
     inkscape:window-width="1366"
     inkscape:window-height="699"
     id="namedview1369"
     showgrid="false"
     inkscape:zoom="6.5778826"
     inkscape:cx="-27.089407"
     inkscape:cy="28.201265"
     inkscape:window-x="0"
     inkscape:window-y="0"
     inkscape:window-maximized="1"
     inkscape:current-layer="g1365" />
  <defs
     id="defs1335">
    <linearGradient
       id="a"
       y1="543.79999"
       y2="515.79999"
       x2="0"
       gradientUnits="userSpaceOnUse"
       gradientTransform="matrix(1.125,0,0,1,-51.07,0)">
      <stop
         stop-color="#1d1e1e"
         id="stop1315" />
      <stop
         offset="1"
         stop-color="#44484c"
         id="stop1317" />
    </linearGradient>
    <linearGradient
       id="b"
       y1="525.79999"
       y2="503.79999"
       x2="0"
       gradientUnits="userSpaceOnUse">
      <stop
         stop-color="#c6cdd1"
         id="stop1320" />
      <stop
         offset="1"
         stop-color="#e0e5e7"
         id="stop1322" />
    </linearGradient>
    <linearGradient
       id="c"
       y1="14"
       x1="5"
       y2="36"
       x2="27"
       gradientUnits="userSpaceOnUse"
       gradientTransform="matrix(0.43999087,0,0,0.46687517,388.05544,524.35231)">
      <stop
         stop-color="#383e51"
         id="stop1325" />
      <stop
         offset="1"
         stop-color="#655c6f"
         stop-opacity="0"
         id="stop1327" />
    </linearGradient>
    <linearGradient
       id="d"
       y1="543.79999"
       y2="515.79999"
       gradientUnits="userSpaceOnUse"
       x2="0"
       gradientTransform="matrix(1.16129,0,0,1,-65.38,0)">
      <stop
         stop-color="#197cf1"
         id="stop1330" />
      <stop
         offset="1"
         stop-color="#20bcfa"
         id="stop1332" />
    </linearGradient>
  </defs>
  <g
     transform="matrix(0.78125,0,0,0.75,-303.38098,-393.63518)"
     id="g1365">
    <g
       id="g1343"
       style="stroke-width:2.79999995;stroke-opacity:0.55"
       transform="matrix(0.43999084,0,0,0.46687515,218.84813,291.00809)">
      <rect
         width="31"
         x="392.57001"
         y="525.79999"
         height="18"
         id="rect1337"
         style="fill:url(#a)" />
      <rect
         width="32"
         x="392.57001"
         y="542.79999"
         height="1"
         id="rect1339"
         style="fill:#202224" />
      <rect
         width="26"
         x="395.57001"
         y="503.79999"
         height="22"
         id="rect1341"
         style="fill:url(#b)" />
    </g>
    <path
       d="m 397.73521,529.48791 -3.07993,3.26813 10.55977,11.32172 v -7.5858 h -0.87998 v -5.13561 l -1.75996,-1.8675 h -3.07995 v 1.8675 z"
       id="path1345"
       inkscape:connector-curvature="0"
       style="opacity:0.2;fill:url(#c);fill-rule:evenodd;stroke-width:0.45323375" />
    <g
       id="g1361"
       style="stroke-width:2.79999995;stroke-opacity:0.55"
       transform="matrix(0.43999084,0,0,0.46687515,218.84813,291.00809)">
      <g
         id="g1351"
         style="fill:#202224">
        <rect
           width="7"
           x="399.57001"
           y="510.79999"
           height="7"
           id="rect1347" />
        <rect
           width="7"
           x="410.57001"
           y="510.79999"
           height="7"
           id="rect1349" />
      </g>
      <g
         id="g1357"
         style="fill:#fdbc4a">
        <rect
           width="3"
           x="401.57001"
           y="510.79999"
           height="7"
           id="rect1353" />
        <rect
           width="3"
           x="412.57001"
           y="510.79999"
           height="7"
           id="rect1355" />
      </g>
      <rect
         width="32"
         x="392.57001"
         y="525.79999"
         height="18"
         id="rect1359"
         style="fill:url(#d)" />
    </g>
    <path
       d="m 397.9552,539.29229 a 0.21999542,0.23343757 0 0 0 -0.21999,0.23344 0.21999542,0.23343757 0 0 0 0.21999,0.23343 0.21999542,0.23343757 0 0 0 0.22,-0.23343 0.21999542,0.23343757 0 0 0 -0.22,-0.23344 m 1.09998,0 -0.44,0.46687 0.44,0.46689 -0.44,0.46686 0.44,0.46688 0.87998,-0.93374 z m -1.53997,0.98026 a 0.21999542,0.23343757 0 0 0 -0.22,0.23343 0.21999542,0.23343757 0 0 0 0.22,0.23343 0.21999542,0.23343757 0 0 0 0.22,-0.23343 0.21999542,0.23343757 0 0 0 -0.22,-0.23343 m 0.65999,0.88724 a 0.43998513,0.46686908 0 0 0 -0.43999,0.46687 0.43998513,0.46686908 0 0 0 0.43999,0.46687 0.43998513,0.46686908 0 0 0 0.43998,-0.46687 0.43998513,0.46686908 0 0 0 -0.43998,-0.46687"
       id="path1363"
       inkscape:connector-curvature="0"
       style="fill:#085ba7;fill-rule:evenodd;stroke-width:0.45323375" />
  </g>
  <rect
     style="opacity:1;fill:none;fill-opacity:1;stroke:#ffa900;stroke-width:1.42590916;stroke-miterlimit:4;stroke-dasharray:none;stroke-dashoffset:4.00629902;stroke-opacity:0"
     id="rect1916"
     width="14.574091"
     height="14.580905"
     x="0.71295458"
     y="0.71295458" />
</svg>
