<svg xmlns="http://www.w3.org/2000/svg" width="16" height="16"><path d="M8.5 0c-.011 0-.02.005-.031.006-.032.002-.061.011-.092.02a.486.486 0 0 0-.104.035c-.007.003-.016.003-.023.007-.016.01-.025.023-.04.034a.483.483 0 0 0-.198.341C8.009.463 8 .48 8 .5v11.004A2.5 2.5 0 0 0 6.5 11 2.5 2.5 0 1 0 9 13.5V2.367l1.566 2.713a.5.5 0 1 0 .868-.5L8.934.25C8.923.232 8.905.22 8.893.205a.484.484 0 0 0-.07-.08C8.8.106 8.775.093 8.751.078a.478.478 0 0 0-.094-.047c-.03-.01-.061-.013-.094-.017C8.542.01 8.523 0 8.5 0zM6.494 12C7.326 12 8 12.671 8 13.5S7.326 15 6.494 15s-1.506-.671-1.506-1.5.674-1.5 1.506-1.5z" style="fill:currentColor;color:#dedede"/></svg>