<svg width="8" height="13" viewBox="0 0 8 13" fill="none" xmlns="http://www.w3.org/2000/svg">
<path fill-rule="evenodd" clip-rule="evenodd" d="M4.14731 0.949494L7.05675 0.405838C7.45226 0.331933 7.81769 0.635403 7.81769 1.03776V2.95853C7.81769 3.26772 7.59758 3.53312 7.29372 3.5903L4.77448 4.06438C4.48049 4.11838 4.42823 4.17239 4.42823 4.47248V9.96402C4.42823 11.7285 2.96483 12.3947 1.99793 12.3947C0.893858 12.3947 0.103373 11.7345 0.103373 10.7983C0.103373 9.88 0.723993 9.24983 2.05674 8.99776L3.0955 8.79369C3.36335 8.74568 3.50054 8.56563 3.50054 8.28957L3.46133 1.61569C3.46133 1.25558 3.70305 1.03953 4.14731 0.949494Z" fill="url(#paint0_linear_4_34)"/>
<defs>
<linearGradient id="paint0_linear_4_34" x1="10.5549" y1="-0.00496265" x2="1.34198" y2="13.2347" gradientUnits="userSpaceOnUse">
<stop stop-color="#E996B1"/>
<stop offset="1" stop-color="#BC546F"/>
</linearGradient>
</defs>
</svg>
