<svg width="16" height="16"><path d="M8 0 1 4.234v7.532L8 16l7-4.234V4.234L8 0zm1.193 5c.148.008.225.07.207.17L8.88 8.133l1.406-.018c.148-.002.235.086.195.196-.04.11-.191.2-.34.203l-1.638.021c-.134.002-.222-.069-.203-.168L8.57 6.82l-2.029 3.998c-.048.094-.177.171-.309.18L6.211 11c-.12.002-.205-.056-.205-.143l-.035-2.3-1.3 1.228a.418.418 0 0 1-.308.11c-.107-.009-.175-.07-.174-.149l.034-1.24-2.018.027c-.147.002-.235-.085-.195-.195.04-.11.192-.203.34-.205l2.226-.03c.123-.001.208.06.205.149l-.023.887 1.277-1.21a.412.412 0 0 1 .303-.109c.105.007.177.063.18.14l.027 1.798 2.322-4.576c.05-.1.19-.179.326-.182zm4.602 3.068c.147-.002.235.086.195.196-.04.11-.193.2-.34.203l-.902.014c-.147.001-.235-.088-.195-.198.04-.11.193-.201.34-.203l.902-.012zm-1.824.024c.147-.002.235.087.195.197-.04.11-.193.201-.34.203l-.847.012c-.148.002-.235-.087-.196-.197.04-.11.193-.202.34-.203l.848-.012z" style="fill:currentColor;color:#dedede"/></svg>