<svg width="15" height="14" viewBox="0 0 15 14" fill="none" xmlns="http://www.w3.org/2000/svg">
<path d="M4.73349 14C4.54019 14 4.38349 13.8433 4.38349 13.65V12.9649C4.38349 12.8791 4.41496 12.7964 4.47191 12.7323L4.92064 12.2276C5.12129 12.0019 4.96106 11.645 4.65906 11.645H2.82608C2.27121 11.645 1.80315 11.434 1.42189 11.0118C1.04063 10.5896 0.85 10.0713 0.85 9.45695V2.18808C0.85 1.57369 1.04063 1.05541 1.42189 0.633245C1.80315 0.211082 2.27121 0 2.82608 0H6.69617C6.88947 0 7.04617 0.1567 7.04617 0.35V1.83808C7.04617 2.03138 6.88947 2.18808 6.69617 2.18808H3.17608C2.98278 2.18808 2.82608 2.34478 2.82608 2.53808V9.10695C2.82608 9.30025 2.98278 9.45695 3.17608 9.45695H12.5239C12.7172 9.45695 12.8739 9.30025 12.8739 9.10695V7.63742C12.8739 7.44412 13.0306 7.28742 13.2239 7.28742H14.5C14.6933 7.28742 14.85 7.44412 14.85 7.63742V9.45695C14.85 10.0713 14.6594 10.5896 14.2781 11.0118C13.8968 11.434 13.4288 11.645 12.8739 11.645H11.0409C10.7389 11.645 10.5787 12.0019 10.7794 12.2276L11.2281 12.7323C11.285 12.7964 11.3165 12.8791 11.3165 12.9649V13.65C11.3165 13.8433 11.1598 14 10.9665 14H4.73349ZM10.27 8.61304C10.1311 8.76693 9.88951 8.76693 9.75054 8.61304L6.47095 4.9816C6.35061 4.84836 6.35061 4.64568 6.47095 4.51244L7.38929 3.49557C7.52827 3.34168 7.76982 3.34168 7.90879 3.49557L8.4125 4.05331C8.62729 4.29115 9.02225 4.1392 9.02225 3.81872V0.35C9.02225 0.156701 9.17895 0 9.37225 0H10.6483C10.8416 0 10.9983 0.1567 10.9983 0.35V3.81872C10.9983 4.1392 11.3933 4.29115 11.6081 4.05331L12.1118 3.49556C12.2508 3.34168 12.4923 3.34168 12.6313 3.49557L13.5496 4.51244C13.67 4.64568 13.67 4.84836 13.5496 4.9816L10.27 8.61304Z" fill="url(#paint0_radial_4_27)"/>
<defs>
<radialGradient id="paint0_radial_4_27" cx="0" cy="0" r="1" gradientUnits="userSpaceOnUse" gradientTransform="translate(15.3901) rotate(136.28) scale(19.2437 21.5161)">
<stop stop-color="#72CB72"/>
<stop offset="1" stop-color="#1C6D1C"/>
</radialGradient>
</defs>
</svg>
