<?xml version="1.0" encoding="UTF-8" standalone="no"?>
<svg
   version="1.1"
   width="22.00001"
   height="21.999983"
   viewBox="0 0 22.00001 21.999983"
   id="svg"
   xmlns="http://www.w3.org/2000/svg"
   xmlns:svg="http://www.w3.org/2000/svg"
   xmlns:rdf="http://www.w3.org/1999/02/22-rdf-syntax-ns#"
   xmlns:cc="http://creativecommons.org/ns#"
   xmlns:dc="http://purl.org/dc/elements/1.1/">
  <defs
     id="defs81">
    <style
       type="text/css"
       id="current-color-scheme">
      .ColorScheme-Text {
        color:#7B7C7E;
      }
      .ColorScheme-Background{
        color:#EFF0F1;
      }
      .ColorScheme-Highlight{
        color:#3DAEE6;
      }
      .ColorScheme-ViewText {
        color:#7B7C7E;
      }
      .ColorScheme-ViewBackground{
        color:#FCFCFC;
      }
      .ColorScheme-ViewHover {
        color:#3DAEE6;
      }
      .ColorScheme-ViewFocus{
        color:#1E92FF;
      }
      .ColorScheme-ButtonText {
        color:#7B7C7E;
      }
      .ColorScheme-ButtonBackground{
        color:#EFF0F1;
      }
      .ColorScheme-ButtonHover {
        color:#3DAEE6;
      }
      .ColorScheme-ButtonFocus{
        color:#1E92FF;
      }
</style>
  </defs>
  <metadata
     id="metadata34">
    <rdf:RDF>
      <cc:Work
         rdf:about="">
        <dc:format>image/svg+xml</dc:format>
        <dc:type
           rdf:resource="http://purl.org/dc/dcmitype/StillImage" />
      </cc:Work>
    </rdf:RDF>
  </metadata>
  <g
     id="22-22-video-display-brightness"
     style="display:inline"
     transform="translate(-9.129248e-7,-1.7631031e-5)">
    <path
       class="ColorScheme-Background"
       style="color:#eff0f1;display:none;fill:currentColor;fill-opacity:0.5;stroke-width:1"
       id="path3"
       d="M 14.27272,8.993764 A 3.306793,3.306793 0 1 1 7.98283,11.037487 3.306793,3.306793 0 1 1 14.27272,8.993764 Z" />
    <rect
       style="opacity:0.01;fill:#00000f;fill-opacity:0.00392157;stroke:none;stroke-width:0.750001"
       id="rect3074"
       width="22.00001"
       height="21.999983"
       x="9.129248e-07"
       y="1.7631031e-05" />
    <path
       id="rect2020"
       d="m 2.999999,3 c -1.108,0 -2,0.892 -2,2 v 10 c 0,1.108 0.892184,2.020195 2,2 h 6 v 2 H 6.48828 c -0.270966,0 -0.488281,0.223 -0.488281,0.5 0,0.277 0.217315,0.5 0.488281,0.5 h 3 0.02344 2.966797 0.04297 2.990235 c 0.270964,0 0.488279,-0.223 0.488279,-0.5 0,-0.277 -0.217315,-0.5 -0.488281,-0.5 h -2.511719 v -2 h 6 c 1.108,0 2,-0.892 2,-2 V 5 c 0,-1.108 -0.892,-2 -2,-2 z m 0,1 h 16 c 0.554,0 1,0.446 1,1 v 10 c 0,0.554 -0.446,1 -1,1 h -16 c -0.554,0 -1,-0.446 -1,-1 V 5 c 0,-0.554 0.446,-1 1,-1 z m 7,13 h 2 v 2 h -2 z"
       class="ColorScheme-Text"
       fill="currentColor" />
    <path
       id="path5"
       style="color:#7b7c7e;display:inline;fill:#7b7c7e;fill-opacity:1;stroke-width:1"
       class="ColorScheme-Text"
       d="M 9.50863,5.015291 9.69418,6.726228 C 9.21077,6.935929 8.79325,7.250762 8.45785,7.624666 L 6.87973,6.923494 8.03402,8.212556 C 7.77233,8.65878 7.60108,9.153867 7.54965,9.675447 l -1.67969,0.361328 1.69141,0.361328 c 0.0261,0.24365 0.0756,0.488337 0.15429,0.730469 0.0789,0.242891 0.17607,0.478505 0.29883,0.691406 l -1.1543,1.289063 1.57618,-0.701172 c 0.3412,0.383438 0.7641,0.679987 1.22656,0.886719 l -0.18555,1.732421 0.87695,-1.505859 c 0.25298,0.05637 0.51268,0.08661 0.7754,0.08789 V 13.0524 C 9.85184,13.0562 8.66811,12.239044 8.25082,10.954744 7.73356,9.362821 8.59832,7.667313 10.19027,7.150056 c 0.29849,-0.097 0.59873,-0.150272 0.89649,-0.154297 0.0144,-1.95e-4 0.0286,0.0019 0.043,0.002 v -0.5625 c -0.25055,-0.0025 -0.50231,0.02255 -0.75391,0.07617 z" />
    <path
       fill="currentColor"
       class="ColorScheme-Text"
       d="m 13.98083,5.000263 -3.58202,5.732302 h 2.14814 v 4.298422 l 3.58309,-5.732302 h -2.14921 z"
       style="color:#7b7c7e;display:inline;fill:#7b7c7e;fill-opacity:1;fill-rule:evenodd;stroke-width:0.145052"
       id="path6" />
  </g>
</svg>
