<?xml version="1.0" encoding="UTF-8" standalone="no"?>
<svg
   width="24"
   height="24"
   version="1"
   id="svg45990"
   sodipodi:docname="audio-headsets.svg"
   xml:space="preserve"
   inkscape:version="1.2.2 (b0a8486541, 2022-12-01)"
   xmlns:inkscape="http://www.inkscape.org/namespaces/inkscape"
   xmlns:sodipodi="http://sodipodi.sourceforge.net/DTD/sodipodi-0.dtd"
   xmlns="http://www.w3.org/2000/svg"
   xmlns:svg="http://www.w3.org/2000/svg"><defs
     id="defs45994"><radialGradient
       id="paint0_radial_2_194"
       cx="0"
       cy="0"
       r="1"
       gradientUnits="userSpaceOnUse"
       gradientTransform="matrix(0,5.8207157,-5.8207157,0,3.1749375,0.26458845)"><stop
         stop-color="white"
         id="stop38706" /><stop
         offset="1"
         stop-color="#BEBEBE"
         id="stop38708" /></radialGradient><radialGradient
       id="paint1_radial_2_194"
       cx="0"
       cy="0"
       r="1"
       gradientUnits="userSpaceOnUse"
       gradientTransform="matrix(0,2.910358,-2.910358,0,3.1749347,0.26458351)"><stop
         stop-color="#C50110"
         id="stop38711"
         offset="0"
         style="stop-color:#ff5151;stop-opacity:1;" /><stop
         offset="1"
         stop-color="#7B0619"
         id="stop38713"
         style="stop-color:#cb4141;stop-opacity:1;" /></radialGradient><radialGradient
       id="paint2_radial_2_194"
       cx="0"
       cy="0"
       r="1"
       gradientUnits="userSpaceOnUse"
       gradientTransform="matrix(0,23.334927,-21.776684,0,-21.920227,-0.0429884)"><stop
         stop-color="#6DD4FF"
         id="stop38716" /><stop
         offset="1"
         stop-color="#0076D4"
         id="stop38718" /></radialGradient><radialGradient
       fx="0"
       fy="0"
       cx="0"
       cy="0"
       r="1"
       gradientUnits="userSpaceOnUse"
       gradientTransform="matrix(0,16.499991,-16.499991,0,9,0.750029)"
       spreadMethod="pad"
       id="radialGradient41211"><stop
         style="stop-opacity:1;stop-color:#ffffff"
         offset="0"
         id="stop41207" /><stop
         style="stop-opacity:1;stop-color:#bebebe"
         offset="1"
         id="stop41209" /></radialGradient><radialGradient
       fx="0"
       fy="0"
       cx="0"
       cy="0"
       r="1"
       gradientUnits="userSpaceOnUse"
       gradientTransform="matrix(0,8.249996,-8.249996,0,8.999992,0.750015)"
       spreadMethod="pad"
       id="radialGradient41229"><stop
         style="stop-opacity:1;stop-color:#ff5151"
         offset="0"
         id="stop41225" /><stop
         style="stop-opacity:1;stop-color:#cb4141"
         offset="1"
         id="stop41227" /></radialGradient><clipPath
       clipPathUnits="userSpaceOnUse"
       id="clipPath41239"><path
         d="M 0,0 H 49 V 49 H 0 Z"
         id="path41237" /></clipPath><clipPath
       clipPathUnits="userSpaceOnUse"
       id="clipPath41255"><path
         d="M 0,0 H 49 V 49 H 0 Z"
         id="path41253" /></clipPath><clipPath
       clipPathUnits="userSpaceOnUse"
       id="clipPath41275"><path
         d="M 0,0 H 49 V 49 H 0 Z"
         id="path41273" /></clipPath><clipPath
       clipPathUnits="userSpaceOnUse"
       id="clipPath41291"><path
         d="M 0,0 H 49 V 49 H 0 Z"
         id="path41289" /></clipPath><radialGradient
       fx="0"
       fy="0"
       cx="0"
       cy="0"
       r="1"
       gradientUnits="userSpaceOnUse"
       gradientTransform="matrix(0,16.499991,-16.499991,0,9,0.750029)"
       spreadMethod="pad"
       id="radialGradient41211-7"><stop
         style="stop-opacity:1;stop-color:#ffffff"
         offset="0"
         id="stop41207-8" /><stop
         style="stop-opacity:1;stop-color:#bebebe"
         offset="1"
         id="stop41209-4" /></radialGradient><radialGradient
       fx="0"
       fy="0"
       cx="0"
       cy="0"
       r="1"
       gradientUnits="userSpaceOnUse"
       gradientTransform="matrix(0,8.249996,-8.249996,0,8.999992,0.750015)"
       spreadMethod="pad"
       id="radialGradient41229-5"><stop
         style="stop-opacity:1;stop-color:#ff5151"
         offset="0"
         id="stop41225-0" /><stop
         style="stop-opacity:1;stop-color:#cb4141"
         offset="1"
         id="stop41227-3" /></radialGradient><clipPath
       clipPathUnits="userSpaceOnUse"
       id="clipPath41239-6"><path
         d="M 0,0 H 49 V 49 H 0 Z"
         id="path41237-1" /></clipPath><clipPath
       clipPathUnits="userSpaceOnUse"
       id="clipPath41255-0"><path
         d="M 0,0 H 49 V 49 H 0 Z"
         id="path41253-6" /></clipPath><clipPath
       clipPathUnits="userSpaceOnUse"
       id="clipPath41275-3"><path
         d="M 0,0 H 49 V 49 H 0 Z"
         id="path41273-2" /></clipPath><clipPath
       clipPathUnits="userSpaceOnUse"
       id="clipPath41291-0"><path
         d="M 0,0 H 49 V 49 H 0 Z"
         id="path41289-6" /></clipPath><radialGradient
       id="paint0_radial_1_41"
       cx="0"
       cy="0"
       r="1"
       gradientUnits="userSpaceOnUse"
       gradientTransform="matrix(0,11,-11,0,11.999987,1.000015)"><stop
         stop-color="#F08C85"
         id="stop283" /><stop
         offset="1"
         stop-color="#E84F43"
         id="stop285"
         style="stop-color:#ff5555;stop-opacity:1;" /></radialGradient><linearGradient
       id="paint0_linear_3_200"
       x1="11.9997"
       y1="0.99970198"
       x2="12"
       y2="12"
       gradientUnits="userSpaceOnUse"
       gradientTransform="matrix(0.26457812,0,0,0.26457812,-32.76595,2.3596955)"><stop
         stop-color="#FFD996"
         id="stop44709" /><stop
         offset="1"
         stop-color="#FFB32B"
         id="stop44711" /></linearGradient><radialGradient
       id="paint0_radial_3_321"
       cx="0"
       cy="0"
       r="1"
       gradientUnits="userSpaceOnUse"
       gradientTransform="matrix(0,5.8207186,-5.8207186,0,8.4664984,5.9121786)"><stop
         stop-color="#555555"
         id="stop2702"
         offset="0"
         style="stop-color:#ffbfcb;stop-opacity:1;" /><stop
         offset="1"
         stop-color="#222222"
         id="stop2704"
         style="stop-color:#d86eb0;stop-opacity:1;" /></radialGradient><radialGradient
       fx="0"
       fy="0"
       cx="0"
       cy="0"
       r="1"
       gradientUnits="userSpaceOnUse"
       gradientTransform="matrix(0,16.5,-16.5,0,8.999995,0.750066)"
       spreadMethod="pad"
       id="radialGradient51088"><stop
         style="stop-opacity:1;stop-color:#ffbfcb"
         offset="0"
         id="stop51084" /><stop
         style="stop-opacity:1;stop-color:#d86eb0"
         offset="1"
         id="stop51086" /></radialGradient><clipPath
       clipPathUnits="userSpaceOnUse"
       id="clipPath51102"><path
         d="M 0,0 H 49 V 49 H 0 Z"
         id="path51100" /></clipPath><radialGradient
       fx="0"
       fy="0"
       cx="0"
       cy="0"
       r="1"
       gradientUnits="userSpaceOnUse"
       gradientTransform="matrix(0,16.5,-16.5,0,8.999995,0.750066)"
       spreadMethod="pad"
       id="radialGradient51088-0"><stop
         style="stop-opacity:1;stop-color:#ffbfcb"
         offset="0"
         id="stop51084-6" /><stop
         style="stop-opacity:1;stop-color:#d86eb0"
         offset="1"
         id="stop51086-2" /></radialGradient><clipPath
       clipPathUnits="userSpaceOnUse"
       id="clipPath51102-6"><path
         d="M 0,0 H 49 V 49 H 0 Z"
         id="path51100-1" /></clipPath></defs><sodipodi:namedview
     id="namedview45992"
     pagecolor="#ffffff"
     bordercolor="#000000"
     borderopacity="0.25"
     inkscape:showpageshadow="2"
     inkscape:pageopacity="0.0"
     inkscape:pagecheckerboard="0"
     inkscape:deskcolor="#d1d1d1"
     showgrid="false"
     inkscape:zoom="6.828125"
     inkscape:cx="22.700229"
     inkscape:cy="-0.073226545"
     inkscape:window-width="2560"
     inkscape:window-height="1000"
     inkscape:window-x="1680"
     inkscape:window-y="0"
     inkscape:window-maximized="1"
     inkscape:current-layer="svg45990" /><g
     id="g41197"
     transform="matrix(1.3333333,0,0,1.3333333,-4.5225532e-4,-3.504174e-5)"><g
       id="g41199"><g
         id="g41205"><path
           d="m 7.195,0.836 c 0.09,0 0.176,-0.012 0.258,-0.035 1.078,-0.071 2.156,-0.067 3.231,0.008 0.976,0.078 1.921,0.289 2.836,0.636 1.519,0.625 2.558,1.711 3.121,3.254 0.316,0.93 0.507,1.887 0.566,2.867 0.078,1.235 0.051,2.465 -0.086,3.696 -0.105,0.863 -0.328,1.691 -0.672,2.488 -0.637,1.383 -1.672,2.336 -3.101,2.859 C 12.191,17 11,17.207 9.773,17.227 8.398,17.301 7.035,17.195 5.684,16.918 3.203,16.367 1.668,14.852 1.09,12.375 0.844,11.262 0.73,10.133 0.754,8.992 0.727,7.781 0.855,6.582 1.141,5.402 1.75,3.09 3.219,1.656 5.547,1.102 6.09,0.969 6.641,0.879 7.195,0.836 Z"
           style="fill:url(#radialGradient41211-7);fill-rule:evenodd;stroke:none"
           id="path41213" /></g></g></g><path
     fill-rule="evenodd"
     clip-rule="evenodd"
     d="m 9.5960272,1.113605 c 0.11984,0.00127 0.23439,-0.01399 0.34365,-0.0458 1.4358098,-0.094054 2.8714098,-0.090239 4.3070098,0.01145 1.3017,0.10142 2.5618,0.38384 3.7802,0.84726 2.0256,0.83394 3.4117,2.2804 4.1581,4.3393597 0.4269,1.23963 0.6789,2.51435 0.7561,3.8241403 0.1067,1.6447 0.0685,3.2858 -0.1146,4.9233 -0.137,1.1509 -0.4349,2.2577 -0.8935,3.3203 -0.8506,1.8425 -2.229,3.1134 -4.1352,3.8127 -1.5447,0.5219 -3.1331,0.7967 -4.7653,0.8243 -1.8359,0.0955 -3.6533698,-0.0419 -5.4525298,-0.4121 -3.31158,-0.7377 -5.35438,-2.7567 -6.12839,-6.0568 -0.32847,-1.4856 -0.47738099,-2.9893 -0.44675,-4.5111 -0.03665,-1.6182 0.13517,-3.2135103 0.51548,-4.7858903 0.8114,-3.0856297 2.77019,-4.9976997 5.87638,-5.7361897 0.72379,-0.17695 1.45691,-0.29526 2.19935,-0.35493 z"
     fill="url(#paint0_radial_1_41)"
     id="path279"
     style="fill:url(#paint0_radial_1_41)" /><g
     id="g47235"
     transform="matrix(0.14325874,0,0,0.14325874,33.422502,5.186075)"><path
       id="ellipse46181"
       style="opacity:1;fill:#ffbbbb;fill-opacity:1;stroke:#000000;stroke-width:1;stroke-linecap:round;stroke-linejoin:round;stroke-dasharray:none;stroke-opacity:0.0472222;paint-order:stroke markers fill"
       d="m -149.53711,-4.2890625 a 47.576202,45.19437 0 0 0 -47.57617,45.1953125 47.576202,45.19437 0 0 0 1.31836,10.074219 h -0.10352 l 0.37305,1.179687 a 47.576202,45.19437 0 0 0 0.99805,3.15625 l 10.46484,33.123047 h 3.87109 l -9.91015,-31.367187 a 42.896278,40.74874 0 0 1 -0.90039,-2.845704 l -0.33594,-1.064453 h 0.0937 a 42.896278,40.74874 0 0 1 -1.18945,-9.083984 42.896278,40.74874 0 0 1 42.89648,-40.7480469 42.896278,40.74874 0 0 1 42.89649,40.7480469 42.896278,40.74874 0 0 1 -1.18946,9.083984 h 0.0918 l -0.38281,1.275391 a 42.896278,40.74874 0 0 1 -0.60547,2.005859 l -9.63672,31.996094 h 3.90234 l 10.1875,-33.820312 a 47.576202,45.19437 0 0 0 0.66992,-2.22461 l 0.42579,-1.414062 h -0.10157 a 47.576202,45.19437 0 0 0 1.31836,-10.074219 47.576202,45.19437 0 0 0 -47.57617,-45.1953125 z" /><path
       id="rect46305"
       style="opacity:1;fill:#ffbbbb;fill-opacity:1;stroke:#000000;stroke-width:1;stroke-linecap:round;stroke-linejoin:round;stroke-dasharray:none;stroke-opacity:0.0472222;paint-order:stroke markers fill"
       d="m -177.26091,60.852866 c -0.62467,0.167381 -1.06401,0.664074 -1.19509,1.252377 -0.19497,0.01645 -0.38987,0.04786 -0.58579,0.100352 l -4.80133,1.286512 c -1.77332,0.47516 -2.81882,2.286041 -2.34367,4.05936 l 7.87983,29.407911 c 0.47516,1.773324 2.28604,2.818846 4.05936,2.343685 l 4.80133,-1.286512 c 0.19594,-0.0525 0.37988,-0.124667 0.55698,-0.20784 0.40763,0.444825 1.03641,0.656478 1.66168,0.488936 0.8956,-0.239974 1.42355,-1.154418 1.18357,-2.050019 l -9.16736,-34.213069 c -0.23997,-0.895597 -1.15391,-1.421667 -2.04951,-1.181693 z m 4.98569,0.322155 c -1.36132,0.364767 -2.16241,1.755045 -1.79764,3.116378 l 7.72615,28.834393 c 0.36477,1.361327 1.75316,2.162918 3.11449,1.798151 l 3.06001,-0.819928 c 1.36133,-0.364767 2.16482,-1.75367 1.80005,-3.114997 l -7.72615,-28.834393 c -0.36477,-1.361332 -1.75556,-2.164299 -3.11689,-1.799532 z" /><path
       id="path46315"
       style="opacity:1;fill:#ffbbbb;fill-opacity:1;stroke:#000000;stroke-width:1;stroke-linecap:round;stroke-linejoin:round;stroke-dasharray:none;stroke-opacity:0.0472222;paint-order:stroke markers fill"
       d="m -121.13787,60.852866 c 0.62467,0.167381 1.06401,0.664074 1.19509,1.252377 0.19497,0.01645 0.38987,0.04786 0.58579,0.100352 l 4.80133,1.286512 c 1.77332,0.47516 2.81882,2.286041 2.34367,4.05936 l -7.87983,29.407911 c -0.47516,1.773324 -2.28604,2.818846 -4.05936,2.343685 l -4.80133,-1.286512 c -0.19594,-0.0525 -0.37988,-0.124667 -0.55698,-0.20784 -0.40763,0.444825 -1.03641,0.656478 -1.66168,0.488936 -0.8956,-0.239974 -1.42355,-1.154418 -1.18357,-2.050019 l 9.16736,-34.213069 c 0.23997,-0.895597 1.15391,-1.421667 2.04951,-1.181693 z m -4.98569,0.322155 c 1.36132,0.364767 2.16241,1.755045 1.79764,3.116378 l -7.72615,28.834393 c -0.36477,1.361327 -1.75316,2.162918 -3.11449,1.798151 l -3.06001,-0.819928 c -1.36133,-0.364767 -2.16482,-1.75367 -1.80005,-3.114997 l 7.72615,-28.834393 c 0.36477,-1.361332 1.75556,-2.164299 3.11689,-1.799532 z" /></g><path
     d="m 20.650214,4.1932982 c -2.348,0.066667 -4.864,1 -6.786666,3.3533333 -0.634667,0.776 -1.374667,1.573333 -2.186667,2.26 -2.172,-0.984 -3.750667,-2.2226667 -5.245333,-2.8066667 C 5.660881,6.6972982 4.832881,6.5266315 3.994215,6.4426315 c -0.213334,-0.412 -0.410667,-0.812 -0.604,-1.192 C 3.212881,4.9119649 3.020881,4.6146316 2.816881,4.3492982 2.707548,4.4999649 2.603548,4.6506316 2.510215,4.8119649 c 0.14,0.204 0.281333,0.4333333 0.410666,0.6826666 0.146667,0.2813334 0.292,0.588 0.453334,0.9013333 -0.541334,-0.021333 -1.082667,-0.010667 -1.625334,0.030667 -0.06133,0.1826667 -0.118666,0.3653333 -0.170666,0.5573333 0.333333,-0.030667 0.672,-0.052 1.005333,-0.057333 0.358667,-0.00533 0.722667,0 1.082667,0.026667 0.469333,0.8959999 1.021333,1.8333334 1.786666,2.6613334 0.849334,0.9266665 1.932,1.6093325 3.130667,1.9786665 -0.672,0.188 -1.36,0.256 -2.073333,0.161333 -2.177334,-0.296 -3.865334,-1.676 -4.964,-4.6666663 -0.01067,0.032 -0.02,0.068 -0.02533,0.1 -0.068,0.2653333 -0.125333,0.536 -0.177333,0.8066668 1.161333,2.6306665 2.921333,3.9893325 5.093333,4.2866665 0.136,0.02133 0.270667,0.03067 0.406667,0.036 0.932,0.05733 1.828,-0.14 2.666666,-0.5 0.473334,0.08933 0.973334,0.152 1.516,0.166666 1.328,0.032 2.676,-0.14 3.937334,-0.562666 1.088,0.214666 2.290666,0.333333 3.634666,0.308 1.552,-0.032 2.958667,-0.708 4.313333,-2.0266665 -0.02133,-0.224 -0.04267,-0.452 -0.07333,-0.676 -1.38,1.4519995 -2.74,2.1399995 -4.250666,2.1706665 -0.968,0.02133 -1.848,-0.04133 -2.670667,-0.156 1.337333,-0.62 2.530667,-1.5719995 3.421333,-2.9479995 h 0.0053 c 0.697333,-1.0106671 1.519999,-1.9893338 2.467999,-2.7133337 -0.07733,-0.1613334 -0.166666,-0.3226667 -0.26,-0.4786667 -1.041333,0.776 -1.921333,1.8386666 -2.650666,2.8959999 h -0.0053 v 0.00533 c -0.994667,1.5359995 -2.390667,2.514666 -3.953334,3.071999 -0.932,-0.192 -1.849333,-0.473333 -2.729333,-0.838667 0.745333,-0.6613325 1.432,-1.3799995 2.057333,-2.1559987 1.822667,-2.2346666 4.172,-3.0986666 6.390667,-3.1613333 0.265333,-0.00533 0.532,0 0.792,0.016 -0.12,-0.1879999 -0.245334,-0.3653333 -0.374667,-0.5413333 -0.146667,0 -0.286667,0 -0.428,0 z M 4.302215,7.0159648 c 0.670666,0.088 1.328,0.2386667 1.937333,0.4733333 1.322666,0.5160004 2.853333,1.7080004 4.978666,2.6986669 -0.208,0.161334 -0.416,0.317334 -0.634666,0.457334 -0.370667,0.245333 -0.756,0.453333 -1.146667,0.625333 -1.604,-0.328 -2.729333,-1.082667 -3.593333,-2.0200005 -0.636,-0.682667 -1.12,-1.4586667 -1.541333,-2.2346667 z m 7.462666,3.4160002 c 0.698667,0.297334 1.412,0.546667 2.141333,0.74 -0.933333,0.218667 -1.901333,0.301334 -2.865333,0.281334 -0.238667,-0.0053 -0.462667,-0.02667 -0.686667,-0.04667 0.176,-0.104 0.348,-0.209333 0.514667,-0.318667 0.308,-0.202666 0.604,-0.421333 0.896,-0.656 z"
     style="fill:#ffbbbb;fill-opacity:1;fill-rule:nonzero;stroke:none;stroke-width:1.33333;opacity:0.30749354"
     id="path51114" /></svg>
