<?xml version="1.0" encoding="UTF-8" standalone="no"?>
<svg
   width="24"
   height="24"
   version="1"
   id="svg26"
   sodipodi:docname="camera-photo.svg"
   xml:space="preserve"
   inkscape:version="1.2.2 (b0a8486541, 2022-12-01)"
   xmlns:inkscape="http://www.inkscape.org/namespaces/inkscape"
   xmlns:sodipodi="http://sodipodi.sourceforge.net/DTD/sodipodi-0.dtd"
   xmlns="http://www.w3.org/2000/svg"
   xmlns:svg="http://www.w3.org/2000/svg"><defs
     id="defs30"><radialGradient
       id="paint0_radial_29_23"
       cx="0"
       cy="0"
       r="1"
       gradientUnits="userSpaceOnUse"
       gradientTransform="matrix(0,22,-22,0,12,1)"><stop
         stop-color="#8FC8FF"
         id="stop327" /><stop
         offset="1"
         stop-color="#0056A8"
         id="stop329" /></radialGradient></defs><sodipodi:namedview
     id="namedview28"
     pagecolor="#ffffff"
     bordercolor="#000000"
     borderopacity="0.25"
     inkscape:showpageshadow="2"
     inkscape:pageopacity="0.0"
     inkscape:pagecheckerboard="0"
     inkscape:deskcolor="#d1d1d1"
     showgrid="false"
     inkscape:zoom="9.656427"
     inkscape:cx="16.103265"
     inkscape:cy="29.772917"
     inkscape:window-width="2560"
     inkscape:window-height="1000"
     inkscape:window-x="1680"
     inkscape:window-y="0"
     inkscape:window-maximized="1"
     inkscape:current-layer="svg26" /><g
     style="fill:none"
     id="g342"
     transform="translate(-1.2353586e-5,1.4866998e-5)"><path
       fill-rule="evenodd"
       clip-rule="evenodd"
       d="M 9.59604,1.11359 C 9.71588,1.11486 9.83043,1.0996 9.93969,1.06779 11.3755,0.973736 12.8111,0.977551 14.2467,1.07924 c 1.3017,0.10142 2.5618,0.38384 3.7802,0.84726 2.0256,0.83394 3.4117,2.28039 4.1581,4.33935 0.4269,1.23964 0.6789,2.51436 0.7561,3.82415 0.1067,1.6447 0.0685,3.2858 -0.1146,4.9233 -0.137,1.1509 -0.4349,2.2577 -0.8935,3.3203 -0.8506,1.8425 -2.229,3.1134 -4.1352,3.8127 -1.5447,0.5219 -3.1331,0.7967 -4.7653,0.8243 C 11.1966,23.0661 9.37913,22.9287 7.57997,22.5585 4.26839,21.8208 2.22559,19.8018 1.45158,16.5017 1.12311,15.0161 0.974199,13.5124 1.00483,11.9906 0.968176,10.3724 1.14,8.77709 1.52031,7.20471 2.33171,4.11908 4.2905,2.20701 7.39669,1.46852 8.12048,1.29157 8.8536,1.17326 9.59604,1.11359 Z"
       fill="url(#paint0_radial_29_23)"
       id="path325"
       style="fill:url(#paint0_radial_29_23)" /></g><circle
     cx="19.090908"
     cy="4.727273"
     r="0.72727269"
     fill="#333333"
     id="circle344"
     style="stroke-width:0.363636" /><circle
     cx="19.090908"
     cy="4.727273"
     r="0.36363634"
     fill="#ffffff"
     id="circle348"
     style="stroke-width:0.363636" /><g
     id="g6425"
     transform="translate(0.18181801,-0.36363602)"><circle
       cx="11.818182"
       cy="12.363636"
       r="7.6363635"
       fill="#f9f9f9"
       opacity="0.9"
       id="circle346"
       style="stroke-width:0.363636" /><path
       d="m 11.818546,6.5458186 c -3.2236366,0 -5.8185456,2.594909 -5.8185456,5.8178174 0,3.222909 2.594909,5.818182 5.8185456,5.818182 a 5.8054543,5.8054543 0 0 0 5.817818,-5.818182 c 0,-3.223272 -2.594909,-5.818181 -5.817818,-5.818181 z"
       fill="#ffffff"
       opacity="0.75"
       id="path352"
       style="stroke-width:0.207636" /><ellipse
       cx="11.818182"
       cy="12.363999"
       rx="3.7403636"
       ry="3.7399998"
       opacity="0.65"
       id="ellipse354"
       style="fill:#0b1014;fill-opacity:1;stroke-width:0.207636" /><circle
       transform="scale(1,-1)"
       cx="11.818182"
       cy="-12.363999"
       fill="#ffffff"
       opacity="0.35"
       r="2.9090908"
       id="circle356"
       style="fill:#2d3e50;fill-opacity:1;stroke-width:0.207636" /><circle
       cx="11.818182"
       cy="12.363999"
       opacity="0.75"
       r="1.6625454"
       id="circle358"
       style="stroke-width:0.207636" /><circle
       cx="10.521852"
       cy="11.019237"
       r="0.8618682"
       fill="#ffffff"
       opacity="0.35"
       id="circle360"
       style="fill:#ffffff;stroke-width:0.399777" /><circle
       cx="11.818182"
       cy="12.363999"
       opacity="0.75"
       r="0.78230268"
       id="circle945"
       style="fill:#2891ca;fill-opacity:1;stroke-width:0.0977021" /></g></svg>
