<?xml version="1.0" encoding="UTF-8" standalone="no"?>
<svg
   width="24"
   height="24"
   version="1"
   id="svg17"
   sodipodi:docname="input-dialpad.svg"
   inkscape:version="1.3 (0e150ed6c4, 2023-07-21)"
   xmlns:inkscape="http://www.inkscape.org/namespaces/inkscape"
   xmlns:sodipodi="http://sodipodi.sourceforge.net/DTD/sodipodi-0.dtd"
   xmlns:xlink="http://www.w3.org/1999/xlink"
   xmlns="http://www.w3.org/2000/svg"
   xmlns:svg="http://www.w3.org/2000/svg">
  <sodipodi:namedview
     id="namedview17"
     pagecolor="#ffffff"
     bordercolor="#000000"
     borderopacity="0.25"
     inkscape:showpageshadow="2"
     inkscape:pageopacity="0.0"
     inkscape:pagecheckerboard="0"
     inkscape:deskcolor="#d1d1d1"
     inkscape:zoom="17.920737"
     inkscape:cx="8.0632842"
     inkscape:cy="14.592033"
     inkscape:window-width="1280"
     inkscape:window-height="998"
     inkscape:window-x="0"
     inkscape:window-y="0"
     inkscape:window-maximized="0"
     inkscape:current-layer="svg17" />
  <defs
     id="defs4">
    <linearGradient
       id="a"
       x1="29.049"
       x2="29.049"
       y1="3.457"
       y2="40.296001"
       gradientTransform="matrix(0.30603292,0,0,0.27935327,19.732592,3.3576637)"
       gradientUnits="userSpaceOnUse">
      <stop
         stop-color="#4285db"
         offset="0"
         id="stop1" />
      <stop
         stop-color="#42b9db"
         offset="1"
         id="stop2" />
    </linearGradient>
    <linearGradient
       id="b"
       x1="31.815001"
       x2="31.815001"
       y1="56.585999"
       y2="-1.586"
       gradientUnits="userSpaceOnUse">
      <stop
         stop-color="#fff"
         offset="0"
         id="stop3" />
      <stop
         stop-color="#fff"
         stop-opacity="0"
         offset="1"
         id="stop4" />
    </linearGradient>
    <linearGradient
       id="paint0_linear_3_29"
       x1="12"
       y1="0"
       x2="12"
       y2="12"
       gradientUnits="userSpaceOnUse"
       gradientTransform="matrix(0.91666681,0,0,0.91666681,0.99999433,0.99999836)">
      <stop
         stop-color="white"
         id="stop36440" />
      <stop
         offset="1"
         stop-color="#D9D9D9"
         id="stop36442" />
    </linearGradient>
    <linearGradient
       inkscape:collect="always"
       xlink:href="#b"
       id="linearGradient27"
       gradientUnits="userSpaceOnUse"
       x1="31.815001"
       y1="56.585999"
       x2="31.815001"
       y2="-1.586" />
    <linearGradient
       inkscape:collect="always"
       xlink:href="#b"
       id="linearGradient28"
       gradientUnits="userSpaceOnUse"
       x1="31.815001"
       y1="56.585999"
       x2="31.815001"
       y2="-1.586" />
    <linearGradient
       inkscape:collect="always"
       xlink:href="#b"
       id="linearGradient29"
       gradientUnits="userSpaceOnUse"
       x1="31.815001"
       y1="56.585999"
       x2="31.815001"
       y2="-1.586" />
    <linearGradient
       inkscape:collect="always"
       xlink:href="#b"
       id="linearGradient30"
       gradientUnits="userSpaceOnUse"
       x1="31.815001"
       y1="56.585999"
       x2="31.815001"
       y2="-1.586" />
    <linearGradient
       inkscape:collect="always"
       xlink:href="#b"
       id="linearGradient31"
       gradientUnits="userSpaceOnUse"
       x1="31.815001"
       y1="56.585999"
       x2="31.815001"
       y2="-1.586" />
    <linearGradient
       inkscape:collect="always"
       xlink:href="#b"
       id="linearGradient32"
       gradientUnits="userSpaceOnUse"
       x1="31.815001"
       y1="56.585999"
       x2="31.815001"
       y2="-1.586" />
    <linearGradient
       inkscape:collect="always"
       xlink:href="#b"
       id="linearGradient33"
       gradientUnits="userSpaceOnUse"
       x1="31.815001"
       y1="56.585999"
       x2="31.815001"
       y2="-1.586" />
    <linearGradient
       inkscape:collect="always"
       xlink:href="#b"
       id="linearGradient34"
       gradientUnits="userSpaceOnUse"
       x1="31.815001"
       y1="56.585999"
       x2="31.815001"
       y2="-1.586" />
    <linearGradient
       inkscape:collect="always"
       xlink:href="#b"
       id="linearGradient35"
       gradientUnits="userSpaceOnUse"
       x1="31.815001"
       y1="56.585999"
       x2="31.815001"
       y2="-1.586" />
    <linearGradient
       inkscape:collect="always"
       xlink:href="#b"
       id="linearGradient36"
       gradientUnits="userSpaceOnUse"
       x1="31.815001"
       y1="56.585999"
       x2="31.815001"
       y2="-1.586" />
    <linearGradient
       inkscape:collect="always"
       xlink:href="#b"
       id="linearGradient37"
       gradientUnits="userSpaceOnUse"
       x1="31.815001"
       y1="56.585999"
       x2="31.815001"
       y2="-1.586" />
  </defs>
  <path
     fill-rule="evenodd"
     clip-rule="evenodd"
     d="m 9.5960374,1.1135864 c 0.119845,0.00128 0.2343917,-0.013988 0.3436492,-0.045797 1.4357844,-0.0940546 2.8714674,-0.0902367 4.3070594,0.011449 1.301667,0.1014218 2.561721,0.3838441 3.780154,0.8472623 2.025651,0.8339376 3.411651,2.280392 4.158093,4.339354 0.426891,1.239636 0.678975,2.514352 0.756066,3.8241223 0.1067,1.644739 0.06857,3.285847 -0.114583,4.923288 -0.137042,1.150876 -0.434867,2.25766 -0.893475,3.320352 -0.850575,1.8425 -2.228967,3.113367 -4.135176,3.812691 -1.544679,0.52195 -3.133171,0.796675 -4.765296,0.824359 -1.8359,0.09542 -3.6534025,-0.04198 -5.4525628,-0.412224 C 4.2683882,21.820801 2.2255779,19.801842 1.4515719,16.501659 1.1231082,15.016108 0.97419382,13.512408 1.0048288,11.990557 0.96817132,10.372366 1.139995,8.7770905 1.5203008,7.2047145 2.3317096,4.1190765 4.2904982,2.2070104 7.3966879,1.4685216 8.1204788,1.2915701 8.8535923,1.1732577 9.5960374,1.1135864 Z"
     fill="url(#paint0_linear_3_29)"
     id="path36350"
     style="fill:url(#paint0_linear_3_29);stroke-width:0.916667" />
  <g
     id="g37"
     transform="matrix(0.96741129,0,0,1,-16.614986,-0.34151448)">
    <rect
       x="24.395321"
       width="10.261406"
       height="17.282368"
       rx="1.3501849"
       ry="1.3501849"
       fill="#4d4d4d"
       style="stroke-width:0.270037;paint-order:stroke fill markers"
       id="rect4"
       y="3.6555145" />
    <rect
       x="24.935394"
       y="4.1955886"
       width="9.1812572"
       height="16.202219"
       rx="0.81011099"
       ry="0.81011099"
       fill="url(#a)"
       style="fill:url(#a);stroke-width:0.270037;paint-order:stroke fill markers"
       id="rect5" />
    <rect
       x="31.416283"
       y="15.537143"
       width="2.160296"
       height="2.160296"
       rx="0.270037"
       ry="0.270037"
       fill="#ffffff"
       opacity="0.35"
       id="rect6"
       style="stroke-width:0.270037" />
    <rect
       x="25.475468"
       y="15.537143"
       width="2.160296"
       height="2.160296"
       rx="0.270037"
       ry="0.270037"
       fill="#ffffff"
       opacity="0.35"
       id="rect7"
       style="stroke-width:0.270037" />
    <g
       fill="url(#b)"
       id="g17"
       style="fill:url(#linearGradient27)"
       transform="matrix(0.27003699,0,0,0.27003699,20.88484,3.6555144)">
      <rect
         x="28"
         y="22"
         width="8"
         height="8"
         rx="1"
         ry="1"
         id="rect8"
         style="fill:url(#linearGradient28)" />
      <rect
         x="39"
         y="22"
         width="8"
         height="8"
         rx="1"
         ry="1"
         id="rect9"
         style="fill:url(#linearGradient29)" />
      <rect
         x="17"
         y="22"
         width="8"
         height="8"
         rx="1"
         ry="1"
         id="rect10"
         style="fill:url(#linearGradient30)" />
      <rect
         x="28"
         y="33"
         width="8"
         height="8"
         rx="1"
         ry="1"
         id="rect11"
         style="fill:url(#linearGradient31)" />
      <rect
         x="39"
         y="33"
         width="8"
         height="8"
         rx="1"
         ry="1"
         id="rect12"
         style="fill:url(#linearGradient32)" />
      <rect
         x="17"
         y="33"
         width="8"
         height="8"
         rx="1"
         ry="1"
         id="rect13"
         style="fill:url(#linearGradient33)" />
      <rect
         x="28"
         y="11"
         width="8"
         height="8"
         rx="1"
         ry="1"
         id="rect14"
         style="fill:url(#linearGradient34)" />
      <rect
         x="39"
         y="11"
         width="8"
         height="8"
         rx="1"
         ry="1"
         id="rect15"
         style="fill:url(#linearGradient35)" />
      <rect
         x="17"
         y="11"
         width="8"
         height="8"
         rx="1"
         ry="1"
         id="rect16"
         style="fill:url(#linearGradient36)" />
      <rect
         x="28"
         y="44"
         width="8"
         height="8"
         rx="1"
         ry="1"
         id="rect17"
         style="fill:url(#linearGradient37)" />
    </g>
  </g>
</svg>
