<?xml version="1.0" encoding="UTF-8" standalone="no"?>
<svg
   xml:space="preserve"
   width="24"
   height="24"
   version="1"
   id="svg4"
   sodipodi:docname="gnome-dev-disc-dvdram.svg"
   inkscape:version="1.3 (0e150ed6c4, 2023-07-21)"
   xmlns:inkscape="http://www.inkscape.org/namespaces/inkscape"
   xmlns:sodipodi="http://sodipodi.sourceforge.net/DTD/sodipodi-0.dtd"
   xmlns:xlink="http://www.w3.org/1999/xlink"
   xmlns="http://www.w3.org/2000/svg"
   xmlns:svg="http://www.w3.org/2000/svg"><sodipodi:namedview
     id="namedview4"
     pagecolor="#ffffff"
     bordercolor="#000000"
     borderopacity="0.25"
     inkscape:showpageshadow="2"
     inkscape:pageopacity="0.0"
     inkscape:pagecheckerboard="0"
     inkscape:deskcolor="#d1d1d1"
     inkscape:zoom="24.020833"
     inkscape:cx="8.5134432"
     inkscape:cy="12.17693"
     inkscape:window-width="3440"
     inkscape:window-height="1358"
     inkscape:window-x="2560"
     inkscape:window-y="0"
     inkscape:window-maximized="1"
     inkscape:current-layer="svg4" /><defs
     id="defs2"><radialGradient
       id="a"
       cx="0"
       cy="0"
       r="1"
       fx="0"
       fy="0"
       gradientTransform="matrix(0 16.5 -16.5 0 9 .75)"
       gradientUnits="userSpaceOnUse"
       spreadMethod="pad"><stop
         offset="0"
         style="stop-opacity:1;stop-color:#a4a4a4"
         id="stop1" /><stop
         offset="1"
         style="stop-opacity:1;stop-color:#626262"
         id="stop2" /></radialGradient><radialGradient
       inkscape:collect="always"
       xlink:href="#a"
       id="radialGradient4"
       gradientUnits="userSpaceOnUse"
       gradientTransform="matrix(0,21.999945,-21.999945,0,11.99997,0.9999975)"
       cx="0"
       cy="0"
       fx="0"
       fy="0"
       r="1"
       spreadMethod="pad" /></defs><use
     xlink:href="#a"
     width="100%"
     height="100%"
     fill="#fff"
     fill-rule="evenodd"
     opacity=".5"
     transform="matrix(1.6 0 0 1.6 32 17)"
     id="use2" /><path
     d="m 9.5933094,1.1146639 c 0.1199997,0 0.234666,-0.016 0.3439991,-0.046667 a 31.813254,31.813254 0 0 1 4.3079895,0.010667 13.679966,13.679966 0 0 1 3.781324,0.8479978 c 2.025328,0.8333313 3.410658,2.2813277 4.161323,4.3386559 0.421332,1.2399969 0.675998,2.5159937 0.754664,3.8226574 a 28.302596,28.302596 0 0 1 -0.114666,4.927987 11.96797,11.96797 0 0 1 -0.895998,3.317325 c -0.849331,1.843996 -2.229328,3.114659 -4.134656,3.811991 A 15.590628,15.590628 0 0 1 13.030634,22.969276 21.330613,21.330613 0 0 1 7.5786477,22.557277 C 4.270656,21.822612 2.2239944,19.802617 1.4533297,16.499959 A 18.991953,18.991953 0 0 1 1.0053308,11.989303 C 0.96933091,10.369307 1.1399971,8.7759781 1.5213295,7.2026487 2.3333275,4.1199897 4.2919893,2.2079945 7.3959815,1.4693297 A 13.693299,13.693299 0 0 1 9.5933094,1.1146639 Z"
     style="fill:url(#radialGradient4);fill-rule:evenodd;stroke:none;stroke-width:1.33333"
     id="path2" /><g
     id="g5"
     transform="translate(-29.000025,-2.0000251)"><path
       fill="#ffffff"
       d="m 49.000025,14.000025 a 7.98,7.98 0 0 0 -8,-7.9999999 7.98,7.98 0 0 0 -8,7.9999999 7.98,7.98 0 0 0 8,8 7.98,7.98 0 0 0 8,-8 z m -5.074,0 a 2.913,2.913 0 0 1 -2.926,2.928 2.913,2.913 0 0 1 -2.93,-2.928 c 0,-1.61 1.188,-2.926 2.928,-2.926 1.74,0 2.928,1.348 2.928,2.926 z"
       opacity="0.75"
       id="path1" /><path
       fill="#ffffff"
       d="m 41.000025,9.9980251 a 4.0025,4.0025 0 1 0 0,8.0049999 4.0025,4.0025 0 0 0 0,-8.0049999 z m 0,1.9999999 a 2.002,2.002 0 1 1 0,4.004 2.0020006,2.0020006 0 0 1 -0.003,-4.004 z"
       opacity="0.35"
       id="path2-3" /></g><g
     fill="#fff"
     style="fill:none"
     id="g4"><path
       d="M19.355 12A7.336 7.336 0 0 0 12 4.645 7.337 7.337 0 0 0 4.645 12 7.337 7.337 0 0 0 12 19.355 7.337 7.337 0 0 0 19.355 12zm-4.665 0A2.678 2.678 0 0 1 12 14.692 2.679 2.679 0 0 1 9.307 12c0-1.48 1.091-2.69 2.692-2.69 1.6 0 2.691 1.24 2.691 2.69z"
       opacity=".75"
       id="path3" /><path
       d="M12 8.32A3.68 3.68 0 1 0 12 15.68 3.68 3.68 0 0 0 12 8.32zm0 1.84a1.841 1.841 0 1 1 0 3.681 1.841 1.841 0 0 1-.002-3.682z"
       opacity=".35"
       id="path4" /></g></svg>
