<?xml version="1.0" encoding="UTF-8" standalone="no"?>
<svg
   width="24"
   height="24"
   version="1"
   id="svg6"
   sodipodi:docname="nm-device-wired.svg"
   inkscape:version="1.3 (0e150ed6c4, 2023-07-21)"
   xmlns:inkscape="http://www.inkscape.org/namespaces/inkscape"
   xmlns:sodipodi="http://sodipodi.sourceforge.net/DTD/sodipodi-0.dtd"
   xmlns="http://www.w3.org/2000/svg"
   xmlns:svg="http://www.w3.org/2000/svg">
  <sodipodi:namedview
     id="namedview6"
     pagecolor="#ffffff"
     bordercolor="#000000"
     borderopacity="0.25"
     inkscape:showpageshadow="2"
     inkscape:pageopacity="0.0"
     inkscape:pagecheckerboard="0"
     inkscape:deskcolor="#d1d1d1"
     inkscape:zoom="17.920737"
     inkscape:cx="14.815239"
     inkscape:cy="18.107514"
     inkscape:window-width="2560"
     inkscape:window-height="998"
     inkscape:window-x="0"
     inkscape:window-y="0"
     inkscape:window-maximized="1"
     inkscape:current-layer="svg6" />
  <defs
     id="defs1">
    <clipPath
       id="a">
      <path
         d="m 29.231,34 c -0.681,0 -1.23,0.566 -1.23,1.272 v 22.455 c 0,0.705 0.549,1.27 1.23,1.273 h 4.77 l 2.615,3 h 14.77 L 54,59 h 4.77 C 59.45,59 60,58.431 60,57.727 V 35.272 C 60,34.567 59.45,34 58.77,34 Z"
         fill="#f9f9f9"
         id="path1" />
    </clipPath>
    <filter
       id="b"
       x="-0.12342858"
       y="-0.096000004"
       width="1.2468572"
       height="1.192"
       color-interpolation-filters="sRGB">
      <feGaussianBlur
         stdDeviation="2.16"
         id="feGaussianBlur1" />
    </filter>
    <radialGradient
       id="paint0_radial_1_33"
       cx="0"
       cy="0"
       r="1"
       gradientUnits="userSpaceOnUse"
       gradientTransform="matrix(0,11,-11,0,12,1)">
      <stop
         stop-color="#6EBBF7"
         id="stop5758" />
      <stop
         offset="1"
         stop-color="#2196F3"
         id="stop5760" />
    </radialGradient>
    <linearGradient
       id="a-7"
       x1="1"
       x2="47"
       gradientTransform="matrix(0,-0.3501678,0.3501678,0,9.5929137,27.974637)"
       gradientUnits="userSpaceOnUse">
      <stop
         stop-color="#015093"
         offset="0"
         id="stop5897-9" />
      <stop
         stop-color="#015ca7"
         offset="1"
         id="stop5899-2" />
    </linearGradient>
  </defs>
  <path
     fill-rule="evenodd"
     clip-rule="evenodd"
     d="M 9.59604,1.11359 C 9.71588,1.11486 9.83043,1.0996 9.93969,1.06779 11.3755,0.973736 12.8111,0.977551 14.2467,1.07924 c 1.3017,0.10142 2.5618,0.38384 3.7802,0.84726 2.0256,0.83394 3.4117,2.2804 4.1581,4.33936 0.4269,1.23963 0.6789,2.51435 0.7561,3.82414 0.1067,1.6447 0.0685,3.2858 -0.1146,4.9233 -0.137,1.1509 -0.4349,2.2577 -0.8935,3.3203 -0.8506,1.8425 -2.229,3.1134 -4.1352,3.8127 -1.5447,0.5219 -3.1331,0.7967 -4.7653,0.8243 C 11.1966,23.0661 9.37913,22.9287 7.57997,22.5585 4.26839,21.8208 2.22559,19.8018 1.45158,16.5017 1.12311,15.0161 0.974199,13.5124 1.00483,11.9906 0.968176,10.3724 1.14,8.77709 1.52031,7.20471 2.33171,4.11908 4.2905,2.20701 7.39669,1.46852 8.12048,1.29157 8.8536,1.17326 9.59604,1.11359 Z"
     fill="url(#paint0_radial_1_33)"
     id="path5741"
     style="fill:url(#paint0_radial_1_33)" />
  <g
     id="g11"
     transform="translate(-36.762744,3.850288)">
    <rect
       x="43.994705"
       y="2.2860587"
       width="9.5360775"
       height="0.79467309"
       rx="0.39733654"
       ry="0.39733654"
       fill="#ffffff"
       opacity="0.35"
       style="stroke-width:0.397337;paint-order:stroke fill markers"
       id="rect9" />
    <rect
       x="45.186714"
       y="3.8754046"
       width="7.1520576"
       height="0.79467309"
       rx="0.39733654"
       ry="0.39733654"
       fill="#ffffff"
       opacity="0.35"
       style="stroke-width:0.397337;paint-order:stroke fill markers"
       id="rect10" />
    <rect
       x="46.378723"
       y="5.4647503"
       width="4.7680387"
       height="0.79467309"
       rx="0.39733654"
       ry="0.39733654"
       fill="#ffffff"
       opacity="0.35"
       style="stroke-width:0.397337;paint-order:stroke fill markers"
       id="rect11" />
  </g>
  <path
     id="circle11857"
     style="fill:#bfd6ef;fill-opacity:1;fill-rule:evenodd;stroke-width:0.472223;paint-order:fill markers stroke"
     d="m 18.464186,11.411114 a 8.4999999,8.4999999 0 0 0 -8.5000001,8.500001 8.4999999,8.4999999 0 0 0 0.5664061,3.048828 c 0.834373,0.0542 1.673515,0.05939 2.515625,0.01561 1.632125,-0.02767 3.218996,-0.302269 4.763671,-0.824219 1.906208,-0.699323 3.286171,-1.970004 4.136721,-3.8125 0.458606,-1.06269 0.755528,-2.169437 0.892576,-3.320312 0.08549,-0.764137 0.137842,-1.529192 0.160142,-2.294922 a 8.4999999,8.4999999 0 0 0 -4.535141,-1.312486 z" />
  <path
     id="path17"
     style="fill:#f9f9f9;fill-opacity:1;fill-rule:evenodd;stroke-width:0.472223;paint-order:fill markers stroke"
     d="m 14.103516,15.583984 c -0.180453,0 -0.324219,0.14886 -0.324219,0.335938 v 5.951172 c 0,0.186813 0.143766,0.337096 0.324219,0.33789 h 1.265625 l 0.416015,0.476563 c 0.682839,-0.133166 1.358527,-0.309821 2.025391,-0.535156 1.906206,-0.699323 3.286169,-1.970006 4.136719,-3.8125 0.113829,-0.263769 0.216611,-0.529631 0.310546,-0.798829 v -1.61914 c 0,-0.186813 -0.145984,-0.335938 -0.326171,-0.335938 z" />
  <path
     id="path13"
     style="fill:#ffffff;fill-opacity:1;fill-rule:evenodd;stroke-width:0.472223;paint-order:fill markers stroke"
     d="m 14.837891,16.642578 v 4.50586 h 1.324218 l 0.53125,0.794921 h 1.625 c 1.185885,-0.526615 2.145965,-1.297137 2.878907,-2.314453 v -2.986328 z" />
  <path
     d="m 15.632951,17.438418 h 0.79495 v -0.79495 h -0.79495 z m 1.324916,0 h 0.794949 v -0.79495 h -0.794949 z m 1.324916,0 h 0.794951 v -0.79495 h -0.794951 z m 1.324918,0 h 0.794949 v -0.79495 h -0.794949 z"
     fill="#ffdd55"
     id="path16"
     style="stroke-width:0.264983" />
</svg>
