<?xml version="1.0" encoding="UTF-8" standalone="no"?>
<svg
   width="24"
   height="24"
   version="1"
   id="svg40721"
   sodipodi:docname="network-card.svg"
   inkscape:version="1.2.2 (b0a8486541, 2022-12-01)"
   inkscape:export-filename="network-card.pdf"
   inkscape:export-xdpi="96"
   inkscape:export-ydpi="96"
   xml:space="preserve"
   xmlns:inkscape="http://www.inkscape.org/namespaces/inkscape"
   xmlns:sodipodi="http://sodipodi.sourceforge.net/DTD/sodipodi-0.dtd"
   xmlns="http://www.w3.org/2000/svg"
   xmlns:svg="http://www.w3.org/2000/svg"><defs
     id="defs40725"><radialGradient
       fx="0"
       fy="0"
       cx="0"
       cy="0"
       r="1"
       gradientUnits="userSpaceOnUse"
       gradientTransform="matrix(0,16.500002,-16.500002,0,8.999998,0.749999)"
       spreadMethod="pad"
       id="radialGradient12763-3"><stop
         style="stop-opacity:1;stop-color:#a4a4a4"
         offset="0"
         id="stop12759-6" /><stop
         style="stop-opacity:1;stop-color:#626262"
         offset="1"
         id="stop12761-7" /></radialGradient><radialGradient
       fx="0"
       fy="0"
       cx="0"
       cy="0"
       r="1"
       gradientUnits="userSpaceOnUse"
       gradientTransform="matrix(0,16.500002,-16.500002,0,8.999659,0.749973)"
       spreadMethod="pad"
       id="radialGradient42638"><stop
         style="stop-opacity:1;stop-color:#a4a4a4"
         offset="0"
         id="stop42634" /><stop
         style="stop-opacity:1;stop-color:#626262"
         offset="1"
         id="stop42636" /></radialGradient><radialGradient
       fx="0"
       fy="0"
       cx="0"
       cy="0"
       r="1"
       gradientUnits="userSpaceOnUse"
       gradientTransform="matrix(0,16.500002,-16.500002,0,8.999659,0.749973)"
       spreadMethod="pad"
       id="radialGradient42638-7"><stop
         style="stop-opacity:1;stop-color:#a4a4a4"
         offset="0"
         id="stop42634-2" /><stop
         style="stop-opacity:1;stop-color:#626262"
         offset="1"
         id="stop42636-2" /></radialGradient></defs><sodipodi:namedview
     id="namedview40723"
     pagecolor="#ffffff"
     bordercolor="#000000"
     borderopacity="0.25"
     inkscape:showpageshadow="2"
     inkscape:pageopacity="0.0"
     inkscape:pagecheckerboard="0"
     inkscape:deskcolor="#d1d1d1"
     showgrid="false"
     inkscape:zoom="4.8282135"
     inkscape:cx="-57.785349"
     inkscape:cy="10.666471"
     inkscape:window-width="2560"
     inkscape:window-height="1000"
     inkscape:window-x="1680"
     inkscape:window-y="0"
     inkscape:window-maximized="1"
     inkscape:current-layer="svg40721" /><g
     id="g42622"
     transform="matrix(1.3333333,0,0,1.3333333,-4.5225532e-4,-3.504174e-5)"><g
       id="g42624"><g
         id="g42626"><g
           id="g42632"><path
             d="m 7.195,0.836 c 0.09,0 0.176,-0.012 0.258,-0.035 1.078,-0.071 2.156,-0.067 3.231,0.008 0.976,0.078 1.921,0.289 2.836,0.636 1.519,0.625 2.558,1.711 3.121,3.254 0.316,0.93 0.507,1.887 0.566,2.867 0.078,1.235 0.051,2.465 -0.086,3.696 -0.105,0.863 -0.328,1.691 -0.672,2.488 -0.637,1.383 -1.672,2.336 -3.101,2.859 C 12.191,17 11,17.207 9.773,17.227 8.398,17.301 7.035,17.195 5.684,16.918 3.203,16.367 1.668,14.852 1.09,12.375 0.844,11.262 0.73,10.133 0.754,8.992 0.727,7.777 0.855,6.582 1.141,5.402 1.75,3.09 3.219,1.656 5.547,1.102 6.09,0.969 6.641,0.879 7.195,0.836 Z"
             style="fill:url(#radialGradient42638-7);fill-rule:evenodd;stroke:none"
             id="path42640" /></g></g></g><path
       d="m 4.051,5.566 v 6.856 h 2.625 v -0.777 h 1.972 v 0.777 h 5.977 V 5.566 Z"
       style="fill:#f2f2f2;fill-opacity:1;fill-rule:nonzero;stroke:none"
       id="path42642" /><path
       d="m 5.09,5.57 c -0.633,0 -1.145,0.512 -1.145,1.145 v 4.57 c 0,0.633 0.512,1.145 1.145,1.145 h 1.523 v -0.575 c 0,-0.21 0.168,-0.378 0.379,-0.378 h 1.336 c 0.211,0 0.379,0.168 0.379,0.378 v 0.575 h 4.762 c 0.633,0 1.144,-0.512 1.144,-1.145 v -4.57 c 0,-0.633 -0.511,-1.145 -1.144,-1.145 z"
       style="fill:#f2f2f2;fill-opacity:1;fill-rule:nonzero;stroke:none"
       id="path42644" /><path
       d="M 5.223,5.57 C 5.176,5.602 5.129,5.637 5.086,5.672 V 7.668 L 4.707,8.047 H 3.945 V 8.43 H 4.707 L 5.277,9 h 7.239 l 1.332,-1.523 h 0.761 V 7.285 H 13.848 L 14.23,6.906 h 0.383 V 6.715 c 0,-0.168 -0.039,-0.328 -0.101,-0.473 L 14.23,6.523 h -0.378 v -0.57 l 0.16,-0.246 C 13.902,5.648 13.785,5.609 13.66,5.59 v 1.144 l -1.336,1.504 h -0.57 L 13.277,6.523 V 5.57 Z m 1.386,4 -1.902,1.524 H 3.945 v 0.191 c 0,0.133 0.024,0.262 0.067,0.383 h 0.695 v -0.004 l 1.141,-0.758 v 0.379 l -1.141,0.762 v 0.316 c 0.121,0.039 0.25,0.067 0.383,0.067 v -0.192 l 0.379,-0.191 v 0.383 h 1.14 v -0.953 l 1.145,-0.954 h 0.57 l -1.14,0.954 h 1.144 c 0.211,0 0.379,0.168 0.379,0.378 v 0.575 h 4.762 c 0.511,0 0.961,-0.34 1.101,-0.832 L 13.277,9.953 H 12.895 L 12.516,9.57 Z"
       style="fill:#c0c0c0;fill-opacity:1;fill-rule:nonzero;stroke:none"
       id="path42646" /><path
       d="m 3.758,4.43 c 0.211,0 0.379,0.172 0.379,0.386 v 8.368 c 0,0.214 -0.168,0.386 -0.379,0.386 -0.215,0 -0.383,-0.172 -0.383,-0.386 V 4.816 C 3.375,4.602 3.543,4.43 3.758,4.43 Z"
       style="fill:#4d4d4d;fill-opacity:1;fill-rule:nonzero;stroke:none"
       id="path42648" /><path
       d="m 11.184,6.906 v 0.762 h 0.382 V 6.906 Z m 0.57,0 v 0.762 h 0.383 V 6.906 Z m 0.574,0 v 0.762 h 0.379 V 6.906 Z M 10.23,7.855 v 0.383 h 0.762 V 7.855 Z m 2.668,0 V 8.238 H 13.66 V 7.855 Z M 10.23,8.43 v 0.379 h 0.762 V 8.43 Z m 2.668,0 V 8.809 H 13.66 V 8.43 Z M 10.23,9 v 0.383 h 0.762 V 9 Z m 2.668,0 V 9.383 H 13.66 V 9 Z m -1.714,0.57 v 0.762 h 0.382 V 9.57 Z m 0.57,0 v 0.762 h 0.383 V 9.57 Z m 0.574,0 v 0.762 h 0.379 V 9.57 Z"
       style="fill:#f8c44e;fill-opacity:1;fill-rule:nonzero;stroke:none"
       id="path42650" /><path
       d="m 11.184,7.285 h 1.523 c 0.316,0 0.574,0.254 0.574,0.57 v 1.528 c 0,0.316 -0.258,0.57 -0.574,0.57 h -1.523 c -0.317,0 -0.571,-0.254 -0.571,-0.57 V 7.855 c 0,-0.316 0.254,-0.57 0.571,-0.57 z"
       style="fill:#4d4d4d;fill-opacity:1;fill-rule:nonzero;stroke:none"
       id="path42652" /><path
       d="M 9.469,11.477 H 10.23 V 13 H 9.469 Z m 1.144,0 h 0.762 V 13 h -0.762 z m 1.141,0 h 0.762 V 13 h -0.762 z m 1.144,0 H 13.66 V 13 h -0.762 z"
       style="fill:#f8c44e;fill-opacity:1;fill-rule:nonzero;stroke:none"
       id="path42654" /><path
       d="m 14.043,6.43 c 0,0.156 -0.129,0.285 -0.289,0.285 -0.156,0 -0.285,-0.129 -0.285,-0.285 0,-0.16 0.129,-0.285 0.285,-0.285 0.16,0 0.289,0.125 0.289,0.285 z"
       style="fill:#fbc02d;fill-opacity:1;fill-rule:nonzero;stroke:none"
       id="path42656" /><path
       d="m 13.852,6.43 c 0,0.05 -0.043,0.093 -0.098,0.093 -0.051,0 -0.094,-0.043 -0.094,-0.093 0,-0.055 0.043,-0.098 0.094,-0.098 0.055,0 0.098,0.043 0.098,0.098 z"
       style="fill:#263238;fill-opacity:1;fill-rule:nonzero;stroke:none"
       id="path42658" /><path
       d="M 5.09,6.43 C 5.09,6.586 4.961,6.715 4.805,6.715 4.645,6.715 4.52,6.586 4.52,6.43 4.52,6.27 4.645,6.145 4.805,6.145 4.961,6.145 5.09,6.27 5.09,6.43 Z"
       style="fill:#fbc02d;fill-opacity:1;fill-rule:nonzero;stroke:none"
       id="path42660" /><path
       d="m 4.898,6.43 c 0,0.05 -0.043,0.093 -0.093,0.093 -0.055,0 -0.098,-0.043 -0.098,-0.093 0,-0.055 0.043,-0.098 0.098,-0.098 0.05,0 0.093,0.043 0.093,0.098 z"
       style="fill:#263238;fill-opacity:1;fill-rule:nonzero;stroke:none"
       id="path42662" /><path
       d="m 5.09,11.57 c 0,0.16 -0.129,0.285 -0.285,0.285 -0.16,0 -0.285,-0.125 -0.285,-0.285 0,-0.156 0.125,-0.285 0.285,-0.285 0.156,0 0.285,0.129 0.285,0.285 z"
       style="fill:#fbc02d;fill-opacity:1;fill-rule:nonzero;stroke:none"
       id="path42664" /><path
       d="m 4.898,11.57 c 0,0.055 -0.043,0.098 -0.093,0.098 -0.055,0 -0.098,-0.043 -0.098,-0.098 0,-0.05 0.043,-0.093 0.098,-0.093 0.05,0 0.093,0.043 0.093,0.093 z"
       style="fill:#263238;fill-opacity:1;fill-rule:nonzero;stroke:none"
       id="path42666" /><path
       d="M 6.805,6.949 H 8.57 c 0.25,0 0.45,0.203 0.45,0.453 v 0.559 c 0,0.25 -0.2,0.453 -0.45,0.453 H 6.805 c -0.25,0 -0.45,-0.203 -0.45,-0.453 V 7.402 c 0,-0.25 0.2,-0.453 0.45,-0.453 z"
       style="fill:#4d4d4d;fill-opacity:1;fill-rule:nonzero;stroke:none"
       id="path42668" /><path
       d="M 6.805,8.855 H 8.57 c 0.25,0 0.45,0.2 0.45,0.454 v 0.558 c 0,0.25 -0.2,0.453 -0.45,0.453 H 6.805 c -0.25,0 -0.45,-0.203 -0.45,-0.453 V 9.309 c 0,-0.254 0.2,-0.454 0.45,-0.454 z"
       style="fill:#4d4d4d;fill-opacity:1;fill-rule:nonzero;stroke:none"
       id="path42670" /></g></svg>
