<?xml version="1.0" encoding="UTF-8" standalone="no"?>
<svg
   width="24"
   height="24"
   version="1"
   id="svg8"
   sodipodi:docname="nm-device-wireless.svg"
   inkscape:version="1.3 (0e150ed6c4, 2023-07-21)"
   xmlns:inkscape="http://www.inkscape.org/namespaces/inkscape"
   xmlns:sodipodi="http://sodipodi.sourceforge.net/DTD/sodipodi-0.dtd"
   xmlns="http://www.w3.org/2000/svg"
   xmlns:svg="http://www.w3.org/2000/svg">
  <defs
     id="defs8">
    <radialGradient
       id="paint0_radial_1_33"
       cx="0"
       cy="0"
       r="1"
       gradientUnits="userSpaceOnUse"
       gradientTransform="matrix(0,11,-11,0,12,1)">
      <stop
         stop-color="#6EBBF7"
         id="stop5758" />
      <stop
         offset="1"
         stop-color="#2196F3"
         id="stop5760" />
    </radialGradient>
    <linearGradient
       id="a-7"
       x1="1"
       x2="47"
       gradientTransform="matrix(0,-0.3501678,0.3501678,0,9.5929137,27.974637)"
       gradientUnits="userSpaceOnUse">
      <stop
         stop-color="#015093"
         offset="0"
         id="stop5897-9" />
      <stop
         stop-color="#015ca7"
         offset="1"
         id="stop5899-2" />
    </linearGradient>
  </defs>
  <sodipodi:namedview
     id="namedview8"
     pagecolor="#ffffff"
     bordercolor="#000000"
     borderopacity="0.25"
     inkscape:showpageshadow="2"
     inkscape:pageopacity="0.0"
     inkscape:pagecheckerboard="0"
     inkscape:deskcolor="#d1d1d1"
     inkscape:zoom="11.313709"
     inkscape:cx="0.39774755"
     inkscape:cy="22.494833"
     inkscape:window-width="1280"
     inkscape:window-height="998"
     inkscape:window-x="0"
     inkscape:window-y="0"
     inkscape:window-maximized="0"
     inkscape:current-layer="svg8" />
  <path
     fill-rule="evenodd"
     clip-rule="evenodd"
     d="M 9.59604,1.11359 C 9.71588,1.11486 9.83043,1.0996 9.93969,1.06779 11.3755,0.973736 12.8111,0.977551 14.2467,1.07924 c 1.3017,0.10142 2.5618,0.38384 3.7802,0.84726 2.0256,0.83394 3.4117,2.2804 4.1581,4.33936 0.4269,1.23963 0.6789,2.51435 0.7561,3.82414 0.1067,1.6447 0.0685,3.2858 -0.1146,4.9233 -0.137,1.1509 -0.4349,2.2577 -0.8935,3.3203 -0.8506,1.8425 -2.229,3.1134 -4.1352,3.8127 -1.5447,0.5219 -3.1331,0.7967 -4.7653,0.8243 C 11.1966,23.0661 9.37913,22.9287 7.57997,22.5585 4.26839,21.8208 2.22559,19.8018 1.45158,16.5017 1.12311,15.0161 0.974199,13.5124 1.00483,11.9906 0.968176,10.3724 1.14,8.77709 1.52031,7.20471 2.33171,4.11908 4.2905,2.20701 7.39669,1.46852 8.12048,1.29157 8.8536,1.17326 9.59604,1.11359 Z"
     fill="url(#paint0_radial_1_33)"
     id="path5741"
     style="fill:url(#paint0_radial_1_33)" />
  <g
     id="g11"
     transform="translate(-36.762744,3.850288)">
    <rect
       x="43.994705"
       y="2.2860587"
       width="9.5360775"
       height="0.79467309"
       rx="0.39733654"
       ry="0.39733654"
       fill="#ffffff"
       opacity="0.35"
       style="stroke-width:0.397337;paint-order:stroke fill markers"
       id="rect9" />
    <rect
       x="45.186714"
       y="3.8754046"
       width="7.1520576"
       height="0.79467309"
       rx="0.39733654"
       ry="0.39733654"
       fill="#ffffff"
       opacity="0.35"
       style="stroke-width:0.397337;paint-order:stroke fill markers"
       id="rect10" />
    <rect
       x="46.378723"
       y="5.4647503"
       width="4.7680387"
       height="0.79467309"
       rx="0.39733654"
       ry="0.39733654"
       fill="#ffffff"
       opacity="0.35"
       style="stroke-width:0.397337;paint-order:stroke fill markers"
       id="rect11" />
  </g>
  <path
     id="circle11857"
     style="fill:#bfd6ef;fill-opacity:1;fill-rule:evenodd;stroke-width:0.472223;paint-order:fill markers stroke"
     d="m 18.464186,11.411114 a 8.4999999,8.4999999 0 0 0 -8.5000001,8.500001 8.4999999,8.4999999 0 0 0 0.5664061,3.048828 c 0.834373,0.0542 1.673515,0.05939 2.515625,0.01561 1.632125,-0.02767 3.218996,-0.302269 4.763671,-0.824219 1.906208,-0.699323 3.286171,-1.970004 4.136721,-3.8125 0.458606,-1.06269 0.755528,-2.169437 0.892576,-3.320312 0.08549,-0.764137 0.137842,-1.529192 0.160142,-2.294922 a 8.4999999,8.4999999 0 0 0 -4.535141,-1.312486 z" />
  <g
     id="g27"
     transform="translate(29.998762,20.001408)">
    <path
       id="path25"
       style="opacity:0.5;fill:#ffffff;fill-opacity:0.98;fill-rule:evenodd;stroke-width:0.472223;paint-order:fill markers stroke"
       d="m -11.775391,-4.460938 c -2.166941,0 -4.118393,0.768788 -5.736328,1.962891 l 4.498047,4.900391 c 0.275561,-0.076777 0.551309,-0.159736 0.824219,-0.251953 1.906206,-0.699323 3.2861695,-1.970006 4.1367186,-3.8125 0.2416549,-0.559967 0.4357571,-1.132354 0.5878906,-1.716797 -1.294879,-0.676246 -2.7434392,-1.082032 -4.3105472,-1.082032 z" />
    <path
       id="path27"
       style="opacity:0.5;fill:#ffffff;fill-opacity:1;fill-rule:evenodd;stroke-width:0.472223;paint-order:fill markers stroke"
       d="m -11.798828,-2.818359 a 7.7245418,7.7245418 0 0 0 -4.615234,1.521484 l 3.40039,3.699219 c 0.275561,-0.076777 0.551309,-0.159736 0.824219,-0.251953 1.906206,-0.699323 3.2861695,-1.970006 4.1367186,-3.8125 0.021816,-0.050552 0.041416,-0.101593 0.0625,-0.152344 a 7.7245418,7.7245418 0 0 0 -3.8085936,-1.003906 z" />
    <path
       id="path20"
       style="fill:#ffffff;fill-opacity:1;fill-rule:evenodd;stroke-width:0.472223;paint-order:fill markers stroke"
       d="m -11.798828,-1.175781 c -1.294867,0 -2.49589,0.423851 -3.460938,1.140625 l 2.240235,2.439453 c 0.277559,-0.077217 0.555208,-0.161027 0.830078,-0.253906 1.415186,-0.519184 2.5392597,-1.352749 3.3730468,-2.501953 a 5.7928869,5.7928869 0 0 0 -2.9824218,-0.824219 z" />
  </g>
</svg>
