<?xml version="1.0" encoding="UTF-8" standalone="no"?>
<svg
   width="24"
   height="24"
   version="1"
   id="svg5"
   sodipodi:docname="network-vpn.svg"
   inkscape:version="1.3 (0e150ed6c4, 2023-07-21)"
   inkscape:export-filename="../../../../../../../../../Imagens/Big Icons/network-vpn.pdf"
   inkscape:export-xdpi="96"
   inkscape:export-ydpi="96"
   xml:space="preserve"
   xmlns:inkscape="http://www.inkscape.org/namespaces/inkscape"
   xmlns:sodipodi="http://sodipodi.sourceforge.net/DTD/sodipodi-0.dtd"
   xmlns="http://www.w3.org/2000/svg"
   xmlns:svg="http://www.w3.org/2000/svg"><sodipodi:namedview
     id="namedview5"
     pagecolor="#ffffff"
     bordercolor="#000000"
     borderopacity="0.25"
     inkscape:showpageshadow="2"
     inkscape:pageopacity="0.0"
     inkscape:pagecheckerboard="0"
     inkscape:deskcolor="#d1d1d1"
     inkscape:zoom="8"
     inkscape:cx="-20.8125"
     inkscape:cy="6.8125"
     inkscape:window-width="2560"
     inkscape:window-height="998"
     inkscape:window-x="0"
     inkscape:window-y="0"
     inkscape:window-maximized="1"
     inkscape:current-layer="g1"><inkscape:page
       x="0"
       y="0"
       width="24"
       height="24"
       id="page1"
       margin="0"
       bleed="0" /></sodipodi:namedview><defs
     id="defs1"><clipPath
       id="a"><path
         d="m 46,25.597 -15.998,5.6 C 30.002,52.75 29.381,54.404 46,64 62.482,54.473 61.998,52.757 61.998,31.197 Z"
         color="#000000"
         fill="#f9f9f9"
         overflow="visible"
         stroke-width="1.175"
         style="isolation:auto;mix-blend-mode:normal"
         id="path1" /></clipPath><filter
       id="b"
       x="-0.12342858"
       y="-0.096000001"
       width="1.2468572"
       height="1.192"
       color-interpolation-filters="sRGB"><feGaussianBlur
         stdDeviation="2.16"
         id="feGaussianBlur1" /></filter><radialGradient
       id="paint0_radial_1_33"
       cx="0"
       cy="0"
       r="1"
       gradientUnits="userSpaceOnUse"
       gradientTransform="matrix(0,11,-11,0,-8,1)"><stop
         stop-color="#6EBBF7"
         id="stop5758"
         offset="0"
         style="stop-color:#fad974;stop-opacity:1;" /><stop
         offset="1"
         stop-color="#2196F3"
         id="stop5760"
         style="stop-color:#f7c42a;stop-opacity:1;" /></radialGradient><radialGradient
       fx="0"
       fy="0"
       cx="0"
       cy="0"
       r="1"
       gradientUnits="userSpaceOnUse"
       gradientTransform="matrix(0,8.25,-8.25,0,9,0.75)"
       spreadMethod="pad"
       id="radialGradient2"><stop
         style="stop-opacity:1;stop-color:#fad974"
         offset="0"
         id="stop1" /><stop
         style="stop-opacity:1;stop-color:#f7c42a"
         offset="1"
         id="stop2" /></radialGradient><clipPath
       clipPathUnits="userSpaceOnUse"
       id="clipPath3"><path
         d="M 0,0 H 19 V 19 H 0 Z"
         id="path3" /></clipPath><clipPath
       clipPathUnits="userSpaceOnUse"
       id="clipPath5"><path
         d="M 0,0 H 19 V 19 H 0 Z"
         id="path5" /></clipPath><clipPath
       clipPathUnits="userSpaceOnUse"
       id="clipPath7"><path
         d="M 0,0 H 19 V 19 H 0 Z"
         id="path7-6" /></clipPath><clipPath
       clipPathUnits="userSpaceOnUse"
       id="clipPath10"><path
         d="M 0,0 H 19 V 19 H 0 Z"
         id="path10" /></clipPath><radialGradient
       fx="0"
       fy="0"
       cx="0"
       cy="0"
       r="1"
       gradientUnits="userSpaceOnUse"
       gradientTransform="matrix(0,11,-11,0,-22.000452,0.99996451)"
       spreadMethod="pad"
       id="radialGradient2-5"><stop
         style="stop-opacity:1;stop-color:#fad974"
         offset="0"
         id="stop1-6" /><stop
         style="stop-opacity:1;stop-color:#f7c42a"
         offset="1"
         id="stop2-2" /></radialGradient></defs><g
     id="g1"
     inkscape:groupmode="layer"
     inkscape:label="1"
     transform="translate(34)"><path
       id="path2"
       d="m -24.407119,1.1146311 c 0.12,0 0.234667,-0.016 0.344,-0.046667 1.437333,-0.0946667 2.874667,-0.0893334 4.308,0.010667 1.301333,0.104 2.561333,0.3853334 3.781333,0.848 2.025333,0.8333333 3.410667,2.2813333 4.161333,4.3386666 0.421334,1.2399999 0.676,2.5159999 0.754667,3.8226673 0.104,1.646666 0.068,3.286666 -0.114667,4.928 -0.14,1.150666 -0.437333,2.254666 -0.896,3.317333 -0.849333,1.844 -2.229333,3.114666 -4.134666,3.812 -1.542667,0.521333 -3.130667,0.797333 -4.766667,0.824 -1.833333,0.09867 -3.650666,-0.04267 -5.452,-0.412 -3.307999,-0.734667 -5.354666,-2.754667 -6.125333,-6.057333 -0.328,-1.484 -0.48,-2.989334 -0.448,-4.510667 -0.036,-1.614667 0.134667,-3.2133337 0.516,-4.786667 0.812,-3.0826666 2.770667,-4.9946666 5.874667,-5.7333332 0.724,-0.1773333 1.458666,-0.2973333 2.197333,-0.3546667 z"
       style="fill:url(#radialGradient2-5);fill-rule:evenodd;stroke:none;stroke-width:1.33333" /></g><g
     id="g11"
     transform="translate(-36.762744,3.850288)"><rect
       x="43.994705"
       y="2.2860587"
       width="9.5360775"
       height="0.79467309"
       rx="0.39733654"
       ry="0.39733654"
       fill="#ffffff"
       opacity="0.35"
       style="stroke-width:0.397337;paint-order:stroke fill markers"
       id="rect9" /><rect
       x="45.186714"
       y="3.8754046"
       width="7.1520576"
       height="0.79467309"
       rx="0.39733654"
       ry="0.39733654"
       fill="#ffffff"
       opacity="0.35"
       style="stroke-width:0.397337;paint-order:stroke fill markers"
       id="rect10" /><rect
       x="46.378723"
       y="5.4647503"
       width="4.7680387"
       height="0.79467309"
       rx="0.39733654"
       ry="0.39733654"
       fill="#ffffff"
       opacity="0.35"
       style="stroke-width:0.397337;paint-order:stroke fill markers"
       id="rect11" /></g><path
     id="circle11857"
     style="fill:#f8e6b1;fill-opacity:1;fill-rule:evenodd;stroke-width:0.472223;paint-order:fill markers stroke"
     d="m 18.464186,11.411114 a 8.4999999,8.4999999 0 0 0 -8.5000001,8.500001 8.4999999,8.4999999 0 0 0 0.5664061,3.048828 c 0.834373,0.0542 1.673515,0.05939 2.515625,0.01561 1.632125,-0.02767 3.218996,-0.302269 4.763671,-0.824219 1.906208,-0.699323 3.286171,-1.970004 4.136721,-3.8125 0.458606,-1.06269 0.755528,-2.169437 0.892576,-3.320312 0.08549,-0.764137 0.137842,-1.529192 0.160142,-2.294922 a 8.4999999,8.4999999 0 0 0 -4.535141,-1.312486 z" /><path
     id="path7"
     style="opacity:0.5;fill:#ffffff;fill-opacity:1;fill-rule:evenodd;stroke-width:0.472223;paint-order:fill markers stroke"
     d="M 18.519531,14.849609 14.703125,16.1875 c 0,3.887325 -0.08378,5.059961 1.587891,6.390625 0.51057,-0.117337 1.017963,-0.258253 1.519531,-0.427734 1.906206,-0.699323 3.286169,-1.970006 4.136719,-3.8125 0.146444,-0.339344 0.273188,-0.68292 0.386718,-1.03125 7.15e-4,-0.359498 0.002,-0.700472 0.002,-1.119141 z" /><path
     d="m 18.519767,17.09392 a 1.0139787,1.0139787 0 0 1 1.013978,1.013979 1.0084913,1.0084913 0 0 1 -0.615782,0.932384 l 0.615544,2.109552 H 17.50555 l 0.616021,-2.109076 a 1.0082527,1.0082527 0 0 1 -0.616021,-0.93286 1.0139787,1.0139787 0 0 1 1.014217,-1.013979 z"
     color="#000000"
     fill="#ffffff"
     overflow="visible"
     style="isolation:auto;mix-blend-mode:normal;stroke-width:0.238583"
     id="path9" /></svg>
