<?xml version="1.0" encoding="UTF-8" standalone="no"?>
<svg
   width="24"
   height="24"
   version="1"
   id="svg8"
   sodipodi:docname="network-wireless-hotspot.svg"
   inkscape:version="1.3 (0e150ed6c4, 2023-07-21)"
   inkscape:export-filename="../../../../../../../../../Imagens/Big Icons/network-wireless-hotspot.pdf"
   inkscape:export-xdpi="96"
   inkscape:export-ydpi="96"
   xml:space="preserve"
   xmlns:inkscape="http://www.inkscape.org/namespaces/inkscape"
   xmlns:sodipodi="http://sodipodi.sourceforge.net/DTD/sodipodi-0.dtd"
   xmlns="http://www.w3.org/2000/svg"
   xmlns:svg="http://www.w3.org/2000/svg"><sodipodi:namedview
     id="namedview8"
     pagecolor="#ffffff"
     bordercolor="#000000"
     borderopacity="0.25"
     inkscape:showpageshadow="2"
     inkscape:pageopacity="0.0"
     inkscape:pagecheckerboard="0"
     inkscape:deskcolor="#d1d1d1"
     inkscape:zoom="8.9603688"
     inkscape:cx="50.500154"
     inkscape:cy="6.6403517"
     inkscape:window-width="2560"
     inkscape:window-height="998"
     inkscape:window-x="0"
     inkscape:window-y="0"
     inkscape:window-maximized="1"
     inkscape:current-layer="svg8"><inkscape:page
       x="0"
       y="0"
       width="24"
       height="24"
       id="page1"
       margin="0"
       bleed="0" /></sodipodi:namedview><defs
     id="defs1"><clipPath
       id="a"><path
         d="M 43.001,31 C 34.136,31 27,38.136 27,46.999 c 0,8.863 7.136,16 16.001,16 A 15.965,15.965 0 0 0 59,46.999 c 0,-8.864 -7.136,-16 -15.999,-16 z"
         fill="#f9f9f9"
         stroke-width="0.571"
         id="path1" /></clipPath><filter
       id="b"
       x="-0.12342858"
       y="-0.096000001"
       width="1.2468572"
       height="1.192"
       color-interpolation-filters="sRGB"><feGaussianBlur
         stdDeviation="2.16"
         id="feGaussianBlur1" /></filter><radialGradient
       id="paint0_radial_1_33"
       cx="0"
       cy="0"
       r="1"
       gradientUnits="userSpaceOnUse"
       gradientTransform="matrix(0,11,-11,0,-8,1)"><stop
         stop-color="#6EBBF7"
         id="stop5758"
         offset="0"
         style="stop-color:#9ddc9d;stop-opacity:1;" /><stop
         offset="1"
         stop-color="#2196F3"
         id="stop5760"
         style="stop-color:#68ca68;stop-opacity:1;" /></radialGradient><radialGradient
       fx="0"
       fy="0"
       cx="0"
       cy="0"
       r="1"
       gradientUnits="userSpaceOnUse"
       gradientTransform="matrix(0,8.25,-8.25,0,9,0.75)"
       spreadMethod="pad"
       id="radialGradient2"><stop
         style="stop-opacity:1;stop-color:#9ddc9d"
         offset="0"
         id="stop1" /><stop
         style="stop-opacity:1;stop-color:#68ca68"
         offset="1"
         id="stop2" /></radialGradient><clipPath
       clipPathUnits="userSpaceOnUse"
       id="clipPath3"><path
         d="M 0,0 H 19 V 19 H 0 Z"
         id="path3" /></clipPath><clipPath
       clipPathUnits="userSpaceOnUse"
       id="clipPath5"><path
         d="M 0,0 H 19 V 19 H 0 Z"
         id="path5" /></clipPath><clipPath
       clipPathUnits="userSpaceOnUse"
       id="clipPath7"><path
         d="M 0,0 H 19 V 19 H 0 Z"
         id="path7" /></clipPath><clipPath
       clipPathUnits="userSpaceOnUse"
       id="clipPath10"><path
         d="M 0,0 H 19 V 19 H 0 Z"
         id="path10" /></clipPath><clipPath
       clipPathUnits="userSpaceOnUse"
       id="clipPath12"><path
         d="M 0,0 H 19 V 19 H 0 Z"
         id="path12" /></clipPath><radialGradient
       fx="0"
       fy="0"
       cx="0"
       cy="0"
       r="1"
       gradientUnits="userSpaceOnUse"
       gradientTransform="matrix(0,11,-11,0,11.999548,0.99996419)"
       spreadMethod="pad"
       id="radialGradient2-5"><stop
         style="stop-opacity:1;stop-color:#9ddc9d"
         offset="0"
         id="stop1-3" /><stop
         style="stop-opacity:1;stop-color:#68ca68"
         offset="1"
         id="stop2-5" /></radialGradient></defs><path
     id="path2"
     d="m 9.5928809,1.1146308 c 0.12,0 0.234667,-0.016 0.344,-0.046667 1.4373331,-0.0946667 2.8746671,-0.0893334 4.3080001,0.010667 1.301333,0.104 2.561333,0.3853334 3.781333,0.848 2.025333,0.8333333 3.410667,2.2813333 4.161333,4.3386666 0.421334,1.2399999 0.676,2.5159999 0.754667,3.8226676 0.104,1.646666 0.068,3.286666 -0.114667,4.928 -0.14,1.150666 -0.437333,2.254666 -0.896,3.317333 -0.849333,1.844 -2.229333,3.114666 -4.134666,3.812 -1.542667,0.521333 -3.130667,0.797333 -4.766667,0.824 -1.833333,0.09867 -3.6506661,-0.04267 -5.4520001,-0.412 -3.307999,-0.734667 -5.354666,-2.754667 -6.125333,-6.057333 -0.328,-1.484 -0.47999995,-2.989334 -0.448,-4.510667 -0.036,-1.614667 0.134667,-3.213334 0.516,-4.7866673 0.812,-3.0826666 2.770667,-4.9946666 5.874667,-5.7333332 0.724,-0.1773333 1.458666,-0.2973333 2.197333,-0.3546667 z"
     style="fill:url(#radialGradient2-5);fill-rule:evenodd;stroke:none;stroke-width:1.33333" /><g
     id="g11"
     transform="translate(-36.762744,3.850288)"><rect
       x="43.994705"
       y="2.2860587"
       width="9.5360775"
       height="0.79467309"
       rx="0.39733654"
       ry="0.39733654"
       fill="#ffffff"
       opacity="0.35"
       style="stroke-width:0.397337;paint-order:stroke fill markers"
       id="rect9" /><rect
       x="45.186714"
       y="3.8754046"
       width="7.1520576"
       height="0.79467309"
       rx="0.39733654"
       ry="0.39733654"
       fill="#ffffff"
       opacity="0.35"
       style="stroke-width:0.397337;paint-order:stroke fill markers"
       id="rect10" /><rect
       x="46.378723"
       y="5.4647503"
       width="4.7680387"
       height="0.79467309"
       rx="0.39733654"
       ry="0.39733654"
       fill="#ffffff"
       opacity="0.35"
       style="stroke-width:0.397337;paint-order:stroke fill markers"
       id="rect11" /></g><path
     id="circle11857"
     style="fill:#c6e9c6;fill-opacity:1;fill-rule:evenodd;stroke-width:0.472223;paint-order:fill markers stroke"
     d="m 18.464186,11.411114 a 8.4999999,8.4999999 0 0 0 -8.5000001,8.500001 8.4999999,8.4999999 0 0 0 0.5664061,3.048828 c 0.834373,0.0542 1.673515,0.05939 2.515625,0.01561 1.632125,-0.02767 3.218996,-0.302269 4.763671,-0.824219 1.906208,-0.699323 3.286171,-1.970004 4.136721,-3.8125 0.458606,-1.06269 0.755528,-2.169437 0.892576,-3.320312 0.08549,-0.764137 0.137842,-1.529192 0.160142,-2.294922 a 8.4999999,8.4999999 0 0 0 -4.535141,-1.312486 z" /><g
     id="g27"
     transform="translate(29.998762,20.001408)"><path
       id="path25"
       style="opacity:0.5;fill:#ffffff;fill-opacity:0.98;fill-rule:evenodd;stroke-width:0.472223;paint-order:fill markers stroke"
       d="m -11.775391,-4.460938 c -2.166941,0 -4.118393,0.768788 -5.736328,1.962891 l 4.498047,4.900391 c 0.275561,-0.076777 0.551309,-0.159736 0.824219,-0.251953 1.906206,-0.699323 3.2861695,-1.970006 4.1367186,-3.8125 0.2416549,-0.559967 0.4357571,-1.132354 0.5878906,-1.716797 -1.294879,-0.676246 -2.7434392,-1.082032 -4.3105472,-1.082032 z" /><path
       id="path27"
       style="opacity:0.5;fill:#ffffff;fill-opacity:1;fill-rule:evenodd;stroke-width:0.472223;paint-order:fill markers stroke"
       d="m -11.798828,-2.818359 a 7.7245418,7.7245418 0 0 0 -4.615234,1.521484 l 3.40039,3.699219 c 0.275561,-0.076777 0.551309,-0.159736 0.824219,-0.251953 1.906206,-0.699323 3.2861695,-1.970006 4.1367186,-3.8125 0.021816,-0.050552 0.041416,-0.101593 0.0625,-0.152344 a 7.7245418,7.7245418 0 0 0 -3.8085936,-1.003906 z" /><path
       id="path20"
       style="fill:#ffffff;fill-opacity:1;fill-rule:evenodd;stroke-width:0.472223;paint-order:fill markers stroke"
       d="m -11.798828,-1.175781 c -1.294867,0 -2.49589,0.423851 -3.460938,1.140625 l 2.240235,2.439453 c 0.277559,-0.077217 0.555208,-0.161027 0.830078,-0.253906 1.415186,-0.519184 2.5392597,-1.352749 3.3730468,-2.501953 a 5.7928869,5.7928869 0 0 0 -2.9824218,-0.824219 z" /></g><g
     id="g1"
     inkscape:groupmode="layer"
     inkscape:label="1"
     transform="translate(34)" /></svg>
