<?xml version="1.0" encoding="UTF-8" standalone="no"?>
<svg
   width="24"
   height="24"
   version="1"
   id="svg6"
   sodipodi:docname="pda.svg"
   inkscape:version="1.3 (0e150ed6c4, 2023-07-21)"
   xmlns:inkscape="http://www.inkscape.org/namespaces/inkscape"
   xmlns:sodipodi="http://sodipodi.sourceforge.net/DTD/sodipodi-0.dtd"
   xmlns="http://www.w3.org/2000/svg"
   xmlns:svg="http://www.w3.org/2000/svg">
  <defs
     id="defs6">
    <radialGradient
       fx="0"
       fy="0"
       cx="0"
       cy="0"
       r="1"
       gradientUnits="userSpaceOnUse"
       gradientTransform="matrix(0,16.500002,-16.500002,0,8.999659,0.749973)"
       spreadMethod="pad"
       id="radialGradient40514-1">
      <stop
         style="stop-opacity:1;stop-color:#a4a4a4"
         offset="0"
         id="stop40510-7" />
      <stop
         style="stop-opacity:1;stop-color:#626262"
         offset="1"
         id="stop40512-2" />
    </radialGradient>
  </defs>
  <sodipodi:namedview
     id="namedview6"
     pagecolor="#ffffff"
     bordercolor="#000000"
     borderopacity="0.25"
     inkscape:showpageshadow="2"
     inkscape:pageopacity="0.0"
     inkscape:pagecheckerboard="0"
     inkscape:deskcolor="#d1d1d1"
     inkscape:zoom="6.3359375"
     inkscape:cx="15.940814"
     inkscape:cy="24.38471"
     inkscape:window-width="2560"
     inkscape:window-height="998"
     inkscape:window-x="0"
     inkscape:window-y="0"
     inkscape:window-maximized="1"
     inkscape:current-layer="svg6" />
  <g
     id="g40500"
     transform="matrix(1.3333333,0,0,1.3333333,-4.5225532e-4,-3.504174e-5)">
    <g
       id="g40502">
      <g
         id="g40508">
        <path
           d="m 7.195,0.836 c 0.09,0 0.176,-0.012 0.258,-0.035 1.078,-0.071 2.156,-0.067 3.231,0.008 0.976,0.078 1.921,0.289 2.836,0.636 1.519,0.625 2.558,1.711 3.121,3.254 0.316,0.93 0.507,1.887 0.566,2.867 0.078,1.235 0.051,2.465 -0.086,3.696 -0.105,0.863 -0.328,1.691 -0.672,2.488 -0.637,1.383 -1.672,2.336 -3.101,2.859 C 12.191,17 11,17.207 9.773,17.227 8.398,17.301 7.035,17.195 5.684,16.918 3.203,16.367 1.668,14.852 1.09,12.375 0.844,11.262 0.73,10.133 0.754,8.992 0.727,7.777 0.855,6.582 1.141,5.402 1.75,3.09 3.219,1.656 5.547,1.102 6.09,0.969 6.641,0.879 7.195,0.836 Z"
           style="fill:url(#radialGradient40514-1);fill-rule:evenodd;stroke:none"
           id="path40516" />
      </g>
    </g>
  </g>
  <g
     id="g12"
     transform="matrix(0.2962963,0,0,0.2962963,23.122563,3.5696953)">
    <rect
       transform="matrix(0,-1,-1,0,0,0)"
       x="-49.452278"
       y="16.538651"
       width="48"
       height="42"
       rx="5"
       ry="5"
       fill="#333333"
       id="rect6" />
    <rect
       transform="matrix(0,-1,-1,0,0,0)"
       x="-55.452278"
       y="16.538651"
       width="48"
       height="42"
       rx="8"
       ry="11"
       fill="#333333"
       id="rect7" />
    <rect
       x="-55.538651"
       y="4.4522781"
       width="36"
       height="38"
       rx="2"
       ry="2"
       fill="#ffffff"
       opacity="0.15"
       id="rect8" />
    <g
       fill="#ffffff"
       id="g11"
       transform="translate(-69.538652,-3.5477211)">
      <circle
         cx="20"
         cy="51"
         r="2"
         opacity="0.5"
         id="circle9" />
      <circle
         cx="44"
         cy="51"
         r="2"
         opacity="0.5"
         id="circle10" />
      <circle
         cx="32"
         cy="52"
         r="3"
         opacity="0.75"
         id="circle11" />
    </g>
  </g>
</svg>
