<?xml version="1.0" encoding="UTF-8" standalone="no"?>
<svg
   width="64"
   height="64"
   version="1"
   id="svg18"
   sodipodi:docname="video-television.svg"
   xml:space="preserve"
   inkscape:version="1.3 (0e150ed6c4, 2023-07-21)"
   xmlns:inkscape="http://www.inkscape.org/namespaces/inkscape"
   xmlns:sodipodi="http://sodipodi.sourceforge.net/DTD/sodipodi-0.dtd"
   xmlns="http://www.w3.org/2000/svg"
   xmlns:svg="http://www.w3.org/2000/svg"><sodipodi:namedview
     id="namedview18"
     pagecolor="#ffffff"
     bordercolor="#000000"
     borderopacity="0.25"
     inkscape:showpageshadow="2"
     inkscape:pageopacity="0.0"
     inkscape:pagecheckerboard="0"
     inkscape:deskcolor="#d1d1d1"
     inkscape:zoom="5.6568543"
     inkscape:cx="4.8613591"
     inkscape:cy="22.715805"
     inkscape:window-width="2560"
     inkscape:window-height="998"
     inkscape:window-x="0"
     inkscape:window-y="0"
     inkscape:window-maximized="1"
     inkscape:current-layer="svg18" /><defs
     id="defs8"><linearGradient
       id="c"
       x1="520"
       x2="410"
       y1="-620"
       y2="-620"
       gradientTransform="matrix(.0302 0 0 .0302 18.557 59.5)"
       gradientUnits="userSpaceOnUse"><stop
         offset="0"
         id="stop1" /><stop
         stop-opacity="0"
         offset="1"
         id="stop2" /></linearGradient><linearGradient
       id="b"
       x1="10.583"
       x2="225.69"
       y1="-184.68"
       y2="-184.68"
       gradientTransform="translate(18.557 59.5) scale(.11417)"
       gradientUnits="userSpaceOnUse"><stop
         stop-color="#fafbfb"
         offset="0"
         id="stop3" /><stop
         stop-color="#fafbfb"
         stop-opacity="0"
         offset="1"
         id="stop4" /></linearGradient><linearGradient
       id="a"
       x1="-240.47"
       x2="-240.47"
       y1="-60.605"
       y2="-29.026"
       gradientTransform="matrix(.96667 0 0 .95 262.45 67.575)"
       gradientUnits="userSpaceOnUse"><stop
         stop-color="#4285db"
         offset="0"
         id="stop5" /><stop
         stop-color="#42b9db"
         offset="1"
         id="stop6" /></linearGradient><linearGradient
       id="d"
       x1="32"
       x2="32"
       y1="54"
       y2="59"
       gradientUnits="userSpaceOnUse"><stop
         stop-color="#6b6b6b"
         offset="0"
         id="stop7" /><stop
         stop-color="#c2c2c2"
         offset="1"
         id="stop8" /></linearGradient></defs><g
     id="g22"><path
       style="opacity:1;fill:#b3b3b3;fill-opacity:1;stroke:none;stroke-width:0.4;paint-order:stroke markers fill"
       d="m 12.023671,48.073944 -3.7617496,6.599591 h 4.2414196 l 6.18368,-6.599591 z"
       id="path20"
       sodipodi:nodetypes="ccccc" /><path
       id="path13327-3"
       style="fill:#cccccc;fill-opacity:1;stroke-width:0.360396"
       d="m 12.506803,54.67354 v 0.36943 H 8.2608333 v -0.36943 z" /><path
       style="opacity:1;fill:#b3b3b3;fill-opacity:1;stroke:none;stroke-width:0.4;paint-order:stroke markers fill"
       d="m 52.117426,48.073944 3.76175,6.599591 h -4.24142 l -6.18368,-6.599591 z"
       id="path21"
       sodipodi:nodetypes="ccccc" /><path
       id="path22"
       style="fill:#cccccc;fill-opacity:1;stroke-width:0.360396"
       d="m 51.634294,54.67354 v 0.36943 h 4.24597 v -0.36943 z" /></g><g
     transform="translate(0 3)"
     id="g17"><rect
       x="-268.4"
       y="-63.763"
       width="60"
       height="40"
       rx="5"
       ry="5"
       fill="#4d4d4d"
       transform="translate(270.4 69.763)"
       id="rect10" /><rect
       x="3"
       y="7"
       width="58"
       height="38"
       rx="4"
       ry="3.931"
       fill="url(#a)"
       id="rect11" /><path
       d="m24.599 41.375 14.5-15.708 12.083 15.708z"
       fill="#1a1a1a"
       id="path11" /><path
       d="M23.512 31.828 4.444 44.074c.694.57 1.577.926 2.557.926h37.324L23.513 31.828z"
       fill="#e6e6e6"
       opacity=".9"
       id="path12" /><path
       d="m19.766 45 3.746-13.171L44.326 45z"
       fill="#fafbfb"
       id="path13" /><path
       d="m39.1 24.459-4.834 5.135V45H57c1.094 0 2.08-.43 2.8-1.125L39.1 24.459z"
       fill="#b0b2b5"
       id="path14" /><path
       d="M39.098 24.457 45.141 45H57c1.094 0 2.08-.43 2.8-1.125L39.099 24.457z"
       fill="#fff"
       id="path15" /><path
       d="m19.766 45 3.746-13.171L44.326 45z"
       fill="url(#b)"
       id="path16" /><path
       d="M33.057 37.87V45h1.208v-6.365z"
       fill="url(#c)"
       opacity=".35"
       id="path17" /></g></svg>
