<?xml version="1.0" encoding="UTF-8" standalone="no"?>
<svg
   id="svg"
   version="1.1"
   viewBox="0 0 32 32"
   width="32"
   height="32"
   xmlns="http://www.w3.org/2000/svg"
   xmlns:svg="http://www.w3.org/2000/svg">
  <defs
     id="defs81">
    <style
       id="current-color-scheme"
       type="text/css">.ColorScheme-Text {
            color:#232629;
        }
        .ColorScheme-Highlight {
          color:#3daee9;
        }
        .ColorScheme-Background {
            color:#eff0f1;
        }
        .ColorScheme-ViewBackground {
            color:#fcfcfc;
        }
        .ColorScheme-ButtonFocus {
            color:#3daee9;
        }
        .ColorScheme-PositiveText {
            color:#27ae60;
        }
        .ColorScheme-NeutralText {
            color:#f67400;
        }
        .ColorScheme-NegativeText {
            color:#da4453;
        }</style>
  </defs>
  <g
     id="preferences-desktop-display-randr"
     transform="translate(-26,10)">
    <rect
       id="rect3832-6"
       x="26"
       y="-10"
       width="32"
       height="32"
       fill-opacity="0" />
    <path
       id="rect884"
       d="m 31,-5 c -1.662,0 -3,1.338 -3,3 v 12 c 0,1.662 1.338,3 3,3 h 9 v 3 h -3.5 c -0.277,0 -0.5,0.223 -0.5,0.5 0,0.277 0.223,0.5 0.5,0.5 h 3.5 1 2 1 3.5 C 47.777,17 48,16.777 48,16.5 48,16.223 47.777,16 47.5,16 H 44 v -3 h 9 c 1.662,0 3,-1.338 3,-3 V -2 c 0,-1.662 -1.338,-3 -3,-3 z m 0,1 h 22 c 1.108,0 2,0.892 2,2 v 12 c 0,1.108 -0.892,2 -2,2 H 31 c -1.108,0 -2,-0.892 -2,-2 V -2 c 0,-1.108 0.892,-2 2,-2 z m 17.5,2 c -0.277,0 -0.5,0.223 -0.5,0.5 0,0.277 0.223,0.5 0.5,0.5 H 49 50.5 52 V 2 2.5 C 52,2.777 52.223,3 52.5,3 52.777,3 53,2.777 53,2.5 V 0.5 -1 c 0,-0.554 -0.446,-1 -1,-1 H 50.5 49 Z m -17,7 C 31.223,5 31,5.223 31,5.5 v 2 1.5 c 0,0.554 0.446,1 1,1 h 1.5 1.5 0.5 C 35.777,10 36,9.777 36,9.5 36,9.223 35.777,9 35.5,9 H 35 33.5 32 V 6 5.5 C 32,5.223 31.777,5 31.5,5 Z m 9.5,8 h 2 v 3 h -2 z"
       class="ColorScheme-Text"
       fill="currentColor" />
  </g>
</svg>
