<svg xmlns="http://www.w3.org/2000/svg" width="16" height="16" viewBox="-3 -3 22 22">
<path fill="#dedede" d="M4.994 0C3.736.015 2.815-.03 2.063.385a1.88 1.88 0 0 0-.838.998C1.06 1.822 1 2.343 1 3v10c0 .658.06 1.179.225 1.617.164.439.461.789.838.996.752.415 1.673.372 2.931.387h5.012c1.258-.014 2.179.03 2.932-.385a1.88 1.88 0 0 0 .838-.998c.164-.438.224-.96.224-1.617V3c0-.658-.06-1.179-.225-1.617a1.88 1.88 0 0 0-.837-.996C12.185-.028 11.264.015 10.006 0H4.998zM5 1h5c1.259.015 2.09.06 2.455.262.184.1.287.213.385.472.097.26.16.674.16 1.266v10c0 .592-.063 1.006-.16 1.266-.098.26-.202.371-.385.472-.366.202-1.196.247-2.455.262H5c-1.259-.015-2.09-.06-2.455-.262-.184-.1-.287-.213-.385-.472C2.062 14.006 2 13.592 2 13V3c0-.592.062-1.006.16-1.266s.201-.371.385-.472C2.91 1.06 3.74 1.015 5 1m2.5 2a2.5 2.5 0 1 0 0 5 2.5 2.5 0 0 0 0-5m0 1a1.5 1.5 0 1 1 0 3 1.5 1.5 0 0 1 0-3m2.078 4.988a.47.47 0 0 0-.334.086l-1.36 1.002a1 1 0 0 0-.782.008l-1.346-.992c-.206-.152-.487-.094-.592.047l-.086.113c-.126.17-.106.496.1.649l1.33.982a1 1 0 0 0 .492.98V13.5c0 .277.209.5.469.5h.062c.26 0 .469-.223.469-.5v-1.635a1 1 0 0 0 .49-1l1.332-.982c.206-.152.226-.479.1-.649l-.086-.113a.38.38 0 0 0-.258-.133" color="#000" font-family="sans-serif" font-weight="400" overflow="visible" style="font-feature-settings:normal;font-variant-alternates:normal;font-variant-caps:normal;font-variant-ligatures:normal;font-variant-numeric:normal;font-variant-position:normal;isolation:auto;mix-blend-mode:normal;shape-padding:0;text-decoration-color:#000;text-decoration-line:none;text-decoration-style:solid;text-indent:0;text-orientation:mixed;text-transform:none;white-space:normal"/>
</svg>
