<svg xmlns="http://www.w3.org/2000/svg" width="16" height="16" viewBox="-3 -3 22 22">
<path fill="#dedede" d="M7.965 0c-.334 0-.63.164-.846.379s-.379.485-.512.797c-.265.623-.41 1.42-.41 2.299 0 .08.035.131.037.21-.085-.094-.106-.194-.199-.287l-.002-.003c-.911-.91-1.913-1.547-2.857-1.532-.308.005-.622.103-.848.33-.235.237-.329.563-.33.868-.001.304.075.61.201.923.253.628.715 1.295 1.336 1.916.12.12.247.15.37.258-.16-.01-.267-.078-.432-.078h-.004c-.879 0-1.675.148-2.297.414-.311.133-.58.295-.795.512-.214.217-.378.512-.377.846 0 .333.164.629.379.845s.485.377.797.51c.622.266 1.42.412 2.298.412.182 0 .301-.074.475-.086-.15.13-.307.212-.453.358-.621.621-1.082 1.29-1.334 1.918a2.5 2.5 0 0 0-.201.923c.001.305.096.63.332.866.236.235.56.328.865.33a2.5 2.5 0 0 0 .926-.201c.626-.252 1.292-.711 1.912-1.33l.002-.003.004-.003c.138-.139.175-.284.297-.426-.017.204-.102.348-.102.564 0 .879.146 1.675.412 2.297.133.311.295.583.512.797s.512.377.846.377.629-.164.845-.379.38-.486.512-.797c.266-.622.412-1.418.412-2.297v-.004c0-.262-.097-.441-.123-.687.132.155.173.316.324.467.622.62 1.288 1.082 1.916 1.334.314.126.62.203.924.2.305 0 .63-.095.865-.331.236-.236.33-.56.33-.865a2.5 2.5 0 0 0-.2-.926c-.253-.628-.713-1.295-1.335-1.916l-.002-.002c-.103-.103-.215-.157-.32-.252.152.01.256.074.414.074.879 0 1.675-.146 2.297-.412.311-.133.582-.295.797-.512S16 8.183 16 7.85c0-.334-.164-.63-.38-.846a2.5 2.5 0 0 0-.796-.512c-.622-.265-1.418-.412-2.297-.412h-.004c-.13 0-.214.054-.34.06.07-.065.146-.078.215-.148l.002-.002h.002l.002-.002c.621-.621 1.08-1.288 1.332-1.916.126-.314.203-.62.201-.925-.001-.305-.095-.63-.332-.866-.227-.226-.544-.323-.851-.328-.945-.013-1.945.626-2.856 1.537-.104.104-.128.215-.222.32.006-.125.06-.208.06-.337v-.004c0-.879-.148-1.675-.414-2.297A2.5 2.5 0 0 0 8.81.377C8.594.163 8.298-.001 7.965 0m.002 1c.017 0 .053.002.14.088s.2.252.297.478c.194.453.332 1.142.332 1.905v.002c0 .763-.138 1.452-.332 1.906a1.6 1.6 0 0 1-.295.478c-.087.087-.125.09-.142.09s-.056-.003-.143-.09a1.6 1.6 0 0 1-.295-.476c-.193-.453-.332-1.143-.332-1.906s.137-1.453.33-1.906c.097-.227.21-.392.297-.479S7.95 1 7.967 1M3.193 2.863c.376-.006 1.343.45 2.133 1.239l.002.004c.54.54.93 1.124 1.113 1.582.092.228.132.424.131.546 0 .123-.027.152-.039.164s-.04.037-.162.038c-.122 0-.318-.038-.547-.13-.457-.183-1.042-.573-1.582-1.113s-.93-1.124-1.115-1.582a1.6 1.6 0 0 1-.129-.547c0-.123.025-.152.037-.164.01-.009.037-.035.158-.037m9.547.09c.122.002.15.028.158.037.013.012.039.04.04.162 0 .123-.038.319-.13.547-.183.457-.571 1.042-1.11 1.582l-.005.002c-.54.54-1.124.93-1.582 1.113-.228.092-.424.13-.546.13-.123-.001-.152-.026-.165-.038-.012-.012-.036-.04-.037-.162 0-.122.037-.318.13-.547.183-.457.573-1.042 1.113-1.582.789-.79 1.756-1.25 2.134-1.244M3.47 7.08h.003c.763 0 1.452.139 1.906.332.227.097.392.208.478.295.087.087.09.126.09.143s-.003.055-.09.142a1.6 1.6 0 0 1-.476.295c-.453.194-1.143.332-1.906.332-.764 0-1.453-.138-1.907-.332a1.6 1.6 0 0 1-.478-.295C1.003 7.905 1 7.867 1 7.85s.002-.054.088-.14c.086-.088.252-.2.479-.298.452-.194 1.14-.331 1.904-.332m9.053 0h.004c.764 0 1.451.139 1.905.332.226.097.392.208.478.295.087.087.09.126.09.143s-.002.055-.088.142a1.6 1.6 0 0 1-.478.295c-.454.194-1.143.332-1.907.332-.763 0-1.452-.138-1.906-.332a1.6 1.6 0 0 1-.478-.295c-.087-.087-.09-.125-.09-.142s.004-.054.09-.14c.086-.088.25-.2.476-.298.453-.194 1.141-.331 1.905-.332m-4.558.32c.338 0 .601.263.601.601a.594.594 0 0 1-.601.602A.595.595 0 0 1 7.363 8c0-.339.265-.601.604-.601m1.627 1.865c.376-.007 1.345.45 2.135 1.24l.002.002c.54.54.93 1.124 1.113 1.582.092.229.13.426.129.549 0 .122-.025.15-.037.162s-.042.038-.164.039c-.123 0-.318-.037-.547-.129-.458-.184-1.04-.574-1.58-1.113-.54-.54-.931-1.125-1.115-1.582a1.6 1.6 0 0 1-.13-.547c.001-.123.026-.154.038-.166.009-.01.035-.035.156-.037m-3.256.092c.122.001.15.027.16.037.012.012.036.04.037.162s-.037.318-.129.547c-.182.456-.57 1.04-1.107 1.578l-.002.002-.002.002-.002.002c-.54.54-1.124.929-1.582 1.113a1.6 1.6 0 0 1-.549.129c-.123 0-.15-.025-.162-.037s-.038-.042-.039-.164c0-.123.037-.319.129-.547.183-.458.574-1.043 1.113-1.582.79-.79 1.757-1.248 2.135-1.243zm1.629.697c.017 0 .053.004.14.09s.2.25.297.476c.194.453.332 1.141.332 1.904v.004c0 .764-.138 1.451-.332 1.905a1.6 1.6 0 0 1-.295.478c-.087.087-.125.09-.142.09s-.056-.002-.143-.088a1.6 1.6 0 0 1-.295-.478c-.193-.454-.331-1.143-.332-1.907 0-.763.137-1.452.33-1.906a1.6 1.6 0 0 1 .297-.478c.088-.087.126-.09.143-.09" color="#000" style="-inkscape-stroke:none"/>
</svg>
