<svg xmlns="http://www.w3.org/2000/svg" width="16" height="16" viewBox="-3 -3 22 22">
<path fill="#dedede" d="M8 0a8 8 0 0 0-.7.035q-.18.019-.359.045a7 7 0 0 0-.416.063 8 8 0 0 0-.37.082 7 7 0 0 0-.42.107Q5.57.383 5.41.439a8 8 0 0 0-.433.16 8 8 0 0 0-.319.143q-.198.09-.392.19A8 8 0 0 0 0 8a8 8 0 0 0 4.129 7h.018a8 8 0 0 0 3.673.992L8 16a7 7 0 0 0 1.059-.08 8 8 0 0 0 .416-.062 11 11 0 0 0 .812-.198 6 6 0 0 0 .258-.086q.244-.08.482-.175.147-.061.291-.13A8 8 0 0 0 15 11.872v-.017a8 8 0 0 0 .992-3.674L16 8a8 8 0 0 0-.035-.699 8 8 0 0 0-.045-.36 8 8 0 0 0-.062-.415 8 8 0 0 0-.082-.371 8 8 0 0 0-.108-.42 8 8 0 0 0-.107-.325 8 8 0 0 0-.16-.433 8 8 0 0 0-.143-.319 8 8 0 0 0-.19-.392 8 8 0 0 0-3.158-3.24l-.015-.002A8 8 0 0 0 9.658.178a8 8 0 0 0-.69-.113l-.1-.016h-.011a8 8 0 0 0-.506-.031A7 7 0 0 0 8 0m0 1a7 7 0 0 1 7 7 7 7 0 0 1-7 7 7 7 0 0 1-7-7 7 7 0 0 1 7-7m3.578 3.988a.47.47 0 0 0-.334.086l-3.36 2.002a1 1 0 0 0-.782.008l-2.346-.992c-.206-.152-.487-.094-.592.047l-.086.113c-.126.17-.106.496.1.649l2.33.982a1 1 0 0 0 .492.98V11.5c0 .277.208.5.469.5h.062c.26 0 .469-.223.469-.5V8.865a1 1 0 0 0 .49-1l3.332-1.982c.206-.152.226-.479.1-.649l-.086-.113a.38.38 0 0 0-.258-.133" color="#000" font-family="sans-serif" font-weight="400" overflow="visible" style="font-feature-settings:normal;font-variant-alternates:normal;font-variant-caps:normal;font-variant-ligatures:normal;font-variant-numeric:normal;font-variant-position:normal;isolation:auto;mix-blend-mode:normal;shape-padding:0;text-decoration-color:#000;text-decoration-line:none;text-decoration-style:solid;text-indent:0;text-orientation:mixed;text-transform:none;white-space:normal"/>
</svg>
