<svg xmlns="http://www.w3.org/2000/svg" width="16" height="16" viewBox="-3 -3 22 22">
<g fill="currentColor" class="ColorScheme-Contrast" color="#dedede">
<path d="M2.304 9.268A2 2 0 0 0 1.572 12a2 2 0 0 0 2.732.732 2 2 0 0 0 .926-2.267l9.582-5.532-.5-.866-9.584 5.534a2 2 0 0 0-2.424-.333m.5.866a1 1 0 0 1 1.366.366 1 1 0 0 1-.366 1.366 1 1 0 0 1-1.366-.366 1 1 0 0 1 .366-1.366"/>
<path d="M10.5 14a2 2 0 0 1-2 2 2 2 0 0 1-2-2A2 2 0 0 1 8 12.064V1h1v11.067A2 2 0 0 1 10.5 14m-1 0a1 1 0 0 0-1-1 1 1 0 0 0-1 1 1 1 0 0 0 1 1 1 1 0 0 0 1-1"/>
<path d="m7.193 8.264-.521.902a2 2 0 0 0 .73.736 2 2 0 0 0 1 .266l.523-.904-.236-.137c-.265.079-.299-.387-.537-.524s-.659.065-.723-.203z"/>
</g>
</svg>
