<svg xmlns="http://www.w3.org/2000/svg" width="16" height="16" viewBox="-3 -3 22 22">
<g fill="#fcfcfc" font-weight="400">
<path d="M.388 5.892 0 6.488 7 11.5l-2 2s2.724-1.23 4-2c2.46-1.486 7-5.034 7-5.034l-.388-.574-7.613 4.594z" font-family="Ubuntu" font-size="15" letter-spacing="0" text-anchor="middle" word-spacing="0"/>
<path d="M3.994 2c-1.258.014-2.179-.031-2.931.384a1.88 1.88 0 0 0-.838.998C.06 3.821 0 4.342 0 5v7c0 .658.06 1.179.225 1.617.164.439.461.789.838.996.752.415 1.673.372 2.931.387h8.012c1.258-.014 2.179.03 2.932-.385a1.88 1.88 0 0 0 .838-.998c.164-.438.224-.96.224-1.617V5c0-.658-.06-1.18-.225-1.618a1.88 1.88 0 0 0-.837-.996c-.753-.415-1.674-.371-2.932-.386H3.998zM4 3h8c1.259.015 2.09.06 2.455.261.184.101.287.213.385.473.097.26.16.673.16 1.266v7c0 .592-.063 1.006-.16 1.266-.098.26-.202.371-.385.472-.366.202-1.196.247-2.455.262H4c-1.259-.015-2.09-.06-2.455-.262-.184-.1-.287-.213-.385-.472C1.062 13.006 1 12.592 1 12V5c0-.593.062-1.006.16-1.266s.201-.372.385-.473C1.91 3.06 2.74 3.014 4 3" color="#000" font-family="sans-serif" overflow="visible" style="font-feature-settings:normal;font-variant-alternates:normal;font-variant-caps:normal;font-variant-ligatures:normal;font-variant-numeric:normal;font-variant-position:normal;isolation:auto;mix-blend-mode:normal;shape-padding:0;text-decoration-color:#000;text-decoration-line:none;text-decoration-style:solid;text-indent:0;text-orientation:mixed;text-transform:none;white-space:normal"/>
<path d="M4.994 4c-.63.006-1.106.008-1.506.054s-.763.14-1.037.414-.37.64-.412 1.037S2 6.875 2 7.5h1c0-.626.001-1.588.033-1.89.032-.3.09-.397.125-.433s.138-.094.444-.129c.304-.035.77-.042 1.398-.049h5c.627.008 2.092.014 2.396.049.306.035.41.093.446.129.035.036.092.132.125.434.032.3.033 1.263.033 1.889h1c0-.624.003-1.598-.04-1.995-.042-.397-.137-.764-.411-1.037s-.638-.368-1.038-.414c-.399-.046-1.876-.047-2.505-.055H4.998z" color="#000" font-family="sans-serif" overflow="visible" style="font-feature-settings:normal;font-variant-alternates:normal;font-variant-caps:normal;font-variant-ligatures:normal;font-variant-numeric:normal;font-variant-position:normal;isolation:auto;mix-blend-mode:normal;shape-padding:0;text-decoration-color:#000;text-decoration-line:none;text-decoration-style:solid;text-indent:0;text-orientation:mixed;text-transform:none;white-space:normal"/>
</g>
</svg>
