<svg xmlns="http://www.w3.org/2000/svg" width="16" height="16" viewBox="-3 -3 22 22">
<g fill="#dedede" transform="translate(-652 -240)">
<path d="M656.99 240c-1.258.015-2.179-.03-2.932.385a1.88 1.88 0 0 0-.837.998c-.165.438-.225.96-.225 1.617v10c0 .658.06 1.179.225 1.617.164.439.461.789.837.996.753.415 1.674.372 2.932.387h5.012c1.258-.015 2.179.03 2.932-.385a1.88 1.88 0 0 0 .838-.998c.164-.438.224-.96.224-1.617v-10c0-.658-.06-1.179-.225-1.617a1.88 1.88 0 0 0-.837-.996c-.753-.415-1.674-.372-2.932-.387h-5.008zm.006 1h5c1.259.015 2.09.06 2.455.262.184.1.287.213.385.472.097.26.16.674.16 1.266v10c0 .592-.063 1.006-.16 1.266-.098.26-.202.371-.385.472-.366.202-1.196.247-2.455.262h-5c-1.259-.015-2.09-.06-2.455-.262-.183-.1-.287-.213-.385-.472-.097-.26-.16-.674-.16-1.266v-10c0-.592.063-1.006.16-1.266.098-.26.203-.371.387-.472.366-.202 1.194-.247 2.453-.262" color="#000" font-family="sans-serif" font-weight="400" overflow="visible" style="font-feature-settings:normal;font-variant-alternates:normal;font-variant-caps:normal;font-variant-ligatures:normal;font-variant-numeric:normal;font-variant-position:normal;isolation:auto;mix-blend-mode:normal;shape-padding:0;text-decoration-color:#000;text-decoration-line:none;text-decoration-style:solid;text-indent:0;text-orientation:mixed;text-transform:none;white-space:normal"/>
<path d="M655.5 242c-.277 0-.5.223-.5.5v4c0 .277.223.5.5.5h8c.277 0 .5-.223.5-.5v-4c0-.277-.223-.5-.5-.5zm.75 1h6.5a.25.25 0 0 1 .25.25v2.5a.25.25 0 0 1-.25.25h-6.5a.25.25 0 0 1-.25-.25v-2.5a.25.25 0 0 1 .25-.25"/>
<rect width="1" height="4" x="656" y="248.5" rx=".5" ry=".5"/>
<rect width="4" height="1" x="654.5" y="250" rx=".5" ry=".5"/>
<rect width="2" height="2" x="662" y="249" rx="1" ry="1"/>
<rect width="2" height="2" x="660" y="251" rx="1" ry="1"/>
</g>
</svg>
