<svg xmlns="http://www.w3.org/2000/svg" width="16" height="16" viewBox="-3 -3 22 22">
<style id="current-color-scheme" type="text/css">
.ColorScheme-Contrast{color:#dedede}
</style>
<g class="ColorScheme-Contrast" style="fill:currentColor">
<path d="M5.994 0C4.736.015 3.815-.03 3.062.385a1.88 1.88 0 0 0-.837.998C2.06 1.82 2 2.343 2 3v10c0 .658.06 1.179.225 1.617.164.439.461.789.837.996.753.415 1.674.372 2.932.387h5.012c1.258-.015 2.179.03 2.932-.385a1.88 1.88 0 0 0 .837-.998c.165-.438.225-.96.225-1.617V3c0-.658-.06-1.179-.225-1.617a1.88 1.88 0 0 0-.838-.996C13.185-.028 12.264.015 11.006 0H5.998zM6 1h5c1.259.015 2.09.06 2.455.262.184.1.287.213.385.472.097.26.16.674.16 1.266v10c0 .592-.063 1.006-.16 1.266-.098.26-.202.371-.385.472-.366.202-1.197.247-2.455.262H6c-1.259-.015-2.09-.06-2.455-.262-.184-.1-.287-.213-.385-.472C3.063 14.006 3 13.592 3 13V3c0-.592.063-1.006.16-1.266.098-.26.203-.371.387-.472C3.913 1.06 4.74 1.015 6 1" font-family="sans-serif" font-weight="400" overflow="visible"/>
<path d="M8 4q-.426 0-.799.166a1.85 1.85 0 0 0-.646.46v.003l-.002.002a2.2 2.2 0 0 0-.409.719 2.7 2.7 0 0 0-.144.9q-.001.492.145.908.143.408.408.711l.002.002c.18.2.398.358.642.469l.002.002h.002c.247.106.517.158.8.158.281 0 .549-.052.796-.158V8.34a1.85 1.85 0 0 0 .635-.469q.272-.303.418-.713a2.7 2.7 0 0 0 .144-.908H10q0-.484-.144-.898a2.1 2.1 0 0 0-.418-.723 1.8 1.8 0 0 0-.639-.463A1.95 1.95 0 0 0 8 4m0 1c.552 0 1 .56 1 1.25S8.552 7.5 8 7.5s-1-.56-1-1.25S7.448 5 8 5m0 4v.002C5.002 9.01 5 11 5 11v.998L8 12c1.25 0 2.5-.003 3-.004v-.998S10.998 9.008 8 9m0 1.002c1.997.004 1.893.99 1.893.99l.002.008h-3.79l.002-.006s-.104-.986 1.893-.99zM12 1h1v14h-1z"/>
</g>
</svg>
