<svg xmlns="http://www.w3.org/2000/svg" width="16" height="16" viewBox="-3 -3 22 22">
<style id="current-color-scheme" type="text/css">
.ColorScheme-Text{color:#fcfcfc}
</style>
<g class="ColorScheme-Text" style="fill:currentColor">
<path d="M8 5a3 3 0 0 0-3 3 3 3 0 0 0 3 3 3 3 0 0 0 3-3 3 3 0 0 0-3-3m0 1.5A1.5 1.5 0 0 1 9.5 8 1.5 1.5 0 0 1 8 9.5 1.5 1.5 0 0 1 6.5 8 1.5 1.5 0 0 1 8 6.5"/>
<path d="M8 0a8 8 0 0 0-8 8 8 8 0 0 0 8 8 8 8 0 0 0 8-8 8 8 0 0 0-8-8m0 1a7 7 0 0 1 7 7 7 7 0 0 1-7 7 7 7 0 0 1-7-7 7 7 0 0 1 7-7"/>
<path d="M12.503 11.001c-.011 0-.014.019-.021.028l-9.85 2.999c-.986.5-.64 1.496-.158 1.814.596.368 1.263-.004 1.867-.139L12.7 11.94c.333-.094.431-.712.077-.852a.6.6 0 0 0-.274-.086z"/>
</g>
</svg>
