<svg xmlns="http://www.w3.org/2000/svg" width="16" height="16" viewBox="-3 -3 22 22">
<style id="current-color-scheme" type="text/css">
.ColorScheme-Text{color:#fcfcfc}
</style>
<path d="M8 4c-1.453 0-2.721.797-3.422 1.967A2.73 2.73 0 0 0 2.75 5.25C1.243 5.25 0 6.493 0 8s1.243 2.75 2.75 2.75c.702 0 1.34-.277 1.828-.717C5.278 11.203 6.547 12 8 12s2.721-.797 3.422-1.967c.488.44 1.126.717 1.828.717C14.757 10.75 16 9.507 16 8s-1.243-2.75-2.75-2.75c-.702 0-1.34.277-1.828.717C10.722 4.797 9.453 4 8 4m0 2c1.116 0 2 .884 2 2s-.884 2-2 2-2-.884-2-2 .884-2 2-2M2.75 7.25c.426 0 .75.324.75.75s-.324.75-.75.75S2 8.426 2 8s.324-.75.75-.75m10.5 0c.426 0 .75.324.75.75s-.324.75-.75.75-.75-.324-.75-.75.324-.75.75-.75" class="ColorScheme-Text" style="fill:currentColor"/>
</svg>
