<svg xmlns="http://www.w3.org/2000/svg" width="16" height="16" viewBox="-3 -3 22 22">
<style id="current-color-scheme" type="text/css">
.ColorScheme-Contrast{color:#dedede}
</style>
<path d="M8.121 2C5.818 2 3.764 3.354 2.764 5.323a5.9 5.9 0 0 0 .04 5.427C3.817 12.68 5.846 14 8.121 14a5.6 5.6 0 0 0 3.876-1.537C13.161 11.365 13.88 9.772 13.88 8q-.002-.582-.102-1.134H8.121v2.268h3.422a3.6 3.6 0 0 1-1.312 1.924 3.4 3.4 0 0 1-2.036.671c-1.585 0-2.975-1.057-3.459-2.519a3.6 3.6 0 0 1-.18-1.128c0-.432.074-.846.214-1.23.513-1.41 1.876-2.42 3.425-2.42a3.4 3.4 0 0 1 2.236.832l1.634-1.659A5.6 5.6 0 0 0 8.12 2" class="ColorScheme-Contrast" style="fill:currentColor"/>
</svg>
