<svg xmlns="http://www.w3.org/2000/svg" width="16" height="16" viewBox="-3 -3 22 22">
<style id="current-color-scheme" type="text/css">
.ColorScheme-Contrast{color:#dedede}
</style>
<path d="M2 0C.892 0 0 .892 0 2v2h1V2c0-.554.446-1 1-1h2V0zm10 0v1h2c.554 0 1 .446 1 1v2h1V2c0-1.108-.892-2-2-2zM6 4c-1.108 0-2 .892-2 2v4c0 1.108.892 2 2 2h6c1.108 0 2-.892 2-2V6c0-1.108-.892-2-2-2zM4 8 2 6v4zm4.947-3H9a3 3 0 0 1 3 3 3 3 0 0 1-3 3 3 3 0 0 1-3-3 3 3 0 0 1 2.947-3m.004 1A2 2 0 0 0 7 8a2 2 0 0 0 2 2 2 2 0 0 0 2-2 2 2 0 0 0-2-2zM0 12v2c0 1.108.892 2 2 2h2v-1H2c-.554 0-1-.446-1-1v-2zm15 0v2c0 .554-.446 1-1 1h-2v1h2c1.108 0 2-.892 2-2v-2z" class="ColorScheme-Contrast" style="fill:currentColor"/>
</svg>
