<svg xmlns="http://www.w3.org/2000/svg" width="16" height="16" viewBox="-3 -3 22 22">
<g fill="#dedede">
<path d="M4.5 8c-.28 0-.5.22-.5.5v4c0 .28.22.5.5.5h7c.28 0 .5-.22.5-.5v-4c0-.28-.22-.5-.5-.5zm1 1c.28 0 .5.22.5.5s-.22.5-.5.5-.5-.22-.5-.5.22-.5.5-.5m2 0h3c.28 0 .5.22.5.5s-.22.5-.5.5h-3c-.28 0-.5-.22-.5-.5s.22-.5.5-.5m-2 2c.28 0 .5.22.5.5s-.22.5-.5.5-.5-.22-.5-.5.22-.5.5-.5m2 0h3c.28 0 .5.22.5.5s-.22.5-.5.5h-3c-.28 0-.5-.22-.5-.5s.22-.5.5-.5"/>
<path d="M10.826 0 15 4.174V1c0-.554-.446-1-1-1z" style="paint-order:stroke fill markers"/>
<path d="M3 0C1.91 0 1 .91 1 2v12c0 1.09.91 2 2 2h10c1.09 0 2-.91 2-2V6a1 1 0 0 0-.293-.707l-5-5A1 1 0 0 0 9 0zm0 1h6l5 5v8c0 .554-.446 1-1 1H3c-.554 0-1-.446-1-1V2c0-.554.446-1 1-1" color="#000" style="font-feature-settings:normal;font-variant-alternates:normal;font-variant-caps:normal;font-variant-ligatures:normal;font-variant-numeric:normal;font-variant-position:normal;isolation:auto;mix-blend-mode:normal;paint-order:stroke fill markers;shape-padding:0;text-decoration-color:#000;text-decoration-line:none;text-decoration-style:solid;text-indent:0;text-orientation:mixed;text-transform:none;white-space:normal"/>
</g>
</svg>
