<svg xmlns="http://www.w3.org/2000/svg" width="16" height="16" viewBox="-3 -3 22 22" version="1.0">
<style id="current-color-scheme" type="text/css">
.ColorScheme-Text{color:#fcfcfc}
</style>
<g fill="currentColor" stroke-width="0" class="ColorScheme-Text" style="fill:currentColor">
<path fill-rule="evenodd" d="m1 4 7 4-7 4z"/>
<path d="M15 8.001c0-3.864-3.23-7-7-7-2.176 0-4.268 1.066-5.519 2.693l.88.503C4.426 2.86 6.183 2 8 2c3.21 0 6 2.713 6 6s-2.79 6-6 6c-1.812 0-3.662-.975-4.729-2.305l-.876.5C3.647 13.818 5.83 15.002 8 15.002c3.77 0 7-3.136 7-7z"/>
<path d="M12 8c0-2.362-1.692-4-4-4-1.228 0-2.101.345-2.867 1.21l.907.518C6.61 5.152 7.14 5 8 5c1.744 0 3 1.203 3 3s-1.256 3-3 3c-.876 0-1.495-.23-2.068-.826l-.896.512C5.802 11.551 6.772 12 8.001 12c2.307 0 4-1.638 4-4"/>
</g>
</svg>
