<svg xmlns="http://www.w3.org/2000/svg" width="16" height="16" viewBox="-3 -3 22 22">
<path fill="#fcfcfc" d="M3.995 0c-1.258.015-2.18-.028-2.931.387a1.88 1.88 0 0 0-.838.996C.06 1.82 0 2.343 0 3v4h.01c-.028.332.03.678.18 1.006.203.447.544.878 1.03 1.365l5.41 5.408c.486.488.918.828 1.364 1.032.447.203.929.244 1.362.119.865-.25 1.514-.966 2.457-1.887l.002-.004 2.228-2.227v-.002c.92-.943 1.635-1.591 1.885-2.457a1.97 1.97 0 0 0-.117-1.359c-.203-.447-.544-.878-1.031-1.365L9.37 1.22C8.885.733 8.454.392 8.007.189A2 2 0 0 0 7 .007V0H3.997zM4 1h3s.335.035.572.143c.265.12.618.381 1.057.82l5.41 5.408c.439.439.698.792.818 1.057s.126.424.065.635c-.122.42-.704 1.07-1.625 2.013l-.004.004-2.22 2.217c-.942.921-1.59 1.503-2.011 1.625-.21.06-.37.056-.634-.064-.265-.12-.618-.38-1.057-.819l-5.41-5.41c-.44-.439-.698-.79-.818-1.055C1.036 7.337 1 7 1 7V3c0-.592.063-1.006.16-1.266.098-.26.202-.371.385-.472C1.91 1.06 2.74 1.015 4 1M2.95 2.002a1 1 0 0 0-.948 1.049 1 1 0 0 0 1.049.947 1 1 0 0 0 .947-1.049 1 1 0 0 0-1.05-.947z" color="#000" font-family="sans-serif" font-weight="400" overflow="visible" style="font-feature-settings:normal;font-variant-alternates:normal;font-variant-caps:normal;font-variant-ligatures:normal;font-variant-numeric:normal;font-variant-position:normal;isolation:auto;mix-blend-mode:normal;shape-padding:0;text-decoration-color:#000;text-decoration-line:none;text-decoration-style:solid;text-indent:0;text-orientation:mixed;text-transform:none;white-space:normal"/>
</svg>
