<svg xmlns="http://www.w3.org/2000/svg" width="16" height="16" viewBox="-3 -3 22 22">
<style id="current-color-scheme" type="text/css">
.ColorScheme-Text{color:#fcfcfc}
</style>
<g class="ColorScheme-Text" style="fill:currentColor">
<path d="M5 2h1L4 7H3z"/>
<path d="M6 2H5l2 5h1z"/>
<path d="M4.5 5.5h2V5h-2zM3 6.5h1.5V7H3zm3.5 0H8V7H6.5z"/>
<path d="M3 10h9v1H3zm0 2h9v1H3z" opacity=".5"/>
<path d="M4.994 0C3.736.015 2.815-.03 2.063.385a1.88 1.88 0 0 0-.838.998C1.06 1.82 1 2.343 1 3v10c0 .658.06 1.179.225 1.617.164.439.461.789.838.996.752.415 1.673.372 2.931.387h5.012c1.258-.015 2.179.03 2.932-.385a1.88 1.88 0 0 0 .838-.998c.164-.438.224-.96.224-1.617V3c0-.658-.06-1.179-.225-1.617a1.88 1.88 0 0 0-.837-.996C12.185-.028 11.264.015 10.006 0H4.998zM5 1h5c1.259.015 2.09.06 2.455.262.184.1.287.213.385.472.097.26.16.674.16 1.266v5H2V3c0-.592.063-1.006.16-1.266.098-.26.202-.371.385-.472C2.91 1.06 3.74 1.015 5 1M2 9h11v4c0 .592-.062 1.006-.16 1.266s-.201.371-.385.472c-.366.202-1.196.247-2.455.262H5c-1.259-.015-2.09-.06-2.455-.262-.184-.1-.287-.213-.385-.472C2.062 14.006 2 13.592 2 13z"/>
</g>
</svg>
