<svg xmlns="http://www.w3.org/2000/svg" width="16" height="16" viewBox="-3 -3 22 22">
<style id="current-color-scheme" type="text/css">
.ColorScheme-Contrast{color:#dedede}
</style>
<path d="M2 1C.892 1 0 1.892 0 3v8c0 1.108.892 2 2 2h1.6l2 2 2-2H14c1.108 0 2-.892 2-2V3c0-1.108-.892-2-2-2zm3.797 1H14c.554 0 1 .446 1 1v8c0 .554-.446 1-1 1h-1.387c1.689-2.158 1.986-5.26.041-7.435a4.8 4.8 0 0 0-3.466-1.586c-.954-.01-2.3.299-3.061.998-1.19 1.093-1.541 3.05-.363 4.289.415.435 1.244.701 2.049.72 1.1-.06 1.818-.766 1.918-1.67.003-1.34-1.076-1.376-1.563-.968-.193.209-.244.57-.01.77.123.105.336.132.446-.008.055-.07.07-.186-.01-.243-.037-.025-.096-.03-.123.012-.007.016-.01.042.01.053.008.004.023.004.023-.004v-.006c-.011-.003 0-.007 0-.008.007-.003.018.005.018.012.005.02-.017.04-.036.045-.05.01-.083-.035-.093-.078-.017-.096.076-.169.164-.18.177-.02.308.149.32.31.024.307-.269.525-.55.538-.5.022-1.047-.454-1.057-.918-.014-.78.469-1.618 1.46-1.643 1.844-.023 2.298 1.464 2.27 2.565C10.957 9.27 9.945 10.922 7.37 11 4.942 10.9 2.87 8.307 3 6.01 3.095 4.33 4.315 2.947 5.797 2" class="ColorScheme-Contrast" style="fill:currentColor"/>
</svg>
