<svg xmlns="http://www.w3.org/2000/svg" width="16" height="16" viewBox="-3 -3 22 22">
<g fill="#dedede" color="#000">
<path d="m531-99 .285 3.043a1 1 0 0 1 .172 1.846l.053.552c.044.354-.217.625-.51.604-.257-.018-.55-.294-.484-.604l.048-.543a1 1 0 0 1 .166-1.86zm-1-3h2v1h-2z" style="isolation:auto;mix-blend-mode:normal;paint-order:normal" transform="translate(-523 105)"/>
<path d="M531.03-104.5c-.686 0-1.371.232-1.928.7a3.006 3.006 0 0 0-.67 3.798l.866-.5a1.994 1.994 0 0 1 .447-2.531c.746-.626 1.824-.626 2.57 0s.934 1.688.447 2.531l.866.5a3.006 3.006 0 0 0-.67-3.799 3 3 0 0 0-1.928-.699" style="block-progression:tb;isolation:auto;mix-blend-mode:normal;paint-order:normal;text-decoration-color:#000;text-decoration-line:none;text-decoration-style:solid;text-indent:0;text-transform:none;white-space:normal" transform="translate(-523 105)"/>
<path d="M296.78-456.22h2v1h-2z" style="isolation:auto;mix-blend-mode:normal;paint-order:normal" transform="rotate(46.328 -384.206 -558.69)"/>
<path d="M531-100a5 5 0 1 0 0 10 5 5 0 0 0 0-10m0 1a4 4 0 1 1 0 8 4 4 0 0 1 0-8" style="isolation:auto;mix-blend-mode:normal;paint-order:normal" transform="translate(-523 105)"/>
</g>
</svg>
