<svg xmlns="http://www.w3.org/2000/svg" width="16" height="16" viewBox="-3 -3 22 22">
<style id="current-color-scheme" type="text/css">
.ColorScheme-Text{color:#fcfcfc}
</style>
<g class="ColorScheme-Text" style="fill:currentColor">
<path d="M5.795.313A8 8 0 0 0 2.72 2.002a.5.5 0 0 1 .127.268c.033.231.112.492.218.763a7 7 0 0 1 2.239-1.492c.126-.427.276-.845.49-1.228m4.76.113a.5.5 0 0 1-.17.25 3.6 3.6 0 0 0-.549.57 7 7 0 0 1 2.402 1.184 6 6 0 0 1 1.264-.194h.035a8 8 0 0 0-2.982-1.81M7.998.5a7.5 7.5 0 0 0-1.181.12c-.104.164-.19.347-.272.532A7 7 0 0 1 7.906 1H8a7 7 0 0 1 .813.049 9 9 0 0 1 .306-.397C8.747.594 8.38.502 8.002.5zm5.535 2.736c-.119.004-.24.031-.361.05a7 7 0 0 1 1.256 1.944 9 9 0 0 1 .4.055c-.29-.722-.593-1.442-1.092-2.043-.068 0-.135-.008-.203-.006M2.23 3.45c-.495.634-.98 1.281-1.2 1.91.087.163.2.318.314.473a7 7 0 0 1 1.04-2.012 9 9 0 0 1-.154-.37M.244 6.082a8 8 0 0 0-.238 1.644L0 7.941V8l.004.238a8 8 0 0 0 .16 1.336.5.5 0 0 1 .295.024c.22.087.485.147.775.19A7 7 0 0 1 1 8a7 7 0 0 1 .056-.893 6 6 0 0 1-.812-1.025m14.523.13A7 7 0 0 1 14.999 8a7 7 0 0 1-.056.887c.304.318.589.654.814 1.025a8 8 0 0 0 .225-1.408 8 8 0 0 0 .017-.455V8l-.003-.238a8 8 0 0 0-.163-1.34.5.5 0 0 1-.275-.016 4.5 4.5 0 0 0-.791-.193m-.11 3.944a7 7 0 0 1-1.042 2.024 9 9 0 0 1 .152.365c.469-.6.93-1.207 1.2-1.922a4 4 0 0 0-.31-.467m-13.48.569c.285.706.583 1.408 1.067 1.998.182.004.37-.014.559-.036a7 7 0 0 1-1.229-1.912 9 9 0 0 1-.396-.05m11.757 2.24a7 7 0 0 1-2.233 1.492 6 6 0 0 1-.484 1.227 8 8 0 0 0 3.064-1.688.5.5 0 0 1-.127-.266 3.6 3.6 0 0 0-.22-.765m-9.172.605a6 6 0 0 1-1.3.194 8 8 0 0 0 2.985 1.81.5.5 0 0 1 .17-.25c.183-.145.366-.344.547-.57a7 7 0 0 1-2.402-1.184m5.7 1.276A7 7 0 0 1 8 15a7 7 0 0 1-.81-.047 9 9 0 0 1-.307.395c.373.058.74.15 1.119.152a7.5 7.5 0 0 0 1.191-.121 4 4 0 0 0 .27-.533" opacity=".35"/>
<path d="M8 0a8 8 0 0 0-1.518.152c-.777 1.1-1.053 2.676-1.02 4.043a4.6 4.6 0 0 1 2.606-.767C8.531 2.22 9.245.94 10.074.283A8 8 0 0 0 8 0M2.354 2.342C1.43 3.266.752 4.372.437 5.389c.565 1.208 1.79 2.25 2.989 2.904a4.6 4.6 0 0 1 .648-2.639C3.26 4.65 2.506 3.39 2.354 2.342m11.164.394c-1.2.038-2.477.54-3.498 1.166a4.6 4.6 0 0 1 1.964 1.868c1.137-.186 2.554-.258 3.743.166a8 8 0 0 0-1.702-3.186h-.002a4 4 0 0 0-.505-.014M6.305 5.01c-.16.016-.305.168-.305.318v5.344c0 .252.258.41.465.283l4.38-2.672a.336.336 0 0 0 0-.566l-4.38-2.672a.27.27 0 0 0-.16-.035m6.258 2.69a5 5 0 0 1 .01.303 4.6 4.6 0 0 1-.65 2.342c.817 1.005 1.572 2.264 1.725 3.312a8 8 0 0 0 1.91-3.064c-.565-1.213-1.793-2.239-2.995-2.893M.273 10.063a8 8 0 0 0 1.702 3.187h.002c1.328.115 2.825-.432 3.99-1.143a4.6 4.6 0 0 1-1.969-1.877c-1.277.203-2.742.223-3.725-.168zm10.264 1.746a4.6 4.6 0 0 1-2.543.775h-.066c-.462 1.204-1.174 2.478-2 3.133A8 8 0 0 0 8 16a8 8 0 0 0 1.53-.154c.766-1.095 1.041-2.67 1.007-4.037"/>
</g>
</svg>
