<svg xmlns="http://www.w3.org/2000/svg" width="16" height="16" viewBox="-3 -3 22 22">
<style id="current-color-scheme" type="text/css">
.ColorScheme-Text{color:#fcfcfc}
</style>
<path d="M8 0C6.338 0 5 1.338 5 3v5c0 1.662 1.338 3 3 3s3-1.338 3-3V3c0-1.662-1.338-3-3-3m0 1c1.108 0 2 .892 2 2v5c0 1.108-.892 2-2 2s-2-.892-2-2V3c0-1.108.892-2 2-2M2 6v1.936a6.05 6.05 0 0 0 5.5 6.037V16h1v-2.018a6.05 6.05 0 0 0 5.629-6.047V6H13v2c0 2.77-2.23 5-5 5s-5-2.23-5-5V6z" class="ColorScheme-Text" style="fill:currentColor"/>
</svg>
