<svg xmlns="http://www.w3.org/2000/svg" width="16" height="16" viewBox="-3 -3 22 22">
<g fill="#fcfcfc" transform="translate(-483 105)">
<path d="M491-104c-1.662 0-3 1.338-3 3v4c0 1.662 1.338 3 3 3 .381 0 .745-.07 1.08-.2a3.5 3.5 0 0 1 1.899-2.448q.02-.174.021-.352v-4c0-1.662-1.338-3-3-3m0 1c1.108 0 2 .892 2 2v4c0 1.108-.892 2-2 2s-2-.892-2-2v-4c0-1.108.892-2 2-2" class="ColorScheme-Text"/>
<path d="M486.5-98.998c-.277 0-.5.223-.5.5v1.5a4.99 4.99 0 0 0 4.5 4.975v1.025h-2a.499.499 0 1 0 0 1h5a.5.5 0 0 0 .477-.357 3.5 3.5 0 0 1-.913-.643H491.5v-1.025a5 5 0 0 0 .773-.141 3.5 3.5 0 0 1-.248-.967c-.327.086-.67.133-1.025.133-2.216 0-4-1.784-4-4v-1.5c0-.277-.223-.5-.5-.5m9 0c-.277 0-.5.223-.5.5v1.533a3.5 3.5 0 0 1 .5-.035 3.5 3.5 0 0 1 .5.035v-1.533c0-.277-.223-.5-.5-.5" class="ColorScheme-Text"/>
<circle cx="495.5" cy="-93.5" r="2.5" color="#000" style="isolation:auto;mix-blend-mode:normal;paint-order:normal"/>
</g>
</svg>
