<svg xmlns="http://www.w3.org/2000/svg" width="16" height="16" viewBox="-3 -3 22 22">
<style id="current-color-scheme" type="text/css">
.ColorScheme-Contrast{color:#dedede}
</style>
<path d="M5 1C3.338 1 2 2.338 2 4v2.357c.283-.406.62-.773 1-1.09V4c0-1.108.892-2 2-2h8c1.108 0 2 .892 2 2v8c0 1.108-.892 2-2 2H9.643A5.5 5.5 0 0 1 6.5 15H13c1.662 0 3-1.338 3-3V4c0-1.662-1.338-3-3-3zm1.5 4A4.5 4.5 0 0 0 2 9.5a4.5 4.5 0 0 0 .99 2.803L.332 14.96a.499.499 0 1 0 .707.707l2.658-2.658A4.5 4.5 0 0 0 6.5 14a4.5 4.5 0 1 0 0-9m0 1a3.5 3.5 0 1 1 0 7 3.5 3.5 0 0 1 0-7" class="ColorScheme-Contrast" style="fill:currentColor"/>
</svg>
