<svg xmlns="http://www.w3.org/2000/svg" width="16" height="16" viewBox="-3 -3 22 22">
<style id="current-color-scheme" type="text/css">
.ColorScheme-Contrast{color:#dedede}
</style>
<g class="ColorScheme-Contrast" style="fill:currentColor">
<path d="M3 14.5A1.5 1.5 0 0 1 1.5 16 1.5 1.5 0 0 1 0 14.5 1.5 1.5 0 0 1 1.5 13 1.5 1.5 0 0 1 3 14.5"/>
<path d="M7 14.5A1.5 1.5 0 0 1 5.5 16 1.5 1.5 0 0 1 4 14.5 1.5 1.5 0 0 1 5.5 13 1.5 1.5 0 0 1 7 14.5" opacity=".3"/>
<path d="M11 14.5A1.5 1.5 0 0 1 9.5 16 1.5 1.5 0 0 1 8 14.5 1.5 1.5 0 0 1 9.5 13a1.5 1.5 0 0 1 1.5 1.5m4 0a1.5 1.5 0 0 1-1.5 1.5 1.5 1.5 0 0 1-1.5-1.5 1.5 1.5 0 0 1 1.5-1.5 1.5 1.5 0 0 1 1.5 1.5"/>
<path d="M3 10.5A1.5 1.5 0 0 1 1.5 12 1.5 1.5 0 0 1 0 10.5 1.5 1.5 0 0 1 1.5 9 1.5 1.5 0 0 1 3 10.5" opacity=".3"/>
<path d="M7 10.5A1.5 1.5 0 0 1 5.5 12 1.5 1.5 0 0 1 4 10.5 1.5 1.5 0 0 1 5.5 9 1.5 1.5 0 0 1 7 10.5"/>
<path d="M11 10.5A1.5 1.5 0 0 1 9.5 12 1.5 1.5 0 0 1 8 10.5 1.5 1.5 0 0 1 9.5 9a1.5 1.5 0 0 1 1.5 1.5m4 0a1.5 1.5 0 0 1-1.5 1.5 1.5 1.5 0 0 1-1.5-1.5A1.5 1.5 0 0 1 13.5 9a1.5 1.5 0 0 1 1.5 1.5" opacity=".3"/>
<path d="M11 6.5A1.5 1.5 0 0 1 9.5 8 1.5 1.5 0 0 1 8 6.5 1.5 1.5 0 0 1 9.5 5 1.5 1.5 0 0 1 11 6.5"/>
<path d="M15 6.5A1.5 1.5 0 0 1 13.5 8 1.5 1.5 0 0 1 12 6.5 1.5 1.5 0 0 1 13.5 5 1.5 1.5 0 0 1 15 6.5" opacity=".3"/>
<path d="M15 2.5A1.5 1.5 0 0 1 13.5 4 1.5 1.5 0 0 1 12 2.5 1.5 1.5 0 0 1 13.5 1 1.5 1.5 0 0 1 15 2.5"/>
</g>
</svg>
