<svg width="16" height="16" version="1.1" viewBox="0 0 4.233 4.233" xmlns="http://www.w3.org/2000/svg">
     width="16" height="16" viewBox="-3 -3 22 22"
 <style id="current-color-scheme" type="text/css">.ColorScheme-Text{color:#fcfcfc}</style>
 <g class="ColorScheme-Text" style="fill:currentColor">
  <path d="M1.455.794a.397.397 0 0 0-.132.77v2.67h.264V4.1c0-.22.177-.397.397-.397h.265a.663.663 0 0 0 .661-.661V2.49a.397.397 0 1 0-.264 0v.553c0 .22-.176.397-.397.397h-.265a.65.65 0 0 0-.397.136V1.564a.397.397 0 0 0-.132-.77m0 .264a.13.13 0 0 1 .132.133.13.13 0 0 1-.132.132.13.13 0 0 1-.132-.132.13.13 0 0 1 .132-.133m1.323.926a.13.13 0 0 1 .132.133.13.13 0 0 1-.132.132.13.13 0 0 1-.132-.132.13.13 0 0 1 .132-.133"/>
  <path d="M.794 0a.53.53 0 0 0-.53.53v3.174c0 .293.237.53.53.53H3.44a.53.53 0 0 0 .529-.53V.53a.53.53 0 0 0-.53-.53zm0 .265H3.44c.146 0 .264.118.264.264v3.175a.264.264 0 0 1-.264.265H.794a.264.264 0 0 1-.265-.265V.53A.265.265 0 0 1 .794.265"/>
 </g>
</svg>
