<svg xmlns="http://www.w3.org/2000/svg" width="16" height="16" viewBox="-3 -3 22 22">
<g fill="#dedede">
<path d="M7.5.988a7.48 7.48 0 0 0-5.305 2.196c-2.926 2.925-2.926 7.683 0 10.609l.707-.707a6.494 6.494 0 0 1 0-9.195 6.494 6.494 0 0 1 9.196 0 6.494 6.494 0 0 1 0 9.195l.707.707c2.926-2.926 2.926-7.684 0-10.61A7.48 7.48 0 0 0 7.5.989z" color="#000" font-family="sans-serif" font-weight="400" overflow="visible" style="font-feature-settings:normal;font-variant-alternates:normal;font-variant-caps:normal;font-variant-ligatures:normal;font-variant-numeric:normal;font-variant-position:normal;isolation:auto;mix-blend-mode:normal;shape-padding:0;text-decoration-color:#000;text-decoration-line:none;text-decoration-style:solid;text-indent:0;text-orientation:mixed;text-transform:none;white-space:normal"/>
<path d="M7.5 3.992a4.5 4.5 0 0 0-3.184 1.305 4.45 4.45 0 0 0 0 6.32l.705-.71a3.43 3.43 0 0 1 0-4.9 3.523 3.523 0 0 1 4.958 0 3.43 3.43 0 0 1 0 4.9l.705.71a4.45 4.45 0 0 0 0-6.32A4.5 4.5 0 0 0 7.5 3.992" color="#000" font-family="sans-serif" font-weight="400" overflow="visible" style="font-feature-settings:normal;font-variant-alternates:normal;font-variant-caps:normal;font-variant-ligatures:normal;font-variant-numeric:normal;font-variant-position:normal;isolation:auto;mix-blend-mode:normal;shape-padding:0;text-decoration-color:#000;text-decoration-line:none;text-decoration-style:solid;text-indent:0;text-orientation:mixed;text-transform:none;white-space:normal"/>
<path d="M7.5 7A1.5 1.5 0 0 0 6 8.5a1.5 1.5 0 0 0 1 1.412V16h1V9.912A1.5 1.5 0 0 0 9 8.5 1.5 1.5 0 0 0 7.5 7"/>
</g>
</svg>
