<svg xmlns="http://www.w3.org/2000/svg" width="16" height="16" viewBox="-3 -3 22 22">
<g fill="#fcfcfc" transform="translate(-223 -215)">
<path d="M238 223v7h-12zm-1 2-7 4h7z"/>
<path fill-rule="evenodd" d="M226 216c-1.108 0-2 .892-2 2v10h1v-10c0-.554.446-1 1-1h10c.554 0 1 .446 1 1v2h1v-2c0-1.108-.892-2-2-2z" style="paint-order:stroke fill markers"/>
<path fill-rule="evenodd" d="M227.5 218a1.5 1.5 0 0 0-1.5 1.5 1.5 1.5 0 0 0 1.5 1.5 1.5 1.5 0 0 0 1.5-1.5 1.5 1.5 0 0 0-1.5-1.5m0 1a.5.5 0 0 1 .5.5.5.5 0 0 1-.5.5.5.5 0 0 1-.5-.5.5.5 0 0 1 .5-.5m0 3a1.5 1.5 0 0 0-1.5 1.5 1.5 1.5 0 0 0 1.5 1.5 1.5 1.5 0 0 0 1.5-1.5 1.5 1.5 0 0 0-1.5-1.5m0 1a.5.5 0 0 1 .5.5.5.5 0 0 1-.5.5.5.5 0 0 1-.5-.5.5.5 0 0 1 .5-.5" style="paint-order:stroke fill markers"/>
<rect width="5" height="1" x="230" y="219" fill-rule="evenodd" rx=".5" ry=".5" style="paint-order:stroke fill markers"/>
<rect width="5" height="1" x="230" y="223" fill-rule="evenodd" rx=".5" ry=".5" style="paint-order:stroke fill markers"/>
</g>
</svg>
