<svg xmlns="http://www.w3.org/2000/svg" width="16" height="16" viewBox="-3 -3 22 22">
<g fill="currentColor" font-family="sans-serif" font-weight="400">
<style id="current-color-scheme" type="text/css">
.ColorScheme-Text{color:#fcfcfc}
</style>
<g class="ColorScheme-Text" style="fill:currentColor">
<path d="M3.994 2c-1.258.015-2.179-.03-2.931.385a1.88 1.88 0 0 0-.838.998C.06 3.82 0 4.343 0 5v7c0 .658.06 1.179.225 1.617.164.439.461.79.838.998.752.416 1.673.37 2.931.385h1.502A6.04 6.04 0 0 1 3.3 12H1V5c0-.592.063-1.006.16-1.266.098-.26.202-.371.385-.472C1.91 3.06 2.74 3.015 4 3h8c1.259.015 2.087.06 2.453.262.184.1.29.212.387.472S15 4.408 15 5v7h-.37a7.3 7.3 0 0 1-.536 1.12l1.213 1.212c.2-.194.363-.434.468-.715.165-.438.225-.96.225-1.617V5c0-.658-.06-1.179-.225-1.617a1.88 1.88 0 0 0-.837-.998c-.753-.416-1.674-.37-2.932-.385H3.998zm2.701 10A2.93 2.93 0 0 0 9 13.105c.946 0 1.766-.432 2.305-1.105H6.959z" overflow="visible" style="font-feature-settings:normal;font-variant-alternates:normal;font-variant-caps:normal;font-variant-ligatures:normal;font-variant-numeric:normal;font-variant-position:normal;isolation:auto;mix-blend-mode:normal;shape-padding:0;text-decoration-color:#000;text-decoration-line:none;text-decoration-style:solid;text-indent:0;text-orientation:mixed;text-transform:none;white-space:normal" transform="translate(.006)"/>
<path d="M9 5c-2.755 0-5 2.245-5 5s2.245 5 5 5 5-2.245 5-5-2.245-5-5-5m0 1.04A3.954 3.954 0 0 1 12.96 10 3.954 3.954 0 0 1 9 13.96 3.95 3.95 0 0 1 5.041 10 3.95 3.95 0 0 1 9 6.04" overflow="visible" style="font-feature-settings:normal;font-variant-alternates:normal;font-variant-caps:normal;font-variant-ligatures:normal;font-variant-numeric:normal;font-variant-position:normal;isolation:auto;mix-blend-mode:normal;shape-padding:0;text-decoration-color:#000;text-decoration-line:none;text-decoration-style:solid;text-indent:0;text-orientation:mixed;text-transform:none;white-space:normal" transform="translate(.006)"/>
<path fill-rule="evenodd" d="m12.353 12.646-.707.708 2.5 2.5.707-.708z" overflow="visible" style="font-feature-settings:normal;font-variant-alternates:normal;font-variant-caps:normal;font-variant-ligatures:normal;font-variant-numeric:normal;font-variant-position:normal;isolation:auto;mix-blend-mode:normal;shape-padding:0;text-decoration-color:#000;text-decoration-line:none;text-decoration-style:solid;text-indent:0;text-orientation:mixed;text-transform:none;white-space:normal" transform="translate(.006)"/>
</g>
</g>
</svg>
