<svg xmlns="http://www.w3.org/2000/svg" width="16" height="16" viewBox="-3 -3 22 22">
<style id="current-color-scheme" type="text/css">
.ColorScheme-Contrast{color:#dedede}
</style>
<path d="M4.994 0C3.736.015 2.815-.029 2.063.387a1.87 1.87 0 0 0-.838.996C1.06 1.821 1 2.343 1 3v10c0 .658.06 1.179.225 1.617.164.439.461.79.838.998.752.415 1.673.37 2.931.385h5.012c1.258-.015 2.179.03 2.932-.385a1.88 1.88 0 0 0 .838-.998c.164-.438.224-.96.224-1.617V3c0-.658-.06-1.177-.224-1.615a1.88 1.88 0 0 0-.838-.998C12.185-.028 11.264.015 10.006 0h-5.01zM5 1h5c1.259.015 2.087.06 2.453.262.184.1.29.213.387.472.098.26.16.674.16 1.266v10c0 .592-.062 1.006-.16 1.266s-.203.373-.387.474c-.366.202-1.194.245-2.453.26H5c-1.259-.015-2.09-.06-2.455-.262-.183-.1-.287-.213-.385-.472C2.063 14.006 2 13.592 2 13V3c0-.592.063-1.006.16-1.266.098-.26.202-.371.385-.472C2.911 1.06 3.742 1.015 5 1m-.748 2.164c-.667 0-.667 1 0 1h2.5v1h-2.5c-.277 0-.5.223-.5.5v4c0 .277.223.5.5.5h1.625l-1.361 2c-.34.5.018 1 .295 1 .441 0 .752-.27.906-.5l1.035-1.553v1.553c0 .667 1 .667 1 0v-1.553l1.035 1.553c.154.23.465.5.906.5.277 0 .635-.5.295-1l-1.361-2h1.625c.277 0 .5-.223.5-.5v-4c0-.277-.223-.5-.5-.5h-2.5v-1h2.5c.667 0 .667-1 0-1h-3zm.75 3h1.75v1h-1.75a.25.25 0 0 1-.25-.25v-.5a.25.25 0 0 1 .25-.25m2.75 0h1.75a.25.25 0 0 1 .25.25v.5a.25.25 0 0 1-.25.25h-1.75zm-2.75 2h1.75v1h-1.75a.25.25 0 0 1-.25-.25v-.5a.25.25 0 0 1 .25-.25m2.75 0h1.75a.25.25 0 0 1 .25.25v.5a.25.25 0 0 1-.25.25h-1.75z" class="ColorScheme-Contrast" style="fill:currentColor"/>
</svg>
