<svg xmlns="http://www.w3.org/2000/svg" width="16" height="16" viewBox="-3 -3 22 22">
<style id="current-color-scheme" type="text/css">
.ColorScheme-Contrast{color:#dedede}
</style>
<path d="M8 0C3.588 0 0 3.588 0 8s3.588 8 8 8a.5.5 0 0 0 .5-.5.5.5 0 0 0-.5-.5c-3.872 0-7-3.128-7-7s3.128-7 7-7 7 3.128 7 7v1.5c0 .831-.669 1.5-1.5 1.5S12 10.331 12 9.5V8a4 4 0 0 0-4-4 4 4 0 0 0-4 4 4 4 0 0 0 4 4 4 4 0 0 0 3.174-1.582A2.49 2.49 0 0 0 13.5 12c1.385 0 2.5-1.115 2.5-2.5V8c0-4.412-3.588-8-8-8m0 5a3 3 0 0 1 3 3 3 3 0 0 1-3 3 3 3 0 0 1-3-3 3 3 0 0 1 3-3" class="ColorScheme-Contrast" style="fill:currentColor"/>
</svg>
