<svg xmlns="http://www.w3.org/2000/svg" width="16" height="16" viewBox="-3 -3 22 22">
<style id="current-color-scheme" type="text/css">
.ColorScheme-Contrast{color:#dedede}
</style>
<g class="ColorScheme-Contrast" style="fill:currentColor">
<path d="M8 0C3.58 0 0 3.58 0 8c0 4.41 3.58 8 8 8s8-3.59 8-8c0-4.42-3.58-8-8-8m0 1a7 7 0 0 1 7 7 7 7 0 0 1-7 7 7 7 0 0 1-7-7 7 7 0 0 1 7-7"/>
<path d="M7.94 4A4 4 0 0 0 4 8a4 4 0 0 0 4 4 4 4 0 0 0 4-4 4 4 0 0 0-4-4zm.01 1H8a3 3 0 0 1 3 3 3 3 0 0 1-3 3 3 3 0 0 1-3-3 3 3 0 0 1 2.95-3"/>
<path d="M8 2 6 5h4z"/>
</g>
</svg>
