<svg xmlns="http://www.w3.org/2000/svg" width="16" height="16" viewBox="-3 -3 22 22">
<g fill="currentColor" transform="translate(-932 -460)">
<style id="current-color-scheme" type="text/css">
.ColorScheme-Text{color:#fcfcfc}
</style>
<g class="ColorScheme-Text" style="fill:currentColor">
<path d="M940 460c-2.756 0-5 2.244-5 5 0 .459.083.894.2 1.316-1.867.727-3.2 2.532-3.2 4.65 0 2.756 2.244 5 5 5a4.95 4.95 0 0 0 3-1.027 4.95 4.95 0 0 0 3 1.028c2.756 0 5-2.245 5-5 0-2.119-1.332-3.924-3.197-4.65.116-.423.197-.859.197-1.317 0-2.756-2.244-5-5-5m0 1c2.215 0 4 1.785 4 4 0 .364-.062.71-.152 1.045a5 5 0 0 0-.848-.078 4.95 4.95 0 0 0-3 1.027 4.95 4.95 0 0 0-3-1.027c-.289 0-.57.029-.846.076A4 4 0 0 1 936 465c0-2.215 1.785-4 4-4m-3 5.967c.844 0 1.625.261 2.27.705-.281.317-.518.67-.711 1.05a3.98 3.98 0 0 1-2-1.712c.147-.017.29-.043.441-.043m6 0c.151 0 .295.027.441.043a3.97 3.97 0 0 1-1.998 1.713 5 5 0 0 0-.713-1.05 4 4 0 0 1 2.27-.706m-7.441.277a5 5 0 0 0 2.64 2.406 5 5 0 0 0-.199 1.317c0 1.267.49 2.412 1.27 3.295a4 4 0 0 1-2.27.705c-2.215 0-4-1.785-4-4a3.985 3.985 0 0 1 2.559-3.723m8.884 0a3.98 3.98 0 0 1 2.557 3.723c0 2.215-1.785 4-4 4a4 4 0 0 1-2.27-.707c.78-.882 1.27-2.027 1.27-3.293a5 5 0 0 0-.197-1.317 5 5 0 0 0 2.64-2.406m-3.595 2.678c.09.335.152.68.152 1.045a3.97 3.97 0 0 1-1 2.625 3.97 3.97 0 0 1-1-2.625c0-.364.064-.709.154-1.043.276.047.557.076.846.076.29 0 .571-.03.848-.078" font-family="sans-serif" font-weight="400" overflow="visible" style="font-feature-settings:normal;font-variant-alternates:normal;font-variant-caps:normal;font-variant-ligatures:normal;font-variant-numeric:normal;font-variant-position:normal;isolation:auto;mix-blend-mode:normal;shape-padding:0;text-decoration-color:#000;text-decoration-line:none;text-decoration-style:solid;text-indent:0;text-orientation:mixed;text-transform:none"/>
<circle cx="-943" cy="470.97" r="4.5" opacity=".3" overflow="visible" transform="scale(-1 1)"/>
<circle cx="-937" cy="470.97" r="4.5" opacity=".15" overflow="visible" transform="scale(-1 1)"/>
</g>
</g>
</svg>
