<svg xmlns="http://www.w3.org/2000/svg" width="16" height="16" viewBox="-3 -3 22 22">
<path fill="#fcfcfc" d="M10.626 7.93c.736 0 .199 1.63.795 2.06.599.43 1.979-.58 2.209.12.22.7-1.49.69-1.719 1.39-.228.7 1.169 1.7.569 2.13-.597.44-1.118-1.2-1.854-1.2-.737 0-1.258 1.64-1.854 1.2-.596-.43.796-1.43.569-2.13s-1.943-.69-1.715-1.39 1.609.31 2.205-.12c.595-.43.059-2.06.795-2.06"/>
<path fill="currentColor" d="M2 2C.892 2 0 2.892 0 4v9c0 1.108.892 2 2 2h12c1.108 0 2-.892 2-2V5c0-1.108-.892-2-2-2H6.371c-.58-.023-.605.077-1.039-.357S4.719 2 4 2zm0 1h2c.311 0 .52 0 .998.47.479.472.639.53 1 .53H14c.554 0 1 .446 1 1v1H1V4c0-.554.446-1 1-1M1 7h14v6c0 .554-.446 1-1 1H2c-.554 0-1-.446-1-1z" class="ColorScheme-Text" color="#fcfcfc"/>
</svg>
