<svg xmlns="http://www.w3.org/2000/svg" width="16" height="16" viewBox="-3 -3 22 22">
<style id="current-color-scheme" type="text/css">
.ColorScheme-Contrast{color:#dedede}
</style>
<g class="ColorScheme-Contrast" style="fill:currentColor">
<path stroke-linecap="square" d="M3 1c-1.108 0-2 .892-2 2v10c0 1.108.892 2 2 2h1a4 4 0 0 1 .295-1.508l.017-.054c.008-.018.018-.032.026-.05a4 4 0 0 1 .293-.542q.059-.091.12-.178a4 4 0 0 1 .325-.397l.016-.017c.026-.028.045-.063.072-.09.032-.032.07-.055.104-.086a4 4 0 0 1 .39-.32q.096-.069.196-.133a4 4 0 0 1 .486-.264c.031-.014.058-.035.09-.048.031-.014.065-.02.097-.032a4 4 0 0 1 .604-.185l.107-.022A4 4 0 0 1 8 11a4 4 0 0 1 .727.068q.114.021.226.05a4 4 0 0 1 .4.118c.074.026.153.039.225.069q.734.304 1.274.843.538.54.843 1.274c.027.064.04.134.06.201A4 4 0 0 1 12 15h1c1.108 0 2-.892 2-2V3c0-1.108-.892-2-2-2zm0 1h10c.554 0 1 .446 1 1v10c0 .554-.446 1-1 1h-.094a5 5 0 0 0-.367-1.133 4.8 4.8 0 0 0-.617-1.008 4.6 4.6 0 0 0-.828-.82 5 5 0 0 0-1.024-.617 3.8 3.8 0 0 0 .805-.64 4.04 4.04 0 0 0 .992-1.759A4 4 0 0 0 12 7q0-.828-.312-1.555a3.9 3.9 0 0 0-.86-1.273 3.9 3.9 0 0 0-1.273-.86A3.9 3.9 0 0 0 8 3a3.95 3.95 0 0 0-1.562.313 4 4 0 0 0-2.125 2.133A3.9 3.9 0 0 0 4.002 7q-.001.524.13 1.023.134.501.384.954.257.444.617.82.36.367.812.633-.554.241-1.023.61a5 5 0 0 0-1.46 1.835q-.252.54-.368 1.125H3c-.554 0-1-.446-1-1V3c0-.554.446-1 1-1m5 2q.617 0 1.164.242.547.234.953.64.407.408.64.954Q11 6.383 11 7q0 .618-.242 1.164a3 3 0 0 1-.64.953 3.1 3.1 0 0 1-.954.649A2.9 2.9 0 0 1 8 10q-.617 0-1.164-.234-.547-.243-.953-.649c-.406-.406-.487-.588-.649-.953A2.9 2.9 0 0 1 5 7q0-.617.234-1.164.243-.547.649-.953c.406-.406.588-.485.953-.64A2.8 2.8 0 0 1 8 4"/>
</g>
</svg>
