<svg xmlns="http://www.w3.org/2000/svg" width="16" height="16" viewBox="-3 -3 22 22">
<style id="current-color-scheme" type="text/css">
.ColorScheme-Text{color:#fcfcfc}
</style>
<path d="M8 0a1.06 1.06 0 0 0-.719.26 1.7 1.7 0 0 0-.285.289 4.4 4.4 0 0 0-.383.586 23 23 0 0 0-.74 1.472c-.247.525-.488 1.052-.682 1.448a9 9 0 0 1-.203.388c-.106.024-.228.052-.396.08-.416.072-.966.148-1.518.233a21 21 0 0 0-1.572.287 4 4 0 0 0-.662.205c-.218.093-.582.12-.791.795s.063.88.183 1.082.258.377.414.564c.314.376.709.789 1.108 1.198s.8.812 1.098 1.127c.122.13.208.228.283.314a8 8 0 0 1-.08.428c-.095.437-.235 1.01-.371 1.586a24 24 0 0 0-.348 1.646c-.04.248-.069.472-.068.711 0 .12.003.244.043.41.04.167.109.425.417.66.31.236.565.234.733.231.167-.002.288-.028.404-.057.232-.056.444-.136.678-.234a24 24 0 0 0 1.543-.734c.536-.272 1.07-.55 1.48-.75.18-.088.32-.15.434-.2.113.05.254.112.434.2.41.2.944.478 1.48.75.537.272 1.074.54 1.543.734.234.098.446.178.678.234.116.029.237.054.404.057s.424.005.733-.23c.308-.236.378-.494.418-.66s.042-.29.043-.41c0-.24-.03-.464-.069-.712-.079-.495-.21-1.07-.348-1.646s-.276-1.149-.37-1.586a8 8 0 0 1-.08-.428c.074-.086.16-.185.283-.314.297-.315.698-.718 1.097-1.127.4-.41.794-.822 1.108-1.198.156-.187.293-.362.414-.564.12-.202.392-.407.183-1.082s-.573-.702-.79-.795a4 4 0 0 0-.663-.205c-.468-.112-1.02-.202-1.572-.287s-1.102-.161-1.518-.232c-.168-.03-.29-.057-.396-.08a9 9 0 0 1-.203-.39c-.194-.395-.435-.922-.682-1.447a23 23 0 0 0-.74-1.472 4.4 4.4 0 0 0-.383-.586 1.7 1.7 0 0 0-.285-.29A1.06 1.06 0 0 0 8 0m0 1c.472 0 1.995 3.996 2.377 4.287.382.292 4.471.579 4.617 1.05.146.473-3 3.228-3.146 3.7s1.198 4.646.816 4.938S8.473 12.973 8 12.973s-4.282 2.293-4.664 2.002.962-4.466.816-4.938S.86 6.81 1.006 6.337c.146-.471 4.235-.758 4.617-1.05S7.528 1 8 1" class="ColorScheme-Text" style="fill:currentColor"/>
</svg>
