<svg xmlns="http://www.w3.org/2000/svg" width="16" height="16"><path fill="currentColor" d="M2.856 2.26a.605.605 0 0 0-.072 1.186L8.583 5H3c-1.108 0-2 .892-2 2v5c0 1.108.892 2 2 2h10c1.108 0 2-.892 2-2V7c0-1.108-.892-2-2-2h-.16a.588.588 0 0 0-.29-.193L3.099 2.273a.613.613 0 0 0-.242-.013zM2.99 6h10.02c.554 0 1 .446 1 1v5c0 .554-.446 1-1 1H2.99c-.554 0-1-.446-1-1V7c0-.554.446-1 1-1zM3 7v1h4V7H3zm7.5 0A2.5 2.5 0 0 0 8 9.5a2.5 2.5 0 0 0 2.5 2.5A2.5 2.5 0 0 0 13 9.5 2.5 2.5 0 0 0 10.5 7zm0 1A1.5 1.5 0 0 1 12 9.5a1.5 1.5 0 0 1-1.5 1.5A1.5 1.5 0 0 1 9 9.5 1.5 1.5 0 0 1 10.5 8zM3 9v1h4V9H3zm0 2v1h4v-1H3z" style="color:#dedede"/></svg>