<svg xmlns="http://www.w3.org/2000/svg" width="16" height="16"><defs><style id="current-color-scheme" type="text/css">.ColorScheme-Text{color:#dedede}</style></defs><rect width="6" height="10" x="5" y="1.001" class="ColorScheme-Text" ry="3" style="fill:currentColor"/><path d="M3.5 6.001c-.277 0-.5.223-.5.5v1.5c0 2.6 1.967 4.725 4.5 4.975V14h-2a.499.499 0 1 0 0 1h5a.499.499 0 1 0 0-1h-2v-1.025A4.988 4.988 0 0 0 13 8v-1.5a.499.499 0 1 0-1 0v1.5c0 2.216-1.784 4-4 4s-4-1.784-4-4v-1.5c0-.277-.223-.5-.5-.5z" class="ColorScheme-Text" style="fill:currentColor"/></svg>