<svg xmlns="http://www.w3.org/2000/svg" viewBox="0 0 16 16"><defs><style id="current-color-scheme" type="text/css">.ColorScheme-Text{color:#dedede}</style></defs><path d="M8 3 5.983 7 8 7.017V10l2-4H8zM4 8.989v3h1v-3zm2 0v3h1v-3zm4.5 0a1.5 1.5 0 1 0 0 3 1.5 1.5 0 0 0 0-3z" class="ColorScheme-Text" style="fill:currentColor"/><path d="M4 1C2.338 1 1 2.338 1 4v8c0 1.662 1.338 3 3 3h8c1.662 0 3-1.338 3-3V4c0-1.662-1.338-3-3-3H4zm0 1h8c1.108 0 2 .892 2 2v8c0 1.108-.892 2-2 2H4c-1.108 0-2-.892-2-2V4c0-1.108.892-2 2-2z" class="ColorScheme-Text" style="fill:currentColor"/></svg>