<svg xmlns="http://www.w3.org/2000/svg" width="16" height="16"><defs><style id="current-color-scheme" type="text/css">.ColorScheme-Text{color:#dedede}</style></defs><g class="ColorScheme-Text" style="fill:currentColor"><path d="M8 5C6.32 5 5 6.32 5 8s1.32 3 3 3 3-1.32 3-3-1.32-3-3-3zm.006 1.006a2.002 2.002 0 0 1 1.996 1.996 2.002 2.002 0 0 1-1.996 1.996c-1.098 0-2.014-.897-2.014-1.996 0-1.098.916-1.996 2.014-1.996z" class="ColorScheme-Text" style="fill:currentColor"/></g><path d="M8 0a8 8 0 0 0-8 8 8 8 0 0 0 8 8 8 8 0 0 0 8-8 8 8 0 0 0-8-8zm-.094 1A7 7 0 0 1 8 1a7 7 0 0 1 7 7 7 7 0 0 1-7 7 7 7 0 0 1-7-7 7 7 0 0 1 6.906-7z" class="ColorScheme-Text" style="fill:currentColor"/></svg>