<svg xmlns="http://www.w3.org/2000/svg" viewBox="0 0 16 16"><defs><style id="current-color-scheme" type="text/css">.ColorScheme-Text{color:#dedede}</style></defs><path fill="currentColor" d="M14.479 11.031c.278-.034.57.024.778.187.417.325.507 1.068.181 1.485l-.216.278-1.737 2.223c-.434.556-1.424.678-1.98.244-.555-.435-.677-1.424-.243-1.98l1.737-2.223.277.216-1.736 2.223c-.325.417-.235 1.16.181 1.485.417.326 1.16.236 1.485-.181l1.738-2.223.216-.278c.217-.278.157-.774-.12-.99s-.774-.156-.991.122l-.216.276-1.304 1.668-.216.279c-.109.139-.079.386.06.494s.386.079.495-.06l1.52-1.947.278.218-1.52 1.945c-.217.278-.71.34-.989.122s-.34-.712-.122-.99l.217-.279 1.52-1.944c.163-.209.429-.336.707-.37z" class="ColorScheme-Text"/><g class="ColorScheme-Text" style="fill:currentColor"><path d="M8 5C6.32 5 5 6.32 5 8s1.32 3 3 3 3-1.32 3-3-1.32-3-3-3zm.006 1.006a2.002 2.002 0 0 1 1.996 1.996 2.002 2.002 0 0 1-1.996 1.996c-1.098 0-2.014-.897-2.014-1.996 0-1.098.916-1.996 2.014-1.996z" class="ColorScheme-Text" style="fill:currentColor"/></g><path d="M8 0a8 8 0 0 0-8 8 8 8 0 0 0 8 8 8 8 0 0 0 2-.254v-1.039A7 7 0 0 1 8 15a7 7 0 0 1-7-7 7 7 0 0 1 6.906-7A7 7 0 0 1 8 1a7 7 0 0 1 7 7 7 7 0 0 1-.293 2h1.04A8 8 0 0 0 16 8a8 8 0 0 0-8-8z" class="ColorScheme-Text" style="fill:currentColor"/></svg>