<svg xmlns="http://www.w3.org/2000/svg" viewBox="0 0 16 16"><defs><style id="current-color-scheme" type="text/css">.ColorScheme-Text{color:#dedede}</style></defs><path fill="currentColor" d="M9.567 3.538c.056.513-.15 1.026-.454 1.396-.306.37-.808.659-1.3.62-.066-.502.182-1.025.466-1.353.315-.37.848-.645 1.288-.663zM9.56 5.653c.285.012 1.085.115 1.6.867-.042.026-.957.558-.946 1.666.012 1.324 1.16 1.765 1.174 1.77-.01.031-.183.628-.605 1.245-.365.533-.743 1.064-1.34 1.075-.586.01-.774-.347-1.444-.347-.67 0-.88.335-1.434.357-.575.021-1.013-.574-1.38-1.106-.752-1.085-1.326-3.07-.554-4.409.382-.665 1.067-1.086 1.81-1.097.565-.01 1.097.381 1.442.381.346 0 .995-.47 1.677-.401z" class="ColorScheme-Text"/><path d="M4 1C2.338 1 1 2.338 1 4v8c0 1.662 1.338 3 3 3h8c1.662 0 3-1.338 3-3V4c0-1.662-1.338-3-3-3H4zm0 1h8c1.108 0 2 .892 2 2v8c0 1.108-.892 2-2 2H4c-1.108 0-2-.892-2-2V4c0-1.108.892-2 2-2z" class="ColorScheme-Text" style="fill:currentColor"/></svg>