<svg xmlns="http://www.w3.org/2000/svg" width="16" height="16"><defs><style id="current-color-scheme" type="text/css">.ColorScheme-Highlight{color:#5294e2}</style></defs><path d="M2 1c-.554 0-1 .446-1 1v3c0 .554.446 1 1 1h12c.554 0 1-.446 1-1V2c0-.554-.446-1-1-1H2zm0 1h12v3H2V2zm6 1v1h1V3H8zm2 0v1h1V3h-1zm2 0v1h1V3h-1zM2 7c-.554 0-1 .446-1 1v3c0 .554.446 1 1 1h12c.554 0 1-.446 1-1V8c0-.554-.446-1-1-1H2zm0 1h12v3H2V8zm6 1v1h1V9H8zm2 0v1h1V9h-1zm2 0v1h1V9h-1zM1.5 13a.499.499 0 1 0 0 1H3v1.5a.499.499 0 1 0 1 0V14h8v1.5a.499.499 0 1 0 1 0V14h1.5a.499.499 0 1 0 0-1h-13z" style="fill:currentColor;color:#dedede"/></svg>