<svg xmlns="http://www.w3.org/2000/svg" viewBox="0 0 16 16"><defs><style id="current-color-scheme" type="text/css">.ColorScheme-Text{color:#dedede}</style></defs><path d="M7.951 4A2 2 0 0 0 6 6a2 2 0 0 0 .842 1.63L6 11h4l-.842-3.37A2 2 0 0 0 10 6a2 2 0 0 0-2-2 2 2 0 0 0-.049 0zM8 5a1 1 0 0 1 1 1 1 1 0 0 1-1 1 1 1 0 0 1-1-1 1 1 0 0 1 1-1z" class="ColorScheme-Text" style="fill:currentColor"/><path d="M8.033 0a1 1 0 0 0-.394.068l-6 2.32A1 1 0 0 0 1 3.323V8c0 3.662 2.679 6.43 6.29 7.8l.355.136a1 1 0 0 0 .709 0l.355-.135a1 1 0 0 0 .002 0C12.321 14.43 15 11.66 15.001 8V3.322a1 1 0 0 0-.64-.931l-6-2.323A1 1 0 0 0 8.033 0zM8 1l6 2.322V8c0 3.184-2.284 5.59-5.645 6.865L8 15l-.355-.135C4.284 13.59 2 11.184 2 8V3.322L8 1z" class="ColorScheme-Text" style="fill:currentColor"/></svg>