<svg xmlns="http://www.w3.org/2000/svg" width="16" height="16"><defs><style id="current-color-scheme" type="text/css">.ColorScheme-Highlight{color:#5294e2}</style></defs><path d="M5 0C3.892 0 2.963.893 3 2v1H2C.892 3 0 3.892 0 5v6c0 1.108.892 2 2 2h1v1c0 1.108.892 2 2 2h6c1.108 0 2-.892 2-2v-1h1c1.108 0 2-.892 2-2V5c0-1.108-.892-2-2-2h-1V2c0-1.108-.892-2-2-2H5zm0 1h6c.554 0 1.042.448 1 1v1H4V2c0-.554.446-1 1-1zM2 4h12c.554 0 1 .446 1 1v6c0 .554-.446 1-1 1h-1V9c0-1.108-.892-2-2-2H5c-1.108 0-2 .892-2 2v3H2c-.554 0-1-.446-1-1V5c0-.554.446-1 1-1zm.5 1a.499.499 0 1 0 0 1h2a.499.499 0 1 0 0-1h-2zm10.988 0a.5.5 0 0 0-.488.5.5.5 0 0 0 .5.5.5.5 0 0 0 .5-.5.5.5 0 0 0-.5-.5.5.5 0 0 0-.012 0zM5 8h6c.554 0 1 .446 1 1v5c0 .554-.446 1-1 1H5c-.554 0-1-.446-1-1V9c0-.554.446-1 1-1zm0 2v1h6v-1H5zm0 2v1h6v-1H5z" style="fill:currentColor;color:#dedede"/></svg>