<svg xmlns="http://www.w3.org/2000/svg" width="16" height="16">
<path fill="#fcfcfc" d="M5 2c-2.196-.003-3.996 1.766-4 3.946 0 1.024.433 1.985 1.148 2.716a.5.5 0 0 0 .112.159l.006.005 5.308 5.036a.5.5 0 0 0 .684.006l5.476-5.042v-.001c.757-.698 1.173-1.667 1.225-2.686.005-.17-.001-.263-.002-.393A3.96 3.96 0 0 0 10.998 2c-1.234 0-2.265.626-3 1.5C7.244 2.607 6.196 2 5.002 2zm0 1a3.01 3.01 0 0 1 2.574 1.432.5.5 0 0 0 .852 0A3 3 0 0 1 11 3c1.663-.003 2.995 1.314 2.998 2.948v.001c0 .811-.34 1.586-.941 2.141l-5.133 4.725L2.963 8.11l-.012-.014-.004-.002-.004-.004A2.9 2.9 0 0 1 2 5.948v-.002C2.004 4.313 3.338 2.997 5 3" color="#000" style="font-feature-settings:normal;font-variant-alternates:normal;font-variant-caps:normal;font-variant-east-asian:normal;font-variant-ligatures:normal;font-variant-numeric:normal;font-variant-position:normal;font-variation-settings:normal;inline-size:0;isolation:auto;mix-blend-mode:normal;shape-margin:0;shape-padding:0;text-decoration-color:#000;text-decoration-line:none;text-decoration-style:solid;text-indent:0;text-orientation:mixed;text-transform:none;white-space:normal"/>
</svg>
