<?xml version="1.0" encoding="UTF-8" standalone="no"?>
<svg
   width="24"
   height="24"
   viewBox="0 0 24 24"
   fill="none"
   version="1.1"
   id="svg17"
   sodipodi:docname="black-network.svg"
   inkscape:version="1.3 (0e150ed6c4, 2023-07-21)"
   xmlns:inkscape="http://www.inkscape.org/namespaces/inkscape"
   xmlns:sodipodi="http://sodipodi.sourceforge.net/DTD/sodipodi-0.dtd"
   xmlns:xlink="http://www.w3.org/1999/xlink"
   xmlns="http://www.w3.org/2000/svg"
   xmlns:svg="http://www.w3.org/2000/svg">
  <sodipodi:namedview
     id="namedview17"
     pagecolor="#ffffff"
     bordercolor="#000000"
     borderopacity="0.25"
     inkscape:showpageshadow="2"
     inkscape:pageopacity="0.0"
     inkscape:pagecheckerboard="0"
     inkscape:deskcolor="#d1d1d1"
     inkscape:zoom="19.25"
     inkscape:cx="11.974026"
     inkscape:cy="11.974026"
     inkscape:window-width="2560"
     inkscape:window-height="998"
     inkscape:window-x="0"
     inkscape:window-y="0"
     inkscape:window-maximized="1"
     inkscape:current-layer="svg17" />
  <defs
     id="defs17">
    <linearGradient
       id="paint0_linear_201_2"
       x1="23"
       y1="0.999999"
       x2="1"
       y2="12"
       gradientUnits="userSpaceOnUse">
      <stop
         stop-color="#444444"
         id="stop5" />
      <stop
         offset="1"
         id="stop6" />
    </linearGradient>
    <linearGradient
       id="paint1_linear_201_2"
       x1="21"
       y1="4"
       x2="3"
       y2="4"
       gradientUnits="userSpaceOnUse">
      <stop
         stop-opacity="0.5"
         id="stop7" />
      <stop
         offset="0.890123"
         id="stop8" />
      <stop
         offset="1"
         stop-opacity="0"
         id="stop9" />
    </linearGradient>
    <linearGradient
       id="paint2_linear_201_2"
       x1="12"
       y1="3"
       x2="11.5"
       y2="8"
       gradientUnits="userSpaceOnUse">
      <stop
         stop-color="#DDDDDD"
         id="stop10" />
      <stop
         offset="1"
         stop-color="#CCCCCC"
         stop-opacity="0"
         id="stop11" />
    </linearGradient>
    <linearGradient
       id="paint3_linear_201_2"
       x1="23"
       y1="9"
       x2="1.01236"
       y2="9.52141"
       gradientUnits="userSpaceOnUse">
      <stop
         stop-opacity="0.5"
         id="stop12" />
      <stop
         offset="1"
         id="stop13" />
    </linearGradient>
    <linearGradient
       id="paint4_linear_201_2"
       x1="23"
       y1="5.4"
       x2="1.42949"
       y2="23.5115"
       gradientUnits="userSpaceOnUse">
      <stop
         stop-color="#555555"
         id="stop14" />
      <stop
         offset="1"
         stop-color="#181818"
         id="stop15" />
    </linearGradient>
    <linearGradient
       id="paint5_linear_201_2"
       x1="15"
       y1="5.5"
       x2="5.5"
       y2="19.5"
       gradientUnits="userSpaceOnUse">
      <stop
         stop-color="#999999"
         id="stop16" />
      <stop
         offset="1"
         id="stop17" />
    </linearGradient>
    <linearGradient
       id="paint0_linear_201_2-0"
       x1="23"
       y1="0.99999899"
       x2="1"
       y2="12"
       gradientUnits="userSpaceOnUse">
      <stop
         stop-color="#444444"
         id="stop5-13" />
      <stop
         offset="1"
         id="stop6-11" />
    </linearGradient>
    <linearGradient
       id="paint1_linear_201_2-3"
       x1="21"
       y1="4"
       x2="3"
       y2="4"
       gradientUnits="userSpaceOnUse">
      <stop
         stop-opacity="0.5"
         id="stop7-9" />
      <stop
         offset="0.890123"
         id="stop8-0" />
      <stop
         offset="1"
         stop-opacity="0"
         id="stop9-8" />
    </linearGradient>
    <linearGradient
       id="paint2_linear_201_2-9"
       x1="12"
       y1="3"
       x2="11.5"
       y2="8"
       gradientUnits="userSpaceOnUse">
      <stop
         stop-color="#DDDDDD"
         id="stop10-2" />
      <stop
         offset="1"
         stop-color="#CCCCCC"
         stop-opacity="0"
         id="stop11-9" />
    </linearGradient>
    <linearGradient
       id="paint3_linear_201_2-1"
       x1="23"
       y1="9"
       x2="1.01236"
       y2="9.52141"
       gradientUnits="userSpaceOnUse">
      <stop
         stop-opacity="0.5"
         id="stop12-0" />
      <stop
         offset="1"
         id="stop13-6" />
    </linearGradient>
    <linearGradient
       id="paint4_linear_201_2-9"
       x1="23"
       y1="5.4000001"
       x2="1.42949"
       y2="23.511499"
       gradientUnits="userSpaceOnUse">
      <stop
         stop-color="#555555"
         id="stop14-28" />
      <stop
         offset="1"
         stop-color="#181818"
         id="stop15-47" />
    </linearGradient>
    <linearGradient
       id="paint5_linear_201_2-6"
       x1="15"
       y1="5.5"
       x2="5.5"
       y2="19.5"
       gradientUnits="userSpaceOnUse">
      <stop
         stop-color="#999999"
         id="stop16-2" />
      <stop
         offset="1"
         id="stop17-4" />
    </linearGradient>
    <linearGradient
       id="paint0_linear_201_2-0-8"
       x1="23"
       y1="0.99999899"
       x2="1"
       y2="12"
       gradientUnits="userSpaceOnUse">
      <stop
         stop-color="#444444"
         id="stop5-13-0" />
      <stop
         offset="1"
         id="stop6-11-5" />
    </linearGradient>
    <linearGradient
       id="paint1_linear_201_2-3-6"
       x1="21"
       y1="4"
       x2="3"
       y2="4"
       gradientUnits="userSpaceOnUse">
      <stop
         stop-opacity="0.5"
         id="stop7-9-6" />
      <stop
         offset="0.890123"
         id="stop8-0-4" />
      <stop
         offset="1"
         stop-opacity="0"
         id="stop9-8-0" />
    </linearGradient>
    <linearGradient
       id="paint2_linear_201_2-9-0"
       x1="12"
       y1="3"
       x2="11.5"
       y2="8"
       gradientUnits="userSpaceOnUse">
      <stop
         stop-color="#DDDDDD"
         id="stop10-2-4" />
      <stop
         offset="1"
         stop-color="#CCCCCC"
         stop-opacity="0"
         id="stop11-9-6" />
    </linearGradient>
    <linearGradient
       id="paint3_linear_201_2-1-2"
       x1="23"
       y1="9"
       x2="1.01236"
       y2="9.52141"
       gradientUnits="userSpaceOnUse">
      <stop
         stop-opacity="0.5"
         id="stop12-0-6" />
      <stop
         offset="1"
         id="stop13-6-7" />
    </linearGradient>
    <linearGradient
       id="paint4_linear_201_2-9-5"
       x1="23"
       y1="5.4000001"
       x2="1.42949"
       y2="23.511499"
       gradientUnits="userSpaceOnUse">
      <stop
         stop-color="#555555"
         id="stop14-28-6" />
      <stop
         offset="1"
         stop-color="#181818"
         id="stop15-47-9" />
    </linearGradient>
    <linearGradient
       id="paint5_linear_201_2-6-8"
       x1="15"
       y1="5.5"
       x2="5.5"
       y2="19.5"
       gradientUnits="userSpaceOnUse">
      <stop
         stop-color="#999999"
         id="stop16-2-7" />
      <stop
         offset="1"
         id="stop17-4-2" />
    </linearGradient>
    <linearGradient
       id="paint0_linear_201_2-0-7"
       x1="23"
       y1="0.99999899"
       x2="1"
       y2="12"
       gradientUnits="userSpaceOnUse">
      <stop
         stop-color="#444444"
         id="stop5-13-6" />
      <stop
         offset="1"
         id="stop6-11-1" />
    </linearGradient>
    <linearGradient
       id="paint1_linear_201_2-3-3"
       x1="21"
       y1="4"
       x2="3"
       y2="4"
       gradientUnits="userSpaceOnUse">
      <stop
         stop-opacity="0.5"
         id="stop7-9-2" />
      <stop
         offset="0.890123"
         id="stop8-0-1" />
      <stop
         offset="1"
         stop-opacity="0"
         id="stop9-8-5" />
    </linearGradient>
    <linearGradient
       id="paint2_linear_201_2-9-9"
       x1="12"
       y1="3"
       x2="11.5"
       y2="8"
       gradientUnits="userSpaceOnUse">
      <stop
         stop-color="#DDDDDD"
         id="stop10-2-9" />
      <stop
         offset="1"
         stop-color="#CCCCCC"
         stop-opacity="0"
         id="stop11-9-1" />
    </linearGradient>
    <linearGradient
       id="paint3_linear_201_2-1-4"
       x1="23"
       y1="9"
       x2="1.01236"
       y2="9.52141"
       gradientUnits="userSpaceOnUse">
      <stop
         stop-opacity="0.5"
         id="stop12-0-9" />
      <stop
         offset="1"
         id="stop13-6-1" />
    </linearGradient>
    <linearGradient
       id="paint4_linear_201_2-9-0"
       x1="23"
       y1="5.4000001"
       x2="1.42949"
       y2="23.511499"
       gradientUnits="userSpaceOnUse">
      <stop
         stop-color="#555555"
         id="stop14-28-7" />
      <stop
         offset="1"
         stop-color="#181818"
         id="stop15-47-5" />
    </linearGradient>
    <linearGradient
       id="paint5_linear_201_2-6-87"
       x1="15"
       y1="5.5"
       x2="5.5"
       y2="19.5"
       gradientUnits="userSpaceOnUse">
      <stop
         stop-color="#999999"
         id="stop16-2-0" />
      <stop
         offset="1"
         id="stop17-4-4" />
    </linearGradient>
    <linearGradient
       id="paint0_linear_201_2-5"
       x1="23"
       y1="0.99999899"
       x2="1"
       y2="12"
       gradientUnits="userSpaceOnUse">
      <stop
         stop-color="#444444"
         id="stop5-13-5" />
      <stop
         offset="1"
         id="stop6-11-2" />
    </linearGradient>
    <linearGradient
       id="paint1_linear_201_2-9"
       x1="21"
       y1="4"
       x2="3"
       y2="4"
       gradientUnits="userSpaceOnUse">
      <stop
         stop-opacity="0.5"
         id="stop7-9-0" />
      <stop
         offset="0.890123"
         id="stop8-0-2" />
      <stop
         offset="1"
         stop-opacity="0"
         id="stop9-8-8" />
    </linearGradient>
    <linearGradient
       id="paint2_linear_201_2-3"
       x1="12"
       y1="3"
       x2="11.5"
       y2="8"
       gradientUnits="userSpaceOnUse">
      <stop
         stop-color="#DDDDDD"
         id="stop10-2-8" />
      <stop
         offset="1"
         stop-color="#CCCCCC"
         stop-opacity="0"
         id="stop11-9-0" />
    </linearGradient>
    <linearGradient
       id="paint3_linear_201_2-4"
       x1="23"
       y1="9"
       x2="1.01236"
       y2="9.52141"
       gradientUnits="userSpaceOnUse">
      <stop
         stop-opacity="0.5"
         id="stop12-0-0" />
      <stop
         offset="1"
         id="stop13-6-9" />
    </linearGradient>
    <linearGradient
       id="paint4_linear_201_2-1"
       x1="23"
       y1="5.4000001"
       x2="1.42949"
       y2="23.511499"
       gradientUnits="userSpaceOnUse">
      <stop
         stop-color="#555555"
         id="stop14-28-9" />
      <stop
         offset="1"
         stop-color="#181818"
         id="stop15-47-6" />
    </linearGradient>
    <linearGradient
       id="paint5_linear_201_2-2"
       x1="15"
       y1="5.5"
       x2="5.5"
       y2="19.5"
       gradientUnits="userSpaceOnUse">
      <stop
         stop-color="#999999"
         id="stop16-2-5" />
      <stop
         offset="1"
         id="stop17-4-44" />
    </linearGradient>
    <linearGradient
       id="paint0_linear_201_2-0-4"
       x1="23"
       y1="0.99999899"
       x2="1"
       y2="12"
       gradientUnits="userSpaceOnUse">
      <stop
         stop-color="#444444"
         id="stop5-13-9" />
      <stop
         offset="1"
         id="stop6-11-9" />
    </linearGradient>
    <linearGradient
       id="paint1_linear_201_2-3-4"
       x1="21"
       y1="4"
       x2="3"
       y2="4"
       gradientUnits="userSpaceOnUse">
      <stop
         stop-opacity="0.5"
         id="stop7-9-5" />
      <stop
         offset="0.890123"
         id="stop8-0-9" />
      <stop
         offset="1"
         stop-opacity="0"
         id="stop9-8-3" />
    </linearGradient>
    <linearGradient
       id="paint2_linear_201_2-9-5"
       x1="12"
       y1="3"
       x2="11.5"
       y2="8"
       gradientUnits="userSpaceOnUse">
      <stop
         stop-color="#DDDDDD"
         id="stop10-2-7" />
      <stop
         offset="1"
         stop-color="#CCCCCC"
         stop-opacity="0"
         id="stop11-9-08" />
    </linearGradient>
    <linearGradient
       id="paint3_linear_201_2-1-1"
       x1="23"
       y1="9"
       x2="1.01236"
       y2="9.52141"
       gradientUnits="userSpaceOnUse">
      <stop
         stop-opacity="0.5"
         id="stop12-0-99" />
      <stop
         offset="1"
         id="stop13-6-78" />
    </linearGradient>
    <linearGradient
       id="paint4_linear_201_2-9-2"
       x1="23"
       y1="5.4000001"
       x2="1.42949"
       y2="23.511499"
       gradientUnits="userSpaceOnUse">
      <stop
         stop-color="#555555"
         id="stop14-28-5" />
      <stop
         offset="1"
         stop-color="#181818"
         id="stop15-47-3" />
    </linearGradient>
    <linearGradient
       id="paint5_linear_201_2-6-4"
       x1="15"
       y1="5.5"
       x2="5.5"
       y2="19.5"
       gradientUnits="userSpaceOnUse">
      <stop
         stop-color="#999999"
         id="stop16-2-9" />
      <stop
         offset="1"
         id="stop17-4-0" />
    </linearGradient>
    <linearGradient
       id="linearGradient18-1"
       inkscape:collect="always">
      <stop
         style="stop-color:#50bbde;stop-opacity:1;"
         offset="0.52297294"
         id="stop19-7" />
      <stop
         style="stop-color:#237bc3;stop-opacity:1;"
         offset="1"
         id="stop21-43" />
    </linearGradient>
    <radialGradient
       inkscape:collect="always"
       xlink:href="#paint0_radial_2_164-4"
       id="radialGradient3-7"
       gradientUnits="userSpaceOnUse"
       gradientTransform="matrix(0,10.9836,-10.9836,0,12.000035,8.6934537)"
       cx="0"
       cy="0"
       r="1" />
    <radialGradient
       id="paint0_radial_2_164-4"
       cx="0"
       cy="0"
       r="1"
       gradientUnits="userSpaceOnUse"
       gradientTransform="matrix(0,22,-22,0,32,1.00004)">
      <stop
         stop-color="#C5FFFE"
         id="stop8570-4" />
      <stop
         offset="1"
         stop-color="#00FFFF"
         id="stop8572-3" />
    </radialGradient>
    <radialGradient
       inkscape:collect="always"
       xlink:href="#linearGradient18-1"
       id="radialGradient22-0"
       gradientUnits="userSpaceOnUse"
       gradientTransform="matrix(1.1962564,0,0,1.19625,-1.15029,-1.7911795)"
       cx="10.992869"
       cy="8.7725086"
       fx="10.992869"
       fy="8.7725086"
       r="4.5977011" />
    <radialGradient
       inkscape:collect="always"
       xlink:href="#paint1_radial_2_164-8"
       id="radialGradient4-7"
       gradientUnits="userSpaceOnUse"
       gradientTransform="matrix(1.9169998e-5,10.9836,-10.9836,1.9169998e-5,12.000035,8.6934338)"
       cx="0"
       cy="0"
       r="1" />
    <radialGradient
       id="paint1_radial_2_164-8"
       cx="0"
       cy="0"
       r="1"
       gradientUnits="userSpaceOnUse"
       gradientTransform="matrix(3.8397244e-5,22,-22,3.8397244e-5,-8,1)">
      <stop
         stop-color="#58C6E3"
         id="stop8575-6" />
      <stop
         offset="1"
         stop-color="#034DB0"
         id="stop8577-8" />
    </radialGradient>
    <radialGradient
       inkscape:collect="always"
       xlink:href="#linearGradient18-1"
       id="radialGradient23-8"
       gradientUnits="userSpaceOnUse"
       gradientTransform="matrix(1.1962564,0,0,1.19625,-1.15029,-1.7911795)"
       cx="10.992869"
       cy="8.7725086"
       fx="10.992869"
       fy="8.7725086"
       r="4.5977011" />
  </defs>
  <rect
     opacity="0.8125"
     x="1.0000008"
     y="0.99999964"
     width="22"
     height="22"
     rx="6.5999999"
     fill="url(#paint0_linear_201_2)"
     id="rect1-0"
     style="fill:url(#paint0_linear_201_2-0-4);stroke-width:1" />
  <rect
     opacity="0.125"
     x="3.0000007"
     y="2.2499993"
     width="18"
     height="18"
     rx="4.4000001"
     fill="url(#paint1_linear_201_2)"
     fill-opacity="0.875"
     id="rect2-3"
     style="fill:url(#paint1_linear_201_2-3-4);stroke-width:1" />
  <rect
     x="3.2500005"
     y="3.2499993"
     width="17.5"
     height="17.5"
     rx="4.1500001"
     fill="#cccccc"
     stroke="url(#paint2_linear_201_2)"
     stroke-width="0.5"
     id="rect3-4"
     style="stroke:url(#paint2_linear_201_2-9-5)" />
  <path
     opacity="0.125"
     d="m 1.0000005,7.5078098 c 0,-1.6611703 1.34664,-3.0078103 3.0078099,-3.0078103 h 4.1826701 c 1.0745201,0 2.1163205,0.3699399 2.9501195,1.0476202 v 0 c 0.8339,0.67768 1.8756,1.0476199 2.950201,1.0476199 H 19.9922 c 1.661201,0 3.007801,1.3466401 3.007801,3.0078099 V 15.5 c 0,3.6451 -2.954901,6.6 -6.6,6.6 H 7.6000005 c -3.64508,0 -6.6,-2.9549 -6.6,-6.6 z"
     fill="url(#paint3_linear_201_2)"
     fill-opacity="0.875"
     id="path3-9"
     style="fill:url(#paint3_linear_201_2-1-1);stroke-width:1" />
  <path
     d="m 1.0000005,8.4078097 c 0,-1.6611702 1.34664,-3.0078103 3.0078099,-3.0078103 h 4.1826701 c 1.0745201,0 2.1163205,0.3699399 2.9501195,1.0476203 v 0 c 0.8339,0.67768 1.8756,1.0476199 2.950201,1.0476199 H 19.9922 c 1.661201,0 3.007801,1.34664 3.007801,3.0078604 V 16.4 c 0,3.6451 -2.954901,6.6 -6.6,6.6 H 7.6000005 c -3.64508,0 -6.6,-2.9549 -6.6,-6.6 z"
     fill="url(#paint4_linear_201_2)"
     id="path4-3"
     style="opacity:0.875;fill:url(#paint4_linear_201_2-9-2);stroke-width:1" />
  <path
     d="M 22.625001,10.5031 V 16.4 c 0,3.437999 -2.787001,6.225 -6.225,6.225 H 7.6000005 c -3.4379699,0 -6.225,-2.787001 -6.225,-6.225 V 8.4078097 c 0,-1.4540601 1.1787501,-2.6328103 2.6328099,-2.6328103 h 4.1826701 c 0.9883799,0 1.9466205,0.3402814 2.7136205,0.9636304 0.900699,0.7320098 2.025999,1.1316098 3.1867,1.1316098 H 19.9922 c 1.454,0 2.632801,1.1787501 2.632801,2.6328604 z"
     stroke="url(#paint5_linear_201_2)"
     stroke-opacity="0.375"
     stroke-width="0.750002"
     stroke-linejoin="round"
     id="path5-3"
     style="opacity:0.875;fill:none;stroke:url(#paint5_linear_201_2-6-4)" />
  <path
     id="path23-3"
     style="opacity:0.15;fill:#1a1a1a;stroke:#1a1a1a;stroke-width:0.0456432;stroke-dasharray:none;stroke-opacity:1"
     d="m 11.499995,9.2003802 a 5.4769482,5.4769482 0 0 0 -5.477173,5.4771738 5.4769482,5.4769482 0 0 0 5.477173,5.477173 5.4769482,5.4769482 0 0 0 5.477173,-5.477173 5.4769482,5.4769482 0 0 0 -5.477173,-5.4771738 z" />
  <path
     id="path8566-9"
     style="fill:url(#radialGradient3-7);stroke:url(#radialGradient22-0);stroke-width:0.0456432;stroke-dasharray:none;stroke-opacity:1"
     d="m 12.000035,8.7080604 a 5.4769482,5.4769482 0 0 0 -5.477173,5.4771726 5.4769482,5.4769482 0 0 0 5.477173,5.477174 5.4769482,5.4769482 0 0 0 5.477173,-5.477174 5.4769482,5.4769482 0 0 0 -5.477173,-5.4771726 z" />
  <path
     id="path3-2-2"
     style="fill:url(#radialGradient4-7);stroke:url(#radialGradient23-8);stroke-width:0.0456432;stroke-dasharray:none;stroke-opacity:1"
     d="M 12.000035,8.7080604 A 5.4769482,5.4769482 0 0 0 7.452138,11.144851 c 0.122774,0.02633 0.260493,0.0652 0.41637,0.111168 0.0459,0.01353 0.09362,0.0278 0.142366,0.04193 0.03165,0.0097 0.06347,0.0187 0.09654,0.02828 0.084,0.02433 0.172056,0.04974 0.260353,0.08289 0.123835,0.04463 0.254166,0.09098 0.390043,0.13944 0.100772,0.03409 0.201428,0.07467 0.304233,0.117987 0.09484,-0.127189 0.245626,-0.209649 0.416371,-0.209649 0.08765,0 0.171465,0.02273 0.243777,0.06143 l 0.05363,-0.04876 c 0.03251,-0.02896 0.06291,-0.05922 0.09361,-0.08971 0.01847,-0.01834 0.0367,-0.03658 0.05558,-0.05461 0.098967,-0.09789 0.197684,-0.19564 0.295458,-0.291557 0.05437,-0.05649 0.108835,-0.111934 0.162842,-0.167718 0.04061,-0.04195 0.08163,-0.08407 0.121888,-0.125788 0.02645,-0.02793 0.05335,-0.05532 0.07996,-0.08289 0.01979,-0.0205 0.03899,-0.041 0.05851,-0.06143 L 10.7753,10.447648 c 0.08107,-0.09276 0.163387,-0.18212 0.243777,-0.270104 l 0.01463,-0.01658 c 0.04927,-0.05664 0.09723,-0.113303 0.144316,-0.169669 0.03175,-0.038013 0.06308,-0.076143 0.09459,-0.113112 0.0382,-0.045892 0.07664,-0.091206 0.114087,-0.1355398 0.0091,-0.010754 0.01831,-0.021724 0.0273,-0.032178 0.01005,-0.011747 0.01937,-0.023312 0.02925,-0.035104 0.01778,-0.022346 0.03621,-0.04426 0.05363,-0.066307 0.07064,-0.088967 0.138545,-0.1746319 0.203797,-0.2574281 0.09655,-0.1185825 0.181371,-0.2339711 0.260353,-0.3403121 0.02995,-0.040334 0.0593,-0.079369 0.08776,-0.117013 0.02536,-0.033764 0.04947,-0.065913 0.07314,-0.097511 0.02172,-0.029043 0.043,-0.05674 0.06338,-0.083859 a 5.4769482,5.4769482 0 0 0 -0.185271,-0.00488 z m 0.293507,0.00878 c -0.0059,0.01164 -0.01148,0.023133 -0.01755,0.035104 -0.02786,0.054185 -0.06009,0.1114289 -0.09459,0.1716188 -0.0075,0.01328 -0.01464,0.026355 -0.02243,0.039979 -0.02651,0.044868 -0.05317,0.092413 -0.08094,0.1413905 -0.0643,0.1135953 -0.134648,0.2356383 -0.218423,0.3588392 -0.02412,0.037125 -0.04836,0.075501 -0.07314,0.114087 -0.09441,0.1471551 -0.194959,0.3039456 -0.312034,0.4583001 -0.02662,0.03615 -0.05305,0.07211 -0.07996,0.109213 -0.04633,0.06392 -0.09339,0.129147 -0.142365,0.194045 -0.07998,0.101252 -0.161729,0.20455 -0.246703,0.308135 -0.04229,0.05128 -0.0849,0.103476 -0.127738,0.156017 -0.02081,0.02343 -0.04157,0.04653 -0.06241,0.07021 -0.02432,0.02764 -0.04841,0.05513 -0.07314,0.08289 -0.03397,0.03801 -0.06828,0.07736 -0.102388,0.116037 -0.05772,0.06547 -0.115833,0.130884 -0.175519,0.195997 -0.02416,0.02442 -0.04792,0.04864 -0.07216,0.07314 -0.07499,0.07581 -0.150699,0.152243 -0.226226,0.228176 -0.01621,0.01621 -0.0318,0.03235 -0.04778,0.04876 -0.03384,0.03473 -0.06768,0.0698 -0.103357,0.102388 l -0.057528,0.05363 c 0.02655,0.0623 0.04193,0.13051 0.04193,0.202823 0,0.03637 -0.0048,0.07317 -0.01172,0.107256 0.0059,0.0028 0.01172,0.005 0.017549,0.0078 0.02414,0.01148 0.04817,0.02294 0.07216,0.03511 0.102986,0.05216 0.205799,0.10978 0.310083,0.167719 0.05302,0.02945 0.107101,0.05854 0.160893,0.08776 0.145292,0.07632 0.285044,0.162884 0.427097,0.250603 0.01628,0.01005 0.03243,0.02016 0.04876,0.03023 0.07898,0.04895 0.15907,0.09893 0.238901,0.149192 0.05887,0.03744 0.116731,0.07846 0.174545,0.118968 0.08752,-0.06662 0.196309,-0.107267 0.313983,-0.107267 0.0333,0 0.06576,0.0039 0.09751,0.0098 l 0.05656,-0.09751 c 0.01907,-0.03193 0.03716,-0.06424 0.05558,-0.09654 0.0353,-0.06182 0.0707,-0.124054 0.110188,-0.18332 l 0.362739,-0.539234 0.09069,-0.13359 c 0.01992,-0.02936 0.04197,-0.05793 0.06338,-0.08581 0.01148,-0.01497 0.02285,-0.02962 0.03413,-0.04486 0.0653,-0.08615 0.131495,-0.171319 0.197946,-0.256452 0.02646,-0.03364 0.05272,-0.06765 0.07899,-0.101407 0.106443,-0.136835 0.213113,-0.273289 0.331536,-0.400768 0.01922,-0.02223 0.03889,-0.04512 0.05851,-0.06728 0.01112,-0.0126 0.02207,-0.02441 0.03316,-0.03705 -0.06535,-0.08663 -0.104337,-0.194609 -0.104337,-0.312034 0,-0.16074 0.07215,-0.305392 0.187221,-0.400769 l -0.04388,-0.094586 c -0.0603,-0.1415186 -0.118107,-0.2836145 -0.175518,-0.4261216 -0.01912,-0.047524 -0.03826,-0.094911 -0.05753,-0.1423655 -0.04948,-0.136551 -0.09599,-0.27433 -0.142366,-0.411495 -0.01922,-0.05673 -0.03821,-0.1131874 -0.05753,-0.1696685 L 12.91564,8.787111 A 5.4769482,5.4769482 0 0 0 12.293522,8.716903 Z m 0.729379,0.088735 c 0.03315,0.069725 0.06683,0.1394444 0.100438,0.2086728 0.05402,0.1112435 0.107424,0.2215437 0.158942,0.3334865 0.02936,0.057049 0.05908,0.1146636 0.08874,0.1716188 0.06381,0.122487 0.127436,0.2446039 0.188195,0.3676151 0.01622,0.029715 0.03198,0.058763 0.04876,0.08776 0.04114,-0.010479 0.08446,-0.016577 0.12969,-0.016577 0.105845,0 0.205579,0.032445 0.287657,0.086785 L 14.37833,9.7163255 c 0.08542,-0.074679 0.171983,-0.1472433 0.258404,-0.2203741 0.02603,-0.022005 0.05207,-0.044289 0.07801,-0.066307 a 5.4769482,5.4769482 0 0 0 -1.69182,-0.6240733 z m 1.756168,0.6601472 c -0.03222,0.034315 -0.06442,0.068953 -0.09654,0.1033613 -0.07304,0.078313 -0.146485,0.1565598 -0.220374,0.2330505 L 14.14624,10.157073 c 0.06994,0.08849 0.112137,0.199748 0.112137,0.321786 0,0.142288 -0.05663,0.27033 -0.149192,0.36469 l 0.152117,0.253527 0.217448,0.331537 c 0.02571,0.03853 0.05095,0.07725 0.07606,0.116036 0.04658,0.07193 0.09337,0.143758 0.14334,0.213549 0.04817,0.06487 0.09544,0.13101 0.142366,0.196972 0.0297,0.04174 0.05868,0.08327 0.08874,0.124814 l 0.115056,0.160891 c 0.0049,0.0068 0.0098,0.01459 0.01463,0.02145 0.0333,0.04701 0.06667,0.09363 0.103357,0.137491 l 0.247676,0.311059 0.120914,0.156017 0.06143,0.07801 0.06436,0.07509 0.259379,0.300332 c 0.03011,0.03409 0.0603,0.06856 0.08971,0.103356 0.05602,0.06615 0.111587,0.132189 0.172593,0.194046 l 0.272054,0.289607 0.135541,0.146266 c 0.02956,0.03271 0.06108,0.06296 0.09264,0.09361 0.01603,0.01553 0.03205,0.03103 0.04778,0.04681 l 0.283756,0.27888 0.140415,0.142366 0.147242,0.133589 c 0.0099,0.0087 0.02049,0.01836 0.03023,0.02731 0.0053,0.0048 0.01041,0.0089 0.0156,0.01365 0.02847,-0.02878 0.06109,-0.05257 0.09556,-0.07411 A 5.4769482,5.4769482 0 0 0 17.47719,14.185242 5.4769482,5.4769482 0 0 0 14.779071,9.4657265 Z M 13.5056,10.943984 c -0.01172,0.0149 -0.02342,0.02986 -0.0351,0.04486 -0.01603,0.02057 -0.03165,0.04109 -0.04778,0.06143 -0.111288,0.133116 -0.210555,0.275938 -0.309109,0.41832 -0.02217,0.03205 -0.04399,0.06466 -0.06631,0.09654 -0.06062,0.08717 -0.121462,0.174263 -0.183319,0.260354 -0.0098,0.01398 -0.01927,0.02716 -0.02925,0.04096 -0.02122,0.02923 -0.04231,0.05841 -0.06143,0.08874 l -0.08484,0.135539 -0.338361,0.538259 c -0.07155,0.123056 -0.140901,0.247338 -0.209649,0.372491 0.08163,0.09209 0.13164,0.211711 0.13164,0.344212 0,0.06156 -0.01148,0.120226 -0.0312,0.174544 0.0099,0.0079 0.02029,0.01654 0.03023,0.02438 0.04948,0.03924 0.09854,0.0774 0.148216,0.116037 l 0.112137,0.08971 c 0.02292,0.01902 0.04589,0.03844 0.06826,0.05851 0.01388,0.01243 0.0279,0.02487 0.04193,0.03706 0.04578,0.04034 0.09099,0.0813 0.136514,0.121888 0.02686,0.02386 0.05412,0.04742 0.08094,0.07118 l 0.0312,0.02828 c 0.06176,0.05492 0.123513,0.11008 0.185271,0.164794 0.01558,0.01403 0.03113,0.02712 0.04681,0.04096 0.05637,0.04987 0.112317,0.09974 0.162843,0.154066 0.04677,0.04783 0.09388,0.09571 0.140415,0.143341 0.08572,0.08767 0.170754,0.175058 0.255478,0.261329 0.01172,0.01199 0.02338,0.02404 0.0351,0.03608 0.02057,0.02122 0.04174,0.04247 0.06241,0.06338 0.0327,0.03285 0.06508,0.06631 0.09459,0.101407 0.02851,0.0329 0.05638,0.06578 0.08484,0.09849 0.0316,0.03629 0.06323,0.07199 0.09459,0.108237 0.0048,0.0054 0.0092,0.01041 0.01365,0.0156 0.0054,0.0063 0.01089,0.01316 0.01658,0.0195 0.06944,-0.03409 0.1472,-0.05363 0.230125,-0.05363 0.194909,0 0.364109,0.107292 0.453425,0.266204 0.08267,-0.02037 0.164498,-0.04098 0.245726,-0.06046 0.02086,-0.005 0.04174,-0.0097 0.06241,-0.01463 0.09016,-0.01837 0.179886,-0.03431 0.268154,-0.04973 0.05336,-0.0093 0.105845,-0.01859 0.157967,-0.02828 0.108692,-0.01937 0.216666,-0.03704 0.320811,-0.05461 0.028,-0.0048 0.05533,-0.0099 0.08289,-0.01463 0.08572,-0.01362 0.170077,-0.02199 0.252554,-0.03023 0.04353,-0.0043 0.08652,-0.0078 0.128714,-0.01268 0.122018,-0.01339 0.240005,-0.0261 0.351037,-0.03608 0.01369,-0.0013 0.02748,-0.0025 0.04095,-0.0039 0.0965,-0.0095 0.18811,-0.01835 0.27498,-0.0195 0.08513,-0.0033 0.164739,-0.0061 0.239877,-0.0078 5.99e-4,-0.105893 0.03247,-0.203153 0.08679,-0.284731 -0.01743,-0.01233 -0.03388,-0.02477 -0.05071,-0.03706 L 17.065741,14.71371 16.909723,14.586946 16.59964,14.329518 c -0.01773,-0.01507 -0.03649,-0.03003 -0.05461,-0.04485 -0.03385,-0.02775 -0.06741,-0.05493 -0.09946,-0.08484 l -0.147242,-0.138465 -0.292531,-0.27693 c -0.08777,-0.07923 -0.168999,-0.165257 -0.249628,-0.251577 -0.01124,-0.01204 -0.02193,-0.02405 -0.03316,-0.03608 l -0.274977,-0.296436 -0.06923,-0.07411 -0.06533,-0.07704 -0.12969,-0.155042 -0.255477,-0.31301 c -0.04249,-0.04966 -0.08015,-0.102639 -0.117987,-0.155042 l -0.0049,-0.0059 -0.118967,-0.162843 c -0.02944,-0.04059 -0.05911,-0.08063 -0.08872,-0.120914 -0.05023,-0.0684 -0.100318,-0.136676 -0.149191,-0.205746 -0.05067,-0.07396 -0.09844,-0.150359 -0.146266,-0.226226 -0.02412,-0.03827 -0.04862,-0.07601 -0.07314,-0.114087 L 14.01266,11.249092 c -0.04309,-0.07361 -0.08398,-0.148872 -0.124813,-0.224274 -0.0075,-0.01389 -0.01586,-0.02804 -0.0234,-0.04193 -0.04068,0.01053 -0.08288,0.01658 -0.126764,0.01658 -0.08332,0 -0.162079,-0.02071 -0.232075,-0.05558 z m -6.098317,0.259378 a 5.4769482,5.4769482 0 0 0 -0.865895,2.721523 c 0.0048,-0.003 0.0098,-0.0057 0.01463,-0.0087 0.05139,-0.03265 0.10508,-0.06683 0.162843,-0.102387 0.110654,-0.06774 0.230286,-0.1461 0.357865,-0.230125 0.04102,-0.02701 0.083,-0.05487 0.125789,-0.08289 0.0181,-0.01196 0.03631,-0.02404 0.05461,-0.03608 0.02628,-0.01737 0.05297,-0.03493 0.07996,-0.05266 0.02244,-0.01553 0.04468,-0.03078 0.06728,-0.04681 0.02283,-0.01612 0.04566,-0.03238 0.06923,-0.04876 0.03396,-0.02336 0.06859,-0.04717 0.103356,-0.07118 0.06049,-0.04174 0.121966,-0.08425 0.185271,-0.12774 0.09663,-0.07124 0.196399,-0.144331 0.297407,-0.219398 0.08801,-0.06084 0.174129,-0.127588 0.261328,-0.195023 0.01567,-0.01212 0.03104,-0.02491 0.04681,-0.03705 0.02815,-0.02205 0.05619,-0.04324 0.08484,-0.06533 0.07597,-0.05858 0.153635,-0.118238 0.2272,-0.181369 0.0559,-0.04582 0.111922,-0.09215 0.168694,-0.138466 0.04774,-0.03895 0.09623,-0.07765 0.144315,-0.117018 -0.02217,-0.05793 -0.0351,-0.120883 -0.0351,-0.186245 0,-0.03768 0.0036,-0.07387 0.01172,-0.109206 l -0.0068,-0.0039 C 8.867316,11.816528 8.775095,11.770248 8.681805,11.731934 8.609395,11.700114 8.539024,11.668174 8.470207,11.637344 8.291134,11.557124 8.123418,11.481897 7.967052,11.42282 7.925912,11.40625 7.886312,11.39078 7.847114,11.37504 7.783844,11.34962 7.723194,11.32518 7.665744,11.3019 7.590404,11.26952 7.517866,11.24385 7.451221,11.21999 7.436281,11.21459 7.421681,11.20863 7.407341,11.20341 Z m 2.454342,1.126248 c -0.09484,0.104062 -0.231223,0.168694 -0.383215,0.168694 -0.09562,0 -0.18514,-0.02601 -0.262305,-0.07118 -0.220769,0.17356 -0.439992,0.34592 -0.661122,0.494378 -0.19095,0.139781 -0.38612,0.26111 -0.572387,0.377366 -0.02419,0.01513 -0.04829,0.02993 -0.07216,0.04485 -0.0558,0.03205 -0.110055,0.06406 -0.163818,0.09556 -0.151374,0.08867 -0.29609,0.17318 -0.437822,0.241827 -0.05247,0.02706 -0.103165,0.05332 -0.153092,0.07899 -0.04043,0.02072 -0.08017,0.04146 -0.118968,0.06143 -0.0556,0.02881 -0.111336,0.05341 -0.164793,0.07704 -0.02938,0.01298 -0.05816,0.02607 -0.08581,0.03901 -0.09215,0.04218 -0.175451,0.07877 -0.253527,0.112137 a 5.4769482,5.4769482 0 0 0 -0.0098,0.135539 5.4769482,5.4769482 0 0 0 0.127738,1.108697 c 0.05127,0.0383 0.10222,0.07648 0.153091,0.115068 0.09928,0.07523 0.198179,0.149833 0.299359,0.222324 l 0.27303,0.193071 c 0.02989,0.02052 0.05913,0.04134 0.08874,0.06241 0.06088,0.04339 0.122355,0.08675 0.186245,0.125788 l 0.277905,0.183321 c 0.0093,0.0062 0.01895,0.01238 0.02828,0.01853 0.08313,0.05512 0.165671,0.110342 0.252552,0.159918 0.03099,0.01867 0.06255,0.03793 0.09361,0.05656 0.06398,0.03824 0.127596,0.07572 0.191122,0.115067 l 0.142365,0.08679 0.144316,0.08094 0.290581,0.161867 c 0.01784,0.0097 0.03487,0.01926 0.05266,0.02925 0.03066,0.01718 0.06162,0.03498 0.09264,0.05071 l 0.148216,0.07509 c 0.05079,0.02577 0.101563,0.05189 0.152118,0.07801 0.12664,0.0654 0.253474,0.130984 0.383215,0.190145 0.08921,-0.0948 0.213458,-0.156878 0.35299,-0.163818 0.02128,-0.118776 0.04539,-0.236616 0.07021,-0.354939 0.0095,-0.04488 0.01903,-0.08953 0.02828,-0.134564 0.02798,-0.151724 0.06748,-0.301272 0.107256,-0.450499 0.01601,-0.06006 0.03253,-0.120185 0.04778,-0.180395 0.01791,-0.07394 0.04006,-0.145882 0.06241,-0.218424 0.0095,-0.03085 0.01908,-0.06154 0.02828,-0.09264 l 0.09459,-0.311059 c 0.06949,-0.204595 0.14096,-0.40982 0.218424,-0.612367 l 0.121888,-0.301308 0.0039,-0.01077 c 0.03884,-0.09691 0.07768,-0.193424 0.122864,-0.288631 0.02207,-0.04842 0.04444,-0.09739 0.06631,-0.146267 0.04918,-0.10984 0.098,-0.22022 0.150166,-0.32666 -0.08977,-0.09386 -0.14529,-0.220848 -0.14529,-0.36079 0,-0.05307 0.0084,-0.104613 0.0234,-0.153091 -0.05487,-0.03948 -0.1099,-0.0784 -0.165769,-0.115068 -0.04803,-0.03055 -0.096,-0.06122 -0.14334,-0.09166 -0.02971,-0.0191 -0.05907,-0.03854 -0.08874,-0.05753 -0.03302,-0.02141 -0.06577,-0.04291 -0.09849,-0.06436 -0.119219,-0.07814 -0.237474,-0.155091 -0.357864,-0.223299 -0.05669,-0.03294 -0.112376,-0.06631 -0.167719,-0.09946 -0.09408,-0.05636 -0.186747,-0.111838 -0.281806,-0.163819 -0.02995,-0.01641 -0.05896,-0.03167 -0.08874,-0.04778 z m 2.179365,1.449009 c -0.08333,0.05536 -0.182418,0.08776 -0.289607,0.08776 -0.02217,0 -0.04414,-0.0022 -0.06631,-0.0049 -0.04518,0.09262 -0.08803,0.185394 -0.130665,0.277906 -0.02756,0.05977 -0.0557,0.119709 -0.08386,0.17942 -0.03994,0.08212 -0.07493,0.167429 -0.110187,0.252552 -0.0053,0.01268 -0.01029,0.02535 -0.0156,0.03803 l -0.121889,0.292531 c -0.02536,0.06016 -0.04774,0.122062 -0.07021,0.183321 -0.01398,0.03814 -0.02817,0.07609 -0.04291,0.114087 l -0.112137,0.297407 -0.102388,0.301308 c -0.01005,0.03041 -0.02072,0.06028 -0.0312,0.09069 -0.02403,0.0696 -0.04802,0.13938 -0.06728,0.210623 l -0.08971,0.305208 -0.04681,0.152117 -0.04096,0.154067 c -0.0099,0.03765 -0.02023,0.07552 -0.03023,0.113107 -0.03174,0.11947 -0.06253,0.238917 -0.09069,0.358838 0.04871,0.02256 0.09196,0.05139 0.130664,0.08679 0.01041,-0.0069 0.02109,-0.01364 0.0312,-0.02048 0.01305,-0.0089 0.0258,-0.01749 0.03901,-0.02633 0.04828,-0.03016 0.09718,-0.06008 0.146266,-0.09069 0.07852,-0.04893 0.157796,-0.09887 0.237926,-0.149192 0.264356,-0.157116 0.5396,-0.314988 0.829817,-0.457324 0.07254,-0.03634 0.145582,-0.07304 0.218423,-0.110188 0.04109,-0.01907 0.0823,-0.0383 0.123839,-0.05753 0.03265,-0.01507 0.06466,-0.02963 0.09751,-0.04485 0.02122,-0.0096 0.04314,-0.01957 0.06436,-0.02925 0.127409,-0.05786 0.255263,-0.116168 0.387117,-0.166744 0.05522,-0.02152 0.109828,-0.04403 0.164792,-0.06631 0.09696,-0.03919 0.194556,-0.07757 0.293508,-0.113106 0.05277,-0.01867 0.105498,-0.03778 0.157967,-0.05656 0.101693,-0.03645 0.202784,-0.07261 0.304233,-0.107256 0.01065,-0.0032 0.02062,-0.0066 0.0312,-0.0098 0.01199,-0.0036 0.024,-0.0071 0.03608,-0.01077 0,-0.002 2e-4,-0.0037 0,-0.0059 -1.49e-4,-0.002 0,-0.0039 0,-0.0059 0,-0.103596 0.03086,-0.199803 0.08289,-0.280831 -0.0036,-0.0039 -0.0079,-0.0078 -0.01172,-0.01172 -0.0065,-0.0067 -0.01254,-0.01349 -0.01853,-0.02048 -0.06031,-0.06535 -0.121386,-0.131496 -0.182345,-0.197947 -0.03,-0.0336 -0.06163,-0.06533 -0.09459,-0.09654 -0.0326,-0.03131 -0.06564,-0.06278 -0.09849,-0.09459 -0.03181,-0.03071 -0.06448,-0.06173 -0.09654,-0.09264 -0.100102,-0.09655 -0.200734,-0.194429 -0.302283,-0.292533 -0.06055,-0.06161 -0.124943,-0.117975 -0.190145,-0.174543 -0.0054,-0.0045 -0.01125,-0.0091 -0.01658,-0.01365 -0.06914,-0.05996 -0.137626,-0.119736 -0.206723,-0.180396 l -0.0039,-0.0039 c -0.01847,-0.01608 -0.03701,-0.03263 -0.05558,-0.04876 -0.05223,-0.04539 -0.105115,-0.09088 -0.156993,-0.136514 -0.01383,-0.01172 -0.02753,-0.02327 -0.04095,-0.0351 -0.02177,-0.01907 -0.04329,-0.03803 -0.06631,-0.05656 l -0.113118,-0.08776 c -0.03145,-0.02446 -0.06298,-0.04887 -0.09459,-0.07314 -0.0283,-0.02172 -0.05673,-0.04352 -0.08484,-0.06533 z m 5.159288,1.46461 c -0.07523,0.01053 -0.153978,0.02072 -0.238902,0.0312 -0.09276,0.0099 -0.189332,0.02841 -0.290581,0.04778 -0.0067,0.0013 -0.01281,0.0026 -0.0195,0.0039 -0.108189,0.02127 -0.222942,0.04194 -0.342263,0.06241 -0.04473,0.0089 -0.09023,0.01731 -0.136515,0.02535 -0.07624,0.01323 -0.154744,0.02633 -0.234025,0.04485 -0.126361,0.0308 -0.257621,0.0628 -0.392969,0.09361 -0.04484,0.01053 -0.08986,0.02081 -0.135539,0.0312 -0.09177,0.02087 -0.185797,0.04199 -0.279856,0.06631 -0.04668,0.01363 -0.09294,0.02698 -0.140415,0.04095 -0.05177,0.01523 -0.104469,0.03143 -0.156992,0.04681 v 0.0039 c 0,0.122517 -0.04212,0.234818 -0.113106,0.323736 0.152222,0.191265 0.282428,0.390695 0.405644,0.579213 0.0385,0.05887 0.07552,0.116372 0.113106,0.172594 0.04009,0.06026 0.07903,0.118584 0.117018,0.176494 0.02451,0.03714 0.04632,0.07552 0.06728,0.113106 0.01172,0.02111 0.02302,0.04194 0.0351,0.06241 0.02376,0.04159 0.04738,0.08267 0.07021,0.122862 0.03954,0.06965 0.07782,0.137295 0.115068,0.201848 0.01652,0.02951 0.03259,0.05847 0.04876,0.08679 0.03954,0.06944 0.07778,0.134818 0.110188,0.198922 0.0389,0.08093 0.07383,0.153792 0.107256,0.222324 a 5.4769482,5.4769482 0 0 0 1.400254,-2.521625 c -0.05432,-0.06783 -0.09433,-0.14755 -0.109206,-0.236951 z M 6.690579,15.47823 a 5.4769482,5.4769482 0 0 0 2.195941,3.200299 c 0.0599,-0.05967 0.125027,-0.122432 0.199897,-0.191121 0.03672,-0.03375 0.07571,-0.06866 0.115068,-0.105306 0.102722,-0.100306 0.223383,-0.200744 0.352989,-0.308134 0.05061,-0.04194 0.102256,-0.08409 0.155042,-0.128714 0.01943,-0.01628 0.03943,-0.03293 0.05948,-0.04876 0.012,-0.0095 0.0242,-0.01875 0.03608,-0.02828 -0.02948,-0.06545 -0.04681,-0.137162 -0.04681,-0.213548 0,-0.02077 0.0025,-0.04218 0.0049,-0.06241 C 9.630764,17.529846 9.5013,17.461107 9.372149,17.392359 9.320259,17.364749 9.268194,17.337649 9.216131,17.310449 l -0.150166,-0.08094 c -0.03116,-0.01773 -0.06111,-0.03603 -0.09166,-0.05461 -0.01757,-0.01077 -0.0359,-0.02159 -0.05363,-0.03218 L 8.631072,16.968183 8.485781,16.880423 8.345366,16.785833 c -0.06498,-0.04249 -0.129321,-0.08611 -0.193071,-0.129688 -0.02928,-0.02007 -0.05845,-0.04059 -0.08776,-0.06046 -0.09034,-0.05991 -0.176992,-0.124317 -0.263278,-0.189171 l -0.01172,-0.0087 -0.270104,-0.203796 c -0.06456,-0.04728 -0.125912,-0.09912 -0.187221,-0.151143 -0.02477,-0.02102 -0.04918,-0.04271 -0.07411,-0.06338 L 6.998723,15.762991 c -0.05557,-0.04663 -0.109087,-0.09716 -0.161868,-0.147241 -0.02904,-0.02756 -0.05743,-0.0551 -0.08679,-0.08191 -0.0197,-0.01855 -0.03976,-0.03711 -0.05948,-0.05558 z m 7.190436,0.553861 c -0.02262,0.0077 -0.04542,0.01474 -0.06728,0.02243 -0.09126,0.03455 -0.182867,0.06869 -0.27498,0.102388 -0.05681,0.02077 -0.113633,0.04128 -0.170644,0.06241 -0.09671,0.03595 -0.191999,0.07609 -0.287657,0.116037 -0.05247,0.02196 -0.10539,0.04406 -0.157966,0.06533 -0.09581,0.03735 -0.189371,0.08008 -0.282781,0.122864 -0.05267,0.02412 -0.104948,0.04807 -0.157968,0.07118 -0.04923,0.02237 -0.09899,0.04419 -0.148216,0.06631 -0.02361,0.01053 -0.04659,0.02154 -0.07021,0.03218 -0.04698,0.02281 -0.09446,0.04616 -0.14139,0.06923 -0.02416,0.01184 -0.04814,0.02333 -0.07216,0.0351 -0.02221,0.01089 -0.04511,0.02227 -0.06728,0.03316 -0.119771,0.05866 -0.237635,0.116396 -0.352012,0.180395 -0.05846,0.03235 -0.117879,0.0631 -0.176495,0.09361 -0.07748,0.04024 -0.153786,0.08065 -0.228175,0.123839 -0.04059,0.02332 -0.08175,0.04621 -0.121889,0.06923 -0.08936,0.05118 -0.177593,0.101837 -0.264254,0.152117 -0.02229,0.01333 -0.04426,0.0266 -0.06631,0.03998 0.01677,0.05207 0.02633,0.107878 0.02633,0.164792 0,0.0087 -3.76e-4,0.01666 -9.98e-4,0.02535 -2.7e-4,0.0039 -7.49e-4,0.0087 -9.99e-4,0.01268 0.128568,0.05382 0.257186,0.105977 0.386142,0.150168 l 0.310084,0.113106 c 0.100402,0.03969 0.204213,0.07261 0.307158,0.105306 l 0.0059,0.0019 0.315935,0.102388 c 0.01428,0.0045 0.02863,0.009 0.04291,0.01365 0.03849,0.01248 0.07724,0.02562 0.116037,0.03706 l 0.159918,0.04388 c 0.107041,0.02821 0.213869,0.05848 0.320809,0.08874 l 0.158942,0.04485 0.161868,0.039 0.32471,0.07508 c 0.02701,0.0062 0.05398,0.01214 0.08094,0.01853 0.08113,0.01918 0.162725,0.03823 0.244752,0.05266 0.07688,0.01422 0.15334,0.02978 0.230125,0.04485 0.141439,0.0277 0.282609,0.05519 0.425147,0.07801 l 0.576288,0.08776 a 5.4769482,5.4769482 0 0 0 0.897098,-0.741081 c -0.01525,-0.02482 -0.03151,-0.0495 -0.04778,-0.07606 -0.02851,-0.04643 -0.05786,-0.09557 -0.08971,-0.147241 -0.03046,-0.04687 -0.06369,-0.09515 -0.09844,-0.145278 -0.02781,-0.04004 -0.05705,-0.08188 -0.08581,-0.124814 -0.0337,-0.04913 -0.06855,-0.09954 -0.104338,-0.152117 -0.0337,-0.04957 -0.06766,-0.100964 -0.103356,-0.153091 -0.01383,-0.01957 -0.02824,-0.03936 -0.04193,-0.05948 -0.02357,-0.0347 -0.04707,-0.06993 -0.07314,-0.104338 -0.04089,-0.05437 -0.08306,-0.109302 -0.125789,-0.165767 l -0.0059,-0.0078 c -0.08393,-0.111288 -0.170514,-0.226841 -0.261328,-0.346163 -0.04564,-0.06126 -0.09254,-0.123259 -0.146266,-0.183319 -0.04673,-0.05687 -0.09486,-0.114877 -0.14334,-0.172594 -0.0677,0.0323 -0.143419,0.05071 -0.223301,0.05071 -0.17998,0 -0.337785,-0.09021 -0.430996,-0.22915 z m -3.207125,1.960938 c -0.09257,0.108237 -0.22947,0.177875 -0.382241,0.18137 -0.0168,0.09436 -0.03235,0.188572 -0.04778,0.282781 -0.0068,0.04194 -0.01348,0.08375 -0.02048,0.125789 l -0.02535,0.157967 -0.02048,0.158943 -0.04193,0.317884 c -0.0039,0.03277 -0.0071,0.06566 -0.01077,0.09849 a 5.4769482,5.4769482 0 0 0 1.875127,0.346163 5.4769482,5.4769482 0 0 0 2.799531,-0.782036 c -0.03048,-0.0018 -0.06114,-0.0035 -0.09166,-0.0049 l -0.337386,-0.01853 c -0.07514,-0.0022 -0.148861,-0.01136 -0.2233,-0.02048 -0.03735,-0.0045 -0.07469,-0.009 -0.112137,-0.01268 l -0.336411,-0.03901 c -0.112185,-0.01053 -0.223428,-0.02946 -0.334462,-0.04973 l -0.333487,-0.05753 -0.166743,-0.03023 -0.164793,-0.03705 c -0.109983,-0.02437 -0.220575,-0.0499 -0.330561,-0.07606 l -0.164793,-0.03901 c -0.03235,-0.0081 -0.06433,-0.01699 -0.09654,-0.02633 -0.02191,-0.0063 -0.04429,-0.01346 -0.06631,-0.0195 l -0.325686,-0.09361 c -0.163806,-0.04298 -0.324167,-0.09988 -0.484628,-0.156992 -0.05377,-0.01913 -0.107951,-0.03798 -0.161867,-0.05656 -0.135858,-0.04433 -0.265932,-0.09647 -0.394919,-0.149191 z m -0.753758,0.03803 c -0.03409,0.02207 -0.06814,0.04472 -0.100438,0.06728 -0.09897,0.06919 -0.193274,0.135417 -0.282781,0.198922 -0.04549,0.03115 -0.08985,0.0618 -0.132614,0.09166 v 9.99e-4 c -0.01343,0.0099 -0.02678,0.01951 -0.03998,0.02925 -0.0282,0.02081 -0.05619,0.04132 -0.08289,0.06143 -0.02729,0.02022 -0.05389,0.04016 -0.07996,0.05948 -0.04988,0.03694 -0.09759,0.07197 -0.142365,0.105319 -0.03487,0.02486 -0.06783,0.04909 -0.09946,0.07216 -0.0036,0.0028 -0.0072,0.005 -0.01077,0.0078 a 5.4769482,5.4769482 0 0 0 1.106746,0.564587 c 9e-5,-0.02569 -0.0014,-0.05134 -9.99e-4,-0.07704 l 0.0078,-0.322759 0.0059,-0.161868 0.01077,-0.161868 0.0234,-0.322761 c 0.0017,-0.02506 0.0041,-0.05037 0.0068,-0.07508 7.99e-4,-0.0072 0.0022,-0.01437 0.003,-0.02145 -0.07219,-0.02486 -0.137757,-0.06451 -0.192097,-0.116037 z" />
</svg>
