<?xml version="1.0" encoding="UTF-8" standalone="no"?>
<svg
   width="24"
   height="24"
   viewBox="0 0 24 24"
   fill="none"
   version="1.1"
   id="svg17"
   sodipodi:docname="black-folder-download.svg"
   inkscape:version="1.3 (0e150ed6c4, 2023-07-21)"
   xmlns:inkscape="http://www.inkscape.org/namespaces/inkscape"
   xmlns:sodipodi="http://sodipodi.sourceforge.net/DTD/sodipodi-0.dtd"
   xmlns:xlink="http://www.w3.org/1999/xlink"
   xmlns="http://www.w3.org/2000/svg"
   xmlns:svg="http://www.w3.org/2000/svg">
  <sodipodi:namedview
     id="namedview17"
     pagecolor="#ffffff"
     bordercolor="#000000"
     borderopacity="0.25"
     inkscape:showpageshadow="2"
     inkscape:pageopacity="0.0"
     inkscape:pagecheckerboard="0"
     inkscape:deskcolor="#d1d1d1"
     inkscape:zoom="19.25"
     inkscape:cx="11.974026"
     inkscape:cy="12.961039"
     inkscape:window-width="2560"
     inkscape:window-height="998"
     inkscape:window-x="0"
     inkscape:window-y="0"
     inkscape:window-maximized="1"
     inkscape:current-layer="svg17" />
  <defs
     id="defs17">
    <linearGradient
       id="paint0_linear_201_2"
       x1="23"
       y1="0.999999"
       x2="1"
       y2="12"
       gradientUnits="userSpaceOnUse">
      <stop
         stop-color="#444444"
         id="stop5" />
      <stop
         offset="1"
         id="stop6" />
    </linearGradient>
    <linearGradient
       id="paint1_linear_201_2"
       x1="21"
       y1="4"
       x2="3"
       y2="4"
       gradientUnits="userSpaceOnUse">
      <stop
         stop-opacity="0.5"
         id="stop7" />
      <stop
         offset="0.890123"
         id="stop8" />
      <stop
         offset="1"
         stop-opacity="0"
         id="stop9" />
    </linearGradient>
    <linearGradient
       id="paint2_linear_201_2"
       x1="12"
       y1="3"
       x2="11.5"
       y2="8"
       gradientUnits="userSpaceOnUse">
      <stop
         stop-color="#DDDDDD"
         id="stop10" />
      <stop
         offset="1"
         stop-color="#CCCCCC"
         stop-opacity="0"
         id="stop11" />
    </linearGradient>
    <linearGradient
       id="paint3_linear_201_2"
       x1="23"
       y1="9"
       x2="1.01236"
       y2="9.52141"
       gradientUnits="userSpaceOnUse">
      <stop
         stop-opacity="0.5"
         id="stop12" />
      <stop
         offset="1"
         id="stop13" />
    </linearGradient>
    <linearGradient
       id="paint4_linear_201_2"
       x1="23"
       y1="5.4"
       x2="1.42949"
       y2="23.5115"
       gradientUnits="userSpaceOnUse">
      <stop
         stop-color="#555555"
         id="stop14" />
      <stop
         offset="1"
         stop-color="#181818"
         id="stop15" />
    </linearGradient>
    <linearGradient
       id="paint5_linear_201_2"
       x1="15"
       y1="5.5"
       x2="5.5"
       y2="19.5"
       gradientUnits="userSpaceOnUse">
      <stop
         stop-color="#999999"
         id="stop16" />
      <stop
         offset="1"
         id="stop17" />
    </linearGradient>
    <linearGradient
       id="paint0_linear_201_2-0"
       x1="23"
       y1="0.99999899"
       x2="1"
       y2="12"
       gradientUnits="userSpaceOnUse">
      <stop
         stop-color="#444444"
         id="stop5-13" />
      <stop
         offset="1"
         id="stop6-11" />
    </linearGradient>
    <linearGradient
       id="paint1_linear_201_2-3"
       x1="21"
       y1="4"
       x2="3"
       y2="4"
       gradientUnits="userSpaceOnUse">
      <stop
         stop-opacity="0.5"
         id="stop7-9" />
      <stop
         offset="0.890123"
         id="stop8-0" />
      <stop
         offset="1"
         stop-opacity="0"
         id="stop9-8" />
    </linearGradient>
    <linearGradient
       id="paint2_linear_201_2-9"
       x1="12"
       y1="3"
       x2="11.5"
       y2="8"
       gradientUnits="userSpaceOnUse">
      <stop
         stop-color="#DDDDDD"
         id="stop10-2" />
      <stop
         offset="1"
         stop-color="#CCCCCC"
         stop-opacity="0"
         id="stop11-9" />
    </linearGradient>
    <linearGradient
       id="paint3_linear_201_2-1"
       x1="23"
       y1="9"
       x2="1.01236"
       y2="9.52141"
       gradientUnits="userSpaceOnUse">
      <stop
         stop-opacity="0.5"
         id="stop12-0" />
      <stop
         offset="1"
         id="stop13-6" />
    </linearGradient>
    <linearGradient
       id="paint4_linear_201_2-9"
       x1="23"
       y1="5.4000001"
       x2="1.42949"
       y2="23.511499"
       gradientUnits="userSpaceOnUse">
      <stop
         stop-color="#555555"
         id="stop14-28" />
      <stop
         offset="1"
         stop-color="#181818"
         id="stop15-47" />
    </linearGradient>
    <linearGradient
       id="paint5_linear_201_2-6"
       x1="15"
       y1="5.5"
       x2="5.5"
       y2="19.5"
       gradientUnits="userSpaceOnUse">
      <stop
         stop-color="#999999"
         id="stop16-2" />
      <stop
         offset="1"
         id="stop17-4" />
    </linearGradient>
    <linearGradient
       id="paint0_linear_201_2-0-8"
       x1="23"
       y1="0.99999899"
       x2="1"
       y2="12"
       gradientUnits="userSpaceOnUse">
      <stop
         stop-color="#444444"
         id="stop5-13-0" />
      <stop
         offset="1"
         id="stop6-11-5" />
    </linearGradient>
    <linearGradient
       id="paint1_linear_201_2-3-6"
       x1="21"
       y1="4"
       x2="3"
       y2="4"
       gradientUnits="userSpaceOnUse">
      <stop
         stop-opacity="0.5"
         id="stop7-9-6" />
      <stop
         offset="0.890123"
         id="stop8-0-4" />
      <stop
         offset="1"
         stop-opacity="0"
         id="stop9-8-0" />
    </linearGradient>
    <linearGradient
       id="paint2_linear_201_2-9-0"
       x1="12"
       y1="3"
       x2="11.5"
       y2="8"
       gradientUnits="userSpaceOnUse">
      <stop
         stop-color="#DDDDDD"
         id="stop10-2-4" />
      <stop
         offset="1"
         stop-color="#CCCCCC"
         stop-opacity="0"
         id="stop11-9-6" />
    </linearGradient>
    <linearGradient
       id="paint3_linear_201_2-1-2"
       x1="23"
       y1="9"
       x2="1.01236"
       y2="9.52141"
       gradientUnits="userSpaceOnUse">
      <stop
         stop-opacity="0.5"
         id="stop12-0-6" />
      <stop
         offset="1"
         id="stop13-6-7" />
    </linearGradient>
    <linearGradient
       id="paint4_linear_201_2-9-5"
       x1="23"
       y1="5.4000001"
       x2="1.42949"
       y2="23.511499"
       gradientUnits="userSpaceOnUse">
      <stop
         stop-color="#555555"
         id="stop14-28-6" />
      <stop
         offset="1"
         stop-color="#181818"
         id="stop15-47-9" />
    </linearGradient>
    <linearGradient
       id="paint5_linear_201_2-6-8"
       x1="15"
       y1="5.5"
       x2="5.5"
       y2="19.5"
       gradientUnits="userSpaceOnUse">
      <stop
         stop-color="#999999"
         id="stop16-2-7" />
      <stop
         offset="1"
         id="stop17-4-2" />
    </linearGradient>
    <linearGradient
       id="paint0_linear_201_2-0-7"
       x1="23"
       y1="0.99999899"
       x2="1"
       y2="12"
       gradientUnits="userSpaceOnUse">
      <stop
         stop-color="#444444"
         id="stop5-13-6" />
      <stop
         offset="1"
         id="stop6-11-1" />
    </linearGradient>
    <linearGradient
       id="paint1_linear_201_2-3-3"
       x1="21"
       y1="4"
       x2="3"
       y2="4"
       gradientUnits="userSpaceOnUse">
      <stop
         stop-opacity="0.5"
         id="stop7-9-2" />
      <stop
         offset="0.890123"
         id="stop8-0-1" />
      <stop
         offset="1"
         stop-opacity="0"
         id="stop9-8-5" />
    </linearGradient>
    <linearGradient
       id="paint2_linear_201_2-9-9"
       x1="12"
       y1="3"
       x2="11.5"
       y2="8"
       gradientUnits="userSpaceOnUse">
      <stop
         stop-color="#DDDDDD"
         id="stop10-2-9" />
      <stop
         offset="1"
         stop-color="#CCCCCC"
         stop-opacity="0"
         id="stop11-9-1" />
    </linearGradient>
    <linearGradient
       id="paint3_linear_201_2-1-4"
       x1="23"
       y1="9"
       x2="1.01236"
       y2="9.52141"
       gradientUnits="userSpaceOnUse">
      <stop
         stop-opacity="0.5"
         id="stop12-0-9" />
      <stop
         offset="1"
         id="stop13-6-1" />
    </linearGradient>
    <linearGradient
       id="paint4_linear_201_2-9-0"
       x1="23"
       y1="5.4000001"
       x2="1.42949"
       y2="23.511499"
       gradientUnits="userSpaceOnUse">
      <stop
         stop-color="#555555"
         id="stop14-28-7" />
      <stop
         offset="1"
         stop-color="#181818"
         id="stop15-47-5" />
    </linearGradient>
    <linearGradient
       id="paint5_linear_201_2-6-87"
       x1="15"
       y1="5.5"
       x2="5.5"
       y2="19.5"
       gradientUnits="userSpaceOnUse">
      <stop
         stop-color="#999999"
         id="stop16-2-0" />
      <stop
         offset="1"
         id="stop17-4-4" />
    </linearGradient>
    <linearGradient
       id="paint0_linear_201_2-5"
       x1="23"
       y1="0.99999899"
       x2="1"
       y2="12"
       gradientUnits="userSpaceOnUse">
      <stop
         stop-color="#444444"
         id="stop5-13-5" />
      <stop
         offset="1"
         id="stop6-11-2" />
    </linearGradient>
    <linearGradient
       id="paint1_linear_201_2-9"
       x1="21"
       y1="4"
       x2="3"
       y2="4"
       gradientUnits="userSpaceOnUse">
      <stop
         stop-opacity="0.5"
         id="stop7-9-0" />
      <stop
         offset="0.890123"
         id="stop8-0-2" />
      <stop
         offset="1"
         stop-opacity="0"
         id="stop9-8-8" />
    </linearGradient>
    <linearGradient
       id="paint2_linear_201_2-3"
       x1="12"
       y1="3"
       x2="11.5"
       y2="8"
       gradientUnits="userSpaceOnUse">
      <stop
         stop-color="#DDDDDD"
         id="stop10-2-8" />
      <stop
         offset="1"
         stop-color="#CCCCCC"
         stop-opacity="0"
         id="stop11-9-0" />
    </linearGradient>
    <linearGradient
       id="paint3_linear_201_2-4"
       x1="23"
       y1="9"
       x2="1.01236"
       y2="9.52141"
       gradientUnits="userSpaceOnUse">
      <stop
         stop-opacity="0.5"
         id="stop12-0-0" />
      <stop
         offset="1"
         id="stop13-6-9" />
    </linearGradient>
    <linearGradient
       id="paint4_linear_201_2-1"
       x1="23"
       y1="5.4000001"
       x2="1.42949"
       y2="23.511499"
       gradientUnits="userSpaceOnUse">
      <stop
         stop-color="#555555"
         id="stop14-28-9" />
      <stop
         offset="1"
         stop-color="#181818"
         id="stop15-47-6" />
    </linearGradient>
    <linearGradient
       id="paint5_linear_201_2-2"
       x1="15"
       y1="5.5"
       x2="5.5"
       y2="19.5"
       gradientUnits="userSpaceOnUse">
      <stop
         stop-color="#999999"
         id="stop16-2-5" />
      <stop
         offset="1"
         id="stop17-4-44" />
    </linearGradient>
    <linearGradient
       id="paint0_linear_201_2-0-4"
       x1="23"
       y1="0.99999899"
       x2="1"
       y2="12"
       gradientUnits="userSpaceOnUse">
      <stop
         stop-color="#444444"
         id="stop5-13-9" />
      <stop
         offset="1"
         id="stop6-11-9" />
    </linearGradient>
    <linearGradient
       id="paint1_linear_201_2-3-4"
       x1="21"
       y1="4"
       x2="3"
       y2="4"
       gradientUnits="userSpaceOnUse">
      <stop
         stop-opacity="0.5"
         id="stop7-9-5" />
      <stop
         offset="0.890123"
         id="stop8-0-9" />
      <stop
         offset="1"
         stop-opacity="0"
         id="stop9-8-3" />
    </linearGradient>
    <linearGradient
       id="paint2_linear_201_2-9-5"
       x1="12"
       y1="3"
       x2="11.5"
       y2="8"
       gradientUnits="userSpaceOnUse">
      <stop
         stop-color="#DDDDDD"
         id="stop10-2-7" />
      <stop
         offset="1"
         stop-color="#CCCCCC"
         stop-opacity="0"
         id="stop11-9-08" />
    </linearGradient>
    <linearGradient
       id="paint3_linear_201_2-1-1"
       x1="23"
       y1="9"
       x2="1.01236"
       y2="9.52141"
       gradientUnits="userSpaceOnUse">
      <stop
         stop-opacity="0.5"
         id="stop12-0-99" />
      <stop
         offset="1"
         id="stop13-6-78" />
    </linearGradient>
    <linearGradient
       id="paint4_linear_201_2-9-2"
       x1="23"
       y1="5.4000001"
       x2="1.42949"
       y2="23.511499"
       gradientUnits="userSpaceOnUse">
      <stop
         stop-color="#555555"
         id="stop14-28-5" />
      <stop
         offset="1"
         stop-color="#181818"
         id="stop15-47-3" />
    </linearGradient>
    <linearGradient
       id="paint5_linear_201_2-6-4"
       x1="15"
       y1="5.5"
       x2="5.5"
       y2="19.5"
       gradientUnits="userSpaceOnUse">
      <stop
         stop-color="#999999"
         id="stop16-2-9" />
      <stop
         offset="1"
         id="stop17-4-0" />
    </linearGradient>
    <linearGradient
       inkscape:collect="always"
       xlink:href="#linearGradient24-5"
       id="linearGradient25-3"
       x1="-2.244113"
       y1="8.9965773"
       x2="-9.2647057"
       y2="18.241259"
       gradientUnits="userSpaceOnUse"
       gradientTransform="matrix(1.0831395,0,0,1.0831395,18.319019,-0.74630652)" />
    <linearGradient
       id="linearGradient24-5"
       inkscape:collect="always">
      <stop
         style="stop-color:#54bf54;stop-opacity:1;"
         offset="0"
         id="stop24" />
      <stop
         style="stop-color:#237523;stop-opacity:1;"
         offset="1"
         id="stop25" />
    </linearGradient>
  </defs>
  <rect
     opacity="0.8125"
     x="1.0000008"
     y="0.99999964"
     width="22"
     height="22"
     rx="6.5999999"
     fill="url(#paint0_linear_201_2)"
     id="rect1-0"
     style="fill:url(#paint0_linear_201_2-0-4);stroke-width:1" />
  <rect
     opacity="0.125"
     x="3.0000007"
     y="2.2499993"
     width="18"
     height="18"
     rx="4.4000001"
     fill="url(#paint1_linear_201_2)"
     fill-opacity="0.875"
     id="rect2-3"
     style="fill:url(#paint1_linear_201_2-3-4);stroke-width:1" />
  <rect
     x="3.2500005"
     y="3.2499993"
     width="17.5"
     height="17.5"
     rx="4.1500001"
     fill="#cccccc"
     stroke="url(#paint2_linear_201_2)"
     stroke-width="0.5"
     id="rect3-4"
     style="stroke:url(#paint2_linear_201_2-9-5)" />
  <path
     opacity="0.125"
     d="m 1.0000005,7.5078098 c 0,-1.6611703 1.34664,-3.0078103 3.0078099,-3.0078103 h 4.1826701 c 1.0745201,0 2.1163205,0.3699399 2.9501195,1.0476202 v 0 c 0.8339,0.67768 1.8756,1.0476199 2.950201,1.0476199 H 19.9922 c 1.661201,0 3.007801,1.3466401 3.007801,3.0078099 V 15.5 c 0,3.6451 -2.954901,6.6 -6.6,6.6 H 7.6000005 c -3.64508,0 -6.6,-2.9549 -6.6,-6.6 z"
     fill="url(#paint3_linear_201_2)"
     fill-opacity="0.875"
     id="path3-9"
     style="fill:url(#paint3_linear_201_2-1-1);stroke-width:1" />
  <path
     d="m 1.0000005,8.4078097 c 0,-1.6611702 1.34664,-3.0078103 3.0078099,-3.0078103 h 4.1826701 c 1.0745201,0 2.1163205,0.3699399 2.9501195,1.0476203 v 0 c 0.8339,0.67768 1.8756,1.0476199 2.950201,1.0476199 H 19.9922 c 1.661201,0 3.007801,1.34664 3.007801,3.0078604 V 16.4 c 0,3.6451 -2.954901,6.6 -6.6,6.6 H 7.6000005 c -3.64508,0 -6.6,-2.9549 -6.6,-6.6 z"
     fill="url(#paint4_linear_201_2)"
     id="path4-3"
     style="opacity:0.875;fill:url(#paint4_linear_201_2-9-2);stroke-width:1" />
  <path
     d="M 22.625001,10.5031 V 16.4 c 0,3.437999 -2.787001,6.225 -6.225,6.225 H 7.6000005 c -3.4379699,0 -6.225,-2.787001 -6.225,-6.225 V 8.4078097 c 0,-1.4540601 1.1787501,-2.6328103 2.6328099,-2.6328103 h 4.1826701 c 0.9883799,0 1.9466205,0.3402814 2.7136205,0.9636304 0.900699,0.7320098 2.025999,1.1316098 3.1867,1.1316098 H 19.9922 c 1.454,0 2.632801,1.1787501 2.632801,2.6328604 z"
     stroke="url(#paint5_linear_201_2)"
     stroke-opacity="0.375"
     stroke-width="0.750002"
     stroke-linejoin="round"
     id="path5-3"
     style="opacity:0.875;fill:none;stroke:url(#paint5_linear_201_2-6-4)" />
  <path
     id="path26"
     style="opacity:0.15;fill:#1a1a1a;stroke-width:2.16628;stroke-linecap:round;stroke-linejoin:round;paint-order:stroke markers fill"
     d="m 11.31849,9.5 c -0.533652,0 -0.962556,0.431019 -0.962556,0.964671 v 3.386926 L 9.482231,12.977893 c -0.37735,-0.377349 -0.985039,-0.377349 -1.362387,0 -0.37735,0.377348 -0.37735,0.985037 0,1.362385 l 2.517453,2.515338 v 0.0022 c 0.02176,0.02176 0.04393,0.04174 0.0677,0.06135 0.0012,9.71e-4 0.003,0.0012 0.0042,0.0022 0.02266,0.0185 0.04549,0.03648 0.06981,0.05289 0.0028,0.0019 0.0056,0.0044 0.0084,0.0064 h 0.0022 c 0.02245,0.01473 0.0461,0.02946 0.06981,0.04231 0.0036,0.0019 0.0069,0.0044 0.01061,0.0064 h 0.0022 c 0.0042,0.0023 0.0083,0.0041 0.01269,0.0064 0.0019,0.001 0.0043,0.0011 0.0064,0.0022 0.01746,0.0087 0.03483,0.01777 0.05289,0.02539 0.0041,0.0017 0.0086,0.0025 0.01269,0.0042 0.02491,0.01007 0.05024,0.01947 0.07616,0.0275 l 0.0022,0.0022 h 0.0022 0.0022 c 0.0015,4.58e-4 0.0027,0.0016 0.0042,0.0022 h 0.0022 c 0.0056,0.0017 0.01122,0.0026 0.01693,0.0042 0.0015,4.05e-4 0.0027,0.0017 0.0042,0.0022 0.04121,0.0111 0.08368,0.01978 0.12693,0.02539 0.01061,0.0014 0.02109,0.0032 0.03174,0.0042 h 0.0022 c 0.06063,0.0058 0.121287,0.0057 0.181934,0 h 0.0022 0.0022 c 0.0015,-1.52e-4 0.0027,-0.002 0.0042,-0.0022 0.0065,-6.55e-4 0.01261,-0.0013 0.01904,-0.0022 0.0055,-6.9e-4 0.01141,-0.0013 0.01693,-0.0022 0.04115,-0.0057 0.0813,-0.01465 0.120583,-0.02539 0.0057,-0.0016 0.01336,-0.0025 0.01904,-0.0042 0.0027,-8.1e-4 0.0057,-0.0013 0.0084,-0.0022 0.0015,-4.64e-4 0.0027,-0.0016 0.0042,-0.0022 0.02482,-0.0078 0.04978,-0.01763 0.07404,-0.0275 0.02881,-0.01161 0.05729,-0.02385 0.08463,-0.03808 h 0.0022 l 0.0022,-0.0022 c 0.01546,-0.0082 0.03145,-0.01628 0.04654,-0.02539 0.01098,-0.0066 0.02104,-0.01414 0.03174,-0.02115 h 0.0022 c 0.0024,-0.0016 0.0039,-0.0048 0.0064,-0.0064 h 0.0022 c 0.05123,-0.03455 0.09821,-0.07494 0.141739,-0.118468 l 2.517454,-2.515338 c 0.377348,-0.377349 0.377348,-0.985038 0,-1.362386 -0.37735,-0.377348 -0.985039,-0.377348 -1.362387,0 l -0.871829,0.871608 V 10.464671 C 12.283911,9.931019 11.852892,9.5 11.31924,9.5 Z M 8.462556,17.574889 C 7.928904,17.574889 7.5,18.003793 7.5,18.537444 c 0,0.533652 0.428904,0.962555 0.962556,0.962555 h 5.711868 c 0.533652,0 0.962556,-0.428903 0.962556,-0.962555 0,-0.533651 -0.428904,-0.962555 -0.962556,-0.962555 z" />
  <path
     id="rect21"
     style="fill:url(#linearGradient25-3);stroke-width:2.16628;stroke-linecap:round;stroke-linejoin:round;paint-order:stroke markers fill"
     d="m 12,8.9765625 c -0.533652,0 -0.962556,0.4310192 -0.962556,0.9646711 V 13.32816 l -0.873703,-0.873704 c -0.377349,-0.377349 -0.985039,-0.377349 -1.362387,0 -0.37735,0.377348 -0.37735,0.985037 0,1.362385 l 2.517453,2.515338 v 0.0022 c 0.02176,0.02176 0.04393,0.04174 0.0677,0.06135 0.0012,9.71e-4 0.003,0.0012 0.0042,0.0022 0.02266,0.0185 0.04549,0.03648 0.06981,0.05289 0.0028,0.0019 0.0056,0.0044 0.0084,0.0064 h 0.0022 c 0.02245,0.01473 0.0461,0.02946 0.06981,0.04231 0.0036,0.0019 0.0069,0.0044 0.01061,0.0064 h 0.0022 c 0.0042,0.0023 0.0083,0.0041 0.01269,0.0064 0.0019,10e-4 0.0043,0.0011 0.0064,0.0022 0.01746,0.0087 0.03483,0.01777 0.05289,0.02539 0.0041,0.0017 0.0086,0.0025 0.01269,0.0042 0.02491,0.01007 0.05024,0.01947 0.07616,0.0275 l 0.0022,0.0022 h 0.0022 0.0022 c 0.0015,4.58e-4 0.0027,0.0016 0.0042,0.0022 h 0.0022 c 0.0056,0.0017 0.01122,0.0026 0.01693,0.0042 0.0015,4.05e-4 0.0027,0.0017 0.0042,0.0022 0.04121,0.0111 0.08368,0.01978 0.12693,0.02539 0.01061,0.0014 0.02109,0.0032 0.03174,0.0042 h 0.0022 c 0.06063,0.0058 0.121287,0.0057 0.181934,0 h 0.0022 0.0022 c 0.0015,-1.52e-4 0.0027,-0.002 0.0042,-0.0022 0.0065,-6.55e-4 0.01261,-0.0013 0.01904,-0.0022 0.0055,-6.9e-4 0.01141,-0.0013 0.01693,-0.0022 0.04115,-0.0057 0.0813,-0.01465 0.120583,-0.02539 0.0057,-0.0016 0.01336,-0.0025 0.01904,-0.0042 0.0027,-8.1e-4 0.0057,-0.0013 0.0084,-0.0022 0.0015,-4.64e-4 0.0027,-0.0016 0.0042,-0.0022 0.02482,-0.0078 0.04978,-0.01763 0.07404,-0.0275 0.02881,-0.01161 0.05729,-0.02385 0.08463,-0.03808 h 0.0022 l 0.0022,-0.0022 c 0.01546,-0.0082 0.03145,-0.01628 0.04654,-0.02539 0.01098,-0.0066 0.02104,-0.01414 0.03174,-0.02115 h 0.0022 c 0.0024,-0.0016 0.0039,-0.0048 0.0064,-0.0064 h 0.0022 c 0.05123,-0.03455 0.09821,-0.07494 0.141739,-0.118468 l 2.517454,-2.515338 c 0.377348,-0.377349 0.377348,-0.985038 0,-1.362386 -0.37735,-0.377348 -0.985039,-0.377348 -1.362387,0 l -0.871829,0.871608 V 9.9412336 c 0,-0.5336519 -0.431019,-0.9646711 -0.964671,-0.9646711 z M 9.144066,17.051452 c -0.533652,0 -0.962556,0.428904 -0.962556,0.962555 0,0.533652 0.428904,0.962555 0.962556,0.962555 h 5.711868 c 0.533652,0 0.962556,-0.428903 0.962556,-0.962555 0,-0.533651 -0.428904,-0.962555 -0.962556,-0.962555 z" />
</svg>
