<?xml version="1.0" encoding="UTF-8" standalone="no"?>
<svg
   width="24"
   height="24"
   viewBox="0 0 24 24"
   fill="none"
   version="1.1"
   id="svg17"
   sodipodi:docname="black-folder-system.svg"
   inkscape:version="1.3 (0e150ed6c4, 2023-07-21)"
   xmlns:inkscape="http://www.inkscape.org/namespaces/inkscape"
   xmlns:sodipodi="http://sodipodi.sourceforge.net/DTD/sodipodi-0.dtd"
   xmlns="http://www.w3.org/2000/svg"
   xmlns:svg="http://www.w3.org/2000/svg">
  <sodipodi:namedview
     id="namedview17"
     pagecolor="#ffffff"
     bordercolor="#000000"
     borderopacity="0.25"
     inkscape:showpageshadow="2"
     inkscape:pageopacity="0.0"
     inkscape:pagecheckerboard="0"
     inkscape:deskcolor="#d1d1d1"
     inkscape:zoom="19.25"
     inkscape:cx="11.974026"
     inkscape:cy="11.974026"
     inkscape:window-width="2560"
     inkscape:window-height="998"
     inkscape:window-x="0"
     inkscape:window-y="0"
     inkscape:window-maximized="1"
     inkscape:current-layer="svg17" />
  <defs
     id="defs17">
    <linearGradient
       id="paint0_linear_201_2"
       x1="23"
       y1="0.999999"
       x2="1"
       y2="12"
       gradientUnits="userSpaceOnUse">
      <stop
         stop-color="#444444"
         id="stop5" />
      <stop
         offset="1"
         id="stop6" />
    </linearGradient>
    <linearGradient
       id="paint1_linear_201_2"
       x1="21"
       y1="4"
       x2="3"
       y2="4"
       gradientUnits="userSpaceOnUse">
      <stop
         stop-opacity="0.5"
         id="stop7" />
      <stop
         offset="0.890123"
         id="stop8" />
      <stop
         offset="1"
         stop-opacity="0"
         id="stop9" />
    </linearGradient>
    <linearGradient
       id="paint2_linear_201_2"
       x1="12"
       y1="3"
       x2="11.5"
       y2="8"
       gradientUnits="userSpaceOnUse">
      <stop
         stop-color="#DDDDDD"
         id="stop10" />
      <stop
         offset="1"
         stop-color="#CCCCCC"
         stop-opacity="0"
         id="stop11" />
    </linearGradient>
    <linearGradient
       id="paint3_linear_201_2"
       x1="23"
       y1="9"
       x2="1.01236"
       y2="9.52141"
       gradientUnits="userSpaceOnUse">
      <stop
         stop-opacity="0.5"
         id="stop12" />
      <stop
         offset="1"
         id="stop13" />
    </linearGradient>
    <linearGradient
       id="paint4_linear_201_2"
       x1="23"
       y1="5.4"
       x2="1.42949"
       y2="23.5115"
       gradientUnits="userSpaceOnUse">
      <stop
         stop-color="#555555"
         id="stop14" />
      <stop
         offset="1"
         stop-color="#181818"
         id="stop15" />
    </linearGradient>
    <linearGradient
       id="paint5_linear_201_2"
       x1="15"
       y1="5.5"
       x2="5.5"
       y2="19.5"
       gradientUnits="userSpaceOnUse">
      <stop
         stop-color="#999999"
         id="stop16" />
      <stop
         offset="1"
         id="stop17" />
    </linearGradient>
    <linearGradient
       id="paint0_linear_201_2-0"
       x1="23"
       y1="0.99999899"
       x2="1"
       y2="12"
       gradientUnits="userSpaceOnUse">
      <stop
         stop-color="#444444"
         id="stop5-13" />
      <stop
         offset="1"
         id="stop6-11" />
    </linearGradient>
    <linearGradient
       id="paint1_linear_201_2-3"
       x1="21"
       y1="4"
       x2="3"
       y2="4"
       gradientUnits="userSpaceOnUse">
      <stop
         stop-opacity="0.5"
         id="stop7-9" />
      <stop
         offset="0.890123"
         id="stop8-0" />
      <stop
         offset="1"
         stop-opacity="0"
         id="stop9-8" />
    </linearGradient>
    <linearGradient
       id="paint2_linear_201_2-9"
       x1="12"
       y1="3"
       x2="11.5"
       y2="8"
       gradientUnits="userSpaceOnUse">
      <stop
         stop-color="#DDDDDD"
         id="stop10-2" />
      <stop
         offset="1"
         stop-color="#CCCCCC"
         stop-opacity="0"
         id="stop11-9" />
    </linearGradient>
    <linearGradient
       id="paint3_linear_201_2-1"
       x1="23"
       y1="9"
       x2="1.01236"
       y2="9.52141"
       gradientUnits="userSpaceOnUse">
      <stop
         stop-opacity="0.5"
         id="stop12-0" />
      <stop
         offset="1"
         id="stop13-6" />
    </linearGradient>
    <linearGradient
       id="paint4_linear_201_2-9"
       x1="23"
       y1="5.4000001"
       x2="1.42949"
       y2="23.511499"
       gradientUnits="userSpaceOnUse">
      <stop
         stop-color="#555555"
         id="stop14-28" />
      <stop
         offset="1"
         stop-color="#181818"
         id="stop15-47" />
    </linearGradient>
    <linearGradient
       id="paint5_linear_201_2-6"
       x1="15"
       y1="5.5"
       x2="5.5"
       y2="19.5"
       gradientUnits="userSpaceOnUse">
      <stop
         stop-color="#999999"
         id="stop16-2" />
      <stop
         offset="1"
         id="stop17-4" />
    </linearGradient>
    <linearGradient
       id="paint0_linear_201_2-0-8"
       x1="23"
       y1="0.99999899"
       x2="1"
       y2="12"
       gradientUnits="userSpaceOnUse">
      <stop
         stop-color="#444444"
         id="stop5-13-0" />
      <stop
         offset="1"
         id="stop6-11-5" />
    </linearGradient>
    <linearGradient
       id="paint1_linear_201_2-3-6"
       x1="21"
       y1="4"
       x2="3"
       y2="4"
       gradientUnits="userSpaceOnUse">
      <stop
         stop-opacity="0.5"
         id="stop7-9-6" />
      <stop
         offset="0.890123"
         id="stop8-0-4" />
      <stop
         offset="1"
         stop-opacity="0"
         id="stop9-8-0" />
    </linearGradient>
    <linearGradient
       id="paint2_linear_201_2-9-0"
       x1="12"
       y1="3"
       x2="11.5"
       y2="8"
       gradientUnits="userSpaceOnUse">
      <stop
         stop-color="#DDDDDD"
         id="stop10-2-4" />
      <stop
         offset="1"
         stop-color="#CCCCCC"
         stop-opacity="0"
         id="stop11-9-6" />
    </linearGradient>
    <linearGradient
       id="paint3_linear_201_2-1-2"
       x1="23"
       y1="9"
       x2="1.01236"
       y2="9.52141"
       gradientUnits="userSpaceOnUse">
      <stop
         stop-opacity="0.5"
         id="stop12-0-6" />
      <stop
         offset="1"
         id="stop13-6-7" />
    </linearGradient>
    <linearGradient
       id="paint4_linear_201_2-9-5"
       x1="23"
       y1="5.4000001"
       x2="1.42949"
       y2="23.511499"
       gradientUnits="userSpaceOnUse">
      <stop
         stop-color="#555555"
         id="stop14-28-6" />
      <stop
         offset="1"
         stop-color="#181818"
         id="stop15-47-9" />
    </linearGradient>
    <linearGradient
       id="paint5_linear_201_2-6-8"
       x1="15"
       y1="5.5"
       x2="5.5"
       y2="19.5"
       gradientUnits="userSpaceOnUse">
      <stop
         stop-color="#999999"
         id="stop16-2-7" />
      <stop
         offset="1"
         id="stop17-4-2" />
    </linearGradient>
    <linearGradient
       id="paint0_linear_201_2-0-7"
       x1="23"
       y1="0.99999899"
       x2="1"
       y2="12"
       gradientUnits="userSpaceOnUse"
       gradientTransform="matrix(0.26457812,0,0,0.26457812,-8.017598,1.5868163)">
      <stop
         stop-color="#444444"
         id="stop5-13-6" />
      <stop
         offset="1"
         id="stop6-11-1" />
    </linearGradient>
    <linearGradient
       id="paint1_linear_201_2-3-3"
       x1="21"
       y1="4"
       x2="3"
       y2="4"
       gradientUnits="userSpaceOnUse"
       gradientTransform="matrix(0.26457812,0,0,0.26457812,-8.017598,1.5868163)">
      <stop
         stop-opacity="0.5"
         id="stop7-9-2" />
      <stop
         offset="0.890123"
         id="stop8-0-1" />
      <stop
         offset="1"
         stop-opacity="0"
         id="stop9-8-5" />
    </linearGradient>
    <linearGradient
       id="paint2_linear_201_2-9-9"
       x1="12"
       y1="3"
       x2="11.5"
       y2="8"
       gradientUnits="userSpaceOnUse"
       gradientTransform="matrix(0.26457812,0,0,0.26457812,-8.017598,1.5868163)">
      <stop
         stop-color="#DDDDDD"
         id="stop10-2-9" />
      <stop
         offset="1"
         stop-color="#CCCCCC"
         stop-opacity="0"
         id="stop11-9-1" />
    </linearGradient>
    <linearGradient
       id="paint3_linear_201_2-1-4"
       x1="23"
       y1="9"
       x2="1.01236"
       y2="9.52141"
       gradientUnits="userSpaceOnUse"
       gradientTransform="matrix(0.26457812,0,0,0.26457812,-8.017598,1.5868163)">
      <stop
         stop-opacity="0.5"
         id="stop12-0-9" />
      <stop
         offset="1"
         id="stop13-6-1" />
    </linearGradient>
    <linearGradient
       id="paint4_linear_201_2-9-0"
       x1="23"
       y1="5.4000001"
       x2="1.42949"
       y2="23.511499"
       gradientUnits="userSpaceOnUse"
       gradientTransform="matrix(0.26457812,0,0,0.26457812,-8.017598,1.5868163)">
      <stop
         stop-color="#555555"
         id="stop14-28-7" />
      <stop
         offset="1"
         stop-color="#181818"
         id="stop15-47-5" />
    </linearGradient>
    <linearGradient
       id="paint5_linear_201_2-6-87"
       x1="15"
       y1="5.5"
       x2="5.5"
       y2="19.5"
       gradientUnits="userSpaceOnUse"
       gradientTransform="matrix(0.26457812,0,0,0.26457812,-8.017598,1.5868163)">
      <stop
         stop-color="#999999"
         id="stop16-2-0" />
      <stop
         offset="1"
         id="stop17-4-4" />
    </linearGradient>
    <linearGradient
       id="paint0_linear_201_2-5"
       x1="23"
       y1="0.99999899"
       x2="1"
       y2="12"
       gradientUnits="userSpaceOnUse"
       gradientTransform="matrix(0.26457812,0,0,0.26457812,-8.017598,1.5868163)">
      <stop
         stop-color="#444444"
         id="stop5-13-5" />
      <stop
         offset="1"
         id="stop6-11-2" />
    </linearGradient>
    <linearGradient
       id="paint1_linear_201_2-9"
       x1="21"
       y1="4"
       x2="3"
       y2="4"
       gradientUnits="userSpaceOnUse"
       gradientTransform="matrix(0.26457812,0,0,0.26457812,-8.017598,1.5868163)">
      <stop
         stop-opacity="0.5"
         id="stop7-9-0" />
      <stop
         offset="0.890123"
         id="stop8-0-2" />
      <stop
         offset="1"
         stop-opacity="0"
         id="stop9-8-8" />
    </linearGradient>
    <linearGradient
       id="paint2_linear_201_2-3"
       x1="12"
       y1="3"
       x2="11.5"
       y2="8"
       gradientUnits="userSpaceOnUse"
       gradientTransform="matrix(0.26457812,0,0,0.26457812,-8.017598,1.5868163)">
      <stop
         stop-color="#DDDDDD"
         id="stop10-2-8" />
      <stop
         offset="1"
         stop-color="#CCCCCC"
         stop-opacity="0"
         id="stop11-9-0" />
    </linearGradient>
    <linearGradient
       id="paint3_linear_201_2-4"
       x1="23"
       y1="9"
       x2="1.01236"
       y2="9.52141"
       gradientUnits="userSpaceOnUse"
       gradientTransform="matrix(0.26457812,0,0,0.26457812,-8.017598,1.5868163)">
      <stop
         stop-opacity="0.5"
         id="stop12-0-0" />
      <stop
         offset="1"
         id="stop13-6-9" />
    </linearGradient>
    <linearGradient
       id="paint4_linear_201_2-1"
       x1="23"
       y1="5.4000001"
       x2="1.42949"
       y2="23.511499"
       gradientUnits="userSpaceOnUse"
       gradientTransform="matrix(0.26457812,0,0,0.26457812,-8.017598,1.5868163)">
      <stop
         stop-color="#555555"
         id="stop14-28-9" />
      <stop
         offset="1"
         stop-color="#181818"
         id="stop15-47-6" />
    </linearGradient>
    <linearGradient
       id="paint5_linear_201_2-2"
       x1="15"
       y1="5.5"
       x2="5.5"
       y2="19.5"
       gradientUnits="userSpaceOnUse"
       gradientTransform="matrix(0.26457812,0,0,0.26457812,-8.017598,1.5868163)">
      <stop
         stop-color="#999999"
         id="stop16-2-5" />
      <stop
         offset="1"
         id="stop17-4-44" />
    </linearGradient>
    <linearGradient
       id="paint0_linear_201_2-0-4"
       x1="23"
       y1="0.99999899"
       x2="1"
       y2="12"
       gradientUnits="userSpaceOnUse"
       gradientTransform="matrix(0.26457812,0,0,0.26457812,-8.017598,1.5868163)">
      <stop
         stop-color="#444444"
         id="stop5-13-9" />
      <stop
         offset="1"
         id="stop6-11-9" />
    </linearGradient>
    <linearGradient
       id="paint1_linear_201_2-3-4"
       x1="21"
       y1="4"
       x2="3"
       y2="4"
       gradientUnits="userSpaceOnUse"
       gradientTransform="matrix(0.26457812,0,0,0.26457812,-8.017598,1.5868163)">
      <stop
         stop-opacity="0.5"
         id="stop7-9-5" />
      <stop
         offset="0.890123"
         id="stop8-0-9" />
      <stop
         offset="1"
         stop-opacity="0"
         id="stop9-8-3" />
    </linearGradient>
    <linearGradient
       id="paint2_linear_201_2-9-5"
       x1="12"
       y1="3"
       x2="11.5"
       y2="8"
       gradientUnits="userSpaceOnUse"
       gradientTransform="matrix(0.26457812,0,0,0.26457812,-8.017598,1.5868163)">
      <stop
         stop-color="#DDDDDD"
         id="stop10-2-7" />
      <stop
         offset="1"
         stop-color="#CCCCCC"
         stop-opacity="0"
         id="stop11-9-08" />
    </linearGradient>
    <linearGradient
       id="paint3_linear_201_2-1-1"
       x1="23"
       y1="9"
       x2="1.01236"
       y2="9.52141"
       gradientUnits="userSpaceOnUse"
       gradientTransform="matrix(0.26457812,0,0,0.26457812,-8.017598,1.5868163)">
      <stop
         stop-opacity="0.5"
         id="stop12-0-99" />
      <stop
         offset="1"
         id="stop13-6-78" />
    </linearGradient>
    <linearGradient
       id="paint4_linear_201_2-9-2"
       x1="23"
       y1="5.4000001"
       x2="1.42949"
       y2="23.511499"
       gradientUnits="userSpaceOnUse"
       gradientTransform="matrix(0.26457812,0,0,0.26457812,-8.017598,1.5868163)">
      <stop
         stop-color="#555555"
         id="stop14-28-5" />
      <stop
         offset="1"
         stop-color="#181818"
         id="stop15-47-3" />
    </linearGradient>
    <linearGradient
       id="paint5_linear_201_2-6-4"
       x1="15"
       y1="5.5"
       x2="5.5"
       y2="19.5"
       gradientUnits="userSpaceOnUse"
       gradientTransform="matrix(0.26457812,0,0,0.26457812,-8.017598,1.5868163)">
      <stop
         stop-color="#999999"
         id="stop16-2-9" />
      <stop
         offset="1"
         id="stop17-4-0" />
    </linearGradient>
    <linearGradient
       id="paint6_linear_211_10"
       x1="18"
       y1="9"
       x2="6"
       y2="21"
       gradientUnits="userSpaceOnUse"
       gradientTransform="matrix(0.87495626,0,0,0.94072478,1.48864,0.503841)">
      <stop
         stop-color="#999999"
         id="stop19-9" />
      <stop
         offset="1"
         stop-color="#333333"
         id="stop20-4" />
    </linearGradient>
  </defs>
  <rect
     opacity="0.8125"
     x="1.0000008"
     y="0.99999964"
     width="22"
     height="22"
     rx="6.5999999"
     fill="url(#paint0_linear_201_2)"
     id="rect1-0"
     style="fill:url(#paint0_linear_201_2-0-8);stroke-width:1" />
  <rect
     opacity="0.125"
     x="3.0000007"
     y="2.2499993"
     width="18"
     height="18"
     rx="4.4000001"
     fill="url(#paint1_linear_201_2)"
     fill-opacity="0.875"
     id="rect2-3"
     style="fill:url(#paint1_linear_201_2-3-6);stroke-width:1" />
  <rect
     x="3.2500005"
     y="3.2499993"
     width="17.5"
     height="17.5"
     rx="4.1500001"
     fill="#cccccc"
     stroke="url(#paint2_linear_201_2)"
     stroke-width="0.5"
     id="rect3-4"
     style="stroke:url(#paint2_linear_201_2-9-0)" />
  <path
     opacity="0.125"
     d="m 1.0000005,7.5078098 c 0,-1.6611703 1.34664,-3.0078103 3.0078099,-3.0078103 h 4.1826701 c 1.0745201,0 2.1163205,0.3699399 2.9501195,1.0476202 v 0 c 0.8339,0.67768 1.8756,1.0476199 2.950201,1.0476199 H 19.9922 c 1.661201,0 3.007801,1.3466401 3.007801,3.0078099 V 15.5 c 0,3.6451 -2.954901,6.6 -6.6,6.6 H 7.6000005 c -3.64508,0 -6.6,-2.9549 -6.6,-6.6 z"
     fill="url(#paint3_linear_201_2)"
     fill-opacity="0.875"
     id="path3-9"
     style="fill:url(#paint3_linear_201_2-1-2);stroke-width:1" />
  <path
     d="m 1.0000005,8.4078097 c 0,-1.6611702 1.34664,-3.0078103 3.0078099,-3.0078103 h 4.1826701 c 1.0745201,0 2.1163205,0.3699399 2.9501195,1.0476203 v 0 c 0.8339,0.67768 1.8756,1.0476199 2.950201,1.0476199 H 19.9922 c 1.661201,0 3.007801,1.34664 3.007801,3.0078604 V 16.4 c 0,3.6451 -2.954901,6.6 -6.6,6.6 H 7.6000005 c -3.64508,0 -6.6,-2.9549 -6.6,-6.6 z"
     fill="url(#paint4_linear_201_2)"
     id="path4-3"
     style="opacity:0.875;fill:url(#paint4_linear_201_2-9-5);stroke-width:1" />
  <path
     d="M 22.625001,10.5031 V 16.4 c 0,3.437999 -2.787001,6.225 -6.225,6.225 H 7.6000005 c -3.4379699,0 -6.225,-2.787001 -6.225,-6.225 V 8.4078097 c 0,-1.4540601 1.1787501,-2.6328103 2.6328099,-2.6328103 h 4.1826701 c 0.9883799,0 1.9466205,0.3402814 2.7136205,0.9636304 0.900699,0.7320098 2.025999,1.1316098 3.1867,1.1316098 H 19.9922 c 1.454,0 2.632801,1.1787501 2.632801,2.6328604 z"
     stroke="url(#paint5_linear_201_2)"
     stroke-opacity="0.375"
     stroke-width="0.750002"
     stroke-linejoin="round"
     id="path5-3"
     style="opacity:0.875;fill:none;stroke:url(#paint5_linear_201_2-6-8)" />
  <path
     d="m 11.140972,9.071694 c -0.298973,-1e-5 -0.585695,0.118644 -0.796647,0.329507 -0.210955,0.210854 -0.328896,0.496233 -0.327497,0.793737 -0.0089,0.614237 -0.51156,1.107364 -1.129016,1.107364 C 8.697535,11.300302 8.51095,11.248212 8.34729,11.151598 7.807056,10.843606 7.117863,11.028835 6.807026,11.565612 l -0.393993,0.645525 c -0.310478,0.536025 -0.127561,1.221343 0.410004,1.532347 0.349405,0.200657 0.565135,0.571207 0.565135,0.97252 0,0.401408 -0.21573,0.771865 -0.565135,0.972616 -0.536855,0.308935 -0.719983,0.993029 -0.410004,1.527455 l 0.37183,0.639412 c 0.145654,0.261427 0.390633,0.454745 0.679648,0.536494 0.289007,0.08174 0.598532,0.0445 0.860625,-0.101692 0.257631,-0.149576 0.565055,-0.190685 0.85324,-0.113922 0.288175,0.07667 0.533959,0.265472 0.682097,0.523044 0.09712,0.162839 0.148218,0.348349 0.15023,0.537717 0,0.620503 0.506513,1.123226 1.130269,1.123226 h 0.73995 c 0.621568,0 1.126069,-0.499901 1.129043,-1.118334 -0.0016,-0.298398 0.116632,-0.585225 0.328722,-0.796229 0.212089,-0.211004 0.5003,-0.328501 0.800234,-0.326995 0.189865,0.005 0.375705,0.05682 0.540548,0.15061 0.538885,0.308932 1.227651,0.12568 1.540273,-0.409122 l 0.389093,-0.644209 c 0.150578,-0.257193 0.191529,-0.563777 0.114446,-0.851356 -0.07708,-0.287486 -0.266425,-0.532638 -0.525675,-0.681085 -0.259337,-0.148352 -0.447453,-0.393505 -0.524536,-0.68099 -0.07708,-0.28758 -0.03603,-0.594162 0.114531,-0.851356 0.09791,-0.16999 0.239039,-0.310439 0.410005,-0.407898 0.534248,-0.31091 0.718076,-0.992559 0.411229,-1.52736 v -0.0049 l -0.36818,-0.634518 c -0.310873,-0.536722 -0.998676,-0.72195 -1.538963,-0.413957 -0.257149,0.150705 -0.564345,0.193413 -0.853257,0.118814 -0.288911,-0.0747 -0.535998,-0.26077 -0.687015,-0.516929 -0.09712,-0.162839 -0.149442,-0.347222 -0.151455,-0.536523 0.0088,-0.303559 -0.106133,-0.5981 -0.318921,-0.815822 C 12.478342,9.194516 12.186105,9.071592 11.880922,9.071714 Z m 0.338607,3.762955 c 0.01068,-9.3e-5 0.02136,-9.3e-5 0.03203,0 0.501524,0 0.982574,0.198211 1.337194,0.551077 0.354708,0.352866 0.553936,0.831412 0.553936,1.330373 0,0.247034 -0.04892,0.491717 -0.14393,0.720031 -0.0951,0.228219 -0.234401,0.435649 -0.410006,0.610342 -0.175603,0.174693 -0.384018,0.313355 -0.613519,0.407899 -0.229415,0.09454 -0.475362,0.143177 -0.723675,0.143177 -0.2484,0 -0.494264,-0.04863 -0.723765,-0.143177 -0.229414,-0.09455 -0.437915,-0.233206 -0.61352,-0.407899 C 9.998724,15.871779 9.859431,15.664349 9.76441,15.43613 9.66933,15.207816 9.620419,14.963133 9.620427,14.716099 c -7.8e-5,-0.493504 0.194818,-0.967346 0.542526,-1.319272 0.347794,-0.351926 0.820621,-0.553806 1.316634,-0.562178 z"
     fill="url(#paint6_linear_211_10)"
     id="path21-5"
     style="opacity:0.15;fill:#1a1a1a;stroke-width:0.907247" />
  <path
     d="m 11.617483,8.50004 c -0.298973,-10e-6 -0.585695,0.118644 -0.796647,0.329507 -0.210955,0.210854 -0.328897,0.496233 -0.327497,0.793737 -0.0089,0.614237 -0.511561,1.107365 -1.129017,1.107365 -0.190277,-0.002 -0.376861,-0.05409 -0.540521,-0.150705 -0.540234,-0.307992 -1.229428,-0.122763 -1.540265,0.414014 l -0.393993,0.645525 c -0.310478,0.536025 -0.12756,1.221343 0.410005,1.532347 0.349405,0.200657 0.565134,0.571207 0.565134,0.972521 0,0.401407 -0.215729,0.771864 -0.565134,0.972615 -0.536855,0.308935 -0.719984,0.993029 -0.410005,1.527455 l 0.37183,0.639412 c 0.145654,0.261427 0.390633,0.454745 0.679649,0.536494 0.289006,0.08174 0.598531,0.0445 0.860624,-0.101692 0.257632,-0.149576 0.565055,-0.190685 0.85324,-0.113922 0.288175,0.07667 0.53396,0.265472 0.682098,0.523044 0.09712,0.162839 0.148218,0.348349 0.15023,0.537717 0,0.620503 0.506513,1.123226 1.130269,1.123226 h 0.73995 c 0.621568,0 1.126068,-0.4999 1.129043,-1.118334 -0.0016,-0.298398 0.116632,-0.585225 0.328722,-0.796229 0.212089,-0.211004 0.500299,-0.328501 0.800234,-0.326995 0.189865,0.005 0.375705,0.05682 0.540548,0.15061 0.538885,0.308933 1.227651,0.12568 1.540272,-0.409122 l 0.389094,-0.644209 c 0.150578,-0.257193 0.191529,-0.563777 0.114445,-0.851356 -0.07708,-0.287486 -0.266424,-0.532638 -0.525674,-0.681085 -0.259337,-0.148352 -0.447453,-0.393505 -0.524536,-0.68099 -0.07708,-0.28758 -0.03603,-0.594162 0.11453,-0.851356 0.09791,-0.16999 0.23904,-0.310439 0.410006,-0.407898 0.534248,-0.31091 0.718076,-0.992559 0.411229,-1.52736 v -0.0049 l -0.36818,-0.634518 c -0.310873,-0.536722 -0.998677,-0.72195 -1.538963,-0.413957 -0.257149,0.150705 -0.564346,0.193413 -0.853257,0.118814 -0.288912,-0.0747 -0.535998,-0.26077 -0.687015,-0.516929 -0.09712,-0.162797 -0.149443,-0.347179 -0.151455,-0.536481 0.0088,-0.303559 -0.106133,-0.5981 -0.318921,-0.815822 C 12.954853,8.622862 12.662616,8.499938 12.357433,8.50006 Z m 0.338607,3.762955 c 0.01068,-9.3e-5 0.02135,-9.3e-5 0.03203,0 0.501523,0 0.982574,0.198211 1.337194,0.551077 0.354708,0.352866 0.553935,0.831412 0.553935,1.330373 0,0.247034 -0.04892,0.491717 -0.143929,0.720031 -0.0951,0.22822 -0.234401,0.435649 -0.410006,0.610342 -0.175603,0.174693 -0.384018,0.313355 -0.613519,0.407899 -0.229415,0.09454 -0.475363,0.143177 -0.723675,0.143177 -0.2484,0 -0.494264,-0.04863 -0.723765,-0.143177 -0.229414,-0.09455 -0.437915,-0.233206 -0.61352,-0.407899 -0.175602,-0.174693 -0.314895,-0.382122 -0.409916,-0.610342 -0.09508,-0.228314 -0.143992,-0.472997 -0.143983,-0.720031 -7.8e-5,-0.493504 0.194818,-0.967346 0.542526,-1.319272 0.347794,-0.351926 0.82062,-0.553806 1.316634,-0.562178 z"
     fill="url(#paint6_linear_211_10)"
     id="path6"
     style="fill:url(#paint6_linear_211_10);stroke-width:0.907247" />
</svg>
