<?xml version="1.0" encoding="UTF-8" standalone="no"?>
<svg
   width="24"
   height="24"
   viewBox="0 0 24 24"
   fill="none"
   version="1.1"
   id="svg17"
   sodipodi:docname="blue-user-desktop.svg"
   inkscape:version="1.3 (0e150ed6c4, 2023-07-21)"
   xmlns:inkscape="http://www.inkscape.org/namespaces/inkscape"
   xmlns:sodipodi="http://sodipodi.sourceforge.net/DTD/sodipodi-0.dtd"
   xmlns:xlink="http://www.w3.org/1999/xlink"
   xmlns="http://www.w3.org/2000/svg"
   xmlns:svg="http://www.w3.org/2000/svg">
  <sodipodi:namedview
     id="namedview17"
     pagecolor="#ffffff"
     bordercolor="#000000"
     borderopacity="0.25"
     inkscape:showpageshadow="2"
     inkscape:pageopacity="0.0"
     inkscape:pagecheckerboard="0"
     inkscape:deskcolor="#d1d1d1"
     inkscape:zoom="23.894317"
     inkscape:cx="15.296524"
     inkscape:cy="10.902174"
     inkscape:window-width="2560"
     inkscape:window-height="998"
     inkscape:window-x="0"
     inkscape:window-y="0"
     inkscape:window-maximized="1"
     inkscape:current-layer="svg17" />
  <defs
     id="defs17">
    <linearGradient
       id="paint0_linear_201_104"
       x1="23"
       y1="0.999999"
       x2="1"
       y2="12"
       gradientUnits="userSpaceOnUse">
      <stop
         stop-color="#F06246"
         id="stop5" />
      <stop
         offset="1"
         stop-color="#BE4128"
         id="stop6" />
    </linearGradient>
    <linearGradient
       id="paint1_linear_201_104"
       x1="21"
       y1="4"
       x2="3"
       y2="4"
       gradientUnits="userSpaceOnUse">
      <stop
         stop-opacity="0.5"
         id="stop7" />
      <stop
         offset="0.890123"
         id="stop8" />
      <stop
         offset="1"
         stop-opacity="0"
         id="stop9" />
    </linearGradient>
    <linearGradient
       id="paint2_linear_201_104"
       x1="12"
       y1="3"
       x2="11.5"
       y2="8"
       gradientUnits="userSpaceOnUse">
      <stop
         stop-color="#DDDDDD"
         id="stop10" />
      <stop
         offset="1"
         stop-color="#CCCCCC"
         stop-opacity="0"
         id="stop11" />
    </linearGradient>
    <linearGradient
       id="paint3_linear_201_104"
       x1="23"
       y1="9"
       x2="1.01236"
       y2="9.52141"
       gradientUnits="userSpaceOnUse">
      <stop
         stop-opacity="0.5"
         id="stop12" />
      <stop
         offset="1"
         id="stop13" />
    </linearGradient>
    <linearGradient
       id="paint4_linear_201_104"
       x1="23"
       y1="5.4"
       x2="1.42949"
       y2="23.5115"
       gradientUnits="userSpaceOnUse">
      <stop
         stop-color="#FF8966"
         id="stop14" />
      <stop
         offset="1"
         stop-color="#DC3A1A"
         id="stop15" />
    </linearGradient>
    <linearGradient
       id="paint5_linear_201_104"
       x1="15"
       y1="5.5"
       x2="5.5"
       y2="19.5"
       gradientUnits="userSpaceOnUse">
      <stop
         stop-color="#FFB693"
         id="stop16" />
      <stop
         offset="1"
         stop-color="#C82606"
         id="stop17" />
    </linearGradient>
    <linearGradient
       id="paint6_linear_202_43"
       x1="18.83"
       y1="10"
       x2="6.1799998"
       y2="18.25"
       gradientUnits="userSpaceOnUse"
       gradientTransform="translate(-0.47116)">
      <stop
         stop-color="#967CCC"
         id="stop20-8" />
      <stop
         offset="1"
         stop-color="#5E35B1"
         id="stop21-9" />
    </linearGradient>
    <linearGradient
       id="paint7_linear_207_95"
       x1="16.674999"
       y1="9"
       x2="8.2859201"
       y2="19.754999"
       gradientUnits="userSpaceOnUse"
       gradientTransform="translate(-0.46609738)">
      <stop
         stop-color="#0BB1CB"
         id="stop30" />
      <stop
         offset="1"
         stop-color="#006599"
         id="stop31" />
    </linearGradient>
    <linearGradient
       id="paint6_linear_207_44"
       x1="18.439199"
       y1="8.1073503"
       x2="9.3879299"
       y2="21.114599"
       gradientUnits="userSpaceOnUse"
       gradientTransform="matrix(0.93303702,0,0,0.93303702,0.84038255,0.56918821)">
      <stop
         stop-color="#E996B1"
         id="stop20" />
      <stop
         offset="1"
         stop-color="#BC546F"
         id="stop21" />
    </linearGradient>
    <linearGradient
       id="paint8_linear_202_66"
       x1="18.6"
       y1="10.2395"
       x2="9.5206699"
       y2="22.7798"
       gradientUnits="userSpaceOnUse">
      <stop
         stop-color="#3C9BCE"
         id="stop26" />
      <stop
         offset="1"
         stop-color="#00405F"
         id="stop27" />
    </linearGradient>
    <linearGradient
       id="paint9_linear_202_66"
       x1="11.5002"
       y1="7.6416202"
       x2="7.1997099"
       y2="11.942"
       gradientUnits="userSpaceOnUse">
      <stop
         stop-color="#3C9BCE"
         id="stop28" />
      <stop
         offset="1"
         stop-color="#00405F"
         id="stop29-0" />
    </linearGradient>
    <linearGradient
       id="paint6_linear_211_10"
       x1="18"
       y1="9"
       x2="6"
       y2="21"
       gradientUnits="userSpaceOnUse"
       gradientTransform="matrix(0.87495626,0,0,0.94072478,1.48864,0.503841)">
      <stop
         stop-color="#999999"
         id="stop19-9" />
      <stop
         offset="1"
         stop-color="#333333"
         id="stop20-4" />
    </linearGradient>
    <linearGradient
       id="paint6_linear_207_79"
       x1="17.133301"
       y1="8.3333302"
       x2="6.8666701"
       y2="20.0667"
       gradientUnits="userSpaceOnUse"
       gradientTransform="matrix(0.93749707,0,0,0.93749707,0.75005121,0.90556777)">
      <stop
         stop-color="#FF7C7D"
         id="stop19" />
      <stop
         offset="1"
         stop-color="#751010"
         id="stop20-9" />
    </linearGradient>
    <radialGradient
       id="paint0_radial_2_164-4"
       cx="0"
       cy="0"
       r="1"
       gradientUnits="userSpaceOnUse"
       gradientTransform="matrix(0,22,-22,0,32,1.00004)">
      <stop
         stop-color="#C5FFFE"
         id="stop8570-4" />
      <stop
         offset="1"
         stop-color="#00FFFF"
         id="stop8572-3" />
    </radialGradient>
    <radialGradient
       id="paint1_radial_2_164-8"
       cx="0"
       cy="0"
       r="1"
       gradientUnits="userSpaceOnUse"
       gradientTransform="matrix(3.8397244e-5,22,-22,3.8397244e-5,-8,1)">
      <stop
         stop-color="#58C6E3"
         id="stop8575-6" />
      <stop
         offset="1"
         stop-color="#034DB0"
         id="stop8577-8" />
    </radialGradient>
    <linearGradient
       inkscape:collect="always"
       xlink:href="#a"
       id="linearGradient13451"
       gradientUnits="userSpaceOnUse"
       gradientTransform="matrix(0.17157319,0,0,0.16861445,52.902313,20.057356)"
       x1="-240.47"
       y1="-60.605"
       x2="-240.47"
       y2="-29.025999" />
    <linearGradient
       id="a"
       x1="-240.47"
       x2="-240.47"
       y1="-60.605"
       y2="-29.025999"
       gradientTransform="matrix(0.96667,0,0,0.95,262.45,67.575)"
       gradientUnits="userSpaceOnUse">
      <stop
         stop-color="#4285db"
         offset="0"
         id="stop13351" />
      <stop
         stop-color="#42b9db"
         offset="1"
         id="stop13353" />
    </linearGradient>
    <linearGradient
       inkscape:collect="always"
       xlink:href="#b"
       id="linearGradient13453"
       gradientUnits="userSpaceOnUse"
       gradientTransform="matrix(0.11417,0,0,0.11417,12.077766,102.05934)"
       x1="10.583"
       y1="-184.67999"
       x2="225.69"
       y2="-184.67999" />
    <linearGradient
       id="b"
       x1="10.583"
       x2="225.69"
       y1="-184.67999"
       y2="-184.67999"
       gradientTransform="matrix(0.11417,0,0,0.11417,18.557,59.5)"
       gradientUnits="userSpaceOnUse">
      <stop
         stop-color="#fafbfb"
         offset="0"
         id="stop13356" />
      <stop
         stop-color="#fafbfb"
         stop-opacity="0"
         offset="1"
         id="stop13358" />
    </linearGradient>
    <linearGradient
       inkscape:collect="always"
       xlink:href="#c"
       id="linearGradient13455"
       gradientUnits="userSpaceOnUse"
       gradientTransform="matrix(0.0302,0,0,0.0302,12.077766,102.05934)"
       x1="520"
       y1="-620"
       x2="410"
       y2="-620" />
    <linearGradient
       id="c"
       x1="520"
       x2="410"
       y1="-620"
       y2="-620"
       gradientTransform="matrix(0.0302,0,0,0.0302,18.557,59.5)"
       gradientUnits="userSpaceOnUse">
      <stop
         offset="0"
         id="stop13361" />
      <stop
         stop-opacity="0"
         offset="1"
         id="stop13363" />
    </linearGradient>
    <linearGradient
       id="paint0_linear_201_48"
       x1="23"
       y1="0.99999899"
       x2="1"
       y2="12"
       gradientUnits="userSpaceOnUse">
      <stop
         stop-color="#04BACC"
         id="stop5-3" />
      <stop
         offset="1"
         stop-color="#2D85C6"
         id="stop6-6" />
    </linearGradient>
    <linearGradient
       id="paint4_linear_201_48"
       x1="23"
       y1="5.4000001"
       x2="1.42949"
       y2="23.511499"
       gradientUnits="userSpaceOnUse">
      <stop
         stop-color="#04BACC"
         id="stop14-1" />
      <stop
         offset="1"
         stop-color="#2D85C6"
         id="stop15-2" />
    </linearGradient>
    <linearGradient
       id="paint5_linear_201_48"
       x1="15"
       y1="5.5"
       x2="5.5"
       y2="19.5"
       gradientUnits="userSpaceOnUse">
      <stop
         stop-color="#42F8FF"
         id="stop16-7" />
      <stop
         offset="1"
         stop-color="#0060F0"
         id="stop17-0" />
    </linearGradient>
    <linearGradient
       id="paint4_linear_201_118"
       x1="23"
       y1="5.4000001"
       x2="1.42949"
       y2="23.511499"
       gradientUnits="userSpaceOnUse">
      <stop
         stop-color="#198CFF"
         id="stop14-0" />
      <stop
         offset="1"
         stop-color="#3F8AE8"
         id="stop15-8" />
    </linearGradient>
    <linearGradient
       id="paint5_linear_201_118"
       x1="15"
       y1="5.5"
       x2="5.5"
       y2="19.5"
       gradientUnits="userSpaceOnUse">
      <stop
         stop-color="#85F8FF"
         id="stop16-5" />
      <stop
         offset="1"
         stop-color="#105BF6"
         id="stop17-06" />
    </linearGradient>
    <linearGradient
       id="paint0_linear_201_118"
       x1="23"
       y1="0.99999899"
       x2="1"
       y2="12"
       gradientUnits="userSpaceOnUse">
      <stop
         stop-color="#198CFF"
         id="stop5-8" />
      <stop
         offset="1"
         stop-color="#1964FF"
         id="stop6-4" />
    </linearGradient>
  </defs>
  <rect
     opacity="0.8125"
     x="1"
     y="1"
     width="22"
     height="22"
     rx="6.5999999"
     fill="url(#paint0_linear_201_118)"
     id="rect1"
     style="fill:url(#paint0_linear_201_118)" />
  <rect
     opacity="0.125"
     x="3"
     y="2.25"
     width="18"
     height="18"
     rx="4.4000001"
     fill="url(#paint1_linear_201_118)"
     fill-opacity="0.875"
     id="rect2"
     style="fill:url(#paint1_linear_201_104)" />
  <rect
     x="3.25"
     y="3.25"
     width="17.5"
     height="17.5"
     rx="4.1500001"
     fill="#cccccc"
     stroke="url(#paint2_linear_201_118)"
     stroke-width="0.5"
     id="rect3"
     style="stroke:url(#paint2_linear_201_104)" />
  <path
     opacity="0.125"
     d="M 1,7.50781 C 1,5.84664 2.34664,4.5 4.00781,4.5 h 4.18267 c 1.07452,0 2.11632,0.36994 2.95012,1.04762 v 0 c 0.8339,0.67768 1.8756,1.04762 2.9502,1.04762 h 5.9014 C 21.6534,6.59524 23,7.94188 23,9.60305 V 15.5 c 0,3.6451 -2.9549,6.6 -6.6,6.6 H 7.6 C 3.95492,22.1 1,19.1451 1,15.5 Z"
     fill="url(#paint3_linear_201_118)"
     fill-opacity="0.875"
     id="path3"
     style="fill:url(#paint3_linear_201_104)" />
  <g
     opacity="0.875"
     id="g5">
    <path
       d="M 1,8.40781 C 1,6.74664 2.34664,5.4 4.00781,5.4 h 4.18267 c 1.07452,0 2.11632,0.36994 2.95012,1.04762 v 0 c 0.8339,0.67768 1.8756,1.04762 2.9502,1.04762 h 5.9014 C 21.6534,7.49524 23,8.84188 23,10.5031 V 16.4 C 23,20.0451 20.0451,23 16.4,23 H 7.6 C 3.95492,23 1,20.0451 1,16.4 Z"
       fill="url(#paint4_linear_201_118)"
       id="path4"
       style="fill:url(#paint4_linear_201_118)" />
    <path
       d="M 22.625,10.5031 V 16.4 c 0,3.438 -2.787,6.225 -6.225,6.225 H 7.6 C 4.16203,22.625 1.375,19.838 1.375,16.4 V 8.40781 C 1.375,6.95375 2.55375,5.775 4.00781,5.775 h 4.18267 c 0.98838,0 1.94662,0.34028 2.71362,0.96363 0.9007,0.73201 2.026,1.13161 3.1867,1.13161 h 5.9014 c 1.454,0 2.6328,1.17875 2.6328,2.63286 z"
       stroke="url(#paint5_linear_201_118)"
       stroke-opacity="0.375"
       stroke-width="0.75"
       stroke-linejoin="round"
       id="path5"
       style="stroke:url(#paint5_linear_201_118)" />
  </g>
  <path
     id="path55"
     style="opacity:0.146;fill:#1a1a1a;stroke-width:0.360396"
     d="M 6.961328,9.387 C 6.484187,9.387 6.1,9.7711872 6.1,10.248328 V 15.887 c 0,0.47714 0.384187,0.861328 0.861328,0.861328 H 9.90664 c -7.9e-4,1.472237 -0.212151,1.47359 -1.267578,2.107422 v 0.423828 h 5.921875 V 18.85575 c -1.055428,-0.633112 -1.268741,-0.634468 -1.269531,-2.107422 h 2.947266 C 16.715812,16.748328 17.1,16.36414 17.1,15.887 V 10.248328 C 17.1,9.7711872 16.715812,9.387 16.238672,9.387 Z" />
  <path
     d="m 12,15.082591 -1.692419,1.269313 c 0,1.480506 -0.211552,1.480506 -1.268953,2.115524 L 12,18.67862 14.961372,18.467067 C 13.90397,17.83277 13.692418,17.83277 13.692418,16.351544 Z"
     fill="#b3b3b3"
     id="path13325"
     style="stroke-width:0.360396" />
  <path
     d="m 9.038628,18.467067 v 0.423105 h 5.923105 v -0.423105 z"
     fill="#cccccc"
     id="path13327"
     style="stroke-width:0.360396" />
  <rect
     x="6.5"
     y="8.9981661"
     width="11"
     height="7.3600903"
     ry="0.86126566"
     fill="#303030"
     id="rect13329"
     style="stroke-width:0.354309"
     rx="0.86126566" />
  <g
     id="g66"
     transform="translate(0,-0.00148211)">
    <rect
       x="6.8528214"
       y="9.3059692"
       width="10.294356"
       height="6.7445784"
       rx="0.70995563"
       ry="0.69770885"
       fill="url(#a)"
       id="rect13431"
       style="fill:url(#linearGradient13451);stroke-width:0.177488" />
    <g
       id="g14598"
       transform="matrix(0.17743641,0,0,0.17743641,7.472699,0.51720209)">
      <path
         d="m 18.119766,83.934342 14.5,-15.708 12.083,15.708 z"
         fill="#1a1a1a"
         id="path13433" />
      <path
         d="m 17.032766,74.387342 -19.0680003,12.246 c 0.694,0.57 1.57700005,0.926 2.55700005,0.926 H 37.845766 l -20.812,-13.172 z"
         fill="#e6e6e6"
         opacity="0.9"
         id="path13435" />
      <path
         d="m 13.286766,87.559342 3.746,-13.171 20.814,13.171 z"
         fill="#fafbfb"
         id="path13437" />
      <path
         d="m 32.620766,67.018342 -4.834,5.135 v 15.406 h 22.734 c 1.094,0 2.08,-0.43 2.8,-1.125 z"
         fill="#b0b2b5"
         id="path13439" />
      <path
         d="m 32.618766,67.016342 6.043,20.543 h 11.859 c 1.094,0 2.08,-0.43 2.8,-1.125 l -20.701,-19.418 z"
         fill="#ffffff"
         id="path13441" />
      <path
         d="m 13.286766,87.559342 3.746,-13.171 20.814,13.171 z"
         fill="url(#b)"
         id="path13443"
         style="fill:url(#linearGradient13453)" />
      <path
         d="m 26.577766,80.429342 v 7.13 h 1.208 v -6.365 z"
         fill="url(#c)"
         opacity="0.35"
         id="path13445"
         style="fill:url(#linearGradient13455)" />
    </g>
  </g>
</svg>
