<?xml version="1.0" encoding="UTF-8" standalone="no"?>
<svg
   width="24"
   height="24"
   viewBox="0 0 24 24"
   fill="none"
   version="1.1"
   id="svg17"
   sodipodi:docname="cyan-folder-download.svg"
   inkscape:version="1.3 (0e150ed6c4, 2023-07-21)"
   xmlns:inkscape="http://www.inkscape.org/namespaces/inkscape"
   xmlns:sodipodi="http://sodipodi.sourceforge.net/DTD/sodipodi-0.dtd"
   xmlns:xlink="http://www.w3.org/1999/xlink"
   xmlns="http://www.w3.org/2000/svg"
   xmlns:svg="http://www.w3.org/2000/svg">
  <sodipodi:namedview
     id="namedview17"
     pagecolor="#ffffff"
     bordercolor="#000000"
     borderopacity="0.25"
     inkscape:showpageshadow="2"
     inkscape:pageopacity="0.0"
     inkscape:pagecheckerboard="0"
     inkscape:deskcolor="#d1d1d1"
     inkscape:zoom="23.894317"
     inkscape:cx="12.283255"
     inkscape:cy="10.902174"
     inkscape:window-width="2560"
     inkscape:window-height="998"
     inkscape:window-x="0"
     inkscape:window-y="0"
     inkscape:window-maximized="1"
     inkscape:current-layer="svg17" />
  <defs
     id="defs17">
    <linearGradient
       id="paint0_linear_201_104"
       x1="23"
       y1="0.999999"
       x2="1"
       y2="12"
       gradientUnits="userSpaceOnUse">
      <stop
         stop-color="#F06246"
         id="stop5" />
      <stop
         offset="1"
         stop-color="#BE4128"
         id="stop6" />
    </linearGradient>
    <linearGradient
       id="paint1_linear_201_104"
       x1="21"
       y1="4"
       x2="3"
       y2="4"
       gradientUnits="userSpaceOnUse">
      <stop
         stop-opacity="0.5"
         id="stop7" />
      <stop
         offset="0.890123"
         id="stop8" />
      <stop
         offset="1"
         stop-opacity="0"
         id="stop9" />
    </linearGradient>
    <linearGradient
       id="paint2_linear_201_104"
       x1="12"
       y1="3"
       x2="11.5"
       y2="8"
       gradientUnits="userSpaceOnUse">
      <stop
         stop-color="#DDDDDD"
         id="stop10" />
      <stop
         offset="1"
         stop-color="#CCCCCC"
         stop-opacity="0"
         id="stop11" />
    </linearGradient>
    <linearGradient
       id="paint3_linear_201_104"
       x1="23"
       y1="9"
       x2="1.01236"
       y2="9.52141"
       gradientUnits="userSpaceOnUse">
      <stop
         stop-opacity="0.5"
         id="stop12" />
      <stop
         offset="1"
         id="stop13" />
    </linearGradient>
    <linearGradient
       id="paint4_linear_201_104"
       x1="23"
       y1="5.4"
       x2="1.42949"
       y2="23.5115"
       gradientUnits="userSpaceOnUse">
      <stop
         stop-color="#FF8966"
         id="stop14" />
      <stop
         offset="1"
         stop-color="#DC3A1A"
         id="stop15" />
    </linearGradient>
    <linearGradient
       id="paint5_linear_201_104"
       x1="15"
       y1="5.5"
       x2="5.5"
       y2="19.5"
       gradientUnits="userSpaceOnUse">
      <stop
         stop-color="#FFB693"
         id="stop16" />
      <stop
         offset="1"
         stop-color="#C82606"
         id="stop17" />
    </linearGradient>
    <linearGradient
       id="paint6_linear_202_43"
       x1="18.83"
       y1="10"
       x2="6.1799998"
       y2="18.25"
       gradientUnits="userSpaceOnUse"
       gradientTransform="translate(-0.47116)">
      <stop
         stop-color="#967CCC"
         id="stop20-8" />
      <stop
         offset="1"
         stop-color="#5E35B1"
         id="stop21-9" />
    </linearGradient>
    <linearGradient
       id="paint7_linear_207_95"
       x1="16.674999"
       y1="9"
       x2="8.2859201"
       y2="19.754999"
       gradientUnits="userSpaceOnUse"
       gradientTransform="translate(-0.46609738)">
      <stop
         stop-color="#0BB1CB"
         id="stop30" />
      <stop
         offset="1"
         stop-color="#006599"
         id="stop31" />
    </linearGradient>
    <linearGradient
       inkscape:collect="always"
       xlink:href="#linearGradient24"
       id="linearGradient25"
       x1="-2.244113"
       y1="8.9965773"
       x2="-9.2647057"
       y2="18.241259"
       gradientUnits="userSpaceOnUse"
       gradientTransform="matrix(1.0831395,0,0,1.0831395,18.319019,-0.74630652)" />
    <linearGradient
       id="linearGradient24"
       inkscape:collect="always">
      <stop
         style="stop-color:#54bf54;stop-opacity:1;"
         offset="0"
         id="stop24" />
      <stop
         style="stop-color:#237523;stop-opacity:1;"
         offset="1"
         id="stop25" />
    </linearGradient>
    <linearGradient
       id="paint0_linear_201_48"
       x1="23"
       y1="0.99999899"
       x2="1"
       y2="12"
       gradientUnits="userSpaceOnUse">
      <stop
         stop-color="#04BACC"
         id="stop5-9" />
      <stop
         offset="1"
         stop-color="#2D85C6"
         id="stop6-4" />
    </linearGradient>
    <linearGradient
       id="paint4_linear_201_48"
       x1="23"
       y1="5.4000001"
       x2="1.42949"
       y2="23.511499"
       gradientUnits="userSpaceOnUse">
      <stop
         stop-color="#04BACC"
         id="stop14-1" />
      <stop
         offset="1"
         stop-color="#2D85C6"
         id="stop15-5" />
    </linearGradient>
    <linearGradient
       id="paint5_linear_201_48"
       x1="15"
       y1="5.5"
       x2="5.5"
       y2="19.5"
       gradientUnits="userSpaceOnUse">
      <stop
         stop-color="#42F8FF"
         id="stop16-9" />
      <stop
         offset="1"
         stop-color="#0060F0"
         id="stop17-7" />
    </linearGradient>
  </defs>
  <rect
     opacity="0.8125"
     x="1"
     y="1"
     width="22"
     height="22"
     rx="6.5999999"
     fill="url(#paint0_linear_201_48)"
     id="rect1"
     style="fill:url(#paint0_linear_201_48)" />
  <rect
     opacity="0.125"
     x="3"
     y="2.25"
     width="18"
     height="18"
     rx="4.4000001"
     fill="url(#paint1_linear_201_48)"
     fill-opacity="0.875"
     id="rect2"
     style="fill:url(#paint1_linear_201_104)" />
  <rect
     x="3.25"
     y="3.25"
     width="17.5"
     height="17.5"
     rx="4.1500001"
     fill="#cccccc"
     stroke="url(#paint2_linear_201_48)"
     stroke-width="0.5"
     id="rect3"
     style="stroke:url(#paint2_linear_201_104)" />
  <path
     opacity="0.125"
     d="M 1,7.50781 C 1,5.84664 2.34664,4.5 4.00781,4.5 h 4.18267 c 1.07452,0 2.11632,0.36994 2.95012,1.04762 v 0 c 0.8339,0.67768 1.8756,1.04762 2.9502,1.04762 h 5.9014 C 21.6534,6.59524 23,7.94188 23,9.60305 V 15.5 c 0,3.6451 -2.9549,6.6 -6.6,6.6 H 7.6 C 3.95492,22.1 1,19.1451 1,15.5 Z"
     fill="url(#paint3_linear_201_48)"
     fill-opacity="0.875"
     id="path3"
     style="fill:url(#paint3_linear_201_104)" />
  <g
     opacity="0.875"
     id="g5">
    <path
       d="M 1,8.40781 C 1,6.74664 2.34664,5.4 4.00781,5.4 h 4.18267 c 1.07452,0 2.11632,0.36994 2.95012,1.04762 v 0 c 0.8339,0.67768 1.8756,1.04762 2.9502,1.04762 h 5.9014 C 21.6534,7.49524 23,8.84188 23,10.5031 V 16.4 C 23,20.0451 20.0451,23 16.4,23 H 7.6 C 3.95492,23 1,20.0451 1,16.4 Z"
       fill="url(#paint4_linear_201_48)"
       id="path4"
       style="fill:url(#paint4_linear_201_48)" />
    <path
       d="M 22.625,10.5031 V 16.4 c 0,3.438 -2.787,6.225 -6.225,6.225 H 7.6 C 4.16203,22.625 1.375,19.838 1.375,16.4 V 8.40781 C 1.375,6.95375 2.55375,5.775 4.00781,5.775 h 4.18267 c 0.98838,0 1.94662,0.34028 2.71362,0.96363 0.9007,0.73201 2.026,1.13161 3.1867,1.13161 h 5.9014 c 1.454,0 2.6328,1.17875 2.6328,2.63286 z"
       stroke="url(#paint5_linear_201_48)"
       stroke-opacity="0.375"
       stroke-width="0.75"
       stroke-linejoin="round"
       id="path5"
       style="stroke:url(#paint5_linear_201_48)" />
  </g>
  <path
     id="path26"
     style="opacity:0.15;fill:#1a1a1a;stroke-width:2.16628;stroke-linecap:round;stroke-linejoin:round;paint-order:stroke markers fill"
     d="m 11.31849,9.5 c -0.533652,0 -0.962556,0.431019 -0.962556,0.964671 v 3.386926 L 9.482231,12.977893 c -0.37735,-0.377349 -0.985039,-0.377349 -1.362387,0 -0.37735,0.377348 -0.37735,0.985037 0,1.362385 l 2.517453,2.515338 v 0.0022 c 0.02176,0.02176 0.04393,0.04174 0.0677,0.06135 0.0012,9.71e-4 0.003,0.0012 0.0042,0.0022 0.02266,0.0185 0.04549,0.03648 0.06981,0.05289 0.0028,0.0019 0.0056,0.0044 0.0084,0.0064 h 0.0022 c 0.02245,0.01473 0.0461,0.02946 0.06981,0.04231 0.0036,0.0019 0.0069,0.0044 0.01061,0.0064 h 0.0022 c 0.0042,0.0023 0.0083,0.0041 0.01269,0.0064 0.0019,0.001 0.0043,0.0011 0.0064,0.0022 0.01746,0.0087 0.03483,0.01777 0.05289,0.02539 0.0041,0.0017 0.0086,0.0025 0.01269,0.0042 0.02491,0.01007 0.05024,0.01947 0.07616,0.0275 l 0.0022,0.0022 h 0.0022 0.0022 c 0.0015,4.58e-4 0.0027,0.0016 0.0042,0.0022 h 0.0022 c 0.0056,0.0017 0.01122,0.0026 0.01693,0.0042 0.0015,4.05e-4 0.0027,0.0017 0.0042,0.0022 0.04121,0.0111 0.08368,0.01978 0.12693,0.02539 0.01061,0.0014 0.02109,0.0032 0.03174,0.0042 h 0.0022 c 0.06063,0.0058 0.121287,0.0057 0.181934,0 h 0.0022 0.0022 c 0.0015,-1.52e-4 0.0027,-0.002 0.0042,-0.0022 0.0065,-6.55e-4 0.01261,-0.0013 0.01904,-0.0022 0.0055,-6.9e-4 0.01141,-0.0013 0.01693,-0.0022 0.04115,-0.0057 0.0813,-0.01465 0.120583,-0.02539 0.0057,-0.0016 0.01336,-0.0025 0.01904,-0.0042 0.0027,-8.1e-4 0.0057,-0.0013 0.0084,-0.0022 0.0015,-4.64e-4 0.0027,-0.0016 0.0042,-0.0022 0.02482,-0.0078 0.04978,-0.01763 0.07404,-0.0275 0.02881,-0.01161 0.05729,-0.02385 0.08463,-0.03808 h 0.0022 l 0.0022,-0.0022 c 0.01546,-0.0082 0.03145,-0.01628 0.04654,-0.02539 0.01098,-0.0066 0.02104,-0.01414 0.03174,-0.02115 h 0.0022 c 0.0024,-0.0016 0.0039,-0.0048 0.0064,-0.0064 h 0.0022 c 0.05123,-0.03455 0.09821,-0.07494 0.141739,-0.118468 l 2.517454,-2.515338 c 0.377348,-0.377349 0.377348,-0.985038 0,-1.362386 -0.37735,-0.377348 -0.985039,-0.377348 -1.362387,0 l -0.871829,0.871608 V 10.464671 C 12.283911,9.931019 11.852892,9.5 11.31924,9.5 Z M 8.462556,17.574889 C 7.928904,17.574889 7.5,18.003793 7.5,18.537444 c 0,0.533652 0.428904,0.962555 0.962556,0.962555 h 5.711868 c 0.533652,0 0.962556,-0.428903 0.962556,-0.962555 0,-0.533651 -0.428904,-0.962555 -0.962556,-0.962555 z" />
  <path
     id="rect21"
     style="fill:url(#linearGradient25);stroke-width:2.16628;stroke-linecap:round;stroke-linejoin:round;paint-order:stroke markers fill"
     d="m 12,8.9765625 c -0.533652,0 -0.962556,0.4310192 -0.962556,0.9646711 V 13.32816 l -0.873703,-0.873704 c -0.377349,-0.377349 -0.985039,-0.377349 -1.362387,0 -0.37735,0.377348 -0.37735,0.985037 0,1.362385 l 2.517453,2.515338 v 0.0022 c 0.02176,0.02176 0.04393,0.04174 0.0677,0.06135 0.0012,9.71e-4 0.003,0.0012 0.0042,0.0022 0.02266,0.0185 0.04549,0.03648 0.06981,0.05289 0.0028,0.0019 0.0056,0.0044 0.0084,0.0064 h 0.0022 c 0.02245,0.01473 0.0461,0.02946 0.06981,0.04231 0.0036,0.0019 0.0069,0.0044 0.01061,0.0064 h 0.0022 c 0.0042,0.0023 0.0083,0.0041 0.01269,0.0064 0.0019,10e-4 0.0043,0.0011 0.0064,0.0022 0.01746,0.0087 0.03483,0.01777 0.05289,0.02539 0.0041,0.0017 0.0086,0.0025 0.01269,0.0042 0.02491,0.01007 0.05024,0.01947 0.07616,0.0275 l 0.0022,0.0022 h 0.0022 0.0022 c 0.0015,4.58e-4 0.0027,0.0016 0.0042,0.0022 h 0.0022 c 0.0056,0.0017 0.01122,0.0026 0.01693,0.0042 0.0015,4.05e-4 0.0027,0.0017 0.0042,0.0022 0.04121,0.0111 0.08368,0.01978 0.12693,0.02539 0.01061,0.0014 0.02109,0.0032 0.03174,0.0042 h 0.0022 c 0.06063,0.0058 0.121287,0.0057 0.181934,0 h 0.0022 0.0022 c 0.0015,-1.52e-4 0.0027,-0.002 0.0042,-0.0022 0.0065,-6.55e-4 0.01261,-0.0013 0.01904,-0.0022 0.0055,-6.9e-4 0.01141,-0.0013 0.01693,-0.0022 0.04115,-0.0057 0.0813,-0.01465 0.120583,-0.02539 0.0057,-0.0016 0.01336,-0.0025 0.01904,-0.0042 0.0027,-8.1e-4 0.0057,-0.0013 0.0084,-0.0022 0.0015,-4.64e-4 0.0027,-0.0016 0.0042,-0.0022 0.02482,-0.0078 0.04978,-0.01763 0.07404,-0.0275 0.02881,-0.01161 0.05729,-0.02385 0.08463,-0.03808 h 0.0022 l 0.0022,-0.0022 c 0.01546,-0.0082 0.03145,-0.01628 0.04654,-0.02539 0.01098,-0.0066 0.02104,-0.01414 0.03174,-0.02115 h 0.0022 c 0.0024,-0.0016 0.0039,-0.0048 0.0064,-0.0064 h 0.0022 c 0.05123,-0.03455 0.09821,-0.07494 0.141739,-0.118468 l 2.517454,-2.515338 c 0.377348,-0.377349 0.377348,-0.985038 0,-1.362386 -0.37735,-0.377348 -0.985039,-0.377348 -1.362387,0 l -0.871829,0.871608 V 9.9412336 c 0,-0.5336519 -0.431019,-0.9646711 -0.964671,-0.9646711 z M 9.144066,17.051452 c -0.533652,0 -0.962556,0.428904 -0.962556,0.962555 0,0.533652 0.428904,0.962555 0.962556,0.962555 h 5.711868 c 0.533652,0 0.962556,-0.428903 0.962556,-0.962555 0,-0.533651 -0.428904,-0.962555 -0.962556,-0.962555 z" />
</svg>
