<?xml version="1.0" encoding="UTF-8" standalone="no"?>
<svg
   width="24"
   height="24"
   viewBox="0 0 24 24"
   fill="none"
   version="1.1"
   id="svg17"
   sodipodi:docname="cyan-folder-templates.svg"
   inkscape:version="1.3 (0e150ed6c4, 2023-07-21)"
   xmlns:inkscape="http://www.inkscape.org/namespaces/inkscape"
   xmlns:sodipodi="http://sodipodi.sourceforge.net/DTD/sodipodi-0.dtd"
   xmlns="http://www.w3.org/2000/svg"
   xmlns:svg="http://www.w3.org/2000/svg">
  <sodipodi:namedview
     id="namedview17"
     pagecolor="#ffffff"
     bordercolor="#000000"
     borderopacity="0.25"
     inkscape:showpageshadow="2"
     inkscape:pageopacity="0.0"
     inkscape:pagecheckerboard="0"
     inkscape:deskcolor="#d1d1d1"
     inkscape:zoom="23.894317"
     inkscape:cx="12.283255"
     inkscape:cy="10.902174"
     inkscape:window-width="2560"
     inkscape:window-height="998"
     inkscape:window-x="0"
     inkscape:window-y="0"
     inkscape:window-maximized="1"
     inkscape:current-layer="svg17" />
  <defs
     id="defs17">
    <linearGradient
       id="paint0_linear_201_104"
       x1="23"
       y1="0.999999"
       x2="1"
       y2="12"
       gradientUnits="userSpaceOnUse">
      <stop
         stop-color="#F06246"
         id="stop5" />
      <stop
         offset="1"
         stop-color="#BE4128"
         id="stop6" />
    </linearGradient>
    <linearGradient
       id="paint1_linear_201_104"
       x1="21"
       y1="4"
       x2="3"
       y2="4"
       gradientUnits="userSpaceOnUse">
      <stop
         stop-opacity="0.5"
         id="stop7" />
      <stop
         offset="0.890123"
         id="stop8" />
      <stop
         offset="1"
         stop-opacity="0"
         id="stop9" />
    </linearGradient>
    <linearGradient
       id="paint2_linear_201_104"
       x1="12"
       y1="3"
       x2="11.5"
       y2="8"
       gradientUnits="userSpaceOnUse">
      <stop
         stop-color="#DDDDDD"
         id="stop10" />
      <stop
         offset="1"
         stop-color="#CCCCCC"
         stop-opacity="0"
         id="stop11" />
    </linearGradient>
    <linearGradient
       id="paint3_linear_201_104"
       x1="23"
       y1="9"
       x2="1.01236"
       y2="9.52141"
       gradientUnits="userSpaceOnUse">
      <stop
         stop-opacity="0.5"
         id="stop12" />
      <stop
         offset="1"
         id="stop13" />
    </linearGradient>
    <linearGradient
       id="paint4_linear_201_104"
       x1="23"
       y1="5.4"
       x2="1.42949"
       y2="23.5115"
       gradientUnits="userSpaceOnUse">
      <stop
         stop-color="#FF8966"
         id="stop14" />
      <stop
         offset="1"
         stop-color="#DC3A1A"
         id="stop15" />
    </linearGradient>
    <linearGradient
       id="paint5_linear_201_104"
       x1="15"
       y1="5.5"
       x2="5.5"
       y2="19.5"
       gradientUnits="userSpaceOnUse">
      <stop
         stop-color="#FFB693"
         id="stop16" />
      <stop
         offset="1"
         stop-color="#C82606"
         id="stop17" />
    </linearGradient>
    <linearGradient
       id="paint6_linear_202_43"
       x1="18.83"
       y1="10"
       x2="6.1799998"
       y2="18.25"
       gradientUnits="userSpaceOnUse"
       gradientTransform="translate(-0.47116)">
      <stop
         stop-color="#967CCC"
         id="stop20-8" />
      <stop
         offset="1"
         stop-color="#5E35B1"
         id="stop21-9" />
    </linearGradient>
    <linearGradient
       id="paint7_linear_207_95"
       x1="16.674999"
       y1="9"
       x2="8.2859201"
       y2="19.754999"
       gradientUnits="userSpaceOnUse"
       gradientTransform="translate(-0.46609738)">
      <stop
         stop-color="#0BB1CB"
         id="stop30" />
      <stop
         offset="1"
         stop-color="#006599"
         id="stop31" />
    </linearGradient>
    <linearGradient
       id="paint6_linear_207_44"
       x1="18.439199"
       y1="8.1073503"
       x2="9.3879299"
       y2="21.114599"
       gradientUnits="userSpaceOnUse"
       gradientTransform="matrix(0.93303702,0,0,0.93303702,0.84038255,0.56918821)">
      <stop
         stop-color="#E996B1"
         id="stop20" />
      <stop
         offset="1"
         stop-color="#BC546F"
         id="stop21" />
    </linearGradient>
    <linearGradient
       id="paint8_linear_202_66"
       x1="18.6"
       y1="10.2395"
       x2="9.5206699"
       y2="22.7798"
       gradientUnits="userSpaceOnUse">
      <stop
         stop-color="#3C9BCE"
         id="stop26" />
      <stop
         offset="1"
         stop-color="#00405F"
         id="stop27" />
    </linearGradient>
    <linearGradient
       id="paint9_linear_202_66"
       x1="11.5002"
       y1="7.6416202"
       x2="7.1997099"
       y2="11.942"
       gradientUnits="userSpaceOnUse">
      <stop
         stop-color="#3C9BCE"
         id="stop28" />
      <stop
         offset="1"
         stop-color="#00405F"
         id="stop29-0" />
    </linearGradient>
    <linearGradient
       id="paint6_linear_211_10"
       x1="18"
       y1="9"
       x2="6"
       y2="21"
       gradientUnits="userSpaceOnUse"
       gradientTransform="matrix(0.87495626,0,0,0.94072478,1.48864,0.503841)">
      <stop
         stop-color="#999999"
         id="stop19-9" />
      <stop
         offset="1"
         stop-color="#333333"
         id="stop20-4" />
    </linearGradient>
    <linearGradient
       id="paint6_linear_207_79"
       x1="17.133301"
       y1="8.3333302"
       x2="6.8666701"
       y2="20.0667"
       gradientUnits="userSpaceOnUse"
       gradientTransform="matrix(0.93749707,0,0,0.93749707,0.750051,0.90556777)">
      <stop
         stop-color="#FF7C7D"
         id="stop19" />
      <stop
         offset="1"
         stop-color="#751010"
         id="stop20-9" />
    </linearGradient>
    <linearGradient
       id="paint0_linear_201_48"
       x1="23"
       y1="0.99999899"
       x2="1"
       y2="12"
       gradientUnits="userSpaceOnUse">
      <stop
         stop-color="#04BACC"
         id="stop5-2" />
      <stop
         offset="1"
         stop-color="#2D85C6"
         id="stop6-3" />
    </linearGradient>
    <linearGradient
       id="paint4_linear_201_48"
       x1="23"
       y1="5.4000001"
       x2="1.42949"
       y2="23.511499"
       gradientUnits="userSpaceOnUse">
      <stop
         stop-color="#04BACC"
         id="stop14-7" />
      <stop
         offset="1"
         stop-color="#2D85C6"
         id="stop15-3" />
    </linearGradient>
    <linearGradient
       id="paint5_linear_201_48"
       x1="15"
       y1="5.5"
       x2="5.5"
       y2="19.5"
       gradientUnits="userSpaceOnUse">
      <stop
         stop-color="#42F8FF"
         id="stop16-6" />
      <stop
         offset="1"
         stop-color="#0060F0"
         id="stop17-1" />
    </linearGradient>
  </defs>
  <rect
     opacity="0.8125"
     x="1"
     y="1"
     width="22"
     height="22"
     rx="6.5999999"
     fill="url(#paint0_linear_201_48)"
     id="rect1"
     style="fill:url(#paint0_linear_201_48)" />
  <rect
     opacity="0.125"
     x="3"
     y="2.25"
     width="18"
     height="18"
     rx="4.4000001"
     fill="url(#paint1_linear_201_48)"
     fill-opacity="0.875"
     id="rect2"
     style="fill:url(#paint1_linear_201_104)" />
  <rect
     x="3.25"
     y="3.25"
     width="17.5"
     height="17.5"
     rx="4.1500001"
     fill="#cccccc"
     stroke="url(#paint2_linear_201_48)"
     stroke-width="0.5"
     id="rect3"
     style="stroke:url(#paint2_linear_201_104)" />
  <path
     opacity="0.125"
     d="M 1,7.50781 C 1,5.84664 2.34664,4.5 4.00781,4.5 h 4.18267 c 1.07452,0 2.11632,0.36994 2.95012,1.04762 v 0 c 0.8339,0.67768 1.8756,1.04762 2.9502,1.04762 h 5.9014 C 21.6534,6.59524 23,7.94188 23,9.60305 V 15.5 c 0,3.6451 -2.9549,6.6 -6.6,6.6 H 7.6 C 3.95492,22.1 1,19.1451 1,15.5 Z"
     fill="url(#paint3_linear_201_48)"
     fill-opacity="0.875"
     id="path3"
     style="fill:url(#paint3_linear_201_104)" />
  <g
     opacity="0.875"
     id="g5">
    <path
       d="M 1,8.40781 C 1,6.74664 2.34664,5.4 4.00781,5.4 h 4.18267 c 1.07452,0 2.11632,0.36994 2.95012,1.04762 v 0 c 0.8339,0.67768 1.8756,1.04762 2.9502,1.04762 h 5.9014 C 21.6534,7.49524 23,8.84188 23,10.5031 V 16.4 C 23,20.0451 20.0451,23 16.4,23 H 7.6 C 3.95492,23 1,20.0451 1,16.4 Z"
       fill="url(#paint4_linear_201_48)"
       id="path4"
       style="fill:url(#paint4_linear_201_48)" />
    <path
       d="M 22.625,10.5031 V 16.4 c 0,3.438 -2.787,6.225 -6.225,6.225 H 7.6 C 4.16203,22.625 1.375,19.838 1.375,16.4 V 8.40781 C 1.375,6.95375 2.55375,5.775 4.00781,5.775 h 4.18267 c 0.98838,0 1.94662,0.34028 2.71362,0.96363 0.9007,0.73201 2.026,1.13161 3.1867,1.13161 h 5.9014 c 1.454,0 2.6328,1.17875 2.6328,2.63286 z"
       stroke="url(#paint5_linear_201_48)"
       stroke-opacity="0.375"
       stroke-width="0.75"
       stroke-linejoin="round"
       id="path5"
       style="stroke:url(#paint5_linear_201_48)" />
  </g>
  <path
     d="m 10.137456,9.1 v 1.37499 H 9.449988 c -0.37812,0 -0.687494,0.309383 -0.687494,0.687475 v 2.750054 L 9.133733,14.283768 6.789372,18.381193 6.7,20.1 7.985618,19.068753 8.480616,18.195568 c 0.735626,0.343781 1.533088,0.529405 2.344399,0.529405 0.811216,0 1.608745,-0.185624 2.344305,-0.529405 l 0.494999,0.873185 1.285683,1.031247 -0.08944,-1.718807 -0.529311,-0.921185 c 1.264965,-1.045028 1.993681,-2.598742 1.993681,-4.235049 h -1.374933 c 0,1.141309 -0.474373,2.234431 -1.313152,3.011241 l -1.12059,-1.952432 0.371249,-0.371249 v -2.750054 c 0,-0.378092 -0.309374,-0.687475 -0.687561,-0.687475 H 11.512483 V 9.1 Z m 0.68756,2.750026 c 0.378093,0 0.687467,0.309374 0.687467,0.687466 0,0.378093 -0.309374,0.687467 -0.687467,0.687467 -0.378186,0 -0.68756,-0.309374 -0.68756,-0.687467 0,-0.378092 0.309374,-0.687466 0.68756,-0.687466 z m -0.680624,3.437427 c 0.433124,0.213186 0.866249,0.371248 1.361246,0 l 0.976216,1.711869 c -0.522467,0.226874 -1.086278,0.350624 -1.656839,0.350624 -0.570654,0 -1.134371,-0.12375 -1.656904,-0.350624 z"
     fill="url(#paint6_linear_207_79)"
     id="path20"
     style="opacity:0.15;fill:#1a1a1a;stroke-width:0.937497" />
  <path
     d="M 10.62499,8.7180402 V 10.09303 H 9.937522 c -0.37812,0 -0.687494,0.309383 -0.687494,0.687475 v 2.750054 l 0.371239,0.371249 -2.344361,4.097425 -0.08937,1.718807 1.285618,-1.031247 0.494998,-0.873185 c 0.735626,0.343781 1.533088,0.529405 2.344399,0.529405 0.811216,0 1.608745,-0.185624 2.344305,-0.529405 l 0.494999,0.873185 1.285683,1.031247 -0.08944,-1.718807 -0.529311,-0.921185 c 1.264965,-1.045028 1.993681,-2.598742 1.993681,-4.235049 h -1.374933 c 0,1.141309 -0.474373,2.234431 -1.313152,3.011241 l -1.12059,-1.952432 0.371249,-0.371249 v -2.750054 c 0,-0.378092 -0.309374,-0.687475 -0.687561,-0.687475 H 12.000017 V 8.7180402 Z m 0.68756,2.7500258 c 0.378093,0 0.687467,0.309374 0.687467,0.687466 0,0.378093 -0.309374,0.687467 -0.687467,0.687467 -0.378186,0 -0.68756,-0.309374 -0.68756,-0.687467 0,-0.378092 0.309374,-0.687466 0.68756,-0.687466 z m -0.680624,3.437427 c 0.433124,0.213186 0.866249,0.371248 1.361246,0 l 0.976216,1.711869 c -0.522467,0.226874 -1.086278,0.350624 -1.656839,0.350624 -0.570654,0 -1.134371,-0.12375 -1.656904,-0.350624 z"
     fill="url(#paint6_linear_207_79)"
     id="path6"
     style="fill:url(#paint6_linear_207_79);stroke-width:0.937497" />
</svg>
