<?xml version="1.0" encoding="UTF-8" standalone="no"?>
<svg
   width="24"
   height="24"
   viewBox="0 0 24 24"
   fill="none"
   version="1.1"
   id="svg17"
   sodipodi:docname="cyan-folder-bookmark.svg"
   inkscape:version="1.3 (0e150ed6c4, 2023-07-21)"
   xmlns:inkscape="http://www.inkscape.org/namespaces/inkscape"
   xmlns:sodipodi="http://sodipodi.sourceforge.net/DTD/sodipodi-0.dtd"
   xmlns="http://www.w3.org/2000/svg"
   xmlns:svg="http://www.w3.org/2000/svg">
  <sodipodi:namedview
     id="namedview17"
     pagecolor="#ffffff"
     bordercolor="#000000"
     borderopacity="0.25"
     inkscape:showpageshadow="2"
     inkscape:pageopacity="0.0"
     inkscape:pagecheckerboard="0"
     inkscape:deskcolor="#d1d1d1"
     inkscape:zoom="23.894317"
     inkscape:cx="12.283255"
     inkscape:cy="10.902174"
     inkscape:window-width="2560"
     inkscape:window-height="998"
     inkscape:window-x="0"
     inkscape:window-y="0"
     inkscape:window-maximized="1"
     inkscape:current-layer="svg17" />
  <defs
     id="defs17">
    <linearGradient
       id="paint0_linear_201_104"
       x1="23"
       y1="0.999999"
       x2="1"
       y2="12"
       gradientUnits="userSpaceOnUse">
      <stop
         stop-color="#F06246"
         id="stop5" />
      <stop
         offset="1"
         stop-color="#BE4128"
         id="stop6" />
    </linearGradient>
    <linearGradient
       id="paint1_linear_201_104"
       x1="21"
       y1="4"
       x2="3"
       y2="4"
       gradientUnits="userSpaceOnUse">
      <stop
         stop-opacity="0.5"
         id="stop7" />
      <stop
         offset="0.890123"
         id="stop8" />
      <stop
         offset="1"
         stop-opacity="0"
         id="stop9" />
    </linearGradient>
    <linearGradient
       id="paint2_linear_201_104"
       x1="12"
       y1="3"
       x2="11.5"
       y2="8"
       gradientUnits="userSpaceOnUse">
      <stop
         stop-color="#DDDDDD"
         id="stop10" />
      <stop
         offset="1"
         stop-color="#CCCCCC"
         stop-opacity="0"
         id="stop11" />
    </linearGradient>
    <linearGradient
       id="paint3_linear_201_104"
       x1="23"
       y1="9"
       x2="1.01236"
       y2="9.52141"
       gradientUnits="userSpaceOnUse">
      <stop
         stop-opacity="0.5"
         id="stop12" />
      <stop
         offset="1"
         id="stop13" />
    </linearGradient>
    <linearGradient
       id="paint4_linear_201_104"
       x1="23"
       y1="5.4"
       x2="1.42949"
       y2="23.5115"
       gradientUnits="userSpaceOnUse">
      <stop
         stop-color="#FF8966"
         id="stop14" />
      <stop
         offset="1"
         stop-color="#DC3A1A"
         id="stop15" />
    </linearGradient>
    <linearGradient
       id="paint5_linear_201_104"
       x1="15"
       y1="5.5"
       x2="5.5"
       y2="19.5"
       gradientUnits="userSpaceOnUse">
      <stop
         stop-color="#FFB693"
         id="stop16" />
      <stop
         offset="1"
         stop-color="#C82606"
         id="stop17" />
    </linearGradient>
    <linearGradient
       id="paint6_linear_202_43"
       x1="18.83"
       y1="10"
       x2="6.1799998"
       y2="18.25"
       gradientUnits="userSpaceOnUse"
       gradientTransform="translate(-0.47116)">
      <stop
         stop-color="#967CCC"
         id="stop20-8" />
      <stop
         offset="1"
         stop-color="#5E35B1"
         id="stop21-9" />
    </linearGradient>
    <linearGradient
       id="paint0_linear_201_48"
       x1="23"
       y1="0.99999899"
       x2="1"
       y2="12"
       gradientUnits="userSpaceOnUse">
      <stop
         stop-color="#04BACC"
         id="stop5-0" />
      <stop
         offset="1"
         stop-color="#2D85C6"
         id="stop6-6" />
    </linearGradient>
    <linearGradient
       id="paint4_linear_201_48"
       x1="23"
       y1="5.4000001"
       x2="1.42949"
       y2="23.511499"
       gradientUnits="userSpaceOnUse">
      <stop
         stop-color="#04BACC"
         id="stop14-5" />
      <stop
         offset="1"
         stop-color="#2D85C6"
         id="stop15-0" />
    </linearGradient>
    <linearGradient
       id="paint5_linear_201_48"
       x1="15"
       y1="5.5"
       x2="5.5"
       y2="19.5"
       gradientUnits="userSpaceOnUse">
      <stop
         stop-color="#42F8FF"
         id="stop16-4" />
      <stop
         offset="1"
         stop-color="#0060F0"
         id="stop17-8" />
    </linearGradient>
  </defs>
  <rect
     opacity="0.8125"
     x="1"
     y="1"
     width="22"
     height="22"
     rx="6.5999999"
     fill="url(#paint0_linear_201_48)"
     id="rect1"
     style="fill:url(#paint0_linear_201_48)" />
  <rect
     opacity="0.125"
     x="3"
     y="2.25"
     width="18"
     height="18"
     rx="4.4000001"
     fill="url(#paint1_linear_201_48)"
     fill-opacity="0.875"
     id="rect2"
     style="fill:url(#paint1_linear_201_104)" />
  <rect
     x="3.25"
     y="3.25"
     width="17.5"
     height="17.5"
     rx="4.1500001"
     fill="#cccccc"
     stroke="url(#paint2_linear_201_48)"
     stroke-width="0.5"
     id="rect3"
     style="stroke:url(#paint2_linear_201_104)" />
  <path
     opacity="0.125"
     d="M 1,7.50781 C 1,5.84664 2.34664,4.5 4.00781,4.5 h 4.18267 c 1.07452,0 2.11632,0.36994 2.95012,1.04762 v 0 c 0.8339,0.67768 1.8756,1.04762 2.9502,1.04762 h 5.9014 C 21.6534,6.59524 23,7.94188 23,9.60305 V 15.5 c 0,3.6451 -2.9549,6.6 -6.6,6.6 H 7.6 C 3.95492,22.1 1,19.1451 1,15.5 Z"
     fill="url(#paint3_linear_201_48)"
     fill-opacity="0.875"
     id="path3"
     style="fill:url(#paint3_linear_201_104)" />
  <g
     opacity="0.875"
     id="g5">
    <path
       d="M 1,8.40781 C 1,6.74664 2.34664,5.4 4.00781,5.4 h 4.18267 c 1.07452,0 2.11632,0.36994 2.95012,1.04762 v 0 c 0.8339,0.67768 1.8756,1.04762 2.9502,1.04762 h 5.9014 C 21.6534,7.49524 23,8.84188 23,10.5031 V 16.4 C 23,20.0451 20.0451,23 16.4,23 H 7.6 C 3.95492,23 1,20.0451 1,16.4 Z"
       fill="url(#paint4_linear_201_48)"
       id="path4"
       style="fill:url(#paint4_linear_201_48)" />
    <path
       d="M 22.625,10.5031 V 16.4 c 0,3.438 -2.787,6.225 -6.225,6.225 H 7.6 C 4.16203,22.625 1.375,19.838 1.375,16.4 V 8.40781 C 1.375,6.95375 2.55375,5.775 4.00781,5.775 h 4.18267 c 0.98838,0 1.94662,0.34028 2.71362,0.96363 0.9007,0.73201 2.026,1.13161 3.1867,1.13161 h 5.9014 c 1.454,0 2.6328,1.17875 2.6328,2.63286 z"
       stroke="url(#paint5_linear_201_48)"
       stroke-opacity="0.375"
       stroke-width="0.75"
       stroke-linejoin="round"
       id="path5"
       style="stroke:url(#paint5_linear_201_48)" />
  </g>
  <path
     d="m 14.859176,19.339434 c 0.152447,0.478895 -0.394862,0.874486 -0.801699,0.579485 l -2.46341,-1.785939 c -0.181603,-0.13162 -0.427038,-0.132245 -0.609266,-0.0015 L 8.512988,19.905798 C 8.104714,20.198821 7.559238,19.800627 7.714048,19.32246 l 0.937277,-2.894821 c 0.06908,-0.213363 -0.0062,-0.446927 -0.186904,-0.579798 L 6.013226,14.045554 C 5.608315,13.747742 5.818523,13.105883 6.321108,13.105362 l 3.042697,-0.0031 C 9.587997,13.102054 9.78699,12.95825 9.857486,12.745304 l 0.956749,-2.8883697 c 0.15807,-0.4770937 0.833459,-0.4755005 0.989238,0.00232 l 0.943108,2.8925837 c 0.06956,0.213259 0.267823,0.358 0.492016,0.359249 l 3.042791,0.01739 c 0.502532,0.0029 0.709752,0.645712 0.303435,0.941546 l -2.459557,1.790937 c -0.181291,0.131933 -0.257722,0.365185 -0.189621,0.57886 z"
     stroke="#FFCF0C"
     stroke-width="0.724879"
     id="path10"
     style="opacity:0.15;fill:#1a1a1a;stroke:none" />
  <path
     d="m 15.559176,18.556167 c 0.152447,0.478895 -0.394862,0.874486 -0.801699,0.579485 l -2.46341,-1.785939 c -0.181603,-0.13162 -0.427038,-0.132245 -0.609266,-0.0015 L 9.212987,19.122531 C 8.804713,19.415554 8.259237,19.01736 8.414048,18.539193 l 0.937277,-2.894821 c 0.06908,-0.213363 -0.0062,-0.446927 -0.186904,-0.579798 L 6.713226,13.262287 C 6.308315,12.964475 6.518523,12.322616 7.021108,12.322095 l 3.042697,-0.0031 c 0.224192,-2.08e-4 0.423185,-0.144012 0.493681,-0.356958 l 0.956749,-2.8883696 c 0.15807,-0.4770937 0.833459,-0.4755005 0.989238,0.00232 l 0.943108,2.8925836 c 0.06956,0.213259 0.267823,0.358 0.492016,0.359249 l 3.042791,0.01739 c 0.502532,0.0029 0.709752,0.645712 0.303435,0.941546 l -2.459557,1.790937 c -0.181291,0.131933 -0.257722,0.365185 -0.189621,0.57886 z"
     stroke="#FFCF0C"
     stroke-width="0.724879"
     id="path5-9"
     style="fill:#ffcc00;stroke:none" />
</svg>
