<svg width="24" height="24" viewBox="0 0 24 24" fill="none" xmlns="http://www.w3.org/2000/svg">
<rect opacity="0.8125" x="1" y="1" width="22" height="22" rx="6.6" fill="url(#paint0_linear_211_25)"/>
<rect opacity="0.625" x="3" y="2.25" width="18" height="18" rx="4.4" fill="#777777" fill-opacity="0.875"/>
<rect x="3" y="3" width="18" height="18" rx="4.4" fill="#CCCCCC"/>
<path opacity="0.125" d="M1 7.50781C1 5.84664 2.34664 4.5 4.00781 4.5H8.19048C9.265 4.5 10.3068 4.86994 11.1406 5.54762V5.54762C11.9745 6.2253 13.0162 6.59524 14.0908 6.59524H19.9922C21.6534 6.59524 23 7.94188 23 9.60305V15.5C23 19.1451 20.0451 22.1 16.4 22.1H7.6C3.95492 22.1 1 19.1451 1 15.5V7.50781Z" fill="url(#paint1_linear_211_25)" fill-opacity="0.875"/>
<path opacity="0.875" d="M1 8.40781C1 6.74664 2.34664 5.4 4.00781 5.4H8.19048C9.265 5.4 10.3068 5.76994 11.1406 6.44762V6.44762C11.9745 7.1253 13.0162 7.49524 14.0908 7.49524H19.9922C21.6534 7.49524 23 8.84188 23 10.5031V16.4C23 20.0451 20.0451 23 16.4 23H7.6C3.95492 23 1 20.0451 1 16.4V8.40781Z" fill="url(#paint2_linear_211_25)"/>
<path d="M11.9999 8.00019C11.7923 8.00019 11.5835 8.01693 11.3813 8.03794C10.9871 8.07361 10.5975 8.14898 10.2184 8.26293C9.28848 8.55344 8.44281 9.06508 7.75388 9.754C7.06495 10.4429 6.55331 11.2886 6.2628 12.2186C6.14886 12.5976 6.07348 12.9872 6.03781 13.3814C6.01459 13.5868 6.00197 13.7932 6 13.9999C6 14.2075 6.0168 14.4164 6.03781 14.6186C6.07348 15.0127 6.14886 15.4023 6.2628 15.7813C6.55331 16.7113 7.06495 17.557 7.75388 18.2459C8.44281 18.9348 9.28848 19.4465 10.2184 19.737C10.5975 19.8511 10.987 19.9267 11.3813 19.9626C11.5835 19.983 11.7922 19.9998 11.9999 19.9998C12.2075 19.9998 12.4163 19.983 12.6185 19.962C13.0126 19.9266 13.4022 19.8514 13.7813 19.7377C14.1579 19.6167 14.522 19.4596 14.8684 19.2685C16.2433 18.525 17.273 17.2735 17.7378 15.7812C17.8515 15.4022 17.9267 15.0126 17.9622 14.6185C17.9833 14.4163 18 14.2075 18 13.9999C18 13.7929 17.983 13.5829 17.9622 13.3813C17.9267 12.9871 17.8515 12.5975 17.7378 12.2184C17.5047 11.4721 17.129 10.7781 16.6314 10.1749C16.509 10.0267 16.3734 9.89834 16.2372 9.76213C15.6954 9.22033 15.0618 8.77155 14.3438 8.46853C14.1598 8.39094 13.9721 8.32226 13.7816 8.26273C13.4025 8.14879 13.0129 8.07341 12.6188 8.03774C12.4133 8.01484 12.2066 8.00244 11.9999 8.00019ZM11.9999 8.60016C12.9076 8.60016 13.7615 8.82277 14.5125 9.21875C14.5323 9.22989 14.5486 9.24571 14.5683 9.25649C14.5833 9.27638 14.5796 9.29795 14.6061 9.31227C14.6254 9.32341 14.6439 9.34034 14.6618 9.35001C14.6936 9.36897 14.7248 9.39444 14.7181 9.42494C14.7104 9.46993 14.6365 9.46696 14.6059 9.50005C14.6095 9.56289 14.5843 9.55099 14.5681 9.59357C14.5776 9.62109 14.6017 9.61755 14.6059 9.65009C14.6002 9.68486 14.5549 9.68895 14.5681 9.72502C14.6269 9.77057 14.6815 9.73247 14.7372 9.72502C14.8589 9.71015 14.9616 9.72688 15.0372 9.66868C15.0295 9.62183 15.0731 9.60882 15.093 9.57516C15.1333 9.60324 15.1669 9.64005 15.2058 9.66868C15.183 9.67797 15.1327 9.69323 15.1117 9.70642C15.0817 9.72688 15.072 9.75867 15.0372 9.78135C15.0121 9.79809 14.9509 9.85628 14.9244 9.85628C14.8927 9.85628 14.8345 9.82988 14.8116 9.83693C14.7793 9.84622 14.7923 9.89922 14.7559 9.91186C14.6838 9.93826 14.5561 9.84177 14.5309 9.94961C14.5609 10.0119 14.6635 9.99107 14.7181 10.0245C14.7523 10.0461 14.8034 10.1567 14.8124 10.1932C14.8234 10.249 14.8234 10.3065 14.8124 10.3624C14.7782 10.4494 14.6877 10.4391 14.5868 10.4373C14.5598 10.4373 14.5369 10.4391 14.5123 10.4373C14.3432 10.4261 14.1763 10.3724 14.0995 10.4931C14.1052 10.586 14.1204 10.637 14.0995 10.7181C14.0845 10.7768 14.0215 10.8172 14.0245 10.8681C14.0257 10.8945 14.0744 10.9449 14.0808 10.981C14.0845 11.0003 14.0713 11.0386 14.0808 11.0559C14.109 11.1094 14.1804 11.0466 14.2309 11.0559C14.2789 11.0633 14.3244 11.134 14.3244 11.1866C14.3234 11.2388 14.3105 11.2902 14.2866 11.3366C14.2386 11.4086 14.1492 11.3913 14.0808 11.4307C14.0237 11.4631 14.0022 11.5425 13.9679 11.5993C13.9319 11.6605 13.8978 11.681 13.9122 11.768C13.8714 11.86 13.7979 11.9336 13.7058 11.9744C13.6727 11.9903 13.6412 12.0092 13.6117 12.0309C13.5842 12.053 13.5592 12.0782 13.5372 12.1058C13.4989 12.1478 13.4454 12.1664 13.4244 12.1993C13.4094 12.2244 13.4225 12.278 13.4056 12.3122C13.3816 12.3578 13.3419 12.3974 13.3114 12.4429C13.2983 12.465 13.2706 12.4898 13.2557 12.518C13.2209 12.5816 13.1741 12.6314 13.1807 12.6872C13.1864 12.7408 13.2527 12.7527 13.2557 12.7995C13.2593 12.8259 13.2359 12.8464 13.2364 12.8744C13.2382 12.9164 13.2514 12.9356 13.2557 12.968C13.2634 13.049 13.2143 13.0814 13.1992 13.1372C13.1915 13.163 13.2049 13.1913 13.1992 13.2115C13.186 13.2524 13.1253 13.2764 13.1242 13.3244C13.123 13.358 13.1769 13.3893 13.1805 13.4372C13.1824 13.4698 13.1554 13.5001 13.1612 13.5307C13.1725 13.5895 13.2842 13.6722 13.3303 13.718C13.3921 13.7803 13.4528 13.8212 13.4804 13.8872C13.5032 13.9424 13.5127 14.0331 13.5554 14.0744C13.5866 14.1046 13.6459 14.1178 13.6862 14.1496C13.7245 14.1797 13.7774 14.1929 13.8183 14.2247C13.8842 14.2767 13.9742 14.3825 14.0805 14.3747C14.1356 14.3711 14.1867 14.3483 14.249 14.337C14.3133 14.3258 14.39 14.2931 14.4554 14.2998C14.5053 14.3055 14.5525 14.3407 14.6054 14.3375C14.6595 14.3339 14.7309 14.3079 14.7927 14.2812C14.9008 14.2343 15.0669 14.1454 15.2241 14.1683C15.3441 14.1874 15.3466 14.3213 15.4305 14.3747C15.5265 14.3822 15.5979 14.3557 15.6741 14.3747C15.7317 14.3897 15.8001 14.4978 15.8054 14.5434C15.8111 14.5902 15.7742 14.6267 15.7676 14.6562C15.7526 14.7191 15.7411 14.8033 15.7304 14.8435C15.7208 14.8753 15.7106 14.9058 15.7111 14.9375C15.7111 14.9656 15.7566 15.0311 15.7867 15.0682C15.8227 15.1144 15.8744 15.1493 15.9174 15.1995C15.9972 15.2914 16.0308 15.4155 16.0866 15.5373C16.0997 15.5674 16.0734 15.5732 16.0866 15.6119C16.0626 15.7954 16.0002 15.9155 15.8802 16.1183C15.8231 16.1843 15.7662 16.2616 15.7674 16.3433C15.7637 16.5394 15.87 16.6409 15.8617 16.8311C15.8419 17.0861 15.8623 17.1257 15.8424 17.2618C15.9287 17.3057 15.8862 17.434 15.8617 17.5246C15.8245 17.6325 15.7883 17.6591 15.7674 17.731C15.8085 17.7496 15.854 17.7562 15.8987 17.7501C15.3935 18.2739 14.7876 18.6902 14.1173 18.9737C13.4471 19.2573 12.7264 19.4023 11.9987 19.4001C11.3047 19.4005 10.6171 19.2669 9.97377 19.0065C9.97197 19.0053 9.97558 18.9874 9.97377 18.9872C10.0308 18.9632 10.1387 19.0292 10.1802 18.95C10.2006 18.9117 10.1526 18.8383 10.1802 18.8C10.1995 18.7736 10.3272 18.7501 10.3674 18.7436C10.4256 18.7343 10.485 18.7455 10.5175 18.7246C10.5418 18.7081 10.5615 18.6856 10.5747 18.6594C10.5878 18.6331 10.594 18.6039 10.5925 18.5745C10.5889 18.5427 10.5613 18.5276 10.5368 18.4994C10.5159 18.4754 10.5311 18.4459 10.5175 18.4245C10.4918 18.3862 10.4532 18.3674 10.4424 18.3116C10.5211 18.2966 10.6292 18.3999 10.7425 18.368C10.7965 18.353 10.8865 18.2499 10.9116 18.1993C10.9193 18.1843 10.9021 18.1242 10.9116 18.1058C10.9211 18.0847 10.9452 18.0788 10.9488 18.0681C10.9565 18.0387 10.9431 18.0303 10.9488 18.0123C10.9686 17.9565 11.0286 17.921 11.0616 17.8803C11.0862 17.8501 11.1132 17.8186 11.1367 17.7867C11.1624 17.7531 11.175 17.7417 11.1924 17.7122C11.2094 17.6125 11.1312 17.5365 11.1552 17.4494C11.1809 17.3509 11.3232 17.2875 11.4174 17.243C11.4504 17.228 11.4839 17.1969 11.5117 17.1872C11.5771 17.1638 11.6562 17.1722 11.7174 17.1495C11.8201 17.1123 11.8554 16.9995 11.9053 16.9059C11.9293 16.862 11.9569 16.8248 11.961 16.7931C11.9667 16.765 11.9554 16.7325 11.961 16.6995C11.9667 16.6672 11.9706 16.6419 11.9803 16.606C11.9928 16.5442 11.9991 16.4813 11.9992 16.4182C11.9992 16.3749 11.9803 16.3641 11.9803 16.3246C11.9726 16.1832 12.0217 16.177 12.0739 16.0997C12.1003 16.0613 12.1117 15.9959 12.1304 15.9684C12.2186 15.8377 12.3662 15.7734 12.3554 15.5748C12.3517 15.5088 12.3284 15.3708 12.2804 15.3498C12.2528 15.3387 12.1891 15.3461 12.149 15.3307C12.02 15.2827 11.927 15.1351 11.7926 15.1243C11.7645 15.1231 11.7494 15.1256 11.7176 15.1243C11.6655 15.1231 11.6078 15.0745 11.5491 15.068C11.5119 15.0644 11.4398 15.0791 11.4177 15.068C11.3841 15.053 11.389 14.9931 11.362 14.9745C11.3397 14.9595 11.3021 14.9494 11.2679 14.9367C11.2204 14.9157 11.1696 14.9031 11.1178 14.8995C11.0985 14.8983 11.0458 14.9032 11.0243 14.8995C10.9907 14.8939 10.9619 14.8629 10.9308 14.8432C10.8911 14.8192 10.872 14.8023 10.8557 14.7683C10.8916 14.6508 10.7669 14.6309 10.7429 14.5625C10.7316 14.5307 10.7543 14.4784 10.7429 14.4496C10.7297 14.4093 10.6943 14.3897 10.6494 14.3561C10.5713 14.2949 10.4993 14.2391 10.3866 14.2248C10.3367 14.2191 10.2785 14.2285 10.2186 14.2248C10.1465 14.2179 10.0796 14.1845 10.0307 14.1311C9.98462 14.077 9.9767 14.0249 9.93662 13.9999C9.89881 13.9759 9.83156 13.9686 9.80586 13.9433C9.7945 13.9322 9.79813 13.9121 9.78655 13.8876C9.76725 13.848 9.72534 13.8413 9.74934 13.7935C9.70549 13.7719 9.72118 13.821 9.67432 13.8128C9.63238 13.7529 9.60175 13.7193 9.50575 13.7373C9.4619 13.7466 9.42525 13.8117 9.37441 13.8128C9.33248 13.814 9.29882 13.7449 9.24308 13.7373C9.20114 13.7316 9.14104 13.7818 9.11232 13.7751C9.06488 13.7676 9.06073 13.7096 9.0182 13.6815C8.98702 13.6604 8.92333 13.6053 8.90596 13.6066C8.85135 13.6078 8.81244 13.7219 8.73682 13.6815C8.70015 13.6347 8.79977 13.6311 8.75612 13.5875C8.72304 13.5551 8.70699 13.5892 8.6811 13.6068C8.65047 13.6272 8.621 13.6512 8.5868 13.6625C8.51178 13.6912 8.45849 13.6884 8.39955 13.7191C8.34551 13.7477 8.3372 13.7946 8.30602 13.8503C8.28088 13.8959 8.23157 13.9608 8.19319 13.9632C8.14764 13.9668 8.10323 13.9056 8.06243 13.8875C7.93638 13.8334 7.86563 13.9241 7.76243 13.9252C7.66643 13.9264 7.53262 13.7722 7.53741 13.6816C7.54105 13.6259 7.56804 13.5437 7.57463 13.4752C7.58031 13.4211 7.62981 13.3756 7.63094 13.3252C7.63215 13.2592 7.52415 13.2015 7.4809 13.1939C7.37829 13.1748 7.24089 13.2402 7.1245 13.1939C7.10293 13.1567 7.16776 13.1363 7.18081 13.1004C7.18853 13.0793 7.17309 13.0667 7.18081 13.0441C7.19398 13.0093 7.23901 12.9875 7.25583 12.9505C7.26719 12.9224 7.26151 12.8724 7.27468 12.8377C7.28967 12.7988 7.32741 12.7728 7.33117 12.7442C7.33481 12.707 7.30415 12.6558 7.27468 12.6319C7.2042 12.6317 7.13428 12.6443 7.06828 12.669C6.95073 12.7231 6.98136 12.876 6.86249 12.9132C6.82169 12.9262 6.75798 12.9434 6.71245 12.9504C6.78923 12.5635 6.90861 12.1862 7.06839 11.8256C7.11033 11.833 7.14512 11.8598 7.18122 11.8633C7.28138 11.8707 7.28553 11.7943 7.36848 11.7504C7.45372 11.7616 7.49754 11.743 7.57488 11.7504C7.62704 11.756 7.70206 11.8224 7.74343 11.8254C7.77819 11.8266 7.78537 11.782 7.81845 11.7876C7.85153 11.7932 7.90671 11.8614 7.91257 11.9005C7.91824 11.9496 7.87948 11.9964 7.89327 12.0505C7.94485 12.1028 8.04501 12.1327 8.11826 12.1634C8.16626 12.124 8.12598 12.0327 8.11826 11.9755C8.11707 11.9504 8.12189 11.9233 8.11826 11.9006C8.11258 11.8618 8.09942 11.822 8.09942 11.7878C8.09942 11.6318 8.21942 11.5681 8.32441 11.5069C8.36939 11.4805 8.41626 11.4326 8.45574 11.4128C8.51092 11.3859 8.54096 11.3827 8.58651 11.3571C8.66984 11.3102 8.74731 11.2606 8.8115 11.207C8.84155 11.1362 8.80787 11.0516 8.8115 10.982C8.84155 10.9631 8.85535 10.9858 8.88653 10.982C8.93698 10.9709 8.95247 10.898 8.98064 10.8692C8.99767 10.8524 9.05453 10.8482 9.07419 10.832C9.12465 10.7926 9.12465 10.7366 9.16772 10.7191C9.18271 10.7136 9.21874 10.708 9.24274 10.7002C9.27582 10.6909 9.32192 10.6624 9.37407 10.6437C9.4077 10.6325 9.49237 10.6381 9.50541 10.6247C9.52221 10.608 9.50177 10.5371 9.50541 10.5118C9.53111 10.3888 9.71362 10.3847 9.824 10.3438C9.90015 10.3136 9.98235 10.2519 10.0676 10.2681C10.0506 10.3268 9.97876 10.3101 9.99257 10.381C10.0114 10.4801 10.1264 10.357 10.1617 10.3432C10.2276 10.3151 10.3555 10.2999 10.4425 10.2683C10.5192 10.2413 10.6459 10.1878 10.5738 10.0996C10.5138 10.0959 10.4952 10.1532 10.4425 10.1746C10.4066 10.1802 10.3981 10.1578 10.3675 10.1556C10.338 10.1544 10.322 10.1796 10.2925 10.1746C10.263 10.169 10.2222 10.1158 10.2174 10.0811C10.2061 9.98921 10.3116 9.96114 10.3488 9.89322C10.3236 9.81048 10.2125 9.88763 10.1424 9.85603C10.1501 9.80695 10.1783 9.7534 10.2365 9.74318C10.3011 9.73919 10.3657 9.7522 10.4237 9.78092C10.4405 9.79393 10.4181 9.8326 10.4426 9.85603C10.4713 9.88113 10.5182 9.86162 10.5554 9.85603C10.5686 9.79375 10.4696 9.82126 10.4804 9.78092C10.5543 9.73295 10.6898 9.75507 10.7804 9.74318C10.8325 9.73573 10.8836 9.69335 10.9304 9.66825C10.9737 9.64315 11.0156 9.60819 11.0612 9.64929C11.0744 9.69428 11.03 9.72013 11.0054 9.74281C10.9213 9.81736 10.8458 9.90066 10.7804 9.98701C10.8207 10.0259 10.8812 9.99816 10.949 10.006C10.9755 10.0097 11.0149 10.0208 11.0425 10.0253C11.0756 10.0309 11.1104 10.0197 11.1366 10.0253C11.1822 10.0365 11.1846 10.1002 11.2302 10.1002C11.3041 10.1002 11.3099 10.038 11.2674 9.98739C11.2806 9.93645 11.3052 9.89257 11.2867 9.85668C11.2525 9.78882 11.1248 9.86783 11.1176 9.78176C11.1139 9.72709 11.1733 9.71036 11.1926 9.6689C11.1849 9.56441 11.2784 9.5579 11.2676 9.4631C11.2619 9.42368 11.2196 9.4248 11.1926 9.38817C11.1794 9.36828 11.1717 9.327 11.1554 9.31324C11.0983 9.26527 10.9934 9.2729 10.9862 9.18105C10.9826 9.12695 10.994 9.0905 10.9862 9.03101C10.9785 8.97579 10.922 8.81742 10.874 8.80661C10.8128 8.7936 10.778 8.90367 10.7055 8.93732C10.658 8.95666 10.6063 8.96333 10.5554 8.95667C10.529 8.95108 10.4834 8.93157 10.4804 8.88155C10.4768 8.85292 10.4861 8.84269 10.4992 8.82521C10.5029 8.82149 10.4956 8.81034 10.4992 8.80625C10.9872 8.66789 11.4927 8.59873 11.9999 8.60016ZM9.76839 9.08796C9.71567 9.25845 9.5614 9.35555 9.3562 9.35015C9.30575 9.39811 9.32671 9.48996 9.29971 9.55654C9.28609 9.58471 9.26477 9.60845 9.23821 9.625C9.21166 9.64155 9.18096 9.65024 9.14967 9.65006C9.10941 9.64634 9.03684 9.59428 9.03684 9.55654C9.03684 9.52531 9.06688 9.48998 9.07465 9.46246C9.29632 9.3206 9.52829 9.19573 9.76839 9.08796ZM14.3623 9.27522C14.3425 9.27807 14.3235 9.28449 14.306 9.29418C14.2641 9.31928 14.2622 9.35703 14.231 9.36911C14.186 9.38585 14.1248 9.38584 14.1181 9.42563C14.1125 9.45928 14.1571 9.47007 14.156 9.50056C14.1389 9.54091 14.108 9.545 14.0996 9.59408C14.1554 9.68463 14.2934 9.59529 14.3624 9.57512C14.3925 9.56583 14.4206 9.58071 14.4369 9.55616C14.4557 9.52604 14.4405 9.46617 14.4562 9.4249C14.4712 9.37935 14.518 9.39013 14.5119 9.34997C14.5083 9.30962 14.4302 9.26853 14.3623 9.27522ZM8.41805 9.96881C8.45831 10.0168 8.49194 10.0876 8.41805 10.1189C8.4067 10.1244 8.27596 10.1428 8.24948 10.1382C8.24176 10.137 8.23813 10.1252 8.23063 10.1189C8.28772 10.0631 8.35854 10.0224 8.41805 9.96881ZM8.56809 10.1566C8.59455 10.1579 8.61248 10.2107 8.64312 10.2124C8.67316 10.2161 8.71927 10.1884 8.73741 10.1935C8.78296 10.2046 8.79977 10.2905 8.75626 10.3242C8.72036 10.3279 8.70826 10.2808 8.68181 10.2864C8.60735 10.2994 8.58694 10.4411 8.53176 10.4365C8.47904 10.4309 8.44049 10.3247 8.49396 10.2864C8.49515 10.2541 8.47307 10.2444 8.47511 10.2113C8.49214 10.1909 8.52425 10.1531 8.56809 10.1566ZM8.32453 10.1938C8.33951 10.1938 8.33769 10.1882 8.34337 10.1938C8.33565 10.252 8.31333 10.2604 8.26835 10.2879C8.23008 10.3095 8.19688 10.339 8.171 10.3745C8.14512 10.41 8.12715 10.4507 8.11831 10.4937C8.11059 10.5238 8.02419 10.6136 7.98754 10.6065C7.90117 10.5876 8.02344 10.4253 8.04329 10.4002C8.06554 10.3726 8.09317 10.3557 8.11831 10.3252C8.14344 10.2951 8.1508 10.2304 8.1748 10.2124C8.20125 10.1934 8.2788 10.1923 8.32453 10.1938ZM15.7122 10.3439C15.798 10.3383 15.8413 10.4419 15.8802 10.4939C15.9133 10.5365 16.0146 10.596 16.0681 10.6252C16.0987 10.6419 16.1281 10.6661 16.1624 10.6817C16.1977 10.6966 16.2512 10.7176 16.2931 10.7566C16.3351 10.7949 16.367 10.8526 16.3682 10.8873C16.3694 10.9227 16.3442 10.9485 16.3493 10.9814C16.3871 10.987 16.4069 10.9491 16.4243 10.9063C16.5659 11.1079 16.6859 11.3233 16.7993 11.5435C16.7888 11.549 16.7798 11.557 16.7732 11.5669C16.7666 11.5768 16.7626 11.5882 16.7615 11.6C16.7502 11.6612 16.7974 11.7393 16.7058 11.7501C16.6476 11.7575 16.5792 11.6924 16.4993 11.6751C16.467 11.6677 16.413 11.6826 16.3865 11.6751C16.3266 11.6541 16.3446 11.5798 16.293 11.5439C16.247 11.5158 16.1961 11.4969 16.1429 11.4881C16.1134 11.4844 16.0985 11.4918 16.0679 11.4881C16.0307 11.4825 15.9672 11.4881 15.9371 11.4688C15.9071 11.4498 15.8321 11.4189 15.8243 11.3938C15.813 11.3535 15.9162 11.2968 15.9179 11.2631C15.9197 11.2367 15.8861 11.2272 15.8807 11.1874C15.877 11.1635 15.8863 11.1281 15.8807 11.1131C15.8729 11.0844 15.8315 11.0579 15.7865 11.0567C15.7476 11.0567 15.7085 11.0757 15.6743 11.0757C15.6263 11.0769 15.5278 11.0517 15.4679 11.0567C15.432 11.0605 15.408 11.0735 15.3743 11.0757C15.2795 11.0831 15.2237 11.0701 15.1493 11.0757C15.0953 11.0794 14.9934 11.1094 14.9429 11.132C14.9178 11.1432 14.901 11.1716 14.8679 11.1878C14.8529 11.1953 14.832 11.1971 14.8122 11.2072C14.7815 11.2202 14.7288 11.2551 14.6993 11.2629C14.6574 11.2741 14.6081 11.2592 14.5308 11.2629C14.475 11.2667 14.3821 11.2555 14.3807 11.1886C14.3796 11.0865 14.5661 11.1309 14.6616 11.1129C14.6975 11.1054 14.712 11.0631 14.7557 11.0385C14.7761 11.0274 14.7916 11.014 14.8114 11.0008C14.8445 10.9779 14.9003 10.9329 14.9056 10.9073C14.9092 10.8833 14.8835 10.8496 14.8863 10.8323C14.8899 10.8095 14.9318 10.7868 14.9618 10.7574C15.0074 10.7111 15.0363 10.6553 15.0926 10.6261C15.131 10.6051 15.2066 10.6005 15.2239 10.5698C15.2276 10.535 15.2227 10.5265 15.2239 10.4949C15.2479 10.4733 15.241 10.4618 15.2617 10.4577C15.3205 10.4447 15.38 10.4798 15.449 10.4767C15.479 10.4755 15.5114 10.4785 15.5426 10.4577C15.569 10.4387 15.5917 10.4144 15.6176 10.4014C15.6463 10.3865 15.6769 10.3463 15.7122 10.3439ZM8.83019 10.4004C8.84518 10.3985 8.86913 10.4022 8.88728 10.4004C8.91184 10.3992 8.93528 10.4004 8.9623 10.4004C8.98932 10.4004 9.02599 10.3892 9.03732 10.4004C9.01847 10.4723 8.85006 10.4454 8.79311 10.4194C8.79491 10.4063 8.81582 10.4026 8.83019 10.4004ZM8.62441 10.5317C8.64325 10.5317 8.66108 10.5242 8.6809 10.5317C8.63045 10.5737 8.56146 10.5977 8.47448 10.6252C8.43254 10.6382 8.36941 10.6521 8.36165 10.6062C8.35393 10.5491 8.4 10.5553 8.43667 10.5499C8.48467 10.5443 8.56866 10.5317 8.62441 10.5317ZM15.7308 10.5317C15.6949 10.5428 15.6767 10.6157 15.7308 10.6252C15.7559 10.6103 15.7559 10.5772 15.7496 10.5317C15.7346 10.5168 15.7419 10.5279 15.7308 10.5317ZM15.7115 10.6817C15.6944 10.6873 15.6743 10.6805 15.6557 10.7007C15.657 10.7618 15.6671 10.7966 15.6557 10.8507C15.6905 10.9186 15.7697 10.8777 15.7865 10.8317C15.8076 10.7178 15.7637 10.6674 15.7115 10.6817ZM16.1807 10.9817C16.1397 10.9793 16.0994 10.9926 16.0678 11.0189C16.1086 11.0849 16.1837 11.097 16.2742 11.113C16.3067 11.089 16.2965 11.023 16.312 10.981C16.2726 10.981 16.2472 10.9847 16.1992 10.981L16.1807 10.9817ZM6.65564 13.2873C6.69399 13.3364 6.73539 13.3935 6.78641 13.4195C6.814 13.4324 6.84576 13.4306 6.88052 13.4386C6.90868 13.4442 6.92853 13.4681 6.95555 13.4763C7.01317 13.4963 7.0971 13.4931 7.1428 13.514C7.21292 13.5442 7.25145 13.6663 7.31194 13.7013C7.31558 13.7361 7.30059 13.7692 7.31194 13.7948C7.3401 13.8331 7.39718 13.8445 7.44271 13.8698C7.49845 13.9004 7.52188 13.9771 7.57404 14.001C7.59289 14.0085 7.62091 13.9935 7.64906 14.001C7.72106 14.0226 7.73675 14.1317 7.7991 14.1139C7.83936 14.1028 7.84881 14.0401 7.85541 14.001C7.88244 13.9709 7.90644 13.9261 7.94896 13.9261C8.01681 13.9249 8.03666 14.0101 8.06179 14.0761C8.07496 14.1133 8.10809 14.1492 8.11753 14.189C8.13287 14.2884 8.13287 14.3896 8.11753 14.489C8.10073 14.5388 8.0276 14.5652 7.98677 14.6197C7.96702 14.6461 7.94538 14.6773 7.93046 14.6946C7.90401 14.7277 7.87528 14.7402 7.85544 14.7695C7.84408 14.7863 7.8459 14.8218 7.83614 14.8445C7.80383 14.9147 7.75281 14.967 7.78039 15.0509C7.79175 15.0845 7.83614 15.1228 7.83614 15.1637C7.83614 15.2117 7.73182 15.2236 7.7239 15.276C7.71822 15.3143 7.76829 15.3935 7.78039 15.4447C7.78811 15.483 7.85126 15.5136 7.87392 15.5389C7.91227 15.5809 7.95196 15.6343 7.98675 15.689C8.05514 15.7946 8.08747 15.9229 8.15475 16.0262C8.19065 16.0803 8.26285 16.1191 8.28686 16.1762C8.29821 16.2043 8.2755 16.2625 8.28686 16.2891C8.3258 16.3774 8.51664 16.4703 8.60483 16.5135C8.64677 16.5346 8.67985 16.5482 8.71766 16.5698C8.77588 16.6029 8.89475 16.6689 8.92408 16.7198C8.95054 16.766 8.96736 16.8716 8.98039 16.9449C8.9972 17.0408 8.97676 17.1224 8.98039 17.2263C8.98403 17.2826 8.99924 17.3192 8.99924 17.3763C8.99924 17.3961 9.00045 17.4315 8.99924 17.4512C8.99805 17.5191 9.00492 17.5892 8.99924 17.6576C8.99655 17.695 8.99655 17.7326 8.99924 17.7699C9.00287 17.8042 9.03459 17.8155 9.03705 17.8449C9.03891 17.8767 8.99565 17.9139 8.99924 17.9391C9.00696 18.0075 9.07976 18.0633 9.09279 18.1264C9.10414 18.1768 9.11793 18.2913 9.11209 18.3514C9.10641 18.3832 9.0971 18.4295 9.09279 18.4643C9.08916 18.4912 9.09642 18.5141 9.09279 18.5386C7.5982 17.5786 6.59942 15.9108 6.59942 14.0012C6.59942 13.7564 6.6239 13.5237 6.65564 13.2873ZM8.71775 13.8315C8.77047 13.8075 8.76028 13.8999 8.71775 13.9064C8.67749 13.9121 8.67881 13.8499 8.71775 13.8315Z" fill="#FAFAFA"/>
<defs>
<linearGradient id="paint0_linear_211_25" x1="23" y1="0.999999" x2="1" y2="12" gradientUnits="userSpaceOnUse">
<stop stop-color="#E3C880"/>
<stop offset="1" stop-color="#6F5C38"/>
</linearGradient>
<linearGradient id="paint1_linear_211_25" x1="23" y1="9" x2="1.01236" y2="9.52141" gradientUnits="userSpaceOnUse">
<stop stop-opacity="0.5"/>
<stop offset="1"/>
</linearGradient>
<linearGradient id="paint2_linear_211_25" x1="23" y1="5.4" x2="1.42949" y2="23.5115" gradientUnits="userSpaceOnUse">
<stop stop-color="#FFE795"/>
<stop offset="1" stop-color="#7A653E"/>
</linearGradient>
</defs>
</svg>
