<svg width="24" height="24" viewBox="0 0 24 24" fill="none" xmlns="http://www.w3.org/2000/svg">
<rect opacity="0.8125" x="1" y="1" width="22" height="22" rx="6.6" fill="url(#paint0_linear_207_44)"/>
<rect opacity="0.625" x="3" y="2.25" width="18" height="18" rx="4.4" fill="#777777" fill-opacity="0.875"/>
<rect x="3" y="3" width="18" height="18" rx="4.4" fill="#CCCCCC"/>
<path opacity="0.125" d="M1 7.50781C1 5.84664 2.34664 4.5 4.00781 4.5H8.19048C9.265 4.5 10.3068 4.86994 11.1406 5.54762C11.9745 6.2253 13.0162 6.59524 14.0908 6.59524H19.9922C21.6534 6.59524 23 7.94188 23 9.60305V15.5C23 19.1451 20.0451 22.1 16.4 22.1H7.6C3.95492 22.1 1 19.1451 1 15.5V7.50781Z" fill="url(#paint1_linear_207_44)" fill-opacity="0.875"/>
<path opacity="0.875" d="M1 8.40781C1 6.74664 2.34664 5.39999 4.00781 5.39999H8.19048C9.265 5.39999 10.3068 5.76993 11.1406 6.44761C11.9745 7.1253 13.0162 7.49523 14.0908 7.49523H19.9922C21.6534 7.49523 23 8.84188 23 10.503V16.4C23 20.0451 20.0451 23 16.4 23H7.6C3.95492 23 1 20.0451 1 16.4V8.40781Z" fill="url(#paint2_linear_207_44)"/>
<path opacity="0.125" fill-rule="evenodd" clip-rule="evenodd" d="M11.723 9.21612L14.5814 8.682C14.9699 8.60939 15.3289 8.90754 15.3289 9.30283V11.1899C15.3289 11.4937 15.1127 11.7544 14.8142 11.8106L12.3391 12.2763C12.0503 12.3294 11.999 12.3825 11.999 12.6773V18.0724C11.999 19.806 10.5612 20.4605 9.61131 20.4605C8.52661 20.4605 7.75 19.8119 7.75 18.892C7.75 17.9899 8.35973 17.3708 9.66909 17.1231L10.6896 16.9227C10.9528 16.8755 11.0876 16.6986 11.0876 16.4274L11.049 9.87062C11.049 9.51683 11.2865 9.30457 11.723 9.21612Z" fill="black" fill-opacity="0.875"/>
<path fill-rule="evenodd" clip-rule="evenodd" d="M12.144 8.79505L15.0024 8.26094C15.391 8.18833 15.75 8.48647 15.75 8.88177V10.7688C15.75 11.0726 15.5338 11.3333 15.2352 11.3895L12.7602 11.8553C12.4714 11.9083 12.42 11.9614 12.42 12.2562V17.6514C12.42 19.3849 10.9823 20.0394 10.0324 20.0394C8.94768 20.0394 8.17106 19.3908 8.17106 18.471C8.17106 17.5688 8.78079 16.9497 10.0902 16.7021L11.1107 16.5016C11.3738 16.4544 11.5086 16.2775 11.5086 16.0063L11.4701 9.44956C11.4701 9.09576 11.7076 8.88351 12.144 8.79505Z" fill="url(#paint3_linear_207_44)"/>
<defs>
<linearGradient id="paint0_linear_207_44" x1="23" y1="0.999999" x2="1" y2="12" gradientUnits="userSpaceOnUse">
<stop stop-color="#E3C880"/>
<stop offset="1" stop-color="#6F5C38"/>
</linearGradient>
<linearGradient id="paint1_linear_207_44" x1="23" y1="9" x2="1.01236" y2="9.52141" gradientUnits="userSpaceOnUse">
<stop stop-opacity="0.5"/>
<stop offset="1"/>
</linearGradient>
<linearGradient id="paint2_linear_207_44" x1="23" y1="5.39999" x2="1.42949" y2="23.5115" gradientUnits="userSpaceOnUse">
<stop stop-color="#FFE795"/>
<stop offset="1" stop-color="#7A653E"/>
</linearGradient>
<linearGradient id="paint3_linear_207_44" x1="18.4392" y1="7.85735" x2="9.38793" y2="20.8646" gradientUnits="userSpaceOnUse">
<stop stop-color="#E996B1"/>
<stop offset="1" stop-color="#BC546F"/>
</linearGradient>
</defs>
</svg>
