<svg width="20" height="20" viewBox="0 0 20 20" fill="none" xmlns="http://www.w3.org/2000/svg">
<rect width="20" height="20" rx="5.07812" fill="url(#paint0_linear_11_107)"/>
<rect x="2.1875" y="2.1875" width="15.625" height="15.625" rx="3.51562" fill="#F9F9F9"/>
<path d="M0 6.32813C0 4.81797 1.22422 3.59375 2.73437 3.59375H6.52144C7.50709 3.59375 8.46155 3.93931 9.21875 4.57031V4.57031C9.97595 5.20131 10.9304 5.54688 11.9161 5.54688H17.2656C18.7758 5.54688 20 6.7711 20 8.28125V14.9219C20 17.7264 17.7264 20 14.9219 20H5.07812C2.27355 20 0 17.7264 0 14.9219V6.32813Z" fill="url(#paint1_linear_11_107)" fill-opacity="0.9"/>
<path d="M13.8437 13.8252L12.3352 10.2973C12.0605 9.65153 11.6509 9.28525 11.1834 9.26116C10.7207 9.23706 10.2725 9.55996 9.93032 10.1769L9.01463 11.8203C8.82185 12.1673 8.54714 12.3745 8.24833 12.3986C7.94469 12.4276 7.64107 12.2685 7.39527 11.9552L7.28924 11.8203C6.94706 11.3914 6.52295 11.1841 6.0892 11.2275C5.65545 11.2709 5.28435 11.5697 5.03856 12.0565L4.20479 13.7192C3.90598 14.3216 3.9349 15.0204 4.28672 15.5891C4.63854 16.1578 5.25061 16.5 5.92052 16.5H12.0702C12.716 16.5 13.3184 16.1771 13.675 15.6373C14.0413 15.0975 14.0992 14.418 13.8437 13.8252Z" fill="url(#paint2_linear_11_107)" fill-opacity="0.5"/>
<path d="M6.59099 9.75795C7.49065 9.75795 8.21995 9.02864 8.21995 8.12898C8.21995 7.22932 7.49065 6.5 6.59099 6.5C5.69133 6.5 4.96201 7.22932 4.96201 8.12898C4.96201 9.02864 5.69133 9.75795 6.59099 9.75795Z" fill="url(#paint3_linear_11_107)" fill-opacity="0.5"/>
<path d="M14.8437 13.3252L13.3352 9.79734C13.0605 9.15153 12.6509 8.78525 12.1834 8.76116C11.7207 8.73706 11.2725 9.05996 10.9303 9.67685L10.0146 11.3203C9.82185 11.6673 9.54714 11.8745 9.24833 11.8986C8.94469 11.9276 8.64107 11.7685 8.39527 11.4552L8.28924 11.3203C7.94706 10.8914 7.52295 10.6841 7.0892 10.7275C6.65545 10.7709 6.28435 11.0697 6.03856 11.5565L5.20479 13.2192C4.90598 13.8216 4.9349 14.5204 5.28672 15.0891C5.63854 15.6578 6.25061 16 6.92052 16H13.0702C13.716 16 14.3184 15.6771 14.675 15.1373C15.0413 14.5975 15.0992 13.918 14.8437 13.3252Z" fill="url(#paint4_linear_11_107)"/>
<path d="M7.59099 9.25795C8.49065 9.25795 9.21995 8.52864 9.21995 7.62898C9.21995 6.72932 8.49065 6 7.59099 6C6.69133 6 5.96201 6.72932 5.96201 7.62898C5.96201 8.52864 6.69133 9.25795 7.59099 9.25795Z" fill="url(#paint5_linear_11_107)"/>
<defs>
<linearGradient id="paint0_linear_11_107" x1="20" y1="-5.96046e-07" x2="0" y2="10" gradientUnits="userSpaceOnUse">
<stop stop-color="#E3C880"/>
<stop offset="1" stop-color="#6F5C38"/>
</linearGradient>
<linearGradient id="paint1_linear_11_107" x1="18.8281" y1="6.05469" x2="1.36719" y2="18.5156" gradientUnits="userSpaceOnUse">
<stop stop-color="#FFE795"/>
<stop offset="1" stop-color="#7A653E"/>
</linearGradient>
<linearGradient id="paint2_linear_11_107" x1="3" y1="16.862" x2="12.1704" y2="5.17018" gradientUnits="userSpaceOnUse">
<stop stop-color="#54452A" stop-opacity="0.35"/>
<stop offset="1" stop-color="#54452A" stop-opacity="0"/>
</linearGradient>
<linearGradient id="paint3_linear_11_107" x1="4.63622" y1="9.92085" x2="8.87155" y2="6.01144" gradientUnits="userSpaceOnUse">
<stop stop-color="#54452A" stop-opacity="0.35"/>
<stop offset="1" stop-color="#54452A" stop-opacity="0"/>
</linearGradient>
<linearGradient id="paint4_linear_11_107" x1="16" y1="8.03589" x2="7.74606" y2="19.4362" gradientUnits="userSpaceOnUse">
<stop stop-color="#3C9BCE"/>
<stop offset="1" stop-color="#00405F"/>
</linearGradient>
<linearGradient id="paint5_linear_11_107" x1="9.54565" y1="5.6742" x2="5.6361" y2="9.58363" gradientUnits="userSpaceOnUse">
<stop stop-color="#3C9BCE"/>
<stop offset="1" stop-color="#00405F"/>
</linearGradient>
</defs>
</svg>
