<svg width="24" height="24" viewBox="0 0 24 24" fill="none" xmlns="http://www.w3.org/2000/svg">
<rect opacity="0.875" x="1" y="1" width="22" height="22" rx="6.6" fill="url(#paint0_linear_207_95)"/>
<rect opacity="0.75" x="3" y="2.5" width="18" height="18" rx="4.4" fill="#CCCCCC" fill-opacity="0.875"/>
<rect x="3" y="3" width="18" height="18" rx="4.4" fill="#E6E6E6"/>
<path opacity="0.125" d="M1 7.50781C1 5.84664 2.34664 4.5 4.00781 4.5H8.19048C9.265 4.5 10.3068 4.86994 11.1406 5.54762V5.54762C11.9745 6.2253 13.0162 6.59524 14.0908 6.59524H19.9922C21.6534 6.59524 23 7.94188 23 9.60305V15.5C23 19.1451 20.0451 22.1 16.4 22.1H7.6C3.95492 22.1 1 19.1451 1 15.5V7.50781Z" fill="url(#paint1_linear_207_95)" fill-opacity="0.5"/>
<path opacity="0.875" d="M1 8.40781C1 6.74664 2.34664 5.4 4.00781 5.4H8.19048C9.265 5.4 10.3068 5.76994 11.1406 6.44762V6.44762C11.9745 7.1253 13.0162 7.49524 14.0908 7.49524H19.9922C21.6534 7.49524 23 8.84188 23 10.5031V16.4C23 20.0451 20.0451 23 16.4 23H7.6C3.95492 23 1 20.0451 1 16.4V8.40781Z" fill="url(#paint2_linear_207_95)"/>
<g opacity="0.5">
<path d="M13.093 9.50195C12.8629 9.27761 12.5542 9.15205 12.2329 9.15205H8.40682C8.1199 9.15205 7.84474 9.26318 7.64186 9.461C7.43898 9.65881 7.325 9.9271 7.325 10.2068V18.6452C7.325 18.925 7.43898 19.1932 7.64186 19.3911C7.84474 19.5889 8.1199 19.7 8.40682 19.7H14.8977C15.1846 19.7 15.4598 19.5889 15.6627 19.3911C15.8656 19.1932 15.9795 18.925 15.9795 18.6452V12.8359C15.9795 12.5038 15.8454 12.1857 15.6076 11.9538L13.093 9.50195Z" fill="url(#paint3_linear_207_95)"/>
<path d="M13.6556 14.9144H9.64891" stroke="#FAFAFA" stroke-width="1.14074" stroke-linecap="round" stroke-linejoin="round"/>
<path d="M13.6556 16.8677H9.64891" stroke="#FAFAFA" stroke-width="1.14074" stroke-linecap="round" stroke-linejoin="round"/>
<path d="M10.6506 12.961H10.1497H9.64891" fill="white"/>
<path d="M10.6506 12.961H10.1497H9.64891" stroke="#FAFAFA" stroke-width="1.14074" stroke-linecap="round" stroke-linejoin="round"/>
</g>
<path d="M13.7884 9.0499C13.5583 8.82556 13.2497 8.7 12.9283 8.7H9.10227C8.81536 8.7 8.54019 8.81113 8.33731 9.00894C8.13443 9.20675 8.02045 9.47505 8.02045 9.75479V18.1932C8.02045 18.4729 8.13443 18.7412 8.33731 18.939C8.54019 19.1368 8.81536 19.2479 9.10227 19.2479H15.5932C15.8801 19.2479 16.1553 19.1368 16.3581 18.939C16.561 18.7412 16.675 18.4729 16.675 18.1932V12.3838C16.675 12.0517 16.5409 11.7336 16.3031 11.5017L13.7884 9.0499Z" fill="url(#paint4_linear_207_95)"/>
<path d="M14.3511 14.4623H10.3444" stroke="#FAFAFA" stroke-width="1.14074" stroke-linecap="round" stroke-linejoin="round"/>
<path d="M14.3511 16.4156H10.3444" stroke="#FAFAFA" stroke-width="1.14074" stroke-linecap="round" stroke-linejoin="round"/>
<path d="M11.346 12.509H10.8452H10.3444" fill="white"/>
<path d="M11.346 12.509H10.8452H10.3444" stroke="#FAFAFA" stroke-width="1.14074" stroke-linecap="round" stroke-linejoin="round"/>
<defs>
<linearGradient id="paint0_linear_207_95" x1="23" y1="0.999999" x2="1" y2="12" gradientUnits="userSpaceOnUse">
<stop stop-color="#FFE0AE"/>
<stop offset="1" stop-color="#F3CE7D"/>
</linearGradient>
<linearGradient id="paint1_linear_207_95" x1="23" y1="9" x2="1.01236" y2="9.52141" gradientUnits="userSpaceOnUse">
<stop stop-opacity="0.5"/>
<stop offset="1"/>
</linearGradient>
<linearGradient id="paint2_linear_207_95" x1="23" y1="5.4" x2="1.42949" y2="23.5115" gradientUnits="userSpaceOnUse">
<stop stop-color="#FFEEB4"/>
<stop offset="1" stop-color="#FFDD73"/>
</linearGradient>
<linearGradient id="paint3_linear_207_95" x1="15.9795" y1="9.15205" x2="7.59046" y2="19.9071" gradientUnits="userSpaceOnUse">
<stop stop-color="#6F5C38" stop-opacity="0"/>
<stop offset="1" stop-color="#6F5C38" stop-opacity="0.45"/>
</linearGradient>
<linearGradient id="paint4_linear_207_95" x1="16.675" y1="8.7" x2="8.28592" y2="19.455" gradientUnits="userSpaceOnUse">
<stop stop-color="#0BB1CB"/>
<stop offset="1" stop-color="#006599"/>
</linearGradient>
</defs>
</svg>
