<svg width="256" height="256" viewBox="0 0 256 256" fill="none" xmlns="http://www.w3.org/2000/svg">
<rect width="256" height="256" rx="65" fill="url(#paint0_linear_1_6)"/>
<rect x="28" y="28" width="200" height="200" rx="45" fill="#F9F9F9"/>
<path d="M0 81C0 61.67 15.67 46 35 46H83.4744C96.0907 46 108.308 50.4232 118 58.5V58.5C127.692 66.5768 139.909 71 152.526 71H221C240.33 71 256 86.67 256 106V191C256 226.899 226.899 256 191 256H65C29.1015 256 0 226.899 0 191V81Z" fill="url(#paint1_linear_1_6)"/>
<path d="M163.184 177.822C163.184 189.547 153.679 199.052 141.954 199.052H75.2302C63.5051 199.052 54 189.547 54 177.822V123.23C54 111.505 63.5051 102 75.2302 102H141.954C153.679 102 163.184 111.505 163.184 123.23V177.822ZM192.635 111.074C197.891 111.074 202.186 115.188 202.476 120.372L202.492 120.931V180.556C202.492 182.877 201.673 185.123 200.179 186.9C196.806 190.912 190.915 191.559 186.763 188.473L186.292 188.1L169.25 173.77V127.94L186.233 113.436C187.84 112.064 189.839 111.249 191.934 111.099L192.635 111.074Z" fill="url(#paint2_linear_1_6)"/>
<defs>
<linearGradient id="paint0_linear_1_6" x1="256" y1="-7.62939e-06" x2="0" y2="128" gradientUnits="userSpaceOnUse">
<stop stop-color="#187FB4"/>
<stop offset="1" stop-color="#00405F"/>
</linearGradient>
<linearGradient id="paint1_linear_1_6" x1="241" y1="77.5" x2="17.5" y2="237" gradientUnits="userSpaceOnUse">
<stop stop-color="#3C9BCE"/>
<stop offset="1" stop-color="#00405F"/>
</linearGradient>
<linearGradient id="paint2_linear_1_6" x1="180.5" y1="85" x2="73.5" y2="208.5" gradientUnits="userSpaceOnUse">
<stop stop-color="#FAFAFA"/>
<stop offset="1" stop-color="#6C6C6C"/>
</linearGradient>
</defs>
</svg>
