<svg width="24" height="24" viewBox="0 0 24 24" fill="none" xmlns="http://www.w3.org/2000/svg">
<rect opacity="0.8125" x="1" y="1" width="22" height="22" rx="6.6" fill="url(#paint0_linear_211_10)"/>
<rect opacity="0.125" x="3" y="2.25" width="18" height="18" rx="4.4" fill="url(#paint1_linear_211_10)" fill-opacity="0.875"/>
<rect x="3.25" y="3.25" width="17.5" height="17.5" rx="4.15" fill="#CCCCCC" stroke="url(#paint2_linear_211_10)" stroke-width="0.5"/>
<path opacity="0.125" d="M1 7.50781C1 5.84664 2.34664 4.5 4.00781 4.5H8.19048C9.265 4.5 10.3068 4.86994 11.1406 5.54762V5.54762C11.9745 6.2253 13.0162 6.59524 14.0908 6.59524H19.9922C21.6534 6.59524 23 7.94188 23 9.60305V15.5C23 19.1451 20.0451 22.1 16.4 22.1H7.6C3.95492 22.1 1 19.1451 1 15.5V7.50781Z" fill="url(#paint3_linear_211_10)" fill-opacity="0.875"/>
<g opacity="0.875">
<path d="M1 8.40781C1 6.74664 2.34664 5.4 4.00781 5.4H8.19048C9.265 5.4 10.3068 5.76994 11.1406 6.44762V6.44762C11.9745 7.1253 13.0162 7.49524 14.0908 7.49524H19.9922C21.6534 7.49524 23 8.84188 23 10.5031V16.4C23 20.0451 20.0451 23 16.4 23H7.6C3.95492 23 1 20.0451 1 16.4V8.40781Z" fill="url(#paint4_linear_211_10)"/>
<path d="M22.625 10.5031V16.4C22.625 19.838 19.838 22.625 16.4 22.625H7.6C4.16203 22.625 1.375 19.838 1.375 16.4V8.40781C1.375 6.95375 2.55375 5.775 4.00781 5.775H8.19048C9.17886 5.775 10.1371 6.11528 10.9041 6.73863C11.8048 7.47064 12.9301 7.87024 14.0908 7.87024H19.9922C21.4462 7.87024 22.625 9.04899 22.625 10.5031Z" stroke="url(#paint5_linear_211_10)" stroke-opacity="0.375" stroke-width="0.75" stroke-linejoin="round"/>
</g>
<path d="M11.5764 8.50004C11.2347 8.50003 10.907 8.62616 10.6659 8.85031C10.4248 9.07445 10.29 9.37781 10.2916 9.69406C10.2815 10.347 9.70693 10.8712 9.00123 10.8712C8.78376 10.8691 8.57051 10.8137 8.38346 10.711C7.76602 10.3836 6.97833 10.5805 6.62307 11.1511L6.17277 11.8373C5.81792 12.4071 6.02698 13.1356 6.64137 13.4662C7.04071 13.6795 7.28727 14.0734 7.28727 14.5C7.28727 14.9267 7.04071 15.3205 6.64137 15.5339C6.02779 15.8623 5.81849 16.5895 6.17277 17.1576L6.59774 17.8373C6.76421 18.1152 7.0442 18.3207 7.37452 18.4076C7.70483 18.4945 8.05859 18.4549 8.35814 18.2995C8.65259 18.1405 9.00395 18.0968 9.33332 18.1784C9.66268 18.2599 9.94359 18.4606 10.1129 18.7344C10.2239 18.9075 10.2823 19.1047 10.2846 19.306C10.2846 19.9656 10.8635 20.5 11.5764 20.5H12.4221C13.1325 20.5 13.7091 19.9686 13.7125 19.3112C13.7108 18.994 13.8458 18.6891 14.0882 18.4648C14.3306 18.2405 14.66 18.1156 15.0028 18.1172C15.2198 18.1227 15.4322 18.1776 15.6206 18.2773C16.2365 18.6057 17.0237 18.4109 17.381 17.8424L17.8257 17.1576C17.9978 16.8842 18.0446 16.5583 17.9565 16.2526C17.8684 15.947 17.652 15.6864 17.3557 15.5286C17.0593 15.3709 16.8443 15.1103 16.7562 14.8047C16.6681 14.499 16.715 14.1731 16.8871 13.8997C16.999 13.719 17.1603 13.5697 17.3557 13.4661C17.9663 13.1356 18.1764 12.411 17.8257 11.8425V11.8372L17.4049 11.1627C17.0496 10.5922 16.2635 10.3953 15.646 10.7227C15.3521 10.8829 15.001 10.9283 14.6708 10.849C14.3406 10.7696 14.0582 10.5718 13.8856 10.2995C13.7746 10.1264 13.7148 9.9304 13.7125 9.72917C13.7226 9.40652 13.5912 9.09342 13.348 8.86198C13.1049 8.63054 12.7709 8.49987 12.4221 8.5L11.5764 8.50004ZM11.9634 12.5001C11.9756 12.5 11.9878 12.5 12 12.5001C12.5732 12.5001 13.123 12.7108 13.5283 13.0859C13.9337 13.461 14.1614 13.9697 14.1614 14.5001C14.1614 14.7627 14.1055 15.0228 13.9969 15.2655C13.8882 15.5081 13.729 15.7286 13.5283 15.9143C13.3276 16.1 13.0894 16.2474 12.8271 16.3479C12.5649 16.4484 12.2838 16.5001 12 16.5001C11.7161 16.5001 11.4351 16.4484 11.1728 16.3479C10.9106 16.2474 10.6723 16.1 10.4716 15.9143C10.2709 15.7286 10.1117 15.5081 10.0031 15.2655C9.89444 15.0228 9.83853 14.7627 9.83854 14.5001C9.83845 13.9755 10.0612 13.4718 10.4586 13.0977C10.8561 12.7236 11.3965 12.509 11.9634 12.5001Z" fill="url(#paint6_linear_211_10)"/>
<defs>
<linearGradient id="paint0_linear_211_10" x1="23" y1="0.999999" x2="1" y2="12" gradientUnits="userSpaceOnUse">
<stop stop-color="#E3C880"/>
<stop offset="1" stop-color="#6F5C38"/>
</linearGradient>
<linearGradient id="paint1_linear_211_10" x1="21" y1="4" x2="3" y2="4" gradientUnits="userSpaceOnUse">
<stop stop-opacity="0.5"/>
<stop offset="0.890123"/>
<stop offset="1" stop-opacity="0"/>
</linearGradient>
<linearGradient id="paint2_linear_211_10" x1="12" y1="3" x2="11.5" y2="8" gradientUnits="userSpaceOnUse">
<stop stop-color="#DDDDDD"/>
<stop offset="1" stop-color="#CCCCCC" stop-opacity="0"/>
</linearGradient>
<linearGradient id="paint3_linear_211_10" x1="23" y1="9" x2="1.01236" y2="9.52141" gradientUnits="userSpaceOnUse">
<stop stop-opacity="0.5"/>
<stop offset="1"/>
</linearGradient>
<linearGradient id="paint4_linear_211_10" x1="23" y1="5.4" x2="1.42949" y2="23.5115" gradientUnits="userSpaceOnUse">
<stop stop-color="#FFE795"/>
<stop offset="1" stop-color="#7A653E"/>
</linearGradient>
<linearGradient id="paint5_linear_211_10" x1="15" y1="5.5" x2="5.5" y2="19.5" gradientUnits="userSpaceOnUse">
<stop stop-color="#FFE795"/>
<stop offset="1" stop-color="#7A653E"/>
</linearGradient>
<linearGradient id="paint6_linear_211_10" x1="18" y1="9" x2="6" y2="21" gradientUnits="userSpaceOnUse">
<stop stop-color="#999999"/>
<stop offset="1" stop-color="#333333"/>
</linearGradient>
</defs>
</svg>
