<svg width="24" height="24" viewBox="0 0 24 24" fill="none" xmlns="http://www.w3.org/2000/svg">
<rect opacity="0.8125" x="1" y="1" width="22" height="22" rx="6.6" fill="url(#paint0_linear_202_43)"/>
<rect opacity="0.625" x="3" y="2.25" width="18" height="18" rx="4.4" fill="#777777" fill-opacity="0.875"/>
<rect x="3" y="3" width="18" height="18" rx="4.4" fill="#CCCCCC"/>
<path opacity="0.125" d="M1 7.50781C1 5.84664 2.34664 4.5 4.00781 4.5H8.19048C9.265 4.5 10.3068 4.86994 11.1406 5.54762V5.54762C11.9745 6.2253 13.0162 6.59524 14.0908 6.59524H19.9922C21.6534 6.59524 23 7.94188 23 9.60305V15.5C23 19.1451 20.0451 22.1 16.4 22.1H7.6C3.95492 22.1 1 19.1451 1 15.5V7.50781Z" fill="url(#paint1_linear_202_43)" fill-opacity="0.875"/>
<path opacity="0.875" d="M1 8.40781C1 6.74664 2.34664 5.4 4.00781 5.4H8.19048C9.265 5.4 10.3068 5.76994 11.1406 6.44762V6.44762C11.9745 7.1253 13.0162 7.49524 14.0908 7.49524H19.9922C21.6534 7.49524 23 8.84188 23 10.5031V16.4C23 20.0451 20.0451 23 16.4 23H7.6C3.95492 23 1 20.0451 1 16.4V8.40781Z" fill="url(#paint2_linear_202_43)"/>
<path d="M15.4736 15.866C15.4736 16.8736 14.6568 17.6904 13.6491 17.6904H7.91509C6.90747 17.6904 6.09062 16.8736 6.09062 15.866V11.1745C6.09062 10.1668 6.90747 9.35 7.91509 9.35H13.6491C14.6568 9.35 15.4736 10.1668 15.4736 11.1745V15.866ZM18.0046 10.1298C18.4563 10.1298 18.8254 10.4834 18.8503 10.9288L18.8517 10.9769V16.1009C18.8517 16.3004 18.7813 16.4934 18.6529 16.6461C18.363 16.9909 17.8568 17.0465 17.4999 16.7813L17.4594 16.7493L16.3012 15.7753C16.107 15.612 15.9949 15.3713 15.9949 15.1176V11.9754C15.9949 11.724 16.105 11.4852 16.2962 11.3219L17.4544 10.3328C17.5925 10.2149 17.7643 10.1448 17.9443 10.132L18.0046 10.1298Z" fill="url(#paint3_linear_202_43)"/>
<path fill-rule="evenodd" clip-rule="evenodd" d="M15.0742 17.0053C15.3242 16.6931 15.4736 16.297 15.4736 15.866V12.0139L16.1138 11.4672C16.151 11.4354 16.1906 11.4071 16.2322 11.3825C16.0807 11.5415 15.9949 11.7535 15.9949 11.9754V15.1176C15.9949 15.3713 16.107 15.612 16.3012 15.7753L17.4594 16.7493L17.4999 16.7813C17.5036 16.784 17.5073 16.7867 17.511 16.7894V17.2353C17.511 17.4347 17.4407 17.6278 17.3123 17.7804C17.0224 18.1253 16.5161 18.1809 16.1593 17.9157L16.1188 17.8836L15.0742 17.0053ZM14.0123 17.6543C13.7494 18.3389 13.0857 18.8248 12.3085 18.8248H6.57447C5.56684 18.8248 4.75 18.008 4.75 17.0003V12.3088C4.75 11.4256 5.37768 10.6889 6.21132 10.5205C6.13335 10.7235 6.09062 10.944 6.09062 11.1745V15.866C6.09062 16.8736 6.90747 17.6904 7.91509 17.6904H13.6491C13.7735 17.6904 13.8949 17.678 14.0123 17.6543Z" fill="url(#paint4_linear_202_43)" fill-opacity="0.5"/>
<defs>
<linearGradient id="paint0_linear_202_43" x1="23" y1="0.999999" x2="1" y2="12" gradientUnits="userSpaceOnUse">
<stop stop-color="#E3C880"/>
<stop offset="1" stop-color="#6F5C38"/>
</linearGradient>
<linearGradient id="paint1_linear_202_43" x1="23" y1="9" x2="1.01236" y2="9.52141" gradientUnits="userSpaceOnUse">
<stop stop-opacity="0.5"/>
<stop offset="1"/>
</linearGradient>
<linearGradient id="paint2_linear_202_43" x1="23" y1="5.4" x2="1.42949" y2="23.5115" gradientUnits="userSpaceOnUse">
<stop stop-color="#FFE795"/>
<stop offset="1" stop-color="#7A653E"/>
</linearGradient>
<linearGradient id="paint3_linear_202_43" x1="18.83" y1="9.35" x2="6.18" y2="17.6" gradientUnits="userSpaceOnUse">
<stop stop-color="#967CCC"/>
<stop offset="1" stop-color="#5E35B1"/>
</linearGradient>
<linearGradient id="paint4_linear_202_43" x1="6.4" y1="18.15" x2="19.05" y2="9.35" gradientUnits="userSpaceOnUse">
<stop stop-color="#54452A" stop-opacity="0.35"/>
<stop offset="1" stop-color="#7A653E" stop-opacity="0"/>
</linearGradient>
</defs>
</svg>
