<svg width="24" height="24" viewBox="0 0 24 24" fill="none" xmlns="http://www.w3.org/2000/svg">
<rect x="2" y="2" width="20" height="20" rx="6" fill="url(#paint0_linear_11_50)"/>
<rect x="4" y="4" width="16" height="16" rx="4" fill="#FAFAFA"/>
<path d="M2 8.73437C2 7.22422 3.22422 6 4.73437 6H8.5368C9.51364 6 10.4607 6.33631 11.2188 6.95238V6.95238C11.9768 7.56846 12.9239 7.90476 13.9007 7.90476H19.2656C20.7758 7.90476 22 9.12898 22 10.6391V16C22 19.3137 19.3137 22 16 22H8C4.68629 22 2 19.3137 2 16V8.73437Z" fill="url(#paint1_linear_11_50)" fill-opacity="0.9"/>
<path d="M14.7487 15.9236C14.7487 16.8396 14.0062 17.5822 13.0901 17.5822H7.87736C6.96133 17.5822 6.21875 16.8396 6.21875 15.9236V11.6586C6.21875 10.7426 6.96133 10 7.87736 10H13.0901C14.0062 10 14.7487 10.7426 14.7487 11.6586V15.9236ZM17.0496 10.7089C17.4602 10.7089 17.7958 11.0303 17.8185 11.4353L17.8197 11.479V16.1372C17.8197 16.3185 17.7557 16.494 17.639 16.6328C17.3754 16.9463 16.9152 16.9968 16.5908 16.7557L16.554 16.7266L15.5011 15.8412C15.3245 15.6927 15.2226 15.4739 15.2226 15.2432V12.3868C15.2226 12.1582 15.3227 11.9411 15.4965 11.7927L16.5495 10.8934C16.675 10.7863 16.8312 10.7225 16.9948 10.7109L17.0496 10.7089Z" fill="url(#paint2_linear_11_50)"/>
<path fill-rule="evenodd" clip-rule="evenodd" d="M14.3857 16.9593C14.6129 16.6755 14.7487 16.3154 14.7487 15.9236V12.4217L15.3307 11.9247C15.3645 11.8958 15.4006 11.8701 15.4384 11.8477C15.3006 11.9922 15.2226 12.185 15.2226 12.3868V15.2432C15.2226 15.4739 15.3245 15.6927 15.5011 15.8412L16.554 16.7266L16.5908 16.7557C16.5942 16.7582 16.5976 16.7607 16.6009 16.7631V17.1684C16.6009 17.3498 16.537 17.5253 16.4203 17.664C16.1567 17.9775 15.6965 18.0281 15.3721 17.787L15.3353 17.7578L14.3857 16.9593ZM13.4203 17.5494C13.1812 18.1717 12.5779 18.6135 11.8714 18.6135H6.65861C5.74258 18.6135 5 17.8709 5 16.9549V12.6899C5 11.8869 5.57062 11.2172 6.32848 11.0641C6.2576 11.2487 6.21875 11.4491 6.21875 11.6586V15.9236C6.21875 16.8396 6.96133 17.5822 7.87736 17.5822H13.0901C13.2032 17.5822 13.3136 17.5709 13.4203 17.5494Z" fill="url(#paint3_linear_11_50)" fill-opacity="0.5"/>
<defs>
<linearGradient id="paint0_linear_11_50" x1="22" y1="2" x2="2" y2="12" gradientUnits="userSpaceOnUse">
<stop stop-color="#E3C880"/>
<stop offset="1" stop-color="#6F5C38"/>
</linearGradient>
<linearGradient id="paint1_linear_11_50" x1="22" y1="6" x2="2.39045" y2="22.465" gradientUnits="userSpaceOnUse">
<stop stop-color="#FFE795"/>
<stop offset="1" stop-color="#7A653E"/>
</linearGradient>
<linearGradient id="paint2_linear_11_50" x1="17.8" y1="10" x2="6.3" y2="17.5" gradientUnits="userSpaceOnUse">
<stop stop-color="#7986DC"/>
<stop offset="1" stop-color="#3441AD"/>
</linearGradient>
<linearGradient id="paint3_linear_11_50" x1="6.5" y1="18" x2="18" y2="10" gradientUnits="userSpaceOnUse">
<stop stop-color="#54452A" stop-opacity="0.35"/>
<stop offset="1" stop-color="#7A653E" stop-opacity="0"/>
</linearGradient>
</defs>
</svg>
