<svg width="24" height="24" viewBox="0 0 24 24" fill="none" xmlns="http://www.w3.org/2000/svg">
<rect opacity="0.875" x="1" y="1" width="22" height="22" rx="6.6" fill="url(#paint0_linear_207_267)"/>
<rect opacity="0.75" x="3" y="2.5" width="18" height="18" rx="4.4" fill="#CCCCCC" fill-opacity="0.875"/>
<rect x="3" y="3" width="18" height="18" rx="4.4" fill="#E6E6E6"/>
<path opacity="0.125" d="M1 7.50781C1 5.84664 2.34664 4.5 4.00781 4.5H8.19048C9.265 4.5 10.3068 4.86994 11.1406 5.54762V5.54762C11.9745 6.2253 13.0162 6.59524 14.0908 6.59524H19.9922C21.6534 6.59524 23 7.94188 23 9.60305V15.5C23 19.1451 20.0451 22.1 16.4 22.1H7.6C3.95492 22.1 1 19.1451 1 15.5V7.50781Z" fill="url(#paint1_linear_207_267)" fill-opacity="0.5"/>
<path opacity="0.875" d="M1 8.40781C1 6.74664 2.34664 5.4 4.00781 5.4H8.19048C9.265 5.4 10.3068 5.76994 11.1406 6.44762V6.44762C11.9745 7.1253 13.0162 7.49524 14.0908 7.49524H19.9922C21.6534 7.49524 23 8.84188 23 10.5031V16.4C23 20.0451 20.0451 23 16.4 23H7.6C3.95492 23 1 20.0451 1 16.4V8.40781Z" fill="url(#paint2_linear_207_267)"/>
<path opacity="0.4" d="M12.7361 20.0993C15.7897 20.0993 18.265 17.6238 18.265 14.5703C18.265 11.5168 15.7897 9.04144 12.7361 9.04144C9.68257 9.04144 7.20719 11.5168 7.20719 14.5703C7.20719 17.6238 9.68257 20.0993 12.7361 20.0993Z" fill="#2A303A"/>
<path d="M14.7877 16.7432C14.7158 16.7432 14.6439 16.7267 14.5776 16.6824L12.8636 15.6596C12.4379 15.4052 12.1227 14.8468 12.1227 14.3547V12.0879C12.1227 11.8612 12.3107 11.6732 12.5374 11.6732C12.7641 11.6732 12.9521 11.8612 12.9521 12.0879V14.3547C12.9521 14.5538 13.1179 14.8468 13.2894 14.9463L15.0033 15.9692C15.2024 16.0853 15.2632 16.3397 15.1471 16.5387C15.0642 16.6713 14.9259 16.7432 14.7877 16.7432Z" fill="#20242D"/>
<path d="M10.9961 14.7824C10.9961 14.6185 10.9441 14.4888 10.8465 14.3864L8.15445 11.5729C8.04391 11.4568 7.91385 11.4022 7.7643 11.4022C7.62123 11.4022 7.47818 11.4637 7.37414 11.5729L4.65606 14.3864C4.55202 14.4819 4.5 14.6185 4.5 14.7892C4.5 15.0897 4.7341 15.3219 5.03322 15.3219C5.16978 15.3219 5.29981 15.2741 5.40388 15.1716L7.10752 13.3484C7.04251 13.7376 7.00351 14.1405 7.00351 14.5365C7.00351 17.8826 9.559 20.5663 12.7452 20.5663C15.938 20.5663 18.5 17.8826 18.5 14.5365C18.5 11.1906 15.938 8.5 12.7452 8.5C12.4331 8.5 12.2056 8.73216 12.2056 9.0736C12.2056 9.39456 12.4331 9.5994 12.7452 9.5994C15.3593 9.5994 17.4531 11.7983 17.4531 14.5365C17.4531 17.2749 15.3593 19.4669 12.7452 19.4669C10.1377 19.4669 8.05041 17.2749 8.05041 14.5365C8.05041 14.0108 8.08941 13.5395 8.17395 13.123L10.1052 15.1648C10.2093 15.2741 10.3393 15.3219 10.4759 15.3219C10.775 15.3219 10.9961 15.0897 10.9961 14.7824Z" fill="#20242D"/>
<defs>
<linearGradient id="paint0_linear_207_267" x1="23" y1="0.999999" x2="1" y2="12" gradientUnits="userSpaceOnUse">
<stop stop-color="#FFE0AE"/>
<stop offset="1" stop-color="#F3CE7D"/>
</linearGradient>
<linearGradient id="paint1_linear_207_267" x1="23" y1="9" x2="1.01236" y2="9.52141" gradientUnits="userSpaceOnUse">
<stop stop-opacity="0.5"/>
<stop offset="1"/>
</linearGradient>
<linearGradient id="paint2_linear_207_267" x1="23" y1="5.4" x2="1.42949" y2="23.5115" gradientUnits="userSpaceOnUse">
<stop stop-color="#FFEEB4"/>
<stop offset="1" stop-color="#FFDD73"/>
</linearGradient>
</defs>
</svg>
