<svg width="24" height="24" viewBox="0 0 24 24" fill="none" xmlns="http://www.w3.org/2000/svg">
<rect x="2" y="2" width="20" height="20" rx="6" fill="url(#paint0_linear_24_183)"/>
<rect x="4" y="4" width="16" height="16" rx="4" fill="#FAFAFA"/>
<path d="M2 8.73437C2 7.22422 3.22422 6 4.73437 6H8.5368C9.51364 6 10.4607 6.33631 11.2188 6.95238V6.95238C11.9768 7.56846 12.9239 7.90476 13.9007 7.90476H19.2656C20.7758 7.90476 22 9.12898 22 10.6391V16C22 19.3137 19.3137 22 16 22H8C4.68629 22 2 19.3137 2 16V8.73437Z" fill="url(#paint1_linear_24_183)" fill-opacity="0.9"/>
<path d="M13.7978 14.3386C14.7443 14.3386 15.5586 13.4934 15.5586 12.3929C15.5586 11.3056 14.7399 10.5 13.7978 10.5C12.8558 10.5 12.037 11.3232 12.037 12.4017C12.037 13.4934 12.8514 14.3386 13.7978 14.3386ZM8.73109 14.4398C9.54987 14.4398 10.263 13.7003 10.263 12.745C10.263 11.7986 9.54548 11.0987 8.73109 11.0987C7.91232 11.0987 7.19039 11.8162 7.19479 12.7539C7.19479 13.7003 7.90793 14.4398 8.73109 14.4398ZM6.27475 18.4149H9.62031C9.16251 17.7502 9.72156 16.412 10.668 15.6812C10.1794 15.3555 9.54987 15.1133 8.72669 15.1133C6.74138 15.1133 5.5 16.5792 5.5 17.7986C5.5 18.1948 5.72009 18.4149 6.27475 18.4149ZM11.029 18.4149H16.5623C17.2534 18.4149 17.5 18.2168 17.5 17.8294C17.5 16.6937 16.0781 15.1265 13.7934 15.1265C11.5132 15.1265 10.0913 16.6937 10.0913 17.8294C10.0913 18.2168 10.3378 18.4149 11.029 18.4149Z" fill="url(#paint2_linear_24_183)" fill-opacity="0.5"/>
<path d="M14.2978 13.8386C15.2443 13.8386 16.0586 12.9934 16.0586 11.8929C16.0586 10.8056 15.2399 10 14.2978 10C13.3558 10 12.537 10.8232 12.537 11.9017C12.537 12.9934 13.3514 13.8386 14.2978 13.8386ZM9.23109 13.9398C10.0499 13.9398 10.763 13.2003 10.763 12.245C10.763 11.2986 10.0455 10.5987 9.23109 10.5987C8.41232 10.5987 7.69039 11.3162 7.69479 12.2539C7.69479 13.2003 8.40793 13.9398 9.23109 13.9398ZM6.77475 17.9149H10.1203C9.66251 17.2502 10.2216 15.912 11.168 15.1812C10.6794 14.8555 10.0499 14.6133 9.22669 14.6133C7.24138 14.6133 6 16.0792 6 17.2986C6 17.6948 6.22009 17.9149 6.77475 17.9149ZM11.529 17.9149H17.0623C17.7534 17.9149 18 17.7168 18 17.3294C18 16.1937 16.5781 14.6265 14.2934 14.6265C12.0132 14.6265 10.5913 16.1937 10.5913 17.3294C10.5913 17.7168 10.8378 17.9149 11.529 17.9149Z" fill="url(#paint3_linear_24_183)"/>
<defs>
<linearGradient id="paint0_linear_24_183" x1="22" y1="2" x2="2" y2="12" gradientUnits="userSpaceOnUse">
<stop stop-color="#E3C880"/>
<stop offset="1" stop-color="#6F5C38"/>
</linearGradient>
<linearGradient id="paint1_linear_24_183" x1="22" y1="6" x2="2.39045" y2="22.465" gradientUnits="userSpaceOnUse">
<stop stop-color="#FFE795"/>
<stop offset="1" stop-color="#7A653E"/>
</linearGradient>
<linearGradient id="paint2_linear_24_183" x1="5.5" y1="18.5" x2="17.5" y2="10.5" gradientUnits="userSpaceOnUse">
<stop stop-color="#7A653E" stop-opacity="0.75"/>
<stop offset="1" stop-color="#7A653E" stop-opacity="0"/>
</linearGradient>
<linearGradient id="paint3_linear_24_183" x1="6" y1="18" x2="18" y2="10" gradientUnits="userSpaceOnUse">
<stop stop-color="#54452A"/>
<stop offset="1" stop-color="#7A653E" stop-opacity="0.65"/>
</linearGradient>
</defs>
</svg>
