<?xml version="1.0" encoding="UTF-8" standalone="no"?>
<svg
   width="24"
   height="24"
   fill="none"
   version="1.1"
   id="svg9"
   sodipodi:docname="default-folder-open.svg"
   inkscape:version="1.3 (0e150ed6c4, 2023-07-21)"
   xmlns:inkscape="http://www.inkscape.org/namespaces/inkscape"
   xmlns:sodipodi="http://sodipodi.sourceforge.net/DTD/sodipodi-0.dtd"
   xmlns:xlink="http://www.w3.org/1999/xlink"
   xmlns="http://www.w3.org/2000/svg"
   xmlns:svg="http://www.w3.org/2000/svg">
  <sodipodi:namedview
     id="namedview9"
     pagecolor="#ffffff"
     bordercolor="#000000"
     borderopacity="0.25"
     inkscape:showpageshadow="2"
     inkscape:pageopacity="0.0"
     inkscape:pagecheckerboard="0"
     inkscape:deskcolor="#d1d1d1"
     showguides="true"
     inkscape:zoom="17.25046"
     inkscape:cx="6.782428"
     inkscape:cy="11.043184"
     inkscape:window-width="3440"
     inkscape:window-height="1358"
     inkscape:window-x="2560"
     inkscape:window-y="0"
     inkscape:window-maximized="1"
     inkscape:current-layer="svg9">
    <sodipodi:guide
       position="64.172205,16.985694"
       orientation="0,-1"
       id="guide9"
       inkscape:locked="false" />
    <sodipodi:guide
       position="0.63766418,-5.1006746"
       orientation="1,0"
       id="guide10"
       inkscape:locked="false" />
  </sodipodi:namedview>
  <path
     d="m 5.551,1.688 h 6.898 c 1.828,0 3.301,1.472 3.301,3.3 v 6.899 c 0,1.828 -1.473,3.301 -3.301,3.301 H 5.551 C 3.723,15.188 2.25,13.715 2.25,11.887 V 4.988 c 0,-1.828 1.473,-3.3 3.301,-3.3 z"
     transform="matrix(1.3333333,0,0,1.3333333,1.3858268e-6,-8.2393702e-5)"
     style="fill:url(#linearGradient1);stroke:none"
     opacity="0.125"
     clip-path="url(#clipPath8-6-2)"
     id="path9-5-6" />
  <path
     id="path17"
     style="fill:url(#linearGradient17);stroke:none;stroke-width:1.33333"
     d="m 7.5996103,1.0000001 c -3.6559975,0 -6.59961098,2.9416613 -6.59961098,6.5976562 V 16.400391 C 0.99999932,20.056387 3.9436128,23 7.5996103,23 h 8.8007807 c 3.655998,0 6.59961,-2.943613 6.59961,-6.599609 V 7.5976563 c 0,-3.6559953 -2.943612,-6.5976562 -6.59961,-6.5976562 h -4.40039 z" />
  <path
     id="path40"
     d="m 7.2600383,2.97884 h 9.4799287 c 2.373413,0 4.278193,1.9054144 4.278193,4.2796203 v 9.4830787 c 0,2.374206 -1.90478,4.279621 -4.278193,4.279621 H 7.2600383 C 4.8866234,21.02116 2.98184,19.115745 2.98184,16.741539 V 7.2584603 C 2.98184,4.8842544 4.8866234,2.97884 7.2600383,2.97884 Z"
     style="fill:#ffffff;fill-opacity:1;fill-rule:nonzero;stroke:none;stroke-width:1.33333" />
  <path
     d="m 0.75,5.633 c 0,-1.246 1.012,-2.258 2.258,-2.258 h 3.133 c 0.808,0 1.589,0.277 2.214,0.785 0.625,0.508 1.407,0.785 2.211,0.785 h 4.426 c 1.246,0 2.258,1.012 2.258,2.258 v 4.422 c 0,2.734 -2.215,4.949 -4.949,4.949 H 5.699 c -2.734,0 -4.949,-2.215 -4.949,-4.949 z"
     transform="matrix(1.3333333,0,0,1.3333333,1.3858268e-6,-8.2393702e-5)"
     style="opacity:0.15;fill:url(#linearGradient10);stroke:none"
     opacity="0.125"
     clip-path="url(#clipPath18-4-3)"
     id="path10" />
  <path
     id="path20-9-4"
     style="opacity:0.875;fill:url(#linearGradient31-0);stroke:none;stroke-width:1.33333"
     d="m 3.5753322,7.0222002 c -0.1228157,0 -0.2421175,0.00831 -0.3607481,0.021274 -0.00784,6.54e-4 -0.063991,0.00109 -0.068312,0.00177 -0.020849,0.0033 -0.039777,0.01122 -0.060114,0.015955 C 1.664324,7.2740342 0.6028924,8.3949841 0.6397636,9.7510498 l 0.19732874,7.2574462 c 0.0899819,3.309396 3.11718566,5.991427 6.76251546,5.991427 h 8.8007812 c 3.645329,0 6.526684,-2.682031 6.436702,-5.991427 l -0.14555,-5.353091 C 22.650533,10.147172 21.268814,8.923002 19.607482,8.923002 H 13.70514 c -1.072,0 -2.123056,-0.3354883 -2.973107,-0.9504007 C 9.8819803,7.3576888 8.8303988,7.0222002 7.7530663,7.0222002 H 5.6554104 Z" />
  <path
     style="opacity:0.875;fill:url(#linearGradient24);fill-opacity:1;stroke:none;stroke-width:3.77953"
     d="M 3.2928112,7.0345996 C 2.0530693,7.1845786 1.0227789,7.9302528 0.72687418,9.055712 0.61006031,9.4995557 0.65529208,9.9621058 0.66764992,10.416608 l 0.0547319,2.012954 0.0882659,3.246283 c 0.0188146,0.691971 -0.005,1.396579 0.10779586,2.083825 0.15442872,0.939575 0.56329882,1.857178 1.17629672,2.636719 0.3205113,0.407557 0.692909,0.772896 1.1070397,1.103319 0.9911251,0.790832 2.2732537,1.298458 3.568211,1.444291 0.7745703,0.08735 1.5659864,0.04641 2.3434806,0.04641 h 3.4040004 2.904375 c 0.682786,0 1.370483,0.02473 2.043457,-0.07691 0.681706,-0.104111 1.323531,-0.304219 1.935909,-0.585724 0.505252,-0.232111 0.964889,-0.534765 1.381405,-0.880051 1.115793,-0.924907 1.821129,-2.218888 2.006182,-3.588821 0.07182,-0.530701 0.03756,-1.06662 0.02301,-1.60188 l -0.05974,-2.197244 -0.0451,-1.658577 C 22.69633,12.010076 22.70967,11.612573 22.63945,11.224601 22.533549,10.646467 22.193503,10.101482 21.727861,9.6936778 21.262156,9.2858461 20.64088,9.019754 20.005511,8.946357 19.54454,8.8930634 19.06268,8.9271421 18.599654,8.9271421 h -3.294715 c -0.555194,0 -1.115595,0.02196 -1.670801,-5.768e-4 C 12.868253,8.8960617 12.096502,8.7298908 11.417642,8.3823774 10.714956,8.0226313 10.146015,7.5259097 9.37317,7.2783595 8.2238527,6.9102475 6.9803201,7.0275677 5.7905399,7.0275677 H 4.1509884 c -0.2804787,0 -0.5815359,-0.027484 -0.8586463,0.00549 m 0.080771,0.6784579 c 0.3235996,-0.034885 0.6723636,-0.00275 0.9992663,-0.00275 h 1.9518652 c 0.8973127,0 1.8527132,-0.092571 2.7218508,0.1799233 0.7562284,0.2373311 1.3105606,0.7242744 1.9967246,1.0756302 0.794429,0.4068153 1.709289,0.6237654 2.609565,0.6437625 1.664314,0.037084 3.33285,2.203e-4 4.996729,2.203e-4 0.897551,0 1.807512,-0.072245 2.528649,0.5392421 0.732716,0.621129 0.755681,1.375565 0.778393,2.210869 l 0.04664,1.715273 0.05897,2.168895 c 0.01593,0.585996 0.04679,1.164657 -0.05275,1.743649 -0.193,1.125293 -0.823663,2.214657 -1.755259,2.96673 -0.384277,0.310208 -0.798048,0.581574 -1.258857,0.793359 -0.567608,0.260955 -1.179654,0.431373 -1.812908,0.514934 -0.599965,0.07911 -1.218471,0.04863 -1.825611,0.04863 h -2.82627 -3.6851046 c -0.9077783,0 -1.8121979,0.03901 -2.7057935,-0.162616 C 4.759651,21.836065 3.5397851,21.062155 2.7040355,20.013444 2.1652268,19.337351 1.8099555,18.533223 1.6666425,17.716955 1.5062726,16.804215 1.5645969,15.844615 1.5395743,14.924322 L 1.4439853,11.408704 C 1.4280461,10.822489 1.3690327,10.22144 1.3971957,9.6367359 1.445987,8.6274708 2.274164,7.8313647 3.3734253,7.7128638 Z"
     id="path23" />
  <defs
     id="defs9">
    <linearGradient
       id="a"
       x1="23"
       x2="1"
       y1="1"
       y2="12"
       gradientUnits="userSpaceOnUse"
       gradientTransform="translate(40)">
      <stop
         stop-color="#E3C880"
         id="stop4" />
      <stop
         offset="1"
         stop-color="#6F5C38"
         id="stop5" />
    </linearGradient>
    <linearGradient
       id="b"
       x1="23"
       x2="1.013"
       y1="9.347"
       y2="9.886"
       gradientUnits="userSpaceOnUse"
       gradientTransform="translate(40)">
      <stop
         stop-opacity=".5"
         id="stop6" />
      <stop
         offset="1"
         id="stop7" />
    </linearGradient>
    <linearGradient
       id="c"
       x1="23"
       x2="3.153"
       y1="7"
       y2="25.331"
       gradientUnits="userSpaceOnUse"
       gradientTransform="translate(40)">
      <stop
         stop-color="#FFE795"
         id="stop8" />
      <stop
         offset="1"
         stop-color="#7A653E"
         id="stop9" />
    </linearGradient>
    <linearGradient
       x1="23"
       y1="1"
       x2="1"
       y2="12"
       gradientUnits="userSpaceOnUse"
       gradientTransform="scale(0.75)"
       spreadMethod="pad"
       id="linearGradient2">
      <stop
         style="stop-opacity:1;stop-color:#2675a7"
         offset="0"
         id="stop1-9" />
      <stop
         style="stop-opacity:1;stop-color:#1d5e8c"
         offset="1"
         id="stop2-8" />
    </linearGradient>
    <linearGradient
       x1="21"
       y1="4"
       x2="3"
       y2="4"
       gradientUnits="userSpaceOnUse"
       gradientTransform="scale(0.75)"
       spreadMethod="pad"
       id="linearGradient8">
      <stop
         style="stop-opacity:0.43750668;stop-color:#000000"
         offset="0"
         id="stop6-2" />
      <stop
         style="stop-opacity:0.87501335;stop-color:#000000"
         offset="0.89"
         id="stop7-6" />
      <stop
         style="stop-opacity:0;stop-color:#000000"
         offset="1"
         id="stop8-7" />
    </linearGradient>
    <clipPath
       clipPathUnits="userSpaceOnUse"
       id="clipPath8-6">
      <path
         d="M 0,0 H 19 V 19 H 0 Z"
         id="path8-4" />
    </clipPath>
    <mask
       maskUnits="userSpaceOnUse"
       x="0"
       y="0"
       width="1"
       height="1"
       id="mask10-2">
      <path
         id="path11-2"
         d="M 0,0 H 18 V 18 H 0 Z"
         style="fill:url(#linearGradient12);fill-opacity:1;fill-rule:nonzero;stroke:none"
         transform="scale(1.3333333)"
         clip-path="url(#clipPath12-1)" />
    </mask>
    <linearGradient
       x1="12"
       y1="3"
       x2="11.5"
       y2="8"
       gradientUnits="userSpaceOnUse"
       gradientTransform="matrix(0.75,0,0,-0.75,0,18)"
       spreadMethod="pad"
       id="linearGradient12">
      <stop
         style="stop-opacity:1;stop-color:#ffffff"
         offset="0"
         id="stop11-5" />
      <stop
         style="stop-opacity:0;stop-color:#ffffff"
         offset="1"
         id="stop12-9" />
    </linearGradient>
    <clipPath
       clipPathUnits="userSpaceOnUse"
       id="clipPath12-1">
      <path
         d="M 1,1 H 17 V 17 H 1 Z"
         id="path12-8" />
    </clipPath>
    <linearGradient
       x1="12"
       y1="3"
       x2="11.5"
       y2="8"
       gradientUnits="userSpaceOnUse"
       gradientTransform="matrix(0.75,0,0,-0.75,0,18)"
       spreadMethod="pad"
       id="linearGradient14">
      <stop
         style="stop-opacity:1;stop-color:#ffffff"
         offset="0"
         id="stop13-3" />
      <stop
         style="stop-opacity:1;stop-color:#cccccc"
         offset="1"
         id="stop14-9" />
    </linearGradient>
    <clipPath
       clipPathUnits="userSpaceOnUse"
       id="clipPath14-1">
      <path
         d="M 1,1 H 17 V 17 H 1 Z"
         id="path14-3" />
    </clipPath>
    <linearGradient
       x1="23"
       y1="9"
       x2="1.012"
       y2="9.5209999"
       gradientUnits="userSpaceOnUse"
       gradientTransform="scale(0.75)"
       spreadMethod="pad"
       id="linearGradient18">
      <stop
         style="stop-opacity:0.43750668;stop-color:#000000"
         offset="0"
         id="stop17-9" />
      <stop
         style="stop-opacity:0.87501335;stop-color:#000000"
         offset="1"
         id="stop18-7" />
    </linearGradient>
    <clipPath
       clipPathUnits="userSpaceOnUse"
       id="clipPath18-4">
      <path
         d="M 0,0 H 19 V 19 H 0 Z"
         id="path18-4" />
    </clipPath>
    <linearGradient
       x1="23"
       y1="5.4000001"
       x2="1.429"
       y2="23.511999"
       gradientUnits="userSpaceOnUse"
       gradientTransform="scale(0.75)"
       spreadMethod="pad"
       id="linearGradient20">
      <stop
         style="stop-opacity:1;stop-color:#64b4f4"
         offset="0"
         id="stop19-9" />
      <stop
         style="stop-opacity:1;stop-color:#127bdc"
         offset="1"
         id="stop20-7" />
    </linearGradient>
    <linearGradient
       id="l"
       x1="15"
       x2="5.5"
       y1="5.5"
       y2="19.5"
       gradientUnits="userSpaceOnUse"
       gradientTransform="matrix(1,0,0.02551356,0.90453931,39.412259,2.1959323)">
      <stop
         offset="0"
         stop-color="#85F8FF"
         style="stop-color:#f2f2f2;stop-opacity:1"
         id="stop10" />
      <stop
         offset="1"
         stop-color="#105BF6"
         style="stop-color:#11599c;stop-opacity:1"
         id="stop11" />
    </linearGradient>
    <clipPath
       clipPathUnits="userSpaceOnUse"
       id="clipPath8-6-2">
      <path
         d="M 0,0 H 19 V 19 H 0 Z"
         id="path8-4-7" />
    </clipPath>
    <linearGradient
       inkscape:collect="always"
       xlink:href="#linearGradient2"
       id="linearGradient17"
       gradientUnits="userSpaceOnUse"
       gradientTransform="matrix(1.0965789,0,0,1.0969436,-1.1589538,-1.6011313)"
       x1="23"
       y1="1"
       x2="1"
       y2="12"
       spreadMethod="pad" />
    <linearGradient
       inkscape:collect="always"
       xlink:href="#linearGradient13"
       id="linearGradient10"
       gradientUnits="userSpaceOnUse"
       gradientTransform="scale(0.75)"
       x1="23"
       y1="9"
       x2="1.012"
       y2="9.5209999"
       spreadMethod="pad" />
    <linearGradient
       x1="23"
       y1="9"
       x2="1.012"
       y2="9.5209999"
       gradientUnits="userSpaceOnUse"
       gradientTransform="scale(0.75)"
       spreadMethod="pad"
       id="linearGradient13">
      <stop
         style="stop-opacity:0.43750668;stop-color:#000000"
         offset="0"
         id="stop12" />
      <stop
         style="stop-color:#000000;stop-opacity:0.87450981;"
         offset="1"
         id="stop13" />
    </linearGradient>
    <clipPath
       clipPathUnits="userSpaceOnUse"
       id="clipPath18-4-3">
      <path
         d="M 0,0 H 19 V 19 H 0 Z"
         id="path18-4-6" />
    </clipPath>
    <linearGradient
       inkscape:collect="always"
       xlink:href="#linearGradient15"
       id="linearGradient31-0"
       gradientUnits="userSpaceOnUse"
       gradientTransform="matrix(1,0,0.02468417,0.90784573,-0.56775059,2.1189597)"
       x1="22.793381"
       y1="5.6790318"
       x2="3.270803"
       y2="21.06745"
       spreadMethod="pad" />
    <linearGradient
       x1="23"
       y1="5.4000001"
       x2="1.429"
       y2="23.511999"
       gradientUnits="userSpaceOnUse"
       gradientTransform="scale(0.75)"
       spreadMethod="pad"
       id="linearGradient15">
      <stop
         style="stop-color:#127bdc;stop-opacity:1;"
         offset="0"
         id="stop14" />
      <stop
         style="stop-color:#64b4f4;stop-opacity:1;"
         offset="1"
         id="stop15" />
    </linearGradient>
    <linearGradient
       inkscape:collect="always"
       xlink:href="#linearGradient23"
       id="linearGradient24"
       x1="14.279916"
       y1="4.9780769"
       x2="16.035189"
       y2="1.9378555"
       gradientUnits="userSpaceOnUse"
       gradientTransform="matrix(3.7795276,0,0.09329451,3.431228,-40.567735,2.119547)" />
    <linearGradient
       id="linearGradient23"
       inkscape:collect="always">
      <stop
         style="stop-color:#1468b7;stop-opacity:0.98823529;"
         offset="0"
         id="stop23" />
      <stop
         style="stop-color:#add1ef;stop-opacity:0.47962964;"
         offset="1"
         id="stop24" />
    </linearGradient>
    <linearGradient
       inkscape:collect="always"
       xlink:href="#linearGradient8"
       id="linearGradient1"
       gradientUnits="userSpaceOnUse"
       gradientTransform="scale(0.75)"
       x1="21"
       y1="4"
       x2="3"
       y2="4"
       spreadMethod="pad" />
  </defs>
</svg>
