<svg width="24" height="24" viewBox="0 0 24 24" fill="none" xmlns="http://www.w3.org/2000/svg">
<rect x="2" y="2" width="20" height="20" rx="6" fill="url(#paint0_linear_24_158)"/>
<rect x="4" y="4" width="16" height="16" rx="4" fill="#FAFAFA"/>
<path d="M2 8.73437C2 7.22422 3.22422 6 4.73437 6H8.5368C9.51364 6 10.4607 6.33631 11.2188 6.95238V6.95238C11.9768 7.56846 12.9239 7.90476 13.9007 7.90476H19.2656C20.7758 7.90476 22 9.12898 22 10.6391V16C22 19.3137 19.3137 22 16 22H8C4.68629 22 2 19.3137 2 16V8.73437Z" fill="url(#paint1_linear_24_158)" fill-opacity="0.9"/>
<path d="M11.0021 15.7197C11.0869 15.7197 11.1589 15.6894 11.248 15.6029L12.6765 14.1929C12.7401 14.128 12.7783 14.0588 12.7783 13.9636C12.7783 13.7906 12.6469 13.6609 12.4688 13.6609C12.3883 13.6609 12.2993 13.6955 12.2399 13.7647L11.5956 14.4654L11.3116 14.7681L11.337 14.1237V9.83731C11.337 9.65563 11.1844 9.5 11.0021 9.5C10.8198 9.5 10.663 9.65563 10.663 9.83731V14.1237L10.6884 14.7725L10.4044 14.4654L9.76005 13.7647C9.7007 13.6955 9.60745 13.6609 9.52691 13.6609C9.34886 13.6609 9.2217 13.7906 9.2217 13.9636C9.2217 14.0588 9.25984 14.128 9.32343 14.1929L10.7562 15.6029C10.841 15.6894 10.9131 15.7197 11.0021 15.7197ZM7.33107 19.5H14.6689C15.5549 19.5 16 19.0502 16 18.1592V15.7716C16 15.3823 15.9449 15.1963 15.7584 14.9498L14.334 13.0943C13.8211 12.4238 13.6176 12.2898 12.8673 12.2898H12.117V12.8953H12.9139C13.2234 12.8953 13.4269 12.9515 13.6685 13.2673L15.131 15.205C15.2963 15.4256 15.2411 15.5121 15.008 15.5121H12.3925C12.1594 15.5121 12.0449 15.6938 12.0449 15.8884V15.9014C12.0449 16.4334 11.638 16.9957 10.9979 16.9957C10.362 16.9957 9.95506 16.4334 9.95506 15.9014V15.8884C9.95506 15.6938 9.84061 15.5121 9.60745 15.5121H6.99618C6.75456 15.5121 6.7164 15.4083 6.86901 15.205L8.32302 13.2802C8.57311 12.9559 8.7766 12.8953 9.08605 12.8953H9.88723V12.2898H9.13267C8.38236 12.2898 8.18312 12.4238 7.65748 13.1072L6.24162 14.9498C6.05511 15.1963 6 15.3823 6 15.7716V18.1592C6 19.0545 6.44935 19.5 7.33107 19.5Z" fill="url(#paint2_linear_24_158)" fill-opacity="0.5"/>
<path d="M12.0021 14.7197C12.0869 14.7197 12.1589 14.6894 12.248 14.6029L13.6765 13.1929C13.7401 13.128 13.7783 13.0588 13.7783 12.9636C13.7783 12.7906 13.6469 12.6609 13.4688 12.6609C13.3883 12.6609 13.2993 12.6955 13.2399 12.7647L12.5956 13.4654L12.3116 13.7681L12.337 13.1237V8.83731C12.337 8.65563 12.1844 8.5 12.0021 8.5C11.8198 8.5 11.663 8.65563 11.663 8.83731V13.1237L11.6884 13.7725L11.4044 13.4654L10.76 12.7647C10.7007 12.6955 10.6074 12.6609 10.5269 12.6609C10.3489 12.6609 10.2217 12.7906 10.2217 12.9636C10.2217 13.0588 10.2598 13.128 10.3234 13.1929L11.7562 14.6029C11.841 14.6894 11.9131 14.7197 12.0021 14.7197ZM8.33107 18.5H15.6689C16.5549 18.5 17 18.0502 17 17.1592V14.7716C17 14.3823 16.9449 14.1963 16.7584 13.9498L15.334 12.0943C14.8211 11.4238 14.6176 11.2898 13.8673 11.2898H13.117V11.8953H13.9139C14.2234 11.8953 14.4269 11.9515 14.6685 12.2673L16.131 14.205C16.2963 14.4256 16.2411 14.5121 16.008 14.5121H13.3925C13.1594 14.5121 13.0449 14.6938 13.0449 14.8884V14.9014C13.0449 15.4334 12.638 15.9957 11.9979 15.9957C11.362 15.9957 10.9551 15.4334 10.9551 14.9014V14.8884C10.9551 14.6938 10.8406 14.5121 10.6074 14.5121H7.99618C7.75456 14.5121 7.7164 14.4083 7.86901 14.205L9.32302 12.2802C9.57311 11.9559 9.7766 11.8953 10.086 11.8953H10.8872V11.2898H10.1327C9.38236 11.2898 9.18312 11.4238 8.65748 12.1072L7.24162 13.9498C7.05511 14.1963 7 14.3823 7 14.7716V17.1592C7 18.0545 7.44935 18.5 8.33107 18.5Z" fill="url(#paint3_linear_24_158)"/>
<defs>
<linearGradient id="paint0_linear_24_158" x1="22" y1="2" x2="2" y2="12" gradientUnits="userSpaceOnUse">
<stop stop-color="#E3C880"/>
<stop offset="1" stop-color="#6F5C38"/>
</linearGradient>
<linearGradient id="paint1_linear_24_158" x1="22" y1="6" x2="2.39045" y2="22.465" gradientUnits="userSpaceOnUse">
<stop stop-color="#FFE795"/>
<stop offset="1" stop-color="#7A653E"/>
</linearGradient>
<linearGradient id="paint2_linear_24_158" x1="6" y1="19.5" x2="16" y2="9.5" gradientUnits="userSpaceOnUse">
<stop stop-color="#7A653E" stop-opacity="0.35"/>
<stop offset="1" stop-color="#7A653E" stop-opacity="0"/>
</linearGradient>
<linearGradient id="paint3_linear_24_158" x1="7" y1="18.5" x2="17" y2="8.5" gradientUnits="userSpaceOnUse">
<stop stop-color="#F47608"/>
<stop offset="1" stop-color="#F7AD4A"/>
</linearGradient>
</defs>
</svg>
