<svg width="24" height="24" viewBox="0 0 24 24" fill="none" xmlns="http://www.w3.org/2000/svg">
<rect opacity="0.8125" x="1" y="1" width="22" height="22" rx="6.6" fill="url(#paint0_linear_202_43)"/>
<rect opacity="0.125" x="3" y="2.25" width="18" height="18" rx="4.4" fill="url(#paint1_linear_202_43)" fill-opacity="0.875"/>
<rect x="3.25" y="3.25" width="17.5" height="17.5" rx="4.15" fill="#CCCCCC" stroke="url(#paint2_linear_202_43)" stroke-width="0.5"/>
<path opacity="0.125" d="M1 7.50781C1 5.84664 2.34664 4.5 4.00781 4.5H8.19048C9.265 4.5 10.3068 4.86994 11.1406 5.54762V5.54762C11.9745 6.2253 13.0162 6.59524 14.0908 6.59524H19.9922C21.6534 6.59524 23 7.94188 23 9.60305V15.5C23 19.1451 20.0451 22.1 16.4 22.1H7.6C3.95492 22.1 1 19.1451 1 15.5V7.50781Z" fill="url(#paint3_linear_202_43)" fill-opacity="0.875"/>
<g opacity="0.875">
<path d="M1 8.40781C1 6.74664 2.34664 5.4 4.00781 5.4H8.19048C9.265 5.4 10.3068 5.76994 11.1406 6.44762V6.44762C11.9745 7.1253 13.0162 7.49524 14.0908 7.49524H19.9922C21.6534 7.49524 23 8.84188 23 10.5031V16.4C23 20.0451 20.0451 23 16.4 23H7.6C3.95492 23 1 20.0451 1 16.4V8.40781Z" fill="url(#paint4_linear_202_43)"/>
<path d="M22.625 10.5031V16.4C22.625 19.838 19.838 22.625 16.4 22.625H7.6C4.16203 22.625 1.375 19.838 1.375 16.4V8.40781C1.375 6.95375 2.55375 5.775 4.00781 5.775H8.19048C9.17886 5.775 10.1371 6.11528 10.9041 6.73863C11.8048 7.47064 12.9301 7.87024 14.0908 7.87024H19.9922C21.4462 7.87024 22.625 9.04899 22.625 10.5031Z" stroke="url(#paint5_linear_202_43)" stroke-opacity="0.375" stroke-width="0.75" stroke-linejoin="round"/>
</g>
<path d="M15.4736 16.516C15.4736 17.5236 14.6568 18.3404 13.6491 18.3404H7.91509C6.90747 18.3404 6.09062 17.5236 6.09062 16.516V11.8245C6.09062 10.8168 6.90747 10 7.91509 10H13.6491C14.6568 10 15.4736 10.8168 15.4736 11.8245V16.516ZM18.0046 10.7798C18.4563 10.7798 18.8254 11.1334 18.8503 11.5788L18.8517 11.6269V16.7509C18.8517 16.9504 18.7813 17.1434 18.6529 17.2961C18.363 17.6409 17.8568 17.6965 17.4999 17.4313L17.4594 17.3993L16.3012 16.4253C16.107 16.262 15.9949 16.0213 15.9949 15.7676V12.6254C15.9949 12.374 16.105 12.1352 16.2962 11.9719L17.4544 10.9828C17.5925 10.8649 17.7643 10.7948 17.9443 10.782L18.0046 10.7798Z" fill="url(#paint6_linear_202_43)"/>
<path fill-rule="evenodd" clip-rule="evenodd" d="M15.0742 17.6553C15.3242 17.3431 15.4736 16.947 15.4736 16.516V12.6639L16.1138 12.1172C16.151 12.0854 16.1906 12.0571 16.2322 12.0325C16.0807 12.1915 15.9949 12.4035 15.9949 12.6254V15.7676C15.9949 16.0213 16.107 16.262 16.3012 16.4253L17.4594 17.3993L17.4999 17.4313C17.5036 17.434 17.5073 17.4367 17.511 17.4394V17.8853C17.511 18.0847 17.4407 18.2778 17.3123 18.4304C17.0224 18.7753 16.5161 18.8309 16.1593 18.5657L16.1188 18.5336L15.0742 17.6553ZM14.0123 18.3043C13.7494 18.9889 13.0857 19.4748 12.3085 19.4748H6.57447C5.56684 19.4748 4.75 18.658 4.75 17.6503V12.9588C4.75 12.0756 5.37768 11.3389 6.21132 11.1705C6.13335 11.3735 6.09062 11.594 6.09062 11.8245V16.516C6.09062 17.5236 6.90747 18.3404 7.91509 18.3404H13.6491C13.7735 18.3404 13.8949 18.328 14.0123 18.3043Z" fill="url(#paint7_linear_202_43)" fill-opacity="0.5"/>
<defs>
<linearGradient id="paint0_linear_202_43" x1="23" y1="0.999999" x2="1" y2="12" gradientUnits="userSpaceOnUse">
<stop stop-color="#E3C880"/>
<stop offset="1" stop-color="#6F5C38"/>
</linearGradient>
<linearGradient id="paint1_linear_202_43" x1="21" y1="4" x2="3" y2="4" gradientUnits="userSpaceOnUse">
<stop stop-opacity="0.5"/>
<stop offset="0.890123"/>
<stop offset="1" stop-opacity="0"/>
</linearGradient>
<linearGradient id="paint2_linear_202_43" x1="12" y1="3" x2="11.5" y2="8" gradientUnits="userSpaceOnUse">
<stop stop-color="#DDDDDD"/>
<stop offset="1" stop-color="#CCCCCC" stop-opacity="0"/>
</linearGradient>
<linearGradient id="paint3_linear_202_43" x1="23" y1="9" x2="1.01236" y2="9.52141" gradientUnits="userSpaceOnUse">
<stop stop-opacity="0.5"/>
<stop offset="1"/>
</linearGradient>
<linearGradient id="paint4_linear_202_43" x1="23" y1="5.4" x2="1.42949" y2="23.5115" gradientUnits="userSpaceOnUse">
<stop stop-color="#FFE795"/>
<stop offset="1" stop-color="#7A653E"/>
</linearGradient>
<linearGradient id="paint5_linear_202_43" x1="15" y1="5.5" x2="5.5" y2="19.5" gradientUnits="userSpaceOnUse">
<stop stop-color="#FFE795"/>
<stop offset="1" stop-color="#7A653E"/>
</linearGradient>
<linearGradient id="paint6_linear_202_43" x1="18.83" y1="10" x2="6.18" y2="18.25" gradientUnits="userSpaceOnUse">
<stop stop-color="#967CCC"/>
<stop offset="1" stop-color="#5E35B1"/>
</linearGradient>
<linearGradient id="paint7_linear_202_43" x1="6.4" y1="18.8" x2="19.05" y2="10" gradientUnits="userSpaceOnUse">
<stop stop-color="#54452A" stop-opacity="0.35"/>
<stop offset="1" stop-color="#7A653E" stop-opacity="0"/>
</linearGradient>
</defs>
</svg>
