<svg width="20" height="20" viewBox="0 0 20 20" fill="none" xmlns="http://www.w3.org/2000/svg">
<rect width="20" height="20" rx="4" fill="#FAFAFA"/>
<path opacity="0.799523" d="M16 0H4C1.5 0 0 1.5 0 4V16C0 18.5 1.5 20 4 20H16C18.5 20 20 18.5 20 16V4C20 1.5 18.5 0 16 0Z" fill="url(#paint0_linear_52_25)"/>
<path opacity="0.799523" d="M14.5 2H5.5C3.5 2 2 3.5 2 5.5V14.5C2 16.5 3.5 18 5.5 18H14.5C16.5 18 18 16.5 18 14.5V5.5C18 3.5 16.5 2 14.5 2Z" fill="white"/>
<path opacity="0.220771" d="M7.7624 9.9024C8.66338 9.9024 9.39377 9.17202 9.39377 8.27104C9.39377 7.37006 8.66338 6.63968 7.7624 6.63968C6.86143 6.63968 6.13104 7.37006 6.13104 8.27104C6.13104 9.17202 6.86143 9.9024 7.7624 9.9024Z" fill="black" stroke="black" stroke-width="0.157044" stroke-linecap="round" stroke-linejoin="round"/>
<path opacity="0.85" d="M2.84846 3.68652C1.3134 3.68652 0 4.96493 0 6.5V13.5V16C0 18.5 1.5 20 4 20H16C18.5 20 20 18.5 20 16C20 15.5 20 15.4816 20 15L19.9905 14.5L20 12.5V10.5V8.5C20 6.96493 18.6677 5.57361 17.1327 5.57361H12.2887C8.76294 5.57361 9.59947 3.68652 6.57287 3.68652H2.84846Z" fill="url(#paint1_linear_52_25)"/>
<path d="M7.60768 9.75338C8.50866 9.75338 9.23904 9.02299 9.23904 8.12202C9.23904 7.22104 8.50866 6.49065 7.60768 6.49065C6.7067 6.49065 5.97632 7.22104 5.97632 8.12202C5.97632 9.02299 6.7067 9.75338 7.60768 9.75338Z" fill="url(#paint2_linear_52_25)"/>
<path opacity="0.220771" d="M12.2886 9.40774C12.0673 9.40788 11.8507 9.47164 11.6646 9.59144C11.4785 9.71123 11.3308 9.882 11.239 10.0834L10.0839 12.0876C10.0778 12.0988 10.0714 12.11 10.0647 12.121L10.053 12.1414H10.0519C9.97506 12.2602 9.86969 12.3579 9.74542 12.4256C9.62114 12.4932 9.4819 12.5287 9.34039 12.5288C9.19888 12.5287 9.05965 12.4932 8.93537 12.4256C8.81109 12.3579 8.70573 12.2602 8.62888 12.1414H8.62712L8.31027 11.8245C8.20038 11.6815 8.0591 11.5657 7.89735 11.486C7.73559 11.4063 7.55768 11.3649 7.37735 11.3648C7.13384 11.365 6.89638 11.4407 6.69771 11.5815C6.49904 11.7224 6.34894 11.9213 6.26811 12.151L5.45245 13.7208C5.42093 13.7749 5.39206 13.8305 5.36594 13.8873L5.34488 13.9278L5.34694 13.931C5.24188 14.1727 5.18743 14.4333 5.18695 14.6969C5.18694 14.9504 5.23686 15.2014 5.33386 15.4356C5.43085 15.6697 5.57302 15.8825 5.75226 16.0618C5.93149 16.241 6.14427 16.3832 6.37845 16.4802C6.61264 16.5772 6.86363 16.6271 7.11711 16.6271C7.13133 16.6268 7.14555 16.6262 7.15976 16.6255H13.1497C13.1639 16.6262 13.1781 16.6268 13.1923 16.6271C13.4458 16.6271 13.6968 16.5772 13.931 16.4802C14.1652 16.3832 14.378 16.241 14.5572 16.0618C14.7365 15.8826 14.8786 15.6698 14.9756 15.4356C15.0726 15.2014 15.1226 14.9504 15.1226 14.6969C15.1225 14.4138 15.0602 14.1341 14.9401 13.8778L14.943 13.8733L13.3863 10.2055C13.3654 10.1412 13.339 10.079 13.3073 10.0194L13.2955 9.99154H13.292C13.1912 9.81427 13.0453 9.66687 12.869 9.56432C12.6928 9.46177 12.4925 9.40775 12.2886 9.40774Z" fill="black" stroke="black" stroke-width="0.157044" stroke-linecap="round" stroke-linejoin="round"/>
<path d="M12.1338 9.25871C11.9125 9.25884 11.6959 9.32261 11.5098 9.4424C11.3237 9.5622 11.176 9.73297 11.0843 9.93436L9.92916 11.9385C9.92301 11.9498 9.9166 11.961 9.90994 11.9719L9.89819 11.9923H9.89713C9.82027 12.1111 9.71491 12.2088 9.59063 12.2765C9.46636 12.3442 9.32712 12.3797 9.18561 12.3798C9.0441 12.3797 8.90486 12.3442 8.78058 12.2765C8.65631 12.2088 8.55094 12.1111 8.47409 11.9923H8.47234L8.15549 11.6755C8.0456 11.5325 7.90432 11.4167 7.74256 11.337C7.5808 11.2573 7.40289 11.2158 7.22257 11.2158C6.97905 11.216 6.74159 11.2917 6.54292 11.4325C6.34425 11.5733 6.19416 11.7723 6.11333 12.002L5.29767 13.5718C5.26615 13.6258 5.23727 13.6814 5.21115 13.7383L5.19009 13.7788L5.19215 13.7819C5.08709 14.0237 5.03265 14.2843 5.03217 14.5479C5.03216 14.8013 5.08208 15.0523 5.17907 15.2865C5.27607 15.5207 5.41824 15.7335 5.59747 15.9127C5.7767 16.092 5.98949 16.2342 6.22367 16.3312C6.45785 16.4282 6.70885 16.4781 6.96233 16.4781C6.97655 16.4777 6.99076 16.4772 7.00497 16.4765H12.9949C13.0091 16.4772 13.0233 16.4777 13.0375 16.4781C13.291 16.4781 13.542 16.4282 13.7762 16.3312C14.0104 16.2342 14.2232 16.092 14.4024 15.9128C14.5817 15.7335 14.7239 15.5207 14.8209 15.2865C14.9179 15.0523 14.9678 14.8013 14.9678 14.5479C14.9677 14.2648 14.9054 13.9851 14.7853 13.7288L14.7882 13.7243L13.2315 10.0564C13.2106 9.99222 13.1842 9.92995 13.1525 9.87035L13.1407 9.84251H13.1372C13.0364 9.66524 12.8905 9.51783 12.7142 9.41529C12.538 9.31274 12.3377 9.25871 12.1338 9.25871Z" fill="url(#paint3_linear_52_25)"/>
<defs>
<linearGradient id="paint0_linear_52_25" x1="1.97805" y1="18.1906" x2="18.3944" y2="1.77428" gradientUnits="userSpaceOnUse">
<stop stop-color="#2D85C6"/>
<stop offset="1" stop-color="#04BACC"/>
</linearGradient>
<linearGradient id="paint1_linear_52_25" x1="2.00467" y1="18.3641" x2="19.754" y2="8.11656" gradientUnits="userSpaceOnUse">
<stop stop-color="#2D85C6"/>
<stop offset="1" stop-color="#04BACC"/>
</linearGradient>
<linearGradient id="paint2_linear_52_25" x1="6.46512" y1="9.09015" x2="8.84585" y2="7.08142" gradientUnits="userSpaceOnUse">
<stop stop-color="#CBC900"/>
<stop offset="1" stop-color="#F4ED12"/>
</linearGradient>
<linearGradient id="paint3_linear_52_25" x1="4.97083" y1="15.9947" x2="14.9667" y2="10.2236" gradientUnits="userSpaceOnUse">
<stop stop-color="#84FAA1"/>
<stop offset="1" stop-color="#33C478"/>
</linearGradient>
</defs>
</svg>
