<svg width="24" height="24" viewBox="0 0 24 24" fill="none" xmlns="http://www.w3.org/2000/svg">
<rect x="2" y="2" width="20" height="20" rx="6" fill="url(#paint0_linear_24_136)"/>
<rect x="4" y="4" width="16" height="16" rx="4" fill="#FAFAFA"/>
<path d="M2 8.73438C2 7.22422 3.22422 6 4.73437 6H8.5368C9.51364 6 10.4607 6.33631 11.2188 6.95238V6.95238C11.9768 7.56846 12.9239 7.90476 13.9007 7.90476H19.2656C20.7758 7.90476 22 9.12898 22 10.6391V16C22 19.3137 19.3137 22 16 22H8C4.68629 22 2 19.3137 2 16V8.73438Z" fill="url(#paint1_linear_24_136)" fill-opacity="0.9"/>
<g clip-path="url(#clip0_24_136)">
<path d="M12.1667 10.4H8.83333C8.61232 10.4 8.40036 10.4878 8.24408 10.6441C8.0878 10.8004 8 11.0123 8 11.2333V17.9C8 18.121 8.0878 18.333 8.24408 18.4893C8.40036 18.6455 8.61232 18.7333 8.83333 18.7333H13.8333C14.0543 18.7333 14.2663 18.6455 14.4226 18.4893C14.5789 18.333 14.6667 18.121 14.6667 17.9V12.9L12.1667 10.4Z" stroke="#7A653E" stroke-opacity="0.31" stroke-linecap="round" stroke-linejoin="round"/>
<path d="M12.1667 10.4V12.9H14.6667" stroke="#7A653E" stroke-opacity="0.31" stroke-linecap="round" stroke-linejoin="round"/>
<path d="M13 14.9833H9.66667" stroke="#7A653E" stroke-opacity="0.31" stroke-linecap="round" stroke-linejoin="round"/>
<path d="M13 16.65H9.66667" stroke="#7A653E" stroke-opacity="0.31" stroke-linecap="round" stroke-linejoin="round"/>
<path d="M10.5 13.3167H10.0833H9.66667" stroke="#7A653E" stroke-opacity="0.31" stroke-linecap="round" stroke-linejoin="round"/>
<path d="M13.2163 9.81632C13.0138 9.61379 12.7391 9.5 12.4526 9.5H9.3C9.0613 9.5 8.83239 9.59482 8.6636 9.7636C8.49482 9.93239 8.4 10.1613 8.4 10.4V17.6C8.4 17.8387 8.49482 18.0676 8.6636 18.2364C8.83239 18.4052 9.0613 18.5 9.3 18.5H14.7C14.9387 18.5 15.1676 18.4052 15.3364 18.2364C15.5052 18.0676 15.6 17.8387 15.6 17.6V12.6474C15.6 12.3609 15.4862 12.0862 15.2837 11.8837L13.2163 9.81632Z" fill="url(#paint2_linear_24_136)"/>
<path d="M13.6667 14.4167H10.3333" stroke="#FAFAFA" stroke-linecap="round" stroke-linejoin="round"/>
<path d="M13.6667 16.0833H10.3333" stroke="#FAFAFA" stroke-linecap="round" stroke-linejoin="round"/>
<path d="M11.1667 12.75H10.75H10.3333" fill="white"/>
<path d="M11.1667 12.75H10.75H10.3333" stroke="#FAFAFA" stroke-linecap="round" stroke-linejoin="round"/>
</g>
<defs>
<linearGradient id="paint0_linear_24_136" x1="22" y1="2" x2="2" y2="12" gradientUnits="userSpaceOnUse">
<stop stop-color="#E3C880"/>
<stop offset="1" stop-color="#6F5C38"/>
</linearGradient>
<linearGradient id="paint1_linear_24_136" x1="22" y1="6" x2="2.39045" y2="22.465" gradientUnits="userSpaceOnUse">
<stop stop-color="#FFE795"/>
<stop offset="1" stop-color="#7A653E"/>
</linearGradient>
<linearGradient id="paint2_linear_24_136" x1="16" y1="10" x2="12.5" y2="15.5" gradientUnits="userSpaceOnUse">
<stop stop-color="#6EBBF7"/>
<stop offset="1" stop-color="#2196F3"/>
</linearGradient>
<clipPath id="clip0_24_136">
<rect width="10" height="10" fill="white" transform="translate(7 9)"/>
</clipPath>
</defs>
</svg>
