<svg width="24" height="24" viewBox="0 0 24 24" fill="none" xmlns="http://www.w3.org/2000/svg">
<rect x="2" y="2" width="20" height="20" rx="6" fill="url(#paint0_linear_24_124)"/>
<rect x="4" y="4" width="16" height="16" rx="4" fill="#FAFAFA"/>
<path d="M2 8.73437C2 7.22422 3.22422 6 4.73437 6H8.5368C9.51364 6 10.4607 6.33631 11.2188 6.95238V6.95238C11.9768 7.56846 12.9239 7.90476 13.9007 7.90476H19.2656C20.7758 7.90476 22 9.12898 22 10.6391V16C22 19.3137 19.3137 22 16 22H8C4.68629 22 2 19.3137 2 16V8.73437Z" fill="url(#paint1_linear_24_124)" fill-opacity="0.9"/>
<path d="M15.112 11.4951L15.7459 10.8696C16.0659 10.5474 16.0848 10.2063 15.7961 9.90934L15.589 9.70084C15.3003 9.41024 14.9551 9.44183 14.6413 9.75138L14.0011 10.3832L15.112 11.4951ZM15.1371 18.5645C15.3254 18.754 15.6329 18.754 15.8212 18.5645C16.0095 18.3749 16.0095 18.0654 15.8212 17.8758L7.86948 9.87141C7.6812 9.68189 7.36113 9.67558 7.17915 9.87141C6.99085 10.0546 6.99085 10.3769 7.17915 10.56L15.1371 18.5645ZM12.8212 13.7884L14.566 12.0384L13.4614 10.9265L11.723 12.6828L12.8212 13.7884ZM7.71259 18.9246L11.0828 15.532L9.9845 14.4201L6.61427 17.819L6.01178 19.2215C5.9553 19.3731 6.11222 19.55 6.26282 19.4868L7.71259 18.9246Z" fill="url(#paint2_linear_24_124)" fill-opacity="0.5"/>
<path d="M16.112 10.9951L16.7459 10.3696C17.0659 10.0474 17.0848 9.70625 16.7961 9.40934L16.589 9.20084C16.3003 8.91024 15.9551 8.94183 15.6413 9.25138L15.0011 9.88316L16.112 10.9951ZM16.1371 18.0645C16.3254 18.254 16.6329 18.254 16.8212 18.0645C17.0095 17.8749 17.0095 17.5654 16.8212 17.3758L8.86948 9.37141C8.6812 9.18189 8.36113 9.17558 8.17915 9.37141C7.99085 9.55463 7.99085 9.87685 8.17915 10.06L16.1371 18.0645ZM13.8212 13.2884L15.566 11.5384L14.4614 10.4265L12.723 12.1828L13.8212 13.2884ZM8.71259 18.4246L12.0828 15.032L10.9845 13.9201L7.61428 17.319L7.01178 18.7215C6.9553 18.8731 7.11222 19.05 7.26282 18.9868L8.71259 18.4246Z" fill="url(#paint3_linear_24_124)"/>
<defs>
<linearGradient id="paint0_linear_24_124" x1="22" y1="2" x2="2" y2="12" gradientUnits="userSpaceOnUse">
<stop stop-color="#E3C880"/>
<stop offset="1" stop-color="#6F5C38"/>
</linearGradient>
<linearGradient id="paint1_linear_24_124" x1="22" y1="6" x2="2.39045" y2="22.465" gradientUnits="userSpaceOnUse">
<stop stop-color="#FFE795"/>
<stop offset="1" stop-color="#7A653E"/>
</linearGradient>
<linearGradient id="paint2_linear_24_124" x1="6" y1="19.5" x2="16" y2="9.5" gradientUnits="userSpaceOnUse">
<stop stop-color="#6F5C38" stop-opacity="0.35"/>
<stop offset="1" stop-color="#6F5C38" stop-opacity="0"/>
</linearGradient>
<linearGradient id="paint3_linear_24_124" x1="7" y1="19" x2="17" y2="9" gradientUnits="userSpaceOnUse">
<stop stop-color="#AA8915"/>
<stop offset="1" stop-color="#FFD854"/>
</linearGradient>
</defs>
</svg>
