<svg width="24" height="24" viewBox="0 0 24 24" fill="none" xmlns="http://www.w3.org/2000/svg">
<rect opacity="0.875" x="1" y="1" width="22" height="22" rx="6.6" fill="url(#paint0_linear_31_25)"/>
<rect opacity="0.75" x="3" y="2.5" width="18" height="18" rx="4.4" fill="#CCCCCC" fill-opacity="0.875"/>
<rect x="3" y="3" width="18" height="18" rx="4.4" fill="#E6E6E6"/>
<path opacity="0.125" d="M1 7.50781C1 5.84664 2.34664 4.5 4.00781 4.5H8.19048C9.265 4.5 10.3068 4.86994 11.1406 5.54762V5.54762C11.9745 6.2253 13.0162 6.59524 14.0908 6.59524H19.9922C21.6534 6.59524 23 7.94188 23 9.60305V15.5C23 19.1451 20.0451 22.1 16.4 22.1H7.6C3.95492 22.1 1 19.1451 1 15.5V7.50781Z" fill="url(#paint1_linear_31_25)" fill-opacity="0.5"/>
<path opacity="0.875" d="M1 8.40782C1 6.74665 2.34664 5.4 4.00781 5.4H8.19048C9.265 5.4 10.3068 5.76994 11.1406 6.44762V6.44762C11.9745 7.1253 13.0162 7.49524 14.0908 7.49524H19.9922C21.6534 7.49524 23 8.84188 23 10.5031V16.4C23 20.0451 20.0451 23 16.4 23H7.6C3.95492 23 1 20.0451 1 16.4V8.40782Z" fill="url(#paint2_linear_31_25)"/>
<path opacity="0.5" d="M8.74917 19.975V19.0571L9.66705 18.1247H7.3942C6.91147 18.1247 6.50425 17.9588 6.17255 17.6271C5.84085 17.2954 5.675 16.8882 5.675 16.4055V10.6942C5.675 10.2115 5.84085 9.80425 6.17255 9.47255C6.50425 9.14085 6.91147 8.975 7.3942 8.975H11.0657V10.6942H7.3942V16.4055H16.1359V14.7008H17.8551V16.4055C17.8551 16.8882 17.6893 17.2954 17.3576 17.6271C17.0259 17.9588 16.6187 18.1247 16.1359 18.1247H13.8631L14.781 19.0571V19.975H8.74917ZM13.6445 15.9684L10.381 12.7048L11.5902 11.4955L12.7849 12.6902V8.975H14.5041V12.6902L15.6988 11.4955L16.9081 12.7048L13.6445 15.9684Z" fill="#6F5C38" fill-opacity="0.5"/>
<path d="M9.29917 19.7V18.7821L10.2171 17.8497H7.94421C7.46147 17.8497 7.05425 17.6838 6.72255 17.3521C6.39085 17.0204 6.225 16.6132 6.225 16.1305V10.4192C6.225 9.93647 6.39085 9.52925 6.72255 9.19755C7.05425 8.86585 7.46147 8.7 7.94421 8.7H11.6157V10.4192H7.94421V16.1305H16.6859V14.4258H18.4051V16.1305C18.4051 16.6132 18.2393 17.0204 17.9076 17.3521C17.5759 17.6838 17.1687 17.8497 16.6859 17.8497H14.4131L15.331 18.7821V19.7H9.29917ZM14.1945 15.6934L10.931 12.4298L12.1402 11.2205L13.3349 12.4152V8.7H15.0541V12.4152L16.2488 11.2205L17.4581 12.4298L14.1945 15.6934Z" fill="url(#paint3_radial_31_25)"/>
<defs>
<linearGradient id="paint0_linear_31_25" x1="23" y1="0.999999" x2="1" y2="12" gradientUnits="userSpaceOnUse">
<stop stop-color="#FFE0AE"/>
<stop offset="1" stop-color="#F3CE7D"/>
</linearGradient>
<linearGradient id="paint1_linear_31_25" x1="23" y1="9" x2="1.01236" y2="9.52141" gradientUnits="userSpaceOnUse">
<stop stop-opacity="0.5"/>
<stop offset="1"/>
</linearGradient>
<linearGradient id="paint2_linear_31_25" x1="23" y1="5.4" x2="1.42949" y2="23.5115" gradientUnits="userSpaceOnUse">
<stop stop-color="#FFEEB4"/>
<stop offset="1" stop-color="#FFDD73"/>
</linearGradient>
<radialGradient id="paint3_radial_31_25" cx="0" cy="0" r="1" gradientUnits="userSpaceOnUse" gradientTransform="translate(18.875 8.7) rotate(139.185) scale(15.9879 17.7031)">
<stop stop-color="#72CB72"/>
<stop offset="1" stop-color="#1C6D1C"/>
</radialGradient>
</defs>
</svg>
