<svg width="24" height="24" viewBox="0 0 24 24" fill="none" xmlns="http://www.w3.org/2000/svg">
<rect x="2" y="2" width="20" height="20" rx="6" fill="url(#paint0_linear_24_198)"/>
<rect x="4" y="4" width="16" height="16" rx="4" fill="#FAFAFA"/>
<path d="M2 8.73437C2 7.22422 3.22422 6 4.73437 6H8.5368C9.51364 6 10.4607 6.33631 11.2188 6.95238V6.95238C11.9768 7.56846 12.9239 7.90476 13.9007 7.90476H19.2656C20.7758 7.90476 22 9.12898 22 10.6391V16C22 19.3137 19.3137 22 16 22H8C4.68629 22 2 19.3137 2 16V8.73437Z" fill="url(#paint1_linear_24_198)" fill-opacity="0.9"/>
<path d="M8.26186 16.2648H15.1434C16.1602 16.2648 16.7 15.7337 16.7 14.693V11.0718C16.7 10.0311 16.1602 9.5 15.1434 9.5H8.26186C7.29224 9.5 6.7 10.0311 6.7 11.0718V14.693C6.7 15.7337 7.23984 16.2648 8.26186 16.2648ZM8.25137 15.4601C7.7849 15.4601 7.54381 15.208 7.54381 14.7359V11.0289C7.54381 10.5568 7.7849 10.3101 8.25137 10.3101H15.1539C15.6151 10.3101 15.8562 10.5568 15.8562 11.0289V14.7359C15.8562 15.208 15.6151 15.4601 15.1539 15.4601H8.25137ZM13.5239 19.5963C14.069 19.5963 14.5354 19.2369 14.7084 18.7379H16.3017C16.5166 18.7379 16.7 18.5502 16.7 18.3088C16.7 18.062 16.5166 17.8742 16.3017 17.8742H14.7084C14.5354 17.3753 14.069 17.0212 13.5239 17.0212C12.9788 17.0212 12.5124 17.3753 12.3342 17.8742H7.12452C6.88867 17.8742 6.7 18.062 6.7 18.3088C6.7 18.5502 6.88867 18.7379 7.12452 18.7379H12.3342C12.5071 19.2369 12.9788 19.5963 13.5239 19.5963ZM13.5239 18.9364C13.178 18.9364 12.9107 18.6575 12.9107 18.3088C12.9107 17.9493 13.178 17.6757 13.5239 17.6757C13.8698 17.6757 14.1371 17.9493 14.1371 18.3088C14.1371 18.6575 13.8698 18.9364 13.5239 18.9364Z" fill="url(#paint2_linear_24_198)" fill-opacity="0.5"/>
<path d="M11.677 13.4544C12.1377 13.4544 12.534 13.0333 12.534 12.485C12.534 11.9432 12.1355 11.5418 11.677 11.5418C11.2184 11.5418 10.8199 11.952 10.8199 12.4893C10.8199 13.0333 11.2163 13.4544 11.677 13.4544ZM9.21067 13.5048C9.60922 13.5048 9.95635 13.1363 9.95635 12.6604C9.95635 12.1888 9.60707 11.8401 9.21067 11.8401C8.81212 11.8401 8.46071 12.1976 8.46284 12.6648C8.46284 13.1363 8.80997 13.5048 9.21067 13.5048ZM14.1433 13.5048C14.544 13.5048 14.8911 13.1363 14.8911 12.6648C14.8911 12.1976 14.5418 11.8401 14.1433 11.8401C13.7469 11.8401 13.3976 12.1888 13.3976 12.6604C13.3976 13.1363 13.7447 13.5048 14.1433 13.5048ZM8.01501 15.4853H9.64351C9.42065 15.1541 9.69279 14.4874 10.1535 14.1233C9.91563 13.961 9.60922 13.8404 9.20853 13.8404C8.24215 13.8404 7.63789 14.5707 7.63789 15.1783C7.63789 15.3757 7.74503 15.4853 8.01501 15.4853ZM15.3389 15.4853C15.6111 15.4853 15.716 15.3757 15.716 15.1783C15.716 14.5707 15.1118 13.8404 14.1454 13.8404C13.7447 13.8404 13.4383 13.961 13.2005 14.1233C13.6612 14.4874 13.9333 15.1541 13.7104 15.4853H15.3389ZM10.3292 15.4853H13.0226C13.359 15.4853 13.479 15.3866 13.479 15.1936C13.479 14.6278 12.7869 13.8469 11.6748 13.8469C10.5649 13.8469 9.87277 14.6278 9.87277 15.1936C9.87277 15.3866 9.99278 15.4853 10.3292 15.4853Z" fill="url(#paint3_linear_24_198)" fill-opacity="0.5"/>
<path d="M11.993 12.9544C12.4537 12.9544 12.8501 12.5333 12.8501 11.985C12.8501 11.4432 12.4516 11.0418 11.993 11.0418C11.5345 11.0418 11.1359 11.452 11.1359 11.9893C11.1359 12.5333 11.5323 12.9544 11.993 12.9544ZM9.52671 13.0048C9.92527 13.0048 10.2724 12.6363 10.2724 12.1604C10.2724 11.6888 9.92312 11.3401 9.52671 11.3401C9.12817 11.3401 8.77676 11.6976 8.77889 12.1648C8.77889 12.6363 9.12602 13.0048 9.52671 13.0048ZM14.4593 13.0048C14.86 13.0048 15.2071 12.6363 15.2071 12.1648C15.2071 11.6976 14.8579 11.3401 14.4593 11.3401C14.0629 11.3401 13.7136 11.6888 13.7136 12.1604C13.7136 12.6363 14.0608 13.0048 14.4593 13.0048ZM8.33106 14.9853H9.95956C9.7367 14.6541 10.0088 13.9874 10.4695 13.6233C10.2317 13.461 9.92527 13.3404 9.52458 13.3404C8.5582 13.3404 7.95394 14.0707 7.95394 14.6783C7.95394 14.8757 8.06108 14.9853 8.33106 14.9853ZM15.655 14.9853C15.9271 14.9853 16.0321 14.8757 16.0321 14.6783C16.0321 14.0707 15.4279 13.3404 14.4615 13.3404C14.0608 13.3404 13.7544 13.461 13.5165 13.6233C13.9772 13.9874 14.2493 14.6541 14.0265 14.9853H15.655ZM10.6452 14.9853H13.3387C13.6751 14.9853 13.7951 14.8866 13.7951 14.6936C13.7951 14.1278 13.103 13.3469 11.9909 13.3469C10.8809 13.3469 10.1888 14.1278 10.1888 14.6936C10.1888 14.8866 10.3088 14.9853 10.6452 14.9853Z" fill="url(#paint4_linear_24_198)"/>
<path d="M8.57791 15.7648H15.4595C16.4763 15.7648 17.016 15.2337 17.016 14.193V10.5718C17.016 9.5311 16.4763 9 15.4595 9H8.57791C7.60829 9 7.01605 9.5311 7.01605 10.5718V14.193C7.01605 15.2337 7.55589 15.7648 8.57791 15.7648ZM8.56742 14.9601C8.10094 14.9601 7.85986 14.708 7.85986 14.2359V10.5289C7.85986 10.0568 8.10094 9.81007 8.56742 9.81007H15.4699C15.9312 9.81007 16.1723 10.0568 16.1723 10.5289V14.2359C16.1723 14.708 15.9312 14.9601 15.4699 14.9601H8.56742ZM13.84 19.0963C14.385 19.0963 14.8515 18.7369 15.0245 18.2379H16.6177C16.8326 18.2379 17.016 18.0502 17.016 17.8088C17.016 17.562 16.8326 17.3742 16.6177 17.3742H15.0245C14.8515 16.8753 14.385 16.5212 13.84 16.5212C13.2949 16.5212 12.8284 16.8753 12.6502 17.3742H7.44057C7.20472 17.3742 7.01605 17.562 7.01605 17.8088C7.01605 18.0502 7.20472 18.2379 7.44057 18.2379H12.6502C12.8232 18.7369 13.2949 19.0963 13.84 19.0963ZM13.84 18.4364C13.494 18.4364 13.2268 18.1575 13.2268 17.8088C13.2268 17.4493 13.494 17.1757 13.84 17.1757C14.1859 17.1757 14.4532 17.4493 14.4532 17.8088C14.4532 18.1575 14.1859 18.4364 13.84 18.4364Z" fill="url(#paint5_linear_24_198)"/>
<defs>
<linearGradient id="paint0_linear_24_198" x1="22" y1="2" x2="2" y2="12" gradientUnits="userSpaceOnUse">
<stop stop-color="#E3C880"/>
<stop offset="1" stop-color="#6F5C38"/>
</linearGradient>
<linearGradient id="paint1_linear_24_198" x1="22" y1="6" x2="2.39045" y2="22.465" gradientUnits="userSpaceOnUse">
<stop stop-color="#FFE795"/>
<stop offset="1" stop-color="#7A653E"/>
</linearGradient>
<linearGradient id="paint2_linear_24_198" x1="16.7" y1="9.5" x2="5.17265" y2="17.9054" gradientUnits="userSpaceOnUse">
<stop stop-color="#7A653E" stop-opacity="0"/>
<stop offset="1" stop-color="#7A653E" stop-opacity="0.45"/>
</linearGradient>
<linearGradient id="paint3_linear_24_198" x1="15.716" y1="11.5418" x2="11.36" y2="18.1111" gradientUnits="userSpaceOnUse">
<stop stop-color="#7A653E" stop-opacity="0"/>
<stop offset="1" stop-color="#7A653E" stop-opacity="0.45"/>
</linearGradient>
<linearGradient id="paint4_linear_24_198" x1="16.0321" y1="11.0418" x2="11.676" y2="17.6111" gradientUnits="userSpaceOnUse">
<stop stop-color="#FAFAFA"/>
<stop offset="1" stop-color="#D5D5D5"/>
</linearGradient>
<linearGradient id="paint5_linear_24_198" x1="17.016" y1="9" x2="5.4887" y2="17.4054" gradientUnits="userSpaceOnUse">
<stop stop-color="#FAFAFA"/>
<stop offset="1" stop-color="#D5D5D5"/>
</linearGradient>
</defs>
</svg>
