<svg width="24" height="24" viewBox="0 0 24 24" fill="none" xmlns="http://www.w3.org/2000/svg">
<rect x="2" y="2" width="20" height="20" rx="6" fill="url(#paint0_linear_11_107)"/>
<rect x="4" y="4" width="16" height="16" rx="4" fill="#FAFAFA"/>
<path d="M2 8.73437C2 7.22422 3.22422 6 4.73437 6H8.5368C9.51364 6 10.4607 6.33631 11.2188 6.95238V6.95238C11.9768 7.56846 12.9239 7.90476 13.9007 7.90476H19.2656C20.7758 7.90476 22 9.12898 22 10.6391V16C22 19.3137 19.3137 22 16 22H8C4.68629 22 2 19.3137 2 16V8.73437Z" fill="url(#paint1_linear_11_107)" fill-opacity="0.9"/>
<path opacity="0.220771" d="M9.73024 12.4117C10.6312 12.4117 11.3616 11.6814 11.3616 10.7804C11.3616 9.87941 10.6312 9.14902 9.73024 9.14902C8.82926 9.14902 8.09888 9.87941 8.09888 10.7804C8.09888 11.6814 8.82926 12.4117 9.73024 12.4117Z" fill="black" stroke="black" stroke-width="0.157044" stroke-linecap="round" stroke-linejoin="round"/>
<path d="M9.57551 12.2627C10.4765 12.2627 11.2069 11.5323 11.2069 10.6314C11.2069 9.73039 10.4765 9 9.57551 9C8.67454 9 7.94415 9.73039 7.94415 10.6314C7.94415 11.5323 8.67454 12.2627 9.57551 12.2627Z" fill="url(#paint2_linear_11_107)"/>
<path opacity="0.220771" d="M14.2564 11.9171C14.0351 11.9172 13.8185 11.981 13.6324 12.1008C13.4464 12.2206 13.2986 12.3913 13.2069 12.5927L12.0518 14.5969C12.0456 14.6082 12.0392 14.6193 12.0326 14.6303L12.0208 14.6507H12.0197C11.9429 14.7695 11.8375 14.8672 11.7133 14.9349C11.589 15.0026 11.4497 15.0381 11.3082 15.0382C11.1667 15.0381 11.0275 15.0026 10.9032 14.9349C10.7789 14.8672 10.6736 14.7695 10.5967 14.6507H10.595L10.2781 14.3338C10.1682 14.1909 10.0269 14.0751 9.86518 13.9954C9.70342 13.9157 9.52551 13.8742 9.34518 13.8742C9.10167 13.8744 8.86421 13.9501 8.66554 14.0909C8.46687 14.2317 8.31678 14.4307 8.23595 14.6604L7.42029 16.2301C7.38877 16.2842 7.35989 16.3398 7.33377 16.3967L7.31271 16.4372L7.31477 16.4403C7.20971 16.682 7.15527 16.9427 7.15479 17.2062C7.15478 17.4597 7.20469 17.7107 7.30169 17.9449C7.39869 18.1791 7.54086 18.3919 7.72009 18.5711C7.89932 18.7504 8.11211 18.8925 8.34629 18.9895C8.58047 19.0865 8.83147 19.1365 9.08495 19.1365C9.09917 19.1361 9.11338 19.1356 9.12759 19.1349H15.1175C15.1317 19.1356 15.1459 19.1361 15.1602 19.1365C15.4136 19.1365 15.6646 19.0866 15.8988 18.9896C16.133 18.8926 16.3458 18.7504 16.5251 18.5711C16.7043 18.3919 16.8465 18.1791 16.9435 17.9449C17.0405 17.7107 17.0904 17.4597 17.0904 17.2062C17.0904 16.9231 17.0281 16.6435 16.9079 16.3871L16.9108 16.3826L15.3541 12.7148C15.3333 12.6506 15.3068 12.5883 15.2751 12.5287L15.2633 12.5009H15.2598C15.159 12.3236 15.0131 12.1762 14.8369 12.0737C14.6606 11.9711 14.4604 11.9171 14.2564 11.9171Z" fill="black" stroke="black" stroke-width="0.157044" stroke-linecap="round" stroke-linejoin="round"/>
<path d="M14.1017 11.7681C13.8804 11.7682 13.6637 11.832 13.4777 11.9517C13.2916 12.0715 13.1438 12.2423 13.0521 12.4437L11.897 14.4479C11.8908 14.4592 11.8844 14.4703 11.8778 14.4813L11.866 14.5017H11.865C11.7881 14.6205 11.6827 14.7182 11.5585 14.7859C11.4342 14.8536 11.295 14.8891 11.1534 14.8892C11.0119 14.8891 10.8727 14.8536 10.7484 14.7859C10.6241 14.7182 10.5188 14.6205 10.4419 14.5017H10.4402L10.1233 14.1848C10.0134 14.0418 9.87215 13.926 9.71039 13.8463C9.54864 13.7666 9.37073 13.7252 9.1904 13.7251C8.94689 13.7253 8.70943 13.801 8.51076 13.9419C8.31209 14.0827 8.16199 14.2816 8.08116 14.5114L7.2655 16.0811C7.23398 16.1352 7.20511 16.1908 7.17899 16.2477L7.15793 16.2882L7.15999 16.2913C7.05493 16.533 7.00048 16.7937 7 17.0572C6.99999 17.3107 7.04991 17.5617 7.14691 17.7959C7.2439 18.0301 7.38607 18.2428 7.56531 18.4221C7.74454 18.6013 7.95732 18.7435 8.1915 18.8405C8.42569 18.9375 8.67668 18.9874 8.93016 18.9874C8.94438 18.9871 8.9586 18.9865 8.97281 18.9858H14.9627C14.9769 18.9865 14.9911 18.9871 15.0054 18.9874C15.2589 18.9875 15.5099 18.9375 15.7441 18.8405C15.9782 18.7435 16.191 18.6014 16.3703 18.4221C16.5495 18.2429 16.6917 18.0301 16.7887 17.7959C16.8857 17.5617 16.9356 17.3107 16.9356 17.0572C16.9356 16.7741 16.8733 16.4945 16.7531 16.2381L16.756 16.2336L15.1993 12.5658C15.1785 12.5016 15.1521 12.4393 15.1203 12.3797L15.1085 12.3519H15.105C15.0042 12.1746 14.8583 12.0272 14.6821 11.9246C14.5058 11.8221 14.3056 11.7681 14.1017 11.7681Z" fill="url(#paint3_linear_11_107)"/>
<defs>
<linearGradient id="paint0_linear_11_107" x1="22" y1="2" x2="2" y2="12" gradientUnits="userSpaceOnUse">
<stop stop-color="#E3C880"/>
<stop offset="1" stop-color="#6F5C38"/>
</linearGradient>
<linearGradient id="paint1_linear_11_107" x1="22" y1="6" x2="2.39045" y2="22.465" gradientUnits="userSpaceOnUse">
<stop stop-color="#FFE795"/>
<stop offset="1" stop-color="#7A653E"/>
</linearGradient>
<linearGradient id="paint2_linear_11_107" x1="8.43296" y1="11.5995" x2="10.8137" y2="9.59076" gradientUnits="userSpaceOnUse">
<stop stop-color="#CBC900"/>
<stop offset="1" stop-color="#F4ED12"/>
</linearGradient>
<linearGradient id="paint3_linear_11_107" x1="6.93867" y1="18.5041" x2="16.9346" y2="12.7329" gradientUnits="userSpaceOnUse">
<stop stop-color="#84FAA1"/>
<stop offset="1" stop-color="#33C478"/>
</linearGradient>
</defs>
</svg>
