<?xml version="1.0" encoding="UTF-8" standalone="no"?>
<!-- Created with Inkscape (http://www.inkscape.org/) -->

<svg
   width="122mm"
   height="122mm"
   viewBox="0 0 122 122"
   version="1.1"
   id="svg58695"
   xml:space="preserve"
   xmlns:inkscape="http://www.inkscape.org/namespaces/inkscape"
   xmlns:sodipodi="http://sodipodi.sourceforge.net/DTD/sodipodi-0.dtd"
   xmlns="http://www.w3.org/2000/svg"
   xmlns:svg="http://www.w3.org/2000/svg"><sodipodi:namedview
     id="namedview58697"
     pagecolor="#ffffff"
     bordercolor="#000000"
     borderopacity="0.25"
     inkscape:showpageshadow="2"
     inkscape:pageopacity="0.0"
     inkscape:pagecheckerboard="0"
     inkscape:deskcolor="#d1d1d1"
     inkscape:document-units="mm"
     showgrid="false" /><defs
     id="defs58692"><linearGradient
       id="paint0_linear_16_2"
       x1="23"
       y1="0.99999899"
       x2="1"
       y2="12"
       gradientUnits="userSpaceOnUse"><stop
         stop-color="#E3C880"
         id="stop61012" /><stop
         offset="1"
         stop-color="#6F5C38"
         id="stop61014" /></linearGradient><linearGradient
       id="paint1_linear_16_2"
       x1="23"
       y1="5.4000001"
       x2="1.42949"
       y2="23.511499"
       gradientUnits="userSpaceOnUse"><stop
         stop-color="#FFE795"
         id="stop61017" /><stop
         offset="1"
         stop-color="#7A653E"
         id="stop61019" /></linearGradient></defs><g
     style="fill:none"
     id="g61037"
     transform="matrix(5.5454545,0,0,5.5454545,-5.5454568,-5.5454555)"><rect
       x="1"
       y="1"
       width="22"
       height="22"
       rx="6.5999999"
       fill="url(#paint0_linear_16_2)"
       id="rect61006"
       style="fill:url(#paint0_linear_16_2)"
       inkscape:export-filename="temp-folder.svg"
       inkscape:export-xdpi="26.553411"
       inkscape:export-ydpi="26.553411" /><rect
       x="3.2"
       y="3.2"
       width="17.6"
       height="17.6"
       rx="4.4000001"
       fill="#fafafa"
       id="rect61008" /><path
       d="M 1,8.40781 C 1,6.74664 2.34664,5.4 4.00781,5.4 h 4.18267 c 1.07452,0 2.11632,0.36994 2.95012,1.04762 v 0 c 0.8339,0.67768 1.8756,1.04762 2.9502,1.04762 h 5.9014 C 21.6534,7.49524 23,8.84188 23,10.5031 V 16.4 C 23,20.0451 20.0451,23 16.4,23 H 7.6 C 3.95492,23 1,20.0451 1,16.4 Z"
       fill="url(#paint1_linear_16_2)"
       fill-opacity="0.9"
       id="path61010"
       style="fill:url(#paint1_linear_16_2)" /><g
       id="g61048"
       transform="matrix(0.3035364,0,0,0.3035364,-62.188108,-36.469836)"><path
         opacity="0.4"
         d="m 246.98285,185.16098 c 10.04359,0 18.18535,-8.14203 18.18535,-18.18535 0,-10.04332 -8.14176,-18.18513 -18.18535,-18.18513 -10.04331,0 -18.18513,8.14181 -18.18513,18.18513 0,10.04332 8.14182,18.18535 18.18513,18.18535 z"
         fill="#fafafa"
         id="path60986"
         style="stroke-width:0.264583" /><path
         d="m 253.73079,174.12256 c -0.23654,0 -0.47281,-0.0545 -0.69109,-0.20003 l -5.63748,-3.36417 c -1.40018,-0.83662 -2.43681,-2.67335 -2.43681,-4.29181 v -7.45596 c 0,-0.74559 0.61833,-1.36393 1.36392,-1.36393 0.7456,0 1.36393,0.61834 1.36393,1.36393 v 7.45596 c 0,0.65458 0.54557,1.61846 1.1094,1.94575 l 5.63748,3.36444 c 0.65457,0.38179 0.8546,1.2184 0.47281,1.87298 -0.27279,0.4363 -0.72761,0.67284 -1.18216,0.67284 z"
         fill="#fafafa"
         id="path60988"
         style="stroke-width:0.264583" /><path
         d="m 241.25992,167.67307 c 0,-0.53895 -0.17119,-0.96572 -0.49213,-1.30254 l -8.85441,-9.2538 c -0.36357,-0.38179 -0.79137,-0.56145 -1.28323,-0.56145 -0.47059,0 -0.9411,0.20214 -1.28328,0.56145 l -8.94009,9.2538 c -0.34218,0.31433 -0.51329,0.76359 -0.51329,1.32503 0,0.98822 0.76999,1.75207 1.75382,1.75207 0.44915,0 0.87685,-0.15716 1.21914,-0.49424 l 5.60346,-5.99678 c -0.21381,1.28006 -0.34211,2.60535 -0.34211,3.9079 0,11.00561 8.40531,19.83264 18.88522,19.83264 10.50131,0 18.92802,-8.82703 18.92802,-19.83264 0,-11.00535 -8.42671,-19.85486 -18.92802,-19.85486 -1.02659,0 -1.77509,0.76358 -1.77509,1.88663 0,1.05566 0.7485,1.72943 1.77509,1.72943 8.5979,0 15.48474,7.23238 15.48474,16.2388 0,9.00668 -6.88684,16.21658 -15.48474,16.21658 -8.57647,0 -15.44185,-7.2099 -15.44185,-16.21658 0,-1.72932 0.12829,-3.27925 0.40634,-4.64926 l 6.35215,6.71565 c 0.34237,0.35957 0.76993,0.51673 1.2192,0.51673 0.98372,0 1.71106,-0.76385 1.71106,-1.77456 z"
         fill="#fafafa"
         id="path60990"
         style="stroke-width:0.264583" /></g></g></svg>
