<?xml version="1.0" encoding="UTF-8" standalone="no"?>
<svg
   width="24"
   height="24"
   viewBox="0 0 24 24"
   fill="none"
   version="1.1"
   id="svg20"
   sodipodi:docname="default-folder-system.svg"
   inkscape:version="1.3 (0e150ed6c4, 2023-07-21)"
   xmlns:inkscape="http://www.inkscape.org/namespaces/inkscape"
   xmlns:sodipodi="http://sodipodi.sourceforge.net/DTD/sodipodi-0.dtd"
   xmlns="http://www.w3.org/2000/svg"
   xmlns:svg="http://www.w3.org/2000/svg">
  <sodipodi:namedview
     id="namedview20"
     pagecolor="#ffffff"
     bordercolor="#000000"
     borderopacity="0.25"
     inkscape:showpageshadow="2"
     inkscape:pageopacity="0.0"
     inkscape:pagecheckerboard="0"
     inkscape:deskcolor="#d1d1d1"
     inkscape:zoom="33.791667"
     inkscape:cx="12"
     inkscape:cy="12"
     inkscape:window-width="2560"
     inkscape:window-height="998"
     inkscape:window-x="0"
     inkscape:window-y="0"
     inkscape:window-maximized="1"
     inkscape:current-layer="svg20" />
  <rect
     opacity="0.8125"
     x="1"
     y="1"
     width="22"
     height="22"
     rx="6.6"
     fill="url(#paint0_linear_211_10)"
     id="rect1" />
  <rect
     opacity="0.125"
     x="3"
     y="2.25"
     width="18"
     height="18"
     rx="4.4"
     fill="url(#paint1_linear_211_10)"
     fill-opacity="0.875"
     id="rect2" />
  <rect
     x="3.25"
     y="3.25"
     width="17.5"
     height="17.5"
     rx="4.15"
     fill="#CCCCCC"
     stroke="url(#paint2_linear_211_10)"
     stroke-width="0.5"
     id="rect3" />
  <path
     opacity="0.125"
     d="M1 7.50781C1 5.84664 2.34664 4.5 4.00781 4.5H8.19048C9.265 4.5 10.3068 4.86994 11.1406 5.54762V5.54762C11.9745 6.2253 13.0162 6.59524 14.0908 6.59524H19.9922C21.6534 6.59524 23 7.94188 23 9.60305V15.5C23 19.1451 20.0451 22.1 16.4 22.1H7.6C3.95492 22.1 1 19.1451 1 15.5V7.50781Z"
     fill="url(#paint3_linear_211_10)"
     fill-opacity="0.875"
     id="path3" />
  <g
     opacity="0.875"
     id="g5">
    <path
       d="M1 8.40781C1 6.74664 2.34664 5.4 4.00781 5.4H8.19048C9.265 5.4 10.3068 5.76994 11.1406 6.44762V6.44762C11.9745 7.1253 13.0162 7.49524 14.0908 7.49524H19.9922C21.6534 7.49524 23 8.84188 23 10.5031V16.4C23 20.0451 20.0451 23 16.4 23H7.6C3.95492 23 1 20.0451 1 16.4V8.40781Z"
       fill="url(#paint4_linear_211_10)"
       id="path4" />
    <path
       d="M22.625 10.5031V16.4C22.625 19.838 19.838 22.625 16.4 22.625H7.6C4.16203 22.625 1.375 19.838 1.375 16.4V8.40781C1.375 6.95375 2.55375 5.775 4.00781 5.775H8.19048C9.17886 5.775 10.1371 6.11528 10.9041 6.73863C11.8048 7.47064 12.9301 7.87024 14.0908 7.87024H19.9922C21.4462 7.87024 22.625 9.04899 22.625 10.5031Z"
       stroke="url(#paint5_linear_211_10)"
       stroke-opacity="0.375"
       stroke-width="0.75"
       stroke-linejoin="round"
       id="path5" />
  </g>
  <path
     d="m 11.140972,9.0716937 c -0.298973,-9.5e-6 -0.585695,0.1186442 -0.796647,0.3295076 -0.210955,0.2108541 -0.328896,0.4962325 -0.327497,0.7937367 -0.0089,0.614237 -0.5115601,1.107364 -1.1290164,1.107364 -0.1902766,-0.002 -0.3768615,-0.05409 -0.5405215,-0.150704 -0.5402338,-0.307992 -1.2294272,-0.122763 -1.5402646,0.414014 l -0.3939927,0.645525 c -0.3104783,0.536025 -0.1275604,1.221343 0.4100047,1.532347 0.3494047,0.200657 0.5651342,0.571207 0.5651342,0.97252 0,0.401408 -0.2157295,0.771865 -0.5651342,0.972616 -0.5368555,0.308935 -0.7199839,0.993029 -0.4100047,1.527455 l 0.3718297,0.639412 c 0.1456545,0.261427 0.3906333,0.454745 0.6796487,0.536494 0.2890068,0.08174 0.5985316,0.0445 0.8606245,-0.101692 0.2576315,-0.149576 0.5650552,-0.190685 0.85324,-0.113922 0.2881753,0.07667 0.5339591,0.265472 0.6820976,0.523044 0.09712,0.162839 0.1482177,0.348349 0.1502297,0.537717 0,0.620503 0.506513,1.123226 1.130269,1.123226 h 0.73995 c 0.621568,0 1.126069,-0.499901 1.129043,-1.118334 -0.0016,-0.298398 0.116632,-0.585225 0.328722,-0.796229 0.212089,-0.211004 0.5003,-0.328501 0.800234,-0.326995 0.189865,0.005 0.375705,0.05682 0.540548,0.15061 0.538885,0.308932 1.227651,0.12568 1.540273,-0.409122 l 0.389093,-0.644209 c 0.150578,-0.257193 0.191529,-0.563777 0.114446,-0.851356 -0.07708,-0.287486 -0.266425,-0.532638 -0.525675,-0.681085 -0.259337,-0.148352 -0.447453,-0.393505 -0.524536,-0.68099 -0.07708,-0.28758 -0.03603,-0.594162 0.114531,-0.851356 0.09791,-0.16999 0.239039,-0.310439 0.410005,-0.407898 0.534248,-0.31091 0.718076,-0.992559 0.411229,-1.52736 v -0.0049 l -0.36818,-0.634518 c -0.310873,-0.536722 -0.998676,-0.72195 -1.538963,-0.413957 -0.257149,0.150705 -0.564345,0.193413 -0.853257,0.118814 -0.288911,-0.0747 -0.535998,-0.26077 -0.687015,-0.516929 C 13.0643,10.601701 13.011978,10.417318 13.009965,10.228017 13.018765,9.9244578 12.903832,9.6299168 12.691044,9.4121955 12.478342,9.1945162 12.186105,9.0715917 11.880922,9.0717139 Z m 0.338607,3.7629553 c 0.01068,-9.3e-5 0.02136,-9.3e-5 0.03203,0 0.501524,0 0.982574,0.198211 1.337194,0.551077 0.354708,0.352866 0.553936,0.831412 0.553936,1.330373 0,0.247034 -0.04892,0.491717 -0.14393,0.720031 -0.0951,0.228219 -0.234401,0.435649 -0.410006,0.610342 -0.175603,0.174693 -0.384018,0.313355 -0.613519,0.407899 -0.229415,0.09454 -0.475362,0.143177 -0.723675,0.143177 -0.2484,0 -0.494264,-0.04863 -0.723765,-0.143177 -0.229414,-0.09455 -0.437915,-0.233206 -0.61352,-0.407899 C 9.9987242,15.871779 9.8594313,15.664349 9.7644101,15.43613 9.6693346,15.207816 9.6204187,14.963133 9.6204272,14.716099 c -7.81e-5,-0.493504 0.1948181,-0.967346 0.5425258,-1.319272 0.347794,-0.351926 0.820621,-0.553806 1.316634,-0.562178 z"
     fill="url(#paint6_linear_211_10)"
     id="path21"
     style="opacity:0.15;fill:#1a1a1a;stroke-width:0.907247" />
  <path
     d="M 11.617483,8.5000396 C 11.31851,8.5000302 11.031788,8.6186839 10.820836,8.8295473 10.609881,9.0404014 10.491939,9.3257797 10.493339,9.6232838 10.484439,10.237521 9.9817783,10.730649 9.3643221,10.730649 9.1740454,10.728649 8.9874605,10.676559 8.8238006,10.579944 8.2835667,10.271952 7.5943733,10.457181 7.283536,10.993958 l -0.3939927,0.645525 c -0.3104783,0.536025 -0.1275604,1.221343 0.4100046,1.532347 0.3494048,0.200657 0.5651343,0.571207 0.5651343,0.972521 0,0.401407 -0.2157295,0.771864 -0.5651343,0.972615 -0.5368554,0.308935 -0.7199838,0.993029 -0.4100046,1.527455 l 0.3718296,0.639412 c 0.1456545,0.261427 0.3906334,0.454745 0.6796487,0.536494 0.2890068,0.08174 0.5985317,0.0445 0.8606245,-0.101692 0.2576315,-0.149576 0.5650552,-0.190685 0.85324,-0.113922 0.2881753,0.07667 0.5339599,0.265472 0.6820979,0.523044 0.09712,0.162839 0.148218,0.348349 0.15023,0.537717 0,0.620503 0.506513,1.123226 1.130269,1.123226 h 0.73995 c 0.621568,0 1.126068,-0.4999 1.129043,-1.118334 -0.0016,-0.298398 0.116632,-0.585225 0.328722,-0.796229 0.212089,-0.211004 0.500299,-0.328501 0.800234,-0.326995 0.189865,0.005 0.375705,0.05682 0.540548,0.15061 0.538885,0.308933 1.227651,0.12568 1.540272,-0.409122 l 0.389094,-0.644209 c 0.150578,-0.257193 0.191529,-0.563777 0.114445,-0.851356 -0.07708,-0.287486 -0.266424,-0.532638 -0.525674,-0.681085 -0.259337,-0.148352 -0.447453,-0.393505 -0.524536,-0.68099 -0.07708,-0.28758 -0.03603,-0.594162 0.11453,-0.851356 0.09791,-0.16999 0.23904,-0.310439 0.410006,-0.407898 0.534248,-0.31091 0.718076,-0.992559 0.411229,-1.52736 v -0.0049 l -0.36818,-0.634518 c -0.310873,-0.536722 -0.998677,-0.72195 -1.538963,-0.413957 -0.257149,0.150705 -0.564346,0.193413 -0.853257,0.118814 -0.288912,-0.0747 -0.535998,-0.26077 -0.687015,-0.516929 C 13.54081,10.030089 13.488488,9.8457068 13.486476,9.6564048 13.495239,9.3528458 13.380343,9.058305 13.167555,8.8405835 12.954853,8.6228622 12.662616,8.4999376 12.357433,8.5000599 Z m 0.338607,3.7629554 c 0.01068,-9.3e-5 0.02135,-9.3e-5 0.03203,0 0.501523,0 0.982574,0.198211 1.337194,0.551077 0.354708,0.352866 0.553935,0.831412 0.553935,1.330373 0,0.247034 -0.04892,0.491717 -0.143929,0.720031 -0.0951,0.22822 -0.234401,0.435649 -0.410006,0.610342 -0.175603,0.174693 -0.384018,0.313355 -0.613519,0.407899 -0.229415,0.09454 -0.475363,0.143177 -0.723675,0.143177 -0.2484,0 -0.494264,-0.04863 -0.723765,-0.143177 -0.229414,-0.09455 -0.437915,-0.233206 -0.61352,-0.407899 -0.175602,-0.174693 -0.314895,-0.382122 -0.409916,-0.610342 -0.09508,-0.228314 -0.143992,-0.472997 -0.143983,-0.720031 -7.8e-5,-0.493504 0.194818,-0.967346 0.542526,-1.319272 0.347794,-0.351926 0.82062,-0.553806 1.316634,-0.562178 z"
     fill="url(#paint6_linear_211_10)"
     id="path6"
     style="fill:url(#paint6_linear_211_10);stroke-width:0.907247" />
  <defs
     id="defs20">
    <linearGradient
       id="paint0_linear_211_10"
       x1="23"
       y1="0.999999"
       x2="1"
       y2="12"
       gradientUnits="userSpaceOnUse">
      <stop
         stop-color="#E3C880"
         id="stop6" />
      <stop
         offset="1"
         stop-color="#6F5C38"
         id="stop7" />
    </linearGradient>
    <linearGradient
       id="paint1_linear_211_10"
       x1="21"
       y1="4"
       x2="3"
       y2="4"
       gradientUnits="userSpaceOnUse">
      <stop
         stop-opacity="0.5"
         id="stop8" />
      <stop
         offset="0.890123"
         id="stop9" />
      <stop
         offset="1"
         stop-opacity="0"
         id="stop10" />
    </linearGradient>
    <linearGradient
       id="paint2_linear_211_10"
       x1="12"
       y1="3"
       x2="11.5"
       y2="8"
       gradientUnits="userSpaceOnUse">
      <stop
         stop-color="#DDDDDD"
         id="stop11" />
      <stop
         offset="1"
         stop-color="#CCCCCC"
         stop-opacity="0"
         id="stop12" />
    </linearGradient>
    <linearGradient
       id="paint3_linear_211_10"
       x1="23"
       y1="9"
       x2="1.01236"
       y2="9.52141"
       gradientUnits="userSpaceOnUse">
      <stop
         stop-opacity="0.5"
         id="stop13" />
      <stop
         offset="1"
         id="stop14" />
    </linearGradient>
    <linearGradient
       id="paint4_linear_211_10"
       x1="23"
       y1="5.4"
       x2="1.42949"
       y2="23.5115"
       gradientUnits="userSpaceOnUse">
      <stop
         stop-color="#FFE795"
         id="stop15" />
      <stop
         offset="1"
         stop-color="#7A653E"
         id="stop16" />
    </linearGradient>
    <linearGradient
       id="paint5_linear_211_10"
       x1="15"
       y1="5.5"
       x2="5.5"
       y2="19.5"
       gradientUnits="userSpaceOnUse">
      <stop
         stop-color="#FFE795"
         id="stop17" />
      <stop
         offset="1"
         stop-color="#7A653E"
         id="stop18" />
    </linearGradient>
    <linearGradient
       id="paint6_linear_211_10"
       x1="18"
       y1="9"
       x2="6"
       y2="21"
       gradientUnits="userSpaceOnUse"
       gradientTransform="matrix(0.87495626,0,0,0.94072478,1.48864,0.5038411)">
      <stop
         stop-color="#999999"
         id="stop19" />
      <stop
         offset="1"
         stop-color="#333333"
         id="stop20" />
    </linearGradient>
  </defs>
</svg>
