<svg width="24" height="24" viewBox="0 0 24 24" fill="none" xmlns="http://www.w3.org/2000/svg">
<rect opacity="0.8125" x="1" y="1" width="22" height="22" rx="6.6" fill="url(#paint0_linear_31_25)"/>
<rect opacity="0.125" x="3" y="2.25" width="18" height="18" rx="4.4" fill="url(#paint1_linear_31_25)" fill-opacity="0.875"/>
<rect x="3.25" y="3.25" width="17.5" height="17.5" rx="4.15" fill="#CCCCCC" stroke="url(#paint2_linear_31_25)" stroke-width="0.5"/>
<path opacity="0.125" d="M1 7.50781C1 5.84664 2.34664 4.5 4.00781 4.5H8.19048C9.265 4.5 10.3068 4.86994 11.1406 5.54762V5.54762C11.9745 6.2253 13.0162 6.59524 14.0908 6.59524H19.9922C21.6534 6.59524 23 7.94188 23 9.60305V15.5C23 19.1451 20.0451 22.1 16.4 22.1H7.6C3.95492 22.1 1 19.1451 1 15.5V7.50781Z" fill="url(#paint3_linear_31_25)" fill-opacity="0.875"/>
<g opacity="0.875">
<path d="M1 8.40782C1 6.74665 2.34664 5.4 4.00781 5.4H8.19048C9.265 5.4 10.3068 5.76994 11.1406 6.44762V6.44762C11.9745 7.1253 13.0162 7.49524 14.0908 7.49524H19.9922C21.6534 7.49524 23 8.84188 23 10.5031V16.4C23 20.0451 20.0451 23 16.4 23H7.6C3.95492 23 1 20.0451 1 16.4V8.40782Z" fill="url(#paint4_linear_31_25)"/>
<path d="M22.625 10.5031V16.4C22.625 19.838 19.838 22.625 16.4 22.625H7.6C4.16203 22.625 1.375 19.838 1.375 16.4V8.40782C1.375 6.95375 2.55375 5.775 4.00781 5.775H8.19048C9.17886 5.775 10.1371 6.11528 10.9041 6.73864C11.8048 7.47065 12.9301 7.87024 14.0908 7.87024H19.9922C21.4462 7.87024 22.625 9.04899 22.625 10.5031Z" stroke="url(#paint5_linear_31_25)" stroke-opacity="0.375" stroke-width="0.75" stroke-linejoin="round"/>
</g>
<path opacity="0.5" d="M8.74917 20.275V19.3571L9.66705 18.4247H7.3942C6.91147 18.4247 6.50425 18.2588 6.17255 17.9271C5.84085 17.5954 5.675 17.1882 5.675 16.7055V10.9942C5.675 10.5115 5.84085 10.1042 6.17255 9.77255C6.50425 9.44085 6.91147 9.275 7.3942 9.275H11.0657V10.9942H7.3942V16.7055H16.1359V15.0008H17.8551V16.7055C17.8551 17.1882 17.6893 17.5954 17.3576 17.9271C17.0259 18.2588 16.6187 18.4247 16.1359 18.4247H13.8631L14.781 19.3571V20.275H8.74917ZM13.6445 16.2684L10.381 13.0048L11.5902 11.7955L12.7849 12.9902V9.275H14.5041V12.9902L15.6988 11.7955L16.9081 13.0048L13.6445 16.2684Z" fill="#6F5C38" fill-opacity="0.5"/>
<path d="M9.29917 20V19.0821L10.2171 18.1497H7.94421C7.46147 18.1497 7.05425 17.9838 6.72255 17.6521C6.39085 17.3204 6.225 16.9132 6.225 16.4305V10.7192C6.225 10.2365 6.39085 9.82925 6.72255 9.49755C7.05425 9.16585 7.46147 9 7.94421 9H11.6157V10.7192H7.94421V16.4305H16.6859V14.7258H18.4051V16.4305C18.4051 16.9132 18.2393 17.3204 17.9076 17.6521C17.5759 17.9838 17.1687 18.1497 16.6859 18.1497H14.4131L15.331 19.0821V20H9.29917ZM14.1945 15.9934L10.931 12.7298L12.1402 11.5205L13.3349 12.7152V9H15.0541V12.7152L16.2488 11.5205L17.4581 12.7298L14.1945 15.9934Z" fill="url(#paint6_radial_31_25)"/>
<defs>
<linearGradient id="paint0_linear_31_25" x1="23" y1="0.999999" x2="1" y2="12" gradientUnits="userSpaceOnUse">
<stop stop-color="#E3C880"/>
<stop offset="1" stop-color="#6F5C38"/>
</linearGradient>
<linearGradient id="paint1_linear_31_25" x1="21" y1="4" x2="3" y2="4" gradientUnits="userSpaceOnUse">
<stop stop-opacity="0.5"/>
<stop offset="0.890123"/>
<stop offset="1" stop-opacity="0"/>
</linearGradient>
<linearGradient id="paint2_linear_31_25" x1="12" y1="3" x2="11.5" y2="8" gradientUnits="userSpaceOnUse">
<stop stop-color="#DDDDDD"/>
<stop offset="1" stop-color="#CCCCCC" stop-opacity="0"/>
</linearGradient>
<linearGradient id="paint3_linear_31_25" x1="23" y1="9" x2="1.01236" y2="9.52141" gradientUnits="userSpaceOnUse">
<stop stop-opacity="0.5"/>
<stop offset="1"/>
</linearGradient>
<linearGradient id="paint4_linear_31_25" x1="23" y1="5.4" x2="1.42949" y2="23.5115" gradientUnits="userSpaceOnUse">
<stop stop-color="#FFE795"/>
<stop offset="1" stop-color="#7A653E"/>
</linearGradient>
<linearGradient id="paint5_linear_31_25" x1="15" y1="5.5" x2="5.5" y2="19.5" gradientUnits="userSpaceOnUse">
<stop stop-color="#FFE795"/>
<stop offset="1" stop-color="#7A653E"/>
</linearGradient>
<radialGradient id="paint6_radial_31_25" cx="0" cy="0" r="1" gradientUnits="userSpaceOnUse" gradientTransform="translate(18.875 9) rotate(139.185) scale(15.9879 17.7031)">
<stop stop-color="#72CB72"/>
<stop offset="1" stop-color="#1C6D1C"/>
</radialGradient>
</defs>
</svg>
