<svg width="24" height="24" viewBox="0 0 24 24" fill="none" xmlns="http://www.w3.org/2000/svg">
<rect x="2" y="2" width="20" height="20" rx="6" fill="url(#paint0_linear_11_76)"/>
<path d="M4 8C4 5.79086 5.79086 4 8 4H16C18.2091 4 20 5.79086 20 8V16C20 18.2091 18.2091 20 16 20H8C5.79086 20 4 18.2091 4 16V8Z" fill="#FAFAFA"/>
<path d="M2 8.73437C2 7.22422 3.22422 6 4.73437 6H8.5368C9.51364 6 10.4607 6.33631 11.2188 6.95238V6.95238C11.9768 7.56846 12.9239 7.90476 13.9007 7.90476H19.2656C20.7758 7.90476 22 9.12898 22 10.6391V16C22 19.3137 19.3137 22 16 22H8C4.68629 22 2 19.3137 2 16V8.73437Z" fill="url(#paint1_linear_11_76)" fill-opacity="0.9"/>
<path d="M14.7684 15.9126C14.7684 17.256 13.7449 17.7631 13.0687 17.7631C12.2965 17.7631 11.7437 17.2605 11.7437 16.5477C11.7437 15.8487 12.1777 15.3689 13.1098 15.177L13.8363 15.0217C14.0236 14.9851 14.1196 14.8481 14.1196 14.6379L14.1027 11.509L10.724 12.2011C10.5184 12.2422 10.4818 12.2833 10.4818 12.5118V16.6924C10.4818 18.0358 9.45834 18.5429 8.78211 18.5429C8.00994 18.5429 7.4571 18.0403 7.4571 17.3275C7.4571 16.6285 7.89114 16.1487 8.82324 15.9568L9.54973 15.8015C9.73705 15.7649 9.833 15.6279 9.833 15.4177L9.80558 10.3369C9.80558 10.0627 9.97463 9.89826 10.2853 9.82972L14.3137 9.01034C14.5605 8.95552 14.7706 9.12455 14.7706 9.38042V11.103C14.7706 11.1166 14.7699 11.13 14.7684 11.1431V15.9126Z" fill="url(#paint2_linear_11_76)"/>
<path fill-rule="evenodd" clip-rule="evenodd" d="M14.0071 17.4676C13.7011 17.6728 13.354 17.7631 13.0687 17.7631C12.2965 17.7631 11.7437 17.2605 11.7437 16.5477C11.7437 16.309 11.7943 16.0958 11.8981 15.911C11.4839 16.1619 11.2866 16.5335 11.2866 17.0048C11.2866 17.7176 11.8394 18.2202 12.6116 18.2202C13.0566 18.2202 13.652 18.0006 14.0071 17.4676ZM13.6623 15.0589L13.8363 15.0217C14.0236 14.9851 14.1196 14.8481 14.1196 14.6379L14.1027 11.509L10.724 12.2011C10.5184 12.2422 10.4818 12.2833 10.4818 12.5118V12.6141L13.6456 11.9661L13.6623 15.0589ZM9.80718 10.2917C9.5099 10.3629 9.34848 10.5261 9.34848 10.794L9.37571 15.8387L9.54973 15.8015C9.73705 15.7649 9.833 15.6279 9.833 15.4177L9.80558 10.3369C9.80558 10.3215 9.80611 10.3064 9.80718 10.2917ZM7.61153 16.6908C7.50772 16.8756 7.4571 17.0888 7.4571 17.3275C7.4571 18.0403 8.00994 18.5429 8.78211 18.5429C9.06742 18.5429 9.41454 18.4526 9.72053 18.2474C9.3654 18.7804 8.77002 19 8.32501 19C7.55285 19 7 18.4974 7 17.7846C7 17.3133 7.19731 16.9417 7.61153 16.6908Z" fill="url(#paint3_linear_11_76)" fill-opacity="0.5"/>
<defs>
<linearGradient id="paint0_linear_11_76" x1="22" y1="2" x2="2" y2="12" gradientUnits="userSpaceOnUse">
<stop stop-color="#E3C880"/>
<stop offset="1" stop-color="#6F5C38"/>
</linearGradient>
<linearGradient id="paint1_linear_11_76" x1="22" y1="6" x2="2.39045" y2="22.465" gradientUnits="userSpaceOnUse">
<stop stop-color="#FFE795"/>
<stop offset="1" stop-color="#7A653E"/>
</linearGradient>
<linearGradient id="paint2_linear_11_76" x1="15.2277" y1="8.08581" x2="7" y2="19.0561" gradientUnits="userSpaceOnUse">
<stop stop-color="#D9867F"/>
<stop offset="1" stop-color="#8B403A"/>
</linearGradient>
<linearGradient id="paint3_linear_11_76" x1="7" y1="19.0561" x2="15.2277" y2="8.08581" gradientUnits="userSpaceOnUse">
<stop stop-color="#54452A" stop-opacity="0.35"/>
<stop offset="1" stop-color="#7A653E" stop-opacity="0.45"/>
</linearGradient>
</defs>
</svg>
