<svg width="24" height="24" viewBox="0 0 24 24" fill="none" xmlns="http://www.w3.org/2000/svg">
<path d="M16.4 1H7.6C3.95492 1 1 3.95492 1 7.6V16.4C1 20.0451 3.95492 23 7.6 23H16.4C20.0451 23 23 20.0451 23 16.4V7.6C23 3.95492 20.0451 1 16.4 1Z" fill="url(#paint0_linear_35_2)"/>
<path d="M16.4 3.2H7.6C5.16995 3.2 3.2 5.16995 3.2 7.6V16.4C3.2 18.8301 5.16995 20.8 7.6 20.8H16.4C18.8301 20.8 20.8 18.8301 20.8 16.4V7.6C20.8 5.16995 18.8301 3.2 16.4 3.2Z" fill="#FAFAFA"/>
<path d="M1 8.40781C1 6.74664 2.34664 5.4 4.00781 5.4H8.19048C9.265 5.4 10.3068 5.76994 11.1407 6.44762C11.9745 7.12531 13.0163 7.49524 14.0908 7.49524H19.9922C21.6534 7.49524 23 8.84188 23 10.503V16.4C23 20.0451 20.0451 23 16.4 23H7.6C3.95492 23 1 20.0451 1 16.4V8.40781Z" fill="url(#paint1_linear_35_2)" fill-opacity="0.9"/>
<path d="M16.2281 16.2077L14.5687 12.327C14.2666 11.6167 13.816 11.2138 13.3017 11.1873C12.7928 11.1608 12.2998 11.516 11.9234 12.1946L10.9161 14.0023C10.704 14.384 10.4019 14.612 10.0732 14.6385C9.73916 14.6704 9.40518 14.4954 9.1348 14.1507L9.01817 14.0023C8.64177 13.5305 8.17525 13.3025 7.69812 13.3503C7.221 13.398 6.81279 13.7267 6.54242 14.2622L5.62527 16.0911C5.29658 16.7538 5.32839 17.5224 5.71539 18.148C6.1024 18.7736 6.77567 19.15 7.51257 19.15H14.2772C14.9876 19.15 15.6502 18.7948 16.0425 18.201C16.4454 17.6073 16.5091 16.8598 16.2281 16.2077Z" fill="url(#paint2_linear_35_2)" fill-opacity="0.5"/>
<path d="M8.25009 11.7337C9.23971 11.7337 10.0419 10.9315 10.0419 9.94188C10.0419 8.95225 9.23971 8.15 8.25009 8.15C7.26046 8.15 6.45821 8.95225 6.45821 9.94188C6.45821 10.9315 7.26046 11.7337 8.25009 11.7337Z" fill="url(#paint3_linear_35_2)" fill-opacity="0.5"/>
<path d="M17.3281 15.6577L15.6687 11.7771C15.3666 11.0667 14.916 10.6638 14.4017 10.6373C13.8928 10.6108 13.3998 10.966 13.0233 11.6445L12.0161 13.4523C11.804 13.834 11.5019 14.062 11.1732 14.0885C10.8392 14.1204 10.5052 13.9454 10.2348 13.6007L10.1182 13.4523C9.74177 12.9805 9.27525 12.7525 8.79812 12.8003C8.321 12.848 7.91279 13.1767 7.64242 13.7122L6.72527 15.5411C6.39658 16.2038 6.42839 16.9724 6.81539 17.598C7.2024 18.2236 7.87567 18.6 8.61257 18.6H15.3772C16.0876 18.6 16.7502 18.2448 17.1425 17.651C17.5454 17.0573 17.6091 16.3098 17.3281 15.6577Z" fill="url(#paint4_linear_35_2)"/>
<path d="M9.35009 11.1837C10.3397 11.1837 11.1419 10.3815 11.1419 9.39188C11.1419 8.40225 10.3397 7.6 9.35009 7.6C8.36046 7.6 7.55821 8.40225 7.55821 9.39188C7.55821 10.3815 8.36046 11.1837 9.35009 11.1837Z" fill="url(#paint5_linear_35_2)"/>
<defs>
<linearGradient id="paint0_linear_35_2" x1="23" y1="0.999999" x2="1" y2="12" gradientUnits="userSpaceOnUse">
<stop stop-color="#E3C880"/>
<stop offset="1" stop-color="#6F5C38"/>
</linearGradient>
<linearGradient id="paint1_linear_35_2" x1="23" y1="5.4" x2="1.42949" y2="23.5115" gradientUnits="userSpaceOnUse">
<stop stop-color="#FFE795"/>
<stop offset="1" stop-color="#7A653E"/>
</linearGradient>
<linearGradient id="paint2_linear_35_2" x1="4.3" y1="19.5482" x2="14.3874" y2="6.6872" gradientUnits="userSpaceOnUse">
<stop stop-color="#54452A" stop-opacity="0.35"/>
<stop offset="1" stop-color="#54452A" stop-opacity="0"/>
</linearGradient>
<linearGradient id="paint3_linear_35_2" x1="6.09984" y1="11.9129" x2="10.7587" y2="7.61259" gradientUnits="userSpaceOnUse">
<stop stop-color="#54452A" stop-opacity="0.35"/>
<stop offset="1" stop-color="#54452A" stop-opacity="0"/>
</linearGradient>
<linearGradient id="paint4_linear_35_2" x1="18.6" y1="9.83948" x2="9.52067" y2="22.3798" gradientUnits="userSpaceOnUse">
<stop stop-color="#3C9BCE"/>
<stop offset="1" stop-color="#00405F"/>
</linearGradient>
<linearGradient id="paint5_linear_35_2" x1="11.5002" y1="7.24162" x2="7.19971" y2="11.542" gradientUnits="userSpaceOnUse">
<stop stop-color="#3C9BCE"/>
<stop offset="1" stop-color="#00405F"/>
</linearGradient>
</defs>
</svg>
