<svg width="24" height="24" viewBox="0 0 24 24" fill="none" xmlns="http://www.w3.org/2000/svg">
<rect x="1" y="1" width="22" height="22" rx="6.6" fill="url(#paint0_linear_11_50)"/>
<rect x="3.2" y="3.2" width="17.6" height="17.6" rx="4.4" fill="#FAFAFA"/>
<path d="M1 8.40781C1 6.74664 2.34664 5.4 4.00781 5.4H8.19048C9.265 5.4 10.3068 5.76994 11.1406 6.44762V6.44762C11.9745 7.1253 13.0162 7.49524 14.0908 7.49524H19.9922C21.6534 7.49524 23 8.84188 23 10.5031V16.4C23 20.0451 20.0451 23 16.4 23H7.6C3.95492 23 1 20.0451 1 16.4V8.40781Z" fill="url(#paint1_linear_11_50)" fill-opacity="0.9"/>
<path d="M15.0236 16.316C15.0236 17.3236 14.2068 18.1404 13.1991 18.1404H7.46509C6.45747 18.1404 5.64062 17.3236 5.64062 16.316V11.6245C5.64062 10.6168 6.45747 9.8 7.46509 9.8H13.1991C14.2068 9.8 15.0236 10.6168 15.0236 11.6245V16.316ZM17.5546 10.5798C18.0063 10.5798 18.3754 10.9334 18.4003 11.3788L18.4017 11.4269V16.5509C18.4017 16.7504 18.3313 16.9434 18.2029 17.0961C17.913 17.4409 17.4068 17.4965 17.0499 17.2313L17.0094 17.1993L15.8512 16.2253C15.657 16.062 15.5449 15.8213 15.5449 15.5676V12.4254C15.5449 12.174 15.655 11.9352 15.8462 11.7719L17.0044 10.7828C17.1425 10.6649 17.3143 10.5948 17.4943 10.582L17.5546 10.5798Z" fill="url(#paint2_linear_11_50)"/>
<path fill-rule="evenodd" clip-rule="evenodd" d="M14.6242 17.4553C14.8742 17.1431 15.0236 16.747 15.0236 16.316V12.4639L15.6638 11.9172C15.701 11.8854 15.7406 11.8571 15.7822 11.8325C15.6307 11.9915 15.5449 12.2035 15.5449 12.4254V15.5676C15.5449 15.8213 15.657 16.062 15.8512 16.2253L17.0094 17.1993L17.0499 17.2313C17.0536 17.234 17.0573 17.2367 17.061 17.2394V17.6853C17.061 17.8847 16.9907 18.0778 16.8623 18.2304C16.5724 18.5753 16.0661 18.6309 15.7093 18.3657L15.6688 18.3336L14.6242 17.4553ZM13.5623 18.1043C13.2994 18.7889 12.6357 19.2748 11.8585 19.2748H6.12447C5.11684 19.2748 4.3 18.458 4.3 17.4503V12.7588C4.3 11.8756 4.92768 11.1389 5.76133 10.9705C5.68336 11.1735 5.64062 11.394 5.64062 11.6245V16.316C5.64062 17.3236 6.45747 18.1404 7.46509 18.1404H13.1991C13.3235 18.1404 13.4449 18.128 13.5623 18.1043Z" fill="url(#paint3_linear_11_50)" fill-opacity="0.5"/>
<defs>
<linearGradient id="paint0_linear_11_50" x1="23" y1="0.999999" x2="1" y2="12" gradientUnits="userSpaceOnUse">
<stop stop-color="#E3C880"/>
<stop offset="1" stop-color="#6F5C38"/>
</linearGradient>
<linearGradient id="paint1_linear_11_50" x1="23" y1="5.4" x2="1.42949" y2="23.5115" gradientUnits="userSpaceOnUse">
<stop stop-color="#FFE795"/>
<stop offset="1" stop-color="#7A653E"/>
</linearGradient>
<linearGradient id="paint2_linear_11_50" x1="18.38" y1="9.8" x2="5.73" y2="18.05" gradientUnits="userSpaceOnUse">
<stop stop-color="#967CCC"/>
<stop offset="1" stop-color="#5E35B1"/>
</linearGradient>
<linearGradient id="paint3_linear_11_50" x1="5.95" y1="18.6" x2="18.6" y2="9.8" gradientUnits="userSpaceOnUse">
<stop stop-color="#54452A" stop-opacity="0.35"/>
<stop offset="1" stop-color="#7A653E" stop-opacity="0"/>
</linearGradient>
</defs>
</svg>
