<svg width="24" height="24" viewBox="0 0 24 24" fill="none" xmlns="http://www.w3.org/2000/svg">
<rect x="2" y="2" width="20" height="20" rx="6" fill="url(#paint0_linear_24_221)"/>
<rect x="4" y="4" width="16" height="16" rx="4" fill="#FAFAFA"/>
<path d="M2 8.73437C2 7.22422 3.22422 6 4.73437 6H8.5368C9.51364 6 10.4607 6.33631 11.2188 6.95238V6.95238C11.9768 7.56846 12.9239 7.90476 13.9007 7.90476H19.2656C20.7758 7.90476 22 9.12898 22 10.6391V16C22 19.3137 19.3137 22 16 22H8C4.68629 22 2 19.3137 2 16V8.73437Z" fill="url(#paint1_linear_24_221)" fill-opacity="0.9"/>
<path d="M11.46 14.0951C12.5988 14.0951 13.5787 13.0781 13.5787 11.7538C13.5787 10.4455 12.5935 9.47619 11.46 9.47619C10.3264 9.47619 9.34121 10.4667 9.34121 11.7644C9.34121 13.0781 10.3264 14.0951 11.46 14.0951ZM8.13353 19H14.7864C15.618 19 15.9146 18.7616 15.9146 18.2955C15.9146 16.9289 14.2038 15.0432 11.46 15.0432C8.71089 15.0432 7 16.9289 7 18.2955C7 18.7616 7.2966 19 8.13353 19Z" fill="url(#paint2_linear_24_221)" fill-opacity="0.65"/>
<path d="M11.96 13.6189C13.0988 13.6189 14.0787 12.6019 14.0787 11.2777C14.0787 9.96932 13.0935 9 11.96 9C10.8264 9 9.84121 9.99052 9.84121 11.2883C9.84121 12.6019 10.8264 13.6189 11.96 13.6189ZM8.63353 18.5238H15.2864C16.118 18.5238 16.4146 18.2854 16.4146 17.8193C16.4146 16.4527 14.7038 14.567 11.96 14.567C9.21089 14.567 7.5 16.4527 7.5 17.8193C7.5 18.2854 7.7966 18.5238 8.63353 18.5238Z" fill="url(#paint3_linear_24_221)"/>
<defs>
<linearGradient id="paint0_linear_24_221" x1="22" y1="2" x2="2" y2="12" gradientUnits="userSpaceOnUse">
<stop stop-color="#E3C880"/>
<stop offset="1" stop-color="#6F5C38"/>
</linearGradient>
<linearGradient id="paint1_linear_24_221" x1="22" y1="6" x2="2.39045" y2="22.465" gradientUnits="userSpaceOnUse">
<stop stop-color="#FFE795"/>
<stop offset="1" stop-color="#7A653E"/>
</linearGradient>
<linearGradient id="paint2_linear_24_221" x1="15.5714" y1="9.47619" x2="7" y2="19" gradientUnits="userSpaceOnUse">
<stop stop-color="#7A653E" stop-opacity="0"/>
<stop offset="1" stop-color="#7A653E" stop-opacity="0.45"/>
</linearGradient>
<linearGradient id="paint3_linear_24_221" x1="16.0714" y1="9" x2="7.5" y2="18.5238" gradientUnits="userSpaceOnUse">
<stop stop-color="#777777"/>
<stop offset="1" stop-color="#444444"/>
</linearGradient>
</defs>
</svg>
