<svg width="24" height="24" viewBox="0 0 24 24" fill="none" xmlns="http://www.w3.org/2000/svg">
<path d="M16 2H8C4.68629 2 2 4.68629 2 8V16C2 19.3137 4.68629 22 8 22H16C19.3137 22 22 19.3137 22 16V8C22 4.68629 19.3137 2 16 2Z" fill="url(#paint0_linear_34_27)"/>
<path d="M16 4H8C5.79086 4 4 5.79086 4 8V16C4 18.2091 5.79086 20 8 20H16C18.2091 20 20 18.2091 20 16V8C20 5.79086 18.2091 4 16 4Z" fill="#FAFAFA"/>
<path d="M2 8.73437C2 7.22422 3.22422 6 4.73437 6H8.5368C9.51364 6 10.4607 6.33631 11.2188 6.95238C11.9768 7.56846 12.9239 7.90476 13.9007 7.90476H19.2656C20.7758 7.90476 22 9.12898 22 10.6391V16C22 19.3137 19.3137 22 16 22H8C4.68629 22 2 19.3137 2 16V8.73437Z" fill="url(#paint1_linear_34_27)" fill-opacity="0.9"/>
<path d="M15.8437 15.8252L14.3352 12.2973C14.0605 11.6515 13.6509 11.2853 13.1834 11.2612C12.7207 11.2371 12.2725 11.56 11.9303 12.1769L11.0146 13.8203C10.8219 14.1673 10.5471 14.3745 10.2483 14.3986C9.94469 14.4276 9.64107 14.2685 9.39527 13.9552L9.28924 13.8203C8.94706 13.3914 8.52295 13.1841 8.0892 13.2275C7.65545 13.2709 7.28435 13.5697 7.03856 14.0565L6.20479 15.7192C5.90598 16.3216 5.9349 17.0204 6.28672 17.5891C6.63854 18.1578 7.25061 18.5 7.92052 18.5H14.0702C14.716 18.5 15.3184 18.1771 15.675 17.6373C16.0413 17.0975 16.0992 16.418 15.8437 15.8252Z" fill="url(#paint2_linear_34_27)" fill-opacity="0.5"/>
<path d="M8.59099 11.7579C9.49065 11.7579 10.2199 11.0286 10.2199 10.129C10.2199 9.22932 9.49065 8.5 8.59099 8.5C7.69133 8.5 6.96201 9.22932 6.96201 10.129C6.96201 11.0286 7.69133 11.7579 8.59099 11.7579Z" fill="url(#paint3_linear_34_27)" fill-opacity="0.5"/>
<path d="M16.8437 15.3252L15.3352 11.7973C15.0605 11.1515 14.6509 10.7853 14.1834 10.7612C13.7207 10.7371 13.2725 11.06 12.9303 11.6769L12.0146 13.3203C11.8219 13.6673 11.5471 13.8745 11.2483 13.8986C10.9447 13.9276 10.6411 13.7685 10.3953 13.4552L10.2892 13.3203C9.94706 12.8914 9.52295 12.6841 9.0892 12.7275C8.65545 12.7709 8.28435 13.0697 8.03856 13.5565L7.20479 15.2192C6.90598 15.8216 6.9349 16.5204 7.28672 17.0891C7.63854 17.6578 8.25061 18 8.92052 18H15.0702C15.716 18 16.3184 17.6771 16.675 17.1373C17.0413 16.5975 17.0992 15.918 16.8437 15.3252Z" fill="url(#paint4_linear_34_27)"/>
<path d="M9.59099 11.2579C10.4906 11.2579 11.2199 10.5286 11.2199 9.62898C11.2199 8.72932 10.4906 8 9.59099 8C8.69133 8 7.96201 8.72932 7.96201 9.62898C7.96201 10.5286 8.69133 11.2579 9.59099 11.2579Z" fill="url(#paint5_linear_34_27)"/>
<defs>
<linearGradient id="paint0_linear_34_27" x1="22" y1="2" x2="2" y2="12" gradientUnits="userSpaceOnUse">
<stop stop-color="#E3C880"/>
<stop offset="1" stop-color="#6F5C38"/>
</linearGradient>
<linearGradient id="paint1_linear_34_27" x1="22" y1="6" x2="2.39045" y2="22.465" gradientUnits="userSpaceOnUse">
<stop stop-color="#FFE795"/>
<stop offset="1" stop-color="#7A653E"/>
</linearGradient>
<linearGradient id="paint2_linear_34_27" x1="5" y1="18.862" x2="14.1704" y2="7.17018" gradientUnits="userSpaceOnUse">
<stop stop-color="#54452A" stop-opacity="0.35"/>
<stop offset="1" stop-color="#54452A" stop-opacity="0"/>
</linearGradient>
<linearGradient id="paint3_linear_34_27" x1="6.63622" y1="11.9208" x2="10.8715" y2="8.01144" gradientUnits="userSpaceOnUse">
<stop stop-color="#54452A" stop-opacity="0.35"/>
<stop offset="1" stop-color="#54452A" stop-opacity="0"/>
</linearGradient>
<linearGradient id="paint4_linear_34_27" x1="18" y1="10.0359" x2="9.74606" y2="21.4362" gradientUnits="userSpaceOnUse">
<stop stop-color="#3C9BCE"/>
<stop offset="1" stop-color="#00405F"/>
</linearGradient>
<linearGradient id="paint5_linear_34_27" x1="11.5456" y1="7.6742" x2="7.6361" y2="11.5836" gradientUnits="userSpaceOnUse">
<stop stop-color="#3C9BCE"/>
<stop offset="1" stop-color="#00405F"/>
</linearGradient>
</defs>
</svg>
