<svg width="24" height="24" viewBox="0 0 24 24" fill="none" xmlns="http://www.w3.org/2000/svg">
<rect x="1" y="1" width="22" height="22" rx="6.6" fill="url(#paint0_linear_24_198)"/>
<rect x="3.2" y="3.2" width="17.6" height="17.6" rx="4.4" fill="#FAFAFA"/>
<path d="M1 8.40781C1 6.74664 2.34664 5.4 4.00781 5.4H8.19048C9.265 5.4 10.3068 5.76994 11.1406 6.44762V6.44762C11.9745 7.1253 13.0162 7.49524 14.0908 7.49524H19.9922C21.6534 7.49524 23 8.84188 23 10.5031V16.4C23 20.0451 20.0451 23 16.4 23H7.6C3.95492 23 1 20.0451 1 16.4V8.40781Z" fill="url(#paint1_linear_24_198)" fill-opacity="0.9"/>
<path d="M7.88804 16.6913H15.4578C16.5762 16.6913 17.17 16.1071 17.17 14.9623V10.979C17.17 9.83421 16.5762 9.25 15.4578 9.25H7.88804C6.82146 9.25 6.17 9.83421 6.17 10.979V14.9623C6.17 16.1071 6.76383 16.6913 7.88804 16.6913ZM7.8765 15.8062C7.36338 15.8062 7.09819 15.5288 7.09819 15.0095V10.9318C7.09819 10.4125 7.36338 10.1411 7.8765 10.1411H15.4693C15.9766 10.1411 16.2418 10.4125 16.2418 10.9318V15.0095C16.2418 15.5288 15.9766 15.8062 15.4693 15.8062H7.8765ZM13.6763 20.3559C14.2759 20.3559 14.789 19.9605 14.9793 19.4117H16.7318C16.9682 19.4117 17.17 19.2052 17.17 18.9396C17.17 18.6682 16.9682 18.4617 16.7318 18.4617H14.9793C14.789 17.9129 14.2759 17.5234 13.6763 17.5234C13.0767 17.5234 12.5636 17.9129 12.3676 18.4617H6.63697C6.37754 18.4617 6.17 18.6682 6.17 18.9396C6.17 19.2052 6.37754 19.4117 6.63697 19.4117H12.3676C12.5578 19.9605 13.0767 20.3559 13.6763 20.3559ZM13.6763 19.6301C13.2958 19.6301 13.0018 19.3232 13.0018 18.9396C13.0018 18.5443 13.2958 18.2433 13.6763 18.2433C14.0568 18.2433 14.3508 18.5443 14.3508 18.9396C14.3508 19.3232 14.0568 19.6301 13.6763 19.6301Z" fill="url(#paint2_linear_24_198)" fill-opacity="0.5"/>
<path d="M11.6447 13.5998C12.1514 13.5998 12.5875 13.1366 12.5875 12.5334C12.5875 11.9375 12.1491 11.496 11.6447 11.496C11.1403 11.496 10.7019 11.9472 10.7019 12.5383C10.7019 13.1366 11.1379 13.5998 11.6447 13.5998ZM8.93173 13.6553C9.37014 13.6553 9.75199 13.25 9.75199 12.7264C9.75199 12.2077 9.36778 11.8241 8.93173 11.8241C8.49334 11.8241 8.10678 12.2174 8.10913 12.7313C8.10913 13.25 8.49097 13.6553 8.93173 13.6553ZM14.3576 13.6553C14.7984 13.6553 15.1802 13.25 15.1802 12.7313C15.1802 12.2174 14.796 11.8241 14.3576 11.8241C13.9216 11.8241 13.5373 12.2077 13.5373 12.7264C13.5373 13.25 13.9192 13.6553 14.3576 13.6553ZM7.61651 15.8339H9.40786C9.16272 15.4696 9.46207 14.7361 9.96882 14.3356C9.70719 14.1571 9.37014 14.0244 8.92938 14.0244C7.86637 14.0244 7.20168 14.8278 7.20168 15.4961C7.20168 15.7132 7.31953 15.8339 7.61651 15.8339ZM15.6728 15.8339C15.9722 15.8339 16.0877 15.7132 16.0877 15.4961C16.0877 14.8278 15.423 14.0244 14.36 14.0244C13.9192 14.0244 13.5822 14.1571 13.3205 14.3356C13.8273 14.7361 14.1266 15.4696 13.8815 15.8339H15.6728ZM10.1621 15.8339H13.1249C13.4949 15.8339 13.627 15.7253 13.627 15.513C13.627 14.8905 12.8656 14.0316 11.6423 14.0316C10.4214 14.0316 9.66005 14.8905 9.66005 15.513C9.66005 15.7253 9.79205 15.8339 10.1621 15.8339Z" fill="url(#paint3_linear_24_198)" fill-opacity="0.5"/>
<path d="M11.9923 13.0498C12.4991 13.0498 12.9351 12.5866 12.9351 11.9834C12.9351 11.3875 12.4967 10.946 11.9923 10.946C11.4879 10.946 11.0495 11.3972 11.0495 11.9883C11.0495 12.5866 11.4856 13.0498 11.9923 13.0498ZM9.27939 13.1053C9.7178 13.1053 10.0996 12.7 10.0996 12.1764C10.0996 11.6577 9.71543 11.2741 9.27939 11.2741C8.84099 11.2741 8.45443 11.6674 8.45678 12.1813C8.45678 12.7 8.83863 13.1053 9.27939 13.1053ZM14.7052 13.1053C15.146 13.1053 15.5278 12.7 15.5278 12.1813C15.5278 11.6674 15.1437 11.2741 14.7052 11.2741C14.2692 11.2741 13.885 11.6577 13.885 12.1764C13.885 12.7 14.2668 13.1053 14.7052 13.1053ZM7.96417 15.2839H9.75552C9.51037 14.9196 9.80972 14.1861 10.3165 13.7856C10.0548 13.6071 9.7178 13.4744 9.27704 13.4744C8.21402 13.4744 7.54934 14.2778 7.54934 14.9461C7.54934 15.1632 7.66719 15.2839 7.96417 15.2839ZM16.0205 15.2839C16.3198 15.2839 16.4353 15.1632 16.4353 14.9461C16.4353 14.2778 15.7707 13.4744 14.7076 13.4744C14.2668 13.4744 13.9298 13.6071 13.6682 13.7856C14.1749 14.1861 14.4743 14.9196 14.2291 15.2839H16.0205ZM10.5098 15.2839H13.4725C13.8426 15.2839 13.9746 15.1753 13.9746 14.963C13.9746 14.3405 13.2133 13.4816 11.99 13.4816C10.769 13.4816 10.0077 14.3405 10.0077 14.963C10.0077 15.1753 10.1397 15.2839 10.5098 15.2839Z" fill="url(#paint4_linear_24_198)"/>
<path d="M8.2357 16.1413H15.8054C16.9239 16.1413 17.5177 15.5571 17.5177 14.4123V10.429C17.5177 9.28421 16.9239 8.7 15.8054 8.7H8.2357C7.16911 8.7 6.51765 9.28421 6.51765 10.429V14.4123C6.51765 15.5571 7.11148 16.1413 8.2357 16.1413ZM8.22416 15.2562C7.71104 15.2562 7.44585 14.9788 7.44585 14.4595V10.3818C7.44585 9.86252 7.71104 9.59108 8.22416 9.59108H15.8169C16.3243 9.59108 16.5895 9.86252 16.5895 10.3818V14.4595C16.5895 14.9788 16.3243 15.2562 15.8169 15.2562H8.22416ZM14.024 19.8059C14.6235 19.8059 15.1366 19.4105 15.3269 18.8617H17.0795C17.3159 18.8617 17.5177 18.6552 17.5177 18.3896C17.5177 18.1182 17.3159 17.9117 17.0795 17.9117H15.3269C15.1366 17.3629 14.6235 16.9734 14.024 16.9734C13.4244 16.9734 12.9113 17.3629 12.7153 17.9117H6.98463C6.72519 17.9117 6.51765 18.1182 6.51765 18.3896C6.51765 18.6552 6.72519 18.8617 6.98463 18.8617H12.7153C12.9055 19.4105 13.4244 19.8059 14.024 19.8059ZM14.024 19.0801C13.6435 19.0801 13.3494 18.7732 13.3494 18.3896C13.3494 17.9943 13.6435 17.6933 14.024 17.6933C14.4045 17.6933 14.6985 17.9943 14.6985 18.3896C14.6985 18.7732 14.4045 19.0801 14.024 19.0801Z" fill="url(#paint5_linear_24_198)"/>
<defs>
<linearGradient id="paint0_linear_24_198" x1="23" y1="0.999999" x2="1" y2="12" gradientUnits="userSpaceOnUse">
<stop stop-color="#E3C880"/>
<stop offset="1" stop-color="#6F5C38"/>
</linearGradient>
<linearGradient id="paint1_linear_24_198" x1="23" y1="5.4" x2="1.42949" y2="23.5115" gradientUnits="userSpaceOnUse">
<stop stop-color="#FFE795"/>
<stop offset="1" stop-color="#7A653E"/>
</linearGradient>
<linearGradient id="paint2_linear_24_198" x1="17.17" y1="9.25" x2="4.48992" y2="18.4959" gradientUnits="userSpaceOnUse">
<stop stop-color="#7A653E" stop-opacity="0"/>
<stop offset="1" stop-color="#7A653E" stop-opacity="0.45"/>
</linearGradient>
<linearGradient id="paint3_linear_24_198" x1="16.0877" y1="11.496" x2="11.296" y2="18.7222" gradientUnits="userSpaceOnUse">
<stop stop-color="#7A653E" stop-opacity="0"/>
<stop offset="1" stop-color="#7A653E" stop-opacity="0.45"/>
</linearGradient>
<linearGradient id="paint4_linear_24_198" x1="16.4353" y1="10.946" x2="11.6436" y2="18.1722" gradientUnits="userSpaceOnUse">
<stop stop-color="#FAFAFA"/>
<stop offset="1" stop-color="#D5D5D5"/>
</linearGradient>
<linearGradient id="paint5_linear_24_198" x1="17.5177" y1="8.7" x2="4.83757" y2="17.9459" gradientUnits="userSpaceOnUse">
<stop stop-color="#FAFAFA"/>
<stop offset="1" stop-color="#D5D5D5"/>
</linearGradient>
</defs>
</svg>
