<svg width="24" height="24" viewBox="0 0 24 24" fill="none" xmlns="http://www.w3.org/2000/svg">
<rect x="2" y="2" width="20" height="20" rx="6" fill="url(#paint0_linear_11_76)"/>
<path d="M4 8C4 5.79086 5.79086 4 8 4H16C18.2091 4 20 5.79086 20 8V16C20 18.2091 18.2091 20 16 20H8C5.79086 20 4 18.2091 4 16V8Z" fill="#FAFAFA"/>
<path d="M2 8.73437C2 7.22422 3.22422 6 4.73438 6H8.5368C9.51364 6 10.4607 6.33631 11.2188 6.95238V6.95238C11.9768 7.56846 12.9239 7.90476 13.9007 7.90476H19.2656C20.7758 7.90476 22 9.12898 22 10.6391V16C22 19.3137 19.3137 22 16 22H8C4.68629 22 2 19.3137 2 16V8.73437Z" fill="url(#paint1_linear_11_76)" fill-opacity="0.9"/>
<path d="M14.9977 16.1167C14.9977 17.4997 13.944 18.0218 13.2478 18.0218C12.4528 18.0218 11.8837 17.5044 11.8837 16.7705C11.8837 16.0508 12.3305 15.5569 13.2901 15.3594L14.0381 15.1994C14.2309 15.1618 14.3297 15.0207 14.3297 14.8043L14.3123 11.583L10.8339 12.2956C10.6222 12.3379 10.5846 12.3802 10.5846 12.6154V16.9195C10.5846 18.3025 9.5309 18.8246 8.83471 18.8246C8.03976 18.8246 7.47059 18.3072 7.47059 17.5733C7.47059 16.8537 7.91745 16.3597 8.87706 16.1622L9.62499 16.0022C9.81784 15.9646 9.91663 15.8235 9.91663 15.6071L9.88839 10.3764C9.88839 10.0941 10.0624 9.92478 10.3823 9.85421L14.5296 9.01064C14.7836 8.9542 15 9.12823 15 9.39165V11.165C15 11.1791 14.9992 11.1929 14.9977 11.2064V16.1167Z" fill="url(#paint2_linear_11_76)"/>
<path fill-rule="evenodd" clip-rule="evenodd" d="M14.2139 17.7175C13.8989 17.9289 13.5415 18.0218 13.2478 18.0218C12.4528 18.0218 11.8837 17.5044 11.8837 16.7705C11.8837 16.5247 11.9358 16.3053 12.0427 16.115C11.6162 16.3733 11.4131 16.7559 11.4131 17.2411C11.4131 17.975 11.9823 18.4924 12.7772 18.4924C13.2354 18.4924 13.8483 18.2663 14.2139 17.7175ZM13.8589 15.2377L14.0381 15.1994C14.2309 15.1618 14.3297 15.0207 14.3297 14.8043L14.3123 11.583L10.8339 12.2956C10.6222 12.3379 10.5846 12.3802 10.5846 12.6154V12.7208L13.8417 12.0536L13.8589 15.2377ZM9.89004 10.3298C9.58399 10.4032 9.4178 10.5711 9.4178 10.8469L9.44584 16.0406L9.62499 16.0022C9.81785 15.9646 9.91663 15.8235 9.91663 15.6071L9.88839 10.3764C9.88839 10.3605 9.88894 10.345 9.89004 10.3298ZM7.62959 16.9178C7.52271 17.1081 7.47059 17.3275 7.47059 17.5733C7.47059 18.3072 8.03976 18.8246 8.83471 18.8246C9.12844 18.8246 9.48581 18.7317 9.80083 18.5203C9.43522 19.0691 8.82227 19.2952 8.36412 19.2952C7.56917 19.2952 7 18.7778 7 18.0439C7 17.5587 7.20313 17.1761 7.62959 16.9178Z" fill="url(#paint3_linear_11_76)" fill-opacity="0.5"/>
<defs>
<linearGradient id="paint0_linear_11_76" x1="22" y1="2" x2="2" y2="12" gradientUnits="userSpaceOnUse">
<stop stop-color="#E3C880"/>
<stop offset="1" stop-color="#6F5C38"/>
</linearGradient>
<linearGradient id="paint1_linear_11_76" x1="22" y1="6" x2="2.39045" y2="22.465" gradientUnits="userSpaceOnUse">
<stop stop-color="#FFE795"/>
<stop offset="1" stop-color="#7A653E"/>
</linearGradient>
<linearGradient id="paint2_linear_11_76" x1="14.9959" y1="9" x2="7.48044" y2="18.8147" gradientUnits="userSpaceOnUse">
<stop stop-color="#E996B1"/>
<stop offset="1" stop-color="#BC546F"/>
</linearGradient>
<linearGradient id="paint3_linear_11_76" x1="7" y1="19.3529" x2="15.4706" y2="8.05882" gradientUnits="userSpaceOnUse">
<stop stop-color="#54452A" stop-opacity="0.35"/>
<stop offset="1" stop-color="#7A653E" stop-opacity="0.45"/>
</linearGradient>
</defs>
</svg>
