<svg width="256" height="256" viewBox="0 0 256 256" fill="none" xmlns="http://www.w3.org/2000/svg">
<rect width="256" height="256" rx="65" fill="url(#paint0_linear_5_44)"/>
<rect x="28" y="28" width="200" height="200" rx="45" fill="#F9F9F9"/>
<path d="M0 81C0 61.67 15.67 46 35 46H83.4744C96.0907 46 108.308 50.4232 118 58.5V58.5C127.692 66.5768 139.909 71 152.526 71H221C240.33 71 256 86.67 256 106V191C256 226.899 226.899 256 191 256H65C29.1015 256 0 226.899 0 191V81Z" fill="url(#paint1_linear_5_44)"/>
<path d="M163.184 185.822C163.184 197.547 153.679 207.052 141.954 207.052H75.2302C63.5051 207.052 54 197.547 54 185.822V131.23C54 119.505 63.5051 110 75.2302 110H141.954C153.679 110 163.184 119.505 163.184 131.23V185.822ZM192.635 119.074C197.891 119.074 202.186 123.188 202.476 128.372L202.492 128.931V188.556C202.492 190.877 201.673 193.123 200.179 194.9C196.806 198.912 190.915 199.559 186.763 196.473L186.292 196.1L172.814 184.767C170.554 182.867 169.25 180.066 169.25 177.113V140.551C169.25 137.625 170.531 134.846 172.755 132.946L186.233 121.436C187.84 120.064 189.839 119.249 191.934 119.099L192.635 119.074Z" fill="white"/>
<defs>
<linearGradient id="paint0_linear_5_44" x1="256" y1="-7.62939e-06" x2="0" y2="128" gradientUnits="userSpaceOnUse">
<stop stop-color="#187FB4"/>
<stop offset="1" stop-color="#00405F"/>
</linearGradient>
<linearGradient id="paint1_linear_5_44" x1="241" y1="77.5" x2="17.5" y2="237" gradientUnits="userSpaceOnUse">
<stop stop-color="#3C9BCE"/>
<stop offset="1" stop-color="#00405F"/>
</linearGradient>
</defs>
</svg>
