<?xml version="1.0" encoding="UTF-8" standalone="no"?>
<svg
   width="24"
   height="24"
   viewBox="0 0 24 24"
   fill="none"
   version="1.1"
   id="svg48"
   sodipodi:docname="user-desktop.svg"
   xml:space="preserve"
   inkscape:version="1.2.2 (b0a8486541, 2022-12-01)"
   xmlns:inkscape="http://www.inkscape.org/namespaces/inkscape"
   xmlns:sodipodi="http://sodipodi.sourceforge.net/DTD/sodipodi-0.dtd"
   xmlns:xlink="http://www.w3.org/1999/xlink"
   xmlns="http://www.w3.org/2000/svg"
   xmlns:svg="http://www.w3.org/2000/svg"><sodipodi:namedview
     id="namedview50"
     pagecolor="#ffffff"
     bordercolor="#000000"
     borderopacity="0.25"
     inkscape:showpageshadow="2"
     inkscape:pageopacity="0.0"
     inkscape:pagecheckerboard="0"
     inkscape:deskcolor="#d1d1d1"
     showgrid="false"
     inkscape:zoom="4"
     inkscape:cx="-51.375"
     inkscape:cy="-0.625"
     inkscape:window-width="2560"
     inkscape:window-height="1000"
     inkscape:window-x="1680"
     inkscape:window-y="0"
     inkscape:window-maximized="1"
     inkscape:current-layer="svg48" /><rect
     x="1"
     y="1"
     width="22"
     height="22"
     rx="6.6"
     fill="url(#paint0_linear_24_198)"
     id="rect2" /><rect
     x="3.2"
     y="3.2"
     width="17.6"
     height="17.6"
     rx="4.4"
     fill="#FAFAFA"
     id="rect4" /><path
     d="M1 8.40781C1 6.74664 2.34664 5.4 4.00781 5.4H8.19048C9.265 5.4 10.3068 5.76994 11.1406 6.44762V6.44762C11.9745 7.1253 13.0162 7.49524 14.0908 7.49524H19.9922C21.6534 7.49524 23 8.84188 23 10.5031V16.4C23 20.0451 20.0451 23 16.4 23H7.6C3.95492 23 1 20.0451 1 16.4V8.40781Z"
     fill="url(#paint1_linear_24_198)"
     fill-opacity="0.9"
     id="path6" /><path
     id="path12538"
     style="fill:url(#linearGradient13169);fill-opacity:1;stroke-width:4.55811;stroke-linecap:round;stroke-linejoin:round"
     d="m 9.4915111,8.9388778 c -0.5492415,1.1e-6 -0.9921885,0.4429459 -0.9921885,0.9921873 0,0.5492409 0.442948,0.9921869 0.9921885,0.9921879 h 3.9648429 c 0.424549,10e-7 0.783767,-0.265241 0.925782,-0.638672 l 1.185547,0.318359 -0.96875,0.96875 c -0.02099,0.02099 -0.036,0.04526 -0.04883,0.07031 H 7.3196356 c -1.171475,0 -1.88672,0.641072 -1.886719,1.898437 v 4.375 c 0,1.257377 0.651946,1.898438 1.886719,1.898438 h 8.3144534 c 1.22849,0 1.880859,-0.641062 1.880859,-1.898438 v -4.375 c 0,-1.257365 -0.652369,-1.898437 -1.880859,-1.898437 H 15.30987 l 0.97461,-0.972657 c 0.03274,-0.02846 0.05956,-0.06677 0.07617,-0.109375 0.0028,-0.0074 0.0037,-0.01567 0.0059,-0.02344 4.1e-4,-0.0014 0.0016,-0.0025 0.002,-0.0039 7.11e-4,-0.0027 0.0013,-0.0052 0.002,-0.0078 0.0016,-0.0064 0.0028,-0.01305 0.0039,-0.01953 0.0012,-0.0073 0.0033,-0.01424 0.0039,-0.02149 1.94e-4,-0.002 -1.49e-4,-0.0038 0,-0.0059 3.99e-4,-0.0065 6.7e-5,-0.01305 0,-0.01953 0,-0.02109 -0.003,-0.04185 -0.0078,-0.0625 -9.4e-4,-0.0039 -8.43e-4,-0.0078 -0.002,-0.01172 -0.0013,-0.0046 -0.0024,-0.0092 -0.0039,-0.01367 -0.0019,-0.0055 -0.0036,-0.01028 -0.0059,-0.01563 -0.0078,-0.01905 -0.01905,-0.03739 -0.03125,-0.05469 -0.004,-0.0056 -0.0073,-0.01033 -0.01172,-0.01563 -0.0059,-0.0072 -0.01083,-0.01474 -0.01758,-0.02148 -0.04582,-0.04579 -0.104587,-0.07312 -0.164062,-0.08005 L 14.427107,9.7279361 C 14.333237,9.2773266 13.935507,8.9388748 13.456403,8.9388736 Z M 7.3079166,12.620518 h 0.84375 l -1.699219,1.699219 v -0.832031 c -1e-6,-0.570345 0.29189,-0.867188 0.855469,-0.867188 z m 7.4882814,0 h 0.851563 c 0.557297,0 0.847655,0.296842 0.847656,0.867188 v 0.832031 z m -8.3437504,4.41211 1.810547,1.810547 h -0.955078 c -0.563579,-10e-7 -0.855468,-0.304635 -0.855469,-0.875 z m 10.0429694,0 v 0.935547 c 0,0.570366 -0.290359,0.875 -0.847656,0.875 H 14.68487 Z" /><defs
     id="defs46"><linearGradient
       inkscape:collect="always"
       id="linearGradient13167"><stop
         style="stop-color:#7a643d;stop-opacity:0.44999999;"
         offset="0"
         id="stop13163" /><stop
         style="stop-color:#7a643d;stop-opacity:0;"
         offset="1"
         id="stop13165" /></linearGradient><linearGradient
       inkscape:collect="always"
       id="linearGradient10285"><stop
         style="stop-color:#ffe00d;stop-opacity:1;"
         offset="0"
         id="stop10281" /><stop
         style="stop-color:#ffcf0c;stop-opacity:1;"
         offset="0.22485512"
         id="stop12536" /><stop
         style="stop-color:#a28208;stop-opacity:1;"
         offset="1"
         id="stop10283" /></linearGradient><linearGradient
       id="paint0_linear_24_198"
       x1="23"
       y1="0.999999"
       x2="1"
       y2="12"
       gradientUnits="userSpaceOnUse"><stop
         stop-color="#E3C880"
         id="stop16" /><stop
         offset="1"
         stop-color="#6F5C38"
         id="stop18" /></linearGradient><linearGradient
       id="paint1_linear_24_198"
       x1="23"
       y1="5.4"
       x2="1.42949"
       y2="23.5115"
       gradientUnits="userSpaceOnUse"><stop
         stop-color="#FFE795"
         id="stop21" /><stop
         offset="1"
         stop-color="#7A653E"
         id="stop23" /></linearGradient><linearGradient
       id="paint2_linear_24_198"
       x1="17.17"
       y1="9.25"
       x2="4.48992"
       y2="18.4959"
       gradientUnits="userSpaceOnUse"><stop
         stop-color="#7A653E"
         stop-opacity="0"
         id="stop26" /><stop
         offset="1"
         stop-color="#7A653E"
         stop-opacity="0.45"
         id="stop28" /></linearGradient><linearGradient
       id="paint3_linear_24_198"
       x1="16.0877"
       y1="11.496"
       x2="11.296"
       y2="18.7222"
       gradientUnits="userSpaceOnUse"><stop
         stop-color="#7A653E"
         stop-opacity="0"
         id="stop31" /><stop
         offset="1"
         stop-color="#7A653E"
         stop-opacity="0.45"
         id="stop33" /></linearGradient><linearGradient
       id="paint4_linear_24_198"
       x1="16.4353"
       y1="10.946"
       x2="11.6436"
       y2="18.1722"
       gradientUnits="userSpaceOnUse"><stop
         stop-color="#FAFAFA"
         id="stop36" /><stop
         offset="1"
         stop-color="#D5D5D5"
         id="stop38" /></linearGradient><linearGradient
       id="paint5_linear_24_198"
       x1="17.5177"
       y1="8.7"
       x2="4.83757"
       y2="17.9459"
       gradientUnits="userSpaceOnUse"><stop
         stop-color="#FAFAFA"
         id="stop41" /><stop
         offset="1"
         stop-color="#D5D5D5"
         id="stop43" /></linearGradient><style
       id="current-color-scheme"
       type="text/css">.ColorScheme-Text { color:#dedede; }</style><style
       id="current-color-scheme-3"
       type="text/css">.ColorScheme-Text {
        color:#dedede;
      }</style><linearGradient
       inkscape:collect="always"
       xlink:href="#linearGradient10285"
       id="linearGradient10287"
       x1="15.309035"
       y1="10.555996"
       x2="4.9514585"
       y2="20.913572"
       gradientUnits="userSpaceOnUse" /><linearGradient
       inkscape:collect="always"
       xlink:href="#linearGradient13167"
       id="linearGradient13169"
       x1="2.7410009"
       y1="22.31148"
       x2="18.095226"
       y2="6.9572535"
       gradientUnits="userSpaceOnUse"
       gradientTransform="translate(0.21312714,-0.42823792)" /><radialGradient
       id="paint2_radial_31_25"
       cx="0"
       cy="0"
       r="1"
       gradientUnits="userSpaceOnUse"
       gradientTransform="matrix(-22.682854,19.589678,-21.691281,-25.116295,23.966772,-6.0298191)"><stop
         stop-color="#72CB72"
         id="stop13554" /><stop
         offset="1"
         stop-color="#1C6D1C"
         id="stop13556" /></radialGradient></defs><path
     id="rect6428"
     style="fill:url(#linearGradient10287);fill-opacity:1;stroke-width:4.55811;stroke-linecap:round;stroke-linejoin:round"
     d="m 10.017579,8.5625034 c -0.5492415,1.1e-6 -0.9921885,0.4429459 -0.9921885,0.9921875 0,0.5492411 0.442948,0.9921871 0.9921885,0.9921881 h 3.964843 c 0.424549,10e-7 0.783767,-0.265241 0.925782,-0.6386724 l 1.185547,0.3183594 -0.96875,0.96875 c -0.02099,0.02099 -0.036,0.04526 -0.04883,0.07031 H 7.8457035 c -1.171475,0 -1.88672,0.641072 -1.886719,1.898437 v 4.375 c 0,1.257377 0.651946,1.898438 1.886719,1.898438 h 8.3144535 c 1.22849,0 1.880859,-0.641062 1.880859,-1.898438 v -4.375 c 0,-1.257365 -0.652369,-1.898437 -1.880859,-1.898437 h -0.324219 l 0.97461,-0.972657 c 0.03274,-0.02846 0.05956,-0.06677 0.07617,-0.109375 0.0028,-0.0074 0.0037,-0.01567 0.0059,-0.02344 4.1e-4,-0.0014 0.0016,-0.0025 0.002,-0.0039 7.11e-4,-0.0027 0.0013,-0.0052 0.002,-0.0078 0.0016,-0.0064 0.0028,-0.01305 0.0039,-0.01953 0.0012,-0.0073 0.0033,-0.01424 0.0039,-0.02149 1.94e-4,-0.002 -1.49e-4,-0.0038 0,-0.0059 3.99e-4,-0.0065 6.7e-5,-0.01305 0,-0.01953 0,-0.02109 -0.003,-0.04185 -0.0078,-0.0625 -9.4e-4,-0.0039 -8.43e-4,-0.0078 -0.002,-0.01172 -0.0013,-0.0046 -0.0024,-0.00916 -0.0039,-0.013672 -0.0019,-0.00549 -0.0036,-0.010277 -0.0059,-0.015625 -0.0078,-0.019047 -0.01905,-0.037389 -0.03125,-0.054687 -0.004,-0.0056 -0.0073,-0.010328 -0.01172,-0.015625 -0.0059,-0.00723 -0.01083,-0.014736 -0.01758,-0.021484 C 16.778448,9.8409 16.719681,9.81357 16.660206,9.80664 L 14.953175,9.3515617 C 14.859305,8.9009522 14.461575,8.5625004 13.982471,8.5624992 Z M 7.8339845,12.244144 h 0.84375 l -1.699219,1.699219 v -0.832031 c -1e-6,-0.570345 0.29189,-0.867188 0.855469,-0.867188 z m 7.4882815,0 h 0.851563 c 0.557297,0 0.847655,0.296842 0.847656,0.867188 v 0.832031 z m -8.3437505,4.41211 1.810547,1.810547 h -0.955078 c -0.563579,-1e-6 -0.855468,-0.304635 -0.855469,-0.875 z m 10.0429695,0 v 0.935547 c 0,0.570366 -0.290359,0.875 -0.847656,0.875 h -0.962891 z" /><path
     id="path13542"
     style="fill:url(#paint2_radial_31_25);stroke-width:1.87461"
     d="m 10.025291,8.5336451 c -0.5582079,0 -1.006737,0.4485291 -1.006737,1.0067361 0,0.5582068 0.4485291,1.0087028 1.006737,1.0087028 h 3.969921 c 0.558207,0 1.006737,-0.450496 1.006737,-1.0087028 0,-0.558207 -0.44853,-1.0067361 -1.006737,-1.0067361 z" /></svg>
