<svg width="24" height="24" viewBox="0 0 24 24" fill="none" xmlns="http://www.w3.org/2000/svg">
<rect opacity="0.8125" x="1" y="1" width="22" height="22" rx="6.6" fill="url(#paint0_linear_211_2)"/>
<rect opacity="0.625" x="3" y="2.25" width="18" height="18" rx="4.4" fill="#777777" fill-opacity="0.875"/>
<rect x="3" y="3" width="18" height="18" rx="4.4" fill="#CCCCCC"/>
<path opacity="0.125" d="M1.41414 7.91939C1.46196 6.29335 2.79391 5 4.42065 5H8.218C9.27633 5 10.3081 5.35842 11.1406 6.0119V6.0119C11.9731 6.66539 13.0049 7.02381 14.0633 7.02381H19.9922C21.6534 7.02381 23 8.37045 23 10.0316V15.4C23 19.0451 20.0451 22 16.4 22H7.79697C4.07587 22 1.09043 18.9255 1.19982 15.206L1.41414 7.91939Z" fill="url(#paint1_linear_211_2)" fill-opacity="0.875"/>
<path opacity="0.875" d="M0.59693 10.1018C0.543894 8.40461 1.90529 7 3.60327 7H8.29491C9.30597 7 10.2904 7.32421 11.1036 7.925L11.1777 7.97976C11.9909 8.58055 12.9753 8.90476 13.9863 8.90476H19.597C21.2167 8.90476 22.5455 10.1873 22.6029 11.8059L22.7576 16.166C22.8901 19.9005 19.8985 23 16.1617 23H7.39697C3.83215 23 0.911538 20.1692 0.800192 16.6061L0.59693 10.1018Z" fill="url(#paint2_linear_211_2)"/>
<defs>
<linearGradient id="paint0_linear_211_2" x1="23" y1="0.999999" x2="1" y2="12" gradientUnits="userSpaceOnUse">
<stop stop-color="#E3C880"/>
<stop offset="1" stop-color="#6F5C38"/>
</linearGradient>
<linearGradient id="paint1_linear_211_2" x1="23" y1="9.34659" x2="1.01325" y2="9.88638" gradientUnits="userSpaceOnUse">
<stop stop-opacity="0.5"/>
<stop offset="1"/>
</linearGradient>
<linearGradient id="paint2_linear_211_2" x1="23" y1="7" x2="3.15288" y2="25.3309" gradientUnits="userSpaceOnUse">
<stop stop-color="#FFE795"/>
<stop offset="1" stop-color="#7A653E"/>
</linearGradient>
</defs>
</svg>
