<svg width="24" height="24" viewBox="0 0 24 24" fill="none" xmlns="http://www.w3.org/2000/svg">
<rect opacity="0.875" x="1" y="1" width="22" height="22" rx="6.6" fill="url(#paint0_linear_207_79)"/>
<rect opacity="0.75" x="3" y="2.5" width="18" height="18" rx="4.4" fill="#CCCCCC" fill-opacity="0.875"/>
<rect x="3" y="3" width="18" height="18" rx="4.4" fill="#E6E6E6"/>
<path opacity="0.125" d="M1 7.50781C1 5.84664 2.34664 4.5 4.00781 4.5H8.19048C9.265 4.5 10.3068 4.86994 11.1406 5.54762V5.54762C11.9745 6.2253 13.0162 6.59524 14.0908 6.59524H19.9922C21.6534 6.59524 23 7.94188 23 9.60305V15.5C23 19.1451 20.0451 22.1 16.4 22.1H7.6C3.95492 22.1 1 19.1451 1 15.5V7.50781Z" fill="url(#paint1_linear_207_79)" fill-opacity="0.5"/>
<path opacity="0.875" d="M1 8.40782C1 6.74665 2.34664 5.4 4.00781 5.4H8.19048C9.265 5.4 10.3068 5.76994 11.1406 6.44762V6.44762C11.9745 7.1253 13.0162 7.49524 14.0908 7.49524H19.9922C21.6534 7.49524 23 8.84188 23 10.5031V16.4C23 20.0451 20.0451 23 16.4 23H7.6C3.95492 23 1 20.0451 1 16.4V8.40782Z" fill="url(#paint2_linear_207_79)"/>
<path d="M10.5333 8.33333V9.79999H9.8C9.39667 9.79999 9.06667 10.13 9.06667 10.5333V13.4667L9.46266 13.8627L6.962 18.2333L6.86667 20.0667L8.238 18.9667L8.766 18.0353C9.55067 18.402 10.4013 18.6 11.2667 18.6C12.132 18.6 12.9827 18.402 13.7673 18.0353L14.2953 18.9667L15.6667 20.0667L15.5713 18.2333L15.0067 17.2507C16.356 16.136 17.1333 14.4787 17.1333 12.7333H15.6667C15.6667 13.9507 15.1607 15.1167 14.266 15.9453L13.0707 13.8627L13.4667 13.4667V10.5333C13.4667 10.13 13.1367 9.79999 12.7333 9.79999H12V8.33333H10.5333ZM11.2667 11.2667C11.67 11.2667 12 11.5967 12 12C12 12.4033 11.67 12.7333 11.2667 12.7333C10.8633 12.7333 10.5333 12.4033 10.5333 12C10.5333 11.5967 10.8633 11.2667 11.2667 11.2667ZM10.5407 14.9333C11.0027 15.1607 11.4647 15.3293 11.9927 14.9333L13.034 16.7593C12.4767 17.0013 11.8753 17.1333 11.2667 17.1333C10.658 17.1333 10.0567 17.0013 9.49933 16.7593L10.5407 14.9333Z" fill="url(#paint3_linear_207_79)"/>
<defs>
<linearGradient id="paint0_linear_207_79" x1="23" y1="0.999999" x2="1" y2="12" gradientUnits="userSpaceOnUse">
<stop stop-color="#FFE0AE"/>
<stop offset="1" stop-color="#F3CE7D"/>
</linearGradient>
<linearGradient id="paint1_linear_207_79" x1="23" y1="9" x2="1.01236" y2="9.52141" gradientUnits="userSpaceOnUse">
<stop stop-opacity="0.5"/>
<stop offset="1"/>
</linearGradient>
<linearGradient id="paint2_linear_207_79" x1="23" y1="5.4" x2="1.42949" y2="23.5115" gradientUnits="userSpaceOnUse">
<stop stop-color="#FFEEB4"/>
<stop offset="1" stop-color="#FFDD73"/>
</linearGradient>
<linearGradient id="paint3_linear_207_79" x1="17.1333" y1="8.33333" x2="6.86667" y2="20.0667" gradientUnits="userSpaceOnUse">
<stop stop-color="#FF7C7D"/>
<stop offset="1" stop-color="#751010"/>
</linearGradient>
</defs>
</svg>
