<svg width="256" height="256" viewBox="0 0 256 256" fill="none" xmlns="http://www.w3.org/2000/svg">
<rect width="256" height="256" rx="65" fill="url(#paint0_linear_1_6)"/>
<rect x="28" y="28" width="200" height="200" rx="45" fill="#F9F9F9"/>
<path d="M0 81C0 61.67 15.67 46 35 46H83.4744C96.0907 46 108.308 50.4232 118 58.5V58.5C127.692 66.5768 139.909 71 152.526 71H221C240.33 71 256 86.67 256 106V191C256 226.899 226.899 256 191 256H65C29.1015 256 0 226.899 0 191V81Z" fill="url(#paint1_linear_1_6)" fill-opacity="0.95"/>
<path d="M163.184 181.822C163.184 193.547 153.679 203.052 141.954 203.052H75.2302C63.5051 203.052 54 193.547 54 181.822V127.23C54 115.505 63.5051 106 75.2302 106H141.954C153.679 106 163.184 115.505 163.184 127.23V181.822ZM192.635 115.074C197.891 115.074 202.186 119.188 202.476 124.372L202.492 124.931V184.556C202.492 186.877 201.673 189.123 200.179 190.9C196.806 194.912 190.915 195.559 186.763 192.473L186.292 192.1L172.814 180.767C170.554 178.867 169.25 176.066 169.25 173.113V136.551C169.25 133.625 170.531 130.846 172.755 128.946L186.233 117.436C187.84 116.064 189.839 115.249 191.934 115.099L192.635 115.074Z" fill="white"/>
<defs>
<linearGradient id="paint0_linear_1_6" x1="256" y1="-7.62939e-06" x2="0" y2="128" gradientUnits="userSpaceOnUse">
<stop stop-color="#187FB4"/>
<stop offset="1" stop-color="#00405F"/>
</linearGradient>
<linearGradient id="paint1_linear_1_6" x1="241" y1="77.5" x2="17.5" y2="237" gradientUnits="userSpaceOnUse">
<stop stop-color="#3C9BCE"/>
<stop offset="1" stop-color="#00405F"/>
</linearGradient>
</defs>
</svg>
