<svg width="24" height="24" viewBox="0 0 24 24" fill="none" xmlns="http://www.w3.org/2000/svg">
<path opacity="0.875" d="M7.59961 1C3.94361 1 1 3.94166 1 7.59766V16.4004C1 20.0564 3.94361 23 7.59961 23H16.4004C20.0564 23 23 20.0564 23 16.4004V7.59766C23 3.94166 20.0564 1 16.4004 1H12H7.59961Z" fill="url(#paint0_linear_209_173)"/>
<rect opacity="0.125" x="3" y="2" width="18" height="18" rx="4.4" fill="url(#paint1_linear_209_173)" fill-opacity="0.875"/>
<path d="M7.26004 2.97884H16.74C19.1134 2.97884 21.0182 4.88425 21.0182 7.25846V16.7415C21.0182 19.1157 19.1134 21.0212 16.74 21.0212H7.26004C4.88663 21.0212 2.98184 19.1157 2.98184 16.7415V7.25846C2.98184 4.88425 4.88663 2.97884 7.26004 2.97884Z" fill="#CCCCCC"/>
<path fill-rule="evenodd" clip-rule="evenodd" d="M16.74 4.97884H7.26004C5.99182 4.97884 4.98184 5.98819 4.98184 7.25846V16.7415C4.98184 18.0118 5.99182 19.0212 7.26004 19.0212H16.74C18.0082 19.0212 19.0182 18.0118 19.0182 16.7415V7.25846C19.0182 5.98819 18.0082 4.97884 16.74 4.97884ZM16.74 2.97884H7.26004C4.88663 2.97884 2.98184 4.88425 2.98184 7.25846V16.7415C2.98184 19.1157 4.88663 21.0212 7.26004 21.0212H16.74C19.1134 21.0212 21.0182 19.1157 21.0182 16.7415V7.25846C21.0182 4.88425 19.1134 2.97884 16.74 2.97884Z" fill="url(#paint2_linear_209_173)"/>
<path opacity="0.25" d="M1 7.07932C1 5.3801 2.34933 4 4.01067 4H8.188C9.26533 4 10.3067 4.37776 11.14 5.07054C11.9733 5.76332 13.016 6.14107 14.088 6.14107H19.9893C21.6507 6.14107 23 7.52118 23 9.2204V15.2509C23 18.9793 20.0467 22 16.4013 22H7.59867C3.95333 22 1 18.9793 1 15.2509V7.07932Z" fill="url(#paint3_linear_209_173)" fill-opacity="0.75"/>
<g opacity="0.875">
<path d="M23 11.0316C23 9.37045 21.6534 8.02381 19.9922 8.02381H14.0633C13.0049 8.02381 11.9731 7.66539 11.1406 7.0119C10.3082 6.35842 9.27633 6 8.218 6H4.00781C2.34664 6 1 7.34664 1 9.00781V16.4004C1 20.0564 3.94361 23 7.59961 23H16.4004C20.0547 23 22.9973 20.0591 23 16.4055V11.0316Z" fill="url(#paint4_linear_209_173)"/>
<path d="M19.9922 9.02381C21.1011 9.02381 22 9.92274 22 11.0316V16.4047C21.9977 19.5064 19.5027 22 16.4004 22H7.59961C4.4959 22 2 19.5041 2 16.4004V9.00781C2 7.89893 2.89893 7 4.00781 7H8.218C9.05127 7 9.8659 7.28256 10.5232 7.7985C11.5309 8.58953 12.7799 9.02381 14.0633 9.02381H19.9922Z" stroke="url(#paint5_linear_209_173)" stroke-opacity="0.375" stroke-width="2"/>
</g>
<path d="M13.7969 13.1524C13.7969 14.2993 12.953 15.1449 12.0147 15.1449C11.0803 15.1449 10.2324 14.2982 10.2324 13.1624C10.2324 12.046 11.0762 11.22 12.0147 11.22C12.9551 11.22 13.7969 12.0281 13.7969 13.1524ZM15.1582 19.78H8.87119C8.48692 19.78 8.27347 19.7234 8.1601 19.6486C8.06832 19.5881 8.02 19.5011 8.02 19.3343C8.02 18.7736 8.37774 18.062 9.0739 17.4823C9.7634 16.9082 10.7673 16.4808 12.0147 16.4808C13.2595 16.4808 14.2621 16.9082 14.951 17.4823C15.6466 18.0619 16.0043 18.7736 16.0043 19.3343C16.0043 19.5012 15.9559 19.5884 15.8645 19.6488C15.7518 19.7234 15.5397 19.78 15.1582 19.78Z" fill="url(#paint6_linear_209_173)" stroke="url(#paint7_linear_209_173)" stroke-width="0.44"/>
<defs>
<linearGradient id="paint0_linear_209_173" x1="24.0624" y1="-0.504188" x2="-0.0655813" y2="11.5558" gradientUnits="userSpaceOnUse">
<stop stop-color="#2675A7"/>
<stop offset="1" stop-color="#1D5E8C"/>
</linearGradient>
<linearGradient id="paint1_linear_209_173" x1="21" y1="3.75" x2="3" y2="3.75" gradientUnits="userSpaceOnUse">
<stop stop-opacity="0.5"/>
<stop offset="0.890123"/>
<stop offset="1" stop-opacity="0"/>
</linearGradient>
<linearGradient id="paint2_linear_209_173" x1="21" y1="3" x2="20.5" y2="6" gradientUnits="userSpaceOnUse">
<stop stop-color="#FAFAFA"/>
<stop offset="1" stop-color="#FAFAFA" stop-opacity="0"/>
</linearGradient>
<linearGradient id="paint3_linear_209_173" x1="23" y1="8.60262" x2="1.01146" y2="9.11202" gradientUnits="userSpaceOnUse">
<stop stop-opacity="0.437507"/>
<stop offset="1" stop-opacity="0.87451"/>
</linearGradient>
<linearGradient id="paint4_linear_209_173" x1="1" y1="23" x2="21.9311" y2="4.77258" gradientUnits="userSpaceOnUse">
<stop stop-color="#318CDE"/>
<stop offset="1" stop-color="#70B7F1"/>
</linearGradient>
<linearGradient id="paint5_linear_209_173" x1="1" y1="22.9558" x2="21.9343" y2="4.77303" gradientUnits="userSpaceOnUse">
<stop stop-color="#1E71BD"/>
<stop offset="1" stop-color="#559CD9"/>
</linearGradient>
<linearGradient id="paint6_linear_209_173" x1="15.9" y1="11" x2="7.8" y2="20" gradientUnits="userSpaceOnUse">
<stop stop-color="#2572A4"/>
<stop offset="1" stop-color="#1A5278"/>
</linearGradient>
<linearGradient id="paint7_linear_209_173" x1="7.5" y1="20" x2="16" y2="11" gradientUnits="userSpaceOnUse">
<stop stop-color="#CCCCCC"/>
<stop offset="1" stop-color="#FAFAFA"/>
</linearGradient>
</defs>
</svg>
