<svg width="20" height="20" viewBox="0 0 20 20" fill="none" xmlns="http://www.w3.org/2000/svg">
<rect width="20" height="20" rx="5.07812" fill="url(#paint0_linear_11_76)"/>
<rect x="2.1875" y="2.1875" width="15.625" height="15.625" rx="3.51562" fill="#F9F9F9"/>
<path d="M0 6.32813C0 4.81797 1.22422 3.59375 2.73437 3.59375H6.52144C7.50709 3.59375 8.46155 3.93931 9.21875 4.57031V4.57031C9.97595 5.20131 10.9304 5.54688 11.9161 5.54688H17.2656C18.7758 5.54688 20 6.7711 20 8.28125V14.9219C20 17.7264 17.7264 20 14.9219 20H5.07812C2.27355 20 0 17.7264 0 14.9219V6.32813Z" fill="url(#paint1_linear_11_76)" fill-opacity="0.9"/>
<rect width="20" height="20" rx="5.07812" fill="url(#paint2_linear_11_76)"/>
<rect x="2.1875" y="2.1875" width="15.625" height="15.625" rx="3.51562" fill="#F9F9F9"/>
<path d="M0 6.32813C0 4.81797 1.22422 3.59375 2.73437 3.59375H6.52144C7.50709 3.59375 8.46155 3.93931 9.21875 4.57031V4.57031C9.97595 5.20131 10.9304 5.54688 11.9161 5.54688H17.2656C18.7758 5.54688 20 6.7711 20 8.28125V14.9219C20 17.7264 17.7264 20 14.9219 20H5.07812C2.27355 20 0 17.7264 0 14.9219V6.32813Z" fill="url(#paint3_linear_11_76)" fill-opacity="0.9"/>
<path d="M13.6331 13.882C13.6331 15.2253 12.6096 15.7324 11.9334 15.7324C11.1612 15.7324 10.6083 15.2298 10.6083 14.5171C10.6083 13.818 11.0424 13.3383 11.9745 13.1464L12.701 12.991C12.8883 12.9544 12.9842 12.8174 12.9842 12.6072L12.9674 9.47828L9.58865 10.1704C9.38304 10.2115 9.34649 10.2526 9.34649 10.4811V14.6617C9.34649 16.0051 8.32302 16.5122 7.64679 16.5122C6.87463 16.5122 6.32178 16.0096 6.32178 15.2968C6.32178 14.5978 6.75583 14.118 7.68793 13.9261L8.41442 13.7708C8.60174 13.7342 8.69769 13.5972 8.69769 13.387L8.67026 8.30621C8.67026 8.03205 8.83932 7.86758 9.15003 7.79903L13.1784 6.97965C13.4251 6.92483 13.6353 7.09387 13.6353 7.34974V9.07228C13.6353 9.08591 13.6345 9.09931 13.6331 9.11244V13.882Z" fill="url(#paint4_linear_11_76)"/>
<path fill-rule="evenodd" clip-rule="evenodd" d="M12.8718 15.4369C12.5658 15.6422 12.2187 15.7324 11.9334 15.7324C11.1612 15.7324 10.6083 15.2298 10.6083 14.5171C10.6083 14.2783 10.659 14.0651 10.7628 13.8803C10.3486 14.1312 10.1512 14.5028 10.1512 14.9742C10.1512 15.6869 10.7041 16.1895 11.4763 16.1895C11.9213 16.1895 12.5166 15.9699 12.8718 15.4369ZM12.527 13.0282L12.701 12.991C12.8883 12.9544 12.9843 12.8174 12.9843 12.6072L12.9674 9.47828L9.58865 10.1704C9.38304 10.2115 9.34649 10.2526 9.34649 10.4811V10.5834L12.5103 9.93537L12.527 13.0282ZM8.67186 8.26098C8.37459 8.33224 8.21317 8.49541 8.21317 8.7633L8.2404 13.808L8.41442 13.7708C8.60174 13.7342 8.69769 13.5972 8.69769 13.387L8.67026 8.30621C8.67026 8.29078 8.6708 8.27571 8.67186 8.26098ZM6.47622 14.6601C6.37241 14.8449 6.32178 15.0581 6.32178 15.2968C6.32178 16.0096 6.87463 16.5122 7.64679 16.5122C7.93211 16.5122 8.27923 16.4219 8.58522 16.2167C8.23009 16.7497 7.63471 16.9693 7.1897 16.9693C6.41754 16.9693 5.86469 16.4667 5.86469 15.7539C5.86469 15.2826 6.06199 14.911 6.47622 14.6601Z" fill="url(#paint5_linear_11_76)" fill-opacity="0.5"/>
<defs>
<linearGradient id="paint0_linear_11_76" x1="20" y1="-5.96046e-07" x2="0" y2="10" gradientUnits="userSpaceOnUse">
<stop stop-color="#C6A86A"/>
<stop offset="1" stop-color="#54452A"/>
</linearGradient>
<linearGradient id="paint1_linear_11_76" x1="18.8281" y1="6.05469" x2="1.36719" y2="18.5156" gradientUnits="userSpaceOnUse">
<stop stop-color="#FFE795"/>
<stop offset="1" stop-color="#7A653E"/>
</linearGradient>
<linearGradient id="paint2_linear_11_76" x1="20" y1="-5.96046e-07" x2="0" y2="10" gradientUnits="userSpaceOnUse">
<stop stop-color="#E3C880"/>
<stop offset="1" stop-color="#6F5C38"/>
</linearGradient>
<linearGradient id="paint3_linear_11_76" x1="18.8281" y1="6.05469" x2="1.36719" y2="18.5156" gradientUnits="userSpaceOnUse">
<stop stop-color="#FFE795"/>
<stop offset="1" stop-color="#7A653E"/>
</linearGradient>
<linearGradient id="paint4_linear_11_76" x1="14.0924" y1="6.05512" x2="5.86469" y2="17.0254" gradientUnits="userSpaceOnUse">
<stop stop-color="#D9867F"/>
<stop offset="1" stop-color="#8B403A"/>
</linearGradient>
<linearGradient id="paint5_linear_11_76" x1="5.86469" y1="17.0254" x2="14.0924" y2="6.05512" gradientUnits="userSpaceOnUse">
<stop stop-color="#54452A" stop-opacity="0.35"/>
<stop offset="1" stop-color="#7A653E" stop-opacity="0.45"/>
</linearGradient>
</defs>
</svg>
