<?xml version="1.0" encoding="UTF-8" standalone="no"?>
<!-- Created with Inkscape (http://www.inkscape.org/) -->

<svg
   width="122mm"
   height="122mm"
   viewBox="0 0 122 122"
   version="1.1"
   id="svg58695"
   xml:space="preserve"
   xmlns:inkscape="http://www.inkscape.org/namespaces/inkscape"
   xmlns:sodipodi="http://sodipodi.sourceforge.net/DTD/sodipodi-0.dtd"
   xmlns="http://www.w3.org/2000/svg"
   xmlns:svg="http://www.w3.org/2000/svg"><sodipodi:namedview
     id="namedview58697"
     pagecolor="#ffffff"
     bordercolor="#000000"
     borderopacity="0.25"
     inkscape:showpageshadow="2"
     inkscape:pageopacity="0.0"
     inkscape:pagecheckerboard="0"
     inkscape:deskcolor="#d1d1d1"
     inkscape:document-units="mm"
     showgrid="false" /><defs
     id="defs58692"><linearGradient
       id="paint0_linear_16_2"
       x1="23"
       y1="0.99999899"
       x2="1"
       y2="12"
       gradientUnits="userSpaceOnUse"
       gradientTransform="matrix(5.5454545,0,0,5.5454545,-5.5454568,-5.5454555)"><stop
         stop-color="#E3C880"
         id="stop61012" /><stop
         offset="1"
         stop-color="#6F5C38"
         id="stop61014" /></linearGradient><linearGradient
       id="paint1_linear_16_2"
       x1="23"
       y1="5.4000001"
       x2="1.42949"
       y2="23.511499"
       gradientUnits="userSpaceOnUse"
       gradientTransform="matrix(5.5454545,0,0,5.5454545,-5.5454568,-5.5454555)"><stop
         stop-color="#FFE795"
         id="stop61017" /><stop
         offset="1"
         stop-color="#7A653E"
         id="stop61019" /></linearGradient></defs><rect
     x="-1.0124086e-06"
     y="2.4724891e-06"
     width="122"
     height="122"
     rx="36.599998"
     fill="url(#paint0_linear_16_2)"
     id="rect61006"
     style="fill:url(#paint0_linear_16_2);stroke-width:5.54545"
     inkscape:export-filename="temp-folder.svg"
     inkscape:export-xdpi="26.553411"
     inkscape:export-ydpi="26.553411" /><rect
     x="12.199996"
     y="12.2"
     width="97.599998"
     height="97.599998"
     rx="24.4"
     fill="#fafafa"
     id="rect61008"
     style="stroke-width:5.54545" /><path
     d="m -2.8271059e-6,41.079672 c 0,-9.21194 7.4677310271059,-16.67967 16.6796738271059,-16.67967 h 23.194806 c 5.958702,0 11.735956,2.05148 16.359758,5.80953 v 0 c 4.62435,3.75804 10.40105,5.80952 16.3602,5.80952 h 32.725945 c 9.21211,0 16.67962,7.46774 16.67962,16.67996 v 32.70099 C 122,105.61373 105.61374,122 85.399995,122 H 36.599997 C 16.386372,122 -2.8271059e-6,105.61373 -2.8271059e-6,85.400002 Z"
     fill="url(#paint1_linear_16_2)"
     fill-opacity="0.9"
     id="path61010"
     style="fill:url(#paint1_linear_16_2);stroke-width:5.54545" /><path
     d="M 79.986905,101.3398 60.943165,87.533022 41.833716,101.24962 49.079665,78.870462 30.128691,64.936132 l 23.523178,-0.0244 7.396926,-22.3302 7.29156,22.3637 23.52318,0.13457 -19.0154,13.84541 z"
     fill="none"
     stroke="#ffffff"
     stroke-dashoffset="0.42096"
     stroke-width="3.4086"
     id="path61439" /></svg>
