<svg width="24" height="24" viewBox="0 0 24 24" fill="none" xmlns="http://www.w3.org/2000/svg">
<rect opacity="0.8125" x="1" y="1" width="22" height="22" rx="6.6" fill="url(#paint0_linear_211_199)"/>
<rect opacity="0.625" x="3" y="2.25" width="18" height="18" rx="4.4" fill="#777777" fill-opacity="0.875"/>
<rect x="3" y="3" width="18" height="18" rx="4.4" fill="#CCCCCC"/>
<path opacity="0.125" d="M1 7.50781C1 5.84664 2.34664 4.5 4.00781 4.5H8.19048C9.265 4.5 10.3068 4.86994 11.1406 5.54762V5.54762C11.9745 6.2253 13.0162 6.59524 14.0908 6.59524H19.9922C21.6534 6.59524 23 7.94188 23 9.60305V15.5C23 19.1451 20.0451 22.1 16.4 22.1H7.6C3.95492 22.1 1 19.1451 1 15.5V7.50781Z" fill="url(#paint1_linear_211_199)" fill-opacity="0.875"/>
<path opacity="0.875" d="M1 8.40782C1 6.74665 2.34664 5.4 4.00781 5.4H8.19048C9.265 5.4 10.3068 5.76994 11.1406 6.44762V6.44762C11.9745 7.1253 13.0162 7.49524 14.0908 7.49524H19.9922C21.6534 7.49524 23 8.84188 23 10.5031V16.4C23 20.0451 20.0451 23 16.4 23H7.6C3.95492 23 1 20.0451 1 16.4V8.40782Z" fill="url(#paint2_linear_211_199)"/>
<path opacity="0.75" d="M7.69653 8L7.25 8.44653L8.77467 9.9712C8.60399 10.2296 8.51304 10.5324 8.51316 10.8421C8.51325 11.5923 9.04124 12.2389 9.77632 12.389V16.8779C9.0426 17.0277 8.515 17.6722 8.51316 18.4211C8.51317 19.2931 9.22008 20 10.0921 20C10.9641 20 11.671 19.2931 11.671 18.4211C11.6692 17.6722 11.1416 17.0277 10.4079 16.8779V12.389C10.6059 12.3487 10.7943 12.2708 10.9629 12.1595L13.8272 15.0238C13.6566 15.2822 13.5656 15.585 13.5657 15.8947C13.5657 16.7667 14.2726 17.4736 15.1447 17.4736C16.0167 17.4736 16.7236 16.7667 16.7236 15.8947C16.7236 15.0227 16.0167 14.3158 15.1447 14.3158C14.835 14.3156 14.5322 14.4066 14.2738 14.5773L11.4095 11.713C11.5802 11.4546 11.6711 11.1517 11.671 10.8421C11.671 9.97008 10.9641 9.26316 10.0921 9.26314C9.78243 9.26302 9.47958 9.35396 9.2212 9.52464L7.69653 8Z" fill="#198CFF"/>
<defs>
<linearGradient id="paint0_linear_211_199" x1="23" y1="0.999999" x2="1" y2="12" gradientUnits="userSpaceOnUse">
<stop stop-color="#E3C880"/>
<stop offset="1" stop-color="#6F5C38"/>
</linearGradient>
<linearGradient id="paint1_linear_211_199" x1="23" y1="9" x2="1.01236" y2="9.52141" gradientUnits="userSpaceOnUse">
<stop stop-opacity="0.5"/>
<stop offset="1"/>
</linearGradient>
<linearGradient id="paint2_linear_211_199" x1="23" y1="5.4" x2="1.42949" y2="23.5115" gradientUnits="userSpaceOnUse">
<stop stop-color="#FFE795"/>
<stop offset="1" stop-color="#7A653E"/>
</linearGradient>
</defs>
</svg>
