<svg width="24" height="24" viewBox="0 0 24 24" fill="none" xmlns="http://www.w3.org/2000/svg">
<rect opacity="0.8125" x="1" y="1" width="22" height="22" rx="6.6" fill="url(#paint0_linear_211_394)"/>
<rect opacity="0.125" x="3" y="2.25" width="18" height="18" rx="4.4" fill="url(#paint1_linear_211_394)" fill-opacity="0.875"/>
<rect x="3.25" y="3.25" width="17.5" height="17.5" rx="4.15" fill="#CCCCCC" stroke="url(#paint2_linear_211_394)" stroke-width="0.5"/>
<path opacity="0.125" d="M1 7.50781C1 5.84664 2.34664 4.5 4.00781 4.5H8.19048C9.265 4.5 10.3068 4.86994 11.1406 5.54762V5.54762C11.9745 6.2253 13.0162 6.59524 14.0908 6.59524H19.9922C21.6534 6.59524 23 7.94188 23 9.60305V15.5C23 19.1451 20.0451 22.1 16.4 22.1H7.6C3.95492 22.1 1 19.1451 1 15.5V7.50781Z" fill="url(#paint3_linear_211_394)" fill-opacity="0.875"/>
<g opacity="0.875">
<path d="M1 8.40782C1 6.74665 2.34664 5.4 4.00781 5.4H8.19048C9.265 5.4 10.3068 5.76994 11.1406 6.44762V6.44762C11.9745 7.1253 13.0162 7.49524 14.0908 7.49524H19.9922C21.6534 7.49524 23 8.84188 23 10.5031V16.4C23 20.0451 20.0451 23 16.4 23H7.6C3.95492 23 1 20.0451 1 16.4V8.40782Z" fill="url(#paint4_linear_211_394)"/>
<path d="M22.625 10.5031V16.4C22.625 19.838 19.838 22.625 16.4 22.625H7.6C4.16203 22.625 1.375 19.838 1.375 16.4V8.40782C1.375 6.95375 2.55375 5.775 4.00781 5.775H8.19048C9.17886 5.775 10.1371 6.11528 10.9041 6.73864C11.8048 7.47065 12.9301 7.87024 14.0908 7.87024H19.9922C21.4462 7.87024 22.625 9.04899 22.625 10.5031Z" stroke="url(#paint5_linear_211_394)" stroke-opacity="0.375" stroke-width="0.75" stroke-linejoin="round"/>
</g>
<path d="M14.0992 11.1456L12.9606 14.2199L11.8554 11.5341L11.7286 11.2262L11.6214 11.5414L10.0194 16.2507L8.96575 13.2365L8.93647 13.1528H8.84775H6.625V10.2222C6.625 9.61414 7.11414 9.125 7.72221 9.125H16.2777C16.8858 9.125 17.3749 9.61414 17.3749 10.2222V15.7643H15.9029L14.3347 11.1488L14.2215 10.8154L14.0992 11.1456ZM10.149 18.5471L11.8047 13.6786L12.8835 16.2986L13.0054 16.5946L13.1163 16.2943L14.1889 13.3905L15.2582 16.5395L15.287 16.6243H15.3766H17.3749V18.7778C17.3749 19.3859 16.8858 19.875 16.2777 19.875H7.72221C7.11414 19.875 6.625 19.3859 6.625 18.7778V14.0115H8.32697L9.91261 18.5481L10.0322 18.8903L10.149 18.5471Z" fill="#162D56" stroke="#EEEEEE" stroke-width="0.25"/>
<defs>
<linearGradient id="paint0_linear_211_394" x1="23" y1="0.999999" x2="1" y2="12" gradientUnits="userSpaceOnUse">
<stop stop-color="#E3C880"/>
<stop offset="1" stop-color="#6F5C38"/>
</linearGradient>
<linearGradient id="paint1_linear_211_394" x1="21" y1="4" x2="3" y2="4" gradientUnits="userSpaceOnUse">
<stop stop-opacity="0.5"/>
<stop offset="0.890123"/>
<stop offset="1" stop-opacity="0"/>
</linearGradient>
<linearGradient id="paint2_linear_211_394" x1="12" y1="3" x2="11.5" y2="8" gradientUnits="userSpaceOnUse">
<stop stop-color="#DDDDDD"/>
<stop offset="1" stop-color="#CCCCCC" stop-opacity="0"/>
</linearGradient>
<linearGradient id="paint3_linear_211_394" x1="23" y1="9" x2="1.01236" y2="9.52141" gradientUnits="userSpaceOnUse">
<stop stop-opacity="0.5"/>
<stop offset="1"/>
</linearGradient>
<linearGradient id="paint4_linear_211_394" x1="23" y1="5.4" x2="1.42949" y2="23.5115" gradientUnits="userSpaceOnUse">
<stop stop-color="#FFE795"/>
<stop offset="1" stop-color="#7A653E"/>
</linearGradient>
<linearGradient id="paint5_linear_211_394" x1="15" y1="5.5" x2="5.5" y2="19.5" gradientUnits="userSpaceOnUse">
<stop stop-color="#FFE795"/>
<stop offset="1" stop-color="#7A653E"/>
</linearGradient>
</defs>
</svg>
