<svg width="24" height="24" viewBox="0 0 24 24" fill="none" xmlns="http://www.w3.org/2000/svg">
<rect opacity="0.8125" x="1" y="1" width="22" height="22" rx="6.6" fill="url(#paint0_linear_211_346)"/>
<rect opacity="0.625" x="3" y="2.25" width="18" height="18" rx="4.4" fill="#777777" fill-opacity="0.875"/>
<rect x="3" y="3" width="18" height="18" rx="4.4" fill="#CCCCCC"/>
<path opacity="0.125" d="M1 7.50781C1 5.84664 2.34664 4.5 4.00781 4.5H8.19048C9.265 4.5 10.3068 4.86994 11.1406 5.54762V5.54762C11.9745 6.2253 13.0162 6.59524 14.0908 6.59524H19.9922C21.6534 6.59524 23 7.94188 23 9.60305V15.5C23 19.1451 20.0451 22.1 16.4 22.1H7.6C3.95492 22.1 1 19.1451 1 15.5V7.50781Z" fill="url(#paint1_linear_211_346)" fill-opacity="0.875"/>
<path opacity="0.875" d="M1 8.40782C1 6.74665 2.34664 5.4 4.00781 5.4H8.19048C9.265 5.4 10.3068 5.76994 11.1406 6.44762V6.44762C11.9745 7.1253 13.0162 7.49524 14.0908 7.49524H19.9922C21.6534 7.49524 23 8.84188 23 10.5031V16.4C23 20.0451 20.0451 23 16.4 23H7.6C3.95492 23 1 20.0451 1 16.4V8.40782Z" fill="url(#paint2_linear_211_346)"/>
<path opacity="0.75" d="M11.9975 8C8.74022 8 6.08945 10.5953 6 13.8309C5.99991 13.8344 6.00167 13.8418 6.00504 13.8518C6.00581 13.8354 6.00665 13.8189 6.00755 13.8025L8.96194 15.1078C9.29568 14.8087 9.72796 14.6432 10.1761 14.6428C10.1945 14.6428 10.2129 14.6431 10.2314 14.6437L11.3568 12.7678C11.3559 12.75 11.3552 12.7321 11.3547 12.7143C11.3547 12.0891 11.603 11.4896 12.0451 11.0475C12.4871 10.6055 13.0867 10.3571 13.7118 10.3571C14.0214 10.3571 14.3279 10.4181 14.6139 10.5365C14.8998 10.655 15.1597 10.8286 15.3786 11.0475C15.5975 11.2664 15.7711 11.5262 15.8895 11.8122C16.008 12.0982 16.069 12.4047 16.069 12.7143C16.0688 13.289 15.8587 13.844 15.4781 14.2747C15.0975 14.7054 14.5727 14.9821 14.0023 15.053L11.9921 16.3236C11.9957 16.3704 11.9976 16.4173 11.9976 16.4643C11.9976 16.9473 11.8057 17.4106 11.4641 17.7522C11.1226 18.0938 10.6593 18.2857 10.1762 18.2857C9.6958 18.2856 9.23489 18.0957 8.89382 17.7574C8.55276 17.419 8.35916 16.9597 8.35519 16.4793L6.19852 15.5263C6.18363 15.4574 6.16995 15.3881 6.1575 15.3187C6.15685 15.3582 6.16355 15.4088 6.18043 15.4761C6.83818 18.0759 9.19328 20 11.9975 20C15.3112 20 17.9975 17.3137 17.9975 14C17.9975 10.6863 15.3112 8 11.9975 8ZM13.7118 11.2142C13.3139 11.2142 12.9324 11.3722 12.6511 11.6535C12.3698 11.9348 12.2118 12.3164 12.2118 12.7142C12.2118 13.112 12.3698 13.4935 12.6511 13.7748C12.9324 14.0561 13.3139 14.2142 13.7118 14.2142C14.1096 14.2142 14.4911 14.0561 14.7724 13.7748C15.0537 13.4935 15.2118 13.112 15.2118 12.7142C15.2118 12.3164 15.0537 11.9348 14.7724 11.6535C14.4911 11.3722 14.1096 11.2142 13.7118 11.2142ZM13.7118 11.6428C13.8525 11.6428 13.9918 11.6705 14.1218 11.7243C14.2518 11.7781 14.3699 11.8571 14.4694 11.9566C14.5689 12.0561 14.6478 12.1742 14.7016 12.3042C14.7555 12.4341 14.7832 12.5735 14.7832 12.7142C14.7832 12.8549 14.7555 12.9942 14.7016 13.1242C14.6478 13.2542 14.5689 13.3723 14.4694 13.4718C14.3699 13.5713 14.2518 13.6502 14.1218 13.7041C13.9918 13.7579 13.8525 13.7856 13.7118 13.7856C13.5711 13.7856 13.4317 13.7579 13.3017 13.7041C13.1717 13.6502 13.0536 13.5713 12.9541 13.4718C12.8546 13.3723 12.7757 13.2542 12.7219 13.1242C12.668 12.9942 12.6403 12.8549 12.6403 12.7142C12.6403 12.5735 12.668 12.4341 12.7219 12.3042C12.7757 12.1742 12.8546 12.0561 12.9541 11.9566C13.0536 11.8571 13.1717 11.7781 13.3017 11.7243C13.4317 11.6705 13.5711 11.6428 13.7118 11.6428ZM10.1761 15.2855C9.99253 15.2855 9.81153 15.3284 9.64747 15.4107L10.4791 15.7781C10.5713 15.8165 10.6548 15.8729 10.7249 15.9441C10.795 16.0152 10.8502 16.0996 10.8872 16.1923C10.9243 16.285 10.9424 16.3842 10.9406 16.484C10.9389 16.5838 10.9172 16.6823 10.8768 16.7736C10.8365 16.865 10.7783 16.9473 10.7057 17.0159C10.6331 17.0844 10.5476 17.1378 10.4541 17.1729C10.3606 17.2079 10.261 17.224 10.1613 17.2201C10.0615 17.2162 9.96352 17.1924 9.87307 17.1501L9.04145 16.7826C9.11091 17.0301 9.25938 17.2481 9.46422 17.4033C9.66906 17.5586 9.91905 17.6427 10.1761 17.6427C10.4887 17.6427 10.7884 17.5185 11.0095 17.2975C11.2305 17.0765 11.3547 16.7767 11.3547 16.4641C11.3547 16.1515 11.2305 15.8517 11.0095 15.6307C10.7884 15.4097 10.4886 15.2855 10.1761 15.2855Z" fill="#00405F"/>
<defs>
<linearGradient id="paint0_linear_211_346" x1="23" y1="0.999999" x2="1" y2="12" gradientUnits="userSpaceOnUse">
<stop stop-color="#E3C880"/>
<stop offset="1" stop-color="#6F5C38"/>
</linearGradient>
<linearGradient id="paint1_linear_211_346" x1="23" y1="9" x2="1.01236" y2="9.52141" gradientUnits="userSpaceOnUse">
<stop stop-opacity="0.5"/>
<stop offset="1"/>
</linearGradient>
<linearGradient id="paint2_linear_211_346" x1="23" y1="5.4" x2="1.42949" y2="23.5115" gradientUnits="userSpaceOnUse">
<stop stop-color="#FFE795"/>
<stop offset="1" stop-color="#7A653E"/>
</linearGradient>
</defs>
</svg>
