<svg width="24" height="24" viewBox="0 0 24 24" fill="none" xmlns="http://www.w3.org/2000/svg">
<rect x="1" y="1" width="22" height="22" rx="6.6" fill="url(#paint0_linear_201_71)"/>
<rect x="3.2" y="3.2" width="17.6" height="17.6" rx="4.4" fill="#FAFAFA"/>
<path opacity="0.85" d="M1 8.40781C1 6.74664 2.34664 5.4 4.00781 5.4H8.19048C9.265 5.4 10.3068 5.76994 11.1406 6.44762V6.44762C11.9745 7.1253 13.0162 7.49524 14.0908 7.49524H19.9922C21.6534 7.49524 23 8.84188 23 10.5031V16.4C23 20.0451 20.0451 23 16.4 23H7.6C3.95492 23 1 20.0451 1 16.4V8.40781Z" fill="url(#paint1_linear_201_71)"/>
<defs>
<linearGradient id="paint0_linear_201_71" x1="3.17585" y1="21.0097" x2="21.2338" y2="2.95171" gradientUnits="userSpaceOnUse">
<stop stop-color="#680000"/>
<stop offset="1" stop-color="#E32A2A"/>
</linearGradient>
<linearGradient id="paint1_linear_201_71" x1="3.20514" y1="21.2351" x2="22.5382" y2="9.85452" gradientUnits="userSpaceOnUse">
<stop stop-color="#B71414"/>
<stop offset="1" stop-color="#FF3838"/>
</linearGradient>
</defs>
</svg>
