<?xml version="1.0" encoding="UTF-8" standalone="no"?>
<!-- Created with Inkscape (http://www.inkscape.org/) -->

<svg
   width="122.00043mm"
   height="122.39991mm"
   viewBox="0 0 122.00043 122.39991"
   version="1.1"
   id="svg40786"
   xml:space="preserve"
   xmlns:inkscape="http://www.inkscape.org/namespaces/inkscape"
   xmlns:sodipodi="http://sodipodi.sourceforge.net/DTD/sodipodi-0.dtd"
   xmlns:xlink="http://www.w3.org/1999/xlink"
   xmlns="http://www.w3.org/2000/svg"
   xmlns:svg="http://www.w3.org/2000/svg"><sodipodi:namedview
     id="namedview40788"
     pagecolor="#ffffff"
     bordercolor="#000000"
     borderopacity="0.25"
     inkscape:showpageshadow="2"
     inkscape:pageopacity="0.0"
     inkscape:pagecheckerboard="0"
     inkscape:deskcolor="#d1d1d1"
     inkscape:document-units="mm"
     showgrid="false" /><defs
     id="defs40783"><linearGradient
       x1="23"
       y1="0.99999899"
       x2="1"
       y2="12"
       gradientUnits="userSpaceOnUse"
       gradientTransform="matrix(15.719399,0,0,15.719399,-15.719406,-15.719386)"
       spreadMethod="pad"
       id="linearGradient25612"><stop
         style="stop-opacity:1;stop-color:#87de87"
         offset="0"
         id="stop25608" /><stop
         style="stop-opacity:1;stop-color:#217821"
         offset="1"
         id="stop25610" /></linearGradient><linearGradient
       inkscape:collect="always"
       xlink:href="#linearGradient9991"
       id="linearGradient9993"
       x1="38.383476"
       y1="221.70691"
       x2="176.81567"
       y2="112.21963"
       gradientUnits="userSpaceOnUse"
       gradientTransform="translate(1e-6,68.186921)" /><linearGradient
       inkscape:collect="always"
       id="linearGradient9991"><stop
         style="stop-color:#2ca02c;stop-opacity:1"
         offset="0"
         id="stop9987" /><stop
         style="stop-color:#afe9af;stop-opacity:1"
         offset="1"
         id="stop9989" /></linearGradient><linearGradient
       id="paint2_linear_35_2"
       x1="4.3000002"
       y1="19.548201"
       x2="14.3874"
       y2="6.6872001"
       gradientUnits="userSpaceOnUse"
       gradientTransform="matrix(5.5454545,0,0,5.5454545,303.96045,125.25704)"><stop
         stop-color="#54452A"
         stop-opacity="0.35"
         id="stop34871" /><stop
         offset="1"
         stop-color="#54452A"
         stop-opacity="0"
         id="stop34873" /></linearGradient><linearGradient
       id="paint3_linear_35_2"
       x1="6.0998402"
       y1="11.9129"
       x2="10.7587"
       y2="7.6125898"
       gradientUnits="userSpaceOnUse"
       gradientTransform="matrix(5.5454545,0,0,5.5454545,303.96045,125.25704)"><stop
         stop-color="#54452A"
         stop-opacity="0.35"
         id="stop34876" /><stop
         offset="1"
         stop-color="#54452A"
         stop-opacity="0"
         id="stop34878" /></linearGradient><linearGradient
       id="paint4_linear_35_2"
       x1="18.6"
       y1="9.8394804"
       x2="9.5206699"
       y2="22.379801"
       gradientUnits="userSpaceOnUse"
       gradientTransform="matrix(5.5454545,0,0,5.5454545,303.96045,125.25704)"><stop
         stop-color="#3C9BCE"
         id="stop34881" /><stop
         offset="1"
         stop-color="#00405F"
         id="stop34883" /></linearGradient><linearGradient
       id="paint5_linear_35_2"
       x1="11.5002"
       y1="7.2416201"
       x2="7.1997099"
       y2="11.542"
       gradientUnits="userSpaceOnUse"
       gradientTransform="matrix(5.5454545,0,0,5.5454545,303.96045,125.25704)"><stop
         stop-color="#3C9BCE"
         id="stop34886" /><stop
         offset="1"
         stop-color="#00405F"
         id="stop34888" /></linearGradient></defs><g
     inkscape:label="Camada 1"
     inkscape:groupmode="layer"
     id="layer1"
     transform="translate(-43.999784,-87.300039)"><g
       id="g41038"
       transform="translate(0,-67.95763)"><rect
         x="56.200001"
         y="167.4579"
         width="97.599998"
         height="97.599998"
         rx="24.4"
         fill="#fafafa"
         id="rect19687"
         style="stroke-width:5.54545"
         inkscape:export-filename="models-green.svg"
         inkscape:export-xdpi="26.553411"
         inkscape:export-ydpi="26.553411" /><g
         id="g25596"
         transform="matrix(0.35277776,0,0,0.35277778,43.999786,155.25767)"><g
           id="g25598"><g
             id="g25600"><g
               id="g25606"><path
                 d="m 103.746,0 h 138.332 c 57.477,0 103.75,46.273 103.75,103.746 v 138.332 c 0,57.477 -46.273,103.75 -103.75,103.75 H 103.746 C 46.273,345.828 0,299.555 0,242.078 V 103.746 C 0,46.273 46.273,0 103.746,0 Z"
                 style="fill:url(#linearGradient25612);stroke:none"
                 id="path25614" /></g></g></g><path
           d="m 103.746,34.582 h 138.332 c 38.317,0 69.164,30.848 69.164,69.168 v 138.328 c 0,38.317 -30.847,69.164 -69.164,69.164 H 103.746 c -38.316,0 -69.164,-30.847 -69.164,-69.164 V 103.75 c 0,-38.32 30.848,-69.168 69.164,-69.168 z"
           style="fill:#fafafa;fill-opacity:1;fill-rule:nonzero;stroke:none"
           id="path25616" /></g><path
         d="m 43.999791,196.73778 c 0,-9.21209 7.4676,-16.6797 16.67969,-16.6797 h 23.19514 c 5.95876,0 11.7355,2.05176 16.358639,5.80991 4.62492,3.75778 10.40165,5.80989 16.36148,5.80989 h 32.72578 c 9.21209,0 16.67969,7.46725 16.67969,16.67969 v 32.70074 c 0,20.2131 -16.38618,36.59928 -36.60069,36.59928 H 80.599071 c -20.2131,0 -36.59928,-16.38618 -36.59928,-36.59928 z"
         style="fill:url(#linearGradient9993);fill-opacity:1;fill-rule:nonzero;stroke:none;stroke-width:0.352778"
         id="path8489" /></g></g><g
     id="g46284"
     transform="translate(-306.45645,-123.7958)"><path
       d="m 393.95264,215.13611 -9.20213,-21.52025 c -1.67528,-3.93893 -4.17406,-6.1732 -7.02609,-6.32015 -2.82208,-0.14696 -5.55599,1.82279 -7.6433,5.58593 l -5.58593,10.02452 c -1.1762,2.1167 -2.85148,3.38107 -4.67427,3.52802 -1.8524,0.1769 -3.70447,-0.79355 -5.20385,-2.70507 l -0.64677,-0.82295 c -2.08731,-2.61634 -4.67437,-3.88071 -7.32028,-3.61563 -2.64584,0.26451 -4.90955,2.08731 -6.40888,5.0569 l -5.08601,10.14208 c -1.82274,3.67497 -1.64634,7.93721 0.49976,11.40644 2.14614,3.46924 5.87973,5.55655 9.96618,5.55655 h 37.51294 c 3.93949,0 7.61391,-1.96975 9.78939,-5.26264 2.23427,-3.29233 2.58751,-7.43756 1.02924,-11.05375 z"
       fill="url(#paint2_linear_35_2)"
       fill-opacity="0.5"
       id="path34853"
       style="fill:url(#paint2_linear_35_2);stroke-width:5.54545" /><path
       d="m 349.71095,190.32574 c 5.48789,0 9.9364,-4.44856 9.9364,-9.93645 0,-5.48795 -4.44851,-9.93679 -9.9364,-9.93679 -5.48795,0 -9.93679,4.44884 -9.93679,9.93679 0,5.48789 4.44884,9.93645 9.93679,9.93645 z"
       fill="url(#paint3_linear_35_2)"
       fill-opacity="0.5"
       id="path34855"
       style="fill:url(#paint3_linear_35_2);stroke-width:5.54545" /><path
       d="m 400.05264,212.08611 -9.20213,-21.51969 c -1.67528,-3.93949 -4.17406,-6.17376 -7.02609,-6.32071 -2.82208,-0.14696 -5.55599,1.82279 -7.64385,5.58538 l -5.58538,10.02507 c -1.1762,2.1167 -2.85148,3.38107 -4.67427,3.52802 -1.85218,0.1769 -3.70436,-0.79355 -5.20385,-2.70507 l -0.6466,-0.82295 c -2.08748,-2.61634 -4.67454,-3.88071 -7.32045,-3.61563 -2.64584,0.26451 -4.90955,2.08731 -6.40888,5.0569 l -5.08601,10.14208 c -1.82274,3.67497 -1.64634,7.93721 0.49976,11.40644 2.14614,3.46924 5.87973,5.55655 9.96618,5.55655 h 37.51294 c 3.93949,0 7.61391,-1.96975 9.78939,-5.26264 2.23427,-3.29233 2.58751,-7.43756 1.02924,-11.05375 z"
       fill="url(#paint4_linear_35_2)"
       id="path34857"
       style="fill:url(#paint4_linear_35_2);stroke-width:5.54545" /><path
       d="m 355.81095,187.27574 c 5.48784,0 9.9364,-4.44856 9.9364,-9.93645 0,-5.48795 -4.44856,-9.93679 -9.9364,-9.93679 -5.48795,0 -9.93679,4.44884 -9.93679,9.93679 0,5.48789 4.44884,9.93645 9.93679,9.93645 z"
       fill="url(#paint5_linear_35_2)"
       id="path34859"
       style="fill:url(#paint5_linear_35_2);stroke-width:5.54545" /></g></svg>
