<?xml version="1.0" encoding="UTF-8" standalone="no"?>
<!-- Created with Inkscape (http://www.inkscape.org/) -->

<svg
   width="122.42953mm"
   height="122.39994mm"
   viewBox="0 0 122.42953 122.39994"
   version="1.1"
   id="svg2972"
   xml:space="preserve"
   xmlns:inkscape="http://www.inkscape.org/namespaces/inkscape"
   xmlns:sodipodi="http://sodipodi.sourceforge.net/DTD/sodipodi-0.dtd"
   xmlns:xlink="http://www.w3.org/1999/xlink"
   xmlns="http://www.w3.org/2000/svg"
   xmlns:svg="http://www.w3.org/2000/svg"><sodipodi:namedview
     id="namedview2974"
     pagecolor="#ffffff"
     bordercolor="#000000"
     borderopacity="0.25"
     inkscape:showpageshadow="2"
     inkscape:pageopacity="0.0"
     inkscape:pagecheckerboard="0"
     inkscape:deskcolor="#d1d1d1"
     inkscape:document-units="mm"
     showgrid="false" /><defs
     id="defs2969"><linearGradient
       inkscape:collect="always"
       id="linearGradient37341"><stop
         style="stop-color:#333333;stop-opacity:1"
         offset="0"
         id="stop37337" /><stop
         style="stop-color:#808080;stop-opacity:1"
         offset="1"
         id="stop37339" /></linearGradient><linearGradient
       inkscape:collect="always"
       id="linearGradient9991"><stop
         style="stop-color:#2ca02c;stop-opacity:1"
         offset="0"
         id="stop9987" /><stop
         style="stop-color:#afe9af;stop-opacity:1"
         offset="1"
         id="stop9989" /></linearGradient><linearGradient
       inkscape:collect="always"
       xlink:href="#linearGradient9991"
       id="linearGradient9993"
       x1="38.383476"
       y1="221.70691"
       x2="176.81567"
       y2="112.21963"
       gradientUnits="userSpaceOnUse"
       gradientTransform="translate(-43.999786,-87.070743)" /><linearGradient
       x1="23"
       y1="0.99999899"
       x2="1"
       y2="12"
       gradientUnits="userSpaceOnUse"
       gradientTransform="matrix(15.719399,0,0,15.719399,-15.719406,-15.719386)"
       spreadMethod="pad"
       id="linearGradient25612"><stop
         style="stop-opacity:1;stop-color:#87de87"
         offset="0"
         id="stop25608" /><stop
         style="stop-opacity:1;stop-color:#217821"
         offset="1"
         id="stop25610" /></linearGradient><linearGradient
       inkscape:collect="always"
       xlink:href="#linearGradient37341"
       id="linearGradient37329"
       x1="-17.668159"
       y1="175.31258"
       x2="208.09407"
       y2="-26.486063"
       gradientUnits="userSpaceOnUse" /><linearGradient
       inkscape:collect="always"
       xlink:href="#linearGradient37341"
       id="linearGradient39540"
       gradientUnits="userSpaceOnUse"
       x1="-17.668159"
       y1="175.31258"
       x2="208.09407"
       y2="-26.486063" /><linearGradient
       inkscape:collect="always"
       xlink:href="#linearGradient37341"
       id="linearGradient39542"
       gradientUnits="userSpaceOnUse"
       x1="-17.668159"
       y1="175.31258"
       x2="208.09407"
       y2="-26.486063" /><linearGradient
       inkscape:collect="always"
       xlink:href="#linearGradient37341"
       id="linearGradient39544"
       gradientUnits="userSpaceOnUse"
       x1="-17.668159"
       y1="175.31258"
       x2="208.09407"
       y2="-26.486063" /><linearGradient
       inkscape:collect="always"
       xlink:href="#linearGradient37341"
       id="linearGradient39546"
       gradientUnits="userSpaceOnUse"
       x1="-17.668159"
       y1="175.31258"
       x2="208.09407"
       y2="-26.486063" /></defs><rect
     x="12.629317"
     y="12.200236"
     width="97.599998"
     height="97.599998"
     rx="24.4"
     fill="#fafafa"
     id="rect19687"
     style="stroke-width:5.54545"
     inkscape:export-filename="models-green.svg"
     inkscape:export-xdpi="26.553411"
     inkscape:export-ydpi="26.553411" /><g
     id="g25596"
     transform="matrix(0.35277776,0,0,0.35277778,0.42910166,2.7249241e-6)"><g
       id="g25598"><g
         id="g25600"><g
           id="g25606"><path
             d="m 103.746,0 h 138.332 c 57.477,0 103.75,46.273 103.75,103.746 v 138.332 c 0,57.477 -46.273,103.75 -103.75,103.75 H 103.746 C 46.273,345.828 0,299.555 0,242.078 V 103.746 C 0,46.273 46.273,0 103.746,0 Z"
             style="fill:url(#linearGradient25612);stroke:none"
             id="path25614" /></g></g></g><path
       d="m 103.746,34.582 h 138.332 c 38.317,0 69.164,30.848 69.164,69.168 v 138.328 c 0,38.317 -30.847,69.164 -69.164,69.164 H 103.746 c -38.316,0 -69.164,-30.847 -69.164,-69.164 V 103.75 c 0,-38.32 30.848,-69.168 69.164,-69.168 z"
       style="fill:#fafafa;fill-opacity:1;fill-rule:nonzero;stroke:none"
       id="path25616" /></g><path
     d="m 3.6571376e-6,41.480114 c 0,-9.21209 7.4676000428624,-16.6797 16.6796903428624,-16.6797 h 23.19514 c 5.95876,0 11.7355,2.05176 16.358642,5.80991 4.624917,3.75778 10.401647,5.80989 16.361477,5.80989 h 32.725777 c 9.21209,0 16.67969,7.46725 16.67969,16.67969 v 32.70074 c 0,20.213096 -16.38618,36.599276 -36.600687,36.599276 H 36.599284 C 16.386184,122.39992 3.6571376e-6,106.01374 3.6571376e-6,85.800644 Z"
     style="fill:url(#linearGradient9993);fill-opacity:1;fill-rule:nonzero;stroke:none;stroke-width:0.352778"
     id="path8489" /><g
     id="g37299"
     transform="matrix(0.35277776,0,0,0.35277778,32.962443,44.646794)"
     style="fill:url(#linearGradient37329);fill-opacity:1"><g
       id="g37301"
       style="fill:url(#linearGradient39546);fill-opacity:1"><g
         id="g37303"
         style="fill:url(#linearGradient39544);fill-opacity:1"><g
           id="g37309"
           style="fill:url(#linearGradient39542);fill-opacity:1"><path
             d="M 57.637,0 V 23.055 H 46.109 c -6.339,0 -11.527,5.187 -11.527,11.527 v 46.113 l 6.227,6.223 -39.309,68.703 -1.5,28.82 21.555,-17.293 8.3,-14.64 c 12.336,5.765 25.707,8.879 39.309,8.879 13.606,0 26.977,-3.114 39.309,-8.879 l 8.3,14.64 21.559,17.293 -1.5,-28.82 -8.875,-15.445 c 21.211,-17.524 33.43,-43.574 33.43,-71.012 h -23.055 c 0,19.137 -7.953,37.465 -22.02,50.492 L 97.523,86.918 103.75,80.695 V 34.582 c 0,-6.34 -5.188,-11.527 -11.531,-11.527 H 80.691 V 0 Z m 11.527,46.109 c 6.34,0 11.527,5.188 11.527,11.528 0,6.34 -5.187,11.527 -11.527,11.527 -6.34,0 -11.527,-5.187 -11.527,-11.527 0,-6.34 5.187,-11.528 11.527,-11.528 z m -11.41,57.637 c 7.262,3.574 14.523,6.227 22.824,0 l 16.367,28.707 c -8.757,3.801 -18.211,5.879 -27.781,5.879 -9.566,0 -19.019,-2.078 -27.781,-5.879 z"
             style="fill:url(#linearGradient39540);fill-opacity:1;stroke:none"
             id="path37317" /></g></g></g></g></svg>
