<?xml version="1.0" encoding="UTF-8" standalone="no"?>
<svg
   width="24"
   height="24"
   viewBox="0 0 24 24"
   fill="none"
   version="1.1"
   id="svg18"
   sodipodi:docname="folder-syncthing.svg"
   inkscape:version="1.3 (0e150ed6c4, 2023-07-21)"
   inkscape:export-filename="../../../../../../../../../Imagens/Big Icons/folder-syncthing.pdf"
   inkscape:export-xdpi="96"
   inkscape:export-ydpi="96"
   xml:space="preserve"
   xmlns:inkscape="http://www.inkscape.org/namespaces/inkscape"
   xmlns:sodipodi="http://sodipodi.sourceforge.net/DTD/sodipodi-0.dtd"
   xmlns="http://www.w3.org/2000/svg"
   xmlns:svg="http://www.w3.org/2000/svg"><sodipodi:namedview
     id="namedview18"
     pagecolor="#ffffff"
     bordercolor="#000000"
     borderopacity="0.25"
     inkscape:showpageshadow="2"
     inkscape:pageopacity="0.0"
     inkscape:pagecheckerboard="0"
     inkscape:deskcolor="#d1d1d1"
     inkscape:zoom="16"
     inkscape:cx="14.84375"
     inkscape:cy="14.65625"
     inkscape:window-width="2560"
     inkscape:window-height="998"
     inkscape:window-x="0"
     inkscape:window-y="0"
     inkscape:window-maximized="1"
     inkscape:current-layer="svg18"><inkscape:page
       x="0"
       y="0"
       width="24"
       height="24"
       id="page18"
       margin="0"
       bleed="0" /></sodipodi:namedview><rect
     opacity="0.8125"
     x="1"
     y="1"
     width="22"
     height="22"
     rx="6.5999999"
     fill="url(#paint0_linear_211_362)"
     id="rect1"
     style="fill:url(#paint0_linear_211_362)" /><rect
     opacity="0.125"
     x="3"
     y="2.25"
     width="18"
     height="18"
     rx="4.4000001"
     fill="url(#paint1_linear_211_362)"
     fill-opacity="0.875"
     id="rect2"
     style="fill:url(#paint1_linear_211_362)" /><rect
     x="3.25"
     y="3.25"
     width="17.5"
     height="17.5"
     rx="4.1500001"
     fill="#cccccc"
     stroke="url(#paint2_linear_211_362)"
     stroke-width="0.5"
     id="rect3"
     style="stroke:url(#paint2_linear_211_362)" /><path
     opacity="0.125"
     d="M 1,7.50781 C 1,5.84664 2.34664,4.5 4.00781,4.5 h 4.18267 c 1.07452,0 2.11632,0.36994 2.95012,1.04762 v 0 c 0.8339,0.67768 1.8756,1.04762 2.9502,1.04762 h 5.9014 C 21.6534,6.59524 23,7.94188 23,9.60305 V 15.5 c 0,3.6451 -2.9549,6.6 -6.6,6.6 H 7.6 C 3.95492,22.1 1,19.1451 1,15.5 Z"
     fill="url(#paint3_linear_211_362)"
     fill-opacity="0.875"
     id="path3"
     style="fill:url(#paint3_linear_211_362)" /><g
     opacity="0.875"
     id="g5"><path
       d="M 1,8.40782 C 1,6.74665 2.34664,5.4 4.00781,5.4 h 4.18267 c 1.07452,0 2.11632,0.36994 2.95012,1.04762 v 0 c 0.8339,0.67768 1.8756,1.04762 2.9502,1.04762 h 5.9014 C 21.6534,7.49524 23,8.84188 23,10.5031 V 16.4 C 23,20.0451 20.0451,23 16.4,23 H 7.6 C 3.95492,23 1,20.0451 1,16.4 Z"
       fill="url(#paint4_linear_211_362)"
       id="path4"
       style="fill:url(#paint4_linear_211_362)" /><path
       d="M 22.625,10.5031 V 16.4 c 0,3.438 -2.787,6.225 -6.225,6.225 H 7.6 C 4.16203,22.625 1.375,19.838 1.375,16.4 V 8.40782 C 1.375,6.95375 2.55375,5.775 4.00781,5.775 h 4.18267 c 0.98838,0 1.94662,0.34028 2.71362,0.96364 0.9007,0.73201 2.026,1.1316 3.1867,1.1316 h 5.9014 c 1.454,0 2.6328,1.17875 2.6328,2.63286 z"
       stroke="url(#paint5_linear_211_362)"
       stroke-opacity="0.375"
       stroke-width="0.75"
       stroke-linejoin="round"
       id="path5"
       style="stroke:url(#paint5_linear_211_362)" /></g><defs
     id="defs18"><linearGradient
       id="paint0_linear_211_362"
       x1="23"
       y1="0.99999899"
       x2="1"
       y2="12"
       gradientUnits="userSpaceOnUse"><stop
         stop-color="#E3C880"
         id="stop6" /><stop
         offset="1"
         stop-color="#6F5C38"
         id="stop7" /></linearGradient><linearGradient
       id="paint1_linear_211_362"
       x1="21"
       y1="4"
       x2="3"
       y2="4"
       gradientUnits="userSpaceOnUse"><stop
         stop-opacity="0.5"
         id="stop8" /><stop
         offset="0.890123"
         id="stop9" /><stop
         offset="1"
         stop-opacity="0"
         id="stop10" /></linearGradient><linearGradient
       id="paint2_linear_211_362"
       x1="12"
       y1="3"
       x2="11.5"
       y2="8"
       gradientUnits="userSpaceOnUse"><stop
         stop-color="#DDDDDD"
         id="stop11" /><stop
         offset="1"
         stop-color="#CCCCCC"
         stop-opacity="0"
         id="stop12" /></linearGradient><linearGradient
       id="paint3_linear_211_362"
       x1="23"
       y1="9"
       x2="1.01236"
       y2="9.52141"
       gradientUnits="userSpaceOnUse"><stop
         stop-opacity="0.5"
         id="stop13" /><stop
         offset="1"
         id="stop14" /></linearGradient><linearGradient
       id="paint4_linear_211_362"
       x1="23"
       y1="5.4000001"
       x2="1.42949"
       y2="23.511499"
       gradientUnits="userSpaceOnUse"><stop
         stop-color="#FFE795"
         id="stop15" /><stop
         offset="1"
         stop-color="#7A653E"
         id="stop16" /></linearGradient><linearGradient
       id="paint5_linear_211_362"
       x1="15"
       y1="5.5"
       x2="5.5"
       y2="19.5"
       gradientUnits="userSpaceOnUse"><stop
         stop-color="#FFE795"
         id="stop17" /><stop
         offset="1"
         stop-color="#7A653E"
         id="stop18" /></linearGradient><linearGradient
       x1="23"
       y1="0.99999899"
       x2="1"
       y2="12"
       gradientUnits="userSpaceOnUse"
       gradientTransform="scale(0.75)"
       spreadMethod="pad"
       id="linearGradient2"><stop
         style="stop-opacity:1;stop-color:#e3c880"
         offset="0"
         id="stop1" /><stop
         style="stop-opacity:1;stop-color:#6f5c38"
         offset="1"
         id="stop2" /></linearGradient><linearGradient
       x1="21"
       y1="4"
       x2="3"
       y2="4"
       gradientUnits="userSpaceOnUse"
       gradientTransform="scale(0.75)"
       spreadMethod="pad"
       id="linearGradient8"><stop
         style="stop-opacity:0.43750668;stop-color:#000000"
         offset="0"
         id="stop6-2" /><stop
         style="stop-opacity:0.87501335;stop-color:#000000"
         offset="0.890123"
         id="stop7-0" /><stop
         style="stop-opacity:0;stop-color:#000000"
         offset="1"
         id="stop8-2" /></linearGradient><clipPath
       clipPathUnits="userSpaceOnUse"
       id="clipPath8"><path
         d="M 0,0 H 19 V 19 H 0 Z"
         id="path8" /></clipPath><mask
       maskUnits="userSpaceOnUse"
       x="0"
       y="0"
       width="1"
       height="1"
       id="mask10"><path
         id="path11"
         d="M 0,0 H 18 V 18 H 0 Z"
         style="fill:url(#linearGradient12);fill-opacity:1;fill-rule:nonzero;stroke:none"
         transform="scale(1.3333333)"
         clip-path="url(#clipPath12)" /></mask><linearGradient
       x1="12"
       y1="3"
       x2="11.5"
       y2="8"
       gradientUnits="userSpaceOnUse"
       gradientTransform="matrix(0.75,0,0,-0.75,0,18)"
       spreadMethod="pad"
       id="linearGradient12"><stop
         style="stop-opacity:1;stop-color:#ffffff"
         offset="0"
         id="stop11-3" /><stop
         style="stop-opacity:0;stop-color:#ffffff"
         offset="1"
         id="stop12-7" /></linearGradient><clipPath
       clipPathUnits="userSpaceOnUse"
       id="clipPath12"><path
         d="M 1,1 H 17 V 17 H 1 Z"
         id="path12" /></clipPath><linearGradient
       x1="12"
       y1="3"
       x2="11.5"
       y2="8"
       gradientUnits="userSpaceOnUse"
       gradientTransform="matrix(0.75,0,0,-0.75,0,18)"
       spreadMethod="pad"
       id="linearGradient14"><stop
         style="stop-opacity:1;stop-color:#dddddd"
         offset="0"
         id="stop13-5" /><stop
         style="stop-opacity:1;stop-color:#cccccc"
         offset="1"
         id="stop14-9" /></linearGradient><clipPath
       clipPathUnits="userSpaceOnUse"
       id="clipPath14"><path
         d="M 1,1 H 17 V 17 H 1 Z"
         id="path14" /></clipPath><linearGradient
       x1="23"
       y1="9"
       x2="1.01236"
       y2="9.52141"
       gradientUnits="userSpaceOnUse"
       gradientTransform="scale(0.75)"
       spreadMethod="pad"
       id="linearGradient18"><stop
         style="stop-opacity:0.43750668;stop-color:#000000"
         offset="0"
         id="stop17-2" /><stop
         style="stop-opacity:0.87501335;stop-color:#000000"
         offset="1"
         id="stop18-2" /></linearGradient><clipPath
       clipPathUnits="userSpaceOnUse"
       id="clipPath18"><path
         d="M 0,0 H 19 V 19 H 0 Z"
         id="path18-8" /></clipPath><linearGradient
       x1="23"
       y1="5.4000001"
       x2="1.42949"
       y2="23.511499"
       gradientUnits="userSpaceOnUse"
       gradientTransform="scale(0.75)"
       spreadMethod="pad"
       id="linearGradient20"><stop
         style="stop-opacity:1;stop-color:#ffe795"
         offset="0"
         id="stop19" /><stop
         style="stop-opacity:1;stop-color:#7a653e"
         offset="1"
         id="stop20" /></linearGradient><mask
       maskUnits="userSpaceOnUse"
       x="0"
       y="0"
       width="1"
       height="1"
       id="mask20"><path
         id="path20"
         d="M 0,0 H 18 V 18 H 0 Z"
         style="fill:url(#linearGradient22);fill-opacity:1;fill-rule:nonzero;stroke:none"
         transform="scale(1.3333333)"
         clip-path="url(#clipPath22)" /></mask><linearGradient
       x1="15"
       y1="5.5"
       x2="5.5"
       y2="19.5"
       gradientUnits="userSpaceOnUse"
       gradientTransform="matrix(0.75,0,0,-0.75,0,18)"
       spreadMethod="pad"
       id="linearGradient22"><stop
         style="stop-opacity:0.37500572;stop-color:#ffffff"
         offset="0"
         id="stop21" /><stop
         style="stop-opacity:0.37500572;stop-color:#ffffff"
         offset="1"
         id="stop22" /></linearGradient><clipPath
       clipPathUnits="userSpaceOnUse"
       id="clipPath22"><path
         d="M 0,4 H 18 V 18 H 0 Z"
         id="path22" /></clipPath><linearGradient
       x1="15"
       y1="5.5"
       x2="5.5"
       y2="19.5"
       gradientUnits="userSpaceOnUse"
       gradientTransform="matrix(0.75,0,0,-0.75,0,18)"
       spreadMethod="pad"
       id="linearGradient24"><stop
         style="stop-opacity:1;stop-color:#ffe795"
         offset="0"
         id="stop23" /><stop
         style="stop-opacity:1;stop-color:#7a653e"
         offset="1"
         id="stop24" /></linearGradient><clipPath
       clipPathUnits="userSpaceOnUse"
       id="clipPath24"><path
         d="M 0,4 H 18 V 18 H 0 Z"
         id="path24" /></clipPath><clipPath
       clipPathUnits="userSpaceOnUse"
       id="clipPath25"><path
         d="M 0,0 H 19 V 19 H 0 Z"
         transform="scale(1.3333333)"
         id="path25" /></clipPath><clipPath
       clipPathUnits="userSpaceOnUse"
       id="clipPath28"><path
         d="M 0,0 H 19 V 19 H 0 Z"
         id="path28" /></clipPath><clipPath
       clipPathUnits="userSpaceOnUse"
       id="clipPath28-9"><path
         d="M 0,0 H 19 V 19 H 0 Z"
         id="path28-7" /></clipPath></defs><g
     id="g1"
     inkscape:groupmode="layer"
     inkscape:label="1"
     transform="translate(34)" /><g
     opacity="0.15"
     id="g29"
     transform="translate(-1.79e-4,-0.00152752)"><path
       d="m 8.625,7.125 c -2.07,0 -3.75,1.68 -3.75,3.75 0,0.02 0,0.035 0,0.055 -0.184,0.062 -0.34,0.183 -0.453,0.34 -0.113,0.16 -0.172,0.347 -0.172,0.542 0,0.25 0.098,0.489 0.273,0.665 0.176,0.175 0.415,0.273 0.665,0.273 0.058,0 0.121,-0.008 0.179,-0.02 0.645,1.133 1.863,1.895 3.258,1.895 0.863,0 1.66,-0.293 2.293,-0.781 0.152,0.101 0.336,0.156 0.52,0.156 0.25,0 0.488,-0.098 0.664,-0.273 0.175,-0.176 0.273,-0.415 0.273,-0.665 0,-0.132 -0.027,-0.261 -0.082,-0.378 -0.051,-0.122 -0.129,-0.227 -0.227,-0.317 0.2,-0.457 0.309,-0.961 0.309,-1.492 0,-0.227 -0.02,-0.445 -0.059,-0.66 0.2,-0.055 0.372,-0.176 0.493,-0.336 C 12.934,9.715 13,9.516 13,9.312 13,9.062 12.902,8.824 12.727,8.648 12.551,8.473 12.312,8.375 12.062,8.375 11.879,8.375 11.703,8.43 11.551,8.527 10.863,7.672 9.809,7.125 8.625,7.125 Z m 0,0.625 c 1.047,0 1.969,0.512 2.539,1.301 -0.027,0.086 -0.039,0.172 -0.039,0.261 0,0.094 0.016,0.192 0.043,0.282 l -1.086,0.812 C 9.93,10.305 9.746,10.25 9.562,10.25 c -0.214,0 -0.425,0.074 -0.593,0.211 -0.168,0.141 -0.281,0.332 -0.324,0.543 L 6.02,11.379 C 5.91,11.168 5.723,11.008 5.5,10.93 c 0,-0.02 0,-0.035 0,-0.055 C 5.5,9.148 6.898,7.75 8.625,7.75 Z m 2.918,2.344 c 0.039,0.027 0.082,0.051 0.125,0.07 0.055,0.227 0.082,0.465 0.082,0.711 0,0.445 -0.094,0.867 -0.262,1.25 -0.015,0 -0.031,0 -0.05,0 -0.25,0 -0.489,0.098 -0.665,0.273 -0.175,0.176 -0.273,0.414 -0.273,0.664 0,0.094 0.016,0.192 0.043,0.282 C 10.016,13.754 9.348,14 8.625,14 7.461,14 6.441,13.363 5.906,12.414 6.008,12.293 6.074,12.152 6.105,11.996 l 2.629,-0.375 c 0.078,0.152 0.196,0.281 0.344,0.367 0.145,0.09 0.313,0.137 0.484,0.137 0.25,0 0.489,-0.098 0.665,-0.273 0.175,-0.176 0.273,-0.414 0.273,-0.664 0,-0.094 -0.016,-0.188 -0.043,-0.282 z"
       style="fill:#333333;fill-opacity:1;fill-rule:nonzero;stroke:none"
       transform="scale(1.3333333)"
       clip-path="url(#clipPath28-9)"
       id="path29" /></g><path
     id="path30"
     d="m 11.999821,8.9984723 c -2.76,0 -5,2.2399997 -5,4.9999997 0,0.02667 0,0.04667 0,0.07333 -0.245333,0.08267 -0.453333,0.244 -0.604,0.453334 -0.150666,0.213333 -0.229333,0.462666 -0.229333,0.724 0,0.333333 0.130667,0.650666 0.364,0.885333 0.234667,0.233333 0.552,0.364 0.885333,0.364 0.07867,0 0.162667,-0.01067 0.24,-0.02667 0.86,1.510667 2.484,2.526666 4.344,2.526666 1.150666,0 2.213333,-0.390666 3.057333,-1.041333 0.202667,0.134667 0.448,0.208 0.692,0.208 0.333333,0 0.652,-0.130667 0.886667,-0.364 0.233333,-0.234666 0.364,-0.552 0.364,-0.885333 0,-0.177333 -0.036,-0.349333 -0.109334,-0.505333 -0.068,-0.161334 -0.172,-0.302667 -0.302666,-0.422667 0.266666,-0.609333 0.412,-1.281333 0.412,-1.989333 0,-0.302666 -0.02667,-0.593333 -0.07867,-0.88 0.261333,-0.07333 0.494666,-0.229333 0.657333,-0.448 0.166667,-0.218666 0.254667,-0.484 0.254667,-0.754666 0,-0.333334 -0.130667,-0.652 -0.364,-0.886667 -0.234667,-0.233333 -0.552,-0.364 -0.885334,-0.364 -0.245333,0 -0.48,0.07333 -0.682666,0.202667 -0.91733,-1.1399945 -2.322664,-1.8693278 -3.90133,-1.8693277 z m 0,0.8333337 c 1.396,0 2.625333,0.682666 3.385333,1.734666 -0.036,0.114667 -0.052,0.229334 -0.052,0.349334 0,0.124 0.02133,0.254666 0.05733,0.374666 l -1.448,1.082667 c -0.202666,-0.134667 -0.448,-0.208 -0.692,-0.208 -0.286666,0 -0.568,0.09867 -0.792,0.281333 -0.224,0.188 -0.376,0.442667 -0.432,0.724 l -3.499999,0.5 c -0.146667,-0.281333 -0.396,-0.494666 -0.693334,-0.598666 0,-0.02667 0,-0.04667 0,-0.07333 0,-2.302667 1.864,-4.166667 4.166667,-4.166667 z m 3.890666,3.125333 c 0.052,0.036 0.109334,0.068 0.166667,0.09333 0.07333,0.302666 0.109333,0.62 0.109333,0.948 0,0.593333 -0.125333,1.156 -0.349333,1.666666 -0.02,0 -0.04667,0 -0.068,0 -0.333333,0 -0.650667,0.130667 -0.885333,0.364 -0.233334,0.234667 -0.364,0.553334 -0.364,0.886667 0,0.124 0.02133,0.254667 0.05733,0.374667 -0.708,0.546666 -1.593334,0.874666 -2.557334,0.874666 -1.552,0 -2.911999,-0.849333 -3.625332,-2.114666 0.135999,-0.156 0.224,-0.349334 0.265333,-0.557334 l 3.505333,-0.5 c 0.105333,0.202667 0.261333,0.374667 0.458666,0.489334 0.193334,0.12 0.417334,0.182666 0.646667,0.182666 0.333333,0 0.650667,-0.130666 0.885333,-0.364 0.233334,-0.234666 0.364,-0.553333 0.364,-0.886666 0,-0.124 -0.02133,-0.249334 -0.05733,-0.374667 z"
     style="fill:#2f7dc7;fill-opacity:1;fill-rule:nonzero;stroke:none;stroke-width:1.33333" /></svg>
