<svg width="24" height="24" viewBox="0 0 24 24" fill="none" xmlns="http://www.w3.org/2000/svg">
<rect opacity="0.8125" x="1" y="1" width="22" height="22" rx="6.6" fill="url(#paint0_linear_211_42)"/>
<rect opacity="0.625" x="3" y="2.25" width="18" height="18" rx="4.4" fill="#777777" fill-opacity="0.875"/>
<rect x="3" y="3" width="18" height="18" rx="4.4" fill="#CCCCCC"/>
<path opacity="0.125" d="M1 7.50781C1 5.84664 2.34664 4.5 4.00781 4.5H8.19048C9.265 4.5 10.3068 4.86994 11.1406 5.54762V5.54762C11.9745 6.2253 13.0162 6.59524 14.0908 6.59524H19.9922C21.6534 6.59524 23 7.94188 23 9.60305V15.5C23 19.1451 20.0451 22.1 16.4 22.1H7.6C3.95492 22.1 1 19.1451 1 15.5V7.50781Z" fill="url(#paint1_linear_211_42)" fill-opacity="0.875"/>
<path opacity="0.875" d="M1 8.40782C1 6.74665 2.34664 5.4 4.00781 5.4H8.19048C9.265 5.4 10.3068 5.76994 11.1406 6.44762V6.44762C11.9745 7.1253 13.0162 7.49524 14.0908 7.49524H19.9922C21.6534 7.49524 23 8.84188 23 10.5031V16.4C23 20.0451 20.0451 23 16.4 23H7.6C3.95492 23 1 20.0451 1 16.4V8.40782Z" fill="url(#paint2_linear_211_42)"/>
<path opacity="0.75" d="M14.4875 8C13.8682 8.02099 13.1156 8.3474 12.6713 8.78661C12.2719 9.17662 11.9207 9.7976 12.0144 10.3946C12.7063 10.4402 13.415 10.0976 13.8457 9.65842C14.2756 9.21802 14.5669 8.60902 14.4875 8ZM14.0775 10.406C13.2556 10.469 12.505 10.9874 12.08 10.9874C11.5962 10.9874 10.8494 10.424 10.0562 10.439C9.0137 10.4552 8.05122 11.0618 7.51431 12.0236C6.43181 13.9592 7.23555 16.8267 8.2912 18.3968C8.80684 19.1654 9.43871 20 10.2318 20C11.025 20 11.3037 19.4798 12.2437 19.4798C13.1837 19.4798 13.4406 20 14.2706 20C15.1006 20 15.6356 19.2002 16.1481 18.4298C16.74 17.5382 16.9856 16.6736 17 16.6292C16.9813 16.6209 15.3681 15.986 15.3519 14.0719C15.3365 12.4699 16.6231 11.7007 16.68 11.6629C15.9587 10.5751 14.8343 10.4257 14.4337 10.4089C14.3143 10.3963 14.195 10.3971 14.0775 10.406Z" fill="white"/>
<defs>
<linearGradient id="paint0_linear_211_42" x1="23" y1="0.999999" x2="1" y2="12" gradientUnits="userSpaceOnUse">
<stop stop-color="#E3C880"/>
<stop offset="1" stop-color="#6F5C38"/>
</linearGradient>
<linearGradient id="paint1_linear_211_42" x1="23" y1="9" x2="1.01236" y2="9.52141" gradientUnits="userSpaceOnUse">
<stop stop-opacity="0.5"/>
<stop offset="1"/>
</linearGradient>
<linearGradient id="paint2_linear_211_42" x1="23" y1="5.4" x2="1.42949" y2="23.5115" gradientUnits="userSpaceOnUse">
<stop stop-color="#FFE795"/>
<stop offset="1" stop-color="#7A653E"/>
</linearGradient>
</defs>
</svg>
