<svg width="24" height="24" viewBox="0 0 24 24" fill="none" xmlns="http://www.w3.org/2000/svg">
<rect opacity="0.8125" x="1" y="1" width="22" height="22" rx="6.6" fill="url(#paint0_linear_211_328)"/>
<rect opacity="0.625" x="3" y="2.25" width="18" height="18" rx="4.4" fill="#777777" fill-opacity="0.875"/>
<rect x="3" y="3" width="18" height="18" rx="4.4" fill="#CCCCCC"/>
<path opacity="0.125" d="M1 7.50781C1 5.84664 2.34664 4.5 4.00781 4.5H8.19048C9.265 4.5 10.3068 4.86994 11.1406 5.54762V5.54762C11.9745 6.2253 13.0162 6.59524 14.0908 6.59524H19.9922C21.6534 6.59524 23 7.94188 23 9.60305V15.5C23 19.1451 20.0451 22.1 16.4 22.1H7.6C3.95492 22.1 1 19.1451 1 15.5V7.50781Z" fill="url(#paint1_linear_211_328)" fill-opacity="0.875"/>
<path opacity="0.875" d="M1 8.40782C1 6.74665 2.34664 5.4 4.00781 5.4H8.19048C9.265 5.4 10.3068 5.76994 11.1406 6.44762V6.44762C11.9745 7.1253 13.0162 7.49524 14.0908 7.49524H19.9922C21.6534 7.49524 23 8.84188 23 10.5031V16.4C23 20.0451 20.0451 23 16.4 23H7.6C3.95492 23 1 20.0451 1 16.4V8.40782Z" fill="url(#paint2_linear_211_328)"/>
<path opacity="0.75" d="M6.75007 8.00006C5.50357 8.00006 4.50007 9.00356 4.50007 10.2501V17.7501C4.50007 18.9966 5.50357 20.0001 6.75007 20.0001H17.2501C18.4966 20.0001 19.5001 18.9966 19.5001 17.7501V10.2501C19.5001 9.00356 18.4966 8.00006 17.2501 8.00006H6.75007ZM8.25007 10.2501H9.00007V11.0001H9.37507C9.86257 11.0001 10.2752 11.3151 10.4327 11.7501H9.37507H9.00007V12.5001H9.37507C9.99757 12.5001 10.5001 13.0026 10.5001 13.6251C10.5001 14.2476 9.99757 14.7501 9.37507 14.7501H9.00007V15.5001H8.25007V14.7501H7.87507C7.38757 14.7501 6.97492 14.4351 6.81742 14.0001H7.87507H8.25007V13.2501H7.87507C7.25257 13.2501 6.75007 12.7476 6.75007 12.1251C6.75007 11.5026 7.25257 11.0001 7.87507 11.0001H8.25007V10.2501ZM7.85603 11.7501C7.65543 11.7599 7.50007 11.9216 7.50007 12.1251C7.50007 12.335 7.66508 12.5001 7.87507 12.5001H8.25007V11.7501H7.87507C7.86851 11.7501 7.8625 11.7497 7.85603 11.7501ZM9.00008 13.2501V14.0001H9.37508C9.58507 14.0076 9.75008 13.835 9.75008 13.6251C9.75008 13.4151 9.58507 13.2501 9.37508 13.2501H9.00008ZM11.2501 14.7501H14.2501V15.5001H11.2501V14.7501Z" fill="#181818"/>
<defs>
<linearGradient id="paint0_linear_211_328" x1="23" y1="0.999999" x2="1" y2="12" gradientUnits="userSpaceOnUse">
<stop stop-color="#E3C880"/>
<stop offset="1" stop-color="#6F5C38"/>
</linearGradient>
<linearGradient id="paint1_linear_211_328" x1="23" y1="9" x2="1.01236" y2="9.52141" gradientUnits="userSpaceOnUse">
<stop stop-opacity="0.5"/>
<stop offset="1"/>
</linearGradient>
<linearGradient id="paint2_linear_211_328" x1="23" y1="5.4" x2="1.42949" y2="23.5115" gradientUnits="userSpaceOnUse">
<stop stop-color="#FFE795"/>
<stop offset="1" stop-color="#7A653E"/>
</linearGradient>
</defs>
</svg>
