<?xml version="1.0" encoding="UTF-8" standalone="no"?>
<svg
   width="24"
   height="24"
   viewBox="0 0 24 24"
   fill="none"
   version="1.1"
   id="svg10"
   sodipodi:docname="folder-apple.svg"
   xml:space="preserve"
   inkscape:version="1.3 (0e150ed6c4, 2023-07-21)"
   inkscape:export-filename="../../../../../../../../../Imagens/Big Icons/folder-apple.pdf"
   inkscape:export-xdpi="96"
   inkscape:export-ydpi="96"
   xmlns:inkscape="http://www.inkscape.org/namespaces/inkscape"
   xmlns:sodipodi="http://sodipodi.sourceforge.net/DTD/sodipodi-0.dtd"
   xmlns="http://www.w3.org/2000/svg"
   xmlns:svg="http://www.w3.org/2000/svg"><sodipodi:namedview
     id="namedview10"
     pagecolor="#ffffff"
     bordercolor="#000000"
     borderopacity="0.25"
     inkscape:showpageshadow="2"
     inkscape:pageopacity="0.0"
     inkscape:pagecheckerboard="0"
     inkscape:deskcolor="#d1d1d1"
     inkscape:zoom="8.4479168"
     inkscape:cx="22.845869"
     inkscape:cy="9.410604"
     inkscape:window-width="2560"
     inkscape:window-height="998"
     inkscape:window-x="0"
     inkscape:window-y="0"
     inkscape:window-maximized="1"
     inkscape:current-layer="svg10"><inkscape:page
       x="0"
       y="0"
       width="24"
       height="24"
       id="page1"
       margin="0"
       bleed="0" /></sodipodi:namedview><rect
     opacity="0.8125"
     x="1"
     y="1"
     width="22"
     height="22"
     rx="6.5999999"
     fill="url(#paint0_linear_211_42)"
     id="rect1"
     style="fill:url(#paint0_linear_211_42)" /><rect
     opacity="0.625"
     x="3"
     y="2.25"
     width="18"
     height="18"
     rx="4.4000001"
     fill="#777777"
     fill-opacity="0.875"
     id="rect2" /><rect
     x="3"
     y="3"
     width="18"
     height="18"
     rx="4.4000001"
     fill="#cccccc"
     id="rect3" /><path
     opacity="0.125"
     d="M 1,7.50781 C 1,5.84664 2.34664,4.5 4.00781,4.5 h 4.18267 c 1.07452,0 2.11632,0.36994 2.95012,1.04762 v 0 c 0.8339,0.67768 1.8756,1.04762 2.9502,1.04762 h 5.9014 C 21.6534,6.59524 23,7.94188 23,9.60305 V 15.5 c 0,3.6451 -2.9549,6.6 -6.6,6.6 H 7.6 C 3.95492,22.1 1,19.1451 1,15.5 Z"
     fill="url(#paint1_linear_211_42)"
     fill-opacity="0.875"
     id="path3"
     style="fill:url(#paint1_linear_211_42)" /><path
     opacity="0.875"
     d="M 1,8.40782 C 1,6.74665 2.34664,5.4 4.00781,5.4 h 4.18267 c 1.07452,0 2.11632,0.36994 2.95012,1.04762 v 0 c 0.8339,0.67768 1.8756,1.04762 2.9502,1.04762 h 5.9014 C 21.6534,7.49524 23,8.84188 23,10.5031 V 16.4 C 23,20.0451 20.0451,23 16.4,23 H 7.6 C 3.95492,23 1,20.0451 1,16.4 Z"
     fill="url(#paint2_linear_211_42)"
     id="path4"
     style="fill:url(#paint2_linear_211_42)" /><defs
     id="defs10"><linearGradient
       id="paint0_linear_211_42"
       x1="23"
       y1="0.99999899"
       x2="1"
       y2="12"
       gradientUnits="userSpaceOnUse"><stop
         stop-color="#E3C880"
         id="stop5" /><stop
         offset="1"
         stop-color="#6F5C38"
         id="stop6" /></linearGradient><linearGradient
       id="paint1_linear_211_42"
       x1="23"
       y1="9"
       x2="1.01236"
       y2="9.52141"
       gradientUnits="userSpaceOnUse"><stop
         stop-opacity="0.5"
         id="stop7" /><stop
         offset="1"
         id="stop8" /></linearGradient><linearGradient
       id="paint2_linear_211_42"
       x1="23"
       y1="5.4000001"
       x2="1.42949"
       y2="23.511499"
       gradientUnits="userSpaceOnUse"><stop
         stop-color="#FFE795"
         id="stop9" /><stop
         offset="1"
         stop-color="#7A653E"
         id="stop10" /></linearGradient><linearGradient
       x1="23"
       y1="0.99999899"
       x2="1"
       y2="12"
       gradientUnits="userSpaceOnUse"
       gradientTransform="scale(0.75)"
       spreadMethod="pad"
       id="linearGradient2"><stop
         style="stop-opacity:1;stop-color:#e3c880"
         offset="0"
         id="stop1" /><stop
         style="stop-opacity:1;stop-color:#6f5c38"
         offset="1"
         id="stop2" /></linearGradient><clipPath
       clipPathUnits="userSpaceOnUse"
       id="clipPath3"><path
         d="M 0,0 H 19 V 19 H 0 Z"
         id="path3-3" /></clipPath><linearGradient
       x1="23"
       y1="9"
       x2="1.01236"
       y2="9.52141"
       gradientUnits="userSpaceOnUse"
       gradientTransform="scale(0.75)"
       spreadMethod="pad"
       id="linearGradient8"><stop
         style="stop-opacity:0.43750668;stop-color:#000000"
         offset="0"
         id="stop7-3" /><stop
         style="stop-opacity:0.87501335;stop-color:#000000"
         offset="1"
         id="stop8-3" /></linearGradient><clipPath
       clipPathUnits="userSpaceOnUse"
       id="clipPath8"><path
         d="M 0,0 H 19 V 19 H 0 Z"
         id="path8" /></clipPath><linearGradient
       x1="23"
       y1="5.4000001"
       x2="1.42949"
       y2="23.511499"
       gradientUnits="userSpaceOnUse"
       gradientTransform="scale(0.75)"
       spreadMethod="pad"
       id="linearGradient10"><stop
         style="stop-opacity:1;stop-color:#ffe795"
         offset="0"
         id="stop9-8" /><stop
         style="stop-opacity:1;stop-color:#7a653e"
         offset="1"
         id="stop10-6" /></linearGradient><clipPath
       clipPathUnits="userSpaceOnUse"
       id="clipPath11"><path
         d="M 0,0 H 19 V 19 H 0 Z"
         id="path11" /></clipPath><clipPath
       clipPathUnits="userSpaceOnUse"
       id="clipPath11-8"><path
         d="M 0,0 H 19 V 19 H 0 Z"
         id="path11-8" /></clipPath></defs><g
     id="g1"
     inkscape:groupmode="layer"
     inkscape:label="1"
     transform="translate(34)" /><g
     id="g2"
     transform="translate(-33.751099)"><g
       opacity="0.15"
       id="g12"
       transform="translate(34)"><path
         d="M 10.336,6.781 C 9.91,6.797 9.391,7.023 9.086,7.324 8.812,7.594 8.57,8.02 8.637,8.43 9.109,8.461 9.598,8.227 9.895,7.922 10.191,7.621 10.391,7.203 10.336,6.781 Z M 10.055,8.438 C 9.488,8.48 8.973,8.836 8.68,8.836 8.348,8.836 7.836,8.449 7.289,8.461 6.57,8.473 5.91,8.887 5.543,9.551 c -0.746,1.328 -0.191,3.301 0.531,4.379 0.356,0.531 0.789,1.101 1.336,1.101 0.543,0 0.738,-0.355 1.383,-0.355 0.645,0 0.824,0.355 1.395,0.355 0.57,0 0.937,-0.547 1.289,-1.078 0.406,-0.613 0.578,-1.207 0.585,-1.238 C 12.051,12.711 10.941,12.273 10.93,10.957 10.918,9.855 11.805,9.328 11.844,9.301 11.348,8.555 10.574,8.449 10.297,8.438 10.215,8.43 10.133,8.43 10.055,8.438 Z"
         style="fill:#1a1a1a;fill-opacity:1;fill-rule:nonzero;stroke:none"
         transform="scale(1.3333333)"
         clip-path="url(#clipPath11-8)"
         id="path12" /></g><path
       id="path13"
       d="m 48.281333,8.5413331 c -0.568,0.021333 -1.26,0.3226667 -1.666667,0.724 -0.364,0.36 -0.688,0.9279999 -0.598666,1.4746669 0.629333,0.04133 1.281333,-0.270667 1.677333,-0.677334 0.394667,-0.4013329 0.661333,-0.9586662 0.588,-1.5213329 z m -0.374667,2.2079999 c -0.756,0.05733 -1.442666,0.532 -1.833333,0.532 -0.442667,0 -1.130667,-0.516 -1.854667,-0.5 -0.958666,0.016 -1.838666,0.568 -2.328,1.453333 -0.994666,1.770667 -0.26,4.401334 0.708,5.838667 0.474667,0.708 1.052,1.468 1.781334,1.468 0.724,0 0.98,-0.473333 1.844,-0.473333 0.858666,0 1.098666,0.473333 1.858666,0.473333 0.761334,0 1.250667,-0.729333 1.72,-1.437333 C 50.344,17.286666 50.568,16.494666 50.584,16.453333 50.568,16.448 49.088,15.864 49.073333,14.109333 c -0.016,-1.469333 1.166667,-2.172 1.218667,-2.208 -0.661334,-0.994667 -1.693334,-1.136 -2.062667,-1.152 -0.109333,-0.0093 -0.218667,-0.0093 -0.322667,0 z"
       style="fill:#ede8db;fill-opacity:1;fill-rule:nonzero;stroke:none;stroke-width:1.33333" /></g></svg>
