<?xml version="1.0" encoding="UTF-8" standalone="no"?>
<svg
   width="24"
   height="24"
   viewBox="0 0 24 24"
   fill="none"
   version="1.1"
   id="svg20"
   sodipodi:docname="folder-steam.svg"
   inkscape:version="1.3 (0e150ed6c4, 2023-07-21)"
   xmlns:inkscape="http://www.inkscape.org/namespaces/inkscape"
   xmlns:sodipodi="http://sodipodi.sourceforge.net/DTD/sodipodi-0.dtd"
   xmlns="http://www.w3.org/2000/svg"
   xmlns:svg="http://www.w3.org/2000/svg">
  <sodipodi:namedview
     id="namedview20"
     pagecolor="#ffffff"
     bordercolor="#000000"
     borderopacity="0.25"
     inkscape:showpageshadow="2"
     inkscape:pageopacity="0.0"
     inkscape:pagecheckerboard="0"
     inkscape:deskcolor="#d1d1d1"
     inkscape:zoom="33.791667"
     inkscape:cx="11.985203"
     inkscape:cy="12"
     inkscape:window-width="2560"
     inkscape:window-height="998"
     inkscape:window-x="0"
     inkscape:window-y="0"
     inkscape:window-maximized="1"
     inkscape:current-layer="svg20" />
  <rect
     opacity="0.8125"
     x="1"
     y="1"
     width="22"
     height="22"
     rx="6.6"
     fill="url(#paint0_linear_211_346)"
     id="rect1" />
  <rect
     opacity="0.125"
     x="3"
     y="2.25"
     width="18"
     height="18"
     rx="4.4"
     fill="url(#paint1_linear_211_346)"
     fill-opacity="0.875"
     id="rect2" />
  <rect
     x="3.25"
     y="3.25"
     width="17.5"
     height="17.5"
     rx="4.15"
     fill="#CCCCCC"
     stroke="url(#paint2_linear_211_346)"
     stroke-width="0.5"
     id="rect3" />
  <path
     opacity="0.125"
     d="M1 7.50781C1 5.84664 2.34664 4.5 4.00781 4.5H8.19048C9.265 4.5 10.3068 4.86994 11.1406 5.54762V5.54762C11.9745 6.2253 13.0162 6.59524 14.0908 6.59524H19.9922C21.6534 6.59524 23 7.94188 23 9.60305V15.5C23 19.1451 20.0451 22.1 16.4 22.1H7.6C3.95492 22.1 1 19.1451 1 15.5V7.50781Z"
     fill="url(#paint3_linear_211_346)"
     fill-opacity="0.875"
     id="path3" />
  <g
     opacity="0.875"
     id="g5">
    <path
       d="M1 8.40782C1 6.74665 2.34664 5.4 4.00781 5.4H8.19048C9.265 5.4 10.3068 5.76994 11.1406 6.44762V6.44762C11.9745 7.1253 13.0162 7.49524 14.0908 7.49524H19.9922C21.6534 7.49524 23 8.84188 23 10.5031V16.4C23 20.0451 20.0451 23 16.4 23H7.6C3.95492 23 1 20.0451 1 16.4V8.40782Z"
       fill="url(#paint4_linear_211_346)"
       id="path4" />
    <path
       d="M22.625 10.5031V16.4C22.625 19.838 19.838 22.625 16.4 22.625H7.6C4.16203 22.625 1.375 19.838 1.375 16.4V8.40782C1.375 6.95375 2.55375 5.775 4.00781 5.775H8.19048C9.17886 5.775 10.1371 6.11528 10.9041 6.73864C11.8048 7.47065 12.9301 7.87024 14.0908 7.87024H19.9922C21.4462 7.87024 22.625 9.04899 22.625 10.5031Z"
       stroke="url(#paint5_linear_211_346)"
       stroke-opacity="0.375"
       stroke-width="0.75"
       stroke-linejoin="round"
       id="path5" />
  </g>
  <path
     d="m 11.497704,9.3224414 c -2.9858404,0 -5.4157004,2.3789996 -5.4977004,5.3449996 -9e-5,0.0032 0.00153,0.0099 0.00462,0.0192 7e-4,-0.0151 0.00147,-0.0302 0.0023,-0.0453 l 2.70819,1.1966 c 0.30593,-0.2742 0.70218,-0.4259 1.1129904,-0.4262 0.0169,0 0.0338,2e-4 0.0506,7e-4 l 1.0317,-1.7195 c -9e-4,-0.0164 -0.0015,-0.0327 -0.0019,-0.0491 0,-0.5731 0.2276,-1.1226 0.6328,-1.5279 0.4052,-0.4052 0.9548,-0.6328 1.5279,-0.6328 0.2837,0 0.5647,0.0559 0.8268,0.1645 0.2622,0.1086 0.5004,0.2677 0.701,0.4683 0.2007,0.2007 0.3598,0.4389 0.4684,0.701 0.1086,0.2622 0.1645,0.5432 0.1645,0.8269 -10e-5,0.5269 -0.1927,1.0356 -0.5416,1.4304 -0.3489,0.3948 -0.83,0.6485 -1.3529,0.7134 l -1.8427,1.1648 c 0.0034,0.0429 0.0051,0.0859 0.0051,0.1289 0,0.4428 -0.1759,0.8675 -0.489,1.1806 -0.3131,0.3131 -0.7378,0.489 -1.1806,0.489 -0.4403904,-10e-5 -0.8628904,-0.1741 -1.1755304,-0.4842 -0.31265,-0.3102 -0.49011,-0.7313 -0.49375,-1.1716 l -1.97695,-0.8736 c -0.01365,-0.0632 -0.02619,-0.1266 -0.0376,-0.1903 -5.9e-4,0.0362 0.00554,0.0826 0.02102,0.1443 0.60294,2.3832 2.76178,4.1469 5.3323104,4.1469 3.0376,0 5.5,-2.4624 5.5,-5.5 0,-3.0376 -2.4625,-5.4999996 -5.5,-5.4999996 z m 1.5714,2.9462996 c -0.3647,0 -0.7144,0.1449 -0.9723,0.4028 -0.2578,0.2578 -0.4027,0.6076 -0.4027,0.9722 0,0.3647 0.1449,0.7144 0.4027,0.9723 0.2579,0.2579 0.6076,0.4027 0.9723,0.4027 0.3647,0 0.7144,-0.1448 0.9723,-0.4027 0.2578,-0.2579 0.4027,-0.6076 0.4027,-0.9723 0,-0.3646 -0.1449,-0.7144 -0.4027,-0.9722 -0.2579,-0.2579 -0.6076,-0.4028 -0.9723,-0.4028 z m 0,0.3929 c 0.129,0 0.2567,0.0254 0.3759,0.0747 0.1191,0.0494 0.2274,0.1217 0.3186,0.2129 0.0912,0.0912 0.1635,0.1995 0.2129,0.3187 0.0494,0.1191 0.0748,0.2469 0.0748,0.3758 0,0.129 -0.0254,0.2567 -0.0748,0.3759 -0.0494,0.1191 -0.1217,0.2274 -0.2129,0.3186 -0.0912,0.0912 -0.1995,0.1636 -0.3186,0.2129 -0.1192,0.0494 -0.2469,0.0748 -0.3759,0.0748 -0.129,0 -0.2567,-0.0254 -0.3759,-0.0748 -0.1191,-0.0493 -0.2274,-0.1217 -0.3186,-0.2129 -0.0912,-0.0912 -0.1635,-0.1995 -0.2129,-0.3186 -0.0493,-0.1192 -0.0748,-0.2469 -0.0747,-0.3759 0,-0.1289 0.0254,-0.2567 0.0747,-0.3758 0.0494,-0.1192 0.1217,-0.2275 0.2129,-0.3187 0.0912,-0.0912 0.1995,-0.1635 0.3187,-0.2129 0.1191,-0.0493 0.2468,-0.0747 0.3758,-0.0747 z m -3.241,3.3392 c -0.1683,0 -0.3342104,0.0393 -0.4845904,0.1147 l 0.7622904,0.3369 c 0.0845,0.0352 0.1611,0.0869 0.2254,0.1521 0.0642,0.0651 0.1148,0.1425 0.1488,0.2275 0.0339,0.085 0.0506,0.1759 0.0489,0.2674 -0.0016,0.0915 -0.0215,0.1818 -0.0585,0.2655 -0.037,0.0837 -0.0903,0.1592 -0.1568,0.2221 -0.0666,0.0628 -0.145,0.1117 -0.2307,0.1439 -0.0857,0.0321 -0.177,0.0468 -0.2684,0.0432 -0.0915,-0.0036 -0.1813,-0.0254 -0.2642004,-0.0641 l -0.76231,-0.3369 c 0.06368,0.2269 0.19977,0.4267 0.38754,0.569 0.18777,0.1424 0.41697,0.2194 0.6525704,0.2194 0.2865,0 0.5613,-0.1138 0.7639,-0.3164 0.2026,-0.2026 0.3164,-0.4774 0.3164,-0.7639 0,-0.2866 -0.1138,-0.5614 -0.3164,-0.764 -0.2026,-0.2026 -0.4774,-0.3164 -0.7639,-0.3164 z"
     fill="url(#paint6_linear_211_346)"
     id="path20"
     style="opacity:0.15;fill:#1a1a1a" />
  <defs
     id="defs20">
    <linearGradient
       id="paint0_linear_211_346"
       x1="23"
       y1="0.999999"
       x2="1"
       y2="12"
       gradientUnits="userSpaceOnUse">
      <stop
         stop-color="#E3C880"
         id="stop6" />
      <stop
         offset="1"
         stop-color="#6F5C38"
         id="stop7" />
    </linearGradient>
    <linearGradient
       id="paint1_linear_211_346"
       x1="21"
       y1="4"
       x2="3"
       y2="4"
       gradientUnits="userSpaceOnUse">
      <stop
         stop-opacity="0.5"
         id="stop8" />
      <stop
         offset="0.890123"
         id="stop9" />
      <stop
         offset="1"
         stop-opacity="0"
         id="stop10" />
    </linearGradient>
    <linearGradient
       id="paint2_linear_211_346"
       x1="12"
       y1="3"
       x2="11.5"
       y2="8"
       gradientUnits="userSpaceOnUse">
      <stop
         stop-color="#DDDDDD"
         id="stop11" />
      <stop
         offset="1"
         stop-color="#CCCCCC"
         stop-opacity="0"
         id="stop12" />
    </linearGradient>
    <linearGradient
       id="paint3_linear_211_346"
       x1="23"
       y1="9"
       x2="1.01236"
       y2="9.52141"
       gradientUnits="userSpaceOnUse">
      <stop
         stop-opacity="0.5"
         id="stop13" />
      <stop
         offset="1"
         id="stop14" />
    </linearGradient>
    <linearGradient
       id="paint4_linear_211_346"
       x1="23"
       y1="5.4"
       x2="1.42949"
       y2="23.5115"
       gradientUnits="userSpaceOnUse">
      <stop
         stop-color="#FFE795"
         id="stop15" />
      <stop
         offset="1"
         stop-color="#7A653E"
         id="stop16" />
    </linearGradient>
    <linearGradient
       id="paint5_linear_211_346"
       x1="15"
       y1="5.5"
       x2="5.5"
       y2="19.5"
       gradientUnits="userSpaceOnUse">
      <stop
         stop-color="#FFE795"
         id="stop17" />
      <stop
         offset="1"
         stop-color="#7A653E"
         id="stop18" />
    </linearGradient>
    <linearGradient
       id="paint6_linear_211_346"
       x1="11.9987"
       y1="9"
       x2="11.9987"
       y2="20"
       gradientUnits="userSpaceOnUse"
       gradientTransform="translate(0.00125166,-0.17755857)">
      <stop
         stop-color="#256D8E"
         id="stop19" />
      <stop
         offset="1"
         stop-color="#0F182E"
         id="stop20" />
    </linearGradient>
  </defs>
  <path
     d="m 11.998852,8.8224414 c -2.9858403,0 -5.4157003,2.3789996 -5.4977003,5.3449996 -9e-5,0.0032 0.00153,0.0099 0.00462,0.0192 7e-4,-0.0151 0.00147,-0.0302 0.0023,-0.0453 l 2.70819,1.1966 c 0.30593,-0.2742 0.70218,-0.4259 1.1129903,-0.4262 0.0169,0 0.0338,2e-4 0.0506,7e-4 l 1.0317,-1.7195 c -9e-4,-0.0164 -0.0015,-0.0327 -0.0019,-0.0491 0,-0.5731 0.2276,-1.1226 0.6328,-1.5279 0.4052,-0.4052 0.9548,-0.6328 1.5279,-0.6328 0.2837,0 0.5647,0.0559 0.8268,0.1645 0.2622,0.1086 0.5004,0.2677 0.701,0.4683 0.2007,0.2007 0.3598,0.4389 0.4684,0.701 0.1086,0.2622 0.1645,0.5432 0.1645,0.8269 -10e-5,0.5269 -0.1927,1.0356 -0.5416,1.4304 -0.3489,0.3948 -0.83,0.6485 -1.3529,0.7134 l -1.8427,1.1648 c 0.0034,0.0429 0.0051,0.0859 0.0051,0.1289 0,0.4428 -0.1759,0.8675 -0.489,1.1806 -0.3131,0.3131 -0.7378,0.489 -1.1806,0.489 -0.4403903,-10e-5 -0.8628903,-0.1741 -1.1755303,-0.4842 -0.31265,-0.3102 -0.49011,-0.7313 -0.49375,-1.1716 l -1.97695,-0.8736 c -0.01365,-0.0632 -0.02619,-0.1266 -0.0376,-0.1903 -5.9e-4,0.0362 0.00554,0.0826 0.02102,0.1443 0.60294,2.3832 2.76178,4.1469 5.3323103,4.1469 3.0376,0 5.5,-2.4624 5.5,-5.5 0,-3.0376 -2.4625,-5.4999996 -5.5,-5.4999996 z m 1.5714,2.9462996 c -0.3647,0 -0.7144,0.1449 -0.9723,0.4028 -0.2578,0.2578 -0.4027,0.6076 -0.4027,0.9722 0,0.3647 0.1449,0.7144 0.4027,0.9723 0.2579,0.2579 0.6076,0.4027 0.9723,0.4027 0.3647,0 0.7144,-0.1448 0.9723,-0.4027 0.2578,-0.2579 0.4027,-0.6076 0.4027,-0.9723 0,-0.3646 -0.1449,-0.7144 -0.4027,-0.9722 -0.2579,-0.2579 -0.6076,-0.4028 -0.9723,-0.4028 z m 0,0.3929 c 0.129,0 0.2567,0.0254 0.3759,0.0747 0.1191,0.0494 0.2274,0.1217 0.3186,0.2129 0.0912,0.0912 0.1635,0.1995 0.2129,0.3187 0.0494,0.1191 0.0748,0.2469 0.0748,0.3758 0,0.129 -0.0254,0.2567 -0.0748,0.3759 -0.0494,0.1191 -0.1217,0.2274 -0.2129,0.3186 -0.0912,0.0912 -0.1995,0.1636 -0.3186,0.2129 -0.1192,0.0494 -0.2469,0.0748 -0.3759,0.0748 -0.129,0 -0.2567,-0.0254 -0.3759,-0.0748 -0.1191,-0.0493 -0.2274,-0.1217 -0.3186,-0.2129 -0.0912,-0.0912 -0.1635,-0.1995 -0.2129,-0.3186 -0.0493,-0.1192 -0.0748,-0.2469 -0.0747,-0.3759 0,-0.1289 0.0254,-0.2567 0.0747,-0.3758 0.0494,-0.1192 0.1217,-0.2275 0.2129,-0.3187 0.0912,-0.0912 0.1995,-0.1635 0.3187,-0.2129 0.1191,-0.0493 0.2468,-0.0747 0.3758,-0.0747 z m -3.241,3.3392 c -0.1683,0 -0.3342103,0.0393 -0.4845903,0.1147 l 0.7622903,0.3369 c 0.0845,0.0352 0.1611,0.0869 0.2254,0.1521 0.0642,0.0651 0.1148,0.1425 0.1488,0.2275 0.0339,0.085 0.0506,0.1759 0.0489,0.2674 -0.0016,0.0915 -0.0215,0.1818 -0.0585,0.2655 -0.037,0.0837 -0.0903,0.1592 -0.1568,0.2221 -0.0666,0.0628 -0.145,0.1117 -0.2307,0.1439 -0.0857,0.0321 -0.177,0.0468 -0.2684,0.0432 -0.0915,-0.0036 -0.1813,-0.0254 -0.2642,-0.0641 l -0.7623103,-0.3369 c 0.06368,0.2269 0.19977,0.4267 0.38754,0.569 0.18777,0.1424 0.4169703,0.2194 0.6525703,0.2194 0.2865,0 0.5613,-0.1138 0.7639,-0.3164 0.2026,-0.2026 0.3164,-0.4774 0.3164,-0.7639 0,-0.2866 -0.1138,-0.5614 -0.3164,-0.764 -0.2026,-0.2026 -0.4774,-0.3164 -0.7639,-0.3164 z"
     fill="url(#paint6_linear_211_346)"
     id="path6"
     style="fill:url(#paint6_linear_211_346)" />
</svg>
