<?xml version="1.0" encoding="UTF-8" standalone="no"?>
<svg
   width="24"
   height="24"
   viewBox="0 0 24 24"
   fill="none"
   version="1.1"
   id="svg18"
   sodipodi:docname="folder-torrent.svg"
   inkscape:version="1.3 (0e150ed6c4, 2023-07-21)"
   inkscape:export-filename="../../../../../../../../../Imagens/Big Icons/folder-torrent.pdf"
   inkscape:export-xdpi="96"
   inkscape:export-ydpi="96"
   xml:space="preserve"
   xmlns:inkscape="http://www.inkscape.org/namespaces/inkscape"
   xmlns:sodipodi="http://sodipodi.sourceforge.net/DTD/sodipodi-0.dtd"
   xmlns="http://www.w3.org/2000/svg"
   xmlns:svg="http://www.w3.org/2000/svg"><sodipodi:namedview
     id="namedview18"
     pagecolor="#ffffff"
     bordercolor="#000000"
     borderopacity="0.25"
     inkscape:showpageshadow="2"
     inkscape:pageopacity="0.0"
     inkscape:pagecheckerboard="0"
     inkscape:deskcolor="#d1d1d1"
     inkscape:zoom="22.627417"
     inkscape:cx="8.3747959"
     inkscape:cy="8.6841551"
     inkscape:window-width="2560"
     inkscape:window-height="998"
     inkscape:window-x="0"
     inkscape:window-y="0"
     inkscape:window-maximized="1"
     inkscape:current-layer="svg18"><inkscape:page
       x="0"
       y="0"
       width="24"
       height="24"
       id="page1"
       margin="0"
       bleed="0" /></sodipodi:namedview><rect
     opacity="0.8125"
     x="1"
     y="1"
     width="22"
     height="22"
     rx="6.5999999"
     fill="url(#paint0_linear_211_378)"
     id="rect1"
     style="fill:url(#paint0_linear_211_378)" /><rect
     opacity="0.125"
     x="3"
     y="2.25"
     width="18"
     height="18"
     rx="4.4000001"
     fill="url(#paint1_linear_211_378)"
     fill-opacity="0.875"
     id="rect2"
     style="fill:url(#paint1_linear_211_378)" /><rect
     x="3.25"
     y="3.25"
     width="17.5"
     height="17.5"
     rx="4.1500001"
     fill="#cccccc"
     stroke="url(#paint2_linear_211_378)"
     stroke-width="0.5"
     id="rect3"
     style="stroke:url(#paint2_linear_211_378)" /><path
     opacity="0.125"
     d="M 1,7.50781 C 1,5.84664 2.34664,4.5 4.00781,4.5 h 4.18267 c 1.07452,0 2.11632,0.36994 2.95012,1.04762 v 0 c 0.8339,0.67768 1.8756,1.04762 2.9502,1.04762 h 5.9014 C 21.6534,6.59524 23,7.94188 23,9.60305 V 15.5 c 0,3.6451 -2.9549,6.6 -6.6,6.6 H 7.6 C 3.95492,22.1 1,19.1451 1,15.5 Z"
     fill="url(#paint3_linear_211_378)"
     fill-opacity="0.875"
     id="path3"
     style="fill:url(#paint3_linear_211_378)" /><g
     opacity="0.875"
     id="g5"><path
       d="M 1,8.40782 C 1,6.74665 2.34664,5.4 4.00781,5.4 h 4.18267 c 1.07452,0 2.11632,0.36994 2.95012,1.04762 v 0 c 0.8339,0.67768 1.8756,1.04762 2.9502,1.04762 h 5.9014 C 21.6534,7.49524 23,8.84188 23,10.5031 V 16.4 C 23,20.0451 20.0451,23 16.4,23 H 7.6 C 3.95492,23 1,20.0451 1,16.4 Z"
       fill="url(#paint4_linear_211_378)"
       id="path4"
       style="fill:url(#paint4_linear_211_378)" /><path
       d="M 22.625,10.5031 V 16.4 c 0,3.438 -2.787,6.225 -6.225,6.225 H 7.6 C 4.16203,22.625 1.375,19.838 1.375,16.4 V 8.40782 C 1.375,6.95375 2.55375,5.775 4.00781,5.775 h 4.18267 c 0.98838,0 1.94662,0.34028 2.71362,0.96364 0.9007,0.73201 2.026,1.1316 3.1867,1.1316 h 5.9014 c 1.454,0 2.6328,1.17875 2.6328,2.63286 z"
       stroke="url(#paint5_linear_211_378)"
       stroke-opacity="0.375"
       stroke-width="0.75"
       stroke-linejoin="round"
       id="path5"
       style="stroke:url(#paint5_linear_211_378)" /></g><defs
     id="defs18"><linearGradient
       id="paint0_linear_211_378"
       x1="23"
       y1="0.99999899"
       x2="1"
       y2="12"
       gradientUnits="userSpaceOnUse"><stop
         stop-color="#E3C880"
         id="stop6" /><stop
         offset="1"
         stop-color="#6F5C38"
         id="stop7" /></linearGradient><linearGradient
       id="paint1_linear_211_378"
       x1="21"
       y1="4"
       x2="3"
       y2="4"
       gradientUnits="userSpaceOnUse"><stop
         stop-opacity="0.5"
         id="stop8" /><stop
         offset="0.890123"
         id="stop9" /><stop
         offset="1"
         stop-opacity="0"
         id="stop10" /></linearGradient><linearGradient
       id="paint2_linear_211_378"
       x1="12"
       y1="3"
       x2="11.5"
       y2="8"
       gradientUnits="userSpaceOnUse"><stop
         stop-color="#DDDDDD"
         id="stop11" /><stop
         offset="1"
         stop-color="#CCCCCC"
         stop-opacity="0"
         id="stop12" /></linearGradient><linearGradient
       id="paint3_linear_211_378"
       x1="23"
       y1="9"
       x2="1.01236"
       y2="9.52141"
       gradientUnits="userSpaceOnUse"><stop
         stop-opacity="0.5"
         id="stop13" /><stop
         offset="1"
         id="stop14" /></linearGradient><linearGradient
       id="paint4_linear_211_378"
       x1="23"
       y1="5.4000001"
       x2="1.42949"
       y2="23.511499"
       gradientUnits="userSpaceOnUse"><stop
         stop-color="#FFE795"
         id="stop15" /><stop
         offset="1"
         stop-color="#7A653E"
         id="stop16" /></linearGradient><linearGradient
       id="paint5_linear_211_378"
       x1="15"
       y1="5.5"
       x2="5.5"
       y2="19.5"
       gradientUnits="userSpaceOnUse"><stop
         stop-color="#FFE795"
         id="stop17" /><stop
         offset="1"
         stop-color="#7A653E"
         id="stop18" /></linearGradient><linearGradient
       x1="23"
       y1="0.99999899"
       x2="1"
       y2="12"
       gradientUnits="userSpaceOnUse"
       gradientTransform="scale(0.75)"
       spreadMethod="pad"
       id="linearGradient2"><stop
         style="stop-opacity:1;stop-color:#e3c880"
         offset="0"
         id="stop1" /><stop
         style="stop-opacity:1;stop-color:#6f5c38"
         offset="1"
         id="stop2" /></linearGradient><linearGradient
       x1="21"
       y1="4"
       x2="3"
       y2="4"
       gradientUnits="userSpaceOnUse"
       gradientTransform="scale(0.75)"
       spreadMethod="pad"
       id="linearGradient8"><stop
         style="stop-opacity:0.43750668;stop-color:#000000"
         offset="0"
         id="stop6-7" /><stop
         style="stop-opacity:0.87501335;stop-color:#000000"
         offset="0.890123"
         id="stop7-0" /><stop
         style="stop-opacity:0;stop-color:#000000"
         offset="1"
         id="stop8-9" /></linearGradient><clipPath
       clipPathUnits="userSpaceOnUse"
       id="clipPath8"><path
         d="M 0,0 H 19 V 19 H 0 Z"
         id="path8" /></clipPath><mask
       maskUnits="userSpaceOnUse"
       x="0"
       y="0"
       width="1"
       height="1"
       id="mask10"><path
         id="path11"
         d="M 0,0 H 18 V 18 H 0 Z"
         style="fill:url(#linearGradient12);fill-opacity:1;fill-rule:nonzero;stroke:none"
         transform="scale(1.3333333)"
         clip-path="url(#clipPath12)" /></mask><linearGradient
       x1="12"
       y1="3"
       x2="11.5"
       y2="8"
       gradientUnits="userSpaceOnUse"
       gradientTransform="matrix(0.75,0,0,-0.75,0,18)"
       spreadMethod="pad"
       id="linearGradient12"><stop
         style="stop-opacity:1;stop-color:#ffffff"
         offset="0"
         id="stop11-3" /><stop
         style="stop-opacity:0;stop-color:#ffffff"
         offset="1"
         id="stop12-6" /></linearGradient><clipPath
       clipPathUnits="userSpaceOnUse"
       id="clipPath12"><path
         d="M 1,1 H 17 V 17 H 1 Z"
         id="path12" /></clipPath><linearGradient
       x1="12"
       y1="3"
       x2="11.5"
       y2="8"
       gradientUnits="userSpaceOnUse"
       gradientTransform="matrix(0.75,0,0,-0.75,0,18)"
       spreadMethod="pad"
       id="linearGradient14"><stop
         style="stop-opacity:1;stop-color:#dddddd"
         offset="0"
         id="stop13-0" /><stop
         style="stop-opacity:1;stop-color:#cccccc"
         offset="1"
         id="stop14-6" /></linearGradient><clipPath
       clipPathUnits="userSpaceOnUse"
       id="clipPath14"><path
         d="M 1,1 H 17 V 17 H 1 Z"
         id="path14" /></clipPath><linearGradient
       x1="23"
       y1="9"
       x2="1.01236"
       y2="9.52141"
       gradientUnits="userSpaceOnUse"
       gradientTransform="scale(0.75)"
       spreadMethod="pad"
       id="linearGradient18"><stop
         style="stop-opacity:0.43750668;stop-color:#000000"
         offset="0"
         id="stop17-2" /><stop
         style="stop-opacity:0.87501335;stop-color:#000000"
         offset="1"
         id="stop18-6" /></linearGradient><clipPath
       clipPathUnits="userSpaceOnUse"
       id="clipPath18"><path
         d="M 0,0 H 19 V 19 H 0 Z"
         id="path18-1" /></clipPath><linearGradient
       x1="23"
       y1="5.4000001"
       x2="1.42949"
       y2="23.511499"
       gradientUnits="userSpaceOnUse"
       gradientTransform="scale(0.75)"
       spreadMethod="pad"
       id="linearGradient20"><stop
         style="stop-opacity:1;stop-color:#ffe795"
         offset="0"
         id="stop19" /><stop
         style="stop-opacity:1;stop-color:#7a653e"
         offset="1"
         id="stop20" /></linearGradient><mask
       maskUnits="userSpaceOnUse"
       x="0"
       y="0"
       width="1"
       height="1"
       id="mask20"><path
         id="path20"
         d="M 0,0 H 18 V 18 H 0 Z"
         style="fill:url(#linearGradient22);fill-opacity:1;fill-rule:nonzero;stroke:none"
         transform="scale(1.3333333)"
         clip-path="url(#clipPath22)" /></mask><linearGradient
       x1="15"
       y1="5.5"
       x2="5.5"
       y2="19.5"
       gradientUnits="userSpaceOnUse"
       gradientTransform="matrix(0.75,0,0,-0.75,0,18)"
       spreadMethod="pad"
       id="linearGradient22"><stop
         style="stop-opacity:0.37500572;stop-color:#ffffff"
         offset="0"
         id="stop21" /><stop
         style="stop-opacity:0.37500572;stop-color:#ffffff"
         offset="1"
         id="stop22" /></linearGradient><clipPath
       clipPathUnits="userSpaceOnUse"
       id="clipPath22"><path
         d="M 0,4 H 18 V 18 H 0 Z"
         id="path22" /></clipPath><linearGradient
       x1="15"
       y1="5.5"
       x2="5.5"
       y2="19.5"
       gradientUnits="userSpaceOnUse"
       gradientTransform="matrix(0.75,0,0,-0.75,0,18)"
       spreadMethod="pad"
       id="linearGradient24"><stop
         style="stop-opacity:1;stop-color:#ffe795"
         offset="0"
         id="stop23" /><stop
         style="stop-opacity:1;stop-color:#7a653e"
         offset="1"
         id="stop24" /></linearGradient><clipPath
       clipPathUnits="userSpaceOnUse"
       id="clipPath24"><path
         d="M 0,4 H 18 V 18 H 0 Z"
         id="path24" /></clipPath><clipPath
       clipPathUnits="userSpaceOnUse"
       id="clipPath25"><path
         d="M 0,0 H 19 V 19 H 0 Z"
         transform="scale(1.3333333)"
         id="path25" /></clipPath><clipPath
       clipPathUnits="userSpaceOnUse"
       id="clipPath28"><path
         d="M 0,0 H 19 V 19 H 0 Z"
         id="path28" /></clipPath><clipPath
       clipPathUnits="userSpaceOnUse"
       id="clipPath28-8"><path
         d="M 0,0 H 19 V 19 H 0 Z"
         id="path28-7" /></clipPath></defs><g
     id="g1"
     inkscape:groupmode="layer"
     inkscape:label="1"
     transform="translate(34)" /><g
     opacity="0.15"
     id="g29"
     transform="translate(-0.003185,0.00121214)"><path
       d="M 8.461,7.125 C 7.41,7.125 6.402,7.527 5.66,8.242 4.918,8.953 4.5,9.922 4.5,10.934 c 0,1.007 0.418,1.976 1.16,2.691 0.742,0.715 1.75,1.117 2.801,1.117 H 12.75 V 14.105 H 8.461 C 7.586,14.105 6.746,13.77 6.125,13.176 5.508,12.582 5.16,11.773 5.16,10.934 5.16,10.09 5.508,9.285 6.125,8.688 6.746,8.094 7.586,7.758 8.461,7.758 Z m 0,0.953 c -1.641,0 -2.973,1.277 -2.973,2.856 0,1.578 1.332,2.855 2.973,2.855 H 12.75 V 13.152 H 8.461 c -1.277,0 -2.313,-0.992 -2.313,-2.218 0,-1.227 1.036,-2.223 2.313,-2.223 0.34,0 0.68,0.074 0.988,0.219 V 8.242 C 9.133,8.133 8.797,8.078 8.461,8.078 Z m 0,0.949 C 7.934,9.027 7.43,9.23 7.059,9.586 6.688,9.945 6.48,10.43 6.48,10.934 c 0,0.504 0.208,0.988 0.579,1.343 0.371,0.36 0.875,0.559 1.402,0.559 H 12.75 V 12.203 H 8.461 c -0.352,0 -0.688,-0.137 -0.934,-0.371 -0.25,-0.238 -0.386,-0.562 -0.386,-0.898 0,-0.336 0.136,-0.661 0.386,-0.899 0.246,-0.238 0.582,-0.371 0.934,-0.371 0.23,0 0.457,0.059 0.656,0.168 0.203,0.113 0.367,0.273 0.485,0.465 h 0.722 C 10.188,9.926 9.934,9.605 9.602,9.379 9.27,9.152 8.867,9.031 8.461,9.027 Z"
       style="fill:#1a1a1a;fill-opacity:1;fill-rule:nonzero;stroke:none"
       transform="scale(1.3333333)"
       clip-path="url(#clipPath28-8)"
       id="path29" /></g><path
     id="path30"
     d="m 11.778148,9.0012119 c -1.401333,0 -2.745333,0.536 -3.734666,1.4893331 -0.989334,0.948 -1.546667,2.24 -1.546667,3.589333 0,1.342667 0.557333,2.634667 1.546667,3.588 0.989333,0.953333 2.333333,1.489333 3.734666,1.489333 h 5.718667 v -0.849333 h -5.718667 c -1.166666,0 -2.286666,-0.446667 -3.114666,-1.238667 -0.822667,-0.792 -1.286667,-1.870666 -1.286667,-2.989333 0,-1.125333 0.464,-2.198666 1.286667,-2.996 0.828,-0.790666 1.948,-1.2386661 3.114666,-1.2386661 z m 0,1.2706661 c -2.188,0 -3.964,1.702667 -3.964,3.808 0,2.104 1.776,3.806667 3.964,3.806667 h 5.718667 v -0.849334 h -5.718667 c -1.702666,0 -3.084,-1.322666 -3.084,-2.957333 0,-1.636 1.381334,-2.964 3.084,-2.964 0.453333,0 0.906667,0.09867 1.317333,0.292 v -0.917333 c -0.421333,-0.145333 -0.869333,-0.218667 -1.317333,-0.218667 z m 0,1.265334 c -0.702667,0 -1.374666,0.270666 -1.869333,0.745333 -0.496,0.478667 -0.772,1.125333 -0.772,1.797333 0,0.670667 0.276,1.317333 0.772,1.790667 0.494667,0.48 1.166666,0.745333 1.869333,0.745333 h 5.718667 v -0.844 h -5.718667 c -0.469333,0 -0.917333,-0.182667 -1.245333,-0.494667 -0.333333,-0.317333 -0.514667,-0.749333 -0.514667,-1.197333 0,-0.448 0.181334,-0.881333 0.514667,-1.198666 0.328,-0.317334 0.776,-0.494667 1.245333,-0.494667 0.306667,0 0.609333,0.07867 0.874667,0.224 0.270666,0.150667 0.489333,0.364 0.646666,0.62 h 0.962667 c -0.182667,-0.494667 -0.52,-0.922667 -0.962667,-1.224 -0.442666,-0.302667 -0.98,-0.464 -1.521333,-0.469333 z"
     style="fill:#6fa54a;fill-opacity:1;fill-rule:nonzero;stroke:none;stroke-width:1.33333" /></svg>
