<svg width="24" height="24" viewBox="0 0 24 24" fill="none" xmlns="http://www.w3.org/2000/svg">
<rect opacity="0.8125" x="1" y="1" width="22" height="22" rx="6.6" fill="url(#paint0_linear_207_62)"/>
<rect opacity="0.125" x="3" y="2.25" width="18" height="18" rx="4.4" fill="url(#paint1_linear_207_62)" fill-opacity="0.875"/>
<rect x="3.25" y="3.25" width="17.5" height="17.5" rx="4.15" fill="#CCCCCC" stroke="url(#paint2_linear_207_62)" stroke-width="0.5"/>
<path opacity="0.125" d="M1 7.50781C1 5.84664 2.34664 4.5 4.00781 4.5H8.19048C9.265 4.5 10.3068 4.86994 11.1406 5.54762V5.54762C11.9745 6.2253 13.0162 6.59524 14.0908 6.59524H19.9922C21.6534 6.59524 23 7.94188 23 9.60305V15.5C23 19.1451 20.0451 22.1 16.4 22.1H7.6C3.95492 22.1 1 19.1451 1 15.5V7.50781Z" fill="url(#paint3_linear_207_62)" fill-opacity="0.875"/>
<g opacity="0.875">
<path d="M1 8.40781C1 6.74664 2.34664 5.4 4.00781 5.4H8.19048C9.265 5.4 10.3068 5.76994 11.1406 6.44762V6.44762C11.9745 7.1253 13.0162 7.49524 14.0908 7.49524H19.9922C21.6534 7.49524 23 8.84188 23 10.5031V16.4C23 20.0451 20.0451 23 16.4 23H7.6C3.95492 23 1 20.0451 1 16.4V8.40781Z" fill="url(#paint4_linear_207_62)"/>
<path d="M22.625 10.5031V16.4C22.625 19.838 19.838 22.625 16.4 22.625H7.6C4.16203 22.625 1.375 19.838 1.375 16.4V8.40781C1.375 6.95375 2.55375 5.775 4.00781 5.775H8.19048C9.17886 5.775 10.1371 6.11528 10.9041 6.73863C11.8048 7.47064 12.9301 7.87024 14.0908 7.87024H19.9922C21.4462 7.87024 22.625 9.04899 22.625 10.5031Z" stroke="url(#paint5_linear_207_62)" stroke-opacity="0.375" stroke-width="0.75" stroke-linejoin="round"/>
</g>
<path fill-rule="evenodd" clip-rule="evenodd" d="M11.4397 11.5638C13.0398 11.5526 15.2393 9.55861 16.6135 11.1939C17.9877 12.8293 18.4941 17.1018 17.6097 18.9733C17.2968 19.6354 15.3354 19.6354 14.1231 17.2166H8.75644C7.54414 19.6354 5.58272 19.6354 5.26982 18.9733C4.3854 17.1018 4.9841 12.7194 6.266 11.1939C7.5479 9.66844 9.87891 11.5529 11.4397 11.5638ZM8.56596 13.5379V12.9054C8.56596 12.6958 8.39051 12.5259 8.17408 12.5259C7.95766 12.5259 7.78221 12.6958 7.78221 12.9054V13.5379H7.12907C6.91264 13.5379 6.73719 13.7078 6.73719 13.9174C6.73719 14.127 6.91264 14.2969 7.12907 14.2969H7.78221V14.9294C7.78221 15.139 7.95766 15.309 8.17408 15.309C8.39051 15.309 8.56596 15.139 8.56596 14.9294V14.2969H9.2191C9.43553 14.2969 9.61098 14.127 9.61098 13.9174C9.61098 13.7078 9.43553 13.5379 9.2191 13.5379H8.56596ZM14.5748 13.5379C14.8634 13.5379 15.0973 13.3113 15.0973 13.0319C15.0973 12.7524 14.8634 12.5259 14.5748 12.5259C14.2862 12.5259 14.0523 12.7524 14.0523 13.0319C14.0523 13.3113 14.2862 13.5379 14.5748 13.5379ZM15.6198 14.5499C15.9084 14.5499 16.1423 14.3234 16.1423 14.0439C16.1423 13.7644 15.9084 13.5379 15.6198 13.5379C15.3312 13.5379 15.0973 13.7644 15.0973 14.0439C15.0973 14.3234 15.3312 14.5499 15.6198 14.5499ZM13.5298 14.5499C13.8183 14.5499 14.0523 14.3234 14.0523 14.0439C14.0523 13.7644 13.8183 13.5379 13.5298 13.5379C13.2412 13.5379 13.0073 13.7644 13.0073 14.0439C13.0073 14.3234 13.2412 14.5499 13.5298 14.5499ZM14.5748 15.562C14.8634 15.562 15.0973 15.3354 15.0973 15.0559C15.0973 14.7765 14.8634 14.5499 14.5748 14.5499C14.2862 14.5499 14.0523 14.7765 14.0523 15.0559C14.0523 15.3354 14.2862 15.562 14.5748 15.562Z" fill="url(#paint6_linear_207_62)"/>
<path fill-rule="evenodd" clip-rule="evenodd" d="M11.9897 11.0138C13.5898 11.0026 15.7893 9.00861 17.1635 10.6439C18.5377 12.2793 19.0441 16.5518 18.1597 18.4233C17.8468 19.0854 15.8854 19.0854 14.6731 16.6666H9.30644C8.09414 19.0854 6.13272 19.0854 5.81982 18.4233C4.9354 16.5518 5.5341 12.1694 6.816 10.6439C8.0979 9.11844 10.4289 11.0029 11.9897 11.0138ZM9.11596 12.9879V12.3554C9.11596 12.1458 8.94051 11.9759 8.72409 11.9759C8.50766 11.9759 8.33221 12.1458 8.33221 12.3554V12.9879H7.67907C7.46264 12.9879 7.28719 13.1578 7.28719 13.3674C7.28719 13.577 7.46264 13.7469 7.67907 13.7469H8.33221V14.3794C8.33221 14.589 8.50766 14.759 8.72409 14.759C8.94051 14.759 9.11596 14.589 9.11596 14.3794V13.7469H9.7691C9.98553 13.7469 10.161 13.577 10.161 13.3674C10.161 13.1578 9.98553 12.9879 9.7691 12.9879H9.11596ZM15.1248 12.9879C15.4134 12.9879 15.6473 12.7613 15.6473 12.4819C15.6473 12.2024 15.4134 11.9759 15.1248 11.9759C14.8362 11.9759 14.6023 12.2024 14.6023 12.4819C14.6023 12.7613 14.8362 12.9879 15.1248 12.9879ZM16.1698 13.9999C16.4584 13.9999 16.6923 13.7734 16.6923 13.4939C16.6923 13.2144 16.4584 12.9879 16.1698 12.9879C15.8812 12.9879 15.6473 13.2144 15.6473 13.4939C15.6473 13.7734 15.8812 13.9999 16.1698 13.9999ZM14.0798 13.9999C14.3683 13.9999 14.6023 13.7734 14.6023 13.4939C14.6023 13.2144 14.3683 12.9879 14.0798 12.9879C13.7912 12.9879 13.5573 13.2144 13.5573 13.4939C13.5573 13.7734 13.7912 13.9999 14.0798 13.9999ZM15.1248 15.012C15.4134 15.012 15.6473 14.7854 15.6473 14.5059C15.6473 14.2265 15.4134 13.9999 15.1248 13.9999C14.8362 13.9999 14.6023 14.2265 14.6023 14.5059C14.6023 14.7854 14.8362 15.012 15.1248 15.012Z" fill="url(#paint7_linear_207_62)"/>
<defs>
<linearGradient id="paint0_linear_207_62" x1="23" y1="0.999999" x2="1" y2="12" gradientUnits="userSpaceOnUse">
<stop stop-color="#E3C880"/>
<stop offset="1" stop-color="#6F5C38"/>
</linearGradient>
<linearGradient id="paint1_linear_207_62" x1="21" y1="4" x2="3" y2="4" gradientUnits="userSpaceOnUse">
<stop stop-opacity="0.5"/>
<stop offset="0.890123"/>
<stop offset="1" stop-opacity="0"/>
</linearGradient>
<linearGradient id="paint2_linear_207_62" x1="12" y1="3" x2="11.5" y2="8" gradientUnits="userSpaceOnUse">
<stop stop-color="#DDDDDD"/>
<stop offset="1" stop-color="#CCCCCC" stop-opacity="0"/>
</linearGradient>
<linearGradient id="paint3_linear_207_62" x1="23" y1="9" x2="1.01236" y2="9.52141" gradientUnits="userSpaceOnUse">
<stop stop-opacity="0.5"/>
<stop offset="1"/>
</linearGradient>
<linearGradient id="paint4_linear_207_62" x1="23" y1="5.4" x2="1.42949" y2="23.5115" gradientUnits="userSpaceOnUse">
<stop stop-color="#FFE795"/>
<stop offset="1" stop-color="#7A653E"/>
</linearGradient>
<linearGradient id="paint5_linear_207_62" x1="15" y1="5.5" x2="5.5" y2="19.5" gradientUnits="userSpaceOnUse">
<stop stop-color="#FFE795"/>
<stop offset="1" stop-color="#7A653E"/>
</linearGradient>
<linearGradient id="paint6_linear_207_62" x1="4.85" y1="19.35" x2="18.05" y2="10.55" gradientUnits="userSpaceOnUse">
<stop stop-color="#6F5C38" stop-opacity="0.45"/>
<stop offset="1" stop-color="#444444" stop-opacity="0"/>
</linearGradient>
<linearGradient id="paint7_linear_207_62" x1="5.4" y1="18.8" x2="18.6" y2="10" gradientUnits="userSpaceOnUse">
<stop stop-color="#181818"/>
<stop offset="1" stop-color="#444444"/>
</linearGradient>
</defs>
</svg>
