<svg width="24" height="24" viewBox="0 0 24 24" fill="none" xmlns="http://www.w3.org/2000/svg">
<rect opacity="0.8125" x="1" y="1" width="22" height="22" rx="6.6" fill="url(#paint0_linear_211_378)"/>
<rect opacity="0.625" x="3" y="2.25" width="18" height="18" rx="4.4" fill="#777777" fill-opacity="0.875"/>
<rect x="3" y="3" width="18" height="18" rx="4.4" fill="#CCCCCC"/>
<path opacity="0.125" d="M1 7.50781C1 5.84664 2.34664 4.5 4.00781 4.5H8.19048C9.265 4.5 10.3068 4.86994 11.1406 5.54762V5.54762C11.9745 6.2253 13.0162 6.59524 14.0908 6.59524H19.9922C21.6534 6.59524 23 7.94188 23 9.60305V15.5C23 19.1451 20.0451 22.1 16.4 22.1H7.6C3.95492 22.1 1 19.1451 1 15.5V7.50781Z" fill="url(#paint1_linear_211_378)" fill-opacity="0.875"/>
<path opacity="0.875" d="M1 8.40782C1 6.74665 2.34664 5.4 4.00781 5.4H8.19048C9.265 5.4 10.3068 5.76994 11.1406 6.44762V6.44762C11.9745 7.1253 13.0162 7.49524 14.0908 7.49524H19.9922C21.6534 7.49524 23 8.84188 23 10.5031V16.4C23 20.0451 20.0451 23 16.4 23H7.6C3.95492 23 1 20.0451 1 16.4V8.40782Z" fill="url(#paint2_linear_211_378)"/>
<path opacity="0.75" d="M11.24 8C9.58505 8 7.99788 8.63214 6.82765 9.75736C5.65743 10.8826 5 12.4087 5 14C5 15.5913 5.65743 17.1174 6.82765 18.2426C7.99788 19.3679 9.58505 20 11.24 20H18V19H14.6819H11.24C9.86087 19 8.53823 18.4732 7.56304 17.5355C6.58786 16.5979 6.04 15.3261 6.04 14C6.04 12.6739 6.58786 11.4021 7.56304 10.4645C8.53823 9.52678 9.86087 9 11.24 9V8ZM11.24 9.5C8.65529 9.5 6.56 11.5147 6.56 14C6.56 16.4853 8.65529 18.5 11.24 18.5H18V17.5H11.24C9.22968 17.5 7.6 15.933 7.6 14C7.6 12.067 9.22968 10.5 11.24 10.5C11.78 10.5016 12.3129 10.6187 12.8 10.8428V9.76268C12.2993 9.59053 11.7718 9.50172 11.24 9.5ZM11.24 11C10.4125 11 9.61894 11.3161 9.03383 11.8787C8.44871 12.4413 8.12 13.2044 8.12 14C8.12 14.7956 8.44871 15.5587 9.03383 16.1213C9.61894 16.6839 10.4125 17 11.24 17H18V16H11.24C10.6883 16 10.1593 15.7893 9.76922 15.4142C9.37914 15.0391 9.16 14.5304 9.16 14C9.16 13.4696 9.37914 12.9609 9.76922 12.5858C10.1593 12.2107 10.6883 12 11.24 12C11.6047 12.0004 11.9628 12.0931 12.2785 12.2686C12.5942 12.4441 12.8563 12.6963 13.0387 13H14.1772C13.9624 12.4158 13.5647 11.9098 13.0388 11.5517C12.5129 11.1936 11.8844 11.0009 11.24 11Z" fill="#72B23D"/>
<defs>
<linearGradient id="paint0_linear_211_378" x1="23" y1="0.999999" x2="1" y2="12" gradientUnits="userSpaceOnUse">
<stop stop-color="#E3C880"/>
<stop offset="1" stop-color="#6F5C38"/>
</linearGradient>
<linearGradient id="paint1_linear_211_378" x1="23" y1="9" x2="1.01236" y2="9.52141" gradientUnits="userSpaceOnUse">
<stop stop-opacity="0.5"/>
<stop offset="1"/>
</linearGradient>
<linearGradient id="paint2_linear_211_378" x1="23" y1="5.4" x2="1.42949" y2="23.5115" gradientUnits="userSpaceOnUse">
<stop stop-color="#FFE795"/>
<stop offset="1" stop-color="#7A653E"/>
</linearGradient>
</defs>
</svg>
