<svg width="24" height="24" viewBox="0 0 24 24" fill="none" xmlns="http://www.w3.org/2000/svg">
<rect opacity="0.8125" x="1" y="1" width="22" height="22" rx="6.6" fill="url(#paint0_linear_211_346)"/>
<rect opacity="0.125" x="3" y="2.25" width="18" height="18" rx="4.4" fill="url(#paint1_linear_211_346)" fill-opacity="0.875"/>
<rect x="3.25" y="3.25" width="17.5" height="17.5" rx="4.15" fill="#CCCCCC" stroke="url(#paint2_linear_211_346)" stroke-width="0.5"/>
<path opacity="0.125" d="M1 7.50781C1 5.84664 2.34664 4.5 4.00781 4.5H8.19048C9.265 4.5 10.3068 4.86994 11.1406 5.54762V5.54762C11.9745 6.2253 13.0162 6.59524 14.0908 6.59524H19.9922C21.6534 6.59524 23 7.94188 23 9.60305V15.5C23 19.1451 20.0451 22.1 16.4 22.1H7.6C3.95492 22.1 1 19.1451 1 15.5V7.50781Z" fill="url(#paint3_linear_211_346)" fill-opacity="0.875"/>
<g opacity="0.875">
<path d="M1 8.40782C1 6.74665 2.34664 5.4 4.00781 5.4H8.19048C9.265 5.4 10.3068 5.76994 11.1406 6.44762V6.44762C11.9745 7.1253 13.0162 7.49524 14.0908 7.49524H19.9922C21.6534 7.49524 23 8.84188 23 10.5031V16.4C23 20.0451 20.0451 23 16.4 23H7.6C3.95492 23 1 20.0451 1 16.4V8.40782Z" fill="url(#paint4_linear_211_346)"/>
<path d="M22.625 10.5031V16.4C22.625 19.838 19.838 22.625 16.4 22.625H7.6C4.16203 22.625 1.375 19.838 1.375 16.4V8.40782C1.375 6.95375 2.55375 5.775 4.00781 5.775H8.19048C9.17886 5.775 10.1371 6.11528 10.9041 6.73864C11.8048 7.47065 12.9301 7.87024 14.0908 7.87024H19.9922C21.4462 7.87024 22.625 9.04899 22.625 10.5031Z" stroke="url(#paint5_linear_211_346)" stroke-opacity="0.375" stroke-width="0.75" stroke-linejoin="round"/>
</g>
<path d="M11.9976 9C9.01176 9 6.5819 11.379 6.4999 14.345C6.49981 14.3482 6.50143 14.3549 6.50452 14.3642C6.50522 14.3491 6.50599 14.334 6.50682 14.3189L9.21501 15.5155C9.52094 15.2413 9.91719 15.0896 10.328 15.0893C10.3449 15.0893 10.3618 15.0895 10.3786 15.09L11.4103 13.3705C11.4094 13.3541 11.4088 13.3378 11.4084 13.3214C11.4084 12.7483 11.636 12.1988 12.0412 11.7935C12.4464 11.3883 12.996 11.1607 13.5691 11.1607C13.8528 11.1607 14.1338 11.2166 14.3959 11.3252C14.6581 11.4338 14.8963 11.5929 15.0969 11.7935C15.2976 11.9942 15.4567 12.2324 15.5653 12.4945C15.6739 12.7567 15.7298 13.0377 15.7298 13.3214C15.7297 13.8483 15.5371 14.357 15.1882 14.7518C14.8393 15.1466 14.3582 15.4003 13.8353 15.4652L11.9926 16.63C11.996 16.6729 11.9977 16.7159 11.9977 16.7589C11.9977 17.2017 11.8218 17.6264 11.5087 17.9395C11.1956 18.2526 10.7709 18.4285 10.3281 18.4285C9.88771 18.4284 9.46521 18.2544 9.15257 17.9443C8.83992 17.6341 8.66246 17.213 8.65882 16.7727L6.68187 15.8991C6.66822 15.8359 6.65568 15.7725 6.64427 15.7088C6.64368 15.745 6.64981 15.7914 6.66529 15.8531C7.26823 18.2363 9.42707 20 11.9976 20C15.0352 20 17.4976 17.5376 17.4976 14.5C17.4976 11.4624 15.0351 9 11.9976 9ZM13.569 11.9463C13.2043 11.9463 12.8546 12.0912 12.5967 12.3491C12.3389 12.6069 12.194 12.9567 12.194 13.3213C12.194 13.686 12.3389 14.0357 12.5967 14.2936C12.8546 14.5515 13.2043 14.6963 13.569 14.6963C13.9337 14.6963 14.2834 14.5515 14.5413 14.2936C14.7991 14.0357 14.944 13.686 14.944 13.3213C14.944 12.9567 14.7991 12.6069 14.5413 12.3491C14.2834 12.0912 13.9337 11.9463 13.569 11.9463ZM13.569 12.3392C13.698 12.3392 13.8257 12.3646 13.9449 12.4139C14.064 12.4633 14.1723 12.5356 14.2635 12.6268C14.3547 12.718 14.427 12.8263 14.4764 12.9455C14.5258 13.0646 14.5512 13.1924 14.5512 13.3213C14.5512 13.4503 14.5258 13.578 14.4764 13.6972C14.427 13.8163 14.3547 13.9246 14.2635 14.0158C14.1723 14.107 14.064 14.1794 13.9449 14.2287C13.8257 14.2781 13.698 14.3035 13.569 14.3035C13.44 14.3035 13.3123 14.2781 13.1931 14.2287C13.074 14.1794 12.9657 14.107 12.8745 14.0158C12.7833 13.9246 12.711 13.8163 12.6616 13.6972C12.6123 13.578 12.5868 13.4503 12.5869 13.3213C12.5869 13.1924 12.6123 13.0646 12.6616 12.9455C12.711 12.8263 12.7833 12.718 12.8745 12.6268C12.9657 12.5356 13.074 12.4633 13.1932 12.4139C13.3123 12.3646 13.44 12.3392 13.569 12.3392ZM10.328 15.6784C10.1597 15.6784 9.99379 15.7177 9.84341 15.7931L10.6057 16.13C10.6902 16.1652 10.7668 16.2169 10.8311 16.2821C10.8953 16.3472 10.9459 16.4246 10.9799 16.5096C11.0138 16.5946 11.0305 16.6855 11.0288 16.777C11.0272 16.8685 11.0073 16.9588 10.9703 17.0425C10.9333 17.1262 10.88 17.2017 10.8135 17.2646C10.7469 17.3274 10.6685 17.3763 10.5828 17.4085C10.4971 17.4406 10.4058 17.4553 10.3144 17.4517C10.2229 17.4481 10.1331 17.4263 10.0502 17.3876L9.28789 17.0507C9.35157 17.2776 9.48766 17.4774 9.67543 17.6197C9.8632 17.7621 10.0924 17.8391 10.328 17.8391C10.6145 17.8391 10.8893 17.7253 11.0919 17.5227C11.2945 17.3201 11.4083 17.0453 11.4083 16.7588C11.4083 16.4722 11.2945 16.1974 11.0919 15.9948C10.8893 15.7922 10.6145 15.6784 10.328 15.6784Z" fill="url(#paint6_linear_211_346)"/>
<defs>
<linearGradient id="paint0_linear_211_346" x1="23" y1="0.999999" x2="1" y2="12" gradientUnits="userSpaceOnUse">
<stop stop-color="#E3C880"/>
<stop offset="1" stop-color="#6F5C38"/>
</linearGradient>
<linearGradient id="paint1_linear_211_346" x1="21" y1="4" x2="3" y2="4" gradientUnits="userSpaceOnUse">
<stop stop-opacity="0.5"/>
<stop offset="0.890123"/>
<stop offset="1" stop-opacity="0"/>
</linearGradient>
<linearGradient id="paint2_linear_211_346" x1="12" y1="3" x2="11.5" y2="8" gradientUnits="userSpaceOnUse">
<stop stop-color="#DDDDDD"/>
<stop offset="1" stop-color="#CCCCCC" stop-opacity="0"/>
</linearGradient>
<linearGradient id="paint3_linear_211_346" x1="23" y1="9" x2="1.01236" y2="9.52141" gradientUnits="userSpaceOnUse">
<stop stop-opacity="0.5"/>
<stop offset="1"/>
</linearGradient>
<linearGradient id="paint4_linear_211_346" x1="23" y1="5.4" x2="1.42949" y2="23.5115" gradientUnits="userSpaceOnUse">
<stop stop-color="#FFE795"/>
<stop offset="1" stop-color="#7A653E"/>
</linearGradient>
<linearGradient id="paint5_linear_211_346" x1="15" y1="5.5" x2="5.5" y2="19.5" gradientUnits="userSpaceOnUse">
<stop stop-color="#FFE795"/>
<stop offset="1" stop-color="#7A653E"/>
</linearGradient>
<linearGradient id="paint6_linear_211_346" x1="11.9987" y1="9" x2="11.9987" y2="20" gradientUnits="userSpaceOnUse">
<stop stop-color="#256D8E"/>
<stop offset="1" stop-color="#0F182E"/>
</linearGradient>
</defs>
</svg>
