<svg width="24" height="24" viewBox="0 0 24 24" fill="none" xmlns="http://www.w3.org/2000/svg">
<rect opacity="0.8125" x="1" y="1" width="22" height="22" rx="6.6" fill="url(#paint0_linear_211_294)"/>
<rect opacity="0.625" x="3" y="2.25" width="18" height="18" rx="4.4" fill="#777777" fill-opacity="0.875"/>
<rect x="3" y="3" width="18" height="18" rx="4.4" fill="#CCCCCC"/>
<path opacity="0.125" d="M1 7.50781C1 5.84664 2.34664 4.5 4.00781 4.5H8.19048C9.265 4.5 10.3068 4.86994 11.1406 5.54762V5.54762C11.9745 6.2253 13.0162 6.59524 14.0908 6.59524H19.9922C21.6534 6.59524 23 7.94188 23 9.60305V15.5C23 19.1451 20.0451 22.1 16.4 22.1H7.6C3.95492 22.1 1 19.1451 1 15.5V7.50781Z" fill="url(#paint1_linear_211_294)" fill-opacity="0.875"/>
<path opacity="0.875" d="M1 8.40782C1 6.74665 2.34664 5.4 4.00781 5.4H8.19048C9.265 5.4 10.3068 5.76994 11.1406 6.44762V6.44762C11.9745 7.1253 13.0162 7.49524 14.0908 7.49524H19.9922C21.6534 7.49524 23 8.84188 23 10.5031V16.4C23 20.0451 20.0451 23 16.4 23H7.6C3.95492 23 1 20.0451 1 16.4V8.40782Z" fill="url(#paint2_linear_211_294)"/>
<path opacity="0.75" d="M13.9999 8C13.601 8.19285 13.2639 8.49709 13.0279 8.87739C12.7919 9.25769 12.6666 9.69843 12.6665 10.1484C12.6671 10.5979 12.7926 11.0381 13.0286 11.4179C13.2646 11.7977 13.6014 12.1015 13.9999 12.2942V13.6026C14.7675 13.9191 15.4523 14.4134 15.9999 15.0464V12.2943C16.3984 12.1017 16.7352 11.7978 16.9712 11.418C17.2072 11.0383 17.3327 10.5981 17.3333 10.1485C17.3332 9.69856 17.2079 9.25782 16.9719 8.87752C16.7359 8.49722 16.3988 8.19298 15.9999 8.00013V10.1485C15.9999 10.7131 15.5539 11.1677 14.9999 11.1677C14.4459 11.1677 13.9999 10.7132 13.9999 10.1485V8ZM11.9999 13.8853C10.7623 13.8853 9.5753 14.3863 8.70015 15.2782C7.825 16.1701 7.33335 17.3798 7.33335 18.6411H6V20H18V18.6411H16.6667C16.6667 17.3798 16.175 16.1701 15.2999 15.2782C14.4247 14.3863 13.2375 13.8853 11.9999 13.8853ZM11.9999 15.2441C12.884 15.2441 13.7318 15.602 14.3569 16.2391C14.9821 16.8762 15.3333 17.7403 15.3333 18.6413H8.66654C8.66654 17.7403 9.01773 16.8762 9.64286 16.2391C10.268 15.602 11.1158 15.2441 11.9999 15.2441Z" fill="white"/>
<defs>
<linearGradient id="paint0_linear_211_294" x1="23" y1="0.999999" x2="1" y2="12" gradientUnits="userSpaceOnUse">
<stop stop-color="#E3C880"/>
<stop offset="1" stop-color="#6F5C38"/>
</linearGradient>
<linearGradient id="paint1_linear_211_294" x1="23" y1="9" x2="1.01236" y2="9.52141" gradientUnits="userSpaceOnUse">
<stop stop-opacity="0.5"/>
<stop offset="1"/>
</linearGradient>
<linearGradient id="paint2_linear_211_294" x1="23" y1="5.4" x2="1.42949" y2="23.5115" gradientUnits="userSpaceOnUse">
<stop stop-color="#FFE795"/>
<stop offset="1" stop-color="#7A653E"/>
</linearGradient>
</defs>
</svg>
