<?xml version="1.0" encoding="UTF-8" standalone="no"?>
<svg
   width="24"
   height="24"
   viewBox="0 0 24 24"
   fill="none"
   version="1.1"
   id="svg18"
   sodipodi:docname="folder-java.svg"
   xml:space="preserve"
   inkscape:version="1.3 (0e150ed6c4, 2023-07-21)"
   xmlns:inkscape="http://www.inkscape.org/namespaces/inkscape"
   xmlns:sodipodi="http://sodipodi.sourceforge.net/DTD/sodipodi-0.dtd"
   xmlns:xlink="http://www.w3.org/1999/xlink"
   xmlns="http://www.w3.org/2000/svg"
   xmlns:svg="http://www.w3.org/2000/svg"><sodipodi:namedview
   id="namedview18"
   pagecolor="#ffffff"
   bordercolor="#000000"
   borderopacity="0.25"
   inkscape:showpageshadow="2"
   inkscape:pageopacity="0.0"
   inkscape:pagecheckerboard="0"
   inkscape:deskcolor="#d1d1d1"
   inkscape:zoom="33.791667"
   inkscape:cx="10.076449"
   inkscape:cy="13.390875"
   inkscape:window-width="2560"
   inkscape:window-height="998"
   inkscape:window-x="0"
   inkscape:window-y="0"
   inkscape:window-maximized="1"
   inkscape:current-layer="svg18" /><rect
   opacity="0.8125"
   x="1"
   y="1"
   width="22"
   height="22"
   rx="6.6"
   fill="url(#paint0_linear_211_262)"
   id="rect1" /><rect
   opacity="0.125"
   x="3"
   y="2.25"
   width="18"
   height="18"
   rx="4.4"
   fill="url(#paint1_linear_211_262)"
   fill-opacity="0.875"
   id="rect2" /><rect
   x="3.25"
   y="3.25"
   width="17.5"
   height="17.5"
   rx="4.15"
   fill="#CCCCCC"
   stroke="url(#paint2_linear_211_262)"
   stroke-width="0.5"
   id="rect3" /><path
   opacity="0.125"
   d="M1 7.50781C1 5.84664 2.34664 4.5 4.00781 4.5H8.19048C9.265 4.5 10.3068 4.86994 11.1406 5.54762V5.54762C11.9745 6.2253 13.0162 6.59524 14.0908 6.59524H19.9922C21.6534 6.59524 23 7.94188 23 9.60305V15.5C23 19.1451 20.0451 22.1 16.4 22.1H7.6C3.95492 22.1 1 19.1451 1 15.5V7.50781Z"
   fill="url(#paint3_linear_211_262)"
   fill-opacity="0.875"
   id="path3" /><g
   opacity="0.875"
   id="g5"><path
     d="M1 8.40782C1 6.74665 2.34664 5.4 4.00781 5.4H8.19048C9.265 5.4 10.3068 5.76994 11.1406 6.44762V6.44762C11.9745 7.1253 13.0162 7.49524 14.0908 7.49524H19.9922C21.6534 7.49524 23 8.84188 23 10.5031V16.4C23 20.0451 20.0451 23 16.4 23H7.6C3.95492 23 1 20.0451 1 16.4V8.40782Z"
     fill="url(#paint4_linear_211_262)"
     id="path4" /><path
     d="M22.625 10.5031V16.4C22.625 19.838 19.838 22.625 16.4 22.625H7.6C4.16203 22.625 1.375 19.838 1.375 16.4V8.40782C1.375 6.95375 2.55375 5.775 4.00781 5.775H8.19048C9.17886 5.775 10.1371 6.11528 10.9041 6.73864C11.8048 7.47065 12.9301 7.87024 14.0908 7.87024H19.9922C21.4462 7.87024 22.625 9.04899 22.625 10.5031Z"
     stroke="url(#paint5_linear_211_262)"
     stroke-opacity="0.375"
     stroke-width="0.75"
     stroke-linejoin="round"
     id="path5" /></g><defs
   id="defs18"><linearGradient
   id="paint0_linear_211_262"
   x1="23"
   y1="0.999999"
   x2="1"
   y2="12"
   gradientUnits="userSpaceOnUse"><stop
     stop-color="#E3C880"
     id="stop6" /><stop
     offset="1"
     stop-color="#6F5C38"
     id="stop7" /></linearGradient><linearGradient
   id="paint1_linear_211_262"
   x1="21"
   y1="4"
   x2="3"
   y2="4"
   gradientUnits="userSpaceOnUse"><stop
     stop-opacity="0.5"
     id="stop8" /><stop
     offset="0.890123"
     id="stop9" /><stop
     offset="1"
     stop-opacity="0"
     id="stop10" /></linearGradient><linearGradient
   id="paint2_linear_211_262"
   x1="12"
   y1="3"
   x2="11.5"
   y2="8"
   gradientUnits="userSpaceOnUse"><stop
     stop-color="#DDDDDD"
     id="stop11" /><stop
     offset="1"
     stop-color="#CCCCCC"
     stop-opacity="0"
     id="stop12" /></linearGradient><linearGradient
   id="paint3_linear_211_262"
   x1="23"
   y1="9"
   x2="1.01236"
   y2="9.52141"
   gradientUnits="userSpaceOnUse"><stop
     stop-opacity="0.5"
     id="stop13" /><stop
     offset="1"
     id="stop14" /></linearGradient><linearGradient
   id="paint4_linear_211_262"
   x1="23"
   y1="5.4"
   x2="1.42949"
   y2="23.5115"
   gradientUnits="userSpaceOnUse"><stop
     stop-color="#FFE795"
     id="stop15" /><stop
     offset="1"
     stop-color="#7A653E"
     id="stop16" /></linearGradient><linearGradient
   id="paint5_linear_211_262"
   x1="15"
   y1="5.5"
   x2="5.5"
   y2="19.5"
   gradientUnits="userSpaceOnUse"><stop
     stop-color="#FFE795"
     id="stop17" /><stop
     offset="1"
     stop-color="#7A653E"
     id="stop18" /></linearGradient><rect
   id="SVGID_1_"
   x="124.12"
   y="110.1"
   width="934.48"
   height="611.52" />&#10;	<defs
   id="defs1">&#10;		<rect
   id="rect18"
   x="124.12"
   y="110.1"
   width="934.47998"
   height="611.52002" />&#10;	</defs>&#10;	&#10;	&#10;&#10;		&#10;		&#10;		&#10;		&#10;		&#10;	<clipPath
   clipPathUnits="userSpaceOnUse"
   id="clipPath18"><g
     id="g19"><use
       xlink:href="#SVGID_1_"
       style="overflow:visible"
       id="use18"
       transform="matrix(0.03147123,0,0,0.03147123,26.878909,-1.757242)" /></g></clipPath><clipPath
   clipPathUnits="userSpaceOnUse"
   id="clipPath19"><g
     id="g20"><use
       xlink:href="#SVGID_1_"
       style="overflow:visible"
       id="use19"
       transform="matrix(0.03147123,0,0,0.03147123,26.878909,-1.757242)" /></g></clipPath><clipPath
   clipPathUnits="userSpaceOnUse"
   id="clipPath20"><g
     id="g21"><use
       xlink:href="#SVGID_1_"
       style="overflow:visible"
       id="use20"
       transform="matrix(0.03147123,0,0,0.03147123,26.878909,-1.757242)" /></g></clipPath><clipPath
   clipPathUnits="userSpaceOnUse"
   id="clipPath21"><g
     id="g22"><use
       xlink:href="#SVGID_1_"
       style="overflow:visible"
       id="use21"
       transform="matrix(0.03147123,0,0,0.03147123,26.878909,-1.757242)" /></g></clipPath><clipPath
   clipPathUnits="userSpaceOnUse"
   id="clipPath22"><g
     id="g23"><use
       xlink:href="#SVGID_1_"
       style="overflow:visible"
       id="use22"
       transform="matrix(0.03147123,0,0,0.03147123,26.878909,-1.757242)" /></g></clipPath></defs><style
   type="text/css"
   id="style1">&#10;	.st0{clip-path:url(#SVGID_00000141429680582106682160000018105045912794111919_);}&#10;	.st1{fill:#5582A1;}&#10;	.st2{fill:#F49734;}&#10;</style>&#10;		&#10;	<g
   id="g27"
   transform="matrix(1.031554,0,0,1.031554,-0.3695581,-0.02975252)"><path
     id="path1"
     clip-path="url(#clipPath22)"
     style="opacity:0.15;fill:#1a1a1a;fill-opacity:1;stroke-width:0.0314712"
     class="st1"
     d="m 39.809152,1.7069849 c 0.806608,3.1770143 -2.844055,4.1396029 -4.162066,6.1200834 -0.896614,1.3475953 0.440887,2.7963287 2.265558,4.4422717 -0.711536,-1.608177 -3.124457,-3.0155838 0,-5.484497 3.89676,-3.0753623 1.896508,-5.0778581 1.896508,-5.0778581 z m 2.412496,3.9331189 c -3.15e-4,-0.00157 -6.591901,1.6431104 -3.444469,5.2692172 0.929343,1.068761 -0.242617,2.033194 -0.242617,2.033194 0,0 2.356254,-1.216077 1.27459,-2.74054 -1.011481,-1.4212377 -1.785758,-2.1275763 2.412496,-4.5618712 z m 1.066145,6.4822992 c -0.20185,0.01033 -0.415933,0.05052 -0.63217,0.126434 -0.201414,0.07207 -0.307541,0.235782 -0.307541,0.235782 0,0 0.128344,-0.05018 0.413473,-0.109348 1.165376,-0.242643 2.835627,1.558849 -0.775689,3.434218 -0.01668,0.04438 -0.07016,0.096 -0.07176,0.0991 4.370803,-1.149671 3.324896,-3.885999 1.373687,-3.786182 z m -7.814981,0.177691 c -0.460488,0.01196 -1.539166,0.112642 -2.791797,0.717598 -1.977019,0.955779 4.887852,1.388857 8.440316,0.454478 0.370417,-0.250824 0.88162,-0.468147 0.88162,-0.468147 0,0 -1.457202,0.258138 -2.904562,0.379302 -1.772141,0.14917 -3.672592,0.17903 -4.626797,0.05126 -2.258999,-0.301495 1.240419,-1.131071 1.240419,-1.131071 0,0 -0.0857,-0.0074 -0.239199,-0.0034 z m -0.577495,2.186965 c -3.258843,1.081979 1.815651,2.308217 6.369534,0.977299 -0.485287,-0.172147 -0.792775,-0.481815 -0.792775,-0.481815 -2.225959,0.427693 -3.513205,0.411616 -5.142784,0.242616 -1.258848,-0.130921 -0.433975,-0.7381 -0.433975,-0.7381 z m 0.461313,2.104953 c -2.960811,0.827688 1.79936,2.53557 5.569925,0.919208 -0.618095,-0.239495 -1.059311,-0.515987 -1.059311,-0.515987 -1.680248,0.318174 -2.459912,0.344578 -3.984376,0.170857 -1.259163,-0.144138 -0.526238,-0.574078 -0.526238,-0.574078 z m -1.913594,1.397607 c -1.271758,-0.04902 -4.159208,1.219604 -1.694898,1.61972 7.683055,1.246258 14.006446,-0.55904 12.014636,-1.459115 0,0 0.542563,0.450324 -0.601415,0.796192 -2.175287,0.659006 -9.050915,0.858492 -10.962159,0.02734 -0.687017,-0.298347 0.599918,-0.712749 1.004636,-0.799609 0.422973,-0.0919 0.666341,-0.07859 0.666341,-0.07859 -0.09548,-0.06723 -0.245463,-0.09893 -0.427141,-0.105931 z m 11.539654,1.141322 c 0,0 -0.242323,0.620516 -2.863556,1.113985 -2.958919,0.557353 -6.611237,0.494198 -8.775195,0.136685 -0.0016,0.0019 0.443098,0.36497 2.720037,0.51257 3.465604,0.221243 8.792515,-0.122334 8.918714,-1.76324 z"
     transform="matrix(0.5715685,0,0,0.5715685,-10.095804,7.7239094)" /><path
     class="st2"
     d="m 38.778496,10.910557 c 0.929345,1.068763 -0.244217,2.031154 -0.244217,2.031154 0,0 2.357195,-1.216363 1.275529,-2.74083 -1.011485,-1.4212405 -1.786936,-2.126196 2.411326,-4.5604957 -3.15e-4,-0.00157 -6.590076,1.6440571 -3.442638,5.2701717 z"
     id="path2"
     style="fill:#db380e;fill-opacity:1;stroke-width:0.0314712"
     clip-path="url(#clipPath21)"
     transform="matrix(0.5715685,0,0,0.5715685,-9.7868607,7.4696537)" /><path
     class="st2"
     d="m 39.809493,1.7077404 c 0,0 1.999997,2.0015703 -1.896771,5.0769388 -3.124463,2.468918 -0.713138,3.8753678 -0.0016,5.4835468 C 36.086447,10.622281 34.748919,9.1733456 35.645535,7.8257475 36.96355,5.845263 40.616101,4.8847611 39.809493,1.7077404 Z"
     id="path4-7"
     style="fill:#db380e;fill-opacity:1;stroke-width:0.0314712"
     clip-path="url(#clipPath19)"
     transform="matrix(0.5715685,0,0,0.5715685,-9.7868607,7.4696537)" /><path
     id="path27"
     clip-path="url(#clipPath22)"
     style="fill:#296790;fill-opacity:1;stroke-width:0.0314712"
     class="st1"
     d="m 43.287793,12.122403 c -0.20185,0.01033 -0.415933,0.05052 -0.63217,0.126434 -0.201414,0.07207 -0.307541,0.235782 -0.307541,0.235782 0,0 0.128344,-0.05018 0.413473,-0.109348 1.165376,-0.242643 2.835627,1.558849 -0.775689,3.434218 -0.01668,0.04438 -0.07016,0.096 -0.07176,0.0991 4.370803,-1.149671 3.324896,-3.885999 1.373687,-3.786182 z m -7.814981,0.177691 c -0.460488,0.01196 -1.539166,0.112642 -2.791797,0.717598 -1.977019,0.955779 4.887852,1.388857 8.440316,0.454478 0.370417,-0.250824 0.88162,-0.468147 0.88162,-0.468147 0,0 -1.457202,0.258138 -2.904562,0.379302 -1.772141,0.14917 -3.672592,0.17903 -4.626797,0.05126 -2.258999,-0.301495 1.240419,-1.131071 1.240419,-1.131071 0,0 -0.0857,-0.0074 -0.239199,-0.0034 z m -0.577495,2.186965 c -3.258843,1.081979 1.815651,2.308217 6.369534,0.977299 -0.485287,-0.172147 -0.792775,-0.481815 -0.792775,-0.481815 -2.225959,0.427693 -3.513205,0.411616 -5.142784,0.242616 -1.258848,-0.130921 -0.433975,-0.7381 -0.433975,-0.7381 z m 0.461313,2.104953 c -2.960811,0.827688 1.79936,2.53557 5.569925,0.919208 -0.618095,-0.239495 -1.059311,-0.515987 -1.059311,-0.515987 -1.680248,0.318174 -2.459912,0.344578 -3.984376,0.170857 -1.259163,-0.144138 -0.526238,-0.574078 -0.526238,-0.574078 z m -1.913594,1.397607 c -1.271758,-0.04902 -4.159208,1.219604 -1.694898,1.61972 7.683055,1.246258 14.006446,-0.55904 12.014636,-1.459115 0,0 0.542563,0.450324 -0.601415,0.796192 -2.175287,0.659006 -9.050915,0.858492 -10.962159,0.02734 -0.687017,-0.298347 0.599918,-0.712749 1.004636,-0.799609 0.422973,-0.0919 0.666341,-0.07859 0.666341,-0.07859 -0.09548,-0.06723 -0.245463,-0.09893 -0.427141,-0.105931 z m 11.539654,1.141322 c 0,0 -0.242323,0.620516 -2.863556,1.113985 -2.958919,0.557353 -6.611237,0.494198 -8.775195,0.136685 -0.0016,0.0019 0.443098,0.36497 2.720037,0.51257 3.465604,0.221243 8.792515,-0.122334 8.918714,-1.76324 z"
     transform="matrix(0.5715685,0,0,0.5715685,-9.786861,7.4696537)"
     sodipodi:nodetypes="scccccssccccccccccccccccccccccccccccccccc" /></g></svg>
