<?xml version="1.0" encoding="UTF-8" standalone="no"?>
<!-- Created with Inkscape (http://www.inkscape.org/) -->

<svg
   width="122.00043mm"
   height="122.39994mm"
   viewBox="0 0 122.00043 122.39994"
   version="1.1"
   id="svg40786"
   xml:space="preserve"
   xmlns:inkscape="http://www.inkscape.org/namespaces/inkscape"
   xmlns:sodipodi="http://sodipodi.sourceforge.net/DTD/sodipodi-0.dtd"
   xmlns:xlink="http://www.w3.org/1999/xlink"
   xmlns="http://www.w3.org/2000/svg"
   xmlns:svg="http://www.w3.org/2000/svg"><sodipodi:namedview
     id="namedview40788"
     pagecolor="#ffffff"
     bordercolor="#000000"
     borderopacity="0.25"
     inkscape:showpageshadow="2"
     inkscape:pageopacity="0.0"
     inkscape:pagecheckerboard="0"
     inkscape:deskcolor="#d1d1d1"
     inkscape:document-units="mm"
     showgrid="false" /><defs
     id="defs40783"><linearGradient
       x1="23"
       y1="0.99999899"
       x2="1"
       y2="12"
       gradientUnits="userSpaceOnUse"
       gradientTransform="matrix(15.719399,0,0,15.719399,-15.719406,-15.719386)"
       spreadMethod="pad"
       id="linearGradient25612"><stop
         style="stop-opacity:1;stop-color:#87de87"
         offset="0"
         id="stop25608" /><stop
         style="stop-opacity:1;stop-color:#217821"
         offset="1"
         id="stop25610" /></linearGradient><linearGradient
       inkscape:collect="always"
       xlink:href="#linearGradient9991"
       id="linearGradient9993"
       x1="38.383476"
       y1="221.70691"
       x2="176.81567"
       y2="112.21963"
       gradientUnits="userSpaceOnUse"
       gradientTransform="translate(1e-6,68.186921)" /><linearGradient
       inkscape:collect="always"
       id="linearGradient9991"><stop
         style="stop-color:#2ca02c;stop-opacity:1"
         offset="0"
         id="stop9987" /><stop
         style="stop-color:#afe9af;stop-opacity:1"
         offset="1"
         id="stop9989" /></linearGradient><linearGradient
       id="paint2_linear_11_76"
       x1="15.2955"
       y1="8.6999998"
       x2="7.0284901"
       y2="19.496201"
       gradientUnits="userSpaceOnUse"
       gradientTransform="matrix(5.5454545,0,0,5.5454545,-7.5546144,-2.327392)"><stop
         stop-color="#E996B1"
         id="stop46641" /><stop
         offset="1"
         stop-color="#BC546F"
         id="stop46643" /></linearGradient><linearGradient
       id="paint3_linear_11_76"
       x1="6.5"
       y1="20.0882"
       x2="15.8176"
       y2="7.66471"
       gradientUnits="userSpaceOnUse"
       gradientTransform="matrix(5.5454545,0,0,5.5454545,-4.0749744,-7.818794)"><stop
         stop-color="#54452A"
         stop-opacity="0.35"
         id="stop46646" /><stop
         offset="1"
         stop-color="#7A653E"
         stop-opacity="0.45"
         id="stop46648" /></linearGradient></defs><g
     inkscape:label="Camada 1"
     inkscape:groupmode="layer"
     id="layer1"
     transform="translate(-37.836987,-97.057027)"><g
       id="g41038"
       transform="translate(-6.1627974,-58.20064)"
       inkscape:export-filename="videos-green.svg"
       inkscape:export-xdpi="26.553411"
       inkscape:export-ydpi="26.553411"><rect
         x="56.200001"
         y="167.4579"
         width="97.599998"
         height="97.599998"
         rx="24.4"
         fill="#fafafa"
         id="rect19687"
         style="stroke-width:5.54545"
         inkscape:export-filename="models-green.svg"
         inkscape:export-xdpi="26.553411"
         inkscape:export-ydpi="26.553411" /><g
         id="g25596"
         transform="matrix(0.35277776,0,0,0.35277778,43.999786,155.25767)"><g
           id="g25598"><g
             id="g25600"><g
               id="g25606"><path
                 d="m 103.746,0 h 138.332 c 57.477,0 103.75,46.273 103.75,103.746 v 138.332 c 0,57.477 -46.273,103.75 -103.75,103.75 H 103.746 C 46.273,345.828 0,299.555 0,242.078 V 103.746 C 0,46.273 46.273,0 103.746,0 Z"
                 style="fill:url(#linearGradient25612);stroke:none"
                 id="path25614" /></g></g></g><path
           d="m 103.746,34.582 h 138.332 c 38.317,0 69.164,30.848 69.164,69.168 v 138.328 c 0,38.317 -30.847,69.164 -69.164,69.164 H 103.746 c -38.316,0 -69.164,-30.847 -69.164,-69.164 V 103.75 c 0,-38.32 30.848,-69.168 69.164,-69.168 z"
           style="fill:#fafafa;fill-opacity:1;fill-rule:nonzero;stroke:none"
           id="path25616" /></g><path
         d="m 43.999791,196.73778 c 0,-9.21209 7.4676,-16.6797 16.67969,-16.6797 h 23.19514 c 5.95876,0 11.7355,2.05176 16.358639,5.80991 4.62492,3.75778 10.40165,5.80989 16.36148,5.80989 h 32.72578 c 9.21209,0 16.67969,7.46725 16.67969,16.67969 v 32.70074 c 0,20.2131 -16.38618,36.59928 -36.60069,36.59928 H 80.599071 c -20.2131,0 -36.59928,-16.38618 -36.59928,-36.59928 z"
         style="fill:url(#linearGradient9993);fill-opacity:1;fill-rule:nonzero;stroke:none;stroke-width:0.352778"
         id="path8489" /></g></g><path
     d="m 77.276433,89.330103 c 0,8.43574 -6.42719,11.621047 -10.6739,11.621047 -4.849497,0 -8.321497,-3.156467 -8.321497,-7.632757 0,-4.39034 2.72614,-7.40319 8.579917,-8.60821 l 4.56225,-0.97545 c 1.17619,-0.22958 1.77898,-1.09023 1.77898,-2.41061 l -0.10592,-19.64976 -21.218577,4.34653 c -1.29154,0.25841 -1.52112,0.51628 -1.52112,1.95144 v 26.2544 c 0,8.436297 -6.42724,11.621057 -10.674,11.621057 -4.84922,0 -8.32112,-3.15592 -8.32112,-7.632207 0,-4.39034 2.72581,-7.40318 8.57948,-8.60821 l 4.56236,-0.97545 c 1.17641,-0.22958 1.77898,-1.09079 1.77898,-2.41061 l -0.17224,-31.90743 c 0,-1.72175 1.06168,-2.75471 3.01268,-3.18514 l 25.298927,-5.1458 c 1.5494,-0.34426 2.86921,0.71731 2.86921,2.32416 v 10.81746 c 0,0.086 -0.005,0.16969 -0.0144,0.25232 z"
     fill="url(#paint2_linear_11_76)"
     id="path46627"
     style="fill:url(#paint2_linear_11_76);stroke-width:5.54545" /><path
     fill-rule="evenodd"
     clip-rule="evenodd"
     d="m 75.975323,93.603693 c -1.9215,1.28876 -4.10142,1.85606 -5.89316,1.85606 -4.8495,0 -8.321497,-3.15647 -8.321497,-7.63276 0,-1.49949 0.3183,-2.83817 0.969897,-3.99883 -2.601377,1.57546 -3.840227,3.90954 -3.840227,6.86915 0,4.47629 3.472007,7.63277 8.320947,7.63277 2.79491,0 6.53366,-1.37916 8.76404,-4.72639 z m -2.1655,-15.12689 1.09301,-0.23347 c 1.17619,-0.22958 1.77898,-1.09023 1.77898,-2.41061 l -0.10592,-19.64976 -21.218567,4.34653 c -1.29154,0.25841 -1.52112,0.51628 -1.52112,1.95144 v 0.64272 l 19.868807,-4.06981 z M 49.599706,48.538553 c -1.86688,0.44752 -2.88065,1.47232 -2.88065,3.15426 l 0.17103,31.68118 1.09284,-0.23347 c 1.17641,-0.22958 1.77898,-1.09079 1.77898,-2.41061 l -0.17224,-31.90743 c 0,-0.097 0.003,-0.19187 0.01,-0.28393 z m -13.78872,40.18625 c -0.65198,1.16121 -0.9699,2.49989 -0.9699,3.99938 0,4.47629 3.4719,7.632757 8.32112,7.632757 1.79179,0 3.97171,-0.567297 5.89332,-1.856057 -2.23021,3.347227 -5.96924,4.726387 -8.76387,4.726387 -4.84928,0 -8.32118,-3.15647 -8.32118,-7.632767 0,-2.9596 1.23908,-5.29369 3.84051,-6.8697 z"
     fill="url(#paint3_linear_11_76)"
     fill-opacity="0.5"
     id="path46629"
     style="fill:url(#paint3_linear_11_76);stroke-width:5.54545" /></svg>
