<?xml version="1.0" encoding="UTF-8" standalone="no"?>
<!-- Created with Inkscape (http://www.inkscape.org/) -->

<svg
   width="122.42953mm"
   height="122.39994mm"
   viewBox="0 0 122.42953 122.39994"
   version="1.1"
   id="svg2972"
   xml:space="preserve"
   xmlns:inkscape="http://www.inkscape.org/namespaces/inkscape"
   xmlns:sodipodi="http://sodipodi.sourceforge.net/DTD/sodipodi-0.dtd"
   xmlns:xlink="http://www.w3.org/1999/xlink"
   xmlns="http://www.w3.org/2000/svg"
   xmlns:svg="http://www.w3.org/2000/svg"><sodipodi:namedview
     id="namedview2974"
     pagecolor="#ffffff"
     bordercolor="#000000"
     borderopacity="0.25"
     inkscape:showpageshadow="2"
     inkscape:pageopacity="0.0"
     inkscape:pagecheckerboard="0"
     inkscape:deskcolor="#d1d1d1"
     inkscape:document-units="mm"
     showgrid="false" /><defs
     id="defs2969"><linearGradient
       inkscape:collect="always"
       id="linearGradient9991"><stop
         style="stop-color:#2ca02c;stop-opacity:1"
         offset="0"
         id="stop9987" /><stop
         style="stop-color:#afe9af;stop-opacity:1"
         offset="1"
         id="stop9989" /></linearGradient><linearGradient
       inkscape:collect="always"
       xlink:href="#linearGradient9991"
       id="linearGradient9993"
       x1="38.383476"
       y1="221.70691"
       x2="176.81567"
       y2="112.21963"
       gradientUnits="userSpaceOnUse"
       gradientTransform="translate(-43.999786,-87.070743)" /><linearGradient
       x1="23"
       y1="0.99999899"
       x2="1"
       y2="12"
       gradientUnits="userSpaceOnUse"
       gradientTransform="matrix(15.719399,0,0,15.719399,-15.719406,-15.719386)"
       spreadMethod="pad"
       id="linearGradient25612"><stop
         style="stop-opacity:1;stop-color:#87de87"
         offset="0"
         id="stop25608" /><stop
         style="stop-opacity:1;stop-color:#217821"
         offset="1"
         id="stop25610" /></linearGradient><clipPath
       clipPathUnits="userSpaceOnUse"
       id="clipPath32834"><path
         d="M 0,0 H 201 V 178 H 0 Z"
         id="path32832" /></clipPath></defs><rect
     x="12.629317"
     y="12.200236"
     width="97.599998"
     height="97.599998"
     rx="24.4"
     fill="#fafafa"
     id="rect19687"
     style="stroke-width:5.54545"
     inkscape:export-filename="download-green.pdf"
     inkscape:export-xdpi="26.553411"
     inkscape:export-ydpi="26.553411" /><g
     id="g25596"
     transform="matrix(0.35277776,0,0,0.35277778,0.42910166,2.7249241e-6)"><g
       id="g25598"><g
         id="g25600"><g
           id="g25606"><path
             d="m 103.746,0 h 138.332 c 57.477,0 103.75,46.273 103.75,103.746 v 138.332 c 0,57.477 -46.273,103.75 -103.75,103.75 H 103.746 C 46.273,345.828 0,299.555 0,242.078 V 103.746 C 0,46.273 46.273,0 103.746,0 Z"
             style="fill:url(#linearGradient25612);stroke:none"
             id="path25614" /></g></g></g><path
       d="m 103.746,34.582 h 138.332 c 38.317,0 69.164,30.848 69.164,69.168 v 138.328 c 0,38.317 -30.847,69.164 -69.164,69.164 H 103.746 c -38.316,0 -69.164,-30.847 -69.164,-69.164 V 103.75 c 0,-38.32 30.848,-69.168 69.164,-69.168 z"
       style="fill:#fafafa;fill-opacity:1;fill-rule:nonzero;stroke:none"
       id="path25616" /></g><path
     d="m 3.6571376e-6,41.480114 c 0,-9.21209 7.4676000428624,-16.6797 16.6796903428624,-16.6797 h 23.19514 c 5.95876,0 11.7355,2.05176 16.358642,5.80991 4.624917,3.75778 10.401647,5.80989 16.361477,5.80989 h 32.725777 c 9.21209,0 16.67969,7.46725 16.67969,16.67969 v 32.70074 c 0,20.213096 -16.38618,36.599276 -36.600687,36.599276 H 36.599284 C 16.386184,122.39992 3.6571376e-6,106.01374 3.6571376e-6,85.800644 Z"
     style="fill:url(#linearGradient9993);fill-opacity:1;fill-rule:nonzero;stroke:none;stroke-width:0.352778"
     id="path8489" /><g
     id="g32826"
     transform="matrix(0.35277776,0,0,0.35277778,26.132313,45.536674)"><g
       id="g32828"><g
         id="g32830" /><g
         id="g32842"><g
           clip-path="url(#clipPath32834)"
           opacity="0.5"
           id="g32840"><g
             id="g32838"><path
               d="m 48.324,177.234 v -14.425 l 14.43,-14.657 H 27.023 c -7.585,0 -13.988,-2.609 -19.203,-7.824 C 2.605,135.113 0,128.715 0,121.125 V 31.348 C 0,23.762 2.605,17.359 7.82,12.145 13.035,6.93 19.438,4.324 27.023,4.324 H 84.738 V 31.348 H 27.023 v 89.777 H 164.438 V 94.328 h 27.027 v 26.797 c 0,7.59 -2.606,13.988 -7.82,19.203 -5.215,5.215 -11.618,7.824 -19.207,7.824 h -35.727 l 14.43,14.657 v 14.425 z m 76.953,-62.98 -51.3,-51.301 19.007,-19.008 18.778,18.778 V 4.324 h 27.027 v 58.399 l 18.777,-18.778 19.012,19.008 z"
               style="fill:#4d4d4d;fill-opacity:0.5;fill-rule:nonzero;stroke:none"
               id="path32836" /></g></g></g></g><path
       d="m 56.969,172.914 v -14.43 L 71.398,143.828 H 35.672 c -7.59,0 -13.992,-2.609 -19.203,-7.824 -5.215,-5.211 -7.824,-11.613 -7.824,-19.199 V 27.023 C 8.645,19.438 11.254,13.035 16.469,7.82 21.68,2.605 28.082,0 35.672,0 H 93.383 V 27.023 H 35.672 v 89.782 H 173.086 V 90.008 h 27.023 v 26.797 c 0,7.586 -2.605,13.988 -7.82,19.199 -5.215,5.215 -11.613,7.824 -19.203,7.824 h -35.727 l 14.426,14.656 v 14.43 z M 133.922,109.934 82.621,58.629 101.629,39.621 120.41,58.402 V 0 h 27.024 v 58.402 l 18.781,-18.781 19.008,19.008 z"
       style="fill:#4d4d4d;fill-opacity:1;fill-rule:nonzero;stroke:none"
       id="path32844" /></g></svg>
