<?xml version="1.0" encoding="UTF-8" standalone="no"?>
<!-- Created with Inkscape (http://www.inkscape.org/) -->

<svg
   width="122.42952mm"
   height="122.39991mm"
   viewBox="0 0 122.42952 122.39991"
   version="1.1"
   id="svg5"
   xml:space="preserve"
   xmlns:inkscape="http://www.inkscape.org/namespaces/inkscape"
   xmlns:sodipodi="http://sodipodi.sourceforge.net/DTD/sodipodi-0.dtd"
   xmlns:xlink="http://www.w3.org/1999/xlink"
   xmlns="http://www.w3.org/2000/svg"
   xmlns:svg="http://www.w3.org/2000/svg"><sodipodi:namedview
     id="namedview7"
     pagecolor="#ffffff"
     bordercolor="#000000"
     borderopacity="0.25"
     inkscape:showpageshadow="2"
     inkscape:pageopacity="0.0"
     inkscape:pagecheckerboard="0"
     inkscape:deskcolor="#d1d1d1"
     inkscape:document-units="mm"
     showgrid="false" /><defs
     id="defs2"><linearGradient
       inkscape:collect="always"
       id="linearGradient9991"><stop
         style="stop-color:#2ca02c;stop-opacity:1"
         offset="0"
         id="stop9987" /><stop
         style="stop-color:#afe9af;stop-opacity:1"
         offset="1"
         id="stop9989" /></linearGradient><linearGradient
       inkscape:collect="always"
       xlink:href="#linearGradient9991"
       id="linearGradient9993"
       x1="38.383476"
       y1="221.70691"
       x2="176.81567"
       y2="112.21963"
       gradientUnits="userSpaceOnUse"
       gradientTransform="translate(-3.27811,-6.063072)" /><linearGradient
       x1="23"
       y1="0.99999899"
       x2="1"
       y2="12"
       gradientUnits="userSpaceOnUse"
       gradientTransform="matrix(15.719399,0,0,15.719399,-15.719406,-15.719386)"
       spreadMethod="pad"
       id="linearGradient25612"><stop
         style="stop-opacity:1;stop-color:#87de87"
         offset="0"
         id="stop25608" /><stop
         style="stop-opacity:1;stop-color:#217821"
         offset="1"
         id="stop25610" /></linearGradient><linearGradient
       id="paint2_linear_24_221"
       x1="15.9286"
       y1="9.2238102"
       x2="6.5"
       y2="19.700001"
       gradientUnits="userSpaceOnUse"
       gradientTransform="matrix(5.5454545,0,0,5.5454545,186.60768,-21.040617)"><stop
         stop-color="#7A653E"
         stop-opacity="0"
         id="stop243" /><stop
         offset="1"
         stop-color="#7A653E"
         stop-opacity="0.45"
         id="stop245" /></linearGradient><linearGradient
       id="paint3_linear_24_221"
       x1="16.4786"
       y1="8.6999998"
       x2="7.0500002"
       y2="19.176201"
       gradientUnits="userSpaceOnUse"
       gradientTransform="matrix(5.5454545,0,0,5.5454545,188.59547,-18.594923)"><stop
         stop-color="#777777"
         id="stop248" /><stop
         offset="1"
         stop-color="#444444"
         id="stop250" /></linearGradient></defs><g
     inkscape:label="Camada 1"
     inkscape:groupmode="layer"
     id="layer1"
     transform="translate(-43.785237,-87.300039)"><g
       id="g437"
       transform="translate(3.0635574,6.292368)"><rect
         x="53.350994"
         y="93.207909"
         width="97.599998"
         height="97.599998"
         rx="24.4"
         fill="#fafafa"
         id="rect19687"
         style="stroke-width:5.54545"
         inkscape:export-filename="public-green.pdf"
         inkscape:export-xdpi="26.553411"
         inkscape:export-ydpi="26.553411" /><g
         id="g25596"
         transform="matrix(0.35277776,0,0,0.35277778,41.150778,81.007674)"><g
           id="g25598"><g
             id="g25600"><g
               id="g25606"><path
                 d="m 103.746,0 h 138.332 c 57.477,0 103.75,46.273 103.75,103.746 v 138.332 c 0,57.477 -46.273,103.75 -103.75,103.75 H 103.746 C 46.273,345.828 0,299.555 0,242.078 V 103.746 C 0,46.273 46.273,0 103.746,0 Z"
                 style="fill:url(#linearGradient25612);stroke:none"
                 id="path25614" /></g></g></g><path
           d="m 103.746,34.582 h 138.332 c 38.317,0 69.164,30.848 69.164,69.168 v 138.328 c 0,38.317 -30.847,69.164 -69.164,69.164 H 103.746 c -38.316,0 -69.164,-30.847 -69.164,-69.164 V 103.75 c 0,-38.32 30.848,-69.168 69.164,-69.168 z"
           style="fill:#fafafa;fill-opacity:1;fill-rule:nonzero;stroke:none"
           id="path25616" /></g><path
         d="m 40.72168,122.48779 c 0,-9.21209 7.4676,-16.6797 16.67969,-16.6797 h 23.19514 c 5.95876,0 11.7355,2.05176 16.358642,5.80991 4.624918,3.75778 10.401648,5.80989 16.361478,5.80989 h 32.72578 c 9.21209,0 16.67969,7.46725 16.67969,16.67968 v 32.70074 c 0,20.2131 -16.38618,36.59928 -36.60069,36.59928 H 77.32096 c -20.2131,0 -36.59928,-16.38618 -36.59928,-36.59928 z"
         style="fill:url(#linearGradient9993);fill-opacity:1;fill-rule:nonzero;stroke:none;stroke-width:0.352778"
         id="path8489" /></g><g
       id="g427"
       transform="translate(-147.36167,105.44736)"><path
         d="m 249.85913,58.284891 c 6.94679,0 12.92424,-6.2037 12.92424,-14.281763 0,-7.980465 -6.00961,-13.893525 -12.92424,-13.893525 -6.91462,0 -12.92462,6.04227 -12.92462,13.958407 0,8.013181 6.01,14.216881 12.92462,14.216881 z m -20.29148,29.919946 h 40.58286 c 5.07242,0 6.88191,-1.454019 6.88191,-4.297173 0,-8.336482 -10.43655,-19.839418 -27.17329,-19.839418 -16.76956,0 -27.206,11.502936 -27.206,19.839418 0,2.843154 1.80926,4.297173 6.91452,4.297173 z"
         fill="url(#paint2_linear_24_221)"
         fill-opacity="0.65"
         id="path229"
         style="fill:url(#paint2_linear_24_221);stroke-width:5.54545" /><path
         d="m 254.89692,57.825876 c 6.94679,0 12.92424,-6.2037 12.92424,-14.281763 0,-7.980736 -6.00961,-13.893586 -12.92424,-13.893586 -6.91462,0 -12.92462,6.04217 -12.92462,13.958468 0,8.013181 6.01,14.216881 12.92462,14.216881 z m -20.29148,29.919949 h 40.58286 c 5.07242,0 6.88191,-1.45402 6.88191,-4.297176 0,-8.336482 -10.43655,-19.839418 -27.17329,-19.839418 -16.76956,0 -27.206,11.502936 -27.206,19.839418 0,2.843156 1.80926,4.297176 6.91452,4.297176 z"
         fill="url(#paint3_linear_24_221)"
         id="path231"
         style="fill:url(#paint3_linear_24_221);stroke-width:5.54545" /></g></g></svg>
