<?xml version="1.0" encoding="UTF-8" standalone="no"?>
<!-- Created with Inkscape (http://www.inkscape.org/) -->

<svg
   width="122.42953mm"
   height="122.39994mm"
   viewBox="0 0 122.42953 122.39994"
   version="1.1"
   id="svg2972"
   xml:space="preserve"
   xmlns:inkscape="http://www.inkscape.org/namespaces/inkscape"
   xmlns:sodipodi="http://sodipodi.sourceforge.net/DTD/sodipodi-0.dtd"
   xmlns:xlink="http://www.w3.org/1999/xlink"
   xmlns="http://www.w3.org/2000/svg"
   xmlns:svg="http://www.w3.org/2000/svg"><sodipodi:namedview
     id="namedview2974"
     pagecolor="#ffffff"
     bordercolor="#000000"
     borderopacity="0.25"
     inkscape:showpageshadow="2"
     inkscape:pageopacity="0.0"
     inkscape:pagecheckerboard="0"
     inkscape:deskcolor="#d1d1d1"
     inkscape:document-units="mm"
     showgrid="false" /><defs
     id="defs2969"><linearGradient
       x1="8.9511003"
       y1="15.5956"
       x2="14.0675"
       y2="15.5956"
       gradientUnits="userSpaceOnUse"
       spreadMethod="pad"
       id="linearGradient4097"><stop
         style="stop-opacity:1;stop-color:#ffffff"
         offset="0"
         id="stop4093" /><stop
         style="stop-opacity:0;stop-color:#ffffff"
         offset="1"
         id="stop4095" /></linearGradient><linearGradient
       x1="11.971"
       y1="16.0534"
       x2="11.279"
       y2="16.0534"
       gradientUnits="userSpaceOnUse"
       spreadMethod="pad"
       id="linearGradient4129"><stop
         style="stop-opacity:1;stop-color:#ffffff"
         offset="0"
         id="stop4125" /><stop
         style="stop-opacity:0;stop-color:#ffffff"
         offset="1"
         id="stop4127" /></linearGradient><linearGradient
       x1="9.4511003"
       y1="15.0956"
       x2="14.5675"
       y2="15.0956"
       gradientUnits="userSpaceOnUse"
       spreadMethod="pad"
       id="linearGradient4285"><stop
         style="stop-opacity:1;stop-color:#ffffff"
         offset="0"
         id="stop4281" /><stop
         style="stop-opacity:0;stop-color:#ffffff"
         offset="1"
         id="stop4283" /></linearGradient><linearGradient
       x1="12.471"
       y1="15.5534"
       x2="11.779"
       y2="15.5534"
       gradientUnits="userSpaceOnUse"
       spreadMethod="pad"
       id="linearGradient4325"><stop
         style="stop-opacity:1;stop-color:#ffffff"
         offset="0"
         id="stop4321" /><stop
         style="stop-opacity:0;stop-color:#ffffff"
         offset="1"
         id="stop4323" /></linearGradient><linearGradient
       inkscape:collect="always"
       id="linearGradient9991"><stop
         style="stop-color:#2ca02c;stop-opacity:1"
         offset="0"
         id="stop9987" /><stop
         style="stop-color:#afe9af;stop-opacity:1"
         offset="1"
         id="stop9989" /></linearGradient><linearGradient
       inkscape:collect="always"
       xlink:href="#linearGradient9991"
       id="linearGradient9993"
       x1="38.383476"
       y1="221.70691"
       x2="176.81567"
       y2="112.21963"
       gradientUnits="userSpaceOnUse"
       gradientTransform="translate(-43.999786,-87.070743)" /><linearGradient
       x1="23"
       y1="0.99999899"
       x2="1"
       y2="12"
       gradientUnits="userSpaceOnUse"
       gradientTransform="matrix(15.719399,0,0,15.719399,-15.719406,-15.719386)"
       spreadMethod="pad"
       id="linearGradient25612"><stop
         style="stop-opacity:1;stop-color:#87de87"
         offset="0"
         id="stop25608" /><stop
         style="stop-opacity:1;stop-color:#217821"
         offset="1"
         id="stop25610" /></linearGradient><clipPath
       clipPathUnits="userSpaceOnUse"
       id="clipPath29214"><path
         d="M 0,0 H 228 V 189 H 0 Z"
         id="path29212" /></clipPath><linearGradient
       x1="11.0823"
       y1="10.0859"
       x2="11.0823"
       y2="15.903"
       gradientUnits="userSpaceOnUse"
       gradientTransform="matrix(15.719399,0,0,15.719399,-70.737307,-133.61493)"
       spreadMethod="pad"
       id="linearGradient29224"><stop
         style="stop-opacity:1;stop-color:#4285db"
         offset="0"
         id="stop29220" /><stop
         style="stop-opacity:1;stop-color:#42b9db"
         offset="1"
         id="stop29222" /></linearGradient><clipPath
       clipPathUnits="userSpaceOnUse"
       id="clipPath29228"><path
         d="M 0,0 H 228 V 189 H 0 Z"
         id="path29226" /></clipPath><clipPath
       clipPathUnits="userSpaceOnUse"
       id="clipPath29232"><path
         d="m 69.973,131.609 12.265,-40.144 68.164,40.144 z"
         id="path29230" /></clipPath><clipPath
       clipPathUnits="userSpaceOnUse"
       id="clipPath29236"><path
         d="m 8.889482,14.289028 h 5.216484 V 16.89727 H 8.889482 Z"
         id="path29234" /></clipPath><mask
       maskUnits="userSpaceOnUse"
       x="0"
       y="0"
       width="1"
       height="1"
       id="mask29244"><g
         id="g29250"><g
           clip-path="url(#clipPath29236)"
           id="g29248"><path
             d="m 8.889482,14.289028 h 5.216484 V 16.89727 H 8.889482 Z"
             style="fill:url(#linearGradient4097);stroke:none"
             id="path29246" /></g></g></mask><linearGradient
       x1="8.9511003"
       y1="15.5956"
       x2="14.0675"
       y2="15.5956"
       gradientUnits="userSpaceOnUse"
       spreadMethod="pad"
       id="linearGradient29256"><stop
         style="stop-opacity:1;stop-color:#fafbfb"
         offset="0"
         id="stop29252" /><stop
         style="stop-opacity:1;stop-color:#fafbfb"
         offset="1"
         id="stop29254" /></linearGradient><clipPath
       clipPathUnits="userSpaceOnUse"
       id="clipPath29260"><path
         d="M 0,0 H 228 V 189 H 0 Z"
         id="path29258" /></clipPath><clipPath
       clipPathUnits="userSpaceOnUse"
       id="clipPath29264"><path
         d="m 113.496,109.879 v 21.73 h 3.957 v -19.398 z"
         id="path29262" /></clipPath><clipPath
       clipPathUnits="userSpaceOnUse"
       id="clipPath29268"><path
         d="m 11.688571,15.43411 h 0.318078 v 1.46316 h -0.318078 z"
         id="path29266" /></clipPath><mask
       maskUnits="userSpaceOnUse"
       x="0"
       y="0"
       width="1"
       height="1"
       id="mask29276"><g
         id="g29282"><g
           clip-path="url(#clipPath29268)"
           id="g29280"><path
             d="m 11.688571,15.43411 h 0.318078 v 1.46316 h -0.318078 z"
             style="fill:url(#linearGradient4129);stroke:none"
             id="path29278" /></g></g></mask><linearGradient
       x1="11.971"
       y1="16.0534"
       x2="11.279"
       y2="16.0534"
       gradientUnits="userSpaceOnUse"
       spreadMethod="pad"
       id="linearGradient29288"><stop
         style="stop-opacity:1;stop-color:#000000"
         offset="0"
         id="stop29284" /><stop
         style="stop-opacity:1;stop-color:#000000"
         offset="1"
         id="stop29286" /></linearGradient><linearGradient
       x1="11.5823"
       y1="9.5859098"
       x2="11.5823"
       y2="15.403"
       gradientUnits="userSpaceOnUse"
       gradientTransform="matrix(15.719399,0,0,15.719399,-70.737307,-133.61493)"
       spreadMethod="pad"
       id="linearGradient29382"><stop
         style="stop-opacity:1;stop-color:#4285db"
         offset="0"
         id="stop29378" /><stop
         style="stop-opacity:1;stop-color:#42b9db"
         offset="1"
         id="stop29380" /></linearGradient><clipPath
       clipPathUnits="userSpaceOnUse"
       id="clipPath29394"><path
         d="M 0,0 H 228 V 189 H 0 Z"
         id="path29392" /></clipPath><clipPath
       clipPathUnits="userSpaceOnUse"
       id="clipPath29416"><path
         d="M 77.832,123.75 90.098,83.605 158.262,123.75 Z"
         id="path29414" /></clipPath><clipPath
       clipPathUnits="userSpaceOnUse"
       id="clipPath29424"><path
         d="m 9.398407,13.780103 h 5.216485 v 2.608242 H 9.398407 Z"
         id="path29422" /></clipPath><mask
       maskUnits="userSpaceOnUse"
       x="0"
       y="0"
       width="1"
       height="1"
       id="mask29432"><g
         id="g29438"><g
           clip-path="url(#clipPath29424)"
           id="g29436"><path
             d="m 9.398407,13.780103 h 5.216485 v 2.608242 H 9.398407 Z"
             style="fill:url(#linearGradient4285);stroke:none"
             id="path29434" /></g></g></mask><linearGradient
       x1="9.4511003"
       y1="15.0956"
       x2="14.5675"
       y2="15.0956"
       gradientUnits="userSpaceOnUse"
       spreadMethod="pad"
       id="linearGradient29446"><stop
         style="stop-opacity:1;stop-color:#fafbfb"
         offset="0"
         id="stop29442" /><stop
         style="stop-opacity:1;stop-color:#fafbfb"
         offset="1"
         id="stop29444" /></linearGradient><clipPath
       clipPathUnits="userSpaceOnUse"
       id="clipPath29456"><path
         d="M 0,0 H 228 V 189 H 0 Z"
         id="path29454" /></clipPath><clipPath
       clipPathUnits="userSpaceOnUse"
       id="clipPath29460"><path
         d="m 121.355,102.016 v 21.734 h 3.957 v -19.398 z"
         id="path29458" /></clipPath><clipPath
       clipPathUnits="userSpaceOnUse"
       id="clipPath29464"><path
         d="m 12.197496,14.988801 h 0.318079 v 1.399544 h -0.318079 z"
         id="path29462" /></clipPath><mask
       maskUnits="userSpaceOnUse"
       x="0"
       y="0"
       width="1"
       height="1"
       id="mask29472"><g
         id="g29478"><g
           clip-path="url(#clipPath29464)"
           id="g29476"><path
             d="m 12.197496,14.988801 h 0.318079 v 1.399544 h -0.318079 z"
             style="fill:url(#linearGradient4325);stroke:none"
             id="path29474" /></g></g></mask><linearGradient
       x1="12.471"
       y1="15.5534"
       x2="11.779"
       y2="15.5534"
       gradientUnits="userSpaceOnUse"
       spreadMethod="pad"
       id="linearGradient29484"><stop
         style="stop-opacity:1;stop-color:#000000"
         offset="0"
         id="stop29480" /><stop
         style="stop-opacity:1;stop-color:#000000"
         offset="1"
         id="stop29482" /></linearGradient><linearGradient
       x1="19"
       y1="8.5"
       x2="5.85918"
       y2="20.601801"
       gradientUnits="userSpaceOnUse"
       gradientTransform="matrix(15.719399,0,0,15.719399,-70.737307,-133.61493)"
       spreadMethod="pad"
       id="linearGradient29518"><stop
         style="stop-opacity:1;stop-color:#777777"
         offset="0"
         id="stop29514" /><stop
         style="stop-opacity:1;stop-color:#333333"
         offset="1"
         id="stop29516" /></linearGradient></defs><rect
     x="12.629317"
     y="12.200236"
     width="97.599998"
     height="97.599998"
     rx="24.4"
     fill="#fafafa"
     id="rect19687"
     style="stroke-width:5.54545"
     inkscape:export-filename="desktop-green.svg"
     inkscape:export-xdpi="26.553411"
     inkscape:export-ydpi="26.553411" /><g
     id="g25596"
     transform="matrix(0.35277776,0,0,0.35277778,0.42910166,2.7249241e-6)"><g
       id="g25598"><g
         id="g25600"><g
           id="g25606"><path
             d="m 103.746,0 h 138.332 c 57.477,0 103.75,46.273 103.75,103.746 v 138.332 c 0,57.477 -46.273,103.75 -103.75,103.75 H 103.746 C 46.273,345.828 0,299.555 0,242.078 V 103.746 C 0,46.273 46.273,0 103.746,0 Z"
             style="fill:url(#linearGradient25612);stroke:none"
             id="path25614" /></g></g></g><path
       d="m 103.746,34.582 h 138.332 c 38.317,0 69.164,30.848 69.164,69.168 v 138.328 c 0,38.317 -30.847,69.164 -69.164,69.164 H 103.746 c -38.316,0 -69.164,-30.847 -69.164,-69.164 V 103.75 c 0,-38.32 30.848,-69.168 69.164,-69.168 z"
       style="fill:#fafafa;fill-opacity:1;fill-rule:nonzero;stroke:none"
       id="path25616" /></g><path
     d="m 3.6571376e-6,41.480114 c 0,-9.21209 7.4676000428624,-16.6797 16.6796903428624,-16.6797 h 23.19514 c 5.95876,0 11.7355,2.05176 16.358642,5.80991 4.624917,3.75778 10.401647,5.80989 16.361477,5.80989 h 32.725777 c 9.21209,0 16.67969,7.46725 16.67969,16.67969 v 32.70074 c 0,20.213096 -16.38618,36.599276 -36.600687,36.599276 H 36.599284 C 16.386184,122.39992 3.6571376e-6,106.01374 3.6571376e-6,85.800644 Z"
     style="fill:url(#linearGradient9993);fill-opacity:1;fill-rule:nonzero;stroke:none;stroke-width:0.352778"
     id="path8489" /><g
     id="g29206"
     transform="matrix(0.35277776,0,0,0.35277778,21.224998,49.541104)"><g
       id="g29208"><g
         id="g29210" /><g
         id="g29362"><g
           clip-path="url(#clipPath29214)"
           opacity="0.25"
           id="g29360"><g
             id="g29358"><path
               d="m 72.496,188.633 c -3.293,0 -5.961,-2.672 -5.961,-5.965 v -18.555 c 0,-3.297 2.668,-5.965 5.961,-5.965 h 6.754 c 3.293,0 5.965,-2.671 5.965,-5.964 v -5.457 c 0,-3.297 -2.672,-5.969 -5.965,-5.969 H 32.754 c -9.18,0 -16.938,-2.942 -23.262,-8.832 C 3.164,126.039 0,118.82 0,110.273 V 38.348 C 0,29.801 3.164,22.582 9.492,16.691 15.816,10.805 23.574,7.859 32.754,7.859 h 154.562 c 9.184,0 16.938,2.946 23.266,8.832 6.324,5.891 9.488,13.11 9.488,21.657 v 71.925 c 0,8.547 -3.164,15.766 -9.488,21.653 -6.328,5.89 -14.082,8.832 -23.266,8.832 H 140.82 c -3.293,0 -5.961,2.672 -5.961,5.969 v 5.457 c 0,3.293 2.668,5.964 5.961,5.964 h 6.754 c 3.293,0 5.965,2.668 5.965,5.965 v 18.555 c 0,3.293 -2.672,5.965 -5.965,5.965 z"
               style="fill:#3c9bce;fill-opacity:1;fill-rule:nonzero;stroke:none"
               id="path29290" /><path
               d="M 191.906,12.738 H 28.164 c -9.043,0 -16.375,6.821 -16.375,15.239 v 91.441 c 0,8.418 7.332,15.242 16.375,15.242 h 163.742 c 9.043,0 16.375,-6.824 16.375,-15.242 V 27.977 c 0,-8.418 -7.332,-15.239 -16.375,-15.239 z"
               style="fill:#4d4d4d;fill-opacity:1;fill-rule:nonzero;stroke:none"
               id="path29292" /><g
               id="g29300"><g
                 id="g29298"><g
                   id="g29296"><path
                     d="M 191.906,15.785 H 28.164 c -7.234,0 -13.102,5.363 -13.102,11.981 v 91.863 c 0,6.617 5.868,11.98 13.102,11.98 h 163.742 c 7.239,0 13.102,-5.363 13.102,-11.98 V 27.766 c 0,-6.618 -5.863,-11.981 -13.102,-11.981 z"
                     style="fill:url(#linearGradient29224);stroke:none"
                     id="path29294" /></g></g></g><path
               d="m 85.797,120.562 47.488,-47.878 39.57,47.878 z"
               style="fill:#1a1a1a;fill-opacity:1;fill-rule:nonzero;stroke:none"
               id="path29302" /><g
               id="g29314"><g
                 id="g29304" /><g
                 id="g29312"><g
                   clip-path="url(#clipPath29228)"
                   opacity="0.9"
                   id="g29310"><g
                     id="g29308"><path
                       d="m 82.238,91.461 -62.445,37.328 c 2.273,1.734 5.164,2.82 8.375,2.82 h 122.23 z"
                       style="fill:#e6e6e6;fill-opacity:1;fill-rule:nonzero;stroke:none"
                       id="path29306" /></g></g></g></g><path
               d="m 69.973,131.609 12.265,-40.144 68.164,40.144 z"
               style="fill:#fafbfb;fill-opacity:1;fill-rule:nonzero;stroke:none"
               id="path29316" /><path
               d="m 133.289,69 -15.832,15.652 v 46.957 h 74.449 c 3.582,0 6.813,-1.308 9.172,-3.429 z"
               style="fill:#b0b2b5;fill-opacity:1;fill-rule:nonzero;stroke:none"
               id="path29318" /><path
               d="m 133.281,68.992 19.789,62.617 h 38.836 c 3.582,0 6.813,-1.308 9.172,-3.429 z"
               style="fill:#ffffff;fill-opacity:1;fill-rule:nonzero;stroke:none"
               id="path29320" /><g
               id="g29332"><g
                 clip-path="url(#clipPath29232)"
                 id="g29330"><g
                   transform="matrix(15.719399,0,0,15.719399,-70.737307,-133.61493)"
                   id="g29328"><g
                     id="g29322" /><g
                     mask="url(#mask29244)"
                     id="g29326"><path
                       d="m 69.973,131.609 12.265,-40.144 68.164,40.144 z"
                       style="fill:url(#linearGradient29256);stroke:none"
                       id="path29324" /></g></g></g></g><g
               id="g29354"><g
                 id="g29334" /><g
                 id="g29352"><g
                   clip-path="url(#clipPath29260)"
                   opacity="0.35"
                   id="g29350"><g
                     id="g29348"><g
                       id="g29346"><g
                         clip-path="url(#clipPath29264)"
                         id="g29344"><g
                           transform="matrix(15.719399,0,0,15.719399,-70.737307,-133.61493)"
                           id="g29342"><g
                             id="g29336" /><g
                             mask="url(#mask29276)"
                             id="g29340"><path
                               d="m 113.496,109.879 v 21.73 h 3.957 v -19.398 z"
                               style="fill:url(#linearGradient29288);stroke:none"
                               id="path29338" /></g></g></g></g></g></g></g></g><path
               d="m 20.199,28.199 c 3.227,-3 7.074,-4.621 12.555,-4.621 h 154.562 c 5.481,0 9.332,1.621 12.555,4.621 3.172,2.953 4.481,6.02 4.481,10.149 v 71.925 c 0,4.125 -1.309,7.192 -4.481,10.149 -3.223,3 -7.074,4.617 -12.555,4.617 h -45.843 v -0.07 H 78.598 v 0.07 H 32.754 c -5.481,0 -9.328,-1.617 -12.555,-4.617 -3.172,-2.957 -4.48,-6.024 -4.48,-10.149 V 38.348 c 0,-4.129 1.308,-7.196 4.48,-10.149 z M 93.988,130.82 c 0.11,0.102 0.219,0.207 0.328,0.313 v -0.313 z m 31.766,0 v 0.313 c 0.109,-0.106 0.219,-0.211 0.328,-0.313 z m -53.258,57.813 c -3.293,0 -5.961,-2.672 -5.961,-5.965 v -18.555 c 0,-3.297 2.668,-5.965 5.961,-5.965 h 6.754 c 3.293,0 5.965,-2.671 5.965,-5.964 v -5.457 c 0,-3.297 -2.672,-5.969 -5.965,-5.969 H 32.754 c -9.18,0 -16.938,-2.942 -23.262,-8.832 C 3.164,126.039 0,118.82 0,110.273 V 38.348 C 0,29.801 3.164,22.582 9.492,16.691 15.816,10.805 23.574,7.859 32.754,7.859 h 154.562 c 9.184,0 16.938,2.946 23.266,8.832 6.324,5.891 9.488,13.11 9.488,21.657 v 71.925 c 0,8.547 -3.164,15.766 -9.488,21.653 -6.328,5.89 -14.082,8.832 -23.266,8.832 H 140.82 c -3.293,0 -5.961,2.672 -5.961,5.969 v 5.457 c 0,3.293 2.668,5.964 5.961,5.964 h 6.754 c 3.293,0 5.965,2.668 5.965,5.965 v 18.555 c 0,3.293 -2.672,5.965 -5.965,5.965 z"
               style="fill:#6f5c38;fill-opacity:1;fill-rule:evenodd;stroke:none"
               id="path29356" /></g></g></g></g><path
       d="m 80.359,180.773 c -3.297,0 -5.964,-2.671 -5.964,-5.964 v -18.555 c 0,-3.297 2.667,-5.969 5.964,-5.969 h 6.75 c 3.293,0 5.965,-2.668 5.965,-5.961 v -5.461 c 0,-3.293 -2.672,-5.965 -5.965,-5.965 H 40.613 c -9.179,0 -16.937,-2.941 -23.261,-8.832 -6.329,-5.886 -9.493,-13.105 -9.493,-21.652 v -71.93 c 0,-8.543 3.164,-15.761 9.493,-21.652 C 23.676,2.945 31.434,0 40.613,0 h 154.563 c 9.183,0 16.937,2.945 23.265,8.832 6.325,5.891 9.489,13.109 9.489,21.652 v 71.93 c 0,8.547 -3.164,15.766 -9.489,21.652 -6.328,5.891 -14.082,8.832 -23.265,8.832 h -46.492 c -3.293,0 -5.965,2.672 -5.965,5.965 v 5.461 c 0,3.293 2.672,5.961 5.965,5.961 h 6.75 c 3.293,0 5.964,2.672 5.964,5.969 v 18.555 c 0,3.293 -2.671,5.964 -5.964,5.964 z"
       style="fill:#3c9bce;fill-opacity:1;fill-rule:nonzero;stroke:none"
       id="path29364" /><path
       d="M 199.766,4.875 H 36.023 c -9.043,0 -16.375,6.824 -16.375,15.242 v 91.442 c 0,8.418 7.332,15.242 16.375,15.242 h 163.743 c 9.043,0 16.375,-6.824 16.375,-15.242 V 20.117 c 0,-8.418 -7.332,-15.242 -16.375,-15.242 z"
       style="fill:#4d4d4d;fill-opacity:1;fill-rule:nonzero;stroke:none"
       id="path29366" /><g
       id="g29368"><g
         id="g29370"><g
           id="g29376"><path
             d="M 199.766,7.926 H 36.023 c -7.234,0 -13.097,5.363 -13.097,11.98 v 91.864 c 0,6.617 5.863,11.98 13.097,11.98 h 163.743 c 7.238,0 13.101,-5.363 13.101,-11.98 V 19.906 c 0,-6.617 -5.863,-11.98 -13.101,-11.98 z"
             style="fill:url(#linearGradient29382);stroke:none"
             id="path29384" /></g></g></g><path
       d="m 93.656,112.703 47.489,-47.883 39.57,47.883 z"
       style="fill:#1a1a1a;fill-opacity:1;fill-rule:nonzero;stroke:none"
       id="path29386" /><g
       id="g29388"><g
         id="g29390" /><g
         id="g29402"><g
           clip-path="url(#clipPath29394)"
           opacity="0.9"
           id="g29400"><g
             id="g29398"><path
               d="m 90.098,83.602 -62.446,37.324 c 2.274,1.738 5.164,2.824 8.375,2.824 h 122.231 z"
               style="fill:#e6e6e6;fill-opacity:1;fill-rule:nonzero;stroke:none"
               id="path29396" /></g></g></g></g><path
       d="M 77.832,123.75 90.098,83.605 158.262,123.75 Z"
       style="fill:#fafbfb;fill-opacity:1;fill-rule:nonzero;stroke:none"
       id="path29404" /><path
       d="m 141.148,61.141 -15.832,15.652 v 46.957 h 74.45 c 3.582,0 6.812,-1.309 9.172,-3.43 z"
       style="fill:#b0b2b5;fill-opacity:1;fill-rule:nonzero;stroke:none"
       id="path29406" /><path
       d="m 141.141,61.133 19.789,62.617 h 38.836 c 3.582,0 6.812,-1.309 9.172,-3.43 z"
       style="fill:#ffffff;fill-opacity:1;fill-rule:nonzero;stroke:none"
       id="path29408" /><g
       id="g29410"><g
         id="g29412"
         clip-path="url(#clipPath29416)"><g
           id="g29418"
           transform="matrix(15.719399,0,0,15.719399,-70.737307,-133.61493)"><g
             id="g29420" /><g
             id="g29440"
             mask="url(#mask29432)"><path
               d="M 77.832,123.75 90.098,83.605 158.262,123.75 Z"
               style="fill:url(#linearGradient29446);stroke:none"
               id="path29448" /></g></g></g></g><g
       id="g29450"><g
         id="g29452" /><g
         id="g29502"><g
           clip-path="url(#clipPath29456)"
           opacity="0.35"
           id="g29500"><g
             id="g29498"><g
               id="g29496"><g
                 clip-path="url(#clipPath29460)"
                 id="g29494"><g
                   transform="matrix(15.719399,0,0,15.719399,-70.737307,-133.61493)"
                   id="g29492"><g
                     id="g29486" /><g
                     mask="url(#mask29472)"
                     id="g29490"><path
                       d="m 121.355,102.016 v 21.734 h 3.957 v -19.398 z"
                       style="fill:url(#linearGradient29484);stroke:none"
                       id="path29488" /></g></g></g></g></g></g></g></g><g
       id="g29504"><g
         id="g29506"><g
           id="g29512"><path
             d="m 28.059,20.34 c 3.226,-3 7.074,-4.621 12.554,-4.621 h 154.563 c 5.48,0 9.332,1.621 12.554,4.621 3.172,2.953 4.481,6.019 4.481,10.144 v 71.93 c 0,4.125 -1.309,7.191 -4.481,10.145 -3.222,3.003 -7.074,4.621 -12.554,4.621 h -45.84 v -0.071 H 86.457 v 0.071 H 40.613 c -5.48,0 -9.328,-1.618 -12.554,-4.621 -3.172,-2.954 -4.481,-6.02 -4.481,-10.145 v -71.93 c 0,-4.125 1.309,-7.191 4.481,-10.144 z m 73.789,102.621 c 0.113,0.101 0.218,0.207 0.328,0.309 v -0.309 z m 31.765,0 v 0.309 c 0.11,-0.102 0.219,-0.208 0.328,-0.309 z m -53.254,57.812 c -3.297,0 -5.964,-2.671 -5.964,-5.964 v -18.555 c 0,-3.297 2.667,-5.969 5.964,-5.969 h 6.75 c 3.293,0 5.965,-2.668 5.965,-5.961 v -5.461 c 0,-3.293 -2.672,-5.965 -5.965,-5.965 H 40.613 c -9.179,0 -16.937,-2.941 -23.261,-8.832 -6.329,-5.886 -9.493,-13.105 -9.493,-21.652 v -71.93 c 0,-8.543 3.164,-15.761 9.493,-21.652 C 23.676,2.945 31.434,0 40.613,0 h 154.563 c 9.183,0 16.937,2.945 23.265,8.832 6.325,5.891 9.489,13.109 9.489,21.652 v 71.93 c 0,8.547 -3.164,15.766 -9.489,21.652 -6.328,5.891 -14.082,8.832 -23.265,8.832 h -46.492 c -3.293,0 -5.965,2.672 -5.965,5.965 v 5.461 c 0,3.293 2.672,5.961 5.965,5.961 h 6.75 c 3.293,0 5.964,2.672 5.964,5.969 v 18.555 c 0,3.293 -2.671,5.964 -5.964,5.964 z"
             style="fill:url(#linearGradient29518);fill-rule:evenodd;stroke:none"
             id="path29520" /></g></g></g></g></svg>
