<?xml version="1.0" encoding="UTF-8" standalone="no"?>
<!-- Created with Inkscape (http://www.inkscape.org/) -->

<svg
   width="122.42953mm"
   height="122.39994mm"
   viewBox="0 0 122.42953 122.39994"
   version="1.1"
   id="svg2972"
   xml:space="preserve"
   xmlns:inkscape="http://www.inkscape.org/namespaces/inkscape"
   xmlns:sodipodi="http://sodipodi.sourceforge.net/DTD/sodipodi-0.dtd"
   xmlns:xlink="http://www.w3.org/1999/xlink"
   xmlns="http://www.w3.org/2000/svg"
   xmlns:svg="http://www.w3.org/2000/svg"><sodipodi:namedview
     id="namedview2974"
     pagecolor="#ffffff"
     bordercolor="#000000"
     borderopacity="0.25"
     inkscape:showpageshadow="2"
     inkscape:pageopacity="0.0"
     inkscape:pagecheckerboard="0"
     inkscape:deskcolor="#d1d1d1"
     inkscape:document-units="mm"
     showgrid="false" /><defs
     id="defs2969"><linearGradient
       inkscape:collect="always"
       id="linearGradient9991"><stop
         style="stop-color:#2ca02c;stop-opacity:1"
         offset="0"
         id="stop9987" /><stop
         style="stop-color:#afe9af;stop-opacity:1"
         offset="1"
         id="stop9989" /></linearGradient><linearGradient
       inkscape:collect="always"
       xlink:href="#linearGradient9991"
       id="linearGradient9993"
       x1="38.383476"
       y1="221.70691"
       x2="176.81567"
       y2="112.21963"
       gradientUnits="userSpaceOnUse"
       gradientTransform="translate(-43.999786,-87.070743)" /><linearGradient
       x1="23"
       y1="0.99999899"
       x2="1"
       y2="12"
       gradientUnits="userSpaceOnUse"
       gradientTransform="matrix(15.719399,0,0,15.719399,-15.719406,-15.719386)"
       spreadMethod="pad"
       id="linearGradient25612"><stop
         style="stop-opacity:1;stop-color:#87de87"
         offset="0"
         id="stop25608" /><stop
         style="stop-opacity:1;stop-color:#217821"
         offset="1"
         id="stop25610" /></linearGradient></defs><rect
     x="12.629317"
     y="12.200236"
     width="97.599998"
     height="97.599998"
     rx="24.4"
     fill="#fafafa"
     id="rect19687"
     style="stroke-width:5.54545"
     inkscape:export-filename="public-green.pdf"
     inkscape:export-xdpi="26.553411"
     inkscape:export-ydpi="26.553411" /><g
     id="g25596"
     transform="matrix(0.35277776,0,0,0.35277778,0.42910166,2.7249241e-6)"><g
       id="g25598"><g
         id="g25600"><g
           id="g25606"><path
             d="m 103.746,0 h 138.332 c 57.477,0 103.75,46.273 103.75,103.746 v 138.332 c 0,57.477 -46.273,103.75 -103.75,103.75 H 103.746 C 46.273,345.828 0,299.555 0,242.078 V 103.746 C 0,46.273 46.273,0 103.746,0 Z"
             style="fill:url(#linearGradient25612);stroke:none"
             id="path25614" /></g></g></g><path
       d="m 103.746,34.582 h 138.332 c 38.317,0 69.164,30.848 69.164,69.168 v 138.328 c 0,38.317 -30.847,69.164 -69.164,69.164 H 103.746 c -38.316,0 -69.164,-30.847 -69.164,-69.164 V 103.75 c 0,-38.32 30.848,-69.168 69.164,-69.168 z"
       style="fill:#fafafa;fill-opacity:1;fill-rule:nonzero;stroke:none"
       id="path25616" /></g><path
     d="m 3.6571376e-6,41.480114 c 0,-9.21209 7.4676000428624,-16.6797 16.6796903428624,-16.6797 h 23.19514 c 5.95876,0 11.7355,2.05176 16.358642,5.80991 4.624917,3.75778 10.401647,5.80989 16.361477,5.80989 h 32.725777 c 9.21209,0 16.67969,7.46725 16.67969,16.67969 v 32.70074 c 0,20.213096 -16.38618,36.599276 -36.600687,36.599276 H 36.599284 C 16.386184,122.39992 3.6571376e-6,106.01374 3.6571376e-6,85.800644 Z"
     style="fill:url(#linearGradient9993);fill-opacity:1;fill-rule:nonzero;stroke:none;stroke-width:0.352778"
     id="path8489" /><g
     id="g43713"
     transform="matrix(0.35277776,0,0,0.35277778,23.304447,50.430994)"><path
       d="m 143.48,75.02 c 16.368,0 30.446,-14.614 30.446,-33.645 0,-18.801 -14.156,-32.73 -30.446,-32.73 -16.289,0 -30.445,14.234 -30.445,32.882 0,18.879 14.082,33.493 30.445,33.493 z m -87.609,1.75 c 14.156,0 26.488,-12.786 26.488,-29.305 0,-16.363 -12.406,-28.469 -26.488,-28.469 -14.16,0 -26.641,12.406 -26.566,28.621 0,16.367 12.332,29.153 26.566,29.153 z M 13.395,145.504 H 71.246 C 63.328,134.012 72.996,110.871 89.363,98.234 80.914,92.602 70.027,88.418 55.793,88.418 21.465,88.418 0,113.762 0,134.848 c 0,6.851 3.805,10.656 13.395,10.656 z m 82.21,0 h 95.676 c 11.953,0 16.215,-3.426 16.215,-10.125 0,-19.637 -24.586,-46.734 -64.09,-46.734 -39.429,0 -64.015,27.097 -64.015,46.734 0,6.699 4.261,10.125 16.214,10.125 z"
       style="fill:#4d4d4d;fill-opacity:0.5;fill-rule:nonzero;stroke:none"
       id="path43715" /><path
       d="m 152.125,66.375 c 16.367,0 30.449,-14.617 30.449,-33.645 C 182.574,13.93 168.414,0 152.125,0 135.836,0 121.68,14.234 121.68,32.883 c 0,18.875 14.082,33.492 30.445,33.492 z m -87.609,1.75 c 14.156,0 26.488,-12.789 26.488,-29.305 0,-16.363 -12.406,-28.468 -26.488,-28.468 -14.157,0 -26.641,12.406 -26.567,28.621 0,16.363 12.332,29.152 26.567,29.152 z m -42.473,68.734 h 57.848 c -7.914,-11.492 1.75,-34.632 18.117,-47.269 -8.449,-5.633 -19.336,-9.82 -33.567,-9.82 -34.332,0 -55.796,25.347 -55.796,46.433 0,6.848 3.808,10.656 13.398,10.656 z m 82.207,0 h 95.676 c 11.953,0 16.215,-3.425 16.215,-10.125 0,-19.636 -24.586,-46.734 -64.09,-46.734 -39.43,0 -64.016,27.098 -64.016,46.734 0,6.7 4.262,10.125 16.215,10.125 z"
       style="fill:#4d4d4d;fill-opacity:1;fill-rule:nonzero;stroke:none"
       id="path43717" /></g></svg>
