<svg width="24" height="24" viewBox="0 0 24 24" fill="none" xmlns="http://www.w3.org/2000/svg">
<rect x="1" y="1" width="22" height="22" rx="6.6" fill="url(#paint0_linear_201_104)"/>
<rect x="3.2" y="3.2" width="17.6" height="17.6" rx="4.4" fill="#FAFAFA"/>
<path opacity="0.85" d="M1 8.00781C1 6.34664 2.34664 5 4.00781 5H8.17536C9.25856 5 10.3076 5.37905 11.1406 6.07143V6.07143C11.9736 6.76381 13.0227 7.14286 14.1059 7.14286H19.9922C21.6534 7.14286 23 8.4895 23 10.1507V16.4C23 20.0451 20.0451 23 16.4 23H7.6C3.95492 23 1 20.0451 1 16.4V8.00781Z" fill="url(#paint1_linear_201_104)"/>
<defs>
<linearGradient id="paint0_linear_201_104" x1="23" y1="0.999999" x2="1" y2="12" gradientUnits="userSpaceOnUse">
<stop stop-color="#F06246"/>
<stop offset="1" stop-color="#BE4128"/>
</linearGradient>
<linearGradient id="paint1_linear_201_104" x1="23" y1="5" x2="1.04605" y2="23.056" gradientUnits="userSpaceOnUse">
<stop stop-color="#FFB12C"/>
<stop offset="0.0001" stop-color="#FF8966"/>
<stop offset="1" stop-color="#DC3A1A"/>
</linearGradient>
</defs>
</svg>
