<?xml version="1.0" encoding="UTF-8" standalone="no"?>
<svg
   width="24"
   height="24"
   viewBox="0 0 24 24"
   fill="none"
   version="1.1"
   id="svg17"
   sodipodi:docname="pink-folder-bookmark.svg"
   inkscape:version="1.3 (0e150ed6c4, 2023-07-21)"
   inkscape:export-filename="../../../../../../../../../Imagens/Big Icons/folder_color_pink_public.pdf"
   inkscape:export-xdpi="96"
   inkscape:export-ydpi="96"
   xml:space="preserve"
   xmlns:inkscape="http://www.inkscape.org/namespaces/inkscape"
   xmlns:sodipodi="http://sodipodi.sourceforge.net/DTD/sodipodi-0.dtd"
   xmlns="http://www.w3.org/2000/svg"
   xmlns:svg="http://www.w3.org/2000/svg"><sodipodi:namedview
     id="namedview17"
     pagecolor="#ffffff"
     bordercolor="#000000"
     borderopacity="0.25"
     inkscape:showpageshadow="2"
     inkscape:pageopacity="0.0"
     inkscape:pagecheckerboard="0"
     inkscape:deskcolor="#d1d1d1"
     inkscape:zoom="5.9735792"
     inkscape:cx="25.026872"
     inkscape:cy="1.925144"
     inkscape:window-width="1280"
     inkscape:window-height="998"
     inkscape:window-x="0"
     inkscape:window-y="0"
     inkscape:window-maximized="0"
     inkscape:current-layer="svg17"><inkscape:page
       x="0"
       y="0"
       width="24"
       height="24"
       id="page17"
       margin="0"
       bleed="0" /></sodipodi:namedview><rect
     opacity="0.8125"
     x="1"
     y="1"
     width="22"
     height="22"
     rx="6.5999999"
     fill="url(#paint0_linear_201_91)"
     id="rect1"
     style="fill:url(#paint0_linear_201_91)" /><rect
     opacity="0.125"
     x="3"
     y="2.25"
     width="18"
     height="18"
     rx="4.4000001"
     fill="url(#paint1_linear_201_91)"
     fill-opacity="0.875"
     id="rect2"
     style="fill:url(#paint1_linear_201_91)" /><rect
     x="3.25"
     y="3.25"
     width="17.5"
     height="17.5"
     rx="4.1500001"
     fill="#cccccc"
     stroke="url(#paint2_linear_201_91)"
     stroke-width="0.5"
     id="rect3"
     style="stroke:url(#paint2_linear_201_91)" /><path
     opacity="0.125"
     d="M 1,7.50781 C 1,5.84664 2.34664,4.5 4.00781,4.5 h 4.18267 c 1.07452,0 2.11632,0.36994 2.95012,1.04762 v 0 c 0.8339,0.67768 1.8756,1.04762 2.9502,1.04762 h 5.9014 C 21.6534,6.59524 23,7.94188 23,9.60305 V 15.5 c 0,3.6451 -2.9549,6.6 -6.6,6.6 H 7.6 C 3.95492,22.1 1,19.1451 1,15.5 Z"
     fill="url(#paint3_linear_201_91)"
     fill-opacity="0.875"
     id="path3"
     style="fill:url(#paint3_linear_201_91)" /><g
     opacity="0.875"
     id="g5"><path
       d="M 1,8.40781 C 1,6.74664 2.34664,5.4 4.00781,5.4 h 4.18267 c 1.07452,0 2.11632,0.36994 2.95012,1.04762 v 0 c 0.8339,0.67768 1.8756,1.04762 2.9502,1.04762 h 5.9014 C 21.6534,7.49524 23,8.84188 23,10.5031 V 16.4 C 23,20.0451 20.0451,23 16.4,23 H 7.6 C 3.95492,23 1,20.0451 1,16.4 Z"
       fill="url(#paint4_linear_201_91)"
       id="path4"
       style="fill:url(#paint4_linear_201_91)" /><path
       d="M 22.625,10.5031 V 16.4 c 0,3.438 -2.787,6.225 -6.225,6.225 H 7.6 C 4.16203,22.625 1.375,19.838 1.375,16.4 V 8.40781 C 1.375,6.95375 2.55375,5.775 4.00781,5.775 h 4.18267 c 0.98838,0 1.94662,0.34028 2.71362,0.96363 0.9007,0.73201 2.026,1.13161 3.1867,1.13161 h 5.9014 c 1.454,0 2.6328,1.17875 2.6328,2.63286 z"
       stroke="url(#paint5_linear_201_91)"
       stroke-opacity="0.375"
       stroke-width="0.75"
       stroke-linejoin="round"
       id="path5"
       style="stroke:url(#paint5_linear_201_91)" /></g><defs
     id="defs17"><linearGradient
       id="paint0_linear_201_91"
       x1="23"
       y1="0.99999899"
       x2="1"
       y2="12"
       gradientUnits="userSpaceOnUse"><stop
         stop-color="#FFA4DB"
         id="stop5" /><stop
         offset="1"
         stop-color="#FF5C93"
         id="stop6" /></linearGradient><linearGradient
       id="paint1_linear_201_91"
       x1="21"
       y1="4"
       x2="3"
       y2="4"
       gradientUnits="userSpaceOnUse"><stop
         stop-opacity="0.5"
         id="stop7" /><stop
         offset="0.890123"
         id="stop8" /><stop
         offset="1"
         stop-opacity="0"
         id="stop9" /></linearGradient><linearGradient
       id="paint2_linear_201_91"
       x1="12"
       y1="3"
       x2="11.5"
       y2="8"
       gradientUnits="userSpaceOnUse"><stop
         stop-color="#DDDDDD"
         id="stop10" /><stop
         offset="1"
         stop-color="#CCCCCC"
         stop-opacity="0"
         id="stop11" /></linearGradient><linearGradient
       id="paint3_linear_201_91"
       x1="23"
       y1="9"
       x2="1.01236"
       y2="9.52141"
       gradientUnits="userSpaceOnUse"><stop
         stop-opacity="0.5"
         id="stop12" /><stop
         offset="1"
         id="stop13" /></linearGradient><linearGradient
       id="paint4_linear_201_91"
       x1="23"
       y1="5.4000001"
       x2="1.42949"
       y2="23.511499"
       gradientUnits="userSpaceOnUse"><stop
         stop-color="#FFC0F7"
         id="stop14"
         offset="0"
         style="stop-color:#ffc0f7;stop-opacity:1;" /><stop
         offset="1"
         stop-color="#DA86BD"
         id="stop15" /></linearGradient><linearGradient
       id="paint5_linear_201_91"
       x1="15"
       y1="5.5"
       x2="5.5"
       y2="19.5"
       gradientUnits="userSpaceOnUse"><stop
         stop-color="#FFDBFF"
         id="stop16" /><stop
         offset="1"
         stop-color="#D27EB5"
         id="stop17" /></linearGradient><linearGradient
       id="a"
       x1="-240.47"
       x2="-240.47"
       y1="-60.605"
       y2="-29.025999"
       gradientTransform="matrix(0.96667,0,0,0.95,262.45,67.575)"
       gradientUnits="userSpaceOnUse"><stop
         stop-color="#4285db"
         offset="0"
         id="stop13351" /><stop
         stop-color="#42b9db"
         offset="1"
         id="stop13353" /></linearGradient><linearGradient
       id="b"
       x1="10.583"
       x2="225.69"
       y1="-184.67999"
       y2="-184.67999"
       gradientTransform="matrix(0.11417,0,0,0.11417,18.557,59.5)"
       gradientUnits="userSpaceOnUse"><stop
         stop-color="#fafbfb"
         offset="0"
         id="stop13356" /><stop
         stop-color="#fafbfb"
         stop-opacity="0"
         offset="1"
         id="stop13358" /></linearGradient><linearGradient
       id="c"
       x1="520"
       x2="410"
       y1="-620"
       y2="-620"
       gradientTransform="matrix(0.0302,0,0,0.0302,18.557,59.5)"
       gradientUnits="userSpaceOnUse"><stop
         offset="0"
         id="stop13361" /><stop
         stop-opacity="0"
         offset="1"
         id="stop13363" /></linearGradient><linearGradient
       id="paint7_linear_207_95"
       x1="16.674999"
       y1="9"
       x2="8.2859201"
       y2="19.754999"
       gradientUnits="userSpaceOnUse"
       gradientTransform="translate(-0.46609738)"><stop
         stop-color="#0BB1CB"
         id="stop30" /><stop
         offset="1"
         stop-color="#006599"
         id="stop31" /></linearGradient><linearGradient
       id="paint6_linear_207_44"
       x1="18.439199"
       y1="8.1073503"
       x2="9.3879299"
       y2="21.114599"
       gradientUnits="userSpaceOnUse"
       gradientTransform="matrix(0.93303702,0,0,0.93303702,0.84038255,0.56918821)"><stop
         stop-color="#E996B1"
         id="stop20" /><stop
         offset="1"
         stop-color="#BC546F"
         id="stop21" /></linearGradient><linearGradient
       id="paint8_linear_202_66"
       x1="18.6"
       y1="10.2395"
       x2="9.5206699"
       y2="22.7798"
       gradientUnits="userSpaceOnUse"><stop
         stop-color="#3C9BCE"
         id="stop26" /><stop
         offset="1"
         stop-color="#00405F"
         id="stop27" /></linearGradient><linearGradient
       id="paint9_linear_202_66"
       x1="11.5002"
       y1="7.6416202"
       x2="7.1997099"
       y2="11.942"
       gradientUnits="userSpaceOnUse"><stop
         stop-color="#3C9BCE"
         id="stop28" /><stop
         offset="1"
         stop-color="#00405F"
         id="stop29" /></linearGradient><linearGradient
       x1="23"
       y1="0.99999899"
       x2="1"
       y2="12"
       gradientUnits="userSpaceOnUse"
       gradientTransform="scale(0.75)"
       spreadMethod="pad"
       id="linearGradient2"><stop
         style="stop-opacity:1;stop-color:#ffa4db"
         offset="0"
         id="stop1" /><stop
         style="stop-opacity:1;stop-color:#ff5c93"
         offset="1"
         id="stop2" /></linearGradient><linearGradient
       x1="21"
       y1="4"
       x2="3"
       y2="4"
       gradientUnits="userSpaceOnUse"
       gradientTransform="scale(0.75)"
       spreadMethod="pad"
       id="linearGradient8"><stop
         style="stop-opacity:0.43750668;stop-color:#000000"
         offset="0"
         id="stop6-7" /><stop
         style="stop-opacity:0.87501335;stop-color:#000000"
         offset="0.890123"
         id="stop7-5" /><stop
         style="stop-opacity:0;stop-color:#000000"
         offset="1"
         id="stop8-3" /></linearGradient><clipPath
       clipPathUnits="userSpaceOnUse"
       id="clipPath8"><path
         d="M 0,0 H 19 V 19 H 0 Z"
         id="path8" /></clipPath><mask
       maskUnits="userSpaceOnUse"
       x="0"
       y="0"
       width="1"
       height="1"
       id="mask10"><path
         id="path11"
         d="M 0,0 H 18 V 18 H 0 Z"
         style="fill:url(#linearGradient12);fill-opacity:1;fill-rule:nonzero;stroke:none"
         transform="scale(1.3333333)"
         clip-path="url(#clipPath12)" /></mask><linearGradient
       x1="12"
       y1="3"
       x2="11.5"
       y2="8"
       gradientUnits="userSpaceOnUse"
       gradientTransform="matrix(0.75,0,0,-0.75,0,18)"
       spreadMethod="pad"
       id="linearGradient12"><stop
         style="stop-opacity:1;stop-color:#ffffff"
         offset="0"
         id="stop11-5" /><stop
         style="stop-opacity:0;stop-color:#ffffff"
         offset="1"
         id="stop12-6" /></linearGradient><clipPath
       clipPathUnits="userSpaceOnUse"
       id="clipPath12"><path
         d="M 1,1 H 17 V 17 H 1 Z"
         id="path12" /></clipPath><linearGradient
       x1="12"
       y1="3"
       x2="11.5"
       y2="8"
       gradientUnits="userSpaceOnUse"
       gradientTransform="matrix(0.75,0,0,-0.75,0,18)"
       spreadMethod="pad"
       id="linearGradient14"><stop
         style="stop-opacity:1;stop-color:#dddddd"
         offset="0"
         id="stop13-2" /><stop
         style="stop-opacity:1;stop-color:#cccccc"
         offset="1"
         id="stop14-9" /></linearGradient><clipPath
       clipPathUnits="userSpaceOnUse"
       id="clipPath14"><path
         d="M 1,1 H 17 V 17 H 1 Z"
         id="path14" /></clipPath><linearGradient
       x1="23"
       y1="9"
       x2="1.01236"
       y2="9.52141"
       gradientUnits="userSpaceOnUse"
       gradientTransform="scale(0.75)"
       spreadMethod="pad"
       id="linearGradient18"><stop
         style="stop-opacity:0.43750668;stop-color:#000000"
         offset="0"
         id="stop17-1" /><stop
         style="stop-opacity:0.87501335;stop-color:#000000"
         offset="1"
         id="stop18" /></linearGradient><clipPath
       clipPathUnits="userSpaceOnUse"
       id="clipPath18"><path
         d="M 0,0 H 19 V 19 H 0 Z"
         id="path18" /></clipPath><linearGradient
       x1="23"
       y1="5.4000001"
       x2="1.42949"
       y2="23.511499"
       gradientUnits="userSpaceOnUse"
       gradientTransform="scale(0.75)"
       spreadMethod="pad"
       id="linearGradient20"><stop
         style="stop-opacity:1;stop-color:#ffc0f7"
         offset="0"
         id="stop19" /><stop
         style="stop-opacity:1;stop-color:#da86bd"
         offset="1"
         id="stop20-2" /></linearGradient><mask
       maskUnits="userSpaceOnUse"
       x="0"
       y="0"
       width="1"
       height="1"
       id="mask20"><path
         id="path20"
         d="M 0,0 H 18 V 18 H 0 Z"
         style="fill:url(#linearGradient22);fill-opacity:1;fill-rule:nonzero;stroke:none"
         transform="scale(1.3333333)"
         clip-path="url(#clipPath22)" /></mask><linearGradient
       x1="15"
       y1="5.5"
       x2="5.5"
       y2="19.5"
       gradientUnits="userSpaceOnUse"
       gradientTransform="matrix(0.75,0,0,-0.75,0,18)"
       spreadMethod="pad"
       id="linearGradient22"><stop
         style="stop-opacity:0.37500572;stop-color:#ffffff"
         offset="0"
         id="stop21-7" /><stop
         style="stop-opacity:0.37500572;stop-color:#ffffff"
         offset="1"
         id="stop22" /></linearGradient><clipPath
       clipPathUnits="userSpaceOnUse"
       id="clipPath22"><path
         d="M 0,4 H 18 V 18 H 0 Z"
         id="path22" /></clipPath><linearGradient
       x1="15"
       y1="5.5"
       x2="5.5"
       y2="19.5"
       gradientUnits="userSpaceOnUse"
       gradientTransform="matrix(0.75,0,0,-0.75,0,18)"
       spreadMethod="pad"
       id="linearGradient24"><stop
         style="stop-opacity:1;stop-color:#ffdbff"
         offset="0"
         id="stop23" /><stop
         style="stop-opacity:1;stop-color:#d27eb5"
         offset="1"
         id="stop24" /></linearGradient><clipPath
       clipPathUnits="userSpaceOnUse"
       id="clipPath24"><path
         d="M 0,4 H 18 V 18 H 0 Z"
         id="path24-0" /></clipPath><clipPath
       clipPathUnits="userSpaceOnUse"
       id="clipPath25"><path
         d="M 0,0 H 19 V 19 H 0 Z"
         transform="scale(1.3333333)"
         id="path25" /></clipPath><clipPath
       clipPathUnits="userSpaceOnUse"
       id="clipPath28"><path
         d="M 0,0 H 19 V 19 H 0 Z"
         id="path28" /></clipPath><linearGradient
       x1="4.2245622"
       y1="9.7728081"
       x2="9.0562277"
       y2="6.5767541"
       gradientUnits="userSpaceOnUse"
       gradientTransform="matrix(2.6660906,0,0,2.6660906,-5.68286,-7.4461851)"
       spreadMethod="pad"
       id="linearGradient30"><stop
         style="stop-opacity:1;stop-color:#713c6a"
         offset="0"
         id="stop29-9" /><stop
         style="stop-opacity:1;stop-color:#8f4c86"
         offset="1"
         id="stop30-3" /></linearGradient><clipPath
       clipPathUnits="userSpaceOnUse"
       id="clipPath28-0"><path
         d="M 0,0 H 19 V 19 H 0 Z"
         id="path28-6" /></clipPath><linearGradient
       id="paint6_linear_207_79"
       x1="17.133301"
       y1="8.3333302"
       x2="6.8666701"
       y2="20.0667"
       gradientUnits="userSpaceOnUse"
       gradientTransform="matrix(0.93749707,0,0,0.93749707,0.75005121,0.90556777)"><stop
         stop-color="#FF7C7D"
         id="stop19-8" /><stop
         offset="1"
         stop-color="#751010"
         id="stop20-7" /></linearGradient><linearGradient
       id="paint6_linear_202_43"
       x1="18.83"
       y1="10"
       x2="6.1799998"
       y2="18.25"
       gradientUnits="userSpaceOnUse"
       gradientTransform="translate(-0.47116)"><stop
         stop-color="#967CCC"
         id="stop20-0" /><stop
         offset="1"
         stop-color="#5E35B1"
         id="stop21-2" /></linearGradient></defs><g
     id="g1"
     inkscape:groupmode="layer"
     inkscape:label="1"
     transform="translate(34)" /><path
     d="m 14.859176,19.339434 c 0.152447,0.478895 -0.394862,0.874486 -0.801699,0.579485 l -2.46341,-1.785939 c -0.181603,-0.13162 -0.427038,-0.132245 -0.609266,-0.0015 L 8.512988,19.905798 C 8.104714,20.198821 7.559238,19.800627 7.714048,19.32246 l 0.937277,-2.894821 c 0.06908,-0.213363 -0.0062,-0.446927 -0.186904,-0.579798 L 6.013226,14.045554 C 5.608315,13.747742 5.818523,13.105883 6.321108,13.105362 l 3.042697,-0.0031 C 9.587997,13.102054 9.78699,12.95825 9.857486,12.745304 l 0.956749,-2.8883697 c 0.15807,-0.4770937 0.833459,-0.4755005 0.989238,0.00232 l 0.943108,2.8925837 c 0.06956,0.213259 0.267823,0.358 0.492016,0.359249 l 3.042791,0.01739 c 0.502532,0.0029 0.709752,0.645712 0.303435,0.941546 l -2.459557,1.790937 c -0.181291,0.131933 -0.257722,0.365185 -0.189621,0.57886 z"
     stroke="#FFCF0C"
     stroke-width="0.724879"
     id="path10"
     style="opacity:0.15;fill:#1a1a1a;stroke:none" /><path
     d="m 15.559176,18.556167 c 0.152447,0.478895 -0.394862,0.874486 -0.801699,0.579485 l -2.46341,-1.785939 c -0.181603,-0.13162 -0.427038,-0.132245 -0.609266,-0.0015 L 9.212987,19.122531 C 8.804713,19.415554 8.259237,19.01736 8.414048,18.539193 l 0.937277,-2.894821 c 0.06908,-0.213363 -0.0062,-0.446927 -0.186904,-0.579798 L 6.713226,13.262287 C 6.308315,12.964475 6.518523,12.322616 7.021108,12.322095 l 3.042697,-0.0031 c 0.224192,-2.08e-4 0.423185,-0.144012 0.493681,-0.356958 l 0.956749,-2.8883696 c 0.15807,-0.4770937 0.833459,-0.4755005 0.989238,0.00232 l 0.943108,2.8925836 c 0.06956,0.213259 0.267823,0.358 0.492016,0.359249 l 3.042791,0.01739 c 0.502532,0.0029 0.709752,0.645712 0.303435,0.941546 l -2.459557,1.790937 c -0.181291,0.131933 -0.257722,0.365185 -0.189621,0.57886 z"
     stroke="#FFCF0C"
     stroke-width="0.724879"
     id="path5-9"
     style="fill:#ffcc00;stroke:none" /></svg>
