<?xml version="1.0" encoding="UTF-8" standalone="no"?>
<svg
   width="64"
   height="64"
   version="1.1"
   viewBox="0 0 16.933 16.933"
   id="svg7"
   sodipodi:docname="pink-cut.svg"
   xml:space="preserve"
   inkscape:version="1.3 (0e150ed6c4, 2023-07-21)"
   xmlns:inkscape="http://www.inkscape.org/namespaces/inkscape"
   xmlns:sodipodi="http://sodipodi.sourceforge.net/DTD/sodipodi-0.dtd"
   xmlns:xlink="http://www.w3.org/1999/xlink"
   xmlns="http://www.w3.org/2000/svg"
   xmlns:svg="http://www.w3.org/2000/svg"><sodipodi:namedview
     id="namedview7"
     pagecolor="#ffffff"
     bordercolor="#000000"
     borderopacity="0.25"
     inkscape:showpageshadow="2"
     inkscape:pageopacity="0.0"
     inkscape:pagecheckerboard="0"
     inkscape:deskcolor="#d1d1d1"
     inkscape:zoom="6.3359375"
     inkscape:cx="72.996301"
     inkscape:cy="29.908755"
     inkscape:window-width="2560"
     inkscape:window-height="998"
     inkscape:window-x="0"
     inkscape:window-y="0"
     inkscape:window-maximized="1"
     inkscape:current-layer="svg7" /><defs
     id="defs1"><filter
       id="filter962"
       x="-0.096307119"
       y="-0.12292382"
       width="1.1926142"
       height="1.2458476"
       color-interpolation-filters="sRGB"><feGaussianBlur
         stdDeviation="0.38221166"
         id="feGaussianBlur1" /></filter><linearGradient
       id="paint0_linear_201_91"
       x1="23"
       y1="0.99999899"
       x2="1"
       y2="12"
       gradientUnits="userSpaceOnUse"
       gradientTransform="matrix(0.26457812,0,0,0.26457812,28.479187,-1.3746523)"><stop
         stop-color="#FFA4DB"
         id="stop5" /><stop
         offset="1"
         stop-color="#FF5C93"
         id="stop6" /></linearGradient><linearGradient
       id="paint1_linear_201_91"
       x1="21"
       y1="4"
       x2="3"
       y2="4"
       gradientUnits="userSpaceOnUse"
       gradientTransform="matrix(0.26457812,0,0,0.26457812,28.479187,-1.3746523)"><stop
         stop-opacity="0.5"
         id="stop7" /><stop
         offset="0.890123"
         id="stop8" /><stop
         offset="1"
         stop-opacity="0"
         id="stop9" /></linearGradient><linearGradient
       id="paint2_linear_201_91"
       x1="12"
       y1="3"
       x2="11.5"
       y2="8"
       gradientUnits="userSpaceOnUse"
       gradientTransform="matrix(0.26457812,0,0,0.26457812,28.479187,-1.3746523)"><stop
         stop-color="#DDDDDD"
         id="stop10" /><stop
         offset="1"
         stop-color="#CCCCCC"
         stop-opacity="0"
         id="stop11" /></linearGradient><linearGradient
       id="paint3_linear_201_91"
       x1="23"
       y1="9"
       x2="1.01236"
       y2="9.52141"
       gradientUnits="userSpaceOnUse"
       gradientTransform="matrix(0.26457812,0,0,0.26457812,28.479187,-1.3746523)"><stop
         stop-opacity="0.5"
         id="stop12" /><stop
         offset="1"
         id="stop13" /></linearGradient><linearGradient
       id="paint4_linear_201_91"
       x1="23"
       y1="5.4000001"
       x2="1.42949"
       y2="23.511499"
       gradientUnits="userSpaceOnUse"
       gradientTransform="matrix(0.26457812,0,0,0.26457812,28.479187,-1.3746523)"><stop
         stop-color="#FFC0F7"
         id="stop14"
         offset="0"
         style="stop-color:#ffc0f7;stop-opacity:1;" /><stop
         offset="1"
         stop-color="#DA86BD"
         id="stop15"
         style="stop-color:#da86bd;stop-opacity:1;" /></linearGradient><linearGradient
       id="paint5_linear_201_91"
       x1="15"
       y1="5.5"
       x2="5.5"
       y2="19.5"
       gradientUnits="userSpaceOnUse"
       gradientTransform="matrix(0.26457812,0,0,0.26457812,28.479187,-1.3746523)"><stop
         stop-color="#FFDBFF"
         id="stop16" /><stop
         offset="1"
         stop-color="#D27EB5"
         id="stop17" /></linearGradient><filter
       id="filter962-1"
       x="-0.096307119"
       y="-0.12292382"
       width="1.1926142"
       height="1.2458476"
       color-interpolation-filters="sRGB"><feGaussianBlur
         stdDeviation="0.38221166"
         id="feGaussianBlur1-0" /></filter><linearGradient
       id="paint0_linear_201_71"
       x1="23"
       y1="0.999999"
       x2="1"
       y2="12"
       gradientUnits="userSpaceOnUse"><stop
         stop-color="#E32A2A"
         id="stop5-63" /><stop
         offset="1"
         stop-color="#680000"
         id="stop6-2" /></linearGradient><linearGradient
       id="paint1_linear_201_71"
       x1="21"
       y1="4"
       x2="3"
       y2="4"
       gradientUnits="userSpaceOnUse"><stop
         stop-opacity="0.5"
         id="stop7-0" /><stop
         offset="0.890123"
         id="stop8-6" /><stop
         offset="1"
         stop-opacity="0"
         id="stop9-1" /></linearGradient><linearGradient
       id="paint2_linear_201_71"
       x1="12"
       y1="3"
       x2="11.5"
       y2="8"
       gradientUnits="userSpaceOnUse"><stop
         stop-color="#DDDDDD"
         id="stop10-55" /><stop
         offset="1"
         stop-color="#CCCCCC"
         stop-opacity="0"
         id="stop11-4" /></linearGradient><linearGradient
       id="paint3_linear_201_71"
       x1="23"
       y1="9"
       x2="1.01236"
       y2="9.52141"
       gradientUnits="userSpaceOnUse"><stop
         stop-opacity="0.5"
         id="stop12-7" /><stop
         offset="1"
         id="stop13-6" /></linearGradient><linearGradient
       id="paint4_linear_201_71"
       x1="23"
       y1="5.4"
       x2="1.42949"
       y2="23.5115"
       gradientUnits="userSpaceOnUse"><stop
         stop-color="#FF3838"
         id="stop14-5" /><stop
         offset="1"
         stop-color="#B71414"
         id="stop15-6" /></linearGradient><linearGradient
       id="paint5_linear_201_71"
       x1="15"
       y1="5.5"
       x2="5.5"
       y2="19.5"
       gradientUnits="userSpaceOnUse"><stop
         stop-color="#FF8383"
         id="stop16-9" /><stop
         offset="1"
         stop-color="#680000"
         id="stop17-3" /></linearGradient><linearGradient
       id="paint0_linear_215_10"
       x1="23"
       y1="0.99999899"
       x2="1"
       y2="12"
       gradientUnits="userSpaceOnUse"><stop
         stop-color="#E3C880"
         id="stop5-6" /><stop
         offset="1"
         stop-color="#6F5C38"
         id="stop6-4" /></linearGradient><linearGradient
       id="paint4_linear_215_10"
       x1="23"
       y1="5.4000001"
       x2="1.42949"
       y2="23.511499"
       gradientUnits="userSpaceOnUse"><stop
         stop-color="#FFE795"
         id="stop14-7" /><stop
         offset="1"
         stop-color="#7A653E"
         id="stop15-4" /></linearGradient><linearGradient
       id="paint5_linear_215_10"
       x1="15"
       y1="5.5"
       x2="5.5"
       y2="19.5"
       gradientUnits="userSpaceOnUse"><stop
         stop-color="#FFE795"
         id="stop16-5" /><stop
         offset="1"
         stop-color="#7A653E"
         id="stop17-2" /></linearGradient><linearGradient
       inkscape:collect="always"
       xlink:href="#paint0_linear_201_91"
       id="linearGradient23"
       gradientUnits="userSpaceOnUse"
       gradientTransform="matrix(0.26457812,0,0,0.26457812,28.479187,-1.3746523)"
       x1="23"
       y1="0.99999899"
       x2="1"
       y2="12" /><linearGradient
       inkscape:collect="always"
       xlink:href="#paint1_linear_201_91"
       id="linearGradient24"
       gradientUnits="userSpaceOnUse"
       gradientTransform="matrix(0.26457812,0,0,0.26457812,28.479187,-1.3746523)"
       x1="21"
       y1="4"
       x2="3"
       y2="4" /><linearGradient
       inkscape:collect="always"
       xlink:href="#paint2_linear_201_91"
       id="linearGradient25"
       gradientUnits="userSpaceOnUse"
       gradientTransform="matrix(0.26457812,0,0,0.26457812,28.479187,-1.3746523)"
       x1="12"
       y1="3"
       x2="11.5"
       y2="8" /><linearGradient
       inkscape:collect="always"
       xlink:href="#paint3_linear_201_91"
       id="linearGradient26"
       gradientUnits="userSpaceOnUse"
       gradientTransform="matrix(0.26457812,0,0,0.26457812,28.479187,-1.3746523)"
       x1="23"
       y1="9"
       x2="1.01236"
       y2="9.52141" /><linearGradient
       inkscape:collect="always"
       xlink:href="#paint4_linear_201_91"
       id="linearGradient27"
       gradientUnits="userSpaceOnUse"
       gradientTransform="matrix(0.26457812,0,0,0.26457812,28.479187,-1.3746523)"
       x1="23"
       y1="5.4000001"
       x2="1.42949"
       y2="23.511499" /><linearGradient
       inkscape:collect="always"
       xlink:href="#paint5_linear_201_91"
       id="linearGradient28"
       gradientUnits="userSpaceOnUse"
       gradientTransform="matrix(0.26457812,0,0,0.26457812,28.479187,-1.3746523)"
       x1="15"
       y1="5.5"
       x2="5.5"
       y2="19.5" /><linearGradient
       inkscape:collect="always"
       xlink:href="#paint0_linear_201_91"
       id="linearGradient29"
       gradientUnits="userSpaceOnUse"
       gradientTransform="matrix(0.26457812,0,0,0.26457812,28.479187,-1.3746523)"
       x1="23"
       y1="0.99999899"
       x2="1"
       y2="12" /><linearGradient
       inkscape:collect="always"
       xlink:href="#paint1_linear_201_91"
       id="linearGradient30"
       gradientUnits="userSpaceOnUse"
       gradientTransform="matrix(0.26457812,0,0,0.26457812,28.479187,-1.3746523)"
       x1="21"
       y1="4"
       x2="3"
       y2="4" /><linearGradient
       inkscape:collect="always"
       xlink:href="#paint2_linear_201_91"
       id="linearGradient31"
       gradientUnits="userSpaceOnUse"
       gradientTransform="matrix(0.26457812,0,0,0.26457812,28.479187,-1.3746523)"
       x1="12"
       y1="3"
       x2="11.5"
       y2="8" /><linearGradient
       inkscape:collect="always"
       xlink:href="#paint3_linear_201_91"
       id="linearGradient32"
       gradientUnits="userSpaceOnUse"
       gradientTransform="matrix(0.26457812,0,0,0.26457812,28.479187,-1.3746523)"
       x1="23"
       y1="9"
       x2="1.01236"
       y2="9.52141" /><linearGradient
       inkscape:collect="always"
       xlink:href="#paint4_linear_201_91"
       id="linearGradient33"
       gradientUnits="userSpaceOnUse"
       gradientTransform="matrix(0.26457812,0,0,0.26457812,28.479187,-1.3746523)"
       x1="23"
       y1="5.4000001"
       x2="1.42949"
       y2="23.511499" /><linearGradient
       inkscape:collect="always"
       xlink:href="#paint5_linear_201_91"
       id="linearGradient34"
       gradientUnits="userSpaceOnUse"
       gradientTransform="matrix(0.26457812,0,0,0.26457812,28.479187,-1.3746523)"
       x1="15"
       y1="5.5"
       x2="5.5"
       y2="19.5" /></defs><g
     id="g19"
     transform="matrix(1.5990454,0,0,1.5990454,-44.269016,8.0828659)"
     style="opacity:0.35"><rect
       opacity="0.8125"
       x="28.743765"
       y="-1.110074"
       width="5.8207188"
       height="5.8207188"
       rx="1.7462156"
       fill="url(#paint0_linear_201_91)"
       id="rect15"
       style="fill:url(#linearGradient23);stroke-width:0.264578" /><rect
       opacity="0.125"
       x="29.272921"
       y="-0.77935147"
       width="4.7624063"
       height="4.7624063"
       rx="1.1641438"
       fill="url(#paint1_linear_201_91)"
       fill-opacity="0.875"
       id="rect16"
       style="fill:url(#linearGradient24);stroke-width:0.264578" /><rect
       x="29.339066"
       y="-0.51477361"
       width="4.6301169"
       height="4.6301169"
       rx="1.0979992"
       fill="#cccccc"
       stroke="url(#paint2_linear_201_91)"
       stroke-width="0.132289"
       id="rect17"
       style="stroke:url(#linearGradient25)" /><path
       opacity="0.125"
       d="m 28.743765,0.61175004 c 0,-0.4395093 0.356292,-0.7958008 0.795801,-0.7958008 h 1.106643 c 0.284294,0 0.559932,0.097878 0.780537,0.2771774 v 0 c 0.220632,0.1792993 0.496243,0.2771773 0.780558,0.2771773 h 1.561382 c 0.439517,0 0.795798,0.3562915 0.795798,0.79580066 v 1.560204 c 0,0.9644137 -0.781802,1.7462156 -1.746216,1.7462156 h -2.328287 c -0.964409,0 -1.746216,-0.7818019 -1.746216,-1.7462156 z"
       fill="url(#paint3_linear_201_91)"
       fill-opacity="0.875"
       id="path17"
       style="fill:url(#linearGradient26);stroke-width:0.264578" /><path
       d="m 28.743765,0.84987034 c 0,-0.4395093 0.356292,-0.7958008 0.795801,-0.7958008 h 1.106643 c 0.284294,0 0.559932,0.097878 0.780537,0.2771774 v 0 c 0.220632,0.1792993 0.496243,0.2771773 0.780558,0.2771773 h 1.561382 c 0.439517,0 0.795798,0.3562915 0.795798,0.79581396 v 1.5601907 c 0,0.9644137 -0.781802,1.7462156 -1.746216,1.7462156 h -2.328287 c -0.964409,0 -1.746216,-0.7818019 -1.746216,-1.7462156 z"
       fill="url(#paint4_linear_201_91)"
       id="path18"
       style="opacity:0.875;fill:url(#linearGradient27);stroke-width:0.264578" /><path
       d="m 34.465267,1.4042382 v 1.5601907 c 0,0.9096195 -0.737379,1.6469988 -1.646999,1.6469988 h -2.328287 c -0.909612,0 -1.646999,-0.7373793 -1.646999,-1.6469988 V 0.84987034 c 0,-0.3847125 0.311871,-0.696584 0.696584,-0.696584 h 1.106643 c 0.261504,0 0.515033,0.090031 0.717964,0.2549555 0.238306,0.1936738 0.536036,0.2993992 0.843131,0.2993992 h 1.561382 c 0.384696,0 0.696581,0.31187146 0.696581,0.69659716 z"
       stroke="url(#paint5_linear_201_91)"
       stroke-opacity="0.375"
       stroke-width="0.198434"
       stroke-linejoin="round"
       id="path19"
       style="opacity:0.875;fill:none;stroke:url(#linearGradient28)" /></g><g
     id="g13"
     transform="matrix(1.5990454,0,0,1.5990454,-40.030739,3.0926579)"><rect
       opacity="0.8125"
       x="28.743765"
       y="-1.110074"
       width="5.8207188"
       height="5.8207188"
       rx="1.7462156"
       fill="url(#paint0_linear_201_91)"
       id="rect1"
       style="fill:url(#linearGradient29);stroke-width:0.264578" /><rect
       opacity="0.125"
       x="29.272921"
       y="-0.77935147"
       width="4.7624063"
       height="4.7624063"
       rx="1.1641438"
       fill="url(#paint1_linear_201_91)"
       fill-opacity="0.875"
       id="rect2"
       style="fill:url(#linearGradient30);stroke-width:0.264578" /><rect
       x="29.339066"
       y="-0.51477361"
       width="4.6301169"
       height="4.6301169"
       rx="1.0979992"
       fill="#cccccc"
       stroke="url(#paint2_linear_201_91)"
       stroke-width="0.132289"
       id="rect3"
       style="stroke:url(#linearGradient31)" /><path
       opacity="0.125"
       d="m 28.743765,0.61175004 c 0,-0.4395093 0.356292,-0.7958008 0.795801,-0.7958008 h 1.106643 c 0.284294,0 0.559932,0.097878 0.780537,0.2771774 v 0 c 0.220632,0.1792993 0.496243,0.2771773 0.780558,0.2771773 h 1.561382 c 0.439517,0 0.795798,0.3562915 0.795798,0.79580066 v 1.560204 c 0,0.9644137 -0.781802,1.7462156 -1.746216,1.7462156 h -2.328287 c -0.964409,0 -1.746216,-0.7818019 -1.746216,-1.7462156 z"
       fill="url(#paint3_linear_201_91)"
       fill-opacity="0.875"
       id="path3-8"
       style="fill:url(#linearGradient32);stroke-width:0.264578" /><path
       d="m 28.743765,0.84987034 c 0,-0.4395093 0.356292,-0.7958008 0.795801,-0.7958008 h 1.106643 c 0.284294,0 0.559932,0.097878 0.780537,0.2771774 v 0 c 0.220632,0.1792993 0.496243,0.2771773 0.780558,0.2771773 h 1.561382 c 0.439517,0 0.795798,0.3562915 0.795798,0.79581396 v 1.5601907 c 0,0.9644137 -0.781802,1.7462156 -1.746216,1.7462156 h -2.328287 c -0.964409,0 -1.746216,-0.7818019 -1.746216,-1.7462156 z"
       fill="url(#paint4_linear_201_91)"
       id="path4-4"
       style="opacity:0.875;fill:url(#linearGradient33);stroke-width:0.264578" /><path
       d="m 34.465267,1.4042382 v 1.5601907 c 0,0.9096195 -0.737379,1.6469988 -1.646999,1.6469988 h -2.328287 c -0.909612,0 -1.646999,-0.7373793 -1.646999,-1.6469988 V 0.84987034 c 0,-0.3847125 0.311871,-0.696584 0.696584,-0.696584 h 1.106643 c 0.261504,0 0.515033,0.090031 0.717964,0.2549555 0.238306,0.1936738 0.536036,0.2993992 0.843131,0.2993992 h 1.561382 c 0.384696,0 0.696581,0.31187146 0.696581,0.69659716 z"
       stroke="url(#paint5_linear_201_91)"
       stroke-opacity="0.375"
       stroke-width="0.198434"
       stroke-linejoin="round"
       id="path5-5"
       style="opacity:0.875;fill:none;stroke:url(#linearGradient34)" /></g></svg>
