<?xml version="1.0" encoding="UTF-8" standalone="no"?>
<svg
   width="64"
   height="64"
   version="1.1"
   viewBox="0 0 16.933 16.933"
   id="svg7"
   sodipodi:docname="purple-folder-move.svg"
   inkscape:version="1.3 (0e150ed6c4, 2023-07-21)"
   xmlns:inkscape="http://www.inkscape.org/namespaces/inkscape"
   xmlns:sodipodi="http://sodipodi.sourceforge.net/DTD/sodipodi-0.dtd"
   xmlns:xlink="http://www.w3.org/1999/xlink"
   xmlns="http://www.w3.org/2000/svg"
   xmlns:svg="http://www.w3.org/2000/svg">
  <sodipodi:namedview
     id="namedview7"
     pagecolor="#ffffff"
     bordercolor="#000000"
     borderopacity="0.25"
     inkscape:showpageshadow="2"
     inkscape:pageopacity="0.0"
     inkscape:pagecheckerboard="0"
     inkscape:deskcolor="#d1d1d1"
     inkscape:zoom="4.4801844"
     inkscape:cx="12.611088"
     inkscape:cy="42.074161"
     inkscape:window-width="2560"
     inkscape:window-height="998"
     inkscape:window-x="0"
     inkscape:window-y="0"
     inkscape:window-maximized="1"
     inkscape:current-layer="svg7" />
  <defs
     id="defs1">
    <filter
       id="filter962"
       x="-0.096307119"
       y="-0.12292382"
       width="1.1926142"
       height="1.2458476"
       color-interpolation-filters="sRGB">
      <feGaussianBlur
         stdDeviation="0.38221166"
         id="feGaussianBlur1" />
    </filter>
    <linearGradient
       id="paint0_linear_201_78"
       x1="23"
       y1="0.99999899"
       x2="1"
       y2="12"
       gradientUnits="userSpaceOnUse"
       gradientTransform="matrix(0.26457812,0,0,0.26457812,23.774584,0.48234738)">
      <stop
         stop-color="#5361CB"
         id="stop5" />
      <stop
         offset="1"
         stop-color="#2F3B9D"
         id="stop6" />
    </linearGradient>
    <linearGradient
       id="paint1_linear_201_78"
       x1="21"
       y1="4"
       x2="3"
       y2="4"
       gradientUnits="userSpaceOnUse"
       gradientTransform="matrix(0.26457812,0,0,0.26457812,23.774584,0.48234738)">
      <stop
         stop-opacity="0.5"
         id="stop7" />
      <stop
         offset="0.890123"
         id="stop8" />
      <stop
         offset="1"
         stop-opacity="0"
         id="stop9" />
    </linearGradient>
    <linearGradient
       id="paint2_linear_201_78"
       x1="12"
       y1="3"
       x2="11.5"
       y2="8"
       gradientUnits="userSpaceOnUse"
       gradientTransform="matrix(0.26457812,0,0,0.26457812,23.774584,0.48234738)">
      <stop
         stop-color="#DDDDDD"
         id="stop10" />
      <stop
         offset="1"
         stop-color="#CCCCCC"
         stop-opacity="0"
         id="stop11" />
    </linearGradient>
    <linearGradient
       id="paint3_linear_201_78"
       x1="23"
       y1="9"
       x2="1.01236"
       y2="9.52141"
       gradientUnits="userSpaceOnUse"
       gradientTransform="matrix(0.26457812,0,0,0.26457812,23.774584,0.48234738)">
      <stop
         stop-opacity="0.5"
         id="stop12" />
      <stop
         offset="1"
         id="stop13" />
    </linearGradient>
    <linearGradient
       id="paint4_linear_201_78"
       x1="23"
       y1="5.4000001"
       x2="1.42949"
       y2="23.511499"
       gradientUnits="userSpaceOnUse"
       gradientTransform="matrix(0.26457812,0,0,0.26457812,23.774584,0.48234738)">
      <stop
         stop-color="#6C7AD8"
         id="stop14"
         offset="0"
         style="stop-color:#6c7ad8;stop-opacity:1;" />
      <stop
         offset="1"
         stop-color="#273182"
         id="stop15"
         style="stop-color:#273282;stop-opacity:1;" />
    </linearGradient>
    <linearGradient
       id="paint5_linear_201_78"
       x1="15"
       y1="5.5"
       x2="5.5"
       y2="19.5"
       gradientUnits="userSpaceOnUse"
       gradientTransform="matrix(0.26457812,0,0,0.26457812,23.774584,0.48234738)">
      <stop
         stop-color="#97A5FF"
         id="stop16" />
      <stop
         offset="1"
         stop-color="#141E6F"
         id="stop17" />
    </linearGradient>
    <linearGradient
       id="paint0_linear_221_48"
       x1="23"
       y1="0.99999899"
       x2="1"
       y2="12"
       gradientUnits="userSpaceOnUse">
      <stop
         stop-color="#FFDE3C"
         id="stop5-1" />
      <stop
         offset="1"
         stop-color="#FFA900"
         id="stop6-9" />
    </linearGradient>
    <linearGradient
       id="paint1_linear_201_71"
       x1="21"
       y1="4"
       x2="3"
       y2="4"
       gradientUnits="userSpaceOnUse">
      <stop
         stop-opacity="0.5"
         id="stop7-6" />
      <stop
         offset="0.890123"
         id="stop8-2" />
      <stop
         offset="1"
         stop-opacity="0"
         id="stop9-9" />
    </linearGradient>
    <linearGradient
       id="paint2_linear_201_71"
       x1="12"
       y1="3"
       x2="11.5"
       y2="8"
       gradientUnits="userSpaceOnUse">
      <stop
         stop-color="#DDDDDD"
         id="stop10-1" />
      <stop
         offset="1"
         stop-color="#CCCCCC"
         stop-opacity="0"
         id="stop11-2" />
    </linearGradient>
    <linearGradient
       id="paint3_linear_201_71"
       x1="23"
       y1="9"
       x2="1.01236"
       y2="9.52141"
       gradientUnits="userSpaceOnUse">
      <stop
         stop-opacity="0.5"
         id="stop12-7" />
      <stop
         offset="1"
         id="stop13-0" />
    </linearGradient>
    <linearGradient
       id="paint4_linear_221_48"
       x1="23"
       y1="5.4000001"
       x2="1.42949"
       y2="23.511499"
       gradientUnits="userSpaceOnUse">
      <stop
         stop-color="#FFFF52"
         id="stop14-3" />
      <stop
         offset="1"
         stop-color="#FFB200"
         id="stop15-6" />
    </linearGradient>
    <linearGradient
       id="paint5_linear_221_48"
       x1="15"
       y1="5.5"
       x2="5.5"
       y2="19.5"
       gradientUnits="userSpaceOnUse">
      <stop
         stop-color="white"
         id="stop16-0" />
      <stop
         offset="1"
         stop-color="#BD8400"
         id="stop17-5" />
    </linearGradient>
    <linearGradient
       inkscape:collect="always"
       xlink:href="#paint0_linear_201_78"
       id="linearGradient17"
       gradientUnits="userSpaceOnUse"
       gradientTransform="matrix(0.26457812,0,0,0.26457812,23.774584,0.48234738)"
       x1="23"
       y1="0.99999899"
       x2="1"
       y2="12" />
    <linearGradient
       inkscape:collect="always"
       xlink:href="#paint1_linear_201_78"
       id="linearGradient18"
       gradientUnits="userSpaceOnUse"
       gradientTransform="matrix(0.26457812,0,0,0.26457812,23.774584,0.48234738)"
       x1="21"
       y1="4"
       x2="3"
       y2="4" />
    <linearGradient
       inkscape:collect="always"
       xlink:href="#paint2_linear_201_78"
       id="linearGradient19"
       gradientUnits="userSpaceOnUse"
       gradientTransform="matrix(0.26457812,0,0,0.26457812,23.774584,0.48234738)"
       x1="12"
       y1="3"
       x2="11.5"
       y2="8" />
    <linearGradient
       inkscape:collect="always"
       xlink:href="#paint3_linear_201_78"
       id="linearGradient20"
       gradientUnits="userSpaceOnUse"
       gradientTransform="matrix(0.26457812,0,0,0.26457812,23.774584,0.48234738)"
       x1="23"
       y1="9"
       x2="1.01236"
       y2="9.52141" />
    <linearGradient
       inkscape:collect="always"
       xlink:href="#paint4_linear_201_78"
       id="linearGradient21"
       gradientUnits="userSpaceOnUse"
       gradientTransform="matrix(0.26457812,0,0,0.26457812,23.774584,0.48234738)"
       x1="23"
       y1="5.4000001"
       x2="1.42949"
       y2="23.511499" />
    <linearGradient
       inkscape:collect="always"
       xlink:href="#paint5_linear_201_78"
       id="linearGradient28"
       gradientUnits="userSpaceOnUse"
       gradientTransform="matrix(0.26457812,0,0,0.26457812,23.774584,0.48234738)"
       x1="15"
       y1="5.5"
       x2="5.5"
       y2="19.5" />
    <linearGradient
       inkscape:collect="always"
       xlink:href="#paint0_linear_201_78"
       id="linearGradient29"
       gradientUnits="userSpaceOnUse"
       gradientTransform="matrix(0.26457812,0,0,0.26457812,23.774584,0.48234738)"
       x1="23"
       y1="0.99999899"
       x2="1"
       y2="12" />
    <linearGradient
       inkscape:collect="always"
       xlink:href="#paint1_linear_201_78"
       id="linearGradient30"
       gradientUnits="userSpaceOnUse"
       gradientTransform="matrix(0.26457812,0,0,0.26457812,23.774584,0.48234738)"
       x1="21"
       y1="4"
       x2="3"
       y2="4" />
    <linearGradient
       inkscape:collect="always"
       xlink:href="#paint2_linear_201_78"
       id="linearGradient31"
       gradientUnits="userSpaceOnUse"
       gradientTransform="matrix(0.26457812,0,0,0.26457812,23.774584,0.48234738)"
       x1="12"
       y1="3"
       x2="11.5"
       y2="8" />
    <linearGradient
       inkscape:collect="always"
       xlink:href="#paint3_linear_201_78"
       id="linearGradient32"
       gradientUnits="userSpaceOnUse"
       gradientTransform="matrix(0.26457812,0,0,0.26457812,23.774584,0.48234738)"
       x1="23"
       y1="9"
       x2="1.01236"
       y2="9.52141" />
    <linearGradient
       inkscape:collect="always"
       xlink:href="#paint4_linear_201_78"
       id="linearGradient33"
       gradientUnits="userSpaceOnUse"
       gradientTransform="matrix(0.26457812,0,0,0.26457812,23.774584,0.48234738)"
       x1="23"
       y1="5.4000001"
       x2="1.42949"
       y2="23.511499" />
    <linearGradient
       inkscape:collect="always"
       xlink:href="#paint5_linear_201_78"
       id="linearGradient34"
       gradientUnits="userSpaceOnUse"
       gradientTransform="matrix(0.26457812,0,0,0.26457812,23.774584,0.48234738)"
       x1="15"
       y1="5.5"
       x2="5.5"
       y2="19.5" />
  </defs>
  <g
     id="g17"
     transform="matrix(1.5990453,0,0,1.5990453,-36.74614,5.11344)">
    <rect
       opacity="0.8125"
       x="24.039164"
       y="0.74692512"
       width="5.8207188"
       height="5.8207188"
       rx="1.7462156"
       fill="url(#paint0_linear_201_78)"
       id="rect13"
       style="fill:url(#linearGradient17);stroke-width:0.264578" />
    <rect
       opacity="0.125"
       x="24.568319"
       y="1.0776489"
       width="4.7624063"
       height="4.7624063"
       rx="1.1641438"
       fill="url(#paint1_linear_201_78)"
       fill-opacity="0.875"
       id="rect14"
       style="fill:url(#linearGradient18);stroke-width:0.264578" />
    <rect
       x="24.634462"
       y="1.3422267"
       width="4.6301169"
       height="4.6301169"
       rx="1.0979992"
       fill="#cccccc"
       stroke="url(#paint2_linear_201_78)"
       stroke-width="0.132289"
       id="rect15"
       style="stroke:url(#linearGradient19)" />
    <path
       opacity="0.125"
       d="m 24.039162,2.4687494 c 0,-0.439509 0.356292,-0.7958 0.795801,-0.7958 h 1.106643 c 0.284294,0 0.559932,0.09788 0.780537,0.277177 v 0 c 0.220632,0.179299 0.496243,0.277177 0.780558,0.277177 h 1.561382 c 0.439517,0 0.795798,0.356292 0.795798,0.795801 v 1.560204 c 0,0.964414 -0.781802,1.746215 -1.746216,1.746215 h -2.328287 c -0.964409,0 -1.746216,-0.781801 -1.746216,-1.746215 z"
       fill="url(#paint3_linear_201_78)"
       fill-opacity="0.875"
       id="path15"
       style="fill:url(#linearGradient20);stroke-width:0.264578" />
    <path
       d="m 24.039162,2.7068704 c 0,-0.43951 0.356292,-0.795801 0.795801,-0.795801 h 1.106643 c 0.284294,0 0.559932,0.09788 0.780537,0.277177 v 0 c 0.220632,0.179299 0.496243,0.277178 0.780558,0.277178 h 1.561382 c 0.439517,0 0.795798,0.356291 0.795798,0.795813 v 1.560191 c 0,0.964414 -0.781802,1.746216 -1.746216,1.746216 h -2.328287 c -0.964409,0 -1.746216,-0.781802 -1.746216,-1.746216 z"
       fill="url(#paint4_linear_201_78)"
       id="path16"
       style="opacity:0.875;fill:url(#linearGradient21);stroke-width:0.264578" />
    <path
       d="m 29.760664,3.2612374 v 1.560191 c 0,0.90962 -0.737379,1.646999 -1.646999,1.646999 h -2.328287 c -0.909612,0 -1.646999,-0.737379 -1.646999,-1.646999 v -2.114558 c 0,-0.384713 0.311871,-0.696584 0.696584,-0.696584 h 1.106643 c 0.261504,0 0.515033,0.09003 0.717964,0.254955 0.238306,0.193674 0.536036,0.299399 0.843131,0.299399 h 1.561382 c 0.384696,0 0.696581,0.311872 0.696581,0.696597 z"
       stroke="url(#paint5_linear_201_78)"
       stroke-opacity="0.375"
       stroke-width="0.198434"
       stroke-linejoin="round"
       id="path17"
       style="opacity:0.875;fill:none;stroke:url(#linearGradient28)" />
  </g>
  <g
     id="g13"
     transform="matrix(1.5990453,0,0,1.5990453,-32.507863,0.12323197)">
    <rect
       opacity="0.8125"
       x="24.039164"
       y="0.74692512"
       width="5.8207188"
       height="5.8207188"
       rx="1.7462156"
       fill="url(#paint0_linear_201_78)"
       id="rect1"
       style="fill:url(#linearGradient29);stroke-width:0.264578" />
    <rect
       opacity="0.125"
       x="24.568319"
       y="1.0776489"
       width="4.7624063"
       height="4.7624063"
       rx="1.1641438"
       fill="url(#paint1_linear_201_78)"
       fill-opacity="0.875"
       id="rect2"
       style="fill:url(#linearGradient30);stroke-width:0.264578" />
    <rect
       x="24.634462"
       y="1.3422267"
       width="4.6301169"
       height="4.6301169"
       rx="1.0979992"
       fill="#cccccc"
       stroke="url(#paint2_linear_201_78)"
       stroke-width="0.132289"
       id="rect3"
       style="stroke:url(#linearGradient31)" />
    <path
       opacity="0.125"
       d="m 24.039162,2.4687494 c 0,-0.439509 0.356292,-0.7958 0.795801,-0.7958 h 1.106643 c 0.284294,0 0.559932,0.09788 0.780537,0.277177 v 0 c 0.220632,0.179299 0.496243,0.277177 0.780558,0.277177 h 1.561382 c 0.439517,0 0.795798,0.356292 0.795798,0.795801 v 1.560204 c 0,0.964414 -0.781802,1.746215 -1.746216,1.746215 h -2.328287 c -0.964409,0 -1.746216,-0.781801 -1.746216,-1.746215 z"
       fill="url(#paint3_linear_201_78)"
       fill-opacity="0.875"
       id="path3-7"
       style="fill:url(#linearGradient32);stroke-width:0.264578" />
    <path
       d="m 24.039162,2.7068704 c 0,-0.43951 0.356292,-0.795801 0.795801,-0.795801 h 1.106643 c 0.284294,0 0.559932,0.09788 0.780537,0.277177 v 0 c 0.220632,0.179299 0.496243,0.277178 0.780558,0.277178 h 1.561382 c 0.439517,0 0.795798,0.356291 0.795798,0.795813 v 1.560191 c 0,0.964414 -0.781802,1.746216 -1.746216,1.746216 h -2.328287 c -0.964409,0 -1.746216,-0.781802 -1.746216,-1.746216 z"
       fill="url(#paint4_linear_201_78)"
       id="path4-5"
       style="opacity:0.875;fill:url(#linearGradient33);stroke-width:0.264578" />
    <path
       d="m 29.760664,3.2612374 v 1.560191 c 0,0.90962 -0.737379,1.646999 -1.646999,1.646999 h -2.328287 c -0.909612,0 -1.646999,-0.737379 -1.646999,-1.646999 v -2.114558 c 0,-0.384713 0.311871,-0.696584 0.696584,-0.696584 h 1.106643 c 0.261504,0 0.515033,0.09003 0.717964,0.254955 0.238306,0.193674 0.536036,0.299399 0.843131,0.299399 h 1.561382 c 0.384696,0 0.696581,0.311872 0.696581,0.696597 z"
       stroke="url(#paint5_linear_201_78)"
       stroke-opacity="0.375"
       stroke-width="0.198434"
       stroke-linejoin="round"
       id="path5-3"
       style="opacity:0.875;fill:none;stroke:url(#linearGradient34)" />
  </g>
</svg>
