<?xml version="1.0" encoding="UTF-8" standalone="no"?>
<svg
   width="24"
   height="24"
   viewBox="0 0 24 24"
   fill="none"
   version="1.1"
   id="svg17"
   sodipodi:docname="folder_color_red_public.svg"
   inkscape:version="1.3 (0e150ed6c4, 2023-07-21)"
   inkscape:export-filename="../../../../../../../../../Imagens/Big Icons/folder_color_red_public.pdf"
   inkscape:export-xdpi="96"
   inkscape:export-ydpi="96"
   xml:space="preserve"
   xmlns:inkscape="http://www.inkscape.org/namespaces/inkscape"
   xmlns:sodipodi="http://sodipodi.sourceforge.net/DTD/sodipodi-0.dtd"
   xmlns="http://www.w3.org/2000/svg"
   xmlns:svg="http://www.w3.org/2000/svg"><sodipodi:namedview
     id="namedview17"
     pagecolor="#ffffff"
     bordercolor="#000000"
     borderopacity="0.25"
     inkscape:showpageshadow="2"
     inkscape:pageopacity="0.0"
     inkscape:pagecheckerboard="0"
     inkscape:deskcolor="#d1d1d1"
     inkscape:zoom="16"
     inkscape:cx="12.40625"
     inkscape:cy="13.28125"
     inkscape:window-width="2560"
     inkscape:window-height="998"
     inkscape:window-x="0"
     inkscape:window-y="0"
     inkscape:window-maximized="1"
     inkscape:current-layer="g1"><inkscape:page
       x="0"
       y="0"
       width="24"
       height="24"
       id="page17"
       margin="0"
       bleed="0" /></sodipodi:namedview><rect
     opacity="0.8125"
     x="1"
     y="1"
     width="22"
     height="22"
     rx="6.5999999"
     fill="url(#paint0_linear_201_71)"
     id="rect1"
     style="fill:url(#paint0_linear_201_71)" /><rect
     opacity="0.125"
     x="3"
     y="2.25"
     width="18"
     height="18"
     rx="4.4000001"
     fill="url(#paint1_linear_201_71)"
     fill-opacity="0.875"
     id="rect2"
     style="fill:url(#paint1_linear_201_71)" /><rect
     x="3.25"
     y="3.25"
     width="17.5"
     height="17.5"
     rx="4.1500001"
     fill="#cccccc"
     stroke="url(#paint2_linear_201_71)"
     stroke-width="0.5"
     id="rect3"
     style="stroke:url(#paint2_linear_201_71)" /><path
     opacity="0.125"
     d="M 1,7.50781 C 1,5.84664 2.34664,4.5 4.00781,4.5 h 4.18267 c 1.07452,0 2.11632,0.36994 2.95012,1.04762 v 0 c 0.8339,0.67768 1.8756,1.04762 2.9502,1.04762 h 5.9014 C 21.6534,6.59524 23,7.94188 23,9.60305 V 15.5 c 0,3.6451 -2.9549,6.6 -6.6,6.6 H 7.6 C 3.95492,22.1 1,19.1451 1,15.5 Z"
     fill="url(#paint3_linear_201_71)"
     fill-opacity="0.875"
     id="path3"
     style="fill:url(#paint3_linear_201_71)" /><g
     opacity="0.875"
     id="g5"><path
       d="M 1,8.40781 C 1,6.74664 2.34664,5.4 4.00781,5.4 h 4.18267 c 1.07452,0 2.11632,0.36994 2.95012,1.04762 v 0 c 0.8339,0.67768 1.8756,1.04762 2.9502,1.04762 h 5.9014 C 21.6534,7.49524 23,8.84188 23,10.5031 V 16.4 C 23,20.0451 20.0451,23 16.4,23 H 7.6 C 3.95492,23 1,20.0451 1,16.4 Z"
       fill="url(#paint4_linear_201_71)"
       id="path4"
       style="fill:url(#paint4_linear_201_71)" /><path
       d="M 22.625,10.5031 V 16.4 c 0,3.438 -2.787,6.225 -6.225,6.225 H 7.6 C 4.16203,22.625 1.375,19.838 1.375,16.4 V 8.40781 C 1.375,6.95375 2.55375,5.775 4.00781,5.775 h 4.18267 c 0.98838,0 1.94662,0.34028 2.71362,0.96363 0.9007,0.73201 2.026,1.13161 3.1867,1.13161 h 5.9014 c 1.454,0 2.6328,1.17875 2.6328,2.63286 z"
       stroke="url(#paint5_linear_201_71)"
       stroke-opacity="0.375"
       stroke-width="0.75"
       stroke-linejoin="round"
       id="path5"
       style="stroke:url(#paint5_linear_201_71)" /></g><defs
     id="defs17"><linearGradient
       id="paint0_linear_201_71"
       x1="23"
       y1="0.99999899"
       x2="1"
       y2="12"
       gradientUnits="userSpaceOnUse"><stop
         stop-color="#E32A2A"
         id="stop5" /><stop
         offset="1"
         stop-color="#680000"
         id="stop6" /></linearGradient><linearGradient
       id="paint1_linear_201_71"
       x1="21"
       y1="4"
       x2="3"
       y2="4"
       gradientUnits="userSpaceOnUse"><stop
         stop-opacity="0.5"
         id="stop7" /><stop
         offset="0.890123"
         id="stop8" /><stop
         offset="1"
         stop-opacity="0"
         id="stop9" /></linearGradient><linearGradient
       id="paint2_linear_201_71"
       x1="12"
       y1="3"
       x2="11.5"
       y2="8"
       gradientUnits="userSpaceOnUse"><stop
         stop-color="#DDDDDD"
         id="stop10" /><stop
         offset="1"
         stop-color="#CCCCCC"
         stop-opacity="0"
         id="stop11" /></linearGradient><linearGradient
       id="paint3_linear_201_71"
       x1="23"
       y1="9"
       x2="1.01236"
       y2="9.52141"
       gradientUnits="userSpaceOnUse"><stop
         stop-opacity="0.5"
         id="stop12" /><stop
         offset="1"
         id="stop13" /></linearGradient><linearGradient
       id="paint4_linear_201_71"
       x1="23"
       y1="5.4000001"
       x2="1.42949"
       y2="23.511499"
       gradientUnits="userSpaceOnUse"><stop
         stop-color="#FF3838"
         id="stop14" /><stop
         offset="1"
         stop-color="#B71414"
         id="stop15" /></linearGradient><linearGradient
       id="paint5_linear_201_71"
       x1="15"
       y1="5.5"
       x2="5.5"
       y2="19.5"
       gradientUnits="userSpaceOnUse"><stop
         stop-color="#FF8383"
         id="stop16" /><stop
         offset="1"
         stop-color="#680000"
         id="stop17" /></linearGradient><linearGradient
       id="paint6_linear_207_44"
       x1="18.439199"
       y1="8.1073503"
       x2="9.3879299"
       y2="21.114599"
       gradientUnits="userSpaceOnUse"
       gradientTransform="matrix(0.93303702,0,0,0.93303702,0.84038255,0.56918821)"><stop
         stop-color="#E996B1"
         id="stop20" /><stop
         offset="1"
         stop-color="#BC546F"
         id="stop21" /></linearGradient><linearGradient
       id="paint7_linear_207_95"
       x1="16.674999"
       y1="9"
       x2="8.2859201"
       y2="19.754999"
       gradientUnits="userSpaceOnUse"
       gradientTransform="translate(-0.46609738)"><stop
         stop-color="#0BB1CB"
         id="stop30" /><stop
         offset="1"
         stop-color="#006599"
         id="stop31" /></linearGradient><linearGradient
       x1="23"
       y1="0.99999899"
       x2="1"
       y2="12"
       gradientUnits="userSpaceOnUse"
       gradientTransform="scale(0.75)"
       spreadMethod="pad"
       id="linearGradient2"><stop
         style="stop-opacity:1;stop-color:#e32a2a"
         offset="0"
         id="stop1" /><stop
         style="stop-opacity:1;stop-color:#680000"
         offset="1"
         id="stop2" /></linearGradient><linearGradient
       x1="21"
       y1="4"
       x2="3"
       y2="4"
       gradientUnits="userSpaceOnUse"
       gradientTransform="scale(0.75)"
       spreadMethod="pad"
       id="linearGradient8"><stop
         style="stop-opacity:0.43750668;stop-color:#000000"
         offset="0"
         id="stop6-2" /><stop
         style="stop-opacity:0.87501335;stop-color:#000000"
         offset="0.890123"
         id="stop7-6" /><stop
         style="stop-opacity:0;stop-color:#000000"
         offset="1"
         id="stop8-6" /></linearGradient><clipPath
       clipPathUnits="userSpaceOnUse"
       id="clipPath8"><path
         d="M 0,0 H 19 V 19 H 0 Z"
         id="path8" /></clipPath><mask
       maskUnits="userSpaceOnUse"
       x="0"
       y="0"
       width="1"
       height="1"
       id="mask10"><path
         id="path11"
         d="M 0,0 H 18 V 18 H 0 Z"
         style="fill:url(#linearGradient12);fill-opacity:1;fill-rule:nonzero;stroke:none"
         transform="scale(1.3333333)"
         clip-path="url(#clipPath12)" /></mask><linearGradient
       x1="12"
       y1="3"
       x2="11.5"
       y2="8"
       gradientUnits="userSpaceOnUse"
       gradientTransform="matrix(0.75,0,0,-0.75,0,18)"
       spreadMethod="pad"
       id="linearGradient12"><stop
         style="stop-opacity:1;stop-color:#ffffff"
         offset="0"
         id="stop11-4" /><stop
         style="stop-opacity:0;stop-color:#ffffff"
         offset="1"
         id="stop12-9" /></linearGradient><clipPath
       clipPathUnits="userSpaceOnUse"
       id="clipPath12"><path
         d="M 1,1 H 17 V 17 H 1 Z"
         id="path12" /></clipPath><linearGradient
       x1="12"
       y1="3"
       x2="11.5"
       y2="8"
       gradientUnits="userSpaceOnUse"
       gradientTransform="matrix(0.75,0,0,-0.75,0,18)"
       spreadMethod="pad"
       id="linearGradient14"><stop
         style="stop-opacity:1;stop-color:#dddddd"
         offset="0"
         id="stop13-5" /><stop
         style="stop-opacity:1;stop-color:#cccccc"
         offset="1"
         id="stop14-0" /></linearGradient><clipPath
       clipPathUnits="userSpaceOnUse"
       id="clipPath14"><path
         d="M 1,1 H 17 V 17 H 1 Z"
         id="path14" /></clipPath><linearGradient
       x1="23"
       y1="9"
       x2="1.01236"
       y2="9.52141"
       gradientUnits="userSpaceOnUse"
       gradientTransform="scale(0.75)"
       spreadMethod="pad"
       id="linearGradient18"><stop
         style="stop-opacity:0.43750668;stop-color:#000000"
         offset="0"
         id="stop17-4" /><stop
         style="stop-opacity:0.87501335;stop-color:#000000"
         offset="1"
         id="stop18" /></linearGradient><clipPath
       clipPathUnits="userSpaceOnUse"
       id="clipPath18"><path
         d="M 0,0 H 19 V 19 H 0 Z"
         id="path18" /></clipPath><linearGradient
       x1="23"
       y1="5.4000001"
       x2="1.42949"
       y2="23.511499"
       gradientUnits="userSpaceOnUse"
       gradientTransform="scale(0.75)"
       spreadMethod="pad"
       id="linearGradient20"><stop
         style="stop-opacity:1;stop-color:#ff3838"
         offset="0"
         id="stop19" /><stop
         style="stop-opacity:1;stop-color:#b71414"
         offset="1"
         id="stop20-8" /></linearGradient><mask
       maskUnits="userSpaceOnUse"
       x="0"
       y="0"
       width="1"
       height="1"
       id="mask20"><path
         id="path20"
         d="M 0,0 H 18 V 18 H 0 Z"
         style="fill:url(#linearGradient22);fill-opacity:1;fill-rule:nonzero;stroke:none"
         transform="scale(1.3333333)"
         clip-path="url(#clipPath22)" /></mask><linearGradient
       x1="15"
       y1="5.5"
       x2="5.5"
       y2="19.5"
       gradientUnits="userSpaceOnUse"
       gradientTransform="matrix(0.75,0,0,-0.75,0,18)"
       spreadMethod="pad"
       id="linearGradient22"><stop
         style="stop-opacity:0.37500572;stop-color:#ffffff"
         offset="0"
         id="stop21-7" /><stop
         style="stop-opacity:0.37500572;stop-color:#ffffff"
         offset="1"
         id="stop22" /></linearGradient><clipPath
       clipPathUnits="userSpaceOnUse"
       id="clipPath22"><path
         d="M 0,4 H 18 V 18 H 0 Z"
         id="path22" /></clipPath><linearGradient
       x1="15"
       y1="5.5"
       x2="5.5"
       y2="19.5"
       gradientUnits="userSpaceOnUse"
       gradientTransform="matrix(0.75,0,0,-0.75,0,18)"
       spreadMethod="pad"
       id="linearGradient24"><stop
         style="stop-opacity:1;stop-color:#ff8383"
         offset="0"
         id="stop23" /><stop
         style="stop-opacity:1;stop-color:#680000"
         offset="1"
         id="stop24" /></linearGradient><clipPath
       clipPathUnits="userSpaceOnUse"
       id="clipPath24"><path
         d="M 0,4 H 18 V 18 H 0 Z"
         id="path24-1" /></clipPath><clipPath
       clipPathUnits="userSpaceOnUse"
       id="clipPath25"><path
         d="M 0,0 H 19 V 19 H 0 Z"
         transform="scale(1.3333333)"
         id="path25" /></clipPath><clipPath
       clipPathUnits="userSpaceOnUse"
       id="clipPath28"><path
         d="M 0,0 H 19 V 19 H 0 Z"
         id="path28" /></clipPath><linearGradient
       x1="4.2245622"
       y1="9.7728081"
       x2="9.0562277"
       y2="6.5767541"
       gradientUnits="userSpaceOnUse"
       gradientTransform="matrix(2.6660906,0,0,2.6660906,-39.691876,-7.4338263)"
       spreadMethod="pad"
       id="linearGradient30"><stop
         style="stop-opacity:1;stop-color:#713c3c"
         offset="0"
         id="stop29" /><stop
         style="stop-opacity:1;stop-color:#8f4c4c"
         offset="1"
         id="stop30-7" /></linearGradient><clipPath
       clipPathUnits="userSpaceOnUse"
       id="clipPath28-7"><path
         d="M 0,0 H 19 V 19 H 0 Z"
         id="path28-2" /></clipPath></defs><g
     id="g1"
     inkscape:groupmode="layer"
     inkscape:label="1"
     transform="translate(34)"><g
       opacity="0.15"
       id="g29"
       transform="translate(-34.007712,0.01235881)"><path
         d="m 10.566,10.918 c 0.77,0 1.43,-0.688 1.43,-1.578 0,-0.887 -0.664,-1.539 -1.43,-1.539 -0.765,0 -1.429,0.668 -1.429,1.543 0,0.886 0.66,1.574 1.429,1.574 z M 6.449,11 c 0.668,0 1.246,-0.602 1.246,-1.375 0,-0.77 -0.582,-1.34 -1.246,-1.34 -0.664,0 -1.25,0.586 -1.246,1.348 0,0.765 0.578,1.367 1.246,1.367 z M 4.453,14.23 H 7.172 C 6.801,13.691 7.254,12.602 8.023,12.008 7.629,11.746 7.117,11.547 6.445,11.547 c -1.613,0 -2.621,1.191 -2.621,2.183 0,0.321 0.18,0.5 0.629,0.5 z m 3.863,0 h 4.496 c 0.563,0 0.762,-0.16 0.762,-0.476 0,-0.922 -1.156,-2.195 -3.012,-2.195 -1.851,0 -3.007,1.273 -3.007,2.195 0,0.316 0.199,0.476 0.761,0.476 z"
         style="fill:#1a1a1a;fill-opacity:1;fill-rule:nonzero;stroke:none"
         transform="scale(1.3333333)"
         clip-path="url(#clipPath28-7)"
         id="path29" /></g><path
       id="path30"
       d="m -19.518379,14.231025 c 1.026667,0 1.906667,-0.916 1.906667,-2.109332 0,-1.177333 -0.885334,-2.046668 -1.906667,-2.046668 -1.02,0 -1.905333,0.890667 -1.905333,2.057335 0,1.182665 0.88,2.098665 1.905333,2.098665 z m -5.489333,0.109335 c 0.885333,0 1.661333,-0.801335 1.661333,-1.833335 0,-1.025333 -0.781333,-1.786666 -1.661333,-1.786666 -0.885334,0 -1.666667,0.781333 -1.661334,1.797333 0,1.021333 0.770667,1.822667 1.661334,1.822668 z m -2.661333,4.307999 h 3.625333 c -0.494667,-0.718667 0.109333,-2.172 1.134666,-2.964 -0.530666,-0.349334 -1.213333,-0.614667 -2.104,-0.614667 -2.150666,0 -3.494666,1.588 -3.494666,2.912 0,0.426667 0.24,0.666667 0.838667,0.666667 z m 5.150666,0 h 5.994667 c 0.750666,0 1.016,-0.214667 1.016,-0.636 0,-1.229334 -1.541334,-2.926667 -4.016,-2.926667 -2.468,0 -4.010667,1.697333 -4.010667,2.926667 0,0.421333 0.266667,0.636 1.016,0.636 z"
       style="fill:url(#linearGradient30);stroke:none;stroke-width:1.33333" /></g></svg>
