<?xml version="1.0" encoding="UTF-8" standalone="no"?>
<svg
   width="24"
   height="24"
   viewBox="0 0 24 24"
   fill="none"
   version="1.1"
   id="svg17"
   sodipodi:docname="red-folder-recent.svg"
   inkscape:version="1.3 (0e150ed6c4, 2023-07-21)"
   xmlns:inkscape="http://www.inkscape.org/namespaces/inkscape"
   xmlns:sodipodi="http://sodipodi.sourceforge.net/DTD/sodipodi-0.dtd"
   xmlns="http://www.w3.org/2000/svg"
   xmlns:svg="http://www.w3.org/2000/svg">
  <sodipodi:namedview
     id="namedview17"
     pagecolor="#ffffff"
     bordercolor="#000000"
     borderopacity="0.25"
     inkscape:showpageshadow="2"
     inkscape:pageopacity="0.0"
     inkscape:pagecheckerboard="0"
     inkscape:deskcolor="#d1d1d1"
     inkscape:zoom="11.947158"
     inkscape:cx="9.7512728"
     inkscape:cy="11.509013"
     inkscape:window-width="1280"
     inkscape:window-height="998"
     inkscape:window-x="0"
     inkscape:window-y="0"
     inkscape:window-maximized="0"
     inkscape:current-layer="svg17" />
  <rect
     opacity="0.8125"
     x="1"
     y="1"
     width="22"
     height="22"
     rx="6.6"
     fill="url(#paint0_linear_201_71)"
     id="rect1" />
  <rect
     opacity="0.125"
     x="3"
     y="2.25"
     width="18"
     height="18"
     rx="4.4"
     fill="url(#paint1_linear_201_71)"
     fill-opacity="0.875"
     id="rect2" />
  <rect
     x="3.25"
     y="3.25"
     width="17.5"
     height="17.5"
     rx="4.15"
     fill="#CCCCCC"
     stroke="url(#paint2_linear_201_71)"
     stroke-width="0.5"
     id="rect3" />
  <path
     opacity="0.125"
     d="M1 7.50781C1 5.84664 2.34664 4.5 4.00781 4.5H8.19048C9.265 4.5 10.3068 4.86994 11.1406 5.54762V5.54762C11.9745 6.2253 13.0162 6.59524 14.0908 6.59524H19.9922C21.6534 6.59524 23 7.94188 23 9.60305V15.5C23 19.1451 20.0451 22.1 16.4 22.1H7.6C3.95492 22.1 1 19.1451 1 15.5V7.50781Z"
     fill="url(#paint3_linear_201_71)"
     fill-opacity="0.875"
     id="path3" />
  <g
     opacity="0.875"
     id="g5">
    <path
       d="M1 8.40781C1 6.74664 2.34664 5.4 4.00781 5.4H8.19048C9.265 5.4 10.3068 5.76994 11.1406 6.44762V6.44762C11.9745 7.1253 13.0162 7.49524 14.0908 7.49524H19.9922C21.6534 7.49524 23 8.84188 23 10.5031V16.4C23 20.0451 20.0451 23 16.4 23H7.6C3.95492 23 1 20.0451 1 16.4V8.40781Z"
       fill="url(#paint4_linear_201_71)"
       id="path4" />
    <path
       d="M22.625 10.5031V16.4C22.625 19.838 19.838 22.625 16.4 22.625H7.6C4.16203 22.625 1.375 19.838 1.375 16.4V8.40781C1.375 6.95375 2.55375 5.775 4.00781 5.775H8.19048C9.17886 5.775 10.1371 6.11528 10.9041 6.73863C11.8048 7.47064 12.9301 7.87024 14.0908 7.87024H19.9922C21.4462 7.87024 22.625 9.04899 22.625 10.5031Z"
       stroke="url(#paint5_linear_201_71)"
       stroke-opacity="0.375"
       stroke-width="0.75"
       stroke-linejoin="round"
       id="path5" />
  </g>
  <defs
     id="defs17">
    <linearGradient
       id="paint0_linear_201_71"
       x1="23"
       y1="0.999999"
       x2="1"
       y2="12"
       gradientUnits="userSpaceOnUse">
      <stop
         stop-color="#E32A2A"
         id="stop5" />
      <stop
         offset="1"
         stop-color="#680000"
         id="stop6" />
    </linearGradient>
    <linearGradient
       id="paint1_linear_201_71"
       x1="21"
       y1="4"
       x2="3"
       y2="4"
       gradientUnits="userSpaceOnUse">
      <stop
         stop-opacity="0.5"
         id="stop7" />
      <stop
         offset="0.890123"
         id="stop8" />
      <stop
         offset="1"
         stop-opacity="0"
         id="stop9" />
    </linearGradient>
    <linearGradient
       id="paint2_linear_201_71"
       x1="12"
       y1="3"
       x2="11.5"
       y2="8"
       gradientUnits="userSpaceOnUse">
      <stop
         stop-color="#DDDDDD"
         id="stop10" />
      <stop
         offset="1"
         stop-color="#CCCCCC"
         stop-opacity="0"
         id="stop11" />
    </linearGradient>
    <linearGradient
       id="paint3_linear_201_71"
       x1="23"
       y1="9"
       x2="1.01236"
       y2="9.52141"
       gradientUnits="userSpaceOnUse">
      <stop
         stop-opacity="0.5"
         id="stop12" />
      <stop
         offset="1"
         id="stop13" />
    </linearGradient>
    <linearGradient
       id="paint4_linear_201_71"
       x1="23"
       y1="5.4"
       x2="1.42949"
       y2="23.5115"
       gradientUnits="userSpaceOnUse">
      <stop
         stop-color="#FF3838"
         id="stop14" />
      <stop
         offset="1"
         stop-color="#B71414"
         id="stop15" />
    </linearGradient>
    <linearGradient
       id="paint5_linear_201_71"
       x1="15"
       y1="5.5"
       x2="5.5"
       y2="19.5"
       gradientUnits="userSpaceOnUse">
      <stop
         stop-color="#FF8383"
         id="stop16" />
      <stop
         offset="1"
         stop-color="#680000"
         id="stop17" />
    </linearGradient>
    <linearGradient
       id="a"
       x1="-240.47"
       x2="-240.47"
       y1="-60.605"
       y2="-29.025999"
       gradientTransform="matrix(0.96667,0,0,0.95,262.45,67.575)"
       gradientUnits="userSpaceOnUse">
      <stop
         stop-color="#4285db"
         offset="0"
         id="stop13351" />
      <stop
         stop-color="#42b9db"
         offset="1"
         id="stop13353" />
    </linearGradient>
    <linearGradient
       id="b"
       x1="10.583"
       x2="225.69"
       y1="-184.67999"
       y2="-184.67999"
       gradientTransform="matrix(0.11417,0,0,0.11417,18.557,59.5)"
       gradientUnits="userSpaceOnUse">
      <stop
         stop-color="#fafbfb"
         offset="0"
         id="stop13356" />
      <stop
         stop-color="#fafbfb"
         stop-opacity="0"
         offset="1"
         id="stop13358" />
    </linearGradient>
    <linearGradient
       id="c"
       x1="520"
       x2="410"
       y1="-620"
       y2="-620"
       gradientTransform="matrix(0.0302,0,0,0.0302,18.557,59.5)"
       gradientUnits="userSpaceOnUse">
      <stop
         offset="0"
         id="stop13361" />
      <stop
         stop-opacity="0"
         offset="1"
         id="stop13363" />
    </linearGradient>
    <radialGradient
       id="paint0_radial_2_164-4"
       cx="0"
       cy="0"
       r="1"
       gradientUnits="userSpaceOnUse"
       gradientTransform="matrix(0,22,-22,0,32,1.00004)">
      <stop
         stop-color="#C5FFFE"
         id="stop8570-4" />
      <stop
         offset="1"
         stop-color="#00FFFF"
         id="stop8572-3" />
    </radialGradient>
    <radialGradient
       id="paint1_radial_2_164-8"
       cx="0"
       cy="0"
       r="1"
       gradientUnits="userSpaceOnUse"
       gradientTransform="matrix(3.8397244e-5,22,-22,3.8397244e-5,-8,1)">
      <stop
         stop-color="#58C6E3"
         id="stop8575-6" />
      <stop
         offset="1"
         stop-color="#034DB0"
         id="stop8577-8" />
    </radialGradient>
  </defs>
  <path
     id="path20"
     style="opacity:0.15;fill:#1a1a1a;fill-opacity:1;fill-rule:nonzero;stroke:none;stroke-width:1.52988"
     d="m 12.540685,9.558411 c -0.277682,-0.01107 -0.513288,0.2027881 -0.523438,0.480469 -0.01107,0.273068 0.202788,0.506508 0.480469,0.517578 -0.06128,-0.0025 -0.121712,-0.0039 -0.183594,-0.0039 -2.304978,0 -4.2075368,1.736386 -4.4726558,3.970703 L 7.7067,14.388489 c -0.01066,-0.01314 -0.02305,-0.02489 -0.03516,-0.03711 -0.02445,-0.02421 -0.05029,-0.04607 -0.07813,-0.06445 -0.02769,-0.01851 -0.05585,-0.03454 -0.08594,-0.04687 h -0.002 c -0.01508,-0.0062 -0.02946,-0.01095 -0.04492,-0.01563 -0.06184,-0.01851 -0.1256931,-0.0257 -0.1894541,-0.01953 -0.01544,0.0015 -0.03364,0.0049 -0.04883,0.0078 -0.01517,0.003 -0.03204,0.0073 -0.04687,0.01172 -0.07666,0.02325 -0.148611,0.06572 -0.2089841,0.126953 l -1.6074221,1.603516 c -0.1946529,0.198343 -0.1946529,0.514332 0,0.708984 0.194654,0.194653 0.5123782,0.194653 0.7070312,0 l 0.796875,-0.796874 c 0.145664,0.97733 0.550377,1.88326 1.148438,2.628906 0.713114,0.893006 1.7073531,1.559386 2.8632811,1.873047 1.524667,0.409648 3.109787,0.137013 4.382813,-0.673829 0.05956,-0.03806 0.118062,-0.07713 0.175781,-0.117187 0.0034,-0.0024 0.0063,-0.0054 0.0098,-0.0078 0.05565,-0.03881 0.110163,-0.07853 0.164063,-0.11914 0.0052,-0.0039 0.01046,-0.0078 0.01563,-0.01172 0.0085,-0.0065 0.0169,-0.01301 0.02539,-0.01953 0.04989,-0.03825 0.09977,-0.07715 0.148437,-0.117188 0.02249,-0.01854 0.04425,-0.03779 0.06641,-0.05664 0.02688,-0.02285 0.0536,-0.04496 0.08008,-0.06836 0.05421,-0.04795 0.108089,-0.09666 0.160157,-0.146484 0.0073,-0.007 0.01424,-0.01448 0.02148,-0.02148 0.04544,-0.04397 0.091,-0.08746 0.134766,-0.132813 0.0067,-0.0069 0.01286,-0.0145 0.01953,-0.02148 0.0441,-0.04618 0.08655,-0.09308 0.128906,-0.140625 0.0058,-0.0065 0.01182,-0.013 0.01758,-0.01953 0.04302,-0.04875 0.08578,-0.09834 0.126953,-0.148437 0.0047,-0.0057 0.009,-0.01182 0.01367,-0.01758 0.04207,-0.05161 0.08295,-0.103279 0.123047,-0.15625 0.0034,-0.0044 0.0064,-0.0092 0.0098,-0.01367 0.01147,-0.01525 0.0219,-0.03152 0.0332,-0.04687 0.04467,-0.06076 0.08844,-0.122591 0.130859,-0.185547 0.02726,-0.04038 0.05587,-0.08006 0.08203,-0.121094 v -0.002 c 0.192741,-0.302509 0.355732,-0.621015 0.486328,-0.953125 0.414214,-1.066442 0.497469,-2.259381 0.1875,-3.419922 h 0.002 C 16.997134,11.313287 14.941102,9.6626568 12.540685,9.558411 Z m -4.6367188,6.441406 0.0059,0.0059 c 0.1068599,0.497579 0.294283,0.966787 0.550782,1.388672 0.263567,0.433513 0.5987861,0.819108 0.9882808,1.140625 0.05564,0.04593 0.112089,0.08955 0.169922,0.132813 0.05783,0.04327 0.115852,0.08449 0.175781,0.125 -0.05985,-0.0402 -0.118119,-0.08211 -0.175781,-0.125 C 9.561001,18.624767 9.504496,18.580607 9.448928,18.534973 9.0567702,18.212955 8.7233603,17.826481 8.4606073,17.394348 8.2015772,16.968342 8.0104002,16.499255 7.9039662,15.999817 Z" />
  <g
     id="g20"
     transform="matrix(0.69189653,0,0,0.69189653,28.412398,7.5829889)">
    <path
       d="m -16.046297,10.086045 c 0,3.593111 -2.918711,6.511822 -6.511821,6.511822 -3.593111,0 -6.511822,-2.918711 -6.511822,-6.511822 0,-3.5931102 2.918711,-6.5118215 6.511822,-6.5118215 3.59311,0 6.511821,2.9187113 6.511821,6.5118215 z"
       style="fill:#cc5e55;fill-opacity:1;fill-rule:nonzero;stroke:none;stroke-width:2.21114"
       id="path16483" />
    <path
       d="m -22.688576,6.287248 c 0.199003,0 0.362628,0.1636253 0.362628,0.3626279 v 3.3852631 c 0,0.199003 -0.16363,0.362627 -0.362628,0.362627 -0.196792,0 -0.362628,-0.163631 -0.362628,-0.362627 V 6.6498759 c 0,-0.1990031 0.165836,-0.3626279 0.362628,-0.3626279 z"
       style="fill:#ffffff;fill-opacity:1;fill-rule:nonzero;stroke:none;stroke-width:2.21114"
       id="path16485" />
    <path
       d="m -22.885368,9.8450304 c 0.137096,-0.1481462 0.371472,-0.1481462 0.508564,0 l 2.392459,2.3924576 c 0.145935,0.137097 0.145935,0.371473 0,0.508564 -0.137097,0.148141 -0.371472,0.148141 -0.508564,0 l -2.392459,-2.392459 c -0.139302,-0.137097 -0.139302,-0.3714724 0,-0.5085626 z"
       style="fill:#ffffff;fill-opacity:1;fill-rule:nonzero;stroke:none;stroke-width:2.21114"
       id="path16487" />
    <path
       d="m -28.776785,15.05424 c -1.032,-1.286667 -1.666666,-2.901334 -1.74,-4.630667 -0.01467,-0.401333 0.292,-0.7399995 0.693334,-0.7546665 0.401333,-0.016 0.734666,0.290667 0.754666,0.6919995 0.12,2.838667 2.062667,5.265334 4.808,6.005334 2.749333,0.734666 5.645333,-0.396 7.172,-2.792 0.213333,-0.338667 0.661333,-0.437334 1,-0.224 0.337333,0.213333 0.437333,0.661333 0.224,0.994666 -1.865333,2.933334 -5.417333,4.318667 -8.772,3.417334 -1.670667,-0.453334 -3.109333,-1.417334 -4.14,-2.708 z"
       style="fill:#fafafa;fill-opacity:1;fill-rule:nonzero;stroke:none;stroke-width:1.33333"
       id="path16489" />
    <path
       d="m -29.776785,8.8502395 c -0.188,0 -0.369333,0.07333 -0.510666,0.213334 -0.286667,0.281333 -0.286667,0.74 0,1.0213335 l 2.317333,2.322666 c 0.286666,0.281333 0.74,0.281333 1.026666,0 0.281334,-0.286667 0.281334,-0.738667 0,-1.02 l -2.322666,-2.3239995 c -0.141333,-0.14 -0.328,-0.213334 -0.510667,-0.213334 z"
       style="fill:#fafafa;fill-opacity:1;fill-rule:nonzero;stroke:none;stroke-width:1.33333"
       id="path16491" />
    <path
       d="m -29.052785,9.5742395 c 0,-0.182666 -0.07333,-0.369333 -0.213333,-0.510666 -0.281333,-0.285334 -0.74,-0.285334 -1.021333,0 l -2.322667,2.3186665 c -0.281333,0.286666 -0.281333,0.744 0,1.025333 0.281333,0.281333 0.74,0.281333 1.021333,0 l 2.322667,-2.322666 c 0.14,-0.1400005 0.213333,-0.3226675 0.213333,-0.5106675 z"
       style="fill:#fafafa;fill-opacity:1;fill-rule:nonzero;stroke:none;stroke-width:1.33333"
       id="path16493" />
    <path
       d="m -15.162118,12.964906 c -0.604,1.536 -1.682667,2.890667 -3.141334,3.822667 -0.337333,0.214667 -0.785333,0.114667 -1,-0.224 -0.213333,-0.338667 -0.114666,-0.785333 0.224,-1 2.396,-1.525333 3.526667,-4.421333 2.792,-7.1666665 -0.734666,-2.749333 -3.161333,-4.692 -6.005333,-4.817333 -0.401333,-0.016 -0.708,-0.354667 -0.692,-0.749334 0.01467,-0.401333 0.353333,-0.709333 0.754667,-0.693333 3.469333,0.150667 6.442666,2.536 7.344,5.885333 h -0.0053 c 0.448,1.677334 0.328,3.4013335 -0.270666,4.9426665 z"
       style="fill:#fafafa;fill-opacity:1;fill-rule:nonzero;stroke:none;stroke-width:1.33333"
       id="path16495" />
  </g>
</svg>
