<?xml version="1.0" encoding="UTF-8" standalone="no"?>
<svg
   width="64"
   height="64"
   version="1.1"
   viewBox="0 0 16.933 16.933"
   id="svg7"
   sodipodi:docname="red-folder-move.svg"
   xml:space="preserve"
   inkscape:version="1.3 (0e150ed6c4, 2023-07-21)"
   xmlns:inkscape="http://www.inkscape.org/namespaces/inkscape"
   xmlns:sodipodi="http://sodipodi.sourceforge.net/DTD/sodipodi-0.dtd"
   xmlns:xlink="http://www.w3.org/1999/xlink"
   xmlns="http://www.w3.org/2000/svg"
   xmlns:svg="http://www.w3.org/2000/svg"><sodipodi:namedview
     id="namedview7"
     pagecolor="#ffffff"
     bordercolor="#000000"
     borderopacity="0.25"
     inkscape:showpageshadow="2"
     inkscape:pageopacity="0.0"
     inkscape:pagecheckerboard="0"
     inkscape:deskcolor="#d1d1d1"
     inkscape:zoom="6.3359375"
     inkscape:cx="22.175092"
     inkscape:cy="24.54254"
     inkscape:window-width="2560"
     inkscape:window-height="998"
     inkscape:window-x="0"
     inkscape:window-y="0"
     inkscape:window-maximized="1"
     inkscape:current-layer="svg7" /><defs
     id="defs1"><filter
       id="filter962"
       x="-0.096307119"
       y="-0.12292382"
       width="1.1926142"
       height="1.2458476"
       color-interpolation-filters="sRGB"><feGaussianBlur
         stdDeviation="0.38221166"
         id="feGaussianBlur1" /></filter><linearGradient
       id="paint0_linear_201_71"
       x1="23"
       y1="0.999999"
       x2="1"
       y2="12"
       gradientUnits="userSpaceOnUse"><stop
         stop-color="#E32A2A"
         id="stop5" /><stop
         offset="1"
         stop-color="#680000"
         id="stop6" /></linearGradient><linearGradient
       id="paint1_linear_201_71"
       x1="21"
       y1="4"
       x2="3"
       y2="4"
       gradientUnits="userSpaceOnUse"><stop
         stop-opacity="0.5"
         id="stop7" /><stop
         offset="0.890123"
         id="stop8" /><stop
         offset="1"
         stop-opacity="0"
         id="stop9" /></linearGradient><linearGradient
       id="paint2_linear_201_71"
       x1="12"
       y1="3"
       x2="11.5"
       y2="8"
       gradientUnits="userSpaceOnUse"><stop
         stop-color="#DDDDDD"
         id="stop10" /><stop
         offset="1"
         stop-color="#CCCCCC"
         stop-opacity="0"
         id="stop11" /></linearGradient><linearGradient
       id="paint3_linear_201_71"
       x1="23"
       y1="9"
       x2="1.01236"
       y2="9.52141"
       gradientUnits="userSpaceOnUse"><stop
         stop-opacity="0.5"
         id="stop12" /><stop
         offset="1"
         id="stop13" /></linearGradient><linearGradient
       id="paint4_linear_201_71"
       x1="23"
       y1="5.4"
       x2="1.42949"
       y2="23.5115"
       gradientUnits="userSpaceOnUse"><stop
         stop-color="#FF3838"
         id="stop14" /><stop
         offset="1"
         stop-color="#B71414"
         id="stop15" /></linearGradient><linearGradient
       id="paint5_linear_201_71"
       x1="15"
       y1="5.5"
       x2="5.5"
       y2="19.5"
       gradientUnits="userSpaceOnUse"><stop
         stop-color="#FF8383"
         id="stop16" /><stop
         offset="1"
         stop-color="#680000"
         id="stop17" /></linearGradient><linearGradient
       id="paint0_linear_215_10"
       x1="23"
       y1="0.99999899"
       x2="1"
       y2="12"
       gradientUnits="userSpaceOnUse"><stop
         stop-color="#E3C880"
         id="stop5-6" /><stop
         offset="1"
         stop-color="#6F5C38"
         id="stop6-4" /></linearGradient><linearGradient
       id="paint1_linear_215_10"
       x1="21"
       y1="4"
       x2="3"
       y2="4"
       gradientUnits="userSpaceOnUse"><stop
         stop-opacity="0.5"
         id="stop7-9" /><stop
         offset="0.890123"
         id="stop8-5" /><stop
         offset="1"
         stop-opacity="0"
         id="stop9-0" /></linearGradient><linearGradient
       id="paint2_linear_215_10"
       x1="12"
       y1="3"
       x2="11.5"
       y2="8"
       gradientUnits="userSpaceOnUse"><stop
         stop-color="#DDDDDD"
         id="stop10-5" /><stop
         offset="1"
         stop-color="#CCCCCC"
         stop-opacity="0"
         id="stop11-6" /></linearGradient><linearGradient
       id="paint3_linear_215_10"
       x1="23"
       y1="9"
       x2="1.01236"
       y2="9.52141"
       gradientUnits="userSpaceOnUse"><stop
         stop-opacity="0.5"
         id="stop12-9" /><stop
         offset="1"
         id="stop13-3" /></linearGradient><linearGradient
       id="paint4_linear_215_10"
       x1="23"
       y1="5.4000001"
       x2="1.42949"
       y2="23.511499"
       gradientUnits="userSpaceOnUse"><stop
         stop-color="#FFE795"
         id="stop14-7" /><stop
         offset="1"
         stop-color="#7A653E"
         id="stop15-4" /></linearGradient><linearGradient
       id="paint5_linear_215_10"
       x1="15"
       y1="5.5"
       x2="5.5"
       y2="19.5"
       gradientUnits="userSpaceOnUse"><stop
         stop-color="#FFE795"
         id="stop16-5" /><stop
         offset="1"
         stop-color="#7A653E"
         id="stop17-2" /></linearGradient><linearGradient
       inkscape:collect="always"
       xlink:href="#paint0_linear_201_71"
       id="linearGradient17"
       gradientUnits="userSpaceOnUse"
       x1="23"
       y1="0.999999"
       x2="1"
       y2="12" /><linearGradient
       inkscape:collect="always"
       xlink:href="#paint1_linear_201_71"
       id="linearGradient18"
       gradientUnits="userSpaceOnUse"
       x1="21"
       y1="4"
       x2="3"
       y2="4" /><linearGradient
       inkscape:collect="always"
       xlink:href="#paint2_linear_201_71"
       id="linearGradient19"
       gradientUnits="userSpaceOnUse"
       x1="12"
       y1="3"
       x2="11.5"
       y2="8" /><linearGradient
       inkscape:collect="always"
       xlink:href="#paint3_linear_201_71"
       id="linearGradient20"
       gradientUnits="userSpaceOnUse"
       x1="23"
       y1="9"
       x2="1.01236"
       y2="9.52141" /><linearGradient
       inkscape:collect="always"
       xlink:href="#paint4_linear_201_71"
       id="linearGradient21"
       gradientUnits="userSpaceOnUse"
       x1="23"
       y1="5.4"
       x2="1.42949"
       y2="23.5115" /><linearGradient
       inkscape:collect="always"
       xlink:href="#paint5_linear_201_71"
       id="linearGradient22"
       gradientUnits="userSpaceOnUse"
       x1="15"
       y1="5.5"
       x2="5.5"
       y2="19.5" /><linearGradient
       inkscape:collect="always"
       xlink:href="#paint0_linear_201_71"
       id="linearGradient31"
       gradientUnits="userSpaceOnUse"
       x1="23"
       y1="0.999999"
       x2="1"
       y2="12" /><linearGradient
       inkscape:collect="always"
       xlink:href="#paint1_linear_201_71"
       id="linearGradient32"
       gradientUnits="userSpaceOnUse"
       x1="21"
       y1="4"
       x2="3"
       y2="4" /><linearGradient
       inkscape:collect="always"
       xlink:href="#paint2_linear_201_71"
       id="linearGradient33"
       gradientUnits="userSpaceOnUse"
       x1="12"
       y1="3"
       x2="11.5"
       y2="8" /><linearGradient
       inkscape:collect="always"
       xlink:href="#paint3_linear_201_71"
       id="linearGradient34"
       gradientUnits="userSpaceOnUse"
       x1="23"
       y1="9"
       x2="1.01236"
       y2="9.52141" /><linearGradient
       inkscape:collect="always"
       xlink:href="#paint4_linear_201_71"
       id="linearGradient35"
       gradientUnits="userSpaceOnUse"
       x1="23"
       y1="5.4"
       x2="1.42949"
       y2="23.5115" /><linearGradient
       inkscape:collect="always"
       xlink:href="#paint5_linear_201_71"
       id="linearGradient36"
       gradientUnits="userSpaceOnUse"
       x1="15"
       y1="5.5"
       x2="5.5"
       y2="19.5" /></defs><g
     style="fill:none"
     id="g27"
     transform="matrix(0.42306994,0,0,0.42306994,1.2913055,5.9264791)"><rect
       opacity="0.8125"
       x="1"
       y="1"
       width="22"
       height="22"
       rx="6.5999999"
       fill="url(#paint0_linear_201_71)"
       id="rect22"
       style="fill:url(#linearGradient31)" /><rect
       opacity="0.125"
       x="3"
       y="2.25"
       width="18"
       height="18"
       rx="4.4000001"
       fill="url(#paint1_linear_201_71)"
       fill-opacity="0.875"
       id="rect23"
       style="fill:url(#linearGradient32)" /><rect
       x="3.25"
       y="3.25"
       width="17.5"
       height="17.5"
       rx="4.1500001"
       fill="#cccccc"
       stroke="url(#paint2_linear_201_71)"
       stroke-width="0.5"
       id="rect24"
       style="stroke:url(#linearGradient33)" /><path
       opacity="0.125"
       d="M 1,7.50781 C 1,5.84664 2.34664,4.5 4.00781,4.5 h 4.18267 c 1.07452,0 2.11632,0.36994 2.95012,1.04762 v 0 c 0.8339,0.67768 1.8756,1.04762 2.9502,1.04762 h 5.9014 C 21.6534,6.59524 23,7.94188 23,9.60305 V 15.5 c 0,3.6451 -2.9549,6.6 -6.6,6.6 H 7.6 C 3.95492,22.1 1,19.1451 1,15.5 Z"
       fill="url(#paint3_linear_201_71)"
       fill-opacity="0.875"
       id="path24"
       style="fill:url(#linearGradient34)" /><g
       opacity="0.875"
       id="g26"><path
         d="M 1,8.40781 C 1,6.74664 2.34664,5.4 4.00781,5.4 h 4.18267 c 1.07452,0 2.11632,0.36994 2.95012,1.04762 v 0 c 0.8339,0.67768 1.8756,1.04762 2.9502,1.04762 h 5.9014 C 21.6534,7.49524 23,8.84188 23,10.5031 V 16.4 C 23,20.0451 20.0451,23 16.4,23 H 7.6 C 3.95492,23 1,20.0451 1,16.4 Z"
         fill="url(#paint4_linear_201_71)"
         id="path25"
         style="fill:url(#linearGradient35)" /><path
         d="M 22.625,10.5031 V 16.4 c 0,3.438 -2.787,6.225 -6.225,6.225 H 7.6 C 4.16203,22.625 1.375,19.838 1.375,16.4 V 8.40781 C 1.375,6.95375 2.55375,5.775 4.00781,5.775 h 4.18267 c 0.98838,0 1.94662,0.34028 2.71362,0.96363 0.9007,0.73201 2.026,1.13161 3.1867,1.13161 h 5.9014 c 1.454,0 2.6328,1.17875 2.6328,2.63286 z"
         stroke="url(#paint5_linear_201_71)"
         stroke-opacity="0.375"
         stroke-width="0.75"
         stroke-linejoin="round"
         id="path26"
         style="stroke:url(#linearGradient36)" /></g></g><g
     style="fill:none"
     id="g17"
     transform="matrix(0.42306994,0,0,0.42306994,5.5297745,0.93635945)"><rect
       opacity="0.8125"
       x="1"
       y="1"
       width="22"
       height="22"
       rx="6.5999999"
       fill="url(#paint0_linear_201_71)"
       id="rect12"
       style="fill:url(#linearGradient17)" /><rect
       opacity="0.125"
       x="3"
       y="2.25"
       width="18"
       height="18"
       rx="4.4000001"
       fill="url(#paint1_linear_201_71)"
       fill-opacity="0.875"
       id="rect13"
       style="fill:url(#linearGradient18)" /><rect
       x="3.25"
       y="3.25"
       width="17.5"
       height="17.5"
       rx="4.1500001"
       fill="#cccccc"
       stroke="url(#paint2_linear_201_71)"
       stroke-width="0.5"
       id="rect14"
       style="stroke:url(#linearGradient19)" /><path
       opacity="0.125"
       d="M 1,7.50781 C 1,5.84664 2.34664,4.5 4.00781,4.5 h 4.18267 c 1.07452,0 2.11632,0.36994 2.95012,1.04762 v 0 c 0.8339,0.67768 1.8756,1.04762 2.9502,1.04762 h 5.9014 C 21.6534,6.59524 23,7.94188 23,9.60305 V 15.5 c 0,3.6451 -2.9549,6.6 -6.6,6.6 H 7.6 C 3.95492,22.1 1,19.1451 1,15.5 Z"
       fill="url(#paint3_linear_201_71)"
       fill-opacity="0.875"
       id="path14"
       style="fill:url(#linearGradient20)" /><g
       opacity="0.875"
       id="g16"><path
         d="M 1,8.40781 C 1,6.74664 2.34664,5.4 4.00781,5.4 h 4.18267 c 1.07452,0 2.11632,0.36994 2.95012,1.04762 v 0 c 0.8339,0.67768 1.8756,1.04762 2.9502,1.04762 h 5.9014 C 21.6534,7.49524 23,8.84188 23,10.5031 V 16.4 C 23,20.0451 20.0451,23 16.4,23 H 7.6 C 3.95492,23 1,20.0451 1,16.4 Z"
         fill="url(#paint4_linear_201_71)"
         id="path15"
         style="fill:url(#linearGradient21)" /><path
         d="M 22.625,10.5031 V 16.4 c 0,3.438 -2.787,6.225 -6.225,6.225 H 7.6 C 4.16203,22.625 1.375,19.838 1.375,16.4 V 8.40781 C 1.375,6.95375 2.55375,5.775 4.00781,5.775 h 4.18267 c 0.98838,0 1.94662,0.34028 2.71362,0.96363 0.9007,0.73201 2.026,1.13161 3.1867,1.13161 h 5.9014 c 1.454,0 2.6328,1.17875 2.6328,2.63286 z"
         stroke="url(#paint5_linear_201_71)"
         stroke-opacity="0.375"
         stroke-width="0.75"
         stroke-linejoin="round"
         id="path16"
         style="stroke:url(#linearGradient22)" /></g></g></svg>
