<svg width="24" height="24" viewBox="0 0 24 24" fill="none" xmlns="http://www.w3.org/2000/svg">
<rect x="1" y="1" width="22" height="22" rx="6.6" fill="url(#paint0_linear_37_70)"/>
<g opacity="0.3">
<path d="M9.19289 10.6915C8.97565 10.6915 8.80081 10.8762 8.80081 11.1057V13.2478C8.79555 13.3073 8.79682 13.3808 8.66434 13.4204C8.57271 13.4383 8.4899 13.4895 8.43028 13.5652C8.37066 13.6408 8.33799 13.7361 8.33792 13.8345C8.33798 13.9449 8.37903 14.0509 8.45225 14.1296C8.52546 14.2084 8.625 14.2536 8.72948 14.2557V14.2561C8.73135 14.2561 8.73326 14.256 8.73513 14.256C8.73572 14.256 8.73631 14.256 8.7369 14.2561C8.73805 14.256 8.7392 14.256 8.74035 14.256C9.07086 14.2514 9.57273 14.0358 9.58453 13.2739C9.58487 13.2668 9.58505 13.2597 9.58505 13.2525V11.1057C9.58505 10.8763 9.41013 10.6915 9.19289 10.6915Z" fill="#181818"/>
<path d="M11.4599 10.7443C11.2427 10.7443 11.0677 10.9291 11.0677 11.1586V14.9306C11.0677 15.1601 11.2427 15.3448 11.4599 15.3448C11.6772 15.3448 11.852 15.1601 11.852 14.9306V11.1586C11.852 10.9291 11.6772 10.7443 11.4599 10.7443Z" fill="#181818"/>
<path d="M10.3242 10.7323C10.107 10.7323 9.93212 10.917 9.93212 11.1465V14.0534C9.92687 14.113 9.92813 14.1864 9.79565 14.226C9.60659 14.263 9.46936 14.4371 9.46923 14.6402C9.46936 14.8698 9.64345 15.0571 9.86079 15.0613V15.0617C9.86265 15.0617 9.86457 15.0616 9.86645 15.0616C9.86696 15.0616 9.86765 15.0617 9.86821 15.0617C9.86941 15.0617 9.87052 15.0617 9.87167 15.0616C10.2022 15.057 10.704 14.8415 10.7159 14.0795C10.7162 14.0725 10.7164 14.0653 10.7164 14.0582V11.1465C10.7164 10.917 10.5414 10.7323 10.3242 10.7323Z" fill="#181818"/>
<path d="M13.7123 10.6915C13.9295 10.6915 14.1044 10.8762 14.1044 11.1057V13.2478C14.1096 13.3073 14.1084 13.3808 14.2408 13.4204C14.3325 13.4383 14.4153 13.4895 14.4749 13.5652C14.5345 13.6408 14.5672 13.7361 14.5673 13.8345C14.5672 13.9449 14.5261 14.0509 14.4529 14.1296C14.3797 14.2084 14.2802 14.2536 14.1757 14.2557V14.2561C14.1738 14.2561 14.1719 14.256 14.17 14.256C14.1695 14.256 14.1689 14.256 14.1683 14.2561C14.1671 14.256 14.166 14.256 14.1648 14.256C13.8343 14.2514 13.3324 14.0358 13.3206 13.2739C13.3203 13.2668 13.3201 13.2597 13.3201 13.2525V11.1057C13.3201 10.8763 13.495 10.6915 13.7123 10.6915Z" fill="#181818"/>
<path d="M12.581 10.7323C12.7982 10.7323 12.9731 10.917 12.9731 11.1465V14.0534C12.9783 14.113 12.977 14.1864 13.1095 14.226C13.2986 14.263 13.4358 14.4371 13.4359 14.6402C13.4358 14.8698 13.2617 15.0571 13.0444 15.0613V15.0617C13.0425 15.0617 13.0406 15.0616 13.0387 15.0616C13.0382 15.0616 13.0375 15.0617 13.037 15.0617C13.0358 15.0617 13.0347 15.0617 13.0335 15.0616C12.703 15.057 12.2011 14.8415 12.1893 14.0795C12.189 14.0725 12.1888 14.0653 12.1888 14.0582V11.1465C12.1888 10.917 12.3637 10.7323 12.581 10.7323Z" fill="#181818"/>
<path opacity="0.5" d="M5.80586 11.4008V20.3675H17.0993V11.4008H5.80586Z" fill="#181818"/>
<path d="M7.03935 7.46562C6.62004 7.46562 6.20493 8.00266 5.80596 8.4629C5.40699 8.92315 4.79931 9.67896 4.85338 10.2633L5.75849 20.0453C5.82503 20.7645 6.32207 21.35 7.02173 21.35H15.8783C16.5779 21.35 17.075 20.7645 17.1415 20.0453L18.0466 10.2633C18.1007 9.67896 17.4931 8.92312 17.094 8.4629C16.695 8.00269 16.2799 7.46562 15.8607 7.46562H14.3331V8.19291H15.0234C15.3943 8.19291 15.7394 8.33737 16.0029 8.65408L16.6792 9.48419C17.0035 9.93121 17.094 10.1851 17.094 10.6526H5.80587C5.80587 10.1852 5.89646 9.93127 6.22078 9.48419L6.89703 8.65408C7.16049 8.33739 7.50559 8.19293 7.87653 8.19291H8.51353V7.46562H7.03935ZM5.80582 11.4009H17.094L16.1889 20.3671H6.71089L5.80582 11.4009Z" fill="#181818"/>
<path d="M15.6605 9.87734C15.9053 9.87734 16.1038 9.66768 16.1038 9.40906C16.1038 9.15044 15.9053 8.94078 15.6605 8.94078C15.4156 8.94078 15.2171 9.15044 15.2171 9.40906C15.2171 9.66768 15.4156 9.87734 15.6605 9.87734Z" fill="#181818"/>
<path d="M8.80047 3.75C8.5069 3.75 8.2705 3.99961 8.2705 4.30971V9.33427H8.80047V4.58961C8.80047 4.43454 8.91856 4.30971 9.06537 4.30971H11.9799V6.54863H14.0996V9.33427H14.6295V6.54863C14.6295 6.23855 12.2735 3.75 11.9799 3.75H8.80047ZM9.86023 8.22793V8.78764H13.0398V8.22793H9.86023Z" fill="#181818"/>
<path d="M14.9848 9.40139C14.9848 9.19799 14.8297 9.0342 14.6372 9.0342H8.26278C8.07022 9.0342 7.91524 9.19799 7.91524 9.40139C7.91524 9.60479 8.07022 9.7685 8.26278 9.7685H14.6372C14.8297 9.7685 14.9848 9.60479 14.9848 9.40139Z" fill="#181818"/>
<path d="M11.5488 18.3572L11.1106 17.8738L11.5268 17.4542L11.9429 17.0346L11.9716 17.2385C11.9874 17.3506 12.0066 17.453 12.0142 17.4661C12.0219 17.4792 12.1563 17.4896 12.3128 17.489C12.7954 17.4875 13.1505 17.3911 13.2713 17.2288C13.363 17.1057 13.3394 17.0067 13.1065 16.5363C12.9048 16.1289 12.8936 16.0979 12.9348 16.0599C12.9993 16.0005 13.1799 15.8842 13.41 15.7542L13.6121 15.6398L13.86 16.1284C14.115 16.6309 14.1463 16.7169 14.1752 16.993C14.2274 17.4926 13.9485 17.98 13.4697 18.2258C13.3075 18.3091 13.2457 18.3248 12.9789 18.35C12.8111 18.3658 12.5387 18.3769 12.3736 18.3746C12.2085 18.3723 12.0673 18.3768 12.0599 18.3847C12.0524 18.3925 12.033 18.4983 12.0166 18.6198L11.9869 18.8406L11.5488 18.3572ZM10.0923 18.3492C9.72481 18.3332 9.65105 18.3221 9.49918 18.2602C9.13796 18.1129 8.906 17.8705 8.79234 17.5216C8.72946 17.3285 8.70421 16.9773 8.74039 16.7991C8.77331 16.637 9.07869 15.9561 9.21192 15.7478C9.26248 15.6687 9.30384 15.5936 9.30384 15.5808C9.30384 15.568 9.22774 15.4967 9.13473 15.4223C9.04172 15.3479 8.9719 15.2871 8.97957 15.2871C8.98725 15.2871 9.25985 15.2146 9.58537 15.126C9.91089 15.0374 10.1839 14.9717 10.192 14.9801C10.206 14.9945 10.4711 16.1468 10.4604 16.1468C10.4576 16.1468 10.3716 16.1103 10.2692 16.0657C10.1668 16.0211 10.0743 15.9939 10.0636 16.0052C10.0053 16.0671 9.77615 16.5107 9.71196 16.6858C9.61373 16.9538 9.59249 17.1275 9.6425 17.2539C9.7091 17.4223 9.7549 17.4374 10.271 17.461C10.622 17.4771 10.7386 17.4912 10.7557 17.5197C10.7681 17.5403 10.7784 17.7415 10.7786 17.9669L10.779 18.3765L10.6455 18.372C10.5721 18.3695 10.3231 18.3592 10.0923 18.3492ZM12.5616 15.3437L12.0172 15.1681L12.1144 15.0866C12.1679 15.0417 12.2413 14.9785 12.2774 14.9462L12.3431 14.8873L12.2671 14.7312C12.094 14.3759 11.8348 14.0275 11.6596 13.9147C11.5664 13.8546 11.3966 13.8474 11.3248 13.9006C11.2971 13.9211 11.1658 14.1203 11.033 14.3433C10.9003 14.5663 10.777 14.749 10.7592 14.7493C10.6996 14.7502 10.1522 14.431 10.0473 14.3342C10.0435 14.3307 10.1675 14.1147 10.3228 13.8542C10.6333 13.3335 10.7559 13.1929 11.019 13.0561C11.2365 12.943 11.4682 12.9033 11.6836 12.9423C11.8647 12.9751 12.1544 13.1101 12.3195 13.2387C12.4368 13.3301 12.8537 13.9646 12.9732 14.2335C13.057 14.4224 13.037 14.4181 13.3032 14.3052C13.3836 14.271 13.4498 14.2513 13.4501 14.2614C13.4514 14.2961 13.1353 15.4886 13.1207 15.504C13.1127 15.5124 12.8611 15.4403 12.5616 15.3437Z" fill="url(#paint1_linear_37_70)"/>
</g>
<path d="M9.74289 10.1415C9.52565 10.1415 9.35081 10.3262 9.35081 10.5557V12.6978C9.34555 12.7573 9.34682 12.8308 9.21434 12.8704C9.12271 12.8883 9.0399 12.9395 8.98028 13.0152C8.92066 13.0908 8.88799 13.1861 8.88792 13.2845C8.88798 13.3949 8.92903 13.5009 9.00225 13.5796C9.07546 13.6584 9.175 13.7036 9.27948 13.7057V13.7061C9.28134 13.7061 9.28326 13.706 9.28513 13.706C9.28572 13.706 9.28631 13.706 9.2869 13.7061C9.28805 13.706 9.2892 13.706 9.29035 13.706C9.62086 13.7014 10.1227 13.4858 10.1345 12.7239C10.1349 12.7168 10.135 12.7097 10.135 12.7025V10.5557C10.135 10.3263 9.96013 10.1415 9.74289 10.1415Z" fill="white"/>
<path d="M12.0099 10.1943C11.7927 10.1943 11.6178 10.3791 11.6178 10.6086V14.3806C11.6178 14.6101 11.7927 14.7948 12.0099 14.7948C12.2272 14.7948 12.402 14.6101 12.402 14.3806V10.6086C12.402 10.3791 12.2272 10.1943 12.0099 10.1943Z" fill="white"/>
<path d="M10.8742 10.1823C10.657 10.1823 10.4821 10.367 10.4821 10.5965V13.5034C10.4769 13.563 10.4781 13.6364 10.3456 13.676C10.1566 13.713 10.0194 13.8871 10.0192 14.0902C10.0194 14.3198 10.1935 14.5071 10.4108 14.5113V14.5117C10.4127 14.5117 10.4146 14.5116 10.4165 14.5116C10.417 14.5116 10.4176 14.5117 10.4182 14.5117C10.4194 14.5117 10.4205 14.5117 10.4217 14.5116C10.7522 14.507 11.254 14.2915 11.2659 13.5295C11.2662 13.5225 11.2664 13.5153 11.2664 13.5082V10.5965C11.2664 10.367 11.0914 10.1823 10.8742 10.1823Z" fill="white"/>
<path d="M14.2623 10.1415C14.4795 10.1415 14.6544 10.3262 14.6544 10.5557V12.6978C14.6596 12.7573 14.6584 12.8308 14.7908 12.8704C14.8825 12.8883 14.9653 12.9395 15.0249 13.0152C15.0845 13.0908 15.1172 13.1861 15.1173 13.2845C15.1172 13.3949 15.0761 13.5009 15.0029 13.5796C14.9297 13.6584 14.8302 13.7036 14.7257 13.7057V13.7061C14.7238 13.7061 14.7219 13.706 14.72 13.706C14.7195 13.706 14.7189 13.706 14.7183 13.7061C14.7171 13.706 14.716 13.706 14.7148 13.706C14.3843 13.7014 13.8824 13.4858 13.8706 12.7239C13.8703 12.7168 13.8701 12.7097 13.8701 12.7025V10.5557C13.8701 10.3263 14.045 10.1415 14.2623 10.1415Z" fill="white"/>
<path d="M13.131 10.1823C13.3482 10.1823 13.5231 10.367 13.5231 10.5965V13.5034C13.5283 13.563 13.527 13.6364 13.6595 13.676C13.8486 13.713 13.9858 13.8871 13.9859 14.0902C13.9858 14.3198 13.8117 14.5071 13.5944 14.5113V14.5117C13.5925 14.5117 13.5906 14.5116 13.5887 14.5116C13.5882 14.5116 13.5875 14.5117 13.587 14.5117C13.5858 14.5117 13.5847 14.5117 13.5835 14.5116C13.253 14.507 12.7511 14.2915 12.7393 13.5295C12.739 13.5225 12.7388 13.5153 12.7388 13.5082V10.5965C12.7388 10.367 12.9137 10.1823 13.131 10.1823Z" fill="white"/>
<path opacity="0.5" d="M6.35586 10.8508V19.8175H17.6493V10.8508H6.35586Z" fill="#656D78"/>
<path d="M7.58934 6.91562C7.17004 6.91562 6.75493 7.45266 6.35596 7.91291C5.95698 8.37315 5.3493 9.12896 5.40337 9.71334L6.30848 19.4953C6.37503 20.2145 6.87206 20.8 7.57173 20.8H16.4283C17.1279 20.8 17.625 20.2145 17.6915 19.4953L18.5966 9.71334C18.6507 9.12896 18.0431 8.37312 17.644 7.91291C17.245 7.45269 16.8299 6.91562 16.4107 6.91562H14.8831V7.64291H15.5734C15.9443 7.64291 16.2894 7.78738 16.5529 8.10408L17.2292 8.93419C17.5535 9.38122 17.644 9.63513 17.644 10.1026H6.35587C6.35587 9.63518 6.44645 9.38127 6.77078 8.93419L7.44702 8.10408C7.71049 7.78739 8.05558 7.64293 8.42653 7.64291H9.06352V6.91562H7.58934ZM6.35582 10.8509H17.644L16.7389 19.8171H7.26088L6.35582 10.8509Z" fill="white"/>
<path d="M16.2105 9.32734C16.4553 9.32734 16.6538 9.11768 16.6538 8.85906C16.6538 8.60044 16.4553 8.39078 16.2105 8.39078C15.9656 8.39078 15.7671 8.60044 15.7671 8.85906C15.7671 9.11768 15.9656 9.32734 16.2105 9.32734Z" fill="#F15C7C"/>
<path d="M9.35047 3.2C9.0569 3.2 8.8205 3.44961 8.8205 3.75971V8.78427H9.35047V4.03961C9.35047 3.88454 9.46856 3.75971 9.61537 3.75971H12.5299V5.99862H14.6496V8.78427H15.1795V5.99862C15.1795 5.68855 12.8235 3.2 12.5299 3.2H9.35047ZM10.4102 7.67793V8.23764H13.5898V7.67793H10.4102Z" fill="white"/>
<path d="M15.5348 8.85139C15.5348 8.64799 15.3797 8.4842 15.1871 8.4842H8.81278C8.62022 8.4842 8.46524 8.64799 8.46524 8.85139C8.46524 9.05479 8.62022 9.2185 8.81278 9.2185H15.1871C15.3797 9.2185 15.5348 9.05479 15.5348 8.85139Z" fill="white"/>
<path d="M12.0988 17.8072L11.6606 17.3238L12.0768 16.9042L12.4929 16.4846L12.5216 16.6885C12.5374 16.8006 12.5566 16.903 12.5642 16.9161C12.5719 16.9292 12.7063 16.9396 12.8628 16.939C13.3454 16.9375 13.7005 16.8411 13.8213 16.6788C13.913 16.5557 13.8894 16.4567 13.6565 15.9863C13.4548 15.5789 13.4436 15.5479 13.4848 15.5099C13.5493 15.4505 13.7299 15.3342 13.96 15.2042L14.1621 15.0898L14.41 15.5784C14.665 16.0809 14.6963 16.1669 14.7252 16.443C14.7774 16.9426 14.4985 17.43 14.0197 17.6759C13.8575 17.7591 13.7957 17.7748 13.5289 17.8C13.3611 17.8158 13.0887 17.8269 12.9236 17.8246C12.7585 17.8223 12.6173 17.8268 12.6099 17.8347C12.6024 17.8425 12.583 17.9483 12.5666 18.0698L12.5369 18.2906L12.0988 17.8072ZM10.6423 17.7992C10.2748 17.7832 10.201 17.7721 10.0492 17.7102C9.68796 17.5629 9.456 17.3205 9.34234 16.9716C9.27946 16.7785 9.25421 16.4273 9.29039 16.2491C9.32331 16.087 9.62869 15.4061 9.76192 15.1978C9.81248 15.1187 9.85384 15.0436 9.85384 15.0308C9.85384 15.018 9.77774 14.9467 9.68473 14.8723C9.59172 14.7979 9.5219 14.7371 9.52957 14.7371C9.53725 14.7371 9.80985 14.6646 10.1354 14.576C10.4609 14.4874 10.7339 14.4217 10.742 14.4301C10.756 14.4445 11.0211 15.5968 11.0104 15.5968C11.0076 15.5968 10.9216 15.5603 10.8192 15.5157C10.7168 15.4711 10.6243 15.4439 10.6136 15.4552C10.5553 15.5171 10.3261 15.9607 10.262 16.1358C10.1637 16.4038 10.1425 16.5775 10.1925 16.7039C10.2591 16.8723 10.3049 16.8874 10.821 16.911C11.172 16.9271 11.2886 16.9412 11.3057 16.9697C11.3181 16.9903 11.3284 17.1915 11.3286 17.4169L11.329 17.8265L11.1955 17.822C11.1221 17.8195 10.8731 17.8092 10.6423 17.7992ZM13.1116 14.7937L12.5672 14.6181L12.6644 14.5366C12.7179 14.4917 12.7913 14.4285 12.8274 14.3962L12.8931 14.3373L12.8171 14.1812C12.644 13.8259 12.3848 13.4775 12.2096 13.3647C12.1164 13.3046 11.9466 13.2974 11.8748 13.3506C11.8471 13.3711 11.7158 13.5703 11.583 13.7933C11.4503 14.0163 11.327 14.199 11.3092 14.1993C11.2496 14.2002 10.7022 13.881 10.5973 13.7842C10.5935 13.7807 10.7175 13.5647 10.8728 13.3042C11.1833 12.7835 11.3059 12.6429 11.569 12.5061C11.7865 12.393 12.0182 12.3533 12.2336 12.3923C12.4147 12.4251 12.7044 12.5601 12.8695 12.6887C12.9868 12.7801 13.4037 13.4146 13.5232 13.6835C13.607 13.8724 13.587 13.8681 13.8532 13.7552C13.9336 13.721 13.9998 13.7013 14.0001 13.7114C14.0014 13.7461 13.6853 14.9386 13.6707 14.954C13.6627 14.9624 13.4111 14.8903 13.1116 14.7937Z" fill="url(#paint2_linear_37_70)"/>
<defs>
<linearGradient id="paint0_linear_37_70" x1="23" y1="0.999999" x2="1" y2="12" gradientUnits="userSpaceOnUse">
<stop stop-color="#777777"/>
<stop offset="1" stop-color="#333333"/>
</linearGradient>
<linearGradient id="paint1_linear_37_70" x1="12.55" y1="13.6487" x2="9.24927" y2="18.0489" gradientUnits="userSpaceOnUse">
<stop stop-color="#181818"/>
<stop offset="1" stop-color="#181818"/>
</linearGradient>
<linearGradient id="paint2_linear_37_70" x1="13.1" y1="13.0987" x2="9.79927" y2="17.4989" gradientUnits="userSpaceOnUse">
<stop stop-color="#84FAA1"/>
<stop offset="1" stop-color="#33C478"/>
</linearGradient>
</defs>
</svg>
