<svg width="24" height="24" viewBox="0 0 24 24" fill="none" xmlns="http://www.w3.org/2000/svg">
<rect width="24" height="24" rx="7.2" fill="url(#paint0_linear_35_12)"/>
<g opacity="0.3">
<path opacity="0.5" d="M5.24276 11.3482V21.1284H17.5629V11.3482H5.24276Z" fill="#181818"/>
<path d="M6.58838 7.056C6.13095 7.056 5.6781 7.64176 5.24286 8.14376C4.80762 8.64576 4.1447 9.47014 4.20368 10.1075L5.19107 20.7769C5.26367 21.5614 5.80589 22.2 6.56916 22.2H16.2308C16.9941 22.2 17.5363 21.5613 17.6089 20.7769L18.5963 10.1075C18.6553 9.47014 17.9925 8.64572 17.5571 8.14376C17.1218 7.6418 16.669 7.056 16.2116 7.056H14.7559H14.5452H6.58838ZM7.50167 7.84927H14.5452H14.7559H15.2982C15.7029 7.84927 16.0794 8.00684 16.3668 8.35228L17.1046 9.25769C17.4584 9.74528 17.5571 10.0222 17.5571 10.5321H5.24277C5.24277 10.0223 5.34159 9.74534 5.69539 9.25769L6.43312 8.35228C6.72054 8.00685 7.097 7.84929 7.50167 7.84927ZM5.24272 11.3483H17.5571L16.5697 21.128H6.23006L5.24272 11.3483Z" fill="#181818"/>
<path d="M15.9932 9.68653C16.2603 9.68653 16.4769 9.45785 16.4769 9.17576C16.4769 8.89368 16.2603 8.665 15.9932 8.665C15.7261 8.665 15.5096 8.89368 15.5096 9.17576C15.5096 9.45785 15.7261 9.68653 15.9932 9.68653Z" fill="#181818"/>
<path d="M15.2561 9.16739C15.2561 8.94554 15.087 8.7669 14.8769 8.7669H7.92305C7.71298 8.7669 7.54391 8.94554 7.54391 9.16739C7.54391 9.38925 7.71298 9.56781 7.92305 9.56781H14.8769C15.087 9.56781 15.2561 9.38925 15.2561 9.16739Z" fill="#181818"/>
<path d="M11.5078 18.9357L11.0298 18.4084L11.4837 17.9508L11.9377 17.4931L11.969 17.7155C11.9862 17.8378 12.0072 17.9495 12.0155 17.9638C12.0239 17.9781 12.1705 17.9893 12.3413 17.9888C12.8678 17.9871 13.2551 17.8819 13.3869 17.7049C13.4869 17.5707 13.4612 17.4627 13.2071 16.9496C12.987 16.5053 12.9749 16.4714 13.0198 16.43C13.0902 16.3651 13.2872 16.2384 13.5382 16.0965L13.7587 15.9718L14.0291 16.5046C14.3073 17.0528 14.3415 17.1465 14.3729 17.4477C14.4299 17.9926 14.1256 18.5243 13.6033 18.7924C13.4264 18.8833 13.359 18.9003 13.0679 18.9278C12.8848 18.9451 12.5876 18.9572 12.4075 18.9547C12.2275 18.9521 12.0734 18.9571 12.0653 18.9656C12.0572 18.9742 12.036 19.0896 12.0182 19.2221L11.9857 19.4629L11.5078 18.9357ZM9.91885 18.927C9.51799 18.9095 9.43752 18.8974 9.27185 18.8299C8.87778 18.6693 8.62473 18.4049 8.50074 18.0243C8.43215 17.8137 8.4046 17.4306 8.44408 17.2362C8.47998 17.0594 8.81312 16.3168 8.95846 16.0896C9.01362 16.0033 9.05874 15.9214 9.05874 15.9074C9.05874 15.8935 8.97572 15.8157 8.87426 15.7345C8.77279 15.6534 8.69663 15.587 8.705 15.587C8.71337 15.587 9.01076 15.508 9.36587 15.4113C9.72098 15.3147 10.0188 15.2431 10.0276 15.2522C10.0429 15.268 10.3321 16.5247 10.3204 16.5247C10.3174 16.5247 10.2235 16.4849 10.1118 16.4363C10.0001 16.3876 9.89922 16.358 9.88757 16.3703C9.824 16.4379 9.57399 16.9217 9.50397 17.1127C9.3968 17.405 9.37363 17.5944 9.42818 17.7323C9.50084 17.916 9.55081 17.9324 10.1138 17.9582C10.4968 17.9757 10.624 17.9911 10.6426 18.0222C10.6561 18.0447 10.6673 18.2642 10.6675 18.5099L10.668 18.9568L10.5224 18.9518C10.4422 18.9491 10.1706 18.9379 9.91885 18.927ZM12.6127 15.6488L12.0187 15.4573L12.1248 15.3683C12.1832 15.3194 12.2632 15.2505 12.3026 15.2152L12.3743 15.151L12.2914 14.9808C12.1025 14.5932 11.8198 14.2132 11.6287 14.0901C11.527 14.0246 11.3418 14.0168 11.2635 14.0747C11.2332 14.0971 11.09 14.3144 10.9451 14.5577C10.8003 14.8009 10.6659 15.0002 10.6464 15.0005C10.5814 15.0015 9.98427 14.6533 9.86976 14.5477C9.86565 14.5439 10.0009 14.3084 10.1704 14.0242C10.509 13.4563 10.6428 13.3029 10.9298 13.1537C11.1672 13.0303 11.4199 12.987 11.6549 13.0295C11.8524 13.0653 12.1684 13.2125 12.3485 13.3528C12.4766 13.4525 12.9314 14.1446 13.0616 14.4379C13.1531 14.6439 13.1313 14.6392 13.4217 14.516C13.5094 14.4788 13.5816 14.4573 13.582 14.4683C13.5834 14.5061 13.2386 15.8069 13.2226 15.8236C13.2138 15.8329 12.9394 15.7542 12.6127 15.6488Z" fill="url(#paint1_linear_35_12)"/>
</g>
<path opacity="0.5" d="M5.84276 10.7482V20.5284H18.1629V10.7482H5.84276Z" fill="#656D78"/>
<path d="M7.18838 6.456C6.73095 6.456 6.2781 7.04176 5.84286 7.54376C5.40762 8.04576 4.74469 8.87014 4.80368 9.50753L5.79107 20.1769C5.86367 20.9614 6.40589 21.6 7.16916 21.6H16.8308C17.5941 21.6 18.1363 20.9613 18.2089 20.1769L19.1963 9.50753C19.2553 8.87014 18.5925 8.04572 18.1571 7.54376C17.7218 7.0418 17.269 6.456 16.8116 6.456H15.3559H15.1452H7.18838ZM8.10167 7.24927H15.1452H15.3559H15.8982C16.3029 7.24927 16.6794 7.40684 16.9668 7.75228L17.7046 8.65769C18.0584 9.14528 18.1571 9.42223 18.1571 9.93206H5.84276C5.84276 9.42229 5.94158 9.14534 6.29539 8.65769L7.03312 7.75228C7.32053 7.40686 7.697 7.24929 8.10167 7.24927ZM5.84272 10.7483H18.1571L17.1697 20.528H6.83006L5.84272 10.7483Z" fill="white"/>
<path d="M16.5932 9.08653C16.8603 9.08653 17.0769 8.85785 17.0769 8.57576C17.0769 8.29368 16.8603 8.065 16.5932 8.065C16.3261 8.065 16.1096 8.29368 16.1096 8.57576C16.1096 8.85785 16.3261 9.08653 16.5932 9.08653Z" fill="#93D7F5"/>
<path d="M15.8561 8.5674C15.8561 8.34554 15.687 8.1669 15.4769 8.1669H8.52305C8.31298 8.1669 8.14391 8.34554 8.14391 8.5674C8.14391 8.78925 8.31298 8.96781 8.52305 8.96781H15.4769C15.687 8.96781 15.8561 8.78925 15.8561 8.5674Z" fill="white"/>
<path d="M12.1078 18.3357L11.6298 17.8084L12.0837 17.3508L12.5377 16.8931L12.569 17.1155C12.5862 17.2378 12.6072 17.3495 12.6155 17.3638C12.6239 17.3781 12.7705 17.3893 12.9413 17.3888C13.4678 17.3871 13.8551 17.2819 13.9869 17.1049C14.0869 16.9707 14.0612 16.8627 13.8071 16.3496C13.587 15.9053 13.5749 15.8714 13.6198 15.83C13.6902 15.7651 13.8872 15.6384 14.1382 15.4965L14.3587 15.3718L14.6291 15.9046C14.9073 16.4528 14.9415 16.5465 14.9729 16.8477C15.0299 17.3926 14.7256 17.9243 14.2033 18.1924C14.0264 18.2833 13.959 18.3003 13.6679 18.3278C13.4848 18.3451 13.1876 18.3572 13.0075 18.3547C12.8275 18.3521 12.6734 18.3571 12.6653 18.3656C12.6572 18.3742 12.636 18.4896 12.6182 18.6221L12.5857 18.8629L12.1078 18.3357ZM10.5188 18.327C10.118 18.3095 10.0375 18.2974 9.87184 18.2299C9.47778 18.0693 9.22473 17.8049 9.10074 17.4243C9.03214 17.2137 9.0046 16.8306 9.04408 16.6362C9.07998 16.4594 9.41312 15.7168 9.55846 15.4896C9.61361 15.4033 9.65874 15.3214 9.65874 15.3074C9.65874 15.2935 9.57572 15.2157 9.47426 15.1345C9.37279 15.0534 9.29663 14.987 9.305 14.987C9.31337 14.987 9.61076 14.908 9.96587 14.8113C10.321 14.7147 10.6188 14.6431 10.6276 14.6522C10.6429 14.668 10.9321 15.9247 10.9204 15.9247C10.9174 15.9247 10.8235 15.8849 10.7118 15.8363C10.6001 15.7876 10.4992 15.758 10.4876 15.7703C10.424 15.8379 10.174 16.3217 10.104 16.5127C9.9968 16.805 9.97363 16.9944 10.0282 17.1323C10.1008 17.316 10.1508 17.3324 10.7138 17.3582C11.0968 17.3757 11.224 17.3911 11.2426 17.4222C11.2561 17.4447 11.2673 17.6642 11.2675 17.9099L11.268 18.3568L11.1224 18.3518C11.0422 18.3491 10.7706 18.3379 10.5188 18.327ZM13.2127 15.0488L12.6187 14.8573L12.7248 14.7683C12.7832 14.7194 12.8632 14.6505 12.9026 14.6152L12.9743 14.551L12.8914 14.3808C12.7025 13.9932 12.4198 13.6132 12.2287 13.4901C12.127 13.4246 11.9418 13.4168 11.8635 13.4747C11.8332 13.4971 11.69 13.7144 11.5451 13.9577C11.4003 14.2009 11.2659 14.4002 11.2464 14.4005C11.1814 14.4015 10.5843 14.0533 10.4698 13.9477C10.4657 13.9439 10.6009 13.7084 10.7704 13.4242C11.109 12.8563 11.2428 12.7029 11.5298 12.5537C11.7672 12.4303 12.0199 12.387 12.2549 12.4295C12.4524 12.4653 12.7684 12.6125 12.9485 12.7528C13.0766 12.8525 13.5314 13.5446 13.6616 13.8379C13.7531 14.0439 13.7313 14.0392 14.0217 13.916C14.1094 13.8788 14.1816 13.8573 14.182 13.8683C14.1834 13.9062 13.8386 15.2069 13.8226 15.2236C13.8138 15.2329 13.5394 15.1542 13.2127 15.0488Z" fill="url(#paint2_linear_35_12)"/>
<defs>
<linearGradient id="paint0_linear_35_12" x1="24" y1="-7.15256e-07" x2="0" y2="12" gradientUnits="userSpaceOnUse">
<stop stop-color="#777777"/>
<stop offset="1" stop-color="#333333"/>
</linearGradient>
<linearGradient id="paint1_linear_35_12" x1="12.6" y1="13.8" x2="9" y2="18.6" gradientUnits="userSpaceOnUse">
<stop stop-color="#181818"/>
<stop offset="1" stop-color="#181818"/>
</linearGradient>
<linearGradient id="paint2_linear_35_12" x1="13.2" y1="13.2" x2="9.6" y2="18" gradientUnits="userSpaceOnUse">
<stop stop-color="#84FAA1"/>
<stop offset="1" stop-color="#33C478"/>
</linearGradient>
</defs>
</svg>
