<?xml version="1.0" encoding="UTF-8" standalone="no"?>
<svg
   width="24"
   height="24"
   viewBox="0 0 24 24"
   fill="none"
   version="1.1"
   id="svg27"
   sodipodi:docname="gnome-dev-trash-full.svg"
   inkscape:version="1.3 (0e150ed6c4, 2023-07-21)"
   xmlns:inkscape="http://www.inkscape.org/namespaces/inkscape"
   xmlns:sodipodi="http://sodipodi.sourceforge.net/DTD/sodipodi-0.dtd"
   xmlns:xlink="http://www.w3.org/1999/xlink"
   xmlns="http://www.w3.org/2000/svg"
   xmlns:svg="http://www.w3.org/2000/svg">
  <sodipodi:namedview
     id="namedview27"
     pagecolor="#ffffff"
     bordercolor="#000000"
     borderopacity="0.25"
     inkscape:showpageshadow="2"
     inkscape:pageopacity="0.0"
     inkscape:pagecheckerboard="0"
     inkscape:deskcolor="#d1d1d1"
     inkscape:zoom="11.947158"
     inkscape:cx="-13.099349"
     inkscape:cy="2.1343988"
     inkscape:window-width="1920"
     inkscape:window-height="998"
     inkscape:window-x="2560"
     inkscape:window-y="0"
     inkscape:window-maximized="1"
     inkscape:current-layer="svg27" />
  <defs
     id="defs27">
    <linearGradient
       id="paint0_linear_37_70"
       x1="23"
       y1="0.999999"
       x2="1"
       y2="12"
       gradientUnits="userSpaceOnUse">
      <stop
         stop-color="#777777"
         id="stop22" />
      <stop
         offset="1"
         stop-color="#333333"
         id="stop23" />
    </linearGradient>
    <linearGradient
       id="paint1_linear_37_70"
       x1="12.55"
       y1="13.6487"
       x2="9.24927"
       y2="18.0489"
       gradientUnits="userSpaceOnUse">
      <stop
         stop-color="#181818"
         id="stop24" />
      <stop
         offset="1"
         stop-color="#181818"
         id="stop25" />
    </linearGradient>
    <linearGradient
       id="paint2_linear_37_70"
       x1="13.1"
       y1="13.0987"
       x2="9.79927"
       y2="17.4989"
       gradientUnits="userSpaceOnUse">
      <stop
         stop-color="#84FAA1"
         id="stop26" />
      <stop
         offset="1"
         stop-color="#33C478"
         id="stop27" />
    </linearGradient>
    <linearGradient
       inkscape:collect="always"
       xlink:href="#linearGradient30"
       id="linearGradient48"
       gradientUnits="userSpaceOnUse"
       gradientTransform="translate(40.1875,-4.34375)"
       x1="55.257156"
       y1="7.3702679"
       x2="33.280914"
       y2="18.745268" />
    <linearGradient
       id="linearGradient30"
       inkscape:collect="always">
      <stop
         style="stop-color:#4c4f62;stop-opacity:1;"
         offset="0"
         id="stop30" />
      <stop
         style="stop-color:#313340;stop-opacity:1;"
         offset="1"
         id="stop31" />
    </linearGradient>
    <linearGradient
       inkscape:collect="always"
       xlink:href="#paint2_linear_35_12"
       id="linearGradient47"
       gradientUnits="userSpaceOnUse"
       gradientTransform="translate(15.543378)"
       x1="13.1"
       y1="13.1"
       x2="9.8000002"
       y2="17.5" />
    <linearGradient
       id="paint2_linear_35_12"
       x1="13.1"
       y1="13.1"
       x2="9.8000002"
       y2="17.5"
       gradientUnits="userSpaceOnUse"
       gradientTransform="translate(-40)">
      <stop
         stop-color="#84FAA1"
         id="stop14" />
      <stop
         offset="1"
         stop-color="#33C478"
         id="stop15" />
    </linearGradient>
  </defs>
  <g
     id="g27"
     transform="translate(33.988125,7.0050421)">
    <g
       id="g102"
       transform="translate(-106.44466,-8.9080849)">
      <g
         id="g94">
        <rect
           style="opacity:0.99;fill:#ffffff;fill-opacity:1;stroke-width:0.00738574;stroke-linecap:round;stroke-linejoin:round;paint-order:stroke markers fill"
           id="rect87"
           width="0.54486984"
           height="4.3850026"
           x="-26.926279"
           y="75.451729"
           rx="0.043499488"
           ry="0.12473941"
           transform="rotate(-93.564163)" />
        <rect
           style="opacity:0.99;fill:#ffffff;fill-opacity:1;stroke-width:0.00903906;stroke-linecap:round;stroke-linejoin:round;paint-order:stroke markers fill"
           id="rect88"
           width="0.54486984"
           height="6.5679421"
           x="-18.734499"
           y="79.074471"
           rx="0.044971872"
           ry="0.12896162"
           transform="rotate(-87.309591)" />
        <rect
           style="opacity:0.99;fill:#ffffff;fill-opacity:1;stroke-width:0.00796344;stroke-linecap:round;stroke-linejoin:round;paint-order:stroke markers fill"
           id="rect89"
           width="0.54486984"
           height="5.0977993"
           x="-13.949888"
           y="84.19133"
           rx="0.048006922"
           ry="0.13766496"
           transform="rotate(-84.661629)" />
        <rect
           style="opacity:0.99;fill:#ffffff;fill-opacity:1;stroke-width:0.00852152;stroke-linecap:round;stroke-linejoin:round;paint-order:stroke markers fill"
           id="rect90"
           width="0.54486984"
           height="5.8373256"
           x="18.215412"
           y="77.606476"
           rx="0.04523994"
           ry="0.12973034"
           transform="rotate(-62.485094)" />
        <rect
           style="opacity:0.99;fill:#ffffff;fill-opacity:1;stroke-width:0.00989945;stroke-linecap:round;stroke-linejoin:round;paint-order:stroke markers fill"
           id="rect91"
           width="0.54486984"
           height="7.8777065"
           x="38.991734"
           y="-82.782333"
           rx="0.051603932"
           ry="0.14797978"
           transform="rotate(77.019775)" />
        <rect
           style="opacity:0.99;fill:#ffffff;fill-opacity:1;stroke-width:0.00851501;stroke-linecap:round;stroke-linejoin:round;paint-order:stroke markers fill"
           id="rect92"
           width="0.54486984"
           height="5.8284149"
           x="32.648315"
           y="-88.082275"
           rx="0.056149367"
           ry="0.16101429"
           transform="rotate(82.967913)" />
        <rect
           style="opacity:0.99;fill:#ffffff;fill-opacity:1;stroke-width:0.00903299;stroke-linecap:round;stroke-linejoin:round;paint-order:stroke markers fill"
           id="rect93"
           width="0.54486984"
           height="6.5590324"
           x="17.323009"
           y="-93.788025"
           rx="0.055770889"
           ry="0.15992896"
           transform="rotate(93.194476)" />
        <rect
           style="opacity:0.99;fill:#ffffff;fill-opacity:1;stroke-width:0.00903906;stroke-linecap:round;stroke-linejoin:round;paint-order:stroke markers fill"
           id="rect94"
           width="0.54486984"
           height="6.5679421"
           x="-25.246935"
           y="84.882721"
           rx="0.044971872"
           ry="0.12896162"
           transform="rotate(-92.297288)" />
      </g>
      <g
         id="g101"
         transform="matrix(0.72080881,0,0,0.7342684,23.297799,4.335556)"
         style="opacity:0.15;fill:#333333">
        <rect
           style="opacity:0.99;fill:#333333;fill-opacity:1;stroke-width:0.010426;stroke-linecap:round;stroke-linejoin:round;paint-order:stroke markers fill"
           id="rect95"
           width="1.3024937"
           height="3.6553855"
           x="77.954376"
           y="14.034453"
           rx="0.10398412"
           ry="0.10398412" />
        <rect
           style="opacity:0.99;fill:#333333;fill-opacity:1;stroke-width:0.0127599;stroke-linecap:round;stroke-linejoin:round;paint-order:stroke markers fill"
           id="rect96"
           width="1.3024937"
           height="5.4751072"
           x="79.967216"
           y="14.034453"
           rx="0.10750381"
           ry="0.10750381" />
        <rect
           style="opacity:0.99;fill:#333333;fill-opacity:1;stroke-width:0.0112415;stroke-linecap:round;stroke-linejoin:round;paint-order:stroke markers fill"
           id="rect97"
           width="1.3024937"
           height="4.2495804"
           x="81.965195"
           y="14.034453"
           rx="0.11475898"
           ry="0.11475898" />
        <rect
           style="opacity:0.99;fill:#333333;fill-opacity:1;stroke-width:0.0120293;stroke-linecap:round;stroke-linejoin:round;paint-order:stroke markers fill"
           id="rect98"
           width="1.3024937"
           height="4.8660574"
           x="83.940895"
           y="14.034453"
           rx="0.10814461"
           ry="0.10814461" />
        <rect
           style="opacity:0.99;fill:#333333;fill-opacity:1;stroke-width:0.0139744;stroke-linecap:round;stroke-linejoin:round;paint-order:stroke markers fill"
           id="rect99"
           width="1.3024937"
           height="6.5669403"
           x="85.924019"
           y="14.034453"
           rx="0.12335753"
           ry="0.12335753" />
        <rect
           style="opacity:0.99;fill:#333333;fill-opacity:1;stroke-width:0.0120201;stroke-linecap:round;stroke-linejoin:round;paint-order:stroke markers fill"
           id="rect100"
           width="1.3024937"
           height="4.8586302"
           x="87.899719"
           y="14.034453"
           rx="0.13422324"
           ry="0.13422324" />
        <rect
           style="opacity:0.99;fill:#333333;fill-opacity:1;stroke-width:0.0127513;stroke-linecap:round;stroke-linejoin:round;paint-order:stroke markers fill"
           id="rect101"
           width="1.3024937"
           height="5.46768"
           x="89.882843"
           y="14.034453"
           rx="0.1333185"
           ry="0.1333185" />
      </g>
      <rect
         style="opacity:0.4;fill:#ffffff;fill-opacity:1;stroke-width:0.0483359;stroke-linecap:round;stroke-linejoin:round;paint-order:stroke markers fill"
         id="rect43"
         width="22.023758"
         height="21.989916"
         x="73.444656"
         y="2.9080849"
         rx="6.4798532" />
      <rect
         style="opacity:0.298;fill:#ffffff;stroke-width:0.0367466;stroke-linecap:round;stroke-linejoin:round;paint-order:stroke markers fill"
         id="rect44"
         width="22.023758"
         height="12.70914"
         x="73.444656"
         y="12.188861"
         rx="6.3545699"
         ry="6.3545699" />
      <g
         id="g61"
         transform="matrix(0.72080881,0,0,0.72080881,23.497838,4.4131367)">
        <rect
           style="opacity:0.99;fill:#ffffff;fill-opacity:1;stroke-width:0.010426;stroke-linecap:round;stroke-linejoin:round;paint-order:stroke markers fill"
           id="rect55"
           width="1.3024937"
           height="3.6553855"
           x="77.954376"
           y="14.034453"
           rx="0.10398412"
           ry="0.10398412" />
        <rect
           style="opacity:0.99;fill:#ffffff;fill-opacity:1;stroke-width:0.0127599;stroke-linecap:round;stroke-linejoin:round;paint-order:stroke markers fill"
           id="rect56"
           width="1.3024937"
           height="5.4751072"
           x="79.967216"
           y="14.034453"
           rx="0.10750381"
           ry="0.10750381" />
        <rect
           style="opacity:0.99;fill:#ffffff;fill-opacity:1;stroke-width:0.0112415;stroke-linecap:round;stroke-linejoin:round;paint-order:stroke markers fill"
           id="rect57"
           width="1.3024937"
           height="4.2495804"
           x="81.965195"
           y="14.034453"
           rx="0.11475898"
           ry="0.11475898" />
        <rect
           style="opacity:0.99;fill:#ffffff;fill-opacity:1;stroke-width:0.0120293;stroke-linecap:round;stroke-linejoin:round;paint-order:stroke markers fill"
           id="rect58"
           width="1.3024937"
           height="4.8660574"
           x="83.940895"
           y="14.034453"
           rx="0.10814461"
           ry="0.10814461" />
        <rect
           style="opacity:0.99;fill:#ffffff;fill-opacity:1;stroke-width:0.0139744;stroke-linecap:round;stroke-linejoin:round;paint-order:stroke markers fill"
           id="rect59"
           width="1.3024937"
           height="6.5669403"
           x="85.924019"
           y="14.034453"
           rx="0.12335753"
           ry="0.12335753" />
        <rect
           style="opacity:0.99;fill:#ffffff;fill-opacity:1;stroke-width:0.0120201;stroke-linecap:round;stroke-linejoin:round;paint-order:stroke markers fill"
           id="rect60"
           width="1.3024937"
           height="4.8586302"
           x="87.899719"
           y="14.034453"
           rx="0.13422324"
           ry="0.13422324" />
        <rect
           style="opacity:0.99;fill:#ffffff;fill-opacity:1;stroke-width:0.0127513;stroke-linecap:round;stroke-linejoin:round;paint-order:stroke markers fill"
           id="rect61"
           width="1.3024937"
           height="5.46768"
           x="89.882843"
           y="14.034453"
           rx="0.1333185"
           ry="0.1333185" />
      </g>
      <rect
         style="opacity:1;fill:url(#linearGradient48);stroke-width:0.035313;stroke-linecap:round;stroke-linejoin:round;paint-order:stroke markers fill"
         id="rect45"
         width="22.023758"
         height="11.736868"
         x="73.444656"
         y="2.9080849"
         rx="6.4798532" />
      <circle
         style="opacity:1;fill:#62b84c;fill-opacity:1;stroke-width:0.05;stroke-linecap:round;stroke-linejoin:round;paint-order:stroke markers fill"
         id="circle45"
         cx="88.920723"
         cy="5.3037381"
         r="0.64868981" />
      <circle
         style="opacity:1;fill:#e5393a;fill-opacity:1;stroke-width:0.05;stroke-linecap:round;stroke-linejoin:round;paint-order:stroke markers fill"
         id="circle46"
         cx="90.920731"
         cy="5.3037381"
         r="0.64868981" />
      <rect
         style="opacity:1;fill:#2a2c3e;fill-opacity:1;stroke-width:0.0269408;stroke-linecap:round;stroke-linejoin:round;paint-order:stroke markers fill"
         id="rect46"
         width="17.995911"
         height="0.75331718"
         x="75.45858"
         y="8.3998604"
         rx="0.37665859"
         ry="0.37665859" />
      <g
         id="g47"
         transform="translate(57.060438,3.0584307)">
        <path
           d="m 27.342427,18.107533 -0.4382,-0.4833 0.4162,-0.4195 0.4161,-0.4195 0.0287,0.2038 c 0.0158,0.1121 0.035,0.2145 0.0427,0.2276 0.0076,0.0131 0.142,0.0234 0.2985,0.0229 0.4826,-0.0015 0.8377,-0.098 0.9585,-0.2602 0.0917,-0.1231 0.0681,-0.222 -0.1648,-0.6923 -0.2017,-0.4074 -0.2129,-0.4384 -0.1717,-0.4764 0.0645,-0.0594 0.2452,-0.1756 0.4752,-0.3057 l 0.2021,-0.1143 0.2479,0.4885 c 0.255,0.5024 0.2863,0.5884 0.3152,0.8644 0.0522,0.4995 -0.2267,0.9869 -0.7055,1.2327 -0.1622,0.0833 -0.224,0.0989 -0.4908,0.1241 -0.1678,0.0159 -0.4402,0.0269 -0.6053,0.0246 -0.1651,-0.0023 -0.3063,0.0022 -0.3137,0.0101 -0.0075,0.0078 -0.0269,0.1136 -0.0433,0.235 l -0.0297,0.2208 z m -1.4565,-0.008 c -0.3675,-0.016 -0.4412,-0.0271 -0.593101,-0.089 -0.36123,-0.1472 -0.59319,-0.3896 -0.70685,-0.7384 -0.06288,-0.1931 -0.08813,-0.5442 -0.05195,-0.7224 0.03291,-0.1621 0.3383,-0.8428 0.47152,-1.0511 0.05056,-0.0791 0.09192,-0.1542 0.09192,-0.167 0,-0.0128 -0.07609,-0.0841 -0.1691,-0.1585 -0.09301,-0.0743 -0.16283,-0.1352 -0.15516,-0.1352 0.0077,0 0.28028,-0.0725 0.60582,-0.161 0.325501,-0.0886 0.598501,-0.1543 0.606601,-0.1459 0.014,0.0144 0.2791,1.1665 0.2684,1.1665 -0.0028,0 -0.0888,-0.0365 -0.1912,-0.0811 -0.1024,-0.0446 -0.1949,-0.0718 -0.2056,-0.0604 -0.0583,0.0618 -0.2874,0.5053 -0.3516,0.6804 -0.0983,0.268 -0.119501,0.4416 -0.0695,0.568 0.0666,0.1684 0.1124,0.1835 0.6285,0.2071 0.351,0.0161 0.4676,0.0302 0.4847,0.0586 0.0124,0.0206 0.0227,0.2218 0.0229,0.4471 l 4e-4,0.4097 -0.1335,-0.0046 c -0.0734,-0.0025 -0.3224,-0.0127 -0.5532,-0.0228 z m 2.4693,-3.0049 -0.5444,-0.1756 0.0972,-0.0816 c 0.0535,-0.0448 0.1269,-0.108 0.163,-0.1403 l 0.0657,-0.0589 -0.076,-0.156 c -0.1731,-0.3553 -0.4323,-0.7036 -0.6075,-0.8165 -0.0932,-0.06 -0.263,-0.0672 -0.3348,-0.0141 -0.0277,0.0206 -0.159,0.2198 -0.2918,0.4427 -0.1327,0.223 -0.2559,0.4057 -0.2738,0.4059 -0.0596,10e-4 -0.6069,-0.3182 -0.7119,-0.415 -0.0038,-0.0035 0.1202,-0.2194 0.2755,-0.4799 0.3105,-0.5206 0.4331,-0.6612 0.6962,-0.7979 0.2176,-0.1132 0.4492,-0.1528 0.6646,-0.1139 0.1811,0.0328 0.4708,0.1678 0.6359,0.2964 0.1174,0.0914 0.5343,0.7258 0.6537,0.9946 0.0838,0.1889 0.0638,0.1846 0.33,0.0717 0.0804,-0.0341 0.1466,-0.0538 0.147,-0.0438 0.0012,0.0347 -0.3149,1.227 -0.3294,1.2424 -0.0081,0.0085 -0.2597,-0.0637 -0.5592,-0.1602 z"
           fill="url(#paint2_linear_35_12)"
           id="path46"
           style="opacity:0.15;fill:#1a1a1a" />
        <path
           d="m 27.642178,17.8077 -0.4382,-0.4833 0.4162,-0.4195 0.4161,-0.4195 0.0287,0.2038 c 0.0158,0.1121 0.035,0.2145 0.0427,0.2276 0.0076,0.0131 0.142,0.0234 0.2985,0.0229 0.4826,-0.0015 0.8377,-0.098 0.9585,-0.2602 0.0917,-0.1231 0.0681,-0.222 -0.1648,-0.6923 -0.2017,-0.4074 -0.2129,-0.4384 -0.1717,-0.4764 0.0645,-0.0594 0.2452,-0.1756 0.4752,-0.3057 l 0.2021,-0.1143 0.2479,0.4885 c 0.255,0.5024 0.2863,0.5884 0.3152,0.8644 0.0522,0.4995 -0.2267,0.9869 -0.7055,1.2327 -0.1622,0.0833 -0.224,0.0989 -0.4908,0.1241 -0.1678,0.0159 -0.4402,0.0269 -0.6053,0.0246 -0.1651,-0.0023 -0.3063,0.0022 -0.3137,0.0101 -0.0075,0.0078 -0.0269,0.1136 -0.0433,0.235 l -0.0297,0.2208 z m -1.4565,-0.008 c -0.3675,-0.016 -0.4412,-0.0271 -0.5931,-0.089 -0.36123,-0.1472 -0.59319,-0.3896 -0.70685,-0.7384 -0.06288,-0.1931 -0.08813,-0.5442 -0.05195,-0.7224 0.03291,-0.1621 0.3383,-0.8428 0.47152,-1.0511 0.05056,-0.0791 0.09192,-0.1542 0.09192,-0.167 0,-0.0128 -0.07609,-0.0841 -0.1691,-0.1585 -0.09301,-0.0743 -0.16283,-0.1352 -0.15516,-0.1352 0.0077,0 0.28028,-0.0725 0.60582,-0.161 0.3255,-0.0886 0.5985,-0.1543 0.6066,-0.1459 0.014,0.0144 0.2791,1.1665 0.2684,1.1665 -0.0028,0 -0.0888,-0.0365 -0.1912,-0.0811 -0.1024,-0.0446 -0.1949,-0.0718 -0.2056,-0.0604 -0.0583,0.0618 -0.2874,0.5053 -0.3516,0.6804 -0.0983,0.268 -0.1195,0.4416 -0.0695,0.568 0.0666,0.1684 0.1124,0.1835 0.6285,0.2071 0.351,0.0161 0.4676,0.0302 0.4847,0.0586 0.0124,0.0206 0.0227,0.2218 0.0229,0.4471 l 4e-4,0.4097 -0.1335,-0.0046 c -0.0734,-0.0025 -0.3224,-0.0127 -0.5532,-0.0228 z m 2.4693,-3.0049 -0.5444,-0.1756 0.0972,-0.0816 c 0.0535,-0.0448 0.1269,-0.108 0.163,-0.1403 l 0.0657,-0.0589 -0.076,-0.156 c -0.1731,-0.3553 -0.4323,-0.7036 -0.6075,-0.8165 -0.0932,-0.06 -0.263,-0.0672 -0.3348,-0.0141 -0.0277,0.0206 -0.159,0.2198 -0.2918,0.4427 -0.1327,0.223 -0.2559,0.4057 -0.2738,0.4059 -0.0596,10e-4 -0.6069,-0.3182 -0.7119,-0.415 -0.0038,-0.0035 0.1202,-0.2194 0.2755,-0.4799 0.3105,-0.5206 0.4331,-0.6612 0.6962,-0.7979 0.2176,-0.1132 0.4492,-0.1528 0.6646,-0.1139 0.1811,0.0328 0.4708,0.1678 0.6359,0.2964 0.1174,0.0914 0.5343,0.7258 0.6537,0.9946 0.0838,0.1889 0.0638,0.1846 0.33,0.0717 0.0804,-0.0341 0.1466,-0.0538 0.147,-0.0438 0.0012,0.0347 -0.3149,1.227 -0.3294,1.2424 -0.0081,0.0085 -0.2597,-0.0637 -0.5592,-0.1602 z"
           fill="url(#paint2_linear_35_12)"
           id="path47"
           style="fill:url(#linearGradient47)" />
      </g>
      <rect
         style="opacity:0.99;fill:#ffffff;fill-opacity:1;stroke-width:0.0430779;stroke-linecap:round;stroke-linejoin:round;paint-order:stroke markers fill"
         id="rect69"
         width="9.5680389"
         height="5.3143492"
         x="79.672516"
         y="3.4384151"
         rx="0"
         ry="0" />
      <rect
         style="opacity:0.99;fill:#f1483e;fill-opacity:1;stroke-width:0.127793;stroke-linecap:round;stroke-linejoin:round;paint-order:stroke markers fill"
         id="rect70"
         width="8.454649"
         height="0.70021421"
         x="80.20285"
         y="3.8888202" />
      <rect
         style="opacity:0.99;fill:#555555;fill-opacity:1;stroke-width:0.05;stroke-linecap:round;stroke-linejoin:round;paint-order:stroke markers fill"
         id="rect71"
         width="5.126524"
         height="0.17677669"
         x="80.20285"
         y="5.0106654" />
      <rect
         style="opacity:0.99;fill:#555555;fill-opacity:1;stroke-width:0.05;stroke-linecap:round;stroke-linejoin:round;paint-order:stroke markers fill"
         id="rect72"
         width="5.126524"
         height="0.17677669"
         x="80.20285"
         y="5.7653232" />
      <rect
         style="opacity:0.99;fill:#555555;fill-opacity:1;stroke-width:0.064201;stroke-linecap:round;stroke-linejoin:round;paint-order:stroke markers fill"
         id="rect73"
         width="8.4521351"
         height="0.17677669"
         x="80.20285"
         y="6.5199828" />
      <rect
         style="opacity:0.99;fill:#555555;fill-opacity:1;stroke-width:0.064201;stroke-linecap:round;stroke-linejoin:round;paint-order:stroke markers fill"
         id="rect74"
         width="8.4521351"
         height="0.17677669"
         x="80.20285"
         y="7.2746406" />
      <rect
         style="opacity:0.99;fill:#555555;fill-opacity:1;stroke-width:0.064201;stroke-linecap:round;stroke-linejoin:round;paint-order:stroke markers fill"
         id="rect75"
         width="8.4521351"
         height="0.17677669"
         x="80.20285"
         y="8.0292978" />
      <g
         id="g77"
         transform="matrix(2.0268772,0,0,2.0268772,-72.977383,-11.731835)">
        <circle
           style="opacity:0.99;fill:#2a2c3e;fill-opacity:1;stroke-width:0.05;stroke-linecap:round;stroke-linejoin:round;paint-order:stroke markers fill"
           id="circle77"
           cx="77.673141"
           cy="11.671137"
           r="0.6796875" />
        <path
           id="path76"
           style="opacity:0.99;fill:#22a9a2;fill-opacity:1;stroke-width:0.0327586;stroke-linecap:round;stroke-linejoin:round;paint-order:stroke markers fill"
           d="m 77.673146,11.225824 a 0.4453125,0.4453125 0 0 0 -0.44532,0.445313 0.4453125,0.4453125 0 0 0 0.44532,0.445312 0.4453125,0.4453125 0 0 0 0.44531,-0.445312 0.4453125,0.4453125 0 0 0 -0.44531,-0.445313 z m 0,0.06836 a 0.37728822,0.37728822 0 0 1 0.37695,0.376954 0.37728822,0.37728822 0 0 1 -0.37695,0.376953 0.37728822,0.37728822 0 0 1 -0.37696,-0.376953 0.37728822,0.37728822 0 0 1 0.37696,-0.376954 z" />
        <rect
           style="opacity:0.99;fill:#22a9a2;fill-opacity:1;stroke-width:0.05;stroke-linecap:round;stroke-linejoin:round;paint-order:stroke markers fill"
           id="rect77"
           width="0.1484375"
           height="0.5625"
           x="77.598923"
           y="11.11447"
           rx="0.07421875"
           ry="0.07421875" />
      </g>
    </g>
  </g>
</svg>
