<?xml version="1.0" encoding="UTF-8" standalone="no"?>
<svg
   width="24"
   height="24"
   viewBox="0 0 24 24"
   fill="none"
   version="1.1"
   id="svg15"
   sodipodi:docname="user-trash.svg"
   xml:space="preserve"
   inkscape:version="1.3 (0e150ed6c4, 2023-07-21)"
   inkscape:export-filename="../../../../../../../../../Imagens/Big Icons/user-trash.pdf"
   inkscape:export-xdpi="96"
   inkscape:export-ydpi="96"
   xmlns:inkscape="http://www.inkscape.org/namespaces/inkscape"
   xmlns:sodipodi="http://sodipodi.sourceforge.net/DTD/sodipodi-0.dtd"
   xmlns:xlink="http://www.w3.org/1999/xlink"
   xmlns="http://www.w3.org/2000/svg"
   xmlns:svg="http://www.w3.org/2000/svg"><sodipodi:namedview
     id="namedview15"
     pagecolor="#ffffff"
     bordercolor="#000000"
     borderopacity="0.25"
     inkscape:showpageshadow="2"
     inkscape:pageopacity="0.0"
     inkscape:pagecheckerboard="0"
     inkscape:deskcolor="#d1d1d1"
     inkscape:zoom="15.999999"
     inkscape:cx="15.656251"
     inkscape:cy="22.843751"
     inkscape:window-width="2560"
     inkscape:window-height="998"
     inkscape:window-x="0"
     inkscape:window-y="0"
     inkscape:window-maximized="1"
     inkscape:current-layer="svg15"><inkscape:page
       x="0"
       y="0"
       width="24"
       height="24"
       id="page1"
       margin="0"
       bleed="0" /></sodipodi:namedview><defs
     id="defs15"><linearGradient
       id="linearGradient30"
       inkscape:collect="always"><stop
         style="stop-color:#4c4f62;stop-opacity:1;"
         offset="0"
         id="stop30" /><stop
         style="stop-color:#313340;stop-opacity:1;"
         offset="1"
         id="stop31" /></linearGradient><linearGradient
       id="linearGradient27"
       x1="23"
       y1="0.99999899"
       x2="1"
       y2="12"
       gradientUnits="userSpaceOnUse"><stop
         stop-color="#777777"
         id="stop26"
         offset="0"
         style="stop-color:#4c4f62;stop-opacity:1;" /><stop
         offset="1"
         stop-color="#333333"
         id="stop27"
         style="stop-color:#323642;stop-opacity:1;" /></linearGradient><linearGradient
       id="linearGradient23"
       x1="23"
       y1="0.99999899"
       x2="1"
       y2="12"
       gradientUnits="userSpaceOnUse"><stop
         stop-color="#777777"
         id="stop22"
         offset="0"
         style="stop-color:#4c4f62;stop-opacity:1;" /><stop
         offset="1"
         stop-color="#333333"
         id="stop23"
         style="stop-color:#313340;stop-opacity:1;" /></linearGradient><linearGradient
       id="paint0_linear_35_12"
       x1="23"
       y1="0.99999899"
       x2="1"
       y2="12"
       gradientUnits="userSpaceOnUse"><stop
         stop-color="#777777"
         id="stop10" /><stop
         offset="1"
         stop-color="#333333"
         id="stop11" /></linearGradient><linearGradient
       id="paint1_linear_35_12"
       x1="12.55"
       y1="13.65"
       x2="9.25"
       y2="18.049999"
       gradientUnits="userSpaceOnUse"><stop
         stop-color="#181818"
         id="stop12" /><stop
         offset="1"
         stop-color="#181818"
         id="stop13" /></linearGradient><linearGradient
       id="paint2_linear_35_12"
       x1="13.1"
       y1="13.1"
       x2="9.8000002"
       y2="17.5"
       gradientUnits="userSpaceOnUse"
       gradientTransform="translate(-40)"><stop
         stop-color="#84FAA1"
         id="stop14" /><stop
         offset="1"
         stop-color="#33C478"
         id="stop15" /></linearGradient><linearGradient
       inkscape:collect="always"
       xlink:href="#linearGradient30"
       id="linearGradient31"
       x1="55.257156"
       y1="7.3702679"
       x2="33.280914"
       y2="18.745268"
       gradientUnits="userSpaceOnUse"
       gradientTransform="translate(-32.269035,-6.2467928)" /><clipPath
       clipPathUnits="userSpaceOnUse"
       id="clipPath1"><path
         d="M 0,0 H 19 V 19 H 0 Z"
         id="path1" /></clipPath><clipPath
       clipPathUnits="userSpaceOnUse"
       id="clipPath3"><path
         d="M 0,0 H 19 V 19 H 0 Z"
         id="path3" /></clipPath><linearGradient
       x1="55.257156"
       y1="7.3702679"
       x2="33.280914"
       y2="18.745268"
       gradientUnits="userSpaceOnUse"
       gradientTransform="matrix(0.75,0,0,0.75,-24.201776,-4.685095)"
       spreadMethod="pad"
       id="linearGradient5"><stop
         style="stop-opacity:1;stop-color:#4c4f62"
         offset="0"
         id="stop4" /><stop
         style="stop-opacity:1;stop-color:#313340"
         offset="1"
         id="stop5" /></linearGradient><clipPath
       clipPathUnits="userSpaceOnUse"
       id="clipPath9"><path
         d="M 0,0 H 19 V 19 H 0 Z"
         id="path9" /></clipPath><linearGradient
       x1="13.1"
       y1="13.1"
       x2="9.8000002"
       y2="17.5"
       gradientUnits="userSpaceOnUse"
       gradientTransform="translate(-0.00354,1.155388)"
       spreadMethod="pad"
       id="linearGradient11"><stop
         style="stop-opacity:1;stop-color:#84faa1"
         offset="0"
         id="stop10-3" /><stop
         style="stop-opacity:1;stop-color:#33c478"
         offset="1"
         id="stop11-6" /></linearGradient><clipPath
       clipPathUnits="userSpaceOnUse"
       id="clipPath12"><path
         d="M 0,0 H 19 V 19 H 0 Z"
         id="path12" /></clipPath><clipPath
       clipPathUnits="userSpaceOnUse"
       id="clipPath14"><path
         d="M 0,0 H 19 V 19 H 0 Z"
         id="path14" /></clipPath><clipPath
       clipPathUnits="userSpaceOnUse"
       id="clipPath16"><path
         d="M 0,0 H 19 V 19 H 0 Z"
         id="path16" /></clipPath><clipPath
       clipPathUnits="userSpaceOnUse"
       id="clipPath9-3"><path
         d="M 0,0 H 19 V 19 H 0 Z"
         id="path9-5" /></clipPath></defs><rect
     style="opacity:0.3;fill:#ffffff;fill-opacity:1;stroke-width:0.0483359;stroke-linecap:round;stroke-linejoin:round;paint-order:stroke markers fill"
     id="rect29"
     width="22.023758"
     height="21.989916"
     x="0.98812103"
     y="1.0050421"
     rx="6.4798532" /><rect
     style="opacity:0.05;fill:#ffffff;stroke-width:0.0367466;stroke-linecap:round;stroke-linejoin:round;paint-order:stroke markers fill"
     id="rect33"
     width="22.023758"
     height="12.70914"
     x="0.98812103"
     y="10.285818"
     rx="6.3545699"
     ry="6.3545699" /><rect
     style="fill:url(#linearGradient31);stroke-width:0.035313;stroke-linecap:round;stroke-linejoin:round;paint-order:stroke markers fill"
     id="rect30"
     width="22.023758"
     height="11.736868"
     x="0.98812139"
     y="1.0050421"
     rx="6.4798532" /><circle
     style="fill:#62b84c;fill-opacity:1;stroke-width:0.05;stroke-linecap:round;stroke-linejoin:round;paint-order:stroke markers fill"
     id="circle31"
     cx="16.464188"
     cy="3.4006953"
     r="0.64868981" /><circle
     style="fill:#e5393a;fill-opacity:1;stroke-width:0.05;stroke-linecap:round;stroke-linejoin:round;paint-order:stroke markers fill"
     id="circle32"
     cx="18.464195"
     cy="3.4006953"
     r="0.64868981" /><rect
     style="fill:#2a2c3e;fill-opacity:1;stroke-width:0.0269408;stroke-linecap:round;stroke-linejoin:round;paint-order:stroke markers fill"
     id="rect32"
     width="17.995911"
     height="0.75331718"
     x="3.0020449"
     y="6.4968176"
     rx="0.37665859"
     ry="0.37665859" /><g
     opacity="0.5"
     id="g10"
     transform="translate(0.14962837)"><path
       d="M 8.961,14.445 8.633,14.086 8.941,13.77 9.254,13.457 9.277,13.609 c 0.012,0.082 0.028,0.161 0.032,0.168 0.007,0.012 0.105,0.02 0.222,0.02 0.364,0 0.629,-0.074 0.719,-0.195 0.07,-0.094 0.051,-0.168 -0.121,-0.52 C 9.977,12.777 9.969,12.754 10,12.723 c 0.047,-0.043 0.184,-0.129 0.355,-0.227 l 0.153,-0.086 0.183,0.367 c 0.192,0.375 0.215,0.442 0.239,0.649 0.039,0.371 -0.172,0.738 -0.528,0.922 -0.125,0.062 -0.168,0.074 -0.371,0.093 -0.125,0.012 -0.328,0.02 -0.453,0.02 -0.125,-0.004 -0.23,0 -0.234,0.008 -0.008,0.004 -0.02,0.086 -0.032,0.176 L 9.289,14.809 Z M 7.867,14.441 C 7.59,14.43 7.535,14.422 7.422,14.375 7.152,14.266 6.977,14.082 6.891,13.82 6.844,13.676 6.828,13.414 6.852,13.277 c 0.027,-0.121 0.253,-0.629 0.355,-0.785 0.039,-0.062 0.07,-0.117 0.07,-0.125 0,-0.012 -0.058,-0.066 -0.129,-0.121 -0.07,-0.055 -0.121,-0.101 -0.117,-0.101 0.008,0 0.211,-0.055 0.457,-0.122 0.242,-0.066 0.45,-0.113 0.453,-0.109 0.012,0.012 0.211,0.875 0.204,0.875 C 8.141,12.789 8.078,12.762 8,12.73 7.922,12.695 7.855,12.676 7.848,12.684 7.801,12.73 7.629,13.062 7.582,13.195 c -0.074,0.2 -0.09,0.328 -0.051,0.426 0.047,0.125 0.082,0.137 0.469,0.152 0.266,0.016 0.352,0.024 0.363,0.047 0.012,0.016 0.02,0.164 0.02,0.336 v 0.305 L 8.281,14.457 c -0.054,0 -0.242,-0.008 -0.414,-0.016 z M 9.719,12.188 9.312,12.055 9.383,11.996 C 9.426,11.961 9.48,11.914 9.508,11.891 L 9.555,11.844 9.5,11.727 C 9.367,11.461 9.176,11.199 9.043,11.117 8.973,11.07 8.844,11.066 8.793,11.105 8.77,11.121 8.672,11.27 8.574,11.438 c -0.101,0.167 -0.191,0.304 -0.207,0.304 -0.043,0 -0.453,-0.238 -0.535,-0.312 0,0 0.09,-0.164 0.207,-0.36 0.234,-0.39 0.324,-0.496 0.523,-0.597 0.165,-0.086 0.336,-0.114 0.5,-0.086 0.133,0.023 0.352,0.125 0.477,0.222 0.086,0.067 0.399,0.543 0.488,0.746 0.063,0.141 0.047,0.137 0.25,0.055 0.059,-0.027 0.11,-0.043 0.11,-0.035 0,0.027 -0.239,0.922 -0.246,0.934 -0.008,0.003 -0.196,-0.047 -0.422,-0.121 z"
       style="fill:#1a1a1a;fill-opacity:1;fill-rule:nonzero;stroke:none"
       transform="scale(1.3333333)"
       clip-path="url(#clipPath9-3)"
       id="path10" /></g><path
     id="path11"
     d="m 12.094512,18.964 -0.438667,-0.485334 0.417334,-0.416 0.416,-0.422666 0.02667,0.204 c 0.016,0.114666 0.036,0.213333 0.04667,0.229333 0.0053,0.0093 0.141333,0.02 0.297333,0.02 0.484,0 0.838667,-0.09867 0.958667,-0.26 0.09333,-0.12 0.06667,-0.218667 -0.166667,-0.693333 -0.198666,-0.405334 -0.214666,-0.437334 -0.172,-0.473334 0.06667,-0.05733 0.244,-0.177333 0.478667,-0.306666 l 0.197333,-0.114667 0.250667,0.489333 c 0.254667,0.505334 0.286667,0.588 0.317333,0.864 0.052,0.5 -0.229333,0.989334 -0.708,1.234667 -0.161333,0.084 -0.224,0.09867 -0.489333,0.125333 -0.166667,0.01467 -0.442667,0.02533 -0.604,0.02 -0.166667,0 -0.308,0.0053 -0.318667,0.01067 C 12.598512,19 12.578512,19.104 12.562512,19.224 l -0.03067,0.224 z M 10.641179,18.95333 C 10.270512,18.93733 10.198512,18.92666 10.046512,18.864 9.6825122,18.718666 9.4531792,18.473333 9.3385122,18.130666 c -0.06267,-0.198666 -0.088,-0.546666 -0.052,-0.724 0.032,-0.161333 0.338667,-0.844 0.474667,-1.052 0.046666,-0.07867 0.088,-0.157336 0.088,-0.166669 0,-0.016 -0.073334,-0.084 -0.166667,-0.157334 -0.093333,-0.07733 -0.166667,-0.134666 -0.156,-0.134666 0.0053,0 0.281333,-0.07333 0.6039998,-0.161334 0.328,-0.08933 0.598667,-0.156 0.609333,-0.146666 0.01067,0.01067 0.276,1.166666 0.265334,1.166666 0,0 -0.088,-0.036 -0.186667,-0.08267 -0.105333,-0.04666 -0.198667,-0.07333 -0.209333,-0.06266 -0.05733,0.06267 -0.286667,0.505333 -0.348,0.682667 -0.1,0.270666 -0.12,0.442666 -0.07333,0.568 0.068,0.166666 0.114667,0.181333 0.630667,0.208 0.348,0.01467 0.468,0.03067 0.484,0.05733 0.01067,0.02 0.02,0.224 0.02,0.448 V 18.984 l -0.129337,-0.0053 c -0.07333,-0.0053 -0.322667,-0.01467 -0.552,-0.02533 z m 2.468,-3.005333 -0.546667,-0.172 0.09867,-0.08267 c 0.052,-0.048 0.125333,-0.109333 0.161333,-0.141333 l 0.068,-0.05733 -0.07733,-0.156 C 12.641179,14.984 12.379845,14.636 12.209179,14.521333 c -0.09467,-0.05733 -0.266667,-0.068 -0.338667,-0.016 -0.02667,0.02133 -0.157333,0.224 -0.292,0.442667 -0.130667,0.224 -0.256,0.406666 -0.270667,0.406666 -0.06267,0.0053 -0.609333,-0.318666 -0.713333,-0.412 -0.0053,-0.0053 0.118667,-0.218666 0.276,-0.484 0.306667,-0.516 0.432,-0.656 0.697333,-0.797333 0.213334,-0.109333 0.448,-0.150667 0.661334,-0.114667 0.182666,0.03733 0.474666,0.172 0.636,0.297334 0.12,0.09333 0.536,0.729333 0.656,0.994666 0.08267,0.192 0.06267,0.188 0.328,0.07333 0.08267,-0.032 0.145333,-0.052 0.145333,-0.04267 0.0053,0.032 -0.312,1.224 -0.328,1.24 -0.0053,0.01067 -0.26,-0.06266 -0.557333,-0.161326 z"
     style="fill:url(#linearGradient11);stroke:none;stroke-width:1.33333" /><g
     id="g78"
     transform="matrix(2.4820264,0,0,2.4820264,-180.78679,-18.946987)"
     style="stroke-width:0.816622"><circle
       style="opacity:0.99;fill:#2a2c3e;fill-opacity:1;stroke-width:0.0408311;stroke-linecap:round;stroke-linejoin:round;paint-order:stroke markers fill"
       id="circle78"
       cx="77.673141"
       cy="11.671137"
       r="0.6796875" /><path
       id="path78"
       style="opacity:0.99;fill:#22a9a2;fill-opacity:1;stroke-width:0.0267514;stroke-linecap:round;stroke-linejoin:round;paint-order:stroke markers fill"
       d="m 77.673146,11.225824 a 0.4453125,0.4453125 0 0 0 -0.44532,0.445313 0.4453125,0.4453125 0 0 0 0.44532,0.445312 0.4453125,0.4453125 0 0 0 0.44531,-0.445312 0.4453125,0.4453125 0 0 0 -0.44531,-0.445313 z m 0,0.06836 a 0.37728822,0.37728822 0 0 1 0.37695,0.376954 0.37728822,0.37728822 0 0 1 -0.37695,0.376953 0.37728822,0.37728822 0 0 1 -0.37696,-0.376953 0.37728822,0.37728822 0 0 1 0.37696,-0.376954 z" /><rect
       style="opacity:0.99;fill:#22a9a2;fill-opacity:1;stroke-width:0.0408311;stroke-linecap:round;stroke-linejoin:round;paint-order:stroke markers fill"
       id="rect78"
       width="0.1484375"
       height="0.5625"
       x="77.598923"
       y="11.11447"
       rx="0.07421875"
       ry="0.07421875" /></g><g
     id="g1"
     inkscape:groupmode="layer"
     inkscape:label="1"
     transform="translate(34)" /></svg>
