<?xml version="1.0" encoding="UTF-8" standalone="no"?>
<svg
   width="24"
   height="24"
   viewBox="0 0 24 24"
   fill="none"
   version="1.1"
   id="svg11"
   sodipodi:docname="xfce-trash_empty.svg"
   inkscape:version="1.3 (0e150ed6c4, 2023-07-21)"
   xmlns:inkscape="http://www.inkscape.org/namespaces/inkscape"
   xmlns:sodipodi="http://sodipodi.sourceforge.net/DTD/sodipodi-0.dtd"
   xmlns="http://www.w3.org/2000/svg"
   xmlns:svg="http://www.w3.org/2000/svg">
  <sodipodi:namedview
     id="namedview11"
     pagecolor="#ffffff"
     bordercolor="#000000"
     borderopacity="0.25"
     inkscape:showpageshadow="2"
     inkscape:pageopacity="0.0"
     inkscape:pagecheckerboard="0"
     inkscape:deskcolor="#d1d1d1"
     inkscape:zoom="16"
     inkscape:cx="9.0625"
     inkscape:cy="8.03125"
     inkscape:window-width="2560"
     inkscape:window-height="998"
     inkscape:window-x="0"
     inkscape:window-y="0"
     inkscape:window-maximized="1"
     inkscape:current-layer="svg11" />
  <path
     opacity="0.3"
     d="M16.532 1.00504H7.46797C3.88925 1.00504 0.988121 3.90617 0.988121 7.4849V16.5151C0.988121 20.0938 3.88925 22.995 7.46797 22.995H16.532C20.1108 22.995 23.0119 20.0938 23.0119 16.5151V7.4849C23.0119 3.90617 20.1108 1.00504 16.532 1.00504Z"
     fill="white"
     id="path1" />
  <path
     opacity="0.05"
     d="M16.6573 10.2858H7.34269C3.83316 10.2858 0.988121 13.1309 0.988121 16.6404C0.988121 20.1499 3.83316 22.995 7.34269 22.995H16.6573C20.1668 22.995 23.0119 20.1499 23.0119 16.6404C23.0119 13.1309 20.1668 10.2858 16.6573 10.2858Z"
     fill="white"
     id="path2" />
  <path
     d="m 12.094512,20.43 -0.43866,-0.4853 0.41733,-0.416 0.416,-0.4227 0.02667,0.204 c 0.016,0.1147 0.036,0.2134 0.04667,0.2294 0.0053,0.0093 0.14133,0.02 0.29733,0.02 0.484,0 0.83867,-0.0987 0.95867,-0.26 0.09333,-0.12 0.06667,-0.2187 -0.16667,-0.6934 -0.19866,-0.4053 -0.21466,-0.4373 -0.172,-0.4733 0.06667,-0.0573 0.244,-0.1773 0.47867,-0.3067 l 0.19733,-0.1146 0.25067,0.4893 c 0.25467,0.5053 0.28667,0.588 0.31733,0.864 0.052,0.5 -0.22933,0.9893 -0.708,1.2347 -0.16133,0.084 -0.224,0.0986 -0.48933,0.1253 -0.16667,0.0147 -0.44267,0.0253 -0.604,0.02 -0.16667,0 -0.308,0.0053 -0.31867,0.0107 -0.0053,0.0106 -0.02534,0.1146 -0.04134,0.2346 l -0.03067,0.224 z m -1.45333,-0.0106 c -0.37067,-0.016 -0.44267,-0.0267 -0.59467,-0.0894 -0.3639999,-0.1453 -0.5933299,-0.3906 -0.7079999,-0.7333 -0.06267,-0.1987 -0.088,-0.5467 -0.052,-0.724 0.032,-0.1613 0.33867,-0.844 0.47467,-1.052 0.04667,-0.0787 0.088,-0.1573 0.088,-0.1667 0,-0.016 -0.07333,-0.084 -0.16667,-0.1573 -0.09333,-0.0773 -0.16666,-0.1347 -0.156,-0.1347 0.0053,0 0.28134,-0.0733 0.6039999,-0.1613 0.328,-0.0893 0.59867,-0.156 0.60934,-0.1467 0.01067,0.0107 0.276,1.1667 0.26533,1.1667 0,0 -0.088,-0.036 -0.18667,-0.0827 -0.10533,-0.0466 -0.19866,-0.0733 -0.20933,-0.0626 -0.05733,0.0626 -0.28667,0.5053 -0.348,0.6826 -0.1,0.2707 -0.12,0.4427 -0.07333,0.568 0.068,0.1667 0.11467,0.1814 0.63067,0.208 0.348,0.0147 0.468,0.0307 0.484,0.0574 0.01067,0.02 0.02,0.224 0.02,0.448 V 20.45 l -0.12934,-0.0053 c -0.07333,-0.0053 -0.32267,-0.0147 -0.552,-0.0253 z m 2.468,-3.0054 -0.54667,-0.172 0.09867,-0.0827 c 0.052,-0.048 0.12534,-0.1093 0.16134,-0.1413 l 0.068,-0.0573 -0.07733,-0.156 c -0.17201,-0.3547 -0.43334,-0.7027 -0.60401,-0.8173 -0.09467,-0.0574 -0.26667,-0.068 -0.33867,-0.016 -0.02667,0.0213 -0.15733,0.224 -0.292,0.4426 -0.13066,0.224 -0.256,0.4067 -0.27066,0.4067 -0.06267,0.0053 -0.60934,-0.3187 -0.71334,-0.412 -0.0053,-0.0053 0.11867,-0.2187 0.276,-0.484 0.30667,-0.516 0.432,-0.656 0.69734,-0.7973 0.21333,-0.1094 0.448,-0.1507 0.66133,-0.1147 0.18267,0.0373 0.47467,0.172 0.636,0.2973 0.12,0.0934 0.536,0.7294 0.656,0.9947 0.08267,0.192 0.06267,0.188 0.328,0.0733 0.08267,-0.032 0.14533,-0.052 0.14533,-0.0427 0.0053,0.032 -0.312,1.224 -0.328,1.24 -0.0053,0.0107 -0.26,-0.0626 -0.55733,-0.1613 z"
     fill="url(#paint0_linear_35_12)"
     id="path3"
     style="fill:url(#paint0_linear_35_12)" />
  <path
     d="M16.532 1.00504H7.46797C3.88925 1.00504 0.988121 3.63243 0.988121 6.87348C0.988121 10.1145 3.88925 12.7419 7.46797 12.7419H16.532C20.1108 12.7419 23.0119 10.1145 23.0119 6.87348C23.0119 3.63243 20.1108 1.00504 16.532 1.00504Z"
     fill="url(#paint1_linear_35_12)"
     id="path4" />
  <path
     d="M20.6213 6.49682H3.3787C3.17068 6.49682 3.00204 6.66545 3.00204 6.87348C3.00204 7.0815 3.17068 7.25014 3.3787 7.25014H20.6213C20.8293 7.25014 20.998 7.0815 20.998 6.87348C20.998 6.66545 20.8293 6.49682 20.6213 6.49682Z"
     fill="#2A2C3E"
     id="path5" />
  <path
     opacity="0.99"
     d="M12 11.7081C12.9317 11.7081 13.687 10.9528 13.687 10.0211C13.687 9.08938 12.9317 8.33408 12 8.33408C11.0683 8.33408 10.313 9.08938 10.313 10.0211C10.313 10.9528 11.0683 11.7081 12 11.7081Z"
     fill="#2A2C3E"
     id="path6" />
  <path
     opacity="0.99"
     d="M12 8.91581C11.8549 8.9158 11.7111 8.94439 11.577 8.99993C11.4429 9.05548 11.3211 9.13689 11.2185 9.23953C11.1158 9.34216 11.0344 9.46401 10.9788 9.59811C10.9233 9.73221 10.8947 9.87593 10.8947 10.0211C10.8947 10.1662 10.9233 10.31 10.9788 10.4441C11.0344 10.5782 11.1158 10.7 11.2185 10.8026C11.3211 10.9053 11.4429 10.9867 11.577 11.0422C11.7111 11.0978 11.8549 11.1264 12 11.1264C12.2931 11.1264 12.5743 11.0099 12.7816 10.8026C12.9888 10.5954 13.1053 10.3142 13.1053 10.0211C13.1053 9.72795 12.9888 9.44681 12.7816 9.23953C12.5743 9.03225 12.2931 8.91581 12 8.91581ZM12 9.08548C12.2481 9.0857 12.4859 9.18434 12.6613 9.35976C12.8367 9.53517 12.9354 9.77302 12.9356 10.0211C12.9354 10.2692 12.8367 10.507 12.6613 10.6824C12.4859 10.8578 12.2481 10.9565 12 10.9567C11.7519 10.9565 11.5141 10.8578 11.3387 10.6824C11.1632 10.507 11.0646 10.2692 11.0644 10.0211C11.0646 9.77301 11.1632 9.53516 11.3387 9.35975C11.5141 9.18433 11.7519 9.08569 12 9.08548Z"
     fill="#62B84C"
     id="path7" />
  <path
     opacity="0.99"
     d="M12.1842 8.82363C12.1842 8.72189 12.1017 8.63942 12 8.63942C11.8983 8.63942 11.8158 8.72189 11.8158 8.82363V9.85135C11.8158 9.95308 11.8983 10.0356 12 10.0356C12.1017 10.0356 12.1842 9.95308 12.1842 9.85135V8.82363Z"
     fill="#62B84C"
     id="path8" />
  <defs
     id="defs11">
    <linearGradient
       id="paint0_linear_35_12"
       x1="6.82646"
       y1="15.7214"
       x2="3.52646"
       y2="20.1214"
       gradientUnits="userSpaceOnUse"
       gradientTransform="translate(6.2700021)">
      <stop
         stop-color="#84FAA1"
         id="stop8" />
      <stop
         offset="1"
         stop-color="#33C478"
         id="stop9" />
    </linearGradient>
    <linearGradient
       id="paint1_linear_35_12"
       x1="22.9881"
       y1="1.12348"
       x2="1.01188"
       y2="12.4985"
       gradientUnits="userSpaceOnUse">
      <stop
         stop-color="#4C4F62"
         id="stop10" />
      <stop
         offset="1"
         stop-color="#313340"
         id="stop11" />
    </linearGradient>
  </defs>
  <circle
     style="fill:#62b84c;fill-opacity:1;stroke-width:0.05;stroke-linecap:round;stroke-linejoin:round;paint-order:stroke markers fill"
     id="circle46"
     cx="19.00148"
     cy="4.4984741"
     r="0.75" />
</svg>
