<svg width="24" height="24" viewBox="0 0 24 24" fill="none" xmlns="http://www.w3.org/2000/svg">
<rect x="2" y="2" width="20" height="20" rx="6" fill="url(#paint0_linear_30_2)"/>
<g opacity="0.5">
<path opacity="0.30004" d="M6.78716 5.70579V10.405H4.58939C4.26284 10.405 4 10.6679 4 10.9944V14.8274V16.2935C4 16.62 4.26284 16.8829 4.58939 16.8829H6.78575V21.25H7.32075V16.8829H7.49297V21.25H8.02797V16.8829H8.20007V21.25H8.73507V16.8829H8.90729V21.25H9.44228V16.8829H9.61451V21.25H10.1495V16.8829H10.3216V21.25H10.8566V16.8829H11.0288V21.25H11.5638V16.8829H11.7359V21.25H12.271V16.8829H12.4431V21.25H12.9781V16.8829H13.1504V21.25H13.6854V16.8829H13.8575V21.25H14.3925V16.8829H16.5481C16.8746 16.8829 17.1374 16.62 17.1374 16.2935V12.4605V10.9944C17.1374 10.6679 16.8746 10.405 16.5481 10.405H14.3942V6.82159L14.3936 6.821H14.3942L14.0137 6.44602L13.2637 5.70579H13.2626L6.78716 5.70579Z" fill="#777777"/>
<path d="M16.9098 11.4153H4.95118C4.62565 11.4153 4.36175 11.6792 4.36175 12.0047V15.8377C4.36175 16.1632 4.62565 16.4271 4.95118 16.4271H16.9098C17.2353 16.4271 17.4992 16.1632 17.4992 15.8377V12.0047C17.4992 11.6792 17.2353 11.4153 16.9098 11.4153Z" fill="#777777"/>
<path d="M16.9098 9.94913H4.95118C4.62565 9.94913 4.36175 10.213 4.36175 10.5386V14.3715C4.36175 14.697 4.62565 14.9609 4.95118 14.9609H16.9098C17.2353 14.9609 17.4992 14.697 17.4992 14.3715V10.5386C17.4992 10.213 17.2353 9.94913 16.9098 9.94913Z" fill="#777777"/>
<path d="M16.4913 14.3674C16.615 14.3674 16.7153 14.2671 16.7153 14.1434C16.7153 14.0197 16.615 13.9194 16.4913 13.9194C16.3676 13.9194 16.2674 14.0197 16.2674 14.1434C16.2674 14.2671 16.3676 14.3674 16.4913 14.3674Z" fill="#777777"/>
<path d="M15.7967 14.3838C15.9257 14.3838 16.0302 14.2762 16.0302 14.1434C16.0302 14.0106 15.9257 13.903 15.7967 13.903C15.6677 13.903 15.5631 14.0106 15.5631 14.1434C15.5631 14.2762 15.6677 14.3838 15.7967 14.3838Z" fill="#777777"/>
<path opacity="0.700117" d="M16.5107 10.4411H5.44234C5.35049 10.4411 5.27603 10.5155 5.27603 10.6074C5.27603 10.6992 5.35049 10.7737 5.44234 10.7737H16.5107C16.6025 10.7737 16.677 10.6992 16.677 10.6074C16.677 10.5155 16.6025 10.4411 16.5107 10.4411Z" fill="#777777"/>
<path opacity="0.700117" d="M16.5107 15.5162H5.44234C5.35049 15.5162 5.27603 15.5907 5.27603 15.6825C5.27603 15.7744 5.35049 15.8488 5.44234 15.8488H16.5107C16.6025 15.8488 16.677 15.7744 16.677 15.6825C16.677 15.5907 16.6025 15.5162 16.5107 15.5162Z" fill="#777777"/>
<path d="M7.14887 5.25V10.5667H14.756V6.36581L13.6254 5.25H7.14887Z" fill="#777777"/>
<path d="M11.0317 14.0465L10.8185 13.8239L11.021 13.6307L11.2234 13.4374L11.2374 13.5313C11.2451 13.583 11.2544 13.6301 11.2581 13.6362C11.2619 13.6422 11.3272 13.647 11.4034 13.6467C11.6381 13.646 11.8109 13.6016 11.8696 13.5269C11.9142 13.4702 11.9028 13.4246 11.7895 13.208C11.6913 13.0203 11.6859 13.006 11.706 12.9885C11.7373 12.9612 11.8252 12.9076 11.9371 12.8477L12.0354 12.7951L12.156 13.0201C12.2801 13.2515 12.2953 13.2911 12.3093 13.4183C12.3348 13.6483 12.199 13.8728 11.9661 13.9861C11.8872 14.0244 11.8572 14.0316 11.7274 14.0432C11.6457 14.0505 11.5132 14.0556 11.4329 14.0546C11.3526 14.0535 11.2839 14.0556 11.2803 14.0592C11.2767 14.0628 11.2672 14.1115 11.2593 14.1675L11.2448 14.2692L11.0317 14.0465ZM10.3231 14.0429C10.1444 14.0355 10.1085 14.0304 10.0346 14.0019C9.8589 13.934 9.74606 13.8224 9.69077 13.6617C9.66018 13.5728 9.6479 13.411 9.6655 13.329C9.68151 13.2543 9.83007 12.9407 9.89488 12.8448C9.91947 12.8084 9.9396 12.7738 9.9396 12.7679C9.9396 12.762 9.90258 12.7291 9.85733 12.6949C9.81208 12.6606 9.77812 12.6326 9.78185 12.6326C9.78559 12.6326 9.9182 12.5992 10.0766 12.5584C10.2349 12.5176 10.3677 12.4874 10.3716 12.4912C10.3784 12.4979 10.5074 13.0285 10.5022 13.0285C10.5009 13.0285 10.459 13.0117 10.4092 12.9912C10.3594 12.9707 10.3144 12.9581 10.3092 12.9634C10.2808 12.9919 10.1694 13.1961 10.1381 13.2768C10.0903 13.4002 10.08 13.4802 10.1043 13.5384C10.1367 13.616 10.159 13.6229 10.4101 13.6338C10.5808 13.6412 10.6376 13.6477 10.6459 13.6608C10.6519 13.6703 10.6569 13.763 10.657 13.8668L10.6572 14.0554L10.5922 14.0534C10.5565 14.0522 10.4354 14.0475 10.3231 14.0429ZM11.5244 12.6587L11.2595 12.5778L11.3069 12.5403C11.3329 12.5196 11.3686 12.4905 11.3861 12.4756L11.4181 12.4485L11.3811 12.3766C11.2969 12.213 11.1708 12.0525 11.0856 12.0006C11.0402 11.9729 10.9577 11.9696 10.9227 11.9941C10.9092 12.0035 10.8454 12.0953 10.7808 12.198C10.7162 12.3007 10.6563 12.3848 10.6476 12.3849C10.6186 12.3853 10.3523 12.2384 10.3013 12.1938C10.2994 12.1922 10.3597 12.0927 10.4353 11.9727C10.5863 11.7329 10.646 11.6682 10.774 11.6052C10.8798 11.5531 10.9925 11.5348 11.0973 11.5527C11.1854 11.5678 11.3263 11.63 11.4066 11.6892C11.4637 11.7313 11.6665 12.0235 11.7246 12.1474C11.7654 12.2344 11.7557 12.2324 11.8852 12.1804C11.9243 12.1647 11.9564 12.1556 11.9566 12.1602C11.9573 12.1762 11.8035 12.7254 11.7964 12.7325C11.7925 12.7364 11.6701 12.7032 11.5244 12.6587Z" fill="#777777"/>
<path d="M7.6825 15.6253H7.14749V20.7941H7.6825V15.6253Z" fill="#777777"/>
<path d="M8.38967 15.6253H7.85466V20.7941H8.38967V15.6253Z" fill="#777777"/>
<path d="M9.09685 15.6253H8.56184V20.7941H9.09685V15.6253Z" fill="#777777"/>
<path d="M9.80402 15.6253H9.26901V20.7941H9.80402V15.6253Z" fill="#777777"/>
<path d="M10.5112 15.6253H9.97618V20.7941H10.5112V15.6253Z" fill="#777777"/>
<path d="M11.2184 15.6253H10.6834V20.7941H11.2184V15.6253Z" fill="#777777"/>
<path d="M11.9255 15.6253H11.3905V20.7941H11.9255V15.6253Z" fill="#777777"/>
<path d="M12.6327 15.6253H12.0977V20.7941H12.6327V15.6253Z" fill="#777777"/>
<path d="M13.3399 15.6253H12.8049V20.7941H13.3399V15.6253Z" fill="#777777"/>
<path d="M14.0471 15.6253H13.5121V20.7941H14.0471V15.6253Z" fill="#777777"/>
<path d="M14.7542 15.6253H14.2192V20.7941H14.7542V15.6253Z" fill="url(#paint1_linear_30_2)"/>
<path d="M13.6243 5.25L14.756 6.3652H13.6243V5.25Z" fill="#777777"/>
</g>
<path opacity="0.30004" d="M7.78716 4.70579V9.40502H5.58939C5.26284 9.40502 5 9.66787 5 9.99441V13.8274V15.2935C5 15.62 5.26284 15.8829 5.58939 15.8829H7.78575V20.25H8.32075V15.8829H8.49297V20.25H9.02797V15.8829H9.20007V20.25H9.73507V15.8829H9.90729V20.25H10.4423V15.8829H10.6145V20.25H11.1495V15.8829H11.3216V20.25H11.8566V15.8829H12.0288V20.25H12.5638V15.8829H12.7359V20.25H13.271V15.8829H13.4431V20.25H13.9781V15.8829H14.1504V20.25H14.6854V15.8829H14.8575V20.25H15.3925V15.8829H17.5481C17.8746 15.8829 18.1374 15.62 18.1374 15.2935V11.4605V9.99441C18.1374 9.66787 17.8746 9.40502 17.5481 9.40502H15.3942V5.82159L15.3936 5.821H15.3942L15.0137 5.44602L14.2637 4.70579H14.2626L7.78716 4.70579Z" fill="#2C91C9" fill-opacity="0.137868"/>
<path d="M17.9098 10.4153H5.95118C5.62565 10.4153 5.36175 10.6792 5.36175 11.0047V14.8377C5.36175 15.1632 5.62565 15.4271 5.95118 15.4271H17.9098C18.2353 15.4271 18.4992 15.1632 18.4992 14.8377V11.0047C18.4992 10.6792 18.2353 10.4153 17.9098 10.4153Z" fill="#3C3A48"/>
<path d="M17.9098 8.94913H5.95118C5.62565 8.94913 5.36175 9.21303 5.36175 9.53856V13.3715C5.36175 13.697 5.62565 13.9609 5.95118 13.9609H17.9098C18.2353 13.9609 18.4992 13.697 18.4992 13.3715V9.53856C18.4992 9.21303 18.2353 8.94913 17.9098 8.94913Z" fill="#46475B"/>
<path d="M17.4913 13.3674C17.615 13.3674 17.7153 13.2671 17.7153 13.1434C17.7153 13.0197 17.615 12.9194 17.4913 12.9194C17.3676 12.9194 17.2674 13.0197 17.2674 13.1434C17.2674 13.2671 17.3676 13.3674 17.4913 13.3674Z" fill="#93D7F5"/>
<path d="M16.7967 13.3838C16.9257 13.3838 17.0302 13.2762 17.0302 13.1434C17.0302 13.0106 16.9257 12.903 16.7967 12.903C16.6677 12.903 16.5631 13.0106 16.5631 13.1434C16.5631 13.2762 16.6677 13.3838 16.7967 13.3838Z" fill="#F15C7C"/>
<path opacity="0.700117" d="M17.5107 9.44107H6.44234C6.35049 9.44107 6.27603 9.51553 6.27603 9.60738C6.27603 9.69922 6.35049 9.77368 6.44234 9.77368H17.5107C17.6025 9.77368 17.677 9.69922 17.677 9.60738C17.677 9.51553 17.6025 9.44107 17.5107 9.44107Z" fill="#25252C"/>
<path opacity="0.700117" d="M17.5107 14.5162H6.44234C6.35049 14.5162 6.27603 14.5907 6.27603 14.6825C6.27603 14.7744 6.35049 14.8488 6.44234 14.8488H17.5107C17.6025 14.8488 17.677 14.7744 17.677 14.6825C17.677 14.5907 17.6025 14.5162 17.5107 14.5162Z" fill="#1B1D21"/>
<path d="M8.14887 4.25V9.56668H15.756V5.36581L14.6254 4.25H8.14887Z" fill="#FBFCFC"/>
<path d="M12.0317 13.0465L11.8185 12.8239L12.021 12.6307L12.2234 12.4374L12.2374 12.5313C12.2451 12.583 12.2544 12.6301 12.2581 12.6362C12.2619 12.6422 12.3272 12.647 12.4034 12.6467C12.6381 12.646 12.8109 12.6016 12.8696 12.5269C12.9142 12.4702 12.9028 12.4246 12.7895 12.208C12.6913 12.0203 12.6859 12.006 12.706 11.9885C12.7373 11.9612 12.8252 11.9076 12.9371 11.8477L13.0354 11.7951L13.156 12.0201C13.2801 12.2515 13.2953 12.2911 13.3093 12.4183C13.3348 12.6483 13.199 12.8728 12.9661 12.9861C12.8872 13.0244 12.8572 13.0316 12.7274 13.0432C12.6457 13.0505 12.5132 13.0556 12.4329 13.0546C12.3526 13.0535 12.2839 13.0556 12.2803 13.0592C12.2767 13.0628 12.2672 13.1115 12.2593 13.1675L12.2448 13.2692L12.0317 13.0465ZM11.3231 13.0429C11.1444 13.0355 11.1085 13.0304 11.0346 13.0019C10.8589 12.934 10.7461 12.8224 10.6908 12.6617C10.6602 12.5728 10.6479 12.411 10.6655 12.329C10.6815 12.2543 10.8301 11.9407 10.8949 11.8448C10.9195 11.8084 10.9396 11.7738 10.9396 11.7679C10.9396 11.762 10.9026 11.7291 10.8573 11.6949C10.8121 11.6606 10.7781 11.6326 10.7819 11.6326C10.7856 11.6326 10.9182 11.5992 11.0766 11.5584C11.2349 11.5176 11.3677 11.4874 11.3716 11.4912C11.3784 11.4979 11.5074 12.0285 11.5022 12.0285C11.5009 12.0285 11.459 12.0117 11.4092 11.9912C11.3594 11.9707 11.3144 11.9581 11.3092 11.9634C11.2808 11.9919 11.1694 12.1961 11.1381 12.2768C11.0903 12.4002 11.08 12.4802 11.1043 12.5384C11.1367 12.616 11.159 12.6229 11.4101 12.6338C11.5808 12.6412 11.6376 12.6477 11.6459 12.6608C11.6519 12.6703 11.6569 12.763 11.657 12.8668L11.6572 13.0554L11.5922 13.0534C11.5565 13.0522 11.4354 13.0475 11.3231 13.0429ZM12.5244 11.6587L12.2595 11.5778L12.3069 11.5403C12.3329 11.5196 12.3686 11.4905 12.3861 11.4756L12.4181 11.4485L12.3811 11.3766C12.2969 11.213 12.1708 11.0525 12.0856 11.0006C12.0402 10.9729 11.9577 10.9696 11.9227 10.9941C11.9092 11.0035 11.8454 11.0953 11.7808 11.198C11.7162 11.3007 11.6563 11.3848 11.6476 11.3849C11.6186 11.3853 11.3523 11.2384 11.3013 11.1938C11.2994 11.1922 11.3597 11.0927 11.4353 10.9727C11.5863 10.7329 11.646 10.6682 11.774 10.6052C11.8798 10.5531 11.9925 10.5348 12.0973 10.5527C12.1854 10.5678 12.3263 10.63 12.4066 10.6892C12.4637 10.7313 12.6665 11.0235 12.7246 11.1474C12.7654 11.2344 12.7557 11.2324 12.8852 11.1804C12.9243 11.1647 12.9564 11.1556 12.9566 11.1602C12.9573 11.1762 12.8035 11.7254 12.7964 11.7325C12.7925 11.7364 12.6701 11.7032 12.5244 11.6587Z" fill="#78799C" fill-opacity="0.414245"/>
<path d="M8.6825 14.6253H8.14749V19.7941H8.6825V14.6253Z" fill="#E9ECF0"/>
<path d="M9.38967 14.6253H8.85466V19.7941H9.38967V14.6253Z" fill="#E9ECF0"/>
<path d="M10.0968 14.6253H9.56184V19.7941H10.0968V14.6253Z" fill="#E9ECF0"/>
<path d="M10.804 14.6253H10.269V19.7941H10.804V14.6253Z" fill="#E9ECF0"/>
<path d="M11.5112 14.6253H10.9762V19.7941H11.5112V14.6253Z" fill="#E9ECF0"/>
<path d="M12.2184 14.6253H11.6834V19.7941H12.2184V14.6253Z" fill="#E9ECF0"/>
<path d="M12.9255 14.6253H12.3905V19.7941H12.9255V14.6253Z" fill="#E9ECF0"/>
<path d="M13.6327 14.6253H13.0977V19.7941H13.6327V14.6253Z" fill="#E9ECF0"/>
<path d="M14.3399 14.6253H13.8049V19.7941H14.3399V14.6253Z" fill="#E9ECF0"/>
<path d="M15.0471 14.6253H14.5121V19.7941H15.0471V14.6253Z" fill="#EAEDF1"/>
<path d="M15.7542 14.6253H15.2192V19.7941H15.7542V14.6253Z" fill="url(#paint2_linear_30_2)"/>
<path d="M14.6243 4.25L15.756 5.3652H14.6243V4.25Z" fill="#F4F6F9"/>
<defs>
<linearGradient id="paint0_linear_30_2" x1="22" y1="1.99999" x2="2" y2="22" gradientUnits="userSpaceOnUse">
<stop stop-color="#FAFAFA"/>
<stop offset="1" stop-color="#AEBACA"/>
</linearGradient>
<linearGradient id="paint1_linear_30_2" x1="13.6192" y1="19.8818" x2="13.6192" y2="10.7846" gradientUnits="userSpaceOnUse">
<stop stop-color="#777777"/>
<stop offset="1" stop-color="#777777"/>
</linearGradient>
<linearGradient id="paint2_linear_30_2" x1="14.6192" y1="18.8818" x2="14.6192" y2="9.78459" gradientUnits="userSpaceOnUse">
<stop stop-color="#E6E9ED"/>
<stop offset="1" stop-color="#F5F7FA"/>
</linearGradient>
</defs>
</svg>
