<svg width="24" height="24" viewBox="0 0 24 24" fill="none" xmlns="http://www.w3.org/2000/svg">
<path d="M16 2H8C4.68629 2 2 4.68629 2 8V16C2 19.3137 4.68629 22 8 22H16C19.3137 22 22 19.3137 22 16V8C22 4.68629 19.3137 2 16 2Z" fill="url(#paint0_linear_35_12)"/>
<path opacity="0.5" d="M5.15862 8.51575V18.8052H18.8477V8.51575H5.15862Z" fill="#656D78"/>
<path d="M6.65375 4C6.1455 4 5.64234 4.61627 5.15874 5.14441C4.67514 5.67255 3.93855 6.53986 4.00409 7.21045L5.10119 18.4355C5.18185 19.2608 5.78432 19.9327 6.6324 19.9327H17.3676C18.2157 19.9327 18.8181 19.2608 18.8988 18.4355L19.9959 7.21045C20.0614 6.53986 19.325 5.67251 18.8413 5.14441C18.3576 4.6163 17.8544 4 17.3462 4H15.7288H15.4947H6.65375ZM7.66852 4.83459H15.4947H15.7288H16.3314C16.781 4.83459 17.1993 5.00036 17.5187 5.36378L18.3384 6.31635C18.7315 6.82933 18.8413 7.12071 18.8413 7.65709H5.15863C5.15863 7.12077 5.26843 6.8294 5.66155 6.31635L6.48124 5.36378C6.8006 5.00037 7.21889 4.8346 7.66852 4.83459ZM5.15858 8.51582H18.8412L17.7441 18.8048H6.25563L5.15858 8.51582Z" fill="white"/>
<path d="M17.1036 6.76752C17.4004 6.76752 17.641 6.52693 17.641 6.23016C17.641 5.93338 17.4004 5.69279 17.1036 5.69279C16.8068 5.69279 16.5662 5.93338 16.5662 6.23016C16.5662 6.52693 16.8068 6.76752 17.1036 6.76752Z" fill="#93D7F5"/>
<path d="M16.2846 6.22136C16.2846 5.98795 16.0966 5.8 15.8632 5.8H8.13672C7.90331 5.8 7.71546 5.98795 7.71546 6.22136C7.71546 6.45476 7.90331 6.64262 8.13672 6.64262H15.8632C16.0966 6.64262 16.2846 6.45476 16.2846 6.22136Z" fill="white"/>
<path d="M12.1197 16.4983L11.5886 15.9436L12.0931 15.4622L12.5975 14.9807L12.6323 15.2146C12.6514 15.3433 12.6746 15.4608 12.6839 15.4759C12.6932 15.4909 12.8561 15.5027 13.0458 15.5021C13.6308 15.5004 14.0612 15.3897 14.2077 15.2035C14.3188 15.0623 14.2902 14.9487 14.0079 14.4089C13.7634 13.9414 13.7498 13.9058 13.7998 13.8622C13.878 13.794 14.0969 13.6606 14.3757 13.5113L14.6208 13.3801L14.9212 13.9407C15.2303 14.5174 15.2683 14.6161 15.3033 14.9329C15.3666 15.5062 15.0284 16.0656 14.4481 16.3477C14.2515 16.4432 14.1766 16.4611 13.8533 16.4901C13.6498 16.5083 13.3196 16.521 13.1195 16.5183C12.9194 16.5157 12.7483 16.5209 12.7393 16.5299C12.7302 16.5389 12.7066 16.6603 12.6868 16.7997L12.6508 17.0531L12.1197 16.4983ZM10.3543 16.4892C9.90888 16.4708 9.81946 16.4581 9.63538 16.3871C9.19753 16.2181 8.91637 15.9399 8.7786 15.5395C8.70238 15.318 8.67178 14.9149 8.71564 14.7104C8.75553 14.5244 9.12569 13.7431 9.28717 13.504C9.34846 13.4133 9.3986 13.3271 9.3986 13.3124C9.3986 13.2977 9.30636 13.2159 9.19362 13.1305C9.08088 13.0452 8.99625 12.9753 9.00555 12.9753C9.01485 12.9753 9.34529 12.8922 9.73985 12.7905C10.1344 12.6888 10.4653 12.6135 10.4751 12.6231C10.4921 12.6396 10.8134 13.9618 10.8005 13.9618C10.7971 13.9618 10.6928 13.92 10.5687 13.8688C10.4446 13.8176 10.3325 13.7864 10.3195 13.7994C10.2489 13.8705 9.9711 14.3795 9.8933 14.5804C9.77422 14.8879 9.74847 15.0873 9.80909 15.2323C9.88982 15.4256 9.94534 15.4429 10.5709 15.47C10.9964 15.4884 11.1377 15.5046 11.1584 15.5373C11.1734 15.561 11.1859 15.7919 11.1862 16.0504L11.1867 16.5206L11.0248 16.5154C10.9358 16.5125 10.634 16.5007 10.3543 16.4892ZM13.3474 13.0403L12.6875 12.8388L12.8054 12.7452C12.8702 12.6938 12.9591 12.6213 13.0029 12.5841L13.0826 12.5166L12.9904 12.3375C12.7806 11.9297 12.4664 11.5299 12.2541 11.4005C12.1411 11.3315 11.9353 11.3233 11.8483 11.3843C11.8147 11.4078 11.6555 11.6364 11.4946 11.8924C11.3337 12.1483 11.1843 12.3579 11.1626 12.3582C11.0905 12.3593 10.427 11.993 10.2997 11.8819C10.2952 11.8779 10.4455 11.6301 10.6337 11.3311C11.01 10.7336 11.1587 10.5723 11.4776 10.4153C11.7413 10.2854 12.0221 10.2399 12.2832 10.2846C12.5027 10.3222 12.8538 10.4772 13.0539 10.6247C13.1962 10.7296 13.7015 11.4577 13.8463 11.7663C13.9479 11.9831 13.9237 11.9781 14.2463 11.8486C14.3438 11.8094 14.424 11.7868 14.4244 11.7983C14.4259 11.8381 14.0428 13.2066 14.0252 13.2242C14.0154 13.2339 13.7104 13.1512 13.3474 13.0403Z" fill="white"/>
<defs>
<linearGradient id="paint0_linear_35_12" x1="22" y1="2" x2="2" y2="22" gradientUnits="userSpaceOnUse">
<stop stop-color="#545C66"/>
<stop offset="1" stop-color="#25252C"/>
</linearGradient>
</defs>
</svg>
