<svg width="24" height="24" viewBox="0 0 24 24" fill="none" xmlns="http://www.w3.org/2000/svg">
<rect x="2" y="2" width="20" height="20" rx="6" fill="url(#paint0_linear_24_255)"/>
<path d="M2 8.73438C2 7.22422 3.22422 6 4.73437 6H8.5368C9.51364 6 10.4607 6.33631 11.2188 6.95238V6.95238C11.9768 7.56846 12.9239 7.90476 13.9007 7.90476H19.2656C20.7758 7.90476 22 9.12898 22 10.6391V16C22 19.3137 19.3137 22 16 22H8C4.68629 22 2 19.3137 2 16V8.73438Z" fill="url(#paint1_linear_24_255)" fill-opacity="0.9"/>
<path d="M14.2883 14.0717C14.4509 14.1129 14.5753 14.1129 14.6996 14.0397C14.824 13.9666 14.8909 13.8707 14.934 13.7153L15.3357 12.1935C15.3883 12.0016 15.2783 11.8188 15.0774 11.7731C14.8814 11.7228 14.6757 11.8279 14.6327 12.0244L14.4318 12.8424L13.1358 10.6352C12.8919 10.2148 12.4519 10 12.0024 10C11.5576 10 11.1128 10.2194 10.8642 10.6352L9.54422 12.8881C9.42467 13.0938 9.49161 13.2903 9.67336 13.3954C9.86465 13.4959 10.0894 13.432 10.1994 13.2492L11.5193 10.9871C11.6293 10.8043 11.8159 10.7266 12.0024 10.7266C12.1889 10.7266 12.3706 10.8043 12.4758 10.9871L13.791 13.2309L12.9062 12.9795C12.7054 12.9201 12.5093 13.0298 12.4567 13.2217C12.3993 13.4045 12.5045 13.5919 12.7102 13.6467L14.2883 14.0717ZM8.31993 18.8061H10.8833C11.1081 18.8061 11.2754 18.6553 11.2754 18.4496C11.2754 18.244 11.1081 18.0886 10.8833 18.0886H8.32472C7.99474 18.0886 7.77475 17.8281 7.77475 17.5448C7.77475 17.4626 7.7891 17.362 7.8417 17.2752L9.06599 15.1822L9.26685 16.0002C9.30989 16.1967 9.51553 16.3018 9.71162 16.2516C9.91246 16.2058 10.0272 16.0231 9.96986 15.8311L9.56813 14.3094C9.5251 14.1586 9.45815 14.0534 9.3338 13.9849C9.20946 13.9118 9.0899 13.9072 8.9273 13.9529L7.34911 14.3779C7.13869 14.4328 7.03346 14.6201 7.09086 14.8029C7.14347 14.9948 7.33954 15.1091 7.5404 15.0451L8.42515 14.7938L7.18173 16.9233C7.06217 17.1244 7 17.3392 7 17.5448C7 18.2531 7.50694 18.8061 8.31993 18.8061ZM13.3271 19.8937C13.4754 20.04 13.7001 20.0308 13.8436 19.8937C13.9871 19.7612 13.9871 19.5418 13.834 19.4002L13.1788 18.8061H15.68C16.493 18.8061 17 18.2531 17 17.5448C17 17.3392 16.9426 17.129 16.823 16.9233L15.5605 14.7618C15.4457 14.5653 15.2257 14.5196 15.0392 14.6247C14.8527 14.7298 14.7905 14.9446 14.8957 15.1274L16.1583 17.2752C16.2061 17.362 16.23 17.4626 16.23 17.5448C16.23 17.8281 16.0004 18.0886 15.6705 18.0886H13.1788L13.834 17.4991C13.9871 17.3575 13.9871 17.1381 13.8436 17.0056C13.7001 16.8639 13.4754 16.8593 13.3271 17.0056L12.1554 18.0932C12.0359 18.2029 11.9785 18.3126 11.9785 18.4496C11.9785 18.5868 12.0359 18.6918 12.1554 18.8015L13.3271 19.8937Z" fill="url(#paint2_linear_24_255)"/>
<defs>
<linearGradient id="paint0_linear_24_255" x1="22" y1="2" x2="2" y2="12" gradientUnits="userSpaceOnUse">
<stop stop-color="#777777"/>
<stop offset="1" stop-color="#333333"/>
</linearGradient>
<linearGradient id="paint1_linear_24_255" x1="22" y1="6" x2="2.39045" y2="22.465" gradientUnits="userSpaceOnUse">
<stop stop-color="#D5D5D5"/>
<stop offset="1" stop-color="#444444"/>
</linearGradient>
<linearGradient id="paint2_linear_24_255" x1="6.93827" y1="19.3304" x2="18.345" y2="14.5451" gradientUnits="userSpaceOnUse">
<stop stop-color="#84FAA1"/>
<stop offset="1" stop-color="#33C478"/>
</linearGradient>
</defs>
</svg>
