<svg width="24" height="24" viewBox="0 0 24 24" fill="none" xmlns="http://www.w3.org/2000/svg">
<path opacity="0.3" d="M16.532 1.00504H7.46797C3.88925 1.00504 0.988121 3.90617 0.988121 7.4849V16.5151C0.988121 20.0938 3.88925 22.995 7.46797 22.995H16.532C20.1108 22.995 23.0119 20.0938 23.0119 16.5151V7.4849C23.0119 3.90617 20.1108 1.00504 16.532 1.00504Z" fill="white"/>
<path opacity="0.05" d="M16.6573 10.2858H7.34269C3.83316 10.2858 0.988121 13.1309 0.988121 16.6404C0.988121 20.1499 3.83316 22.995 7.34269 22.995H16.6573C20.1668 22.995 23.0119 20.1499 23.0119 16.6404C23.0119 13.1309 20.1668 10.2858 16.6573 10.2858Z" fill="white"/>
<path d="M5.82451 20.43L5.38585 19.9447L5.80318 19.5287L6.21918 19.106L6.24585 19.31C6.26185 19.4247 6.28185 19.5234 6.29252 19.5394C6.29782 19.5487 6.43385 19.5594 6.58985 19.5594C7.07385 19.5594 7.42852 19.4607 7.54852 19.2994C7.64185 19.1794 7.61519 19.0807 7.38185 18.606C7.18319 18.2007 7.16719 18.1687 7.20985 18.1327C7.27652 18.0754 7.45385 17.9554 7.68852 17.826L7.88585 17.7114L8.13652 18.2007C8.39119 18.706 8.42319 18.7887 8.45385 19.0647C8.50585 19.5647 8.22452 20.054 7.74585 20.2994C7.58452 20.3834 7.52185 20.398 7.25652 20.4247C7.08985 20.4394 6.81385 20.45 6.65252 20.4447C6.48585 20.4447 6.34452 20.45 6.33385 20.4554C6.32851 20.466 6.30851 20.57 6.29251 20.69L6.26184 20.914L5.82451 20.43ZM4.37118 20.4194C4.00051 20.4034 3.92851 20.3927 3.77651 20.33C3.41251 20.1847 3.18318 19.9394 3.06851 19.5967C3.00584 19.398 2.98051 19.05 3.01651 18.8727C3.04851 18.7114 3.35518 18.0287 3.49118 17.8207C3.53785 17.742 3.57918 17.6634 3.57918 17.654C3.57918 17.638 3.50585 17.57 3.41251 17.4967C3.31918 17.4194 3.24585 17.362 3.25651 17.362C3.26181 17.362 3.53785 17.2887 3.86051 17.2007C4.18851 17.1114 4.45918 17.0447 4.46985 17.054C4.48052 17.0647 4.74585 18.2207 4.73518 18.2207C4.73518 18.2207 4.64718 18.1847 4.54851 18.138C4.44318 18.0914 4.34985 18.0647 4.33918 18.0754C4.28185 18.138 4.05251 18.5807 3.99118 18.758C3.89118 19.0287 3.87118 19.2007 3.91785 19.326C3.98585 19.4927 4.03252 19.5074 4.54852 19.534C4.89652 19.5487 5.01652 19.5647 5.03252 19.5914C5.04319 19.6114 5.05252 19.8154 5.05252 20.0394V20.45L4.92318 20.4447C4.84985 20.4394 4.60051 20.43 4.37118 20.4194ZM6.83918 17.414L6.29251 17.242L6.39118 17.1593C6.44318 17.1113 6.51652 17.05 6.55252 17.018L6.62052 16.9607L6.54319 16.8047C6.37118 16.45 6.10985 16.102 5.93918 15.9874C5.84451 15.93 5.67251 15.9194 5.60051 15.9714C5.57384 15.9927 5.44318 16.1954 5.30851 16.414C5.17785 16.638 5.05251 16.8207 5.03785 16.8207C4.97518 16.826 4.42851 16.502 4.32451 16.4087C4.31921 16.4034 4.44318 16.19 4.60051 15.9247C4.90718 15.4087 5.03251 15.2687 5.29785 15.1274C5.51118 15.018 5.74585 14.9767 5.95918 15.0127C6.14185 15.05 6.43385 15.1847 6.59518 15.31C6.71518 15.4034 7.13118 16.0394 7.25118 16.3047C7.33385 16.4967 7.31385 16.4927 7.57918 16.378C7.66185 16.346 7.72451 16.326 7.72451 16.3353C7.72981 16.3673 7.41251 17.5593 7.39651 17.5753C7.39121 17.586 7.13651 17.5127 6.83918 17.414Z" fill="url(#paint0_linear_35_12)"/>
<path d="M16.532 1.00504H7.46797C3.88925 1.00504 0.988121 3.63243 0.988121 6.87348C0.988121 10.1145 3.88925 12.7419 7.46797 12.7419H16.532C20.1108 12.7419 23.0119 10.1145 23.0119 6.87348C23.0119 3.63243 20.1108 1.00504 16.532 1.00504Z" fill="url(#paint1_linear_35_12)"/>
<path d="M20.6213 6.49682H3.3787C3.17068 6.49682 3.00204 6.66545 3.00204 6.87348C3.00204 7.0815 3.17068 7.25014 3.3787 7.25014H20.6213C20.8293 7.25014 20.998 7.0815 20.998 6.87348C20.998 6.66545 20.8293 6.49682 20.6213 6.49682Z" fill="#2A2C3E"/>
<path opacity="0.99" d="M12 11.7081C12.9317 11.7081 13.687 10.9528 13.687 10.0211C13.687 9.08938 12.9317 8.33408 12 8.33408C11.0683 8.33408 10.313 9.08938 10.313 10.0211C10.313 10.9528 11.0683 11.7081 12 11.7081Z" fill="#2A2C3E"/>
<path opacity="0.99" d="M12 8.91581C11.8549 8.9158 11.7111 8.94439 11.577 8.99993C11.4429 9.05548 11.3211 9.13689 11.2185 9.23953C11.1158 9.34216 11.0344 9.46401 10.9788 9.59811C10.9233 9.73221 10.8947 9.87593 10.8947 10.0211C10.8947 10.1662 10.9233 10.31 10.9788 10.4441C11.0344 10.5782 11.1158 10.7 11.2185 10.8026C11.3211 10.9053 11.4429 10.9867 11.577 11.0422C11.7111 11.0978 11.8549 11.1264 12 11.1264C12.2931 11.1264 12.5743 11.0099 12.7816 10.8026C12.9888 10.5954 13.1053 10.3142 13.1053 10.0211C13.1053 9.72795 12.9888 9.44681 12.7816 9.23953C12.5743 9.03225 12.2931 8.91581 12 8.91581ZM12 9.08548C12.2481 9.0857 12.4859 9.18434 12.6613 9.35976C12.8367 9.53517 12.9354 9.77302 12.9356 10.0211C12.9354 10.2692 12.8367 10.507 12.6613 10.6824C12.4859 10.8578 12.2481 10.9565 12 10.9567C11.7519 10.9565 11.5141 10.8578 11.3387 10.6824C11.1632 10.507 11.0646 10.2692 11.0644 10.0211C11.0646 9.77301 11.1632 9.53516 11.3387 9.35975C11.5141 9.18433 11.7519 9.08569 12 9.08548Z" fill="#62B84C"/>
<path opacity="0.99" d="M12.1842 8.82363C12.1842 8.72189 12.1017 8.63942 12 8.63942C11.8983 8.63942 11.8158 8.72189 11.8158 8.82363V9.85135C11.8158 9.95308 11.8983 10.0356 12 10.0356C12.1017 10.0356 12.1842 9.95308 12.1842 9.85135V8.82363Z" fill="#62B84C"/>
<rect x="18" y="4" width="2" height="1" rx="0.25" fill="#62B84C"/>
<defs>
<linearGradient id="paint0_linear_35_12" x1="6.82646" y1="15.7214" x2="3.52646" y2="20.1214" gradientUnits="userSpaceOnUse">
<stop stop-color="#84FAA1"/>
<stop offset="1" stop-color="#33C478"/>
</linearGradient>
<linearGradient id="paint1_linear_35_12" x1="22.9881" y1="1.12348" x2="1.01188" y2="12.4985" gradientUnits="userSpaceOnUse">
<stop stop-color="#4C4F62"/>
<stop offset="1" stop-color="#313340"/>
</linearGradient>
</defs>
</svg>
