<svg width="24" height="24" viewBox="0 0 24 24" fill="none" xmlns="http://www.w3.org/2000/svg">
<rect x="2" y="2" width="20" height="20" rx="6" fill="url(#paint0_linear_37_70)"/>
<g opacity="0.3">
<path d="M9.44808 10.8105C9.25059 10.8105 9.09164 10.9784 9.09164 11.187V13.1343C9.08687 13.1885 9.08801 13.2552 8.96758 13.2913C8.88428 13.3075 8.809 13.3541 8.7548 13.4229C8.7006 13.4916 8.6709 13.5783 8.67084 13.6678C8.67089 13.7681 8.70821 13.8644 8.77477 13.936C8.84133 14.0076 8.93182 14.0488 9.0268 14.0506V14.051C9.0285 14.051 9.03023 14.0509 9.03194 14.0509C9.03248 14.0509 9.03301 14.0509 9.03355 14.051C9.03459 14.0509 9.03564 14.0509 9.03668 14.0509C9.33715 14.0467 9.79339 13.8507 9.80412 13.1581C9.80443 13.1516 9.80459 13.1452 9.80459 13.1386V11.187C9.80459 10.9784 9.64557 10.8105 9.44808 10.8105Z" fill="#181818"/>
<path d="M11.509 10.8585C11.3115 10.8585 11.1525 11.0265 11.1525 11.2351V14.6642C11.1525 14.8728 11.3115 15.0407 11.509 15.0407C11.7065 15.0407 11.8655 14.8728 11.8655 14.6642V11.2351C11.8655 11.0265 11.7065 10.8585 11.509 10.8585Z" fill="#181818"/>
<path d="M10.4765 10.8476C10.2791 10.8476 10.1201 11.0155 10.1201 11.2241V13.8667C10.1153 13.9209 10.1165 13.9876 9.99605 14.0237C9.82417 14.0573 9.69942 14.2155 9.69931 14.4002C9.69942 14.6089 9.85769 14.7791 10.0553 14.783V14.7834C10.057 14.7834 10.0587 14.7833 10.0604 14.7833C10.0609 14.7833 10.0615 14.7833 10.062 14.7834C10.0631 14.7833 10.0641 14.7833 10.0652 14.7833C10.3656 14.7791 10.8219 14.5831 10.8326 13.8905C10.8329 13.884 10.8331 13.8776 10.8331 13.8711V11.2241C10.8331 11.0155 10.674 10.8476 10.4765 10.8476Z" fill="#181818"/>
<path d="M13.5566 10.8105C13.7541 10.8105 13.9131 10.9784 13.9131 11.187V13.1343C13.9178 13.1885 13.9167 13.2552 14.0371 13.2913C14.1204 13.3075 14.1957 13.3541 14.2499 13.4229C14.3041 13.4916 14.3338 13.5783 14.3339 13.6678C14.3338 13.7681 14.2965 13.8644 14.2299 13.936C14.1634 14.0076 14.0729 14.0488 13.9779 14.0506V14.051C13.9762 14.051 13.9745 14.0509 13.9728 14.0509C13.9722 14.0509 13.9717 14.0509 13.9712 14.051C13.9701 14.0509 13.9691 14.0509 13.968 14.0509C13.6676 14.0467 13.2113 13.8507 13.2006 13.1581C13.2003 13.1516 13.2001 13.1452 13.2001 13.1386V11.187C13.2001 10.9784 13.3591 10.8105 13.5566 10.8105Z" fill="#181818"/>
<path d="M12.5282 10.8476C12.7257 10.8476 12.8846 11.0155 12.8846 11.2241V13.8667C12.8894 13.9209 12.8882 13.9876 13.0087 14.0237C13.1805 14.0573 13.3053 14.2155 13.3054 14.4002C13.3053 14.6089 13.147 14.7791 12.9494 14.783V14.7834C12.9477 14.7834 12.946 14.7833 12.9443 14.7833C12.9438 14.7833 12.9432 14.7833 12.9427 14.7834C12.9416 14.7833 12.9406 14.7833 12.9396 14.7833C12.6391 14.7791 12.1828 14.5831 12.1721 13.8905C12.1718 13.884 12.1716 13.8776 12.1716 13.8711V11.2241C12.1716 11.0155 12.3307 10.8476 12.5282 10.8476Z" fill="#181818"/>
<path opacity="0.5" d="M6.36896 11.4553V19.6068H16.6357V11.4553H6.36896Z" fill="#181818"/>
<path d="M7.49031 7.87784C7.10913 7.87784 6.73175 8.36605 6.36905 8.78446C6.00635 9.20286 5.45391 9.88996 5.50307 10.4212L6.32589 19.3139C6.38639 19.9677 6.83824 20.5 7.4743 20.5H15.5257C16.1617 20.5 16.6136 19.9677 16.6741 19.3139L17.4969 10.4212C17.5461 9.88996 16.9937 9.20283 16.6309 8.78446C16.2682 8.36609 15.8908 7.87784 15.5097 7.87784H14.121V8.53901H14.7485C15.0858 8.53901 15.3995 8.67034 15.639 8.95825L16.2538 9.7129C16.5486 10.1193 16.6309 10.3501 16.6309 10.7751H6.36897C6.36897 10.3502 6.45132 10.1193 6.74616 9.7129L7.36093 8.95825C7.60045 8.67035 7.91417 8.53902 8.25139 8.53901H8.83048V7.87784H7.49031ZM6.36893 11.4554H16.6309L15.8081 19.6065H7.19171L6.36893 11.4554Z" fill="#181818"/>
<path d="M15.3277 10.0703C15.5503 10.0703 15.7307 9.87971 15.7307 9.6446C15.7307 9.40949 15.5503 9.21889 15.3277 9.21889C15.1051 9.21889 14.9247 9.40949 14.9247 9.6446C14.9247 9.87971 15.1051 10.0703 15.3277 10.0703Z" fill="#181818"/>
<path d="M9.09134 4.5C8.82445 4.5 8.60955 4.72692 8.60955 5.00882V9.57661H9.09134V5.26328C9.09134 5.12231 9.19869 5.00882 9.33215 5.00882H11.9817V7.0442H13.9087V9.57661H14.3905V7.0442C14.3905 6.76232 12.2486 4.5 11.9817 4.5H9.09134ZM10.0548 8.57084V9.07967H12.9452V8.57084H10.0548Z" fill="#181818"/>
<path d="M14.7134 9.63763C14.7134 9.45272 14.5725 9.30382 14.3974 9.30382H8.60253C8.42747 9.30382 8.28658 9.45272 8.28658 9.63763C8.28658 9.82254 8.42747 9.97136 8.60253 9.97136H14.3974C14.5725 9.97136 14.7134 9.82254 14.7134 9.63763Z" fill="#181818"/>
<path d="M11.5898 17.7792L11.1915 17.3398L11.5698 16.9584L11.9481 16.5769L11.9742 16.7622C11.9885 16.8642 12.006 16.9573 12.013 16.9692C12.0199 16.9811 12.1421 16.9905 12.2844 16.99C12.7231 16.9886 13.0459 16.901 13.1557 16.7535C13.2391 16.6415 13.2177 16.5516 13.0059 16.1239C12.8225 15.7536 12.8124 15.7254 12.8498 15.6908C12.9085 15.6368 13.0727 15.5311 13.2818 15.4129L13.4656 15.3089L13.6909 15.7531C13.9227 16.2099 13.9512 16.2881 13.9774 16.5391C14.0249 16.9932 13.7713 17.4364 13.3361 17.6599C13.1886 17.7356 13.1325 17.7498 12.8899 17.7727C12.7373 17.7871 12.4897 17.7972 12.3396 17.7951C12.1895 17.793 12.0612 17.7971 12.0544 17.8042C12.0477 17.8114 12.03 17.9076 12.0151 18.018L11.9881 18.2187L11.5898 17.7792ZM10.2657 17.772C9.93165 17.7575 9.86459 17.7474 9.72653 17.6911C9.39814 17.5572 9.18727 17.3369 9.08395 17.0196C9.02678 16.8441 9.00382 16.5248 9.03672 16.3628C9.06664 16.2155 9.34427 15.5965 9.46538 15.4071C9.51134 15.3352 9.54894 15.2669 9.54894 15.2553C9.54894 15.2436 9.47976 15.1788 9.39521 15.1112C9.31065 15.0436 9.24718 14.9883 9.25416 14.9883C9.26113 14.9883 9.50896 14.9224 9.80488 14.8418C10.1008 14.7613 10.349 14.7016 10.3563 14.7092C10.369 14.7223 10.6101 15.7698 10.6004 15.7698C10.5978 15.7698 10.5196 15.7366 10.4265 15.6961C10.3334 15.6555 10.2493 15.6308 10.2396 15.6411C10.1867 15.6974 9.97832 16.1006 9.91997 16.2598C9.83066 16.5035 9.81135 16.6614 9.85681 16.7763C9.91736 16.9294 9.959 16.9431 10.4282 16.9646C10.7473 16.9792 10.8533 16.992 10.8688 17.0179C10.8801 17.0366 10.8894 17.2196 10.8896 17.4244L10.89 17.7969L10.7686 17.7927C10.7019 17.7905 10.4755 17.7811 10.2657 17.772ZM12.5106 15.0398L12.0156 14.8801L12.104 14.806C12.1527 14.7652 12.2193 14.7077 12.2522 14.6783L12.3119 14.6248L12.2428 14.4829C12.0854 14.1599 11.8498 13.8432 11.6906 13.7406C11.6058 13.686 11.4515 13.6795 11.3862 13.7278C11.361 13.7464 11.2416 13.9276 11.1209 14.1303C11.0003 14.333 10.8882 14.4991 10.872 14.4994C10.8178 14.5002 10.3202 14.21 10.2248 14.122C10.2214 14.1188 10.3341 13.9225 10.4753 13.6857C10.7575 13.2123 10.869 13.0845 11.1082 12.9601C11.3059 12.8573 11.5165 12.8212 11.7124 12.8566C11.877 12.8864 12.1403 13.0092 12.2904 13.1261C12.3971 13.2092 12.7761 13.786 12.8847 14.0305C12.9609 14.2022 12.9428 14.1982 13.1847 14.0956C13.2579 14.0646 13.318 14.0467 13.3183 14.0558C13.3195 14.0874 13.0321 15.1715 13.0189 15.1854C13.0115 15.1931 12.7828 15.1276 12.5106 15.0398Z" fill="url(#paint1_linear_37_70)"/>
</g>
<path d="M9.94808 10.3105C9.75059 10.3105 9.59164 10.4784 9.59164 10.687V12.6343C9.58687 12.6885 9.58801 12.7552 9.46758 12.7913C9.38428 12.8075 9.309 12.8541 9.2548 12.9229C9.2006 12.9916 9.1709 13.0783 9.17084 13.1678C9.17089 13.2681 9.20821 13.3644 9.27477 13.436C9.34133 13.5076 9.43182 13.5488 9.5268 13.5506V13.551C9.5285 13.551 9.53023 13.5509 9.53194 13.5509C9.53248 13.5509 9.53301 13.5509 9.53355 13.551C9.53459 13.5509 9.53564 13.5509 9.53668 13.5509C9.83715 13.5467 10.2934 13.3507 10.3041 12.6581C10.3044 12.6516 10.3046 12.6452 10.3046 12.6386V10.687C10.3046 10.4784 10.1456 10.3105 9.94808 10.3105Z" fill="white"/>
<path d="M12.009 10.3585C11.8115 10.3585 11.6525 10.5265 11.6525 10.7351V14.1642C11.6525 14.3728 11.8115 14.5407 12.009 14.5407C12.2065 14.5407 12.3655 14.3728 12.3655 14.1642V10.7351C12.3655 10.5265 12.2065 10.3585 12.009 10.3585Z" fill="white"/>
<path d="M10.9765 10.3476C10.7791 10.3476 10.6201 10.5155 10.6201 10.7241V13.3667C10.6153 13.4209 10.6165 13.4876 10.496 13.5237C10.3242 13.5573 10.1994 13.7155 10.1993 13.9002C10.1994 14.1089 10.3577 14.2791 10.5553 14.283V14.2834C10.557 14.2834 10.5587 14.2833 10.5604 14.2833C10.5609 14.2833 10.5615 14.2833 10.562 14.2834C10.5631 14.2833 10.5641 14.2833 10.5652 14.2833C10.8656 14.2791 11.3219 14.0831 11.3326 13.3905C11.3329 13.384 11.3331 13.3776 11.3331 13.3711V10.7241C11.3331 10.5155 11.174 10.3476 10.9765 10.3476Z" fill="white"/>
<path d="M14.0566 10.3105C14.2541 10.3105 14.4131 10.4784 14.4131 10.687V12.6343C14.4178 12.6885 14.4167 12.7552 14.5371 12.7913C14.6204 12.8075 14.6957 12.8541 14.7499 12.9229C14.8041 12.9916 14.8338 13.0783 14.8339 13.1678C14.8338 13.2681 14.7965 13.3644 14.7299 13.436C14.6634 13.5076 14.5729 13.5488 14.4779 13.5506V13.551C14.4762 13.551 14.4745 13.5509 14.4728 13.5509C14.4722 13.5509 14.4717 13.5509 14.4712 13.551C14.4701 13.5509 14.4691 13.5509 14.468 13.5509C14.1676 13.5467 13.7113 13.3507 13.7006 12.6581C13.7003 12.6516 13.7001 12.6452 13.7001 12.6386V10.687C13.7001 10.4784 13.8591 10.3105 14.0566 10.3105Z" fill="white"/>
<path d="M13.0282 10.3476C13.2257 10.3476 13.3846 10.5155 13.3846 10.7241V13.3667C13.3894 13.4209 13.3882 13.4876 13.5087 13.5237C13.6805 13.5573 13.8053 13.7155 13.8054 13.9002C13.8053 14.1089 13.647 14.2791 13.4494 14.283V14.2834C13.4477 14.2834 13.446 14.2833 13.4443 14.2833C13.4438 14.2833 13.4432 14.2833 13.4427 14.2834C13.4416 14.2833 13.4406 14.2833 13.4396 14.2833C13.1391 14.2791 12.6828 14.0831 12.6721 13.3905C12.6718 13.384 12.6716 13.3776 12.6716 13.3711V10.7241C12.6716 10.5155 12.8307 10.3476 13.0282 10.3476Z" fill="white"/>
<path opacity="0.5" d="M6.86896 10.9553V19.1068H17.1357V10.9553H6.86896Z" fill="#656D78"/>
<path d="M7.99031 7.37784C7.60913 7.37784 7.23175 7.86605 6.86905 8.28446C6.50635 8.70286 5.95391 9.38996 6.00307 9.92122L6.82589 18.8139C6.88639 19.4677 7.33824 20 7.9743 20H16.0257C16.6617 20 17.1136 19.4677 17.1741 18.8139L17.9969 9.92122C18.0461 9.38996 17.4937 8.70283 17.1309 8.28446C16.7682 7.86609 16.3908 7.37784 16.0097 7.37784H14.621V8.03901H15.2485C15.5858 8.03901 15.8995 8.17034 16.139 8.45825L16.7538 9.2129C17.0486 9.61929 17.1309 9.85012 17.1309 10.2751H6.86897C6.86897 9.85017 6.95132 9.61934 7.24616 9.2129L7.86093 8.45825C8.10045 8.17035 8.41417 8.03902 8.75139 8.03901H9.33048V7.37784H7.99031ZM6.86893 10.9554H17.1309L16.3081 19.1065H7.69171L6.86893 10.9554Z" fill="white"/>
<path d="M15.8277 9.57031C16.0503 9.57031 16.2307 9.37971 16.2307 9.1446C16.2307 8.90949 16.0503 8.71889 15.8277 8.71889C15.6051 8.71889 15.4247 8.90949 15.4247 9.1446C15.4247 9.37971 15.6051 9.57031 15.8277 9.57031Z" fill="#F15C7C"/>
<path d="M9.59134 4C9.32445 4 9.10955 4.22692 9.10955 4.50882V9.07661H9.59134V4.76328C9.59134 4.62231 9.69869 4.50882 9.83215 4.50882H12.4817V6.5442H14.4087V9.07661H14.8905V6.5442C14.8905 6.26232 12.7486 4 12.4817 4H9.59134ZM10.5548 8.07084V8.57967H13.4452V8.07084H10.5548Z" fill="white"/>
<path d="M15.2134 9.13763C15.2134 8.95272 15.0725 8.80382 14.8974 8.80382H9.10253C8.92747 8.80382 8.78658 8.95272 8.78658 9.13763C8.78658 9.32254 8.92747 9.47136 9.10253 9.47136H14.8974C15.0725 9.47136 15.2134 9.32254 15.2134 9.13763Z" fill="white"/>
<path d="M12.0898 17.2792L11.6915 16.8398L12.0698 16.4584L12.4481 16.0769L12.4742 16.2622C12.4885 16.3642 12.506 16.4573 12.513 16.4692C12.5199 16.4811 12.6421 16.4905 12.7844 16.49C13.2231 16.4886 13.5459 16.401 13.6557 16.2535C13.7391 16.1415 13.7177 16.0516 13.5059 15.6239C13.3225 15.2536 13.3124 15.2254 13.3498 15.1908C13.4085 15.1368 13.5727 15.0311 13.7818 14.9129L13.9656 14.8089L14.1909 15.2531C14.4227 15.7099 14.4512 15.7881 14.4774 16.0391C14.5249 16.4932 14.2713 16.9364 13.8361 17.1599C13.6886 17.2356 13.6325 17.2498 13.3899 17.2727C13.2373 17.2871 12.9897 17.2972 12.8396 17.2951C12.6895 17.293 12.5612 17.2971 12.5544 17.3042C12.5477 17.3114 12.53 17.4076 12.5151 17.518L12.4881 17.7187L12.0898 17.2792ZM10.7657 17.272C10.4316 17.2575 10.3646 17.2474 10.2265 17.1911C9.89814 17.0572 9.68727 16.8369 9.58395 16.5196C9.52678 16.3441 9.50382 16.0248 9.53672 15.8628C9.56664 15.7155 9.84427 15.0965 9.96538 14.9071C10.0113 14.8352 10.0489 14.7669 10.0489 14.7553C10.0489 14.7436 9.97976 14.6788 9.89521 14.6112C9.81065 14.5436 9.74718 14.4883 9.75416 14.4883C9.76113 14.4883 10.009 14.4224 10.3049 14.3418C10.6008 14.2613 10.849 14.2016 10.8563 14.2092C10.869 14.2223 11.1101 15.2698 11.1004 15.2698C11.0978 15.2698 11.0196 15.2366 10.9265 15.1961C10.8334 15.1555 10.7493 15.1308 10.7396 15.1411C10.6867 15.1974 10.4783 15.6006 10.42 15.7598C10.3307 16.0035 10.3114 16.1614 10.3568 16.2763C10.4174 16.4294 10.459 16.4431 10.9282 16.4646C11.2473 16.4792 11.3533 16.492 11.3688 16.5179C11.3801 16.5366 11.3894 16.7196 11.3896 16.9244L11.39 17.2969L11.2686 17.2927C11.2019 17.2905 10.9755 17.2811 10.7657 17.272ZM13.0106 14.5398L12.5156 14.3801L12.604 14.306C12.6527 14.2652 12.7193 14.2077 12.7522 14.1783L12.8119 14.1248L12.7428 13.9829C12.5854 13.6599 12.3498 13.3432 12.1906 13.2406C12.1058 13.186 11.9515 13.1795 11.8862 13.2278C11.861 13.2464 11.7416 13.4276 11.6209 13.6303C11.5003 13.833 11.3882 13.9991 11.372 13.9994C11.3178 14.0002 10.8202 13.71 10.7248 13.622C10.7214 13.6188 10.8341 13.4225 10.9753 13.1857C11.2575 12.7123 11.369 12.5845 11.6082 12.4601C11.8059 12.3573 12.0165 12.3212 12.2124 12.3566C12.377 12.3864 12.6403 12.5092 12.7904 12.6261C12.8971 12.7092 13.2761 13.286 13.3847 13.5305C13.4609 13.7022 13.4428 13.6982 13.6847 13.5956C13.7579 13.5646 13.818 13.5467 13.8183 13.5558C13.8195 13.5874 13.5321 14.6715 13.5189 14.6854C13.5115 14.6931 13.2828 14.6276 13.0106 14.5398Z" fill="url(#paint2_linear_37_70)"/>
<defs>
<linearGradient id="paint0_linear_37_70" x1="22" y1="2" x2="2" y2="12" gradientUnits="userSpaceOnUse">
<stop stop-color="#777777"/>
<stop offset="1" stop-color="#333333"/>
</linearGradient>
<linearGradient id="paint1_linear_37_70" x1="12.5" y1="13.4988" x2="9.49933" y2="17.499" gradientUnits="userSpaceOnUse">
<stop stop-color="#181818"/>
<stop offset="1" stop-color="#181818"/>
</linearGradient>
<linearGradient id="paint2_linear_37_70" x1="13" y1="12.9988" x2="9.99933" y2="16.999" gradientUnits="userSpaceOnUse">
<stop stop-color="#84FAA1"/>
<stop offset="1" stop-color="#33C478"/>
</linearGradient>
</defs>
</svg>
