<svg xmlns="http://www.w3.org/2000/svg" width="24" height="24"><path fill="currentColor" d="M12.002 4.365a.5.5 0 0 0-.469.32L9.663 9.54l-5.188.273a.5.5 0 0 0-.291.89l4.035 3.282-1.334 5.022a.5.5 0 0 0 .756.549L12 16.73l4 2.592V18a1 1 0 0 1 .134-.5A1 1 0 0 1 16 17v-2.191l-.219-.825.22-.177v-1.291l-1.1.896a.5.5 0 0 0-.168.516l1.084 4.084-3.545-2.297a.5.5 0 0 0-.543 0l-3.545 2.297 1.084-4.084a.5.5 0 0 0-.168-.516l-3.276-2.668 4.215-.223a.5.5 0 0 0 .44-.32L12 6.256l1.522 3.945a.5.5 0 0 0 .44.32l4.214.223-.315.256h1.14a1 1 0 0 1 .362.07l.454-.369a.5.5 0 0 0-.291-.889l-5.188-.273-1.871-4.854a.5.5 0 0 0-.465-.32z" style="color:#dedede"/><path fill="#ff7f2a" d="M17 12v5h2v-5zm0 6v2h2v-2z" class="warning"/></svg>