<svg xmlns="http://www.w3.org/2000/svg" width="24" height="24"><path fill="currentColor" d="M11.509 4a1.987 1.987 0 0 0-1.986 1.986.985.985 0 0 1-.99.979.924.924 0 0 1-.461-.131.5.5 0 0 0-.008-.004 2 2 0 0 0-2.717.734l-.516.848a.5.5 0 0 0-.006.01 2 2 0 0 0 .725 2.717.5.5 0 0 0 .002.002.99.99 0 0 1 0 1.718 1.993 1.993 0 0 0-.727 2.711.5.5 0 0 0 0 .002l.489.842.002.002a1.995 1.995 0 0 0 2.716.77.5.5 0 0 0 .006-.004.977.977 0 0 1 .746-.1.5.5 0 0 0 .002 0 .976.976 0 0 1 .596.46.5.5 0 0 0 .004.007c.083.14.13.3.13.463A2 2 0 0 0 11.51 20h.979a2 2 0 0 0 1.992-1.984.5.5 0 0 0 0-.004.984.984 0 0 1 .986-.988c.166.005.329.05.473.132a2.002 2.002 0 0 0 2.717-.726l.51-.852a.5.5 0 0 0 .003-.006 1.983 1.983 0 0 0-.724-2.72.983.983 0 0 1-.362-1.35.5.5 0 0 0 .002-.004.964.964 0 0 1 .358-.357.5.5 0 0 0 .004-.002 1.993 1.993 0 0 0 .777-2.586.5.5 0 0 0-.053-.131l-.486-.844a2 2 0 0 0-2.717-.734.5.5 0 0 0-.006.004.985.985 0 0 1-1.351-.352.5.5 0 0 0 0-.002.925.925 0 0 1-.131-.463v.02A1.995 1.995 0 0 0 12.488 4h-.979zm0 1h.979a.994.994 0 0 1 .992 1.021.5.5 0 0 0 0 .02 1.985 1.985 0 0 0 2.984 1.672.985.985 0 0 1 1.354.365l.468.813a.5.5 0 0 0 .018.035.986.986 0 0 1-.361 1.35c-.3.172-.55.422-.723.722V11a1.987 1.987 0 0 0 .725 2.719.988.988 0 0 1 .36 1.347c0 .002.002.003 0 .004l-.51.852a.5.5 0 0 0-.005.006.985.985 0 0 1-1.353.361.5.5 0 0 0-.002-.002 2.021 2.021 0 0 0-.95-.265.5.5 0 0 0-.01 0 1.988 1.988 0 0 0-1.995 1.994.985.985 0 0 1-.993.984h-.978a.986.986 0 0 1-.994-.992.5.5 0 0 0 0-.006 1.93 1.93 0 0 0-.268-.959 1.979 1.979 0 0 0-1.203-.928 1.982 1.982 0 0 0-1.502.2.992.992 0 0 1-1.354-.385.5.5 0 0 0-.003-.01l-.493-.848a.978.978 0 0 1 .36-1.345 1.995 1.995 0 0 0 0-3.451v-.003a.984.984 0 0 1-.36-1.351l.516-.848a.5.5 0 0 0 .006-.01.985.985 0 0 1 1.353-.367c.29.17.62.264.958.268a.5.5 0 0 0 .005 0A2 2 0 0 0 10.523 6a.5.5 0 0 0 0-.01.983.983 0 0 1 .986-.99zm.49 4c-1.65 0-3 1.35-3 3s1.35 3 3 3 3-1.35 3-3-1.349-3-3-3zm0 1c1.11 0 2 .89 2 2 0 1.11-.89 2-2 2s-2-.89-2-2c0-1.11.89-2 2-2z" style="color:#dedede"/></svg>