<svg xmlns="http://www.w3.org/2000/svg" width="22" height="22"><defs><style id="current-color-scheme" type="text/css">.ColorScheme-Highlight{color:#5294e2}</style></defs><path fill="currentColor" d="M11 3c-4.432 0-8 3.568-8 8 0 3.573 2.32 6.58 5.541 7.613v-1.662c-2.025.447-2.451-.89-2.451-.89-.331-.855-.809-1.082-.809-1.082-.66-.459.049-.452.049-.452.73.053 1.115.764 1.115.764.65 1.13 1.705.805 2.12.615.065-.477.254-.805.462-.99-1.616-.187-3.017-1.22-3.017-4.055 0-.807.586-1.868 1.052-2.384-.075-.187-.326-1.34.07-2.358 0 0 .038-.012.117-.015.237-.011.77.438 1.813 1.156A8.098 8.098 0 0 1 11 6.99a6.42 6.42 0 0 1 1.815.27c1.043-.718 1.71-1.17 1.946-1.158h.002a.52.52 0 0 1 .117.015c.397 1.018.147 2.173.072 2.36C15.42 8.993 16 10.054 16 10.86c0 2.842-1.701 3.866-3.323 4.05.262.228.327.68.327 1.37 0 .833-.002 1.375-.004 1.72v.74c3.456-.885 6-4 6-7.74 0-4.433-3.568-8-8-8z" opacity=".8" style="color:#dedede"/></svg>