<svg xmlns="http://www.w3.org/2000/svg" width="24" height="24"><path fill="currentColor" d="M12.5 4c-.011 0-.02.005-.031.006-.032.002-.061.011-.092.02a.486.486 0 0 0-.104.035c-.007.003-.016.003-.023.007-.016.01-.025.023-.04.034a.483.483 0 0 0-.198.341c-.003.02-.012.037-.012.057v11.004A2.5 2.5 0 0 0 10.5 15a2.5 2.5 0 1 0 2.5 2.5V6.367l1.566 2.713a.5.5 0 1 0 .868-.5l-2.5-4.33c-.011-.018-.029-.029-.041-.045a.484.484 0 0 0-.07-.08c-.023-.019-.047-.032-.071-.047a.478.478 0 0 0-.094-.047c-.03-.01-.061-.013-.094-.017C12.542 4.01 12.523 4 12.5 4zm-2.006 12c.832 0 1.506.671 1.506 1.5s-.674 1.5-1.506 1.5-1.506-.671-1.506-1.5.674-1.5 1.506-1.5z" style="color:#dedede"/></svg>