<svg xmlns="http://www.w3.org/2000/svg" width="24" height="24"><defs><style id="current-color-scheme" type="text/css">.ColorScheme-Highlight{color:#5294e2}</style></defs><path fill="currentColor" d="M12 4.5a8 8 0 0 0-8 8 8 8 0 0 0 3.938 6.878.556.556 0 0 0 .332.112.556.556 0 0 0 .556-.556.556.556 0 0 0-.266-.474A6.889 6.888 0 0 1 5.11 12.5 6.889 6.888 0 0 1 12 5.61a6.889 6.888 0 0 1 6.889 6.889 6.889 6.888 0 0 1-3.45 5.958l.002.003a.556.556 0 0 0-.284.484.556.556 0 0 0 .556.555.556.556 0 0 0 .325-.107A8 8 0 0 0 20 12.5a8 8 0 0 0-8-8zm0 2.222A5.778 5.777 0 0 0 6.222 12.5a5.778 5.777 0 0 0 2.846 4.969.556.556 0 0 0 .048.03.556.556 0 0 0 .267.069.556.556 0 0 0 .555-.556.556.556 0 0 0-.3-.493.556.556 0 0 0-.003-.002A4.667 4.666 0 0 1 7.333 12.5 4.667 4.666 0 0 1 12 7.833a4.667 4.666 0 0 1 4.667 4.667 4.667 4.666 0 0 1-2.338 4.037.556.556 0 0 0-.279.48.556.556 0 0 0 .556.556.556.556 0 0 0 .278-.075v.001a5.778 5.777 0 0 0 2.894-5A5.778 5.777 0 0 0 12 6.723zm0 2.444A3.333 3.333 0 0 0 8.667 12.5a3.333 3.333 0 0 0 1.625 2.857.556.556 0 0 0 .034.02.556.556 0 0 0 .01.007.556.556 0 0 0 .264.066.556.556 0 0 0 .555-.556.556.556 0 0 0-.283-.483 2.222 2.222 0 0 1-1.094-1.91A2.222 2.222 0 0 1 12 10.276a2.222 2.222 0 0 1 2.222 2.222 2.222 2.222 0 0 1-1.114 1.923l.001.001a.556.556 0 0 0-.269.476.556.556 0 0 0 .556.555.556.556 0 0 0 .268-.07 3.333 3.333 0 0 0 .008-.004.556.556 0 0 0 .045-.03 3.333 3.333 0 0 0 1.616-2.85A3.333 3.333 0 0 0 12 9.165zm0 2.445a.889.889 0 0 0-.889.889.889.889 0 0 0 .889.888.889.889 0 0 0 .889-.888.889.889 0 0 0-.889-.89z" style="color:#dedede"/></svg>