<svg width="24" height="24" viewBox="0 0 24 24" fill="none" xmlns="http://www.w3.org/2000/svg">
<path opacity="0.8125" d="M7.35417 20.9C6.53993 20.9 5.85026 20.6038 5.28517 20.0114C4.72006 19.4191 4.4375 18.7085 4.4375 17.8797V10.6525C4.4375 10.1779 4.54188 9.72666 4.75065 9.29892C4.95941 8.87119 5.25086 8.51698 5.625 8.23629L10.2536 4.63074C10.5012 4.44561 10.7758 4.29911 11.0775 4.19124C11.3792 4.08338 11.6882 4.02944 12.0046 4.02944C12.321 4.02944 12.6285 4.08338 12.9271 4.19124C13.2257 4.29911 13.4988 4.44561 13.7464 4.63074L18.375 8.23629C18.7617 8.52214 19.0563 8.87811 19.2588 9.30419C19.4613 9.73027 19.5625 10.1797 19.5625 10.6525V17.8797C19.5625 18.7085 19.2799 19.4191 18.7148 20.0114C18.1497 20.6038 17.4601 20.9 16.6458 20.9H14.9583C14.406 20.9 13.9583 20.4523 13.9583 19.9V14.6944C13.9583 14.1421 13.5106 13.6944 12.9583 13.6944H11.0417C10.4894 13.6944 10.0417 14.1421 10.0417 14.6944V19.9C10.0417 20.4523 9.59395 20.9 9.04167 20.9H7.35417Z" fill="url(#paint0_linear_0_1)"/>
<path d="M3 10.1132L11.4319 4.29221C11.7738 4.05613 12.2262 4.05613 12.5681 4.29221L21 10.1132" stroke="#00405F" stroke-width="2" stroke-linecap="round"/>
<defs>
<linearGradient id="paint0_linear_0_1" x1="19.5625" y1="4.02944" x2="3.81966" y2="11.0864" gradientUnits="userSpaceOnUse">
<stop stop-color="#04BACC"/>
<stop offset="1" stop-color="#2D85C6"/>
</linearGradient>
</defs>
</svg>
