<svg xmlns="http://www.w3.org/2000/svg" width="24" height="24"><defs><style id="current-color-scheme" type="text/css">.ColorScheme-Text{color:#dedede}</style></defs><path fill="currentColor" d="M16.5 12a3.5 3.5 0 1 0 0 7 3.5 3.5 0 0 0 0-7zm-1 1c.277 0 .5.223.5.5V16h2.5a.499.499 0 1 1 0 1h-3a.499.499 0 0 1-.5-.5v-3c0-.277.223-.5.5-.5z" class="ColorScheme-Text"/><path fill="currentColor" d="M6 5c-1.108 0-2 .892-2 2v10c0 1.108.892 2 2 2h7.672a4.5 4.5 0 0 1-.912-1H6c-.554 0-1-.446-1-1v-7h5l2-2h6c.554 0 1 .446 1 1v2.758a4.5 4.5 0 0 1 1 .916V9c0-1.108-.892-2-2-2h-6l-2-2zm0 1h3.586l1.496 1.504L9.586 9H5V7c0-.554.446-1 1-1z" class="ColorScheme-Text"/></svg>