<svg xmlns="http://www.w3.org/2000/svg" width="16" height="16"><path fill="#dedede" d="M4.95 1A3 3 0 0 0 2 4a3 3 0 0 0 .486 1.637A6 6 0 0 0 2 8a6 6 0 0 0 2.402 4.803l-.33.826.01.004a.923.923 0 0 0-.08.367c0 .524.475 1 .998 1 .396 0 .764-.273.92-.633l.008.004.261-.652A6 6 0 0 0 8 14a6 6 0 0 0 1.813-.28l.26.651.01-.004c.156.36.522.633.918.633.523 0 1-.477 1-1a.921.921 0 0 0-.08-.367l.008-.004-.33-.828A6 6 0 0 0 14 8a6 6 0 0 0-.486-2.363A3 3 0 0 0 14 4a3 3 0 0 0-3-3 3 3 0 0 0-.05 0 3 3 0 0 0-2.224 1.045A6 6 0 0 0 8 2a6 6 0 0 0-.727.045A3 3 0 0 0 5 1a3 3 0 0 0-.05 0zm0 1a2 2 0 0 1 .001 0A2 2 0 0 1 5 2a2 2 0 0 1 1.078.316 6 6 0 0 0-2.996 2.247A2 2 0 0 1 3 4a2 2 0 0 1 1.95-2zm5.98 0a2 2 0 0 1 .021 0A2 2 0 0 1 11 2a2 2 0 0 1 2 2 2 2 0 0 1-.082.563A6 6 0 0 0 9.92 2.316 2 2 0 0 1 10.93 2zM8 3a5 5 0 0 1 5 5 5 5 0 0 1-5 5 5 5 0 0 1-5-5 5 5 0 0 1 5-5zm1.969 2.531a.503.503 0 0 0-.25.156L8.063 7.344 6.906 6.187c-.157-.257-.568-.306-.78-.093s-.163.624.093.78l1.5 1.501a.518.518 0 0 0 .687 0l2-2c.293-.298-.024-.91-.437-.844z"/></svg>