<?xml version="1.0" encoding="UTF-8" standalone="no"?>
<svg
   width="22"
   height="22"
   version="1.0"
   viewBox="0 0 22 22"
   id="svg127"
   xmlns="http://www.w3.org/2000/svg"
   xmlns:svg="http://www.w3.org/2000/svg"
   xmlns:rdf="http://www.w3.org/1999/02/22-rdf-syntax-ns#"
   xmlns:cc="http://creativecommons.org/ns#"
   xmlns:dc="http://purl.org/dc/elements/1.1/">
  <metadata
     id="metadata131">
    <rdf:RDF>
      <cc:Work
         rdf:about="">
        <dc:format>image/svg+xml</dc:format>
        <dc:type
           rdf:resource="http://purl.org/dc/dcmitype/StillImage" />
      </cc:Work>
    </rdf:RDF>
  </metadata>
  <defs
     id="defs3">
    <style
       id="current-color-scheme"
       type="text/css">.ColorScheme-Text {
        color:#31363b;
      }
      .ColorScheme-Background {
        color:#eff0f1;
      }
      .ColorScheme-Highlight {
        color:#3daee9;
      }
      .ColorScheme-ViewText {
        color:#31363b;
      }
      .ColorScheme-NegativeText {
        color:#31363b;
      }
      .ColorScheme-ViewBackground {
        color:#fcfcfc;
      }
      .ColorScheme-ViewHover {
        color:#93cee9;
      }
      .ColorScheme-ViewFocus{
        color:#3daee9;
      }
      .ColorScheme-ButtonText {
        color:#31363b;
      }
      .ColorScheme-ButtonBackground {
        color:#eff0f1;
      }
      .ColorScheme-ButtonHover {
        color:#93cee9;
      }
      .ColorScheme-ButtonFocus{
        color:#3daee9;
      }</style>
  </defs>
  <g
     id="22-22-audio-volume-medium"
     transform="translate(6,159)">
    <rect
       style="opacity:1;fill:none;stroke-width:1.76;stroke-linecap:round;stroke-linejoin:round"
       id="rect2032"
       width="22"
       height="22"
       x="-6"
       y="-159"
       rx="0"
       ry="0" />
    <path
       d="m 10.258195,-153.37236 c 0.2056,-0.1843 0.5218,-0.167 0.706,0.0387 2.7163,3.0316 2.7163,7.6357 10e-5,10.6673 -0.1843,0.2057 -0.5004,0.223 -0.7061,0.0387 -0.2057,-0.1842 -0.223,-0.5003 -0.0387,-0.706 2.3759,-2.6518 2.3759,-6.6809 -10e-5,-9.3327 -0.1842,-0.2057 -0.1669,-0.5218 0.0388,-0.706 z"
       id="path2034"
       class="ColorScheme-Text"
       fill="currentColor"
       style="opacity:0.35" />
    <path
       d="m 6.998598,-154.99386 c 0,-0.873 -1.0403,-1.3269 -1.6803,-0.733 l -3.87213,3.5934 c -0.0925,0.0858 -0.21396,0.1335 -0.34011,0.1335 h -2.60749 c -0.82843,0 -1.5,0.6715 -1.5,1.5 v 5 c 0,0.8284 0.67157,1.5 1.5,1.5 h 2.60749 c 0.12615,0 0.24764,0.0476 0.34011,0.1335 l 3.87213,3.5933 c 0.64,0.5939 1.6803,0.1401 1.6803,-0.733 z m -4.8722,3.5934 3.8722,-3.5934 v 13.9877 l -3.8722,-3.5933 c -0.27741,-0.2575 -0.64188,-0.4005 -1.02034,-0.4005 h -2.60749 c -0.27614,0 -0.5,-0.2239 -0.5,-0.5 v -5 c 0,-0.2762 0.22386,-0.5 0.5,-0.5 h 2.60749 c 0.37846,0 0.74293,-0.1431 1.02034,-0.4005 z m 6.956497,6.3337 c -0.2393,-0.1378 -0.3215,-0.4436 -0.1837,-0.6828 0.7762,-1.3476 0.8317,-3.0588 -7e-4,-4.5005 -0.138,-0.2392 -0.0561,-0.545 0.183,-0.683 0.2392,-0.1381 0.545,-0.0562 0.6831,0.183 1.018,1.7632 0.9481,3.8555 0.0011,5.4996 -0.1378,0.2393 -0.4435,0.3215 -0.6828,0.1837 z"
       id="path2036"
       class="ColorScheme-Text"
       fill="currentColor" />
  </g>
</svg>
