<svg xmlns="http://www.w3.org/2000/svg" width="16" height="16"><path fill="#dedede" stroke-linecap="round" stroke-linejoin="round" stroke-width="2.001" d="M8.833 5.17c.375.376.664.808.867 1.298s.305 1 .305 1.532A3.96 3.96 0 0 1 9.7 9.532c-.203.49-.492.922-.867 1.297l-.704-.703c.282-.281.498-.605.65-.97A3.03 3.03 0 0 0 9.004 8c0-.401-.076-.784-.227-1.15a2.94 2.94 0 0 0-.649-.976zM5.292 1.997h.711v12.006h-.711l-3.001-3.002H0V5h2.29zm-.29 1.712-2.29 2.29H1.002v4.002h1.712l2.29 2.29z" aria-label="" style="paint-order:stroke fill markers"/><path fill="#dedede" d="M13.077.926c.469.47.883.977 1.243 1.524.365.548.672 1.123.922 1.728.25.6.438 1.222.563 1.868a9.903 9.903 0 0 1 0 3.916 9.766 9.766 0 0 1-1.485 3.588 9.632 9.632 0 0 1-1.243 1.524l-.703-.704a8.721 8.721 0 0 0 1.117-1.368 8.939 8.939 0 0 0 1.337-3.236 8.76 8.76 0 0 0 0-3.525 8.892 8.892 0 0 0-1.337-3.236 8.55 8.55 0 0 0-1.117-1.375zm-2.118 2.118c.328.329.617.686.867 1.071.256.38.47.782.641 1.204.178.422.31.86.399 1.313a6.735 6.735 0 0 1 0 2.744 6.742 6.742 0 0 1-.399 1.305 6.916 6.916 0 0 1-1.508 2.274l-.711-.71a5.9 5.9 0 0 0 1.297-1.947c.307-.735.461-1.5.461-2.298s-.154-1.563-.461-2.298a5.901 5.901 0 0 0-1.297-1.946z" opacity=".35" style="paint-order:stroke fill markers"/></svg>