<svg xmlns="http://www.w3.org/2000/svg" width="16" height="16"><path fill="#dedede" stroke-linecap="square" d="M3 1c-1.108 0-2 .892-2 2v10c0 1.108.892 2 2 2h1a4 4 0 0 1 .295-1.508c.007-.018.01-.037.017-.054.008-.018.018-.032.026-.05a4 4 0 0 1 .293-.542c.038-.061.08-.12.12-.178a4 4 0 0 1 .325-.396l.016-.018c.026-.028.045-.063.072-.09.032-.032.07-.055.104-.086a4 4 0 0 1 .39-.32c.064-.046.129-.09.196-.133a4 4 0 0 1 .486-.264c.031-.014.058-.035.09-.048.031-.014.065-.02.097-.032a4 4 0 0 1 .604-.185l.107-.022A4 4 0 0 1 8 11a4 4 0 0 1 .727.068c.076.013.151.032.226.05a4 4 0 0 1 .4.118c.074.026.153.039.225.069.49.203.914.484 1.274.843.359.36.64.784.843 1.274.027.064.04.134.06.201A4 4 0 0 1 12 15h1c1.108 0 2-.892 2-2V3c0-1.108-.892-2-2-2H3zm0 1h10c.554 0 1 .446 1 1v10c0 .554-.446 1-1 1h-.094a4.97 4.97 0 0 0-.367-1.133 4.84 4.84 0 0 0-.617-1.008 4.575 4.575 0 0 0-.828-.82 4.954 4.954 0 0 0-1.024-.617 3.82 3.82 0 0 0 .805-.64 4.04 4.04 0 0 0 .992-1.759A3.97 3.97 0 0 0 12 7c0-.552-.104-1.07-.312-1.555a3.924 3.924 0 0 0-.86-1.273 3.927 3.927 0 0 0-1.273-.86A3.893 3.893 0 0 0 8 3a3.95 3.95 0 0 0-1.562.313 3.99 3.99 0 0 0-2.125 2.133A3.891 3.891 0 0 0 4.002 7c0 .349.042.69.13 1.023.09.334.217.652.384.954.172.296.377.57.617.82.24.245.51.456.812.633-.37.161-.71.364-1.023.61a5.031 5.031 0 0 0-1.46 1.835c-.168.36-.29.734-.368 1.125H3c-.554 0-1-.446-1-1V3c0-.554.446-1 1-1zm5 2c.411 0 .8.08 1.164.242.365.156.682.37.953.64.271.272.485.59.64.954C10.92 6.2 11 6.588 11 7c0 .412-.08.8-.242 1.164a3.01 3.01 0 0 1-.64.953 3.12 3.12 0 0 1-.954.649A2.924 2.924 0 0 1 8 10c-.411 0-.8-.078-1.164-.234-.365-.162-.682-.378-.953-.649s-.487-.588-.649-.953A2.924 2.924 0 0 1 5 7c0-.411.078-.8.234-1.164.162-.365.378-.682.649-.953s.588-.485.953-.64A2.843 2.843 0 0 1 8 4z" aria-label="" style="paint-order:stroke fill markers"/></svg>