<?xml version="1.0" encoding="UTF-8" standalone="no"?>
<svg
   width="22"
   height="22"
   version="1.0"
   viewBox="0 0 22 22"
   id="svg199"
   xmlns="http://www.w3.org/2000/svg"
   xmlns:svg="http://www.w3.org/2000/svg">
  <defs
     id="defs3">
    <style
       id="current-color-scheme"
       type="text/css">.ColorScheme-Text {
        color:#333333;
      }
      .ColorScheme-Background{
        color:#f5f5f5;
      }
      .ColorScheme-ViewText {
        color:#fbfbfb;
      }
      .ColorScheme-ViewBackground{
        color:#ffffff;
      }
      .ColorScheme-ViewHover {
        color:#000000;
      }
      .ColorScheme-ViewFocus{
        color:#5a5a5a;
      }
      .ColorScheme-ButtonText {
        color:#333333;
      }
      .ColorScheme-ButtonBackground{
        color:#f5f5f5;
      }
      .ColorScheme-ButtonHover {
        color:#1489ff;
      }
      .ColorScheme-ButtonFocus{
        color:#2B74C7;
      }</style>
  </defs>
  <g
     id="22-22-Battery"
     transform="translate(-3,67)">
    <rect
       style="fill:none;stroke-width:2.09057;stroke-linecap:round;stroke-linejoin:round"
       id="rect18251"
       width="22"
       height="22"
       x="3"
       y="-67"
       rx="0"
       ry="0" />
    <path
       id="path18253"
       d="m 8,-61 c -1.662,0 -3,1.338 -3,3 v 4 c 0,1.662 1.338,3 3,3 h 11 c 1.662,0 3,-1.338 3,-3 v -1 h 1 v -2 h -1 v -1 c 0,-1.662 -1.338,-3 -3,-3 z m 0,1 h 11 c 1.108,0 1.925365,0.894517 2,2 v 1 2 1 c 0,1.108 -0.892,2 -2,2 H 8 c -1.108,0 -2,-0.892 -2,-2 v -4 c 0,-1.108 0.892,-2 2,-2 z"
       class="ColorScheme-Text"
       fill="currentColor" />
  </g>
</svg>
