<svg xmlns="http://www.w3.org/2000/svg" width="16" height="16"><path fill="#d33636" d="M6 3v1h7c.554 0 1 .446 1 1v6c0 .554-.446 1-1 1H4v1h9c1.108 0 2-.892 2-2V9h1V7h-1V5c0-1.108-.892-2-2-2z" style="paint-order:stroke fill markers"/><path fill="#d33636" stroke-linecap="round" stroke-linejoin="round" stroke-width="4" d="M5.07 5.5c0 .292-.052.573-.157.844-.093.27-.229.515-.406.734s-.39.406-.64.563c-.24.145-.506.25-.797.312V13h-1V7.953a2.741 2.741 0 0 1-.813-.312A2.687 2.687 0 0 1 .21 6.344 2.561 2.561 0 0 1 .07 5.5V3h1V1h1v2h1V1h1v2h1zm-4 0c0 .417.145.77.437 1.063S2.153 7 2.57 7s.77-.146 1.062-.438.438-.645.438-1.062V4h-3z" aria-label="юбЪ" style="paint-order:stroke fill markers" transform="translate(-.07)"/></svg>