<svg xmlns="http://www.w3.org/2000/svg" width="16" height="16"><path fill="#f55" d="M7.334 5c.493 0 .894.147 1.203.44.309.287.463.655.463 1.105 0 .195-.051.393-.154.594a1.97 1.97 0 0 1-.276.43 6.467 6.467 0 0 1-.326.318l-.039.04c-.33.299-.496.595-.496.893v.327h-.766v-.383c0-.244.052-.452.155-.625.103-.18.284-.389.545-.627.146-.136.249-.236.308-.301a1.22 1.22 0 0 0 .188-.283.82.82 0 0 0 .097-.383c0-.25-.081-.45-.244-.602-.157-.151-.376-.228-.658-.228-.466 0-.786.26-.959.781l-.7-.293a2.05 2.05 0 0 1 .587-.83C6.544 5.123 6.9 5 7.334 5zm-.008 4.894c.157 0 .288.054.39.163.11.108.163.238.163.39s-.054.282-.162.39a.516.516 0 0 1-.39.163.541.541 0 0 1-.554-.553.541.541 0 0 1 .553-.553z" class="error"/><path fill="#dedede" d="M2 3C.892 3 0 3.892 0 5v6c0 1.108.892 2 2 2h11c1.108 0 2-.892 2-2V9h1V7h-1V5c0-1.108-.892-2-2-2zm0 1h11c.554 0 1 .446 1 1v6c0 .554-.446 1-1 1H2c-.554 0-1-.446-1-1V5c0-.554.446-1 1-1z" style="paint-order:stroke fill markers"/></svg>