<svg xmlns="http://www.w3.org/2000/svg" width="16" height="16"><path fill="#dedede" d="M7.998 0v7.041L4.705 3.748l-.002.002-.996-.996L3 3.46 7.545 8 3 12.544l.707.707.996-.996h.002L8 8.96V12.5a4.5 4.5 0 0 1 1-2.815v-.27l.117.12a4.5 4.5 0 0 1 .748-.67L9 8l4-4-4-4H7.998zM8 12.5V16h1l.326-.326A4.5 4.5 0 0 1 8 12.5zM9 1.416l2.586 2.586L9 6.588V1.416z" class="ColorScheme-Text"/><path fill="#dedede" d="M12.5 9a3.5 3.5 0 1 0 0 7 3.5 3.5 0 0 0 0-7zm-1.414 1.586c.128 0 .255.048.353.146l1.06 1.06 1.061-1.06a.499.499 0 1 1 .707.707l-1.06 1.06 1.06 1.061a.499.499 0 1 1-.707.707l-1.06-1.06-1.06 1.06a.499.499 0 1 1-.708-.707l1.06-1.06-1.06-1.06a.499.499 0 0 1 .354-.854z"/></svg>