<svg xmlns="http://www.w3.org/2000/svg" width="16" height="16"><path fill="#dedede" d="M7.47 0A.5.5 0 0 0 7 .5v5.055l.477.375.523.41V1.814l2.773 3.122-2.28 1.79.808.637 2.507-1.97a.498.498 0 0 0 .065-.725l-4-4.5A.5.5 0 0 0 7.47 0zM4.538 5.002a.5.5 0 0 0-.346.89L6.873 8l-2.682 2.107a.499.499 0 1 0 .618.786L7 9.172V15.5a.5.5 0 0 0 .873.332l4-4.5a.501.501 0 0 0-.064-.725L9.486 8.781 8.49 8l-.263-.209L7 6.828l-.143-.111a.501.501 0 0 1-.01-.008l-1.25-.982-.788-.62a.494.494 0 0 0-.272-.105zM8 8.887l2.773 2.177L8 14.186v-5.3z"/><rect width="16" height="1" x="3.386" y="1.052" fill="#dedede" rx=".5" ry=".5" style="paint-order:stroke fill markers" transform="rotate(38.118)"/></svg>