<?xml version="1.0" encoding="UTF-8" standalone="no"?>
<svg
   id="svg2"
   width="22"
   height="22"
   version="1.0"
   xmlns="http://www.w3.org/2000/svg"
   xmlns:svg="http://www.w3.org/2000/svg"
   xmlns:rdf="http://www.w3.org/1999/02/22-rdf-syntax-ns#"
   xmlns:cc="http://creativecommons.org/ns#"
   xmlns:dc="http://purl.org/dc/elements/1.1/">
  <metadata
     id="metadata7">
    <rdf:RDF>
      <cc:Work
         rdf:about="">
        <dc:format>image/svg+xml</dc:format>
        <dc:type
           rdf:resource="http://purl.org/dc/dcmitype/StillImage" />
        <dc:title />
      </cc:Work>
    </rdf:RDF>
  </metadata>
  <defs
     id="defs5">
    <style
       id="current-color-scheme"
       type="text/css">
      .ColorScheme-Text {
        color:#31363b;
      }
      .ColorScheme-Background{
        color:#E9E8E8;
      }
      .ColorScheme-ViewText {
        color:#000000;
      }
      .ColorScheme-ViewBackground{
        color:#ffffff;
      }
      .ColorScheme-ViewHover {
        color:#000000;
      }
      .ColorScheme-ViewFocus{
        color:#5a5a5a;
      }
      .ColorScheme-ButtonText {
        color:#000000;
      }
      .ColorScheme-ButtonBackground{
        color:#E9E8E8;
      }
      .ColorScheme-ButtonHover {
        color:#1489ff;
      }
      .ColorScheme-ButtonFocus{
        color:#2B74C7;
      }
</style>
  </defs>
  <g
     id="22-22-computer">
    <rect
       id="rect3832"
       x="0"
       y="0"
       width="22"
       height="22"
       fill-opacity="0" />
    <path
       id="rect2020"
       d="M 3,3 C 1.892,3 1,3.892 1,5 v 9 c 0,1.108 0.892,2 2,2 h 6 v 2 H 6.4882812 C 6.2173149,18 6,18.223 6,18.5 6,18.777 6.2173149,19 6.4882812,19 h 3 0.023438 2.9667968 0.04297 2.990235 C 15.782685,19 16,18.777 16,18.5 16,18.223 15.782685,18 15.511719,18 H 13 v -2 h 6 c 1.108,0 2,-0.892 2,-2 V 5 C 21,3.892 20.108,3 19,3 Z m 0,1 h 16 c 0.554,0 1,0.446 1,1 v 9 c 0,0.554 -0.446,1 -1,1 H 3 C 2.446,15 2,14.554 2,14 V 5 C 2,4.446 2.446,4 3,4 Z m 7,12 h 2 v 2 h -2 z"
       class="ColorScheme-Text"
       fill="currentColor" />
  </g>
</svg>
