<?xml version="1.0" encoding="UTF-8" standalone="no"?>
<svg
   version="1.1"
   viewBox="0 0 22 22"
   id="svg69"
   width="22"
   height="22"
   xmlns="http://www.w3.org/2000/svg"
   xmlns:svg="http://www.w3.org/2000/svg"
   xmlns:rdf="http://www.w3.org/1999/02/22-rdf-syntax-ns#"
   xmlns:cc="http://creativecommons.org/ns#"
   xmlns:dc="http://purl.org/dc/elements/1.1/">
  <metadata
     id="metadata73">
    <rdf:RDF>
      <cc:Work
         rdf:about="">
        <dc:format>image/svg+xml</dc:format>
        <dc:type
           rdf:resource="http://purl.org/dc/dcmitype/StillImage" />
      </cc:Work>
    </rdf:RDF>
  </metadata>
  <defs
     id="defs3">
    <style
       id="current-color-scheme"
       type="text/css">.ColorScheme-Text {
        color:#31363b;
      }
      .ColorScheme-Background {
        color:#eff0f1;
      }
      .ColorScheme-Highlight {
        color:#3daee9;
      }
      .ColorScheme-ViewText {
        color:#31363b;
      }
      .ColorScheme-ViewBackground {
        color:#fcfcfc;
      }
      .ColorScheme-ViewHover {
        color:#93cee9;
      }
      .ColorScheme-ViewFocus{
        color:#3daee9;
      }
      .ColorScheme-ButtonText {
        color:#31363b;
      }
      .ColorScheme-ButtonBackground {
        color:#eff0f1;
      }
      .ColorScheme-ButtonHover {
        color:#93cee9;
      }
      .ColorScheme-ButtonFocus{
        color:#3daee9;
      }</style>
  </defs>
  <g
     id="22-22-disk-quota-high"
     transform="translate(-49.5)">
    <path
       class="ColorScheme-NegativeText"
       d="m 60.5,7.5 c -1.6569,0 -3,0.44772 -3,1 v 5 c 0,0.55228 1.3431,1 3,1 1.6569,0 3,-0.44772 3,-1 v -5 c 0,-0.55228 -1.3431,-1 -3,-1 z m 0,1 c 0.73919,8.7e-4 1.4514,0.09268 2,0.25781 V 9.24414 C 61.95052,9.40857 61.2384,9.49966 60.5,9.5 59.76081,9.49913 59.0486,9.40732 58.5,9.24219 V 8.75586 C 59.04948,8.59143 59.7616,8.50034 60.5,8.5 Z"
       fill="#ff3232"
       id="path1120" />
    <rect
       style="fill:none;stroke-width:2;stroke-linecap:round;stroke-linejoin:round"
       id="rect1578"
       width="22"
       height="22"
       x="49.5"
       y="0"
       rx="0"
       ry="0" />
    <path
       id="path1580"
       d="m 54.5,2 c -1.108,0 -2,0.892 -2,2 v 4 1 4 1 4 c 0,1.108 0.892,2 2,2 h 12 c 1.108,0 2,-0.892 2,-2 V 14 13 9 8 4 c 0,-1.108 -0.892,-2 -2,-2 z m 0,1 h 12 c 0.554,0 1,0.446 1,1 V 8.1777344 C 66.30349,8.6007616 65.502607,9.730913 65.5,11 c 0.0026,1.269087 0.80349,2.399239 2,2.822266 V 18 c 0,0.554 -0.446,1 -1,1 h -12 c -0.554,0 -1,-0.446 -1,-1 V 13.822266 C 54.69651,13.399239 55.497393,12.269087 55.5,11 55.499872,9.7287619 54.698535,8.595621 53.5,8.171875 V 4 c 0,-0.554 0.446,-1 1,-1 z M 55,4 C 54.723858,4 54.5,4.2238576 54.5,4.5 54.5,4.7761424 54.723858,5 55,5 55.02355,4.999705 55.04704,4.99775 55.07031,4.99414 55.316482,4.959176 55.499557,4.7486395 55.5,4.5 55.500215,4.49154 55.500215,4.483072 55.5,4.474609 55.486466,4.2084299 55.266523,3.9996561 55,4 Z M 66,4 C 65.723858,4 65.5,4.2238576 65.5,4.5 65.5,4.7761424 65.723858,5 66,5 66.276142,5 66.5,4.7761424 66.5,4.5 66.5,4.2238576 66.276142,4 66,4 Z M 53.5,9.2695312 C 54.118313,9.626514 54.499435,10.286034 54.5,11 c -0.0026,0.711871 -0.383495,1.368676 -1,1.724609 z m 14,0.00586 V 12.724609 C 66.883494,12.368676 66.502652,11.711871 66.5,11 c 0.0027,-0.711871 0.383494,-1.3686763 1,-1.7246088 z M 55,17 c -0.276142,0 -0.5,0.223858 -0.5,0.5 0,0.276142 0.223858,0.5 0.5,0.5 0.276142,0 0.5,-0.223858 0.5,-0.5 C 55.5,17.223858 55.276142,17 55,17 Z m 11,0 c -0.276142,0 -0.5,0.223858 -0.5,0.5 0,0.276142 0.223858,0.5 0.5,0.5 0.276142,0 0.5,-0.223858 0.5,-0.5 C 66.5,17.223858 66.276142,17 66,17 Z"
       fill="currentColor"
       class="ColorScheme-Text" />
  </g>
</svg>
