<?xml version="1.0" encoding="UTF-8" standalone="no"?>
<svg
   version="1.1"
   viewBox="0 0 22 22"
   id="svg69"
   width="22"
   height="22"
   xmlns="http://www.w3.org/2000/svg"
   xmlns:svg="http://www.w3.org/2000/svg"
   xmlns:rdf="http://www.w3.org/1999/02/22-rdf-syntax-ns#"
   xmlns:cc="http://creativecommons.org/ns#"
   xmlns:dc="http://purl.org/dc/elements/1.1/">
  <metadata
     id="metadata73">
    <rdf:RDF>
      <cc:Work
         rdf:about="">
        <dc:format>image/svg+xml</dc:format>
        <dc:type
           rdf:resource="http://purl.org/dc/dcmitype/StillImage" />
      </cc:Work>
    </rdf:RDF>
  </metadata>
  <defs
     id="defs3">
    <style
       id="current-color-scheme"
       type="text/css">.ColorScheme-Text {
        color:#31363b;
      }
      .ColorScheme-Background {
        color:#eff0f1;
      }
      .ColorScheme-Highlight {
        color:#3daee9;
      }
      .ColorScheme-ViewText {
        color:#31363b;
      }
      .ColorScheme-ViewBackground {
        color:#fcfcfc;
      }
      .ColorScheme-ViewHover {
        color:#93cee9;
      }
      .ColorScheme-ViewFocus{
        color:#3daee9;
      }
      .ColorScheme-ButtonText {
        color:#31363b;
      }
      .ColorScheme-ButtonBackground {
        color:#eff0f1;
      }
      .ColorScheme-ButtonHover {
        color:#93cee9;
      }
      .ColorScheme-ButtonFocus{
        color:#3daee9;
      }</style>
  </defs>
  <g
     id="22-22-disk-quota-critical"
     transform="translate(-75)">
    <path
       id="path1136"
       class="ColorScheme-NegativeText"
       d="m 85,7.5 c -1.6568,0 -3,0.44772 -3,1 v 5 c 0,0.55228 1.3432,1 3,1 1.6568,0 3,-0.44772 3,-1 v -5 c 0,-0.55228 -1.3432,-1 -3,-1 z m 0,1 c 0.73919,8.7e-4 1.4514,0.092683 2,0.2578125 V 9.2441406 C 86.45052,9.4085706 85.7384,9.49966 85,9.5 84.26081,9.49913 83.5486,9.4073175 83,9.2421875 V 8.7558594 C 83.54948,8.5914294 84.2616,8.50034 85,8.5 Z m 4,0 v 4 h 1 v -4 z m 0,5 v 1 h 1 v -1 z"
       style="fill:#ff3232;fill-opacity:1" />
    <rect
       style="fill:none;stroke-width:2;stroke-linecap:round;stroke-linejoin:round"
       id="rect1582"
       width="22"
       height="22"
       x="75"
       y="0"
       rx="0"
       ry="0" />
    <path
       id="path1584"
       d="m 80,2 c -1.108,0 -2,0.892 -2,2 v 4 1 4 1 4 c 0,1.108 0.892,2 2,2 h 12 c 1.108,0 2,-0.892 2,-2 V 14 13 9 8 4 C 94,2.892 93.108,2 92,2 Z m 0,1 h 12 c 0.554,0 1,0.446 1,1 V 8.1777344 C 91.80349,8.6007616 91.002607,9.730913 91,11 c 0.0026,1.269087 0.80349,2.399239 2,2.822266 V 18 c 0,0.554 -0.446,1 -1,1 H 80 c -0.554,0 -1,-0.446 -1,-1 V 13.822266 C 80.19651,13.399239 80.997393,12.269087 81,11 80.999872,9.7287619 80.198535,8.595621 79,8.171875 V 4 c 0,-0.554 0.446,-1 1,-1 z m 0.5,1 C 80.223858,4 80,4.2238576 80,4.5 80,4.7761424 80.223858,5 80.5,5 80.52355,4.999705 80.54704,4.99775 80.57031,4.99414 80.816482,4.959176 80.999557,4.7486395 81,4.5 81.000215,4.49154 81.000215,4.483072 81,4.474609 80.986466,4.2084299 80.766523,3.9996561 80.5,4 Z m 11,0 C 91.223858,4 91,4.2238576 91,4.5 91,4.7761424 91.223858,5 91.5,5 91.776142,5 92,4.7761424 92,4.5 92,4.2238576 91.776142,4 91.5,4 Z M 79,9.2695312 C 79.618313,9.626514 79.999435,10.286034 80,11 c -0.0026,0.711871 -0.383495,1.368676 -1,1.724609 z m 14,0.00586 V 12.724609 C 92.383494,12.368676 92.002652,11.711871 92,11 92.0027,10.288129 92.383494,9.6313237 93,9.2753912 Z M 80.5,17 C 80.223858,17 80,17.223858 80,17.5 80,17.776142 80.223858,18 80.5,18 80.776142,18 81,17.776142 81,17.5 81,17.223858 80.776142,17 80.5,17 Z m 11,0 C 91.223858,17 91,17.223858 91,17.5 91,17.776142 91.223858,18 91.5,18 91.776142,18 92,17.776142 92,17.5 92,17.223858 91.776142,17 91.5,17 Z"
       fill="currentColor"
       class="ColorScheme-Text" />
  </g>
</svg>
