<?xml version="1.0" encoding="UTF-8" standalone="no"?>
<svg
   id="svg2"
   viewBox="0 0 22 22"
   version="1.1"
   width="22"
   height="22"
   xmlns="http://www.w3.org/2000/svg"
   xmlns:svg="http://www.w3.org/2000/svg">
  <defs
     id="defs15" />
  <style
     type="text/css"
     id="current-color-scheme">
        .ColorScheme-Text {
            color:#232629;
        }
    </style>
  <g
     id="22-22-drive">
    <rect
       style="fill:none;stroke-width:2;stroke-linecap:round;stroke-linejoin:round"
       id="rect1544"
       width="22"
       height="22"
       x="0"
       y="0"
       rx="0"
       ry="0" />
    <path
       id="rect905"
       d="M 5,2 C 3.892,2 3,2.892 3,4 v 4 1 4 1 4 c 0,1.108 0.892,2 2,2 h 12 c 1.108,0 2,-0.892 2,-2 V 14 13 9 8 4 C 19,2.892 18.108,2 17,2 Z m 0,1 h 12 c 0.554,0 1,0.446 1,1 V 8.1777344 C 16.80349,8.6007616 16.002607,9.730913 16,11 c 0.0026,1.269087 0.80349,2.399239 2,2.822266 V 18 c 0,0.554 -0.446,1 -1,1 H 5 C 4.446,19 4,18.554 4,18 V 13.822266 C 5.1965103,13.399239 5.9973927,12.269087 6,11 5.999872,9.7287619 5.1985348,8.595621 4,8.171875 V 4 C 4,3.446 4.446,3 5,3 Z M 5.5,4 C 5.2238576,4 5,4.2238576 5,4.5 5,4.7761424 5.2238576,5 5.5,5 5.5235462,4.999705 5.5470422,4.997747 5.5703125,4.9941406 5.8164817,4.959176 5.9995569,4.7486395 6,4.5 6.0002149,4.4915378 6.0002149,4.4830716 6,4.4746094 5.9864658,4.2084299 5.7665231,3.9996561 5.5,4 Z m 11,0 C 16.223858,4 16,4.2238576 16,4.5 16,4.7761424 16.223858,5 16.5,5 16.776142,5 17,4.7761424 17,4.5 17,4.2238576 16.776142,4 16.5,4 Z M 4,9.2695312 C 4.6183129,9.626514 4.9994351,10.286034 5,11 4.99735,11.711871 4.6165055,12.368676 4,12.724609 Z m 14,0.00586 V 12.724609 C 17.383494,12.368676 17.002652,11.711871 17,11 17.0027,10.288129 17.383494,9.6313237 18,9.2753912 Z M 5.5,17 C 5.2238576,17 5,17.223858 5,17.5 5,17.776142 5.2238576,18 5.5,18 5.7761424,18 6,17.776142 6,17.5 6,17.223858 5.7761424,17 5.5,17 Z m 11,0 C 16.223858,17 16,17.223858 16,17.5 16,17.776142 16.223858,18 16.5,18 16.776142,18 17,17.776142 17,17.5 17,17.223858 16.776142,17 16.5,17 Z"
       fill="currentColor"
       class="ColorScheme-Text" />
  </g>
</svg>
