<?xml version="1.0" encoding="UTF-8" standalone="no"?>
<svg
   width="22"
   height="22"
   version="1.1"
   viewBox="0 0 22 22"
   id="svg107"
   xmlns="http://www.w3.org/2000/svg"
   xmlns:svg="http://www.w3.org/2000/svg"
   xmlns:rdf="http://www.w3.org/1999/02/22-rdf-syntax-ns#"
   xmlns:cc="http://creativecommons.org/ns#"
   xmlns:dc="http://purl.org/dc/elements/1.1/">
  <metadata
     id="metadata111">
    <rdf:RDF>
      <cc:Work
         rdf:about="">
        <dc:format>image/svg+xml</dc:format>
        <dc:type
           rdf:resource="http://purl.org/dc/dcmitype/StillImage" />
      </cc:Work>
    </rdf:RDF>
  </metadata>
  <defs
     id="defs3">
    <style
       id="current-color-scheme"
       type="text/css">.ColorScheme-Text {
        color:#31363b;
      }
      .ColorScheme-Background {
        color:#eff0f1;
      }
      .ColorScheme-Highlight {
        color:#3daee9;
      }
      .ColorScheme-ViewText {
        color:#31363b;
      }
      .ColorScheme-ViewBackground {
        color:#fcfcfc;
      }
      .ColorScheme-ViewHover {
        color:#93cee9;
      }
      .ColorScheme-ViewFocus{
        color:#3daee9;
      }
      .ColorScheme-ButtonText {
        color:#31363b;
      }
      .ColorScheme-ButtonBackground {
        color:#eff0f1;
      }
      .ColorScheme-ButtonHover {
        color:#93cee9;
      }
      .ColorScheme-ButtonFocus{
        color:#3daee9;
      }</style>
  </defs>
  <g
     id="22-22-keyboard-layout">
    <rect
       y="-1.4e-06"
       width="22"
       height="22"
       fill="none"
       id="rect5-3"
       x="0" />
    <path
       id="rect1267"
       class="ColorScheme-Text"
       d="M 5,5 C 3.338,5 2,6.338 2,8 v 7 c 0,1.662 1.338,3 3,3 h 12 c 1.662,0 3,-1.338 3,-3 V 8 C 20,6.338 18.662,5 17,5 Z m 0,1 h 12 c 1.108,0 2,0.892 2,2 v 7 c 0,1.108 -0.892,2 -2,2 H 5 C 3.892,17 3,16.108 3,15 V 8 C 3,6.892 3.892,6 5,6 Z M 5.4746094,8 C 5.209695,8.0133421 5,8.2316563 5,8.5 5,8.777 5.223,9 5.5,9 h 1 C 6.777,9 7,8.777 7,8.5 7,8.223 6.777,8 6.5,8 h -1 C 5.49134,8 5.483155,7.9995696 5.4746094,8 Z m 3,0 C 8.209695,8.0133421 8,8.2316563 8,8.5 8,8.777 8.223,9 8.5,9 h 1 C 9.777,9 10,8.777 10,8.5 10,8.223 9.777,8 9.5,8 h -1 C 8.4913438,8 8.483155,7.9995696 8.4746094,8 Z M 12.474609,8 C 12.209695,8.0133421 12,8.2316563 12,8.5 12,8.777 12.223,9 12.5,9 h 1 C 13.777,9 14,8.777 14,8.5 14,8.223 13.777,8 13.5,8 h -1 c -0.0087,0 -0.01685,-4.304e-4 -0.02539,0 z m 3,0 C 15.209695,8.0133421 15,8.2316563 15,8.5 15,8.777 15.223,9 15.5,9 h 1 C 16.777,9 17,8.777 17,8.5 17,8.223 16.777,8 16.5,8 h -1 C 15.4913,8 15.48315,7.9995696 15.47461,8 Z M 5.4746094,11 C 5.209695,11.013342 5,11.231656 5,11.5 5,11.777 5.223,12 5.5,12 h 1 C 6.777,12 7,11.777 7,11.5 7,11.223 6.777,11 6.5,11 h -1 c -0.00866,0 -0.016845,-4.3e-4 -0.025391,0 z m 3,0 C 8.209695,11.013342 8,11.231656 8,11.5 8,11.777 8.223,12 8.5,12 h 1 C 9.777,12 10,11.777 10,11.5 10,11.223 9.777,11 9.5,11 h -1 c -0.00866,0 -0.016845,-4.3e-4 -0.025391,0 z m 3.9999996,0 C 12.209695,11.013342 12,11.231656 12,11.5 c 0,0.277 0.223,0.5 0.5,0.5 h 1 C 13.777,12 14,11.777 14,11.5 14,11.223 13.777,11 13.5,11 h -1 c -0.0087,0 -0.01685,-4.3e-4 -0.02539,0 z m 3,0 C 15.209695,11.013342 15,11.231656 15,11.5 c 0,0.277 0.223,0.5 0.5,0.5 h 1 C 16.777,12 17,11.777 17,11.5 17,11.223 16.777,11 16.5,11 h -1 c -0.0087,0 -0.01685,-4.3e-4 -0.02539,0 z M 6.5,14 C 6.22386,14 6,14.2239 6,14.5 6,14.7761 6.22386,15 6.5,15 h 9 C 15.7761,15 16,14.7761 16,14.5 16,14.2239 15.7761,14 15.5,14 Z"
       fill="currentColor" />
  </g>
</svg>
