<?xml version="1.0" encoding="UTF-8" standalone="no"?>
<svg
   width="22"
   height="22"
   version="1.1"
   viewBox="0 0 22 22"
   id="svg27"
   xmlns="http://www.w3.org/2000/svg"
   xmlns:svg="http://www.w3.org/2000/svg"
   xmlns:rdf="http://www.w3.org/1999/02/22-rdf-syntax-ns#"
   xmlns:cc="http://creativecommons.org/ns#"
   xmlns:dc="http://purl.org/dc/elements/1.1/">
  <metadata
     id="metadata31">
    <rdf:RDF>
      <cc:Work
         rdf:about="">
        <dc:format>image/svg+xml</dc:format>
        <dc:type
           rdf:resource="http://purl.org/dc/dcmitype/StillImage" />
      </cc:Work>
    </rdf:RDF>
  </metadata>
  <defs
     id="defs3">
    <style
       id="current-color-scheme"
       type="text/css">.ColorScheme-Text {
        color:#31363b;
      }
      .ColorScheme-Background {
        color:#eff0f1;
      }
      .ColorScheme-Highlight {
        color:#3daee9;
      }
      .ColorScheme-ViewText {
        color:#31363b;
      }
      .ColorScheme-ViewBackground {
        color:#fcfcfc;
      }
      .ColorScheme-ViewHover {
        color:#93cee9;
      }
      .ColorScheme-ViewFocus{
        color:#3daee9;
      }
      .ColorScheme-ButtonText {
        color:#31363b;
      }
      .ColorScheme-ButtonBackground {
        color:#eff0f1;
      }
      .ColorScheme-ButtonHover {
        color:#93cee9;
      }
      .ColorScheme-ButtonFocus{
        color:#3daee9;
      }</style>
  </defs>
  <g
     id="22-22-klipper"
     transform="translate(-49,-5)">
    <rect
       x="49"
       y="5"
       width="22"
       height="22"
       fill="none"
       id="rect16" />
    <path
       d="m 54.500002,10 h 1.58535 c 0.20592,0.5826 0.76154,1 1.41465,1 h 2.999996 c 0.6531,0 1.2087,-0.4174 1.4146,-1 h 1.5854 c 0.2761,0 0.5,0.2239 0.5,0.5 v 1 c 0,0.2761 0.2239,0.5 0.5,0.5 0.2761,0 0.5,-0.2239 0.5,-0.5 v -1 c 0,-0.8283998 -0.6716,-1.4999998 -1.5,-1.4999998 h -1.5854 c -0.2059,-0.5826004 -0.7615,-1.0000004 -1.4146,-1.0000004 h -2.999996 c -0.65311,0 -1.20873,0.4174 -1.41465,1.0000004 h -1.58535 c -0.82843,0 -1.5,0.6716 -1.5,1.4999998 v 12 c 0,0.8284 0.67157,1.5 1.5,1.5 h 3 c 0.27614,0 0.5,-0.2239 0.5,-0.5 0,-0.2761 -0.22386,-0.5 -0.5,-0.5 h -3 c -0.27614,0 -0.5,-0.2239 -0.5,-0.5 v -12 c 0,-0.2761 0.22386,-0.5 0.5,-0.5 z m 3,0 c -0.27614,0 -0.5,-0.2238998 -0.5,-0.4999998 0,-0.2761 0.22386,-0.5 0.5,-0.5 h 2.999996 c 0.2761,0 0.5,0.2239 0.5,0.5 0,0.2761 -0.2239,0.4999998 -0.5,0.4999998 z m 2.999996,3 c -0.828426,0 -1.499996,0.6716 -1.499996,1.5 v 8 c 0,0.8284 0.67157,1.5 1.499996,1.5 h 5 c 0.8284,0 1.5,-0.6716 1.5,-1.5 v -8 c 0,-0.8284 -0.6716,-1.5 -1.5,-1.5 z m -0.499996,1.5 c 0,-0.2761 0.2239,-0.5 0.499996,-0.5 h 5 c 0.2761,0 0.5,0.2239 0.5,0.5 v 8 c 0,0.2761 -0.2239,0.5 -0.5,0.5 h -5 c -0.276096,0 -0.499996,-0.2239 -0.499996,-0.5 z"
       id="path835"
       class="ColorScheme-Text"
       fill="currentColor" />
  </g>
</svg>
