<?xml version="1.0" encoding="UTF-8" standalone="no"?>
<svg
   viewBox="0 0 22 22"
   version="1.1"
   id="svg175"
   width="22"
   height="22"
   xmlns="http://www.w3.org/2000/svg"
   xmlns:svg="http://www.w3.org/2000/svg">
  <defs
     id="defs179" />
  <style
     type="text/css"
     id="current-color-scheme">
        .ColorScheme-Text {
            color:#363636;
        }
    </style>
  <g
     id="22-22-media-eject"
     transform="translate(-618)">
    <rect
       id="rect12983"
       width="22"
       height="22"
       x="-22"
       y="618"
       rx="0"
       ry="0"
       style="fill:none"
       transform="rotate(-90)" />
    <path
       id="path12985"
       d="m 620,11 c 0,4.970563 4.02944,9 9,9 4.97056,0 9,-4.029437 9,-9 0,-4.9705627 -4.02944,-9 -9,-9 -4.97056,0 -9,4.0294373 -9,9 z m 1,0 c 0,-4.418278 3.58172,-8 8,-8 4.41828,0 8,3.581722 8,8 0,4.418278 -3.58172,8 -8,8 -4.41828,0 -8,-3.581722 -8,-8 z m 4.00195,0.988281 c -0.002,0.176399 0.0423,0.350247 0.12891,0.503907 C 625.30806,12.805549 625.64001,12.999493 626,13 h 6 c 0.77653,-5.77e-4 1.25619,-0.847347 0.85742,-1.513672 l -3,-5 c -0.3885,-0.6470512 -1.32634,-0.6470512 -1.71484,0 l -3,5 c -0.0904,0.151944 -0.13895,0.325146 -0.14063,0.501953 z M 626,12 l 3,-5 3,5 z"
       class="ColorScheme-Text"
       fill="currentColor" />
    <rect
       id="rect13289"
       width="1"
       height="8"
       x="-15"
       y="-633"
       rx="0.5"
       ry="0.5"
       class="ColorScheme-Text"
       fill="currentColor"
       transform="matrix(0,-1,-1,0,0,0)" />
  </g>
</svg>
