<?xml version="1.0" encoding="UTF-8" standalone="no"?>
<svg
   viewBox="0 0 22 22"
   version="1.1"
   id="svg175"
   width="22"
   height="22"
   xmlns="http://www.w3.org/2000/svg"
   xmlns:svg="http://www.w3.org/2000/svg">
  <defs
     id="defs179" />
  <style
     type="text/css"
     id="current-color-scheme">
        .ColorScheme-Text {
            color:#363636;
        }
    </style>
  <g
     id="22-22-media-record"
     transform="translate(-253)">
    <rect
       id="rect5286"
       width="22"
       height="22"
       x="253"
       y="0"
       rx="0"
       ry="0"
       style="fill:none" />
    <path
       id="path5288"
       d="m 264,2 c -4.97056,0 -9,4.0294373 -9,9 0,4.970563 4.02944,9 9,9 4.97056,0 9,-4.029437 9,-9 0,-4.9705627 -4.02944,-9 -9,-9 z m 0,1 c 4.41828,0 8,3.581722 8,8 0,4.418278 -3.58172,8 -8,8 -4.41828,0 -8,-3.581722 -8,-8 0,-4.418278 3.58172,-8 8,-8 z"
       style="fill:#da4453;fill-opacity:1" />
    <circle
       id="circle7866"
       cx="264"
       cy="11"
       r="6"
       style="fill:#da4453" />
  </g>
</svg>
