<svg xmlns="http://www.w3.org/2000/svg" width="16" height="16"><rect width="6" height="12.025" x="5" fill="#dedede" fill-rule="evenodd" opacity=".35" rx="3" ry="3"/><path fill="#dedede" fill-rule="evenodd" d="M3.5 7.025c-.277 0-.5.223-.5.5v1.5A4.99 4.99 0 0 0 7.5 14v1.024h-2a.5.5 0 1 0 0 1h5a.5.5 0 1 0 0-1h-2v-1.025A4.988 4.988 0 0 0 13 9.024v-1.5a.5.5 0 1 0-1 0v1.5c0 2.216-1.784 4-4 4s-4-1.784-4-4v-1.5c0-.277-.223-.5-.5-.5z" opacity=".35"/><rect width="16" height="2" y="7" fill="#dedede" rx="1" ry="1" style="paint-order:stroke fill markers"/></svg>