<svg xmlns="http://www.w3.org/2000/svg" width="16" height="16"><path fill="#dedede" d="M1 2c-.554 0-1 .446-1 1v4c0 .554.446 1 1 1h1v6h1v-3h5v2H5v1h7v-1H9v-2h6c.554 0 1-.446 1-1V3c0-.554-.446-1-1-1H3zm0 1h3v1H1zm4 0h10v7H3V8h1c.554 0 1-.446 1-1zM1 5h1v1h1V5h1v2H1z" style="paint-order:stroke fill markers"/><rect width="1" height="1" x="6" y="6" fill="#dedede" rx="0" ry="0" style="paint-order:stroke fill markers"/><rect width="1" height="1" x="9" y="6" fill="#dedede" rx="0" ry="0" style="paint-order:stroke fill markers"/><rect width="1" height="1" x="12" y="6" fill="#dedede" rx="0" ry="0" style="paint-order:stroke fill markers"/></svg>