<svg xmlns="http://www.w3.org/2000/svg" width="16" height="16"><path fill="#333" stroke-linecap="square" stroke-width="1.333" d="M12 2v4.176c.314-.113.65-.176 1-.176V3h1v3.176c.373.134.71.34 1 .601V2h-3zM8 5v9h3v-4h-1v3H9V6h1v3c0-.88.39-1.672 1-2.223V5H8zM4 8v6h3V8H4zm1 1h1v4H5V9zm-5 2v3h3v-3H0zm15 .002a3.86 3.86 0 0 1-1 .58V14h1v-2.998zM1 12h1v1H1v-1z" aria-label="юдИ"/><path fill="#dedede" d="M13 7c1.1 0 2 .895 2 2s-.9 2-2 2v1h-1v-2h1c.55 0 1-.448 1-1s-.45-1-1-1-1 .448-1 1h-1c0-1.105.9-2 2-2zm-1 6h1v1h-1z" color="#000" style="-inkscape-stroke:none"/></svg>