<?xml version="1.0" encoding="UTF-8" standalone="no"?>
<svg
   id="svg4153"
   width="22"
   height="22"
   version="1.1"
   viewBox="0 0 22 22"
   xmlns="http://www.w3.org/2000/svg"
   xmlns:svg="http://www.w3.org/2000/svg"
   xmlns:rdf="http://www.w3.org/1999/02/22-rdf-syntax-ns#"
   xmlns:cc="http://creativecommons.org/ns#"
   xmlns:dc="http://purl.org/dc/elements/1.1/">
  <metadata
     id="metadata870">
    <rdf:RDF>
      <cc:Work
         rdf:about="">
        <dc:format>image/svg+xml</dc:format>
        <dc:type
           rdf:resource="http://purl.org/dc/dcmitype/StillImage" />
      </cc:Work>
    </rdf:RDF>
  </metadata>
  <defs
     id="defs4157">
    <style
       id="current-color-scheme"
       type="text/css">.ColorScheme-Text {
        color:#31363b;
      }
      .ColorScheme-Background {
        color:#eff0f1;
      }
      .ColorScheme-Highlight {
        color:#3498db;
      }
      .ColorScheme-ViewText {
        color:#31363b;
      }
      .ColorScheme-ViewBackground {
        color:#fcfcfc;
      }
      .ColorScheme-ViewHover {
        color:#93cee9;
      }
      .ColorScheme-ViewFocus{
        color:#3daee9;
      }
      .ColorScheme-ButtonText {
        color:#31363b;
      }
      .ColorScheme-ButtonBackground {
        color:#eff0f1;
      }
      .ColorScheme-ButtonHover {
        color:#93cee9;
      }
      .ColorScheme-ButtonFocus{
        color:#3daee9;
      }
      .ColorScheme-NegativeText{
        color:#e74c3c;
      }</style>
  </defs>
  <g
     id="network-wired-activated-locked"
     transform="translate(106,-44)">
    <rect
       style="fill:none;fill-opacity:1;stroke:none"
       id="rect13290"
       width="22"
       height="22"
       x="-106"
       y="44" />
    <path
       id="path13292"
       d="m 37,4 c -0.554,0 -1,0.446 -1,1 v 5 c 0,0.554 0.446,1 1,1 h 1 v 2.5 c 0,0.277 0.223,0.5 0.5,0.5 0.277,0 0.5,-0.223 0.5,-0.5 V 11 h 1 c 0.554,0 1,-0.446 1,-1 V 5 C 41,4.446 40.554,4 40,4 Z M 27,5 c -1.108,0 -2,0.892 -2,2 v 8 c 0,1.108 0.892,2 2,2 h 3 v 2 h -1.5 c -0.277,0 -0.5,0.223 -0.5,0.5 0,0.277 0.223,0.5 0.5,0.5 h 8 C 36.777,20 37,19.777 37,19.5 37,19.223 36.777,19 36.5,19 H 36 v -2 h 0.5 C 36.777,17 37,16.777 37,16.5 37,16.223 36.777,16 36.5,16 h -3 -6.5 c -0.554,0 -1,-0.446 -1,-1 V 7 c 0,-0.554 0.446,-1 1,-1 h 4.5 3 C 34.777,6 35,5.777 35,5.5 35,5.223 34.777,5 34.5,5 h -3 z m 10,0 h 3 v 1 h -3 z m 0,2 h 3 v 3 h -3 z m 4,7 c -1.108,0 -2,0.892 -2,2 v 1 h -1 v 3 h 6 v -3 h -1 v -1 c 0,-1.108 -0.892,-2 -2,-2 z m 0,1 c 0.554,0 1,0.446 1,1 v 1 h -2 v -1 c 0,-0.554 0.446,-1 1,-1 z m -10,2 h 2.5 1.5 v 2 h -4 z m 8,1 h 4 v 1 h -4 z"
       transform="translate(-128,44)"
       fill="currentColor"
       class="ColorScheme-Text" />
  </g>
</svg>
