<svg xmlns="http://www.w3.org/2000/svg" width="16" height="16"><path fill="#dedede" d="M8 3c-.528 0-1.044.046-1.553.113l.54.936a10.919 10.919 0 0 1 7.932 2.428.5.5 0 0 0 .317.113.5.5 0 0 0 .5-.5.5.5 0 0 0-.154-.36.5.5 0 0 0-.096-.072C13.433 4.008 10.841 3 8 3zm-2.602.3A12.009 12.009 0 0 0 .514 5.659a.5.5 0 0 0-.096.072.5.5 0 0 0-.154.36.5.5 0 0 0 .5.5.5.5 0 0 0 .318-.113A10.992 10.992 0 0 1 5.92 4.205l-.522-.904zm2.717 2.706L8.71 7.03a7.952 7.952 0 0 1 4.217 1.686.5.5 0 0 0 .32.115.5.5 0 0 0 .5-.5.5.5 0 0 0-.156-.361.5.5 0 0 0-.102-.075 8.92 8.92 0 0 0-5.373-1.89zm-1.12.058a8.953 8.953 0 0 0-4.483 1.832.5.5 0 0 0-.102.075.5.5 0 0 0-.156.361.5.5 0 0 0 .5.5.5.5 0 0 0 .32-.115 7.944 7.944 0 0 1 4.473-1.698l-.553-.955zM8 9c-1.352 0-2.583.469-3.586 1.225a.507.507 0 0 0-.168.384.5.5 0 0 0 .836.37C5.904 10.374 6.902 10 8 10c.488 0 .953.085 1.395.22l-.668-1.158C8.487 9.032 8.248 9 8 9zm2.074.395.953 1.652a.49.49 0 0 0 .227.062.5.5 0 0 0 .5-.5.507.507 0 0 0-.168-.384 6.186 6.186 0 0 0-1.512-.83zM8 12a1 1 0 0 0-1 1 1 1 0 0 0 1 1 1 1 0 0 0 1-1 1 1 0 0 0-1-1z" opacity=".35" style="paint-order:stroke fill markers"/><rect width="1" height="16" x="2.026" y="2.49" fill="#dedede" rx="0" ry="0" transform="rotate(-30)"/></svg>