<svg xmlns="http://www.w3.org/2000/svg" width="16" height="16"><path fill="#dedede" d="M2 1v8c0 2.072 1.575 3.522 2.937 4.469a14.758 14.758 0 0 0 2.688 1.468l.375.125.375-.125s1.33-.544 2.687-1.5C12.421 12.482 14 11.044 14 9V1zm1 1h10v7c0 2.964-5 5-5 5s-5-1.95-5-5z" color="#dedede" font-family="Sans" font-weight="400" overflow="visible" style="text-decoration-line:none;text-indent:0;text-transform:none"/><path fill="#dedede" fill-rule="evenodd" d="M6.587 4.086a.499.499 0 0 0-.354.854L7.293 6l-1.06 1.06a.5.5 0 1 0 .707.707l1.061-1.06 1.061 1.06a.5.5 0 1 0 .707-.707L8.708 6l1.06-1.06a.5.5 0 1 0-.707-.708l-1.06 1.06-1.06-1.06a.498.498 0 0 0-.354-.146z" opacity=".5" paint-order="fill markers stroke"/></svg>