<?xml version="1.0" encoding="UTF-8" standalone="no"?>
<svg
   id="svg4153"
   width="22"
   height="22"
   version="1.1"
   viewBox="0 0 22 22"
   xmlns="http://www.w3.org/2000/svg"
   xmlns:svg="http://www.w3.org/2000/svg"
   xmlns:rdf="http://www.w3.org/1999/02/22-rdf-syntax-ns#"
   xmlns:cc="http://creativecommons.org/ns#"
   xmlns:dc="http://purl.org/dc/elements/1.1/">
  <metadata
     id="metadata870">
    <rdf:RDF>
      <cc:Work
         rdf:about="">
        <dc:format>image/svg+xml</dc:format>
        <dc:type
           rdf:resource="http://purl.org/dc/dcmitype/StillImage" />
      </cc:Work>
    </rdf:RDF>
  </metadata>
  <defs
     id="defs4157">
    <style
       id="current-color-scheme"
       type="text/css">.ColorScheme-Text {
        color:#31363b;
      }
      .ColorScheme-Background {
        color:#eff0f1;
      }
      .ColorScheme-Highlight {
        color:#3498db;
      }
      .ColorScheme-ViewText {
        color:#31363b;
      }
      .ColorScheme-ViewBackground {
        color:#fcfcfc;
      }
      .ColorScheme-ViewHover {
        color:#93cee9;
      }
      .ColorScheme-ViewFocus{
        color:#3daee9;
      }
      .ColorScheme-ButtonText {
        color:#31363b;
      }
      .ColorScheme-ButtonBackground {
        color:#eff0f1;
      }
      .ColorScheme-ButtonHover {
        color:#93cee9;
      }
      .ColorScheme-ButtonFocus{
        color:#3daee9;
      }
      .ColorScheme-NegativeText{
        color:#e74c3c;
      }</style>
  </defs>
  <g
     id="network-unavailable"
     transform="translate(124,-24)">
    <rect
       style="fill:none;fill-opacity:1;stroke:none"
       id="rect18612"
       width="22"
       height="22"
       x="-124"
       y="24" />
    <path
       id="path18614"
       d="m -29,4 c -0.554,0 -1,0.446 -1,1 v 5 c 0,0.554 0.446,1 1,1 h 1 v 1.5 c 0,0.277 0.223,0.5 0.5,0.5 0.277,0 0.5,-0.223 0.5,-0.5 V 11 h 1 c 0.554,0 1,-0.446 1,-1 V 5 c 0,-0.554 -0.446,-1 -1,-1 z m -10,1 c -1.108,0 -2,0.892 -2,2 v 8 c 0,1.108 0.892,2 2,2 h 3 v 2 h -1.5 c -0.277,0 -0.5,0.223 -0.5,0.5 0,0.277 0.223,0.5 0.5,0.5 h 8 c 0.277,0 0.5,-0.223 0.5,-0.5 0,-0.277 -0.223,-0.5 -0.5,-0.5 H -30 v -2 h 0.5 c 0.277,0 0.5,-0.223 0.5,-0.5 0,-0.277 -0.223,-0.5 -0.5,-0.5 h -3 -6.5 c -0.554,0 -1,-0.446 -1,-1 V 7 c 0,-0.554 0.446,-1 1,-1 h 4.5 3 C -31.223,6 -31,5.777 -31,5.5 -31,5.223 -31.223,5 -31.5,5 h -3 z m 10,0 h 3 v 1 h -3 z m 0,2 h 3 v 3 h -1.5 -1.5 z m -6,10 h 2.5 1.5 v 2 h -4 z"
       transform="translate(-80,24)"
       fill="currentColor"
       class="ColorScheme-Text" />
    <path
       id="path18701"
       d="M -107.15155,38 -108,38.848437 -105.84844,41 -108,43.151563 -107.15155,44 -104.99999,41.848436 -102.84845,44 -102,43.151563 -104.15156,41 -102,38.848437 -102.84845,38 l -2.15154,2.151563 z"
       class="ColorScheme-NegativeText"
       style="color:#e74c3c;fill:#ff3232;fill-opacity:1;stroke:none;stroke-width:1.2" />
  </g>
</svg>
