<svg xmlns="http://www.w3.org/2000/svg" width="16" height="16"><path fill="#dedede" d="M1 2c-.554 0-1 .446-1 1v4c0 .554.446 1 1 1h1v6h1v-3h3.023a5.5 5.5 0 0 1 .186-1H3V8h1c.554 0 1-.446 1-1V3h10v4.26a5.5 5.5 0 0 1 1 1.08V3c0-.554-.446-1-1-1H1zm0 1h3v1H1V3zm0 2h1v1h1V5h1v2H1V5zm4 8v1h1.602a5.5 5.5 0 0 1-.393-1H5z" style="paint-order:stroke fill markers"/><path fill="#d35f5f" d="M11.5 7A4.5 4.5 0 0 0 7 11.5a4.5 4.5 0 0 0 4.5 4.5 4.5 4.5 0 0 0 4.5-4.5A4.5 4.5 0 0 0 11.5 7zm0 1a3.5 3.5 0 0 1 3.5 3.5 3.5 3.5 0 0 1-3.5 3.5A3.5 3.5 0 0 1 8 11.5 3.5 3.5 0 0 1 11.5 8z" style="paint-order:stroke fill markers"/><rect width="1" height="3" x="11" y="9" fill="#d35f5f" rx="0" ry="0" style="paint-order:stroke fill markers"/><path fill="#d35f5f" d="M11 13h1v1h-1z" style="paint-order:stroke fill markers"/></svg>