<svg xmlns="http://www.w3.org/2000/svg" width="16" height="16.004"><path fill="#333" stroke-linecap="square" stroke-width="1.333" d="M12 2v3.178c.32-.117.66-.178 1-.178.402 0 .804.087 1.172.25.303.13.584.31.828.533V2zM8 5v9h1V8h1c0-.399.08-.797.236-1.164l.004-.01.004-.008A3.107 3.107 0 0 1 11 5.773V5zm6.39 1.57c.007.007.01.017.016.024.007.007.017.008.024.015zM4 8v6h3V8zm-4 3v3h3v-3z" aria-label="юдИ"/><path fill="#dedede" d="M13 6c.27 0 .529.055.773.164.245.104.456.247.633.43.183.177.326.388.43.633.11.244.164.502.164.773v1h1v5h-6V9h1V8a1.955 1.955 0 0 1 .586-1.406A2.033 2.033 0 0 1 13 6zm-1 3h2V8a.95.95 0 0 0-.078-.383.922.922 0 0 0-.219-.32.923.923 0 0 0-.32-.219A.95.95 0 0 0 13 7c-.14 0-.27.026-.39.078a1.027 1.027 0 0 0-.532.531A.97.97 0 0 0 12 8zm3 1h-4v3h4z" color="#000" style="font-feature-settings:normal;font-variant-alternates:normal;font-variant-caps:normal;font-variant-east-asian:normal;font-variant-ligatures:normal;font-variant-numeric:normal;font-variant-position:normal;font-variation-settings:normal;inline-size:0;isolation:auto;mix-blend-mode:normal;paint-order:stroke fill markers;shape-margin:0;shape-padding:0;text-decoration-color:#000;text-decoration-line:none;text-decoration-style:solid;text-indent:0;text-orientation:mixed;text-transform:none;white-space:normal"/></svg>