<svg xmlns="http://www.w3.org/2000/svg" width="16" height="16.001"><path fill="#dedede" d="M12 2v7.879l1 1V3h1v8.879l1 1V1.999h-3zM8 5v.879l1 1V6h1v1.879l1 1V5H8zM4 8v6h3V9.121L5.879 8H4zm1 1h1v4H5V9zm3 1.121V14h3v-.879l-1-1V13H9v-1.879l-1-1zM0 11v3h3v-3H0zm1 1h1v1H1v-1z"/><rect width="20" height="1" x="1.314" y="-.5" fill="#dedede" rx="0" ry="0" style="paint-order:markers stroke fill" transform="rotate(45)"/><path fill="#dedede" d="M1.314-.5h20v1h-20z" color="#000" style="-inkscape-stroke:none;paint-order:markers stroke fill" transform="rotate(45)"/></svg>