<svg xmlns="http://www.w3.org/2000/svg" width="16" height="16"><defs><style id="current-color-scheme" type="text/css">.ColorScheme-Text{color:#dedede}</style></defs><path fill="#dedede" d="M13 6c.27 0 .529.055.773.164.245.104.456.247.633.43.183.177.326.388.43.633.11.244.164.502.164.773v1h1v5h-6V9h1V8a1.955 1.955 0 0 1 .586-1.406A2.033 2.033 0 0 1 13 6zm-1 3h2V8a.95.95 0 0 0-.078-.383.922.922 0 0 0-.219-.32.923.923 0 0 0-.32-.219A.95.95 0 0 0 13 7c-.14 0-.27.026-.39.078a1.027 1.027 0 0 0-.532.531A.97.97 0 0 0 12 8zm3 1h-4v3h4z" color="#000" style="font-feature-settings:normal;font-variant-alternates:normal;font-variant-caps:normal;font-variant-east-asian:normal;font-variant-ligatures:normal;font-variant-numeric:normal;font-variant-position:normal;font-variation-settings:normal;inline-size:0;isolation:auto;mix-blend-mode:normal;paint-order:stroke fill markers;shape-margin:0;shape-padding:0;text-decoration-color:#000;text-decoration-line:none;text-decoration-style:solid;text-indent:0;text-orientation:mixed;text-transform:none;white-space:normal"/><path fill="#dedede" stroke-linecap="round" stroke-linejoin="round" stroke-width="10" d="M1 2c-.554 0-1 .446-1 1v4c0 .554.446 1 1 1h1v6h1v-3h5v2H5v1h4v-4H3V8h1c.554 0 1-.446 1-1V3h10v2h1V3c0-.554-.446-1-1-1H1zm0 1h3v1H1V3zm0 2h1v1h1V5h1v2H1V5z" style="paint-order:stroke fill markers"/></svg>