<svg xmlns="http://www.w3.org/2000/svg" width="16" height="16"><g fill="#dedede" opacity=".35"><path fill-rule="evenodd" d="M8 3C5.16 3 2.568 4.007.514 5.658a.5.5 0 0 0-.096.072.5.5 0 0 0-.154.36.5.5 0 0 0 .5.5.5.5 0 0 0 .318-.113A10.919 10.919 0 0 1 8 4c2.628 0 5.027.938 6.918 2.477a.5.5 0 0 0 .318.113.5.5 0 0 0 .5-.5.5.5 0 0 0-.154-.36.5.5 0 0 0-.096-.072C13.433 4.008 10.841 3 8 3z" style="paint-order:stroke fill markers"/><path d="M8 9c-1.353 0-2.583.469-3.586 1.225a.507.507 0 0 0-.168.384.5.5 0 0 0 .836.37C5.904 10.375 6.902 10 8 10s2.096.375 2.918.979a.5.5 0 0 0 .836-.37.507.507 0 0 0-.168-.384C10.583 9.469 9.353 9 8 9z"/><path fill-rule="evenodd" d="M8 6a8.918 8.918 0 0 0-5.488 1.897.5.5 0 0 0-.102.074.5.5 0 0 0-.156.361.5.5 0 0 0 .5.5.5.5 0 0 0 .32-.115A7.936 7.936 0 0 1 8 7c1.863 0 3.567.648 4.926 1.717a.5.5 0 0 0 .32.115.5.5 0 0 0 .5-.5.5.5 0 0 0-.156-.361.5.5 0 0 0-.102-.075A8.919 8.919 0 0 0 8 6z" style="paint-order:stroke fill markers"/><circle cx="8" cy="13" r="1" fill-rule="evenodd" style="paint-order:stroke fill markers"/></g><rect width="16" height="2" y="7" fill="#dedede" rx="1" ry="1" style="paint-order:stroke fill markers"/></svg>