<svg xmlns="http://www.w3.org/2000/svg" width="16" height="16" version="1.0"><path fill="#dedede" d="M8 1a1 1 0 0 0-.994 1.1 4.988 4.988 0 0 0-1.938.847l.721.721A4 4 0 0 1 8 3a4 4 0 0 1 4 4v2.879l1 1V7a4.987 4.987 0 0 0-4.006-4.9A1 1 0 0 0 8 1zM3.266 5.387A4.988 4.988 0 0 0 3 7v4.5l-2 2v.5h10.879l-1-1H3l1-1.078V7a4 4 0 0 1 .08-.799l-.814-.814zM6.269 15A2 2 0 0 0 8 16a2 2 0 0 0 1.728-1H6.27z"/><rect width="20" height="1" x="1.314" y="-.5" fill="#dedede" rx=".5" ry=".5" transform="rotate(45)"/></svg>