<?xml version="1.0" encoding="UTF-8" standalone="no"?>
<svg
   id="svg"
   version="1.1"
   viewBox="0 0 22 22"
   width="22"
   height="22"
   xmlns="http://www.w3.org/2000/svg"
   xmlns:svg="http://www.w3.org/2000/svg"
   xmlns:rdf="http://www.w3.org/1999/02/22-rdf-syntax-ns#"
   xmlns:cc="http://creativecommons.org/ns#"
   xmlns:dc="http://purl.org/dc/elements/1.1/">
  <metadata
     id="metadata71">
    <rdf:RDF>
      <cc:Work
         rdf:about="">
        <dc:format>image/svg+xml</dc:format>
        <dc:type
           rdf:resource="http://purl.org/dc/dcmitype/StillImage" />
      </cc:Work>
    </rdf:RDF>
  </metadata>
  <defs
     id="defs3">
    <style
       id="current-color-scheme"
       type="text/css">.ColorScheme-Text {
        color:#31363b;
      }
      .ColorScheme-Background {
        color:#eff0f1;
      }
      .ColorScheme-Highlight {
        color:#3daee9;
      }
      .ColorScheme-ViewText {
        color:#31363b;
      }
      .ColorScheme-ViewBackground {
        color:#fcfcfc;
      }
      .ColorScheme-ViewHover {
        color:#93cee9;
      }
      .ColorScheme-ViewFocus{
        color:#3daee9;
      }
      .ColorScheme-ButtonText {
        color:#31363b;
      }
      .ColorScheme-ButtonBackground {
        color:#eff0f1;
      }
      .ColorScheme-ButtonHover {
        color:#93cee9;
      }
      .ColorScheme-ButtonFocus{
        color:#3daee9;
      }</style>
  </defs>
  <g
     id="22-22-notification-inactive"
     transform="translate(-3,65)">
    <path
       d="m 13.994199,-61 c 3.14894,0 5.74394,2.33488 5.98444,5.3554 l 0.0134,0.22222 0.0045,0.22452 -10e-4,3.59586 0.9254,2.2222 c 0.0226,0.0541 0.0403,0.11 0.053,0.1669 l 0.0152,0.0862 0.0087,0.1313 c 0,0.448 -0.2965,0.8341 -0.7492,0.9631 l -0.1163,0.0268 -0.1345,0.0101 -3.5017,-6e-4 -0.005,0.1613 c -0.0851,1.3037 -1.1694,2.3347 -2.4946,2.3347 -1.32547,0 -2.41002,-1.0315 -2.49467,-2.3356 l -0.0057,-0.1604 -3.5007104,6e-4 c -0.08795,0 -0.17533,-0.0116 -0.25989,-0.0344 l -0.12446,-0.0425 c -0.41078,-0.171 -0.652749,-0.5885 -0.60235,-1.052 l 0.02109,-0.1274 0.04242,-0.1281 0.9233,-2.2192 0.0011,-3.60819 0.0043,-0.22457 C 8.1235886,-58.54885 10.767609,-61 13.994229,-61 Z m 1.50194,13.004 h -2.99998 l 0.0074,0.1414 c 0.06855,0.7127 0.63578,1.2796 1.34859,1.3477 l 0.14444,0.007 c 0.7797,0 1.4205,-0.5949 1.4931,-1.3555 z M 13.994199,-60 c -2.62255,0 -4.7704904,1.92372 -4.9805104,4.38498 l -0.01322,0.21225 -0.0039,0.20491 V -51.5 l -0.03841,0.1922 -0.96271,2.3124 11.9577004,0.002 0.0453,-0.002 -0.9635,-2.3123 -0.0384,-0.1922 10e-5,-3.68759 -0.0041,-0.2041 c -0.1051,-2.57341 -2.3013,-4.60831 -4.99834,-4.60831 z"
       fill="currentColor"
       id="path869"
       class="ColorScheme-Text" />
    <rect
       style="fill:none;stroke-width:2.2;stroke-linecap:round;stroke-linejoin:round"
       id="rect917"
       width="22"
       height="22"
       x="3"
       y="-65" />
  </g>
</svg>
