<svg xmlns="http://www.w3.org/2000/svg" width="16" height="16.01"><path fill="#ef2929" d="M12.5 9a3.5 3.5 0 1 0 0 7 3.5 3.5 0 0 0 0-7zm-.5 1h1v3h-1zm0 4h1v1h-1z" class="error"/><path fill="#dedede" stroke-linecap="round" stroke-linejoin="round" stroke-width="2" d="M4 0v6H1c-.135 0-.266.026-.39.078a1.03 1.03 0 0 0-.32.219.98.98 0 0 0-.212.32A.95.95 0 0 0 0 7v7h4v2h5.686a4.5 4.5 0 0 1-.922-1H5v-4h3.268a4.5 4.5 0 0 1 .496-1H4v3H1V7h14v1.758a4.5 4.5 0 0 1 1 .914V7a.95.95 0 0 0-.078-.383.923.923 0 0 0-.219-.32.922.922 0 0 0-.32-.219A.95.95 0 0 0 15 6h-3V0H4zm1 1h6v5H5V1zM2.5 8c-.135 0-.253.05-.352.148S2 8.365 2 8.5s.05.253.148.352S2.365 9 2.5 9s.253-.05.352-.148S3 8.635 3 8.5s-.05-.253-.148-.352S2.635 8 2.5 8z" aria-label="" style="paint-order:stroke fill markers"/></svg>