<svg xmlns="http://www.w3.org/2000/svg" width="16" height="16.007"><path fill="#00a6ff" d="M7 2v5H6l2 2 2-2H9V2z"/><path fill="#dedede" stroke-linecap="round" stroke-linejoin="round" stroke-width="2" d="M4 0v6H1c-.135 0-.266.026-.39.078a1.03 1.03 0 0 0-.32.219.98.98 0 0 0-.212.32A.95.95 0 0 0 0 7v7h4v2h8v-2h4V7a.95.95 0 0 0-.078-.383.923.923 0 0 0-.219-.32.922.922 0 0 0-.32-.219A.95.95 0 0 0 15 6h-3V0H4zm1 1h6v6h4v6h-3v-3H4v3H1V7h4V1zM2.5 8c-.135 0-.253.05-.352.148S2 8.365 2 8.5s.05.253.148.352S2.365 9 2.5 9s.253-.05.352-.148S3 8.635 3 8.5s-.05-.253-.148-.352S2.635 8 2.5 8zM5 11h6v4H5v-4z" aria-label="" style="paint-order:stroke fill markers"/></svg>