<svg xmlns="http://www.w3.org/2000/svg" width="16" height="16.007"><path fill="#dedede" stroke-linecap="round" stroke-linejoin="round" stroke-width="2" d="M4 0v6H1c-.135 0-.266.026-.39.078a1.03 1.03 0 0 0-.32.219.98.98 0 0 0-.212.32A.95.95 0 0 0 0 7v7h4v2h4.102c-.112-.32-.12-.673.015-1H5v-4h5.373l.568-1H4v3H1V7h14v4.658l1 1.764V7a.95.95 0 0 0-.078-.383.923.923 0 0 0-.219-.32.922.922 0 0 0-.32-.219A.95.95 0 0 0 15 6h-3V0H4zm1 1h6v5H5V1zM2.5 8c-.135 0-.253.05-.352.148S2 8.365 2 8.5s.05.253.148.352S2.365 9 2.5 9s.253-.05.352-.148S3 8.635 3 8.5s-.05-.253-.148-.352S2.635 8 2.5 8zm8.844 5.344-.344.605V14a1 1 0 0 1 .5-.5 1 1 0 0 1-.156-.156zm2.312 0a1 1 0 0 1-.156.156 1 1 0 0 1 .5.5h.03l-.374-.656z" aria-label="" style="paint-order:stroke fill markers"/><path fill="#f9c440" d="M12.48 9.728a.44.44 0 0 0-.361.22l-3.06 5.397a.437.437 0 0 0 .378.655h6.125a.437.437 0 0 0 .379-.655l-3.06-5.396a.439.439 0 0 0-.401-.22zM12 11h1v2h-1zm0 3h1v1h-1z" color="#000" style="-inkscape-stroke:none"/></svg>