<svg xmlns="http://www.w3.org/2000/svg" width="16" height="16"><g fill="#dedede" color="#000" transform="translate(-773 195)"><rect width="1" height="5" x="780.5" y="-195" overflow="visible" rx=".5" ry=".5" style="marker:none"/><rect width="1" height="5" x="186.5" y="773" opacity=".578" overflow="visible" rx=".5" ry=".5" style="marker:none" transform="rotate(-90)"/><rect width="1" height="5" x="-781.5" y="179" opacity=".335" overflow="visible" rx=".5" ry=".5" style="marker:none" transform="scale(-1)"/><rect width="1" height="5" x="-187.5" y="-789" opacity=".19" overflow="visible" rx=".5" ry=".5" style="marker:none" transform="rotate(90)"/><rect width="1" height="5" x="769.366" y="220.553" opacity=".833" overflow="visible" rx=".5" ry=".5" style="marker:none" transform="rotate(-30)"/><rect width="1" height="5" x="551.947" y="574.866" opacity=".694" overflow="visible" rx=".5" ry=".5" style="marker:none" transform="rotate(-60)"/><rect width="1" height="5" x="-229.053" y="761.866" opacity=".482" overflow="visible" rx=".5" ry=".5" style="marker:none" transform="rotate(-120)"/><rect width="1" height="5" x="-583.366" y="544.447" opacity=".402" overflow="visible" rx=".5" ry=".5" style="marker:none" transform="rotate(-150)"/><rect width="1" height="5" x="-770.366" y="-236.553" opacity=".28" overflow="visible" rx=".5" ry=".5" style="marker:none" transform="rotate(150)"/><rect width="1" height="5" x="-552.947" y="-590.866" opacity=".23" overflow="visible" rx=".5" ry=".5" style="marker:none" transform="rotate(120)"/><rect width="1" height="5" x="228.053" y="-777.866" opacity=".16" overflow="visible" rx=".5" ry=".5" style="marker:none" transform="rotate(60)"/><rect width="1" height="5" x="582.366" y="-560.447" opacity=".13" overflow="visible" rx=".5" ry=".5" style="marker:none" transform="rotate(30)"/></g></svg>