<svg xmlns="http://www.w3.org/2000/svg" width="16" height="16"><path fill="#dedede" d="M7 4v2.102A5 5 0 0 0 3 11a5 5 0 0 0 5 5 5 5 0 0 0 5-5 5 5 0 0 0-4-4.898V4H7z" opacity=".3"/><path fill="#dedede" d="M8 0C6.892 0 6 .892 6 2v4.418A5 5 0 0 0 3 11a5 5 0 0 0 5 5 5 5 0 0 0 5-5 5 5 0 0 0-3-4.582V2c0-1.108-.892-2-2-2zm0 1c.554 0 1 .446 1 1V7.127a4 4 0 0 1 .785.295 4 4 0 0 1 .002 0 4 4 0 0 1 .19.101A4 4 0 0 1 12 11a4 4 0 0 1-4 4 4 4 0 0 1-4-4 4 4 0 0 1 2.625-3.754 4 4 0 0 1 .01-.004 4 4 0 0 1 .148-.05 4 4 0 0 1 .01-.004 4 4 0 0 1 .08-.024 4 4 0 0 1 .082-.023A4 4 0 0 1 7 7.129V2c0-.554.446-1 1-1z"/></svg>