<?xml version="1.0" encoding="UTF-8" standalone="no"?>
<svg
   id="svg2"
   version="1.1"
   viewBox="0 0 22 22"
   width="22"
   height="22"
   xmlns="http://www.w3.org/2000/svg"
   xmlns:svg="http://www.w3.org/2000/svg"
   xmlns:rdf="http://www.w3.org/1999/02/22-rdf-syntax-ns#"
   xmlns:cc="http://creativecommons.org/ns#"
   xmlns:dc="http://purl.org/dc/elements/1.1/">
  <metadata
     id="metadata96">
    <rdf:RDF>
      <cc:Work
         rdf:about="">
        <dc:format>image/svg+xml</dc:format>
        <dc:type
           rdf:resource="http://purl.org/dc/dcmitype/StillImage" />
      </cc:Work>
    </rdf:RDF>
  </metadata>
  <defs
     id="defs94" />
  <style
     id="current-color-scheme"
     type="text/css">
        .ColorScheme-Text {
            color:#232629;
        }
    </style>
  <g
     id="22-22-system-switch-user"
     transform="translate(0,-10)">
    <path
       id="path890"
       class="ColorScheme-Text"
       d="m 11.397745,12.388 c -1.989467,0 -3.2205625,1.263525 -3.397744,2.799 v 1.018 L 5.8489691,14.684817 5.0000012,15.347854 7.5469058,17.336963 8.3958735,18 9.2448414,17.336963 11.791746,15.347854 10.942778,14.684817 9.000001,16.205 v -1.018 c 0,-1.035581 1.06462,-1.798637 2.397544,-1.799 1.332927,3.63e-4 2.621,0.763585 2.602456,1.799 V 16 h 1 v -0.813327 c 0,-1.545664 -1.612785,-2.798673 -3.602253,-2.798673 z M 14.000001,17 c -1.10457,0 -2,0.895431 -2,2 0,1.10457 0.89543,2 2,2 1.104569,0 2,-0.89543 2,-2 0,-1.104569 -0.895431,-2 -2,-2 z M 8.0000001,19 A 1.999999,2 0 0 0 6,21 1.999999,2 0 0 0 8.0000001,23 1.999999,2 0 0 0 10,21 1.999999,2 0 0 0 8.0000001,19 Z m 6.0156249,3 c -1.518796,0 -2.764244,1.163057 -2.978516,2.671875 C 11.619978,25.334017 12,26 12,27 h 4.429688 c 0.393221,-0.54062 0.60674,-1.198565 0.607421,-1.875 C 17.03711,23.39911 15.684869,22 14.015625,22 Z m -0.04883,1 c 1.102577,0 1.996096,0.839466 1.996094,1.875 -4.5e-4,0.405861 -0.14066,0.800628 -0.400391,1.125 H 12.742186 C 12.656541,25.461489 12.384997,24.980111 12,24.601562 12.141532,23.696272 12.963596,23 13.966797,23 Z M 8,24 A 2.9999989,3.1249983 0 0 0 5,27.125 2.9999989,3.1249983 0 0 0 5.605469,29 h 4.792969 A 2.9999989,3.1249983 0 0 0 11,27.125 2.9999989,3.1249983 0 0 0 8,24 Z m 0,1 A 2.0000009,2.2500008 0 0 1 10,27.25 2.0000009,2.2500008 0 0 1 9.882812,28 H 6.117188 A 2.0000009,2.2500008 0 0 1 6,27.25 2.0000009,2.2500008 0 0 1 8,25 Z"
       fill="currentColor" />
    <path
       id="path79"
       d="M 0,10 V 32 H 22 V 10 Z"
       fill="none" />
  </g>
</svg>
