<?xml version="1.0" encoding="UTF-8" standalone="no"?>
<svg
   id="svg2"
   version="1.1"
   viewBox="0 0 21.999998 22"
   width="21.999998"
   height="22"
   xmlns="http://www.w3.org/2000/svg"
   xmlns:svg="http://www.w3.org/2000/svg"
   xmlns:rdf="http://www.w3.org/1999/02/22-rdf-syntax-ns#"
   xmlns:cc="http://creativecommons.org/ns#"
   xmlns:dc="http://purl.org/dc/elements/1.1/">
  <metadata
     id="metadata96">
    <rdf:RDF>
      <cc:Work
         rdf:about="">
        <dc:format>image/svg+xml</dc:format>
        <dc:type
           rdf:resource="http://purl.org/dc/dcmitype/StillImage" />
      </cc:Work>
    </rdf:RDF>
  </metadata>
  <defs
     id="defs94" />
  <style
     id="current-color-scheme"
     type="text/css">
        .ColorScheme-Text {
            color:#232629;
        }
    </style>
  <g
     id="22-22-system-suspend"
     transform="translate(0,-10)">
    <path
       id="path69"
       d="M 0,10 V 32 H 21.999999 V 10 Z"
       fill="none" />
    <g
       id="g56"
       class="ColorScheme-Text"
       fill="currentColor">
      <path
         id="path1188"
         transform="translate(0,-96)"
         d="M 7.046875,110.04883 A 7.9949791,8 0 0 0 3,117 a 7.9949791,8 0 0 0 7.994141,8 7.9949791,8 0 0 0 6.9375,-4.04297 7.9949791,8 0 0 0 0.0098,-0.006 l -0.738281,-0.73828 a 6.9956067,7 0 0 1 -0.0039,0.006 A 6.9956067,7 0 0 1 13.992188,121 6.9956067,7 0 0 1 6.9980469,114 6.9956067,7 0 0 1 7.7832031,110.78711 Z m -0.7441406,1.77148 A 7.9949791,8 0 0 0 5.9980469,114 a 7.9949791,8 0 0 0 7.9941411,8 7.9949791,8 0 0 0 2.1875,-0.3125 A 6.9956067,7 0 0 1 10.994141,124 6.9956067,7 0 0 1 4,117 6.9956067,7 0 0 1 6.3027344,111.82031 Z" />
      <g
         id="g54">
        <path
           id="rect887-3"
           d="m 10,16 v 1 h 2.292969 l -2,2 L 10,19.29297 V 20 h 4 v -1 h -2.292969 l 2,-2 L 14,16.70703 V 16 h -0.707031 z" />
        <path
           id="rect887-6"
           d="m 15,13 v 1 h 2.292969 l -2,2 L 15,16.29297 V 17 h 4 v -1 h -2.292969 l 2,-2 L 19,13.70703 V 13 h -0.707031 z" />
      </g>
    </g>
  </g>
</svg>
