<svg xmlns="http://www.w3.org/2000/svg" width="16" height="16"><path fill="#dedede" d="M3 0c-.554 0-1 .446-1 1s.446 1 1 1v1a4.979 4.979 0 0 0 3 4.572v.856c-1.765.77-3 2.517-3 4.572v1c-.554 0-1 .446-1 1s.446 1 1 1h10c.554 0 1-.446 1-1s-.446-1-1-1v-1a4.979 4.979 0 0 0-3-4.572v-.856c1.765-.77 3-2.517 3-4.572V2c.554 0 1-.446 1-1s-.446-1-1-1H3zm1 2h8v1a3.981 3.981 0 0 1-3 3.861V9.14c1.726.443 3 1.993 3 3.861v1h-2v-1a2 2 0 0 0-2-2 2 2 0 0 0-.049 0A2 2 0 0 0 6 13a2 2 0 0 0 0 .049V14H4v-1a3.981 3.981 0 0 1 3-3.861V6.86A3.981 3.981 0 0 1 4 3V2zm1.174 2A3 3 0 0 0 8 6a3 3 0 0 0 2.828-2H5.174z"/></svg>