<?xml version="1.0" encoding="UTF-8" standalone="no"?>
<svg
   width="22"
   height="22"
   version="1.1"
   viewBox="0 0 22 22"
   id="svg89"
   xmlns="http://www.w3.org/2000/svg"
   xmlns:svg="http://www.w3.org/2000/svg"
   xmlns:rdf="http://www.w3.org/1999/02/22-rdf-syntax-ns#"
   xmlns:cc="http://creativecommons.org/ns#"
   xmlns:dc="http://purl.org/dc/elements/1.1/">
  <metadata
     id="metadata93">
    <rdf:RDF>
      <cc:Work
         rdf:about="">
        <dc:format>image/svg+xml</dc:format>
        <dc:type
           rdf:resource="http://purl.org/dc/dcmitype/StillImage" />
        <dc:title />
      </cc:Work>
    </rdf:RDF>
  </metadata>
  <defs
     id="defs5">
    <style
       id="current-color-scheme"
       type="text/css">.ColorScheme-Text {
        color:#31363b;
      }
      .ColorScheme-Background {
        color:#eff0f1;
      }
      .ColorScheme-Highlight {
        color:#3daee9;
      }
      .ColorScheme-ViewText {
        color:#31363b;
      }
      .ColorScheme-ViewBackground {
        color:#fcfcfc;
      }
      .ColorScheme-ViewHover {
        color:#93cee9;
      }
      .ColorScheme-ViewFocus{
        color:#3daee9;
      }
      .ColorScheme-ButtonText {
        color:#31363b;
      }
      .ColorScheme-ButtonBackground {
        color:#eff0f1;
      }
      .ColorScheme-ButtonHover {
        color:#93cee9;
      }
      .ColorScheme-ButtonFocus{
        color:#3daee9;
      }
      .ColorScheme-NegativeText {
        color:#da4453;
      }</style>
    <style
       type="text/css"
       id="style3" />
  </defs>
  <g
     id="22-22-touchpad_enabled"
     transform="translate(22,-10)">
    <path
       d="M -22,10 V 32 H 0 V 10 Z"
       fill="none"
       id="path26" />
    <g
       transform="translate(32,27)"
       fill="currentColor"
       class="ColorScheme-Text"
       id="g40">
      <path
         d="m -51,-14 c -0.554,0 -1,0.446 -1,1 v 10 c 0,0.554 0.446,1 1,1 h 7 v -1 h -7 v -10 h 14 v 7 h 1 v -7 c 0,-0.554 -0.446,-1 -1,-1 z"
         id="path28" />
      <path
         d="m -44,-5 v 3 c 0,2.216 1.784,4 4,4 h 2 c 2.216,0 4,-1.784 4,-4 v -3 h -1 v 3 c 0,1.662 -1.338,3 -3,3 h -2 c -1.662,0 -3,-1.338 -3,-3 v -3 z"
         id="path30" />
      <path
         d="m -40.5,-11 c -0.831,0 -1.5,0.669 -1.5,1.5 V -5 h 1 v -5 h 1 v 5 h 1 v -4.5 c 0,-0.831 -0.669,-1.5 -1.5,-1.5 z"
         id="path32" />
      <rect
         x="-44"
         y="-6"
         width="2"
         height="1"
         ry="0"
         id="rect34" />
      <rect
         x="-42"
         y="-5"
         width="1"
         height="2"
         ry="0"
         id="rect36" />
      <rect
         x="-39"
         y="-6"
         width="5"
         height="1"
         ry="0"
         id="rect38" />
    </g>
  </g>
</svg>
