<?xml version="1.0" encoding="UTF-8" standalone="no"?>
<svg
   id="svg4153"
   version="1.1"
   viewBox="0 0 22 22"
   width="22"
   height="22"
   xmlns="http://www.w3.org/2000/svg"
   xmlns:svg="http://www.w3.org/2000/svg">
  <defs
     id="defs62" />
  <style
     id="current-color-scheme"
     type="text/css">
        .ColorScheme-Text {
            color:#232629;
        }
        .ColorScheme-Background {
            color:#eff0f1;
        }
    </style>
  <g
     id="22-22-user-desktop">
    <rect
       id="rect853"
       width="22"
       height="22"
       x="0"
       y="0"
       style="fill:none" />
    <path
       id="path855"
       class="ColorScheme-Text"
       d="m -282,4 c -1.662,0 -3,1.338 -3,3 v 8 c 0,1.662 1.338,3 3,3 h 12 c 1.662,0 3,-1.338 3,-3 V 7 c 0,-1.662 -1.338,-3 -3,-3 z m 0,1 h 12 c 1.108,0 2,0.892 2,2 v 8 c 0,1.108 -0.892,2 -2,2 h -12 c -1.108,0 -2,-0.892 -2,-2 V 7 c 0,-1.108 0.892,-2 2,-2 z"
       transform="translate(287)"
       fill="currentColor" />
    <rect
       id="rect857"
       width="10"
       height="1"
       x="6"
       y="14"
       rx="0.5"
       ry="0.5"
       class="ColorScheme-Text"
       fill="currentColor" />
  </g>
</svg>
