<?xml version="1.0" encoding="UTF-8" standalone="no"?>
<svg
   version="1.1"
   id="svg2"
   viewBox="0 0 22 22"
   width="22"
   height="22"
   xmlns="http://www.w3.org/2000/svg"
   xmlns:svg="http://www.w3.org/2000/svg"
   xmlns:rdf="http://www.w3.org/1999/02/22-rdf-syntax-ns#"
   xmlns:cc="http://creativecommons.org/ns#"
   xmlns:dc="http://purl.org/dc/elements/1.1/">
  <metadata
     id="metadata12">
    <rdf:RDF>
      <cc:Work
         rdf:about="">
        <dc:format>image/svg+xml</dc:format>
        <dc:type
           rdf:resource="http://purl.org/dc/dcmitype/StillImage" />
        <dc:title />
      </cc:Work>
    </rdf:RDF>
  </metadata>
  <defs
     id="defs3051">
    <style
       type="text/css"
       id="current-color-scheme">
      .ColorScheme-Text {
        color:#31363b;
      }
      </style>
  </defs>
  <g
     transform="translate(0,-10)"
     id="22-22-video-card-inactive">
    <path
       id="path7"
       style="opacity:1;fill:none"
       d="M 0,10 V 32 H 22 V 10 Z" />
    <path
       id="path10"
       d="m 2,12 v 18 h 1 v -3 h 4 v 1 h 8 v -1 h 1 V 26 H 3 V 15 h 16 v 8 h 1 V 14 H 3 v -2 z m 10.5,4 A 3.5,3.5 0 0 0 9.3417969,18 H 6 v 7 h 7 V 22.958984 A 3.5,3.5 0 0 0 16,19.5 3.5,3.5 0 0 0 12.5,16 Z m -0.06445,1 A 2.5,2.5 0 0 1 12.5,17 2.5,2.5 0 0 1 15,19.5 2.5,2.5 0 0 1 13,21.945312 V 18 h -2.496094 a 2.5,2.5 0 0 1 1.931641,-1 z M 7,19 H 9.0390625 A 3.5,3.5 0 0 0 9,19.5 3.5,3.5 0 0 0 12,22.960938 V 24 H 7 Z m 3.050781,0 H 12 v 2.949219 A 2.5,2.5 0 0 1 10,19.5 2.5,2.5 0 0 1 10.050781,19 Z"
       style="fill:currentColor;fill-opacity:1;stroke:none"
       class="ColorScheme-Text" />
    <path
       id="path12"
       d="M 18.767578,24.013672 C 17.792964,24.126694 17.044251,24.930009 17,25.910156 c -6.73e-4,0.02994 -6.73e-4,0.0599 0,0.08984 h 1 C 17.999477,25.49265 18.378963,25.06531 18.882812,25.005855 18.920882,24.996559 18.960942,24.9967 19,25 c 0.507347,-5.23e-4 0.934687,0.394585 0.994141,0.898438 -0.01833,1.179783 -0.896224,1.236706 -1.992188,1.322265 0,0 -0.002,1.690325 -0.002,1.792969 h 1 L 19,28 h 0.002 0.230469 c 0.97452,-0.113022 1.72328,-0.916337 1.767531,-1.896484 -0.01062,-0.105074 -0.0084,-0.195751 -0.01367,-0.320313 -0.113022,-0.974614 -0.916337,-1.723327 -1.896484,-1.767578 -0.106474,-9.03e-4 -0.212743,-0.0013 -0.322266,-0.002 z M 18.001953,30 v 1 h 1 v -1 z"
       style="fill:#fdbc4b;fill-opacity:1;stroke:none" />
  </g>
</svg>
