<?xml version="1.0" encoding="UTF-8" standalone="no"?>
<svg
   id="svg2"
   version="1.1"
   viewBox="0 0 22 22"
   width="22"
   height="22"
   xmlns="http://www.w3.org/2000/svg"
   xmlns:svg="http://www.w3.org/2000/svg">
  <defs
     id="defs3615">
    <style
       id="current-color-scheme"
       type="text/css">
            .ColorScheme-Text {
                color:#232629;
            }
        </style>
  </defs>
  <g
     id="22-22-view-refresh"
     transform="matrix(0,-1,-1,0,32,22)">
    <path
       id="path7"
       class="ColorScheme-Text"
       d="m 11,13 c -1.441714,0 -2.802961,0.36925 -3.96875,1.03125 l 0.71875,0.6875 0.0625,0.0625 2.75,2.78125 0.71875,-0.71875 -2.5,-2.46875 C 9.479582,14.14031 10.220394,14 11,14 c 3.87797,0 7,3.122 7,7 0,1.1625 -0.283875,2.25585 -0.78125,3.21875 l 0.75,0.75 C 18.630801,23.80295 19,22.4417 19,21 19,16.568 15.431966,13 11,13 Z M 4.03125,17.03125 C 3.369199,18.19705 3,19.5583 3,21 c 0,4.432 3.568034,8 8,8 1.441714,0 2.802961,-0.36925 3.96875,-1.03125 L 11.4375,24.4375 10.75,25.15625 13.21875,27.625 C 12.520418,27.85969 11.779605,28 11,28 7.12203,28 4,24.878 4,21 4,19.8375 4.283876,18.74415 4.78125,17.78125 Z"
       fill="currentColor" />
    <path
       id="path9"
       d="M 0,10 V 32 H 22 V 10 Z"
       fill="none" />
  </g>
</svg>
