<svg xmlns="http://www.w3.org/2000/svg" xmlns:xlink="http://www.w3.org/1999/xlink" xml:space="preserve" width="24" height="24" fill="none">
<defs>
<linearGradient id="a">
<stop offset="0" style="stop-color:#526885;stop-opacity:1"/>
<stop offset="1" style="stop-color:#afc6e9;stop-opacity:1"/>
</linearGradient>
<linearGradient xlink:href="#a" id="b" x1="11.352" x2="11.8" y1="45.879" y2=".486" gradientUnits="userSpaceOnUse"/>
<linearGradient xlink:href="#a" id="c" x1="11.352" x2="11.8" y1="45.879" y2=".486" gradientUnits="userSpaceOnUse"/>
</defs>
<g style="fill:url(#b);fill-opacity:1">
<path d="M50 5C9.09 5 5 25.455 5 50c0 32.727 12.273 45 45 45s45-12.273 45-45c0-24.545-4.09-45-45-45" style="font-variation-settings:normal;display:inline;opacity:1;vector-effect:none;fill:url(#c);fill-opacity:1;stroke-width:4.56656;stroke-linecap:butt;stroke-linejoin:miter;stroke-miterlimit:4;stroke-dasharray:none;stroke-dashoffset:0;stroke-opacity:1;-inkscape-stroke:none;stop-color:#000;stop-opacity:1" transform="translate(-1 -1)scale(.26)"/>
</g>
<path fill="#fff" fill-rule="evenodd" d="M5.272 17.875c-.008-3.23 4.662-12.555 6.836-12.602 1.087-.027 2.717 2.039 4.086 4.709 1.37 2.668 2.479 5.941 2.534 8.332 0 0-5.262-10.275-6.573-10.305-1.335-.036-4.963 7.239-4.53 8.048.423.79 8.238-1.759 8.238-1.759-.17.26-5.27 3.634-9.097 4.429-.578-.025-1.445 0-1.494-.852m0 0" style="stroke-width:2.11901"/>
</svg>
