<svg xmlns="http://www.w3.org/2000/svg" width="24" height="24" viewBox="0 0 6.35 6.35">
<defs>
<radialGradient id="a" cx="0" cy="0" r="1" fx="0" fy="0" gradientTransform="rotate(90 1.455 1.72)scale(5.82072)" gradientUnits="userSpaceOnUse" spreadMethod="pad">
<stop offset="0" style="stop-color:#fbcfcf;stop-opacity:1"/>
<stop offset="1" style="stop-color:#f44040;stop-opacity:1"/>
</radialGradient>
</defs>
<path d="M2.538.295A.3.3 0 0 0 2.63.283a8 8 0 0 1 1.14.002 3.6 3.6 0 0 1 1 .225q.804.33 1.101 1.148.169.492.2 1.011.042.653-.03 1.304a3.2 3.2 0 0 1-.237.878q-.338.731-1.094 1.008a4.1 4.1 0 0 1-1.261.218 5.6 5.6 0 0 1-1.443-.109Q.691 5.677.385 4.366a5 5 0 0 1-.12-1.194 5 5 0 0 1 .137-1.266Q.724.682 1.957.389q.288-.071.581-.094" style="fill:url(#a);fill-rule:evenodd;stroke:none;stroke-width:.352683;stroke-dasharray:none"/>
<path d="m4.326.367-.028 1.047c-.014.548.437 1 1.011 1.016l.747.02a4 4 0 0 0-.151-.733A1.9 1.9 0 0 0 4.835.533a3.6 3.6 0 0 0-.51-.166Z" style="opacity:.727273;mix-blend-mode:normal;fill:#f8f9f9;fill-opacity:1;stroke-width:.637964;paint-order:stroke fill markers"/>
<path fill="#fff" d="m3.355 3.8-.275.747h.552Zm-.114-.201h.23l.573 1.503h-.212l-.137-.386h-.677l-.137.386h-.214Zm1.526.937q-.224 0-.31.05-.087.052-.087.176 0 .098.064.157.066.057.177.057.154 0 .247-.109.093-.11.093-.29v-.041zm.37-.077v.643H4.95V4.93q-.063.103-.157.152-.095.048-.232.048-.173 0-.276-.096-.101-.098-.101-.261 0-.19.127-.287t.38-.097h.26v-.018q0-.127-.085-.197-.083-.07-.236-.07-.096 0-.188.023-.091.023-.176.069v-.171q.102-.039.197-.058t.187-.02q.244 0 .365.127.12.126.12.384z" aria-label="Aa"/>
<path d="m2.668.28-.039.003a.3.3 0 0 1-.09.012 3.6 3.6 0 0 0-.582.094 2.5 2.5 0 0 0-.386.124V2.6l.549-.55.548.549z" style="fill:#fff;fill-rule:evenodd;stroke:none;stroke-width:.352683;stroke-dasharray:none;fill-opacity:1"/>
</svg>
