<svg xmlns="http://www.w3.org/2000/svg" xml:space="preserve" width="24" height="24" version="1">
<defs>
<radialGradient id="a" cx="0" cy="0" r="1" gradientTransform="matrix(0 22 -22 0 12 1)" gradientUnits="userSpaceOnUse">
<stop stop-color="#8FC8FF"/>
<stop offset="1" stop-color="#0056A8"/>
</radialGradient>
</defs>
<g style="fill:none">
<path fill="url(#a)" fill-rule="evenodd" d="M9.596 1.114q.18.001.344-.046a32 32 0 0 1 4.307.011 13.5 13.5 0 0 1 3.78.848q3.039 1.25 4.158 4.339.64 1.86.756 3.824a28 28 0 0 1-.114 4.923 11.9 11.9 0 0 1-.894 3.32q-1.276 2.764-4.135 3.813a15.6 15.6 0 0 1-4.765.825 21.4 21.4 0 0 1-5.453-.413q-4.967-1.106-6.128-6.056a19 19 0 0 1-.447-4.511 18.5 18.5 0 0 1 .515-4.786q1.217-4.629 5.877-5.736a14 14 0 0 1 2.199-.355" clip-rule="evenodd" style="fill:url(#a)"/>
</g>
<circle cx="19.091" cy="4.727" r=".727" fill="#333" style="stroke-width:.363636"/>
<circle cx="19.091" cy="4.727" r=".364" fill="#fff" style="stroke-width:.363636"/>
<g transform="translate(.182 -.364)">
<circle cx="11.818" cy="12.364" r="7.636" fill="#f9f9f9" opacity=".9" style="stroke-width:.363636"/>
<path fill="#fff" d="M11.819 6.546A5.805 5.805 0 0 0 6 12.364a5.806 5.806 0 0 0 5.819 5.818 5.805 5.805 0 0 0 5.817-5.818 5.805 5.805 0 0 0-5.817-5.819z" opacity=".75" style="stroke-width:.207636"/>
<circle cx="11.818" cy="12.364" r="3.74" opacity=".65" style="fill:#0b1014;fill-opacity:1;stroke-width:.207636"/>
<circle cx="11.818" cy="-12.364" r="2.909" fill="#fff" opacity=".35" style="fill:#2d3e50;fill-opacity:1;stroke-width:.207636" transform="scale(1 -1)"/>
<circle cx="11.818" cy="12.364" r="1.663" opacity=".75" style="stroke-width:.207636"/>
<circle cx="10.522" cy="11.019" r=".862" fill="#fff" opacity=".35" style="fill:#fff;stroke-width:.399777"/>
<circle cx="11.818" cy="12.364" r=".782" opacity=".75" style="fill:#2891ca;fill-opacity:1;stroke-width:.0977021"/>
</g>
</svg>
