<svg xmlns="http://www.w3.org/2000/svg" width="24" height="24" fill="none">
<path fill="url(#a)" fill-rule="evenodd" d="M9.596 1.114q.18.001.344-.046a32 32 0 0 1 4.307.011q1.951.153 3.78.848 3.038 1.25 4.158 4.339.64 1.86.756 3.824a28 28 0 0 1-.114 4.923 11.9 11.9 0 0 1-.894 3.32q-1.276 2.764-4.135 3.813a15.6 15.6 0 0 1-4.765.825 21.4 21.4 0 0 1-5.453-.413q-4.967-1.106-6.128-6.056a19 19 0 0 1-.447-4.511 18.5 18.5 0 0 1 .515-4.786q1.217-4.629 5.877-5.736a14 14 0 0 1 2.199-.355" clip-rule="evenodd"/>
<path fill="#fff" d="M6.844 3.75c-.318 0-.573.216-.573.485v2.952H3.406a.57.57 0 0 0-.573.573c0 .318.256.573.573.573h2.865v7.537c0 .269.255.484.573.484h9.74v2.953c0 .27.255.485.572.485.318 0 .573-.216.573-.485v-2.953h2.865a.572.572 0 1 0 0-1.146h-2.865V7.672c0-.269-.255-.484-.573-.484h-9.74V4.235c0-.269-.255-.485-.572-.485m.573 4.583h9.166v6.875H7.417z"/>
<defs>
<radialGradient id="a" cx="0" cy="0" r="1" gradientTransform="matrix(0 22 -22 0 12 1)" gradientUnits="userSpaceOnUse">
<stop stop-color="#D6B1FF"/>
<stop offset="1" stop-color="#A75DFA"/>
</radialGradient>
</defs>
</svg>
