<svg xmlns="http://www.w3.org/2000/svg" width="24" height="24" viewBox="0 0 6.35 6.35">
<path d="M2.538.295A.3.3 0 0 0 2.63.283Q3.2.246 3.77.285a3.6 3.6 0 0 1 1 .225q.804.33 1.101 1.148.169.492.2 1.011.042.653-.03 1.304a3.2 3.2 0 0 1-.237.878q-.338.731-1.094 1.008a4.1 4.1 0 0 1-1.261.218 5.6 5.6 0 0 1-1.443-.109Q.691 5.677.385 4.366a5 5 0 0 1-.12-1.194 5 5 0 0 1 .137-1.266Q.724.682 1.957.389q.288-.071.581-.094" style="fill:#f2f2f2;fill-opacity:1;fill-rule:evenodd;stroke:none;stroke-width:.352771"/>
<g style="stroke-width:3.01654">
<path fill="#4c8fd8" d="M13.587 3.294a5.2 5.2 0 0 0-3.5 1.515 5.19 5.19 0 0 0-.422 6.848l1.09-1.09a3.664 3.664 0 0 1 .413-4.678 3.66 3.66 0 0 1 3.812-.859v1.311l1.958-1.958a5.2 5.2 0 0 0-3.351-1.09z" style="stroke-width:3.01654;paint-order:stroke markers fill" transform="translate(-1.386 .364)scale(.3315)"/>
<path fill="#6ddce7" d="m17.853 5.301-1.09 1.09a3.664 3.664 0 0 1-.415 4.679 3.66 3.66 0 0 1-3.811.858v-1.312l-1.295 1.296-.663.662a5.19 5.19 0 0 0 6.85-.424 5.19 5.19 0 0 0 .423-6.85z" style="stroke-width:3.01654;paint-order:stroke markers fill" transform="translate(-1.386 .364)scale(.3315)"/>
</g>
<path d="M4.873 3.016a2.24 2.24 0 0 0-2.24 2.24 2.2 2.2 0 0 0 .155.818q.33.021.66.003.649-.01 1.26-.218.758-.277 1.095-1.008.181-.422.237-.878.033-.302.042-.603a2.24 2.24 0 0 0-1.209-.354" style="fill:#7664c4;fill-opacity:1;stroke-width:.705623"/>
<path d="m5.426 4.158-1.182.229.006.962c0 .303.005.408-.189.408-.193 0-.347.063-.347.24a.2.2 0 0 0 .01.066q.316-.026.624-.1l.002-.023V4.856l.968-.224v.829s.004.03-.015.058q.064-.054.123-.115zm-.158 1.39a.2.2 0 0 1-.066.012c-.128 0-.411-.036-.411.234l.001.032q.266-.11.476-.278" style="fill:#fff;fill-opacity:1;stroke-width:.705623"/>
</svg>
