<svg xmlns="http://www.w3.org/2000/svg" width="24" height="24" viewBox="0 0 6.35 6.35">
<defs>
<radialGradient id="a" cx="0" cy="0" r="1" gradientTransform="rotate(90 1.455 1.72)scale(5.82072)" gradientUnits="userSpaceOnUse">
<stop stop-color="#FAFAFA"/>
<stop offset="1" stop-color="#B0B0B0"/>
</radialGradient>
</defs>
<path fill="url(#a)" fill-rule="evenodd" d="M2.63.283a.3.3 0 0 1-.091.012q-.295.023-.582.094Q.724.681.402 1.906q-.15.624-.136 1.266-.012.605.118 1.194.307 1.31 1.621 1.603.715.146 1.443.108.648-.01 1.26-.218a1.87 1.87 0 0 0 1.095-1.008q.182-.421.236-.879a7.3 7.3 0 0 0 .03-1.302 3.8 3.8 0 0 0-.2-1.012A1.89 1.89 0 0 0 4.77.51a3.6 3.6 0 0 0-1-.224A8 8 0 0 0 2.63.283" clip-rule="evenodd" style="fill:url(#a);stroke-width:.264578"/>
<g transform="translate(.224 .224)scale(.9293)">
<rect width="2.926" height="2.926" x="1.04" y="2.384" fill="#f9f9f9" rx=".474" ry=".474" style="stroke-width:.298913;paint-order:stroke markers fill"/>
<path d="M1.822 2.93q.142.166.233.35l-.158.09q-.083-.182-.225-.35Zm-.316.615h.45v.966l.174-.191.108.1q-.116.158-.316.316l-.125-.108v-.933h-.291Zm.774-.158h.266l.05-.224h-.391v-.15h1.174v.15h-.616l-.05.224h.508v.433h.2v.15H2.17v-.15h.276l.058-.283H2.28Zm.333.433h.441v-.283h-.383Zm.707.3v.724h-.166v-.108h-.69v.108h-.167V4.12Zm-.857.466h.69V4.27h-.69Z" aria-label="语" font-family="sans-serif" font-size="7.13" font-weight="400" letter-spacing="0" opacity=".25" style="stroke-width:.298913" word-spacing="0"/>
<rect width="2.926" height="2.926" x="2.384" y="1.04" fill="#498cd8" paint-order="stroke markers fill" rx=".474" ry=".474" style="stroke-width:.298913"/>
<path fill="#fff" d="m3.847 1.933-.285.773h.571Zm-.119-.207h.239l.592 1.554H4.34l-.142-.399h-.7l-.142.399h-.222Z" aria-label="A" font-family="sans-serif" font-size="7.13" font-weight="400" letter-spacing="0" style="stroke-width:.298913" word-spacing="0"/>
</g>
</svg>
