<svg xmlns="http://www.w3.org/2000/svg" xmlns:xlink="http://www.w3.org/1999/xlink" xml:space="preserve" width="24" height="24" fill="none">
<defs>
<linearGradient id="b">
<stop offset="0" style="stop-color:#0a79ab;stop-opacity:1"/>
<stop offset="1" style="stop-color:#061935;stop-opacity:1"/>
</linearGradient>
<linearGradient id="a" x1="0" x2="100" y1="0" y2="0" gradientTransform="translate(-50 -50)" gradientUnits="userSpaceOnUse">
<stop offset="0" stop-color="#fff"/>
<stop offset=".5" stop-color="#f9f9f9" stop-opacity=".95"/>
<stop offset="1" stop-color="#ccc" stop-opacity=".9"/>
</linearGradient>
<linearGradient xlink:href="#a" id="e" x1="0" x2="100" y1="0" y2="0" gradientTransform="translate(-50 -50)" gradientUnits="userSpaceOnUse"/>
<linearGradient xlink:href="#a" id="f" x1="0" x2="100" y1="0" y2="0" gradientTransform="translate(-50 -50)" gradientUnits="userSpaceOnUse"/>
<linearGradient xlink:href="#b" id="c" x1="12.531" x2="12.063" y1="43.031" y2="10.906" gradientUnits="userSpaceOnUse"/>
<linearGradient xlink:href="#b" id="d" x1="12.531" x2="12.063" y1="43.031" y2="10.906" gradientUnits="userSpaceOnUse"/>
</defs>
<g style="fill:url(#c);fill-opacity:1">
<path d="M50 5C9.09 5 5 25.455 5 50c0 32.727 12.273 45 45 45s45-12.273 45-45c0-24.545-4.09-45-45-45" style="font-variation-settings:normal;display:inline;opacity:1;vector-effect:none;fill:url(#d);fill-opacity:1;stroke-width:4.56656;stroke-linecap:butt;stroke-linejoin:miter;stroke-miterlimit:4;stroke-dasharray:none;stroke-dashoffset:0;stroke-opacity:1;-inkscape-stroke:none;stop-color:#000;stop-opacity:1" transform="translate(-1 -1)scale(.26)"/>
</g>
<path fill="url(#a)" d="M0 10c-10 0-10 8-17 17-13 18 3 18 17 18s30 0 17-18c-7-9-7-17-17-17m0 15c7 0 13 5 13 10 0 6-5 7-13 7s-13-1-13-7c0-5 6-10 13-10" style="fill:url(#e)" transform="translate(12 1.888)scale(.26264)"/>
<path fill="url(#a)" d="M-10 48c-2 0-3 1-5 3 3 4 10 6 15 6s12-2 15-6c-2-2-3-3-5-3z" style="fill:url(#f)" transform="matrix(.43773 0 0 .4815 12 -7.96)"/>
</svg>
