<svg xmlns="http://www.w3.org/2000/svg" xmlns:xlink="http://www.w3.org/1999/xlink" xml:space="preserve" width="24" height="24" viewBox="0 0 6.35 6.35">
<defs>
<radialGradient id="a" cx="0" cy="0" r="1" fx="0" fy="0" gradientTransform="rotate(90 1.455 1.717)scale(2.91045)" gradientUnits="userSpaceOnUse" spreadMethod="pad">
<stop offset="0" style="stop-opacity:1;stop-color:#d0bc81"/>
<stop offset="1" style="stop-opacity:1;stop-color:#b78b42"/>
</radialGradient>
<radialGradient id="c" cx="0" cy="0" r="1" fx="0" fy="0" gradientTransform="rotate(116.565 1.775 3.467)scale(.90953)" gradientUnits="userSpaceOnUse" spreadMethod="pad">
<stop offset="0" style="stop-opacity:1;stop-color:#ffe164"/>
<stop offset="1" style="stop-opacity:1;stop-color:#ffb450"/>
</radialGradient>
<radialGradient id="d" cx="0" cy="0" r="1" fx="0" fy="0" gradientTransform="rotate(116.565 1.98 3.136)scale(.90953)" gradientUnits="userSpaceOnUse" spreadMethod="pad">
<stop offset="0" style="stop-opacity:1;stop-color:#a5eb78"/>
<stop offset="1" style="stop-opacity:1;stop-color:#60c31d"/>
</radialGradient>
<radialGradient id="e" cx="0" cy="0" r="1" fx="0" fy="0" gradientTransform="rotate(116.565 2.184 2.806)scale(.90953)" gradientUnits="userSpaceOnUse" spreadMethod="pad">
<stop offset="0" style="stop-opacity:1;stop-color:#00d2ff"/>
<stop offset="1" style="stop-opacity:1;stop-color:#4a85cc"/>
</radialGradient>
<radialGradient id="f" cx="0" cy="0" r="1" fx="0" fy="0" gradientTransform="rotate(90 1.46 1.726)scale(2.91045)" gradientUnits="userSpaceOnUse" spreadMethod="pad">
<stop offset="0" style="stop-opacity:1;stop-color:#d0bc81"/>
<stop offset="1" style="stop-opacity:1;stop-color:#b78b42"/>
</radialGradient>
<radialGradient xlink:href="#a" id="b" cx="0" cy="0" r="1" fx="0" fy="0" gradientTransform="rotate(90 1.455 1.717)scale(2.91045)" gradientUnits="userSpaceOnUse" spreadMethod="pad"/>
</defs>
<path d="M3.2.265a8 8 0 0 0-.57.018.3.3 0 0 1-.09.012 3.6 3.6 0 0 0-.583.094q-.495.118-.843.387a20.2 20.2 0 0 0-.002 4.792q.365.282.893.4a5.6 5.6 0 0 0 1.443.11 4.1 4.1 0 0 0 1.26-.219q.758-.276 1.095-1.008a3.2 3.2 0 0 0 .237-.878 7.5 7.5 0 0 0 .03-1.304 3.8 3.8 0 0 0-.2-1.011A1.9 1.9 0 0 0 4.77.51a3.6 3.6 0 0 0-1-.225 8 8 0 0 0-.57-.02" style="fill:url(#b);fill-rule:evenodd;stroke:none;stroke-width:.35278"/>
<path d="M3.456.504a8 8 0 0 0-.26.013.3.3 0 0 1-.083.01 3.5 3.5 0 0 0-.535.088Q1.445.884 1.15 2.009a4.6 4.6 0 0 0-.125 1.165 4.7 4.7 0 0 0 .109 1.096q.283 1.205 1.491 1.474.399.083.805.102.016 0 .031-.002a3.8 3.8 0 0 0 1.16-.2q.695-.255 1.005-.927a2.9 2.9 0 0 0 .218-.807 7 7 0 0 0 .028-1.198 3.4 3.4 0 0 0-.184-.93A1.73 1.73 0 0 0 4.676.726a3.3 3.3 0 0 0-.92-.206A7 7 0 0 0 3.46.504Z" style="fill:#e6e6e6;fill-opacity:1;fill-rule:nonzero;stroke:none;stroke-width:.35278"/>
<path d="M5.304 3.43h.325a.243.243 0 0 1 .244.244v.325a.243.243 0 0 1-.244.244h-.325a.243.243 0 0 1-.244-.244v-.325a.243.243 0 0 1 .244-.244" style="fill:url(#c);stroke:none;stroke-width:.35278"/>
<path d="M5.304 2.769h.325a.243.243 0 0 1 .244.243v.326a.243.243 0 0 1-.244.243h-.325a.243.243 0 0 1-.244-.243v-.326a.243.243 0 0 1 .244-.243" style="fill:url(#d);stroke:none;stroke-width:.35278"/>
<path d="M5.304 2.107h.325a.243.243 0 0 1 .244.244v.325a.243.243 0 0 1-.244.244h-.325a.243.243 0 0 1-.244-.244v-.325a.243.243 0 0 1 .244-.244" style="fill:url(#e);stroke:none;stroke-width:.35278"/>
<path d="M2.921.27a6 6 0 0 0-.28.014.3.3 0 0 1-.091.012Q2.254.32 1.968.39.734.684.412 1.907a5 5 0 0 0-.135 1.267q-.013.603.117 1.193.307 1.31 1.622 1.603.435.089.876.11.018 0 .035-.002a4.1 4.1 0 0 0 1.26-.217q.758-.277 1.095-1.009a3.1 3.1 0 0 0 .236-.878q.075-.65.031-1.303a3.8 3.8 0 0 0-.2-1.012A1.89 1.89 0 0 0 4.25.511 3.6 3.6 0 0 0 3.248.286Q3.086.276 2.926.27Z" style="fill:url(#f);stroke:none;stroke-width:.35278"/>
<path d="M1.114.776q-.518.398-.711 1.13a5 5 0 0 0-.137 1.266 5 5 0 0 0 .118 1.194q.184.783.728 1.202A20 20 0 0 1 1.114.776" style="fill:#28170b;fill-opacity:1;fill-rule:evenodd;stroke:none;stroke-width:.35278"/>
<path d="M3.167 1.856c-.127-.027-.246.117-.343.055-.021.097-.125.022-.12.102a.51.51 0 0 0-.197.42c-.021.127.044.287-.036.392a.7.7 0 0 0 .036.376c.087.132.221.241.252.407.013.153-.152.238-.254.322-.16.11-.33.194-.504.274v.294h2.348v-.294a2 2 0 0 1-.637-.443c-.128-.123-.004-.3.078-.41a.47.47 0 0 0 .164-.362c.036-.138-.072-.241-.047-.382-.003-.177.023-.391-.126-.52a1 1 0 0 0-.614-.23" style="fill:none;stroke:#000;stroke-width:.264585;stroke-linecap:round;stroke-linejoin:round;stroke-miterlimit:4;stroke-dasharray:none;stroke-opacity:.2"/>
<path d="M3.167 1.856c-.127-.027-.246.117-.343.055-.021.097-.125.022-.12.102a.51.51 0 0 0-.197.42c-.021.127.044.287-.036.392a.7.7 0 0 0 .036.376c.087.132.221.241.252.407.013.153-.152.238-.254.322-.16.11-.33.194-.504.274v.294h2.348v-.294a2 2 0 0 1-.637-.443c-.128-.123-.004-.3.078-.41a.47.47 0 0 0 .164-.362c.036-.138-.072-.241-.047-.382-.003-.177.023-.391-.126-.52a1 1 0 0 0-.614-.23" style="fill:#535353;fill-opacity:1;fill-rule:nonzero;stroke:none;stroke-width:.35278"/>
</svg>
