<svg xmlns="http://www.w3.org/2000/svg" xml:space="preserve" width="24" height="24" viewBox="0 0 6.35 6.35">
<defs>
<radialGradient id="a" cx="0" cy="0" r="1" fx="0" fy="0" gradientTransform="matrix(0 16.5 -16.5 0 8.25 0)" gradientUnits="userSpaceOnUse" spreadMethod="pad">
<stop offset="0" style="stop-opacity:1;stop-color:#ececec"/>
<stop offset="1" style="stop-opacity:1;stop-color:#bdbdbd"/>
</radialGradient>
</defs>
<path d="M6.445.086q.135 0 .258-.035a24 24 0 0 1 3.231.008 10.3 10.3 0 0 1 2.836.636q2.277.939 3.121 3.254.476 1.396.566 2.867a21 21 0 0 1-.086 3.696A9 9 0 0 1 15.699 13q-.957 2.075-3.101 2.859a11.7 11.7 0 0 1-3.575.618 16 16 0 0 1-4.089-.309C2.453 15.617.918 14.102.34 11.625a14.2 14.2 0 0 1-.336-3.383q-.041-1.818.387-3.59.914-3.468 4.406-4.3A10 10 0 0 1 6.445.086" style="fill:url(#a);fill-rule:evenodd;stroke:none" transform="translate(.264 .265)scale(.35277)"/>
<path d="M16.414 6.316 6.336 16.395q1.335.151 2.687.082a11.7 11.7 0 0 0 3.575-.618q2.145-.784 3.101-2.859a9 9 0 0 0 .672-2.488q.204-1.845.086-3.696a19 19 0 0 0-.043-.5" style="fill:#898989;fill-opacity:.161111;fill-rule:nonzero;stroke:none" transform="translate(.264 .265)scale(.35277)"/>
<path d="M13.25 12.105H6.289a.49.49 0 0 0-.5.481c0 .262.223.476.5.476h6.961c.277 0 .5-.214.5-.476a.49.49 0 0 0-.5-.481M3.309 3.441a.51.51 0 0 0-.493.235.48.48 0 0 0-.05.363.5.5 0 0 0 .086.168.5.5 0 0 0 .148.121l5.344 2.961L3 10.254a.6.6 0 0 0-.148.121.5.5 0 0 0-.086.168.48.48 0 0 0 .05.363.51.51 0 0 0 .684.176l6.027-3.344a.46.46 0 0 0 .176-.172.4.4 0 0 0 .063-.234q.005-.022.004-.039c0-.016 0-.027-.004-.043q0-.124-.063-.23a.46.46 0 0 0-.176-.172L3.5 3.5a.6.6 0 0 0-.191-.059" style="fill:#666;fill-opacity:1;fill-rule:nonzero;stroke:none" transform="translate(.264 .265)scale(.35277)"/>
</svg>
