<svg xmlns="http://www.w3.org/2000/svg" xmlns:xlink="http://www.w3.org/1999/xlink" xml:space="preserve" width="24" height="24" fill="none">
<defs>
<linearGradient id="a">
<stop offset="0" style="stop-color:#304752;stop-opacity:1"/>
<stop offset="1" style="stop-color:#fca;stop-opacity:1"/>
</linearGradient>
<linearGradient xlink:href="#a" id="b" x1="13.33" x2="11.688" y1="31.144" y2="-18.438" gradientUnits="userSpaceOnUse"/>
<linearGradient xlink:href="#a" id="c" x1="13.33" x2="11.688" y1="31.144" y2="-18.438" gradientUnits="userSpaceOnUse"/>
</defs>
<g style="fill:url(#b);fill-opacity:1">
<path d="M50 5C9.09 5 5 25.455 5 50c0 32.727 12.273 45 45 45s45-12.273 45-45c0-24.545-4.09-45-45-45" style="font-variation-settings:normal;display:inline;opacity:1;vector-effect:none;fill:url(#c);fill-opacity:1;stroke-width:4.56656;stroke-linecap:butt;stroke-linejoin:miter;stroke-miterlimit:4;stroke-dasharray:none;stroke-dashoffset:0;stroke-opacity:1;-inkscape-stroke:none;stop-color:#000;stop-opacity:1" transform="translate(-1 -1)scale(.26)"/>
</g>
<path fill="#3c98fe" d="m371.716 171.636-1.598 3.915c4.301 13.353 4.301 13.353 6.703 24.999 2.41-11.646 2.41-11.646 6.719-24.999l-6.719-16.372z" style="stroke-width:7.72274" transform="translate(-72.953 -24.984)scale(.22544)"/>
<path fill="#ec7a02" d="M371.214 132.79h11.214l24.836 61.304h-10.418l-20.025-46.823-20.017 46.823h-10.418z" style="stroke-width:7.72274" transform="translate(-72.953 -24.984)scale(.22544)"/>
</svg>
