<svg xmlns="http://www.w3.org/2000/svg" xml:space="preserve" width="24" height="24" fill="none">
<path d="M50 5C9.09 5 5 25.455 5 50c0 32.727 12.273 45 45 45s45-12.273 45-45c0-24.545-4.09-45-45-45" style="font-variation-settings:normal;display:inline;opacity:1;vector-effect:none;fill:#fff;fill-opacity:1;stroke-width:4.56656;stroke-linecap:butt;stroke-linejoin:miter;stroke-miterlimit:4;stroke-dasharray:none;stroke-dashoffset:0;stroke-opacity:1;-inkscape-stroke:none;stop-color:#000;stop-opacity:1" transform="translate(-1 -1)scale(.26)"/>
<g style="display:inline">
<rect width="2" height="2" x="12" y="-3" rx="0" ry="0" style="display:inline;fill:#3947be;fill-opacity:1;stroke-width:22.6872;paint-order:markers stroke fill"/>
<rect width="2" height="2" x="9" y="-3" rx="0" ry="0" style="display:inline;fill:#6c7ad8;fill-opacity:1;stroke-width:22.6873;paint-order:markers stroke fill"/>
<rect width="2" height="2" x="6" y="-3" rx="0" ry="0" style="display:inline;fill:#3c3;fill-opacity:1;stroke-width:22.6873;paint-order:markers stroke fill"/>
<rect width="2" height="2" x="3" y="-3" rx="0" ry="0" style="display:inline;fill:#ffc328;fill-opacity:1;stroke-width:22.6872;paint-order:markers stroke fill"/>
<rect width="2" height="2" y="-3" rx="0" ry="0" style="display:inline;fill:#cc5e55;fill-opacity:1;stroke-width:22.6873;paint-order:markers stroke fill"/>
<rect width="2" height="2" x="-3" y="12" rx="0" ry="0" style="display:inline;fill:#0bb1cb;fill-opacity:1;stroke-width:22.6872;paint-order:markers stroke fill"/>
<rect width="2" height="2" x="-3" y="9" rx="0" ry="0" style="display:inline;fill:#2a92c9;fill-opacity:1;stroke-width:22.6873;paint-order:markers stroke fill"/>
<rect width="2" height="2" x="-3" y="6" rx="0" ry="0" style="display:inline;fill:#069;fill-opacity:1;stroke-width:22.6873;paint-order:markers stroke fill"/>
<rect width="2" height="2" x="-3" y="3" rx="0" ry="0" style="display:inline;fill:#002a44;fill-opacity:1;stroke-width:22.6873;paint-order:markers stroke fill"/>
<rect width="2" height="2" x="-3" rx="0" ry="0" style="display:inline;fill:#2c2d3d;fill-opacity:1;stroke-width:22.6873;paint-order:markers stroke fill"/>
<rect width="2" height="2" x="-3" y="-3" rx="0" ry="0" style="display:inline;fill:#16171c;fill-opacity:1;stroke-width:22.6872;paint-order:markers stroke fill"/>
</g>
<path fill="#5771bf" d="M9.514 280.164a8.356 8.356 0 0 0-8.375 8.374 8.356 8.356 0 0 0 8.375 8.373 8.356 8.356 0 0 0 8.373-8.374 8.356 8.356 0 0 0-8.374-8.373zm0 1.29a7.07 7.07 0 0 1 7.084 7.083 7.07 7.07 0 0 1-5.447 6.896c.018-.292.03-.668.066-.994.035-.326.169-3.069.641-3.794.473-.727 1.817-1.598 2.288-1.688.474-.092.394-.28.394-.445s-.083-.523-.21-.576c-.127-.054-.62.266-.786.3-.163.036-.947.104-1.059-.079-.109-.183.88-2.033 1.01-2.25a.7.7 0 0 0-.054-.825c-.235-.306-.394-.614-.483-.614-.3 0-.882.69-1.1.798-.219.11-1.942 1.34-2.105 1.556a.67.67 0 0 1-.615.287c-.236-.016-.992-.026-1.243.117-.256.146-1.424 1.333-1.716 1.48a2.9 2.9 0 0 1-.854.25c-.182.018-.778.683-.94.812s-1.452.688-1.634.798c-.183.11 1.327 1.639 1.542 1.675.169.027-.017.518-.303.742a7.06 7.06 0 0 1-1.561-4.446 7.07 7.07 0 0 1 7.084-7.084zm-.3 6.425c.075.006.12.016.12.016.085.193-.304.793-.665.878-.36.082-1.189 1.31-1.216 1.032-.028-.277.328-1.195.746-1.61a1.18 1.18 0 0 1 .72-.312h-.003a1.6 1.6 0 0 1 .298-.003z" style="display:inline;stroke-width:1.17222" transform="translate(2.911 -263.658)scale(.95536)"/>
</svg>
