<svg xmlns="http://www.w3.org/2000/svg" xmlns:xlink="http://www.w3.org/1999/xlink" xml:space="preserve" width="24" height="24" fill="none">
<defs>
<linearGradient id="a">
<stop offset="0" style="stop-color:#955caa;stop-opacity:1"/>
<stop offset="1" style="stop-color:#eaf;stop-opacity:1"/>
</linearGradient>
<linearGradient xlink:href="#a" id="b" x1="13.33" x2="12.063" y1="31.144" y2="-2.313" gradientUnits="userSpaceOnUse"/>
<linearGradient xlink:href="#a" id="c" x1="13.33" x2="12.063" y1="31.144" y2="-2.313" gradientUnits="userSpaceOnUse"/>
</defs>
<g style="display:inline;fill:url(#b);fill-opacity:1">
<path d="M50 5C9.09 5 5 25.455 5 50c0 32.727 12.273 45 45 45s45-12.273 45-45c0-24.545-4.09-45-45-45" style="font-variation-settings:normal;display:inline;opacity:1;vector-effect:none;fill:url(#c);fill-opacity:1;stroke-width:4.56656;stroke-linecap:butt;stroke-linejoin:miter;stroke-miterlimit:4;stroke-dasharray:none;stroke-dashoffset:0;stroke-opacity:1;-inkscape-stroke:none;stop-color:#000;stop-opacity:1" transform="translate(-1 -1)scale(.26)"/>
</g>
<path fill="#fff" d="M15.312 4.585s-1.45.995-1.55 1.56c0 0-3.07-.97-5.768 1.617h1.362s-3.569 2.23-3.63 3.631c.061-.039.655-.348.907-.454 0 0-.867 1.998-.208 3.945a8.12 8.12 0 0 0 7.408 4.718c.1 0 .196-.01.295-.013.114-.39.64-2.398-.328-3.649-.834-1.079-2.288-4.005-.359-5 0 0 1.22 1.71 2.651 1.877 0 0 .168 1.467 1.898.536.462-.248.634-1.067.168-1.732l-.367-.53s-1.215-2.92-2.08-3.783c0 0-.454-1.361 0-2.269 0 0-.515.382-.681.68 0 0 .115-.97.282-1.134" style="stroke-width:.336327"/>
</svg>
