<svg xmlns="http://www.w3.org/2000/svg" xmlns:xlink="http://www.w3.org/1999/xlink" xml:space="preserve" width="24" height="24" fill="none">
<defs>
<linearGradient id="a">
<stop offset="0" style="stop-color:#666;stop-opacity:1"/>
<stop offset="1" style="stop-color:#fff;stop-opacity:1"/>
</linearGradient>
<linearGradient xlink:href="#a" id="b" x1="12.625" x2="12.313" y1="48.813" y2="-.563" gradientUnits="userSpaceOnUse"/>
<linearGradient xlink:href="#a" id="c" x1="12.625" x2="12.313" y1="48.813" y2="-.563" gradientUnits="userSpaceOnUse"/>
</defs>
<g style="display:inline;fill:url(#b);fill-opacity:1">
<path d="M50 5C9.09 5 5 25.455 5 50c0 32.727 12.273 45 45 45s45-12.273 45-45c0-24.545-4.09-45-45-45" style="font-variation-settings:normal;display:inline;opacity:1;vector-effect:none;fill:url(#c);fill-opacity:1;stroke-width:4.56656;stroke-linecap:butt;stroke-linejoin:miter;stroke-miterlimit:4;stroke-dasharray:none;stroke-dashoffset:0;stroke-opacity:1;-inkscape-stroke:none;stop-color:#000;stop-opacity:1" transform="translate(-1 -1)scale(.26)"/>
</g>
<g stroke-width=".529" transform="translate(-4.54 -4.56)scale(1.892)">
<path fill="#8e8e8e" d="M7.7 5.384a.64.64 0 0 0-.457.186L4.712 8.102a.65.65 0 0 0 0 .914l2.532 2.531a.653.653 0 0 0 .914 0l2.531-2.531a.653.653 0 0 0 0-.914L8.158 5.57a.64.64 0 0 0-.457-.186Z"/>
<rect width="3.092" height="3.092" x="9.952" y="-.94" fill="#fff" rx=".168" ry=".168" transform="rotate(45)"/>
<path fill="#e52e38" d="M9.817 5.384a.64.64 0 0 0-.457.186L6.829 8.102a.65.65 0 0 0 0 .914l2.531 2.531a.653.653 0 0 0 .914 0l2.532-2.531a.653.653 0 0 0 0-.914L10.274 5.57a.64.64 0 0 0-.457-.186"/>
</g>
</svg>
