<svg xmlns="http://www.w3.org/2000/svg" width="24" height="24" fill="none">
<path fill="url(#a)" fill-rule="evenodd" d="M9.94 1.068q-.164.048-.344.046-1.114.09-2.2.355Q2.738 2.576 1.52 7.205A18.5 18.5 0 0 0 1 11.563v.003q0 .212.005.425-.046 2.282.447 4.51 1.16 4.95 6.128 6.057 2.142.44 4.317.442h.018q.557 0 1.118-.03a15.6 15.6 0 0 0 4.765-.824q2.859-1.049 4.135-3.812.688-1.595.893-3.32A28 28 0 0 0 23 11.908v-.007q0-.905-.059-1.812a14.3 14.3 0 0 0-.756-3.824q-1.12-3.09-4.158-4.34a13.5 13.5 0 0 0-3.78-.847A32 32 0 0 0 12.013 1h-.008q-1.033 0-2.065.068" clip-rule="evenodd" opacity=".813"/>
<path fill="#FFD351" d="M10 4.75a.75.75 0 0 1 .75-.75h5.85A4.4 4.4 0 0 1 21 8.4v8.2a4.4 4.4 0 0 1-4.4 4.4H10z"/>
<path fill="#7BD57D" d="M3 7.4A4.4 4.4 0 0 1 7.4 3H12a1 1 0 0 1 1 1v16.25a.75.75 0 0 1-.75.75H7.4A4.4 4.4 0 0 1 3 16.6z"/>
<path fill="#707ED0" d="M7 7a1 1 0 0 1 1-1h8a1 1 0 0 1 1 1v14H7z"/>
<path fill="url(#b)" fill-rule="evenodd" d="M1 11.564q0-2.208.52-4.36.11-.414.247-.802A3 3 0 0 1 4.007 5.4H8.19c1.075 0 2.117.37 2.95 1.048a4.68 4.68 0 0 0 2.95 1.047h5.902c1.428 0 2.623.995 2.93 2.328A28 28 0 0 1 23 11.902l.001.007a28 28 0 0 1-.174 3.104 11.9 11.9 0 0 1-.893 3.32q-1.275 2.764-4.135 3.813a15.6 15.6 0 0 1-4.765.825q-.562.03-1.122.029h-.01a21.4 21.4 0 0 1-4.321-.442q-4.967-1.106-6.128-6.056a19 19 0 0 1-.447-4.511A19 19 0 0 1 1 11.564" clip-rule="evenodd" opacity=".875"/>
<path fill="url(#c)" fill-opacity=".875" fill-rule="evenodd" d="M1 11.564q0-2.208.52-4.36a9 9 0 0 1 .922-2.265A3 3 0 0 1 4.008 4.5h4.148c1.094 0 2.153.39 2.985 1.101a4.6 4.6 0 0 0 2.984 1.101h5.867c1.249 0 2.32.761 2.774 1.844q.129.765.175 1.544.06.907.059 1.812v.007a28 28 0 0 1-.174 3.104 11.9 11.9 0 0 1-.893 3.32q-1.276 2.764-4.135 3.813a15.6 15.6 0 0 1-4.765.825q-.561.03-1.118.029h-.018q-2.176 0-4.317-.442-4.967-1.106-6.128-6.056a19 19 0 0 1-.447-4.511A19 19 0 0 1 1 11.564" clip-rule="evenodd" opacity=".125"/>
<path fill="#FAFAFA" d="M15 16.833c-.185 0-.333.199-.333.445v1.778c0 .246.148.444.333.444h3.667c.184 0 .333-.198.333-.444v-1.778c0-.246-.149-.445-.333-.445zm0 .444h.667v1.778H15zm1 0h.333v1.779H16zm.667 0H17v1.779h-.333zm.666 0H18v1.779h-.667zm1 0h.334v1.779h-.334zM6 15.5l-.667 1.333h.334v1.778h.666v-1.778h.334zm.667 1.333H7v1.778h.667v-1.778H8L7.333 15.5zM5 19.056v.444h3.333v-.444z"/>
<path fill="#fff" d="M12.012 11.875a.81.81 0 0 1 .813.813v2.437a.812.812 0 1 1-1.625 0v-2.438a.81.81 0 0 1 .813-.812Zm0 2.844a.407.407 0 1 0 0 .813.407.407 0 0 0 0-.813m0-7.719H11.2v.813h.813z"/>
<path fill="#fff" d="M12.825 7.813h-.813v.812h.813z" opacity=".75"/>
<path fill="#fff" d="M12.012 8.625H11.2v.813h.813z"/>
<path fill="#fff" d="M12.825 9.438h-.813v.812h.813v-.813Z" opacity=".75"/>
<path fill="#fff" d="M12.012 10.25H11.2v.813h.813z"/>
<path fill="#fff" d="M12.825 11.063h-.813v.812h.813v-.813Z" opacity=".75"/>
<defs>
<linearGradient id="a" x1="23" x2="1" y1="1" y2="12" gradientUnits="userSpaceOnUse">
<stop stop-color="#E3C880"/>
<stop offset="1" stop-color="#6F5C38"/>
</linearGradient>
<linearGradient id="b" x1="23" x2="1.429" y1="5.4" y2="23.512" gradientUnits="userSpaceOnUse">
<stop stop-color="#FFE795"/>
<stop offset="1" stop-color="#7A653E"/>
</linearGradient>
<linearGradient id="c" x1="23" x2="1.011" y1="9.23" y2="9.726" gradientUnits="userSpaceOnUse">
<stop stop-opacity=".5"/>
<stop offset="1"/>
</linearGradient>
</defs>
</svg>
