<svg xmlns="http://www.w3.org/2000/svg" width="24" height="24" fill="none">
<path fill="url(#a)" fill-rule="evenodd" d="M9.596 1.114q.18.001.344-.046a32 32 0 0 1 4.307.011 13.5 13.5 0 0 1 3.78.848q3.038 1.25 4.158 4.339.64 1.86.756 3.824a28 28 0 0 1-.114 4.923 11.9 11.9 0 0 1-.894 3.32q-1.276 2.764-4.135 3.813a15.6 15.6 0 0 1-4.765.825 21.4 21.4 0 0 1-5.453-.413q-4.967-1.106-6.128-6.056a19 19 0 0 1-.447-4.511 18.5 18.5 0 0 1 .515-4.786q1.217-4.629 5.877-5.736a14 14 0 0 1 2.2-.355Z" clip-rule="evenodd"/>
<path fill="url(#b)" d="M7.57 18.023a.74.74 0 0 1-.74-.738V6.692c0-.408.331-.738.74-.738H8.7c.408 0 .738.33.738.738v10.593c0 .407-.33.738-.738.738zm3.876 3.37a.74.74 0 0 1-.738-.74V3.347c0-.408.33-.738.738-.738h1.108c.408 0 .738.33.738.738v17.308c0 .408-.33.738-.738.738zm-7.708-6.716A.74.74 0 0 1 3 13.938v-3.877c0-.407.33-.738.738-.738H4.87c.408 0 .739.33.739.739v3.877c0 .407-.33.738-.739.738H3.74ZM15.3 18.023a.74.74 0 0 1-.739-.738V6.692c0-.408.331-.738.739-.738h1.13c.409 0 .74.33.74.738v10.593a.74.74 0 0 1-.74.738zm3.83-3.346a.74.74 0 0 1-.738-.739v-3.877c0-.407.33-.738.739-.738h1.13c.408 0 .739.33.739.739v3.877c0 .407-.33.738-.738.738z"/>
<path fill="url(#c)" fill-opacity=".95" d="M10.031 18.5a1.5 1.5 0 0 1-1.5 1.5h-1.85a2.56 2.56 0 0 1-1.897-.802Q4 18.397 4 17.308v-5.297q0-1.666.629-3.117a8.1 8.1 0 0 1 1.72-2.54 8.2 8.2 0 0 1 2.554-1.721A7.7 7.7 0 0 1 12.01 4a7.7 7.7 0 0 1 3.103.633 8.1 8.1 0 0 1 2.546 1.722 8.1 8.1 0 0 1 1.714 2.54q.627 1.45.627 3.116v5.298q0 1.087-.777 1.89A2.55 2.55 0 0 1 17.32 20h-1.767a1.5 1.5 0 0 1-1.5-1.5v-4.78a1.5 1.5 0 0 1 1.5-1.5h1.557a.21.21 0 0 0 .21-.21q0-2.208-1.545-3.764-1.545-1.554-3.77-1.555-2.223 0-3.774 1.555-1.55 1.556-1.55 3.764c0 .117.095.21.21.21h1.641a1.5 1.5 0 0 1 1.5 1.5v4.78Z" opacity=".95"/>
<defs>
<radialGradient id="a" cx="0" cy="0" r="1" gradientTransform="matrix(0 22 -22 0 12 1)" gradientUnits="userSpaceOnUse">
<stop stop-color="#fff"/>
<stop offset="1" stop-color="#B4B4B4"/>
</radialGradient>
<radialGradient id="c" cx="0" cy="0" r="1" gradientTransform="rotate(90 4 8)scale(16)" gradientUnits="userSpaceOnUse">
<stop stop-color="#197CF1"/>
<stop offset="1" stop-color="#0C289D"/>
</radialGradient>
<linearGradient id="b" x1="12" x2="12" y1="21.5" y2="2.5" gradientUnits="userSpaceOnUse">
<stop stop-color="#F3E517"/>
<stop offset=".182" stop-color="#FF7901"/>
<stop offset=".339" stop-color="#FF5101"/>
<stop offset=".5" stop-color="#FE0501"/>
<stop offset=".656" stop-color="#FF5101"/>
<stop offset=".818" stop-color="#FF7901"/>
<stop offset="1" stop-color="#F3E517"/>
</linearGradient>
</defs>
</svg>
