<svg xmlns="http://www.w3.org/2000/svg" xmlns:xlink="http://www.w3.org/1999/xlink" xml:space="preserve" width="24" height="24" fill="none">
<defs>
<linearGradient id="a">
<stop offset="0" style="stop-color:#1e9ad5;stop-opacity:1"/>
<stop offset="1" style="stop-color:#c1d8e3;stop-opacity:1"/>
</linearGradient>
<linearGradient xlink:href="#a" id="b" x1="9.75" x2="11.188" y1="62.393" y2="-5.044" gradientUnits="userSpaceOnUse"/>
<linearGradient xlink:href="#a" id="c" x1="9.75" x2="11.188" y1="62.393" y2="-5.044" gradientUnits="userSpaceOnUse"/>
<filter id="d" width="3.988" height="3.445" x="-1.494" y="-1.223" color-interpolation-filters="sRGB">
<feColorMatrix result="result7" values="1 0 0 0 0 0 1 0 0 0 0 0 1 0 0 0 0 0 1 0"/>
<feGaussianBlur result="result6" stdDeviation="5"/>
<feComposite in="result6" in2="result7" operator="atop" result="result91"/>
<feComposite in2="result91" operator="in"/>
</filter>
</defs>
<g style="display:inline;fill:url(#b);fill-opacity:1" transform="translate(0 .044)">
<path d="M50 5C9.09 5 5 25.455 5 50c0 32.727 12.273 45 45 45s45-12.273 45-45c0-24.545-4.09-45-45-45" style="font-variation-settings:normal;display:inline;opacity:1;vector-effect:none;fill:url(#c);fill-opacity:1;stroke-width:4.56656;stroke-linecap:butt;stroke-linejoin:miter;stroke-miterlimit:4;stroke-dasharray:none;stroke-dashoffset:0;stroke-opacity:1;-inkscape-stroke:none;stop-color:#000;stop-opacity:1" transform="translate(-1 -1)scale(.26)"/>
</g>
<g transform="translate(30.157 23.48)scale(.10636)">
<g fill="#fff" paint-order="stroke markers fill" transform="translate(-282.586 -3900.813)scale(13.14488)">
<circle cx="11.906" cy="287.58" r="1.389" opacity=".25"/>
<circle cx="11.906" cy="287.58" r="1.389" opacity=".25"/>
<circle cx="8.819" cy="287.74" r="3.087"/>
<circle cx="8.731" cy="288.27" r="2.646"/>
<circle cx="5.424" cy="288.97" r="2.469"/>
<circle cx="5.821" cy="289.33" r="2.117"/>
<circle cx="12.215" cy="289.59" r="1.852"/>
<circle cx="11.642" cy="289.86" r="1.587"/>
<path d="M5.424 288.05h6.791v3.395H5.424Z"/>
<path d="M5.821 288.53h5.821v2.91H5.821Z"/>
</g>
<path fill="#1793e6" d="M-171.183-135.146a18.745 18.745 0 1 0 0 37.49 18.745 18.745 0 0 0 0-37.49m.08 8.229a10.58 10.58 0 0 1 10.58 10.582 10.58 10.58 0 0 1-10.58 10.581 10.58 10.58 0 0 1-10.583-10.581 10.58 10.58 0 0 1 10.582-10.582z" style="stroke-width:13.1449"/>
<path fill="#1793e6" d="M-149.98-115.034c-4.916 0-9.307 1.945-12.645 5.021l5.363 6.205a11 11 0 0 1 1.42-1.183 9.4 9.4 0 0 1 4.679-1.67c.578-.052 1.183-.026 1.84 0a9.87 9.87 0 0 1 8.715 5.692 10.9 10.9 0 0 1 1.118 5.284v.027a4.114 4.114 0 0 0 8.215 0v-.67a12 12 0 0 0-.053-.96l-.013-.132-.013-.328h-.013a18.68 18.68 0 0 0-18.626-17.286m-42.774-.053a18.745 18.745 0 1 0 0 37.49 18.745 18.745 0 0 0 0-37.49m.08 8.23a10.58 10.58 0 0 1 10.568 10.58 10.58 10.58 0 0 1-10.569 10.582 10.58 10.58 0 0 1-10.581-10.581 10.58 10.58 0 0 1 10.581-10.582z" style="stroke-width:13.1449"/>
<path fill="#f44" d="M6.973 7.471c-.365 0-.744.04-1.094.094a2.84 2.84 0 0 1 1.719 2.594c0 .16-.036.316-.063.469a3.84 3.84 0 0 1 2.938 2.063c.791 1.577.522 3.357-.719 4.594.962-.959 2.934-2.702 4.156-3.844-.512-3.375-3.409-5.969-6.938-5.969Z" filter="url(#a)" style="filter:url(#d)" transform="translate(-211.511 -135.198)scale(2.67814)"/>
<path fill="#1793e6" d="m-184.63-81.83-8.57.342 30.167-27.999 5.39 6.047-23.398 21.728z" style="stroke-width:13.1449"/>
<circle cx="-135.192" cy="-84.722" r="4.022" fill="#1793e6" style="stroke-width:13.1449"/>
</g>
</svg>
