<svg xmlns="http://www.w3.org/2000/svg" xmlns:xlink="http://www.w3.org/1999/xlink" xml:space="preserve" width="24" height="24" viewBox="0 0 6.35 6.35">
<defs>
<radialGradient id="a" cx="0" cy="0" r="1" gradientTransform="rotate(90 8.168 2.354)scale(5.82083)" gradientUnits="userSpaceOnUse">
<stop stop-color="#555"/>
<stop offset="1" stop-color="#222"/>
</radialGradient>
<radialGradient xlink:href="#a" id="b" cx="0" cy="0" r="1" gradientTransform="rotate(90 1.455 1.72)scale(5.82083)" gradientUnits="userSpaceOnUse"/>
</defs>
<path fill="url(#a)" fill-rule="evenodd" d="M2.539.295a.3.3 0 0 0 .09-.012 8 8 0 0 1 1.14.003 3.5 3.5 0 0 1 1 .224q.805.33 1.1 1.148.17.492.2 1.012.044.652-.03 1.302a3.1 3.1 0 0 1-.236.879A1.87 1.87 0 0 1 4.71 5.86q-.613.207-1.26.218a5.7 5.7 0 0 1-1.443-.11Q.691 5.677.384 4.367a5 5 0 0 1-.118-1.193q-.015-.643.136-1.267Q.724.681 1.957.39a3.6 3.6 0 0 1 .582-.094Z" clip-rule="evenodd" style="fill:url(#b);stroke-width:.264583"/>
<path d="M4.882 3.014a2.25 2.25 0 0 0-2.249 2.249 2.3 2.3 0 0 0 .152.81q.33.022.662.004.65-.01 1.262-.218.757-.277 1.094-1.008.181-.422.237-.878.034-.306.042-.613a2.25 2.25 0 0 0-1.2-.346" style="fill:#069;fill-opacity:1;stroke-width:.531281;paint-order:markers stroke fill"/>
<g style="stroke-width:.663346">
<path fill="#fafafa" d="M4.924 3.295h-.627a.044.044 0 0 0-.045.043c0 .024.02.044.045.044h.627c.025 0 .045-.02.045-.044a.044.044 0 0 0-.045-.043m-.896-.78-.025.004a.04.04 0 0 0-.025.033.04.04 0 0 0 .01.032l.012.01.482.267L4 3.128a.04.04 0 0 0-.02.027.04.04 0 0 0 .004.032c.013.02.04.028.061.016l.544-.301a.04.04 0 0 0 .016-.016.04.04 0 0 0 .005-.02v-.008a.04.04 0 0 0-.005-.021.04.04 0 0 0-.016-.016l-.544-.301z" style="fill:#0f0;fill-opacity:1;stroke-width:.175511" transform="translate(-4.916 -.11)scale(1.5075)"/>
</g>
<text xml:space="preserve" x="5.144" y="2.899" style="font-weight:800;font-size:.0412253px;line-height:2;font-family:LATO;-inkscape-font-specification:&quot;LATO Ultra-Bold&quot;;text-align:end;letter-spacing:0;word-spacing:0;text-anchor:end;fill:#0f0;fill-opacity:1;stroke-width:.500002;stroke-linejoin:round;paint-order:stroke markers fill"><tspan x="5.144" y="2.899" style="font-style:normal;font-variant:normal;font-weight:400;font-stretch:normal;font-size:1.85759px;font-family:Ubuntu;-inkscape-font-specification:Ubuntu;font-variant-ligatures:normal;font-variant-caps:normal;font-variant-numeric:normal;font-variant-east-asian:normal;fill:#0f0;fill-opacity:1;stroke-width:.500002">grub</tspan></text>
<path d="M3.2.265q-.285 0-.57.017a.3.3 0 0 1-.09.013 4 4 0 0 0-.583.093q-.856.204-1.274.858h4.985Q5.353.75 4.77.51a3.6 3.6 0 0 0-1-.224A8 8 0 0 0 3.2.265" style="fill:#000;fill-opacity:.298039;stroke-width:.264583"/>
<rect width=".589" height=".294" x="1.412" y=".769" opacity=".35" ry=".148" style="stroke-width:.24134;paint-order:stroke markers fill"/>
<rect width=".294" height=".294" x="4.688" y=".769" opacity=".35" ry=".148" style="stroke-width:.24134;paint-order:stroke markers fill"/>
<rect width=".442" height=".294" x="4.099" y=".769" opacity=".35" ry=".148" style="stroke-width:.24134;paint-order:stroke markers fill"/>
<rect width=".294" height=".294" x="3.658" y=".769" opacity=".35" ry=".148" style="stroke-width:.24134;paint-order:stroke markers fill"/>
<path d="M4.883 3.857v.418a1.117 1.117 0 0 0-1.117 1.116 1.1 1.1 0 0 0 .205.644q.234-.034.461-.094a.68.68 0 0 1-.247-.55c0-.41.287-.697.698-.697v.418l.837-.628z" style="fill:#f2f2f2;fill-opacity:1;stroke-width:.531281;paint-order:markers stroke fill"/>
</svg>
