<svg xmlns="http://www.w3.org/2000/svg" xmlns:xlink="http://www.w3.org/1999/xlink" xml:space="preserve" width="24" height="24" fill="none">
<defs>
<linearGradient id="a">
<stop offset="0" style="stop-color:#2076b0;stop-opacity:1"/>
<stop offset="1" style="stop-color:#08b6eb;stop-opacity:1"/>
</linearGradient>
<linearGradient xlink:href="#a" id="b" x1="12.102" x2="12.051" y1="38.898" y2="-.763" gradientUnits="userSpaceOnUse"/>
<linearGradient xlink:href="#a" id="d" x1="12.102" x2="12.051" y1="38.898" y2="-.763" gradientUnits="userSpaceOnUse"/>
<linearGradient xlink:href="#a" id="c" x1="12.102" x2="12.051" y1="38.898" y2="-.763" gradientUnits="userSpaceOnUse"/>
</defs>
<g style="fill:url(#b);fill-opacity:1">
<g style="fill:url(#c);fill-opacity:1">
<path d="M50 5C9.09 5 5 25.455 5 50c0 32.727 12.273 45 45 45s45-12.273 45-45c0-24.545-4.09-45-45-45" style="font-variation-settings:normal;display:inline;opacity:1;vector-effect:none;fill:url(#d);fill-opacity:1;stroke-width:4.56656;stroke-linecap:butt;stroke-linejoin:miter;stroke-miterlimit:4;stroke-dasharray:none;stroke-dashoffset:0;stroke-opacity:1;-inkscape-stroke:none;stop-color:#000;stop-opacity:1" transform="translate(-1 -1)scale(.26)"/>
</g>
</g>
<path fill="#fff" d="M307.644 124.953h7.103c.976 0 1.77.795 1.77 1.77v7.103a1.776 1.776 0 0 1-1.77 1.77h-7.103a1.776 1.776 0 0 1-1.77-1.77v-7.102c0-.976.795-1.77 1.77-1.77m15.97 15.97h7.103c.98 0 1.77.794 1.77 1.77v7.102a1.77 1.77 0 0 1-1.77 1.77h-7.103a1.77 1.77 0 0 1-1.77-1.77v-7.102c0-.976.795-1.77 1.77-1.77m0 0" style="stroke-width:5.02992" transform="translate(-127.544 -48.446)scale(.43719)"/>
<g fill="#ffcf36">
<path d="M6.179 11.999a1.16 1.16 0 0 0-1.161 1.165v4.653a1.16 1.16 0 0 0 1.163 1.166h4.653c.647 0 1.166-.52 1.166-1.166v-4.653a1.16 1.16 0 0 0-1.166-1.165m-4.653.582h4.653a.58.58 0 0 1 .583.583v4.653a.58.58 0 0 1-.583.583H6.181a.58.58 0 0 1-.583-.583v-4.653a.58.58 0 0 1 .583-.583m0 0"/>
<path d="M6.762 13.164h3.492c.32 0 .58.26.58.58v3.493a.583.583 0 0 1-.58.58H6.762a.583.583 0 0 1-.58-.58v-3.492a.58.58 0 0 1 .58-.581m6.401-8.147a1.16 1.16 0 0 0-1.165 1.165v4.653c0 .647.519 1.166 1.165 1.166h4.653c.647 0 1.166-.52 1.166-1.166V6.182a1.16 1.16 0 0 0-1.166-1.165m-4.653.582h4.653a.58.58 0 0 1 .583.583v4.653a.58.58 0 0 1-.583.583h-4.653a.58.58 0 0 1-.583-.583V6.182a.58.58 0 0 1 .583-.583m0 0"/>
<path d="M13.744 6.182h3.492c.32 0 .58.26.58.58v3.493a.583.583 0 0 1-.58.58h-3.492a.583.583 0 0 1-.581-.58V6.763c0-.321.262-.58.58-.58m0 0"/>
</g>
</svg>
