<svg xmlns="http://www.w3.org/2000/svg" xml:space="preserve" width="24" height="24" version="1">
<defs>
<radialGradient id="a" cx="0" cy="0" r="1" gradientTransform="matrix(0 22 -22 0 12 1)" gradientUnits="userSpaceOnUse">
<stop stop-color="#8FC8FF"/>
<stop offset="1" stop-color="#0056A8"/>
</radialGradient>
</defs>
<g style="fill:none">
<path fill="url(#a)" fill-rule="evenodd" d="M9.596 1.114q.18.001.344-.046a32 32 0 0 1 4.307.011 13.5 13.5 0 0 1 3.78.848q3.039 1.25 4.158 4.339.64 1.86.756 3.824a28 28 0 0 1-.114 4.923 11.9 11.9 0 0 1-.894 3.32q-1.276 2.764-4.135 3.813a15.6 15.6 0 0 1-4.765.825 21.4 21.4 0 0 1-5.453-.413q-4.967-1.106-6.128-6.056a19 19 0 0 1-.447-4.511 18.5 18.5 0 0 1 .515-4.786q1.217-4.629 5.877-5.736a14 14 0 0 1 2.199-.355" clip-rule="evenodd" style="fill:url(#a)"/>
</g>
<path fill="none" stroke="#fff" stroke-linecap="square" stroke-width=".688" d="m8.562 8.906 6.188 6.188-3.094 2.922V5.984l3.094 2.922-6.188 5.5"/>
</svg>
