<svg xmlns="http://www.w3.org/2000/svg" xml:space="preserve" width="24" height="24" viewBox="0 0 6.35 6.35">
<defs>
<radialGradient id="a" cx="0" cy="0" r="1" fx="0" fy="0" gradientTransform="matrix(0 16.5 -16.5 0 9 .75)" gradientUnits="userSpaceOnUse" spreadMethod="pad">
<stop offset="0" style="stop-color:#fff;stop-opacity:1"/>
<stop offset="1" style="stop-color:#4b81c4;stop-opacity:1"/>
</radialGradient>
<linearGradient id="b" x1="45" x2="45" y1="54" y2="21" gradientUnits="userSpaceOnUse">
<stop offset="0"/>
<stop offset="1" stop-opacity="0"/>
</linearGradient>
</defs>
<path d="M7.195.836q.135 0 .258-.035a24 24 0 0 1 3.231.008 10.3 10.3 0 0 1 2.836.636q2.278.938 3.121 3.254.476 1.396.566 2.867a21 21 0 0 1-.086 3.696 9 9 0 0 1-.672 2.488q-.957 2.074-3.101 2.859a11.7 11.7 0 0 1-3.575.618 16 16 0 0 1-4.089-.309c-2.481-.551-4.016-2.066-4.594-4.543a14.2 14.2 0 0 1-.336-3.383q-.041-1.818.387-3.59.914-3.468 4.406-4.3A10 10 0 0 1 7.195.836" style="fill:url(#a);fill-rule:evenodd;stroke:none;stroke-width:.99975004;stroke-dasharray:none" transform="translate(.022 -.08)scale(.35277)"/>
<g stroke-width=".778">
<path fill="#4b81c4" d="M2.727 1.33c-.839.027-1.42.82-1.42 1.848 0 1.027.662 1.887 1.432 1.9.696.012 1.445-.845 1.694-1.51.116.323.343.739.748.739 0 0-.189-.583-.189-1.118s.19-1.087.19-1.087c-.413 0-.642.426-.756.746-.252-.578-.978-1.507-1.699-1.518"/>
<path fill="#fff" d="M2.819 2.323a.567.882 0 1 1-1.134 0 .567.882 0 1 1 1.134 0" opacity=".9"/>
<path fill="#75bfd4" d="M2.819 2.323c-.094-.098-.402-.684-1.134-.312 0-.372.127-.901.543-.901.532.02.59.84.59 1.213z"/>
<path fill="#272b2d" d="M2.441 2.433a.189.22 0 0 1-.378 0 .189.22 0 1 1 .378 0"/>
<path fill="#fff" d="M2.3 2.334a.095.11 0 0 1-.19 0 .095.11 0 1 1 .19 0" opacity=".35"/>
<path fill="#75bfd4" d="M2.252 3.921c0 .213-.526.386-.709.386a.33.386 0 0 1 0-.772c.183 0 .709.173.709.386"/>
<path fill="url(#b)" d="M59 20.428c-5.613 0-8.726 4.964-10.273 8.701-.688-1.355-1.648-2.878-2.805-4.443a36 36 0 0 1 .045 1.281 35.6 35.6 0 0 1-13.14 27.594c7.046-3.105 13.446-10.203 15.993-16.037 1.576 3.765 4.667 8.62 10.18 8.62 0 0-2.572-6.797-2.572-13.042 0-6.244 2.572-12.674 2.572-12.674" opacity=".15" style="fill:url(#b)" transform="matrix(.0735 0 0 .08575 .845 .35)"/>
</g>
</svg>
