<svg xmlns="http://www.w3.org/2000/svg" width="24" height="24" fill="none">
<path fill="url(#a)" fill-rule="evenodd" d="M9.596 1.114q.18.001.344-.046a32 32 0 0 1 4.307.011q1.951.153 3.78.848 3.038 1.25 4.158 4.339.64 1.86.756 3.824a28 28 0 0 1-.114 4.923 11.9 11.9 0 0 1-.894 3.32q-1.276 2.764-4.135 3.813a15.6 15.6 0 0 1-4.765.825 21.4 21.4 0 0 1-5.453-.413q-4.967-1.106-6.128-6.056a19 19 0 0 1-.447-4.511 18.5 18.5 0 0 1 .515-4.786q1.217-4.629 5.877-5.736a14 14 0 0 1 2.199-.355" clip-rule="evenodd"/>
<path fill="#fff" d="M12 4a8 8 0 0 0-1.333.114v11.22a.666.666 0 0 1-.667.667h-.667a.666.666 0 0 1-.666-.667V4.739A8 8 0 0 0 4 12a8 8 0 1 0 8-8m-.33 4a.3.3 0 0 1 .158.046l6 3.636a.35.35 0 0 1 .125.134.39.39 0 0 1 0 .368.35.35 0 0 1-.125.134l-6 3.636a.31.31 0 0 1-.33-.005.35.35 0 0 1-.12-.133.4.4 0 0 1-.044-.18V8.363a.4.4 0 0 1 .099-.258.3.3 0 0 1 .109-.078A.3.3 0 0 1 11.67 8"/>
<defs>
<radialGradient id="a" cx="0" cy="0" r="1" gradientTransform="matrix(0 11 -11 0 12 1)" gradientUnits="userSpaceOnUse">
<stop stop-color="#FF7886"/>
<stop offset="1" stop-color="#DD5563"/>
</radialGradient>
</defs>
</svg>
