<svg xmlns="http://www.w3.org/2000/svg" width="24" height="24" fill="none">
<defs>
<radialGradient id="a" cx="0" cy="0" r="1" fx="0" fy="0" gradientTransform="matrix(0 11 -11 0 12 1)" gradientUnits="userSpaceOnUse" spreadMethod="pad">
<stop offset="0" style="stop-color:#ff8080;stop-opacity:1"/>
<stop offset="1" style="stop-color:#de4f4f;stop-opacity:1"/>
</radialGradient>
</defs>
<path d="M9.593 1.115q.18 0 .344-.047a32 32 0 0 1 4.308.01 13.7 13.7 0 0 1 3.781.849c2.026.833 3.41 2.281 4.162 4.338.42 1.24.676 2.516.754 3.823a28.3 28.3 0 0 1-.114 4.928 12 12 0 0 1-.896 3.317q-1.276 2.766-4.135 3.812a15.6 15.6 0 0 1-4.767.824 21.3 21.3 0 0 1-5.452-.412c-3.308-.734-5.354-2.754-6.125-6.057a19 19 0 0 1-.448-4.51 18.5 18.5 0 0 1 .516-4.787q1.218-4.625 5.875-5.734a14 14 0 0 1 2.197-.354" style="fill:url(#a);fill-rule:evenodd;stroke:none;stroke-width:1.33333"/>
<path d="m16.35 1.388-.105 3.957c-.055 2.07 1.65 3.782 3.822 3.84l2.823.076a15 15 0 0 0-.573-2.773q-1.043-3.132-4.045-4.473a13.6 13.6 0 0 0-1.922-.627" style="opacity:.727273;mix-blend-mode:normal;fill:#f8f9f9;fill-opacity:1;stroke-width:2.41125;paint-order:stroke fill markers"/>
<path d="m10.084 1.055-.147.007a1.3 1.3 0 0 1-.343.047q-1.11.087-2.198.354a9.6 9.6 0 0 0-1.459.47v17.883l2.075-2.076 2.072 2.072z" style="fill:#fff;fill-opacity:1;fill-rule:evenodd;stroke:none;stroke-width:1.333;stroke-dasharray:none"/>
</svg>
