<svg xmlns="http://www.w3.org/2000/svg" width="24" height="24" fill="none">
<path fill="url(#a)" fill-rule="evenodd" d="M9.596 1.114q.18.001.344-.046a32 32 0 0 1 4.307.011q1.951.153 3.78.848 3.038 1.25 4.158 4.339.64 1.86.756 3.824a28 28 0 0 1-.114 4.923 11.9 11.9 0 0 1-.894 3.32q-1.276 2.764-4.135 3.813a15.6 15.6 0 0 1-4.765.825 21.4 21.4 0 0 1-5.453-.413q-4.967-1.106-6.128-6.056a19 19 0 0 1-.447-4.511 18.5 18.5 0 0 1 .515-4.786q1.217-4.629 5.877-5.736a14 14 0 0 1 2.199-.355" clip-rule="evenodd"/>
<path fill="url(#b)" fill-rule="evenodd" d="M10.314 3.055a1 1 0 0 1-.28.038 11.5 11.5 0 0 0-1.8.29q-3.812.907-4.808 4.694a15 15 0 0 0-.422 3.915 15.6 15.6 0 0 0 .365 3.691q.95 4.05 5.015 4.956 2.208.454 4.46.337a12.8 12.8 0 0 0 3.9-.674q2.34-.86 3.383-3.12.563-1.305.731-2.717.225-2.01.094-4.028a11.7 11.7 0 0 0-.619-3.129q-.916-2.527-3.402-3.55-1.495-.57-3.093-.693a26 26 0 0 0-3.524-.01" clip-rule="evenodd"/>
<path fill="#424242" d="M7 6a1 1 0 0 0-1 1v10a1 1 0 0 0 1 1h3.25a1 1 0 0 0 1-1v-.625a1 1 0 0 0-1-1h-.625a1 1 0 0 1-1-1v-4.75a1 1 0 0 1 1-1h.625a1 1 0 0 0 1-1V7a1 1 0 0 0-1-1zm6.75 0a1 1 0 0 0-1 1v.625a1 1 0 0 0 1 1h.625a1 1 0 0 1 1 1v4.75a1 1 0 0 1-1 1h-.625a1 1 0 0 0-1 1V17a1 1 0 0 0 1 1H17a1 1 0 0 0 1-1V7a1 1 0 0 0-1-1z"/>
<defs>
<radialGradient id="a" cx="0" cy="0" r="1" gradientTransform="matrix(0 11 -11 0 12 1)" gradientUnits="userSpaceOnUse">
<stop stop-color="#6EBBF7"/>
<stop offset="1" stop-color="#2196F3"/>
</radialGradient>
<linearGradient id="b" x1="12" x2="12" y1="3" y2="21" gradientUnits="userSpaceOnUse">
<stop stop-color="#FAFAFA"/>
<stop offset="1" stop-color="#CCC"/>
</linearGradient>
</defs>
</svg>
