<svg xmlns="http://www.w3.org/2000/svg" xmlns:xlink="http://www.w3.org/1999/xlink" xml:space="preserve" width="24" height="24" fill="none">
<defs>
<linearGradient id="a">
<stop offset="0" style="stop-color:#01b8de;stop-opacity:1"/>
<stop offset="1" style="stop-color:#0175ba;stop-opacity:1"/>
</linearGradient>
<linearGradient id="b">
<stop offset="0" style="stop-color:#0175ba;stop-opacity:1"/>
<stop offset="1" style="stop-color:#01b8de;stop-opacity:1"/>
</linearGradient>
<linearGradient id="c">
<stop offset="0" style="stop-color:#02679a;stop-opacity:1"/>
<stop offset="1" style="stop-color:#039de2;stop-opacity:1"/>
</linearGradient>
<linearGradient xlink:href="#a" id="e" x1="66.83" x2="125.669" y1="127.445" y2="93.474" gradientUnits="userSpaceOnUse"/>
<linearGradient xlink:href="#b" id="g" x1=".967" x2="16.004" y1="14.854" y2="14.854" gradientTransform="translate(-80.879 -17.72)scale(3.7796)" gradientUnits="userSpaceOnUse"/>
<linearGradient xlink:href="#c" id="f" x1="66.83" x2="125.669" y1="127.445" y2="93.474" gradientUnits="userSpaceOnUse"/>
<radialGradient id="d" cx="0" cy="0" r="1" fx="0" fy="0" gradientTransform="matrix(0 16.5 -16.5 0 9 .75)" gradientUnits="userSpaceOnUse" spreadMethod="pad">
<stop offset="0" style="stop-opacity:1;stop-color:#fafafa"/>
<stop offset="1" style="stop-opacity:1;stop-color:#b0b0b0"/>
</radialGradient>
</defs>
<path d="M7.453.801a1 1 0 0 1-.258.035 10 10 0 0 0-1.648.266q-3.492.831-4.406 4.3a14 14 0 0 0-.387 3.59q-.034 1.712.336 3.383c.578 2.477 2.113 3.992 4.594 4.543 1.351.277 2.714.383 4.089.309a11.7 11.7 0 0 0 3.575-.618q2.145-.784 3.101-2.859a9 9 0 0 0 .672-2.488q.204-1.845.086-3.696-.09-1.471-.566-2.867-.844-2.315-3.121-3.254a10.3 10.3 0 0 0-2.836-.636A24 24 0 0 0 7.453.801" style="fill:url(#d);fill-rule:evenodd;stroke:none" transform="scale(1.33333)"/>
<g transform="translate(23.736 8.572)scale(.2401)">
<g style="fill:url(#e);fill-opacity:1">
<path d="M69.254 83.606a4.62 4.62 0 0 0-4.63 4.628v36.717a4.62 4.62 0 0 0 4.63 4.628h52.436a4.62 4.62 0 0 0 4.629-4.628V88.234a4.62 4.62 0 0 0-4.629-4.628z" style="fill:url(#f);fill-opacity:1;stroke-width:1.805;stroke-linecap:square;stroke-linejoin:round;paint-order:markers stroke fill" transform="translate(-145.559 -100.003)scale(1.01266)"/>
</g>
<g style="fill:#f7cb37;fill-opacity:1" transform="translate(-218.934 -97.442)scale(.63695)">
<rect width="4.597" height="10.708" x="264.686" y="180.154" rx="2.298" ry="2.298" style="fill:#f7cb37;fill-opacity:1;stroke-width:1.805;stroke-linecap:square;stroke-linejoin:round;paint-order:markers stroke fill"/>
<rect width="4.597" height="10.708" x="264.686" y="140.029" rx="2.298" ry="2.298" style="fill:#f7cb37;fill-opacity:1;stroke-width:1.805;stroke-linecap:square;stroke-linejoin:round;paint-order:markers stroke fill"/>
<rect width="4.597" height="10.708" x="303.476" y="-57.091" rx="2.298" ry="2.298" style="fill:#f7cb37;fill-opacity:1;stroke-width:1.805;stroke-linecap:square;stroke-linejoin:round;paint-order:markers stroke fill" transform="rotate(45)"/>
<rect width="4.597" height="10.708" x="303.476" y="-97.216" rx="2.298" ry="2.298" style="fill:#f7cb37;fill-opacity:1;stroke-width:1.805;stroke-linecap:square;stroke-linejoin:round;paint-order:markers stroke fill" transform="rotate(45)"/>
<rect width="4.597" height="10.708" x="163.147" y="-252.276" rx="2.298" ry="2.298" style="fill:#f7cb37;fill-opacity:1;stroke-width:1.805;stroke-linecap:square;stroke-linejoin:round;paint-order:markers stroke fill" transform="rotate(90)"/>
<rect width="4.597" height="10.708" x="163.147" y="-292.401" rx="2.298" ry="2.298" style="fill:#f7cb37;fill-opacity:1;stroke-width:1.805;stroke-linecap:square;stroke-linejoin:round;paint-order:markers stroke fill" transform="rotate(90)"/>
<rect width="4.597" height="10.708" x="-74.098" y="-291.065" rx="2.298" ry="2.298" style="fill:#f7cb37;fill-opacity:1;stroke-width:1.805;stroke-linecap:square;stroke-linejoin:round;paint-order:markers stroke fill" transform="rotate(135)"/>
<rect width="4.597" height="10.708" x="-74.098" y="-331.19" rx="2.298" ry="2.298" style="fill:#f7cb37;fill-opacity:1;stroke-width:1.805;stroke-linecap:square;stroke-linejoin:round;paint-order:markers stroke fill" transform="rotate(135)"/>
</g>
<path d="M-48.879 1.224a6.714 6.714 0 0 0-6.714 6.714 6.714 6.714 0 0 0 6.714 6.714 6.714 6.714 0 0 0 6.714-6.714 6.714 6.714 0 0 0-6.714-6.714m0 1.906a4.81 4.81 0 0 1 4.808 4.808 4.81 4.81 0 0 1-4.808 4.808 4.81 4.81 0 0 1-4.807-4.808A4.81 4.81 0 0 1-48.88 3.13" style="fill:#f7cb37;fill-opacity:1;stroke-width:1.18125;stroke-linecap:square;stroke-linejoin:round;paint-order:markers stroke fill"/>
<path d="M-48.832 3.767v8.35a4.176 4.176 0 0 0 4.171-4.175 4.176 4.176 0 0 0-4.17-4.175" style="fill:#35495e;fill-opacity:1;stroke-width:.734668;stroke-linecap:square;stroke-linejoin:round;paint-order:markers stroke fill"/>
<rect width="62.448" height="4.258" x="-80.103" y="36.355" rx="2.129" ry="2.129" style="fill:url(#g);fill-opacity:1;stroke-width:1.35109;stroke-linecap:square;stroke-linejoin:round;paint-order:markers stroke fill"/>
<rect width="5.935" height="10.828" x="-71.747" y="33.07" rx="2.968" ry="2.968" style="fill:#f7cb37;fill-opacity:1;stroke-width:1.82784;stroke-linecap:square;stroke-linejoin:round;paint-order:markers stroke fill"/>
</g>
</svg>
