<svg xmlns="http://www.w3.org/2000/svg" xml:space="preserve" width="24" height="24">
<defs>
<radialGradient id="a" cx="0" cy="0" r="1" gradientTransform="matrix(0 22 -22 0 12 1)" gradientUnits="userSpaceOnUse">
<stop offset="0" stop-color="#555" style="stop-color:#919191;stop-opacity:1"/>
<stop offset="1" stop-color="#222" style="stop-color:#4e4e4e;stop-opacity:1"/>
</radialGradient>
<radialGradient id="b" cx="0" cy="0" r="1" gradientTransform="matrix(0 22 -22 0 12 1)" gradientUnits="userSpaceOnUse">
<stop stop-color="#555"/>
<stop offset="1" stop-color="#222"/>
</radialGradient>
</defs>
<path fill="url(#a)" fill-rule="evenodd" d="M9.596 1.114q.18.001.344-.046a32 32 0 0 1 4.307.011q1.951.153 3.78.848 3.038 1.25 4.158 4.339.64 1.86.756 3.824a28 28 0 0 1-.115 4.923 11.9 11.9 0 0 1-.893 3.32q-1.276 2.764-4.135 3.813a15.6 15.6 0 0 1-4.766.825 21.4 21.4 0 0 1-5.452-.412q-4.967-1.107-6.128-6.057a19 19 0 0 1-.447-4.511 18.5 18.5 0 0 1 .515-4.786q1.217-4.629 5.877-5.736a14 14 0 0 1 2.199-.355" clip-rule="evenodd" style="fill:url(#b)"/>
<path d="M8.102 6.061V19h6.976v-2.475h1.13v-3h-1.13v-1.968h1.13V8.555h-1.13V6.061Z" style="fill:#363636;fill-opacity:1;stroke-width:1.88976;stroke-linejoin:round;paint-order:stroke markers fill"/>
<path d="M8.289 6.249v12.564h6.602v-2.475h1.13v-2.626h-1.13v-2.343h1.13V8.742h-1.13V6.25z" style="fill:#080808;fill-opacity:1;stroke-width:1.88976;stroke-linejoin:round;paint-order:stroke markers fill"/>
<path d="M8.476 6.436v12.19h6.228V16.15h1.13v-2.252h-1.13v-2.717h1.13V8.93h-1.13V6.436z" style="fill:#363636;fill-opacity:1;stroke-width:1.88976;stroke-linejoin:round;paint-order:stroke markers fill"/>
<path d="M8.663 6.623v11.815h5.854v-2.475h1.13v-1.877h-1.13v-3.091h1.13V9.117h-1.131V6.623z" style="fill:#000;fill-opacity:1;stroke-width:1.88976;stroke-linejoin:round;paint-order:stroke markers fill"/>
<path d="M10.308 13.505h4.103v3.39h-4.103z" style="fill:#363636;fill-opacity:1;stroke-width:1.88978;stroke-linejoin:round;paint-order:stroke markers fill"/>
<path d="M10.451 13.676h3.817v3.048h-3.817z" style="fill:#000;fill-opacity:1;stroke-width:1.88976;stroke-linejoin:round;paint-order:stroke markers fill"/>
<path d="M10.589 13.811h3.541v2.778h-3.541z" style="fill:#363636;fill-opacity:1;stroke-width:1.88977;stroke-linejoin:round;paint-order:stroke markers fill"/>
<path d="M10.712 13.951h3.294v2.498h-3.294z" style="fill:#4d4d4d;fill-opacity:1;stroke-width:1.88976;stroke-linejoin:round;paint-order:stroke markers fill"/>
<path d="M10.308 8.59h4.103v3.39h-4.103z" style="fill:#363636;fill-opacity:1;stroke-width:1.88978;stroke-linejoin:round;paint-order:stroke markers fill"/>
<path d="M10.451 8.762h3.817v3.048h-3.817z" style="fill:#000;fill-opacity:1;stroke-width:1.88976;stroke-linejoin:round;paint-order:stroke markers fill"/>
<path d="M10.589 8.896h3.541v2.778h-3.541z" style="fill:#363636;fill-opacity:1;stroke-width:1.88977;stroke-linejoin:round;paint-order:stroke markers fill"/>
<path d="M10.712 9.037h3.294v2.498h-3.294z" style="fill:#4d4d4d;fill-opacity:1;stroke-width:1.88976;stroke-linejoin:round;paint-order:stroke markers fill"/>
<path d="M7.792 5h6.559v2.466H7.792z" style="fill:red;fill-opacity:1;stroke-width:1.88976;stroke-linejoin:round;paint-order:stroke markers fill"/>
<path d="M7.792 9.995h6.559v2.466H7.792z" style="fill:#af0000;fill-opacity:1;stroke-width:1.88976;stroke-linejoin:round;paint-order:stroke markers fill"/>
<path d="M7.792 14.99h6.559v2.466H7.792z" style="fill:#5f0000;fill-opacity:1;stroke-width:1.88976;stroke-linejoin:round;paint-order:stroke markers fill"/>
<path d="M7.792 7.497h2.163v2.466H7.792zm5.484 0h2.163v2.466h-2.163z" style="fill:#d70000;fill-opacity:1;stroke-width:1.88976;stroke-linejoin:round;paint-order:stroke markers fill"/>
<path d="M7.792 12.492h2.163v2.466H7.792zm5.484 0h2.163v2.466h-2.163z" style="fill:#870000;fill-opacity:1;stroke-width:1.88976;stroke-linejoin:round;paint-order:stroke markers fill"/>
</svg>
