<svg xmlns="http://www.w3.org/2000/svg" xmlns:xlink="http://www.w3.org/1999/xlink" xml:space="preserve" width="24" height="24" fill="none">
<defs>
<linearGradient id="a">
<stop offset="0" style="stop-color:#f04964;stop-opacity:1"/>
<stop offset="1" style="stop-color:#fb8e96;stop-opacity:1"/>
</linearGradient>
<linearGradient xlink:href="#a" id="b" x1="12.305" x2="12" y1="56.034" y2="-4.373" gradientUnits="userSpaceOnUse"/>
<linearGradient xlink:href="#a" id="d" x1="12.305" x2="12" y1="56.034" y2="-4.373" gradientUnits="userSpaceOnUse"/>
<linearGradient xlink:href="#a" id="c" x1="12.305" x2="12" y1="56.034" y2="-4.373" gradientUnits="userSpaceOnUse"/>
</defs>
<g style="fill:url(#b);fill-opacity:1">
<g style="display:inline;fill:url(#c);fill-opacity:1">
<path d="M50 5C9.09 5 5 25.455 5 50c0 32.727 12.273 45 45 45s45-12.273 45-45c0-24.545-4.09-45-45-45" style="font-variation-settings:normal;display:inline;opacity:1;vector-effect:none;fill:url(#d);fill-opacity:1;stroke-width:4.56656;stroke-linecap:butt;stroke-linejoin:miter;stroke-miterlimit:4;stroke-dasharray:none;stroke-dashoffset:0;stroke-opacity:1;-inkscape-stroke:none;stop-color:#000;stop-opacity:1" transform="translate(-1 -1)scale(.26)"/>
</g>
</g>
<path d="M416.657 50.654c0 4.292-9.54 17.383-9.54 17.383s-9.541-13.09-9.541-17.383 4.272-7.773 9.54-7.773c5.269 0 9.541 3.48 9.541 7.773" style="fill:#fff;fill-opacity:1;stroke:none;stroke-width:.945665;stroke-opacity:1;paint-order:markers fill stroke;image-rendering:optimizeSpeed" transform="translate(-82.828 -4.917)scale(.23293)"/>
<path d="m407.116 68.038 4.725 8.235 4.725 8.235h-18.9l4.726-8.235z" style="fill:#fff;fill-opacity:1;stroke:none;stroke-width:5.39198;stroke-miterlimit:4;stroke-dasharray:none;stroke-opacity:1;paint-order:markers fill stroke;image-rendering:optimizeSpeed" transform="translate(-82.828 -4.917)scale(.23293)"/>
<path d="M426.756 101.512c-3.694-2.145-10.19-17.004-10.19-17.004s16.036-1.77 19.73.376c3.695 2.146 4.555 7.608 1.92 12.2s-7.765 6.574-11.458 4.428zm-48.82-16.628c3.695-2.146 19.73-.376 19.73-.376s-6.495 14.859-10.191 17.004c-3.693 2.146-8.823.163-11.458-4.427-2.635-4.593-1.775-10.055 1.92-12.201z" style="fill:#fff;fill-opacity:1;stroke:none;stroke-width:.945665;stroke-opacity:1;paint-order:markers fill stroke;image-rendering:optimizeSpeed" transform="translate(-82.828 -4.917)scale(.23293)"/>
</svg>
