<svg xmlns="http://www.w3.org/2000/svg" xmlns:xlink="http://www.w3.org/1999/xlink" xml:space="preserve" width="24" height="24" fill="none">
<defs>
<linearGradient id="a">
<stop offset="0" style="stop-color:#ead192;stop-opacity:1"/>
<stop offset="1" style="stop-color:#fef5ec;stop-opacity:1"/>
</linearGradient>
<linearGradient xlink:href="#a" id="c" x1="7.797" x2="17.925" y1="-22.894" y2="-33.441" gradientTransform="translate(-.693 40)" gradientUnits="userSpaceOnUse"/>
<radialGradient id="b" cx="0" cy="0" r="1" gradientTransform="matrix(0 22 -22 0 12 1)" gradientUnits="userSpaceOnUse">
<stop offset="0" stop-color="#555" style="stop-color:#b16040;stop-opacity:1"/>
<stop offset="1" stop-color="#222" style="stop-color:#5b3326;stop-opacity:1"/>
</radialGradient>
</defs>
<path fill="url(#caffeine_svg__paint0_radial_3_321)" fill-rule="evenodd" d="M9.596 1.114q.18.001.344-.046a32 32 0 0 1 4.307.011q1.951.153 3.78.848 3.038 1.25 4.158 4.339.64 1.86.756 3.824a28 28 0 0 1-.115 4.923 11.9 11.9 0 0 1-.893 3.32q-1.276 2.764-4.135 3.813a15.6 15.6 0 0 1-4.766.825 21.4 21.4 0 0 1-5.452-.412q-4.967-1.107-6.128-6.057a19 19 0 0 1-.447-4.511 18.5 18.5 0 0 1 .515-4.786q1.217-4.629 5.877-5.736a14 14 0 0 1 2.199-.355" clip-rule="evenodd" style="fill:url(#b)"/>
<path fill="#fff" d="M6.685 10.613v5.084a1.845 1.845 0 0 0 1.849 1.85h4.622a1.845 1.845 0 0 0 1.848-1.85h.462a1.845 1.845 0 0 0 1.85-1.848v-.463a1.845 1.845 0 0 0-1.85-1.848h-.462v-.925zm8.32 1.85h.461c.512 0 .925.411.925.924v.462a.92.92 0 0 1-.925.924h-.462Zm-6.471-6.01c-.925 0-1.618.74-1.618 1.202 0 .853 1.155 1.11 1.155 1.572 0 .555-.462.696-.924.924.924 0 1.618-.416 1.618-.924 0-.925-1.156-1.076-1.156-1.618 0-.693 1.055-1.155.925-1.155zm2.773 0c-.924 0-1.618.74-1.618 1.202 0 .853 1.156 1.11 1.156 1.572 0 .555-.462.696-.925.924.925 0 1.618-.416 1.618-.924 0-.925-1.155-1.076-1.155-1.618 0-.693 1.054-1.155.924-1.155zm2.542 0c-.925 0-1.618.74-1.618 1.202 0 .853 1.156 1.11 1.156 1.572 0 .555-.463.696-.925.924.925 0 1.618-.416 1.618-.924 0-.925-1.156-1.076-1.156-1.618 0-.693 1.055-1.155.925-1.155z" style="fill:url(#c);stroke-width:.393727"/>
</svg>
