<svg width="24" height="24" fill="none" version="1.1" xmlns="http://www.w3.org/2000/svg"><path d="m11.787 1.0054a32 32 0 0 0-1.8457 0.058594c-0.10933 0.030667-0.22375 0.044922-0.34375 0.044922a14 14 0 0 0-2.1992 0.35547c-3.104 0.73933-5.061 2.6498-5.873 5.7324a18.5 18.5 0 0 0-0.51562 4.7891 19 19 0 0 0 0.44727 4.5098c0.77 3.302 2.817 5.3216 6.125 6.0566a21.3 21.3 0 0 0 5.4512 0.41211 15.6 15.6 0 0 0 4.7676-0.82422c1.906-0.69733 3.2848-1.9685 4.1348-3.8125a12 12 0 0 0 0.89453-3.3164 28.3 28.3 0 0 0 0.16602-2.4609v-1.2715a28.3 28.3 0 0 0 0-0.07617 28.3 28.3 0 0 0-0.05078-1.1191c-0.08-1.308-0.33058-2.5823-0.75391-3.8223-0.75-2.0587-2.1381-3.5052-4.1621-4.3398a13.7 13.7 0 0 0-3.7812-0.84766 32 32 0 0 0-1.8828-0.068359z" fill="url(#a)" stroke="#808080" stroke-opacity=".2" vector-effect="non-scaling-stroke" style="-inkscape-stroke:hairline"/><g transform="matrix(1.1237 0 0 1.1237 -1.4517 -1.5189)" fill="#1a1a1a" opacity=".15" stroke-width=".99629"><g transform="matrix(1.0074 0 0 1 -.724 .038)" filter="url(#b)" opacity=".7"><path d="m11.497 10.31v-3.543c0-1.1-0.46-1.544-1.605-1.544h-2.907c-1.144 0-1.605 0.445-1.605 1.544v3.534c0 1.107 0.46 1.544 1.605 1.544h2.907c1.144 8e-3 1.605-0.437 1.605-1.537z" fill="#1a1a1a" stroke-width=".99629"/></g><g transform="matrix(1.0074 0 0 1 -.724 .038)" filter="url(#c)" opacity=".7"><path d="m11.497 18.163v-3.54c0-1.1-0.46-1.545-1.605-1.545h-2.907c-1.144 0-1.605 0.445-1.605 1.544v3.534c0 1.107 0.46 1.544 1.605 1.544h2.907c1.144 8e-3 1.605-0.437 1.605-1.537" fill="#1a1a1a" stroke-width=".99629"/></g><g transform="matrix(1.0074 0 0 1 -.724 .038)" filter="url(#d)" opacity=".7"><path d="m18.886 10.31v-3.543c0-1.1-0.461-1.544-1.605-1.544h-2.908c-1.144 0-1.604 0.445-1.604 1.544v3.534c0 1.107 0.46 1.544 1.604 1.544h2.908c1.144 8e-3 1.605-0.437 1.605-1.537z" fill="#1a1a1a" stroke-width=".99629"/></g><g transform="matrix(1.0074 0 0 1 -.724 .038)" filter="url(#e)" opacity=".7"><path d="m18.886 18.163v-3.54c0-1.1-0.461-1.545-1.605-1.545h-2.908c-1.144 0-1.604 0.445-1.604 1.544v3.534c0 1.107 0.46 1.544 1.604 1.544h2.908c1.144 8e-3 1.605-0.437 1.605-1.537" fill="#1a1a1a" stroke-width=".99629"/></g></g><g stroke-width="1.1237"><path d="m11.305 9.6452v-3.978c0-1.2361-0.51691-1.7361-1.8035-1.7361h-3.2667c-1.2855 0-1.8035 0.50006-1.8035 1.735v3.9701c0 1.2451 0.51691 1.7361 1.8035 1.7361h3.2667c1.2855 9e-3 1.8035-0.49106 1.8035-1.7272" fill="#e6e6e6"/><path d="m9.4854 7.871h-3.2352c-0.11012 0-0.20227-0.10001-0.20227-0.21913 0-0.11912 0.092146-0.21912 0.20227-0.21912h3.2352c0.11013 0 0.20227 0.098887 0.20227 0.21912 0 0.11912-0.092145 0.21913-0.20227 0.21913" fill="#131313"/><path d="m7.8673 9.624c-0.11013 0-0.20227-0.10001-0.20227-0.21912v-3.5072c0-0.12024 0.092146-0.21912 0.20227-0.21912 0.11125 0 0.20227 0.098887 0.20227 0.21912v3.506c0 0.11912-0.091022 0.21913-0.20227 0.21913z" fill="#232323"/><path d="m11.305 18.473v-3.9802c0-1.2361-0.51691-1.735-1.8035-1.735h-3.2667c-1.2855 0-1.8035 0.50006-1.8035 1.735v3.9712c0 1.2439 0.51691 1.735 1.8035 1.735h3.2667c1.2855 9e-3 1.8035-0.49106 1.8035-1.7272z" fill="#e6e6e6"/><path d="m9.4854 16.697h-3.2352c-0.11012 0-0.20227-0.09889-0.20227-0.21913 0-0.12024 0.092146-0.21913 0.20227-0.21913h3.2352c0.11013 0 0.20227 0.09888 0.20227 0.21913 0 0.12024-0.092145 0.21913-0.20227 0.21913" fill="#000"/><path d="m19.607 9.6452v-3.978c0-1.2361-0.51691-1.7361-1.8024-1.7361h-3.2678c-1.2855 0-1.8024 0.50006-1.8024 1.735v3.9701c0 1.2451 0.51691 1.7361 1.8024 1.7361h3.2678c1.2855 9e-3 1.8035-0.49106 1.8035-1.7272z" fill="#e6e6e6"/><path d="m17.584 6.4819-2.5283 2.7251a0.21351 0.21351 0 0 1-0.31576 0 0.25845 0.25845 0 0 1-0.0011-0.34274l2.5272-2.7251a0.21351 0.21351 0 0 1 0.31689 0 0.25845 0.25845 0 0 1 0 0.34274z" fill="#010101"/></g><path d="m15.067 7.0427c0.27419 0 0.49668-0.23936 0.49668-0.53489 0-0.29554-0.2225-0.53489-0.49556-0.53489-0.27419 0-0.49556 0.23936-0.49556 0.53489 0 0.29554 0.22137 0.53489 0.49444 0.53489m2.2058 2.2878c0.27419 0 0.49556-0.23936 0.49556-0.53489s-0.22137-0.53489-0.49444-0.53489c-0.27419 0-0.49668 0.23936-0.49668 0.53489s0.2225 0.53489 0.49556 0.53489" fill="#000" stroke="#090909" stroke-linecap="round" stroke-linejoin="round" stroke-width=".307"/><path d="m19.607 18.473v-3.9802c0-1.2361-0.51691-1.735-1.8024-1.735h-3.2678c-1.2855 0-1.8024 0.50006-1.8024 1.735v3.9712c0 1.2439 0.51691 1.735 1.8024 1.735h3.2678c1.2855 9e-3 1.8024-0.49106 1.8024-1.7272z" fill="url(#i)" stroke-width="1.1237"/><path d="m17.787 17.327h-3.2341c-0.11125 0-0.20227-0.09889-0.20227-0.21913 0-0.12024 0.09102-0.21913 0.20227-0.21913h3.2341c0.11125 0 0.20227 0.09889 0.20227 0.21913 0 0.12024-0.09102 0.21913-0.20227 0.21913m0-1.2597h-3.2341c-0.11125 0-0.20227-0.10113-0.20227-0.22025s0.09102-0.21913 0.20227-0.21913h3.2341c0.11125 0 0.20227 0.09888 0.20227 0.21913 0 0.12024-0.09102 0.21913-0.20227 0.21913z" fill="#fff" stroke-width="1.1237"/><defs><linearGradient id="i" x1="15.809" x2="15.809" y1="12.837" y2="19.057" gradientTransform="matrix(1.1237 0 0 1.1237 -1.4517 -1.5189)" gradientUnits="userSpaceOnUse"><stop stop-color="#ff8119" offset="0"/><stop stop-color="#C05A00" offset="1"/></linearGradient><filter id="b" x="5.344" y="5.188" width="6.189" height="6.694" color-interpolation-filters="sRGB" filterUnits="userSpaceOnUse"><feFlood flood-opacity="0" result="BackgroundImageFix"/><feBlend in="SourceGraphic" in2="BackgroundImageFix" result="shape"/><feGaussianBlur result="effect1_foregroundBlur_8_122" stdDeviation=".018"/></filter><filter id="c" x="5.344" y="13.042" width="6.189" height="6.694" color-interpolation-filters="sRGB" filterUnits="userSpaceOnUse"><feFlood flood-opacity="0" result="BackgroundImageFix"/><feBlend in="SourceGraphic" in2="BackgroundImageFix" result="shape"/><feGaussianBlur result="effect1_foregroundBlur_8_122" stdDeviation=".018"/></filter><filter id="d" x="12.732" y="5.188" width="6.189" height="6.694" color-interpolation-filters="sRGB" filterUnits="userSpaceOnUse"><feFlood flood-opacity="0" result="BackgroundImageFix"/><feBlend in="SourceGraphic" in2="BackgroundImageFix" result="shape"/><feGaussianBlur result="effect1_foregroundBlur_8_122" stdDeviation=".018"/></filter><filter id="e" x="12.732" y="13.042" width="6.189" height="6.694" color-interpolation-filters="sRGB" filterUnits="userSpaceOnUse"><feFlood flood-opacity="0" result="BackgroundImageFix"/><feBlend in="SourceGraphic" in2="BackgroundImageFix" result="shape"/><feGaussianBlur result="effect1_foregroundBlur_8_122" stdDeviation=".018"/></filter><linearGradient id="a" x1=".1" x2="1.2" y2="1" gradientTransform="matrix(22 0 0 22 -.0047796 .005446)" gradientUnits="userSpaceOnUse"><stop stop-color="#e36900" offset=".2"/><stop stop-color="#939393" offset=".20328"/><stop stop-color="#cacaca" offset="1"/></linearGradient></defs></svg>
