<svg xmlns="http://www.w3.org/2000/svg" xmlns:xlink="http://www.w3.org/1999/xlink" xml:space="preserve" width="24" height="24" fill="none">
<defs>
<linearGradient id="a">
<stop offset="0" style="stop-color:#cf5252;stop-opacity:1"/>
<stop offset="1" style="stop-color:#f29393;stop-opacity:1"/>
</linearGradient>
<linearGradient xlink:href="#a" id="b" x1="12.508" x2="12.814" y1="53.492" y2="-13.22" gradientUnits="userSpaceOnUse"/>
<linearGradient xlink:href="#a" id="d" x1="12.508" x2="12.814" y1="53.492" y2="-13.22" gradientUnits="userSpaceOnUse"/>
<linearGradient xlink:href="#a" id="c" x1="12.508" x2="12.814" y1="53.492" y2="-13.22" gradientUnits="userSpaceOnUse"/>
</defs>
<g style="fill:url(#b);fill-opacity:1">
<g style="display:inline;fill:url(#c);fill-opacity:1">
<path d="M50 5C9.09 5 5 25.455 5 50c0 32.727 12.273 45 45 45s45-12.273 45-45c0-24.545-4.09-45-45-45" style="font-variation-settings:normal;display:inline;opacity:1;vector-effect:none;fill:url(#d);fill-opacity:1;stroke-width:4.56656;stroke-linecap:butt;stroke-linejoin:miter;stroke-miterlimit:4;stroke-dasharray:none;stroke-dashoffset:0;stroke-opacity:1;-inkscape-stroke:none;stop-color:#000;stop-opacity:1" transform="translate(-1 -1)scale(.26)"/>
</g>
</g>
<path fill="#f9f9f9" d="M47.86 2.042v8.605l4.556 3.038V4.826Zm1.013 0 4.05 2.531h2.024l4.05-2.53c-2.025 0-3.037.262-5.062 2.024-2.025-1.719-3.037-2.025-5.062-2.025m11.136 0-4.556 2.784v8.859l4.556-3.038zM52.922 5.08v9.112h2.025V5.079Z" style="stroke-width:.367391" transform="translate(-41.038 3.344)scale(.97013)"/>
<g transform="translate(-29.206 -9.297)scale(.12077)">
<circle cx="365.626" cy="212.744" r="30.262" fill="#8561c5" style="stroke-width:2.01746"/>
<path fill="#fff" d="m361.591 196.604-.355 4.25A12.7 12.7 0 0 0 357.53 203l-3.865-1.82-4.035 6.99 3.51 2.436a12.7 12.7 0 0 0-.195 2.139 12.7 12.7 0 0 0 .185 2.148l-3.498 2.43 4.035 6.988 3.853-1.816a12.7 12.7 0 0 0 3.716 2.13l.355 4.261h8.07l.357-4.25a12.7 12.7 0 0 0 3.706-2.145l3.864 1.82 4.035-6.989-3.509-2.437a12.7 12.7 0 0 0 .194-2.138 12.7 12.7 0 0 0-.184-2.149l3.499-2.427-4.035-6.988-3.854 1.815a12.7 12.7 0 0 0-3.716-2.13l-.357-4.263zm4.035 11.528a4.61 4.61 0 0 1 4.612 4.612 4.61 4.61 0 0 1-4.612 4.612 4.61 4.61 0 0 1-4.612-4.612 4.61 4.61 0 0 1 4.612-4.612" style="stroke-width:2.01746"/>
</g>
</svg>
