<svg xmlns="http://www.w3.org/2000/svg" xml:space="preserve" width="24" height="24" fill="none">
<defs>
<radialGradient id="a" cx="0" cy="0" r="1" fx="0" fy="0" gradientTransform="matrix(0 11 -11 0 -22 1)" gradientUnits="userSpaceOnUse" spreadMethod="pad">
<stop offset="0" style="stop-color:#ff9aaf;stop-opacity:1"/>
<stop offset="1" style="stop-color:#ff8080;stop-opacity:1"/>
</radialGradient>
</defs>
<path d="M-24.407 1.115q.18 0 .344-.047a32 32 0 0 1 4.308.01 13.7 13.7 0 0 1 3.781.849c2.026.833 3.41 2.281 4.162 4.338.42 1.24.676 2.516.754 3.823a28.3 28.3 0 0 1-.114 4.928 12 12 0 0 1-.896 3.317q-1.276 2.766-4.135 3.812a15.6 15.6 0 0 1-4.767.824 21.3 21.3 0 0 1-5.452-.412c-3.308-.734-5.354-2.754-6.125-6.057a19 19 0 0 1-.448-4.51 18.5 18.5 0 0 1 .516-4.787q1.218-4.625 5.875-5.734a14 14 0 0 1 2.197-.354" style="fill:url(#a);fill-rule:evenodd;stroke:none;stroke-width:1.33333" transform="translate(34)"/>
<g transform="translate(68.907 4.907)">
<rect width="14.187" height="14.187" x="-64" fill="#3d3d3d" rx="1.182" style="stroke-width:.443338;paint-order:normal;image-rendering:optimizeSpeed"/>
<circle cx="-11.527" cy="-56.907" r="1.33" fill="gray" style="stroke-width:.443338;paint-order:normal;image-rendering:optimizeSpeed" transform="rotate(-90)"/>
<path fill="#fff" d="M-55.577 11.527a1.33 1.33 0 0 0-.18-.665h-1.15a.665.665 0 0 0-.665.665.665.665 0 0 0 .665.665h1.151a1.33 1.33 0 0 0 .18-.665z" opacity=".25" style="stroke-width:.443338;paint-order:normal;image-rendering:optimizeSpeed"/>
<circle cx="-11.527" cy="-61.16" r="1.33" fill="gray" style="stroke-width:.443338;paint-order:normal;image-rendering:optimizeSpeed" transform="rotate(-90)"/>
<path fill="#fff" d="M-61.16 10.197a1.33 1.33 0 0 0-.665.18v1.15a.665.665 0 0 0 .665.665.665.665 0 0 0 .665-.665v-1.151a1.33 1.33 0 0 0-.665-.18z" opacity=".25" style="stroke-width:.443338;paint-order:normal;image-rendering:optimizeSpeed"/>
<circle cx="-11.527" cy="-52.917" r="1.33" fill="gray" style="stroke-width:.443338;paint-order:normal;image-rendering:optimizeSpeed" transform="rotate(-90)"/>
<path fill="#fff" d="M-52.917 12.857a1.33 1.33 0 0 0 .665-.18v-1.15a.665.665 0 0 0-.665-.665.665.665 0 0 0-.665.665v1.15a1.33 1.33 0 0 0 .665.18" opacity=".25" style="stroke-width:.443338;paint-order:normal;image-rendering:optimizeSpeed"/>
<rect width="11.527" height="7.98" x="-62.67" y="1.33" fill="#202020" ry=".443" style="stroke-width:.443338;paint-order:normal;image-rendering:optimizeSpeed"/>
<path fill="#3af684" d="M-61.783 1.773h2.216v7.094h-2.216zm3.546 4.434h2.66v2.66h-2.66z" style="stroke-width:.443338;paint-order:normal;image-rendering:optimizeSpeed"/>
<path fill="#0eabe7" d="M-54.247 4.433h2.217v4.434h-2.217z" style="stroke-width:.443338;paint-order:normal;image-rendering:optimizeSpeed"/>
</g>
</svg>
