<svg xmlns="http://www.w3.org/2000/svg" width="24" height="24" image-rendering="optimizeSpeed">
<path d="M9.593 1.115q.18 0 .344-.047a32 32 0 0 1 4.308.01 13.7 13.7 0 0 1 3.781.849c2.026.833 3.41 2.281 4.162 4.338.42 1.24.676 2.516.754 3.823a28.3 28.3 0 0 1-.114 4.928 12 12 0 0 1-.896 3.317q-1.276 2.766-4.135 3.812a15.6 15.6 0 0 1-4.767.824 21.3 21.3 0 0 1-5.452-.412c-3.308-.734-5.354-2.754-6.125-6.057a19 19 0 0 1-.448-4.51 18.5 18.5 0 0 1 .516-4.787q1.218-4.625 5.875-5.734a14 14 0 0 1 2.197-.354" style="fill:#4d4d4d;fill-opacity:1;fill-rule:evenodd;stroke:none;stroke-width:1.33333"/>
<g style="stroke-width:2.86153852;stroke-dasharray:none" transform="translate(15.355 -1.804)scale(.41935)">
<path d="M-16.727 20.636c4.704 0 12.813 14.546 17.454 14.546" style="fill:none;fill-opacity:1;stroke:#fff;stroke-width:2.86153852;stroke-linecap:butt;stroke-linejoin:miter;stroke-miterlimit:4;stroke-dasharray:none;stroke-opacity:1"/>
<rect width="7.273" height="7.273" x="-24" y="17" ry="2.221" style="fill:#fff;fill-opacity:1;stroke:none;stroke-width:2.86153852;stroke-miterlimit:4;stroke-dasharray:none;stroke-opacity:1;paint-order:markers fill stroke"/>
<rect width="7.273" height="7.273" x="-24" y="27.182" ry="2.221" style="fill:#fff;fill-opacity:1;stroke:none;stroke-width:2.86153852;stroke-miterlimit:4;stroke-dasharray:none;stroke-opacity:1;paint-order:markers fill stroke"/>
<rect width="7.273" height="7.273" x=".727" y="31.545" ry="2.221" style="fill:#fff;fill-opacity:1;stroke:none;stroke-width:2.86153852;stroke-miterlimit:4;stroke-dasharray:none;stroke-opacity:1;paint-order:markers fill stroke"/>
<rect width="7.273" height="7.273" x=".727" y="40.727" ry="2.221" style="fill:#fff;fill-opacity:1;stroke:none;stroke-width:2.86153852;stroke-miterlimit:4;stroke-dasharray:none;stroke-opacity:1;paint-order:markers fill stroke"/>
<path d="M-16.727 30.818c4.704 0 12.813 14.546 17.454 14.546" style="fill:none;fill-opacity:1;stroke:#fff;stroke-width:2.86153852;stroke-linecap:butt;stroke-linejoin:miter;stroke-miterlimit:4;stroke-dasharray:none;stroke-opacity:1"/>
</g>
</svg>
