<svg xmlns="http://www.w3.org/2000/svg" xml:space="preserve" width="24" height="24" image-rendering="optimizeSpeed">
<defs>
<radialGradient id="a" cx="0" cy="0" r="1" fx="0" fy="0" gradientTransform="matrix(0 22 -22 0 46 1)" gradientUnits="userSpaceOnUse" spreadMethod="pad">
<stop offset="0" style="stop-opacity:1;stop-color:#f698a8"/>
<stop offset="1" style="stop-opacity:1;stop-color:#ef4360"/>
</radialGradient>
</defs>
<path d="M43.593 1.115q.18 0 .344-.047a32 32 0 0 1 4.308.01 13.7 13.7 0 0 1 3.782.849q3.036 1.251 4.161 4.338a14.6 14.6 0 0 1 .755 3.823 28.3 28.3 0 0 1-.115 4.928 12 12 0 0 1-.896 3.317q-1.276 2.766-4.135 3.812-2.312.784-4.766.824a21.3 21.3 0 0 1-5.452-.412c-3.308-.734-5.355-2.754-6.126-6.057a19 19 0 0 1-.448-4.51 18.5 18.5 0 0 1 .516-4.787q1.218-4.625 5.875-5.734a14 14 0 0 1 2.197-.354" style="fill:url(#a);fill-rule:evenodd;stroke:none;stroke-width:1.33333" transform="translate(-34)"/>
<path d="M42.453 6.995c1.911 0 5.208 5.9 7.094 5.9" style="fill:none;stroke:#fff;stroke-width:.899998;stroke-linecap:butt;stroke-linejoin:miter;stroke-miterlimit:4;stroke-dasharray:none;stroke-opacity:1" transform="translate(-34)"/>
<path d="M40.401 5.516h1.151c.5 0 .901.401.901.9v1.152c0 .5-.401.901-.901.901h-1.15a.9.9 0 0 1-.902-.901V6.416c0-.499.401-.9.901-.9m0 4.134h1.151c.5 0 .901.402.901.902v1.145c0 .5-.401.902-.901.902h-1.15a.9.9 0 0 1-.902-.902v-1.145c0-.5.401-.901.901-.901zm10.047 1.771h1.15a.9.9 0 0 1 .902.902v1.146c0 .5-.401.906-.901.906h-1.151a.9.9 0 0 1-.901-.906v-1.146c0-.5.401-.902.901-.902m0 3.724h1.15a.9.9 0 0 1 .902.902v1.15c0 .5-.401.902-.901.902h-1.151a.9.9 0 0 1-.901-.902v-1.15c0-.5.401-.902.901-.902" style="fill:#fff;fill-opacity:1;fill-rule:nonzero;stroke:none;stroke-width:1.33333" transform="translate(-34)"/>
<path d="M42.453 11.125c1.911 0 5.208 5.907 7.094 5.907" style="fill:none;stroke:#fff;stroke-width:.899998;stroke-linecap:butt;stroke-linejoin:miter;stroke-miterlimit:4;stroke-dasharray:none;stroke-opacity:1" transform="translate(-34)"/>
</svg>
