<svg xmlns="http://www.w3.org/2000/svg" width="24" height="24" fill="none">
<path fill="url(#a)" fill-rule="evenodd" d="M9.596 1.114q.18.001.344-.046a32 32 0 0 1 4.307.011q1.951.153 3.78.848 3.038 1.25 4.158 4.339.64 1.86.756 3.824a28 28 0 0 1-.114 4.923 11.9 11.9 0 0 1-.894 3.32q-1.276 2.764-4.135 3.813a15.6 15.6 0 0 1-4.765.825 21.4 21.4 0 0 1-5.453-.413q-4.967-1.106-6.128-6.056a19 19 0 0 1-.447-4.511 18.5 18.5 0 0 1 .515-4.786q1.217-4.629 5.877-5.736a14 14 0 0 1 2.199-.355" clip-rule="evenodd"/>
<path fill="#F9F9F9" d="M19.629 17.058H4.823a.823.823 0 1 0 0 1.645h14.806a.823.823 0 0 0 0-1.645" opacity=".5"/>
<path fill="#fff" d="M15.92 19.639a1.92 1.92 0 1 0 0-3.839 1.92 1.92 0 0 0 0 3.839M12.226 3.8a5.484 5.484 0 1 0 0 10.968 5.484 5.484 0 0 0 0-10.968M10.58 5.994l4.935 3.29-4.935 3.29z"/>
<defs>
<radialGradient id="a" cx="0" cy="0" r="1" gradientTransform="matrix(0 22 -22 0 12 1)" gradientUnits="userSpaceOnUse">
<stop stop-color="#E1434F"/>
<stop offset="1" stop-color="#9D2F37"/>
</radialGradient>
</defs>
</svg>
