<svg xmlns="http://www.w3.org/2000/svg" xmlns:xlink="http://www.w3.org/1999/xlink" xml:space="preserve" width="24" height="24" viewBox="0 0 6.35 6.35">
<defs>
<linearGradient id="a">
<stop offset="0" style="stop-color:#262532;stop-opacity:1"/>
<stop offset="1" style="stop-color:#b3b3b3;stop-opacity:1"/>
</linearGradient>
<linearGradient xlink:href="#a" id="b" x1="192.406" x2="194.928" y1="268.376" y2="-379.902" gradientUnits="userSpaceOnUse"/>
<linearGradient xlink:href="#a" id="c" x1="192.406" x2="194.928" y1="268.376" y2="-379.902" gradientUnits="userSpaceOnUse"/>
</defs>
<g style="fill:url(#b);fill-opacity:1;stroke-width:23.0144">
<path d="M148.375 1.961q3.105.033 5.93-.789a546 546 0 0 1 74.343.195q33.704 2.625 65.25 14.625c34.965 14.395 58.887 39.36 71.774 74.899a246.4 246.4 0 0 1 13.051 66.007 482.6 482.6 0 0 1-1.981 84.981q-3.545 29.799-15.422 57.312c-14.683 31.801-38.472 53.739-71.375 65.809-26.664 9.008-54.082 13.754-82.254 14.23-31.691 1.649-63.058-.722-94.117-7.113-57.16-12.73-92.418-47.582-105.781-104.543a329 329 0 0 1-7.711-77.867 319.3 319.3 0 0 1 8.898-82.609Q29.99 27.211 110.414 8.086a241 241 0 0 1 37.961-6.125" style="fill:url(#c);fill-opacity:1;fill-rule:evenodd;stroke:none;stroke-width:23.0144" transform="translate(.265 .265)scale(.01533)"/>
</g>
<path fill="#fff" d="M2.252 1.455a.08.08 0 0 0-.08.08v.7a.08.08 0 0 0 .08.08h.063l-.144.143.144.144-.143 1.576a.286.286 0 0 0-.287.286c0 .052.016.101.04.144h-.04l-.143.287h2.866l-.143-.287h-.04a.286.286 0 0 0-.247-.43l-.143-1.576.143-.144-.143-.143h.063a.08.08 0 0 0 .08-.08v-.7a.08.08 0 0 0-.08-.08h-.206v.287h-.287v-.287h-.287v.287h-.286v-.287h-.287v.287h-.287v-.287" style="stroke-width:3.51334"/>
</svg>
