<svg xmlns="http://www.w3.org/2000/svg" xml:space="preserve" width="24" height="24" fill="none">
<defs>
<radialGradient id="a" cx="0" cy="0" r="1" fx="0" fy="0" gradientTransform="matrix(0 22 -22 0 12 1)" gradientUnits="userSpaceOnUse" spreadMethod="pad">
<stop offset="0" style="stop-color:#fff;stop-opacity:1"/>
<stop offset="1" style="stop-color:#ccc;stop-opacity:1"/>
</radialGradient>
</defs>
<path d="M9.593 1.115q.18 0 .344-.047a32 32 0 0 1 4.308.01 13.7 13.7 0 0 1 3.781.849c2.026.833 3.41 2.281 4.162 4.338.42 1.24.676 2.516.754 3.823a28.3 28.3 0 0 1-.114 4.928 12 12 0 0 1-.896 3.317q-1.276 2.766-4.135 3.812a15.6 15.6 0 0 1-4.767.824 21.3 21.3 0 0 1-5.452-.412c-3.308-.734-5.354-2.754-6.125-6.057a19 19 0 0 1-.448-4.51 18.5 18.5 0 0 1 .516-4.787q1.218-4.625 5.875-5.734a14 14 0 0 1 2.197-.354" style="fill:url(#a);fill-rule:evenodd;stroke:none;stroke-width:1.33333"/>
<g style="stroke-width:.990526">
<path fill="#4747d1" d="M40.055 14.662V8.49h10.896v6.173c0 .39-.299.705-.674.705h-9.548c-.375 0-.674-.316-.674-.705z" style="stroke-width:.245277" transform="translate(-33.938 3.486)scale(1.00956)"/>
<path fill="#4747d1" d="M39.808 7.247v1.384c0 .17.131.298.307.298h11.272a.3.3 0 0 0 .307-.298V7.247a.3.3 0 0 0-.307-.299H40.115a.296.296 0 0 0-.307.3z" style="stroke-width:.245277" transform="translate(-33.938 3.486)scale(1.00956)"/>
<path fill="#f1f1f1" d="m48.039 8.93 2.041-1.982h-2.234L45.803 8.93Zm-5.356 0 2.042-1.982h-2.244L40.44 8.93Z" style="stroke-width:.245277" transform="translate(-33.938 3.486)scale(1.00956)"/>
<path fill="#4747d1" d="M39.548 5.293c.044.14.376 1.232.42 1.364a.3.3 0 0 0 .385.2l11.105-3.4a.304.304 0 0 0 .21-.377c-.044-.14-.376-1.232-.42-1.363a.3.3 0 0 0-.385-.201c-2.22.673-9.994 3.06-11.105 3.4a.304.304 0 0 0-.21.377" style="stroke-width:.245277" transform="translate(-33.938 3.486)scale(1.00956)"/>
<path fill="#f1f1f1" d="m48.152 4.471-2.544-1.364 2.142-.647 2.545 1.364Zm-5.185 1.591-2.544-1.355 2.142-.656 2.545 1.355z" style="stroke-width:.245277" transform="translate(-33.938 3.486)scale(1.00956)"/>
<path fill="#a9a9a9" d="M39.313 5.063v3.532c0 .19.16.334.349.334h3.504c.255 0 .424-.244.33-.46-.16-.353-1.426-3.19-1.586-3.542a.34.34 0 0 0-.321-.199h-1.927a.34.34 0 0 0-.35.335z" style="opacity:.8;stroke-width:.245277" transform="translate(-33.938 3.486)scale(1.00956)"/>
<path fill="#f1f1f1" d="M44.265 10.167v3.715l2.971-1.853z" style="stroke-width:.245277" transform="translate(-33.938 3.486)scale(1.00956)"/>
</g>
</svg>
