<svg xmlns="http://www.w3.org/2000/svg" xml:space="preserve" width="24" height="24" viewBox="0 0 6.35 6.35">
<defs>
<radialGradient id="a" cx="0" cy="0" r="1" fx="0" fy="0" gradientTransform="matrix(0 8.25 -8.25 0 9 .75)" gradientUnits="userSpaceOnUse" spreadMethod="pad">
<stop offset="0" style="stop-opacity:1;stop-color:#ffcca7"/>
<stop offset="1" style="stop-opacity:1;stop-color:#ff8830"/>
</radialGradient>
</defs>
<path d="M7.195.836q.135 0 .258-.035a24 24 0 0 1 3.231.008 10.3 10.3 0 0 1 2.836.636q2.278.938 3.121 3.254.476 1.396.566 2.867a21 21 0 0 1-.086 3.696 9 9 0 0 1-.672 2.488q-.957 2.074-3.101 2.859a11.7 11.7 0 0 1-3.575.618 16 16 0 0 1-4.089-.309c-2.481-.551-4.016-2.066-4.594-4.543a14.2 14.2 0 0 1-.336-3.383q-.041-1.818.387-3.59.914-3.468 4.406-4.3A10 10 0 0 1 7.195.836" style="fill:url(#a);fill-rule:evenodd;stroke:none" transform="scale(.35277)"/>
<path d="M2.045 1.336a2.932 2.968 0 0 0-1.622.496l-.021.074q-.068.288-.104.58c.16-.17.313-.302.467-.405.46 1.273.485 1.278.143-.084.338-.189.688-.25 1.137-.253q.059 0 .116.004c-.006.709-.116 2.171-.506 2.704-.564-1.47-.495-1.207-.115.045a.443.448 0 0 0-.08.056l-.174-.133.087.254c-.295.045-.588-.004-.882.041q.056.147.129.276c.256-.112.476-.272.757-.111.006.028.02.053.032.077l-.643.262.056.07c.219-.084.439-.14.643-.252a.3.3 0 0 0 .096.053l-.385.526q.043.03.088.058c.113-.182.204-.377.38-.568.03.002.065.007.1.003a2.988 3.024 0 0 0 .014.792 3 3 0 0 0 .317.081c-.104-.293-.228-.582-.212-.898.113.044.172.101.299.19-.057-.086-.127-.142-.175-.25a.265.269 0 0 0 .027-.056c.58.223 1.122.286 1.71.644l.323.24a1.528 1.546 0 0 1-.153.194q.298-.037.589-.117a2.908 2.942 0 0 0 .005-.003 2.905 2.94 0 0 0 .494-1.635c0-1.622-1.309-2.955-2.936-2.955zm.482.456c.97.193 1.817.963 2.001 1.867l-.044.056c-.081.143-.847.39-1.125.48-.531.114-.91.387-1.42.406a.38.386 0 0 0-.112-.105c.31-.557.209-2.047.7-2.704m1.926 2.117.115.112q-.002.134-.024.27c-.075.482-.17.958-.37 1.348l-.421-.14c-.481-.237-1.202-.39-1.715-.733.735-.427 1.608-.599 2.415-.857M2.579 5.99l.03.069.037.004z" style="fill:#f9f9f9;fill-opacity:1;stroke-width:.39154"/>
</svg>
