<svg xmlns="http://www.w3.org/2000/svg" xml:space="preserve" width="24" height="24" fill="none">
<path fill="url(#a)" fill-rule="evenodd" d="M9.596 1.114q.18.001.344-.046a32 32 0 0 1 4.307.011q1.951.153 3.78.848 3.038 1.25 4.158 4.339.64 1.86.756 3.824a28 28 0 0 1-.114 4.923 11.9 11.9 0 0 1-.894 3.32q-1.276 2.764-4.135 3.813a15.6 15.6 0 0 1-4.765.825 21.4 21.4 0 0 1-5.453-.413q-4.967-1.106-6.128-6.056a19 19 0 0 1-.447-4.511 18.5 18.5 0 0 1 .515-4.786q1.217-4.629 5.877-5.736a14 14 0 0 1 2.199-.355" clip-rule="evenodd"/>
<defs>
<radialGradient id="a" cx="0" cy="0" r="1" gradientTransform="matrix(0 22 -22 0 12 1)" gradientUnits="userSpaceOnUse">
<stop stop-color="#FAFAFA"/>
<stop offset="1" stop-color="#CCC"/>
</radialGradient>
</defs>
<g style="stroke-width:1.03451">
<path fill="#ff6d6f" d="m-1.96 14-6.92 5.781 2.114 2.431 4.806-4.015 4.808 4.015 2.113-2.431z" style="stroke-width:.517836;paint-order:stroke markers fill" transform="translate(13.894 -9.033)scale(.96664)"/>
<path fill="#6a7efb" d="M2.815 23.864A5.5 5.5 0 0 1-2.12 26.51a5.5 5.5 0 0 1-4.476-2.646L-9 25.674a8.51 8.51 0 0 0 6.755 3.836 8.51 8.51 0 0 0 7.326-3.626z" style="stroke-width:.517836;paint-order:stroke markers fill" transform="translate(13.894 -9.033)scale(.96664)"/>
</g>
</svg>
