<svg xmlns="http://www.w3.org/2000/svg" width="24" height="24" fill="none">
<path fill="url(#a)" fill-rule="evenodd" d="M9.596 1.114q.18.001.344-.046a32 32 0 0 1 4.307.011q1.951.153 3.78.848 3.038 1.25 4.158 4.339.64 1.86.756 3.824a28 28 0 0 1-.114 4.923 11.9 11.9 0 0 1-.894 3.32q-1.276 2.764-4.135 3.813a15.6 15.6 0 0 1-4.765.825 21.4 21.4 0 0 1-5.453-.413q-4.967-1.106-6.128-6.056a19 19 0 0 1-.447-4.511 18.5 18.5 0 0 1 .515-4.786q1.217-4.629 5.877-5.736a14 14 0 0 1 2.199-.355" clip-rule="evenodd"/>
<path fill="#D7D7F4" d="M12 15.625c3.313 0 6-2.602 6-5.812S15.313 4 12 4 6 6.602 6 9.813s2.686 5.812 6 5.812" opacity=".3"/>
<path fill="url(#b)" d="M12 15.116c2.79 0 5.053-2.192 5.053-4.896S14.791 5.324 12 5.324 6.946 7.516 6.946 10.22 9.209 15.116 12 15.116"/>
<path fill="#6746C3" d="M12 14.188c2.485 0 4.5-1.952 4.5-4.36 0-2.407-2.015-4.36-4.5-4.36-2.486 0-4.5 1.953-4.5 4.36s2.014 4.36 4.5 4.36"/>
<path fill="#fff" fill-rule="evenodd" d="M10.484 7.38a.5.5 0 0 0-.5.49v3.916c0 .39.45.624.786.407l3.537-1.958a.48.48 0 0 0 0-.814L10.77 7.463a.5.5 0 0 0-.286-.083" clip-rule="evenodd"/>
<path fill="#fff" d="M18.25 18.547H5.75a.74.74 0 0 0-.75.726c0 .402.336.727.75.727h12.5c.414 0 .75-.325.75-.727a.74.74 0 0 0-.75-.726" opacity=".2"/>
<path fill="#6746C3" d="M13.75 18.547h-8a.74.74 0 0 0-.75.726c0 .402.336.727.75.727h8c.414 0 .75-.325.75-.727a.74.74 0 0 0-.75-.726"/>
<defs>
<radialGradient id="a" cx="0" cy="0" r="1" gradientTransform="matrix(0 22 -22 0 12 1)" gradientUnits="userSpaceOnUse">
<stop stop-color="#BF61CA"/>
<stop offset="1" stop-color="#8F56C7"/>
</radialGradient>
<radialGradient id="b" cx="0" cy="0" r="1" gradientTransform="matrix(5.05349 0 0 4.89561 12 10.219)" gradientUnits="userSpaceOnUse">
<stop/>
<stop offset="1" stop-opacity="0"/>
</radialGradient>
</defs>
</svg>
