<svg xmlns="http://www.w3.org/2000/svg" width="24" height="24" fill="none">
<path fill="#465051" fill-rule="evenodd" d="M1.187 15.04a19 19 0 0 1-.182-3.05 18.5 18.5 0 0 1 .515-4.785 9.4 9.4 0 0 1 .59-1.638l.038-.044q.337-.395.717-.751l.052-.051q.037-.038.077-.074l.019-.017.016-.014.061-.051.052-.043q.127-.11.258-.216l.053-.044.072-.06a9 9 0 0 1 .233-.175l.043-.033q.766-.555 1.61-.983a5 5 0 0 1 .255-.12l.144-.067C8.005 1.793 10.383 1.367 12 1.367c2.64 0 7.313 1.109 9.89 4.185q.161.344.295.714.64 1.86.756 3.824a28 28 0 0 1-.114 4.919c-.904 2.385-2.395 4.751-4.005 6.68a8 8 0 0 1-1.024.457 15.6 15.6 0 0 1-4.765.825 21.4 21.4 0 0 1-5.453-.413 9.2 9.2 0 0 1-2.406-.878c-1.6-1.918-3.083-4.269-3.987-6.64" clip-rule="evenodd"/>
<path fill="#E45E3E" fill-rule="evenodd" d="M21.329 19.416q-1.27 1.9-3.531 2.73a15.6 15.6 0 0 1-4.765.825 24 24 0 0 1-.89.028c.423-1.893.593-3.444.573-4.75-.024-1.522-.308-2.71-.757-3.718v-.001c-.626-1.407-1.573-2.462-2.579-3.581-.435-.485-.88-.981-1.316-1.524a17 17 0 0 1-.61-.803 14 14 0 0 1-.583-.888c1.374-.654 2.684-1.099 3.962-1.335h.001c.749-.14 1.51-.207 2.272-.199 2.268.027 4.613.465 6.876 2.14 1.196.885 2.098 1.852 3.012 2.98a28 28 0 0 1-.168 3.693 11.9 11.9 0 0 1-.893 3.32 8 8 0 0 1-.604 1.083" clip-rule="evenodd"/>
<path fill="#519C26" fill-rule="evenodd" d="M1 11.424q.016-2.136.52-4.22.111-.42.25-.813c1.21-.289 2.493-.007 2.493-.007q.466 1.111 1.106 2.131c-1.375.776-2.821 1.745-4.368 2.91Z" clip-rule="evenodd"/>
<path fill="#2194CD" fill-rule="evenodd" d="M22.995 11.368a28 28 0 0 0-.054-1.278 14.3 14.3 0 0 0-.756-3.824q-1.12-3.09-4.158-4.34a13.5 13.5 0 0 0-3.78-.847 32 32 0 0 0-4.307-.011q-.165.048-.344.046-1.114.09-2.2.355Q2.738 2.576 1.52 7.205l-.052.22a44 44 0 0 1 2.795-1.042q.86-.285 1.679-.508c5.912-1.613 10.145-.77 14.04 2.464 1.019.847 2.015 1.856 3.013 3.03Z" clip-rule="evenodd"/>
<path fill="#65C32F" fill-rule="evenodd" d="M11.96 23a21.4 21.4 0 0 1-4.38-.442q-4.967-1.106-6.128-6.056a19 19 0 0 1-.447-4.511q-.007-.285-.005-.567c1.546-1.164 2.993-2.133 4.368-2.909q.284.449.603.872.436.575.925 1.104.154.166.31.327.305.312.618.614l.364.35c.282.27.558.536.825.807q.286.29.556.598.135.154.265.315c.779.967 1.42 2.144 1.794 3.937q.134.642.21 1.292.043.36.072.723.065.806.076 1.616a33 33 0 0 1-.024 1.868z" clip-rule="evenodd"/>
<path fill="#465051" fill-rule="evenodd" d="m1.468 7.425.052-.22q.557-2.116 1.832-3.496c.276 1.019.583 1.9.91 2.674a44 44 0 0 0-2.794 1.042" clip-rule="evenodd"/>
<path fill="#000" fill-rule="evenodd" d="M3.352 3.71A7.1 7.1 0 0 1 5.4 2.181c.042 1.277.254 2.5.648 3.667l-.108.027q-.816.222-1.678.507a21 21 0 0 1-.91-2.674Z" clip-rule="evenodd" opacity=".2"/>
<path fill="#fff" fill-rule="evenodd" d="M12.14 22.999h-.18l.002-.061v-.002a32 32 0 0 0 .024-1.866v-.001a25 25 0 0 0-.075-1.616q-.03-.374-.073-.723a15 15 0 0 0-.21-1.291c-.374-1.794-1.015-2.971-1.794-3.938a14 14 0 0 0-.82-.913c-.263-.268-.535-.528-.812-.793l-.378-.363q-.306-.296-.617-.615a19 19 0 0 1-.31-.327A13 13 0 0 1 5.37 8.515a14.6 14.6 0 0 1-1.108-2.132 32 32 0 0 1 1.678-.508c1.848-.503 3.532-.768 5.093-.795 3.433-.058 6.27 1.035 8.949 3.259-2.264-1.675-4.608-2.113-6.877-2.14a11 11 0 0 0-1.272.063 12 12 0 0 0-1 .137l-.016.003-.021.004a13 13 0 0 0-1.025.24l-.102.028a15 15 0 0 0-1.697.58 20 20 0 0 0-1.101.48q.282.466.582.888.293.41.61.803v.001q.506.622 1.043 1.215l.154.175.172.195a37 37 0 0 1 1.142 1.32q.17.214.33.434l.006.008q.096.129.19.26.15.22.291.45l.062.097q.056.085.108.175.22.377.398.774v.002l.01.026a8 8 0 0 1 .314.836q.025.084.047.172.012.054.027.107c.06.216.117.436.162.668a10 10 0 0 1 .13.85l.007.06q.051.498.06.998v.003c.004.283-.01.59-.025.897a17 17 0 0 1-.085 1.067 8 8 0 0 1-.037.353c-.044.355-.108.736-.176 1.122l-.032.193q-.021.146-.051.3-.078.398-.17.816" clip-rule="evenodd"/>
</svg>
