<svg xmlns="http://www.w3.org/2000/svg" width="24" height="24" fill="none">
<path fill="#4783B0" fill-rule="evenodd" d="M23 12a28 28 0 0 1-.174 3.013 11.9 11.9 0 0 1-.893 3.32q-1.276 2.764-4.135 3.813a15.6 15.6 0 0 1-4.765.825q-.518.026-1.033.029V12z" clip-rule="evenodd"/>
<path fill="#DA4339" fill-rule="evenodd" d="M12 23a21.4 21.4 0 0 1-4.42-.442q-4.967-1.106-6.128-6.056A19 19 0 0 1 1.005 12H12z" clip-rule="evenodd"/>
<path fill="#4AB871" fill-rule="evenodd" d="M23 12a28 28 0 0 0-.059-1.91 14.3 14.3 0 0 0-.756-3.824q-1.12-3.09-4.158-4.34a13.5 13.5 0 0 0-3.78-.847A32 32 0 0 0 12 1v11z" clip-rule="evenodd"/>
<path fill="#FFB750" fill-rule="evenodd" d="M12 1q-1.03 0-2.06.068-.164.048-.344.046-1.114.09-2.2.355Q2.738 2.576 1.52 7.205A18.5 18.5 0 0 0 1 11.563v.003q0 .212.005.425V12H12z" clip-rule="evenodd"/>
</svg>
