<svg xmlns="http://www.w3.org/2000/svg" width="24" height="24" viewBox="0 0 6.35 6.35">
<defs>
<radialGradient id="a" cx="0" cy="0" r="1" gradientTransform="rotate(90 3.483 19.752)scale(5.82072)" gradientUnits="userSpaceOnUse">
<stop stop-color="#555"/>
<stop offset="1" stop-color="#222"/>
</radialGradient>
</defs>
<path fill="url(#a)" fill-rule="evenodd" d="M22.598 16.3a.3.3 0 0 0 .091-.013 8 8 0 0 1 1.14.003q.517.04 1 .224.804.331 1.1 1.148.17.492.2 1.012.043.653-.03 1.303a3.1 3.1 0 0 1-.236.878 1.87 1.87 0 0 1-1.095 1.009q-.612.207-1.26.218a5.7 5.7 0 0 1-1.443-.11q-1.315-.291-1.621-1.602a5 5 0 0 1-.119-1.193q-.015-.642.137-1.266.321-1.226 1.555-1.518.287-.07.581-.094z" clip-rule="evenodd" style="fill:url(#a);stroke-width:.264578" transform="translate(-20.06 -16.004)"/>
<path fill="#2268ab" d="M-5.63 1.007a.527.527 0 0 0-.527.527V4.71a.527.527 0 0 0 .528.522h3.169l.527-.527v-3.17a.527.527 0 0 0-.528-.528z" color="#000" style="isolation:auto;mix-blend-mode:normal;stroke-width:.0880166;paint-order:fill markers stroke" transform="translate(6.785 .161)scale(.89064)"/>
<path fill="#3d8dd8" d="M-4.75 2.415h1.41v1.409h-1.41z" color="#000" display="block" overflow="visible" style="isolation:auto;mix-blend-mode:normal;stroke-width:.332665;paint-order:fill markers stroke" transform="translate(6.785 .161)scale(.89064)"/>
<path fill="#2777c4" d="M-4.75 1.007h1.41v1.409h-1.41z" color="#000" display="block" overflow="visible" style="isolation:auto;mix-blend-mode:normal;stroke-width:.332665;paint-order:fill markers stroke" transform="translate(6.785 .161)scale(.89064)"/>
<path fill="#3b83c8" d="M-6.157 2.415h1.408v1.409h-1.408z" color="#000" display="block" overflow="visible" style="isolation:auto;mix-blend-mode:normal;stroke-width:.332665;paint-order:fill markers stroke" transform="translate(6.785 .161)scale(.89064)"/>
<path fill="#63a3e0" d="M-3.34 2.415h1.407v1.409h-1.408z" color="#000" display="block" overflow="visible" style="isolation:auto;mix-blend-mode:normal;stroke-width:.332665;paint-order:fill markers stroke" transform="translate(6.785 .161)scale(.89064)"/>
<path fill="#3b8bd8" d="M-3.34 1.007v1.409h1.407v-.884a.527.527 0 0 0-.524-.525z" color="#000" style="isolation:auto;mix-blend-mode:normal;stroke-width:.0880166;paint-order:fill markers stroke" transform="translate(6.785 .161)scale(.89064)"/>
<path fill="#61a2e0" d="M-4.75 3.824h1.41v1.408h-1.41z" color="#000" display="block" overflow="visible" style="isolation:auto;mix-blend-mode:normal;stroke-width:.332665;paint-order:fill markers stroke" transform="translate(6.785 .161)scale(.89064)"/>
<path fill="#4893db" d="M-6.157 3.824v.88c0 .292.235.528.528.528h.88V3.824Z" color="#000" style="isolation:auto;mix-blend-mode:normal;stroke-width:.0880166;paint-order:fill markers stroke" transform="translate(6.785 .161)scale(.89064)"/>
<path fill="#86b8e9" d="M-3.34 3.824v1.408h.88a.527.527 0 0 0 .528-.528v-.88Z" color="#000" style="isolation:auto;mix-blend-mode:normal;stroke-width:.0880166;paint-order:fill markers stroke" transform="translate(6.785 .161)scale(.89064)"/>
<path d="m-2.989 2.592-.052.002-.008-.002h-1.46a.063.063 0 0 0-.062.063V4.14l-.002.037A1.584 1.584 0 0 0-2.989 5.76a1.584 1.584 0 0 0 1.584-1.584 1.584 1.584 0 0 0-1.584-1.584m.034.792h.01a.75.75 0 0 1 .748.748.75.75 0 0 1-.748.748.75.75 0 0 1-.748-.748.75.75 0 0 1 .738-.748m-.034.44v.264h-.264v.088h.264v.264h.088v-.264h.265v-.088h-.265v-.264z" style="isolation:auto;mix-blend-mode:normal;fill:#fff;fill-opacity:1;stroke-width:.332665;paint-order:fill markers stroke" transform="translate(6.785 .161)scale(.89064)"/>
</svg>
