<svg xmlns="http://www.w3.org/2000/svg" xmlns:xlink="http://www.w3.org/1999/xlink" xml:space="preserve" width="24" height="24" fill="none">
<defs>
<linearGradient id="a">
<stop offset="0" style="stop-color:#a00;stop-opacity:1"/>
<stop offset="1" style="stop-color:#faa;stop-opacity:1"/>
</linearGradient>
<linearGradient xlink:href="#a" id="b" x1="11.5" x2="11.188" y1="74.75" y2="-11.375" gradientUnits="userSpaceOnUse"/>
<linearGradient xlink:href="#a" id="c" x1="11.5" x2="11.188" y1="74.75" y2="-11.375" gradientUnits="userSpaceOnUse"/>
</defs>
<g style="display:inline;fill:url(#b);fill-opacity:1">
<path d="M50 5C9.09 5 5 25.455 5 50c0 32.727 12.273 45 45 45s45-12.273 45-45c0-24.545-4.09-45-45-45" style="font-variation-settings:normal;display:inline;opacity:1;vector-effect:none;fill:url(#c);fill-opacity:1;stroke-width:4.56656;stroke-linecap:butt;stroke-linejoin:miter;stroke-miterlimit:4;stroke-dasharray:none;stroke-dashoffset:0;stroke-opacity:1;-inkscape-stroke:none;stop-color:#000;stop-opacity:1" transform="translate(-1 -1)scale(.26)"/>
</g>
<rect width="12.654" height="12.654" x="5.673" y="5.673" fill="#388e3c" rx="1.46" ry="1.46" style="stroke-width:.243342"/>
<path fill="#43a047" d="M7.133 5.673c-.375 0-.715.142-.973.373v2.547l-.487.487v.487l.73.73h9.247l1.704-1.947h.973v-.243h-.973v-.974l-1.947 2.19h-.73l1.947-2.19v-1.46Zm.974 7.544-2.434 1.946v.73l1.46-.973v.487l-1.46.973h.973v1.862q.23.083.487.085h.974V15.65l1.46-1.217h.73l-1.46 1.217v2.677h8.03c.809 0 1.46-.651 1.46-1.46v-.996l-1.703-2.168h-.487l-.487-.486z" style="stroke-width:.243342"/>
<path fill="#fbc02d" fill-rule="evenodd" d="M9.323 9.08h.487v5.84h-.487Zm.974 0h.486v5.84h-.486zm.973 0h.487v5.84h-.487zm.973 0h.487v5.84h-.487zm.974 0h.486v5.84h-.486zm.973 0h.487v5.84h-.487Z" style="stroke-width:.243342;paint-order:fill markers stroke"/>
<g transform="translate(2.996 4.943)scale(.24334)">
<circle cx="58.5" cy="50.5" r="1.5" fill="#fbc02d"/>
<circle cx="58.5" cy="50.5" r=".5" fill="#263238"/>
</g>
<g transform="translate(2.996 3.97)scale(.24334)">
<circle cx="58.5" cy="11.5" r="1.5" fill="#fbc02d"/>
<circle cx="58.5" cy="11.5" r=".5" fill="#263238"/>
</g>
<g transform="translate(5.43 4.943)scale(.24334)">
<circle cx="5.5" cy="50.5" r="1.5" fill="#fbc02d"/>
<circle cx="5.5" cy="50.5" r=".5" fill="#263238"/>
</g>
<g transform="translate(4.29 4.225)scale(.24334)">
<circle cx="10.182" cy="10.451" r="1.5" fill="#fbc02d"/>
<circle cx="10.182" cy="10.451" r=".5" fill="#263238"/>
</g>
<rect width="7.3" height="4.867" x="8.35" y="9.567" rx=".73" ry=".73" style="stroke-width:.243342"/>
</svg>
