<svg xmlns="http://www.w3.org/2000/svg" width="24" height="24" fill="none">
<path d="M50 5C9.09 5 5 25.455 5 50c0 32.727 12.273 45 45 45s45-12.273 45-45c0-24.545-4.09-45-45-45" style="font-variation-settings:normal;display:inline;opacity:1;vector-effect:none;fill:#4d4d4d;fill-opacity:1;stroke-width:4.56656;stroke-linecap:butt;stroke-linejoin:miter;stroke-miterlimit:4;stroke-dasharray:none;stroke-dashoffset:0;stroke-opacity:1;-inkscape-stroke:none;stop-color:#000;stop-opacity:1" transform="translate(-1 -1)scale(.26)"/>
<path fill="#fff" d="m13.384 6.48.011 1.272 1.333-.012-.011-1.272Zm-6.317.668-.633 3.024-2.029.017.007.799 1.866-.017-.553 2.736-1.667.014.007.799 1.489-.013-.597 3.024.815-.007.596-3.024 2.687-.023-.61 3.024.814-.007.625-3.024 2.096-.019-.007-.798-1.925.016.554-2.735 1.725-.014-.007-.8-1.562.014.625-3.023-.814.007-.625 3.023-2.688.023.626-3.023zm10.289.48-.377 1.795L16 9.43l.009.969.925-.008.046 5.34q.016 1.815 1.615 1.8a5.2 5.2 0 0 0 1.346-.19l-.008-.983a4 4 0 0 1-.77.11c-.31.002-.53-.07-.66-.224q-.188-.236-.192-.812l-.044-5.052 1.48-.013-.008-.969-1.48.013-.016-1.79zM13.41 9.454l.069 8.004 1.333-.011-.07-8.004zm-6.295 1.512 2.665-.023-.554 2.735-2.681.023z"/>
</svg>
