<svg xmlns="http://www.w3.org/2000/svg" width="24" height="24" fill="none">
<path fill="url(#a)" stroke="#FA6E6E" stroke-width="2" d="M21.943 10.149v.006a27 27 0 0 1-.11 4.744 10.9 10.9 0 0 1-.813 3.027c-.738 1.59-1.908 2.67-3.555 3.277a14.6 14.6 0 0 1-4.45.768h-.017l-.017.001a20.4 20.4 0 0 1-5.191-.391c-1.503-.336-2.66-.948-3.523-1.801-.864-.854-1.488-2.003-1.84-3.5a18 18 0 0 1-.422-4.27v-.041A17.5 17.5 0 0 1 2.49 7.45c.368-1.393.979-2.47 1.806-3.278.83-.81 1.925-1.396 3.332-1.73l.006-.002q.99-.241 2.004-.327.23-.002.458-.053a31 31 0 0 1 4.076.016q1.801.141 3.487.78c1.756.727 2.934 1.957 3.583 3.743q.594 1.726.7 3.55Z"/>
<path stroke="#FA6E6E" stroke-linecap="round" stroke-width="1.5" d="M10.47 5.072h.003c.145.001.29-.034.434-.042a20 20 0 0 1 2.523.02q1.242.098 2.405.54 1.934.795 2.646 2.761.408 1.183.481 2.433a18 18 0 0 1-.072 3.133 7.6 7.6 0 0 1-.569 2.114q-.811 1.758-2.632 2.426a10 10 0 0 1-3.032.524 13.6 13.6 0 0 1-3.47-.262q-3.16-.705-3.9-3.854a12 12 0 0 1-.284-2.871q-.035-1.545.328-3.046"/>
<path fill="#65B5F7" d="M13.009 9c0-.552-.452-1-1.01-1-.556 0-1.008.448-1.008 1v6c0 .552.452 1 1.009 1s1.009-.448 1.009-1z"/>
<path fill="#65B5F7" d="M8.874 12.634A.995.995 0 0 0 8.504 14c.28.478.896.642 1.379.366l5.243-3a.995.995 0 0 0 .37-1.366 1.014 1.014 0 0 0-1.38-.366z"/>
<path fill="#65B5F7" d="M14.117 14.366c.483.276 1.1.112 1.378-.366a.995.995 0 0 0-.369-1.366l-5.243-3A1.014 1.014 0 0 0 8.505 10a.995.995 0 0 0 .37 1.366z"/>
<defs>
<radialGradient id="a" cx="0" cy="0" r="1" gradientTransform="matrix(0 22 -22 0 12 1)" gradientUnits="userSpaceOnUse">
<stop stop-color="#FAFAFA"/>
<stop offset="1" stop-color="#CCC"/>
</radialGradient>
</defs>
</svg>
