<svg xmlns="http://www.w3.org/2000/svg" width="24" height="24" fill="none">
<path d="M50 5C9.09 5 5 25.455 5 50c0 32.727 12.273 45 45 45s45-12.273 45-45c0-24.545-4.09-45-45-45" style="font-variation-settings:normal;display:inline;opacity:1;vector-effect:none;fill:#333;fill-opacity:1;stroke-width:4.56656;stroke-linecap:butt;stroke-linejoin:miter;stroke-miterlimit:4;stroke-dasharray:none;stroke-dashoffset:0;stroke-opacity:1;-inkscape-stroke:none;stop-color:#000;stop-opacity:1" transform="translate(-1 -1)scale(.26)"/>
<g fill-rule="evenodd" clip-rule="evenodd">
<path fill="#feb512" d="M13.147 5h-1.875l.925 1.416z"/>
<path fill="#ffa11c" d="M8.236 11.636c0-.095.158-.172.356-.172h.303l-.475 1.282-.53-.208s.346-.807.346-.902"/>
<path fill="#ff9106" d="M11.195 5.08c.018-.048.049-.08.085-.08q.04.002.068.046l.803 1.246c.02.031.074.035.1 0l.82-1.246c.017-.028.041-.046.068-.046.036 0 .067.032.084.08v-.002l5.388 13.396c.03.066.017.086-.059.036l-7.924-4.79-4.86 4.849z"/>
<path fill="#fff" d="m11.869 5.855-3.077 8.113 2.354-1.275 5.396 3.393L12.52 5.88l-.27.411c-.025.036-.079.032-.099.001z" opacity=".2"/>
<path fill="#feb512" d="M8.592 11.809h8.442c.055 0 .052.018-.001.052l-11.59 7.116q-.105.064-.05-.052l2.843-7.3s-.027.167.356.184"/>
<path fill="#fff" d="M8.024 12.177c.01.144.152.19.298.191l7.054-.064-9.607 5.66zM12.76 5l-.562.875L11.662 5z" opacity=".35"/>
</g>
</svg>
