<svg xmlns="http://www.w3.org/2000/svg" width="24" height="24" fill="none">
<path fill="url(#a)" fill-rule="evenodd" d="M9.596 1.114q.18.001.344-.046a32 32 0 0 1 4.307.011q1.951.153 3.78.848 3.038 1.25 4.158 4.339.64 1.86.756 3.824a28 28 0 0 1-.114 4.923 11.9 11.9 0 0 1-.894 3.32q-1.276 2.764-4.135 3.813a15.6 15.6 0 0 1-4.765.825 21.4 21.4 0 0 1-5.453-.413q-4.967-1.106-6.128-6.056a19 19 0 0 1-.447-4.511 18.5 18.5 0 0 1 .515-4.786q1.217-4.629 5.877-5.736a14 14 0 0 1 2.199-.355" clip-rule="evenodd"/>
<path fill="#DA4D45" d="M11 1h.211v22H11z" opacity=".15"/>
<g opacity=".25">
<path fill="#000" d="M20.667 6H3.333a.095.095 0 1 0 0 .19h17.334a.095.095 0 1 0 0-.19m0 3.047H3.333a.095.095 0 1 0 0 .19h17.334a.095.095 0 1 0 0-.19m0 3.048H3.333a.095.095 0 0 0 0 .19h17.334a.095.095 0 0 0 0-.19m0 2.667H3.333a.095.095 0 1 0 0 .19h17.334a.095.095 0 0 0 0-.19m0 3.048H3.333a.095.095 0 0 0 0 .19h17.334a.095.095 0 1 0 0-.19" opacity=".75"/>
</g>
<path fill="#333" d="m7.79 8.151-.047-.003-.043-.01a.12.12 0 0 1-.08-.067.22.22 0 0 1 0-.156 2 2 0 0 1 .103-.239.4.4 0 0 0 .026-.058l.029-.061a.3.3 0 0 0-.091.054l-.094.075a.1.1 0 0 1-.072.019.1.1 0 0 1-.066-.036.1.1 0 0 1-.02-.072.13.13 0 0 1 .036-.066l.093-.072a.5.5 0 0 1 .104-.065.32.32 0 0 1 .242-.035q.052.01.078.065t-.003.13a2 2 0 0 1-.09.208l-.035.078-.034.075-.01.023-.005.019a.7.7 0 0 0 .196-.068q.069-.036.156-.093.087-.058.2-.146l.166-.14.136-.122.093-.09.036-.037a.085.085 0 0 1 .094-.028.1.1 0 0 1 .043.023q.015.015.024.031a.13.13 0 0 1 .003.107 2 2 0 0 1-.072.191l-.037.084-.033.078-.009.036a.3.3 0 0 0 .097-.036 1.2 1.2 0 0 0 .2-.139q.046-.042.082-.072a.1.1 0 0 1 .07-.026.1.1 0 0 1 .068.034.1.1 0 0 1 .023.072.1.1 0 0 1-.033.066 1.6 1.6 0 0 1-.31.233.6.6 0 0 1-.158.062.4.4 0 0 1-.158-.004.13.13 0 0 1-.075-.064.2.2 0 0 1-.013-.098 1 1 0 0 1 .039-.138 1 1 0 0 1-.075.06l-.078.065q-.447.353-.696.353" opacity=".25"/>
<path fill="#333" d="M9.99 7.967a.1.1 0 0 1-.067-.023q-.052-.042-.029-.107l.023-.077.058-.169.029-.094.023-.073-.156.058-.187.072-.202.073-.2.075a.1.1 0 0 1-.07-.003.1.1 0 0 1-.055-.058.08.08 0 0 1 .006-.072.1.1 0 0 1 .056-.054l.3-.111.287-.107.215-.08.086-.033.03-.003a.1.1 0 0 1 .032.003q.044.007.065.051.015.027.013.068a.6.6 0 0 1-.016.115l-.026.092-.036.114-.006.023-.007.022q.13-.072.317-.148a.1.1 0 0 1 .072 0 .1.1 0 0 1 .052.048.08.08 0 0 1 .003.074.1.1 0 0 1-.052.056 4 4 0 0 0-.366.174l-.145.078a.1.1 0 0 1-.05.016z" opacity=".25"/>
<path fill="#333" d="m10.767 8.151-.05-.003-.041-.01a.12.12 0 0 1-.08-.067.22.22 0 0 1 0-.156q.03-.093.103-.239l.026-.058.029-.061a.3.3 0 0 0-.09.054l-.095.075a.1.1 0 0 1-.072.019.1.1 0 0 1-.067-.036.1.1 0 0 1-.019-.072.1.1 0 0 1 .036-.066l.094-.072a.5.5 0 0 1 .103-.065.32.32 0 0 1 .242-.035q.052.01.078.065.025.055-.003.13a2 2 0 0 1-.09.208l-.037.078-.031.075-.01.023-.007.019a.7.7 0 0 0 .197-.068 2 2 0 0 0 .155-.093q.088-.058.202-.146l.164-.14.137-.122.093-.09.035-.037a.09.09 0 0 1 .095-.028.1.1 0 0 1 .042.023q.015.015.026.031a.14.14 0 0 1 .002.107 4 4 0 0 1-.071.191l-.038.084-.033.078-.01.036a.3.3 0 0 0 .098-.036 1.2 1.2 0 0 0 .2-.139l.08-.072a.1.1 0 0 1 .072-.026.1.1 0 0 1 .068.034.1.1 0 0 1 .023.072.1.1 0 0 1-.033.066 1.4 1.4 0 0 1-.311.233.6.6 0 0 1-.158.062.4.4 0 0 1-.159-.004.12.12 0 0 1-.073-.064.2.2 0 0 1-.014-.098 1 1 0 0 1 .04-.138 1 1 0 0 1-.075.06l-.078.065q-.447.353-.695.353" opacity=".25"/>
<path fill="#333" d="m12.485 8.151-.048-.003-.043-.01a.12.12 0 0 1-.08-.067.22.22 0 0 1 0-.156 3 3 0 0 1 .103-.239.4.4 0 0 0 .026-.058l.029-.061a.3.3 0 0 0-.091.054l-.094.075a.1.1 0 0 1-.072.019.1.1 0 0 1-.066-.036.1.1 0 0 1-.02-.072.13.13 0 0 1 .036-.066l.094-.072a.5.5 0 0 1 .103-.065.32.32 0 0 1 .242-.035q.052.01.078.065.025.055-.003.13a2 2 0 0 1-.09.208l-.035.078-.034.075-.01.023-.005.019a.7.7 0 0 0 .196-.068 2 2 0 0 0 .156-.093q.087-.058.2-.146l.166-.14.135-.122.094-.09.036-.037a.085.085 0 0 1 .094-.028.1.1 0 0 1 .043.023q.015.015.024.031a.13.13 0 0 1 .003.107 2 2 0 0 1-.072.191l-.037.084-.033.078-.009.036a.3.3 0 0 0 .097-.036 1.2 1.2 0 0 0 .2-.139 1 1 0 0 1 .082-.072.1.1 0 0 1 .07-.026.1.1 0 0 1 .068.034.1.1 0 0 1 .023.072.1.1 0 0 1-.033.066q-.074.067-.151.13a2 2 0 0 1-.159.103.6.6 0 0 1-.158.062.4.4 0 0 1-.158-.004.13.13 0 0 1-.075-.064.2.2 0 0 1-.013-.098 1 1 0 0 1 .039-.138 1 1 0 0 1-.075.06l-.078.065q-.447.353-.695.353" opacity=".25"/>
<path fill="#333" d="m14.204 8.151-.05-.003-.042-.01a.11.11 0 0 1-.08-.067.22.22 0 0 1 0-.156q.032-.093.104-.239l.026-.058.029-.061a.3.3 0 0 0-.09.054l-.095.075a.1.1 0 0 1-.072.019.1.1 0 0 1-.067-.036.1.1 0 0 1-.019-.072.12.12 0 0 1 .035-.066q.046-.033.093-.072a.5.5 0 0 1 .104-.065.32.32 0 0 1 .243-.035q.052.01.078.065.025.055-.003.13a2 2 0 0 1-.09.208l-.037.078-.033.075-.008.023-.008.019a.7.7 0 0 0 .197-.068q.069-.036.156-.093a4 4 0 0 0 .202-.146l.164-.14a4 4 0 0 0 .265-.249.085.085 0 0 1 .094-.028.1.1 0 0 1 .043.023l.026.031a.14.14 0 0 1 .002.107 3 3 0 0 1-.072.191l-.038.084-.032.078-.01.036a.3.3 0 0 0 .098-.036 1.4 1.4 0 0 0 .28-.21.1.1 0 0 1 .072-.027.1.1 0 0 1 .068.034.1.1 0 0 1 .022.072q0 .037-.032.066a1.6 1.6 0 0 1-.311.233.6.6 0 0 1-.158.062.4.4 0 0 1-.159-.004.13.13 0 0 1-.075-.064.2.2 0 0 1-.012-.098 1 1 0 0 1 .038-.138 1 1 0 0 1-.073.06l-.078.065q-.447.353-.695.353m3.291 0-.049-.003-.041-.01a.12.12 0 0 1-.081-.067.22.22 0 0 1 0-.156q.032-.093.104-.239l.026-.058.028-.061a.3.3 0 0 0-.09.054l-.094.075a.1.1 0 0 1-.072.019.1.1 0 0 1-.068-.036.1.1 0 0 1-.018-.072.1.1 0 0 1 .036-.066l.093-.072a.5.5 0 0 1 .104-.065.32.32 0 0 1 .242-.035q.051.01.078.065.026.055-.003.13a2 2 0 0 1-.091.208l-.036.078-.032.075-.01.023-.006.019a.7.7 0 0 0 .196-.068q.069-.036.156-.093.088-.058.201-.146l.165-.14.136-.122.094-.09.034-.037a.09.09 0 0 1 .096-.028.1.1 0 0 1 .041.023q.016.015.026.031a.14.14 0 0 1 .003.107 2 2 0 0 1-.072.191l-.037.084-.034.078-.01.036a.3.3 0 0 0 .098-.036 1.2 1.2 0 0 0 .2-.139l.081-.072a.1.1 0 0 1 .072-.026.1.1 0 0 1 .068.034.1.1 0 0 1 .023.072.1.1 0 0 1-.033.066q-.075.067-.151.13a2 2 0 0 1-.159.103.6.6 0 0 1-.158.062.4.4 0 0 1-.159-.004.13.13 0 0 1-.075-.064.2.2 0 0 1-.014-.098 1 1 0 0 1 .04-.138 1 1 0 0 1-.075.06l-.077.065q-.447.353-.696.353" opacity=".25"/>
<path fill="#333" d="m19.361 8.157-.031-.003-.036-.003a.12.12 0 0 1-.065-.055.2.2 0 0 1-.014-.046l.007-.083.039-.148.077-.25-.164.061-.187.072a.1.1 0 0 1-.072-.004.1.1 0 0 1-.055-.058.08.08 0 0 1 .006-.072.1.1 0 0 1 .055-.055l.201-.073.172-.062.12-.045.044-.02a.1.1 0 0 1 .062-.003q.044.01.062.05.015.028.008.051l-.008.048-.01.028-.01.034q-.022.054-.048.135l-.049.158-.026.078-.016.058q.06-.012.177-.074.102-.054.215-.127.113-.072.236-.154l.05-.033.052-.036a.1.1 0 0 1 .075-.013q.04.008.065.044.023.034.013.073a.08.08 0 0 1-.043.058l-.054.04-.056.034a10 10 0 0 1-.239.156 3 3 0 0 1-.22.13q-.21.108-.333.109m-11.719 3.04-.049-.003-.043-.01a.11.11 0 0 1-.08-.068.22.22 0 0 1 0-.156q.033-.093.105-.239l.025-.057.03-.062a.3.3 0 0 0-.091.055l-.094.075a.1.1 0 0 1-.072.018.1.1 0 0 1-.068-.036.08.08 0 0 1-.018-.07.12.12 0 0 1 .034-.068l.095-.072a.6.6 0 0 1 .102-.065.32.32 0 0 1 .244-.034q.051.008.077.064.027.055-.002.13a2 2 0 0 1-.091.21q-.016.037-.036.077l-.032.074-.01.023-.007.02a.4.4 0 0 0 .082-.02 1 1 0 0 0 .115-.049 2 2 0 0 0 .156-.093 4 4 0 0 0 .201-.146l.164-.14a4 4 0 0 0 .265-.248.084.084 0 0 1 .094-.03.1.1 0 0 1 .043.024l.026.032q.021.046.003.106a4 4 0 0 1-.072.192l-.039.083-.032.078-.01.036a.3.3 0 0 0 .098-.036 1.2 1.2 0 0 0 .2-.138 1 1 0 0 1 .081-.072.1.1 0 0 1 .072-.026.12.12 0 0 1 .068.033.1.1 0 0 1 .021.072q0 .037-.031.066a1.6 1.6 0 0 1-.311.233.6.6 0 0 1-.159.062.4.4 0 0 1-.158-.003.14.14 0 0 1-.075-.064.2.2 0 0 1-.013-.098 1 1 0 0 1 .039-.138 1 1 0 0 1-.074.06l-.077.065q-.447.353-.696.353" opacity=".25"/>
<path fill="#333" d="M9.36 11.197a.3.3 0 0 1-.09-.013.12.12 0 0 1-.081-.068.22.22 0 0 1 0-.156q.033-.093.103-.239a.4.4 0 0 0 .026-.057l.029-.062a.4.4 0 0 0-.09.055l-.094.075a.1.1 0 0 1-.072.018.1.1 0 0 1-.067-.036.1.1 0 0 1-.02-.07.13.13 0 0 1 .036-.068l.094-.072a.5.5 0 0 1 .104-.065.32.32 0 0 1 .241-.034q.053.008.078.064.027.055-.003.13a2 2 0 0 1-.09.21l-.035.077-.033.074-.01.023-.006.02a.7.7 0 0 0 .196-.068q.069-.037.157-.094.086-.057.2-.146l.166-.14.135-.122.094-.09.036-.036a.08.08 0 0 1 .093-.03.1.1 0 0 1 .043.024q.015.015.025.032.022.046.003.106a2 2 0 0 1-.072.192l-.038.083-.033.078-.008.036a.3.3 0 0 0 .096-.036 1.2 1.2 0 0 0 .2-.138 1 1 0 0 1 .082-.072.1.1 0 0 1 .07-.026.1.1 0 0 1 .068.033.1.1 0 0 1 .023.072.1.1 0 0 1-.033.066q-.073.07-.15.13a2 2 0 0 1-.16.103.6.6 0 0 1-.158.062.4.4 0 0 1-.158-.003.14.14 0 0 1-.075-.064.2.2 0 0 1-.013-.098 1 1 0 0 1 .04-.138 1 1 0 0 1-.076.06l-.078.065q-.446.353-.695.353" opacity=".25"/>
<path fill="#333" d="m11.25 10.916-.025-.005a.15.15 0 0 1-.075-.038l-.026-.045a.17.17 0 0 1 .014-.146q.04-.077.103-.16l.036-.057.031-.055.01-.013-.049.02-.062.04a1 1 0 0 0-.122.093l-.133.115-.036.033-.031.03a.1.1 0 0 1-.068.025.1.1 0 0 1-.069-.034.08.08 0 0 1-.024-.07.1.1 0 0 1 .031-.067l.036-.03.032-.03a3 3 0 0 1 .3-.244.6.6 0 0 1 .146-.065.24.24 0 0 1 .143-.003.15.15 0 0 1 .078.045q.022.029.028.052.03.075-.013.152a2 2 0 0 1-.122.195l-.016.026q.048-.021.123-.046l.19-.074a.1.1 0 0 1 .077.006q.035.015.05.055a.08.08 0 0 1-.004.074.1.1 0 0 1-.051.052l-.188.065-.144.052-.057.021-.042.015-.043.011-.027.005Z" opacity=".25"/>
<path fill="#333" d="M11.969 11.197a.3.3 0 0 1-.09-.013.12.12 0 0 1-.081-.068.22.22 0 0 1 0-.156q.033-.093.103-.239a.4.4 0 0 0 .026-.057l.03-.062a.4.4 0 0 0-.092.055l-.093.075a.1.1 0 0 1-.072.018.1.1 0 0 1-.066-.036.1.1 0 0 1-.02-.07.13.13 0 0 1 .035-.068l.094-.072a.5.5 0 0 1 .104-.065.32.32 0 0 1 .242-.034q.051.008.077.064.027.055-.003.13a2 2 0 0 1-.09.21l-.035.077-.033.074-.01.023-.006.02a.7.7 0 0 0 .196-.068q.069-.037.157-.094a3 3 0 0 0 .2-.146l.166-.14.135-.122.094-.09.036-.036q.039-.045.093-.03a.1.1 0 0 1 .043.024l.025.032q.022.046.003.106a2 2 0 0 1-.072.192l-.038.083-.033.078-.008.036a.3.3 0 0 0 .096-.036 1.2 1.2 0 0 0 .2-.138 1 1 0 0 1 .082-.072.1.1 0 0 1 .07-.026.1.1 0 0 1 .069.033.1.1 0 0 1 .023.072.1.1 0 0 1-.034.066q-.073.07-.15.13a2 2 0 0 1-.16.103.6.6 0 0 1-.158.062.4.4 0 0 1-.158-.003.14.14 0 0 1-.075-.064.2.2 0 0 1-.014-.098 1 1 0 0 1 .04-.138l-.075.06-.078.065q-.446.353-.695.353" opacity=".25"/>
<path fill="#333" d="M14.166 11.012a.1.1 0 0 1-.065-.023q-.052-.042-.028-.106l.023-.078.057-.167.03-.095.022-.074-.155.058-.188.072-.201.073-.2.075a.1.1 0 0 1-.07-.003.1.1 0 0 1-.056-.057.08.08 0 0 1 .006-.072.1.1 0 0 1 .056-.055l.3-.11.288-.107.214-.08.087-.034.029-.003a.1.1 0 0 1 .033.003.08.08 0 0 1 .064.052q.016.025.013.069a.6.6 0 0 1-.015.112l-.026.094-.036.114-.006.023-.007.021q.13-.07.316-.148a.1.1 0 0 1 .072 0 .1.1 0 0 1 .052.049.08.08 0 0 1 .003.073.1.1 0 0 1-.052.056 4 4 0 0 0-.365.175l-.146.077a.1.1 0 0 1-.049.016" opacity=".25"/>
<path fill="#333" d="M15.822 10.98a.1.1 0 0 1-.043-.007.12.12 0 0 1-.086-.075.17.17 0 0 1 .01-.122 1 1 0 0 1 .083-.152l.036-.058.032-.058.017-.033a1.4 1.4 0 0 0-.511.042 4.5 4.5 0 0 0-.638.228.1.1 0 0 1-.072.002.1.1 0 0 1-.05-.052.08.08 0 0 1-.003-.074.1.1 0 0 1 .052-.055q.184-.08.345-.14.165-.06.317-.096.398-.101.65-.032a.15.15 0 0 1 .104.09q.03.075-.014.162a2 2 0 0 1-.1.177l-.012.017-.01.022q.075-.014.216-.065.147-.048.404-.14a.08.08 0 0 1 .072.005q.04.015.052.055.015.036 0 .074a.1.1 0 0 1-.057.052l-.274.094-.219.072-.202.055a.5.5 0 0 1-.099.013Z" opacity=".25"/>
<path fill="#333" d="M17.331 11.012a.1.1 0 0 1-.065-.023q-.051-.042-.028-.106l.023-.078.057-.167.029-.095.023-.074-.155.058-.188.072-.201.073-.2.075a.1.1 0 0 1-.072-.003.12.12 0 0 1-.054-.057.08.08 0 0 1 .006-.072.1.1 0 0 1 .055-.055l.302-.11.288-.107.212-.08.088-.034.029-.003a.1.1 0 0 1 .033.003.08.08 0 0 1 .064.052q.016.025.013.069a1 1 0 0 1-.042.206l-.035.114-.008.023-.005.021q.13-.07.316-.148a.1.1 0 0 1 .072 0q.035.015.05.049a.08.08 0 0 1 .005.073.1.1 0 0 1-.052.056 4 4 0 0 0-.365.175l-.146.077a.1.1 0 0 1-.049.016" opacity=".25"/>
<path fill="#333" d="M18.588 11.012a.1.1 0 0 1-.065-.023q-.052-.042-.028-.106l.023-.078.057-.167.029-.095.023-.074-.155.058-.188.072-.201.073-.2.075a.1.1 0 0 1-.072-.003.1.1 0 0 1-.054-.057.08.08 0 0 1 .006-.072.1.1 0 0 1 .055-.055l.302-.11.288-.107.212-.08.088-.034.029-.003a.1.1 0 0 1 .033.003.08.08 0 0 1 .064.052q.016.025.013.069a1 1 0 0 1-.042.206l-.035.114-.008.023-.005.021a3 3 0 0 1 .316-.148.1.1 0 0 1 .072 0 .1.1 0 0 1 .05.049.08.08 0 0 1 .005.073.1.1 0 0 1-.052.056 4 4 0 0 0-.365.175l-.146.077a.1.1 0 0 1-.049.016M7.625 14.086l-.05-.002-.042-.01a.12.12 0 0 1-.08-.068.2.2 0 0 1 0-.154q.032-.096.104-.24l.026-.058.029-.062a.3.3 0 0 0-.09.054l-.094.075a.1.1 0 0 1-.072.02.1.1 0 0 1-.068-.036.1.1 0 0 1-.019-.072.12.12 0 0 1 .035-.067 1 1 0 0 0 .095-.072.4.4 0 0 1 .102-.063.33.33 0 0 1 .243-.037q.052.01.078.065t-.003.13a2 2 0 0 1-.09.21l-.036.078-.032.075-.01.021-.007.02a.7.7 0 0 0 .197-.068q.07-.035.155-.094a6 6 0 0 0 .202-.144l.164-.14q.078-.067.135-.124l.096-.089q.036-.033.034-.036.039-.045.094-.029a.1.1 0 0 1 .043.022l.026.033a.15.15 0 0 1 .003.107 3 3 0 0 1-.072.19l-.04.084-.03.078-.011.035a.3.3 0 0 0 .098-.035 1.2 1.2 0 0 0 .2-.14l.08-.071a.1.1 0 0 1 .073-.025.1.1 0 0 1 .067.032.1.1 0 0 1 .022.072q0 .039-.032.067a1.6 1.6 0 0 1-.311.233.6.6 0 0 1-.158.061.4.4 0 0 1-.158-.003.13.13 0 0 1-.075-.065.2.2 0 0 1-.013-.096 1 1 0 0 1 .039-.14 1 1 0 0 1-.074.062l-.078.065q-.446.352-.695.351" opacity=".25"/>
<path fill="#333" d="m9.343 14.086-.05-.002-.041-.01a.12.12 0 0 1-.08-.068.2.2 0 0 1 0-.154q.032-.096.103-.24l.026-.058.029-.062a.4.4 0 0 0-.091.054l-.094.075a.1.1 0 0 1-.072.02.1.1 0 0 1-.066-.036.1.1 0 0 1-.02-.072.13.13 0 0 1 .036-.067q.045-.032.094-.072a.4.4 0 0 1 .103-.063.33.33 0 0 1 .242-.037q.052.01.078.065t-.003.13q-.026.075-.09.21l-.037.078-.031.075-.01.021-.006.02a.4.4 0 0 0 .08-.02.6.6 0 0 0 .116-.047 2 2 0 0 0 .157-.095 6 6 0 0 0 .2-.144l.164-.14q.077-.067.137-.124l.093-.089.036-.036q.039-.045.094-.029a.1.1 0 0 1 .042.022l.026.033q.023.044.002.107a2 2 0 0 1-.072.19l-.037.084q-.016.042-.033.078l-.009.035a.3.3 0 0 0 .097-.035 1.2 1.2 0 0 0 .2-.14l.08-.071a.1.1 0 0 1 .072-.025.1.1 0 0 1 .068.032.1.1 0 0 1 .023.072.1.1 0 0 1-.033.067 1.6 1.6 0 0 1-.31.233.6.6 0 0 1-.158.061.4.4 0 0 1-.158-.003.13.13 0 0 1-.075-.065.2.2 0 0 1-.014-.096 1 1 0 0 1 .04-.14 1 1 0 0 1-.075.062l-.078.065q-.447.352-.695.351" opacity=".25"/>
<path fill="#333" d="M11.937 13.87a.2.2 0 0 1-.041-.005.12.12 0 0 1-.087-.075.17.17 0 0 1 .009-.124 1 1 0 0 1 .085-.151l.034-.058.034-.059a.1.1 0 0 0 .015-.031 1 1 0 0 0-.226-.008q-.127.007-.285.05a4.5 4.5 0 0 0-.636.226.1.1 0 0 1-.072.002.1.1 0 0 1-.052-.052.08.08 0 0 1-.003-.073.1.1 0 0 1 .052-.056q.184-.081.345-.138.165-.062.317-.098.399-.101.651-.032.075.019.104.09a.2.2 0 0 1-.015.162q-.04.084-.099.178l-.013.015-.009.024q.074-.017.216-.065.146-.048.404-.144a.1.1 0 0 1 .072.008.1.1 0 0 1 .051.056q.015.034 0 .073a.1.1 0 0 1-.057.052l-.272.094a4 4 0 0 1-.42.127 1 1 0 0 1-.102.012" opacity=".25"/>
<path fill="#333" d="M13.141 13.806a.16.16 0 0 1-.1-.042.3.3 0 0 1-.027-.046.17.17 0 0 1 .015-.144q.04-.08.102-.163l.036-.055.032-.054.01-.015-.05.02a1 1 0 0 0-.184.133l-.132.117-.036.033-.032.028a.1.1 0 0 1-.067.026.1.1 0 0 1-.07-.036.08.08 0 0 1-.024-.067.1.1 0 0 1 .032-.068.2.2 0 0 1 .036-.029 3 3 0 0 1 .333-.277.6.6 0 0 1 .145-.063.25.25 0 0 1 .142-.004.16.16 0 0 1 .078.046q.023.03.029.052a.17.17 0 0 1-.013.151q-.043.078-.107.173l-.015.022-.016.025.122-.044.19-.075a.1.1 0 0 1 .078.006q.036.017.049.056.016.034-.003.073a.1.1 0 0 1-.052.052l-.187.065-.144.052-.058.023-.041.013a.2.2 0 0 0-.042.013z" opacity=".25"/>
<path fill="#333" d="M14.031 13.806a.15.15 0 0 1-.1-.042.17.17 0 0 1-.013-.19q.042-.08.104-.163l.035-.055.033-.054.009-.015-.048.02a1 1 0 0 0-.184.133l-.133.117-.036.033-.033.028a.1.1 0 0 1-.067.026.1.1 0 0 1-.068-.036.08.08 0 0 1-.026-.067.1.1 0 0 1 .033-.068.1.1 0 0 1 .035-.029l.033-.033a4 4 0 0 1 .15-.132q.08-.065.15-.111a.6.6 0 0 1 .145-.064.25.25 0 0 1 .144-.004.16.16 0 0 1 .077.046.2.2 0 0 1 .03.052.17.17 0 0 1-.015.151 2 2 0 0 1-.137.22l.122-.044.19-.075a.1.1 0 0 1 .078.006q.035.017.05.056a.1.1 0 0 1-.005.073.1.1 0 0 1-.05.052l-.188.065a3 3 0 0 0-.201.075l-.043.013a.2.2 0 0 0-.04.013z" opacity=".25"/>
<path fill="#333" d="M15.229 13.902a.1.1 0 0 1-.065-.021.09.09 0 0 1-.029-.107l.023-.078.058-.168.029-.094.023-.075-.156.058-.187.072-.202.075-.2.073a.1.1 0 0 1-.072-.003.1.1 0 0 1-.053-.057.08.08 0 0 1 .006-.072.1.1 0 0 1 .055-.055l.302-.11q.159-.057.288-.107l.212-.081.088-.032.028-.003a.05.05 0 0 1 .033.003q.045.006.065.052.015.026.013.068a1 1 0 0 1-.042.207l-.036.112-.007.023-.006.023q.13-.071.317-.15a.1.1 0 0 1 .072 0q.035.015.05.05a.08.08 0 0 1 .005.075.1.1 0 0 1-.052.054l-.204.094-.162.08-.145.078a.1.1 0 0 1-.05.016Zm2.353.184-.05-.002-.041-.01a.12.12 0 0 1-.08-.068.2.2 0 0 1 0-.154q.03-.096.103-.24l.026-.058.029-.062a.3.3 0 0 0-.091.054l-.094.075a.1.1 0 0 1-.072.02.1.1 0 0 1-.067-.036.1.1 0 0 1-.019-.072.1.1 0 0 1 .036-.067q.045-.032.094-.072a.4.4 0 0 1 .103-.063.33.33 0 0 1 .242-.037q.052.01.078.065.025.055-.003.13-.025.075-.09.21l-.037.078-.031.075-.01.021-.006.02a.4.4 0 0 0 .08-.02.6.6 0 0 0 .116-.047q.07-.036.155-.095.087-.06.202-.144l.164-.14a4 4 0 0 0 .137-.124l.093-.089.035-.036a.08.08 0 0 1 .095-.029.1.1 0 0 1 .042.022l.026.033a.15.15 0 0 1 .003.107 3 3 0 0 1-.073.19l-.037.084-.033.078-.01.035a.3.3 0 0 0 .098-.035 1.2 1.2 0 0 0 .2-.14l.08-.071a.1.1 0 0 1 .072-.025.1.1 0 0 1 .068.032.1.1 0 0 1 .023.072.1.1 0 0 1-.033.067 1.6 1.6 0 0 1-.31.233.6.6 0 0 1-.158.061.4.4 0 0 1-.158-.003.12.12 0 0 1-.075-.065.2.2 0 0 1-.014-.096 1 1 0 0 1 .04-.14 1 1 0 0 1-.075.062l-.078.065q-.447.352-.695.351" opacity=".25"/>
<path fill="#333" d="m19.448 14.094-.032-.003-.036-.003a.13.13 0 0 1-.065-.056.1.1 0 0 1-.014-.045l.007-.084.039-.15.078-.248-.164.062-.188.072a.1.1 0 0 1-.072-.005.1.1 0 0 1-.054-.057.08.08 0 0 1 .006-.072.1.1 0 0 1 .054-.055l.202-.075.171-.06.12-.046.044-.02a.08.08 0 0 1 .062-.002q.044.009.062.047.016.03.009.052l-.009.05a.1.1 0 0 0-.01.028l-.01.033-.048.135-.049.159-.025.078-.016.057q.06-.012.177-.073.101-.055.214-.127a8 8 0 0 0 .287-.187l.052-.036a.1.1 0 0 1 .075-.013q.038.008.064.043.024.035.013.074a.08.08 0 0 1-.043.057l-.053.04-.056.035-.24.156q-.114.075-.22.13-.21.108-.33.109zM7.897 16.636q-.016 0-.026-.002a.16.16 0 0 1-.075-.04.3.3 0 0 1-.026-.045.17.17 0 0 1 .015-.144q.04-.08.102-.163a.4.4 0 0 0 .036-.055l.032-.055.01-.014-.05.02-.06.04a1 1 0 0 0-.124.093l-.132.116-.036.033-.032.03a.1.1 0 0 1-.067.025.1.1 0 0 1-.068-.036.08.08 0 0 1-.026-.067.1.1 0 0 1 .032-.068.2.2 0 0 1 .036-.029l.031-.033a3 3 0 0 1 .301-.243.6.6 0 0 1 .146-.064.25.25 0 0 1 .144-.004.16.16 0 0 1 .076.046q.023.029.029.052a.17.17 0 0 1-.013.151q-.042.078-.107.173l-.015.021-.016.026.122-.044.192-.075a.1.1 0 0 1 .077.006.1.1 0 0 1 .048.056q.016.034-.003.073a.1.1 0 0 1-.052.052l-.187.065a4 4 0 0 0-.2.075l-.043.013a.2.2 0 0 0-.042.013z" opacity=".25"/>
<path fill="#333" d="M8.617 16.917a.3.3 0 0 1-.092-.013.12.12 0 0 1-.08-.067.22.22 0 0 1 0-.156 2 2 0 0 1 .103-.239.4.4 0 0 0 .026-.058l.029-.061a.3.3 0 0 0-.09.054l-.095.075a.08.08 0 0 1-.07.019.1.1 0 0 1-.068-.036.1.1 0 0 1-.02-.072.13.13 0 0 1 .036-.066l.093-.072a.5.5 0 0 1 .104-.065.32.32 0 0 1 .243-.035q.053.01.078.065.027.055-.004.13a2 2 0 0 1-.09.21l-.035.076-.033.075-.01.023-.006.019a.7.7 0 0 0 .197-.068q.068-.036.155-.093a4 4 0 0 0 .202-.146l.164-.14a4 4 0 0 0 .23-.213l.035-.036A.08.08 0 0 1 9.713 16a.1.1 0 0 1 .043.023q.015.015.024.031a.13.13 0 0 1 .003.107 3 3 0 0 1-.07.191l-.04.084q-.015.043-.03.078l-.01.036a.3.3 0 0 0 .096-.036 1.2 1.2 0 0 0 .201-.139l.08-.072a.1.1 0 0 1 .073-.026.1.1 0 0 1 .066.034.1.1 0 0 1 .023.072q0 .037-.032.066a1.6 1.6 0 0 1-.311.233.6.6 0 0 1-.158.062.4.4 0 0 1-.158-.003.14.14 0 0 1-.075-.065.2.2 0 0 1-.013-.098 1 1 0 0 1 .039-.138 1 1 0 0 1-.075.06l-.077.065q-.446.354-.695.353Z" opacity=".25"/>
<path fill="#333" d="M11.212 16.701a.2.2 0 0 1-.043-.006.12.12 0 0 1-.087-.074.16.16 0 0 1 .01-.124 1 1 0 0 1 .084-.151l.036-.058.031-.06a.1.1 0 0 0 .016-.03 1 1 0 0 0-.226-.008 1.5 1.5 0 0 0-.285.049 5 5 0 0 0-.636.226.1.1 0 0 1-.072.003.1.1 0 0 1-.05-.052.08.08 0 0 1-.005-.073.1.1 0 0 1 .052-.056q.184-.08.345-.139.165-.062.317-.098.4-.1.65-.031.075.018.105.09a.2.2 0 0 1-.013.162 2 2 0 0 1-.101.178l-.012.013-.01.025q.075-.018.216-.065.145-.049.405-.144a.1.1 0 0 1 .072.007.1.1 0 0 1 .052.056q.015.035 0 .074a.1.1 0 0 1-.058.052l-.274.093a5 5 0 0 1-.42.127 1 1 0 0 1-.1.013v.001Z" opacity=".25"/>
<path fill="#333" d="m12.39 16.924-.03-.002-.037-.003a.13.13 0 0 1-.065-.056.1.1 0 0 1-.012-.045.3.3 0 0 1 .007-.084q.012-.055.039-.15l.076-.248-.164.061-.187.072a.1.1 0 0 1-.072-.004.1.1 0 0 1-.055-.058.1.1 0 0 1 .006-.072.1.1 0 0 1 .056-.054l.2-.075.171-.06.12-.047.046-.018a.07.07 0 0 1 .06-.003.08.08 0 0 1 .062.047q.016.03.01.052l-.01.05a.1.1 0 0 0-.01.028l-.009.033a2 2 0 0 0-.048.135l-.05.159-.025.078-.016.057a.8.8 0 0 0 .178-.073 3 3 0 0 0 .213-.127q.113-.072.237-.156l.052-.031.051-.036a.1.1 0 0 1 .074-.013.1.1 0 0 1 .065.043.1.1 0 0 1 .014.073.1.1 0 0 1-.043.058l-.055.039-.055.036-.24.155q-.115.076-.219.13-.21.11-.334.11Z" opacity=".25"/>
<path fill="#333" d="M13.505 16.917a.3.3 0 0 1-.09-.013.12.12 0 0 1-.08-.067.22.22 0 0 1 0-.156 2 2 0 0 1 .103-.239.4.4 0 0 0 .026-.058l.028-.061a.3.3 0 0 0-.089.054l-.095.075a.08.08 0 0 1-.07.019.1.1 0 0 1-.068-.036.1.1 0 0 1-.02-.072.13.13 0 0 1 .036-.066l.093-.072a.5.5 0 0 1 .104-.065.32.32 0 0 1 .243-.035q.051.01.077.065.025.055-.003.13a2 2 0 0 1-.09.21l-.035.076-.034.075-.01.023-.005.019a.7.7 0 0 0 .197-.068q.068-.036.155-.093a4 4 0 0 0 .202-.146l.164-.14a5 5 0 0 0 .229-.213l.036-.036a.08.08 0 0 1 .094-.028.1.1 0 0 1 .043.023q.015.015.024.031a.13.13 0 0 1 .003.107 3 3 0 0 1-.07.191l-.04.084-.031.078-.01.036a.3.3 0 0 0 .096-.036 1.2 1.2 0 0 0 .202-.139l.08-.072a.1.1 0 0 1 .073-.026.1.1 0 0 1 .066.034.1.1 0 0 1 .023.072q0 .037-.032.066a1.6 1.6 0 0 1-.311.233.6.6 0 0 1-.158.062.4.4 0 0 1-.159-.003.14.14 0 0 1-.074-.065.2.2 0 0 1-.013-.098 1 1 0 0 1 .039-.138l-.075.06-.078.065q-.447.354-.696.353" opacity=".25"/>
<path fill="#333" d="m15.373 16.924-.032-.002-.036-.003a.13.13 0 0 1-.064-.056.1.1 0 0 1-.015-.045.4.4 0 0 1 .007-.084l.04-.15.077-.248-.164.061-.187.072a.1.1 0 0 1-.072-.004.1.1 0 0 1-.055-.058.08.08 0 0 1 .006-.072.1.1 0 0 1 .054-.054l.202-.075.171-.06.12-.047.044-.018a.08.08 0 0 1 .062-.003.08.08 0 0 1 .062.047q.016.03.009.052l-.009.05a.1.1 0 0 0-.01.028l-.01.033q-.021.055-.047.135l-.05.159-.025.078-.016.057q.06-.013.177-.073.101-.056.214-.127a12 12 0 0 0 .339-.223.1.1 0 0 1 .075-.013.1.1 0 0 1 .065.043q.023.034.012.073-.005.037-.043.058l-.053.039-.056.036-.24.155q-.115.076-.22.13-.21.11-.33.11h-.002Z" opacity=".25"/>
<path fill="url(#b)" d="M5.569 6.524 4.518 7.777l-.57-.478-.38.455 1.023.86 1.431-1.707z" opacity=".2"/>
<path fill="url(#c)" d="m5.569 12.33-1.051 1.252-.57-.478-.38.455 1.023.86 1.431-1.706z" opacity=".2"/>
<path fill="url(#d)" d="M5.569 15.289 4.518 16.54l-.57-.477-.38.454 1.023.86 1.431-1.707z" opacity=".2"/>
<path stroke="url(#e)" stroke-linecap="square" stroke-linejoin="round" stroke-width=".376" d="M16.487 7.292a.75.75 0 0 0-1.06.093l-4.832 5.76-2.303-1.934a.75.75 0 0 0-1.059.092l-.966 1.152a.75.75 0 0 0 .092 1.06l4.032 3.382a.75.75 0 0 0 1.06-.093l6.28-7.487a.75.75 0 0 0-.092-1.058z" opacity=".5"/>
<path fill="#1F9BFF" d="M16.487 7.292a.75.75 0 0 0-1.06.093l-4.832 5.76-2.303-1.934a.75.75 0 0 0-1.059.092l-.966 1.152a.75.75 0 0 0 .092 1.06l4.032 3.382a.75.75 0 0 0 1.06-.093l6.28-7.487a.75.75 0 0 0-.092-1.058z"/>
<defs>
<linearGradient id="b" x1="4.797" x2="4.797" y1="5.985" y2="9.152" gradientUnits="userSpaceOnUse">
<stop stop-color="#64BAFF"/>
<stop offset="1" stop-color="#0D52BF"/>
</linearGradient>
<linearGradient id="c" x1="4.797" x2="4.797" y1="11.792" y2="14.959" gradientUnits="userSpaceOnUse">
<stop stop-color="#64BAFF"/>
<stop offset="1" stop-color="#0D52BF"/>
</linearGradient>
<linearGradient id="d" x1="4.797" x2="4.797" y1="14.748" y2="17.915" gradientUnits="userSpaceOnUse">
<stop stop-color="#64BAFF"/>
<stop offset="1" stop-color="#0D52BF"/>
</linearGradient>
<linearGradient id="e" x1="12.003" x2="12.002" y1="18.288" y2="12.088" gradientUnits="userSpaceOnUse">
<stop stop-color="#fff"/>
<stop offset="1" stop-color="#fff" stop-opacity="0"/>
</linearGradient>
<radialGradient id="a" cx="0" cy="0" r="1" gradientTransform="matrix(0 22 -22 0 12 1)" gradientUnits="userSpaceOnUse">
<stop stop-color="#FAFAFA"/>
<stop offset="1" stop-color="#CCC"/>
</radialGradient>
</defs>
</svg>
