<svg xmlns="http://www.w3.org/2000/svg" width="24" height="24" fill="none">
<path fill="url(#a)" fill-rule="evenodd" d="M9.596 1.114q.18.001.344-.046a32 32 0 0 1 4.307.011q1.951.153 3.78.848 3.038 1.25 4.158 4.339.64 1.86.756 3.824a28 28 0 0 1-.114 4.923 11.9 11.9 0 0 1-.894 3.32q-1.276 2.764-4.135 3.813a15.6 15.6 0 0 1-4.765.825 21.4 21.4 0 0 1-5.453-.413q-4.967-1.106-6.128-6.056a19 19 0 0 1-.447-4.511 18.5 18.5 0 0 1 .515-4.786q1.217-4.629 5.877-5.736a14 14 0 0 1 2.199-.355" clip-rule="evenodd"/>
<path fill="#CCC" d="M7.816 3h7.981c1.053 0 1.712.826 1.9 1.816l2.28 11.987c.19.99-.847 1.816-1.9 1.816H5.917c-1.053 0-2.058-.821-1.9-1.816L5.915 4.816C6.074 3.821 6.763 3 7.816 3"/>
<path fill="#333" d="M18.077 15.19H5.916c-1.05 0-1.9.853-1.9 1.905S4.866 19 5.916 19h12.161c1.05 0 1.9-.853 1.9-1.905s-.85-1.904-1.9-1.904Z"/>
<path fill="#3889E9" d="M14.657 16.714h-6.84a.38.38 0 0 0 0 .762h6.84a.38.38 0 0 0 0-.762"/>
<path fill="url(#b)" d="M5.915 17.857a.761.761 0 1 0-.002-1.522.761.761 0 0 0 .002 1.522" opacity=".452"/>
<path fill="#fff" d="M5.916 16.743a.05.05 0 0 0-.04.017.05.05 0 0 0-.016.04v.283a.056.056 0 0 0 .056.056.05.05 0 0 0 .04-.017.06.06 0 0 0 .016-.039v-.284a.05.05 0 0 0-.017-.039.05.05 0 0 0-.04-.017Zm-.163.083c-.015 0-.029 0-.042.012a.33.33 0 0 0-.108.402.3.3 0 0 0 .073.109.35.35 0 0 0 .37.072.33.33 0 0 0 .18-.181.336.336 0 0 0-.108-.403.05.05 0 0 0-.042-.011c-.015 0-.028.01-.037.022a.05.05 0 0 0-.01.042.06.06 0 0 0 .021.038.226.226 0 0 1-.222.388.224.224 0 0 1-.049-.389.06.06 0 0 0 .023-.038.05.05 0 0 0-.012-.041.05.05 0 0 0-.037-.022"/>
<path fill="#000" d="M5.916 15.19c-1.053 0-1.9.85-1.9 1.905q0 .034.003.067a1.794 1.794 0 0 1 1.798-1.772h12.36a1.793 1.793 0 0 1 1.798 1.771l.003-.066a1.9 1.9 0 0 0-1.9-1.904H5.915Zm8.512-8.656-1.065-.001a.17.17 0 0 0-.108.036.11.11 0 0 0-.045.087l-.002.86c0 .069.068.124.153.124h.148l-.001.656-1.13.611.005-2.505h.394a.13.13 0 0 0 .103-.046.08.08 0 0 0 .004-.095l-.774-1.213a.13.13 0 0 0-.108-.053.13.13 0 0 0-.107.053l-.78 1.21a.08.08 0 0 0 .004.095.13.13 0 0 0 .103.047h.393l-.007 3.471-1.216-.663.002-.52c.188-.101.313-.274.313-.47.001-.31-.31-.563-.696-.564-.385 0-.697.252-.698.562 0 .197.124.37.312.47l-.001.686c0 .103.063.2.17.258l1.812.989-.002 1.07c-.256.11-.432.326-.432.577 0 .364.363.66.813.66.451 0 .817-.294.817-.657 0-.252-.175-.467-.43-.579l.005-2.034 1.728-.936a.4.4 0 0 0 .057-.038.28.28 0 0 0 .114-.22v-.82h.15a.17.17 0 0 0 .107-.037.11.11 0 0 0 .046-.087l.001-.86c0-.069-.067-.124-.152-.124" opacity=".15"/>
<path fill="#F2F2F2" d="M20.709 15.469a4 4 0 0 0-.274-.537 4.2 4.2 0 0 0-.606-.76A3.85 3.85 0 0 0 17 13q-1.657 0-2.828 1.171A3.85 3.85 0 0 0 13 17q0 1.657 1.172 2.829A3.85 3.85 0 0 0 17 21q1.657 0 2.829-1.171.645-.645.935-1.439Q21 17.745 21 17a4.1 4.1 0 0 0-.172-1.2 4 4 0 0 0-.119-.332Z"/>
<path fill="#3889E9" d="M15 17.25a2 2 0 0 0 2 2c1.093 0 1.98-.803 1.998-1.892l.002-.033c0-.184-.191-.325-.375-.325s-.375.14-.375.325c0 .736-.514 1.175-1.25 1.175s-1.25-.514-1.25-1.25S16.264 16 17 16v.75l1.5-1.125L17 14.5v.75a2 2 0 0 0-2 2"/>
<defs>
<radialGradient id="a" cx="0" cy="0" r="1" gradientTransform="matrix(0 22 -22 0 12 1)" gradientUnits="userSpaceOnUse">
<stop stop-color="#999"/>
<stop offset="1" stop-color="#4D4D4D"/>
</radialGradient>
<linearGradient id="b" x1="5.956" x2="5.956" y1="17.76" y2="16.231" gradientUnits="userSpaceOnUse">
<stop stop-color="#040404"/>
<stop offset="1" stop-color="#121212" stop-opacity=".908"/>
</linearGradient>
</defs>
</svg>
