<svg xmlns="http://www.w3.org/2000/svg" xmlns:xlink="http://www.w3.org/1999/xlink" xml:space="preserve" width="24" height="24" fill="none">
<defs>
<linearGradient id="a">
<stop offset="0" style="stop-color:#797979;stop-opacity:1"/>
<stop offset="1" style="stop-color:#505050;stop-opacity:1"/>
</linearGradient>
<linearGradient xlink:href="#a" id="b" x1="51.918" x2="54.091" y1="95.511" y2="-1.392" gradientTransform="translate(-.222 -.222)scale(.24444)" gradientUnits="userSpaceOnUse"/>
</defs>
<path d="M12 1C2 1 1 6 1 12c0 8 3 11 11 11s11-3 11-11c0-6-1-11-11-11" style="font-variation-settings:normal;display:inline;opacity:1;vector-effect:none;fill:url(#b);fill-opacity:1;stroke-width:1.11627;stroke-linecap:butt;stroke-linejoin:miter;stroke-miterlimit:4;stroke-dasharray:none;stroke-dashoffset:0;stroke-opacity:1;-inkscape-stroke:none;stop-color:#000;stop-opacity:1"/>
<g style="clip-rule:evenodd;fill-rule:evenodd;stroke-linejoin:round;stroke-miterlimit:1.41421">
<path d="M13 99V-29h4V99Zm8 0V-29h4V99Zm8 0V-29h4V99Zm8 0V-29h4V99Zm8 0V-29h4V99Zm8 0V-29h4V99Zm8 0V-29h4V99Zm8 0V-29h4V99Zm8 0V-29h4V99Zm8 0V-29h4V99Zm8 0V-29h4V99Zm8 0V-29h4V99Z" style="fill:#8e8e8e;fill-opacity:1;fill-rule:evenodd;stroke-width:2" transform="translate(5.485 8.135)scale(.11042)"/>
<path d="M-5-11h128v4H-5Zm0 8h128v4H-5Zm0 8h128v4H-5Zm0 8h128v4H-5Zm0 8h128v4H-5Zm0 8h128v4H-5Zm0 8h128v4H-5Zm0 8h128v4H-5Zm0 8h128v4H-5Zm0 8h128v4H-5Zm0 8h128v4H-5Zm0 8h128v4H-5Z" style="fill:#8e8e8e;fill-opacity:1;fill-rule:evenodd;stroke-width:2" transform="translate(5.485 8.135)scale(.11042)"/>
<g transform="matrix(.44063 0 0 .4392 4.964 4.938)">
<rect width="28.067" height="28.144" x="1.933" y="3.02" rx="1.504" ry="1.508" style="opacity:.2;stroke-width:1.00377"/>
<rect width="28.067" height="28.159" x="1.933" y="2" rx="1.504" ry="1.508" style="fill:#363636;fill-opacity:1;stroke-width:1.00402"/>
<path d="M3.43 2.006c-.83 0-1.495.671-1.496 1.502l-.002 1.006c0-.83.666-1.502 1.497-1.503l25.07-.005c.83 0 1.5.669 1.5 1.5L30 3.5A1.496 1.496 0 0 0 28.5 2Z" style="opacity:.1;fill:#fff"/>
</g>
<path d="m7.1 7.887-.005 7.295h1.213V7.887Z" style="opacity:1;fill:#fff;fill-opacity:1;stroke-width:.787293" transform="translate(6.103 4.087)scale(.4572)"/>
<path d="M7.095 15.182 7.1 26h1.208c0-3.155-.002-7.662 0-10.818z" style="fill:#ff4500;fill-opacity:1;stroke-width:.603523" transform="translate(6.103 4.087)scale(.4572)"/>
<path d="M4.232 12.959h6.732v2.656H4.232Z" style="fill:#ff4500;fill-opacity:1;fill-rule:evenodd;stroke-width:1.33609" transform="translate(6.103 4.087)scale(.4572)"/>
<path d="m101 5-.045-9H75v33h26V17h-5v7H84v-7l-4-4V1h13v4" style="clip-rule:evenodd;fill:#ff9a0a;fill-opacity:1;fill-rule:evenodd;stroke-width:4.22976;stroke-linejoin:round;stroke-miterlimit:1.41421" transform="translate(4.712 8.135)scale(.11042)"/>
<path d="m101 47-.045-9H75v33h26V59h-5v7H84v-7l-4-4V43h13v4" style="clip-rule:evenodd;fill:#ff4500;fill-opacity:1;fill-rule:evenodd;stroke-width:4.22976;stroke-linejoin:round;stroke-miterlimit:1.41421" transform="translate(4.712 8.135)scale(.11042)"/>
</g>
</svg>
