<svg xmlns="http://www.w3.org/2000/svg" width="24" height="24" fill="none">
<path d="M50 5C9.09 5 5 25.455 5 50c0 32.727 12.273 45 45 45s45-12.273 45-45c0-24.545-4.09-45-45-45" style="font-variation-settings:normal;display:inline;opacity:1;vector-effect:none;fill:#df3643;fill-opacity:1;stroke-width:4.56656;stroke-linecap:butt;stroke-linejoin:miter;stroke-miterlimit:4;stroke-dasharray:none;stroke-dashoffset:0;stroke-opacity:1;-inkscape-stroke:none;stop-color:#000;stop-opacity:1" transform="translate(-1 -1)scale(.26)"/>
<path fill="#fff" d="M12 4.73c-3.866 0-7 3.858-7 8.616v1.077a3.23 3.23 0 0 0 3.23 3.231v-6.462a3.2 3.2 0 0 0-1.32.288C7.646 8.419 9.694 6.346 12 6.346s4.354 2.073 5.09 5.134a3.2 3.2 0 0 0-1.32-.288v6.462a3.23 3.23 0 0 0 3.23-3.23v-1.077c0-4.759-3.134-8.616-7-8.616ZM9.308 9.578v1.077h5.385V9.577Zm0 2.154v1.077h5.385v-1.077zm0 2.154v1.077h5.385v-1.077Zm0 2.154v1.077h5.385V16.04Zm0 2.154v1.076h5.385v-1.076z" style="stroke-width:.4587"/>
</svg>
