<svg xmlns="http://www.w3.org/2000/svg" xml:space="preserve" width="24" height="24" fill="none">
<defs>
<radialGradient id="a" cx="0" cy="0" r="1" fx="0" fy="0" gradientTransform="matrix(0 11 -11 0 -22 1)" gradientUnits="userSpaceOnUse" spreadMethod="pad">
<stop offset="0" style="stop-color:#818181;stop-opacity:1"/>
<stop offset="1" style="stop-color:#35393c;stop-opacity:1"/>
</radialGradient>
</defs>
<path d="M-24.407 1.115q.18 0 .344-.047a32 32 0 0 1 4.308.01 13.7 13.7 0 0 1 3.781.849c2.026.833 3.41 2.281 4.162 4.338.42 1.24.676 2.516.754 3.823a28.3 28.3 0 0 1-.114 4.928 12 12 0 0 1-.896 3.317q-1.276 2.766-4.135 3.812a15.6 15.6 0 0 1-4.767.824 21.3 21.3 0 0 1-5.452-.412c-3.308-.734-5.354-2.754-6.125-6.057a19 19 0 0 1-.448-4.51 18.5 18.5 0 0 1 .516-4.787q1.218-4.625 5.875-5.734a14 14 0 0 1 2.197-.354" style="fill:url(#a);fill-rule:evenodd;stroke:none;stroke-width:1.33333" transform="translate(34)"/>
<g transform="translate(52.5 -9.5)">
<rect width="13" height="13" x="-47" y="15" fill="#388e3c" rx="1.5" ry="1.5" style="stroke-width:.279802"/>
<path fill="#43a047" d="M-45.5 15c-.386 0-.735.145-1 .383V18l-.5.5v.5l.75.75h9.5l1.75-2h1v-.25h-1v-1l-2 2.25h-.75l2-2.25V15Zm1 7.75-2.5 2v.75l1.5-1v.5l-1.5 1h1v1.913a1.5 1.5 0 0 0 .5.087h1v-2.75L-43 24h.75l-1.5 1.25V28h8.25c.831 0 1.5-.669 1.5-1.5v-1.023l-1.75-2.227h-.5l-.5-.5z" style="stroke-width:.279802"/>
<path fill="#fbc02d" fill-rule="evenodd" d="M-43.25 18.5h.5v6h-.5zm1 0h.5v6h-.5zm1 0h.5v6h-.5zm1 0h.5v6h-.5zm1 0h.5v6h-.5zm1 0h.5v6h-.5z" style="stroke-width:.279802;paint-order:fill markers stroke"/>
<rect width="7.5" height="5" x="-44.25" y="19" rx=".75" ry=".75" style="opacity:.8;fill:#000;stroke-width:.279802"/>
<circle cx="-35.125" cy="26.875" r=".375" fill="#fbc02d" style="stroke-width:.279803"/>
<circle cx="-35.125" cy="26.875" r=".125" fill="#263238" style="stroke-width:.279803"/>
<circle cx="-35.125" cy="16.125" r=".375" fill="#fbc02d" style="stroke-width:.279803"/>
<circle cx="-35.125" cy="16.125" r=".125" fill="#263238" style="stroke-width:.279803"/>
<circle cx="-45.875" cy="26.875" r=".375" fill="#fbc02d" style="stroke-width:.279803"/>
<circle cx="-45.875" cy="26.875" r=".125" fill="#263238" style="stroke-width:.279803"/>
<circle cx="-45.875" cy="16.125" r=".375" fill="#fbc02d" style="stroke-width:.279803"/>
<circle cx="-45.875" cy="16.125" r=".125" fill="#263238" style="stroke-width:.279803"/>
<rect width="4.25" height="3" x="-48" y="15.5" fill="#f9f9f9" rx=".5" ry=".5" style="opacity:.8;stroke-width:.279802"/>
<rect width="4.25" height="3" x="-37.25" y="24.5" fill="#f9f9f9" rx=".5" ry=".5" style="opacity:.8;stroke-width:.279802"/>
<rect width="1" height=".25" x="-47.5" y="16.75" rx=".125" ry=".125" style="fill:#fff;stroke-width:.279802;paint-order:stroke fill markers"/>
<rect width="2" height=".25" x="-47.5" y="17.25" rx=".125" ry=".125" style="fill:#fff;stroke-width:.279802;paint-order:stroke fill markers"/>
<rect width=".75" height="1" x="-45" y="16.5" rx=".1" ry=".1" style="fill:#fff;stroke-width:.279802;paint-order:stroke fill markers"/>
<rect width="2.19" height=".243" x="-36.85" y="25.393" rx=".122" ry=".122" style="fill:#fff;stroke-width:.243342"/>
<path fill-rule="evenodd" d="m-34.66 26.367.487-.73.487.73z" style="fill:#fff;stroke-width:.243342"/>
<rect width="1.217" height=".243" x="-36.85" y="25.88" rx=".122" ry=".122" style="fill:#fff;stroke-width:.243342"/>
<path d="m-39.139 20.04-1.056 1.421 1.111 1.5h-.566l-.85-1.148-.85 1.147h-.566l1.134-1.528-1.037-1.392h.566l.774 1.04.774-1.04z" aria-label="x" style="fill:#fff;stroke-width:.243342"/>
</g>
</svg>
