<svg xmlns="http://www.w3.org/2000/svg" width="24" height="24" fill="none">
<path d="M50 5C9.09 5 5 25.455 5 50c0 32.727 12.273 45 45 45s45-12.273 45-45c0-24.545-4.09-45-45-45" style="font-variation-settings:normal;display:inline;opacity:1;vector-effect:none;fill:#f2f2f2;fill-opacity:1;stroke-width:4.56656;stroke-linecap:butt;stroke-linejoin:miter;stroke-miterlimit:4;stroke-dasharray:none;stroke-dashoffset:0;stroke-opacity:1;-inkscape-stroke:none;stop-color:#000;stop-opacity:1" transform="translate(-1 -1)scale(.26)"/>
<path fill="#ffd300" d="M12.7 4q13.16 16-7.276 12.601 13.72-.48 7.275-12.601"/>
<path fill="#008add" d="M12.094 6.8c-6.476.108-7.647 3.274-3.547 9.489a16 16 0 0 0 1.102-.228c-1.565-5.509 1.408-8.406 8.928-8.662q-3.834-.635-6.487-.591M9.074 17.076c.64.913 1.375 1.89 2.226 2.925-.536-1.01-.975-1.96-1.302-2.85-.3-.017-.608-.047-.924-.075"/>
</svg>
