<svg xmlns="http://www.w3.org/2000/svg" xml:space="preserve" width="24" height="24" viewBox="0 0 6.35 6.35">
<defs>
<radialGradient id="a" cx="0" cy="0" r="1" fx="0" fy="0" gradientTransform="matrix(0 16.5 -16.5 0 9 .75)" gradientUnits="userSpaceOnUse" spreadMethod="pad">
<stop offset="0" style="stop-opacity:1;stop-color:#01beff"/>
<stop offset="1" style="stop-opacity:1;stop-color:#436eff"/>
</radialGradient>
<clipPath id="b" clipPathUnits="userSpaceOnUse">
<path d="M0 0h19v19H0Z"/>
</clipPath>
</defs>
<path d="M7.453.801a1 1 0 0 1-.258.035 10 10 0 0 0-1.648.266q-3.492.831-4.406 4.3a14 14 0 0 0-.387 3.59q-.034 1.712.336 3.383c.578 2.477 2.113 3.992 4.594 4.543 1.351.277 2.714.383 4.089.309a11.7 11.7 0 0 0 3.575-.618q2.145-.784 3.101-2.859a9 9 0 0 0 .672-2.488q.204-1.845.086-3.696-.09-1.471-.566-2.867-.843-2.315-3.121-3.254a10.3 10.3 0 0 0-2.836-.636A24 24 0 0 0 7.453.801" style="fill:url(#a);fill-rule:evenodd;stroke:none" transform="scale(.35277)"/>
<path d="M8.984 2.812a17.8 17.8 0 0 0-5.695.942v3.75c.027 1.769.141 3.234.961 4.316.988 1.301 2.633 2.446 4.75 3.368 2.113-.922 3.77-2.067 4.754-3.368.82-1.082.93-2.547.957-4.316V3.777a17.8 17.8 0 0 0-5.727-.965" style="fill:#f2f2f2;fill-opacity:1;fill-rule:nonzero;stroke:none" transform="scale(.35277)"/>
<g clip-path="url(#b)" opacity=".1" transform="scale(.35277)">
<path d="M9 2.812v12.376c2.113-.922 3.766-2.067 4.754-3.368.82-1.082.93-2.547.957-4.316V3.777A17.7 17.7 0 0 0 9 2.812" style="fill:#000;fill-opacity:1;fill-rule:nonzero;stroke:none"/>
</g>
<path d="m6.551 7.734 2.691 2.696-.508.504-2.691-2.692Z" style="fill:#5dbe7b;fill-opacity:1;fill-rule:nonzero;stroke:none" transform="scale(.35277)"/>
<path d="m8.227 10.434 4.039-4.039.504.503-4.036 4.04z" style="fill:#5dbe7b;fill-opacity:1;fill-rule:nonzero;stroke:none" transform="scale(.35277)"/>
</svg>
