<svg xmlns="http://www.w3.org/2000/svg" width="24" height="24" fill="none">
<path fill="#33393E" fill-rule="evenodd" d="M9.94 1.068q-.164.048-.344.046-1.114.09-2.2.355Q2.738 2.576 1.52 7.205a18.5 18.5 0 0 0-.515 4.786q-.046 2.282.447 4.51 1.16 4.95 6.128 6.057 2.7.555 5.453.413a15.6 15.6 0 0 0 4.765-.825q2.859-1.049 4.135-3.812a11.9 11.9 0 0 0 .893-3.32q.276-2.457.115-4.924a14.3 14.3 0 0 0-.756-3.824q-1.12-3.09-4.158-4.34a13.5 13.5 0 0 0-3.78-.847 32 32 0 0 0-4.307-.011" clip-rule="evenodd"/>
<path fill="#E99F4B" fill-rule="evenodd" d="M22.21 6.34 11.295 8.164l2.515-7.113.437.028q1.951.153 3.78.848 3.038 1.25 4.158 4.339z" clip-rule="evenodd"/>
<path fill="#F6D152" fill-rule="evenodd" d="M22.712 8.243q.174.912.23 1.847a28 28 0 0 1-.116 4.923 12 12 0 0 1-.82 3.148L14.963 9.69z" clip-rule="evenodd"/>
<path fill="#369557" fill-rule="evenodd" d="M21.059 19.794q-1.232 1.608-3.261 2.352a15.6 15.6 0 0 1-4.765.825 22 22 0 0 1-1.09.029l3.601-9.589z" clip-rule="evenodd"/>
<path fill="#4C8FBF" fill-rule="evenodd" d="M10.123 22.926q-1.277-.107-2.543-.367-4.361-.972-5.788-4.906l10.836-1.811z" clip-rule="evenodd"/>
<path fill="#8E52A8" fill-rule="evenodd" d="M1.3 15.748a19 19 0 0 1-.295-3.757 18.5 18.5 0 0 1 .515-4.786q.193-.732.472-1.377l7.046 8.476z" clip-rule="evenodd"/>
<path fill="#fff" fill-rule="evenodd" d="M13.852 12a1.852 1.852 0 1 1-3.704 0 1.852 1.852 0 0 1 3.704 0" clip-rule="evenodd"/>
<path fill="#E06959" fill-rule="evenodd" d="M12.028 1q-1.044 0-2.088.068-.165.048-.344.046-1.114.09-2.2.355-2.904.69-4.471 2.75l5.504 6.37L12.03 1Z" clip-rule="evenodd"/>
</svg>
