<svg xmlns="http://www.w3.org/2000/svg" xml:space="preserve" width="24" height="24" fill="none">
<path d="M50 5C9.09 5 5 25.455 5 50c0 32.727 12.273 45 45 45s45-12.273 45-45c0-24.545-4.09-45-45-45" style="font-variation-settings:normal;display:inline;opacity:1;vector-effect:none;fill:#405474;fill-opacity:1;stroke-width:4.56656;stroke-linecap:butt;stroke-linejoin:miter;stroke-miterlimit:4;stroke-dasharray:none;stroke-dashoffset:0;stroke-opacity:1;-inkscape-stroke:none;stop-color:#000;stop-opacity:1" transform="translate(-1 -1)scale(.26)"/>
<path fill="#f9f9f9" d="M9.502 10.42a.7.7 0 0 0-.436.155 4.75 4.75 0 0 0-1.734 3.685C7.332 16.874 9.428 19 12 19s4.667-2.126 4.667-4.74a4.75 4.75 0 0 0-1.734-3.685.69.69 0 0 0-.87 0 3.2 3.2 0 0 1-2.063.744c-.757 0-1.47-.256-2.063-.744a.7.7 0 0 0-.436-.155Zm.298 1.716a4.03 4.03 0 0 0 2.2.641c.796 0 1.572-.226 2.202-.641a3.11 3.11 0 1 1-4.402 0M11.482 5a.52.52 0 1 0 .001 1.04.52.52 0 0 0 0-1.04zm1.608 1.036a.52.52 0 1 0 0 1.04.52.52 0 0 0 0-1.04m-1.35.52a.78.78 0 0 0 0 1.555.78.78 0 0 0 0-1.556zM13.3 8.11a.78.78 0 0 0 0 1.557.78.78 0 0 0 0-1.557m-2.593.519a.78.78 0 0 0 0 1.555.78.78 0 0 0 0-1.555"/>
</svg>
