<svg xmlns="http://www.w3.org/2000/svg" xml:space="preserve" width="24" height="24" fill="none">
<path d="M50 5C9.09 5 5 25.455 5 50c0 32.727 12.273 45 45 45s45-12.273 45-45c0-24.545-4.09-45-45-45" style="font-variation-settings:normal;display:inline;opacity:1;vector-effect:none;fill:#1a87e2;fill-opacity:1;stroke-width:4.56656;stroke-linecap:butt;stroke-linejoin:miter;stroke-miterlimit:4;stroke-dasharray:none;stroke-dashoffset:0;stroke-opacity:1;-inkscape-stroke:none;stop-color:#000;stop-opacity:1" transform="translate(-1 -1)scale(.26)"/>
<path fill="#fff" d="M12.002 4a7.998 7.998 0 1 0 0 15.997 7.998 7.998 0 0 0 0-15.997m-.486 1.606c.038.004.07.026.087.06l.79 1.661c.383.011.77.078 1.146.198l1.268-1.267a.106.106 0 0 1 .132-.015l1.01.614a.11.11 0 0 1 .045.128l-.612 1.727q.347.386.585.839h1.884a.11.11 0 0 1 .106.083l.28 1.149a.11.11 0 0 1-.057.122l-2.362.516a3.862 3.862 0 0 0-5.044-3.081l-.02-.012-.506-2.335a.11.11 0 0 1 .083-.104l1.147-.28q.019-.004.038-.003m-3.74 1.689a.1.1 0 0 1 .07.019L9.64 8.948a3.85 3.85 0 0 0-.259 5.882v.026l-1.613 1.782a.11.11 0 0 1-.133-.015l-.835-.834a.11.11 0 0 1-.013-.136l1.009-1.538a4.2 4.2 0 0 1-.429-1.082l-1.742-.427a.11.11 0 0 1-.081-.104v-1.18a.11.11 0 0 1 .085-.107l1.795-.374c.1-.33.24-.646.412-.937l-.977-1.61a.11.11 0 0 1 .015-.132l.835-.835a.1.1 0 0 1 .066-.032Zm7.995 5.536 2.343.525a.11.11 0 0 1 .05.123l-.306 1.139a.11.11 0 0 1-.111.081l-1.836-.107a4.2 4.2 0 0 1-.724.912l.5 1.721a.11.11 0 0 1-.048.123l-1.025.59a.11.11 0 0 1-.134-.021l-1.22-1.37a4.2 4.2 0 0 1-1.017.113l-.906 1.65a.11.11 0 0 1-.123.053l-1.141-.308a.11.11 0 0 1-.08-.11l.616-2.333.011-.006a3.862 3.862 0 0 0 5.15-2.773z"/>
</svg>
