<svg xmlns="http://www.w3.org/2000/svg" xml:space="preserve" width="24" height="24" fill="none">
<path d="M50 5C9.09 5 5 25.455 5 50c0 32.727 12.273 45 45 45s45-12.273 45-45c0-24.545-4.09-45-45-45" style="font-variation-settings:normal;display:inline;opacity:1;vector-effect:none;fill:#4f4f4f;fill-opacity:1;stroke-width:4.56656;stroke-linecap:butt;stroke-linejoin:miter;stroke-miterlimit:4;stroke-dasharray:none;stroke-dashoffset:0;stroke-opacity:1;-inkscape-stroke:none;stop-color:#000;stop-opacity:1" transform="translate(-1 -1)scale(.26)"/>
<path fill="#fff" d="M9.137 6.75 7.864 8.023l3.513 3.952-.71.835-.894-.97L5 17.25h14l-3.182-3.818-.368.42-2.296-2.582 3.3-3.883-.636-.637-3.266 3.843Zm2.842 5.903 2.278 2.562-.666.762-2.31-2.503z"/>
</svg>
