<svg xmlns="http://www.w3.org/2000/svg" width="24" height="24" fill="none">
<path fill="url(#a)" fill-rule="evenodd" d="M9.596 1.114q.18.001.344-.046a32 32 0 0 1 4.307.011q1.951.153 3.78.848 3.038 1.25 4.158 4.339.64 1.86.756 3.824a28 28 0 0 1-.114 4.923 11.9 11.9 0 0 1-.894 3.32q-1.276 2.764-4.135 3.813a15.6 15.6 0 0 1-4.765.825 21.4 21.4 0 0 1-5.453-.413q-4.967-1.106-6.128-6.056a19 19 0 0 1-.447-4.511 18.5 18.5 0 0 1 .515-4.786q1.217-4.629 5.877-5.736a14 14 0 0 1 2.199-.355" clip-rule="evenodd"/>
<path fill="#F9F9F9" fill-rule="evenodd" d="M2.536 19.2q-.725-1.164-1.084-2.698A19 19 0 0 1 1.21 15.2H2.8v1a1 1 0 0 0 1 1h2c.554 0 1-.446 1-1v-1h.82a1 1 0 0 0 .98.8h2a.996.996 0 0 0 .98-.8h.82v1a.996.996 0 0 0 1 1h2c.554 0 1-.446 1-1v-1h.8v1a.996.996 0 0 0 1 1h2c.554 0 1-.446 1-1v-1h1.603a12 12 0 0 1-.87 3.134 8 8 0 0 1-.465.866z" clip-rule="evenodd" opacity=".9"/>
<path fill="#F9F9F9" d="M8.6 12a.997.997 0 0 0-1 1v2c0 .554.446 1 1 1h2c.554 0 1-.446 1-1v-2c0-.554-.446-1-1-1zm-4.8 1.2a.997.997 0 0 0-1 1v2c0 .554.446 1 1 1h2c.554 0 1-.446 1-1v-2c0-.554-.446-1-1-1zm9.6 0a.996.996 0 0 0-1 1v2c0 .554.446 1 1 1h2c.554 0 1-.446 1-1v-2c0-.554-.446-1-1-1zm4.8 0a.996.996 0 0 0-1 1v2c0 .554.446 1 1 1h2c.554 0 1-.446 1-1v-2c0-.554-.446-1-1-1z" opacity=".5"/>
<defs>
<radialGradient id="a" cx="0" cy="0" r="1" gradientTransform="matrix(0 22 -22 0 12 1)" gradientUnits="userSpaceOnUse">
<stop stop-color="#68BBFF" stop-opacity=".875"/>
<stop offset="1" stop-color="#5C87FF"/>
</radialGradient>
</defs>
</svg>
