<svg xmlns="http://www.w3.org/2000/svg" width="24" height="24" fill="none">
<path fill="url(#a)" fill-rule="evenodd" d="M9.596 1.114q.18.001.344-.046a32 32 0 0 1 4.307.011q1.951.153 3.78.848 3.038 1.25 4.158 4.339.64 1.86.756 3.824a28 28 0 0 1-.114 4.923 11.9 11.9 0 0 1-.894 3.32q-1.276 2.764-4.135 3.813a15.6 15.6 0 0 1-4.765.825 21.4 21.4 0 0 1-5.453-.413q-4.967-1.106-6.128-6.056a19 19 0 0 1-.447-4.511 18.5 18.5 0 0 1 .515-4.786q1.217-4.629 5.877-5.736a14 14 0 0 1 2.199-.355" clip-rule="evenodd"/>
<path fill="#000" d="M12.74 3.2a1.385 1.385 0 0 0-.968 2.365c.256.256.505.563.505.925a.86.86 0 0 1-.862.862h-1.214a.23.23 0 0 0-.232.232v.461c0 .13.104.23.23.23h1.078a1 1 0 0 1 1 1v3.617c0 .07-.004.142 0 .213v1.483a.38.38 0 0 0 .143.288.516.516 0 0 0 .634 0 .38.38 0 0 0 .146-.293v-.074a1.15 1.15 0 0 1 1.155-1.155h1.467a1 1 0 0 0 .535-.155l.994-.63c.298-.184.806.046.877-.298.05-.239.05-.509.05-.764 0-.541-.43-1.384-.601-1.384-.126 0-.082.237-.325.46-.122.114-.506.308-.69.461a1.5 1.5 0 0 0-.351.403c-.111.196.199.326.31.522.053.09.053.286-.727.673-.628.314-1.658.712-2.003.712h-.23a.46.46 0 0 1-.463-.462V9.275a1 1 0 0 1 1-1h1.076a.23.23 0 0 0 .233-.23v-.46c0-.092-.053-.156-.128-.196a.45.45 0 0 0-.213-.037h-1.104a.86.86 0 0 1-.862-.862c0-.362.249-.669.505-.925a1.387 1.387 0 0 0-.082-2.035 1.4 1.4 0 0 0-.885-.33zm-.016.921h.017a.462.462 0 1 1 0 .925.462.462 0 1 1-.017-.925M7.75 10.123c-.169 0-.551.84-.551 1.384 0 .48 0 1.007.323 1.29.057.05.142.002.173-.068.045-.1.12-.187.184-.277a1.15 1.15 0 0 1 .936-.481h.037l.001-.002a.4.4 0 0 1 .039-.056c.126-.148.388-.23.304-.405a1.4 1.4 0 0 0-.381-.464c-.187-.153-.573-.349-.693-.46-.243-.224-.237-.461-.37-.461z" opacity=".35"/>
<path fill="#F9F9F9" fill-rule="evenodd" d="M2.536 19.2q-.725-1.164-1.084-2.698A19 19 0 0 1 1.21 15.2H2.8v1a1 1 0 0 0 1 1h2c.554 0 1-.446 1-1v-1h.82a1 1 0 0 0 .98.8h2a.996.996 0 0 0 .98-.8h.82v1a.996.996 0 0 0 1 1h2c.554 0 1-.446 1-1v-1h.8v1a.996.996 0 0 0 1 1h2c.554 0 1-.446 1-1v-1h1.603a12 12 0 0 1-.87 3.134 8 8 0 0 1-.465.866z" clip-rule="evenodd"/>
<path fill="#86AFFC" d="M8.6 12a.997.997 0 0 0-1 1v2c0 .554.446 1 1 1h2c.554 0 1-.446 1-1v-2c0-.554-.446-1-1-1zm-4.8 1.2a.997.997 0 0 0-1 1v2c0 .554.446 1 1 1h2c.554 0 1-.446 1-1v-2c0-.554-.446-1-1-1zm9.6 0a.996.996 0 0 0-1 1v2c0 .554.446 1 1 1h2c.554 0 1-.446 1-1v-2c0-.554-.446-1-1-1zm4.8 0a.996.996 0 0 0-1 1v2c0 .554.446 1 1 1h2c.554 0 1-.446 1-1v-2c0-.554-.446-1-1-1z"/>
<defs>
<radialGradient id="a" cx="0" cy="0" r="1" gradientTransform="matrix(0 22 -22 0 12 1)" gradientUnits="userSpaceOnUse">
<stop stop-color="#68BBFF" stop-opacity=".875"/>
<stop offset="1" stop-color="#5C87FF"/>
</radialGradient>
</defs>
</svg>
