<svg xmlns="http://www.w3.org/2000/svg" xmlns:xlink="http://www.w3.org/1999/xlink" width="24" height="24">
<defs>
<linearGradient xlink:href="#a" id="c" x1="12.573" x2="12.573" y1="9.995" y2="4.552" gradientUnits="userSpaceOnUse"/>
<linearGradient id="a" x1="12.573" x2="12.573" y1="9.995" y2="4.552" gradientUnits="userSpaceOnUse">
<stop stop-color="silver"/>
<stop offset="1" stop-color="#FAFAFA" stop-opacity=".992"/>
</linearGradient>
<linearGradient id="e" x1="12.23" x2="12.23" y1="12.979" y2="19.088" gradientUnits="userSpaceOnUse" spreadMethod="pad">
<stop offset="0" style="stop-opacity:1;stop-color:#b5b5b5"/>
<stop offset=".63" style="stop-opacity:1;stop-color:#f9f9f9"/>
<stop offset="1" style="stop-opacity:1;stop-color:#f9f9f9"/>
</linearGradient>
<radialGradient id="b" cx="0" cy="0" r="1" fx="0" fy="0" gradientTransform="matrix(0 11 -11 0 12 1)" gradientUnits="userSpaceOnUse" spreadMethod="pad">
<stop offset="0" style="stop-opacity:1;stop-color:#b3b3b3"/>
<stop offset="1" style="stop-opacity:1;stop-color:#8a8a8a"/>
</radialGradient>
<radialGradient id="d" cx="0" cy="0" r="1" fx="0" fy="0" gradientTransform="rotate(155.433 8.988 6.321)scale(17.6384 35.27681)" gradientUnits="userSpaceOnUse" spreadMethod="pad">
<stop offset="0" style="stop-opacity:1;stop-color:#777"/>
<stop offset="1" style="stop-opacity:1;stop-color:#333"/>
</radialGradient>
<filter id="g" width="1.6" height="1.6" x="-.3" y="-.3" color-interpolation-filters="sRGB">
<feGaussianBlur stdDeviation=".5"/>
</filter>
<filter id="f" width="1.216" height="1.216" x="-.108" y="-.108" color-interpolation-filters="sRGB">
<feGaussianBlur stdDeviation=".9"/>
</filter>
</defs>
<path d="M9.593 1.115q.18 0 .344-.047a32 32 0 0 1 4.308.01 13.7 13.7 0 0 1 3.781.849c2.026.833 3.41 2.281 4.162 4.338.42 1.24.676 2.516.754 3.823a28.3 28.3 0 0 1-.114 4.928 12 12 0 0 1-.896 3.317q-1.276 2.766-4.135 3.812a15.6 15.6 0 0 1-4.767.824 21.3 21.3 0 0 1-5.452-.412c-3.308-.734-5.354-2.754-6.125-6.057a19 19 0 0 1-.448-4.51 18.5 18.5 0 0 1 .516-4.787q1.218-4.625 5.875-5.734a14 14 0 0 1 2.197-.354" style="fill:url(#b);fill-rule:evenodd;stroke:none;stroke-width:1.33333"/>
<path fill="url(#a)" d="M6.27 11.427V5.411c0-.476.384-.859.86-.859h9.74c.476 0 .86.383.86.86v6.015z" style="fill:url(#c)"/>
<path d="M18.302 7.99H5.697a1.72 1.72 0 0 0-1.719 1.718v4.584c0 .948.77 1.719 1.719 1.719h12.605a1.72 1.72 0 0 0 1.719-1.719V9.708a1.72 1.72 0 0 0-1.719-1.719z" style="fill:url(#d);stroke:none;stroke-width:1.33333"/>
<path d="M18.016 11.427H5.984a.57.57 0 0 0-.572.573.57.57 0 0 0 .572.573h12.032a.57.57 0 0 0 .572-.573.57.57 0 0 0-.572-.573" style="fill:#8b8b8b;fill-opacity:1;fill-rule:nonzero;stroke:none;stroke-width:1.33333"/>
<path d="M6.27 12.573v6.015c0 .475.386.86.86.86h9.739a.86.86 0 0 0 .86-.86v-6.015z" style="fill:url(#e);stroke:none;stroke-width:1.33333"/>
<path d="M5.984 9.568a.43.43 0 1 0-.86-.004.43.43 0 0 0 .86.004" style="fill:#f2f2f2;fill-opacity:1;fill-rule:nonzero;stroke:none;stroke-width:1.33333"/>
<g paint-order="stroke markers fill" transform="translate(14.518 1.867)scale(.3148)">
<circle cx="-8" cy="35" r="14" fill="#666"/>
<circle cx="-8" cy="35" r="12" fill="#fff"/>
<circle cx="-8" cy="35" r="10" fill="#45474f" filter="url(#f)" opacity=".75"/>
<circle cx="-3.22" cy="31" r="2" fill="#fff" filter="url(#g)" opacity=".5"/>
</g>
</svg>
