<svg xmlns="http://www.w3.org/2000/svg" xml:space="preserve" width="24" height="24" viewBox="0 0 6.35 6.35">
<defs>
<linearGradient id="a" x1="12" x2="12" y1="1" y2="12" gradientTransform="matrix(.75 0 0 .75 -.75 -.75)" gradientUnits="userSpaceOnUse" spreadMethod="pad">
<stop offset="0" style="stop-opacity:1;stop-color:#fd807c"/>
<stop offset="1" style="stop-opacity:1;stop-color:#f4605d"/>
</linearGradient>
<clipPath id="b" clipPathUnits="userSpaceOnUse">
<path d="M0 0h17v17H0Z"/>
</clipPath>
</defs>
<path d="M2.098 14.781c-.864-.773-1.45-1.828-1.758-3.156q-.11-.482-.18-.969h16.192A9 9 0 0 1 15.699 13a5.4 5.4 0 0 1-1.285 1.781z" style="fill:#fff;fill-opacity:1;fill-rule:evenodd;stroke:none" transform="translate(.264 .265)scale(.35277)"/>
<path d="M8.238 0q-.767 0-1.535.051a1 1 0 0 1-.258.035 10 10 0 0 0-1.648.266q-3.492.832-4.406 4.3a14 14 0 0 0-.387 3.59q-.025 1.219.156 2.414h16.192l.019-.144q.123-1.096.129-2.192v-.285a22 22 0 0 0-.043-1.219 10.8 10.8 0 0 0-.566-2.867Q15.047 1.634 12.77.695A10.3 10.3 0 0 0 9.934.059 24 24 0 0 0 8.277 0Zm6.176 14.781H2.098c.742.668 1.687 1.133 2.836 1.387q1.605.333 3.234.332h.023q.417 0 .832-.023a11.7 11.7 0 0 0 3.575-.618 5.5 5.5 0 0 0 1.816-1.078" style="fill:url(#a);fill-rule:evenodd;stroke:none" transform="translate(.264 .265)scale(.35277)"/>
<path d="M6.781 2.75a.92.92 0 0 0-.867.559.9.9 0 0 0-.07.355v4.238a.918.918 0 0 0 1.375.793l3.668-2.117a.9.9 0 0 0 .336-.336.94.94 0 0 0 0-.918 1 1 0 0 0-.336-.336L7.219 2.871a.9.9 0 0 0-.438-.121" style="fill:#fff;fill-opacity:1;fill-rule:evenodd;stroke:none" transform="translate(.264 .265)scale(.35277)"/>
<g clip-path="url(#b)" opacity=".25" transform="translate(.264 .265)scale(.35277)">
<path d="M14.438 12.375H9.625a.34.34 0 0 0-.344.344c0 .187.153.343.344.343h4.813a.344.344 0 0 0 0-.687" style="fill:#000;fill-opacity:1;fill-rule:nonzero;stroke:none"/>
</g>
<path d="M8.938 12.375H2.062a.344.344 0 0 0 0 .687h6.876a.344.344 0 0 0 0-.687" style="fill:#f4605d;fill-opacity:1;fill-rule:nonzero;stroke:none" transform="translate(.264 .265)scale(.35277)"/>
<path d="M9.281 13.75a1.03 1.03 0 0 0 1.031-1.031c0-.571-.46-1.031-1.031-1.031a1.03 1.03 0 1 0 0 2.062" style="fill:#fff;fill-opacity:1;fill-rule:nonzero;stroke:none" transform="translate(.264 .265)scale(.35277)"/>
</svg>
