<svg xmlns="http://www.w3.org/2000/svg" xml:space="preserve" width="24" height="24" viewBox="0 0 6.35 6.35">
<defs>
<radialGradient id="a" cx="0" cy="0" r="1" fx="0" fy="0" gradientTransform="matrix(0 16.5 -16.5 0 9 .75)" gradientUnits="userSpaceOnUse" spreadMethod="pad">
<stop offset="0" style="stop-color:#fff;stop-opacity:1"/>
<stop offset="1" style="stop-color:#6e5dae;stop-opacity:1"/>
</radialGradient>
</defs>
<path d="M7.195.836q.135 0 .258-.035a24 24 0 0 1 3.231.008 10.3 10.3 0 0 1 2.836.636q2.278.938 3.121 3.254.476 1.396.566 2.867a21 21 0 0 1-.086 3.696 9 9 0 0 1-.672 2.488q-.957 2.074-3.101 2.859a11.7 11.7 0 0 1-3.575.618 16 16 0 0 1-4.089-.309c-2.481-.551-4.016-2.066-4.594-4.543a14.2 14.2 0 0 1-.336-3.383q-.041-1.818.387-3.59.914-3.468 4.406-4.3A10 10 0 0 1 7.195.836" style="fill:url(#a);fill-rule:evenodd;stroke:none;stroke-width:.99975;stroke-dasharray:none" transform="scale(.35277)"/>
<g transform="matrix(.06843 0 0 .07632 .78 .733)">
<rect width="52" height="52" x="-58" y="-58" fill="#f7941e" rx="26" ry="26" transform="scale(1 -1)rotate(90)"/>
<g stroke-width=".871">
<path fill="#4c3a91" d="M38 6a25.94 25.94 0 0 0-24.63 17.642h49.26A25.94 25.94 0 0 0 37.999 6ZM12.42 27.358a26 26 0 0 0-.346 2.785h51.855a26 26 0 0 0-.346-2.786zm-.347 6.498q.1 1.417.346 2.786h51.163q.246-1.369.346-2.786zm1.297 6.501A25.94 25.94 0 0 0 38.001 58a25.94 25.94 0 0 0 24.63-17.643Z"/>
<path fill="#6e5dae" d="M21.245 39.429A18.2 18.2 0 0 0 38 50.57a18.2 18.2 0 0 0 16.747-11.142Z"/>
<path fill="#fff" d="M13.37 23.643a26 26 0 0 0-.952 3.714h51.163a26 26 0 0 0-.95-3.714zm-1.298 6.5A27 27 0 0 0 12 32c0 .625.03 1.243.072 1.857h51.855A27 27 0 0 0 64 32c0-.625-.03-1.243-.073-1.857zm.346 6.5a26 26 0 0 0 .951 3.714h49.26a26 26 0 0 0 .951-3.714z"/>
</g>
</g>
</svg>
