<svg xmlns="http://www.w3.org/2000/svg" xmlns:xlink="http://www.w3.org/1999/xlink" xml:space="preserve" width="24" height="24" fill="none">
<defs>
<clipPath id="c">
<circle cx="8.467" cy="288.53" r="6.879" fill="#d86eb0" stroke-opacity=".039" stroke-width=".491" style="paint-order:stroke markers fill"/>
</clipPath>
<clipPath id="d">
<circle cx="8.467" cy="288.53" r="6.879" fill="#d86eb0" stroke-opacity=".039" stroke-width=".491" style="paint-order:stroke markers fill"/>
</clipPath>
<clipPath id="f">
<path d="M51.066 4H191v217H51.066Zm0 0"/>
</clipPath>
<clipPath id="e">
<circle cx="8.467" cy="288.53" r="6.879" fill="#d86eb0" stroke-opacity=".039" stroke-width=".491" style="paint-order:stroke markers fill"/>
</clipPath>
<linearGradient id="a">
<stop offset="0" style="stop-color:#2bd1d4;stop-opacity:1"/>
<stop offset="1" style="stop-color:#5df;stop-opacity:1"/>
</linearGradient>
<linearGradient xlink:href="#a" id="b" x1="12.125" x2="11.625" y1="20.063" y2="-1.75" gradientUnits="userSpaceOnUse"/>
</defs>
<path d="M12 1C2 1 1 6 1 12c0 8 3 11 11 11s11-3 11-11c0-6-1-11-11-11" style="font-variation-settings:normal;display:inline;opacity:1;vector-effect:none;fill:url(#b);fill-opacity:1;stroke-width:1.11627;stroke-linecap:butt;stroke-linejoin:miter;stroke-miterlimit:4;stroke-dasharray:none;stroke-dashoffset:0;stroke-opacity:1;-inkscape-stroke:none;stop-color:#000;stop-opacity:1"/>
<g stroke="#fff" stroke-opacity=".937" stroke-width=".105" clip-path="url(#c)" style="opacity:1" transform="translate(-1.325 -443.89)scale(1.57375)">
<path d="M1.485 287.74c.72.155 1.391.625 1.983 1.98.674 1.545 1.623 2.23 2.772 2.284 1.48.07 2.673-1.226 3.459-2.385 1.602-2.362 4.519-2.136 5.816-1.251" opacity=".35" style="stroke-width:.105371"/>
<path d="M1.493 288.13c.894-.35 2.083-.424 2.872.827.722 1.143 1.576 2.867 4.049 2.709 1.478-.095 2.956-.71 3.718-2.15.53-.933 1.26-1.872 2.293-2.104.382-.081.655-.07.976.057" opacity=".35" style="stroke-width:.105371"/>
<path d="M1.775 290.25c.947-.444 2.745-.953 4.197-.53 1.297.38 2.937 1.847 6.056 1.504.824-.09 1.522-.563 2.183-1.464.478-.652.75-1.02 1.306-1.167" opacity=".35" style="stroke-width:.105371"/>
</g>
<g stroke="#fff" stroke-opacity=".937" stroke-width=".105" clip-path="url(#d)" transform="translate(-1.325 -443.89)scale(1.57375)">
<path d="M1.485 287.74c.72.155 1.391.625 1.983 1.98.674 1.545 1.623 2.23 2.772 2.284 1.48.07 2.673-1.226 3.459-2.385 1.602-2.362 4.519-2.136 5.816-1.251" opacity=".35" style="stroke-width:.105371"/>
<path d="M1.493 288.13c.894-.35 2.083-.424 2.872.827.722 1.143 1.576 2.867 4.049 2.709 1.478-.095 2.956-.71 3.718-2.15.53-.933 1.26-1.872 2.293-2.104.382-.081.655-.07.976.057" opacity=".35" style="stroke-width:.105371"/>
<path d="M1.775 290.25c.947-.444 2.745-.953 4.197-.53 1.297.38 2.937 1.847 6.056 1.504.824-.09 1.522-.563 2.183-1.464.478-.652.75-1.02 1.306-1.167" opacity=".35" style="stroke-width:.105371"/>
</g>
<g stroke="#fff" stroke-opacity=".937" stroke-width=".105" clip-path="url(#e)" transform="translate(-1.325 -443.89)scale(1.57375)">
<path d="M1.485 287.74c.72.155 1.391.625 1.983 1.98.674 1.545 1.623 2.23 2.772 2.284 1.48.07 2.673-1.226 3.459-2.385 1.602-2.362 4.519-2.136 5.816-1.251" opacity=".35" style="stroke-width:.105371"/>
<path d="M1.493 288.13c.894-.35 2.083-.424 2.872.827.722 1.143 1.576 2.867 4.049 2.709 1.478-.095 2.956-.71 3.718-2.15.53-.933 1.26-1.872 2.293-2.104.382-.081.655-.07.976.057" opacity=".35" style="stroke-width:.105371"/>
<path d="M1.775 290.25c.947-.444 2.745-.953 4.197-.53 1.297.38 2.937 1.847 6.056 1.504.824-.09 1.522-.563 2.183-1.464.478-.652.75-1.02 1.306-1.167" opacity=".35" style="stroke-width:.105371"/>
</g>
<g clip-path="url(#f)" transform="translate(4.582 5.066)scale(.0615)">
<path fill="#045" d="M189.191 53.762a6.93 6.93 0 0 1-5.949 3.34h-48.695a6.96 6.96 0 0 0-6.957 6.96v121.762c0 19.172-17.149 34.79-38.262 34.79s-38.262-15.618-38.262-34.79c0-19.168 17.149-34.789 38.262-34.789 5.223 0 10.195.953 14.73 2.676 4.633 1.762 9.618-1.457 9.618-6.418V11.875a6.93 6.93 0 0 1 3.547-6.05c2.191-1.255 4.906-1.184 7.027.1l62.61 38.27a6.97 6.97 0 0 1 2.331 9.567m0 0"/>
</g>
</svg>
