<svg xmlns="http://www.w3.org/2000/svg" xml:space="preserve" width="24" height="24" viewBox="0 0 6.35 6.35">
<defs>
<radialGradient id="a" cx="0" cy="0" r="1" fx="0" fy="0" gradientTransform="matrix(0 16.5 -16.5 0 9 .75)" gradientUnits="userSpaceOnUse" spreadMethod="pad">
<stop offset="0" style="stop-opacity:1;stop-color:#fafafa"/>
<stop offset="1" style="stop-opacity:1;stop-color:silver"/>
</radialGradient>
</defs>
<path d="M7.195.836q.135 0 .258-.035a24 24 0 0 1 3.231.008 10.3 10.3 0 0 1 2.836.636q2.278.938 3.121 3.254.476 1.396.566 2.867a21 21 0 0 1-.086 3.696 9 9 0 0 1-.672 2.488q-.957 2.074-3.101 2.859a11.7 11.7 0 0 1-3.575.618 16 16 0 0 1-4.089-.309c-2.481-.551-4.016-2.066-4.594-4.543a14.2 14.2 0 0 1-.336-3.383q-.041-1.818.387-3.59.914-3.468 4.406-4.3A10 10 0 0 1 7.195.836" style="fill:url(#a);fill-rule:evenodd;stroke:none" transform="scale(.35277)"/>
<path fill="#a0ecff" d="M3.106 1.395a.41.41 0 0 0-.41.41v.959c0 .227.183.41.41.41h.822v.288c0 .04.015.062.053.053l.384-.34h.384a.41.41 0 0 0 .41-.411v-.958a.41.41 0 0 0-.41-.41z" opacity=".9" style="stroke-width:.0684262;paint-order:stroke markers fill"/>
<path fill="#a0ecff" d="M2.286 2.216a.41.41 0 0 0-.41.411v.958c0 .227.183.41.41.41h.822v.288c0 .04.015.062.053.054l.384-.341h.384a.41.41 0 0 0 .41-.411v-.958a.41.41 0 0 0-.41-.41z" opacity=".9" style="opacity:.25734;fill:#5ca4ed;fill-opacity:1;stroke-width:.0684262;paint-order:stroke markers fill"/>
<path d="M1.601 2.216a.41.41 0 0 0-.41.41v1.37a.41.41 0 0 0 .41.41h.413l.615.546c.05.01.068-.018.068-.068v-.478h1.23a.41.41 0 0 0 .411-.41v-.798l-.357.317-.02.002h-.005l-.009-.004a.04.04 0 0 1-.016-.025l-.003-.026v-.288h-.821a.41.41 0 0 1-.411-.41v-.548Z" style="fill:#5ca4ed;fill-opacity:1;stroke-width:.0684262;paint-order:stroke markers fill"/>
<circle cx="2.057" cy="3.407" r=".177" fill="#fff" opacity=".35" paint-order="markers stroke fill" style="stroke-width:.267241"/>
<circle cx="2.764" cy="3.407" r=".177" fill="#fff" opacity=".35" paint-order="markers stroke fill" style="stroke-width:.267241"/>
<circle cx="3.471" cy="3.407" r=".177" fill="#fff" opacity=".35" paint-order="markers stroke fill" style="stroke-width:.267241"/>
</svg>
