<svg xmlns="http://www.w3.org/2000/svg" xml:space="preserve" width="24" height="24" fill="none">
<defs>
<radialGradient id="a" cx="0" cy="0" r="1" fx="0" fy="0" gradientTransform="matrix(0 11 -11 0 -22 1)" gradientUnits="userSpaceOnUse" spreadMethod="pad">
<stop offset="0" style="stop-color:#297a90;stop-opacity:1"/>
<stop offset="1" style="stop-color:#1e3d4d;stop-opacity:1"/>
</radialGradient>
</defs>
<path d="M-24.407 1.115q.18 0 .344-.047a32 32 0 0 1 4.308.01 13.7 13.7 0 0 1 3.781.849c2.026.833 3.41 2.281 4.162 4.338.42 1.24.676 2.516.754 3.823a28.3 28.3 0 0 1-.114 4.928 12 12 0 0 1-.896 3.317q-1.276 2.766-4.135 3.812a15.6 15.6 0 0 1-4.767.824 21.3 21.3 0 0 1-5.452-.412c-3.308-.734-5.354-2.754-6.125-6.057a19 19 0 0 1-.448-4.51 18.5 18.5 0 0 1 .516-4.787q1.218-4.625 5.875-5.734a14 14 0 0 1 2.197-.354" style="fill:url(#a);fill-rule:evenodd;stroke:none;stroke-width:1.33333" transform="translate(34)"/>
<path fill="#f9f9f9" fill-rule="evenodd" d="M-28.992 5c1.718 1.809.972 2.968 1.908 5.1.875 1.982 2.78.5 4.086 1.898-1.306 1.4-3.218-.089-4.093 1.89-.942 2.134-.191 3.299-1.908 5.11 1.811-1.719 2.977-.968 5.11-1.908 1.98-.877.498-2.783 1.896-4.087 1.388 1.304-.086 3.218 1.891 4.093 2.133.945 3.29.183 5.1 1.904-1.717-1.81-.958-2.97-1.903-5.103-.875-1.975-2.782-.507-4.086-1.896 1.304-1.39 3.211.08 4.087-1.896.944-2.133.183-3.292 1.903-5.103-1.81 1.72-2.968.96-5.1 1.905-1.978.873-.504 2.787-1.892 4.092-1.4-1.305.082-3.21-1.897-4.087-2.133-.943-3.298-.19-5.109-1.908" style="stroke-width:.459615" transform="translate(34)"/>
</svg>
