<svg xmlns="http://www.w3.org/2000/svg" width="24" height="24" fill="none">
<path fill="url(#a)" fill-rule="evenodd" d="M9.596 1.114q.18.001.344-.046a32 32 0 0 1 4.307.011q1.951.153 3.78.848 3.038 1.25 4.158 4.339.64 1.86.756 3.824a28 28 0 0 1-.114 4.923 11.9 11.9 0 0 1-.894 3.32q-1.276 2.764-4.135 3.813a15.6 15.6 0 0 1-4.765.825 21.4 21.4 0 0 1-5.453-.413q-4.967-1.106-6.128-6.056a19 19 0 0 1-.447-4.511 18.5 18.5 0 0 1 .515-4.786q1.217-4.629 5.877-5.736a14 14 0 0 1 2.199-.355" clip-rule="evenodd"/>
<path fill="#F9F9F9" d="M12.308 4.615a.615.615 0 1 0-1.231 0v12.923a.615.615 0 1 0 1.23 0z"/>
<path fill="#F0D069" d="M11.692 11.385a4.295 4.295 0 0 0-4.127 3.077l.435.615-.615.615V20H16v-4.308l-.615-.615.435-.615a4.295 4.295 0 0 0-4.128-3.077"/>
<path fill="#F77D58" d="M7.565 14.462c-.119.4-.18.814-.18 1.23H16c0-.428-.065-.84-.18-1.23z"/>
<path fill="#F9F9F9" d="M5.846 6.154A1.846 1.846 0 0 1 4 8a1.846 1.846 0 0 1 1.846 1.846A1.846 1.846 0 0 1 7.693 8a1.846 1.846 0 0 1-1.847-1.846m12.308 3.077a1.846 1.846 0 0 1-1.846 1.846 1.847 1.847 0 0 1 1.846 1.846A1.846 1.846 0 0 1 20 11.077a1.846 1.846 0 0 1-1.846-1.846"/>
<defs>
<radialGradient id="a" cx="0" cy="0" r="1" gradientTransform="matrix(0 22 -22 0 12 1)" gradientUnits="userSpaceOnUse">
<stop stop-color="#CF70A4"/>
<stop offset="1" stop-color="#711246"/>
</radialGradient>
</defs>
</svg>
