<svg xmlns="http://www.w3.org/2000/svg" width="24" height="24" fill="none">
<path fill="url(#a)" fill-rule="evenodd" d="M9.596 1.114q.18.001.344-.046a32 32 0 0 1 4.307.011q1.951.153 3.78.848 3.038 1.25 4.158 4.339.64 1.86.756 3.824a28 28 0 0 1-.114 4.923 11.9 11.9 0 0 1-.894 3.32q-1.276 2.764-4.135 3.813a15.6 15.6 0 0 1-4.765.825 21.4 21.4 0 0 1-5.453-.413q-4.967-1.106-6.128-6.056a19 19 0 0 1-.447-4.511 18.5 18.5 0 0 1 .515-4.786q1.217-4.629 5.877-5.736a14 14 0 0 1 2.199-.355" clip-rule="evenodd"/>
<path fill="#43557D" d="m4.47 6.757 3.727 3.256 3.847 3.36a.815.815 0 0 0 .939.145c.058-.03 1.686-1.437 3.784-3.27l3.813-3.33.132-.112v10.065l-.071.137a.68.68 0 0 1-.338.329l-.104.047-7.569.004c-5.891.004-7.591 0-7.672-.024a.69.69 0 0 1-.47-.454zm7.99 5.135a1.1 1.1 0 0 1-.358-.212 695 695 0 0 0-3.608-2.768C5.947 6.962 5 6.227 4.99 6.188s0-.076.031-.118l.045-.058 7.54-.006L20.143 6l.057.055q.09.091.027.176c-.016.02-1.593 1.23-3.506 2.692a569 569 0 0 0-3.589 2.753c-.174.149-.315.216-.477.225a.8.8 0 0 1-.196-.01Z"/>
<path fill="#CAA343" d="M20.708 9.238v1.728l-.186-.016c-.45-.037-1.206.133-1.918.407-.156.059-.47.196-.692.306-.646.313-.979.512-2.628 1.575q-.41.261-.83.508c-1.996 1.176-4.011 1.889-6.1 2.135-.363.043-1.658.065-2.153.033-.609-.037-1.663-.156-1.712-.185l-.033-.713c.005.051 0 .151 0 .34 0 .29-.012.373-.034.373-.058 0-.833-.132-1.086-.186a4.3 4.3 0 0 1-.931-.323 1 1 0 0 0-.203-.084c0 .013.461.301.626.391a6.7 6.7 0 0 0 1.322.524l.288.085h.035c.004 0 .19.043.405.084.853.168 1.613.223 2.697.203 1.07-.02 1.811-.09 2.745-.27 1.833-.358 3.565-1.01 5.862-2.187.509-.26 1.305-.675 2.712-1.44A7 7 0 0 1 20.013 12c.205-.07.503-.137.626-.137h.069l.101.018a.82.82 0 0 1 .626.422c.055.112.053.163.051.34-.002.32-.111.588-.407.932l-.152.17.152-.119c.337-.254.69-.634.814-.865.157-.293.137-.616-.033-.966a1.6 1.6 0 0 0-1-.797l-.137-.015q0-.873-.015-1.746ZM4.456 15.016l-.018-.56c-.07 0-.877-.105-1.186-.152Q2.62 14.207 2 14.05v.22c.61.279 1.311.502 2.066.627.157.027.311.063.339.068.025.004.045.002.05.051Z"/>
<defs>
<radialGradient id="a" cx="0" cy="0" r="1" gradientTransform="matrix(0 22 -22 0 12 1)" gradientUnits="userSpaceOnUse">
<stop stop-color="#FAFAFA"/>
<stop offset="1" stop-color="#CCC"/>
</radialGradient>
</defs>
</svg>
