<svg xmlns="http://www.w3.org/2000/svg" width="24" height="24" fill="none">
<path fill="#498CD8" fill-rule="evenodd" d="M20.445 20.492q-1.088 1.083-2.647 1.654a15.6 15.6 0 0 1-4.765.825 21.4 21.4 0 0 1-5.453-.413q-4.967-1.106-6.128-6.056a19 19 0 0 1-.447-4.511 18.5 18.5 0 0 1 .515-4.786q.588-2.236 1.98-3.65h14.28a2.666 2.666 0 0 1 2.665 2.665z" clip-rule="evenodd"/>
<path fill="#E5E5E5" fill-rule="evenodd" d="M20.492 20.445a7.4 7.4 0 0 0 1.441-2.111q.688-1.595.893-3.32a28 28 0 0 0 .115-4.924 14.3 14.3 0 0 0-.756-3.824q-1.12-3.09-4.158-4.34a13.5 13.5 0 0 0-3.78-.847 32 32 0 0 0-4.307-.011q-.165.048-.344.046-1.114.09-2.2.355-2.363.561-3.841 2.03v14.28a2.666 2.666 0 0 0 2.665 2.666z" clip-rule="evenodd" opacity=".625"/>
<path fill="#fff" d="M11.78 7.668 9.495 13.86h4.576zm-.951-1.658h1.91l4.74 12.444h-1.75l-1.132-3.192h-5.61l-1.133 3.192H6.075z"/>
</svg>
