<svg xmlns="http://www.w3.org/2000/svg" xml:space="preserve" width="24" height="24" fill="none">
<defs>
<radialGradient id="a" cx="0" cy="0" r="1" fx="0" fy="0" gradientTransform="matrix(0 11 -11 0 -22 1)" gradientUnits="userSpaceOnUse" spreadMethod="pad">
<stop offset="0" style="stop-color:#647083;stop-opacity:1"/>
<stop offset="1" style="stop-color:#383a48;stop-opacity:1"/>
</radialGradient>
</defs>
<path d="M-24.407 1.115q.18 0 .344-.047a32 32 0 0 1 4.308.01 13.7 13.7 0 0 1 3.781.849c2.026.833 3.41 2.281 4.162 4.338.42 1.24.676 2.516.754 3.823a28.3 28.3 0 0 1-.114 4.928 12 12 0 0 1-.896 3.317q-1.276 2.766-4.135 3.812a15.6 15.6 0 0 1-4.767.824 21.3 21.3 0 0 1-5.452-.412c-3.308-.734-5.354-2.754-6.125-6.057a19 19 0 0 1-.448-4.51 18.5 18.5 0 0 1 .516-4.787q1.218-4.625 5.875-5.734a14 14 0 0 1 2.197-.354" style="fill:url(#a);fill-rule:evenodd;stroke:none;stroke-width:1.33333" transform="translate(34)"/>
<g style="stroke-width:1.02346" transform="translate(36.646 -2.817)scale(.97708)">
<path fill="#09c37b" d="M-27.612 17.552A2.39 2.39 0 0 0-30 19.94a2.39 2.39 0 0 0 2.388 2.388 2.39 2.39 0 0 0 2.388-2.388v-2.388z" style="stroke-width:.362067"/>
<path fill="#9154dd" d="M-27.612 12.776h2.388v4.776h-2.388A2.38 2.38 0 0 1-30 15.164a2.38 2.38 0 0 1 2.388-2.388" style="stroke-width:.362067"/>
<circle cx="-22.836" cy="15.163" r="2.388" fill="#01b1f8" style="stroke-width:.362067"/>
<path fill="#f24e1e" d="M-27.612 8A2.38 2.38 0 0 0-30 10.388a2.38 2.38 0 0 0 2.388 2.388h2.388V8Z" style="stroke-width:.362067"/>
<path fill="#ff7262" d="M-25.224 8h2.388a2.383 2.383 0 0 1 2.388 2.388 2.383 2.383 0 0 1-2.388 2.388h-2.388z" style="stroke-width:.362067"/>
</g>
</svg>
