<svg xmlns="http://www.w3.org/2000/svg" width="24" height="24" viewBox="0 0 6.35 6.35">
<defs>
<linearGradient id="a" x1="23" x2="1" y1="1" y2="12" gradientTransform="scale(.26458)" gradientUnits="userSpaceOnUse">
<stop stop-color="#198CFF"/>
<stop offset="1" stop-color="#1964FF"/>
</linearGradient>
<linearGradient id="b" x1="21" x2="3" y1="4" y2="4" gradientTransform="scale(.26458)" gradientUnits="userSpaceOnUse">
<stop stop-opacity=".5"/>
<stop offset=".89"/>
<stop offset="1" stop-opacity="0"/>
</linearGradient>
<linearGradient id="c" x1="12" x2="11.5" y1="3" y2="8" gradientTransform="scale(.26458)" gradientUnits="userSpaceOnUse">
<stop stop-color="#DDD"/>
<stop offset="1" stop-color="#CCC" stop-opacity="0"/>
</linearGradient>
<linearGradient id="d" x1="23" x2="1.012" y1="9" y2="9.521" gradientTransform="scale(.26458)" gradientUnits="userSpaceOnUse">
<stop stop-opacity=".5"/>
<stop offset="1"/>
</linearGradient>
<linearGradient id="e" x1="23" x2="1.429" y1="5.4" y2="23.511" gradientTransform="scale(.26458)" gradientUnits="userSpaceOnUse">
<stop stop-color="#198CFF"/>
<stop offset="1" stop-color="#3F8AE8"/>
</linearGradient>
<linearGradient id="f" x1="15" x2="5.5" y1="5.5" y2="19.5" gradientTransform="scale(.26458)" gradientUnits="userSpaceOnUse">
<stop stop-color="#85F8FF"/>
<stop offset="1" stop-color="#105BF6"/>
</linearGradient>
</defs>
<rect width="5.821" height="5.821" x=".265" y=".265" fill="url(#a)" opacity=".813" rx="1.746" style="fill:url(#a);stroke-width:.264578"/>
<rect width="4.762" height="4.762" x=".794" y=".595" fill="url(#filemanager-actions_svg__paint1_linear_201_118)" fill-opacity=".875" opacity=".125" rx="1.164" style="fill:url(#b);stroke-width:.264578"/>
<rect width="4.63" height="4.63" x=".86" y=".86" fill="#ccc" stroke="url(#filemanager-actions_svg__paint2_linear_201_118)" stroke-width=".132" rx="1.098" style="stroke:url(#c)"/>
<path fill="url(#filemanager-actions_svg__paint3_linear_201_118)" fill-opacity=".875" d="M.265 1.986c0-.44.356-.795.795-.795h1.107c.284 0 .56.097.78.277.221.18.497.277.781.277H5.29c.44 0 .796.356.796.796V4.1c0 .964-.782 1.746-1.746 1.746H2.011A1.746 1.746 0 0 1 .265 4.101z" opacity=".125" style="fill:url(#d);stroke-width:.264578"/>
<path fill="url(#e)" d="M.265 2.225c0-.44.356-.796.795-.796h1.107c.284 0 .56.098.78.277.221.18.497.277.781.277H5.29c.44 0 .796.356.796.796v1.56c0 .964-.782 1.746-1.746 1.746H2.011A1.746 1.746 0 0 1 .265 4.34z" style="opacity:.875;fill:url(#e);stroke-width:.264578"/>
<path stroke="url(#f)" stroke-linejoin="round" stroke-opacity=".375" stroke-width=".198" d="M5.986 2.779v1.56c0 .91-.737 1.647-1.647 1.647H2.011A1.645 1.645 0 0 1 .364 4.34V2.225c0-.385.312-.697.696-.697h1.107c.262 0 .515.09.718.255.238.194.536.3.843.3H5.29c.385 0 .697.311.697.696z" style="opacity:.875;stroke:url(#f);fill:none"/>
<path fill="#fff" fill-rule="evenodd" d="M3.094 2.516a.33.33 0 0 0-.329.33.16.16 0 0 1-.163.161.15.15 0 0 1-.076-.022h-.002a.33.33 0 0 0-.449.12l-.085.141-.001.002a.33.33 0 0 0 .12.45.164.164 0 0 1 0 .283.33.33 0 0 0-.12.449l.081.14a.33.33 0 0 0 .45.127.16.16 0 0 1 .222.058v.002a.14.14 0 0 1 .022.076c0 .181.149.33.33.33h.162a.33.33 0 0 0 .329-.329.16.16 0 0 1 .163-.164.2.2 0 0 1 .078.022.33.33 0 0 0 .45-.12l.084-.14V4.43a.33.33 0 0 0-.12-.45.16.16 0 0 1-.06-.223.16.16 0 0 1 .06-.06.33.33 0 0 0 .13-.428l-.01-.021-.08-.14a.33.33 0 0 0-.45-.121.16.16 0 0 1-.223-.058.15.15 0 0 1-.022-.076v.003a.33.33 0 0 0-.33-.34Zm0 .166h.162a.164.164 0 0 1 .164.169v.003a.328.328 0 0 0 .493.276.16.16 0 0 1 .224.06l.078.135.002.006a.16.16 0 0 1-.06.223.3.3 0 0 0-.12.12.33.33 0 0 0 .12.45.163.163 0 0 1 .06.222l-.084.142a.16.16 0 0 1-.225.06.33.33 0 0 0-.156-.044H3.75a.33.33 0 0 0-.33.33.16.16 0 0 1-.165.163h-.161a.16.16 0 0 1-.165-.165.327.327 0 0 0-.492-.279.164.164 0 0 1-.223-.064v-.002l-.082-.14a.16.16 0 0 1 .06-.222.33.33 0 0 0 0-.57.16.16 0 0 1-.06-.224l.085-.14.002-.002a.16.16 0 0 1 .223-.06.3.3 0 0 0 .159.043.33.33 0 0 0 .33-.325v-.001a.16.16 0 0 1 .163-.164m.08.661a.497.497 0 0 0-.495.496c0 .273.223.496.496.496a.497.497 0 0 0 .496-.496.497.497 0 0 0-.496-.496Zm0 .166a.33.33 0 1 1 0 .662.33.33 0 0 1-.33-.332.33.33 0 0 1 .331-.33z" clip-rule="evenodd" color="#000" opacity=".75" style="font-variant-ligatures:normal;font-variant-position:normal;font-variant-caps:normal;font-variant-numeric:normal;font-variant-alternates:normal;font-variant-east-asian:normal;font-feature-settings:normal;font-variation-settings:normal;text-indent:0;text-decoration-line:none;text-decoration-style:solid;text-decoration-color:#000;text-transform:none;text-orientation:mixed;white-space:normal;shape-padding:0;shape-margin:0;inline-size:0;isolation:auto;mix-blend-mode:normal;stroke-width:.999998"/>
</svg>
