<svg xmlns="http://www.w3.org/2000/svg" xml:space="preserve" width="24" height="24" version="1">
<path d="M12 1C2 1 1 6 1 12c0 8 3 11 11 11s11-3 11-11c0-6-1-11-11-11" style="font-variation-settings:normal;display:inline;vector-effect:none;fill:#df4139;fill-opacity:1;stroke-width:1.11627;stroke-linecap:butt;stroke-linejoin:miter;stroke-miterlimit:4;stroke-dasharray:none;stroke-dashoffset:0;stroke-opacity:1;-inkscape-stroke:none;stop-color:#000"/>
<path fill="#fff" d="M8.35 6 5.864 16.91h2.022l1.174-4.773h5.517L9.41 16.449 10.756 18l.69-.356c1.305-.67 1.852-.278 2.842-.003.963.267 1.868.553 3.747-.53l-.373-1.91c-2.05 1.457-2.699.157-4.159.105l4.18-3.264.454-1.61H9.38l.564-2.727h5.738L16.077 6H8.351Z" style="stroke-width:.368959"/>
</svg>
