<svg width="24" height="24" fill="none" version="1.1" xmlns="http://www.w3.org/2000/svg">
 <defs>
  <style id="current-color-scheme" type="text/css">.ColorScheme-Highlight {color:#3b96ff;}</style>
 </defs>
 <path class="ColorScheme-Highlight" d="m12.003 0.43847c-10.507 0-11.558 5.2552-11.558 11.562 0 8.4073 3.1531 11.562 11.558 11.562 8.4052 0 11.558-3.1531 11.558-11.562 0-6.3063-1.051-11.562-11.558-11.562" style="fill:currentColor;opacity:.9;stroke-width:1.051"/>
 <path d="m12.006 1.4895c-8.5986 0-9.4594 4.2998-9.4594 9.4594 0 6.8781 2.5803 9.4594 9.4594 9.4594 6.8791 0 9.4594-2.5803 9.4594-9.4594 0-5.1596-0.85976-9.4594-9.4594-9.4594" fill="url(#b)" fill-opacity=".875" opacity=".125" style="stroke-width:1.051"/>
 <path d="m12.006 2.5406c-8.5986 0-9.4594 4.2998-9.4594 9.4594 0 6.8781 2.5803 9.4594 9.4594 9.4594 6.8791 0 9.4594-2.5803 9.4594-9.4594 0-5.1596-0.85976-9.4594-9.4594-9.4594" fill="#ffffff" style="stroke-width:1.051"/>
 <path class="ColorScheme-Highlight" d="m23.551 12.801a3.1637 3.1637 0 0 0-3.151-2.9082h-6.2022a4.9189 4.9189 0 0 1-3.1006-1.1004 4.9189 4.9189 0 0 0-3.1016-1.1015h-4.3965a3.1637 3.1637 0 0 0-3.1248 2.6802q-0.031531 0.79985-0.03048 1.6291c0 8.4073 3.1531 11.562 11.558 11.562 8.132 0 11.348-2.9524 11.549-10.761" style="fill:currentColor;opacity:.65;stroke-width:1.051"/>
 <path d="m23.545 10.724a3.1637 3.1637 0 0 0-3.1447-2.8273h-6.2022a4.9189 4.9189 0 0 1-3.1006-1.1015 4.9189 4.9189 0 0 0-3.1016-1.1015h-4.3965c-1.2129 0-2.2661 0.68318-2.7958 1.6838-0.28799 1.4221-0.35946 2.9871-0.35946 4.6225 0 8.4073 3.1531 11.562 11.558 11.562 8.4 0 11.555-3.1489 11.559-11.545v-0.03784q0-0.63588-0.01787-1.255" fill="#000000" fill-opacity=".75" opacity=".25" style="opacity:.06;stroke-width:1.051"/>
</svg>
