<svg xmlns="http://www.w3.org/2000/svg" width="24" height="24" fill="none">
<path fill="#68D177" fill-rule="evenodd" d="M21 4.111q-1.136-1.428-2.973-2.184a13.5 13.5 0 0 0-3.78-.848 32 32 0 0 0-4.307-.011q-.165.048-.344.046-1.114.09-2.2.355Q2.738 2.576 1.52 7.205a18.5 18.5 0 0 0-.515 4.786q-.046 2.282.447 4.51Q2.136 19.418 4.14 21h13.63c1.784 0 3.23-1.377 3.23-3.076z" clip-rule="evenodd"/>
<path fill="#E5E5E5" fill-rule="evenodd" d="M18.313 21.938a8 8 0 0 1-.515.208 15.6 15.6 0 0 1-4.765.825 21.4 21.4 0 0 1-5.453-.413q-2.124-.473-3.553-1.649a3 3 0 0 1-.026-.408V7A2.99 2.99 0 0 1 7 4h13.5q.222 0 .435.031a7.6 7.6 0 0 1 1.249 2.235q.64 1.86.756 3.824a28 28 0 0 1-.114 4.923 11.9 11.9 0 0 1-.882 3.293l-3.633 3.632Z" clip-rule="evenodd" opacity=".625"/>
<path fill="#fff" d="M10.687 8.723v4.134h1.87q1.038 0 1.607-.538.567-.54.567-1.533 0-.987-.567-1.525-.569-.537-1.607-.538zM9.2 7.5h3.358q1.848 0 2.793.841.95.832.95 2.446 0 1.627-.95 2.46-.944.834-2.793.833H10.69v4.42H9.2z"/>
<path fill="#fff" fill-rule="evenodd" d="M22.667 16a12 12 0 0 1-.734 2.334q-1.276 2.763-4.135 3.812-.89.3-1.798.492v-1.75A4.877 4.877 0 0 1 20.888 16h1.78Z" clip-rule="evenodd"/>
<path fill="#fff" d="M7 5.124A1.87 1.87 0 0 0 5.124 7v13.5c0 1.039.837 1.875 1.876 1.875h10V22H7a1.5 1.5 0 0 1-1.5-1.5V7c0-.83.67-1.5 1.5-1.5h13.5c.83 0 1.5.67 1.5 1.5v9.751h.375V7A1.873 1.873 0 0 0 20.5 5.124z"/>
</svg>
