<svg xmlns="http://www.w3.org/2000/svg" width="24" height="24" fill="none">
<path fill="url(#a)" stroke="url(#b)" stroke-width="1.4" d="M22.242 10.131v.004a27 27 0 0 1-.11 4.798 11.2 11.2 0 0 1-.838 3.115c-.772 1.667-2.004 2.803-3.729 3.438a15 15 0 0 1-4.544.785h-.025a20.7 20.7 0 0 1-5.27-.397c-1.548-.346-2.759-.98-3.67-1.88-.91-.901-1.56-2.105-1.922-3.648a18.4 18.4 0 0 1-.43-4.341l.001-.015v-.015a17.8 17.8 0 0 1 .494-4.599c.38-1.437 1.015-2.566 1.888-3.419.874-.853 2.021-1.463 3.472-1.807l.004-.002a13 13 0 0 1 2.061-.334 2 2 0 0 0 .428-.052 31 31 0 0 1 4.143.015 12.8 12.8 0 0 1 3.574.8c1.837.76 3.077 2.054 3.756 3.922a13.6 13.6 0 0 1 .717 3.632Z"/>
<path fill="#E4E4E4" d="M12.003 8.991a1.53 1.53 0 0 1 1.531 1.532v6.945a1.533 1.533 0 0 1-3.064 0v-6.944a1.533 1.533 0 0 1 1.533-1.533"/>
<path fill="#FA512F" d="M12.003 10.153c.362 0 .656.294.656.656v6.194a.657.657 0 0 1-1.313 0v-6.194c0-.362.294-.656.657-.656"/>
<path fill="#fff" d="M13.316 5v2.109l-1.314.875-1.313-.876V5.003a3.06 3.06 0 0 0-1.751 2.762 3.065 3.065 0 1 0 6.129 0A3.06 3.06 0 0 0 13.317 5Z"/>
<defs>
<radialGradient id="a" cx="0" cy="0" r="1" gradientTransform="matrix(0 22 -22 0 12 1)" gradientUnits="userSpaceOnUse">
<stop stop-color="#89FFF1"/>
<stop offset="1" stop-color="#028E7D"/>
</radialGradient>
<linearGradient id="b" x1="12" x2="12" y1="1" y2="23" gradientUnits="userSpaceOnUse">
<stop stop-color="#2AB6A5"/>
<stop offset="1" stop-color="#007A69"/>
</linearGradient>
</defs>
</svg>
