<svg xmlns="http://www.w3.org/2000/svg" xmlns:xlink="http://www.w3.org/1999/xlink" xml:space="preserve" width="24" height="24" fill="none">
<defs>
<linearGradient id="a">
<stop offset="0" style="stop-color:#0a0;stop-opacity:1"/>
<stop offset="1" style="stop-color:#80ff80;stop-opacity:1"/>
</linearGradient>
<linearGradient xlink:href="#a" id="b" x1="52.94" x2="51.662" y1="95.511" y2="-3.565" gradientTransform="translate(-.222 -.222)scale(.24444)" gradientUnits="userSpaceOnUse"/>
</defs>
<path d="M12 1C2 1 1 6 1 12c0 8 3 11 11 11s11-3 11-11c0-6-1-11-11-11" style="font-variation-settings:normal;display:inline;opacity:1;vector-effect:none;fill:url(#b);fill-opacity:1;stroke-width:1.11627;stroke-linecap:butt;stroke-linejoin:miter;stroke-miterlimit:4;stroke-dasharray:none;stroke-dashoffset:0;stroke-opacity:1;-inkscape-stroke:none;stop-color:#000;stop-opacity:1"/>
<g style="fill:#fff">
<path d="M-5.04 9.226c0-.009.035-.043.076-.075.068-.054.07-.052.016.016-.056.072-.091.094-.091.059m6.056-.446-.104-.118.118.104c.11.098.138.132.104.132a1 1 0 0 1-.118-.118m1.416-.086c-.053-.068-.052-.07.016-.016.072.056.095.092.06.092-.01 0-.044-.034-.076-.076m1.547-.086c-.054-.068-.052-.07.016-.016.072.056.094.092.06.092-.01 0-.044-.034-.076-.076m-2.02-.386c-.053-.068-.052-.07.017-.017.04.033.075.067.075.076 0 .035-.036.012-.092-.06m1.59-.043c-.053-.068-.052-.07.016-.017.072.057.095.092.06.092-.01 0-.043-.034-.076-.075" style="fill:#fff;stroke-width:.0429688" transform="translate(11.879 2.08)scale(1.0044)"/>
<path d="m-5.752 12.153-.082-.096.097.081q.134.114.082.112a.5.5 0 0 1-.097-.097m-.344-.343-.082-.097.097.082c.09.077.116.111.082.111a.5.5 0 0 1-.097-.096m1.59 0-.082-.097.097.082c.09.077.116.111.082.111a.5.5 0 0 1-.097-.096m-.258-.258-.082-.097.097.082c.09.077.116.111.082.111a.5.5 0 0 1-.097-.096m.883-.365-.148-.162.16.148c.15.138.182.175.149.175a1.5 1.5 0 0 1-.161-.161m1.008-.366-.082-.096.097.081q.134.114.081.112a.5.5 0 0 1-.096-.097m4.537-.655a.5.5 0 0 1 .122-.107c.012 0-.023.048-.079.107a.5.5 0 0 1-.122.107c-.012 0 .024-.048.08-.107m.344-.344a.5.5 0 0 1 .122-.107c.012 0-.024.048-.08.107a.5.5 0 0 1-.122.108c-.011 0 .024-.049.08-.108m1.676-.172a1 1 0 0 1 .167-.15c.012 0-.044.068-.124.15a1 1 0 0 1-.168.15c-.012 0 .044-.067.125-.15m-7.391-.25c0-.007.063-.07.14-.139l.14-.126-.127.14c-.118.13-.153.159-.153.126m-2.063-.776c0-.009.034-.042.076-.075.068-.053.07-.052.016.016-.056.072-.092.095-.092.06m7.97-.166-.17-.183.182.17c.17.158.202.196.17.196A2 2 0 0 1 2.2 8.46m1.22-.408c-.053-.068-.052-.07.017-.016.071.056.094.091.058.091a.3.3 0 0 1-.075-.075" style="fill:#fff;stroke-width:.0429688" transform="translate(11.879 2.08)scale(1.0044)"/>
<path d="m3.082 15.14 4.984-.011.011-5.264.011-5.263V15.15h-9.99zm-4.78-1.243a.17.17 0 0 1 .107 0c.03.012.006.022-.054.022-.059 0-.083-.01-.053-.022m.816 0a.17.17 0 0 1 .108 0c.03.012.005.022-.054.022-.06 0-.083-.01-.054-.022m-1.005-.4c0-.225.007-.317.016-.205s.01.296 0 .408c-.009.112-.016.02-.016-.204m.34-.374c.042-.011.1-.01.129.001.029.012-.005.02-.076.02s-.095-.01-.053-.021m.45-.001a.5.5 0 0 1 .173 0c.04.012-.003.02-.097.02-.095-.001-.129-.01-.075-.02m-.79-1.28c0-.213.007-.305.016-.206.01.1.01.274 0 .387-.009.113-.016.031-.016-.181m.922-.266c.03-.012.068-.01.082.004.015.014-.01.024-.056.022q-.076-.004-.026-.026M-2.15 8.568a.4.4 0 0 1 .15 0c.041.01.007.02-.075.02-.083 0-.117-.01-.075-.02m.254-.387c-.004-.217.007-.404.025-.415s.027.109.02.266c-.02.499-.038.557-.045.15m-.051-1.373c.024-.013.044-.179.044-.381 0-.198.014-.368.032-.38.018-.01.022.156.01.37-.014.268-.038.394-.076.402q-.046.007-.01-.011m.184-.045c.042-.01.1-.01.129.002.03.012-.005.02-.076.02-.07-.001-.095-.01-.053-.022m.45.002a.17.17 0 0 1 .108 0c.03.011.005.021-.054.021s-.083-.01-.054-.021m.347-.732c.03-.012.068-.01.082.004.015.014-.01.024-.056.022q-.076-.004-.026-.026" style="fill:#fff;stroke-width:.0429688" transform="translate(11.879 2.08)scale(1.0044)"/>
<path d="M-5.947 11.96c-.053-.068-.052-.07.016-.016.042.032.076.066.076.075 0 .035-.036.013-.092-.059m9.373-2.052a.5.5 0 0 1 .122-.107c.012 0-.024.048-.08.107a.5.5 0 0 1-.122.108c-.011 0 .024-.049.08-.108m.515-.515a.5.5 0 0 1 .123-.108c.012 0-.024.048-.08.108a.5.5 0 0 1-.122.107c-.012 0 .024-.048.08-.107m-9.539-.94c0-.01.034-.043.076-.076.068-.053.07-.052.016.017-.056.071-.092.094-.092.059m3.773 5.443c.03-.012.068-.01.082.004s-.011.024-.057.022q-.076-.004-.025-.026m1.16 0c.03-.012.068-.01.082.004s-.011.024-.056.022q-.076-.004-.026-.026m-.668-.773c.042-.011.1-.01.129.001.029.012-.005.02-.076.02s-.095-.01-.053-.021m.128-1.547a.4.4 0 0 1 .15 0c.042.01.008.02-.075.02s-.116-.01-.075-.02m-.343-4.813c.042-.01.1-.01.129.002s-.005.02-.076.02c-.071-.001-.095-.01-.053-.022" style="fill:#fff;stroke-width:.0429688" transform="translate(11.879 2.08)scale(1.0044)"/>
<path d="M-1.867 13.08c.03-.012.068-.01.082.003.014.015-.011.025-.056.023q-.076-.004-.026-.026m1.203 0c.03-.012.068-.01.082.003.014.015-.011.025-.056.023q-.076-.004-.026-.026m-.626-.818a1 1 0 0 1 .236 0c.065.01.012.018-.118.018s-.183-.008-.118-.018m4.5-2.134c0-.009.035-.042.076-.075.068-.053.07-.052.016.016-.056.072-.091.095-.091.06m.86-.86c0-.008.034-.042.076-.074.068-.054.07-.052.016.016-.056.072-.092.094-.092.059m-8.98-.128c0-.009.034-.043.075-.075.068-.054.07-.052.016.016-.056.072-.091.094-.091.059m8.699-.768-.17-.183.183.17c.17.158.202.196.17.196-.007 0-.09-.082-.183-.183m-5.315-.665c.076-.01.202-.01.279 0s.014.018-.14.018c-.153 0-.216-.008-.14-.018m-.513-1.674c.03-.012.068-.01.082.004s-.011.024-.056.022q-.076-.004-.026-.026m.578-.043c.042-.011.1-.01.129.001.029.012-.005.021-.076.02-.071 0-.095-.01-.053-.021" style="fill:#fff;stroke-width:.0429688" transform="translate(11.879 2.08)scale(1.0044)"/>
<path d="M-1.902 14.51v-.619l-.269-.03c-.42-.047-1.184-.258-1.622-.446-.786-.34-1.428-.785-2.107-1.464a8.8 8.8 0 0 1-1.754-2.552l-.193-.43.147-.126c1.58-1.357 3.297-2.302 4.81-2.648.224-.052.533-.107.687-.124l.28-.03.011-.72.012-.72h9.966V15.13h-9.968Zm1.806-.65c1.85-.228 4.3-.98 5.738-1.761.418-.228 1.092-.667 1.171-.764.05-.061.03-.087-.172-.216a22 22 0 0 0-.787-.458 14 14 0 0 1-.671-.392l-.112-.079-.296.25c-1.762 1.482-3.17 2.246-4.685 2.54-.493.096-1.568.162-1.833.112l-.156-.029-.013-.433-.012-.433-.312-.079c-.989-.251-1.886-1.026-2.434-2.102a7 7 0 0 1-.282-.614c-.051-.162-.05-.164.135-.333.653-.599 1.7-1.114 2.556-1.258l.337-.057.012-.48.012-.481h.361a4.5 4.5 0 0 1 2.107.505 6.6 6.6 0 0 1 1.897 1.454l.23.262-.263.318C1.466 10.5.344 11.308-.582 11.505c-.303.064-.908.059-1.202-.01l-.118-.028v.367c0 .447-.027.432.73.428.43-.002.62-.024.95-.11.99-.26 1.84-.715 2.892-1.55.503-.397 1.658-1.532 1.658-1.627 0-.087-.797-.89-1.225-1.233C2.091 6.928.92 6.352-.17 6.13c-.44-.09-1.16-.148-1.485-.12l-.247.02v.753l-.247.029a8 8 0 0 0-.68.131c-1.108.262-2.034.788-2.892 1.644-.575.573-.562.493-.196 1.255.605 1.258 1.51 2.251 2.534 2.78.38.197.927.382 1.262.426l.219.03v.395c0 .218.013.408.028.424.054.054 1.24.029 1.778-.037m-1.806-3.866v-1.44l-.226.002c-.433.001-1.074.313-1.447.703l-.148.154.12.29c.164.403.534.945.831 1.22.236.218.698.507.816.51.042 0 .054-.315.054-1.439M.646 9.55l.636-.536-.228-.233a4 4 0 0 0-.936-.699c-.525-.264-1.256-.418-1.743-.366l-.28.03.012.413.012.412.246.055c.56.127.863.386 1.3 1.109.153.252.267.398.296.38.027-.016.335-.27.685-.565" style="fill:#fff;stroke-width:.0429688" transform="translate(11.879 2.08)scale(1.0044)"/>
</g>
</svg>
