<svg xmlns="http://www.w3.org/2000/svg" width="24" height="24" fill="none">
<path fill="url(#a)" fill-rule="evenodd" d="M9.596 1.114q.18.001.344-.046a32 32 0 0 1 4.307.011q1.951.153 3.78.848 3.038 1.25 4.158 4.339.64 1.86.756 3.824a28 28 0 0 1-.114 4.923 11.9 11.9 0 0 1-.894 3.32q-1.276 2.764-4.135 3.813a15.6 15.6 0 0 1-4.765.825 21.4 21.4 0 0 1-5.453-.413q-4.967-1.106-6.128-6.056a19 19 0 0 1-.447-4.511 18.5 18.5 0 0 1 .515-4.786q1.217-4.629 5.877-5.736a14 14 0 0 1 2.199-.355" clip-rule="evenodd"/>
<path fill="#666" d="M9.532 5.904c-3.98 1.447-6.167 5.315-4.873 8.622 1.295 3.307 5.588 4.82 9.565 3.372 3.976-1.447 6.166-5.318 4.87-8.628-1.295-3.307-5.588-4.817-9.565-3.37m.448 1.137c3.24-1.18 6.702.039 7.755 2.729 1.052 2.687-.71 5.81-3.953 6.99s-6.705-.04-7.756-2.732c-1.053-2.687.711-5.807 3.954-6.987"/>
<path fill="#99F" d="M12.73 6.039a1.54 1.54 0 0 1-1.538 1.538A1.54 1.54 0 0 1 9.654 6.04a1.54 1.54 0 0 1 3.077 0Zm6.77 2.46a1.54 1.54 0 0 1-1.539 1.54 1.54 1.54 0 0 1-1.538-1.54A1.54 1.54 0 0 1 19.5 8.5Zm-1.23 6.77a1.54 1.54 0 0 1-1.54 1.539 1.54 1.54 0 0 1-1.538-1.539 1.54 1.54 0 0 1 3.077 0Zm-8 2.462a1.54 1.54 0 0 1-1.54 1.538 1.54 1.54 0 0 1-1.538-1.538 1.54 1.54 0 0 1 3.077 0Zm-3.693-6.154a1.54 1.54 0 0 1-1.538 1.538A1.54 1.54 0 0 1 3.5 11.577a1.54 1.54 0 0 1 3.077 0"/>
<defs>
<radialGradient id="a" cx="0" cy="0" r="1" gradientTransform="matrix(0 22 -22 0 12 1)" gradientUnits="userSpaceOnUse">
<stop stop-color="#F9F9F9"/>
<stop offset="1" stop-color="#CCC"/>
</radialGradient>
</defs>
</svg>
