<svg xmlns="http://www.w3.org/2000/svg" width="24" height="24" fill="none">
<path fill="url(#a)" fill-rule="evenodd" d="M9.623 1.362q.178.002.34-.045 2.13-.14 4.258.011 1.93.15 3.737.838 3.004 1.236 4.111 4.29.634 1.839.748 3.78a27.6 27.6 0 0 1-.114 4.868 11.7 11.7 0 0 1-.883 3.283q-1.261 2.732-4.088 3.769a15.5 15.5 0 0 1-4.711.815 21.2 21.2 0 0 1-5.39-.407q-4.912-1.095-6.06-5.988a18.8 18.8 0 0 1-.441-4.46q-.055-2.4.51-4.732 1.203-4.575 5.809-5.67a14 14 0 0 1 2.174-.352" clip-rule="evenodd"/>
<path fill="url(#b)" fill-rule="evenodd" d="M15.23 22.78v-3.368c0-.77-.352-1.361-.896-1.741 3.118-.484 5.415-2.06 5.415-5.32 0-1.595-.46-2.873-1.238-3.861.313-1.12.278-2.255-.052-3.403-1.13 0-2.4.613-3.206 1.271-.996-.309-2.096-.465-3.254-.465-1.16 0-2.257.158-3.245.47-.808-.661-2.078-1.277-3.21-1.277-.336 1.169-.372 2.324-.041 3.461-.737.982-1.17 2.239-1.17 3.802 0 3.26 2.241 4.835 5.335 5.319-.545.38-.896.973-.896 1.744 0 0-.32.201-1.134.201-.86 0-1.3-.208-2.094-1.21-.444-.562-1.152-1.235-1.824-1.32a1 1 0 0 0-.284.002.9.9 0 0 0-.314.108c-.203.112-.028.251.288.502.44.348 1.151.912 1.494 1.918.441 1.298 1.865 1.615 3.06 1.615h.807v1.541a22 22 0 0 1-1.191-.21q-4.967-1.107-6.128-6.057a19 19 0 0 1-.447-4.511 18.5 18.5 0 0 1 .515-4.786q1.217-4.629 5.877-5.736a14 14 0 0 1 2.199-.355q.18.001.344-.046a32 32 0 0 1 4.307.011q1.951.153 3.78.848 3.038 1.25 4.158 4.339.64 1.86.756 3.824a28 28 0 0 1-.114 4.923 11.9 11.9 0 0 1-.894 3.32q-1.276 2.765-4.135 3.813-1.265.427-2.569.634Z" clip-rule="evenodd"/>
<defs>
<radialGradient id="a" cx="0" cy="0" r="1" gradientTransform="matrix(0 21.75 -21.75 0 12 1.25)" gradientUnits="userSpaceOnUse">
<stop stop-color="#FAFAFA"/>
<stop offset="1" stop-color="silver"/>
</radialGradient>
<linearGradient id="b" x1="12" x2="12" y1="1" y2="12" gradientUnits="userSpaceOnUse">
<stop stop-color="#777"/>
<stop offset="1" stop-color="#444"/>
</linearGradient>
</defs>
</svg>
