<svg xmlns="http://www.w3.org/2000/svg" xml:space="preserve" width="24" height="24" fill="none">
<defs>
<radialGradient id="a" cx="0" cy="0" r="1" fx="0" fy="0" gradientTransform="matrix(0 16.5 -16.5 0 9 .75)" gradientUnits="userSpaceOnUse" spreadMethod="pad">
<stop offset="0" style="stop-opacity:1;stop-color:#d35f5f"/>
<stop offset="1" style="stop-opacity:1;stop-color:#222"/>
</radialGradient>
</defs>
<path d="M7.195.836q.135 0 .258-.035a24 24 0 0 1 3.231.008 10.3 10.3 0 0 1 2.836.636q2.278.938 3.121 3.254.476 1.396.566 2.867a21 21 0 0 1-.086 3.696 9 9 0 0 1-.672 2.488q-.957 2.074-3.101 2.859a11.7 11.7 0 0 1-3.575.618 16 16 0 0 1-4.089-.309c-2.481-.551-4.016-2.066-4.594-4.543a14.2 14.2 0 0 1-.336-3.383q-.041-1.818.387-3.59.914-3.468 4.406-4.3A10 10 0 0 1 7.195.836" style="fill:url(#a);fill-rule:evenodd;stroke:none" transform="scale(1.33333)"/>
<path d="M7.121 12.914h6.848c.273 0 .492.215.492.488a.49.49 0 0 1-.492.489H7.121a.49.49 0 0 1-.492-.489c0-.273.219-.488.492-.488m-2.93-8.879a.489.489 0 0 0-.304.91l5.258 3.032-5.258 3.031a.493.493 0 0 0-.184.672.496.496 0 0 0 .672.179l5.93-3.425a.47.47 0 0 0 .234-.418c.008-.012.004-.024.008-.039q.001-.022-.004-.043a.48.48 0 0 0-.238-.414l-5.93-3.426a.5.5 0 0 0-.184-.059" style="fill:#d35f5f;fill-opacity:1;fill-rule:nonzero;stroke:none" transform="scale(1.33333)"/>
</svg>
