<svg xmlns="http://www.w3.org/2000/svg" width="24" height="24" fill="none">
<path fill="url(#a)" fill-rule="evenodd" d="M9.596 1.114q.18.001.344-.046a32 32 0 0 1 4.307.011q1.951.153 3.78.848 3.038 1.25 4.158 4.339.64 1.86.756 3.824a28 28 0 0 1-.114 4.923 11.9 11.9 0 0 1-.894 3.32q-1.276 2.764-4.135 3.813a15.6 15.6 0 0 1-4.765.825 21.4 21.4 0 0 1-5.453-.413q-4.967-1.106-6.128-6.056a19 19 0 0 1-.447-4.511 18.5 18.5 0 0 1 .515-4.786q1.217-4.629 5.877-5.736a14 14 0 0 1 2.199-.355" clip-rule="evenodd"/>
<path fill="#fff" d="M5.91 4C4.85 4 4 4.851 4 5.91v5.726c0 1.058.851 1.91 1.91 1.91h10.18c1.058 0 1.91-.852 1.91-1.91V5.91C18 4.851 17.148 4 16.09 4zm0 .636h10.18c.706 0 1.274.568 1.275 1.273H4.638v-.023a1.27 1.27 0 0 1 1.271-1.25Zm-1.272 1.91h12.726v5.102a1.27 1.27 0 0 1-1.273 1.261H5.909a1.27 1.27 0 0 1-1.271-1.25zm2.227.636a.955.955 0 1 0 0 1.909.955.955 0 0 0 0-1.91Zm0 .636a.318.318 0 1 1 0 .636.318.318 0 0 1 0-.636m1.59 0v.637h7.637v-.637zm-1.59 2.546a.955.955 0 1 0 0 1.909.955.955 0 0 0 0-1.91Zm0 .636a.318.318 0 1 1 0 .636.318.318 0 0 1 0-.636m1.59 0v.636h7.637V11z" opacity=".35"/>
<path fill="#F9F9F9" fill-rule="evenodd" d="M11.897 23q-2.176 0-4.317-.442a10 10 0 0 1-1.424-.425l16.745-12.56a28 28 0 0 1 .099 2.32v.023q0 1.55-.174 3.097a11.9 11.9 0 0 1-.893 3.32q-1.276 2.764-4.135 3.813a15.6 15.6 0 0 1-4.765.825q-.56.03-1.118.029zm3.603-3.375H20V16.25z" clip-rule="evenodd" opacity=".5"/>
<defs>
<radialGradient id="a" cx="0" cy="0" r="1" gradientTransform="matrix(0 22 -22 0 12 1)" gradientUnits="userSpaceOnUse">
<stop stop-color="#C6E6A8"/>
<stop offset="1" stop-color="#90D056"/>
</radialGradient>
</defs>
</svg>
