<svg xmlns="http://www.w3.org/2000/svg" xml:space="preserve" width="24" height="24" viewBox="0 0 6.35 6.35">
<defs>
<radialGradient id="a" cx="0" cy="0" r="1" fx="0" fy="0" gradientTransform="matrix(0 16.5 -16.5 0 9 .75)" gradientUnits="userSpaceOnUse" spreadMethod="pad">
<stop offset="0" style="stop-opacity:1;stop-color:#fafafa"/>
<stop offset="1" style="stop-opacity:1;stop-color:silver"/>
</radialGradient>
</defs>
<path d="M7.195.836q.135 0 .258-.035a24 24 0 0 1 3.231.008 10.3 10.3 0 0 1 2.836.636q2.278.938 3.121 3.254.476 1.396.566 2.867a21 21 0 0 1-.086 3.696 9 9 0 0 1-.672 2.488q-.957 2.074-3.101 2.859a11.7 11.7 0 0 1-3.575.618 16 16 0 0 1-4.089-.309c-2.481-.551-4.016-2.066-4.594-4.543a14.2 14.2 0 0 1-.336-3.383q-.041-1.818.387-3.59.914-3.468 4.406-4.3A10 10 0 0 1 7.195.836" style="fill:url(#a);fill-rule:evenodd;stroke:none" transform="scale(.35277)"/>
<path d="M4.141 13.219h1.793V8.875L3.375 6.957v5.496c0 .426.344.766.766.766" style="fill:#9b9b9b;fill-opacity:1;fill-rule:nonzero;stroke:none" transform="scale(.35277)"/>
<path d="M12.066 13.219h1.793a.767.767 0 0 0 .766-.766V6.957l-2.559 1.918" style="fill:#6e6e6e;fill-opacity:1;fill-rule:nonzero;stroke:none" transform="scale(.35277)"/>
<path d="M12.066 5.551v3.324l2.559-1.918V5.934a1.15 1.15 0 0 0-1.84-.922" style="fill:gray;fill-opacity:1;fill-rule:nonzero;stroke:none" transform="scale(.35277)"/>
<path d="M5.934 8.875V5.551L9 7.852l3.066-2.301v3.324L9 11.176" style="fill:#8f8f8f;fill-opacity:1;fill-rule:nonzero;stroke:none" transform="scale(.35277)"/>
<path d="M3.375 5.934v1.023l2.559 1.918V5.551l-.719-.539a1.15 1.15 0 0 0-1.84.922" style="fill:#727272;fill-opacity:1;fill-rule:nonzero;stroke:none" transform="scale(.35277)"/>
</svg>
