<svg xmlns="http://www.w3.org/2000/svg" width="24" height="24" fill="none">
<g style="stroke-width:.759852">
<g fill="#fff" style="fill:none;stroke-width:.759852">
<path d="M-21.902 6.835a7.98 7.98 0 0 0-8-8 7.98 7.98 0 0 0-8 8 7.98 7.98 0 0 0 8 8 7.98 7.98 0 0 0 8-8m-5.074 0a2.913 2.913 0 0 1-2.926 2.928 2.913 2.913 0 0 1-2.93-2.928c0-1.61 1.188-2.926 2.928-2.926s2.928 1.348 2.928 2.926" opacity=".75" style="stroke-width:.759852" transform="translate(49.17 3.82)scale(1.21)"/>
<path d="M-29.903 2.833a4.002 4.002 0 1 0 .002 8.004 4.002 4.002 0 0 0-.002-8.004m0 2a2.002 2.002 0 1 1 .001 4.004 2.002 2.002 0 0 1-.003-4.004z" opacity=".35" style="stroke-width:.759852" transform="translate(49.17 3.82)scale(1.21)"/>
</g>
</g>
<path d="M11.776 1a32 32 0 0 0-1.838.068q-.165.046-.344.047-1.111.087-2.198.354-4.656 1.11-5.874 5.734A18.5 18.5 0 0 0 1 11.469v.187q-.002.171.006.333c-.033 1.522.12 3.027.448 4.511.77 3.303 2.817 5.323 6.125 6.057 1.801.37 3.619.511 5.452.412a15.6 15.6 0 0 0 4.767-.824q2.364-.866 3.645-2.905v-5.213a2.1 2.1 0 0 1-.927-.787 2.12 2.12 0 0 1 0-2.333 2.1 2.1 0 0 1 .927-.782V4.74q-1.197-1.9-3.416-2.813a13.7 13.7 0 0 0-3.781-.848 31 31 0 0 0-2-.079Z" style="fill:#eb6f66;fill-opacity:1;fill-rule:evenodd;stroke:none;stroke-width:1.33333"/>
<g fill="#fff" style="stroke-width:.807099">
<g style="stroke-width:.807099">
<path d="M49 14a7.98 7.98 0 0 0-8-8 7.98 7.98 0 0 0-8 8 7.98 7.98 0 0 0 8 8 7.98 7.98 0 0 0 8-8m-5.074 0A2.913 2.913 0 0 1 41 16.928 2.913 2.913 0 0 1 38.07 14c0-1.61 1.188-2.926 2.928-2.926s2.928 1.348 2.928 2.926" opacity=".75" style="stroke-width:.807099" transform="translate(-37.711 -5.376)scale(1.239)"/>
<path d="M41 9.998a4.003 4.003 0 1 0 0 8.005 4.003 4.003 0 0 0 0-8.005m0 2a2.002 2.002 0 1 1 0 4.004 2.002 2.002 0 0 1-.003-4.004z" opacity=".35" style="stroke-width:.807099" transform="translate(-37.711 -5.376)scale(1.239)"/>
</g>
<g style="fill:none;stroke-width:.807099">
<path d="M19.355 12A7.336 7.336 0 0 0 12 4.645 7.337 7.337 0 0 0 4.645 12 7.337 7.337 0 0 0 12 19.355 7.337 7.337 0 0 0 19.355 12m-4.665 0A2.68 2.68 0 0 1 12 14.692 2.68 2.68 0 0 1 9.307 12c0-1.48 1.091-2.69 2.692-2.69 1.6 0 2.691 1.24 2.691 2.69" opacity=".75" style="stroke-width:.807099" transform="translate(-1.78 -2.897)scale(1.239)"/>
<path d="M12 8.32a3.68 3.68 0 1 0 0 7.36 3.68 3.68 0 0 0 0-7.36m0 1.84a1.841 1.841 0 1 1 0 3.681 1.841 1.841 0 0 1-.002-3.682z" opacity=".35" style="stroke-width:.807099" transform="translate(-1.78 -2.897)scale(1.239)"/>
</g>
</g>
<g style="opacity:.35;stroke-width:.759852">
<g style="stroke-width:.759852">
<g fill="#fff" style="fill:none;stroke-width:.759852">
<path d="M-21.902 6.835a7.98 7.98 0 0 0-8-8 7.98 7.98 0 0 0-8 8 7.98 7.98 0 0 0 8 8 7.98 7.98 0 0 0 8-8m-5.074 0a2.913 2.913 0 0 1-2.926 2.928 2.913 2.913 0 0 1-2.93-2.928c0-1.61 1.188-2.926 2.928-2.926s2.928 1.348 2.928 2.926" opacity=".75" style="stroke-width:.759852" transform="translate(49.17 3.82)scale(1.21)"/>
<path d="M-29.903 2.833a4.002 4.002 0 1 0 .002 8.004 4.002 4.002 0 0 0-.002-8.004m0 2a2.002 2.002 0 1 1 .001 4.004 2.002 2.002 0 0 1-.003-4.004z" opacity=".35" style="stroke-width:.759852" transform="translate(49.17 3.82)scale(1.21)"/>
</g>
</g>
</g>
<path d="M11.776 1a32 32 0 0 0-1.838.068q-.165.046-.344.047-1.111.087-2.198.354-4.656 1.11-5.874 5.734A18.5 18.5 0 0 0 1 11.469v.187q-.002.171.006.333c-.033 1.522.12 3.027.448 4.511.77 3.303 2.817 5.323 6.125 6.057 1.801.37 3.619.511 5.452.412a15.6 15.6 0 0 0 4.767-.824q2.364-.866 3.645-2.905v-5.213a2.1 2.1 0 0 1-.927-.787 2.12 2.12 0 0 1 0-2.333 2.1 2.1 0 0 1 .927-.782V4.74q-1.197-1.9-3.416-2.813a13.7 13.7 0 0 0-3.781-.848 31 31 0 0 0-2-.079Z" style="opacity:.5;fill:#eb6f66;fill-opacity:1;fill-rule:evenodd;stroke:none;stroke-width:1.33333"/>
<path fill="#000" fill-opacity=".875" fill-rule="evenodd" d="m12.93 6.693 2.951-.551a.652.652 0 0 1 .772.641v1.949a.65.65 0 0 1-.531.64l-2.556.482c-.298.054-.351.11-.351.414v5.571c0 1.79-1.485 2.466-2.466 2.466-1.12 0-1.922-.67-1.922-1.62 0-.931.63-1.57 1.982-1.826l1.054-.207c.271-.049.41-.232.41-.512l-.04-6.77c0-.366.246-.585.697-.677" clip-rule="evenodd" opacity=".125" style="fill:#fff;stroke-width:1.14994"/>
<path d="m13.366 6.3 2.953-.553c.401-.077.77.23.77.642v1.948a.65.65 0 0 1-.53.64l-2.557.478c-.298.058-.35.11-.35.418v5.573c0 1.787-1.484 2.463-2.468 2.463-1.12 0-1.922-.672-1.922-1.62 0-.932.63-1.572 1.985-1.828l1.052-.203c.27-.052.41-.235.41-.516l-.04-6.77c0-.365.245-.583.697-.673z" style="fill:#fff;fill-opacity:1;fill-rule:evenodd;stroke:none;stroke-width:1.33333"/>
</svg>
