<svg xmlns="http://www.w3.org/2000/svg" width="24" height="24">
<defs>
<linearGradient id="f" x1="-240.47" x2="-240.47" y1="-60.605" y2="-29.026" gradientTransform="matrix(.24157 0 0 .2374 69.59 20.842)" gradientUnits="userSpaceOnUse" spreadMethod="pad">
<stop offset="0" style="stop-color:#6a60cb;stop-opacity:1"/>
<stop offset="1" style="stop-color:#4a3cbd;stop-opacity:1"/>
</linearGradient>
<linearGradient id="b" x1="10.583" x2="225.69" y1="-184.68" y2="-184.68" gradientUnits="userSpaceOnUse" spreadMethod="pad">
<stop offset="0" style="stop-opacity:1;stop-color:#fff"/>
<stop offset="1" style="stop-opacity:0;stop-color:#fff"/>
</linearGradient>
<linearGradient id="i" x1="10.583" x2="225.69" y1="-184.68" y2="-184.68" gradientUnits="userSpaceOnUse" spreadMethod="pad">
<stop offset="0" style="stop-opacity:1;stop-color:#fafbfb"/>
<stop offset="1" style="stop-opacity:1;stop-color:#fafbfb"/>
</linearGradient>
<linearGradient id="d" x1="520" x2="410" y1="-620" y2="-620" gradientUnits="userSpaceOnUse" spreadMethod="pad">
<stop offset="0" style="stop-opacity:1;stop-color:#fff"/>
<stop offset="1" style="stop-opacity:0;stop-color:#fff"/>
</linearGradient>
<linearGradient id="m" x1="520" x2="410" y1="-620" y2="-620" gradientUnits="userSpaceOnUse" spreadMethod="pad">
<stop offset="0" style="stop-opacity:1;stop-color:#000"/>
<stop offset="1" style="stop-opacity:1;stop-color:#000"/>
</linearGradient>
<clipPath id="g" clipPathUnits="userSpaceOnUse">
<path d="m6.707 11.402.703-2.468 3.902 2.468Z"/>
</clipPath>
<clipPath id="a" clipPathUnits="userSpaceOnUse">
<path d="M-22.543-286.093h280.477V-99.11H-22.543Z"/>
</clipPath>
<clipPath id="j" clipPathUnits="userSpaceOnUse">
<path d="M0 0h19v19H0Z"/>
</clipPath>
<clipPath id="k" clipPathUnits="userSpaceOnUse">
<path d="M9.199 10.066v1.336h.227v-1.191z"/>
</clipPath>
<clipPath id="c" clipPathUnits="userSpaceOnUse">
<path d="M444.944-728.121h176.722v353.444H444.944Z"/>
</clipPath>
<mask id="h" width="1" height="1" x="0" y="0" maskUnits="userSpaceOnUse">
<g clip-path="url(#a)">
<path d="M-22.543-286.093h280.477V-99.11H-22.543Z" style="fill:url(#b);stroke:none"/>
</g>
</mask>
<mask id="l" width="1" height="1" x="0" y="0" maskUnits="userSpaceOnUse">
<g clip-path="url(#c)">
<path d="M444.944-728.121h176.722v353.444H444.944Z" style="fill:url(#d);stroke:none"/>
</g>
</mask>
<radialGradient id="e" cx="0" cy="0" r="1" fx="0" fy="0" gradientTransform="matrix(0 16.5 -16.5 0 9 .75)" gradientUnits="userSpaceOnUse" spreadMethod="pad">
<stop offset="0" style="stop-opacity:1;stop-color:#a4a4a4"/>
<stop offset="1" style="stop-opacity:1;stop-color:#626262"/>
</radialGradient>
</defs>
<path d="M7.195.836q.135 0 .258-.035a24 24 0 0 1 3.231.008 10.3 10.3 0 0 1 2.836.636q2.278.938 3.121 3.254.476 1.396.566 2.867a21 21 0 0 1-.086 3.696 9 9 0 0 1-.672 2.488q-.957 2.074-3.101 2.859a11.7 11.7 0 0 1-3.575.618 16 16 0 0 1-4.089-.309c-2.481-.551-4.016-2.066-4.594-4.543a14.2 14.2 0 0 1-.336-3.383q-.041-1.821.387-3.59.914-3.468 4.406-4.3A10 10 0 0 1 7.195.836" style="fill:url(#e);fill-rule:evenodd;stroke:none" transform="scale(1.33333)"/>
<path d="m12 13.73-2.307 1.734c0 2.015-.287 2.015-1.73 2.885l4.037.287 4.036-.292c-1.443-.865-1.73-.865-1.73-2.88z" style="fill:#b3b3b3;fill-opacity:1;fill-rule:nonzero;stroke:none;stroke-width:1.33333"/>
<path d="M7.964 18.344h8.073v.579H7.964Z" style="fill:#ccc;fill-opacity:1;fill-rule:nonzero;stroke:none;stroke-width:1.33333"/>
<path d="M5.672 5.432h12.656c.645 0 1.172.527 1.172 1.177v7.688c0 .651-.527 1.172-1.172 1.172H5.672A1.17 1.17 0 0 1 4.5 14.297V6.61c0-.65.526-1.177 1.172-1.177z" style="fill:#303030;fill-opacity:1;fill-rule:nonzero;stroke:none;stroke-width:1.33333"/>
<path d="M5.749 5.703H18.25c.552 0 .995.437.995.985v7.53a.985.985 0 0 1-.995.98H5.75a.985.985 0 0 1-.995-.98v-7.53c0-.548.443-.985.995-.985z" style="fill:url(#f);stroke:none;stroke-width:1.33333"/>
<g clip-path="url(#g)" transform="scale(1.33333)">
<g mask="url(#h)" transform="translate(6.482 14.12)scale(.0214)">
<path d="m6.707 11.402.703-2.468 3.902 2.468Z" style="fill:url(#i);stroke:none"/>
</g>
</g>
<g clip-path="url(#j)" opacity=".35" transform="scale(1.33333)">
<g clip-path="url(#k)">
<g mask="url(#l)" transform="translate(6.482 14.12)scale(.00566)">
<path d="M9.199 10.066v1.336h.227v-1.191z" style="fill:url(#m);stroke:none"/>
</g>
</g>
</g>
<g fill="#f9f9f9" transform="matrix(.3 0 0 .3 2.4 2.65)">
<circle cx="32" cy="32.001" r="4" style="stroke-width:1.7037;paint-order:normal"/>
<path d="M32 16.001c-5.714.002-11.147 3.05-13.999 8l3.617 2.004c2.14-3.71 6.1-6.005 10.382-6.004a12 12 0 0 1 10.38 6.008L46 24.002c-2.854-4.951-8.285-8.003-14-8Zm0 6a9.99 9.99 0 0 0-8.648 5.01l3.457 1.993A6 6 0 0 1 32 26.002a5.99 5.99 0 0 1 5.192 3.003l3.461-2A9.99 9.99 0 0 0 32 22.002Z" style="stroke-width:1.7037;paint-order:normal"/>
</g>
</svg>
