<svg xmlns="http://www.w3.org/2000/svg" xml:space="preserve" width="24" height="24" viewBox="0 0 6.35 6.35">
<defs>
<radialGradient id="a" cx="9" cy="9" r="8.25" fx="9" fy="2.848" gradientTransform="translate(-3.273 -3.273)scale(1.36364)" gradientUnits="userSpaceOnUse" spreadMethod="pad">
<stop offset="0" style="stop-opacity:1;stop-color:#6aa1ff"/>
<stop offset="1" style="stop-opacity:1;stop-color:#2879ff"/>
</radialGradient>
</defs>
<path d="M7.195.836q.135 0 .258-.035a24 24 0 0 1 3.231.008 10.3 10.3 0 0 1 2.836.636q2.278.938 3.121 3.254.476 1.396.566 2.867a21 21 0 0 1-.086 3.696 9 9 0 0 1-.672 2.488q-.957 2.074-3.101 2.859a11.7 11.7 0 0 1-3.575.618 16 16 0 0 1-4.089-.309c-2.481-.551-4.016-2.066-4.594-4.543a14.2 14.2 0 0 1-.336-3.383q-.041-1.818.387-3.59.914-3.468 4.406-4.3A10 10 0 0 1 7.195.836" style="fill:url(#a);fill-rule:evenodd;stroke:none" transform="scale(.35277)"/>
<path d="m.766.766 16.468 16.468m0-16.468L.766 17.234M11.379.766v16.468M6.621.766v16.468m10.613-5.855H.766m16.468-4.758H.766" style="fill:none;stroke:#fff;stroke-width:.0428899;stroke-linecap:butt;stroke-linejoin:miter;stroke-miterlimit:4;stroke-dasharray:none;stroke-opacity:.2" transform="scale(.35277)"/>
<path d="M13.078 9A4.08 4.08 0 0 1 9 13.078 4.08 4.08 0 0 1 4.922 9 4.08 4.08 0 0 1 9 4.922 4.08 4.08 0 0 1 13.078 9z" style="fill:none;stroke:#fff;stroke-width:.0522617;stroke-linecap:butt;stroke-linejoin:miter;stroke-miterlimit:4;stroke-dasharray:none;stroke-opacity:.2" transform="scale(.35277)"/>
<path d="M.75 9h16.5M9 .75v16.5" style="fill:none;stroke:#fff;stroke-width:.0429687;stroke-linecap:butt;stroke-linejoin:miter;stroke-miterlimit:4;stroke-dasharray:none;stroke-opacity:.2" transform="scale(.35277)"/>
<path d="M4.668 7.906v.379c0 .84.676 1.516 1.516 1.516h.375V8.664h1.136c.211 0 .379.168.379.379a.377.377 0 0 1-.379.379h-.379v.379h4.164a.945.945 0 0 0 .946-.949.945.945 0 0 0-.614-.887l.047-.059z" style="fill:none;stroke:#fff;stroke-width:.189233;stroke-linecap:butt;stroke-linejoin:miter;stroke-miterlimit:4;stroke-dasharray:none;stroke-opacity:1" transform="scale(.35277)"/>
<path d="M5.883 3.555c0 1.961.785 3.136 2.355 4.312l.071.047q.046.04.093.074l2.391 1.629a1.104 1.104 0 0 0 1.543-.293 1.11 1.11 0 0 0-.18-1.457l-.008-.004a1 1 0 0 0-.101-.082L9.926 6.332Z" style="fill:none;stroke:#fff;stroke-width:.189233;stroke-linecap:butt;stroke-linejoin:miter;stroke-miterlimit:4;stroke-dasharray:none;stroke-opacity:1" transform="scale(.35277)"/>
<path d="M11.961 7.082a1.4 1.4 0 0 0-.981.395L6.277 12.18c-.257.254-.39.617-.394.98 0 .758.617 1.371 1.375 1.371.363 0 .722-.136.98-.394l4.703-4.703a1.38 1.38 0 0 0 .391-.981 1.37 1.37 0 0 0-1.371-1.371zM7.059 4.754v.394l2.355 1.618v-.395Z" style="fill:none;stroke:#fff;stroke-width:.189233;stroke-linecap:butt;stroke-linejoin:miter;stroke-miterlimit:4;stroke-dasharray:none;stroke-opacity:1" transform="scale(.35277)"/>
</svg>
