<svg xmlns="http://www.w3.org/2000/svg" xmlns:xlink="http://www.w3.org/1999/xlink" width="24" height="24" viewBox="0 0 6.35 6.35">
<defs>
<linearGradient id="a">
<stop offset="0" style="stop-color:#4d4d4d;stop-opacity:1"/>
<stop offset="1" style="stop-color:#949494;stop-opacity:1"/>
</linearGradient>
<linearGradient xlink:href="#a" id="b" x1="236.059" x2="222.894" y1="-.636" y2="515.021" gradientTransform="rotate(180 3.043 3.043)scale(.01304)" gradientUnits="userSpaceOnUse"/>
</defs>
<path d="M3.811 6.055a.3.3 0 0 0-.09.012 8 8 0 0 1-1.14-.003 3.6 3.6 0 0 1-1-.224 1.89 1.89 0 0 1-1.1-1.148 3.8 3.8 0 0 1-.2-1.012 7.4 7.4 0 0 1 .03-1.302q.054-.457.236-.879A1.87 1.87 0 0 1 1.64.49Q2.255.284 2.9.272q.729-.038 1.443.11 1.315.293 1.622 1.602.13.589.118 1.193.014.642-.136 1.267-.322 1.224-1.555 1.517a4 4 0 0 1-.582.094Z" style="fill:url(#b);fill-opacity:1;fill-rule:evenodd;stroke:none;stroke-width:.286756"/>
<g style="stroke-width:2.80068" transform="translate(.152 .152)scale(.35706)">
<rect width="3.175" height="3.175" x="2.91" y="2.91" fill="#fff" rx=".529" ry=".529" style="stroke-width:2.80068"/>
<rect width="3.175" height="3.175" x="6.879" y="2.91" fill="#999" rx=".529" ry=".529" style="stroke-width:2.80068"/>
<rect width="3.175" height="3.175" x="10.848" y="2.91" fill="#fff" rx=".529" ry=".529" style="stroke-width:2.80068"/>
<rect width="3.175" height="3.175" x="2.91" y="6.88" fill="#999" rx=".529" ry=".529" style="stroke-width:2.80068"/>
<rect width="3.175" height="3.175" x="6.879" y="6.88" fill="#fff" rx=".529" ry=".529" style="stroke-width:2.80068"/>
<rect width="3.175" height="3.175" x="10.848" y="6.88" fill="#999" rx=".529" ry=".529" style="stroke-width:2.80068"/>
<rect width="3.175" height="3.175" x="2.91" y="10.85" fill="#fff" rx=".529" ry=".529" style="stroke-width:2.80068"/>
<rect width="3.175" height="3.175" x="6.879" y="10.85" fill="#999" rx=".529" ry=".529" style="stroke-width:2.80068"/>
<rect width="3.175" height="3.175" x="10.848" y="10.85" fill="#fff" rx=".529" ry=".529" style="stroke-width:2.80068"/>
</g>
</svg>
