<svg xmlns="http://www.w3.org/2000/svg" xml:space="preserve" width="24" height="24" viewBox="0 0 6.35 6.35">
<defs>
<radialGradient id="a" cx="0" cy="0" r="1" fx="0" fy="0" gradientTransform="matrix(0 16.5 -16.5 0 9 .75)" gradientUnits="userSpaceOnUse" spreadMethod="pad">
<stop offset="0" style="stop-opacity:1;stop-color:#fafafa"/>
<stop offset="1" style="stop-opacity:1;stop-color:silver"/>
</radialGradient>
</defs>
<path d="M7.195.836q.135 0 .258-.035a24 24 0 0 1 3.231.008 10.3 10.3 0 0 1 2.836.636q2.278.938 3.121 3.254.476 1.396.566 2.867a21 21 0 0 1-.086 3.696 9 9 0 0 1-.672 2.488q-.957 2.074-3.101 2.859a11.7 11.7 0 0 1-3.575.618 16 16 0 0 1-4.089-.309c-2.481-.551-4.016-2.066-4.594-4.543a14.2 14.2 0 0 1-.336-3.383q-.041-1.818.387-3.59.914-3.468 4.406-4.3A10 10 0 0 1 7.195.836" style="fill:url(#a);fill-rule:evenodd;stroke:none" transform="scale(.35277)"/>
<path d="M3.2.265a9 9 0 0 0-.57.018.3.3 0 0 1-.092.012q-.293.023-.581.094Q.725.682.403 1.906a5 5 0 0 0-.137 1.266q-.012.604.119 1.194.128.547.432.917l2.358-2.108 2.11-2.36A2 2 0 0 0 4.77.51a3.6 3.6 0 0 0-1-.225q-.285-.02-.57-.02" style="fill:#0f9d58;fill-opacity:1;fill-rule:nonzero;stroke:none;stroke-width:.352771"/>
<path d="M3.175 3.175 1.066 5.533q.376.311.94.435a5.8 5.8 0 0 0 1.442.11q.65-.011 1.26-.219.327-.12.578-.325z" style="fill:#4285f4;fill-opacity:1;fill-rule:nonzero;stroke:none;stroke-width:.352771"/>
<path d="m3.328 2.87-.536.458 2.327 2.327q.3-.195.506-.49Z" style="fill:#eaeaea;fill-opacity:1;fill-rule:nonzero;stroke:none;stroke-width:.352771"/>
<path d="m5.166.724-4.44 4.44q.206.293.506.49l4.425-4.426q-.195-.3-.49-.504Z" style="fill:#f8d846;fill-opacity:1;fill-rule:nonzero;stroke:none;stroke-width:.352771"/>
<path d="M4.662.867c-.781 0-1.31.798-1.006 1.517l1.006 1.76 1.007-1.76A1.092 1.092 0 0 0 4.662.867m0 .765a.327.327 0 1 1 0 .655c-.437 0-.437-.655 0-.655" style="fill:#db4437;fill-opacity:1;fill-rule:nonzero;stroke:none;stroke-width:.352771"/>
<path d="M5.033 1.953a.37.37 0 1 1-.742 0 .37.37 0 0 1 .742 0" style="fill:#7b231e;fill-opacity:1;fill-rule:nonzero;stroke:none;stroke-width:.352771"/>
</svg>
