<svg xmlns="http://www.w3.org/2000/svg" xml:space="preserve" width="24" height="24" viewBox="0 0 6.35 6.35">
<defs>
<radialGradient id="a" cx="0" cy="0" r="1" fx="0" fy="0" gradientTransform="rotate(90 1.455 1.72)scale(5.82072)" gradientUnits="userSpaceOnUse" spreadMethod="pad">
<stop offset="0" style="stop-color:#9cd3c9;stop-opacity:.93725491"/>
<stop offset="1" style="stop-color:#009577;stop-opacity:1"/>
</radialGradient>
</defs>
<path d="M2.538.295A.3.3 0 0 0 2.63.283a8 8 0 0 1 1.14.002 3.6 3.6 0 0 1 1 .225q.804.33 1.101 1.148.169.492.2 1.011.042.653-.03 1.304a3.2 3.2 0 0 1-.237.878q-.338.731-1.094 1.008a4.1 4.1 0 0 1-1.261.218 5.6 5.6 0 0 1-1.443-.109Q.691 5.677.385 4.366a5 5 0 0 1-.12-1.194 5 5 0 0 1 .137-1.266Q.724.682 1.957.389q.288-.071.581-.094" style="fill:url(#a);fill-rule:evenodd;stroke:none;stroke-width:.352683;stroke-dasharray:none"/>
<path d="m2.668.279-.039.002a.3.3 0 0 1-.09.012q-.294.024-.582.094a2.5 2.5 0 0 0-.386.125v4.73l.549-.548.548.548Z" style="fill:#fff;fill-opacity:1;fill-rule:evenodd;stroke:none;stroke-width:.352683;stroke-dasharray:none"/>
<path fill="#f9f9f9" d="M.732 1.437a.09.09 0 0 0-.094.091v2.358c0 .05.041.09.094.09.845 0 1.972.182 2.441.544v.002h.003V4.52c.47-.362 1.597-.544 2.442-.544a.09.09 0 0 0 .094-.09V1.528a.09.09 0 0 0-.094-.09c-.845 0-1.972.181-2.442.544h-.003c-.47-.363-1.596-.545-2.441-.545" opacity=".9" style="stroke-width:.342713;paint-order:stroke fill markers"/>
<path fill="#fff" d="M.638 3.795v.09c0 .051.041.091.093.091.846 0 1.973.182 2.442.544v.002h.004V4.52c.47-.362 1.596-.544 2.441-.544.052 0 .094-.04.094-.09v-.091c0 .05-.042.09-.094.09-.845 0-1.972.182-2.441.545v.001h-.004V4.43c-.47-.363-1.596-.544-2.442-.544a.09.09 0 0 1-.093-.091" opacity=".25" style="stroke-width:.0906751;paint-order:stroke fill markers"/>
<path fill="#fff" d="M.638 3.883v.09c0 .05.041.091.093.091.846 0 1.973.181 2.442.544v.002l.002-.001h.002c.47-.364 1.596-.545 2.441-.545.052 0 .094-.04.094-.09v-.091c0 .05-.042.09-.094.09-.845 0-1.972.182-2.441.545v.001h-.004v-.001c-.47-.363-1.596-.545-2.442-.545a.09.09 0 0 1-.093-.09" opacity=".25" style="stroke-width:.0906751;paint-order:stroke fill markers;fill:gray"/>
</svg>
