<svg xmlns="http://www.w3.org/2000/svg" width="24" height="24" viewBox="0 0 6.35 6.35">
<defs>
<radialGradient id="a" cx="0" cy="0" r="1" fx="0" fy="0" gradientTransform="rotate(90 1.455 1.72)scale(5.82072)" gradientUnits="userSpaceOnUse" spreadMethod="pad">
<stop offset="0" style="stop-color:#aed9ec;stop-opacity:.93725491"/>
<stop offset="1" style="stop-color:#32a3d7;stop-opacity:1"/>
</radialGradient>
</defs>
<path d="M2.538.295A.3.3 0 0 0 2.63.283Q3.2.246 3.77.285a3.6 3.6 0 0 1 1 .225q.804.33 1.101 1.148.169.492.2 1.011.042.653-.03 1.304a3.2 3.2 0 0 1-.237.878q-.338.731-1.094 1.008a4.1 4.1 0 0 1-1.261.218 5.6 5.6 0 0 1-1.443-.109Q.691 5.677.385 4.366a5 5 0 0 1-.12-1.194 5 5 0 0 1 .137-1.266Q.724.682 1.957.389q.288-.071.581-.094" style="fill:url(#a);fill-rule:evenodd;stroke:none;stroke-width:.35277"/>
<g fill="#fff" style="stroke-width:2.69231" transform="translate(-3.655 6.221)scale(.37143)">
<path d="M16.404-11.906a.264.264 0 1 0 0 .53h6.35a.264.264 0 1 0 0-.53zm0 3.44a.264.264 0 1 0 0 .529h6.35a.264.264 0 1 0 0-.53zm0 3.44a.264.264 0 1 0 0 .528h6.35a.264.264 0 1 0 0-.529z" style="stroke-width:.712333;paint-order:stroke fill markers"/>
<circle cx="14.552" cy="-11.642" r=".794" opacity=".35" style="stroke-width:2.69231;paint-order:stroke fill markers"/>
<circle cx="14.552" cy="-11.642" r=".265" style="stroke-width:2.69231;paint-order:stroke fill markers"/>
<circle cx="14.552" cy="-8.202" r=".794" opacity=".35" style="stroke-width:2.69231;paint-order:stroke fill markers"/>
<circle cx="14.552" cy="-8.202" r=".265" style="stroke-width:2.69231;paint-order:stroke fill markers"/>
<circle cx="14.552" cy="-4.763" r=".794" opacity=".35" style="stroke-width:2.69231;paint-order:stroke fill markers"/>
<circle cx="14.552" cy="-4.763" r=".265" style="stroke-width:2.69231;paint-order:stroke fill markers"/>
</g>
<path d="M4.873 3.016a2.24 2.24 0 0 0-2.24 2.24 2.2 2.2 0 0 0 .155.818q.33.021.66.003.649-.01 1.26-.218.758-.277 1.095-1.008.181-.422.237-.878.033-.302.042-.603a2.24 2.24 0 0 0-1.209-.354" style="fill:#2cc36c;fill-opacity:1;stroke-width:.705622"/>
<path d="M5.628 4.483a.2.2 0 0 0-.146.06l-1.04 1.041-.555-.554a.206.206 0 1 0-.292.291l.662.662q.228-.048.452-.124l.068-.027.997-.996a.206.206 0 0 0-.146-.353" style="fill:#fff;fill-opacity:1;stroke-width:.705622"/>
</svg>
