<svg xmlns="http://www.w3.org/2000/svg" width="24" height="24" viewBox="0 0 6.35 6.35">
<defs>
<radialGradient id="a" cx="0" cy="0" r="1" fx="0" fy="0" gradientTransform="rotate(90 -7.978 -.779)scale(5.82072)" gradientUnits="userSpaceOnUse" spreadMethod="pad">
<stop offset="0" style="stop-color:#f9f7f1;stop-opacity:.90588236"/>
<stop offset="1" style="stop-color:#f7d83f;stop-opacity:1"/>
</radialGradient>
</defs>
<path d="M-9.394 7.23a.3.3 0 0 0 .091-.013q.57-.037 1.14.003a3.6 3.6 0 0 1 1 .224q.804.331 1.101 1.148.169.492.2 1.012.041.653-.03 1.304a3.2 3.2 0 0 1-.237.877 1.87 1.87 0 0 1-1.094 1.009 4.1 4.1 0 0 1-1.262.218 5.6 5.6 0 0 1-1.442-.11q-1.314-.291-1.62-1.602a5 5 0 0 1-.12-1.193q-.014-.641.137-1.267.322-1.223 1.555-1.517a4 4 0 0 1 .581-.093" style="fill:url(#a);fill-rule:evenodd;stroke:none;stroke-width:.352683;stroke-dasharray:none" transform="translate(11.932 -6.935)"/>
<path d="m-7.606 7.302-.028 1.047c-.014.548.437 1 1.011 1.016l.747.02a4 4 0 0 0-.152-.734 1.9 1.9 0 0 0-1.07-1.183 4 4 0 0 0-.508-.166" style="opacity:.727273;mix-blend-mode:normal;fill:#f8f9f9;fill-opacity:1;stroke-width:.637963;paint-order:stroke fill markers" transform="translate(11.932 -6.935)"/>
</svg>
