<svg xmlns="http://www.w3.org/2000/svg" xml:space="preserve" width="24" height="24" viewBox="0 0 6.35 6.35">
<path d="M2.538.295A.3.3 0 0 0 2.63.283Q3.2.246 3.77.285a3.6 3.6 0 0 1 1 .225q.804.33 1.101 1.148.169.492.2 1.011.042.653-.03 1.304a3.2 3.2 0 0 1-.237.878q-.338.732-1.094 1.008a4.1 4.1 0 0 1-1.261.218 5.6 5.6 0 0 1-1.443-.109Q.691 5.677.385 4.366a5 5 0 0 1-.12-1.194q-.013-.641.137-1.266Q.724.682 1.957.389q.288-.071.581-.094" style="fill:#f2f2f2;fill-opacity:1;fill-rule:evenodd;stroke:none;stroke-width:.352778"/>
<path d="M3.041 1.455c-.885.052-1.587.803-1.587 1.72 0 .95.778 1.72 1.722 1.72.915 0 1.676-.752 1.72-1.643h-.411a1.31 1.31 0 0 1-1.299 1.23 1.325 1.325 0 0 1-1.322-1.31c0-.689.564-1.251 1.177-1.303zm.204 0v.414c.342.02.542.13.745.3l.3-.292a1.7 1.7 0 0 0-1.045-.422m1.212.563-.29.291c.179.207.288.464.315.736h.411a1.67 1.67 0 0 0-.436-1.027m-.522.384-.867.536h.001a.272.272 0 0 0 .131.51.27.27 0 0 0 .24-.15V3.3z" style="fill:#333;fill-opacity:1;fill-rule:nonzero;stroke:none;stroke-width:.352778"/>
</svg>
