<svg xmlns="http://www.w3.org/2000/svg" width="24" height="24" viewBox="0 0 6.35 6.35">
<defs>
<radialGradient id="a" cx="0" cy="0" r="1" fx="0" fy="0" gradientTransform="rotate(90 1.455 1.72)scale(5.82072)" gradientUnits="userSpaceOnUse" spreadMethod="pad">
<stop offset="0" style="stop-color:#fafafa;stop-opacity:.5"/>
<stop offset="1" style="stop-color:silver;stop-opacity:0"/>
</radialGradient>
</defs>
<path d="M.934.934q-.375.375-.531.972-.152.625-.137 1.266-.012.604.118 1.194.153.649.552 1.049l2.24-2.24Z" style="fill:#e41c1c;fill-opacity:1;stroke-width:.962;paint-order:markers stroke fill"/>
<path d="M5.417.933 3.175 3.175l2.24 2.24a2 2 0 0 0 .388-.564q.181-.422.237-.878.071-.65.03-1.304a4 4 0 0 0-.2-1.011 1.95 1.95 0 0 0-.453-.725" style="fill:#84de2c;fill-opacity:1;stroke-width:.962;paint-order:markers stroke fill"/>
<path d="M3.175 3.175.936 5.415q.407.406 1.069.553.715.147 1.442.109.65-.01 1.262-.218.417-.153.706-.444Z" style="fill:#8c638e;fill-opacity:1;stroke-width:.962;paint-order:markers stroke fill"/>
<path d="M3.2.265a8 8 0 0 0-.57.018.3.3 0 0 1-.092.012q-.293.023-.581.094-.63.15-1.023.545l2.241 2.241L5.417.933A2 2 0 0 0 4.77.51a3.6 3.6 0 0 0-1-.225q-.285-.02-.57-.02" style="fill:#6f9ccd;fill-opacity:1;stroke-width:.962;paint-order:markers stroke fill"/>
<path d="M2.538.295A.3.3 0 0 0 2.63.283Q3.2.246 3.77.285a3.6 3.6 0 0 1 1 .225q.804.33 1.101 1.148.169.492.2 1.011.042.653-.03 1.304a3.2 3.2 0 0 1-.237.878q-.338.731-1.094 1.008a4.1 4.1 0 0 1-1.261.218 5.6 5.6 0 0 1-1.443-.109Q.691 5.677.385 4.366a5 5 0 0 1-.12-1.194 5 5 0 0 1 .137-1.266Q.724.682 1.957.389q.288-.071.581-.094" style="fill:url(#a);fill-rule:evenodd;stroke:none;stroke-width:.35277"/>
<path fill="#fff" d="M3.206 2.145c-.143 0-.229-.128-.246-.365.075-.105.162-.145.233-.145.138 0 .205.097.205.25 0 .156-.083.26-.192.26m.305-.953a.35.35 0 0 0-.265-.116c-.22 0-.421.171-.421.616 0 .376.161.564.38.564.177 0 .326-.15.326-.37 0-.237-.123-.356-.315-.356a.35.35 0 0 0-.259.138c.006-.354.138-.474.293-.474a.24.24 0 0 1 .183.087z" aria-label="6" font-family="sans-serif" font-size="3.528" font-weight="400" letter-spacing="0" style="stroke-width:.962" word-spacing="0"/>
<path fill="#fff" d="M1.063 3.745h.715v-.123h-.315c-.057 0-.127.006-.186.011.267-.253.446-.484.446-.71 0-.204-.128-.338-.331-.338-.145 0-.242.067-.335.168l.082.08c.062-.074.143-.131.236-.131.141 0 .21.094.21.225 0 .195-.165.422-.522.734z" aria-label="2" font-family="sans-serif" font-size="3.528" font-weight="400" letter-spacing="0" style="stroke-width:.962" word-spacing="0"/>
<path fill="#fff" d="M4.904 3.765c.192 0 .372-.141.372-.391s-.154-.362-.343-.362a.33.33 0 0 0-.169.045l.028-.329h.43v-.12h-.554l-.036.531.076.047a.3.3 0 0 1 .19-.066c.142 0 .235.096.235.258 0 .167-.108.27-.242.27a.37.37 0 0 1-.279-.127l-.07.094c.076.076.185.15.362.15" aria-label="5" font-family="sans-serif" font-size="3.528" font-weight="400" letter-spacing="0" style="stroke-width:.962" word-spacing="0"/>
<path fill="#fff" d="M3.045 5.244h.149c.016-.445.066-.709.333-1.052v-.085h-.713v.12h.552c-.222.311-.301.586-.32 1.017Z" aria-label="7" font-family="sans-serif" font-size="3.528" font-weight="400" letter-spacing="0" style="stroke-width:.962" word-spacing="0"/>
</svg>
