<svg xmlns="http://www.w3.org/2000/svg" xml:space="preserve" width="24" height="24" viewBox="0 0 6.35 6.35">
<defs>
<radialGradient id="a" cx="0" cy="0" r="1" fx="0" fy="0" gradientTransform="matrix(0 16.5 -16.5 0 9 .75)" gradientUnits="userSpaceOnUse" spreadMethod="pad">
<stop offset="0" style="stop-opacity:1;stop-color:#ffbfcb"/>
<stop offset="1" style="stop-opacity:1;stop-color:#d86eb0"/>
</radialGradient>
<clipPath id="b" clipPathUnits="userSpaceOnUse">
<path d="M0 0h49v49H0Z"/>
</clipPath>
</defs>
<path d="M7.195.836q.135 0 .258-.035a24 24 0 0 1 3.231.008 10.3 10.3 0 0 1 2.836.636q2.278.938 3.121 3.254.476 1.396.566 2.867a21 21 0 0 1-.086 3.696 9 9 0 0 1-.672 2.488q-.957 2.074-3.101 2.859a11.7 11.7 0 0 1-3.575.618 16 16 0 0 1-4.089-.309c-2.481-.551-4.016-2.066-4.594-4.543a14.2 14.2 0 0 1-.336-3.383q-.041-1.821.387-3.59.914-3.468 4.406-4.3A10 10 0 0 1 7.195.836" style="fill:url(#a);fill-rule:evenodd;stroke:none" transform="scale(.35277)"/>
<path d="M2.84 15.57c-.86-.773-1.445-1.828-1.758-3.156q-.104-.48-.18-.969h16.196a9 9 0 0 1-.653 2.344 5.4 5.4 0 0 1-1.285 1.781z" style="fill:#fff;fill-opacity:1;fill-rule:evenodd;stroke:none" transform="scale(.35277)"/>
<path d="M4.48 13.508a.845.845 0 0 1-.847.847.846.846 0 1 1 0-1.695c.469 0 .847.379.847.848" style="fill:#ee6369;fill-opacity:1;fill-rule:nonzero;stroke:none" transform="scale(.35277)"/>
<g clip-path="url(#b)" opacity=".15" transform="scale(.35277)">
<path d="M5.328 13.227h9.606a.28.28 0 0 1 .281.281.28.28 0 0 1-.281.281H5.328a.28.28 0 0 1-.281-.281.28.28 0 0 1 .281-.281" style="fill:#000;fill-opacity:1;fill-rule:nonzero;stroke:none"/>
</g>
<path d="M5.328 13.227h5.93c.156 0 .285.125.285.281a.283.283 0 0 1-.285.281h-5.93a.28.28 0 0 1-.281-.281.28.28 0 0 1 .281-.281" style="fill:#d86eb0;fill-opacity:1;fill-rule:nonzero;stroke:none" transform="scale(.35277)"/>
<path d="M15.488 3.145c-1.761.05-3.648.75-5.09 2.515a13 13 0 0 1-1.64 1.695C7.129 6.617 5.945 5.688 4.824 5.25a7 7 0 0 0-1.828-.418c-.16-.309-.308-.609-.453-.894a4.6 4.6 0 0 0-.43-.676c-.082.113-.16.226-.23.347.105.153.211.325.308.512.11.211.219.441.34.676a11 11 0 0 0-1.219.023 7 7 0 0 0-.128.418c.25-.023.504-.039.754-.043.269-.004.542 0 .812.02.352.672.766 1.375 1.34 1.996a5.3 5.3 0 0 0 2.348 1.484 3.8 3.8 0 0 1-1.555.121c-1.633-.222-2.899-1.257-3.723-3.5a10 10 0 0 0-.152.68c.871 1.973 2.191 2.992 3.82 3.215q.153.023.305.027c.699.043 1.371-.105 2-.375.355.067.73.114 1.137.125a8.7 8.7 0 0 0 2.953-.422c.816.161 1.718.25 2.726.231 1.164-.024 2.219-.531 3.235-1.52q-.022-.254-.055-.507c-1.035 1.089-2.055 1.605-3.188 1.628a12.4 12.4 0 0 1-2.003-.117 6 6 0 0 0 2.566-2.211h.004c.523-.758 1.14-1.492 1.851-2.035a5 5 0 0 0-.195-.359c-.781.582-1.441 1.379-1.988 2.172h-.004v.004c-.746 1.152-1.793 1.886-2.965 2.304a11.3 11.3 0 0 1-2.047-.629 13.4 13.4 0 0 0 1.543-1.617c1.367-1.676 3.129-2.324 4.793-2.371q.3-.006.594.012a8 8 0 0 0-.281-.406zM3.227 5.262c.503.066.996.179 1.453.355.992.387 2.14 1.281 3.734 2.024a7 7 0 0 1-.476.343q-.419.276-.86.469a4.86 4.86 0 0 1-2.695-1.515c-.477-.512-.84-1.094-1.156-1.676m5.597 2.562q.786.336 1.606.555a8.7 8.7 0 0 1-2.149.211c-.179-.004-.347-.02-.515-.035a9 9 0 0 0 1.058-.731" style="fill:#f6bdd2;fill-opacity:1;fill-rule:nonzero;stroke:none" transform="scale(.35277)"/>
</svg>
