<svg xmlns="http://www.w3.org/2000/svg" xmlns:xlink="http://www.w3.org/1999/xlink" xml:space="preserve" width="24" height="24">
<defs>
<radialGradient xlink:href="#a" id="b" cx="9" cy="5.028" r="8.25" fx="9" fy="3.84" gradientTransform="matrix(1.48212 0 0 1.48213 -4.34 -4.882)" gradientUnits="userSpaceOnUse"/>
<radialGradient xlink:href="#a" id="e" cx="9" cy="5.028" r="8.25" fx="9" fy="3.84" gradientTransform="matrix(1.48212 0 0 1.48213 -4.34 -4.882)" gradientUnits="userSpaceOnUse"/>
<radialGradient xlink:href="#a" id="d" cx="9" cy="5.028" r="8.25" fx="9" fy="3.84" gradientTransform="matrix(1.48212 0 0 1.48213 -4.34 -4.882)" gradientUnits="userSpaceOnUse"/>
<radialGradient xlink:href="#a" id="c" cx="9" cy="5.028" r="8.25" fx="9" fy="3.84" gradientTransform="matrix(1.48212 0 0 1.48213 -4.34 -4.882)" gradientUnits="userSpaceOnUse"/>
<linearGradient id="a">
<stop offset="0" style="stop-color:#1bc170;stop-opacity:1"/>
<stop offset="1" style="stop-color:#178951;stop-opacity:1"/>
</linearGradient>
</defs>
<g style="fill:url(#b);fill-opacity:1">
<g style="fill:url(#c);fill-opacity:1" transform="scale(1.33333)">
<g style="fill:url(#d);fill-opacity:1">
<path d="M9.07.75q-.808 0-1.617.051a1 1 0 0 1-.258.035 10 10 0 0 0-1.648.266q-3.492.831-4.406 4.3a14 14 0 0 0-.387 3.59q-.034 1.712.336 3.383c.578 2.477 2.113 3.992 4.594 4.543 1.351.277 2.714.383 4.089.309a11.7 11.7 0 0 0 3.575-.618q2.145-.784 3.101-2.859a9 9 0 0 0 .672-2.488q.204-1.845.086-3.696-.09-1.471-.566-2.867-.843-2.315-3.121-3.254a10.3 10.3 0 0 0-2.836-.636A22 22 0 0 0 9.07.75" style="fill:url(#e);fill-opacity:1;stroke:none"/>
</g>
</g>
</g>
<path d="M-5.583 5.048c-3.24 3.776-6.484 7.547-9.723 11.323-2.084-2.084-4.163-4.167-6.25-6.245a1440 1440 0 0 0-4.735 4.73c.057.318.114.64.188.958q.102.444.244.86c1.433-1.402 2.86-2.808 4.292-4.215 2.114 2.115 4.224 4.235 6.349 6.339q5.112-5.96 10.224-11.927c-.11-.432-.23-.864-.375-1.292a12 12 0 0 0-.214-.53z" style="fill:#fff;fill-opacity:1;fill-rule:nonzero;stroke:none;stroke-width:1.33333" transform="translate(27.556 .686)"/>
<path d="M-4.994 6.876c-.417.484-.661.776-1.65 1.922q-4.284 5-8.574 10c-2.125-2.104-4.235-4.224-6.35-6.339-1.431 1.407-2.858 2.813-4.291 4.215.912 2.79 2.87 4.53 5.88 5.197q2.703.557 5.453.412a15.6 15.6 0 0 0 4.767-.824q2.859-1.046 4.134-3.812.687-1.593.896-3.317.273-2.461.115-4.928a14.7 14.7 0 0 0-.38-2.526" style="fill:#000;fill-opacity:.235294;fill-rule:nonzero;stroke:none;stroke-width:1.33333" transform="translate(27.556 .686)"/>
</svg>
