<svg xmlns="http://www.w3.org/2000/svg" width="24" height="24" fill="none">
<path fill="url(#a)" fill-rule="evenodd" d="M9.596 1.114q.18.001.344-.046a32 32 0 0 1 4.307.011q1.951.153 3.78.847 3.038 1.25 4.158 4.34.64 1.86.756 3.824a28 28 0 0 1-.114 4.923 11.9 11.9 0 0 1-.894 3.32q-1.276 2.764-4.135 3.813a15.6 15.6 0 0 1-4.765.825 21.4 21.4 0 0 1-5.453-.412q-4.967-1.107-6.128-6.057a19 19 0 0 1-.447-4.511 18.5 18.5 0 0 1 .515-4.786q1.217-4.629 5.877-5.736a14 14 0 0 1 2.2-.355Z" clip-rule="evenodd"/>
<path fill="#FBBC05" d="M5.945 6.784a7.9 7.9 0 0 0-1.68 3.144 8 8 0 0 0-.261 1.879 7.82 7.82 0 0 0 1.94 5.405l1.643-2.211a5.25 5.25 0 0 1-.918-2.764q-.005-.127-.007-.25l.005-.148a5.3 5.3 0 0 1 .92-2.844z"/>
<path fill="#34A853" d="M6.96 13.761 4.8 15.47a8.03 8.03 0 0 0 7.192 4.528 8 8 0 0 0 1.864-.229l.032-.006.011-.002a9 9 0 0 0 .776-.231l.03-.009.004-.002a7.9 7.9 0 0 0 3.883-3.026l-2.561-1.015a5.3 5.3 0 0 1-1.348 1.121l-.047.028c-.383.22-.792.391-1.218.508l-.035.008a5.4 5.4 0 0 1-1.393.186 5.31 5.31 0 0 1-5.03-3.568"/>
<path fill="#4285F4" d="M11.999 10.665v2.664h5.165a5.3 5.3 0 0 1-2.29 3.164l2.159 1.709A7.99 7.99 0 0 0 20 11.996c0-.454-.047-.899-.12-1.332z"/>
<path fill="#EA4335" d="M11.992 4a8.01 8.01 0 0 0-7.191 4.527l2.16 1.71a5.31 5.31 0 0 1 5.031-3.572c1.367 0 2.605.51 3.544 1.348l1.875-1.875A7.96 7.96 0 0 0 11.992 4"/>
<defs>
<radialGradient id="a" cx="0" cy="0" r="1" gradientTransform="matrix(0 22 -22 0 12 1)" gradientUnits="userSpaceOnUse">
<stop stop-color="#FAFAFA"/>
<stop offset="1" stop-color="silver"/>
</radialGradient>
</defs>
</svg>
