<svg xmlns="http://www.w3.org/2000/svg" xml:space="preserve" width="24" height="24" viewBox="0 0 6.35 6.35">
<defs>
<linearGradient id="a" x1="12" x2="12" y1="1" y2="23" gradientTransform="scale(.26458)" gradientUnits="userSpaceOnUse" spreadMethod="pad">
<stop offset="0" style="stop-color:#262626;stop-opacity:1"/>
<stop offset="1" style="stop-color:#000;stop-opacity:1"/>
</linearGradient>
</defs>
<path d="M2.538.295A.3.3 0 0 0 2.63.283Q3.2.246 3.77.285a3.6 3.6 0 0 1 1 .225q.804.33 1.101 1.148.169.492.2 1.011.042.653-.03 1.304a3.2 3.2 0 0 1-.237.878q-.338.731-1.094 1.008a4.1 4.1 0 0 1-1.261.218 5.6 5.6 0 0 1-1.443-.109Q.691 5.677.385 4.366a5 5 0 0 1-.12-1.194 5 5 0 0 1 .137-1.266Q.724.682 1.957.389q.288-.071.581-.094" style="fill:url(#a);fill-rule:evenodd;stroke:none;stroke-width:.352771"/>
<g style="stroke-width:42.5644">
<path d="m485.39 356.79 230.07 307.62-231.52 250.11h52.11l202.7-218.98 163.77 218.98h177.32L836.82 589.6l215.5-232.81h-52.11L813.54 558.46 662.71 356.79Zm76.63 38.38h81.46l359.72 480.97h-81.46z" style="stroke-width:42.5644;fill:#fff" transform="translate(-1.685 -.776)scale(.00622)"/>
</g>
</svg>
