<svg xmlns="http://www.w3.org/2000/svg" xml:space="preserve" width="24" height="24" viewBox="0 0 6.35 6.35">
<defs>
<linearGradient id="a" x1="12" x2="12" y1="1" y2="23" gradientTransform="scale(.75)" gradientUnits="userSpaceOnUse" spreadMethod="pad">
<stop offset="0" style="stop-opacity:1;stop-color:#ff5f5f"/>
<stop offset="1" style="stop-opacity:1;stop-color:#e82e34"/>
</linearGradient>
</defs>
<path d="M7.195.836q.135 0 .258-.035a24 24 0 0 1 3.231.008 10.3 10.3 0 0 1 2.836.636q2.278.938 3.121 3.254.476 1.396.566 2.867a21 21 0 0 1-.086 3.696 9 9 0 0 1-.672 2.488q-.957 2.074-3.101 2.859a11.7 11.7 0 0 1-3.575.618 16 16 0 0 1-4.089-.309c-2.481-.551-4.016-2.066-4.594-4.543a14.2 14.2 0 0 1-.336-3.383q-.041-1.821.387-3.59.914-3.468 4.406-4.3A10 10 0 0 1 7.195.836" style="fill:url(#a);fill-rule:evenodd;stroke:none" transform="scale(.35277)"/>
<path fill="#fff" d="M2.196 4.384a1.3 1.3 0 0 1-.315-.102 1.23 1.23 0 0 1-.562-1.659c.345-.713 1.287-.895 1.854-.358.164.155.237.288.484.875.258.614.306.71.389.792.089.087.172.116.33.116.262 0 .448-.16.448-.386 0-.19-.067-.25-.408-.372-.52-.187-.688-.356-.689-.696 0-.182.047-.303.163-.428.168-.179.457-.238.713-.149.11.038.338.24.338.299 0 .028-.132.113-.206.134-.039.01-.072-.003-.117-.046-.09-.087-.152-.114-.26-.114-.188 0-.304.113-.304.295 0 .181.074.242.443.367.509.172.659.327.662.686a.68.68 0 0 1-.414.666c-.127.06-.17.067-.376.067-.295 0-.427-.055-.592-.24-.111-.126-.224-.36-.585-1.219-.15-.355-.342-.53-.662-.598a.9.9 0 0 0-.535.075 1 1 0 0 0-.38.4c-.063.126-.069.16-.069.38 0 .208.008.258.061.372.08.175.235.336.407.424.125.062.163.07.361.07.19 0 .24-.01.353-.063a1.1 1.1 0 0 0 .374-.335l.037-.06.073.166c.04.092.073.179.073.194 0 .046-.164.196-.315.29a1.15 1.15 0 0 1-.773.156m0 0" style="stroke-width:.468754"/>
</svg>
