<svg xmlns="http://www.w3.org/2000/svg" xmlns:xlink="http://www.w3.org/1999/xlink" xml:space="preserve" width="24" height="24" viewBox="0 0 6.35 6.35">
<defs>
<linearGradient id="c" x1="-91.306" x2="-91.306" y1="36.522" y2="26.407" gradientUnits="userSpaceOnUse" spreadMethod="pad">
<stop offset="0" style="stop-opacity:1;stop-color:#fff"/>
<stop offset="1" style="stop-opacity:0;stop-color:#fff"/>
</linearGradient>
<linearGradient id="a" x1="-91.306" x2="-91.306" y1="36.522" y2="26.407" gradientUnits="userSpaceOnUse" spreadMethod="pad">
<stop offset="0" style="stop-opacity:1;stop-color:#fff355"/>
<stop offset="1" style="stop-opacity:1;stop-color:#a49a00"/>
</linearGradient>
<linearGradient xlink:href="#a" id="v" x1="-91.306" x2="-91.306" y1="36.522" y2="26.407" gradientUnits="userSpaceOnUse" spreadMethod="pad"/>
<linearGradient xlink:href="#a" id="j" x1="-91.306" x2="-91.306" y1="36.522" y2="26.407" gradientUnits="userSpaceOnUse" spreadMethod="pad"/>
<linearGradient xlink:href="#a" id="m" x1="-91.306" x2="-91.306" y1="36.522" y2="26.407" gradientUnits="userSpaceOnUse" spreadMethod="pad"/>
<linearGradient xlink:href="#a" id="p" x1="-91.306" x2="-91.306" y1="36.522" y2="26.407" gradientUnits="userSpaceOnUse" spreadMethod="pad"/>
<linearGradient xlink:href="#a" id="s" x1="-91.306" x2="-91.306" y1="36.522" y2="26.407" gradientUnits="userSpaceOnUse" spreadMethod="pad"/>
<linearGradient id="x" x1="0" x2="0" y1="36.55" y2="10.12" gradientTransform="matrix(0 -.02435 -.02435 0 1.076 .544)" gradientUnits="userSpaceOnUse" spreadMethod="pad">
<stop offset="0" style="stop-opacity:1;stop-color:#f7891b"/>
<stop offset="1" style="stop-opacity:1;stop-color:#fbc969"/>
</linearGradient>
<linearGradient id="y" x1="0" x2="0" y1="34" y2="13.384" gradientTransform="translate(.022 -.512)scale(.40177)" gradientUnits="userSpaceOnUse" spreadMethod="pad">
<stop offset="0" style="stop-opacity:1;stop-color:#ee6708"/>
<stop offset="1" style="stop-opacity:1;stop-color:#f9aa2b"/>
</linearGradient>
<linearGradient id="z" x1="0" x2="0" y1="30.804" y2="17.09" gradientTransform="translate(.022 -.512)scale(.40177)" gradientUnits="userSpaceOnUse" spreadMethod="pad">
<stop offset="0" style="stop-opacity:1;stop-color:#ef4e06"/>
<stop offset="1" style="stop-opacity:1;stop-color:#f9841c"/>
</linearGradient>
<linearGradient id="A" x1="22.263" x2="22.366" y1="31.32" y2="15.89" gradientTransform="translate(.022 -.512)scale(.40177)" gradientUnits="userSpaceOnUse" spreadMethod="pad">
<stop offset="0" style="stop-opacity:1;stop-color:#fed9a5"/>
<stop offset="1" style="stop-opacity:1;stop-color:#fffdfb"/>
</linearGradient>
<clipPath id="h" clipPathUnits="userSpaceOnUse">
<path d="M5.273 12.059h.219c.098 0 .176.082.176.179v.727a.176.176 0 0 1-.176.176h-.219a.18.18 0 0 1-.179-.176v-.727c0-.097.082-.179.179-.179"/>
</clipPath>
<clipPath id="b" clipPathUnits="userSpaceOnUse">
<path d="M-97.54 25.423h11.346v22.691h-11.345z"/>
</clipPath>
<clipPath id="k" clipPathUnits="userSpaceOnUse">
<path d="M6.09 12.059h.219c.097 0 .175.082.175.179v.727a.175.175 0 0 1-.175.176H6.09a.177.177 0 0 1-.18-.176v-.727c0-.097.078-.179.18-.179"/>
</clipPath>
<clipPath id="d" clipPathUnits="userSpaceOnUse">
<path d="M-106.797 25.423h22.691v22.691h-22.69Z"/>
</clipPath>
<clipPath id="n" clipPathUnits="userSpaceOnUse">
<path d="M6.906 12.059h.219c.098 0 .176.082.176.179v.727a.176.176 0 0 1-.176.176h-.219a.176.176 0 0 1-.179-.176v-.727c0-.097.078-.179.179-.179"/>
</clipPath>
<clipPath id="e" clipPathUnits="userSpaceOnUse">
<path d="M-104.709 25.423h22.691v22.691h-22.69Z"/>
</clipPath>
<clipPath id="q" clipPathUnits="userSpaceOnUse">
<path d="M7.719 12.059h.222c.098 0 .176.082.176.179v.727a.176.176 0 0 1-.176.176h-.222a.176.176 0 0 1-.176-.176v-.727c0-.097.078-.179.176-.179"/>
</clipPath>
<clipPath id="f" clipPathUnits="userSpaceOnUse">
<path d="M-102.62 25.423h22.69v22.691h-22.69Z"/>
</clipPath>
<clipPath id="t" clipPathUnits="userSpaceOnUse">
<path d="M8.492 12.059a.13.13 0 0 1 .129.132v.817a.13.13 0 0 1-.129.133.13.13 0 0 1-.133-.133v-.817c0-.074.059-.132.133-.132"/>
</clipPath>
<clipPath id="g" clipPathUnits="userSpaceOnUse">
<path d="M-105.318 25.423h24.693v22.691h-24.693z"/>
</clipPath>
<mask id="i" width="1" height="1" x="0" y="0" maskUnits="userSpaceOnUse">
<g clip-path="url(#b)">
<path d="M-97.54 25.423h11.346v22.691h-11.345z" style="fill:url(#c);stroke:none"/>
</g>
</mask>
<mask id="l" width="1" height="1" x="0" y="0" maskUnits="userSpaceOnUse">
<g clip-path="url(#d)">
<path d="M-106.797 25.423h22.691v22.691h-22.69Z" style="fill:url(#c);stroke:none"/>
</g>
</mask>
<mask id="o" width="1" height="1" x="0" y="0" maskUnits="userSpaceOnUse">
<g clip-path="url(#e)">
<path d="M-104.709 25.423h22.691v22.691h-22.69Z" style="fill:url(#c);stroke:none"/>
</g>
</mask>
<mask id="r" width="1" height="1" x="0" y="0" maskUnits="userSpaceOnUse">
<g clip-path="url(#f)">
<path d="M-102.62 25.423h22.69v22.691h-22.69Z" style="fill:url(#c);stroke:none"/>
</g>
</mask>
<mask id="u" width="1" height="1" x="0" y="0" maskUnits="userSpaceOnUse">
<g clip-path="url(#g)">
<path d="M-105.318 25.423h24.693v22.691h-24.693z" style="fill:url(#c);stroke:none"/>
</g>
</mask>
<radialGradient id="w" cx="0" cy="0" r="1" fx="0" fy="0" gradientTransform="matrix(0 16.5 -16.5 0 9 .75)" gradientUnits="userSpaceOnUse" spreadMethod="pad">
<stop offset="0" style="stop-opacity:1;stop-color:#ff9b68"/>
<stop offset="1" style="stop-opacity:1;stop-color:#f25e0d"/>
</radialGradient>
</defs>
<g clip-path="url(#h)" style="fill:none" transform="translate(-6.605 -13.341)scale(.35277)">
<g mask="url(#i)" transform="translate(13.597 9.76)scale(.08814)">
<path d="M5.273 12.059h.219c.098 0 .176.082.176.179v.727a.176.176 0 0 1-.176.176h-.219a.18.18 0 0 1-.179-.176v-.727c0-.097.082-.179.179-.179" style="fill:url(#j);stroke:none"/>
</g>
</g>
<g clip-path="url(#k)" style="fill:none" transform="translate(-6.605 -13.341)scale(.35277)">
<g mask="url(#l)" transform="translate(14.413 9.76)scale(.08814)">
<path d="M6.09 12.059h.219c.097 0 .175.082.175.179v.727a.175.175 0 0 1-.175.176H6.09a.177.177 0 0 1-.18-.176v-.727c0-.097.078-.179.18-.179" style="fill:url(#m);stroke:none"/>
</g>
</g>
<g clip-path="url(#n)" style="fill:none" transform="translate(-6.605 -13.341)scale(.35277)">
<g mask="url(#o)" transform="translate(15.23 9.76)scale(.08814)">
<path d="M6.906 12.059h.219c.098 0 .176.082.176.179v.727a.176.176 0 0 1-.176.176h-.219a.176.176 0 0 1-.179-.176v-.727c0-.097.078-.179.179-.179" style="fill:url(#p);stroke:none"/>
</g>
</g>
<g clip-path="url(#q)" style="fill:none" transform="translate(-6.605 -13.341)scale(.35277)">
<g mask="url(#r)" transform="translate(16.045 9.76)scale(.08814)">
<path d="M7.719 12.059h.222c.098 0 .176.082.176.179v.727a.176.176 0 0 1-.176.176h-.222a.176.176 0 0 1-.176-.176v-.727c0-.097.078-.179.176-.179" style="fill:url(#s);stroke:none"/>
</g>
</g>
<g clip-path="url(#t)" style="fill:none" transform="translate(-6.605 -13.341)scale(.35277)">
<g mask="url(#u)" transform="matrix(.0405 0 0 .08814 12.265 9.76)">
<path d="M8.492 12.059a.13.13 0 0 1 .129.132v.817a.13.13 0 0 1-.129.133.13.13 0 0 1-.133-.133v-.817c0-.074.059-.132.133-.132" style="fill:url(#v);stroke:none"/>
</g>
</g>
<path d="M7.195.836q.135 0 .258-.035a24 24 0 0 1 3.231.008 10.3 10.3 0 0 1 2.836.636q2.278.938 3.121 3.254.476 1.396.566 2.867a21 21 0 0 1-.086 3.696 9 9 0 0 1-.672 2.488q-.957 2.074-3.101 2.859a11.7 11.7 0 0 1-3.575.618 16 16 0 0 1-4.089-.309c-2.481-.551-4.016-2.066-4.594-4.543a14.2 14.2 0 0 1-.336-3.383q-.041-1.821.387-3.59.914-3.468 4.406-4.3A10 10 0 0 1 7.195.836" style="fill:url(#w);fill-rule:evenodd;stroke:none" transform="scale(.35277)"/>
<path d="M14.445 9A5.444 5.444 0 0 1 9 14.445 5.444 5.444 0 0 1 3.555 9 5.444 5.444 0 0 1 9 3.555 5.444 5.444 0 0 1 14.445 9z" style="fill:url(#x);fill-opacity:1;fill-rule:nonzero;stroke:url(#google-music_svg__linearGradient14960);stroke-width:.358782;stroke-linecap:butt;stroke-linejoin:round;stroke-miterlimit:4;stroke-dasharray:none;stroke-opacity:1" transform="scale(.35277)"/>
<path d="M13.254 9.113a4.25 4.25 0 0 1-4.25 4.25 4.249 4.249 0 1 1 0-8.496 4.25 4.25 0 0 1 4.25 4.246" style="fill:url(#y);stroke:none" transform="scale(.35277)"/>
<path d="M11.758 9.18a2.826 2.826 0 0 1-2.824 2.824A2.826 2.826 0 0 1 6.109 9.18a2.827 2.827 0 0 1 2.825-2.825 2.826 2.826 0 0 1 2.824 2.825" style="fill:url(#z);stroke:none" transform="scale(.35277)"/>
<path d="M11.266 6.914c-.371-.551-1.036-.871-1.977-.949a2 2 0 0 0-.199-.012c-.473 0-.641.238-.641.442V9.93a1.5 1.5 0 0 0-.586-.047 1.36 1.36 0 0 0-.867.457c-.219.25-.312.558-.273.867.07.578.609 1.012 1.25 1.012.062 0 .121 0 .183-.012.664-.086 1.149-.613 1.149-1.258V7.48q.076-.006.148-.007c.586 0 1.125.246 1.559.711.179.191.304.382.379.507a.09.09 0 0 0 .089.043.09.09 0 0 0 .071-.07c.07-.391.129-1.137-.285-1.75" style="fill:url(#A);stroke:none" transform="scale(.35277)"/>
</svg>
