<svg xmlns="http://www.w3.org/2000/svg" xmlns:xlink="http://www.w3.org/1999/xlink" xml:space="preserve" width="24" height="24" fill="none">
<defs>
<clipPath id="c">
<path d="M60.71 107.316h337.173v247.086H60.71Zm0 0"/>
</clipPath>
<clipPath id="d">
<path d="M86.16 107.316h285.758c14.059 0 25.453 11.395 25.453 25.45v196.183c0 14.059-11.394 25.453-25.453 25.453H86.16c-14.055 0-25.45-11.394-25.45-25.453V132.766c0-14.055 11.395-25.45 25.45-25.45"/>
</clipPath>
<clipPath id="e">
<path d="M95.664 137.898h266.75v185.918H95.664Zm0 0"/>
</clipPath>
<linearGradient id="a">
<stop offset="0" style="stop-color:#535353;stop-opacity:1"/>
<stop offset="1" style="stop-color:#a6a6a6;stop-opacity:1"/>
</linearGradient>
<linearGradient xlink:href="#a" id="b" x1="52.797" x2="50.808" y1="97.092" y2="-13.554" gradientTransform="translate(-.222 -.222)scale(.24444)" gradientUnits="userSpaceOnUse"/>
</defs>
<path d="M12 1C2 1 1 6 1 12c0 8 3 11 11 11s11-3 11-11c0-6-1-11-11-11" style="font-variation-settings:normal;display:inline;opacity:1;vector-effect:none;fill:url(#b);fill-opacity:1;stroke-width:1.11627;stroke-linecap:butt;stroke-linejoin:miter;stroke-miterlimit:4;stroke-dasharray:none;stroke-dashoffset:0;stroke-opacity:1;-inkscape-stroke:none;stop-color:#000;stop-opacity:1"/>
<g clip-path="url(#c)" transform="translate(3.001 2.831)scale(.03294)">
<g clip-path="url(#d)">
<path fill="#fff" d="M60.71 107.316h336.528v247.086H60.711Zm0 0"/>
</g>
</g>
<g clip-path="url(#e)" transform="translate(3.001 2.831)scale(.03294)">
<path fill="#313539" d="M95.664 137.898H362.7V323.86H95.664Zm0 0"/>
</g>
<path stroke="#fff" stroke-linecap="round" stroke-width=".937" d="M7.878 15.654h9.297"/>
<path stroke="#fff" stroke-linecap="round" stroke-width=".938" d="M17.168 15.562v-7.25"/>
<path stroke="#fff" stroke-linecap="round" stroke-width=".937" d="M9.237 17.164h9.296"/>
<path stroke="#fff" stroke-linecap="round" stroke-width=".938" d="M18.527 17.072v-7.25"/>
</svg>
