<svg xmlns="http://www.w3.org/2000/svg" xml:space="preserve" width="24" height="24" viewBox="0 0 6.35 6.35">
<defs>
<radialGradient id="a" cx="0" cy="0" r="1" gradientTransform="rotate(90 1.455 1.72)scale(5.82072)" gradientUnits="userSpaceOnUse">
<stop stop-color="#FAFAFA"/>
<stop offset="1" stop-color="#B0B0B0"/>
</radialGradient>
</defs>
<path fill="url(#a)" fill-rule="evenodd" d="M2.63.283a.3.3 0 0 1-.091.012q-.295.023-.582.094Q.724.681.402 1.906q-.15.624-.136 1.266-.012.605.118 1.194.307 1.31 1.621 1.603.715.146 1.443.108.648-.01 1.26-.218a1.87 1.87 0 0 0 1.095-1.008q.182-.421.236-.879a7.3 7.3 0 0 0 .03-1.302 3.8 3.8 0 0 0-.2-1.012A1.89 1.89 0 0 0 4.77.51a3.6 3.6 0 0 0-1-.224A8 8 0 0 0 2.63.283" clip-rule="evenodd" style="fill:url(#a);stroke-width:.264578"/>
<path d="M3.175 1.058a2.117 2.117 0 0 0-2.117 2.117 2.117 2.117 0 0 0 2.117 2.117 2.117 2.117 0 0 0 2.117-2.117 2.117 2.117 0 0 0-2.117-2.117m0 1.448a.67.67 0 0 1 .67.669.67.67 0 0 1-.67.67.67.67 0 0 1-.67-.67.67.67 0 0 1 .67-.67z" style="fill:#848383;fill-opacity:1;stroke-width:.263741;stroke-linecap:round;stroke-linejoin:round;stroke-dashoffset:1.89038;stroke-opacity:.05;paint-order:stroke markers fill;stroke:#000"/>
<path d="M3.175 1.195a1.98 1.98 0 0 0-1.98 1.98 1.98 1.98 0 0 0 1.98 1.98 1.98 1.98 0 0 0 1.98-1.98 1.98 1.98 0 0 0-1.98-1.98m0 1.31a.67.67 0 0 1 .67.67.67.67 0 0 1-.67.67.67.67 0 0 1-.67-.67.67.67 0 0 1 .67-.67" style="opacity:.342291;fill:#848383;fill-opacity:1;stroke-width:.246725;stroke-linecap:round;stroke-linejoin:round;stroke-dashoffset:1.89038;stroke-opacity:.15;paint-order:stroke markers fill"/>
<path d="m1.195 3.197.005.126a2 2 0 0 0 .017.147 2 2 0 0 0 .027.145 2 2 0 0 0 .039.144 2 2 0 0 0 .049.14 2 2 0 0 0 .059.135 2 2 0 0 0 .07.131 2 2 0 0 0 .078.125 2 2 0 0 0 .088.12 2 2 0 0 0 .097.112 2 2 0 0 0 .104.105 2 2 0 0 0 .112.096 2 2 0 0 0 .12.088 2 2 0 0 0 .125.079 2 2 0 0 0 .13.069 2 2 0 0 0 .136.059 2 2 0 0 0 .14.049 2 2 0 0 0 .143.039 2 2 0 0 0 .146.027 2 2 0 0 0 .147.016 2 2 0 0 0 .148.006h.006V3.844h-.006l-.087-.006-.086-.017-.083-.028-.079-.039-.072-.048-.066-.058-.058-.066-.048-.072-.039-.079-.028-.083-.017-.085-.004-.066z" style="fill:#d9d6d3;fill-opacity:1;stroke-width:.265159;stroke-linecap:round;stroke-linejoin:round;stroke-dashoffset:1.89038;stroke-opacity:.15;paint-order:stroke markers fill"/>
<path d="M3.18 5.155a2 2 0 0 0 .177-.008 2 2 0 0 0 .182-.025 2 2 0 0 0 .178-.043 2 2 0 0 0 .173-.058 2 2 0 0 0 .167-.074 2 2 0 0 0 .16-.089 2 2 0 0 0 .151-.103 2 2 0 0 0 .14-.117l.056-.055-.926-.926a1 1 0 0 1-.07.06 1 1 0 0 1-.09.054 1 1 0 0 1-.096.04 1 1 0 0 1-.102.025 1 1 0 0 1-.1.008z" style="fill:#f26c57;fill-opacity:1;stroke-width:.265159;stroke-linecap:round;stroke-linejoin:round;stroke-dashoffset:1.89038;stroke-opacity:.15;paint-order:stroke markers fill"/>
<path d="m1.767 1.784-.044.044a2 2 0 0 0-.096.112 2 2 0 0 0-.088.12 2 2 0 0 0-.079.125 2 2 0 0 0-.07.13 2 2 0 0 0-.059.137 2 2 0 0 0-.048.14 2 2 0 0 0-.039.143 2 2 0 0 0-.027.145 2 2 0 0 0-.017.147 2 2 0 0 0-.005.148v.023h1.312l-.001-.023.006-.088.017-.085.028-.083.039-.078.048-.074.05-.056z" style="fill:#f9ab55;fill-opacity:1;stroke-width:.265159;stroke-linecap:round;stroke-linejoin:round;stroke-dashoffset:1.89038;stroke-opacity:.15;paint-order:stroke markers fill"/>
<path d="m4.565 4.585.01-.01a2 2 0 0 0 .13-.144 2 2 0 0 0 .116-.156 2 2 0 0 0 .1-.167 2 2 0 0 0 .083-.175 2 2 0 0 0 .066-.183 2 2 0 0 0 .047-.189 2 2 0 0 0 .028-.192 2 2 0 0 0 .01-.194 2 2 0 0 0-.01-.194 2 2 0 0 0-.028-.192A2 2 0 0 0 5.07 2.6a2 2 0 0 0-.066-.183 2 2 0 0 0-.083-.175 2 2 0 0 0-.1-.167 2 2 0 0 0-.115-.156 2 2 0 0 0-.13-.144 2 2 0 0 0-.145-.13 2 2 0 0 0-.156-.116 2 2 0 0 0-.167-.1 2 2 0 0 0-.175-.083 2 2 0 0 0-.183-.066 2 2 0 0 0-.189-.047 2 2 0 0 0-.192-.028 2 2 0 0 0-.194-.01 2 2 0 0 0-.194.01 2 2 0 0 0-.192.028 2 2 0 0 0-.189.047 2 2 0 0 0-.183.066 2 2 0 0 0-.175.083 2 2 0 0 0-.167.1 2 2 0 0 0-.156.116 2 2 0 0 0-.144.13l-.01.01.929.928.051-.05a1 1 0 0 1 .095-.068 1 1 0 0 1 .106-.049 1 1 0 0 1 .113-.03 1 1 0 0 1 .116-.01 1 1 0 0 1 .116.01 1 1 0 0 1 .113.03 1 1 0 0 1 .105.05 1 1 0 0 1 .096.066 1 1 0 0 1 .083.083 1 1 0 0 1 .067.096 1 1 0 0 1 .049.105 1 1 0 0 1 .03.113 1 1 0 0 1 .01.116 1 1 0 0 1-.01.116 1 1 0 0 1-.03.113 1 1 0 0 1-.05.106 1 1 0 0 1-.066.095l-.051.051z" style="fill:#97cd78;fill-opacity:1;stroke-width:.527828;stroke-linecap:round;stroke-linejoin:round;stroke-dashoffset:1.89038;stroke-opacity:.15;paint-order:stroke markers fill"/>
<path d="M3.175 2.383a.79.79 0 0 0-.792.792.79.79 0 0 0 .792.792.79.79 0 0 0 .792-.792.79.79 0 0 0-.792-.792m0 .123a.67.67 0 0 1 .67.669.67.67 0 0 1-.67.67.67.67 0 0 1-.67-.67.67.67 0 0 1 .67-.67z" style="fill:#848383;fill-opacity:1;stroke-width:.09869;stroke-linecap:round;stroke-linejoin:round;stroke-dashoffset:1.89038;stroke-opacity:.15;paint-order:stroke markers fill"/>
</svg>
