<svg xmlns="http://www.w3.org/2000/svg" xmlns:xlink="http://www.w3.org/1999/xlink" xml:space="preserve" width="24" height="24" viewBox="0 0 6.35 6.35">
<defs>
<linearGradient xlink:href="#a" id="i" x1="10.583" x2="225.69" y1="-184.68" y2="-184.68" gradientTransform="translate(12.078 102.06)scale(.11417)" gradientUnits="userSpaceOnUse"/>
<linearGradient id="a" x1="10.583" x2="225.69" y1="-184.68" y2="-184.68" gradientTransform="translate(18.557 59.5)scale(.11417)" gradientUnits="userSpaceOnUse">
<stop offset="0" stop-color="#fafbfb"/>
<stop offset="1" stop-color="#fafbfb" stop-opacity="0"/>
</linearGradient>
<linearGradient xlink:href="#b" id="j" x1="520" x2="410" y1="-620" y2="-620" gradientTransform="translate(12.078 102.06)scale(.0302)" gradientUnits="userSpaceOnUse"/>
<linearGradient id="b" x1="520" x2="410" y1="-620" y2="-620" gradientTransform="translate(18.557 59.5)scale(.0302)" gradientUnits="userSpaceOnUse">
<stop offset="0"/>
<stop offset="1" stop-opacity="0"/>
</linearGradient>
<linearGradient id="h" x1="-240.47" x2="-240.47" y1="-60.605" y2="-29.026" gradientTransform="matrix(.18118 0 0 .17805 52.192 15.631)" gradientUnits="userSpaceOnUse" spreadMethod="pad">
<stop offset="0" style="stop-opacity:1;stop-color:#64be7b"/>
<stop offset="1" style="stop-opacity:1;stop-color:#82d598"/>
</linearGradient>
<linearGradient id="d" x1="10.583" x2="225.69" y1="-184.68" y2="-184.68" gradientUnits="userSpaceOnUse" spreadMethod="pad">
<stop offset="0" style="stop-opacity:1;stop-color:#fff"/>
<stop offset="1" style="stop-opacity:0;stop-color:#fff"/>
</linearGradient>
<linearGradient id="m" x1="10.583" x2="225.69" y1="-184.68" y2="-184.68" gradientUnits="userSpaceOnUse" spreadMethod="pad">
<stop offset="0" style="stop-opacity:1;stop-color:#fafbfb"/>
<stop offset="1" style="stop-opacity:1;stop-color:#fafbfb"/>
</linearGradient>
<linearGradient id="f" x1="520" x2="410" y1="-620" y2="-620" gradientUnits="userSpaceOnUse" spreadMethod="pad">
<stop offset="0" style="stop-opacity:1;stop-color:#fff"/>
<stop offset="1" style="stop-opacity:0;stop-color:#fff"/>
</linearGradient>
<linearGradient id="q" x1="520" x2="410" y1="-620" y2="-620" gradientUnits="userSpaceOnUse" spreadMethod="pad">
<stop offset="0" style="stop-opacity:1;stop-color:#000"/>
<stop offset="1" style="stop-opacity:1;stop-color:#000"/>
</linearGradient>
<clipPath id="k" clipPathUnits="userSpaceOnUse">
<path d="m6.707 11.402.703-2.468 3.902 2.468Z"/>
</clipPath>
<clipPath id="c" clipPathUnits="userSpaceOnUse">
<path d="M-22.543-286.093h280.476V-99.11H-22.543Z"/>
</clipPath>
<clipPath id="n" clipPathUnits="userSpaceOnUse">
<path d="M0 0h19v19H0Z"/>
</clipPath>
<clipPath id="o" clipPathUnits="userSpaceOnUse">
<path d="M9.199 10.066v1.336h.227v-1.191z"/>
</clipPath>
<clipPath id="e" clipPathUnits="userSpaceOnUse">
<path d="M444.942-728.122h176.722v353.444H444.942Z"/>
</clipPath>
<mask id="l" width="1" height="1" x="0" y="0" maskUnits="userSpaceOnUse">
<g clip-path="url(#c)">
<path d="M-22.543-286.093h280.476V-99.11H-22.543Z" style="fill:url(#d);stroke:none"/>
</g>
</mask>
<mask id="p" width="1" height="1" x="0" y="0" maskUnits="userSpaceOnUse">
<g clip-path="url(#e)">
<path d="M444.942-728.122h176.722v353.444H444.942Z" style="fill:url(#f);stroke:none"/>
</g>
</mask>
<radialGradient id="g" cx="0" cy="0" r="1" fx="0" fy="0" gradientTransform="rotate(90 1.455 1.72)scale(5.82072)" gradientUnits="userSpaceOnUse" spreadMethod="pad">
<stop offset="0" style="stop-opacity:1;stop-color:#a4a4a4"/>
<stop offset="1" style="stop-opacity:1;stop-color:#626262"/>
</radialGradient>
</defs>
<path d="M2.538.295A.3.3 0 0 0 2.63.283Q3.2.246 3.77.285a3.6 3.6 0 0 1 1 .225q.804.33 1.101 1.148.169.492.2 1.011.042.653-.03 1.304a3.2 3.2 0 0 1-.237.878q-.338.731-1.094 1.008a4.1 4.1 0 0 1-1.261.218 5.6 5.6 0 0 1-1.443-.109Q.691 5.677.385 4.366a5 5 0 0 1-.12-1.194 5 5 0 0 1 .137-1.266Q.724.682 1.957.389q.288-.071.581-.094" style="fill:url(#g);fill-rule:evenodd;stroke:none;stroke-width:.35277"/>
<path fill="#b3b3b3" d="m3.175 3.633-.61.458c0 .534-.077.534-.458.763l1.068.076 1.068-.076c-.381-.229-.457-.229-.457-.763Z" style="stroke-width:.130027"/>
<path fill="#ccc" d="M2.107 4.854v.153h2.136v-.153Z" style="stroke-width:.130027"/>
<rect width="3.969" height="2.655" x="1.191" y="1.438" fill="#303030" rx=".311" ry=".311" style="stroke-width:.12783"/>
<path d="M4.312 4.277h9.376a.74.74 0 0 1 .746.739v5.648a.74.74 0 0 1-.746.734H4.312a.74.74 0 0 1-.746-.734V5.016a.74.74 0 0 1 .746-.739" style="fill:url(#h);stroke:none" transform="translate(0 .005)scale(.35277)"/>
<path fill="#1a1a1a" d="m2.686 3.783.959-1.038.798 1.038z"/>
<path fill="#e6e6e6" d="m2.614 3.152-1.26.81a.27.27 0 0 0 .169.06H3.99z" opacity=".9"/>
<path fill="#fafbfb" d="m2.367 4.023.247-.87 1.376.87z"/>
<path fill="#b0b2b5" d="m3.645 2.665-.32.34v1.018h1.503a.27.27 0 0 0 .185-.075z"/>
<path fill="#fff" d="m3.644 2.665.4 1.358h.784a.27.27 0 0 0 .185-.075z"/>
<path fill="url(#a)" d="m13.287 87.56 3.746-13.172L37.847 87.56z" style="fill:url(#i)" transform="translate(1.488 -1.765)scale(.0661)"/>
<path fill="url(#b)" d="M26.578 80.43v7.13h1.208v-6.366z" opacity=".35" style="fill:url(#j)" transform="translate(1.488 -1.765)scale(.0661)"/>
<g fill="#f9f9f9">
<path d="m3.915 2.173-.338.225c-.01.073-.025.146 0 .226l.338.225Z" style="stroke-width:.213123" transform="translate(-.486 -.4)scale(1.15033)"/>
<path d="M2.505 2.06a.056.056 0 0 0-.056.056v.79c0 .031.025.056.056.056h1.016a.056.056 0 0 0 .056-.056v-.79a.056.056 0 0 0-.056-.056zm.508.17a.28.28 0 0 1 .282.281.28.28 0 0 1-.282.282.28.28 0 0 1-.282-.282.28.28 0 0 1 .282-.282z" style="stroke-width:.213123" transform="translate(-.486 -.4)scale(1.15033)"/>
</g>
<g clip-path="url(#k)" transform="translate(-10.874 2.579)scale(.35277)">
<g mask="url(#l)" transform="translate(6.482 14.12)scale(.0214)">
<path d="m6.707 11.402.703-2.468 3.902 2.468Z" style="fill:url(#m);stroke:none"/>
</g>
</g>
<g clip-path="url(#n)" opacity=".35" transform="translate(-10.874 2.579)scale(.35277)">
<g clip-path="url(#o)">
<g mask="url(#p)" transform="translate(6.482 14.12)scale(.00566)">
<path d="M9.199 10.066v1.336h.227v-1.191z" style="fill:url(#q);stroke:none"/>
</g>
</g>
</g>
</svg>
