<svg xmlns="http://www.w3.org/2000/svg" xmlns:xlink="http://www.w3.org/1999/xlink" width="24" height="24" viewBox="0 0 6.35 6.35">
<defs>
<radialGradient id="a" cx="0" cy="0" r="1" fx="0" fy="0" gradientTransform="matrix(0 16.5 -16.5 0 9 .75)" gradientUnits="userSpaceOnUse" spreadMethod="pad">
<stop offset="0" style="stop-opacity:1;stop-color:#fafafa"/>
<stop offset="1" style="stop-opacity:1;stop-color:silver"/>
</radialGradient>
<radialGradient xlink:href="#a" id="b" cx="0" cy="0" r="1" fx="0" fy="0" gradientTransform="matrix(0 16.5 -16.5 0 9 .75)" gradientUnits="userSpaceOnUse" spreadMethod="pad"/>
</defs>
<path d="M-7.384.265a8 8 0 0 0-.57.018.3.3 0 0 1-.09.012 3.6 3.6 0 0 0-.582.094q-1.232.293-1.555 1.517-.15.626-.137 1.266-.011.604.12 1.194.306 1.31 1.62 1.602a5.6 5.6 0 0 0 1.442.109 4.1 4.1 0 0 0 1.262-.218q.756-.277 1.094-1.008.18-.422.237-.878.071-.65.03-1.304a4 4 0 0 0-.2-1.011A1.9 1.9 0 0 0-5.814.51a3.6 3.6 0 0 0-1-.225q-.285-.02-.57-.02" style="fill:#f66;fill-opacity:1;stroke-width:1;paint-order:stroke markers fill" transform="translate(10.583)"/>
<path d="m-4.538 2.408-2.87.769v2.907q.135 0 .272-.007a4.1 4.1 0 0 0 1.262-.218q.756-.277 1.094-1.008.18-.422.237-.878.071-.65.03-1.304a4 4 0 0 0-.025-.26z" style="fill:#89d356;fill-opacity:1;stroke-width:.26458;paint-order:stroke fill markers" transform="translate(10.583)"/>
<path d="M-10.275 2.41a5 5 0 0 0-.043.762q-.011.604.12 1.194.306 1.31 1.62 1.602.58.12 1.17.116V3.177Z" style="fill:#6f96ec;fill-opacity:1;stroke-width:1;paint-order:stroke fill markers" transform="translate(10.583)"/>
<g style="opacity:.15;stroke-width:1.13863">
<g style="stroke-width:1.13863">
<path d="M7.195.836q.135 0 .258-.035a24 24 0 0 1 3.231.008 10.3 10.3 0 0 1 2.836.636q2.278.938 3.121 3.254.476 1.396.566 2.867a21 21 0 0 1-.086 3.696 9 9 0 0 1-.672 2.488q-.957 2.074-3.101 2.859a11.7 11.7 0 0 1-3.575.618 16 16 0 0 1-4.089-.309c-2.481-.551-4.016-2.066-4.594-4.543a14.2 14.2 0 0 1-.336-3.383q-.041-1.818.387-3.59.914-3.468 4.406-4.3A10 10 0 0 1 7.195.836" style="fill:url(#b);fill-rule:evenodd;stroke:none;stroke-width:1.13863" transform="translate(.387 .387)scale(.30982)"/>
</g>
</g>
<path fill="#fff" d="m3.76 2.879-.115.592h.506v.246h-.55l-.158.78h-.26l.158-.78h-.535l-.144.78h-.26l.144-.78h-.478v-.246h.52l.117-.592h-.492v-.246h.535l.159-.781h.26l-.144.78h.52l.16-.78h.26l-.159.78h.478v.247Zm-.91.592h.535L3.5 2.88h-.535Z" aria-label="#" style="stroke-width:1"/>
</svg>
