<svg xmlns="http://www.w3.org/2000/svg" width="24" height="24">
<defs>
<radialGradient id="a" cx="0" cy="0" r="1" gradientTransform="matrix(0 22 -22 0 12 1)" gradientUnits="userSpaceOnUse">
<stop stop-color="#FAFAFA"/>
<stop offset="1" stop-color="#B0B0B0"/>
</radialGradient>
</defs>
<path fill="url(#a)" fill-rule="evenodd" d="M9.94 1.068q-.164.048-.344.046-1.114.09-2.2.355Q2.738 2.576 1.52 7.205a18.5 18.5 0 0 0-.515 4.786q-.046 2.283.447 4.51 1.16 4.95 6.128 6.058 2.7.555 5.452.412a15.6 15.6 0 0 0 4.766-.825q2.859-1.05 4.135-3.812a11.9 11.9 0 0 0 .893-3.32q.276-2.457.115-4.924a14.3 14.3 0 0 0-.756-3.824q-1.12-3.09-4.158-4.34a13.5 13.5 0 0 0-3.78-.847 32 32 0 0 0-4.307-.011" clip-rule="evenodd" style="fill:url(#a);stroke-width:1"/>
<rect width="10.278" height="10.278" x="4.5" y="9.222" fill="#f9f9f9" rx="1.666" ry="1.666" style="stroke-width:1.04991;paint-order:stroke markers fill"/>
<path fill="#5e5c64" d="M9.273 14.282a26 26 0 0 0 .336-1.229h.027c.112.406.22.838.342 1.23l.118.41h-.941Zm-1.369 1.961h.802l.278-.965h1.283l.278.965h.828l-1.272-3.764h-.93Z" aria-label="A"/>
<rect width="10.278" height="10.278" x="9.222" y="4.5" fill="#498cd8" paint-order="stroke markers fill" rx="1.666" ry="1.666" style="stroke-width:1.04991;fill:#498cd8;fill-opacity:.85000002"/>
<path fill="#fff" d="M15.196 11.147h.826v-.328h.339v.81h-1.813v-.506q.386-.084.584-.482t.198-1.094q0-.772-.248-1.175-.247-.406-.722-.406t-.722.406q-.245.403-.245 1.18 0 .684.2 1.087.2.4.582.484v.505h-1.816v-.809h.336v.328h.829q-.586-.241-.888-.66-.302-.421-.302-.997 0-.828.554-1.333.557-.508 1.472-.508t1.472.508q.556.506.556 1.332 0 .577-.301.998-.302.419-.891.66" aria-label="ð›€"/>
<path fill="#33d17a" d="m10.751 9.378.206.63 1.436-1.582-2.087-.663.122.583c-2.06 1.037-2.274 1.946-2.558 2.859l1.112.197c.263-1.11.955-1.676 1.769-2.024m2.498 5.244-.206-.63-1.436 1.582 2.087.663-.122-.583c2.06-1.037 2.274-1.946 2.558-2.859l-1.112-.197c-.263 1.11-.955 1.676-1.769 2.024" style="stroke-width:.999997"/>
</svg>
