<svg xmlns="http://www.w3.org/2000/svg" width="24" height="24" version="1">
<defs>
<radialGradient id="a" cx="0" cy="0" r="1" gradientTransform="rotate(155.136 9.533 3.827)scale(20.7114)" gradientUnits="userSpaceOnUse">
<stop stop-color="#777"/>
<stop offset="1" stop-color="#333"/>
</radialGradient>
</defs>
<path fill="url(#a)" fill-rule="evenodd" d="M1 11.563v.003q0 .212.005.425-.046 2.282.447 4.51 1.16 4.95 6.128 6.057A21.4 21.4 0 0 0 11.9 23h.012q.56 0 1.12-.03a15.6 15.6 0 0 0 4.766-.824q2.859-1.049 4.135-3.812a11.9 11.9 0 0 0 .894-3.32q.274-2.457.114-4.924a14.3 14.3 0 0 0-.756-3.824q-1.12-3.09-4.158-4.34a13.5 13.5 0 0 0-3.78-.847 32 32 0 0 0-4.307-.011q-.165.048-.344.046-1.114.09-2.2.355Q2.738 2.576 1.52 7.205A18.5 18.5 0 0 0 1 11.563" clip-rule="evenodd" style="fill:url(#a)"/>
<g fill="#4f4f4f" style="stroke-width:3.84615" transform="matrix(.26 0 0 .26 4.2 3.68)">
<rect width="52" height="32" x="4" y="25" rx="4" ry="4" style="stroke-width:3.84615"/>
<rect width="52" height="18" x="4" y="7" rx="4" ry="4" style="stroke-width:3.84615"/>
</g>
<path fill="#e4e4e4" d="M8.88 11.22a3.12 3.12 0 0 0-3.12 3.12 3.12 3.12 0 0 0 3.12 3.12A3.12 3.12 0 0 0 12 14.34a3.12 3.12 0 0 0-3.12-3.12m0 1.82a1.3 1.3 0 0 1 1.3 1.3 1.3 1.3 0 0 1-1.3 1.3 1.3 1.3 0 0 1-1.3-1.3 1.3 1.3 0 0 1 1.3-1.3" style="stroke-width:.999999"/>
<rect width="12.48" height="3.64" x="5.76" y="6.02" fill="#63a535" rx=".52" ry=".52" style="stroke-width:.999999"/>
<circle cx="7.58" cy="7.84" r=".78" fill="#4f4f4f" style="stroke-width:.999999"/>
<rect width="1.56" height="1.56" x="15.64" y="7.06" fill="#983a0e" rx=".78" ry=".78" style="stroke-width:.999999"/>
<rect width=".52" height=".52" x="16.16" y="7.58" fill="#f7bf32" rx=".26" ry=".26" style="stroke-width:.999999"/>
<circle cx="9.66" cy="7.84" r=".78" fill="#4f4f4f" style="stroke-width:.999999"/>
<circle cx="11.74" cy="7.84" r=".78" fill="#4f4f4f" style="stroke-width:.999999"/>
<path fill="#e4e4e4" d="M15.12 11.22A3.12 3.12 0 0 0 12 14.34a3.12 3.12 0 0 0 3.12 3.12 3.12 3.12 0 0 0 3.12-3.12 3.12 3.12 0 0 0-3.12-3.12m0 1.82a1.3 1.3 0 0 1 1.3 1.3 1.3 1.3 0 0 1-1.3 1.3 1.3 1.3 0 0 1-1.3-1.3 1.3 1.3 0 0 1 1.3-1.3" style="stroke-width:.999999"/>
</svg>
