<svg xmlns="http://www.w3.org/2000/svg" width="24" height="24" fill="none">
<path fill="url(#a)" fill-rule="evenodd" d="M1 11.573q0 .209.005.418-.046 2.282.447 4.51 1.16 4.95 6.128 6.057 2.7.555 5.453.413a15.6 15.6 0 0 0 4.765-.825q2.859-1.049 4.135-3.812a11.9 11.9 0 0 0 .893-3.32q.276-2.457.115-4.924a14.3 14.3 0 0 0-.756-3.824q-1.12-3.09-4.158-4.34a13.5 13.5 0 0 0-3.78-.847 32 32 0 0 0-4.307-.011q-.165.048-.344.046-1.114.09-2.2.355Q2.738 2.576 1.52 7.205A18.5 18.5 0 0 0 1 11.573" clip-rule="evenodd"/>
<path fill="#F9F9F9" fill-rule="evenodd" d="M22.965 13.303q-.043.855-.139 1.71a11.9 11.9 0 0 1-.893 3.32q-1.276 2.765-4.135 3.813a15.6 15.6 0 0 1-4.765.825q-1.12.058-2.23 0a7.8 7.8 0 0 1-.8-3.453c0-4.374 3.583-7.92 8.002-7.92a8.02 8.02 0 0 1 4.96 1.705" clip-rule="evenodd"/>
<path fill="#fff" d="M12.003 4.667c-1.857 0-3.637.73-4.95 2.03a6.9 6.9 0 0 0-2.051 4.9c0 1.837.737 3.6 2.05 4.9a7.04 7.04 0 0 0 4.951 2.03c1.857 0 3.638-.73 4.951-2.03a6.9 6.9 0 0 0 2.051-4.9 6.9 6.9 0 0 0-2.05-4.9 7.04 7.04 0 0 0-4.952-2.03M9.002 8.63a1 1 0 0 1 .747.267 1 1 0 0 1 .316.723.98.98 0 0 1-.316.722 1 1 0 0 1-.747.268 1 1 0 0 1-.669-.31.986.986 0 0 1 0-1.36c.175-.183.414-.294.669-.31m6.001 0a1 1 0 0 1 .748.267 1 1 0 0 1 .316.723.98.98 0 0 1-.316.722 1 1 0 0 1-.748.268 1 1 0 0 1-.668-.31.986.986 0 0 1 0-1.36c.175-.183.414-.294.668-.31m-5.828 4.78a4.02 4.02 0 0 0 2.827 1.16 4.02 4.02 0 0 0 2.827-1.16l.707.7a5.04 5.04 0 0 1-3.535 1.452 5.03 5.03 0 0 1-3.532-1.452z" opacity=".35"/>
<path fill="#000" fill-rule="evenodd" d="M22.153 17.787a12 12 0 0 1-.22.547q-1.276 2.763-4.135 3.812-1.385.468-2.817.671a4.42 4.42 0 0 1-1.477-3.3c0-2.46 2.015-4.454 4.501-4.454a4.5 4.5 0 0 1 4.148 2.724" clip-rule="evenodd" opacity=".75"/>
<path fill="#E91E63" fill-rule="evenodd" d="M21.488 19.168q-1.285 2.096-3.69 2.978-.725.246-1.463.418a3.46 3.46 0 0 1-1.83-3.046c0-1.914 1.567-3.465 3.5-3.465 1.814 0 3.306 1.365 3.483 3.115" clip-rule="evenodd"/>
<path fill="#fff" d="M19.773 17.767a2.5 2.5 0 0 0-1.768-.724c-.663 0-1.298.26-1.767.724l1.767 1.749 1.768-1.75Z" opacity=".2"/>
<path fill="#fff" fill-rule="evenodd" d="M20.17 20.75q-.241.216-.505.409l-1.66-1.643 1.768-1.75a2.46 2.46 0 0 1 .398 2.985Zm-2.165-1.234-1.767 1.75a2.46 2.46 0 0 1-.732-1.75c0-.656.263-1.285.732-1.75z" clip-rule="evenodd" opacity=".4"/>
<path fill="#fff" fill-rule="evenodd" d="M19.664 21.16a7.4 7.4 0 0 1-1.454.823 2.51 2.51 0 0 1-1.972-.716l1.767-1.75z" clip-rule="evenodd" opacity=".6"/>
<defs>
<linearGradient id="a" x1="12" x2="12" y1="1" y2="12" gradientUnits="userSpaceOnUse">
<stop stop-color="#EEA5FF"/>
<stop offset="1" stop-color="#A159B2"/>
</linearGradient>
</defs>
</svg>
