<svg xmlns="http://www.w3.org/2000/svg" width="24" height="24" fill="none">
<path fill="#37474F" fill-rule="evenodd" d="M9.596 1.114q.18.001.344-.046a32 32 0 0 1 4.307.011q1.951.153 3.78.848 3.038 1.25 4.158 4.339.64 1.86.756 3.824a28 28 0 0 1-.114 4.923 11.9 11.9 0 0 1-.894 3.32q-1.276 2.764-4.135 3.813a15.6 15.6 0 0 1-4.765.825 21.4 21.4 0 0 1-5.453-.413q-4.967-1.106-6.128-6.056a19 19 0 0 1-.447-4.511 18.5 18.5 0 0 1 .515-4.786q1.217-4.629 5.877-5.736a14 14 0 0 1 2.199-.355" clip-rule="evenodd"/>
<path fill="#A341B4" fill-rule="evenodd" d="M10.283 2.89a1 1 0 0 1-.286.038q-.928.074-1.833.296-3.883.923-4.897 4.78a15.4 15.4 0 0 0-.43 3.988 16 16 0 0 0 .373 3.76q.967 4.125 5.107 5.047 1.428.294 2.873.353h1.465l.205-.01a13 13 0 0 0 3.971-.687q2.383-.874 3.447-3.177a9.9 9.9 0 0 0 .744-2.767q.229-2.046.096-4.103a12 12 0 0 0-.63-3.186q-.933-2.574-3.466-3.617a11.3 11.3 0 0 0-3.15-.706q-.93-.066-1.86-.066h-.008q-.86 0-1.72.057Z" clip-rule="evenodd"/>
<path fill="#F4416B" fill-rule="evenodd" d="M10.81 2.86a31 31 0 0 0-.527.03 1 1 0 0 1-.286.038q-.928.075-1.833.296-3.883.923-4.897 4.78a15.4 15.4 0 0 0-.43 3.988 16 16 0 0 0 .327 3.545L10.81 2.861Z" clip-rule="evenodd"/>
<path fill="#8A5CD8" fill-rule="evenodd" d="M11.6 21.164a18 18 0 0 1-3.283-.365q-2.706-.603-4.057-2.574L20.586 7.52q.444 1.409.532 2.888.133 2.056-.096 4.103a9.9 9.9 0 0 1-.744 2.767q-1.064 2.303-3.447 3.177a13 13 0 0 1-3.97.687q-.31.016-.617.022z" clip-rule="evenodd"/>
<path fill="#46A9D6" fill-rule="evenodd" d="M20.372 17.05q-.045.115-.095.228-1.062 2.303-3.446 3.177a13 13 0 0 1-3.97.687q-2.295.12-4.544-.343-1.29-.288-2.27-.885l14.325-2.863Z" clip-rule="evenodd"/>
</svg>
