<svg xmlns="http://www.w3.org/2000/svg" width="24" height="24" version="1">
<defs>
<radialGradient id="a" cx="0" cy="0" r="1" fx="0" fy="0" gradientTransform="matrix(0 22 -22 0 12 1)" gradientUnits="userSpaceOnUse" spreadMethod="pad">
<stop offset="0" style="stop-opacity:1;stop-color:#fafafa"/>
<stop offset="1" style="stop-color:#f2f2f2;stop-opacity:1"/>
</radialGradient>
</defs>
<path d="M9.593 1.115q.18 0 .344-.047a32 32 0 0 1 4.308.01 13.7 13.7 0 0 1 3.781.849c2.026.833 3.41 2.281 4.162 4.338.42 1.24.676 2.516.754 3.823a28.3 28.3 0 0 1-.114 4.928 12 12 0 0 1-.896 3.317q-1.276 2.766-4.135 3.812a15.6 15.6 0 0 1-4.767.824 21.3 21.3 0 0 1-5.452-.412c-3.308-.734-5.354-2.754-6.125-6.057a19 19 0 0 1-.448-4.51 18.5 18.5 0 0 1 .516-4.787q1.218-4.625 5.875-5.734a14 14 0 0 1 2.197-.354" style="fill:url(#a);fill-rule:evenodd;stroke:none;stroke-width:1.33333"/>
<g stroke-width=".981" color="#000">
<path fill="#ff9662" d="M34.144 15H45.6L29.857 32l-5.903 5.966L18.4 32Z" style="stroke-width:.980769" transform="translate(-.235 -.235)scale(.38235)"/>
<path fill="#f94f4f" d="M34.144 49H45.6L30.858 33.076l-6.923 4.87z" style="stroke-width:.980769" transform="translate(-.235 -.235)scale(.38235)"/>
</g>
</svg>
