<svg xmlns="http://www.w3.org/2000/svg" xml:space="preserve" width="24" height="24" fill="none">
<defs>
<radialGradient id="a" cx=".179" cy="-1.748" r="1" fx=".179" fy="-1.748" gradientTransform="matrix(0 16.5109 -16.50125 0 -19.851 -2.218)" gradientUnits="userSpaceOnUse" spreadMethod="pad">
<stop offset="0" style="stop-opacity:1;stop-color:#999"/>
<stop offset="1" style="stop-opacity:1;stop-color:#2f3134"/>
</radialGradient>
</defs>
<path d="M9 .75C1.5.75.75 4.5.75 9 .75 15 3 17.25 9 17.25S17.25 15 17.25 9C17.25 4.5 16.5.75 9 .75" style="fill:url(#a);stroke:none" transform="scale(1.33333)"/>
<path d="M4.176 3.863h2.801v10.273H4.176Z" style="fill:#e6e6e6;fill-opacity:1;fill-rule:nonzero;stroke:none" transform="scale(1.33333)"/>
<path d="M5.109 5.422h.934v.934h-.934Zm0 3.109h.934v.938h-.934Zm0 3.114h.934v.934h-.934Z" style="fill:#333;fill-opacity:1;fill-rule:nonzero;stroke:none" transform="scale(1.33333)"/>
<path d="M11.023 3.863h2.801v10.273h-2.801z" style="fill:#e6e6e6;fill-opacity:1;fill-rule:nonzero;stroke:none" transform="scale(1.33333)"/>
<path d="M11.957 5.422h.934v.934h-.934zm0 3.109h.934v.938h-.934zm0 3.114h.934v.934h-.934z" style="fill:#333;fill-opacity:1;fill-rule:nonzero;stroke:none" transform="scale(1.33333)"/>
<path d="M6.664 7.91h4.672v2.18H6.664Z" style="fill:#e6e6e6;fill-opacity:1;fill-rule:nonzero;stroke:none" transform="scale(1.33333)"/>
</svg>
