<svg xmlns="http://www.w3.org/2000/svg" xml:space="preserve" width="24" height="24" viewBox="0 0 6.35 6.35">
<defs>
<radialGradient id="a" cx="0" cy="0" r="1" fx="0" fy="0" gradientTransform="rotate(116.565 6.328 4.435)scale(18.44752)" gradientUnits="userSpaceOnUse" spreadMethod="pad">
<stop offset="0" style="stop-opacity:1;stop-color:#c00111"/>
<stop offset="1" style="stop-opacity:1;stop-color:#7b0619"/>
</radialGradient>
</defs>
<path d="M5.699.75h6.602a4.94 4.94 0 0 1 4.949 4.949v6.602a4.94 4.94 0 0 1-4.949 4.949H5.699A4.94 4.94 0 0 1 .75 12.301V5.699A4.94 4.94 0 0 1 5.699.75" style="fill:url(#a);stroke:none" transform="scale(.35277)"/>
<path d="M8.961 3.75A5.25 5.25 0 0 0 3.75 9 5.25 5.25 0 0 0 9 14.25 5.25 5.25 0 0 0 14.25 9 5.25 5.25 0 0 0 9 3.75zm.035 2.102H9c.836 0 1.637.332 2.227.921a3.153 3.153 0 0 1 0 4.454 3.153 3.153 0 0 1-4.454 0A3.15 3.15 0 0 1 5.852 9c0-.836.328-1.637.918-2.227a3.16 3.16 0 0 1 2.226-.921" style="fill:#ff6e65;fill-opacity:1;fill-rule:nonzero;stroke:none" transform="scale(.35277)"/>
<path d="M4.23 6.824A5.3 5.3 0 0 0 3.75 9c0 .777.176 1.512.48 2.176l1.84-1.051a3 3 0 0 1 0-2.25m7.7-1.051-1.84 1.051c.136.348.218.727.218 1.125s-.082.777-.214 1.125l1.836 1.051c.304-.664.48-1.399.48-2.176s-.176-1.516-.48-2.176m-5.895 5.11L6.824 13.77c.664.304 1.399.48 2.176.48s1.516-.176 2.176-.48l-1.051-1.84A3.1 3.1 0 0 1 9 12.148a3.2 3.2 0 0 1-1.125-.214M9 3.75c-.777 0-1.512.176-2.176.48l1.051 1.84A3.1 3.1 0 0 1 9 5.852c.398 0 .777.082 1.125.214l1.051-1.836A5.2 5.2 0 0 0 9 3.75" style="fill:#fff;fill-opacity:1;fill-rule:nonzero;stroke:none" transform="scale(.35277)"/>
</svg>
