<svg xmlns="http://www.w3.org/2000/svg" xmlns:xlink="http://www.w3.org/1999/xlink" xml:space="preserve" width="24" height="24" fill="none">
<defs>
<linearGradient id="a">
<stop offset="0" style="stop-color:#666;stop-opacity:1"/>
<stop offset="1" style="stop-color:#f2f2f2;stop-opacity:1"/>
</linearGradient>
<linearGradient xlink:href="#a" id="b" x1="50.628" x2="47.554" y1="84.617" y2="-22.052" gradientTransform="translate(-.222 -.222)scale(.24444)" gradientUnits="userSpaceOnUse"/>
</defs>
<path d="M12 1C2 1 1 6 1 12c0 8 3 11 11 11s11-3 11-11c0-6-1-11-11-11" style="font-variation-settings:normal;display:inline;opacity:1;vector-effect:none;fill:url(#b);fill-opacity:1;stroke-width:1.11627;stroke-linecap:butt;stroke-linejoin:miter;stroke-miterlimit:4;stroke-dasharray:none;stroke-dashoffset:0;stroke-opacity:1;-inkscape-stroke:none;stop-color:#000;stop-opacity:1"/>
<g transform="translate(-37.813 -18.01)scale(.11074)">
<rect width="27.12" height="27.12" x="387.455" y="208.661" fill="#999" rx="2.716" ry="2.716" style="stroke-width:10.2493"/>
<rect width="27.12" height="27.12" x="419.996" y="208.661" fill="#fff" rx="2.716" ry="2.716" style="stroke-width:10.2493"/>
<rect width="27.12" height="27.12" x="452.538" y="208.661" fill="#ff5757" rx="2.716" ry="2.716" style="stroke-width:10.2493"/>
<rect width="27.12" height="27.12" x="485.08" y="208.661" fill="#fff" rx="2.716" ry="2.716" style="stroke-width:10.2493"/>
<rect width="27.12" height="27.12" x="387.455" y="241.152" fill="#fff" rx="2.716" ry="2.716" style="stroke-width:10.2493"/>
<rect width="27.12" height="27.12" x="419.996" y="241.152" fill="#fff" rx="2.716" ry="2.716" style="stroke-width:10.2493"/>
<rect width="27.12" height="27.12" x="452.538" y="241.152" fill="#ff5757" rx="2.716" ry="2.716" style="stroke-width:10.2493"/>
<rect width="27.12" height="27.12" x="485.08" y="241.152" fill="#fff" rx="2.716" ry="2.716" style="stroke-width:10.2493"/>
<rect width="27.12" height="27.12" x="387.455" y="273.745" fill="#fff" rx="2.716" ry="2.716" style="stroke-width:10.2493"/>
<rect width="27.12" height="27.12" x="419.996" y="273.745" fill="#999" rx="2.716" ry="2.716" style="stroke-width:10.2493"/>
<rect width="27.12" height="27.12" x="452.538" y="273.745" fill="#fff" rx="2.716" ry="2.716" style="stroke-width:10.2493"/>
<rect width="27.12" height="27.12" x="485.08" y="273.745" fill="#4ac73e" rx="2.716" ry="2.716" style="stroke-width:10.2493"/>
<rect width="27.12" height="27.12" x="387.455" y="306.235" fill="#fff" rx="2.716" ry="2.716" style="stroke-width:10.2493"/>
<rect width="27.12" height="27.12" x="419.996" y="306.235" fill="#fff" rx="2.716" ry="2.716" style="stroke-width:10.2493"/>
<rect width="27.12" height="27.12" x="452.538" y="306.235" fill="#fff" rx="2.716" ry="2.716" style="stroke-width:10.2493"/>
<rect width="27.12" height="27.12" x="485.08" y="306.235" fill="#fff" rx="2.716" ry="2.716" style="stroke-width:10.2493"/>
</g>
</svg>
