<svg xmlns="http://www.w3.org/2000/svg" xml:space="preserve" width="24" height="24" version="1">
<defs>
<radialGradient id="a" cx="0" cy="0" r="1" gradientTransform="matrix(0 22 -22 0 12 1)" gradientUnits="userSpaceOnUse">
<stop offset="0" stop-color="#555" style="stop-color:#818181;stop-opacity:1"/>
<stop offset="1" stop-color="#222" style="stop-color:#35393c;stop-opacity:1"/>
</radialGradient>
</defs>
<path fill="url(#a)" fill-rule="evenodd" d="M9.596 1.114q.18.001.344-.046a32 32 0 0 1 4.307.011q1.951.153 3.78.848 3.038 1.25 4.158 4.339.64 1.86.756 3.824a28 28 0 0 1-.115 4.923 11.9 11.9 0 0 1-.893 3.32q-1.276 2.764-4.135 3.813a15.6 15.6 0 0 1-4.766.825 21.4 21.4 0 0 1-5.452-.412q-4.967-1.107-6.128-6.057a19 19 0 0 1-.447-4.511 18.5 18.5 0 0 1 .515-4.786q1.217-4.629 5.877-5.736a14 14 0 0 1 2.199-.355" clip-rule="evenodd" style="fill:url(#a)"/>
<rect width="13" height="13" x="5.5" y="5.5" fill="#388e3c" rx="1.5" ry="1.5" style="stroke-width:.279802"/>
<path fill="#43a047" d="M7 5.5c-.386 0-.735.145-1 .383V8.5l-.5.5v.5l.75.75h9.5l1.75-2h1V8h-1V7l-2 2.25h-.75l2-2.25V5.5Zm1 7.75-2.5 2V16L7 15v.5l-1.5 1h1v1.913a1.5 1.5 0 0 0 .5.087h1v-2.75l1.5-1.25h.75l-1.5 1.25v2.75H17c.831 0 1.5-.669 1.5-1.5v-1.023l-1.75-2.227h-.5l-.5-.5z" style="stroke-width:.279802"/>
<path fill="#fbc02d" fill-rule="evenodd" d="M9.25 9h.5v6h-.5Zm1 0h.5v6h-.5zm1 0h.5v6h-.5zm1 0h.5v6h-.5zm1 0h.5v6h-.5zm1 0h.5v6h-.5z" style="stroke-width:.279802;paint-order:fill markers stroke"/>
<rect width="7.5" height="5" x="8.25" y="9.5" rx=".75" ry=".75" style="stroke-width:.279802;opacity:.8"/>
<g style="stroke-width:1.11921" transform="matrix(.25 0 0 .25 2.75 4.75)">
<circle cx="58.5" cy="50.5" r="1.5" fill="#fbc02d" style="stroke-width:1.11921"/>
<circle cx="58.5" cy="50.5" r=".5" fill="#263238" style="stroke-width:1.11921"/>
</g>
<g style="stroke-width:1.11921" transform="matrix(.25 0 0 .25 2.75 3.75)">
<circle cx="58.5" cy="11.5" r="1.5" fill="#fbc02d" style="stroke-width:1.11921"/>
<circle cx="58.5" cy="11.5" r=".5" fill="#263238" style="stroke-width:1.11921"/>
</g>
<g style="stroke-width:1.11921" transform="matrix(.25 0 0 .25 5.25 4.75)">
<circle cx="5.5" cy="50.5" r="1.5" fill="#fbc02d" style="stroke-width:1.11921"/>
<circle cx="5.5" cy="50.5" r=".5" fill="#263238" style="stroke-width:1.11921"/>
</g>
<g style="stroke-width:1.11921" transform="matrix(.25 0 0 .25 4.08 4.012)">
<circle cx="10.182" cy="10.451" r="1.5" fill="#fbc02d" style="stroke-width:1.11921"/>
<circle cx="10.182" cy="10.451" r=".5" fill="#263238" style="stroke-width:1.11921"/>
</g>
<rect width="4.25" height="3" x="4.5" y="6" fill="#f9f9f9" rx=".5" ry=".5" style="stroke-width:.279802;opacity:.8"/>
<rect width="4.25" height="3" x="15.25" y="15" fill="#f9f9f9" rx=".5" ry=".5" style="stroke-width:.279802;opacity:.8"/>
<rect width="1" height=".25" x="5" y="7.25" rx=".125" ry=".125" style="fill:#fff;stroke-width:.279802;paint-order:stroke fill markers"/>
<rect width="2" height=".25" x="5" y="7.75" rx=".125" ry=".125" style="fill:#fff;stroke-width:.279802;paint-order:stroke fill markers"/>
<rect width=".75" height="1" x="7.5" y="7" rx=".1" ry=".1" style="fill:#fff;stroke-width:.279802;paint-order:stroke fill markers"/>
<rect width="2.25" height=".25" x="15.75" y="16" rx=".125" ry=".125" style="fill:#fff;stroke-width:.279802"/>
<path fill-rule="evenodd" d="m18 17 .5-.75.5.75z" style="fill:#fff;stroke-width:.279802"/>
<rect width="1.25" height=".25" x="15.75" y="16.5" rx=".125" ry=".125" style="fill:#fff;stroke-width:.279802"/>
</svg>
