<svg xmlns="http://www.w3.org/2000/svg" xmlns:xlink="http://www.w3.org/1999/xlink" xml:space="preserve" width="24" height="24" style="display:inline" version="1.0">
<defs>
<linearGradient id="b">
<stop offset="0" style="stop-color:#00324f;stop-opacity:1"/>
<stop offset="1" style="stop-color:#007dc4;stop-opacity:1"/>
</linearGradient>
<linearGradient xlink:href="#a" id="c" x1="221.276" x2="214.693" y1="-303.447" y2="438.221" gradientUnits="userSpaceOnUse"/>
<linearGradient id="a">
<stop offset="0" style="stop-color:#f2f2f2;stop-opacity:1"/>
<stop offset="1" style="stop-color:#fff;stop-opacity:1"/>
</linearGradient>
<linearGradient xlink:href="#a" id="f" x1="221.276" x2="214.693" y1="-303.447" y2="438.221" gradientUnits="userSpaceOnUse"/>
<linearGradient xlink:href="#a" id="e" x1="221.276" x2="214.693" y1="-303.447" y2="438.221" gradientUnits="userSpaceOnUse"/>
<linearGradient xlink:href="#a" id="d" x1="221.276" x2="214.693" y1="-303.447" y2="438.221" gradientUnits="userSpaceOnUse"/>
<linearGradient xlink:href="#b" id="g" x1="-61.449" x2="-50.618" y1="9.047" y2="19.878" gradientTransform="translate(26.863 -20.703)" gradientUnits="userSpaceOnUse"/>
</defs>
<g style="display:inline">
<g style="fill:url(#c);fill-opacity:1;stroke-width:21.9899">
<g style="fill:url(#d);fill-opacity:1;stroke-width:21.9899" transform="translate(1 1)scale(.04929)">
<g style="fill:url(#e);fill-opacity:1;stroke-width:21.9899">
<path d="M174.406 2.305q3.65.039 6.973-.93a642 642 0 0 1 87.387.234q39.615 3.084 76.699 17.188 61.646 25.383 84.363 88.043 12.99 37.728 15.34 77.59a567 567 0 0 1-2.324 99.89c-2.782 23.352-8.824 45.805-18.129 67.368q-25.886 56.073-83.899 77.355-47.013 15.885-96.687 16.723-55.869 2.907-110.625-8.36Q32.717 414.955 9.164 314.52a386.3 386.3 0 0 1-9.066-91.528q-1.116-49.248 10.461-97.101C27.02 63.285 66.762 24.488 129.785 9.508a283 283 0 0 1 44.621-7.203" style="fill:url(#f);fill-opacity:1;fill-rule:evenodd;stroke:none;stroke-width:21.9899"/>
</g>
</g>
</g>
<g style="stroke-width:1.33706" transform="translate(24.508 31.077)scale(.7479)">
<rect width="16.34" height="16.432" x="-38.032" y="-14.426" rx="2.154" ry="2.154" style="opacity:1;fill:#a7a8ac;fill-opacity:1;stroke-width:2.52672;stroke-linejoin:round;paint-order:stroke markers fill" transform="rotate(45)"/>
<rect width="13.832" height="13.909" x="-36.778" y="-13.165" rx=".737" ry=".737" style="opacity:1;fill:#fff;fill-opacity:1;stroke-width:2.52672;stroke-linejoin:round;paint-order:stroke markers fill" transform="rotate(45)"/>
<rect width="12.119" height="12.187" x="-35.922" y="-12.303" rx="1.138" ry="1.138" style="opacity:1;fill:url(#g);fill-opacity:1;stroke-width:2.52672;stroke-linejoin:round;paint-order:stroke markers fill" transform="rotate(45)"/>
<path d="m-12.328-32.73-1.033 6.972c-.047.317-.542 1.28-.91 1.35l-11.207 1.766 1.124 1.124 9.908-2.104c.243-.088 1.138-.253 1.37-1.95l.955-6.95z" style="opacity:1;fill:#fff;fill-opacity:1;stroke-width:2.52672;stroke-linejoin:round;paint-order:stroke markers fill"/>
<path d="m-12.79-33.19-1.335 6.039c-.069.313-.627 1.24-1 1.284l-12.03 1.427q.144.264.367.489l.423.423 11.011-1.565c.25-.07 1.153-.173 1.501-1.85l1.263-6.049z" style="opacity:1;fill:#fff;fill-opacity:1;stroke-width:2.52672;stroke-linejoin:round;paint-order:stroke markers fill"/>
<path d="m-13.212-33.613-1.571 5.383c-.082.28-.646 1.084-.985 1.101l-11.568 1.064a2.14 2.14 0 0 0-.055.939l11.372-1.318c.229-.049 1.053-.087 1.469-1.583l1.512-5.412z" style="opacity:1;fill:#fff;fill-opacity:1;stroke-width:2.52672;stroke-linejoin:round;paint-order:stroke markers fill"/>
</g>
</g>
</svg>
