<svg xmlns="http://www.w3.org/2000/svg" xmlns:xlink="http://www.w3.org/1999/xlink" xml:space="preserve" width="24" height="24" fill="none">
<defs>
<linearGradient id="a">
<stop offset="0" style="stop-color:#498cd8;stop-opacity:1"/>
<stop offset="1" style="stop-color:#fff;stop-opacity:1"/>
</linearGradient>
<linearGradient xlink:href="#a" id="d" x1="12.688" x2="12.688" y1="22.313" y2="-6.563" gradientUnits="userSpaceOnUse"/>
<linearGradient xlink:href="#a" id="e" x1="12.688" x2="12.688" y1="22.313" y2="-6.563" gradientUnits="userSpaceOnUse"/>
<radialGradient id="b" cx="0" cy="0" r="1" gradientTransform="matrix(0 22 -22 0 12 1)" gradientUnits="userSpaceOnUse">
<stop offset="0" stop-color="#8FC8FF" style="stop-color:#f2f2f2;stop-opacity:1"/>
<stop offset="1" stop-color="#0056A8" style="stop-color:#ccc;stop-opacity:1"/>
</radialGradient>
<radialGradient xlink:href="#b" id="c" cx=".179" cy="-1.748" r="1" fx=".179" fy="-1.748" gradientTransform="matrix(0 22.01454 -22.00166 0 -26.468 -2.958)" gradientUnits="userSpaceOnUse"/>
</defs>
<path d="M12 1C2 1 1 6 1 12c0 8 3 11 11 11s11-3 11-11c0-6-1-11-11-11" style="font-variation-settings:normal;display:inline;opacity:1;vector-effect:none;fill:url(#c);fill-opacity:1;stroke-width:1.11627;stroke-linecap:butt;stroke-linejoin:miter;stroke-miterlimit:4;stroke-dasharray:none;stroke-dashoffset:0;stroke-opacity:1;-inkscape-stroke:none;stop-color:#000;stop-opacity:1"/>
<g style="display:inline;fill:url(#d);fill-opacity:1">
<path d="M50 5C9.09 5 5 25.455 5 50c0 32.727 12.273 45 45 45s45-12.273 45-45c0-24.545-4.09-45-45-45" style="font-variation-settings:normal;display:inline;opacity:1;vector-effect:none;fill:url(#e);fill-opacity:1;stroke-width:4.56656;stroke-linecap:butt;stroke-linejoin:miter;stroke-miterlimit:4;stroke-dasharray:none;stroke-dashoffset:0;stroke-opacity:1;-inkscape-stroke:none;stop-color:#000;stop-opacity:1" transform="translate(-1 -1)scale(.26)"/>
</g>
<path fill="#fff" d="M16.508 7.019c-1.771.386-3.764.61-5.445.7l.09-.447c.105-.492.178-.982.342-1.502l-2.082-.088c.014.49 0 .847-.076 1.486-.014.178-.06.373-.088.596a21 21 0 0 1-2.887-.283v1.83c.744.073 1.606.133 2.545.149-.387 1.621-.984 3.584-1.682 4.937l1.74.626c.149-.253.253-.447.418-.64.878-1.13 2.379-1.74 4.076-1.74 1.427 0 2.2.744 2.2 1.62 0 2.174-3.257 2.56-6.485 2.039l.52 1.905c4.762.506 7.944-.686 7.944-4.001 0-1.875-1.576-3.155-3.957-3.155-1.353 0-2.47.268-3.659.923.238-.715.475-1.652.668-2.544 1.98-.106 4.316-.387 5.848-.626z" style="stroke-width:1.75713"/>
</svg>
