<svg xmlns="http://www.w3.org/2000/svg" xmlns:xlink="http://www.w3.org/1999/xlink" xml:space="preserve" width="24" height="24" fill="none">
<defs>
<linearGradient id="a">
<stop offset="0" style="stop-color:#008066;stop-opacity:1"/>
<stop offset="1" style="stop-color:#2aff80;stop-opacity:1"/>
</linearGradient>
<linearGradient xlink:href="#a" id="d" x1="13.313" x2="12.688" y1="34.75" y2="-6.563" gradientUnits="userSpaceOnUse"/>
<linearGradient xlink:href="#a" id="e" x1="13.313" x2="12.688" y1="34.75" y2="-6.563" gradientUnits="userSpaceOnUse"/>
<radialGradient id="b" cx="0" cy="0" r="1" gradientTransform="matrix(0 22 -22 0 12 1)" gradientUnits="userSpaceOnUse">
<stop offset="0" stop-color="#8FC8FF" style="stop-color:#f2f2f2;stop-opacity:1"/>
<stop offset="1" stop-color="#0056A8" style="stop-color:#ccc;stop-opacity:1"/>
</radialGradient>
<radialGradient xlink:href="#b" id="c" cx=".179" cy="-1.748" r="1" fx=".179" fy="-1.748" gradientTransform="matrix(0 22.01454 -22.00166 0 -26.468 -2.958)" gradientUnits="userSpaceOnUse"/>
</defs>
<path d="M12 1C2 1 1 6 1 12c0 8 3 11 11 11s11-3 11-11c0-6-1-11-11-11" style="font-variation-settings:normal;display:inline;opacity:1;vector-effect:none;fill:url(#c);fill-opacity:1;stroke-width:1.11627;stroke-linecap:butt;stroke-linejoin:miter;stroke-miterlimit:4;stroke-dasharray:none;stroke-dashoffset:0;stroke-opacity:1;-inkscape-stroke:none;stop-color:#000;stop-opacity:1"/>
<g style="display:inline;fill:url(#d);fill-opacity:1">
<path d="M50 5C9.09 5 5 25.455 5 50c0 32.727 12.273 45 45 45s45-12.273 45-45c0-24.545-4.09-45-45-45" style="font-variation-settings:normal;display:inline;opacity:1;vector-effect:none;fill:url(#e);fill-opacity:1;stroke-width:4.56656;stroke-linecap:butt;stroke-linejoin:miter;stroke-miterlimit:4;stroke-dasharray:none;stroke-dashoffset:0;stroke-opacity:1;-inkscape-stroke:none;stop-color:#000;stop-opacity:1" transform="translate(-1 -1)scale(.26)"/>
</g>
<g fill="#fff" style="color:#000;stroke-width:.741">
<path d="M27.391 12.269a3.36 3.36 0 0 1-.503 1.712l4.948 2.86a3.35 3.35 0 0 1 .931-1.466zm-6.721.052-5.405 3.122a3.35 3.35 0 0 1 .864 1.425l5.028-2.906a3.36 3.36 0 0 1-.487-1.64zm-6.774 8.72a3.4 3.4 0 0 1-.972.146 3.4 3.4 0 0 1-.592-.053v6.058a3.4 3.4 0 0 1 .592-.055 3.4 3.4 0 0 1 .972.145v-6.24zm20.22.016v6.21a3.4 3.4 0 0 1 .92-.13 3.4 3.4 0 0 1 .783.098v-6.144a3.4 3.4 0 0 1-.784.096 3.4 3.4 0 0 1-.92-.13zm-17.91 10.108a3.35 3.35 0 0 1-.65 1.391l5.133 2.965a3.35 3.35 0 0 1 .515-1.469zm15.557.028-4.923 2.844a3.35 3.35 0 0 1 .524 1.542l5.102-2.946a3.35 3.35 0 0 1-.703-1.44M23.958 9.688a2.37 2.37 0 0 0-2.369 2.368 2.37 2.37 0 0 0 2.369 2.37 2.37 2.37 0 0 0 2.369-2.37 2.37 2.37 0 0 0-2.369-2.368m-.056 1.579h.056a.79.79 0 0 1 .79.79.79.79 0 0 1-.79.79.79.79 0 0 1-.79-.79.79.79 0 0 1 .734-.79m11.153 16.777a2.37 2.37 0 0 0-2.369 2.369 2.37 2.37 0 0 0 2.369 2.369 2.37 2.37 0 0 0 2.369-2.369 2.37 2.37 0 0 0-2.369-2.369m-.056 1.58h.056a.79.79 0 0 1 .79.789.79.79 0 0 1-.79.79.79.79 0 0 1-.79-.79.79.79 0 0 1 .734-.79z" opacity=".5" style="isolation:auto;mix-blend-mode:normal" transform="translate(-.373 -.373)scale(.51553)"/>
<path d="M35.055 15.393a2.37 2.37 0 0 0-2.369 2.369 2.37 2.37 0 0 0 2.369 2.369 2.37 2.37 0 0 0 2.369-2.369 2.37 2.37 0 0 0-2.369-2.369m-.056 1.58h.056a.79.79 0 0 1 .79.789.79.79 0 0 1-.79.79.79.79 0 0 1-.79-.79.79.79 0 0 1 .734-.79z" style="isolation:auto;mix-blend-mode:normal" transform="translate(-.373 -.373)scale(.51553)"/>
<path d="M12.945 28.044a2.37 2.37 0 0 0-2.369 2.369 2.37 2.37 0 0 0 2.369 2.369 2.37 2.37 0 0 0 2.369-2.369 2.37 2.37 0 0 0-2.369-2.369m-.056 1.58h.056a.79.79 0 0 1 .79.789.79.79 0 0 1-.79.79.79.79 0 0 1-.79-.79.79.79 0 0 1 .734-.79z" opacity=".5" style="isolation:auto;mix-blend-mode:normal" transform="translate(-.373 -.373)scale(.51553)"/>
<path d="M12.945 15.393a2.37 2.37 0 0 0-2.369 2.369 2.37 2.37 0 0 0 2.369 2.369 2.37 2.37 0 0 0 2.369-2.369 2.37 2.37 0 0 0-2.369-2.369m-.056 1.58h.056a.79.79 0 0 1 .79.789.79.79 0 0 1-.79.79.79.79 0 0 1-.79-.79.79.79 0 0 1 .734-.79zm11.069 16.602a2.37 2.37 0 0 0-2.369 2.369 2.37 2.37 0 0 0 2.369 2.369 2.37 2.37 0 0 0 2.369-2.369 2.37 2.37 0 0 0-2.369-2.369m-.056 1.58h.056a.79.79 0 0 1 .79.789.79.79 0 0 1-.79.79.79.79 0 0 1-.79-.79.79.79 0 0 1 .734-.79zM15.49 19.993a3.35 3.35 0 0 1-1.283.935l7.326 12.69a3.35 3.35 0 0 1 1.305-.895zm17.033.059-7.317 12.675a3.35 3.35 0 0 1 1.308.895l7.31-12.665a3.35 3.35 0 0 1-1.301-.904z" style="isolation:auto;mix-blend-mode:normal" transform="translate(-.373 -.373)scale(.51553)"/>
</g>
</svg>
