<svg xmlns="http://www.w3.org/2000/svg" xml:space="preserve" width="24" height="24" version="1">
<defs>
<radialGradient id="a" cx="0" cy="0" r="1" fx="0" fy="0" gradientTransform="matrix(0 16.5 -16.5 0 9 .75)" gradientUnits="userSpaceOnUse" spreadMethod="pad">
<stop offset="0" style="stop-opacity:1;stop-color:#8fc8ff"/>
<stop offset="1" style="stop-opacity:1;stop-color:#0056a8"/>
</radialGradient>
</defs>
<path d="M7.195.836q.135 0 .258-.035a24 24 0 0 1 3.231.008 10.3 10.3 0 0 1 2.836.636q2.278.938 3.121 3.254.476 1.396.566 2.867a21 21 0 0 1-.086 3.696 9 9 0 0 1-.672 2.488q-.957 2.074-3.101 2.859a11.7 11.7 0 0 1-3.575.618 16 16 0 0 1-4.089-.309c-2.481-.551-4.016-2.066-4.594-4.543a14.2 14.2 0 0 1-.336-3.383q-.041-1.818.387-3.59.914-3.468 4.406-4.3A10 10 0 0 1 7.195.836" style="fill:url(#a);fill-rule:evenodd;stroke:none" transform="scale(1.33333)"/>
<path d="M6.961 3.5h.734v3.809c0 .718.575 1.293 1.293 1.293.715 0 1.289-.575 1.289-1.293V3.5h.762zm4.133.004v3.793a2.1 2.1 0 0 1-2.106 2.109 2.105 2.105 0 0 1-2.109-2.109V3.504a2.22 2.22 0 0 0-2.145 2.223v4.507A4.256 4.256 0 0 0 9 14.5a4.256 4.256 0 0 0 4.266-4.266V5.727a2.22 2.22 0 0 0-2.172-2.223M8.988 4.926c.27 0 .485.215.485.484v1.512a.487.487 0 0 1-.973 0V5.41c0-.269.219-.484.488-.484" style="fill:none;stroke:#000;stroke-width:.825;stroke-linecap:round;stroke-linejoin:round;stroke-miterlimit:4;stroke-dasharray:none;stroke-opacity:.121123" transform="scale(1.33333)"/>
<path d="M6.961 3.5h.734v3.809c0 .718.575 1.293 1.293 1.293.715 0 1.289-.575 1.289-1.293V3.5h.762zm4.133.004v3.793a2.1 2.1 0 0 1-2.106 2.109 2.105 2.105 0 0 1-2.109-2.109V3.504a2.22 2.22 0 0 0-2.145 2.223v4.507A4.256 4.256 0 0 0 9 14.5a4.256 4.256 0 0 0 4.266-4.266V5.727a2.22 2.22 0 0 0-2.172-2.223M8.988 4.926c.27 0 .485.215.485.484v1.512a.487.487 0 0 1-.973 0V5.41c0-.269.219-.484.488-.484" style="fill:#fafafa;fill-opacity:1;fill-rule:nonzero;stroke:none" transform="scale(1.33333)"/>
</svg>
