<svg xmlns="http://www.w3.org/2000/svg" xml:space="preserve" width="24" height="24" version="1">
<defs>
<radialGradient id="a" cx="0" cy="0" r="1" fx="0" fy="0" gradientTransform="matrix(0 16.5 -16.5 0 9 .75)" gradientUnits="userSpaceOnUse" spreadMethod="pad">
<stop offset="0" style="stop-opacity:1;stop-color:#a4a4a4"/>
<stop offset="1" style="stop-opacity:1;stop-color:#626262"/>
</radialGradient>
</defs>
<g style="fill:none">
<path d="M7.195.836q.135 0 .258-.035a24 24 0 0 1 3.231.008 10.3 10.3 0 0 1 2.836.636q2.278.938 3.121 3.254.476 1.396.566 2.867a21 21 0 0 1-.086 3.696 9 9 0 0 1-.672 2.488q-.957 2.074-3.101 2.859a11.7 11.7 0 0 1-3.575.618 16 16 0 0 1-4.089-.309c-2.481-.551-4.016-2.066-4.594-4.543a14.2 14.2 0 0 1-.336-3.383q-.041-1.821.387-3.59.914-3.468 4.406-4.3A10 10 0 0 1 7.195.836" style="fill:url(#a);fill-rule:evenodd;stroke:none" transform="translate(0 -.005)scale(1.33333)"/>
</g>
<g transform="translate(4.707 4.64)scale(.3077)">
<rect width="52" height="42" x="-2.297" y="2.92" fill="#4f4f4f" rx="3" ry="3"/>
<path fill="#fff" d="M.703 2.92c-1.662 0-3 1.338-3 3v36c0 1.662 1.338 3 3 3h6v-42Z" opacity=".15"/>
</g>
<path d="M18.464 11.411a8.5 8.5 0 0 0-8.5 8.5 8.5 8.5 0 0 0 .567 3.049q1.252.081 2.515.016a15.6 15.6 0 0 0 4.764-.825q2.86-1.049 4.137-3.812a11.9 11.9 0 0 0 .892-3.32q.128-1.147.16-2.295a8.5 8.5 0 0 0-4.535-1.313" style="fill:#24db82;fill-opacity:1;fill-rule:evenodd;stroke-width:.472223;paint-order:fill markers stroke"/>
<path d="M20.764 15.36a.5.5 0 0 0-.36.15l-.988.996 1.893 1.892.962-.955c.06-.175.111-.352.163-.529a.5.5 0 0 0-.13-.22l-1.183-1.184a.5.5 0 0 0-.357-.15m-2.028 1.826-4.78 4.78v.954a15.6 15.6 0 0 0 3.505-.674l3.17-3.168z" style="stroke-width:.53125;fill:#fff;fill-opacity:1"/>
</svg>
