<svg xmlns="http://www.w3.org/2000/svg" width="24" height="24">
<path d="M9.593 1.115q.18 0 .344-.047a32 32 0 0 1 4.308.01 13.7 13.7 0 0 1 3.781.849c2.026.833 3.41 2.281 4.162 4.338.42 1.24.676 2.516.754 3.823a28.3 28.3 0 0 1-.114 4.928 12 12 0 0 1-.896 3.317q-1.276 2.766-4.135 3.812a15.6 15.6 0 0 1-4.767.824 21.3 21.3 0 0 1-5.452-.412c-3.308-.734-5.354-2.754-6.125-6.057a19 19 0 0 1-.448-4.51 18.5 18.5 0 0 1 .516-4.787q1.218-4.625 5.875-5.734a14 14 0 0 1 2.197-.354" style="fill:#5e4fc1;fill-opacity:1;fill-rule:evenodd;stroke:none;stroke-width:1.33333"/>
<path fill="#fff" d="M12 5.5a6.5 6.5 0 1 0 0 13 6.5 6.5 0 0 0 0-13m-.217.867a5.417 5.417 0 1 1-5.417 5.417q.002-.413.07-.82a3.25 3.25 0 0 0 1.88.603 3.25 3.25 0 0 0 3.25-3.25 3.24 3.24 0 0 0-.605-1.884 5 5 0 0 1 .822-.066" style="stroke-width:1;paint-order:normal"/>
</svg>
