<svg xmlns="http://www.w3.org/2000/svg" xmlns:xlink="http://www.w3.org/1999/xlink" xml:space="preserve" width="24" height="24" fill="none">
<defs>
<radialGradient xlink:href="#a" id="f" cx="158.429" cy="578.088" r="52.352" fx="158.429" fy="578.088" gradientTransform="matrix(0 -.33511 .35555 0 -279.447 96.926)" gradientUnits="userSpaceOnUse"/>
<radialGradient xlink:href="#b" id="g" cx="172.615" cy="600.692" r="65" fx="172.615" fy="600.692" gradientTransform="matrix(.05602 -.09653 .12567 .07293 -153.361 14.682)" gradientUnits="userSpaceOnUse"/>
<radialGradient xlink:href="#c" id="h" cx="144.012" cy="51.337" r="67.081" fx="144.012" fy="51.337" gradientTransform="matrix(-.19927 .05611 -.01911 -.0679 -47.087 16.462)" gradientUnits="userSpaceOnUse"/>
<radialGradient xlink:href="#d" id="e" cx="199.788" cy="628.438" r="52.352" fx="199.788" fy="628.438" gradientTransform="matrix(-.25817 .07281 -.05246 -.186 26.068 132.808)" gradientUnits="userSpaceOnUse"/>
<radialGradient id="i" cx="0" cy="0" r="1" fx="0" fy="0" gradientTransform="matrix(0 16.5 -16.5 0 9 .75)" gradientUnits="userSpaceOnUse" spreadMethod="pad">
<stop offset="0" style="stop-opacity:1;stop-color:#fff"/>
<stop offset="1" style="stop-opacity:1;stop-color:#bebebe"/>
</radialGradient>
<linearGradient id="d">
<stop offset="0" stop-color="#ff005f"/>
<stop offset="1" stop-color="#fc01d8"/>
</linearGradient>
<linearGradient id="c">
<stop offset="0" stop-color="#780cff"/>
<stop offset="1" stop-color="#820bff" stop-opacity="0"/>
</linearGradient>
<linearGradient id="b">
<stop offset="0" stop-color="#fc0"/>
<stop offset="1" stop-color="#fc0" stop-opacity="0"/>
</linearGradient>
<linearGradient id="a">
<stop offset="0" stop-color="#fc0"/>
<stop offset=".124" stop-color="#fc0"/>
<stop offset=".567" stop-color="#fe4a05"/>
<stop offset=".694" stop-color="#ff0f3f"/>
<stop offset="1" stop-color="#fe0657" stop-opacity="0"/>
</linearGradient>
</defs>
<path d="M-68.666 20.232a32 32 0 0 0-2.137.067 1.2 1.2 0 0 1-.342.045 14 14 0 0 0-2.183.353q-4.626 1.099-5.834 5.694a18.4 18.4 0 0 0-.512 4.752 19 19 0 0 0 .444 4.478q1.152 4.914 6.084 6.012 2.679.551 5.412.41a15.5 15.5 0 0 0 4.732-.818q2.838-1.042 4.104-3.786a11.8 11.8 0 0 0 .888-3.296q.273-2.438.114-4.887a14.2 14.2 0 0 0-.75-3.797q-1.113-3.065-4.13-4.307a13.4 13.4 0 0 0-3.751-.841 32 32 0 0 0-2.139-.079" style="fill:url(#e);stroke-width:.0830684" transform="translate(81.263 -19.38)scale(1.00734)"/>
<path d="M-68.666 20.232a32 32 0 0 0-2.137.067 1.2 1.2 0 0 1-.342.045 14 14 0 0 0-2.183.353q-4.626 1.099-5.834 5.694a18.4 18.4 0 0 0-.512 4.752 19 19 0 0 0 .444 4.478q1.152 4.914 6.084 6.012 2.679.551 5.412.41a15.5 15.5 0 0 0 4.732-.818q2.838-1.042 4.104-3.786a11.8 11.8 0 0 0 .888-3.296q.273-2.438.114-4.887a14.2 14.2 0 0 0-.75-3.797q-1.113-3.065-4.13-4.307a13.4 13.4 0 0 0-3.751-.841 32 32 0 0 0-2.139-.079" style="fill:url(#f);stroke-width:.0830684" transform="translate(81.263 -19.38)scale(1.00734)"/>
<path d="M-68.666 20.232a32 32 0 0 0-2.137.067 1.2 1.2 0 0 1-.342.045 14 14 0 0 0-2.183.353q-4.626 1.099-5.834 5.694a18.4 18.4 0 0 0-.512 4.752 19 19 0 0 0 .444 4.478q1.152 4.914 6.084 6.012 2.679.551 5.412.41a15.5 15.5 0 0 0 4.732-.818q2.838-1.042 4.104-3.786a11.8 11.8 0 0 0 .888-3.296q.273-2.438.114-4.887a14.2 14.2 0 0 0-.75-3.797q-1.113-3.065-4.13-4.307a13.4 13.4 0 0 0-3.751-.841 32 32 0 0 0-2.139-.079" style="fill:url(#g);stroke-width:.0830684" transform="translate(81.263 -19.38)scale(1.00734)"/>
<path d="M-68.666 20.232a32 32 0 0 0-2.137.067 1.2 1.2 0 0 1-.342.045 14 14 0 0 0-2.183.353q-4.626 1.099-5.834 5.694a18.4 18.4 0 0 0-.512 4.752 19 19 0 0 0 .444 4.478q1.152 4.914 6.084 6.012 2.679.551 5.412.41a15.5 15.5 0 0 0 4.732-.818q2.838-1.042 4.104-3.786a11.8 11.8 0 0 0 .888-3.296q.273-2.438.114-4.887a14.2 14.2 0 0 0-.75-3.797q-1.113-3.065-4.13-4.307a13.4 13.4 0 0 0-3.751-.841 32 32 0 0 0-2.139-.079" style="fill:url(#h);stroke-width:.0830684" transform="translate(81.263 -19.38)scale(1.00734)"/>
<g style="opacity:.25;mix-blend-mode:hard-light">
<path d="M7.195.836q.135 0 .258-.035a24 24 0 0 1 3.231.008 10.3 10.3 0 0 1 2.836.636q2.278.938 3.121 3.254.476 1.396.566 2.867a21 21 0 0 1-.086 3.696 9 9 0 0 1-.672 2.488q-.957 2.074-3.101 2.859a11.7 11.7 0 0 1-3.575.618 16 16 0 0 1-4.089-.309c-2.481-.551-4.016-2.066-4.594-4.543a14.2 14.2 0 0 1-.336-3.383q-.041-1.818.387-3.59.914-3.468 4.406-4.3A10 10 0 0 1 7.195.836" style="fill:url(#i);fill-rule:evenodd;stroke:none" transform="scale(1.33333)"/>
</g>
<path fill="#fff" d="M12 4.505c-2.036 0-2.292.01-3.092.046-.798.036-1.343.163-1.82.348a3.7 3.7 0 0 0-1.329.864 3.7 3.7 0 0 0-.865 1.328c-.186.476-.313 1.021-.349 1.819C4.51 9.709 4.5 9.965 4.5 12s.01 2.29.045 3.09c.037.797.163 1.342.349 1.818.191.493.448.911.865 1.328.416.417.835.674 1.328.865.477.185 1.022.312 1.82.348.8.037 1.056.046 3.093.046s2.292-.01 3.092-.046c.798-.036 1.344-.163 1.82-.348a3.7 3.7 0 0 0 1.329-.865c.417-.417.673-.835.865-1.327.185-.477.311-1.022.349-1.82.036-.799.045-1.054.045-3.089s-.01-2.29-.045-3.09c-.038-.798-.164-1.343-.349-1.82a3.7 3.7 0 0 0-.865-1.327 3.7 3.7 0 0 0-1.329-.864c-.478-.185-1.023-.312-1.821-.348-.8-.037-1.055-.046-3.093-.046Zm-.672 1.351H12c2.002 0 2.24.007 3.03.043.732.034 1.128.156 1.393.258.35.136.6.298.862.56s.425.513.561.863c.103.264.225.66.258 1.39.036.79.044 1.028.044 3.028s-.008 2.238-.044 3.028c-.033.73-.155 1.127-.258 1.39-.136.35-.299.6-.561.862a2.3 2.3 0 0 1-.862.56c-.264.103-.661.225-1.393.259-.79.036-1.028.043-3.03.043-2.003 0-2.24-.007-3.031-.043-.731-.034-1.128-.156-1.393-.259-.35-.136-.6-.298-.862-.56a2.3 2.3 0 0 1-.561-.862c-.103-.264-.225-.66-.259-1.39-.036-.79-.043-1.028-.043-3.03 0-2 .007-2.237.043-3.027.034-.73.156-1.127.259-1.392.136-.35.298-.6.56-.861.263-.263.513-.425.863-.561.265-.103.662-.225 1.393-.259.692-.03.96-.04 2.358-.042ZM16.004 7.1a.9.9 0 1 0 0 1.8.9.9 0 0 0 0-1.8m-4.003 1.051A3.85 3.85 0 0 0 8.149 12a3.85 3.85 0 0 0 3.852 3.848 3.85 3.85 0 1 0 0-7.697m0 1.35A2.5 2.5 0 1 1 9.5 12 2.5 2.5 0 0 1 12 9.502z" style="stroke-width:.0762405"/>
</svg>
