<svg xmlns="http://www.w3.org/2000/svg" xml:space="preserve" width="24" height="24" version="1">
<defs>
<radialGradient id="a" cx="0" cy="0" r="1" gradientTransform="matrix(0 11 -11 0 12 1)" gradientUnits="userSpaceOnUse">
<stop stop-color="#6EBBF7"/>
<stop offset="1" stop-color="#2196F3" style="stop-color:#1e87e4;stop-opacity:1"/>
</radialGradient>
</defs>
<path fill="url(#a)" fill-rule="evenodd" d="M9.596 1.114q.18.001.344-.046a32 32 0 0 1 4.307.011 13.5 13.5 0 0 1 3.78.848q3.039 1.25 4.158 4.339.64 1.86.756 3.824a28 28 0 0 1-.114 4.923 11.9 11.9 0 0 1-.894 3.32q-1.276 2.764-4.135 3.813a15.6 15.6 0 0 1-4.765.825 21.4 21.4 0 0 1-5.453-.413q-4.967-1.106-6.128-6.056a19 19 0 0 1-.447-4.511 18.5 18.5 0 0 1 .515-4.786q1.217-4.629 5.877-5.736a14 14 0 0 1 2.199-.355" clip-rule="evenodd" style="fill:url(#a)"/>
<path d="M16.125 5.5c-.77 0-1.524.016-2.281.167-2.205.441-4.12 1.806-5.33 3.689A8.1 8.1 0 0 0 7.28 13.14c-.02.305-.034.613-.034.92 0 .07-.032.252.029.3.068.053.26.018.343.018h.902c0-.923.042-1.817.319-2.706.665-2.14 2.372-3.848 4.492-4.554.918-.306 1.837-.346 2.794-.346zm0 2.53c-.696 0-1.391.01-2.069.19-1.932.508-3.443 1.993-4.032 3.895-.23.742-.23 1.496-.23 2.264h.901c.084 0 .276.035.344-.018.058-.047.028-.216.028-.283 0-.278-.003-.554.02-.831.059-.741.376-1.464.794-2.07a4.42 4.42 0 0 1 2.635-1.76c.534-.119 1.066-.114 1.61-.114zm0 2.546c-.562 0-1.102-.013-1.644.16-.965.307-1.765 1.147-2.032 2.122-.137.502-.126 1.005-.126 1.52h1.273c0-.35-.03-.715.047-1.06A1.94 1.94 0 0 1 15.03 11.9c.353-.089.735-.051 1.096-.051zm-.255 2.528a1 1 0 0 0-.134.007c-.422.051-.78.34-.858.773-.105.582.384 1.2 1 1.127.341-.041.65-.221.797-.544.271-.593-.151-1.345-.805-1.363m-1 2.867V18.5h1.892v-2.53z" style="opacity:1;fill:#fff;stroke:none;stroke-width:1;stroke-dasharray:none;paint-order:stroke markers fill"/>
</svg>
