<svg xmlns="http://www.w3.org/2000/svg" xmlns:xlink="http://www.w3.org/1999/xlink" xml:space="preserve" width="22" height="22" fill="none">
<defs>
<linearGradient id="a">
<stop offset="0" style="stop-color:#2c2ca0;stop-opacity:1"/>
<stop offset="1" style="stop-color:#caf;stop-opacity:1"/>
</linearGradient>
<linearGradient xlink:href="#a" id="b" x1="52.978" x2="50.989" y1="96.007" y2="9.226" gradientTransform="translate(-1.222 -1.222)scale(.24444)" gradientUnits="userSpaceOnUse"/>
</defs>
<path d="M11 0C1 0 0 5 0 11c0 8 3 11 11 11s11-3 11-11c0-6-1-11-11-11" style="font-variation-settings:normal;display:inline;opacity:1;vector-effect:none;fill:url(#b);fill-opacity:1;stroke-width:1.11627;stroke-linecap:butt;stroke-linejoin:miter;stroke-miterlimit:4;stroke-dasharray:none;stroke-dashoffset:0;stroke-opacity:1;-inkscape-stroke:none;stop-color:#000;stop-opacity:1"/>
<g style="fill:#d7d7f4">
<path d="M12.035 21.597c-1.897-.064-3.889-.487-5.478-1.162a12 12 0 0 1-1.694-.88 10.3 10.3 0 0 1-2.794-2.592C1.154 15.739.557 14.447.276 13.078a13.5 13.5 0 0 1-.24-1.857A52 52 0 0 1 0 8.95c0-.803.003-.97.016-.98.012-.01.43-.013 1.585-.011l1.569.003.007 1.283c.008 1.39.017 1.641.082 2.274a7.2 7.2 0 0 0 1.18 3.315 7.6 7.6 0 0 0 2.51 2.338c.235.137.731.385 1.002.5 1.182.5 2.539.807 4.043.913.513.036 1.424.047 1.951.023 1.672-.075 2.495-.191 3.368-.476.443-.145.707-.266 1.296-.594l.17-.094 2.083-.005c1.925-.005 2.083-.004 2.09.014.015.037-.225.421-.446.716-1.07 1.425-2.788 2.455-4.98 2.983-.856.206-2.325.402-3.258.434a60 60 0 0 1-2.233.01m.48-5.25c-2.085-.09-3.66-.58-4.927-1.533-.97-.729-1.6-1.671-1.974-2.947-.227-.777-.343-1.8-.306-2.7.03-.74.114-1.368.272-2.054.414-1.79 1.34-3.042 2.787-3.768 1.027-.515 2.22-.791 3.809-.884.907-.052 2.74-.077 5.027-.067 4.548.02 5.887.03 5.901.046.008.008.052.142.099.296l.229.756c.514 1.69.58 1.915.561 1.933-.01.01-8.992.006-9.737-.004a18 18 0 0 0-1.731.046c-1.098.084-1.919.264-2.43.532-.534.28-.895.665-1.184 1.26-.346.715-.48 1.638-.396 2.731.064.843.286 1.483.676 1.947.499.595 1.272 1 2.3 1.203.434.087.904.14 1.5.172l.293.017c.033.003.17 0 .305-.006s.419-.016.632-.021c.446-.012.483-.019.549-.096.05-.059.078-.133.141-.376.028-.105.13-.447.23-.76l.228-.726c.027-.087.068-.206.09-.264.06-.155.074-.213.074-.307 0-.067-.005-.09-.024-.117-.059-.079-.176-.124-.377-.145-.1-.01-.197-.009-.46.005-1.248.069-1.802.079-2.098.039-.567-.077-.908-.251-1.116-.571-.137-.21-.2-.426-.2-.685q0-.527.408-.919c.258-.248.54-.362 1.016-.412.088-.009.876-.015 2.573-.019l2.786-.006c.438-.002.607.02.88.109a.8.8 0 0 1 .343.19.7.7 0 0 1 .166.318c.02.096.016.319-.006.446-.035.203-.004.104-.83 2.63l-.56 1.712c-.11.338-.315.963-.456 1.388-.14.426-.269.823-.286.883-.055.197-.104.263-.234.317-.136.057-.292.092-.554.125-.134.016-.305.04-.379.052-.64.107-1.49.195-2.15.223-.408.017-1.189.023-1.46.011" style="fill:#d7d7f4" transform="translate(2.658 3.375)scale(.64583)"/>
<path d="m12.357 21.602-.369-.016a17.3 17.3 0 0 1-3.486-.51c-1.738-.448-3.25-1.166-4.488-2.13a10.7 10.7 0 0 1-3.144-4.04c-.463-1.052-.714-2.152-.818-3.592-.032-.442-.041-.862-.048-2.117l-.007-1.215.028-.007a95 95 0 0 1 1.58-.004l1.553.004.007 1.277c.008 1.43.022 1.774.094 2.379.086.719.251 1.36.514 1.993.604 1.451 1.714 2.705 3.135 3.538 1.318.774 2.992 1.262 4.858 1.418.415.034.619.042 1.224.05.605.006.806 0 1.524-.039 1.265-.07 2.043-.195 2.836-.458.415-.138.658-.25 1.212-.555l.217-.12 2.072-.006c1.463-.004 2.076-.002 2.085.007.016.015-.086.193-.25.436-.67.996-1.612 1.796-2.834 2.408a8 8 0 0 1-.774.347c-.582.233-1.293.445-1.94.577-.67.137-1.626.262-2.566.335a29 29 0 0 1-2.215.04m.147-5.267c-2.058-.085-3.637-.577-4.904-1.528a5.1 5.1 0 0 1-1.704-2.183c-.566-1.326-.725-3.007-.452-4.755.066-.422.192-.978.296-1.306.272-.86.687-1.598 1.204-2.145.6-.635 1.28-1.062 2.244-1.41.656-.237 1.586-.423 2.501-.5a43 43 0 0 1 2.274-.096c.833-.02 3.82-.02 5.795 0l2.446.021.894.008.046.148c.082.262.807 2.652.831 2.741l.024.086-5.37-.002c-3.782-.002-5.444.001-5.621.01-1.186.061-2.082.212-2.672.45-.938.378-1.533 1.193-1.763 2.411-.146.777-.125 1.78.053 2.508.103.42.283.81.5 1.082.106.134.318.35.442.45.252.204.664.438 1.002.57.483.187 1.16.33 1.84.388.564.048.89.062 1.178.05l.627-.02c.454-.012.485-.017.56-.098.054-.06.086-.138.133-.33a50 50 0 0 1 .556-1.78c.124-.327.116-.446-.037-.53-.142-.08-.31-.094-.767-.07a37 37 0 0 1-1.572.065c-.707 0-1.183-.134-1.473-.414a1.18 1.18 0 0 1-.342-.751c-.046-.496.236-.991.703-1.236.197-.103.363-.148.667-.183.15-.017.43-.02 2.573-.023 1.322-.001 2.517-.007 2.655-.012.44-.015.766.02 1.048.112.212.07.326.145.406.27.071.112.095.198.102.37a1.5 1.5 0 0 1-.057.488c-.019.076-.217.695-.44 1.377l-1.662 5.09c-.042.144-.087.206-.184.254-.112.055-.32.104-.584.137-.126.016-.345.048-.486.07-1.104.175-2.47.259-3.51.216" style="fill:#d7d7f4" transform="translate(2.658 3.375)scale(.64583)"/>
<path d="M12.445 21.602c-.4-.01-1.086-.057-1.482-.099-1.792-.19-3.38-.607-4.781-1.255-1.534-.71-2.767-1.655-3.799-2.914-.926-1.129-1.6-2.4-1.95-3.682-.233-.853-.356-1.766-.41-3.04a93 93 0 0 1-.015-2.477l.005-.156h1.57c1.248 0 1.57.003 1.569.015-.006.172.014 2.544.023 2.71.052.96.14 1.54.335 2.203a7.26 7.26 0 0 0 1.896 3.12c1.033 1 2.297 1.692 3.909 2.137 1.46.403 3.115.55 5.023.445 1.21-.066 1.838-.147 2.525-.323.618-.16 1.02-.324 1.664-.68l.252-.14 2.077-.004c1.412-.002 2.078 0 2.078.009 0 .044-.322.533-.511.775-1.068 1.368-2.728 2.35-4.857 2.874-.773.19-1.89.35-3.04.435-.48.036-1.579.06-2.08.046m0-5.279c-1.944-.088-3.49-.554-4.697-1.417-.587-.42-.997-.835-1.356-1.377-.606-.913-.953-2.032-1.05-3.386a15 15 0 0 1 0-1.278c.065-.904.23-1.791.459-2.46.517-1.516 1.456-2.558 2.865-3.18.95-.42 2.046-.655 3.445-.74a75 75 0 0 1 2.637-.083c1.18-.018 3.47-.01 5.133.017.206.004 1.009.01 1.784.014a73 73 0 0 1 1.42.016c.012.007.881 2.844.9 2.933l.006.033-4.756-.007-5.272-.008q-2.137-.002-3.325.36c-.488.149-.835.346-1.16.66q-.864.836-.995 2.5c-.018.235-.007.954.018 1.187.13 1.202.532 1.913 1.387 2.455q.94.596 2.541.733c.596.05.983.062 1.37.041.116-.006.34-.014.498-.017.342-.006.394-.015.464-.08.068-.062.103-.14.153-.34.049-.198.488-1.605.563-1.807.03-.078.06-.18.07-.228.043-.207-.048-.314-.309-.36-.136-.024-.42-.017-1.504.038-.497.025-1.002.018-1.225-.016-.62-.097-.97-.33-1.141-.761a1.1 1.1 0 0 1-.087-.478.9.9 0 0 1 .03-.278c.06-.225.179-.427.35-.597a1.35 1.35 0 0 1 .691-.371c.305-.066.206-.063 2.73-.066 1.28 0 2.513-.006 2.742-.011.573-.014.793.008 1.096.106.27.088.4.205.472.423.026.08.03.112.03.255 0 .27-.02.352-.303 1.219l-.709 2.168c-.278.85-.639 1.95-.802 2.443s-.312.95-.33 1.016c-.036.14-.09.245-.144.282-.092.062-.309.12-.573.156-.272.036-.398.054-.606.087-1.06.168-2.48.25-3.51.204" style="fill:#d7d7f4" transform="translate(2.658 3.375)scale(.64583)"/>
<path d="M12.445 21.602c-.4-.01-1.086-.057-1.482-.099-1.792-.19-3.38-.607-4.781-1.255-1.534-.71-2.767-1.655-3.799-2.914-.926-1.129-1.6-2.4-1.95-3.682-.233-.853-.356-1.766-.41-3.04a93 93 0 0 1-.015-2.477l.005-.156h1.57c1.248 0 1.57.003 1.569.015-.006.172.014 2.544.023 2.71.052.96.14 1.54.335 2.203a7.26 7.26 0 0 0 1.896 3.12c1.207 1.169 2.758 1.932 4.754 2.336 1.392.283 2.914.346 4.863.204.878-.064 1.598-.192 2.25-.4.421-.133.73-.272 1.254-.562l.252-.14 2.072-.003c1.891-.003 2.07-.002 2.07.015 0 .01-.032.073-.071.139-.442.736-1 1.346-1.736 1.902-1.153.87-2.71 1.495-4.444 1.785-.644.107-1.42.199-2.145.252-.478.036-1.578.06-2.08.046m0-5.279c-1.766-.08-3.173-.463-4.345-1.183a6 6 0 0 1-1.218-.983c-.743-.811-1.225-1.866-1.438-3.147a8.3 8.3 0 0 1-.117-1.506c0-.566.03-.985.111-1.53.21-1.408.613-2.441 1.284-3.286a6 6 0 0 1 .731-.732c.808-.644 1.861-1.074 3.176-1.296.799-.135 1.303-.172 3.064-.222.717-.021.742-.022 1.63-.036.88-.013 1.484-.01 4.558.029.741.009 1.757.017 2.258.017.5 0 .918.004.928.008.012.005.033.052.054.12l.712 2.346c.075.248.14.453.146.455s.01.013.01.023q-.002.018-.01.008c-.005-.008-1.554-.012-4.602-.012-2.527 0-4.882-.002-5.234-.004-.673-.003-1.05.008-1.575.046-1.13.083-2.006.275-2.506.551a2.5 2.5 0 0 0-.641.487q-.812.832-.938 2.445c-.018.234-.007.953.018 1.186.13 1.202.532 1.913 1.387 2.455q.94.596 2.541.733c.594.05.996.062 1.37.04.108-.006.298-.011.421-.012.283-.002.43-.015.494-.046.094-.046.143-.14.209-.406.047-.19.488-1.597.558-1.78.084-.22.1-.333.06-.422-.049-.106-.165-.157-.416-.182a3 3 0 0 0-.446.006c-1.478.086-2 .084-2.398-.01-.35-.084-.62-.247-.78-.471a1.4 1.4 0 0 1-.18-.385 1.3 1.3 0 0 1-.036-.463c.072-.56.504-1.006 1.087-1.124.267-.055.4-.063.905-.059.882.009 4.022.005 4.5-.006.508-.01.652-.003.891.042.36.07.575.19.668.374a.7.7 0 0 1 .075.369c-.001.246-.03.368-.24 1.013a947 947 0 0 1-1.716 5.262c-.068.203-.145.443-.17.533-.054.184-.095.27-.152.307-.09.063-.308.122-.572.157-.272.036-.398.054-.606.087-1.06.168-2.48.25-3.51.204" style="fill:#d7d7f4" transform="translate(2.658 3.375)scale(.64583)"/>
<path d="M12.416 21.597a21 21 0 0 1-2.209-.194 15.4 15.4 0 0 1-2.743-.65 12 12 0 0 1-3.093-1.556 10.6 10.6 0 0 1-2.746-2.915c-.35-.55-.642-1.115-.862-1.666-.586-1.468-.785-3.021-.755-5.891l.007-.739 1.562.001 1.563.001.006 1.136c.008 1.594.035 2.129.142 2.83a7.3 7.3 0 0 0 2.507 4.436c1.061.9 2.441 1.552 4.054 1.914 1.441.324 2.905.413 4.852.293 1.126-.07 1.866-.191 2.602-.43.43-.139.685-.253 1.213-.544l.263-.144 2.073-.003 2.072-.003-.038.067c-.246.439-.6.898-1.007 1.304-.962.965-2.265 1.69-3.861 2.15-.671.193-1.458.342-2.391.45-1.14.133-2.207.184-3.211.153m-.076-5.286c-1.365-.073-2.492-.324-3.492-.777a7 7 0 0 1-1.329-.806 5.1 5.1 0 0 1-1.528-1.925 7.1 7.1 0 0 1-.588-2.118 10.2 10.2 0 0 1-.03-2.107c.07-.75.226-1.54.424-2.133.402-1.206 1.1-2.146 2.057-2.77 1-.652 2.329-1.036 4.017-1.161.278-.02 1.165-.058 1.816-.076l.616-.018 1.02-.018c.88-.013 1.485-.01 4.558.029.741.009 1.757.017 2.258.017.5 0 .918.004.928.008.012.005.033.052.054.12l.712 2.346c.075.248.14.453.146.455s.01.013.01.023q-.002.018-.01.008c-.005-.008-1.539-.012-4.555-.013-2.5 0-4.877-.003-5.28-.006a17 17 0 0 0-1.587.043c-.905.065-1.707.216-2.21.416-.93.37-1.537 1.172-1.775 2.35a5.7 5.7 0 0 0-.111 1.185c0 1.15.22 1.966.683 2.54.098.122.35.368.473.46.712.542 1.633.83 2.987.935.512.04.773.046 1.11.03.175-.007.443-.016.595-.02.366-.006.432-.023.502-.126.043-.062.075-.15.12-.326.019-.079.101-.355.182-.612l.235-.75c.048-.153.111-.343.14-.421.096-.254.105-.371.039-.463-.046-.063-.152-.113-.293-.137-.142-.024-.395-.018-1.48.037-.452.024-1.034.018-1.227-.011q-.64-.096-.933-.41a1.21 1.21 0 0 1-.192-1.316c.18-.38.505-.635.932-.736.295-.07.216-.068 2.777-.07 1.29-.001 2.518-.006 2.73-.012.42-.01.602-.001.827.042.505.098.709.277.744.657.017.183-.04.485-.157.836l-.423 1.295c-.655 2.007-.934 2.862-1.242 3.797-.167.506-.314.962-.328 1.014q-.054.208-.16.266c-.123.069-.297.11-.684.16-.145.02-.366.051-.49.071-.597.095-1.297.163-1.977.194a26 26 0 0 1-1.611.004" style="fill:#d7d7f4" transform="translate(2.658 3.375)scale(.64583)"/>
<path d="M12.571 21.6a2 2 0 0 1-.29-.012 1 1 0 0 0-.2-.018 20 20 0 0 1-1.445-.12 16 16 0 0 1-3.174-.708c-.907-.304-1.81-.73-2.59-1.22a10 10 0 0 1-1.837-1.482C1.94 16.924 1.087 15.565.616 14.192c-.335-.977-.511-2.042-.569-3.434l-.019-.404A73 73 0 0 1 .017 9.12L.01 7.993l1.565.002 1.565.003v1.096c0 1.51.02 1.982.111 2.677.237 1.79 1.092 3.368 2.482 4.58.25.219.664.525.955.706a10 10 0 0 0 2.786 1.166c.502.129.81.19 1.406.28 1.155.173 2.516.198 4.16.077.863-.064 1.587-.194 2.23-.399.425-.135.735-.274 1.256-.563l.252-.14 2.073-.002 2.072-.003-.038.067c-.246.439-.6.898-1.007 1.304q-1.41 1.414-3.744 2.11c-.767.23-1.605.385-2.725.508-.454.05-1.331.112-1.578.112a.3.3 0 0 0-.1.01c-.004.012-.731.022-1.16.017m-.102-5.288c-.943-.048-1.708-.16-2.423-.357-1.207-.33-2.25-.909-3.021-1.676-.936-.929-1.507-2.29-1.652-3.936a10.4 10.4 0 0 1 .29-3.423c.36-1.431 1.108-2.539 2.191-3.245 1-.652 2.329-1.036 4.017-1.161.278-.02 1.165-.058 1.816-.076l.616-.018 1.02-.018c.88-.013 1.485-.01 4.558.029.741.009 1.757.017 2.258.017.5 0 .918.004.928.008.012.005.033.052.054.12l.712 2.346c.075.248.14.453.146.455s.01.013.01.023q-.002.018-.01.008c-.005-.008-1.539-.012-4.555-.013-2.5 0-4.877-.003-5.28-.006a17 17 0 0 0-1.587.043c-.905.065-1.707.216-2.21.416-1.037.413-1.674 1.37-1.844 2.765a7.5 7.5 0 0 0 .012 1.703c.152 1.101.58 1.782 1.446 2.305.411.248.978.451 1.566.561.694.13 1.617.2 2.225.167.142-.008.387-.016.545-.02.38-.007.443-.023.514-.127.043-.062.075-.15.12-.326.019-.079.101-.355.182-.612l.235-.75c.048-.153.111-.343.14-.421.096-.254.105-.371.039-.463-.046-.063-.152-.113-.293-.137-.142-.024-.395-.018-1.48.037-.452.024-1.034.018-1.227-.011q-.64-.096-.933-.41a1.21 1.21 0 0 1-.192-1.316c.18-.38.505-.635.932-.736.295-.07.216-.068 2.777-.07 1.29-.001 2.518-.006 2.73-.012.42-.01.602-.001.827.042.505.098.709.277.744.657.017.183-.04.485-.157.836l-.423 1.295c-.655 2.007-.934 2.862-1.242 3.797-.167.506-.314.962-.328 1.014q-.054.208-.16.266c-.115.064-.301.11-.614.15a25 25 0 0 0-.492.07 20 20 0 0 1-1.98.2c-.337.016-1.301.022-1.547.01" style="fill:#d7d7f4" transform="translate(2.658 3.375)scale(.64583)"/>
<path d="M12.571 21.601a2 2 0 0 1-.29-.013 1 1 0 0 0-.2-.018 20 20 0 0 1-1.445-.12 16 16 0 0 1-3.174-.708c-.907-.304-1.81-.73-2.59-1.22a10 10 0 0 1-1.837-1.482C1.94 16.924 1.087 15.565.616 14.192c-.335-.977-.511-2.042-.569-3.434l-.019-.404a73 73 0 0 1-.011-1.231L.01 7.998h3.124l.003 1.09c.005 1.545.024 2 .114 2.683A7.27 7.27 0 0 0 6.04 16.6a8.3 8.3 0 0 0 1.742 1.038c.808.365 1.834.665 2.8.82.53.084.807.118 1.302.158.76.062 2.023.052 3.082-.024.902-.064 1.614-.186 2.264-.387.452-.14.756-.273 1.28-.561l.24-.131.051-.028h2.05c1.126 0 2.048.005 2.048.01 0 .016-.134.238-.24.395-1.022 1.515-2.762 2.622-5.019 3.194q-1.106.28-2.75.426c-.347.031-.907.065-1.07.065-.062 0-.095.004-.09.012q.004.012-.185.012c-.106 0-.303.001-.438.004-.134.002-.375.002-.535 0m.126-5.29c-1.298-.028-2.452-.234-3.44-.617C8.14 15.26 7.18 14.571 6.58 13.77c-.652-.87-1.056-1.986-1.188-3.282a9 9 0 0 1-.044-1.148c.014-.838.11-1.57.314-2.38.422-1.68 1.326-2.87 2.724-3.58.824-.418 1.743-.67 2.988-.818.45-.054 1.152-.092 2.315-.124l.615-.018 1.02-.018c.88-.013 1.485-.01 4.558.029.741.009 1.757.017 2.258.017.5 0 .918.004.928.008.012.005.033.052.054.12l.712 2.346c.075.248.14.453.146.455s.01.013.01.023q-.002.018-.01.008c-.005-.008-1.538-.012-4.555-.012-2.5 0-4.816-.005-5.145-.01-1.865-.032-3.356.161-4.125.536a2.5 2.5 0 0 0-.727.517c-.502.5-.827 1.26-.936 2.186a7 7 0 0 0 0 1.559c.148 1.316.693 2.1 1.83 2.634.236.11.635.245.943.319.662.157 1.8.26 2.476.224.142-.008.387-.017.545-.02.372-.006.433-.018.512-.1.053-.056.09-.148.14-.342a7 7 0 0 1 .092-.33l.116-.37a32 32 0 0 1 .354-1.105c.077-.201.097-.352.056-.437q-.061-.131-.338-.177c-.134-.022-.385-.015-1.436.038q-.966.048-1.397-.036c-.491-.096-.805-.312-.97-.666a1.21 1.21 0 0 1 .228-1.353c.242-.255.49-.373.92-.438.17-.025.18-.025 1.963-.025 1.68 0 2.358-.005 3.31-.026.425-.01.61 0 .833.043.505.098.709.277.744.657.017.182-.04.484-.156.836a1999 1999 0 0 0-1.684 5.11c-.163.495-.313.955-.333 1.02-.057.19-.097.229-.288.29a2.6 2.6 0 0 1-.508.096c-.126.016-.275.037-.33.046-1.03.176-2.274.263-3.416.239" style="fill:#d7d7f4" transform="translate(2.658 3.375)scale(.64583)"/>
<path d="M12.571 21.601a2 2 0 0 1-.29-.013 1 1 0 0 0-.2-.018 20 20 0 0 1-1.445-.12 16 16 0 0 1-3.174-.708c-.907-.304-1.81-.73-2.59-1.22a10 10 0 0 1-1.837-1.482C1.94 16.924 1.087 15.565.616 14.192c-.335-.977-.511-2.042-.569-3.434l-.019-.404a73 73 0 0 1-.011-1.231L.01 7.998h3.124l.003 1.09c.005 1.545.024 2 .114 2.683A7.27 7.27 0 0 0 6.04 16.6a8.3 8.3 0 0 0 1.742 1.038c.808.365 1.834.665 2.8.82.53.084.807.118 1.302.158.76.062 2.023.052 3.082-.024.902-.064 1.614-.186 2.264-.387.452-.14.756-.273 1.28-.561l.24-.131.051-.028h2.05c1.126 0 2.048.005 2.048.01 0 .016-.134.238-.24.395-1.022 1.515-2.762 2.622-5.019 3.194q-1.106.28-2.75.426c-.347.031-.907.065-1.07.065-.062 0-.095.004-.09.012q.004.012-.185.012c-.106 0-.303.001-.438.004-.134.002-.375.002-.535 0m.126-5.29c-1.298-.028-2.452-.234-3.44-.617C8.14 15.26 7.18 14.571 6.58 13.77c-.652-.87-1.056-1.986-1.188-3.282a9 9 0 0 1-.044-1.148c.014-.838.11-1.57.314-2.38q.579-2.307 2.384-3.392c.681-.41 1.6-.732 2.555-.895.729-.124 1.252-.17 2.261-.2 1.055-.03 1.12-.03 1.12.007 0 .018.026.051.04.051.01 0 .041.031.041.041 0 .015.034.041.052.041q.02 0 .019.035c0 .03.004.036.03.036.023 0 .028.005.028.029 0 .025.006.03.036.03q.035 0 .035.018c0 .018.026.051.04.051.01 0 .042.032.042.042 0 .014.033.04.052.04q.018 0 .018.036c0 .03.005.035.03.035.023 0 .029.006.029.03q0 .027.018.028c.01 0 .034.016.052.036s.036.035.04.035c.01 0 .042.03.042.04s.103.112.112.112.04.032.04.041c0 .005.016.023.036.041.036.034.05.105.02.106s.033.021.07.022a.1.1 0 0 1 .068.03c.028.028.04.076.018.076-.005 0-.007.011-.004.024.006.024.038.033.038.012 0-.023.049-.012.077.017.031.03.04.094.014.104q-.012.005.006.007c.011 0 .021.01.022.021q0 .019.006.006c.01-.025.074-.017.105.014.028.029.039.077.017.077s-.012.032.011.038c.013.004.024.002.024-.004 0-.022.049-.01.078.02.024.024.029.038.025.081q-.003.052.01.058.015.004.016-.006c0-.024.071-.011.1.017.029.03.04.095.017.102q-.01.006-.001.02c.007.012.013.012.028-.003.025-.026.043-.023.082.01.03.025.033.036.03.082q-.005.053.01.059.014.004.015-.006c0-.025.05-.009.088.03.038.037.055.088.03.088q-.011.001-.006.015.007.015.046.01a.088.088 0 0 1 .097.098c-.002.023 0 .04.005.04s.01.01.01.021q.002.02.007.006c.01-.025.073-.017.104.014.03.03.039.072.016.08q-.013.004.008.025t.026.009c.008-.023.05-.015.08.015s.04.095.015.103c-.007.002-.001.014.012.026q.023.019.024.008c0-.025.07-.014.1.015.03.03.04.077.018.077q-.011.001-.012.018c0 .022.038.039.044.02.008-.024.05-.016.08.014.022.022.028.042.028.082 0 .029.006.056.012.06q.01.005.012-.006c0-.026.05-.01.088.029.039.038.055.088.028.088q-.01 0-.005.012c.004.006.026.011.048.011q.041 0 .069.028l.028.028-.301.01c-.166.004-.9.004-1.631 0-1.096-.006-1.405-.005-1.752.01-1.167.05-1.964.166-2.613.382a2.6 2.6 0 0 0-1.091.661c-.502.5-.827 1.26-.936 2.186a7 7 0 0 0 0 1.559c.148 1.316.693 2.1 1.83 2.634.236.11.635.245.943.319.662.157 1.8.26 2.476.224.142-.008.387-.017.545-.02.372-.006.433-.018.512-.1.053-.056.09-.148.14-.342a7 7 0 0 1 .092-.33l.116-.37a32 32 0 0 1 .354-1.105c.077-.201.097-.352.056-.437q-.061-.131-.338-.177c-.134-.022-.385-.015-1.436.038q-.966.048-1.397-.036c-.491-.096-.805-.312-.97-.666a1.21 1.21 0 0 1 .228-1.353c.242-.255.495-.375.92-.437.168-.024.208-.024 2.502-.028a166 166 0 0 0 2.508-.016c.21-.013.708-.007.856.01.54.062.82.205.922.467.07.18.07.394-.002.705q-.053.23-.64 2.004a1323 1323 0 0 0-1.13 3.434c-.167.506-.32.973-.339 1.038-.057.19-.097.229-.288.29a2.6 2.6 0 0 1-.508.096c-.126.016-.275.037-.33.046-1.03.176-2.274.263-3.416.239" style="fill:#d7d7f4" transform="translate(2.658 3.375)scale(.64583)"/>
<path d="M12.571 21.601a2 2 0 0 1-.29-.013 1 1 0 0 0-.2-.018 20 20 0 0 1-1.445-.12 16 16 0 0 1-3.174-.708c-.907-.304-1.81-.73-2.59-1.22a10 10 0 0 1-1.837-1.482C1.94 16.924 1.087 15.565.616 14.192c-.335-.977-.511-2.042-.569-3.434l-.019-.404a73 73 0 0 1-.011-1.231L.01 7.998h3.124l.003 1.09c.005 1.545.024 2 .114 2.683A7.27 7.27 0 0 0 6.04 16.6a8.3 8.3 0 0 0 1.742 1.038c.808.365 1.834.665 2.8.82.53.084.807.118 1.302.158.76.062 2.023.052 3.082-.024.902-.064 1.614-.186 2.264-.387.452-.14.756-.273 1.28-.561l.24-.131.051-.028h2.05c1.126 0 2.048.005 2.048.01 0 .016-.134.238-.24.395-1.022 1.515-2.762 2.622-5.019 3.194q-1.106.28-2.75.426c-.347.031-.907.065-1.07.065-.062 0-.095.004-.09.012q.004.012-.185.012c-.106 0-.303.001-.438.004-.134.002-.375.002-.535 0m.126-5.29c-1.298-.028-2.452-.234-3.44-.617C8.14 15.26 7.18 14.571 6.58 13.77c-.652-.87-1.056-1.986-1.188-3.282a9 9 0 0 1-.044-1.148c.014-.838.11-1.57.314-2.38q.579-2.307 2.384-3.392a7 7 0 0 1 1.88-.749 8 8 0 0 1 .7-.135c.039-.007.047-.005.043.007q-.006.016.03.023c.03.007.036.013.036.041 0 .019.006.034.013.034.016 0 .07.054.07.07 0 .007.015.012.035.012.03 0 .035.004.035.035 0 .02.005.035.012.035s.025.014.042.03c.016.016.037.029.047.029.023 0 .051.028.051.051 0 .01.013.031.03.048.015.016.029.034.029.041s.015.012.035.012c.031 0 .035.004.035.036 0 .019.005.035.012.035.016 0 .07.054.07.07s.02.015.026-.003q.005-.016.028.008.023.023.007.027c-.008.003-.014.018-.014.033q-.001.029.028.035a.05.05 0 0 1 .036.036q.006.029.036.028c.016 0 .029-.005.029-.012q.001-.01.011-.011c.007 0 .012.02.012.046s.006.047.013.047c.016 0 .046.03.046.046 0 .007.02.013.047.013.025 0 .047.005.047.012a.012.012 0 0 1-.012.011c-.007 0-.012.013-.012.03q-.001.028.028.036a.05.05 0 0 1 .036.035q.006.029.036.028c.016 0 .029-.005.029-.011q0-.011.012-.012c.006 0 .011.02.011.047 0 .026.006.047.013.047.016 0 .046.03.046.046 0 .007.021.012.047.012s.047.005.047.012a.012.012 0 0 1-.012.012q-.01.002-.012.028 0 .029.026.037c.03.01.056.033.056.051s.044.016.05-.002q.005-.016.027.008.024.023.008.027c-.018.006-.02.05-.002.05.014 0 .046.029.046.04 0 .005.009.017.02.028q.02.021.024.005c.008-.024.05-.017.05.008 0 .012-.007.025-.015.027-.016.006.016.044.038.044.006 0 .012.013.012.03 0 .024.006.029.034.029.02 0 .036-.006.039-.013.002-.007.014-.002.026.012.012.013.016.024.008.024-.025 0-.014.07.016.1.03.031.094.04.103.014q.006-.015.015.008.008.02-.008.033-.018.01-.001.017c.008.003.014.016.014.03 0 .03.027.056.057.056.013 0 .026.007.03.015q.005.016.017-.002.011-.015.033-.007.021.008.007.014c-.026.01-.017.073.014.104.03.03.094.04.104.014q.005-.015.014.007.008.022-.007.033-.019.012-.002.017c.008.004.014.017.014.03 0 .03.027.056.057.056.013 0 .026.007.03.015q.005.016.017-.003c.019-.026.03-.004.027.047-.002.028.002.047.01.047q.01.002.012.023c0 .02.008.024.052.024.028 0 .053-.006.056-.013.002-.007.014-.002.026.012.012.013.016.024.008.024q-.012.002-.013.053c0 .052 0 .053.04.053.022 0 .043.006.046.014q.006.017.017 0c.008-.013.015-.012.031.005q.02.02.008.025c-.019.006-.016.071.004.091a.06.06 0 0 0 .04.017c.012 0 .025.006.028.014q.003.016.025-.005c.016-.016.023-.018.035-.006.017.015.012.044-.006.044-.022 0-.009.022.016.026a.7.7 0 0 1-.15.013c-1.11.056-2.016.192-2.624.394-.45.15-.774.347-1.091.662-.502.5-.827 1.26-.936 2.186a7 7 0 0 0 0 1.559c.148 1.316.693 2.1 1.83 2.634.236.11.635.245.943.319.662.157 1.8.26 2.476.224.142-.008.387-.017.545-.02.372-.006.433-.018.512-.1.053-.056.09-.148.14-.342a7 7 0 0 1 .092-.33l.116-.37a32 32 0 0 1 .354-1.105c.077-.201.097-.352.056-.437q-.061-.131-.338-.177c-.134-.022-.385-.015-1.436.038q-.966.048-1.397-.036c-.491-.096-.805-.312-.97-.666a1.21 1.21 0 0 1 .228-1.353c.242-.254.489-.372.92-.438.17-.026.177-.026 1.56-.023 1.513.002 1.745.007 1.745.033q.002.015.012.016c.016 0 .073.052.183.167l.061.055c.014.01.025.027.025.038q.001.02.013.021c.016 0 .07.054.07.07q.002.011.02.012c.012 0 .029.011.038.025a.6.6 0 0 0 .116.115c.013.01.025.027.025.038q0 .02.012.021c.016 0 .07.054.07.07q.002.011.023.012.024 0 .024.024 0 .021.012.023a.3.3 0 0 1 .093.094q.002.01.024.012.023 0 .023.023c0 .013.008.024.018.024q.016.001.017.019c0 .022.043.063.067.063.022 0 .05.028.05.05 0 .01.013.032.03.048.016.016.029.035.029.042s.016.012.035.012c.031 0 .035.004.035.035 0 .02.006.035.012.035.007 0 .026.013.042.03.016.016.037.029.047.029.023 0 .052.028.052.051 0 .01.013.031.029.047s.03.035.03.042.015.012.034.012c.032 0 .035.004.035.035 0 .02.006.035.013.035.016 0 .07.054.07.07 0 .007.015.012.035.012.027 0 .035.006.035.024 0 .012.018.041.04.064a.2.2 0 0 1 .042.053q0 .01.012.012a.012.012 0 0 0 .011-.012q.001-.01.012-.012c.006 0 .012.016.012.036s.005.035.012.035c.016 0 .07.054.07.07 0 .006.016.012.035.012s.035.005.035.011a.012.012 0 0 1-.012.012q-.01.001-.011.024 0 .021.012.023c.016 0 .07.054.07.07s.044.015.05-.002q.004-.015.027.007.023.023.007.028c-.017.006-.02.05-.002.05.007 0 .026.013.042.029a.1.1 0 0 0 .064.029c.032 0 .034.003.034.047 0 .026.006.047.013.047.016 0 .046.03.046.046 0 .017.044.016.05-.002q.004-.015.027.008.023.022.008.027c-.018.006-.02.05-.003.05.016 0 .07.053.07.07q.002.01.024.012.021-.002.023-.012 0-.01.012-.012c.006 0 .011.021.011.047s.006.047.013.047c.016 0 .046.03.046.046 0 .007.021.013.047.013s.047.005.047.011a.012.012 0 0 1-.012.012q-.01.002-.012.023c0 .013.006.024.013.024.016 0 .07.054.07.07q.002.01.023.012.021 0 .023-.012.001-.01.012-.012c.017 0 .014.044-.003.05s.016.044.037.044c.007 0 .013.013.013.03q-.001.03.022.029c.013 0 .026.006.029.014q.005.017.017-.001.012-.015.033-.008.022.009.007.015c-.025.01-.017.072.014.103.015.015.031.024.036.02.01-.01-.002.046-.023.109l-.076.246c-.033.11-.086.278-.118.375-.11.337-.648 1.976-.949 2.889-.167.505-.32.973-.339 1.037-.057.19-.097.23-.288.29a2.6 2.6 0 0 1-.508.097 12 12 0 0 0-.33.046c-1.03.176-2.274.263-3.416.239" style="fill:#d7d7f4" transform="translate(2.658 3.375)scale(.64583)"/>
<path d="M12.571 21.601a2 2 0 0 1-.29-.013 1 1 0 0 0-.2-.018 20 20 0 0 1-1.445-.12 16 16 0 0 1-3.174-.708c-.907-.304-1.81-.73-2.59-1.22a10 10 0 0 1-1.837-1.482C1.94 16.924 1.087 15.565.616 14.192c-.335-.977-.511-2.042-.569-3.434l-.019-.404a73 73 0 0 1-.011-1.231L.01 7.998h3.124l.003 1.09c.005 1.545.024 2 .114 2.683A7.27 7.27 0 0 0 6.04 16.6a8.3 8.3 0 0 0 1.742 1.038c.808.365 1.834.665 2.8.82.53.084.807.118 1.302.158.76.062 2.023.052 3.082-.024.902-.064 1.614-.186 2.264-.387.452-.14.756-.273 1.28-.561l.24-.131.051-.028h2.05c1.126 0 2.048.003 2.048.006s-.035.065-.078.138c-.652 1.101-1.734 2.047-3.094 2.706-.91.44-1.935.76-3.033.947a23 23 0 0 1-2.874.293c-.062 0-.095.004-.09.012q.004.012-.185.012c-.106 0-.303.001-.438.004-.134.002-.375.002-.535 0m.126-5.29c-1.298-.028-2.452-.234-3.44-.617C8.14 15.26 7.18 14.571 6.58 13.77c-.652-.87-1.056-1.986-1.188-3.282-.07-.687-.061-1.458.024-2.197.088-.763.277-1.567.508-2.16.296-.76.746-1.438 1.28-1.93.547-.505 1.14-.854 1.92-1.132.14-.05.433-.14.457-.14.005 0 .006.024.004.053-.004.051.015.082.03.05q.008-.016.014 0c.004.008.025.015.047.015.038 0 .04.002.04.04 0 .022.006.043.014.047q.018.006.001.013c-.029.014-.003.036.037.031a.088.088 0 0 1 .098.098c-.005.04.017.066.03.037q.008-.015.014 0c.004.009.017.015.03.015.03 0 .057.027.057.057 0 .013.007.026.015.03q.016.006 0 .013c-.029.014-.002.036.037.031a.088.088 0 0 1 .098.098c-.002.023 0 .04.005.04s.01.01.01.021q0 .019.007.006c.008-.02.072-.019.093.002.009.01.016.027.016.04s.007.026.015.03q.016.005 0 .016c-.013.01-.013.015.004.031.016.017.022.017.03.005.01-.012.013-.012.018 0 .003.007.016.014.029.014s.03.007.04.016c.02.02.022.085.004.091q-.01.006.012.027c.013.012.024.016.024.008 0-.025.07-.015.1.015s.041.1.017.1q-.011.002-.006.012c.004.007.031.012.06.012.068 0 .087.02.087.086 0 .03.005.056.012.06q.01.006.011-.005c0-.026.05-.01.089.028.038.04.054.089.028.089q-.011.001-.005.011c.004.007.025.012.048.012.055 0 .098.043.098.099 0 .022.005.044.012.048q.01.005.012-.005c0-.027.049-.011.088.028.04.04.053.082.028.09q-.01.006.012.027c.013.012.024.016.024.008q0-.012.012-.014.01.001.011.013c0 .015.054.07.07.07.006 0 .012.014.014.032.003.025.011.033.036.036.018.002.033.009.033.015 0 .015.054.069.07.069s.015.02-.003.026q-.015.005.008.027.023.024.027.008c.006-.017.026-.02.026-.002 0 .016.054.07.07.07.007 0 .013.016.013.035 0 .031.003.035.035.035.019 0 .035.006.035.012 0 .016.054.07.07.07.006 0 .012.016.012.035 0 .027.005.035.023.035.012 0 .036.014.052.03s.035.029.042.029.012.016.012.035c0 .031.004.035.035.035.02 0 .035.006.035.013 0 .016.054.07.07.07.008 0 .012.014.01.032-.004.03-.008.032-.103.046-.629.09-.967.164-1.366.297a2.6 2.6 0 0 0-1.09.661c-.502.5-.827 1.26-.936 2.186a7 7 0 0 0 0 1.559c.148 1.316.693 2.1 1.83 2.634.236.11.635.245.943.319.662.157 1.8.26 2.476.224.142-.008.387-.017.545-.02.372-.006.433-.018.512-.1.053-.056.09-.148.14-.342a7 7 0 0 1 .092-.33l.116-.37c.235-.75.318-1.013.358-1.117.06-.157.075-.232.07-.333-.005-.071-.01-.09-.04-.128-.054-.068-.163-.117-.31-.14-.15-.023-.365-.018-1.442.037q-.965.048-1.397-.036c-.491-.096-.805-.312-.97-.666a1.21 1.21 0 0 1 .228-1.353c.243-.256.49-.373.926-.439.166-.025.207-.026.733-.023a40 40 0 0 1 .956.013c.235.001.261.004.284.024.014.012.025.025.025.03s.014.02.03.037.029.034.029.04q.001.01.018.011c.017 0 .076.05.076.065a.2.2 0 0 0 .064.064c.015 0 .065.059.065.076 0 .025.052.076.076.076s.053.029.053.053.075.1.1.1c.024 0 .052.028.052.052 0 .025.052.077.076.077.026 0 .053.028.053.057 0 .012.006.026.014.03q.018.006 0 .013a.03.03 0 0 0-.014.022c0 .02.044.032.052.014q.007-.015.013.001c.004.009.018.015.03.015.035 0 .057.028.058.072 0 .038.02.101.022.072.001-.027.07-.017.1.014.031.03.041.1.015.1-.03.002.033.022.071.023.044 0 .072.023.072.057 0 .013.007.026.015.03q.016.007.001.014c-.007.003-.01.017-.007.03q.006.027.017.008.012-.018.017-.001c.004.008.024.015.046.015.038 0 .04.002.04.04 0 .022.007.042.015.046q.016.005-.003.018-.023.014.003.013c.011 0 .02.01.021.02q.001.02.007.006c.008-.02.072-.018.094.003q.018.018.014.07c-.003.03 0 .053.004.053.005 0 .01.01.01.02q0 .02.007.007c.003-.009.027-.015.058-.015.05 0 .051 0 .051.04 0 .022.007.043.015.046.012.005.011.008 0 .017-.013.009-.012.015.004.03.016.017.022.018.03.005.01-.012.013-.012.018 0 .003.008.016.014.029.014s.03.008.04.017c.02.02.022.085.002.093q-.013.005.006.007.018.001.02.01c0 .005.019.007.04.004a.088.088 0 0 1 .099.098c-.005.04.017.066.03.037q.008-.015.014 0c.004.009.017.016.03.016.03 0 .057.026.057.056 0 .013.007.027.015.03q.016.008 0 .014c-.029.014-.002.035.038.03q.075-.007.076.068c0 .02.006.036.013.036q.011.001.006.017-.01.03.065.03c.049 0 .068.024.068.086 0 .053.015.08.029.052q.006-.018.013 0c.004.008.023.014.042.014s.043.008.052.017c.02.02.022.085.004.09-.007.003-.002.015.012.027.013.012.024.016.024.009 0-.02.069-.017.088.002.009.009.018.042.02.073l.003.058.046.003a.12.12 0 0 1 .073.032c.029.029.037.07.015.078-.007.002-.002.014.012.026.013.013.024.016.024.009 0-.024.047-.014.078.016.023.024.03.04.025.07-.005.044.005.053.063.053.049 0 .092.046.092.098 0 .041.017.067.026.04q.004-.017.025.004c.01.011.02.023.02.028 0 .01.03.04.04.04.004 0 .017.01.027.02q.022.02.005.025c-.023.007-.004.026.028.026.015 0 .028.005.028.012 0 .016.054.07.07.07s.015.044-.002.05q-.015.006.007.015t.03-.007c.008-.012.014-.011.029.004.01.01.019.022.019.026 0 .016.034.04.057.04.027 0 .035.042.01.05q-.012.005-.004.028.009.021.015.008c.007-.018.05-.02.05-.003 0 .016.054.07.07.07s.016.044 0 .05c-.007.002-.002.013.012.025.013.013.024.016.024.009q.002-.012.023-.014c.013 0 .024.006.024.014 0 .007.011.023.025.035a.12.12 0 0 1 .032.06c.007.03.015.039.046.045a.12.12 0 0 1 .06.033c.011.013.027.024.034.024q.013.002.014.024-.001.021-.014.023-.01.002.008.024.022.026.031.009c.017-.027.01 0-.048.192-.127.418-.261.833-.768 2.371-.17.516-.326.99-.345 1.055-.057.19-.097.23-.288.29a2.6 2.6 0 0 1-.508.097 12 12 0 0 0-.33.046c-1.03.176-2.274.263-3.416.239z" style="fill:#d7d7f4" transform="translate(2.658 3.375)scale(.64583)"/>
<path d="M12.571 21.601a2 2 0 0 1-.29-.013 1 1 0 0 0-.2-.018 20 20 0 0 1-1.445-.12 16 16 0 0 1-3.174-.708c-.907-.304-1.81-.73-2.59-1.22a10 10 0 0 1-1.837-1.482C1.94 16.924 1.087 15.565.616 14.192c-.335-.977-.511-2.042-.569-3.434l-.019-.404a73 73 0 0 1-.011-1.231L.01 7.998h3.124l.003 1.09c.005 1.545.024 2 .114 2.683A7.27 7.27 0 0 0 6.04 16.6a8.3 8.3 0 0 0 1.742 1.038c.808.365 1.834.665 2.8.82.53.084.807.118 1.302.158.76.062 2.023.052 3.082-.024.902-.064 1.614-.186 2.264-.387.452-.14.756-.273 1.28-.561l.24-.131.051-.028h1.825c1.726 0 2.059.004 2.027.024-.008.005-.01.019-.007.031.006.018.016.022.048.018.031-.004.047.002.07.025.017.017.03.036.03.043 0 .074-.356.59-.604.873-1.054 1.21-2.61 2.094-4.55 2.585q-1.106.28-2.75.426c-.347.031-.907.065-1.07.065-.062 0-.095.004-.09.012q.004.012-.185.012c-.106 0-.303.001-.438.004-.134.002-.375.002-.535 0m.126-5.29c-1.298-.028-2.452-.234-3.44-.617C8.14 15.26 7.18 14.571 6.58 13.77c-.652-.87-1.056-1.986-1.188-3.282a9 9 0 0 1-.044-1.148c.014-.838.11-1.57.314-2.38.423-1.684 1.348-2.897 2.725-3.573a3 3 0 0 1 .352-.153c.01 0 .003.046-.01.05q-.011.005.01.026t.025.008c.008-.024.073-.015.103.015s.038.072.015.08c-.01.003-.01.013 0 .039q.01.03.013.02c.001-.027.07-.017.102.015.023.023.029.039.025.07q-.004.04.01.046.015.004.016-.006c0-.025.05-.008.088.03s.055.088.03.088q-.011.002-.006.015.006.015.046.01c.03-.003.046.003.07.026.032.032.042.1.015.102-.03.002.033.021.07.022a.1.1 0 0 1 .068.03c.03.03.038.071.016.079q-.013.004.008.026.021.02.026.008c.008-.023.05-.015.08.015s.039.095.015.103q-.013.005.008.026t.026.008c.008-.024.072-.014.103.016q.049.048.01.084c-.013.014-.014.02-.002.033.015.016.044.011.044-.007 0-.021.049-.01.076.019.03.03.04.094.016.102q-.012.005.008.026.021.021.026.008c.009-.025.05-.013.09.028.039.038.056.088.03.088q-.01.002-.005.015.006.016.046.01a.088.088 0 0 1 .097.098q-.004.04.01.046.015.004.016-.005c0-.026.05-.009.088.029s.055.088.03.088q-.011.002-.006.015.006.015.046.011c.031-.004.047.002.071.027.027.026.03.038.025.077-.004.035-.002.046.01.046q.016 0 .017-.012c0-.025.05-.009.088.03.039.038.055.088.03.088q-.011.002-.012.017c0 .023.037.04.044.02.008-.023.049-.016.08.015.029.03.04.094.015.102-.007.002-.001.014.012.026q.022.02.024.009c0-.024.047-.015.076.014a.12.12 0 0 1 .032.074c.004.043.006.045.049.049a.12.12 0 0 1 .073.031c.03.03.038.076.015.076q-.011.002.007.024c.012.013.02.025.017.027s-.068.02-.146.04a4 4 0 0 0-.691.248 2.5 2.5 0 0 0-.739.522c-.502.5-.827 1.26-.936 2.186a7 7 0 0 0 0 1.559c.148 1.316.693 2.1 1.83 2.634.236.11.635.245.943.319.662.157 1.8.26 2.476.224.142-.008.387-.017.545-.02.372-.006.433-.018.512-.1.053-.056.09-.148.14-.342a7 7 0 0 1 .092-.33l.147-.47.183-.582c.047-.153.11-.34.14-.416s.06-.17.07-.208c.076-.322-.11-.441-.666-.425-.243.007-.93.038-1.245.055a9 9 0 0 1-1.025-.006c-.653-.073-1.027-.289-1.22-.701a1.21 1.21 0 0 1 .229-1.353c.323-.34.687-.458 1.432-.463.305-.002.307-.002.33.024.012.015.031.027.042.027.025 0 .077.051.077.076 0 .018.05.076.065.076a.2.2 0 0 1 .064.064c0 .01.08.088.088.088.01 0 .065.056.065.065a.2.2 0 0 0 .064.064c.009 0 .065.056.065.065s.079.088.088.088.064.055.064.064a.2.2 0 0 0 .064.065c.01 0 .065.055.065.064s.079.088.088.088a.2.2 0 0 1 .064.065q.002.01.023.028.023.019.026.078l.004.057.057.004c.07.005.093.025.087.077-.005.048.008.062.057.056.029-.003.045.003.068.026.031.031.04.073.016.08q-.012.007-.006.025c.005.014.021.02.061.02.063 0 .088.019.088.068 0 .058.008.068.052.063.032-.004.047.002.071.026.029.029.031.038.025.092-.004.034-.004.055 0 .046.008-.02.096-.018.116.003s.023.111.002.113c-.035.002.037.02.083.021.028 0 .058.009.068.018.02.02.022.085.003.091q-.012.005.008.026.022.021.026.008c.008-.022.05-.014.08.016s.039.094.014.104q-.014.005.006.007c.01 0 .02.01.021.021q0 .019.007.006c.01-.025.073-.017.104.014.03.03.038.072.015.08q-.012.004.009.025t.026.009c.007-.023.049-.015.079.015a.1.1 0 0 1 .03.068c0 .037.02.1.021.07.002-.026.07-.016.101.015.03.03.04.094.015.102q-.011.005.011.012.024.005.026-.004c0-.025.051-.007.089.03.044.045.05.069.022.097-.015.015-.016.02-.003.028q.014.008.02-.002c.007-.022.073-.011.101.018s.041.1.018.1q-.01.001-.006.015.007.015.058.01c.043-.003.057.001.082.026q.05.05.012.085c-.025.025 0 .047.048.042.03-.004.046.002.068.025.032.031.04.073.017.08q-.012.005.008.027.022.02.026.008c.008-.023.05-.014.08.017.024.022.03.039.026.068-.005.048.008.062.057.056.029-.003.045.003.068.026.03.03.04.072.016.08q-.012.005.009.026t.026.008c.007-.023.049-.014.079.016.022.022.029.04.029.081 0 .029.005.056.011.06q.011.006.012-.005c0-.025.071-.013.1.016.031.03.04.094.014.104q-.014.005.008.014.023.01.028-.004c.008-.026.05-.014.09.027.041.04.054.082.028.09q-.014.007-.005.028.009.023.015.008c.01-.027.05-.015.092.026.038.039.054.088.028.088q-.012.002-.005.012c.004.007.025.012.048.012.054 0 .095.041.1.101.004.043.006.045.05.05a.12.12 0 0 1 .072.03c.03.03.038.072.016.079-.007.002-.002.014.012.026.013.012.024.016.024.009 0-.024.047-.015.076.014a.12.12 0 0 1 .032.073c.003.044.005.046.048.05a.12.12 0 0 1 .074.031c.03.03.037.07.013.079q-.016.004.008.027.023.024.027.008c.01-.027.05-.015.091.026.039.038.055.088.03.088a.012.012 0 0 0-.012.012c0 .006.02.012.047.012.065 0 .105.04.105.105q0 .049.018.047.016 0 .017.007c0 .008-.076.255-.177.573-.039.122-.207.637-.374 1.143s-.32.973-.339 1.038c-.057.19-.096.229-.288.29a2.6 2.6 0 0 1-.508.096c-.126.016-.275.037-.33.046-1.03.176-2.274.263-3.416.239zm1.46-7.452q-.001-.01-.013-.011-.011.001-.005.011.007.011.012.012.005 0 .005-.012m-3.141-3.246c0-.006.014-.011.032-.011q.036-.001.015.011c-.023.015-.047.015-.047 0" style="fill:#d7d7f4" transform="translate(2.658 3.375)scale(.64583)"/>
<path d="M12.571 21.601a2 2 0 0 1-.29-.013 1 1 0 0 0-.2-.018 20 20 0 0 1-1.445-.12 16 16 0 0 1-3.174-.708c-.907-.304-1.81-.73-2.59-1.22a10 10 0 0 1-1.837-1.482C1.94 16.924 1.087 15.565.616 14.192c-.335-.977-.511-2.042-.569-3.434l-.019-.404a73 73 0 0 1-.011-1.231L.01 7.998h3.124l.003 1.09c.005 1.545.024 2 .114 2.683A7.27 7.27 0 0 0 6.04 16.6a8.3 8.3 0 0 0 1.742 1.038c.808.365 1.834.665 2.8.82.53.084.807.118 1.302.158.76.062 2.023.052 3.082-.024.902-.064 1.614-.186 2.264-.387.452-.14.756-.273 1.28-.561l.24-.131.051-.028h.459c.252 0 .54.004.642.008l.185.008v.039c0 .022.005.04.012.04a.012.012 0 0 0 .011-.013c0-.023.072-.011.1.018.03.028.042.1.018.1a.012.012 0 0 0-.012.011q.002.011.023.012c.013 0 .024-.005.024-.012 0-.025.05-.009.088.03.038.038.055.088.029.088q-.01.002-.012.023 0 .021.012.023a.012.012 0 0 0 .012-.011c0-.024.07-.012.1.017s.04.1.017.1a.012.012 0 0 0-.012.012c0 .006.027.011.06.011.046 0 .064.006.087.03.029.028.04.076.017.076q-.01.002-.012.023c0 .02.008.024.048.024.035 0 .055.007.076.028.03.031.038.072.014.08q-.015.004.008.027.023.024.027.008c.008-.024.05-.016.08.014.02.021.029.042.029.076v.048h.047c.035 0 .055.008.076.029.031.03.038.071.014.08q-.015.003.008.026.023.024.027.008c.01-.026.05-.015.092.026.038.039.054.089.029.089a.012.012 0 0 0-.012.011c0 .007.021.012.047.012.065 0 .105.04.105.105 0 .026.005.047.012.047a.012.012 0 0 0 .012-.011c0-.026.05-.01.088.029.038.038.055.088.029.088a.012.012 0 0 0-.012.012c0 .006.024.011.053.011.045 0 .053.004.053.024q.001.021.011.023c.022 0 .012.018-.05.082-.208.218-.678.568-1.116.832-1.057.639-2.345 1.097-3.75 1.336a23 23 0 0 1-2.874.293c-.062 0-.095.004-.09.012q.005.012-.186.012c-.105 0-.302.001-.437.004-.134.002-.375.002-.535 0m.126-5.29c-1.298-.028-2.452-.234-3.44-.617C8.14 15.26 7.18 14.571 6.58 13.77c-.652-.87-1.056-1.986-1.188-3.282a9 9 0 0 1-.044-1.148c.014-.838.11-1.57.314-2.38.231-.922.606-1.69 1.134-2.325.115-.139.357-.377.363-.358.003.008-.002.019-.01.024-.012.007-.01.014.006.03q.023.023.027.008c.008-.026.072-.017.103.014.028.029.04.077.017.077q-.011.002-.012.023 0 .024.024.024c.012 0 .023-.006.023-.012 0-.022.048-.012.077.017.03.03.04.094.014.103q-.015.004.008.027.022.024.027.008c.008-.025.072-.017.103.014.029.03.041.1.017.1a.012.012 0 0 0-.012.012q.002.011.024.012.021 0 .023-.012c0-.026.05-.01.088.029.039.038.055.088.03.088q-.011.002-.012.024.001.021.011.023a.012.012 0 0 0 .012-.012c0-.023.071-.011.1.017.03.03.041.1.017.1a.012.012 0 0 0-.011.012c0 .007.02.012.047.012.065 0 .105.04.105.105v.047h.047c.035 0 .055.008.076.03.031.03.039.07.015.079q-.015.004.008.027.022.024.027.008c.008-.024.049-.017.08.014.02.021.028.042.028.076v.048h.048c.034 0 .055.007.076.028.03.031.038.072.014.08q-.015.005.008.027.023.023.027.008c.009-.027.05-.015.091.026.039.038.055.088.03.088a.012.012 0 0 0-.013.012c0 .007.022.012.048.012.065 0 .105.04.105.105 0 .026.005.047.011.047a.012.012 0 0 0 .012-.011c0-.018.046-.015.065.005a.06.06 0 0 1 .017.035q0 .016.012.018c.006 0 .012.019.012.041 0 .038.002.041.035.041.05 0 .117.068.117.117 0 .032.004.036.036.036.044 0 .093.045.093.088 0 .039.025.064.064.064.042 0 .088.048.088.093 0 .032.004.036.035.036.02 0 .036.005.036.01a.3.3 0 0 1-.042.062c-.45.557-.721 1.248-.819 2.084a7 7 0 0 0 0 1.559c.148 1.316.693 2.1 1.83 2.634.236.11.635.245.943.319.662.157 1.8.26 2.476.224.142-.008.387-.017.545-.02.372-.006.433-.018.512-.1.052-.055.09-.146.139-.335.059-.228.163-.532.167-.492.004.029.008.031.056.031.044 0 .052.004.052.024q0 .021.012.023c.006 0 .011.016.011.036q.002.068.065.07c.042 0 .088.048.088.093 0 .032.003.036.035.036.05 0 .117.067.117.116 0 .032.004.036.036.036a.1.1 0 0 1 .093.093c0 .032.004.036.036.036.049 0 .116.068.116.117 0 .031.004.035.036.035.045 0 .093.046.093.088 0 .017.008.039.017.048s.03.017.047.017c.04 0 .089.048.089.088 0 .034.024.064.052.064.025 0 .076.052.076.076 0 .025.029.053.053.053s.076.052.076.076.052.076.077.076c.024 0 .076.052.076.077 0 .024.028.052.052.052s.1.076.1.1.028.052.053.052.076.052.076.077c0 .024.028.052.052.052.025 0 .1.076.1.1s.029.053.053.053.053.028.053.052q0 .017.012.018.01 0 .011.012c0 .013.053.07.065.07.017 0 .064.06.064.081q0 .025.024.024.023 0 .023.024 0 .023.024.023c.022 0 .081.048.081.065a.2.2 0 0 0 .065.064c.004 0 .02.014.037.03l.03.03-.02.087a4 4 0 0 1-.076.26 12 12 0 0 0-.111.36c-.097.333-.112.352-.33.42a2.6 2.6 0 0 1-.507.097c-.126.016-.275.037-.33.046-1.03.176-2.274.263-3.416.239m4.576-1.616q0-.021-.01-.023-.01.002-.005.023l.01.024q.005-.002.005-.024m-.128-.14c0-.007-.012-.012-.027-.011q-.037-.002-.003.01l.027.012q.002-.001.003-.011m-.153-.14q-.001-.022-.01-.024-.01.002-.005.023c.003.013.008.024.01.024.003 0 .005-.011.005-.024m-.145-.16c-.011-.01-.023-.017-.026-.014q-.004.008.014.026c.01.01.022.017.025.013q.003-.007-.013-.025m-.136-.122q.001-.024-.026-.022-.03 0-.006.006c.01.003.02.013.02.023q0 .015.006.016.005-.002.006-.023m-.146-.16c-.01-.01-.022-.016-.025-.013s.003.015.014.025.022.017.025.014-.003-.014-.014-.025m-.135-.133q-.001-.011-.013-.012-.01 0-.005.012.008.01.012.012.005-.002.006-.012m-.434-.434q-.002-.01-.012-.011-.011.001-.006.011.007.011.013.012.005 0 .005-.012m-.281-.281q-.001-.01-.013-.012-.01.001-.005.012.007.01.013.012.004-.001.005-.012m-2.965-2.598c-.505-.033-.894-.173-1.123-.403-.352-.353-.432-.96-.18-1.366q.051-.084.068-.078.015.006.016.02c0 .007.01.021.024.03.017.013.023.03.023.068 0 .027-.005.05-.011.05q-.01.002-.006.015c.007.018.064.013.064-.005 0-.021.049-.01.077.018s.04.1.018.1c-.018 0-.022.03-.006.044.012.012.019.011.033-.003.022-.022.074-.022.096 0 .02.02.022.108.003.114q-.012.006.008.026.022.021.026.009c.007-.02.095-.017.115.003.024.024.02.077-.006.1-.023.02-.023.021-.003.04.02.017.022.017.038-.005.02-.027.076-.03.1-.006.021.021.023.131.002.14q-.015.005.008.014t.028-.005c.006-.02.094-.017.114.003s.023.109.003.115q-.012.006-.005.026c.007.02.01.02.03-.004.037-.043.118-.024.118.027 0 .01.005.019.012.019.021 0 .012.05-.014.071-.023.02-.023.023-.003.03q.02.007.026-.005c.008-.025.072-.016.103.015.03.03.04.094.015.102q-.014.005-.005.028.009.021.015.008c.003-.009.025-.015.052-.015.08 0 .134.079.08.117-.02.016-.021.018-.004.038.019.02.02.02.04-.003q.037-.046.088.006c.03.03.04.094.015.103-.02.006-.003.044.02.044q.015 0 .017-.012c0-.024.071-.012.1.017.035.035.037.062.004.09-.023.02-.023.023-.005.04s.02.018.04-.005c.029-.032.055-.031.09.004.029.029.041.1.017.1q-.01.001-.012.024 0 .023.024.023.021 0 .023-.012c0-.024.072-.011.1.017.048.048.038.061-.048.07a5 5 0 0 1-.462-.001" style="fill:#d7d7f4" transform="translate(2.658 3.375)scale(.64583)"/>
<path d="M12.571 21.601a2 2 0 0 1-.29-.013 1 1 0 0 0-.2-.018 20 20 0 0 1-1.445-.12 16 16 0 0 1-3.174-.708c-.907-.304-1.81-.73-2.59-1.22a10 10 0 0 1-1.837-1.482C1.94 16.924 1.087 15.565.616 14.192c-.335-.977-.511-2.042-.569-3.434l-.019-.404a73 73 0 0 1-.011-1.231L.01 7.998h3.124l.003 1.09c.005 1.545.024 2 .114 2.683A7.27 7.27 0 0 0 6.04 16.6a8.3 8.3 0 0 0 1.742 1.038c.808.365 1.834.665 2.8.82.53.084.807.118 1.302.158a22 22 0 0 0 2.34.018c1.194-.057 1.811-.13 2.511-.293.275-.065.68-.185.893-.265a5 5 0 0 0 .305-.123c.041-.021.08-.02.08.002 0 .015.079.013.084-.002.002-.007.014-.002.026.012.012.013.016.024.009.024-.02 0-.017.092.003.112s.108.023.116.002q.005-.014.014.009.01.022-.004.027c-.025.008-.016.072.015.103.029.029.094.04.102.017q.004-.01.02-.002c.012.008.011.014-.004.029-.028.027-.022.052.023.096.044.045.068.05.096.022.015-.015.02-.015.028-.003q.008.016-.001.02c-.023.008-.012.073.017.102s.1.041.1.017q.002-.01.015-.005.015.005.01.057c-.003.044.001.057.026.082q.049.05.086.013c.013-.014.02-.015.032-.003.016.015.012.044-.006.044-.021 0-.01.048.018.076.03.03.095.04.103.016q.005-.013.026.008t.008.026c-.024.008-.014.073.016.103.028.027.076.04.076.018 0-.018.03-.022.044-.006.012.012.011.019-.003.032-.026.027-.02.076.012.108.035.035.061.036.09.003.018-.02.022-.021.022-.005 0 .01.009.02.02.02q.019 0 .006.007c-.02.008-.018.095.003.117q.018.018.07.014.052-.005.058.01.003.014-.005.015c-.024 0-.012.071.017.1s.1.041.1.018q.002-.011.015-.006.015.006.01.058c-.005.07.016.091.087.086.044-.004.054 0 .06.019.004.013.001.025-.006.027-.023.008-.015.05.015.08s.095.04.103.015q.005-.013.026.008t.008.026c-.024.008-.015.073.016.103.035.035.06.036.09.003.017-.02.021-.022.021-.006 0 .011.01.02.02.02.016 0 .015.004-.006.022-.035.03-.032.056.01.095.02.018.035.036.035.04 0 .01.055.065.065.065.007 0 .052.046.052.054 0 .003-.29.159-.451.242-.227.117-.746.33-1.102.45-.799.27-1.47.424-2.478.566-.73.102-1.835.2-2.271.2-.062 0-.095.004-.09.012q.004.011-.185.012c-.106 0-.303.001-.438.004-.134.002-.375.002-.535 0zm7.506-1.615q-.029-.034.002-.022c.018.007.036.04.021.04-.004 0-.015-.008-.023-.018m-7.38-3.675c-1.298-.028-2.452-.234-3.44-.617C8.14 15.26 7.18 14.571 6.58 13.77c-.652-.87-1.056-1.986-1.188-3.282-.07-.687-.061-1.458.024-2.197a10 10 0 0 1 .363-1.746c.102-.318.303-.791.336-.791.01 0 .025-.009.036-.02q.018-.018.023-.005t.023.013q.022-.002-.007.022c-.014.012-.025.03-.025.042 0 .024.052.077.076.077q.017 0 .018.03c0 .023.006.028.03.028s.028.006.028.036q0 .036.019.035c.018 0 .052.026.052.04 0 .01.031.042.04.042.015 0 .042.033.042.052q-.001.018.035.018c.03 0 .035.005.035.03 0 .023.006.029.03.029s.029.005.029.035c0 .027.005.035.023.035.013 0 .024.005.024.012q.002.01.023.011.024-.001.023.03c0 .016.006.029.013.029.019 0 .046.03.046.052q0 .019.035.018c.03 0 .035.005.035.03 0 .023.006.029.03.029.023 0 .029.006.029.03 0 .038.025.064.064.064.024 0 .03.005.03.029 0 .023.006.03.029.03.025 0 .03.005.03.034 0 .028.004.036.023.036q.021.001.023.011c0 .017.056.015.061-.001q.005-.013.026.008t.008.026c-.022.008-.015.078.01.096.013.01.024.021.024.027 0 .019.058.067.082.067q.023.001.023.02c0 .012.011.03.024.039q.021.015.023.026c0 .013.055.067.068.067.005 0 .017.01.026.024.01.013.026.023.038.023q.02 0 .02.024c0 .022.048.082.065.082a.2.2 0 0 1 .065.064c0 .017.06.065.081.065q.024 0 .024.023t.024.023.023.024c0 .022.047.082.064.082a.2.2 0 0 1 .065.064c0 .017.06.065.081.065q.024 0 .024.02c0 .012.01.03.024.038.013.01.023.027.023.039 0 .027.027.055.053.055.024 0 .076.052.076.076 0 .025.052.076.077.076.024 0 .052.029.052.053s.076.1.1.1.052.028.052.053c0 .023.031.056.045.048.006-.004.004.034-.004.084a7.4 7.4 0 0 0-.034 1.866c.148 1.316.693 2.1 1.83 2.634.236.11.635.245.943.319.383.09.995.175 1.486.205.068.004.136.01.152.013s.175.008.352.012c.177.005.316.01.307.013q-.014.005.02.038a.2.2 0 0 1 .036.04c0 .01.055.065.065.065a.2.2 0 0 1 .064.065c0 .009.055.064.064.064s.088.08.088.088c0 .01.056.065.065.065a.2.2 0 0 1 .064.064c0 .009.056.065.065.065.008 0 .088.079.088.088s.055.064.064.064.088.08.088.088c0 .016.035.04.058.04q.023 0 .024.022c0 .011.01.028.023.037.013.01.024.027.024.039 0 .026.05.079.076.079s.053.028.053.052.052.076.076.076.076.053.076.077.052.076.077.076c.024 0 .052.028.052.052 0 .025.052.077.076.077s.076.052.076.076.053.076.077.076.052.028.052.052c0 .01.019.037.041.06.022.022.05.04.06.04.024 0 .052.029.052.053s.052.076.076.076c.028 0 .053.03.053.064 0 .04.048.089.088.089s.064.025.064.064c0 .042.049.088.093.088.032 0 .036.004.036.036 0 .044.046.093.088.093.04 0 .064.025.064.064 0 .042.049.088.093.088.032 0 .036.004.036.036 0 .049.068.117.117.117.031 0 .035.004.035.034q0 .034.021.038c.031.006-.554.1-.864.138a18 18 0 0 1-2.608.128m1.694-2.167q.001-.011.011-.005.011.007.012.012 0 .005-.012.005-.01 0-.011-.012m-.282-.281q.002-.011.012-.006.01.007.012.013 0 .005-.012.005-.01-.002-.012-.012m-.28-.282q0-.01.01-.005.012.007.013.013-.002.004-.012.005-.011-.001-.012-.013m-.153-.15q.002-.01.023-.005c.013.004.024.008.024.01q-.002.005-.024.005t-.023-.01M7.57 7.17q.002-.01.012-.005.01.007.012.012-.002.005-.012.006-.01-.001-.012-.013m-.28-.295q.001-.027.007-.007c.003.011.014.023.025.025q.021.006-.007.007-.028.003-.025-.025m-.844-.86q.001-.02.007-.006.005.014 0 .022-.006.004-.007-.015m-.138-.127q-.03-.034.002-.022c.017.006.035.04.02.039-.004 0-.014-.008-.022-.017" style="fill:#d7d7f4" transform="translate(2.658 3.375)scale(.64583)"/>
<path d="M12.571 21.601a2 2 0 0 1-.29-.013 1 1 0 0 0-.2-.018 20 20 0 0 1-1.445-.12 16 16 0 0 1-3.174-.708c-.907-.304-1.81-.73-2.59-1.22a10 10 0 0 1-1.837-1.482C1.94 16.924 1.087 15.565.616 14.192c-.335-.977-.511-2.042-.569-3.434l-.019-.404a73 73 0 0 1-.011-1.231L.01 7.998h3.124l.003 1.09c.005 1.545.024 2 .114 2.683A7.27 7.27 0 0 0 6.04 16.6a8.3 8.3 0 0 0 1.742 1.038c.808.365 1.834.665 2.8.82.53.084.807.118 1.302.158a22 22 0 0 0 2.34.018c1.114-.053 1.699-.116 2.365-.254.18-.037.35-.067.378-.066.036.002.058.01.079.032.016.016.03.032.03.036s.012.02.028.036a.1.1 0 0 0 .036.028c.017 0 .064.06.064.082q0 .024.024.024.023 0 .023.023 0 .024.024.024c.028 0 .08.055.081.085 0 .01.009.02.019.02.026 0 .11.082.11.107q0 .021.024.022.023 0 .023.023t.022.024c.026 0 .084.059.084.086 0 .01.008.02.018.02.024 0 .134.103.134.125s.03.05.053.05c.01 0 .022.01.026.024q.006.021.016.023t.01.013c0 .007.016.028.036.046s.035.04.035.051q.002.018.024.019c.023 0 .058.025.058.04 0 .01.079.089.088.089.01 0 .04.031.04.04 0 .004.064.07.141.146a1 1 0 0 1 .141.158c0 .01.008.02.018.02.025 0 .357.332.357.357 0 .011-.01.03-.023.04-.023.02-.023.021-.003.04.02.017.023.017.038-.005.038-.053.117.001.117.081 0 .027-.006.049-.015.052q-.014.006.008.015.023.009.028-.005c.008-.024.072-.015.102.015s.04.095.015.103q-.012.006-.005.026c.008.02.01.02.03-.003.024-.029.066-.034.075-.009q.007.016-.054.042c-.085.035-.1.041-.165.07-.27.12-.883.319-1.343.435-.733.186-1.652.329-2.748.426-.347.031-.907.065-1.07.065-.062 0-.095.005-.09.012q.004.012-.185.012c-.106 0-.303.001-.438.004-.134.002-.375.002-.535 0m6.132-1.475c0-.012-.036-.043-.043-.036-.012.012.007.043.025.043q.017 0 .018-.007m-.152-.146q0-.023-.025-.023c-.025 0-.025 0-.004.023a.1.1 0 0 0 .025.024q.003-.002.004-.024m-.157-.172c-.013-.013-.022.007-.013.028.009.02.01.02.014 0 .003-.012.002-.025-.001-.028m-.124-.12c0-.007-.01-.012-.021-.012q-.026-.002-.003.012c.022.014.024.014.024 0m-.153-.147q-.001-.017-.011-.018-.01.001-.005.018.007.017.012.018.003-.001.004-.018m-.129-.135q-.002-.01-.02-.011-.026-.001-.003.011c.022.015.023.015.023 0m-.152-.146q-.001-.017-.026-.016-.03 0-.006.006c.01.003.02.01.02.016q0 .01.006.011.005-.002.006-.017m-.146-.153c-.01-.011-.022-.017-.025-.014s.003.015.014.025.022.017.025.014-.003-.015-.014-.025m-.135-.128a.02.02 0 0 0-.018-.018q-.023-.002-.003.017c.019.022.02.022.02 0m-.146-.154c-.01-.01-.022-.017-.025-.013-.004.003.003.014.013.025q.018.017.026.014c.003-.003-.003-.015-.014-.026M12.316 16.3c-1.187-.068-2.175-.264-3.058-.606-1.12-.434-2.079-1.123-2.68-1.924-.592-.791-.98-1.79-1.145-2.942a10 10 0 0 1 .222-3.802l.02-.072.018-.07.022-.086c.015-.062.039-.06.039.003 0 .03-.006.054-.014.057q-.013.005-.004.027t.014.009c.003-.009.016-.015.028-.015q.021 0 .023-.012c0-.022.048-.011.076.017.035.035.038.084.006.112-.022.02-.022.021-.002.04.019.017.022.016.037-.005.024-.033.094-.033.094 0 0 .013.005.024.011.024.007 0 .012.018.012.04s-.005.042-.012.042q-.01.002-.011.018c0 .022.038.038.044.019.008-.025.072-.015.103.015.035.035.036.061.005.088-.022.02-.022.021-.002.04.02.017.022.017.037-.005.039-.053.117.001.117.081 0 .026-.006.049-.014.052q-.015.005.008.015.022.009.027-.005c.008-.025.073-.015.103.015s.04.1.017.1q-.01.002-.012.024 0 .021.01.023c.004 0 .016-.01.025-.023.025-.034.054-.03.1.017.047.046.052.075.018.1q-.045.033 0 .035.021 0 .023-.012c0-.024.071-.011.1.017.03.03.041.1.017.1-.006 0-.011.011-.011.024q.001.021.011.023a.012.012 0 0 0 .012-.011c0-.007.021-.012.047-.012.035 0 .056.008.077.029.035.035.036.061.004.09-.024.02-.024.022-.004.042q.021.021.025.006c.009-.025.073-.017.103.014.03.029.04.077.018.077q-.011.002-.012.023 0 .024.023.024c.013 0 .024-.006.024-.012 0-.022.048-.012.076.017.031.03.04.095.015.103q-.015.005.007.027.023.024.028.008c.008-.025.072-.016.103.014.028.029.04.077.017.077q-.011.002-.012.023 0 .024.023.024c.013 0 .024-.005.024-.012 0-.026.05-.01.088.03.039.037.055.087.03.087q-.012.002-.013.024.002.021.012.023a.012.012 0 0 0 .012-.011c0-.024.071-.012.1.017.029.028.041.1.017.1a.012.012 0 0 0-.012.011q.002.011.024.012.021 0 .023-.012c0-.025.05-.009.088.03.039.038.055.088.03.088q-.011.002-.012.023c0 .013.005.024.011.024a.012.012 0 0 0 .012-.012c0-.007.019-.012.041-.012.032 0 .041.005.041.02 0 .012.01.03.024.039.024.017.032.07.011.07a.012.012 0 0 0-.011.012c0 .006.02.011.047.011.065 0 .105.04.105.105v.048h.047c.035 0 .055.007.076.029.031.03.039.071.015.08q-.015.003.008.026.022.024.027.008c.008-.024.049-.016.08.014a.1.1 0 0 1 .028.077v.047h.048q.048 0 .073.026c.025.025.028.044.041.267l.02.281c.05.405.065.502.112.703.105.447.272.824.497 1.123.097.13.322.365.445.467.26.212.597.415.92.551a6 6 0 0 0 1.15.337c.268.043.38.067.399.084q.02.019.022.007c0-.015.058-.018.102-.006.023.006.027.014.027.063 0 .034-.006.058-.015.062q-.015.005.008.014.022.01.027-.004c.007-.02.095-.017.115.003s.023.108.003.115q-.012.005-.005.026c.007.02.009.02.03-.004.03-.035.054-.031.1.016.048.046.051.07.016.1-.023.021-.023.023-.003.03q.02.008.026-.005c.008-.025.072-.015.103.015.03.03.04.095.014.103q-.012.005-.004.027.009.023.015.008c.01-.027.095-.017.127.014q.052.05.005.089c-.022.02-.022.02-.002.039.02.017.022.017.038-.004q.034-.047.088.005c.029.03.04.1.017.1-.007 0-.012.011-.012.024q0 .023.024.023c.012 0 .023-.005.023-.011 0-.024.071-.012.1.017.035.035.037.061.004.09-.023.02-.023.022-.005.04s.02.017.04-.005c.029-.033.055-.032.09.004.021.02.029.041.029.076 0 .026-.006.047-.012.047a.012.012 0 0 0-.012.012q.002.01.024.012.021-.001.023-.012c0-.024.071-.012.1.017s.041.1.017.1q-.01.002-.011.023c0 .013.005.024.011.024a.012.012 0 0 0 .012-.012c0-.024.071-.012.1.017s.041.1.017.1a.012.012 0 0 0-.011.012q.002.01.023.012.021-.001.023-.012c0-.026.05-.01.089.029.038.038.054.088.029.088q-.011.002-.012.024 0 .021.012.023a.012.012 0 0 0 .011-.012c0-.024.072-.011.1.017.031.031.04.095.015.103q-.015.005.007.028.023.023.028.008c.008-.026.072-.017.103.014.028.028.04.076.017.076-.007 0-.012.011-.012.024q0 .023.024.023c.012 0 .023-.005.023-.011 0-.023.048-.012.077.017.03.03.04.094.014.103q-.015.004.008.027.022.023.027.008c.008-.026.072-.017.103.014.029.029.04.077.017.077q-.01.002-.012.023 0 .024.024.024.021-.002.023-.012c0-.007.013-.012.03-.012q.03 0 .029.02c0 .012.01.03.023.039.017.012.024.03.024.067 0 .027.005.05.011.05a.012.012 0 0 0 .012-.012c0-.026.05-.01.088.03.039.037.055.087.03.087a.012.012 0 0 0-.012.012c0 .006.02.012.047.012.065 0 .105.04.105.105 0 .026.005.047.012.047a.012.012 0 0 0 .011-.012c0-.025.05-.009.089.03.038.038.054.088.029.088a.012.012 0 0 0-.012.011c0 .007.021.012.047.012.065 0 .105.04.105.105v.047h.048c.034 0 .055.008.076.029l.028.029-.05.006a15 15 0 0 1-1.01.082c-.341.017-1.339.02-1.6.005z" style="fill:#d7d7f4" transform="translate(2.658 3.375)scale(.64583)"/>
<path d="M12.571 21.601a2 2 0 0 1-.29-.013 1 1 0 0 0-.2-.018 20 20 0 0 1-1.445-.12 16 16 0 0 1-3.174-.708c-.907-.304-1.81-.73-2.59-1.22a10 10 0 0 1-1.837-1.482C1.94 16.924 1.087 15.565.616 14.192c-.335-.977-.511-2.042-.569-3.434l-.019-.404a73 73 0 0 1-.011-1.235L.01 7.99l.361.007c.198.003.9.006 1.562.007h1.2l.003 1.081c.002 1.489.024 1.996.115 2.686A7.27 7.27 0 0 0 6.04 16.6a8.3 8.3 0 0 0 1.742 1.038c1.125.508 2.565.857 4.014.972.588.047 1.449.068 1.973.048a59 59 0 0 0 1.414-.07c.352-.028.326-.028.354-.004.028.025.036.068.013.076q-.012.004.009.026.02.02.025.008c.008-.023.05-.015.08.015s.04.095.015.103q-.012.005.008.026.022.021.026.008c.009-.024.073-.014.103.016.028.028.04.077.018.077-.018 0-.022.028-.006.043.012.012.02.011.033-.003.024-.024.043-.021.082.012.029.025.033.035.029.082q-.005.053.01.058.014.003.015-.005c0-.026.05-.01.088.029.039.038.055.088.03.088q-.01.002-.006.015.007.016.046.01a.088.088 0 0 1 .098.099q-.005.039.01.045t.015-.005c0-.026.05-.009.089.03.038.037.054.087.029.087q-.01.001-.005.016.006.015.045.01a.088.088 0 0 1 .098.096c-.002.021 0 .043.007.05.006.006.028.009.05.006.029-.003.045.003.068.026.031.031.04.072.016.08-.02.007-.003.045.02.045q.015-.002.017-.012c0-.022.048-.012.077.017.03.03.04.094.016.102q-.01.006.012.026c.013.013.024.016.024.009 0-.02.069-.017.089.003a.06.06 0 0 1 .016.035q.002.017.012.019c.007 0 .012.013.012.03 0 .015-.006.028-.013.028q-.01.002-.005.012c.004.006.026.012.048.012.056 0 .099.043.099.098 0 .023.005.044.011.048q.011.006.012-.005c0-.026.05-.01.088.028.04.04.055.089.029.089q-.011.001-.006.011c.004.007.026.012.049.012.055 0 .098.043.098.098 0 .023.005.045.012.049q.01.005.011-.006c0-.026.05-.01.089.029.04.04.053.082.026.09q-.016.005.008.028.022.023.027.008c.008-.024.049-.017.08.014.02.021.028.041.028.076v.048h.048c.034 0 .055.007.076.028.03.031.038.072.014.08s.018.041.057.046c.049.005-.513.15-.804.208-.697.136-1.377.229-2.244.305-.304.027-.841.06-.988.06-.062 0-.095.003-.09.01q.004.012-.185.013c-.106 0-.303.001-.438.004-.134.002-.375.002-.535 0zm-.073-5.301c-1.459-.063-2.565-.296-3.615-.764-.745-.33-1.516-.87-1.993-1.395-.513-.563-.89-1.223-1.154-2.018-.366-1.103-.474-2.367-.32-3.753.012-.115.033-.164.033-.079 0 .038.003.041.036.041a.1.1 0 0 1 .093.093c0 .032.004.036.036.036.049 0 .116.068.116.117 0 .032.004.035.036.035.045 0 .093.046.093.088 0 .04.025.065.065.065s.064.025.064.064c0 .034.047.088.076.088.025 0 .077.052.077.076 0 .025.028.053.052.053s.077.052.077.076.052.076.076.076.076.052.076.077c0 .024.028.052.052.052.025 0 .077.052.077.076 0 .01.013.032.029.048.015.016.037.028.047.028s.032.013.047.03c.016.015.03.036.03.047 0 .01.012.031.028.047s.037.029.047.029.032.013.048.029c.016.015.028.037.028.047 0 .018.05.076.065.076.01 0 .04.031.04.04s.08.09.089.09a.1.1 0 0 1 .036.028.1.1 0 0 1 .028.035c0 .004.019.025.04.048.023.022.045.04.048.04s.02.013.036.03a.1.1 0 0 1 .029.035.4.4 0 0 0 .112.104q.015.016.017.024c0 .01.079.089.088.089.003 0 .02.013.035.028a.1.1 0 0 1 .029.036.4.4 0 0 0 .112.105.4.4 0 0 0 .105.112c.01 0 .064.056.064.065 0 .004.016.022.035.04.034.032.048.082.024.082-.022 0-.012.033.011.039.013.003.024.001.024-.005 0-.02.049-.01.077.019a.1.1 0 0 1 .03.067c0 .037.02.1.021.07.001-.025.07-.016.1.015.032.03.041.1.015.1-.03.003.034.022.071.023.022 0 .047.008.056.017s.017.035.017.056c.001.038.02.1.022.071.002-.026.07-.017.101.014.029.029.041.1.018.1q-.011.001-.006.015.006.015.058.01c.043-.003.057.002.081.026.037.037.038.063.005.092-.02.018-.022.021-.006.021.01 0 .02.01.02.02 0 .016.003.015.021-.006.029-.033.055-.032.09.003.03.03.04.095.016.103q-.013.005.008.026t.026.008c.008-.022.05-.014.08.016s.039.094.013.104q-.012.005.006.007c.012 0 .021.01.022.021q0 .019.007.006c.01-.026.073-.017.105.015.023.024.029.04.025.07q-.004.04.01.046.015.004.016-.005c0-.026.05-.01.088.029.038.038.055.088.03.088q-.011.002-.006.015.006.015.046.01c.03-.003.046.003.07.026.03.03.042.095.018.103q-.01.005-.001.02c.007.012.013.012.028-.003.028-.028.052-.022.096.022.045.045.05.069.023.097-.015.015-.016.02-.003.028q.014.008.02-.002c.007-.022.072-.011.101.018.03.03.04.094.016.102q-.013.005.008.026t.026.009c.008-.024.05-.015.08.016.023.023.03.04.026.068-.006.049.008.062.056.057.03-.004.045.002.068.025.031.031.04.073.017.08q-.012.005.008.027.021.02.026.008c.008-.023.05-.015.08.016.023.023.03.04.026.069-.006.048.008.062.056.056a.088.088 0 0 1 .096.098q-.004.039.01.046.015.004.016-.006c0-.025.05-.009.088.03.04.04.053.082.027.09q-.013.005-.005.028.01.021.015.008c.01-.026.073-.017.104.014.03.03.04.094.014.104q-.015.005.008.014t.028-.004c.007-.022.04-.016.075.014.027.023.033.037.033.081 0 .03.005.057.011.061q.011.006.012-.005c0-.027.05-.01.088.028.04.04.053.082.028.09-.007.003-.001.015.012.027q.022.019.024.008c0-.023.047-.014.076.015a.12.12 0 0 1 .032.073c.004.043.006.045.049.049a.12.12 0 0 1 .073.032c.03.029.038.07.016.078-.007.002-.002.014.011.026.014.012.025.016.025.008 0-.027.048-.012.088.028.038.038.055.088.029.088a.012.012 0 0 0-.012.012c0 .006.021.011.048.011.065 0 .104.04.104.105 0 .026.006.048.012.048a.012.012 0 0 0 .012-.012c0-.026.05-.01.088.029.039.038.055.088.03.088a.012.012 0 0 0-.013.012c0 .006.016.012.036.012.049 0 .117.067.117.116 0 .032.004.036.035.036.045 0 .094.046.094.088 0 .04.025.064.064.064.042 0 .088.049.088.093 0 .032.004.036.036.036.044 0 .093.046.093.088 0 .04.025.065.064.065.042 0 .088.048.088.093 0 .032.004.035.036.035.049 0 .117.068.117.117 0 .032.003.036.036.036.039 0 .07.022.07.052q0 .016.01.018c.007 0 .013.011.013.024 0 .03.026.058.052.058.024 0 .076.052.076.077 0 .024.028.052.053.052s.1.076.1.1.028.052.052.052c.025 0 .077.052.077.077 0 .01.013.031.028.047s.038.029.048.029c.024 0 .076.052.076.076 0 .01.008.027.017.036a.06.06 0 0 0 .035.017c.025 0 .077.052.077.076 0 .01.013.031.029.047s.037.029.047.029c.025 0 .076.052.076.077 0 .011.012.03.026.042.024.021.019.022-.267.02-.16-.001-.387-.006-.503-.011m-4.88-5.73q-.001-.01-.013-.011-.011.001-.005.011.007.011.012.012.005 0 .005-.012" style="fill:#d7d7f4" transform="translate(2.658 3.375)scale(.64583)"/>
<path d="M12.598 21.601q-.31-.004-.293-.015.019-.011-.078-.012c-.226 0-.976-.054-1.387-.1-1.6-.178-3.116-.565-4.4-1.126a16 16 0 0 1-1.013-.498 10.2 10.2 0 0 1-2.392-1.81C1.94 16.924 1.087 15.565.616 14.192c-.335-.977-.511-2.042-.569-3.434l-.019-.404a73 73 0 0 1-.011-1.231L.01 7.998l1.07.007 1.317.009.247.002-.005.029q-.005.028.008.03c.022 0 .047.03.047.057 0 .026.042.035.05.011q.004-.013.025.008c.017.016.018.022.005.031s-.012.012 0 .017c.007.003.014.024.014.046 0 .04 0 .04.052.04.078 0 .084.005.079.064-.006.07.016.092.086.087.05-.004.081.015.049.03q-.015.006 0 .013c.009.004.015.025.015.047 0 .031.005.04.022.04.02 0 .022.02.03.29.003.16.007.462.007.671 0 1.209.073 2.137.218 2.813a7.3 7.3 0 0 0 1.531 3.14 7.8 7.8 0 0 0 2.405 1.917c1.467.769 3.387 1.218 5.414 1.266.324.008.334.009.334.04 0 .013.006.024.012.024.016 0 .07.053.07.07q.002.01.024.012.023 0 .023.023.001.021.012.023c.022 0 .07.057.07.082s.019.033.027.01q.004-.016.027.007t.008.027c-.024.008-.017.027.009.027.03 0 .081.05.081.081 0 .013.006.024.012.024a.012.012 0 0 0 .012-.012q0-.01.012-.011.01.002.011.023c0 .013.006.024.012.024.016 0 .094.077.094.093q.002.011.023.012c.013 0 .024.005.024.012a.012.012 0 0 1-.012.012.012.012 0 0 0-.012.011c0 .007.011.012.024.012.031 0 .082.05.082.081q.001.023.011.024a.012.012 0 0 0 .012-.011q0-.011.012-.012c.006 0 .012.016.012.035s.005.035.012.035c.016 0 .07.054.07.07 0 .007.015.012.035.012s.035.006.035.012a.012.012 0 0 1-.012.012q-.01.002-.011.023 0 .024.023.024c.025 0 .082.048.082.07 0 .017.02.015.026-.003q.005-.015.028.008t.007.027c-.017.006-.02.027-.002.027.021 0 .07.056.07.081 0 .013.005.024.012.024a.012.012 0 0 0 .011-.012q.002-.01.024-.011.023 0 .023.023 0 .021-.012.023a.012.012 0 0 0-.011.012q.002.011.024.012c.025 0 .081.048.081.07 0 .016.02.016.026 0 .002-.008.014-.002.026.011q.019.022.009.024-.013.002-.014.012.002.01.012.012c.022 0 .07.056.07.081 0 .027.041.035.05.01q.007-.015.015.008.01.022-.004.027c-.023.008-.016.026.01.026.013 0 .037.013.053.029.015.016.028.04.028.053 0 .025.019.033.027.01q.004-.013.027-.005.022.01.008.015c-.018.007-.02.027-.002.027s.046.03.046.052q0 .017.012.018.01.001.011.018 0 .018.035.018c.035 0 .049.017.021.026q-.016.004.005.024c.01.011.023.02.027.02.01 0 .041.031.041.04 0 .005.009.017.02.028q.02.021.024.005c.01-.028.027-.014.027.02 0 .02.005.036.012.036.016 0 .07.054.07.07 0 .006.018.012.04.012s.043.005.047.011q.006.011-.005.012T15 20.72q0 .021.012.023c.016 0 .07.054.07.07s.02.015.026-.002q.005-.015.027.007.024.023.008.028c-.017.005-.02.026-.002.026.015 0 .07.054.07.069 0 .006.014.013.032.015.025.003.033.01.036.036.002.018.009.032.015.032.015 0 .07.055.07.07s.02.016.025 0c.002-.007.014-.002.026.011.012.014.016.025.008.025q-.012.001-.013.011 0 .011.012.012c.013 0 .07.053.07.065 0 .004.009.016.02.027q.02.02.024.005c.01-.03.026 0 .026.051 0 .067.02.087.087.087.063 0 .082.02.028.028-.114.02-.76.086-1.081.112a25 25 0 0 1-.903.049c-.107.002-.11.003-.047.01.046.005-.01.008-.159.01-.126 0-.308.003-.404.006a19 19 0 0 1-.486 0zm-2.174-5.564-.293-.076a7.2 7.2 0 0 1-2.18-.943c-.85-.562-1.426-1.195-1.852-2.037a6.3 6.3 0 0 1-.52-1.433 5 5 0 0 1-.099-.555q.007-.005.013.008t.016.015c.012 0 .093.076.093.088 0 .009.055.064.064.064a.2.2 0 0 1 .064.064c0 .01.056.065.065.065a.3.3 0 0 1 .088.093q0 .011.012.012.01.002.011.024 0 .023.024.023c.031 0 .082.05.082.082q0 .024.023.024.024 0 .024.023 0 .024.024.024c.021 0 .081.047.081.064 0 .004.013.02.029.036a.1.1 0 0 0 .036.028c.017 0 .064.06.064.082q0 .024.023.024.024 0 .024.023 0 .024.024.024c.013 0 .032.007.041.017a.06.06 0 0 1 .017.04q0 .024.018.025a.06.06 0 0 1 .035.017.06.06 0 0 1 .017.035q.002.016.012.018c.007 0 .026.013.041.029s.03.034.03.04q.002.012.023.013.023 0 .023.024c0 .012.006.023.012.023.007 0 .03.018.053.04.022.023.04.047.04.053 0 .007.011.013.024.013q.021.001.023.011a.012.012 0 0 1-.011.012.012.012 0 0 0-.012.012q.001.01.024.011c.013 0 .037.013.053.03.016.015.028.039.028.052s.006.024.012.024a.012.012 0 0 0 .012-.012q0-.01.012-.012c.006 0 .011.011.011.024q.002.021.012.023a.2.2 0 0 1 .053.04c.023.023.04.047.04.054s.011.012.024.012.024.005.024.011a.012.012 0 0 1-.012.012.012.012 0 0 0-.012.012c0 .006.011.012.024.012s.037.013.053.028.029.04.029.053c0 .026.018.033.026.01q.005-.015.027.007.024.023.008.028c-.023.007-.017.026.01.026.025 0 .081.048.081.07q.002.01.023.012c.019 0 .024.008.024.035 0 .02.005.035.012.035s.025.013.041.029.029.034.029.041c0 .017.02.015.026-.002q.005-.015.028.008.023.022.007.027c-.017.006-.019.026-.002.026.021 0 .07.057.07.082q0 .024.023.024c.013 0 .024-.006.024-.012q.001-.011.011-.012c.007 0 .012.016.012.035s.006.035.012.035c.022 0 .07.057.07.082 0 .013.005.024.012.024a.012.012 0 0 0 .012-.012q.002-.01.023-.012c.013 0 .024.006.024.012a.012.012 0 0 1-.012.012.012.012 0 0 0-.012.012q.002.01.012.011c.007 0 .03.019.053.041.022.022.04.046.04.053 0 .017.02.015.028-.003q.005-.014.014.008.01.023-.004.028c-.023.007-.016.026.01.026.013 0 .037.013.053.029.016.015.028.04.028.052 0 .026.019.033.027.01q.005-.012.027-.004t.008.015c-.025.009-.017.05.01.05.024 0 .08.049.08.07 0 .016.021.016.027 0 .002-.007.014-.002.026.011.012.014.016.025.008.025q-.012.001-.013.011 0 .011.012.012c.02 0 .046.031.046.053 0 .01.009.027.019.038.015.015.02.015.028.003.012-.02.047-.007.047.017q0 .016-.012.018a.012.012 0 0 0-.011.012q0 .01.012.011c.007 0 .025.013.04.03.017.015.03.033.03.04 0 .016.043.016.049 0 .002-.007.014-.002.026.011.012.014.016.025.008.025q-.012.002-.013.023c0 .013.005.024.012.024s.025.013.041.028.029.035.029.041q0 .012.012.013a.012.012 0 0 0 .011-.012q.002-.01.018-.012c.024 0 .037.035.017.047-.012.008-.011.013.004.028.01.01.022.019.026.019s.015.008.024.017.017.02.017.024.008.016.019.026c.014.015.02.016.028.003q.01-.015.03-.006.023.009.008.014c-.018.007-.02.05-.003.05s.07.055.07.072q.002.012.029.008c.03-.005.053.02.026.03q-.014.004.006.024c.01.01.023.02.027.02.01 0 .041.03.041.04 0 .004.009.017.02.027q.019.021.024.006c.009-.026.035-.003.03.026q-.005.029.007.03c.018 0 .071.053.071.07 0 .008.012.012.027.009s.034.002.042.01q.018.018-.004.016-.017.001-.018.011.002.011.012.012c.007 0 .012.016.012.036s.007.044.017.053c.02.02.084.022.09.003q.006-.012.027.009t.008.026c-.02.006-.016.071.005.092q.018.018.068.014c.028-.002.056 0 .061.006.006.006.01.034.007.061q-.004.052.014.069c.02.02.085.024.092.005q.005-.013.026.008t.008.026c-.02.007-.015.087.006.114q.019.024.024.009c.008-.021.069-.019.09.003q.02.02.02.076v.058h.051q.096 0 .081.03-.004.016.007.017c.018 0 .016.056-.002.062q-.015.004.008.027.023.024.027.008c.006-.018.062-.02.062-.002q.001.011.016.007.032-.015.03.08c0 .052.001.052.04.052.023 0 .044.007.047.015q.008.016.014 0c.015-.032.034 0 .03.05q-.004.052.014.07c.022.022.109.024.117.003q.007-.013.007.006.002.018.022.021.018.002.005.007c-.008.004-.014.027-.014.058 0 .051 0 .052.04.052.022 0 .043.006.046.014.005.012.008.012.017 0 .008-.013.014-.012.03.004.015.015.017.022.007.029q-.016.008.002.015c.017.007 0 .009-.02.002" style="fill:#d7d7f4" transform="translate(2.658 3.375)scale(.64583)"/>
<path d="M12.419 21.589c.053-.002.14-.002.193 0s.01.004-.096.004c-.107 0-.15-.002-.097-.004m-.19-.023-.305-.015c-2.028-.102-3.894-.512-5.49-1.207a17 17 0 0 1-.99-.487 10.3 10.3 0 0 1-2.96-2.425c-.828-.99-1.451-2.064-1.844-3.176-.335-.95-.52-2.022-.58-3.363a19 19 0 0 1-.027-.997L.03 9.463l-.007.369q-.006.37-.006-.422c0-.577.002-.68.006-.38l.007.41.002-.49c.002-.269.006-.49.01-.49.03 0 .054.076.027.085q-.013.006.008.026.021.021.026.009c.016-.047.108.02.108.079 0 .057.008.067.052.062a.088.088 0 0 1 .098.098q-.005.039.01.046.015.004.016-.006c0-.025.05-.009.088.03.038.037.055.088.03.088q-.011 0-.006.015.006.015.046.01a.09.09 0 0 1 .098.097c-.005.05.004.06.055.055.053-.004.075.02.075.08 0 .05.021.07.07.07.014 0 .039.014.055.03.025.026.029.037.022.072l-.007.04.04-.007c.035-.007.047-.003.073.023.024.024.03.04.027.07-.006.048.008.062.056.056a.088.088 0 0 1 .096.098q-.005.039.01.046.014.004.015-.006c0-.025.05-.009.089.03.038.038.054.088.029.088q-.01.001-.005.015.006.015.045.01a.088.088 0 0 1 .098.098q-.005.04.01.046.015.004.016-.006c0-.025.05-.008.088.03s.055.088.03.088q-.011.001-.006.016.007.015.034.01c.04-.007.116.07.109.11-.003.015-.001.028.004.028.006 0 .01.01.011.02q0 .02.007.006c.018-.045.11.018.11.077q0 .062.06.061c.02 0 .046.012.063.029.03.03.04.077.016.077q-.015 0 0 .017.015.015.048.01c.027-.005.041.001.077.037s.042.049.036.077c-.007.033-.005.034.034.034.056 0 .099.043.099.1 0 .039.002.04.034.034.029-.006.042 0 .078.036s.042.049.036.077c-.006.033-.005.035.035.035.044 0 .075.021.075.052q0 .017.012.018c.006 0 .011.015.011.034q-.001.049.055.048c.028 0 .074.055.074.088 0 .04.025.064.064.064.043 0 .089.049.089.094 0 .032.003.035.035.035.045 0 .093.046.093.088 0 .04.025.065.065.065.042 0 .088.048.088.093 0 .03.004.036.028.036.026 0 .028.005.042.114.082.664.358 1.55.688 2.21.677 1.353 1.766 2.476 3.144 3.242.3.167.758.383 1.123.529a16 16 0 0 0 1.395.45.3.3 0 0 1 .09.046c.03.03.038.071.016.079-.007.002-.002.014.012.026.013.012.024.016.024.008 0-.023.047-.014.077.016a.1.1 0 0 1 .029.062c0 .038.018.061.05.061.03 0 .079.052.079.085 0 .04.027.068.063.068.043 0 .089.048.089.093 0 .032.004.036.036.036.049 0 .116.067.116.116 0 .032.004.036.036.036.022 0 .047.01.064.029a.1.1 0 0 1 .03.064c0 .032.003.036.035.036.049 0 .117.068.117.117 0 .031.003.035.035.035.045 0 .094.046.094.088 0 .04.025.064.064.064.04 0 .064.025.064.065 0 .034.047.088.077.088.024 0 .076.052.076.076 0 .025.028.053.052.053.025 0 .077.052.077.076s.052.076.076.076.076.052.076.077c0 .024.028.052.052.052.025 0 .1.076.1.1s.028.052.053.052.076.052.076.077c0 .024.052.076.076.076.025 0 .077.052.077.076 0 .018.05.076.064.076.01 0 .041.031.041.04s.08.089.088.089c.009 0 .064.055.064.064s.08.088.088.088c.01 0 .065.056.065.065a.4.4 0 0 0 .112.104q.016.017.017.024c0 .01.079.089.088.089.003 0 .02.012.035.028a.1.1 0 0 1 .029.036.4.4 0 0 0 .112.105c.01.009.017.02.017.023a.2.2 0 0 0 .04.048.2.2 0 0 0 .048.04c.016 0 .04.036.04.059q.001.022.019.024c.046 0 .098.094.06.11q-.015.005.01.024c.013.011.025.014.027.007.007-.022.05-.013.08.017l.029.03-.285-.003a13 13 0 0 1-.343-.005z" style="fill:#d7d7f4" transform="translate(2.658 3.375)scale(.64583)"/>
<path d="M10.47 21.391c-.016-.016-.033-.028-.036-.024-.003.003.003.014.014.024.017.018.017.02-.006.02-.013 0-.091-.011-.173-.024l-.349-.053a14.5 14.5 0 0 1-3.545-1.02c-.249-.11-.857-.415-1.079-.542a10.2 10.2 0 0 1-2.725-2.242c-.863-1.006-1.502-2.09-1.916-3.244a10 10 0 0 1-.473-2.012 16 16 0 0 1-.112-1.297l-.011-.209.028-.028c.037-.037.059-.037.095 0 .029.029.041.1.017.1q-.01.002-.012.023 0 .024.024.024.021-.001.023-.012c0-.024.072-.012.1.017.036.035.037.061.005.09-.023.02-.024.022-.006.04s.021.018.04-.005c.028-.03.072-.033.072-.004 0 .011.01.028.024.038.024.017.034.093.011.093a.012.012 0 0 0-.011.012q.002.011.023.012c.013 0 .024-.005.024-.012 0-.026.05-.01.088.03.038.037.055.087.029.087-.007 0-.012.011-.012.024q0 .021.012.023a.012.012 0 0 0 .012-.011c0-.024.07-.012.1.017.029.028.04.1.017.1a.012.012 0 0 0-.012.011q.002.011.023.012c.013 0 .024-.005.024-.012 0-.025.05-.009.088.03.038.038.055.088.03.088q-.012.002-.013.023c0 .013.006.024.012.024a.012.012 0 0 0 .012-.012c0-.024.071-.012.1.017s.04.094.014.103q-.016.004.008.027.023.024.027.008c.009-.025.072-.017.103.014.029.029.04.077.017.077q-.01.002-.011.023 0 .024.023.024.021-.001.023-.012c0-.022.049-.012.077.017.031.03.04.095.014.103q-.015.005.008.027.023.023.027.008c.008-.024.05-.016.08.014.021.021.029.042.029.077v.047h.047c.065 0 .105.04.105.105 0 .026.005.047.012.047a.012.012 0 0 0 .012-.011c0-.026.05-.01.088.029.038.038.055.088.029.088a.012.012 0 0 0-.012.012c0 .006.021.011.048.011.065 0 .104.04.104.105 0 .026.006.048.012.048a.012.012 0 0 0 .012-.012c0-.026.05-.01.088.029.041.04.053.082.026.09q-.015.005.008.028.023.024.027.008c.008-.024.05-.017.08.014.021.021.029.042.029.076 0 .045.001.048.035.048.045 0 .094.046.094.088 0 .04.025.064.064.064.042 0 .088.049.088.093 0 .032.004.036.036.036.044 0 .093.046.093.088 0 .04.025.064.064.064.042 0 .088.049.088.094 0 .032.004.035.036.035.049 0 .117.068.117.117 0 .032.003.036.035.036a.1.1 0 0 1 .093.093c0 .032.004.036.036.036.046 0 .117.067.117.111 0 .035.024.064.052.064.025 0 .077.052.077.077 0 .024.028.052.052.052s.077.052.077.076c0 .025.052.077.076.077s.076.052.076.076c0 .01.007.027.017.036a.06.06 0 0 0 .035.016c.025 0 .077.052.077.077 0 .024.052.076.076.076s.076.052.076.076c0 .025.028.053.052.053.025 0 .1.075.1.1s.03.052.058.052q.025 0 .025.024c0 .012.005.023.011.023.007 0 .012.013.012.03q0 .03.02.029c.012 0 .03.01.039.023q.015.021.026.023a.2.2 0 0 1 .067.065c0 .009.08.088.088.088.01 0 .065.055.065.064a.2.2 0 0 0 .064.065c.01 0 .065.055.065.064s.079.088.088.088c.01 0 .064.056.064.067q.002.01.023.027c.013.01.024.026.024.038q0 .02.024.02c.023 0 .058.025.058.04 0 .01.079.09.088.09.01 0 .064.055.064.064 0 .005.016.023.035.04.041.04.045.066.012.095-.023.02-.023.022-.004.04q.02.02.025.008c.006-.02.095-.016.115.003.018.019.023.09.006.09s-.022.028-.006.043c.012.011.019.01.032-.003.028-.027.07-.02.105.015.03.032.043.073.021.073-.017 0-.022.057-.005.064q.015.004.016-.006c0-.017.093-.013.112.006.02.02.022.108.003.115-.008.002-.01.013-.006.025.008.02.01.02.03-.003.029-.034.078-.032.113.004.036.035.037.084.004.113-.023.02-.024.022-.004.03q.021.007.026-.006c.007-.02.095-.017.115.003s.023.108.003.115q-.013.005-.004.027.008.023.014.008c.003-.008.016-.014.028-.014q.021-.002.023-.012c0-.022.048-.012.076.017.036.035.038.088.006.112-.021.015-.022.018-.004.037.018.02.02.02.04-.002q.037-.047.087.005c.03.03.04.095.015.103-.019.006-.002.044.02.044q.016-.001.018-.011c0-.024.07-.012.1.017q.051.052.005.088c-.021.015-.021.018-.004.037.018.02.02.02.04-.002q.037-.047.088.006c.031.031.04.116.014.127q-.015.005.008.014.022.01.027-.004c.008-.025.073-.016.103.015.029.029.04.1.017.1q-.01.002-.012.023c0 .013.004.024.01.024.004 0 .016-.01.025-.024.025-.034.054-.029.1.018.047.046.052.075.018.1q-.045.033 0 .035.021-.001.023-.012c0-.024.071-.012.1.017s.041.1.017.1q-.01.002-.011.024.001.021.011.023a.012.012 0 0 0 .012-.012c0-.024.071-.011.1.017.03.031.04.095.014.103q-.015.005.008.028t.027.008c.009-.026.073-.017.103.014.03.028.04.076.018.076-.007 0-.012.011-.012.024q0 .023.023.023c.013 0 .024-.005.024-.011 0-.023.048-.012.076.017.031.03.04.094.015.103q-.015.004.007.027.023.023.028.008c.008-.026.072-.017.103.014.029.029.04.1.017.1a.012.012 0 0 0-.012.012q.002.01.023.012c.013 0 .024-.006.024-.012 0-.026.05-.01.088.029.039.038.055.088.03.088q-.012.002-.013.023c0 .013.006.024.012.024a.012.012 0 0 0 .012-.012c0-.024.071-.012.1.017s.04.1.017.1a.012.012 0 0 0-.012.012q.002.01.024.012.021 0 .023-.012c0-.026.05-.01.088.029.039.038.055.088.03.088q-.011.002-.012.024.001.021.011.023a.012.012 0 0 0 .012-.012c0-.025.05-.009.088.03.041.04.053.082.026.09q-.015.005.008.028t.028.008c.007-.024.048-.017.08.014.02.02.028.041.028.076v.047h.047c.035 0 .055.008.076.03.031.03.039.07.015.079q-.015.004.008.027.022.024.027.008c.008-.024.049-.017.08.014.02.021.028.041.028.076v.048h.048c.034 0 .055.007.076.028s.028.042.028.076c0 .027.006.048.012.048a.012.012 0 0 0 .012-.012c0-.026.05-.01.088.03.039.037.055.087.03.087a.012.012 0 0 0-.013.012c0 .006.024.012.053.012.043 0 .053.004.053.02 0 .012.01.03.023.038q.024.017.024.056c0 .035.003.038.035.038a.1.1 0 0 1 .094.093c0 .032.003.036.035.036.05 0 .117.068.117.117 0 .032.004.035.036.035.044 0 .093.046.093.089 0 .039.025.064.064.064.042 0 .088.048.088.093 0 .032.004.036.036.036.045 0 .093.046.093.088 0 .039.025.064.064.064.04 0 .088.049.088.088 0 .035.025.064.053.064.024 0 .076.052.076.077 0 .024.028.052.053.052s.1.076.1.1.028.053.052.053c.025 0 .077.052.077.076s.052.076.076.076.076.052.076.076c0 .025.028.053.052.053.025 0 .077.052.077.076s.052.076.076.076.076.052.076.077.029.052.058.052q.023 0 .024.021c0 .011.01.028.024.038.013.009.023.021.023.027s.011.02.025.033l.026.022h-.043a.1.1 0 0 1-.072-.03zm-.146-.145c0-.006-.012-.011-.026-.01-.025 0-.025 0-.003.01l.026.011q.003-.001.003-.01m-.152-.14c0-.013-.005-.024-.01-.024q-.01.002-.005.023c.003.013.008.024.01.024q.005-.002.005-.024m-.129-.141c0-.007-.01-.012-.02-.012q-.026-.002-.003.012c.022.014.023.014.023 0m-.152-.152q-.001-.011-.013-.012-.01 0-.005.012.007.01.012.011t.006-.012m-.282-.282q0-.01-.012-.011-.011.001-.005.011.007.011.012.012.005 0 .005-.012m-.28-.281q-.001-.01-.013-.012-.011.001-.005.012.007.01.012.012.005-.001.005-.012m-4.395-4.543a.1.1 0 0 0-.019-.024c-.015-.015-.02-.016-.028-.003-.012.018.011.046.032.038q.013-.005.015-.011m-.157-.164c-.003-.003-.015-.004-.026-.002-.02.004-.02.005.002.027.02.02.023.02.026.002.003-.012.002-.024-.002-.027m-.154-.154q-.007-.005-.018.01-.01.016.004.025c.015.01.028-.022.014-.035m-.123-.12c0-.006-.01-.011-.02-.011q-.026-.002-.003.012c.022.014.023.014.023 0m-.152-.146q0-.017-.012-.018-.01.002-.004.018.006.017.011.018.005-.002.005-.018m-.13-.135q-.001-.01-.02-.011-.026-.001-.003.011c.022.015.024.015.024 0m-.152-.14q.001-.025-.026-.022-.03 0-.006.006c.011.003.02.013.02.022q0 .016.007.017.005-.002.005-.023m-.145-.16q-.018-.016-.026-.013c-.003.003.003.015.014.025s.022.017.025.014-.002-.015-.013-.025m-.136-.122q.001-.024-.026-.022-.03.001-.006.007c.011.003.02.013.02.022q0 .016.006.017.006-.002.006-.024m-.145-.159c-.011-.01-.023-.017-.026-.013q-.003.006.014.025c.01.01.022.017.025.014s-.003-.015-.013-.026m-.85-.848c0-.007-.007-.012-.013-.012q-.011 0-.006.012.007.01.013.011.005-.001.005-.011m-2.731-2.9c0-.017.005-.03.011-.03.007 0 .012.013.012.03 0 .015-.005.029-.012.029-.006 0-.011-.014-.011-.03" style="fill:#d7d7f4" transform="translate(2.658 3.375)scale(.64583)"/>
<path d="M8.396 21.007a13.5 13.5 0 0 1-1.863-.63c-1.411-.61-2.545-1.372-3.508-2.36-1.046-1.072-1.872-2.37-2.346-3.682a9 9 0 0 1-.421-1.628c-.052-.314-.052-.309-.035-.309.006 0 .011.016.011.034 0 .047.072.119.119.119.03 0 .034.004.034.035a.1.1 0 0 0 .093.094c.032 0 .036.003.036.035 0 .05.067.117.116.117.032 0 .036.004.036.036 0 .044.046.093.088.093.04 0 .064.025.064.064 0 .042.049.088.094.088.033 0 .035.003.035.048 0 .034.008.055.029.076.03.03.072.038.08.014q.004-.015.027.008.024.023.008.027c-.05.017.039.132.102.132.032 0 .035.004.035.036a.1.1 0 0 0 .094.093c.032 0 .035.004.035.035 0 .05.068.117.117.117.032 0 .036.004.036.036a.1.1 0 0 0 .093.093c.032 0 .036.004.036.036 0 .055.067.116.128.116.026 0 .047.006.047.012a.012.012 0 0 1-.011.012q-.011.001-.012.024c0 .034.052.081.088.081s.08.036.055.044c-.023.008-.016.05.015.08.02.021.041.029.076.029h.047v.047c0 .035.008.055.029.076.03.031.072.038.08.014q.004-.015.027.008t.008.028c-.027.008-.015.05.026.09.038.039.088.055.088.03q0-.011.012-.012c.006 0 .011.021.011.047 0 .035.008.055.03.076.02.022.04.03.075.03.026 0 .048.005.048.011a.012.012 0 0 1-.012.012c-.026 0-.01.05.029.088.038.038.088.055.088.029q.001-.011.012-.012c.006 0 .012.021.012.048 0 .034.007.055.028.076s.042.028.077.028c.026 0 .047.006.047.012a.012.012 0 0 1-.012.012c-.024 0-.011.071.017.1.031.03.095.04.103.014q.005-.015.028.008t.008.027c-.026.009-.017.073.014.103.03.03.071.039.08.015.006-.019.043-.002.043.02q-.001.016-.011.018c-.023 0-.012.048.017.076.03.03.094.04.102.016.002-.007.014-.001.026.012q.019.022.009.024c-.026 0-.015.07.015.1.03.032.094.04.104.015q.005-.015.014.008.01.022-.004.027c-.026.009-.014.05.027.091.04.04.082.053.09.027q.006-.013.028-.005.023.01.008.015c-.025.01-.017.073.014.104.031.03.094.04.104.014q.005-.015.015.008t-.005.027c-.026.01-.014.05.027.091.04.041.082.053.091.027q.005-.013.027-.004.023.009.008.015c-.027.01-.017.095.015.127.035.035.06.036.09.003.017-.02.021-.022.021-.006 0 .01.01.02.02.02.016 0 .015.003-.006.021-.033.029-.032.055.003.09.03.03.095.04.103.016q.005-.012.026.008.021.021.008.026c-.024.008-.014.073.016.103.028.028.076.04.076.018 0-.018.03-.022.044-.006.012.012.011.019-.003.033-.025.025-.021.05.012.084.03.03.094.04.102.015q.005-.012.026.009t.009.025c-.025.009-.015.073.015.103s.072.038.08.014q.003-.015.031-.002c.025.011.026.014.008.031-.027.027-.024.053.011.087.025.025.039.03.082.026q.051-.005.058.01.004.014-.006.015c-.006 0-.012.016-.012.035 0 .026.015.05.057.094.03.032.065.059.076.059s.02.008.02.018c0 .024.18.204.204.204q.018 0 .018.03c0 .023.006.029.03.029q.03 0 .03.019c0 .01.015.033.034.051s.035.037.035.041c0 .01.032.041.042.041.004 0 .022.016.04.035s.042.036.052.036q.019 0 .019.029c0 .023.006.03.029.03q.03 0 .03.018c0 .01.015.033.034.052s.036.036.036.04c0 .01.03.042.04.042.015 0 .042.033.042.051q.002.018.023.019.023 0 .024.021c0 .026.084.108.11.108q.017.002.018.02c0 .026.058.085.085.085q.02 0 .02.024 0 .023.024.023.023.001.024.02c0 .021.048.086.063.086.01 0 .066.054.066.064 0 .017.06.065.081.065q.024 0 .024.023t.024.023.023.024c0 .031.05.082.082.082q.024 0 .024.023c0 .013.005.024.011.024q.011 0 .012.012a.3.3 0 0 0 .088.093.2.2 0 0 1 .064.065c0 .017.06.064.082.064q.024 0 .024.024c0 .012.005.023.011.023.007 0 .012.01.012.021 0 .024.058.084.08.084.02 0 .073.054.073.074s.06.079.08.079.048.03.048.052c0 .025.052.077.077.077.024 0 .076.052.076.076s.052.076.076.076c.025 0 .053.028.053.052 0 .025.075.1.1.1.024 0 .052.029.052.053s.052.076.077.076c.028 0 .052.03.052.064 0 .043.049.089.093.089.032 0 .036.003.036.035q-.001.036.04.076.041.042.077.041c.031 0 .035.004.035.036 0 .044.046.093.088.093.017 0 .039.007.048.017.009.009.017.03.017.047 0 .042.048.088.093.088.032 0 .035.004.035.036 0 .045.046.093.089.093.017 0 .038.008.047.017s.017.03.017.047c0 .043.048.089.093.089.032 0 .036.003.036.035 0 .05.067.117.117.117.02 0 .035.005.035.012a.012.012 0 0 1-.012.011c-.025 0-.01.05.03.089.038.038.088.054.088.028q.001-.01.011-.011c.007 0 .012.021.012.047 0 .065.04.105.105.105.026 0 .047.005.047.012a.012.012 0 0 1-.011.012c-.007 0-.012.013-.012.029s.005.03.012.03q.01 0 .011.01c0 .017.008.018-.216-.04M4.734 16.98q.002-.01.018-.005.016.007.018.012-.002.003-.018.004-.016-.001-.018-.011" style="fill:#d7d7f4" transform="translate(2.658 3.375)scale(.64583)"/>
</g>
</svg>
