<svg xmlns="http://www.w3.org/2000/svg" xmlns:xlink="http://www.w3.org/1999/xlink" xml:space="preserve" width="24" height="24" fill="none">
<defs>
<linearGradient id="a">
<stop offset="0" style="stop-color:#ececec;stop-opacity:1"/>
<stop offset="1" style="stop-color:#fff;stop-opacity:1"/>
</linearGradient>
<linearGradient xlink:href="#a" id="d" x1="13.313" x2="12.688" y1="34.75" y2="-9.688" gradientUnits="userSpaceOnUse"/>
<linearGradient xlink:href="#a" id="e" x1="13.313" x2="12.688" y1="34.75" y2="-9.688" gradientUnits="userSpaceOnUse"/>
<radialGradient id="b" cx="0" cy="0" r="1" gradientTransform="matrix(0 22 -22 0 12 1)" gradientUnits="userSpaceOnUse">
<stop offset="0" stop-color="#8FC8FF" style="stop-color:#f2f2f2;stop-opacity:1"/>
<stop offset="1" stop-color="#0056A8" style="stop-color:#ccc;stop-opacity:1"/>
</radialGradient>
<radialGradient xlink:href="#b" id="c" cx=".179" cy="-1.748" r="1" fx=".179" fy="-1.748" gradientTransform="matrix(0 22.01454 -22.00166 0 -26.468 -2.958)" gradientUnits="userSpaceOnUse"/>
</defs>
<path d="M12 1C2 1 1 6 1 12c0 8 3 11 11 11s11-3 11-11c0-6-1-11-11-11" style="font-variation-settings:normal;display:inline;opacity:1;vector-effect:none;fill:url(#c);fill-opacity:1;stroke-width:1.11627;stroke-linecap:butt;stroke-linejoin:miter;stroke-miterlimit:4;stroke-dasharray:none;stroke-dashoffset:0;stroke-opacity:1;-inkscape-stroke:none;stop-color:#000;stop-opacity:1"/>
<g style="display:inline;fill:url(#d);fill-opacity:1">
<path d="M50 5C9.09 5 5 25.455 5 50c0 32.727 12.273 45 45 45s45-12.273 45-45c0-24.545-4.09-45-45-45" style="font-variation-settings:normal;display:inline;opacity:1;vector-effect:none;fill:url(#e);fill-opacity:1;stroke-width:4.56656;stroke-linecap:butt;stroke-linejoin:miter;stroke-miterlimit:4;stroke-dasharray:none;stroke-dashoffset:0;stroke-opacity:1;-inkscape-stroke:none;stop-color:#000;stop-opacity:1" transform="translate(-1 -1)scale(.26)"/>
</g>
<path fill="#05a5f9" d="M6.617 16.14V7.86h1.656V6.616H5.375v10.766h2.898V16.14zm9.11 0V7.86H14.07V6.616h2.899v10.766H14.07V16.14z" style="isolation:isolate;stroke-width:.38456"/>
<path fill="#fff" d="m9.41 8.289-1.114.546 2.842 5.805q-.141.27-.295.531a4 4 0 0 1-.6.803 1 1 0 0 1-.203.153.1.1 0 0 1-.038.013h-.488v1.242h.513a1.3 1.3 0 0 0 .622-.17 2 2 0 0 0 .48-.368 5.3 5.3 0 0 0 .79-1.052 14 14 0 0 0 .708-1.367 30 30 0 0 0 .646-1.54q.546-1.41.999-2.853a36 36 0 0 0 .397-1.296l-1.197-.343a34 34 0 0 1-.385 1.262 43 43 0 0 1-.973 2.782 25 25 0 0 1-.304.755z" style="isolation:isolate;fill:#333;fill-opacity:1;stroke:#313131;stroke-width:.362214"/>
<path fill="#05a5f9" d="M18.625 8.895a.621.621 0 1 1-1.242 0 .621.621 0 0 1 1.242 0m0 6.21a.621.621 0 1 1-1.242 0 .621.621 0 0 1 1.242 0" style="isolation:isolate;stroke-width:.38456"/>
</svg>
