<svg xmlns="http://www.w3.org/2000/svg" xmlns:xlink="http://www.w3.org/1999/xlink" xml:space="preserve" width="24" height="24" fill="none">
<defs>
<linearGradient id="a">
<stop offset="0" style="stop-color:#56606e;stop-opacity:1"/>
<stop offset="1" style="stop-color:#ccc;stop-opacity:1"/>
</linearGradient>
<linearGradient xlink:href="#a" id="d" x1="13.313" x2="12.688" y1="34.75" y2="-9.688" gradientUnits="userSpaceOnUse"/>
<linearGradient xlink:href="#a" id="e" x1="13.313" x2="12.688" y1="34.75" y2="-9.688" gradientUnits="userSpaceOnUse"/>
<radialGradient id="b" cx="0" cy="0" r="1" gradientTransform="matrix(0 22 -22 0 12 1)" gradientUnits="userSpaceOnUse">
<stop offset="0" stop-color="#8FC8FF" style="stop-color:#f2f2f2;stop-opacity:1"/>
<stop offset="1" stop-color="#0056A8" style="stop-color:#ccc;stop-opacity:1"/>
</radialGradient>
<radialGradient xlink:href="#b" id="c" cx=".179" cy="-1.748" r="1" fx=".179" fy="-1.748" gradientTransform="matrix(0 22.01454 -22.00166 0 -26.468 -2.958)" gradientUnits="userSpaceOnUse"/>
</defs>
<path d="M12 1C2 1 1 6 1 12c0 8 3 11 11 11s11-3 11-11c0-6-1-11-11-11" style="font-variation-settings:normal;display:inline;opacity:1;vector-effect:none;fill:url(#c);fill-opacity:1;stroke-width:1.11627;stroke-linecap:butt;stroke-linejoin:miter;stroke-miterlimit:4;stroke-dasharray:none;stroke-dashoffset:0;stroke-opacity:1;-inkscape-stroke:none;stop-color:#000;stop-opacity:1"/>
<g style="display:inline;fill:url(#d);fill-opacity:1">
<path d="M50 5C9.09 5 5 25.455 5 50c0 32.727 12.273 45 45 45s45-12.273 45-45c0-24.545-4.09-45-45-45" style="font-variation-settings:normal;display:inline;opacity:1;vector-effect:none;fill:url(#e);fill-opacity:1;stroke-width:4.56656;stroke-linecap:butt;stroke-linejoin:miter;stroke-miterlimit:4;stroke-dasharray:none;stroke-dashoffset:0;stroke-opacity:1;-inkscape-stroke:none;stop-color:#000;stop-opacity:1" transform="translate(-1 -1)scale(.26)"/>
</g>
<g stroke-width=".942">
<path fill="#05a5f9" d="M19.628 42.982V22.696h4.057v-3.043h-7.1v26.372h7.1v-3.043zm22.314 0V22.696h-4.057v-3.043h7.1v26.372h-7.1v-3.043z" style="isolation:isolate" transform="translate(-1.396 -1.406)scale(.40824)"/>
<path fill="#fff" d="m25.494 22.348-2.897 1.42 7.39 15.096c-.247.466-.499.93-.766 1.383-.431.764-.96 1.463-1.563 2.088a2.4 2.4 0 0 1-.527.398.2.2 0 0 1-.098.033h-1.27v3.23h1.335a3.4 3.4 0 0 0 1.617-.44 5.4 5.4 0 0 0 1.248-.96 13.8 13.8 0 0 0 2.056-2.734 37 37 0 0 0 1.842-3.555 77 77 0 0 0 1.68-4.006c.948-2.444 1.81-4.921 2.596-7.42a94 94 0 0 0 1.033-3.37l-3.112-.893a89 89 0 0 1-1.002 3.283 113 113 0 0 1-2.53 7.236 64 64 0 0 1-.79 1.963z" style="isolation:isolate" transform="translate(-.393 -.304)scale(.38452)"/>
<path fill="#05a5f9" d="M49.042 25.232a1.522 1.522 0 1 1-3.043 0 1.522 1.522 0 0 1 3.043 0m0 15.214a1.522 1.522 0 1 1-3.043 0 1.522 1.522 0 0 1 3.043 0" style="isolation:isolate" transform="translate(-1.396 -1.406)scale(.40824)"/>
</g>
</svg>
