<svg xmlns="http://www.w3.org/2000/svg" xml:space="preserve" width="24" height="24" viewBox="0 0 6.35 6.35">
<defs>
<radialGradient id="a" cx="0" cy="0" r="1" fx="0" fy="0" gradientTransform="rotate(90 9.63 9.895)scale(5.82072)" gradientUnits="userSpaceOnUse" spreadMethod="pad">
<stop offset="0" style="stop-opacity:1;stop-color:#555"/>
<stop offset="1" style="stop-opacity:1;stop-color:#222"/>
</radialGradient>
</defs>
<path d="M18.888.295a.3.3 0 0 0 .091-.012q.57-.037 1.14.002a3.6 3.6 0 0 1 1 .225q.804.33 1.101 1.148.169.492.2 1.011.042.653-.03 1.304a3.2 3.2 0 0 1-.237.878q-.338.731-1.094 1.008a4.1 4.1 0 0 1-1.262.218 5.6 5.6 0 0 1-1.442-.109q-1.314-.292-1.62-1.602a5 5 0 0 1-.12-1.194 5 5 0 0 1 .137-1.266Q17.074.682 18.307.389q.287-.071.581-.094" style="fill:url(#a);fill-rule:evenodd;stroke:none;stroke-width:.352771" transform="translate(-16.35)"/>
<path d="m19.423 3.11.223-.007-.113.211z" style="fill:#2b3b6a;fill-opacity:1;fill-rule:nonzero;stroke:none;stroke-width:.352771" transform="translate(-16.35)"/>
<path d="M20.386 3.164c.822.134.937.34.937.34v.039l-.005.022c-.003.01-.086.18-.618.295zm-2.068.668c-.186.499-.091.655-.086.669q.005.009.014.015l.037-.006s.337-.016.73-.583zm1.228-1.906c-.451-.498-.672-.47-.684-.467l-.022.007c-.015.006-.03.057-.03.057s-.096.277.285 1.014z" style="fill:#222856;fill-opacity:1;fill-rule:nonzero;stroke:none;stroke-width:.352771" transform="translate(-16.35)"/>
<path d="M19.935 3.842c.611.706.825.668.825.668l.04.006q.01-.006.013-.015c.01-.014.171-.304-.414-1.334zm-.789.108c-1.26-.054-1.41-.37-1.417-.385l-.003-.02c.003-.022.047-.063.047-.063s.334-.207.89-.318zm.871-1.489c.328-.785.201-.967.201-.967l-.008-.032-.022-.005c-.017-.005-.36-.034-1.085.992z" style="fill:#24426c;fill-opacity:1;fill-rule:nonzero;stroke:none;stroke-width:.352771" transform="translate(-16.35)"/>
<path d="M19.53 4.43c-.446.49-.67.465-.683.465a.3.3 0 0 1-.054-.026l-.547-.353c.229-.051.525-.328.821-.682z" style="fill:#2072ae;fill-opacity:1;fill-rule:nonzero;stroke:none;stroke-width:.352771" transform="translate(-16.35)"/>
<path d="M18.347 2.544c-.199-.516-.101-.678-.095-.688a.2.2 0 0 1 .044-.037l.545-.35c-.048.226.077.576.264.98zm1.147.61q-.41.002-.818.06c.01.016.136.23.227.373.875 1.361 1.285 1.308 1.304 1.303a.2.2 0 0 0 .052-.024l.546-.35c-.372-.08-.889-.693-1.31-1.362Z" style="fill:#26b1ed;fill-opacity:1;fill-rule:nonzero;stroke:none;stroke-width:.352771" transform="translate(-16.35)"/>
<path d="M20.365 3.223c.426.06.798.157.958.32V2.89a.4.4 0 0 0-.005-.06c-.003-.01-.1-.184-.615-.295zm-.366-.772c-.095-.002-.3-.012-.476-.012-1.605 0-1.784.375-1.791.391-.006.018-.006.042-.006.061v.655c.158-.159.5-.246.92-.309q.405-.058.814-.063h.152c-.003 0 .483-.72.387-.723" style="fill:#0e88c8;fill-opacity:1;fill-rule:nonzero;stroke:none;stroke-width:.352771" transform="translate(-16.35)"/>
<path d="M19.526 3.205c.438-.664.762-1.361.681-1.739l.544.349q.023.015.044.038c.01.016.223.373-.651 1.734-.064.102-.138.245-.16.255-.13-.127-.382-.522-.448-.615z" style="fill:#2072ae;fill-opacity:1;fill-rule:nonzero;stroke:none;stroke-width:.352771" transform="translate(-16.35)"/>
</svg>
