<svg xmlns="http://www.w3.org/2000/svg" xmlns:xlink="http://www.w3.org/1999/xlink" xml:space="preserve" width="24" height="24" viewBox="0 0 6.35 6.35">
<defs>
<linearGradient id="a">
<stop offset="0" style="stop-color:#efc000;stop-opacity:1"/>
<stop offset=".698" style="stop-color:#eab100;stop-opacity:1"/>
<stop offset="1" style="stop-color:#d29b00;stop-opacity:1"/>
</linearGradient>
<linearGradient id="b">
<stop offset="0" style="stop-color:#3a8012;stop-opacity:1"/>
<stop offset="1" style="stop-color:#c1d306;stop-opacity:1"/>
</linearGradient>
<linearGradient xlink:href="#a" id="d" x1="27.25" x2="27.25" y1="48.016" y2="-.037" gradientTransform="translate(.596 .242)scale(.1223)" gradientUnits="userSpaceOnUse"/>
<linearGradient xlink:href="#b" id="c" x1="403.384" x2="414.022" y1="-151.978" y2="-710.738" gradientTransform="translate(-1.623 8.17)scale(.01153)" gradientUnits="userSpaceOnUse"/>
</defs>
<path d="M3.2.265a8 8 0 0 0-.57.018.3.3 0 0 1-.092.012q-.293.023-.581.094Q.725.682.403 1.906a5 5 0 0 0-.137 1.266q-.012.604.118 1.194.307 1.31 1.621 1.602.715.147 1.442.109.65-.01 1.262-.218.756-.277 1.094-1.008.181-.422.237-.878.071-.65.03-1.304a4 4 0 0 0-.2-1.011A1.9 1.9 0 0 0 4.77.51 3.6 3.6 0 0 0 3.768.285q-.285-.02-.57-.02Z" style="color:#000;display:inline;overflow:visible;visibility:visible;fill:#0f2228;fill-opacity:1;fill-rule:nonzero;stroke:none;stroke-width:.0272793;marker:none"/>
<path d="M3.2.265a8 8 0 0 0-.57.018.3.3 0 0 1-.092.012 4 4 0 0 0-.25.028c.09.157.074.434.235.432.085.113-.168.034.015.12.105.08-.111.125.019.195-.15.074.024.384.136.462.183.146.08-.31.285-.334.111-.12.306-.198.445-.319-.135-.01-.215-.09-.086-.14.236.23.059-.108-.072-.162.126-.038.25-.01.232-.11.075-.051.063-.144.012-.196A9 9 0 0 0 3.2.265M1.565.516h-.004l-.016.007a.2.2 0 0 0-.051.054c-.008.118-.003.267-.05.063-.015-.018-.002-.048.009-.074Q1.4.591 1.35.619c-.014.086.05.182.054.211.2.066.312-.042.388.144.18.098.016.266-.063.324.132-.074.363.291.3.088q-.014-.009-.013-.012c.014-.005.198.071.073-.076-.137-.208.01-.093.068-.044.196-.167-.221-.187-.117-.358-.092-.07-.21-.283-.372-.241-.086.104-.046-.135-.103-.139M1.2.712l-.05.035c-.058.124.212.228-.012.324-.037-.133-.101.066-.244-.041l-.068.02a2.2 2.2 0 0 0-.423.856q-.077.315-.111.635a.31.31 0 0 0 .173.215c.045.079.231.412.24.312-.094-.093-.19-.372-.032-.124.142.237.333.39.613.446.152.05.278.219.413.181.076.19-.226.373.01.55.122.18.329.297.217.549-.078.246-.045.514-.112.743-.021.14.204.493.185.21.066-.197.064-.414.22-.553.212.001.04-.217.251-.189.129-.16.166-.35.384-.414.025-.194.36-.492.015-.568-.095-.044-.337-.06-.319-.081.038-.193-.313-.248-.462-.327-.196-.132-.49.22-.56-.083-.041-.095-.192-.097-.123-.244-.125.118-.369.082-.305-.145.094-.186.447-.2.527.008-.067-.244.181-.435.32-.611.03-.087.204-.161.144-.046.102-.004.256-.178.075-.097-.002-.16-.158-.114-.209-.092.094-.14.575-.063.374-.294-.157-.06-.144-.41-.302-.215.014-.12-.321-.356-.314-.154.041.18.007.388-.08.506-.018-.264-.493-.206-.432-.488.089-.134.192-.32.202-.303.159-.057.286-.224.102-.334-.01.095-.138.293-.12.054-.112.127-.094-.178-.187-.24Zm3.793.08q-.008 0-.011.005c-.279.065-.39.317-.527.526-.203.087-.196.46.03.341.062.101-.041.26.136.128.143-.18.025-.47.267-.582.018.088-.224.416.059.362.255.01-.186.024-.062.179-.129-.073-.061.198-.23.135-.145.075-.242-.035-.208-.156-.115.064.036.243-.164.254-.044.15-.41.128-.202.28.092.229-.346.015-.221.289.106.27.329-.09.42-.16.168-.124.417.198.29.23.16-.029.121-.18-.016-.24-.076-.188.242.091.224.185.112.2.066-.203.18-.025-.013.188.459.044.233.284-.193.037-.384-.047-.551.007-.155-.001-.147-.16-.204-.199-.197.016-.441.014-.573.165-.143.186-.35.446-.194.684.156.352.543.018.765.226.066.086-.057.19.09.283.056.2-.063.39.074.581.07.18.115.45.377.285.278-.159.204-.45.433-.613-.181-.333.223-.48.323-.75-.22.03-.416-.177-.469-.387-.092-.101-.068-.251.035-.06.142.13.144.517.407.318.12-.048.448-.23.186-.312-.168.116-.354-.345-.106-.078.136.055.242.093.285.002a8 8 0 0 0-.014-.32 4 4 0 0 0-.2-1.012 2 2 0 0 0-.34-.602c-.027.056-.007.17-.117.175-.015.106-.15.019-.1.12-.104-.071-.193-.293.013-.154.306-.087-.202-.283-.241-.33.058-.014-.04-.066-.077-.064M2.454.855c-.102.08.194.096 0 0M1.092.9c-.114.113.182.104 0 0M.963.904l-.04.04c.03-.004.04-.018.04-.04m.79.107c-.086.134.128.05 0 0m1.89.158c-.1.11-.234-.029-.236.066.018.029.092.234.253.083.086-.035.052-.122-.016-.149zm-2.151.066c-.192.159.325.174.04.019Zm2.526.442c-.133.086.069.265 0 .35-.087.143.321-.01.104-.124-.015-.095-.12-.208-.104-.226m-.09.17c-.193.052-.044.318.024.068.004-.015.009-.068-.025-.068Zm-1.54.193c-.179.116-.028.232.103.18-.027-.07-.102-.114-.103-.18m3.38.195c.089.043-.164.115-.004.19.093.105.058.328-.094.17.028-.177-.205-.308.097-.36Zm-.46.002c-.011.113.258.288-.033.231-.154.017-.384-.004-.19-.186.06-.035.221.12.138-.025.03-.002.058-.012.086-.02zm-.888.244c-.112.069.078.122 0 0m-2.816.64c-.019.059.354.12.097.024l-.039-.012zm.29.085c-.113.11.233.033 0 0m3.79 1c-.246.007-.214.61-.042.253.016-.077.081-.18.042-.252z" style="color:#000;display:inline;overflow:visible;visibility:visible;fill:url(#c);fill-opacity:1;fill-rule:nonzero;stroke:none;stroke-width:.0124121;marker:none"/>
<circle cx="3.175" cy="3.175" r="2.117" fill="#fff" opacity=".15" style="stroke-width:.380963;paint-order:stroke fill markers"/>
<circle cx="3.175" cy="3.175" r="1.512" fill="#fff" opacity=".15" style="stroke-width:.380963;paint-order:stroke fill markers"/>
<path d="M3.99.312a8.8 8.8 0 0 1-.559 2.565 8.5 8.5 0 0 1-1.9 2.94q.218.095.474.153l.072.014a8.5 8.5 0 0 0 1.77-2.414l.321-.745a8.5 8.5 0 0 0 .53-2.34A3.6 3.6 0 0 0 3.99.312" style="fill:url(#d);fill-opacity:1;fill-rule:evenodd;stroke:none;stroke-width:.0124121"/>
<path d="M2.132.35a4 4 0 0 0-.175.038 2.3 2.3 0 0 0-.744.315c.647.38 1.419 1.142 2.081 2.024.35.466.65.976.957 1.434 0 0 .134.149.038-.017l.324-.146c.37-.139.345-.23.2-.423a17 17 0 0 0-.894-1.316C3.369 1.526 2.77.836 2.132.35" style="mix-blend-mode:normal;fill:#ffd517;fill-opacity:1;fill-rule:evenodd;stroke:none;stroke-width:.352771"/>
<path fill="#ffd517" d="M5.405 3.459a.123.172 60.5 0 0-.047.017l-1.56.764a.123.172 60.5 0 0-.096.089.123.172 60.5 0 0 .034.147l.6.306.6.308a.123.172 60.5 0 0 .267-.131l.18-.689.18-.689a.123.172 60.5 0 0-.158-.122" style="stroke-width:.351389"/>
</svg>
