<svg xmlns="http://www.w3.org/2000/svg" xmlns:xlink="http://www.w3.org/1999/xlink" xml:space="preserve" width="24" height="24" fill="none">
<defs>
<linearGradient id="a" x1="110.25" x2="496.14" y1="213.3" y2="436.09" gradientUnits="userSpaceOnUse">
<stop offset="0" style="stop-color:#aa5cc3"/>
<stop offset="1" style="stop-color:#00a4dc"/>
</linearGradient>
<linearGradient xlink:href="#a" id="d" x1="110.25" x2="496.14" y1="213.3" y2="436.09" gradientUnits="userSpaceOnUse"/>
<linearGradient xlink:href="#a" id="c" x1="110.25" x2="496.14" y1="213.3" y2="436.09" gradientUnits="userSpaceOnUse"/>
<radialGradient id="b" cx="0" cy="0" r="1" fx="0" fy="0" gradientTransform="matrix(0 22 -22 0 12 1)" gradientUnits="userSpaceOnUse" spreadMethod="pad">
<stop offset="0" style="stop-color:#595959;stop-opacity:1"/>
<stop offset="1" style="stop-color:#1a1a1a;stop-opacity:1"/>
</radialGradient>
</defs>
<path d="M9.593 1.115q.18 0 .344-.047a32 32 0 0 1 4.308.01 13.7 13.7 0 0 1 3.781.849c2.026.833 3.41 2.281 4.162 4.338.42 1.24.676 2.516.754 3.823a28.3 28.3 0 0 1-.114 4.928 12 12 0 0 1-.896 3.317q-1.276 2.766-4.135 3.812a15.6 15.6 0 0 1-4.767.824 21.3 21.3 0 0 1-5.452-.412c-3.308-.734-5.354-2.754-6.125-6.057a19 19 0 0 1-.448-4.51 18.5 18.5 0 0 1 .516-4.787q1.218-4.625 5.875-5.734a14 14 0 0 1 2.197-.354" style="fill:url(#b);fill-rule:evenodd;stroke:none;stroke-width:1.33333"/>
<path d="M256 201.6c-20.4 0-86.2 119.3-76.2 139.4s142.5 19.9 152.4 0-55.7-139.4-76.2-139.4" style="fill:url(#c)" transform="translate(4.238 4.237)scale(.03033)"/>
<path d="M256 23.3c-61.6 0-259.8 359.4-229.6 420.1s429.3 60 459.2 0S317.6 23.3 256 23.3m150.5 367.5c-19.6 39.3-281.1 39.8-300.9 0S215.7 115.5 256 115.5s170.1 235.9 150.5 275.3" style="fill:url(#d)" transform="translate(4.238 4.237)scale(.03033)"/>
</svg>
