<svg xmlns="http://www.w3.org/2000/svg" width="24" height="24" fill="none">
<path fill="url(#a)" fill-rule="evenodd" d="M9.596 1.114q.18.001.344-.046a32 32 0 0 1 4.307.011q1.951.153 3.78.847 3.038 1.25 4.158 4.34.64 1.86.756 3.824a28 28 0 0 1-.114 4.923 11.9 11.9 0 0 1-.894 3.32q-1.276 2.764-4.135 3.813a15.6 15.6 0 0 1-4.765.825 21.4 21.4 0 0 1-5.453-.412q-4.967-1.107-6.128-6.057a19 19 0 0 1-.447-4.511 18.5 18.5 0 0 1 .515-4.786q1.217-4.629 5.877-5.736a14 14 0 0 1 2.2-.355Z" clip-rule="evenodd"/>
<path stroke="#FAFAFA" stroke-opacity=".125" d="M22.442 10.12v.002a27.5 27.5 0 0 1-.112 4.834 11.4 11.4 0 0 1-.853 3.174c-.795 1.716-2.069 2.891-3.845 3.545a15.1 15.1 0 0 1-4.608.796h-.017a21 21 0 0 1-5.322-.401c-1.58-.353-2.827-1.003-3.77-1.935-.942-.931-1.606-2.17-1.976-3.744A18.6 18.6 0 0 1 1.505 12v-.02a18 18 0 0 1 .5-4.653c.387-1.468 1.039-2.63 1.942-3.513.905-.883 2.085-1.507 3.565-1.859h.003a13.5 13.5 0 0 1 2.1-.341q.207 0 .407-.05a31 31 0 0 1 4.188.014 13 13 0 0 1 3.633.813c1.89.78 3.173 2.119 3.87 4.041a13.7 13.7 0 0 1 .729 3.687Z"/>
<path fill="#FAFAFA" fill-opacity=".125" fill-rule="evenodd" d="m10.145 2.001-.03.002a1.1 1.1 0 0 1-.315.042q-.293.024-.583.06V4.58H5.503V3.274q-.5.3-.929.673v.633h-.63a6.6 6.6 0 0 0-.667.928h1.297V9.22h-2.47q-.066.463-.106.929h2.576v3.712H2.001q.04.465.106.928h2.467v3.715H3.286q.3.5.673.928h.615v.615q.428.372.929.672v-1.287h3.714v2.452q.463.065.928.107v-2.56h3.711V22q.467-.037.929-.105v-2.463h3.712v1.295q.5-.297.929-.67v-.625h.623a6.6 6.6 0 0 0 .67-.928h-1.293v-3.715h2.477l.003-.026q.05-.45.085-.902h-2.565V10.15h2.578q-.03-.467-.095-.929h-2.483V5.508h1.306a6.4 6.4 0 0 0-.67-.928h-.636v-.635a6.6 6.6 0 0 0-.929-.667V4.58h-3.71V2.092a13 13 0 0 0-.93-.092v2.582h-3.713zm-.93 3.507h-3.71L5.502 9.22h3.712zm4.641 0h-3.71V9.22h3.71zm4.643 0h-3.712V9.22h3.712zm-9.284 4.64h-3.71l-.002 3.713h3.712V10.15Zm4.641 0h-3.71v3.713h3.71V10.15Zm4.643 0h-3.712v3.713h3.712V10.15ZM9.215 14.79h-3.71l-.002 3.715h3.712zm4.641 0h-3.71v3.715h3.71zm4.643 0h-3.712v3.715h3.712z" clip-rule="evenodd"/>
<path fill="url(#b)" fill-rule="evenodd" d="M13.545 5.012c-.985.074-2.015.455-2.956.925 1.881 0 2.822.94 3.763 1.881l1.88 1.886v.94l.942.944L20 8.764l-.94-.943h-.941l-1.884-1.882c-.761-.761-1.702-.999-2.69-.927m.807 2.81-3.763 3.766h-.94L4 17.234l1.881 1.881 5.649-5.644v-.94l3.762-3.767-.94-.941Z" clip-rule="evenodd"/>
<defs>
<radialGradient id="a" cx="0" cy="0" r="1" gradientTransform="matrix(0 22 -22 0 12 1)" gradientUnits="userSpaceOnUse">
<stop stop-color="#9BDCFF"/>
<stop offset="1" stop-color="#006AE8"/>
</radialGradient>
<radialGradient id="b" cx="0" cy="0" r="1" gradientTransform="matrix(0 22 -24.9377 0 12 1)" gradientUnits="userSpaceOnUse">
<stop stop-color="#777"/>
<stop offset="1" stop-color="#222"/>
</radialGradient>
</defs>
</svg>
