<svg xmlns="http://www.w3.org/2000/svg" xmlns:xlink="http://www.w3.org/1999/xlink" xml:space="preserve" width="24" height="24" viewBox="0 0 6.35 6.35">
<defs>
<linearGradient id="a">
<stop offset="0" style="stop-color:#004db0;stop-opacity:1"/>
<stop offset="1" style="stop-color:#1e94f7;stop-opacity:1"/>
</linearGradient>
<linearGradient id="b">
<stop offset="0" style="stop-color:#04a;stop-opacity:1"/>
<stop offset="1" style="stop-color:#0cf;stop-opacity:1"/>
</linearGradient>
<linearGradient xlink:href="#a" id="c" x1="249.801" x2="236.636" y1="624.735" y2="-340.75" gradientUnits="userSpaceOnUse"/>
<linearGradient xlink:href="#b" id="f" x1="249.801" x2="236.636" y1="624.735" y2="-340.75" gradientUnits="userSpaceOnUse"/>
<linearGradient xlink:href="#b" id="e" x1="249.801" x2="236.636" y1="624.735" y2="-340.75" gradientUnits="userSpaceOnUse"/>
<linearGradient xlink:href="#b" id="d" x1="249.801" x2="236.636" y1="624.735" y2="-340.75" gradientUnits="userSpaceOnUse"/>
</defs>
<g style="fill:url(#c);fill-opacity:1" transform="translate(.265 .265)scale(.01304)">
<g style="fill:url(#d);fill-opacity:1">
<g style="fill:url(#e);fill-opacity:1">
<path d="M174.406 2.305q3.65.039 6.973-.93a642 642 0 0 1 87.387.234q39.615 3.084 76.699 17.188 61.646 25.383 84.363 88.043 12.99 37.728 15.34 77.59a567 567 0 0 1-2.324 99.89c-2.782 23.352-8.824 45.805-18.129 67.368q-25.886 56.073-83.899 77.355-47.013 15.885-96.687 16.723-55.869 2.907-110.625-8.36Q32.717 414.955 9.164 314.52a386.3 386.3 0 0 1-9.066-91.528q-1.116-49.248 10.461-97.101C27.02 63.285 66.762 24.488 129.785 9.508a283 283 0 0 1 44.621-7.203" style="fill:url(#f);fill-opacity:1;fill-rule:evenodd;stroke:none"/>
</g>
</g>
</g>
<path d="M4.757 1.058h-1.57a.027.027 0 0 0-.027.027v.499c0 .017.013.03.03.03h.215c.087 0 .158.067.166.152v2.36q0 .03-.002.056l-.001.008-.005.032-.004.018-.006.023a.4.4 0 0 1-.068.125l-.004.004a.4.4 0 0 1-.065.06.5.5 0 0 1-.338.077.82.82 0 0 1-.471-.215.7.7 0 0 1-.237-.429.39.39 0 0 1 .117-.34l.01-.009a.44.44 0 0 1 .245-.096h.003l.031-.002h.032l.046.002h.01a.8.8 0 0 1 .264.078c.025.014.03-.001.03-.011v-.751a.05.05 0 0 0-.035-.045c-.446-.098-.883.004-1.191.285-.27.245-.4.599-.358.97.038.331.208.65.478.896a1.65 1.65 0 0 0 1.09.43c.331 0 .638-.114.865-.32.215-.196.344-.464.363-.757V1.778a.167.167 0 0 1 .167-.163h.216a.03.03 0 0 0 .03-.03v-.499a.027.027 0 0 0-.027-.027" style="fill:#fff;fill-opacity:1;fill-rule:nonzero;stroke:none;stroke-width:.00112875"/>
</svg>
