<svg xmlns="http://www.w3.org/2000/svg" xml:space="preserve" width="24" height="24">
<defs>
<radialGradient id="a" cx="0" cy="0" r="1" fx="0" fy="0" gradientTransform="matrix(0 22 -22 0 12 1)" gradientUnits="userSpaceOnUse" spreadMethod="pad">
<stop offset="0" style="stop-opacity:1;stop-color:#a4a4a4"/>
<stop offset="1" style="stop-opacity:1;stop-color:#626262"/>
</radialGradient>
<linearGradient id="b" x2="0" y1="-521.8" y2="-525.8" gradientUnits="userSpaceOnUse">
<stop offset="0" stop-color="#2a2c2f"/>
<stop offset="1" stop-color="#424649"/>
</linearGradient>
</defs>
<path d="M9.593 1.115q.18 0 .344-.047a32 32 0 0 1 4.308.01 13.7 13.7 0 0 1 3.781.849c2.026.833 3.41 2.281 4.162 4.338.42 1.24.676 2.516.754 3.823a28.3 28.3 0 0 1-.114 4.928 12 12 0 0 1-.896 3.317q-1.276 2.766-4.135 3.812a15.6 15.6 0 0 1-4.767.824 21.3 21.3 0 0 1-5.452-.412c-3.308-.734-5.354-2.754-6.125-6.057a19 19 0 0 1-.448-4.51q-.055-2.429.516-4.787 1.218-4.625 5.875-5.734a14 14 0 0 1 2.197-.354" style="fill:url(#a);fill-rule:evenodd;stroke:none;stroke-width:1.33333"/>
<g stroke-width=".741" transform="translate(-138.404 -180.823)scale(.36812)">
<rect width="40" height="40" x="388.57" y="503.8" fill="#383b3e" rx="20"/>
<rect width="14" height="14" x="401.57" y="516.8" fill="#f57953" rx="7"/>
<rect width="4" height="4" x="406.57" y="-525.8" fill="url(#b)" rx="2" style="fill:url(#b)" transform="scale(1 -1)"/>
<path fill="#fff" fill-opacity=".275" d="M408.57 517.8c-3.324 0-6 2.676-6 6s2.676 6 6 6 6-2.676 6-6-2.676-6-6-6m0 1c2.77 0 5 2.23 5 5s-2.23 5-5 5-5-2.23-5-5 2.23-5 5-5"/>
<g fill="#4c5053">
<path d="M418.07 507.34c-.971-.56-1.973-1-2.99-1.377l-3.465 9.368c.495.179.982.396 1.454.668.472.273.903.587 1.306.925l6.381-7.685a19 19 0 0 0-2.687-1.901M399.07 540.25a19 19 0 0 1-2.687-1.901l6.381-7.685c.403.339.834.653 1.306.925.472.273.96.489 1.454.668l-3.465 9.368a19 19 0 0 1-2.99-1.376"/>
<g fill-opacity=".198">
<path d="M422.01 510.36a19 19 0 0 0-2.531-2.103l-5.771 8.152c.431.301.846.636 1.232 1.022s.721.801 1.022 1.232l8.152-5.771a19 19 0 0 0-2.103-2.531M395.14 537.23a19 19 0 0 1-2.103-2.532l8.152-5.771c.301.431.636.846 1.022 1.232s.801.721 1.232 1.022l-5.771 8.152a19 19 0 0 1-2.531-2.103"/>
<path d="M425.03 514.3a19 19 0 0 0-1.901-2.687l-7.685 6.381c.339.403.653.834.925 1.306.273.472.489.96.668 1.454l9.368-3.465a19 19 0 0 0-1.377-2.99M392.12 533.3c-.56-.971-1-1.973-1.377-2.99l9.368-3.465c.179.495.396.982.668 1.454.273.472.587.903.925 1.306l-7.685 6.381a19 19 0 0 1-1.901-2.687"/>
</g>
</g>
</g>
</svg>
