<svg xmlns="http://www.w3.org/2000/svg" xml:space="preserve" width="24" height="24" viewBox="0 0 6.35 6.35">
<defs>
<radialGradient id="a" cx="0" cy="0" r="1" fx="0" fy="0" gradientTransform="matrix(0 16.5 -16.5 0 9 .75)" gradientUnits="userSpaceOnUse" spreadMethod="pad">
<stop offset="0" style="stop-color:#fff;stop-opacity:1"/>
<stop offset="1" style="stop-color:#c2c2c2;stop-opacity:1"/>
</radialGradient>
</defs>
<path d="M7.195.836q.135 0 .258-.035a24 24 0 0 1 3.231.008 10.3 10.3 0 0 1 2.836.636q2.278.938 3.121 3.254.476 1.396.566 2.867a21 21 0 0 1-.086 3.696 9 9 0 0 1-.672 2.488q-.957 2.074-3.101 2.859a11.7 11.7 0 0 1-3.575.618 16 16 0 0 1-4.089-.309c-2.481-.551-4.016-2.066-4.594-4.543a14.2 14.2 0 0 1-.336-3.383q-.041-1.818.387-3.59.914-3.468 4.406-4.3A10 10 0 0 1 7.195.836" style="fill:url(#a);fill-rule:evenodd;stroke:none;stroke-width:.99975;stroke-dasharray:none" transform="scale(.35277)"/>
<g stroke-width="1.304" transform="translate(-.176 1.252)scale(.06614)">
<circle cx="61.748" cy="14.068" r="1.956" fill="#767677"/>
<circle cx="41.531" cy="43.416" r="2.609" fill="#9e9e9e"/>
<circle cx="39.574" cy="15.372" r="1.956" fill="#616262"/>
<path fill="#f37726" d="M50.661 14.72c-6.522 0-11.739 5.217-13.043 9.13 3.913-3.913 9.13-5.217 13.043-5.217s9.13 1.304 13.043 5.217c-1.304-3.913-6.522-9.13-13.043-9.13M37.618 32.981c1.304 3.913 6.522 9.13 13.043 9.13 6.522 0 11.739-5.217 13.043-9.13-3.913 3.913-9.13 5.217-13.043 5.217s-9.13-1.304-13.043-5.217"/>
</g>
</svg>
