<svg xmlns="http://www.w3.org/2000/svg" xmlns:xlink="http://www.w3.org/1999/xlink" xml:space="preserve" width="24" height="24" viewBox="0 0 6.35 6.35">
<defs>
<radialGradient xlink:href="#a" id="n" cx="24.75" cy="26" r="2.5" gradientTransform="translate(1.331 3.408)scale(.26458)" gradientUnits="userSpaceOnUse"/>
<radialGradient xlink:href="#b" id="l" cx="26.75" cy="25.25" r="2.5" gradientTransform="translate(1.331 3.408)scale(.26458)" gradientUnits="userSpaceOnUse"/>
<radialGradient xlink:href="#b" id="j" cx="22.8" cy="25" r="2.5" gradientTransform="translate(1.331 3.408)scale(.26458)" gradientUnits="userSpaceOnUse"/>
<radialGradient xlink:href="#a" id="h" cx="27" cy="22.75" r="2.5" gradientTransform="translate(1.331 3.408)scale(.26458)" gradientUnits="userSpaceOnUse"/>
<radialGradient xlink:href="#b" id="f" cx="24.75" cy="22" r="2.5" gradientTransform="translate(1.331 3.408)scale(.26458)" gradientUnits="userSpaceOnUse"/>
<radialGradient xlink:href="#a" id="d" cx="23" cy="22.5" r="2.5" gradientTransform="translate(1.331 3.408)scale(.26458)" gradientUnits="userSpaceOnUse"/>
<radialGradient id="c" cx="0" cy="0" r="1" gradientTransform="rotate(90 1.455 1.72)scale(5.82072)" gradientUnits="userSpaceOnUse">
<stop stop-color="#777"/>
<stop offset="1" stop-color="#333"/>
</radialGradient>
<radialGradient xlink:href="#a" id="e" cx="23" cy="22.5" r="2.5" gradientTransform="translate(1.331 3.408)scale(.26458)" gradientUnits="userSpaceOnUse"/>
<radialGradient xlink:href="#b" id="g" cx="24.75" cy="22" r="2.5" gradientTransform="translate(1.331 3.408)scale(.26458)" gradientUnits="userSpaceOnUse"/>
<radialGradient xlink:href="#a" id="i" cx="27" cy="22.75" r="2.5" gradientTransform="translate(1.331 3.408)scale(.26458)" gradientUnits="userSpaceOnUse"/>
<radialGradient xlink:href="#b" id="k" cx="22.8" cy="25" r="2.5" gradientTransform="translate(1.331 3.408)scale(.26458)" gradientUnits="userSpaceOnUse"/>
<radialGradient xlink:href="#b" id="m" cx="26.75" cy="25.25" r="2.5" gradientTransform="translate(1.331 3.408)scale(.26458)" gradientUnits="userSpaceOnUse"/>
<radialGradient xlink:href="#a" id="o" cx="24.75" cy="26" r="2.5" gradientTransform="translate(1.331 3.408)scale(.26458)" gradientUnits="userSpaceOnUse"/>
<linearGradient id="a">
<stop offset="0" stop-color="#bfbfef"/>
<stop offset="1" stop-color="#a6a6ea"/>
</linearGradient>
<linearGradient id="b">
<stop offset="0" stop-color="#dedede"/>
<stop offset="1" stop-color="#d3d3d3"/>
</linearGradient>
</defs>
<path fill="url(#c)" fill-rule="evenodd" d="M2.539.295a.3.3 0 0 0 .09-.012 8 8 0 0 1 1.14.003 3.5 3.5 0 0 1 1 .224q.804.33 1.1 1.148.17.492.2 1.012a7.3 7.3 0 0 1-.03 1.302 3.1 3.1 0 0 1-.236.879 1.87 1.87 0 0 1-1.094 1.008q-.614.208-1.26.219a5.7 5.7 0 0 1-1.444-.11Q.693 5.676.385 4.366a5 5 0 0 1-.12-1.194 5 5 0 0 1 .137-1.266Q.724.682 1.957.39q.287-.071.582-.094Z" clip-rule="evenodd" style="fill:url(#c);stroke-width:.264578"/>
<g stroke-width=".22" transform="translate(-1.177 -2.206)scale(.55143)">
<g fill="#e48282" color="#000">
<path d="M7.893 7.64c-1.067 0-2.033.175-2.74.54a2.7 2.7 0 0 0-.848.656c-.207.254-.381.556-.381.922s.174.667.381.921.496.473.849.656c.705.365 1.672.54 2.738.54s2.033-.175 2.74-.54c.352-.183.64-.402.848-.656s.381-.555.381-.921-.174-.668-.381-.922a2.7 2.7 0 0 0-.849-.655c-.705-.366-1.672-.54-2.739-.54m0 .344c1.053 0 2.002.197 2.684.55.341.176.562.381.743.602a.94.94 0 0 1 .225.62.94.94 0 0 1-.225.62 2.3 2.3 0 0 1-.743.603c-.683.353-1.631.55-2.684.55s-2-.197-2.683-.55a2.3 2.3 0 0 1-.743-.602.94.94 0 0 1-.225-.62c0-.182.044-.4.225-.62.181-.222.402-.427.743-.603.683-.353 1.631-.55 2.684-.55"/>
<path d="M6.059 8.699c-.534.923-.865 1.848-.902 2.642a2.7 2.7 0 0 0 .143 1.064c.116.306.29.608.608.79.317.184.665.184.988.131s.657-.192.992-.407c.67-.429 1.304-1.179 1.837-2.102.534-.923.865-1.848.902-2.642a2.7 2.7 0 0 0-.143-1.064c-.116-.306-.29-.608-.608-.79-.317-.184-.665-.184-.988-.131a2.7 2.7 0 0 0-.992.407c-.67.429-1.304 1.179-1.837 2.102m.298.172c.526-.912 1.171-1.635 1.818-2.05.324-.206.611-.295.893-.341a.94.94 0 0 1 .65.115.95.95 0 0 1 .424.505c.101.267.168.56.15.944-.035.768-.339 1.688-.865 2.6s-1.171 1.634-1.818 2.05a2.3 2.3 0 0 1-.893.341.94.94 0 0 1-.65-.115.94.94 0 0 1-.424-.505 2.3 2.3 0 0 1-.15-.944c.035-.768.339-1.688.865-2.6"/>
<path d="M9.726 8.707c.534.917.865 1.835.901 2.623.019.394-.027.75-.143 1.055s-.29.604-.607.785-.665.183-.989.13a2.7 2.7 0 0 1-.992-.404c-.669-.426-1.303-1.17-1.837-2.087s-.865-1.835-.901-2.624c-.019-.394.027-.75.143-1.055s.29-.603.607-.785.665-.182.989-.13c.323.053.657.192.991.405.67.425 1.304 1.17 1.837 2.087Zm-.298.17C8.9 7.974 8.256 7.256 7.609 6.844a2.3 2.3 0 0 0-.893-.34.95.95 0 0 0-.65.115.94.94 0 0 0-.424.502 2.2 2.2 0 0 0-.15.937c.035.762.34 1.676.865 2.581.527.905 1.172 1.623 1.819 2.034.323.206.61.294.893.34a.95.95 0 0 0 .65-.115.94.94 0 0 0 .424-.5c.1-.265.168-.557.15-.939-.035-.762-.34-1.675-.865-2.58z"/>
</g>
<circle cx="7.416" cy="9.361" r=".661" fill="url(#d)" style="fill:url(#e)"/>
<circle cx="7.879" cy="9.228" r=".661" fill="url(#f)" style="fill:url(#g)"/>
<circle cx="8.475" cy="9.427" r=".661" fill="url(#h)" style="fill:url(#i)"/>
<circle cx="7.363" cy="10.022" r=".661" fill="url(#j)" style="fill:url(#k)"/>
<circle cx="8.408" cy="10.088" r=".661" fill="url(#l)" style="fill:url(#m)"/>
<circle cx="7.879" cy="10.287" r=".661" fill="url(#n)" style="fill:url(#o)"/>
</g>
</svg>
