<svg xmlns="http://www.w3.org/2000/svg" width="24" height="24" fill="none">
<path fill="url(#a)" fill-rule="evenodd" d="M9.596 1.114q.18.001.344-.046a32 32 0 0 1 4.307.011 13.5 13.5 0 0 1 3.78.848q3.038 1.25 4.158 4.339.64 1.86.756 3.824a28 28 0 0 1-.114 4.923 11.9 11.9 0 0 1-.894 3.32q-1.276 2.764-4.135 3.813a15.6 15.6 0 0 1-4.765.825 21.4 21.4 0 0 1-5.453-.413q-4.967-1.106-6.128-6.056a19 19 0 0 1-.447-4.511 18.5 18.5 0 0 1 .515-4.786q1.217-4.629 5.877-5.736a14 14 0 0 1 2.2-.355Z" clip-rule="evenodd"/>
<g clip-path="url(#b)">
<path fill="#F38577" fill-opacity=".992" d="M10.454 4.797A.5.5 0 0 1 10.856 4h3.023a.5.5 0 0 1 .4.8l-1.457 1.947a.5.5 0 0 0-.1.3v12.589a.365.365 0 0 1-.729 0V7.046a.5.5 0 0 0-.098-.298z"/>
<path fill="#83B9F5" d="M10.639 8.835H7.527a.25.25 0 0 0-.25.25v1.006c0 .138.112.25.25.25h3.112a.25.25 0 0 0 .25-.25V9.085a.25.25 0 0 0-.25-.25m0 2.619H5.67a.25.25 0 0 0-.25.25v1.006c0 .138.112.25.25.25h4.968a.25.25 0 0 0 .25-.25v-1.006a.25.25 0 0 0-.25-.25Zm-.001 2.585H4.25a.25.25 0 0 0-.25.25v1.006c0 .138.112.25.25.25h6.388a.25.25 0 0 0 .25-.25v-1.006a.25.25 0 0 0-.25-.25m.001 2.601H6.424a.25.25 0 0 0-.25.25v1.006c0 .138.112.25.25.25h4.215a.25.25 0 0 0 .25-.25V16.89a.25.25 0 0 0-.25-.25"/>
<path fill="#527EB2" d="M13.986 8.836c-.226.075-.17.338-.171.533v8.166c0 .195-.055.459.17.533.118 0 .102-.019.454-.248.352-.23 5.368-4.105 5.368-4.105.09-.073.193-.131.193-.263 0-.131-.104-.19-.193-.263 0 0-5.016-3.876-5.368-4.105s-.336-.248-.453-.248"/>
</g>
<defs>
<radialGradient id="a" cx="0" cy="0" r="1" gradientTransform="matrix(0 22 -22 0 12 1)" gradientUnits="userSpaceOnUse">
<stop stop-color="#777"/>
<stop offset="1" stop-color="#333"/>
</radialGradient>
<clipPath id="b">
<rect width="16" height="16" x="4" y="4" fill="#fff" rx=".2"/>
</clipPath>
</defs>
</svg>
