<svg xmlns="http://www.w3.org/2000/svg" xmlns:xlink="http://www.w3.org/1999/xlink" xml:space="preserve" width="24" height="24" viewBox="0 0 6.35 6.35">
<defs>
<linearGradient id="a">
<stop offset="0" style="stop-color:#fefefe;stop-opacity:1"/>
<stop offset="1" style="stop-color:#e6e6e6;stop-opacity:1"/>
</linearGradient>
<linearGradient xlink:href="#a" id="b" x1="247.607" x2="254.19" y1="852.941" y2="-167.402" gradientUnits="userSpaceOnUse"/>
<linearGradient xlink:href="#a" id="e" x1="247.607" x2="254.19" y1="852.941" y2="-167.402" gradientUnits="userSpaceOnUse"/>
<linearGradient xlink:href="#a" id="d" x1="247.607" x2="254.19" y1="852.941" y2="-167.402" gradientUnits="userSpaceOnUse"/>
<linearGradient xlink:href="#a" id="c" x1="247.607" x2="254.19" y1="852.941" y2="-167.402" gradientUnits="userSpaceOnUse"/>
</defs>
<g style="fill:url(#b);fill-opacity:1" transform="translate(.265 .265)scale(.01304)">
<g style="fill:url(#c);fill-opacity:1">
<g style="fill:url(#d);fill-opacity:1">
<path d="M174.406 2.305q3.65.039 6.973-.93a642 642 0 0 1 87.387.234q39.615 3.084 76.699 17.188 61.646 25.383 84.363 88.043 12.99 37.728 15.34 77.59a567 567 0 0 1-2.324 99.89c-2.782 23.352-8.824 45.805-18.129 67.368q-25.886 56.073-83.899 77.355-47.013 15.885-96.687 16.723-55.869 2.907-110.625-8.36Q32.717 414.955 9.164 314.52a386.3 386.3 0 0 1-9.066-91.528q-1.116-49.248 10.461-97.101C27.02 63.285 66.762 24.488 129.785 9.508a283 283 0 0 1 44.621-7.203" style="fill:url(#e);fill-opacity:1;fill-rule:evenodd;stroke:none"/>
</g>
</g>
</g>
<g transform="translate(5.283 .012)">
<path d="M-2.108 1.695a2.084 2.084 0 0 0-2.084 2.084 2.1 2.1 0 0 0 .183.851h3.8a2.1 2.1 0 0 0 .184-.851 2.084 2.084 0 0 0-2.083-2.084" style="opacity:1;fill:#42c3cf;fill-opacity:1;stroke-width:.252557;stroke-linecap:round;stroke-linejoin:round;paint-order:stroke markers fill"/>
<rect width=".216" height="1.288" x=".931" y="3.113" rx=".108" ry=".108" style="opacity:1;fill:#fff;fill-opacity:1;stroke-width:.329841;stroke-linecap:round;stroke-linejoin:round;paint-order:stroke markers fill" transform="rotate(38.066)"/>
<path d="M-2.121 3.91a.497.497 0 0 0-.497.49h.183a.314.314 0 0 1 .314-.307.314.314 0 0 1 .313.307h.184a.497.497 0 0 0-.497-.49" style="opacity:1;fill:#fff;fill-opacity:1;stroke-width:.330122;stroke-linecap:round;stroke-linejoin:round;paint-order:stroke markers fill"/>
<path d="M-2.12 2.146A1.646 1.646 0 0 0-3.766 3.79v.027a.097.097 0 0 0 .105.09.096.096 0 0 0 .089-.102V3.79A1.453 1.453 0 0 1-2.12 2.338 1.453 1.453 0 0 1-.667 3.791v.015a.097.097 0 0 0 .193.012v-.026A1.646 1.646 0 0 0-2.12 2.146" style="opacity:1;fill:#fff;fill-opacity:1;stroke-width:.216198;stroke-linecap:round;stroke-linejoin:round;paint-order:stroke markers fill"/>
</g>
</svg>
