<svg xmlns="http://www.w3.org/2000/svg" xml:space="preserve" width="24" height="24">
<defs>
<linearGradient id="a" x1="12" x2="12" y1="0" y2="12" gradientTransform="translate(.75 .75)scale(.6875)" gradientUnits="userSpaceOnUse" spreadMethod="pad">
<stop offset="0" style="stop-opacity:1;stop-color:#89a8f5"/>
<stop offset="1" style="stop-opacity:1;stop-color:#5771e5"/>
</linearGradient>
</defs>
<path d="M7.195.836q.135 0 .258-.035a24 24 0 0 1 3.231.008 10.3 10.3 0 0 1 2.836.636q2.278.938 3.121 3.254.476 1.396.566 2.867a21 21 0 0 1-.086 3.696 9 9 0 0 1-.672 2.488q-.957 2.074-3.101 2.859a11.7 11.7 0 0 1-3.575.618 16 16 0 0 1-4.089-.309c-2.481-.551-4.016-2.066-4.594-4.543a14.2 14.2 0 0 1-.336-3.383q-.041-1.821.387-3.59.914-3.468 4.406-4.3A10 10 0 0 1 7.195.836" style="fill:url(#a);fill-rule:evenodd;stroke:none" transform="scale(1.33333)"/>
<path d="M4.907 4.907v1.77l12.416 12.416h1.77v-1.776L6.677 4.907Z" style="fill:#3252c3;fill-opacity:1;fill-rule:nonzero;stroke:none;stroke-width:1.33333"/>
<path d="M12.053 3.648a3.83 3.83 0 0 0-3.834 3.836 3.85 3.85 0 0 0 2.072 3.422v7.707l1.722 1.033.002.002v-.002l1.768-1.033v-.924l-.789-.843.79-.7v-.263l-.796-.823.795-.851-.803-.863.803-.772v-1.707l-.062.025a3.841 3.841 0 0 0-1.666-7.242Zm-.012 1.137c.63 0 1.137.509 1.137 1.139A1.134 1.134 0 0 1 12.04 7.06a1.134 1.134 0 0 1-1.137-1.136c0-.63.507-1.139 1.137-1.139z" style="fill:#5872e5;fill-opacity:1;fill-rule:evenodd;stroke:#5872e5;stroke-width:1;stroke-dasharray:none;stroke-opacity:1" transform="rotate(45 11.21 11.577)"/>
<g fill="#fff" fill-rule="evenodd" stroke-width="1.112">
<path d="M17.401 6.555a3.83 3.83 0 0 0-5.424 0 3.85 3.85 0 0 0-.954 3.886L5.574 15.89l.486 1.951c3.933-3.911 5.884-5.846 5.9-5.863l.009.009A3.841 3.841 0 0 0 17.4 6.556zm-.813.794a1.135 1.135 0 0 1 0 1.608 1.134 1.134 0 0 1-1.608 0 1.134 1.134 0 0 1 0-1.607 1.133 1.133 0 0 1 1.608 0z"/>
<path d="m6.063 17.839 1.98.52.654-.653.038-1.155 1.052.064.187-.186.019-1.145 1.165-.04.042-1.177 1.113.022 1.208-1.208c-.424-.162-1.08-.469-1.538-.941 0 0-1.975 1.958-5.922 5.897z" opacity=".6"/>
</g>
</svg>
