<svg xmlns="http://www.w3.org/2000/svg" xml:space="preserve" width="24" height="24" viewBox="0 0 6.35 6.35">
<defs>
<radialGradient id="a" cx="0" cy="0" r="1" gradientTransform="rotate(90 1.455 1.72)scale(5.82072)" gradientUnits="userSpaceOnUse">
<stop offset="0" stop-color="#555" style="stop-color:#535353;stop-opacity:1"/>
<stop offset="1" stop-color="#222" style="stop-color:#3a3a3a;stop-opacity:1"/>
</radialGradient>
</defs>
<path fill="url(#a)" fill-rule="evenodd" d="M2.539.295a.3.3 0 0 0 .09-.012 8 8 0 0 1 1.14.003 3.5 3.5 0 0 1 1 .224q.804.33 1.1 1.148.17.492.2 1.012a7.3 7.3 0 0 1-.03 1.302 3.1 3.1 0 0 1-.236.879 1.87 1.87 0 0 1-1.094 1.008 4.1 4.1 0 0 1-1.26.219 5.7 5.7 0 0 1-1.444-.11Q.693 5.676.385 4.366a5 5 0 0 1-.12-1.194 5 5 0 0 1 .137-1.266Q.724.682 1.957.39q.287-.071.582-.094z" clip-rule="evenodd" style="fill:url(#a);stroke-width:.264578"/>
<path fill="#fff" d="M3.167 1.19c-.141 0-.231.104-.24.241v.279c.013.125.12.225.248.225a.3.3 0 0 0 .093-.016.25.25 0 0 0 .154-.21v-.27a.25.25 0 0 0-.255-.248Zm-.48.582a1.6 1.6 0 0 0-.45.256.5.5 0 0 1 .14.154q-.002.004 0 .008a.5.5 0 0 1 .038.094v.007a.5.5 0 0 1 .008.202c-.006.03-.02.058-.03.085a.445.445 0 0 1-.412.279.4.4 0 0 1-.232-.07c-.01.028-.025.055-.031.085v.008q-.016.069-.023.14v.007a2 2 0 0 0-.008.147v.016q0 .07.008.14v.015q.008.067.023.132.013.063.03.124a.6.6 0 0 1 .264-.078.37.37 0 0 1 .24.07.4.4 0 0 1 .148.194.5.5 0 0 1 .03.178c0 .126-.102.291-.177.372q.044.037.092.07c.04.026.075.055.117.077q.09.048.186.086.019.005.039.007a.3.3 0 0 1-.008-.054c0-.197.222-.356.496-.356s.496.159.496.356q-.002.028-.008.054.113-.038.217-.093c.053-.028.098-.06.147-.093l.047-.03.03-.032a.5.5 0 0 1-.084-.085.4.4 0 0 1-.086-.186 1 1 0 0 1-.007-.093c0-.06.013-.12.03-.17v-.008a.4.4 0 0 1 .032-.07.4.4 0 0 1 .046-.062c.019-.022.04-.037.062-.054a.4.4 0 0 1 .14-.07l.085-.015a.56.56 0 0 1 .279.077c.01-.039.023-.076.031-.116q.014-.065.024-.132V3.33a1.6 1.6 0 0 0 0-.31 2 2 0 0 0-.024-.14v-.008c-.007-.033-.02-.062-.031-.093a.4.4 0 0 1-.233.07.44.44 0 0 1-.318-.131l-.053-.07a.44.44 0 0 1-.024-.466.4.4 0 0 1 .054-.085.5.5 0 0 1 .078-.07 1.5 1.5 0 0 0-.442-.255.2.2 0 0 1 .008.054c0 .197-.222.356-.496.356a.57.57 0 0 1-.411-.154.4.4 0 0 1-.046-.062.3.3 0 0 1-.039-.14q.001-.028.008-.054m-1.078.17a.26.26 0 0 0-.154.117.253.253 0 0 0 .077.348l.201.124.078.047a.3.3 0 0 0 .1.023.3.3 0 0 0 .195-.078.24.24 0 0 0 .077-.178.26.26 0 0 0-.085-.194l-.093-.054-.21-.124a.24.24 0 0 0-.186-.03Zm3.039 0a.24.24 0 0 0-.094.031l-.209.124-.093.055-.008.007a.22.22 0 0 0-.077.178.24.24 0 0 0 .077.179.3.3 0 0 0 .295.061l.077-.046.202-.124a.253.253 0 0 0 .077-.348.25.25 0 0 0-.248-.117Zm-1.473.737a.496.496 0 1 1 0 .992.5.5 0 0 1-.349-.148q-.034-.031-.062-.07a.5.5 0 0 1-.085-.279.5.5 0 0 1 .008-.1.5.5 0 0 1 .488-.395m0 .248a.25.25 0 0 0-.225.155.2.2 0 0 0-.023.092.248.248 0 1 0 .248-.247m-1.264.83c-.057.005-.073.02-.1.03l-.054.03-.202.125a.253.253 0 0 0-.077.349.255.255 0 0 0 .348.085l.202-.124.07-.047a.3.3 0 0 0 .077-.124.2.2 0 0 0 .008-.047.3.3 0 0 0-.077-.193.3.3 0 0 0-.086-.07.2.2 0 0 0-.109-.015Zm2.535.015a.264.264 0 0 0-.264.263c0 .068.02.117.062.163l.078.054.201.124a.255.255 0 0 0 .349-.085.253.253 0 0 0-.077-.35l-.202-.123-.054-.031a.3.3 0 0 0-.093-.015m-1.271.643a.3.3 0 0 0-.093.015.3.3 0 0 0-.086.054.23.23 0 0 0-.084.155v.272c0 .137.114.248.255.248a.25.25 0 0 0 .256-.248V4.64a.25.25 0 0 0-.248-.225" style="stroke-width:.468661"/>
</svg>
