<svg xmlns="http://www.w3.org/2000/svg" xml:space="preserve" width="24" height="24" image-rendering="optimizeSpeed">
<defs>
<radialGradient id="a" cx="0" cy="0" r="1" gradientTransform="matrix(0 22 -22 0 12 1)" gradientUnits="userSpaceOnUse">
<stop stop-color="#C5FFFE"/>
<stop offset="1" stop-color="#0FF"/>
</radialGradient>
<radialGradient id="b" cx="0" cy="0" r="1" gradientTransform="matrix(0 22 -22 0 12 1)" gradientUnits="userSpaceOnUse">
<stop stop-color="#58C6E3"/>
<stop offset="1" stop-color="#034DB0"/>
</radialGradient>
</defs>
<g fill-rule="evenodd" clip-rule="evenodd" style="fill:none">
<path fill="url(#a)" d="M9.596 1.114q.18.001.344-.046a32 32 0 0 1 4.307.011q1.952.153 3.78.847 3.039 1.25 4.158 4.34.64 1.86.756 3.824a28 28 0 0 1-.114 4.923 11.9 11.9 0 0 1-.894 3.32q-1.276 2.764-4.135 3.813a15.6 15.6 0 0 1-4.765.824 21.4 21.4 0 0 1-5.453-.411q-4.967-1.107-6.128-6.057a19 19 0 0 1-.447-4.511 18.5 18.5 0 0 1 .515-4.786q1.217-4.629 5.877-5.736a14 14 0 0 1 2.2-.355Z" style="fill:url(#a)"/>
<path fill="url(#b)" d="M19.447 21.312v-.192zl-.123.081a71 71 0 0 0-1.214-.144l-1.325-.202a25 25 0 0 1-.852-.157l-.461-.089a8 8 0 0 1-.49-.106l-.162-.038-.65-.15-.324-.077-.32-.091q-.32-.09-.642-.177l-.32-.088q-.117-.035-.232-.073l-.086-.028-.633-.205-.012-.005a10 10 0 0 1-.615-.21l-.62-.227a13 13 0 0 1-.774-.301L9.593 19a1.1 1.1 0 0 0-.051-.381l.134-.081.772-.444q.225-.129.459-.247.176-.091.352-.188c.23-.128.467-.244.707-.362l.133-.065.145-.071.283-.139.142-.064.295-.133q.16-.07.318-.143c.187-.086.374-.171.566-.246l.315-.13q.288-.122.577-.233l.343-.125q.276-.101.55-.204l.134-.046a1.04 1.04 0 0 0 1.311.358l.288.345c.107.12.2.245.292.368l.524.693.011.015.252.333q.078.104.148.209l.082.12.417.61.17.25q.106.15.198.29l.181.295.109.177q.169.275.291.467l.121.193.071.113.063.1a7 7 0 0 1-.849.677zM18.133 1.97q2.952 1.26 4.052 4.295.64 1.86.756 3.824.095 1.463.037 2.921-.155.079-.276.2l-.09-.081-.295-.269-.282-.284-.569-.56-.095-.093a4 4 0 0 1-.186-.188l-.271-.292-.545-.58a7 7 0 0 1-.346-.39l-.179-.207-.52-.601-.13-.15-.121-.157-.243-.313-.496-.622a4 4 0 0 1-.206-.277l-.03-.04-.23-.324-.18-.25a24 24 0 0 0-.284-.394q-.148-.211-.286-.428l-.152-.233-.436-.663-.306-.508a1.04 1.04 0 0 0 .075-1.376l.633-.71q.221-.231.44-.467l.239-.255q.261-.262.521-.528Zm-.039-.017a13.5 13.5 0 0 0-4.12-.893l.068.152.207.43q.163.333.32.668l.177.343q.194.367.377.737.049.09.099.176a1.04 1.04 0 0 1 .834.14l.708-.658q.256-.224.517-.442l.242-.205q.284-.226.571-.448m-4.3-.904.066.23.115.34q.138.413.285.824l.116.286q.171.428.35.854l.09.19a1.04 1.04 0 0 0-.168 1.426l-.067.076-.117.133c-.237.256-.45.53-.663.804l-.158.202a46 46 0 0 0-.592.776l-.182.268-.727 1.08q-.117.18-.22.367-.055.097-.112.193l-.113.196a1.03 1.03 0 0 0-.824.195 10 10 0 0 0-.35-.238l-.576-.36a15 15 0 0 0-.856-.501l-.32-.177q-.314-.176-.622-.335l-.144-.07-.036-.017a1.04 1.04 0 0 0-.061-.62l.115-.107q.107-.1.207-.205l.096-.098.453-.456.145-.147q.179-.196.352-.394l.351-.397.125-.142.257-.313q.254-.311.493-.616.147-.195.286-.388l.16-.22c.235-.31.436-.623.625-.917l.146-.228c.168-.247.308-.493.436-.72q.084-.148.163-.283l.046-.08a9 9 0 0 0 .19-.344l.056-.111q.593.01 1.185.044zm9.055 13.752-.023.211a11.9 11.9 0 0 1-.893 3.32 7.3 7.3 0 0 1-1.634 2.3l-.106-.226-.088-.186q-.1-.214-.247-.518l-.244-.503q-.098-.191-.22-.4l-.097-.174-.23-.403q-.07-.12-.14-.246l-.072-.125a3 3 0 0 0-.133-.226l-.235-.355-.228-.346a15 15 0 0 0-.813-1.16 1.03 1.03 0 0 0 .228-.648v-.009l.313-.092.283-.083q.284-.07.56-.133l.272-.062q.406-.094.787-.187c.159-.037.315-.064.468-.091q.14-.024.273-.05.36-.061.686-.125l.04-.008c.203-.039.396-.076.582-.095q.254-.032.478-.063c.047.282.208.526.433.683m-3.556 6.61a7.7 7.7 0 0 1-1.495.734 15.6 15.6 0 0 1-4.765.824 21.4 21.4 0 0 1-4.833-.293q.029-.3.065-.596l.084-.638.041-.318.051-.316.042-.252q.044-.284.095-.567c.306-.007.58-.146.766-.363.258.106.519.21.79.298q.163.056.324.114c.322.114.643.229.971.315l.653.188.132.037q.098.03.194.054l.331.079q.33.078.66.152l.332.074.333.06.67.116c.222.04.444.079.669.1l.673.077.224.026c.15.018.298.036.449.04l.676.037.208.012c.155.009.31.018.465.017q.6.001 1.195-.01zM8.107 22.66a22 22 0 0 1-.527-.101 9.2 9.2 0 0 1-2.429-.891 42 42 0 0 0 .667-.517l.092-.073.2-.145.285-.211.16-.119.245-.182h.001l.265-.184.567-.4q.098-.068.2-.134.166.156.385.233a3 3 0 0 0-.02.192l-.045.648-.023.323-.011.324-.015.647q-.005.294.003.59m-2.98-1.006c.102-.108.278-.292.518-.537a10 10 0 0 1 .52-.5l.229-.21c.206-.201.447-.402.707-.617l.311-.26.12-.096.071-.057a1.04 1.04 0 0 1-.084-.552 18 18 0 0 1-.783-.4l-.312-.166-.3-.16-.185-.11-.106-.064-.582-.351-.29-.176-.282-.19q-.194-.127-.386-.26l-.176-.12c-.18-.12-.354-.25-.527-.38l-.023-.017-.542-.408a7 7 0 0 1-.375-.303l-.149-.125-.519-.435c-.111-.093-.217-.194-.323-.294l-.175-.164-.148-.139-.234-.22q.112 1.085.35 2.159.84 3.582 3.674 5.152zm-4.052-7.592.045.035q.239.176.472.354.298.227.6.446l.547.387q.09.061.178.125c.122.087.244.174.372.252l.557.367.056.037c.167.11.333.22.507.32l.186.112q.193.114.384.232l.284.174.29.162.581.324.107.059q.093.052.185.1l.297.15.304.157c.254.131.507.262.767.38a1.04 1.04 0 0 1 .707-.326q.066-.357.142-.712l.057-.27c.056-.304.135-.602.215-.901l.095-.361q.056-.221.125-.439l.057-.186.19-.622c.139-.41.281-.82.436-1.226l.244-.603.009-.023c.078-.194.155-.388.246-.579l.131-.292q.147-.332.302-.654a1.04 1.04 0 0 1-.245-1.029 10 10 0 0 0-.618-.414l-.179-.115-.197-.129a14 14 0 0 0-.716-.447q-.17-.1-.336-.2a17 17 0 0 0-.742-.425 1.035 1.035 0 0 1-1.292.197c-.443.348-.883.692-1.325.99-.383.28-.774.523-1.147.756l-.144.09-.329.192a13 13 0 0 1-.876.484l-.307.158-.238.123a6 6 0 0 1-.33.154l-.172.077q-.304.14-.556.248 0 .12.004.24-.02 1.04.07 2.071M1 11.522q.005-2.187.52-4.317a9.6 9.6 0 0 1 .507-1.458 57 57 0 0 0 .862.313c.133.048.278.1.429.164l.363.147q.119.046.242.097c.313.118.648.268 1.006.429q.207.093.425.188c.186.077.372.17.563.267l.014.007a1.04 1.04 0 0 0 .045.592l-.288.235-.339.277a10 10 0 0 1-.454.362l-.17.133-.095.073c-.175.135-.347.268-.523.39l-.595.44-.372.256-.346.24-.135.095-.16.105-.109.072-.252.166a27 27 0 0 1-.715.46l-.328.207zm1.042-5.807q1.497-3.33 5.355-4.245a14 14 0 0 1 2.2-.355q.178.001.343-.046a32 32 0 0 1 2.457-.066l-.011.015-.142.19-.147.196-.175.234c-.158.213-.33.443-.522.68l-.514.65-.06.07-.054.064-.228.273-.19.225q-.14.17-.289.341l-.03.032q-.242.264-.487.543l-.265.295-.118.123q-.08.082-.16.167l-.569.588-.592.583-.112.11a5 5 0 0 1-.188.18l-.107.097a1.04 1.04 0 0 0-1.322.298 9 9 0 0 0-.61-.237l-.78-.28a7 7 0 0 0-.522-.165l-.194-.058-.285-.083a11 11 0 0 0-.887-.237 52 52 0 0 0-.795-.18Zm13.289 8.379.364.396.038.04.022.024a1.04 1.04 0 0 0-.166.563v.011l.001.013-.072.021-.063.02q-.305.104-.61.214l-.316.113c-.198.071-.393.15-.587.228q-.165.068-.33.132c-.265.102-.521.218-.777.334l-.127.058-.197.091-.248.115q-.218.112-.436.22c-.581.285-1.134.602-1.663.916l-.77.481-.078.053-.062.042a1 1 0 0 0-.263-.176 26 26 0 0 1 .244-.945l.08-.308.094-.305.18-.61c.04-.143.088-.283.136-.423l.062-.182.205-.604.225-.595q.044-.114.085-.229.066-.184.141-.366l.244-.587.032-.076q.103-.257.221-.505.085-.18.167-.36.126-.277.261-.556a1.05 1.05 0 0 0 .714-.167l.36.277.226.176q.07.056.134.114l.506.441.01.008q.206.183.413.362l.032.027c.13.114.26.226.381.35l.607.585.192.185.197.19q.1.093.19.194zm1.301-.02c-.166 0-.321.04-.46.108l-.033-.039-.028-.031-.189-.218-.171-.197a3 3 0 0 0-.189-.203l-.124-.127-.07-.072-.513-.523-.28-.287c-.101-.109-.214-.208-.327-.308l-.465-.413-.063-.057-.161-.143-.275-.243-.083-.074-.136-.119-.225-.178-.298-.234-.06-.047a1.03 1.03 0 0 0-.201-1.04q.206-.377.42-.747l.678-1.078.169-.27q.058-.091.123-.178l.06-.083a41 41 0 0 0 .5-.714c.198-.285.396-.57.619-.838l.167-.213a1.04 1.04 0 0 0 .718.078l.045.083q.122.227.25.45l.435.683.146.23q.141.229.293.452.147.207.299.412l.177.243.24.326.008.012c.076.105.152.21.238.31l.511.627.26.31.13.155.139.148.55.593.068.072c.161.173.323.346.499.505l.587.555.294.277q.097.089.2.171l.108.09.621.515.313.254.326.238.102.074a1.04 1.04 0 0 0-.174.57q-.225.006-.48.016c-.175.002-.358.02-.552.039l-.081.008a43 43 0 0 0-.96.098c-.165.017-.335.034-.506.061l-.167.028-.641.11q-.157.03-.318.057-.265.045-.536.1l-.125.03q-.245.057-.494.119a1.04 1.04 0 0 0-.908-.533" style="fill:url(#b)"/>
</g>
<path d="M18.467 11.395a8.5 8.5 0 0 0-8.5 8.5 8.5 8.5 0 0 0 .574 3.065 21 21 0 0 0 2.502.013 15.6 15.6 0 0 0 4.768-.824q2.859-1.045 4.134-3.81.688-1.594.897-3.319.127-1.157.158-2.314a8.5 8.5 0 0 0-4.533-1.31z" style="fill:#f9f9f9;fill-opacity:1;stroke-width:2.00803;paint-order:markers stroke fill"/>
<path d="M18.488 14.86c-1.862 0-3.626.744-4.965 2.099a.693.693 0 0 0-.017.941.61.61 0 0 0 .894.02c1.102-1.115 2.554-1.729 4.088-1.729 1.374 0 2.682.497 3.735 1.405q.237-.669.392-1.362a6.9 6.9 0 0 0-4.127-1.375zm0 2.22c-1.349 0-2.617.551-3.57 1.55a.69.69 0 0 0-.002.944c.246.26.645.262.893.002a3.68 3.68 0 0 1 2.68-1.162 3.68 3.68 0 0 1 2.706 1.195q.381-.533.68-1.158a4.88 4.88 0 0 0-3.387-1.37zm0 2.225a2.89 2.89 0 0 0-2.187 1.021.69.69 0 0 0 .043.942.61.61 0 0 0 .894-.047 1.63 1.63 0 0 1 1.25-.582 1.65 1.65 0 0 1 1.18.515q.53-.387.973-.867a2.9 2.9 0 0 0-2.153-.982m-.078 2.222a.764.764 0 0 0-.732.655l.119-.037a8 8 0 0 0 1.058-.477.76.76 0 0 0-.445-.14z" style="fill:#33d4ff;fill-opacity:1;stroke-width:2.00803;paint-order:markers stroke fill"/>
</svg>
