<svg xmlns="http://www.w3.org/2000/svg" xmlns:xlink="http://www.w3.org/1999/xlink" width="24" height="24" viewBox="0 0 6.35 6.35">
<defs>
<radialGradient xlink:href="#a" id="c" cx="0" cy="0" r="1" gradientTransform="rotate(90 1.104 4.003)scale(5.23581)" gradientUnits="userSpaceOnUse"/>
<radialGradient id="a" cx="0" cy="0" r="1" gradientTransform="rotate(90 3.735 6.681)scale(5.23581)" gradientUnits="userSpaceOnUse">
<stop stop-color="#555"/>
<stop offset="1" stop-color="#222"/>
</radialGradient>
<linearGradient id="b" x1="12" x2="12" y1="0" y2="12" gradientTransform="translate(.265 .265)scale(.24253)" gradientUnits="userSpaceOnUse">
<stop offset="0" stop-color="#fff" style="stop-color:#e2e9f2;stop-opacity:1"/>
<stop offset="1" stop-color="#D9D9D9" style="stop-color:#91a1b9;stop-opacity:1"/>
</linearGradient>
</defs>
<path fill="url(#b)" fill-rule="evenodd" d="M2.539.295a.3.3 0 0 0 .09-.012 8 8 0 0 1 1.14.003 3.5 3.5 0 0 1 1 .224q.804.33 1.1 1.148.17.492.2 1.012a7.3 7.3 0 0 1-.03 1.302 3.1 3.1 0 0 1-.236.879 1.87 1.87 0 0 1-1.094 1.008q-.614.208-1.26.219a5.7 5.7 0 0 1-1.444-.11Q.693 5.676.385 4.366a5 5 0 0 1-.12-1.194 5 5 0 0 1 .137-1.266Q.724.682 1.957.39q.287-.071.582-.094z" clip-rule="evenodd" style="fill:url(#b);stroke-width:.24253"/>
<rect width="4.002" height="1.334" x="1.174" y=".992" rx=".137" ry=".137" style="fill:#e2e9f2;fill-opacity:1;stroke:none;stroke-width:.22214;stroke-linecap:round;stroke-linejoin:round;stroke-dashoffset:1.89038;stroke-opacity:.0528456;paint-order:stroke markers fill"/>
<rect width="4.002" height="1.334" x="1.174" y="4.024" rx=".137" ry=".137" style="fill:#e2e9f2;fill-opacity:1;stroke:none;stroke-width:.22214;stroke-linecap:round;stroke-linejoin:round;stroke-dashoffset:1.89038;stroke-opacity:.0528456;paint-order:stroke markers fill"/>
<rect width="4.002" height="1.334" x="1.174" y="2.508" rx=".137" ry=".137" style="fill:#e2e9f2;fill-opacity:1;stroke:none;stroke-width:.22214;stroke-linecap:round;stroke-linejoin:round;stroke-dashoffset:1.89038;stroke-opacity:.0528456;paint-order:stroke markers fill"/>
<rect width=".132" height=".132" x="1.529" y="2.884" rx=".032" ry=".032" style="fill:#477ebd;fill-opacity:1;stroke:none;stroke-width:.318498;stroke-linecap:round;stroke-linejoin:round;stroke-dashoffset:1.89038;stroke-opacity:.0528456;paint-order:stroke markers fill"/>
<rect width=".132" height=".132" x="1.9" y="2.884" rx=".032" ry=".032" style="fill:#477ebd;fill-opacity:1;stroke:none;stroke-width:.318498;stroke-linecap:round;stroke-linejoin:round;stroke-dashoffset:1.89038;stroke-opacity:.0528456;paint-order:stroke markers fill"/>
<rect width=".132" height=".132" x="2.271" y="2.884" rx=".032" ry=".032" style="fill:#477ebd;fill-opacity:1;stroke:none;stroke-width:.318498;stroke-linecap:round;stroke-linejoin:round;stroke-dashoffset:1.89038;stroke-opacity:.0528456;paint-order:stroke markers fill"/>
<rect width=".132" height=".132" x="2.642" y="2.884" rx=".032" ry=".032" style="fill:#90a0b8;fill-opacity:1;stroke:none;stroke-width:.318498;stroke-linecap:round;stroke-linejoin:round;stroke-dashoffset:1.89038;stroke-opacity:.0528456;paint-order:stroke markers fill"/>
<rect width=".132" height=".132" x="1.708" y="3.12" rx=".032" ry=".032" style="fill:#477ebd;fill-opacity:1;stroke:none;stroke-width:.318498;stroke-linecap:round;stroke-linejoin:round;stroke-dashoffset:1.89038;stroke-opacity:.0528456;paint-order:stroke markers fill"/>
<rect width=".132" height=".132" x="2.079" y="3.12" rx=".032" ry=".032" style="fill:#477ebd;fill-opacity:1;stroke:none;stroke-width:.318498;stroke-linecap:round;stroke-linejoin:round;stroke-dashoffset:1.89038;stroke-opacity:.0528456;paint-order:stroke markers fill"/>
<rect width=".132" height=".132" x="2.45" y="3.12" rx=".032" ry=".032" style="fill:#477ebd;fill-opacity:1;stroke:none;stroke-width:.318498;stroke-linecap:round;stroke-linejoin:round;stroke-dashoffset:1.89038;stroke-opacity:.0528456;paint-order:stroke markers fill"/>
<rect width=".132" height=".132" x="2.822" y="3.12" rx=".032" ry=".032" style="fill:#477ebd;fill-opacity:1;stroke:none;stroke-width:.318498;stroke-linecap:round;stroke-linejoin:round;stroke-dashoffset:1.89038;stroke-opacity:.0528456;paint-order:stroke markers fill"/>
<rect width=".132" height=".132" x="1.708" y="3.12" rx=".032" ry=".032" style="fill:#477ebd;fill-opacity:1;stroke:none;stroke-width:.318498;stroke-linecap:round;stroke-linejoin:round;stroke-dashoffset:1.89038;stroke-opacity:.0528456;paint-order:stroke markers fill"/>
<rect width=".132" height=".132" x="2.079" y="3.12" rx=".032" ry=".032" style="fill:#477ebd;fill-opacity:1;stroke:none;stroke-width:.318498;stroke-linecap:round;stroke-linejoin:round;stroke-dashoffset:1.89038;stroke-opacity:.0528456;paint-order:stroke markers fill"/>
<rect width=".132" height=".132" x="2.45" y="3.12" rx=".032" ry=".032" style="fill:#90a0b8;fill-opacity:1;stroke:none;stroke-width:.318498;stroke-linecap:round;stroke-linejoin:round;stroke-dashoffset:1.89038;stroke-opacity:.0528456;paint-order:stroke markers fill"/>
<rect width=".132" height=".132" x="2.822" y="3.12" rx=".032" ry=".032" style="fill:#90a0b8;fill-opacity:1;stroke:none;stroke-width:.318498;stroke-linecap:round;stroke-linejoin:round;stroke-dashoffset:1.89038;stroke-opacity:.0528456;paint-order:stroke markers fill"/>
<rect width=".132" height=".132" x="1.529" y="3.351" rx=".032" ry=".032" style="fill:#90a0b8;fill-opacity:1;stroke:none;stroke-width:.318498;stroke-linecap:round;stroke-linejoin:round;stroke-dashoffset:1.89038;stroke-opacity:.0528456;paint-order:stroke markers fill"/>
<rect width=".132" height=".132" x="1.9" y="3.351" rx=".032" ry=".032" style="fill:#90a0b8;fill-opacity:1;stroke:none;stroke-width:.318498;stroke-linecap:round;stroke-linejoin:round;stroke-dashoffset:1.89038;stroke-opacity:.0528456;paint-order:stroke markers fill"/>
<rect width=".132" height=".132" x="2.271" y="3.351" rx=".032" ry=".032" style="fill:#90a0b8;fill-opacity:1;stroke:none;stroke-width:.318498;stroke-linecap:round;stroke-linejoin:round;stroke-dashoffset:1.89038;stroke-opacity:.0528456;paint-order:stroke markers fill"/>
<rect width=".132" height=".132" x="2.642" y="3.351" rx=".032" ry=".032" style="fill:#90a0b8;fill-opacity:1;stroke:none;stroke-width:.318498;stroke-linecap:round;stroke-linejoin:round;stroke-dashoffset:1.89038;stroke-opacity:.0528456;paint-order:stroke markers fill"/>
<g transform="translate(0 -.016)">
<rect width=".132" height=".132" x="1.529" y="1.376" rx=".032" ry=".032" style="fill:#477ebd;fill-opacity:1;stroke:none;stroke-width:.318498;stroke-linecap:round;stroke-linejoin:round;stroke-dashoffset:1.89038;stroke-opacity:.0528456;paint-order:stroke markers fill"/>
<rect width=".132" height=".132" x="1.9" y="1.376" rx=".032" ry=".032" style="fill:#477ebd;fill-opacity:1;stroke:none;stroke-width:.318498;stroke-linecap:round;stroke-linejoin:round;stroke-dashoffset:1.89038;stroke-opacity:.0528456;paint-order:stroke markers fill"/>
<rect width=".132" height=".132" x="2.271" y="1.376" rx=".032" ry=".032" style="fill:#477ebd;fill-opacity:1;stroke:none;stroke-width:.318498;stroke-linecap:round;stroke-linejoin:round;stroke-dashoffset:1.89038;stroke-opacity:.0528456;paint-order:stroke markers fill"/>
<rect width=".132" height=".132" x="2.642" y="1.376" rx=".032" ry=".032" style="fill:#90a0b8;fill-opacity:1;stroke:none;stroke-width:.318498;stroke-linecap:round;stroke-linejoin:round;stroke-dashoffset:1.89038;stroke-opacity:.0528456;paint-order:stroke markers fill"/>
<rect width=".132" height=".132" x="1.708" y="1.612" rx=".032" ry=".032" style="fill:#477ebd;fill-opacity:1;stroke:none;stroke-width:.318498;stroke-linecap:round;stroke-linejoin:round;stroke-dashoffset:1.89038;stroke-opacity:.0528456;paint-order:stroke markers fill"/>
<rect width=".132" height=".132" x="2.079" y="1.612" rx=".032" ry=".032" style="fill:#477ebd;fill-opacity:1;stroke:none;stroke-width:.318498;stroke-linecap:round;stroke-linejoin:round;stroke-dashoffset:1.89038;stroke-opacity:.0528456;paint-order:stroke markers fill"/>
<rect width=".132" height=".132" x="2.45" y="1.612" rx=".032" ry=".032" style="fill:#477ebd;fill-opacity:1;stroke:none;stroke-width:.318498;stroke-linecap:round;stroke-linejoin:round;stroke-dashoffset:1.89038;stroke-opacity:.0528456;paint-order:stroke markers fill"/>
<rect width=".132" height=".132" x="2.822" y="1.612" rx=".032" ry=".032" style="fill:#477ebd;fill-opacity:1;stroke:none;stroke-width:.318498;stroke-linecap:round;stroke-linejoin:round;stroke-dashoffset:1.89038;stroke-opacity:.0528456;paint-order:stroke markers fill"/>
<rect width=".132" height=".132" x="1.708" y="1.612" rx=".032" ry=".032" style="fill:#477ebd;fill-opacity:1;stroke:none;stroke-width:.318498;stroke-linecap:round;stroke-linejoin:round;stroke-dashoffset:1.89038;stroke-opacity:.0528456;paint-order:stroke markers fill"/>
<rect width=".132" height=".132" x="2.079" y="1.612" rx=".032" ry=".032" style="fill:#477ebd;fill-opacity:1;stroke:none;stroke-width:.318498;stroke-linecap:round;stroke-linejoin:round;stroke-dashoffset:1.89038;stroke-opacity:.0528456;paint-order:stroke markers fill"/>
<rect width=".132" height=".132" x="2.45" y="1.612" rx=".032" ry=".032" style="fill:#477ebd;fill-opacity:1;stroke:none;stroke-width:.318498;stroke-linecap:round;stroke-linejoin:round;stroke-dashoffset:1.89038;stroke-opacity:.0528456;paint-order:stroke markers fill"/>
<rect width=".132" height=".132" x="2.822" y="1.612" rx=".032" ry=".032" style="fill:#90a0b8;fill-opacity:1;stroke:none;stroke-width:.318498;stroke-linecap:round;stroke-linejoin:round;stroke-dashoffset:1.89038;stroke-opacity:.0528456;paint-order:stroke markers fill"/>
<rect width=".132" height=".132" x="1.529" y="1.842" rx=".032" ry=".032" style="fill:#90a0b8;fill-opacity:1;stroke:none;stroke-width:.318498;stroke-linecap:round;stroke-linejoin:round;stroke-dashoffset:1.89038;stroke-opacity:.0528456;paint-order:stroke markers fill"/>
<rect width=".132" height=".132" x="1.9" y="1.842" rx=".032" ry=".032" style="fill:#477ebd;fill-opacity:1;stroke:none;stroke-width:.318498;stroke-linecap:round;stroke-linejoin:round;stroke-dashoffset:1.89038;stroke-opacity:.0528456;paint-order:stroke markers fill"/>
<rect width=".132" height=".132" x="2.271" y="1.842" rx=".032" ry=".032" style="fill:#90a0b8;fill-opacity:1;stroke:none;stroke-width:.318498;stroke-linecap:round;stroke-linejoin:round;stroke-dashoffset:1.89038;stroke-opacity:.0528456;paint-order:stroke markers fill"/>
<rect width=".132" height=".132" x="2.642" y="1.842" rx=".032" ry=".032" style="fill:#90a0b8;fill-opacity:1;stroke:none;stroke-width:.318498;stroke-linecap:round;stroke-linejoin:round;stroke-dashoffset:1.89038;stroke-opacity:.0528456;paint-order:stroke markers fill"/>
</g>
<g transform="translate(0 -.036)">
<rect width=".132" height=".132" x="1.529" y="4.428" rx=".032" ry=".032" style="fill:#477ebd;fill-opacity:1;stroke:none;stroke-width:.318498;stroke-linecap:round;stroke-linejoin:round;stroke-dashoffset:1.89038;stroke-opacity:.0528456;paint-order:stroke markers fill"/>
<rect width=".132" height=".132" x="1.9" y="4.428" rx=".032" ry=".032" style="fill:#477ebd;fill-opacity:1;stroke:none;stroke-width:.318498;stroke-linecap:round;stroke-linejoin:round;stroke-dashoffset:1.89038;stroke-opacity:.0528456;paint-order:stroke markers fill"/>
<rect width=".132" height=".132" x="2.271" y="4.428" rx=".032" ry=".032" style="fill:#477ebd;fill-opacity:1;stroke:none;stroke-width:.318498;stroke-linecap:round;stroke-linejoin:round;stroke-dashoffset:1.89038;stroke-opacity:.0528456;paint-order:stroke markers fill"/>
<rect width=".132" height=".132" x="2.642" y="4.428" rx=".032" ry=".032" style="fill:#90a0b8;fill-opacity:1;stroke:none;stroke-width:.318498;stroke-linecap:round;stroke-linejoin:round;stroke-dashoffset:1.89038;stroke-opacity:.0528456;paint-order:stroke markers fill"/>
<rect width=".132" height=".132" x="1.708" y="4.664" rx=".032" ry=".032" style="fill:#477ebd;fill-opacity:1;stroke:none;stroke-width:.318498;stroke-linecap:round;stroke-linejoin:round;stroke-dashoffset:1.89038;stroke-opacity:.0528456;paint-order:stroke markers fill"/>
<rect width=".132" height=".132" x="2.079" y="4.664" rx=".032" ry=".032" style="fill:#477ebd;fill-opacity:1;stroke:none;stroke-width:.318498;stroke-linecap:round;stroke-linejoin:round;stroke-dashoffset:1.89038;stroke-opacity:.0528456;paint-order:stroke markers fill"/>
<rect width=".132" height=".132" x="2.45" y="4.664" rx=".032" ry=".032" style="fill:#477ebd;fill-opacity:1;stroke:none;stroke-width:.318498;stroke-linecap:round;stroke-linejoin:round;stroke-dashoffset:1.89038;stroke-opacity:.0528456;paint-order:stroke markers fill"/>
<rect width=".132" height=".132" x="2.822" y="4.664" rx=".032" ry=".032" style="fill:#477ebd;fill-opacity:1;stroke:none;stroke-width:.318498;stroke-linecap:round;stroke-linejoin:round;stroke-dashoffset:1.89038;stroke-opacity:.0528456;paint-order:stroke markers fill"/>
<rect width=".132" height=".132" x="1.708" y="4.664" rx=".032" ry=".032" style="fill:#477ebd;fill-opacity:1;stroke:none;stroke-width:.318498;stroke-linecap:round;stroke-linejoin:round;stroke-dashoffset:1.89038;stroke-opacity:.0528456;paint-order:stroke markers fill"/>
<rect width=".132" height=".132" x="2.079" y="4.664" rx=".032" ry=".032" style="fill:#477ebd;fill-opacity:1;stroke:none;stroke-width:.318498;stroke-linecap:round;stroke-linejoin:round;stroke-dashoffset:1.89038;stroke-opacity:.0528456;paint-order:stroke markers fill"/>
<rect width=".132" height=".132" x="2.45" y="4.664" rx=".032" ry=".032" style="fill:#477ebd;fill-opacity:1;stroke:none;stroke-width:.318498;stroke-linecap:round;stroke-linejoin:round;stroke-dashoffset:1.89038;stroke-opacity:.0528456;paint-order:stroke markers fill"/>
<rect width=".132" height=".132" x="2.822" y="4.664" rx=".032" ry=".032" style="fill:#90a0b8;fill-opacity:1;stroke:none;stroke-width:.318498;stroke-linecap:round;stroke-linejoin:round;stroke-dashoffset:1.89038;stroke-opacity:.0528456;paint-order:stroke markers fill"/>
<rect width=".132" height=".132" x="1.529" y="4.894" rx=".032" ry=".032" style="fill:#90a0b8;fill-opacity:1;stroke:none;stroke-width:.318498;stroke-linecap:round;stroke-linejoin:round;stroke-dashoffset:1.89038;stroke-opacity:.0528456;paint-order:stroke markers fill"/>
<rect width=".132" height=".132" x="1.9" y="4.894" rx=".032" ry=".032" style="fill:#477ebd;fill-opacity:1;stroke:none;stroke-width:.318498;stroke-linecap:round;stroke-linejoin:round;stroke-dashoffset:1.89038;stroke-opacity:.0528456;paint-order:stroke markers fill"/>
<rect width=".132" height=".132" x="2.271" y="4.894" rx=".032" ry=".032" style="fill:#90a0b8;fill-opacity:1;stroke:none;stroke-width:.318498;stroke-linecap:round;stroke-linejoin:round;stroke-dashoffset:1.89038;stroke-opacity:.0528456;paint-order:stroke markers fill"/>
<rect width=".132" height=".132" x="2.642" y="4.894" rx=".032" ry=".032" style="fill:#90a0b8;fill-opacity:1;stroke:none;stroke-width:.318498;stroke-linecap:round;stroke-linejoin:round;stroke-dashoffset:1.89038;stroke-opacity:.0528456;paint-order:stroke markers fill"/>
</g>
<g transform="translate(0 -.024)">
<circle cx="3.825" cy="1.683" r=".171" style="opacity:1;fill:#477ebd;fill-opacity:1;stroke:none;stroke-width:.244885;stroke-linecap:round;stroke-linejoin:round;stroke-dashoffset:1.89038;stroke-opacity:.0528456;paint-order:stroke markers fill"/>
<circle cx="4.557" cy="1.683" r=".171" style="opacity:1;fill:#477ebd;fill-opacity:1;stroke:none;stroke-width:.244885;stroke-linecap:round;stroke-linejoin:round;stroke-dashoffset:1.89038;stroke-opacity:.0528456;paint-order:stroke markers fill"/>
</g>
<g transform="translate(0 -.02)">
<circle cx="3.825" cy="3.194" r=".171" style="opacity:1;fill:#477ebd;fill-opacity:1;stroke:none;stroke-width:.244885;stroke-linecap:round;stroke-linejoin:round;stroke-dashoffset:1.89038;stroke-opacity:.0528456;paint-order:stroke markers fill"/>
<circle cx="4.557" cy="3.194" r=".171" style="opacity:1;fill:#477ebd;fill-opacity:1;stroke:none;stroke-width:.244885;stroke-linecap:round;stroke-linejoin:round;stroke-dashoffset:1.89038;stroke-opacity:.0528456;paint-order:stroke markers fill"/>
</g>
<g transform="translate(0 -.008)">
<circle cx="3.825" cy="4.699" r=".171" style="opacity:1;fill:#477ebd;fill-opacity:1;stroke:none;stroke-width:.244885;stroke-linecap:round;stroke-linejoin:round;stroke-dashoffset:1.89038;stroke-opacity:.0528456;paint-order:stroke markers fill"/>
<circle cx="4.557" cy="4.699" r=".171" style="opacity:1;fill:#477ebd;fill-opacity:1;stroke:none;stroke-width:.244885;stroke-linecap:round;stroke-linejoin:round;stroke-dashoffset:1.89038;stroke-opacity:.0528456;paint-order:stroke markers fill"/>
</g>
<path d="M4.89 3.02a2 2 0 0 0-.177.006 2 2 0 0 0-.176.021 2 2 0 0 0-.174.034 2 2 0 0 0-.17.048 2 2 0 0 0-.166.062 2 2 0 0 0-.16.074 2 2 0 0 0-.155.087 2 2 0 0 0-.147.098 2 2 0 0 0-.14.11 2 2 0 0 0-.13.12 2 2 0 0 0-.12.13 2 2 0 0 0-.11.139 2 2 0 0 0-.098.147 2 2 0 0 0-.087.154 2 2 0 0 0-.074.161 2 2 0 0 0-.061.166 2 2 0 0 0-.048.17 2 2 0 0 0-.035.174 2 2 0 0 0-.02.176 2 2 0 0 0-.008.177 2 2 0 0 0 .007.163 2 2 0 0 0 .017.163 2 2 0 0 0 .03.16 2 2 0 0 0 .041.159 2 2 0 0 0 .053.154l.166.009.083.002.167.001.083-.001.167-.006a4.2 4.2 0 0 0 .874-.108l.078-.02.155-.042.077-.023.077-.026.047-.017.046-.02.045-.018.044-.021.044-.021.043-.022.042-.024.081-.049.04-.025a2 2 0 0 0 .15-.112l.035-.03.035-.032a2 2 0 0 0 .19-.204l.029-.038.028-.038.027-.04a2 2 0 0 0 .19-.35l.042-.106.02-.054.017-.054.017-.055.017-.054.015-.055.014-.055.013-.055.013-.056.011-.055a3 3 0 0 0 .035-.227 7 7 0 0 0 .043-.61 2 2 0 0 0-.136-.079 2 2 0 0 0-.141-.068 2 2 0 0 0-.146-.06 2 2 0 0 0-.15-.048 2 2 0 0 0-.151-.038 2 2 0 0 0-.155-.027 2 2 0 0 0-.156-.017 2 2 0 0 0-.157-.006z" style="fill:url(#c);stroke-width:.237991"/>
<path fill="#fafafa" d="M-8.315 6.627h-.948a.066.066 0 0 0-.067.065c0 .036.03.065.067.065h.948a.066.066 0 0 0 .068-.065.066.066 0 0 0-.068-.065m-1.353-1.18a.1.1 0 0 0-.039.007.07.07 0 0 0-.037.05.06.06 0 0 0 .014.048l.02.016.727.403-.727.404a.07.07 0 0 0-.032.04.06.06 0 0 0 .007.049.07.07 0 0 0 .093.023l.82-.455a.1.1 0 0 0 .024-.023.1.1 0 0 0 .01-.032v-.011a.1.1 0 0 0-.01-.032.1.1 0 0 0-.023-.023l-.821-.456z" style="stroke-width:.102099" transform="translate(8.136 1.56)scale(.50336)"/>
<text xml:space="preserve" x="4.059" y="4.954" style="font-weight:700;font-size:.836551px;font-family:Lato;-inkscape-font-specification:&quot;Lato Bold&quot;;fill:#fafafa;fill-opacity:1;stroke:none;stroke-width:.0522846;stroke-linecap:round;stroke-linejoin:round;stroke-dashoffset:1.89038;stroke-opacity:.974255;paint-order:stroke markers fill"><tspan x="4.059" y="4.954" style="fill:#fafafa;fill-opacity:1;stroke:none;stroke-width:.0522846;stroke-opacity:.974255">SSH</tspan></text>
<path d="M4.883 3.016a2.25 2.25 0 0 0-2.25 2.25 2.3 2.3 0 0 0 .152.807q.33.022.663.005.648-.011 1.26-.219a1.87 1.87 0 0 0 1.095-1.008q.182-.421.236-.879a7 7 0 0 0 .043-.61 2.25 2.25 0 0 0-1.2-.346Z" style="fill:#5687e3;fill-opacity:1;fill-rule:evenodd;stroke-width:.12494;paint-order:fill markers stroke"/>
<path d="M4.816 3.558a.426.426 0 0 0-.425.425.21.21 0 0 1-.212.21.2.2 0 0 1-.099-.028l-.001-.002a.43.43 0 0 0-.582.158l-.11.181-.002.003a.43.43 0 0 0 .155.581.212.212 0 0 1 0 .369.427.427 0 0 0-.155.58l.025.044.038-.001q.103-.003.204-.01l-.081-.14a.21.21 0 0 1 .077-.288.427.427 0 0 0 0-.739.21.21 0 0 1-.077-.29l.11-.18.001-.003a.21.21 0 0 1 .29-.079.4.4 0 0 0 .205.058h.001a.43.43 0 0 0 .427-.42v-.003a.21.21 0 0 1 .211-.212h.21a.213.213 0 0 1 .212.219v.004a.425.425 0 0 0 .639.358.2.2 0 0 1 .1-.026q.024-.105.042-.211a.43.43 0 0 0-.247.051H5.77a.21.21 0 0 1-.29-.075.2.2 0 0 1-.027-.1.427.427 0 0 0-.427-.434zm.106 1.07a.644.644 0 0 0-.643.643c0 .27.168.501.405.596l.025-.008a1.9 1.9 0 0 0 .854-.61.644.644 0 0 0-.641-.62Zm0 .215c.237 0 .427.19.427.428s-.19.428-.427.428a.427.427 0 0 1-.429-.428c0-.238.19-.428.429-.428" style="fill:#fff;fill-opacity:1;fill-rule:evenodd;stroke-width:.12494;paint-order:fill markers stroke"/>
</svg>
