<svg xmlns="http://www.w3.org/2000/svg" xml:space="preserve" width="24" height="24">
<defs>
<linearGradient id="a" x1="12" x2="12" y1="1" y2="23" gradientUnits="userSpaceOnUse">
<stop stop-color="#33BEF0"/>
<stop offset="1" stop-color="#0A85D9"/>
</linearGradient>
</defs>
<path fill="url(#a)" fill-rule="evenodd" d="M9.596 1.114q.18.001.344-.046a32 32 0 0 1 4.307.011q1.951.153 3.78.847 3.038 1.25 4.158 4.34.64 1.86.756 3.824a28 28 0 0 1-.115 4.923 11.9 11.9 0 0 1-.893 3.32q-1.276 2.764-4.135 3.813a15.6 15.6 0 0 1-4.766.825 21.4 21.4 0 0 1-5.452-.413q-4.967-1.106-6.128-6.056a19 19 0 0 1-.447-4.511 18.5 18.5 0 0 1 .515-4.786q1.217-4.629 5.877-5.737a14 14 0 0 1 2.199-.354" clip-rule="evenodd" style="fill:url(#a)"/>
<path fill="#fff" d="M12 4c-.291 0-.583.111-.807.335l-2.45 2.451v6.517l6.515-6.517-2.451-2.451A1.14 1.14 0 0 0 12 4m5.214 4.742L13.955 12l3.259 3.258 2.451-2.451a1.14 1.14 0 0 0 0-1.614zm-11.08.652-1.8 1.799a1.14 1.14 0 0 0 0 1.614l1.8 1.8V9.392ZM12 13.954l-3.258 3.26 2.451 2.45a1.14 1.14 0 0 0 1.614 0l2.451-2.45z" style="stroke-width:.448269"/>
</svg>
