<svg xmlns="http://www.w3.org/2000/svg" xmlns:xlink="http://www.w3.org/1999/xlink" width="24" height="24" fill="none">
<path d="M12 1C2 1 1 6 1 12c0 8 3 11 11 11s11-3 11-11c0-6-1-11-11-11" style="font-variation-settings:normal;display:inline;vector-effect:none;fill:url(#a);fill-opacity:1;stroke-width:1.11627;stroke-linecap:butt;stroke-linejoin:miter;stroke-miterlimit:4;stroke-dasharray:none;stroke-dashoffset:0;stroke-opacity:1;-inkscape-stroke:none;stop-color:#000"/>
<path d="M11.46 5.5v4.876h1.08V5.5H12zm1.624.093v.552A5.96 5.96 0 0 1 17.957 12 5.957 5.957 0 0 1 12 17.957 5.957 5.957 0 0 1 6.043 12a5.96 5.96 0 0 1 4.873-5.855V5.6A6.5 6.5 0 0 0 5.5 12a6.5 6.5 0 0 0 6.5 6.5 6.5 6.5 0 0 0 6.5-6.5 6.5 6.5 0 0 0-5.416-6.407" style="fill:url(#b);stroke-width:.999999"/>
<defs>
<linearGradient xlink:href="#c" id="a" x1="57.159" x2="58.182" y1="115.199" y2="-26.193" gradientTransform="translate(-.222 -.222)scale(.24444)" gradientUnits="userSpaceOnUse"/>
<linearGradient id="c">
<stop offset="0" style="stop-color:#d9d9d9;stop-opacity:1"/>
<stop offset="1" style="stop-color:#fff;stop-opacity:1"/>
</linearGradient>
<radialGradient id="b" cx="0" cy="0" r="1" gradientTransform="rotate(89.932 6.888 5.07)scale(27.5539)" gradientUnits="userSpaceOnUse">
<stop stop-color="#F55"/>
<stop offset="1" stop-color="#972626"/>
</radialGradient>
</defs>
</svg>
