<svg xmlns="http://www.w3.org/2000/svg" xmlns:xlink="http://www.w3.org/1999/xlink" xml:space="preserve" width="24" height="24" viewBox="0 0 6.35 6.35">
<defs>
<clipPath id="h" clipPathUnits="userSpaceOnUse">
<path d="M0 0h19v19H0Z"/>
</clipPath>
<clipPath id="j" clipPathUnits="userSpaceOnUse">
<path d="M0 0h19v19H0Z"/>
</clipPath>
<clipPath id="k" clipPathUnits="userSpaceOnUse">
<path d="M0 0h19v19H0Z"/>
</clipPath>
<clipPath id="l" clipPathUnits="userSpaceOnUse">
<path d="M0 0h19v19H0Z"/>
</clipPath>
<clipPath id="m" clipPathUnits="userSpaceOnUse">
<path d="M0 0h19v19H0Z"/>
</clipPath>
<clipPath id="n" clipPathUnits="userSpaceOnUse">
<path d="M0 0h19v19H0Z"/>
</clipPath>
<clipPath id="o" clipPathUnits="userSpaceOnUse">
<path d="M0 0h19v19H0Z"/>
</clipPath>
<clipPath id="p" clipPathUnits="userSpaceOnUse">
<path d="M0 0h19v19H0Z"/>
</clipPath>
<clipPath id="q" clipPathUnits="userSpaceOnUse">
<path d="M0 0h19v19H0Z"/>
</clipPath>
<clipPath id="r" clipPathUnits="userSpaceOnUse">
<path d="M0 0h19v19H0Z"/>
</clipPath>
<clipPath id="s" clipPathUnits="userSpaceOnUse">
<path d="M0 0h19v19H0Z"/>
</clipPath>
<clipPath id="t" clipPathUnits="userSpaceOnUse">
<path d="M0 0h19v19H0Z"/>
</clipPath>
<clipPath id="u" clipPathUnits="userSpaceOnUse">
<path d="M0 0h19v19H0Z"/>
</clipPath>
<clipPath id="v" clipPathUnits="userSpaceOnUse">
<path d="M0 0h19v19H0Z"/>
</clipPath>
<clipPath id="w" clipPathUnits="userSpaceOnUse">
<path d="M0 0h19v19H0Z"/>
</clipPath>
<clipPath id="x" clipPathUnits="userSpaceOnUse">
<path d="M0 0h19v19H0Z"/>
</clipPath>
<clipPath id="y" clipPathUnits="userSpaceOnUse">
<path d="M0 0h19v19H0Z"/>
</clipPath>
<clipPath id="z" clipPathUnits="userSpaceOnUse">
<path d="M0 0h19v19H0Z"/>
</clipPath>
<clipPath id="A" clipPathUnits="userSpaceOnUse">
<path d="M0 0h19v19H0Z"/>
</clipPath>
<clipPath id="B" clipPathUnits="userSpaceOnUse">
<path d="M0 0h19v19H0Z"/>
</clipPath>
<clipPath id="d" clipPathUnits="userSpaceOnUse">
<path d="M0 0h19v19H0Z"/>
</clipPath>
<clipPath id="e" clipPathUnits="userSpaceOnUse">
<path d="M2.82 4.293c-.66 0-1.238.32-1.593.812a6 6 0 0 0-.086.297q-.24.981-.332 1.973c0 .016 0 .027-.004.043v.047a5 5 0 0 0-.024.328c-.004.019-.004.035-.008.055v.047L.77 7.93a5 5 0 0 0-.008.246c-.004.066-.004.136-.008.203v.023q.001.063-.004.133v.207q.005.122.004.25c0 .07-.004.141-.004.211v.004c0 1.055.113 2.102.34 3.133.277 1.176.765 2.137 1.472 2.875h-.007c.777.824 1.824 1.379 3.129 1.672 1.074.218 2.152.332 3.242.332h.008q.422 0 .839-.024a11.7 11.7 0 0 0 2.922-.422q.219-.059.438-.128c.07-.024.144-.043.215-.067.007-.004.019-.008.027-.016a5.4 5.4 0 0 0 2.078-1.347 5.6 5.6 0 0 0 1-1.5 8.8 8.8 0 0 0 .668-2.488q.1-.874.121-1.747c.004-.085.004-.171.008-.257v-.297a23 23 0 0 0-.043-1.36 11 11 0 0 0-.441-2.476 1.97 1.97 0 0 0-1.59-.797Z"/>
</clipPath>
<clipPath id="b" clipPathUnits="userSpaceOnUse">
<path d="M21.166 1.411h6.35V6.35h-6.35z"/>
</clipPath>
<linearGradient id="a">
<stop offset="0" style="stop-color:#000;stop-opacity:1"/>
<stop offset="1" style="stop-color:#000;stop-opacity:.5"/>
</linearGradient>
<linearGradient id="i" x1="23" x2="1" y1="1" y2="12" gradientTransform="scale(.75)" gradientUnits="userSpaceOnUse" spreadMethod="pad">
<stop offset="0" style="stop-opacity:1;stop-color:#bd7b3e"/>
<stop offset="1" style="stop-opacity:1;stop-color:#a96a30"/>
</linearGradient>
<linearGradient id="C" x1="23" x2="1.429" y1="5.4" y2="23.511" gradientTransform="matrix(.75 0 0 .75 -.001 -.032)" gradientUnits="userSpaceOnUse" spreadMethod="pad">
<stop offset="0" style="stop-opacity:1;stop-color:#bd7b3e"/>
<stop offset="1" style="stop-opacity:1;stop-color:#a96a30"/>
</linearGradient>
<linearGradient id="c" x1="21.431" x2="27.252" y1="3.794" y2="3.794" gradientUnits="userSpaceOnUse" spreadMethod="pad">
<stop offset="0" style="stop-opacity:1;stop-color:#fff"/>
<stop offset="1" style="stop-opacity:.50000763;stop-color:#fff"/>
</linearGradient>
<linearGradient id="g" x1="21.431" x2="27.252" y1="3.794" y2="3.794" gradientUnits="userSpaceOnUse" spreadMethod="pad">
<stop offset="0" style="stop-opacity:1;stop-color:#000"/>
<stop offset="1" style="stop-opacity:1;stop-color:#000"/>
</linearGradient>
<linearGradient xlink:href="#a" id="D" x1="21.431" x2="27.252" y1="3.794" y2="3.794" gradientTransform="translate(-31.75)" gradientUnits="userSpaceOnUse"/>
<mask id="f" width="1" height="1" x="0" y="0" maskUnits="userSpaceOnUse">
<g clip-path="url(#b)">
<path d="M21.166 1.411h6.35V6.35h-6.35z" style="fill:url(#c);stroke:none"/>
</g>
</mask>
</defs>
<g clip-path="url(#d)" opacity=".125" transform="translate(-10.134 -2.024)scale(.35277)">
<g clip-path="url(#e)">
<g mask="url(#f)" transform="translate(-60)scale(2.8347)">
<path d="M2.82 4.293c-.66 0-1.238.32-1.593.812a6 6 0 0 0-.086.297q-.24.981-.332 1.973c0 .016 0 .027-.004.043v.047a5 5 0 0 0-.024.328c-.004.019-.004.035-.008.055v.047L.77 7.93a5 5 0 0 0-.008.246c-.004.066-.004.136-.008.203v.023q.001.063-.004.133v.207q.005.122.004.25c0 .07-.004.141-.004.211v.004c0 1.055.113 2.102.34 3.133.277 1.176.765 2.137 1.472 2.875h-.007c.777.824 1.824 1.379 3.129 1.672 1.074.218 2.152.332 3.242.332h.008q.422 0 .839-.024a11.7 11.7 0 0 0 2.922-.422q.219-.059.438-.128c.07-.024.144-.043.215-.067.007-.004.019-.008.027-.016a5.4 5.4 0 0 0 2.078-1.347 5.6 5.6 0 0 0 1-1.5 8.8 8.8 0 0 0 .668-2.488q.1-.874.121-1.747c.004-.085.004-.171.008-.257v-.297a23 23 0 0 0-.043-1.36 11 11 0 0 0-.441-2.476 1.97 1.97 0 0 0-1.59-.797Z" style="fill:url(#g);stroke:none"/>
</g>
</g>
</g>
<g clip-path="url(#h)" opacity=".813" transform="scale(.35277)">
<path d="M7.453.801a1 1 0 0 1-.258.035 10 10 0 0 0-1.648.266q-3.492.831-4.406 4.3a13.8 13.8 0 0 0-.391 3.27v.004q-.001.158.004.316-.034 1.712.336 3.383c.578 2.477 2.113 3.992 4.594 4.543q1.607.333 3.238.332h.016q.417 0 .835-.023a11.7 11.7 0 0 0 3.575-.618q2.145-.784 3.101-2.859a9 9 0 0 0 .672-2.488q.129-1.167.129-2.332v-.004a23 23 0 0 0-.043-1.36q-.09-1.471-.566-2.867-.843-2.315-3.121-3.254a10.3 10.3 0 0 0-2.836-.636A24 24 0 0 0 9.012.75h-.008q-.773 0-1.551.051" style="fill:url(#i);fill-rule:evenodd;stroke:none"/>
</g>
<path d="M-5.799.714h-3.195a.355.355 0 0 0-.356.355V3.2c0 .196.159.356.356.356H-5.8c.197 0 .356-.16.356-.355V1.07A.355.355 0 0 0-5.8.713z" style="fill:#707ed0;fill-opacity:1;fill-rule:nonzero;stroke:none;stroke-width:.352771" transform="translate(10.583)"/>
<g clip-path="url(#j)" transform="scale(.35277)">
<g clip-path="url(#k)">
<path d="M3.496 3.535H14.57v2.012H3.496Z" style="fill:#707ed0;fill-opacity:1;fill-rule:nonzero;stroke:none"/>
</g>
</g>
<g clip-path="url(#l)" transform="scale(.35277)">
<g clip-path="url(#m)">
<path d="M12.809 7.559h-1.512a.25.25 0 0 0-.25.253v.504c0 .137.113.25.25.25h1.512a.25.25 0 0 0 .25-.25v-.504a.25.25 0 0 0-.25-.253" style="fill:#707ed0;fill-opacity:1;fill-rule:nonzero;stroke:none"/>
</g>
</g>
<g clip-path="url(#n)" transform="scale(.35277)">
<g clip-path="url(#o)">
<path d="M6.266 8.73a.94.94 0 0 1-.34.25 1 1 0 0 1-.414.09q-.051.001-.102-.004-.045-.004-.098-.015l-.093-.024a.4.4 0 0 1-.094-.035q-.048-.017-.09-.039l-.086-.051-.078-.058c-.027-.024-.051-.043-.074-.067-.024-.023-.043-.05-.067-.074l-.058-.078q-.026-.046-.051-.086c-.016-.031-.027-.059-.043-.09a1 1 0 0 1-.031-.094.4.4 0 0 1-.024-.093q-.01-.052-.015-.098c-.004-.035-.004-.066-.004-.102q-.001-.049.004-.097a1 1 0 0 1 .015-.098.4.4 0 0 1 .024-.094.5.5 0 0 1 .031-.093c.016-.032.027-.063.043-.09q.026-.046.051-.086l.058-.078c.024-.028.043-.051.067-.074a1 1 0 0 1 .074-.067l.078-.058q.044-.03.086-.051a.7.7 0 0 1 .184-.074 1 1 0 0 1 .191-.04q.051-.004.102-.003.105 0 .211.019.104.024.203.067.095.045.183.109c.055.043.11.09.157.144a1.1 1.1 0 0 1 .339-.253q.099-.042.204-.067a1.3 1.3 0 0 1 .308-.016 1 1 0 0 1 .098.016.4.4 0 0 1 .097.024 1 1 0 0 1 .094.031c.032.012.059.027.09.043a1 1 0 0 1 .082.051l.082.058q.036.03.07.067a.5.5 0 0 1 .067.074.4.4 0 0 1 .058.078q.03.04.051.086a.5.5 0 0 1 .043.09 1 1 0 0 1 .035.093l.024.094a1 1 0 0 1 .015.098c0 .031.004.066.004.097 0 .036-.004.067-.004.102a1 1 0 0 1-.015.098l-.024.093-.035.094q-.018.045-.043.09l-.051.086a1 1 0 0 1-.125.152c-.023.024-.046.043-.07.067l-.082.058c-.027.016-.055.036-.082.051a1 1 0 0 1-.09.039.4.4 0 0 1-.094.035l-.097.024q-.046.01-.098.015a1 1 0 0 1-.512-.086.8.8 0 0 1-.183-.105 1 1 0 0 1-.156-.145" style="fill:#707ed0;fill-opacity:1;fill-rule:evenodd;stroke:none"/>
</g>
</g>
<path d="M-5.799 1.164h-3.195a.354.354 0 0 0-.356.355V3.65c0 .196.159.356.356.356H-5.8c.197 0 .356-.16.356-.356V1.52a.354.354 0 0 0-.356-.355z" style="fill:#ffd351;fill-opacity:1;fill-rule:nonzero;stroke:none;stroke-width:.352771" transform="translate(10.583)"/>
<g clip-path="url(#p)" transform="scale(.35277)">
<g clip-path="url(#q)">
<path d="M3.496 4.809H14.57v2.016H3.496Z" style="fill:#ffd351;fill-opacity:1;fill-rule:nonzero;stroke:none"/>
</g>
</g>
<g clip-path="url(#r)" transform="scale(.35277)">
<g clip-path="url(#s)">
<path d="M12.809 8.836h-1.512a.25.25 0 0 0-.25.254v.5c0 .14.113.254.25.254h1.512c.14 0 .25-.114.25-.254v-.5a.25.25 0 0 0-.25-.254" style="fill:#ffd351;fill-opacity:1;fill-rule:nonzero;stroke:none"/>
</g>
</g>
<g clip-path="url(#t)" transform="scale(.35277)">
<g clip-path="url(#u)">
<path d="M6.266 10.008a1 1 0 0 1-.157.14 1 1 0 0 1-.183.11 1 1 0 0 1-.203.066 1 1 0 0 1-.211.024c-.035 0-.067-.004-.102-.004-.031-.004-.062-.012-.098-.016l-.093-.023-.094-.035a1 1 0 0 1-.09-.043q-.042-.023-.086-.051a.5.5 0 0 1-.078-.059q-.04-.03-.074-.066L4.73 9.98l-.058-.082-.051-.082c-.016-.031-.027-.062-.043-.089a1 1 0 0 1-.031-.094.4.4 0 0 1-.024-.098 1 1 0 0 1-.015-.097q-.005-.05-.004-.098a.8.8 0 0 1 .019-.195.4.4 0 0 1 .024-.098 1 1 0 0 1 .031-.094c.016-.027.027-.058.043-.086l.051-.086.058-.078c.024-.027.043-.051.067-.074a1 1 0 0 1 .074-.067 1 1 0 0 1 .078-.058q.044-.029.086-.051a1 1 0 0 1 .09-.043l.094-.035.093-.023c.036-.004.067-.012.098-.012q.051-.007.102-.008a1 1 0 0 1 .597.199c.055.043.11.09.157.145a1.1 1.1 0 0 1 .339-.254 1 1 0 0 1 .415-.09q.051.001.097.008c.035 0 .067.008.098.012q.051.01.097.023l.094.035c.032.012.059.028.09.043q.041.022.082.051a.6.6 0 0 1 .152.125 1 1 0 0 1 .067.074.4.4 0 0 1 .058.078q.03.04.051.086a.8.8 0 0 1 .078.18l.024.098a1 1 0 0 1 .015.097c0 .031.004.067.004.098s-.004.066-.004.098a1 1 0 0 1-.015.097l-.024.098-.035.094a1 1 0 0 1-.043.089 1 1 0 0 1-.051.082.5.5 0 0 1-.058.082q-.03.035-.067.071-.034.036-.07.066a.5.5 0 0 1-.082.059q-.041.028-.082.051c-.031.015-.058.031-.09.043l-.094.035-.097.023c-.031.004-.063.012-.098.016-.031 0-.062.004-.097.004a1 1 0 0 1-.211-.024 1 1 0 0 1-.204-.066 1.1 1.1 0 0 1-.339-.25" style="fill:#ffd351;fill-opacity:1;fill-rule:evenodd;stroke:none"/>
</g>
</g>
<path d="M-5.799 1.614h-3.195a.355.355 0 0 0-.356.355V4.1c0 .198.159.356.356.356H-5.8a.355.355 0 0 0 .356-.355V1.97a.355.355 0 0 0-.356-.356z" style="fill:#7bd57d;fill-opacity:1;fill-rule:nonzero;stroke:none;stroke-width:.352771" transform="translate(10.583)"/>
<g clip-path="url(#v)" transform="scale(.35277)">
<g clip-path="url(#w)">
<path d="M3.496 6.086H14.57v2.012H3.496Z" style="fill:#7bd57d;fill-opacity:1;fill-rule:nonzero;stroke:none"/>
</g>
</g>
<g clip-path="url(#x)" transform="scale(.35277)">
<g clip-path="url(#y)">
<path d="M12.809 10.113h-1.512a.25.25 0 0 0-.25.25v.504c0 .141.113.254.25.254h1.512a.25.25 0 0 0 .25-.254v-.504a.25.25 0 0 0-.25-.25" style="fill:#7bd57d;fill-opacity:1;fill-rule:nonzero;stroke:none"/>
</g>
</g>
<g clip-path="url(#z)" transform="scale(.35277)">
<g clip-path="url(#A)">
<path d="M6.266 11.281a1.1 1.1 0 0 1-.34.254 1.3 1.3 0 0 1-.203.067 1 1 0 0 1-.211.019q-.051.001-.102-.004l-.098-.012a1 1 0 0 1-.093-.027 1 1 0 0 1-.184-.074q-.042-.023-.086-.051l-.078-.058a1 1 0 0 1-.074-.067c-.024-.023-.043-.047-.067-.074l-.058-.078q-.026-.04-.051-.086c-.016-.028-.027-.059-.043-.09a1 1 0 0 1-.031-.09.5.5 0 0 1-.024-.098c-.007-.031-.011-.066-.015-.097s-.004-.067-.004-.098q-.001-.05.004-.101a1.3 1.3 0 0 1 .039-.192 1 1 0 0 1 .031-.094l.043-.089.051-.082.058-.082c.024-.024.043-.051.067-.071a1 1 0 0 1 .074-.066q.039-.034.078-.063c.028-.015.059-.035.086-.05a.5.5 0 0 1 .09-.039c.031-.016.063-.024.094-.036l.093-.023q.053-.011.098-.016.051-.005.102-.004.105 0 .211.024.104.021.203.066c.062.028.125.067.183.106.055.043.11.093.157.144q.068-.078.156-.144c.058-.039.117-.078.183-.106a1 1 0 0 1 .204-.066.94.94 0 0 1 .406-.004l.097.023c.032.012.063.02.094.036a1 1 0 0 1 .09.039c.027.015.055.035.082.05q.041.029.082.063.036.03.07.066c.024.02.047.047.067.071a.5.5 0 0 1 .058.082q.03.04.051.082.025.045.043.089l.035.094.024.094a1 1 0 0 1 .015.098l.004.101c0 .031-.004.067-.004.098a1 1 0 0 1-.015.097l-.024.098a1.3 1.3 0 0 1-.129.266.4.4 0 0 1-.058.078 1 1 0 0 1-.067.074 1 1 0 0 1-.07.067l-.082.058q-.041.028-.082.051c-.031.016-.058.031-.09.043a1 1 0 0 1-.094.031.6.6 0 0 1-.195.039 1 1 0 0 1-.308-.015 1.3 1.3 0 0 1-.204-.067 1.1 1.1 0 0 1-.339-.254" style="fill:#7bd57d;fill-opacity:1;fill-rule:evenodd;stroke:none"/>
</g>
</g>
<g clip-path="url(#B)" opacity=".658" transform="scale(.35277)">
<path d="M2.82 5.16c-.933 0-1.715.645-1.918 1.52-.004 0-.007-.004-.011-.004v.004a2 2 0 0 0-.02.168 1 1 0 0 0-.016.109c-.019.141-.031.281-.046.422 0 .019-.004.039-.004.062a8 8 0 0 0-.032.442L.77 7.93q-.011.227-.016.449v.023c0 .078-.004.16-.004.239q-.001.16.004.32v.031q-.032 1.694.336 3.348.41 1.765 1.472 2.879-.005-.005-.011-.004c.781.824 1.828 1.383 3.133 1.672 1.07.218 2.152.332 3.242.332h.008q.42 0 .839-.024a11.3 11.3 0 0 0 2.036-.215c.296-.054.593-.125.886-.203q.216-.064.438-.132c.07-.024.144-.043.215-.067a5.4 5.4 0 0 0 2.082-1.344q.012-.009.019-.019h.004c.399-.426.735-.926.996-1.5a8.8 8.8 0 0 0 .672-2.488q.129-1.167.129-2.332v-.004q-.001-.68-.043-1.36l-.012-.199-.047-.164v-.035A1.966 1.966 0 0 0 15.18 5.16Z" style="fill:url(#C);stroke:none"/>
</g>
<path d="M-9.588 1.514a.7.7 0 0 0-.563.287l-.03.105a5 5 0 0 0-.116.696l-.002.015v.017l-.01.116v.018l-.001.013v.004l-.001.013-.006.158v.055l-.001.037v.035l.001.089v.075q-.003.56.118 1.107.147.621.52 1.014h-.003q.412.434 1.105.59.566.116 1.143.116h.003q.147 0 .296-.008a4.1 4.1 0 0 0 1.185-.194l.076-.024.009-.005a1.9 1.9 0 0 0 .726-.469l.007-.007q.213-.225.353-.529.182-.421.236-.878a7 7 0 0 0 .045-.707V3.15q0-.24-.015-.48a3.8 3.8 0 0 0-.156-.873.7.7 0 0 0-.56-.282Z" style="opacity:.125;fill:url(#D);fill-opacity:1;stroke-width:.264578" transform="translate(10.583)"/>
<path d="M-6.685 5.421h-.352c-.158 0-.158-.234 0-.236h.352c.157.002.157.236 0 .236m-1.06 0h-.354c-.155 0-.155-.234 0-.236h.355c.157.002.157.236 0 .236zm-1.06 0h-.353c-.157 0-.157-.234 0-.236h.352c.157.002.157.236 0 .236zm2.087-2.712h-.354c-.157-.001-.157-.235 0-.235h.354c.156 0 .156.234 0 .235m-1.06 0h-.354c-.157-.001-.157-.235 0-.235h.353c.157 0 .157.234 0 .235zm-1.062 0h-.353c-.157-.001-.157-.235 0-.235h.353c.159-.002.159.235 0 .235m3.216 2.712h-.352c-.158 0-.158-.234 0-.236h.352c.157.002.157.236 0 .236m-.034-2.712h-.353c-.157-.001-.157-.235 0-.235h.353c.157 0 .157.234 0 .235" style="fill:#f93;fill-opacity:1;fill-rule:nonzero;stroke:none;stroke-width:.352771" transform="translate(10.583)"/>
<path d="M-4.724 2.185h-.54c-.595 0-1.079.411-1.079.916v.148c0 .505.484.915 1.079.915h.54c.1 0 .18-.081.18-.18.059-.598.06-1.14 0-1.618 0-.1-.08-.18-.18-.18z" style="fill:#6a563d;fill-opacity:1;fill-rule:nonzero;stroke:none;stroke-width:.352771" transform="translate(10.583)"/>
<path d="M-5.256 3.175a.39.39 0 1 1-.779 0 .39.39 0 0 1 .78 0z" style="fill:#ffda44;fill-opacity:1;fill-rule:nonzero;stroke:none;stroke-width:.352771" transform="translate(10.583)"/>
</svg>
