<svg xmlns="http://www.w3.org/2000/svg" xmlns:xlink="http://www.w3.org/1999/xlink" xml:space="preserve" width="24" height="24" fill="none">
<defs>
<linearGradient id="a">
<stop offset="0" style="stop-color:#2b80ff;stop-opacity:1"/>
<stop offset="1" style="stop-color:#9ac2ff;stop-opacity:1"/>
</linearGradient>
<linearGradient xlink:href="#a" id="b" x1="50.266" x2="48.458" y1="92.753" y2="-4.153" gradientTransform="translate(-.222 -.222)scale(.24444)" gradientUnits="userSpaceOnUse"/>
</defs>
<path d="M12 1C2 1 1 6 1 12c0 8 3 11 11 11s11-3 11-11c0-6-1-11-11-11" style="font-variation-settings:normal;display:inline;opacity:1;vector-effect:none;fill:url(#b);fill-opacity:1;stroke-width:1.11627;stroke-linecap:butt;stroke-linejoin:miter;stroke-miterlimit:4;stroke-dasharray:none;stroke-dashoffset:0;stroke-opacity:1;-inkscape-stroke:none;stop-color:#000;stop-opacity:1"/>
<path d="M12.003 6.954a.42.42 0 0 0-.36.198.6.6 0 0 0-.08.17 2.4 2.4 0 0 0-.083.352c-.05.275-.094.645-.137 1.086-.163 1.852-.275 3.544-.413 5.26-.147-1.374-.237-2.766-.4-4.123a11 11 0 0 0-.14-.936 2 2 0 0 0-.09-.317.6.6 0 0 0-.093-.163.43.43 0 0 0-.339-.169.45.45 0 0 0-.302.123.5.5 0 0 0-.111.146 1.3 1.3 0 0 0-.105.268 7 7 0 0 0-.157.724c-.19 1.226-.324 2.353-.49 3.5-.103-.66-.16-1.358-.242-2.006a7 7 0 0 0-.081-.515 1 1 0 0 0-.055-.196.4.4 0 0 0-.07-.128.42.42 0 0 0-.605-.071.6.6 0 0 0-.112.112 2 2 0 0 0-.152.228c-.094.163-.192.362-.287.555a9 9 0 0 1-.266.51l-.034.05H3.085a9 9 0 0 0 0 .777h3.872c.268 0 .328-.133.387-.205.062-.073.109-.147.156-.229.076-.13.153-.285.229-.437l.125 1.108c.062.537.129 1.075.209 1.497.04.21.08.387.137.545.029.077.057.15.117.23a.48.48 0 0 0 .384.207.45.45 0 0 0 .301-.12.5.5 0 0 0 .113-.147 1.3 1.3 0 0 0 .103-.269c.058-.194.107-.437.157-.725.173-1.13.305-2.154.45-3.186.18 1.632.272 3.194.462 4.803.046.379.091.696.142.938.025.118.05.218.09.316.02.05.041.1.093.162.05.063.162.169.34.169a.42.42 0 0 0 .357-.198.6.6 0 0 0 .081-.168c.035-.105.06-.216.084-.354.05-.275.092-.645.137-1.086.153-1.755.263-3.345.388-4.952.146 1.656.23 3.314.387 4.952.044.441.088.812.138 1.086.025.138.047.25.083.354a.7.7 0 0 0 .082.168.42.42 0 0 0 .357.198.43.43 0 0 0 .34-.169.6.6 0 0 0 .092-.162c.04-.098.064-.198.09-.318.05-.24.096-.557.143-.936.183-1.678.3-3.224.462-4.804.168 1.063.272 2.14.45 3.186q.073.435.156.726c.028.096.056.18.105.269a.6.6 0 0 0 .111.146.45.45 0 0 0 .301.121.48.48 0 0 0 .385-.207 1 1 0 0 0 .117-.23 3.5 3.5 0 0 0 .137-.545c.08-.422.147-.96.209-1.497.047-.419.087-.792.128-1.14.078.16.154.324.23.462a1.6 1.6 0 0 0 .15.228c.058.073.115.213.391.213h3.872a9 9 0 0 0 0-.776h-3.707c-.01-.018-.015-.022-.027-.044-.07-.125-.16-.318-.254-.512a7 7 0 0 0-.292-.565c-.05-.085-.1-.163-.169-.238s-.161-.193-.394-.193a.4.4 0 0 0-.327.167c-.042.056-.056.093-.07.128a1 1 0 0 0-.055.196 7 7 0 0 0-.081.515c-.053.408-.108.942-.168 1.473-.022.196-.05.343-.073.53-.188-1.179-.295-2.33-.493-3.495a7 7 0 0 0-.156-.725 1.3 1.3 0 0 0-.104-.269.6.6 0 0 0-.112-.146.45.45 0 0 0-.301-.123.43.43 0 0 0-.34.17.6.6 0 0 0-.091.163 2 2 0 0 0-.09.317 11 11 0 0 0-.143.936c-.156 1.466-.272 2.787-.398 4.123-.16-1.775-.243-3.506-.413-5.261a14 14 0 0 0-.137-1.085 2.4 2.4 0 0 0-.084-.354.6.6 0 0 0-.081-.17.42.42 0 0 0-.357-.197z" opacity=".35" style="fill:#fff;stroke-width:1.24961"/>
<path fill-rule="evenodd" d="m11.205 7.002-2.228.176v9.847l2.228-.305v-4.15c.988 1.617 1.836 2.89 3.159 4.455l2.362-.653c-1.265-1.586-2.208-2.836-3.07-4.36.896-1.43 2.018-3.02 3.117-4.305l-2.447-.653a43 43 0 0 0-3.12 4.284" style="fill:#fff;stroke-width:1.79258"/>
</svg>
