<svg xmlns="http://www.w3.org/2000/svg" width="24" height="24" viewBox="0 0 6.35 6.35">
<defs>
<radialGradient id="a" cx="0" cy="0" r="1" fx="0" fy="0" gradientTransform="rotate(90 1.455 1.72)scale(5.82072)" gradientUnits="userSpaceOnUse" spreadMethod="pad">
<stop offset="0" style="stop-color:#c7c7ff;stop-opacity:1"/>
<stop offset="1" style="stop-color:#8380c7;stop-opacity:1"/>
</radialGradient>
</defs>
<path d="M2.538.295A.3.3 0 0 0 2.63.283Q3.2.246 3.77.285a3.6 3.6 0 0 1 1 .225q.804.33 1.101 1.148.169.492.2 1.011.042.653-.03 1.304a3.2 3.2 0 0 1-.237.878q-.338.731-1.094 1.008a4.1 4.1 0 0 1-1.261.218 5.6 5.6 0 0 1-1.443-.109Q.691 5.677.385 4.366a5 5 0 0 1-.12-1.194 5 5 0 0 1 .137-1.266Q.724.682 1.957.389q.288-.071.581-.094" style="fill:url(#a);fill-rule:evenodd;stroke:none;stroke-width:.35277"/>
<path fill="#f9f9f9" d="m5.352 2.086.345.345a.244.244 0 0 1 0 .346L3.625 4.849l-.864.172.173-.863 2.072-2.072a.244.244 0 0 1 .346 0" style="stroke-width:.999997;paint-order:stroke fill markers"/>
<path fill="#fff" d="M2.11 1.358v.326h-.57v.081h.57v.489h-.57v.081h.57v.489h-.57v.081h.57v.488h-.57v.082h.57v.488h-.57v.082h.57v.488h-.57v.082h.57v.325h.082v-.325h.651l.017-.081h-.668v-.489h.856l.081-.081h-.937v-.489h1.425l.082-.082H2.192v-.488h1.996l.081-.081H2.192v-.489h2.565l.04-.039v-.042H2.191v-.488h2.605v-.082H2.192v-.326Zm2.4 2.605-.08.082h.367v-.082zm-.57.57-.08.082h.937v-.081z" opacity=".15" style="stroke-width:.999997;paint-order:stroke fill markers"/>
</svg>
