<svg xmlns="http://www.w3.org/2000/svg" xmlns:xlink="http://www.w3.org/1999/xlink" xml:space="preserve" width="24" height="24" fill="none">
<defs>
<linearGradient id="a">
<stop offset="0" style="stop-color:#4a0;stop-opacity:1"/>
<stop offset="1" style="stop-color:#cfa;stop-opacity:1"/>
</linearGradient>
<linearGradient xlink:href="#a" id="b" x1="53.52" x2="53.882" y1="111.013" y2="-8.492" gradientTransform="translate(-.222 -.222)scale(.24444)" gradientUnits="userSpaceOnUse"/>
</defs>
<path d="M12 1C2 1 1 6 1 12c0 8 3 11 11 11s11-3 11-11c0-6-1-11-11-11" style="font-variation-settings:normal;display:inline;opacity:1;vector-effect:none;fill:url(#b);fill-opacity:1;stroke-width:1.11627;stroke-linecap:butt;stroke-linejoin:miter;stroke-miterlimit:4;stroke-dasharray:none;stroke-dashoffset:0;stroke-opacity:1;-inkscape-stroke:none;stop-color:#000;stop-opacity:1"/>
<g transform="translate(-70.624 -46.503)scale(.33595)">
<path fill="#3c6bbb" d="M245.79 156.051a4.36 4.36 0 0 0-4.372 4.372v.3c0 .555.11 1.079.297 1.567l-5.866 4.886a6.8 6.8 0 0 0-2.724-.574 6.784 6.784 0 0 0-6.784 6.784 6.784 6.784 0 0 0 6.784 6.783 6.8 6.8 0 0 0 2.873-.647l5.975 4.979a5.1 5.1 0 0 0-.557 2.28v.346a5.09 5.09 0 0 0 5.103 5.103h12.407a5.09 5.09 0 0 0 5.103-5.103v-.347a5.09 5.09 0 0 0-5.103-5.103H246.52a5.08 5.08 0 0 0-2.992.977l-4.687-5.626a6.8 6.8 0 0 0 .84-1.922l3.488-.317a3.63 3.63 0 0 0 3.403 2.366h15.323a3.64 3.64 0 0 0 3.645-3.645v-.247a3.64 3.64 0 0 0-3.645-3.646h-15.323a3.63 3.63 0 0 0-3.403 2.363l-3.484-.314a6.8 6.8 0 0 0-.912-2.038l4.469-5.366a4.34 4.34 0 0 0 2.549.831h13.87a4.36 4.36 0 0 0 4.37-4.371v-.3a4.36 4.36 0 0 0-4.372-4.372H245.79z" style="stroke-width:1.28418"/>
<rect width="19.598" height="6.031" x="242.925" y="157.559" fill="#fff" rx="2.915" style="stroke-width:1.28418"/>
<rect width="19.598" height="4.523" x="244.432" y="171.126" fill="#fff" rx="2.186" style="stroke-width:1.28418"/>
<rect width="19.598" height="7.538" x="242.925" y="183.186" fill="#fff" rx="3.643" style="stroke-width:1.28418"/>
<circle cx="233.126" cy="173.388" r="5.277" fill="#a2d5ec" style="stroke-width:1.28418"/>
</g>
</svg>
