<svg xmlns="http://www.w3.org/2000/svg" xmlns:xlink="http://www.w3.org/1999/xlink" xml:space="preserve" width="24" height="24" fill="none">
<defs>
<linearGradient id="a">
<stop offset="0" style="stop-color:#b3b3b3;stop-opacity:1"/>
<stop offset="1" style="stop-color:#f2f2f2;stop-opacity:1"/>
</linearGradient>
<linearGradient xlink:href="#a" id="b" x1="44.661" x2="42.673" y1="88.775" y2="-15.182" gradientTransform="translate(-.222 -.222)scale(.24444)" gradientUnits="userSpaceOnUse"/>
</defs>
<path d="M12 1C2 1 1 6 1 12c0 8 3 11 11 11s11-3 11-11c0-6-1-11-11-11" style="font-variation-settings:normal;display:inline;opacity:1;vector-effect:none;fill:url(#b);fill-opacity:1;stroke-width:1.11627;stroke-linecap:butt;stroke-linejoin:miter;stroke-miterlimit:4;stroke-dasharray:none;stroke-dashoffset:0;stroke-opacity:1;-inkscape-stroke:none;stop-color:#000;stop-opacity:1"/>
<path fill="#df3c3c" d="M12.077 4.4c-.772 0-1.354.333-1.354.775v.56a.1.1 0 0 0-.035.01l-.876.446a.3.3 0 0 0-.094.076 2.1 2.1 0 0 0-.8-.145c-.772 0-1.354.333-1.354.774v.478a.3.3 0 0 0-.143.035l-1.671.898a.3.3 0 0 0-.125.133l-.02.037-.011.045c-.01.03-.025.058-.025.09v7.283c0 .114.063.22.163.276l6.077 3.387q.007.001.013.004a.3.3 0 0 0 .13.034s.01.004.014.004c.04 0 .077-.017.115-.031.013-.006.029-.003.042-.01l.002-.002.003-.001.002-.002 6.132-3.408a.32.32 0 0 0 .162-.276l.007-7.245a.32.32 0 0 0-.158-.273c-.01-.006-.023-.004-.035-.01-.014-.01-.024-.024-.04-.033l-1.672-.899c-.008-.004-.016-.003-.023-.007v-.51c0-.443-.582-.775-1.354-.775a2.1 2.1 0 0 0-.846.165q-.023-.021-.047-.038l-.796-.407a.1.1 0 0 1-.029-.008v-.655c0-.441-.581-.774-1.353-.774m-.875 1.37c.234.11.533.177.875.177s.64-.067.874-.177v.876c0 .093-.33.3-.874.3s-.875-.207-.875-.299zm-.48.669v.208c0 .441.582.773 1.354.773s1.354-.332 1.354-.773v-.112l.388.2a.5.5 0 0 0-.025.157v1.471c0 .442.583.774 1.355.774s1.354-.332 1.353-.774v-.246l.948.511-5.482 3.04L6.53 8.61l1.035-.557v.317c0 .441.582.774 1.353.774.772 0 1.354-.333 1.354-.774V6.898a.5.5 0 0 0-.048-.203l.5-.254m3.551 1.047c.233.11.533.178.875.178s.64-.068.874-.178v.877c0 .087-.306.299-.874.299-.544 0-.875-.207-.875-.298zm-6.232.005c.234.11.534.179.875.179s.641-.068.875-.178v.877c0 .086-.306.3-.875.3-.567 0-.874-.214-.874-.3zm4.014.322c-.771 0-1.355.333-1.355.774v1.472c0 .442.584.775 1.355.775.772 0 1.353-.333 1.353-.775V8.59c0-.44-.581-.774-1.353-.774m-.875 1.369c.233.111.533.179.875.179s.64-.068.873-.178v.876c0 .087-.305.3-.873.3-.544 0-.875-.208-.875-.3z" style="stroke-width:.433183"/>
</svg>
