<svg xmlns="http://www.w3.org/2000/svg" width="24" height="24" viewBox="1 1 22 22" fill="none">
<path fill="url(#a)" fill-rule="evenodd" d="M9.596 1.114q.18.001.344-.046a32 32 0 0 1 4.307.011q1.951.153 3.78.848 3.038 1.25 4.158 4.339.64 1.86.756 3.824a28 28 0 0 1-.114 4.923 11.9 11.9 0 0 1-.894 3.32q-1.276 2.764-4.135 3.813a15.6 15.6 0 0 1-4.765.825 21.4 21.4 0 0 1-5.453-.413q-4.967-1.106-6.128-6.056a19 19 0 0 1-.447-4.511 18.5 18.5 0 0 1 .515-4.786q1.217-4.629 5.877-5.736a14 14 0 0 1 2.199-.355" clip-rule="evenodd"/>
<path stroke="#F4F4F4" stroke-linejoin="round" stroke-width=".917" d="M12 10.165c3.29 0 5.958-1.026 5.958-2.291 0-1.266-2.667-2.292-5.958-2.292-3.29 0-5.958 1.026-5.958 2.292S8.71 10.166 12 10.166Z"/>
<path stroke="#F4F4F4" stroke-width=".917" d="M6.042 7.76v8.364"/>
<path stroke="#F4F4F4" stroke-linejoin="round" stroke-width=".917" d="M17.958 10.624c0 .402-.275.797-.798 1.146s-1.276.637-2.181.838c-.906.202-1.934.307-2.98.307a14 14 0 0 1-2.978-.306c-.906-.202-1.658-.491-2.181-.84-.523-.348-.799-.743-.799-1.145m11.917 2.75c0 .402-.275.797-.798 1.146s-1.276.637-2.181.838c-.906.201-1.934.307-2.98.307-1.045 0-2.073-.105-2.978-.307-.906-.2-1.658-.49-2.181-.838-.523-.349-.799-.744-.799-1.146m11.917 2.75c0 .402-.275.797-.798 1.146s-1.276.637-2.181.838c-.906.201-1.934.307-2.98.307-1.045 0-2.073-.105-2.978-.307-.906-.2-1.658-.49-2.181-.838-.523-.349-.799-.744-.799-1.146"/>
<path stroke="#F4F4F4" stroke-width=".917" d="M17.958 7.76v8.364"/>
<defs>
<radialGradient id="a" cx="0" cy="0" r="1" gradientTransform="matrix(0 11 -11 0 12 1)" gradientUnits="userSpaceOnUse">
<stop stop-color="#D89BD9"/>
<stop offset="1" stop-color="#B138B4"/>
</radialGradient>
</defs>
</svg>
