<svg xmlns="http://www.w3.org/2000/svg" width="24" height="24" viewBox="1 1 22 22" fill="none">
<path fill="url(#a)" fill-rule="evenodd" d="M9.596 1.114q.18.001.344-.046a32 32 0 0 1 4.307.011q1.951.153 3.78.848 3.038 1.25 4.158 4.339.64 1.86.756 3.824a28 28 0 0 1-.114 4.923 11.9 11.9 0 0 1-.894 3.32q-1.276 2.764-4.135 3.813a15.6 15.6 0 0 1-4.765.825 21.4 21.4 0 0 1-5.453-.413q-4.967-1.106-6.128-6.056a19 19 0 0 1-.447-4.511 18.5 18.5 0 0 1 .515-4.786q1.217-4.629 5.877-5.736a14 14 0 0 1 2.199-.355" clip-rule="evenodd"/>
<path fill="#FAFAFA" d="m17.873 6.854-5.704.003-3.166 5.483-1.108-1.921H6.469v.713h1.018l1.52 2.633 3.58-6.198h4.577v.713h.713zm-3.565 2.139a2.134 2.134 0 0 0-2.139 2.139 2.134 2.134 0 0 0 3.565 1.586v.553h.713V8.993h-.713v.552a2.13 2.13 0 0 0-1.426-.552m0 .713c.79 0 1.426.636 1.426 1.426s-.636 1.426-1.426 1.426-1.426-.636-1.426-1.426.636-1.426 1.426-1.426M5.76 14.69c-.004 0-.007.159-.007.356s.003.356.007.356h12.819c.004 0 .007-.159.007-.356s-.003-.356-.007-.356zm5.704 2.138a4 4 0 0 0-.008.357c0 .197.003.356.008.356h1.411c.005 0 .007-.159.007-.356a4 4 0 0 0-.007-.357z"/>
<defs>
<radialGradient id="a" cx="0" cy="0" r="1" gradientTransform="matrix(0 11 -11 0 12 1)" gradientUnits="userSpaceOnUse">
<stop stop-color="#9B9B9B"/>
<stop offset="1" stop-color="#656565"/>
</radialGradient>
</defs>
</svg>
