<svg xmlns="http://www.w3.org/2000/svg" xmlns:xlink="http://www.w3.org/1999/xlink" xml:space="preserve" width="24" height="24" fill="none">
<defs>
<linearGradient id="a">
<stop offset="0" style="stop-color:#474747;stop-opacity:1"/>
<stop offset="1" style="stop-color:#999;stop-opacity:1"/>
</linearGradient>
<linearGradient xlink:href="#a" id="d" x1="13.313" x2="12.688" y1="34.75" y2="-9.688" gradientUnits="userSpaceOnUse"/>
<linearGradient xlink:href="#a" id="e" x1="13.313" x2="12.688" y1="34.75" y2="-9.688" gradientUnits="userSpaceOnUse"/>
<linearGradient id="g" x1="3.174" x2="3.174" y1="1.359" y2="4.961" gradientTransform="scale(2.8347)" gradientUnits="userSpaceOnUse" spreadMethod="pad">
<stop offset="0" style="stop-opacity:.34999619;stop-color:#fff"/>
<stop offset="1" style="stop-opacity:.4;stop-color:#000"/>
</linearGradient>
<radialGradient id="b" cx="0" cy="0" r="1" gradientTransform="matrix(0 22 -22 0 12 1)" gradientUnits="userSpaceOnUse">
<stop offset="0" stop-color="#8FC8FF" style="stop-color:#f2f2f2;stop-opacity:1"/>
<stop offset="1" stop-color="#0056A8" style="stop-color:#ccc;stop-opacity:1"/>
</radialGradient>
<radialGradient xlink:href="#b" id="c" cx=".179" cy="-1.748" r="1" fx=".179" fy="-1.748" gradientTransform="matrix(0 22.01454 -22.00166 0 -26.468 -2.958)" gradientUnits="userSpaceOnUse"/>
<clipPath id="f" clipPathUnits="userSpaceOnUse">
<path d="M0 0h19v19H0Z"/>
</clipPath>
</defs>
<path d="M12 1C2 1 1 6 1 12c0 8 3 11 11 11s11-3 11-11c0-6-1-11-11-11" style="font-variation-settings:normal;display:inline;opacity:1;vector-effect:none;fill:url(#c);fill-opacity:1;stroke-width:1.11627;stroke-linecap:butt;stroke-linejoin:miter;stroke-miterlimit:4;stroke-dasharray:none;stroke-dashoffset:0;stroke-opacity:1;-inkscape-stroke:none;stop-color:#000;stop-opacity:1"/>
<g style="display:inline;fill:url(#d);fill-opacity:1">
<path d="M50 5C9.09 5 5 25.455 5 50c0 32.727 12.273 45 45 45s45-12.273 45-45c0-24.545-4.09-45-45-45" style="font-variation-settings:normal;display:inline;opacity:1;vector-effect:none;fill:url(#e);fill-opacity:1;stroke-width:4.56656;stroke-linecap:butt;stroke-linejoin:miter;stroke-miterlimit:4;stroke-dasharray:none;stroke-dashoffset:0;stroke-opacity:1;-inkscape-stroke:none;stop-color:#000;stop-opacity:1" transform="translate(-1 -1)scale(.26)"/>
</g>
<path fill="#f9f9f9" d="M7.694 5.273A1.61 1.61 0 0 0 6.08 6.888v10.225c0 .895.72 1.614 1.614 1.614h8.61c.896 0 1.616-.72 1.616-1.614V9.58l-4.305-4.306Z" style="stroke-width:1.01703;paint-order:stroke fill markers"/>
<path fill="#f9f9f9" d="M7.694 5.273A1.61 1.61 0 0 0 6.08 6.888v10.225c0 .895.72 1.614 1.614 1.614h8.61c.896 0 1.616-.72 1.616-1.614V9.58l-4.305-4.306Z" opacity=".9" style="stroke-width:1.01703;paint-order:stroke fill markers"/>
<g opacity=".9">
<path d="M5.77 3.953a1.21 1.21 0 0 0-1.211 1.211v7.672a1.21 1.21 0 0 0 1.211 1.211h6.457c.671 0 1.214-.543 1.214-1.211V7.184l-3.23-3.231z" clip-path="url(#f)" opacity="1" style="fill:url(#g);stroke:none" transform="translate(-.007)scale(1.33333)"/>
</g>
<path fill="#fff" d="M8.233 6.35c-.597 0-1.077.48-1.077 1.076v9.148c0 .597.48 1.077 1.077 1.077h7.534c.597 0 1.077-.48 1.077-1.077v-6.458L13.076 6.35Zm0 .268h4.732l3.61 3.61v6.346c0 .448-.36.808-.808.808H8.233a.805.805 0 0 1-.807-.808V7.426c0-.448.36-.808.807-.808" style="stroke-width:.269087;paint-order:stroke fill markers"/>
<path fill="#999" d="M17.965 9.528 13.66 5.222v2.691c0 .895.72 1.615 1.614 1.615z" style="stroke-width:1.01703;paint-order:stroke fill markers"/>
</svg>
