<svg xmlns="http://www.w3.org/2000/svg" width="24" height="24" viewBox="1 1 22 22" fill="none">
<path fill="url(#a)" fill-rule="evenodd" d="M9.596 1.114q.18.001.344-.046a32 32 0 0 1 4.307.011q1.951.153 3.78.848 3.038 1.25 4.158 4.339.64 1.86.756 3.824a28 28 0 0 1-.114 4.923 11.9 11.9 0 0 1-.894 3.32q-1.276 2.764-4.135 3.813a15.6 15.6 0 0 1-4.765.825 21.4 21.4 0 0 1-5.453-.413q-4.967-1.106-6.128-6.056a19 19 0 0 1-.447-4.511 18.5 18.5 0 0 1 .515-4.786q1.217-4.629 5.877-5.736a14 14 0 0 1 2.199-.355" clip-rule="evenodd"/>
<path fill="#FAFAFA" d="M5.583 17.5v-.917h9.167v.917zm0-2.75v-.917h12.834v.917zm0-2.75v-.917h12.834V12zm0-2.75v-.917h12.834v.917z"/>
<defs>
<radialGradient id="a" cx="0" cy="0" r="1" gradientTransform="matrix(0 11 -11 0 12 1)" gradientUnits="userSpaceOnUse">
<stop stop-color="#6EBBF7"/>
<stop offset="1" stop-color="#2196F3"/>
</radialGradient>
</defs>
</svg>
