<svg xmlns="http://www.w3.org/2000/svg" width="24" height="24">
<defs>
<radialGradient id="a" cx="0" cy="0" r="1" fx="0" fy="0" gradientTransform="matrix(0 16.5 -16.5 0 9 .75)" gradientUnits="userSpaceOnUse" spreadMethod="pad">
<stop offset="0" style="stop-opacity:1;stop-color:#fafafa"/>
<stop offset="1" style="stop-opacity:1;stop-color:silver"/>
</radialGradient>
</defs>
<path d="M7.195.836q.135 0 .258-.035a24 24 0 0 1 3.231.008 10.3 10.3 0 0 1 2.836.636q2.278.938 3.121 3.254.476 1.396.566 2.867a21 21 0 0 1-.086 3.696 9 9 0 0 1-.672 2.488q-.957 2.074-3.101 2.859a11.7 11.7 0 0 1-3.575.618 16 16 0 0 1-4.089-.309c-2.481-.551-4.016-2.066-4.594-4.543a14.2 14.2 0 0 1-.336-3.383q-.041-1.818.387-3.59.914-3.468 4.406-4.3A10 10 0 0 1 7.195.836" style="fill:url(#a);fill-rule:evenodd;stroke:none" transform="scale(1.33333)"/>
<g style="stroke-width:.881119" transform="translate(-21.743 -10.123)scale(1.13492)">
<rect width="4.091" height="1.636" x="32.909" y="15" opacity=".3" rx=".273" ry=".273" style="stroke-width:.881119"/>
<rect width="8.455" height="8.455" x="22" y="18" fill="#2968b4" rx="4.227" ry="4.227" style="stroke-width:.881119"/>
<path fill="#fff" d="M26.227 19.364a2.864 2.864 0 1 0 0 5.727 2.864 2.864 0 0 0 0-5.727m-.287.547c.034-.004.076.002.11 0 .004.016-.025.073-.062.156-.243.53-.257 1.15-.032 1.482.041.06.078.117.078.125s-.044.015-.094.015c-.116 0-.227-.071-.452-.25a.9.9 0 0 0-.28-.155c-.08-.016-.1-.01-.203.093-.096.096-.125.147-.125.234 0 .331.393.593 1.123.748.991.21 1.236.4 1.263.92.034.654-.314 1.148-1.076 1.53-.091.045-.149.062-.187.077-.017-.002-.03.001-.047 0a.5.5 0 0 1-.016-.156c0-.347-.136-.705-.342-.905a3 3 0 0 0-.344-.25c-.133-.08-.267-.176-.296-.217-.05-.068-.053-.11-.016-.234a.97.97 0 0 1 .312-.5.8.8 0 0 1 .187-.14c.019 0-.107-.04-.296-.078a5 5 0 0 1-.608-.172c-.262-.094-.614-.292-.748-.436l-.016-.016a2.5 2.5 0 0 1 1.45-1.7 2.5 2.5 0 0 1 .468-.14c.081-.016.165-.023.25-.031zm2.34 1.17c.058.036.28.515.343.748.081.302.075.823 0 1.123a1.2 1.2 0 0 1-.078.234c-.012.013-.057-.063-.11-.156a3 3 0 0 0-.358-.437c-.401-.423-.465-.644-.297-.982.085-.17.455-.558.5-.53" style="stroke-width:.881119"/>
<path d="M30.8 15a.6.6 0 0 0-.253.05.4.4 0 0 0-.173.137.37.37 0 0 0-.063.217q0 .184.1.298.103.111.31.196.132.054.206.103a.3.3 0 0 1 .106.107.3.3 0 0 1 .034.138q0 .136-.085.21a.35.35 0 0 1-.234.071.27.27 0 0 1-.17-.049.3.3 0 0 1-.095-.131.6.6 0 0 1-.036-.175.16.16 0 0 0-.118.043.14.14 0 0 0-.043.107q0 .141.112.228.114.087.332.086.251 0 .399-.118.15-.118.15-.33a.37.37 0 0 0-.11-.276 1 1 0 0 0-.305-.185 1.5 1.5 0 0 1-.205-.1.3.3 0 0 1-.11-.11.34.34 0 0 1-.03-.152q0-.115.07-.184a.28.28 0 0 1 .201-.07.23.23 0 0 1 .147.043.22.22 0 0 1 .078.107.4.4 0 0 1 .025.134.2.2 0 0 0 .127-.036.13.13 0 0 0 .05-.11q0-.098-.11-.174A.54.54 0 0 0 30.8 15m-5.979.022v.094h.029a.3.3 0 0 1 .127.027q.056.026.056.124v1.093q0 .105-.054.134a.3.3 0 0 1-.13.026h-.028v.094h.56v-.094h-.03a.3.3 0 0 1-.129-.026q-.053-.03-.053-.134v-1.03l.835 1.284h.16v-1.337q0-.105.053-.132a.3.3 0 0 1 .129-.029h.029v-.094h-.56v.094h.03q.072 0 .127.027.055.026.055.124v.988l-.798-1.233zm1.764 0v.094h.029q.076 0 .129.03.054.025.054.13v1.095q-.001.098-.056.125a.3.3 0 0 1-.127.024h-.03v.094h1.195l.016-.39h-.115l-.016.096a.25.25 0 0 1-.06.129q-.047.053-.152.053h-.43v-.666h.537v-.11h-.537v-.592h.375q.1 0 .142.056a.24.24 0 0 1 .054.126l.01.096h.116l-.01-.39zm1.302 0v.094h.028q.065 0 .1.025.037.024.058.092l.408 1.381h.205l.342-1.249.363 1.249h.2l.378-1.324q.03-.112.066-.143a.16.16 0 0 1 .103-.03h.042v-.095h-.544v.094h.051q.148 0 .148.11a.3.3 0 0 1-.01.052l-.015.063-.196.69a3 3 0 0 0-.051.195l-.038.17a6 6 0 0 0-.096-.393l-.278-.965h-.161l-.266.956a4 4 0 0 0-.05.212l-.041.19a7 7 0 0 0-.096-.377l-.205-.714-.013-.044-.005-.038q0-.107.134-.107h.051v-.094z" opacity=".7" style="stroke-width:.881119"/>
<rect width="6" height=".545" x="31" y="18" opacity=".35" rx=".273" ry=".273" style="stroke-width:.881119"/>
<rect width="6" height=".545" x="31" y="19.636" opacity=".35" rx=".273" ry=".273" style="stroke-width:.881119"/>
<rect width="6" height=".545" x="31" y="21.273" opacity=".35" rx=".273" ry=".273" style="stroke-width:.881119"/>
<rect width="6" height=".545" x="31" y="22.909" opacity=".35" rx=".273" ry=".273" style="stroke-width:.881119"/>
</g>
</svg>
