<svg xmlns="http://www.w3.org/2000/svg" width="24" height="24" viewBox="0 0 6.35 6.35">
<defs>
<radialGradient id="a" cx="0" cy="0" r="1" gradientTransform="rotate(90 1.455 1.72)scale(5.82072)" gradientUnits="userSpaceOnUse">
<stop offset="0" stop-color="#FAFAFA" style="stop-color:#fafafa;stop-opacity:.59629631"/>
<stop offset="1" stop-color="#B0B0B0" style="stop-color:#b0b0b0;stop-opacity:0"/>
</radialGradient>
</defs>
<path d="M3.164.265q-.267 0-.534.018a.3.3 0 0 1-.091.012q-.295.023-.582.094Q.724.681.402 1.906a5 5 0 0 0-.136 1.266 5 5 0 0 0 .118 1.194q.307 1.31 1.621 1.603.715.146 1.443.109.648-.011 1.26-.219a1.87 1.87 0 0 0 1.095-1.008q.182-.421.236-.879a7.3 7.3 0 0 0 .03-1.302 3.8 3.8 0 0 0-.2-1.012A1.89 1.89 0 0 0 4.77.51a3.6 3.6 0 0 0-1-.224 8 8 0 0 0-.543-.02Z" style="fill:#4d4d4d;fill-opacity:1;stroke-width:.423277"/>
<path d="M3.2.265h-.025v2.909h2.908a7 7 0 0 0-.013-.504 3.8 3.8 0 0 0-.2-1.012A1.89 1.89 0 0 0 4.77.51a3.6 3.6 0 0 0-1-.224A8 8 0 0 0 3.2.265M.266 3.175q-.012.602.118 1.191.307 1.31 1.622 1.603a5.7 5.7 0 0 0 1.079.116h.09v-2.91Z" style="fill:#1f8fd7;fill-opacity:1;stroke-width:.264578"/>
<path fill="url(#a)" fill-rule="evenodd" d="M2.63.283a.3.3 0 0 1-.091.012q-.295.023-.582.094Q.724.681.402 1.906q-.15.624-.136 1.266-.012.605.118 1.194.307 1.31 1.621 1.603.715.146 1.443.108.648-.01 1.26-.218a1.87 1.87 0 0 0 1.095-1.008q.182-.421.236-.879a7.3 7.3 0 0 0 .03-1.302 3.8 3.8 0 0 0-.2-1.012A1.89 1.89 0 0 0 4.77.51a3.6 3.6 0 0 0-1-.224A8 8 0 0 0 2.63.283" clip-rule="evenodd" style="opacity:.35;fill:url(#a);stroke-width:.264578"/>
</svg>
