<svg xmlns="http://www.w3.org/2000/svg" xml:space="preserve" width="24" height="24">
<defs>
<radialGradient id="a" cx="0" cy="0" r="1" fx="0" fy="0" gradientTransform="matrix(0 22 -22 0 46 1)" gradientUnits="userSpaceOnUse" spreadMethod="pad">
<stop offset="0" style="stop-opacity:1;stop-color:#f7e8b1"/>
<stop offset="1" style="stop-opacity:1;stop-color:#fad25a"/>
</radialGradient>
</defs>
<path d="M43.937 1.068q-.164.046-.344.047c-.738.057-1.473.177-2.197.354q-4.657 1.109-5.875 5.734a18.5 18.5 0 0 0-.516 4.786 19 19 0 0 0 .448 4.511c.771 3.303 2.818 5.323 6.126 6.057 1.801.37 3.618.511 5.452.412a15.6 15.6 0 0 0 4.766-.824q2.86-1.046 4.135-3.812.687-1.592.896-3.317.273-2.46.115-4.928a14.6 14.6 0 0 0-.755-3.823q-1.124-3.087-4.161-4.338a13.7 13.7 0 0 0-3.782-.848 32 32 0 0 0-4.308-.011" style="fill:url(#a);fill-rule:evenodd;stroke:none;stroke-width:1.33333" transform="translate(-34)"/>
<path d="M46 5.75a7.503 7.503 0 0 0-7.49 7.875l4.49 1.63a3.001 3.001 0 0 0 6-.004l4.484-1.652.016-.348A7.503 7.503 0 0 0 46 5.749Z" style="fill:#f7e8b1;fill-opacity:1;fill-rule:nonzero;stroke:none;stroke-width:1.33333" transform="translate(-34)"/>
<path d="M47.15 14.5a1.8 1.8 0 0 0-.645-.53c-.833-.407-1.781-.115-2.13.67-.344.792.041 1.767.876 2.177.828.412 1.776.104 2.129-.672q1.29-2.936 2.59-5.874c.833 2.26.53 2.63-1.273 4.161 3.256-1.12 3.095-2.739 1.21-6.181C48.969 10.38 48 12.584 47.15 14.5" style="fill:#659862;fill-opacity:1;fill-rule:evenodd;stroke:none;stroke-width:1.33333" transform="translate(-34)"/>
</svg>
