<svg xmlns="http://www.w3.org/2000/svg" width="24" height="24" fill="none">
<path d="M50 5C9.09 5 5 25.455 5 50c0 32.727 12.273 45 45 45s45-12.273 45-45c0-24.545-4.09-45-45-45" style="font-variation-settings:normal;display:inline;opacity:1;vector-effect:none;fill:#0071c6;fill-opacity:1;stroke-width:4.56656;stroke-linecap:butt;stroke-linejoin:miter;stroke-miterlimit:4;stroke-dasharray:none;stroke-dashoffset:0;stroke-opacity:1;-inkscape-stroke:none;stop-color:#000;stop-opacity:1" transform="translate(-1 -1)scale(.26)"/>
<g fill="#fff" stroke-width=".357">
<path d="M13.75 7.918v2.789l.98.71h.105L18.998 8.5a.56.56 0 0 0-.582-.582z"/>
<path d="m13.764 11.729.88.599c.125.09.274 0 .274 0C14.77 12.418 19 9.665 19 9.665v5.252c0 .355-.178.582-.584.582h-4.665ZM9.19 10.467a.81.81 0 0 0-.718.417q-.267.42-.266 1.11 0 .7.264 1.107.266.407.7.406.441 0 .702-.395.261-.397.261-1.1 0-.732-.253-1.14a.78.78 0 0 0-.692-.405z"/>
<path d="M5 6.75v10.5L13.167 19V5zm5.514 6.995a1.64 1.64 0 0 1-1.36.68 1.62 1.62 0 0 1-1.337-.66q-.514-.657-.515-1.715 0-1.12.523-1.808a1.66 1.66 0 0 1 1.389-.69q.815 0 1.319.661.504.66.504 1.74 0 1.112-.523 1.792"/>
</g>
</svg>
