<svg xmlns="http://www.w3.org/2000/svg" width="24" height="24" viewBox="0 0 6.35 6.35">
<path d="M2.538.295A.3.3 0 0 0 2.63.283Q3.2.246 3.77.285a3.6 3.6 0 0 1 1 .225q.804.33 1.101 1.148.169.492.2 1.011.042.653-.03 1.304a3.2 3.2 0 0 1-.237.878q-.338.731-1.094 1.008a4.1 4.1 0 0 1-1.261.218 5.6 5.6 0 0 1-1.443-.109Q.691 5.677.385 4.366a5 5 0 0 1-.12-1.194 5 5 0 0 1 .137-1.266Q.724.682 1.957.389q.288-.071.581-.094" style="fill:#f2f2f2;fill-opacity:1;fill-rule:evenodd;stroke:none;stroke-width:.352771"/>
<g style="stroke-width:2.61374">
<path fill="#f55" d="M3.026 3.97A4.5 4.5 0 0 0-.006 5.283a4.5 4.5 0 0 0-.367 5.935l.945-.945A3.175 3.175 0 0 1 .93 6.219a3.18 3.18 0 0 1 3.303-.744v1.136L5.93 4.914a4.5 4.5 0 0 0-2.904-.944" style="stroke-width:2.61374;paint-order:stroke markers fill" transform="translate(1.96 -.063)scale(.3826)"/>
<path fill="#ff8080" d="m6.723 5.709-.945.945a3.175 3.175 0 0 1-.359 4.054 3.18 3.18 0 0 1-3.303.744v-1.137L.994 11.438l-.575.574a4.5 4.5 0 0 0 5.936-.368 4.5 4.5 0 0 0 .368-5.935" style="stroke-width:2.61374;paint-order:stroke markers fill" transform="translate(1.96 -.063)scale(.3826)"/>
</g>
</svg>
