<svg xmlns="http://www.w3.org/2000/svg" width="24" height="24" version="1">
<path d="M9.593 1.115q.18 0 .344-.047a32 32 0 0 1 4.308.01 13.7 13.7 0 0 1 3.781.849c2.026.833 3.41 2.281 4.162 4.338.42 1.24.676 2.516.754 3.823a28.3 28.3 0 0 1-.114 4.928 12 12 0 0 1-.896 3.317q-1.276 2.766-4.135 3.812a15.6 15.6 0 0 1-4.767.824 21.3 21.3 0 0 1-5.452-.412c-3.308-.734-5.354-2.754-6.125-6.057a19 19 0 0 1-.448-4.51 18.5 18.5 0 0 1 .516-4.787q1.218-4.625 5.875-5.734a14 14 0 0 1 2.197-.354" style="fill:#1e88e5;fill-opacity:1;fill-rule:evenodd;stroke:none;stroke-width:1.33333"/>
<g style="stroke-width:3.06667" transform="translate(1.565 1.565)scale(.32609)">
<path fill="#fff" d="m54 32-8 6v-4h-8v-4h8v-4z" opacity=".5" style="stroke-width:3.06667"/>
<rect width="4" height="46" x="30" y="9" opacity=".5" rx="2" ry="2" style="stroke-width:3.06667"/>
<path fill="#fff" d="m10 32 8 6v-4h8v-4h-8v-4z" opacity=".5" style="stroke-width:3.06667"/>
</g>
</svg>
