<svg xmlns="http://www.w3.org/2000/svg" xmlns:xlink="http://www.w3.org/1999/xlink" xml:space="preserve" width="24" height="24" fill="none">
<defs>
<linearGradient id="a">
<stop offset="0" style="stop-color:#b3b3b3;stop-opacity:1"/>
<stop offset="1" style="stop-color:#ededed;stop-opacity:1"/>
</linearGradient>
<linearGradient xlink:href="#a" id="b" x1="46.469" x2="47.735" y1="142.109" y2="-18.255" gradientTransform="translate(-.222 -.222)scale(.24444)" gradientUnits="userSpaceOnUse"/>
</defs>
<path d="M12 1C2 1 1 6 1 12c0 8 3 11 11 11s11-3 11-11c0-6-1-11-11-11" style="font-variation-settings:normal;display:inline;opacity:1;vector-effect:none;fill:url(#b);fill-opacity:1;stroke-width:1.11627;stroke-linecap:butt;stroke-linejoin:miter;stroke-miterlimit:4;stroke-dasharray:none;stroke-dashoffset:0;stroke-opacity:1;-inkscape-stroke:none;stop-color:#000;stop-opacity:1"/>
<path fill="#d5600f" d="M78.122 160.498c.487-.006.907 0 1.581.166 1.767.442 2.298.774 3.912 2.45 1.25 1.296 1.61 1.774 2.93 3.903 1.651 2.665 2.312 3.909 2.931 5.512.221.584.807 1.897 1.297 2.917.486 1.023 1.128 2.494 1.423 3.276.293.782.797 2.007 1.117 2.723.318.713.962 2.25 1.427 3.411a95 95 0 0 0 1.277 3.06c.304.673.495.946.652.946.288 0 2.107-.434 3.083-.735.738-.227 2.994-1.327 4.874-2.378.508-.282 1.482-.953 2.162-1.492 1.415-1.123 5.269-4.556 5.667-5.051.15-.183 1.023-1.161 1.94-2.179a303 303 0 0 0 3.216-3.621 599 599 0 0 1 2.477-2.837 249 249 0 0 0 2.184-2.543c1.703-2.026 5.399-5.64 6.9-6.748 2.734-2.021 4.517-2.903 6.712-3.323 1.637-.315 2.975-.194 4.855.445 1.531.52 1.996.744 3.151 1.523.479.32 1.023.68 1.211.794.904.547 3.705 2.938 5.656 4.835 4.263 4.133 8.496 7.69 8.797 7.39.133-.133-.323-1.272-1.692-4.236a59 59 0 0 1-1.357-3.218 111 111 0 0 0-1.424-3.525 86 86 0 0 1-1.42-3.585 90 90 0 0 0-1.419-3.589 142 142 0 0 1-1.548-3.831 618 618 0 0 0-1.52-3.959c-.99-2.557-3.219-8.946-6.644-19.048-3.411-10.06-5.073-14.74-7.022-19.785-1.658-4.297-4.755-10.663-6.413-13.193-1.17-1.777-3.428-4.13-4.534-4.724-.946-.504-2.278-.586-3.376-.21-.793.273-1.16.464-1.487.774a26 26 0 0 1-.827.702c-.52.431-1.183 1.238-1.935 2.272-.304 1.142-.473 2.273-.802 3.414a160 160 0 0 1-5.545 15.943 148 148 0 0 1-7.334 15.399 136 136 0 0 1-4.344 7.354 127 127 0 0 1-4.804 7.038 118 118 0 0 1-5.261 6.67 110 110 0 0 1-5.723 6.243 104 104 0 0 1-5.004 4.65z" style="stroke-width:2.76453" transform="translate(-1.527 -6.063)scale(.12964)"/>
<path fill="#6dd6cd" d="M78.122 160.498a103 103 0 0 0 4.998-4.65 110 110 0 0 0 5.723-6.242 119 119 0 0 0 5.264-6.668 127 127 0 0 0 4.804-7.041 136 136 0 0 0 4.346-7.351 148 148 0 0 0 7.332-15.399 160 160 0 0 0 5.543-15.946c.331-1.141.5-2.272.804-3.414a62 62 0 0 0-3.165 4.916 125 125 0 0 1-2.157 3.527 70 70 0 0 0-1.23 1.971c-.793 1.363-3.42 4.946-5.487 7.49-1.753 2.153-5.076 5.238-6.331 5.874a11 11 0 0 0-.929.553c-.611.409-1.742.857-3.257 1.29-1.28.366-3.676 1.552-4.708 2.329-1.76 1.327-5.697 5.567-7.34 7.906a13 13 0 0 1-.87 1.103c-.224.244-.517.59-.65.766-.15.196-.647.484-1.294.746-.578.235-1.55.65-2.164.921a115 115 0 0 1-3.771 1.512c-1.463.561-3.246 1.291-3.959 1.618-.713.326-1.742.763-2.286.962-1.512.558-4.741 1.857-5.245 2.114-.246.125-2.17.904-4.28 1.728a144 144 0 0 0-4.762 1.935c-.509.238-1.596.7-2.411 1.023-1.96.785-1.977.868-.37 1.924.558.368 2.515 1.775 4.437 3.19.4.294 1.097.789 1.548 1.095a95 95 0 0 1 1.99 1.424c.647.476 1.41 1.015 1.698 1.203.472.304 2.421 1.705 4.287 3.08.401.295 1.098.787 1.549 1.094.76.525 2.43 1.725 4.144 2.986 1.393 1.023 2.806 1.96 2.96 1.96.16 0 2.157-.78 2.533-.99.47-.26 1.493-.52 2.31-.583.13-.011.277.044.396.044" style="stroke-width:2.76453" transform="translate(-1.527 -6.063)scale(.12964)"/>
</svg>
