<svg xmlns="http://www.w3.org/2000/svg" xmlns:xlink="http://www.w3.org/1999/xlink" width="24" height="24">
<defs>
<linearGradient xlink:href="#a" id="e" x1="0" x2="48.75" y1="1.056" y2="48" gradientTransform="translate(-17.333 -21.333)scale(1.33333)" gradientUnits="userSpaceOnUse"/>
<linearGradient id="a">
<stop offset="0" style="stop-color:#4776e6;stop-opacity:1"/>
<stop offset="1" style="stop-color:#8e54e9;stop-opacity:1"/>
</linearGradient>
<linearGradient xlink:href="#a" id="f" x1="0" x2="48.75" y1="-.75" y2="48" gradientTransform="translate(-17.333 -21.333)scale(1.33333)" gradientUnits="userSpaceOnUse"/>
<linearGradient xlink:href="#b" id="g" x1="28.011" x2="28.011" y1="8.25" y2="39.75" gradientUnits="userSpaceOnUse"/>
<linearGradient id="b" x1="-.008" x2=".951" y1=".06" y2=".972" gradientTransform="matrix(46 0 0 46 1 1)" gradientUnits="userSpaceOnUse">
<stop offset="0" style="stop-color:#8e54e9;stop-opacity:1"/>
<stop offset=".983" style="stop-color:#4776e6;stop-opacity:1"/>
</linearGradient>
<linearGradient xlink:href="#a" id="h" x1="24.355" x2="30" y1="11.806" y2="17.825" gradientUnits="userSpaceOnUse"/>
<linearGradient xlink:href="#b" id="k" x1="28.011" x2="28.011" y1="8.438" y2="39.562" gradientUnits="userSpaceOnUse"/>
<linearGradient xlink:href="#a" id="j" x1="24.339" x2="30.014" y1="28.521" y2="33.893" gradientUnits="userSpaceOnUse"/>
<linearGradient xlink:href="#a" id="m" x1="24.355" x2="30" y1="18.021" y2="24" gradientUnits="userSpaceOnUse"/>
<linearGradient xlink:href="#b" id="i" x1="28.011" x2="28.011" y1="8.438" y2="39.562" gradientUnits="userSpaceOnUse"/>
<radialGradient id="c" cx="0" cy="0" r="1" gradientTransform="matrix(0 22 -22 0 12 1)" gradientUnits="userSpaceOnUse">
<stop offset="0" stop-color="#555" style="stop-color:#919191;stop-opacity:1"/>
<stop offset="1" stop-color="#222" style="stop-color:#4e4e4e;stop-opacity:1"/>
</radialGradient>
<radialGradient id="d" cx="0" cy="0" r="1" gradientTransform="matrix(0 22 -22 0 12 1)" gradientUnits="userSpaceOnUse">
<stop stop-color="#555"/>
<stop offset="1" stop-color="#222"/>
</radialGradient>
<filter id="l" width="1.105" height="1.014" x="-.053" y="-.007" style="color-interpolation-filters:sRGB">
<feGaussianBlur stdDeviation=".088"/>
</filter>
</defs>
<path fill="url(#c)" fill-rule="evenodd" d="M9.596 1.114q.18.001.344-.046a32 32 0 0 1 4.307.011q1.951.153 3.78.848 3.038 1.25 4.158 4.339.64 1.86.756 3.824a28 28 0 0 1-.115 4.923 11.9 11.9 0 0 1-.893 3.32q-1.276 2.764-4.135 3.813a15.6 15.6 0 0 1-4.766.825 21.4 21.4 0 0 1-5.452-.412q-4.967-1.107-6.128-6.057a19 19 0 0 1-.447-4.511 18.5 18.5 0 0 1 .515-4.786q1.217-4.629 5.877-5.736a14 14 0 0 1 2.199-.355" clip-rule="evenodd" style="fill:url(#d)"/>
<g style="stroke-width:4.71795">
<path d="M40-4.6a2.668 2.668 0 0 0 5.333 0v-8.733A6.67 6.67 0 0 0 38.667-20h-48A6.67 6.67 0 0 0-16-13.333V12a2.668 2.668 0 0 0 5.333 0v-22.667c0-2.208 1.792-4 4-4H36c2.208 0 4 1.792 4 4z" style="isolation:isolate;fill:url(#e);fill-opacity:1;stroke-width:6.29058" transform="translate(8.891 9.74)scale(.21196)"/>
<path d="M-10.667 25.933a2.668 2.668 0 0 0-5.333 0v8.734a6.67 6.67 0 0 0 6.667 6.666h48a6.67 6.67 0 0 0 6.666-6.666V8.24a2.668 2.668 0 0 0-5.333 0V32c0 2.208-1.792 4-4 4H-6.667c-2.208 0-4-1.792-4-4z" style="isolation:isolate;fill:url(#f);fill-opacity:1;stroke-width:6.29058" transform="translate(8.891 9.74)scale(.21196)"/>
<g style="opacity:.96;isolation:isolate;stroke-width:4.71795">
<g style="stroke:none;stroke-width:4.71795;stroke-opacity:1" transform="translate(1.116 5.217)scale(.2826)">
<path d="M27.876 39.562h.135c1.997 0 2.009-1.746 2.007-2.973L30 24h-3.978v12.59c0 1.226-.053 2.972 1.854 2.972m0-31.124h.135c1.997 0 1.989 1.746 1.989 2.973V24h-3.978V11.438c0-1.228-.053-3 1.854-3" style="isolation:isolate;fill:url(#g);fill-opacity:1;stroke:none;stroke-width:5.72768;stroke-miterlimit:10;stroke-opacity:1"/>
<circle cx="28.02" cy="15.75" r="3.75" style="isolation:isolate;fill:url(#h);fill-opacity:1;stroke:none;stroke-width:4.42308;stroke-opacity:1"/>
</g>
<g style="isolation:isolate;stroke:none;stroke-width:4.71795;stroke-opacity:1" transform="translate(4.19 5.217)scale(.2826)">
<path d="M27.876 39.562h.135c1.997 0 2.009-1.746 2.007-2.973L30 24h-3.978v12.59c0 1.226-.053 2.972 1.854 2.972m0-31.124h.135c1.997 0 1.989 1.746 1.989 2.973V24h-3.978V11.438c0-1.228-.053-3 1.854-3" style="isolation:isolate;fill:url(#i);fill-opacity:1;stroke:none;stroke-width:5.72768;stroke-miterlimit:10;stroke-opacity:1"/>
<circle cx="28.02" cy="32.25" r="3.75" style="isolation:isolate;fill:url(#j);fill-opacity:1;stroke:none;stroke-width:4.42308;stroke-opacity:1"/>
</g>
<g style="isolation:isolate;stroke-width:4.71795" transform="translate(7.263 5.217)scale(.2826)">
<path d="M27.876 39.562h.135c1.997 0 2.009-1.746 2.007-2.973L30 24h-3.978v12.59c0 1.226-.053 2.972 1.854 2.972m0-31.124h.135c1.997 0 1.989 1.746 1.989 2.973V24h-3.978V11.438c0-1.228-.053-3 1.854-3" style="isolation:isolate;fill:url(#k);fill-opacity:1;stroke:none;stroke-width:5.72768;stroke-miterlimit:10;stroke-opacity:1;filter:url(#l)"/>
<circle cx="28.02" cy="21.75" r="3.75" style="isolation:isolate;fill:url(#m);fill-opacity:1;stroke-width:4.42308"/>
</g>
</g>
</g>
</svg>
