<svg xmlns="http://www.w3.org/2000/svg" width="24" height="24">
<defs>
<radialGradient id="a" cx="0" cy="0" r="1" gradientTransform="matrix(0 11 -11 0 12 1)" gradientUnits="userSpaceOnUse">
<stop offset="0" stop-color="#F08C85" style="stop-color:#ff9494;stop-opacity:1"/>
<stop offset="1" stop-color="#E84F43" style="stop-color:#d8394b;stop-opacity:1"/>
</radialGradient>
</defs>
<path fill="url(#a)" fill-rule="evenodd" d="M9.596 1.114q.18.001.344-.046a32 32 0 0 1 4.307.011q1.951.153 3.78.848 3.038 1.25 4.158 4.339.64 1.86.756 3.824a28 28 0 0 1-.115 4.923 11.9 11.9 0 0 1-.893 3.32q-1.276 2.764-4.135 3.813a15.6 15.6 0 0 1-4.766.825 21.4 21.4 0 0 1-5.452-.412q-4.967-1.107-6.128-6.057a19 19 0 0 1-.447-4.511 18.5 18.5 0 0 1 .515-4.786q1.217-4.629 5.877-5.736a14 14 0 0 1 2.199-.355" clip-rule="evenodd" style="fill:url(#a);stroke-width:1"/>
<path fill="#f5cdcd" d="M8.325 7.235c-.565.017-1.112.273-1.53.66-.426.394-.731.934-.793 1.515a2 2 0 0 0 .094.865c.095.276.256.53.469.726.251.232.565.378.854.56.144.09.284.19.403.312.12.123.22.268.274.43a1 1 0 0 1 .039.455 1.1 1.1 0 0 1-.158.427c-.16.26-.42.449-.705.55-.331.117-.695.123-1.014.27a1.3 1.3 0 0 0-.596.568 1.4 1.4 0 0 0-.153.817c.038.329.193.641.425.873a1.563 1.563 0 0 0 2.18.016 1.5 1.5 0 0 0 .375-.611c.073-.231.088-.481.04-.72-.036-.18-.107-.352-.173-.525a2 2 0 0 1-.144-.534 1.24 1.24 0 0 1 .308-.902 1.54 1.54 0 0 1 .824-.478 1.6 1.6 0 0 1 .618-.02 1.3 1.3 0 0 1 .569.244c.166.127.298.3.372.497a1 1 0 0 1 .028.621c-.06.208-.19.385-.32.556-.132.17-.268.341-.346.542a1.17 1.17 0 0 0-.036.702c.059.231.183.443.346.615.18.19.408.332.655.41s.502.09.761.09c.26 0 .53-.013.778-.09a1.55 1.55 0 0 0 .656-.41c.163-.172.287-.384.346-.614a1.17 1.17 0 0 0-.036-.703c-.078-.201-.215-.372-.346-.542s-.26-.348-.32-.556a1 1 0 0 1 .028-.621c.074-.198.206-.37.372-.497s.364-.21.568-.245a1.6 1.6 0 0 1 .619.02c.314.072.611.233.824.479s.336.576.308.902a2 2 0 0 1-.144.534c-.067.173-.138.345-.174.526a1.46 1.46 0 0 0 .04.72c.074.23.204.441.376.61.343.337.847.49 1.319.417a1.56 1.56 0 0 0 .861-.433 1.5 1.5 0 0 0 .425-.873 1.4 1.4 0 0 0-.153-.817 1.3 1.3 0 0 0-.597-.568c-.318-.147-.682-.153-1.013-.27a1.36 1.36 0 0 1-.705-.55 1.1 1.1 0 0 1-.158-.427 1 1 0 0 1 .039-.454 1.1 1.1 0 0 1 .274-.43c.119-.123.258-.223.403-.314.288-.181.602-.327.854-.56a1.8 1.8 0 0 0 .468-.725 2 2 0 0 0 .094-.864c-.061-.582-.366-1.122-.792-1.516-.419-.387-.965-.643-1.53-.66a1.95 1.95 0 0 0-.83.153 1.8 1.8 0 0 0-.676.507c-.207.254-.337.563-.456.87-.12.307-.231.62-.412.894-.297.452-.766.882-1.301.882-.536 0-1.004-.43-1.302-.882-.18-.275-.292-.587-.411-.894-.12-.307-.25-.616-.456-.87a1.8 1.8 0 0 0-.677-.507 1.95 1.95 0 0 0-.829-.153M12 11.422a.868.882 0 0 1 .868.882.868.882 0 0 1-.868.881.868.882 0 0 1-.867-.881.868.882 0 0 1 .867-.882" style="stroke-width:.999699"/>
</svg>
