<svg xmlns="http://www.w3.org/2000/svg" width="24" height="24" viewBox="0 0 6.35 6.35">
<defs>
<radialGradient id="a" cx="0" cy="0" r="1" gradientTransform="rotate(90 1.455 1.72)scale(5.82072)" gradientUnits="userSpaceOnUse">
<stop offset="0" stop-color="#8FC8FF" style="stop-color:#91a2ff;stop-opacity:1"/>
<stop offset="1" stop-color="#0056A8" style="stop-color:#6961b8;stop-opacity:1"/>
</radialGradient>
</defs>
<path fill="url(#a)" fill-rule="evenodd" d="M2.539.295a.3.3 0 0 0 .09-.012 8 8 0 0 1 1.14.003 3.5 3.5 0 0 1 1 .224q.804.33 1.1 1.148.17.492.2 1.012a7.3 7.3 0 0 1-.03 1.302 3.1 3.1 0 0 1-.236.879 1.87 1.87 0 0 1-1.094 1.008 4.1 4.1 0 0 1-1.26.219 5.7 5.7 0 0 1-1.444-.11Q.693 5.676.385 4.366a5 5 0 0 1-.12-1.194 5 5 0 0 1 .137-1.266Q.724.682 1.957.39q.287-.071.582-.094z" clip-rule="evenodd" style="fill:url(#a);stroke-width:.264578"/>
<g paint-order="markers stroke fill" transform="translate(-4.387 -1.11)scale(.50663)">
<rect width="6.879" height="7.938" x="11.486" y="4.49" fill="#fff" stroke="#000" stroke-linecap="round" stroke-linejoin="round" stroke-opacity=".196" stroke-width=".529" rx=".529" ry=".529"/>
<path d="M11.486 5.82h6.88v.264h-6.88zm0 1.587h6.88v.265h-6.88zm0 1.588h6.88v.264h-6.88zm0 1.587h6.88v.265h-6.88z" opacity=".1"/>
<circle cx="12.28" cy="5.29" r=".265" fill="#6961b8"/>
<circle cx="12.28" cy="6.88" r=".265" fill="#6961b8"/>
<circle cx="12.28" cy="8.46" r=".265" fill="#6961b8"/>
<circle cx="12.28" cy="10.05" r=".265" fill="#6961b8"/>
<circle cx="12.28" cy="11.64" r=".265" fill="#6961b8"/>
</g>
</svg>
