<svg xmlns="http://www.w3.org/2000/svg" xml:space="preserve" width="24" height="24" version="1">
<defs>
<linearGradient id="a" x1="236.059" x2="222.894" y1="-.636" y2="515.021" gradientTransform="matrix(-.04929 0 0 -.04929 57 23)" gradientUnits="userSpaceOnUse" spreadMethod="pad">
<stop offset="0" style="stop-opacity:1;stop-color:#4f4f4f"/>
<stop offset="1" style="stop-opacity:1;stop-color:#7d7d7d"/>
</linearGradient>
<clipPath id="b" clipPathUnits="userSpaceOnUse">
<path d="M0 0h19v19H0Z"/>
</clipPath>
</defs>
<path d="M48.407 22.885q-.18 0-.344.047a32 32 0 0 1-4.308-.01 13.7 13.7 0 0 1-3.782-.849q-3.036-1.251-4.161-4.338a14.6 14.6 0 0 1-.755-3.823 28.3 28.3 0 0 1 .115-4.928q.209-1.724.896-3.317 1.276-2.766 4.135-3.812a15.6 15.6 0 0 1 4.766-.824 21.3 21.3 0 0 1 5.452.412c3.308.734 5.355 2.754 6.126 6.057q.494 2.228.448 4.51a18.5 18.5 0 0 1-.516 4.787q-1.218 4.625-5.875 5.734c-.724.177-1.459.297-2.197.354" style="fill:url(#a);fill-rule:evenodd;stroke:none;stroke-width:1.33333" transform="translate(-34)"/>
<path d="M46 4.5c4.156 0 7.5 3.344 7.5 7.5s-3.344 7.5-7.5 7.5a7.48 7.48 0 0 1-7.5-7.5c0-4.156 3.344-7.5 7.5-7.5" style="fill:#4f4f4f;fill-opacity:1;fill-rule:nonzero;stroke:none;stroke-width:1.33333" transform="translate(-34)"/>
<path d="M46 5.89A6.095 6.095 0 0 0 39.89 12c0 1.115.298 2.156.818 3.057h3.625a1.666 1.666 0 1 1 3.334 0h3.625A6.1 6.1 0 0 0 52.109 12 6.095 6.095 0 0 0 46 5.89" style="fill:#ffe485;fill-opacity:1;fill-rule:nonzero;stroke:none;stroke-width:1.33333" transform="translate(-34)"/>
<path d="M5.277 7.832S6.422 6.402 9 6.402s3.723 1.43 3.723 1.43" clip-path="url(#b)" opacity=".3" style="fill:none;stroke:#000;stroke-width:.6;stroke-linecap:round;stroke-linejoin:miter;stroke-miterlimit:4;stroke-dasharray:none;stroke-opacity:1" transform="scale(1.33333)"/>
<path d="M48.057 8.787c1.995.52 2.907 1.656 2.907 1.656" style="fill:none;stroke:#e93232;stroke-width:.8;stroke-linecap:round;stroke-linejoin:miter;stroke-miterlimit:4;stroke-dasharray:none;stroke-opacity:1" transform="translate(-34)"/>
<path d="M43.713 10.333a.783.783 0 0 0-.667 1.167l1.542 2.667a1.67 1.67 0 0 1 1.35-.776l-1.542-2.667a.78.78 0 0 0-.683-.39z" style="fill:#3f3f3f;fill-opacity:1;fill-rule:nonzero;stroke:none;stroke-width:1.33333" transform="translate(-34)"/>
</svg>
