<svg xmlns="http://www.w3.org/2000/svg" xmlns:xlink="http://www.w3.org/1999/xlink" xml:space="preserve" width="24" height="24" fill="none">
<defs>
<radialGradient id="a" cx="0" cy="0" r="1" gradientTransform="matrix(0 22 -22 0 12 1)" gradientUnits="userSpaceOnUse">
<stop offset="0" stop-color="#8FC8FF" style="stop-color:#f2f2f2;stop-opacity:1"/>
<stop offset="1" stop-color="#0056A8" style="stop-color:#ccc;stop-opacity:1"/>
</radialGradient>
<radialGradient xlink:href="#a" id="c" cx=".179" cy="-1.748" r="1" fx=".179" fy="-1.748" gradientTransform="matrix(0 22.01454 -22.00166 0 -26.468 -2.958)" gradientUnits="userSpaceOnUse"/>
<linearGradient id="b">
<stop offset="0" style="stop-color:#39c682;stop-opacity:1"/>
<stop offset="1" style="stop-color:#9cf8c3;stop-opacity:1"/>
</linearGradient>
<linearGradient xlink:href="#b" id="d" x1="11.667" x2="11.932" y1="23.379" y2="-3.226" gradientUnits="userSpaceOnUse"/>
</defs>
<path d="M12 1C2 1 1 6 1 12c0 8 3 11 11 11s11-3 11-11c0-6-1-11-11-11" style="font-variation-settings:normal;display:inline;opacity:1;vector-effect:none;fill:url(#c);fill-opacity:1;stroke-width:1.11627;stroke-linecap:butt;stroke-linejoin:miter;stroke-miterlimit:4;stroke-dasharray:none;stroke-dashoffset:0;stroke-opacity:1;-inkscape-stroke:none;stop-color:#000;stop-opacity:1"/>
<path d="M12 1C2 1 1 6 1 12c0 8 3 11 11 11s11-3 11-11c0-6-1-11-11-11" style="font-variation-settings:normal;display:inline;vector-effect:none;fill:url(#d);fill-opacity:1;stroke-width:1.11627;stroke-linecap:butt;stroke-linejoin:miter;stroke-miterlimit:4;stroke-dasharray:none;stroke-dashoffset:0;stroke-opacity:1;-inkscape-stroke:none;stop-color:#000"/>
<path d="M29.241 49.097q.488 0 .74-.214t.251-.633q0-.412-.252-.627-.251-.22-.739-.22H28.1v1.694zm.07 3.499q.621 0 .932-.263.316-.262.316-.793 0-.52-.31-.777-.311-.262-.938-.262H28.1v2.095zm1.918-2.877q.664.193 1.029.712.364.52.364 1.276 0 1.157-.782 1.725T29.46 54h-3.423v-8h3.097q1.666 0 2.411.504.75.503.75 1.613 0 .584-.273.996-.273.407-.793.606M34.401 46h5.567v1.56h-3.504v1.489h3.295v1.56h-3.295v1.832h3.622V54h-5.685zm6.543 0h7.373v1.56h-2.652V54h-2.063v-6.44h-2.658zm12.442 6.543H50.16l-.509 1.458h-2.073l2.963-8H53l2.962 8H53.89Zm-2.711-1.484h2.191l-1.093-3.183z" aria-label="BETA" opacity=".85" style="fill:none" transform="translate(3.037 3.037)scale(.2801)"/>
<g fill="#fff" fill-rule="evenodd" stroke-width=".265" clip-rule="evenodd">
<path d="M15.904 8.095a1.22 1.22 0 0 1 0 1.723l-6.087 6.087a1.218 1.218 0 1 1-1.721-1.72l6.087-6.09a1.22 1.22 0 0 1 1.721 0" opacity=".4"/>
<path d="M7.13 8.853v6.296l.966-.966a1.218 1.218 0 1 1 1.72 1.722L7.814 17.91c-1.15 1.15-3.118.336-3.118-1.292V7.383c0-1.625 1.967-2.441 3.118-1.291l9.057 9.057V8.853l-.966.966a1.218 1.218 0 0 1-1.72-1.724l2.004-2.005c1.15-1.15 3.117-.335 3.117 1.292v9.235c0 1.626-1.967 2.442-3.117 1.291z"/>
</g>
</svg>
