<svg xmlns="http://www.w3.org/2000/svg" xmlns:xlink="http://www.w3.org/1999/xlink" xml:space="preserve" width="24" height="24" viewBox="0 0 6.35 6.35">
<defs>
<linearGradient id="b">
<stop offset="0" style="stop-color:#50c164;stop-opacity:1"/>
<stop offset="1" style="stop-color:#50c164;stop-opacity:0"/>
</linearGradient>
<linearGradient id="a" x1="388.57" x2="428.57" y1="528.79" y2="528.79" gradientTransform="translate(-43.576 -73.04)scale(.1455)" gradientUnits="userSpaceOnUse">
<stop offset="0" stop-color="#9c6d42" style="stop-color:#6d502f;stop-opacity:1"/>
<stop offset="1" stop-color="#9c6d42" stop-opacity="0"/>
</linearGradient>
<linearGradient xlink:href="#a" id="f" x1="388.57" x2="428.57" y1="528.79" y2="528.79" gradientTransform="translate(-56.276 -73.04)scale(.1455)" gradientUnits="userSpaceOnUse"/>
<linearGradient id="d" x1="388.57" x2="428.57" y1="528.79" y2="528.79" gradientUnits="userSpaceOnUse" spreadMethod="pad">
<stop offset="0" style="stop-opacity:1;stop-color:#fff"/>
<stop offset="1" style="stop-opacity:0;stop-color:#fff"/>
</linearGradient>
<linearGradient id="j" x1="388.57" x2="428.57" y1="528.79" y2="528.79" gradientUnits="userSpaceOnUse" spreadMethod="pad">
<stop offset="0" style="stop-opacity:1;stop-color:#9c6d42"/>
<stop offset="1" style="stop-opacity:1;stop-color:#9c6d42"/>
</linearGradient>
<linearGradient xlink:href="#b" id="g" x1=".265" x2="6.05" y1="1.721" y2="1.721" gradientUnits="userSpaceOnUse"/>
<clipPath id="e">
<rect width="13.758" height="13.758" x="1.587" y="1.587" fill="#71c947" ry=".794"/>
</clipPath>
<clipPath id="h" clipPathUnits="userSpaceOnUse">
<path d="m6.941 4.871-4.125.004L2.812 9H.754q-.034 1.712.336 3.375c.578 2.477 2.113 3.992 4.594 4.543a16 16 0 0 0 4.089.309 11.7 11.7 0 0 0 3.575-.618q2.145-.784 3.101-2.859a9 9 0 0 0 .672-2.488q.129-1.155.129-2.309a24 24 0 0 0-.043-1.387 11 11 0 0 0-.059-.628h-1.96V4.875h-2.063V9h-2.063V6.934l-4.124.004Z"/>
</clipPath>
<clipPath id="c" clipPathUnits="userSpaceOnUse">
<path d="M386.75 511.662h43.639v33.942h-43.64z"/>
</clipPath>
<mask id="i" width="1" height="1" x="0" y="0" maskUnits="userSpaceOnUse">
<g clip-path="url(#c)">
<path d="M386.75 511.662h43.639v33.942h-43.64z" style="fill:url(#d);stroke:none"/>
</g>
</mask>
</defs>
<path d="M3.128.265a8 8 0 0 0-.498.018.3.3 0 0 1-.091.012q-.295.023-.582.094Q.724.681.402 1.906a5 5 0 0 0-.137 1.08v.337q.005.528.119 1.043.307 1.31 1.622 1.603a5.7 5.7 0 0 0 1.442.109q.648-.011 1.26-.219a1.87 1.87 0 0 0 1.095-1.008q.182-.421.236-.879a7.4 7.4 0 0 0 .03-1.302 3.8 3.8 0 0 0-.2-1.012A1.89 1.89 0 0 0 4.77.51a3.6 3.6 0 0 0-1-.224 8 8 0 0 0-.522-.02Z" style="stroke-width:.423048"/>
<path d="M.266 3.175v.148q.003.528.118 1.043.307 1.31 1.622 1.603.58.12 1.169.116v-2.91z" style="stroke-width:.423048"/>
<path d="M.882 5.358q.053.057.11.11v-.11Z" style="fill:#8f6335;fill-opacity:1;stroke-width:.423048"/>
<path d="M.992 5.358v.11q.3.274.728.42v-.53Z" style="fill:#a2703c;fill-opacity:1;stroke-width:.423048"/>
<path d="M1.72 5.358v.53q.136.047.286.08.22.045.441.074v-.684Z" style="fill:#875d32;fill-opacity:1;stroke-width:.423048"/>
<path d="M2.447 5.358v.684q.362.045.728.043v-.727Z" style="fill:#b77939;fill-opacity:1;stroke-width:.423048"/>
<path d="M3.175 5.358v.727q.136 0 .273-.007.229-.004.455-.033v-.687Z" style="fill:#956837;fill-opacity:1;stroke-width:.423048"/>
<path d="M3.903 5.358v.687a4 4 0 0 0 .727-.16v-.527Z" style="fill:#a2703c;fill-opacity:1;stroke-width:.423048"/>
<path d="M4.63 5.358v.527l.079-.026q.375-.138.649-.388v-.113Z" style="fill:#956837;fill-opacity:1;stroke-width:.423048"/>
<path d="M5.358 5.358v.113a2 2 0 0 0 .113-.113ZM.46 4.63q.147.428.422.728h.11V4.63Z" style="fill:#a2703c;fill-opacity:1;stroke-width:.423048"/>
<rect width=".728" height=".728" x=".992" y="4.63" fill="#946f2d" ry="0" style="stroke-width:.423048"/>
<rect width=".728" height=".728" x="1.72" y="4.63" fill="#8f6335" ry="0" style="stroke-width:.423048"/>
<rect width=".728" height=".728" x="2.448" y="4.63" fill="#aa7034" ry="0" style="stroke-width:.423048"/>
<rect width=".728" height=".728" x="3.175" y="4.63" fill="#956837" ry="0" style="stroke-width:.423048"/>
<rect width=".728" height=".728" x="3.902" y="4.63" fill="#8f6335" ry="0" style="stroke-width:.423048"/>
<rect width=".728" height=".728" x="4.63" y="4.63" fill="#8f6335" ry="0" style="stroke-width:.423048"/>
<path d="M5.358 4.63v.728h.113a2 2 0 0 0 .417-.728z" style="fill:#ac7740;fill-opacity:1;stroke-width:.423048"/>
<path d="M.304 3.903q.03.233.08.463.032.138.076.264h.532v-.727Z" style="fill:#a36b30;fill-opacity:1;stroke-width:.423048"/>
<rect width=".728" height=".728" x=".992" y="3.902" fill="#a2703c" ry="0" style="stroke-width:.423048"/>
<rect width=".728" height=".728" x="1.72" y="3.902" fill="#7c502e" ry="0" style="stroke-width:.423048"/>
<rect width=".728" height=".728" x="2.448" y="3.902" fill="#a2703c" ry="0" style="stroke-width:.423048"/>
<rect width=".728" height=".728" x="3.175" y="3.902" fill="#bc844a" ry="0" style="stroke-width:.423048"/>
<rect width=".728" height=".728" x="3.902" y="3.902" fill="#a2703c" ry="0" style="stroke-width:.423048"/>
<rect width=".728" height=".728" x="4.63" y="3.902" fill="#866b3b" ry="0" style="stroke-width:.423048"/>
<path d="M5.358 3.903v.727h.53q.11-.32.151-.658l.008-.07zM.266 3.175q-.007.366.038.728h.688v-.728Z" style="fill:#a2703c;fill-opacity:1;stroke-width:.423048"/>
<rect width=".728" height=".728" x=".992" y="3.175" fill="#956837" ry="0" style="stroke-width:.423048"/>
<rect width=".728" height=".728" x="1.72" y="3.175" fill="#a36b30" ry="0" style="stroke-width:.423048"/>
<rect width=".728" height=".728" x="2.448" y="3.175" fill="#ab7033" ry="0" style="stroke-width:.423048"/>
<rect width=".728" height=".728" x="3.175" y="3.175" fill="#8f6335" ry="0" style="stroke-width:.423048"/>
<rect width=".728" height=".728" x="3.902" y="3.175" fill="#845531" ry="0" style="stroke-width:.423048"/>
<rect width=".728" height=".728" x="4.63" y="3.175" fill="#a2703c" ry="0" style="stroke-width:.423048"/>
<path d="M5.358 3.175v.728h.689q.036-.364.038-.728Z" style="fill:#ac7740;fill-opacity:1;stroke-width:.423048"/>
<path d="M3.175.265a8 8 0 0 0-.545.018.3.3 0 0 1-.091.012q-.295.023-.582.094Q.724.681.402 1.906a5 5 0 0 0-.137 1.08v.189h2.91Z" style="stroke-width:.423048"/>
<path d="M.303 2.447a5 5 0 0 0-.037.725v.003h.726v-.728Z" style="fill:#3fa13d;fill-opacity:1;stroke-width:.423048"/>
<rect width=".728" height=".728" x=".992" y="2.448" fill="#674726" ry="0" style="stroke-width:.423048"/>
<rect width=".728" height=".728" x="1.72" y="2.448" fill="#a36b30" ry="0" style="stroke-width:.423048"/>
<rect width=".728" height=".728" x="2.448" y="2.448" fill="#977047" ry="0" style="stroke-width:.423048"/>
<rect width=".728" height=".728" x="3.175" y="2.448" fill="#a36b30" ry="0" style="stroke-width:.423048"/>
<rect width=".728" height=".728" x="3.902" y="2.448" fill="#3b843a" ry="0" style="stroke-width:.423048"/>
<rect width=".728" height=".728" x="4.63" y="2.448" fill="#b17a41" ry="0" style="stroke-width:.423048"/>
<path d="M5.358 2.447v.728h.727v-.016a7 7 0 0 0-.035-.712z" style="fill:#a2703c;fill-opacity:1;stroke-width:.423048"/>
<path d="M.459 1.72q-.03.09-.057.186-.064.27-.1.541h.69V1.72Z" style="fill:#4eb84b;fill-opacity:1;stroke-width:.423048"/>
<rect width=".728" height=".728" x=".992" y="1.72" fill="#956837" ry="0" style="stroke-width:.423048"/>
<rect width=".728" height=".728" x="1.72" y="1.72" fill="#7c502e" ry="0" style="stroke-width:.423048"/>
<rect width=".728" height=".728" x="2.448" y="1.72" fill="#50a85f" ry="0" style="stroke-width:.423048"/>
<rect width=".728" height=".728" x="3.175" y="1.72" fill="#43c340" ry="0" style="stroke-width:.423048"/>
<rect width=".728" height=".728" x="3.902" y="1.72" fill="#3b843a" ry="0" style="stroke-width:.423048"/>
<rect width=".728" height=".728" x="4.63" y="1.72" fill="#9b783a" ry="0" style="stroke-width:.423048"/>
<path d="M5.358 1.72v.727h.692a4 4 0 0 0-.16-.727Z" style="fill:#377c36;fill-opacity:1;stroke-width:.423048"/>
<path d="M.877.992q-.271.3-.418.728h.533V.992Z" style="fill:#499648;fill-opacity:1;stroke-width:.423048"/>
<rect width=".728" height=".728" x=".992" y=".992" fill="#45a943" ry="0" style="stroke-width:.423048"/>
<rect width=".728" height=".728" x="1.72" y=".992" fill="#3b843a" ry="0" style="stroke-width:.423048"/>
<rect width=".728" height=".728" x="2.448" y=".992" fill="#4eb84b" ry="0" style="stroke-width:.423048"/>
<rect width=".728" height=".728" x="3.175" y=".992" fill="#499648" ry="0" style="stroke-width:.423048"/>
<rect width=".728" height=".728" x="3.902" y=".992" fill="#45a943" ry="0" style="stroke-width:.423048"/>
<rect width=".728" height=".728" x="4.63" y=".992" fill="#3ca33b" ry="0" style="stroke-width:.423048"/>
<path d="M5.358.992v.728h.532a2 2 0 0 0-.416-.728Z" style="fill:#499648;fill-opacity:1;stroke-width:.423048"/>
<path d="M5.358.876v.117h.117a2 2 0 0 0-.117-.117" style="fill:#76bd74;fill-opacity:1;stroke-width:.423048"/>
<path d="M.993.876Q.933.932.877.992h.116z" style="fill:#3eb13b;fill-opacity:1;stroke-width:.423048"/>
<path d="M1.72.456a2 2 0 0 0-.728.42v.116h.728Z" style="fill:#499648;fill-opacity:1;stroke-width:.423048"/>
<path d="M2.447.303a3.7 3.7 0 0 0-.727.153v.536h.727z" style="fill:#548b53;fill-opacity:1;stroke-width:.423048"/>
<path d="M3.175.265a8 8 0 0 0-.545.018.3.3 0 0 1-.091.012l-.092.008v.69h.728zm0 0v.727h.728V.298A8 8 0 0 0 3.2.264Z" style="fill:#3b843a;fill-opacity:1;stroke-width:.423048"/>
<path d="M3.903.298v.694h.727V.46a3.6 3.6 0 0 0-.727-.162" style="fill:#499648;fill-opacity:1;stroke-width:.423048"/>
<path d="M4.63.46v.532h.728V.876A2 2 0 0 0 4.63.46" style="fill:#46b044;fill-opacity:1;stroke-width:.423048"/>
<path fill="none" d="M1.587 1.587h13.758v13.758H1.587Z" clip-path="url(#e)" transform="translate(-.407 -.407)scale(.42305)"/>
<path fill="none" d="M.265.265h5.82v5.82H.265Z" style="stroke-width:.423048"/>
<path d="m2.448 1.718-1.455.001v1.456H.265a5 5 0 0 0 .118 1.191q.307 1.31 1.622 1.603a5.7 5.7 0 0 0 1.442.109q.648-.011 1.26-.219a1.87 1.87 0 0 0 1.095-1.008q.182-.421.236-.879a7.4 7.4 0 0 0 .01-1.525h-.692V1.72H4.63v1.455h-.728v-.73l-1.455.002z" style="fill:url(#f);stroke-width:.11193"/>
<path d="M3.057.266a8 8 0 0 0-.427.017.3.3 0 0 1-.091.012q-.295.023-.582.094Q.724.681.402 1.906a5 5 0 0 0-.137 1.08v.189h.727V1.72l.727.004.728-.005v.728H3.9v.728h.73V1.72l.727-.002-.001.728h.693a3.8 3.8 0 0 0-.18-.79A1.89 1.89 0 0 0 4.77.51a3.6 3.6 0 0 0-1-.224 8 8 0 0 0-.476-.02Z" style="fill:url(#g);fill-opacity:1;stroke-width:.423048"/>
<g clip-path="url(#h)" transform="translate(16.35)scale(.35277)">
<g mask="url(#i)" transform="translate(-159.524 -207.048)scale(.41247)">
<path d="m6.941 4.871-4.125.004L2.812 9H.754q-.034 1.712.336 3.375c.578 2.477 2.113 3.992 4.594 4.543a16 16 0 0 0 4.089.309 11.7 11.7 0 0 0 3.575-.618q2.145-.784 3.101-2.859a9 9 0 0 0 .672-2.488q.129-1.155.129-2.309a24 24 0 0 0-.043-1.387 11 11 0 0 0-.059-.628h-1.96V4.875h-2.063V9h-2.063V6.934l-4.124.004Z" style="fill:url(#j);stroke:none"/>
</g>
</g>
</svg>
