<svg xmlns="http://www.w3.org/2000/svg" xml:space="preserve" width="24" height="24">
<defs>
<radialGradient id="a" cx="0" cy="0" r="1" fx="0" fy="0" gradientTransform="matrix(0 22 -22 0 46 1)" gradientUnits="userSpaceOnUse" spreadMethod="pad">
<stop offset="0" style="stop-opacity:1;stop-color:#fafafa"/>
<stop offset="1" style="stop-opacity:1;stop-color:silver"/>
</radialGradient>
<clipPath id="b" clipPathUnits="userSpaceOnUse">
<path d="M0 0h19v19H0Z"/>
</clipPath>
</defs>
<path d="M43.593 1.115q.18 0 .344-.047a32 32 0 0 1 4.308.01 13.7 13.7 0 0 1 3.782.849q3.036 1.251 4.161 4.338a14.6 14.6 0 0 1 .755 3.823 28.3 28.3 0 0 1-.115 4.928 12 12 0 0 1-.896 3.317q-1.276 2.766-4.135 3.812-2.312.784-4.766.824a21.3 21.3 0 0 1-5.452-.412c-3.308-.734-5.355-2.754-6.126-6.057a19 19 0 0 1-.448-4.51 18.5 18.5 0 0 1 .516-4.787q1.218-4.625 5.875-5.734a14 14 0 0 1 2.197-.354" style="fill:url(#a);fill-rule:evenodd;stroke:none;stroke-width:1.33333" transform="translate(-34)"/>
<path d="M53.87 12c0 4.27-3.463 7.73-7.74 7.73-4.275 0-7.74-3.46-7.74-7.73s3.465-7.73 7.74-7.73c4.277 0 7.74 3.46 7.74 7.73" style="fill:#333;fill-opacity:1;fill-rule:nonzero;stroke:none;stroke-width:1.33333" transform="translate(-34)"/>
<path d="M49.355 12a3.22 3.22 0 0 1-3.224 3.219 3.218 3.218 0 1 1 0-6.438A3.22 3.22 0 0 1 49.355 12" style="fill:#4d4d4d;fill-opacity:1;fill-rule:nonzero;stroke:none;stroke-width:1.33333" transform="translate(-34)"/>
<path d="M48.495 12a2.365 2.365 0 0 1-4.73 0 2.365 2.365 0 0 1 4.73 0" style="fill:#1abc9c;fill-opacity:1;fill-rule:nonzero;stroke:none;stroke-width:1.33333" transform="translate(-34)"/>
<path d="M46.344 12a.21.21 0 0 1-.213.213.21.21 0 0 1-.214-.213.21.21 0 0 1 .214-.213.21.21 0 0 1 .213.213" style="fill:#333;fill-opacity:1;fill-rule:nonzero;stroke:none;stroke-width:1.33333" transform="translate(-34)"/>
<path d="M53.844 12c0 4.256-3.453 7.703-7.713 7.703-4.262 0-7.714-3.447-7.714-7.703s3.452-7.703 7.714-7.703c4.26 0 7.713 3.447 7.713 7.703z" style="fill:none;stroke:#4d4d4d;stroke-width:.3;stroke-linecap:butt;stroke-linejoin:miter;stroke-miterlimit:4;stroke-dasharray:none;stroke-opacity:1" transform="translate(-34)"/>
<path d="M52.339 12a6.206 6.206 0 0 1-6.208 6.204A6.207 6.207 0 0 1 39.92 12a6.207 6.207 0 0 1 6.21-6.204A6.206 6.206 0 0 1 52.339 12z" style="fill:none;stroke:#4d4d4d;stroke-width:.3;stroke-linecap:butt;stroke-linejoin:miter;stroke-miterlimit:4;stroke-dasharray:none;stroke-opacity:1" transform="translate(-34)"/>
<path d="M50.833 12a4.7 4.7 0 0 1-4.702 4.698A4.7 4.7 0 0 1 41.427 12a4.7 4.7 0 0 1 4.704-4.698A4.7 4.7 0 0 1 50.833 12z" style="fill:none;stroke:#4d4d4d;stroke-width:.3;stroke-linecap:butt;stroke-linejoin:miter;stroke-miterlimit:4;stroke-dasharray:none;stroke-opacity:1" transform="translate(-34)"/>
<path d="M53.765 12c0 4.208-3.416 7.624-7.634 7.624-4.214 0-7.636-3.416-7.636-7.624s3.422-7.625 7.636-7.625c4.218 0 7.634 3.417 7.634 7.625z" style="fill:none;stroke:#4d4d4d;stroke-width:.3;stroke-linecap:butt;stroke-linejoin:miter;stroke-miterlimit:4;stroke-dasharray:none;stroke-opacity:1" transform="translate(-34)"/>
<path d="M4.785 4.215a.89.89 0 0 1-.89.89.89.89 0 0 1-.895-.89.894.894 0 1 1 1.785 0" clip-path="url(#b)" opacity=".98" style="fill:#4aaee8;fill-opacity:1;fill-rule:nonzero;stroke:none" transform="scale(1.33333)"/>
<path d="m39.245 5.776 1.25 6.896s.218 1.35 1.114 1.838c.896.485 2.246 1.063 2.246 1.063" style="fill:none;stroke:#4aaee8;stroke-width:.3;stroke-linecap:round;stroke-linejoin:miter;stroke-miterlimit:4;stroke-dasharray:none;stroke-opacity:1" transform="translate(-34)"/>
<path d="m41.656 15.172.5-1.036 1.516.724-.5 1.036zm-3.244-9.975.38 1.934.672 1.328.525-.095.136-1.515-.38-1.937c-.458-.12-1.109.077-1.333.285" style="fill:#2c99d8;fill-opacity:.996;fill-rule:nonzero;stroke:none;stroke-width:1.33333" transform="translate(-34)"/>
</svg>
