<svg xmlns="http://www.w3.org/2000/svg" xml:space="preserve" width="24" height="24" image-rendering="optimizeSpeed">
<defs>
<radialGradient id="a" cx="0" cy="0" r="1" fx="0" fy="0" gradientTransform="matrix(0 22 -22 0 12 1)" gradientUnits="userSpaceOnUse" spreadMethod="pad">
<stop offset="0" style="stop-opacity:1;stop-color:#fafafa"/>
<stop offset="1" style="stop-color:#ececec;stop-opacity:1"/>
</radialGradient>
</defs>
<path d="M9.593 1.115q.18 0 .344-.047a32 32 0 0 1 4.308.01 13.7 13.7 0 0 1 3.781.849c2.026.833 3.41 2.281 4.162 4.338.42 1.24.676 2.516.754 3.823a28.3 28.3 0 0 1-.114 4.928 12 12 0 0 1-.896 3.317q-1.276 2.766-4.135 3.812a15.6 15.6 0 0 1-4.767.824 21.3 21.3 0 0 1-5.452-.412c-3.308-.734-5.354-2.754-6.125-6.057a19 19 0 0 1-.448-4.51 18.5 18.5 0 0 1 .516-4.787q1.218-4.625 5.875-5.734a14 14 0 0 1 2.197-.354" style="fill:url(#a);fill-rule:evenodd;stroke:none;stroke-width:1.33333"/>
<path fill="none" stroke="#474747" stroke-width=".374" d="M16.645 9.754a5.857 4.346 59 1 1-7.45 4.477 5.857 4.346 59 1 1 7.45-4.477z"/>
<g stroke-width=".767">
<path fill="#462aae" d="M12.911 8.791a3.51 3.51 0 0 0-3.508 3.508 3.508 3.508 0 1 0 3.508-3.508m-.627 1.854a2.39 2.39 0 0 1 2.396 2.382 2.403 2.403 0 0 1-2.396 2.396 2.39 2.39 0 0 1-2.382-2.396 2.38 2.38 0 0 1 2.382-2.382"/>
<path fill="#474747" d="M5.769 12.33s-1.37 1.309-1.263 2.125c.148 1.127 1.562 1.307 2.678 1.293 2.708-.03 12.348-3.194 12.316-6.989-.01-1.226-2.217-1.335-2.217-1.262 0 0 1.637.41 1.601 1.2-.133 2.946-8.185 6.253-11.761 6.343-.75.02-1.795-.143-2.094-.831-.267-.618.739-1.878.739-1.878z"/>
<path fill="#c4303d" d="M16.607 8.804a1.709 1.709 0 1 1-3.418 0 1.709 1.709 0 1 1 3.418 0"/>
<path fill="#606060" d="M11.943 14.485a1.093 1.093 0 1 1-2.186 0 1.093 1.093 0 1 1 2.186 0"/>
</g>
</svg>
