<svg xmlns="http://www.w3.org/2000/svg" xmlns:xlink="http://www.w3.org/1999/xlink" width="24" height="24">
<defs>
<linearGradient id="a">
<stop offset="0" style="stop-color:#ccc;stop-opacity:1"/>
<stop offset="1" style="stop-color:#f2f2f2;stop-opacity:1"/>
</linearGradient>
<linearGradient xlink:href="#a" id="b" x1="236.059" x2="222.894" y1="-.636" y2="515.021" gradientTransform="matrix(-.04929 0 0 -.04929 23 23)" gradientUnits="userSpaceOnUse"/>
</defs>
<path d="M14.404 22.886a1.2 1.2 0 0 0-.344.046q-2.154.14-4.307-.011a13.5 13.5 0 0 1-3.78-.847q-3.039-1.25-4.158-4.34a14.3 14.3 0 0 1-.756-3.824 28 28 0 0 1 .114-4.923q.206-1.727.894-3.32 1.276-2.764 4.135-3.813a15.6 15.6 0 0 1 4.766-.825 21.4 21.4 0 0 1 5.452.412q4.968 1.107 6.128 6.057a19 19 0 0 1 .447 4.511 18.5 18.5 0 0 1-.515 4.786q-1.217 4.629-5.877 5.736-1.085.267-2.199.355" style="fill:url(#b);fill-opacity:1;fill-rule:evenodd;stroke:none;stroke-width:1.08382"/>
<g style="stroke-width:3.19993">
<path fill="#abacac" d="M72.126 44.02c-.138.452-.112.934-.182 1.4-.114 1.114-.2 2.236-.488 3.325-.104.462-.267.91-.397 1.365.313.604.416 1.274.485 1.938.143.775.18 1.566.24 2.348.05.391-.156.887.19 1.182q.595.195 1.178.421c-.051-.755-.127-1.51-.106-2.268-.03-.717.087-1.428.143-2.141.036-.345.037-.698.175-1.023.105-.308.32-.571.47-.86a5 5 0 0 1-.645-.523c-.173-.396-.394-.776-.535-1.183-.341-1.297-.546-2.642-.528-3.982z" style="stroke-width:3.19993" transform="translate(-10.5 2)scale(.3125)"/>
<path fill="#0d6436" d="M72.037 9.507a5.8 5.8 0 0 1-.81 1.001c-.643.642-1.353 1.185-1.81 1.717l-.014.016-.015.015c-1.687 1.688-3.316 3.426-4.327 5.47l-.009.02-.011.019c-.732 1.226-1.381 2.462-1.791 3.778l-.007.026-.01.026c-1.318 3.1-1.846 6.512-1.873 9.89v.006c.035 6.807 3.836 13.26 9.264 17.543l.068.054.048.07.013.018c.053-.184.09-.306.157-.555.244-1.073.376-2.18.49-3.306l.053-.503h1.135l.055.5c.141 1.311.424 2.594 1.087 3.628.063.076.083.094.103.092.024-.003.168-.06.343-.206.333-.277.692-.774 1.208-1.103 3.356-2.982 5.673-6.99 6.678-11.278v-.002c1.015-4.297.68-8.896-.905-13.036l-.005-.009-.004-.011c-1.462-4.319-4.11-8.229-7.516-11.378L73.62 12c-.774-.755-1.149-1.645-1.584-2.492Z" style="stroke-width:3.19993" transform="translate(-10.5 2)scale(.3125)"/>
<path fill="#10aa50" d="M72 8c-.135 1.69-1.975 2.66-3.008 3.861-1.695 1.696-3.371 3.475-4.432 5.618-.742 1.243-1.414 2.518-1.844 3.898-1.354 3.189-1.888 6.676-1.916 10.11.034 7.015 3.932 13.612 9.476 17.986.852 1.253.98.031 1.182-.727.28-1.232.418-2.485.542-3.74z" style="stroke-width:3.19993" transform="translate(-10.5 2)scale(.3125)"/>
<path fill="#12935a" d="M72 8.408c.071 2.138.008 4.28 0 6.425.058 7.126.051 14.253 0 21.38-.01 2.76.139 5.518 0 8.274.115 1.621.358 3.37 1.266 4.775.81 1.043 1.746-.69 2.482-1.114 3.452-3.063 5.826-7.172 6.858-11.575 1.042-4.41.7-9.12-.926-13.365-1.495-4.416-4.197-8.403-7.667-11.61-.921-.9-1.4-2.096-2.013-3.19" style="stroke-width:3.19993" transform="translate(-10.5 2)scale(.3125)"/>
</g>
</svg>
