<svg xmlns="http://www.w3.org/2000/svg" width="24" height="24">
<defs>
<radialGradient id="a" cx="0" cy="0" r="1" fx="0" fy="0" gradientTransform="matrix(0 19.40524 -26.58722 0 12 1)" gradientUnits="userSpaceOnUse">
<stop offset="0" stop-color="#68BBFF" stop-opacity=".875" style="stop-color:#66bcff;stop-opacity:1"/>
<stop offset="1" stop-color="#A99EFF" style="stop-color:#b29aff;stop-opacity:1"/>
</radialGradient>
</defs>
<path fill="url(#a)" fill-rule="evenodd" d="M9.596 1.114q.18.001.344-.046a32 32 0 0 1 4.307.011 13.5 13.5 0 0 1 3.78.848q3.039 1.25 4.158 4.339.64 1.86.756 3.824a28 28 0 0 1-.114 4.923 11.9 11.9 0 0 1-.894 3.32q-1.276 2.764-4.135 3.813a15.6 15.6 0 0 1-4.765.825 21.4 21.4 0 0 1-5.453-.413q-4.967-1.106-6.128-6.056a19 19 0 0 1-.447-4.511 18.5 18.5 0 0 1 .515-4.786q1.217-4.629 5.877-5.736a14 14 0 0 1 2.199-.355" clip-rule="evenodd" style="fill:url(#a)"/>
<path fill-rule="evenodd" d="M11.992 1q-1.026 0-2.052.068-.165.048-.344.046-1.114.09-2.2.355Q5.032 2.03 3.555 3.5H20.45q-1.002-.988-2.424-1.573a13.5 13.5 0 0 0-3.78-.848A32 32 0 0 0 11.992 1" clip-rule="evenodd" opacity=".35"/>
<rect width="1.488" height=".744" x="5.987" y="2.059" opacity=".35" ry=".373" style="fill:#000;stroke-width:1.40646;paint-order:stroke markers fill"/>
<rect width="3.721" height=".744" x="10.139" y="2.059" opacity=".35" ry=".373" style="fill:#000;stroke-width:1.40646;paint-order:stroke markers fill"/>
<rect width=".744" height=".744" x="17.257" y="2.059" opacity=".35" ry=".373" style="fill:#000;stroke-width:1.40646;paint-order:stroke markers fill"/>
<rect width="1.117" height=".744" x="15.769" y="2.059" opacity=".35" ry=".373" style="fill:#000;stroke-width:1.40646;paint-order:stroke markers fill"/>
<rect width=".744" height=".744" x="14.652" y="2.059" opacity=".35" ry=".373" style="fill:#000;stroke-width:1.40646;paint-order:stroke markers fill"/>
<g fill="#ccdfff" style="stroke-width:3.78" transform="translate(.226 1.295)scale(.36814)">
<rect width="5" height="5" x="17.001" y="48.001" ry=".499" style="paint-order:stroke markers fill"/>
<rect width="5" height="5" x="25.335" y="48.001" ry=".499" style="paint-order:stroke markers fill"/>
<rect width="5" height="5" x="33.669" y="48.001" ry=".499" style="paint-order:stroke markers fill"/>
<rect width="5" height="5" x="42.003" y="48.001" ry=".499" style="paint-order:stroke markers fill"/>
</g>
<path d="M5.748 20.084a.735.735 0 0 0-.736.736v.764c.75.433 1.603.76 2.568.975q2.7.555 5.453.412a15.6 15.6 0 0 0 4.764-.825 8 8 0 0 0 1.205-.558v-.768a.735.735 0 0 0-.736-.736z" style="opacity:.35;fill:#fff"/>
<path d="M18.453 11.39a8.5 8.5 0 0 0-8.5 8.5 8.5 8.5 0 0 0 .574 3.065 21 21 0 0 0 2.502.014 15.6 15.6 0 0 0 4.768-.824q2.859-1.046 4.135-3.811.686-1.594.896-3.318.128-1.157.158-2.315a8.5 8.5 0 0 0-4.533-1.31Z" style="fill:#f9f9f9;fill-opacity:1;stroke-width:2.00803;paint-order:markers stroke fill"/>
<path d="M21.871 15.148c-.267.02-.444.347-.201.618a5.7 5.7 0 0 1 .82.976q.124-.452.211-.914a6 6 0 0 0-.545-.582.4.4 0 0 0-.285-.098m-1.7 1.006c-.28.009-.457.38-.183.65a4.27 4.27 0 0 1 1.319 2.643q.296-.44.539-.94a5 5 0 0 0-1.371-2.222.43.43 0 0 0-.303-.13zm-3.09.21-2.134 2.132h-1.422a.71.71 0 0 0-.71.713v1.422c0 .394.316.71.71.71h1.422l1.25 1.25a16 16 0 0 0 .883-.226zm1.433.841c-.268.012-.457.367-.205.639a2.84 2.84 0 0 1 .904 2.076 2.84 2.84 0 0 1-.817 1.976q.71-.323 1.31-.767a3.6 3.6 0 0 0 .218-1.21 3.56 3.56 0 0 0-1.131-2.595.38.38 0 0 0-.28-.119z" style="fill:#666;fill-opacity:1;stroke-width:2.00803;paint-order:markers stroke fill"/>
</svg>
