<svg xmlns="http://www.w3.org/2000/svg" xmlns:xlink="http://www.w3.org/1999/xlink" xml:space="preserve" width="24" height="24" fill="none">
<defs>
<linearGradient id="a">
<stop offset="0" style="stop-color:#f0f0f0;stop-opacity:1"/>
<stop offset="1" style="stop-color:#eee;stop-opacity:1"/>
</linearGradient>
<linearGradient xlink:href="#a" id="e" x1="11.667" x2="11.932" y1="23.379" y2="-3.226" gradientUnits="userSpaceOnUse"/>
<linearGradient id="b">
<stop offset="0"/>
<stop offset="1" stop-opacity="0"/>
</linearGradient>
<linearGradient xlink:href="#b" id="f" x1="41.088" x2="41.088" y1="56.971" y2="26.486" gradientTransform="translate(31.7 289.992)scale(.26458)" gradientUnits="userSpaceOnUse"/>
<radialGradient id="c" cx="0" cy="0" r="1" gradientTransform="matrix(0 22 -22 0 12 1)" gradientUnits="userSpaceOnUse">
<stop offset="0" stop-color="#8FC8FF" style="stop-color:#f2f2f2;stop-opacity:1"/>
<stop offset="1" stop-color="#0056A8" style="stop-color:#ccc;stop-opacity:1"/>
</radialGradient>
<radialGradient xlink:href="#c" id="d" cx=".179" cy="-1.748" r="1" fx=".179" fy="-1.748" gradientTransform="matrix(0 22.01454 -22.00166 0 -26.468 -2.958)" gradientUnits="userSpaceOnUse"/>
</defs>
<path d="M12 1C2 1 1 6 1 12c0 8 3 11 11 11s11-3 11-11c0-6-1-11-11-11" style="font-variation-settings:normal;display:inline;opacity:1;vector-effect:none;fill:url(#d);fill-opacity:1;stroke-width:1.11627;stroke-linecap:butt;stroke-linejoin:miter;stroke-miterlimit:4;stroke-dasharray:none;stroke-dashoffset:0;stroke-opacity:1;-inkscape-stroke:none;stop-color:#000;stop-opacity:1"/>
<path d="M12 1C2 1 1 6 1 12c0 8 3 11 11 11s11-3 11-11c0-6-1-11-11-11" style="font-variation-settings:normal;display:inline;vector-effect:none;fill:url(#e);fill-opacity:1;stroke-width:1.11627;stroke-linecap:butt;stroke-linejoin:miter;stroke-miterlimit:4;stroke-dasharray:none;stroke-dashoffset:0;stroke-opacity:1;-inkscape-stroke:none;stop-color:#000"/>
<path d="M29.241 49.097q.488 0 .74-.214t.251-.633q0-.412-.252-.627-.251-.22-.739-.22H28.1v1.694zm.07 3.499q.621 0 .932-.263.316-.262.316-.793 0-.52-.31-.777-.311-.262-.938-.262H28.1v2.095zm1.918-2.877q.664.193 1.029.712.364.52.364 1.276 0 1.157-.782 1.725T29.46 54h-3.423v-8h3.097q1.666 0 2.411.504.75.503.75 1.613 0 .584-.273.996-.273.407-.793.606M34.401 46h5.567v1.56h-3.504v1.489h3.295v1.56h-3.295v1.832h3.622V54h-5.685zm6.543 0h7.373v1.56h-2.652V54h-2.063v-6.44h-2.658zm12.442 6.543H50.16l-.509 1.458h-2.073l2.963-8H53l2.962 8H53.89Zm-2.711-1.484h2.191l-1.093-3.183z" aria-label="BETA" opacity=".85" style="fill:none" transform="translate(3.037 3.037)scale(.2801)"/>
<g paint-order="markers stroke fill">
<g transform="rotate(4.61 3471.445 -232.496)scale(1.00852)">
<rect width="6.879" height="12.171" x="42.069" y="279.802" fill="#246541" rx=".529" ry=".529"/>
<rect width="5.821" height="11.112" x="42.598" y="280.331" fill="#fff" rx="0" ry="0"/>
<rect width="1.852" height="1.587" x="45.773" y="288.533" fill="#246541" rx="0" ry="0"/>
<rect width="1.852" height="1.587" x="45.773" y="286.24" fill="#246541" rx="0" ry="0"/>
<rect width="1.852" height="1.587" x="45.773" y="283.947" fill="#246541" rx="0" ry="0"/>
<rect width="1.852" height="1.587" x="45.773" y="281.654" fill="#246541" rx="0" ry="0"/>
<rect width="1.852" height="1.587" x="43.392" y="288.533" fill="#246541" rx="0" ry="0"/>
<rect width="1.852" height="1.587" x="43.392" y="286.24" fill="#246541" rx="0" ry="0"/>
<rect width="1.852" height="1.587" x="43.392" y="283.947" fill="#246541" rx="0" ry="0"/>
<rect width="1.852" height="1.587" x="43.392" y="281.654" fill="#246541" rx="0" ry="0"/>
</g>
<g transform="translate(-28.523 -289)scale(1.00852)">
<rect width="8.996" height="13.758" x="-10.166" y="294.021" fill="#357e56" rx="0" ry="0" transform="rotate(-8.462)"/>
<path fill="url(#b)" d="M43.003 297a11.132 17.633 6.416 0 1-.06.665 11.132 17.633 6.416 0 1-1.933 7.4l3.124-.464z" opacity=".25" style="fill:url(#f)"/>
</g>
<g fill="#fff">
<path d="m7.745 9.985 1.32-.2 4.146 4.232-1.319.199Z"/>
<path d="m12.494 9.267-1.319.2-2.713 5.267 1.32-.2Z"/>
</g>
</g>
</svg>
