<svg xmlns="http://www.w3.org/2000/svg" xmlns:xlink="http://www.w3.org/1999/xlink" xml:space="preserve" width="24" height="24" fill="none">
<defs>
<linearGradient id="a">
<stop offset="0" style="stop-color:#f0f0f0;stop-opacity:1"/>
<stop offset="1" style="stop-color:#eee;stop-opacity:1"/>
</linearGradient>
<linearGradient xlink:href="#a" id="f" x1="11.667" x2="11.932" y1="23.379" y2="-3.226" gradientUnits="userSpaceOnUse"/>
<linearGradient id="c">
<stop offset="0"/>
<stop offset="1" stop-opacity="0"/>
</linearGradient>
<linearGradient id="b">
<stop offset="0" style="stop-color:#ececec;stop-opacity:1"/>
<stop offset="1" style="stop-color:#f0f0f0;stop-opacity:1"/>
</linearGradient>
<linearGradient xlink:href="#b" id="g" x1="166.915" x2="170.482" y1="-420.144" y2="300.456" gradientUnits="userSpaceOnUse"/>
<linearGradient xlink:href="#c" id="i" x1="41.088" x2="41.088" y1="56.971" y2="26.486" gradientTransform="translate(-17.024 328.332)scale(.26458)" gradientUnits="userSpaceOnUse"/>
<linearGradient xlink:href="#b" id="h" x1="166.915" x2="170.482" y1="-420.144" y2="300.456" gradientUnits="userSpaceOnUse"/>
<radialGradient id="d" cx="0" cy="0" r="1" gradientTransform="matrix(0 22 -22 0 12 1)" gradientUnits="userSpaceOnUse">
<stop offset="0" stop-color="#8FC8FF" style="stop-color:#f2f2f2;stop-opacity:1"/>
<stop offset="1" stop-color="#0056A8" style="stop-color:#ccc;stop-opacity:1"/>
</radialGradient>
<radialGradient xlink:href="#d" id="e" cx=".179" cy="-1.748" r="1" fx=".179" fy="-1.748" gradientTransform="matrix(0 22.01454 -22.00166 0 -26.468 -2.958)" gradientUnits="userSpaceOnUse"/>
</defs>
<path d="M12 1C2 1 1 6 1 12c0 8 3 11 11 11s11-3 11-11c0-6-1-11-11-11" style="font-variation-settings:normal;display:inline;opacity:1;vector-effect:none;fill:url(#e);fill-opacity:1;stroke-width:1.11627;stroke-linecap:butt;stroke-linejoin:miter;stroke-miterlimit:4;stroke-dasharray:none;stroke-dashoffset:0;stroke-opacity:1;-inkscape-stroke:none;stop-color:#000;stop-opacity:1"/>
<path d="M12 1C2 1 1 6 1 12c0 8 3 11 11 11s11-3 11-11c0-6-1-11-11-11" style="font-variation-settings:normal;display:inline;vector-effect:none;fill:url(#f);fill-opacity:1;stroke-width:1.11627;stroke-linecap:butt;stroke-linejoin:miter;stroke-miterlimit:4;stroke-dasharray:none;stroke-dashoffset:0;stroke-opacity:1;-inkscape-stroke:none;stop-color:#000"/>
<path d="M29.241 49.097q.488 0 .74-.214t.251-.633q0-.412-.252-.627-.251-.22-.739-.22H28.1v1.694zm.07 3.499q.621 0 .932-.263.316-.262.316-.793 0-.52-.31-.777-.311-.262-.938-.262H28.1v2.095zm1.918-2.877q.664.193 1.029.712.364.52.364 1.276 0 1.157-.782 1.725T29.46 54h-3.423v-8h3.097q1.666 0 2.411.504.75.503.75 1.613 0 .584-.273.996-.273.407-.793.606M34.401 46h5.567v1.56h-3.504v1.489h3.295v1.56h-3.295v1.832h3.622V54h-5.685zm6.543 0h7.373v1.56h-2.652V54h-2.063v-6.44h-2.658zm12.442 6.543H50.16l-.509 1.458h-2.073l2.963-8H53l2.962 8H53.89Zm-2.711-1.484h2.191l-1.093-3.183z" aria-label="BETA" opacity=".85" style="fill:none" transform="translate(3.037 3.037)scale(.2801)"/>
<g style="fill:url(#g);fill-opacity:1" transform="translate(1 1)scale(.05793)">
<path d="M148.375 1.961q3.105.033 5.93-.789a546 546 0 0 1 74.343.195q33.704 2.625 65.25 14.625c34.965 14.395 58.887 39.36 71.774 74.899a246.4 246.4 0 0 1 13.051 66.007 482.6 482.6 0 0 1-1.981 84.981q-3.545 29.799-15.422 57.312c-14.683 31.801-38.472 53.739-71.375 65.809-26.664 9.008-54.082 13.754-82.254 14.23-31.691 1.649-63.058-.722-94.117-7.113-57.16-12.73-92.418-47.582-105.781-104.543a329 329 0 0 1-7.711-77.867 319.3 319.3 0 0 1 8.898-82.609Q29.99 27.211 110.414 8.086a241 241 0 0 1 37.961-6.125" style="fill:url(#h);fill-opacity:1;fill-rule:evenodd;stroke:none"/>
</g>
<g paint-order="markers stroke fill">
<g transform="rotate(4.371 3705.936 -1050.804)scale(1.01474)">
<rect width="3.175" height="6.879" x="105.569" y="280.331" fill="#673773" rx=".149" ry=".138"/>
<rect width="6.879" height="12.171" x="100.806" y="279.273" fill="#673773" rx=".529" ry=".529"/>
<rect width="5.821" height="11.112" x="101.335" y="279.802" fill="#fff" rx="0" ry="0"/>
<rect width="4.233" height=".529" x="102.129" y="281.125" fill="#673773" rx="0" ry="0"/>
<rect width="4.233" height=".529" x="102.129" y="289.062" fill="#673773" rx="0" ry="0"/>
<rect width="4.233" height=".529" x="102.129" y="287.475" fill="#673773" rx="0" ry="0"/>
<rect width="4.233" height=".529" x="102.129" y="285.887" fill="#673773" rx="0" ry="0"/>
<rect width="4.233" height=".529" x="102.129" y="284.3" fill="#673773" rx="0" ry="0"/>
<rect width="4.233" height=".529" x="102.129" y="282.712" fill="#673773" rx="0" ry="0"/>
<rect width="1.587" height="1.587" x="106.627" y="280.86" fill="#fff" rx="0" ry="0"/>
<rect width=".529" height="1.588" x="107.685" y="282.977" fill="#fff" rx="0" ry="0"/>
<rect width=".529" height="1.588" x="107.685" y="285.094" fill="#fff" rx="0" ry="0"/>
</g>
<g transform="translate(20.715 -329.762)scale(1.01474)">
<rect width="8.996" height="13.758" x="-64.002" y="324.773" fill="#885195" rx="0" ry="0" transform="rotate(-8.462)"/>
<path fill="url(#b)" d="M-5.721 335.34a11.132 17.633 6.416 0 1-.06.665 11.132 17.633 6.416 0 1-1.933 7.4l3.123-.464z" opacity=".25" style="fill:url(#i)"/>
<g fill="#fff" transform="matrix(.92652 -.14304 .15257 .9883 -134.56 84.683)">
<rect width="1.058" height="4.762" x="88.106" y="265.779" rx="0" ry="0"/>
<rect width="1.058" height="4.762" x="91.281" y="265.779" rx="0" ry="0"/>
<path d="M88.106 265.78h1.059l3.175 4.762h-1.06z"/>
</g>
</g>
</g>
</svg>
