<svg xmlns="http://www.w3.org/2000/svg" width="24" height="24" image-rendering="optimizeSpeed">
<defs>
<radialGradient id="a" cx="0" cy="0" r="1" gradientTransform="matrix(0 22 -22 0 12 1)" gradientUnits="userSpaceOnUse">
<stop offset="0" stop-color="#FAFAFA" style="stop-color:#fff;stop-opacity:1"/>
<stop offset="1" stop-color="#B0B0B0" style="stop-color:#f2f2f2;stop-opacity:1"/>
</radialGradient>
</defs>
<path fill="url(#a)" fill-rule="evenodd" d="M9.94 1.068q-.164.048-.344.046-1.114.09-2.2.355Q2.738 2.576 1.52 7.205a18.5 18.5 0 0 0-.515 4.786q-.046 2.283.447 4.51 1.16 4.95 6.128 6.058 2.7.555 5.452.412a15.6 15.6 0 0 0 4.766-.825q2.859-1.05 4.135-3.812a11.9 11.9 0 0 0 .893-3.32q.276-2.457.115-4.924a14.3 14.3 0 0 0-.756-3.824q-1.12-3.09-4.158-4.34a13.5 13.5 0 0 0-3.78-.847 32 32 0 0 0-4.307-.011" clip-rule="evenodd" style="fill:url(#a);stroke-width:1"/>
<g style="stroke-width:2.66667" transform="translate(0 -.375)scale(.375)">
<rect width="8" height="36" x="19" y="15.001" fill="#eb6447" rx="2" ry="2" style="stroke-width:2.66667;paint-order:stroke fill markers"/>
<rect width="8" height="36" x="37" y="15.001" fill="#68d65c" rx="2" ry="2" style="stroke-width:2.66667;paint-order:stroke fill markers"/>
<rect width="8" height="18" x="19" y="25.001" opacity=".35" rx="0" ry="0" style="stroke-width:2.66667;paint-order:stroke fill markers"/>
<rect width="8" height="18" x="37" y="25.001" opacity=".15" rx="0" ry="0" style="stroke-width:2.66667;paint-order:stroke fill markers"/>
<rect width="8" height="18" x="37" y="25.001" opacity=".35" rx="0" ry="0" style="stroke-width:2.66667;paint-order:stroke fill markers"/>
<rect width="2" height="36" x="13" y="15.001" opacity=".15" rx="1" ry="1" style="stroke-width:2.66667;paint-order:stroke fill markers"/>
<rect width="2" height="36" x="31" y="15.001" opacity=".15" rx="1" ry="1" style="stroke-width:2.66667;paint-order:stroke fill markers"/>
<rect width="2" height="36" x="49" y="15.001" opacity=".15" rx="1" ry="1" style="stroke-width:2.66667;paint-order:stroke fill markers"/>
<rect width="4" height="8" x="12" y="34.001" fill="gray" rx="1" ry=".889" style="stroke-width:2.66667;paint-order:stroke fill markers"/>
<rect width="4" height="8" x="30" y="23.001" fill="gray" rx="1" ry=".889" style="stroke-width:2.66667;paint-order:stroke fill markers"/>
<rect width="4" height="8" x="48" y="30.001" fill="gray" rx="1" ry=".889" style="stroke-width:2.66667;paint-order:stroke fill markers"/>
</g>
</svg>
