<svg xmlns="http://www.w3.org/2000/svg" xmlns:xlink="http://www.w3.org/1999/xlink" xml:space="preserve" width="24" height="24" style="display:inline" version="1.0">
<defs>
<linearGradient xlink:href="#a" id="b" x1="221.276" x2="214.693" y1="-303.447" y2="438.221" gradientUnits="userSpaceOnUse"/>
<linearGradient id="a">
<stop offset="0" style="stop-color:#f2f2f2;stop-opacity:1"/>
<stop offset="1" style="stop-color:#fff;stop-opacity:1"/>
</linearGradient>
<linearGradient xlink:href="#a" id="e" x1="221.276" x2="214.693" y1="-303.447" y2="438.221" gradientUnits="userSpaceOnUse"/>
<linearGradient xlink:href="#a" id="d" x1="221.276" x2="214.693" y1="-303.447" y2="438.221" gradientUnits="userSpaceOnUse"/>
<linearGradient xlink:href="#a" id="c" x1="221.276" x2="214.693" y1="-303.447" y2="438.221" gradientUnits="userSpaceOnUse"/>
</defs>
<g style="display:inline">
<g style="fill:url(#b);fill-opacity:1;stroke-width:21.9899">
<g style="fill:url(#c);fill-opacity:1;stroke-width:21.9899" transform="translate(1 1)scale(.04929)">
<g style="fill:url(#d);fill-opacity:1;stroke-width:21.9899">
<path d="M174.406 2.305q3.65.039 6.973-.93a642 642 0 0 1 87.387.234q39.615 3.084 76.699 17.188 61.646 25.383 84.363 88.043 12.99 37.728 15.34 77.59a567 567 0 0 1-2.324 99.89c-2.782 23.352-8.824 45.805-18.129 67.368q-25.886 56.073-83.899 77.355-47.013 15.885-96.687 16.723-55.869 2.907-110.625-8.36Q32.717 414.955 9.164 314.52a386.3 386.3 0 0 1-9.066-91.528q-1.116-49.248 10.461-97.101C27.02 63.285 66.762 24.488 129.785 9.508a283 283 0 0 1 44.621-7.203" style="fill:url(#e);fill-opacity:1;fill-rule:evenodd;stroke:none;stroke-width:21.9899"/>
</g>
</g>
</g>
<g style="stroke-width:2.01786">
<path d="M-114.283-.832a1.8 1.8 0 0 0-.469.062l-.053.014a1.8 1.8 0 0 0-.779.475l-11.539 11.539a1.81 1.81 0 0 0 0 2.564c.71.71 1.852.71 2.562 0l8.467-8.467v20.25c0 1.005.809 1.813 1.813 1.813a1.81 1.81 0 0 0 1.812-1.813V5.355l8.467 8.467c.71.71 1.853.71 2.563 0a1.81 1.81 0 0 0 0-2.564L-113-.301v-.002a2 2 0 0 0-.138-.123h-.002a1.8 1.8 0 0 0-.795-.373h-.004q-.082-.016-.168-.025h-.004l-.035-.002-.105-.004-.022-.002z" style="opacity:1;fill:#82f6a1;fill-opacity:1;stroke:none;stroke-width:1.00893;stroke-linecap:round;stroke-linejoin:round;stroke-opacity:.165098;paint-order:markers fill stroke" transform="translate(68.635 5.412)scale(.49558)"/>
<path d="M-112.773 19.514h.028c.562.798 1.416 1.472 2.105 2.162.233.233.534.671.899.671.361 0 .639-.412.87-.643l1.965-1.965c.249-.25.737-.573.586-.983-.188-.51-.686-.264-.95 0l-1.601 1.6c-.279.279-.615.548-.842.87l-2.218-2.217c-.246-.246-.577-.732-.983-.582-.258.095-.482.419-.673.61l-1.432 1.432q-.252.253-.506.505c-.056.055-.134.158-.224.134-.21-.055-.466-.431-.618-.583l-1.572-1.572c-.246-.247-.548-.723-.954-.595-.353.11-.698.618-.955.875-.728.729-1.554 1.426-2.211 2.218a.468.468 0 0 0 .246.76c.336.084.579-.244.786-.451l1.628-1.628c.13-.13.456-.588.646-.588.088 0 .169.11.225.167l.505.505 1.32 1.32c.223.223.448.524.73.675.417.225.717-.186.982-.451l1.46-1.46c.251-.252.553-.495.758-.786" style="fill:#f69282;fill-opacity:1;stroke:none;stroke-width:2.01786" transform="translate(68.635 5.412)scale(.49558)"/>
</g>
</g>
</svg>
