<svg xmlns="http://www.w3.org/2000/svg" xml:space="preserve" width="24" height="24" viewBox="0 0 6.35 6.35">
<defs>
<radialGradient id="a" cx="0" cy="0" r="1" fx="0" fy="0" gradientTransform="matrix(0 16.5 -16.5 0 9 .75)" gradientUnits="userSpaceOnUse" spreadMethod="pad">
<stop offset="0" style="stop-color:#fff;stop-opacity:1"/>
<stop offset=".333" style="stop-color:#add439;stop-opacity:1"/>
<stop offset=".611" style="stop-color:#eb2f6a;stop-opacity:1"/>
<stop offset="1" style="stop-color:#3471b9;stop-opacity:1"/>
</radialGradient>
</defs>
<path d="M7.195.836q.135 0 .258-.035a24 24 0 0 1 3.231.008 10.3 10.3 0 0 1 2.836.636q2.278.938 3.121 3.254.476 1.396.566 2.867a21 21 0 0 1-.086 3.696 9 9 0 0 1-.672 2.488q-.957 2.074-3.101 2.859a11.7 11.7 0 0 1-3.575.618 16 16 0 0 1-4.089-.309c-2.481-.551-4.016-2.066-4.594-4.543a14.2 14.2 0 0 1-.336-3.383q-.041-1.818.387-3.59.914-3.468 4.406-4.3A10 10 0 0 1 7.195.836" style="fill:url(#a);fill-rule:evenodd;stroke:none;stroke-width:.99975004;stroke-dasharray:none" transform="translate(.022 -.08)scale(.35277)"/>
<path fill="#add439" d="M3.209 1.11h-.022l.005.95.005 1.034.997-.513.921-.473a.5.5 0 0 0-.185-.171L3.449 1.17a.503.451 0 0 0-.24-.06"/>
<path fill="#ac1248" d="M1.288 2.092a.503.45 0 0 0-.075.236V3.86q.001.13.075.236l.917-.482.992-.52-.992-.522Z"/>
<path fill="#3471b9" d="m5.106 2.092-.917.481-.992.521 1.91 1.003a.503.451 0 0 0 .074-.236V2.328a.503.451 0 0 0-.004-.054q0-.008-.003-.017a.503.451 0 0 0-.007-.034.5.448 0 0 0-.007-.023.503.451 0 0 0-.01-.025l-.01-.026a.503.451 0 0 0-.002-.003.512.459 0 0 0-.032-.054"/>
<path fill="#86b02f" d="M3.207 1.11a.503.45 0 0 0-.262.06l-1.48.767a.502.45 0 0 0-.188.17l.923.474.997.513.005-1.034Z"/>
<path fill="#2e90e8" d="m3.197 3.094-.005 1.034-.005.95a.503.451 0 0 0 .262-.06l1.48-.766a.503.451 0 0 0 .187-.17l-.922-.475z"/>
<path fill="#eb2f6a" d="m3.197 3.094-.997.513-.921.474a.5.5 0 0 0 .061.079.503.451 0 0 0 .01.01l.025.022a.503.451 0 0 0 .018.014l.025.018a.503.451 0 0 0 .046.028l1.481.766a.503.451 0 0 0 .262.06l-.005-.95Z"/>
<path fill="#fff" d="m3.197 1.83 1.221.632v1.26l-1.221.631-1.221-.632v-1.26Z"/>
<path fill="#cedbe6" d="m3.197 1.83 1.221.632v1.26l-1.221.631Z"/>
<path fill="#dee5c0" d="m3.197 1.83-1.221.632 1.22.632 1.222-.632z"/>
</svg>
