<svg xmlns="http://www.w3.org/2000/svg" xmlns:xlink="http://www.w3.org/1999/xlink" xml:space="preserve" width="24" height="24" viewBox="0 0 6.35 6.35">
<defs>
<linearGradient id="a">
<stop offset="0" style="stop-color:#f68e15;stop-opacity:1"/>
<stop offset="1" style="stop-color:#fff;stop-opacity:1"/>
</linearGradient>
<linearGradient xlink:href="#a" id="b" x1="189.883" x2="177.271" y1="407.112" y2="-526.206" gradientUnits="userSpaceOnUse"/>
<linearGradient xlink:href="#a" id="c" x1="189.883" x2="177.271" y1="407.112" y2="-526.206" gradientUnits="userSpaceOnUse"/>
</defs>
<g style="fill:url(#b);fill-opacity:1;stroke-width:23.0144">
<path d="M148.375 1.961q3.105.033 5.93-.789a546 546 0 0 1 74.343.195q33.704 2.625 65.25 14.625c34.965 14.395 58.887 39.36 71.774 74.899a246.4 246.4 0 0 1 13.051 66.007 482.6 482.6 0 0 1-1.981 84.981q-3.545 29.799-15.422 57.312c-14.683 31.801-38.472 53.739-71.375 65.809-26.664 9.008-54.082 13.754-82.254 14.23-31.691 1.649-63.058-.722-94.117-7.113-57.16-12.73-92.418-47.582-105.781-104.543a329 329 0 0 1-7.711-77.867 319.3 319.3 0 0 1 8.898-82.609Q29.99 27.211 110.414 8.086a241 241 0 0 1 37.961-6.125" style="fill:url(#c);fill-opacity:1;fill-rule:evenodd;stroke:none;stroke-width:23.0144" transform="translate(.265 .265)scale(.01533)"/>
</g>
<path fill="#fff" d="M2.876 1.232h1.046L3.25 2.727h.971L2.502 5.118h-.224l.598-1.794H2.13Z" style="stroke-width:3.44004"/>
</svg>
