<svg xmlns="http://www.w3.org/2000/svg" xml:space="preserve" width="24" height="24" fill="none">
<defs>
<radialGradient id="a" cx="0" cy="0" r="1" fx="0" fy="0" gradientTransform="matrix(0 11 -11 0 -22 1)" gradientUnits="userSpaceOnUse" spreadMethod="pad">
<stop offset="0" style="stop-color:#fff;stop-opacity:1"/>
<stop offset="1" style="stop-color:#ececec;stop-opacity:1"/>
</radialGradient>
</defs>
<path d="M-24.407 1.115q.18 0 .344-.047a32 32 0 0 1 4.308.01 13.7 13.7 0 0 1 3.781.849c2.026.833 3.41 2.281 4.162 4.338.42 1.24.676 2.516.754 3.823a28.3 28.3 0 0 1-.114 4.928 12 12 0 0 1-.896 3.317q-1.276 2.766-4.135 3.812a15.6 15.6 0 0 1-4.767.824 21.3 21.3 0 0 1-5.452-.412c-3.308-.734-5.354-2.754-6.125-6.057a19 19 0 0 1-.448-4.51 18.5 18.5 0 0 1 .516-4.787q1.218-4.625 5.875-5.734a14 14 0 0 1 2.197-.354" style="fill:url(#a);fill-rule:evenodd;stroke:none;stroke-width:1.33333" transform="translate(34)"/>
<g style="fill:none;stroke-width:7.143">
<path fill="#fff" d="M6.017 4.313 61.35.226c6.797-.583 8.543-.19 12.817 2.917L91.83 15.586c2.913 2.14 3.883 2.723 3.883 5.053v68.243c0 4.277-1.553 6.807-6.99 7.193l-64.256 3.892c-4.08.193-6.023-.39-8.16-3.113L3.3 79.94C.967 76.827 0 74.497 0 71.773v-60.66c0-3.497 1.553-6.413 6.017-6.8" style="stroke-width:7.143" transform="matrix(.14 0 0 .14 5.3 5)"/>
<path fill="#000" fill-rule="evenodd" d="M61.35.227 6.017 4.314C1.553 4.7 0 7.617 0 11.113v60.66c0 2.723.967 5.053 3.3 8.167l13.007 16.913c2.137 2.723 4.08 3.307 8.16 3.113l64.257-3.89c5.433-.387 6.99-2.917 6.99-7.193V20.64c0-2.21-.873-2.847-3.443-4.733L74.167 3.143C69.894.036 68.147-.357 61.35.226ZM25.92 19.523c-5.247.353-6.437.433-9.417-1.99l-7.576-6.026c-.77-.78-.383-1.753 1.557-1.947l53.193-3.887c4.467-.39 6.793 1.167 8.54 2.527l9.123 6.61c.39.197 1.36 1.36.193 1.36L26.6 19.477l-.68.047ZM19.803 88.3V30.367c0-2.53.777-3.697 3.103-3.893L86 22.78c2.14-.193 3.107 1.167 3.107 3.693V84.02c0 2.53-.39 4.67-3.883 4.863l-60.377 3.5c-3.493.193-5.043-.97-5.043-4.083zm59.6-54.827c.387 1.75 0 3.5-1.75 3.7l-2.91.577v42.773c-2.527 1.36-4.853 2.137-6.797 2.137-3.107 0-3.883-.973-6.21-3.887l-19.03-29.94V77.8l6.02 1.363s0 3.5-4.857 3.5l-13.39.777c-.39-.78 0-2.723 1.357-3.11l3.497-.97v-38.3l-4.853-.393c-.39-1.75.58-4.277 3.3-4.473l14.367-.967 19.8 30.327v-26.83l-5.047-.58c-.39-2.143 1.163-3.7 3.103-3.89l13.4-.78z" clip-rule="evenodd" style="stroke-width:7.143" transform="matrix(.14 0 0 .14 5.3 5)"/>
</g>
</svg>
