<svg xmlns="http://www.w3.org/2000/svg" width="24" height="24" viewBox="0 0 6.35 6.35">
<defs>
<radialGradient id="a" cx="0" cy="0" r="1" fx="0" fy="0" gradientTransform="matrix(0 16.5 -16.5 0 9 .75)" gradientUnits="userSpaceOnUse" spreadMethod="pad">
<stop offset="0" style="stop-opacity:1;stop-color:#fafafa"/>
<stop offset="1" style="stop-opacity:1;stop-color:silver"/>
</radialGradient>
</defs>
<path d="M7.195.836q.135 0 .258-.035a24 24 0 0 1 3.231.008 10.3 10.3 0 0 1 2.836.636q2.278.938 3.121 3.254.476 1.396.566 2.867a21 21 0 0 1-.086 3.696 9 9 0 0 1-.672 2.488q-.957 2.074-3.101 2.859a11.7 11.7 0 0 1-3.575.618 16 16 0 0 1-4.089-.309c-2.481-.551-4.016-2.066-4.594-4.543a14.2 14.2 0 0 1-.336-3.383q-.041-1.818.387-3.59.914-3.468 4.406-4.3A10 10 0 0 1 7.195.836" style="fill:url(#a);fill-rule:evenodd;stroke:none" transform="scale(.35277)"/>
<path fill="#2a7e98" d="M-19.858 7.437h12.171c.44 0 .794.358.794.802v8.558a.796.796 0 0 1-.794.803h-12.17a.792.8 0 0 1-.795-.803V8.24c0-.445.355-.802.794-.802z" opacity=".8" style="paint-order:markers stroke fill" transform="translate(6.618 .33)scale(.24998)"/>
<path d="M-18.535 5.165c-.586 0-1.058.472-1.058 1.058v2.178l5.82 4.208 5.821-4.208V6.223c0-.586-.472-1.058-1.058-1.058z" opacity=".03" style="stroke-width:.26458;paint-order:stroke fill markers" transform="translate(6.618 .33)scale(.24998)"/>
<path fill="#26a4ca" d="M-7.058 7.753a.788.797 0 0 1 .165.486v8.558a.796.796 0 0 1-.794.803h-12.17a.788.797 0 0 1-.53-.208z" opacity=".5" style="paint-order:markers stroke fill" transform="translate(6.618 .33)scale(.24998)"/>
<path fill="#fff" d="M-18.554 5.43a.79.79 0 0 0-.775.802v2.359l5.557 4.018 5.556-4.018V6.232a.79.79 0 0 0-.775-.802z" style="stroke-width:.26458;paint-order:markers stroke fill" transform="translate(6.618 .33)scale(.24998)"/>
<path fill="#49bde3" d="M-20.487 7.753a.788.797 0 0 0-.165.486v8.558c0 .445.355.803.794.803h12.171c.205 0 .39-.08.53-.208z" opacity=".8" style="paint-order:markers stroke fill" transform="translate(6.618 .33)scale(.24998)"/>
<path fill="#fff" d="M-20.487 7.754a.788.796 0 0 0-.033.045l13.317 9.628q.024-.017.046-.035z" opacity=".15" style="stroke-width:.26458;paint-order:markers stroke fill" transform="translate(6.618 .33)scale(.24998)"/>
<path fill="#fff" d="M1.743 3.417c-.05 0-.09.037-.09.083v.095l.58.335v-.245l-.444-.256a.1.1 0 0 0-.046-.012m.588 0v.245l.58.335v-.245m-1.257-.079v.246l.58.334v-.245zm.676.067v.246l.58.334v-.245Zm-.676.257v.245l.58.335v-.246m.096-.267v.245l.445.256a.1.1 0 0 0 .046.012c.05 0 .09-.037.09-.083v-.096" style="stroke-width:.249982"/>
</svg>
