<svg xmlns="http://www.w3.org/2000/svg" width="24" height="24" fill="none">
<path fill="url(#a)" fill-rule="evenodd" d="M9.596 1.114q.18.001.344-.046a32 32 0 0 1 4.307.011 13.5 13.5 0 0 1 3.78.848q3.038 1.25 4.158 4.339.64 1.86.756 3.824a28 28 0 0 1-.114 4.923 11.9 11.9 0 0 1-.894 3.32q-1.276 2.764-4.135 3.813a15.6 15.6 0 0 1-4.765.825 21.4 21.4 0 0 1-5.453-.413q-4.967-1.106-6.128-6.056a19 19 0 0 1-.447-4.511 18.5 18.5 0 0 1 .515-4.786q1.217-4.629 5.877-5.736a14 14 0 0 1 2.2-.355Z" clip-rule="evenodd"/>
<path fill="#F9F9F9" fill-rule="evenodd" d="M8.983 3.502C7.325 4.33 5.94 5.882 5.9 7.728c-.032.96.178 1.969.673 2.795 1.731.027 3.515.967 4.124 2.565.888 2.115-.16 4.92-2.5 5.698-1.2.41-2.537.228-3.697-.215 1.587.948 3.698 1.31 5.405.416a5.8 5.8 0 0 0 2.213-1.931c-.841-1.442-.875-3.375.28-4.677 1.48-1.79 4.561-2.34 6.444-.807.977.782 1.476 1.971 1.653 3.145.072-1.777-.652-3.693-2.315-4.647a6.4 6.4 0 0 0-2.87-.868c-.894 1.413-2.642 2.408-4.407 2.112-2.372-.317-4.42-2.571-3.961-4.886.223-1.192 1.06-2.196 2.042-2.928z" clip-rule="evenodd"/>
<defs>
<radialGradient id="a" cx="0" cy="0" r="1" gradientTransform="matrix(0 22 -22 0 12 1)" gradientUnits="userSpaceOnUse">
<stop stop-color="#333"/>
<stop offset="1"/>
</radialGradient>
</defs>
</svg>
