<svg xmlns="http://www.w3.org/2000/svg" xml:space="preserve" width="24" height="24" viewBox="0 0 6.35 6.35">
<defs>
<radialGradient id="a" cx="0" cy="0" r="1" fx="0" fy="0" gradientTransform="matrix(0 16.5 -16.5 0 9 .75)" gradientUnits="userSpaceOnUse" spreadMethod="pad">
<stop offset="0" style="stop-opacity:1;stop-color:#fafafa"/>
<stop offset="1" style="stop-opacity:1;stop-color:silver"/>
</radialGradient>
</defs>
<path d="M7.195.836q.135 0 .258-.035a24 24 0 0 1 3.231.008 10.3 10.3 0 0 1 2.836.636q2.278.938 3.121 3.254.476 1.396.566 2.867a21 21 0 0 1-.086 3.696 9 9 0 0 1-.672 2.488q-.957 2.074-3.101 2.859a11.7 11.7 0 0 1-3.575.618 16 16 0 0 1-4.089-.309c-2.481-.551-4.016-2.066-4.594-4.543a14.2 14.2 0 0 1-.336-3.383q-.041-1.818.387-3.59.914-3.468 4.406-4.3A10 10 0 0 1 7.195.836" style="fill:url(#a);fill-rule:evenodd;stroke:none" transform="scale(.35278)"/>
<g style="stroke-width:24.1237" transform="translate(-.278 -.385)scale(.11126)">
<path fill="#2971d5" d="M31.811 14.94A17.06 17.06 0 0 0 14.751 32a17.06 17.06 0 0 0 17.06 17.06A17.06 17.06 0 0 0 48.871 32a17.06 17.06 0 0 0-17.06-17.06m1.939 3.877a12.795 12.795 0 0 1 12.795 12.795A12.795 12.795 0 0 1 33.75 44.407a12.795 12.795 0 0 1-12.795-12.795A12.795 12.795 0 0 1 33.75 18.817" style="stroke-width:24.1237"/>
<rect width="12.407" height="12.407" x="13.201" y="25.796" fill="#fc924d" rx="2.481" ry="2.481" style="stroke-width:24.1237"/>
<rect width="7.754" height="7.754" x="41.116" y="35.102" fill="#fc924d" rx="1.551" ry="1.551" style="stroke-width:24.1237"/>
<rect width="6.204" height="6.204" x="38.015" y="16.491" fill="#fc924d" rx="1.241" ry="1.241" style="stroke-width:24.1237"/>
</g>
</svg>
