<svg xmlns="http://www.w3.org/2000/svg" width="24" height="24" fill="none">
<g style="stroke-width:1.09091">
<path fill="url(#a)" fill-rule="evenodd" d="M9.377.124q.196.002.375-.05a34.5 34.5 0 0 1 4.699.012q2.13.167 4.124.925 3.315 1.364 4.536 4.734.698 2.028.825 4.171a30.5 30.5 0 0 1-.125 5.371 13 13 0 0 1-.975 3.622q-1.392 3.015-4.511 4.16-2.527.854-5.199.899a23.4 23.4 0 0 1-5.948-.45Q1.76 22.312.493 16.911a20.8 20.8 0 0 1-.488-4.921q-.06-2.649.563-5.221Q1.896 1.72 6.978.51a15 15 0 0 1 2.4-.387Z" clip-rule="evenodd" style="fill:url(#a);stroke-width:1.09091" transform="translate(1 1)scale(.91667)"/>
<path fill="#fafafa" fill-rule="evenodd" d="M.158 9q.14-1.122.41-2.231Q1.165 4.495 2.525 3h18.957q1.05 1.147 1.629 2.745.548 1.592.744 3.255Z" clip-rule="evenodd" opacity=".9" style="stroke-width:1.19008" transform="translate(1 1)scale(.91667)"/>
<path fill="#fff" d="m9.758 20 2.855-5.653v-.043H9.261v-1.577h5.398v1.577L11.788 20Z" style="stroke-width:1.19008" transform="translate(1 1)scale(.91667)"/>
<path fill="#586cd8" d="M7.99 4.74h.849l.583 1.422h.03l.582-1.421h.848V7.25h-.666V5.8h-.02l-.559 1.43h-.402l-.558-1.44h-.02v1.46h-.666Zm3.867 2.51h-.735l.828-2.51h.93l.83 2.51h-.736l-.549-1.818h-.02Zm-.138-.99h1.382v.51H11.72zm1.873-1.52h.76l.49 1.02h.019l.49-1.02h.76l-.922 1.721v.789h-.676v-.789Z" style="stroke-width:1.19008" transform="translate(1 1)scale(.91667)"/>
</g>
<defs>
<radialGradient id="a" cx="0" cy="0" r="1" gradientTransform="rotate(90 6 6)scale(24)" gradientUnits="userSpaceOnUse">
<stop stop-color="#7286F2"/>
<stop offset="1" stop-color="#4A5ECA"/>
</radialGradient>
</defs>
</svg>
