<svg xmlns="http://www.w3.org/2000/svg" xml:space="preserve" width="24" height="24" fill="none">
<defs>
<linearGradient id="b" x1="-34.007" x2="-33.932" y1="1.412" y2="9.107" gradientTransform="translate(81.971 50.024)" gradientUnits="userSpaceOnUse" spreadMethod="pad">
<stop offset="0" style="stop-opacity:1;stop-color:#db2a40"/>
<stop offset="1" style="stop-opacity:1;stop-color:#c71525"/>
</linearGradient>
<linearGradient id="c" x1="-13.869" x2="-13.869" y1="8.19" y2="-.018" gradientTransform="translate(62.028 50)" gradientUnits="userSpaceOnUse" spreadMethod="pad">
<stop offset="0" style="stop-opacity:1;stop-color:#d52a3c"/>
<stop offset="1" style="stop-opacity:0;stop-color:#d52a3c"/>
</linearGradient>
<linearGradient id="d" x1="-20.621" x2="-20.621" y1="3.488" y2="22.6" gradientTransform="translate(82 50)" gradientUnits="userSpaceOnUse" spreadMethod="pad">
<stop offset="0" style="stop-opacity:1;stop-color:#20bbfa"/>
<stop offset="1" style="stop-opacity:1;stop-color:#197df1"/>
</linearGradient>
<radialGradient id="a" cx="0" cy="0" r="1" fx="0" fy="0" gradientTransform="matrix(0 11 -11 0 54 51)" gradientUnits="userSpaceOnUse" spreadMethod="pad">
<stop offset="0" style="stop-opacity:1;stop-color:#424549"/>
<stop offset="1" style="stop-opacity:1;stop-color:#1f2121"/>
</radialGradient>
</defs>
<path d="M51.593 51.114q.18 0 .344-.046a32 32 0 0 1 4.308.01 13.7 13.7 0 0 1 3.781.848q3.036 1.252 4.161 4.34a14.4 14.4 0 0 1 .755 3.822 28 28 0 0 1-.115 4.922 11.8 11.8 0 0 1-.896 3.323q-1.275 2.766-4.134 3.812a15.6 15.6 0 0 1-4.767.824 21.3 21.3 0 0 1-5.452-.412q-4.97-1.103-6.125-6.057a19 19 0 0 1-.448-4.51 18.5 18.5 0 0 1 .516-4.788q1.218-4.624 5.874-5.733a14 14 0 0 1 2.198-.355" style="fill:url(#a);fill-rule:evenodd;stroke:none;stroke-width:1.33333" transform="translate(-42 -50)"/>
<path d="M50.197 51.322q-.421.07-.828.172c-1.396.328-2.552.896-3.484 1.7v7.212l2.156-1.245 2.156 1.245z" style="fill:url(#b);stroke:none;stroke-width:1.33333" transform="translate(-42 -50)"/>
<path d="M49.713 51.412a5 5 0 0 0-.287.057q-1.702.405-2.943 1.28v6.557l1.615-1.077 1.615 1.077z" style="fill:url(#c);stroke:none;stroke-width:1.33333" transform="translate(-42 -50)"/>
<path d="m62.551 53.604-.093.062c-.995.703-1.932 1.594-2.823 2.667-.865 1.047-1.646 2.24-2.354 3.573a18 18 0 0 0-1.532 4.078c-.364 1.412-.52 2.71-.468 3.885q.118 1.721.745 2.901c.416.787.995 1.344 1.723 1.688.125.058.256.104.386.146.562-.12 1.119-.276 1.662-.459q2.859-1.046 4.134-3.812.015-.032.022-.057c-.104.073-.208.15-.318.218q-1.173.749-2.276.866-1.133.115-1.922-.39-.782-.517-1.214-1.533c-.26-.683-.396-1.49-.396-2.432q-.002-1.454.475-3.141a14 14 0 0 1 1.333-3.214 16 16 0 0 1 1.88-2.749 11.2 11.2 0 0 1 1.651-1.568 6 6 0 0 0-.615-.73" style="fill:url(#d);stroke:none;stroke-width:1.33333" transform="translate(-42 -50)"/>
</svg>
