<svg xmlns="http://www.w3.org/2000/svg" xml:space="preserve" width="24" height="24">
<defs>
<linearGradient id="a" x1="189.883" x2="177.271" y1="407.112" y2="-526.206" gradientTransform="translate(35 1)scale(.05793)" gradientUnits="userSpaceOnUse" spreadMethod="pad">
<stop offset="0" style="stop-opacity:1;stop-color:#ffe287"/>
<stop offset="1" style="stop-opacity:1;stop-color:#fff"/>
</linearGradient>
<linearGradient id="b" x1="46" x2="82" y1="260" y2="260" gradientTransform="matrix(.0993 0 0 .11171 39.645 -12.24)" gradientUnits="userSpaceOnUse" spreadMethod="pad">
<stop offset="0" style="stop-opacity:1;stop-color:#e5a50a"/>
<stop offset=".125" style="stop-opacity:1;stop-color:#f5c211"/>
<stop offset=".875" style="stop-opacity:1;stop-color:#f5c211"/>
<stop offset="1" style="stop-opacity:1;stop-color:#e5a50a"/>
</linearGradient>
</defs>
<path d="M43.593 1.115q.18 0 .344-.047a32 32 0 0 1 4.308.01 13.7 13.7 0 0 1 3.782.849q3.036 1.251 4.161 4.338a14.6 14.6 0 0 1 .755 3.823 28.3 28.3 0 0 1-.115 4.928 12 12 0 0 1-.896 3.317q-1.276 2.766-4.135 3.812-2.312.784-4.766.824a21.3 21.3 0 0 1-5.452-.412c-3.308-.734-5.355-2.754-6.126-6.057a19 19 0 0 1-.448-4.51q-.055-2.429.516-4.787 1.218-4.625 5.875-5.734a14 14 0 0 1 2.197-.354" style="fill:url(#a);fill-rule:evenodd;stroke:none;stroke-width:1.33333" transform="translate(-34)"/>
<path d="M42.073 4.5h7.854A1.07 1.07 0 0 1 51 5.573v12.854a1.07 1.07 0 0 1-1.073 1.073h-7.854A1.07 1.07 0 0 1 41 18.427V5.573A1.07 1.07 0 0 1 42.073 4.5" style="fill:#b5835a;fill-opacity:1;fill-rule:nonzero;stroke:none;stroke-width:1.33333" transform="translate(-34)"/>
<path d="M44.661 15.016h2.678c.249 0 .448.203.448.448v2.681a.45.45 0 0 1-.448.448H44.66a.45.45 0 0 1-.448-.448v-2.681c0-.245.199-.448.448-.448z" style="fill:url(#b);stroke:none;stroke-width:1.33333" transform="translate(-34)"/>
<path d="M44.912 14.588h2.15c.35 0 .631.287.631.636v2.145a.63.63 0 0 1-.63.636h-2.151a.63.63 0 0 1-.63-.636v-2.145c0-.35.28-.636.63-.636" style="fill:#d0b339;fill-opacity:1;fill-rule:nonzero;stroke:none;stroke-width:1.33333" transform="translate(-34)"/>
<path d="M44.927 14.521a.71.71 0 0 0-.714.714v2.145a.71.71 0 0 0 .714.713h2.146a.71.71 0 0 0 .714-.713v-2.145a.71.71 0 0 0-.714-.714zm1.786.359c.199 0 .36.156.36.355a.36.36 0 0 1-.36.358.355.355 0 0 1-.353-.358.35.35 0 0 1 .353-.355m-1.073.713c.396 0 .72.319.72.714a.718.718 0 0 1-1.433 0c0-.395.324-.714.713-.714" style="fill:#f8e45c;fill-opacity:1;fill-rule:nonzero;stroke:none;stroke-width:1.33333" transform="translate(-34)"/>
<path d="M42.073 5.573v7.14h7.854v-7.14Zm.714.714h6.426V12h-6.426z" style="fill:#fff;fill-opacity:1;fill-rule:nonzero;stroke:none;stroke-width:1.33333" transform="translate(-34)"/>
<path d="M45.64 5.573h.719V12h-.719Zm-2.145 5.495c.229 0 .412.187.412.416v1.656a.414.414 0 1 1-.828 0v-1.656c0-.23.186-.416.416-.416m1.666 0c.23 0 .418.187.418.416v1.656a.414.414 0 1 1-.83 0v-1.656c0-.23.183-.416.412-.416m1.672 0c.23 0 .412.187.412.416v1.656a.414.414 0 1 1-.829 0v-1.656c0-.23.188-.416.417-.416m1.667 0c.235 0 .417.187.417.416v1.656a.415.415 0 1 1-.829 0v-1.656c0-.23.183-.416.412-.416" style="fill:#ccc;fill-opacity:1;fill-rule:nonzero;stroke:none;stroke-width:1.33333" transform="translate(-34)"/>
</svg>
