<svg xmlns="http://www.w3.org/2000/svg" xml:space="preserve" width="24" height="24" fill="none">
<defs>
<radialGradient id="a" cx="0" cy="0" r="1" fx="0" fy="0" gradientTransform="matrix(0 11 -11 0 -22 1)" gradientUnits="userSpaceOnUse" spreadMethod="pad">
<stop offset="0" style="stop-color:#f2f2f2;stop-opacity:1"/>
<stop offset="1" style="stop-color:#666;stop-opacity:1"/>
</radialGradient>
<clipPath id="b" clipPathUnits="userSpaceOnUse"/>
</defs>
<path d="M-24.407 1.115q.18 0 .344-.047a32 32 0 0 1 4.308.01 13.7 13.7 0 0 1 3.781.849c2.026.833 3.41 2.281 4.162 4.338.42 1.24.676 2.516.754 3.823a28.3 28.3 0 0 1-.114 4.928 12 12 0 0 1-.896 3.317q-1.276 2.766-4.135 3.812a15.6 15.6 0 0 1-4.767.824 21.3 21.3 0 0 1-5.452-.412c-3.308-.734-5.354-2.754-6.125-6.057a19 19 0 0 1-.448-4.51 18.5 18.5 0 0 1 .516-4.787q1.218-4.625 5.875-5.734a14 14 0 0 1 2.197-.354" style="fill:url(#a);fill-rule:evenodd;stroke:none;stroke-width:1.33333" transform="translate(34)"/>
<g style="stroke-width:1.04358">
<path d="M-38.173 27.654A7.81 7.81 0 0 1-46 19.827 7.81 7.81 0 0 1-38.173 12a7.81 7.81 0 0 1 7.827 7.827 7.81 7.81 0 0 1-7.827 7.827" style="fill:#2c363f;fill-opacity:1;fill-rule:nonzero;stroke:none;stroke-width:.232362" transform="translate(48.579 -6.999)scale(.95824)"/>
<path d="M-38.176 25.95a6.11 6.11 0 0 1-6.125-6.126 6.11 6.11 0 0 1 6.124-6.125h.001a6.11 6.11 0 0 1 6.125 6.124v.001a6.11 6.11 0 0 1-6.125 6.125z" style="fill:#2e5d89;fill-opacity:1;fill-rule:nonzero;stroke:none;stroke-width:.232362" transform="translate(48.579 -6.999)scale(.95824)"/>
<path d="M-38.175 24.42a4.584 4.584 0 0 1-4.594-4.595 4.584 4.584 0 0 1 4.594-4.594 4.584 4.584 0 0 1 4.594 4.594 4.583 4.583 0 0 1-4.594 4.594z" style="fill:#274f74;fill-opacity:1;fill-rule:nonzero;stroke:none;stroke-width:.232362" transform="translate(48.579 -6.999)scale(.95824)"/>
<path d="M-38.175 13.702a6.11 6.11 0 0 0-6.125 6.125 6.114 6.114 0 0 0 6.125 6.125 6.114 6.114 0 0 0 6.126-6.125 6.113 6.113 0 0 0-6.126-6.125m0 .437a5.676 5.676 0 0 1 5.688 5.688 5.676 5.676 0 0 1-5.688 5.688 5.676 5.676 0 0 1-5.687-5.688 5.676 5.676 0 0 1 5.687-5.688" style="fill:#197cf1;fill-opacity:1;fill-rule:nonzero;stroke:none;stroke-width:.232362" transform="translate(48.579 -6.999)scale(.95824)"/>
<path d="M-38.175 14.721a5.095 5.095 0 0 0-5.104 5.105 5.09 5.09 0 0 0 5.104 5.105 5.093 5.093 0 0 0 5.105-5.105 5.09 5.09 0 0 0-5.105-5.105m0 1.021a4.07 4.07 0 0 1 4.085 4.084 4.077 4.077 0 0 1-4.085 4.084 4.074 4.074 0 0 1-4.083-4.084 4.074 4.074 0 0 1 4.083-4.084" style="fill:#197cf1;fill-opacity:1;fill-rule:nonzero;stroke:none;stroke-width:.232362" transform="translate(48.579 -6.999)scale(.95824)"/>
<path d="M-38.175 16.412a3.4 3.4 0 0 0-1.38.292l.795 1.988.534-.142.872-2.035a3.4 3.4 0 0 0-.82-.103m1.229.232-.843 1.966.48.277 2.055-.822a3.4 3.4 0 0 0-1.692-1.422m-2.991.26a3.4 3.4 0 0 0-1.421 1.692l1.967.844.277-.48zm4.882 1.54-1.988.796.141.534 2.035.872a3.4 3.4 0 0 0-.189-2.201m-6.433.56a3.4 3.4 0 0 0-.102.82c0 .493.106.96.292 1.381l1.987-.795-.14-.533zm4.526 1.207-.277.48.822 2.056c.65-.39 1.15-.986 1.422-1.693zm-2.082.552-2.056.822c.39.65.986 1.15 1.693 1.422l.843-1.968zm1.452.195-.534.141-.873 2.035a3.4 3.4 0 0 0 2.201-.19z" style="fill:#197cf1;fill-opacity:1;fill-rule:nonzero;stroke:none;stroke-width:.232362" transform="translate(48.579 -6.999)scale(.95824)"/>
<path d="M-37.443 20.383a.918.918 0 1 1-1.458-1.118.918.918 0 0 1 1.458 1.118" style="fill:#2c3e50;fill-opacity:1;fill-rule:nonzero;stroke:none;stroke-width:.232362" transform="translate(48.579 -6.999)scale(.95824)"/>
<path d="M8.783 7.404a1.38 1.38 0 1 0 0 2.759 1.38 1.38 0 0 0 0-2.759m1.838 2.527a.689.689 0 1 0 0 1.378.689.689 0 0 0 0-1.378" clip-path="url(#b)" style="opacity:.25;fill:#fff;fill-opacity:1;fill-rule:nonzero;stroke:none;stroke-width:.232362" transform="translate(.501 .501)scale(.95824)"/>
</g>
</svg>
