<svg xmlns="http://www.w3.org/2000/svg" xml:space="preserve" width="24" height="24">
<path d="M43.593 1.115q.18 0 .344-.047a32 32 0 0 1 4.308.01 13.7 13.7 0 0 1 3.782.849q3.036 1.251 4.161 4.338a14.6 14.6 0 0 1 .755 3.823 28.3 28.3 0 0 1-.115 4.928 12 12 0 0 1-.896 3.317q-1.276 2.766-4.135 3.812-2.312.784-4.766.824a21.3 21.3 0 0 1-5.452-.412c-3.308-.734-5.355-2.754-6.126-6.057a19 19 0 0 1-.448-4.51 18.5 18.5 0 0 1 .516-4.787q1.218-4.625 5.875-5.734a14 14 0 0 1 2.197-.354" style="fill:#f2f2f2;fill-opacity:1;fill-rule:evenodd;stroke:none;stroke-width:1.33333" transform="translate(-34)"/>
<path d="M50.75 5.973c-1.515.839-7.458-.025-9.985 6.24-.353 1.651-.172 3.932 1.448 4.032.334.02.636.244.798.5 1.03 1.662 2.525 1.515 3.14.724.12-.152.344-.109.505.01 1.865 1.417 3.115-.823 3.75-2.578.255-.77 1.526-6.786 1.026-7.432-.15-.193-.807.364-1.375.952-4.562 4.73-7.593 1.199.522-2.328l.124-.145.084.036" style="fill:#73d216;fill-opacity:1;fill-rule:nonzero;stroke:none;stroke-width:1.33333" transform="translate(-34)"/>
<path d="M51.183 5.885c-1.552.282-8.803 1.088-10.418 6.407-.468 1.801-.202 4.25 1.896 4.161.146-.01.162.042.214.162.865 2.021 2.994 1.65 3.469.858.068-.109-.104-.066 0 0 2.167 1.464 3.35-.556 4.03-2.364.834-1.568 1.34-8.088.897-7.666-7.599 7.188-7.583.86-.088-1.558" style="fill:none;stroke:#45a300;stroke-width:.3;stroke-linecap:butt;stroke-linejoin:round;stroke-miterlimit:4;stroke-dasharray:none;stroke-opacity:1" transform="translate(-34)"/>
<path d="M42.875 16.484c-.547-2.453.094-2.88.344-3.541m3.104 4.478c-.708-1.478-.588-2.702-.088-3.614" style="fill:none;stroke:#45a300;stroke-width:.3;stroke-linecap:round;stroke-linejoin:bevel;stroke-miterlimit:4;stroke-dasharray:none;stroke-opacity:1" transform="translate(-34)"/>
</svg>
