<svg xmlns="http://www.w3.org/2000/svg" xmlns:bx="https://boxy-svg.com" xmlns:xlink="http://www.w3.org/1999/xlink" xml:space="preserve" width="24" height="24" viewBox="0 0 6.35 6.35">
<defs>
<linearGradient id="a">
<stop offset="0" style="stop-color:#3683cc;stop-opacity:1"/>
<stop offset="1" style="stop-color:#78adf9;stop-opacity:1"/>
</linearGradient>
<linearGradient xlink:href="#a" id="c" x1="-79.672" x2="-79.672" y1="145.246" y2="55.004" gradientTransform="matrix(.03097 0 0 .02977 6.626 -.05)" gradientUnits="userSpaceOnUse"/>
<radialGradient id="b" cx="0" cy="0" r="1" fx="0" fy="0" gradientTransform="matrix(0 16.5 -16.5 0 9 .75)" gradientUnits="userSpaceOnUse" spreadMethod="pad">
<stop offset="0" style="stop-opacity:1;stop-color:#fafafa"/>
<stop offset="1" style="stop-opacity:1;stop-color:silver"/>
</radialGradient>
</defs>
<path d="M7.195.836q.135 0 .258-.035a24 24 0 0 1 3.231.008 10.3 10.3 0 0 1 2.836.636q2.278.938 3.121 3.254.476 1.396.566 2.867a21 21 0 0 1-.086 3.696 9 9 0 0 1-.672 2.488q-.957 2.074-3.101 2.859a11.7 11.7 0 0 1-3.575.618 16 16 0 0 1-4.089-.309c-2.481-.551-4.016-2.066-4.594-4.543a14.2 14.2 0 0 1-.336-3.383q-.041-1.818.387-3.59.914-3.468 4.406-4.3A10 10 0 0 1 7.195.836" style="fill:url(#b);fill-rule:evenodd;stroke:none" transform="scale(.35278)"/>
<g style="stroke-width:1.0768">
<g style="stroke-width:1.05708">
<path d="M1.997 1.574h.549v.518h-.549z" style="fill:#79b1fe;fill-opacity:1;stroke-width:.00838478" transform="matrix(.94608 0 0 .94592 .25 .219)"/>
<path d="M1.449 1.574h.549v.518h-.549zm1.098 0h.549v.518h-.549z" style="fill:#3782c6;fill-opacity:1;stroke-width:.00838478" transform="matrix(.94608 0 0 .94592 .25 .219)"/>
<path d="M1.997 2.091h.549v.518h-.549z" style="fill:#3782c6;fill-opacity:1;stroke-width:.00838478" transform="matrix(.94608 0 0 .94592 .25 .219)"/>
<path d="M1.449 2.091h.549v.518h-.549zm1.098 0h.549v.518h-.549z" style="fill:#79b1fe;fill-opacity:1;stroke-width:.00838478" transform="matrix(.94608 0 0 .94592 .25 .219)"/>
<path d="M1.997 2.608h.549v.518h-.549z" style="fill:#79b1fe;fill-opacity:1;stroke-width:.00838478" transform="matrix(.94608 0 0 .94592 .25 .219)"/>
<path d="M1.449 2.608h.549v.518h-.549zm1.098 0h.549v.518h-.549z" style="fill:#3782c6;fill-opacity:1;stroke-width:.00838478" transform="matrix(.94608 0 0 .94592 .25 .219)"/>
<path d="M1.997 3.125h.549v.518h-.549z" style="fill:#3782c6;fill-opacity:1;stroke-width:.00838478" transform="matrix(.94608 0 0 .94592 .25 .219)"/>
<path d="M1.449 3.125h.549v.518h-.549zm1.098 0h.549v.518h-.549z" style="fill:#79b1fe;fill-opacity:1;stroke-width:.00838478" transform="matrix(.94608 0 0 .94592 .25 .219)"/>
<path d="M1.997 3.641h.549v.518h-.549z" style="fill:#79b1fe;fill-opacity:1;stroke-width:.00838478" transform="matrix(.94608 0 0 .94592 .25 .219)"/>
<path d="M1.449 3.641h.549v.518h-.549zm1.098 0h.549v.518h-.549zm-.55.518h.549v.518h-.549z" style="fill:#3782c6;fill-opacity:1;stroke-width:.00838478" transform="matrix(.94608 0 0 .94592 .25 .219)"/>
<path d="M1.449 4.159h.549v.518h-.549zm1.098 0h.549v.518h-.549z" style="fill:#79b1fe;fill-opacity:1;stroke-width:.00838478" transform="matrix(.94608 0 0 .94592 .25 .219)"/>
</g>
<path d="M3.205 1.577h1.619v3.2H3.205z" style="fill:url(#c);fill-opacity:1;stroke-width:.00873218" transform="matrix(.92876 0 0 .9286 .226 .227)"/>
<g style="stroke-width:1.0768" transform="matrix(.92876 0 0 .9286 .48 .495)">
<rect width="3.468" height="3.346" x="1.168" y="1.213" rx=".504" ry=".504" style="fill:none;stroke:#222f4d;stroke-width:.235769px;stroke-opacity:1"/>
<path d="M2.798 1.218h.208v3.337h-.208z" style="fill:#222f4d;fill-opacity:1;stroke-width:.00592622"/>
</g>
<g style="stroke-width:1.0768" transform="matrix(.92876 0 0 .9286 .223 .25)">
<circle cx="3.178" cy="3.151" r=".406" style="fill:#222f4d;fill-opacity:1;stroke-width:.00873218"/>
<g style="fill:#73b4eb;fill-opacity:1;stroke-width:1.54733">
<path bx:shape="triangle 263.01 223.273 50.499 39.955 0.5 0 1@9343d11f" d="m-98.605 104.103-10.473 6.834-.194-13.36zm-28.57-.41 10.478-6.025.21 13.36z" style="fill:#73b4eb;fill-opacity:1;stroke-width:.4094" transform="translate(5.586 .927)scale(.02133)"/>
</g>
</g>
</g>
</svg>
