<svg xmlns="http://www.w3.org/2000/svg" width="24" height="24" viewBox="0 0 6.35 6.35">
<defs>
<radialGradient id="a" cx="0" cy="0" r="1" gradientTransform="rotate(90 1.455 1.72)scale(5.82072)" gradientUnits="userSpaceOnUse">
<stop offset="0" stop-color="#FAFAFA" style="stop-color:#fff;stop-opacity:1"/>
<stop offset="1" stop-color="#B0B0B0" style="stop-color:#f2f2f2;stop-opacity:1"/>
</radialGradient>
</defs>
<path fill="url(#a)" fill-rule="evenodd" d="M2.63.283a.3.3 0 0 1-.091.012q-.295.023-.582.094Q.724.681.402 1.906q-.15.624-.136 1.266-.012.605.118 1.194.307 1.31 1.621 1.603.715.146 1.443.108.648-.01 1.26-.218a1.87 1.87 0 0 0 1.095-1.008q.182-.421.236-.879a7.3 7.3 0 0 0 .03-1.302 3.8 3.8 0 0 0-.2-1.012A1.89 1.89 0 0 0 4.77.51a3.6 3.6 0 0 0-1-.224A8 8 0 0 0 2.63.283" clip-rule="evenodd" style="fill:url(#a);stroke-width:.264578"/>
<g style="stroke-width:1.17494">
<text x="1.821" y="5.221" fill="#4d4d4d" stroke-width=".344" font-family="FreeSans" font-size="2.194" font-weight="700" style="line-height:0%;text-align:center" text-anchor="middle" transform="matrix(.87195 0 0 .83077 .527 .383)"><tspan x="1.821" y="5.221" style="stroke-width:.343809">A</tspan></text>
<text x="4.409" y="3.066" fill="#4d4d4d" stroke-width=".344" font-family="FreeSans" font-size="2.778" font-weight="700" style="line-height:0%;text-align:center" text-anchor="middle" transform="matrix(.82621 0 0 .87676 .527 .383)"><tspan x="4.409" y="3.066" font-size="2.194" style="stroke-width:.343808">𝛀</tspan></text>
<path fill="#33d17a" d="m2.542 2.146.086.265.604-.666-.877-.28.05.246c-.865.437-.955.82-1.074 1.205l.467.083c.11-.468.402-.706.744-.853m1.05 2.21-.087-.265-.604.666.878.28-.051-.246c.865-.437.956-.82 1.075-1.205l-.467-.083c-.111.468-.402.706-.744.853" style="stroke-width:1.17458" transform="translate(.527 .383)scale(.85111)"/>
</g>
<path d="M1.634.704a.11.11 0 1 0 0 .22.11.11 0 0 0 0-.22m.438 0a.1.1 0 0 0-.058.019l-.012.01a.1.1 0 0 0-.029.039l-.005.012a.1.1 0 0 0 0 .06l.006.013a.1.1 0 0 0 .027.038l.014.01a.1.1 0 0 0 .057.019.1.1 0 0 0 .058-.019l.013-.01A.1.1 0 0 0 2.17.857l.007-.014a.1.1 0 0 0 0-.06L2.171.772a.1.1 0 0 0-.029-.04L2.13.722a.1.1 0 0 0-.058-.018m.438 0a.1.1 0 0 0-.057.019l-.013.01a.1.1 0 0 0-.028.039l-.006.012a.1.1 0 0 0 0 .06l.006.013a.1.1 0 0 0 .028.038l.013.01a.1.1 0 0 0 .057.019.1.1 0 0 0 .058-.019l.013-.01a.1.1 0 0 0 .028-.038l.006-.014a.1.1 0 0 0 0-.06L2.609.772a.1.1 0 0 0-.028-.04l-.013-.01A.1.1 0 0 0 2.51.704m.439 0a.1.1 0 0 0-.058.019l-.013.01a.1.1 0 0 0-.028.039l-.006.012a.1.1 0 0 0 0 .06l.006.013a.1.1 0 0 0 .028.038l.013.01a.1.1 0 0 0 .058.019.1.1 0 0 0 .057-.019l.013-.01a.1.1 0 0 0 .028-.038l.006-.014a.1.1 0 0 0 0-.06L3.047.772a.1.1 0 0 0-.028-.04l-.013-.01a.1.1 0 0 0-.057-.018m.438 0a.1.1 0 0 0-.058.019l-.012.01a.1.1 0 0 0-.029.039l-.006.012a.1.1 0 0 0 0 .06l.007.013a.1.1 0 0 0 .027.038l.013.01a.1.1 0 0 0 .058.019.1.1 0 0 0 .058-.02l.012-.009a.1.1 0 0 0 .028-.039l.006-.013a.1.1 0 0 0 0-.06L3.486.772a.1.1 0 0 0-.03-.04l-.011-.01a.1.1 0 0 0-.058-.018m.438 0a.1.1 0 0 0-.058.019l-.012.01a.1.1 0 0 0-.029.039l-.005.012a.1.1 0 0 0 0 .06l.006.013a.1.1 0 0 0 .027.038l.014.01a.1.1 0 0 0 .057.019.1.1 0 0 0 .058-.02l.012-.008a.1.1 0 0 0 .03-.041l.004-.01a.1.1 0 0 0 0-.062L3.925.774a.1.1 0 0 0-.03-.042l-.012-.01a.1.1 0 0 0-.058-.018m.438 0a.1.1 0 0 0-.058.019l-.012.01a.1.1 0 0 0-.028.039l-.006.012a.1.1 0 0 0 0 .06l.006.013a.1.1 0 0 0 .028.038l.012.01a.1.1 0 0 0 .058.019.1.1 0 0 0 .058-.02l.012-.01a.1.1 0 0 0 .028-.037l.006-.014a.1.1 0 0 0 0-.06L4.361.772a.1.1 0 0 0-.029-.04l-.01-.01a.1.1 0 0 0-.059-.018m.438 0a.11.11 0 1 0 0 .22.11.11 0 0 0 0-.22m.437 0a.11.11 0 0 0 .001.22.11.11 0 0 0 .105-.143 2 2 0 0 0-.106-.077m-3.93.004q-.06.04-.117.085a.11.11 0 0 0 .105.131.11.11 0 0 0 .012-.216" style="fill:#d5d3cf;fill-opacity:1;stroke-width:.264578"/>
<path d="M.266 2.975v.133zm5.817.014q0 .399-.044.798a3.1 3.1 0 0 1-.236.878A1.87 1.87 0 0 1 4.71 5.674q-.613.207-1.26.218a5.7 5.7 0 0 1-1.443-.108Q.691 5.491.384 4.18a5 5 0 0 1-.118-1.026v.017q-.012.605.118 1.194.307 1.31 1.622 1.603.714.146 1.442.109.648-.011 1.26-.219A1.87 1.87 0 0 0 5.803 4.85q.182-.421.236-.879.055-.49.044-.983Z" style="fill:#26a269;fill-opacity:1;stroke-width:.264578"/>
<path d="M6.08 2.888q-.011.278-.04.555a3.1 3.1 0 0 1-.237.879A1.87 1.87 0 0 1 4.71 5.33a4.1 4.1 0 0 1-1.26.218 5.7 5.7 0 0 1-1.443-.109Q.691 5.146.384 3.837a5 5 0 0 1-.116-.918l-.002.056v.18q.006.518.118 1.026.307 1.31 1.622 1.603a5.7 5.7 0 0 0 1.442.108q.648-.01 1.26-.218a1.87 1.87 0 0 0 1.095-1.009q.182-.421.236-.878.044-.399.044-.798l-.004-.1z" style="fill:#aaa;fill-opacity:1;stroke-width:.264578"/>
</svg>
