<svg xmlns="http://www.w3.org/2000/svg" xmlns:xlink="http://www.w3.org/1999/xlink" xml:space="preserve" width="24" height="24" fill="none">
<defs>
<linearGradient id="b">
<stop offset="0" style="stop-color:#0cf;stop-opacity:1"/>
<stop offset="1" style="stop-color:#2671ff;stop-opacity:.35412475"/>
</linearGradient>
<linearGradient id="a">
<stop offset="0" style="stop-color:#ccc;stop-opacity:1"/>
<stop offset="1" style="stop-color:#f9f9f9;stop-opacity:1"/>
</linearGradient>
<linearGradient xlink:href="#a" id="c" x1="11.969" x2="11.781" y1="25.875" y2="-3.125" gradientUnits="userSpaceOnUse"/>
<linearGradient xlink:href="#b" id="d" x1="3.179" x2="21.074" y1="12.972" y2="12.972" gradientUnits="userSpaceOnUse"/>
<linearGradient xlink:href="#b" id="f" x1="3.179" x2="21.074" y1="12.972" y2="12.972" gradientUnits="userSpaceOnUse"/>
<linearGradient xlink:href="#b" id="g" x1="3.179" x2="21.074" y1="12.972" y2="12.972" gradientUnits="userSpaceOnUse"/>
<linearGradient xlink:href="#b" id="h" x1="3.179" x2="21.074" y1="12.972" y2="12.972" gradientUnits="userSpaceOnUse"/>
<linearGradient xlink:href="#b" id="i" x1="3.179" x2="21.074" y1="12.972" y2="12.972" gradientUnits="userSpaceOnUse"/>
<linearGradient xlink:href="#b" id="j" x1="3.179" x2="21.074" y1="12.972" y2="12.972" gradientUnits="userSpaceOnUse"/>
<linearGradient xlink:href="#b" id="e" x1="3.179" x2="21.074" y1="12.972" y2="12.972" gradientUnits="userSpaceOnUse"/>
</defs>
<path d="M12 1C2 1 1 6 1 12c0 8 3 11 11 11s11-3 11-11c0-6-1-11-11-11" style="font-variation-settings:normal;display:inline;opacity:1;vector-effect:none;fill:url(#c);fill-opacity:1;stroke-width:1.11627;stroke-linecap:butt;stroke-linejoin:miter;stroke-miterlimit:4;stroke-dasharray:none;stroke-dashoffset:0;stroke-opacity:1;-inkscape-stroke:none;stop-color:#000;stop-opacity:1"/>
<g style="fill:url(#d)">
<g style="fill:url(#e);fill-opacity:1" transform="translate(1.94 1.657)scale(.84643)">
<path d="M11.474 21c-1.013-.574-1.896-1.089-1.962-1.144-.124-.103-.16-.422-.065-.569.1-.152 3.828-2.227 4.003-2.227.33 0 .408.193.43 1.08l.021.816.404-.14c1.924-.67 3.485-2.223 4.183-4.161l.166-.463-.26-.27c-.362-.379-.496-.68-.496-1.115 0-.543.295-1.055.743-1.288l.192-.1-.065-.351c-.35-1.887-1.596-3.639-3.306-4.646-.329-.193-.413-.279-.39-.396.017-.082.051-.276.076-.43.054-.334.047-.335.88.155.813.48 2.145 1.814 2.62 2.628.436.745.836 1.772.95 2.44.08.465.11.524.304.604.992.411 1.253 1.753.478 2.457-.201.183-.598.393-.742.393-.058 0-.155.178-.231.422-.708 2.28-2.698 4.269-5.01 5.01l-.532.17v.965c0 .84-.018.98-.135 1.085a.5.5 0 0 1-.275.12c-.077 0-.969-.47-1.981-1.044m1.926-3.402c-.014-.015-.808.416-1.764.957l-1.738.984 1.745.99 1.745.991.02-1.947c.01-1.072.007-1.96-.008-1.975m6.448-3.758c.596-.27.835-1.068.488-1.625a1.137 1.137 0 0 0-1.772-.21c-.59.59-.376 1.591.397 1.865.39.137.53.133.887-.03M8.155 18.89c-2.016-1.098-3.494-3.1-3.91-5.296-.084-.44-.109-.482-.332-.563-.976-.353-1.293-1.655-.587-2.412.195-.21.652-.452.85-.452.112 0 .178-.108.305-.495.773-2.374 3.006-4.47 5.358-5.028l.359-.085V2.622l.163-.115a.6.6 0 0 1 .272-.114c.113 0 3.685 1.999 3.91 2.188.212.179.162.493-.11.695-.493.366-3.653 2.104-3.825 2.104-.351 0-.41-.155-.41-1.078v-.847l-.221.044c-.414.083-1.323.503-1.89.872a7.07 7.07 0 0 0-2.623 3.151c-.137.335-.25.66-.251.723s.101.211.227.33c.302.283.431.603.431 1.063 0 .471-.158.811-.523 1.123-.332.285-.343.382-.133 1.142a6.98 6.98 0 0 0 3.326 4.22c.335.187.462.297.444.387-.014.07-.045.25-.07.402-.024.15-.083.274-.132.274s-.331-.134-.628-.296m-3.1-6.324c.262-.158.52-.62.52-.933 0-.287-.252-.769-.491-.94a1.09 1.09 0 0 0-1.149-.09c-.445.216-.63.527-.63 1.06 0 .38.024.442.276.712.415.445.938.513 1.474.19m7.375-6.683 1.737-.983-1.453-.823c-.799-.452-1.593-.904-1.764-1.003l-.312-.181V4.88c0 1.093.012 1.987.027 1.987s.81-.443 1.765-.984m-1.417 10.255a4.19 4.19 0 0 1-2.773-2.465c-.258-.623-.324-1.866-.134-2.522a4.21 4.21 0 0 1 2.853-2.856c.598-.172 1.818-.123 2.426.099 1.12.408 2.019 1.311 2.458 2.47.226.597.283 1.661.123 2.29-.368 1.433-1.54 2.62-2.949 2.987-.533.14-1.48.137-2.004-.003m2.05-.368c1.165-.342 2.136-1.29 2.488-2.428.198-.643.199-1.599.001-2.238-.418-1.354-1.608-2.355-3.046-2.562-.491-.071-.678-.066-1.167.035-.831.17-1.313.43-1.917 1.034-.603.604-.863 1.086-1.034 1.917-.366 1.781.698 3.588 2.468 4.192.594.202 1.61.225 2.207.05m-1.912-1.576c-.443-.2-.86-.611-1.071-1.057-.231-.488-.242-1.313-.023-1.797.2-.443.612-.86 1.058-1.071.531-.252 1.33-.247 1.85.012.446.222.86.656 1.063 1.117.215.486.161 1.4-.11 1.864a2.45 2.45 0 0 1-1.039.946c-.422.192-1.288.185-1.728-.014" style="fill:url(#f);fill-opacity:1"/>
<path d="m13.241 21.962-1.962-1.106c-1.481-.837-1.824-1.06-1.863-1.212-.025-.103-.013-.24.027-.304.088-.14 3.824-2.278 3.984-2.28.061 0 .185.051.275.114l.163.114v1.695l.201-.05c.111-.028.433-.152.715-.275 1.731-.755 3.15-2.282 3.745-4.03l.167-.493-.243-.185c-.754-.575-.711-1.78.082-2.34.176-.124.32-.262.32-.307s-.068-.344-.151-.664c-.188-.726-.688-1.77-1.125-2.353-.48-.639-1.34-1.428-1.95-1.79l-.53-.315.049-.371c.027-.204.065-.387.085-.407.063-.063.85.385 1.421.809a7.8 7.8 0 0 1 2.426 3.071c.254.59.58 1.712.58 1.992 0 .08.08.144.217.174.329.072.768.542.88.939.239.854-.141 1.498-1.108 1.874-.134.052-.21.15-.247.317-.166.752-.886 2.05-1.593 2.868-.795.92-2.12 1.79-3.356 2.207l-.549.184-.036 1c-.033.882-.054 1.013-.18 1.105-.168.123-.247.126-.444.02m.184-2.409c0-1.089-.023-1.98-.05-1.98-.082 0-3.47 1.93-3.467 1.976.003.043 3.367 1.965 3.462 1.977.03.004.055-.884.055-1.973m6.404-5.673c.759-.317.936-1.287.342-1.88-.492-.492-1.155-.49-1.627.006-.884.93.102 2.368 1.285 1.874M8.255 18.909A7.87 7.87 0 0 1 5.04 15.74c-.276-.512-.638-1.526-.795-2.231-.085-.378-.125-.444-.317-.513a2.3 2.3 0 0 1-.418-.214c-.24-.162-.572-.802-.572-1.1 0-.674.456-1.284 1.08-1.444l.365-.093.094-.37c.135-.526.734-1.69 1.16-2.253 1.022-1.35 2.68-2.474 4.213-2.859l.348-.087v-.93c0-1.009.054-1.185.37-1.204.11-.007.921.408 2.105 1.078 1.577.892 1.935 1.123 1.973 1.276.026.103.014.24-.026.304-.089.14-3.824 2.278-3.984 2.28a.6.6 0 0 1-.275-.114l-.163-.114V5.408l-.385.112c-1.05.304-2.416 1.175-3.118 1.988a7.2 7.2 0 0 0-1.416 2.427l-.137.39.228.193c.69.58.641 1.771-.093 2.279-.154.106-.281.229-.283.273-.007.19.3 1.236.51 1.739.558 1.343 1.832 2.728 3.08 3.351.182.09.342.174.355.186.043.038-.076.84-.125.839-.025-.001-.277-.125-.56-.276m-3.208-6.298c.334-.25.48-.512.513-.92.036-.449-.138-.778-.563-1.064-.64-.432-1.614.025-1.742.817-.048.297.125.835.327 1.019.411.371 1.076.439 1.465.148m7.4-6.713c.941-.532 1.71-.986 1.71-1.008-.002-.033-3.263-1.891-3.46-1.971-.032-.014-.06.87-.06 1.962s.023 1.986.05 1.986.82-.436 1.76-.969m-1.296 10.24c-.76-.164-1.363-.502-1.945-1.089-.582-.585-.931-1.186-1.095-1.882-.6-2.548 1.333-4.986 3.949-4.98 1.065.003 1.994.404 2.796 1.207.6.601.863 1.057 1.064 1.842.357 1.398-.026 2.77-1.065 3.808-1.009 1.01-2.314 1.395-3.704 1.094m1.67-.288a3.74 3.74 0 0 0 1.85-1.055c1.491-1.51 1.443-3.78-.112-5.303-1.396-1.367-3.788-1.33-5.167.081-1.44 1.473-1.461 3.812-.049 5.209 1.005.993 2.216 1.365 3.477 1.068m-1.458-1.6c-.659-.246-.996-.556-1.279-1.174-.167-.365-.19-.502-.167-.953.062-1.146.831-1.933 1.968-2.011a2.09 2.09 0 0 1 2.057 1.198c.243.498.247 1.313.01 1.8a2.4 2.4 0 0 1-.99 1.029c-.384.197-1.216.254-1.6.11" style="fill:url(#g);fill-opacity:1"/>
<path d="M11.445 20.94c-.989-.565-1.86-1.089-1.935-1.164-.313-.31-.175-.428 1.84-1.574 1.036-.59 1.958-1.092 2.047-1.114.106-.027.214.011.315.112.136.137.153.24.153.97v.815l.23-.046c.336-.067 1.508-.645 1.933-.953.965-.7 1.948-1.924 2.375-2.96.33-.799.343-.925.115-1.048-.23-.123-.517-.594-.584-.958-.11-.603.347-1.355.954-1.57.168-.06.23-.105.146-.107-.125-.002-.173-.108-.312-.672-.423-1.728-1.713-3.435-3.242-4.294l-.369-.207.047-.367a2.3 2.3 0 0 1 .07-.393c.04-.047 1.004.505 1.401.803 1.172.879 2.15 2.212 2.629 3.582.198.568.408 1.473.359 1.552-.017.027.073.07.199.094.33.066.834.6.94.994.2.742-.27 1.562-1.01 1.76l-.28.076-.132.442c-.186.622-.568 1.39-1.002 2.02-.485.7-1.499 1.671-2.205 2.11-.584.364-1.611.82-2.024.9l-.238.047v.97c0 .847-.017.986-.135 1.092a.53.53 0 0 1-.311.118c-.098-.001-.986-.465-1.974-1.03m1.98-1.43v-2.024l-.239.14c-.13.077-.923.528-1.76 1.002s-1.521.885-1.521.914c0 .053 3.363 1.983 3.465 1.989.03.001.055-.908.055-2.022m6.532-5.697c.78-.526.78-1.487 0-2.013-.511-.344-1.21-.163-1.599.414-.485.72.111 1.766 1.007 1.766.237 0 .422-.052.592-.167M8.255 18.884c-1.382-.71-2.593-1.951-3.32-3.4-.26-.521-.587-1.525-.66-2.035l-.054-.363-.283-.097a1.63 1.63 0 0 1-.823-.71c-.135-.258-.133-1.036.003-1.298.163-.317.597-.658.949-.747.287-.072.327-.11.408-.385.291-.983.973-2.156 1.722-2.966.869-.937 2.219-1.772 3.47-2.145l.53-.159v-.935c0-.812.018-.95.135-1.056a.5.5 0 0 1 .295-.121c.175 0 3.699 1.972 3.926 2.196a.3.3 0 0 1 .091.321c-.037.15-.414.393-1.991 1.29-1.07.608-1.994 1.106-2.054 1.106s-.174-.066-.254-.147c-.13-.13-.147-.244-.147-.99 0-.464-.028-.843-.062-.843-.143 0-.917.3-1.407.546a6.95 6.95 0 0 0-3.447 3.908l-.163.458.29.281c.721.7.541 1.869-.358 2.317-.227.113-.322.19-.234.19.123 0 .169.09.273.532.465 1.964 1.815 3.71 3.552 4.594l.315.16-.045.272c-.061.367-.092.456-.16.454-.032-.001-.255-.104-.497-.228m-3.352-6.18a2 2 0 0 0 .418-.336c.2-.21.22-.277.22-.721 0-.372-.034-.535-.142-.678-.256-.336-.493-.464-.918-.494-.45-.031-.764.123-1.06.522-.215.29-.215.982 0 1.273.368.496 1.005.682 1.482.433m7.733-6.893c.837-.475 1.522-.887 1.522-.915 0-.05-3.39-1.99-3.477-1.99-.024 0-.043.911-.043 2.025v2.023l.238-.14c.131-.077.923-.528 1.76-1.003M10.78 16.012c-1.392-.474-2.378-1.568-2.674-2.964-.144-.679-.134-1.142.037-1.812.2-.784.463-1.239 1.064-1.845.95-.96 2.218-1.364 3.526-1.124a4 4 0 0 1 3.112 2.77c.185.589.2 1.71.03 2.288a4.07 4.07 0 0 1-2.739 2.738c-.61.18-1.753.155-2.356-.05m2.157-.167c1.316-.338 2.414-1.448 2.721-2.752.309-1.308-.06-2.587-1.024-3.55-.721-.72-1.572-1.06-2.65-1.062-2.064-.003-3.695 1.648-3.692 3.736.002 1.032.354 1.896 1.063 2.606.964.965 2.307 1.348 3.582 1.022m-1.623-1.633a2.16 2.16 0 0 1-1.41-1.992c0-.79.52-1.604 1.236-1.93.432-.198 1.245-.212 1.625-.029.14.068.182.106.091.083l-.165-.04v3.833l.165-.041c.091-.023.05.012-.091.076-.402.184-1.002.2-1.451.04" style="fill:url(#h);fill-opacity:1"/>
<path d="M11.409 20.911c-1.008-.578-1.877-1.119-1.931-1.2a.4.4 0 0 1-.054-.291c.059-.185 3.822-2.327 4.063-2.312.095.006.21.049.257.095.058.059.09.743.105 2.252.024 2.4.004 2.524-.408 2.513-.116-.003-.969-.447-2.032-1.057m2-2.382-.021-1.024-1.775 1.006c-.976.553-1.749 1.031-1.717 1.063.031.031.83.494 1.774 1.028l1.718.97.02-1.01c.011-.554.011-1.47 0-2.033m-2.47-2.465c-1.28-.344-2.302-1.359-2.764-2.744-.208-.622-.182-1.718.056-2.39.433-1.225 1.32-2.1 2.556-2.528.602-.208 1.74-.232 2.327-.05 1.411.44 2.527 1.62 2.807 2.968.139.666.057 1.795-.168 2.343-.501 1.215-1.472 2.082-2.696 2.408-.508.135-1.601.132-2.118-.007m2.05-.221c2.691-.79 3.677-4.022 1.86-6.098-1.14-1.305-3.023-1.649-4.614-.843-.47.238-1.284 1.051-1.522 1.522-.45.888-.556 2.007-.276 2.912.366 1.187 1.4 2.179 2.618 2.514.498.137 1.457.133 1.935-.007m-1.988-1.787c-.625-.33-1.096-1.12-1.096-1.836 0-.725.478-1.516 1.112-1.84.267-.136.543-.195.39-.084-.045.034-.072.762-.072 1.924s.027 1.89.073 1.924c.152.111-.155.045-.407-.088m7.897.113a1.41 1.41 0 0 1-.95-1.363c-.001-.439.084-.657.38-.978.747-.806 2.081-.488 2.396.57a1.434 1.434 0 0 1-.736 1.712c-.272.14-.794.167-1.09.059m1.086-.332c.747-.493.72-1.625-.048-2.057-.59-.331-1.314-.099-1.641.528-.117.223-.136.697-.039.952.078.206.43.569.632.65.282.116.87.076 1.096-.073m-16.01-.845a1.44 1.44 0 0 1-.85-.739c-.13-.275-.148-.882-.035-1.183.134-.354.513-.68.933-.803 1.369-.397 2.406 1.22 1.469 2.288-.405.46-.948.617-1.517.437m1.133-.394a1.2 1.2 0 0 0-.073-1.988c-.17-.104-.368-.15-.654-.15-.356 0-.445.03-.673.23-.344.303-.476.57-.476.966 0 .38.21.733.589.99.332.226.948.203 1.287-.048m5.384-5.269c-.28-.1-.293-.214-.293-2.403 0-2.314.024-2.46.4-2.46.23 0 3.903 2.093 4.003 2.28.111.207.034.38-.241.543-.731.433-3.687 2.09-3.72 2.085a1 1 0 0 1-.149-.045m2.437-1.67c.71-.404 1.277-.755 1.26-.783-.017-.027-.237-.163-.489-.302s-1.043-.585-1.76-.992l-1.301-.74v4.109l.5-.28c.274-.155 1.08-.61 1.79-1.013" style="fill:url(#i);fill-opacity:1"/>
<path d="M11.518 20.946c-.988-.564-1.788-1.06-1.777-1.102.01-.043-.039-.068-.11-.056-.097.017-.135-.035-.152-.204-.012-.125.021-.262.074-.305.282-.234 3.753-2.146 3.895-2.146.337 0 .343.047.343 2.42 0 2.354-.009 2.421-.326 2.42-.083 0-.959-.462-1.947-1.027m2.17.824q.014-.08-.018-.018c-.054.108-.293.092-.542-.037-.274-.142-.287-.078-.015.071.233.129.549.12.575-.016m-.263-.05c0-.02-.075-.07-.165-.115l-.165-.08.142.114c.15.12.188.136.188.08m-.587-.148c0-.02-.1-.086-.22-.149-.276-.142-.293-.08-.018.068.23.125.238.128.238.08m.66-2.019V17.5l-.128-.001c-.111-.001-.114-.012-.019-.079.098-.07.098-.074 0-.045-.06.018-.102.07-.092.115.01.044-.105.144-.257.222-.15.078-.915.507-1.698.955s-1.437.813-1.453.813c-.015 0-.005-.041.023-.092s-.007-.037-.078.03-.106.158-.079.202c.055.09.48.326.48.267 0-.02-.098-.088-.22-.15-.12-.063-.219-.155-.218-.204q0-.092.055-.01c.03.043.747.469 1.594.945 1.45.816 2.074 1.202 1.375.852-.172-.086-.312-.14-.312-.12 0 .063.566.33.609.287.022-.022.1-.005.174.037a.6.6 0 0 0 .189.08c.03.002.055-.921.055-2.05m-1.173 1.725c0-.02-.132-.102-.294-.185-.161-.082-.293-.133-.293-.113s.124.102.275.182c.311.164.312.164.312.116m.073-.146c0-.02-.1-.086-.22-.149-.276-.142-.293-.08-.018.068.23.125.238.128.238.08m-.733-.22c0-.02-.1-.086-.22-.149-.276-.142-.293-.08-.019.068.23.125.239.128.239.08m.22-.073c0-.02-.1-.086-.22-.149-.276-.143-.293-.08-.019.068.23.125.239.128.239.08m-.734-.22c0-.02-.099-.086-.22-.149-.276-.143-.292-.08-.018.068.23.125.238.128.238.08m.22-.074c0-.019-.099-.086-.22-.148-.276-.143-.292-.081-.018.068.23.125.238.127.238.08m-.733-.22c0-.019-.1-.086-.22-.148-.276-.143-.293-.081-.018.068.23.125.238.127.238.08m.22-.074c0-.019-.132-.102-.293-.184-.162-.083-.294-.134-.294-.114s.124.102.275.182c.311.164.312.164.312.116m-.84-.297a.5.5 0 0 0-.22-.105c-.042.002.006.05.107.108.237.135.295.134.114-.003m-.379-.588c.025-.065.013-.095-.029-.069-.04.025-.072.076-.072.114 0 .105.052.082.101-.045m.779-.293c0-.02-.1.014-.22.077-.121.063-.22.13-.22.15s.099-.014.22-.077c.12-.062.22-.13.22-.15m-.073-.146c0-.02-.132.03-.294.113-.161.082-.293.166-.293.186s.132-.03.293-.113c.162-.082.294-.166.294-.186m.586-.147c0-.02-.099.014-.22.077-.12.062-.22.13-.22.15s.1-.014.22-.077c.121-.063.22-.13.22-.15m-.073-.147c0-.02-.1.014-.22.077-.121.063-.22.13-.22.15s.099-.014.22-.077c.12-.062.22-.13.22-.15m.587-.147c0-.02-.1.015-.22.077-.121.063-.22.13-.22.15s.099-.014.22-.076c.12-.063.22-.13.22-.15m-.074-.146c0-.02-.099.014-.22.077-.12.062-.22.13-.22.15s.1-.014.22-.077c.121-.063.22-.13.22-.15m.734-.22c0-.02-.132.031-.294.113-.161.083-.293.166-.293.187s.132-.031.293-.113c.162-.083.294-.166.294-.187m-.22-.074c0-.02-.1.015-.22.077-.121.063-.22.13-.22.15s.099-.014.22-.076c.12-.063.22-.13.22-.15m.733-.22c0-.02-.1.015-.22.077-.121.063-.22.13-.22.15s.099-.014.22-.076c.12-.063.22-.13.22-.15m-.22-.073c0-.02-.1.014-.22.077-.121.063-.22.13-.22.15s.099-.014.22-.077c.12-.062.22-.13.22-.15m.733-.22c0-.02-.099.014-.22.077-.12.063-.22.13-.22.15s.1-.014.22-.077c.121-.062.22-.13.22-.15m-.073-.146c0-.02-.132.03-.293.113-.162.082-.294.166-.294.186s.132-.03.294-.113c.16-.082.293-.166.293-.186m.626-.102c-.026-.043-.08-.078-.12-.078s-.03.046.023.102c.105.115.173.098.097-.024m-.323-.063a.19.19 0 0 0-.173.046c-.055.054-.026.064.096.032.099-.026.132-.06.077-.078m-2.333-1.154c-1.407-.38-2.482-1.446-2.85-2.83-.138-.518-.135-1.538.006-2.078.344-1.322 1.465-2.443 2.787-2.788.54-.14 1.56-.143 2.077-.005 1.354.36 2.473 1.494 2.831 2.867.543 2.084-.765 4.287-2.868 4.83-.547.14-1.467.143-1.983.004m1.37-.035-.33-.051.304-.011c.704-.026 1.57-.418 2.232-1.013.626-.563 1.151-1.633 1.178-2.397l.01-.304.053.293c.038.217.052.122.051-.367 0-.518-.011-.589-.051-.33l-.052.33-.01-.298c-.044-1.175-.921-2.457-2.078-3.036-.32-.16-.754-.316-.963-.345-.334-.047-.354-.058-.16-.094.12-.023-.127-.041-.55-.04-.424 0-.688.012-.587.026.127.018.022.067-.342.16-.62.158-1.024.353-1.382.668-.144.126-.278.212-.299.191-.04-.04.547-.486.84-.64a7 7 0 0 1 .55-.23c.207-.077.277-.121.156-.099-.866.164-1.957 1.052-2.41 1.964-.145.29-.28.626-.303.747-.021.12.026.044.106-.17.21-.565.846-1.542.942-1.446.02.019-.067.15-.19.29-.362.412-.593.862-.741 1.443-.095.372-.146.485-.165.36-.014-.101-.026.162-.027.586 0 .424.018.671.04.55.037-.195.048-.178.094.15.073.52.496 1.36.91 1.805.65.701 1.672 1.217 2.467 1.246l.304.011-.33.051c-.252.04-.164.052.366.052s.618-.013.367-.052m-1.889-2.365c-.767-.793-.747-2.199.042-2.923l.27-.248-.242.264-.242.264v2.39l.238.246c.131.135.222.246.202.246s-.14-.108-.268-.239m.77 2.321c-.025-.024-.089-.027-.142-.006-.058.024-.04.041.045.045.077.003.12-.015.096-.039m1.686 0c-.025-.024-.088-.027-.14-.006-.06.024-.042.041.043.045.078.003.121-.015.097-.039m-2.352-.208a5 5 0 0 1-.696-.355c-.599-.397-1.223-1.167-1.5-1.85-.065-.16-.12-.248-.122-.193-.01.243.482 1.08.89 1.516.326.35.595.55 1.03.767.322.162.64.293.706.292.066 0-.072-.08-.308-.177m3.187-.09a3.9 3.9 0 0 0 1.701-1.703c.149-.297.27-.594.269-.66-.001-.065-.078.067-.171.293a4.06 4.06 0 0 1-2.173 2.169c-.222.092-.351.167-.286.168s.362-.12.66-.268m-5.532-2.605c-.023-.058-.04-.04-.044.045-.003.077.014.12.038.096.025-.025.027-.088.006-.14m7.553-.073c-.023-.059-.04-.041-.044.044-.003.078.014.12.039.096.024-.024.027-.087.005-.14m-.054-1.947c-.311-.961-1.115-1.927-1.927-2.318-.582-.28-.593-.214-.015.086.874.453 1.758 1.568 1.92 2.42.027.148.064.228.08.178.018-.05-.009-.215-.058-.366m-2.729-2.63c-.024-.025-.088-.027-.14-.006q-.087.036.044.044c.077.003.12-.014.096-.038m5.742 5.646c-.52-.221-.809-.676-.809-1.275 0-.826.583-1.394 1.432-1.394.778 0 1.355.593 1.355 1.394 0 .81-.557 1.376-1.358 1.38a1.9 1.9 0 0 1-.62-.105m1.324-.147c.38-.222.567-.614.551-1.156-.015-.52-.184-.864-.53-1.077-.319-.198-.396-.178-.095.025.3.202.584.605.575.816-.005.114-.023.098-.071-.066-.097-.333-.438-.692-.766-.807-.161-.057-.23-.105-.153-.107s.122-.021.1-.044c-.074-.073-.849.167-1.088.337a1.4 1.4 0 0 0-.37.467c-.074.165-.137.247-.137.183-.003-.181.304-.594.579-.78.302-.203.207-.221-.12-.022-.32.196-.483.541-.5 1.066-.018.533.156.93.5 1.14.327.198.422.18.12-.023-.275-.186-.582-.598-.58-.78.001-.064.063.018.138.182.147.325.44.595.723.666.098.024.146.065.105.09s.116.043.348.04q.42-.003.67-.15m-.263-.02c.36-.165.534-.353.664-.718.065-.181.1-.226.103-.126.007.326-.626.985-.943.98-.064 0 .015-.062.176-.136m-16.06-1.01c-.495-.262-.765-.704-.768-1.256-.004-.825.567-1.404 1.38-1.398.236.002.36.031.332.077s.01.057.098.029c.17-.054.56.191.785.493.125.169.153.314.153.776 0 .514-.02.596-.211.846a1.6 1.6 0 0 1-.514.414c-.368.168-.957.176-1.255.019m.234-.058a1.28 1.28 0 0 1-.72-.59c-.075-.121-.136-.187-.136-.147 0 .277.671.846.989.84.086-.002.03-.044-.133-.103m.65.04c-.125-.049-.115-.062.075-.1.313-.062.615-.325.772-.671.075-.165.137-.246.138-.182.002.181-.305.594-.58.78-.281.189-.247.219.066.057.377-.195.532-.502.549-1.085.009-.299-.009-.46-.04-.379-.052.132-.057.13-.062-.024-.003-.095-.147-.309-.336-.498-.183-.183-.268-.297-.19-.256.079.042.244.2.369.35.254.31.306.267.073-.06-.154-.217-.53-.459-.601-.388-.022.022-.228.004-.46-.039-.38-.07-.447-.062-.707.084a1.4 1.4 0 0 0-.43.393c-.199.322-.18.4.024.099.185-.275.598-.582.779-.58.064.001-.02.064-.187.14-.337.153-.682.593-.693.884l-.007.185-.06-.184c-.044-.139-.058-.085-.058.22 0 .306.014.36.059.22l.059-.183.007.175c.01.233.258.623.495.779.105.069.344.167.53.218.38.104.639.132.416.045m5.687-5.68c-.059-.072-.077-.756-.063-2.364l.019-2.263.193-.068c.17-.06.418.06 2.127 1.03l1.933 1.096.023.23c.027.28.083.241-2.169 1.515-.898.508-1.71.924-1.806.924a.4.4 0 0 1-.257-.1m.194-.024c-.07-.019-.128-.07-.128-.114s-.02-.06-.044-.036c-.073.073.044.2.177.192.111-.008.11-.012-.005-.042m.348-.022c.026-.042-.004-.054-.069-.029-.127.049-.15.101-.045.101.038 0 .09-.032.114-.072m-.073-.206c0-.066 3.276-1.995 3.388-1.995.017 0 .008.041-.02.092-.029.05.006.037.077-.03s.107-.158.08-.202c-.056-.09-.481-.326-.481-.267 0 .02.099.088.22.15.12.063.22.155.218.204q.001.095-.055.008c-.052-.08-3.553-2.082-3.64-2.082-.024 0-.043.924-.043 2.054V6.94l.128.001c.11.001.113.012.018.079-.098.07-.098.074 0 .048.06-.017.11-.067.11-.113m.77-.201c0-.02-.132.03-.293.113-.161.082-.293.166-.293.186s.132-.03.293-.113c.161-.082.293-.166.293-.186m-.22-.074c0-.02-.099.014-.22.077-.12.062-.22.13-.22.15s.1-.014.22-.077c.121-.063.22-.13.22-.15m-.9-.748c-.015-.152-.028-.028-.028.275 0 .302.013.426.028.275a3 3 0 0 0 0-.55m1.634.528c0-.02-.1.014-.22.077-.121.062-.22.13-.22.15s.099-.014.22-.077c.12-.063.22-.13.22-.15m-.22-.074c0-.02-.1.015-.22.077-.121.063-.22.13-.22.15s.099-.014.22-.076c.12-.063.22-.13.22-.15m.733-.22c0-.02-.1.015-.22.077-.121.063-.22.13-.22.15s.099-.014.22-.076c.12-.063.22-.13.22-.15m-.22-.073c0-.02-.1.014-.22.077-.121.063-.22.13-.22.15s.099-.014.22-.077c.12-.062.22-.13.22-.15m.733-.22c0-.02-.099.014-.22.077-.12.063-.22.13-.22.15s.1-.014.22-.077c.121-.062.22-.13.22-.15m-.073-.146c0-.02-.132.03-.293.113-.162.082-.294.166-.294.186s.132-.03.294-.113c.16-.082.293-.166.293-.186m.587-.147c0-.02-.1.014-.22.077-.121.062-.22.13-.22.15s.099-.014.22-.077c.12-.063.22-.13.22-.15m-.074-.147c0-.02-.099.014-.22.077-.12.063-.22.13-.22.15s.1-.014.22-.077c.121-.062.22-.13.22-.15m-3.101-.345c-.018-.09-.032-.016-.032.165 0 .182.014.256.032.165.017-.09.017-.239 0-.33m3.835.126c0-.02-.132.03-.294.113-.161.082-.293.166-.293.186s.132-.03.293-.113c.162-.082.294-.166.294-.186m-.22-.074c0-.02-.1.014-.22.077-.121.062-.22.13-.22.15s.099-.014.22-.077c.12-.063.22-.13.22-.15m.425-.145c-.022-.023-.063.018-.09.09-.04.105-.032.113.04.041.05-.05.073-.109.05-.131m-4.04-.64c-.018-.09-.032-.017-.032.165s.014.256.032.165c.017-.09.017-.24 0-.33m4.055.399c0-.033-.14-.138-.312-.232q-.531-.293.022.099c.3.213.29.208.29.133m-.734-.269c0-.019-.099-.086-.22-.148-.276-.143-.292-.081-.018.068.23.125.238.127.238.08m.074-.146c0-.02-.1-.086-.22-.149-.276-.143-.293-.08-.019.068.23.125.239.128.239.08m-.587-.148c0-.019-.132-.102-.293-.184-.162-.083-.294-.134-.294-.114s.124.102.275.182c.311.164.312.164.312.116m-2.806-1.01c-.016-.17-.028-.03-.028.312 0 .343.012.483.028.312a4 4 0 0 0 0-.623m2.88.864c0-.02-.133-.103-.294-.185s-.293-.133-.293-.113.123.101.275.181c.31.165.311.165.311.117m-.734-.22c0-.019-.1-.086-.22-.148-.276-.143-.293-.081-.018.068.23.125.238.127.238.08m.073-.146c0-.02-.099-.086-.22-.149-.276-.143-.292-.08-.018.068.23.125.238.128.238.08m-.586-.147c0-.02-.1-.086-.22-.149-.276-.142-.293-.08-.019.068.23.125.239.128.239.08m.073-.147c0-.019-.1-.086-.22-.148-.276-.143-.293-.081-.018.068.23.125.238.127.238.08m-.587-.147c0-.02-.132-.102-.293-.185-.161-.082-.293-.133-.293-.113s.123.102.275.182c.31.164.311.164.311.116m.074-.146c0-.02-.1-.086-.22-.149-.276-.142-.293-.08-.019.068.23.125.239.128.239.08m-.734-.22c0-.018-.074-.07-.165-.113l-.165-.08.143.114c.15.12.187.136.187.08m.22-.073c0-.064-.43-.259-.564-.256-.073.002-.006.048.148.103s.3.12.324.144c.052.052.092.056.092.009" style="fill:url(#j);fill-opacity:1"/>
</g>
</g>
</svg>
