<svg xmlns="http://www.w3.org/2000/svg" xmlns:xlink="http://www.w3.org/1999/xlink" xml:space="preserve" width="24" height="24" fill="none">
<defs>
<linearGradient id="a">
<stop offset="0" style="stop-color:#c04242;stop-opacity:1"/>
<stop offset="1" style="stop-color:#ce9292;stop-opacity:1"/>
</linearGradient>
<linearGradient xlink:href="#a" id="b" x1="46.165" x2="46.676" y1="95.767" y2="-5.227" gradientTransform="translate(-.222 -.222)scale(.24444)" gradientUnits="userSpaceOnUse"/>
</defs>
<path d="M12 1C2 1 1 6 1 12c0 8 3 11 11 11s11-3 11-11c0-6-1-11-11-11" style="font-variation-settings:normal;display:inline;opacity:1;vector-effect:none;fill:url(#b);fill-opacity:1;stroke-width:1.11627;stroke-linecap:butt;stroke-linejoin:miter;stroke-miterlimit:4;stroke-dasharray:none;stroke-dashoffset:0;stroke-opacity:1;-inkscape-stroke:none;stop-color:#000;stop-opacity:1"/>
<path fill="#dcdcdc" d="M354.718 206.596a2.064 2.064 0 0 0-2.523 1.462l-10.835 41.978a2.15 2.15 0 0 0 1.47 2.58l24.822 6.907a2.064 2.064 0 0 0 2.53-1.476l10.827-41.978a2.135 2.135 0 0 0-1.469-2.58" style="stroke-width:7.16587" transform="translate(-68.047 -41.346)scale(.22889)"/>
<path fill="#db6565" d="m363.582 223.866-9.03 7.352 4.272 11.057 9.029-7.345" style="stroke-width:7.16587" transform="translate(-68.047 -41.346)scale(.22889)"/>
<path fill="#f9f9f9" d="M320.078 212.637a2.15 2.15 0 0 0-1.691 2.436l7.266 42.802a2.08 2.08 0 0 0 2.393 1.698l25.303-4.636a2.12 2.12 0 0 0 1.67-2.436l-7.267-42.795a2.064 2.064 0 0 0-2.379-1.698" style="stroke-width:7.16587" transform="translate(-68.047 -41.346)scale(.22889)"/>
<path fill="#d74949" d="M332.604 228.38a3.655 3.655 0 0 0-2.938 4.257c1.16 5.919 9.215 9.273 9.215 9.273s6.213-6.12 5.052-12.04a3.66 3.66 0 0 0-4.321-2.851 3.676 3.676 0 0 0-2.988 3.34 3.69 3.69 0 0 0-4.027-1.979z" style="stroke-width:7.16587" transform="translate(-68.047 -41.346)scale(.22889)"/>
</svg>
