<svg xmlns="http://www.w3.org/2000/svg" width="24" height="24">
<defs>
<radialGradient id="a" cx="0" cy="0" r="1" fx="0" fy="0" gradientTransform="matrix(0 16.5 -16.5 0 9 .75)" gradientUnits="userSpaceOnUse" spreadMethod="pad">
<stop offset="0" style="stop-opacity:1;stop-color:#fafafa"/>
<stop offset="1" style="stop-opacity:1;stop-color:silver"/>
</radialGradient>
</defs>
<path d="M7.195.836q.135 0 .258-.035a24 24 0 0 1 3.231.008 10.3 10.3 0 0 1 2.836.636q2.278.938 3.121 3.254.476 1.396.566 2.867a21 21 0 0 1-.086 3.696 9 9 0 0 1-.672 2.488q-.957 2.074-3.101 2.859a11.7 11.7 0 0 1-3.575.618 16 16 0 0 1-4.089-.309c-2.481-.551-4.016-2.066-4.594-4.543a14.2 14.2 0 0 1-.336-3.383q-.041-1.818.387-3.59.914-3.468 4.406-4.3A10 10 0 0 1 7.195.836" style="fill:url(#a);fill-rule:evenodd;stroke:none" transform="scale(1.33333)"/>
<g style="stroke-width:3.73333" transform="translate(-7.286 3.429)scale(.26786)">
<rect width="48" height="36" x="44" y="10" fill="#f35a23" rx="3" ry="3" style="stroke-width:3.73333;paint-order:stroke fill markers"/>
<rect width="44" height="32" x="46" y="12" opacity=".15" rx="1.048" ry="1.067" style="stroke-width:3.73333;paint-order:stroke fill markers"/>
<rect width="48" height="36" x="48" y="14" fill="#8bc34a" rx="3" ry="3" style="stroke-width:3.73333;paint-order:stroke fill markers"/>
<rect width="44" height="32" x="50" y="16" opacity=".15" rx="1.048" ry="1.067" style="stroke-width:3.73333;paint-order:stroke fill markers"/>
<rect width="48" height="36" x="52" y="18" fill="#29b6f6" rx="3" ry="3" style="stroke-width:3.73333;paint-order:stroke fill markers"/>
<path d="M55 20c-.58 0-1.047.475-1.047 1.066v29.867c0 .591.467 1.067 1.047 1.067h31.953l11-11V21.066c0-.591-.466-1.067-1.047-1.067z" opacity=".15" style="stroke-width:3.73333;paint-order:stroke fill markers"/>
<path fill="#6fcdf9" d="m87 52 11-11h-9.953c-.58 0-1.047.475-1.047 1.066Z" style="stroke-width:3.73333;paint-order:stroke fill markers"/>
<path d="M98 41 87 52h9.953c.58 0 1.047-.475 1.047-1.066Z" opacity=".05" style="stroke-width:3.73333;paint-order:stroke fill markers"/>
</g>
</svg>
