<svg xmlns="http://www.w3.org/2000/svg" xmlns:xlink="http://www.w3.org/1999/xlink" xml:space="preserve" width="24" height="24">
<defs>
<linearGradient xlink:href="#a" id="d" x1="25.514" x2="25.514" y1="199.222" y2="211.486" gradientTransform="translate(2.94 -22.32)scale(.14529)" gradientUnits="userSpaceOnUse"/>
<linearGradient id="a">
<stop offset="0" style="stop-color:#9a9996;stop-opacity:1"/>
<stop offset=".5" style="stop-color:#c0bfbc;stop-opacity:1"/>
<stop offset="1" style="stop-color:#deddda;stop-opacity:1"/>
</linearGradient>
<linearGradient xlink:href="#a" id="e" x1="16" x2="16" y1="121.583" y2="127.083" gradientTransform="matrix(.3736 0 0 .35661 6.152 -30.118)" gradientUnits="userSpaceOnUse"/>
<linearGradient xlink:href="#a" id="f" x1="16" x2="16" y1="121.583" y2="127.083" gradientTransform="matrix(.3736 0 0 .35661 6.152 -33.825)" gradientUnits="userSpaceOnUse"/>
<linearGradient xlink:href="#a" id="g" x1="16" x2="16" y1="121.583" y2="127.083" gradientTransform="matrix(.3736 0 0 .35661 .67 -33.825)" gradientUnits="userSpaceOnUse"/>
<linearGradient xlink:href="#a" id="k" x1="16" x2="16" y1="121.583" y2="127.083" gradientTransform="matrix(2.33766 0 0 2.2314 -11.14 -29.054)" gradientUnits="userSpaceOnUse"/>
<linearGradient xlink:href="#b" id="j" x1="12.5" x2="19.5" y1="113.833" y2="113.833" gradientTransform="matrix(.34266 0 0 .32708 1.165 -26.72)" gradientUnits="userSpaceOnUse"/>
<linearGradient id="b">
<stop offset="0" style="stop-color:#c0bfbc;stop-opacity:1"/>
<stop offset=".5" style="stop-color:#9a9996;stop-opacity:1"/>
<stop offset="1" style="stop-color:#c0bfbc;stop-opacity:1"/>
</linearGradient>
<linearGradient xlink:href="#a" id="h" x1="16" x2="16" y1="121.583" y2="127.083" gradientTransform="matrix(2.33766 0 0 2.2314 -11.14 -29.054)" gradientUnits="userSpaceOnUse"/>
<linearGradient xlink:href="#a" id="i" x1="16" x2="16" y1="121.583" y2="127.083" gradientTransform="matrix(2.33766 0 0 2.2314 -11.14 -29.054)" gradientUnits="userSpaceOnUse"/>
<radialGradient id="c" cx="0" cy="0" r="1" gradientTransform="matrix(0 22 -22 0 12 1)" gradientUnits="userSpaceOnUse">
<stop offset=".11" stop-color="#555" style="stop-color:#a19a99;stop-opacity:1"/>
<stop offset=".5" stop-color="#555" style="stop-color:#77767b;stop-opacity:1"/>
<stop offset="1" stop-color="#222" style="stop-color:#5e5c64;stop-opacity:1"/>
</radialGradient>
</defs>
<path fill="url(#c)" fill-rule="evenodd" d="M9.596 1.114q.18.001.344-.046a32 32 0 0 1 4.307.011q1.951.153 3.78.848 3.038 1.25 4.158 4.339.64 1.86.756 3.824a28 28 0 0 1-.115 4.923 11.9 11.9 0 0 1-.893 3.32q-1.276 2.764-4.135 3.813a15.6 15.6 0 0 1-4.766.825 21.4 21.4 0 0 1-5.452-.412q-4.967-1.107-6.128-6.057a19 19 0 0 1-.447-4.511 18.5 18.5 0 0 1 .515-4.786q1.217-4.629 5.877-5.736a14 14 0 0 1 2.199-.355" clip-rule="evenodd" style="fill:url(#c)"/>
<ellipse cx="6.647" cy="7.515" rx="1.199" ry=".891" style="display:inline;fill:url(#d);fill-opacity:1;fill-rule:evenodd;stroke:none;stroke-width:.149196;stroke-linecap:square;stroke-miterlimit:4;stroke-dasharray:none;stroke-opacity:1;paint-order:stroke fill markers"/>
<path d="M12.13 11.54v1.543" style="fill:none;stroke:#999;stroke-width:.43586;stroke-linecap:butt;stroke-linejoin:miter;stroke-miterlimit:4;stroke-dasharray:none;stroke-opacity:1"/>
<ellipse cx="12.13" cy="14.22" rx="1.598" ry="1.199" style="fill:#e01b24;fill-opacity:1;fill-rule:evenodd;stroke:none;stroke-width:.199769;stroke-linecap:square;stroke-miterlimit:4;stroke-dasharray:none;stroke-opacity:1;paint-order:stroke fill markers"/>
<ellipse cx="12.13" cy="14.22" rx="1.308" ry=".981" style="display:inline;fill:url(#e);fill-opacity:1;fill-rule:evenodd;stroke-width:1.75729;stroke-linecap:square;paint-order:stroke fill markers"/>
<ellipse cx="12.13" cy="14.22" rx="1.017" ry=".763" style="fill:#3d3846;fill-opacity:1;fill-rule:evenodd;stroke:none;stroke-width:1.36678;stroke-linecap:square;paint-order:stroke fill markers"/>
<ellipse cx="12.13" cy="10.513" rx="1.598" ry="1.199" style="fill:#1c71d8;fill-opacity:1;fill-rule:evenodd;stroke:none;stroke-width:.199769;stroke-linecap:square;stroke-miterlimit:4;stroke-dasharray:none;stroke-opacity:1;paint-order:stroke fill markers"/>
<ellipse cx="12.13" cy="10.513" rx="1.308" ry=".981" style="display:inline;fill:url(#f);fill-opacity:1;fill-rule:evenodd;stroke-width:1.75729;stroke-linecap:square;paint-order:stroke fill markers"/>
<path fill="none" d="M6.647 13.088v-1.547" style="fill:#000;fill-opacity:0;stroke:#999;stroke-width:.43586;stroke-linecap:butt;stroke-linejoin:miter;stroke-miterlimit:4;stroke-dasharray:none;stroke-opacity:1"/>
<ellipse cx="6.647" cy="10.513" rx="1.598" ry="1.199" style="display:inline;fill:#1c71d8;fill-opacity:1;fill-rule:evenodd;stroke:none;stroke-width:.199769;stroke-linecap:square;stroke-miterlimit:4;stroke-dasharray:none;stroke-opacity:1;paint-order:stroke fill markers"/>
<ellipse cx="6.647" cy="10.513" rx="1.308" ry=".981" style="display:inline;fill:url(#g);fill-opacity:1;fill-rule:evenodd;stroke-width:1.75729;stroke-linecap:square;paint-order:stroke fill markers"/>
<ellipse cx="12.13" cy="10.513" rx="1.017" ry=".763" style="fill:#3d3846;fill-opacity:1;fill-rule:evenodd;stroke:none;stroke-width:1.36678;stroke-linecap:square;paint-order:stroke fill markers"/>
<path d="M17.612 11.54v1.543" style="fill:none;stroke:#999;stroke-width:.43586;stroke-linecap:butt;stroke-linejoin:miter;stroke-miterlimit:4;stroke-dasharray:none;stroke-opacity:1"/>
<g style="display:inline" transform="translate(13.415 -29.182)scale(.15981)">
<ellipse cx="26.263" cy="248.382" rx="10" ry="7.5" style="fill:#1c71d8;fill-opacity:1;fill-rule:evenodd;stroke:none;stroke-width:1.25;stroke-linecap:square;stroke-miterlimit:4;stroke-dasharray:none;stroke-opacity:1;paint-order:stroke fill markers"/>
<ellipse cx="26.263" cy="248.382" rx="8.182" ry="6.136" style="display:inline;fill:url(#h);fill-opacity:1;fill-rule:evenodd;stroke-width:10.9958;stroke-linecap:square;paint-order:stroke fill markers"/>
<ellipse cx="26.263" cy="248.382" rx="6.364" ry="4.773" style="fill:#3d3846;fill-opacity:1;fill-rule:evenodd;stroke:none;stroke-width:8.55223;stroke-linecap:square;paint-order:stroke fill markers"/>
</g>
<g style="display:inline" transform="translate(13.415 -25.475)scale(.15981)">
<ellipse cx="26.263" cy="248.382" rx="10" ry="7.5" style="fill:#e01b24;fill-opacity:1;fill-rule:evenodd;stroke:none;stroke-width:1.25;stroke-linecap:square;stroke-miterlimit:4;stroke-dasharray:none;stroke-opacity:1;paint-order:stroke fill markers"/>
<ellipse cx="26.263" cy="248.382" rx="8.182" ry="6.136" style="display:inline;fill:url(#i);fill-opacity:1;fill-rule:evenodd;stroke-width:10.9958;stroke-linecap:square;paint-order:stroke fill markers"/>
<ellipse cx="26.263" cy="248.382" rx="6.364" ry="4.773" style="fill:#3d3846;fill-opacity:1;fill-rule:evenodd;stroke:none;stroke-width:8.55223;stroke-linecap:square;paint-order:stroke fill markers"/>
</g>
<path d="M5.448 7.515v2.998a1.2.9 0 0 0 1.2.9 1.2.9 0 0 0 1.198-.899v-3c-.19.378-.667.892-1.199.892s-1.008-.514-1.199-.891" style="display:inline;fill:url(#j);fill-opacity:1;fill-rule:evenodd;stroke:none;stroke-width:.149912;stroke-linecap:square;stroke-miterlimit:4;stroke-dasharray:none;stroke-opacity:1;paint-order:stroke fill markers"/>
<g transform="translate(2.45 -25.475)scale(.15981)">
<ellipse cx="26.263" cy="248.382" rx="10" ry="7.5" style="fill:#e01b24;fill-opacity:1;fill-rule:evenodd;stroke:none;stroke-width:1.25;stroke-linecap:square;stroke-miterlimit:4;stroke-dasharray:none;stroke-opacity:1;paint-order:stroke fill markers"/>
<ellipse cx="26.263" cy="248.382" rx="8.182" ry="6.136" style="display:inline;fill:url(#k);fill-opacity:1;fill-rule:evenodd;stroke-width:10.9958;stroke-linecap:square;paint-order:stroke fill markers"/>
<ellipse cx="26.263" cy="248.382" rx="6.364" ry="4.773" style="fill:#3d3846;fill-opacity:1;fill-rule:evenodd;stroke:none;stroke-width:8.55223;stroke-linecap:square;paint-order:stroke fill markers"/>
</g>
<ellipse cx="6.647" cy="7.515" rx="1.199" ry=".891" style="display:inline;fill:#c0bfbc;fill-opacity:1;fill-rule:evenodd;stroke:none;stroke-width:.149196;stroke-linecap:square;stroke-miterlimit:4;stroke-dasharray:none;stroke-opacity:1;paint-order:stroke fill markers"/>
<ellipse cx="6.647" cy="7.515" rx=".685" ry=".514" style="display:inline;fill:#1a5fb4;fill-opacity:1;fill-rule:evenodd;stroke:none;stroke-width:.0453305;stroke-linecap:square;stroke-miterlimit:4;stroke-dasharray:none;stroke-opacity:1;paint-order:normal"/>
<path d="M6.647 7.515c0-1.028.17-3.14-1.494-3.174-1.334-.028-1.87-.504-1.87-.504" style="display:inline;fill:none;fill-opacity:1;stroke:#1a5fb4;stroke-width:1.37064;stroke-linecap:butt;stroke-linejoin:miter;stroke-miterlimit:4;stroke-dasharray:none;stroke-opacity:1;paint-order:normal"/>
</svg>
