<svg xmlns="http://www.w3.org/2000/svg" width="24" height="24">
<defs>
<radialGradient id="a" cx="0" cy="0" r="1" gradientTransform="matrix(0 11 -11 0 12 1)" gradientUnits="userSpaceOnUse">
<stop stop-color="#777"/>
<stop offset="1" stop-color="#444"/>
</radialGradient>
</defs>
<path fill="url(#a)" fill-rule="evenodd" d="M9.596 1.114q.18.001.344-.046a32 32 0 0 1 4.307.011q1.951.153 3.78.848 3.038 1.25 4.158 4.339.64 1.86.756 3.824a28 28 0 0 1-.115 4.923 11.9 11.9 0 0 1-.893 3.32q-1.276 2.764-4.135 3.813a15.6 15.6 0 0 1-4.766.825 21.4 21.4 0 0 1-5.452-.412q-4.967-1.107-6.128-6.057a19 19 0 0 1-.447-4.511 18.5 18.5 0 0 1 .515-4.786q1.217-4.629 5.877-5.736a14 14 0 0 1 2.199-.355" clip-rule="evenodd" style="fill:url(#a)"/>
<g transform="translate(.066 1.83)scale(1.08333)">
<g stroke-width="3.78">
<path fill="#fff" d="M2.003 45.998V10.001a.995.995 0 0 1 .998-1.002h58.002a1 1 0 0 1 .998 1.002v36.001H2.004Z" style="paint-order:markers stroke fill" transform="matrix(.25 0 0 .25 3.016 1.388)"/>
<path fill="#666" d="M3.001 56a1 1 0 0 1-1.002-1.002v-8.997H62v8.997A1 1 0 0 1 61.003 56Z" style="paint-order:stroke markers fill" transform="matrix(.25 0 0 .25 3.016 1.388)"/>
<path d="M2.003 45.996V9.001a.995.995 0 0 1 .998-1.002h58.002c.553 0 1 .45.998 1.002v36.998h-.998V9.957a.96.96 0 0 0-.968-.956H3.968a.96.96 0 0 0-.967.956v36.042H1.999Z" opacity=".1" style="paint-order:markers stroke fill" transform="matrix(.25 0 0 .25 3.016 1.388)"/>
<path d="M62.001 42.294a36.3 36.3 0 0 1-12.828 12.707h11.83a1 1 0 0 0 .998-1.002z" opacity=".05" style="paint-order:markers stroke fill" transform="matrix(.25 0 0 .25 3.016 1.388)"/>
</g>
<path d="M5.516 13.388a.75.75 0 0 0-.75.75.75.75 0 0 0 .75.75.75.75 0 0 0 .75-.75.75.75 0 0 0-.75-.75m0 .25a.5.5 0 0 1 .5.5.5.5 0 0 1-.5.5.5.5 0 0 1-.5-.5.5.5 0 0 1 .5-.5" opacity=".35" style="stroke-width:.249995;paint-order:fill markers stroke"/>
<rect width="4" height="1" x="13.016" y="13.638" opacity=".35" rx=".25" ry=".25" style="stroke-width:.249995;paint-order:fill markers stroke"/>
<rect width="1" height="1" x="7.516" y="13.638" opacity=".35" rx=".25" ry=".25" style="stroke-width:.249995;paint-order:fill markers stroke"/>
<rect width="1" height="1" x="9.016" y="13.638" opacity=".35" rx=".25" ry=".25" style="stroke-width:.249995;paint-order:fill markers stroke"/>
<rect width="1" height="1" x="10.516" y="13.638" opacity=".35" rx=".25" ry=".25" style="stroke-width:.249995;paint-order:fill markers stroke"/>
<path fill="#ccc" d="M11.017 5.013a3.25 3.25 0 0 0-3.25 3.25 3.25 3.25 0 0 0 3.25 3.25 3.25 3.25 0 0 0 3.25-3.25 3.25 3.25 0 0 0-3.25-3.25m0 1.316a1.933 1.933 0 0 1 1.933 1.934 1.933 1.933 0 0 1-1.933 1.932 1.933 1.933 0 0 1-1.933-1.932 1.933 1.933 0 0 1 1.933-1.934" opacity=".15" style="stroke-width:.249995;paint-order:stroke markers fill"/>
<g fill="#ccc" style="paint-order:stroke markers fill">
<path d="M11.017 5.513a2.75 2.75 0 0 0-2.75 2.75 2.75 2.75 0 0 0 2.75 2.75 2.75 2.75 0 0 0 2.75-2.75 2.75 2.75 0 0 0-2.75-2.749Zm0 1.25a1.5 1.5 0 0 1 1.5 1.5 1.5 1.5 0 0 1-1.5 1.5 1.5 1.5 0 0 1-1.5-1.5 1.5 1.5 0 0 1 1.5-1.5"/>
<path d="M10.517 4.389h1v1.75h-1zm0 6h1v1.75h-1zm4.375-2.625v1h-1.75v-1zm-6 0v1h-1.75v-1zm5.217 2.887-.705.707-1.238-1.238.707-.707zM9.867 6.408l-.706.707-1.238-1.238.707-.707zm-1.237 4.95-.707-.707 1.238-1.238.707.707zm4.242-4.243-.706-.707 1.237-1.238.707.707z"/>
</g>
</g>
</svg>
