<svg xmlns="http://www.w3.org/2000/svg" width="24" height="24" viewBox="0 0 6.35 6.35">
<defs>
<radialGradient id="a" cx="0" cy="0" r="1" gradientTransform="rotate(90 1.455 1.72)scale(5.82072)" gradientUnits="userSpaceOnUse">
<stop stop-color="#78BDFF"/>
<stop offset="1" stop-color="#1A5084" style="stop-color:#476acc;stop-opacity:1"/>
</radialGradient>
</defs>
<path fill="url(#a)" fill-rule="evenodd" d="M2.539.295a.3.3 0 0 0 .09-.012 8 8 0 0 1 1.14.003 3.5 3.5 0 0 1 1 .224q.804.33 1.1 1.148.17.492.2 1.012a7.3 7.3 0 0 1-.03 1.302 3.1 3.1 0 0 1-.236.879 1.87 1.87 0 0 1-1.094 1.008q-.614.208-1.26.219a5.7 5.7 0 0 1-1.444-.11Q.693 5.676.385 4.366a5 5 0 0 1-.12-1.194 5 5 0 0 1 .137-1.266Q.724.682 1.957.39q.287-.071.582-.094Z" clip-rule="evenodd" style="fill:url(#a);stroke-width:.24253"/>
<path fill="#fff" d="M3.175 2.117c-1.323 0-1.72.398-1.72 2.05 0 .265.926-.33 1.19-.727h1.059c.265.397 1.19.989 1.19.728 0-1.654-.396-2.051-1.719-2.051m.794.397a.13.13 0 0 1 .132.132.13.13 0 0 1-.132.132.13.13 0 0 1-.133-.132.13.13 0 0 1 .133-.132m-1.588 0h.133v.265h.264v.133h-.264v.264H2.38v-.264h-.264V2.78h.264zm1.323.264a.13.13 0 0 1 .132.132.13.13 0 0 1-.132.132.13.13 0 0 1-.132-.132.13.13 0 0 1 .132-.132m.53 0a.13.13 0 0 1 .131.132.13.13 0 0 1-.132.132.13.13 0 0 1-.132-.132.13.13 0 0 1 .132-.132zm-.265.264a.13.13 0 0 1 .132.133.13.13 0 0 1-.132.132.13.13 0 0 1-.133-.132.13.13 0 0 1 .133-.133" style="stroke-width:1"/>
</svg>
