<svg xmlns="http://www.w3.org/2000/svg" xmlns:xlink="http://www.w3.org/1999/xlink" xml:space="preserve" width="24" height="24" fill="none">
<defs>
<linearGradient id="a">
<stop offset="0" style="stop-color:#aa87de;stop-opacity:1"/>
<stop offset="1" style="stop-color:#baadcc;stop-opacity:1"/>
</linearGradient>
<linearGradient xlink:href="#a" id="b" x1="51.406" x2="50.895" y1="95.895" y2="-1.52" gradientTransform="translate(-.222 -.222)scale(.24444)" gradientUnits="userSpaceOnUse"/>
</defs>
<path d="M12 1C2 1 1 6 1 12c0 8 3 11 11 11s11-3 11-11c0-6-1-11-11-11" style="font-variation-settings:normal;display:inline;opacity:1;vector-effect:none;fill:url(#b);fill-opacity:1;stroke-width:1.11627;stroke-linecap:butt;stroke-linejoin:miter;stroke-miterlimit:4;stroke-dasharray:none;stroke-dashoffset:0;stroke-opacity:1;-inkscape-stroke:none;stop-color:#000;stop-opacity:1"/>
<path fill="#714f79" d="M17.383 6.92c-1.44-1.172-3.352-1.818-5.384-1.818-2.031 0-3.942.646-5.382 1.817-1.454 1.184-2.252 2.758-2.252 4.436 0 1.602.729 3.11 2.057 4.272a1 1 0 0 0-.054.17l-.437 2.148c-.053.255.018.406.085.49.078.096.195.15.326.15a.7.7 0 0 0 .32-.09l2.54-1.318a9.1 9.1 0 0 0 2.797.43c2.032 0 3.944-.645 5.384-1.817 1.453-1.182 2.252-2.757 2.252-4.435s-.8-3.253-2.252-4.436"/>
<path fill="#f4f0f4" d="M13.02 12.547c.72-.638 1.676-.989 2.691-.989 1.016 0 1.972.352 2.692.989.726.643 1.126 1.501 1.126 2.415 0 .872-.364 1.693-1.03 2.325a.5.5 0 0 1 .029.093l.218 1.17c.026.138-.009.221-.043.266a.2.2 0 0 1-.162.081.33.33 0 0 1-.16-.048l-1.27-.718c-.44.154-.913.235-1.4.235-1.015 0-1.97-.352-2.69-.99-.728-.643-1.127-1.5-1.127-2.415 0-.913.4-1.77 1.126-2.414"/>
<g fill="#f95" stroke-width=".889" transform="translate(-116.67 -166.571)scale(.3328)">
<circle cx="393.04" cy="545.5" r="2.084" opacity=".837"/>
<circle cx="397.79" cy="545.5" r="2.084" opacity=".837"/>
<circle cx="402.78" cy="545.5" r="2.084" opacity=".837"/>
</g>
<path fill="#f9f9f9" d="M12.797 9.326c-.23.677-.014 1.38.482 1.568.496.19 1.085-.206 1.314-.883.23-.676.013-1.378-.483-1.567s-1.083.206-1.314.882"/>
<path d="M14.63 9.873a1 1 0 0 1-.038.138c-.23.677-.817 1.072-1.313.884-.496-.19-.713-.891-.483-1.569q.024-.07.054-.133c-.16.63.059 1.252.52 1.428.464.176 1.003-.157 1.26-.75"/>
<path fill="#754d78" d="M13.021 9.62a.568.568 0 0 0 .633.766.57.57 0 0 0 .432-.385.566.566 0 1 0-1.065-.382"/>
<path fill="#2d2d2d" d="M13.286 9.714a.283.283 0 1 0 .534.192.284.284 0 1 0-.533-.193"/>
<path fill="#f9f9f9" d="M13.301 9.823a.141.141 0 1 0 .266.096.14.14 0 0 0-.021-.143.14.14 0 0 0-.138-.048.14.14 0 0 0-.107.096m-5.015-.47c-.226.52-.079 1.079.33 1.254.408.174.925-.105 1.152-.623s.079-1.079-.33-1.253-.925.105-1.154.623"/>
<path d="M9.866 9.342c.029.2 0 .428-.097.645-.228.518-.748.792-1.158.619-.313-.134-.469-.498-.423-.894.039.278.185.509.423.61.41.176.93-.1 1.158-.618q.078-.182.096-.362"/>
<path fill="#754d78" d="M8.605 9.527a.43.43 0 0 0 .206.382.423.423 0 0 0 .642-.382.424.424 0 1 0-.848 0"/>
<path fill="#2d2d2d" d="M8.817 9.527a.212.212 0 1 0 .423 0 .212.212 0 1 0-.423 0"/>
<path fill="#f9f9f9" d="M8.854 9.6a.1.1 0 0 0 .051.096.11.11 0 0 0 .11 0 .1.1 0 0 0 .05-.096.1.1 0 0 0-.05-.095.11.11 0 0 0-.11 0 .1.1 0 0 0-.051.096"/>
<path fill="#de6e00" d="M10.103 12.412c.268.992.469 1.357 1.187 1.357.764 0 1.118-.415 1.186-1.357-.852-.248-1.505-.256-2.373 0"/>
<path fill="#ffc894" d="M12.705 12.351s-.032-.465-.585-.965c-.551-.5-.78-.45-.876-.437-.006.572.038 2.225.047 2.82.455-.236.917-1.167 1.414-1.417"/>
<path fill="#eb953e" d="M11.24 10.94c-.13.005-.364.07-.777.445-.552.501-.585.966-.585.966.462.232.959 1.181 1.414 1.416.013-.6.013-2.223.013-2.821q-.027-.006-.064-.007"/>
</svg>
