<svg xmlns="http://www.w3.org/2000/svg" xml:space="preserve" width="24" height="24" fill="none">
<path fill="url(#a)" fill-rule="evenodd" d="M9.596 1.114q.18.001.344-.046a32 32 0 0 1 4.307.011q1.951.153 3.78.848 3.038 1.25 4.158 4.339.64 1.86.756 3.824a28 28 0 0 1-.114 4.923 11.9 11.9 0 0 1-.894 3.32q-1.276 2.764-4.135 3.813a15.6 15.6 0 0 1-4.765.825 21.4 21.4 0 0 1-5.453-.413q-4.967-1.106-6.128-6.056a19 19 0 0 1-.447-4.511 18.5 18.5 0 0 1 .515-4.786q1.217-4.629 5.877-5.736a14 14 0 0 1 2.199-.355" clip-rule="evenodd"/>
<defs>
<linearGradient id="a" x1="12" x2="12" y1="1" y2="12" gradientUnits="userSpaceOnUse">
<stop stop-color="#FAFAFA"/>
<stop offset="1" stop-color="silver"/>
</linearGradient>
</defs>
<path d="M5.775 6.004a1.14 1.14 0 0 0-.61.127c-.653.328-.761 1.274-.2 1.746l.15.127v7.959l-.153.145c-.65.617-.388 1.641.475 1.858 1.052.263 1.727-1.053.936-1.825l-.268-.261v-2.058l1.152-.665a529 529 0 0 1 1.893-1.09l.743-.426.013-1.633.013-1.632-.447-.46-.448-.46.031-.231c.111-.839-.795-1.492-1.539-1.109-.994.513-.658 1.982.462 2.019.253.008.275.02.581.324l.319.316v2.258l-.21.125a132 132 0 0 1-2.54 1.457c-.012 0-.023-1.016-.023-2.257V8.1l.268-.256a1.055 1.055 0 0 0-.598-1.841Zm5.539.002c-.194 0-.397.058-.595.192-.637.431-.607 1.45.053 1.793l.136.071v5.842l.16-.083c.09-.046.849-.48 1.689-.967.84-.486 1.536-.883 1.547-.883s.02.4.02.891c0 .49.016.891.037.89.02 0 1.028-.565 2.24-1.255l2.203-1.255.013-1.59.013-1.589.241-.24c.773-.773.082-2.017-.992-1.787-.875.188-1.119 1.41-.38 1.905l.14.094v2.58l-1.225.698-1.226.697-.013-2.002-.013-2.003.152-.127c.746-.629.286-1.864-.695-1.864-.982 0-1.436 1.11-.739 1.807l.244.243v2.709l-.26.15c-.143.08-.672.384-1.176.673l-.916.525-.013-2.086-.013-2.087.132-.13c.734-.726.075-1.813-.764-1.812m-5.682.618a.437.437 0 0 1 .437.437.437.437 0 0 1-.437.437.437.437 0 0 1-.437-.437.437.437 0 0 1 .437-.437m2.338 0a.437.437 0 0 1 .437.437.437.437 0 0 1-.437.437.437.437 0 0 1-.437-.437.437.437 0 0 1 .437-.437m3.313 0a.437.437 0 0 1 .437.437.437.437 0 0 1-.437.437.437.437 0 0 1-.437-.437.437.437 0 0 1 .437-.437m3.512 0a.437.437 0 0 1 .437.437.437.437 0 0 1-.437.437.437.437 0 0 1-.438-.437.437.437 0 0 1 .438-.437m3.507 0a.437.437 0 0 1 .437.437.437.437 0 0 1-.437.437.437.437 0 0 1-.437-.437.437.437 0 0 1 .437-.437M5.638 16.472a.437.437 0 0 1 .437.437.437.437 0 0 1-.437.437.437.437 0 0 1-.437-.437.437.437 0 0 1 .437-.437" style="fill:#000;stroke-width:.0495083"/>
</svg>
