<svg xmlns="http://www.w3.org/2000/svg" xmlns:xlink="http://www.w3.org/1999/xlink" xml:space="preserve" width="24" height="24" fill="none">
<defs>
<linearGradient id="a">
<stop offset="0" style="stop-color:#a14dc8;stop-opacity:1"/>
<stop offset="1" style="stop-color:#db93f1;stop-opacity:1"/>
</linearGradient>
<linearGradient xlink:href="#a" id="b" x1="51.534" x2="50.256" y1="92.699" y2="12.926" gradientTransform="translate(-.222 -.222)scale(.24444)" gradientUnits="userSpaceOnUse"/>
</defs>
<path d="M12 1C2 1 1 6 1 12c0 8 3 11 11 11s11-3 11-11c0-6-1-11-11-11" style="font-variation-settings:normal;display:inline;opacity:1;vector-effect:none;fill:url(#b);fill-opacity:1;stroke-width:1.11627;stroke-linecap:butt;stroke-linejoin:miter;stroke-miterlimit:4;stroke-dasharray:none;stroke-dashoffset:0;stroke-opacity:1;-inkscape-stroke:none;stop-color:#000;stop-opacity:1"/>
<path fill="#fff" d="M12.012 4.954a5.3 5.3 0 0 0-5.295 5.308v6.613a.952.952 0 0 1 .605 1.79 1.65 1.65 0 0 0 1.058.38 1.665 1.665 0 0 0 1.661-1.666V10.26a1.973 1.973 0 0 1 1.971-1.975h.049a1.887 1.887 0 0 1 1.899 1.895v-.046.094h-.001v-.048c-.046 1.073-.944 1.962-1.923 1.962-.918 0-1.662.746-1.662 1.666s.744 1.665 1.662 1.665c2.79 0 5.14-2.331 5.246-5.18V10.2a5.214 5.214 0 0 0-5.222-5.247Zm.035 7.808a1.048 1.048 0 0 1 0 2.095 1.048 1.048 0 0 1 0-2.095" style="stroke-width:.423139"/>
</svg>
