<svg xmlns="http://www.w3.org/2000/svg" width="24" height="24" viewBox="0 0 6.35 6.35">
<defs>
<radialGradient id="a" cx="0" cy="0" r="1" fx="0" fy="0" gradientTransform="matrix(0 16.5 -16.5 0 9 .75)" gradientUnits="userSpaceOnUse" spreadMethod="pad">
<stop offset="0" style="stop-opacity:1;stop-color:#f9dc6e"/>
<stop offset="1" style="stop-opacity:1;stop-color:#efac01"/>
</radialGradient>
</defs>
<path d="M7.453.801a1 1 0 0 1-.258.035 10 10 0 0 0-1.648.266q-3.492.831-4.406 4.3a14 14 0 0 0-.387 3.59q-.034 1.712.336 3.383c.578 2.477 2.113 3.992 4.594 4.543 1.351.277 2.714.383 4.089.309a11.7 11.7 0 0 0 3.575-.618q2.145-.784 3.101-2.859a9 9 0 0 0 .672-2.488q.204-1.845.086-3.696-.09-1.471-.566-2.867-.843-2.315-3.121-3.254a10.3 10.3 0 0 0-2.836-.636A24 24 0 0 0 7.453.801" style="fill:url(#a);fill-rule:evenodd;stroke:none" transform="scale(.35277)"/>
<path fill="#f9f9f9" d="M3.378 1.588a.199.199 0 1 0 0 .396.199.199 0 0 0 0-.396m.66 0a.199.199 0 1 0 0 .396.199.199 0 0 0 0-.396m.53.264a.199.199 0 1 0 0 .397.199.199 0 0 0 0-.397m-1.738.02c-.152.01-.384.105-.59.276-.528.439-.997 1.315-.288 2.067.684.724 1.681.58 2.019.405a.775.775 0 0 0 .416-.823c-.115-.414-.43-.53-.631-.506-.242.028-.711.181-.988-.19-.234-.315-.023-.77.214-.93.096-.066.094-.208-.03-.278a.2.2 0 0 0-.123-.02Z" style="stroke-width:1"/>
</svg>
