<svg xmlns="http://www.w3.org/2000/svg" xml:space="preserve" width="24" height="24" viewBox="0 0 6.35 6.35">
<defs>
<radialGradient id="a" cx="0" cy="0" r="1" fx="0" fy="0" gradientTransform="matrix(0 16.5 -16.5 0 9 .75)" gradientUnits="userSpaceOnUse" spreadMethod="pad">
<stop offset="0" style="stop-color:#fff;stop-opacity:1"/>
<stop offset="1" style="stop-color:#3c8dd4;stop-opacity:1"/>
</radialGradient>
</defs>
<path d="M7.195.836q.135 0 .258-.035a24 24 0 0 1 3.231.008 10.3 10.3 0 0 1 2.836.636q2.278.938 3.121 3.254.476 1.396.566 2.867a21 21 0 0 1-.086 3.696 9 9 0 0 1-.672 2.488q-.957 2.074-3.101 2.859a11.7 11.7 0 0 1-3.575.618 16 16 0 0 1-4.089-.309c-2.481-.551-4.016-2.066-4.594-4.543a14.2 14.2 0 0 1-.336-3.383q-.041-1.818.387-3.59.914-3.468 4.406-4.3A10 10 0 0 1 7.195.836" style="fill:url(#a);fill-rule:evenodd;stroke:none;stroke-width:.99975004;stroke-dasharray:none" transform="translate(.022 -.08)scale(.35277)"/>
<path d="M4.123 2.969A1.248 1.242 11.425 0 0 2.69 3.983a1.248 1.242 11.425 0 0 1.02 1.43 1.248 1.243 11.557 0 0 .733-.097l.324.456q.217-.083.405-.214L4.81 5.05c.17-.174.296-.394.34-.65a1.25 1.25 0 0 0-1.028-1.43Zm-.075.444a.788.785 11.557 0 1 .648.91.788.785 11.557 0 1-.911.646.787.787 0 0 1-.65-.91.786.786 0 0 1 .913-.646" style="fill:#e4eef6;fill-opacity:1;stroke-width:.373298"/>
<path d="M4.348.287 4.32 1.334c-.014.547.437 1 1.011 1.016l.747.02a4 4 0 0 0-.151-.734A1.9 1.9 0 0 0 4.857.453a3.6 3.6 0 0 0-.51-.166Z" style="opacity:.727273;mix-blend-mode:normal;fill:#f8f9f9;fill-opacity:1;stroke-width:.637963;paint-order:stroke fill markers"/>
</svg>
