<svg xmlns="http://www.w3.org/2000/svg" xml:space="preserve" width="24" height="24" viewBox="0 0 6.35 6.35">
<g style="stroke-width:.759852">
<g fill="#fff" style="fill:none;stroke-width:.759852">
<path d="M-21.902 6.835a7.98 7.98 0 0 0-8-8 7.98 7.98 0 0 0-8 8 7.98 7.98 0 0 0 8 8 7.98 7.98 0 0 0 8-8m-5.074 0a2.913 2.913 0 0 1-2.926 2.928 2.913 2.913 0 0 1-2.93-2.928c0-1.61 1.188-2.926 2.928-2.926s2.928 1.348 2.928 2.926" opacity=".75" style="stroke-width:.759852" transform="translate(13.01 1.01)scale(.32014)"/>
<path d="M-29.903 2.833a4.002 4.002 0 1 0 .002 8.004 4.002 4.002 0 0 0-.002-8.004m0 2a2.002 2.002 0 1 1 .001 4.004 2.002 2.002 0 0 1-.003-4.004z" opacity=".35" style="stroke-width:.759852" transform="translate(13.01 1.01)scale(.32014)"/>
</g>
</g>
<path d="M3.116.265a8 8 0 0 0-.487.018.3.3 0 0 1-.09.012 3.6 3.6 0 0 0-.582.094Q.725.682.403 1.906q-.136.558-.138 1.129v.049l.001.088q-.012.604.119 1.194.306 1.31 1.62 1.602.715.147 1.443.11.65-.011 1.26-.219.627-.23.965-.768V3.71a.56.56 0 0 1-.245-.208.56.56 0 0 1 0-.617.55.55 0 0 1 .245-.207V1.254A1.9 1.9 0 0 0 4.77.51a3.6 3.6 0 0 0-1-.225 8 8 0 0 0-.53-.02Z" style="fill:#62a3f2;fill-opacity:.99215686;fill-rule:evenodd;stroke:none;stroke-width:.352771"/>
<g style="opacity:.35;stroke-width:.759852">
<g style="stroke-width:.759852">
<g fill="#fff" style="fill:none;stroke-width:.759852">
<path d="M-21.902 6.835a7.98 7.98 0 0 0-8-8 7.98 7.98 0 0 0-8 8 7.98 7.98 0 0 0 8 8 7.98 7.98 0 0 0 8-8m-5.074 0a2.913 2.913 0 0 1-2.926 2.928 2.913 2.913 0 0 1-2.93-2.928c0-1.61 1.188-2.926 2.928-2.926s2.928 1.348 2.928 2.926" opacity=".75" style="stroke-width:.759852" transform="translate(13.01 1.01)scale(.32014)"/>
<path d="M-29.903 2.833a4.002 4.002 0 1 0 .002 8.004 4.002 4.002 0 0 0-.002-8.004m0 2a2.002 2.002 0 1 1 .001 4.004 2.002 2.002 0 0 1-.003-4.004z" opacity=".35" style="stroke-width:.759852" transform="translate(13.01 1.01)scale(.32014)"/>
</g>
</g>
</g>
<g fill="#fff" style="stroke-width:.807099">
<g style="stroke-width:.807099">
<path d="M49 14a7.98 7.98 0 0 0-8-8 7.98 7.98 0 0 0-8 8 7.98 7.98 0 0 0 8 8 7.98 7.98 0 0 0 8-8m-5.074 0A2.913 2.913 0 0 1 41 16.928 2.913 2.913 0 0 1 38.07 14c0-1.61 1.188-2.926 2.928-2.926s2.928 1.348 2.928 2.926" opacity=".75" style="stroke-width:.807099" transform="translate(-9.978 -1.422)scale(.32782)"/>
<path d="M41 9.998a4.003 4.003 0 1 0 0 8.005 4.003 4.003 0 0 0 0-8.005m0 2a2.002 2.002 0 1 1 0 4.004 2.002 2.002 0 0 1-.003-4.004z" opacity=".35" style="stroke-width:.807099" transform="translate(-9.978 -1.422)scale(.32782)"/>
</g>
<g style="fill:none;stroke-width:.807099">
<path d="M19.355 12A7.336 7.336 0 0 0 12 4.645 7.337 7.337 0 0 0 4.645 12 7.337 7.337 0 0 0 12 19.355 7.337 7.337 0 0 0 19.355 12m-4.665 0A2.68 2.68 0 0 1 12 14.692 2.68 2.68 0 0 1 9.307 12c0-1.48 1.091-2.69 2.692-2.69 1.6 0 2.691 1.24 2.691 2.69" opacity=".75" style="stroke-width:.807099" transform="translate(-.471 -.767)scale(.32782)"/>
<path d="M12 8.32a3.68 3.68 0 1 0 0 7.36 3.68 3.68 0 0 0 0-7.36m0 1.84a1.841 1.841 0 1 1 0 3.681 1.841 1.841 0 0 1-.002-3.682z" opacity=".35" style="stroke-width:.807099" transform="translate(-.471 -.767)scale(.32782)"/>
</g>
</g>
<path d="M3.116.265a8 8 0 0 0-.487.018.3.3 0 0 1-.09.012 3.6 3.6 0 0 0-.582.094Q.725.682.403 1.906q-.136.558-.138 1.129v.049l.001.088q-.012.604.119 1.194.306 1.31 1.62 1.602.715.147 1.443.11.65-.011 1.26-.219.627-.23.965-.768V3.71a.56.56 0 0 1-.245-.208.56.56 0 0 1 0-.617.55.55 0 0 1 .245-.207V1.254A1.9 1.9 0 0 0 4.77.51a3.6 3.6 0 0 0-1-.225 8 8 0 0 0-.53-.02Z" style="fill:#62a3f2;fill-opacity:.99215686;fill-rule:evenodd;stroke:none;stroke-width:.352771;opacity:.5"/>
<path fill-opacity=".875" fill-rule="evenodd" d="m3.42 1.77.782-.145a.173.173 0 0 1 .204.17v.515a.174.174 0 0 1-.14.17l-.677.127c-.079.015-.093.029-.093.11V4.19c0 .473-.392.652-.652.652-.296 0-.509-.177-.509-.428 0-.247.167-.416.525-.484l.279-.054c.071-.013.108-.062.108-.136l-.01-1.791c0-.097.065-.155.184-.18z" clip-rule="evenodd" opacity=".125" style="fill:#fff;stroke-width:.30425"/>
<path d="m3.536 1.667.782-.146c.106-.02.204.06.204.17v.515c0 .082-.06.154-.14.169l-.677.127c-.08.015-.093.029-.093.11v1.475c0 .472-.393.651-.653.651-.296 0-.509-.178-.509-.428 0-.247.167-.416.526-.484l.278-.054c.072-.013.109-.062.109-.136l-.011-1.792c0-.096.065-.154.184-.177" style="fill:#fff;fill-opacity:1;fill-rule:evenodd;stroke:none;stroke-width:.35277"/>
</svg>
