<svg xmlns="http://www.w3.org/2000/svg" width="24" height="24" fill="none">
<path d="M50 5C9.09 5 5 25.455 5 50c0 32.727 12.273 45 45 45s45-12.273 45-45c0-24.545-4.09-45-45-45" style="font-variation-settings:normal;display:inline;opacity:1;vector-effect:none;fill:#5d6875;fill-opacity:1;stroke-width:4.56656;stroke-linecap:butt;stroke-linejoin:miter;stroke-miterlimit:4;stroke-dasharray:none;stroke-dashoffset:0;stroke-opacity:1;-inkscape-stroke:none;stop-color:#000;stop-opacity:1" transform="translate(-1 -1)scale(.26)"/>
<g fill="#fff" paint-order="stroke markers fill" transform="translate(-9.921 -9.7)scale(.68504)">
<rect width="12" height="20" x="26" y="20" rx="6" ry="6"/>
<path d="M23.5 33.5a.5.5 0 0 0-.5.5l.006.062A9 9 0 0 0 32 43a9 9 0 0 0 8.996-8.95l.002-.036v-.016a.5.5 0 0 0-.5-.498.5.5 0 0 0-.498.498h-.002a8 8 0 0 1-7.998 8 8 8 0 0 1-7.996-8h-.006a.5.5 0 0 0-.498-.498"/>
</g>
</svg>
