<svg xmlns="http://www.w3.org/2000/svg" xml:space="preserve" width="24" height="24" viewBox="0 0 6.35 6.35">
<defs>
<clipPath id="b" clipPathUnits="userSpaceOnUse">
<path d="M0 0h19v19H0Z"/>
</clipPath>
<clipPath id="c" clipPathUnits="userSpaceOnUse">
<path d="M0 0h19v19H0Z"/>
</clipPath>
<clipPath id="d" clipPathUnits="userSpaceOnUse">
<path d="M0 0h19v19H0Z"/>
</clipPath>
<clipPath id="e" clipPathUnits="userSpaceOnUse">
<path d="M0 0h19v19H0Z"/>
</clipPath>
<radialGradient id="a" cx="0" cy="0" r="1" gradientTransform="rotate(90 1.455 1.72)scale(5.82072)" gradientUnits="userSpaceOnUse">
<stop stop-color="#FAFAFA"/>
<stop offset="1" stop-color="#B0B0B0"/>
</radialGradient>
</defs>
<path fill="url(#a)" fill-rule="evenodd" d="M2.63.283a.3.3 0 0 1-.091.012q-.295.023-.582.094Q.724.681.402 1.906q-.15.624-.136 1.266-.012.605.118 1.194.307 1.31 1.621 1.603.715.146 1.443.108.648-.01 1.26-.218a1.87 1.87 0 0 0 1.095-1.008q.182-.421.236-.879a7.3 7.3 0 0 0 .03-1.302 3.8 3.8 0 0 0-.2-1.012A1.89 1.89 0 0 0 4.77.51a3.6 3.6 0 0 0-1-.224A8 8 0 0 0 2.63.283" clip-rule="evenodd" style="fill:url(#a);stroke-width:.264578"/>
<path d="M7.984 4.125a4.266 4.266 0 0 0-4.265 4.266v4.265h4.265a4.266 4.266 0 1 0 0-8.531" clip-path="url(#b)" opacity=".6" style="fill:#fff;fill-opacity:1;fill-rule:nonzero;stroke:none" transform="scale(.35277)"/>
<path d="M7.984 4.125a4.266 4.266 0 0 0-4.265 4.266v4.265h4.265a4.266 4.266 0 1 0 0-8.531" clip-path="url(#c)" opacity=".8" style="fill:#f2f2f2;fill-opacity:1;fill-rule:nonzero;stroke:none" transform="scale(.35277)"/>
<path d="M20.269 1.935a1.504 1.504 0 0 1-1.103 2.53h-.336c.281.276.659.43 1.053.43h1.505V3.39c0-.682-.46-1.28-1.12-1.455z" style="fill:#69e17c;fill-opacity:1;fill-rule:nonzero;stroke:none;stroke-width:.352771" transform="translate(-16.35)"/>
<path d="M7.984 4.125a4.266 4.266 0 0 0-4.265 4.266v4.265h4.265a4.266 4.266 0 1 0 0-8.531" clip-path="url(#d)" opacity=".6" style="fill:#fff;fill-opacity:1;fill-rule:nonzero;stroke:none" transform="scale(.35277)"/>
<path d="M10.016 5.344a4.266 4.266 0 0 1 4.265 4.265v4.266h-4.265a4.266 4.266 0 0 1 0-8.531" clip-path="url(#e)" opacity=".6" style="fill:#69e17c;fill-opacity:1;fill-rule:nonzero;stroke:none" transform="scale(.35277)"/>
<path d="M19.382 3.175h1.146c.04 0 .072.032.072.072a.07.07 0 0 1-.072.071h-1.146a.07.07 0 0 1-.072-.071c0-.04.031-.072.072-.072m0 .43h.93c.041 0 .073.032.073.072a.07.07 0 0 1-.072.071h-.931a.07.07 0 0 1-.072-.071c0-.04.031-.072.072-.072" style="fill:#fff;fill-opacity:1;fill-rule:nonzero;stroke:none;stroke-width:.352771" transform="translate(-16.35)"/>
</svg>
