<svg xmlns="http://www.w3.org/2000/svg" xml:space="preserve" width="24" height="24">
<defs>
<radialGradient id="a" cx="0" cy="0" r="1" fx="0" fy="0" gradientTransform="matrix(0 22 -22 0 -22 1)" gradientUnits="userSpaceOnUse" spreadMethod="pad">
<stop offset="0" style="stop-opacity:1;stop-color:#63779c"/>
<stop offset="1" style="stop-opacity:1;stop-color:#3c4860"/>
</radialGradient>
</defs>
<path d="M-24.063 1.068q-.164.046-.344.047a14 14 0 0 0-2.197.354q-4.656 1.109-5.875 5.734a18.5 18.5 0 0 0-.516 4.786 19 19 0 0 0 .448 4.511c.77 3.303 2.817 5.323 6.125 6.057a21.3 21.3 0 0 0 5.452.412 15.6 15.6 0 0 0 4.767-.824q2.859-1.046 4.135-3.812.686-1.592.896-3.317.271-2.46.114-4.928a14.6 14.6 0 0 0-.754-3.823q-1.125-3.087-4.162-4.338a13.7 13.7 0 0 0-3.781-.848 32 32 0 0 0-4.308-.011" style="fill:url(#a);fill-rule:evenodd;stroke:none;stroke-width:1.33333" transform="translate(34)"/>
<path fill="#fa6968" d="M11.947 5.5A6.5 6.5 0 0 0 5.5 12a6.5 6.5 0 0 0 6.5 6.5 6.5 6.5 0 0 0 6.5-6.5A6.5 6.5 0 0 0 12 5.5zM12 8.237A3.763 3.763 0 0 1 15.763 12 3.763 3.763 0 0 1 12 15.763 3.763 3.763 0 0 1 8.237 12 3.763 3.763 0 0 1 12 8.237" style="stroke-width:1"/>
</svg>
