<svg xmlns="http://www.w3.org/2000/svg" width="24" height="24" fill="none">
<path d="M50 5C9.09 5 5 25.455 5 50c0 32.727 12.273 45 45 45s45-12.273 45-45c0-24.545-4.09-45-45-45" style="font-variation-settings:normal;display:inline;opacity:1;vector-effect:none;fill:#ef5b25;fill-opacity:1;stroke-width:4.56656;stroke-linecap:butt;stroke-linejoin:miter;stroke-miterlimit:4;stroke-dasharray:none;stroke-dashoffset:0;stroke-opacity:1;-inkscape-stroke:none;stop-color:#000;stop-opacity:1" transform="translate(-1 -1)scale(.26)"/>
<path fill="#fff" d="M17.198 5.087a1.74 1.74 0 0 1 1.172.389L16.817 7.02a.13.13 0 0 0 0 .166l1.206 1.2a1.75 1.75 0 0 1-2.024-.347l.007.014a1.754 1.754 0 0 1 .055-2.482 1.75 1.75 0 0 1 1.137-.485zm1.338.547a1.736 1.736 0 0 1-.056 2.42 2 2 0 0 1-.263.215L17.059 7.11Zm-.058.892a.12.12 0 0 0-.087.017c-.063.027-.098.103-.07.166 0 .007.006.007.006.014a.39.39 0 0 1-.047.43c-.049.047-.056.13-.008.18l.008.007a.2.2 0 0 0 .09 0 .13.13 0 0 0 .097-.049.64.64 0 0 0 .082-.72.1.1 0 0 0-.071-.045m-3.485 1.21c.248.02.443.137.639.297a.83.83 0 0 0-.569.243l-4.283 4.282-.915-.915c3.16-3.155 4.384-3.967 5.128-3.907m.653.562c.152 0 .305.057.423.171a.6.6 0 0 1-.028.867l-4.513 3.979-.575-.603 4.27-4.243a.6.6 0 0 1 .422-.171zm.665 1.073c-.145 1.29-1.961 3.119-3.826 4.9l-.804-.804 4.511-3.972a.7.7 0 0 0 .119-.125zm-6.613 2.412.853.874-1.934.414a.08.08 0 0 1-.09-.061.07.07 0 0 1 .02-.07l.021-.027zm1.095 1.13.478.443-1.06.27a.05.05 0 0 1-.062 0 .06.06 0 0 1 0-.069zm.68.658.838.838a23.4 23.4 0 0 1-4.907 3.148v.013h-.007a.224.224 0 0 0-.118.243l.194.831a.13.13 0 0 1-.055.14c-.042.034-.104.034-.139 0L6.101 17.57l3.618-3.625zm-5.56 4.173 1.18 1.17-2.025-.13c-.028-.008-.056-.029-.063-.05a.14.14 0 0 1 0-.076z" style="stroke-width:.427487"/>
</svg>
