<svg xmlns="http://www.w3.org/2000/svg" width="24" height="24">
<path d="M9.593 1.115q.18 0 .344-.047a32 32 0 0 1 4.308.01 13.7 13.7 0 0 1 3.781.849c2.026.833 3.41 2.281 4.162 4.338.42 1.24.676 2.516.754 3.823a28.3 28.3 0 0 1-.114 4.928 12 12 0 0 1-.896 3.317q-1.276 2.766-4.135 3.812a15.6 15.6 0 0 1-4.767.824 21.3 21.3 0 0 1-5.452-.412c-3.308-.734-5.354-2.754-6.125-6.057a19 19 0 0 1-.448-4.51 18.5 18.5 0 0 1 .516-4.787q1.218-4.625 5.875-5.734a14 14 0 0 1 2.197-.354" style="fill:#f2f2f2;fill-opacity:1;fill-rule:evenodd;stroke:none;stroke-width:1.33333"/>
<g style="stroke-width:2.92308">
<path fill="#2f6693" d="m32.252 13-12.629 2.89 2.287 10.085 7.76 4.97 4.869-7.863zm13.869 8.662-10.035 2.299-4.947 7.795 7.824 4.892L49 34.351l-2.88-12.688Zm-25.086 5.652L11 29.614 13.879 42.3l10.035-2.299 4.947-7.795Zm9.135 5.74-4.87 7.862L27.589 51l12.629-2.893-2.287-10.082z" style="stroke-width:2.92308" transform="translate(1.737 1.053)scale(.3421)"/>
<path fill="#46abd2" d="m31.26 14.684-10.016 2.295 1.752 7.72 6.123 3.81 3.893-6.102zm13.779 8.607-7.684 1.76-3.79 6.152 6.074 3.91 7.683-1.76-2.283-10.061zM20.361 28.85l-7.686 1.76 2.284 10.062 7.685-1.76 3.791-6.152zm10.359 6.643-3.893 6.101 1.752 7.72 10.016-2.292-1.752-7.72-6.123-3.81z" style="stroke-width:2.92308" transform="translate(1.737 1.053)scale(.3421)"/>
</g>
</svg>
