<svg xmlns="http://www.w3.org/2000/svg" xml:space="preserve" width="24" height="24">
<defs>
<radialGradient id="a" cx="0" cy="0" r="1" fx="0" fy="0" gradientTransform="matrix(0 16.5 -16.5 0 9 .75)" gradientUnits="userSpaceOnUse" spreadMethod="pad">
<stop offset="0" style="stop-opacity:1;stop-color:#fafafa"/>
<stop offset="1" style="stop-opacity:1;stop-color:silver"/>
</radialGradient>
</defs>
<g stroke-width="3.78" transform="translate(63.17 -14.084)">
<path fill="#fff" d="M2.003 18.002v35.997a.995.995 0 0 0 .998 1.002h58.002a1 1 0 0 0 .998-1.002V17.998H2.004Z" style="paint-order:markers stroke fill"/>
<path d="M2.003 18.002v35.997a.995.995 0 0 0 .998 1.002h58.002a1 1 0 0 0 .998-1.002V17.998h-.998v35.044c0 .53-.435.956-.968.956H3.968a.96.96 0 0 1-.967-.956V17.998H1.999Z" opacity=".1" style="paint-order:markers stroke fill"/>
<path fill="#666" d="M3.001 9a1 1 0 0 0-1.002 1v7.998H62v-7.997a1 1 0 0 0-.997-1.002Z" style="paint-order:stroke markers fill"/>
<rect width="3.001" height="3.001" x="56.002" y="12" opacity=".35" ry="1.5" style="paint-order:stroke markers fill"/>
<rect width="3.001" height="3.001" x="50" y="12" opacity=".35" ry="1.5" style="paint-order:stroke markers fill"/>
<rect width="3.001" height="3.001" x="44.002" y="12" opacity=".35" ry="1.5" style="paint-order:stroke markers fill"/>
<path d="M62.001 42.294a36.3 36.3 0 0 1-12.828 12.707h11.83a1 1 0 0 0 .998-1.002z" opacity=".05" style="paint-order:markers stroke fill"/>
</g>
<g stroke-width=".58">
<path fill="#ef4a5b" d="M75.17 12.916h3.53l4.117 11.43 4.117-11.43h3.53l-5.884 16h-3.529z"/>
<path fill="#3e4143" d="m88.112 28.916 5.882-16h3.53l-5.884 16Zm11.765 0 5.882-16h3.53l-5.883 16z"/>
<path fill="#949b9d" d="m84.582 28.916 5.882-16h3.53l-5.884 16Zm11.765 0 5.882-16h3.53l-5.883 16z"/>
<path fill="#babfc2" d="M99.876 28.916h-3.53l-5.882-16h3.53zm11.765 0h-3.53l-5.88-16h3.53z"/>
<path fill="#535353" d="m93.994 12.916 5.882 16h3.53l-5.883-16Zm11.765 0 5.882 16h3.53l-5.883-16Z"/>
</g>
<path fill="#27ae60" d="M116.17 23.916v12.172l-4.586-4.586-1.414 1.414 7 7 7-7-1.414-1.414-4.586 4.586V23.916z"/>
<path d="M7.195.836q.135 0 .258-.035a24 24 0 0 1 3.231.008 10.3 10.3 0 0 1 2.836.636q2.278.938 3.121 3.254.476 1.396.566 2.867a21 21 0 0 1-.086 3.696 9 9 0 0 1-.672 2.488q-.957 2.074-3.101 2.859a11.7 11.7 0 0 1-3.575.618 16 16 0 0 1-4.089-.309c-2.481-.551-4.016-2.066-4.594-4.543a14.2 14.2 0 0 1-.336-3.383q-.041-1.818.387-3.59.914-3.468 4.406-4.3A10 10 0 0 1 7.195.836" style="fill:url(#a);fill-rule:evenodd;stroke:none" transform="scale(1.33333)"/>
<g stroke-width=".58">
<path fill="#ef4a5b" d="M4.151 8.86h1.385l1.616 4.486L8.768 8.86h1.385l-2.309 6.28H6.46z"/>
<path fill="#3e4143" d="m9.23 15.14 2.308-6.28h1.386l-2.31 6.28Zm4.617 0 2.308-6.28h1.385l-2.308 6.28z"/>
<path fill="#949b9d" d="m7.845 15.14 2.308-6.28h1.385L9.23 15.14Zm4.617 0 2.308-6.28h1.385l-2.308 6.28z"/>
<path fill="#babfc2" d="M13.847 15.14H12.46l-2.308-6.28h1.385zm4.616 0h-1.385L14.77 8.86h1.386z"/>
<path fill="#535353" d="m11.538 8.86 2.309 6.28h1.385l-2.309-6.28Zm4.617 0 2.308 6.28h1.386L17.54 8.86Z"/>
</g>
<path d="M18.453 11.39a8.5 8.5 0 0 0-8.5 8.5 8.5 8.5 0 0 0 .574 3.065 21 21 0 0 0 2.502.014 15.6 15.6 0 0 0 4.768-.825q2.859-1.045 4.135-3.81.686-1.594.896-3.318.128-1.158.158-2.315a8.5 8.5 0 0 0-4.533-1.31z" style="fill:#ececec;fill-opacity:1;stroke-width:2.00803;paint-order:markers stroke fill"/>
<path fill="#27ae60" d="M17.097 14.793v4.777l-1.8-1.8-.555.555 2.747 2.747 2.747-2.747-.555-.555-1.8 1.8v-4.777z" style="fill:#27ae60;fill-opacity:1;stroke-width:.392417"/>
</svg>
