<svg xmlns="http://www.w3.org/2000/svg" width="24" height="24">
<defs>
<radialGradient id="a" cx="0" cy="0" r="1" fx="0" fy="0" gradientTransform="matrix(0 16.5 -16.5 0 9 .75)" gradientUnits="userSpaceOnUse" spreadMethod="pad">
<stop offset="0" style="stop-opacity:1;stop-color:#fafafa"/>
<stop offset="1" style="stop-opacity:1;stop-color:silver"/>
</radialGradient>
</defs>
<path d="M7.195.836q.135 0 .258-.035a24 24 0 0 1 3.231.008 10.3 10.3 0 0 1 2.836.636q2.278.938 3.121 3.254.476 1.396.566 2.867a21 21 0 0 1-.086 3.696 9 9 0 0 1-.672 2.488q-.957 2.074-3.101 2.859a11.7 11.7 0 0 1-3.575.618 16 16 0 0 1-4.089-.309c-2.481-.551-4.016-2.066-4.594-4.543a14.2 14.2 0 0 1-.336-3.383q-.041-1.818.387-3.59.914-3.468 4.406-4.3A10 10 0 0 1 7.195.836" style="fill:url(#a);fill-rule:evenodd;stroke:none" transform="scale(1.33333)"/>
<path fill="#3b83b2" d="M6 19h12v-1H6zM6 5h12v1H6z"/>
<path fill="#7bbbeb" d="m5.5 5-.05.003-.05.007-.048.013-.046.016-.046.022-.042.025-.04.031-.037.035-.033.037-.03.04-.023.045-.02.044-.017.048-.011.049-.006.05L5 5.5v13l.001.035.006.05.012.05.015.046.02.045.025.045.03.04.032.038.036.034.04.03.044.026.045.022.046.017.048.012.05.007.05.003H6l.05-.003.05-.007.047-.012.048-.017.045-.022.042-.025.04-.03.037-.035.032-.039.03-.04.024-.044.02-.045.017-.047.01-.049.007-.05V18h11v.5l.002.035.006.05.011.05.016.046.02.045.026.045.028.04.033.038.037.034.04.03.042.026.045.022.048.017.047.012.05.007L18 19h.5l.05-.003.05-.007.048-.012.046-.017.045-.022.043-.025.04-.03.036-.035.034-.039.03-.04.023-.044.02-.045.017-.047.011-.049.006-.05L19 18.5v-13l-.001-.035-.006-.05-.012-.05-.015-.047-.02-.044-.025-.044-.03-.04-.033-.038-.035-.035-.04-.03-.044-.025-.045-.023-.046-.016-.049-.013-.05-.007L18.5 5H18l-.05.003-.05.007-.047.013-.048.016-.045.023-.042.024-.04.031-.037.035-.033.037-.03.04-.023.045-.02.044-.017.048-.011.049-.006.05-.001.035V6h-11v-.535l-.007-.05-.011-.05-.016-.047-.02-.044-.026-.044-.029-.04-.032-.038-.037-.035-.04-.03-.043-.025-.045-.023-.047-.016L6.1 5.01l-.05-.007L6 5z"/>
<path fill="#323940" d="M6.035 6.346a.484.484 0 0 0-.497.471v10.366c0 .26.223.47.497.47h11.93c.274 0 .497-.21.497-.47V6.817a.484.484 0 0 0-.497-.47zm.311.808h5.116v9.692H6.346zm6.192 0h5.116v9.692h-5.116z" opacity=".8"/>
<path fill="#39719b" d="M13.077 13.615h4.038v1.077h-4.038Zm-6.192 0h4.038v1.077H6.885Zm0-4.307h4.038v1.077H6.885Zm6.192 0h4.038v1.077h-4.038Zm0 2.154h4.038v1.076h-4.038Zm-6.192 0h4.038v1.076H6.885Z"/>
<path fill="#fff" d="M8.5 6.346a.27.236 0 0 0-.27.236v10.836a.27.236 0 0 0 .54 0V6.582a.27.236 0 0 0-.27-.236m1.615 0a.27.236 0 0 0-.269.236v10.836a.27.236 0 0 0 .539 0V6.582a.27.236 0 0 0-.27-.236m3.77 0a.27.236 0 0 0-.27.236v10.836a.27.236 0 0 0 .539 0V6.582a.27.236 0 0 0-.27-.236zm1.615 0a.27.236 0 0 0-.27.236v10.836a.27.236 0 0 0 .54 0V6.582a.27.236 0 0 0-.27-.236"/>
</svg>
