<svg xmlns="http://www.w3.org/2000/svg" xml:space="preserve" width="24" height="24">
<defs>
<clipPath id="g" clipPathUnits="userSpaceOnUse">
<path d="M0 0h19v19H0Z"/>
</clipPath>
<clipPath id="h" clipPathUnits="userSpaceOnUse">
<path d="m6.707 11.402.703-2.468 3.902 2.468Z"/>
</clipPath>
<clipPath id="a" clipPathUnits="userSpaceOnUse">
<path d="M-22.543-286.093h280.477V-99.11H-22.543Z"/>
</clipPath>
<clipPath id="k" clipPathUnits="userSpaceOnUse">
<path d="M0 0h19v19H0Z"/>
</clipPath>
<clipPath id="l" clipPathUnits="userSpaceOnUse">
<path d="M9.199 10.066v1.336h.227v-1.191z"/>
</clipPath>
<clipPath id="c" clipPathUnits="userSpaceOnUse">
<path d="M444.944-728.121h176.722v353.444H444.944Z"/>
</clipPath>
<clipPath id="o" clipPathUnits="userSpaceOnUse">
<path d="M0 0h19v19H0Z"/>
</clipPath>
<clipPath id="p" clipPathUnits="userSpaceOnUse">
<path d="M0 0h19v19H0Z"/>
</clipPath>
<linearGradient id="f" x1="-240.47" x2="-240.47" y1="-60.605" y2="-29.026" gradientTransform="matrix(.18118 0 0 .17805 52.192 15.636)" gradientUnits="userSpaceOnUse" spreadMethod="pad">
<stop offset="0" style="stop-opacity:1;stop-color:#4285db"/>
<stop offset="1" style="stop-opacity:1;stop-color:#42b9db"/>
</linearGradient>
<linearGradient id="b" x1="10.583" x2="225.69" y1="-184.68" y2="-184.68" gradientUnits="userSpaceOnUse" spreadMethod="pad">
<stop offset="0" style="stop-opacity:1;stop-color:#fff"/>
<stop offset="1" style="stop-opacity:0;stop-color:#fff"/>
</linearGradient>
<linearGradient id="j" x1="10.583" x2="225.69" y1="-184.68" y2="-184.68" gradientUnits="userSpaceOnUse" spreadMethod="pad">
<stop offset="0" style="stop-opacity:1;stop-color:#fafbfb"/>
<stop offset="1" style="stop-opacity:1;stop-color:#fafbfb"/>
</linearGradient>
<linearGradient id="d" x1="520" x2="410" y1="-620" y2="-620" gradientUnits="userSpaceOnUse" spreadMethod="pad">
<stop offset="0" style="stop-opacity:1;stop-color:#fff"/>
<stop offset="1" style="stop-opacity:0;stop-color:#fff"/>
</linearGradient>
<linearGradient id="n" x1="520" x2="410" y1="-620" y2="-620" gradientUnits="userSpaceOnUse" spreadMethod="pad">
<stop offset="0" style="stop-opacity:1;stop-color:#000"/>
<stop offset="1" style="stop-opacity:1;stop-color:#000"/>
</linearGradient>
<mask id="i" width="1" height="1" x="0" y="0" maskUnits="userSpaceOnUse">
<g clip-path="url(#a)">
<path d="M-22.543-286.093h280.477V-99.11H-22.543Z" style="fill:url(#b);stroke:none"/>
</g>
</mask>
<mask id="m" width="1" height="1" x="0" y="0" maskUnits="userSpaceOnUse">
<g clip-path="url(#c)">
<path d="M444.944-728.121h176.722v353.444H444.944Z" style="fill:url(#d);stroke:none"/>
</g>
</mask>
<radialGradient id="e" cx="0" cy="0" r="1" fx="0" fy="0" gradientTransform="matrix(0 16.5 -16.5 0 9 .75)" gradientUnits="userSpaceOnUse" spreadMethod="pad">
<stop offset="0" style="stop-opacity:1;stop-color:#a4a4a4"/>
<stop offset="1" style="stop-opacity:1;stop-color:#626262"/>
</radialGradient>
</defs>
<path d="M7.195.836q.135 0 .258-.035a24 24 0 0 1 3.231.008 10.3 10.3 0 0 1 2.836.636q2.278.938 3.121 3.254.476 1.396.566 2.867a21 21 0 0 1-.086 3.696 9 9 0 0 1-.672 2.488q-.957 2.074-3.101 2.859a11.7 11.7 0 0 1-3.575.618 16 16 0 0 1-4.089-.309c-2.481-.551-4.016-2.066-4.594-4.543a14.2 14.2 0 0 1-.336-3.383q-.041-1.821.387-3.59.914-3.468 4.406-4.3A10 10 0 0 1 7.195.836" style="fill:url(#e);fill-rule:evenodd;stroke:none" transform="scale(1.33333)"/>
<path d="m9 10.297-1.73 1.301c0 1.511-.215 1.511-1.297 2.164L9 13.977l3.027-.219c-1.082-.649-1.297-.649-1.297-2.16Z" style="fill:#b3b3b3;fill-opacity:1;fill-rule:nonzero;stroke:none" transform="scale(1.33333)"/>
<path d="M5.973 13.758h6.055v.434H5.973Z" style="fill:#ccc;fill-opacity:1;fill-rule:nonzero;stroke:none" transform="scale(1.33333)"/>
<path d="M4.254 4.074h9.492c.484 0 .879.395.879.883v5.766a.88.88 0 0 1-.879.879H4.254a.88.88 0 0 1-.879-.879V4.957c0-.488.395-.883.879-.883" style="fill:#303030;fill-opacity:1;fill-rule:nonzero;stroke:none" transform="scale(1.33333)"/>
<path d="M4.312 4.281h9.376a.74.74 0 0 1 .746.739v5.648a.74.74 0 0 1-.746.738H4.312a.74.74 0 0 1-.746-.738V5.02a.74.74 0 0 1 .746-.739" style="fill:url(#f);stroke:none" transform="scale(1.33333)"/>
<path d="m7.613 10.723 2.719-2.942 2.262 2.942z" style="fill:#1a1a1a;fill-opacity:1;fill-rule:nonzero;stroke:none" transform="scale(1.33333)"/>
<g clip-path="url(#g)" opacity=".9" transform="scale(1.33333)">
<path d="M7.41 8.934 3.836 11.23a.77.77 0 0 0 .48.172h6.993z" style="fill:#e6e6e6;fill-opacity:1;fill-rule:nonzero;stroke:none"/>
</g>
<path d="m6.707 11.402.703-2.468 3.902 2.468Z" style="fill:#fafbfb;fill-opacity:1;fill-rule:nonzero;stroke:none" transform="scale(1.33333)"/>
<path d="m10.332 7.555-.906.961v2.886h4.258c.207 0 .39-.078.527-.211z" style="fill:#b0b2b5;fill-opacity:1;fill-rule:nonzero;stroke:none" transform="scale(1.33333)"/>
<path d="m10.332 7.555 1.133 3.847h2.219c.207 0 .39-.078.527-.211z" style="fill:#fff;fill-opacity:1;fill-rule:nonzero;stroke:none" transform="scale(1.33333)"/>
<g clip-path="url(#h)" transform="scale(1.33333)">
<g mask="url(#i)" transform="translate(6.482 14.12)scale(.0214)">
<path d="m6.707 11.402.703-2.468 3.902 2.468Z" style="fill:url(#j);stroke:none"/>
</g>
</g>
<g clip-path="url(#k)" opacity=".35" transform="scale(1.33333)">
<g clip-path="url(#l)">
<g mask="url(#m)" transform="translate(6.482 14.12)scale(.00566)">
<path d="M9.199 10.066v1.336h.227v-1.191z" style="fill:url(#n);stroke:none"/>
</g>
</g>
</g>
<g clip-path="url(#o)" opacity=".5" transform="scale(1.33333)">
<path d="M10.594 7.84c0 .879-.715 1.59-1.594 1.59a1.592 1.592 0 1 1 0-3.184c.879 0 1.594.715 1.594 1.594" style="fill:#81d0e2;fill-opacity:1;fill-rule:nonzero;stroke:none"/>
</g>
<g clip-path="url(#p)" opacity=".6" transform="scale(1.33333)">
<path d="M10.301 7.84a1.3 1.3 0 1 1-2.6.001 1.3 1.3 0 0 1 2.6-.001" style="fill:#25688c;fill-opacity:1;fill-rule:nonzero;stroke:none"/>
</g>
<path d="m9.172 13.195 2.664-.015.305-3.02c.062-.613-.696-.867-.907-.301.004-.679-.695-.765-.906-.304.027-.559-.683-.774-.906-.301V8.047c0-.906-.902-.906-.902 0v2.715c-1.512-1.508-1.879-.422-1.879-.422 1.023.691 1.652 2.859 2.531 2.855" style="fill:#f2e3de;fill-opacity:1;fill-rule:nonzero;stroke:none" transform="scale(1.33333)"/>
<path d="m9.172 13.664 2.664-.019.305-3.016c.062-.613-.696-.867-.907-.301.004-.68-.695-.766-.906-.305.027-.558-.683-.777-.906-.3V8.516c0-.907-.902-.907-.902 0v2.714c-1.512-1.507-1.879-.421-1.879-.421 1.023.691 1.652 2.859 2.531 2.855" style="fill:#ac693a;fill-opacity:1;fill-rule:nonzero;stroke:none" transform="scale(1.33333)"/>
<path d="m9.172 13.414 2.664-.019.305-3.016c.062-.613-.696-.867-.907-.301.004-.68-.695-.766-.906-.305.027-.558-.683-.777-.906-.3V8.266c0-.907-.902-.907-.902 0v2.714c-1.512-1.507-1.879-.421-1.879-.421 1.023.691 1.652 2.859 2.531 2.855" style="fill:#da9c76;fill-opacity:1;fill-rule:nonzero;stroke:none" transform="scale(1.33333)"/>
</svg>
