<svg xmlns="http://www.w3.org/2000/svg" xmlns:xlink="http://www.w3.org/1999/xlink" xml:space="preserve" width="24" height="24">
<defs>
<linearGradient id="a" x1="13.229" x2="2.117" y1="297" y2="280.07" gradientTransform="matrix(.99324 0 0 .78268 -16.45 -215.555)" gradientUnits="userSpaceOnUse">
<stop offset="0" stop-color="#66bcff"/>
<stop offset="1" stop-color="#b29aff"/>
</linearGradient>
<linearGradient id="b" x1="12" x2="12" y1="0" y2="12" gradientTransform="translate(.75 .75)scale(.6875)" gradientUnits="userSpaceOnUse" spreadMethod="pad">
<stop offset="0" style="stop-opacity:1;stop-color:#fff"/>
<stop offset="1" style="stop-opacity:1;stop-color:#d9d9d9"/>
</linearGradient>
<linearGradient xlink:href="#a" id="c" x1="13.229" x2="2.117" y1="297" y2="280.07" gradientTransform="matrix(.99324 0 0 .78268 3.55 -215.555)" gradientUnits="userSpaceOnUse"/>
<clipPath id="e" clipPathUnits="userSpaceOnUse"/>
<clipPath id="d" clipPathUnits="userSpaceOnUse"/>
</defs>
<path d="M7.195.836q.135 0 .258-.035a24 24 0 0 1 3.231.008 10.3 10.3 0 0 1 2.836.636q2.278.938 3.121 3.254.476 1.396.566 2.867a21 21 0 0 1-.086 3.696 9 9 0 0 1-.672 2.488q-.957 2.074-3.101 2.859a11.7 11.7 0 0 1-3.575.618 16 16 0 0 1-4.089-.309c-2.481-.551-4.016-2.066-4.594-4.543a14.2 14.2 0 0 1-.336-3.383q-.041-1.821.387-3.59.914-3.468 4.406-4.3A10 10 0 0 1 7.195.836" style="fill:url(#b);fill-rule:evenodd;stroke:none" transform="scale(1.33333)"/>
<path fill="#b3b3b3" d="m12 13.552-2.308 1.731c0 2.02-.288 2.02-1.73 2.885l4.038.288 4.038-.288c-1.442-.865-1.73-.865-1.73-2.885z" style="stroke-width:.491449"/>
<path fill="#ccc" d="M7.962 18.168v.577h8.077v-.577z" style="stroke-width:.491449"/>
<rect width="15" height="10.036" x="4.5" y="5.255" fill="#303030" rx="1.174" ry="1.174" style="stroke-width:.483148"/>
<path d="M5.752 5.525a.99.99 0 0 0-1 .983v7.531a.99.99 0 0 0 1 .982h12.496a.99.99 0 0 0 1-.982V6.508a.99.99 0 0 0-1-.983z" style="fill:url(#c);stroke-width:.851888;paint-order:stroke markers fill"/>
<rect width=".965" height=".482" x="5.67" y="5.782" opacity=".35" ry=".242" style="stroke-width:.912147;paint-order:stroke markers fill"/>
<path d="M5.752 5.525a.99.99 0 0 0-1 .977h14.496a.99.99 0 0 0-1-.977z" style="opacity:.3;stroke-width:.937271;paint-order:stroke markers fill"/>
<path d="M7.319 6.385h4.485v.449H7.32Zm0 2.695h3.592v.45H7.32Zm0 .899h3.592v.447H7.32Zm0 .897h2.694v.45H7.319Zm0-3.593h3.592v.45H7.32Zm0 .898h2.694v.45H7.319Zm0 3.594h4.485v.448H7.32Zm0 .897h2.694v.444H7.319Z" clip-path="url(#d)" style="opacity:.5;fill:#fff;fill-opacity:1;fill-rule:nonzero;stroke:none;stroke-width:1.49315" transform="translate(0 .915)"/>
<rect width="2.413" height=".482" x="10.738" y="5.782" opacity=".35" ry=".242" style="stroke-width:.912147;paint-order:stroke markers fill"/>
<path d="M5.523 6.385h1.346v.449H5.523Zm0 .898h1.346v.45H5.523Zm0 .898h1.346v.45H5.523Zm0 .899h1.346v.45H5.523Zm0 .899h1.346v.447H5.523Zm0 .897h1.346v.45H5.523Zm0 .899h1.346v.448H5.523Zm0 .897h1.346v.444H5.523Z" clip-path="url(#e)" style="opacity:.5;fill:#fff;fill-opacity:1;fill-rule:nonzero;stroke:none;stroke-width:1.49315" transform="translate(0 .915)"/>
<rect width=".482" height=".482" x="17.977" y="5.782" opacity=".35" ry=".242" style="stroke-width:.912147;paint-order:stroke markers fill"/>
<rect width=".724" height=".482" x="17.012" y="5.782" opacity=".35" ry=".242" style="stroke-width:.912147;paint-order:stroke markers fill"/>
<rect width=".482" height=".482" x="16.288" y="5.782" opacity=".35" ry=".242" style="stroke-width:.912147;paint-order:stroke markers fill"/>
</svg>
