<svg xmlns="http://www.w3.org/2000/svg" xml:space="preserve" width="24" height="24">
<defs>
<clipPath id="g" clipPathUnits="userSpaceOnUse">
<path d="M0 0h19v19H0Z"/>
</clipPath>
<clipPath id="h" clipPathUnits="userSpaceOnUse">
<path d="m6.707 11.402.703-2.468 3.902 2.468Z"/>
</clipPath>
<clipPath id="a" clipPathUnits="userSpaceOnUse">
<path d="M-22.543-286.093h280.477V-99.11H-22.543Z"/>
</clipPath>
<clipPath id="k" clipPathUnits="userSpaceOnUse">
<path d="M0 0h19v19H0Z"/>
</clipPath>
<clipPath id="l" clipPathUnits="userSpaceOnUse">
<path d="M9.199 10.066v1.336h.227v-1.191z"/>
</clipPath>
<clipPath id="c" clipPathUnits="userSpaceOnUse">
<path d="M444.944-728.121h176.722v353.444H444.944Z"/>
</clipPath>
<linearGradient id="b" x1="10.583" x2="225.69" y1="-184.68" y2="-184.68" gradientUnits="userSpaceOnUse" spreadMethod="pad">
<stop offset="0" style="stop-opacity:1;stop-color:#fff"/>
<stop offset="1" style="stop-opacity:0;stop-color:#fff"/>
</linearGradient>
<linearGradient id="j" x1="10.583" x2="225.69" y1="-184.68" y2="-184.68" gradientUnits="userSpaceOnUse" spreadMethod="pad">
<stop offset="0" style="stop-opacity:1;stop-color:#fafbfb"/>
<stop offset="1" style="stop-opacity:1;stop-color:#fafbfb"/>
</linearGradient>
<linearGradient id="d" x1="520" x2="410" y1="-620" y2="-620" gradientUnits="userSpaceOnUse" spreadMethod="pad">
<stop offset="0" style="stop-opacity:1;stop-color:#fff"/>
<stop offset="1" style="stop-opacity:0;stop-color:#fff"/>
</linearGradient>
<linearGradient id="n" x1="520" x2="410" y1="-620" y2="-620" gradientUnits="userSpaceOnUse" spreadMethod="pad">
<stop offset="0" style="stop-opacity:1;stop-color:#000"/>
<stop offset="1" style="stop-opacity:1;stop-color:#000"/>
</linearGradient>
<linearGradient id="f" x1="-240.47" x2="-240.47" y1="-60.605" y2="-29.026" gradientTransform="matrix(.18118 0 0 .17805 52.192 15.631)" gradientUnits="userSpaceOnUse" spreadMethod="pad">
<stop offset="0" style="stop-opacity:1;stop-color:#4285db"/>
<stop offset="1" style="stop-opacity:1;stop-color:#42b9db"/>
</linearGradient>
<mask id="i" width="1" height="1" x="0" y="0" maskUnits="userSpaceOnUse">
<g clip-path="url(#a)">
<path d="M-22.543-286.093h280.477V-99.11H-22.543Z" style="fill:url(#b);stroke:none"/>
</g>
</mask>
<mask id="m" width="1" height="1" x="0" y="0" maskUnits="userSpaceOnUse">
<g clip-path="url(#c)">
<path d="M444.944-728.121h176.722v353.444H444.944Z" style="fill:url(#d);stroke:none"/>
</g>
</mask>
<radialGradient id="e" cx="0" cy="0" r="1" fx="0" fy="0" gradientTransform="matrix(0 16.5 -16.5 0 9 .75)" gradientUnits="userSpaceOnUse" spreadMethod="pad">
<stop offset="0" style="stop-opacity:1;stop-color:#a4a4a4"/>
<stop offset="1" style="stop-opacity:1;stop-color:#626262"/>
</radialGradient>
</defs>
<path d="M7.195.836q.135 0 .258-.035a24 24 0 0 1 3.231.008 10.3 10.3 0 0 1 2.836.636q2.278.938 3.121 3.254.476 1.396.566 2.867a21 21 0 0 1-.086 3.696 9 9 0 0 1-.672 2.488q-.957 2.074-3.101 2.859a11.7 11.7 0 0 1-3.575.618 16 16 0 0 1-4.089-.309c-2.481-.551-4.016-2.066-4.594-4.543a14.2 14.2 0 0 1-.336-3.383q-.041-1.821.387-3.59.914-3.468 4.406-4.3A10 10 0 0 1 7.195.836" style="fill:url(#e);fill-rule:evenodd;stroke:none" transform="scale(1.33333)"/>
<path d="m12 13.73-2.307 1.734c0 2.015-.287 2.015-1.73 2.885l4.037.287 4.036-.292c-1.443-.865-1.73-.865-1.73-2.88z" style="fill:#b3b3b3;fill-opacity:1;fill-rule:nonzero;stroke:none;stroke-width:1.33333"/>
<path d="M7.964 18.344h8.073v.579H7.964Z" style="fill:#ccc;fill-opacity:1;fill-rule:nonzero;stroke:none;stroke-width:1.33333"/>
<path d="M5.672 5.432h12.656c.645 0 1.172.527 1.172 1.177v7.688c0 .651-.527 1.172-1.172 1.172H5.672A1.17 1.17 0 0 1 4.5 14.297V6.61c0-.65.526-1.177 1.172-1.177z" style="fill:#303030;fill-opacity:1;fill-rule:nonzero;stroke:none;stroke-width:1.33333"/>
<path d="M4.312 4.277h9.376a.74.74 0 0 1 .746.739v5.648a.74.74 0 0 1-.746.734H4.312a.74.74 0 0 1-.746-.734V5.016a.74.74 0 0 1 .746-.739" style="fill:url(#f);stroke:none" transform="scale(1.33333)"/>
<path d="m10.15 14.297 3.626-3.922 3.016 3.922z" style="fill:#1a1a1a;fill-opacity:1;fill-rule:nonzero;stroke:none;stroke-width:1.33333"/>
<g clip-path="url(#g)" opacity=".9" transform="scale(1.33333)">
<path d="M7.41 8.934 3.836 11.23a.77.77 0 0 0 .48.172h6.993z" style="fill:#e6e6e6;fill-opacity:1;fill-rule:nonzero;stroke:none"/>
</g>
<path d="m8.942 15.203.938-3.291 5.202 3.29z" style="fill:#fafbfb;fill-opacity:1;fill-rule:nonzero;stroke:none;stroke-width:1.33333"/>
<path d="m13.776 10.073-1.208 1.282v3.848h5.677c.276 0 .52-.104.703-.282z" style="fill:#b0b2b5;fill-opacity:1;fill-rule:nonzero;stroke:none;stroke-width:1.33333"/>
<path d="m13.776 10.073 1.51 5.13h2.959c.276 0 .52-.104.703-.282z" style="fill:#fff;fill-opacity:1;fill-rule:nonzero;stroke:none;stroke-width:1.33333"/>
<g clip-path="url(#h)" transform="scale(1.33333)">
<g mask="url(#i)" transform="translate(6.482 14.12)scale(.0214)">
<path d="m6.707 11.402.703-2.468 3.902 2.468Z" style="fill:url(#j);stroke:none"/>
</g>
</g>
<g clip-path="url(#k)" opacity=".35" transform="scale(1.33333)">
<g clip-path="url(#l)">
<g mask="url(#m)" transform="translate(6.482 14.12)scale(.00566)">
<path d="M9.199 10.066v1.336h.227v-1.191z" style="fill:url(#n);stroke:none"/>
</g>
</g>
</g>
<rect width="11.507" height="9.523" x="7.747" y="5.692" fill="#4a4a4f" rx=".397" ry=".397" style="stroke-width:.198401;paint-order:markers stroke fill"/>
<rect width=".397" height="9.523" x="13.289" y="5.692" fill-rule="evenodd" opacity=".15" rx="0" ry="0" style="stroke-width:.198401;paint-order:fill markers stroke"/>
<rect width=".397" height="11.507" x="10.255" y="-19.254" fill-rule="evenodd" opacity=".15" rx="0" ry="0" style="stroke-width:.198401;paint-order:fill markers stroke" transform="rotate(90)"/>
<path fill="#638df5" d="M8.13 5.692a.396.396 0 0 0-.396.397v4.365h5.753V5.692Z" style="stroke-width:.198401;paint-order:markers stroke fill"/>
<rect width="3.571" height="2.778" x="8.924" y="6.684" fill="#fff" fill-rule="evenodd" opacity=".5" rx=".198" ry=".198" style="stroke-width:.198401;paint-order:fill markers stroke"/>
<rect width="11.507" height="9.523" x="4.759" y="5.692" fill="#4a4a4f" rx=".397" ry=".397" style="stroke-width:.198401;paint-order:markers stroke fill"/>
<path fill="#638df5" d="M5.156 5.692a.396.396 0 0 0-.397.397v4.365h5.754V5.692Z" style="stroke-width:.198401;paint-order:markers stroke fill"/>
<rect width=".397" height="9.523" x="10.314" y="5.692" fill-rule="evenodd" opacity=".15" rx="0" ry="0" style="stroke-width:.198401;paint-order:fill markers stroke"/>
<rect width=".397" height="11.507" x="10.255" y="-16.266" fill-rule="evenodd" opacity=".15" rx="0" ry="0" style="stroke-width:.198401;paint-order:fill markers stroke" transform="rotate(90)"/>
<rect width="3.571" height="2.778" x="11.505" y="11.446" fill="#fff" fill-rule="evenodd" opacity=".15" rx=".198" ry=".198" style="stroke-width:.198401;paint-order:fill markers stroke"/>
<rect width="11.507" height="4.947" x="6.265" y="10.269" fill="#4a4a4f" rx="0" ry="0" style="stroke-width:.142989;paint-order:markers stroke fill"/>
<path fill="#638df5" d="M6.661 5.692a.396.396 0 0 0-.396.397v4.365h5.753V5.692Z" style="stroke-width:.198401;paint-order:markers stroke fill"/>
<rect width=".397" height="9.523" x="11.82" y="5.692" fill-rule="evenodd" opacity=".15" rx="0" ry="0" style="stroke-width:.198401;paint-order:fill markers stroke"/>
<rect width=".397" height="11.507" x="10.255" y="-17.772" fill-rule="evenodd" opacity=".15" rx="0" ry="0" style="stroke-width:.198401;paint-order:fill markers stroke" transform="rotate(90)"/>
<rect width="3.571" height="2.778" x="6.485" y="6.684" fill="#fff" fill-rule="evenodd" opacity=".5" rx=".198" ry=".198" style="stroke-width:.198401;paint-order:fill markers stroke"/>
<rect width="3.571" height="2.778" x="14.127" y="11.446" fill="#fff" fill-rule="evenodd" opacity=".15" rx=".198" ry=".198" style="stroke-width:.198401;paint-order:fill markers stroke"/>
<path d="M5.672 5.432c-.645 0-1.172.527-1.172 1.177v7.688c0 .65.527 1.172 1.172 1.172h12.656a1.17 1.17 0 0 0 1.172-1.172V6.609c0-.65-.527-1.177-1.172-1.177zm.183.207h12.276c.626 0 1.137.505 1.137 1.129v7.37a1.13 1.13 0 0 1-1.137 1.124H5.855a1.13 1.13 0 0 1-1.136-1.123V6.768c0-.624.51-1.13 1.136-1.13z" style="fill:#303030;fill-opacity:1;fill-rule:nonzero;stroke:none;stroke-width:1.33333"/>
</svg>
