<svg xmlns="http://www.w3.org/2000/svg" width="24" height="24" fill="none">
<path fill="url(#a)" fill-rule="evenodd" d="M9.596 1.114q.18.001.344-.046a32 32 0 0 1 4.307.011q1.951.153 3.78.848 3.038 1.25 4.158 4.339.64 1.86.756 3.824a28 28 0 0 1-.114 4.923 11.9 11.9 0 0 1-.894 3.32q-1.276 2.764-4.135 3.813a15.6 15.6 0 0 1-4.765.825 21.4 21.4 0 0 1-5.453-.413q-4.967-1.106-6.128-6.056a19 19 0 0 1-.447-4.511 18.5 18.5 0 0 1 .515-4.786q1.217-4.629 5.877-5.736a14 14 0 0 1 2.199-.355" clip-rule="evenodd"/>
<path fill="url(#b)" d="M8.944 2.833a1.83 1.83 0 0 0-1.833 1.834v1.071a7.945 7.945 0 0 1 9.778 0v-1.07a1.83 1.83 0 0 0-1.833-1.834zM7.111 18.262v1.071a1.83 1.83 0 0 0 1.833 1.834h6.112a1.83 1.83 0 0 0 1.833-1.834v-1.07a7.944 7.944 0 0 1-9.778-.002Z"/>
<path fill="#F9F9F9" d="M12 19.944a7.944 7.944 0 1 0 0-15.889 7.944 7.944 0 0 0 0 15.889" opacity=".9"/>
<path fill="#4D4D4D" d="m12.216 11.997 4.754 4.754-.217.215-4.754-4.753z"/>
<path fill="#4D4D4D" d="M11.694 7.107v4.889a.306.306 0 1 0 .611-.028v-4.86h-.61Z"/>
<defs>
<radialGradient id="a" cx="0" cy="0" r="1" gradientTransform="matrix(0 11 -11 0 12 1)" gradientUnits="userSpaceOnUse">
<stop stop-color="#FAFAFA"/>
<stop offset="1" stop-color="#D0D0D0"/>
</radialGradient>
<linearGradient id="b" x1="12" x2="12" y1="2.833" y2="21.167" gradientUnits="userSpaceOnUse">
<stop stop-color="#777"/>
<stop offset="1" stop-color="#444"/>
</linearGradient>
</defs>
</svg>
