<svg xmlns="http://www.w3.org/2000/svg" width="24" height="24" fill="none">
<path d="M50 5C9.09 5 5 25.455 5 50c0 32.727 12.273 45 45 45s45-12.273 45-45c0-24.545-4.09-45-45-45" style="font-variation-settings:normal;display:inline;opacity:1;vector-effect:none;fill:#1b93f4;fill-opacity:1;stroke-width:4.56656;stroke-linecap:butt;stroke-linejoin:miter;stroke-miterlimit:4;stroke-dasharray:none;stroke-dashoffset:0;stroke-opacity:1;-inkscape-stroke:none;stop-color:#000;stop-opacity:1" transform="translate(-1 -1)scale(.26)"/>
<g fill="#fff" stroke-width=".857" color="#000">
<path d="m32 15.084-14 4.58c0 9.64-.043 14.925 1.652 18.75 1.696 3.828 5.176 6.347 12.348 10.502 7.172-4.155 10.652-6.674 12.348-10.502C46.043 34.59 46 29.304 46 19.664Zm.292 10.5a3.21 3.21 0 0 1 3.208 3.208 3.19 3.19 0 0 1-1.948 2.95l1.948 6.675h-6.417l1.949-6.674a3.19 3.19 0 0 1-1.949-2.951 3.21 3.21 0 0 1 3.209-3.209z" opacity=".5" overflow="visible" style="isolation:auto;mix-blend-mode:normal" transform="translate(-3.134 -3.134)scale(.47293)"/>
<path d="m32 18-11.664 4.083c0 15.714-.453 16.92 11.664 23.917 12.017-6.946 11.664-8.197 11.664-23.917Zm.292 7.583a3.21 3.21 0 0 1 3.208 3.209 3.19 3.19 0 0 1-1.948 2.95l1.948 6.675h-6.417l1.949-6.674a3.19 3.19 0 0 1-1.949-2.951 3.21 3.21 0 0 1 3.209-3.209" overflow="visible" style="isolation:auto;mix-blend-mode:normal" transform="translate(-3.134 -3.134)scale(.47293)"/>
</g>
</svg>
