<svg xmlns="http://www.w3.org/2000/svg" xmlns:xlink="http://www.w3.org/1999/xlink" width="24" height="24" version="1">
<defs>
<radialGradient xlink:href="#a" id="b" cx="12.517" cy="1.126" r="11" fx="12.517" fy="1.126" gradientTransform="matrix(1.35774 0 0 1.3577 -4.478 -.402)" gradientUnits="userSpaceOnUse"/>
<linearGradient id="a">
<stop offset="0" style="stop-color:#c14f4b;stop-opacity:1"/>
<stop offset="1" style="stop-color:#a73633;stop-opacity:1"/>
</linearGradient>
</defs>
<path d="M12.092 1a31 31 0 0 0-2.155.068 1.3 1.3 0 0 1-.343.047q-1.11.087-2.198.354Q2.74 2.577 1.521 7.203a18.5 18.5 0 0 0-.517 4.787 19 19 0 0 0 .45 4.51c.77 3.303 2.816 5.322 6.124 6.057 1.801.369 3.618.51 5.451.412a15.6 15.6 0 0 0 4.768-.824q2.859-1.046 4.135-3.811.686-1.594.896-3.318a28.3 28.3 0 0 0 .113-4.928 14.6 14.6 0 0 0-.753-3.822q-1.125-3.089-4.163-4.34a13.7 13.7 0 0 0-3.78-.848A32 32 0 0 0 12.091 1z" style="stroke-width:.528095;paint-order:stroke fill markers;fill:url(#b);fill-opacity:1"/>
<path d="M12.092 1 12 1.002V4.24H2.91a7.5 7.5 0 0 0-.66 1.057h3.412V9.52H1.113q-.057.527-.084 1.057H12v4.225H1.156q.07.53.168 1.056h4.338v4.225H3.184q.509.59 1.142 1.057H12v1.855a22 22 0 0 0 1.03-.027h.027V21.14h6.63a6.8 6.8 0 0 0 1.133-1.057H6.72v-4.225h15.976q.081-.418.133-.843c.008-.071.012-.142.02-.213h-9.791v-4.225h9.906c-.008-.163-.011-.327-.022-.49a14 14 0 0 0-.045-.567h-3.503V5.297h2.37a7.3 7.3 0 0 0-.665-1.057h-8.041V1.02a28 28 0 0 0-.965-.02zM6.719 5.297h11.619V9.52H6.718V5.297z" style="stroke-width:.528095;paint-order:stroke fill markers;fill:#c14f4b;fill-opacity:1"/>
<path d="M15.2 9.93q-.107 4.429-2.8 7.761-.105-1.31-.812-2.623c-.047.662-.316 1.542-.799 2.641q-.726 1.646-.902 2.39c-.218 1.049-.145 1.988.209 2.82q1.46.128 2.933.05a15.6 15.6 0 0 0 4.768-.824q2.859-1.046 4.135-3.811.33-.766.548-1.56a13 13 0 0 0-.76-1.317q-.567-.85-1.027-1.346-.46-.495-.744-.709.248.674.176 1.453-.069.78-.352 1.418a6.3 6.3 0 0 0-.623-2.127q-.513-1.062-1.097-1.753a11 11 0 0 0-1.346-1.329 17 17 0 0 0-1.045-.832 9 9 0 0 0-.46-.302h-.003z" style="isolation:auto;mix-blend-mode:normal;stroke-width:.420985;fill:#ffd33f;fill-opacity:1"/>
<path d="M16.7 14.54q.204.9-.227 2.974-.431 2.073-1.375 3.14.165-1.313.082-2.134-.082-.82-.246-1.233l-.205-.369q-.246 1.477-1.272 2.955-.534.78-.8 1.438-.267.654-.206 1.68.289-.008.578-.022a15.6 15.6 0 0 0 4.768-.824 7.3 7.3 0 0 0 2.394-1.416 10 10 0 0 0-.25-1.368q-.82-3.14-3.242-4.822z" style="isolation:auto;mix-blend-mode:normal;stroke-width:.338089;fill:#fff3cb;fill-opacity:1"/>
</svg>
