<svg xmlns="http://www.w3.org/2000/svg" xml:space="preserve" width="24" height="24">
<defs>
<radialGradient id="a" cx="0" cy="0" r="1" fx="0" fy="0" gradientTransform="matrix(0 16.5 -16.5 0 9 .75)" gradientUnits="userSpaceOnUse" spreadMethod="pad">
<stop offset="0" style="stop-opacity:1;stop-color:#f9dc6e"/>
<stop offset="1" style="stop-opacity:1;stop-color:#efac01"/>
</radialGradient>
</defs>
<path d="M7.453.801a1 1 0 0 1-.258.035 10 10 0 0 0-1.648.266q-3.492.831-4.406 4.3a14 14 0 0 0-.387 3.59q-.034 1.712.336 3.383c.578 2.477 2.113 3.992 4.594 4.543 1.351.277 2.714.383 4.089.309a11.7 11.7 0 0 0 3.575-.618q2.145-.784 3.101-2.859a9 9 0 0 0 .672-2.488q.204-1.845.086-3.696-.09-1.471-.566-2.867-.843-2.315-3.121-3.254a10.3 10.3 0 0 0-2.836-.636A24 24 0 0 0 7.453.801" style="fill:url(#a);fill-rule:evenodd;stroke:none" transform="scale(1.33333)"/>
<path d="M7.312 8.562c0 .801-.386 1.454-.867 1.454-.476 0-.867-.653-.867-1.454s.391-1.449.867-1.449c.481 0 .867.649.867 1.449m-.64 3.391c1.543.774 2.855.883 4.519-.043-.507.922-1.132 1.758-2.359 1.832-.824 0-1.59-.726-2.16-1.789m3.965-3.25c-.629.473-.477.664.101.559.578-.106 1.274-.25 2.164.023.891.277.758.067.16-.449-.593-.516-1.792-.606-2.425-.133m.652-2.308c-.547.293-.23.535.231.488.46-.047 1.14-.223 1.671-.051.532.168.262.051.739.328.472.274 1.187.387.195-.39-.992-.782-2.293-.665-2.836-.375M5.828 4.258c.617-.02.465.351.043.539-.426.191-1.101.375-1.473.789-.375.414-.203.18-.476.652-.274.477-.836.934-.367-.238s1.656-1.719 2.273-1.742" style="fill:#955716;fill-opacity:1;fill-rule:nonzero;stroke:none" transform="scale(1.33333)"/>
</svg>
