<svg xmlns="http://www.w3.org/2000/svg" xml:space="preserve" width="24" height="24">
<defs>
<clipPath id="g" clipPathUnits="userSpaceOnUse">
<path d="M0 0h19v19H0Z"/>
</clipPath>
<clipPath id="h" clipPathUnits="userSpaceOnUse">
<path d="m6.707 11.402.703-2.468 3.902 2.468Z"/>
</clipPath>
<clipPath id="a" clipPathUnits="userSpaceOnUse">
<path d="M-22.543-286.093h280.477V-99.11H-22.543Z"/>
</clipPath>
<clipPath id="k" clipPathUnits="userSpaceOnUse">
<path d="M0 0h19v19H0Z"/>
</clipPath>
<clipPath id="l" clipPathUnits="userSpaceOnUse">
<path d="M9.199 10.066v1.336h.227v-1.191z"/>
</clipPath>
<clipPath id="c" clipPathUnits="userSpaceOnUse">
<path d="M444.944-728.121h176.722v353.444H444.944Z"/>
</clipPath>
<clipPath id="o" clipPathUnits="userSpaceOnUse">
<path d="M0 0h19v19H0Z"/>
</clipPath>
<clipPath id="p" clipPathUnits="userSpaceOnUse">
<path d="M0 0h19v19H0Z"/>
</clipPath>
<clipPath id="q" clipPathUnits="userSpaceOnUse">
<path d="M0 0h19v19H0Z"/>
</clipPath>
<clipPath id="r" clipPathUnits="userSpaceOnUse">
<path d="M0 0h19v19H0Z"/>
</clipPath>
<linearGradient id="b" x1="10.583" x2="225.69" y1="-184.68" y2="-184.68" gradientUnits="userSpaceOnUse" spreadMethod="pad">
<stop offset="0" style="stop-opacity:1;stop-color:#fff"/>
<stop offset="1" style="stop-opacity:0;stop-color:#fff"/>
</linearGradient>
<linearGradient id="j" x1="10.583" x2="225.69" y1="-184.68" y2="-184.68" gradientUnits="userSpaceOnUse" spreadMethod="pad">
<stop offset="0" style="stop-opacity:1;stop-color:#fafbfb"/>
<stop offset="1" style="stop-opacity:1;stop-color:#fafbfb"/>
</linearGradient>
<linearGradient id="d" x1="520" x2="410" y1="-620" y2="-620" gradientUnits="userSpaceOnUse" spreadMethod="pad">
<stop offset="0" style="stop-opacity:1;stop-color:#fff"/>
<stop offset="1" style="stop-opacity:0;stop-color:#fff"/>
</linearGradient>
<linearGradient id="n" x1="520" x2="410" y1="-620" y2="-620" gradientUnits="userSpaceOnUse" spreadMethod="pad">
<stop offset="0" style="stop-opacity:1;stop-color:#000"/>
<stop offset="1" style="stop-opacity:1;stop-color:#000"/>
</linearGradient>
<linearGradient id="f" x1="-240.47" x2="-240.47" y1="-60.605" y2="-29.026" gradientTransform="matrix(.18118 0 0 .17805 52.192 15.631)" gradientUnits="userSpaceOnUse" spreadMethod="pad">
<stop offset="0" style="stop-opacity:1;stop-color:#4285db"/>
<stop offset="1" style="stop-opacity:1;stop-color:#42b9db"/>
</linearGradient>
<mask id="i" width="1" height="1" x="0" y="0" maskUnits="userSpaceOnUse">
<g clip-path="url(#a)">
<path d="M-22.543-286.093h280.477V-99.11H-22.543Z" style="fill:url(#b);stroke:none"/>
</g>
</mask>
<mask id="m" width="1" height="1" x="0" y="0" maskUnits="userSpaceOnUse">
<g clip-path="url(#c)">
<path d="M444.944-728.121h176.722v353.444H444.944Z" style="fill:url(#d);stroke:none"/>
</g>
</mask>
<radialGradient id="e" cx="0" cy="0" r="1" fx="0" fy="0" gradientTransform="matrix(0 16.5 -16.5 0 9 .75)" gradientUnits="userSpaceOnUse" spreadMethod="pad">
<stop offset="0" style="stop-opacity:1;stop-color:#a4a4a4"/>
<stop offset="1" style="stop-opacity:1;stop-color:#626262"/>
</radialGradient>
</defs>
<path d="M7.195.836q.135 0 .258-.035a24 24 0 0 1 3.231.008 10.3 10.3 0 0 1 2.836.636q2.278.938 3.121 3.254.476 1.396.566 2.867a21 21 0 0 1-.086 3.696 9 9 0 0 1-.672 2.488q-.957 2.074-3.101 2.859a11.7 11.7 0 0 1-3.575.618 16 16 0 0 1-4.089-.309c-2.481-.551-4.016-2.066-4.594-4.543a14.2 14.2 0 0 1-.336-3.383q-.041-1.821.387-3.59.914-3.468 4.406-4.3A10 10 0 0 1 7.195.836" style="fill:url(#e);fill-rule:evenodd;stroke:none" transform="scale(1.33333)"/>
<path d="m9 10.297-1.73 1.301c0 1.511-.215 1.511-1.297 2.164L9 13.977l3.027-.219c-1.082-.649-1.297-.649-1.297-2.16Z" style="fill:#b3b3b3;fill-opacity:1;fill-rule:nonzero;stroke:none" transform="scale(1.33333)"/>
<path d="M5.973 13.758h6.055v.434H5.973Z" style="fill:#ccc;fill-opacity:1;fill-rule:nonzero;stroke:none" transform="scale(1.33333)"/>
<path d="M4.254 4.074h9.492c.484 0 .879.395.879.883v5.766a.88.88 0 0 1-.879.879H4.254a.88.88 0 0 1-.879-.879V4.957c0-.488.395-.883.879-.883" style="fill:#303030;fill-opacity:1;fill-rule:nonzero;stroke:none" transform="scale(1.33333)"/>
<path d="M4.312 4.277h9.376a.74.74 0 0 1 .746.739v5.648a.74.74 0 0 1-.746.734H4.312a.74.74 0 0 1-.746-.734V5.016a.74.74 0 0 1 .746-.739" style="fill:url(#f);stroke:none" transform="scale(1.33333)"/>
<path d="m7.613 10.723 2.719-2.942 2.262 2.942z" style="fill:#1a1a1a;fill-opacity:1;fill-rule:nonzero;stroke:none" transform="scale(1.33333)"/>
<g clip-path="url(#g)" opacity=".9" transform="scale(1.33333)">
<path d="M7.41 8.934 3.836 11.23a.77.77 0 0 0 .48.172h6.993z" style="fill:#e6e6e6;fill-opacity:1;fill-rule:nonzero;stroke:none"/>
</g>
<path d="m6.707 11.402.703-2.468 3.902 2.468Z" style="fill:#fafbfb;fill-opacity:1;fill-rule:nonzero;stroke:none" transform="scale(1.33333)"/>
<path d="m10.332 7.555-.906.961v2.886h4.258c.207 0 .39-.078.527-.211z" style="fill:#b0b2b5;fill-opacity:1;fill-rule:nonzero;stroke:none" transform="scale(1.33333)"/>
<path d="m10.332 7.555 1.133 3.847h2.219c.207 0 .39-.078.527-.211z" style="fill:#fff;fill-opacity:1;fill-rule:nonzero;stroke:none" transform="scale(1.33333)"/>
<g clip-path="url(#h)" transform="scale(1.33333)">
<g mask="url(#i)" transform="translate(6.482 14.12)scale(.0214)">
<path d="m6.707 11.402.703-2.468 3.902 2.468Z" style="fill:url(#j);stroke:none"/>
</g>
</g>
<g clip-path="url(#k)" opacity=".35" transform="scale(1.33333)">
<g clip-path="url(#l)">
<g mask="url(#m)" transform="translate(6.482 14.12)scale(.00566)">
<path d="M9.199 10.066v1.336h.227v-1.191z" style="fill:url(#n);stroke:none"/>
</g>
</g>
</g>
<g clip-path="url(#o)" opacity=".5" transform="scale(1.33333)">
<path d="M4.902 4.727h3.739c.086 0 .156.066.156.156v2.488c0 .086-.07.156-.156.156H4.902a.156.156 0 0 1-.156-.156V4.883c0-.09.07-.156.156-.156" style="fill:none;stroke:#000;stroke-width:.15597;stroke-linecap:round;stroke-linejoin:round;stroke-miterlimit:4;stroke-dasharray:none;stroke-opacity:.098"/>
<path d="M4.902 4.727h3.739c.086 0 .156.066.156.156v2.488c0 .086-.07.156-.156.156H4.902a.156.156 0 0 1-.156-.156V4.883c0-.09.07-.156.156-.156" style="fill:#000;fill-opacity:1;fill-rule:nonzero;stroke:none"/>
</g>
<g clip-path="url(#p)" opacity=".5" transform="scale(1.33333)">
<path d="M9.574 4.727h3.738c.086 0 .157.066.157.156v2.488a.157.157 0 0 1-.157.156H9.574a.153.153 0 0 1-.152-.156V4.883a.15.15 0 0 1 .152-.156" style="fill:none;stroke:#000;stroke-width:.15597;stroke-linecap:round;stroke-linejoin:round;stroke-miterlimit:4;stroke-dasharray:none;stroke-opacity:.098"/>
<path d="M9.574 4.727h3.738c.086 0 .157.066.157.156v2.488a.157.157 0 0 1-.157.156H9.574a.153.153 0 0 1-.152-.156V4.883a.15.15 0 0 1 .152-.156" style="fill:#000;fill-opacity:1;fill-rule:nonzero;stroke:none"/>
</g>
<g clip-path="url(#q)" opacity=".5" transform="scale(1.33333)">
<path d="M7.238 8.461h3.739c.085 0 .156.07.156.156v2.492a.16.16 0 0 1-.156.157H7.238a.157.157 0 0 1-.156-.157V8.617c0-.086.07-.156.156-.156" style="fill:none;stroke:#000;stroke-width:.15597;stroke-linecap:round;stroke-linejoin:round;stroke-miterlimit:4;stroke-dasharray:none;stroke-opacity:.098"/>
<path d="M7.238 8.461h3.739c.085 0 .156.07.156.156v2.492a.16.16 0 0 1-.156.157H7.238a.157.157 0 0 1-.156-.157V8.617c0-.086.07-.156.156-.156" style="fill:#000;fill-opacity:1;fill-rule:nonzero;stroke:none"/>
</g>
<g clip-path="url(#r)" opacity=".5" transform="scale(1.33333)">
<path d="M5.418 4.879h7.164c.258 0 .465.211.465.469v4.984a.463.463 0 0 1-.465.465H5.418a.467.467 0 0 1-.469-.465V5.348a.47.47 0 0 1 .469-.469" style="fill:#000;fill-opacity:1;fill-rule:nonzero;stroke:none"/>
</g>
<path d="M4.785 4.555h3.746c.086 0 .157.07.157.156v2.496a.157.157 0 0 1-.157.156H4.785a.153.153 0 0 1-.152-.156V4.711c0-.086.066-.156.152-.156" style="fill:none;stroke:#000;stroke-width:.156236;stroke-linecap:round;stroke-linejoin:round;stroke-miterlimit:4;stroke-dasharray:none;stroke-opacity:.098" transform="scale(1.33333)"/>
<path d="M4.785 4.555h3.746c.086 0 .157.07.157.156v2.496a.157.157 0 0 1-.157.156H4.785a.153.153 0 0 1-.152-.156V4.711c0-.086.066-.156.152-.156" style="fill:#fff;fill-opacity:1;fill-rule:nonzero;stroke:none" transform="scale(1.33333)"/>
<path d="M9.469 4.555h3.742c.086 0 .156.07.156.156v2.496c0 .086-.07.156-.156.156H9.469a.155.155 0 0 1-.157-.156V4.711c0-.086.067-.156.157-.156" style="fill:none;stroke:#000;stroke-width:.156236;stroke-linecap:round;stroke-linejoin:round;stroke-miterlimit:4;stroke-dasharray:none;stroke-opacity:.098" transform="scale(1.33333)"/>
<path d="M9.469 4.555h3.742c.086 0 .156.07.156.156v2.496c0 .086-.07.156-.156.156H9.469a.155.155 0 0 1-.157-.156V4.711c0-.086.067-.156.157-.156" style="fill:#fff;fill-opacity:1;fill-rule:nonzero;stroke:none" transform="scale(1.33333)"/>
<path d="M7.129 8.297h3.742c.086 0 .156.07.156.156v2.496c0 .086-.07.156-.156.156H7.129a.154.154 0 0 1-.156-.156V8.453c0-.086.066-.156.156-.156" style="fill:none;stroke:#000;stroke-width:.156236;stroke-linecap:round;stroke-linejoin:round;stroke-miterlimit:4;stroke-dasharray:none;stroke-opacity:.098" transform="scale(1.33333)"/>
<path d="M7.129 8.297h3.742c.086 0 .156.07.156.156v2.496c0 .086-.07.156-.156.156H7.129a.154.154 0 0 1-.156-.156V8.453c0-.086.066-.156.156-.156" style="fill:#fff;fill-opacity:1;fill-rule:nonzero;stroke:none" transform="scale(1.33333)"/>
</svg>
