<svg xmlns="http://www.w3.org/2000/svg" xmlns:xlink="http://www.w3.org/1999/xlink" width="24" height="24">
<defs>
<linearGradient xlink:href="#a" id="f" x1="32" x2="32" y1="54" y2="9" gradientUnits="userSpaceOnUse"/>
<linearGradient xlink:href="#a" id="d" x1="28.385" x2="28.385" y1="27.846" y2="3.615" gradientUnits="userSpaceOnUse"/>
<radialGradient id="b" cx="0" cy="0" r="1" fx="0" fy="0" gradientTransform="matrix(0 16.5 -16.5 0 9 .75)" gradientUnits="userSpaceOnUse" spreadMethod="pad">
<stop offset="0" style="stop-opacity:1;stop-color:#fafafa"/>
<stop offset="1" style="stop-opacity:1;stop-color:silver"/>
</radialGradient>
</defs>
<linearGradient xlink:href="#a" id="e" x1="32" x2="32" y1="54" y2="9" gradientUnits="userSpaceOnUse"/>
<linearGradient xlink:href="#a" id="c" x1="28.385" x2="28.385" y1="27.846" y2="3.615" gradientUnits="userSpaceOnUse"/>
<linearGradient id="a">
<stop offset="0" stop-color="#eff0f1"/>
<stop offset="1" stop-color="#fcfcfc"/>
</linearGradient>
<path d="M7.195.836q.135 0 .258-.035a24 24 0 0 1 3.231.008 10.3 10.3 0 0 1 2.836.636q2.278.938 3.121 3.254.476 1.396.566 2.867a21 21 0 0 1-.086 3.696 9 9 0 0 1-.672 2.488q-.957 2.074-3.101 2.859a11.7 11.7 0 0 1-3.575.618 16 16 0 0 1-4.089-.309c-2.481-.551-4.016-2.066-4.594-4.543a14.2 14.2 0 0 1-.336-3.383q-.041-1.818.387-3.59.914-3.468 4.406-4.3A10 10 0 0 1 7.195.836" style="fill:url(#b);fill-rule:evenodd;stroke:none" transform="scale(1.33333)"/>
<path fill="#2a4f5d" d="M12 5c-1.705.903-3.41 1.272-5.115 1.615v6.731c0 1.885 2.763 4.46 5.115 5.654 2.352-1.194 5.115-3.768 5.115-5.654v-6.73C15.41 6.271 13.705 5.902 12 5"/>
<g stroke-width=".269">
<path fill="#d55443" d="m14.376 6.71-4.743 9.486c.736.687 1.563 1.318 2.367 1.727 1.99-1.01 4.308-3.252 4.308-4.846V7.154a31 31 0 0 1-1.932-.445z"/>
<path fill="url(#c)" d="M16 3.615c-2.886 1.529-5.73 2.112-8.615 2.693v11.846c0 1.9 1.707 4.215 3.88 6.24l9.487-18.975c-1.58-.426-3.16-.96-4.752-1.804" style="fill:url(#d)" transform="matrix(.5 0 0 .5 4 4)"/>
</g>
<g stroke-width=".928">
<path fill="url(#e)" d="m24 14 16 32 8-16h-4l-1 2h-6l-9-18Zm14 20h4l-2 4z" style="fill:url(#f)" transform="translate(3.385 3.385)scale(.26923)"/>
<path fill="#d55443" d="m9.847 7.154-2.154 4.308H8.77l.269-.539h1.615l2.289 4.577h1.077zm0 2.154.538 1.077H9.308Z"/>
</g>
</svg>
