<svg xmlns="http://www.w3.org/2000/svg" width="24" height="24" version="1">
<defs>
<radialGradient id="a" cx="0" cy="0" r="1" fx="0" fy="0" gradientTransform="matrix(0 16.5 -16.5 0 9 .75)" gradientUnits="userSpaceOnUse" spreadMethod="pad">
<stop offset="0" style="stop-opacity:1;stop-color:#a4a4a4"/>
<stop offset="1" style="stop-opacity:1;stop-color:#626262"/>
</radialGradient>
</defs>
<path d="M7.195.836q.135 0 .258-.035a24 24 0 0 1 3.231.008 10.3 10.3 0 0 1 2.836.636q2.278.938 3.121 3.254.476 1.396.566 2.867a21 21 0 0 1-.086 3.696 9 9 0 0 1-.672 2.488q-.957 2.074-3.101 2.859a11.7 11.7 0 0 1-3.575.618 16 16 0 0 1-4.089-.309c-2.481-.551-4.016-2.066-4.594-4.543a14.2 14.2 0 0 1-.336-3.383q-.041-1.821.387-3.59.914-3.468 4.406-4.3A10 10 0 0 1 7.195.836" style="fill:url(#a);fill-rule:evenodd;stroke:none" transform="scale(1.33333)"/>
<g transform="translate(-14.139 8.756)scale(.28846)">
<rect width="39.844" height="52" x="-31.167" y="-116.614" fill="#666" rx="5.805" ry="5.805" style="stroke-width:.87535" transform="scale(1 -1)rotate(90)"/>
<rect width="38.312" height="50" x="-30.401" y="-115.614" fill="#4f4f4f" rx="5.149" ry="5.149" style="stroke-width:.87535" transform="scale(1 -1)rotate(90)"/>
<rect width="1.074" height="12.89" x="90.077" y="14.944" fill="#f9f9f9" rx=".537" ry=".537" style="stroke-width:.537078;paint-order:stroke fill markers"/>
</g>
</svg>
