<svg xmlns="http://www.w3.org/2000/svg" xmlns:xlink="http://www.w3.org/1999/xlink" width="24" height="24">
<defs>
<radialGradient id="a" cx="0" cy="0" r="1" fx="0" fy="0" gradientTransform="matrix(0 22 -22 0 12 1)" gradientUnits="userSpaceOnUse" spreadMethod="pad">
<stop offset="0" style="stop-color:#d9d9d9;stop-opacity:1"/>
<stop offset="1" style="stop-color:#cacbcf;stop-opacity:1"/>
</radialGradient>
</defs>
<linearGradient id="b" x1="386.57" x2="386.57" y1="549.8" y2="497.8" gradientTransform="matrix(.54545 0 0 .53846 177.71 249.75)" gradientUnits="userSpaceOnUse">
<stop offset="0" stop-color="#7f8c8d"/>
<stop offset="1" stop-color="#afb0b3"/>
</linearGradient>
<linearGradient id="c" x1="400.57" x2="400.57" y1="522.8" y2="535.8" gradientUnits="userSpaceOnUse">
<stop offset="0" stop-color="#da4453"/>
<stop offset="1" stop-color="#c72737"/>
</linearGradient>
<path d="M9.593 1.115q.18 0 .344-.047a32 32 0 0 1 4.308.01 13.7 13.7 0 0 1 3.781.849c2.026.833 3.41 2.281 4.162 4.338.42 1.24.676 2.516.754 3.823a28.3 28.3 0 0 1-.114 4.928 12 12 0 0 1-.896 3.317q-1.276 2.766-4.135 3.812a15.6 15.6 0 0 1-4.767.824 21.3 21.3 0 0 1-5.452-.412c-3.308-.734-5.354-2.754-6.125-6.057a19 19 0 0 1-.448-4.51q-.055-2.429.516-4.787 1.218-4.625 5.875-5.734a14 14 0 0 1 2.197-.354" style="fill:url(#a);fill-rule:evenodd;stroke:none;stroke-width:1.33333"/>
<g fill-rule="evenodd" style="stroke-width:2.28147" transform="translate(-2.026 .132)scale(.43831)">
<path fill="#fff" d="M48 27.122C48 35.837 40.837 43 32 43s-16-7.163-16-15.878C16 18.164 23.163 11 32 11s16 7.164 16 16.122" style="stroke-width:2.28147"/>
<use xlink:href="#b" width="100%" height="100%" fill="#1a1a1a" style="stroke-width:2.28147" transform="translate(27 22)"/>
<use xlink:href="#c" width="100%" height="100%" fill="#fff" opacity=".1" style="stroke-width:2.28147" transform="translate(27.003 22.007)"/>
</g>
<path fill="gray" d="M11.709 4.515a7.451 7.451 0 1 0 0 14.903 7.451 7.451 0 0 0 0-14.903m4.566 12.018a6.5 6.5 0 0 1-2.053 1.385 6.4 6.4 0 0 1-2.513.506c-.872 0-1.718-.17-2.513-.506a6.5 6.5 0 0 1-2.053-1.385 6.43 6.43 0 0 1-1.892-4.566A6.43 6.43 0 0 1 7.143 7.4a6.4 6.4 0 0 1 2.053-1.385 6.4 6.4 0 0 1 2.513-.506c.872 0 1.718.17 2.513.507A6.4 6.4 0 0 1 16.275 7.4a6.43 6.43 0 0 1 1.892 4.566 6.43 6.43 0 0 1-1.892 4.566z" style="stroke-width:.999999" transform="translate(.291)"/>
<path fill="#f55" d="M11.709 6.269a2.623 2.623 0 0 0-2.63 2.63v2.63H7.326v4.085a5.7 5.7 0 0 0 4.383 2.05 5.7 5.7 0 0 0 4.383-2.05v-4.086H14.34v-2.63a2.623 2.623 0 0 0-2.63-2.63zm0 .876c1.093 0 1.753.479 1.753 1.754v2.63H9.956v-2.63c0-1.275.66-1.754 1.753-1.754" style="stroke-width:.999999" transform="translate(.291)"/>
<path d="M1.201 15.11q.1.698.252 1.39c.77 3.303 2.817 5.322 6.125 6.057q1.872.383 3.766.433v-3.037c-3.701-.199-5.986-1.902-7.117-4.844Z" style="fill:#949496;fill-opacity:1;stroke-width:.465671"/>
<path fill="#fff" d="m8.641 20.971 2.371-5.372a.35.35 0 0 0 .023-.24.35.35 0 0 0-.434-.243.36.36 0 0 0-.2.14l-3.579 4.69a1.04 1.04 0 0 0-.201.924c.15.558.732.886 1.301.733a1.07 1.07 0 0 0 .72-.632z" style="stroke-width:.245732"/>
<rect width=".246" height="1.72" x="-14.785" y="20.074" fill-rule="evenodd" opacity=".15" rx=".123" style="stroke-width:.245732" transform="scale(-1 1)"/>
<rect width=".246" height="1.72" x="-14.293" y="20.074" fill-rule="evenodd" opacity=".15" rx=".123" style="stroke-width:.245732" transform="scale(-1 1)"/>
<rect width=".246" height="1.72" x="-13.802" y="20.074" fill-rule="evenodd" opacity=".15" rx=".123" style="stroke-width:.245732" transform="scale(-1 1)"/>
<rect width=".246" height="1.72" x="-13.31" y="20.074" fill-rule="evenodd" opacity=".15" rx=".123" style="stroke-width:.245732" transform="scale(-1 1)"/>
<rect width=".246" height="1.72" x="-12.819" y="20.074" fill-rule="evenodd" opacity=".15" rx=".123" style="stroke-width:.245732" transform="scale(-1 1)"/>
<path d="M16.505 20.934a.369.369 0 1 0-.737 0 .369.369 0 0 0 .737 0m-8.355-.368a.491.491 0 1 1-.983 0 .491.491 0 0 1 .983 0" opacity=".15" style="stroke-width:.245732"/>
<path d="M7.904 20.566a.246.246 0 1 0-.491 0 .246.246 0 0 0 .491 0" opacity=".35" style="stroke-width:.245732"/>
</svg>
