<svg xmlns="http://www.w3.org/2000/svg" xml:space="preserve" width="24" height="24" viewBox="0 0 6.35 6.35">
<defs>
<radialGradient id="a" cx="0" cy="0" r="1" fx="0" fy="0" gradientTransform="matrix(0 16.5 -16.5 0 9 .75)" gradientUnits="userSpaceOnUse" spreadMethod="pad">
<stop offset="0" style="stop-opacity:1;stop-color:#fafafa"/>
<stop offset="1" style="stop-opacity:1;stop-color:silver"/>
</radialGradient>
</defs>
<path d="M7.195.836q.135 0 .258-.035a24 24 0 0 1 3.231.008 10.3 10.3 0 0 1 2.836.636q2.278.938 3.121 3.254.476 1.396.566 2.867a21 21 0 0 1-.086 3.696 9 9 0 0 1-.672 2.488q-.957 2.074-3.101 2.859a11.7 11.7 0 0 1-3.575.618 16 16 0 0 1-4.089-.309c-2.481-.551-4.016-2.066-4.594-4.543a14.2 14.2 0 0 1-.336-3.383q-.041-1.818.387-3.59.914-3.468 4.406-4.3A10 10 0 0 1 7.195.836" style="fill:url(#a);fill-rule:evenodd;stroke:none" transform="scale(.35277)"/>
<path fill="#a0ecff" d="M-30.96 1.51c-.88 0-1.588.708-1.588 1.587v3.705c0 .879.708 1.587 1.588 1.587h3.175v1.112c0 .152.058.238.206.207l1.485-1.319h1.483c.88 0 1.588-.708 1.588-1.587V3.097c0-.879-.708-1.587-1.588-1.587z" opacity=".9" style="stroke-width:.26458;paint-order:stroke markers fill" transform="translate(11.114 1.005)scale(.25862)"/>
<path fill="#a0ecff" d="M-34.131 4.685c-.88 0-1.588.708-1.588 1.587v3.705c0 .879.708 1.587 1.588 1.587h3.175v1.112c0 .152.058.238.206.207l1.485-1.319h1.484c.879 0 1.587-.708 1.587-1.587V6.272c0-.88-.708-1.587-1.587-1.587z" opacity=".9" style="opacity:.25734;fill:#5ca4ed;fill-opacity:1;stroke-width:.26458;paint-order:stroke markers fill" transform="translate(11.114 1.005)scale(.25862)"/>
<path d="M-36.782 4.685a1.584 1.584 0 0 0-1.586 1.587v5.292a1.584 1.584 0 0 0 1.586 1.587h1.598l2.378 2.113c.19.04.264-.07.264-.265V13.15h4.757a1.584 1.584 0 0 0 1.587-1.587V8.481l-1.38 1.227a.3.3 0 0 1-.075.005.1.1 0 0 1-.056-.017.15.15 0 0 1-.065-.094.3.3 0 0 1-.011-.101V8.389h-3.175c-.88 0-1.588-.708-1.588-1.587V4.685z" style="fill:#5ca4ed;fill-opacity:1;stroke-width:.26458;paint-order:stroke markers fill" transform="translate(11.114 1.005)scale(.25862)"/>
</svg>
