<svg xmlns="http://www.w3.org/2000/svg" width="24" height="24">
<defs>
<radialGradient id="a" cx="0" cy="0" r="1" fx="0" fy="0" gradientTransform="matrix(0 19.40524 -26.58722 0 12 1)" gradientUnits="userSpaceOnUse">
<stop offset="0" stop-color="#68BBFF" stop-opacity=".875" style="stop-color:#66bcff;stop-opacity:1"/>
<stop offset="1" stop-color="#A99EFF" style="stop-color:#b29aff;stop-opacity:1"/>
</radialGradient>
</defs>
<path fill="url(#a)" fill-rule="evenodd" d="M9.596 1.114q.18.001.344-.046a32 32 0 0 1 4.307.011 13.5 13.5 0 0 1 3.78.848q3.039 1.25 4.158 4.339.64 1.86.756 3.824a28 28 0 0 1-.114 4.923 11.9 11.9 0 0 1-.894 3.32q-1.276 2.764-4.135 3.813a15.6 15.6 0 0 1-4.765.825 21.4 21.4 0 0 1-5.453-.413q-4.967-1.106-6.128-6.056a19 19 0 0 1-.447-4.511 18.5 18.5 0 0 1 .515-4.786q1.217-4.629 5.877-5.736a14 14 0 0 1 2.199-.355" clip-rule="evenodd" style="fill:url(#a)"/>
<path fill-rule="evenodd" d="M11.992 1q-1.026 0-2.052.068-.165.048-.344.046-1.114.09-2.2.355Q5.032 2.03 3.555 3.5H20.45q-1.002-.988-2.424-1.573a13.5 13.5 0 0 0-3.78-.848A32 32 0 0 0 11.992 1" clip-rule="evenodd" opacity=".35"/>
<rect width="1.488" height=".744" x="5.987" y="2.059" opacity=".35" ry=".373" style="fill:#000;stroke-width:1.40646;paint-order:stroke markers fill"/>
<rect width="3.721" height=".744" x="10.139" y="2.059" opacity=".35" ry=".373" style="fill:#000;stroke-width:1.40646;paint-order:stroke markers fill"/>
<rect width=".744" height=".744" x="17.257" y="2.059" opacity=".35" ry=".373" style="fill:#000;stroke-width:1.40646;paint-order:stroke markers fill"/>
<rect width="1.117" height=".744" x="15.769" y="2.059" opacity=".35" ry=".373" style="fill:#000;stroke-width:1.40646;paint-order:stroke markers fill"/>
<rect width=".744" height=".744" x="14.652" y="2.059" opacity=".35" ry=".373" style="fill:#000;stroke-width:1.40646;paint-order:stroke markers fill"/>
<path fill="#fff" d="M9.25 7.616a.686.686 0 0 0-.687.688.687.687 0 0 0 1.375 0 .686.686 0 0 0-.688-.688m4.322 0L12 9.188l2.357 2.357L12 13.902l1.572 1.571 3.928-3.928-1.572-1.572zM7.53 11.741a1.03 1.03 0 0 0-1.03 1.031 1.03 1.03 0 0 0 1.031 1.032 1.03 1.03 0 0 0 1.032-1.032 1.03 1.03 0 0 0-1.032-1.031zm3.094 4.125c-.762 0-1.375.613-1.375 1.375s.613 1.375 1.375 1.375c.76 0 1.375-.613 1.375-1.375s-.613-1.375-1.375-1.375" style="stroke-width:.458333"/>
</svg>
