<svg xmlns="http://www.w3.org/2000/svg" width="24" height="24">
<defs>
<radialGradient id="a" cx="0" cy="0" r="1" fx="0" fy="0" gradientTransform="matrix(0 22 -22 0 12 1)" gradientUnits="userSpaceOnUse" spreadMethod="pad">
<stop offset="0" style="stop-opacity:1;stop-color:#a4a4a4"/>
<stop offset="1" style="stop-opacity:1;stop-color:#626262"/>
</radialGradient>
</defs>
<path d="M9.593 1.115q.18 0 .344-.047a32 32 0 0 1 4.308.01 13.7 13.7 0 0 1 3.781.849c2.026.833 3.41 2.28 4.162 4.338.42 1.24.676 2.516.754 3.823a28.3 28.3 0 0 1-.114 4.928 12 12 0 0 1-.896 3.317q-1.276 2.766-4.135 3.812a15.6 15.6 0 0 1-4.767.824 21.3 21.3 0 0 1-5.452-.412c-3.308-.734-5.354-2.754-6.125-6.057a19 19 0 0 1-.448-4.51q-.055-2.429.516-4.787 1.218-4.625 5.875-5.734a14 14 0 0 1 2.197-.354" style="fill:url(#a);fill-rule:evenodd;stroke:none;stroke-width:1.33333"/>
<g fill="#fff" style="fill:none">
<path d="M19.355 12A7.336 7.336 0 0 0 12 4.645 7.337 7.337 0 0 0 4.645 12 7.337 7.337 0 0 0 12 19.355 7.337 7.337 0 0 0 19.355 12m-4.665 0A2.68 2.68 0 0 1 12 14.692 2.68 2.68 0 0 1 9.307 12c0-1.48 1.091-2.69 2.692-2.69 1.6 0 2.691 1.239 2.691 2.69" opacity=".75"/>
<path d="M12 8.32a3.68 3.68 0 1 0 0 7.36 3.68 3.68 0 0 0 0-7.36m0 1.839a1.841 1.841 0 1 1 0 3.682 1.841 1.841 0 0 1-.002-3.682z" opacity=".35"/>
</g>
<path d="M18.418 11.398a8.465 8.465 0 0 0-8.465 8.465 8.5 8.5 0 0 0 .586 3.094 21 21 0 0 0 2.49.012 15.6 15.6 0 0 0 4.768-.825q2.859-1.045 4.135-3.81.686-1.594.896-3.318.126-1.14.158-2.28a8.47 8.47 0 0 0-4.568-1.338" style="fill:#2cc36c;fill-opacity:1;stroke-width:2.66697"/>
<path d="m21.559 16.045-4.82 4.82-2.067-2.066-1.379 1.379 2.5 2.498a16 16 0 0 0 2.004-.531q.375-.137.72-.303l3.325-3.326q.046-.09.09-.182c.2-.463.363-.935.502-1.414z" style="fill:#fcfcfc;fill-rule:evenodd;stroke:none;stroke-width:1.33333;fill-opacity:1"/>
</svg>
