<svg xmlns="http://www.w3.org/2000/svg" width="24" height="24" fill="none">
<path fill="url(#a)" fill-rule="evenodd" d="M9.596 1.114q.18.001.344-.046a32 32 0 0 1 4.307.011q1.951.153 3.78.848 3.038 1.25 4.158 4.339.64 1.86.756 3.824a28 28 0 0 1-.114 4.923 11.9 11.9 0 0 1-.894 3.32q-1.276 2.764-4.135 3.813a15.6 15.6 0 0 1-4.765.825 21.4 21.4 0 0 1-5.453-.413q-4.967-1.106-6.128-6.056a19 19 0 0 1-.447-4.511 18.5 18.5 0 0 1 .515-4.786q1.217-4.629 5.877-5.736a14 14 0 0 1 2.199-.355" clip-rule="evenodd"/>
<path fill="url(#b)" stroke="url(#c)" stroke-width=".917" d="m18.13 12.515.023.022.025.019 1.58 1.2a.23.23 0 0 1 .059.296l-2.143 3.706a.23.23 0 0 1-.287.096l-1.728-.729c-.157-.066-.478-.149-.764.066a.88.88 0 0 0-.335.6l-.228 1.838a.23.23 0 0 1-.228.2H9.896a.23.23 0 0 1-.228-.2l-.23-1.852c-.018-.151-.086-.441-.368-.605a.87.87 0 0 0-.792-.036l-1.682.716a.23.23 0 0 1-.289-.097l-2.126-3.702a.23.23 0 0 1 .06-.297l1.503-1.14c.075-.057.279-.228.279-.52v-.191c0-.293-.204-.464-.279-.52l-1.5-1.14a.23.23 0 0 1-.06-.297l2.125-3.673a.23.23 0 0 1 .286-.097l1.753.72c.162.067.451.133.725-.038a.82.82 0 0 0 .366-.607l.23-1.882a.23.23 0 0 1 .228-.2h4.206a.23.23 0 0 1 .228.2l.23 1.889c.018.143.086.463.404.617l.025.012c.261.118.528.08.726-.002l1.69-.705a.23.23 0 0 1 .286.096l2.125 3.67a.23.23 0 0 1-.06.297l-1.501 1.14c-.075.056-.279.227-.279.52v.092a.56.56 0 0 0 .154.518Zm-6.187 2.674c.873 0 1.633-.316 2.253-.936s.936-1.38.936-2.253-.316-1.633-.936-2.253a3.1 3.1 0 0 0-2.253-.936c-.863 0-1.618.318-2.242.934A3.07 3.07 0 0 0 8.753 12c0 .875.321 1.635.948 2.255.624.616 1.379.934 2.242.934Z"/>
<defs>
<linearGradient id="b" x1="12" x2="12" y1="3.712" y2="20.288" gradientUnits="userSpaceOnUse">
<stop stop-color="#FAFAFA"/>
<stop offset="1" stop-color="silver"/>
</linearGradient>
<linearGradient id="c" x1="12" x2="12" y1="3.712" y2="20.288" gradientUnits="userSpaceOnUse">
<stop stop-color="#E1E1E1"/>
<stop offset="1" stop-color="#828282"/>
</linearGradient>
<radialGradient id="a" cx="0" cy="0" r="1" gradientTransform="matrix(0 11 -11 0 12 1)" gradientUnits="userSpaceOnUse">
<stop stop-color="#777"/>
<stop offset="1" stop-color="#444"/>
</radialGradient>
</defs>
</svg>
