<svg xmlns="http://www.w3.org/2000/svg" xmlns:xlink="http://www.w3.org/1999/xlink" xml:space="preserve" width="24" height="24" viewBox="0 0 6.35 6.35">
<defs>
<linearGradient id="a" x1="12" x2="12" y1="2.958" y2="21.042" gradientTransform="matrix(0 -.08333 -.08333 0 2 1)" gradientUnits="userSpaceOnUse" spreadMethod="pad">
<stop offset="0" style="stop-opacity:1;stop-color:#fff"/>
<stop offset="1" style="stop-opacity:1;stop-color:#d8d8d8"/>
</linearGradient>
<linearGradient xlink:href="#a" id="c" x1="12" x2="12" y1="2.958" y2="21.042" gradientTransform="matrix(0 -.08333 -.08333 0 2 1)" gradientUnits="userSpaceOnUse" spreadMethod="pad"/>
<radialGradient id="b" cx="0" cy="0" r="1" fx="0" fy="0" gradientTransform="matrix(0 8.25 -8.25 0 9 .75)" gradientUnits="userSpaceOnUse" spreadMethod="pad">
<stop offset="0" style="stop-opacity:1;stop-color:#bee9a6"/>
<stop offset="1" style="stop-opacity:1;stop-color:#88ba65"/>
</radialGradient>
</defs>
<path d="M7.195.836q.135 0 .258-.035a24 24 0 0 1 3.231.008 10.3 10.3 0 0 1 2.836.636q2.278.938 3.121 3.254.476 1.396.566 2.867a21 21 0 0 1-.086 3.696 9 9 0 0 1-.672 2.488q-.957 2.074-3.101 2.859a11.7 11.7 0 0 1-3.575.618 16 16 0 0 1-4.089-.309c-2.481-.551-4.016-2.066-4.594-4.543a14.2 14.2 0 0 1-.336-3.383q-.041-1.821.387-3.59.914-3.468 4.406-4.3A10 10 0 0 1 7.195.836" style="fill:url(#b);fill-rule:evenodd;stroke:none" transform="scale(.35277)"/>
<path d="m13.598 9.387.015.015.02.016 1.183.898a.17.17 0 0 1 .047.223l-1.609 2.777a.166.166 0 0 1-.215.075l-1.293-.547c-.121-.051-.359-.114-.574.051a.67.67 0 0 0-.254.449l-.168 1.379a.173.173 0 0 1-.172.148H7.422a.173.173 0 0 1-.172-.148l-.172-1.391a.57.57 0 0 0-.277-.453q-.007-.006-.02-.012a.66.66 0 0 0-.574-.015l-1.262.539a.176.176 0 0 1-.215-.075l-1.593-2.777a.175.175 0 0 1 .043-.223l1.129-.855a.5.5 0 0 0 .207-.391v-.14a.5.5 0 0 0-.207-.391l-1.125-.855a.17.17 0 0 1-.047-.223L4.73 4.707a.176.176 0 0 1 .215-.074l1.317.543a.6.6 0 0 0 .543-.031.61.61 0 0 0 .273-.454l.172-1.414a.173.173 0 0 1 .172-.148h3.156c.086 0 .16.062.168.148l.176 1.418c.012.106.062.348.301.461l.019.012a.7.7 0 0 0 .547-.004l1.266-.527a.17.17 0 0 1 .215.07l1.593 2.754a.17.17 0 0 1-.047.223l-1.125.855a.5.5 0 0 0-.207.391v.066l-.004.02a.42.42 0 0 0 .118.371zm-4.641 2.004c.656 0 1.227-.235 1.691-.7.465-.464.7-1.035.7-1.691s-.235-1.227-.7-1.691a2.3 2.3 0 0 0-1.691-.7 2.32 2.32 0 0 0-1.68.7A2.3 2.3 0 0 0 6.566 9c0 .656.239 1.227.711 1.691a2.32 2.32 0 0 0 1.68.7z" style="fill:url(#c);fill-opacity:1;fill-rule:nonzero;stroke:url(#preferences-plugin_svg__linearGradient22565);stroke-width:.6875;stroke-linecap:butt;stroke-linejoin:miter;stroke-miterlimit:4;stroke-dasharray:none;stroke-opacity:1" transform="scale(.35277)"/>
</svg>
