<svg xmlns="http://www.w3.org/2000/svg" width="24" height="24">
<defs>
<radialGradient id="a" cx="0" cy="0" r="1" fx="0" fy="0" gradientTransform="matrix(0 16.5 -16.5 0 9 .75)" gradientUnits="userSpaceOnUse" spreadMethod="pad">
<stop offset="0" style="stop-opacity:1;stop-color:#fafafa"/>
<stop offset="1" style="stop-opacity:1;stop-color:silver"/>
</radialGradient>
</defs>
<path d="M7.195.836q.135 0 .258-.035a24 24 0 0 1 3.231.008 10.3 10.3 0 0 1 2.836.636q2.278.938 3.121 3.254.476 1.396.566 2.867a21 21 0 0 1-.086 3.696 9 9 0 0 1-.672 2.488q-.957 2.074-3.101 2.859a11.7 11.7 0 0 1-3.575.618 16 16 0 0 1-4.089-.309c-2.481-.551-4.016-2.066-4.594-4.543a14.2 14.2 0 0 1-.336-3.383q-.041-1.818.387-3.59.914-3.468 4.406-4.3A10 10 0 0 1 7.195.836" style="fill:url(#a);fill-rule:evenodd;stroke:none" transform="scale(1.33333)"/>
<g transform="translate(-3.022 2.9)scale(.28889)">
<path fill="#474f50" d="m51.376 15.22-10 8L41 24v11.52l-9.626 7.7 1.25 1.56L42 37.28l9.376 7.5 1.248-1.56L43 35.52V24.48l9-7.2 9 7.2V36l.376.78 10 8 1.25-1.56L63 35.52V24l-.376-.78-10-8z"/>
<rect width="12" height="12" x="46" y="9" fill="#e16e7b" rx="1.5"/>
<rect width="12" height="12" x="36" y="23" fill="#a779be" rx="1.5"/>
<rect width="12" height="12" x="56" y="23" fill="#a779be" rx="1.5"/>
<g fill="#58b072" transform="translate(20)">
<rect width="12" height="12" x="42" y="42" rx="1.5"/>
<rect width="12" height="12" x="26" y="42" rx="1.5"/>
<rect width="12" height="12" x="10" y="42" rx="1.5"/>
</g>
</g>
</svg>
