<svg xmlns="http://www.w3.org/2000/svg" width="24" height="24">
<path d="M9.593 1.115q.18 0 .344-.047a32 32 0 0 1 4.308.01 13.7 13.7 0 0 1 3.781.849c2.026.833 3.41 2.281 4.162 4.338.42 1.24.676 2.516.754 3.823a28.3 28.3 0 0 1-.114 4.928 12 12 0 0 1-.896 3.317q-1.276 2.766-4.135 3.812a15.6 15.6 0 0 1-4.767.824 21.3 21.3 0 0 1-5.452-.412c-3.308-.734-5.354-2.754-6.125-6.057a19 19 0 0 1-.448-4.51 18.5 18.5 0 0 1 .516-4.787q1.218-4.625 5.875-5.734a14 14 0 0 1 2.197-.354" style="fill:#4e7aa2;fill-opacity:1;fill-rule:evenodd;stroke:none;stroke-width:1.33333"/>
<path fill="#fff" d="M69.938 21c-2.42.001-4.813 2.107-4.813 5.5H63.75c-1.519 0-2.75 1.539-2.75 3.438V32h-2.062a4.813 4.813 0 0 0-4.813 4.813c0 2.658 1.817 4.812 4.125 4.812 1.375 0 2.397-.707 2.75-1.375 1.018 1.375 3.62 2.75 5.5 2.75 2.026 0 4.194-1.202 5.5-2.75 1.04 1.536 2.41 2.75 4.126 2.75 2.267 0 4.125-.806 5.5-2.75 1.006.903 1.397 1.374 2.75 1.375a5.5 5.5 0 1 0 0-11c-.982 0-2.08.63-2.75 1.375 0-3.519-1.912-5.5-5.5-5.5H74.75c0-4.125-2.474-5.501-4.813-5.5zm.688 6.875h5.5v1.375L72 30.625c-.002 2.013-.005 4.313 0 5.184.005 1.29-1.13 2.51-2.719 2.923-1.856.483-3.68-.294-4.078-1.734-.397-1.44.782-3 2.64-3.48.972-.253 1.987-.164 2.782.24z" style="stroke-width:2.75008" transform="translate(-14.181 .364)scale(.36363)"/>
</svg>
