<svg xmlns="http://www.w3.org/2000/svg" width="24" height="24">
<defs>
<radialGradient id="a" cx="0" cy="0" r="1" fx="0" fy="0" gradientTransform="matrix(0 16.5 -16.5 0 9 .75)" gradientUnits="userSpaceOnUse" spreadMethod="pad">
<stop offset="0" style="stop-opacity:1;stop-color:#fafafa"/>
<stop offset="1" style="stop-opacity:1;stop-color:silver"/>
</radialGradient>
</defs>
<path d="M7.195.836q.135 0 .258-.035a24 24 0 0 1 3.231.008 10.3 10.3 0 0 1 2.836.636q2.278.938 3.121 3.254.476 1.396.566 2.867a21 21 0 0 1-.086 3.696 9 9 0 0 1-.672 2.488q-.957 2.074-3.101 2.859a11.7 11.7 0 0 1-3.575.618 16 16 0 0 1-4.089-.309c-2.481-.551-4.016-2.066-4.594-4.543a14.2 14.2 0 0 1-.336-3.383q-.041-1.818.387-3.59.914-3.468 4.406-4.3A10 10 0 0 1 7.195.836" style="fill:url(#a);fill-rule:evenodd;stroke:none" transform="scale(1.33333)"/>
<g stroke-width="4.724" style="stroke-width:4.02389">
<path fill="#2ec27e" d="M23.783 17.913a5.857 5.857 0 0 0-5.87 5.87V37.87a5.857 5.857 0 0 0 5.87 5.87h10.565l5.87 4.695v-4.696a5.857 5.857 0 0 0 5.87-5.87V23.784a5.857 5.857 0 0 0-5.87-5.87z" style="stroke-width:4.72405;paint-order:normal" transform="translate(-2.678 -3.216)scale(.45869)"/>
<path fill="#f9f9f9" d="M29.065 24.957a1.761 1.761 0 1 0 0 3.522 1.761 1.761 0 0 0 0-3.522m5.87 0a1.761 1.761 0 1 0 0 3.522 1.761 1.761 0 0 0 0-3.522m-8.805 5.87a5.87 5.87 0 0 0 11.74 0h-2.348a3.522 3.522 0 1 1-7.044 0z" style="stroke-width:4.72405;paint-order:normal" transform="translate(-2.678 -3.216)scale(.45869)"/>
</g>
</svg>
