<svg xmlns="http://www.w3.org/2000/svg" width="24" height="24">
<path d="M9.593 1.115q.18 0 .344-.047a32 32 0 0 1 4.308.01 13.7 13.7 0 0 1 3.781.849c2.026.833 3.41 2.281 4.162 4.338.42 1.24.676 2.516.754 3.823a28.3 28.3 0 0 1-.114 4.928 12 12 0 0 1-.896 3.317q-1.276 2.766-4.135 3.812a15.6 15.6 0 0 1-4.767.824 21.3 21.3 0 0 1-5.452-.412c-3.308-.734-5.354-2.754-6.125-6.057a19 19 0 0 1-.448-4.51 18.5 18.5 0 0 1 .516-4.787q1.218-4.625 5.875-5.734a14 14 0 0 1 2.197-.354" style="fill:#f2f2f2;fill-opacity:1;fill-rule:evenodd;stroke:none;stroke-width:1.33333"/>
<g style="stroke-width:2.34938">
<path fill="#c0274b" d="M57.362 19.087a.714.714 0 0 0-.623.697v12.694c0 .371.33.698.697.698h6.346v2.347h-4.696v2.348h8.548v-4.66l-2.716-2.383H59.6a.5.5 0 0 1-.476-.477v-8.438c-.005-.22.151-.436.367-.477a.4.4 0 0 1 .11 0h13.06c.248 0 .477.234.477.477v3.375h2.384v-5.503a.72.72 0 0 0-.697-.698" style="stroke-width:2.34938" transform="translate(-18.65 -1.62)scale(.42564)"/>
<path fill="#283751" d="m73.327 26.13 2.898 2.348h8.181c.248 0 .477.229.477.476v8.439a.5.5 0 0 1-.477.476h-13.06a.5.5 0 0 1-.476-.476v-1.321l-2.372-2.09v5.539a.71.71 0 0 0 .698.697h6.346v2.348h-4.696v2.348h14.087v-2.348h-4.695v-2.348h6.333c.37 0 .71-.325.71-.697V26.827c0-.368-.33-.697-.71-.697" style="stroke-width:2.34938" transform="translate(-18.65 -1.62)scale(.42564)"/>
<path fill="#ea8e00" fill-rule="evenodd" d="M61.435 26.13 72 35.521v-5.87l8.217 3.522-11.739-9.39v4.401L61.44 26.13" style="stroke-width:2.34938" transform="translate(-18.65 -1.62)scale(.42564)"/>
</g>
</svg>
