<svg xmlns="http://www.w3.org/2000/svg" width="24" height="24" fill="none">
<path fill="url(#a)" fill-rule="evenodd" d="M9.596 1.114q.18.001.344-.046a32 32 0 0 1 4.307.011q1.951.153 3.78.848 3.038 1.25 4.158 4.339.64 1.86.756 3.824a28 28 0 0 1-.114 4.923 11.9 11.9 0 0 1-.894 3.32q-1.276 2.764-4.135 3.813a15.6 15.6 0 0 1-4.765.825 21.4 21.4 0 0 1-5.453-.413q-4.967-1.106-6.128-6.056a19 19 0 0 1-.447-4.511 18.5 18.5 0 0 1 .515-4.786q1.217-4.629 5.877-5.736a14 14 0 0 1 2.199-.355" clip-rule="evenodd"/>
<path fill="#fff" fill-rule="evenodd" d="M12.655 4.667h1.31v3.98a5.1 5.1 0 0 1 2.618-.707c2.532 0 4.584 1.76 4.584 3.929 0 2.17-2.052 3.929-4.584 3.929a5.13 5.13 0 0 1-2.619-.711v1.365h-1.31V4.667Zm-2.62 2.619h1.31V19.07h-1.31v-3.98a5.13 5.13 0 0 1-2.618.707c-2.532 0-4.584-1.759-4.584-3.929S4.885 7.94 7.417 7.94a5.1 5.1 0 0 1 2.619.712zM7.418 9.25c-1.808 0-3.274 1.173-3.274 2.619s1.466 2.62 3.274 2.62c1.031-.002 2.002-.393 2.619-1.055v-3.131C9.419 9.64 8.448 9.25 7.416 9.25Zm9.166 0c-1.031.001-2.002.392-2.619 1.054v3.132c.617.66 1.588 1.051 2.62 1.052 1.807 0 3.273-1.173 3.273-2.619S18.392 9.25 16.584 9.25" clip-rule="evenodd"/>
<defs>
<linearGradient id="a" x1="12" x2="12" y1="1" y2="12" gradientUnits="userSpaceOnUse">
<stop stop-color="#7DB9FF"/>
<stop offset="1" stop-color="#197CF1"/>
</linearGradient>
</defs>
</svg>
