<svg xmlns="http://www.w3.org/2000/svg" xml:space="preserve" width="24" height="24" viewBox="0 0 6.35 6.35">
<defs>
<radialGradient id="a" cx="0" cy="0" r="1" gradientTransform="rotate(90 -20.295 64.47)scale(5.82083)" gradientUnits="userSpaceOnUse">
<stop stop-color="#555"/>
<stop offset="1" stop-color="#222"/>
</radialGradient>
</defs>
<path fill="url(#a)" fill-rule="evenodd" d="M43.539 84.795a.3.3 0 0 0 .09-.012 8 8 0 0 1 1.14.003q.517.04 1 .224.805.33 1.1 1.148.17.492.2 1.012.044.653-.03 1.303a3.1 3.1 0 0 1-.236.878 1.87 1.87 0 0 1-1.094 1.009q-.613.206-1.26.218a5.7 5.7 0 0 1-1.443-.11q-1.315-.292-1.622-1.602a5 5 0 0 1-.118-1.193q-.014-.642.136-1.267.322-1.224 1.555-1.517.288-.07.582-.094" clip-rule="evenodd" style="fill:url(#a);stroke-width:.264583" transform="translate(-41 -84.5)"/>
<path d="M-49.795 5a7.039 7.039 0 0 0-2.219 13.719c-.656-1.807-1.156-4.599-1.459-5.943-.15-.593-.057-1.183.042-1.781.21-.62.276-1.26.557-1.859.433-.37.443-1.048.86-1.37.063.037.104.051.136.067h.047c.062-.062-.584-.718.014-.458.022-.344.563-.078.568-.38v-.006c.266.219.22.131.568.09.407-.256.594.604.76.124.49.062 1.016.218 1.486.376.473.104.905.358 1.224.728h-.006l.228.297c.027.052.058.11.08.161.092.776.978.766 1.567 1.042.505.177 1.115.444 1.177 1.037-.125-.027-.62-.59-1.005-.647a2.5 2.5 0 0 1-.724-.166l-1.365-.244V9.78a1.4 1.4 0 0 1-.203-.032v.006l-1.932-.228c.03.02.068.046.093.077l1.984.375v-.006l.136.032.552.126c.115.005.224.025.312.041.568.15 1.235.125 1.7.51-.12.225-.798.094-1.137.067-.041-.009-.088-.014-.124-.02-.01 0-.016-.005-.027-.005-.458-.073-.926-.079-1.369.057h-.005c-.156.047-.308.11-.443.192-.641.36-1.428.496-1.959 1.016-.52.542-.489 1.292-.4 1.984h.02v.178q.015.095.031.182c.265 1.407.99 2.698 1.208 4.12.016.172.043.359.057.547a7.039 7.039 0 0 0-1.03-14zm1.088 3.396c-.214.005-.38.083-.427.213-.073.214.183.484.573.615.391.136.771.073.844-.141.078-.214-.177-.49-.573-.619a1.3 1.3 0 0 0-.417-.068" style="fill:#ff8b3c;fill-opacity:1;fill-rule:nonzero;stroke:none;stroke-width:1.33333" transform="translate(16.35)scale(.26458)"/>
</svg>
