<svg xmlns="http://www.w3.org/2000/svg" xmlns:xlink="http://www.w3.org/1999/xlink" xml:space="preserve" width="24" height="24" fill="none">
<defs>
<radialGradient xlink:href="#a" id="b" cx="12" cy=".875" r="11" fx="12" fy=".875" gradientTransform="matrix(0 1.99432 -2.36784 0 14.072 -23.057)" gradientUnits="userSpaceOnUse"/>
<linearGradient id="a">
<stop offset="0" style="stop-color:#555;stop-opacity:1"/>
<stop offset="1" style="stop-color:#222;stop-opacity:1"/>
</linearGradient>
</defs>
<path d="M12 1C2 1 1 6 1 12c0 8 3 11 11 11s11-3 11-11c0-6-1-11-11-11" style="font-variation-settings:normal;display:inline;opacity:1;vector-effect:none;fill:url(#b);fill-opacity:1;stroke-width:1.11627;stroke-linecap:butt;stroke-linejoin:miter;stroke-miterlimit:4;stroke-dasharray:none;stroke-dashoffset:0;stroke-opacity:1;-inkscape-stroke:none;stop-color:#000;stop-opacity:1"/>
<path d="M10.365 6.384c-.009.336-.594.043-.619.426-.647-.288.05.44-.014.508h-.005l-.048-.004a1 1 0 0 1-.144-.072c-.452.36-.463 1.11-.93 1.525-.305.661-.38 1.378-.604 2.072-.11.66-.207 1.32-.043 1.98.049.537-.106 1.267.383 1.641.726.596 1.33 1.35 1.934 2.072a28.4 28.4 0 0 1 2.547 3.745c.05-.326.17.653.389.72a29 29 0 0 1-.221-1.873c-.243-1.58-1.02-3.008-1.314-4.573l-.029-.201v-.196h-.024c-.096-.774-.13-1.612.431-2.21.574-.579 1.43-.725 2.118-1.127q.232-.136.479-.216h.005c.478-.148.99-.143 1.487-.062l.024.004.139.024c.363.033 1.095.175 1.227-.076-.501-.429-1.226-.398-1.841-.567a4 4 0 0 0-.336-.048l-.6-.134-.149-.038v.005l-2.148-.418a1 1 0 0 0-.106-.086l2.087.26v-.01q.11.025.221.038v.005l1.476.273c.255.095.527.166.782.183.42.06.956.689 1.092.72-.068-.662-.727-.958-1.275-1.152-.64-.311-1.596-.299-1.704-1.16q-.038-.09-.086-.178l-.248-.331.01-.005a2.46 2.46 0 0 0-1.33-.806c-.505-.175-1.072-.348-1.611-.417-.181.534-.384-.424-.82-.14-.382.046-.33.147-.613-.095Zm2.747 1.565a1.3 1.3 0 0 1 .455.077c.424.146.7.456.619.69-.081.235-.493.306-.916.159-.424-.148-.7-.45-.619-.686.051-.148.23-.234.46-.24z" style="fill:#f60;stroke-width:.999999"/>
</svg>
