<svg xmlns="http://www.w3.org/2000/svg" width="24" height="24" viewBox="0 0 6.35 6.35">
<defs>
<radialGradient id="a" cx="0" cy="0" r="1" gradientTransform="rotate(90 1.455 1.72)scale(5.82072)" gradientUnits="userSpaceOnUse">
<stop offset="0" stop-color="#555" style="stop-color:#707070;stop-opacity:1"/>
<stop offset="1" stop-color="#222" style="stop-color:#4d4d4d;stop-opacity:1"/>
</radialGradient>
</defs>
<path fill="url(#a)" fill-rule="evenodd" d="M2.539.295a.3.3 0 0 0 .09-.012 8 8 0 0 1 1.14.003 3.5 3.5 0 0 1 1 .224q.804.33 1.1 1.148.17.492.2 1.012a7.3 7.3 0 0 1-.03 1.302 3.1 3.1 0 0 1-.236.879 1.87 1.87 0 0 1-1.094 1.008 4.1 4.1 0 0 1-1.26.219 5.7 5.7 0 0 1-1.444-.11Q.693 5.676.385 4.366a5 5 0 0 1-.12-1.194 5 5 0 0 1 .137-1.266Q.724.682 1.957.39q.287-.071.582-.094Z" clip-rule="evenodd" style="fill:url(#a);stroke-width:.264578"/>
<g style="stroke-width:3.07725" transform="translate(-3.016 .424)scale(.32497)">
<circle cx="16.271" cy="5.689" r="2.514" fill="#fff" style="stroke-width:.814179"/>
<circle cx="21.827" cy="5.686" r="2.514" fill="#333" style="stroke-width:.814179"/>
<circle cx="16.271" cy="11.243" r="2.514" fill="#333" style="stroke-width:.814179"/>
<circle cx="21.828" cy="11.244" r="2.514" fill="#fff" style="stroke-width:.814179"/>
</g>
</svg>
