<svg xmlns="http://www.w3.org/2000/svg" width="24" height="24">
<defs>
<radialGradient id="a" cx="0" cy="0" r="1" gradientTransform="matrix(0 22 -22 0 12 1)" gradientUnits="userSpaceOnUse">
<stop stop-color="#555"/>
<stop offset="1" stop-color="#222"/>
</radialGradient>
</defs>
<path fill="url(#a)" fill-rule="evenodd" d="M9.596 1.114q.18.001.344-.046a32 32 0 0 1 4.307.011q1.951.153 3.78.848 3.038 1.25 4.158 4.339.64 1.86.756 3.824a28 28 0 0 1-.115 4.923 11.9 11.9 0 0 1-.893 3.32q-1.276 2.764-4.135 3.813a15.6 15.6 0 0 1-4.766.825 21.4 21.4 0 0 1-5.452-.412q-4.967-1.107-6.128-6.057a19 19 0 0 1-.447-4.511 18.5 18.5 0 0 1 .515-4.786q1.217-4.629 5.877-5.736a14 14 0 0 1 2.199-.355" clip-rule="evenodd" style="fill:url(#a)"/>
<g fill="#fff" style="stroke-width:3.2">
<path d="M31 12v4h-3v-4z" opacity=".5" style="stroke-width:3.2" transform="translate(-4.25 2)scale(.3125)"/>
<path d="m61.999 32-15 11V21Z" opacity=".35" style="stroke-width:3.2" transform="translate(-4.25 2)scale(.3125)"/>
<path d="M11.378 26.884h1.207l2.063 3.086 2.074-3.086h1.207l-2.67 3.987 2.848 4.315H16.9l-2.336-3.53-2.352 3.53H11l2.964-4.432zm11.822 0h1.123v7.724q0 1.501-.572 2.18-.568.678-1.83.678h-.428v-.945h.35q.745 0 1.051-.417t.306-1.496zm6.145 5.172q-1.24 0-1.718.284-.479.283-.479.967 0 .545.356.868.362.317.979.317.85 0 1.362-.601.518-.606.518-1.607v-.228zm2.04-.423v3.554h-1.022v-.946q-.35.568-.873.84-.523.267-1.28.267-.956 0-1.523-.534-.562-.54-.562-1.44 0-1.051.701-1.585.706-.534 2.102-.534h1.435v-.1q0-.706-.468-1.09-.461-.389-1.3-.389-.535 0-1.04.128t-.974.384v-.946q.562-.217 1.09-.322.529-.111 1.029-.111 1.351 0 2.018.7.668.7.668 2.124zm6.206-1.729v-3.37h1.023v8.653h-1.023v-.935q-.323.556-.817.829-.49.267-1.18.267-1.128 0-1.84-.901-.706-.9-.706-2.369t.706-2.369q.712-.9 1.84-.9.69 0 1.18.272.494.267.817.823m-3.487 2.174q0 1.129.462 1.774.467.64 1.279.64t1.279-.64q.467-.645.467-1.774t-.467-1.768q-.467-.645-1.28-.645-.81 0-1.278.645-.462.64-.462 1.768m11.945-.262v.5h-4.704q.066 1.057.634 1.613.572.55 1.59.55.59 0 1.14-.144.556-.145 1.1-.434v.968q-.55.233-1.128.356t-1.173.122q-1.49 0-2.363-.867-.868-.868-.868-2.347 0-1.53.823-2.425.829-.9 2.23-.9 1.257 0 1.985.812.734.806.734 2.196m-1.023-.3q-.011-.84-.473-1.34-.456-.5-1.212-.5-.856 0-1.374.483-.511.484-.589 1.362zm5.116-1.84q-.823 0-1.301.645-.478.64-.478 1.757t.472 1.763q.478.64 1.307.64.817 0 1.296-.646t.478-1.757q0-1.106-.478-1.751-.479-.651-1.296-.651m0-.867q1.335 0 2.096.867T53 32.078q0 1.53-.762 2.402-.761.868-2.096.868-1.34 0-2.102-.868-.756-.873-.756-2.402 0-1.535.756-2.402.762-.867 2.102-.867" aria-label="X Jadeo" style="stroke-width:.912002" transform="translate(2 2)scale(.3125)"/>
<path d="M36 12v4h-3v-4zm5 0v4h-3v-4zm5 0v4h-3v-4zm5 0v4h-3v-4zm5 0v4h-3v-4zm5 0v4h-3v-4zm5 0v4h-3v-4zm5 0v4h-3v-4zm5 0v4h-3v-4ZM31 48v4h-3v-4zm5 0v4h-3v-4zm5 0v4h-3v-4zm5 0v4h-3v-4zm5 0v4h-3v-4zm5 0v4h-3v-4zm5 0v4h-3v-4zm5 0v4h-3v-4zm5 0v4h-3v-4zm5 0v4h-3v-4z" opacity=".5" style="stroke-width:3.2" transform="translate(-4.25 2)scale(.3125)"/>
</g>
</svg>
