<svg xmlns="http://www.w3.org/2000/svg" xmlns:xlink="http://www.w3.org/1999/xlink" xml:space="preserve" width="24" height="24" fill="none">
<defs>
<linearGradient id="a">
<stop offset="0" style="stop-color:#175261;stop-opacity:1"/>
<stop offset="1" style="stop-color:#09738e;stop-opacity:1"/>
</linearGradient>
<linearGradient xlink:href="#a" id="b" x1="50.811" x2="50.256" y1="92.88" y2="12.926" gradientTransform="translate(-.222 -.222)scale(.24444)" gradientUnits="userSpaceOnUse"/>
</defs>
<path d="M12 1C2 1 1 6 1 12c0 8 3 11 11 11s11-3 11-11c0-6-1-11-11-11" style="font-variation-settings:normal;display:inline;opacity:1;vector-effect:none;fill:url(#b);fill-opacity:1;stroke-width:1.11627;stroke-linecap:butt;stroke-linejoin:miter;stroke-miterlimit:4;stroke-dasharray:none;stroke-dashoffset:0;stroke-opacity:1;-inkscape-stroke:none;stop-color:#000;stop-opacity:1"/>
<path stroke="#f1f3f4" stroke-width=".386" d="M5.672 5.146h1.19m.17 0h1.104m.178 0H9.3m.162 0h.424m.17 0h.952m.187 0h2.499m.17 0h1.903m.17 0h.578M5.671 6.32h1.845m.215 0h.881m.163 0h.435m.177 0h.812m.17 0h.833m.157 0h1.308m.17 0h1.725m-8.89 1.17h1.561m.164 0h2.572m.157 0h1.247m.16 0H12.7m.167 0h.994m.16 0 1.563.01M5.671 8.67h2.171m.17 0h2.347m.162 0h.922m.17 0h2.195m.148 0h1.504m.17 0h.595m.17 0h.33M5.672 9.845h.81m.249 0h3m-4.06 5.091h1.845m.215 0h.881m.163 0h.435m.177 0h.812m.17 0h.833m.157 0h1.308m-6.995 1.55h1.56m.165 0h2.571m.158 0h1.247m4.407.033h2.548M5.672 13.762h2.17m.17 0h2.347m.163 0h.922m.17 0h2.194m-8.136-2.35H6.86m.17 0h1.105m.178 0H9.3m.162 0h.425m.17 0h.951m.187 0h2.499m.17 0h1.903M5.671 12.587h2.004m.158 0H9.96m.162 0h.832m.158 0h2.001m.16 0h2.187m-9.788 5.092h1.872m.2 0h.826m.194 0h.412m.13 0h.813m.108 0h4.303m.203 0h1.148m.155 0h.29m-8.522 1.174h.611m-2.744 0h1.954m.946 0h1.421m.15 0h2.087m.162 0h1.416m.142 0h.292m.16 0h1.796m.184 0h.94" opacity=".15"/>
<path stroke="#268bd2" stroke-width=".386" d="M10.057 5.146h.951m1.829 1.175h1.724m-3.202 8.616h1.308m1.197-3.525h1.903"/>
<path stroke="#859900" stroke-width=".386" d="M5.672 5.146h1.19m4.751 3.524h2.195m-4.421 6.267h.812m1.414-1.175h2.195m-8.137-2.35h1.19m.17 0h1.105"/>
<path stroke="#d33682" stroke-width=".386" d="M5.672 7.49h1.561m9.163 1.18h.329M5.672 14.938h1.844m-1.844-3.525h1.19m3.26 1.175h.832m-.81 6.266h2.085"/>
<path stroke="#fff" stroke-width="4" d="M31.974 38.279h.947c4.432 0 8.027-3.568 8.027-8v-4c0-4.432-3.595-8-8.027-8h-.947m-4.025 0h-7.002v20h6.998" color="#000" style="isolation:auto;mix-blend-mode:normal" transform="translate(.16 1.097)scale(.38166)"/>
</svg>
