<svg xmlns="http://www.w3.org/2000/svg" xmlns:xlink="http://www.w3.org/1999/xlink" xml:space="preserve" width="24" height="24" fill="none">
<defs>
<linearGradient id="a">
<stop offset="0" style="stop-color:#0277bd;stop-opacity:1"/>
<stop offset="1" style="stop-color:#60bcea;stop-opacity:1"/>
</linearGradient>
<linearGradient xlink:href="#a" id="b" x1="50.811" x2="50.256" y1="92.88" y2="12.926" gradientTransform="translate(-.222 -.222)scale(.24444)" gradientUnits="userSpaceOnUse"/>
</defs>
<path d="M12 1C2 1 1 6 1 12c0 8 3 11 11 11s11-3 11-11c0-6-1-11-11-11" style="font-variation-settings:normal;display:inline;opacity:1;vector-effect:none;fill:url(#b);fill-opacity:1;stroke-width:1.11627;stroke-linecap:butt;stroke-linejoin:miter;stroke-miterlimit:4;stroke-dasharray:none;stroke-dashoffset:0;stroke-opacity:1;-inkscape-stroke:none;stop-color:#000;stop-opacity:1"/>
<g fill-rule="evenodd" color="#000">
<path fill="#81d4fa" d="M26.442 1092.6q-.59-.002-1.185.037c-1.061.077-2.14.274-3.243.613-4.407 1.356-5.108 4.942-10.395 11.99-.32.426.159.991.631.744 4.77-4.443 8.127-4.94 11.87-4.865s6.35 1.424 9.023 2.979c2.673 1.554 5.4 3.322 9.238 4.045s8.75.389 15.807-2.131c.527-.19.392-.97-.168-.97-8.74 0-15.921-6.9-23.666-10.456-2.542-1.167-5.164-1.96-7.912-1.986" style="text-indent:0;text-decoration-line:none;text-decoration-style:solid;text-decoration-color:#000;text-transform:none;white-space:normal;isolation:auto;mix-blend-mode:normal" transform="translate(1.974 -316.913)scale(.30108)"/>
<path fill="#fff" d="M21.113 1076.4a27 27 0 0 0-2.465.072c-3.13.24-5.64 1.054-7.033 2.725-2.178 2.613-3.413 7.19-3.527 12.154s.916 10.316 3.488 14.432a.5.5 0 0 0 .793.07c9.97-10.966 19.742-18.83 40.607-17.836a.5.5 0 0 0 .309-.91c-6.578-4.555-15.62-8.067-23.686-9.706-3.025-.614-5.912-.966-8.487-1.002z" style="text-indent:0;text-decoration-line:none;text-decoration-style:solid;text-decoration-color:#000;text-transform:none;white-space:normal;isolation:auto;mix-blend-mode:normal" transform="translate(1.974 -316.913)scale(.30108)"/>
</g>
</svg>
