<svg xmlns="http://www.w3.org/2000/svg" xmlns:xlink="http://www.w3.org/1999/xlink" xml:space="preserve" width="24" height="24" viewBox="0 0 6.35 6.35">
<defs>
<linearGradient id="a">
<stop offset="0" style="stop-color:#e6e6e6;stop-opacity:1"/>
<stop offset="1" style="stop-color:#333;stop-opacity:1"/>
</linearGradient>
<linearGradient xlink:href="#a" id="b" x1="205.916" x2="199.333" y1="-105.962" y2="389.947" gradientUnits="userSpaceOnUse"/>
<linearGradient xlink:href="#a" id="e" x1="205.916" x2="199.333" y1="-105.962" y2="389.947" gradientUnits="userSpaceOnUse"/>
<linearGradient xlink:href="#a" id="d" x1="205.916" x2="199.333" y1="-105.962" y2="389.947" gradientUnits="userSpaceOnUse"/>
<linearGradient xlink:href="#a" id="c" x1="205.916" x2="199.333" y1="-105.962" y2="389.947" gradientUnits="userSpaceOnUse"/>
</defs>
<g style="fill:url(#b);fill-opacity:1;stroke-width:21.9899" transform="translate(.265 .265)scale(.01304)">
<g style="fill:url(#c);fill-opacity:1;stroke-width:21.9899">
<g style="fill:url(#d);fill-opacity:1;stroke-width:21.9899">
<path d="M174.406 2.305q3.65.039 6.973-.93a642 642 0 0 1 87.387.234q39.615 3.084 76.699 17.188 61.646 25.383 84.363 88.043 12.99 37.728 15.34 77.59a567 567 0 0 1-2.324 99.89c-2.782 23.352-8.824 45.805-18.129 67.368q-25.886 56.073-83.899 77.355-47.013 15.885-96.687 16.723-55.869 2.907-110.625-8.36Q32.717 414.955 9.164 314.52a386.3 386.3 0 0 1-9.066-91.528q-1.116-49.248 10.461-97.101C27.02 63.285 66.762 24.488 129.785 9.508a283 283 0 0 1 44.621-7.203" style="fill:url(#e);fill-opacity:1;fill-rule:evenodd;stroke:none;stroke-width:21.9899"/>
</g>
</g>
</g>
<g fill-rule="evenodd" style="stroke-width:24.0126">
<path fill="#c8c8c8" d="M38.747 9.09A28.47 22.63 17.344 0 0 4.826 22.204a28.47 22.63 17.344 0 0 20.43 30.088 28.47 22.63 17.344 0 0 33.92-13.114A28.47 22.63 17.344 0 0 38.746 9.09m1.366 8.757a21.235 16.87 17.344 0 1 15.24 22.435 21.235 16.87 17.344 0 1-25.3 9.771 21.235 16.87 17.344 0 1-15.238-22.432 21.235 16.87 17.344 0 1 25.296-9.775" color="#000" style="stroke-width:24.0126" transform="translate(.907 .907)scale(.07087)"/>
<path fill="#4f61eb" d="m55.586 56.513-9.13.005-6.223-9.197s-1.002-1.723-1.618-2.223c-.513-.416-.733-.565-1.241-.565h-1.155l.003 11.973-7.927.004v-30.6h17.258s6.994 1.291 7.136 8.219c.159 7.723-6.76 9.995-6.76 9.995.95.389 8.58 10.6 9.658 12.383m-13.683-23.96-5.604-.004-.002 5.203 5.606-.001s2.597-.008 2.597-2.646c0-2.692-2.597-2.55-2.597-2.55" style="stroke-width:24.0126" transform="translate(.907 .907)scale(.07087)"/>
</g>
</svg>
