<svg xmlns="http://www.w3.org/2000/svg" xmlns:xlink="http://www.w3.org/1999/xlink" xml:space="preserve" width="24" height="24" fill="none">
<defs>
<linearGradient id="a">
<stop offset="0" style="stop-color:#333;stop-opacity:1"/>
<stop offset="1" style="stop-color:#bbb;stop-opacity:1"/>
</linearGradient>
<linearGradient xlink:href="#a" id="b" x1="52.685" x2="49.489" y1="95.511" y2="-7.273" gradientTransform="translate(-.222 -.222)scale(.24444)" gradientUnits="userSpaceOnUse"/>
</defs>
<path d="M12 1C2 1 1 6 1 12c0 8 3 11 11 11s11-3 11-11c0-6-1-11-11-11" style="font-variation-settings:normal;display:inline;opacity:1;vector-effect:none;fill:url(#b);fill-opacity:1;stroke-width:1.11627;stroke-linecap:butt;stroke-linejoin:miter;stroke-miterlimit:4;stroke-dasharray:none;stroke-dashoffset:0;stroke-opacity:1;-inkscape-stroke:none;stop-color:#000;stop-opacity:1"/>
<g fill-rule="evenodd">
<path fill="#c8c8c8" d="M13.89 5.58a7.978 6.341 17.344 0 0-9.505 3.675 7.978 6.341 17.344 0 0 5.725 8.431 7.978 6.341 17.344 0 0 9.505-3.675 7.978 6.341 17.344 0 0-5.725-8.43m.383 2.453a5.95 4.727 17.344 0 1 4.27 6.287 5.95 4.727 17.344 0 1-7.089 2.738 5.95 4.727 17.344 0 1-4.27-6.286 5.95 4.727 17.344 0 1 7.089-2.74" color="#000"/>
<path fill="#4f61eb" d="M18.61 18.87h-2.56l-1.743-2.577s-.28-.483-.453-.623c-.144-.116-.206-.158-.348-.158h-.324l.001 3.355-2.221.001v-8.574h4.836s1.96.361 2 2.303c.044 2.164-1.895 2.8-1.895 2.8.266.11 2.404 2.97 2.707 3.47m-3.835-6.714h-1.57v1.457h1.57s.728-.002.728-.742c0-.754-.728-.714-.728-.714"/>
</g>
</svg>
