<svg xmlns="http://www.w3.org/2000/svg" xmlns:xlink="http://www.w3.org/1999/xlink" xml:space="preserve" width="24" height="24" fill="none">
<defs>
<linearGradient id="a">
<stop offset="0" style="stop-color:#374651;stop-opacity:1"/>
<stop offset="1" style="stop-color:#535d6c;stop-opacity:1"/>
</linearGradient>
<linearGradient xlink:href="#a" id="b" x1="50.384" x2="49.489" y1="82.088" y2="-7.273" gradientTransform="translate(-.222 -.222)scale(.24444)" gradientUnits="userSpaceOnUse"/>
</defs>
<path d="M12 1C2 1 1 6 1 12c0 8 3 11 11 11s11-3 11-11c0-6-1-11-11-11" style="font-variation-settings:normal;display:inline;opacity:1;vector-effect:none;fill:url(#b);fill-opacity:1;stroke-width:1.11627;stroke-linecap:butt;stroke-linejoin:miter;stroke-miterlimit:4;stroke-dasharray:none;stroke-dashoffset:0;stroke-opacity:1;-inkscape-stroke:none;stop-color:#000;stop-opacity:1"/>
<g stroke-width=".927">
<path fill="#20aa73" d="m10.535 10.618-1.63 1.086v1.676l4.143-2.762-4.144-2.764V9.53z" class="remmina_svg__st1"/>
<path fill="#3989da" d="m15.097 14.467-1.63-1.086 1.63-1.088v-1.676l-4.144 2.764 4.144 2.762Z" class="remmina_svg__st2"/>
<path fill="#20aa73" d="m18.044 8.665-1.162.773a5.5 5.5 0 0 1 .645 2.561A5.526 5.526 0 0 1 12 17.525a5.53 5.53 0 0 1-4.251-2.01l-1.158.77A6.9 6.9 0 0 0 12 18.907a6.916 6.916 0 0 0 6.907-6.908c0-1.21-.315-2.345-.864-3.334"/>
<path fill="#3989da" d="M12 5.092a6.916 6.916 0 0 0-6.907 6.907 6.86 6.86 0 0 0 .749 3.125l1.167-.776a5.5 5.5 0 0 1-.535-2.349A5.526 5.526 0 0 1 12 6.473a5.53 5.53 0 0 1 4.095 1.83l1.165-.776A6.9 6.9 0 0 0 12 5.092"/>
</g>
</svg>
