<svg xmlns="http://www.w3.org/2000/svg" xml:space="preserve" width="24" height="24" viewBox="0 0 6.35 6.35">
<defs>
<radialGradient id="a" cx="0" cy="0" r="1" fx="0" fy="0" gradientTransform="matrix(0 22 -22 0 -49.796 1)" gradientUnits="userSpaceOnUse" spreadMethod="pad">
<stop offset="0" style="stop-opacity:1;stop-color:#e97c7c"/>
<stop offset="1" style="stop-opacity:1;stop-color:#de4f4f"/>
</radialGradient>
</defs>
<path d="M-51.86 1.068a1.3 1.3 0 0 1-.343.047 14 14 0 0 0-2.197.354q-4.656 1.109-5.875 5.734a18.5 18.5 0 0 0-.516 4.786 19 19 0 0 0 .448 4.511c.77 3.303 2.817 5.323 6.125 6.057a21.3 21.3 0 0 0 5.452.412 15.6 15.6 0 0 0 4.767-.824q2.859-1.046 4.135-3.812.686-1.592.896-3.317.272-2.46.114-4.928a14.6 14.6 0 0 0-.754-3.823q-1.125-3.087-4.162-4.338a13.7 13.7 0 0 0-3.781-.848 32 32 0 0 0-4.308-.011z" style="fill:url(#a);fill-rule:evenodd;stroke:none;stroke-width:1.33333" transform="translate(16.35)scale(.26458)"/>
<g style="stroke-width:2.34771">
<path fill="#fff" d="M5.05 4.429v8.075h6.833V4.429h-.622v.62a.31.31 0 0 1-.62 0v-.62h-.622v.62a.31.31 0 0 1-.621 0v-.62h-.621v.62a.31.31 0 0 1-.621 0v-.62h-.622v.62a.31.31 0 0 1-.62 0v-.62h-.622v.62a.31.31 0 0 1-.621 0v-.62z" style="stroke-width:2.34771" transform="translate(-.431 -.431)scale(.42595)"/>
<path fill="#212121" d="M7.069 6.603h.776c.976 0 1.453.163 1.65.32.198.158.214.328.214.612 0 .283-.015.453-.214.611-.198.158-.678.32-1.65.32H7.07v.622c.503 0 .962.096 1.174.233s.357.328.486.582c.256.508.42 1.26 1.073 1.887.112.132.325.117.435 0a.307.307 0 0 0-.004-.44c-.506-.485-.643-1.117-.951-1.729a2.3 2.3 0 0 0-.476-.62c.46-.072.838-.18 1.078-.37.386-.308.446-.758.446-1.097 0-.337-.06-.788-.446-1.096s-1-.457-2.039-.457H7.07z" color="#000" style="stroke-width:2.34771" transform="translate(-.431 -.431)scale(.42595)"/>
<path fill="#b72727" d="M6.603 5.982h.932v4.659h-.932z" style="stroke-width:2.34771" transform="translate(-.431 -.431)scale(.42595)"/>
<path fill="#d93535" d="M6.603 5.982h.466v4.659h-.466z" style="stroke-width:2.34771" transform="translate(-.431 -.431)scale(.42595)"/>
<path fill="#ffe680" d="M6.603 10.64h.932l-.466 1.243z" style="stroke-width:2.34771" transform="translate(-.431 -.431)scale(.42595)"/>
<path fill="#212121" d="m7.302 11.262-.233.621-.233-.621z" style="stroke-width:2.34771" transform="translate(-.431 -.431)scale(.42595)"/>
</g>
</svg>
