<svg xmlns="http://www.w3.org/2000/svg" xml:space="preserve" width="24" height="24" fill="none">
<defs>
<radialGradient id="a" cx="0" cy="0" r="1" fx="0" fy="0" gradientTransform="matrix(0 22 -22 0 12 1)" gradientUnits="userSpaceOnUse" spreadMethod="pad">
<stop offset="0" style="stop-color:#f2f2f2;stop-opacity:1"/>
<stop offset="1" style="stop-color:#e4e4e4;stop-opacity:1"/>
</radialGradient>
</defs>
<path d="M9.593 1.115q.18 0 .344-.047a32 32 0 0 1 4.308.01 13.7 13.7 0 0 1 3.781.849c2.026.833 3.41 2.281 4.162 4.338.42 1.24.676 2.516.754 3.823a28.3 28.3 0 0 1-.114 4.928 12 12 0 0 1-.896 3.317q-1.276 2.766-4.135 3.812a15.6 15.6 0 0 1-4.767.824 21.3 21.3 0 0 1-5.452-.412c-3.308-.734-5.354-2.754-6.125-6.057a19 19 0 0 1-.448-4.51 18.5 18.5 0 0 1 .516-4.787q1.218-4.625 5.875-5.734a14 14 0 0 1 2.197-.354" style="fill:url(#a);fill-rule:evenodd;stroke:none;stroke-width:1.33333"/>
<g style="stroke-width:2.77037">
<path fill="#565656" d="m-57.556-1 3.667 4.889h-7.333l-.762 3.666h-4.127l1.222-4.888h-2.444l-2.445 9.777h6.873l-.762 3.667h4.89L-62.445 21h4.888l3.667-4.889h9.778L-40.444 21h4.888l-3.666-4.889h4.889l-.762-3.667h6.873l-2.445-9.777h-2.444l1.222 4.888h-4.127l-.762-3.666h-7.333L-40.444-1h-2.445l-3.666 4.889h-4.89L-55.11-1z" style="stroke-width:3.386" transform="translate(29.687 8.39)scale(.36096)"/>
<path d="M-58.778 7.555v4.89h4.89v-4.89Zm14.667 0v4.89h4.889v-4.89Z" opacity=".2" style="fill:#000;stroke-width:3.386" transform="translate(29.687 8.39)scale(.36096)"/>
<path fill="#fff" d="M-58.778 6.333v4.89h4.89v-4.89Zm14.667 0v4.89h4.889v-4.89Z" style="fill:#fff;stroke-width:3.386" transform="translate(29.687 8.39)scale(.36096)"/>
</g>
</svg>
