<svg xmlns="http://www.w3.org/2000/svg" xmlns:xlink="http://www.w3.org/1999/xlink" width="24" height="24">
<defs>
<radialGradient id="a" cx="0" cy="0" r="1" gradientTransform="matrix(0 22 -22 0 12 1)" gradientUnits="userSpaceOnUse">
<stop offset="0" stop-color="#555" style="stop-color:#919191;stop-opacity:1"/>
<stop offset="1" stop-color="#222" style="stop-color:#4e4e4e;stop-opacity:1"/>
</radialGradient>
<radialGradient id="b" cx="0" cy="0" r="1" gradientTransform="matrix(0 22 -22 0 12 1)" gradientUnits="userSpaceOnUse">
<stop stop-color="#555"/>
<stop offset="1" stop-color="#222"/>
</radialGradient>
<path id="c" d="m39.821 11.402 3 5.196c2 3.464-32.641 23.464-34.641 20l-3-5.196c-2-3.464 32.641-23.464 34.641-20" color="#000"/>
<path id="d" d="M21 4h6c4 0 4 40 0 40h-6c-4 0-4-40 0-40" color="#000"/>
</defs>
<path fill="url(#a)" fill-rule="evenodd" d="M9.596 1.114q.18.001.344-.046a32 32 0 0 1 4.307.011q1.951.153 3.78.848 3.038 1.25 4.158 4.339.64 1.86.756 3.824a28 28 0 0 1-.115 4.923 11.9 11.9 0 0 1-.893 3.32q-1.276 2.764-4.135 3.813a15.6 15.6 0 0 1-4.766.825 21.4 21.4 0 0 1-5.452-.412q-4.967-1.107-6.128-6.057a19 19 0 0 1-.447-4.511 18.5 18.5 0 0 1 .515-4.786q1.217-4.629 5.877-5.736a14 14 0 0 1 2.199-.355" clip-rule="evenodd" style="fill:url(#b)"/>
<g stroke-width="3.076" style="stroke-width:4" transform="matrix(.33 0 0 .33 4.2 -1)">
<path fill="#158f76" d="m8.179 27.402-3 5.196c-2 3.464 32.641 23.464 34.641 20l3-5.196c2-3.464-32.641-23.464-34.641-20" color="#000" style="stroke-width:3.076"/>
<use xlink:href="#c" width="100%" height="100%" fill="#4d0e93" style="stroke-width:3.076" transform="translate(0 16)"/>
<use xlink:href="#d" width="100%" height="100%" fill="#1b8cf4" style="stroke-width:3.076" transform="translate(0 16)"/>
</g>
</svg>
