<svg xmlns="http://www.w3.org/2000/svg" xml:space="preserve" width="24" height="24" viewBox="0 0 6.35 6.35">
<defs>
<linearGradient id="a" x1="205.916" x2="199.333" y1="-105.962" y2="389.947" gradientTransform="translate(-71.178 -43.472)scale(.81287)" gradientUnits="userSpaceOnUse" spreadMethod="pad">
<stop offset="0" style="stop-opacity:1;stop-color:#fff"/>
<stop offset="1" style="stop-opacity:1;stop-color:#e6e6e6"/>
</linearGradient>
<linearGradient id="b" x1="34.496" x2="34.496" y1="49.314" y2="11.31" gradientTransform="translate(-143.247 -83.104)scale(7.34828)" gradientUnits="userSpaceOnUse" spreadMethod="pad">
<stop offset="0" style="stop-opacity:1;stop-color:#aef4f4"/>
<stop offset="1" style="stop-opacity:1;stop-color:#a2ddef"/>
</linearGradient>
<linearGradient id="d" x1="32" x2="32" y1="50.998" y2="12.999" gradientTransform="translate(-4393.31 -5634.045)scale(11.0228)" gradientUnits="userSpaceOnUse" spreadMethod="pad">
<stop offset="0" style="stop-opacity:1;stop-color:#1db7f3"/>
<stop offset="1" style="stop-opacity:1;stop-color:#2274d5"/>
</linearGradient>
<clipPath id="c" clipPathUnits="userSpaceOnUse">
<path d="M0 0h221v280H0Z"/>
</clipPath>
</defs>
<g style="stroke-width:21.99">
<path d="M70.59-41.598a19.2 19.2 0 0 0 5.668-.757 522 522 0 0 1 71.035.191q32.202 2.507 62.348 13.973 50.11 20.63 68.574 71.566a235.4 235.4 0 0 1 12.469 63.07 461 461 0 0 1-1.887 81.2 196.1 196.1 0 0 1-14.738 54.761q-21.043 45.575-68.2 62.879c-25.476 8.606-51.671 13.137-78.593 13.594q-45.416 2.362-89.922-6.797c-54.621-12.168-88.309-45.465-101.074-99.891a314 314 0 0 1-7.368-74.398q-.91-40.035 8.504-78.934C-49.215 7.973-16.91-23.566 34.32-35.742a230 230 0 0 1 36.27-5.856" style="fill:url(#a);fill-rule:evenodd;stroke:none;stroke-width:21.99" transform="translate(1.406 .962)scale(.01604)"/>
</g>
<g style="stroke-width:1.21032">
<g style="stroke-width:26.6149">
<path d="M41.648.004c.625 27.851-13.796 41.644-41.64 41.644v195.243a41.78 41.78 0 0 0 71.594 30.05 41.77 41.77 0 0 0 11.957-30.05v-36.012h35.976c55.75 0 100.942-44.688 100.942-100.438C220.477 44.684 175.285.188 119.535.188zm41.645 78.394h35.051c14 0 23.742 10.051 23.742 24.497 0 14.449-9.742 24.492-23.734 24.492H83.301Z" style="fill:url(#b);stroke:none;stroke-width:26.6149" transform="translate(1.714 1.323)scale(.01325)"/>
</g>
<g clip-path="url(#c)" opacity=".3" style="stroke-width:26.6149" transform="translate(1.714 1.323)scale(.01325)">
<g style="stroke-width:26.6149">
<path d="M41.594 34.305a6.93 6.93 0 0 0-6.797 7.039v201.472c-.133 9.403 13.941 9.403 13.808 0v-76.414h72.485c36.23 0 65.59-29.543 65.59-66 0-36.461-29.368-66.004-65.59-66.004H42.762a7 7 0 0 0-1.176-.093Zm7.011 13.984h72.485c28.762 0 51.781 23.164 51.781 52.106 0 28.941-23.019 52.113-51.781 52.113H48.605Z" style="fill:#001851;fill-opacity:1;fill-rule:nonzero;stroke:none;stroke-width:26.6149"/>
</g>
</g>
<g style="stroke-width:26.6149">
<path d="M40.91.008a41.4 41.4 0 0 0-23.133 7.515A41.38 41.38 0 0 0 .652 34.414a41.43 41.43 0 0 0 6.887 31.133c13.195 18.82 39.141 23.398 57.984 10.234a41.4 41.4 0 0 0 17.125-26.894 41.4 41.4 0 0 0-6.902-31.125A41.61 41.61 0 0 0 40.91.008m90.18 127.371a41.65 41.65 0 0 0-24.156 7.535 41.66 41.66 0 0 0-17.133 26.883 41.65 41.65 0 0 0 6.898 31.121l48.016 68.582c13.191 18.832 39.144 23.414 57.984 10.238 18.844-13.187 23.434-39.148 10.254-57.992l-48.035-68.598a41.65 41.65 0 0 0-33.828-17.769" style="fill:url(#d);fill-rule:evenodd;stroke:none;stroke-width:26.6149" transform="translate(1.714 1.323)scale(.01325)"/>
</g>
</g>
</svg>
