<svg xmlns="http://www.w3.org/2000/svg" xmlns:xlink="http://www.w3.org/1999/xlink" xml:space="preserve" width="24" height="24" fill="none">
<defs>
<linearGradient id="a">
<stop offset="0" style="stop-color:#333;stop-opacity:1"/>
<stop offset="1" style="stop-color:#bebebe;stop-opacity:1"/>
</linearGradient>
<linearGradient xlink:href="#a" id="b" x1="50.384" x2="49.489" y1="82.088" y2="-7.273" gradientTransform="translate(-.222 -.222)scale(.24444)" gradientUnits="userSpaceOnUse"/>
</defs>
<path d="M12 1C2 1 1 6 1 12c0 8 3 11 11 11s11-3 11-11c0-6-1-11-11-11" style="font-variation-settings:normal;display:inline;opacity:1;vector-effect:none;fill:url(#b);fill-opacity:1;stroke-width:1.11627;stroke-linecap:butt;stroke-linejoin:miter;stroke-miterlimit:4;stroke-dasharray:none;stroke-dashoffset:0;stroke-opacity:1;-inkscape-stroke:none;stop-color:#000;stop-opacity:1"/>
<path fill="#4b6488" d="M-205.83-10.64a4.355 2.995 0 0 0-3.008.877l-36.442 25.047a4.355 2.995 0 0 0 0 4.235l36.442 25.059a4.355 2.995 0 0 0 6.154 0l36.443-25.06a4.355 2.995 0 0 0 0-4.234l-36.443-25.047a4.355 2.995 0 0 0-3.147-.876zm.07 10.199 25.963 17.848-25.964 17.846-25.964-17.846z" style="stroke-width:1.94255" transform="translate(46.946 10.61)scale(.16984)"/>
<path fill="#ffb559" d="M-205.83-19.966a4.355 2.995 0 0 0-3.008.877L-245.28 5.958a4.355 2.995 0 0 0 0 4.235l36.442 25.058a4.355 2.995 0 0 0 6.154 0l36.443-25.058a4.355 2.995 0 0 0 0-4.235l-36.443-25.047a4.355 2.995 0 0 0-3.147-.877zm.07 10.199 25.963 17.848-25.964 17.846-25.964-17.844z" style="stroke-width:1.94255" transform="translate(46.946 10.61)scale(.16984)"/>
<path fill="#6aaddd" d="M-205.83-29.092a4.355 2.995 0 0 0-3.008.876L-245.28-3.168a4.355 2.995 0 0 0 0 4.234l36.442 25.06a4.355 2.995 0 0 0 6.154 0l36.443-25.06a4.355 2.995 0 0 0 0-4.234l-36.443-25.048a4.355 2.995 0 0 0-3.147-.876zm.07 10.199 25.963 17.848L-205.76 16.8l-25.964-17.846z" style="stroke-width:1.94255" transform="translate(46.946 10.61)scale(.16984)"/>
</svg>
