<svg xmlns="http://www.w3.org/2000/svg" xmlns:xlink="http://www.w3.org/1999/xlink" xml:space="preserve" width="24" height="24" fill="none">
<defs>
<linearGradient id="a">
<stop offset="0" style="stop-color:#ff2a2a;stop-opacity:1"/>
<stop offset="1" style="stop-color:#ff6f6f;stop-opacity:1"/>
</linearGradient>
<linearGradient xlink:href="#a" id="b" x1="50.511" x2="49.489" y1="90.526" y2="-7.273" gradientTransform="translate(-.222 -.222)scale(.24444)" gradientUnits="userSpaceOnUse"/>
</defs>
<path d="M12 1C2 1 1 6 1 12c0 8 3 11 11 11s11-3 11-11c0-6-1-11-11-11" style="font-variation-settings:normal;display:inline;opacity:1;vector-effect:none;fill:url(#b);fill-opacity:1;stroke-width:1.11627;stroke-linecap:butt;stroke-linejoin:miter;stroke-miterlimit:4;stroke-dasharray:none;stroke-dashoffset:0;stroke-opacity:1;-inkscape-stroke:none;stop-color:#000;stop-opacity:1"/>
<path fill="#fff" d="M16.183 6.33 14.34 9.114l-1.904-2.786Zm-2.136 3.422H9.96l2.045 7.773zm-3.95-.457h3.815l-1.908-2.79Zm-.43-.181 1.904-2.786H7.825Zm1.904 8.558-2.083-7.92H5.001ZM5.008 9.295H9.24L7.397 6.508Zm11.6-2.782-1.84 2.782h4.224zM14.52 9.752l-2.083 7.918L19 9.752z" style="stroke-width:1.65315"/>
</svg>
