<svg xmlns="http://www.w3.org/2000/svg" xmlns:xlink="http://www.w3.org/1999/xlink" xml:space="preserve" width="24" height="24" fill="none">
<defs>
<linearGradient id="b">
<stop offset="0" style="stop-color:#f2f2f2;stop-opacity:1"/>
<stop offset="1" style="stop-color:#f9f9f9;stop-opacity:1"/>
</linearGradient>
<linearGradient id="a" x1="46.824" x2="16.233" y1="52.926" y2="10.102" gradientTransform="rotate(68.485 243.044 169.712)scale(7.22916)" gradientUnits="userSpaceOnUse" spreadMethod="pad">
<stop offset="0" style="stop-opacity:1;stop-color:#06f"/>
<stop offset="1" style="stop-opacity:1;stop-color:#5df"/>
</linearGradient>
<linearGradient xlink:href="#a" id="f" x1="46.824" x2="16.233" y1="52.926" y2="10.102" gradientTransform="rotate(68.485 243.044 169.712)scale(7.22916)" gradientUnits="userSpaceOnUse" spreadMethod="pad"/>
<linearGradient xlink:href="#a" id="e" x1="46.824" x2="16.233" y1="52.926" y2="10.102" gradientTransform="rotate(68.485 243.044 169.712)scale(7.22916)" gradientUnits="userSpaceOnUse" spreadMethod="pad"/>
<linearGradient xlink:href="#b" id="c" x1="11.375" x2="12.188" y1="46.75" y2="-3.937" gradientUnits="userSpaceOnUse"/>
<linearGradient xlink:href="#b" id="d" x1="11.375" x2="12.188" y1="46.75" y2="-3.937" gradientUnits="userSpaceOnUse"/>
</defs>
<g style="fill:url(#c);fill-opacity:1">
<path d="M50 5C9.09 5 5 25.455 5 50c0 32.727 12.273 45 45 45s45-12.273 45-45c0-24.545-4.09-45-45-45" style="font-variation-settings:normal;display:inline;opacity:1;vector-effect:none;fill:url(#d);fill-opacity:1;stroke-width:4.56656;stroke-linecap:butt;stroke-linejoin:miter;stroke-miterlimit:4;stroke-dasharray:none;stroke-dashoffset:0;stroke-opacity:1;-inkscape-stroke:none;stop-color:#000;stop-opacity:1" transform="translate(-1 -1)scale(.26)"/>
</g>
<path d="M302.477 133.695a130.17 130.17 0 0 0-51.243-61.945l-16.472 37.91a89.47 89.47 0 0 1 29.886 38.953c18.11 45.961-4.464 97.907-50.425 116.024a89.44 89.44 0 0 1-48.828 4.672l-16.485 37.933a130.15 130.15 0 0 0 80.231-4.769c66.859-26.356 99.691-101.922 73.336-168.778" style="fill:url(#e);stroke:none" transform="translate(.999 1.001)scale(.06063)"/>
<path d="M213.922 55.586a130.14 130.14 0 0 0-80.227 4.773 130.14 130.14 0 0 0-71.625 69.203 130.14 130.14 0 0 0-1.711 99.579 130.13 130.13 0 0 0 51.243 61.941l16.468-37.914a89.44 89.44 0 0 1-29.879-38.941 89.48 89.48 0 0 1 1.172-68.465 89.47 89.47 0 0 1 49.242-47.578 89.43 89.43 0 0 1 48.833-4.664z" style="fill:url(#f);stroke:none" transform="translate(.999 1.001)scale(.06063)"/>
</svg>
