<svg xmlns="http://www.w3.org/2000/svg" xmlns:xlink="http://www.w3.org/1999/xlink" xml:space="preserve" width="24" height="24" fill="none">
<defs>
<linearGradient id="a">
<stop offset="0" style="stop-color:#8e0404;stop-opacity:1"/>
<stop offset="1" style="stop-color:#ff6f6f;stop-opacity:1"/>
</linearGradient>
<linearGradient xlink:href="#a" id="b" x1="50.511" x2="49.489" y1="90.526" y2="-7.273" gradientTransform="translate(-.222 -.222)scale(.24444)" gradientUnits="userSpaceOnUse"/>
</defs>
<path d="M12 1C2 1 1 6 1 12c0 8 3 11 11 11s11-3 11-11c0-6-1-11-11-11" style="font-variation-settings:normal;display:inline;opacity:1;vector-effect:none;fill:url(#b);fill-opacity:1;stroke-width:1.11627;stroke-linecap:butt;stroke-linejoin:miter;stroke-miterlimit:4;stroke-dasharray:none;stroke-dashoffset:0;stroke-opacity:1;-inkscape-stroke:none;stop-color:#000;stop-opacity:1"/>
<path fill="#f9f9f9" d="m9.446 4.156 1.018 3.8c.083.313.131.484-.234.92a2 2 0 0 0-.171.23 1.507 1.507 0 0 0 1.695 2.21 1.507 1.507 0 0 0 .362-2.76 1.6 1.6 0 0 0-.263-.115c-.534-.195-.578-.367-.662-.68l-.966-3.605Zm10.398 5.382-3.809 1.02c-.312.084-.483.132-.918-.233a2 2 0 0 0-.232-.172 1.506 1.506 0 1 0 .55 2.058 1.6 1.6 0 0 0 .116-.263c.195-.534.366-.578.678-.662l3.615-.968zM9.677 11.124a1.5 1.5 0 0 0-1.216.75 2 2 0 0 0-.115.265c-.195.534-.366.578-.679.661l-3.511.941v.78l3.706-.993c.313-.084.483-.131.918.234.074.062.148.123.232.171a1.5 1.5 0 0 0 1.143.15 1.506 1.506 0 0 0-.478-2.96zm2.768 1.597q-.15.01-.302.05a1.506 1.506 0 0 0-.363 2.76c.084.048.173.082.264.115.534.194.578.367.662.68l.943 3.518h.78l-.995-3.714c-.084-.313-.132-.484.234-.92a2 2 0 0 0 .17-.23 1.507 1.507 0 0 0-1.393-2.258z" style="stroke-width:.301693;paint-order:normal"/>
</svg>
