<svg xmlns="http://www.w3.org/2000/svg" xmlns:xlink="http://www.w3.org/1999/xlink" xml:space="preserve" width="24" height="24" image-rendering="optimizeSpeed">
<defs>
<radialGradient id="a" cx="0" cy="0" r="1" fx="0" fy="0" gradientTransform="matrix(0 22 -22 0 -22 1)" gradientUnits="userSpaceOnUse" spreadMethod="pad">
<stop offset="0" style="stop-color:#ff9283;stop-opacity:1"/>
<stop offset="1" style="stop-color:#ff644f;stop-opacity:1"/>
</radialGradient>
<radialGradient xlink:href="#a" id="b" cx="0" cy="0" r="1" fx="0" fy="0" gradientTransform="matrix(0 22 -22 0 -22 1)" gradientUnits="userSpaceOnUse" spreadMethod="pad"/>
</defs>
<path d="M-24.063 1.068q-.164.046-.344.047a14 14 0 0 0-2.197.354q-4.656 1.109-5.875 5.734a18.5 18.5 0 0 0-.516 4.786 19 19 0 0 0 .448 4.511c.77 3.303 2.817 5.323 6.125 6.057a21.3 21.3 0 0 0 5.452.412 15.6 15.6 0 0 0 4.767-.824q2.859-1.046 4.135-3.812.686-1.592.896-3.317.271-2.46.114-4.928a14.6 14.6 0 0 0-.754-3.823q-1.125-3.087-4.162-4.338a13.7 13.7 0 0 0-3.781-.848 32 32 0 0 0-4.308-.011" style="fill:url(#b);fill-rule:evenodd;stroke:none;stroke-width:1.33333" transform="translate(34)"/>
<path d="m-12.475 4.918-4.529 2.894.68 6.473 4.955 1.86c.081-.372.15-.748.197-1.13a28.3 28.3 0 0 0 .113-4.927 14.6 14.6 0 0 0-.753-3.822 8 8 0 0 0-.461-1.041 12 12 0 0 0-.202-.307" style="fill:#fff;fill-opacity:.298039;fill-rule:evenodd;stroke:none;stroke-width:1.33333" transform="translate(34)"/>
<path d="m14.202 9.537 3.383-2.12c.277-.174.53-.052.566.272l.7 6.473c.035.325-.186.5-.493.391l-3.768-1.327.082.778a1.184 1.184 0 0 1-1.054 1.303l-7.65.803a1.183 1.183 0 0 1-1.3-1.055L4.11 9.762A1.184 1.184 0 0 1 5.164 8.46l7.65-.804a1.183 1.183 0 0 1 1.301 1.055zm0 0-3.126 1.96c-.277.174-.253.402.055.51l3.459 1.22z" style="fill:#fff;fill-rule:evenodd;stroke-width:.899996"/>
</svg>
