<svg xmlns="http://www.w3.org/2000/svg" xml:space="preserve" width="24" height="24" viewBox="0 0 6.35 6.35">
<defs>
<radialGradient id="a" cx="0" cy="0" r="1" gradientTransform="rotate(90 1.455 1.72)scale(5.82072)" gradientUnits="userSpaceOnUse">
<stop stop-color="#9BDCFF"/>
<stop offset="1" stop-color="#006AE8"/>
</radialGradient>
</defs>
<path fill="url(#a)" fill-rule="evenodd" d="M2.539.295a.3.3 0 0 0 .09-.012 8 8 0 0 1 1.14.003 3.5 3.5 0 0 1 1 .224q.804.33 1.1 1.148.17.492.2 1.012a7.3 7.3 0 0 1-.03 1.302 3.1 3.1 0 0 1-.236.879 1.87 1.87 0 0 1-1.094 1.008 4.1 4.1 0 0 1-1.26.218 5.7 5.7 0 0 1-1.444-.108Q.693 5.675.385 4.366a5 5 0 0 1-.12-1.194 5 5 0 0 1 .137-1.266Q.724.682 1.957.39q.287-.071.582-.094Z" clip-rule="evenodd" style="fill:url(#a);stroke-width:.264578"/>
<path stroke="#fafafa" stroke-opacity=".125" d="M5.938 2.677v.001q.041.641-.03 1.279a3 3 0 0 1-.226.84q-.314.68-1.017.938a4 4 0 0 1-1.22.21h-.004a5.5 5.5 0 0 1-1.408-.106q-.625-.14-.997-.512-.376-.367-.523-.99a5 5 0 0 1-.115-1.162V3.17a4.8 4.8 0 0 1 .133-1.23c.102-.389.274-.696.513-.93.24-.233.552-.399.944-.492a3.6 3.6 0 0 1 .556-.09.5.5 0 0 0 .108-.013A8 8 0 0 1 3.76.417q.495.039.96.216c.501.206.84.56 1.025 1.069q.163.474.193.975z" style="fill:none;stroke-width:.264578"/>
<path fill="#fafafa" fill-opacity=".125" fill-rule="evenodd" d="M2.684.53h-.008a.3.3 0 0 1-.083.011l-.154.016v.655h-.983V.866q-.132.08-.246.178v.168h-.166a2 2 0 0 0-.177.245h.343v.983H.557a5 5 0 0 0-.028.245h.681v.982H.53q.01.123.027.246h.653v.983H.87q.079.132.177.245h.163v.163q.114.099.246.178v-.34h.983v.648q.122.016.245.028v-.677h.982v.68q.123-.01.246-.028v-.652h.982v.343a1.7 1.7 0 0 0 .246-.177V5.14h.165a2 2 0 0 0 .177-.245H5.14v-.983h.655v-.007q.014-.12.023-.239H5.14v-.982h.682a4 4 0 0 0-.025-.245H5.14v-.983h.345a1.7 1.7 0 0 0-.177-.245H5.14v-.168a2 2 0 0 0-.246-.177v.345h-.982V.553A3 3 0 0 0 3.667.53v.683h-.983Zm-.246.927h-.982v.983h.982zm1.228 0h-.982v.983h.982zm1.229 0h-.983v.983h.983zM2.438 2.685h-.982v.982h.982zm1.228 0h-.982v.982h.982zm1.229 0h-.983v.982h.983zM2.438 3.913h-.982v.983h.982zm1.228 0h-.982v.983h.982zm1.229 0h-.983v.983h.983z" clip-rule="evenodd" style="stroke-width:.264578"/>
<path fill="#fff" d="M3.065 1.19a.22.22 0 0 0-.127.402c-.161.488-.456 1.285-.755 1.583 0 0 .437.662.438 1.103a.166.166 0 0 0-.162.167c0 .092.071.165.161.167v.547h1.105v-.547h.002a.166.166 0 0 0 .165-.167.166.166 0 0 0-.165-.167h-.003c.002-.441.443-1.102.443-1.102-.299-.3-.594-1.096-.756-1.584a.22.22 0 0 0-.126-.401v2.014a.22.22 0 1 1-.22 0V1.632Z" style="stroke-width:.416746"/>
</svg>
