<svg xmlns="http://www.w3.org/2000/svg" xmlns:xlink="http://www.w3.org/1999/xlink" xml:space="preserve" width="22" height="22" fill="none">
<defs>
<linearGradient id="a">
<stop offset="0" style="stop-color:#ccc;stop-opacity:1"/>
<stop offset="1" style="stop-color:#fff;stop-opacity:1"/>
</linearGradient>
<linearGradient xlink:href="#a" id="b" x1="52.978" x2="50.989" y1="96.007" y2="9.226" gradientTransform="translate(-1.222 -1.222)scale(.24444)" gradientUnits="userSpaceOnUse"/>
</defs>
<path d="M11 0C1 0 0 5 0 11c0 8 3 11 11 11s11-3 11-11c0-6-1-11-11-11" style="font-variation-settings:normal;display:inline;opacity:1;vector-effect:none;fill:url(#b);fill-opacity:1;stroke-width:1.11627;stroke-linecap:butt;stroke-linejoin:miter;stroke-miterlimit:4;stroke-dasharray:none;stroke-dashoffset:0;stroke-opacity:1;-inkscape-stroke:none;stop-color:#000;stop-opacity:1"/>
<path d="M11.429 19.111c-1.841-.054-3.494-.164-3.674-.243-1.017-.449-1.887-1.295-2.398-2.335-.522-1.06-.533-1.129-.593-3.704-.128-5.507.456-7.235 2.828-8.358.79-.374.943-.386 4.898-.386s4.107.012 4.898.386c1.01.478 1.746 1.238 2.235 2.305.356.778.374.998.375 4.738L20 15.435l-.536 1.089c-.394.802-.739 1.236-1.306 1.648-1.378 1.001-1.953 1.082-6.73.94m-1.223-4.745c1.461-1.466 2.142-2.03 2.691-2.232.405-.148.784-.313.844-.365.06-.053.16-.51.22-1.015l.113-.919-.865.224c-1.006.261-.991.248-1.343 1.207-.202.55-.766 1.23-2.225 2.685-1.505 1.5-1.914 1.998-1.778 2.162.097.118.224.214.282.214s.985-.883 2.06-1.961" style="fill:#e8eef5" transform="translate(-.428 .265)scale(.9236)"/>
<path d="M7.733 18.788c-.896-.406-1.958-1.384-2.398-2.205-.34-.635-.355-.86-.355-4.991 0-4.912.028-5.038 1.396-6.275C7.724 4.1 7.96 4.055 12.7 4.112l4.199.051.753.443c1.008.593 1.684 1.394 2.015 2.391.232.7.266 1.428.222 4.872-.058 4.59-.105 4.784-1.446 5.995-1.31 1.184-1.54 1.23-6.034 1.23-3.565 0-4.073-.032-4.675-.306m2.47-4.42c1.571-1.575 2.106-2.01 2.73-2.217.428-.142.813-.316.857-.386s.127-.535.185-1.03l.106-.901-.795.185c-1.063.247-1.138.31-1.44 1.207-.207.616-.659 1.174-2.208 2.727-1.485 1.49-1.906 2.003-1.773 2.163.096.116.222.21.28.21s.984-.88 2.058-1.958" style="fill:#d9eaf4" transform="translate(-.428 .265)scale(.9236)"/>
<path d="M7.724 18.784c-1.089-.494-2.115-1.548-2.493-2.56-.3-.8-.333-1.267-.333-4.61 0-4.186.1-4.733 1.084-5.882.317-.37.919-.875 1.338-1.12l.762-.449h8.816l.763.45c.948.556 1.682 1.429 2.008 2.387.366 1.074.36 7.963-.008 9.043-.343 1.008-1.35 2.12-2.389 2.637-.842.42-.868.422-4.855.418-3.587-.003-4.08-.036-4.693-.314m2.524-4.44c1.564-1.553 2.071-1.955 2.768-2.2.913-.32.883-.265 1.08-2.02.02-.183-.117-.232-.545-.197-1.052.087-1.39.318-1.692 1.157-.223.62-.702 1.2-2.285 2.764-1.8 1.78-1.977 2.005-1.752 2.23.138.139.31.232.38.208.072-.024.993-.898 2.046-1.943" style="fill:#c7e3f1" transform="translate(-.428 .265)scale(.9236)"/>
<path d="M7.544 18.68c-1.038-.517-2.046-1.63-2.389-2.637-.37-1.088-.373-7.807-.003-8.893.322-.947 1.192-1.965 2.168-2.539l.762-.448h8.816l.777.466c1.009.604 1.704 1.458 2.003 2.462.356 1.192.343 7.896-.017 8.952-.343 1.008-1.35 2.12-2.389 2.637-.841.42-.871.422-4.864.422s-4.023-.003-4.864-.422m.975-2.073c-.132-.159.3-.687 1.799-2.198 1.612-1.627 2.117-2.038 2.766-2.253.84-.28.865-.32 1.012-1.66l.075-.686-.677.095c-1.159.161-1.36.303-1.644 1.158-.218.655-.623 1.15-2.27 2.78l-2.006 1.982.496.496c.5.5.77.672.45.286" style="fill:#c2dded" transform="translate(-.428 .265)scale(.9236)"/>
<path d="M7.556 18.678c-.469-.227-1.144-.744-1.501-1.15-1.088-1.235-1.18-1.75-1.125-6.207.047-3.713.067-3.926.432-4.627.49-.945 1.068-1.554 1.985-2.096l.735-.435h8.816l.777.466c.428.256 1 .733 1.271 1.061.878 1.059.995 1.829.94 6.176-.048 3.764-.062 3.914-.452 4.678-.49.957-1.412 1.82-2.4 2.243-.66.283-1.137.314-4.68.31-3.88-.007-3.96-.014-4.798-.42m1.424-2.142c0-.044-.103-.042-.23.007-.658.253-.243-.311 1.57-2.13 1.5-1.504 2.16-2.054 2.611-2.176.81-.22 1.11-.554 1.11-1.239 0-.314.078-.716.173-.894.16-.3.13-.317-.45-.243-1.464.188-1.594.255-1.89.97-.155.375-.282.756-.282.847s-.884 1.044-1.964 2.12c-1.577 1.572-1.994 1.909-2.12 1.712-.086-.135-.157-.174-.159-.088-.004.29 1.18 1.37 1.406 1.282.124-.047.225-.123.225-.168m5.347-1.138a1.3 1.3 0 0 0-.572 0c-.157.04-.028.074.286.074s.443-.033.286-.074m1.142-.164a1.3 1.3 0 0 0-.571 0c-.157.041-.029.075.286.075.314 0 .443-.034.285-.075m-7.357-2.04c-.053-.13-.091-.092-.1.099-.006.172.032.268.087.214s.06-.195.013-.313m.486-2.46c-.045-.112-.082-.02-.082.205s.037.316.082.204a.63.63 0 0 0 0-.408m9.767-2.085c-.05-.08-.204-.101-.343-.048-.198.076-.208.126-.043.227.247.153.515.03.386-.18M15.67 5.164c.001-.079-.107-.052-.24.059-.134.111-.199.275-.143.364.1.164.378-.142.383-.423" style="fill:#bcdced" transform="translate(-.428 .265)scale(.9236)"/>
<path d="M7.614 18.703c-1.013-.496-1.746-1.209-2.242-2.18-.384-.752-.392-.857-.392-4.931 0-4.119.004-4.172.408-4.964.493-.969 1.53-1.876 2.575-2.254.638-.23 1.392-.28 4.364-.282 2.332-.003 3.86.066 4.355.197 1.205.317 2.143 1.08 2.685 2.183l.47.957v4.163c0 4.104-.006 4.174-.403 4.952-.49.957-1.412 1.82-2.4 2.243-.66.283-1.138.315-4.68.31-3.82-.005-3.971-.018-4.74-.394m3.488-2.714c.963-.205 3.956-.615 4.93-.676l.766-.048-1.463-1.711c-1.45-1.698-1.46-1.714-1.113-1.976.192-.145 1.435-.954 2.762-1.798s2.398-1.55 2.382-1.568-1.19.33-2.607.775-2.606.809-2.64.809.109-.46.32-1.02c.622-1.66 1.411-4.082 1.35-4.144-.032-.031-.824 1.19-1.76 2.712s-1.768 2.771-1.848 2.774c-.08.002-.907-.659-1.837-1.47l-1.69-1.474-.001 1.352c-.001 1.669-.363 3.86-.934 5.64l-.432 1.35.61.626.61.625.93-.311c.512-.17 1.261-.381 1.665-.467" style="fill:#98c6e6" transform="translate(-.428 .265)scale(.9236)"/>
<path d="M7.865 18.797c-1.39-.564-2.357-1.632-2.772-3.06-.264-.912-.264-7.378 0-8.29.39-1.343 1.142-2.21 2.58-2.979.516-.275.983-.305 4.735-.305 3.884 0 4.213.023 4.898.342a4.62 4.62 0 0 1 2.175 2.189c.309.664.348 1.096.403 4.476.066 4.001-.022 4.713-.724 5.84-.467.75-1.287 1.413-2.208 1.787-.605.245-1.261.287-4.544.287s-3.939-.042-4.543-.287m3.155-2.738c1.153-.281 4.282-.712 5.174-.712.342 0 .622-.04.622-.089s-.654-.837-1.454-1.753l-1.455-1.665 1.414-.925c.777-.509 2.112-1.38 2.965-1.935s1.404-.959 1.224-.897-.877.28-1.55.483c-.674.205-1.795.557-2.49.783-.697.227-1.266.385-1.266.35 0-.033.262-.815.583-1.737.753-2.168 1.21-3.61 1.16-3.662-.023-.022-.844 1.247-1.825 2.82-.98 1.575-1.837 2.896-1.902 2.936-.066.04-.877-.596-1.802-1.416L8.735 7.15 8.62 8.84c-.143 2.146-.544 4.336-1.028 5.622l-.378 1.003.655.655.654.654.759-.238a34 34 0 0 1 1.737-.477" style="fill:#88c1e8" transform="translate(-.428 .265)scale(.9236)"/>
<path d="M7.865 18.797c-1.39-.564-2.357-1.632-2.772-3.06-.264-.912-.264-7.378 0-8.29.39-1.343 1.142-2.21 2.58-2.979.514-.274.979-.305 4.572-.305 2.735 0 4.212.065 4.671.204.894.272 2.057 1.322 2.53 2.283.364.736.388.983.442 4.52.062 3.999-.028 4.715-.728 5.84-.467.75-1.287 1.413-2.208 1.787-.605.245-1.261.287-4.544.287s-3.939-.042-4.543-.287m3.155-2.738c1.153-.281 4.282-.712 5.174-.712.342 0 .622-.046.622-.101s-.624-.823-1.387-1.704c-.764-.882-1.388-1.645-1.388-1.697s.422-.36.939-.686 1.416-.901 2-1.278c.583-.377 1.446-.93 1.918-1.229.471-.299.83-.57.797-.603s-1.08.27-2.326.672c-1.247.402-2.465.779-2.708.837l-.44.106.893-2.575c.492-1.416.869-2.651.838-2.744s-.888 1.17-1.904 2.806c-1.603 2.582-1.881 2.948-2.102 2.769-.14-.113-.92-.78-1.733-1.483L8.735 7.16l-.118 1.685c-.152 2.18-.549 4.354-1.024 5.617l-.378 1.003.655.655.654.654.759-.238a34 34 0 0 1 1.737-.477" style="fill:#82bde7" transform="translate(-.428 .265)scale(.9236)"/>
<path d="M7.865 18.797c-1.39-.564-2.357-1.632-2.772-3.06-.264-.912-.264-7.378 0-8.29.39-1.343 1.144-2.214 2.58-2.978.497-.264 1.044-.311 4.164-.361 3.69-.059 4.94.07 5.79.595a4.8 4.8 0 0 1 1.775 1.91c.425.803.433.875.488 4.557.06 3.998-.03 4.716-.73 5.84-.467.75-1.287 1.413-2.208 1.787-.605.245-1.261.287-4.544.287s-3.939-.042-4.543-.287M11.312 16c.7-.161 2.169-.383 3.265-.491 2.545-.252 2.515-.241 2.012-.692-.743-.666-2.548-2.964-2.425-3.086.246-.243 5.301-3.404 5.444-3.404.08 0 .147-.075.147-.167 0-.227-1.149.073-3.837 1.005-.269.093-.736.23-1.036.305-.664.165-.681.29.368-2.727.413-1.186.75-2.233.75-2.327 0-.244-.292-.212-.355.038-.03.115-.814 1.436-1.744 2.937l-1.69 2.727-.529-.447c-.29-.245-1.073-.92-1.738-1.5L8.734 7.12l-.117 1.706c-.152 2.194-.547 4.368-1.024 5.637l-.378 1.003.655.655.654.654.759-.24a35 35 0 0 1 2.03-.534m-.94-9.438c-.05-.05-.182 0-.293.112-.16.16-.141.18.091.091.161-.061.252-.153.202-.203m2.933-1.172c.057-.093-.008-.12-.154-.065-.283.109-.334.226-.1.226.085 0 .2-.073.254-.161" style="fill:#7dbce7" transform="translate(-.428 .265)scale(.9236)"/>
<path d="M7.865 18.797c-1.39-.564-2.357-1.632-2.772-3.06-.264-.912-.264-7.378 0-8.29.39-1.343 1.142-2.21 2.58-2.979.503-.268 1.042-.311 4.49-.359 2.155-.03 3.882-.02 3.837.021-.045.042-1.705.75-3.69 1.575l-3.61 1.5-.106 1.733c-.13 2.13-.508 4.208-1.006 5.532l-.376 1.001.68.655.678.655.898-.293c1.454-.472 3.054-.779 5.143-.985 1.078-.106 2.036-.213 2.129-.238s.781-1.577 1.528-3.45c.748-1.874 1.424-3.477 1.504-3.562.228-.243.182 6.686-.05 7.483-.414 1.43-1.381 2.497-2.771 3.061-.605.245-1.261.287-4.544.287s-3.939-.042-4.543-.287" style="fill:#89afd4" transform="translate(-.428 .265)scale(.9236)"/>
<path d="M8.38 18.95c-.66-.164-1.827-.849-2.29-1.345-.198-.211-.529-.751-.735-1.199-.35-.76-.379-1.058-.427-4.535-.044-3.097-.008-3.854.213-4.519.376-1.131 1.204-2.136 2.226-2.702l.878-.487 3.918-.054c2.155-.03 3.882-.02 3.837.021-.045.042-1.706.75-3.69 1.576l-3.61 1.5-.111 1.717c-.133 2.06-.47 3.916-.984 5.437l-.38 1.123.682.669.682.669.889-.305c1.223-.418 3.44-.84 5.599-1.066l1.81-.188 1.393-3.457c.767-1.9 1.454-3.515 1.527-3.587.074-.073.11 1.557.082 3.62-.05 3.543-.074 3.802-.44 4.612-.422.933-1.111 1.626-2.188 2.202-.654.35-.887.37-4.526.398-2.11.016-4.07-.029-4.354-.1" style="fill:#6ea8d7" transform="translate(-.428 .265)scale(.9236)"/>
<path d="M8.473 18.955c-.7-.143-1.882-.812-2.383-1.35-.198-.211-.529-.751-.735-1.199-.35-.76-.379-1.058-.427-4.535-.044-3.097-.008-3.854.213-4.519.376-1.131 1.204-2.136 2.226-2.702l.878-.487 3.837-.056c2.11-.03 3.8-.022 3.755.019s-.743.352-1.551.69c-.808.34-2.388 1.008-3.51 1.486l-2.041.869-.189 2.088c-.206 2.28-.523 3.933-1.03 5.377-.18.513-.31.938-.287.944s.34.29.706.631l.665.62.72-.24a37 37 0 0 1 1.374-.418c.92-.253 4.766-.824 5.562-.825l.664-.001 1.117-2.813c.614-1.547 1.287-3.182 1.496-3.633l.379-.82-.038 3.756c-.035 3.56-.057 3.8-.425 4.613-.422.933-1.111 1.626-2.188 2.202-.653.349-.888.37-4.445.396-2.065.015-4.02-.027-4.343-.093" style="fill:#6499cb" transform="translate(-.428 .265)scale(.9236)"/>
<path d="M8.473 18.956c-.89-.183-2.063-.94-2.594-1.674-.842-1.162-.9-1.53-.9-5.772 0-4.416.085-4.808 1.29-6.013 1.262-1.262 1.511-1.321 5.813-1.372l3.836-.046-1.959.834a761 761 0 0 1-3.592 1.518l-1.632.683-.183 2.039c-.192 2.145-.52 3.83-1.056 5.42l-.322.956.454.49c.7.757.918.83 1.71.565 1.79-.598 4.253-1.028 6.413-1.119l1.138-.048 1.392-3.458 1.392-3.458.133.933c.073.513.09 2.146.037 3.627-.086 2.44-.134 2.774-.508 3.544-.444.914-1.027 1.487-2.091 2.055-.631.337-.902.361-4.428.388-2.065.016-4.02-.025-4.343-.092" style="fill:#5a95ca" transform="translate(-.428 .265)scale(.9236)"/>
<path d="M8.562 18.959c-.87-.151-2.081-.873-2.592-1.543-.827-1.083-.876-1.392-.928-5.743-.045-3.84-.027-4.126.292-4.83.409-.904 1.286-1.814 2.221-2.304.646-.339.932-.365 4.445-.406l3.755-.045-.653.316c-.36.174-1.943.85-3.52 1.503L8.714 7.094 8.51 9.302c-.23 2.49-.358 3.148-.955 4.932l-.42 1.254.474.511c.78.841.892.86 2.432.414 1.793-.52 4.175-.903 5.612-.903.71 0 1.18-.075 1.276-.204.083-.112.735-1.673 1.449-3.47l1.296-3.265.045 3.584c.043 3.56.04 3.59-.376 4.441-.452.923-1.034 1.496-2.098 2.064-.63.336-.905.36-4.346.386-2.02.016-3.972-.024-4.336-.087" style="fill:#4b8bc5" transform="translate(-.428 .265)scale(.9236)"/>
<path d="M15.007 18.516c.208-.351.711-1.216 1.119-1.923l.74-1.284 1.322.113c.727.062 1.377.167 1.445.232.067.065-.067.498-.299.963-.703 1.41-1.982 2.254-3.69 2.432l-1.014.106zm-7.785-.073c-.473-.271-1.075-.79-1.338-1.154-.485-.67-.923-1.733-.775-1.881.045-.045.52-.031 1.058.03.853.096 1.071.198 1.731.813.738.687.755.725.755 1.695 0 1.19-.138 1.238-1.43.497m-2.28-10c.125-1.213.6-2.235 1.398-3.01.649-.63 1.905-1.324 2.08-1.15.048.05.128.74.176 1.536l.087 1.446-1.77.98a83 83 0 0 1-1.918 1.042c-.084.036-.107-.328-.054-.845" style="fill:#5888ba" transform="translate(-.428 .265)scale(.9236)"/>
<path d="M15.009 18.514c.206-.35.71-1.214 1.117-1.92l.74-1.285 1.32.115c.727.064 1.37.146 1.432.184.215.133-.411 1.38-1.011 2.01-.814.856-1.68 1.274-2.935 1.416l-1.04.117zm-7.755-.053c-.455-.26-1.021-.729-1.259-1.04-.47-.616-1.026-1.873-.89-2.01.047-.046.518-.035 1.048.025.846.096 1.055.196 1.731.835.749.707.77.752.77 1.697 0 1.161-.146 1.212-1.4.493m-2.3-10.008c.143-1.219.483-1.97 1.298-2.857.622-.678 1.987-1.493 2.18-1.3.042.042.116.727.164 1.523l.087 1.446-1.77.98a83 83 0 0 1-1.918 1.042c-.084.036-.102-.319-.042-.834" style="fill:#467bb3" transform="translate(-.428 .265)scale(.9236)"/>
<path d="M15.013 18.509c.206-.347.71-1.207 1.119-1.911l.745-1.28 1.317.113c.724.062 1.367.16 1.43.218.176.166-.544 1.45-1.173 2.09-.78.793-1.527 1.14-2.764 1.281l-1.048.12zm-7.647.017c-.394-.225-.926-.647-1.182-.937-.454-.515-1.123-1.75-1.123-2.075 0-.1.387-.125 1.02-.064.92.089 1.088.165 1.697.773.606.605.687.78.784 1.695.127 1.205-.02 1.28-1.196.608m-2.468-9.74c0-.196.123-.794.273-1.328.337-1.201 1.574-2.62 2.584-2.962l.653-.222.126 1.33c.069.73.095 1.407.058 1.503-.076.198-3.251 2.036-3.518 2.036-.097 0-.176-.16-.176-.357" style="fill:#316fae" transform="translate(-.428 .265)scale(.9236)"/>
<path d="M14.857 19c0-.062.46-.915 1.02-1.895l1.021-1.782.717.094c.394.051.908.094 1.142.096.654.004.87.21.744.71-.16.64-1.478 2.026-2.255 2.373-.706.315-2.389.6-2.389.404m-7.278-.385c-.713-.335-1.95-1.567-2.174-2.167-.402-1.074-.437-1.024.698-.966.975.05 1.079.096 1.7.735.609.627.665.761.715 1.702.032.61-.012 1.018-.11 1.014-.09-.003-.463-.147-.829-.318M5.061 8.468c0-1.006.311-1.86.948-2.605.657-.767 1.673-1.455 2.151-1.455.284 0 .33.107.332.776 0 .426.045 1.038.098 1.358.094.572.076.596-.912 1.184-.554.33-1.04.6-1.08.6s-.365.184-.72.409c-.356.224-.685.408-.732.408s-.085-.304-.085-.675" style="fill:#1c5da1" transform="translate(-.428 .265)scale(.9236)"/>
<path d="M7.72 18.631c-.891-.35-1.744-1.186-2.258-2.217l-.411-.822 1.015-.05c1.005-.048 1.022-.042 1.728.664.703.703.712.727.664 1.704l-.05.99zm8.168-1.42 1.01-1.729 1.252.056c.69.03 1.311.114 1.383.186.196.196-.534 1.46-1.217 2.107-.73.692-1.75 1.108-2.717 1.108h-.722ZM5.065 8.385c.004-.962.418-1.925 1.199-2.79.552-.61 1.804-1.337 1.988-1.153.143.142.386 2.652.267 2.758-.061.055-.697.413-1.412.796-.716.383-1.47.806-1.674.94-.37.242-.372.238-.368-.55" style="fill:#13549a" transform="translate(-.428 .265)scale(.9236)"/>
</svg>
