<svg xmlns="http://www.w3.org/2000/svg" width="24" height="24" fill="none">
<path fill="url(#a)" fill-rule="evenodd" d="M9.94 1.068q-.164.048-.344.046-1.114.09-2.2.355Q2.738 2.576 1.52 7.205a18.5 18.5 0 0 0-.515 4.786q-.046 2.282.447 4.51 1.16 4.95 6.128 6.057A21.4 21.4 0 0 0 11.9 23h.012q.56 0 1.12-.03a15.6 15.6 0 0 0 4.766-.824q2.859-1.049 4.135-3.812a11.9 11.9 0 0 0 .893-3.32A28 28 0 0 0 23 11.908v-.007q0-.905-.059-1.812a14.3 14.3 0 0 0-.756-3.824q-1.12-3.09-4.158-4.34a13.5 13.5 0 0 0-3.78-.847A33 33 0 0 0 12.013 1h-.007q-1.034 0-2.066.068" clip-rule="evenodd"/>
<path fill="#000" fill-opacity=".498" d="M12 5.125a6.875 6.875 0 1 0 0 13.75 6.875 6.875 0 0 0 0-13.75m0 .76A6.12 6.12 0 0 1 18.115 12 6.12 6.12 0 0 1 12 18.114 6.12 6.12 0 0 1 5.885 12 6.12 6.12 0 0 1 12 5.885"/>
<path fill="#000" fill-opacity=".498" d="M12 6.943c.203 0 .404.021.595.05-.197-.024-.393-.05-.595-.05m0 0c-.203 0-.399.026-.595.05a4 4 0 0 1 .595-.05m-.595.05C8.898 7.288 6.943 9.412 6.943 12A5.06 5.06 0 0 0 12 17.058 5.06 5.06 0 0 0 17.057 12c0-2.587-1.955-4.711-4.462-5.008 1.337.2 2.347 1.065 2.347 2.1 0 1.181-1.321 2.131-2.942 2.131s-2.942-.95-2.942-2.131c0-1.035 1.01-1.9 2.347-2.1Z"/>
<path fill="#000" fill-opacity=".498" d="M12 10.11c1.238 0 2.24-.708 2.24-1.583S13.239 6.943 12 6.943c-1.238 0-2.24.71-2.24 1.584s1.002 1.584 2.24 1.584Zm6.417-5.443a.917.917 0 1 0 0 1.833.917.917 0 0 0 0-1.833"/>
<defs>
<linearGradient id="a" x1="12" x2="12" y1="1" y2="12" gradientUnits="userSpaceOnUse">
<stop stop-color="#DC9DFF"/>
<stop offset="1" stop-color="#AD5BDB"/>
</linearGradient>
</defs>
</svg>
