<svg xmlns="http://www.w3.org/2000/svg" width="24" height="24">
<defs>
<radialGradient id="a" cx="0" cy="0" r="1" fx="0" fy="0" gradientTransform="matrix(0 22 -22 0 12 1)" gradientUnits="userSpaceOnUse" spreadMethod="pad">
<stop offset="0" style="stop-color:#fcd188;stop-opacity:1"/>
<stop offset="1" style="stop-color:#f4a11d;stop-opacity:1"/>
</radialGradient>
</defs>
<path d="M9.593 1.115q.18 0 .344-.047a32 32 0 0 1 4.308.01 13.7 13.7 0 0 1 3.781.849c2.026.833 3.41 2.281 4.162 4.338.42 1.24.676 2.516.754 3.823a28.3 28.3 0 0 1-.114 4.928 12 12 0 0 1-.896 3.317q-1.276 2.766-4.135 3.812a15.6 15.6 0 0 1-4.767.824 21.3 21.3 0 0 1-5.452-.412c-3.308-.734-5.354-2.754-6.125-6.057a19 19 0 0 1-.448-4.51 18.5 18.5 0 0 1 .516-4.787q1.218-4.625 5.875-5.734a14 14 0 0 1 2.197-.354" style="fill:url(#a);fill-rule:evenodd;stroke:none;stroke-width:1.33333"/>
<path fill="#fce3bc" d="M12 4a8 8 0 0 0-8 8 8 8 0 0 0 8 8 8 8 0 0 0 8-8 8 8 0 0 0-8-8m0 .889a7.11 7.11 0 0 1 6.98 5.778h-1.647a.443.443 0 1 0 0 .889h1.762a7 7 0 0 1 .016.444 7 7 0 0 1-.022.444h-1.756a.443.443 0 1 0 0 .89h1.65A7.11 7.11 0 0 1 12 19.11a7.11 7.11 0 0 1-6.98-5.778h1.647a.444.444 0 1 0 0-.889h-1.76A7 7 0 0 1 4.889 12a7 7 0 0 1 .022-.444h1.756a.443.443 0 1 0 0-.89H5.018A7.11 7.11 0 0 1 12 4.89m0 1.778a1.34 1.34 0 0 0-.787.238c-.209.155-.343.36-.444.563-.202.404-.304.83-.498 1.222-.073.143-.096.141-.144.155s-.165.018-.34-.007c-.356-.05-.938-.204-1.541.1a1.3 1.3 0 0 0-.66.832c-.095.34-.087.704-.026 1.08.127.755.484 1.571.96 2.286.427.638.984 1.642 1.555 2.5.285.426.573.817.87 1.126.299.306.61.571 1.055.571s.756-.265 1.054-.571c.297-.309.586-.7.872-1.126.57-.858 1.13-1.862 1.555-2.5.476-.715.832-1.531.958-2.285.063-.377.068-.741-.025-1.081-.094-.34-.316-.663-.66-.832-.603-.304-1.186-.15-1.54-.1-.176.025-.293.022-.343.007-.044-.014-.067-.012-.14-.155-.196-.391-.3-.818-.5-1.222a1.5 1.5 0 0 0-.447-.563A1.32 1.32 0 0 0 12 6.667m0 4.444c.246 0 .444.198.444.445v2.666a.443.443 0 1 1-.888 0v-2.666c0-.247.198-.445.444-.445" style="stroke-width:1"/>
</svg>
