<svg xmlns="http://www.w3.org/2000/svg" xml:space="preserve" width="24" height="24" viewBox="0 0 6.35 6.35">
<defs>
<radialGradient id="a" cx="0" cy="0" r="1" fx="0" fy="0" gradientTransform="matrix(0 16.5 -16.5 0 9 .75)" gradientUnits="userSpaceOnUse" spreadMethod="pad">
<stop offset="0" style="stop-color:#fff;stop-opacity:1"/>
<stop offset="0" style="stop-color:#2eb67d;stop-opacity:1"/>
<stop offset=".304" style="stop-color:#ecb22e;stop-opacity:1"/>
<stop offset=".613" style="stop-color:#d6285e;stop-opacity:1"/>
<stop offset="1" style="stop-color:#36c5f0;stop-opacity:1"/>
</radialGradient>
</defs>
<path d="M7.195.836q.135 0 .258-.035a24 24 0 0 1 3.231.008 10.3 10.3 0 0 1 2.836.636q2.278.938 3.121 3.254.476 1.396.566 2.867a21 21 0 0 1-.086 3.696 9 9 0 0 1-.672 2.488q-.957 2.074-3.101 2.859a11.7 11.7 0 0 1-3.575.618 16 16 0 0 1-4.089-.309c-2.481-.551-4.016-2.066-4.594-4.543a14.2 14.2 0 0 1-.336-3.383q-.041-1.818.387-3.59.914-3.468 4.406-4.3A10 10 0 0 1 7.195.836" style="fill:url(#a);fill-rule:evenodd;stroke:none;stroke-width:.99975004;stroke-dasharray:none" transform="translate(.022 -.08)scale(.35277)"/>
<g transform="translate(.845 .743)scale(.0735)">
<rect width="54" height="54" x="5" y="5" fill="#f2f2f2" ry="27"/>
<g stroke-width="1.304">
<path fill="#2eb67d" d="M36.565 15.043a3.26 3.26 0 0 0-3.26 3.26v9.131a3.26 3.26 0 0 0 3.26 3.261 3.26 3.26 0 0 0 3.26-3.26v-9.131a3.26 3.26 0 0 0-3.26-3.261m9.13 9.13a3.26 3.26 0 0 0-3.26 3.261v3.261h3.26a3.26 3.26 0 0 0 3.261-3.26 3.26 3.26 0 0 0-3.26-3.262z"/>
<path fill="#ecb22e" d="M48.957 36.565a3.26 3.26 0 0 0-3.26-3.26h-9.131a3.26 3.26 0 0 0-3.261 3.26 3.26 3.26 0 0 0 3.26 3.26h9.131a3.26 3.26 0 0 0 3.261-3.26m-9.13 9.13a3.26 3.26 0 0 0-3.261-3.26h-3.261v3.26a3.26 3.26 0 0 0 3.26 3.261 3.26 3.26 0 0 0 3.262-3.26z"/>
<path fill="#d6285e" d="M27.435 48.957a3.26 3.26 0 0 0 3.26-3.26v-9.131a3.26 3.26 0 0 0-3.26-3.261 3.26 3.26 0 0 0-3.26 3.26v9.131a3.26 3.26 0 0 0 3.26 3.261m-9.13-9.13a3.26 3.26 0 0 0 3.26-3.261v-3.261h-3.26a3.26 3.26 0 0 0-3.261 3.26 3.26 3.26 0 0 0 3.26 3.262z"/>
<path fill="#36c5f0" d="M15.043 27.435a3.26 3.26 0 0 0 3.26 3.26h9.131a3.26 3.26 0 0 0 3.261-3.26 3.26 3.26 0 0 0-3.26-3.26h-9.131a3.26 3.26 0 0 0-3.261 3.26m9.13-9.13a3.26 3.26 0 0 0 3.261 3.26h3.261v-3.26a3.26 3.26 0 0 0-3.26-3.261 3.26 3.26 0 0 0-3.262 3.26z"/>
</g>
</g>
</svg>
