<svg xmlns="http://www.w3.org/2000/svg" xmlns:xlink="http://www.w3.org/1999/xlink" xml:space="preserve" width="24" height="24" viewBox="0 0 6.35 6.35">
<defs>
<linearGradient id="a">
<stop offset="0" style="stop-color:#aaa;stop-opacity:1"/>
<stop offset="1" style="stop-color:#d0d0d0;stop-opacity:1"/>
</linearGradient>
<linearGradient xlink:href="#a" id="c" x1="3.346" x2="3.346" y1="1.26" y2="2.716" gradientUnits="userSpaceOnUse"/>
<radialGradient id="b" cx="0" cy="0" r="1" gradientTransform="rotate(90 1.455 1.72)scale(5.82083)" gradientUnits="userSpaceOnUse">
<stop stop-color="#FAFAFA"/>
<stop offset="1" stop-color="#B0B0B0"/>
</radialGradient>
</defs>
<path fill="url(#b)" fill-rule="evenodd" d="M2.63.283a.3.3 0 0 1-.091.012 3.6 3.6 0 0 0-.582.094Q.724.681.402 1.906q-.15.624-.136 1.267-.012.603.118 1.193.307 1.31 1.622 1.603.713.147 1.442.109a4.2 4.2 0 0 0 1.261-.218 1.87 1.87 0 0 0 1.094-1.01q.182-.42.237-.878a7.4 7.4 0 0 0 .03-1.302 3.8 3.8 0 0 0-.2-1.012A1.89 1.89 0 0 0 4.77.51a3.6 3.6 0 0 0-1-.224A8 8 0 0 0 2.63.283" clip-rule="evenodd" style="fill:url(#b);stroke-width:.264583"/>
<g transform="translate(-.589 -.589)scale(1.18549)">
<circle cx="3.175" cy="3.175" r="1.785" style="fill:url(#c);fill-opacity:1;stroke:none;stroke-width:0;stroke-linecap:round;stroke-linejoin:round"/>
<path d="M4.3 2.046s-.893-.028-1.485.816c-.401.005-.687.205-.943.454.211-.056.42-.118.7-.01a3 3 0 0 0-.097.272q.086.054.162.127.078.081.137.173.146-.045.272-.098c.108.28.046.49-.01.701.249-.257.45-.542.454-.943.845-.592.811-1.492.811-1.492Zm-.531.538a.244.244 0 0 1 0 .344.244.244 0 0 1-.345 0 .244.244 0 0 1 0-.344.244.244 0 0 1 .345 0M2.425 3.703c-.272.157-.322.355-.343.558l.071-.071-.071.071c.203-.02.401-.071.558-.343-.09.025-.18.076-.272.057-.019-.092.032-.182.057-.272" style="fill:#5a5a5a;fill-opacity:1;stroke:none;stroke-width:.0174903px;stroke-linecap:butt;stroke-linejoin:miter;stroke-opacity:1"/>
</g>
</svg>
