<svg xmlns="http://www.w3.org/2000/svg" xml:space="preserve" width="24" height="24" fill="none">
<defs>
<linearGradient id="a" x1="12" x2="12" y1="1" y2="12" gradientTransform="scale(.75)" gradientUnits="userSpaceOnUse" spreadMethod="pad">
<stop offset="0" style="stop-opacity:1;stop-color:#a4fcc0"/>
<stop offset="1" style="stop-opacity:1;stop-color:#6cce86"/>
</linearGradient>
<clipPath id="b" clipPathUnits="userSpaceOnUse">
<path d="M0 0h19v19H0Z"/>
</clipPath>
</defs>
<path d="M2.844 15.531c-.86-.773-1.446-1.828-1.754-3.156q-.11-.482-.18-.969h16.192a9 9 0 0 1-.653 2.344 5.4 5.4 0 0 1-1.285 1.781z" style="fill:#fff;fill-opacity:1;fill-rule:evenodd;stroke:none" transform="scale(1.33333)"/>
<path d="M8.988.75q-.767 0-1.535.051a1 1 0 0 1-.258.035 10 10 0 0 0-1.648.266q-3.492.831-4.406 4.3a14 14 0 0 0-.387 3.59q-.025 1.219.156 2.414h16.192l.019-.144q.123-1.096.129-2.192v-.285a26 26 0 0 0-.043-1.219 10.8 10.8 0 0 0-.566-2.867q-.843-2.315-3.121-3.254a10.3 10.3 0 0 0-2.836-.636A24 24 0 0 0 9.027.75Zm6.176 14.781H2.844q1.115 1.004 2.84 1.387 1.605.333 3.234.332h.023q.417 0 .832-.023a11.7 11.7 0 0 0 3.575-.618 5.5 5.5 0 0 0 1.816-1.078" style="fill:url(#a);fill-rule:evenodd;stroke:none" transform="scale(1.33333)"/>
<path d="M7.531 3.5a.92.92 0 0 0-.867.559.9.9 0 0 0-.07.355v4.238a.918.918 0 0 0 1.375.793l3.668-2.117a.9.9 0 0 0 .336-.336.94.94 0 0 0 0-.918.93.93 0 0 0-.336-.336L7.969 3.621a.9.9 0 0 0-.438-.121" style="fill:#fff;fill-opacity:1;fill-rule:evenodd;stroke:none" transform="scale(1.33333)"/>
<g clip-path="url(#b)" opacity=".25" transform="scale(1.33333)">
<path d="M15.188 13.125h-4.813a.34.34 0 0 0-.344.344c0 .187.153.343.344.343h4.813a.344.344 0 0 0 0-.687" style="fill:#000;fill-opacity:1;fill-rule:nonzero;stroke:none"/>
</g>
<path d="M9.688 13.125H2.812a.344.344 0 0 0 0 .687h6.876a.344.344 0 0 0 0-.687" style="fill:#6cce86;fill-opacity:1;fill-rule:nonzero;stroke:none" transform="scale(1.33333)"/>
<path d="M10.031 14.5a1.03 1.03 0 0 0 1.031-1.031c0-.571-.46-1.031-1.031-1.031a1.03 1.03 0 1 0 0 2.062" style="fill:#fff;fill-opacity:1;fill-rule:nonzero;stroke:none" transform="scale(1.33333)"/>
</svg>
