<svg xmlns="http://www.w3.org/2000/svg" width="24" height="24">
<defs>
<radialGradient id="a" cx="0" cy="0" r="1" gradientTransform="matrix(0 22 -22 0 12 1)" gradientUnits="userSpaceOnUse">
<stop stop-color="#555"/>
<stop offset="1" stop-color="#222"/>
</radialGradient>
</defs>
<path fill="url(#a)" fill-rule="evenodd" d="M9.596 1.114q.18.001.344-.046a32 32 0 0 1 4.307.011q1.951.153 3.78.848 3.038 1.25 4.158 4.339.64 1.86.756 3.824a28 28 0 0 1-.115 4.923 11.9 11.9 0 0 1-.893 3.32q-1.276 2.764-4.135 3.813a15.6 15.6 0 0 1-4.766.825 21.4 21.4 0 0 1-5.452-.412q-4.967-1.107-6.128-6.057a19 19 0 0 1-.447-4.511 18.5 18.5 0 0 1 .515-4.786q1.217-4.629 5.877-5.736a14 14 0 0 1 2.199-.355" clip-rule="evenodd" style="fill:url(#a)"/>
<g transform="translate(12.151 -11.65)">
<g opacity=".5">
<path fill="#fff" d="M7.38 20.15h4.05v2.7H7.38Zm0 5.4h4.05v2.7H7.38Zm0 5.4h4.05v2.7H7.38Zm0 5.4h4.05v2.7H7.38Zm0 5.4h4.05v2.7H7.38Zm0 5.4h4.05v2.7H7.38Z" opacity="1" style="stroke-width:1.52384" transform="translate(-12.836 8.33)scale(.43771)"/>
</g>
<g opacity=".5">
<path fill="#fff" d="M46.53 20.15h4.05v2.7h-4.05zm0 5.4h4.05v2.7h-4.05zm0 5.4h4.05v2.7h-4.05zm0 5.4h4.05v2.7h-4.05zm0 5.4h4.05v2.7h-4.05zm0 5.4h4.05v2.7h-4.05z" opacity="1" style="stroke-width:1.52384" transform="translate(-12.836 8.33)scale(.43771)"/>
</g>
<rect width="11.817" height="9.455" x="-6.058" y="18.923" fill="#db3447" rx="1.788" ry="1.553" style="stroke-width:1"/>
<path fill="#fff" d="M-1.84 20.695a.66.66 0 0 0-.674.661v4.586a.662.662 0 0 0 .99.575l3.995-2.294a.662.662 0 0 0 0-1.148l-3.994-2.292a.66.66 0 0 0-.316-.087z" color="#000" style="text-indent:0;text-decoration-line:none;text-decoration-style:solid;text-decoration-color:#000;text-transform:none;white-space:normal;isolation:auto;mix-blend-mode:normal;stroke-width:1"/>
</g>
</svg>
