<svg xmlns="http://www.w3.org/2000/svg" width="24" height="24" fill="none">
<path fill="url(#a)" fill-rule="evenodd" d="M9.596 1.114q.18.001.344-.046a32 32 0 0 1 4.307.011q1.951.153 3.78.847 3.039 1.25 4.158 4.34.64 1.86.756 3.824a28 28 0 0 1-.114 4.923 11.9 11.9 0 0 1-.894 3.32q-1.276 2.764-4.135 3.813a15.6 15.6 0 0 1-4.766.825 21.4 21.4 0 0 1-5.452-.412q-4.967-1.107-6.128-6.057a19 19 0 0 1-.447-4.511 18.5 18.5 0 0 1 .515-4.786q1.217-4.629 5.877-5.736a14 14 0 0 1 2.199-.355" clip-rule="evenodd"/>
<path fill="#1AA74B" d="M10.507 19.038c-.434-.085-1.194-.364-1.78-.654-1.82-.9-3.204-2.593-3.747-4.584-.303-1.108-.259-2.85.1-3.948.795-2.437 2.693-4.21 5.206-4.861.991-.257 2.66-.221 3.697.08 2.492.72 4.427 2.69 5.066 5.153.228.88.23 2.645.003 3.522-.962 3.731-4.702 6.047-8.545 5.292m4.952-3.734c.06-.095.076-.3.037-.456-.087-.348-1.245-.941-2.397-1.227-1.444-.36-4.852-.196-5.302.254-.206.207-.2.62.013.797.14.115.346.116 1.136.004 2.081-.295 4.13-.07 5.223.575.505.297 1.122.322 1.29.053m.707-1.785c.38-.265.291-.881-.17-1.192-.559-.375-2.086-.976-3.014-1.187-1.734-.393-4.808-.163-5.413.406-.31.29-.324.668-.037.956.262.261.296.262 1.366.041.642-.133 1.202-.161 2.31-.119 1.627.063 2.448.257 3.726.879.899.437.913.44 1.232.216m1.082-2.379c.2-.14.24-.255.213-.618-.027-.368-.096-.489-.394-.69-.553-.37-2.01-.9-3.154-1.145-2.014-.433-5.912-.255-6.784.309-.49.317-.415 1.135.122 1.339.18.069.573.035 1.272-.109 2.398-.495 5.65-.126 7.504.851.518.274.893.293 1.22.063Z"/>
<defs>
<linearGradient id="a" x1="12.014" x2="12.014" y1="22.058" y2="-5.088" gradientUnits="userSpaceOnUse">
<stop stop-color="#181818"/>
<stop offset=".452" stop-color="#333"/>
<stop offset="1" stop-color="#484848"/>
</linearGradient>
</defs>
</svg>
