<svg xmlns="http://www.w3.org/2000/svg" width="24" height="24">
<defs>
<radialGradient id="a" cx="0" cy="0" r="1" gradientTransform="matrix(0 22 -22 0 12 1)" gradientUnits="userSpaceOnUse">
<stop stop-color="#FAFAFA"/>
<stop offset="1" stop-color="#B0B0B0"/>
</radialGradient>
</defs>
<path fill="url(#a)" fill-rule="evenodd" d="M9.94 1.068q-.164.048-.344.046-1.114.09-2.2.355Q2.738 2.576 1.52 7.205a18.5 18.5 0 0 0-.515 4.786q-.046 2.283.447 4.51 1.16 4.95 6.128 6.058 2.7.555 5.452.412a15.6 15.6 0 0 0 4.766-.825q2.859-1.05 4.135-3.812a11.9 11.9 0 0 0 .893-3.32q.276-2.457.115-4.924a14.3 14.3 0 0 0-.756-3.824q-1.12-3.09-4.158-4.34a13.5 13.5 0 0 0-3.78-.847 32 32 0 0 0-4.307-.011" clip-rule="evenodd" style="fill:url(#a);stroke-width:1"/>
<g stroke-linecap="round" stroke-linejoin="bevel">
<path fill="#d34148" d="M7.75 6.5h8.5v2h-8.5Z"/>
<path fill="#884ca1" d="M7 7h10v2H7Z"/>
<path fill="#15bb91" d="M6.25 7.5h11.5v2.25H6.25Z"/>
</g>
<g stroke-linejoin="round" stroke-width="1.63">
<path fill="#1ea5f7" d="M5.5 8h13v9.5h-13Z"/>
<path fill="#0a87e2" d="M5.5 8.449v8.284l7.977-4.142Z"/>
<path fill="#1392f5" d="m18.5 9.983-13 6.75v.767h13z"/>
<path fill="#c5eafd" d="m10.466 11.057 3.068 1.534-3.068 1.534Z"/>
</g>
</svg>
