<svg xmlns="http://www.w3.org/2000/svg" xmlns:xlink="http://www.w3.org/1999/xlink" width="24" height="24">
<defs>
<radialGradient xlink:href="#a" id="c" cx="12" cy="1.039" r="11" fx="12" fy="1.039" gradientTransform="scale(1 .99997)" gradientUnits="userSpaceOnUse"/>
<radialGradient xlink:href="#b" id="d" cx="12.265" cy=".282" r="7.289" fx="12.265" fy="-4.085" gradientTransform="matrix(3.26776 0 0 3.10864 -27.814 .062)" gradientUnits="userSpaceOnUse"/>
<linearGradient id="b">
<stop offset="0" style="stop-color:#5f4b89;stop-opacity:1"/>
<stop offset="1" style="stop-color:#513c81;stop-opacity:1"/>
</linearGradient>
<linearGradient id="a">
<stop offset="0" style="stop-color:#7c6797;stop-opacity:1"/>
<stop offset="1" style="stop-color:#4b3071;stop-opacity:1"/>
</linearGradient>
</defs>
<path d="M12.094 1a32 32 0 0 0-2.155.068 1.1 1.1 0 0 1-.343.045 14 14 0 0 0-2.2.356Q2.736 2.576 1.52 7.205a18.5 18.5 0 0 0-.516 4.785q-.045 2.283.447 4.512 1.16 4.95 6.13 6.057 2.697.555 5.452.412a15.6 15.6 0 0 0 4.764-.825q2.86-1.049 4.137-3.812.687-1.595.892-3.32.275-2.457.115-4.924a14.3 14.3 0 0 0-.755-3.824q-1.12-3.09-4.159-4.34a13.5 13.5 0 0 0-3.78-.846A32 32 0 0 0 12.093 1z" style="fill:url(#c);fill-opacity:1;stroke-width:.423085"/>
<circle cx="16.928" cy="7.359" r="3.474" fill="#3a3670" style="stroke-width:.423085;fill:#615e8b;fill-opacity:1"/>
<path fill="#e6e6e6" d="M19.59 5.13c.117.347.182.717.182 1.103a3.474 3.474 0 0 1-6.136 2.229 3.47 3.47 0 0 0 3.292 2.37 3.474 3.474 0 0 0 3.474-3.473 3.46 3.46 0 0 0-.811-2.23Z" style="stroke-width:.423085"/>
<path d="M1.633 6.82q-.06.19-.113.385a18.5 18.5 0 0 0-.516 4.785q-.045 2.283.447 4.512a9 9 0 0 0 .986 2.523l3.745 1.301 7.66.361 1.734-3.232C12.711 8.778 4.026 7.117 1.633 6.82" style="fill:url(#d);fill-opacity:1;stroke-width:.423085"/>
<path d="M21.8 11.572c-2.267-.02-7.341.769-11.66 7.405l7.352 2.056 2.697-.303a7.3 7.3 0 0 0 1.745-2.396q.687-1.595.892-3.32c.124-1.112.177-2.226.168-3.34-.016-.004-.452-.095-1.193-.102z" style="fill:#ac776d;fill-opacity:1;stroke-width:.423085"/>
<path d="M21.8 15.047c-2.267-.02-7.341.769-11.66 7.404l9.546-1.308q1.44-1.062 2.248-2.809.664-1.545.877-3.215a7 7 0 0 0-1.01-.072z" style="fill:#b8ad99;fill-opacity:1;stroke-width:.423085"/>
<path d="M19.773 16.71c-5.706.067-10.613 2.321-10.613 2.321l-.055 2.233h10.409q1.564-1.081 2.42-2.93.31-.727.523-1.48a20 20 0 0 0-2.684-.143z" style="fill:#574a5c;fill-opacity:1;stroke-width:.423085"/>
<path d="M1.008 12.81a19 19 0 0 0 .443 3.692q1.16 4.95 6.13 6.057 2.697.555 5.452.412a15.6 15.6 0 0 0 4.764-.825q2.307-.846 3.584-2.808c-5.351 1.78-9.666-1.547-9.666-1.547-6.986-4.818-8.88-4.756-10.707-4.98Z" style="fill:#312b33;fill-opacity:1;stroke-width:.423085"/>
<circle cx="4.183" cy="5.846" r=".716" fill="#e5e5e5" style="stroke-width:.423085"/>
<circle cx="5.496" cy="7.614" r=".46" fill="#e5e5e5" style="stroke-width:.423085"/>
<circle cx="10.707" cy="9.93" r=".46" fill="#e5e5e5" style="stroke-width:.423085"/>
<circle cx="6.706" cy="4.26" r=".375" fill="#e5e5e5" style="stroke-width:.423085"/>
<circle cx="4.872" cy="3.581" r=".273" fill="#e5e5e5" style="stroke-width:.423085"/>
<circle cx="6.499" cy="6.91" r=".273" fill="#e5e5e5" style="stroke-width:.423085"/>
<circle cx="7.657" cy="7.488" r=".273" fill="#e5e5e5" style="stroke-width:.423085"/>
<circle cx="7.078" cy="11.541" r=".273" fill="#e5e5e5" style="stroke-width:.423085"/>
</svg>
