<svg xmlns="http://www.w3.org/2000/svg" xml:space="preserve" width="24" height="24" viewBox="0 0 6.35 6.35">
<defs>
<radialGradient id="a" cx="0" cy="0" r="1" fx="0" fy="0" gradientTransform="matrix(0 8.24995 -8.24995 0 9 .75)" gradientUnits="userSpaceOnUse" spreadMethod="pad">
<stop offset="0" style="stop-opacity:1;stop-color:#b280d1"/>
<stop offset="1" style="stop-opacity:1;stop-color:#8d49bc"/>
</radialGradient>
<clipPath id="b" clipPathUnits="userSpaceOnUse">
<path d="M0 0h19v19H0Z"/>
</clipPath>
</defs>
<path d="M7.195.836q.135 0 .258-.035a24 24 0 0 1 3.231.008 10.3 10.3 0 0 1 2.836.636q2.278.938 3.121 3.254.476 1.396.566 2.867a21 21 0 0 1-.086 3.696 9 9 0 0 1-.672 2.488q-.957 2.074-3.101 2.859a11.7 11.7 0 0 1-3.575.618 16 16 0 0 1-4.089-.309c-2.481-.551-4.016-2.066-4.594-4.543a14.2 14.2 0 0 1-.336-3.383q-.041-1.821.387-3.59.914-3.468 4.406-4.3A10 10 0 0 1 7.195.836" style="fill:url(#a);fill-rule:evenodd;stroke:none" transform="scale(.35277)"/>
<path d="M.754 9c.008 1.004.121 2.395.336 3.375q.872 3.716 4.598 4.543c1.347.277 2.71.383 4.089.309a11.7 11.7 0 0 0 3.575-.618q2.142-.784 3.101-2.859a8.9 8.9 0 0 0 .668-2.492c.07-.617.109-1.637.125-2.258Z" style="fill:#3a497d;fill-opacity:1;fill-rule:nonzero;stroke:none" transform="scale(.35277)"/>
<g clip-path="url(#b)" opacity=".088" transform="scale(.35277)">
<path d="M9 2.25c-.355 0-.707.133-.973.398L2.645 8.027A1.38 1.38 0 0 0 2.25 9c0 .355.133.707.395.973l5.382 5.379a1.39 1.39 0 0 0 1.946 0l5.379-5.379c.265-.266.398-.618.398-.973s-.133-.707-.398-.973L9.973 2.648A1.37 1.37 0 0 0 9 2.25" style="fill:#000;fill-opacity:1;fill-rule:nonzero;stroke:none"/>
</g>
<path d="m11.328 9-3.492 2.559V6.441Z" style="fill:#fff;fill-opacity:1;fill-rule:nonzero;stroke:none" transform="scale(.35277)"/>
</svg>
