<svg xmlns="http://www.w3.org/2000/svg" xmlns:xlink="http://www.w3.org/1999/xlink" width="24" height="24" image-rendering="optimizeSpeed">
<defs>
<radialGradient xlink:href="#a" id="b" cx="9" cy=".962" r="8.25" fx="9" fy=".962" gradientTransform="translate(-1.482 -.158)scale(1.16467)" gradientUnits="userSpaceOnUse"/>
<radialGradient xlink:href="#a" id="e" cx="9" cy=".962" r="8.25" fx="9" fy=".962" gradientTransform="translate(-1.482 -.158)scale(1.16467)" gradientUnits="userSpaceOnUse"/>
<radialGradient xlink:href="#a" id="d" cx="9" cy=".962" r="8.25" fx="9" fy=".962" gradientTransform="translate(-1.482 -.158)scale(1.16467)" gradientUnits="userSpaceOnUse"/>
<radialGradient xlink:href="#a" id="c" cx="9" cy=".962" r="8.25" fx="9" fy=".962" gradientTransform="translate(-1.482 -.158)scale(1.16467)" gradientUnits="userSpaceOnUse"/>
<linearGradient id="f" x1="-20.542" x2="-23.085" y1="40.856" y2="43.297" gradientTransform="translate(130.67 12.607)scale(1.9136)" gradientUnits="userSpaceOnUse">
<stop offset="0" stop-color="#a9a9a9"/>
<stop offset="1" stop-color="#a9a9a9" stop-opacity="0"/>
</linearGradient>
<linearGradient id="g" x1="-46.135" x2="-43.234" y1="23.19" y2="22.645" gradientTransform="translate(130.67 12.607)scale(1.9136)" gradientUnits="userSpaceOnUse">
<stop offset="0" stop-color="#232323"/>
<stop offset="1" stop-color="#232323" stop-opacity="0"/>
</linearGradient>
<linearGradient id="a">
<stop offset="0" style="stop-color:#f4f4f4;stop-opacity:1"/>
<stop offset="1" style="stop-color:#b5bbc0;stop-opacity:1"/>
</linearGradient>
</defs>
<g style="fill:url(#b);fill-opacity:1">
<g style="fill:url(#c);fill-opacity:1" transform="scale(1.33333)">
<g style="fill:url(#d);fill-opacity:1">
<path d="M7.195.836q.135 0 .258-.035a24 24 0 0 1 3.231.008 10.3 10.3 0 0 1 2.836.636q2.278.938 3.121 3.254.476 1.396.566 2.867a21 21 0 0 1-.086 3.696 9 9 0 0 1-.672 2.488q-.957 2.074-3.101 2.859a11.7 11.7 0 0 1-3.575.618 16 16 0 0 1-4.089-.309c-2.481-.551-4.016-2.066-4.594-4.543a14.2 14.2 0 0 1-.336-3.383q-.041-1.821.387-3.59.914-3.468 4.406-4.3A10 10 0 0 1 7.195.836" style="fill:url(#e);fill-opacity:1;fill-rule:evenodd;stroke:none"/>
</g>
</g>
</g>
<g stroke-width="3.136">
<g fill-rule="evenodd">
<path fill="url(#f)" d="m67.711 75.562 27.105 17.889-3.947 9.453S68.412 84.894 67.71 75.562z" style="fill:url(#f)" transform="translate(4.635 4.33)scale(.12163)"/>
<path fill="#181818" d="M13.261 9.746c1.23-.84 3.045-2.282 3.243-2.935.19-.627.97-.51.793.2s-1.148 3.516-2.675 5.385m-7.586 3.705c.697-.205 1.086-1.008 1.597-1.51.923.847 5.734 2.478 3.234 2.52-1.285-.074-2.033.623-2.733 1.193z"/>
<path fill="#232323" d="M12.41 4.5c-1.824.033-2.426 1.423-2.426 2.109s.225 2.113-.327 3.05c-.365.619-1.522 2.086-1.85 3.46-.327 1.373-.071 4.268 3.733 4.335 3.916.069 3.647.906 3.647.906l1.39-2.655c-.363-.174-.92-.437-.896-.486.698-1.48-1.172-4.233-1.523-5.304-.352-1.071.061-1.336.346-1.989.285-.652.4-3.426-2.094-3.426"/>
<path fill="#f5de68" d="M7.272 16.149c-.344-.276-.64.106-.434.473s1.966 2.133 2.471 2.69 1.386-.256.591-.714-2.283-2.174-2.628-2.45z"/>
<path fill="#232323" d="M7.744 14.606c.143.55-.53 1.208-.89 1.547-.469.44.011.68.167.668.155-.012 1.309-.429 2.204.072"/>
<path fill="#fdfdfd" d="M13.53 5.71c-.523-.007-.889.589-.615 1.289.156.401 1.187.38 1.253-.04.112-.712-.12-1.244-.638-1.25z"/>
<path d="M13.485 6.434a.37.448 0 0 1 .522-.001.37.448 0 0 1 .002.633.37.448 0 0 1-.522.004.37.448 0 0 1-.005-.633"/>
<path fill="#f5de68" d="M14.544 8.349c.33.01 2.295-.375 2.317-.652.022-.275-1.38-.408-1.655-.53-.276-.12-1.617-.478-1.6.42.016.899.606.75.938.762"/>
</g>
<path fill="none" stroke="#ae9300" stroke-width=".076" d="M14.04 7.834c.698.151 1.545.203 2.013.124"/>
<path fill="none" d="M14.544 8.349c.33.01 2.295-.375 2.317-.652.022-.275-1.38-.408-1.655-.53-.276-.12-1.617-.478-1.6.42.016.899.606.75.938.762"/>
<path fill="url(#g)" fill-rule="evenodd" d="M45.836 40.168c-13.512 11.442-34.729 38.79-30.485 41.45 3.66 2.293 25.475-16.621 34.7-18.55" style="fill:url(#g)" transform="translate(4.635 4.33)scale(.12163)"/>
<path fill="none" d="M9.568 9.823c-1.041 1.103-2.527 2.854-2.995 3.803-.463.732.072 1.005.699.404.852-.47 2.129-1.586 2.966-1.76"/>
<g fill-rule="evenodd">
<path fill="#f5de68" d="M16.633 14.506c.046-.663.975-.774.969.038-.007.923-1.257 3.156-1.727 3.713-.453.538-.904.118-.586-.4.318-.52 1.281-2.457 1.343-3.351z"/>
<path fill="#ccc" d="M14.317 10.791c-.315-.14-.426.677-.689 1.058-.315.46-.62.902-.387 1.63l2.402 1.667c.31-1.22-.52-2.995-1.326-4.355"/>
<path fill="#fff" d="M13.652 6.395a.126.08 0 0 1 .178 0 .126.08 0 0 1 0 .113.126.08 0 0 1-.178 0 .126.08 0 0 1-.001-.113"/>
</g>
</g>
</svg>
