<svg xmlns="http://www.w3.org/2000/svg" xmlns:xlink="http://www.w3.org/1999/xlink" xml:space="preserve" width="24" height="24" fill="none">
<defs>
<linearGradient id="a">
<stop offset="0" style="stop-color:#1ca4d4;stop-opacity:1"/>
<stop offset="1" style="stop-color:#afdde9;stop-opacity:1"/>
</linearGradient>
<linearGradient xlink:href="#a" id="b" x1="43.598" x2="44.282" y1="77.536" y2="-15.279" gradientUnits="userSpaceOnUse"/>
<linearGradient xlink:href="#a" id="e" x1="43.598" x2="44.282" y1="77.536" y2="-15.279" gradientUnits="userSpaceOnUse"/>
<linearGradient xlink:href="#a" id="d" x1="43.598" x2="44.282" y1="77.536" y2="-15.279" gradientUnits="userSpaceOnUse"/>
<linearGradient xlink:href="#a" id="c" x1="43.598" x2="44.282" y1="77.536" y2="-15.279" gradientUnits="userSpaceOnUse"/>
</defs>
<g style="fill:url(#b);fill-opacity:1;stroke-width:5.54546">
<g style="fill:url(#c);fill-opacity:1;stroke-width:5.54546" transform="translate(1 1)scale(.24044)">
<g style="fill:url(#d);fill-opacity:1;stroke-width:5.54546">
<path d="M35.75.473q.75.007 1.43-.192a132 132 0 0 1 17.914.047 56.4 56.4 0 0 1 15.722 3.524q12.64 5.201 17.293 18.05a59.2 59.2 0 0 1 3.145 15.903 116 116 0 0 1-.477 20.476 49.5 49.5 0 0 1-3.715 13.813c-3.539 7.66-9.269 12.945-17.199 15.855a65 65 0 0 1-19.82 3.43 89.3 89.3 0 0 1-22.676-1.715Q6.707 85.061 1.879 64.473A79.3 79.3 0 0 1 .02 45.711a77 77 0 0 1 2.144-19.906Q7.225 6.556 26.605 1.949A57.5 57.5 0 0 1 35.75.473" style="fill:url(#e);fill-opacity:1;fill-rule:evenodd;stroke:none;stroke-width:5.54546"/>
</g>
</g>
</g>
<g fill="#fff" style="stroke-width:5.92126" transform="translate(-36.823 25.372)scale(.3409)">
<path d="M143.214-59.224c-11.046 0-20 8.955-20 20s8.954 20 20 20 20-8.954 20-20a20 20 0 0 0-1.23-6.827l.041-.032-.104-.148a20 20 0 0 0-18.707-12.993m0 2a18 18 0 0 1 15.975 9.723l-12.479 8.917-21.292 1.934a18 18 0 0 1-.204-2.574c0-9.941 8.06-18 18-18m17.077 12.379a18 18 0 0 1 .923 5.62A18 18 0 0 1 156-26.571l-6.867-10.3zm-13.78 9.089 7.346 11.02a18 18 0 0 1-10.643 3.512 18 18 0 0 1-17.172-12.668z" style="stroke-width:5.92126"/>
<circle cx="125.214" cy="-35.224" r="4" style="stroke-width:5.92126"/>
<circle cx="155.214" cy="-25.224" r="4" style="stroke-width:5.92126"/>
<circle cx="161.214" cy="-47.224" r="4" style="stroke-width:5.92126"/>
<circle cx="147.214" cy="-37.224" r="4" style="stroke-width:5.92126"/>
</g>
</svg>
