<svg xmlns="http://www.w3.org/2000/svg" xmlns:xlink="http://www.w3.org/1999/xlink" xml:space="preserve" width="24" height="24" fill="none">
<defs>
<linearGradient id="a">
<stop offset="0" style="stop-color:#2f3942;stop-opacity:1"/>
<stop offset="1" style="stop-color:#4c5f64;stop-opacity:1"/>
</linearGradient>
<linearGradient xlink:href="#a" id="b" x1="52.978" x2="50.989" y1="96.007" y2="9.226" gradientTransform="translate(-.222 -.222)scale(.24444)" gradientUnits="userSpaceOnUse"/>
</defs>
<path d="M12 1C2 1 1 6 1 12c0 8 3 11 11 11s11-3 11-11c0-6-1-11-11-11" style="font-variation-settings:normal;display:inline;opacity:1;vector-effect:none;fill:url(#b);fill-opacity:1;stroke-width:1.11627;stroke-linecap:butt;stroke-linejoin:miter;stroke-miterlimit:4;stroke-dasharray:none;stroke-dashoffset:0;stroke-opacity:1;-inkscape-stroke:none;stop-color:#000;stop-opacity:1"/>
<g style="fill:none">
<path d="M-66.169 95.386a.43.43 0 0 0-.333.135 76 76 0 0 0-3.688 4.183v.005c-2.844 3.547-5.005 7.193-6.573 11.093-1.458 3.636-2.312 6.776-3.088 11.366a73 73 0 0 0-.46 3.192c-.062.49-.108.922-.134 1.234q-.014.242-.021.396v.151c0 .027 0 .057.021.11.01.047 0 .146.198.27.109.068.125.053.15.057a1 1 0 0 0 .21.038c.104.01.233.02.374.025 1.088.063 2.698.339 3.766.652a13 13 0 0 1 1.896.697c.182.079.369.162.557.24l.041.02c0 .005.016.005.022.01v-.004.005c.016 0 .016.005.025.01l.016.006h-.016l.115.062.464.255c1.718.97 3.005 1.97 5.062 3.937.27.262.52.495.714.667a2.4 2.4 0 0 0 .375.319l.051.03c.027.016.052.036.178.047.145.005.177-.025.202-.041a.13.13 0 0 0 .058-.032q.08-.053.152-.11c.348-.312.697-.629 1.036-.952 1.702-1.614 2.526-2.297 3.708-3.078 2.584-1.719 4.89-2.479 8.422-2.776l.286-.027a.447.447 0 0 0 .412-.443v-.166c0-.354-.083-1.078-.198-1.979a66 66 0 0 0-.39-2.697c-.776-4.626-1.656-7.882-3.136-11.563-1.328-3.313-3.24-6.667-5.516-9.699 0-.005-.015-.01-.015-.02-1.537-1.813-3.016-3.718-4.636-5.485a.47.47 0 0 0-.317-.145z" style="fill:#1793ef;fill-opacity:1;fill-rule:nonzero;stroke:none;stroke-width:1.33333" transform="translate(41.61 -39.417)scale(.44715)"/>
<path d="m-56.367 109.209-24.026 18.177a.35.35 0 0 0 .14.135c.104.068.126.053.147.057l.072.022.141.016c.104.01.234.02.37.03 1.093.058 2.697.334 3.765.647.719.208 1.199.385 1.901.697.183.079.37.162.558.24l.04.02h.006v.005l.021.005c.011.005.016.005.026.011.005 0 .01.005.016.005h-.016l.114.063.464.254c1.72.97 3.006 1.97 5.063 3.938.27.256.52.494.713.666.11.1.214.194.323.282a.2.2 0 0 0 .057.037q.016.014.052.03c.027.011.052.037.172.042.146.01.178-.02.208-.036.032-.016.047-.027.058-.032a.7.7 0 0 0 .146-.11q.102-.086.26-.227c.208-.188.484-.443.782-.724 1.697-1.61 2.521-2.292 3.708-3.079 2.584-1.719 4.885-2.479 8.422-2.776l.286-.027a.44.44 0 0 0 .406-.442v-.167c0-.348-.082-1.077-.197-1.979q-.166-1.353-.385-2.697c-.776-4.625-1.658-7.881-3.136-11.563-.203-.505-.443-1.016-.678-1.521" style="fill:#000;fill-opacity:.065;fill-rule:evenodd;stroke:none;stroke-width:1.33333" transform="translate(41.61 -39.417)scale(.44715)"/>
<path d="m-75.997 109.209 24.026 18.177a.34.34 0 0 1-.135.135c-.11.068-.125.053-.152.057l-.068.022-.14.016c-.104.01-.235.02-.37.03-1.094.058-2.703.334-3.766.647q-.976.274-1.9.697c-.183.079-.37.162-.557.24l-.043.02h-.004v.005l-.021.005h-.006c-.005.005-.016.005-.021.011-.005 0-.01.005-.015.005h.015l-.119.063-.458.254c-1.724.97-3.011 1.97-5.063 3.938-.27.256-.527.494-.713.666a8 8 0 0 1-.328.282.2.2 0 0 1-.052.037.2.2 0 0 1-.052.03c-.027.011-.054.037-.172.042-.152.01-.183-.02-.21-.036-.03-.016-.046-.027-.062-.032a1 1 0 0 1-.146-.11q-.1-.086-.254-.227-.4-.359-.782-.724c-1.698-1.61-2.526-2.292-3.708-3.079-2.584-1.719-4.886-2.479-8.422-2.776l-.287-.027a.44.44 0 0 1-.405-.442v-.167c0-.348.082-1.077.192-1.979.114-.896.26-1.921.39-2.697.776-4.625 1.656-7.881 3.136-11.563.203-.505.443-1.016.672-1.521" style="fill:#000;fill-opacity:.065;fill-rule:evenodd;stroke:none;stroke-width:1.33333" transform="translate(41.61 -39.417)scale(.44715)"/>
</g>
</svg>
