<svg xmlns="http://www.w3.org/2000/svg" xmlns:xlink="http://www.w3.org/1999/xlink" xml:space="preserve" width="24" height="24" viewBox="0 0 6.35 6.35">
<defs>
<linearGradient xlink:href="#a" id="b" x1="57.159" x2="58.182" y1="115.199" y2="-26.193" gradientTransform="translate(-.059 -.059)scale(.06467)" gradientUnits="userSpaceOnUse"/>
<linearGradient id="a">
<stop offset="0" style="stop-color:#d9d9d9;stop-opacity:1"/>
<stop offset="1" style="stop-color:#fff;stop-opacity:1"/>
</linearGradient>
<radialGradient id="c" cx="0" cy="0" r="1" gradientTransform="rotate(90 2.234 .947)scale(8.93513)" gradientUnits="userSpaceOnUse">
<stop offset="0" stop-color="#98A5FF" style="stop-color:#a8b0dd;stop-opacity:1"/>
<stop offset="1" stop-color="#1F296B" style="stop-color:#3c4a9d;stop-opacity:1"/>
</radialGradient>
</defs>
<path d="M3.175.265C.529.265.265 1.588.265 3.175c0 2.117.793 2.91 2.91 2.91s2.91-.793 2.91-2.91c0-1.587-.264-2.91-2.91-2.91" style="font-variation-settings:normal;display:inline;vector-effect:none;fill:url(#b);fill-opacity:1;stroke-width:.295346;stroke-linecap:butt;stroke-linejoin:miter;stroke-miterlimit:4;stroke-dasharray:none;stroke-dashoffset:0;stroke-opacity:1;-inkscape-stroke:none;stop-color:#000"/>
<path d="M4.1 1.604v.131h.305L4.14 2l-.04.04v.093h.53V2h-.303l.265-.265.039-.038v-.093h-.094Zm-.925.131v.133h.303l-.264.265-.039.039v.093h.53v-.132H3.4l.264-.265.04-.04v-.093H3.61Zm-.822.033-.115.066.284.491-.477-.128-.035.128.606.162.406.704H2.21l-.444-.444-.093.094.35.35h-.568v.132h.568l-.35.35.093.094.444-.444h.812l-.406.703-.606.163.035.128.477-.128-.284.492.115.065.284-.491.129.478.127-.034-.162-.606.444-.77.444.77-.162.606.127.034.129-.478.284.491.115-.065-.284-.492.477.128.035-.128-.606-.163-.406-.703h.812l.444.444.093-.094-.35-.35h.568v-.132h-.568l.35-.35-.093-.094-.444.444h-.965l-.444-.77.162-.606-.127-.034-.129.479Zm1.351.629v.132h.304l-.265.265-.039.04v.092h.53v-.132H3.93l.264-.265.04-.039v-.093H4.14Z" style="fill:url(#c);stroke-width:.24253"/>
</svg>
