<svg xmlns="http://www.w3.org/2000/svg" xml:space="preserve" width="24" height="24" viewBox="0 0 6.35 6.35">
<defs>
<clipPath id="b" clipPathUnits="userSpaceOnUse">
<path d="M0 0h19v19H0Z"/>
</clipPath>
<clipPath id="c" clipPathUnits="userSpaceOnUse">
<path d="M0 0h19v19H0Z"/>
</clipPath>
<radialGradient id="a" cx="0" cy="0" r="1" fx="0" fy="0" gradientTransform="rotate(90 9.63 9.895)scale(5.82072)" gradientUnits="userSpaceOnUse" spreadMethod="pad">
<stop offset="0" style="stop-opacity:1;stop-color:#9cc8fc"/>
<stop offset="1" style="stop-opacity:1;stop-color:#549bff"/>
</radialGradient>
</defs>
<path d="M18.888.295a.3.3 0 0 0 .091-.012q.57-.037 1.14.002a3.6 3.6 0 0 1 1 .225q.804.33 1.101 1.148.169.492.2 1.011.042.653-.03 1.304a3.2 3.2 0 0 1-.237.878q-.338.731-1.094 1.008a4.1 4.1 0 0 1-1.262.218 5.6 5.6 0 0 1-1.442-.109q-1.314-.292-1.62-1.602a5 5 0 0 1-.12-1.194 5 5 0 0 1 .137-1.266Q17.074.682 18.307.389q.287-.071.581-.094" style="fill:url(#a);fill-rule:evenodd;stroke:none;stroke-width:.352771" transform="translate(-16.35)"/>
<path d="M9.07.75q-.808 0-1.617.051a1 1 0 0 1-.258.035 10 10 0 0 0-1.648.266q-3.492.831-4.406 4.3a14 14 0 0 0-.336 2.043 12.03 12.03 0 0 0 10.945 7.086 12.1 12.1 0 0 0 4.793-1.019 9 9 0 0 0 .578-2.25q.204-1.845.086-3.696a10.8 10.8 0 0 0-.566-2.867q-.843-2.315-3.121-3.254a10.3 10.3 0 0 0-2.836-.636A24 24 0 0 0 9.07.75" clip-path="url(#b)" opacity=".1" style="fill:#00f;fill-opacity:1;fill-rule:nonzero;stroke:none" transform="scale(.35277)"/>
<path d="M9.07.75q-.808 0-1.617.051a1 1 0 0 1-.258.035 10 10 0 0 0-1.648.266q-3.492.831-4.406 4.3a14 14 0 0 0-.387 3.59q-.034 1.712.336 3.383c.578 2.477 2.113 3.992 4.594 4.543q1.745.357 3.519.328a13.74 13.74 0 0 0 8.004-6.996q.088-1.336 0-2.684a10.8 10.8 0 0 0-.566-2.867q-.843-2.316-3.121-3.254a10.3 10.3 0 0 0-2.836-.636A24 24 0 0 0 9.07.75" clip-path="url(#c)" opacity=".1" style="fill:#00f;fill-opacity:1;fill-rule:nonzero;stroke:none" transform="scale(.35277)"/>
<path d="M19.116 2.965V4.33h-.683l1.092 1.091 1.091-1.091h-.682V2.965Z" style="fill:#fff;fill-opacity:1;fill-rule:nonzero;stroke:none;stroke-width:.352771" transform="translate(-16.35)"/>
<path d="M18.952 1.492a.332.332 0 1 0 0-.663.332.332 0 0 0 0 .663m1.168 0a.33.33 0 0 0 .33-.332.331.331 0 1 0-.662 0c0 .184.149.332.332.332" style="fill:#457eff;fill-opacity:1;fill-rule:nonzero;stroke:none;stroke-width:.352771" transform="translate(-16.35)"/>
<path d="M20.119 1.193v.312a.586.586 0 0 1-1.174 0v-.312" style="fill:none;stroke:#fff;stroke-width:.24253;stroke-linecap:round;stroke-linejoin:round;stroke-miterlimit:4;stroke-dasharray:none;stroke-opacity:1" transform="translate(-16.35)"/>
</svg>
