<svg xmlns="http://www.w3.org/2000/svg" xmlns:xlink="http://www.w3.org/1999/xlink" width="24" height="24" fill="none">
<path d="M12 1C2 1 1 6 1 12c0 8 3 11 11 11s11-3 11-11c0-6-1-11-11-11" style="font-variation-settings:normal;display:inline;vector-effect:none;fill:url(#a);fill-opacity:1;stroke-width:1.11627;stroke-linecap:butt;stroke-linejoin:miter;stroke-miterlimit:4;stroke-dasharray:none;stroke-dashoffset:0;stroke-opacity:1;-inkscape-stroke:none;stop-color:#000"/>
<path d="m8.869 5.5-.003.005a7.02 7.02 0 0 0-3.366 5.98 7.015 7.015 0 0 0 7.015 7.015 7.02 7.02 0 0 0 5.985-3.369l-.429-.428a6.43 6.43 0 0 1-3.217.874 6.43 6.43 0 0 1-6.431-6.43 6.43 6.43 0 0 1 .87-3.216l.004-.002zm7.154.139v.584h1.34l-1.17 1.17-.17.17v.414h2.338v-.584h-1.34l1.17-1.17.17-.17v-.414h-.414zm-7.717.994a7 7 0 0 0-.468 2.513 7.015 7.015 0 0 0 7.016 7.016 7 7 0 0 0 2.528-.48 6.43 6.43 0 0 1-4.867 2.233 6.43 6.43 0 0 1-6.43-6.43 6.43 6.43 0 0 1 2.221-4.852m3.04.175v.585h1.34l-1.17 1.169-.17.17v.414h2.338v-.584h-1.34l1.17-1.17.17-.17v-.414h-.414zm3.508 2.923v.585h1.34l-1.17 1.169-.17.17v.414h2.338v-.584h-1.34l1.17-1.17.17-.17v-.414h-.414z" style="fill:url(#b);stroke-width:.999996"/>
<defs>
<linearGradient xlink:href="#c" id="a" x1="57.159" x2="58.182" y1="115.199" y2="-26.193" gradientTransform="translate(-.222 -.222)scale(.24444)" gradientUnits="userSpaceOnUse"/>
<linearGradient id="c">
<stop offset="0" style="stop-color:#d9d9d9;stop-opacity:1"/>
<stop offset="1" style="stop-color:#fff;stop-opacity:1"/>
</linearGradient>
<radialGradient id="b" cx="0" cy="0" r="1" gradientTransform="rotate(90 7.374 5.14)scale(27.43675)" gradientUnits="userSpaceOnUse">
<stop stop-color="#D6BFFF"/>
<stop offset="1" stop-color="#4F3E6D"/>
</radialGradient>
</defs>
</svg>
