<svg xmlns="http://www.w3.org/2000/svg" xml:space="preserve" width="24" height="24">
<defs>
<radialGradient id="a" cx="0" cy="0" r="1" gradientTransform="matrix(0 22 -22 0 12 1)" gradientUnits="userSpaceOnUse">
<stop stop-color="#78BDFF"/>
<stop offset="1" stop-color="#1A5084"/>
</radialGradient>
</defs>
<path fill="url(#a)" fill-rule="evenodd" d="M9.596 1.114q.18.001.344-.046a32 32 0 0 1 4.307.011q1.951.153 3.78.848 3.039 1.25 4.158 4.339.64 1.86.756 3.824a28 28 0 0 1-.115 4.923 11.9 11.9 0 0 1-.893 3.32q-1.276 2.764-4.135 3.813a15.6 15.6 0 0 1-4.765.825 21.4 21.4 0 0 1-5.453-.413q-4.967-1.106-6.128-6.056a19 19 0 0 1-.447-4.511 18.5 18.5 0 0 1 .515-4.786q1.217-4.629 5.877-5.736a14 14 0 0 1 2.199-.355" clip-rule="evenodd" style="fill:url(#a);stroke-width:.916667"/>
<rect width="16" height="16" x="4" y="4" fill="#3384ba" rx="8" style="stroke-width:.4"/>
<path fill="#ebf3fc" d="M12 4.31A7.685 7.685 0 0 0 4.31 12c0 4.25 3.439 7.69 7.69 7.69s7.69-3.44 7.69-7.69S16.25 4.31 12 4.31m-1.775 5.324v1.183h3.55V9.634l2.112 1.183L17.915 12l-2.028 1.183-2.112 1.183v-1.183h-3.55v1.183l-2.112-1.183L6.085 12l2.028-1.183Z" style="stroke-width:.591516"/>
</svg>
