<svg xmlns="http://www.w3.org/2000/svg" width="24" height="24" fill="none">
<path fill="url(#a)" fill-rule="evenodd" d="M9.596 1.114q.18.001.344-.046a32 32 0 0 1 4.307.011q1.951.153 3.78.848 3.038 1.25 4.158 4.339.64 1.86.756 3.824a28 28 0 0 1-.114 4.923 11.9 11.9 0 0 1-.894 3.32q-1.276 2.764-4.135 3.813a15.6 15.6 0 0 1-4.765.825 21.4 21.4 0 0 1-5.453-.413q-4.967-1.106-6.128-6.056a19 19 0 0 1-.447-4.511 18.5 18.5 0 0 1 .515-4.786q1.217-4.629 5.877-5.736a14 14 0 0 1 2.199-.355" clip-rule="evenodd"/>
<path fill="#fafafa" d="M10.07 10.044H6.487a.25.25 0 0 0-.256.246c0 .136.115.246.256.246h3.583a.25.25 0 0 0 .256-.246.25.25 0 0 0-.256-.246M4.955 5.585a.27.27 0 0 0-.146.024.25.25 0 0 0-.14.188.24.24 0 0 0 .05.182.3.3 0 0 0 .076.063l2.75 1.524-2.75 1.524a.25.25 0 0 0-.12.15.24.24 0 0 0 .026.186.26.26 0 0 0 .35.09l3.103-1.72a.25.25 0 0 0 .09-.089.23.23 0 0 0 .033-.12l.002-.02-.002-.022a.23.23 0 0 0-.032-.12.25.25 0 0 0-.09-.088L5.051 5.616a.3.3 0 0 0-.097-.03z" style="stroke-width:.385895"/>
<defs>
<radialGradient id="a" cx="0" cy="0" r="1" gradientTransform="matrix(0 22 -22 0 12 1)" gradientUnits="userSpaceOnUse">
<stop stop-color="#555"/>
<stop offset="1" stop-color="#222"/>
</radialGradient>
</defs>
<path fill="#fafafa" d="M20.07 10.044h-3.583a.25.25 0 0 0-.256.246c0 .136.115.246.256.246h3.583a.25.25 0 0 0 .256-.246.25.25 0 0 0-.256-.246m-5.115-4.459a.27.27 0 0 0-.146.024.25.25 0 0 0-.14.188.23.23 0 0 0 .05.182.3.3 0 0 0 .076.063l2.75 1.524-2.75 1.524a.25.25 0 0 0-.12.15.24.24 0 0 0 .026.186.26.26 0 0 0 .35.09l3.103-1.72a.25.25 0 0 0 .09-.089.23.23 0 0 0 .033-.12l.002-.02-.002-.022a.23.23 0 0 0-.032-.12.25.25 0 0 0-.09-.088l-3.103-1.721a.3.3 0 0 0-.097-.03z" style="stroke-width:.385895"/>
</svg>
