<svg xmlns="http://www.w3.org/2000/svg" width="24" height="24" version="1">
<path d="M12 1C2 1 1 6 1 12c0 8 3 11 11 11s11-3 11-11c0-6-1-11-11-11" style="font-variation-settings:normal;display:inline;vector-effect:none;fill:#e6e6e6;fill-opacity:1;stroke-width:1.11627;stroke-linecap:butt;stroke-linejoin:miter;stroke-miterlimit:4;stroke-dasharray:none;stroke-dashoffset:0;stroke-opacity:1;-inkscape-stroke:none;stop-color:#000"/>
<path d="M12 1.975C2.886 1.975 1.975 6.532 1.975 12c0 7.29 2.734 10.025 10.025 10.025 7.29 0 10.025-2.734 10.025-10.025 0-5.468-.911-10.025-10.025-10.025" style="font-variation-settings:normal;display:inline;vector-effect:none;fill:#f2f2f2;fill-opacity:1;stroke-width:1.01733;stroke-linecap:butt;stroke-linejoin:miter;stroke-miterlimit:4;stroke-dasharray:none;stroke-dashoffset:0;stroke-opacity:1;-inkscape-stroke:none;stop-color:#000"/>
<path fill="#a57959" d="M11.789 11.205a1.7 1.7 0 0 1-.842.224c-.03 0-.06-.007-.09-.008v3.185l-.727-.81a.76.76 0 0 1-.607.299 1 1 0 0 1-.019.164l1.353 1.479v2.416c-.94.301-1.143 1.014-1.143 1.846h4.572c0-.832-.204-1.545-1.143-1.846v-.788l1.38-1.334a.762.816 0 0 1-.047-.277.762.816 0 0 1 .103-.41.762.816 0 0 1-.004-.006.762.816 0 0 1-.099.008.762.816 0 0 1-.321-.077l-1.012.964v-4.89a1.7 1.7 0 0 1-.512.085 1.7 1.7 0 0 1-.842-.224"/>
<path fill="#1c8d43" d="M11.789 4a1.7 1.7 0 0 0-1.191.485 1.7 1.7 0 0 0-.493-.072c-.93 0-1.684.739-1.684 1.65a1.63 1.63 0 0 0 .397 1.063A1.64 1.64 0 0 0 8 8.54c0 .77.543 1.436 1.308 1.607.175.75.855 1.28 1.64 1.282a1.7 1.7 0 0 0 .84-.224c.257.146.547.223.843.224a1.69 1.69 0 0 0 1.466-.84 1.664 1.664 0 0 0 1.482-1.637 2 2 0 0 0-.008-.14A1.63 1.63 0 0 0 16 7.714a1.66 1.66 0 0 0-1.308-1.607 1.67 1.67 0 0 0-1.44-1.268A1.69 1.69 0 0 0 11.79 4Zm-3.027 8.571a.76.76 0 0 0-.762.763.76.76 0 0 0 .102.38.76.76 0 0 0-.102.38.76.76 0 0 0 .762.763.76.76 0 0 0 .761-.763.76.76 0 0 0 .763-.76.76.76 0 0 0-.763-.763.76.76 0 0 0-.38.103.76.76 0 0 0-.38-.103zm5.714 1.143a.762.816 0 0 0-.762.816.762.816 0 0 0 .762.817.762.816 0 0 0 .099-.008.762.816 0 0 0 .004.007.762.816 0 0 0-.103.41.762.816 0 0 0 .762.815.762.816 0 0 0 .762-.816.762.816 0 0 0-.103-.408.762.816 0 0 0 .103-.408.762.816 0 0 0-.763-.816.762.816 0 0 0-.098.008.762.816 0 0 0-.663-.417"/>
</svg>
