<?xml version="1.0" encoding="UTF-8"?>
<svg width="24" height="24" fill="none" version="1.1" xmlns="http://www.w3.org/2000/svg">
 <path d="m11.787 1.0054a32 32 0 0 0-1.8457 0.058594c-0.10933 0.030667-0.22375 0.044922-0.34375 0.044922a14 14 0 0 0-2.1992 0.35547c-3.104 0.73933-5.061 2.6498-5.873 5.7324a18.5 18.5 0 0 0-0.51562 4.7891 19 19 0 0 0 0.44727 4.5098c0.77 3.302 2.817 5.3216 6.125 6.0566a21.3 21.3 0 0 0 5.4512 0.41211 15.6 15.6 0 0 0 4.7676-0.82422c1.906-0.69733 3.2848-1.9685 4.1348-3.8125a12 12 0 0 0 0.89453-3.3164 28.3 28.3 0 0 0 0.16602-2.4609v-1.2715a28.3 28.3 0 0 0 0-0.07617 28.3 28.3 0 0 0-0.05078-1.1191c-0.080001-1.308-0.33058-2.5823-0.75391-3.8223-0.75-2.0587-2.1381-3.5052-4.1621-4.3398a13.7 13.7 0 0 0-3.7812-0.84766 32 32 0 0 0-1.8828-0.068359z" fill="url(#a)" stroke="#808080" stroke-opacity=".2" vector-effect="non-scaling-stroke" style="-inkscape-stroke:hairline"/>
 <path d="m4.5435 15.75c0.6168 1.4255 1.8117 2.5799 3.2712 3.1193 1.2428 0.48303 2.5935 0.63598 3.9185 0.54342 1.8769-0.05373 3.8738-0.22773 5.4584-1.3392 0.88327-0.60341 1.6036-1.4158 2.2141-2.2874" fill="none" stroke="#000" stroke-linecap="round" stroke-opacity=".50387" stroke-width=".6" opacity="0.4" style="paint-order:stroke fill markers"/>
 <defs>
  <linearGradient id="a" x1=".1" x2="1.2" y2="1" gradientTransform="matrix(22 0 0 22 -.0043383 .0054264)" gradientUnits="userSpaceOnUse">
   <stop stop-color="#0d9de0" offset=".2"/>
   <stop stop-color="#01beff" offset=".205"/>
   <stop stop-color="#436eff" offset="1"/>
  </linearGradient>
 </defs>
 <g transform="translate(-.6316 -.33158)">
  <path d="m16.793 7.813c0.07903 0.077896 0.20597 0.077896 0.285 0l0.622-0.613c0.38-0.386 0.396-0.802 0.058-1.15l-0.255-0.255c-0.342-0.342-0.753-0.309-1.14 0.069l-0.617 0.611c-0.0779 0.079032-0.0779 0.20597 0 0.285zm-8.939 9.131c0.133-0.049 0.25-0.128 0.352-0.225l7.927-7.971c0.0779-0.079032 0.0779-0.20597 0-0.285l-1.038-1.047c-0.07673-0.082424-0.20728-0.082424-0.284 0l-7.946 7.99c-0.089313 0.09037-0.16058 0.19694-0.21 0.314l-0.642 1.504c-0.068 0.185 0.123 0.396 0.3 0.317z" fill="#f6f6f6"/>
 </g>
</svg>
