<svg xmlns="http://www.w3.org/2000/svg" width="24" height="24">
<defs>
<radialGradient id="a" cx="0" cy="0" r="1" fx="0" fy="0" gradientTransform="matrix(0 22 -22 0 12 1)" gradientUnits="userSpaceOnUse" spreadMethod="pad">
<stop offset="0" style="stop-opacity:1;stop-color:#ff9b68"/>
<stop offset="1" style="stop-color:#ff7f2a;stop-opacity:1"/>
</radialGradient>
</defs>
<path d="M9.593 1.115q.18 0 .344-.047a32 32 0 0 1 4.308.01 13.7 13.7 0 0 1 3.781.849c2.026.833 3.41 2.281 4.162 4.338.42 1.24.676 2.516.754 3.823a28.3 28.3 0 0 1-.114 4.928 12 12 0 0 1-.896 3.317q-1.276 2.766-4.135 3.812a15.6 15.6 0 0 1-4.767.824 21.3 21.3 0 0 1-5.452-.412c-3.308-.734-5.354-2.754-6.125-6.057a19 19 0 0 1-.448-4.51q-.055-2.429.516-4.787 1.218-4.625 5.875-5.734a14 14 0 0 1 2.197-.354" style="fill:url(#a);fill-rule:evenodd;stroke:none;stroke-width:1.33333"/>
<path d="M12.092 1q-.516-.001-1.033.016c-.135.754-.603 1.942-1.125 2.851-.868 1.509-1.348 2.188-.674 2.469s1.815-1.942 2.271-3.174c.266-.72.594-1.641.75-2.158-.063 0-.126-.004-.19-.004zm-5.057.566a10 10 0 0 0-.646.202c.16 1.556.478 2.416.959 2.566.142-.48.03-1.415-.313-2.768M17.561 3.65q-.27.009-.57.043c-1.617.187-5.475 1.341-4.86 2.243.614.9 2.467-.453 4.467-.745s4.196.62 4.715.385c.517-.235-.024-.945-.956-1.3-.816-.312-1.544-.667-2.796-.626m-14.217.075q-.45.49-.81 1.072c.537 1.244.702 2.247.478 2.992-.501 1.663-1.656 4.183.482 5.709 2.137 1.527 2.924 1.527 3.764 2.443s2.2 1.222 2.994.916 2.838 0 2.838 0h.004c.06 0 .572-.017-.004-.304-.611-.305-2.659-.766-3.315-.766-.655 0-2.043-1.983-3.875-2.289-.836-.14-1.373-.422-1.709-.92q2.112-.263 3.26.408c1.229.718 3.12 1.358 4.707 1.037 1.589-.321 2.166-1.772 3.71-3.15 1.542-1.378 3.687-2.431 3.343-3.266-.345-.833-1.351 0-2.05 0h-.079c-.906.001-5.237.022-6.664.68-1.473.68-2.34 2.076-2.967 1.445-.627-.63-.628-1.357-.486-1.74s-.342-.286-.342 0c0 .265-.345 1.469 0 2.21.02.043-.843.298-1.828.671q-.675.255-1.102-.3-.019-.405-.02-.811c0-2.443.684-2.943.243-4.46a14 14 0 0 0-.572-1.577M22.81 15.123c-1.99 2.439-5.814 5.283-9.776 5.83-4.18.577-8.26-3.129-9.275-2.467s4.041 4.753 9.275 4.182c3.625-.395 6.583-1.865 8.395-3.41q.275-.435.502-.924c.444-1.03.733-2.1.879-3.211" style="fill:#592c0f;fill-rule:evenodd;stroke:none;stroke-width:1.33333;fill-opacity:1"/>
<path fill="#fff" d="M16.388 6.149a6 6 0 0 0-.756.057c-1.52.222-2.951 1.054-3.822 1.047-1.123.565-2.25 1.116-4.532.53-2.15-.553-3.633.312-4.408 1.103a10.6 10.6 0 0 0-.161 1.89q0 .436.018.812.428.555 1.103.3c.986-.373 1.848-.628 1.828-.672-.345-.74 0-1.945 0-2.21 0-.286.484-.383.342 0s-.14 1.111.487 1.741 1.493-.765 2.966-1.445c1.427-.658 5.76-.679 6.666-.68h.077c.7 0 1.707-.833 2.051 0 .345.834-1.8 1.889-3.344 3.266s-2.121 2.83-3.71 3.15c-1.589.322-3.478-.32-4.707-1.038q-1.148-.67-3.26-.407c.336.498.873.78 1.709.92 1.832.306 3.218 2.288 3.875 2.288.656 0 2.703.46 3.314.766.38.19.282.257.158.284.376.01.913-.073 1.773-.331 2.802-.845 3.782-4.85 4.548-5.882.491-.661 1.39-1.2 2.688-1.62v-1.86a6 6 0 0 0-.17-1.39 7 7 0 0 0-.65-.263.4.4 0 0 1-.123.086c-.453.205-2.193-.467-3.96-.442" style="stroke-width:.440405"/>
<path fill="#91ed98" d="M9.274 11.706c-.208.39.007 2.076.652 2.295.646.22 2.043.47 2.679.228.635-.243 2.197-1.744 2.197-2.134s-.547-2.423-1.896-2.423c-1.35 0-3.423 1.645-3.632 2.034" style="stroke-width:.440405"/>
<circle cx="12" cy="12" r=".763" opacity=".65" style="stroke-width:.440405"/>
</svg>
