<svg xmlns="http://www.w3.org/2000/svg" xmlns:xlink="http://www.w3.org/1999/xlink" width="24" height="24" style="display:inline" version="1.0">
<defs>
<linearGradient xlink:href="#a" id="b" x1="221.276" x2="214.693" y1="-303.447" y2="438.221" gradientUnits="userSpaceOnUse"/>
<linearGradient id="a">
<stop offset="0" style="stop-color:#f2f2f2;stop-opacity:1"/>
<stop offset="1" style="stop-color:#fff;stop-opacity:1"/>
</linearGradient>
<linearGradient xlink:href="#a" id="e" x1="221.276" x2="214.693" y1="-303.447" y2="438.221" gradientUnits="userSpaceOnUse"/>
<linearGradient xlink:href="#a" id="d" x1="221.276" x2="214.693" y1="-303.447" y2="438.221" gradientUnits="userSpaceOnUse"/>
<linearGradient xlink:href="#a" id="c" x1="221.276" x2="214.693" y1="-303.447" y2="438.221" gradientUnits="userSpaceOnUse"/>
</defs>
<g style="display:inline">
<g style="fill:url(#b);fill-opacity:1;stroke-width:21.9899">
<g style="fill:url(#c);fill-opacity:1;stroke-width:21.9899" transform="translate(1 1)scale(.04929)">
<g style="fill:url(#d);fill-opacity:1;stroke-width:21.9899">
<path d="M174.406 2.305q3.65.039 6.973-.93a642 642 0 0 1 87.387.234q39.615 3.084 76.699 17.188 61.646 25.383 84.363 88.043 12.99 37.728 15.34 77.59a567 567 0 0 1-2.324 99.89c-2.782 23.352-8.824 45.805-18.129 67.368q-25.886 56.073-83.899 77.355-47.013 15.885-96.687 16.723-55.869 2.907-110.625-8.36Q32.717 414.955 9.164 314.52a386.3 386.3 0 0 1-9.066-91.528q-1.116-49.248 10.461-97.101C27.02 63.285 66.762 24.488 129.785 9.508a283 283 0 0 1 44.621-7.203" style="fill:url(#e);fill-opacity:1;fill-rule:evenodd;stroke:none;stroke-width:21.9899"/>
</g>
</g>
</g>
</g>
<g style="stroke-width:7.46667">
<path d="M20 26v60h88V26Zm4 4h80v52H24Z" style="display:inline;opacity:1;fill:#000;fill-opacity:1;fill-rule:nonzero;stroke:none;stroke-width:27.4023;stroke-linejoin:bevel;stroke-miterlimit:4;stroke-dasharray:none;stroke-opacity:.6;paint-order:fill markers stroke" transform="translate(3.429 3.429)scale(.13393)"/>
<path d="M8 97.5h112v4.5H8z" style="display:inline;opacity:1;fill:#000;fill-opacity:1;fill-rule:nonzero;stroke:none;stroke-width:8.46608;stroke-linejoin:bevel;stroke-miterlimit:4;stroke-dasharray:none;stroke-opacity:.6;paint-order:fill markers stroke" transform="translate(3.429 3.429)scale(.13393)"/>
<path d="M20 87.5h88l12 8.5H8Z" style="display:inline;opacity:1;fill:#000;fill-opacity:1;fill-rule:nonzero;stroke:none;stroke-width:11.6355;stroke-linejoin:bevel;stroke-miterlimit:4;stroke-dasharray:none;stroke-opacity:.6;paint-order:fill markers stroke" transform="translate(3.429 3.429)scale(.13393)"/>
<g style="display:inline;stroke-width:7.46667" transform="rotate(90 0 3.429)scale(.13393)">
<rect width="9.19" height="2.959" x="51.405" y="-87.054" ry="0" style="display:inline;fill:#000;fill-opacity:1;stroke:#000;stroke-width:0;stroke-linecap:butt;stroke-linejoin:round;stroke-miterlimit:4;stroke-dasharray:none;stroke-opacity:1"/>
<path d="M43.661-84.725h24.677v44.3H43.661z" style="display:inline;fill:#000;fill-opacity:1;stroke:none;stroke-width:0;stroke-linecap:butt;stroke-linejoin:round;stroke-miterlimit:4;stroke-dasharray:none;stroke-opacity:1"/>
</g>
<path d="M47-56.825h18v5H47z" style="display:inline;fill:#f17f00;fill-opacity:1;stroke:none;stroke-width:29.3356;stroke-linecap:round;stroke-linejoin:miter;stroke-miterlimit:4;stroke-dasharray:none;stroke-dashoffset:0;stroke-opacity:1;paint-order:fill markers stroke" transform="rotate(90 0 3.429)scale(.13393)"/>
<path d="M47-65.075h18v5H47z" style="display:inline;fill:#e7f100;fill-opacity:1;stroke:none;stroke-width:29.3356;stroke-linecap:round;stroke-linejoin:miter;stroke-miterlimit:4;stroke-dasharray:none;stroke-dashoffset:0;stroke-opacity:1;paint-order:fill markers stroke" transform="rotate(90 0 3.429)scale(.13393)"/>
<path d="M47-73.325h18v5H47z" style="display:inline;fill:#a8f100;fill-opacity:1;stroke:none;stroke-width:29.3356;stroke-linecap:round;stroke-linejoin:miter;stroke-miterlimit:4;stroke-dasharray:none;stroke-dashoffset:0;stroke-opacity:1;paint-order:fill markers stroke" transform="rotate(90 0 3.429)scale(.13393)"/>
<g style="display:inline;stroke-width:7.46667">
<g style="display:inline;fill:#000;fill-opacity:1;stroke:none;stroke-width:0;stroke-miterlimit:4;stroke-dasharray:none;stroke-opacity:1">
<path d="m-97.293 215.013-86.134 102.02h50.453l-9.771 62.579 81.682-95.856h-50.453z" style="fill:#000;fill-opacity:1;stroke:none;stroke-width:0;stroke-linecap:butt;stroke-linejoin:round;stroke-miterlimit:4;stroke-dasharray:none;stroke-opacity:1" transform="translate(16.062 .651)scale(.03457)"/>
</g>
<g style="display:inline;fill:#f5c211;fill-opacity:1;stroke:none;stroke-width:0;stroke-miterlimit:4;stroke-dasharray:none;stroke-opacity:1">
<path d="m-110.625 234.234-64.734 76.224 53.442.3-10.68 54.085 60.178-74.214-52.246.299z" style="fill:#f5c211;fill-opacity:1;stroke:none;stroke-width:0;stroke-linecap:butt;stroke-linejoin:round;stroke-miterlimit:4;stroke-dasharray:none;stroke-opacity:1" transform="translate(15.26 2.62)scale(.02801)"/>
</g>
</g>
<path d="M47-48.575h18v5H47z" style="display:inline;fill:#f10600;fill-opacity:1;stroke:none;stroke-width:29.3356;stroke-linecap:round;stroke-linejoin:miter;stroke-miterlimit:4;stroke-dasharray:none;stroke-dashoffset:0;stroke-opacity:1;paint-order:fill markers stroke" transform="rotate(90 0 3.429)scale(.13393)"/>
<path d="M47-81.575h18v5H47z" style="display:inline;fill:#46f100;fill-opacity:1;stroke:none;stroke-width:29.3356;stroke-linecap:round;stroke-linejoin:miter;stroke-miterlimit:4;stroke-dasharray:none;stroke-dashoffset:0;stroke-opacity:1;paint-order:fill markers stroke" transform="rotate(90 0 3.429)scale(.13393)"/>
</g>
</svg>
