<svg xmlns="http://www.w3.org/2000/svg" xmlns:xlink="http://www.w3.org/1999/xlink" width="24" height="24" style="isolation:isolate">
<defs>
<radialGradient id="a" cx="0" cy="0" r="1" fx="0" fy="0" gradientTransform="matrix(0 8.25 -8.25 0 9 .75)" gradientUnits="userSpaceOnUse" spreadMethod="pad">
<stop offset="0" style="stop-color:#ff847e;stop-opacity:1"/>
<stop offset="1" style="stop-color:#f35852;stop-opacity:1"/>
</radialGradient>
<radialGradient xlink:href="#a" id="b" cx="0" cy="0" r="1" fx="0" fy="0" gradientTransform="matrix(0 11 -11 0 12 1)" gradientUnits="userSpaceOnUse" spreadMethod="pad"/>
</defs>
<path d="M9.593 1.115q.18 0 .344-.047a32 32 0 0 1 4.308.01 13.7 13.7 0 0 1 3.781.849c2.026.833 3.41 2.281 4.162 4.338.42 1.24.676 2.516.754 3.823a28.3 28.3 0 0 1-.114 4.928 12 12 0 0 1-.896 3.317q-1.276 2.766-4.135 3.812a15.6 15.6 0 0 1-4.767.824 21.3 21.3 0 0 1-5.452-.412c-3.308-.734-5.354-2.754-6.125-6.057a19 19 0 0 1-.448-4.51 18.5 18.5 0 0 1 .516-4.787q1.218-4.625 5.875-5.734a14 14 0 0 1 2.197-.354" style="fill:url(#b);fill-rule:evenodd;stroke:none;stroke-width:1.33333"/>
<path d="M12.824 5.5a.6.6 0 0 0-.29.068l-7.17 4.106a.79.79 0 0 1-.71-.002L1.388 7.79a19 19 0 0 0-.26 1.598L4.592 11.4a.92.92 0 0 0 .838.002l8.36-4.822c.293-.17.292-.446 0-.617l-.675-.393a.6.6 0 0 0-.29-.07z" style="fill:#fff;fill-rule:evenodd;stroke:none;stroke-width:1.33333"/>
<path d="M12.824 9.004a.6.6 0 0 0-.29.068l-7.169 4.106a.79.79 0 0 1-.71-.002l-3.645-2.1c-.008.304-.013.61-.006.914q-.008.417.004.832l3.584 2.082a.92.92 0 0 0 .838.002l8.359-4.822c.294-.17.293-.446 0-.617l-.674-.393a.6.6 0 0 0-.29-.07z" style="fill:#fff;fill-rule:evenodd;stroke:none;stroke-width:1.33333"/>
<path d="M12.824 12.498a.6.6 0 0 0-.29.068l-7.169 4.106a.79.79 0 0 1-.71-.002l-3.516-2.026q.111.933.314 1.856l.024.088 3.115 1.81a.92.92 0 0 0 .838.002l8.36-4.822c.293-.17.292-.446 0-.617l-.675-.393a.6.6 0 0 0-.29-.07z" style="fill:#fff;fill-rule:evenodd;stroke:none;stroke-width:1.33333"/>
</svg>
