<svg xmlns="http://www.w3.org/2000/svg" width="24" height="24" viewBox="0 0 6.35 6.35">
<defs>
<radialGradient id="a" cx="0" cy="0" r="1" gradientTransform="rotate(90 1.455 1.72)scale(5.82072)" gradientUnits="userSpaceOnUse">
<stop stop-color="#FAFAFA"/>
<stop offset="1" stop-color="#B0B0B0"/>
</radialGradient>
</defs>
<path fill="url(#a)" fill-rule="evenodd" d="M2.63.283a.3.3 0 0 1-.091.012q-.295.023-.582.094Q.724.681.402 1.906q-.15.624-.136 1.266-.012.605.118 1.194.307 1.31 1.621 1.603.715.146 1.443.108.648-.01 1.26-.218a1.87 1.87 0 0 0 1.095-1.008q.182-.421.236-.879a7.3 7.3 0 0 0 .03-1.302 3.8 3.8 0 0 0-.2-1.012A1.89 1.89 0 0 0 4.77.51a3.6 3.6 0 0 0-1-.224A8 8 0 0 0 2.63.283" clip-rule="evenodd" style="fill:url(#a);stroke-width:.264578"/>
<path fill="#fbc837" d="M-10.319 3.969a.79.79 0 0 0-.793.793v10.054c0 .44.354.794.793.794h6.615l2.646-2.646V4.762a.79.79 0 0 0-.794-.793z" style="stroke-width:.26458;paint-order:stroke fill markers" transform="translate(4.958 1.137)scale(.24074)"/>
<path fill="#fff" d="m-3.704 15.61 2.646-2.646H-2.91a.79.79 0 0 0-.794.794z" opacity=".5" style="paint-order:stroke fill markers" transform="translate(4.958 1.137)scale(.24074)"/>
<path fill="#fff38f" d="M-12.965 1.323h8.467c.44 0 .794.354.794.794v8.202l-2.646 2.645h-6.615a.79.79 0 0 1-.793-.793V2.117c0-.44.354-.794.793-.794" style="paint-order:stroke fill markers" transform="translate(4.958 1.137)scale(.24074)"/>
<path fill="#fff" d="m-6.35 12.964 2.646-2.646h-1.852a.79.79 0 0 0-.794.794z" opacity=".5" style="paint-order:stroke fill markers" transform="translate(4.958 1.137)scale(.24074)"/>
</svg>
