<svg xmlns="http://www.w3.org/2000/svg" xml:space="preserve" width="24" height="24">
<defs>
<radialGradient id="a" cx="0" cy="0" r="1" fx="0" fy="0" gradientTransform="matrix(0 16.5 -16.5 0 9 .75)" gradientUnits="userSpaceOnUse" spreadMethod="pad">
<stop offset="0" style="stop-opacity:1;stop-color:#f7f7f7"/>
<stop offset="1" style="stop-opacity:1;stop-color:#aaa"/>
</radialGradient>
</defs>
<path d="M7.195.836q.135 0 .258-.035a24 24 0 0 1 3.231.008 10.3 10.3 0 0 1 2.836.636q2.278.938 3.121 3.254.476 1.396.566 2.867a21 21 0 0 1-.086 3.696 9 9 0 0 1-.672 2.488q-.957 2.074-3.101 2.859a11.7 11.7 0 0 1-3.575.618 16 16 0 0 1-4.089-.309c-2.481-.551-4.016-2.066-4.594-4.543a14.2 14.2 0 0 1-.336-3.383q-.041-1.821.387-3.59.914-3.468 4.406-4.3A10 10 0 0 1 7.195.836" style="fill:url(#a);fill-rule:evenodd;stroke:none" transform="scale(1.33333)"/>
<path d="m8.453 3.75-3.836 8.754h1.188l1.043-2.387h4.312l1.012 2.387h1.199L9.648 3.75Zm.598 1.059c.097.296.621 1.656 1.57 4.07l.199.441H7.191Z" style="fill:#000;fill-opacity:1;fill-rule:nonzero;stroke:none" transform="scale(1.33333)"/>
<path d="M3.746 13.375h10.508v.875H3.746Z" style="fill:#2ecc71;fill-opacity:1;fill-rule:nonzero;stroke:none" transform="scale(1.33333)"/>
<path d="M13.812 8.547a6.35 6.35 0 0 0-5.906 8.672q.928.06 1.867.008a11.7 11.7 0 0 0 3.575-.618q2.145-.784 3.101-2.859a9 9 0 0 0 .672-2.488 21 21 0 0 0 .117-1.711 6.36 6.36 0 0 0-3.426-1.004" style="fill:#2cc36c;fill-opacity:1;fill-rule:nonzero;stroke:none" transform="scale(1.33333)"/>
<path d="m16.172 12.043-3.613 3.613-1.551-1.551-1.035 1.036 1.875 1.875a12 12 0 0 0 1.504-.399q.28-.104.539-.226l2.496-2.496c.019-.047.043-.09.066-.137a9 9 0 0 0 .375-1.059z" style="fill:#fcfcfc;fill-opacity:1;fill-rule:evenodd;stroke:none" transform="scale(1.33333)"/>
</svg>
