<svg xmlns="http://www.w3.org/2000/svg" xml:space="preserve" width="24" height="24" viewBox="0 0 6.35 6.35">
<defs>
<radialGradient id="a" cx="0" cy="0" r="1" fx="0" fy="0" gradientTransform="matrix(0 16.5 -16.5 0 9 .75)" gradientUnits="userSpaceOnUse" spreadMethod="pad">
<stop offset="0" style="stop-opacity:1;stop-color:#fff"/>
<stop offset="1" style="stop-opacity:1;stop-color:#bebebe"/>
</radialGradient>
<radialGradient id="b" cx="0" cy="0" r="1" fx="0" fy="0" gradientTransform="matrix(0 8.25 -8.25 0 9 .75)" gradientUnits="userSpaceOnUse" spreadMethod="pad">
<stop offset="0" style="stop-opacity:1;stop-color:#ff5151"/>
<stop offset="1" style="stop-opacity:1;stop-color:#cb4141"/>
</radialGradient>
<clipPath id="c" clipPathUnits="userSpaceOnUse">
<path d="M0 0h49v49H0Z"/>
</clipPath>
</defs>
<path d="M7.195.836q.135 0 .258-.035a24 24 0 0 1 3.231.008 10.3 10.3 0 0 1 2.836.636q2.278.938 3.121 3.254.476 1.396.566 2.867a21 21 0 0 1-.086 3.696 9 9 0 0 1-.672 2.488q-.957 2.074-3.101 2.859a11.7 11.7 0 0 1-3.575.618 16 16 0 0 1-4.089-.309c-2.481-.551-4.016-2.066-4.594-4.543a14.2 14.2 0 0 1-.336-3.383q-.041-1.818.387-3.59.914-3.468 4.406-4.3A10 10 0 0 1 7.195.836" style="fill:url(#a);fill-rule:evenodd;stroke:none" transform="scale(.35277)"/>
<path d="M7.195.836q.135 0 .258-.035a24 24 0 0 1 3.231.008 10.3 10.3 0 0 1 2.836.636q2.278.938 3.121 3.254.476 1.396.566 2.867a21 21 0 0 1-.086 3.696 9 9 0 0 1-.672 2.488q-.957 2.074-3.101 2.859a11.7 11.7 0 0 1-3.575.618 16 16 0 0 1-4.089-.309c-2.481-.551-4.016-2.066-4.594-4.543a14.2 14.2 0 0 1-.336-3.383q-.041-1.818.387-3.59.914-3.468 4.406-4.3A10 10 0 0 1 7.195.836" style="fill:url(#b);fill-rule:evenodd;stroke:none" transform="scale(.35277)"/>
<circle cx="3.175" cy="3.175" r="1.984" fill="#e6e6e6" opacity=".35" style="stroke-width:.277763;paint-order:stroke markers fill"/>
<g clip-path="url(#c)" opacity=".15" transform="translate(.7 .7)scale(.27507)">
<path d="M14.984 9A5.984 5.984 0 1 1 3.016 9a5.984 5.984 0 0 1 11.968 0" style="fill:#000;fill-opacity:1;fill-rule:nonzero;stroke:none"/>
</g>
<path d="M2.877 2.034a.1.1 0 0 0-.1.1v.991h-.793l1.191 1.19 1.19-1.19h-.793v-.992a.1.1 0 0 0-.1-.099z" style="fill:#fff;fill-opacity:1;stroke-width:.37497;paint-order:stroke markers fill"/>
</svg>
