<svg xmlns="http://www.w3.org/2000/svg" xmlns:xlink="http://www.w3.org/1999/xlink" xml:space="preserve" width="24" height="24" fill="none">
<defs>
<linearGradient id="a">
<stop offset="0" style="stop-color:#1f9cf5;stop-opacity:1"/>
<stop offset="1" style="stop-color:#6aaefd;stop-opacity:1"/>
</linearGradient>
<linearGradient xlink:href="#a" id="b" x1="52.978" x2="50.989" y1="96.007" y2="9.226" gradientTransform="translate(-.222 -.222)scale(.24444)" gradientUnits="userSpaceOnUse"/>
</defs>
<path d="M12 1C2 1 1 6 1 12c0 8 3 11 11 11s11-3 11-11c0-6-1-11-11-11" style="font-variation-settings:normal;display:inline;opacity:1;vector-effect:none;fill:url(#b);fill-opacity:1;stroke-width:1.11627;stroke-linecap:butt;stroke-linejoin:miter;stroke-miterlimit:4;stroke-dasharray:none;stroke-dashoffset:0;stroke-opacity:1;-inkscape-stroke:none;stop-color:#000;stop-opacity:1"/>
<g fill="#fff">
<path d="M243.853 49.493a2.15 2.15 0 0 0-1.577.649 2.16 2.16 0 0 0-.652 1.578q0 .924.652 1.573a2.15 2.15 0 0 0 1.577.658c.618 0 1.139-.22 1.574-.658.435-.432.658-.958.658-1.573q0-.637-.311-1.14a2.3 2.3 0 0 0-.347-.438 2.14 2.14 0 0 0-1.573-.65zm5.701 0a2.15 2.15 0 0 0-1.58.649 2.15 2.15 0 0 0-.65 1.578q-.002.924.652 1.573a2.15 2.15 0 0 0 1.577.658 2.14 2.14 0 0 0 1.573-.658 2.14 2.14 0 0 0 .653-1.573 2.17 2.17 0 0 0-.653-1.578 2.15 2.15 0 0 0-1.573-.65zm5.7 0a2.15 2.15 0 0 0-1.581.649 2.16 2.16 0 0 0-.653 1.578q0 .924.653 1.573a2.15 2.15 0 0 0 1.58.658 2.13 2.13 0 0 0 1.57-.658 2.13 2.13 0 0 0 .655-1.573 2.15 2.15 0 0 0-.31-1.144 2.3 2.3 0 0 0-.344-.434 2.13 2.13 0 0 0-1.57-.65zM238.157 55.5q-.927-.002-1.581.652-.651.654-.65 1.575-.001.923.65 1.576a2.16 2.16 0 0 0 1.58.655q.922-.001 1.573-.655.657-.653.658-1.576 0-.635-.316-1.143a2.3 2.3 0 0 0-.342-.432 2.13 2.13 0 0 0-1.572-.652m22.79 0q-.924-.002-1.576.652a2.14 2.14 0 0 0-.652 1.575q-.002.923.652 1.576a2.15 2.15 0 0 0 1.576.655q.92-.001 1.575-.655a2.15 2.15 0 0 0 .653-1.576 2.16 2.16 0 0 0-.653-1.575 2.14 2.14 0 0 0-1.576-.652zm-17.094 6.008q-.925-.002-1.577.651a2.15 2.15 0 0 0-.653 1.576q0 .923.653 1.578.2.203.431.344a2.17 2.17 0 0 0 1.146.309 2.15 2.15 0 0 0 1.573-.653 2.16 2.16 0 0 0 .658-1.578 2.14 2.14 0 0 0-.658-1.576 2.13 2.13 0 0 0-1.573-.651m5.7 0q-.926-.002-1.578.651a2.14 2.14 0 0 0-.652 1.576q-.002.923.652 1.578.2.203.431.344.51.309 1.147.309c.615 0 1.136-.22 1.573-.653q.652-.655.652-1.578a2.16 2.16 0 0 0-.308-1.143 2.3 2.3 0 0 0-.344-.432 2.14 2.14 0 0 0-1.573-.652m5.7 0q-.927-.002-1.58.651a2.15 2.15 0 0 0-.653 1.576q0 .923.652 1.578.204.203.434.344a2.17 2.17 0 0 0 1.146.309 2.14 2.14 0 0 0 1.57-.653q.656-.655.656-1.578a2.14 2.14 0 0 0-.655-1.576 2.13 2.13 0 0 0-1.57-.651m-5.7 6.007q-.926 0-1.578.652a2.14 2.14 0 0 0-.652 1.575q-.002.926.652 1.579a2.15 2.15 0 0 0 1.577.655 2.16 2.16 0 0 0 1.574-.655 2.15 2.15 0 0 0 .652-1.578 2.16 2.16 0 0 0-.652-1.576 2.15 2.15 0 0 0-1.573-.652m0 6.008c-.617 0-1.144.22-1.578.651a2.15 2.15 0 0 0-.652 1.58c0 .612.215 1.14.652 1.574a2.15 2.15 0 0 0 1.577.655 2.15 2.15 0 0 0 1.574-.655 2.15 2.15 0 0 0 .652-1.575 2.17 2.17 0 0 0-.652-1.579 2.16 2.16 0 0 0-1.573-.651m0 6.01a2.16 2.16 0 0 0-1.578.65 2.15 2.15 0 0 0-.652 1.577q-.002.922.652 1.576a2.15 2.15 0 0 0 1.577.654 2.15 2.15 0 0 0 1.574-.654 2.15 2.15 0 0 0 .652-1.576 2.17 2.17 0 0 0-.652-1.578 2.15 2.15 0 0 0-1.573-.65zm-5.7 6.007a2.16 2.16 0 0 0-1.577.65 2.16 2.16 0 0 0-.653 1.578q0 .921.653 1.575a2.15 2.15 0 0 0 1.577.654q.924-.002 1.573-.654c.435-.435.658-.962.658-1.575a2.16 2.16 0 0 0-.658-1.579 2.15 2.15 0 0 0-1.573-.65zm5.7 0a2.16 2.16 0 0 0-1.578.65 2.15 2.15 0 0 0-.652 1.578q-.002.921.652 1.575a2.15 2.15 0 0 0 1.577.654 2.15 2.15 0 0 0 1.574-.654 2.15 2.15 0 0 0 .652-1.575 2.17 2.17 0 0 0-.652-1.579 2.15 2.15 0 0 0-1.573-.65z" style="stroke-width:.72708" transform="translate(-71.355 -11.296)scale(.33402)"/>
<path d="M243.853 55.5q-.925-.002-1.577.651a2.15 2.15 0 0 0-.652 1.576q0 .923.652 1.576.204.205.434.344.51.311 1.143.31c.618 0 1.139-.22 1.574-.654a2.15 2.15 0 0 0 .658-1.576 2.1 2.1 0 0 0-.314-1.143 2.2 2.2 0 0 0-.344-.432 2.13 2.13 0 0 0-1.573-.652zm5.701 0q-.927-.002-1.58.651a2.14 2.14 0 0 0-.65 1.576q-.002.923.652 1.576a2.15 2.15 0 0 0 1.577.655 2.15 2.15 0 0 0 1.573-.655 2.15 2.15 0 0 0 .653-1.576q0-.636-.311-1.143a2.3 2.3 0 0 0-.342-.432 2.14 2.14 0 0 0-1.573-.652zm5.7 0q-.929-.002-1.581.651a2.15 2.15 0 0 0-.653 1.576q0 .923.653 1.576a2.16 2.16 0 0 0 1.58.655 2.14 2.14 0 0 0 1.57-.655 2.14 2.14 0 0 0 .655-1.576c0-.425-.103-.804-.313-1.146a2.4 2.4 0 0 0-.342-.43 2.13 2.13 0 0 0-1.57-.651zm-22.796 6.006a2.14 2.14 0 0 0-1.576.652 2.14 2.14 0 0 0-.655 1.576c0 .617.217 1.14.655 1.578a2.15 2.15 0 0 0 1.576.652 2.16 2.16 0 0 0 1.575-.652 2.16 2.16 0 0 0 .654-1.578 2.14 2.14 0 0 0-.654-1.576 2.14 2.14 0 0 0-1.575-.652m5.699 0q-.926-.001-1.58.652-.652.654-.65 1.576c0 .617.215 1.14.649 1.578a2.16 2.16 0 0 0 1.58.653q.922-.002 1.573-.653a2.15 2.15 0 0 0 .658-1.578 2.15 2.15 0 0 0-.658-1.576 2.13 2.13 0 0 0-1.572-.652m22.79 0a2.14 2.14 0 0 0-1.576.652 2.14 2.14 0 0 0-.651 1.576c0 .617.215 1.14.651 1.578a2.15 2.15 0 0 0 1.576.652q.92-.002 1.576-.652c.435-.438.652-.961.652-1.578a2.15 2.15 0 0 0-.31-1.144 2.3 2.3 0 0 0-.342-.432 2.14 2.14 0 0 0-1.576-.652m5.7 0a2.15 2.15 0 0 0-1.579.652q-.65.654-.65 1.576c0 .617.217 1.14.65 1.578a2.17 2.17 0 0 0 1.578.652q.921-.002 1.574-.652a2.15 2.15 0 0 0 .654-1.578 2.14 2.14 0 0 0-.654-1.576 2.13 2.13 0 0 0-1.573-.652m-34.19 6.008q-.924 0-1.576.651a2.14 2.14 0 0 0-.655 1.576q-.001.926.655 1.58a2.15 2.15 0 0 0 1.576.654c.616 0 1.138-.223 1.576-.655q.652-.653.654-1.579a2.16 2.16 0 0 0-.654-1.576 2.15 2.15 0 0 0-1.576-.651m5.699 0q-.926 0-1.58.651c-.436.435-.65.962-.65 1.576q-.002.926.649 1.58a2.16 2.16 0 0 0 1.58.654c.615 0 1.139-.223 1.573-.655q.658-.653.658-1.579 0-.632-.315-1.143a2.3 2.3 0 0 0-.343-.432 2.14 2.14 0 0 0-1.572-.652m5.697 0a2.15 2.15 0 0 0-1.578.651 2.15 2.15 0 0 0-.652 1.576q0 .926.652 1.58.204.203.434.342.51.313 1.144.312a2.15 2.15 0 0 0 1.573-.655c.435-.435.658-.962.658-1.579a2.14 2.14 0 0 0-.658-1.576 2.14 2.14 0 0 0-1.573-.651m11.4 0c-.62 0-1.144.217-1.581.651a2.15 2.15 0 0 0-.653 1.576q0 .926.653 1.58a2.16 2.16 0 0 0 1.58.654 2.15 2.15 0 0 0 1.57-.655q.656-.653.655-1.579a2.1 2.1 0 0 0-.313-1.143 2.3 2.3 0 0 0-.342-.432 2.14 2.14 0 0 0-1.57-.652zm5.693 0a2.15 2.15 0 0 0-1.576.651 2.14 2.14 0 0 0-.651 1.576q-.002.926.651 1.58a2.15 2.15 0 0 0 1.576.654c.615 0 1.138-.223 1.576-.655q.653-.653.653-1.579 0-.636-.311-1.143a2.3 2.3 0 0 0-.342-.432 2.15 2.15 0 0 0-1.576-.652m5.7 0c-.619 0-1.141.217-1.578.651q-.65.654-.65 1.576 0 .926.65 1.58a2.15 2.15 0 0 0 1.577.655c.614 0 1.138-.223 1.573-.655q.656-.653.655-1.579a2.1 2.1 0 0 0-.313-1.143 2.3 2.3 0 0 0-.342-.432 2.14 2.14 0 0 0-1.573-.652zm-34.19 6.007q-.924.002-1.576.652a2.15 2.15 0 0 0-.655 1.578q0 .922.655 1.576a2.15 2.15 0 0 0 1.576.655c.617 0 1.138-.22 1.576-.655q.652-.654.654-1.576 0-.635-.31-1.143a2.4 2.4 0 0 0-.344-.435 2.16 2.16 0 0 0-1.576-.652m5.7 0q-.927.002-1.581.652-.651.656-.65 1.578-.001.922.65 1.576a2.16 2.16 0 0 0 1.58.654q.922-.001 1.573-.654.657-.654.658-1.576a2.14 2.14 0 0 0-.314-1.143 2.3 2.3 0 0 0-.344-.435 2.15 2.15 0 0 0-1.572-.652m5.697 0a2.16 2.16 0 0 0-1.58.652 2.15 2.15 0 0 0-.65 1.578q0 .922.65 1.576a2.15 2.15 0 0 0 1.579.655 2.14 2.14 0 0 0 1.573-.655 2.15 2.15 0 0 0 .658-1.576 2.16 2.16 0 0 0-.658-1.578 2.15 2.15 0 0 0-1.572-.652m11.398 0q-.926.002-1.58.652a2.15 2.15 0 0 0-.652 1.578q0 .922.652 1.576a2.3 2.3 0 0 0 .434.346q.508.309 1.146.309a2.14 2.14 0 0 0 1.57-.655q.656-.654.656-1.576 0-.635-.311-1.146a2.5 2.5 0 0 0-.344-.432 2.15 2.15 0 0 0-1.57-.652zm5.695 0q-.924.002-1.576.652a2.15 2.15 0 0 0-.652 1.578q-.001.922.652 1.576a2.15 2.15 0 0 0 1.576.655q.92-.001 1.575-.655a2.15 2.15 0 0 0 .653-1.576 2.16 2.16 0 0 0-.653-1.578 2.16 2.16 0 0 0-1.575-.652m5.7 0c-.619 0-1.142.22-1.579.652q-.65.656-.65 1.578t.65 1.576a2.15 2.15 0 0 0 1.578.654q.92-.001 1.573-.654a2.14 2.14 0 0 0 .655-1.576 2.16 2.16 0 0 0-.31-1.146 2.5 2.5 0 0 0-.344-.432 2.15 2.15 0 0 0-1.574-.651zm-28.491 6.01a2.17 2.17 0 0 0-1.58.65 2.15 2.15 0 0 0-.65 1.578q-.002.922.649 1.576.204.205.435.346.51.308 1.146.309.92-.001 1.573-.655.657-.654.658-1.576-.002-.636-.314-1.144a2.3 2.3 0 0 0-.344-.435 2.15 2.15 0 0 0-1.573-.648zm5.698 0a2.16 2.16 0 0 0-1.58.65 2.16 2.16 0 0 0-.65 1.578q0 .922.65 1.576a2.15 2.15 0 0 0 1.579.655 2.14 2.14 0 0 0 1.573-.655 2.15 2.15 0 0 0 .658-1.576 2.16 2.16 0 0 0-.658-1.579 2.15 2.15 0 0 0-1.572-.648zm11.398 0a2.16 2.16 0 0 0-1.58.65 2.16 2.16 0 0 0-.653 1.578q0 .922.653 1.576.203.205.434.346a2.17 2.17 0 0 0 1.146.309 2.14 2.14 0 0 0 1.57-.655 2.14 2.14 0 0 0 .655-1.576c0-.425-.103-.804-.31-1.146a2.5 2.5 0 0 0-.344-.432 2.15 2.15 0 0 0-1.57-.65zm5.694 0a2.15 2.15 0 0 0-1.575.65 2.15 2.15 0 0 0-.652 1.578q-.002.922.652 1.576a2.15 2.15 0 0 0 1.576.655q.92-.001 1.575-.655a2.15 2.15 0 0 0 .653-1.576 2.16 2.16 0 0 0-.653-1.579 2.16 2.16 0 0 0-1.576-.648zm-5.694 6.008a2.16 2.16 0 0 0-1.58.65 2.16 2.16 0 0 0-.653 1.577q0 .922.653 1.576a2.16 2.16 0 0 0 1.58.654 2.14 2.14 0 0 0 1.57-.654 2.14 2.14 0 0 0 .655-1.576q0-.635-.31-1.146a2.5 2.5 0 0 0-.344-.432 2.15 2.15 0 0 0-1.57-.65z" opacity=".35" style="stroke-width:.72708" transform="translate(-71.355 -11.296)scale(.33402)"/>
</g>
</svg>
