<svg xmlns="http://www.w3.org/2000/svg" xmlns:xlink="http://www.w3.org/1999/xlink" xml:space="preserve" width="24" height="24" viewBox="0 0 6.35 6.35">
<defs>
<linearGradient id="a">
<stop offset="0" style="stop-color:#262532;stop-opacity:1"/>
<stop offset="1" style="stop-color:#b3b3b3;stop-opacity:1"/>
</linearGradient>
<linearGradient xlink:href="#a" id="b" x1="192.406" x2="194.928" y1="268.376" y2="-379.902" gradientUnits="userSpaceOnUse"/>
<linearGradient xlink:href="#a" id="c" x1="192.406" x2="194.928" y1="268.376" y2="-379.902" gradientUnits="userSpaceOnUse"/>
</defs>
<g style="fill:url(#b);fill-opacity:1;stroke-width:23.0144">
<path d="M148.375 1.961q3.105.033 5.93-.789a546 546 0 0 1 74.343.195q33.704 2.625 65.25 14.625c34.965 14.395 58.887 39.36 71.774 74.899a246.4 246.4 0 0 1 13.051 66.007 482.6 482.6 0 0 1-1.981 84.981q-3.545 29.799-15.422 57.312c-14.683 31.801-38.472 53.739-71.375 65.809-26.664 9.008-54.082 13.754-82.254 14.23-31.691 1.649-63.058-.722-94.117-7.113-57.16-12.73-92.418-47.582-105.781-104.543a329 329 0 0 1-7.711-77.867 319.3 319.3 0 0 1 8.898-82.609Q29.99 27.211 110.414 8.086a241 241 0 0 1 37.961-6.125" style="fill:url(#c);fill-opacity:1;fill-rule:evenodd;stroke:none;stroke-width:23.0144" transform="translate(.265 .265)scale(.01533)"/>
</g>
<g style="stroke-width:1.21684" transform="translate(.566 .57)scale(.8218)">
<circle cx="3.064" cy="3.168" r="2.092" fill="#ffe333" style="stroke-width:7.90749;paint-order:stroke fill markers"/>
<path fill="#f9f9f9" d="M3.894 3.343a.87.87 0 0 0-.801.534l-.003.007-.01-.002a.7.7 0 0 0-.143-.015.697.697 0 0 0-.698.697.697.697 0 0 0 .698.698h.017l.02-.001.019-.002h1.814l.011.001.036.002a.523.523 0 0 0 .523-.523.523.523 0 0 0-.523-.523l-.087.007v-.008a.87.87 0 0 0-.871-.872z" style="stroke-width:7.90749;paint-order:stroke markers fill"/>
<path d="M3.894 3.343a.87.87 0 0 0-.801.534l-.003.007-.01-.002a.7.7 0 0 0-.143-.015.697.697 0 0 0-.698.698.7.7 0 0 0 .53.673 2 2 0 0 0 .288.021h.015a2.09 2.09 0 0 0 1.797-1.042h-.015l-.087.007v-.008a.87.87 0 0 0-.871-.873z" style="fill:#fbf1b4;fill-opacity:1;stroke-width:7.90749;paint-order:stroke fill markers"/>
</g>
</svg>
