<svg xmlns="http://www.w3.org/2000/svg" xmlns:xlink="http://www.w3.org/1999/xlink" xml:space="preserve" width="24" height="24" fill="none">
<defs>
<linearGradient id="a">
<stop offset="0" style="stop-color:#cecece;stop-opacity:1"/>
<stop offset="1" style="stop-color:#f5f5f5;stop-opacity:1"/>
</linearGradient>
<linearGradient xlink:href="#a" id="b" x1="52.978" x2="50.989" y1="96.007" y2="9.226" gradientTransform="translate(-.222 -.222)scale(.24444)" gradientUnits="userSpaceOnUse"/>
</defs>
<path d="M12 1C2 1 1 6 1 12c0 8 3 11 11 11s11-3 11-11c0-6-1-11-11-11" style="font-variation-settings:normal;display:inline;opacity:1;vector-effect:none;fill:url(#b);fill-opacity:1;stroke-width:1.11627;stroke-linecap:butt;stroke-linejoin:miter;stroke-miterlimit:4;stroke-dasharray:none;stroke-dashoffset:0;stroke-opacity:1;-inkscape-stroke:none;stop-color:#000;stop-opacity:1"/>
<path fill="#f70" d="M66.11 117.73v36.47c0 4.421.46 8.447 1.357 12.12.9 3.579 2.276 6.77 4.421 9.363 5.363 6.487 13.252 8.362 20.496 8.37 8.843.01 16.645-.955 24.448-3.901v-62.407h-11.704v54.604c-3.901 1.012-7.803 1.423-11.506 1.459-5.81.055-9.936-1.704-12.407-5.113-2.455-3.413-3.4-9.078-3.4-16.982v-33.978" style="stroke-width:2.60091" transform="translate(-3.103 -9.232)scale(.14639)"/>
<path fill="#333" d="M132.438 98.223h7.802v93.633h-7.802" style="stroke-width:2.60091" transform="translate(-3.103 -9.232)scale(.14639)"/>
</svg>
