<svg xmlns="http://www.w3.org/2000/svg" width="24" height="24">
<defs>
<radialGradient id="a" cx="0" cy="0" r="1" fx="0" fy="0" gradientTransform="matrix(0 16.5 -16.5 0 9 .75)" gradientUnits="userSpaceOnUse" spreadMethod="pad">
<stop offset="0" style="stop-opacity:1;stop-color:#fafafa"/>
<stop offset="1" style="stop-opacity:1;stop-color:silver"/>
</radialGradient>
</defs>
<path d="M7.195.836q.135 0 .258-.035a24 24 0 0 1 3.231.008 10.3 10.3 0 0 1 2.836.636q2.278.938 3.121 3.254.476 1.396.566 2.867a21 21 0 0 1-.086 3.696 9 9 0 0 1-.672 2.488q-.957 2.074-3.101 2.859a11.7 11.7 0 0 1-3.575.618 16 16 0 0 1-4.089-.309c-2.481-.551-4.016-2.066-4.594-4.543a14.2 14.2 0 0 1-.336-3.383q-.041-1.818.387-3.59.914-3.468 4.406-4.3A10 10 0 0 1 7.195.836" style="fill:url(#a);fill-rule:evenodd;stroke:none" transform="scale(1.33333)"/>
<path fill="#599ccd" d="M14.706 12.343V6.888L17.985 5.5v7.067c0 .853-3.279.952-3.279-.225z"/>
<path fill="#7ec183" d="M11.947 18.5q-1.54 0-2.66-.43c-.748-.286-.958-.824-1.424-1.316-.25-.263 2.08.153 3.632-.185 1.49-.308 2.209-1.327 2.457-1.57q.752-.736.752-2.502V7.46c1.352.523 3.06 2.309 3.28 4.248v1.015a7.3 7.3 0 0 1-.359 2.345 4.8 4.8 0 0 1-1.097 1.83q-.74.764-1.88 1.182-1.14.419-2.703.418z"/>
<path fill="#4675ab" d="M13.823 15.307c-.31.585-1.738 2.34-4.47 2.616l-.394.01a4.8 4.8 0 0 1-1.52-1.055 4.7 4.7 0 0 1-1.075-1.82q-.35-1.059-.349-2.335v-1.98l3.28-1.445v3.2q0 .886.201 1.504.2.62.553 1.01a1.96 1.96 0 0 0 .848.556 3.4 3.4 0 0 0 1.093.168q1.208 0 1.964-.737l-.13.308z"/>
</svg>
