<svg xmlns="http://www.w3.org/2000/svg" width="24" height="24" viewBox="0 0 6.35 6.35">
<defs>
<radialGradient id="a" cx="0" cy="0" r="1" fx="0" fy="0" gradientTransform="rotate(90 1.455 1.72)scale(5.82072)" gradientUnits="userSpaceOnUse" spreadMethod="pad">
<stop offset="0" style="stop-color:#c9dcf1;stop-opacity:1"/>
<stop offset="1" style="stop-color:#5494de;stop-opacity:1"/>
</radialGradient>
</defs>
<path d="M2.538.295A.3.3 0 0 0 2.63.283Q3.2.246 3.77.285a3.6 3.6 0 0 1 1 .225q.804.33 1.101 1.148.169.492.2 1.011.042.653-.03 1.304a3.2 3.2 0 0 1-.237.878q-.338.731-1.094 1.008a4.1 4.1 0 0 1-1.261.218 5.6 5.6 0 0 1-1.443-.109Q.691 5.677.385 4.366a5 5 0 0 1-.12-1.194 5 5 0 0 1 .137-1.266Q.724.682 1.957.389q.288-.071.581-.094" style="fill:url(#a);fill-rule:evenodd;stroke:none;stroke-width:.352683;stroke-dasharray:none"/>
<path d="m4.326.367-.028 1.047c-.014.548.437 1 1.011 1.016l.747.02a4 4 0 0 0-.151-.733A1.9 1.9 0 0 0 4.835.533a3.6 3.6 0 0 0-.51-.166Z" style="opacity:.727273;mix-blend-mode:normal;fill:#f8f9f9;fill-opacity:1;stroke-width:.637964;paint-order:stroke fill markers"/>
<path d="M4.882 3.014a2.25 2.25 0 0 0-2.249 2.249 2.3 2.3 0 0 0 .152.81q.33.022.662.004.65-.01 1.262-.218.756-.277 1.094-1.008.181-.422.237-.878.034-.306.042-.613a2.25 2.25 0 0 0-1.2-.346" style="fill:#a8c8ec;fill-opacity:1;stroke-width:.531281;paint-order:markers stroke fill"/>
<path d="M4.88 4.057a.164.164 0 0 0-.162.162c-.01.237.35.237.34 0-.004-.112-.092-.166-.177-.162zm-.163.51v1.289q.183-.068.342-.163V4.568z" style="fill:#fff;fill-opacity:1;stroke-width:.531281;paint-order:markers stroke fill"/>
</svg>
