<svg xmlns="http://www.w3.org/2000/svg" xml:space="preserve" width="24" height="24" fill="none">
<path fill="url(#a)" fill-rule="evenodd" d="M9.596 1.114q.18.001.344-.046a32 32 0 0 1 4.307.011q1.951.153 3.78.848 3.038 1.25 4.158 4.339.64 1.86.756 3.824a28 28 0 0 1-.114 4.923 11.9 11.9 0 0 1-.894 3.32q-1.276 2.764-4.135 3.813a15.6 15.6 0 0 1-4.765.825 21.4 21.4 0 0 1-5.453-.413q-4.967-1.106-6.128-6.056a19 19 0 0 1-.447-4.511 18.5 18.5 0 0 1 .515-4.786q1.217-4.629 5.877-5.736a14 14 0 0 1 2.199-.355" clip-rule="evenodd"/>
<defs>
<radialGradient id="a" cx="0" cy="0" r="1" gradientTransform="matrix(0 22 -22 0 12 1)" gradientUnits="userSpaceOnUse">
<stop stop-color="#555"/>
<stop offset="1" stop-color="#222"/>
</radialGradient>
</defs>
<rect width="10.435" height="1.304" x="8.816" y="17.201" fill="#40bf62" paint-order="stroke markers fill" ry=".653" style="stroke-width:2.46518"/>
<path fill="#40bf62" d="M5.565 5.368a.65.65 0 0 0-.646.32.65.65 0 0 0 .239.893l7.006 4.043-7.006 4.045a.65.65 0 0 0-.24.893c.183.313.58.419.893.239l7.906-4.566a.64.64 0 0 0 .313-.554c.005-.02.003-.037.005-.055q.001-.029-.005-.056a.64.64 0 0 0-.313-.553L5.811 5.45a.7.7 0 0 0-.246-.08Z" paint-order="stroke markers fill" style="stroke-width:2.46518"/>
</svg>
