<svg xmlns="http://www.w3.org/2000/svg" width="24" height="24">
<defs>
<radialGradient id="a" cx="0" cy="0" r="1" gradientTransform="rotate(155.136 9.533 3.827)scale(20.7114)" gradientUnits="userSpaceOnUse">
<stop offset="0" stop-color="#777" style="stop-color:#276262;stop-opacity:1"/>
<stop offset="1" stop-color="#333" style="stop-color:#1a4343;stop-opacity:1"/>
</radialGradient>
</defs>
<path fill="url(#a)" fill-rule="evenodd" d="M1 11.563v.003q0 .212.005.425-.046 2.282.447 4.51 1.16 4.95 6.128 6.057A21.4 21.4 0 0 0 11.9 23h.012q.56 0 1.12-.03a15.6 15.6 0 0 0 4.766-.824q2.859-1.049 4.135-3.812a11.9 11.9 0 0 0 .894-3.32q.274-2.457.114-4.924a14.3 14.3 0 0 0-.756-3.824q-1.12-3.09-4.158-4.34a13.5 13.5 0 0 0-3.78-.847 32 32 0 0 0-4.307-.011q-.165.048-.344.046-1.114.09-2.2.355Q2.738 2.576 1.52 7.205A18.5 18.5 0 0 0 1 11.563" clip-rule="evenodd" style="fill:url(#a)"/>
<path fill="#6fe19c" fill-rule="evenodd" d="M22.545 16.536a12 12 0 0 1-.612 1.798q-1.276 2.763-4.135 3.812a15.6 15.6 0 0 1-4.765.825 21.4 21.4 0 0 1-5.453-.413q-4.967-1.106-6.128-6.056-.265-1.196-.374-2.408c.6-.858 1.011-1.698 1.38-2.45.83-1.692 1.44-2.938 3.492-2.94l-.001.002c.86-.002 1.537.44 2.123 1.1 0 0 .343.481.53.709l.05.054c.374.505.657 1.06.974 1.617.976 1.72 1.95 3.434 3.625 3.44.855.005 1.584-.338 2.284-.708l.786-.408c.551-.275 1.104-.495 1.71-.495.415 0 .912.193 1.35.346a.5.5 0 0 1 .084.038c1.088.613 2.434 1.566 3.08 2.137" clip-rule="evenodd" style="fill:#24b97a;fill-opacity:1"/>
<path fill="#fff" d="M12.85 3.576 9.515 8.913h2v4.002l3.336-5.337H12.85z" style="fill-rule:evenodd;stroke-width:.145052"/>
</svg>
