<svg xmlns="http://www.w3.org/2000/svg" xmlns:xlink="http://www.w3.org/1999/xlink" xml:space="preserve" width="24" height="24" fill="none">
<defs>
<radialGradient id="a" cx="0" cy="0" r="1" gradientTransform="matrix(0 22 -22 0 12 1)" gradientUnits="userSpaceOnUse">
<stop offset="0" stop-color="#8FC8FF" style="stop-color:#80b3ff;stop-opacity:1"/>
<stop offset="1" stop-color="#0056A8" style="stop-color:#003380;stop-opacity:1"/>
</radialGradient>
<radialGradient xlink:href="#a" id="b" cx=".179" cy="-1.748" r="1" fx=".179" fy="-1.748" gradientTransform="matrix(.30936 27.09687 -22.00023 .25117 -26.521 -3.429)" gradientUnits="userSpaceOnUse"/>
</defs>
<path d="M12 1C2 1 1 6 1 12c0 8 3 11 11 11s11-3 11-11c0-6-1-11-11-11" style="font-variation-settings:normal;display:inline;opacity:1;vector-effect:none;fill:url(#b);fill-opacity:1;stroke-width:1.11627;stroke-linecap:butt;stroke-linejoin:miter;stroke-miterlimit:4;stroke-dasharray:none;stroke-dashoffset:0;stroke-opacity:1;-inkscape-stroke:none;stop-color:#000;stop-opacity:1"/>
<path d="M9.62 19.664a8 8 0 0 1-.828-.253 5.9 5.9 0 0 1-1.597-.907 6.6 6.6 0 0 1-.721-.696 7 7 0 0 1-.507-.667.9.9 0 0 1-.11-.422c0-.056.014-.148.031-.205.018-.06.102-.209.203-.358l.978-1.442 2.492-3.673 1.996-2.944c.21-.307.478-.703.973-1.435q.283-.417.353-.463a.6.6 0 0 1 .17-.068l.1-.021.1.026.101.026.559.38c.307.21.729.496.937.637 1.562 1.058 2.323 1.577 2.363 1.614a.5.5 0 0 1 .088.122l.041.08v.24l-.042.08c-.023.044-.195.304-.381.578l-.57.839-4.902 7.227-.633.935c-.212.312-.413.59-.447.62a1 1 0 0 1-.14.092 1.2 1.2 0 0 1-.387.096c-.033 0-.132-.018-.22-.038m1.18-5.08a.6.6 0 0 0 .11-.123l.046-.075v-.103a.5.5 0 0 0-.036-.183l-.036-.08.404-.596.614-.906c.115-.17.219-.32.231-.332s.243-.065.512-.116c.269-.05.502-.096.519-.102.016-.005.124-.149.24-.32.114-.17.214-.314.22-.318s.044.015.084.042l.072.049.173-.251c.095-.138.17-.254.166-.257a10 10 0 0 0-.505-.327l-.17.246-.163.239.044.036c.025.02.058.043.074.052l.03.017-.184.271c-.101.15-.195.28-.208.288a8 8 0 0 1-.687.136 124 124 0 0 1 1.127-1.672l.037-.053.106.071c.069.046.112.063.12.05a8 8 0 0 0 .116-.836c-.012-.012-.732.411-.732.43 0 .009.04.044.09.08.051.035.09.07.086.08-.004.008-.294.439-.645.957-.352.517-.816 1.202-1.032 1.521l-.392.58-.02-.096-.065-.34-.046-.244.196-.29.197-.29h.079a.33.33 0 0 0 .274-.163l.045-.08-.01-.106-.008-.106-.053-.07a.36.36 0 0 0-.142-.104l-.089-.033-.1.024-.101.024-.06.068a.4.4 0 0 0-.072.123c-.007.03-.015.066-.02.079a.4.4 0 0 0 .022.12l.029.095-.222.327-.223.327.032.172.096.513.065.34-.178.264-.179.263-.057-.01a.4.4 0 0 0-.14.012.38.38 0 0 0-.292.377c0 .25.209.421.458.376a.4.4 0 0 0 .152-.066zm4.838-7.04a496 496 0 0 0-1.88-1.272c-.008-.007.042-.095.111-.196l.126-.182.114.08c.062.045.125.076.138.071s.087-.102.164-.216c.22-.328 1.033-1.524 1.04-1.531.009-.012 2.06 1.383 2.053 1.395q-.004.011.017.013c.02 0 .567.358.62.406.016.013-.117.215-.871 1.321-.152.223-.284.42-.295.438l-.02.035.12.081c.067.045.12.088.12.096s-.052.092-.115.188l-.116.174Zm1.545-.767c.108-.16.19-.297.18-.306l-.293-.2c-.152-.102-.284-.177-.292-.168a10 10 0 0 0-.2.295l-.185.278.027.015.287.195c.142.098.264.18.27.18.005.001.098-.129.206-.289m-1.35-.986a3 3 0 0 0 .16-.249c-.051-.04-.573-.39-.58-.39-.018 0-.401.578-.39.588.004.005.134.095.287.2l.279.189.04-.047c.022-.025.114-.156.205-.29z" style="fill:#fff;stroke-width:.891011"/>
</svg>
