<svg xmlns="http://www.w3.org/2000/svg" xml:space="preserve" width="24" height="24">
<defs>
<radialGradient id="a" cx="0" cy="0" r="1" gradientTransform="matrix(0 22 -22 0 12 1)" gradientUnits="userSpaceOnUse">
<stop stop-color="#FAFAFA"/>
<stop offset="1" stop-color="#B0B0B0"/>
</radialGradient>
</defs>
<path fill="url(#a)" fill-rule="evenodd" d="M9.94 1.068q-.164.048-.344.046-1.114.09-2.2.355Q2.738 2.576 1.52 7.205a18.5 18.5 0 0 0-.515 4.786q-.046 2.283.447 4.51 1.16 4.95 6.128 6.058 2.7.555 5.452.412a15.6 15.6 0 0 0 4.766-.825q2.859-1.05 4.135-3.812a11.9 11.9 0 0 0 .893-3.32q.276-2.457.115-4.924a14.3 14.3 0 0 0-.756-3.824q-1.12-3.09-4.158-4.34a13.5 13.5 0 0 0-3.78-.847 32 32 0 0 0-4.307-.011" clip-rule="evenodd" style="fill:url(#a);stroke-width:1"/>
<path fill="#2bac8f" d="M20 16.385h-2.667v-1.518l1.334-.673z"/>
<path fill="#2e997c" d="M18.666 14.194H16l.267 1.179 1.066 1.012z"/>
<path fill="#278768" d="M17.334 16.385h-2.667l.533-1.518.8-.673z"/>
<path fill="#21674f" d="m14.666 12.002-1.066-.678-1.6.678 1.333 2.19z"/>
<path fill="#2a8d70" d="m16 14.194-1.333-.34-1.333.34 1.334 2.19Z"/>
<path fill="#2f9f81" d="M16 14.192h-2.666l.656-1.077.677-1.114z"/>
<path fill="#96cfba" d="M20 7.615h-2.667v1.174l1.334 1.017z"/>
<path fill="#85c8b1" d="M18.666 9.806H16l.267-1.523 1.067-.668z"/>
<path fill="#6bbfa4" d="M17.334 7.615h-2.667v1.174L16 9.806z"/>
<path fill="#52b99b" d="m16 9.806-1.333.502-1.333-.502 1.333-2.19z"/>
<path fill="#44b799" d="M16 9.808h-2.666l.267 1.007L14.668 12z"/>
<path fill="#33b394" d="M14.666 12H12l1.333-2.191z"/>
<path fill="#2da4ad" d="M13.333 14.192 12 14.866l-1.334-.674L12 12.002Z"/>
<path fill="#2f98af" d="M13.333 14.194h-2.667l.043 1.425 1.29.766z"/>
<path fill="#0d657a" d="M12 16.385H9.331v-1.518l1.334-.673.657 1.08z"/>
<path fill="#2a69b1" d="m10.666 14.194-1.333-.34-1.334.34 1.334 2.19"/>
<path fill="#2077bc" d="M10.666 14.192H8l.267-1.351 1.066-.84z"/>
<path fill="#2886c7" d="m9.333 12.002-1.6-.678-1.067.678L8 14.192"/>
<path fill="#238dcd" d="M9.333 12H6.667v-1.69L8 9.808z"/>
<path fill="#1a9cd1" d="M8.008 9.802 6.666 9.29l-1.333.51L6.67 12"/>
<path fill="#0ea6d3" d="M8 9.806H5.333L5.6 8.79l1.067-1.174Z"/>
<path fill="#08abd8" d="M6.667 7.615H4l1.334 2.191z"/>
</svg>
