<svg xmlns="http://www.w3.org/2000/svg" width="24" height="24">
<defs>
<radialGradient id="a" cx="0" cy="0" r="1" fx="0" fy="0" gradientTransform="matrix(0 22 -22 0 12.083 .695)" gradientUnits="userSpaceOnUse" spreadMethod="pad">
<stop offset="0" style="stop-color:#ece2f7;stop-opacity:1"/>
<stop offset="1" style="stop-color:#966fb2;stop-opacity:1"/>
</radialGradient>
</defs>
<path d="M9.676.81q.18 0 .344-.047a32 32 0 0 1 4.308.011 13.7 13.7 0 0 1 3.781.848q3.037 1.25 4.162 4.339c.421 1.24.676 2.516.754 3.822a28.3 28.3 0 0 1-.114 4.928 12 12 0 0 1-.896 3.318q-1.276 2.766-4.135 3.812a15.6 15.6 0 0 1-4.767.824 21.3 21.3 0 0 1-5.452-.412c-3.308-.735-5.354-2.755-6.125-6.058a19 19 0 0 1-.448-4.51 18.5 18.5 0 0 1 .516-4.787q1.218-4.625 5.875-5.733A14 14 0 0 1 9.676.81" style="fill:url(#a);fill-rule:evenodd;stroke:none;stroke-width:1.333;stroke-dasharray:none"/>
<g style="stroke-width:3.60014">
<path fill="#966fb2" fill-rule="evenodd" d="M59.211 5.001a14.18 14.18 0 0 0-14.21 14.211v14.211a14.18 14.18 0 0 0 12.79 14.142v11.438l11.368-11.369H84.79a14.18 14.18 0 0 0 14.211-14.21V19.211A14.18 14.18 0 0 0 84.79 5.001Z" style="stroke-width:3.60014" transform="translate(-8 3.11)scale(.27777)"/>
<path fill="#ece2f7" d="M74.686 10.686c-.687 0-1.257.548-1.263 1.213-.004.667.566 1.228 1.257 1.232 2.984.022 5.438.965 7.416 2.825 1.956 1.843 2.975 4.396 3 7.728v.003c.008.662.578 1.21 1.266 1.21l.014-.003c.69-.007 1.263-.563 1.258-1.23v-.003c-.016-1.941-.332-3.727-.95-5.298a11.45 11.45 0 0 0-2.814-4.16c-2.448-2.303-5.575-3.492-9.173-3.517Zm-12.818 2.872c-.482-.081-1.003.008-1.524.258h-.042l-.058.034q-1.447.822-2.717 2.206l-.067.072v.067c-.586.731-.974 1.467-1.063 2.204-.028.125-.028.237-.028.358 0 .335.05.676.153 1.01l.028.095.058.033c.335 1.148 1.094 2.936 2.756 5.962 1.107 2.006 2.238 3.681 3.362 5.093a27 27 0 0 0 2.04 2.293c.009.01.042.043.077.075.013.012.03.038.072.08l.078.078H65l.05.053.014.016.014.014a27 27 0 0 0 2.295 2.032 36.4 36.4 0 0 0 5.09 3.372c3.03 1.672 4.834 2.427 5.976 2.757l.042.05.07.024a3 3 0 0 0 .993.153c.135.008.255-.002.369-.028q1.173-.138 2.323-1.104l.009-.011.008-.006c.012-.012.005-.006.011-.014.007-.006.01-.013.017-.02.907-.827 1.639-1.727 2.19-2.692l.036-.06v-.059c.506-1.053.305-2.129-.517-2.814a77 77 0 0 0-.904-.747 44 44 0 0 0-1.497-1.182c-.759-.562-1.932-1.288-2.6-1.66h-.003c-1.285-.72-2.627-.302-3.217.463l-1.036 1.296c-.417.527-1.251.476-1.274.475-7.022-1.807-8.91-8.868-8.923-8.918-.001-.022-.052-.858.475-1.282l1.29-1.033c.767-.587 1.198-1.929.475-3.217-.377-.666-1.107-1.847-1.66-2.6h-.003c-.296-.4-.775-.998-1.182-1.5-.204-.25-.39-.48-.525-.643l-.16-.195-.048-.052-.014-.017a2.18 2.18 0 0 0-1.316-.769m12.893 2.815c-.678-.048-1.286.46-1.335 1.113-.05.654.478 1.237 1.154 1.285 1.673.118 2.802.61 3.65 1.507v.003c.866.914 1.26 1.957 1.227 3.383v.006c-.015.656.536 1.212 1.216 1.227h.03c.67 0 1.229-.53 1.244-1.177.045-1.96-.593-3.71-1.88-5.066-1.292-1.363-3.123-2.126-5.306-2.281" style="stroke-width:3.60014" transform="translate(-8 3.11)scale(.27777)"/>
</g>
</svg>
