<svg xmlns="http://www.w3.org/2000/svg" width="24" height="24" viewBox="0 0 6.35 6.35">
<defs>
<radialGradient id="a" cx="0" cy="0" r="1" gradientTransform="rotate(90 1.455 1.72)scale(5.82072)" gradientUnits="userSpaceOnUse">
<stop offset="0" stop-color="#7286F2" style="stop-color:#a2b3fa;stop-opacity:1"/>
<stop offset="1" stop-color="#4A5ECA" style="stop-color:#6d89f9;stop-opacity:1"/>
</radialGradient>
</defs>
<path fill="url(#a)" fill-rule="evenodd" d="M2.539.295a.3.3 0 0 0 .09-.012 8 8 0 0 1 1.14.003 3.5 3.5 0 0 1 1 .224q.804.33 1.1 1.148.17.492.2 1.012a7.3 7.3 0 0 1-.03 1.302 3.1 3.1 0 0 1-.236.879 1.87 1.87 0 0 1-1.094 1.008q-.614.208-1.26.219a5.7 5.7 0 0 1-1.444-.11Q.693 5.676.385 4.366a5 5 0 0 1-.12-1.194 5 5 0 0 1 .137-1.266Q.724.682 1.957.39q.287-.071.582-.094Z" clip-rule="evenodd" style="fill:url(#a);stroke-width:.24253"/>
<path fill="#fff" d="M4.695 2.132a.2.2 0 0 0-.065.015 9 9 0 0 0-.612.518c-.04.04-.077.068-.077.134l-.001.376v.376c0 .066.037.094.078.134.118.115.574.5.612.518a.2.2 0 0 0 .065.016.2.2 0 0 0 .174-.094s.026-.036.026-.076V2.3a.15.15 0 0 0-.026-.076.2.2 0 0 0-.174-.094Zm-2.781-.008H3.29a.46.46 0 0 1 .458.462v1.178a.46.46 0 0 1-.458.462H1.914a.46.46 0 0 1-.459-.462V2.586a.46.46 0 0 1 .459-.462"/>
<path d="M4.901 3.006A2.263 2.263 0 0 0 2.64 5.27a2.3 2.3 0 0 0 .153.803q.327.021.656.005.648-.011 1.26-.219a1.87 1.87 0 0 0 1.095-1.008q.182-.421.236-.879a7 7 0 0 0 .043-.633 2.26 2.26 0 0 0-1.18-.333Z" style="fill:#4d4d4d;fill-opacity:1;stroke-width:.24253"/>
<path d="M4.205 4.138a.435.435 0 0 0 0 .87.43.43 0 0 0 .212-.06l.343.321-.342.321a.43.43 0 0 0-.213-.06.435.435 0 0 0-.405.526q.128-.013.255-.034a.174.174 0 0 1 .15-.23.174.174 0 0 1 .185.161q.115-.03.228-.065l.006-.037.37-.358.153.144q.135-.09.248-.202l-.771-.748a.435.435 0 0 0-.42-.55Zm1.567.174-.686.647.229.224.575-.559q.051-.153.088-.312zM4.205 4.4a.174.174 0 0 1 0 .348.174.174 0 0 1 0-.348" style="fill:#fff;stroke-width:.24253"/>
</svg>
