<svg xmlns="http://www.w3.org/2000/svg" width="24" height="24">
<defs>
<radialGradient id="a" cx="0" cy="0" r="1" fx="0" fy="0" gradientTransform="matrix(0 16.5 -16.5 0 9 .75)" gradientUnits="userSpaceOnUse" spreadMethod="pad">
<stop offset="0" style="stop-opacity:1;stop-color:#a4a4a4"/>
<stop offset="1" style="stop-opacity:1;stop-color:#626262"/>
</radialGradient>
</defs>
<g style="fill:none">
<path d="M7.195.836q.135 0 .258-.035a24 24 0 0 1 3.231.008 10.3 10.3 0 0 1 2.836.636q2.278.938 3.121 3.254.476 1.396.566 2.867a21 21 0 0 1-.086 3.696 9 9 0 0 1-.672 2.488q-.957 2.074-3.101 2.859a11.7 11.7 0 0 1-3.575.618 16 16 0 0 1-4.089-.309c-2.481-.551-4.016-2.066-4.594-4.543a14.2 14.2 0 0 1-.336-3.383q-.041-1.821.387-3.59.914-3.468 4.406-4.3A10 10 0 0 1 7.195.836" style="fill:url(#a);fill-rule:evenodd;stroke:none" transform="scale(1.33333)"/>
</g>
<path fill="#5397e9" d="M16.739 21.434v21.13H47.26v-21.13Zm7.043 1.174h2.348v2.348h-2.348zm4.696 0h2.348v2.348h-2.348zm4.695 0h2.348v2.348h-2.348zm4.696 0h2.348v2.348h-2.348ZM23.782 39.043h2.348v2.348h-2.348zm4.696 0h2.348v2.348h-2.348zm4.695 0h2.348v2.348h-2.348zm4.696 0h2.348v2.348h-2.348z" style="stroke-width:1.1739" transform="translate(-1.63 -1.63)scale(.42593)"/>
<path fill="#fff" d="M16.739 26.13v11.74h8.217V26.13zm10.565 0v11.74h9.391V26.13zm11.739 0v11.74h8.217V26.13z" style="stroke-width:1.1739" transform="translate(-1.63 -1.63)scale(.42593)"/>
<path fill="#f9e37d" d="M21.434 17.913v28.173h4.696V43.74h-2.348V20.26h2.348v-2.348zm16.435 0v2.348h2.348v23.478h-2.348v2.347h4.696V17.913Z" style="stroke-width:1.1739" transform="translate(-1.63 -1.63)scale(.42593)"/>
</svg>
