<svg xmlns="http://www.w3.org/2000/svg" xmlns:xlink="http://www.w3.org/1999/xlink" xml:space="preserve" width="24" height="24" fill="none">
<defs>
<linearGradient id="a">
<stop offset="0" style="stop-color:#535353;stop-opacity:1"/>
<stop offset="1" style="stop-color:gray;stop-opacity:1"/>
</linearGradient>
<linearGradient xlink:href="#a" id="b" x1="52.978" x2="50.989" y1="96.007" y2="9.226" gradientTransform="translate(-.222 -.222)scale(.24444)" gradientUnits="userSpaceOnUse"/>
</defs>
<path d="M12 1C2 1 1 6 1 12c0 8 3 11 11 11s11-3 11-11c0-6-1-11-11-11" style="font-variation-settings:normal;display:inline;opacity:1;vector-effect:none;fill:url(#b);fill-opacity:1;stroke-width:1.11627;stroke-linecap:butt;stroke-linejoin:miter;stroke-miterlimit:4;stroke-dasharray:none;stroke-dashoffset:0;stroke-opacity:1;-inkscape-stroke:none;stop-color:#000;stop-opacity:1"/>
<path fill="#4caf50" fill-rule="evenodd" d="M8.448 1.588a1.25 1.25 0 0 0-.866.366L1.954 7.583a1.25 1.25 0 0 0 0 1.768l5.628 5.629a1.25 1.25 0 0 0 1.769 0l5.628-5.629a1.25 1.25 0 0 0 0-1.768L9.351 1.954a1.25 1.25 0 0 0-.903-.366" font-family="sans-serif" font-weight="400" overflow="visible" style="text-indent:0;text-decoration-line:none;text-decoration-style:solid;text-decoration-color:#000;text-transform:none;white-space:normal;isolation:auto;mix-blend-mode:normal" transform="translate(3.997 3.996)scale(.94525)"/>
<path fill="#fff" fill-rule="evenodd" stroke="#000" stroke-opacity=".098" stroke-width=".25" d="M7.271 7.27c-.296 0-.296.295-.296.295v1.183s0 .298.296.296l.295-.002v7.094c0 .327.265.59.592.59h.905c.03-.01 6.565-6.668 7.556-7.684l.11.002c.295.005.295-.296.295-.296V7.566c0-.296-.294-.296-.294-.296h-3.548s-.295 0-.295.295v1.183c0 .296.295.296.295.296s.296 0 .278-.002l-2.938 2.957V9.041l.296.003c.296.002.296-.296.296-.296V7.566c0-.328-.296-.296-.296-.296Z" paint-order="markers stroke fill"/>
<path fill="#fff" stroke="#000" stroke-opacity=".098" stroke-width=".25" d="M12.133 16.773h.594l.456-2.278h-.595Zm.83-2.644a.42.42 0 0 0 .42-.326c.04-.195-.086-.325-.29-.325a.42.42 0 0 0-.423.325c-.036.187.085.326.293.326zm.41 2.644h.594l.313-1.566c.195-.17.362-.256.492-.256.215 0 .29.126.22.476l-.268 1.346h.597l.314-1.566c.195-.17.362-.256.491-.256.217 0 .29.126.22.476l-.268 1.346h.599l.284-1.42c.114-.574-.04-.915-.525-.915-.296 0-.553.18-.805.4-.057-.253-.22-.4-.545-.4-.297 0-.542.163-.773.362h-.017l.02-.305h-.487z" aria-label="im" font-family="sans-serif" font-size="4.304" font-style="italic" font-weight="700" letter-spacing="0" paint-order="markers stroke fill" word-spacing="0"/>
</svg>
