<svg xmlns="http://www.w3.org/2000/svg" width="24" height="24" fill="none">
<path fill="url(#a)" stroke="#FAFAFA" d="M1.505 11.98a18 18 0 0 1 .5-4.653c.387-1.468 1.039-2.63 1.942-3.513.905-.883 2.085-1.507 3.565-1.859h.003a13.5 13.5 0 0 1 2.1-.341q.207 0 .407-.05a31 31 0 0 1 4.188.014q1.877.147 3.633.813c1.89.78 3.173 2.12 3.87 4.042q.618 1.792.729 3.686v.003a27.4 27.4 0 0 1-.112 4.834 11.4 11.4 0 0 1-.854 3.174c-.794 1.716-2.068 2.891-3.844 3.545a15.1 15.1 0 0 1-4.608.796h-.017a21 21 0 0 1-5.322-.401c-1.58-.353-2.827-1.003-3.77-1.935-.942-.931-1.606-2.17-1.976-3.744A18.6 18.6 0 0 1 1.505 12z"/>
<path fill="#FAFAFA" fill-rule="evenodd" d="M23 11.95h-.98l-1.395-3.488c-.903-2.257-1.443-3.528-1.539-3.61a.76.76 0 0 0-.65-.158c-.053.014-.1.026-.143.045-.297.135-.422.65-1.49 4.92-.63 2.536-1.17 4.636-1.19 4.663-.027.028-.527-1.408-1.122-3.193-.957-2.86-1.131-3.397-1.445-3.498-.08-.026-.167-.023-.278-.023-.205 0-.335.047-.452.157-.123.109-.642 1.415-1.9 4.766-.951 2.537-1.751 4.636-1.772 4.664-.027.027-.588-2.633-1.237-5.915-.657-3.282-1.231-6.06-1.279-6.182-.089-.232-.396-.43-.656-.43-.09 0-.253.061-.37.13-.191.116-.341.451-1.62 3.637L2.08 11.95H1.004v.04q-.013.718.025 1.43h1.79l.198-.192c.164-.144.424-.739 1.21-2.701.548-1.382 1.013-2.51 1.02-2.496.013.014.567 2.742 1.23 6.072s1.258 6.14 1.313 6.243a.8.8 0 0 0 .342.301c.212.082.28.089.485.007a.9.9 0 0 0 .363-.26c.061-.096.93-2.332 1.914-4.978.992-2.64 1.813-4.8 1.84-4.8.02 0 .526 1.47 1.121 3.261.595 1.798 1.142 3.378 1.21 3.515a.68.68 0 0 0 .766.376c.07-.013.128-.022.18-.044.317-.128.451-.7 1.557-5.119.664-2.638 1.21-4.786 1.217-4.779.013.012.391.954.882 2.175l.178.444c.807 2.038 1.074 2.64 1.238 2.783l.198.192h1.678q.04-.735.041-1.47" clip-rule="evenodd"/>
<defs>
<radialGradient id="a" cx="0" cy="0" r="1" gradientTransform="matrix(0 22 -22 0 12 1)" gradientUnits="userSpaceOnUse">
<stop stop-color="#779ACD"/>
<stop offset="1" stop-color="#11345F"/>
</radialGradient>
</defs>
</svg>
