<svg xmlns="http://www.w3.org/2000/svg" width="24" height="24" viewBox="0 0 6.35 6.35">
<defs>
<radialGradient id="a" cx="0" cy="0" r="1" fx="0" fy="0" gradientTransform="matrix(0 16.5 -16.5 0 9 .75)" gradientUnits="userSpaceOnUse" spreadMethod="pad">
<stop offset="0" style="stop-opacity:1;stop-color:#a4a4a4"/>
<stop offset="1" style="stop-opacity:1;stop-color:#626262"/>
</radialGradient>
</defs>
<g style="fill:none">
<path d="M7.195.836q.135 0 .258-.035a24 24 0 0 1 3.231.008 10.3 10.3 0 0 1 2.836.636q2.278.938 3.121 3.254.476 1.396.566 2.867a21 21 0 0 1-.086 3.696 9 9 0 0 1-.672 2.488q-.957 2.074-3.101 2.859a11.7 11.7 0 0 1-3.575.618 16 16 0 0 1-4.089-.309c-2.481-.551-4.016-2.066-4.594-4.543a14.2 14.2 0 0 1-.336-3.383q-.041-1.821.387-3.59.914-3.468 4.406-4.3A10 10 0 0 1 7.195.836" style="fill:url(#a);fill-rule:evenodd;stroke:none" transform="scale(.35277)"/>
</g>
<path d="M4.885 3.02a2.25 2.25 0 0 0-2.249 2.25 2.3 2.3 0 0 0 .15.806q.33.022.666.004.647-.01 1.26-.218a1.87 1.87 0 0 0 1.095-1.009q.181-.421.236-.878.033-.304.042-.607a2.25 2.25 0 0 0-1.2-.348" style="fill:#4fcf71;fill-opacity:1;fill-rule:evenodd;stroke-width:.12494;paint-order:fill markers stroke"/>
<path d="M4.495 3.676v1.327h-.531l.75.858a1.86 1.86 0 0 0 1.016-.858h-.44V3.676Z" style="fill:#fff;fill-opacity:1;stroke-width:.132683"/>
<g transform="translate(3.299 -.025)scale(.25926)">
<rect width="14.287" height="11.112" x="-7.621" y="6.788" fill="#2e2e2e" rx=".318" ry=".337"/>
<path fill="#585858" d="M-6.827 7.582h12.7v9.525h-12.7Z"/>
</g>
<path d="M4.855 2.995A2.236 2.236 0 0 0 2.618 5.23a2.2 2.2 0 0 0 .17.842q.33.022.66.004.649-.01 1.26-.218.758-.277 1.095-1.008.181-.422.237-.878a7 7 0 0 0 .042-.612 2.24 2.24 0 0 0-1.227-.366Z" style="fill:#64cc5f;fill-opacity:1;fill-rule:evenodd;stroke:none;stroke-width:.352771"/>
<path d="M3.923 4.11v.187a.187.187 0 0 0 .187.187 1.68 1.68 0 0 1 1.425.799q.126-.154.222-.34A2.05 2.05 0 0 0 4.11 4.11Zm0 .747v.187a.187.187 0 0 0 .187.186.93.93 0 0 1 .837.525q.172-.087.316-.203a1.3 1.3 0 0 0-1.153-.695Zm.373.746a.373.373 0 0 0-.339.434 4 4 0 0 0 .723-.169.37.37 0 0 0-.384-.265" style="fill:#fff;fill-rule:evenodd;stroke:none;stroke-width:.352771"/>
</svg>
