<svg xmlns="http://www.w3.org/2000/svg" width="24" height="24" fill="none">
<path fill="#fff" fill-rule="evenodd" d="M3.794 20.708q-1.719-1.55-2.343-4.206-.143-.645-.24-1.294h21.591a12 12 0 0 1-.869 3.126q-.651 1.41-1.715 2.374z" clip-rule="evenodd"/>
<path fill="url(#a)" fill-rule="evenodd" d="M11.983 1q-1.02 0-2.043.067-.165.048-.344.046-1.114.09-2.2.355-4.66 1.108-5.876 5.737a18.5 18.5 0 0 0-.515 4.786 19 19 0 0 0 .206 3.217h21.591l.025-.195q.162-1.457.173-2.917v-.38a28 28 0 0 0-.059-1.626 14.3 14.3 0 0 0-.756-3.824q-1.119-3.09-4.158-4.34a13.5 13.5 0 0 0-3.78-.847 32 32 0 0 0-2.212-.08zm8.235 19.708H3.794q1.485 1.338 3.786 1.85 2.137.44 4.31.442h.032q.555 0 1.11-.03a15.6 15.6 0 0 0 4.766-.823 7.3 7.3 0 0 0 2.42-1.439" clip-rule="evenodd"/>
<path fill="#fff" fill-rule="evenodd" d="M10.044 4.665A1.223 1.223 0 0 0 8.79 5.887v5.649c0 .939 1.02 1.526 1.835 1.056l4.89-2.822a1.224 1.224 0 0 0 0-2.118l-4.89-2.824a1.2 1.2 0 0 0-.582-.163Z" clip-rule="evenodd"/>
<path fill="#000" d="M20.249 17.498h-6.415a.459.459 0 1 0 0 .917h6.415a.459.459 0 1 0 0-.917" opacity=".25"/>
<path fill="#FFB32B" d="M12.916 17.498H3.75a.459.459 0 1 0 0 .917h9.166a.459.459 0 1 0 0-.917"/>
<path fill="#fff" d="M13.375 19.333a1.375 1.375 0 1 0 0-2.75 1.375 1.375 0 0 0 0 2.75"/>
<defs>
<linearGradient id="a" x1="12" x2="12" y1="1" y2="12" gradientUnits="userSpaceOnUse">
<stop stop-color="#FFD996"/>
<stop offset="1" stop-color="#FFB32B"/>
</linearGradient>
</defs>
</svg>
