<svg xmlns="http://www.w3.org/2000/svg" xml:space="preserve" width="24" height="24" viewBox="0 0 6.35 6.35">
<defs>
<radialGradient id="a" cx="0" cy="0" r="1" gradientTransform="rotate(90 1.455 1.72)scale(2.91036)" gradientUnits="userSpaceOnUse">
<stop stop-color="#6EBBF7"/>
<stop offset="1" stop-color="#2196F3"/>
</radialGradient>
</defs>
<path fill="url(#a)" fill-rule="evenodd" d="M2.539.295a.3.3 0 0 0 .09-.012 8 8 0 0 1 1.14.003 3.5 3.5 0 0 1 1 .224q.804.33 1.1 1.148.17.492.2 1.012a7.3 7.3 0 0 1-.03 1.302 3.1 3.1 0 0 1-.236.879 1.87 1.87 0 0 1-1.094 1.008 4.1 4.1 0 0 1-1.26.219 5.7 5.7 0 0 1-1.444-.11Q.693 5.676.385 4.366a5 5 0 0 1-.12-1.194 5 5 0 0 1 .137-1.266Q.724.682 1.957.39q.287-.071.582-.094z" clip-rule="evenodd" style="fill:url(#a);stroke-width:.264578"/>
<path d="M4.882 3.014a2.25 2.25 0 0 0-2.249 2.249 2.3 2.3 0 0 0 .152.81q.33.022.662.004.65-.01 1.262-.218.756-.277 1.094-1.008.181-.422.237-.878.034-.306.042-.613a2.25 2.25 0 0 0-1.2-.346" style="fill:#f9f9f9;fill-opacity:1;stroke-width:.531281;paint-order:markers stroke fill"/>
<path fill="#fff" d="M3.174 1.058q.292 0 .562.077.271.074.508.213.235.136.428.33.194.193.33.428.139.236.213.507.077.27.077.562 0 .291-.077.562-.074.27-.213.507-.136.236-.33.43-.193.193-.428.33-.237.138-.508.214-.27.074-.562.074-.29 0-.562-.074-.27-.076-.506-.213-.236-.138-.43-.33-.193-.195-.33-.43-.138-.237-.214-.506-.074-.27-.074-.564 0-.292.074-.562.076-.27.213-.507.138-.235.33-.428.195-.194.43-.33.236-.139.505-.213.27-.077.564-.077m1.673 1.323q-.078-.167-.19-.314-.111-.149-.248-.27-.137-.12-.296-.218-.16-.095-.333-.155.074.103.134.22.06.115.106.24.047.121.08.247t.058.25zm.18.794q0-.275-.076-.53H4.2q.015.133.023.265.008.13.008.265 0 .134-.008.266-.008.13-.025.263h.75q.078-.254.078-.53ZM3.174 5.028q.102 0 .188-.056.09-.056.164-.147.074-.09.132-.204.06-.116.105-.234.046-.118.077-.228.03-.11.047-.19H2.461q.017.08.048.19.03.11.076.228t.104.234q.06.113.134.204t.161.147q.09.056.19.056m.76-1.324q.015-.132.024-.263.01-.132.01-.266 0-.135-.01-.265-.009-.132-.025-.264H2.416q-.017.132-.027.264-.009.13-.009.265 0 .134.01.266.01.13.026.263zm-2.61-.53q0 .276.075.53h.75q-.016-.132-.025-.263-.008-.132-.008-.266 0-.135.008-.265.01-.132.025-.264H1.4q-.077.254-.077.53zm1.85-1.85q-.102 0-.19.056-.088.055-.162.146t-.135.207q-.057.114-.103.232-.045.117-.076.227-.03.11-.048.19h1.426q-.016-.08-.047-.19-.03-.11-.077-.227-.045-.118-.105-.232-.058-.116-.132-.207t-.164-.146q-.087-.056-.188-.056Zm-.606.101q-.174.06-.333.155t-.296.217-.248.27q-.11.148-.19.315h.688q.025-.124.058-.25t.08-.248q.046-.124.106-.24t.135-.219M1.502 3.97q.08.167.19.317.112.147.248.269.137.12.296.217.16.096.333.155-.075-.104-.135-.22t-.107-.237q-.046-.124-.079-.25-.033-.127-.058-.25Zm2.278.958q.174-.06.333-.155.16-.096.296-.217.137-.122.248-.27.112-.149.19-.316h-.688q-.025.124-.058.25-.033.127-.08.25-.046.123-.106.238-.06.116-.134.22Z" aria-label="" opacity=".35" style="paint-order:stroke fill markers"/>
<path d="M4.778 3.576a.42.42 0 0 0-.418.419.207.207 0 0 1-.209.206.2.2 0 0 1-.097-.027h-.002a.42.42 0 0 0-.572.154l-.11.179v.002a.42.42 0 0 0 .152.573.209.209 0 0 1 0 .363.42.42 0 0 0-.152.571l.036.063.041-.002q.1-.002.197-.008l-.091-.158a.206.206 0 0 1 .075-.284.42.42 0 0 0 0-.728.207.207 0 0 1-.075-.285l.108-.178.001-.002a.21.21 0 0 1 .286-.078.4.4 0 0 0 .202.056.42.42 0 0 0 .42-.414v-.002a.207.207 0 0 1 .209-.209h.206a.21.21 0 0 1 .21.216v.004a.42.42 0 0 0 .628.352.2.2 0 0 1 .15-.023 3 3 0 0 0 .043-.205.42.42 0 0 0-.297.045h-.002a.21.21 0 0 1-.284-.074.2.2 0 0 1-.028-.097.42.42 0 0 0-.42-.429H4.78zm.104 1.055a.633.633 0 0 0-.193 1.235l.02-.007q.489-.18.804-.55a.633.633 0 0 0-.63-.678zm0 .21a.42.42 0 0 1 .421.422.42.42 0 1 1-.843 0 .42.42 0 0 1 .422-.422" style="font-variant-ligatures:normal;font-variant-position:normal;font-variant-caps:normal;font-variant-numeric:normal;font-variant-alternates:normal;font-variant-east-asian:normal;font-feature-settings:normal;font-variation-settings:normal;text-indent:0;text-decoration-line:none;text-decoration-style:solid;text-decoration-color:#000;text-transform:none;text-orientation:mixed;white-space:normal;shape-padding:0;shape-margin:0;inline-size:0;isolation:auto;mix-blend-mode:normal;fill:#666;fill-opacity:1;stroke-width:.531281"/>
</svg>
