<svg xmlns="http://www.w3.org/2000/svg" xmlns:xlink="http://www.w3.org/1999/xlink" xml:space="preserve" width="24" height="24" fill="none">
<path fill="url(#a)" fill-rule="evenodd" d="M9.596 1.114q.18.001.344-.046a32 32 0 0 1 4.307.011q1.951.153 3.78.848 3.038 1.25 4.158 4.339.64 1.86.756 3.824a28 28 0 0 1-.114 4.923 11.9 11.9 0 0 1-.894 3.32q-1.276 2.764-4.135 3.813a15.6 15.6 0 0 1-4.765.825 21.4 21.4 0 0 1-5.453-.413q-4.967-1.106-6.128-6.056a19 19 0 0 1-.447-4.511 18.5 18.5 0 0 1 .515-4.786q1.217-4.629 5.877-5.736a14 14 0 0 1 2.199-.355" clip-rule="evenodd"/>
<defs>
<linearGradient id="h">
<stop offset="0" style="stop-color:#f8ab02;stop-opacity:1"/>
<stop offset="1" style="stop-color:#e77601;stop-opacity:1"/>
</linearGradient>
<linearGradient id="g">
<stop offset="0" style="stop-color:#7ee7ae;stop-opacity:.99607843"/>
<stop offset="1" style="stop-color:#31bf9f;stop-opacity:1"/>
</linearGradient>
<linearGradient id="e">
<stop offset="0" style="stop-color:#332700;stop-opacity:1"/>
<stop offset="1" style="stop-color:#321b01;stop-opacity:1"/>
</linearGradient>
<linearGradient id="f">
<stop offset="0" style="stop-color:#ffe799;stop-opacity:1"/>
<stop offset="1" style="stop-color:#fece9a;stop-opacity:1"/>
</linearGradient>
<linearGradient id="d">
<stop offset="0" style="stop-color:#000;stop-opacity:.15000001"/>
<stop offset="1" style="stop-color:#000;stop-opacity:.5"/>
</linearGradient>
<linearGradient id="c">
<stop offset="0" style="stop-color:#f8f3ea;stop-opacity:1"/>
<stop offset="1" style="stop-color:#f8f3ed;stop-opacity:1"/>
</linearGradient>
<linearGradient id="b">
<stop offset="0" style="stop-color:#3cdb84;stop-opacity:.99607843"/>
<stop offset="1" style="stop-color:#31bf9f;stop-opacity:1"/>
</linearGradient>
<linearGradient xlink:href="#b" id="i" x1="78.129" x2="78.129" y1="2.755" y2="10.911" gradientTransform="translate(-56.85 2.505)scale(.87933)" gradientUnits="userSpaceOnUse"/>
<linearGradient xlink:href="#c" id="m" x1="70.729" x2="85.867" y1="14.397" y2="14.397" gradientTransform="translate(-56.87 2.505)scale(.87933)" gradientUnits="userSpaceOnUse"/>
<linearGradient xlink:href="#d" id="l" x1="70.729" x2="85.867" y1="14.397" y2="14.397" gradientTransform="translate(-57.473 2.588)scale(.88703)" gradientUnits="userSpaceOnUse"/>
<linearGradient xlink:href="#e" id="n" x1="69.262" x2="87.336" y1="15.323" y2="15.323" gradientTransform="translate(-56.85 2.505)scale(.87933)" gradientUnits="userSpaceOnUse"/>
<linearGradient xlink:href="#f" id="o" x1="69.262" x2="87.336" y1="15.323" y2="15.323" gradientTransform="translate(-56.85 2.505)scale(.87933)" gradientUnits="userSpaceOnUse"/>
<linearGradient xlink:href="#g" id="j" x1="78.129" x2="78.129" y1="2.755" y2="10.911" gradientTransform="translate(-56.85 2.505)scale(.87933)" gradientUnits="userSpaceOnUse"/>
<linearGradient xlink:href="#h" id="k" x1="69.262" x2="87.336" y1="15.522" y2="15.522" gradientTransform="translate(-56.85 2.34)scale(.87933)" gradientUnits="userSpaceOnUse"/>
<radialGradient id="a" cx="0" cy="0" r="1" gradientTransform="matrix(0 22 -22 0 12 1)" gradientUnits="userSpaceOnUse">
<stop stop-color="#FAFAFA"/>
<stop offset="1" stop-color="#CCC"/>
</radialGradient>
</defs>
<path d="M6.31 3.501a.63.63 0 0 0-.464 1.008l1.47 1.929a7.946 7.786 0 0 0-3.263 6.267A7.946 7.786 0 0 0 12 20.49a7.946 7.786 0 0 0 7.947-7.785 7.946 7.786 0 0 0-3.272-6.295l1.446-1.9a.626.626 0 0 0-.524-1.009.62.62 0 0 0-.474.247l-1.522 2-.008.013A7.946 7.786 0 0 0 12 4.918a7.946 7.786 0 0 0-3.61.869l-.024-.04-1.52-1.999a.63.63 0 0 0-.536-.247" style="fill:url(#i);fill-opacity:1;stroke-width:29.1;paint-order:stroke markers fill"/>
<path d="M6.31 3.501a.63.63 0 0 0-.586.713.626.626 0 0 1 .586-.534.63.63 0 0 1 .536.247l1.52 2c.01.012.015.026.024.039a7.946 7.786 0 0 1 3.61-.87 7.946 7.786 0 0 1 3.593.844l.009-.014 1.521-1.999a.624.624 0 0 1 .88-.119.63.63 0 0 1 .24.406.624.624 0 0 0-.646-.713.62.62 0 0 0-.474.247l-1.522 2-.008.013A7.946 7.786 0 0 0 12 4.918a7.946 7.786 0 0 0-3.61.869l-.024-.04-1.52-1.999a.63.63 0 0 0-.536-.247m10.449 2.978-.084.11a7.946 7.786 0 0 1 3.265 6.203 7.946 7.786 0 0 0 .007-.087 7.946 7.786 0 0 0-3.188-6.226m-9.527.028a7.946 7.786 0 0 0-3.179 6.198 7.946 7.786 0 0 0 .007.087 7.946 7.786 0 0 1 3.256-6.176z" style="fill:url(#j);fill-opacity:1;stroke-width:29.1;paint-order:stroke markers fill"/>
<path d="M4.161 11.478q-.104.614-.108 1.237c0 4.3 3.558 7.785 7.947 7.785 4.388 0 7.946-3.485 7.947-7.785a7.6 7.6 0 0 0-.102-1.226c-2.55.437-4.427.739-5.896.887-1.721.174-2.487.173-4.082 0-1.661-.18-3.938-.61-5.706-.898" style="fill:url(#k);stroke-width:29.1;paint-order:stroke markers fill"/>
<path d="m5.265 11.831 2.221 6.698c.133.411.576.481.915.142l3.581-3.853 3.578 3.853c.339.34.782.27.915-.142l2.219-6.686c-.989.166-1.871.308-2.656.423l-.771 2.819-2.13-2.46h-.205c-.775.054-1.384.056-2.114.003l-2.124 2.457-.77-2.812c-.891-.14-1.777-.291-2.659-.442" style="opacity:.5;fill:url(#l);fill-opacity:.488636;stroke-width:29.1;paint-order:stroke markers fill"/>
<path d="m5.324 11.667 2.201 6.64c.132.408.571.477.907.141l3.55-3.82 3.547 3.82c.336.336.775.267.907-.14l2.2-6.628c-.98.164-1.855.304-2.633.419l-.765 2.794-2.11-2.439h-.205c-.767.054-1.37.056-2.095.003l-2.106 2.436-.762-2.788a177 177 0 0 1-2.636-.438" style="fill:url(#m);stroke-width:29.1;paint-order:stroke markers fill"/>
<path d="M19.945 12.602c-.05 4.257-3.588 7.694-7.945 7.694-4.354 0-7.888-3.432-7.943-7.686l-.004.095c0 4.3 3.558 7.785 7.947 7.785 4.388 0 7.946-3.485 7.947-7.785z" style="opacity:.5;fill:url(#n);fill-opacity:.488636;stroke-width:29.1;paint-order:stroke markers fill"/>
<path d="M4.161 11.468q-.104.614-.108 1.237l.002.09a7.6 7.6 0 0 1 .107-1.152c1.767.287 4.044.719 5.705.899 1.595.172 2.361.174 4.082 0 1.47-.149 3.346-.45 5.896-.888q.093.561.1 1.132l.002-.081a7.6 7.6 0 0 0-.102-1.226c-2.55.437-4.427.739-5.896.887-1.72.174-2.487.173-4.082 0-1.661-.18-3.938-.61-5.705-.898Z" style="opacity:.5;fill:url(#o);fill-opacity:.488636;stroke-width:29.1;paint-order:stroke markers fill"/>
<path d="m5.324 11.667.06.183c.861.147 1.76.299 2.626.434l-.05-.179q-.455-.072-.906-.147-.868-.143-1.73-.29Zm13.31.016c-.98.165-1.854.305-2.632.419l-.05.182c.775-.113 1.643-.252 2.62-.416zm-5.691.771a18 18 0 0 1-.569.031c-.333.013-.646.015-.968.003l-.024-.001-.246-.012-.237-.014-.07-.004-.141.162c.896.072 1.584.068 2.57-.014l-.13-.151z" style="fill:#fff;stroke-width:29.1;paint-order:stroke markers fill"/>
</svg>
