<svg xmlns="http://www.w3.org/2000/svg" xmlns:xlink="http://www.w3.org/1999/xlink" xml:space="preserve" width="24" height="24">
<defs>
<clipPath id="p" clipPathUnits="userSpaceOnUse">
<path d="M5.273 12.059h.219c.098 0 .176.082.176.179v.727a.176.176 0 0 1-.176.176h-.219a.18.18 0 0 1-.179-.176v-.727c0-.097.082-.179.179-.179"/>
</clipPath>
<clipPath id="b" clipPathUnits="userSpaceOnUse">
<path d="M-97.54 25.423h11.346v22.691h-11.345z"/>
</clipPath>
<clipPath id="s" clipPathUnits="userSpaceOnUse">
<path d="M6.09 12.059h.219c.097 0 .175.082.175.179v.727a.175.175 0 0 1-.175.176H6.09a.177.177 0 0 1-.18-.176v-.727c0-.097.078-.179.18-.179"/>
</clipPath>
<clipPath id="d" clipPathUnits="userSpaceOnUse">
<path d="M-106.797 25.423h22.691v22.691h-22.69Z"/>
</clipPath>
<clipPath id="v" clipPathUnits="userSpaceOnUse">
<path d="M6.906 12.059h.219c.098 0 .176.082.176.179v.727a.176.176 0 0 1-.176.176h-.219a.176.176 0 0 1-.179-.176v-.727c0-.097.078-.179.179-.179"/>
</clipPath>
<clipPath id="e" clipPathUnits="userSpaceOnUse">
<path d="M-104.709 25.423h22.691v22.691h-22.69Z"/>
</clipPath>
<clipPath id="y" clipPathUnits="userSpaceOnUse">
<path d="M7.719 12.059h.222c.098 0 .176.082.176.179v.727a.176.176 0 0 1-.176.176h-.222a.176.176 0 0 1-.176-.176v-.727c0-.097.078-.179.176-.179"/>
</clipPath>
<clipPath id="f" clipPathUnits="userSpaceOnUse">
<path d="M-102.62 25.423h22.69v22.691h-22.69Z"/>
</clipPath>
<clipPath id="B" clipPathUnits="userSpaceOnUse">
<path d="M8.492 12.059a.13.13 0 0 1 .129.132v.817a.13.13 0 0 1-.129.133.13.13 0 0 1-.133-.133v-.817c0-.074.059-.132.133-.132"/>
</clipPath>
<clipPath id="g" clipPathUnits="userSpaceOnUse">
<path d="M-105.318 25.423h24.693v22.691h-24.693z"/>
</clipPath>
<clipPath id="I" clipPathUnits="userSpaceOnUse">
<path d="M5.273 12.059h.219c.098 0 .176.082.176.179v.727a.176.176 0 0 1-.176.176h-.219a.18.18 0 0 1-.179-.176v-.727c0-.097.082-.179.179-.179"/>
</clipPath>
<clipPath id="h" clipPathUnits="userSpaceOnUse">
<path d="M-97.54 25.423h11.346v22.691h-11.345z"/>
</clipPath>
<clipPath id="L" clipPathUnits="userSpaceOnUse">
<path d="M6.09 12.059h.219c.097 0 .175.082.175.179v.727a.175.175 0 0 1-.175.176H6.09a.177.177 0 0 1-.18-.176v-.727c0-.097.078-.179.18-.179"/>
</clipPath>
<clipPath id="i" clipPathUnits="userSpaceOnUse">
<path d="M-106.797 25.423h22.691v22.691h-22.69Z"/>
</clipPath>
<clipPath id="O" clipPathUnits="userSpaceOnUse">
<path d="M6.906 12.059h.219c.098 0 .176.082.176.179v.727a.176.176 0 0 1-.176.176h-.219a.176.176 0 0 1-.179-.176v-.727c0-.097.078-.179.179-.179"/>
</clipPath>
<clipPath id="j" clipPathUnits="userSpaceOnUse">
<path d="M-104.709 25.423h22.691v22.691h-22.69Z"/>
</clipPath>
<clipPath id="R" clipPathUnits="userSpaceOnUse">
<path d="M7.719 12.059h.222c.098 0 .176.082.176.179v.727a.176.176 0 0 1-.176.176h-.222a.176.176 0 0 1-.176-.176v-.727c0-.097.078-.179.176-.179"/>
</clipPath>
<clipPath id="k" clipPathUnits="userSpaceOnUse">
<path d="M-102.62 25.423h22.69v22.691h-22.69Z"/>
</clipPath>
<clipPath id="U" clipPathUnits="userSpaceOnUse">
<path d="M8.492 12.059a.13.13 0 0 1 .129.132v.817a.13.13 0 0 1-.129.133.13.13 0 0 1-.133-.133v-.817c0-.074.059-.132.133-.132"/>
</clipPath>
<clipPath id="l" clipPathUnits="userSpaceOnUse">
<path d="M-105.318 25.423h24.693v22.691h-24.693z"/>
</clipPath>
<clipPath id="X" clipPathUnits="userSpaceOnUse">
<path d="M7.195.836q.135 0 .258-.035a24 24 0 0 1 3.231.008 10.3 10.3 0 0 1 2.836.636q2.278.938 3.121 3.254.476 1.396.566 2.867a21 21 0 0 1-.086 3.696 9 9 0 0 1-.672 2.488q-.957 2.074-3.101 2.859a11.7 11.7 0 0 1-3.575.618 16 16 0 0 1-4.089-.309c-2.481-.551-4.016-2.066-4.594-4.543a14.2 14.2 0 0 1-.336-3.383q-.041-1.821.387-3.59.914-3.468 4.406-4.3A10 10 0 0 1 7.195.836" clip-rule="evenodd"/>
</clipPath>
<clipPath id="m" clipPathUnits="userSpaceOnUse">
<path d="M-.045-.545h1.09v1.09h-1.09z"/>
</clipPath>
<linearGradient id="o">
<stop offset="0" style="stop-color:#f8e57d;stop-opacity:1"/>
<stop offset="1" style="stop-color:#f9a228;stop-opacity:1"/>
</linearGradient>
<linearGradient id="c" x1="-91.306" x2="-91.306" y1="36.522" y2="26.407" gradientUnits="userSpaceOnUse" spreadMethod="pad">
<stop offset="0" style="stop-opacity:1;stop-color:#fff"/>
<stop offset="1" style="stop-opacity:0;stop-color:#fff"/>
</linearGradient>
<linearGradient id="a" x1="-91.306" x2="-91.306" y1="36.522" y2="26.407" gradientUnits="userSpaceOnUse" spreadMethod="pad">
<stop offset="0" style="stop-opacity:1;stop-color:#fff355"/>
<stop offset="1" style="stop-opacity:1;stop-color:#a49a00"/>
</linearGradient>
<linearGradient xlink:href="#a" id="D" x1="-91.306" x2="-91.306" y1="36.522" y2="26.407" gradientUnits="userSpaceOnUse" spreadMethod="pad"/>
<linearGradient xlink:href="#a" id="r" x1="-91.306" x2="-91.306" y1="36.522" y2="26.407" gradientUnits="userSpaceOnUse" spreadMethod="pad"/>
<linearGradient xlink:href="#a" id="u" x1="-91.306" x2="-91.306" y1="36.522" y2="26.407" gradientUnits="userSpaceOnUse" spreadMethod="pad"/>
<linearGradient xlink:href="#a" id="x" x1="-91.306" x2="-91.306" y1="36.522" y2="26.407" gradientUnits="userSpaceOnUse" spreadMethod="pad"/>
<linearGradient xlink:href="#a" id="A" x1="-91.306" x2="-91.306" y1="36.522" y2="26.407" gradientUnits="userSpaceOnUse" spreadMethod="pad"/>
<linearGradient xlink:href="#a" id="W" x1="-91.306" x2="-91.306" y1="36.522" y2="26.407" gradientUnits="userSpaceOnUse" spreadMethod="pad"/>
<linearGradient xlink:href="#a" id="K" x1="-91.306" x2="-91.306" y1="36.522" y2="26.407" gradientUnits="userSpaceOnUse" spreadMethod="pad"/>
<linearGradient xlink:href="#a" id="N" x1="-91.306" x2="-91.306" y1="36.522" y2="26.407" gradientUnits="userSpaceOnUse" spreadMethod="pad"/>
<linearGradient xlink:href="#a" id="Q" x1="-91.306" x2="-91.306" y1="36.522" y2="26.407" gradientUnits="userSpaceOnUse" spreadMethod="pad"/>
<linearGradient xlink:href="#a" id="T" x1="-91.306" x2="-91.306" y1="36.522" y2="26.407" gradientUnits="userSpaceOnUse" spreadMethod="pad"/>
<mask id="q" width="1" height="1" x="0" y="0" maskUnits="userSpaceOnUse">
<g clip-path="url(#b)">
<path d="M-97.54 25.423h11.346v22.691h-11.345z" style="fill:url(#c);stroke:none"/>
</g>
</mask>
<mask id="t" width="1" height="1" x="0" y="0" maskUnits="userSpaceOnUse">
<g clip-path="url(#d)">
<path d="M-106.797 25.423h22.691v22.691h-22.69Z" style="fill:url(#c);stroke:none"/>
</g>
</mask>
<mask id="w" width="1" height="1" x="0" y="0" maskUnits="userSpaceOnUse">
<g clip-path="url(#e)">
<path d="M-104.709 25.423h22.691v22.691h-22.69Z" style="fill:url(#c);stroke:none"/>
</g>
</mask>
<mask id="z" width="1" height="1" x="0" y="0" maskUnits="userSpaceOnUse">
<g clip-path="url(#f)">
<path d="M-102.62 25.423h22.69v22.691h-22.69Z" style="fill:url(#c);stroke:none"/>
</g>
</mask>
<mask id="C" width="1" height="1" x="0" y="0" maskUnits="userSpaceOnUse">
<g clip-path="url(#g)">
<path d="M-105.318 25.423h24.693v22.691h-24.693z" style="fill:url(#c);stroke:none"/>
</g>
</mask>
<mask id="J" width="1" height="1" x="0" y="0" maskUnits="userSpaceOnUse">
<g clip-path="url(#h)">
<path d="M-97.54 25.423h11.346v22.691h-11.345z" style="fill:url(#c);stroke:none"/>
</g>
</mask>
<mask id="M" width="1" height="1" x="0" y="0" maskUnits="userSpaceOnUse">
<g clip-path="url(#i)">
<path d="M-106.797 25.423h22.691v22.691h-22.69Z" style="fill:url(#c);stroke:none"/>
</g>
</mask>
<mask id="P" width="1" height="1" x="0" y="0" maskUnits="userSpaceOnUse">
<g clip-path="url(#j)">
<path d="M-104.709 25.423h22.691v22.691h-22.69Z" style="fill:url(#c);stroke:none"/>
</g>
</mask>
<mask id="S" width="1" height="1" x="0" y="0" maskUnits="userSpaceOnUse">
<g clip-path="url(#k)">
<path d="M-102.62 25.423h22.69v22.691h-22.69Z" style="fill:url(#c);stroke:none"/>
</g>
</mask>
<mask id="V" width="1" height="1" x="0" y="0" maskUnits="userSpaceOnUse">
<g clip-path="url(#l)">
<path d="M-105.318 25.423h24.693v22.691h-24.693z" style="fill:url(#c);stroke:none"/>
</g>
</mask>
<mask id="Y" width="1" height="1" x="0" y="0" maskUnits="userSpaceOnUse">
<g clip-path="url(#m)">
<path d="M-.045-.545h1.09v1.09h-1.09z" style="fill:url(#n);stroke:none"/>
</g>
</mask>
<radialGradient id="n" cx="0" cy="0" r="1" fx="0" fy="0" gradientUnits="userSpaceOnUse" spreadMethod="pad">
<stop offset="0" style="stop-opacity:1;stop-color:#fff"/>
<stop offset="1" style="stop-opacity:.81176471;stop-color:#fff"/>
</radialGradient>
<radialGradient id="Z" cx="0" cy="0" r="1" fx="0" fy="0" gradientUnits="userSpaceOnUse" spreadMethod="pad">
<stop offset="0" style="stop-opacity:1;stop-color:#f8ed85"/>
<stop offset="1" style="stop-opacity:1;stop-color:#fab02c"/>
</radialGradient>
<radialGradient xlink:href="#o" id="E" cx="9.079" cy="6.851" r="8.25" fx="9.079" fy="2.809" gradientTransform="matrix(1.14562 0 0 1.38142 -1.308 -4.544)" gradientUnits="userSpaceOnUse"/>
<radialGradient xlink:href="#o" id="H" cx="9.079" cy="6.851" r="8.25" fx="9.079" fy="2.809" gradientTransform="matrix(1.14562 0 0 1.38142 -1.308 -4.544)" gradientUnits="userSpaceOnUse"/>
<radialGradient xlink:href="#o" id="G" cx="9.079" cy="6.851" r="8.25" fx="9.079" fy="2.809" gradientTransform="matrix(1.14562 0 0 1.38142 -1.308 -4.544)" gradientUnits="userSpaceOnUse"/>
<radialGradient xlink:href="#o" id="F" cx="9.079" cy="6.851" r="8.25" fx="9.079" fy="2.809" gradientTransform="matrix(1.14562 0 0 1.38142 -1.308 -4.544)" gradientUnits="userSpaceOnUse"/>
</defs>
<g clip-path="url(#p)" style="fill:none" transform="translate(48.849 -39.782)scale(1.33333)">
<g mask="url(#q)" transform="translate(13.597 9.76)scale(.08814)">
<path d="M5.273 12.059h.219c.098 0 .176.082.176.179v.727a.176.176 0 0 1-.176.176h-.219a.18.18 0 0 1-.179-.176v-.727c0-.097.082-.179.179-.179" style="fill:url(#r);stroke:none"/>
</g>
</g>
<g clip-path="url(#s)" style="fill:none" transform="translate(48.849 -39.782)scale(1.33333)">
<g mask="url(#t)" transform="translate(14.413 9.76)scale(.08814)">
<path d="M6.09 12.059h.219c.097 0 .175.082.175.179v.727a.175.175 0 0 1-.175.176H6.09a.177.177 0 0 1-.18-.176v-.727c0-.097.078-.179.18-.179" style="fill:url(#u);stroke:none"/>
</g>
</g>
<g clip-path="url(#v)" style="fill:none" transform="translate(48.849 -39.782)scale(1.33333)">
<g mask="url(#w)" transform="translate(15.23 9.76)scale(.08814)">
<path d="M6.906 12.059h.219c.098 0 .176.082.176.179v.727a.176.176 0 0 1-.176.176h-.219a.176.176 0 0 1-.179-.176v-.727c0-.097.078-.179.179-.179" style="fill:url(#x);stroke:none"/>
</g>
</g>
<g clip-path="url(#y)" style="fill:none" transform="translate(48.849 -39.782)scale(1.33333)">
<g mask="url(#z)" transform="translate(16.045 9.76)scale(.08814)">
<path d="M7.719 12.059h.222c.098 0 .176.082.176.179v.727a.176.176 0 0 1-.176.176h-.222a.176.176 0 0 1-.176-.176v-.727c0-.097.078-.179.176-.179" style="fill:url(#A);stroke:none"/>
</g>
</g>
<g clip-path="url(#B)" style="fill:none" transform="translate(48.849 -39.782)scale(1.33333)">
<g mask="url(#C)" transform="matrix(.0405 0 0 .08814 12.265 9.76)">
<path d="M8.492 12.059a.13.13 0 0 1 .129.132v.817a.13.13 0 0 1-.129.133.13.13 0 0 1-.133-.133v-.817c0-.074.059-.132.133-.132" style="fill:url(#D);stroke:none"/>
</g>
</g>
<g style="fill:url(#E);fill-opacity:1">
<g style="fill:url(#F);fill-opacity:1" transform="scale(1.33333)">
<g style="fill:url(#G);fill-opacity:1">
<path d="M7.195.836q.135 0 .258-.035a24 24 0 0 1 3.231.008 10.3 10.3 0 0 1 2.836.636q2.278.938 3.121 3.254.476 1.396.566 2.867a21 21 0 0 1-.086 3.696 9 9 0 0 1-.672 2.488q-.957 2.074-3.101 2.859a11.7 11.7 0 0 1-3.575.618 16 16 0 0 1-4.089-.309c-2.481-.551-4.016-2.066-4.594-4.543a14.2 14.2 0 0 1-.336-3.383q-.041-1.821.387-3.59.914-3.468 4.406-4.3A10 10 0 0 1 7.195.836" style="fill:url(#H);fill-opacity:1;fill-rule:evenodd;stroke:none"/>
</g>
</g>
</g>
<path fill="#fff" d="M17.95 4.5q.462 0 .517.698l-.259 2.195h.096l.204-.163h.054v.05q-.421.307-.817 1.69-.15 1.186-.504 2.193-.314 1.04-.314 1.918l-.395 1.154q0 .146.45.292-.082.34-.246.341v.065h.096v.05q0 .178-.464.178l.055.065v.227h-.096q.096.342.41.342v.113h-.41v.066q.204 0 .205.292l-.572.227.054.066v.048q0 .114-.204.114v.065q.258 0 .259.114-.369.146-.968 1.446-.613 1.155-1.063 1.154h-.11q-.34-.26-.558-1.723-.873-2.226-.872-2.616 0-1.008-.559-2.145-.15-.504-.205-1.268l-.245-.065q-.927 1.674-.967 2.617-.26.552-.41 1.332.56.18.56.342v.064q-.437-.064-.614-.243-.19.438-.504 2.437-.245.927-.614.927a3.93 3.93 0 0 1-1.73-1.333q-.11 0-.355-.926-.15-.001-.204-.926-.518-1.317-.71-3.007v-1.69h-.053l-.246.065v-.065q0-.114.246-.114l-.055-.975v-.764l-.395-2.438v-1.04q.258-.975.9-.975s.037-.002.163.163l-.163-.049q.993 1.3 1.171 2.194h.464v.114h-.354v.13q.204.747.3.747h.108l.246-.065.054.066.055-.066.054.066v.048a.95.95 0 0 0-.368.536h-.04v.114h.095q.19 2.715.708 4.111l.205.163h.109q.204 0 .859-1.901a10 10 0 0 0 .613-1.511l-.055-.18q.423-.633.872-.633h.096q.285 0 .41.357.38.537.612 1.61l.763 1.69q.15.178.15.405.424.96.763 1.268h.165q.285 0 .763-2.372.081 0 .45-1.268v-.065l-.86-.114-.204.065h-.259v-.13l.518-.048h1.009q.586-2.097 1.076-3.25.165-2.374.45-2.373zm-5.192 1.397h.15v.05q0 .113-.15.113l-.055.065v.065l-.15-.065v-.114zm-.764.635v.064q0 .131-.654.277v-.114l.3-.163.054.049h.041l.26-.113m-1.472.585v.048q-.286.26-.928.471v-.113q.11 0 .11-.18zm2.589.568.054.065v.05l-.095.129h-.054l-.11-.13V7.75zm1.881.065h.054v.05l-.095.129h-.055v-.065zm-.859.813.205.162q-.055.18-.3.179l-.11-.179q0-.081.205-.162m1.227.747.04.065v.05l-.04.064h-.11v-.065zm-1.936.585v.05l-.259.243h-.15v-.065q0-.147.41-.228m-1.786 4.973h.054v.114l-.408.244-.055-.065v-.114l.41-.179m-.15 1.512h.04l.164.179-.055.048h-.054l-.096-.162z" style="stroke-width:.347344"/>
<g clip-path="url(#I)" style="fill:none" transform="translate(-28.717 -4.302)scale(1.33333)">
<g mask="url(#J)" transform="translate(13.597 9.76)scale(.08814)">
<path d="M5.273 12.059h.219c.098 0 .176.082.176.179v.727a.176.176 0 0 1-.176.176h-.219a.18.18 0 0 1-.179-.176v-.727c0-.097.082-.179.179-.179" style="fill:url(#K);stroke:none"/>
</g>
</g>
<g clip-path="url(#L)" style="fill:none" transform="translate(-28.717 -4.302)scale(1.33333)">
<g mask="url(#M)" transform="translate(14.413 9.76)scale(.08814)">
<path d="M6.09 12.059h.219c.097 0 .175.082.175.179v.727a.175.175 0 0 1-.175.176H6.09a.177.177 0 0 1-.18-.176v-.727c0-.097.078-.179.18-.179" style="fill:url(#N);stroke:none"/>
</g>
</g>
<g clip-path="url(#O)" style="fill:none" transform="translate(-28.717 -4.302)scale(1.33333)">
<g mask="url(#P)" transform="translate(15.23 9.76)scale(.08814)">
<path d="M6.906 12.059h.219c.098 0 .176.082.176.179v.727a.176.176 0 0 1-.176.176h-.219a.176.176 0 0 1-.179-.176v-.727c0-.097.078-.179.179-.179" style="fill:url(#Q);stroke:none"/>
</g>
</g>
<g clip-path="url(#R)" style="fill:none" transform="translate(-28.717 -4.302)scale(1.33333)">
<g mask="url(#S)" transform="translate(16.045 9.76)scale(.08814)">
<path d="M7.719 12.059h.222c.098 0 .176.082.176.179v.727a.176.176 0 0 1-.176.176h-.222a.176.176 0 0 1-.176-.176v-.727c0-.097.078-.179.176-.179" style="fill:url(#T);stroke:none"/>
</g>
</g>
<g clip-path="url(#U)" style="fill:none" transform="translate(-28.717 -4.302)scale(1.33333)">
<g mask="url(#V)" transform="matrix(.0405 0 0 .08814 12.265 9.76)">
<path d="M8.492 12.059a.13.13 0 0 1 .129.132v.817a.13.13 0 0 1-.129.133.13.13 0 0 1-.133-.133v-.817c0-.074.059-.132.133-.132" style="fill:url(#W);stroke:none"/>
</g>
</g>
<g clip-path="url(#X)" transform="translate(34)scale(1.33333)">
<g mask="url(#Y)" transform="matrix(0 16.5 -16.5 0 9 .75)">
<path d="M7.195.836q.135 0 .258-.035a24 24 0 0 1 3.231.008 10.3 10.3 0 0 1 2.836.636q2.278.938 3.121 3.254.476 1.396.566 2.867a21 21 0 0 1-.086 3.696 9 9 0 0 1-.672 2.488q-.957 2.074-3.101 2.859a11.7 11.7 0 0 1-3.575.618 16 16 0 0 1-4.089-.309c-2.481-.551-4.016-2.066-4.594-4.543a14.2 14.2 0 0 1-.336-3.383q-.041-1.821.387-3.59.914-3.468 4.406-4.3A10 10 0 0 1 7.195.836" style="fill:url(#Z);fill-rule:evenodd;stroke:none"/>
</g>
</g>
</svg>
