<svg xmlns="http://www.w3.org/2000/svg" xml:space="preserve" width="24" height="24" viewBox="0 0 6.35 6.35">
<defs>
<linearGradient id="a" x1="12" x2="12" y1="1" y2="23" gradientTransform="scale(.75)" gradientUnits="userSpaceOnUse" spreadMethod="pad">
<stop offset="0" style="stop-opacity:1;stop-color:#4a74d2"/>
<stop offset="1" style="stop-opacity:1;stop-color:#375295"/>
</linearGradient>
</defs>
<path d="M7.195.836q.135 0 .258-.035a24 24 0 0 1 3.231.008 10.3 10.3 0 0 1 2.836.636q2.278.938 3.121 3.254.476 1.396.566 2.867a21 21 0 0 1-.086 3.696 9 9 0 0 1-.672 2.488q-.957 2.074-3.101 2.859a11.7 11.7 0 0 1-3.575.618 16 16 0 0 1-4.089-.309c-2.481-.551-4.016-2.066-4.594-4.543a14.2 14.2 0 0 1-.336-3.383q-.041-1.821.387-3.59.914-3.468 4.406-4.3A10 10 0 0 1 7.195.836" style="fill:url(#a);fill-rule:evenodd;stroke:none" transform="scale(.35277)"/>
<path d="M6.211 7.75h1.195v-.797c0-.621.09-1.047.235-1.355q.223-.456.816-.743c.398-.191.902-.293 1.508-.293.617 0 1.269.161 1.824.399l-.398 1.195a4 4 0 0 0-.899-.094c-.316 0-.543.071-.683.204-.137.129-.411.312-.411.691v.797h1.993v1.195H9.398v5.973H7.422l-.016-5.973H6.211" style="fill:none;stroke:#000;stroke-width:.375;stroke-linecap:round;stroke-linejoin:round;stroke-miterlimit:4;stroke-dasharray:none;stroke-opacity:.0782866" transform="scale(.35277)"/>
<path d="M6.211 7.75h1.195v-.797c0-.621.09-1.047.235-1.355q.223-.456.816-.743c.398-.191.902-.293 1.508-.293.617 0 1.269.161 1.824.399l-.398 1.195a4 4 0 0 0-.899-.094c-.316 0-.543.071-.683.204-.137.129-.411.312-.411.691v.797h1.993v1.195H9.398v5.973H7.422l-.016-5.973H6.211" style="fill:#f9f9f9;fill-opacity:1;fill-rule:nonzero;stroke:none" transform="scale(.35277)"/>
</svg>
