<svg xmlns="http://www.w3.org/2000/svg" width="24" height="24">
<defs>
<radialGradient id="a" cx="0" cy="0" r="1" gradientTransform="matrix(0 11 -11 0 12 1)" gradientUnits="userSpaceOnUse">
<stop stop-color="#777"/>
<stop offset="1" stop-color="#444"/>
</radialGradient>
</defs>
<path fill="url(#a)" fill-rule="evenodd" d="M9.596 1.114q.18.001.344-.046a32 32 0 0 1 4.307.011q1.951.153 3.78.847 3.038 1.25 4.158 4.34.64 1.86.756 3.824a28 28 0 0 1-.115 4.923 11.9 11.9 0 0 1-.893 3.32q-1.276 2.764-4.135 3.813a15.6 15.6 0 0 1-4.766.825 21.4 21.4 0 0 1-5.452-.413q-4.967-1.106-6.128-6.056a19 19 0 0 1-.447-4.511 18.5 18.5 0 0 1 .515-4.786q1.217-4.629 5.877-5.736a14 14 0 0 1 2.199-.355" clip-rule="evenodd" style="fill:url(#a);stroke-width:1"/>
<g stroke-width="3.78" transform="translate(-99.082 -125.542)scale(.26666)">
<g transform="translate(384.57 483.8)">
<path fill="#fff" d="M2.003 18.002v35.997a.995.995 0 0 0 .998 1.002h58.002a1 1 0 0 0 .998-1.002V17.998H2.004Z" style="paint-order:markers stroke fill"/>
<path d="M2.003 18.002v35.997a.995.995 0 0 0 .998 1.002h58.002a1 1 0 0 0 .998-1.002V17.998h-.998v35.044c0 .53-.435.956-.968.956H3.968a.96.96 0 0 1-.967-.956V17.998H1.999Z" opacity=".1" style="paint-order:markers stroke fill"/>
<path fill="#666" d="M3.001 9a1 1 0 0 0-1.002 1v7.998H62v-7.997a1 1 0 0 0-.997-1.002Z" style="paint-order:stroke markers fill"/>
<rect width="3.001" height="3.001" x="56.002" y="12" opacity=".35" ry="1.5" style="paint-order:stroke markers fill"/>
<rect width="3.001" height="3.001" x="50" y="12" opacity=".35" ry="1.5" style="paint-order:stroke markers fill"/>
<rect width="3.001" height="3.001" x="44.002" y="12" opacity=".35" ry="1.5" style="paint-order:stroke markers fill"/>
<path d="M62.001 42.294a36.3 36.3 0 0 1-12.828 12.707h11.83a1 1 0 0 0 .998-1.002z" opacity=".05" style="paint-order:markers stroke fill"/>
</g>
<path d="M404.57 514.8v17.511c0 .27.221.487.499.487h29c.276 0 .5-.218.499-.487l.002-17.512h-1v17h-28v-17h-1.002z" opacity=".1" style="paint-order:markers stroke fill"/>
<path fill="#666" d="M405.57 505.8a1.01 1.01 0 0 0-1.002 1.002v7.997h30v-7.997c.001-.553-.554-1.002-.998-1.002z" style="paint-order:stroke markers fill"/>
<rect width="3.001" height="3.001" x="428.57" y="508.8" opacity=".35" ry="1.5" style="paint-order:stroke markers fill"/>
<rect width="3.001" height="3.001" x="422.57" y="508.8" opacity=".35" ry="1.5" style="paint-order:stroke markers fill"/>
<rect width="3.001" height="3.001" x="416.57" y="508.8" opacity=".35" ry="1.5" style="paint-order:stroke markers fill"/>
</g>
</svg>
