<svg xmlns="http://www.w3.org/2000/svg" xmlns:xlink="http://www.w3.org/1999/xlink" xml:space="preserve" width="24" height="24" fill="none">
<defs>
<linearGradient id="a">
<stop offset="0" style="stop-color:#7b0619;stop-opacity:1"/>
<stop offset="1" style="stop-color:#c83737;stop-opacity:1"/>
</linearGradient>
<linearGradient xlink:href="#a" id="b" x1="54.858" x2="52.813" y1="86.307" y2="1.676" gradientTransform="translate(-.222 -.222)scale(.24444)" gradientUnits="userSpaceOnUse"/>
<radialGradient id="c" cx="0" cy="0" r="1" gradientTransform="matrix(0 19.98333 -18.6489 0 12 2.008)" gradientUnits="userSpaceOnUse">
<stop stop-color="#6DD4FF"/>
<stop offset="1" stop-color="#0076D4"/>
</radialGradient>
</defs>
<path d="M12 1C2 1 1 6 1 12c0 8 3 11 11 11s11-3 11-11c0-6-1-11-11-11" style="font-variation-settings:normal;display:inline;opacity:1;vector-effect:none;fill:url(#b);fill-opacity:1;stroke-width:1.11627;stroke-linecap:butt;stroke-linejoin:miter;stroke-miterlimit:4;stroke-dasharray:none;stroke-dashoffset:0;stroke-opacity:1;-inkscape-stroke:none;stop-color:#000;stop-opacity:1"/>
<path fill="url(#c)" d="m18.358 5.188-6.812 1.057v5.3h6.812zm-7.72 1.201-4.996.728.006 4.429h4.99Zm-4.99 6.063v4.477l4.99.733v-5.21zm5.898.002v5.337l6.812 1.021v-6.358z" style="fill:url(#c);stroke-width:.908333"/>
<path d="M18.464 11.416a8.5 8.5 0 0 0-8.5 8.5 8.5 8.5 0 0 0 .567 3.049q1.252.081 2.515.016a15.6 15.6 0 0 0 4.764-.825q2.86-1.049 4.137-3.812a11.9 11.9 0 0 0 .892-3.32q.128-1.148.16-2.295a8.5 8.5 0 0 0-4.535-1.313" style="fill:#d94848;fill-opacity:1;fill-rule:evenodd;stroke-width:.472223;paint-order:fill markers stroke"/>
<path d="M18.496 16.316a3.594 3.594 0 0 0-3.594 3.6 3.6 3.6 0 0 0 1.254 2.725q.844-.185 1.672-.463.376-.138.725-.305l-.057.002a1.96 1.96 0 0 1-1.96-1.959 1.96 1.96 0 0 1 1.96-1.963v-.004a1.96 1.96 0 0 1 1.961 1.967 2 2 0 0 1-.164.783 7.2 7.2 0 0 0 1.553-2.09 3.59 3.59 0 0 0-3.35-2.293" style="fill:#fff;stroke-width:2.00803;paint-order:stroke markers fill"/>
<path d="M17.842 14.848v2.287h1.304v-2.287zm-2.469 1.023-.924.924 1.62 1.617.923-.924zm6.244 0L20 17.488l.924.924 1.58-1.58.017-.057zm-5.902 3.389-2.29.002v1.308h2.29zm5.56.002v.308q.105-.151.204-.308zm-5.207 2.156-1.486 1.486a15.5 15.5 0 0 0 2.283-.435l.127-.127z" style="fill:#fff;fill-opacity:1;stroke-width:2.00803;paint-order:stroke markers fill"/>
</svg>
