<svg xmlns="http://www.w3.org/2000/svg" xmlns:xlink="http://www.w3.org/1999/xlink" xml:space="preserve" width="24" height="24" fill="none">
<defs>
<linearGradient id="a">
<stop offset="0" style="stop-color:#298fc4;stop-opacity:1"/>
<stop offset="1" style="stop-color:#91cce1;stop-opacity:1"/>
</linearGradient>
<linearGradient xlink:href="#a" id="b" x1="52.978" x2="50.989" y1="96.007" y2="9.226" gradientTransform="translate(-.222 -.222)scale(.24444)" gradientUnits="userSpaceOnUse"/>
</defs>
<path d="M12 1C2 1 1 6 1 12c0 8 3 11 11 11s11-3 11-11c0-6-1-11-11-11" style="font-variation-settings:normal;display:inline;opacity:1;vector-effect:none;fill:url(#b);fill-opacity:1;stroke-width:1.11627;stroke-linecap:butt;stroke-linejoin:miter;stroke-miterlimit:4;stroke-dasharray:none;stroke-dashoffset:0;stroke-opacity:1;-inkscape-stroke:none;stop-color:#000;stop-opacity:1"/>
<path fill="#19536f" d="M15.92 7.53c-3.782.057-5.898 2.212-7.014 4.312-1.022 1.921-1.176 3.51-1.206 3.818H3.246q.154.416.346.811h4.425a.41.41 0 0 0 .394-.317.3.3 0 0 0 0-.05s.19-1.924 1.217-3.857c.96-1.802 2.665-3.545 5.707-3.817-1.81 3.624.09 7.813.09 7.813a.4.4 0 0 0 .051.05.41.41 0 0 0 .316.178h4.616q.192-.395.346-.811h-4.658c-.155-.347-1.906-4.35.192-7.509a.42.42 0 0 0 .038-.317.4.4 0 0 0-.089-.178.41.41 0 0 0-.317-.127z" style="stroke-width:.345751"/>
</svg>
