<svg xmlns="http://www.w3.org/2000/svg" width="24" height="24" fill="none">
<path d="M50 5C9.09 5 5 25.455 5 50c0 32.727 12.273 45 45 45s45-12.273 45-45c0-24.545-4.09-45-45-45" style="font-variation-settings:normal;display:inline;opacity:1;vector-effect:none;fill:#d2a25c;fill-opacity:1;stroke-width:4.56656;stroke-linecap:butt;stroke-linejoin:miter;stroke-miterlimit:4;stroke-dasharray:none;stroke-dashoffset:0;stroke-opacity:1;-inkscape-stroke:none;stop-color:#000;stop-opacity:1" transform="translate(-1 -1)scale(.26)"/>
<path d="M12 1.975C2.886 1.975 1.975 6.532 1.975 12c0 7.29 2.734 10.025 10.025 10.025 7.29 0 10.025-2.734 10.025-10.025 0-5.468-.911-10.025-10.025-10.025" style="font-variation-settings:normal;display:inline;opacity:1;vector-effect:none;fill:#fff;fill-opacity:1;stroke-width:1.01733;stroke-linecap:butt;stroke-linejoin:miter;stroke-miterlimit:4;stroke-dasharray:none;stroke-dashoffset:0;stroke-opacity:1;-inkscape-stroke:none;stop-color:#000;stop-opacity:1"/>
<g stroke-linejoin="bevel">
<path fill="#9ea7aa" d="M11.61 5a.78.78 0 0 0-.779.78.78.78 0 0 0 .333.638c-.57 1.723-1.615 4.54-2.671 5.597 0 0 1.559 2.338 1.559 3.896h3.896c0-1.558 1.56-3.896 1.56-3.896-1.057-1.056-2.1-3.87-2.67-5.597a.78.78 0 0 0 .331-.639.78.78 0 0 0-.78-.779v7.12a.78.78 0 1 1-.779 0V6.56Z"/>
<g stroke-width="6.2" transform="translate(4.294 1.854)scale(.38968)">
<rect width="10" height="5.926" x="14.775" y="38.074" fill="#384148" rx="0"/>
<path fill="#515d68" d="M14.775 36.074h10c.831 0 1.5.669 1.5 1.5s-.669 1.5-1.5 1.5h-10c-.831 0-1.5-.669-1.5-1.5s.669-1.5 1.5-1.5"/>
</g>
</g>
</svg>
