<svg xmlns="http://www.w3.org/2000/svg" width="24" height="24" viewBox="0 0 6.35 6.35">
<defs>
<radialGradient id="a" cx="0" cy="0" r="1" gradientTransform="rotate(90 1.455 1.72)scale(2.91036)" gradientUnits="userSpaceOnUse">
<stop stop-color="#777"/>
<stop offset="1" stop-color="#444"/>
</radialGradient>
</defs>
<path fill="url(#a)" fill-rule="evenodd" d="M2.539.295a.3.3 0 0 0 .09-.012 8 8 0 0 1 1.14.003 3.5 3.5 0 0 1 1 .224q.804.33 1.1 1.148.17.492.2 1.012a7.3 7.3 0 0 1-.03 1.302 3.1 3.1 0 0 1-.236.879 1.87 1.87 0 0 1-1.094 1.008 4.1 4.1 0 0 1-1.26.219 5.7 5.7 0 0 1-1.444-.11Q.693 5.676.385 4.366a5 5 0 0 1-.12-1.194 5 5 0 0 1 .137-1.266Q.724.682 1.957.39q.287-.071.582-.094Z" clip-rule="evenodd" style="fill:url(#a);stroke-width:.264578"/>
<g paint-order="markers stroke fill" transform="translate(.872 -77.234)scale(.27849)">
<rect width="13.758" height="10.054" x="1.587" y="283.506" fill="#638df5" rx=".265" ry=".265"/>
<g fill="#fff" stroke="#000" stroke-opacity=".039" transform="translate(0 5.82)">
<rect width="6.879" height="4.762" x="1.323" y="283.242" stroke-linecap="round" stroke-linejoin="round" stroke-opacity=".098" stroke-width=".265" rx=".265" ry=".265"/>
<rect width="6.879" height="4.762" x="1.323" y="283.242" stroke="none" rx=".265" ry=".265"/>
</g>
</g>
</svg>
