<svg xmlns="http://www.w3.org/2000/svg" width="24" height="24">
<defs>
<radialGradient id="a" cx="0" cy="0" r="1" gradientTransform="matrix(0 11 -11 0 12 1)" gradientUnits="userSpaceOnUse">
<stop stop-color="#777"/>
<stop offset="1" stop-color="#444"/>
</radialGradient>
<linearGradient id="b" x1="3.539" x2="20.461" y1="17.421" y2="17.421" gradientTransform="translate(0 -1.968)" gradientUnits="userSpaceOnUse" spreadMethod="pad">
<stop offset="0" style="stop-opacity:1;stop-color:#e0e0e0"/>
<stop offset=".134" style="stop-opacity:1;stop-color:#858585"/>
<stop offset=".845" style="stop-opacity:1;stop-color:#858585"/>
<stop offset="1" style="stop-opacity:1;stop-color:#dfdfdf"/>
</linearGradient>
</defs>
<path fill="url(#a)" fill-rule="evenodd" d="M9.596 1.114q.18.001.344-.046a32 32 0 0 1 4.307.011q1.951.153 3.78.848 3.038 1.25 4.158 4.339.64 1.86.756 3.824a28 28 0 0 1-.115 4.923 11.9 11.9 0 0 1-.893 3.32q-1.276 2.764-4.135 3.813a15.6 15.6 0 0 1-4.766.825 21.4 21.4 0 0 1-5.452-.412q-4.967-1.107-6.128-6.057a19 19 0 0 1-.447-4.511 18.5 18.5 0 0 1 .515-4.786q1.217-4.629 5.877-5.736a14 14 0 0 1 2.199-.355" clip-rule="evenodd" style="fill:url(#a)"/>
<path d="M4.104 14.043h15.792a.56.56 0 0 1 .563.562v1.692a.565.565 0 0 1-.563.568H4.104a.565.565 0 0 1-.563-.568v-1.692a.56.56 0 0 1 .563-.562" style="fill:url(#b);stroke:none;stroke-width:1.33333"/>
<path fill="#fff" d="M5.766 14.62a.85.85 0 0 0-.848.847.85.85 0 0 0 .848.848.85.85 0 0 0 .847-.848.85.85 0 0 0-.847-.848Zm0 .282a.565.565 0 0 1 .565.565.565.565 0 0 1-.565.565.565.565 0 0 1-.565-.565.565.565 0 0 1 .565-.565" style="stroke-width:.282555;paint-order:fill markers stroke"/>
<rect width="4.521" height="1.13" x="14.242" y="14.902" fill="#fff" rx=".283" ry=".283" style="stroke-width:.282555;paint-order:fill markers stroke"/>
<rect width="1.13" height="1.13" x="8.026" y="14.902" fill="#fff" rx=".283" ry=".283" style="stroke-width:.282555;paint-order:fill markers stroke"/>
<rect width="1.13" height="1.13" x="9.721" y="14.902" fill="#fff" rx=".283" ry=".283" style="stroke-width:.282555;paint-order:fill markers stroke"/>
<rect width="1.13" height="1.13" x="11.417" y="14.902" fill="#fff" rx=".283" ry=".283" style="stroke-width:.282555;paint-order:fill markers stroke"/>
</svg>
