<svg xmlns="http://www.w3.org/2000/svg" xml:space="preserve" width="24" height="24">
<defs>
<radialGradient id="a" cx="0" cy="0" r="1" gradientTransform="matrix(0 11 -11 0 12 1)" gradientUnits="userSpaceOnUse">
<stop stop-color="#777"/>
<stop offset="1" stop-color="#444"/>
</radialGradient>
<linearGradient id="b" x1="3.539" x2="20.461" y1="17.421" y2="17.421" gradientTransform="translate(-.176 -2.56)" gradientUnits="userSpaceOnUse" spreadMethod="pad">
<stop offset="0" style="stop-opacity:1;stop-color:#e0e0e0"/>
<stop offset=".134" style="stop-opacity:1;stop-color:#858585"/>
<stop offset=".845" style="stop-opacity:1;stop-color:#858585"/>
<stop offset="1" style="stop-opacity:1;stop-color:#dfdfdf"/>
</linearGradient>
</defs>
<path fill="url(#a)" fill-rule="evenodd" d="M9.596 1.114q.18.001.344-.046a32 32 0 0 1 4.307.011q1.951.153 3.78.848 3.038 1.25 4.158 4.339.64 1.86.756 3.824a28 28 0 0 1-.115 4.923 11.9 11.9 0 0 1-.893 3.32q-1.276 2.764-4.135 3.813a15.6 15.6 0 0 1-4.766.825 21.4 21.4 0 0 1-5.452-.412q-4.967-1.107-6.128-6.057a19 19 0 0 1-.447-4.511 18.5 18.5 0 0 1 .515-4.786q1.217-4.629 5.877-5.736a14 14 0 0 1 2.199-.355" clip-rule="evenodd" style="fill:url(#a)"/>
<path d="M3.928 13.45H19.72a.56.56 0 0 1 .563.564v1.691c0 .314-.25.568-.563.568H3.928a.565.565 0 0 1-.562-.568v-1.692a.56.56 0 0 1 .562-.562z" style="fill:url(#b);stroke:none;stroke-width:1.33333" transform="translate(.176 .592)"/>
<path d="M5.622 14.014a.845.845 0 1 0 0 1.692.843.843 0 0 0 .842-.844.847.847 0 0 0-.842-.848m0 .286a.56.56 0 0 1 .562.561.56.56 0 0 1-.562.563.564.564 0 0 1-.568-.563c0-.312.254-.56.568-.56zm8.738 0h3.948c.156 0 .287.124.287.28v.563c0 .157-.13.281-.287.281H14.36a.28.28 0 0 1-.28-.281v-.563a.28.28 0 0 1 .28-.28m-5.92 0h3.947a.28.28 0 0 1 .281.28v.563a.28.28 0 0 1-.28.281h-3.95a.28.28 0 0 1-.281-.281v-.563a.28.28 0 0 1 .281-.28z" style="fill:#fff;fill-opacity:1;fill-rule:nonzero;stroke:none;stroke-width:1.33333" transform="translate(.176 .592)"/>
</svg>
