<svg xmlns="http://www.w3.org/2000/svg" xmlns:xlink="http://www.w3.org/1999/xlink" xml:space="preserve" width="24" height="24">
<defs>
<linearGradient id="a">
<stop offset="0"/>
<stop offset="1" stop-color="#313131"/>
</linearGradient>
<linearGradient id="c">
<stop offset="0"/>
<stop offset="1" stop-opacity="0"/>
</linearGradient>
<radialGradient id="b" cx="0" cy="0" r="1" fx="0" fy="0" gradientTransform="matrix(0 22 -22 0 12 1)" gradientUnits="userSpaceOnUse" spreadMethod="pad">
<stop offset="0" style="stop-color:#d9d9d9;stop-opacity:1"/>
<stop offset="1" style="stop-color:#cacbcf;stop-opacity:1"/>
</radialGradient>
</defs>
<use xlink:href="#a" width="100%" height="100%" fill="#1a1a1a" fill-rule="evenodd" transform="translate(27 22)"/>
<path d="M9.593 1.115q.18 0 .344-.047a32 32 0 0 1 4.308.01 13.7 13.7 0 0 1 3.781.849c2.026.833 3.41 2.281 4.162 4.338.42 1.24.676 2.516.754 3.823a28.3 28.3 0 0 1-.114 4.928 12 12 0 0 1-.896 3.317q-1.276 2.766-4.135 3.812a15.6 15.6 0 0 1-4.767.824 21.3 21.3 0 0 1-5.452-.412c-3.308-.734-5.354-2.754-6.125-6.057a19 19 0 0 1-.448-4.51q-.055-2.429.516-4.787 1.218-4.625 5.875-5.734a14 14 0 0 1 2.197-.354" style="fill:url(#b);fill-rule:evenodd;stroke:none;stroke-width:1.33333"/>
<path d="M12 4.645a7.34 7.34 0 0 0-6.8 4.537A7.3 7.3 0 0 0 4.644 12a7.34 7.34 0 0 0 4.537 6.8 7.3 7.3 0 0 0 2.818.555 7.34 7.34 0 0 0 6.8-4.537A7.3 7.3 0 0 0 19.356 12a7.34 7.34 0 0 0-4.537-6.8A7.3 7.3 0 0 0 12 4.644Zm0 5.918c.381 0 .748.15 1.018.42A1.439 1.439 0 1 1 10.562 12a1.44 1.44 0 0 1 .887-1.328 1.4 1.4 0 0 1 .551-.11Z" style="fill:gray;fill-opacity:1;stroke-width:.919419"/>
<path fill="#fff" d="M12 14.084a2.084 2.084 0 1 0 0-4.169 2.084 2.084 0 0 0 0 4.17zm0-1.041a1.043 1.043 0 1 1 0-2.086 1.043 1.043 0 0 1 .002 2.086z" opacity=".35" style="stroke-width:.520868"/>
<path d="M1.201 15.11q.1.698.252 1.39c.77 3.303 2.817 5.322 6.125 6.057q1.872.383 3.766.433v-3.037c-3.701-.199-5.986-1.902-7.117-4.844Z" style="fill:#949496;fill-opacity:1;stroke-width:.465671"/>
<path fill="#fff" d="m8.641 20.971 2.371-5.372a.35.35 0 0 0 .023-.24.35.35 0 0 0-.434-.243.36.36 0 0 0-.2.14l-3.579 4.69a1.04 1.04 0 0 0-.201.924c.15.558.732.886 1.301.733a1.07 1.07 0 0 0 .72-.632z" style="stroke-width:.245732"/>
<rect width=".246" height="1.72" x="-14.785" y="20.074" fill-rule="evenodd" opacity=".15" rx=".123" style="stroke-width:.245732" transform="scale(-1 1)"/>
<rect width=".246" height="1.72" x="-14.293" y="20.074" fill-rule="evenodd" opacity=".15" rx=".123" style="stroke-width:.245732" transform="scale(-1 1)"/>
<rect width=".246" height="1.72" x="-13.802" y="20.074" fill-rule="evenodd" opacity=".15" rx=".123" style="stroke-width:.245732" transform="scale(-1 1)"/>
<rect width=".246" height="1.72" x="-13.31" y="20.074" fill-rule="evenodd" opacity=".15" rx=".123" style="stroke-width:.245732" transform="scale(-1 1)"/>
<rect width=".246" height="1.72" x="-12.819" y="20.074" fill-rule="evenodd" opacity=".15" rx=".123" style="stroke-width:.245732" transform="scale(-1 1)"/>
<path d="M16.505 20.934a.369.369 0 1 0-.737 0 .369.369 0 0 0 .737 0m-8.355-.368a.491.491 0 1 1-.983 0 .491.491 0 0 1 .983 0" opacity=".15" style="stroke-width:.245732"/>
<path d="M7.904 20.566a.246.246 0 1 0-.491 0 .246.246 0 0 0 .491 0" opacity=".35" style="stroke-width:.245732"/>
<use xlink:href="#c" width="100%" height="100%" fill="#fff" fill-rule="evenodd" opacity=".5" transform="matrix(1.6 0 0 1.6 -2.023 31.604)"/>
<path d="M18.467 11.393a8.5 8.5 0 0 0-8.5 8.5 8.5 8.5 0 0 0 .574 3.065 21 21 0 0 0 2.502.013 15.6 15.6 0 0 0 4.768-.824q2.859-1.046 4.134-3.81.688-1.593.897-3.319.127-1.157.158-2.314a8.5 8.5 0 0 0-4.533-1.31z" style="fill:#ff8080;fill-opacity:1;stroke-width:2.00803;paint-order:markers stroke fill"/>
<rect width="1.001" height="6.008" x="17.536" y="13.807" fill="#fff" rx=".501" ry=".501" style="stroke-width:.500703;stroke-linecap:square;paint-order:stroke fill markers"/>
<circle cx="18.036" cy="21.111" r=".501" fill="#fff" style="stroke-width:.500703;stroke-linecap:square;paint-order:stroke fill markers"/>
</svg>
