<svg xmlns="http://www.w3.org/2000/svg" xml:space="preserve" width="24" height="24" fill="none">
<path fill="url(#a)" fill-rule="evenodd" d="M9.596 1.114q.18.001.344-.046a32 32 0 0 1 4.307.011q1.951.153 3.78.848 3.038 1.25 4.158 4.339.64 1.86.756 3.824a28 28 0 0 1-.115 4.923 11.9 11.9 0 0 1-.893 3.32q-1.276 2.764-4.135 3.813a15.6 15.6 0 0 1-4.766.825 21.4 21.4 0 0 1-5.452-.412q-4.967-1.107-6.128-6.057a19 19 0 0 1-.447-4.511 18.5 18.5 0 0 1 .515-4.786q1.217-4.629 5.877-5.736a14 14 0 0 1 2.199-.355" clip-rule="evenodd" style="fill:url(#a)"/>
<path fill="#fafafa" d="M18.669 17.143H9.385a.65.65 0 0 0-.665.637c0 .352.298.637.665.637h9.284a.65.65 0 0 0 .664-.637.65.65 0 0 0-.664-.637M5.413 5.588a.7.7 0 0 0-.377.062.65.65 0 0 0-.364.487.6.6 0 0 0 .132.472q.082.1.196.164l7.125 3.948L5 14.67a.65.65 0 0 0-.31.387.6.6 0 0 0 .067.484.68.68 0 0 0 .907.234l8.04-4.458a.64.64 0 0 0 .235-.23.6.6 0 0 0 .084-.312c.005-.02.003-.036.005-.053q.001-.028-.005-.055a.6.6 0 0 0-.085-.31.64.64 0 0 0-.233-.23l-8.04-4.46a.7.7 0 0 0-.252-.08Z"/>
<defs>
<linearGradient id="a" x1="12" x2="12" y1="1" y2="12" gradientUnits="userSpaceOnUse">
<stop stop-color="#7DB9FF"/>
<stop offset="1" stop-color="#197CF1" style="stop-color:#2569bb;stop-opacity:.90196079"/>
</linearGradient>
</defs>
</svg>
