<svg xmlns="http://www.w3.org/2000/svg" width="24" height="24">
<defs>
<linearGradient id="a" x1="12" x2="12" y1="1" y2="23" gradientTransform="scale(.75)" gradientUnits="userSpaceOnUse" spreadMethod="pad">
<stop offset="0" style="stop-opacity:1;stop-color:#ff5f5f"/>
<stop offset="1" style="stop-opacity:1;stop-color:#e82e34"/>
</linearGradient>
</defs>
<path d="M7.195.836q.135 0 .258-.035a24 24 0 0 1 3.231.008 10.3 10.3 0 0 1 2.836.636q2.278.938 3.121 3.254.476 1.396.566 2.867a21 21 0 0 1-.086 3.696 9 9 0 0 1-.672 2.488q-.957 2.074-3.101 2.859a11.7 11.7 0 0 1-3.575.618 16 16 0 0 1-4.089-.309c-2.481-.551-4.016-2.066-4.594-4.543a14.2 14.2 0 0 1-.336-3.383q-.041-1.821.387-3.59.914-3.468 4.406-4.3A10 10 0 0 1 7.195.836" style="fill:url(#a);fill-rule:evenodd;stroke:none" transform="scale(1.33333)"/>
<path fill="#fff" d="M11.963 4.5A7.5 7.5 0 0 0 4.5 12a7.5 7.5 0 0 0 7.5 7.5 7.5 7.5 0 0 0 7.5-7.5A7.5 7.5 0 0 0 12 4.5zm-1.738 3.608q.217.012.407.144l4.672 3.22q.221.155.306.408.085.255 0 .51a.8.8 0 0 1-.308.408l-4.67 3.22a.78.78 0 0 1-.555.137.78.78 0 0 1-.505-.267.78.78 0 0 1-.204-.534V8.917a.78.78 0 0 1 .204-.536.78.78 0 0 1 .505-.266 1 1 0 0 1 .148-.006z" style="stroke-width:.416666"/>
</svg>
