<svg xmlns="http://www.w3.org/2000/svg" xml:space="preserve" width="24" height="24" viewBox="0 0 6.35 6.35">
<defs>
<radialGradient id="a" cx="0" cy="0" r="1" fx="0" fy="0" gradientTransform="rotate(90 1.455 1.72)scale(5.82072)" gradientUnits="userSpaceOnUse" spreadMethod="pad">
<stop offset="0" style="stop-color:#ff5433;stop-opacity:1"/>
<stop offset="1" style="stop-color:#b53517;stop-opacity:1"/>
</radialGradient>
</defs>
<path d="M2.538.295A.3.3 0 0 0 2.63.283a8 8 0 0 1 1.14.002 3.6 3.6 0 0 1 1 .225q.804.33 1.101 1.148.169.492.2 1.011.042.653-.03 1.304a3.2 3.2 0 0 1-.237.878q-.338.731-1.094 1.008a4.1 4.1 0 0 1-1.261.218 5.6 5.6 0 0 1-1.443-.109Q.691 5.677.385 4.366a5 5 0 0 1-.12-1.194 5 5 0 0 1 .137-1.266Q.724.682 1.957.389q.288-.071.581-.094" style="fill:url(#a);fill-rule:evenodd;stroke:none;stroke-width:.352683;stroke-dasharray:none"/>
<path d="m2.668.28-.039.003a.3.3 0 0 1-.09.012 3.6 3.6 0 0 0-.582.094 2.5 2.5 0 0 0-.386.124V2.6l.549-.55.548.549Z" style="fill:#fff;fill-opacity:1;fill-rule:evenodd;stroke:none;stroke-width:.352683;stroke-dasharray:none"/>
<path fill="#f1f2f2" d="M4.518 2.897c-.428 0-.703.007-.88.032a.6.6 0 0 0-.203.06.16.16 0 0 0-.09.14.09.09 0 0 0 .05.084.1.1 0 0 0 .064.013.4.4 0 0 0 .125-.032 3 3 0 0 1 .259-.041 8 8 0 0 1 .47-.034l.414-.019-.082.078c-.125.117-.536.432-.941.728-.204.148-.405.293-.572.408a5 5 0 0 1-.359.233q-.107.053-.213.11c.012.04.02.085.03.122l.264.008c.053.001.202.018.387.046.184.028.407.065.624.105.46.086.806.136 1.066.15s.437-.005.562-.072a.84.84 0 0 0 .26-.257c.075-.106.14-.216.14-.32a.1.1 0 0 0-.012-.045.1.1 0 0 0-.029-.03.1.1 0 0 0-.04-.013.1.1 0 0 0-.05.013c-.048.035-.077.095-.105.133a.48.48 0 0 1-.258.234c-.117.045-.29.063-.556.063-.235 0-.6-.033-.915-.076a6 6 0 0 1-.41-.068h-.001a2 2 0 0 1-.13-.031c.036-.04.11-.102.213-.186a59 59 0 0 1 2.048-1.536z" color="#000" style="stroke-width:.48419"/>
<path d="M1.108.781q-.514.4-.706 1.127-.15.626-.136 1.267-.012.603.118 1.193.183.78.724 1.2c-.19-1.475-.203-3.062 0-4.787" style="fill:#392e28;fill-opacity:1;fill-rule:nonzero;stroke:none;stroke-width:.35277"/>
</svg>
