<svg xmlns="http://www.w3.org/2000/svg" xml:space="preserve" width="24" height="24">
<defs>
<linearGradient id="a" x1="12" x2="12" y1="1" y2="12" gradientUnits="userSpaceOnUse">
<stop stop-color="#7DB9FF"/>
<stop offset="1" stop-color="#197CF1"/>
</linearGradient>
</defs>
<path fill="url(#a)" fill-rule="evenodd" d="M9.596 1.114q.18.001.344-.046a32 32 0 0 1 4.307.011q1.951.153 3.78.848 3.038 1.25 4.158 4.339.64 1.86.756 3.824a28 28 0 0 1-.115 4.923 11.9 11.9 0 0 1-.893 3.32q-1.276 2.764-4.135 3.813a15.6 15.6 0 0 1-4.766.825 21.4 21.4 0 0 1-5.452-.412q-4.967-1.107-6.128-6.057a19 19 0 0 1-.447-4.511 18.5 18.5 0 0 1 .515-4.786q1.217-4.629 5.877-5.736a14 14 0 0 1 2.199-.355" clip-rule="evenodd" style="fill:url(#a)"/>
<path fill="#fff" d="M4.99 7.428a.983.983 0 0 0-.99.98v5.551c0 1.447 1.178 2.613 2.641 2.613h8.255a.983.983 0 0 0 .99-.98v-5.55a2.62 2.62 0 0 0-2.64-2.614H6.64Zm14.43.002c-.194-.014-.415.08-.626.29-.741.738-1.61 1.361-2.216 2.243-.25.363-.233.844-.235 1.297v1.48c.002.453-.015.933.235 1.297.607.882 1.475 1.505 2.216 2.242.21.21.432.305.626.29.324-.024.572-.352.572-.961 0-1.192.018-2.4 0-3.608.018-1.21 0-2.416 0-3.608 0-.61-.248-.938-.572-.962" style="stroke-width:.457157"/>
</svg>
