<?xml version="1.0" encoding="UTF-8" standalone="no"?>
<svg
   width="24"
   height="24"
   viewBox="0 0 24 24"
   fill="none"
   version="1.1"
   id="svg24"
   sodipodi:docname="default-folder-download.svg"
   inkscape:version="1.3 (0e150ed6c4, 2023-07-21)"
   xmlns:inkscape="http://www.inkscape.org/namespaces/inkscape"
   xmlns:sodipodi="http://sodipodi.sourceforge.net/DTD/sodipodi-0.dtd"
   xmlns:xlink="http://www.w3.org/1999/xlink"
   xmlns="http://www.w3.org/2000/svg"
   xmlns:svg="http://www.w3.org/2000/svg">
  <sodipodi:namedview
     id="namedview24"
     pagecolor="#ffffff"
     bordercolor="#000000"
     borderopacity="0.25"
     inkscape:showpageshadow="2"
     inkscape:pageopacity="0.0"
     inkscape:pagecheckerboard="0"
     inkscape:deskcolor="#d1d1d1"
     inkscape:zoom="19.625"
     inkscape:cx="12"
     inkscape:cy="12"
     inkscape:window-width="1920"
     inkscape:window-height="998"
     inkscape:window-x="6000"
     inkscape:window-y="470"
     inkscape:window-maximized="1"
     inkscape:current-layer="svg24" />
  <path
     opacity="0.875"
     d="M7.59961 1C3.94361 1 1 3.94166 1 7.59766V16.4004C1 20.0564 3.94361 23 7.59961 23H16.4004C20.0564 23 23 20.0564 23 16.4004V7.59766C23 3.94166 20.0564 1 16.4004 1H12H7.59961Z"
     fill="url(#paint0_linear_209_190)"
     id="path1" />
  <rect
     opacity="0.125"
     x="3"
     y="2"
     width="18"
     height="18"
     rx="4.4"
     fill="url(#paint1_linear_209_190)"
     fill-opacity="0.875"
     id="rect1" />
  <path
     d="M7.26004 2.97884H16.74C19.1134 2.97884 21.0182 4.88425 21.0182 7.25846V16.7415C21.0182 19.1157 19.1134 21.0212 16.74 21.0212H7.26004C4.88663 21.0212 2.98184 19.1157 2.98184 16.7415V7.25846C2.98184 4.88425 4.88663 2.97884 7.26004 2.97884Z"
     fill="#CCCCCC"
     id="path2" />
  <path
     fill-rule="evenodd"
     clip-rule="evenodd"
     d="M16.74 4.97884H7.26004C5.99182 4.97884 4.98184 5.98819 4.98184 7.25846V16.7415C4.98184 18.0118 5.99182 19.0212 7.26004 19.0212H16.74C18.0082 19.0212 19.0182 18.0118 19.0182 16.7415V7.25846C19.0182 5.98819 18.0082 4.97884 16.74 4.97884ZM16.74 2.97884H7.26004C4.88663 2.97884 2.98184 4.88425 2.98184 7.25846V16.7415C2.98184 19.1157 4.88663 21.0212 7.26004 21.0212H16.74C19.1134 21.0212 21.0182 19.1157 21.0182 16.7415V7.25846C21.0182 4.88425 19.1134 2.97884 16.74 2.97884Z"
     fill="url(#paint2_linear_209_190)"
     id="path3" />
  <path
     opacity="0.25"
     d="M1 7.07932C1 5.3801 2.34933 4 4.01067 4H8.188C9.26533 4 10.3067 4.37776 11.14 5.07054C11.9733 5.76332 13.016 6.14107 14.088 6.14107H19.9893C21.6507 6.14107 23 7.52118 23 9.2204V15.2509C23 18.9793 20.0467 22 16.4013 22H7.59867C3.95333 22 1 18.9793 1 15.2509V7.07932Z"
     fill="url(#paint3_linear_209_190)"
     fill-opacity="0.75"
     id="path4" />
  <g
     opacity="0.875"
     id="g6">
    <path
       d="M23 11.0316C23 9.37045 21.6534 8.02381 19.9922 8.02381H14.0633C13.0049 8.02381 11.9731 7.66539 11.1406 7.0119C10.3082 6.35842 9.27633 6 8.218 6H4.00781C2.34664 6 1 7.34664 1 9.00781V16.4004C1 20.0564 3.94361 23 7.59961 23H16.4004C20.0547 23 22.9973 20.0591 23 16.4055V11.0316Z"
       fill="url(#paint4_linear_209_190)"
       id="path5" />
    <path
       d="M19.9922 9.02381C21.1011 9.02381 22 9.92274 22 11.0316V16.4047C21.9977 19.5064 19.5027 22 16.4004 22H7.59961C4.4959 22 2 19.5041 2 16.4004V9.00781C2 7.89893 2.89893 7 4.00781 7H8.218C9.05127 7 9.8659 7.28256 10.5232 7.7985C11.5309 8.58953 12.7799 9.02381 14.0633 9.02381H19.9922Z"
       stroke="url(#paint5_linear_209_190)"
       stroke-opacity="0.375"
       stroke-width="2"
       id="path6" />
  </g>
  <g
     id="g25"
     transform="matrix(0.9502989,0,0,0.9502989,0.57658,1.0063717)"
     style="stroke-width:1.0523">
    <path
       d="m 11.318,10.519108 a 0.962,0.962 0 0 0 -0.962,0.965 v 3.387 l -0.874,-0.874 a 0.961,0.961 0 0 0 -1.362,0 0.961,0.961 0 0 0 0,1.362 l 2.517,2.516 v 0.002 a 0.946,0.946 0 0 0 0.068,0.061 l 0.004,0.002 a 0.959,0.959 0 0 0 0.07,0.053 l 0.008,0.007 h 0.003 c 0.022,0.014 0.046,0.03 0.07,0.042 l 0.01,0.006 h 0.002 l 0.013,0.007 c 0.002,0 0.004,0 0.006,0.002 0.018,0.009 0.035,0.018 0.053,0.025 l 0.013,0.005 c 0.025,0.01 0.05,0.019 0.076,0.027 l 0.002,0.002 h 0.005 l 0.004,0.002 h 0.002 l 0.017,0.005 0.004,0.002 c 0.041,0.011 0.084,0.02 0.127,0.025 l 0.032,0.004 h 0.002 c 0.06,0.006 0.121,0.006 0.182,0 h 0.004 l 0.005,-0.002 a 0.487,0.487 0 0 0 0.019,-0.002 l 0.017,-0.002 a 0.953,0.953 0 0 0 0.12,-0.026 l 0.02,-0.004 0.008,-0.002 0.004,-0.002 a 0.974,0.974 0 0 0 0.158,-0.066 h 0.003 l 0.002,-0.002 0.046,-0.025 0.032,-0.021 h 0.002 l 0.007,-0.007 h 0.002 a 0.964,0.964 0 0 0 0.142,-0.118 l 2.517,-2.516 a 0.961,0.961 0 0 0 0,-1.362 0.961,0.961 0 0 0 -1.362,0 l -0.872,0.872 v -3.385 a 0.964,0.964 0 0 0 -0.965,-0.965 z m -2.855,8.075 a 0.96,0.96 0 0 0 -0.963,0.962 0.96,0.96 0 0 0 0.963,0.963 h 5.711 a 0.96,0.96 0 0 0 0.963,-0.963 0.96,0.96 0 0 0 -0.963,-0.962 z"
       style="opacity:0.15;fill:#1a1a1a;stroke-width:2.27958;stroke-linecap:round;stroke-linejoin:round;paint-order:stroke markers fill"
       id="path19" />
    <path
       d="m 12,9.9961083 a 0.962,0.962 0 0 0 -0.963,0.9639997 v 3.387 l -0.873,-0.874 a 0.961,0.961 0 0 0 -1.363,0 0.961,0.961 0 0 0 0,1.363 l 2.518,2.515 v 0.002 a 0.946,0.946 0 0 0 0.068,0.062 c 0,0 0.003,0 0.004,0.002 a 0.959,0.959 0 0 0 0.07,0.053 l 0.008,0.006 h 0.002 c 0.023,0.015 0.046,0.03 0.07,0.043 0.004,0.001 0.007,0.004 0.01,0.006 h 0.003 l 0.012,0.006 c 0.002,0.001 0.005,0.001 0.007,0.003 l 0.053,0.025 0.012,0.004 c 0.025,0.01 0.05,0.02 0.077,0.028 l 0.002,0.002 h 0.004 l 0.004,0.002 h 0.003 l 0.016,0.004 0.005,0.002 c 0.04,0.012 0.083,0.02 0.127,0.026 l 0.031,0.004 h 0.003 c 0.06,0.006 0.12,0.006 0.182,0 h 0.004 l 0.004,-0.002 a 0.487,0.487 0 0 0 0.02,-0.002 l 0.016,-0.003 a 0.953,0.953 0 0 0 0.12,-0.025 l 0.02,-0.004 0.008,-0.002 c 0.002,0 0.003,-0.002 0.004,-0.003 a 0.974,0.974 0 0 0 0.159,-0.065 h 0.002 l 0.002,-0.002 0.047,-0.026 c 0.01,-0.006 0.02,-0.014 0.032,-0.02 h 0.002 l 0.006,-0.007 h 0.002 a 0.964,0.964 0 0 0 0.142,-0.119 l 2.518,-2.515 a 0.961,0.961 0 0 0 0,-1.362 0.961,0.961 0 0 0 -1.363,0 l -0.872,0.871 v -3.385 A 0.964,0.964 0 0 0 12.001,9.9961083 Z M 9.144,18.069108 a 0.96,0.96 0 0 0 -0.962,0.963 0.96,0.96 0 0 0 0.962,0.963 h 5.712 a 0.96,0.96 0 0 0 0.962,-0.963 0.96,0.96 0 0 0 -0.962,-0.963 z"
       style="fill:url(#h);stroke-width:2.27958;stroke-linecap:round;stroke-linejoin:round;paint-order:stroke markers fill"
       id="path20" />
  </g>
  <defs
     id="defs24">
    <linearGradient
       id="paint0_linear_209_190"
       x1="24.0624"
       y1="-0.504188"
       x2="-0.0655813"
       y2="11.5558"
       gradientUnits="userSpaceOnUse">
      <stop
         stop-color="#2675A7"
         id="stop7" />
      <stop
         offset="1"
         stop-color="#1D5E8C"
         id="stop8" />
    </linearGradient>
    <linearGradient
       id="paint1_linear_209_190"
       x1="21"
       y1="3.75"
       x2="3"
       y2="3.75"
       gradientUnits="userSpaceOnUse">
      <stop
         stop-opacity="0.5"
         id="stop9" />
      <stop
         offset="0.890123"
         id="stop10" />
      <stop
         offset="1"
         stop-opacity="0"
         id="stop11" />
    </linearGradient>
    <linearGradient
       id="paint2_linear_209_190"
       x1="21"
       y1="3"
       x2="20.5"
       y2="6"
       gradientUnits="userSpaceOnUse">
      <stop
         stop-color="#FAFAFA"
         id="stop12" />
      <stop
         offset="1"
         stop-color="#FAFAFA"
         stop-opacity="0"
         id="stop13" />
    </linearGradient>
    <linearGradient
       id="paint3_linear_209_190"
       x1="23"
       y1="8.60262"
       x2="1.01146"
       y2="9.11202"
       gradientUnits="userSpaceOnUse">
      <stop
         stop-opacity="0.437507"
         id="stop14" />
      <stop
         offset="1"
         stop-opacity="0.87451"
         id="stop15" />
    </linearGradient>
    <linearGradient
       id="paint4_linear_209_190"
       x1="1"
       y1="23"
       x2="21.9311"
       y2="4.77258"
       gradientUnits="userSpaceOnUse">
      <stop
         stop-color="#318CDE"
         id="stop16" />
      <stop
         offset="1"
         stop-color="#70B7F1"
         id="stop17" />
    </linearGradient>
    <linearGradient
       id="paint5_linear_209_190"
       x1="1"
       y1="22.9558"
       x2="21.9343"
       y2="4.77303"
       gradientUnits="userSpaceOnUse">
      <stop
         stop-color="#1E71BD"
         id="stop18" />
      <stop
         offset="1"
         stop-color="#559CD9"
         id="stop19" />
    </linearGradient>
    <linearGradient
       id="paint6_linear_209_190"
       x1="15.5365"
       y1="11.0198"
       x2="8.69157"
       y2="20.032"
       gradientUnits="userSpaceOnUse">
      <stop
         stop-color="#54BF54"
         id="stop20" />
      <stop
         offset="1"
         stop-color="#237523"
         id="stop21" />
    </linearGradient>
    <linearGradient
       id="paint7_linear_209_190"
       x1="8.60001"
       y1="20"
       x2="15.6"
       y2="11"
       gradientUnits="userSpaceOnUse">
      <stop
         id="stop22" />
      <stop
         offset="0.0001"
         stop-color="#CCCCCC"
         id="stop23" />
      <stop
         offset="1"
         stop-color="#FAFAFA"
         id="stop24" />
    </linearGradient>
    <linearGradient
       xlink:href="#g"
       id="h"
       x1="-2.244"
       x2="-9.2650003"
       y1="8.9969997"
       y2="18.240999"
       gradientTransform="matrix(1.08314,0,0,1.08314,18.319,0.27310828)"
       gradientUnits="userSpaceOnUse" />
    <linearGradient
       id="g">
      <stop
         offset="0"
         style="stop-color:#54bf54;stop-opacity:1"
         id="stop18-7" />
      <stop
         offset="1"
         style="stop-color:#237523;stop-opacity:1"
         id="stop19-5" />
    </linearGradient>
  </defs>
</svg>
