<svg width="24" height="24" fill="none" version="1.1" xmlns="http://www.w3.org/2000/svg">
<defs><style id="current-color-scheme" type="text/css">.ColorScheme-Highlight {color:#3584e4;}</style></defs>
<rect class="ColorScheme-Highlight" x="1.0201" y=".94865" width="22.013" height="22.048" rx="6.4695" ry="6.4695" style="fill:currentColor;opacity:.7;vector-effect:non-scaling-stroke"/>
<rect x="3" y="2" width="18" height="18" rx="4.4" fill="url(#b)" fill-opacity=".875" opacity=".125" style="fill-opacity:1;fill:#000000;opacity:.06"/>
<rect x="2.9362" y="2.9362" width="18.071" height="18.072" rx="4.1205" ry="4.1205" opacity="0.8" style="fill:#e6e6e6;vector-effect:non-scaling-stroke"/>
<path d="m1 8.2626c-0.056293-1.7083 1.5647-3.2161 3.2943-3.0368 1.4979 0.019558 2.9995-0.042974 4.4947 0.038983 2.0349 0.15394 3.2592 2.337 5.4127 2.072 2.0315 0.00992 4.0643-0.020192 6.095 0.015701 1.6547 0.13326 2.8782 1.7631 2.7033 3.3574-0.01887 2.0964 0.0401 4.1953-0.03405 6.2899-0.24582 3.0703-2.9158 5.769-6.057 5.9551-3.1588 0.04264-6.3197 0.01021-9.4793 0.01722-3.1473-0.021784-5.9533-2.5852-6.3526-5.6391-0.14767-1.6399-0.046179-3.2922-0.076487-4.9378-1.71e-4 -1.3775-3.42e-4 -2.755-5.13e-4 -4.1326z" fill="url(#c)" fill-opacity=".75" opacity=".25" style="fill-opacity:1;fill:#000000;opacity:.1"/>
<path class="ColorScheme-Highlight" d="M23 11.032a3.01 3.01 0 0 0-3.008-3.008h-5.929a4.74 4.74 0 0 1-2.922-1.012A4.74 4.74 0 0 0 8.218 6h-4.21A3.01 3.01 0 0 0 1 9.008V16.4C1 20.056 3.944 23 7.6 23h8.8a6.585 6.585 0 0 0 6.6-6.594z" style="fill:currentColor;opacity:.65"/>
<path d="M7.51 0a1.987 1.987 0 0 0-1.987 1.986.985.985 0 0 1-.99.979.9.9 0 0 1-.46-.131l-.009-.004a2 2 0 0 0-2.716.734l-.516.848-.006.01a2 2 0 0 0 .725 2.717l.002.002a.99.99 0 0 1 0 1.718 1.993 1.993 0 0 0-.727 2.711v.002l.489.842.001.002a1.995 1.995 0 0 0 2.717.77l.006-.004a.98.98 0 0 1 .746-.1h.002a.98.98 0 0 1 .596.459l.004.008c.083.14.129.3.13.463A2 2 0 0 0 7.51 16h.978a2 2 0 0 0 1.993-1.984v-.004a.984.984 0 0 1 .986-.989c.165.006.329.051.473.133a2 2 0 0 0 2.716-.726l.51-.852.004-.006a1.983 1.983 0 0 0-.725-2.72.983.983 0 0 1-.36-1.35l.001-.004a.96.96 0 0 1 .357-.357l.004-.002a1.993 1.993 0 0 0 .778-2.586.5.5 0 0 0-.053-.131l-.486-.844a2 2 0 0 0-2.717-.734l-.006.004a.985.985 0 0 1-1.352-.352v-.002a.9.9 0 0 1-.13-.463v.02A1.995 1.995 0 0 0 8.488 0zm0 1h.978a.994.994 0 0 1 .993 1.021v.02c.003.338.097.67.269.961a1.985 1.985 0 0 0 2.715.71.985.985 0 0 1 1.353.366l.47.813.017.035a.986.986 0 0 1-.362 1.35c-.3.172-.55.422-.722.722V7a1.987 1.987 0 0 0 .724 2.719.99.99 0 0 1 .362 1.347v.004l-.512.852-.004.006a.985.985 0 0 1-1.353.361l-.002-.002a2 2 0 0 0-.95-.265h-.01a1.99 1.99 0 0 0-1.995 1.994.985.985 0 0 1-.993.984H7.51a.986.986 0 0 1-.994-.992v-.006a1.93 1.93 0 0 0-.268-.959 1.98 1.98 0 0 0-1.203-.928 1.98 1.98 0 0 0-1.502.2.99.99 0 0 1-1.354-.385l-.003-.01-.493-.848a.98.98 0 0 1 .36-1.345 1.995 1.995 0 0 0 0-3.451v-.003a.984.984 0 0 1-.36-1.351l.516-.848.006-.01a.985.985 0 0 1 1.353-.367c.29.17.62.264.957.268h.006A2 2 0 0 0 6.523 2v-.01A.983.983 0 0 1 7.51 1M8 5C6.35 5 5 6.35 5 8s1.35 3 3 3 3-1.35 3-3-1.35-3-3-3m0 1c1.11 0 2 .89 2 2s-.89 2-2 2-2-.89-2-2 .89-2 2-2" class="ColorScheme-Contrast" style="fill:currentColor;opacity:0.8" id="icon" transform="translate(8, 11) scale(0.5)" />
</svg>
