<svg xmlns="http://www.w3.org/2000/svg" width="24" height="24" fill="none">
<rect width="22.013" height="22.048" x="1.02" y=".949" rx="6.47" ry="6.47" style="fill:#ff0000;opacity:.9;vector-effect:non-scaling-stroke"/>
<rect width="18" height="18" x="3" y="2" fill="url(#folder-black_svg__b)" fill-opacity=".875" opacity=".125" rx="4.4" style="fill-opacity:1;fill:#000;opacity:.06"/>
<rect width="18.071" height="18.072" x="2.936" y="2.936" rx="4.12" ry="4.12" style="fill:#e6e6e6;vector-effect:non-scaling-stroke"/>
<path fill="url(#folder-black_svg__c)" fill-opacity=".75" d="M1 8.263C.944 6.554 2.565 5.047 4.294 5.226c1.498.02 3-.043 4.495.039 2.035.154 3.26 2.337 5.413 2.072 2.031.01 4.064-.02 6.095.015 1.654.134 2.878 1.764 2.703 3.358-.019 2.096.04 4.195-.034 6.29-.246 3.07-2.916 5.769-6.057 5.955-3.159.043-6.32.01-9.48.017-3.147-.022-5.953-2.585-6.352-5.639-.148-1.64-.046-3.292-.076-4.938z" opacity=".25" style="fill-opacity:1;fill:#000;opacity:.07"/>
<path d="M23 11.032a3.01 3.01 0 0 0-3.008-3.008h-5.929a4.74 4.74 0 0 1-2.922-1.012A4.74 4.74 0 0 0 8.218 6h-4.21A3.01 3.01 0 0 0 1 9.008V16.4C1 20.056 3.944 23 7.6 23h8.8a6.585 6.585 0 0 0 6.6-6.594z" style="fill:#ff0000;opacity:.75"/>
</svg>
