<svg xmlns="http://www.w3.org/2000/svg" xmlns:xlink="http://www.w3.org/1999/xlink" viewBox="0 0 24 24"><defs><linearGradient id="a"><stop offset="0" style="stop-color:#fff;stop-opacity:.45882353"/><stop offset="1" style="stop-color:#fff;stop-opacity:.05294118"/></linearGradient><linearGradient xlink:href="#a" id="b" x1="8.686" x2="12.661" y1="9.229" y2="13.144" gradientUnits="userSpaceOnUse"/></defs><path d="m15.406 3-4 4-1.094 1.094L7 11.375v.031l-.688.688L3 15.375V17l2 2h1.625l3.969-4 1.125-1.125L15 10.594l.719-.719L19 6.594V5l-2-2h-1.594Z" style="fill:currentColor;fill-opacity:1;stroke:none;color:#dedede" transform="translate(1 1)"/><path d="m15.406 3-4 4-1.094 1.094L7 11.375v.031l-.688.688L3 15.375V17l2 2h1.625l3.969-4 1.125-1.125L15 10.594l.719-.719L19 6.594V5l-2-2h-1.594Z" style="color:#dedede;fill:url(#b);fill-opacity:1;stroke:none" transform="translate(1 1)"/></svg>