<svg xmlns="http://www.w3.org/2000/svg" width="24" height="24"><defs><style id="current-color-scheme" type="text/css">.ColorScheme-Text{color:#dedede}</style></defs><path d="M7 3c-.973 3.405-3.354 6.332-4.404 8.676A4.958 4.958 0 0 0 2 14c0 2.77 2.23 5 5 5s5-2.23 5-5c0-.845-.228-1.627-.596-2.324C10.354 9.332 7.973 6.405 7 3Zm2.283 7.717A3.984 3.984 0 0 1 11 14c0 2.216-1.784 4-4 4a3.984 3.984 0 0 1-3.283-1.717C4.364 16.733 5.149 17 6 17c2.216 0 4-1.784 4-4 0-.851-.267-1.636-.717-2.283Z" class="ColorScheme-Text" style="fill:currentColor;fill-opacity:1;stroke:none" transform="translate(1 1)"/><path d="M14 2c-.814 2.85-2.606 5.36-3.787 7.479.207.347.405.694.588 1.023.807-1.616 2.131-3.724 3.199-6.11 1.194 2.669 2.747 5.028 3.492 6.692l.012.03.015.029A3.94 3.94 0 0 1 18 13c0 2.233-1.767 4-4 4a3.978 3.978 0 0 1-2.488-.875 4.946 4.946 0 0 1-.514.855A4.961 4.961 0 0 0 14 18c2.77 0 5-2.23 5-5 0-.845-.228-1.627-.596-2.324C17.354 8.332 14.973 5.405 14 2Z" class="ColorScheme-Text" style="fill:currentColor;fill-opacity:1;stroke:none" transform="translate(1 1)"/></svg>