<svg xmlns="http://www.w3.org/2000/svg" viewBox="0 0 24 24"><path fill="#da4453" d="M17 13a2 2 0 0 0-2 2 2 2 0 0 0 .68 1.5A2 2 0 0 0 15 18a2 2 0 0 0 2 2 2 2 0 0 0 2-2 2 2 0 0 0-.68-1.5A2 2 0 0 0 19 15a2 2 0 0 0-2-2zm0 1a1 1 0 0 1 1 1 1 1 0 0 1-1 1 1 1 0 0 1-1-1 1 1 0 0 1 1-1zm0 3a1 1 0 0 1 1 1 1 1 0 0 1-1 1 1 1 0 0 1-1-1 1 1 0 0 1 1-1z"/><path fill="#1d99f3" d="M4 4v1h1v6h1V4H4zm5 0a2 2 0 0 0-2 2v3a2 2 0 0 0 2 2 2 2 0 0 0 2-2 2 2 0 0 0-2-2 2 2 0 0 0-1 .27V6a1 1 0 0 1 1-1 1 1 0 0 1 1 1h1a2 2 0 0 0-2-2zm0 4a1 1 0 0 1 1 1 1 1 0 0 1-1 1 1 1 0 0 1-1-1 1 1 0 0 1 1-1z"/><path d="M11 3v1a7 7 0 0 1 6.309 4H14v1h5V4h-1v3.17A8 8 0 0 0 11 3zM3 13v5h1v-3.17A8 8 0 0 0 11 19v-1a7 7 0 0 1-6.309-4H8v-1z" style="fill:currentColor;fill-opacity:1;stroke:none;color:#dedede" transform="translate(1 1)"/></svg>