<svg xmlns="http://www.w3.org/2000/svg" width="24" height="24"><defs><style id="current-color-scheme" type="text/css">.ColorScheme-Text{color:#dedede}</style></defs><path fill="currentColor" d="M9 21c-1.662 0-3-1.338-3-3V8c0-1.662 1.338-3 3-3h8c1.662 0 3 1.338 3 3v9l-4 4zm0-1h6v-2c0-1.108.892-2 2-2h2V8c0-1.108-.892-2-2-2H9c-1.108 0-2 .892-2 2v10c0 1.108.892 2 2 2z" class="ColorScheme-Text"/><path fill="currentColor" d="M7 3C5.338 3 4 4.338 4 6v10c0 1.355.896 2.483 2.125 2.857A3.018 3.018 0 0 1 6 18v-.275A1.99 1.99 0 0 1 5 16V6c0-1.108.892-2 2-2h8a1.99 1.99 0 0 1 1.725 1H17c.298 0 .586.045.857.125A2.984 2.984 0 0 0 15 3H7zm12.816 3.97.03.083-.03-.082zm.07.22zm.06.257zm.038.26zM7.97 20.816l.082.03-.082-.03zm.219.07zm.258.06zm.26.038z" class="ColorScheme-Text" opacity=".35"/></svg>