<svg xmlns="http://www.w3.org/2000/svg" viewBox="0 0 24 24"><g fill="currentColor" style="color:#dedede"><path fill-rule="evenodd" d="M7 15c0 2.77 2.23 5 5 5s5-2.23 5-5z" opacity=".66"/><path fill-rule="evenodd" d="M8.482 11a18.46 18.46 0 0 0-.886 1.676A4.958 4.958 0 0 0 7 15h10c0-.845-.228-1.627-.596-2.324A18.518 18.518 0 0 0 15.518 11z" opacity=".33"/><path d="M12 4c-.973 3.405-3.354 6.332-4.404 8.676A4.958 4.958 0 0 0 7 15c0 2.77 2.23 5 5 5s5-2.23 5-5c0-.845-.228-1.627-.596-2.324C15.354 10.332 12.973 7.405 12 4zm0 2.393c1.194 2.668 2.747 5.027 3.492 6.691l.012.03.016.029A3.94 3.94 0 0 1 16 15c0 2.233-1.767 4-4 4a3.97 3.97 0 0 1-4-4c0-.665.177-1.283.48-1.857l.016-.03.012-.029C9.253 11.42 10.806 9.061 12 6.393z"/></g></svg>