<svg xmlns="http://www.w3.org/2000/svg" viewBox="0 0 24 24"><defs><style id="current-color-scheme" type="text/css">.ColorScheme-Text{color:#dedede}</style></defs><path d="M6 3a3.001 3.001 0 0 0-3 3v10a3 3 0 0 0 3 3h10v-1H6a1.999 1.999 0 0 1-1.732-3c.357-.62 1.017-1 1.732-1h1V7h10v8h1V6H7V3H6Zm0 1v9c-.75 0-1.457.286-2 .773V6a1.998 1.998 0 0 1 2-2Z" class="ColorScheme-Text" style="fill:currentColor;fill-opacity:1;stroke:none" transform="translate(1 1)"/><path d="M12 8a4 4 0 1 0 0 8 4 4 0 0 0 2.45-.844L18.292 19l.707-.707-3.842-3.842A4 4 0 0 0 12 8Zm0 1a3 3 0 1 1 0 6 3 3 0 0 1 0-6Z" class="ColorScheme-Text" style="fill:currentColor;fill-opacity:1;stroke:none" transform="translate(1 1)"/></svg>