<svg xmlns="http://www.w3.org/2000/svg" width="24" height="24" viewBox="0 0 6.35 6.35"><path d="M11 8v.988L12.012 10H14v1.988l1.867 1.867c.279.085.566.144.863.145H20V8h-3.27a3 3 0 0 0-2.23 1H13V8zM2 9v4h8.982l-1-1H3v-2h4.982l-1-1zm14.73 0H19v4h-2.27A2 2 0 0 1 15 12v-2h.002a2 2 0 0 1 1.729-1z" style="fill:currentColor;fill-opacity:1;stroke:none;color:#dedede" transform="matrix(.26458 0 0 .26458 .265 .265)"/><path d="m.794 292.16.187-.187 4.046 4.046-.187.187z" style="fill:currentColor;fill-opacity:1;stroke:none;color:#da4453" transform="translate(.265 -290.915)"/></svg>