<svg xmlns="http://www.w3.org/2000/svg" viewBox="0 0 24 24"><defs><style id="current-color-scheme" type="text/css">.ColorScheme-Text{color:#dedede}</style></defs><path fill="currentColor" d="M12 4c-1.105 0-2.344 2.344-2.344 2.344s-2.531-.781-3.312 0 0 3.312 0 3.312S4 10.896 4 12s2.344 2.344 2.344 2.344-.781 2.531 0 3.312 3.312 0 3.312 0S10.896 20 12 20s2.344-2.344 2.344-2.344 2.531.781 3.312 0 0-3.312 0-3.312S20 13.104 20 12s-2.344-2.344-2.344-2.344.781-2.531 0-3.312-3.312 0-3.312 0S13.104 4 12 4zm0 4a4 4 0 1 1 0 8 4 4 0 0 1 0-8z" class="ColorScheme-Text"/><path fill="currentColor" fill-opacity=".5" d="M10.527 16.295C9.368 15.865 8.45 15 7.895 13.818c-.31-.66-.335-.802-.335-1.85 0-1.049.025-1.188.338-1.855.574-1.227 1.56-2.115 2.797-2.52.428-.14.82-.175 1.56-.142.85.037 1.086.092 1.7.398 3.416 1.701 3.414 6.539-.004 8.24-.65.324-.821.36-1.792.385-.841.021-1.196-.018-1.632-.18z" class="ColorScheme-Text"/></svg>