<svg xmlns="http://www.w3.org/2000/svg" viewBox="0 0 24 24"><defs id="defs3051"><style id="current-color-scheme" type="text/css">.ColorScheme-Text{color:#dedede}</style></defs><path d="M16.5 4C14.567 4 13 5.79 13 8v3c0 2.21 1.567 4 3.5 4s3.5-1.79 3.5-4V8c0-2.21-1.567-4-3.5-4zm0 1C17.88 5 19 6.343 19 8v3c0 1.657-1.12 3-2.5 3S14 12.657 14 11V8c0-1.657 1.12-3 2.5-3z" class="ColorScheme-Text" style="fill:currentColor;fill-opacity:.5;stroke:none"/><path d="M8.5 4C6.567 4 5 5.79 5 8v3c0 2.21 1.567 4 3.5 4s3.5-1.79 3.5-4V8c0-2.21-1.567-4-3.5-4zm0 1C9.88 5 11 6.343 11 8v3c0 1.657-1.12 3-2.5 3S6 12.657 6 11V8c0-1.657 1.12-3 2.5-3zM3 14v1h1v-1H3z" class="ColorScheme-Text" style="fill:currentColor;fill-opacity:1;stroke:none"/><path d="m15.086 16-.707.707 1.414 1.414-1.414 1.414.707.707 1.414-1.414 1.414 1.414.707-.707-1.414-1.414 1.414-1.414-.707-.707-1.414 1.414L15.086 16z" style="fill:currentColor;fill-opacity:1;stroke:none;color:#da4453"/></svg>