<svg xmlns="http://www.w3.org/2000/svg" viewBox="0 0 24 24"><path d="M13 8v12h1v-1.361A4 4 0 0 0 17 20a4 4 0 0 0 4-4 4 4 0 0 0-4-4 4 4 0 0 0-3 1.361V8h-1zm-6 4a4 4 0 0 0-4 4 4 4 0 0 0 4 4 4 4 0 0 0 3-1.361V20h1v-8h-1v1.361A4 4 0 0 0 7 12zm0 1a3 3 0 0 1 3 3 3 3 0 0 1-3 3 3 3 0 0 1-3-3 3 3 0 0 1 3-3zm10 0a3 3 0 0 1 3 3 3 3 0 0 1-3 3 3 3 0 0 1-3-3 3 3 0 0 1 3-3z" style="fill:currentColor;fill-opacity:1;stroke:none;color:#dedede"/><path d="m14 4 3 4 3-4h-6z" style="fill:currentColor;fill-opacity:1;stroke:none;color:#3daee9"/></svg>