<svg width="24" height="24"><defs><style id="current-color-scheme" type="text/css">.ColorScheme-Text{color:#dedede}</style></defs><path fill="#333" d="M4 1C2.338 1 1 2.338 1 4v16c0 1.662 1.338 3 3 3h16c1.662 0 3-1.338 3-3V4c0-1.662-1.338-3-3-3zm0 1h16c1.108 0 2 .892 2 2v16c0 1.108-.892 2-2 2H4c-1.108 0-2-.892-2-2V4c0-1.108.892-2 2-2z"/><path d="M7 4c-.725 0-1.457.212-2.031.672S4 5.862 4 6.75v4a.5.5 0 0 0 .5.5.5.5 0 0 0 .5-.5V8.5h4v2.25a.5.5 0 0 0 .5.5.5.5 0 0 0 .5-.5v-4c0-.889-.394-1.619-.969-2.078S7.725 4 7.001 4zm0 1c.525 0 1.043.163 1.406.453S9 6.14 9 6.75v.75H5v-.75c0-.611.23-1.006.594-1.297S6.474 5 7 5zM20 6.5 17 4v2h-5v1h5v2z" class="ColorScheme-Text" style="fill:currentColor"/><path d="M20 12.5 17 10v2H4v1h13v2zM20 18.5 17 16v2H4v1h13v2z" class="ColorScheme-Text" style="fill:currentColor"/></svg>