<svg width="24" height="24"><path d="M4 1C2.338 1 1 2.338 1 4v16c0 1.662 1.338 3 3 3h16c1.662 0 3-1.338 3-3V4c0-1.662-1.338-3-3-3zm0 1h16c1.108 0 2 .892 2 2v16c0 1.108-.892 2-2 2H4c-1.108 0-2-.892-2-2V4c0-1.108.892-2 2-2zm3 2c-.725 0-1.457.212-2.031.672S4 5.862 4 6.75v4a.5.5 0 0 0 .5.5.5.5 0 0 0 .5-.5V8.5h4v2.25a.5.5 0 0 0 .5.5.5.5 0 0 0 .5-.5v-4c0-.889-.394-1.619-.969-2.078C8.457 4.212 7.725 4 7.001 4zm5 0v13h-2l2.5 3 2.5-3h-2V4zm6 0v13h-2l2.5 3 2.5-3h-2V4zM7 5c.525 0 1.043.163 1.406.453S9 6.14 9 6.75v.75H5v-.75c0-.611.23-1.006.594-1.297C5.957 5.163 6.474 5 7 5zm-1 7v5H4l2.5 3L9 17H7v-5z" style="fill:currentColor;color:#dedede"/></svg>