<svg xmlns="http://www.w3.org/2000/svg" viewBox="0 0 24 24"><defs id="defs3051"><style id="current-color-scheme" type="text/css">.ColorScheme-Text{color:#dedede}</style></defs><path d="M4 3v17h1v-8h7v8h1v-8h7v8h1V3H4zm1 1h7v7H5V4zm8 0h7v7h-7V4z" class="ColorScheme-Text" style="fill:currentColor;fill-opacity:.1;stroke:none"/><path d="M5 4v7h7V4H5zm8 0v7h7V4h-7zm-8 8v7h7v-7H5zm8 0v7h7v-7h-7z" class="ColorScheme-Text" style="fill:currentColor;fill-opacity:.5;stroke:none"/><path d="M4 3v1h17V3H4zm0 16v1h17v-1H4z" class="ColorScheme-Text" style="fill:currentColor;fill-opacity:1;stroke:none"/></svg>