<svg xmlns="http://www.w3.org/2000/svg" viewBox="0 0 24 24"><defs id="defs3051"><style id="current-color-scheme" type="text/css">.ColorScheme-Text{color:#dedede}</style></defs><path d="m10.91 5-3.314 9.594-.123.406L6 19h1.658l1.625-4.438h5.434L16.342 19H18l-1.473-4-.123-.406L13.09 5h-2.18zm1.106 1.938 2.18 6.343H9.804l2.21-6.344zM19 4a1 1 0 1 0 0 2 1 1 0 0 0 0-2zm0 4a1 1 0 1 0 0 2 1 1 0 0 0 0-2zm0 4a1 1 0 1 0 0 2 1 1 0 0 0 0-2z" class="ColorScheme-Text" style="fill:currentColor;fill-opacity:1;stroke:none"/></svg>