<svg xmlns="http://www.w3.org/2000/svg" viewBox="0 0 24 24"><path d="M4.5 3a1.5 1.5 0 1 0 0 3 1.5 1.5 0 0 0 0-3ZM7 4v1h1V4Zm2 0v1h10V4zm0 2v1h3V6zm-4.5 9a1.5 1.5 0 1 0 0 3 1.5 1.5 0 0 0 0-3ZM7 16v1h1v-1zm2 0v1h10v-1zm0 2v1h7v-1z" style="fill:currentColor;fill-opacity:1;stroke:none;color:#dedede" transform="translate(1 1)"/><path d="M4.5 9a1.5 1.5 0 1 0 0 3 1.5 1.5 0 0 0 0-3ZM7 10v1h1v-1zm2 0v1h10v-1zm0 2v1h4v-1z" style="fill:currentColor;fill-opacity:1;stroke:none;color:#3daee9" transform="translate(1 1)"/></svg>