<svg xmlns="http://www.w3.org/2000/svg" width="24" height="24"><path d="M7 3v1h3v2.025c-3.345.258-6 3.066-6 6.475 0 .985.227 1.917.623 2.756l.758-.758A5.473 5.473 0 0 1 5 12.5 5.5 5.5 0 0 1 10.5 7c.706 0 1.378.139 1.998.38l.744-.743A6.392 6.392 0 0 0 11 6.025V4h3V3H7zm11.293 0L3 18.293l.707.707L19 3.707 18.293 3zm-.877 3.705-.707.707.592.588.705-.709-.59-.586zM15.6 8.521l-.696.696A5.466 5.466 0 0 1 16 12.5a5.5 5.5 0 0 1-5.5 5.5 5.466 5.466 0 0 1-3.283-1.096l-.71.71A6.455 6.455 0 0 0 10.5 19c3.578 0 6.5-2.922 6.5-6.5 0-1.504-.535-2.876-1.4-3.979z" style="fill:currentColor;fill-opacity:1;stroke:none;color:#dedede" transform="translate(1 1)"/></svg>