<svg xmlns="http://www.w3.org/2000/svg" width="24" height="24"><path d="M17 15.5a3.5 3.5 0 0 1-3.5 3.5 3.5 3.5 0 0 1-3.5-3.5 3.5 3.5 0 0 1 3.5-3.5 3.5 3.5 0 0 1 3.5 3.5z" style="fill:currentColor;fill-opacity:1;stroke:none;color:#da4453" transform="translate(1 1)"/><path d="M7 3v1h3v2.025c-3.345.258-6 3.066-6 6.475 0 3.578 2.922 6.5 6.5 6.5.055 0 .108-.006.162-.008a4.5 4.5 0 0 1-.943-1.055A5.495 5.495 0 0 1 10.5 7a5.495 5.495 0 0 1 5.438 4.719 4.5 4.5 0 0 1 1.054.945c.002-.055.008-.109.008-.164 0-1.61-.597-3.082-1.574-4.219l1.076-1.076.799.795.705-.709-2.299-2.289-.705.709.791.789-1.074 1.074A6.477 6.477 0 0 0 11 6.025V4h3V3Z" style="fill:currentColor;fill-opacity:1;stroke:none;color:#dedede" transform="translate(1 1)"/></svg>