<svg xmlns="http://www.w3.org/2000/svg" viewBox="0 0 24 24"><path d="m10.217 5.834-3.186 8.49.938.352 2.816-7.508 6.518 2.793.394-.92-7.48-3.207Z" style="fill:currentColor;fill-opacity:1;stroke:none;color:#3daee9" transform="translate(1 1)"/><path d="M4 3v14H3v1h1v1h1v-1h14v-1H5V3H4zm6 2v1h1V5h-1zm1 1v1h1V6h-1zm0 1h-1v1h1V7zm-1 0V6H9v1h1zm7 1v1h1V8h-1zm1 1v1h1V9h-1zm0 1h-1v1h1v-1zm-1 0V9h-1v1h1zM7 13v1h1v-1H7zm1 1v1h1v-1H8zm0 1H7v1h1v-1zm-1 0v-1H6v1h1z" style="fill:currentColor;fill-opacity:1;stroke:none;color:#dedede" transform="translate(1 1)"/></svg>