<svg xmlns="http://www.w3.org/2000/svg" width="24" height="24"><defs><style id="current-color-scheme" type="text/css">.ColorScheme-Text{color:#dedede}</style></defs><path fill="currentColor" d="M12 8c-2.203 0-4 1.797-4 4 0 2.203 1.797 4 4 4 2.203 0 4-1.797 4-4 0-2.203-1.797-4-4-4zm0 1c1.663 0 3 1.337 3 3s-1.337 3-3 3-3-1.337-3-3 1.337-3 3-3zM11.5 6v1h1V6zM11.5 17v1h1v-1zM6 11.5v1h1v-1zM17 11.5v1h1v-1z" class="ColorScheme-Text"/><path fill="currentColor" d="M12 8.75v6.5h2.167l1.083-2.167v-2.166L14.167 8.75z" class="ColorScheme-Text"/><path fill="currentColor" d="M11.984 8.734v6.532h2.192l1.09-2.178v-2.176l-1.09-2.178h-2.192zm.032.032h2.14l1.078 2.154v2.16l-1.078 2.154h-2.14V8.766zM15.807 15.1l-.707.707.707.707.707-.707zM8.207 15.1l-.707.707.707.707.707-.707zM15.807 7.5l-.707.707.707.707.707-.707zM8.207 7.5l-.707.707.707.707.707-.707Z" class="ColorScheme-Text"/></svg>