<svg xmlns="http://www.w3.org/2000/svg" width="24" height="24"><g fill="currentColor" style="color:#dedede"><path d="m5.49 11-1.285 1.678a1 1 0 0 0-.205.607V17c0 1.108.892 2 2 2h11a1.997 1.997 0 0 0 2-2v-3.715a1 1 0 0 0-.205-.607L17.51 11h-1.26l1.531 2h-3.832a2.5 2.5 0 0 1-2.45 2 2.5 2.5 0 0 1-2.444-2H5.219l1.53-2zM5 14h3.342a3.5 3.5 0 0 0 3.158 2 3.496 3.496 0 0 0 3.146-2H18v3c0 .554-.446 1-1 1H6c-.554 0-1-.446-1-1z"/><path d="M9.5 12a.499.499 0 0 1-.5-.5V6.707L7.732 7.975a.499.499 0 1 1-.707-.707l2.121-2.122a.497.497 0 0 1 .541-.109.496.496 0 0 1 .167.11l2.12 2.12a.499.499 0 1 1-.706.708L10 6.707V11.5c0 .277-.223.5-.5.5z"/><path d="M13.5 5c-.277 0-.5.223-.5.5v4.793l-1.268-1.268a.499.499 0 1 0-.707.707l2.121 2.122a.497.497 0 0 0 .541.109.496.496 0 0 0 .167-.11l2.12-2.12a.499.499 0 1 0-.706-.708L14 10.293V5.5c0-.277-.223-.5-.5-.5z"/></g></svg>