<svg xmlns="http://www.w3.org/2000/svg" width="24" height="24"><defs><style id="current-color-scheme" type="text/css">.ColorScheme-Text{color:#dedede}</style></defs><path d="M18.367 5.5A9.453 9.453 0 0 1 19.5 10H24V5.5h-5.633zM5.5 18.367V24H10v-4.5c-1.629 0-3.16-.41-4.5-1.133z" class="ColorScheme-Text" opacity=".35" style="fill:currentColor"/><path d="M18.066 5c.2.321.38.655.541 1H24V5h-5.934zM5 18.066V24h1v-5.393a9.48 9.48 0 0 1-1-.541zM21 9v1h2V9h-2zM9 21v2h1v-2H9z" class="ColorScheme-Text" style="fill:currentColor"/><g class="ColorScheme-Text" style="fill:currentColor"><path d="M10 .5a9.5 9.5 0 0 0 0 19V10h9.5A9.5 9.5 0 0 0 10 .5z" opacity=".15"/><path d="M10 0C4.483 0 0 4.483 0 10s4.483 10 10 10v-1c-4.976 0-9-4.024-9-9s4.024-9 9-9 9 4.024 9 9h1c0-5.517-4.483-10-10-10z"/></g><path fill="currentColor" d="M10 10h14v14H10z" class="ColorScheme-Text" opacity=".5"/></svg>