<svg xmlns="http://www.w3.org/2000/svg" width="24" height="24"><defs><style id="current-color-scheme" type="text/css">.ColorScheme-Text{color:#dedede}</style></defs><g fill="currentColor" class="ColorScheme-Text"><path d="M10 .5a9.5 9.5 0 0 0-4.5 17.867V5.5h12.867A9.498 9.498 0 0 0 10 .5z" opacity=".15"/><path d="M10 0C4.483 0 0 4.483 0 10c0 3.897 2.242 7.268 5.5 8.918v-1.129A8.981 8.981 0 0 1 1 10c0-4.977 4.024-9 9-9a8.982 8.982 0 0 1 7.79 4.5h1.128C17.268 2.242 13.897 0 10 0z"/></g><path fill="currentColor" d="M5.5 5.5V24H10V10h14V5.5H5.5z" class="ColorScheme-Text" opacity=".35"/><path fill="currentColor" d="M5 5v19h1V6h18V5H5z" class="ColorScheme-Text"/><path fill="currentColor" d="M9 9v2h1v-1h1V9H9zm4 0v1h2V9h-2zm4 0v1h2V9h-2zm4 0v1h2V9h-2zM9 13v2h1v-2H9zm0 4v2h1v-2H9zm0 4v2h1v-2H9z" class="ColorScheme-Text"/><path fill="currentColor" d="M10 10h14v14H10z" class="ColorScheme-Text" opacity=".5"/></svg>