<svg xmlns="http://www.w3.org/2000/svg" viewBox="0 0 24 24"><defs><style id="current-color-scheme" type="text/css">.ColorScheme-Text{color:#dedede}</style></defs><path d="M11 18h8v-7h-4V7h-3V6h4l4 4v9H10v-3h1v2Z" class="ColorScheme-Text" style="fill:currentColor;fill-opacity:1;stroke:none" transform="translate(1 1)"/><path d="M4 10h8v4H4v-4Zm4-6a2 2 0 0 1 2 2v3H6V6a2 2 0 0 1 2-2Zm0-1a3 3 0 0 0-3 3v3H3v6h10V9h-2V6a3 3 0 0 0-3-3Z" class="ColorScheme-Text" style="fill:currentColor;fill-opacity:1;stroke:none" transform="translate(1 1)"/></svg>