<svg xmlns="http://www.w3.org/2000/svg" viewBox="0 0 24 24"><defs id="defs3051"><style id="current-color-scheme" type="text/css">.ColorScheme-Text{color:#dedede}</style></defs><path d="m14.156 3-1.781 1-9 5L3 9.219V19h10.803l.197-.344 5-8.593 1-1.72V3H14.156zm.281 1h3.876l-5 5H5.436l9-5zM19 4.688V8.03l-5 8.594V9.687l5-5zM4 10h9v8H4v-8z" class="ColorScheme-Text" style="fill:currentColor;fill-opacity:1;stroke:none" transform="translate(1 1)"/><path d="M15 3 4 9h10v8l6-9V3h-5zM4 10v8h9v-8H4z" class="ColorScheme-Text" style="fill:currentColor;fill-opacity:.5;stroke:none" transform="translate(1 1)"/></svg>