<svg xmlns="http://www.w3.org/2000/svg" viewBox="0 0 24 24"><defs id="defs3051"><style id="current-color-scheme" type="text/css">.ColorScheme-Text{color:#dedede}</style></defs><path d="m7 11-3 3 3 3v-6zm8 0v6l3-3-3-3zM6.023 4.994v4h-1v-2h-1v2h-1v1h16v-1H19V7h-1v1.994h-.977v-4h-1v4h-1v-2h-1v2h-1v-2h-1v2h-1v-2h-1v2h-1v-2h-1v2h-1v-4h-1zM3 11h1v6H3zm15 0h1v6h-1z" class="ColorScheme-Text" style="fill:currentColor;fill-opacity:1;stroke:none" transform="translate(1 1)"/><path d="m9.207 11.5-.707.707L10.293 14 8.5 15.793l.707.707L11 14.707l1.793 1.793.707-.707L11.707 14l1.793-1.793-.707-.707L11 13.293 9.207 11.5Z" style="fill:#d24d57" transform="translate(1 1)"/></svg>