<svg xmlns="http://www.w3.org/2000/svg" viewBox="0 0 24 24"><defs><style id="current-color-scheme" type="text/css">.ColorScheme-Text{color:#dedede}</style></defs><path fill="currentColor" fill-opacity=".5" d="M11.58 19.14c-3.058-.134-5.767-2.256-6.61-5.177-.216-.75-.283-1.301-.262-2.157.027-1.13.253-2.02.762-3.012C6.68 6.44 9.028 4.957 11.72 4.85a7.413 7.413 0 0 1 4.085 1.058c.858.512 1.788 1.411 2.33 2.25.539.837.901 1.79 1.06 2.787.081.52.088 1.547.013 2.026-.256 1.629-.94 2.971-2.083 4.094-1.08 1.061-2.427 1.74-3.96 1.999a8.435 8.435 0 0 1-1.586.078z" class="ColorScheme-Text"/><path fill="currentColor" d="M12 4a8 8 0 1 0 0 16 8 8 0 0 0 0-16zm0 1a7 7 0 0 1 7 7 7 7 0 0 1-7 7 7 7 0 0 1-7-7 7 7 0 0 1 7-7zM9 8.037c-.24 0-.286.008-.424.076a1.061 1.061 0 0 0-.469.469c-.067.136-.076.184-.076.41 0 .22.01.276.07.406.129.274.361.476.641.555.072.02.205.03.319.024a.954.954 0 0 0 .82-.551c.08-.163.088-.2.088-.434 0-.226-.01-.273-.076-.41a1.061 1.061 0 0 0-.47-.469c-.137-.068-.182-.076-.423-.076zm6 0c-.24 0-.286.008-.424.076a1.061 1.061 0 0 0-.469.469c-.067.136-.076.184-.076.41 0 .22.01.276.07.406.129.274.361.476.641.555.072.02.205.03.319.024a.954.954 0 0 0 .82-.551c.08-.163.088-.2.088-.434 0-.226-.01-.273-.076-.41a1.061 1.061 0 0 0-.47-.469c-.137-.068-.182-.076-.423-.076zm-6.822 5.986.017.075c.01.04.053.166.094.279a3.98 3.98 0 0 0 3.106 2.562c1.03.16 2.141-.114 2.959-.732.351-.266.742-.689.988-1.07.163-.253.403-.791.463-1.04l.017-.074H12z" class="ColorScheme-Text"/></svg>