<svg xmlns="http://www.w3.org/2000/svg" viewBox="0 0 24 24"><defs><style id="current-color-scheme" type="text/css">.ColorScheme-Highlight{color:#3daee9}.ColorScheme-Text{color:#dedede}</style></defs><path d="m15.045 6.453-.707.707A12.503 12.503 0 0 1 18 16h1c0-3.58-1.424-7.015-3.955-9.547Z" class="ColorScheme-Highlight" style="fill:currentColor;fill-opacity:1;stroke:none" transform="translate(1 1)"/><path d="M1 16v1h1v-1H1Zm6 0v1h1v-1H7Zm2 0v1h2v-1H9Zm3 0v1h2v-1h-2Zm3 0v1h2v-1h-2Zm3 0v1h2v-1h-2ZM17 3.293 6.293 14l.707.707L17.707 4 17 3.293Z" class="ColorScheme-Text" style="fill:currentColor;fill-opacity:1;stroke:none" transform="translate(1 1)"/><path d="M2 14v5h5v-5H2Zm1 1h3v3H3v-3Z" class="ColorScheme-Highlight" style="fill:currentColor;fill-opacity:1;stroke:none" transform="translate(1 1)"/></svg>