<svg xmlns="http://www.w3.org/2000/svg" viewBox="0 0 24 24"><path d="M9 5v1h12V5H9zm0 2v1h5V7H9zm0 4v1h12v-1H9zm0 2v1h6v-1H9zm0 4v1h12v-1H9zm0 2v1h9v-1H9z" style="fill:currentColor;fill-opacity:1;stroke:none;color:#dedede"/><path d="M6.5 5a1.5 1.5 0 1 0 0 3 1.5 1.5 0 0 0 0-3zm0 6a1.5 1.5 0 1 0 0 3 1.5 1.5 0 0 0 0-3z" style="opacity:1;fill:#27ae60;fill-opacity:1;stroke:none"/><path d="M6.5 17a1.5 1.5 0 1 0 0 3 1.5 1.5 0 0 0 0-3zM19 20v1h2v-1h-2z" style="opacity:1;fill:#da4453;fill-opacity:1;stroke:none"/></svg>