<svg xmlns="http://www.w3.org/2000/svg" viewBox="0 0 24 24"><path d="m12.088 1 .367.379L14.076 3H4v1h12.5l-.51-.5-2.5-2.5h-1.402zM4 5v14h1v-7h6v-1H5V6h8V5H4z" style="fill:currentColor;fill-opacity:1;stroke:none;color:#dedede" transform="translate(1 1)"/><path d="M15.5 12a3.5 3.5 0 0 0-3.5 3.5 3.5 3.5 0 0 0 3.5 3.5 3.5 3.5 0 0 0 2.473-1.027l-.705-.705A2.5 2.5 0 0 1 15.5 18a2.5 2.5 0 0 1-2.5-2.5 2.5 2.5 0 0 1 2.5-2.5 2.5 2.5 0 0 1 1.768.732l.705-.705A3.5 3.5 0 0 0 15.5 12z" style="fill:currentColor;fill-opacity:1;stroke:none;color:#3daee9" transform="translate(1 1)"/></svg>