<svg xmlns="http://www.w3.org/2000/svg" width="24" height="24" fill="none"><style id="current-color-scheme" type="text/css">.ColorScheme-Text{color:#dedede}</style><path fill="currentColor" fill-rule="evenodd" d="M4 4h16v10h-1V5H5v14h9v1H4V4Z" class="ColorScheme-Text" clip-rule="evenodd"/><path fill="currentColor" d="M10 10a1 1 0 1 1-2 0 1 1 0 0 1 2 0ZM16 10a1 1 0 1 1-2 0 1 1 0 0 1 2 0Z" class="ColorScheme-Text"/><path fill="currentColor" fill-rule="evenodd" d="M15.429 13.257c-1.553 2.589-5.305 2.589-6.858 0l.858-.514c1.164 1.94 3.978 1.94 5.142 0l.858.514Z" class="ColorScheme-Text" clip-rule="evenodd"/><path fill="currentColor" fill-rule="evenodd" d="M20 12.5v2.207L14.707 20H12.5v-1H14v-5h5v-1.5h1ZM18.293 15H15v3.293L18.293 15Z" class="ColorScheme-Text" clip-rule="evenodd"/></svg>