<svg xmlns="http://www.w3.org/2000/svg" viewBox="0 0 24 24"><g fill="currentColor" style="color:#dedede"><path d="m7.79 4.707-.868.5 1.646 2.85-2.248-.602-.26.967 3.215.861L10.845 12H7.708L5.354 9.646l-.708.708L6.293 12H3v1h3.293l-1.647 1.646.708.708L7.707 13h3.133l-1.567 2.713-3.214.861.257.967 2.25-.604L6.92 19.79l.865.5 1.647-2.852.603 2.25.965-.26-.861-3.216L11.994 13H12l1.857 3.219-.86 3.215.966.257.601-2.248 1.647 2.852.867-.5-1.646-2.852 2.248.602.26-.965-3.215-.861L13.155 13h3.138l2.353 2.354.708-.708L17.707 13H21v-1h-3.293l1.647-1.646-.051-.06H18L16.293 12H12v-.002l-.004-.002-1.853-3.213.86-3.215-.966-.26-.601 2.25zM17 4v1h2.293l-2 2-.293.293V8h4V7h-2.293l2-2L21 4.707V4h-.707z"/><path d="M12 6v1h2.293l-2 2-.293.293V10h4V9h-2.293l2-2L16 6.707V6h-.707z"/></g></svg>