<svg xmlns="http://www.w3.org/2000/svg" viewBox="0 0 24 24"><defs><style id="current-color-scheme" type="text/css">.ColorScheme-Text{color:#dedede}</style></defs><path fill="currentColor" d="M18.5 13a3.5 3.5 0 0 0-3.5 3.5 3.5 3.5 0 0 0 3.5 3.5 3.5 3.5 0 0 0 3.5-3.5 3.5 3.5 0 0 0-3.5-3.5zm0 1 .479 1.346 1.289-.614-.614 1.29L21 16.5l-1.346.479.614 1.289-1.29-.614L18.5 19l-.479-1.346-1.289.614.614-1.29L16 16.5l1.346-.478-.614-1.29 1.29.614z" class="ColorScheme-Text" color="#dedede"/><path fill="currentColor" d="M6 5C4.338 5 3 6.338 3 8v8c0 1.662 1.338 3 3 3h8v-1H6c-1.108 0-2-.892-2-2V9h8v1h8v2h1V8c0-1.662-1.338-3-3-3zm0 1h12c1.108 0 2 .892 2 2H4c0-1.108.892-2 2-2z" class="ColorScheme-Text" color="#dedede"/></svg>