<svg xmlns="http://www.w3.org/2000/svg" width="24" height="24"><defs><style id="current-color-scheme" type="text/css">.ColorScheme-Text{color:#dedede}</style></defs><path fill="currentColor" d="M12.025 13.982a.509.509 0 0 0 0 1.018H14v3.982h-1.975a.509.509 0 0 0 0 1.018h4.139c.912 0 1.66-.392 2.136-.967s.7-1.313.7-2.043c0-.73-.223-1.468-.7-2.043-.476-.576-1.224-.965-2.136-.965zM15.017 15h1.147c.639 0 1.054.233 1.353.595.3.362.465.875.465 1.395s-.165 1.033-.465 1.394c-.3.362-.714.598-1.353.598h-1.147zM15.08 3a.509.509 0 0 0-.244.08.509.509 0 0 0-.15.703l.14.217h-3.334a.509.509 0 0 0-.51.508v1a.509.509 0 0 0 .51.508.509.509 0 0 0 .508-.508v-.492h6.742v.492a.509.509 0 0 0 .508.508.509.509 0 0 0 .508-.508v-1A.509.509 0 0 0 19.25 4h-3.213l-.498-.768A.509.509 0 0 0 15.08 3zm-2.037 3a.509.509 0 0 0-.508.508.509.509 0 0 0 .508.508h2.967l-.711.605a.509.509 0 0 0-.178.387v.539L11.498 8.5a.509.509 0 0 0-.516.502.509.509 0 0 0 .502.514l3.637.046v1.446c0 .074-.055.213-.168.322s-.263.17-.357.17H13.56a.509.509 0 0 0-.51.508.509.509 0 0 0 .51.508h1.036c.422 0 .789-.19 1.064-.455.275-.266.479-.628.479-1.053V9.576l3.105.041a.509.509 0 0 0 .514-.502.509.509 0 0 0-.502-.515l-3.117-.04v-.318l1.58-1.347a.509.509 0 0 0-.33-.895zM6.483 21l-2.586-3h2.069V3H7v15h2.069z" class="ColorScheme-Text"/><path fill="currentColor" d="M20 1c1.662 0 3 1.338 3 3v16c0 1.662-1.338 3-3 3H4c-1.662 0-3-1.338-3-3V4c0-1.662 1.338-3 3-3zm0 1H4c-1.108 0-2 .892-2 2v16c0 1.108.892 2 2 2h16c1.108 0 2-.892 2-2V4c0-1.108-.892-2-2-2z" class="ColorScheme-Text"/></svg>