<svg xmlns="http://www.w3.org/2000/svg" viewBox="0 0 24 24"><defs><style id="current-color-scheme" type="text/css">.ColorScheme-Text{color:#dedede}</style></defs><path fill="currentColor" d="m5.5 4-.531.969L4 5.5l.969.531L5.5 7l.531-.969L7 5.5l-.969-.531Zm5 0-.531.969L9 5.5l.969.531L10.5 7l.531-.969L12 5.5l-.969-.531Zm-3 4-.531.969L6 9.5l.969.531L7.5 11l.531-.969L9 9.5l-.969-.531ZM18.364 5.636a1.996 1.996 0 0 0-2.828 0l-9.9 9.9a1.996 1.996 0 0 0 0 2.828 1.996 1.996 0 0 0 2.828 0l9.9-9.9a1.996 1.996 0 0 0 0-2.828zm-.707.707a.998.998 0 0 1 0 1.414l-2.829 2.829-1.414-1.414 2.829-2.829a.998.998 0 0 1 1.414 0zm-4.95 3.536 1.414 1.414-6.364 6.364a.998.998 0 0 1-1.414 0 .998.998 0 0 1 0-1.414z" class="ColorScheme-Text"/></svg>