<svg xmlns="http://www.w3.org/2000/svg" width="24" height="24"><g fill="currentColor"><path d="M3 15v4h1v-1h1v-1h1v-1h10v1h1v1h1v1h1v-4H3zm8 2a3 3 0 0 0-2.8 2h1.073a2 2 0 0 1 1.676-1 2 2 0 0 1 .002 0A2 2 0 0 1 11 18a2 2 0 0 1 1.723 1h1.101A3 3 0 0 0 11 17z" style="color:#27ae60" transform="translate(1 1)"/><path d="M3 3v5h1V6h1V5h1V4h10v1h1v1h1v2h1V3H3zm8 2a3 3 0 0 0-3 3h1a2 2 0 0 1 1.95-2 2 2 0 0 1 .001 0A2 2 0 0 1 11 6a2 2 0 0 1 2 2h1a3 3 0 0 0-3-3zM3 9v5h1v-2h1v-1h1v-1h10v1h1v1h1v2h1V9H3zm8 2a3 3 0 0 0-3 3h1a2 2 0 0 1 1.95-2 2 2 0 0 1 .001 0A2 2 0 0 1 11 12a2 2 0 0 1 2 2h1a3 3 0 0 0-3-3z" style="color:#dedede" transform="translate(1 1)"/></g></svg>