<svg xmlns="http://www.w3.org/2000/svg" width="24" height="24"><path d="m5.121 3 1 1H18v11.879l1 1V3H5.121zm2 2 1 1H13V5H7.121zm2 2 1 1H11V7H9.121zM5 7.121V11H3v1h6.879l-1-1H6V8.121l-1-1zM13.121 11l1 1H17v-1h-3.879zM3 13v6h13.879l-2-2H14v-.879L10.879 13H3zm12.121 0L17 14.879V13h-1.879zM4 17h1v1H4v-1zm2 0h1v1H6v-1zm2 0h1v1H8v-1zm2 0h1v1h-1v-1z" style="fill:currentColor;fill-opacity:1;stroke:none;color:#dedede" transform="translate(1 1)"/><path d="M3.707 3 3 3.707 18.293 19l.707-.707L3.707 3zM14 5v1h3V5h-3z" style="fill:currentColor;fill-opacity:1;stroke:none;color:#da4453" transform="translate(1 1)"/></svg>