<svg xmlns="http://www.w3.org/2000/svg" viewBox="0 0 24 24"><path d="M6 4c-1.108 0-2 .892-2 2h1c0-.554.446-1 1-1V4zm2 0v1c.554 0 1 .446 1 1h1c0-1.108-.892-2-2-2zm5 0v1h5c.554 0 1 .446 1 1v5h1V6c0-1.108-.892-2-2-2h-5zM4 8c0 1.108.892 2 2 2V9c-.554 0-1-.446-1-1H4zm5 0c0 .554-.446 1-1 1v1c1.108 0 2-.892 2-2H9zm-5 5v5c0 1.108.892 2 2 2h5v-1H6c-.554 0-1-.446-1-1v-5H4zm11.998.43v4.656l-1.621-1.621-.707.707L16.498 20l2.83-2.828-.707-.707-1.623 1.62V13.43h-1z" style="fill:currentColor;color:#dedede"/></svg>