<svg xmlns="http://www.w3.org/2000/svg" width="24" height="24"><g fill="currentColor" style="color:#dedede"><path d="M9 7.024c-1.108 0-2 .892-2 2v6c0 1.108.892 2 2 2h6c1.108 0 2-.892 2-2v-6c0-1.108-.892-2-2-2zm0 1h6c.554 0 1 .446 1 1v6c0 .554-.446 1-1 1H9c-.554 0-1-.446-1-1v-6c0-.554.446-1 1-1zM6 4.024c-1.108 0-2 .892-2 2v1h1v-1c0-.554.446-1 1-1h1v-1zm11 0v1h1c.554 0 1 .446 1 1v1h1v-1c0-1.108-.892-2-2-2zm-13 13v1c0 1.108.892 2 2 2h1v-1H6c-.554 0-1-.446-1-1v-1zm15 0v1c0 .554-.446 1-1 1h-1v1h1c1.108 0 2-.892 2-2v-1z"/></g></svg>