<svg xmlns="http://www.w3.org/2000/svg" width="24" height="24"><path fill="currentColor" d="M6 4c-1.108 0-2 .892-2 2v2h1V6c0-.554.446-1 1-1h2V4zm6 0-2 2h4zm4 0v1h2c.554 0 1 .446 1 1v2h1V6c0-1.108-.892-2-2-2zM9 7c-1.108 0-2 .892-2 2v6c0 1.108.892 2 2 2h6c1.108 0 2-.892 2-2V9c0-1.108-.892-2-2-2zm0 1h3v4h4v3c0 .554-.446 1-1 1h-3v-4H8V9c0-.554.446-1 1-1zm-3 2-2 2 2 2zm12 0v4l2-2zM4 16v2c0 1.108.892 2 2 2h2v-1H6c-.554 0-1-.446-1-1v-2zm15 0v2c0 .554-.446 1-1 1h-2v1h2c1.108 0 2-.892 2-2v-2zm-9 2 2 2 2-2z" style="color:#dedede"/></svg>