<svg xmlns="http://www.w3.org/2000/svg" viewBox="0 0 24 24"><path fill="currentColor" d="M6 4c-1.108 0-2 .892-2 2v1h1V6c0-.554.446-1 1-1h1V4H6zm3 0v1h2V4H9zm8.172.67-.707.707 1.621 1.621H13.43v1h4.656l-1.621 1.623.707.707 2.121-2.123.707-.707-2.828-2.828zM4 9v2h1V9H4zm15 4v2h1v-2h-1zM6 14c-1.108 0-2 .892-2 2v2c0 1.108.892 2 2 2h2c1.108 0 2-.892 2-2v-2c0-1.108-.892-2-2-2H6zm0 1h2c.554 0 1 .446 1 1v2c0 .554-.446 1-1 1H6c-.554 0-1-.446-1-1v-2c0-.554.446-1 1-1zm13 2v1c0 .554-.446 1-1 1h-1v1h1c1.108 0 2-.892 2-2v-1h-1zm-6 2v1h2v-1h-2z" style="color:#dedede"/></svg>