<svg xmlns="http://www.w3.org/2000/svg" width="24" height="24"><path fill="currentColor" d="M18 4c1.108 0 2 .892 2 2v1h-1V6c0-.554-.446-1-1-1h-1V4zM7 4v1H6c-.554 0-1 .446-1 1v1H4V6c0-1.108.892-2 2-2zm3 2c.554 0 1 .446 1 1v10c0 .554-.446 1-1 1H7c-.554 0-1-.446-1-1V7c0-.554.446-1 1-1zm7 3c.554 0 1 .446 1 1v4c0 .554-.446 1-1 1h-1c-.554 0-1-.446-1-1v-4c0-.554.446-1 1-1zm-5 1v4l2-2zm8 7v1c0 1.108-.892 2-2 2h-1v-1h1c.554 0 1-.446 1-1v-1zM5 17v1c0 .554.446 1 1 1h1v1H6c-1.108 0-2-.892-2-2v-1z" style="color:#dedede"/></svg>