<svg xmlns="http://www.w3.org/2000/svg" width="24" height="24"><path fill="currentColor" d="M6 4c-1.108 0-2 .892-2 2v1h1V6c0-.554.446-1 1-1h1V4zm3 0v1h2V4zm4 0v1h2V4zm4 0v1h1c.554 0 1 .446 1 1v1h1V6c0-1.108-.892-2-2-2zm-5 4v1h2.293L11 12.293l.707.707L15 9.707V12h1V8h-4zM4 9v2h1V9zm15 0v2h1V9zm0 4v2h1v-2zM6 14c-1.108 0-2 .892-2 2v2c0 1.108.892 2 2 2h2c1.108 0 2-.892 2-2v-2c0-1.108-.892-2-2-2zm0 1h2c.554 0 1 .446 1 1v2c0 .554-.446 1-1 1H6c-.554 0-1-.446-1-1v-2c0-.554.446-1 1-1zm13 2v1c0 .554-.446 1-1 1h-1v1h1c1.108 0 2-.892 2-2v-1z" style="color:#dedede"/></svg>