<svg xmlns="http://www.w3.org/2000/svg" width="22" height="22">
<defs>
<style id="current-color-scheme" type="text/css">
.ColorScheme-Text{color:#fcfcfc}
</style>
</defs>
<path fill="currentColor" d="M15.5 11a3.5 3.5 0 1 0 0 7 3.5 3.5 0 0 0 0-7m-1 1c.277 0 .5.223.5.5V15h2.5a.499.499 0 1 1 0 1h-3a.5.5 0 0 1-.5-.5v-3c0-.277.223-.5.5-.5" class="ColorScheme-Text"/>
<path fill="currentColor" d="M5 4c-1.108 0-2 .892-2 2v10c0 1.108.892 2 2 2h7.672a4.5 4.5 0 0 1-.912-1H5c-.554 0-1-.446-1-1V9h5l2-2h6c.554 0 1 .446 1 1v2.758a4.5 4.5 0 0 1 1 .916V8c0-1.108-.892-2-2-2h-6L9 4zm0 1h3.586l1.496 1.504L8.586 8H4V6c0-.554.446-1 1-1" class="ColorScheme-Text"/>
</svg>
