<svg xmlns="http://www.w3.org/2000/svg" width="22" height="22">
<defs>
<style id="current-color-scheme" type="text/css">
.ColorScheme-Text{color:#dedede}
</style>
</defs>
<path fill="currentColor" d="M11 6.02a8.93 8.93 0 0 0-6.85 3.202.638.638 0 0 0 .49 1.049.64.64 0 0 0 .49-.228A7.66 7.66 0 0 1 11 7.3a7.66 7.66 0 0 1 5.87 2.744.64.64 0 0 0 .49.228.638.638 0 0 0 .49-1.05 8.93 8.93 0 0 0-6.85-3.2zm0 2.708a6.38 6.38 0 0 0-4.892 2.286.639.639 0 1 0 .978.822A5.1 5.1 0 0 1 11 10.006c1.51 0 2.937.667 3.914 1.83a.64.64 0 0 0 .49.228.638.638 0 0 0 .488-1.05A6.38 6.38 0 0 0 11 8.728m0 2.812a3.83 3.83 0 0 0-2.936 1.37.64.64 0 0 0 .08.901.636.636 0 0 0 .9-.078A2.55 2.55 0 0 1 11 12.82c.755 0 1.468.333 1.957.914a.637.637 0 0 0 .9.078.64.64 0 0 0 .08-.9A3.83 3.83 0 0 0 11 11.54m-.055 2.427c-.5.048-.98.421-.997.978a1.052 1.052 0 0 0 2.104 0c-.088-.747-.606-1.026-1.107-.978" class="ColorScheme-Text"/>
</svg>
