<svg xmlns="http://www.w3.org/2000/svg" width="22" height="22">
<defs>
<style id="current-color-scheme" type="text/css">
.ColorScheme-Text{color:#dedede}
</style>
</defs>
<path fill="currentColor" d="M5 4c-1.108 0-2 .892-2 2v10c0 1.108.892 2 2 2h12c1.108 0 2-.892 2-2V8c0-1.108-.892-2-2-2h-6L9 4zm0 1h3.586l2 2H17c.554 0 1 .446 1 1v1.275A2 2 0 0 0 17 9h-6.414l-2 2H5c-.367 0-.705.104-1 .275V6c0-.554.446-1 1-1m6 5h6c.554 0 1 .446 1 1v5c0 .554-.446 1-1 1H5c-.554 0-1-.446-1-1v-3c0-.554.446-1 1-1h4z" class="ColorScheme-Text"/>
</svg>
