<svg xmlns="http://www.w3.org/2000/svg" width="22" height="22">
<defs>
<style id="current-color-scheme" type="text/css">
.ColorScheme-Text{color:#dedede}
</style>
</defs>
<path fill="currentColor" d="M10 6a2.5 2.5 0 0 0-2.46 2.06A2.5 2.5 0 0 0 7 8a2.5 2.5 0 0 0-2.5 2.5 2.5 2.5 0 0 0 .164.889A2.5 2.5 0 0 0 3.5 13.5 2.5 2.5 0 0 0 6 16a2.5 2.5 0 0 0 1.941-.926A4 4 0 0 0 10.5 16a4 4 0 0 0 2.71-1.06A3 3 0 0 0 15.5 16a3 3 0 0 0 3-3 3 3 0 0 0-2.086-2.855A2.5 2.5 0 0 0 16.5 9.5 2.5 2.5 0 0 0 14 7a2.5 2.5 0 0 0-1.658.629A2.5 2.5 0 0 0 10 6" class="ColorScheme-Text"/>
</svg>
