<svg xmlns="http://www.w3.org/2000/svg" width="22" height="22">
<defs>
<style id="current-color-scheme" type="text/css">
.ColorScheme-Text{color:#f67400}
</style>
</defs>
<path fill="currentColor" d="M5 5c-1.108 0-2 .892-2 2v9c0 1.108.892 2 2 2h12c1.108 0 2-.892 2-2V8c0-1.108-.892-2-2-2H9.371c-.58-.023-.605.077-1.039-.357S7.719 5 7 5zm0 1h2c.311 0 .52 0 .998.47.479.472.639.53 1 .53H17c.554 0 1 .446 1 1v1H4V7c0-.554.446-1 1-1m-1 4h14v6c0 .554-.446 1-1 1H5c-.554 0-1-.446-1-1z" class="ColorScheme-Text"/>
</svg>
