<svg xmlns="http://www.w3.org/2000/svg" width="22" height="22">
<defs>
<style id="current-color-scheme" type="text/css">
.ColorScheme-Text{color:#dedede}
</style>
</defs>
<path fill="currentColor" d="M11 3a8 8 0 0 0-8 8 8 8 0 0 0 3.938 6.878.56.56 0 0 0 .332.112.556.556 0 0 0 .556-.556.56.56 0 0 0-.266-.474A6.89 6.89 0 0 1 4.11 11 6.89 6.89 0 0 1 11 4.11 6.89 6.89 0 0 1 17.889 11a6.89 6.89 0 0 1-3.45 5.958l.002.003a.56.56 0 0 0-.284.484.556.556 0 0 0 .556.555.56.56 0 0 0 .325-.107A8 8 0 0 0 19 11a8 8 0 0 0-8-8m0 2.222A5.78 5.78 0 0 0 5.222 11a5.78 5.78 0 0 0 2.846 4.968l.048.03a.56.56 0 0 0 .267.069.556.556 0 0 0 .555-.556.56.56 0 0 0-.3-.493l-.003-.002A4.67 4.67 0 0 1 6.333 11 4.667 4.667 0 0 1 11 6.333 4.667 4.667 0 0 1 15.667 11a4.67 4.67 0 0 1-2.338 4.037.56.56 0 0 0-.279.48.556.556 0 0 0 .556.556.56.56 0 0 0 .278-.075v.001a5.78 5.78 0 0 0 2.894-5A5.78 5.78 0 0 0 11 5.223m0 2.444A3.333 3.333 0 0 0 7.667 11a3.33 3.33 0 0 0 1.625 2.856l.034.02.01.007a.56.56 0 0 0 .264.066.556.556 0 0 0 .555-.556.56.56 0 0 0-.283-.483A2.22 2.22 0 0 1 8.778 11 2.22 2.22 0 0 1 11 8.776 2.22 2.22 0 0 1 13.222 11a2.22 2.22 0 0 1-1.114 1.923l.001.001a.56.56 0 0 0-.269.476.556.556 0 0 0 .556.555.56.56 0 0 0 .268-.07l.008-.004.045-.03A3.33 3.33 0 0 0 14.333 11 3.333 3.333 0 0 0 11 7.665m0 2.445a.89.89 0 0 0-.889.889.89.89 0 0 0 .889.888.89.89 0 0 0 .889-.888.89.89 0 0 0-.889-.89" class="ColorScheme-Text"/>
</svg>
