<svg xmlns="http://www.w3.org/2000/svg"  width="16" height="16" viewBox="-3 -3 22 22">
<style id="current-color-scheme" type="text/css">
.ColorScheme-Text{color:#fcfcfc}
</style>
<path d="M8 0C3.576 0 0 3.576 0 8s3.576 8 8 8 8-3.576 8-8-3.576-8-8-8m0 1c3.87 0 7 3.13 7 7s-3.13 7-7 7-7-3.13-7-7 3.13-7 7-7m0 2a1 1 0 0 0-1 1 1 1 0 0 0 1 1 1 1 0 0 0 1-1 1 1 0 0 0-1-1M3 6v1h4v1l-1.295 4.83.967.258L7.768 9h.464l1.096 4.088.967-.258L9 8V7h4V6z" class="ColorScheme-Text" style="fill:currentColor"/>
</svg>
