<svg xmlns="http://www.w3.org/2000/svg" id="svg" width="22" height="22" version="1.1">
<defs id="defs81">
<style id="current-color-scheme" type="text/css">
.ColorScheme-Text{color:#fcfcfc}.ColorScheme-Background{color:#eff0f1}
</style>
</defs>
<g id="g2590">
<path id="rect3009" d="M0 0h22v22H0z" class="ColorScheme-Background" style="fill:currentColor;fill-opacity:0;stroke:none"/>
<path id="path1055" fill="currentColor" d="M6 5.5A1.5 1.5 0 0 1 7.5 4h7A1.5 1.5 0 0 1 16 5.5V6h.5A2.5 2.5 0 0 1 19 8.5v5a1.5 1.5 0 0 1-1.5 1.5H16v1.5a1.5 1.5 0 0 1-1.5 1.5h-7A1.5 1.5 0 0 1 6 16.5V15H4.5A1.5 1.5 0 0 1 3 13.5v-5A2.5 2.5 0 0 1 5.5 6H6ZM7 6h8v-.5a.5.5 0 0 0-.5-.5h-7a.5.5 0 0 0-.5.5Zm-1 8v-1.5A1.5 1.5 0 0 1 7.5 11h7a1.5 1.5 0 0 1 1.5 1.5V14h1.5a.5.5 0 0 0 .5-.5v-5A1.5 1.5 0 0 0 16.5 7h-11A1.5 1.5 0 0 0 4 8.5v5a.5.5 0 0 0 .5.5Zm1.5-2a.5.5 0 0 0-.5.5v4a.5.5 0 0 0 .5.5h7a.5.5 0 0 0 .5-.5v-4a.5.5 0 0 0-.5-.5Z" class="ColorScheme-Text"/>
</g>
</svg>
