<svg xmlns="http://www.w3.org/2000/svg" width="64" height="64">
<defs>
<style id="current-color-scheme" type="text/css">
.ColorScheme-Contrast{color:#000}
</style>
</defs>
<g id="user-desktop" transform="matrix(2 0 0 2 -50 10)">
<rect width="32" height="32" x="25" y="-5" rx="0" ry="0" style="fill:none;stroke-width:.91429"/>
<path d="M-150 42c-4.432 0-8 3.568-8 8v24c0 4.432 3.568 8 8 8h36c4.432 0 8-3.568 8-8V50c0-4.432-3.568-8-8-8zm0 2h36c3.324 0 6 2.676 6 6v24c0 3.324-2.676 6-6 6h-36c-3.324 0-6-2.676-6-6V50c0-3.324 2.676-6 6-6" class="ColorScheme-Contrast" style="fill:currentColor" transform="matrix(.5 0 0 .5 107 -20)"/>
<rect width="18" height="1" x="32" y="17" class="ColorScheme-Contrast" rx=".5" ry=".5" style="fill:currentColor"/>
</g>
</svg>
