<svg xmlns="http://www.w3.org/2000/svg" width="16" height="16"><path fill="#dedede" stroke-linecap="round" stroke-linejoin="round" stroke-width="166667" d="M14.68 4.32q.64.64.977 1.461Q16 6.594 16 7.5q0 .273-.015.656t-.07.828q-.047.446-.15.922-.093.469-.25.922-.233.672-.546 1.102-.312.422-.648.664-.336.234-.68.32Q13.297 13 13 13q-.259 0-.477-.086-.211-.094-.407-.234-.187-.14-.359-.32l-.328-.376q-.164-.187-.328-.359-.156-.172-.328-.305-.172-.14-.367-.226-.188-.086-.414-.094H6.008q-.226.008-.422.094-.187.086-.36.226-.171.133-.335.305-.156.172-.32.36t-.336.374q-.164.18-.36.32-.187.141-.406.235Q3.259 13 3 13q-.297 0-.64-.086-.344-.086-.68-.32-.336-.242-.648-.664-.313-.43-.547-1.102-.157-.453-.258-.922-.094-.476-.149-.922-.046-.445-.062-.828T0 7.5q0-.906.336-1.719.344-.82.985-1.46.632-.641 1.453-.977Q3.594 3 4.5 3h7q.907 0 1.72.344.82.336 1.46.976zm-.11 6.18q.15-.414.235-.86.086-.445.125-.85.047-.415.055-.75Q15 7.702 15 7.5q0-.727-.28-1.36-.274-.64-.75-1.109-.47-.476-1.11-.75Q12.227 4 11.5 4h-7q-.726 0-1.367.281-.633.274-1.11.75-.468.469-.75 1.11Q1 6.773 1 7.5q0 .203.008.54.016.335.055.75.047.405.133.85.085.446.234.86.195.563.43.867.234.305.453.445.226.141.406.165Q2.906 12 3 12q.172 0 .375-.203.211-.211.438-.469.187-.219.398-.445.219-.235.477-.422.265-.195.586-.32t.71-.141h4.032q.39.016.71.14.321.126.579.32.265.188.476.423.22.226.407.445.226.258.43.469.21.203.382.203.094 0 .274-.023.187-.024.406-.165.226-.14.46-.445.235-.304.43-.867zM4 7h1v1H4v1H3V8H2V7h1V6h1zm9 1q.212 0 .391.078.18.078.313.219.14.133.218.312t.079.391-.079.39-.218.32q-.133.134-.313.212-.18.078-.39.078-.211 0-.391-.078-.18-.078-.32-.211-.133-.14-.211-.32T12 9t.078-.39.21-.313q.141-.14.321-.219Q12.79 8 13 8zm-2-2q.212 0 .391.078.18.078.313.219.14.133.218.312t.079.391-.079.39-.218.32q-.133.134-.313.212-.18.078-.39.078-.211 0-.391-.078-.18-.078-.32-.211-.133-.14-.211-.32T10 7t.078-.39.21-.313q.141-.14.321-.219Q10.79 6 11 6z" aria-label="" style="paint-order:stroke fill markers"/></svg>