<svg xmlns="http://www.w3.org/2000/svg" width="16.002" height="15.997"><path fill="#dedede" d="M9.5 1a4.5 4.5 0 0 0-3.79 2.074A3.5 3.5 0 0 0 5 3a3.5 3.5 0 0 0-3.5 3.5 3.5 3.5 0 0 0 .004.158C.59 7.528 0 8.804 0 10.25 0 12.881 1.91 15 4.285 15h7.43C14.089 15 16 12.881 16 10.25c0-1.722-.826-3.21-2.057-4.043A4.5 4.5 0 0 0 14 5.5 4.5 4.5 0 0 0 9.5 1zm0 1a3.5 3.5 0 0 1 .148.004 3.5 3.5 0 0 1 .01 0 3.5 3.5 0 0 1 .305.027 3.5 3.5 0 0 1 .101.016 3.5 3.5 0 0 1 .053.008 3.5 3.5 0 0 1 .008.002 3.5 3.5 0 0 1 .146.029 3.5 3.5 0 0 1 .008.002 3.5 3.5 0 0 1 .297.082 3.5 3.5 0 0 1 .008.002 3.5 3.5 0 0 1 .14.049 3.5 3.5 0 0 1 .008.004 3.5 3.5 0 0 1 .137.054 3.5 3.5 0 0 1 .008.004 3.5 3.5 0 0 1 .137.06 3.5 3.5 0 0 1 .007.005 3.5 3.5 0 0 1 .133.068 3.5 3.5 0 0 1 .006.004 3.5 3.5 0 0 1 .131.072 3.5 3.5 0 0 1 .027.018 3.5 3.5 0 0 1 .106.066 3.5 3.5 0 0 1 .008.004 3.5 3.5 0 0 1 .12.086 3.5 3.5 0 0 1 .126.094 3.5 3.5 0 0 1 .008.006 3.5 3.5 0 0 1 .23.2 3.5 3.5 0 0 1 .006.007 3.5 3.5 0 0 1 .105.105 3.5 3.5 0 0 1 .006.006 3.5 3.5 0 0 1 .201.23 3.5 3.5 0 0 1 .006.008 3.5 3.5 0 0 1 .094.125 3.5 3.5 0 0 1 .086.121 3.5 3.5 0 0 1 .07.114 3.5 3.5 0 0 1 .014.021 3.5 3.5 0 0 1 .004.006 3.5 3.5 0 0 1 .072.13 3.5 3.5 0 0 1 .004.007 3.5 3.5 0 0 1 .068.133 3.5 3.5 0 0 1 .004.007 3.5 3.5 0 0 1 .06.137 3.5 3.5 0 0 1 .005.008 3.5 3.5 0 0 1 .054.137 3.5 3.5 0 0 1 .004.007 3.5 3.5 0 0 1 .05.141 3.5 3.5 0 0 1 .001.008 3.5 3.5 0 0 1 .043.144 3.5 3.5 0 0 1 .002.008 3.5 3.5 0 0 1 .037.145 3.5 3.5 0 0 1 .002.008 3.5 3.5 0 0 1 .03.146 3.5 3.5 0 0 1 .001.008 3.5 3.5 0 0 1 .008.053 3.5 3.5 0 0 1 .016.101 3.5 3.5 0 0 1 .017.149 3.5 3.5 0 0 1 0 .007 3.5 3.5 0 0 1 .01.149A3.5 3.5 0 0 1 13 5.5a3.5 3.5 0 0 1-.002.086 3.5 3.5 0 0 1-.002.072 3.5 3.5 0 0 1-.002.02 3.5 3.5 0 0 1-.25 1.133 3.738 3.738 0 0 1 2.133 2.515c.02.08.04.159.055.24.01.058.021.115.029.174.023.167.039.336.039.51A3.742 3.742 0 0 1 11.25 14h-6.5A3.742 3.742 0 0 1 1 10.25c0-.203.022-.4.053-.594.005-.035.013-.069.02-.103.184-.977.74-1.82 1.523-2.37A2.5 2.5 0 0 1 2.5 6.5a2.5 2.5 0 0 1 .111-.732 2.5 2.5 0 0 1 .143-.364 2.5 2.5 0 0 1 .004-.006 2.5 2.5 0 0 1 .203-.343 2.5 2.5 0 0 1 .256-.305 2.5 2.5 0 0 1 .09-.088 2.5 2.5 0 0 1 .005-.006 2.5 2.5 0 0 1 .02-.015 2.5 2.5 0 0 1 .186-.153 2.5 2.5 0 0 1 .101-.072 2.5 2.5 0 0 1 .008-.004 2.5 2.5 0 0 1 .105-.066 2.5 2.5 0 0 1 .008-.004 2.5 2.5 0 0 1 .108-.06 2.5 2.5 0 0 1 .01-.005 2.5 2.5 0 0 1 .119-.056 2.5 2.5 0 0 1 .113-.05 2.5 2.5 0 0 1 .004-.001 2.5 2.5 0 0 1 .03-.01 2.5 2.5 0 0 1 .1-.035 2.5 2.5 0 0 1 .12-.037 2.5 2.5 0 0 1 .008-.002 2.5 2.5 0 0 1 .12-.03 2.5 2.5 0 0 1 .008-.001 2.5 2.5 0 0 1 .03-.006 2.5 2.5 0 0 1 .101-.018 2.5 2.5 0 0 1 .133-.017 2.5 2.5 0 0 1 .123-.01 2.5 2.5 0 0 1 .008 0A2.5 2.5 0 0 1 5 4a2.5 2.5 0 0 1 .13.004 2.5 2.5 0 0 1 .003 0 2.5 2.5 0 0 1 .064.004 2.5 2.5 0 0 1 .008 0 2.5 2.5 0 0 1 .047.004 4.5 4.5 0 0 0 0 .002 2.5 2.5 0 0 1 .957.298 3.5 3.5 0 0 1 .47-.882 3.5 3.5 0 0 0-.001 0 3.5 3.5 0 0 1 .173-.217 3.5 3.5 0 0 1 .024-.027 3.5 3.5 0 0 1 .092-.1 3.5 3.5 0 0 1 .015-.018 3.5 3.5 0 0 1 .096-.093 3.5 3.5 0 0 1 .016-.016 3.5 3.5 0 0 1 .078-.07 3.5 3.5 0 0 1 .03-.028 3.5 3.5 0 0 1 .112-.093 3.5 3.5 0 0 1 .125-.096 3.5 3.5 0 0 1 .018-.014 3.5 3.5 0 0 1 .246-.16 3.5 3.5 0 0 1 .275-.15 3.5 3.5 0 0 1 .02-.01 3.5 3.5 0 0 1 .125-.055 3.5 3.5 0 0 1 .145-.058 3.5 3.5 0 0 1 .019-.008 3.5 3.5 0 0 1 .049-.018 3.5 3.5 0 0 1 .101-.033 3.5 3.5 0 0 1 .131-.04 3.5 3.5 0 0 1 .02-.005 3.5 3.5 0 0 1 .066-.016 3.5 3.5 0 0 1 .067-.017 3.5 3.5 0 0 1 .22-.043 3.5 3.5 0 0 1 .11-.016 3.5 3.5 0 0 1 .29-.025A3.5 3.5 0 0 1 9.5 2z"/></svg>