<svg xmlns="http://www.w3.org/2000/svg" width="16" height="16"><defs><style id="current-color-scheme" type="text/css">.ColorScheme-Text{color:#dedede}</style></defs><path fill="#dedede" d="M1 2c-.554 0-1 .446-1 1v10c0 .554.446 1 1 1h14c.554 0 1-.446 1-1V3c0-.554-.446-1-1-1H1zm0 1h14v7.406l-2.992-3.12-3.16 3.16-3.817-4.15L1 9.957V3zm10 1a1 1 0 0 0-1 1 1 1 0 0 0 1 1 1 1 0 0 0 1-1 1 1 0 0 0-1-1zM4.969 7.703 9.839 13H1v-1.693L4.97 7.703zm7.023 1.012L15 11.852V13h-3.803l-1.672-1.818 2.467-2.467z" color="#727272"/></svg>