<?xml version="1.0" encoding="UTF-8" standalone="no"?>
<svg
   id="svg4153"
   width="22"
   height="22"
   version="1.1"
   viewBox="0 0 22 22"
   xmlns="http://www.w3.org/2000/svg"
   xmlns:svg="http://www.w3.org/2000/svg"
   xmlns:rdf="http://www.w3.org/1999/02/22-rdf-syntax-ns#"
   xmlns:cc="http://creativecommons.org/ns#"
   xmlns:dc="http://purl.org/dc/elements/1.1/">
  <metadata
     id="metadata870">
    <rdf:RDF>
      <cc:Work
         rdf:about="">
        <dc:format>image/svg+xml</dc:format>
        <dc:type
           rdf:resource="http://purl.org/dc/dcmitype/StillImage" />
      </cc:Work>
    </rdf:RDF>
  </metadata>
  <defs
     id="defs4157">
    <style
       id="current-color-scheme"
       type="text/css">.ColorScheme-Text {
        color:#31363b;
      }
      .ColorScheme-Background {
        color:#eff0f1;
      }
      .ColorScheme-Highlight {
        color:#3498db;
      }
      .ColorScheme-ViewText {
        color:#31363b;
      }
      .ColorScheme-ViewBackground {
        color:#fcfcfc;
      }
      .ColorScheme-ViewHover {
        color:#93cee9;
      }
      .ColorScheme-ViewFocus{
        color:#3daee9;
      }
      .ColorScheme-ButtonText {
        color:#31363b;
      }
      .ColorScheme-ButtonBackground {
        color:#eff0f1;
      }
      .ColorScheme-ButtonHover {
        color:#93cee9;
      }
      .ColorScheme-ButtonFocus{
        color:#3daee9;
      }
      .ColorScheme-NegativeText{
        color:#e74c3c;
      }</style>
  </defs>
  <g
     id="network-mobile-80-gprs-locked"
     transform="translate(0,88)">
    <rect
       id="rect4862"
       y="-88"
       width="22"
       height="22"
       fill="none"
       opacity="0.55"
       x="0" />
    <path
       id="path4864"
       class="ColorScheme-Text"
       d="M 19,-85 3,-69 h 11 v -3 l 1,-1 v -2 l 2,-2 h 2 z"
       fill="currentColor"
       fill-rule="evenodd"
       opacity="0.35" />
    <path
       id="path4866"
       class="ColorScheme-Text"
       d="m 18,-76 c -1.108,0 -2,0.892 -2,2 v 2 h -1 v 3 h 6 v -3 h -1 v -2 c 0,-1.108 -0.892,-2 -2,-2 z m 0,1 c 0.554,0 1,0.446 1,1 v 2 h -2 v -2 c 0,-0.554 0.446,-1 1,-1 z"
       fill="currentColor" />
    <path
       id="path4892"
       class="ColorScheme-Text"
       d="M 17,-83 3,-69 h 11 v -3 l 1,-1 v -2 l 2,-2 z"
       fill="currentColor"
       fill-rule="evenodd" />
    <path
       id="path5070"
       class="ColorScheme-Text"
       d="m 3,-85 v 5 h 4 v -3 H 5 v 1 h 1 v 1 H 4 v -3 h 3 v -1 z"
       fill="currentColor" />
  </g>
</svg>
