<?xml version="1.0" encoding="UTF-8" standalone="no"?>
<svg
   id="svg4153"
   width="32"
   height="32"
   version="1.1"
   viewBox="0 0 32 32"
   xmlns="http://www.w3.org/2000/svg"
   xmlns:svg="http://www.w3.org/2000/svg"
   xmlns:rdf="http://www.w3.org/1999/02/22-rdf-syntax-ns#"
   xmlns:cc="http://creativecommons.org/ns#"
   xmlns:dc="http://purl.org/dc/elements/1.1/">
  <metadata
     id="metadata870">
    <rdf:RDF>
      <cc:Work
         rdf:about="">
        <dc:format>image/svg+xml</dc:format>
        <dc:type
           rdf:resource="http://purl.org/dc/dcmitype/StillImage" />
      </cc:Work>
    </rdf:RDF>
  </metadata>
  <defs
     id="defs4157">
    <style
       id="current-color-scheme"
       type="text/css">.ColorScheme-Text {
        color:#31363b;
      }
      .ColorScheme-Background {
        color:#eff0f1;
      }
      .ColorScheme-Highlight {
        color:#3498db;
      }
      .ColorScheme-ViewText {
        color:#31363b;
      }
      .ColorScheme-ViewBackground {
        color:#fcfcfc;
      }
      .ColorScheme-ViewHover {
        color:#93cee9;
      }
      .ColorScheme-ViewFocus{
        color:#3daee9;
      }
      .ColorScheme-ButtonText {
        color:#31363b;
      }
      .ColorScheme-ButtonBackground {
        color:#eff0f1;
      }
      .ColorScheme-ButtonHover {
        color:#93cee9;
      }
      .ColorScheme-ButtonFocus{
        color:#3daee9;
      }
      .ColorScheme-NegativeText{
        color:#e74c3c;
      }</style>
  </defs>
  <g
     id="network-wired-activated"
     transform="translate(-228,5)">
    <g
       id="g2939">
      <rect
         style="fill:none;fill-opacity:1;stroke:none;stroke-width:1.45455"
         id="rect1618"
         width="32"
         height="32"
         x="228"
         y="-5" />
      <path
         id="rect1648"
         class="ColorScheme-Text"
         d="m 251,0 c -1.108,0 -2,0.892 -2,2 v 6 c 0,1.108 0.892,2 2,2 h 2 v 12.5 c 0,0.277 0.223,0.5 0.5,0.5 0.277,0 0.5,-0.223 0.5,-0.5 V 10 h 2 c 1.108,0 2,-0.892 2,-2 V 2 c 0,-1.108 -0.892,-2 -2,-2 z m -16,1 c -1.662,0 -3,1.338 -3,3 v 1 1 9 c 0,1.662 1.338,3 3,3 h 6 v 4 h -2.5 c -0.277,0 -0.5,0.223 -0.5,0.5 0,0.277 0.223,0.5 0.5,0.5 h 13 c 0.277,0 0.5,-0.223 0.5,-0.5 0,-0.277 -0.223,-0.5 -0.5,-0.5 H 249 v -4 h 2.5 c 0.277,0 0.5,-0.223 0.5,-0.5 0,-0.277 -0.223,-0.5 -0.5,-0.5 H 241 235 c -1.108,0 -2,-0.892 -2,-2 V 6 5 4 c 0,-1.108 0.892,-2 2,-2 h 1 1 10.5 C 247.777,2 248,1.777 248,1.5 248,1.223 247.777,1 247.5,1 H 237 236 Z m 16,0 h 5 c 0.554,0 1,0.446 1,1 v 1 h -7 V 2 c 0,-0.554 0.446,-1 1,-1 z m -1,3 h 7 v 4 c 0,0.554 -0.446,1 -1,1 h -5 c -0.554,0 -1,-0.446 -1,-1 z m -8,14 h 6 v 4 h -6 z"
         fill="currentColor" />
    </g>
  </g>
</svg>
