<?xml version="1.0" encoding="UTF-8" standalone="no"?>
<svg
   id="svg4153"
   width="22"
   height="22"
   version="1.1"
   viewBox="0 0 22 22"
   xmlns="http://www.w3.org/2000/svg"
   xmlns:svg="http://www.w3.org/2000/svg"
   xmlns:rdf="http://www.w3.org/1999/02/22-rdf-syntax-ns#"
   xmlns:cc="http://creativecommons.org/ns#"
   xmlns:dc="http://purl.org/dc/elements/1.1/">
  <metadata
     id="metadata870">
    <rdf:RDF>
      <cc:Work
         rdf:about="">
        <dc:format>image/svg+xml</dc:format>
        <dc:type
           rdf:resource="http://purl.org/dc/dcmitype/StillImage" />
      </cc:Work>
    </rdf:RDF>
  </metadata>
  <defs
     id="defs4157">
    <style
       id="current-color-scheme"
       type="text/css">.ColorScheme-Text {
        color:#31363b;
      }
      .ColorScheme-Background {
        color:#eff0f1;
      }
      .ColorScheme-Highlight {
        color:#3498db;
      }
      .ColorScheme-ViewText {
        color:#31363b;
      }
      .ColorScheme-ViewBackground {
        color:#fcfcfc;
      }
      .ColorScheme-ViewHover {
        color:#93cee9;
      }
      .ColorScheme-ViewFocus{
        color:#3daee9;
      }
      .ColorScheme-ButtonText {
        color:#31363b;
      }
      .ColorScheme-ButtonBackground {
        color:#eff0f1;
      }
      .ColorScheme-ButtonHover {
        color:#93cee9;
      }
      .ColorScheme-ButtonFocus{
        color:#3daee9;
      }
      .ColorScheme-NegativeText{
        color:#e74c3c;
      }</style>
  </defs>
  <g
     id="network-wireless-off"
     transform="translate(-134.00278,-38)">
    <g
       id="g12246"
       transform="translate(-55,-14)">
      <g
         id="g13296">
        <rect
           style="fill:none;fill-opacity:1;stroke:none;stroke-width:0.733333;stroke-linecap:round;stroke-linejoin:round;stroke-miterlimit:4;stroke-dasharray:none;stroke-opacity:1"
           id="rect12236"
           width="22"
           height="22"
           x="134.00278"
           y="38"
           rx="0"
           ry="0"
           transform="translate(55,14)" />
        <path
           id="path12238"
           class="ColorScheme-Text"
           d="m -52.421875,169.07422 c -0.12781,0 -0.255581,0.0505 -0.353516,0.14844 -0.195868,0.19587 -0.195868,0.51116 0,0.70703 l 3.236329,3.23633 c -1.319966,0.71976 -2.470941,1.75197 -3.333985,3.0371 a 0.5,0.5 0 0 0 0.136719,0.69532 0.5,0.5 0 0 0 0.695312,-0.13672 c 0.829452,-1.23512 1.953704,-2.20691 3.244141,-2.85352 l 1.517578,1.51758 c -1.414353,0.5346 -2.624336,1.5513 -3.382812,2.91406 a 0.5,0.5 0 0 0 0.195312,0.67969 0.5,0.5 0 0 0 0.679688,-0.19531 c 0.719229,-1.29225 1.91566,-2.21583 3.298828,-2.60938 l 1.796875,1.79688 C -44.793607,178.00379 -44.89639,178.00002 -45,178 c -1.55078,0.001 -2.964264,0.90182 -3.621094,2.30664 a 0.5,0.5 0 0 0 0.242188,0.66406 0.5,0.5 0 0 0 0.664062,-0.24218 C -47.221344,179.67303 -46.16515,179.00086 -45,179 c 1.16577,2.1e-4 2.223027,0.67248 2.716797,1.72852 a 0.5,0.5 0 0 0 0.568359,0.25976 l 3.789063,3.78906 c 0.195869,0.19587 0.511162,0.19587 0.707031,0 0.195868,-0.19586 0.195868,-0.51116 0,-0.70703 l -8.060547,-8.06054 h -0.002 l -0.894531,-0.89649 -1.628907,-1.62695 -0.77539,-0.77539 -3.488281,-3.48828 c -0.09793,-0.0979 -0.225706,-0.14844 -0.353516,-0.14844 z M -45,172 c -0.864621,0.001 -1.711857,0.12561 -2.525391,0.35156 l 0.826172,0.82617 c 0.553785,-0.114 1.122174,-0.17681 1.699219,-0.17773 2.82876,4.5e-4 5.471271,1.4072 7.050781,3.75391 a 0.5,0.5 0 0 0 0.69336,0.13476 0.5,0.5 0 0 0 0.134765,-0.69336 C -38.885764,173.57353 -41.83965,172.00051 -45,172 Z m 0.126953,3.00391 1.150391,1.14843 c 1.475861,0.35308 2.762168,1.30579 3.521484,2.66407 a 0.5,0.5 0 0 0 0.679688,0.1914 0.5,0.5 0 0 0 0.191406,-0.67969 c -1.127178,-2.01632 -3.23972,-3.27817 -5.542969,-3.32421 z M -45,181 a 1,1 0 0 0 -1,1 1,1 0 0 0 1,1 1,1 0 0 0 1,-1 1,1 0 0 0 -1,-1 z"
           transform="translate(245,-114)"
           fill="currentColor" />
      </g>
    </g>
  </g>
</svg>
