<?xml version="1.0" encoding="UTF-8" standalone="no"?>
<svg
   id="svg4153"
   width="22.002001"
   height="22"
   version="1.1"
   viewBox="0 0 22.002001 22"
   xmlns="http://www.w3.org/2000/svg"
   xmlns:svg="http://www.w3.org/2000/svg"
   xmlns:rdf="http://www.w3.org/1999/02/22-rdf-syntax-ns#"
   xmlns:cc="http://creativecommons.org/ns#"
   xmlns:dc="http://purl.org/dc/elements/1.1/">
  <metadata
     id="metadata870">
    <rdf:RDF>
      <cc:Work
         rdf:about="">
        <dc:format>image/svg+xml</dc:format>
        <dc:type
           rdf:resource="http://purl.org/dc/dcmitype/StillImage" />
      </cc:Work>
    </rdf:RDF>
  </metadata>
  <defs
     id="defs4157">
    <style
       id="current-color-scheme"
       type="text/css">.ColorScheme-Text {
        color:#31363b;
      }
      .ColorScheme-Background {
        color:#eff0f1;
      }
      .ColorScheme-Highlight {
        color:#3498db;
      }
      .ColorScheme-ViewText {
        color:#31363b;
      }
      .ColorScheme-ViewBackground {
        color:#fcfcfc;
      }
      .ColorScheme-ViewHover {
        color:#93cee9;
      }
      .ColorScheme-ViewFocus{
        color:#3daee9;
      }
      .ColorScheme-ButtonText {
        color:#31363b;
      }
      .ColorScheme-ButtonBackground {
        color:#eff0f1;
      }
      .ColorScheme-ButtonHover {
        color:#93cee9;
      }
      .ColorScheme-ButtonFocus{
        color:#3daee9;
      }
      .ColorScheme-NegativeText{
        color:#e74c3c;
      }</style>
  </defs>
  <g
     id="network-bluetooth-activated-locked"
     transform="translate(-66)">
    <rect
       id="rect4674-6"
       x="66"
       width="22"
       height="22"
       fill="none"
       y="0" />
    <path
       id="path4676-7"
       class="ColorScheme-Text"
       transform="translate(-66)"
       d="m 143,3 v 7.0411 l -3.293,-3.293 -0.002,0.00195 C 139.34926,6.3941 138.70891,5.75396 138.70891,5.75396 l -0.70703,0.70703 4.5449,4.541 -4.5449,4.541 0.70703,0.70703 c 0,0 0.64035,-0.64009 0.99609,-0.99609 h 0.002 l 3.2949,-3.293 v 7.0391 h 1 l 4,-4 -4,-4 4,-4 -4,-4 h -1.002 z m 1.002,1.416 2.5859,2.5859 -2.5859,2.5859 V 4.4159 Z m -11,5.584 c -0.55228,0 -1,0.44772 -1,1 0,0.55228 0.44772,1 1,1 0.55228,0 1,-0.44772 1,-1 0,-0.55228 -0.44772,-1 -1,-1 z m 4,0 c -0.55228,0 -1,0.44772 -1,1 0,0.55228 0.44772,1 1,1 0.55228,0 1,-0.44772 1,-1 0,-0.55228 -0.44772,-1 -1,-1 z m 14,2 c -1.108,0 -2,0.892 -2,2 v 2 h -1 v 3 h 6 v -3 h -1 v -2 c 0,-1.108 -0.892,-2 -2,-2 z m -7,0.41602 2.5859,2.5859 -2.5859,2.5859 v -5.1719 z m 7,0.58398 c 0.554,0 1,0.446 1,1 v 2 h -2 v -2 c 0,-0.554 0.446,-1 1,-1 z"
       fill="currentColor" />
  </g>
</svg>
