<?xml version="1.0" encoding="UTF-8" standalone="no"?>
<svg
   width="32"
   height="32"
   version="1.1"
   viewBox="0 0 32 32"
   id="svg87"
   xmlns="http://www.w3.org/2000/svg"
   xmlns:svg="http://www.w3.org/2000/svg"
   xmlns:rdf="http://www.w3.org/1999/02/22-rdf-syntax-ns#"
   xmlns:cc="http://creativecommons.org/ns#"
   xmlns:dc="http://purl.org/dc/elements/1.1/">
  <metadata
     id="metadata91">
    <rdf:RDF>
      <cc:Work
         rdf:about="">
        <dc:format>image/svg+xml</dc:format>
        <dc:type
           rdf:resource="http://purl.org/dc/dcmitype/StillImage" />
        <dc:title />
      </cc:Work>
    </rdf:RDF>
  </metadata>
  <defs
     id="defs3">
    <style
       id="current-color-scheme"
       type="text/css">.ColorScheme-Text { color:#333333; } .ColorScheme-Highlight { color:#5294e2; } .ColorScheme-ButtonBackground { color:#f5f5f5; }</style>
  </defs>
  <g
     id="update-low"
     transform="translate(-22.014545,-22)">
    <rect
       width="32"
       height="32"
       clip-rule="evenodd"
       fill-opacity="0"
       stroke-linejoin="round"
       stroke-miterlimit="1.4142"
       stroke-width="0.794691"
       id="rect754"
       x="22.014545"
       y="22" />
    <path
       id="path756"
       class="ColorScheme-Text"
       d="m 38,26 c -6.627403,0 -12,5.372597 -12,12 0,6.627403 5.372597,12 12,12 1.476419,0 2.890923,-0.268117 4.197266,-0.755859 A 5,5 0 0 1 41.621094,48.386719 C 40.486662,48.782254 39.269278,49 38,49 31.92488,49 27,44.07512 27,38 c 0,-6.07512 4.92488,-11 11,-11 6.07512,0 11,4.92488 11,11 0,1.264924 -0.216431,2.478257 -0.609375,3.609375 a 5,5 0 0 1 0.853516,0.587891 C 49.731883,40.890923 50,39.476419 50,38 50,31.372597 44.627403,26 38,26 Z m 0,6 c -0.12781,0 -0.255582,0.04855 -0.353516,0.146484 l -4.242187,4.242188 c -0.195869,0.195868 -0.195868,0.511163 0,0.707031 0.195868,0.195868 0.511162,0.195868 0.707031,0 L 37.5,33.707031 V 43.5 c 0,0.277 0.223,0.5 0.5,0.5 0.277,0 0.5,-0.223 0.5,-0.5 v -9.792969 l 3.388672,3.388672 c 0.195869,0.195869 0.511162,0.195868 0.707031,0 0.195868,-0.195869 0.195869,-0.511162 0,-0.707031 l -4.242187,-4.242188 c -0.01189,-0.01189 -0.0244,-0.02276 -0.03711,-0.0332 h -0.002 c -0.07819,-0.06385 -0.170766,-0.10185 -0.265625,-0.111328 h -0.002 C 38.031145,32.000416 38.015976,32 38,32 Z"
       fill="currentColor" />
    <circle
       id="circle1003"
       cx="46"
       cy="46"
       r="4"
       class="ColorScheme-Highlight"
       fill="currentColor"
       style="opacity:0.35" />
  </g>
</svg>
